<svg id="Layer_1" data-name="Layer 1" xmlns="http://www.w3.org/2000/svg" viewBox="0 0 465 445"><defs><style>.cls-1{fill:#8d8e8d;}.cls-2{fill:#fff;}</style></defs><path class="cls-1" d="M124.72,220.85q-13,20.16-13,38.33,0,22.94,14.13,36.36T170.65,309c15.7,0,31.66-3.4,48.09-10.53h0l-65.16-105Q136.66,202.3,124.72,220.85ZM170.65,303c-18.73,0-32.39-4-40.62-11.78s-12.26-18.32-12.26-32c0-10.88,4-22.69,12-35.09,6.18-9.6,13.49-17.16,21.79-22.52l58.33,94A110.18,110.18,0,0,1,170.65,303Z"/><path class="cls-1" d="M124.72,220.85q-13,20.16-13,38.33,0,22.94,14.13,36.36T170.65,309c15.7,0,31.66-3.4,48.09-10.53h0l-65.16-105Q136.66,202.3,124.72,220.85ZM170.65,303c-18.73,0-32.39-4-40.62-11.78s-12.26-18.32-12.26-32c0-10.88,4-22.69,12-35.09,6.18-9.6,13.49-17.16,21.79-22.52l58.33,94A110.18,110.18,0,0,1,170.65,303Z"/><path class="cls-1" d="M124.72,220.85q-13,20.16-13,38.33,0,22.94,14.13,36.36T170.65,309c15.7,0,31.66-3.4,48.09-10.53h0l-65.16-105Q136.66,202.3,124.72,220.85ZM170.65,303c-18.73,0-32.39-4-40.62-11.78s-12.26-18.32-12.26-32c0-10.88,4-22.69,12-35.09,6.18-9.6,13.49-17.16,21.79-22.52l58.33,94A110.18,110.18,0,0,1,170.65,303Z"/><path class="cls-2" d="M124.72,220.85q-13,20.16-13,38.33,0,22.94,14.13,36.36T170.65,309c15.7,0,31.66-3.4,48.09-10.53h0l-65.16-105Q136.66,202.3,124.72,220.85ZM170.65,303c-18.73,0-32.39-4-40.62-11.78s-12.26-18.32-12.26-32c0-10.88,4-22.69,12-35.09,6.18-9.6,13.49-17.16,21.79-22.52l58.33,94A110.18,110.18,0,0,1,170.65,303Z"/><path class="cls-1" d="M454.58,16a6,6,0,0,0-6-6H12.24a6,6,0,0,0-6,6.06l.6,58.24a6,6,0,0,0,6,5.94H244.36l70.88,1v70.1C301,137.47,285.18,129.45,270,122.93c-24-10.25-52.35-15.45-84.4-15.45-41.11,0-74.68,11.37-99.76,33.79-23.23,20.53-35,46.16-35,76.18,0,37.08,13.2,70.5,39.25,99.35,27.73,30.4,64,46.24,110.93,48.42,1.25.06,2.55.08,3.86.08,34.4,0,82.18-20.94,110.39-37.2V429a6,6,0,0,0,6,6h62.17a6,6,0,0,0,6-6V80.28h59.35a6,6,0,0,0,6-6ZM383.41,74.28V429H321.24V317.44c-24.75,15.88-81.8,43.56-120,41.78-42.88-2-78.51-15.48-106.78-46.46Q56.81,271,56.81,217.45q0-42.52,33-71.68,36.1-32.28,95.79-32.29,47.1,0,82,15c20.65,8.86,38.53,19.21,53.63,38.64V75.36l-76.8-1.08H12.84L12.24,16H448.58l.18,58.24Z"/><path class="cls-1" d="M454.58,16a6,6,0,0,0-6-6H12.24a6,6,0,0,0-6,6.06l.6,58.24a6,6,0,0,0,6,5.94H244.36l70.88,1v70.1C301,137.47,285.18,129.45,270,122.93c-24-10.25-52.35-15.45-84.4-15.45-41.11,0-74.68,11.37-99.76,33.79-23.23,20.53-35,46.16-35,76.18,0,37.08,13.2,70.5,39.25,99.35,27.73,30.4,64,46.24,110.93,48.42,1.25.06,2.55.08,3.86.08,34.4,0,82.18-20.94,110.39-37.2V429a6,6,0,0,0,6,6h62.17a6,6,0,0,0,6-6V80.28h59.35a6,6,0,0,0,6-6ZM383.41,74.28V429H321.24V317.44c-24.75,15.88-81.8,43.56-120,41.78-42.88-2-78.51-15.48-106.78-46.46Q56.81,271,56.81,217.45q0-42.52,33-71.68,36.1-32.28,95.79-32.29,47.1,0,82,15c20.65,8.86,38.53,19.21,53.63,38.64V75.36l-76.8-1.08H12.84L12.24,16H448.58l.18,58.24Z"/><path class="cls-1" d="M454.58,16a6,6,0,0,0-6-6H12.24a6,6,0,0,0-6,6.06l.6,58.24a6,6,0,0,0,6,5.94H244.36l70.88,1v70.1C301,137.47,285.18,129.45,270,122.93c-24-10.25-52.35-15.45-84.4-15.45-41.11,0-74.68,11.37-99.76,33.79-23.23,20.53-35,46.16-35,76.18,0,37.08,13.2,70.5,39.25,99.35,27.73,30.4,64,46.24,110.93,48.42,1.25.06,2.55.08,3.86.08,34.4,0,82.18-20.94,110.39-37.2V429a6,6,0,0,0,6,6h62.17a6,6,0,0,0,6-6V80.28h59.35a6,6,0,0,0,6-6ZM383.41,74.28V429H321.24V317.44c-24.75,15.88-81.8,43.56-120,41.78-42.88-2-78.51-15.48-106.78-46.46Q56.81,271,56.81,217.45q0-42.52,33-71.68,36.1-32.28,95.79-32.29,47.1,0,82,15c20.65,8.86,38.53,19.21,53.63,38.64V75.36l-76.8-1.08H12.84L12.24,16H448.58l.18,58.24Z"/><path class="cls-2" d="M454.58,16a6,6,0,0,0-6-6H12.24a6,6,0,0,0-6,6.06l.6,58.24a6,6,0,0,0,6,5.94H244.36l70.88,1v70.1C301,137.47,285.18,129.45,270,122.93c-24-10.25-52.35-15.45-84.4-15.45-41.11,0-74.68,11.37-99.76,33.79-23.23,20.53-35,46.16-35,76.18,0,37.08,13.2,70.5,39.25,99.35,27.73,30.4,64,46.24,110.93,48.42,1.25.06,2.55.08,3.86.08,34.4,0,82.18-20.94,110.39-37.2V429a6,6,0,0,0,6,6h62.17a6,6,0,0,0,6-6V80.28h59.35a6,6,0,0,0,6-6ZM383.41,74.28V429H321.24V317.44c-24.75,15.88-81.8,43.56-120,41.78-42.88-2-78.51-15.48-106.78-46.46Q56.81,271,56.81,217.45q0-42.52,33-71.68,36.1-32.28,95.79-32.29,47.1,0,82,15c20.65,8.86,38.53,19.21,53.63,38.64V75.36l-76.8-1.08H12.84L12.24,16H448.58l.18,58.24Z"/><path class="cls-1" d="M281,182.23q-20.79-13.78-47.45-13.79a146.87,146.87,0,0,0-21.58,1.71A81.75,81.75,0,0,0,189.59,177l0,0-1.43.65,61.88,103.42h0l1.43-.79h0q22-12.31,34.37-27.57,15.9-18.9,15.91-37.82T281,182.23Zm.3,66.65-.08.09c-7,8.69-16.77,16.75-29,24l-55.37-92.55a74.32,74.32,0,0,1,16-4.34,139.8,139.8,0,0,1,20.69-1.65c16.48,0,31.33,4.3,44.14,12.79,12.18,8.08,18.11,17.14,18.11,27.69C295.77,226,290.89,237.44,281.27,248.88Z"/><path class="cls-1" d="M281,182.23q-20.79-13.78-47.45-13.79a146.87,146.87,0,0,0-21.58,1.71A81.75,81.75,0,0,0,189.59,177l0,0-1.43.65,61.88,103.42h0l1.43-.79h0q22-12.31,34.37-27.57,15.9-18.9,15.91-37.82T281,182.23Zm.3,66.65-.08.09c-7,8.69-16.77,16.75-29,24l-55.37-92.55a74.32,74.32,0,0,1,16-4.34,139.8,139.8,0,0,1,20.69-1.65c16.48,0,31.33,4.3,44.14,12.79,12.18,8.08,18.11,17.14,18.11,27.69C295.77,226,290.89,237.44,281.27,248.88Z"/><path class="cls-1" d="M281,182.23q-20.79-13.78-47.45-13.79a146.87,146.87,0,0,0-21.58,1.71A81.75,81.75,0,0,0,189.59,177l0,0-1.43.65,61.88,103.42h0l1.43-.79h0q22-12.31,34.37-27.57,15.9-18.9,15.91-37.82T281,182.23Zm.3,66.65-.08.09c-7,8.69-16.77,16.75-29,24l-55.37-92.55a74.32,74.32,0,0,1,16-4.34,139.8,139.8,0,0,1,20.69-1.65c16.48,0,31.33,4.3,44.14,12.79,12.18,8.08,18.11,17.14,18.11,27.69C295.77,226,290.89,237.44,281.27,248.88Z"/><path class="cls-2" d="M281,182.23q-20.79-13.78-47.45-13.79a146.87,146.87,0,0,0-21.58,1.71A81.75,81.75,0,0,0,189.59,177l0,0-1.43.65,61.88,103.42h0l1.43-.79h0q22-12.31,34.37-27.57,15.9-18.9,15.91-37.82T281,182.23Zm.3,66.65-.08.09c-7,8.69-16.77,16.75-29,24l-55.37-92.55a74.32,74.32,0,0,1,16-4.34,139.8,139.8,0,0,1,20.69-1.65c16.48,0,31.33,4.3,44.14,12.79,12.18,8.08,18.11,17.14,18.11,27.69C295.77,226,290.89,237.44,281.27,248.88Z"/></svg>