<svg id="Layer_1" data-name="Layer 1" xmlns="http://www.w3.org/2000/svg" viewBox="0 0 465 445"><defs><style>.cls-1{fill:#8d8e8d;}</style></defs><path class="cls-1" d="M448.76,74.28,448.58,16H12.24l.6,58.24h231.6l76.8,1.08v91.72c-15.1-19.43-33-29.78-53.63-38.64q-34.94-15-82-15-59.68,0-95.79,32.29-33,29.14-33,71.68,0,53.57,37.68,95.31c28.27,31,63.9,44.47,106.78,46.46,38.17,1.78,95.22-25.9,120-41.78V429h62.17V74.28ZM170.65,309Q140,309,125.9,295.54t-14.13-36.36q0-18.18,13-38.33,11.92-18.56,28.86-27.4l65.16,105h0C202.31,305.58,186.35,309,170.65,309Zm115.21-56.24Q273.52,268,251.49,280.31h0l-1.43.79h0L188.18,177.69h0l1.47-.66,0,0a81.75,81.75,0,0,1,22.35-6.86,146.87,146.87,0,0,1,21.58-1.71q26.67,0,47.45,13.79t20.8,32.69Q301.77,233.84,285.86,252.74Z"/><path class="cls-1" d="M448.76,74.28,448.58,16H12.24l.6,58.24h231.6l76.8,1.08v91.72c-15.1-19.43-33-29.78-53.63-38.64q-34.94-15-82-15-59.68,0-95.79,32.29-33,29.14-33,71.68,0,53.57,37.68,95.31c28.27,31,63.9,44.47,106.78,46.46,38.17,1.78,95.22-25.9,120-41.78V429h62.17V74.28ZM170.65,309Q140,309,125.9,295.54t-14.13-36.36q0-18.18,13-38.33,11.92-18.56,28.86-27.4l65.16,105h0C202.31,305.58,186.35,309,170.65,309Zm115.21-56.24Q273.52,268,251.49,280.31h0l-1.43.79h0L188.18,177.69h0l1.47-.66,0,0a81.75,81.75,0,0,1,22.35-6.86,146.87,146.87,0,0,1,21.58-1.71q26.67,0,47.45,13.79t20.8,32.69Q301.77,233.84,285.86,252.74Z"/><path class="cls-1" d="M448.76,74.28,448.58,16H12.24l.6,58.24h231.6l76.8,1.08v91.72c-15.1-19.43-33-29.78-53.63-38.64q-34.94-15-82-15-59.68,0-95.79,32.29-33,29.14-33,71.68,0,53.57,37.68,95.31c28.27,31,63.9,44.47,106.78,46.46,38.17,1.78,95.22-25.9,120-41.78V429h62.17V74.28ZM170.65,309Q140,309,125.9,295.54t-14.13-36.36q0-18.18,13-38.33,11.92-18.56,28.86-27.4l65.16,105h0C202.31,305.58,186.35,309,170.65,309Zm115.21-56.24Q273.52,268,251.49,280.31h0l-1.43.79h0L188.18,177.69h0l1.47-.66,0,0a81.75,81.75,0,0,1,22.35-6.86,146.87,146.87,0,0,1,21.58-1.71q26.67,0,47.45,13.79t20.8,32.69Q301.77,233.84,285.86,252.74Z"/><path class="cls-1" d="M448.76,74.28,448.58,16H12.24l.6,58.24h231.6l76.8,1.08v91.72c-15.1-19.43-33-29.78-53.63-38.64q-34.94-15-82-15-59.68,0-95.79,32.29-33,29.14-33,71.68,0,53.57,37.68,95.31c28.27,31,63.9,44.47,106.78,46.46,38.17,1.78,95.22-25.9,120-41.78V429h62.17V74.28ZM170.65,309Q140,309,125.9,295.54t-14.13-36.36q0-18.18,13-38.33,11.92-18.56,28.86-27.4l65.16,105h0C202.31,305.58,186.35,309,170.65,309Zm115.21-56.24Q273.52,268,251.49,280.31h0l-1.43.79h0L188.18,177.69h0l1.47-.66,0,0a81.75,81.75,0,0,1,22.35-6.86,146.87,146.87,0,0,1,21.58-1.71q26.67,0,47.45,13.79t20.8,32.69Q301.77,233.84,285.86,252.74Z"/></svg>