<?xml version="1.0" encoding="utf-8"?>
<!-- Generator: Adobe Illustrator 25.2.0, SVG Export Plug-In . SVG Version: 6.00 Build 0)  -->
<svg version="1.1" id="Layer_1" xmlns="http://www.w3.org/2000/svg" xmlns:xlink="http://www.w3.org/1999/xlink" x="0px" y="0px"
	 viewBox="0 0 828.7 332.6" style="enable-background:new 0 0 828.7 332.6;" xml:space="preserve">
<style type="text/css">
	.st0{opacity:0.3;enable-background:new    ;}
	.st1{fill:#DD4B4B;}
	.st2{fill:#BF3737;}
	.st3{fill:#F25A5A;}
	.st4{fill:#D64343;}
	.st5{opacity:0.27;fill:#B7CFD9;enable-background:new    ;}
	.st6{fill:#91644A;}
	.st7{fill:#EF5454;}
</style>
<g>
	<g id="Layer_1_1_">
		<ellipse class="st0" cx="411.2" cy="301.1" rx="393.3" ry="22.7"/>
		<path class="st1" d="M740.2,40.4l-0.1,1.4l-8.3,165.6c-0.5,7.7-6.8,13.6-14.5,13.7H161.8c-7.7-0.1-14-6.1-14.5-13.7L139,41.8
			l-0.1-1.4c-0.4-7.2,5.1-13.3,12.3-13.7c0.3,0,0.6,0,0.9,0H727c7.2-0.1,13.1,5.6,13.2,12.8C740.2,39.8,740.2,40.1,740.2,40.4z"/>
		<rect x="108.1" y="160.8" class="st2" width="663.1" height="73.1"/>
		<path class="st3" d="M800.8,110.9c-1.2,23.5-5.4,70.4-6.7,86.7s-6.7,56-62.4,56H147.4c-55.7,0-61.2-39.7-62.4-56
			s-5.4-63.2-6.7-86.7s12.1-21.1,24.8-20.5c3.5,0.2,6.9,0.8,10.3,1.6c9.7,2.4,19.2,5.3,28.5,8.7l2.4,48.8
			c-12.4,6.2-21.3,20.5-23.6,24.5l0,0c-0.4,0.7-0.6,1.1-0.6,1.1c0,34.5,4.3,41.4,27.2,41.3c14.8,0,292.1-0.3,292.1-0.3
			s277.3,0.2,292.1,0.3c23,0.1,27.2-6.8,27.2-41.3c0,0-9.7-18.3-24.2-25.6l2.4-48.8c0,0,26-9.7,38.8-10.3S802,87.4,800.8,110.9z"/>
		<path class="st4" d="M734.7,149.5c12.4,6.2,21.3,20.5,23.6,24.5l0,0l7.3-82c-9.6,2.3-19.1,5.2-28.5,8.7L734.7,149.5z"/>
		<path class="st4" d="M758.9,171.9v17.3c0,20.8-7.4,27-28.9,27H456.8c-9.2,0-14.5-1.9-14.5-11.4v-44c0-11.7,15.6-20.9,39.5-20.9
			h220.6c15.7,0,47.8,11.2,55.1,26C758.4,167.8,758.9,169.9,758.9,171.9z"/>
		<path class="st3" d="M758.9,169.2v17.3c0,15.4-12.9,28.4-31.6,28.4H456.8c-9.2,0-14.5-3.3-14.5-12.7v-44
			c0-11.7,15.6-20.9,39.5-20.9h220.6c15.7,0,47.8,11.2,55.1,26C758.4,165.1,758.9,167.1,758.9,169.2z"/>
		<path class="st5" d="M757.5,163.2H442.3v-5.1c0-11.7,15.6-20.9,39.5-20.9h220.6C718,137.2,750.2,148.4,757.5,163.2z"/>
		<path class="st3" d="M119.8,168.2v17.3c0,15.4,13.3,28.4,32.6,28.4h279c9.5,0,14.9-3.3,14.9-12.7v-44c0-11.7-16.1-20.9-40.7-20.9
			H178.1c-16.2,0-49.4,11.2-56.8,26C120.3,164.1,119.8,166.1,119.8,168.2z"/>
		<path class="st5" d="M121.3,162.2h325v-5.1c0-11.7-16.1-20.9-40.7-20.9H178.1C162,136.2,128.8,147.4,121.3,162.2z"/>
		<polygon class="st6" points="734.7,305.7 725.9,305.7 701.5,268.8 691.4,253.6 725.9,253.6 728.5,268.8 		"/>
		<polygon class="st6" points="187.7,253.6 177.6,268.8 153.2,305.7 144.4,305.7 150.6,268.8 153.2,253.6 		"/>
		<path class="st7" d="M740.2,40.4l-0.1,1.4H139l-0.1-1.4c-0.4-7.2,5.1-13.3,12.3-13.7c0.3,0,0.6,0,0.9,0H727
			c7.2-0.1,13.1,5.6,13.2,12.8C740.2,39.8,740.2,40.1,740.2,40.4z"/>
	</g>
</g>
</svg>
