<svg id="Layer_1" data-name="Layer 1" xmlns="http://www.w3.org/2000/svg" viewBox="0 0 306.35 564.48"><defs><style>.cls-1{fill:#070707;opacity:0.3;}.cls-2{fill:#8c6239;}.cls-3{fill:#7c5032;}.cls-4{fill:#a67c52;}.cls-5{fill:#534741;}.cls-6{fill:#937051;}.cls-7{fill:#e6e6e6;}</style></defs><polygon class="cls-1" points="36.48 532.01 28.34 538.28 286.77 538.28 277.13 531.45 36.48 532.01"/><rect class="cls-2" x="31.6" y="14.32" width="250.26" height="514.44"/><rect class="cls-3" x="49.16" y="37.69" width="97.17" height="110.09"/><rect class="cls-3" x="49.16" y="167.69" width="97.17" height="102.8"/><rect class="cls-3" x="164.96" y="37.69" width="98.47" height="110.09"/><rect class="cls-3" x="164.96" y="167.69" width="98.47" height="102.8"/><rect class="cls-3" x="164.96" y="290.4" width="98.47" height="226.42"/><rect class="cls-3" x="49.16" y="290.4" width="97.17" height="226.42"/><rect class="cls-4" x="49.16" y="33.37" width="97.17" height="110.09"/><rect class="cls-4" x="49.16" y="163.37" width="97.17" height="102.8"/><rect class="cls-4" x="164.96" y="33.37" width="98.47" height="110.09"/><rect class="cls-4" x="164.96" y="163.37" width="98.47" height="102.8"/><rect class="cls-4" x="164.96" y="286.08" width="98.47" height="226.42"/><rect class="cls-4" x="49.16" y="286.08" width="97.17" height="226.42"/><rect class="cls-5" x="54.25" y="519.37" width="9.82" height="28.01" transform="translate(592.53 474.21) rotate(90)"/><rect class="cls-5" x="248.73" y="519.37" width="9.82" height="28.01" transform="translate(787.01 279.73) rotate(90)"/><path class="cls-6" d="M111.16,89.13c-.85,6.18-7.06,12.53-15.19,12.53s-14.35-6.35-15.2-12.53H77.18c.6,11.63,8.46,20.25,18.79,20.25s18.19-8.62,18.79-20.25Z"/><path class="cls-6" d="M230.37,89.13c-.85,6.18-7.06,12.53-15.19,12.53S200.83,95.31,200,89.13h-3.59c.6,11.63,8.46,20.25,18.79,20.25s18.19-8.62,18.79-20.25Z"/><path class="cls-7" d="M111.16,88.42c-.85,4.28-7.06,8.69-15.19,8.69s-14.35-4.41-15.2-8.69H77.18c.6,8.06,8.46,14,18.79,14s18.19-6,18.79-14Z"/><path class="cls-7" d="M230.37,88.42c-.85,4.28-7.06,8.69-15.19,8.69S200.83,92.7,200,88.42h-3.59c.6,8.06,8.46,14,18.79,14s18.19-6,18.79-14Z"/><path class="cls-6" d="M111.16,210.08c-.85,6.18-7.06,12.53-15.19,12.53s-14.35-6.35-15.2-12.53H77.18c.6,11.63,8.46,20.24,18.79,20.24s18.19-8.61,18.79-20.24Z"/><path class="cls-6" d="M230.37,210.08c-.85,6.18-7.06,12.53-15.19,12.53s-14.35-6.35-15.2-12.53h-3.59c.6,11.63,8.46,20.24,18.79,20.24s18.19-8.61,18.79-20.24Z"/><path class="cls-7" d="M111.16,209.36c-.85,4.29-7.06,8.69-15.19,8.69s-14.35-4.4-15.2-8.69H77.18c.6,8.07,8.46,14,18.79,14s18.19-6,18.79-14Z"/><path class="cls-7" d="M230.37,209.36c-.85,4.29-7.06,8.69-15.19,8.69s-14.35-4.4-15.2-8.69h-3.59c.6,8.07,8.46,14,18.79,14s18.19-6,18.79-14Z"/><path class="cls-6" d="M111.16,335.34c-.85,6.18-7.06,12.54-15.19,12.54s-14.35-6.36-15.2-12.54H77.18c.6,11.64,8.46,20.25,18.79,20.25s18.19-8.61,18.79-20.25Z"/><path class="cls-6" d="M230.37,335.34c-.85,6.18-7.06,12.54-15.19,12.54s-14.35-6.36-15.2-12.54h-3.59c.6,11.64,8.46,20.25,18.79,20.25S233.37,347,234,335.34Z"/><path class="cls-7" d="M111.16,334.63c-.85,4.29-7.06,8.69-15.19,8.69s-14.35-4.4-15.2-8.69H77.18c.6,8.07,8.46,14,18.79,14s18.19-6,18.79-14Z"/><path class="cls-7" d="M230.37,334.63c-.85,4.29-7.06,8.69-15.19,8.69s-14.35-4.4-15.2-8.69h-3.59c.6,8.07,8.46,14,18.79,14s18.19-6,18.79-14Z"/></svg>