<svg id="Layer_1" data-name="Layer 1" xmlns="http://www.w3.org/2000/svg" viewBox="0 0 535 470"><defs><style>.cls-1{fill:#8d8e8d;}</style></defs><path class="cls-1" d="M27.45,23.16V82.48H195.24c.09.84,12.08,119.11,8.76,142.38,0,0-.07.29-.17.92a34.28,34.28,0,0,0-13.38-1.56s-61.29-4-83,63.24c-20,73.72,45.34,108,66.68,111.87,19,3.42,88,6.23,99.46-85.65,12.68-101.28,2.3-221.31,1-231.2h73.7v363.7l59.26.66V82.48h99.93V23.16Zm172,316.58c-36.06,10.18-43.15-28.59-24.6-37.94,16.85-8.49,39.39-.66,39,19.76C211.52,330.59,207.15,337.55,199.41,339.74Z"/></svg>