<svg id="Layer_1" data-name="Layer 1" xmlns="http://www.w3.org/2000/svg" viewBox="0 0 535 470"><defs><style>.cls-1{fill:#ff0;}</style></defs><path class="cls-1" d="M507.55,17.17H27.45a6,6,0,0,0-6,6V82.48a6,6,0,0,0,6,6H189.81c3.84,38.8,9.59,105.87,8.68,130a41,41,0,0,0-5.4-.36c-1.26,0-2.22.06-2.8.11-.39,0-1,0-1.77,0-10.85,0-66,3.25-86.75,67.44,0,.09,0,.18-.08.27-7.56,27.85-4.4,53,9.39,74.86,17.28,27.37,47.21,41.81,62,44.48a91.75,91.75,0,0,0,16,1.34c23.74,0,80.09-9,90.5-92.15,11.22-89.59,4.49-195.94,1.74-225.94h61.05v357.7a6,6,0,0,0,5.94,6l59.32.65a6,6,0,0,0,6-6V88.48h93.93a6,6,0,0,0,6-6V23.17A6,6,0,0,0,507.55,17.17Zm0,65.31H407.62V446.84l-59.26-.66V82.48h-73.7c1.26,9.89,11.64,129.92-1,231.2-11.51,91.88-80.51,89.07-99.46,85.65-21.34-3.86-86.69-38.15-66.68-111.87,21.68-67.2,83-63.24,83-63.24a34.28,34.28,0,0,1,13.38,1.56c.1-.63.17-.92.17-.92,3.32-23.27-8.67-141.54-8.76-142.38H27.45V23.16h480.1Z"/><path class="cls-1" d="M174.81,301.8c-18.55,9.35-11.46,48.12,24.6,37.94,7.74-2.19,12.11-9.15,14.38-18.18C214.2,301.14,191.66,293.31,174.81,301.8Zm33,19c-3,11.2-8.26,12.69-10,13.18a35.82,35.82,0,0,1-9.62,1.47c-12.91,0-16.12-9.3-16.8-12.14-1.37-5.79.3-13.18,6.15-16.13a25.82,25.82,0,0,1,11.54-2.74c5.8,0,11.08,2,14.49,5.46A15.2,15.2,0,0,1,207.79,320.78Z"/></svg>