<svg id="Layer_1" data-name="Layer 1" xmlns="http://www.w3.org/2000/svg" viewBox="0 0 380 425"><defs><style>.cls-1{fill:#8d8e8d;}</style></defs><path class="cls-1" d="M167.34,184.7H298.5s.18-6,.18-18.15V77.33h66.41V18.06H14.91V77.33h223v47.3H143.31q-47.29,0-78.08,26.28T34.45,218.48q0,67.57,56.31,126.14,60.06,62.33,140.4,62.32,47.29,0,78.83-29.28,26.28-24.78,26.28-54.06,0-15-10.51-42.8T308.49,244q-24.76-34.53-76.58-34.54-36.79,0-58.56,21.91T151.57,282a212.66,212.66,0,0,0,1.88,28.31q1.86,14,6.38,33.6-37.54-12.08-52.93-30.18T91.51,265.41a85.75,85.75,0,0,1,20.27-56.2Q132.06,184.7,167.34,184.7Zm25.53,153.83q0-28.78,18.39-50.4t43.17-21.59q21,0,30.41,5.25t9.39,14.27q0,21-28,41.29a104.45,104.45,0,0,1-62.78,20.27H192.87Z"/></svg>