<svg id="Layer_1" data-name="Layer 1" xmlns="http://www.w3.org/2000/svg" viewBox="0 0 380 425"><defs><style>.cls-1{fill:#ff0;}</style></defs><path class="cls-1" d="M266.24,327.35q28-20.28,28-41.29,0-9-9.39-14.27t-30.41-5.25q-24.77,0-43.17,21.59t-18.39,50.4v9.09h10.59A104.45,104.45,0,0,0,266.24,327.35Zm-67.37,11.18c0-17.89,5.55-33.11,17-46.51,11.17-13.11,23.79-19.48,38.6-19.48,16.07,0,23.81,2.44,27.48,4.48,5.6,3.15,6.32,6.48,6.32,9,0,11.91-8.59,24.17-25.51,36.43a99,99,0,0,1-59.26,19.13h-4.59Z"/><path class="cls-1" d="M365.09,12.06H14.91a6,6,0,0,0-6,6V77.33a6,6,0,0,0,6,6h217v35.3H143.31c-32.85,0-60.43,9.32-82,27.71C39.51,165,28.45,189.25,28.45,218.48c0,46.44,19.5,90.28,58,130.3,41,42.57,89.71,64.16,144.72,64.16,33,0,60.85-10.4,83-30.92,18.69-17.63,28.16-37.28,28.16-58.42,0-10.83-3.56-25.53-10.9-44.93-7.28-19.2-13.18-31.7-18-38.21-17.64-24.54-45-37-81.42-37-26.07,0-47.2,8-62.81,23.67S145.57,261.27,145.57,282a219.08,219.08,0,0,0,1.93,29.11c.91,6.8,2.31,14.71,4.17,23.61-18.61-7-32.11-15.35-40.2-24.88-9.27-10.88-14-25.82-14-44.39,0-19.85,6.18-37,18.89-52.37,12.44-15,29.1-22.34,50.94-22.34H298.5a6,6,0,0,0,6-5.82c0-.25.19-6.27.19-18.33V83.33h60.41a6,6,0,0,0,6-6V18.06A6,6,0,0,0,365.09,12.06Zm0,65.27H298.68v89.22c0,12.1-.18,18.15-.18,18.15H167.34q-35.29,0-55.56,24.51a85.75,85.75,0,0,0-20.27,56.2q0,30.19,15.39,48.28t52.93,30.18q-4.5-19.62-6.38-33.6A212.66,212.66,0,0,1,151.57,282q0-28.68,21.78-50.58t58.56-21.91q51.81,0,76.58,34.54,6.76,9,17.27,36.79t10.51,42.8q0,29.28-26.28,54.06-31.53,29.28-78.83,29.28-80.35,0-140.4-62.32Q34.45,286.06,34.45,218.48q0-41.28,30.78-67.57t78.08-26.28h94.61V77.33h-223V18.06H365.09Z"/></svg>