<svg xmlns="http://www.w3.org/2000/svg" viewBox="0 0 95.73 67.82"><defs><style>.cls-1{isolation:isolate;}.cls-11,.cls-2,.cls-8{fill:#749321;}.cls-3{fill:#231f20;}.cls-4{fill:#8e3411;}.cls-5{fill:#50660c;}.cls-6{fill:#667f19;stroke:#3b490f;}.cls-10,.cls-11,.cls-6,.cls-7,.cls-8{stroke-miterlimit:10;}.cls-10,.cls-11,.cls-6{stroke-width:0.25px;}.cls-14,.cls-16,.cls-7{fill:#fff;}.cls-7{stroke:#8e8e8e;}.cls-7,.cls-8{stroke-width:0.5px;}.cls-10,.cls-8{stroke:#1d1d1b;}.cls-10,.cls-9{fill:#abadaf;}.cls-10,.cls-15,.cls-9{opacity:0.4;}.cls-10,.cls-12,.cls-9{mix-blend-mode:multiply;}.cls-11{stroke:#2e3a0a;}.cls-12{fill:#da713b;opacity:0.6;}.cls-13{fill:#fffac4;}.cls-13,.cls-14{opacity:0.5;}.cls-14{mix-blend-mode:screen;}.cls-15{fill:#000068;}.cls-17{fill:#a2c630;}.cls-18{fill:#191919;}</style></defs><g class="cls-1"><g id="Layer_1" data-name="Layer 1"><path class="cls-2" d="M33,12.79A29.76,29.76,0,0,0,29.8,9.42c-2.93-2.91-.33-4.69,1.52-3.9s2.13-.06,3.75-1.34,5.1-3.93,7.4.62c1.15,2,2.75,2.07,5,1.38A4.2,4.2,0,0,1,53,9.56c.53,1.91,1.62,2.49,3.85,3.19s4.25,1.61,2.76,2.69C59.39,15.6,46.22,9.15,33,12.79Z"/><path class="cls-3" d="M33.11,12.76a5.78,5.78,0,0,0-.82-1c-.51-.55-1-1.08-1.56-1.62a6.83,6.83,0,0,1-2-2.68,1.6,1.6,0,0,1,.51-1.71c.84-.71,1.79-.24,2.69,0,1.32.38,2.17-.65,3.09-1.42a9.51,9.51,0,0,1,3.19-1.93c1.92-.59,3.31.77,4.15,2.37a3.22,3.22,0,0,0,3,1.83c1.71-.05,3.21-1,4.93-.37A3.86,3.86,0,0,1,52.11,7.8a12.52,12.52,0,0,1,1,2.5,4.72,4.72,0,0,0,3.2,2.35,15.13,15.13,0,0,1,3,1.23c.35.22.72.56.59,1,0,.19-.23.51-.4.45-.63-.21-1.24-.47-1.86-.69a44.88,44.88,0,0,0-19.94-2.84,30.61,30.61,0,0,0-4.84.92c-.19,0,.07.12.16.1,7.67-2.07,15.83-1,23.3,1.52.85.29,1.68.61,2.52.92.19.07.67.34.87.18,1.46-1.15-.76-2-1.7-2.39-1.61-.61-3.54-.88-4.49-2.51-.41-.7-.5-1.55-.85-2.29a4.21,4.21,0,0,0-1.47-1.69A4.47,4.47,0,0,0,47.77,6a12.06,12.06,0,0,1-2.6.49,2.88,2.88,0,0,1-2.32-1.38A12.25,12.25,0,0,0,41.34,3a3.36,3.36,0,0,0-1.47-.77c-2.26-.55-4.47,1.48-6,2.83a1.89,1.89,0,0,1-1.58.66,9.07,9.07,0,0,1-1.15-.37,2.92,2.92,0,0,0-1.41,0,1.75,1.75,0,0,0-1.26,2.33,5.71,5.71,0,0,0,1.61,2.16c.63.63,1.24,1.25,1.84,1.9a5.48,5.48,0,0,1,.92,1.06C32.86,12.88,33.16,12.84,33.11,12.76Z"/><path class="cls-4" d="M33.27,8.65s.15.14.36.38a9.13,9.13,0,0,1,.69.87,10.22,10.22,0,0,1,.58,1c.14.28.22.48.22.48a4.2,4.2,0,0,1-.36-.37,8.17,8.17,0,0,1-.69-.89,9,9,0,0,1-.58-.95A3.77,3.77,0,0,1,33.27,8.65Z"/><path class="cls-3" d="M53.38,14.69a24.17,24.17,0,0,1,3.73-4.09c3-2.8,6.1-5.54,8.46.86s2.88,8.85,4.28,12.47a44,44,0,0,0,4.07,8.39l-4.59,6.37Z"/><path class="cls-5" d="M53.05,15a24.69,24.69,0,0,1,3.73-4.09c3-2.8,6.1-5.54,8.46.86s2.88,8.85,4.27,12.47a44.27,44.27,0,0,0,4.08,8.4L69,39Z"/><path class="cls-2" d="M66.43,22.09a18.17,18.17,0,0,1,2.88,1.73c-.19-.52-.37-1-.54-1.52a10.37,10.37,0,0,0-3.88-1.52c-2.23-.22-6.67-.48-6.67-.48S64.44,21.16,66.43,22.09Zm4.26,5.15c-.25-.57-.5-1.17-.76-1.82a13.27,13.27,0,0,0-4.29-2.1c-2.18-.38-5-.79-5-.79S66.17,24,68,25.34Zm-9.4-16.87c1-.35,2-.65,2.73-.87a3.73,3.73,0,0,0-1.3-1.19,11.53,11.53,0,0,0-3.47,2.61c-1.85,2.09-4.91,5.39-4.91,5.39S59.4,11.05,61.29,10.37Zm4.29,2.46c-.11-.28-.21-.57-.32-.86s-.19-.47-.28-.69a5.75,5.75,0,0,0-3.85.88,68,68,0,0,1-6.79,4.15s6.48-3,8.84-3.38A10.89,10.89,0,0,1,65.58,12.83ZM71.46,28.9A19,19,0,0,0,68,26.64a24.45,24.45,0,0,0-4.5-1.24,23.27,23.27,0,0,1,4.75,2c1,.68,2.74,1.94,3.87,2.74Q71.79,29.59,71.46,28.9ZM67.07,17.1l-.61-1.79A5.65,5.65,0,0,0,62.69,15a65.74,65.74,0,0,1-7.61,1.92s6.54-1.22,8.29-.72C64.62,16.51,66.24,16.9,67.07,17.1Zm-2.22,2.27c1.4.63,2.7,1.32,3.53,1.77l-.46-1.41a16.72,16.72,0,0,0-5.41-1.58,50.89,50.89,0,0,0-6.17,0S62.52,18.32,64.85,19.37Z"/><path class="cls-3" d="M26.76,43.64S17,55,20.58,59.07s8.7.17,10.37-2.55a7.12,7.12,0,0,0,.46-7.12Z"/><path class="cls-6" d="M26.85,43.06s-9.8,11.37-6.18,15.43,8.7.17,10.37-2.55a7.12,7.12,0,0,0,.46-7.12Z"/><path class="cls-5" d="M23.09,51.27c1.1-2.82,3.56-7.55,3.85-8.1h0a64.3,64.3,0,0,0-5.59,10.18,23.51,23.51,0,0,0-1.28,4.2,3.13,3.13,0,0,0,.52.83,6.93,6.93,0,0,0,.8.75A20,20,0,0,1,23.09,51.27Zm7.38,5.25a3.72,3.72,0,0,1-1.35-2.07C28.73,53,28.35,46,28.35,46s-.74,8-.45,9.08c.24.86.56,2.65.68,3.34A10.55,10.55,0,0,0,30.47,56.52Zm-3-12.34a75.19,75.19,0,0,0-3.54,10.14c-.53,2.57-1.12,4.57-1.39,5.45a4.51,4.51,0,0,0,2.13.34,17.49,17.49,0,0,1,.11-5.79C25.35,51.07,27.42,44.18,27.42,44.18Zm.48.74s-1.54,5.6-2.21,9.54a16,16,0,0,0-.15,5.5,7.62,7.62,0,0,0,2.23-1,8.94,8.94,0,0,1-1-2.92C26.41,52.64,27.9,44.92,27.9,44.92Zm3.32,10.44A7.89,7.89,0,0,0,32,53.09,6.41,6.41,0,0,1,31,51.64a25.24,25.24,0,0,1-1.63-4.47,35.91,35.91,0,0,0,.34,4.8A9.12,9.12,0,0,0,31.22,55.36Z"/><path class="cls-2" d="M53.15,51.44s5.58,4.91,8.13,6.74,8.07,4.73,9.25.66S69.73,50,71.1,48A4.23,4.23,0,0,0,72,44.52Z"/><path class="cls-5" d="M61,52.4a21.68,21.68,0,0,1-1.41,4.51c.58.46,1.11.87,1.56,1.2,0-.23-.1-.48-.14-.75A22,22,0,0,1,61,52.4Zm-3.32,2.94.47.4a29.06,29.06,0,0,1,.62-3.2C58.42,53.48,58,54.46,57.71,55.34Zm12.82,3.5a11.23,11.23,0,0,0,.4-3.1A2.75,2.75,0,0,1,69,54.61c-1.08-1.35-2.79-3.83-2.79-3.83s2.24,3.59,2.67,4.6a43.52,43.52,0,0,1,1.17,4.45A3.24,3.24,0,0,0,70.53,58.84ZM63.05,52a25.7,25.7,0,0,1-.4,7.12,17.75,17.75,0,0,0,2.22,1.13c-.34-1.35-1-3.88-1.2-4.89C63.35,53.83,63.05,52,63.05,52Zm1.71-.6s1.16,4.13,1.56,6a13.57,13.57,0,0,1,.13,3.32,3.91,3.91,0,0,0,2.85-.18c-.44-.86-1.87-3.63-2.66-5.25C65.75,53.47,64.76,51.36,64.76,51.36Z"/><path class="cls-3" d="M70.53,58.84c1.19-4.08-.8-8.83.57-10.83A4.23,4.23,0,0,0,72,44.52c-2.5,1.32-4.33,3.43-3.82,4.94.91,2.68,2.59,5.17,2.35,7.24-.57,5-7.6,2.69-9.57,1-2.19-1.9-6.07-7.31-6.07-7.31s-4,2.86-1.94,3.69a44.62,44.62,0,0,1,8.3,4.27C63.78,60.18,69.35,62.91,70.53,58.84Z"/><path class="cls-5" d="M67.06,47.79s.44,3.53,2.15,5.43a8.11,8.11,0,0,1-2.9-5.46Z"/><path class="cls-5" d="M64.9,48.85a90.76,90.76,0,0,0,3.95,8.64s-3.75-4.78-4.31-8.63Z"/><path class="cls-5" d="M63.75,48.23a88.61,88.61,0,0,0,2,9.29S63.1,52,63.4,48.16Z"/><path class="cls-5" d="M62.77,48a88.66,88.66,0,0,0-.68,9.47s-1-6,.36-9.64Z"/><path class="cls-5" d="M61.79,46.47a89.89,89.89,0,0,0-2.29,9.22s0-6.08,2-9.43Z"/><path class="cls-5" d="M59.87,44.6a89.89,89.89,0,0,0-2.29,9.22s0-6.09,2-9.44Z"/><path class="cls-7" d="M79.81,40.74c1.37-3.41.89-7.34.51-9.4-3.81,3.83-4.54,2.9-6.45.41a32.88,32.88,0,0,1-.31,4.14c-.47,3.84.36,5.78.13,8.8a15.67,15.67,0,0,0,2.46-2.52,9.91,9.91,0,0,0,2.91,7A15.85,15.85,0,0,1,79.81,40.74Z"/><path class="cls-7" d="M66.81,28.91a19.71,19.71,0,0,0,1.64-4.42c-.67-.89-1.35-1.79-2-2.67a31.89,31.89,0,0,0-8.49-8.06,26.76,26.76,0,0,1-2.86,7.4c-2.23,3.46-2.87,5.14-2.17,10.92s-2,12.33-2.22,13.43a22.22,22.22,0,0,0,.42,8.16,41,41,0,0,0,16.59-4.78c-.52-2.56.53-5.39-.58-8.34C65.79,37.06,65.1,32.23,66.81,28.91Z"/><path class="cls-7" d="M45.85,34.62a62.83,62.83,0,0,1-.07-10.33c.39-4.65-3.94-9.35-6.28-12.66a10.77,10.77,0,0,0-3.77-3.31,38.73,38.73,0,0,0-8.24,1.41,8,8,0,0,1,4.76,2.94c3.22,3.82,4,7.18,3.33,10.68s.53,5.77.69,7.78-2.15,4.68-6.78,7.59-5.21,3.9-5.39,5c-.12.74-2.59,1.87-4.26,3.17a87.18,87.18,0,0,0,15.49,5.66c1.15.3,2.27.55,3.37.75,1.79-2.72,2.59-7.23,3-10.28C42.14,39.6,46,37.75,45.85,34.62Z"/><path class="cls-8" d="M50.67,45.51c.26-1.1,2.91-7.65,2.22-13.43s-.06-7.46,2.17-10.92a26.76,26.76,0,0,0,2.86-7.4l-.3-.19a39.93,39.93,0,0,0-11-4.21,38.28,38.28,0,0,0-10.87-1,10.77,10.77,0,0,1,3.77,3.31c2.34,3.31,6.67,8,6.28,12.66a62.83,62.83,0,0,0,.07,10.33c.16,3.13-3.71,5-4.16,8.41-.4,3-1.2,7.56-3,10.28A45.6,45.6,0,0,0,51.09,54,23.94,23.94,0,0,1,50.67,45.51Z"/><path class="cls-8" d="M24.1,43.73c.18-1.11.76-2.1,5.39-5s7-5.58,6.78-7.59-1.32-4.27-.69-7.78-.11-6.86-3.33-10.68a8,8,0,0,0-4.66-3A44.12,44.12,0,0,0,6,23.6s-2.42-.58-2.66.91c-.09.58.43,1,.6,2-1.65,1.6.26,3,1,4.42,1.49,7.35,7.21,12.4,14.85,16.11C21.45,45.77,24,44.47,24.1,43.73Z"/><path class="cls-8" d="M88.82,45.92c-1-5.63-1.88-5.79,1.75-13,2.58-5.07-.55-8.91-2-10.36-.65.45-2,1.84-5.65,5.91-1,1.14-1.88,2.08-2.62,2.82.38,2.06.86,6-.51,9.4a15.85,15.85,0,0,0-.75,8.47,23.09,23.09,0,0,0,6.73,4.87C88,52.93,89.58,50.36,88.82,45.92Z"/><path class="cls-3" d="M91.9,34.29a10.58,10.58,0,0,0-2.73-11.84c-.13,0-.27-.05-.58.16,1.43,1.45,4.56,5.29,2,10.36-3.63,7.16-2.72,7.32-1.75,13,.76,4.44-.79,7-3,8.16a7,7,0,0,0,1.71.66c.59-.12,4.15-2.26,3.37-8.13C89.16,38.84,90.14,38.14,91.9,34.29Z"/><path class="cls-8" d="M73.56,35.89a39,39,0,0,0,.31-4.25l-.27-.34c-1.74-2.25-3.43-4.54-5.15-6.81a19.71,19.71,0,0,1-1.64,4.42c-1.71,3.32-1,8.15.29,11.64,1.11,3,.06,5.78.58,8.34a37.1,37.1,0,0,0,6-4.2C73.92,41.67,73.09,39.73,73.56,35.89Z"/><path class="cls-9" d="M80.34,39c-3.34,4.49-1.09-2.76-3.71.82a13.42,13.42,0,0,1-2.93,2.74,14.91,14.91,0,0,1,0,2.11,15.67,15.67,0,0,0,2.46-2.52,9.91,9.91,0,0,0,2.91,7,15.85,15.85,0,0,1,.75-8.47A10.66,10.66,0,0,0,80.34,39Z"/><path class="cls-9" d="M50.47,48.91A20.09,20.09,0,0,0,51.09,54a40.86,40.86,0,0,0,16.59-5.1,12.28,12.28,0,0,1-.12-3A42.41,42.41,0,0,1,50.47,48.91Z"/><path class="cls-9" d="M33.27,36.81c3.93-4,3.08-5.87,2.95-7a2.63,2.63,0,0,1,0,.93c0,.15,0,.29,0,.43.17,2-2.15,4.68-6.78,7.59s-5.21,3.9-5.39,5c-.12.74-2.65,2-4.32,3.33a87.71,87.71,0,0,0,15.55,5.5c1.15.3,2.27.55,3.37.75a18.07,18.07,0,0,0,2.17-5.68C31.76,45.21,30,40.06,33.27,36.81Z"/><path class="cls-10" d="M10.25,40.67c-.36-.36,3.62,5,15.28,5.44s10.48,5,20.7,5.19,27.36-6,29.81-8.5C72.61,46.21,59.53,56.23,42,53.61,24.67,51,14,44.34,10.25,40.67Z"/><path class="cls-3" d="M31.66,48.12s-2.87,15.46,2.55,17.23,8-4.44,8-7.78a7.45,7.45,0,0,0-3.34-6.69Z"/><path class="cls-11" d="M31.43,47.55S28.56,63,34,64.78,42,60.34,42,57a7.44,7.44,0,0,0-3.34-6.68Z"/><path class="cls-5" d="M32.36,57c-.49-3.13-.76-8.71-.79-9.36h0a66.77,66.77,0,0,0,.31,12.18,24.77,24.77,0,0,0,1.06,4.48,2.94,2.94,0,0,0,.91.48A7.11,7.11,0,0,0,35,65,21.06,21.06,0,0,1,32.36,57Zm9.46.86a3.87,3.87,0,0,1-2.32-1.16c-1.13-1.12-5.16-7.26-5.16-7.26s3.55,7.64,4.39,8.46c.67.66,1.9,2.11,2.38,2.67A11.22,11.22,0,0,0,41.82,57.82Zm-9.28-9.56s.94,7.48,2.15,11c.88,2.62,1.4,4.73,1.62,5.68a4.73,4.73,0,0,0,2.1-.82,18.71,18.71,0,0,1-2.95-5.3C34.3,55.59,32.54,48.26,32.54,48.26Zm.83.41s1.56,5.89,3,9.81a17.27,17.27,0,0,0,2.77,5.06,8.19,8.19,0,0,0,1.5-2.07,9.45,9.45,0,0,1-2.43-2.11C36.1,56.45,33.37,48.67,33.37,48.67Zm8.51,7.71a8,8,0,0,0-.46-2.49,6.51,6.51,0,0,1-1.74-.75A27,27,0,0,1,35.85,50a37.09,37.09,0,0,0,2.84,4.16A9.55,9.55,0,0,0,41.88,56.38Z"/><path class="cls-3" d="M32.5,30.82S29.62,46.29,35,48.05s8-4.43,8.05-7.78a7.47,7.47,0,0,0-3.34-6.69Z"/><path class="cls-11" d="M32.27,30.25s-2.88,15.47,2.55,17.23,8-4.44,8-7.78A7.43,7.43,0,0,0,39.52,33Z"/><path class="cls-5" d="M33.2,39.66c-.49-3.13-.76-8.71-.79-9.36h0a68,68,0,0,0,.32,12.17A23.88,23.88,0,0,0,33.77,47a3.18,3.18,0,0,0,.91.48,6.14,6.14,0,0,0,1.12.25A21,21,0,0,1,33.2,39.66Zm9.46.86a3.84,3.84,0,0,1-2.32-1.15c-1.13-1.13-5.16-7.27-5.16-7.27s3.54,7.64,4.38,8.46c.67.66,1.91,2.11,2.38,2.68A11.46,11.46,0,0,0,42.66,40.52ZM33.37,31a79.94,79.94,0,0,0,2.15,11c.88,2.61,1.41,4.73,1.62,5.67a4.7,4.7,0,0,0,2.11-.82,18.7,18.7,0,0,1-3-5.29C35.14,38.3,33.37,31,33.37,31Zm.84.41s1.56,5.88,3,9.81A17,17,0,0,0,40,46.24a7.82,7.82,0,0,0,1.51-2.07,9.23,9.23,0,0,1-2.44-2.11C36.93,39.16,34.21,31.38,34.21,31.38Zm8.51,7.7a8.49,8.49,0,0,0-.46-2.48,6.92,6.92,0,0,1-1.74-.76,26.65,26.65,0,0,1-3.84-3.18,37.82,37.82,0,0,0,2.84,4.17A9.56,9.56,0,0,0,42.72,39.08Z"/><path class="cls-12" d="M47.78,48.77a39.77,39.77,0,0,1-6.91-1.14c-.48,2.08-.87,3,.55,6.26,4.5.86,5.91.42,9.67.1a20.09,20.09,0,0,1-.62-5.08C49.59,48.89,48.69,48.85,47.78,48.77Z"/><path class="cls-12" d="M67.56,45.91a12.28,12.28,0,0,0,.12,3,37.1,37.1,0,0,0,6-4.2,14.91,14.91,0,0,0,0-2.11A30.34,30.34,0,0,1,67.56,45.91Z"/><path class="cls-13" d="M8.93,21.8S16.83,12.92,28,9.51C26.29,9.63,14.25,16.69,8.93,21.8Z"/><path class="cls-14" d="M31.88,10.44S55.33,6.73,71.86,31C69.63,26.77,53.85,4.3,31.88,10.44Z"/><path class="cls-13" d="M87.93,24.25s-3.07,2.43-3,3.05S87.7,26,88.44,25.25,88.38,23.85,87.93,24.25Z"/><path class="cls-13" d="M89,28.36a16.19,16.19,0,0,0-1.72,1.42c-.74.72,1,.6,1.89-.45S89.65,27.89,89,28.36Z"/><path class="cls-13" d="M89,31l-1.48.35c-.74.17-.51.75.9.5S89.38,31,89,31Z"/><path class="cls-13" d="M87.47,49.12l-1-1.2c-.48-.6-.88-.12,0,1S87.7,49.48,87.47,49.12Z"/><path class="cls-13" d="M85.35,52.08l-1.25-.89c-.62-.45-.88.12.24,1S85.66,52.37,85.35,52.08Z"/><path class="cls-13" d="M86.13,44.8c.34.13,2,1.82,1.56,2.55S85,44.36,86.13,44.8Z"/><path class="cls-8" d="M81.59,47.66c-1.23-2.77,3.5-2.83,1.41-6s4-4.64,1.9-5.28-2.83-2.55-1.49-5.1a12.09,12.09,0,0,0,1.09-4.49c-.47.52-1,1.09-1.56,1.74-1,1.14-1.88,2.08-2.62,2.82.38,2.06.86,6-.51,9.4a15.85,15.85,0,0,0-.75,8.47,19.63,19.63,0,0,0,2.74,2.45C81.69,50.22,82.33,49.3,81.59,47.66Z"/><path class="cls-15" d="M12.87,23.8A4.27,4.27,0,1,0,17.47,20,4.23,4.23,0,0,0,12.87,23.8Z"/><path class="cls-16" d="M12.81,23a3.78,3.78,0,1,0,4.08-3.4A3.75,3.75,0,0,0,12.81,23Z"/><path d="M13.59,23.08a3,3,0,1,0,3.24-2.71A3,3,0,0,0,13.59,23.08Z"/><path class="cls-16" d="M19.08,23.29a3,3,0,0,0-.61-2.06,2.89,2.89,0,0,1,.82,2.29,2.83,2.83,0,0,1-3,2.64,2.75,2.75,0,0,1-1.91-1.05,2.68,2.68,0,0,0,1.7.81A2.83,2.83,0,0,0,19.08,23.29Z"/><path class="cls-16" d="M15,21.18a1.23,1.23,0,1,0,1.33-1.12A1.23,1.23,0,0,0,15,21.18Z"/><path class="cls-16" d="M14.63,23a.41.41,0,1,0,.44-.37A.4.4,0,0,0,14.63,23Z"/><path class="cls-17" d="M21.14,17.65a11.9,11.9,0,0,1,3.64,11.41c-1,4.06-5,6.1-5.89,6.14,2,.76,6.38-.13,7.5-6.43S22.78,18.25,21.14,17.65Z"/><path class="cls-18" d="M4.15,26.61A12,12,0,0,0,7.78,30,14.09,14.09,0,0,0,10,31.16a24.3,24.3,0,0,0,2.41.8c-.42,0-.85-.07-1.28-.13a11.4,11.4,0,0,1-1.25-.31,9.73,9.73,0,0,1-2.38-1.06,9.34,9.34,0,0,1-2-1.67A6.81,6.81,0,0,1,4.15,26.61Z"/></g></g></svg>