<svg id="Layer_1" data-name="Layer 1" xmlns="http://www.w3.org/2000/svg" viewBox="0 0 139.99 189.26"><defs><style>.cls-1{fill:#ff9f57;stroke:#5e3b2c;}.cls-1,.cls-5,.cls-6{stroke-miterlimit:10;}.cls-2{fill:#aa633c;}.cls-3{fill:#9b723d;}.cls-4{fill:#6b3430;}.cls-5{fill:#e55757;stroke:#763317;}.cls-6{fill:#461211;stroke:#37180c;}</style></defs><path class="cls-1" d="M64.64,162s20.2,6.74,35.74-4.17a51.83,51.83,0,0,1,15-45.59c21-20.62,24.95-25.75,18.94-52.67-2.77-12.39-7.39-15.59-6.93-25.11.67-13.69-14.28-29.66-33.22-19s-27.4-3.56-27.4-3.56-12.45-16.6-31-1.42c-8,6.55-7.21,20.31-11.05,31.41C22.26,49,6.79,60.33,14.31,87.32,19.37,105.5,36.59,113.41,44,121.25,50.31,127.86,59.19,135.44,64.64,162Z"/><path class="cls-2" d="M47.86,124.6S74,139,107.05,121.35c0,0-2.37,9.85-24.55,12.2-10.64,1.12-21.18.09-27.2-2.73A22,22,0,0,1,47.86,124.6Z"/><path class="cls-3" d="M59.11,105.4a28,28,0,0,0,27.29,0S73.22,110.92,59.11,105.4Z"/><ellipse class="cls-4" cx="88.4" cy="65.58" rx="4.21" ry="1.07" transform="translate(-20.26 47.99) rotate(-27.38)"/><ellipse class="cls-4" cx="60.19" cy="63.01" rx="1.07" ry="3.82" transform="matrix(0.83, -0.56, 0.56, 0.83, -24.91, 44.24)"/><path class="cls-5" d="M68.73,163.65s-4.92-6-11.93-7.81-13.73,3-14.21,13.54C42.31,175.69,51,183.61,56.67,183S73,174.34,73,174.34Z"/><path class="cls-5" d="M86.31,160.53s5.44-5.48,12.59-6.69,13.39,4.21,12.91,14.78c-.3,6.31-9.68,13.4-15.27,12.29s-15.43-10.13-15.43-10.13Z"/><circle class="cls-6" cx="78.22" cy="169.47" r="11.14"/></svg>