<svg id="Layer_1" data-name="Layer 1" xmlns="http://www.w3.org/2000/svg" xmlns:xlink="http://www.w3.org/1999/xlink" viewBox="0 0 951.17 852.82"><defs><style>.cls-1{fill:#ff9185;}.cls-2{opacity:0.11;}.cls-3{opacity:0.57;}.cls-4{fill:#f94343;}.cls-5{fill:#ffc80c;}.cls-6{fill:#ffeabd;}.cls-7{fill:#ffc043;}.cls-8{fill:#ff6a2b;}.cls-9{fill:#ff6a20;}.cls-10{opacity:0.78;}.cls-11{fill:#c1c3dd;}.cls-12{fill:#cc9038;}.cls-13{fill:#e58361;}.cls-13,.cls-14,.cls-29,.cls-30,.cls-31{stroke:#9b372d;}.cls-13,.cls-14,.cls-21,.cls-29,.cls-30,.cls-31{stroke-miterlimit:10;}.cls-14{fill:#a35e40;}.cls-15{fill:#d88866;}.cls-15,.cls-16,.cls-17,.cls-18,.cls-19,.cls-23,.cls-26,.cls-27,.cls-28{fill-rule:evenodd;}.cls-16{fill:#e29a76;}.cls-17{fill:#f2aa86;}.cls-18{fill:#d87556;opacity:0.31;}.cls-19{fill:#ffc7c0;}.cls-20{fill:#6b3632;}.cls-21{fill:none;stroke:#a35e40;stroke-width:2px;}.cls-22,.cls-24,.cls-26{fill:#f5916a;}.cls-23{fill:#f9b690;}.cls-24{opacity:0.5;}.cls-25{fill:#ffc7ab;}.cls-26{opacity:0.43;}.cls-27{fill:#d67254;}.cls-28{fill:#ffd4cc;}.cls-29{fill:#ff7d50;}.cls-30{fill:#f45c4d;}.cls-31{fill:#f26f51;}.cls-32{fill:#9b372d;}.cls-33{opacity:0.42;}.cls-34{fill:#ec6b5f;}.cls-35{fill:#26232a;}.cls-36{fill:#54804b;}.cls-37{clip-path:url(#clip-path);}.cls-38{fill:#ffb9bc;}.cls-39{clip-path:url(#clip-path-2);}.cls-40{fill:#ffd6d8;}.cls-41{fill:#efefeb;}.cls-42{fill:#ff5406;}.cls-43{fill:#fff;}</style><clipPath id="clip-path"><path class="cls-1" d="M757.18,790.73c1.43-.65,1.06-3-.07-4a74.87,74.87,0,0,0-23.23-14.32,57.71,57.71,0,0,0-12.55-3.15,55.5,55.5,0,0,0-12.88,0,73.19,73.19,0,0,1-7.41.53,26.34,26.34,0,0,1-4.43-.4l.06-.05a10.23,10.23,0,0,1,2.4-1.25,56.71,56.71,0,0,1,6-1.8,38.45,38.45,0,0,0,12.23-5.74,55.33,55.33,0,0,0,10.32-9.88,85.58,85.58,0,0,0,8.4-12.87c1.34-2.39,2.62-4.82,3.87-7.28,1.42-2.81,2.65-5.75,4-8.63a1.83,1.83,0,0,0-1.56-2.4c-3,0-6-.2-8.95,0a54.82,54.82,0,0,0-8.78,1.28,46.61,46.61,0,0,0-16.22,7.08,44.11,44.11,0,0,0-17.15,25.84C690.15,758,691,762,691,766.46c.06,7.58,1.59,9.76,6.28,15.26,4.32,5.06,9.83,8.62,15.27,11.4a44.43,44.43,0,0,0,12.82,4.36,39.86,39.86,0,0,0,14.54-.27C746,796,751.56,793.28,757.18,790.73ZM727,791.82l-.07,0,.15,0Z"/></clipPath><clipPath id="clip-path-2"><path class="cls-1" d="M726.93,774a73.68,73.68,0,0,0,11.12-8.19c3.92-3.3,7.81-6.6,11.57-10.13a2,2,0,0,0-.87-3.18c-2.34-.48-4.68-1.15-7-1.71s-4.61-1-6.92-1.46c-12.15-2.17-25.52-1.14-35.9,5.2-3.7,2.26-7.19,5.36-8.81,9.91s-.91,10.78,2.59,14.35c2.61,2.66,6.13,3.37,9.39,3.53C712,782.79,718.79,778.55,726.93,774Z"/></clipPath></defs><ellipse class="cls-2" cx="475.58" cy="707.05" rx="461.18" ry="128.5"/><g class="cls-3"><path class="cls-4" d="M498,791.34a16.28,16.28,0,0,0-3.78-.3,112.13,112.13,0,0,0-18.14,1.39c-2.89.47-5.73,1.05-8.49,1.73a30,30,0,0,0,7.12-7.6,20.58,20.58,0,0,0,2.18-4.55,17,17,0,0,0,.58-2.39c.15-.87,0-1.86-1.61-2.27a5.39,5.39,0,0,0-4.33.82,28.15,28.15,0,0,0-2.57,2.38c-1.58,1.56-3,3.14-4.39,4.76-.91,1.08-1.77,2.18-2.58,3.29a27.06,27.06,0,0,0-.34-5.82,27.42,27.42,0,0,0-1-4.11c-.26-.82-2-1-2.76-.28-4.71,4.18-4.16,9.33-2.27,14a93.62,93.62,0,0,0-13.94-12.5c-1.43-1.06-3.4-2.87-6.28-2.38a2.84,2.84,0,0,0-2.59,3.65c.57,2.89,3.8,5.31,7,7.49q6,4.07,12,8.1a107.64,107.64,0,0,0-27.12,4.1c-2.78.82-5.45,1.73-8,2.76-1.12.45-.54,1.58,1,1.46,6.38-.49,12.71-1.18,18.95-2,5-.7,10-1.5,14.82-2.46-1.62,1.14-3.4,2.22-5.17,3.25a140.37,140.37,0,0,0-12.35,7.58c-2,1.45-4.33,3.27-2.71,5.13a5.18,5.18,0,0,0,4,1.33,10.67,10.67,0,0,0,4.57-1.46,53.54,53.54,0,0,0,12.17-8.28c.39-.36.76-.72,1.12-1.08a1.77,1.77,0,0,1,0,.2,10.16,10.16,0,0,0,1.92,8.07A14,14,0,0,0,459.3,819a2.29,2.29,0,0,0,1.56.25,1.18,1.18,0,0,0,1-.7,29.59,29.59,0,0,0,1.86-13.7,49.45,49.45,0,0,0,14.73,7.53,16.28,16.28,0,0,0,4.69.93,9.18,9.18,0,0,0,4.16-.75,2.38,2.38,0,0,0,1.59-2.3,3.8,3.8,0,0,0-1.83-2.42,26.32,26.32,0,0,0-3.11-1.77c-1.18-.6-2.39-1.19-3.63-1.76-2.43-1.11-4.95-2.16-7.53-3.17-1.91-.74-3.86-1.45-5.82-2.15a170,170,0,0,0,26.5-3,43.78,43.78,0,0,0,4.28-.94c1.27-.39,2.49-1,2.56-1.87S499.37,791.66,498,791.34Z"/><path class="cls-5" d="M464.24,797a3.16,3.16,0,0,0-2.39-1.61A9,9,0,0,0,455,797c-.93.89-1.41,1.91-.7,2.91a3.9,3.9,0,0,0,2.51,1.31,7.92,7.92,0,0,0,4-.5C462.91,799.92,464.82,798.43,464.24,797Z"/></g><path class="cls-6" d="M589.62,614.57a1.46,1.46,0,0,0,.51,0,7.5,7.5,0,0,0,2.55-1c2.2-1.16,4.35-2.36,6.6-3.47.63-.3,1.25-.61,1.92-.86s1.59-.82,2.38-.55c.52.18.64.43.56.71a.77.77,0,0,1,0,.15h0c-.1.76-.39,1.5-.51,2.26a14.39,14.39,0,0,0-.16,1.61,11.06,11.06,0,0,0,.35,3.38,11.93,11.93,0,0,0,1.17,2.89A6.52,6.52,0,0,0,607,622a4.06,4.06,0,0,0,2.83.71,2.56,2.56,0,0,0,.49-.16l.15-.06.41-.24.13-.09a3.48,3.48,0,0,0,.9-1.07,9.64,9.64,0,0,0,.8-3c.21-1.21.38-2.42.53-3.63.31-2.48.29-5,1.23-7.43.3-.75,1.74-.59,2,.08a8.1,8.1,0,0,1,.4,1.44.62.62,0,0,1,.43.4c.49,2.06.82,4.09,2.23,6a14.72,14.72,0,0,0,6.1,4.57,11.54,11.54,0,0,0,1.85.64l.83.19a5.07,5.07,0,0,0,.68,0h.4l.41-.05.34-.07.37-.14.09,0,.23-.15s.18-.18.2-.2a1.48,1.48,0,0,0,.08-.13,1.42,1.42,0,0,0,.1-.29s0-.25,0-.29a2.69,2.69,0,0,0,0-.4s-.08-.28-.09-.31-.06-.2-.1-.3a18.83,18.83,0,0,0-.79-1.71c-.61-1.24-1.15-2.49-1.7-3.73-.33-.75-.62-1.51-.9-2.27a3.29,3.29,0,0,1-.27-2.25,1.19,1.19,0,0,1,1.34-.51,1.32,1.32,0,0,1,.3.09c-.34-.46.56-.93,1.17-.62a30.1,30.1,0,0,1,3.29,1.91,27.87,27.87,0,0,0,2.7,1.67,10.29,10.29,0,0,0,5.52,1.3,4.83,4.83,0,0,0,2.26-.72,2.79,2.79,0,0,0,.75-.78,1.12,1.12,0,0,0,.2-.71c-.05-1.38-1.79-2.7-3-3.71-.65-.55-1.34-1.09-2.06-1.6-.33-.21-.64-.43-.94-.66l-.64-.42a4.6,4.6,0,0,1-1.51-1.24.7.7,0,0,1,.7-1,5.62,5.62,0,0,1,2.83.84c.62.31,1.22.63,1.81,1s.87.55,1.29.85a8.54,8.54,0,0,0,1.49.36,6,6,0,0,0,2.3-.08,5.08,5.08,0,0,0,.59-.17l.14,0,.18-.08a4.41,4.41,0,0,0,.43-.25,3.57,3.57,0,0,1,.28-.24,1.38,1.38,0,0,0,.35-.56,1.73,1.73,0,0,0,0-.84,5.06,5.06,0,0,0-.9-1.91,20.25,20.25,0,0,0-3.21-3.51c-.72-.66-2.21-1.74-1.3-2.6a2.2,2.2,0,0,1,2.31,0,11.09,11.09,0,0,1,1.21.73,14,14,0,0,1,3.06,2.87l1,.34a18.21,18.21,0,0,0,4.35.82,6.84,6.84,0,0,0,3.59-.4.59.59,0,0,0,.34-.58c0-.35-.45-.67-.78-.91a17.75,17.75,0,0,0-3.46-1.73c-1.35-.57-2.76-1.09-4.2-1.54-5.77-1.81-11.93-2.34-18.17-2.52-.54,0-.66-.38-.5-.66h-1.3c-1,0-.91-1.08,0-1.19,4.07-.5,8.17-.83,12.23-1.36,1.86-.24,3.71-.53,5.55-.82.65-.1,3.16-.24,3.16-.95,0-.42-.83-.76-1.25-1-.64-.28-1.32-.52-2-.75a32.63,32.63,0,0,0-4.25-1.08,34.91,34.91,0,0,0-17.89,1.4,13,13,0,0,1-1.81,1.21c-.89.48-1.88-.26-1.37-.9a28.94,28.94,0,0,1,3-2.94q1.46-1.37,2.82-2.79c.84-.88,1.65-1.78,2.42-2.7a25.25,25.25,0,0,0,2.16-2.77c.11-.19.38-.55.11-.7s-.93.12-1.16.23a27.39,27.39,0,0,0-3.07,1.84,57.84,57.84,0,0,0-10.17,8.39,14.21,14.21,0,0,1-1.31,2.24,1,1,0,0,1-1.05.4c-.41-.06-.79-.37-.71-.69.25-.95.46-1.9.74-2.84.23-.75.4-1.51.6-2.27a30.09,30.09,0,0,0,.76-4.39,24.22,24.22,0,0,0-.5-8.09,15,15,0,0,0-.52-1.85,1.72,1.72,0,0,0-.82-1.05c-.86-.33-1.43,1-1.6,1.4a34.19,34.19,0,0,0-1.77,14.11c.66,1,1.82,3,1.13,3.13-.07,0-.28.28-.44.32a1.09,1.09,0,0,1-.62,0,3,3,0,0,1-.41-.18.85.85,0,0,1-1-.45,2.68,2.68,0,0,1-.07-.27c-.08-.08-.16-.15-.23-.23-.42-.44-.8-.9-1.18-1.36-.79-.93-1.47-1.92-2.19-2.88-1.42-1.9-2.76-3.83-4.13-5.75-1.24-1.74-2.46-3.49-3.7-5.24-.83-1.18-1.79-2.86-3.74-3.29a3.24,3.24,0,0,0-2.2.18,1.47,1.47,0,0,0-.73,1.44c0,1.45,1.13,2.83,2,4.1a85.1,85.1,0,0,0,15.4,16.63c.59.52-.49,1.32-1.17.85-1.19-.84-2.33-1.69-3.43-2.57a13.56,13.56,0,0,1-2.06-.91A173.82,173.82,0,0,0,583.16,575a7.46,7.46,0,0,0-2.59-.57c-.53,0-1.06.16-1.17.5s.33.94.78,1.25a16.13,16.13,0,0,0,2.22,1.19A63.18,63.18,0,0,0,593,581.26c.94.25,1.88.51,2.83.74s2,.45,2.88.76c.5.17,1.22.53,1.24,1s-.33.55-.74.66c.14.29-.1.69-.61.72a59.82,59.82,0,0,1-6.42-.14q-3.17-.09-6.33-.06c-3.68,0-7.36.24-11,.58-.95.08-1.89.18-2.83.29a16.16,16.16,0,0,0-2.12.34,3.16,3.16,0,0,0-.64.26c-.18.1-.21.14-.24.27s.17.31.41.43a13.74,13.74,0,0,0,4,.87q2.88.43,5.79.79c4,.49,8,.83,12,1.43.75.12.78,1,0,1-.62,0-1.25,0-1.87,0a.62.62,0,0,1-.42.31c-3.5.88-7,1.68-10.6,2.44-3.16.67-6.33,1.33-9.49,2-1.1.24-2.45.53-3,1.33-.43.64.06,1.05.69,1.22a11.85,11.85,0,0,0,3.42.16c1.59-.06,3.17-.16,4.74-.32s2.93-.37,4.39-.57c.83-.12,1.65-.25,2.47-.39s1.71-.16,2.57-.27c.44-.06.69.13.75.36.66-.16,1.45.38.88.81a78.58,78.58,0,0,1-7.13,4.53c-1.46.87-3.88,2.28-3.07,3.85a2.21,2.21,0,0,0,1.72,1,6.23,6.23,0,0,0,2.81-.23,19.34,19.34,0,0,0,3.07-1.25c1.18-.55,2.37-1.11,3.56-1.65s2.4-1.12,3.62-1.63a11.24,11.24,0,0,1,4.13-1.31c.54,0,1,.51.73.85a2.78,2.78,0,0,1-.5.53,1.17,1.17,0,0,1-.14.3,6.71,6.71,0,0,1-.32.78c-.32.6-.69,1.19-1,1.78-.59,1-1.21,2-1.83,3s-1.24,2-1.84,3a5.8,5.8,0,0,0-.63,1.24,1.45,1.45,0,0,0,0,.94.93.93,0,0,0,.47.55l.15.06.13,0A.15.15,0,0,1,589.62,614.57Zm72.28-17.18c.17,1.21-1,2.15-2.49,2.58a13.3,13.3,0,0,1-4.8.3,21,21,0,0,1-2.68-.42,4.29,4.29,0,0,1,.47,3,4.8,4.8,0,0,1-3.82,3.13,10.27,10.27,0,0,1-2.32.27c1.18,1.27,2.06,2.76,1.52,4.27-.68,1.92-3.11,3.2-5.82,3.37a13.6,13.6,0,0,1-7.57-2,26.69,26.69,0,0,1-4.38-3.36,17.75,17.75,0,0,1,1,1.49c.8,1.28,1.46,2.61,2.15,3.92a21.19,21.19,0,0,1,1.68,3.59,3.52,3.52,0,0,1-1.11,4.06,7.39,7.39,0,0,1-4.35,1.37c-3.3.1-6.47-1.51-8.69-3.1a14.13,14.13,0,0,1-4.1-4.54q-.08.6-.18,1.2a31,31,0,0,1-.79,3.88,6.1,6.1,0,0,1-2.16,3.31,7,7,0,0,1-4.83,1.35,7.82,7.82,0,0,1-4.59-2,11,11,0,0,1-3.16-6.67,12.28,12.28,0,0,1,.11-3.58,9.65,9.65,0,0,1,.26-1.13c-1.77,1.08-3.68,2.06-5.53,3.07s-4.1,2.35-6.61,2c-2.67-.35-3.89-2.34-3.35-4.11A9.75,9.75,0,0,1,587.3,610l1.83-2.58c.61-.85,1.21-1.7,1.84-2.54l-.52.25c-1.47.68-2.93,1.36-4.4,2-2.34,1.07-4.89,2.48-7.79,2.49-2.68,0-5.22-1.1-5.55-3.11s2-3.76,4.11-5c1.5-.84,3-1.7,4.55-2.5-.78.18-1.58.35-2.38.49-1.92.35-3.92.56-5.89.73-1.62.14-3.29.26-4.93.24a8.22,8.22,0,0,1-3.87-.8,2.13,2.13,0,0,1-1-3,5.56,5.56,0,0,1,3.6-2.2c1.65-.44,3.42-.71,5.12-1l5.46-1.06q3.81-.74,7.64-1.4c-2.8-.18-5.58-.51-8.35-.85-2.1-.27-4.21-.53-6.28-.88-1.39-.24-3-.72-3.67-1.67-.83-1.16.06-2.43,1.6-3a24.77,24.77,0,0,1,5.51-.87,120.61,120.61,0,0,1,12.33-.61c1.88,0,3.77.05,5.65.15a59.54,59.54,0,0,1-7.49-2.63,55.9,55.9,0,0,1-5.29-2.51c-1.55-.84-2.91-2.17-2.42-3.64s2.64-2.18,4.64-2a12.89,12.89,0,0,1,3.07.75c.93.31,1.86.64,2.79,1,3.71,1.33,7.31,2.81,10.82,4.4,1.29.58,2.57,1.18,3.83,1.8-.88-.87-1.72-1.75-2.53-2.65a56.35,56.35,0,0,1-6.93-9.23c-.82-1.42-1.43-3.11-.49-4.58s3.59-2,5.72-1.5a8.81,8.81,0,0,1,4.85,3.44q2.07,2.64,4.09,5.28c1.48,1.92,3,3.84,4.42,5.77.06.08.12.15.17.23a31.11,31.11,0,0,1,.25-4.73,36.24,36.24,0,0,1,.94-4.68,7.23,7.23,0,0,1,1.68-3.72,3.72,3.72,0,0,1,4.49-.36c1.31.9,1.54,2.43,1.84,3.63a28.35,28.35,0,0,1,.85,9,23.25,23.25,0,0,1-.48,3.39c.91-.89,1.87-1.75,2.87-2.58a49.54,49.54,0,0,1,6.68-4.66,6,6,0,0,1,4.12-1.17c1.65.27,2.24,1.47,1.7,2.54a19.64,19.64,0,0,1-2.19,3.07c-.8,1-1.64,2-2.53,3s-1.78,1.89-2.75,2.79a35.68,35.68,0,0,1,8.13-1.32,39,39,0,0,1,10.26.84,30.53,30.53,0,0,1,4.78,1.47c1.35.55,2.69,1.54,2.15,2.74s-2.46,1.56-4,1.86c-2,.38-4,.66-6,.94-1.23.16-2.46.32-3.7.45,1.52.11,3,.29,4.53.52a53.48,53.48,0,0,1,9.94,2.57,39,39,0,0,1,4.51,2C660.52,595.36,661.74,596.22,661.9,597.39Z"/><path class="cls-6" d="M590.13,614.56a1.46,1.46,0,0,1-.51,0,.15.15,0,0,0-.08,0l-.13,0-.15-.06a.93.93,0,0,1-.47-.55,1.45,1.45,0,0,1,0-.94,5.8,5.8,0,0,1,.63-1.24c.6-1,1.23-2,1.84-3s1.24-2,1.83-3c.34-.59.71-1.18,1-1.78a6.71,6.71,0,0,0,.32-.78,1.17,1.17,0,0,0,.14-.3,2.78,2.78,0,0,0,.5-.53c.24-.34-.19-.85-.73-.85a11.24,11.24,0,0,0-4.13,1.31c-1.22.51-2.41,1.08-3.62,1.63s-2.38,1.1-3.56,1.65a19.34,19.34,0,0,1-3.07,1.25,6.23,6.23,0,0,1-2.81.23,2.21,2.21,0,0,1-1.72-1c-.81-1.57,1.61-3,3.07-3.85a78.58,78.58,0,0,0,7.13-4.53c.57-.43-.22-1-.88-.81-.06-.23-.31-.42-.75-.36-.86.11-1.73.12-2.57.27s-1.64.27-2.47.39c-1.46.2-2.91.42-4.39.57s-3.15.26-4.74.32a11.85,11.85,0,0,1-3.42-.16c-.63-.17-1.12-.58-.69-1.22.53-.8,1.88-1.09,3-1.33,3.16-.69,6.33-1.35,9.49-2,3.56-.76,7.1-1.56,10.6-2.44a.62.62,0,0,0,.42-.31c.62,0,1.25,0,1.87,0,.83,0,.8-.88,0-1-4-.6-8-.94-12-1.43q-2.91-.36-5.79-.79a13.74,13.74,0,0,1-4-.87c-.24-.12-.44-.3-.41-.43s.06-.17.24-.27a3.16,3.16,0,0,1,.64-.26,16.16,16.16,0,0,1,2.12-.34c.94-.11,1.88-.21,2.83-.29,3.65-.34,7.33-.55,11-.58q3.16,0,6.33.06a59.82,59.82,0,0,0,6.42.14c.51,0,.75-.43.61-.72.41-.11.76-.3.74-.66s-.74-.8-1.24-1c-.91-.31-1.93-.53-2.88-.76s-1.89-.49-2.83-.74a63.18,63.18,0,0,1-10.55-3.85,16.13,16.13,0,0,1-2.22-1.19c-.45-.31-.94-.78-.78-1.25s.64-.49,1.17-.5a7.46,7.46,0,0,1,2.59.57,173.82,173.82,0,0,1,21.39,8.77,13.56,13.56,0,0,0,2.06.91c1.1.88,2.24,1.73,3.43,2.57.68.47,1.76-.33,1.17-.85a85.1,85.1,0,0,1-15.4-16.63c-.86-1.27-1.94-2.65-2-4.1a1.47,1.47,0,0,1,.73-1.44,3.24,3.24,0,0,1,2.2-.18c2,.43,2.91,2.11,3.74,3.29,1.24,1.75,2.46,3.5,3.7,5.24,1.37,1.92,2.71,3.85,4.13,5.75.72,1,1.4,2,2.19,2.88.38.46.76.92,1.18,1.36.07.08.15.15.23.23a2.68,2.68,0,0,0,.07.27.85.85,0,0,0,1,.45,3,3,0,0,0,.41.18,1.09,1.09,0,0,0,.62,0c.16,0,.37-.31.44-.32.69-.09-.47-2.09-1.13-3.13a34.19,34.19,0,0,1,1.77-14.11c.17-.45.74-1.73,1.6-1.4a1.72,1.72,0,0,1,.82,1.05,15,15,0,0,1,.52,1.85,24.22,24.22,0,0,1,.5,8.09,30.09,30.09,0,0,1-.76,4.39c-.2.76-.37,1.52-.6,2.27-.28.94-.49,1.89-.74,2.84-.08.32.3.63.71.69a1,1,0,0,0,1.05-.4,14.21,14.21,0,0,0,1.31-2.24,57.84,57.84,0,0,1,10.17-8.39,27.39,27.39,0,0,1,3.07-1.84c.23-.11.85-.4,1.16-.23s0,.51-.11.7a25.25,25.25,0,0,1-2.16,2.77c-.77.92-1.58,1.82-2.42,2.7s-1.85,1.88-2.82,2.79a28.94,28.94,0,0,0-3,2.94c-.51.64.48,1.38,1.37.9a13,13,0,0,0,1.81-1.21,34.91,34.91,0,0,1,17.89-1.4,32.63,32.63,0,0,1,4.25,1.08c.68.23,1.36.47,2,.75.42.19,1.25.53,1.25,1,0,.71-2.51.85-3.16.95-1.84.29-3.69.58-5.55.82-4.06.53-8.16.86-12.23,1.36-.89.11-1,1.17,0,1.19h1.3c-.16.28,0,.64.5.66,6.24.18,12.4.71,18.17,2.52,1.44.45,2.85,1,4.2,1.54a17.75,17.75,0,0,1,3.46,1.73c.33.24.74.56.78.91a.59.59,0,0,1-.34.58,6.84,6.84,0,0,1-3.59.4,18.21,18.21,0,0,1-4.35-.82l-1-.34a14,14,0,0,0-3.06-2.87,11.09,11.09,0,0,0-1.21-.73,2.2,2.2,0,0,0-2.31,0c-.91.86.58,1.94,1.3,2.6a20.25,20.25,0,0,1,3.21,3.51,5.06,5.06,0,0,1,.9,1.91,1.73,1.73,0,0,1,0,.84,1.38,1.38,0,0,1-.35.56,3.57,3.57,0,0,0-.28.24,4.41,4.41,0,0,1-.43.25l-.18.08-.14,0a5.08,5.08,0,0,1-.59.17,6,6,0,0,1-2.3.08,8.54,8.54,0,0,1-1.49-.36c-.42-.3-.85-.58-1.29-.85s-1.19-.67-1.81-1a5.62,5.62,0,0,0-2.83-.84.7.7,0,0,0-.7,1,4.6,4.6,0,0,0,1.51,1.24l.64.42c.3.23.61.45.94.66.72.51,1.41,1,2.06,1.6,1.22,1,3,2.33,3,3.71a1.12,1.12,0,0,1-.2.71,2.79,2.79,0,0,1-.75.78,4.83,4.83,0,0,1-2.26.72,10.29,10.29,0,0,1-5.52-1.3,27.87,27.87,0,0,1-2.7-1.67A30.1,30.1,0,0,0,630.1,607c-.61-.31-1.51.16-1.17.62a1.32,1.32,0,0,0-.3-.09,1.19,1.19,0,0,0-1.34.51,3.29,3.29,0,0,0,.27,2.25c.28.76.57,1.52.9,2.27.55,1.24,1.09,2.49,1.7,3.73A18.83,18.83,0,0,1,631,618c0,.1.07.2.1.3s.08.29.09.31a2.69,2.69,0,0,1,0,.4s0,.33,0,.29a1.42,1.42,0,0,1-.1.29,1.48,1.48,0,0,1-.08.13s-.23.21-.2.2l-.23.15-.09,0-.37.14-.34.07-.41.05h-.4a5.07,5.07,0,0,1-.68,0l-.83-.19a11.54,11.54,0,0,1-1.85-.64,14.72,14.72,0,0,1-6.1-4.57c-1.41-1.87-1.74-3.9-2.23-6a.62.62,0,0,0-.43-.4,8.1,8.1,0,0,0-.4-1.44c-.25-.67-1.69-.83-2-.08-.94,2.41-.92,5-1.23,7.43-.15,1.21-.32,2.42-.53,3.63a9.64,9.64,0,0,1-.8,3,3.48,3.48,0,0,1-.9,1.07l-.13.09-.41.24-.15.06a2.56,2.56,0,0,1-.49.16A4.06,4.06,0,0,1,607,622a6.52,6.52,0,0,1-1.93-2.33,11.93,11.93,0,0,1-1.17-2.89,11.06,11.06,0,0,1-.35-3.38,14.39,14.39,0,0,1,.16-1.61c.12-.76.41-1.5.51-2.26h0a.77.77,0,0,0,0-.15c.08-.28,0-.53-.56-.71-.79-.27-1.71.3-2.38.55s-1.29.56-1.92.86c-2.25,1.11-4.4,2.31-6.6,3.47A7.5,7.5,0,0,1,590.13,614.56Z"/><path class="cls-7" d="M623.74,592.73a7.29,7.29,0,0,0-2.33-.72l-1-.16c1.32-.62,2.63-1.24,3.86-2a1,1,0,0,0,.21-1.75,2.3,2.3,0,0,0-2.45-.15c-1.32.66-2.52,1.39-3.73,2.15-.62.39-.7.89-.46,1.3h0a1.73,1.73,0,0,0-.68,0l.77-1a1,1,0,0,0-.3-1.65,2.33,2.33,0,0,0-2.34,0l-.37.29a5.6,5.6,0,0,0,.39-2.71c0-1.16-2.42-1.18-2.76-.11a10.44,10.44,0,0,0-.45,1.61,3.28,3.28,0,0,0,0,1l0-.09a1,1,0,0,0-.4-.37c-.14,0-.19-.1-.16-.19a4,4,0,0,0-.6-.42,1.08,1.08,0,0,0,1.12-.47.57.57,0,0,0,0-.55c-.21-.16-.2-.2,0-.1a2.26,2.26,0,0,0-.08-.44,1.65,1.65,0,0,1,0-1.54c.65-1-1.23-1.79-2.08-.85a2.4,2.4,0,0,0-.2,3.31c-.74-.33-1.51-.62-2.22-1-1.1-.55-2.19.57-1.42,1.24s1.38,1.43,2.18,2.07a4.78,4.78,0,0,0,1.72,1,2,2,0,0,0,2.2-.72,1,1,0,0,0,.09-.54,1.42,1.42,0,0,0,.46.59,1.47,1.47,0,0,0,1.1.22,5.83,5.83,0,0,0-1.36,1.51c-.31.54.19,1.3.87,1.57a3.23,3.23,0,0,0,.51.14h0a2.45,2.45,0,0,0,1.75-.26h0l.13-.07a4,4,0,0,0,.47-.33,1.18,1.18,0,0,0,.93,1c1.92.6,3.91,1.54,6.08,1.44a1.57,1.57,0,0,0,1.37-1A1.15,1.15,0,0,0,623.74,592.73Z"/><path class="cls-7" d="M605.84,591.13a2.27,2.27,0,0,0-2-.87c-1.54.14-2.9.72-4.49.4-1.42-.28-2.4,1.34-1.19,1.91a9.15,9.15,0,0,0,3.71,1,6.44,6.44,0,0,0,3.58-.77A1.18,1.18,0,0,0,605.84,591.13Z"/><path class="cls-7" d="M611.55,591.43a2.3,2.3,0,0,0-2.27,0l-.46.23-.08,0-.12.05a5.84,5.84,0,0,0-1.28.62,1.27,1.27,0,0,0-.55,1c-.53.46-1,.93-1.51,1.42a11.53,11.53,0,0,0-.87,1,9.26,9.26,0,0,0-.69,1.22c-.29.52,0,1.14.69,1.41a2.07,2.07,0,0,0,2.06-.28c.2-.15.46-.27.67-.43a6.44,6.44,0,0,0,.61-.55,10.92,10.92,0,0,0,.88-.93c.38-.45.73-.91,1.06-1.39l.34-.1a4.1,4.1,0,0,0,.81-.3,1.11,1.11,0,0,0,.36-.26l.13-.12c.08-.06.18-.11.25-.17a.81.81,0,0,0,.31-.86A1,1,0,0,0,611.55,591.43Z"/><path class="cls-7" d="M612.56,598.46a1.88,1.88,0,0,0,.06-.46,6.51,6.51,0,0,0-.41-1.66c-.43-1.39-3.48-1.29-3.55.19a5.75,5.75,0,0,0,.07,1.94,2.23,2.23,0,0,0,3.15.92,1.57,1.57,0,0,0,.42-.39s.06-.1.12-.19A.56.56,0,0,0,612.56,598.46Z"/><path class="cls-7" d="M616.76,595.59c-.41-.51-.84-1-1.25-1.51a2.1,2.1,0,0,0-2.12-.27,1,1,0,0,0-.68,1.46c.26.51.51,1,.78,1.55a4.38,4.38,0,0,0,.49.75,2.55,2.55,0,0,0,1.25.84,1.78,1.78,0,0,0,2.28-1A2.45,2.45,0,0,0,616.76,595.59Z"/><path class="cls-7" d="M608.73,590.91a2.85,2.85,0,0,0-1-1.7c-.39-.38-.8-.77-1.22-1.14-.95-.83-1.94-1.64-2.9-2.47s-2.56.19-1.87,1,1.5,1.76,2.27,2.63c.37.42.76.83,1.16,1.23a7.54,7.54,0,0,0,.59.52,3.59,3.59,0,0,0,1.47.75C607.93,591.92,608.78,591.4,608.73,590.91Z"/><path class="cls-7" d="M622.35,583a6.14,6.14,0,0,0-2.15.87c-.31.23-.6.46-.89.7L617,586.45a1,1,0,0,0,.24,1.6,2.25,2.25,0,0,0,2.26.06L622,586.4c.91-.61,2-1.34,2.12-2.29A1.28,1.28,0,0,0,622.35,583Z"/><g class="cls-3"><path class="cls-8" d="M312.86,807.36c-2.27-.93-4.8-1.74-7.21-2.58-2.66-.93-5.35-1.84-8-2.73l1.19-.23c2.72-.54,5.39-1.14,8-1.82a33.66,33.66,0,0,0,7.91-2.69c2.43-1.4,3.19-3.57,1.06-5.16-1.77-1.34-5.07-2-8.17-1.85a37.19,37.19,0,0,0-8.69,1.7c-1.29.36-2.52.76-3.71,1.19l.65-.93a38.67,38.67,0,0,0,2.54-4.53c.66-1.39,1.38-2.9.23-4.28-1.33-1.58-4.71-2.52-8-2a8.64,8.64,0,0,0-5.14,2.64,25,25,0,0,0-4.89,7.82c-.1.27-.2.53-.29.8l-.81-.92c-1.08-1.19-2.22-2.36-3.39-3.53-.76-.75-1.55-1.49-2.32-2.24A14.63,14.63,0,0,0,272,784.4a9.77,9.77,0,0,0-8.31-.86c-3.32,1.25-2.29,3.33-1.38,5a25,25,0,0,0,5.2,6.48,41.05,41.05,0,0,0,4.23,3.41c-2-.32-4.06-.63-6.12-.89-4.48-.58-9.8-.88-14.18.07-2.11.46-4.09,1.21-5.07,2.29-1.21,1.33-.5,2.89,1.62,3.87a17.66,17.66,0,0,0,7.44,1.07c2.48,0,5-.13,7.43-.2l5.33-.13c-.84.32-1.65.66-2.44,1-3.82,1.7-7.43,3.91-9.56,6.26-1.15,1.26-1.63,2.83-.38,4.11,1.71,1.75,5.8,2.34,9.31,1.69a17.29,17.29,0,0,0,6.64-3.08l5-3.24a15.44,15.44,0,0,0,.81,3.69A8.58,8.58,0,0,0,280,819c1.68,1.44,4.9,2.35,8.22,1.92,3.1-.41,5.12-1.81,5.66-3.35s.07-3-.1-4.47c-.08-.66-.17-1.32-.28-2a43.16,43.16,0,0,0,8.85,2.74,32.83,32.83,0,0,0,8,.78c3.34-.15,5.94-1.36,6.55-3S315.41,808.41,312.86,807.36Z"/><path class="cls-6" d="M288.77,797.71a12.36,12.36,0,0,0-8.68-.65,1.53,1.53,0,0,0-1.13.05c-3.23,1.66-6.09,3.78-5.65,6.22.35,1.88,3.05,3.71,7,3.91a12.2,12.2,0,0,0,9.59-3.44C291.63,801.84,291.85,799.37,288.77,797.71Z"/><path class="cls-8" d="M280.4,798.46h-.2a1.62,1.62,0,0,0-.68.14c-.18.08-.31.23-.3.35s.42.5,1,.5h.24a1.55,1.55,0,0,0,.68-.15c.17-.08.3-.23.29-.35C281.36,798.68,280.94,798.46,280.4,798.46Z"/><path class="cls-8" d="M285.59,797.77h-.13c-.51,0-1,.26-.93.51s.47.47,1,.47h.08c.51,0,1-.24,1-.5S286.14,797.77,285.59,797.77Z"/><path class="cls-8" d="M277.91,801.81c-1.26,0-1.26,1,0,1S279.17,801.81,277.91,801.81Z"/><path class="cls-8" d="M279.84,805.15l-.07,0a1.74,1.74,0,0,0-1.38,0c-.36.21-.33.5.05.7l0,0a1.78,1.78,0,0,0,1.38,0C280.22,805.64,280.22,805.34,279.84,805.15Z"/><path class="cls-8" d="M279.84,805.15Z"/><path class="cls-8" d="M284.2,801.19l-.12-.12a1.18,1.18,0,0,0-.61-.23,1.92,1.92,0,0,0-.72,0c-.47.15-.61.43-.36.68l.1.09a1,1,0,0,0,.59.24,2,2,0,0,0,.73,0C284.27,801.72,284.45,801.44,284.2,801.19Z"/><path class="cls-8" d="M284.41,804.71c-1.26,0-1.24,1,0,1S285.67,804.71,284.41,804.71Z"/><path class="cls-8" d="M288.29,802.2c-1.26,0-1.19,1,.07,1S289.55,802.2,288.29,802.2Z"/><path class="cls-8" d="M288.91,800c-1.25,0-1.35,1-.09,1S290.17,800,288.91,800Z"/><path class="cls-8" d="M278.06,799.63c-1.25,0-1.34,1-.08,1S279.32,799.63,278.06,799.63Z"/><path class="cls-8" d="M276.82,803.67c-1.26,0-1.24,1,0,1S278.08,803.67,276.82,803.67Z"/><path class="cls-8" d="M281.79,802.85c-1.26,0-1.21,1,0,1S283.05,802.85,281.79,802.85Z"/><path class="cls-6" d="M289.66,756c.51.93-.38,1.88-1.78,2.49a27.36,27.36,0,0,1-5.75,1.38c-2.31.4-4.67.75-7.06,1q-4.21.5-8.51.72a90.69,90.69,0,0,1,11,3c2.08.72,4.1,1.51,6,2.37,1.7.77,3.27,1.68,3.57,2.86s-.65,2-2.41,2.55a17.63,17.63,0,0,1-7,.31c-8.24-.93-15.48-3.7-19.73-7.35a16.49,16.49,0,0,1-.79,8,17.19,17.19,0,0,1-1.84,3.76,6.77,6.77,0,0,1-3.16,2.67c-3.19,1.34-7.57.93-9.32-1a4.34,4.34,0,0,1-.91-3.33,13.18,13.18,0,0,1,.73-3.77,16.85,16.85,0,0,1,2.37-4.45,24.7,24.7,0,0,1-4.86,1.18,25.43,25.43,0,0,1-9.38-.26c-3-.74-4.52-2.32-3.26-3.93s4.79-2.74,7.78-3.57a59.48,59.48,0,0,1,7.65-1.55l-6.64-.7c-3.27-.35-6.61-.63-9.8-1.13-4.49-.7-9.17-2.17-10.28-4.64-1-2.2,1.59-4.53,6.22-4.8,5.63-.33,10.19,2,14.22,3.64l8.44,3.4a29.06,29.06,0,0,1-5.68-6,19.46,19.46,0,0,1-2.34-4.61,9,9,0,0,1-.71-4.81c.31-1.27,1.8-2.63,4.51-2.89a7.37,7.37,0,0,1,5.58,1.67,13.65,13.65,0,0,1,2.93,4.25,25.59,25.59,0,0,1,2.06,5.1,22.49,22.49,0,0,1,.83,6.59,31.82,31.82,0,0,1,7.24-8.32A19.25,19.25,0,0,1,274.81,741c6.54.87,6.65,4.76,4.66,7.38-2.13,2.81-6,5.22-10.75,7,1.21-.17,2.43-.32,3.66-.46q3.54-.4,7.14-.66a29.3,29.3,0,0,1,6.62,0C287.74,754.49,289.21,755.12,289.66,756Zm-3.28,1.84c1.64-.65,2-1.71.22-2.37a15.21,15.21,0,0,0-5.63-.33,151.42,151.42,0,0,0-23.56,3.31,1.07,1.07,0,0,1-1.17-.3c-1.41.14-2.85.23-4.29.27a2.22,2.22,0,0,1-.37,0,1.74,1.74,0,0,1-1.55-.06.52.52,0,0,1-.41-.31l-.41-.26-13.51-5.44c-2-.81-4-1.67-6.11-2.41a17.87,17.87,0,0,0-6.82-1.12c-4.85.27-5.85,3.13-3.49,4.92,2.66,2,7.62,2.66,12,3.14,5.35.58,10.71,1.11,16.05,1.71,1.07.12,1.08.9.19,1a1.4,1.4,0,0,1-.49.12,57.52,57.52,0,0,0-11.36,2c-2.83.82-8.37,2.56-6.28,4.59,1.64,1.59,6.42,1.66,9.41,1.32a18.49,18.49,0,0,0,8.19-2.69l.25-.25a.94.94,0,0,1,.6-.25c.76-.16,1.76.31,1.19.75l-.37.27a17.68,17.68,0,0,0-4.14,6.54,13.06,13.06,0,0,0-.63,3.09,4.09,4.09,0,0,0,.65,3.28,4.94,4.94,0,0,0,4.19,1.28,6.32,6.32,0,0,0,4.07-1.92,13.57,13.57,0,0,0,3-6.27,15.14,15.14,0,0,0,.13-6.63c-.08-.36.51-.57,1.06-.58a1.45,1.45,0,0,1,1.81-.13,24,24,0,0,0,8.46,5.11,45,45,0,0,0,10.24,2.49c2.11.27,4.76.51,6.58-.26s1-2.12-.37-2.93a34.94,34.94,0,0,0-5-2.21q-2.69-1-5.58-1.89A97.59,97.59,0,0,0,262,761.76l-.89,0c-1,0-1.13-.77-.36-.94a1.67,1.67,0,0,1,1.09-.15l.47.08c4.47-.12,8.9-.43,13.24-1q2.86-.36,5.65-.84A29.09,29.09,0,0,0,286.38,757.8Zm-8.61-10c.9-1.28,1.43-2.8.47-4.11s-3.8-2.06-6.68-1.9c-6.37.35-10.05,4-12.63,6.57a27,27,0,0,0-6.2,9,50.14,50.14,0,0,0,15.11-2.93C272.27,752.78,275.92,750.46,277.77,747.83Zm-27.62,9a21.6,21.6,0,0,0-.64-9.27,26.09,26.09,0,0,0-1.79-4.49,15.24,15.24,0,0,0-2.63-4.09,4.79,4.79,0,0,0-5.4-1c-2.06,1-1.45,2.87-1.18,4.19C239.59,747.46,243.7,752.55,250.15,756.79Z"/><path class="cls-6" d="M286.6,755.43c1.82.66,1.42,1.72-.22,2.37a29.09,29.09,0,0,1-5.19,1.15q-2.79.48-5.65.84c-4.34.55-8.77.86-13.24,1l-.47-.08a1.67,1.67,0,0,0-1.09.15c-.77.17-.63.95.36.94l.89,0a97.59,97.59,0,0,1,11.17,2.62q2.89.87,5.58,1.89a34.94,34.94,0,0,1,5,2.21c1.36.81,2.28,2.12.37,2.93s-4.47.53-6.58.26a45,45,0,0,1-10.24-2.49,24,24,0,0,1-8.46-5.11,1.45,1.45,0,0,0-1.81.13c-.55,0-1.14.22-1.06.58a15.14,15.14,0,0,1-.13,6.63,13.57,13.57,0,0,1-3,6.27,6.32,6.32,0,0,1-4.07,1.92,4.94,4.94,0,0,1-4.19-1.28,4.09,4.09,0,0,1-.65-3.28,13.06,13.06,0,0,1,.63-3.09,17.68,17.68,0,0,1,4.14-6.54l.37-.27c.57-.44-.43-.91-1.19-.75a.94.94,0,0,0-.6.25l-.25.25a18.49,18.49,0,0,1-8.19,2.69c-3,.34-7.77.27-9.41-1.32-2.09-2,3.45-3.77,6.28-4.59a57.52,57.52,0,0,1,11.36-2,1.4,1.4,0,0,0,.49-.12c.89-.08.88-.86-.19-1-5.34-.6-10.7-1.13-16.05-1.71-4.41-.48-9.37-1.13-12-3.14-2.36-1.79-1.36-4.65,3.49-4.92a17.87,17.87,0,0,1,6.82,1.12c2.12.74,4.1,1.6,6.11,2.41l13.51,5.44.41.26a.52.52,0,0,0,.41.31,1.74,1.74,0,0,0,1.55.06,2.22,2.22,0,0,0,.37,0c1.44,0,2.88-.13,4.29-.27a1.07,1.07,0,0,0,1.17.3A151.42,151.42,0,0,1,281,755.1,15.21,15.21,0,0,1,286.6,755.43Z"/><path class="cls-6" d="M278.24,743.72c1,1.31.43,2.83-.47,4.11-1.85,2.63-5.5,4.95-9.93,6.61a50.14,50.14,0,0,1-15.11,2.93,27,27,0,0,1,6.2-9c2.58-2.55,6.26-6.22,12.63-6.57C274.44,741.66,277.2,742.31,278.24,743.72Z"/><path class="cls-6" d="M249.51,747.52a21.6,21.6,0,0,1,.64,9.27c-6.45-4.24-10.56-9.33-11.64-14.66-.27-1.32-.88-3.15,1.18-4.19a4.79,4.79,0,0,1,5.4,1,15.24,15.24,0,0,1,2.63,4.09A26.09,26.09,0,0,1,249.51,747.52Z"/><path class="cls-5" d="M388.18,751.48c5.91.49,10.59,3.06,9.45,6.17s-6.47,5.82-11.25,7.76a67.44,67.44,0,0,1-8.38,2.72,45.19,45.19,0,0,1,9.17-.19c4,.37,7.61,1.56,9.27,3.46s.78,3.71-1.8,5.13c-5,2.77-12.4,2.12-18.75.82a17.62,17.62,0,0,1,4.84,4.18c1.55,2,2.38,4.52.1,6.5-2.05,1.78-6.41,2.52-10.31,2.18a16.75,16.75,0,0,1-9.71-3.79,10.9,10.9,0,0,1-3.35-6.23,15.08,15.08,0,0,1-7.62,7.3,23.15,23.15,0,0,1-14.13,1.37c-4.34-1.09-7.12-3.51-7.35-5.92-.56-5.78,9.52-9.39,18.56-12a91.62,91.62,0,0,1-18.09-1.64c-4.63-.91-9.48-2.41-11.3-4.87-1.49-2-.7-4.6,3-5.86,4.67-1.6,10.85-.33,15.35.79A75.53,75.53,0,0,1,348,763.46a31.71,31.71,0,0,1-6.87-7.08c-1.54-2.29-2.83-5.07.64-7.08s8.88-1.08,12.17.57c5.8,2.91,8.69,7.2,8.53,11.33A27,27,0,0,1,371.2,755,33.91,33.91,0,0,1,388.18,751.48Zm7.68,5.27c.15-2.85-5.6-4.54-10.7-4.36a32.7,32.7,0,0,0-14.74,4.38,20.11,20.11,0,0,0-8,7.47c-.26.49-1.52.41-1.83,0-.39-.07-.68-.25-.57-.51a8.11,8.11,0,0,0-.81-7.46,16,16,0,0,0-6.24-5.56,13.52,13.52,0,0,0-5.85-1.66,6.53,6.53,0,0,0-4.86,1.65c-2.05,2.19.37,5,2,7.06a33,33,0,0,0,7,6.36c.5.34,0,.73-.69.78-.13.34-1,.6-1.66.29a71.16,71.16,0,0,0-14.49-5.1c-3.84-.93-9.67-2.16-13.43-.48-3.18,1.41-2.67,4-.45,5.61,2.87,2.06,8,3.11,12.65,3.79a91,91,0,0,0,16.72.86c.82,0,1.08.38.83.68.1.2,0,.44-.49.56-5.16,1.43-10.52,2.88-14.53,5.1-3.28,1.82-5.79,4.25-5.41,6.77.32,2.19,3,4.42,7.26,5.17a19.45,19.45,0,0,0,12.76-2.38c3.34-2.07,4.7-4.76,6-7.29.22-.44,1.27-.48,1.73-.24.48,0,1,.1,1,.41.45,2.61,1,5.42,3.93,7.68a15.31,15.31,0,0,0,9.17,2.94c3.71.05,7-1,7.84-2.9s-.48-4-2.19-5.76a22.63,22.63,0,0,0-7.34-4.59l-.11,0a.68.68,0,0,1-.32-.15c-.58-.32.09-.75.85-.75h0a1.66,1.66,0,0,1,.62.11h0a57.78,57.78,0,0,0,12.15,2.2c3.6.16,7.39-.32,9.79-1.77s2.27-3.33.07-4.79c-5.07-3.37-14.78-2-21.4-.92a1.38,1.38,0,0,1-1.33-.36l-1.24.19c-1.2.18-1.93-.74-.73-.91a68.64,68.64,0,0,0,17.64-4.83C390.65,762.25,395.7,759.68,395.86,756.75Z"/><path class="cls-5" d="M385.16,752.39c5.1-.18,10.85,1.51,10.7,4.36s-5.21,5.5-9.32,7.31a68.64,68.64,0,0,1-17.64,4.83c-1.2.17-.47,1.09.73.91l1.24-.19a1.38,1.38,0,0,0,1.33.36c6.62-1.07,16.33-2.45,21.4.92,2.2,1.46,2.3,3.37-.07,4.79s-6.19,1.93-9.79,1.77a57.78,57.78,0,0,1-12.15-2.2h0a1.66,1.66,0,0,0-.62-.11h0c-.76,0-1.43.43-.85.75a.68.68,0,0,0,.32.15l.11,0a22.63,22.63,0,0,1,7.34,4.59c1.71,1.71,3.09,3.83,2.19,5.76s-4.13,3-7.84,2.9a15.31,15.31,0,0,1-9.17-2.94c-2.89-2.26-3.48-5.07-3.93-7.68-.05-.31-.55-.44-1-.41-.46-.24-1.51-.2-1.73.24-1.27,2.53-2.63,5.22-6,7.29a19.45,19.45,0,0,1-12.76,2.38c-4.22-.75-6.94-3-7.26-5.17-.38-2.52,2.13-4.95,5.41-6.77,4-2.22,9.37-3.67,14.53-5.1.46-.12.59-.36.49-.56.25-.3,0-.71-.83-.68a91,91,0,0,1-16.72-.86c-4.63-.68-9.78-1.73-12.65-3.79-2.22-1.61-2.73-4.2.45-5.61,3.76-1.68,9.59-.45,13.43.48a71.16,71.16,0,0,1,14.49,5.1c.65.31,1.53,0,1.66-.29.64-.05,1.19-.44.69-.78a33,33,0,0,1-7-6.36c-1.68-2.06-4.1-4.87-2-7.06a6.53,6.53,0,0,1,4.86-1.65,13.52,13.52,0,0,1,5.85,1.66,16,16,0,0,1,6.24,5.56,8.11,8.11,0,0,1,.81,7.46c-.11.26.18.44.57.51.31.37,1.57.45,1.83,0a20.11,20.11,0,0,1,8-7.47A32.7,32.7,0,0,1,385.16,752.39Z"/><path class="cls-5" d="M257.37,754.65a17.36,17.36,0,0,0-9.77.54,1.39,1.39,0,0,0-.76.2c-.31.22-.6.43-.88.66a6.34,6.34,0,0,0-.56.43.38.38,0,0,0-.1.13c-1.93,1.73-3,3.76-1.37,5.68,1.79,2.12,6.58,3.16,10.93,2.56s7.71-2.65,8.19-5C263.5,757.75,261.26,755.59,257.37,754.65Zm3.75,5.1c-.32,1.81-2.76,3.47-6.2,4.07s-7.65-.11-9.15-1.87-.24-3.7,1.71-5.28a12,12,0,0,1,8-1.34C259.23,755.92,261.45,757.84,261.12,759.75Z"/><path class="cls-6" d="M369.19,766.42c-8.05-4.59-23.22-1.1-22.32,4.93.4,2.69,4.31,5.11,9.53,5.75,5.45.68,11.36-.53,14.19-3S372.91,768.55,369.19,766.42Zm.6,6.25c-1.59,2.22-5.72,3.64-10.39,3.63-4.91,0-9.16-1.78-10.32-4.17-2.32-4.8,9.3-8.86,17.13-5.78C370,767.83,371.42,770.41,369.79,772.67Z"/><path class="cls-6" d="M355.59,769.1a5.6,5.6,0,0,0-2,.18,1.35,1.35,0,0,0-.82.11c-1.34.7-1.27,1.93.55,2.42,1.62.44,3.7.08,4.24-.82S357.25,769.27,355.59,769.1Z"/><path class="cls-6" d="M364.77,772.6a4.75,4.75,0,0,0-2.72-.42,1.75,1.75,0,0,0-1.15,0c-1.33.5-1.68,1.52-.63,2.18a5.23,5.23,0,0,0,4,.28C365.53,774.17,365.8,773.2,364.77,772.6Z"/><path class="cls-6" d="M368,769.73a1.81,1.81,0,0,0-1.08-.35,2.36,2.36,0,0,0-.61,0c-1,.09-1.46.59-1.28,1s1.21.76,2.11.56S368.46,770.16,368,769.73Z"/><path class="cls-6" d="M362.06,767.71a2.28,2.28,0,0,0-1.33-.35c-.59,0-1.2.18-1.35.48h0v0l0,.12,0-.1s0,.1,0,.15a.34.34,0,0,0,.05.19.92.92,0,0,0,.38.3,2.78,2.78,0,0,0,1.15.22,2,2,0,0,0,1.2-.35A.41.41,0,0,0,362.06,767.71Z"/><path class="cls-6" d="M356.39,766.86a2.31,2.31,0,0,0-.72-.12h-.15a1.65,1.65,0,0,0-.67.16c-.16.09-.28.24-.25.36,0,.28.48.47,1,.47h.19a1.56,1.56,0,0,0,.66-.17c.16-.09.27-.24.24-.36A.5.5,0,0,0,356.39,766.86Z"/><path class="cls-6" d="M354.82,774.11Z"/><path class="cls-6" d="M354.82,774.1Z"/><path class="cls-6" d="M356.38,773.78a1.66,1.66,0,0,0-.61-.1,1.54,1.54,0,0,0-.58.1c-.19.08-.37.2-.37.33v.11c0,.22.25.41.67.48a1.68,1.68,0,0,0,1-.14.61.61,0,0,0,.22-.24v-.22C356.75,774,356.55,773.84,356.38,773.78Z"/><path class="cls-6" d="M356.76,774.23h0Z"/><path class="cls-6" d="M360.77,770.13c-1.25,0-1.24,1,0,1S362,770.13,360.77,770.13Z"/><path class="cls-6" d="M337.7,775c-1.26,0-1.25,1,0,1S339,775,337.7,775Z"/><path class="cls-6" d="M338.64,770.42c-1.25,0-1.24,1,0,1S339.9,770.42,338.64,770.42Z"/><path class="cls-6" d="M366,767.18c-1.26,0-1.23,1,0,1S367.23,767.18,366,767.18Z"/><path class="cls-6" d="M361.29,765.65H361a1.63,1.63,0,0,0-.69.14c-.17.08-.31.22-.3.35s.42.5,1,.49h.41a1.3,1.3,0,0,0,.62-.21.34.34,0,0,0,.17-.3C362.16,765.89,361.78,765.66,361.29,765.65Z"/><path class="cls-6" d="M368.14,771.77c-1.26,0-1.23,1,0,1S369.4,771.77,368.14,771.77Z"/><path class="cls-9" d="M385.06,774.29c-1.26,0-1.23,1,0,1S386.31,774.29,385.06,774.29Z"/></g><g class="cls-3"><path class="cls-8" d="M588.94,764.06c2.3.88,4.84,1.63,7.28,2.41,2.68.86,5.39,1.7,8.11,2.53l-1.18.25c-2.71.61-5.37,1.28-8,2a33.34,33.34,0,0,0-7.84,2.89c-2.39,1.46-3.1,3.64-.93,5.19,1.8,1.28,5.11,1.84,8.22,1.64a37.78,37.78,0,0,0,8.64-1.91c1.27-.4,2.5-.83,3.68-1.29-.22.32-.43.63-.63,1a36.82,36.82,0,0,0-2.42,4.59c-.63,1.41-1.32,2.94-.13,4.29,1.36,1.54,4.77,2.4,8.07,1.78a8.66,8.66,0,0,0,5.07-2.76,24.92,24.92,0,0,0,4.69-7.94c.1-.27.19-.53.28-.8.27.3.54.6.82.89,1.11,1.16,2.28,2.31,3.49,3.45.77.73,1.58,1.45,2.37,2.18a12.71,12.71,0,0,0,1.8,1.58,9.73,9.73,0,0,0,8.33.66c3.28-1.33,2.21-3.38,1.25-5a24.94,24.94,0,0,0-5.36-6.35,39.57,39.57,0,0,0-4.31-3.3c2,.26,4.08.53,6.14.74,4.49.47,9.82.63,14.17-.42,2.1-.51,4.06-1.31,5-2.42,1.17-1.36.42-2.9-1.72-3.83s-4.81-1-7.47-.89c-2.47.11-4.94.26-7.41.39-1.78.1-3.55.18-5.33.26.83-.34,1.63-.7,2.41-1.07,3.78-1.8,7.34-4.09,9.41-6.49,1.11-1.29,1.55-2.87.27-4.13-1.75-1.7-5.85-2.19-9.34-1.45a17.41,17.41,0,0,0-6.57,3.24l-4.94,3.36a15.62,15.62,0,0,0-.9-3.67,8.59,8.59,0,0,0-2.47-4c-1.72-1.4-5-2.23-8.27-1.72-3.09.48-5.07,1.93-5.58,3.49s0,3,.21,4.46c.1.66.21,1.32.33,2a43.41,43.41,0,0,0-8.91-2.51,32.6,32.6,0,0,0-8-.59c-3.33.24-5.91,1.51-6.47,3.17S586.37,763.08,588.94,764.06Z"/><path class="cls-6" d="M613.27,773.11a12.26,12.26,0,0,0,8.68.44,1.45,1.45,0,0,0,1.13-.08c3.19-1.73,6-3.93,5.49-6.35-.39-1.87-3.13-3.64-7.06-3.74a12.18,12.18,0,0,0-9.5,3.68C610.3,769.06,610.14,771.53,613.27,773.11Z"/><path class="cls-8" d="M621.62,772.16h.19a1.58,1.58,0,0,0,.68-.15c.17-.09.3-.23.29-.36s-.43-.48-1-.47h-.24a1.69,1.69,0,0,0-.67.17c-.17.09-.29.23-.28.36S621.07,772.17,621.62,772.16Z"/><path class="cls-8" d="M616.44,773h.13c.51,0,1-.29.92-.54s-.48-.46-1-.44h-.08c-.51,0-1,.27-1,.52S615.89,773,616.44,773Z"/><path class="cls-8" d="M624,768.75c1.25,0,1.23-1,0-1S622.76,768.78,624,768.75Z"/><path class="cls-8" d="M622,765.46l.07,0a1.74,1.74,0,0,0,1.38-.06c.35-.22.32-.51-.07-.69l0,0a1.74,1.74,0,0,0-1.38,0C621.62,765,621.62,765.27,622,765.46Z"/><path class="cls-8" d="M622,765.46Z"/><path class="cls-8" d="M617.74,769.52l.13.12a1.13,1.13,0,0,0,.61.21,1.77,1.77,0,0,0,.73-.06c.46-.17.59-.45.34-.69l-.1-.09a1.13,1.13,0,0,0-.6-.22,1.77,1.77,0,0,0-.73.06C617.66,769,617.49,769.29,617.74,769.52Z"/><path class="cls-8" d="M617.45,766c1.25,0,1.22-1,0-1S616.19,766,617.45,766Z"/><path class="cls-8" d="M613.63,768.62c1.26,0,1.17-1-.09-1S612.38,768.65,613.63,768.62Z"/><path class="cls-8" d="M613.07,770.88c1.25,0,1.32-1,.06-1S611.81,770.91,613.07,770.88Z"/><path class="cls-8" d="M623.92,770.94c1.26,0,1.32-1,.06-1S622.66,771,623.92,770.94Z"/><path class="cls-8" d="M625.07,766.86c1.25,0,1.21-1-.05-1S623.81,766.89,625.07,766.86Z"/><path class="cls-8" d="M620.11,767.8c1.26,0,1.19-1-.07-1S618.85,767.83,620.11,767.8Z"/><path class="cls-6" d="M613.4,814.88c-.53-.92.34-1.89,1.72-2.54a27.51,27.51,0,0,1,5.71-1.52q3.46-.69,7-1.2c2.79-.4,5.63-.71,8.49-.94a90.23,90.23,0,0,1-11-2.76c-2.1-.67-4.14-1.41-6-2.22-1.72-.73-3.32-1.6-3.64-2.78-.29-1,.6-2,2.34-2.6a17.57,17.57,0,0,1,7-.48c8.26.72,15.56,3.31,19.9,6.86a16.62,16.62,0,0,1,.59-8,17,17,0,0,1,1.75-3.8,6.76,6.76,0,0,1,3.1-2.75c3.15-1.42,7.54-1.12,9.33.77a4.29,4.29,0,0,1,1,3.31A13.14,13.14,0,0,1,660,798a17,17,0,0,1-2.26,4.51,25,25,0,0,1,4.83-1.3,25.33,25.33,0,0,1,9.39,0c3,.66,4.57,2.21,3.35,3.85s-4.72,2.85-7.69,3.76a58.39,58.39,0,0,1-7.61,1.73l6.65.54c3.28.27,6.63.47,9.83.89,4.51.59,9.22,1.94,10.39,4.38,1,2.18-1.48,4.58-6.1,5-5.62.47-10.24-1.76-14.3-3.29l-8.53-3.19a28.24,28.24,0,0,1,5.83,5.91,19.39,19.39,0,0,1,2.46,4.54,9,9,0,0,1,.82,4.79c-.28,1.29-1.73,2.68-4.44,3a7.39,7.39,0,0,1-5.61-1.52,13.88,13.88,0,0,1-3-4.18,25.52,25.52,0,0,1-2.18-5,22.8,22.8,0,0,1-1-6.56,32.11,32.11,0,0,1-7,8.49c-3.12,2.74-8.12,6-15.14,5.23-6.57-.71-6.77-4.6-4.84-7.27,2.06-2.86,5.83-5.37,10.57-7.24-1.21.2-2.42.38-3.64.55q-3.53.5-7.13.83a29.27,29.27,0,0,1-6.61.15C615.36,816.3,613.88,815.7,613.4,814.88Zm3.23-1.92c-1.62.69-2,1.76-.15,2.37a15.08,15.08,0,0,0,5.63.19,151.84,151.84,0,0,0,23.47-3.89c.6-.14,1,0,1.18.28,1.41-.18,2.84-.31,4.28-.38a2.2,2.2,0,0,1,.37,0,1.78,1.78,0,0,1,1.55,0,.5.5,0,0,1,.42.3l.42.25,13.63,5.11c2,.76,4,1.57,6.17,2.25a17.73,17.73,0,0,0,6.85,1c4.84-.39,5.77-3.27,3.36-5-2.71-1.94-7.67-2.48-12.1-2.84-5.36-.45-10.74-.85-16.09-1.31-1.07-.1-1.09-.88-.21-1a1.26,1.26,0,0,1,.48-.13,57.35,57.35,0,0,0,11.31-2.28c2.81-.88,8.31-2.76,6.17-4.74-1.67-1.55-6.46-1.5-9.44-1.09a18.64,18.64,0,0,0-8.13,2.9c-.07.09-.15.17-.23.26a1,1,0,0,1-.6.26c-.75.17-1.76-.27-1.2-.72a3.44,3.44,0,0,1,.36-.28,17.7,17.7,0,0,0,4-6.65,13.37,13.37,0,0,0,.55-3.1,4.07,4.07,0,0,0-.73-3.25,4.9,4.9,0,0,0-4.23-1.18,6.24,6.24,0,0,0-4,2,13.4,13.4,0,0,0-2.8,6.33,14.88,14.88,0,0,0,0,6.64c.08.35-.5.58-1,.6a1.44,1.44,0,0,1-1.81.17,24.08,24.08,0,0,0-8.58-4.89,45.39,45.39,0,0,0-10.3-2.24c-2.11-.22-4.77-.39-6.57.43s-.94,2.14.44,2.92a34.56,34.56,0,0,0,5,2.08c1.8.64,3.68,1.22,5.62,1.76a97.72,97.72,0,0,0,11.23,2.34l.89,0c1,0,1.15.73.38.93a1.68,1.68,0,0,1-1.08.17l-.48-.07c-4.46.23-8.88.65-13.21,1.31-1.9.28-3.77.61-5.63,1A28.84,28.84,0,0,0,616.63,813Zm8.86,9.75c-.87,1.3-1.36,2.83-.37,4.12s3.85,2,6.72,1.74c6.37-.51,9.95-4.27,12.47-6.88a27.33,27.33,0,0,0,6-9.13,49.83,49.83,0,0,0-15,3.3C630.87,817.63,627.27,820,625.49,822.71Zm27.39-9.64a21.73,21.73,0,0,0,.87,9.25,26,26,0,0,0,1.9,4.45,15.23,15.23,0,0,0,2.73,4,4.78,4.78,0,0,0,5.42.87c2-1.09,1.38-2.91,1.08-4.22C663.66,822.13,659.44,817.15,652.88,813.07Z"/><path class="cls-6" d="M616.48,815.33c-1.84-.61-1.47-1.68.15-2.37a28.84,28.84,0,0,1,5.16-1.28c1.86-.37,3.73-.7,5.63-1,4.33-.66,8.75-1.08,13.21-1.31l.48.07a1.68,1.68,0,0,0,1.08-.17c.77-.2.61-1-.38-.93l-.89,0a97.72,97.72,0,0,1-11.23-2.34c-1.94-.54-3.82-1.12-5.62-1.76a34.56,34.56,0,0,1-5-2.08c-1.38-.78-2.33-2.07-.44-2.92s4.46-.65,6.57-.43a45.39,45.39,0,0,1,10.3,2.24,24.08,24.08,0,0,1,8.58,4.89,1.44,1.44,0,0,0,1.81-.17c.55,0,1.13-.25,1-.6a14.88,14.88,0,0,1,0-6.64,13.4,13.4,0,0,1,2.8-6.33,6.24,6.24,0,0,1,4-2,4.9,4.9,0,0,1,4.23,1.18,4.07,4.07,0,0,1,.73,3.25,13.37,13.37,0,0,1-.55,3.1,17.7,17.7,0,0,1-4,6.65,3.44,3.44,0,0,0-.36.28c-.56.45.45.89,1.2.72a1,1,0,0,0,.6-.26c.08-.09.16-.17.23-.26a18.64,18.64,0,0,1,8.13-2.9c3-.41,7.77-.46,9.44,1.09,2.14,2-3.36,3.86-6.17,4.74a57.35,57.35,0,0,1-11.31,2.28,1.26,1.26,0,0,0-.48.13c-.88.1-.86.88.21,1,5.35.46,10.73.86,16.09,1.31,4.43.36,9.39.9,12.1,2.84,2.41,1.73,1.48,4.61-3.36,5a17.73,17.73,0,0,1-6.85-1c-2.14-.68-4.13-1.49-6.17-2.25l-13.63-5.11-.42-.25a.5.5,0,0,0-.42-.3,1.78,1.78,0,0,0-1.55,0,2.2,2.2,0,0,0-.37,0c-1.44.07-2.87.2-4.28.38-.14-.25-.58-.42-1.18-.28a151.84,151.84,0,0,1-23.47,3.89A15.08,15.08,0,0,1,616.48,815.33Z"/><path class="cls-6" d="M625.12,826.83c-1-1.29-.5-2.82.37-4.12,1.78-2.68,5.38-5.08,9.77-6.85a49.83,49.83,0,0,1,15-3.3,27.33,27.33,0,0,1-6,9.13c-2.52,2.61-6.1,6.37-12.47,6.88C629,828.8,626.19,828.22,625.12,826.83Z"/><path class="cls-6" d="M653.75,822.32a21.73,21.73,0,0,1-.87-9.25c6.56,4.08,10.78,9.06,12,14.37.3,1.31,1,3.13-1.08,4.22a4.78,4.78,0,0,1-5.42-.87,15.23,15.23,0,0,1-2.73-4A26,26,0,0,1,653.75,822.32Z"/><path class="cls-5" d="M515,821.79c-5.92-.35-10.65-2.8-9.59-5.94s6.32-6,11.05-8a67.47,67.47,0,0,1,8.31-2.92,45,45,0,0,1-9.16.41c-4-.27-7.65-1.37-9.36-3.23s-.87-3.69,1.68-5.17c5-2.89,12.34-2.43,18.73-1.28a17.47,17.47,0,0,1-4.95-4.06c-1.6-2-2.49-4.46-.26-6.5,2-1.83,6.35-2.67,10.25-2.43a16.69,16.69,0,0,1,9.8,3.55,11,11,0,0,1,3.51,6.15,15,15,0,0,1,7.43-7.49,23.15,23.15,0,0,1,14.1-1.72c4.36,1,7.2,3.33,7.49,5.73.7,5.77-9.29,9.63-18.26,12.43a91.73,91.73,0,0,1,18.13,1.19c4.65.8,9.53,2.18,11.41,4.59,1.54,2,.81,4.59-2.85,5.94-4.63,1.72-10.85.6-15.37-.41a76.73,76.73,0,0,1-12.21-3.77,31.5,31.5,0,0,1,7,6.91c1.6,2.24,2.95,5-.47,7.09s-8.85,1.3-12.17-.27c-5.88-2.77-8.87-7-8.81-11.12a26.77,26.77,0,0,1-8.58,6.46A34,34,0,0,1,515,821.79Zm-7.8-5.08c-.08,2.85,5.71,4.4,10.8,4.09a32.67,32.67,0,0,0,14.63-4.74,20.16,20.16,0,0,0,7.85-7.67c.25-.5,1.51-.44,1.83-.08.39.06.68.23.58.49a8.11,8.11,0,0,0,1,7.44,16,16,0,0,0,6.37,5.4,13.38,13.38,0,0,0,5.89,1.52,6.49,6.49,0,0,0,4.82-1.77c2-2.24-.5-5-2.22-7a33.33,33.33,0,0,0-7.18-6.18c-.5-.33,0-.73.68-.8.12-.34,1-.62,1.65-.32a71.56,71.56,0,0,0,14.61,4.73c3.87.84,9.72,1.92,13.45.15,3.13-1.49,2.57-4.07.3-5.62-2.92-2-8.09-2.91-12.73-3.48a92.33,92.33,0,0,0-16.74-.45c-.82.05-1.09-.34-.85-.65-.1-.2,0-.44.48-.58,5.12-1.55,10.44-3.13,14.4-5.45,3.23-1.9,5.68-4.39,5.24-6.9-.38-2.19-3.15-4.34-7.39-5a19.49,19.49,0,0,0-12.7,2.69c-3.28,2.16-4.57,4.87-5.78,7.44-.21.44-1.26.51-1.73.28-.48,0-1-.07-1-.38-.51-2.6-1.17-5.4-4.11-7.58a15.33,15.33,0,0,0-9.24-2.72c-3.72,0-7,1.21-7.77,3.09s.58,4,2.33,5.71a22.7,22.7,0,0,0,7.45,4.4l.11,0a.8.8,0,0,1,.32.14c.59.31-.06.75-.83.78h0a1.91,1.91,0,0,1-.62-.1h0a58.73,58.73,0,0,0-12.19-1.9c-3.62-.07-7.39.51-9.76,2s-2.17,3.39.05,4.79c5.15,3.24,14.83,1.63,21.42.39a1.38,1.38,0,0,1,1.34.33l1.24-.22c1.2-.21,2,.69.75.89a68.6,68.6,0,0,0-17.52,5.27C512.29,811.08,507.3,813.77,507.22,816.71Z"/><path class="cls-5" d="M518,820.8c-5.09.31-10.88-1.24-10.8-4.09s5.07-5.63,9.13-7.54a68.6,68.6,0,0,1,17.52-5.27c1.2-.2.45-1.1-.75-.89l-1.24.22a1.38,1.38,0,0,0-1.34-.33c-6.59,1.24-16.27,2.85-21.42-.39-2.22-1.4-2.38-3.31-.05-4.79s6.14-2.08,9.76-2a58.73,58.73,0,0,1,12.19,1.9h0a1.91,1.91,0,0,0,.62.1h0c.77,0,1.42-.47.83-.78a.8.8,0,0,0-.32-.14l-.11,0a22.7,22.7,0,0,1-7.45-4.4c-1.75-1.67-3.18-3.76-2.33-5.71s4-3,7.77-3.09a15.33,15.33,0,0,1,9.24,2.72c2.94,2.18,3.6,5,4.11,7.58.06.31.56.42,1,.38.47.23,1.52.16,1.73-.28,1.21-2.57,2.5-5.28,5.78-7.44a19.49,19.49,0,0,1,12.7-2.69c4.24.65,7,2.8,7.39,5,.44,2.51-2,5-5.24,6.9-4,2.32-9.28,3.9-14.4,5.45-.46.14-.58.38-.48.58-.24.31,0,.7.85.65a92.33,92.33,0,0,1,16.74.45c4.64.57,9.81,1.49,12.73,3.48,2.27,1.55,2.83,4.13-.3,5.62-3.73,1.77-9.58.69-13.45-.15a71.56,71.56,0,0,1-14.61-4.73c-.65-.3-1.53,0-1.65.32-.64.07-1.18.47-.68.8a33.33,33.33,0,0,1,7.18,6.18c1.72,2,4.22,4.77,2.22,7a6.49,6.49,0,0,1-4.82,1.77,13.38,13.38,0,0,1-5.89-1.52,16,16,0,0,1-6.37-5.4,8.11,8.11,0,0,1-1-7.44c.1-.26-.19-.43-.58-.49-.32-.36-1.58-.42-1.83.08a20.16,20.16,0,0,1-7.85,7.67A32.67,32.67,0,0,1,518,820.8Z"/><path class="cls-5" d="M645.71,815.39a17.34,17.34,0,0,0,9.76-.78,1.41,1.41,0,0,0,.76-.22l.86-.68a4.89,4.89,0,0,0,.55-.45.53.53,0,0,0,.1-.12c1.88-1.79,2.88-3.84,1.22-5.72-1.84-2.07-6.65-3-11-2.29s-7.64,2.84-8.06,5.16C639.51,812.44,641.81,814.54,645.71,815.39Zm-3.87-5c.28-1.82,2.68-3.53,6.1-4.22s7.65-.08,9.19,1.64.34,3.7-1.58,5.33c-1.77,1.28-5,1.94-8,1.54C643.83,814.17,641.56,812.31,641.84,810.38Z"/><path class="cls-6" d="M533.64,806.38c8.16,4.39,23.24.52,22.19-5.48-.46-2.67-4.44-5-9.67-5.51-5.46-.54-11.34.81-14.11,3.33S529.86,804.34,533.64,806.38Zm-.76-6.23c1.54-2.26,5.63-3.79,10.3-3.89,4.91-.11,9.2,1.55,10.42,3.92,2.44,4.73-9.07,9.08-17,6.2C532.81,805,531.31,802.45,532.88,800.15Z"/><path class="cls-6" d="M547.17,803.36a5.39,5.39,0,0,0,2-.23A1.32,1.32,0,0,0,550,803c1.33-.74,1.22-2-.61-2.41-1.63-.4-3.7,0-4.22.93S545.5,803.24,547.17,803.36Z"/><path class="cls-6" d="M537.9,800.09a4.84,4.84,0,0,0,2.74.36,1.83,1.83,0,0,0,1.15,0c1.31-.54,1.64-1.56.57-2.2a5.24,5.24,0,0,0-4-.18C537.11,798.54,536.86,799.52,537.9,800.09Z"/><path class="cls-6" d="M534.77,803a1.74,1.74,0,0,0,1.09.32,2,2,0,0,0,.61,0c1-.11,1.45-.63,1.26-1.08s-1.23-.73-2.13-.51S534.28,802.62,534.77,803Z"/><path class="cls-6" d="M540.74,804.92a2.38,2.38,0,0,0,1.34.31c.58,0,1.18-.21,1.33-.51h0v0l0-.13,0,.11s0-.1,0-.15a.35.35,0,0,0-.06-.19A.87.87,0,0,0,543,804a2.62,2.62,0,0,0-1.16-.19,1.89,1.89,0,0,0-1.18.38A.41.41,0,0,0,540.74,804.92Z"/><path class="cls-6" d="M546.43,805.62a1.8,1.8,0,0,0,.72.1h.15a1.56,1.56,0,0,0,.66-.18c.16-.09.27-.24.25-.36-.07-.28-.5-.46-1.05-.44H547a1.56,1.56,0,0,0-.66.19c-.15.09-.26.24-.22.37A.49.49,0,0,0,546.43,805.62Z"/><path class="cls-6" d="M547.82,798.33h0v0Z"/><path class="cls-6" d="M547.81,798.35Z"/><path class="cls-6" d="M546.26,798.71a1.73,1.73,0,0,0,.61.08,1.66,1.66,0,0,0,.58-.11c.19-.09.36-.21.37-.35h0a.28.28,0,0,0,0-.09c0-.22-.26-.4-.68-.46a1.71,1.71,0,0,0-1,.16.51.51,0,0,0-.22.25v.09a.38.38,0,0,1,0,.13C545.89,798.51,546.09,798.65,546.26,798.71Z"/><path class="cls-6" d="M545.87,798.27h0Z"/><path class="cls-6" d="M542,802.46c1.26,0,1.22-1,0-1S540.7,802.49,542,802.46Z"/><path class="cls-6" d="M564.91,797c1.25,0,1.22-1,0-1S563.65,797.05,564.91,797Z"/><path class="cls-6" d="M564.08,801.63c1.25,0,1.22-1,0-1S562.82,801.66,564.08,801.63Z"/><path class="cls-6" d="M536.84,805.54c1.26,0,1.2-1-.06-1S535.58,805.57,536.84,805.54Z"/><path class="cls-6" d="M541.56,807h.28a1.79,1.79,0,0,0,.68-.15c.17-.09.3-.24.29-.36s-.43-.49-1-.48l-.4,0a1.3,1.3,0,0,0-.63.22.38.38,0,0,0-.16.31C540.68,806.74,541.07,807,541.56,807Z"/><path class="cls-6" d="M534.56,801c1.25,0,1.2-1-.06-1S533.3,801,534.56,801Z"/><path class="cls-9" d="M517.58,798.91c1.26,0,1.2-1-.06-1S516.33,798.94,517.58,798.91Z"/></g><g class="cls-10"><path class="cls-11" d="M767.2,630.17c-2.88-1.27-7.16-1.21-10.85-.75a45.08,45.08,0,0,0-4.46.75,11.67,11.67,0,0,0,2.15-5.1,3.87,3.87,0,0,0-2.41-4.43c-3-1.4-8.07-.78-10.84.74s-3.55,3.46-4.52,5.49c-1.52-3.29-5.71-6.22-11.35-7.94-2.41-.74-5.6-1.23-7.9-.4a3.1,3.1,0,0,0-2.27,3.66c.61,3.78,4.28,7.41,10,9.83a62.74,62.74,0,0,0-15.59-.83c-3.05.23-6.31.78-7.91,2.14s-1,3.24,1,4.46,5.06,1.87,8.13,2.08a71.27,71.27,0,0,0,9.24-.19,26.3,26.3,0,0,0-4.88,4.57c-1.1,1.59-1.46,3.38-.36,5s3.89,2.93,7.15,3.07a15.19,15.19,0,0,0,9.39-2.86c2.2-1.61,3.65-3.48,6.09-5,1,2.73,3.82,4.87,8.38,6.35a19.88,19.88,0,0,0,8.4,1c4.21-.55,6.81-3,6.23-5.24s-3.74-4.1-7.56-5.16c3-.68,9-1.49,11.66-2.51s4.79-2.41,5.59-4S769.69,631.27,767.2,630.17Z"/><path class="cls-12" d="M730.45,636.44c-2.87,0-2.85,2.3,0,2.3S733.32,636.44,730.45,636.44Z"/><path class="cls-12" d="M734.17,631.56c-2.85,0-2.84,2.29,0,2.29S737,631.56,734.17,631.56Z"/><path class="cls-12" d="M737.9,636.37c-2.66,0-2.65,2.14,0,2.14S740.57,636.37,737.9,636.37Z"/><path class="cls-12" d="M741.34,633.78c-2.49,0-2.48,2,0,2S743.83,633.78,741.34,633.78Z"/></g><g class="cls-10"><path class="cls-11" d="M912,689.34c-2.89-1.27-7.16-1.21-10.85-.76-1.52.19-3,.44-4.46.75a11.58,11.58,0,0,0,2.15-5.09,3.89,3.89,0,0,0-2.41-4.44c-3-1.39-8.08-.77-10.85.74s-3.54,3.47-4.51,5.49c-1.52-3.29-5.71-6.22-11.35-7.94-2.41-.74-5.61-1.23-7.9-.4a3.11,3.11,0,0,0-2.27,3.67c.61,3.78,4.28,7.4,9.94,9.82a63.69,63.69,0,0,0-15.59-.83c-3,.23-6.3.79-7.9,2.14s-1,3.24,1,4.47a18.8,18.8,0,0,0,8.13,2.07,73.12,73.12,0,0,0,9.24-.18,25.93,25.93,0,0,0-4.88,4.56c-1.1,1.6-1.46,3.38-.36,5s3.89,2.93,7.15,3.07a15.19,15.19,0,0,0,9.39-2.86c2.2-1.6,3.64-3.47,6.09-5,1.05,2.73,3.81,4.88,8.38,6.35a19.86,19.86,0,0,0,8.4,1c4.21-.55,6.81-3,6.23-5.23s-3.74-4.11-7.56-5.17c3-.68,9-1.49,11.66-2.51s4.79-2.4,5.59-4S914.5,690.43,912,689.34Z"/><path class="cls-12" d="M875.26,695.6c-2.87,0-2.85,2.31,0,2.31S878.13,695.6,875.26,695.6Z"/><path class="cls-12" d="M879,690.72c-2.85,0-2.84,2.3,0,2.3S881.85,690.72,879,690.72Z"/><path class="cls-12" d="M882.71,695.54c-2.67,0-2.65,2.14,0,2.14S885.38,695.54,882.71,695.54Z"/><path class="cls-12" d="M886.14,692.94c-2.48,0-2.47,2,0,2S888.64,692.94,886.14,692.94Z"/></g><g class="cls-10"><path class="cls-11" d="M219.56,645.33c-2.88-1.27-7.16-1.2-10.85-.75-1.52.19-3,.43-4.46.75a11.47,11.47,0,0,0,2.15-5.09A3.88,3.88,0,0,0,204,635.8c-3-1.39-8.07-.78-10.84.74S189.6,640,188.64,642c-1.53-3.29-5.72-6.22-11.35-7.94-2.42-.74-5.61-1.23-7.91-.4a3.08,3.08,0,0,0-2.26,3.66c.61,3.79,4.28,7.41,9.94,9.83a63.71,63.71,0,0,0-15.59-.83c-3,.23-6.31.78-7.9,2.14s-1,3.24,1,4.46a18.7,18.7,0,0,0,8.13,2.08,73.24,73.24,0,0,0,9.25-.18,25.7,25.7,0,0,0-4.89,4.56c-1.09,1.6-1.46,3.38-.35,5s3.88,2.93,7.14,3.07a15.25,15.25,0,0,0,9.4-2.86c2.19-1.6,3.64-3.47,6.08-5,1.05,2.73,3.82,4.87,8.38,6.35a19.91,19.91,0,0,0,8.41,1c4.2-.55,6.8-3,6.23-5.24s-3.75-4.1-7.56-5.16c3-.68,9.05-1.49,11.65-2.51s4.8-2.41,5.6-4S222.05,646.43,219.56,645.33Z"/><path class="cls-12" d="M182.81,651.6c-2.86,0-2.85,2.3,0,2.3S185.69,651.6,182.81,651.6Z"/><path class="cls-12" d="M186.53,646.72c-2.85,0-2.83,2.29,0,2.29S189.4,646.72,186.53,646.72Z"/><path class="cls-12" d="M190.26,651.53c-2.66,0-2.65,2.14,0,2.14S192.93,651.53,190.26,651.53Z"/><path class="cls-12" d="M193.7,648.94c-2.49,0-2.47,2,0,2S196.19,648.94,193.7,648.94Z"/></g><g class="cls-10"><path class="cls-11" d="M276.36,700.87c-2.89-1.27-7.17-1.21-10.86-.76-1.51.19-3,.44-4.46.76a11.55,11.55,0,0,0,2.15-5.1,3.88,3.88,0,0,0-2.41-4.44c-3-1.39-8.07-.77-10.84.75s-3.55,3.46-4.51,5.48c-1.52-3.28-5.72-6.22-11.35-7.94-2.41-.73-5.61-1.23-7.91-.4a3.09,3.09,0,0,0-2.26,3.67c.61,3.78,4.28,7.41,9.94,9.82a63.69,63.69,0,0,0-15.59-.83c-3,.23-6.3.79-7.9,2.15s-1,3.23,1,4.46a18.84,18.84,0,0,0,8.13,2.07,71.42,71.42,0,0,0,9.25-.18,25.06,25.06,0,0,0-4.88,4.57c-1.1,1.59-1.47,3.37-.36,5s3.88,2.93,7.14,3.06a15.29,15.29,0,0,0,9.4-2.85c2.19-1.61,3.64-3.48,6.08-5,1.05,2.73,3.82,4.88,8.39,6.35a19.86,19.86,0,0,0,8.4,1c4.2-.54,6.8-3,6.23-5.23s-3.75-4.1-7.56-5.17c3-.68,9-1.49,11.65-2.51s4.8-2.4,5.6-4S278.84,702,276.36,700.87Z"/><path class="cls-12" d="M239.6,707.13c-2.86,0-2.85,2.31,0,2.31S242.48,707.13,239.6,707.13Z"/><path class="cls-12" d="M243.33,702.25c-2.86,0-2.84,2.3,0,2.3S246.19,702.25,243.33,702.25Z"/><path class="cls-12" d="M247.05,707.07c-2.66,0-2.64,2.14,0,2.14S249.72,707.07,247.05,707.07Z"/><path class="cls-12" d="M250.49,704.47c-2.49,0-2.47,2,0,2S253,704.47,250.49,704.47Z"/></g><g class="cls-10"><path class="cls-11" d="M149.87,702.11c-2.89-1.27-7.16-1.21-10.85-.76-1.52.19-3,.44-4.46.76a11.53,11.53,0,0,0,2.14-5.1,3.87,3.87,0,0,0-2.4-4.44c-3-1.39-8.08-.77-10.85.75s-3.54,3.46-4.51,5.49c-1.52-3.29-5.71-6.23-11.35-7.95-2.41-.73-5.61-1.23-7.9-.4a3.11,3.11,0,0,0-2.27,3.67c.61,3.78,4.28,7.41,9.94,9.82a63.2,63.2,0,0,0-15.59-.82c-3,.23-6.3.78-7.9,2.14s-1,3.23,1,4.46S90,711.6,93,711.8a71.42,71.42,0,0,0,9.25-.18,25.35,25.35,0,0,0-4.88,4.57c-1.1,1.59-1.46,3.38-.36,5s3.89,2.93,7.15,3.07a15.26,15.26,0,0,0,9.39-2.86c2.2-1.61,3.64-3.48,6.09-5,1,2.73,3.81,4.88,8.38,6.36a19.86,19.86,0,0,0,8.4,1c4.21-.54,6.81-3,6.23-5.23s-3.74-4.1-7.56-5.17c3-.68,9-1.48,11.65-2.51s4.8-2.4,5.6-4S152.36,703.2,149.87,702.11Z"/><path class="cls-12" d="M113.12,708.38c-2.87,0-2.85,2.3,0,2.3S116,708.38,113.12,708.38Z"/><path class="cls-12" d="M116.84,703.49c-2.86,0-2.84,2.3,0,2.3S119.71,703.49,116.84,703.49Z"/><path class="cls-12" d="M120.56,708.31c-2.66,0-2.64,2.14,0,2.14S123.24,708.31,120.56,708.31Z"/><path class="cls-12" d="M124,705.71c-2.48,0-2.47,2,0,2S126.5,705.71,124,705.71Z"/></g><g class="cls-10"><path class="cls-11" d="M218,728.59c-2.64-1.16-6.54-1.1-9.91-.69-1.39.17-2.76.4-4.08.69a10.46,10.46,0,0,0,2-4.66,3.53,3.53,0,0,0-2.2-4c-2.75-1.27-7.37-.71-9.9.68s-3.24,3.16-4.13,5c-1.39-3-5.22-5.69-10.37-7.26-2.2-.67-5.12-1.13-7.22-.37a2.84,2.84,0,0,0-2.07,3.35c.56,3.46,3.91,6.77,9.09,9a57.77,57.77,0,0,0-14.25-.76c-2.78.21-5.76.72-7.22,2s-.87,3,.94,4.08a17.2,17.2,0,0,0,7.43,1.89,64.47,64.47,0,0,0,8.45-.17,23.75,23.75,0,0,0-4.47,4.17c-1,1.46-1.33,3.09-.32,4.55s3.55,2.67,6.52,2.8a13.9,13.9,0,0,0,8.59-2.61c2-1.47,3.33-3.18,5.56-4.56,1,2.5,3.49,4.46,7.66,5.81a18.09,18.09,0,0,0,7.67.87c3.85-.5,6.22-2.75,5.7-4.78s-3.43-3.75-6.91-4.72c2.73-.62,8.27-1.36,10.64-2.29s4.39-2.2,5.12-3.69S220.25,729.59,218,728.59Z"/><path class="cls-12" d="M184.4,734.32c-2.62,0-2.6,2.1,0,2.1S187,734.32,184.4,734.32Z"/><path class="cls-12" d="M187.8,729.86c-2.6,0-2.59,2.09,0,2.09S190.42,729.86,187.8,729.86Z"/><path class="cls-12" d="M191.21,734.26c-2.43,0-2.42,2,0,2S193.65,734.26,191.21,734.26Z"/><path class="cls-12" d="M194.35,731.89c-2.27,0-2.26,1.82,0,1.82S196.63,731.89,194.35,731.89Z"/></g><g class="cls-10"><path class="cls-11" d="M756.14,716c-2.89-1.27-7.17-1.21-10.85-.76-1.52.19-3,.44-4.46.76a11.65,11.65,0,0,0,2.14-5.1,3.88,3.88,0,0,0-2.41-4.44c-3-1.39-8.07-.77-10.84.75s-3.55,3.46-4.51,5.49c-1.52-3.29-5.72-6.23-11.35-8-2.41-.73-5.61-1.23-7.9-.4a3.09,3.09,0,0,0-2.27,3.67c.61,3.78,4.28,7.41,9.94,9.82a63.2,63.2,0,0,0-15.59-.82c-3,.23-6.3.78-7.9,2.14s-1,3.23,1,4.46,5.06,1.87,8.13,2.07a71.42,71.42,0,0,0,9.25-.18,25.06,25.06,0,0,0-4.88,4.57c-1.1,1.59-1.47,3.38-.36,5s3.88,2.93,7.14,3.07a15.29,15.29,0,0,0,9.4-2.86c2.2-1.61,3.64-3.48,6.08-5,1.05,2.73,3.82,4.88,8.39,6.36a19.7,19.7,0,0,0,8.4,1c4.21-.54,6.8-3,6.23-5.23s-3.74-4.1-7.56-5.17c3-.68,9-1.48,11.65-2.5s4.8-2.41,5.6-4.05S758.62,717.13,756.14,716Z"/><path class="cls-12" d="M719.38,722.3c-2.86,0-2.84,2.3,0,2.3S722.26,722.3,719.38,722.3Z"/><path class="cls-12" d="M723.11,717.41c-2.86,0-2.84,2.3,0,2.3S726,717.41,723.11,717.41Z"/><path class="cls-12" d="M726.83,722.23c-2.66,0-2.64,2.14,0,2.14S729.5,722.23,726.83,722.23Z"/><path class="cls-12" d="M730.27,719.63c-2.49,0-2.47,2,0,2S732.77,719.63,730.27,719.63Z"/></g><path class="cls-13" d="M642.83,17.78,618.08,345.89s-7.36,34.88,114.53,7.37L730.44,17.78Z"/><path class="cls-13" d="M116.24,17.78l-34.19.88L55.27,549.09S50.45,603.5,192.81,562L183.27,17.78Z"/><path class="cls-14" d="M458.85,346.82S116.35,466.34,114,476.87c-.35,1.5,6.25.78,21.78-2.83,124.24-28.88-50.16,60.8-57.64,64.78C70.2,543-39,624.7,301,542.55S786.75,336.25,714.59,348.7C625.89,364,556,359.14,713,285.19,756.71,264.57,671.81,248.09,458.85,346.82Z"/><path class="cls-15" d="M659.87,627.6s25,23.84,57.29,21.2,38,.94,36.9,12.66-49.45,11.4-49.45,11.4S656.4,664.6,656,661,659.87,627.6,659.87,627.6Z"/><path class="cls-15" d="M636,613.28s25.63,23.15,57.79,19.65,38-.09,37.21,11.65-49.15,12.74-49.15,12.74-48.4-7-48.89-10.56S636,613.28,636,613.28Z"/><path class="cls-16" d="M605.39,598.74s31,23.68,63.22,21,38,.94,36.91,12.66-49.46,11.4-49.46,11.4-48.21-8.26-48.61-11.87S605.39,598.74,605.39,598.74Z"/><path class="cls-16" d="M584.56,588.13s25.05,23.84,57.29,21.2,38,.94,36.9,12.66-49.45,11.4-49.45,11.4-48.21-8.26-48.62-11.87S584.56,588.13,584.56,588.13Z"/><path class="cls-15" d="M605.4,599.11s31,23.67,63.22,21,38,.94,36.91,12.66-49.46,11.4-49.46,11.4-48.21-8.26-48.61-11.87S605.4,599.11,605.4,599.11Z"/><path class="cls-15" d="M584.57,588.5s25,23.83,57.29,21.2,38,.94,36.9,12.66-49.45,11.4-49.45,11.4-48.21-8.26-48.62-11.87S584.57,588.5,584.57,588.5Z"/><path class="cls-17" d="M526.88,80.17s-40.52,363.28-21,422.39S694.17,649.32,694.17,649.32s38.7,20.71,43.94,18.37S780.42,664,761,693.21,551.7,674.7,550.55,671.42s-137.86-83.66-139.06-89.15-20-488.54-20-488.54S504,55.25,526.88,80.17Z"/><path class="cls-18" d="M473.52,73.57s-39.93,330.32-36.39,392.7C441,535,503.74,591.05,585.51,637.19c32.32,18.25,95.9,51.09,132.57,49,4.75-.27,34.74-2.79,34.89-4,6.32-2,16.65.84,6,14-46.6,23.82-224.63-22.22-222.46-24.61s-130-74.31-131.19-79.8-20-488.55-20-488.55S450.67,48.65,473.52,73.57Z"/><path class="cls-19" d="M748.78,660.28c-1.61.11-3.63.27-5.38.41a4,4,0,0,1-4.1-3.13,9.47,9.47,0,0,0-3.86-5,.72.72,0,0,1,.35-1.29l9.33-.59a3.34,3.34,0,0,1,1.8.41,8.37,8.37,0,0,1,4.51,5.54A3,3,0,0,1,748.78,660.28Z"/><path class="cls-19" d="M756.34,682.06c-2.57.17-5.78.41-8.57.63a6.35,6.35,0,0,1-6.53-4.75c-.83-2.85-2.94-5.35-6.14-7.56a1.09,1.09,0,0,1,.56-2l14.87-.91a5.57,5.57,0,0,1,2.86.62c4.14,2.16,6.35,5,7.18,8.42A4.56,4.56,0,0,1,756.34,682.06Z"/><path class="cls-19" d="M727.49,643.22c-1.61.11-3.63.27-5.38.41a4,4,0,0,1-4.1-3.13,9.47,9.47,0,0,0-3.86-5,.72.72,0,0,1,.35-1.29l9.33-.59a3.34,3.34,0,0,1,1.8.41,8.37,8.37,0,0,1,4.51,5.54A3,3,0,0,1,727.49,643.22Z"/><path class="cls-19" d="M701.17,629.57c-1.62.1-3.63.26-5.39.4a4,4,0,0,1-4.1-3.13,9.49,9.49,0,0,0-3.86-5,.72.72,0,0,1,.35-1.3l9.33-.59a3.32,3.32,0,0,1,1.8.41,8.38,8.38,0,0,1,4.51,5.55A3,3,0,0,1,701.17,629.57Z"/><path class="cls-19" d="M675.31,616.67l-4,.3a3,3,0,0,1-3.08-2.34,7,7,0,0,0-2.89-3.74.54.54,0,0,1,.26-1l7-.45a2.63,2.63,0,0,1,1.35.31,6.34,6.34,0,0,1,3.39,4.16A2.24,2.24,0,0,1,675.31,616.67Z"/><path class="cls-20" d="M728.7,648.07a1.74,1.74,0,0,1-.92.64,6.73,6.73,0,0,1-1.09.29,18.24,18.24,0,0,1-2.21.26c-1.48.11-3,.15-4.44.17-2.95,0-5.91,0-8.86,0s-5.9.05-8.85,0-5.9-.15-8.86-.36v-.1c2.95-.36,5.91-.46,8.86-.54s5.92.11,8.87.23,5.9.25,8.85.34c1.47,0,3,.07,4.42,0,.73,0,1.47-.07,2.19-.17a6.58,6.58,0,0,0,1.07-.23,1.65,1.65,0,0,0,.89-.55Z"/><path class="cls-20" d="M706.94,631.9a49.84,49.84,0,0,1-10.56,1c-3.54,0-7.07-.29-10.59-.4s-7,0-10.56,0-7,.31-10.57.42v-.1a81.17,81.17,0,0,1,10.54-1.32,85.85,85.85,0,0,1,10.64.17c3.53.21,7,.59,10.56.7a48.89,48.89,0,0,0,10.53-.64Z"/><path class="cls-20" d="M678.89,619.31a43.19,43.19,0,0,1-8.86,1.16c-3,.08-6-.08-8.94-.23s-5.93-.21-8.88-.25-5.9.09-8.88.24l0-.1A44.35,44.35,0,0,1,652.2,619a76,76,0,0,1,8.94.46c3,.25,5.92.5,8.88.52a43.15,43.15,0,0,0,8.85-.76Z"/><path class="cls-21" d="M391.64,98.32c-.11-3-.18-4.59-.18-4.59s4.48-1.53,11.81-3.78C424.34,75.62,458.32,57,473.52,73.57h0c23.32-3.19,44.73-2.82,53.36,6.59,0,0-40.52,363.28-21,422.39,10.9,33,68.23,74.83,116.79,105.4a64.9,64.9,0,0,0,19.15,1.37c14.09-1.15,23.13-1.11,28.75.27l2-.13a2.63,2.63,0,0,1,1.35.31,6.49,6.49,0,0,1,3.15,3.4,9.51,9.51,0,0,1,1.81,5.94c8.27-.36,14.15-.09,18.26.88l.37,0a3.32,3.32,0,0,1,1.8.41,11.93,11.93,0,0,1,1.12.7c3.78,1.72,5.14,4.53,5.22,8.52a19.57,19.57,0,0,1,0,2.28c21.86-1.36,26.15,2.57,25.43,12.7a5.33,5.33,0,0,1-1.85,3.49c21.69-.74,25.85,3.31,24.88,13.39-.2,2.1-1.91,3.81-4.59,5.2,10.93.71,23.86,5.88,13.07,24.14a27.29,27.29,0,0,1-3.53,5.45,38.29,38.29,0,0,1-3.53,1.57c-5.26,2.69-13.16,4.14-22.86,4.63-66.44,5.6-197.93-28.76-196.07-30.81,2.3-2.53-130-74.31-131.19-79.8s-20-488.55-20-488.55S387.69,101.33,391.64,98.32Z"/><path class="cls-22" d="M654.41,744.81c15.4,5.36,23.62-4.44,25.43-12,0,0,14.58,2.18,27.7-13.08,5.81-.3.77,2.56,6.08-.15-5.73,9.89-19.41,17.72-32.38,18.4-1.35,4.4-5.32,15.08-25.42,13.52C656.44,748.16,654.32,745,654.41,744.81Z"/><path class="cls-23" d="M428.74,75.14l-199,71.64,25.74,276.29c3.58,81.32-5.5,153.16-16,177.79-12.64,29.66-39.84,56.56-10.18,84.45,23.14,21.77,68.36,26.14,95.71,30.75,21.07,3.55,54.76,11,84.59,25.3,47.74,22.92,78.87,47.35,111.51,42.29l4-.8c20.62,16.17,46.19,12.65,66.38-3,22.13,4.66,37.79-12.58,37.62-12.37,26.37-.67,26.93-15.87,27.05-16.11,18.24,1,24-8.74,25.4-13.38,14.56-.76,30-10.52,34.12-22.09,3.7-10.4-2.72-19.69-11.88-22.13-5-1.32-10.58-1.41-14.9-1.78-21.69-1.91-55.89-17.43-76.62-21.57C586.56,665.32,540.82,632.14,522,619c-39.55-27.55-48.81-35.69-81.13-57.77C379,543,412.5,178.45,428.74,75.14Z"/><path class="cls-24" d="M239.68,600.85c10.5-24.62,19.58-96.46,16-177.79L229.94,146.77,246,141l25,268.42c3.59,81.32-5.49,153.17-16,177.79-12.65,29.66-39.84,56.56-10.18,84.46,23.14,21.76,68.36,26.13,95.7,30.74,21.07,3.56,54.76,11,84.6,25.3C472.85,750.63,504,775.07,536.62,770l4-.8c20.62,16.18,30.91,21.67,51.11,6.07,22.12,4.66,37.72-13.37,37.55-13.16,3.53,3.34,21.67-2.27,26.92-9.76-.65,3.34-4.27,14.6-26.89,15.17.17-.2-15.5,17-37.62,12.38-20.2,15.6-45.76,19.12-66.38,3l-4.05.79c-32.63,5.07-63.76-19.37-111.5-42.29C380,727,346.27,719.61,325.2,716.06c-27.34-4.62-72.56-9-95.7-30.75C199.84,657.41,227,630.51,239.68,600.85Z"/><path class="cls-25" d="M690.85,705.76c-5-1.32-10.58-1.41-14.9-1.79-21.69-1.9-55.89-17.42-76.62-21.56C573.56,677.26,527.82,644.08,509,631c-39.55-27.54-48.81-35.69-81.13-57.76C366,554.89,399.51,190.39,415.74,87.08l-183,65.86-.73-7.87,199-71.64c-16.23,103.31-49.73,467.81,12.14,486.12,32.31,22.08,41.58,30.22,81.12,57.77,18.82,13.11,64.56,46.3,90.33,51.44,20.74,4.14,54.94,19.67,76.63,21.57,4.31.38,9.94.47,14.89,1.79,9.16,2.44,15.58,11.73,11.88,22.13-2.47,7-9,13.24-17,17.33a22.41,22.41,0,0,0,1.73-3.69C706.43,717.49,700,708.2,690.85,705.76Z"/><path class="cls-21" d="M239.49,600.86c10.5-24.63,19.58-96.47,16-177.79L229.75,146.78l2.39-.86-.08-.85,199-71.64c-16.23,103.31-49.73,467.81,12.14,486.12,32.31,22.08,41.58,30.22,81.12,57.77,18.82,13.11,64.56,46.3,90.33,51.44,20.74,4.14,54.94,19.67,76.63,21.57,4.31.38,9.94.47,14.89,1.79,9.16,2.44,15.58,11.73,11.88,22.13-1.92,5.4-6.32,10.4-11.94,14.28A44.35,44.35,0,0,1,681.61,738c-1.41,4.64-7.16,14.36-25.4,13.38-.12.24-.68,15.44-27.05,16.11.17-.21-15.49,17-37.62,12.37-20.19,15.6-45.76,19.12-66.38,3l-4,.8c-32.64,5.06-63.77-19.37-111.51-42.29C379.78,727,346.09,719.61,325,716.06c-27.35-4.61-72.57-9-95.71-30.75C199.65,657.42,226.85,630.52,239.49,600.86Z"/><path class="cls-26" d="M266.45,147.65c6,49.51,30.19,261.17,23.55,388.36,3.75,2,7.43,4.21,11,6.54,1.13-14.61,2.07-29.34,2.75-44,5.6-120.34,2.84-323.6-1.38-363.87l-35.94,12.94Zm13.88,455.9c-1.57,6.78-2.42,17.62,5.88,23.27,12.64,8.61,34.4,4.52,53.5,22.43-3.82-12.75-35.68-22.78-44.72-29a13.6,13.6,0,0,1-6.12-13.44C290.5,592.68,282.44,594.42,280.33,603.55Z"/><path class="cls-27" d="M586.37,763.92c-2.54-1.13-13.17-2.24-15.48-3.07-3.9-1.39-19.07-6.37-19.07-6.37s8.33,4.08,12.38,6.34c4.36,2.78,9.07,3.82,13.22,5.3,2.27.81,4.57,1.64,6.86,2.65A8.41,8.41,0,0,1,589,773.1c.83,2,.87,4.9-.36,9,8.21-5.72,5.51-14.7-2.23-18.15Zm39.78,6.37a11.44,11.44,0,0,0,4.45-9.57c.08-6.62-3.08-10.9-12.91-11.38-15.2.41-25.54-2.56-31.24-8.76,0,0-.35,4.15,5.18,6.11a67.93,67.93,0,0,0,23.77,5.61h0c14.15.64,10.77,17,10.76,17.05a3,3,0,0,0,0,.94ZM655,755.67c.31-3.64.57-17.75-13.93-18.41h0c-1.76-.08-3.5-.23-5.22-.43s-3.35-.45-5-.75c-8.37-1.52-14.74-5-19.54-7a36.65,36.65,0,0,1-4.4-2.89s4.71,1.34,6,1.87c4.59,1.94,8,1.8,15.9,3.23,1.51.28,5.18.65,6.82.84s4.23-.21,5.88-.14h0c12.82.58,18.81,12.55,13.52,23.67Zm12.38-40.11a156,156,0,0,1-27.8-3.92,30.45,30.45,0,0,1-10.28-4.46l-.19-.13h0a8,8,0,0,0,4.33,5.17c5.92,2.73,19,7.94,33.53,8.6,13.41,1,12.48,17.71,12.2,22.1,5.1-7,4.6-17-.69-22.75C675.85,717.34,671.84,715.77,667.33,715.56Z"/><path class="cls-28" d="M709.11,699.45c-2.79,1.33-7.48,4.56-12.85,12.32a4.64,4.64,0,0,1-3.89,2c-5.26-.12-17.2-.91-20.82-5.39-3.76-4.67,8.4-11.73,13.37-14.34a7.53,7.53,0,0,1,4.26-.84c4.07.41,12.89,1.52,19.83,4.11A1.17,1.17,0,0,1,709.11,699.45Z"/><path class="cls-28" d="M671.9,725.22a14.77,14.77,0,0,0-9,5.92,3.09,3.09,0,0,1-3.51,1.27l-4.81-1.55a3.27,3.27,0,0,1-1.09-5.53,17.83,17.83,0,0,1,8.46-4.15,7.06,7.06,0,0,1,3.7.29l6.29,2.18A.82.82,0,0,1,671.9,725.22Z"/><path class="cls-28" d="M647.84,742.4a14.79,14.79,0,0,0-9,5.93,3.09,3.09,0,0,1-3.51,1.27l-4.81-1.55a3.27,3.27,0,0,1-1.09-5.53,17.83,17.83,0,0,1,8.46-4.15,7.11,7.11,0,0,1,3.71.29l6.28,2.18A.82.82,0,0,1,647.84,742.4Z"/><path class="cls-28" d="M620.42,757.1a14.79,14.79,0,0,0-9,5.92,3.07,3.07,0,0,1-3.51,1.27l-4.81-1.55a3.28,3.28,0,0,1-1.1-5.53,18,18,0,0,1,8.47-4.15,7.07,7.07,0,0,1,3.7.29l6.29,2.18A.83.83,0,0,1,620.42,757.1Z"/><path class="cls-28" d="M586.12,770a14.7,14.7,0,0,0-9,5.92,3.09,3.09,0,0,1-3.51,1.27l-4.81-1.55a3.28,3.28,0,0,1-1.1-5.53,17.92,17.92,0,0,1,8.47-4.15,7.07,7.07,0,0,1,3.7.29l6.29,2.18A.83.83,0,0,1,586.12,770Z"/><path class="cls-29" d="M107.92,17.78l6,459.09c87.34-39.11,598.2-228.34,610.13-201.72l-8.8-257.37Z"/><path class="cls-30" d="M311.65,17.78,291.88,404.7c36.31-16.91,82.32,17.44,170.92-28L442,17.78Z"/><path class="cls-31" d="M352.62,17.78,330.26,455.26c39.61-14.87,88.69,17.54,170.92-28L477.49,17.78Z"/><path class="cls-31" d="M454.94,17.78,436.38,381c143.36,32.56,128-23.48,170.92-28L587.9,17.78Z"/><path class="cls-29" d="M430.41,17.78,406.68,482.24c70.16-7.13,117.82,26.29,170.92-28L552.34,17.78Z"/><path class="cls-32" d="M172.92,468.61C145.35,490,115.05,507,84.73,523.85c-5,2.82-10.06,5.56-15,8.45-2.51,1.39-4.95,2.89-7.35,4.42s-4.85,3-6.45,5.33l-.57-.19c1.16-2.81,3.51-4.72,5.65-6.71s4.48-3.72,6.81-5.46c14.07-10.23,29-19.15,44-28,14.49-8.44,30.7-17.4,45.5-25.45q7.66-4.09,15.36-8.13l.29.53Z"/><path class="cls-32" d="M113.41,449.87c9.33-8,20.36-13.65,31.12-19.42,14.45-7.4,29.29-14,44.37-20,33.78-13.45,68.62-25,104.24-32.6l.19.57c-53.2,18.91-106.63,37.57-158.2,60.67-3.11,1.45-7.84,3.71-10.89,5.27a98.46,98.46,0,0,0-10.46,6l-.37-.47Z"/><path class="cls-32" d="M293.4,370c1-4.24,5.23-6.84,9.05-8.31a32.64,32.64,0,0,1,31.19,6.08c.37.35.74.66,1.1,1.05l-.15.58c-3.46-.73-6.91-1.51-10.38-2.11-6.89-1.13-14-1.86-20.95-.86a25,25,0,0,0-5,1.3,11,11,0,0,0-4.34,2.61l-.49-.34Z"/><path class="cls-32" d="M331.56,423.86c-.32-6.37,10.65-9.4,15.62-10.12,7.72-1.27,15.85-.8,23.57.32a112.08,112.08,0,0,1,20,4.85,92,92,0,0,1,18.82,8.58l-.16.58c-12.95-3-26.36-6.26-39.5-8.07a149,149,0,0,0-15-1.66c-6.55-.24-13.57-.57-19.63,2.21-1.35.66-2.8,1.74-3.1,3.3Z"/><path class="cls-32" d="M408.72,455.38c17.35-5.44,35.93-7,54.11-6.59,33.63.91,61.22,6.56,93.23-8.08,6.49-2.77,12.77-6.18,19.15-9.64l.37.47c-24.88,19.48-49.36,26.61-80.77,24.78-14.39-.73-28.69-2.38-43.05-2.8A232.92,232.92,0,0,0,408.81,456l-.09-.59Z"/><path class="cls-32" d="M606.38,318.6c-7.08,4-12.86,7.28-19.42,11.4-5.31,3.17-10,6.6-15.78,9.17l-.5-.34a59.4,59.4,0,0,1,4.89-6.42,21.63,21.63,0,0,1,1.85-2A41,41,0,0,1,601,318.16a28.93,28.93,0,0,1,5.43-.16l-.06.6Z"/><path class="cls-32" d="M602.67,274.83c26.82-19.23,80-41,112.94-33.13a28.19,28.19,0,0,1,7.55,3.17l-.21.56c-4.9-1.74-10.19-2.06-15.38-1.92-10.45.29-20.76,2.49-30.88,5.05A435,435,0,0,0,632,263.32c-9.77,3.79-19.47,7.78-29,12.05l-.25-.54Z"/><path class="cls-32" d="M632.4,329.8c18.59-4.31,36.93-6.5,55.59-9.53,6.12-.87,12.6-1.92,18.84-2.33,8.49-.72,19.17-.39,25.24,6.74l-.34.49a21.35,21.35,0,0,0-5.58-2.66c-6-1.8-12.41-.85-18.55.13-8.26,1.44-16.51,3.2-24.84,4.49a295.74,295.74,0,0,1-50.37,3.27v-.6Z"/><g class="cls-33"><path class="cls-32" d="M173.21,480.05c-27.57,21.36-57.86,38.33-88.19,55.24-5,2.82-10.06,5.56-15,8.45-2.52,1.39-5,2.89-7.36,4.41s-4.84,3.05-6.44,5.33l-.57-.18c1.16-2.81,3.5-4.72,5.65-6.72s4.48-3.71,6.8-5.45c14.07-10.23,29-19.16,44-28,14.48-8.44,30.7-17.4,45.5-25.46q7.67-4.09,15.36-8.12l.28.53Z"/><path class="cls-32" d="M113.7,461.31c9.33-8,20.36-13.65,31.13-19.43,14.45-7.39,29.29-14,44.36-20,33.79-13.46,68.63-25,104.24-32.6l.2.56C240.42,408.78,187,427.45,135.42,450.54c-3.11,1.46-7.84,3.72-10.88,5.27a99.29,99.29,0,0,0-10.46,6l-.38-.47Z"/><path class="cls-32" d="M293.69,381.42c1-4.25,5.24-6.85,9.05-8.32a32.68,32.68,0,0,1,31.19,6.08c.37.36.75.67,1.1,1.06l-.15.58c-3.46-.74-6.9-1.51-10.38-2.11-6.88-1.13-14-1.86-20.94-.87a25.08,25.08,0,0,0-5,1.31,11,11,0,0,0-4.33,2.61l-.5-.34Z"/><path class="cls-32" d="M331.86,435.29c-.32-6.36,10.65-9.39,15.61-10.12,7.73-1.26,15.85-.79,23.57.33a113.24,113.24,0,0,1,20,4.84,93,93,0,0,1,18.81,8.58l-.15.58c-12.95-3-26.36-6.26-39.51-8.06a145.86,145.86,0,0,0-15-1.66c-6.54-.25-13.57-.57-19.63,2.2-1.35.67-2.79,1.75-3.09,3.31Z"/><path class="cls-32" d="M409,466.82c17.35-5.44,35.94-7,54.11-6.6,33.63.92,61.23,6.57,93.23-8.08,6.5-2.76,12.77-6.17,19.16-9.63l.37.47c-24.88,19.48-49.37,26.61-80.77,24.78-14.4-.73-28.69-2.39-43.06-2.8a233,233,0,0,0-42.95,2.45l-.09-.59Z"/><path class="cls-32" d="M606.68,330c-7.09,4-12.86,7.28-19.42,11.39-5.32,3.18-10,6.6-15.79,9.18l-.49-.34a59.21,59.21,0,0,1,4.89-6.43,22.92,22.92,0,0,1,1.84-2,41,41,0,0,1,23.6-12.27,28,28,0,0,1,5.42-.16l-.05.6Z"/><path class="cls-32" d="M603,286.26c26.83-19.22,80-41,112.95-33.12a28.47,28.47,0,0,1,7.55,3.17l-.22.56a42.48,42.48,0,0,0-15.38-1.93c-10.45.3-20.76,2.5-30.87,5.06a434.32,434.32,0,0,0-44.74,14.75c-9.76,3.8-19.47,7.79-29,12.06l-.26-.55Z"/><path class="cls-32" d="M632.69,341.23c18.6-4.31,36.94-6.5,55.6-9.52,6.11-.88,12.6-1.93,18.83-2.33,8.49-.72,19.18-.4,25.24,6.73l-.34.5a21.23,21.23,0,0,0-5.58-2.67c-6-1.8-12.41-.84-18.55.14-8.26,1.44-16.5,3.2-24.83,4.49a295.8,295.8,0,0,1-50.37,3.26v-.6Z"/></g><path class="cls-4" d="M752.79,726c-.41-.11.24,0,.47.11a2.89,2.89,0,0,1,.88.69,3.66,3.66,0,0,1,.88,1.59,6.57,6.57,0,0,1,0,2.93c-.27,1.41-.54,2.82-.84,4.22a59.88,59.88,0,0,1-2.27,8.24c1.21.22,2.41.49,3.61.8,3.85,1,7.65,2.42,11.45,3.81a3.49,3.49,0,0,1,2.16,2.14,3.67,3.67,0,0,1-.28,3.14,66.43,66.43,0,0,1-4.51,6.93c-1.46,2.15-2.91,4.34-4.51,6.36a57.63,57.63,0,0,1,7.61,5.68,3,3,0,0,1,.28,4.62s-.29.32-.31.33l.07-.09-.21.25c-.23.28-.47.55-.71.82a16.52,16.52,0,0,1-1.72,1.63,35.22,35.22,0,0,1-3.31,2.44,39.3,39.3,0,0,1-6.2,3.38c-8.43,3.64-17.67,4.73-26.93,4.75-4.66,0-9.47-.32-13.91-3a30.91,30.91,0,0,1-8.13-8,11.51,11.51,0,0,1-4-2.06,14.37,14.37,0,0,1-4.51-7.64c-1.15-4.79-.26-9.61,1.2-13.8a34.62,34.62,0,0,1,2.61-5.92,43,43,0,0,1,3.56-5.17,27.15,27.15,0,0,1,3.59-3.89c1.6-1.38,3.29-2.6,5-3.82a48.49,48.49,0,0,1,5.23-3.27c.64-.35,1.29-.68,2-1,2.21-1.47,4.52-2.76,6.84-4a59.79,59.79,0,0,1,7.84-3.83,19.66,19.66,0,0,1,8.83-1.12A54,54,0,0,1,752.79,726Zm-47.92,43.6a2.4,2.4,0,0,0-.23-.5h0C704.73,769.28,704.8,769.44,704.87,769.61Z"/><path class="cls-4" d="M704.64,769.11a2.4,2.4,0,0,1,.23.5c-.07-.17-.14-.33-.22-.49Z"/><path class="cls-34" d="M721.27,781.64Z"/><path class="cls-35" d="M772.31,777.29a4.68,4.68,0,0,0-1.4-2.94c-.34-.36-.69-.71-1-1.07a1.35,1.35,0,0,0-2.08-.09,2.33,2.33,0,0,0,.3,2.57c.43.53.85,1.09,1.31,1.59a3,3,0,0,0,2,1A1,1,0,0,0,772.31,777.29Z"/><path class="cls-35" d="M773,769.36a7.31,7.31,0,0,0-1.55-.3,2.54,2.54,0,0,0-1.32.44,1.34,1.34,0,0,0-.48,1.78c.27.73,1,1.5,1.62,1.42a6.37,6.37,0,0,0,1.39-.14c.34-.12.64-.31,1-.42C774.6,771.82,774.2,769.68,773,769.36Z"/><path class="cls-35" d="M770.77,765.19c.51-1.11-.88-3-1.82-2.21-.78.66-2.28,1.47-2.14,3,.1,1,.84,2,1.71,2C769.78,768,770.27,766.25,770.77,765.19Z"/><path class="cls-35" d="M767.15,770.2c-2.55-1.17-5.38-1.5-7.92-2.12a44,44,0,0,0-7.53-1.29c-2.48-.16-4.72.29-7.21.11a14.19,14.19,0,0,0-7.13,1.09c-.59.27-.34,1.6.48,1.65a28.1,28.1,0,0,0,6.83-.33c2.5-.42,5.05.12,7.73.42,2.47.27,4.93.49,7.43.91s5.09,1.56,7.6,2C768.67,772.89,768.26,770.7,767.15,770.2Z"/><path class="cls-35" d="M757.33,760.78a3,3,0,0,0-.43-2.82c-.17-.25-.56-.53-.67-.85.12.21.15.24.07.11s-.2-.35-.31-.51a4,4,0,0,0-.74-.66c-.71-.62-1.38-.28-1.55.62a3.61,3.61,0,0,0-.09.67,4,4,0,0,0,.46,1.88,5.52,5.52,0,0,0,1.35,1.89C756.16,761.68,757,761.59,757.33,760.78Z"/><path class="cls-35" d="M759.53,754.83c-.18-1-.88-1.62-1.55-1.57s-1.35-.08-1.71.47a1.6,1.6,0,0,0,.26,1.89,1.92,1.92,0,0,0,1.19.6l.83.23C759.25,756.64,759.69,755.72,759.53,754.83Z"/><path class="cls-35" d="M757.67,750.52c.75-.75-.24-2.73-1.15-2.54s-1.95.23-2.09,1.68a2,2,0,0,0,.82,1.83C756.32,752.21,757,751.2,757.67,750.52Z"/><path class="cls-35" d="M752,753.94c-8-1.56-15.45.35-22.36,3.47-.66.29-.14,1.91.57,1.78,7.24-1.26,14.25-3.62,21.89-3.13C753.06,756.12,753,754.14,752,753.94Z"/><path class="cls-35" d="M764.46,739.15a3.36,3.36,0,0,0-.34-2.74,2.06,2.06,0,0,0,1.34-.12,1.18,1.18,0,0,0,.65-1.42c-.13-.66-.6-1.23-1.08-1.12s-1,.12-1.34.55a1.4,1.4,0,0,0-.24,1.11,1.9,1.9,0,0,0,.11.39,1.24,1.24,0,0,0-.7-.27,1.67,1.67,0,0,0-.59,0,1.47,1.47,0,0,0-.89.89,3.23,3.23,0,0,0,.26,2.5,2.57,2.57,0,0,0,.64.91,1.42,1.42,0,0,0,.84.36A1.4,1.4,0,0,0,764.46,739.15Z"/><path class="cls-35" d="M761.52,733.87c.56-.15.83-.64,1-1.38.07-.37.14-.74.22-1.1a2.14,2.14,0,0,0-.85-2.15c-.6-.27-1.26.09-1.39,1s-.49,2.15.13,3.13A.93.93,0,0,0,761.52,733.87Z"/><path class="cls-35" d="M742.05,749.21c3.07-.92,6-2.83,8.81-4.5a76.47,76.47,0,0,0,8.79-6.15c.59-.47-.08-1.94-.69-1.58-2.89,1.74-5.82,3.39-8.74,5s-6,2.81-8.83,4.66C740.52,747.25,741,749.52,742.05,749.21Z"/><path class="cls-36" d="M704.85,786.36a3.45,3.45,0,0,0,1.36-1.13,3.28,3.28,0,0,0,.27-.38,3.58,3.58,0,0,0-.22-4.41,2.66,2.66,0,0,0-.35-.46,4.25,4.25,0,0,0-1.19-1.05,3.38,3.38,0,0,0-1.14-.42,3,3,0,0,0,1-2,4.56,4.56,0,0,0-1.16-3.46,6.46,6.46,0,0,0-2.65-2.08,4.5,4.5,0,0,0-2.61-1c-.67,0-1.35,0-2,.06a19.36,19.36,0,0,0-2,.25H694c.06-.29.12-.59.17-.89l0,0a2.74,2.74,0,0,0,.95-2.76,3.11,3.11,0,0,0-1.89-2.46,5,5,0,0,0-1.61-.15A16.62,16.62,0,0,0,693,762.1c.35-.65.68-1.3,1-1.93.67-1.1-.39-3.16-1.63-2.81a11.52,11.52,0,0,0-2.68,1,11.06,11.06,0,0,0-2,1.73A22.3,22.3,0,0,0,685,763.5a71.88,71.88,0,0,0-4.95,8.87,6.72,6.72,0,0,0,.67,7.27c1.31,1.51,3.28,2.07,4.92,2.76a51.14,51.14,0,0,0,9.08,3c1.65.35,3.31.63,5,.83,1.08.13,2.16.23,3.24.31A3.9,3.9,0,0,0,704.85,786.36Z"/><path class="cls-1" d="M757.18,790.73c1.43-.65,1.06-3-.07-4a74.87,74.87,0,0,0-23.23-14.32,57.71,57.71,0,0,0-12.55-3.15,55.5,55.5,0,0,0-12.88,0,73.19,73.19,0,0,1-7.41.53,26.34,26.34,0,0,1-4.43-.4l.06-.05a10.23,10.23,0,0,1,2.4-1.25,56.71,56.71,0,0,1,6-1.8,38.45,38.45,0,0,0,12.23-5.74,55.33,55.33,0,0,0,10.32-9.88,85.58,85.58,0,0,0,8.4-12.87c1.34-2.39,2.62-4.82,3.87-7.28,1.42-2.81,2.65-5.75,4-8.63a1.83,1.83,0,0,0-1.56-2.4c-3,0-6-.2-8.95,0a54.82,54.82,0,0,0-8.78,1.28,46.61,46.61,0,0,0-16.22,7.08,44.11,44.11,0,0,0-17.15,25.84C690.15,758,691,762,691,766.46c.06,7.58,1.59,9.76,6.28,15.26,4.32,5.06,9.83,8.62,15.27,11.4a44.43,44.43,0,0,0,12.82,4.36,39.86,39.86,0,0,0,14.54-.27C746,796,751.56,793.28,757.18,790.73ZM727,791.82l-.07,0,.15,0Z"/><g class="cls-37"><path class="cls-38" d="M685.74,765.67a62.49,62.49,0,0,1,17.76-24.34,90,90,0,0,1,13-9.19,126.28,126.28,0,0,1,14-7.16c5.53-2.38,11.37-4.14,17.53-4,.58,0,.57-1,0-1.07A39.85,39.85,0,0,0,732.46,723a112.4,112.4,0,0,0-14.52,7.06c-9,5.06-17.43,11.35-24.17,19.84a62.44,62.44,0,0,0-8.89,15.29C684.64,765.8,685.51,766.26,685.74,765.67Z"/><path class="cls-38" d="M683.49,776.59a26,26,0,0,1,6.4-12.36,99.57,99.57,0,0,1,10.94-10.34q6.15-5.22,12.72-9.76A86.32,86.32,0,0,1,727.2,736c5.73-2.55,12-3.4,18.21-4.2.57-.07.32-1.13-.25-1-5.52.73-11.09,1.45-16.3,3.41-5,1.86-9.5,4.77-13.94,7.74a162.15,162.15,0,0,0-13.18,9.83,116.89,116.89,0,0,0-11.51,10.57c-3.52,3.79-6.6,8.31-7.64,14.08A.46.46,0,1,0,683.49,776.59Z"/><path class="cls-38" d="M749.06,772.26c.48-.32,0-1.29-.46-1A53.4,53.4,0,0,1,733.85,778c-5.09,1.44-10.34,2.33-15.55,3.28C709,783,699.59,784.42,690,783.65A53.52,53.52,0,0,1,674.3,780c-.57-.23-.78.78-.21,1,9.37,3.77,19.06,4.34,28.43,3.57,4.77-.4,9.49-1.13,14.18-2,5.16-.91,10.35-1.8,15.42-3.09A55.49,55.49,0,0,0,749.06,772.26Z"/><path class="cls-38" d="M744.23,788.57a50.68,50.68,0,0,0,12.95-8.66c.44-.41-.21-1.25-.64-.84-6.91,6.42-15.38,10.27-24.17,12.58A107.12,107.12,0,0,1,719,794.19a69.59,69.59,0,0,1-12.35.75,28,28,0,0,1-13.38-3.84c-.54-.32-.9.6-.36.93,7.93,4.82,16.7,4.37,24.79,3.4C726.84,794.34,735.91,792.47,744.23,788.57Z"/></g><path class="cls-1" d="M726.93,774a73.68,73.68,0,0,0,11.12-8.19c3.92-3.3,7.81-6.6,11.57-10.13a2,2,0,0,0-.87-3.18c-2.34-.48-4.68-1.15-7-1.71s-4.61-1-6.92-1.46c-12.15-2.17-25.52-1.14-35.9,5.2-3.7,2.26-7.19,5.36-8.81,9.91s-.91,10.78,2.59,14.35c2.61,2.66,6.13,3.37,9.39,3.53C712,782.79,718.79,778.55,726.93,774Z"/><g class="cls-39"><path class="cls-40" d="M680.53,778.36c3.51-3.86,7.88-6.58,12.18-9.17A119.45,119.45,0,0,1,751.83,752c.57,0,.46-1.08-.12-1.07a120.27,120.27,0,0,0-58.21,16.51c-4.77,2.8-9.73,5.76-13.6,10C679.5,778,680.13,778.81,680.53,778.36Z"/><path class="cls-40" d="M735.27,768.65a123.3,123.3,0,0,0,14.93-9.3c.47-.34-.07-1.27-.54-.93A122.61,122.61,0,0,1,723,773.14a116.45,116.45,0,0,1-28.66,7.45,32.88,32.88,0,0,1-10.61-.14A66.35,66.35,0,0,1,696,776.18c4.72-1.33,9.37-2.88,14-4.58,9.29-3.43,18.36-7.48,27.39-11.58,5-2.26,9.9-4.74,15.19-6.13.55-.14.27-1.19-.29-1-4.78,1.26-9.26,3.42-13.76,5.47s-9,4.09-13.55,6.06a240.71,240.71,0,0,1-27.81,10.36c-5.07,1.49-10.31,2.66-15,5.33a19.82,19.82,0,0,1-3.08-1.14c-.56-.26-.78.74-.21,1a20.26,20.26,0,0,0,2.88,1.1.38.38,0,0,0,.54.21l.07,0a29.37,29.37,0,0,0,10.07.68,96,96,0,0,0,14.52-2.51A121.35,121.35,0,0,0,735.27,768.65Z"/><path class="cls-40" d="M685.94,770c6.48-4.87,12.95-9.77,19.77-14a57.3,57.3,0,0,1,10.22-5.3,37.56,37.56,0,0,1,11.13-2.21,111,111,0,0,1,13,.27c.58,0,.54-1-.05-1.07-7.94-.47-16.06-.91-23.51,1.64a53,53,0,0,0-10.37,5.14c-3.32,2-6.55,4.24-9.74,6.51-3.69,2.63-7.32,5.35-10.93,8.09C685,769.38,685.47,770.35,685.94,770Z"/></g><path class="cls-41" d="M323.25,712.76a27.86,27.86,0,0,1,13.2,9.13c1.05,1.32,2,3.22,1,4.58a2.89,2.89,0,0,1-2.81.95c-1-.18-.85-.91-1.74-1.44a12,12,0,0,1,1.54,4.33,4.41,4.41,0,0,1-1.66,4.08,4.2,4.2,0,0,1-3.58.35,9.27,9.27,0,0,1-3.15-1.94,27.3,27.3,0,0,1-5.94-7.69c1.39,6.5,3.44,12.7,2.59,19.45A6.2,6.2,0,0,1,322,747a2.5,2.5,0,0,1-2.11,1.29c-1.52-.06-2.34-1.78-2.72-3.26a28,28,0,0,1-.7-6.59c.19,3.66.34,7.5-1.23,10.81s-5.49,5.81-8.92,4.53c-3.67-1.37-4.81-6-4.87-9.89-.14-8.92,2.46-17.38,5.12-25.89-1.68,2.78-1.06,1.49-2.62,4.34a72.63,72.63,0,0,1-20.25,23.25,13.1,13.1,0,0,1-4.7,2.43c-3.34.72-6.18-1.46-5.51-5,.48-2.49,2.76-4.37,4.4-6.18a139.23,139.23,0,0,1,17.2-15.9c-1.93,1.25-3.67,2.13-5.57,3.41-7.46,5-13.54,11.72-21.5,16-1.6.87-3.76,1.59-5.07.33a3.05,3.05,0,0,1-.54-3.12,8.17,8.17,0,0,1,1.86-2.74,73.19,73.19,0,0,1,17.56-14.28,106.72,106.72,0,0,1-13.36,6.57c-3.3,1.35-8.29,4.13-11.93,4-5.3-.21-3.36-4.39-1.22-7.36a26.49,26.49,0,0,1,10.79-8.46,44.88,44.88,0,0,1,17-3.89c5-.06,9.53-1.3,14.47-2.56-6.88-1.27-13.06-5.12-19.61-7.49-2.66-1-10.33-2.91-11.5-5.9a4,4,0,0,1,1.1-3.89c2.21-2.58,6.17-4.82,9.48-4.09-.93-.88-2.17-1.36-3.17-2.16s-1.77-2.19-1.22-3.34a3.35,3.35,0,0,1,2.52-1.52,18.6,18.6,0,0,1,11.76,2,49.8,49.8,0,0,1,9.76,6.11c-3.58-5.58-7.21-11.32-8.59-17.8a8.19,8.19,0,0,1-.18-3.3,3.47,3.47,0,0,1,1.91-2.57c8.42-3.5,19.24,28.29,20,32.47-.66-5.84-1.7-12-.42-17.85.91-4.16,4.32-12.21,10-11.12,4.07.77,1.81,9.81.47,12.24a15.12,15.12,0,0,1,4.3-6.49c1.13-1,6.27-4,7.35-2.93a2.81,2.81,0,0,1-.32,4.06c-2.46,1.82-3.09,7-4.06,10,.62-1.86,4.37-5,5.82-6.37,1.71-1.64,3.9-3.61,6.21-4.3,7.94-2.4,1.88,6.18.31,8.68-3.69,5.85-8.65,11.88-11.07,18.35a24,24,0,0,1,11.28-4.56c1.81-.29,4.07-.17,4.92,1.45a4.06,4.06,0,0,1-.35,3.62,15.19,15.19,0,0,1-8.38,7C332.4,710.53,327,712.56,323.25,712.76Z"/><path class="cls-7" d="M298,706.48c-.25.35-.51.69-.79,1A8,8,0,0,0,295,714c.11,2,.86,4.39,3,5.14a13.31,13.31,0,0,0,10.31-1.1c4.55-2.33,13.26-9,11.33-15.11-.94-3-4-4-6.83-4.25-1.65-.13-3.69-.33-5.24.28s-2.69,2-4,3c-1.1.79-2.59,1.23-3.58,2.09A13.93,13.93,0,0,0,298,706.48Z"/><path class="cls-6" d="M383.84,766.19a1.1,1.1,0,0,0,.51,0,6.41,6.41,0,0,0,2.56-1.35c2.19-1.63,4.34-3.32,6.6-4.87a19.17,19.17,0,0,1,1.91-1.21c.67-.35,1.59-1.15,2.38-.77a.86.86,0,0,1,.57,1,1.34,1.34,0,0,1,0,.21h0c-.1,1.06-.39,2.1-.51,3.17-.08.74-.13,1.5-.16,2.25a21.64,21.64,0,0,0,.35,4.75,22,22,0,0,0,1.17,4,9.34,9.34,0,0,0,1.94,3.27,3.19,3.19,0,0,0,2.82,1,3.11,3.11,0,0,0,.5-.21,1.7,1.7,0,0,1,.14-.1c.15-.1.28-.22.42-.33l.12-.13a4.58,4.58,0,0,0,.9-1.5,18.44,18.44,0,0,0,.81-4.26c.2-1.69.37-3.39.52-5.08.31-3.48.29-7,1.24-10.43a1,1,0,0,1,2,.11,15.5,15.5,0,0,1,.4,2,.82.82,0,0,1,.43.56c.48,2.89.81,5.73,2.23,8.36a16.6,16.6,0,0,0,6.09,6.41,10.15,10.15,0,0,0,1.85.89c.23.08.73.24.84.26a4.9,4.9,0,0,0,.67.07,1.78,1.78,0,0,1,.4,0l.42-.08.34-.1.36-.19.09-.06a1.61,1.61,0,0,0,.23-.22l.21-.27.07-.18a3.11,3.11,0,0,0,.11-.41,3,3,0,0,1,0-.4,5.44,5.44,0,0,0,0-.57,2.72,2.72,0,0,1-.09-.43c0-.14-.07-.28-.11-.43-.21-.81-.51-1.6-.79-2.39-.6-1.73-1.15-3.48-1.7-5.23-.33-1.06-.62-2.12-.89-3.18a6.22,6.22,0,0,1-.28-3.16,1.1,1.1,0,0,1,1.35-.72,1.51,1.51,0,0,1,.29.13c-.33-.64.57-1.29,1.17-.87a29.35,29.35,0,0,1,3.3,2.69,28.43,28.43,0,0,0,2.69,2.33,8,8,0,0,0,5.52,1.83,3.93,3.93,0,0,0,2.26-1,4,4,0,0,0,.76-1.09,2.21,2.21,0,0,0,.19-1c-.05-1.93-1.79-3.78-3-5.2-.66-.77-1.35-1.53-2.06-2.25a11.82,11.82,0,0,1-1-.92c-.21-.2-.42-.4-.64-.59a5.24,5.24,0,0,1-1.51-1.74c-.21-.52,0-1.34.71-1.38a4.55,4.55,0,0,1,2.82,1.17,22.15,22.15,0,0,1,1.81,1.38c.45.37.88.77,1.29,1.18a6.32,6.32,0,0,0,1.5.51,4.32,4.32,0,0,0,2.3-.1c.2-.07.39-.16.59-.24L442,751l.19-.12a3.62,3.62,0,0,0,.42-.36c-.05,0,.23-.26.28-.32a2.06,2.06,0,0,0,.35-.79,3.16,3.16,0,0,0,0-1.18,8.62,8.62,0,0,0-.91-2.67,27,27,0,0,0-3.2-4.93c-.72-.92-2.22-2.43-1.31-3.64.57-.77,1.65-.51,2.32-.06a9.87,9.87,0,0,1,1.2,1,17.47,17.47,0,0,1,3.07,4,10.3,10.3,0,0,0,.94.47,13.73,13.73,0,0,0,4.35,1.15c1.1.11,2.68.21,3.6-.56a.9.9,0,0,0,.33-.81,2.33,2.33,0,0,0-.78-1.28,17,17,0,0,0-3.45-2.42,38.84,38.84,0,0,0-4.21-2.16c-5.77-2.54-11.93-3.28-18.17-3.54-.54,0-.66-.52-.49-.91h-1.31c-1,0-.91-1.51,0-1.66,4.06-.71,8.16-1.17,12.22-1.91,1.86-.34,3.71-.74,5.56-1.15.64-.15,3.15-.34,3.15-1.33,0-.59-.83-1.07-1.25-1.33a16.54,16.54,0,0,0-2-1.05,25.3,25.3,0,0,0-22.13.44,13.29,13.29,0,0,1-1.82,1.7.94.94,0,0,1-1.37-1.26,37.87,37.87,0,0,1,3-4.13c1-1.27,1.92-2.58,2.82-3.9s1.66-2.5,2.43-3.79a38.62,38.62,0,0,0,2.15-3.88c.12-.27.38-.78.12-1s-.93.18-1.16.33a26.89,26.89,0,0,0-3.08,2.57,68.25,68.25,0,0,0-10.17,11.76,21.14,21.14,0,0,1-1.31,3.15.92.92,0,0,1-1.05.56.89.89,0,0,1-.7-1c.24-1.34.45-2.67.74-4,.22-1.06.4-2.12.59-3.18a57.9,57.9,0,0,0,.77-6.16,47.84,47.84,0,0,0-.5-11.34,25.85,25.85,0,0,0-.53-2.59c-.14-.49-.36-1.22-.82-1.47-.86-.47-1.43,1.33-1.59,2a65.85,65.85,0,0,0-1.77,19.79c.66,1.45,1.82,4.26,1.13,4.39-.08,0-.29.39-.45.45a.79.79,0,0,1-.62,0l-.4-.25a.8.8,0,0,1-1-.64c0-.13,0-.25-.07-.38s-.15-.21-.23-.32c-.42-.61-.8-1.26-1.18-1.9-.79-1.31-1.47-2.69-2.19-4-1.42-2.66-2.75-5.37-4.12-8.06-1.25-2.44-2.47-4.9-3.7-7.35-.84-1.65-1.79-4-3.74-4.61a2.08,2.08,0,0,0-2.94,2.27c.06,2,1.14,4,2,5.75a113.79,113.79,0,0,0,15.4,23.32c.6.72-.49,1.84-1.16,1.18-1.19-1.17-2.34-2.36-3.44-3.59a13.43,13.43,0,0,1-2.05-1.28,149.37,149.37,0,0,0-21.4-12.3,5.77,5.77,0,0,0-2.58-.8c-.53,0-1.07.23-1.18.71a2,2,0,0,0,.78,1.74,16.31,16.31,0,0,0,2.22,1.67,52.52,52.52,0,0,0,10.55,5.4c.94.35,1.88.71,2.83,1a24.19,24.19,0,0,1,2.88,1.06c.5.24,1.23.74,1.25,1.36a1,1,0,0,1-.74.93.77.77,0,0,1-.62,1,44.48,44.48,0,0,1-6.42-.19c-2.1-.1-4.21-.12-6.32-.09a92.37,92.37,0,0,0-11,.81c-.94.12-1.89.26-2.83.41a10.09,10.09,0,0,0-2.11.48,2.38,2.38,0,0,0-.65.36.49.49,0,0,0-.24.38c0,.18.17.43.41.61a10.7,10.7,0,0,0,4,1.21c1.92.4,3.86.77,5.8,1.11,4,.69,8,1.15,12,2,.76.16.79,1.37,0,1.4-.63,0-1.26,0-1.88,0a.68.68,0,0,1-.42.44c-3.5,1.24-7,2.35-10.59,3.42-3.17.94-6.34,1.87-9.5,2.83-1.09.33-2.45.74-3,1.86a1.16,1.16,0,0,0,.7,1.72,8.56,8.56,0,0,0,3.42.22q2.37-.12,4.74-.45c1.47-.21,2.92-.51,4.38-.8.83-.16,1.66-.35,2.47-.55s1.71-.23,2.57-.38a.62.62,0,0,1,.76.51c.65-.22,1.44.54.87,1.14a80.91,80.91,0,0,1-7.13,6.34c-1.46,1.22-3.88,3.2-3.06,5.41a2.22,2.22,0,0,0,1.72,1.36,4.65,4.65,0,0,0,2.81-.33,17.53,17.53,0,0,0,3.06-1.75c1.19-.78,2.37-1.56,3.57-2.32s2.39-1.56,3.62-2.29,2.61-1.8,4.12-1.82a.87.87,0,0,1,.73,1.18,3.63,3.63,0,0,1-.5.75,2.92,2.92,0,0,1-.13.42c-.11.37-.18.74-.32,1.1-.33.83-.7,1.65-1,2.48-.58,1.41-1.21,2.79-1.83,4.18s-1.23,2.76-1.83,4.14A9.21,9.21,0,0,0,383,764a3,3,0,0,0,0,1.33,1.33,1.33,0,0,0,.48.77l.15.08.12.06S383.79,766.18,383.84,766.19Zm72.28-24.09a3.6,3.6,0,0,1-2.48,3.62,9.7,9.7,0,0,1-4.81.42,14.49,14.49,0,0,1-2.68-.59,8.06,8.06,0,0,1,.47,4.22,5.65,5.65,0,0,1-3.81,4.39,7.94,7.94,0,0,1-2.33.38c1.18,1.78,2.07,3.87,1.53,6a6.5,6.5,0,0,1-5.83,4.72,10.79,10.79,0,0,1-7.57-2.78,30.94,30.94,0,0,1-4.38-4.7c.37.68.71,1.37,1,2.08.79,1.8,1.45,3.66,2.15,5.49a37.24,37.24,0,0,1,1.68,5,6.28,6.28,0,0,1-1.11,5.69,6.11,6.11,0,0,1-4.36,1.92c-3.3.15-6.46-2.11-8.69-4.35a18.89,18.89,0,0,1-4.1-6.37c-.05.57-.11,1.13-.17,1.69-.22,1.81-.42,3.65-.8,5.44a9.38,9.38,0,0,1-2.16,4.65,5.67,5.67,0,0,1-4.83,1.88,7,7,0,0,1-4.58-2.83,18.55,18.55,0,0,1-3.17-9.35,24.77,24.77,0,0,1,.11-5c.07-.51.15-1.05.27-1.58-1.78,1.52-3.68,2.89-5.54,4.3s-4.09,3.3-6.61,2.84-3.88-3.29-3.34-5.77a16,16,0,0,1,1.52-3.71l1.84-3.62c.6-1.19,1.2-2.38,1.83-3.56-.17.12-.34.24-.52.35-1.46.95-2.92,1.9-4.4,2.84-2.33,1.49-4.88,3.47-7.79,3.49-2.67,0-5.21-1.55-5.54-4.36-.36-3,1.95-5.28,4.1-7,1.51-1.17,3-2.38,4.56-3.51-.79.26-1.59.5-2.39.7a46.6,46.6,0,0,1-5.88,1,35.57,35.57,0,0,1-4.94.35,6.43,6.43,0,0,1-3.87-1.12,3.62,3.62,0,0,1-1-4.26,5.74,5.74,0,0,1,3.59-3.08c1.66-.62,3.42-1,5.13-1.45l5.45-1.49c2.55-.69,5.09-1.35,7.65-2-2.8-.26-5.58-.72-8.36-1.2-2.09-.37-4.2-.75-6.28-1.24A5.39,5.39,0,0,1,361,728.4a3.12,3.12,0,0,1,1.6-4.17,18.2,18.2,0,0,1,5.51-1.22,86.26,86.26,0,0,1,12.34-.86c1.88,0,3.76.08,5.64.22a50.55,50.55,0,0,1-7.49-3.69,51.67,51.67,0,0,1-5.29-3.52c-1.55-1.19-2.91-3-2.42-5.11a4.06,4.06,0,0,1,4.65-2.8,10.19,10.19,0,0,1,3.06,1c.94.44,1.87.9,2.79,1.36a123.23,123.23,0,0,1,10.83,6.17q1.93,1.21,3.82,2.52c-.87-1.22-1.72-2.45-2.53-3.72a81.9,81.9,0,0,1-6.92-12.93c-.83-2-1.43-4.36-.5-6.42a4.53,4.53,0,0,1,5.73-2.1c2.29.82,3.7,2.77,4.85,4.82q2.06,3.69,4.09,7.4,2.22,4,4.42,8.09c.05.11.11.21.17.32a56.28,56.28,0,0,1,.25-6.63c.2-2.2.52-4.39.93-6.56.34-1.73.58-3.77,1.69-5.22a2.92,2.92,0,0,1,4.49-.49c1.3,1.26,1.54,3.39,1.84,5.08a55.15,55.15,0,0,1,.85,12.57c-.09,1.58-.24,3.17-.48,4.74.91-1.24,1.87-2.45,2.87-3.61a52.17,52.17,0,0,1,6.68-6.53c1.17-1,2.49-2,4.11-1.65a2.58,2.58,0,0,1,1.71,3.56,30.67,30.67,0,0,1-2.2,4.31c-.79,1.43-1.63,2.82-2.52,4.19s-1.79,2.64-2.76,3.92a26.72,26.72,0,0,1,8.13-1.86,28.26,28.26,0,0,1,10.26,1.18,24.46,24.46,0,0,1,4.79,2.06c1.35.77,2.69,2.16,2.15,3.85s-2.47,2.18-4,2.59c-2,.54-4,.94-6,1.32-1.23.23-2.46.45-3.7.64A38.66,38.66,0,0,1,439,732a41.86,41.86,0,0,1,9.93,3.6,34.64,34.64,0,0,1,4.52,2.74A5.64,5.64,0,0,1,456.12,742.1Z"/><path class="cls-6" d="M384.35,766.17a1.1,1.1,0,0,1-.51,0s-.07,0-.08,0l-.12-.06-.15-.08a1.33,1.33,0,0,1-.48-.77,3,3,0,0,1,0-1.33,9.21,9.21,0,0,1,.63-1.73c.6-1.38,1.22-2.76,1.83-4.14s1.25-2.77,1.83-4.18c.34-.83.71-1.65,1-2.48.14-.36.21-.73.32-1.1a2.92,2.92,0,0,0,.13-.42,3.63,3.63,0,0,0,.5-.75.87.87,0,0,0-.73-1.18c-1.51,0-2.87,1.08-4.12,1.82s-2.42,1.53-3.62,2.29-2.38,1.54-3.57,2.32a17.53,17.53,0,0,1-3.06,1.75,4.65,4.65,0,0,1-2.81.33,2.22,2.22,0,0,1-1.72-1.36c-.82-2.21,1.6-4.19,3.06-5.41a80.91,80.91,0,0,0,7.13-6.34c.57-.6-.22-1.36-.87-1.14a.62.62,0,0,0-.76-.51c-.86.15-1.72.18-2.57.38s-1.64.39-2.47.55c-1.46.29-2.91.59-4.38.8s-3.16.37-4.74.45a8.56,8.56,0,0,1-3.42-.22A1.16,1.16,0,0,1,360,742c.53-1.12,1.89-1.53,3-1.86,3.16-1,6.33-1.89,9.5-2.83,3.55-1.07,7.09-2.18,10.59-3.42a.68.68,0,0,0,.42-.44c.62,0,1.25,0,1.88,0,.83,0,.8-1.24,0-1.4-4-.86-8-1.32-12-2-1.94-.34-3.88-.71-5.8-1.11a10.7,10.7,0,0,1-4-1.21c-.24-.18-.43-.43-.41-.61a.49.49,0,0,1,.24-.38,2.38,2.38,0,0,1,.65-.36,10.09,10.09,0,0,1,2.11-.48c.94-.15,1.89-.29,2.83-.41a92.37,92.37,0,0,1,11-.81c2.11,0,4.22,0,6.32.09a44.48,44.48,0,0,0,6.42.19.77.77,0,0,0,.62-1,1,1,0,0,0,.74-.93c0-.62-.75-1.12-1.25-1.36a24.19,24.19,0,0,0-2.88-1.06c-.95-.33-1.89-.69-2.83-1a52.52,52.52,0,0,1-10.55-5.4,16.31,16.31,0,0,1-2.22-1.67,2,2,0,0,1-.78-1.74c.11-.48.65-.69,1.18-.71a5.77,5.77,0,0,1,2.58.8,149.37,149.37,0,0,1,21.4,12.3,13.43,13.43,0,0,0,2.05,1.28c1.1,1.23,2.25,2.42,3.44,3.59.67.66,1.76-.46,1.16-1.18A113.79,113.79,0,0,1,390,703.44c-.85-1.78-1.93-3.72-2-5.75a2.08,2.08,0,0,1,2.94-2.27c1.95.6,2.9,3,3.74,4.61,1.23,2.45,2.45,4.91,3.7,7.35,1.37,2.69,2.7,5.4,4.12,8.06.72,1.35,1.4,2.73,2.19,4,.38.64.76,1.29,1.18,1.9.08.11.15.22.23.32s.05.25.07.38a.8.8,0,0,0,1,.64l.4.25a.79.79,0,0,0,.62,0c.16-.06.37-.43.45-.45.69-.13-.47-2.94-1.13-4.39a65.85,65.85,0,0,1,1.77-19.79c.16-.62.73-2.42,1.59-2,.46.25.68,1,.82,1.47a25.85,25.85,0,0,1,.53,2.59,47.84,47.84,0,0,1,.5,11.34A57.9,57.9,0,0,1,412,718c-.19,1.06-.37,2.12-.59,3.18-.29,1.32-.5,2.65-.74,4a.89.89,0,0,0,.7,1,.92.92,0,0,0,1.05-.56,21.14,21.14,0,0,0,1.31-3.15,68.25,68.25,0,0,1,10.17-11.76A26.89,26.89,0,0,1,427,708c.23-.15.85-.56,1.16-.33s0,.72-.12,1a38.62,38.62,0,0,1-2.15,3.88q-1.15,1.93-2.43,3.79c-.9,1.32-1.85,2.63-2.82,3.9a37.87,37.87,0,0,0-3,4.13.94.94,0,0,0,1.37,1.26,13.29,13.29,0,0,0,1.82-1.7,25.3,25.3,0,0,1,22.13-.44,16.54,16.54,0,0,1,2,1.05c.42.26,1.25.74,1.25,1.33,0,1-2.51,1.18-3.15,1.33-1.85.41-3.7.81-5.56,1.15-4.06.74-8.16,1.2-12.22,1.91-.9.15-1,1.64,0,1.66h1.31c-.17.39-.05.89.49.91,6.24.26,12.4,1,18.17,3.54a38.84,38.84,0,0,1,4.21,2.16,17,17,0,0,1,3.45,2.42,2.33,2.33,0,0,1,.78,1.28.9.9,0,0,1-.33.81c-.92.77-2.5.67-3.6.56a13.73,13.73,0,0,1-4.35-1.15,10.3,10.3,0,0,1-.94-.47,17.47,17.47,0,0,0-3.07-4,9.87,9.87,0,0,0-1.2-1c-.67-.45-1.75-.71-2.32.06-.91,1.21.59,2.72,1.31,3.64a27,27,0,0,1,3.2,4.93,8.62,8.62,0,0,1,.91,2.67,3.16,3.16,0,0,1,0,1.18,2.06,2.06,0,0,1-.35.79c-.05.06-.33.36-.28.32a3.62,3.62,0,0,1-.42.36L442,751l-.13.07c-.2.08-.39.17-.59.24a4.32,4.32,0,0,1-2.3.1,6.32,6.32,0,0,1-1.5-.51c-.41-.41-.84-.81-1.29-1.18a22.15,22.15,0,0,0-1.81-1.38,4.55,4.55,0,0,0-2.82-1.17c-.67,0-.92.86-.71,1.38a5.24,5.24,0,0,0,1.51,1.74c.22.19.43.39.64.59a11.82,11.82,0,0,0,1,.92c.71.72,1.4,1.48,2.06,2.25,1.21,1.42,2.95,3.27,3,5.2a2.21,2.21,0,0,1-.19,1,4,4,0,0,1-.76,1.09,3.93,3.93,0,0,1-2.26,1,8,8,0,0,1-5.52-1.83,28.43,28.43,0,0,1-2.69-2.33,29.35,29.35,0,0,0-3.3-2.69c-.6-.42-1.5.23-1.17.87a1.51,1.51,0,0,0-.29-.13,1.1,1.1,0,0,0-1.35.72,6.22,6.22,0,0,0,.28,3.16c.27,1.06.56,2.12.89,3.18.55,1.75,1.1,3.5,1.7,5.23.28.79.58,1.58.79,2.39,0,.15.08.29.11.43a2.72,2.72,0,0,0,.09.43,5.44,5.44,0,0,1,0,.57,3,3,0,0,0,0,.4,3.11,3.11,0,0,1-.11.41l-.07.18-.21.27a1.61,1.61,0,0,1-.23.22l-.09.06-.36.19-.34.1-.42.08a1.78,1.78,0,0,0-.4,0,4.9,4.9,0,0,1-.67-.07c-.11,0-.61-.18-.84-.26a10.15,10.15,0,0,1-1.85-.89,16.6,16.6,0,0,1-6.09-6.41c-1.42-2.63-1.75-5.47-2.23-8.36a.82.82,0,0,0-.43-.56,15.5,15.5,0,0,0-.4-2,1,1,0,0,0-2-.11c-1,3.38-.93,6.95-1.24,10.43-.15,1.69-.32,3.39-.52,5.08a18.44,18.44,0,0,1-.81,4.26,4.58,4.58,0,0,1-.9,1.5l-.12.13c-.14.11-.27.23-.42.33a1.7,1.7,0,0,0-.14.1,3.11,3.11,0,0,1-.5.21,3.19,3.19,0,0,1-2.82-1,9.34,9.34,0,0,1-1.94-3.27,22,22,0,0,1-1.17-4,21.64,21.64,0,0,1-.35-4.75c0-.75.08-1.51.16-2.25.12-1.07.41-2.11.51-3.17h0a1.34,1.34,0,0,0,0-.21.86.86,0,0,0-.57-1c-.79-.38-1.71.42-2.38.77a19.17,19.17,0,0,0-1.91,1.21c-2.26,1.55-4.41,3.24-6.6,4.87A6.41,6.41,0,0,1,384.35,766.17Z"/><path class="cls-7" d="M418,735.57a6,6,0,0,0-2.33-1l-1-.22c1.32-.88,2.63-1.74,3.86-2.74a1.74,1.74,0,0,0-2.24-2.67,45,45,0,0,0-3.72,3,1.56,1.56,0,0,0-.47,1.83h0a1.1,1.1,0,0,0-.67,0c.26-.46.51-.93.76-1.36a1.8,1.8,0,0,0-.29-2.33,1.78,1.78,0,0,0-2.34,0c-.12.14-.25.27-.37.4a11,11,0,0,0,.39-3.79c0-1.63-2.43-1.65-2.77-.16a19.64,19.64,0,0,0-.45,2.26,5.87,5.87,0,0,0,0,1.39c0-.05,0-.09-.05-.13a1.28,1.28,0,0,0-.4-.52c-.13,0-.19-.14-.15-.26a5,5,0,0,0-.61-.6,1,1,0,0,0,1.12-.66,1.05,1.05,0,0,0-.05-.76q-.32-.35,0-.15c0-.2-.05-.41-.09-.61a3.12,3.12,0,0,1,0-2.15,1.21,1.21,0,0,0-2.09-1.21c-.83,1.31-1.14,3.36-.2,4.65-.73-.46-1.51-.88-2.22-1.38-1.1-.77-2.18.8-1.41,1.74s1.37,2,2.18,2.9a4.64,4.64,0,0,0,1.71,1.34,1.74,1.74,0,0,0,2.2-1,1.55,1.55,0,0,0,.09-.74,2,2,0,0,0,.47.81,1.13,1.13,0,0,0,1.1.32,7.75,7.75,0,0,0-1.36,2.12,1.93,1.93,0,0,0,.87,2.19,2.16,2.16,0,0,0,.51.2h0a1.84,1.84,0,0,0,1.74-.37h0l.13-.1a4.94,4.94,0,0,0,.47-.45,1.52,1.52,0,0,0,.92,1.39c1.93.84,3.92,2.17,6.08,2a1.73,1.73,0,0,0,1.37-1.39A1.79,1.79,0,0,0,418,735.57Z"/><path class="cls-7" d="M400.07,733.33a2.07,2.07,0,0,0-2-1.22c-1.54.19-2.89,1-4.48.56-1.43-.4-2.4,1.87-1.19,2.67a7.08,7.08,0,0,0,3.7,1.38,5,5,0,0,0,3.59-1.08A2.09,2.09,0,0,0,400.07,733.33Z"/><path class="cls-7" d="M405.77,733.74a1.74,1.74,0,0,0-2.27-.06L403,734l-.08.06-.11.06a5.12,5.12,0,0,0-1.28.88,2,2,0,0,0-.55,1.34c-.54.64-1,1.31-1.52,2a12.5,12.5,0,0,0-.86,1.4,15.59,15.59,0,0,0-.7,1.7,1.6,1.6,0,0,0,2.75,1.59c.2-.21.47-.38.67-.6s.42-.52.62-.78a14,14,0,0,0,.87-1.3c.38-.63.74-1.28,1.07-1.94l.34-.15a3.09,3.09,0,0,0,.8-.43,1,1,0,0,0,.36-.36,2,2,0,0,0,.13-.17,1.84,1.84,0,0,0,.25-.23,1.43,1.43,0,0,0,.32-1.21A1.75,1.75,0,0,0,405.77,733.74Z"/><path class="cls-7" d="M406.78,743.6a3.59,3.59,0,0,0,.07-.65,13.3,13.3,0,0,0-.42-2.32c-.42-1.94-3.48-1.81-3.54.26a10.32,10.32,0,0,0,.07,2.72c.32,1.38,2,2.35,3.14,1.3a1.68,1.68,0,0,0,.42-.56,1.32,1.32,0,0,0,.12-.26A1,1,0,0,0,406.78,743.6Z"/><path class="cls-7" d="M411,739.57c-.4-.71-.83-1.4-1.25-2.1a1.62,1.62,0,0,0-2.12-.39,1.67,1.67,0,0,0-.67,2c.25.72.5,1.45.77,2.17a7.3,7.3,0,0,0,.5,1.06,2.75,2.75,0,0,0,1.24,1.17c1,.55,2.15-.48,2.29-1.44A4.24,4.24,0,0,0,411,739.57Z"/><path class="cls-7" d="M403,733a4.42,4.42,0,0,0-1-2.37c-.39-.54-.79-1.08-1.22-1.6-.95-1.17-1.93-2.3-2.9-3.46s-2.56.26-1.86,1.38,1.5,2.47,2.26,3.69c.37.59.76,1.16,1.16,1.72a8.54,8.54,0,0,0,.59.73,3.38,3.38,0,0,0,1.48,1A1.18,1.18,0,0,0,403,733Z"/><path class="cls-7" d="M416.57,721.91a5.48,5.48,0,0,0-2.15,1.23c-.31.31-.6.64-.89,1-.78.88-1.57,1.76-2.35,2.65a1.69,1.69,0,0,0,.23,2.24,1.72,1.72,0,0,0,2.26.08l2.56-2.39c.92-.85,2-1.89,2.13-3.21A1.4,1.4,0,0,0,416.57,721.91Z"/><path class="cls-42" d="M575.15,713.45a2.75,2.75,0,0,0,1.65.69,6.39,6.39,0,0,0,1.2.17l.51.41a14.87,14.87,0,0,0,4.57,2.37,69.49,69.49,0,0,0,12.73,2.54c-3.51,1-7.48,2.28-9.68,4.11a12.11,12.11,0,0,0-2.64,3c-.44.73-.67,1.8-1.45,2.42s.24,1.26,1.48,1.21a35.85,35.85,0,0,0,6.81-1.49,48.16,48.16,0,0,0,7.14-2.09,16,16,0,0,0,4.82-2.88,14.54,14.54,0,0,0,.46,3.23c.68,2.57,3.22,4.81,5.51,7.11.53.53,2.19.6,2.54,0,1.62-2.86,2.91-5.46,1.68-8.57a9.63,9.63,0,0,0-2.19-3.12l.16,0a50,50,0,0,0,9.73,1.57,72.91,72.91,0,0,0,8.77-.27c2.87-.22,7.38-.3,9.6-1.35.57-.27.71-.76.15-1.1a31.66,31.66,0,0,0-6.63-2.34,40.15,40.15,0,0,0-6.9-1.51,69.19,69.19,0,0,0-11.64-.36,25,25,0,0,0,2.32-1.15,26.67,26.67,0,0,0,5.38-4,9.37,9.37,0,0,0,2.63-4.43c.35-1.29,1.16-3.07-.41-4.26a2.62,2.62,0,0,0-2.48,0,39.71,39.71,0,0,1-5.25,3.1c-1.61.79-3.19,1.62-4.68,2.47a14.37,14.37,0,0,0-3.88,3c-.1.13-.2.26-.29.4a15.93,15.93,0,0,0-1.87-2.6c-2.15-2.55-5.92-5-9.45-7.13-1.22-.72-3.43,0-2.63.85,1.25,1.39.7,2.74.56,4.16a4.77,4.77,0,0,0,1,3.35c.76,1,1.72,2.07,2.5,3.13a56.89,56.89,0,0,0-5.89-1.41,58.67,58.67,0,0,0-8.33-1,25.23,25.23,0,0,0-6.87.53C575.13,712.57,574.74,713,575.15,713.45Z"/><path class="cls-43" d="M606.48,718.8a2.29,2.29,0,0,0,1.49.37h-.23a1.77,1.77,0,0,0,1.32-.36.48.48,0,0,0-.18-.81l.1.1a2.07,2.07,0,0,0-1.2-.46,1.9,1.9,0,0,0-1.39.39C606.15,718.28,606.18,718.56,606.48,718.8Z"/><path class="cls-43" d="M605.3,721.92c1.67-.13,1.14-1.5-.53-1.38S603.62,722.05,605.3,721.92Z"/><path class="cls-43" d="M602.36,719.4c1.67-.12,1.15-1.5-.53-1.38S600.68,719.53,602.36,719.4Z"/><path class="cls-43" d="M604.38,716.33c1.66-.12,1.14-1.5-.53-1.37S602.71,716.46,604.38,716.33Z"/><path class="cls-43" d="M598.6,717.36c1.4-.1,1-1.26-.45-1.16S597.19,717.47,598.6,717.36Z"/><path class="cls-43" d="M608.66,720.7c.8,0,.82-.62,0-.65S607.86,720.67,608.66,720.7Z"/><path class="cls-43" d="M610.34,716.59a.65.65,0,0,0,.32-.22.51.51,0,0,0,.26-.24c.12-.26-.12-.57-.58-.72-.87-.28-1.74.19-1.79.63S609.57,716.89,610.34,716.59Z"/><path class="cls-43" d="M612.47,719.42a.62.62,0,0,0,.25.09c.26.06.53,0,.54-.19s-.26-.26-.52-.23a.91.91,0,0,0-.26.06C612.34,719.23,612.33,719.34,612.47,719.42Z"/><path class="cls-43" d="M607.76,723.18a1,1,0,0,0,.35.06c.22,0,.38-.07.4-.19v0c0-.21-.45-.26-.66-.13S607.46,723.1,607.76,723.18Z"/><path class="cls-43" d="M599.91,720.29l.21,0c.54-.16-.15-.56-.51-.3a.33.33,0,0,0-.1.11C599.47,720.2,599.65,720.3,599.91,720.29Z"/><path class="cls-43" d="M601.19,716.52l0,0c.36.22,1-.07.6-.28l-.05,0a.74.74,0,0,0-.49,0,.48.48,0,0,0-.16.07C601.05,716.34,601.07,716.45,601.19,716.52Z"/><path class="cls-43" d="M603.91,717.56a.92.92,0,0,0,.25.08c.64.12.67-.47,0-.4a.51.51,0,0,0-.25.06A.13.13,0,0,0,603.91,717.56Z"/><path class="cls-43" d="M607.82,714.28a.28.28,0,0,0,.13.11c.31.22.94-.08.56-.26a.84.84,0,0,0-.19-.08C608,714,607.67,714.1,607.82,714.28Z"/><path class="cls-43" d="M600.31,714.25c.5,0,.52-.39,0-.41S599.8,714.23,600.31,714.25Z"/><path class="cls-43" d="M597.1,718.24c.41,0,.54-.33,0-.35-.3,0-.48.05-.51.21S596.91,718.29,597.1,718.24Z"/><path class="cls-43" d="M612.38,714.85l.13,0c.55-.13-.18-.56-.5-.29l-.07.06C611.77,714.74,612.08,714.93,612.38,714.85Z"/><path class="cls-43" d="M604,712.94c.51,0,.52-.39,0-.41S603.46,712.92,604,712.94Z"/><path class="cls-42" d="M536.18,627.77c-.19-.84-.7-1.2-1.54-1.87a7.37,7.37,0,0,0-1.34-.87c-.13-.33-.34-.84-.34-.86a18.32,18.32,0,0,0-4-5.83c-3.87-4-8.82-7.13-13.71-10.29,4.92.28,10.52.49,14.36-1.06a19.45,19.45,0,0,0,5.16-3.12c1-.84,2-2.29,3.32-2.81s.54-2-1-2.53c-2.9-1-6.38-1-9.18-1.32a54.27,54.27,0,0,0-10-.6,20.65,20.65,0,0,0-7.68,1.76,29.21,29.21,0,0,0,1.54-5c.85-4.13-.75-8.73-2-13.28-.29-1.07-2.26-2-3.08-1.3-3.8,3.38-7.06,6.53-7.6,11.73a15.9,15.9,0,0,0,.62,5.71l-.16-.14a54.08,54.08,0,0,0-10.72-7.32,76.85,76.85,0,0,0-10.76-4.12c-3.59-1.15-9.09-3.35-12.45-2.95-.86.1-1.35.75-.88,1.53,1.5,2.55,4.1,4.63,6.46,6.86a44.86,44.86,0,0,0,7.35,5.76,72.78,72.78,0,0,0,13.8,6.53,30.13,30.13,0,0,0-3.54.49,36.72,36.72,0,0,0-9.09,3.11,16.25,16.25,0,0,0-6.05,5.16c-1.26,1.71-3.4,3.9-2.28,6.46a2.86,2.86,0,0,0,3,1.27,51.52,51.52,0,0,1,8.35-1.86c2.45-.33,4.9-.74,7.25-1.22a20,20,0,0,0,6.63-2.44c.21-.13.42-.28.61-.42a28.17,28.17,0,0,0,.56,4.78c.94,4.85,3.88,10.44,6.77,15.33,1,1.7,4.12,1.84,3.73.11-.61-2.69.94-4.39,2-6.41a8.84,8.84,0,0,0,1-5.41c-.22-2-.72-3.94-1-5.9a58.17,58.17,0,0,0,6.18,5.1,62.71,62.71,0,0,0,9.41,5.74c2.43,1.14,6.15,2.63,8.63,2.75C535.63,629.07,536.38,628.65,536.18,627.77Z"/><path class="cls-43" d="M501.88,603.78a2.63,2.63,0,0,0-1.56-1.31l.28.1a2.05,2.05,0,0,0-1.83-.15.87.87,0,0,0-.31,1.29l-.06-.21a2.4,2.4,0,0,0,1.16,1.3,2.23,2.23,0,0,0,1.93.15A.87.87,0,0,0,501.88,603.78Z"/><path class="cls-43" d="M505.33,599.8c-2.1-.67-2.36,1.62-.26,2.3S507.43,600.48,505.33,599.8Z"/><path class="cls-43" d="M507.23,605c-2.09-.68-2.36,1.62-.25,2.3S509.34,605.7,507.23,605Z"/><path class="cls-43" d="M502.8,608.49c-2.09-.67-2.36,1.62-.26,2.29S504.9,609.17,502.8,608.49Z"/><path class="cls-43" d="M510.44,610c-1.76-.57-2,1.36-.21,1.93S512.22,610.52,510.44,610Z"/><path class="cls-43" d="M500.48,599.87c-.94-.46-1.4.48-.45.94S501.42,600.33,500.48,599.87Z"/><path class="cls-43" d="M495.78,605a1.18,1.18,0,0,0-.53.15,1,1,0,0,0-.47.23c-.32.33-.23.9.24,1.36a1.72,1.72,0,0,0,2.55,0C498,606.06,496.91,605,495.78,605Z"/><path class="cls-43" d="M495.05,599.78a.73.73,0,0,0-.24-.26c-.28-.21-.68-.19-.77,0s.14.52.47.61a.86.86,0,0,0,.35,0C495.08,600.13,495.16,600,495.05,599.78Z"/><path class="cls-43" d="M503.18,596.68a1.36,1.36,0,0,0-.39-.27c-.26-.11-.5-.09-.6.07l0,.07c-.17.29.38.6.71.53S503.48,597,503.18,596.68Z"/><path class="cls-43" d="M510.76,605a.91.91,0,0,0-.27-.05c-.76,0-.19.9.42.7a.28.28,0,0,0,.18-.11C511.23,605.34,511.09,605.1,510.76,605Z"/><path class="cls-43" d="M506.76,609.85l0-.07c-.29-.5-1.23-.4-.91.1l0,.07a.84.84,0,0,0,.56.34.54.54,0,0,0,.23,0A.26.26,0,0,0,506.76,609.85Z"/><path class="cls-43" d="M504.16,606.93a1,1,0,0,0-.25-.25c-.69-.5-1.11.34-.28.58a.8.8,0,0,0,.34,0A.23.23,0,0,0,504.16,606.93Z"/><path class="cls-43" d="M497.32,609.73a.74.74,0,0,0-.08-.22c-.25-.49-1.19-.37-.86.09a1.24,1.24,0,0,0,.18.22C496.9,610.12,497.37,610.08,497.32,609.73Z"/><path class="cls-43" d="M506.36,613.65c-.6-.29-.89.31-.29.6S507,613.94,506.36,613.65Z"/><path class="cls-43" d="M512.82,609.44c-.46-.29-.86.19-.29.48.35.18.62.17.75,0S513.08,609.45,512.82,609.44Z"/><path class="cls-43" d="M492.18,606.54l-.17,0c-.76-.08-.14.93.42.69l.12-.05C492.85,607,492.59,606.59,492.18,606.54Z"/><path class="cls-43" d="M501.09,613.68c-.6-.29-.88.31-.28.6S501.69,614,501.09,613.68Z"/></svg>