<svg id="Layer_1" data-name="Layer 1" xmlns="http://www.w3.org/2000/svg" viewBox="0 0 76.58 52.26"><defs><style>.cls-1{fill:#72d6f6;stroke:#2d9e9b;}.cls-1,.cls-2,.cls-5,.cls-6{stroke-miterlimit:10;stroke-width:0.75px;}.cls-2{fill:#fee42b;stroke:#a07324;}.cls-3{fill:#c6691c;}.cls-4{fill:#eaa542;opacity:0.61;}.cls-5{fill:#26a3ef;}.cls-5,.cls-6{stroke:#3d7be0;}.cls-6{fill:none;}.cls-7{fill:#000068;opacity:0.4;}.cls-8{fill:#fff;}</style></defs><path class="cls-1" d="M58.47,34.21s-9.29-20-14.07-27.56S18.81,7.78,17.28,11.18,58.47,34.21,58.47,34.21Z"/><path class="cls-2" d="M59.45,35.16A112.53,112.53,0,0,1,48.08,19.42c-5.36-9-21.72-14.94-32.3-6.92,0,0-5.89,6-8,4.32s-3.08-1.15-2.55.9,5.9,9.19,14.64,13.64,13.79,3.15,16.26,2.21,9-3.9,16.59-1.72C52.75,31.85,59.23,35.79,59.45,35.16Z"/><path class="cls-3" d="M17.83,23.18s-8,.59-12.35-6.29l-.25-.7s-.62,2.51,4.41,5.59S17.83,23.18,17.83,23.18Z"/><path class="cls-4" d="M58.72,34.48l-.11,1.09-5.86-3.72c-5.54-2.4-18.22,2.23-18.22,2.23S24.7,36.74,14.47,28s-9-11.1-9-11.1C8.31,23.67,21,28.78,25.36,30.73S43.47,28.28,49.2,29a14.55,14.55,0,0,1,9,5.15l.08.11"/><path class="cls-3" d="M20.32,23.87S17.6,24,18,22s-.9.8-.14,1.57S20.32,23.87,20.32,23.87Z"/><path class="cls-1" d="M30.93,24.72s-.64-9.23-6.32-14.85l3.76-.28S33.53,17.77,30.93,24.72Z"/><path class="cls-1" d="M36.42,27.52s2.08-8.21-6.12-18l5.49,1.35S41.18,20.54,36.42,27.52Z"/><path class="cls-1" d="M41.36,25.63s1.71-7.58-1.77-12.71l5.35,4S44.26,23.23,41.36,25.63Z"/><path class="cls-1" d="M47.65,26.85s.46-7.59-.35-8.61,3.12,4.91,3.12,4.91Z"/><polygon class="cls-1" points="50.9 28.5 52.01 25.52 53.08 27.05 50.9 28.5"/><path class="cls-1" d="M25.2,24.17a23.21,23.21,0,0,0,6.47,4c4.28,1.87-6.4,7.53-6.31,4C25.4,30.77,25.2,24.17,25.2,24.17Z"/><path class="cls-5" d="M58.43,34a12.24,12.24,0,0,1,12.84-.44s-3.45,4.73-6.3,5c0,0,1.37,7-1.32,10,0,0-7.09-5.39-5.83-13.34Z"/><line class="cls-5" x1="64.97" y1="38.5" x2="58.16" y2="34.82"/><path class="cls-6" d="M64.74,45.82c-4.52-2.93-6.92-10.65-6.92-10.65L58.43,34s8.46-.47,11.43,1.09"/><path class="cls-1" d="M28,8.73s3.7-4.07,7.29-5"/><path class="cls-1" d="M23.86,9a30.42,30.42,0,0,1,4.05-3.74"/><path class="cls-1" d="M35,10s3.66-4.94,7.18-5.42"/><path class="cls-1" d="M45.29,8.12s-3.2,0-6.57,3.22"/><path class="cls-1" d="M43.94,14.68s2.67-2.09,4-1.75"/><path class="cls-1" d="M49.55,15.94s-2.74-.45-3.77.46"/><path class="cls-1" d="M50.87,18.53a13.32,13.32,0,0,0-3.4.08"/><path class="cls-1" d="M52.68,22.17s-2.32-1.49-3.61-1.08"/><path class="cls-1" d="M54.28,25.43s-2.06-1.44-3-1"/><path class="cls-7" d="M14.08,16.44a2.52,2.52,0,1,0,3.29-1.33A2.5,2.5,0,0,0,14.08,16.44Z"/><path class="cls-8" d="M14.19,16a2.24,2.24,0,1,0,2.92-1.18A2.22,2.22,0,0,0,14.19,16Z"/><path d="M14.61,16.16a1.78,1.78,0,1,0,2.32-.94A1.76,1.76,0,0,0,14.61,16.16Z"/><path class="cls-8" d="M17.67,17.28a1.75,1.75,0,0,0,0-1.27,1.76,1.76,0,0,1,.05,1.44,1.67,1.67,0,0,1-2.17.94,1.61,1.61,0,0,1-.89-.94,1.6,1.6,0,0,0,.81.77A1.67,1.67,0,0,0,17.67,17.28Z"/><path class="cls-8" d="M15.77,15.35a.74.74,0,0,0,.4,1A.73.73,0,0,0,16.73,15,.74.74,0,0,0,15.77,15.35Z"/><path class="cls-8" d="M15.22,16.28a.24.24,0,0,0,.45.19.24.24,0,0,0-.14-.31A.23.23,0,0,0,15.22,16.28Z"/></svg>