<?xml version="1.0" encoding="utf-8"?>
<!-- Generator: Adobe Illustrator 25.2.0, SVG Export Plug-In . SVG Version: 6.00 Build 0)  -->
<svg version="1.1" id="Layer_1" xmlns="http://www.w3.org/2000/svg" xmlns:xlink="http://www.w3.org/1999/xlink" x="0px" y="0px"
	 viewBox="0 0 224.8 652.3" style="enable-background:new 0 0 224.8 652.3;" xml:space="preserve">
<style type="text/css">
	.st0{opacity:0.3;fill:#212121;enable-background:new    ;}
	.st1{fill:#BF895C;stroke:#A46938;stroke-width:2.35;stroke-linecap:round;stroke-linejoin:round;}
	.st2{fill:#F37E5B;stroke:#984225;stroke-width:2.35;stroke-linecap:round;stroke-linejoin:round;}
	.st3{fill:#F79E77;}
	.st4{fill:#C8BA7F;stroke:#785F3E;stroke-width:2.35;stroke-linecap:round;stroke-linejoin:round;}
	.st5{fill:#B39761;}
	.st6{fill:#D86C27;stroke:#993120;stroke-width:2.35;stroke-linecap:round;stroke-linejoin:round;}
	.st7{fill:#F58C6D;stroke:#D76C4F;stroke-width:2.35;stroke-linecap:round;stroke-linejoin:round;}
	.st8{fill:#F8B5AA;stroke:#CB6052;stroke-width:2.35;stroke-linecap:round;stroke-linejoin:round;}
	.st9{fill:#DF6841;stroke:#A73924;stroke-width:2.35;stroke-linecap:round;stroke-linejoin:round;}
	.st10{fill:#C84E2C;}
	.st11{fill:#E86B46;}
	.st12{fill:#222636;stroke:#0F1016;stroke-width:2.35;stroke-linecap:round;stroke-linejoin:round;}
	.st13{fill:#211515;}
	.st14{fill:#F37E5B;}
	.st15{fill:#DC6549;}
	.st16{fill:#E9DDAB;stroke:#927951;stroke-width:2.35;stroke-linecap:round;stroke-linejoin:round;}
	.st17{fill:#F6EFD2;}
	.st18{fill:#DCAD80;stroke:#A46938;stroke-width:2.35;stroke-linecap:round;stroke-linejoin:round;}
	.st19{fill:#FCC99E;}
	.st20{fill:#FFDFB4;}
	.st21{fill:#FBB345;}
	.st22{fill:#FDE349;}
	.st23{fill:#E96B4E;stroke:#B2432F;stroke-width:2.35;stroke-linecap:round;stroke-linejoin:round;}
	.st24{fill:#C5472D;}
	.st25{fill:#ED7154;stroke:#A03B28;stroke-width:2.35;stroke-linecap:round;stroke-linejoin:round;}
	.st26{fill:#F59475;}
	.st27{opacity:0.5;fill:#957464;enable-background:new    ;}
	.st28{fill:#471F1D;}
	.st29{fill:#ED7154;}
	.st30{fill:#9E4229;}
	.st31{fill:#F9B496;}
	.st32{fill:#D25A3E;}
	.st33{fill:#F9C0BF;}
	.st34{fill:#FFFBF7;}
	.st35{fill:#672C25;}
	.st36{fill:#965741;}
	.st37{fill:#040303;}
	.st38{fill:#190F0E;}
	.st39{fill:#EA7348;}
	.st40{fill:#DA4E48;}
	.st41{fill:#EB685D;}
	.st42{fill:#F27873;}
	.st43{fill:#A4312A;}
	.st44{fill:#FACABE;}
	.st45{fill:#721613;}
	.st46{fill:#F8EEEC;}
	.st47{fill:#422622;}
	.st48{fill:#5E3834;}
	.st49{fill:#663E35;}
	.st50{fill:#7C5042;}
	.st51{fill:#CC503B;}
	.st52{fill:#EE9C32;}
	.st53{fill:#B14F26;}
	.st54{fill:#FBF5AD;}
	.st55{fill:#F8A985;}
	.st56{fill:#DCAD80;}
	.st57{fill:#9A663A;stroke:#5B2B1A;stroke-width:2.35;stroke-linecap:round;stroke-linejoin:round;}
	.st58{fill:#834229;stroke:#5B2B1A;stroke-width:2.35;stroke-linecap:round;stroke-linejoin:round;}
	.st59{fill:#AA5834;}
	.st60{fill:#D68D51;}
</style>
<ellipse class="st0" cx="112.4" cy="612.5" rx="103.7" ry="29"/>
<path class="st1" d="M31.6,309.2c1.7,3.3,23.8-3.5,24.5-9.2S27.7,301.5,31.6,309.2z"/>
<path class="st2" d="M65.9,122c-17.9-0.7-35.6,12.7-33,35.3c0.3,2.4-4.2,14.3-4.9,16.1c-6.8,16.7,30.4,20.6,31,6.8
	c0.3-6.9,4.4-17.8,5.5-19.4"/>
<path class="st2" d="M31.2,164.4c-7.5,17.9-9.5,39.5-5.8,53.1c2.8,10.2,4.8,18.5,18,7.4c11.6-9.8,17.2-31,16-52.8"/>
<path class="st3" d="M50.2,193.4c-4.7,16.1-15.8,23.4-18.8,22.9c-7.3-1.2-7.8-28.6-2.4-39.2s6.5-15.7,5.8-24.9s9.7-25.7,22.8-26.2
	s21.3,2.2,31.9,2.4s1.4,6-8.4,7.2s-21.7-3.5-21,8.5s-1.7,20.4-6.3,25.9C49.5,175.1,54.1,180.1,50.2,193.4z"/>
<path class="st4" d="M103.7,464.2c-5.6,30.1,6.3,115,30.2,112.7c9-46.1,0.4-117.5,0.4-117.5"/>
<path class="st5" d="M105.7,522.2c4.6,13.4,14.3,47.3,32.4,44.3s-22.4-66.9-22.4-66.9"/>
<path class="st1" d="M52.3,337.6c-5.7,17.3-17.7,121-17.6,126.6c6.4,5.9,18.4,9.7,27,10.1S64.9,346,64.9,346"/>
<path class="st6" d="M133.7,98c-5.1-4.9-37.8-8.1-43.1-4.4s6.9,21.7,26.2,23.9S138.6,102.7,133.7,98z"/>
<path class="st7" d="M82.7,579c-0.3,3.8,2.6,12.9,0.9,16.8s-9,6.1-10.5,8.1s-6.3,9-8.2,11.3s-10,5-13.6,5.2s-14.1-7.8-13.6-12
	s22.1-23.8,23.1-29.5S83.3,572.3,82.7,579z"/>
<path class="st2" d="M165.8,124.1c13.3-0.3,23.7,16.3,24.7,40c0.1,2.5,0.2,6.8,1,8.7c6.7,17.6-26.8,21.4-27.7,10.3
	c-0.1-1.4-0.9-6.8-2.1-8.6C152.9,161.1,141.8,124.7,165.8,124.1z"/>
<path class="st2" d="M190.1,167.8c5.8,8.7,8.9,29.4,7.1,43.3c-1.6,12.7-4.4,29-17.6,17.1c-11.6-10.4-15.9-33.1-14.4-53.7"/>
<path class="st3" d="M168.1,127.4c5.5-1.5,16.1,6.6,17.8,20.4c1.6,12.9-1.6,16,2.9,25.2s11.9,23.8,6.4,42.8
	c-1.9,5.9-7.4,9.4-14.9-4.2s-8.2-25.5-7.2-32.5c1.7-11.8-5.6-18.5-8.4-27.4S159.4,129.9,168.1,127.4z"/>
<path class="st2" d="M197.3,207.8c1.5,3,3.7,12.4,2.7,21.6c-0.9,7.9-4.9,55.8-5.6,63.6c-0.6,6.6-12.8,5.8-12.8-0.8
	s-10.3-49.1-10.1-59.3c0.1-6.2,0.5-12.4,1.3-18.6"/>
<path class="st3" d="M191,203c8-0.5,8.7,14.8,8.8,23.8s-6.5,61.1-5.9,66.4s-6.5,5.2-6.9-0.5s-4.9-51.6-5.6-62.5S184,203.5,191,203z"
	/>
<path class="st8" d="M192.7,340.3c0.7,0.1,1.3,0.5,1.6,1.2c0.2,0.6-1.7,2.6-2.2,2.7s-1.4,0.2-1.2-0.9
	C191.2,342.2,191.8,341.2,192.7,340.3z"/>
<path class="st9" d="M190.1,316.5c0,0-0.6,4.6-2,6.7s-4.2,3.2-7.1,3.8s-3.6-0.9-2.1-2.7s4.9-3.4,5.3-4s0.7-4.1,1.3-5.8"/>
<path class="st10" d="M187.3,315c0.4,2.3-1.1,7.2-1.7,8.1c-1.4,1.6-3,2.8-4.9,3.7c3.6-1,5.8-1.7,7-3.7s2.5-8,2.5-8"/>
<path class="st9" d="M188.8,315.5c-0.4,1.8-1.4,8.4-1.7,9.8s-2.2,3.1-4.2,6s-1.5,5.1-0.2,5.4c2,0.4,9.4-6.9,10.6-10.2l3.3-8.4"/>
<path class="st10" d="M188.3,316.5c1.2,0.5,2,1.5,2.3,2.7c-0.1,3-0.5,5.9-1.4,8.8c-1.3,2.8-2.9,5.5-4.9,8c2.9-1.8,6.8-7.1,7.2-8.9
	s1.6-10,1.6-10"/>
<path class="st9" d="M192.4,316.7c-0.5,2-1.8,10.5-2.2,12s-2.8,3.5-4.9,6.8s-1.2,5.8,0.1,6.1c2.1,0.5,9.3-8,10.7-11.8
	s4.2-10.3,4.2-10.3"/>
<path class="st10" d="M193.2,317.9c1.2,0.9,2.8,1.8,3,3.4s-2.3,7.1-3.3,8.9s-3.9,8.1-6.4,10.3c3.6-2.1,10.3-10.6,11.1-13.6
	c0.6-2.8,1-5.6,1.2-8.4"/>
<path class="st2" d="M182.6,289.4c-1,3-3.2,6.3-3,10.1s4.2,10.6,4.8,13.1s2.6,4.1,8.4,5.3c7.6,1.6,8-3.6,7.9-9.2s-5.1-17.2-6-19.2"
	/>
<path class="st11" d="M184,296c1,4.1,0.7,9.3,0.8,12.2s0.1,4.5,0.7,5.5s6.5,4.4,9.1,2.9s4.7-5.4-0.2-9.6
	C190.6,303.7,187.1,300,184,296z"/>
<path class="st2" d="M198.1,297.9c1,2.2,5.4,8.5,5.7,13.3c0.2,5.4-0.4,10.8-1.7,16.1c-1,3.2-7.9,15.1-10.2,16.4
	c-1.6,0.1-3.2-2.2-1.8-5.1c1.4-3,5-9.1,5.6-10.5s2-12.2,2-12.2"/>
<path class="st2" d="M183.9,295c-0.1,2.2,1.9,8,3.3,9.9s5.9,5.1,6.3,6.7s-1.2,7-1.4,10.3s1,5.7,3.1,5.9s2.6-4.7,3.7-7.2
	s2.9-8,3-11.5c-0.1-2.4-0.7-4.8-1.8-7"/>
<path class="st3" d="M192.9,287.9c1.1,3.9,8.3,17.1,8.6,20.5c0.4,4.4-2.6,9.7-3.5,12.7s-1.2,5.6-2.6,5.8s-2.5-2.8-1.2-7.5
	s2.2-8.5,0.9-9.4s-4.2-2-6-4.5s-3.7-10.1-1.9-13.6S192.3,285.5,192.9,287.9z"/>
<path class="st3" d="M203.1,311.6c0.8,1.5-0.2,12.7-1.4,15.5s-7.7,15.7-10.5,15.3c-1.2-1.5-0.4-4.9,1.7-7.7c1.6-2.1,5.6-5.8,6.8-8
	S202.7,313.7,203.1,311.6z"/>
<path class="st8" d="M194.7,322.2c-0.6,1-0.8,2.2-0.5,3.4c0.5,0.7,1.4,1,2.2,0.6c0.6-0.5,1.4-2.8,1.1-3.3S195.1,321.9,194.7,322.2z"
	/>
<path class="st2" d="M149.7,577c2.8,5.3,25.8,25.1,40.6,30.1c6.8,6.5-11.4,11.5-22.8,8.4s-15.1-10.5-23.4-10.8s-18,1.4-19.6-6.5
	s3.5-17,4.8-25.1c0.9-6.4,1.3-12.8,1.2-19.3"/>
<path class="st3" d="M146,574.4c4.1,3.1,8.2,10.2,20.3,19.3s21.1,12.3,22.5,13.3c4,3-12.1,8.1-23.2,2.8
	c-7.9-3.7-15.9-11.7-22.5-11.8c-11.1-0.1-15.7-3.2-9.7-18.2C137.9,568.5,144.2,573.1,146,574.4z"/>
<path class="st2" d="M60.8,579.8c2.3-5.8,1.6-58.9-0.5-84.7s3.9-37.3,7.5-55.9s24.5-15.2,27.5-0.4c3.5,17.2,8,37.1,2.8,55.5
	s-16.5,69.8-15.6,75.8s3,9.4-2.4,14.4"/>
<path class="st3" d="M69.8,447c-3.1,8.2-7.2,29.5-6.7,40.8c0.7,14.6,2.3,76.4,0.1,83.9s-1.1,13.7,5.7,15.2s10.2-6.9,7.3-12.8
	S88.3,503,91,490.2c1.8-8.8,3.7-30.1,0-45.4C83.1,456,73.7,454.3,69.8,447z"/>
<path class="st2" d="M151.6,579.4c-1.8-6,1.4-57.6,5.8-83.1s1.8-32.9,1.7-51.8s-24.3-22.2-28.7-7.8c-5.1,16.8-15.2,37.9-11.3,56.6
	c3.9,18.7,14.2,64.3,12.7,70.3"/>
<path class="st3" d="M135.2,447.4c-4.9,12-7,31.8-6,40.8c1.4,13,10.9,74.4,7.4,79.9s-0.7,12.2,6,13.4s8.5-6.9,7.1-14.6
	s5.3-64,7.4-78.5c1.6-11.2,1.2-26.3-0.2-39.7C149,460.2,140.8,453.7,135.2,447.4z"/>
<path class="st2" d="M128.8,445.6c0.2-3.4,0-6.7-0.5-10.1c-2.7-26.1-16-72.7-10.7-125.4c2.1-20.7,44.4-42.8,49.1-20.8
	c11.4,53.8,0,125.5-8.8,157.5"/>
<path class="st3" d="M144.3,455.3c-7.7-0.6-7.9-11.2-6.9-18.3s-3.3-30.3-5.5-56.5c-2.4-29.8-2.4-54.6-2.4-54.6
	c10.4-3.2,28.4-15.2,37.2-22.8c2.9,12.1,1.9,74.9-2.8,104.1C158.9,438.6,154,456.1,144.3,455.3z"/>
<path class="st2" d="M163.7,283.6c1.5-6.2-0.3-24.3-4.9-32.7c-7.2-13.1-69.3-15.6-77.6,2.7c-4,8.8-6.7,27.1-4.8,33.3
	s38.7,25.8,51.5,26.6S161.8,291.5,163.7,283.6z"/>
<path class="st2" d="M93.4,446.4c1.2-1.6,2.2-3.4,3.1-5.2c10.7-23.7,30.5-103.8,26-127.6c-2.7-14.5-45-43-52.5-23.6
	c-14.4,37.4-3,119.7-3.5,142.5c0,4.5,0.9,8.9,2.8,13"/>
<path class="st3" d="M77.9,452.9c-7.1-3-5.7-14.2-5.5-21.3s-6.8-99.1,6.3-132.6c7.2-3.3,35.3,16,39.5,26.1
	c1.7,12.4-8.4,66.1-13.7,81.9c-3.9,11.6-7.9,22.6-10.1,30.4C92.4,444.7,86.9,456.7,77.9,452.9z"/>
<path class="st12" d="M123.5,323.4c-19.9-21.7-47.8-32.9-53.7-34.2c0.1-12.4,7.3-32.5,10.6-38.9c28.5,7.7,63.7,7.7,83.4,4.4
	c3.8,8.6,7.1,32.2,4.9,37C162.2,305.9,137.4,318.1,123.5,323.4z"/>
<path class="st13" d="M89.6,73.7c0.8,2.7,1.2,7.1,1.7,7.9s3,1.9,3,1.8s0-12.6-0.1-12.8"/>
<path class="st2" d="M94.1,66.6c0.3,15.1-0.6,31.4-4.1,36.9s-18.2,16.9-37.4,21.7c19.1,32.3,111.6,27.5,110.2-1.1
	c-6-2.6-25.3-8.3-27.9-12.9s-2.2-10.9-2.8-21.7S95.7,52.9,94.1,66.6z"/>
<path class="st11" d="M96.4,66.9c0.3,17.3-0.9,32.1-3.6,36.6c-5.6,9.3-20.6,17.4-25,19.4c9.3-2.4,37,4.9,41.7,3.4
	c-5.2-9.7-9.2-32.1-7.7-32.7s18.4,15.2,21.9,14.4c3.8-0.9,8.7-13,8.7-13C133.6,79.1,97.6,54.3,96.4,66.9z"/>
<path class="st3" d="M109.4,104.2c-1.1,0.8,8.7,23.3,12.4,21.7s9.6-19.8,9.1-20.9s-5.8,7.1-7.5,7.4S110.5,103.5,109.4,104.2z"/>
<path class="st14" d="M57.8,132.1c-7.1,8.2-5.6,29.1,1.8,48.6c7.4,19.4,23.7,38.6,23.4,49.7c-1.6,3-4.1,16.6-1.8,23.2
	c3.3,9.6,39.2,16.2,53.8,14.1c13.9-2,26.6-5.6,28.5-13s2.4-18.8-2-32.8c2.1-12.3,8.2-39.9,7.3-49.6c-0.4-4.6,3.1-8.7,3.8-13.1
	c2.5-16.9-2.5-32.8-12.6-36.1"/>
<path class="st2" d="M171.9,159.2c-0.7,4.5-3.6,9.9-3.1,14.5c0.9,9.6-5.2,35.9-7.3,48.2c4.4,14,3.9,25.3,2,32.8
	c-1.9,7.5-14.5,11-28.5,13c-14.6,2.1-50.5-4.5-53.8-14.1c-2.3-6.6,0.3-20.2,1.8-23.2c0.3-11.1-16.8-32.3-24.1-51.7"/>
<path class="st3" d="M76.5,130.7c-6.8,4-7.1,27.9,1,35.3c7.1,6.5,24,8.1,31.8,8.3c-11.3,4-29.2,1-33.2,4.9
	c-5,4.8,7.5,28.9,11.6,37.4s5.2,10.5,2.2,14.8s-6,16.3-0.4,23.1c4.4,5.4,25.2,13.7,45.2,10.9s24.4-10.8,26.3-18.4s1.2-17.1-0.9-21.6
	s-0.1-12,2.1-19.3c2.9-9.9,4.5-21.2,5.2-32c-2.6,0.1-15.7,3.2-23.6-0.2c6.7,0,21.5-4.4,25-10.1c4.4-7.3,4.3-32.8-3-36.3
	c-6.1-2.9-31.5,0.7-35.3,2.7c-5,2.7-3.6,11.5-5.2,11.5s-1.1-7.8-8-11.5C110.7,128.5,84.6,126,76.5,130.7z"/>
<path class="st14" d="M93.9,164.5c-4.1-0.7-5.9,3.7-1.4,4.7S100.2,165.6,93.9,164.5z"/>
<path class="st14" d="M136.3,238.6c-2.8,0.2-2.3,4.1,0,5.2C139.6,242.4,140.6,238.2,136.3,238.6z"/>
<path class="st14" d="M161.4,162.7c-3.7,0.5-4.9,5.2-0.8,4.8S167.1,161.9,161.4,162.7z"/>
<path class="st15" d="M136,239.6c-1.5,0.4-1.8,3.3,0.2,3S138,239.1,136,239.6z"/>
<path class="st3" d="M75.8,583.8c-2,4.5-15.5,27.3-17.3,29.7s-6.7,5.3-9.4,6.2s-9.5-8.1-9.6-11.9s21.8-23.7,22.9-27.7
	S77.5,579.9,75.8,583.8z"/>
<path class="st16" d="M113.2,476.6c-0.6,35.5,12.2,82.4,21.2,94.7s19,14.9,22.1,14c2.5-4.1,6.9-16.2,6.9-18.1s-2.7-4.5-2.7-4.5
	s8.1-16.1,7-20.4c-0.6-2.1-3.6-4.4-3.6-4.4s9.4-17.2,10.4-78c0.9-53.7,1-198.4-9.6-207.2c-9.2,4.4-30.9,16.5-46.5,13
	C108.7,353.5,114.3,413.4,113.2,476.6z"/>
<path class="st17" d="M132.9,491.2c13.1,0.1,34.3-1.8,38.6-4.1c0,9.7-2.7,37-6.6,42.1C152,528.5,137.5,504.8,132.9,491.2z"/>
<path class="st17" d="M128,494.5c2.2,18.5,23.4,40,26.1,42.7s-1.9,16-1.9,16l7.9,6.8c0,0,7.4-13,6.8-17.9
	C155.9,532.4,138,520,128,494.5z"/>
<path class="st17" d="M121.7,502.9c2.3,20.2,14.4,46.4,28.4,59.8c0.5,2.8-3.2,16.8-3,17.8s6.3,3.6,8.5,3s7.8-14.9,6.5-17.9
	S140.9,551.7,121.7,502.9z"/>
<path class="st6" d="M72.6,260.4c12.3,19.7,72.9,27.8,96.8,7.8c-0.1-1.3-0.2-2.6-0.4-3.9c-20,18.8-72.9,16.8-95.4-6.5L72.6,260.4z"
	/>
<path class="st18" d="M167,122c4.5,1.2,11.8,4.7,15.4,8.8s7.9,16.3,12.3,36.8s3.9,28.7,5.4,32.7s2.7,5.7,1.1,8.8s0.7,5.3,1.6,9.4
	s-1.2,61.1-2.2,64.3s-2.8,3.1-1.7,5.1s2.7,5.3,0.8,6.4c-5.1-2.7-18.1,7.1-23,4.7c-1.1-0.6-1.8-3.5-0.7-6.2s0.6-4.6-0.2-5.3
	c-2.6-2.1-2.3-7.9-1-9.7s-4.2-36.7-5.4-46s-3.5-64.9-3.5-64.9"/>
<path class="st19" d="M168.5,124.1c5.1,2,10,4.4,14,9.3s10.9,32.3,14.9,62.7c0.1,2.7-4.1,7.8-3.8,8.7s4.6-2,6.3-1.3
	s-2.7,6.3-8.2,10.5c-2.3,1-16.4,1.7-16.7-1c-0.5-3.7-3.1-35.1-1.6-41.9s6.1-17.3,3.2-20c-1.1-1-3.7,9.3-5,9.4
	S171.9,132.2,168.5,124.1z"/>
<path class="st19" d="M175.6,223.6c-1.6,2.9,2.6,28.3,3.8,37.7s3.8,14.4,8.3,15.8s-2.4,0.4-6.4,1.7s-7.7,7.8-2.6,6.3
	s10.3-0.1,10.8,0.8s-6.9,3.4-9.9,5.9s-1.7,6.4-0.8,7s7.2-2.5,10.8-4.2s7.2-4.1,10.3-3.2c-0.9-3.4-6.4-4.1-11.7-2
	c5.1-3.5,10.2-5.5,11.2-7s2.6-63,1.3-66.4S177.2,220.7,175.6,223.6z"/>
<path class="st20" d="M171.8,126.8c1.9-0.7,9.4,3.8,11.5,7.6c7.2,13.4,13.1,47.9,11,51.3s-11.8-26-13-26.5s-4.2,11.3-5.2,10.5
	s4.9-18.1,2.5-21.2s-4.2,6.2-5.9,5.2S169.9,127.5,171.8,126.8z"/>
<path class="st20" d="M192.4,198.2c-3,0-3,11.7-1.8,11.8s7.7-3.7,7.1-4.5s-5.2,2.4-5.4-0.2S194.4,198.2,192.4,198.2z"/>
<path class="st20" d="M180.4,222.7c-2.9,2.5-3.4,9-2.7,9.4s1.7-7,5.1-8.9s9.9-3.2,12-3s2.6,20.4,0,24.2s-3.6,7.9,0.4,13.3
	s0.3,13.9,1.1,13.8s2.9-9.4,1.7-13.1s0.4-6.6,1.8-16.1s-0.8-25-2.7-25.3S183.3,220.3,180.4,222.7z"/>
<path class="st20" d="M180.8,292.9c-2.8,3.7,0.9,5.1,4.5,2.9s9.4-6.2,8.2-6.4S183.6,289,180.8,292.9z"/>
<path class="st16" d="M52.1,471.9c-3.4,31.9-1.4,52.5,2.8,62.3c0,0-4,4-4.2,5.8s4.2,17.9,4.2,17.9l-3.7,2.3c0,0,3.6,17,11.2,19.9
	c16.4,6.3,52.3-59.4,59.8-135.3c13.3-134.1,7.9-171.4,3.8-178.9c-20-0.7-41-13.6-45.8-19c-8.4,6.2-15.6,36.1-20.8,99.7
	S54.1,452.5,52.1,471.9z"/>
<path class="st6" d="M108.3,452.5C96,548.4,76.5,583,61.2,579.6c4.4,3.5,18.9,3.1,21.3,2c17.8-8,33.8-41.3,41.5-123.1
	c9.6-102.8,10.3-179.6,10.3-179.6l-14.8-0.1C119.6,278.7,119.3,365.8,108.3,452.5z"/>
<path class="st21" d="M112,490.7c0.1-0.1,0.2-0.2,0.3-0.3l-0.1,0.3c0.2-0.2,0.4-0.5,0.5-0.8c0.2-0.6,0.3-1.3,0.2-2
	c0-0.3-0.1-0.5-0.2-0.8c-0.1-0.3-0.3-0.5-0.6-0.6H112c-0.2,0-0.5,0-0.6,0.2c-0.2,0.2-0.3,0.3-0.4,0.5c-0.2,0.4-0.3,0.8-0.4,1.2
	c-0.1,0.4-0.1,0.9-0.1,1.3c0,0.4,0.2,0.8,0.6,1.1h0.1h0.2c0-0.1-0.2,0.9-0.1,0.5l0,0c0,0,0-0.1,0-0.1c0,0,0-0.1,0-0.1l0,0l0,0v-0.3
	l0,0c0,0.1,0,0.2,0,0.3l0,0v0c0,0.1,0,0.1,0,0.2l0,0l0,0l0.2-0.7l0,0h-0.1h-0.1l0,0h-0.1c-0.2-0.2-0.4-0.5-0.3-0.8
	c0-0.3,0-0.6,0.1-0.9c0.1-0.2,0.2-0.5,0.3-0.7c0.1-0.2,0.3-0.3,0.6-0.1c0.2,0.3,0.2,0.6,0.2,0.9c0,0.2-0.1,0.5-0.3,0.7
	c-0.1,0.1-0.1,0.1-0.2,0.1c0,0,0,0,0.1,0.1c0,0.1,0,0.2,0,0.2c0,0,0,0,0,0.1l0,0h-0.3c-0.1-0.3,0.4,2.6,0.2,1.4l0,0
	c0.1-2.4,0-0.7,0-1.2l0,0l0,0l0,0c0,0,0,0,0,0.1c0,0.1,0,0.1,0.1,0.2l0,0c0,0.4,0-0.9,0,0.9l0,0c-0.2-1.4-0.1-0.4-0.1-0.7h0.3l0.1,0
	c0.2,0.1,0.6-0.1,0.9-0.6c-0.1,0.1-0.1,0.1-0.2,0.2C112.3,490.6,112.1,490.7,112,490.7z"/>
<path class="st21" d="M113,492.1c0.2-0.3,0.5-0.6,0.7-0.9c-0.1,0.2-0.2,0.5-0.4,0.7c0.4-0.6,0.8-1.2,1-1.9c0.5-1.5,0.8-3.2,0.7-4.8
	c0-0.7-0.2-1.5-0.4-2.2c-0.1-0.4-0.3-0.7-0.5-1c-0.2-0.3-0.5-0.6-0.8-0.7c-0.1,0-0.2-0.1-0.3-0.1c-0.6-0.1-1.2,0.1-1.6,0.5
	c-0.4,0.4-0.7,0.9-1,1.4c-1,2-1.5,4.3-1.4,6.6c0,0.6,0.2,1.1,0.4,1.6c0.2,0.5,0.5,1,1,1.2l0.3,0.1h0.1h0.2c0.1,0,0.2,0,0.2-0.1
	s-0.1-0.1-0.2-0.1h-0.1h-0.1l-0.1-0.1c-0.1,0-0.2-0.1-0.2-0.1c-0.4-0.3-0.7-0.7-0.9-1.2c-0.2-0.5-0.3-1-0.3-1.5c0-1,0-2,0.3-3
	c0.2-0.9,0.5-1.8,1-2.6c0.2-0.4,0.5-0.7,0.9-1c0.4-0.3,0.8-0.4,1.3-0.2c0.2,0.1,0.4,0.3,0.6,0.5c0.2,0.2,0.3,0.4,0.4,0.7
	c0.2,0.5,0.2,1,0.3,1.5c0,0.9-0.1,1.9-0.3,2.8c-0.1,0.4-0.3,0.8-0.5,1.3c-0.2,0.6-0.5,1.2-0.8,1.8c-0.2,0.2-0.4,0.4-0.6,0.6
	l-0.1,0.1l-0.1,0h-0.1l0,0l0,0c0,0.1-0.1,0.1-0.1,0.2c-0.1,0.1-0.1,0.2,0,0.3c0,0.1,0.1,0.1,0.2,0.1h0.1h0.3c0.4,0,0.7-0.2,1-0.4
	c0.4-0.3,0.8-0.8,1-1.3l-0.1,0.2c-0.1,0.1-0.2,0.2-0.3,0.3c-0.1,0.1-0.2,0.2-0.3,0.3L113,492.1z"/>
<path class="st21" d="M114.1,493.7c0.4-0.4,0.8-0.9,1.1-1.4c-0.1,0.2-0.2,0.4-0.3,0.6c-0.1,0.2-0.2,0.4-0.4,0.5
	c0.8-0.9,1.4-2,1.7-3.1c0.4-1.3,0.6-2.6,0.7-3.9c0.1-1.1,0-2.2-0.2-3.2c-0.2-0.9-0.5-1.8-0.9-2.6c-0.2-0.4-0.5-0.8-0.8-1.1
	c-0.3-0.4-0.7-0.7-1.2-0.8c-0.1-0.1-0.2-0.1-0.4-0.1c-0.4-0.1-0.8-0.1-1.1,0c-0.4,0.1-0.7,0.2-1,0.4c-0.6,0.4-1.1,0.8-1.5,1.3
	c-0.9,1.2-1.6,2.6-2,4c-0.3,0.9-0.5,1.8-0.6,2.7c-0.2,1-0.2,2-0.1,3c0,1,0.3,2,0.8,2.9c0.4,0.8,1.1,1.5,1.9,1.9
	c0.2,0.1,0.3,0.1,0.5,0.1h0.1h0.2c0.3,0,0.4,0,0.4-0.1c-0.1-0.1-0.3-0.1-0.4-0.2h-0.1l0,0l-0.2-0.1c-0.2,0-0.3-0.1-0.4-0.2
	c-1.5-0.8-2.2-2.7-2.3-4.5c-0.1-1.7,0.2-3.5,0.7-5.1c0.4-1.4,1-2.6,1.8-3.8c0.4-0.5,0.8-1,1.4-1.3c0.1-0.1,0.3-0.2,0.4-0.2l0.2-0.1
	l0.2-0.1c0.1,0,0.2,0,0.2,0h0.2h0.3h0.1h0.1c0.4,0.1,0.7,0.3,1,0.6c0.3,0.2,0.5,0.5,0.7,0.9c0.3,0.6,0.6,1.3,0.7,2
	c0.2,1.5,0.2,3-0.2,4.5c-0.2,0.8-0.4,1.6-0.7,2.4c-0.4,1.3-1,2.4-1.8,3.5c-0.3,0.4-0.7,0.7-1.2,1c-0.1,0-0.2,0.1-0.3,0.1l-0.1,0.1
	l0,0h-0.1c-0.1,0-0.3,0.1-0.4,0.2c-0.1,0.1-0.1,0.2,0,0.3c0.1,0.1,0.3,0.1,0.4,0.1h0.2c-0.1,0-0.1,0,0,0h0.4
	c0.6-0.1,1.2-0.3,1.7-0.6c0.7-0.5,1.3-1.2,1.7-2l-0.2,0.3c-0.1,0.2-0.3,0.4-0.4,0.6c-0.1,0.2-0.3,0.4-0.5,0.5L114.1,493.7z"/>
<path class="st21" d="M115.3,495.3c0.6-0.6,1.2-1.3,1.6-2l-0.2,0.4l-0.3,0.4c-0.2,0.3-0.3,0.5-0.5,0.8c1.1-1.3,1.9-2.7,2.4-4.4
	c0.5-1.7,0.8-3.5,0.8-5.4c0-1.4-0.2-2.7-0.6-4c-0.3-1-0.8-1.9-1.5-2.7c-0.3-0.4-0.7-0.7-1.1-1c-0.2-0.1-0.4-0.3-0.7-0.4
	c-0.3-0.1-0.5-0.2-0.8-0.3l-0.4-0.1c-0.4-0.1-0.9-0.1-1.3-0.1c-0.4,0-0.8,0.1-1.2,0.2c-0.7,0.2-1.3,0.6-1.9,1
	c-1.4,1.1-2.4,2.6-3,4.3c-0.5,1.2-0.8,2.4-1,3.6c0,0.4-0.1,0.7-0.2,1l-0.1,1.1c0,0.7,0,1.5,0,2.2c0.1,1.5,0.5,2.9,1.2,4.2
	c0.7,1.1,1.7,1.9,2.9,2.4c0.2,0.1,0.4,0.1,0.7,0.2h0.2h-0.1h0.3c0.4,0,0.6,0,0.6,0c-0.2-0.1-0.5-0.2-0.7-0.2h-0.1l0,0l-0.3-0.1
	c-0.2-0.1-0.4-0.1-0.6-0.2c-1.1-0.5-2.1-1.4-2.6-2.5c-0.6-1.2-1-2.6-1-4c0-1.3,0.1-2.7,0.3-4c0.2-1.1,0.6-2.3,1-3.3
	c0.3-0.9,0.8-1.7,1.3-2.4c0.4-0.6,0.9-1.1,1.5-1.6c0.5-0.4,1.1-0.8,1.8-1c0.2-0.1,0.3-0.1,0.5-0.1h0.3h0.3c0.4,0,0.8,0,1.2,0.1
	c0.4,0.1,0.8,0.3,1.2,0.5c0.3,0.2,0.6,0.5,0.9,0.8c0.5,0.6,0.9,1.2,1.2,1.9c0.3,0.8,0.5,1.6,0.6,2.4c0.1,1,0.1,1.9,0,2.9
	c-0.1,1.2-0.4,2.4-0.7,3.5c-0.3,1-0.7,2-1.1,3c-0.1,0.2-0.2,0.5-0.4,0.7l-0.4,0.6l-0.4,0.6c-0.1,0.2-0.3,0.3-0.5,0.5
	c-0.5,0.5-1.2,0.9-1.9,1.2L112,496l-0.2,0.1h0.1h-0.1c-0.3,0.1-0.5,0.1-0.7,0.2c-0.1,0-0.1,0.2-0.1,0.2c0,0,0,0.1,0.1,0.1
	c0.2,0.1,0.5,0.1,0.7,0.1h0.2h-0.2h0.5c0.8-0.1,1.6-0.4,2.3-0.8c1-0.7,1.9-1.7,2.5-2.8l-0.3,0.4c-0.2,0.3-0.4,0.6-0.6,0.8
	c-0.1,0.1-0.2,0.3-0.3,0.4l-0.3,0.3L115.3,495.3z"/>
<path class="st21" d="M100.4,526.4c-0.6,4.6,7.7,4.7,8.8,3.7s5.9-19.5,9.2-33.8c-2.8,11.5-7.3,63-31.4,81.3
	c5.9-5.8,10.7-14.2,10-18.9c0,0-3.1-3-7.6,0c-5.3,11-13.1,19.7-19.2,20.9c14.3-8.5,26.4-48.6,33.5-87.1
	C105.9,493.8,102.2,512.7,100.4,526.4z"/>
<path class="st22" d="M98.4,550.4c0.3-0.2,0.5-0.5,0.8-0.8c-0.1,0.2-0.3,0.4-0.5,0.6c0.5-0.5,1-1,1.3-1.7c0.8-1.4,1.3-3,1.5-4.6
	c0.1-0.7,0.1-1.5,0-2.2c-0.1-0.3-0.2-0.7-0.3-1c-0.1-0.4-0.4-0.7-0.7-0.9c-0.1-0.1-0.2-0.1-0.3-0.1c-0.6-0.2-1.2-0.1-1.7,0.2
	c-0.5,0.3-0.9,0.7-1.2,1.2c-0.7,0.9-1.2,1.9-1.6,3c-0.4,1.1-0.7,2.2-0.8,3.3c-0.1,0.6,0,1.1,0.1,1.7c0.1,0.6,0.4,1,0.8,1.4
	c0.1,0.1,0.2,0.1,0.3,0.1h0.1h0.1h0.1c0.1,0,0.2,0,0.2-0.1s-0.1-0.1-0.2-0.2h-0.1h-0.1l-0.1-0.1c-0.1,0-0.2-0.1-0.2-0.2
	c-0.4-0.3-0.6-0.8-0.7-1.3c-0.1-0.5-0.1-1,0-1.5c0.1-1,0.4-2,0.7-2.9c0.3-0.9,0.8-1.7,1.4-2.4c0.3-0.4,0.6-0.6,1-0.8
	c0.4-0.2,0.9-0.2,1.3,0c0.2,0.1,0.4,0.3,0.5,0.6c0.1,0.2,0.2,0.5,0.2,0.7c0.1,0.5,0.1,1,0,1.5c-0.1,0.9-0.4,1.8-0.8,2.7
	c-0.2,0.4-0.4,0.8-0.7,1.2c-0.3,0.6-0.7,1.1-1.1,1.6c-0.2,0.2-0.4,0.4-0.7,0.5l-0.2,0.1h-0.1h-0.2l0,0l-0.1,0.1
	c-0.2,0.1-0.2,0.2-0.1,0.3c0,0.1,0.1,0.1,0.2,0.2l0,0h0.1h0.1l0.2,0c0.4,0,0.7-0.1,1.1-0.2c0.5-0.3,0.9-0.6,1.2-1.1l-0.1,0.1
	c-0.1,0.1-0.2,0.2-0.3,0.3c-0.1,0.1-0.2,0.2-0.3,0.3L98.4,550.4z"/>
<path class="st22" d="M99.3,552.2c0.5-0.3,0.9-0.7,1.3-1.2c-0.1,0.2-0.3,0.4-0.4,0.5c-0.1,0.2-0.3,0.3-0.4,0.5
	c0.9-0.8,1.7-1.7,2.2-2.8c0.6-1.2,1-2.4,1.3-3.7c0.2-1.1,0.3-2.1,0.3-3.2c0-0.9-0.2-1.8-0.4-2.7c-0.1-0.4-0.3-0.8-0.6-1.2
	c-0.3-0.4-0.6-0.7-1-1c-0.1-0.1-0.2-0.1-0.3-0.2c-0.4-0.2-0.7-0.2-1.1-0.2c-0.3,0-0.7,0.1-1,0.2c-0.6,0.3-1.2,0.6-1.7,1.1
	c-1.1,1-2,2.3-2.6,3.6c-0.4,0.8-0.7,1.7-1,2.5c-0.3,1-0.5,1.9-0.6,2.9c-0.1,1,0,2,0.3,2.9c0.3,0.9,0.8,1.6,1.6,2.1
	c0.2,0.1,0.3,0.2,0.4,0.2h0.1l0,0h0.2c0.2,0,0.4,0,0.4,0c-0.1-0.1-0.3-0.2-0.4-0.2h-0.1l0,0l-0.2-0.1c-0.2-0.1-0.3-0.2-0.5-0.3
	c-1.4-1-1.7-3-1.5-4.8c0.2-1.7,0.7-3.4,1.5-4.9c0.6-1.3,1.4-2.4,2.4-3.4c0.5-0.5,1-0.8,1.6-1.1c0.1-0.1,0.3-0.1,0.5-0.2l0.2-0.1h0.2
	c0.1,0,0.2,0,0.3,0h0.3l0.2,0.1h0.1l0.1,0.1c0.3,0.2,0.6,0.4,0.8,0.7c0.2,0.3,0.4,0.6,0.5,1c0.2,0.7,0.3,1.4,0.3,2.1
	c0,1.5-0.3,3-0.9,4.4c-0.3,0.8-0.7,1.5-1.1,2.2c-0.6,1.2-1.3,2.2-2.3,3.1c-0.4,0.3-0.8,0.6-1.3,0.8l-0.3,0.1h-0.1h-0.1
	c-0.1,0-0.3,0.1-0.4,0.1c-0.2,0.1-0.2,0.2-0.1,0.3c0.1,0.1,0.3,0.2,0.4,0.2h0.2c-0.1,0-0.1,0,0,0h0.1h0.3c0.6,0,1.2-0.1,1.8-0.4
	c0.8-0.4,1.5-1,2-1.7l-0.2,0.2c-0.2,0.2-0.3,0.3-0.5,0.5c-0.2,0.2-0.4,0.3-0.6,0.4L99.3,552.2z"/>
<path class="st22" d="M100.1,554c0.7-0.5,1.4-1.1,1.9-1.7c-0.1,0.1-0.2,0.2-0.3,0.4s-0.2,0.2-0.3,0.3c-0.2,0.2-0.4,0.5-0.7,0.7
	c1.3-1.1,2.4-2.4,3.1-3.9c0.8-1.6,1.4-3.4,1.6-5.2c0.2-1.3,0.3-2.7,0.1-4.1c-0.1-1-0.5-2-1-2.9c-0.3-0.4-0.6-0.8-0.9-1.2
	c-0.2-0.2-0.4-0.4-0.6-0.5c-0.2-0.2-0.5-0.3-0.8-0.4l-0.4-0.2c-0.4-0.1-0.9-0.2-1.3-0.3c-0.4,0-0.8,0-1.2,0c-0.7,0.1-1.4,0.3-2,0.7
	c-1.5,0.9-2.8,2.2-3.7,3.8c-0.7,1.1-1.2,2.2-1.6,3.4c-0.1,0.3-0.2,0.6-0.3,1l-0.3,1c-0.2,0.7-0.3,1.5-0.3,2.2
	c-0.2,1.5,0,2.9,0.5,4.3c0.5,1.2,1.3,2.2,2.4,2.8c0.2,0.1,0.4,0.2,0.6,0.3h0.1c0,0,0,0-0.1,0l0.3,0.1c0.4,0.1,0.6,0.1,0.6,0
	c-0.2-0.1-0.4-0.2-0.7-0.3H95l0,0h0l0,0l-0.3-0.1c-0.2-0.1-0.4-0.2-0.6-0.3c-1-0.7-1.8-1.7-2.2-2.8c-0.4-1.3-0.5-2.7-0.3-4.1
	c0.2-1.3,0.5-2.7,1-3.9c0.4-1.1,0.9-2.1,1.5-3.1c0.5-0.8,1.1-1.5,1.7-2.2c0.5-0.5,1.1-1,1.8-1.3c0.6-0.3,1.2-0.6,1.9-0.7
	c0.2,0,0.4,0,0.5,0h0.3h0.3c0.4,0.1,0.8,0.2,1.2,0.3c0.4,0.2,0.7,0.4,1.1,0.7c0.3,0.3,0.5,0.6,0.8,0.9c0.4,0.6,0.7,1.3,0.8,2.1
	c0.2,0.8,0.2,1.6,0.2,2.5c-0.1,1-0.2,1.9-0.4,2.8c-0.3,1.1-0.7,2.3-1.2,3.3c-0.4,1-1,1.9-1.6,2.8c-0.2,0.2-0.3,0.4-0.5,0.6l-0.5,0.5
	l-0.5,0.5c-0.2,0.1-0.4,0.3-0.5,0.4c-0.6,0.4-1.3,0.7-2,0.9l-0.4,0.1h-0.2l0,0l-0.7,0.1c-0.2,0.1-0.2,0.2-0.1,0.3
	c0.2,0.1,0.4,0.2,0.7,0.2h0.2h-0.2h0.1l0.4,0.1c0.8,0.1,1.7-0.1,2.4-0.5c1.1-0.5,2.1-1.4,2.9-2.4l-0.3,0.3c-0.2,0.3-0.5,0.5-0.7,0.7
	c-0.1,0.1-0.3,0.2-0.4,0.3l-0.4,0.3L100.1,554z"/>
<path class="st21" d="M107.4,518.5c0.1-0.1,0.2-0.2,0.3-0.3c0,0.1-0.1,0.2-0.2,0.3c0.2-0.2,0.4-0.5,0.6-0.8c0.3-0.6,0.4-1.3,0.3-2
	c0-0.3-0.1-0.6-0.2-0.8c-0.1-0.3-0.3-0.5-0.5-0.6h-0.1c-0.2,0-0.5,0-0.6,0.2c-0.2,0.1-0.3,0.3-0.4,0.5c-0.2,0.4-0.4,0.8-0.5,1.2
	c-0.1,0.4-0.2,0.9-0.2,1.3c0,0.4,0.1,0.9,0.5,1.1c0,0,0.1,0,0.1,0h0.2c0-0.1-0.3,0.9-0.1,0.5l0,0V519c0,0,0-0.1,0-0.1l0,0l0,0v-0.3
	l0,0v0.3l0,0c0,0,0,0,0,0c0,0.1,0,0.1,0,0.2l0,0l0,0l0.2-0.7l0,0h-0.1h-0.1l0,0l-0.1,0c-0.2-0.2-0.3-0.5-0.3-0.8
	c0-0.3,0.1-0.6,0.2-0.9c0.1-0.2,0.2-0.5,0.3-0.7c0.1-0.2,0.4-0.3,0.6-0.1c0.2,0.3,0.2,0.6,0.1,0.9c-0.1,0.2-0.2,0.5-0.3,0.6
	c-0.1,0.1-0.1,0.1-0.2,0.1c0,0,0,0,0.1,0.1c0,0.1,0,0.2,0,0.2c0,0,0,0,0,0.1l0,0h-0.3c0-0.3,0.2,2.6,0.1,1.4l0,0
	c0.3-2.3,0.1-0.7,0.1-1.2l0,0l0,0l0,0v0.1c0,0.1,0,0.1,0.1,0.2l0,0c0,0.4,0.1-0.8-0.1,0.8l0,0c-0.1-1.4,0-0.4,0-0.7h0.3l0.1,0.1
	c0.2,0.1,0.6,0,1-0.5c-0.1,0.1-0.1,0.1-0.2,0.2C107.8,518.4,107.6,518.5,107.4,518.5z"/>
<path class="st21" d="M108.3,520c0.3-0.2,0.5-0.5,0.7-0.8c-0.1,0.2-0.3,0.5-0.4,0.7c0.5-0.5,0.9-1.1,1.2-1.8c0.6-1.5,1-3.1,1-4.7
	c0-0.7-0.1-1.5-0.2-2.2c-0.1-0.4-0.2-0.7-0.4-1c-0.2-0.3-0.5-0.6-0.8-0.8c-0.1-0.1-0.2-0.1-0.3-0.1c-0.6-0.2-1.2,0-1.6,0.4
	c-0.4,0.4-0.8,0.8-1.1,1.3c-0.6,1-1,2-1.3,3.1c-0.3,1.1-0.5,2.2-0.5,3.4c0,0.6,0.1,1.1,0.3,1.7c0.2,0.5,0.5,1,1,1.3
	c0.1,0,0.2,0.1,0.3,0.1h0.1h0.1h0.1c0.1,0,0.2,0,0.2-0.1c0-0.1-0.1-0.1-0.2-0.1h-0.1h-0.1l-0.1-0.1c-0.1,0-0.2-0.1-0.2-0.1
	c-0.4-0.3-0.7-0.8-0.8-1.2c-0.1-0.5-0.2-1-0.2-1.5c0-1,0.2-2,0.4-2.9c0.3-0.9,0.6-1.8,1.2-2.6c0.2-0.4,0.6-0.7,0.9-0.9
	c0.4-0.3,0.9-0.3,1.3-0.1c0.2,0.1,0.4,0.3,0.6,0.5c0.1,0.2,0.2,0.5,0.3,0.7c0.1,0.5,0.2,1,0.2,1.5c0,0.9-0.2,1.9-0.5,2.7
	c-0.2,0.4-0.3,0.8-0.6,1.2c-0.3,0.6-0.6,1.2-1,1.7c-0.2,0.2-0.4,0.4-0.6,0.6l-0.2,0.1h-0.1h-0.2c0,0-0.1,0.1-0.1,0.2
	c-0.2,0.1-0.2,0.2,0,0.3c0,0.1,0.1,0.1,0.2,0.1h0.1h0.2h0.2c0.4,0,0.7-0.1,1-0.4c0.4-0.3,0.8-0.7,1.1-1.2l-0.1,0.2
	c-0.1,0.1-0.2,0.2-0.3,0.3c-0.1,0.1-0.2,0.2-0.3,0.3L108.3,520z"/>
<path class="st21" d="M109.3,521.6c0.5-0.4,0.9-0.8,1.2-1.3c-0.1,0.2-0.2,0.4-0.4,0.6c-0.1,0.2-0.3,0.4-0.4,0.5
	c0.8-0.9,1.5-1.9,1.9-3c0.5-1.2,0.8-2.5,1-3.8c0.1-1.1,0.1-2.2,0-3.2c-0.1-0.9-0.3-1.8-0.7-2.6c-0.2-0.4-0.4-0.8-0.7-1.1
	c-0.3-0.4-0.7-0.7-1.1-0.9c-0.1-0.1-0.2-0.1-0.4-0.2c-0.4-0.1-0.7-0.2-1.1-0.1c-0.3,0.1-0.7,0.2-1,0.3c-0.6,0.3-1.1,0.7-1.6,1.2
	c-1,1.1-1.8,2.4-2.3,3.9c-0.3,0.8-0.6,1.7-0.8,2.6c-0.2,1-0.3,2-0.3,3c0,1,0.2,2,0.6,2.9c0.3,0.9,1,1.6,1.8,2
	c0.1,0.1,0.3,0.1,0.5,0.2h0.1l0,0h0.2c0.3,0,0.4,0,0.4,0c-0.1-0.1-0.3-0.2-0.4-0.2h-0.1l0,0l-0.2-0.1c-0.1-0.1-0.3-0.1-0.4-0.2
	c-1.5-0.9-2-2.8-2-4.7c0-1.7,0.4-3.4,1-5.1c0.5-1.3,1.2-2.6,2.1-3.6c0.4-0.5,0.9-0.9,1.5-1.2c0.1-0.1,0.3-0.1,0.4-0.2l0.2-0.1h0.3
	c0.1,0,0.2,0,0.2,0h0.3l0.3,0.1h0.1h0.1c0.3,0.1,0.7,0.4,0.9,0.6c0.2,0.3,0.4,0.6,0.6,0.9c0.3,0.7,0.5,1.4,0.5,2.1
	c0.1,1.5,0,3-0.4,4.4c-0.2,0.8-0.5,1.6-0.9,2.3c-0.5,1.2-1.1,2.4-2,3.3c-0.4,0.4-0.8,0.7-1.2,0.9l-0.3,0.1l-0.1,0l0,0h-0.1
	c-0.1,0-0.3,0.1-0.4,0.1c-0.1,0.1-0.2,0.2,0,0.3c0.1,0.1,0.3,0.1,0.4,0.2h0.2c-0.1,0-0.1,0,0,0h0.1h0.3c0.6,0,1.2-0.2,1.7-0.5
	c0.8-0.5,1.4-1.1,1.9-1.9l-0.2,0.3c-0.1,0.2-0.3,0.4-0.5,0.5c-0.2,0.2-0.3,0.3-0.5,0.5L109.3,521.6z"/>
<path class="st21" d="M110.3,523.3c0.7-0.5,1.3-1.2,1.8-1.9c-0.1,0.1-0.2,0.3-0.2,0.4s-0.2,0.2-0.3,0.4c-0.2,0.2-0.4,0.5-0.6,0.7
	c1.2-1.2,2.1-2.6,2.7-4.2c0.6-1.7,1-3.5,1.1-5.3c0.1-1.4,0-2.7-0.3-4c-0.2-1-0.7-1.9-1.3-2.8c-0.3-0.4-0.6-0.7-1-1.1
	c-0.2-0.2-0.4-0.3-0.7-0.5c-0.3-0.1-0.5-0.3-0.8-0.4l-0.4-0.2c-0.4-0.1-0.9-0.2-1.3-0.2c-0.4,0-0.8,0-1.2,0.1
	c-0.7,0.2-1.3,0.4-1.9,0.8c-1.5,1.1-2.6,2.5-3.3,4.1c-0.5,1.1-1,2.3-1.3,3.5c-0.1,0.3-0.2,0.7-0.2,1l-0.2,1.1
	c-0.1,0.7-0.2,1.5-0.2,2.2c0,1.5,0.3,2.9,0.9,4.2c0.7,1.4,1.9,2.4,3.4,2.8h0.1h-0.1l0.3,0.1c0.4,0,0.6,0,0.6,0
	c-0.2-0.1-0.5-0.2-0.7-0.2h-0.1l0,0l-0.3-0.1c-0.2-0.1-0.4-0.2-0.6-0.3c-1.1-0.6-2-1.5-2.5-2.6c-0.5-1.3-0.8-2.7-0.7-4.1
	c0-1.4,0.2-2.7,0.6-4c0.3-1.1,0.7-2.2,1.2-3.3c0.4-0.8,0.9-1.6,1.5-2.3c0.5-0.6,1-1.1,1.6-1.5c0.5-0.4,1.2-0.7,1.8-0.8
	c0.2,0,0.4-0.1,0.5-0.1h0.3h0.3c0.4,0,0.8,0.1,1.2,0.2c0.4,0.2,0.8,0.4,1.1,0.6c0.3,0.2,0.6,0.5,0.8,0.8c0.5,0.6,0.8,1.3,1,2
	c0.2,0.8,0.4,1.6,0.4,2.5c0,1,0,1.9-0.2,2.9c-0.2,1.2-0.5,2.3-0.9,3.5c-0.3,1-0.8,2-1.3,3c-0.1,0.2-0.3,0.5-0.4,0.7l-0.4,0.6
	l-0.5,0.5c-0.2,0.2-0.3,0.3-0.5,0.5c-0.6,0.5-1.2,0.8-1.9,1.1l-0.4,0.1l-0.2,0.1l0,0c0,0,0,0,0.1,0h0.1h-0.1L106,524
	c-0.1,0.1-0.2,0.2,0,0.3c0.2,0.1,0.5,0.1,0.7,0.2h0.2h-0.2h0.1h0.4c0.8,0,1.7-0.3,2.4-0.7c1.1-0.7,2-1.6,2.7-2.6l-0.3,0.4
	c-0.2,0.3-0.4,0.5-0.7,0.8c-0.1,0.1-0.2,0.3-0.4,0.4l-0.4,0.3L110.3,523.3z"/>
<path class="st21" d="M84.5,573.6c0.1-0.1,0.3-0.1,0.4-0.2c-0.1,0.1-0.2,0.2-0.2,0.2c0.3-0.1,0.5-0.3,0.8-0.5c0.4-0.5,0.7-1,0.9-1.7
	c0.1-0.2,0.1-0.5,0.1-0.8c0-0.3-0.1-0.5-0.3-0.7l-0.1,0c-0.2-0.1-0.5-0.1-0.7,0c-0.2,0.1-0.4,0.2-0.6,0.3c-0.3,0.3-0.6,0.6-0.8,0.9
	c-0.2,0.3-0.4,0.7-0.6,1.1c-0.2,0.4-0.1,0.8,0.2,1.1l0.1,0l0,0h0.1l0,0l0,0c0.1-0.1-0.5,0.7-0.3,0.4l0,0l0.1-0.1l0.1-0.1l0,0l0,0
	l0.1-0.3l0,0l0,0c0,0.1-0.1,0.2-0.1,0.3l0,0l0,0c0,0,0,0.1-0.1,0.1l0,0l0,0l0.4-0.6l0,0l0,0l-0.1,0l0,0l0,0l0,0l-0.1-0.1
	c-0.1-0.3-0.1-0.6,0-0.8c0.1-0.3,0.2-0.5,0.4-0.7c0.1-0.2,0.3-0.4,0.5-0.5c0.2-0.1,0.4-0.2,0.6,0.1c0.1,0.3,0,0.6-0.2,0.8
	c-0.1,0.2-0.3,0.4-0.5,0.5c-0.1,0-0.2,0.1-0.2,0c0,0,0,0,0,0.1c0,0.1,0,0.1-0.1,0.2c0,0,0,0,0,0.1l0,0l0,0l-0.3-0.1l0,0l-0.3,1.2
	l0,0c0.9-2,0.3-0.5,0.5-1l0,0h-0.1v0.1c0,0,0,0.1,0,0.2l0,0l-0.3,0.7l0,0c0.3-1.2,0.1-0.3,0.2-0.6l0,0H84h0.1l0,0l0,0l0.1,0.1
	c0.2,0.2,0.6,0.1,1-0.2c-0.1,0-0.2,0.1-0.2,0.1C84.8,573.5,84.6,573.6,84.5,573.6z"/>
<path class="st21" d="M85,575.1c0.3-0.1,0.6-0.3,0.9-0.5c-0.2,0.2-0.4,0.3-0.6,0.5c0.6-0.3,1.2-0.8,1.6-1.3c1-1.1,1.8-2.4,2.3-3.8
	c0.2-0.6,0.4-1.3,0.4-2c0-0.3,0-0.7-0.1-1c-0.1-0.3-0.3-0.7-0.5-0.9c-0.1-0.1-0.1-0.1-0.2-0.2c-0.5-0.3-1.1-0.3-1.7-0.1
	c-0.5,0.2-1,0.5-1.4,0.8c-0.8,0.7-1.6,1.5-2.2,2.4c-0.6,0.9-1.1,1.8-1.4,2.8c-0.2,0.5-0.2,1-0.2,1.5c0,0.5,0.2,1,0.6,1.4
	c0.1,0.1,0.1,0.1,0.2,0.2h0.1h0.1h0.1c0.1,0,0.2,0,0.2,0s0-0.1-0.1-0.2l0,0h-0.1l-0.1-0.1c-0.1-0.1-0.1-0.1-0.2-0.2
	c-0.3-0.4-0.4-0.8-0.4-1.3c0-0.5,0.1-0.9,0.3-1.3c0.3-0.9,0.7-1.7,1.3-2.4c0.5-0.7,1.1-1.4,1.9-1.9c0.3-0.3,0.7-0.5,1.2-0.6
	c0.4-0.1,0.9,0,1.2,0.3c0.2,0.2,0.3,0.4,0.4,0.6c0.1,0.2,0.1,0.5,0.1,0.7c0,0.5-0.1,0.9-0.3,1.3c-0.3,0.8-0.7,1.6-1.3,2.2
	c-0.3,0.3-0.6,0.6-0.9,0.9c-0.4,0.5-0.9,0.9-1.4,1.2c-0.2,0.1-0.5,0.3-0.8,0.3h-0.2h-0.1l0,0h-0.1l0,0c-0.1,0-0.1,0.1-0.2,0.1
	c-0.2,0-0.2,0.1-0.1,0.3c0,0.1,0.1,0.1,0.1,0.2v0h0.1l0,0l0.2,0.1c0.4,0.1,0.7,0.1,1.1,0c0.5-0.2,1-0.4,1.4-0.8l-0.2,0.1l-0.4,0.2
	c-0.1,0.1-0.3,0.1-0.4,0.2L85,575.1z"/>
<path class="st21" d="M85.4,576.8c0.6-0.2,1.1-0.5,1.6-0.8c-0.2,0.1-0.3,0.3-0.5,0.4c-0.2,0.1-0.4,0.2-0.5,0.4
	c1-0.5,1.9-1.2,2.7-2.1c0.8-0.9,1.5-2,2-3.1c0.4-0.9,0.7-1.8,0.9-2.8c0.2-0.8,0.2-1.7,0.1-2.5c-0.1-0.4-0.2-0.8-0.3-1.2
	c-0.2-0.4-0.5-0.8-0.8-1.1c-0.1-0.1-0.2-0.2-0.3-0.2c-0.3-0.2-0.6-0.3-1-0.4c-0.4-0.1-0.7-0.1-1.1,0c-0.6,0.1-1.3,0.4-1.8,0.7
	c-1.3,0.7-2.4,1.6-3.3,2.8c-0.6,0.6-1.1,1.3-1.5,2.1c-0.5,0.8-0.9,1.6-1.2,2.5c-0.3,0.9-0.4,1.8-0.3,2.7c0.1,0.8,0.5,1.6,1.2,2.2
	c0.1,0.1,0.3,0.2,0.4,0.3l0.1,0.1l0,0l0.2,0.1c0.2,0.1,0.4,0.1,0.4,0.1c-0.1-0.1-0.2-0.2-0.4-0.3h-0.1l0,0l-0.2-0.1
	c-0.1-0.1-0.2-0.2-0.3-0.3c-1.2-1.2-1.1-3-0.5-4.6c0.6-1.5,1.4-2.9,2.4-4.2c0.8-1,1.9-1.9,3-2.6c0.5-0.3,1.1-0.6,1.8-0.7
	c0.2,0,0.3,0,0.5,0h0.2H89c0.1,0,0.2,0,0.2,0.1c0.1,0,0.2,0.1,0.2,0.1l0.2,0.1l0.1,0.1l0.1,0.1c0.3,0.2,0.5,0.5,0.7,0.8
	c0.2,0.3,0.3,0.6,0.3,0.9c0.1,0.6,0.1,1.3-0.1,2c-0.3,1.3-0.9,2.6-1.7,3.8c-0.5,0.6-1,1.2-1.5,1.8c-0.8,1-1.8,1.8-2.9,2.4
	c-0.4,0.2-0.9,0.4-1.4,0.5H83h-0.1h-0.1h-0.4c-0.2,0-0.2,0.1-0.1,0.3c0.1,0.1,0.2,0.2,0.4,0.2l0.1,0.1c-0.1,0-0.1,0-0.1,0h0.1
	l0.3,0.1c0.6,0.1,1.2,0.1,1.8,0c0.9-0.2,1.7-0.6,2.3-1.2l-0.3,0.2c-0.2,0.1-0.4,0.2-0.6,0.3c-0.2,0.1-0.4,0.2-0.6,0.3L85.4,576.8z"
	/>
<path class="st21" d="M86,578.6c0.8-0.3,1.5-0.7,2.2-1.2l-0.4,0.3l-0.4,0.2c-0.2,0.2-0.5,0.3-0.8,0.5c1.5-0.7,2.7-1.7,3.8-3
	c1.1-1.3,2-2.8,2.6-4.3c0.5-1.1,0.8-2.4,0.9-3.6c0.1-0.9-0.1-1.9-0.5-2.8c-0.2-0.4-0.4-0.8-0.7-1.2c-0.1-0.2-0.3-0.4-0.5-0.6
	c-0.2-0.2-0.4-0.4-0.7-0.5l-0.4-0.3c-0.4-0.2-0.8-0.4-1.2-0.5c-0.4-0.1-0.8-0.2-1.2-0.2c-0.7,0-1.4,0-2.1,0.2
	c-1.7,0.5-3.2,1.5-4.4,2.7c-0.8,0.8-1.6,1.8-2.2,2.7c-0.2,0.3-0.4,0.5-0.5,0.8l-0.5,0.9c-0.3,0.6-0.6,1.3-0.8,1.9
	c-0.4,1.3-0.6,2.6-0.3,3.9c0.2,1.2,0.9,2.3,1.8,3c0.2,0.1,0.4,0.3,0.6,0.4l0.1,0.1h-0.1l0.3,0.1c0.4,0.2,0.6,0.2,0.6,0.1
	c-0.2-0.2-0.4-0.3-0.6-0.4h-0.1l0,0l0,0l0,0l0,0l0,0l-0.2-0.2c-0.2-0.1-0.4-0.2-0.5-0.4c-0.9-0.8-1.4-1.8-1.6-2.9
	c-0.1-1.3,0-2.6,0.5-3.7c0.4-1.2,1-2.3,1.7-3.3c0.6-0.9,1.3-1.8,2.1-2.5c0.6-0.6,1.3-1.2,2.1-1.7c0.6-0.4,1.3-0.7,2-0.9
	c0.6-0.2,1.3-0.3,2-0.3c0.2,0,0.4,0,0.5,0.1l0.3,0l0.3,0.1c0.4,0.1,0.7,0.3,1.1,0.5c0.3,0.2,0.6,0.5,0.9,0.8
	c0.2,0.3,0.4,0.6,0.6,0.9c0.3,0.6,0.4,1.3,0.4,2c0,0.8-0.1,1.5-0.3,2.2c-0.2,0.9-0.6,1.7-1,2.5c-0.6,1-1.2,1.9-2,2.7
	c-0.6,0.8-1.3,1.6-2.1,2.2c-0.2,0.2-0.4,0.3-0.6,0.5s-0.4,0.3-0.6,0.4l-0.6,0.3c-0.2,0.1-0.4,0.2-0.6,0.3c-0.7,0.3-1.4,0.4-2.2,0.4
	h-0.4h-0.2h0.1h0.1h-0.2l-0.7-0.1c-0.2,0-0.2,0.1-0.1,0.3c0.2,0.1,0.4,0.2,0.6,0.3l0.2,0.1h-0.2h-0.1l0,0h0.1h0.1l0.4,0.1
	c0.8,0.2,1.7,0.2,2.5,0c1.2-0.3,2.3-0.8,3.3-1.6l-0.4,0.3c-0.3,0.2-0.6,0.4-0.9,0.5c-0.2,0.1-0.3,0.2-0.5,0.2l-0.4,0.2L86,578.6z"/>
<path class="st17" d="M54.6,499.7c-1.2-2.1-0.2,22,3.8,24.4S83,511,89.6,501.7c-17.5,27.8-35.9,36.1-37.3,38s8.6-0.2,15.8-4.7
	c2.3,0.4,2.7,10.4,2.7,10.4s22.5-16.6,29.6-55.3c-14.3,0-28.5-1.4-42.4-4.3c3.4,16.2,4.5,27.8,22.2,9.9
	C65.4,514.9,58.6,507.1,54.6,499.7z"/>
<path class="st17" d="M53,560.4c15.3-7.9,29.8-19,38.8-35.8c-1.7,17.3-16.2,43.8-23.7,47.8S51.1,562.8,53,560.4z"/>
<path class="st23" d="M140,56.8c1.1-2,2.7-5,5.5-3.8s2.7,9.3,0.9,12.6s-1.7,4.4-2.6,5.5s-3.7,1.2-4.2-0.5"/>
<path class="st24" d="M142.1,59.8c0.4-2.2,2.3-4,3.2-3.8s1.2,3.6,1.2,3.6s-0.6-1.7-1.5-0.9s-2.8,3.3-1.5,4.4s-0.1,3.3-1,4.1
	C143.4,64.7,141.3,64.2,142.1,59.8z"/>
<path class="st25" d="M84.2,48.6c1,16.6,15.2,29.2,31.8,28.2c0,0,0,0,0,0c16.6-1,27.7-16.1,26.7-32.7s-13.8-28.8-30.3-27.8
	S83,29.5,84.2,48.6z"/>
<path class="st25" d="M137.4,28c5.2,6,6.1,15.2,5.4,24.6c-0.6,7.9,0.2,13.1-0.1,15.5s-0.7,12.6-3.2,17.2c-1.8,3.2-6.2,9.8-10.4,12.8
	c-2.5,1.9-10.4,2.4-15,0c-3-1.6-14.2-7.4-17.4-13.6c-3-5.7-4-18.4-5.3-26.4"/>
<path class="st26" d="M133.4,32.5c8.6,4.9,8,18.9,8,25.8c0,4.8,0.8,7.6,0.7,9.7c-0.2,3.2-1.7,13.8-3.5,17.1s-7.2,9-10,11.7
	c-2,1.9-9.1,1.9-11.7,0.4c-4.7-2.7-10.7-6.7-14.7-12.5c-2.6-3.7-3.3-16.6-3.9-23.5c-1.1-12.3,2.2-24.1,9.3-28
	C116.2,34.2,120.7,34.4,133.4,32.5z"/>
<path class="st27" d="M118.7,87.9c1.6,0.5,6.4,0.9,9.2,0c0.1,0.6-2,3.9-4.6,3.6S118.8,88.8,118.7,87.9z"/>
<path class="st28" d="M116.1,49.3c1,0.4,2.9,3.4,2.7,3.7s-2.9-1.3-3.6-1.4c-1.1-0.2-10.3-0.5-11.2-0.5c-1.1,0-5.2,1.6-5.2,1
	s3.4-3.7,5.9-3.7S115.1,49,116.1,49.3z"/>
<path class="st28" d="M129.5,49.7c-0.7,0.4-2.1,3.1-1.8,3.5s1.8-1.2,2.7-1.4s8.5-0.9,9-0.9c0.8-0.1,2.8,1.2,2.8,0.8
	s-1.7-3.6-3.5-3.5S130.1,49.3,129.5,49.7z"/>
<path class="st29" d="M130.5,70.9c-1.1-0.6-3.6,0.3-4.5,1.1c-1,0.7-2.4,0.8-3.4,0.1c-1.3-0.8-2.9-1.1-4.4-0.9
	c-1,0.3-1.7,1.2-1.2,1.3s4.7,1,5.7,1.8s1,2.4,1.7,2.2c0.2-0.1,1.3-1.9,1.9-2.4C126.9,73.2,132,72.7,130.5,70.9z"/>
<path class="st30" d="M127.1,72.3c0.1-0.4,2.1-1.5,2.9-1.2s0.1,1-0.8,1S126.9,72.8,127.1,72.3z"/>
<path class="st30" d="M121.2,72.5c-0.7-0.8-1.7-1.2-2.7-1.1c-0.9,0.1-1.1,1.2-0.4,1.2S121.4,72.9,121.2,72.5z"/>
<path class="st31" d="M126.3,67.8c0,0,1.8,0.7,0.9,2C125.3,72.5,124.3,66.9,126.3,67.8z"/>
<path class="st32" d="M135.4,54.2c1.6,0.1,5.5,2.1,6.1,3.6c-1.3,2.2-3,2.8-6.9,3.1s-5.4-0.3-6.4-0.1c-2.5,0.6-0.9-0.9-0.1-2.6
	C129,56.5,133.1,54,135.4,54.2z"/>
<path class="st33" d="M128,59.2c2.8-4.3,8.9-4.6,12.8-1.3c-1,1.6-6.6,3.7-12.1,2C128.1,60.2,127.4,59.9,128,59.2z"/>
<path class="st34" d="M129,59.7c1.6-3.2,8.2-4,10.8-1.4C138.3,59.5,132.4,61.3,129,59.7z"/>
<path class="st35" d="M135.9,55.7c1.2,1.1,0.8,4.1-2.2,4.6s-4.5-2.5-3.4-3.9S135.4,55.2,135.9,55.7z"/>
<path class="st36" d="M133.9,57.3c0.7,0.3,1.4,0.8,1.9,1.3c0.2,0.3-0.9,1.5-2.7,1.6c-1.1,0.1-2.1-0.4-2.6-1.4c0-0.3,1.7-1.3,1.7-1.3
	"/>
<path class="st37" d="M133.1,56c0.8-0.2,1.6,0.3,1.8,1.1c0.2,0.8-0.3,1.6-1.1,1.8c-0.1,0-0.2,0-0.3,0
	C131.3,59.3,130.6,56.3,133.1,56z"/>
<path class="st34" d="M131.3,58.4c-0.3-0.4,0.8-1,0.9-0.4S131.7,59,131.3,58.4z"/>
<path class="st30" d="M127.1,59.5c1-1.4,1.7-2.6,3.3-3.7s5-1.3,6.7-0.9c1.7,0.5,3.4,1.2,4.9,2.3c-1.5-1.7-3.6-2.7-5.8-3
	c-1.4-0.2-4-0.2-5.5,0.9C129,56.2,127.8,57.8,127.1,59.5z"/>
<path class="st38" d="M140.9,57.9c-1.1-0.9-2.4-1.5-3.7-2c-1.4-0.3-5.4,0.1-6.8,1.1c-0.9,0.7-1.8,1.6-2.6,2.5c0.5-1.2,1.2-2.4,2-3.4
	c1.1-1.1,5.2-1.8,7-1.2C138.4,55.3,139.9,56.4,140.9,57.9z"/>
<path class="st39" d="M128.9,60.5c1.5-1.1,8.4-1.7,10.3-1.2C137.8,61.1,128.9,60.5,128.9,60.5z"/>
<path class="st26" d="M137.8,59.8c-2-0.3-7.5-0.3-9.2,1.3s8.4,2.4,10,1.1S138.2,59.9,137.8,59.8z"/>
<path class="st32" d="M108.5,54.5c-4.2,0.2-5.9,2.5-6.5,4.1c2.1,2,4.8,3.1,7.7,3.1c4.4-0.1,5.7-1,6.9-1c2.7,0,0.8-1.5-0.2-3.1
	S112.8,54.2,108.5,54.5z"/>
<path class="st33" d="M117,59.4c1,0.1,0.6,1.2-0.4,0.9s-3,0.7-6.4,0.7c-2.7-0.1-5.2-1-7.5-2.4c0,0,2.1-2.3,7.1-2.4
	C112.6,56,115.3,57.2,117,59.4z"/>
<path class="st34" d="M116.3,59.7c-2.5-3.3-10.9-3.3-12.6-1.1C106,61,114.2,61,116.3,59.7z"/>
<path class="st35" d="M112.2,56.4c1.1,1.2,0.4,4.2-2.7,4.4s-4.3-3-3.1-4.3S111.7,55.9,112.2,56.4z"/>
<path class="st36" d="M110,57.8c0.7,0.4,1.3,1,1.8,1.6c0.2,0.4-1.1,1.4-2.9,1.3c-1.1,0.1-2.2-0.6-2.5-1.7c0-0.3,1.8-1.1,1.8-1.1"/>
<path class="st37" d="M109.1,56.2c0.8,0,1.5,0.6,1.6,1.4s-0.6,1.5-1.4,1.6c-0.8,0.1-1.6-0.4-1.7-1.3c-0.1-0.8,0.4-1.6,1.3-1.7
	C108.9,56.2,109,56.2,109.1,56.2z"/>
<path class="st34" d="M107.2,58.6c-0.2-0.4,0.9-0.9,1-0.3S107.6,59.3,107.2,58.6z"/>
<path class="st30" d="M117.9,58.7c-1.2-1.3-2.7-2.3-4.3-3.1c-2.2-0.8-4.5-0.9-6.7-0.3c-2.5,0.9-6.1,2.4-6.1,2.4
	c1.8-2.3,5.6-2.8,7-3.2c2-0.4,4.1-0.2,6,0.7C115.4,55.9,116.8,57.2,117.9,58.7z"/>
<path class="st38" d="M117,59.4c-1.1-1-2.4-1.9-3.8-2.5c-2.2-0.6-4.6-0.7-6.8-0.2c-1.3,0.5-2.6,1.1-3.8,1.9c0.9-1,1.9-1.9,3-2.7
	c1.8-1.2,5.8-1.3,7.8-0.4S117,59.4,117,59.4z"/>
<path class="st39" d="M104.7,60c1.7-0.6,9.2-0.2,10.6,0.7C111.7,61.5,108,61.3,104.7,60z"/>
<path class="st26" d="M104.7,60.6c2-0.6,9.1-0.5,11,1s-10.4,2.7-12.2,1.6S104.3,60.7,104.7,60.6z"/>
<path class="st29" d="M112.2,74.4c-1,0.4-5.3,2.4-5.5,4.5s3.1,6.3,3.1,6.3s-2.3-4.6-1.7-6.1S112.2,74.4,112.2,74.4z"/>
<path class="st29" d="M132.9,73c1.1,0.3,5.1,2.3,5.5,4.4s-2,6.1-2,6.1s1.8-4.3,1-5.8S132.9,73,132.9,73z"/>
<path class="st40" d="M133.6,79.4c-2.1-0.3-6.5-1.5-7.6-1.4s-1.7,0.4-2.4,0.4c-0.8-0.2-1.6-0.3-2.4-0.4c-3.8,0.2-8.9,1.4-10.3,1.4
	c1.4,0.8,9.4,0.7,10.4,1c1.4,0.4,2.9,0.4,4.4,0.1C126.9,80.2,132.2,80.3,133.6,79.4z"/>
<path class="st41" d="M133.4,80.8c-1.5,1-4.3,5.7-10.3,5.7s-10.5-5.4-12-6c2.8,0.7,7,2.4,12.1,2.5C126.7,82.9,130.1,82.1,133.4,80.8
	z"/>
<path class="st42" d="M118.9,84.1c1.2-0.6,3.4,0.4,3.2,1S117.6,84.7,118.9,84.1z"/>
<path class="st43" d="M109.4,79.5c-0.2-0.2,0.4-0.4,2-0.1c1.4,0.2,8,0.2,12.4,0.2c3.3,0.1,6.5,0,9.8-0.2c1.5-0.2,2-0.2,2-0.1
	c0,0.4-1.7,1.2-3.3,2c-2,1.1-3.8,2.6-8.6,2.8S110.3,80.5,109.4,79.5z"/>
<path class="st44" d="M116.5,82.6c-0.4-0.2-0.8-0.6-1.1-0.9c3.2,0.8,10.2,0.9,13.9,0.3c-0.3,0.4-0.6,0.7-0.9,0.9
	C126.3,83.9,121.9,84.5,116.5,82.6z"/>
<path class="st44" d="M113.9,80.1c0.2,0.4,0.6,0.8,1,1c3.2,1,11.7,1,15.2,0c0.4-0.2,0.8-0.6,0.8-1.1
	C127.3,80.1,121.3,79.8,113.9,80.1z"/>
<path class="st45" d="M113.4,79.9c0,0-1.7-0.2-2.3-0.3s-1.2-0.3-1.2,0.1s0.3,0.3,1.2,0.6s3.7,1.8,3.7,1.8S112.2,80.4,113.4,79.9z"/>
<path class="st45" d="M131.2,80c1.4-0.2,2.8-0.5,3.5-0.6s0.3,0.1-0.1,0.4c-0.9,0.8-1.6,0.8-4.3,2.2C131.6,81,131.2,80,131.2,80z"/>
<path class="st46" d="M116.7,80.5c0.1,0.3,0.4,0.6,0.7,0.8c1.8,0.7,9.5,0.5,10.9-0.1c0.2-0.2,0.3-0.5,0.4-0.8H116.7z"/>
<path class="st13" d="M103.3,31.4C98.8,34.1,94,45.1,94,47.9c-0.1,8.3,1.9,18.3,1.7,19s-0.8,0.2-1.2,0.2c-0.9-0.1-2.8-7-5.5-8.8
	c-1.2-0.9-2.6-1.7-4-2.2c0,0-3.4-9.3-3.4-18c0-8.1,7.2-15.2,10.6-15.2C94.7,22,104.8,30.4,103.3,31.4z"/>
<path class="st13" d="M139.1,37.4c1.4,1.5,4,9.4,3.7,14.1s-0.5,11.9-0.2,12.8c1.1-1.9,2.1-11.6,2.1-11.6s3.6-13.3-1.4-23.8
	s-16.7-16.3-27.8-15.2c2.4-1.4,5.2-1.8,7.9-1.3c-7.1-2-16.8-0.6-20.5,4.3c1-2.4,3-4.3,5.5-5.3c-7.1,1-15.9,8.9-15,11.1
	s10.5,6.9,12.7,7.9c6,1.3,15.2,2.4,24,0.3c5.2-1.2,7.8,1.2,7.8,1.2c-3.2-1.4-5.3-0.2-5.3-0.2c3.1-0.6,8,5.1,9.3,8.9
	C141.2,39.5,140.3,38.3,139.1,37.4z"/>
<path class="st13" d="M93.1,22.8c-4.9-0.8-9.5,4.4-10.4,5.4c3.9-2.1,6.8-3.9,9.7-3.3c-7.1,1.6-10.4,5-11.7,9.3
	c1.8-4.2,11.8-8.1,11.8-8.1"/>
<path class="st13" d="M115.6,13.1c7.6-1.5,13.6,0.1,15.6,4.3c1-2.7-5.8-6-13.7-5.8"/>
<path class="st13" d="M94.2,23.7c-2.7-1.2-3.4-2.8-0.3-6.9c-1.9,2.6-1.6,6.4,1,6.3"/>
<path class="st47" d="M101.1,26.2c2.1-1.1,4.5-1.8,6.9-1.9c0,0-5,1.3-5.2,4.6c5.4,4.5,18.4,3.2,29.2-2c-6.4,2.3-16.5,3.9-22.8,0.5
	c9.3,1.7,19.3-2.3,22.7-8c-4.7,1.1-9.6,1.3-14.4,0.7c5.1-0.8,11.5-1.6,14.5-2.9c-5-5.1-19.2-3.5-25.4,0.9c2.6-2.9,6-5,9.8-6
	c-10.3,0-15.3,1.3-15.8,9.5c-1.2-2.1-1.4-6.9,4.3-10c-8.8,3.4-10.4,8.4-8.2,12c0-1.5,0.4-3,1-4.4c0,0-0.2,1.5,1.3,4.9
	c1.8-1.8,4.2-3,6.8-3.3C103.5,21.8,101.7,23.8,101.1,26.2z"/>
<path class="st47" d="M128.6,25.2c6.5-0.6,13.4,5.8,14.3,8.2c-0.6-6.5-5.7-10.5-10.3-10.4c6.3-0.7,10,2.4,11.7,5
	c-2.5-5.2-8.8-7.7-10.4-7.3C132.6,22.9,128.6,25.2,128.6,25.2z"/>
<path class="st47" d="M122.8,21.3c5.7-0.1,11.1-4,13.4-5c-2.4,2.4-5.2,4.3-8.3,5.7"/>
<path class="st47" d="M93.4,23.7c-2-1.3-5.9-0.2-8.3,2.2c2.3-0.8,4.8-1.1,7.2-0.9c-3.4,0.5-6.5,2.3-8.5,5.2c2.2-1,4.5-2,6.8-2.8
	c-7.3,3.8-9,10.2-8.6,14.6s3.2,12.2,4.2,13.3c-1-6.7-3.1-14.5,2.2-21.2c-2.5,5.9-2.7,7.1-1.5,15c-0.2-8.4,3.3-13.5,14.4-18.5
	c-1.9-1.7-8.1-0.6-10.5,1.1c2.4-1.6,5.1-2.6,7.9-3c-1.5-1.8-6.3-1.9-6.3-1.9c1.1-0.7,2.3-1.1,3.6-1.2C95.4,24.8,94.5,24.1,93.4,23.7
	z"/>
<path class="st47" d="M139.6,31.4c2.7,4.8,4.9,10.4,4.4,15.3C145.8,41.1,146,36.7,139.6,31.4z"/>
<path class="st47" d="M92.8,39.9c-2.5,0.8-6.3,7.5-5.3,15c0.7-5.4,5.9-9.8,5.9-9.8c-1.4-0.9-3.5,1.7-3.5,1.7
	C90.6,44.5,91.6,42.1,92.8,39.9z"/>
<path class="st47" d="M91.1,51.1c-0.9,3.8-1.6,7,2.1,12C91.8,55.4,91.1,51.1,91.1,51.1z"/>
<path class="st48" d="M128.2,15.4c-10.7,0.6-14.7,4.2-14.7,4.2c3.7,1.1,6.5,1.8,12.8,1.3c-8.4,4.4-17.8,2.4-20.6,2.2
	c0.9-2.1,2.4-3.9,4.1-5.3c-3,1-5.8,2.4-8.4,4.2C108.5,13,123.8,13.3,128.2,15.4z"/>
<path class="st47" d="M126.1,16.7c3.3,0.1,6.7-0.5,9.8-1.7c-2.9,2.8-9.4,3.6-9.4,3.6"/>
<path class="st48" d="M113,10.8c-3.9,0.2-10.2,2.5-11.2,9.3C106.5,14.8,109.1,11,113,10.8z"/>
<path class="st48" d="M100.4,13c-3.7,3.9-2.8,8.3-0.2,9.3C98.6,19.2,98.4,15.4,100.4,13z"/>
<path class="st48" d="M94.7,24.1c-2.5-1.9-5.5-2.2-8.3,0.7C89.7,23.6,94.7,24.1,94.7,24.1z"/>
<path class="st48" d="M94.4,25.2c-3.5-1.2-5.3,0-7.6,3C89.3,27,91.8,26,94.4,25.2z"/>
<path class="st48" d="M95.1,27.8c-4.2-1.2-11,2.8-12.1,11c4.1-6.6,7-8.2,8.4-9c-3.5,4.4-4,6.8-4.7,12.1c1.7-6,9.1-12.1,12.3-12
	c-5.6,0.5-7.6,2.8-7.6,2.8C92,30.7,93.4,28.9,95.1,27.8z"/>
<path class="st49" d="M102.3,26.7c4.2,4.6,26,0.9,33.1-13.6c-5.7,11.1-22.1,17.2-32.3,12.9C102,25.9,102.3,26.7,102.3,26.7z"/>
<path class="st50" d="M100.9,25.9c-3-4.8,17.1-12,26.2-9.6c-10-2.2-29.6,2.8-26.9,9.3C100.6,26.2,100.9,25.9,100.9,25.9z"/>
<path class="st50" d="M99.8,27.8c0.4-2.1-14.4-0.5-19.3,8C84.5,30.5,92.8,26.6,99.8,27.8z"/>
<path class="st50" d="M97.2,25.4c-0.1-1.4-5.9-4.2-10.4-3.2C90.4,21.2,96.7,26,97.2,25.4z"/>
<path class="st25" d="M92.3,63.5c-1.9-5.9-5.9-9.2-10-7.3c-1.7,1.1-1,8.6,0.8,11.3s3.4,3.4,5.2,6.1s6,3.6,6.5-0.3"/>
<path class="st51" d="M84.8,58.7c2.1,0.3,6.3,5.6,5.4,7.2s-1.1,1-1.3,2.3s2.1,2.7,2.1,2.7s-3.6-2.1-3.6-3.6s1.9-3.3,0.4-4.8
	s-3.2-0.4-2.8,0.9c0.3,1.3,1.2,4.6,1.2,4.6s-2.9-4-3.2-6.4S84.3,58.6,84.8,58.7z"/>
<path class="st18" d="M171.3,168.4c0,0-2.8,33.4-0.5,83s16.9,181.2,16.9,228.1c-24.8,10.9-116.3,8.4-141.2-0.4
	c0.8-16.9,9-111.3,5.9-141.4c2-28.4,9.5-71.4,10.1-86.3s-0.5-52.1-2.7-66c2.9-13.2-2-53.2-7.7-63.3c11.5-5.7,36-17.1,36-17.1
	c3.1,6.6,16.3,15.9,28.2,18c2.4,0.4,3.3,1,4.1,3.7c0.8,2.7,4.3,15.3,4.6,19.5c0.5-6.8,0.2-17.2,0.3-20.1s1-3,3.4-4.2
	s6.9-10.2,6.9-10.2s17,5.8,31.5,10.5"/>
<path class="st6" d="M90.5,94.2c-1.8,1.8-4.6,11.5-4.6,11.5s1.2,13.2,30.6,17.5c0.8-4.8-0.2-12-7-13.3s-19.4-8.2-18.5-14"/>
<path class="st52" d="M89.7,97.8c0.2,4.6,7.3,9.2,10.7,10.9s0.8,7-0.2,9.7c3.2,1.4,11.2,3.8,15.8,3.8c0.8-4.7-1-10.6-5.8-11.6
	S93.4,104.9,89.7,97.8z"/>
<path class="st6" d="M133.6,100.6c0.7,2.7,0.9,5.8-4.3,9.2c-2.7,1.8-1.8,10.8-1.7,12.4c4.6-1.8,9.3-6,10.1-8.8c0,0-0.9-8.9-2.3-12.9
	"/>
<path class="st19" d="M53.4,123.4c8-4.1,32.1-14.3,32.1-14.3c5.2,9.7,19.3,14,27.8,14.7c1.5,3.3,6.5,23.5,7.1,28.3
	c1.9,1.1,8.4,0.6,10.5-0.1c0.6-5.2,0.1-27.6,0-29.2c3.7-2.7,7.6-6.4,8.2-8.9c9.4,2.6,18.7,5.8,27.8,9.4c3.9,14.5,2.7,47.5,1.6,58.8
	s-1.9,21.4-0.6,21.2s0.4,35.2-0.5,44.9s-9.5,18.4-8.3,19.8s7.2-3.7,9.4-2.4s6.9,52.2,9.7,101.3s7.9,104.6,7,109.1
	C167.8,487,86.3,490,52.3,477.8c3.4-31.6,9.1-111.8,11.6-140.2s5.4-76.7,7.5-78.3s19.6,18.8,30.9,23.8s-18.2-19.6-29.1-38.6
	c-2.4-9.1-3.6-36.8-1.7-41.7s5-0.9,8.8-1.4s-10.8-8.5-13.3-24.8C60.6,132.5,53.4,123.4,53.4,123.4z"/>
<path class="st20" d="M114.3,124.1c3.1,8.9,5.6,18.1,7.4,27.4c1,0.9,7.5,0.4,8.2-0.7c0.4-7,0.5-26.1,0.2-28.1c-1.5,0.4-3.9,0-4,4.6
	c-0.1,4.6,0.2,14-1,20.4c-1.6-7.1-4-16.1-5-19.6S116.8,124.2,114.3,124.1z"/>
<path class="st53" d="M128.6,124.3c-2.6,0-3,4.6,0,4.6S131.6,124.3,128.6,124.3z"/>
<path class="st21" d="M128.9,124.3c-2,0-2.4,3.6,0,3.6c1,0,1.8-0.8,1.8-1.8C130.7,125.1,129.9,124.3,128.9,124.3z"/>
<path class="st54" d="M129.1,124.4c-1.4,0-1.6,2.3,0,2.3c0.6,0.1,1.2-0.4,1.3-1c0.1-0.6-0.4-1.2-1-1.3
	C129.3,124.4,129.2,124.4,129.1,124.4z"/>
<path class="st53" d="M128.6,134.6c-2.6,0-3,4.6,0,4.6S131.6,134.6,128.6,134.6z"/>
<path class="st21" d="M128.9,134.6c-2,0-2.4,3.6,0,3.6c1,0,1.8-0.8,1.8-1.8C130.7,135.4,129.9,134.6,128.9,134.6z"/>
<path class="st54" d="M129.1,134.7c-1.4,0-1.6,2.3,0,2.3c0.6,0,1.2-0.5,1.2-1.2C130.3,135.2,129.8,134.7,129.1,134.7z"/>
<path class="st53" d="M128,144.8c-2.6,0-3,4.6,0,4.6S131,144.8,128,144.8z"/>
<path class="st21" d="M128.2,144.8c-2.1,0-2.4,3.6,0,3.6c1,0,1.8-0.8,1.8-1.8C130.1,145.7,129.2,144.8,128.2,144.8z"/>
<path class="st54" d="M128.5,144.9c-1.4,0-1.6,2.3,0,2.3c0.6,0,1.2-0.5,1.2-1.2C129.6,145.4,129.1,144.9,128.5,144.9z"/>
<path class="st52" d="M135.1,102.7c-0.4,3.4-1.4,5.3-4.2,7c-1,1.1-0.8,5.4-0.6,10.5c3.3-2.3,6.3-4.7,6.9-6.7
	C136.7,109.9,136,106.3,135.1,102.7z"/>
<path class="st22" d="M114.6,122.1c-0.9-0.2-1-1.2-1-1.7c0-0.2,0-0.4-0.1-0.6c-0.1,0.2-0.2,0.3-0.2,0.5c-0.2,0.5-0.6,1.4-1.5,1.2
	s-1-1.2-1-1.7c0-0.2,0-0.4-0.1-0.6c-0.3-0.1-0.5-0.4-0.4-0.7c0,0,0,0,0,0c0-0.3,0.3-0.5,0.6-0.5c0,0,0,0,0,0c0.9,0.2,1,1.1,1,1.7
	s0.1,0.7,0.1,0.7s0.2-0.4,0.3-0.5c0.2-0.5,0.6-1.4,1.4-1.2s0.9,1.1,1,1.7c0,0.2,0,0.4,0.1,0.6h0.1c0.1-0.2,0.2-0.3,0.2-0.5
	c0.2-0.5,0.3-1.4,1.2-1.2c0.3,0.1,0.3,1.2,0.1,1.2c-0.1,0.2-0.2,0.3-0.2,0.5C115.9,121.4,115.5,122.3,114.6,122.1z"/>
<path class="st22" d="M108.6,120.8c-0.9-0.3-0.9-1.2-0.9-1.8c0-0.2,0-0.4,0-0.6c-0.1,0.1-0.2,0.3-0.3,0.5c-0.2,0.5-0.7,1.4-1.6,1.2
	s-0.9-1.2-0.9-1.8c0-0.2,0-0.4-0.1-0.6c-0.3-0.1-0.5-0.4-0.4-0.7c0.1-0.3,0.4-0.5,0.7-0.4c0,0,0,0,0,0c0.9,0.2,0.9,1.2,0.9,1.8
	s0,0.6,0.1,0.7s0.2-0.3,0.3-0.5c0.2-0.5,0.7-1.3,1.5-1.1s0.9,1.2,0.9,1.8c0,0.2,0,0.4,0,0.6h0.1c0.1-0.2,0.2-0.3,0.3-0.5
	c0.2-0.5,0.6-1.4,1.5-1.1c0.3,0.1,0.5,0.4,0.4,0.7c0,0,0,0,0,0c-0.1,0.3-0.4,0.5-0.7,0.4c-0.1,0.1-0.2,0.3-0.2,0.5
	C110,120.1,109.6,121.1,108.6,120.8z"/>
<path class="st22" d="M103,119.2c-0.9-0.2-0.9-1.2-0.9-1.8c0-0.2,0-0.4,0-0.6c-0.1,0.1-0.2,0.3-0.3,0.5c-0.2,0.5-0.7,1.4-1.6,1.2
	s-0.9-1.2-0.9-1.8c0-0.2,0-0.4,0-0.6c-0.3-0.1-0.5-0.4-0.4-0.7c0.1-0.3,0.3-0.5,0.6-0.4c0,0,0,0,0,0c0.9,0.2,0.9,1.2,0.9,1.8
	s0,0.7,0.1,0.7s0.3-0.3,0.3-0.5c0.2-0.5,0.6-1.3,1.5-1.1s0.9,1.2,0.8,1.8c0,0.2,0,0.4,0,0.6h0.1c0.1-0.2,0.2-0.3,0.3-0.5
	c0.2-0.5,0.6-1.4,1.5-1.1c0.3,0.1,0.5,0.4,0.4,0.7c-0.1,0.3-0.4,0.5-0.7,0.4c-0.1,0.1-0.2,0.3-0.2,0.5
	C104.4,118.5,103.9,119.5,103,119.2z"/>
<path class="st21" d="M97.2,117c-0.8-0.5-0.6-1.4-0.4-2c0.1-0.2,0.1-0.4,0.1-0.6c-0.1,0.1-0.3,0.2-0.4,0.4c-0.3,0.4-1,1.2-1.8,0.7
	s-0.6-1.4-0.4-2c0.1-0.2,0.1-0.4,0.1-0.6c-0.3-0.2-0.3-0.5-0.2-0.8c0.1-0.3,0.4-0.4,0.7-0.3c0,0,0,0,0.1,0c0.8,0.5,0.5,1.4,0.4,2
	s-0.1,0.6-0.1,0.7s0.3-0.3,0.4-0.4c0.3-0.4,1-1.1,1.7-0.6s0.5,1.4,0.4,2c-0.1,0.2-0.1,0.4-0.1,0.6h0.1c0.1-0.1,0.3-0.3,0.4-0.4
	c0.3-0.4,0.9-1.2,1.7-0.7c0.3,0.2,0.4,0.5,0.2,0.8c-0.1,0.3-0.4,0.4-0.7,0.2c0,0,0,0,0,0c-0.1,0.1-0.2,0.2-0.3,0.4
	C98.7,116.7,98,117.5,97.2,117z"/>
<path class="st21" d="M92.1,113.4c-0.5-0.6-0.5-1.5,0-2.1c0.1-0.2,0.2-0.4,0.2-0.6c-0.1,0.1-0.3,0.2-0.4,0.3
	c-0.4,0.3-1.2,0.9-1.8,0.2c-0.4-0.6-0.4-1.5,0-2.1c0.1-0.2,0.2-0.4,0.2-0.6c-0.2-0.2-0.2-0.6,0-0.8c0.2-0.2,0.5-0.2,0.7-0.1
	c0,0,0,0,0.1,0.1c0.4,0.6,0.4,1.4,0,2c-0.2,0.4-0.2,0.6-0.2,0.7s0.4-0.2,0.5-0.3c0.4-0.3,1.1-0.9,1.7-0.2c0.4,0.6,0.4,1.4,0,2
	c-0.1,0.2-0.2,0.4-0.2,0.6v0.1c0.2-0.1,0.3-0.2,0.4-0.3c0.4-0.3,1.1-0.9,1.7-0.2c0.2,0.2,0.2,0.6,0,0.8c-0.2,0.2-0.5,0.2-0.7,0
	c0,0,0,0,0,0c-0.1,0.1-0.3,0.2-0.4,0.3C93.6,113.6,92.8,114.2,92.1,113.4z"/>
<path class="st21" d="M88.2,108.8c-0.4-0.6-0.3-1.4,0.2-2c0.1-0.2,0.2-0.3,0.3-0.5c-0.2,0-0.3,0.1-0.4,0.2c-0.4,0.2-1.2,0.7-1.8-0.1
	c-0.4-0.7-0.3-1.5,0.2-2.1c0.1-0.2,0.2-0.3,0.3-0.5c-0.2-0.3-0.2-0.6,0.1-0.8c0.2-0.2,0.5-0.2,0.7,0c0,0,0,0,0.1,0.1
	c0.4,0.6,0.3,1.4-0.2,2c-0.2,0.4-0.3,0.6-0.2,0.6s0.4-0.1,0.5-0.2c0.4-0.2,1.2-0.7,1.8,0.1c0.4,0.6,0.3,1.5-0.2,2
	c-0.1,0.1-0.2,0.3-0.3,0.5v0.1c0.2-0.1,0.3-0.1,0.5-0.2c0.4-0.2,1.2-0.7,1.7,0.1c0.2,0.3,0.2,0.6-0.1,0.8c-0.2,0.2-0.5,0.2-0.7,0
	c0,0,0,0,0-0.1c-0.1,0.1-0.3,0.1-0.4,0.2C89.7,109.2,88.8,109.6,88.2,108.8z"/>
<path class="st22" d="M136.9,114.5c-0.7,0.6-1.3,0-1.7-0.4c-0.1-0.1-0.3-0.3-0.4-0.3c0,0.2,0.1,0.3,0.2,0.5c0.2,0.5,0.5,1.4-0.2,2.1
	s-1.3,0-1.7-0.4c-0.1-0.1-0.4-0.3-0.4-0.3c-0.2,0.2-0.5,0.1-0.6,0c0,0,0-0.1-0.1-0.1c-0.2-0.3-0.1-0.6,0.1-0.8
	c0.7-0.6,1.3,0,1.6,0.4s0.4,0.4,0.5,0.3c0-0.2-0.1-0.4-0.1-0.6c-0.2-0.5-0.5-1.4,0.2-2s1.3,0,1.6,0.4c0.1,0.1,0.4,0.3,0.4,0.3h0.1
	c0-0.2-0.1-0.4-0.2-0.6c-0.2-0.5-0.5-1.4,0.1-2c0.2-0.2,0.5-0.1,0.6,0c0,0,0.1,0.1,0.1,0.1c0.2,0.3,0.1,0.6-0.1,0.8
	c0,0.1,0.1,0.3,0.2,0.5C137.2,112.9,137.6,113.9,136.9,114.5z"/>
<path class="st22" d="M132.5,118.4c-0.7,0.6-1.3-0.1-1.7-0.5c-0.1-0.1-0.3-0.3-0.4-0.4c0,0.2,0.1,0.3,0.1,0.5
	c0.2,0.5,0.5,1.5-0.3,2.1s-1.3-0.1-1.7-0.4c-0.1-0.1-0.3-0.3-0.4-0.4c-0.2,0.2-0.5-1-0.3-1.2c0.7-0.5,1,0.2,1.4,0.6s0.4,0.4,0.5,0.3
	c0-0.2,0-0.4-0.1-0.6c-0.2-0.5-0.4-1.4,0.2-2s1.3,0.1,1.6,0.5c0.1,0.1,0.4,0.4,0.4,0.4l0.1-0.1c0-0.2-0.1-0.4-0.2-0.6
	c-0.2-0.5-0.5-1.4,0.2-2c0.2-0.2,0.5-0.1,0.6,0.1c0,0,0,0.1,0.1,0.1c0.1,0.3,0.1,0.6-0.1,0.8c0,0.2,0.1,0.3,0.1,0.5
	C132.9,116.9,133.2,117.8,132.5,118.4z"/>
<path class="st22" d="M96.5,105.5c3.2,3,7.2,5,11.5,5.7c5.2,1.1,6.1,3.2,6.5,7.2c0.3,0.7,1.4,1.4,1.4-0.7s-1.1-6-6.2-7.2
	C105.1,109.5,100.7,107.8,96.5,105.5z"/>
<path class="st22" d="M135.1,103.3c-0.7,2.7-2.5,5.4-3.3,5.9C135.3,109.2,135.2,105.6,135.1,103.3z"/>
<path class="st20" d="M57.6,125.3c-1.3,3.4,7.6,30.1,15.7,45.5c23.3,44.5,8.9,37,2.5,32.7s-1.4,3.2,10.6,10.6s21.3,13.3,11.4-2.7
	c-5.4-8.7-9.8-11.1,8.4-13.5c18.5-2.4,52-7.3,56.7-15.9c5.2-9.6,5.4-50.9,3.3-55.9s-24.6-10.7-24.6-10.7s-2.9,3.5-7.2,8
	c-3.3,3.4-2.1,30.1-2.1,30.1s-7.2,2.3-12.6,0.8c-2.3-11.6-3.3-25.8-10.8-27.5s-18.5-4.7-24.2-12.4C70.5,117.6,57.6,125.3,57.6,125.3
	z"/>
<path class="st20" d="M72.6,310.6c2.8-0.7,17,44.8,24.9,47s56.8-51.4,60.7-45.4s-60.8,88-60.3,100.8c0.6,14.7,8.2,43,21.3,46.3
	s22.4-9.3,25.2-4.1s-20.8,23.9-29.2,25.3s-52.7,3.5-57.1-6.3S66.7,312,72.6,310.6z"/>
<path class="st20" d="M134.4,278.8c-6.9,0-18.3,10.9-27.7,10s-26.3-20.1-27.5-18.5s24,39,32.5,36.8S141.9,278.9,134.4,278.8z"/>
<path class="st2" d="M24.3,211c-2.8,7.3-3.2,21.7-1.3,30.5c1.6,7.5,13.9,52.1,15.7,59.5c1.6,6.2,14.3,3.2,13.1-3s0.5-48.2-0.2-58.4
	c-0.3-4.6-1.7-14-5.6-19.3"/>
<path class="st3" d="M29.3,214.1c-5,0.9-6,14.4-5,21.4c1.5,11.1,14.4,60.1,15.4,64.4s8.9,3.8,8.8-0.1s-2.9-34.9-3.2-45.4
	S47,210.9,29.3,214.1z"/>
<path class="st2" d="M51.4,295.4c0.2,1.3,0.6,2.6,1.2,3.8c1.6,3.2,3.8,7,4.5,9l-18.9,13c0,0,0,7.6,1.4,10.1s6.5,11,8.1,13.7
	s0.5,5.1-1.4,4.2c-2-1-3.8-2.4-5.2-4.1c-1.2-1.7-6-7.5-6.8-10.4s-2-8.8-2.3-10.7s-1-3.6,0.3-7.2c2.2-7.2,4-14.5,5.4-21.9"/>
<path class="st11" d="M36,318.4c0.2-1.4-1.6-1.2-1.6,0.5s2.9,14.3,4.1,16.1s8,10.7,9.3,11s-5-6.6-6.7-11.3S35.9,319,36,318.4z"/>
<path class="st2" d="M50.9,294.9c0.1,2.1,6.6,12.7,7.3,16.3s2,12.1,2.2,15.8s-2.9,4.3-5.2,1.3s-2.6-10.8-4-12.2s-6.9,2.6-7.3,6.2
	s2.4,12.2,3.5,14.1s4,5.6,3.9,8.4s-1.7,4.3-4.6,0.5s-6.7-9.8-7.8-12.7s-2.1-7.9-2.8-10s-1-4.2-0.4-5.8"/>
<path class="st3" d="M33.8,317.7c0-1.2,2.7-2.1,2.2,0.2s2.2,13,3.4,16.1s7.2,11.4,8.8,12.6s1.9-0.9,1.1-2.6s-5-7.4-5.9-10.2
	s-3-12.7-2.1-15.5s6.6-11,8.5-10.3c0.7,0.2,2.4,2.2,3.1,4.2c1.5,4.7,2.5,12.2,3.2,14.7c1.1,3.5,4.2,1.1,3.5-0.9s-1.9-13.5-2.4-15.7
	s-7.7-16.6-8.6-18.5s-8-2.9-9,1c-1.1,4.1-6.8,23.3-7.2,26.8s2.2,13,2.6,15.2s6.5,10,8.1,11.4s3,2.4,3.6,2.2s0.7-1.6-0.2-2.3
	s-8.2-9.6-9.1-11.9S33.8,320.2,33.8,317.7z"/>
<path class="st55" d="M39.4,317.9c-0.7,1.4-3.3,2.6-3.2,0.6s-2.1-2.4-2.4-1s-0.7,2.6-1.1,2.4s-0.3-1.2,0.7-4s6.1-20.6,7-23.5
	c0.6-1.8,4.9-2,5.3,0.1S41.7,313.7,39.4,317.9z"/>
<path class="st8" d="M56.2,325.2c-0.1,1.3,0.3,2.5,1.1,3.5c0.9,0.4,2,0.1,2.6-0.6c0.3-0.7,0-3.2-0.5-3.5S56.3,324.7,56.2,325.2z"/>
<path class="st8" d="M45.8,343.9c0.3-0.7,0.9-1.1,1.6-1.1c0.6,0,2,2.4,2,3s-0.2,1.5-1.2,0.9C47.2,345.9,46.3,345,45.8,343.9z"/>
<path class="st8" d="M43.5,347.1c0.2-0.7,0.7-1.2,1.3-1.5c0.6-0.2,2.3,1.7,2.5,2.3s-0.2,1.2-0.7,1.2
	C45.4,349.1,43.7,347.5,43.5,347.1z"/>
<path class="st11" d="M49.6,309.8c-2.1,0.1-5.8,6.9-6.2,8.3c-0.3,2.3-0.4,4.5-0.4,6.8c-0.3-3.7,1.6-7.3,4.7-9.2
	c2.5-1.5,3.8-1.4,4.5,1.9c0.6,2.9,1.5,5.8,2.7,8.5C53.8,320.4,52,309.6,49.6,309.8z"/>
<path class="st56" d="M50.1,352.6c-4,19.3-15.9,109.3-14.7,111.6c0.7,0.8,1.7,1.4,2.7,1.8C38.1,465.9,45.8,393.8,50.1,352.6z"/>
<path class="st18" d="M55.7,120.2c0,0-15.4,6-21.2,17.2s-14.7,58.9-14.7,64s1.2,5.1-1,8.6s-2.7,5.6-1,9.1s0.2,15.1,0.5,19.1
	s9.3,55.6,10.1,57.2s3.2,2.3,1.7,5.7s-0.3,6.8,1.5,8c0.9-2.8,11.8-10.5,24.5-9.2c0.9-1.9,1.5-2.8,0.7-5.6c-0.9-2.4-1.1-5.1-0.4-7.6
	c0.7-3.6-2.6-53.4-3.9-56.7c-0.6-1.5,1.5-3.6,1.9-4.7s-1.2-3.8-1.1-5.5s5.5-25,7.9-31.6c2-5.7,3.7-10.2,3.7-10.2"/>
<path class="st19" d="M51.9,124.1c-6.8,3.3-13.6,7.5-17.9,17.3s-13,57.1-12.8,60.2s5.9,10.3,8.1,12.5s-1.5,2.1-3.9,0.3
	s-6.7-1.9-7.6-1.1s1.8,5.7,6.9,10.2s13.2,8.6,15.1,8.6s8.1-10.4,10.9-18.7s8.3-27.5,8.3-31.1s-9.2-12.6-9-14.3s10.4,4,11.5,3.1
	S58.3,130.2,51.9,124.1z"/>
<path class="st19" d="M39.9,289.8c-4.4,3.4-8.7,4.8-9.7,3.5s-8.8-41.4-9.8-47.8s-0.9-16.2,0-16.8s11.6,4.3,15.2,3.6
	s11.5-3.4,16.2-9.3c0,5.1-10.8,21.3-8.8,21.5s6.3-8.6,6.7-6.6s1.3,38.8,0.6,39.1s-5.5,1.5-9.5,4.8c0,0,8-2.2,10.9-0.5
	c1.5,0.9,4.1,9.6-0.4,9.4s-13.8,3.3-7.7,3.7s11.1,2.2,10,3s-15-0.4-19.3,2.5s1.2-4,3.4-5.9C40.4,291.8,40.9,289.1,39.9,289.8z"/>
<path class="st19" d="M30.3,302c-0.9,1.5,1.4,4.4,2.1,4.4s4.4-4.4,10.5-6.1s12.4-2.5,12.8-3.2s-11.8-2.9-17.2-0.8
	S31.1,300.7,30.3,302z"/>
<path class="st20" d="M25.4,200.2c-0.8-7.1,5.8-49.7,9-58.1s13.9-15.1,17.5-14.5c5.6,0.8,7,20.2,5.5,27.7s-8.4,6-9,8.6
	s6,15.6,5.4,17s-8.8-6.5-10.9-5.5c-4.2,2.1,0.4,40.3-2.1,41.7S26.2,208,25.4,200.2z"/>
<path class="st20" d="M23.9,218.4c-2.9,1.4,13.1,11.2,15.2,10.7s6.8-5.6,5.2-6.1s-4.3,3.2-6.5,2.7S25.4,217.8,23.9,218.4z"/>
<path class="st20" d="M47.8,228.6c-2-1.1-11.2,5.6-13.7,5.6s-8.7-2.9-8.7-1.8s10.1,5.9,11.5,8.1s-1.3,16.4-0.3,18
	s12.7-14.6,11.2-15.8s-4.3,6.3-6.3,4.3s0.2-9.5,1.3-10.8S49.2,229.3,47.8,228.6z"/>
<path class="st20" d="M37.9,289.4c2.8-0.8,7.6-1.4,2.5,3s-8.8,10.6-6.2,10.8s8.5-4.8,11.6-5.2s-0.4-1.9-4.2-2.5s-1.8-2.2,4.5-4.9
	s4-6.7-6.4-3.5S34.5,290.3,37.9,289.4z"/>
<path class="st57" d="M85.2,600c-1.5,1.1-8.1,3.7-10.9,8.8s-9.2,12.6-21.2,15.5c-7.7,1.8-19.9,2.3-22.9-0.7
	c-1.6-1.6,1.7-10.2,4.6-12.6s13,7.4,23.5,1.2s26.5-18.2,27.2-16.5S86.2,599.2,85.2,600z"/>
<path class="st58" d="M50.3,590.8c-2.6,4.2-4.2,7.3-1.4,7.6s6.5-1.7,6.5-1.7s-1.5,4.3,0.9,6.7c5,5.3,26.1-14,27.6-19.7
	c2,3.5,2.7,12.3,1.6,13.7s-9.5,4.5-12.2,9.4s-9,12.3-20.7,15.1c-7.5,1.8-19.4,2.3-22.4-0.7c-1.5-1.5,2.3-13.5,8.8-19.8
	C43.2,597.3,50.3,590.8,50.3,590.8z"/>
<path class="st59" d="M47,595c-0.2,2.4-0.7,6,7,3c-2.2,7.1,4.2,9.3,10.8,5.1c4.5-2.8,14.9-11.4,17.9-15.6
	C78.7,595,67,603.9,61.2,610s-26.7,9.3-28.2,6.9C32,615.2,34.9,603.2,47,595z"/>
<path class="st60" d="M32.8,623.4c-2-0.3-1,1.2,4.5,1.7s20.1-1.7,24.9-6.1C50.6,623.6,40.8,624.7,32.8,623.4z"/>
<path class="st57" d="M195.2,609.2c1.5,1.4,0.9,4.6-5.4,7.6c-7.4,3.5-16.8,5.6-30-0.3s-16.5-5.9-24.4-6.8s-11.6-2.1-12.5-4.6
	c-0.2-1.3-0.2-2.5,0-3.8c0,0,10.9-4.1,24.8,3.6s18.2,10,29.1,7.9S195.2,609.2,195.2,609.2z"/>
<path class="st58" d="M125.4,587.7c4.2,4.2,11.7,6.8,21.3,8s12.9,4,18.4,6.9s14.4,0.6,10.7-5.1c5.9,6.5,17.9,7.8,19.5,9.2
	s0.9,4.6-5.4,7.6c-7.4,3.5-16.8,5.6-30-0.3s-16.5-5.9-24.4-6.8s-11.6-2.1-12.4-4.6S123,590.5,125.4,587.7z"/>
<path class="st59" d="M131.2,593c5.3,6.7,14.3,5.1,23.1,9.9s13.6,7.7,18.7,8.8c7.4,1.5,22.2-0.1,21.7-4.4
	c-0.3-1.1-11.8-2.5-17.5-7.7c0.8,3.6-6.2,7.3-14.5,2.4c-8-4.7-11.3-4.9-18.3-5.8C139.8,595.8,135.4,594.7,131.2,593z"/>
<path class="st60" d="M161.8,615.5c9,4.3,24.7,4,32.9-4.1C184.9,621.2,170.4,621.6,161.8,615.5z"/>
</svg>
