<svg id="Layer_1" data-name="Layer 1" xmlns="http://www.w3.org/2000/svg" viewBox="0 0 95.36 55.79"><defs><style>.cls-1{fill:#c8af6e;}.cls-2{fill:#ff9f57;stroke:#5e3b2c;stroke-miterlimit:10;}.cls-3{fill:#e6eb9c;}</style></defs><path class="cls-1" d="M89.55,18.93s7.39,3.79,3.12,13.13c-5,11-16.52,4.74-16.4-.05,0,0,8.43,8.66,14.14.4C94.78,26.09,90.62,20.83,89.55,18.93Z"/><path class="cls-2" d="M89.47,28.38s-3.39,9.79-11.29,6.32-21.56,2.95-28.72,6.53S13,60.77,2.3,39.75c0,0,7.78-2.62,13.15-19.35C20.07,6,40.79-.45,51.17,6.3c9.91,6.45,26.94,11.7,35.4,13.35C92.12,20.74,89.47,28.38,89.47,28.38Z"/><circle class="cls-3" cx="16.74" cy="32.18" r="2.9"/><circle class="cls-3" cx="28.2" cy="24.24" r="3.59"/><ellipse class="cls-3" cx="44.81" cy="22.43" rx="2.69" ry="2.29" transform="translate(-0.83 1.74) rotate(-2.21)"/><ellipse class="cls-3" cx="38.28" cy="35.29" rx="2.69" ry="1.87" transform="translate(-11.33 19.48) rotate(-24.99)"/><ellipse class="cls-3" cx="22.02" cy="41.87" rx="1.68" ry="1.51" transform="translate(-15.63 13.22) rotate(-24.99)"/><circle class="cls-3" cx="30.48" cy="13.56" r="2.69"/></svg>