<svg id="Layer_1" data-name="Layer 1" xmlns="http://www.w3.org/2000/svg" viewBox="0 0 137.76 79.47"><defs><style>.cls-1{fill:#c8af6e;}.cls-2{fill:#ff9f57;stroke:#5e3b2c;stroke-miterlimit:10;}.cls-3{fill:#e6eb9c;}</style></defs><path class="cls-1" d="M8.55,26.79s-10.76,5.44-4.65,19c7.2,16,23.94,7,23.8.07,0,0-12.31,12.48-20.53.44C.9,37.14,7,29.54,8.55,26.79Z"/><path class="cls-2" d="M8.58,40.51s4.83,14.23,16.33,9.27,31.25,4.47,41.61,9.72S119.25,88.17,135,57.77c0,0-11.28-3.87-18.91-28.19C109.47,8.61,79.46-.9,64.34,8.82,49.91,18.08,25.15,25.54,12.86,27.87,4.8,29.4,8.58,40.51,8.58,40.51Z"/><circle class="cls-3" cx="114.06" cy="46.66" r="4.21"/><circle class="cls-3" cx="97.52" cy="35.04" r="5.21"/><ellipse class="cls-3" cx="73.43" cy="32.28" rx="3.33" ry="3.9" transform="translate(37.91 104.2) rotate(-87.44)"/><ellipse class="cls-3" cx="82.78" cy="50.99" rx="2.71" ry="3.9" transform="translate(1.27 103.99) rotate(-64.66)"/><ellipse class="cls-3" cx="106.33" cy="60.68" rx="2.19" ry="2.43" transform="translate(5.98 130.81) rotate(-64.66)"/><circle class="cls-3" cx="94.3" cy="19.53" r="3.9"/></svg>