<svg id="Layer_1" data-name="Layer 1" xmlns="http://www.w3.org/2000/svg" viewBox="0 0 94.8 46.58"><defs><style>.cls-1{fill:#461211;}.cls-2{fill:#9b633d;}.cls-3,.cls-5{fill:#fff;}.cls-3{stroke:#704634;}.cls-3,.cls-7,.cls-9{stroke-miterlimit:10;}.cls-4{fill:#051930;}.cls-6{fill:#7c4a28;}.cls-7{fill:#c67f4f;stroke:#5e392c;stroke-width:0.3px;}.cls-8{fill:#e5ad88;}.cls-9{fill:none;stroke:#813d1c;stroke-width:4px;}</style></defs><path class="cls-1" d="M90.28,18.27s2.48-.47,2.71,0,.71,4.47,0,5.77-11.74,0-11.74,0V20.54Z"/><path class="cls-1" d="M4.62,20.59s-2.55-.47-2.8,0-.72,4.48,0,5.77,12.11,0,12.11,0V22.86Z"/><path class="cls-2" d="M75.69,36.29a16.88,16.88,0,0,0,1.23-19.88C71.15,7,57.1,10.61,55.69,21.87c-1.36,10.85,3.17,17,10.71,17.72C72.81,40.18,75.69,36.29,75.69,36.29Z"/><ellipse class="cls-3" cx="67.45" cy="26.1" rx="9.47" ry="11.61"/><ellipse class="cls-4" cx="67.69" cy="27.23" rx="5.68" ry="6.34"/><circle class="cls-5" cx="64.41" cy="23.4" r="1.62"/><ellipse class="cls-6" cx="67.45" cy="26.1" rx="9.67" ry="11.85"/><path class="cls-2" d="M36.74,39A16.88,16.88,0,0,0,38,19.1c-5.77-9.43-19.82-5.8-21.23,5.46-1.36,10.85,3.17,17,10.71,17.72C33.86,42.87,36.74,39,36.74,39Z"/><ellipse class="cls-3" cx="28.5" cy="28.79" rx="9.47" ry="11.61"/><ellipse class="cls-4" cx="28.15" cy="30.26" rx="5.45" ry="6.08"/><circle class="cls-5" cx="23.55" cy="26.16" r="1.88"/><ellipse class="cls-6" cx="28.5" cy="28.79" rx="9.61" ry="11.78"/><path class="cls-7" d="M77.93,39.65s-29.88-15-56.39,2.83l-3.51,3L73.57,43.1Z"/><path class="cls-8" d="M77.93,39.65s-15.42-7.38-31.3-5.91-25.09,8.74-25.09,8.74a57.06,57.06,0,0,1,27.29-7.73C62.63,34.37,69.81,36.67,77.93,39.65Z"/><circle class="cls-9" cx="24.1" cy="24.56" r="18.54"/><circle class="cls-9" cx="70.96" cy="21.5" r="18.54"/></svg>