<svg id="Layer_1" data-name="Layer 1" xmlns="http://www.w3.org/2000/svg" viewBox="0 0 153.6 89.59"><defs><style>.cls-1{fill:#ddc63e;}.cls-2{fill:#6f631f;}.cls-3{fill:#ffe94d;}.cls-4{fill:#fff294;}.cls-5{fill:#2ba769;}.cls-6{fill:#12472b;}.cls-7{fill:#238e56;}.cls-8{fill:#55b987;}.cls-9{fill:#9dba32;}.cls-10,.cls-13{fill:#a8ce3b;}.cls-11{fill:#b9d862;}.cls-12{fill:#4f5d19;}.cls-13,.cls-14{stroke:#4c5b0c;stroke-miterlimit:10;stroke-width:0.5px;}.cls-14{fill:none;}.cls-15{fill:#dbdddd;}.cls-16{fill:#fff;}.cls-17{fill:#009ce5;}.cls-18{fill:#00bdff;}.cls-19{fill:#0065e5;}</style></defs><path class="cls-1" d="M69.45,68.5s8.21,10,17,13.28c1.9.7,6.88-8,3.37-14.89C84,67.53,69.45,68.5,69.45,68.5Z"/><path class="cls-2" d="M86.53,82h0l-.1,0c-8.78-3.24-17-13.23-17.13-13.33l-.23-.28.37,0c.14,0,14.62-1,20.41-1.6l.13,0,.06.12c2.57,5,.69,11.14-1.47,13.9C87.82,81.66,87.09,82.11,86.53,82ZM69.83,68.66c1.42,1.65,8.87,10,16.74,12.94h.05c.4.1,1-.33,1.65-1.14,2.08-2.65,3.9-8.54,1.49-13.38C84.41,67.67,72.13,68.51,69.83,68.66Z"/><path class="cls-2" d="M89.14,79.54C89,79.49,78.68,74,72.48,68.4l.25-.28c6.17,5.57,16.49,11,16.59,11.09Z"/><path class="cls-2" d="M90.59,75.78c-.08,0-8.88-3.41-14.12-7.63l.24-.3c5.19,4.19,13.93,7.54,14,7.57Z"/><path class="cls-2" d="M91,71.76a37.1,37.1,0,0,1-8.64-4l.22-.3a36.55,36.55,0,0,0,8.54,3.94Z"/><path class="cls-1" d="M93,66.56s6.49,7.73,16.25,9.86c1.51.36,2.39-.69,3.32-3,1.33-3.27,2.71-7.55-2.35-9.66C103.64,62.32,93,66.56,93,66.56Z"/><path class="cls-2" d="M108.71,76.5h0c-9.46-2.25-15.84-9.75-15.9-9.82l-.17-.2.24-.1c.11,0,10.82-4.24,17.33-2.79h0c5.54,2.3,3.53,7.25,2.46,9.9-.88,2.16-1.82,3.51-3.54,3.1ZM93.27,66.64c1.08,1.2,7.06,7.48,15.52,9.49h0l.44.1c1.29.31,2.13-.47,3.11-2.87,1.42-3.51,2.54-7.41-2.24-9.41C104.26,62.66,94.92,66,93.27,66.64Z"/><path class="cls-2" d="M112.07,74.65c-.2-.05-10.43-2.52-17.3-8.65l.25-.28c6.8,6.06,16.93,8.51,17.14,8.56h0l-.09.37Z"/><path class="cls-2" d="M112.64,71.43A45.53,45.53,0,0,1,98,65l.21-.31a45.13,45.13,0,0,0,15.13,6.48l-.07.37Z"/><path class="cls-2" d="M113.68,68.41c-.07,0-6.92-1.66-11.32-4.37l.2-.32c4.34,2.68,11.14,4.31,11.21,4.33Z"/><path class="cls-1" d="M120.63,46.18s13.58-8.26,23.93-8.91c4.17-.17,4.54,4.82.22,10.51s-9.21,8.36-8.75,14.58c.58,7.88,3.91,11.25,2.16,18.06s-3.09,6.5-6.86,4.44S119,72,116.77,65.72C120.53,49.9,120.63,46.18,120.63,46.18Z"/><path class="cls-3" d="M144.56,37.27c-10.35.65-23.93,8.91-23.93,8.91s-.08,3-2.83,15.11c4.3.68,8.56-1.1,12.21-3.49,5.17-3.46,10.1-6.54,14.91-10.21C149.09,42,148.69,37.1,144.56,37.27Z"/><path class="cls-4" d="M146,37.48a3.74,3.74,0,0,0-1.47-.21c-10.35.65-23.93,8.91-23.93,8.91a19.61,19.61,0,0,1-.23,2C124.16,45.34,139.17,37.15,146,37.48Z"/><path class="cls-2" d="M134,86.26A12.61,12.61,0,0,1,131.24,85c-3.71-2-12.37-12.89-14.65-19.24l0-.05,0-.06c3.7-15.6,3.85-19.47,3.85-19.5v-.11l.09,0c.13-.08,13.73-8.3,24-8.93A3,3,0,0,1,147.81,39c.76,2.12-.34,5.51-2.88,8.86-1.22,1.6-2.46,2.93-3.65,4.23-3,3.25-5.39,5.82-5.06,10.21a37.66,37.66,0,0,0,1.5,7.74c.92,3.35,1.72,6.24.66,10.39C137.13,85.34,136.06,86.75,134,86.26ZM117,65.71c2.28,6.3,10.8,17,14.45,19a11.68,11.68,0,0,0,2.66,1.19c1.58.38,2.61-.37,3.93-5.51,1-4,.25-6.9-.65-10.2a37.51,37.51,0,0,1-1.52-7.81c-.34-4.56,2.09-7.18,5.16-10.5a54.74,54.74,0,0,0,3.63-4.2c2.46-3.24,3.54-6.5,2.82-8.5a2.66,2.66,0,0,0-2.88-1.71c-9.76.61-22.59,8.14-23.75,8.83C120.77,47,120.38,51.31,117,65.71Z"/><path class="cls-2" d="M120.34,49.39l-.18-.33c9.38-5,27.25-10.12,27.42-10.17l.11.36C147.51,39.3,129.68,44.44,120.34,49.39Z"/><rect class="cls-2" x="119.49" y="47.14" width="28.05" height="0.38" transform="translate(-7.55 34.45) rotate(-14.3)"/><path class="cls-2" d="M119.58,53.21l-.08-.37c6.76-1.42,23.27-3,23.44-3l0,.38C142.81,50.22,126.32,51.8,119.58,53.21Z"/><rect class="cls-2" x="119.11" y="54.49" width="19.74" height="0.38" transform="translate(-0.94 2.27) rotate(-1)"/><rect class="cls-2" x="127.37" y="49" width="0.38" height="17.62" transform="translate(44.62 170.65) rotate(-78.06)"/><rect class="cls-2" x="127.17" y="51.53" width="0.38" height="18.79" transform="translate(27.12 160.35) rotate(-70.33)"/><rect class="cls-2" x="127.66" y="53.83" width="0.38" height="22.21" transform="translate(9.17 145.41) rotate(-61.07)"/><rect class="cls-2" x="127.94" y="56.62" width="0.38" height="26.74" transform="translate(-6.16 127.29) rotate(-51.76)"/><path class="cls-2" d="M137.49,82.48C136.73,81.85,118.7,67,117,64l.33-.18c1.63,3,20.17,18.24,20.36,18.39Z"/><path class="cls-5" d="M124.05,51.65c-1.79,0-3.8,1.86-3.8,1.86l2.13,6.82A12.08,12.08,0,0,0,124.05,51.65Z"/><path class="cls-6" d="M122.32,60.78,120,53.46l.09-.08c.08-.08,2.09-2,3.93-1.92h.15l0,.15a12.28,12.28,0,0,1-1.69,8.82Zm-1.86-7.21,2,6.31a11.88,11.88,0,0,0,1.46-8A6.73,6.73,0,0,0,120.46,53.57Z"/><path class="cls-5" d="M124.16,52.38c-.4-3.17-2-5.61-3.53-6.2a9,9,0,0,1-3.15,1.17l2.38,7.81A6.07,6.07,0,0,0,124.16,52.38Z"/><path class="cls-6" d="M119.73,55.38l-2.49-8.19.22,0A8.88,8.88,0,0,0,120.54,46l.08-.05.08,0c1.49.57,3.22,2.94,3.65,6.34v.06l0,.06c-1.13,2.12-3.68,2.74-4.44,2.88Zm-2-7.88L120,54.94a6,6,0,0,0,4-2.6c-.41-3.13-2-5.37-3.32-6A9.49,9.49,0,0,1,117.72,47.5Z"/><path class="cls-7" d="M120.27,58c-1.35,1.52-1.9,5.14-2.09,6.72a14.58,14.58,0,0,0,5.53-7.31A3.15,3.15,0,0,0,120.27,58Z"/><path class="cls-5" d="M120.27,58a8.15,8.15,0,0,0-1.44,3.18,12.57,12.57,0,0,0,3-.15,12.6,12.6,0,0,0,1.83-3.62A3.15,3.15,0,0,0,120.27,58Z"/><path class="cls-6" d="M118,65.17l0-.43c.17-1.53.73-5.26,2.13-6.83a3.3,3.3,0,0,1,3.63-.64l.18.06,0,.18a14.8,14.8,0,0,1-5.59,7.41Zm5.29-7.65a2.71,2.71,0,0,0-2.83.64c-1.21,1.36-1.77,4.51-2,6.19a14.33,14.33,0,0,0,5-6.77Z"/><path class="cls-5" d="M120.88,53.86a2.72,2.72,0,0,1,2.11,3.6c-.57,2.06-3.22,3.49-6.9,0C116.11,54.92,120.88,53.86,120.88,53.86Z"/><path class="cls-6" d="M119.37,59.65A7.79,7.79,0,0,1,116,57.57l-.06-.06v-.08c0-2.63,4.74-3.71,4.94-3.76H121a3.36,3.36,0,0,1,2,1.4,3.21,3.21,0,0,1-3.61,4.57Zm-3.09-2.3a7.28,7.28,0,0,0,3.17,1.93,2.64,2.64,0,0,0,3.36-1.88,2.68,2.68,0,0,0-.15-2.13,3,3,0,0,0-1.78-1.22h0C120.43,54.16,116.39,55.19,116.28,57.35Z"/><path class="cls-5" d="M118.79,48.78s3.53.9,3.45,3.4-1,5.71-6.44,4c-1.26-1.46-1.88-4.83-1.88-4.83Z"/><path class="cls-6" d="M116.59,56.61c-.27-.06-.56-.14-.84-.23h0l0,0c-1.28-1.48-1.9-4.78-1.93-4.92l0-.14,5.06-2.68.07,0c.15,0,3.67,1,3.59,3.59-.06,1.91-.56,3.21-1.54,4S118.46,57.06,116.59,56.61Zm-.68-.57c2.14.65,3.74.58,4.75-.19s1.34-1.88,1.4-3.68c.06-2.13-2.77-3.05-3.25-3.19l-4.68,2.49A12.62,12.62,0,0,0,115.91,56Z"/><path class="cls-7" d="M116.77,65.72a20.63,20.63,0,0,0,3.09-2.34,13.27,13.27,0,0,0,0-4.07c-.3-2.27-3.78-2.32-3.78-2.32l-3.55,2.19.9,5.77C114.5,65.15,115.59,65.41,116.77,65.72Z"/><path class="cls-5" d="M116.13,57l-3.55,2.19.1.63A22,22,0,0,0,120,61.25a15,15,0,0,0-.13-1.94C119.61,57,116.13,57,116.13,57Z"/><path class="cls-6" d="M113.31,65.11l-.94-6,3.71-2.29h.06a6.58,6.58,0,0,1,1.35.19,3,3,0,0,1,2.6,2.29,12.88,12.88,0,0,1,0,4.13v.06l0,0a19,19,0,0,1-3.11,2.37l-.07.05-.08,0c-1.19-.32-2.29-.58-3.28-.78Zm-.53-5.84.86,5.52c1,.19,2,.43,3.1.73a19.43,19.43,0,0,0,2.94-2.24,12.65,12.65,0,0,0,0-4c-.26-1.94-3.11-2.13-3.54-2.15Z"/><path class="cls-5" d="M118.26,51.56c2.64-1.48,1.95-3.69,1.32-4.84a5.47,5.47,0,0,1-6.06-.49l-.73,3.64S114.54,53.64,118.26,51.56Z"/><path class="cls-6" d="M115.34,52.28h0A4.44,4.44,0,0,1,112.62,50l0-.06.8-4,.24.18a5.67,5.67,0,0,0,2.06,1,5.86,5.86,0,0,0,3.81-.54l.16-.07.09.16a3.47,3.47,0,0,1-1.4,5.09A4.07,4.07,0,0,1,115.34,52.28ZM113,49.84a4.08,4.08,0,0,0,2.44,2.08h0a3.77,3.77,0,0,0,2.74-.53A3,3,0,0,0,119.49,47a6.14,6.14,0,0,1-3.89.49,6,6,0,0,1-2-.9Z"/><path class="cls-5" d="M113.56,50.7s4.59,2.12,3.69,5.39-5.07,4.48-7.43,3.28c-2-2.62-1.13-6.66-1.13-6.66Z"/><path class="cls-6" d="M110.68,59.87a4,4,0,0,1-.94-.34l0,0,0,0c-2.06-2.65-1.21-6.64-1.17-6.81l0-.1,5-2.08.08,0c.19.09,4.73,2.23,3.79,5.61C116.61,59.09,113.22,60.48,110.68,59.87Zm-.73-.65a4,4,0,0,0,.82.29c2.37.56,5.54-.72,6.3-3.47s-2.94-4.85-3.52-5.13l-4.69,1.93C108.74,53.46,108.2,56.92,110,59.22Z"/><path class="cls-5" d="M106.44,53a9.18,9.18,0,0,0,6.81-.39c2.62-1.26,2.17-4.13,1.79-5.48-1.72-.65-3.13-2.23-4.78-4l-3.35,3Z"/><path class="cls-6" d="M107.16,53.36h0a5.87,5.87,0,0,1-.79-.24l-.12,0,.48-7.07,3.55-3.2.31.34c1.56,1.69,2.9,3.15,4.51,3.76l.09,0,0,.1c.36,1.26.9,4.35-1.89,5.7A9.35,9.35,0,0,1,107.16,53.36Zm-.52-.54.61.17a8.92,8.92,0,0,0,5.91-.6c2.4-1.15,2.13-3.7,1.72-5.17-1.65-.66-3-2.13-4.57-3.83l-.06-.07-3.16,2.86Z"/><path class="cls-7" d="M109.89,58,109,64.4a33.11,33.11,0,0,1,7.33,1.21C118.24,59.41,109.89,58,109.89,58Z"/><path class="cls-5" d="M109.89,58l-.11.84c1.84.61,3.65,1.28,5.46,1.76A11.14,11.14,0,0,0,109.89,58Z"/><path class="cls-6" d="M108.78,64.58l1-6.8.19,0,.48.1c1.3.31,4.46,1.27,5.79,3.62a5,5,0,0,1,.32,4.13l-.06.18-.17,0-1.23-.31a29.86,29.86,0,0,0-6.06-.89Zm1.27-6.36-.84,6a30.7,30.7,0,0,1,5.93.9l1.06.26a4.69,4.69,0,0,0-.33-3.67c-1.27-2.21-4.31-3.14-5.55-3.43Z"/><path class="cls-7" d="M108.38,51.73s5.06,2.75,4.11,5.91-1.77,5-7.35,4.07a17.15,17.15,0,0,1-.37-5.8Z"/><path class="cls-5" d="M108.38,51.73l-3.61,4.18a13.32,13.32,0,0,0-.1,1.64,40.45,40.45,0,0,1,7.16,2,15.12,15.12,0,0,0,.66-1.88C113.44,54.48,108.38,51.73,108.38,51.73Z"/><path class="cls-6" d="M105,61.87l0-.12a17.12,17.12,0,0,1-.36-5.87v-.06l3.74-4.33.14.07c.21.12,5.18,2.86,4.2,6.14s-1.84,5.15-7.56,4.19ZM105,56a17.28,17.28,0,0,0,.35,5.55c5.3.86,6.09-.85,7-3.95.81-2.7-3.11-5.16-3.89-5.62Z"/><path class="cls-5" d="M105.75,45.68s5.28,2.61,4.12,6.69-4.58,4.63-7.52,3.16-1.76-5.26-1.76-5.26Z"/><path class="cls-6" d="M103.88,56.29a7.41,7.41,0,0,1-1.62-.6c-3.05-1.52-1.86-5.44-1.85-5.48l0-.05,5.29-4.7.11,0s5.41,2.73,4.22,6.92C109.16,55.55,106.85,57,103.88,56.29Zm-3.12-5.92c-.13.46-1,3.68,1.67,5a7.15,7.15,0,0,0,1.54.56c2.75.66,4.89-.69,5.72-3.6,1-3.56-3.17-6-3.92-6.41Z"/><path class="cls-1" d="M56.48,17.92s7.9-11.29,19.7-14.49c4.84,0,28.46,10.62,36,35.07a23.14,23.14,0,0,0-6.09,2S83,19.75,56.48,17.92Z"/><path class="cls-3" d="M76.18,3.43C66.59,6,59.57,14,57.28,16.86,77,10,94.94,26.1,109.93,37.16a7.41,7.41,0,0,0,2.2,1.13C104.5,14,81,3.42,76.18,3.43Z"/><path class="cls-4" d="M68.15,9.24c3.56-1.1,7-2.42,10.63-1.55,11.68,2.6,20.31,10.69,28.42,19.67-10-16.57-27-23.94-31-23.93C69,5.38,63.28,10.31,59.88,13.88,63,12.74,65.15,10.1,68.15,9.24Z"/><path class="cls-2" d="M106.06,40.76l-.09-.08c-.18-.16-17.85-15.87-39.65-21a60.24,60.24,0,0,0-9.86-1.53l-.33,0,.19-.28C56.4,17.7,64.4,6.43,76.13,3.25h.05a8,8,0,0,1,1.71.24c4,.95,10.87,4.32,17.34,9.72a53.93,53.93,0,0,1,17.14,25.24l.07.23-.23,0a23,23,0,0,0-6,2ZM66.41,19.27c21.06,5,38.28,19.79,39.72,21a23.45,23.45,0,0,1,5.82-2A53.67,53.67,0,0,0,95,13.49C88.57,8.13,81.73,4.78,77.8,3.85a7.45,7.45,0,0,0-1.6-.23C65.64,6.5,58.13,16,56.83,17.76A61.36,61.36,0,0,1,66.41,19.27Z"/><path class="cls-2" d="M60.59,18.46l-.3-.23A49.35,49.35,0,0,1,79.8,4.11l.13.35A49,49,0,0,0,60.59,18.46Z"/><path class="cls-2" d="M65.34,19.24,65.05,19C71.2,12.1,82.31,5.28,82.42,5.21l.2.32C82.51,5.6,71.44,12.39,65.34,19.24Z"/><path class="cls-2" d="M70.09,20.59l-.3-.23A55.18,55.18,0,0,1,85.57,6.7l.17.34A54.6,54.6,0,0,0,70.09,20.59Z"/><path class="cls-2" d="M74.71,21.82l-.32-.19c4.65-7.85,14.27-13,14.37-13l.17.34C88.84,9,79.31,14.07,74.71,21.82Z"/><path class="cls-2" d="M78.31,23.37,78,23.15A34.83,34.83,0,0,1,92.75,11.36l.12.35A34.65,34.65,0,0,0,78.31,23.37Z"/><path class="cls-2" d="M82.16,25.06l-.3-.23c6.87-9,13.9-11,14-11l.1.37C95.86,14.21,88.94,16.12,82.16,25.06Z"/><path class="cls-2" d="M85.47,26.75l-.3-.22C92.18,17,98.05,16,98.3,16l0,.38S92.38,17.38,85.47,26.75Z"/><path class="cls-2" d="M88.33,28.28,88,28c8.09-9.4,12.88-9.08,13.08-9.06l0,.37v0S96.26,19.06,88.33,28.28Z"/><path class="cls-2" d="M90.93,29.81l-.27-.26c5-5.44,12.68-7.74,12.75-7.76l.11.36C103.44,22.18,95.82,24.44,90.93,29.81Z"/><path class="cls-2" d="M94.42,32l-.28-.26a24.66,24.66,0,0,1,11.52-7l.08.37A24.19,24.19,0,0,0,94.42,32Z"/><path class="cls-2" d="M97.48,34l-.27-.26c5.38-5.55,10.07-6.08,10.27-6.1l0,.37S102.75,28.57,97.48,34Z"/><path class="cls-2" d="M99.82,35.64l-.26-.26a16.22,16.22,0,0,1,9.54-4.77l0,.38A15.83,15.83,0,0,0,99.82,35.64Z"/><path class="cls-2" d="M101.84,37.12l-.25-.28a14.17,14.17,0,0,1,8.86-3.37l0,.37A13.84,13.84,0,0,0,101.84,37.12Z"/><path class="cls-2" d="M104.21,39l-.21-.31A14.43,14.43,0,0,1,111.4,36v.38A14.37,14.37,0,0,0,104.21,39Z"/><path class="cls-7" d="M100.84,65.57l.92-.24a23.17,23.17,0,0,1,9.81-.71C108,57,103.18,62.14,100.84,65.57Z"/><path class="cls-6" d="M100.39,65.88l.29-.42c1.79-2.6,4.49-5.57,7.24-4.91,1.45.34,2.74,1.69,3.83,4l.14.32-.34,0a22.9,22.9,0,0,0-9.74.7l-.93.24Zm7.44-5c-2.5-.59-5.07,2.29-6.55,4.35l.43-.12a23.38,23.38,0,0,1,9.54-.75C110.26,62.38,109.11,61.22,107.83,60.91Z"/><path class="cls-7" d="M101.43,53.66s6.78,2.87,6.38,6.16S101.68,66.5,97.42,64c-1-2.46,1-6.16,1-6.16Z"/><path class="cls-5" d="M101.43,53.66,98.75,57.4c1.38,0,2.78,0,4.25,0a20.82,20.82,0,0,1,4.42.73C106,55.6,101.43,53.66,101.43,53.66Z"/><path class="cls-6" d="M99.06,64.89a6.66,6.66,0,0,1-1.73-.69l-.06,0,0-.06c-1-2.51.9-6.16,1-6.32l0,0,3.12-4.34.14.06c.28.12,6.9,3,6.49,6.36a5.62,5.62,0,0,1-2.58,3.67A8.05,8.05,0,0,1,99.06,64.89Zm-1.49-1a6.24,6.24,0,0,0,1.57.61,7.68,7.68,0,0,0,6.07-1.31,5.36,5.36,0,0,0,2.42-3.41c.34-2.86-5.18-5.48-6.13-5.9L98.56,58C98.45,58.2,96.73,61.63,97.57,63.91Z"/><path class="cls-5" d="M105.87,47.2c5.11,2.57,6.9.33,7.5-1.08a60,60,0,0,1-4.75-4.79c-1.24-1.27-2.47-2.47-3.7-3.62C103.28,39.83,100.55,44.52,105.87,47.2Z"/><path class="cls-8" d="M112.26,45.15c-1.13-1.09-2.27-2.45-3.64-3.82s-2.47-2.47-3.7-3.62a13,13,0,0,0-1.51,2.45,44.43,44.43,0,0,1,6.79,4A6.44,6.44,0,0,0,112.26,45.15Z"/><path class="cls-6" d="M108.43,48.37h0a12.31,12.31,0,0,1-2.64-1,5.38,5.38,0,0,1-3.13-3.49c-.54-2.4,1.09-5,2.11-6.29l.13-.16.15.14c1.25,1.17,2.5,2.39,3.7,3.63.66.65,1.26,1.31,1.84,1.94A24.56,24.56,0,0,0,113.48,46l.12.09-.06.13C113.05,47.34,111.75,49.16,108.43,48.37ZM105,38c-1,1.3-2.41,3.65-1.92,5.8A5,5,0,0,0,106,47a12.38,12.38,0,0,0,2.56,1h0c2.79.66,4-.6,4.61-1.83a27.28,27.28,0,0,1-2.82-2.79c-.57-.63-1.17-1.27-1.82-1.93C107.33,40.28,106.14,39.11,105,38Z"/><path class="cls-5" d="M104.49,38.32s5.89,7.4,1.22,10.36S99,48.05,99,48.05l.28-6.9Z"/><path class="cls-8" d="M104.49,38.32l-2.24,1.21c1.46.8,2.94,1.53,4.39,2.34A19.09,19.09,0,0,0,104.49,38.32Z"/><path class="cls-6" d="M101.32,49.92a4.05,4.05,0,0,1-2.49-1.78l0,0L99.09,41l5.45-3,.1.12c.15.18,3.57,4.54,3,8a3.85,3.85,0,0,1-1.83,2.68A5.86,5.86,0,0,1,101.32,49.92ZM99.18,48a3.8,3.8,0,0,0,2.22,1.56,5.57,5.57,0,0,0,4.21-1,3.49,3.49,0,0,0,1.66-2.43c.49-2.94-2.27-6.79-2.83-7.53l-5,2.7Z"/><path class="cls-5" d="M100.23,46.89a7.37,7.37,0,0,1,3.34,8c-1.26,5.31-8.4,2.36-9.23,1.78-.6-2,1.58-7.47,1.58-7.47Z"/><path class="cls-6" d="M97.11,57.87a10.35,10.35,0,0,1-2.88-1.09l0,0,0-.06c-.61-2,1.49-7.36,1.58-7.59l0-.06,4.47-2.35.09,0s4.7,2.77,3.42,8.16C102.86,58.65,99.21,58.37,97.11,57.87ZM94.5,56.51a10.82,10.82,0,0,0,2.7,1c2,.46,5.37.73,6.19-2.71a7.09,7.09,0,0,0-3.16-7.69l-4.16,2.18C95.83,49.91,94,54.68,94.5,56.51Z"/><path class="cls-7" d="M99.54,61.25c-3.19-1.31-6.62,3.54-8.36,6.48,5.07-1,9-2,10.58-2.4.33-.09.64-.17,1-.24A4.69,4.69,0,0,0,99.54,61.25Z"/><path class="cls-6" d="M90.81,68l.21-.36c1.67-2.83,4.94-7.47,8.12-6.72a3.68,3.68,0,0,1,.47.15,4.89,4.89,0,0,1,3.29,4l0,.17-.16,0-1,.24h0c-1.65.44-5.52,1.46-10.57,2.41Zm8.25-6.71c-2.82-.67-5.83,3.42-7.5,6.18,4.84-.93,8.53-1.9,10.14-2.32h0l.79-.2a4.5,4.5,0,0,0-3-3.52A3.1,3.1,0,0,0,99.06,61.29Z"/><path class="cls-7" d="M95.37,53.1s5.34,3.2,4.18,7.67-7.61,5.16-8.6,4.44-1.73-6.6-1.73-6.6Z"/><path class="cls-5" d="M95.37,53.1l-5,4.52a12.29,12.29,0,0,0,2.71.12c2.13-.23,4.16-.33,6.23-.35A10.69,10.69,0,0,0,95.37,53.1Z"/><path class="cls-6" d="M91.29,65.55a1.17,1.17,0,0,1-.45-.19c-1-.74-1.73-6.12-1.8-6.73l0-.1,6.33-5.67.12.07s5.44,3.33,4.27,7.89a6.28,6.28,0,0,1-4,4.1A8.46,8.46,0,0,1,91.29,65.55Zm-1.87-6.87c.3,2.34,1,5.89,1.64,6.38a1.07,1.07,0,0,0,.32.13c1.66.39,7-.54,8-4.47s-3.21-6.89-4-7.39Z"/><path class="cls-5" d="M97.54,39.86s5.27,2.71,3.87,8.18-8.21,3.19-8.21,3.19l-1.62-5.42Z"/><path class="cls-6" d="M93.81,51.59a5.78,5.78,0,0,1-.67-.19l-.09,0-1.68-5.62,6.14-6.12.12.07c.05,0,5.38,2.83,4,8.39C100.4,52.77,95.33,52,93.81,51.59Zm-.46-.51.54.14c1.85.44,6.26,1,7.34-3.22,1.23-4.82-2.89-7.46-3.65-7.9L91.8,45.86Z"/><path class="cls-5" d="M92.72,45.5s6.07,3.37,4.54,8.62-9.12,3.36-9.12,3.36l-.85-5.43Z"/><path class="cls-6" d="M88.12,57.67l-.15,0L87.09,52l5.59-6.74.13.07c.07,0,6.19,3.51,4.63,8.85S88.43,57.74,88.12,57.67Zm-.63-5.57.81,5.22c.92.2,7.41,1.43,8.78-3.25s-3.44-7.79-4.32-8.33Z"/><path class="cls-7" d="M83.87,60l-1.61,9.14c4.27-.48,8.28-1.2,11.59-1.89a7.36,7.36,0,0,0-.49-4.42C91.27,57.74,83.87,60,83.87,60Z"/><path class="cls-6" d="M82,69.3l1.67-9.5.12,0a12.65,12.65,0,0,1,5.8-.25,5.28,5.28,0,0,1,3.92,3.19,7.58,7.58,0,0,1,.5,4.53l0,.12-.12,0c-4,.84-7.93,1.47-11.61,1.88Zm2-9.2-1.54,8.77c3.56-.41,7.32-1,11.2-1.83a7.24,7.24,0,0,0-.5-4.18,5,5,0,0,0-3.66-3A12.54,12.54,0,0,0,84,60.1Z"/><path class="cls-7" d="M82,51.86s10.3-2.2,9.68,7c-.49,4.53-6.06,5.14-7.39,4.63C82.59,61.68,81,54.91,82,51.86Z"/><path class="cls-5" d="M82,51.86c-.55,1.67-.33,4.45.27,6.91A46.6,46.6,0,0,1,90,57.59c.55,0,1.14.12,1.73.16C91.5,49.84,82,51.86,82,51.86Z"/><path class="cls-6" d="M84.46,63.69l-.23-.07,0,0,0,0c-1.77-1.82-3.36-8.69-2.33-11.77l0-.1.1,0a13.32,13.32,0,0,1,5.16,0c2.35.56,5.08,2.24,4.75,7.1a5,5,0,0,1-2.15,3.64A7.57,7.57,0,0,1,84.46,63.69Zm0-.41.14,0a7.19,7.19,0,0,0,5-1.17,4.61,4.61,0,0,0,2-3.36c.25-3.68-1.26-5.94-4.47-6.7A12.73,12.73,0,0,0,82.16,52C81.26,55,82.77,61.54,84.41,63.28Z"/><path class="cls-5" d="M96.47,41.93s5.14,3.25,7.65,1.63c1.67-1.08,1.86-3.44,1.79-4.91-2.11-2-4.2-3.88-6.28-5.57l-3.38,2Z"/><path class="cls-8" d="M105.91,38.65c-2.11-2-4.2-3.88-6.28-5.57l-3.38,2v.21c.54.41,1.08.85,1.6,1.31a43,43,0,0,0,7.78,4.71A8.35,8.35,0,0,0,105.91,38.65Z"/><path class="cls-6" d="M100.77,44h0a16.78,16.78,0,0,1-4.4-1.91L96.29,42l-.23-7,3.59-2.15.1.09c2.12,1.72,4.23,3.59,6.29,5.57l.06.05v.08c.06,1.4-.1,3.93-1.88,5.07A4.41,4.41,0,0,1,100.77,44Zm-4.11-2.17a16.43,16.43,0,0,0,4.19,1.8h0A4.13,4.13,0,0,0,104,43.4c1.58-1,1.75-3.34,1.71-4.67-2-1.92-4.06-3.74-6.11-5.42l-3.18,1.9Z"/><path class="cls-5" d="M93.6,32.8s6.31,2.27,5.52,6.66-4.62,6.14-8.33,4.93A8.23,8.23,0,0,1,89,37.13Z"/><path class="cls-6" d="M91.36,44.75q-.31-.07-.63-.18h0l0,0a8.45,8.45,0,0,1-1.8-7.44v0l0,0,4.66-4.42.11,0c.06,0,6.44,2.38,5.64,6.88A6.47,6.47,0,0,1,96.54,44,6.59,6.59,0,0,1,91.36,44.75Zm-.46-.52a5.44,5.44,0,0,0,.54.15,6.24,6.24,0,0,0,4.9-.74,6.13,6.13,0,0,0,2.6-4.21c.69-3.88-4.48-6.09-5.29-6.41L89.2,37.23A8.06,8.06,0,0,0,90.9,44.23Z"/><path class="cls-5" d="M95.86,36.88a5.15,5.15,0,0,0,6.47-1.52A92.25,92.25,0,0,0,93,28.17C92.63,30.43,92.3,35.26,95.86,36.88Z"/><path class="cls-8" d="M102.33,35.36A92.25,92.25,0,0,0,93,28.17a13.34,13.34,0,0,0,0,4.89,37.62,37.62,0,0,1,4.84,3.56c.33.27.67.54,1,.79A5.6,5.6,0,0,0,102.33,35.36Z"/><path class="cls-6" d="M97,37.49h0a8.32,8.32,0,0,1-1.24-.43c-3.72-1.71-3.32-6.81-3-8.92l0-.29.24.16a92.17,92.17,0,0,1,9.35,7.21l.14.12-.12.14A5.4,5.4,0,0,1,97,37.49Zm-3.88-9c-.32,2.17-.53,6.7,2.8,8.22a6.29,6.29,0,0,0,1.17.41h0a4.91,4.91,0,0,0,5-1.74A92.13,92.13,0,0,0,93.14,28.49Z"/><path class="cls-5" d="M87.73,36.89c2.42,1.48,5.28.87,7.24-1.7a5.52,5.52,0,0,0-.41-5.95c-1.17-.82-2.34-1.6-3.5-2.33l-4.9,2.44S85.3,35.41,87.73,36.89Z"/><path class="cls-8" d="M94.56,29.24c-1.17-.82-2.34-1.6-3.5-2.33l-4.9,2.44a.94.94,0,0,1,0,.12c.56.22,1.11.44,1.63.69a55.76,55.76,0,0,1,7.49,4.41A5.64,5.64,0,0,0,94.56,29.24Z"/><path class="cls-6" d="M89.26,37.73h0a5.49,5.49,0,0,1-1.63-.68c-2.5-1.53-1.69-7.47-1.66-7.72l0-.1,5.08-2.54.09.06c1.18.75,2.37,1.53,3.51,2.34l0,0,0,0a5.71,5.71,0,0,1,.42,6.14l0,0A5.71,5.71,0,0,1,89.26,37.73Zm-2.92-8.25c-.1.77-.64,5.95,1.49,7.25a5,5,0,0,0,1.52.63h0a5.28,5.28,0,0,0,5.47-2.27,5.32,5.32,0,0,0-.39-5.71c-1.11-.78-2.24-1.54-3.38-2.25Z"/><path class="cls-5" d="M85,32.52c5.27.34,6.45-3,6.66-5.26A75.44,75.44,0,0,0,81.88,22C80.07,25.4,79.94,32.11,85,32.52Z"/><path class="cls-8" d="M91.62,27.26A75.44,75.44,0,0,0,81.88,22a10.79,10.79,0,0,0-1.14,4.5,16.27,16.27,0,0,1,2.17,1.36c1.47,1.13,3.31,1.56,4.87,2.32.69.35,1.37.7,2,1.06A5.94,5.94,0,0,0,91.62,27.26Z"/><path class="cls-6" d="M84.15,32.59h0a4.29,4.29,0,0,1-3-2.53c-1.14-2.49-.57-6.07.54-8.17l.09-.16.16.07a76.36,76.36,0,0,1,9.76,5.3l.09.07v.11c-.2,2.18-1.36,5.78-6.85,5.43A5,5,0,0,1,84.15,32.59ZM82,22.22c-1,2-1.51,5.36-.45,7.69a3.88,3.88,0,0,0,2.73,2.31h0a5.57,5.57,0,0,0,.73.11c4.84.31,6.19-2.5,6.45-5A74.18,74.18,0,0,0,82,22.22Z"/><path class="cls-5" d="M88,37.31s6.79,1.12,6.69,7.29c-.43,4.26-4.93,6.87-6.66,6.85-2.38-1.82-3.83-7.11-3.83-7.11Z"/><path class="cls-6" d="M88,51.63l0,0c-2.39-1.84-3.84-7-3.9-7.21l0-.07,3.9-7.22.14,0,.35.07c1.55.37,6.59,2,6.49,7.42-.43,4.36-5,7-6.85,7Zm-3.56-7.27c.18.64,1.57,5.22,3.69,6.9,1.76,0,6-2.59,6.41-6.67.09-5.13-4.73-6.68-6.21-7l-.19,0Z"/><path class="cls-7" d="M81.71,64.44c-3,.35-6.18,3.57-7.63,5.2a95.73,95.73,0,0,0,12.64-1.15C85.93,66.7,84.33,64.13,81.71,64.44Z"/><path class="cls-6" d="M73.65,69.83l.29-.32c1.62-1.81,4.78-4.9,7.75-5.26a3.66,3.66,0,0,1,1.28.07c2,.47,3.21,2.49,3.92,4.1l.1.22-.24,0a97,97,0,0,1-12.67,1.15Zm9.23-5.14a3.16,3.16,0,0,0-1.15-.06C79,65,76,67.88,74.51,69.44a96.94,96.94,0,0,0,11.93-1.09C85.76,66.85,84.6,65.1,82.88,64.69Z"/><path class="cls-7" d="M82.18,55.9s5.43,3.23,3.9,7.51S76,67.22,76,67.22l1.69-7.09Z"/><path class="cls-5" d="M78.31,59.55c2.2-.36,4.36-.89,6.56-1.31a11.8,11.8,0,0,0-2.69-2.34Z"/><path class="cls-6" d="M75.78,67.39,77.53,60l4.63-4.36.12.07c.06,0,5.55,3.36,4,7.74s-9.9,4-10.26,3.93Zm2.09-7.16L76.25,67c1.35,0,8.32,0,9.65-3.69S83,56.64,82.21,56.14Z"/><path class="cls-5" d="M84.09,30.48s8,2.87,7.12,7.5-4.95,8.21-9.4,6.57-3.08-7.8-3.08-7.8Z"/><path class="cls-6" d="M82.54,45a5.94,5.94,0,0,1-.79-.24c-4.56-1.67-3.22-7.95-3.21-8v0L84,30.25l.12.05c.34.12,8.17,3,7.25,7.71a9.41,9.41,0,0,1-3.9,6.07A6.27,6.27,0,0,1,82.54,45ZM78.9,36.84c-.11.55-1.07,6,3,7.54a5.94,5.94,0,0,0,5.41-.61A9,9,0,0,0,91,37.94c.8-4.11-5.89-6.86-6.88-7.24Z"/><path class="cls-5" d="M84.4,43s6.48,4.92,5.15,8.87-5.55,5.46-10.14,4c-4-1.62-.31-8.49-.31-8.49Z"/><path class="cls-6" d="M80.29,56.33c-.31-.07-.62-.16-.94-.26a2.93,2.93,0,0,1-1.73-1.78c-1-2.65,1.22-6.81,1.32-7l0,0,5.43-4.47.12.09c.27.2,6.57,5,5.22,9.08C88.51,55.63,84.71,57.38,80.29,56.33Zm-1-8.81c-.2.39-2.14,4.27-1.28,6.65a2.6,2.6,0,0,0,1.51,1.55c.29.09.6.18.9.25,4.22,1,7.83-.66,9-4.12s-4.12-7.88-5-8.57Z"/><path class="cls-5" d="M78.25,25.15s9.87,4.67,7.82,9.48-9.2,4.52-9.2,4.52L73.8,30.29Z"/><path class="cls-6" d="M76.73,39.34l-3.14-9.09,4.61-5.33.13.06c.41.2,10,4.8,7.92,9.72s-9.32,4.64-9.39,4.64Zm-2.71-9L77,39c1,0,7.08-.14,8.9-4.42s-6.46-8.6-7.6-9.16Z"/><path class="cls-5" d="M78.73,37.27s7.12,2.08,6.64,7.39S73.61,51.8,73.61,51.8,74.74,39.94,78.73,37.27Z"/><path class="cls-6" d="M73.39,52l0-.25c0-.48,1.19-12,5.21-14.66l.07,0,.08,0c.08,0,7.27,2.18,6.78,7.58S74.1,51.91,73.64,52Zm5.37-14.55c-3.5,2.46-4.75,12.39-4.94,14.09,1.64-.3,10.94-2.26,11.36-6.93S79.55,37.73,78.76,37.48Z"/><path class="cls-5" d="M72,30.89s9.75,2.45,9.18,8.12-6.89,7.27-8.69,7.23C68.8,42.14,72,30.89,72,30.89Z"/><path class="cls-6" d="M72.39,46.43l-.06-.06c-3.7-4.13-.66-15.06-.53-15.53l0-.17.18,0c.4.1,9.9,2.55,9.32,8.32s-6.8,7.45-8.88,7.4Zm-.27-15.3c-.38,1.44-2.79,11.18.44,14.92C74.38,46,80.43,44.41,81,39,81.48,34,73.43,31.49,72.12,31.13Z"/><path class="cls-7" d="M79.73,63.13C79.12,58,69.43,58,69.43,58l-2,11.43a64.48,64.48,0,0,0,9.54.12C78.58,67.83,80,65.58,79.73,63.13Z"/><path class="cls-6" d="M67.22,69.58l2-11.79h.16a22.86,22.86,0,0,1,4.66.56c3.54.84,5.56,2.49,5.82,4.76.25,2.11-.69,4.31-2.8,6.55l0,0H77a65.37,65.37,0,0,1-9.57-.12Zm2.37-11.41L67.66,69.24a65.08,65.08,0,0,0,9.23.11c2-2.14,2.88-4.22,2.65-6.2-.31-2.65-3.18-3.87-5.53-4.43A22.23,22.23,0,0,0,69.59,58.17Z"/><path class="cls-7" d="M77.77,48.4s7.16,3,6.72,7-4.66,7.15-9.73,6.21C71.24,57.44,77.77,48.4,77.77,48.4Z"/><path class="cls-5" d="M84.49,55.42c.44-4-6.72-7-6.72-7s-5,7-3.88,11.52c.67,0,1.33,0,2-.05a63.69,63.69,0,0,0,7.38-1.31A6.46,6.46,0,0,0,84.49,55.42Z"/><path class="cls-6" d="M74.66,61.8l0,0c-3.57-4.26,2.74-13.08,3-13.46l.08-.12.14.06c.3.12,7.29,3.09,6.84,7.21a7,7,0,0,1-2.89,4.88,8.93,8.93,0,0,1-7.07,1.49Zm3.17-13.16c-.75,1.08-6,9-3,12.82A8.57,8.57,0,0,0,81.57,60a6.63,6.63,0,0,0,2.74-4.61C84.69,51.86,78.82,49.08,77.83,48.64Z"/><path class="cls-5" d="M70.48,44.58s8.25-.08,9.41,3.2-2.3,8.84-5.33,9.38-8-6.83-8-6.83Z"/><path class="cls-6" d="M73.64,57.3c-3.06-.72-7-6.61-7.2-6.86l-.07-.11,4-5.94h.1a25.59,25.59,0,0,1,5.31.58c2.39.57,3.83,1.49,4.27,2.74.55,1.55.15,3.74-1.08,5.85s-2.89,3.52-4.39,3.79A2.39,2.39,0,0,1,73.64,57.3Zm-6.82-7c.56.81,4.21,6,6.9,6.61a1.87,1.87,0,0,0,.81,0c1.37-.24,3-1.65,4.12-3.6s1.57-4.08,1.06-5.53c-.4-1.13-1.75-2-4-2.5a25.66,25.66,0,0,0-5.13-.58Z"/><path class="cls-5" d="M70.31,20.82s10.94,1.24,9.37,7.83S69,31.94,69,31.94Z"/><path class="cls-6" d="M70.43,32.53A12.55,12.55,0,0,1,69,32.11l-.14,0,1.32-11.45.19,0a17.22,17.22,0,0,1,2.08.39c3.28.77,8.61,2.81,7.45,7.68C78.63,33.89,72.85,33.11,70.43,32.53Zm-1.2-.72c.22.07.68.21,1.28.36,2.88.68,7.87,1.13,9-3.56s-4-6.48-7.18-7.23c-.85-.2-1.53-.31-1.84-.35Z"/><path class="cls-5" d="M76.12,27.62C83,29,84.66,25.75,85,23.48a65.44,65.44,0,0,0-15.3-5.58C69.06,21,69.12,26.22,76.12,27.62Z"/><path class="cls-8" d="M85,23.48a65.44,65.44,0,0,0-15.3-5.58,9.3,9.3,0,0,0,.36,5.59,48.15,48.15,0,0,1,9.24,2.34,15.25,15.25,0,0,1,2.9,1.53A4.87,4.87,0,0,0,85,23.48Z"/><path class="cls-6" d="M75.57,27.69h0c-6.71-1.59-6.66-6.84-6-9.83l0-.18.19,0,.71.16a66.4,66.4,0,0,1,14.63,5.43l.12.06,0,.14a5.19,5.19,0,0,1-2.09,3.56c-1.59,1.1-4,1.35-7,.73Zm-5.7-9.56c-.56,2.88-.48,7.71,5.78,9.19h0l.5.11c3,.6,5.25.37,6.74-.67a4.81,4.81,0,0,0,1.91-3.18A65.53,65.53,0,0,0,70.4,18.25Z"/><path class="cls-5" d="M66.8,25s10.69,2.24,9.14,8-7,6.85-11.39,5.14C61.49,34.31,66.8,25,66.8,25Z"/><path class="cls-6" d="M66,38.77a10.75,10.75,0,0,1-1.46-.46l0,0,0,0c-3.11-3.88,2-12.94,2.22-13.33l.07-.12.13,0,.24.06c1.11.26,6.75,1.73,8.61,4.85a4.11,4.11,0,0,1,.44,3.3C74.69,38.33,70,39.73,66,38.77ZM64.67,38A11.36,11.36,0,0,0,66,38.4c3.85.92,8.35-.41,9.72-5.45a3.78,3.78,0,0,0-.41-3c-1.78-3-7.28-4.43-8.37-4.69l-.09,0C66.29,26.33,62,34.51,64.67,38Z"/><path class="cls-5" d="M60.13,19.37s10.31,2.51,10.49,9.13c-.11,4.24-9.07,4.5-9.07,4.5A15.26,15.26,0,0,1,60.13,19.37Z"/><path class="cls-6" d="M61.44,33.19l0-.09A15.41,15.41,0,0,1,60,19.31l0-.16.17,0c.42.1,10.45,2.62,10.62,9.31-.1,4.37-8.88,4.68-9.25,4.69ZM60.25,19.6a15.08,15.08,0,0,0,1.4,13.21c1-.05,8.69-.54,8.78-4.31C70.27,22.56,61.56,20,60.25,19.6Z"/><path class="cls-5" d="M68.23,36.1s9.14,3.53,8,9-9.31,7-9.31,7c-3.34-3.89-2.63-9.73-2.63-9.73Z"/><path class="cls-6" d="M66.89,52.27l-.07-.08c-3.35-3.91-2.68-9.81-2.68-9.87v0l4-6.41.15.06c.38.14,9.27,3.64,8.15,9.18S67.34,52.19,67,52.25ZM64.51,42.4c-.05.52-.5,5.85,2.52,9.46,1-.21,8.06-1.89,9-6.82s-6.62-8.22-7.77-8.7Z"/><path class="cls-5" d="M64.5,42.86S75,46.12,70.72,53.35s-8.73,5-8.73,5l-2.25-8.08Z"/><path class="cls-6" d="M62.55,58.72a3.68,3.68,0,0,1-.65-.21l-.07,0-2.29-8.25,4.88-7.58.13,0c.23.08,5.58,1.78,7,5.5a5.92,5.92,0,0,1-.68,5.26C67.52,59.19,63.93,59.05,62.55,58.72Zm-.41-.52c.6.24,4.6,1.57,8.42-5a5.51,5.51,0,0,0,.66-4.93c-1.25-3.24-5.8-4.94-6.64-5.23L60,50.29Z"/><path class="cls-5" d="M62.48,31s9.77,2.9,8.81,8.58-8.93,5.82-8.93,5.82l-2.5-8.24Z"/><path class="cls-6" d="M62.22,45.55l-2.56-8.44,2.71-6.38.16.05c.41.12,9.92,3,8.94,8.79s-9,6-9.11,6Zm-2.16-8.42,2.43,8c1.07,0,7.76-.61,8.61-5.65s-7.26-7.91-8.51-8.32Z"/><path class="cls-5" d="M67.36,26.7c8.09,1.35,7.45-4.51,6.55-7.7a59.44,59.44,0,0,0-12-2.31C62.08,19.39,62.89,25.56,67.36,26.7Z"/><path class="cls-8" d="M73.91,19a59.44,59.44,0,0,0-12-2.31A17.85,17.85,0,0,0,63.32,23a46.57,46.57,0,0,1,10.8,1.3A9.23,9.23,0,0,0,73.91,19Z"/><path class="cls-6" d="M67.33,26.89h0c-4.61-1.17-5.43-7.5-5.58-10.18v-.21l.22,0a58.68,58.68,0,0,1,8.53,1.37c1.16.28,2.33.59,3.49.94l.1,0,0,.1c.59,2.11,1,5-.57,6.71-1.17,1.3-3.26,1.72-6.2,1.23Zm-5.2-10c.17,2.7,1,8.53,5.27,9.62,2.8.46,4.77.09,5.85-1.11,1.41-1.58,1.06-4.25.51-6.26-1.11-.33-2.25-.64-3.36-.9A59.12,59.12,0,0,0,62.13,16.9Z"/><path class="cls-8" d="M58.16,22.77c6.54-.81,8.18-3.63,8.53-5.47a55.57,55.57,0,0,0-12.56-.72A8.58,8.58,0,0,0,58.16,22.77Z"/><path class="cls-6" d="M58.12,23l0,0a8.74,8.74,0,0,1-4.13-6.33l0-.21h.21a55.85,55.85,0,0,1,12.6.73l.19,0,0,.19C66.54,19.07,65,22.11,58.19,23Zm-3.77-6.21a8.34,8.34,0,0,0,3.85,5.82c6.26-.8,7.87-3.47,8.26-5.13A55.6,55.6,0,0,0,54.35,16.76Z"/><path class="cls-7" d="M65.17,55.13,59.26,67.79a41.7,41.7,0,0,0,12.11,1.84C76.78,63.64,65.17,55.13,65.17,55.13Z"/><path class="cls-6" d="M61.79,68.7h0c-.9-.21-1.77-.46-2.59-.73L59,67.9l6.1-13.06.18.13c.29.22,7.16,5.31,7.69,10.46a5.44,5.44,0,0,1-1.46,4.33l-.06.06h-.08A46,46,0,0,1,61.79,68.7Zm-2.27-1c.75.24,1.54.46,2.36.65a45.16,45.16,0,0,0,9.41,1.11,5.05,5.05,0,0,0,1.3-4c-.46-4.53-6.24-9.2-7.35-10Z"/><path class="cls-5" d="M63.24,23.43c.28-3.92-3.85-5.68-6.67-6.93-1.09,0-2.14.05-3.14.12-.32,2.69-.94,9.21.1,12.09C53.53,28.71,62.54,29.08,63.24,23.43Z"/><path class="cls-8" d="M56.57,16.5c-1.09,0-2.14.05-3.14.12A61,61,0,0,0,53,24.2,42.48,42.48,0,0,1,63.25,23C63.18,19.37,59.28,17.7,56.57,16.5Z"/><path class="cls-6" d="M53.39,28.89l0-.12c-1.05-2.91-.42-9.48-.11-12.17l0-.15h.16c1-.08,2.09-.12,3.15-.13h0l.17.07c2.76,1.22,6.93,3.07,6.64,7.07-.7,5.76-9.81,5.45-9.9,5.45ZM53.6,16.8c-.32,2.71-.88,8.88.06,11.72,1.09,0,8.77-.06,9.39-5.11.26-3.72-3.6-5.43-6.43-6.68l-.09-.05C55.55,16.7,54.56,16.74,53.6,16.8Z"/><path class="cls-8" d="M48.26,23.72c7.29,2.42,7.92-4,7.8-7.22a47.14,47.14,0,0,0-14.43,2.44C42.13,20.44,43.8,22.24,48.26,23.72Z"/><path class="cls-6" d="M49.24,24.19h0c-.33-.08-.68-.18-1-.3C44.39,22.63,42.12,21,41.45,19l-.06-.17.17-.06a46.85,46.85,0,0,1,14.5-2.45h.19v.19c.07,1.89-.12,5.31-2.14,7A5.42,5.42,0,0,1,49.24,24.19Zm-7.37-5.13c.7,1.76,2.93,3.31,6.45,4.48.35.11.69.21,1,.29h0c1.93.45,3.46.23,4.54-.66,1.84-1.5,2.06-4.62,2-6.47A46.7,46.7,0,0,0,41.87,19.06Z"/><path class="cls-5" d="M55.81,25.64s8.39,1.08,9.19,7-2.56,7.53-5.91,7.51A19.3,19.3,0,0,1,55.35,33Z"/><path class="cls-6" d="M59,40.28l-.06-.06a19.93,19.93,0,0,1-3.78-7.16V33l.47-7.58.2,0s.51.07,1.26.24c2.23.53,7.46,2.26,8.1,6.88.35,2.57-.07,4.55-1.23,5.88a6.39,6.39,0,0,1-4.87,1.84ZM55.54,33a19.43,19.43,0,0,0,3.64,6.91,5.94,5.94,0,0,0,4.5-1.71c1.09-1.24,1.47-3.12,1.13-5.58-.6-4.39-5.66-6-7.81-6.56-.45-.11-.81-.17-1-.21Z"/><path class="cls-5" d="M60,37.86s7.74,2.22,6.71,7.66-8.35,4.73-8.35,4.73l.36-5.34Z"/><path class="cls-6" d="M58.16,50.42l.37-5.54,1.33-7.26.2.06c.08,0,7.88,2.33,6.83,7.87s-8.48,4.89-8.55,4.89Zm.75-5.48-.35,5.13c1.12.06,7.06.14,8-4.59s-5.18-7-6.37-7.37Z"/><path class="cls-7" d="M60,47.79s9.35,4.67,6.1,10.74-11.63,2.79-11.63,2.79l1.73-7.85Z"/><path class="cls-5" d="M60,47.79l-3.8,5.68-.43,2a38.11,38.11,0,0,0,10,3.65c.11-.18.23-.37.33-.57C69.32,52.46,60,47.79,60,47.79Z"/><path class="cls-6" d="M56,62a14,14,0,0,1-1.63-.49l-.15-.06,1.77-8,0,0,3.9-5.82.15.07c.21.11,5.37,2.73,6.62,6.65a5.42,5.42,0,0,1-.44,4.35C63.84,63.09,58.8,62.65,56,62Zm-1.34-.79a12.4,12.4,0,0,0,1.43.42c2.69.64,7.54,1.07,9.81-3.17a5.1,5.1,0,0,0,.42-4.06C65.23,51,60.89,48.5,60,48l-3.68,5.51Z"/><path class="cls-7" d="M57,58.58s-3.43,7-2.56,7a26.85,26.85,0,0,0,10.31,3.52C70.19,61.71,57,58.58,57,58.58Z"/><path class="cls-6" d="M61.78,68.7h0a24.33,24.33,0,0,1-7.38-3,.29.29,0,0,1-.22-.17c-.36-.76,2-5.6,2.67-7.07l.07-.14.15,0c.3.07,7.46,1.81,8.94,5.82.56,1.55.2,3.22-1.09,5l-.07.09-.11,0C63.71,69.11,62.72,68.92,61.78,68.7Zm-7.25-3.33,0,0a23.75,23.75,0,0,0,7.29,2.93c.9.21,1.85.4,2.82.55a4.74,4.74,0,0,0,1-4.53c-1.29-3.52-7.49-5.28-8.52-5.55-1.4,2.88-2.73,6-2.62,6.57Z"/><path class="cls-1" d="M56.25,62.11s8.8,8.19,16.44,2.54c6.93-5.13,8-13.3,7.45-15.07s-7.78-.3-14.53,4.1c-4.21,3.07-5.25,4.56-9.11,4.52A29.94,29.94,0,0,0,56.25,62.11Z"/><path class="cls-3" d="M80.14,49.58c-.55-1.78-7.78-.3-14.53,4.1-1.41,1-2.46,1.87-3.38,2.55l-.13.56c1.11,1,2.61.42,4,.36-.82.19-2.37,1-1.76,1.71a1.39,1.39,0,0,0,1.65.39c-.22.92-1.91.71-1.49,1.39.27.46,1.42.53,2.15.71-.82.19-1.63,1.16-.94,1.52a9.76,9.76,0,0,0,8.59.45C79.78,58.21,80.64,51.21,80.14,49.58Z"/><path class="cls-4" d="M80.12,49.54c-.63-1.72-7.8-.23-14.51,4.14-1.4,1-2.45,1.87-3.37,2.54a12.55,12.55,0,0,0,7.47-1.31C73.39,53.39,76.31,50.64,80.12,49.54Z"/><path class="cls-2" d="M64,66.49h0a20,20,0,0,1-7.88-4.24l0-.06v-.08a32.3,32.3,0,0,1,.25-3.93l0-.17h.17c3.07,0,4.27-.88,6.9-2.9.61-.47,1.3-1,2.1-1.58,5.6-3.65,11.52-5.32,13.8-4.77a1.25,1.25,0,0,1,1,.76c.58,1.91-.56,10.13-7.52,15.29A10.23,10.23,0,0,1,64,66.49ZM56.44,62a19.38,19.38,0,0,0,7.64,4.1,9.84,9.84,0,0,0,8.49-1.62A18.85,18.85,0,0,0,79,55.79,12.43,12.43,0,0,0,80,49.63c-.08-.24-.33-.41-.74-.51C77,48.6,71,50.37,65.71,53.84c-.79.57-1.48,1.1-2.08,1.57-2.58,2-3.89,3-7,3A31.34,31.34,0,0,0,56.44,62Z"/><path class="cls-2" d="M56.46,59v-.38C67.23,59,79.9,49.52,80,49.43l.23.3C80.12,49.82,67.34,59.33,56.46,59Z"/><path class="cls-2" d="M56.37,59.62l.07-.37c11.67,2.1,23.17-5.18,23.28-5.26l.21.32C79.81,54.38,68.19,61.75,56.37,59.62Z"/><path class="cls-2" d="M57.64,60.74c-.46-.11-.92-.23-1.37-.37l.1-.36c9.79,2.89,20.8-.4,20.91-.44l.11.36C77.28,60,67.16,63,57.64,60.74Z"/><path class="cls-2" d="M62.57,63.39a19.65,19.65,0,0,1-6.28-2.54l.21-.32c6,4,16.57,3.48,16.67,3.47l0,.38A43,43,0,0,1,62.57,63.39Z"/><path class="cls-7" d="M54.81,53.83A52,52,0,0,1,50,60.54a7.86,7.86,0,0,1-6.85,3.14c2.69,1.67,6.61,2.11,11.27,1.88C61.54,61.93,57.08,56.16,54.81,53.83Z"/><path class="cls-6" d="M46.6,65.24h0a11.66,11.66,0,0,1-3.51-1.4l-.64-.39.75,0a7.69,7.69,0,0,0,6.7-3.07,51.15,51.15,0,0,0,4.75-6.69l.12-.21.18.18c1.5,1.55,4,4.6,3.47,7.58-.29,1.78-1.59,3.28-3.87,4.45h-.08A28.41,28.41,0,0,1,46.6,65.24Zm-2.67-1.35a12.25,12.25,0,0,0,2.76,1h0a27.76,27.76,0,0,0,7.73.5c2.14-1.1,3.36-2.5,3.63-4.15.45-2.71-1.74-5.54-3.2-7.08a52.61,52.61,0,0,1-4.66,6.52A8.14,8.14,0,0,1,43.93,63.89Z"/><path class="cls-7" d="M61.6,51.79c1.07-4.15-1.67-6-3.76-6.78-.27,4.33-2.68,8.67-5.36,12.37C54.94,57.36,60.33,56.73,61.6,51.79Z"/><path class="cls-5" d="M61.6,51.79c1.07-4.15-1.67-6-3.76-6.78a21.58,21.58,0,0,1-3.52,9.64c1.07.63,2.16,1.21,3.28,1.73A6.72,6.72,0,0,0,61.6,51.79Z"/><path class="cls-6" d="M52.11,57.58l.22-.31c3.35-4.63,5.09-8.64,5.32-12.27l0-.26.24.09c1.93.73,5,2.61,3.88,7-1.32,5.1-6.95,5.71-9.3,5.73ZM58,45.28c-.29,3.55-2,7.45-5.15,11.91,2.44-.09,7.38-.84,8.56-5.44C62.39,48,60.16,46.16,58,45.28Z"/><path class="cls-5" d="M61.69,38.39c-.92-4.59-5.95-4.83-9.1-4.5.52.61,1,1.21,1.61,1.79a11.79,11.79,0,0,1,3.49,10.68A6.77,6.77,0,0,0,61.69,38.39Z"/><path class="cls-6" d="M57.44,46.69l.06-.36a11.67,11.67,0,0,0-3.44-10.52q-.8-.84-1.62-1.8l-.23-.27.36,0a14.61,14.61,0,0,1,4.71.2,5.54,5.54,0,0,1,4.59,4.45,6.92,6.92,0,0,1-4.1,8.18ZM53,34c.46.53.92,1,1.36,1.51A12,12,0,0,1,57.93,46a6.51,6.51,0,0,0,3.57-7.6,5.19,5.19,0,0,0-4.31-4.16A13.56,13.56,0,0,0,53,34Z"/><path class="cls-5" d="M58,26.68c-1.86-5.47-9.08-3.56-12.39-2.34,2.22,3.14,4.83,7.31,8.18,10.92C55.94,34.37,59.81,32,58,26.68Z"/><path class="cls-8" d="M45.62,24.34c.42.58.84,1.21,1.29,1.86a41.29,41.29,0,0,1,8.53-2.53C52.46,22.21,48,23.46,45.62,24.34Z"/><path class="cls-6" d="M53.76,35.48l-.09-.09A74.09,74.09,0,0,1,47,26.59l-1.48-2.15-.15-.2.24-.08c2-.72,5.71-1.83,8.66-1.12a5.21,5.21,0,0,1,4,3.58c1.89,5.55-2.39,8-4.31,8.81Zm-7.84-11c.43.61.87,1.26,1.34,1.95A75.75,75.75,0,0,0,53.85,35c2.28-1,5.67-3.32,4-8.29a4.85,4.85,0,0,0-3.7-3.34C51.39,22.75,47.9,23.73,45.92,24.43Z"/><path class="cls-5" d="M49.48,21.29c-.8-2.15-3.6-2.81-5.89-3a25.55,25.55,0,0,0-3.36,1.17l0,0c2.18-.11,4.48,3.53,7.55,8C48.89,26.26,50.44,23.9,49.48,21.29Z"/><path class="cls-8" d="M49.48,21.29c-.8-2.15-3.6-2.81-5.89-3a25.55,25.55,0,0,0-3.36,1.17l0,0c2-.1,4,2.84,6.66,6.69q1.16-.49,2.34-.9A5.19,5.19,0,0,0,49.48,21.29Z"/><path class="cls-6" d="M47.79,27.81l-.14-.2-.7-1c-2.46-3.59-4.4-6.42-6.17-6.84a1.87,1.87,0,0,0-.52-.05h-.1l-.23-.28.22-.1a25,25,0,0,1,3.39-1.18h.07a15.08,15.08,0,0,1,2.2.32c2,.49,3.34,1.42,3.85,2.78,1,2.71-.64,5.17-1.71,6.4ZM40.93,19.4c1.9.5,3.86,3.37,6.33,7l.56.81c1-1.21,2.37-3.43,1.48-5.83-.45-1.23-1.66-2.09-3.57-2.54a13,13,0,0,0-2.12-.31C42.4,18.86,41.49,19.18,40.93,19.4Z"/><path class="cls-9" d="M36.68,61.22s7.7,5.89,13.15-.75S61.94,43.69,54,35.6c-6.83-7.13-10.64-16.75-14.18-16.14C36.75,19.7,24,27.62,20.5,33.11,17.72,35,15,36.32,14.7,38.51c1.85,1.73,11.52,12.67,11.52,12.67a40.09,40.09,0,0,1-7.85-.63C21.16,54.57,28.39,59.44,36.68,61.22Z"/><path class="cls-10" d="M41.05,58.18c2.29.16,4.23-1.51,5.77-3.08a28,28,0,0,1-1.42,3.53,7.55,7.55,0,0,0,4.87-1.49c4.88-4,8.42-8.84,7.38-15.19a12.15,12.15,0,0,0-3.45-6.27C47.37,28.54,43.56,18.92,40,19.53c-3.06.25-15.81,8.16-19.31,13.65-2.78,1.93-5.53,3.21-5.8,5.41,1.54,1.43,8.48,9.24,10.78,11.83-.05-.12-.09-.24-.14-.37.05.13.09.25.14.37l.74.84-.38,0C28.65,56.71,35.37,57.74,41.05,58.18Z"/><path class="cls-11" d="M15.86,39.63c6.51,1.93,13.39-5.16,18.42-8.42,3.9-2.68,8.33-3.71,12.74-4.85-2.79-4.07-4.94-7.18-7-6.83-3.06.25-15.81,8.16-19.31,13.65-2.72,1.89-5.42,3.16-5.78,5.28C15.93,37.6,14.83,39.39,15.86,39.63Z"/><path class="cls-12" d="M41.47,63.61a13.69,13.69,0,0,1-4.66-2.14l-.69-.16h0C28,59.38,21.06,54.52,18.42,50.73l-.26-.38.45.08a41.17,41.17,0,0,0,7.42.66c-1.55-1.75-9.59-10.82-11.24-12.37l-.07-.06v-.1c.22-1.85,2.09-3.05,4.25-4.45.52-.34,1.06-.69,1.59-1.06C24.15,27.49,37,19.59,40,19.35a2.1,2.1,0,0,1,.86,0c1.91.46,3.89,3.34,6.39,7a71.27,71.27,0,0,0,7.07,9.17c3.57,3.62,4.58,8.05,3,13.15-1.45,4.68-4.77,9.06-7.14,12A8.21,8.21,0,0,1,41.47,63.61ZM37,61.11l0,0a13.65,13.65,0,0,0,4.56,2.11,7.77,7.77,0,0,0,8.34-2.83c5.53-6.76,12-16.66,4.16-24.61A71.17,71.17,0,0,1,47,26.59c-2.46-3.59-4.4-6.42-6.17-6.84a1.81,1.81,0,0,0-.73,0c-3,.24-15.68,8.07-19.18,13.57l0,0,0,0c-.55.38-1.1.74-1.64,1.08-2,1.33-3.81,2.47-4.07,4.09,2,1.91,11.07,12.18,11.46,12.62l.25.29-.38,0A37.62,37.62,0,0,1,19,50.88c2.78,3.68,9.43,8.22,17.21,10.06h0l.72.17Z"/><path class="cls-12" d="M36.88,61.48l0-.38c5.55.29,7.88-3.28,7.9-3.32S42.66,61.78,36.88,61.48Z"/><path class="cls-13" d="M42.48,44.51S38.07,60.62,12,50.27c0,0-6.14-2.83-6.19-4.52s3.65-1.94,3.65-1.94,4-8.15,11.29-10.22"/><path class="cls-14" d="M45.56,44.8s-4,.53-5.53-2.23"/><path class="cls-11" d="M27.45,36.18s-3.95,4-12.4,5.41c0,0-4.12,3.59-5,3.32s-4,1.26-.05,2.78,2.12,2.92-.4,1.27-4-2.54-3.82-3.31S8.23,44,9.33,44.09c0,0,4.84-9,11.26-10.18l.36-.74S27.5,35.33,27.45,36.18Z"/><ellipse cx="34.68" cy="36.59" rx="6.45" ry="6.2" transform="translate(-8.92 61.89) rotate(-76.65)"/><path class="cls-15" d="M39.82,38.25A5.8,5.8,0,1,1,35.58,31,5.9,5.9,0,0,1,39.82,38.25Z"/><path class="cls-16" d="M39.18,33.74a5.71,5.71,0,0,0-3.6-2.7,5.92,5.92,0,0,0-7,4.53A6.11,6.11,0,0,0,30,41.18C34.46,41.23,38,38.05,39.18,33.74Z"/><path d="M32.75,43A6.22,6.22,0,1,1,40,38.29,6.11,6.11,0,0,1,32.75,43Zm2.79-11.73a5.84,5.84,0,1,0,4.1,7A5.73,5.73,0,0,0,35.54,31.23Z"/><path class="cls-17" d="M37.13,38.17c-.94,2.4-3.32,3.75-5.31,3s-2.84-3.27-1.9-5.66,3.33-3.76,5.32-3S38.08,35.77,37.13,38.17Z"/><path class="cls-18" d="M37.5,35.77a3.67,3.67,0,0,0-2.26-3.27c-2-.73-4.37.63-5.32,3a4.82,4.82,0,0,0,.2,4.22A10.11,10.11,0,0,0,37.5,35.77Z"/><path class="cls-19" d="M31.75,41.37c-2.1-.77-3-3.43-2-5.92s3.49-3.89,5.59-3.12,3,3.42,2,5.91S33.85,42.14,31.75,41.37Zm3.42-8.69C33.29,32,31,33.3,30.12,35.6S30,40.33,31.89,41s4.14-.63,5-2.93S37.05,33.37,35.17,32.68Z"/><path d="M36.48,38.08c-.76,1.93-2.66,3-4.24,2.45S30,37.92,30.76,36s2.66-3,4.24-2.45S37.23,36.15,36.48,38.08Z"/><path class="cls-16" d="M33.14,34.06a1.17,1.17,0,0,1-1.53.57,1.12,1.12,0,0,1-.76-1.41,1.18,1.18,0,0,1,1.54-.56A1.11,1.11,0,0,1,33.14,34.06Z"/><ellipse class="cls-16" cx="31.36" cy="39.54" rx="0.63" ry="0.72" transform="translate(-15.24 58.9) rotate(-74.14)"/></svg>