<svg id="Layer_1" data-name="Layer 1" xmlns="http://www.w3.org/2000/svg" viewBox="0 0 67.22 39.89"><defs><style>.cls-1{fill:#ddc63e;}.cls-2{fill:#6f631f;}.cls-3{fill:#ffe94d;}.cls-4{fill:#fff294;}.cls-5{fill:#1ca0c9;}.cls-6{fill:#12472b;}.cls-7{fill:#71dbf4;}.cls-8{fill:#55b987;}.cls-9{fill:#1c9ec6;}.cls-10{fill:#4accff;}.cls-11{fill:#4f5d19;}.cls-12{fill:none;stroke:#3c5118;stroke-miterlimit:10;stroke-width:0.25px;}.cls-13{fill:#a1e9ff;}.cls-14{fill:#dbdddd;}.cls-15{fill:#fff;}.cls-16{fill:#009ce5;}.cls-17{fill:#00bdff;}.cls-18{fill:#0065e5;}</style></defs><path class="cls-1" d="M30.53,29s3.17,4.31,6.75,5.85c.77.33,3-3.18,1.71-6.08C36.56,28.87,30.53,29,30.53,29Z"/><path class="cls-2" d="M37.29,34.89h0c-3.56-1.53-6.76-5.83-6.79-5.88l-.09-.12h.15c.06,0,6.06-.09,8.47-.22h0l0,.05a5.78,5.78,0,0,1-.9,5.71C37.83,34.79,37.52,35,37.29,34.89ZM30.68,29c.55.72,3.45,4.34,6.63,5.7h0c.16,0,.43-.11.71-.43a5.67,5.67,0,0,0,.9-5.5C36.72,28.94,31.63,29,30.68,29Z"/><path class="cls-2" d="M38.42,33.94a41.44,41.44,0,0,1-6.64-5l.11-.11a42,42,0,0,0,6.61,4.94Z"/><path class="cls-2" d="M39.1,32.42A26.37,26.37,0,0,1,33.43,29l.11-.11a25.61,25.61,0,0,0,5.62,3.42Z"/><path class="cls-2" d="M39.36,30.77a15.72,15.72,0,0,1-3.48-1.84l.1-.12a14.71,14.71,0,0,0,3.44,1.81Z"/><path class="cls-1" d="M40.27,28.66a13.54,13.54,0,0,0,6.5,4.42c.61.18,1-.23,1.43-1.16.62-1.32,1.28-3.06-.76-4C44.77,27.14,40.27,28.66,40.27,28.66Z"/><path class="cls-2" d="M46.56,33.1h0a13.75,13.75,0,0,1-6.35-4.39l-.07-.09.1,0s4.56-1.52,7.22-.78h0c2.24,1.07,1.3,3.07.8,4.14-.41.87-.82,1.41-1.53,1.21ZM40.4,28.7A13.56,13.56,0,0,0,46.61,33h0l.18.06c.52.15.89-.15,1.34-1.12.66-1.42,1.21-3-.72-3.94C45,27.29,41.09,28.48,40.4,28.7Z"/><path class="cls-2" d="M48,32.41a18.78,18.78,0,0,1-7-3.94l.11-.11A18.61,18.61,0,0,0,48,32.26h0l0,.15Z"/><path class="cls-2" d="M48.29,31.1a19.09,19.09,0,0,1-5.92-3l.1-.12a18.67,18.67,0,0,0,6.1,3l0,.15Z"/><path class="cls-2" d="M48.79,29.87a19.17,19.17,0,0,1-4.58-2.05l.09-.12a19.36,19.36,0,0,0,4.53,2Z"/><path class="cls-1" d="M52.14,20.84s5.78-3.12,10.07-3.16c1.72,0,1.77,2.09-.14,4.34s-4,3.25-3.93,5.83c.08,3.27,1.38,4.73.51,7.51S57.24,38,55.72,37s-4.8-5.57-5.6-8.21A56.51,56.51,0,0,0,52.14,20.84Z"/><path class="cls-3" d="M62.21,17.68c-4.29,0-10.07,3.16-10.07,3.16A43.83,43.83,0,0,1,50.64,27a7.36,7.36,0,0,0,5.12-1.18C58,24.53,60.07,23.36,62.13,22,64,19.72,63.91,17.7,62.21,17.68Z"/><path class="cls-4" d="M62.81,17.79a1.57,1.57,0,0,0-.6-.11c-4.29,0-10.07,3.16-10.07,3.16s0,.22-.14.84C53.61,20.57,60,17.51,62.81,17.79Z"/><path class="cls-2" d="M56.79,37.68a5.32,5.32,0,0,1-1.11-.57c-1.49-.92-4.83-5.59-5.63-8.26v0a57.23,57.23,0,0,0,2-8v0l0,0c.06,0,5.85-3.14,10.11-3.18a1.26,1.26,0,0,1,1.3.88c.27.89-.26,2.27-1.38,3.59-.54.64-1.08,1.16-1.6,1.67C59.22,25,58.18,26,58.22,27.85a15.93,15.93,0,0,0,.46,3.23,7.54,7.54,0,0,1,0,4.3C58.11,37.37,57.64,37.92,56.79,37.68ZM50.2,28.83c.81,2.65,4.1,7.25,5.56,8.15a5.47,5.47,0,0,0,1.08.55c.64.18,1.08-.1,1.74-2.2a7.35,7.35,0,0,0-.06-4.22,16.11,16.11,0,0,1-.45-3.26c0-1.88,1-2.92,2.35-4.22.52-.51,1.06-1,1.59-1.66,1.09-1.28,1.6-2.6,1.35-3.45a1.1,1.1,0,0,0-1.15-.76c-4.05,0-9.5,2.87-10,3.13A60.05,60.05,0,0,1,50.2,28.83Z"/><path class="cls-2" d="M52,22.16,51.88,22c4-1.85,11.46-3.59,11.54-3.61l0,.15C63.38,18.58,55.91,20.32,52,22.16Z"/><rect class="cls-2" x="51.63" y="21.51" width="11.6" height="0.16" transform="translate(-3.12 11.7) rotate(-11.32)"/><path class="cls-2" d="M51.55,23.72l0-.15c2.82-.44,9.67-.74,9.74-.74V23C61.21,23,54.36,23.28,51.55,23.72Z"/><rect class="cls-2" x="55.32" y="20.45" width="0.16" height="8.16" transform="translate(28.97 79.05) rotate(-88.03)"/><rect class="cls-2" x="54.67" y="22.15" width="0.16" height="7.28" transform="translate(15.73 72.05) rotate(-75.08)"/><rect class="cls-2" x="54.52" y="23.19" width="0.16" height="7.77" transform="translate(8.59 67.04) rotate(-67.35)"/><rect class="cls-2" x="54.64" y="24.15" width="0.16" height="9.18" transform="translate(1.39 59.99) rotate(-58.09)"/><rect class="cls-2" x="54.64" y="25.31" width="0.16" height="11.05" transform="translate(-4.53 51.67) rotate(-48.78)"/><path class="cls-2" d="M58.32,36.19c-.31-.27-7.43-6.78-8-8.07l.14-.07c.61,1.26,7.94,8,8,8Z"/><path class="cls-5" d="M53.43,23.17a2.86,2.86,0,0,0-1.61.69l.73,2.86A5,5,0,0,0,53.43,23.17Z"/><path class="cls-6" d="M52.52,26.91l-.79-3.08,0,0a2.91,2.91,0,0,1,1.66-.71h.07v.06a5.16,5.16,0,0,1-.89,3.61Zm-.61-3,.67,2.65a4.92,4.92,0,0,0,.78-3.29A2.8,2.8,0,0,0,51.91,23.89Z"/><path class="cls-5" d="M53.46,23.48a3.24,3.24,0,0,0-1.32-2.64,3.79,3.79,0,0,1-1.33.42l.81,3.27A2.5,2.5,0,0,0,53.46,23.48Z"/><path class="cls-6" d="M51.56,24.62l-.85-3.43h.09a3.58,3.58,0,0,0,1.3-.41h.07a3.27,3.27,0,0,1,1.37,2.7v.05a2.67,2.67,0,0,1-1.9,1.09Zm-.65-3.3.77,3.13a2.5,2.5,0,0,0,1.7-1,3.2,3.2,0,0,0-1.24-2.53A3.77,3.77,0,0,1,50.91,21.32Z"/><path class="cls-5" d="M51.73,25.73a6,6,0,0,0-1,2.73,6,6,0,0,0,2.43-2.9A1.32,1.32,0,0,0,51.73,25.73Z"/><path class="cls-5" d="M51.73,25.73A3.43,3.43,0,0,0,51.07,27a5.3,5.3,0,0,0,1.26,0,5.28,5.28,0,0,0,.83-1.46A1.32,1.32,0,0,0,51.73,25.73Z"/><path class="cls-6" d="M50.62,28.63l0-.18a6.08,6.08,0,0,1,1-2.77,1.33,1.33,0,0,1,1.51-.19l.07,0,0,.07a6.12,6.12,0,0,1-2.47,2.94ZM53,25.58a1.12,1.12,0,0,0-1.18.2,5.75,5.75,0,0,0-1,2.52,5.86,5.86,0,0,0,2.23-2.69Z"/><path class="cls-5" d="M52.07,24a1.13,1.13,0,0,1,.8,1.53c-.28.84-1.41,1.37-2.85-.16C50.08,24.35,52.07,24,52.07,24Z"/><path class="cls-6" d="M51.32,26.38A3.22,3.22,0,0,1,50,25.44l0,0v0C50,24.3,52,24,52.06,23.94h0a1.33,1.33,0,0,1,.8.62,1.23,1.23,0,0,1,0,1A1.26,1.26,0,0,1,51.32,26.38Zm-1.22-1a3,3,0,0,0,1.27.87,1.09,1.09,0,0,0,1.42-.71,1.11,1.11,0,0,0,0-.88,1.2,1.2,0,0,0-.71-.54h0C51.88,24.13,50.19,24.47,50.1,25.36Z"/><path class="cls-5" d="M51.32,21.88s1.44.44,1.35,1.47-.52,2.34-2.74,1.53a5.46,5.46,0,0,1-.68-2Z"/><path class="cls-6" d="M50.24,25.06,49.9,25h0v0a5.19,5.19,0,0,1-.69-2.07v-.06l2.14-1h0c.06,0,1.5.48,1.41,1.56A2,2,0,0,1,52,25,2.06,2.06,0,0,1,50.24,25.06ZM50,24.81a2.16,2.16,0,0,0,2,0,1.85,1.85,0,0,0,.65-1.48c.08-.88-1.07-1.32-1.27-1.39l-2,.93A5.29,5.29,0,0,0,50,24.81Z"/><path class="cls-5" d="M50.12,28.83a8.8,8.8,0,0,0,1.33-.9,5.37,5.37,0,0,0,.1-1.68c-.07-.95-1.5-1-1.5-1L48.53,26l.25,2.4C49.2,28.54,49.64,28.67,50.12,28.83Z"/><path class="cls-5" d="M50.05,25.21,48.53,26l0,.26a9.19,9.19,0,0,0,3,.75,5.24,5.24,0,0,0,0-.8C51.48,25.3,50.05,25.21,50.05,25.21Z"/><path class="cls-6" d="M48.71,28.5,48.45,26,50,25.13h0a2.83,2.83,0,0,1,.56.11,1.23,1.23,0,0,1,1,1,5.17,5.17,0,0,1-.11,1.7v0l0,0a9.53,9.53,0,0,1-1.34.91H50.1l-1.34-.39Zm-.1-2.42.24,2.29c.39.1.81.23,1.26.37a7.85,7.85,0,0,0,1.27-.86,5.34,5.34,0,0,0,.1-1.63c-.07-.8-1.24-.95-1.42-1Z"/><path class="cls-5" d="M51,23a1.35,1.35,0,0,0,.65-2,2.25,2.25,0,0,1-2.49-.33l-.38,1.49A1.55,1.55,0,0,0,51,23Z"/><path class="cls-6" d="M49.82,23.25h0a1.85,1.85,0,0,1-1.07-1v0l.41-1.63.1.08a2.23,2.23,0,0,0,.83.46A2.41,2.41,0,0,0,51.66,21l.07,0,0,.07a1.43,1.43,0,0,1-.68,2.07A1.75,1.75,0,0,1,49.82,23.25Zm-.92-1.06a1.71,1.71,0,0,0,1,.91h0A1.56,1.56,0,0,0,51,22.94a1.26,1.26,0,0,0,.64-1.8,2.57,2.57,0,0,1-1.62.12,2.6,2.6,0,0,1-.79-.41Z"/><path class="cls-5" d="M49.12,22.56s1.85,1,1.41,2.3a2.3,2.3,0,0,1-3.14,1.19,3.74,3.74,0,0,1-.32-2.77Z"/><path class="cls-6" d="M47.73,26.28a1.61,1.61,0,0,1-.38-.16h0A3.76,3.76,0,0,1,47,23.26v0l2.12-.75,0,0c.08,0,1.91,1,1.45,2.4A2.38,2.38,0,0,1,47.73,26.28ZM47.44,26a2,2,0,0,0,.34.13,2.22,2.22,0,0,0,2.67-1.29c.39-1.16-1.11-2.07-1.34-2.2l-2,.7A3.67,3.67,0,0,0,47.44,26Z"/><path class="cls-5" d="M46.13,23.33a3.8,3.8,0,0,0,2.82,0,1.81,1.81,0,0,0,.86-2.23,5.71,5.71,0,0,1-1.89-1.76l-1.45,1.18Z"/><path class="cls-6" d="M46.42,23.52h0a1.33,1.33,0,0,1-.32-.12l-.05,0,.35-2.91,1.53-1.25.12.15A5.55,5.55,0,0,0,49.84,21l0,0v0a1.88,1.88,0,0,1-.9,2.31A3.9,3.9,0,0,1,46.42,23.52Zm-.2-.24.24.09a3.72,3.72,0,0,0,2.46-.12,1.7,1.7,0,0,0,.82-2.1,5.73,5.73,0,0,1-1.8-1.68l0,0-1.36,1.11Z"/><path class="cls-5" d="M47.45,25.49l-.51,2.62a14,14,0,0,1,3,.66C50.87,26.25,47.45,25.49,47.45,25.49Z"/><path class="cls-5" d="M47.45,25.49l-.07.34c.75.29,1.48.61,2.22.85A4.59,4.59,0,0,0,47.45,25.49Z"/><path class="cls-6" d="M46.85,28.18l.54-2.78h.08l.19.06A3.82,3.82,0,0,1,50,27.08a2.09,2.09,0,0,1,0,1.72l0,.07-.07,0-.5-.16a12.22,12.22,0,0,0-2.48-.5Zm.66-2.6L47,28a13,13,0,0,1,2.43.5l.43.13a1.9,1.9,0,0,0-.06-1.52,3.68,3.68,0,0,0-2.21-1.54Z"/><path class="cls-5" d="M47,22.87s2,1.24,1.57,2.53-.84,2-3.12,1.52a7,7,0,0,1,0-2.4Z"/><path class="cls-5" d="M47,22.87l-1.58,1.65a6,6,0,0,0-.08.68,16.64,16.64,0,0,1,2.92,1,7,7,0,0,0,.31-.76C49,24.11,47,22.87,47,22.87Z"/><path class="cls-6" d="M45.34,27v-.05a7,7,0,0,1,0-2.43v0l1.63-1.71.06,0c.08.06,2.08,1.3,1.6,2.63s-.87,2.09-3.21,1.57Zm.11-2.42a7,7,0,0,0,0,2.3c2.18.47,2.54-.23,3-1.49.39-1.09-1.18-2.19-1.49-2.4Z"/><path class="cls-5" d="M46,20.32s2.13,1.19,1.56,2.85a2,2,0,0,1-3.17,1.14c-1.19-.67-.62-2.21-.62-2.21Z"/><path class="cls-6" d="M45,24.66a3.36,3.36,0,0,1-.65-.28c-1.23-.7-.65-2.29-.65-2.31v0L46,20.22l0,0s2.18,1.24,1.59,2.94A2,2,0,0,1,45,24.66Zm-1.16-2.51c-.06.18-.47,1.49.58,2.09a2.85,2.85,0,0,0,.63.27,1.87,1.87,0,0,0,2.44-1.37C48,21.7,46.31,20.59,46,20.41Z"/><path class="cls-1" d="M26.26,7.8s3.5-4.49,8.44-5.56c2,.1,11.52,5,14.12,15.25a9.69,9.69,0,0,0-2.56.71S37.15,9.12,26.26,7.8Z"/><path class="cls-3" d="M34.7,2.24c-4,.87-7.08,4-8.09,5.14C34.89,5,42,12,47.91,16.89a3.11,3.11,0,0,0,.88.51C46.17,7.21,36.7,2.34,34.7,2.24Z"/><path class="cls-4" d="M31.26,4.46c1.49-.37,2.93-.84,4.42-.41C40.45,5.38,43.84,8.9,47,12.78,43.24,5.73,36.37,2.32,34.7,2.24a15.34,15.34,0,0,0-7,4C29.06,5.8,30,4.76,31.26,4.46Z"/><path class="cls-2" d="M46.24,18.29l0,0c-.07-.07-7-6.94-15.92-9.54a25.17,25.17,0,0,0-4-.84l-.14,0,.08-.11s3.59-4.53,8.49-5.59h0a3.35,3.35,0,0,1,.69.14,20,20,0,0,1,7,4.38,22.35,22.35,0,0,1,6.53,10.79l0,.1h-.1a9.57,9.57,0,0,0-2.53.7ZM30.33,8.57c8.59,2.51,15.38,9,15.94,9.54a9.61,9.61,0,0,1,2.45-.69A22.17,22.17,0,0,0,42.25,6.8a19.76,19.76,0,0,0-6.89-4.35,2.84,2.84,0,0,0-.65-.13c-4.43,1-7.73,4.73-8.31,5.42A25.08,25.08,0,0,1,30.33,8.57Z"/><path class="cls-2" d="M27.94,8.11,27.83,8A20.28,20.28,0,0,1,36.18,2.6l0,.15A20.22,20.22,0,0,0,27.94,8.11Z"/><path class="cls-2" d="M29.88,8.53l-.11-.11a38.49,38.49,0,0,1,7.47-5.31l.07.13A39.4,39.4,0,0,0,29.88,8.53Z"/><path class="cls-2" d="M31.82,9.19l-.12-.1a22.8,22.8,0,0,1,6.81-5.3l.06.14A22.76,22.76,0,0,0,31.82,9.19Z"/><path class="cls-2" d="M33.7,9.8l-.13-.09a17.18,17.18,0,0,1,6.21-5.06l.07.14A17,17,0,0,0,33.7,9.8Z"/><path class="cls-2" d="M35.15,10.52l-.12-.1a14.36,14.36,0,0,1,6.34-4.55l.05.15A14.22,14.22,0,0,0,35.15,10.52Z"/><path class="cls-2" d="M36.71,11.3l-.12-.1c3-3.59,6-4.24,6-4.24l0,.15S39.7,7.75,36.71,11.3Z"/><path class="cls-2" d="M38,12.07l-.12-.1C41,8.19,43.46,7.91,43.56,7.9l0,.15S41.09,8.35,38,12.07Z"/><path class="cls-2" d="M39.18,12.76l-.11-.11c3.54-3.71,5.51-3.47,5.59-3.46l0,.15v0S42.66,9.12,39.18,12.76Z"/><path class="cls-2" d="M40.23,13.44l-.11-.11a13.1,13.1,0,0,1,5.43-2.93l0,.16A12.79,12.79,0,0,0,40.23,13.44Z"/><path class="cls-2" d="M41.62,14.42l-.11-.11a10.18,10.18,0,0,1,4.9-2.63l0,.15A10,10,0,0,0,41.62,14.42Z"/><path class="cls-2" d="M42.84,15.32l-.11-.11a7.58,7.58,0,0,1,4.37-2.3v.15A7.74,7.74,0,0,0,42.84,15.32Z"/><path class="cls-2" d="M43.77,16.05l-.1-.12a6.73,6.73,0,0,1,4-1.76v.15A6.56,6.56,0,0,0,43.77,16.05Z"/><path class="cls-2" d="M44.57,16.7l-.1-.12a5.78,5.78,0,0,1,3.73-1.2v.15A5.69,5.69,0,0,0,44.57,16.7Z"/><path class="cls-2" d="M45.51,17.54l-.08-.14a5.89,5.89,0,0,1,3.11-1v.15A6,6,0,0,0,45.51,17.54Z"/><path class="cls-5" d="M43.55,28.42l.38-.08A9.81,9.81,0,0,1,48,28.26C46.68,25,44.59,27.06,43.55,28.42Z"/><path class="cls-6" d="M43.36,28.54l.12-.17c.8-1,2-2.2,3.1-1.87a2.67,2.67,0,0,1,1.49,1.73l.06.14-.14,0a9.54,9.54,0,0,0-4,.08l-.39.08Zm3.18-1.89c-1-.3-2.15.84-2.8,1.65l.18,0a9.47,9.47,0,0,1,3.95-.11A2.43,2.43,0,0,0,46.54,26.65Z"/><path class="cls-5" d="M44.05,23.52s2.73,1.33,2.5,2.68-2.68,2.62-4.38,1.52a3.78,3.78,0,0,1,.54-2.52Z"/><path class="cls-5" d="M44.05,23.52,42.86,25l1.76.09a8.38,8.38,0,0,1,1.8.4A6.11,6.11,0,0,0,44.05,23.52Z"/><path class="cls-6" d="M42.83,28.1a2.47,2.47,0,0,1-.7-.32h0v0a3.77,3.77,0,0,1,.54-2.58h0L44,23.42l0,0c.12.05,2.79,1.37,2.55,2.76a2.35,2.35,0,0,1-1.15,1.47A3.32,3.32,0,0,1,42.83,28.1Zm-.59-.43a2.38,2.38,0,0,0,.63.28,3.16,3.16,0,0,0,2.53-.41,2.16,2.16,0,0,0,1.07-1.35c.21-1.18-2-2.38-2.4-2.57l-1.3,1.62A3.81,3.81,0,0,0,42.24,27.67Z"/><path class="cls-5" d="M46,21c2.06,1.17,2.84.28,3.12-.29a23,23,0,0,1-1.86-2.08c-.48-.55-1-1.07-1.45-1.57C45.11,17.85,43.88,19.72,46,21Z"/><path class="cls-7" d="M48.7,20.24c-.44-.48-.88-1.06-1.42-1.66s-1-1.07-1.45-1.57a5.37,5.37,0,0,0-.67,1,18,18,0,0,1,2.71,1.81A2.89,2.89,0,0,0,48.7,20.24Z"/><path class="cls-6" d="M47.05,21.49h0A5.15,5.15,0,0,1,46,21a2.19,2.19,0,0,1-1.21-1.5,3.4,3.4,0,0,1,1-2.55l.06-.07.06.06c.49.51,1,1,1.45,1.58.26.29.49.57.72.84a9.16,9.16,0,0,0,1.13,1.23l0,0,0,.05A1.64,1.64,0,0,1,47.05,21.49Zm-1.21-4.37a3.23,3.23,0,0,0-.92,2.36,2.09,2.09,0,0,0,1.14,1.4,5.57,5.57,0,0,0,1,.46h0A1.48,1.48,0,0,0,49,20.68a11,11,0,0,1-1.1-1.21c-.23-.27-.46-.55-.72-.84C46.77,18.12,46.31,17.61,45.84,17.12Z"/><path class="cls-5" d="M45.64,17.25s2.28,3.18.28,4.3-2.76-.4-2.76-.4l.27-2.84Z"/><path class="cls-8" d="M45.64,17.25l-1,.45c.58.37,1.18.7,1.76,1.06A8.21,8.21,0,0,0,45.64,17.25Z"/><path class="cls-6" d="M44.08,22a1.65,1.65,0,0,1-1-.79v0l.27-2.91,2.32-1.1,0,.06c.06.07,1.38,1.95,1.07,3.34A1.54,1.54,0,0,1,46,21.62,2.41,2.41,0,0,1,44.08,22Zm-.84-.84a1.56,1.56,0,0,0,.88.69,2.28,2.28,0,0,0,1.76-.33,1.44,1.44,0,0,0,.74-1c.27-1.2-.79-2.85-1-3.17l-2.12,1Z"/><path class="cls-5" d="M43.7,20.7a3,3,0,0,1,1.21,3.35c-.64,2.17-3.52.8-3.85.54-.21-.83.81-3.05.81-3.05Z"/><path class="cls-6" d="M42.17,25.16A4,4,0,0,1,41,24.65h0v0c-.21-.85.78-3,.82-3.1v0l1.89-.87,0,0A3.17,3.17,0,0,1,45,24.08C44.53,25.61,43,25.42,42.17,25.16Zm-1-.61a4.92,4.92,0,0,0,1.09.47c.8.23,2.2.41,2.61-1a2.92,2.92,0,0,0-1.14-3.24l-1.76.81A7.84,7.84,0,0,0,41.13,24.55Z"/><path class="cls-5" d="M43.1,26.61c-1.28-.61-2.81,1.32-3.58,2.5,2.11-.29,3.75-.63,4.41-.77l.4-.08A1.92,1.92,0,0,0,43.1,26.61Z"/><path class="cls-6" d="M39.36,29.21l.09-.14c.75-1.14,2.2-3,3.5-2.6l.19.07a2,2,0,0,1,1.27,1.72v.07h-.07l-.4.08h0c-.69.14-2.31.48-4.41.77Zm3.54-2.59c-1.15-.34-2.48,1.29-3.22,2.39,2-.28,3.56-.6,4.23-.74h0l.33-.07a1.88,1.88,0,0,0-1.18-1.52A.85.85,0,0,0,42.9,26.62Z"/><path class="cls-5" d="M41.56,23.16s2.13,1.43,1.56,3.25-3.25,2-3.65,1.65-.57-2.76-.57-2.76Z"/><path class="cls-5" d="M41.56,23.16l-2.18,1.75A4.68,4.68,0,0,0,40.5,25c.88-.05,1.72,0,2.58,0A4.49,4.49,0,0,0,41.56,23.16Z"/><path class="cls-6" d="M39.61,28.21a.48.48,0,0,1-.19-.09c-.41-.33-.58-2.56-.6-2.82v0l2.73-2.2.05,0s2.18,1.49,1.59,3.35a2.61,2.61,0,0,1-1.72,1.61A3.52,3.52,0,0,1,39.61,28.21ZM39,25.33A6.94,6.94,0,0,0,39.52,28a.31.31,0,0,0,.13.06c.68.2,2.89-.07,3.4-1.67s-1.18-2.91-1.49-3.14Z"/><path class="cls-5" d="M42.74,17.74a3.08,3.08,0,0,1,1.42,3.46c-.69,2.23-3.46,1.14-3.46,1.14l-.55-2.28Z"/><path class="cls-6" d="M40.94,22.5l-.27-.09,0,0L40.06,20l2.67-2.4.05,0a3.17,3.17,0,0,1,1.45,3.55C43.64,23.13,41.57,22.68,40.94,22.5Zm-.17-.22.22.07c.75.22,2.56.55,3.1-1.17a3,3,0,0,0-1.34-3.34l-2.51,2.25Z"/><path class="cls-5" d="M40.63,20s2.43,1.53,1.68,3.66-3.83,1.19-3.83,1.19l-.23-2.26Z"/><path class="cls-6" d="M38.47,24.89l-.07,0-.24-2.35,2.45-2.66.06,0s2.48,1.58,1.72,3.75S38.59,24.92,38.47,24.89Zm-.14-2.31.22,2.17c.37.1,3,.75,3.69-1.16S41,20.3,40.64,20.06Z"/><path class="cls-5" d="M36.66,25.74l-.86,3.74c1.77-.11,3.45-.32,4.83-.53a3.06,3.06,0,0,0-.11-1.84C39.76,25,36.66,25.74,36.66,25.74Z"/><path class="cls-6" d="M35.7,29.56l.9-3.89h0a5.44,5.44,0,0,1,2.41,0,2.19,2.19,0,0,1,1.54,1.41A3.05,3.05,0,0,1,40.7,29V29h0c-1.68.26-3.31.44-4.83.53Zm1-3.76-.83,3.59c1.48-.09,3.05-.26,4.67-.51a3.08,3.08,0,0,0-.12-1.74A2,2,0,0,0,39,25.83,5.12,5.12,0,0,0,36.73,25.8Z"/><path class="cls-5" d="M36.07,22.36s4.3-.69,3.85,3.07c-.3,1.86-2.62,2-3.15,1.76A6.8,6.8,0,0,1,36.07,22.36Z"/><path class="cls-5" d="M36.07,22.36a6,6,0,0,0,0,2.86,17.91,17.91,0,0,1,3.21-.32c.22,0,.46.07.71.1C40,21.73,36.07,22.36,36.07,22.36Z"/><path class="cls-6" d="M36.83,27.29l-.1,0h0A6.87,6.87,0,0,1,36,22.33v0h.05a5.61,5.61,0,0,1,2.13.13,2.49,2.49,0,0,1,1.8,3,2,2,0,0,1-1,1.46A3.11,3.11,0,0,1,36.83,27.29Zm0-.17.06,0A3,3,0,0,0,39,26.77a1.89,1.89,0,0,0,.89-1.35,2.33,2.33,0,0,0-1.7-2.86,5.18,5.18,0,0,0-2-.13A6.8,6.8,0,0,0,36.81,27.12Z"/><path class="cls-5" d="M42.25,18.57s2,1.45,3.13.83a2.26,2.26,0,0,0,.84-2c-.83-.89-1.65-1.69-2.47-2.44l-1.44.77Z"/><path class="cls-7" d="M46.22,17.42c-.83-.89-1.65-1.69-2.47-2.44l-1.44.77v.08c.21.18.42.38.63.58a18,18,0,0,0,3.11,2.11A3.52,3.52,0,0,0,46.22,17.42Z"/><path class="cls-6" d="M44,19.51h0a6.42,6.42,0,0,1-1.77-.88l0,0,.06-2.91,1.53-.81,0,0c.84.75,1.67,1.57,2.48,2.43l0,0v0a2.36,2.36,0,0,1-.89,2A1.77,1.77,0,0,1,44,19.51Zm-1.65-1a6.71,6.71,0,0,0,1.7.83h0a1.66,1.66,0,0,0,1.31,0,2.22,2.22,0,0,0,.8-1.89c-.78-.84-1.59-1.64-2.4-2.37l-1.35.71Z"/><path class="cls-5" d="M41.26,14.74s2.56,1.07,2.14,2.87a2.53,2.53,0,0,1-3.55,1.85,3.42,3.42,0,0,1-.57-3Z"/><path class="cls-6" d="M40.08,19.62l-.25-.08h0l0,0a3.49,3.49,0,0,1-.58-3.11v0h0l2-1.72,0,0s2.6,1.11,2.18,3a2.59,2.59,0,0,1-3.4,2Zm-.18-.22.22.07a2.56,2.56,0,0,0,2-.2,2.48,2.48,0,0,0,1.16-1.68c.37-1.59-1.71-2.61-2-2.76l-1.93,1.64A3.36,3.36,0,0,0,39.9,19.4Z"/><path class="cls-5" d="M42.11,16.47a2.13,2.13,0,0,0,2.7-.49,36.84,36.84,0,0,0-3.7-3.17C40.91,13.74,40.67,15.73,42.11,16.47Z"/><path class="cls-7" d="M44.81,16a36.84,36.84,0,0,0-3.7-3.17,5.66,5.66,0,0,0-.09,2,16,16,0,0,1,1.92,1.58l.4.34A2.29,2.29,0,0,0,44.81,16Z"/><path class="cls-6" d="M42.58,16.75h0a2.75,2.75,0,0,1-.51-.21c-1.5-.78-1.22-2.88-1-3.74l0-.12.1.07a38.44,38.44,0,0,1,3.71,3.18l.05.05-.05.06A2.25,2.25,0,0,1,42.58,16.75ZM41.17,13c-.18.89-.37,2.75,1,3.45a2.14,2.14,0,0,0,.47.2h0A2,2,0,0,0,44.7,16,38.93,38.93,0,0,0,41.17,13Z"/><path class="cls-5" d="M38.75,16.3a2.2,2.2,0,0,0,3-.55,2.31,2.31,0,0,0,0-2.46c-.47-.37-.94-.71-1.4-1l-2.07.91S37.78,15.64,38.75,16.3Z"/><path class="cls-7" d="M41.74,13.29c-.47-.37-.94-.71-1.4-1l-2.07.91v0l.66.32a24.58,24.58,0,0,1,3,2A2.31,2.31,0,0,0,41.74,13.29Z"/><path class="cls-6" d="M39.37,16.68h0a2.24,2.24,0,0,1-.66-.32c-1-.68-.54-3.12-.52-3.22v0l2.15-.94,0,0c.48.33.95.68,1.41,1h0a2.38,2.38,0,0,1,0,2.54h0A2.36,2.36,0,0,1,39.37,16.68Zm-1-3.47c-.06.32-.4,2.44.46,3a2.13,2.13,0,0,0,.61.29h0a2.2,2.2,0,0,0,2.31-.82,2.21,2.21,0,0,0,0-2.37c-.44-.34-.89-.68-1.35-1Z"/><path class="cls-5" d="M37.7,14.44c2.17.25,2.73-1.12,2.86-2A31.08,31.08,0,0,0,36.66,10C35.84,11.39,35.64,14.16,37.7,14.44Z"/><path class="cls-7" d="M40.56,12.41A31.08,31.08,0,0,0,36.66,10a4.38,4.38,0,0,0-.57,1.83,8.07,8.07,0,0,1,.87.61,10.09,10.09,0,0,0,2,1.06l.82.48A2.43,2.43,0,0,0,40.56,12.41Z"/><path class="cls-6" d="M37.37,14.45h0a1.79,1.79,0,0,1-1.18-1.11,4.24,4.24,0,0,1,.4-3.36l0-.07.06,0a31.25,31.25,0,0,1,3.92,2.4l0,0v.05c-.13.9-.69,2.36-3,2.09A1.65,1.65,0,0,1,37.37,14.45Zm-.68-4.33a4.07,4.07,0,0,0-.36,3.16,1.62,1.62,0,0,0,1.08,1h0l.3.06c2,.23,2.61-.9,2.77-1.91A30.45,30.45,0,0,0,36.69,10.12Z"/><path class="cls-5" d="M38.85,16.48s2.78.61,2.6,3.15a3.45,3.45,0,0,1-2.89,2.69,7,7,0,0,1-1.43-3Z"/><path class="cls-6" d="M38.53,22.39h0a7,7,0,0,1-1.46-3.06v0l1.76-2.9h0l.15,0a3.18,3.18,0,0,1,2.52,3.2,3.51,3.51,0,0,1-3,2.75Zm-1.32-3.08a6.81,6.81,0,0,0,1.38,2.93,3.36,3.36,0,0,0,2.79-2.62,3,3,0,0,0-2.42-3l-.08,0Z"/><path class="cls-5" d="M35.67,27.55c-1.23.08-2.62,1.34-3.26,2a40.66,40.66,0,0,0,5.24-.2C37.37,28.57,36.76,27.47,35.67,27.55Z"/><path class="cls-6" d="M32.23,29.6l.13-.13c.7-.71,2.07-1.92,3.31-2a1.57,1.57,0,0,1,.53.05,2.8,2.8,0,0,1,1.53,1.78l0,.09h-.1a40.29,40.29,0,0,1-5.25.21Zm3.92-1.93a1.48,1.48,0,0,0-.47-.05,6.08,6.08,0,0,0-3.09,1.84,41.17,41.17,0,0,0,5-.2A2.58,2.58,0,0,0,36.15,27.67Z"/><path class="cls-5" d="M36.05,24s2.18,1.45,1.45,3.18-4.24,1.36-4.24,1.36l.85-2.89Z"/><path class="cls-5" d="M34.38,25.45c.91-.1,1.81-.27,2.73-.4a4.83,4.83,0,0,0-1.06-1Z"/><path class="cls-6" d="M33.16,28.64l.88-3,2-1.71.05,0s2.21,1.5,1.47,3.27-4.17,1.42-4.32,1.41Zm1-2.92-.82,2.78c.56,0,3.44.19,4.07-1.32s-1.06-2.83-1.37-3.05Z"/><path class="cls-5" d="M37.39,13.57s3.25,1.36,2.78,3.25-2.22,3.29-4,2.52S35,16.05,35,16.05Z"/><path class="cls-6" d="M36.44,19.53l-.33-.12C34.27,18.62,35,16.06,35,16v0l2.4-2.53.05,0c.13.06,3.31,1.41,2.82,3.34a3.92,3.92,0,0,1-1.74,2.43A2.63,2.63,0,0,1,36.44,19.53Zm-1.33-3.44c-.06.23-.58,2.47,1.06,3.18a2.45,2.45,0,0,0,2.25-.14,3.68,3.68,0,0,0,1.67-2.33c.42-1.67-2.28-3-2.69-3.13Z"/><path class="cls-5" d="M37.24,18.77s2.57,2.17,1.94,3.77S36.77,24.67,34.91,24c-1.61-.76.06-3.52.06-3.52Z"/><path class="cls-6" d="M35.26,24.17,34.88,24a1.24,1.24,0,0,1-.68-.77c-.34-1.12.66-2.79.7-2.86h0l2.34-1.73,0,0c.11.09,2.61,2.23,2,3.86S37.07,24.7,35.26,24.17ZM35,20.51c-.09.15-1,1.71-.67,2.71a1.05,1.05,0,0,0,.59.68l.37.12c1.72.5,3.25-.1,3.8-1.51s-1.53-3.34-1.87-3.64Z"/><path class="cls-5" d="M35.09,11.25s4,2.14,3,4.08S34.22,17,34.22,17l-1.08-3.72Z"/><path class="cls-6" d="M34.16,17.07l-1.1-3.81,2-2.11.05,0c.16.09,4,2.2,3.06,4.18s-3.95,1.72-4,1.72Zm-.93-3.77,1.05,3.63c.39,0,2.92.09,3.77-1.63s-2.49-3.69-2.94-4Z"/><path class="cls-5" d="M35,16.26s2.89,1,2.58,3.2-5,2.69-5,2.69S33.32,17.28,35,16.26Z"/><path class="cls-6" d="M32.51,22.24v-.1c0-.2.75-4.92,2.47-5.94l0,0h0s3,1.06,2.64,3.28-4.89,2.74-5.08,2.76ZM35,16.35c-1.5.94-2.23,5-2.35,5.71.69-.09,4.57-.69,4.84-2.62S35.36,16.47,35,16.35Z"/><path class="cls-5" d="M32.38,13.49S36.35,14.7,36,17s-3,2.86-3.74,2.8C30.82,18.06,32.38,13.49,32.38,13.49Z"/><path class="cls-6" d="M32.21,19.91l0,0c-1.44-1.78.05-6.23.12-6.42l0-.07.07,0c.17.05,4,1.27,3.67,3.64s-3,2.93-3.82,2.86Zm.22-6.32c-.19.58-1.39,4.55-.14,6.17.75,0,3.28-.51,3.63-2.74C36.23,15,33,13.77,32.43,13.59Z"/><path class="cls-5" d="M34.88,27c-.14-2.15-4.14-2.35-4.14-2.35l-1.07,4.68a27.07,27.07,0,0,0,3.94.26A3.44,3.44,0,0,0,34.88,27Z"/><path class="cls-6" d="M29.58,29.36l1.1-4.83h.07a8.75,8.75,0,0,1,1.91.33C34.1,25.29,34.9,26,35,27a3.44,3.44,0,0,1-1.29,2.64l0,0h0a26.79,26.79,0,0,1-3.95-.25ZM30.8,24.7l-1,4.53a27.88,27.88,0,0,0,3.81.24A3.28,3.28,0,0,0,34.81,27c-.08-1.1-1.23-1.67-2.19-1.95A8.5,8.5,0,0,0,30.8,24.7Z"/><path class="cls-5" d="M34.39,20.84s2.9,1.39,2.63,3a3.27,3.27,0,0,1-4.15,2.36C31.5,24.43,34.39,20.84,34.39,20.84Z"/><path class="cls-5" d="M37,23.88c.27-1.65-2.63-3-2.63-3s-2.23,2.77-1.84,4.67c.27,0,.54,0,.82,0a26.27,26.27,0,0,0,3.07-.38A2.73,2.73,0,0,0,37,23.88Z"/><path class="cls-6" d="M32.82,26.3l0,0c-1.38-1.83,1.41-5.34,1.53-5.49l0-.05.06,0c.12.06,2.94,1.43,2.66,3.12a2.85,2.85,0,0,1-1.29,1.95,3.68,3.68,0,0,1-2.95.47Zm1.59-5.36c-.33.43-2.69,3.59-1.5,5.23a3.56,3.56,0,0,0,2.8-.46,2.73,2.73,0,0,0,1.23-1.84C37.18,22.42,34.81,21.14,34.41,20.94Z"/><path class="cls-5" d="M31.46,19.1s3.41.15,3.82,1.53-1.14,3.6-2.4,3.76-3.14-3-3.14-3Z"/><path class="cls-6" d="M32.49,24.43c-1.24-.37-2.75-2.89-2.82-3l0-.05L31.43,19h0a10.56,10.56,0,0,1,2.18.35c1,.29,1.55.7,1.7,1.22A3,3,0,0,1,34.78,23a3,3,0,0,1-1.89,1.47A.93.93,0,0,1,32.49,24.43Zm-2.66-3c.21.34,1.61,2.55,2.71,2.88a1,1,0,0,0,.33,0,2.94,2.94,0,0,0,1.78-1.4,2.89,2.89,0,0,0,.55-2.26c-.14-.47-.67-.85-1.59-1.12a10.81,10.81,0,0,0-2.11-.35Z"/><path class="cls-5" d="M31.9,9.29s4.49.75,3.7,3.44-4.46,1.12-4.46,1.12Z"/><path class="cls-6" d="M31.7,14.13a5.93,5.93,0,0,1-.59-.2l-.06,0,.79-4.7h.08s.36.06.85.21c1.34.39,3.49,1.34,2.91,3.33S32.69,14.42,31.7,14.13Zm-.48-.33a4.32,4.32,0,0,0,.53.18c1.17.34,3.22.64,3.78-1.27S34,9.94,32.72,9.57c-.34-.1-.62-.16-.75-.19Z"/><path class="cls-5" d="M34.16,12.22c2.8.72,3.56-.58,3.76-1.51a27,27,0,0,0-6.19-2.64C31.39,9.36,31.3,11.5,34.16,12.22Z"/><path class="cls-7" d="M37.92,10.71a27,27,0,0,0-6.19-2.64,3.83,3.83,0,0,0,0,2.32,20,20,0,0,1,3.77,1.16,6.63,6.63,0,0,1,1.16.7A2,2,0,0,0,37.92,10.71Z"/><path class="cls-6" d="M33.93,12.24h0c-2.74-.8-2.6-3-2.28-4.19l0-.07.08,0,.29.08A27.12,27.12,0,0,1,38,10.64l0,0v.05a2.16,2.16,0,0,1-.94,1.43,3.78,3.78,0,0,1-2.92.15ZM31.78,8.17A3,3,0,0,0,34,12.09h0l.21.06A3.62,3.62,0,0,0,37,12a2,2,0,0,0,.85-1.27A27.44,27.44,0,0,0,32,8.23Z"/><path class="cls-5" d="M30.36,11s4.37,1.16,3.61,3.49-3.06,2.67-4.81,1.88C28,14.67,30.36,11,30.36,11Z"/><path class="cls-6" d="M29.72,16.61a4.84,4.84,0,0,1-.6-.22h0l0,0c-1.2-1.67,1.11-5.3,1.21-5.45l0-.05h.05l.1,0c.45.13,2.75.86,3.45,2.19A1.68,1.68,0,0,1,34,14.46,3.31,3.31,0,0,1,29.72,16.61Zm-.51-.36a4.13,4.13,0,0,0,.55.21,3.16,3.16,0,0,0,4.13-2,1.58,1.58,0,0,0-.1-1.26c-.67-1.27-2.91-2-3.36-2.11h0C30.13,11.48,28.17,14.76,29.21,16.25Z"/><path class="cls-5" d="M27.73,8.47s4.21,1.26,4.14,4C31.73,14.22,28,14.13,28,14.13A6.36,6.36,0,0,1,27.73,8.47Z"/><path class="cls-6" d="M28,14.21l0,0a6.38,6.38,0,0,1-.3-5.73l0-.06.07,0c.17,0,4.26,1.31,4.18,4.07-.13,1.81-3.76,1.74-3.92,1.74Zm-.2-5.64a6.2,6.2,0,0,0,.29,5.48c.41,0,3.6,0,3.72-1.58C31.85,10,28.31,8.75,27.78,8.57Z"/><path class="cls-5" d="M30.72,15.56s3.69,1.65,3.12,3.87-4,2.69-4,2.69A5.84,5.84,0,0,1,29,18.05Z"/><path class="cls-6" d="M29.82,22.2l0,0A5.89,5.89,0,0,1,28.9,18v0l1.79-2.56.06,0c.15.06,3.75,1.7,3.17,4S30,22.18,29.86,22.2Zm-.77-4.12a5.83,5.83,0,0,0,.83,4c.4-.07,3.37-.61,3.89-2.62s-2.56-3.54-3-3.76Z"/><path class="cls-5" d="M29,18.27s4.25,1.57,2.35,4.46-3.72,1.87-3.72,1.87l-.75-3.38Z"/><path class="cls-6" d="M27.89,24.77a1.26,1.26,0,0,1-.27-.1l0,0-.76-3.45,2.17-3,.06,0c.09,0,2.26.85,2.78,2.41a2.46,2.46,0,0,1-.4,2.16C29.93,25.07,28.45,24.94,27.89,24.77Zm-.16-.22c.24.11,1.86.75,3.58-1.86a2.31,2.31,0,0,0,.38-2c-.45-1.36-2.29-2.16-2.63-2.3L27,21.23Z"/><path class="cls-5" d="M28.45,13.31s4,1.41,3.46,3.73-3.82,2.21-3.82,2.21l-.85-3.45Z"/><path class="cls-6" d="M28,19.33l-.87-3.54,1.26-2.58.06,0c.17.06,4,1.45,3.5,3.82s-3.85,2.27-3.89,2.27Zm-.71-3.53.84,3.37c.44,0,3.21-.08,3.67-2.15S29,13.6,28.49,13.41Z"/><path class="cls-5" d="M30.56,11.66c3.31.73,3.18-1.71,2.87-3a24.09,24.09,0,0,0-4.9-1.21C28.54,8.52,28.74,11.09,30.56,11.66Z"/><path class="cls-7" d="M33.43,8.62a24.09,24.09,0,0,0-4.9-1.21A7.72,7.72,0,0,0,29,10a19.23,19.23,0,0,1,4.43.77A3.77,3.77,0,0,0,33.43,8.62Z"/><path class="cls-6" d="M30.54,11.73h0c-1.88-.58-2.08-3.22-2.08-4.32V7.32h.09A25.27,25.27,0,0,1,32,8.08c.47.14,1,.3,1.42.46l0,0v0a3,3,0,0,1-.38,2.76,2.7,2.7,0,0,1-2.58.37ZM28.61,7.5c0,1.12.25,3.54,2,4.08A2.59,2.59,0,0,0,33,11.25a2.91,2.91,0,0,0,.35-2.57L32,8.23A25.32,25.32,0,0,0,28.61,7.5Z"/><path class="cls-7" d="M26.85,9.84c2.72-.2,3.45-1.33,3.63-2.08a23.46,23.46,0,0,0-5.16-.57A3.52,3.52,0,0,0,26.85,9.84Z"/><path class="cls-6" d="M26.83,9.92l0,0a3.57,3.57,0,0,1-1.56-2.7V7.12h.09a22.9,22.9,0,0,1,5.18.57h.08l0,.08c-.17.71-.88,1.93-3.71,2.14ZM25.4,7.27a3.46,3.46,0,0,0,1.47,2.49c2.6-.2,3.32-1.27,3.52-1.94A23,23,0,0,0,25.4,7.27Z"/><path class="cls-5" d="M29.05,23.34l-2.71,5.11a17.06,17.06,0,0,0,5,1C33.66,27.11,29.05,23.34,29.05,23.34Z"/><path class="cls-6" d="M27.36,28.88h0q-.55-.16-1.05-.36l-.08,0L29,23.22l.07.06c.12.1,2.85,2.35,2.95,4.49a2.21,2.21,0,0,1-.69,1.75l0,0h0A18.8,18.8,0,0,1,27.36,28.88Zm-.91-.47c.3.11.62.22.95.32a19,19,0,0,0,3.87.66,2.11,2.11,0,0,0,.62-1.61c-.1-1.88-2.38-3.94-2.82-4.31Z"/><path class="cls-5" d="M28.93,10.22c.2-1.61-1.47-2.43-2.61-3-.45,0-.88,0-1.29,0-.19,1.1-.59,3.78-.22,5C24.81,12.19,28.52,12.53,28.93,10.22Z"/><path class="cls-7" d="M26.32,7.21c-.45,0-.88,0-1.29,0a25.89,25.89,0,0,0-.36,3.11A17.48,17.48,0,0,1,28.94,10C29,8.54,27.42,7.77,26.32,7.21Z"/><path class="cls-6" d="M24.75,12.26l0,0c-.37-1.22,0-3.92.22-5V7.12H25c.43,0,.87,0,1.31,0h0l.06,0c1.12.56,2.8,1.42,2.6,3.06-.42,2.36-4.17,2-4.21,2Zm.34-5a15.07,15.07,0,0,0-.22,4.84c.45,0,3.62.17,4-1.9.19-1.53-1.37-2.33-2.51-2.9l0,0C25.9,7.27,25.49,7.27,25.09,7.27Z"/><path class="cls-7" d="M22.74,10c3,1.16,3.36-1.48,3.38-2.81a19.47,19.47,0,0,0-6,.7C20.28,8.53,20.93,9.31,22.74,10Z"/><path class="cls-6" d="M23.14,10.23h0l-.43-.14C21.17,9.48,20.26,8.75,20,7.92l0-.07.07,0a19.55,19.55,0,0,1,6-.7h.08v.08a3.69,3.69,0,0,1-1,2.83A2.22,2.22,0,0,1,23.14,10.23ZM20.2,8c.25.75,1.14,1.43,2.57,2a4,4,0,0,0,.41.14h0a2.07,2.07,0,0,0,1.89-.17,3.48,3.48,0,0,0,1-2.63A19.53,19.53,0,0,0,20.2,8Z"/><path class="cls-5" d="M25.81,11s3.44.63,3.65,3.07-1.22,3.05-2.6,3a7.87,7.87,0,0,1-1.39-3Z"/><path class="cls-6" d="M26.82,17.09l0,0a8.14,8.14,0,0,1-1.4-3v0l.36-3.12h.08a4.82,4.82,0,0,1,.51.13c.91.27,3,1.09,3.2,3a3,3,0,0,1-.64,2.4,2.62,2.62,0,0,1-2,.66ZM25.54,14a8.11,8.11,0,0,0,1.36,2.93,2.39,2.39,0,0,0,1.89-.61A2.77,2.77,0,0,0,29.38,14c-.15-1.82-2.21-2.61-3.08-2.87l-.42-.11Z"/><path class="cls-5" d="M27.28,16.11s3.15,1.08,2.61,3.3-3.55,1.78-3.55,1.78L26.6,19Z"/><path class="cls-6" d="M26.25,21.25,26.53,19l.7-3,.08,0s3.21,1.14,2.65,3.4-3.6,1.84-3.63,1.83ZM26.68,19l-.26,2.12c.47.05,2.92.21,3.39-1.73s-2-3-2.47-3.18Z"/><path class="cls-5" d="M27.06,20.21s3.76,2.12,2.28,4.56-4.86.9-4.86.9l.89-3.2Z"/><path class="cls-5" d="M27.06,20.21l-1.69,2.26-.23.81A15.8,15.8,0,0,0,29.2,25a1.76,1.76,0,0,0,.14-.23C30.82,22.33,27.06,20.21,27.06,20.21Z"/><path class="cls-6" d="M25.11,26a4.48,4.48,0,0,1-.66-.24l-.06,0,.9-3.29h0L27,20.1l.06,0c.08.05,2.16,1.24,2.59,2.88a2.23,2.23,0,0,1-.28,1.79C28.33,26.61,26.25,26.31,25.11,26Zm-.54-.35a6.19,6.19,0,0,0,.59.2c1.09.32,3.09.61,4.12-1.1a2.11,2.11,0,0,0,.26-1.67,5.74,5.74,0,0,0-2.46-2.75L25.44,22.5Z"/><path class="cls-5" d="M25.61,24.6S24,27.42,24.4,27.42a11.1,11.1,0,0,0,4.18,1.68C31,26.17,25.61,24.6,25.61,24.6Z"/><path class="cls-6" d="M27.35,28.88h0a10.41,10.41,0,0,1-3-1.38.14.14,0,0,1-.09-.08c-.13-.32.93-2.27,1.26-2.86l0-.06.06,0c.12,0,3,.91,3.57,2.6a2.15,2.15,0,0,1-.56,2l0,0h0C28.14,29.09,27.74,29,27.35,28.88Zm-2.92-1.54,0,0a9.83,9.83,0,0,0,2.95,1.37c.36.1.75.2,1.15.28a2,2,0,0,0,.5-1.85c-.46-1.48-3-2.34-3.4-2.47a12.33,12.33,0,0,0-1.23,2.65Z"/><path class="cls-1" d="M25.21,26s3.46,3.57,6.73,1.4c3-2,3.59-5.32,3.4-6.06s-3.2-.29-6.08,1.38c-1.81,1.17-2.27,1.77-3.86,1.67A13.26,13.26,0,0,0,25.21,26Z"/><path class="cls-3" d="M35.34,21.38c-.18-.75-3.2-.29-6.08,1.38-.6.39-1.06.72-1.45,1l-.07.22c.44.46,1.07.24,1.64.24-.35.06-1,.36-.77.67a.6.6,0,0,0,.68.2c-.11.37-.81.25-.65.54s.58.25.88.33c-.35.07-.7.45-.43.61a4,4,0,0,0,3.54.37C35,24.93,35.52,22.06,35.34,21.38Z"/><path class="cls-4" d="M35.34,21.36c-.22-.72-3.22-.26-6.08,1.4-.6.39-1.05.71-1.45,1a5.09,5.09,0,0,0,3.11-.38C32.48,22.8,33.74,21.73,35.34,21.36Z"/><path class="cls-2" d="M28.32,28h0a8.22,8.22,0,0,1-3.16-1.92l0,0v0a11.86,11.86,0,0,1,.18-1.62l0-.06h.07a3.86,3.86,0,0,0,2.9-1.05l.91-.61c2.39-1.38,4.87-1.94,5.8-1.67a.51.51,0,0,1,.4.34c.2.8-.45,4.17-3.43,6.14A4.22,4.22,0,0,1,28.32,28Zm-3-2a8.13,8.13,0,0,0,3.07,1.85,4,4,0,0,0,3.54-.49,7.86,7.86,0,0,0,2.86-3.45,5.16,5.16,0,0,0,.51-2.53c0-.1-.13-.17-.3-.22-.9-.27-3.4.34-5.67,1.66l-.9.6a4,4,0,0,1-2.93,1.08A14,14,0,0,0,25.29,26Z"/><path class="cls-2" d="M25.37,24.74v-.15c4.43.38,9.87-3.24,9.92-3.28l.09.13C35.33,21.48,29.85,25.13,25.37,24.74Z"/><path class="cls-2" d="M25.32,25l0-.15C30.12,26,35,23.22,35.08,23.19l.08.13S30.15,26.14,25.32,25Z"/><path class="cls-2" d="M25.82,25.5l-.56-.18,0-.15a17.24,17.24,0,0,0,8.64.27l0,.15A17.85,17.85,0,0,1,25.82,25.5Z"/><path class="cls-2" d="M27.8,26.7a8.23,8.23,0,0,1-2.54-1.18l.09-.13c2.38,1.77,6.77,1.79,6.81,1.79v.16A17.7,17.7,0,0,1,27.8,26.7Z"/><path class="cls-5" d="M24.8,22.59a20.62,20.62,0,0,1-2.12,2.66,3.25,3.25,0,0,1-2.89,1.16,8.26,8.26,0,0,0,4.61,1C27.4,26.08,25.68,23.6,24.8,22.59Z"/><path class="cls-6" d="M21.16,27.12h0a4.9,4.9,0,0,1-1.42-.65l-.25-.18.31,0a3.21,3.21,0,0,0,2.83-1.13,21,21,0,0,0,2.1-2.66l.06-.08.07.07c.58.68,1.53,2,1.27,3.21a2.63,2.63,0,0,1-1.7,1.75h0A11.8,11.8,0,0,1,21.16,27.12Zm-1.07-.61a5.23,5.23,0,0,0,1.12.46h0a11.28,11.28,0,0,0,3.18.37A2.51,2.51,0,0,0,26,25.71c.24-1.11-.6-2.32-1.17-3a21.43,21.43,0,0,1-2.07,2.59A3.36,3.36,0,0,1,20.09,26.51Z"/><path class="cls-5" d="M27.65,21.89A2.21,2.21,0,0,0,26.24,19a10.47,10.47,0,0,1-2.48,5C24.78,24.05,27,23.9,27.65,21.89Z"/><path class="cls-5" d="M27.65,21.89A2.21,2.21,0,0,0,26.24,19a8.93,8.93,0,0,1-1.67,3.91q.64.42,1.32.78A2.79,2.79,0,0,0,27.65,21.89Z"/><path class="cls-6" d="M23.6,24.08l.1-.12a10.12,10.12,0,0,0,2.46-5v-.1l.1,0a2.3,2.3,0,0,1,1.45,3c-.65,2.07-3,2.2-4,2.16Zm2.7-4.95a10.26,10.26,0,0,1-2.38,4.8c1,0,3.06-.19,3.65-2.06A2.09,2.09,0,0,0,26.3,19.13Z"/><path class="cls-5" d="M28,16.36c-.28-1.91-2.35-2.12-3.66-2,.2.26.41.52.62.77a4.85,4.85,0,0,1,1.21,4.49A2.8,2.8,0,0,0,28,16.36Z"/><path class="cls-6" d="M26,19.69l0-.14a4.85,4.85,0,0,0-1.19-4.42q-.31-.36-.63-.78l-.09-.11h.14a5.83,5.83,0,0,1,1.94.18A2.29,2.29,0,0,1,28,16.35a2.86,2.86,0,0,1-1.87,3.29Zm-1.58-5.31L25,15a5,5,0,0,1,1.26,4.41,2.71,2.71,0,0,0,1.64-3.07,2.14,2.14,0,0,0-1.69-1.81A5.78,5.78,0,0,0,24.46,14.38Z"/><path class="cls-5" d="M26.7,11.45c-.65-2.3-3.67-1.67-5.06-1.24a39.51,39.51,0,0,0,3.14,4.69A2.67,2.67,0,0,0,26.7,11.45Z"/><path class="cls-7" d="M21.64,10.21l.49.8a16.53,16.53,0,0,1,3.58-.86C24.51,9.48,22.64,9.9,21.64,10.21Z"/><path class="cls-6" d="M24.76,15l0,0a29.91,29.91,0,0,1-2.58-3.78l-.57-.92-.05-.08.09,0a6.91,6.91,0,0,1,3.6-.28,2.16,2.16,0,0,1,1.57,1.56,2.77,2.77,0,0,1-2,3.55Zm-3-4.73.51.83a31.18,31.18,0,0,0,2.54,3.72,2.59,2.59,0,0,0,1.82-3.34A2,2,0,0,0,25.17,10,6.59,6.59,0,0,0,21.76,10.26Z"/><path class="cls-5" d="M23.29,9C23,8.13,21.87,7.8,20.93,7.68a12,12,0,0,0-1.42.42h0c.9,0,1.78,1.55,2.95,3.46A2.58,2.58,0,0,0,23.29,9Z"/><path class="cls-7" d="M23.29,9C23,8.13,21.87,7.8,20.93,7.68a12,12,0,0,0-1.42.42h0c.81,0,1.6,1.26,2.61,2.9.32-.12.65-.23,1-.32A2.11,2.11,0,0,0,23.29,9Z"/><path class="cls-6" d="M22.46,11.69l-.06-.08c-.09-.15-.18-.29-.26-.44-.94-1.53-1.68-2.74-2.4-2.95a.6.6,0,0,0-.22,0h0l-.09-.12.1,0a10.48,10.48,0,0,1,1.42-.41h0a5.51,5.51,0,0,1,.9.18A2,2,0,0,1,23.37,9a2.69,2.69,0,0,1-.84,2.6ZM19.81,8.07c.77.25,1.52,1.48,2.46,3l.21.35a2.47,2.47,0,0,0,.74-2.38A1.89,1.89,0,0,0,21.8,7.94a5.13,5.13,0,0,0-.87-.18C20.42,7.88,20,8,19.81,8.07Z"/><path class="cls-9" d="M17.24,25.28s3.05,2.6,5.44,0,5.37-6.66,2.25-10.17c-2.66-3.09-4-7.15-5.5-7-1.27,0-6.7,3-8.27,5.22C10,14.07,9,14.56,8.65,15.44c.73.75,4.48,5.48,4.48,5.48a16.44,16.44,0,0,1-3.22-.44C11,22.2,13.85,24.37,17.24,25.28Z"/><path class="cls-10" d="M19.22,24.14A3.31,3.31,0,0,0,21.67,23,10.22,10.22,0,0,1,21,24.42a3.19,3.19,0,0,0,2-.51c2.11-1.55,3.67-3.47,3.38-6.12a5.08,5.08,0,0,0-1.29-2.66c-2.67-3.09-4-7.15-5.51-7-1.27,0-6.7,3-8.26,5.22-1.19.73-2.36,1.2-2.51,2.11.6.62,3.3,4,4.19,5.11,0-.05,0-.1-.05-.15s0,.1.05.15l.29.36h-.16C14.14,23.26,16.89,23.83,19.22,24.14Z"/><path class="cls-11" d="M19.08,26.34a5.54,5.54,0,0,1-1.88-1l-.28-.08h0a13.31,13.31,0,0,1-7.08-4.75l-.1-.16.18.05a18.61,18.61,0,0,0,3.05.43c-.6-.76-3.63-4.51-4.28-5.19l0-.07-.07-.1a3.6,3.6,0,0,1,1.78-1.81c.22-.12.45-.25.68-.4,1.59-2.22,7.07-5.2,8.32-5.24a.86.86,0,0,1,.35,0c.78.22,1.54,1.46,2.49,3A29.38,29.38,0,0,0,25,15a5.09,5.09,0,0,1,1,5.49,15.91,15.91,0,0,1-3.21,4.79A3.4,3.4,0,0,1,19.08,26.34Zm-1.8-1.13h0a5.55,5.55,0,0,0,1.83,1,3.21,3.21,0,0,0,3.51-1c2.43-2.67,5.31-6.62,2.25-10.07a28,28,0,0,1-2.74-4c-.94-1.53-1.68-2.74-2.4-3a.77.77,0,0,0-.3,0c-1.24,0-6.65,3-8.21,5.19h0l-.7.41c-.87.5-1.5,1-1.64,1.65.78.83,4.18,5.22,4.34,5.41l.09.12h-.15a15.64,15.64,0,0,1-3.06-.39A13.38,13.38,0,0,0,17,25.12h0l.3.09Z"/><path class="cls-11" d="M17.23,25.36l0-.15A3.63,3.63,0,0,0,20.58,24,3.43,3.43,0,0,1,17.23,25.36Z"/><path class="cls-10" d="M8.81,15.52s-1.95,2.2-3.34,1.88-1.77-.23-1.68.44c.2,1.42,1.34,2.77,6.24,5a33.43,33.43,0,0,0,5.49,1.87s3.22.84,1.95-1.28"/><path class="cls-5" d="M3.76,17.7s7,4.24,14.82,2.34C18.58,20,9,23.62,3.76,17.7Z"/><path class="cls-5" d="M19.39,20.38s-1.38.14-1.32-1.65C18.07,18.73,18.52,20.09,19.39,20.38Z"/><path class="cls-12" d="M16.4,25s-5.91-1.61-8.74-3.28-4-2.82-3.89-4.19c.08-.72,1.91-.13,1.91-.13s1.38.14,3-1.91"/><path class="cls-13" d="M5.74,17.56c2.65.93,8.92-3.51,11.07-4.75a15.6,15.6,0,0,1,5.36-1.73c-1.06-1.74-1.88-3.07-2.74-3-1.27,0-6.7,3-8.27,5.22C10,14.05,9,14.57,8.84,15.44A5.67,5.67,0,0,1,5.74,17.56Z"/><ellipse cx="16.46" cy="15.7" rx="2.67" ry="2.56" transform="translate(-3.23 27.08) rotate(-73.67)"/><path class="cls-14" d="M18.55,16.49A2.4,2.4,0,1,1,17,13.43,2.45,2.45,0,0,1,18.55,16.49Z"/><path class="cls-15" d="M18.38,14.62A2.33,2.33,0,0,0,17,13.43a2.44,2.44,0,0,0-3,1.72,2.52,2.52,0,0,0,.49,2.34A3.94,3.94,0,0,0,18.38,14.62Z"/><path d="M15.53,18.29a2.58,2.58,0,1,1,3.1-1.78A2.53,2.53,0,0,1,15.53,18.29Zm1.4-4.79a2.42,2.42,0,1,0,1.55,3A2.37,2.37,0,0,0,16.93,13.5Z"/><path class="cls-16" d="M17.44,16.4a1.84,1.84,0,0,1-2.26,1.14,1.74,1.74,0,0,1-.66-2.38A1.84,1.84,0,0,1,16.78,14,1.73,1.73,0,0,1,17.44,16.4Z"/><path class="cls-17" d="M17.65,15.42a1.54,1.54,0,0,0-.87-1.4,1.84,1.84,0,0,0-2.26,1.14,2,2,0,0,0,0,1.74A4.17,4.17,0,0,0,17.65,15.42Z"/><path class="cls-18" d="M15.15,17.61a1.82,1.82,0,0,1-.71-2.49A1.92,1.92,0,0,1,16.81,14a1.82,1.82,0,0,1,.71,2.49A1.91,1.91,0,0,1,15.15,17.61Zm1.6-3.52a1.77,1.77,0,0,0-2.15,1.1,1.65,1.65,0,0,0,.61,2.27,1.75,1.75,0,0,0,2.15-1.09A1.67,1.67,0,0,0,16.75,14.09Z"/><path d="M17.17,16.35a1.46,1.46,0,0,1-1.8.92,1.37,1.37,0,0,1-.51-1.9,1.46,1.46,0,0,1,1.8-.92A1.37,1.37,0,0,1,17.17,16.35Z"/><path class="cls-15" d="M15.88,14.62a.48.48,0,0,1-.64.2.44.44,0,0,1-.28-.59A.49.49,0,0,1,15.6,14,.46.46,0,0,1,15.88,14.62Z"/><ellipse class="cls-15" cx="15.03" cy="16.84" rx="0.26" ry="0.3" transform="translate(-5.77 25.63) rotate(-71.16)"/></svg>