<svg id="Layer_1" data-name="Layer 1" xmlns="http://www.w3.org/2000/svg" viewBox="0 0 74.32 41.83"><defs><style>.cls-1{fill:#461211;}.cls-2{fill:#fff;}.cls-3{fill:#e55757;}.cls-4{fill:#9b593d;}</style></defs><path class="cls-1" d="M6.51,7.16s-4,18.69,17,30.14c5,2.75,19.35,4.38,26.93-1.59C61,27.38,65.66,15.44,66.26,14.39s-19.83,9.17-34.62,4.72C19.2,15.36,12.08,14.29,6.51,7.16Z"/><path class="cls-2" d="M6.51,7.16s10.85,11.07,36,9.65c0,0,21.49-2.23,26.3-4.87A56.1,56.1,0,0,1,64.55,18c-1.49,1.54-13,7.29-28.1,5.72-11-1.14-22.72-3-27.31-7.45C7.21,14.41,6.51,7.16,6.51,7.16Z"/><path class="cls-3" d="M21.35,28.81s14.85-5.73,26.17,2.07c0,0-2.24,3.75-13.72,3.5C23.51,34.15,21.35,28.81,21.35,28.81Z"/><path class="cls-4" d="M3.4,3.93s5.67,12,31,13.32c26.42,1.35,35.36-6.08,35.36-6.08s-16.58,6.56-34.39,5C21,15,13.33,12.06,3.4,3.93Z"/><path class="cls-4" d="M66.23,8.44A14.59,14.59,0,0,1,72.77,15C74.13,17.6,72.73,7.79,66.23,8.44Z"/><path class="cls-4" d="M7.18,1a14.68,14.68,0,0,0-6.1,7.76S1.17,2.09,7.18,1Z"/><path class="cls-4" d="M6.51,7.16s2,16.37,8.83,22.61c0,0,9.92,9.87,20.46,8.6,7.09-.86,16.24-3.31,22.71-11,4.69-5.6,9-15.39,9-15.39l2.19-.78a50.1,50.1,0,0,1-9.36,17.09C53.88,36,47,40.07,35,40.82c-7.65.49-15.58-3.21-21.72-9.38C7.56,25.66,2.69,10.08,3.4,3.93Z"/><path class="cls-2" d="M12.7,26.54s21.43,9.56,43.46,3.27A34.22,34.22,0,0,1,32.29,38.4,27.9,27.9,0,0,1,12.7,26.54Z"/></svg>