<svg id="Layer_1" data-name="Layer 1" xmlns="http://www.w3.org/2000/svg" viewBox="0 0 138.89 129.97"><defs><style>.cls-1{fill:#ff9f57;stroke:#5e3b2c;}.cls-1,.cls-2{stroke-miterlimit:10;}.cls-2{fill:#7c574f;stroke:#2d1111;}.cls-3{fill:#d7e384;}</style></defs><path class="cls-1" d="M4.57,98.43S7.48,101.94,7,118.09c0,1.12,53.28,2.67,53.32,1.55,0,0,21-17.93,23.78-22.12,2.15-3.25,2.52-6.28-14.41-7.87-21.35-2-15.57,9.9-39.17,14.48C12.88,107.55,4.57,98.43,4.57,98.43Z"/><path class="cls-2" d="M64.45,111.56s66.38-76.11,70.66-85.65-1.28-5.72-9.83,3.71-63.79,77.89-63.79,77.89S55.7,112.78,64.45,111.56Z"/><path class="cls-1" d="M83.55,92.82s.23,5.74-12.34,3.87c-4.66-.7-7.7-3.42-12.27-3.87S46.71,106.1,57,122.17s22.58-7,24.51-11.14C85.93,101.69,86.24,92.33,83.55,92.82Z"/><circle class="cls-3" cx="71.23" cy="107.77" r="2.09"/><circle class="cls-3" cx="59.7" cy="104.57" r="2.87"/><ellipse class="cls-3" cx="64.92" cy="120.11" rx="1.55" ry="2.09" transform="translate(-33.18 25.15) rotate(-17.54)"/></svg>