<svg id="Layer_1" data-name="Layer 1" xmlns="http://www.w3.org/2000/svg" viewBox="0 0 74.32 41.83"><defs><style>.cls-1{fill:#461211;}.cls-2{fill:#fff;}.cls-3{fill:#e55757;}.cls-4{fill:#9b593d;}</style></defs><path class="cls-1" d="M7.69,6.84A46.45,46.45,0,0,0,25.2,36.75s15.26,3.06,23.48-2S64.3,13.35,64.87,12.28,48,22.15,33.13,18.1C20.6,14.7,13.45,13.82,7.69,6.84Z"/><path class="cls-2" d="M7.69,6.84S18.84,17.62,44,15.5c0,0,16.73-1.52,21.47-4.29,0,0-2.88,6.11-4.3,7.67s-14.36,5.12-29.45,4c-11-.84-15.91-3.22-21.12-7C8.39,14.31,7.69,6.84,7.69,6.84Z"/><path class="cls-3" d="M22.13,33.32s14.69-6.13,26.22,1.35c0,0-2.14,3.81-13.62,3.87C24.43,38.6,22.13,33.32,22.13,33.32Z"/><path class="cls-4" d="M6.58,5.41s3.91,10.16,29.23,10.76c26.45.63,30.42-5.8,30.42-5.8S54.6,16.13,36.76,15.08C22.41,14.23,16.74,13.26,6.58,5.41Z"/><path class="cls-4" d="M62.52,8.14a14.54,14.54,0,0,1,6.71,6.41C70.66,17.08,69,7.31,62.52,8.14Z"/><path class="cls-4" d="M9.93,2.64a14.68,14.68,0,0,0-5.88,7.92S4,3.94,9.93,2.64Z"/><path class="cls-4" d="M7.69,6.84s7.76,22.59,16.1,27.93c0,0,5.06,3.93,13.7,3.13,7.12-.65,13.4-3.68,17.61-9.66s10.34-17,10.34-17l.79-.84s-5.71,15.2-13.05,22.49a25.16,25.16,0,0,1-16.39,7.52c-4,.09-7.66.12-14.32-4.57S6,11.58,6.58,5.41Z"/></svg>