<svg id="Layer_1" data-name="Layer 1" xmlns="http://www.w3.org/2000/svg" viewBox="0 0 95.82 128.83"><defs><style>.cls-1{fill:#ff9f57;stroke:#5e3b2c;}.cls-1,.cls-5,.cls-6{stroke-miterlimit:10;}.cls-2{fill:#aa633c;}.cls-3{fill:#9b723d;}.cls-4{fill:#6b3430;}.cls-5{fill:#e55757;stroke:#763317;}.cls-6{fill:#461211;stroke:#37180c;}</style></defs><path class="cls-1" d="M51.66,110.83s-13.9,4.72-24.65-2.74a35.73,35.73,0,0,0-10.5-31.36C2,62.61-.78,59.08,3.25,40.51c1.86-8.55,5-10.78,4.68-17.34C7.41,13.74,17.65,2.68,30.75,10S49.62,7.39,49.62,7.39,58.13-4.1,71,6.29c5.53,4.49,5,14,7.74,21.6,1.73,4.9,12.44,12.63,7.36,31.26C82.63,71.7,70.8,77.22,65.7,82.65,61.4,87.23,55.31,92.49,51.66,110.83Z"/><path class="cls-2" d="M63.07,85s-18,10-40.81-2c0,0,1.68,6.78,17,8.31,7.33.73,14.59,0,18.73-2A15.12,15.12,0,0,0,63.07,85Z"/><path class="cls-3" d="M55.24,71.79a19.28,19.28,0,0,1-18.8.08A27.18,27.18,0,0,0,55.24,71.79Z"/><ellipse class="cls-4" cx="36.44" cy="44.38" rx="0.74" ry="2.9" transform="translate(-19.66 56.66) rotate(-62.95)"/><ellipse class="cls-4" cx="55.31" cy="42.61" rx="2.63" ry="0.74" transform="translate(-10.77 65.16) rotate(-56.46)"/><path class="cls-5" d="M48.85,112A18.12,18.12,0,0,1,57,106.54c4.83-1.3,9.48,2,9.85,9.28.22,4.35-5.74,9.84-9.65,9.45S46,119.35,46,119.35Z"/><path class="cls-5" d="M36.72,109.89A18.17,18.17,0,0,0,28,105.33c-4.93-.81-9.21,3-8.84,10.24.23,4.35,6.72,9.19,10.57,8.41s10.6-7,10.6-7Z"/><circle class="cls-6" cx="42.32" cy="116.02" r="7.68"/></svg>