<svg xmlns="http://www.w3.org/2000/svg" xmlns:xlink="http://www.w3.org/1999/xlink" viewBox="0 0 270.98 639.36"><defs><style>.cls-1,.cls-9{fill:none;}.cls-2{isolation:isolate;}.cls-11,.cls-14,.cls-3{opacity:0.3;}.cls-4,.cls-40{fill:#fbd1b5;}.cls-4{stroke:#cca183;}.cls-15,.cls-17,.cls-26,.cls-28,.cls-30,.cls-38,.cls-4,.cls-5,.cls-9{stroke-miterlimit:10;}.cls-5,.cls-8{fill:#b9c0b0;}.cls-5{stroke:#2c9b59;}.cls-6{fill:#3093e6;}.cls-7{fill:#097cc1;}.cls-9{stroke:#878e6f;}.cls-10,.cls-26,.cls-31,.cls-38{fill:#eeeded;}.cls-11,.cls-17{fill:#717070;}.cls-11,.cls-13,.cls-14,.cls-21,.cls-24,.cls-31,.cls-34,.cls-37,.cls-46{mix-blend-mode:multiply;}.cls-12{fill:#342517;}.cls-13,.cls-14{fill:#644f43;}.cls-13,.cls-21{opacity:0.5;}.cls-15{fill:#a58484;}.cls-15,.cls-26,.cls-28,.cls-30,.cls-38{stroke:#ba9b9b;}.cls-15,.cls-26,.cls-30{stroke-width:2px;}.cls-16{fill:#c2c3c3;}.cls-17{stroke:#5b4343;}.cls-18{fill:#585857;}.cls-19,.cls-21{fill:#7e4f25;}.cls-20{fill:#442a19;}.cls-22{fill:#ead3d3;}.cls-23{fill:#878787;}.cls-25{fill:#b3b2b2;}.cls-27{fill:#dadada;}.cls-28,.cls-30{fill:#f7f5f5;}.cls-29{fill:#a3a3a3;}.cls-32,.cls-34{fill:#afb0b0;}.cls-33{fill:#9f9f9f;}.cls-35,.cls-37{fill:#78c8c1;}.cls-36{fill:#5ebeb6;}.cls-38{stroke-width:0.75px;}.cls-39{clip-path:url(#clip-path);}.cls-41{fill:#eac1a4;}.cls-42{fill:#6b6f70;}.cls-43,.cls-46{fill:#4b5157;}.cls-44{fill:#808588;}.cls-45{fill:#899497;}.cls-46{opacity:0.4;}.cls-47{fill:#cca183;}.cls-48{fill:#db9d8e;}.cls-49{fill:#fff;}.cls-50{fill:#3d2e17;}.cls-51{fill:#2d2b21;}.cls-52{fill:#f2f0e9;}.cls-53{fill:#f4a198;}.cls-54{fill:#60201e;}.cls-55{fill:#fff7f4;}.cls-56{fill:#f58778;}.cls-57{fill:#f97a98;}.cls-58{fill:#aa7959;}</style><clipPath id="clip-path"><path class="cls-1" d="M48.1,347.73s11.73-1.69,15.81-1.3c0,0,4,7.52,9.45,5.46s6.23-5.56,1-12.49S63.28,322,52.69,323.69,48.1,347.73,48.1,347.73Z"/></clipPath></defs><g class="cls-2"><g id="Layer_1" data-name="Layer 1"><ellipse class="cls-3" cx="122.4" cy="592.92" rx="108" ry="29.16"/><path class="cls-4" d="M137.9,168.47c-4.39,1.86-8.18,5.63-12.62,7.34-1.5.59-3.78-.49-5.45-.6a28.91,28.91,0,0,1-4.61-1c-2.15-.5-5.32-3.13-7.4-3.71,0,2.4-3.37,7.16-3.56,9.52s-1.5.95-1.78,3.25c0,0,5,3.73,5,3.73a37.58,37.58,0,0,0,5.46,3.21c2.11,1.1,3.78,2.66,5.82,3.8,3.61,2,7.57-1.12,10.69-2.78,1.95-1,3.83-2.17,5.8-3.19,1.24-.64,3.38-4.39,4.17-5.47C139.22,176.87,138.1,174.17,137.9,168.47Z"/><path class="cls-5" d="M135.34,178.1c-1.63.89-3.27,1.77-5,2.51-2.07.87-4.83,2.61-7.22,2.4a20.07,20.07,0,0,1-7.38-2.62,45.72,45.72,0,0,1-5.41-2.74H105S86.91,187,72.28,192.22L91.87,319.35,143.93,318l11.66-132.35A91.38,91.38,0,0,1,135.34,178.1Z"/><path class="cls-6" d="M136.86,275.6c-.5-5.5-11.93-74.3-12.81-76.83a6.4,6.4,0,0,0-2.31-.79,7.77,7.77,0,0,0-3.69.49,96.6,96.6,0,0,0-2.21,10.45c-.75,4.08-1.31,8.2-1.84,12.31-1,8-6.28,59.66-6.28,67.36,2.32,3.13,10.76,13.8,13.57,13.64,2.18-.12,12.47-12.19,16.83-16.36C137.91,282.44,137.17,279,136.86,275.6Z"/><path class="cls-7" d="M110,190a34.18,34.18,0,0,0,3.59,6.22c1.79,2.36,3.51,4,4.26,4,2.41,0,6,0,6.37-.16,1.69-.57,3-2.47,4.12-4.15.34-.49.67-1,1-1.36a12.4,12.4,0,0,0,1.13-1.87c.19-.37.4-.75.63-1.13a6.07,6.07,0,0,1-.56-2.86c0-.23,0-.46,0-.68a13.74,13.74,0,0,0-2.91-3.08c-1.18.12-2.32.21-3.39.25a23.92,23.92,0,0,1-6.91-.76,23.44,23.44,0,0,0-4.4,3.67c-.47.46-.93.91-1.39,1.34a3.57,3.57,0,0,0-.28.27l-.08.08a.5.5,0,0,1-.13.26C110.82,190.17,110.43,190.11,110,190Z"/><path class="cls-8" d="M99,186c.66.56,1.35,1.16,2,1.78a20.65,20.65,0,0,1,1.7,1.45,65.69,65.69,0,0,1,5.75,6.28c.21.24.42.5.63.76l.1.11a16.85,16.85,0,0,1,1.94-4.41,20.32,20.32,0,0,1,2.38-3l.55-.61c3.23-3.66,6-4.86,7.56-5.25-.39-.13-.78-.27-1.16-.44l-2.23-.94c-.84-.37-1.69-.73-2.54-1.08A56.15,56.15,0,0,1,107,176.2l-.23-.21-.94-.86a29.12,29.12,0,0,0-3.38,4.53c-.23.38-.46.77-.7,1.13l-.31.48A29.2,29.2,0,0,0,99,186Zm25.23-2.68c4.5,2.2,7.89,9.21,9.25,12.46a40.72,40.72,0,0,0,5.23-4.21c1.47-1.38,2.89-2.87,4.07-4.13.23-.25.48-.5.74-.75a9.48,9.48,0,0,0,2.37-3.13c-.8-.82-1.41-1.47-2-2.09-.9-1-1.76-2-2.6-3s-1.87-2.25-2.87-3.32c0,.42.05.84.1,1.24l0,.24-.23.11a34.11,34.11,0,0,0-3.19,1.77c-1,.61-2.06,1.23-3.16,1.76A66.3,66.3,0,0,1,124.24,183.33Z"/><path class="cls-9" d="M99,186c.66.56,1.35,1.16,2,1.78a20.65,20.65,0,0,1,1.7,1.45,65.69,65.69,0,0,1,5.75,6.28c.21.24.42.5.63.76l.1.11a16.85,16.85,0,0,1,1.94-4.41,20.32,20.32,0,0,1,2.38-3l.55-.61c3.23-3.66,6-4.86,7.56-5.25-.39-.13-.78-.27-1.16-.44l-2.23-.94c-.84-.37-1.69-.73-2.54-1.08A56.15,56.15,0,0,1,107,176.2l-.23-.21-.94-.86a29.12,29.12,0,0,0-3.38,4.53c-.23.38-.46.77-.7,1.13l-.31.48A29.2,29.2,0,0,0,99,186Zm25.23-2.68c4.5,2.2,7.89,9.21,9.25,12.46a40.72,40.72,0,0,0,5.23-4.21c1.47-1.38,2.89-2.87,4.07-4.13.23-.25.48-.5.74-.75a9.48,9.48,0,0,0,2.37-3.13c-.8-.82-1.41-1.47-2-2.09-.9-1-1.76-2-2.6-3s-1.87-2.25-2.87-3.32c0,.42.05.84.1,1.24l0,.24-.23.11a34.11,34.11,0,0,0-3.19,1.77c-1,.61-2.06,1.23-3.16,1.76A66.3,66.3,0,0,1,124.24,183.33Z"/><path class="cls-10" d="M126.54,317.73c-1.6-.72-3.49-.54-5.22-.41-2.38.17-4.71.25-7.08.6,0,0-.07.1,0,.11,4,.53,8.15-.26,12.19,0C126.61,318.07,126.73,317.82,126.54,317.73Z"/><path class="cls-10" d="M128.06,318.42a1,1,0,0,0-.73-.42c-.13,0-.23.09-.19.2a1,1,0,0,0,.49.59C127.87,319,128.26,318.66,128.06,318.42Z"/><path class="cls-11" d="M113,352.26c1,10.73,1.7,21.94,7.36,31.57.81-2.47-.17-5.31-.65-7.75-.57-2.87-.65-5.84-1-8.73a180.37,180.37,0,0,1-1.42-19.83,135.13,135.13,0,0,1,2.41-23.83l-6.71.07C110,332.84,112.11,343,113,352.26Z"/><path class="cls-12" d="M109.61,575.55c-.28-2.71-.38-7.74-2.2-10,0-.09-.66,2.22-.71,2.14a1.64,1.64,0,0,0-.39-.36l-.12-.15a.21.21,0,0,0-.25,0,3.1,3.1,0,0,0-1,0c-2,.21-3.81.45-5.79.51-4.13.13-8.24.56-12.36.66-1.87,0-5.13.67-6.79-.35v-.06c0-.13-.16-.15-.27-.09s-.45.1-.38.28a.84.84,0,0,0,.21.35c-.64,3.75-4.61,7.1-7.68,9.62a61.86,61.86,0,0,1-12.55,7.84c-4.27,2-8.94,3.37-13.34,5.17a8.27,8.27,0,0,0-5.6,7.19c-.39,2.66-.51,5.91,2.72,7.35,4.27,1.93,9.21,1.83,13.9,1.62,5-.23,10.11-.43,15.11-.93a52.51,52.51,0,0,0,9-1.66,30.89,30.89,0,0,0,10.12-4.89c2.86-2.16,5-4.83,7.47-7.31s5.66-3,9-4.36c2.3-.95,2.85-2.16,2.79-4.24C110.36,581.09,109.9,578.27,109.61,575.55Z"/><path class="cls-13" d="M76.29,574c4.38.76,8.39,2.84,12.92,2.92,4,.06,7.53-1.53,11.21-2.63,2.26-.67,5.47-1.63,7.72-.43a5,5,0,0,1,1.42,1.08c-.25-2.8-.45-7.3-2.15-9.4,0-.09-.66,2.22-.71,2.14a1.64,1.64,0,0,0-.39-.36l-.12-.15a.21.21,0,0,0-.25,0,3.1,3.1,0,0,0-1,0c-2,.21-3.81.45-5.79.51-4.13.13-8.24.56-12.36.66-1.87,0-5.13.67-6.79-.35v-.06c0-.13-.16-.15-.27-.09s-.45.1-.38.28a.84.84,0,0,0,.21.35A11.48,11.48,0,0,1,76.29,574Z"/><path class="cls-14" d="M107.06,585.3a32.62,32.62,0,0,1-5.54,2.3c-2.78.92-4.25,2.59-6.13,4.43-3.12,3.05-6.51,6-10.82,7.9a60.39,60.39,0,0,1-13.26,3.84,71.84,71.84,0,0,1-15.16.94c-4.39-.15-8.71-.39-12.78-1.92a6.18,6.18,0,0,1-3.21-2.36c0,2.06.55,4.1,2.92,5.16,4.27,1.93,9.21,1.83,13.9,1.62,5-.23,10.11-.43,15.11-.93a52.51,52.51,0,0,0,9-1.66,30.89,30.89,0,0,0,10.12-4.89c2.86-2.16,5-4.83,7.47-7.31s5.66-3,9-4.36c2.3-.95,2.85-2.16,2.79-4.24,0-.3,0-.6,0-.91A16.68,16.68,0,0,1,107.06,585.3Z"/><path class="cls-12" d="M194.25,571.16c-.79-1.27-1.59-2.17-1.63-3.68a14.27,14.27,0,0,1,.75-3.86.11.11,0,0,0-.05-.13c0-.07,0-.14,0-.22a.55.55,0,0,0-.66-.46c-2.65.34-5.16,1.09-7.79,1.53l-8.15,1.4c-2.84.48-5.7.86-8.55,1.27s-5.4,1.18-8.26,1.07c-.36,0-.5.42-.12.5l.33,0c.39,2,.89,4,1.16,6a21,21,0,0,1-.61,7.39c-1.38,5.94-3.79,11.66-4.67,17.7-.6,4.17-.79,9.56,4.23,11.9,5.93,2.76,14.58,2.15,20.56-.07a29.25,29.25,0,0,0,5-2.38c7.64-4.69,8.67-13,8.6-20.29,0-4.5-.27-8.86.55-13.33A5.31,5.31,0,0,0,194.25,571.16Z"/><path class="cls-13" d="M159.8,568.58l.33,0c.39,2,.89,4,1.16,6a15.76,15.76,0,0,1,.12,2,25.83,25.83,0,0,0,10.16,4c5.28.83,9.18-1.15,13.66-3.15,2.12-.94,4.42-1.78,6.44-2.87,1.15-.62,2.14-1.46,3.21-2.18a6.45,6.45,0,0,0-.63-1.31c-.79-1.27-1.59-2.17-1.63-3.68a14.27,14.27,0,0,1,.75-3.86.11.11,0,0,0-.05-.13c0-.07,0-.14,0-.22a.55.55,0,0,0-.66-.46c-2.65.34-5.16,1.09-7.79,1.53l-8.15,1.4c-2.84.48-5.7.86-8.55,1.27s-5.4,1.18-8.26,1.07C159.56,568.07,159.42,568.5,159.8,568.58Z"/><path class="cls-14" d="M194.25,571.16l-.86-1.32c-.3,2.3-.68,4.6-.83,6.93-.31,5-.38,10-1,14.91-.93,7.1-2.59,15.36-11.3,18.63-6.52,2.46-16.52,3.84-22.75-2-1.48-1.4-1.69-3.32-1.76-5.71-.15,3.5.6,7.17,4.51,9,5.93,2.76,14.58,2.15,20.56-.07a29.25,29.25,0,0,0,5-2.38c7.64-4.69,8.67-13,8.6-20.29,0-4.5-.27-8.86.55-13.33A5.31,5.31,0,0,0,194.25,571.16Z"/><path class="cls-15" d="M107,416.58a17.22,17.22,0,0,1,13.13-5.19c8.11.5,15.89,1.33,15.89,1.33V351.54H102.22Z"/><path class="cls-16" d="M106.74,417.47l-4.92-66.28h34.61v61.92l-.41-.05c-.08,0-7.86-.83-15.88-1.32a16.91,16.91,0,0,0-12.81,5.06Zm-4.12-65.59,4.73,63.87a17.51,17.51,0,0,1,12.84-4.7c7,.43,13.78,1.11,15.5,1.28V351.88Z"/><path class="cls-17" d="M66.63,324.18l95.24-.89s16.36,70,17.24,96,1.08,41.09,2.93,43.5,1.69,4.79.25,9.44,1.18,16.57,3.48,30.86,5,38.4,6.41,43.06-.2,8.26,2.88,10.5,2.48,4.22,1.14,6,.41,7-.52,7.66-15.54,7.84-21.41,8.36-10.5-3.36-12.25-3.88-1.34-3.87-3.6-5.51-3.29-2.76-2.06-4.48,1.13-2.93-1.33-12.4-12.48-49.91-14.29-60.59-2.34-23.66-4-26.52-3-4.25-1.38-6.55,2.21-3.56,2.21-5.28-7.06-20-11.75-44.95c-2.84-15.15-7.51-20.87-7.51-20.87s-7.3,50.67-7.27,58.24-2.5,12.17,0,14.47,2.23,4.13,1.13,6,1.37,9.19,2.2,14.69-3.86,54.66-4.69,66.37.55,21.12-.69,22.16-17.5,6.37-20.38,6.2-12-3.22-12.83-4.13-3.71-6.78-2.88-7.58,2.06-1.84,2.33-2.64-4.11-38.69-5.35-47,1.12-34.67-.12-37.54-3.15-4.59-1.64-7.23,1.37-3-.14-11.6-7.14-35.36-8-38.69S51.43,379,54,324.19Z"/><path class="cls-18" d="M119.73,383.7a4.78,4.78,0,0,0,.45-.45c-.41-8.61-1.5-17.1-2.1-25.66-.66-9.5-.35-19-.62-28.57,0-.27-.2-.19-.2,0-.1,9.53-.12,19.13.38,28.64C118.1,366.4,119.12,375,119.73,383.7Z"/><path class="cls-18" d="M119.46,383.7a4.54,4.54,0,0,0,.5-.36c-2.08-7.9-2.57-16-3.21-24.78a268.48,268.48,0,0,1-.64-29.21c0-.38-.28-.3-.32,0-1.42,10.21-.44,21.5.33,31.82C116.64,368.16,116.93,377.81,119.46,383.7Z"/><path class="cls-11" d="M131.91,436.12c3,.2,44.55-4.47,47.61-4.88-.07-3.46-3.38-26.91-3.2-30.35.33-6.51-36.55,3.94-36.53-2.58a436.8,436.8,0,0,0-5.85-74.77l-31.11.32q.67,9.18,1.19,18.36c.49,8.57,1.09,17.17,1.31,25.75a65.7,65.7,0,0,1-1.76,18.14c.46,7.75-46.53,4.74-46.39,12.55.12,6.48,7,29.57,7.35,36.09,2.62.32,46.07,1.24,48.72.76,1.94-17.4,5.74-47.87,5.74-47.87s4.21,5.72,6.78,20.87C127,415.89,130.5,430.17,131.91,436.12Z"/><rect class="cls-19" x="104.82" y="319.53" width="31.24" height="7.59"/><path class="cls-20" d="M136.43,327.47h-32v-8.28h32Zm-31.23-.69h30.49v-6.9H105.2Z"/><path class="cls-21" d="M104.82,319.53v7.6h31.24v-7.6Zm23.88,3.17c-.12,1.31.58,2-.76,2.83-1.54.91-5.1.7-6.76.62-2.81-.15-10.29,1-10-3.22.09-1.37.71-2.52,2.44-2.39l.39,0c2.31-.08,4.57-.23,6.88-.18a33.67,33.67,0,0,1,5.65.21C128,320.78,128.84,321.2,128.7,322.7Z"/><path class="cls-22" d="M125.42,317.22H115c-3.92,0-4.25,2.72-4.25,6.07s.33,6.06,4.25,6.06h10.39c3.92,0,4.13-2.71,4.13-6.06S129.34,317.22,125.42,317.22Zm-1.27,10.18h-7.87c-3,0-3.23-1.84-3.23-4.11s.25-4.11,3.23-4.11h7.87c3,0,3.13,1.84,3.13,4.11S127.12,327.4,124.15,327.4Z"/><path class="cls-23" d="M124.15,327.75h-7.87c-3.6,0-3.6-2.69-3.6-4.46s0-4.46,3.6-4.46h7.87c3.5,0,3.5,2.47,3.5,4.46S127.65,327.75,124.15,327.75Zm-7.87-8.23c-2.43,0-2.86,1.21-2.86,3.77s.43,3.77,2.86,3.77h7.87c2.57,0,2.76-1.43,2.76-3.77s-.19-3.77-2.76-3.77Z"/><g class="cls-24"><path class="cls-25" d="M113.05,323.29s0-.07,0-.11c0,.14-.1.27-.14.4a7.19,7.19,0,0,0,0,3.21,2.77,2.77,0,0,0,2,1.31,21.59,21.59,0,0,0,3.77.36,21.23,21.23,0,0,0,5.74-.4,3.31,3.31,0,0,0,2.82-4c-.06,1.92-.48,3.37-3.12,3.37h-7.87C113.3,327.4,113.05,325.56,113.05,323.29Z"/><path class="cls-25" d="M126.3,319.2a3.14,3.14,0,0,0-1.88-.57,32.32,32.32,0,0,0-4.29-.13,35.28,35.28,0,0,0-4.25.27,4.32,4.32,0,0,0-1.83,1,3.3,3.3,0,0,1,2.23-.63h7.87c2.21,0,2.86,1,3.06,2.48A3.07,3.07,0,0,0,126.3,319.2Z"/></g><path class="cls-26" d="M88.63,425.33h0c-21.06,0-44.5-3.36-44.73-3.39l-.31-.05v-.28c0-.24-.37-23.24-.37-36.52s2-36.31,2-36.54l0-.22,3.47-1.19-.24-1.61a5.08,5.08,0,0,1-2.32.54,7,7,0,0,1-3.18-.82l-.09-.05,0-.1c-5-10-8.19-49.76-7.48-68.53.73-19,13.61-64.87,18.25-76.22,3.6-8.82,10.77-10.31,19.07-12,2.13-.45,4.34-.91,6.55-1.51,10.53-2.89,24-10.17,24.1-10.24l.56-.3v.6c0,.63-2.4.5-2.57.73-.51,1-1.79,8.69-1,15.67.5,4.44,1,10.21,1.45,15.32l2.45,12.19c1.6,19.07,7.85,66.86,8.31,94.22.49,28.84,0,107,0,107.77V423l-.27.07C106.63,424.57,98.67,425.33,88.63,425.33Z"/><path class="cls-26" d="M48.78,385.78h0c-1.62,0-3.38-.07-5.22-.23l-.35,0v-.43c0-13.3,2-36.31,2-36.54l0-.22,2.69-.92c.63-.15,1.25-.3,1.87-.41a58.17,58.17,0,0,1,8.1-.72l1.42-.06a104.3,104.3,0,0,1,10.46,0h.34l0,.32c.15,4.12.29,8.56.26,13.06v1.33c0,5.12-.05,10.94-2.28,15.82C65.41,382.74,58.89,385.78,48.78,385.78Z"/><path class="cls-27" d="M48.79,345l.28,1.81a27.89,27.89,0,0,1,3.07-.55c3-.3,5.93-.43,8.9-.53s5.83-.09,8.73.05c0-1.25-.1-2.51-.16-3.77h0a43.63,43.63,0,0,0-2.5-4.19,3.45,3.45,0,0,1-.67-1.65c0-.88.42-2.07-.13-2.84a25.85,25.85,0,0,0-4.47-4.46c-1.83-1.62-4-3.33-6.76-2.54-3.89,1.14-7.32,4.88-9.48,8-1.75,2.51-3.48,6.4-2.86,9.67.15.38.31.73.46,1C43.21,345,46.19,346.68,48.79,345Z"/><path class="cls-27" d="M48.76,347.2l-.26-1.67a5,5,0,0,1-2.31.54h0a7,7,0,0,1-3.18-.82l-.09-.05,0-.1c-.17-.32-.32-.67-.48-1.05-.65-3.39,1.07-7.37,2.9-10S50.59,327.24,55,326a5.4,5.4,0,0,1,1.48-.21c2.25,0,4.09,1.46,5.65,2.83l.77.67a22.1,22.1,0,0,1,3.76,3.85,3.28,3.28,0,0,1,.26,2.35c0,.24-.06.48-.07.69a2.63,2.63,0,0,0,.51,1.3l.1.18c.3.5.62,1,.94,1.47A18.4,18.4,0,0,1,70,341.84l0,.16.16,4.11-.4,0c-2.72-.13-5.61-.15-8.7-.06-2.63.09-5.74.21-8.87.54a25.11,25.11,0,0,0-3,.54Zm.31-2.85.31,2a22.66,22.66,0,0,1,2.72-.47c3.15-.32,6.28-.45,8.92-.54,3-.09,5.74-.07,8.36,0L69.25,342a19.11,19.11,0,0,0-1.51-2.59c-.32-.49-.65-1-.95-1.51l-.1-.16a3.29,3.29,0,0,1-.61-1.66c0-.24,0-.5.08-.76a2.85,2.85,0,0,0-.14-1.88,21.06,21.06,0,0,0-3.65-3.72l-.77-.68c-1.45-1.28-3.17-2.64-5.14-2.64a4.62,4.62,0,0,0-1.26.18c-4.32,1.26-7.93,5.9-9.28,7.83-1.74,2.5-3.4,6.29-2.81,9.43l.39.85a6.35,6.35,0,0,0,2.69.66h0a4.26,4.26,0,0,0,2.38-.7Z"/><path class="cls-28" d="M87.14,203.53c.31.12.63.24,1,.34,1.71.56,7.7,5.62,8.37,7.34a.68.68,0,0,1,0,.64c-.51.79-2.2,1.83-4,2.92s-4,2.42-4.06,3.06a.1.1,0,0,0,0,.09c5.13,5.25,15.56,31.25,17.76,37.43.83,2.32,1.84,5.2,2.86,8.22-1.57-22-3.38-43.58-4.17-53l-.25-3c-.43-5.1-1-10.12-1.49-14.56-1-8.67-1.46-13.24-.86-14.43a4.31,4.31,0,0,1,.27-.43c.35-.52,1-1.52,1.38-2.17a6.38,6.38,0,0,0-2,.76l-1.54.82c-2.19,1.13-5.85,3-6,4.06-.36,1.07-.74,2.08-1.11,3.05-.44,1.18-.91,2.4-1.3,3.62-.62,1.92-1.21,3.88-1.79,5.78l-.87,2.86c-.56,1.81-1.06,3.43-1.62,5.08C87.42,202.74,87.26,203.22,87.14,203.53Z"/><path class="cls-25" d="M63.69,199.3c-.06-.14-.29-.05-.23.09,1,2.44,2.09,4.85,3.07,7.31s1.74,5,2.77,7.41c.06.13.28.08.26-.06C68.74,209,66,204,63.69,199.3Z"/><path class="cls-29" d="M79.43,308.8c-.12-.36-.24-.73-.36-1.08-1.39-5.05-2.27-10.27-4.2-15.16-.05-.13-.26,0-.22.08a82.11,82.11,0,0,1,2.29,8.75A87,87,0,0,0,71,287.48c-.07-.11-.26,0-.22.11,3,7.29,5.74,14.58,8.25,22C81.5,316.88,84,324.14,87.58,331c0,.08.19,0,.15-.08C84.5,323.7,81.93,316.26,79.43,308.8Z"/><path class="cls-29" d="M70.84,217.5c0-.14-.22-.1-.22,0,.07,5.07-.31,10.06-.63,15.11-.33,5.31-.25,10.65-.49,16-.42,9.5-1.75,18.94-2.36,28.43-.25-.25-.52-.5-.79-.73-4.06-4.78-8.86-8.91-15.28-10.66-.12,0-.23.15-.1.19a25.88,25.88,0,0,1,8.57,4.71,50.1,50.1,0,0,1,3.74,3.53,32.28,32.28,0,0,0-7.68-3.36c-4.13-1.17-8.49-.61-11.52,2.38-.06.07,0,.17.1.11,3.79-3,8.14-3.16,12.67-1.6,3.56,1.2,6.3,3.39,9.38,5.26l.08.06s0,0,.06,0l.75.44c-.06.94-.12,1.88-.16,2.82-.48,10.61-.49,21.3-.55,31.92,0,8.05,2.87,16.87-.42,24.63a.3.3,0,0,0,.56.23c1.74-3.34,1.76-7.25,1.62-10.87-.17-4.1-.84-8.17-.92-12.27-.1-5.35.14-10.72.25-16.07s.06-10.88.26-16.32c.38-10.78,1.94-21.48,2.36-32.26.2-5.32.15-10.65.39-16S71.69,222.69,70.84,217.5Z"/><path class="cls-25" d="M65.23,354.25a69.37,69.37,0,0,1-3.18,9.44,39.07,39.07,0,0,1-5.79,8.88c-.17.21.11.41.31.23,5.3-4.57,7.73-12.1,8.88-18.53C65.48,354.13,65.26,354.11,65.23,354.25Z"/><path class="cls-30" d="M142,178.7s4.41,1.48,2.67,9.21-13.51,70.24-14.52,79.39-1.34,144.14,1.64,155.39c0,0,29.5,1.15,55.28-6.66,0,0-5.45-59.25-10.91-84s-11.76-26.13-11.52-37.16,6.57-40.45,6.57-40.45,4.95,34,21.32,31.23,34.95-37.2,40.16-51c0,0,.25-27.1-25.78-24.8l-11.16,25.26s-6.2-23.54-8.55-31.35-5.09-8-11.53-10.56S142,178.7,142,178.7Z"/><path class="cls-31" d="M140.52,420.34c-5.74-3.32-6.73-10.49-7.63-16.2-1.07-6.8-2-13.62-2.93-20.45.32,20,.9,35.49,1.83,39,0,0,6,.23,14.92-.23A19.32,19.32,0,0,1,140.52,420.34Z"/><path class="cls-26" d="M151,347.81c0,.11,0,.21,0,.32.06,1.58.19,3.31.42,5.41.17,1.56.3,3.14.43,4.67.15,1.72.29,3.49.49,5.22.7,6.11,1.57,13.72,8,17.36a22.61,22.61,0,0,0,11,3,16.9,16.9,0,0,0,7.25-1.56,24.19,24.19,0,0,0,4.26-2.64c-1.62-13.85-3.19-25.5-4.66-34.61-2,.3-4,.39-6,.49-1.4.06-2.72.12-4,.25s-2.73.26-4.11.39c-3.51.32-7.14.64-10.61,1.25C152.69,347.49,151.86,347.65,151,347.81Z"/><g class="cls-24"><path class="cls-32" d="M207.91,213.18a40.27,40.27,0,0,0,2.6,6.45,26.64,26.64,0,0,0,6.09,8.58c4.61,4.06,10.16,5.68,16.09,6.28,0-2-.81-26.76-25.61-24.68A26,26,0,0,0,207.91,213.18Z"/><path class="cls-33" d="M233.07,234.87l-.42,0c-7-.7-12.16-2.72-16.31-6.37a27.27,27.27,0,0,1-6.17-8.69,40.63,40.63,0,0,1-2.62-6.49l-.06-.24a25,25,0,0,1-.79-3.18l0-.36.39,0c10.71-.9,18.64,3.18,22.86,11.74a33,33,0,0,1,3.16,13.27ZM207.5,210.12c.18,1,.47,1.94.7,2.74l.07.23a39.57,39.57,0,0,0,2.58,6.39,26.5,26.5,0,0,0,6,8.48c3.94,3.47,8.87,5.42,15.46,6.14a32.54,32.54,0,0,0-3.09-12.6C225.14,213.22,217.84,209.38,207.5,210.12Z"/></g><path class="cls-34" d="M228.68,228.9c-2.19-4-4.89-8.14-8.75-11-3.51-2.58-7.66-3.59-11.9-4.39a41.14,41.14,0,0,0,2.48,6.09,26.64,26.64,0,0,0,6.09,8.58c4.26,3.75,9.3,5.41,14.71,6.11C230.52,232.48,229.65,230.67,228.68,228.9Z"/><path class="cls-35" d="M226.88,219.89a14.49,14.49,0,0,0-2.38-5.24A20.43,20.43,0,0,0,212,209.76c-.83,1.43-1.87,2.81-2.72,4.15-.25.39-.5.78-.74,1.17a44.23,44.23,0,0,0,2,4.55,26.64,26.64,0,0,0,6.09,8.58,22.93,22.93,0,0,0,6,3.8c.68-1.25,1.36-2.51,2-3.79.84-1.66,1.76-3.28,2.71-4.87A19,19,0,0,0,226.88,219.89Z"/><path class="cls-36" d="M222.76,232.47l-.33-.15a23.25,23.25,0,0,1-6.09-3.86,27.27,27.27,0,0,1-6.17-8.69,44,44,0,0,1-2-4.58l0-.15.82-1.31c.34-.54.72-1.09,1.1-1.65.55-.81,1.12-1.64,1.61-2.49l.11-.19.24,0a21,21,0,0,1,12.73,5l.06.07a15.13,15.13,0,0,1,2.42,5.34,19.41,19.41,0,0,1,.45,3.53v.1l-.05.08c-1,1.74-1.94,3.33-2.71,4.85-.69,1.36-1.4,2.69-2,3.8ZM209,215.12a42.23,42.23,0,0,0,1.9,4.36,26.5,26.5,0,0,0,6,8.48,22.51,22.51,0,0,0,5.57,3.59c.57-1,1.21-2.24,1.84-3.47.77-1.52,1.64-3.09,2.68-4.81a18.86,18.86,0,0,0-.43-3.31,14.39,14.39,0,0,0-2.29-5.09,20.13,20.13,0,0,0-12-4.75c-.47.8-1,1.58-1.52,2.33-.38.55-.75,1.09-1.09,1.63Z"/><path class="cls-37" d="M227.31,223.35a19,19,0,0,0-.43-3.46,14.49,14.49,0,0,0-2.38-5.24A20.43,20.43,0,0,0,212,209.76c-.52.89-1.12,1.77-1.71,2.63a5.49,5.49,0,0,0,.77,3.55c1.33,2.12,3.55,3.62,5.64,5.05s4.61,3.59,7.53,3.54"/><path class="cls-38" d="M129.89,272.53l.06-1.63c.06-1.77.13-3,.2-3.6.95-8.68,10.81-71.57,12.62-79.64,1.64-7.28-.85-8.58-.87-8.6l-.57-.28.54-.32a2.42,2.42,0,0,1,1.14-.22,5.22,5.22,0,0,1,1.35.19c5.1,1.27,7.79,2.36,8.35,4.75,1,3.08,1.94,6.24,2.85,9.31.54,1.83,1.19,3.67,1.82,5.45a68.63,68.63,0,0,1,2.71,8.92l.07.33-.36.07a23.65,23.65,0,0,0-6.35,2.57,32.42,32.42,0,0,1-4.74,2.17s-.05,0-.06.05c.51.56,1,1.07,1.49,1.56a38.48,38.48,0,0,1,6.31,7.62l.16.28-.29.17c-2.8,1.63-4.32,5.07-5.55,7.83l-.2.44c-.67,1.51-1.32,3-2,4.51-1.37,3.16-2.8,6.43-4.35,9.62-4.86,10-9.32,18.8-13.6,27Z"/><path class="cls-29" d="M178,202.66a104.22,104.22,0,0,0-6.93,10.6c-2.1,3.46-5,6.65-6,10.55,0,.12.15.17.2.05.3-.67.65-1.33,1-2a189.94,189.94,0,0,1,3,22.13c.46,7.53.48,15,.75,22.59,0,.1.16.07.16,0,.27-7.53.13-15.09-.32-22.62s-1.16-15.2-3.38-22.35h0c1.49-2.57,3.36-4.95,4.83-7.53,2.18-3.84,4.67-7.52,6.86-11.34C178.13,202.66,178,202.6,178,202.66Z"/><path class="cls-25" d="M196.77,233.48s0,0-.06,0a38.91,38.91,0,0,0-3.68,7.88c-2,2.82-4.22,5.23-5.62,8.41a21.2,21.2,0,0,0-1.76,9.69c0,.25.35.16.37,0a29.62,29.62,0,0,1,2.12-10c1.13-2.59,3.08-4.68,4.56-7.06-.22.71-.43,1.43-.62,2.14-1,3.75-1.53,8-.49,11.78.06.21.41.1.39-.1a33.86,33.86,0,0,1,.65-11.61A57.49,57.49,0,0,1,196.77,233.48Z"/><g class="cls-39"><path class="cls-40" d="M47.38,332.74c.25,1.32,2.77,20,3.19,27.15s3.21,12.33,7.9,13S61,345.45,63,344.57s4.81,7.42,9.33,5.84-5.5-12.77-6.83-15.18-4.48-3.48-4.62-5.88-3.48-3.73-6.41-2.84S47.12,331.4,47.38,332.74Z"/><path class="cls-4" d="M58.63,373.23l-.22,0c-4.68-.64-7.74-5.62-8.2-13.3-.43-7.06-3-25.83-3.2-27.11-.3-1.57,4.27-5.71,7.29-6.62a7,7,0,0,1,2-.29c2.68,0,4.8,1.48,4.92,3.44.06,1.24,1,2.1,2.18,3.09a10,10,0,0,1,2.4,2.65c.29.52,1,1.54,1.92,2.71,2.72,3.64,6.85,9.16,6,11.72a1.92,1.92,0,0,1-1.29,1.23,3.79,3.79,0,0,1-1.27.23c-2.36,0-4.18-2.23-5.66-4-.84-1-1.71-2.08-2.24-2.08a.27.27,0,0,0-.13,0c-.55.46-.7,5.39-.83,9.74C62,365.51,61.49,373.23,58.63,373.23Z"/><path class="cls-41" d="M66.06,346.62c-1.29-2.63-3.46-5.68-7-4.55-.09,0-.07.17,0,.15a4.69,4.69,0,0,1,4.78,2.15,7.14,7.14,0,0,0-4.35-.63c-.08,0-.11.14,0,.14a7.85,7.85,0,0,1,5.2,1.81.19.19,0,0,0,.19,0c.27.36.56.72.87,1.06C65.87,346.89,66.13,346.78,66.06,346.62Z"/></g><path class="cls-42" d="M93.38,297c-1.93-.11-3.37-.65-4.12-1.57-2-2.39-4.65-9.2-4.77-9.49l1.62-.55c0,.07,2.73,6.88,4.52,9.07,1.51,1.84,9,1.36,17.34-3.59l.93,1.34C102.93,295.71,97.2,297.18,93.38,297Z"/><path class="cls-43" d="M106.18,289.7a6.78,6.78,0,0,0,1.92,4.76s1.53,1.47,7.06-3.11a6,6,0,0,0-1.58-4S107.43,287.49,106.18,289.7Z"/><path class="cls-44" d="M91.93,296.76c1.88-.34,3.24-1.05,3.86-2,1.61-2.59,3.36-9.68,3.44-10l-1.68-.36c0,.07-1.78,7.15-3.25,9.53-1.24,2-8.75,2.41-17.68-1.53l-.75,1.44C82.28,296.65,88.16,297.43,91.93,296.76Z"/><path class="cls-43" d="M78.23,291.06A6.73,6.73,0,0,1,77,296s-1.32,1.64-7.42-2.26a5.9,5.9,0,0,1,1-4.12S76.68,289,78.23,291.06Z"/><path class="cls-43" d="M91.42,182.83a45.54,45.54,0,0,0,4.81-4.19c-5.39,1.87-10.11,4.6-13.57,9.34-7.07,9.68-4.62,24-3,33.42.25,1.49.49,2.87.68,4.11.65,4.54,1.16,7.36,1.52,9.1l-.5.2c-4.13,1.88-6.73,7.65-6.95,15.41-.29,10,9.43,33.61,9.84,34.61l3.22-1.14c-.1-.24-9.88-24-9.61-33.39.18-6.36,1.55-10.58,4.42-11.9,1.75-.79,5.12-.33,7.77,1.46,8.35,5.62,9.7,33.59,6.66,43.62l3.33.87c3-9.85,2.09-40.63-8.51-47.77a13,13,0,0,0-6.25-2.43c-.33-1.61-.85-4.38-1.53-9.07-.19-1.26-.42-2.67-.69-4.18-1.62-9.49-3.84-22.49,2.47-31.13a18.53,18.53,0,0,1,2.65-2.92"/><path class="cls-43" d="M83.6,225.05s1.44,8.68,1.59,9.47.4,1.1,1.58,1.5c0,0,.56,0,.31.7a10,10,0,0,0-.57,2.8c0,.7.16,1-.4.94s-2.69-.87-4.22.3c-.53.4-.65.32-1-.43a25.17,25.17,0,0,1-1.3-3.07c-.09-.44.66-.53,1.05-.75s.76-.29.52-1.72-1.46-8.58-1.57-9.33.75-.89,1.68-1.16S83.51,224.35,83.6,225.05Z"/><path class="cls-45" d="M82.46,235.77a.13.13,0,0,0,0-.12c0-.2.81-.26.86,0,0,.08,0,.14,0,.2S82.34,235.91,82.46,235.77Z"/><path class="cls-43" d="M157.72,274.1c-2.06,6-9,9.41-15.55,7.5s-10.16-8.36-8.1-14.4,9-9.41,15.55-7.5S159.78,268.05,157.72,274.1Z"/><path class="cls-46" d="M156.3,264.44a12.49,12.49,0,0,1,.7,5.17c-.24,4.08-1.95,7.37-6.12,9.14-4.51,1.91-10.23.61-14-2.09a8.81,8.81,0,0,1-3.23-4.33,11.76,11.76,0,0,0,8.52,9.27c6.53,1.91,13.49-1.45,15.55-7.5A10.72,10.72,0,0,0,156.3,264.44Z"/><path class="cls-45" d="M149.25,271.37a3.76,3.76,0,0,1-4.64,2.23,3.38,3.38,0,0,1-2.41-4.29,3.76,3.76,0,0,1,4.63-2.23A3.38,3.38,0,0,1,149.25,271.37Z"/><path class="cls-43" d="M156.9,183c-.5-.66-3.15-1.38-3.87-.92s-.37.58,1.27,2.6c6.68,8.2-3.8,61.1-8.22,80a1.22,1.22,0,0,0,0,.63.46.46,0,0,1,.26-.15,3.39,3.39,0,0,1,2.54.72,1.67,1.67,0,0,0,.29-.58c0-.17,4-17.39,7-35.7C157.7,220.31,162.33,190.26,156.9,183Z"/><path class="cls-4" d="M227,217.05c9.18-2.13,13.19-10.9,13.19-10.9,14.91-3.85,15.94-6.38,15.9-8.64s-2.67-1.77-2.67-1.77L240.69,199s12.1-10.38,14.14-16.19-1.74-5.36-6.58-.86-9.46,8.53-9.46,8.53-1.54,0-.43-2.16,9.09-16.42,9.09-16.42,1.8-2.64-.54-4.41-5.79,1.8-15.88,17.39c0,0-.69-1.93,2.18-12.49,0,0,2-8.17-1.81-10.56,0,0-3,0-8.2,20.24,0,0-3,9.66-5.93,11.59,0,0-.45.86-2.4-3s-5.48-6.94-9.68-4.54c0,0-2.25.74.9,3.9s3.8,5.93,4.66,11,.86,5.08,3.55,10l-3.23,4.92s7.8,8.53,13.17,8.59l2.26-6.67"/><path class="cls-40" d="M224.76,181.46s17.58,5.9,16.3,19.09"/><path class="cls-47" d="M224.76,181.46A27.69,27.69,0,0,1,231,184a25.05,25.05,0,0,1,5.51,4.06,16.55,16.55,0,0,1,3.86,5.69,14.55,14.55,0,0,1,.8,3.36,13.32,13.32,0,0,1-.15,3.4,15.22,15.22,0,0,0-1.36-6.46,18.67,18.67,0,0,0-3.85-5.28,32.43,32.43,0,0,0-5.2-4.11c-.93-.61-1.9-1.18-2.88-1.71S225.78,181.94,224.76,181.46Z"/><path class="cls-4" d="M216.41,193.17s6.71,3.59,7.66,10.29"/><path class="cls-4" d="M184.25,130.22c-4.71,8.05-13.27,10.8-19.66,7.05s-3.5-8.19,1.21-16.23,4.81-7.07,11.74-9.69C192.72,105.61,189,122.18,184.25,130.22Z"/><path class="cls-48" d="M179.71,115.17a3.53,3.53,0,0,1,3.1.56c1.1,1,1.12,2.66.87,4.1A23.93,23.93,0,0,1,176.19,133a6,6,0,0,1-2.05,1.41,2.3,2.3,0,0,1-2.34-.43,2.61,2.61,0,0,1-.31-2.65c.81-2.24,3-3.58,4.88-5.08a4.51,4.51,0,0,0,1.28-1.44,1.8,1.8,0,0,0-.07-1.85,2.38,2.38,0,0,0-1.31-.73,12.77,12.77,0,0,0-3.08-.29c-.31-1.56,1.08-2.91,2.05-3.91A9.41,9.41,0,0,1,179.71,115.17Z"/><path class="cls-4" d="M62.31,123.25c3.14,8.49,10.09,12.13,15.9,9.08s3.83-7.77.69-16.26S75.57,108.54,70,105.2C57.74,97.89,59.17,114.76,62.31,123.25Z"/><path class="cls-48" d="M67.75,108.77a2.65,2.65,0,0,0-2.69.22c-1,.85-1.22,2.53-1.17,4a25.74,25.74,0,0,0,5,13.88,5.2,5.2,0,0,0,1.59,1.61,1.7,1.7,0,0,0,2-.17,2.93,2.93,0,0,0,.54-2.6c-.44-2.32-2.18-3.88-3.59-5.57a4.51,4.51,0,0,1-.93-1.57,2,2,0,0,1,.26-1.82,1.9,1.9,0,0,1,1.18-.6,9.34,9.34,0,0,1,2.64,0c.43-1.53-.61-3-1.33-4.11A8.11,8.11,0,0,0,67.75,108.77Z"/><path class="cls-4" d="M178.75,96c2.87-30.92-12.39-52.47-47.55-54.9C97.08,38.7,76,55,73.16,85.94c-1.33,14.29.18,39.26.22,40,2.33,44.93,47.32,51.34,49.34,51,7.08-1.29,38.59.18,49.21-44.17C172.11,132,177.43,110.25,178.75,96Z"/><path class="cls-12" d="M110,92.48c-3.86-1.26-17.69-2-21.57,6.15,0,0,11.23-3.59,20.62-1.71C109,96.92,112,93.11,110,92.48Z"/><path class="cls-12" d="M139.46,92.78c4-.88,17.81-.33,20.89,8.18,0,0-10.83-4.64-20.36-3.67C140,97.29,137.46,93.23,139.46,92.78Z"/><path class="cls-48" d="M90.83,71.17s2,4.75,24,8a62.45,62.45,0,0,0,30.88-3.32l7.81-2.93s10-10.73,14.39,21.46l6.31,27.74L175,64.39,94.7,51.63,81.45,63.79,71.81,79.22s.34,25,1,35.89l5.88-23.94S87.66,90.43,90.83,71.17Z"/><path class="cls-12" d="M166.91,71.9l.05,3.93,7.24,46.25s4.73-10.18,6.44-15.89c0,0,3.35-14.71,1.6-25.4a41.54,41.54,0,0,0,.27,8.46s8.55-27.55-10.71-47.88c0,0,1.53,6.77,9.09,11.43,0,0-10.43-31.29-40.58-34.88-15.77-1.88-38.83-.4-47.14,14.95,0,0-12.93-3.41-23.25,20.39,0,0-2.79,7,12.56-11.87,0,0-10.23,2.35-15.81,25.46-5.28,21.83-.53,34.61,5.55,50.67,0,0,.18-18.12,5.93-31.23l.25,2.93s5.36,0,11.21-22.44c0,0-2.29,3.54,13.57,8a100.53,100.53,0,0,0,55.3-.42Z"/><ellipse class="cls-49" cx="145.41" cy="117.05" rx="10.69" ry="10.26" transform="translate(20.24 255.54) rotate(-86.73)"/><path class="cls-50" d="M155.68,117.64a11,11,0,0,1-3.3,7.39,10.34,10.34,0,0,1-7.6,3.06,10.45,10.45,0,0,1-7.56-3.61,11.36,11.36,0,0,1,.9-15.73,10.32,10.32,0,0,1,15.13,1.17A11.05,11.05,0,0,1,155.68,117.64Zm-.07,0a10.87,10.87,0,0,0-2.5-7.6,9.89,9.89,0,0,0-14.54-.82,10.95,10.95,0,0,0-.85,14.84,9.91,9.91,0,0,0,14.54.85A11,11,0,0,0,155.61,117.64Z"/><ellipse class="cls-51" cx="145.43" cy="116.6" rx="6.65" ry="6.38" transform="translate(20.72 255.14) rotate(-86.73)"/><ellipse class="cls-52" cx="147.94" cy="113.49" rx="1.93" ry="1.85" transform="translate(26.19 254.71) rotate(-86.73)"/><ellipse class="cls-49" cx="103.11" cy="114.5" rx="10.68" ry="10.26" transform="translate(-17.08 210.9) rotate(-86.73)"/><path class="cls-50" d="M113.39,115.08a11,11,0,0,1-3.31,7.39,10.32,10.32,0,0,1-15.15-.56,11.31,11.31,0,0,1,.9-15.71A10.31,10.31,0,0,1,111,107.37,11,11,0,0,1,113.39,115.08Zm-.08,0a10.87,10.87,0,0,0-2.5-7.6,9.9,9.9,0,0,0-14.54-.81,10.93,10.93,0,0,0-.84,14.82,9.89,9.89,0,0,0,14.53.85A10.87,10.87,0,0,0,113.31,115.08Z"/><ellipse class="cls-51" cx="103.14" cy="114.04" rx="6.64" ry="6.38" transform="translate(-16.61 210.5) rotate(-86.73)"/><ellipse class="cls-52" cx="105.96" cy="111.57" rx="1.93" ry="1.85" transform="translate(-11.48 211) rotate(-86.73)"/><path class="cls-53" d="M104.39,144s8.07,17.45,19.06,18.18c12.41.81,18.47-17.56,18.47-17.56S123.65,150.44,104.39,144Z"/><path class="cls-54" d="M106.38,145.21s8.29,13,19.29,12.31c9.07-.57,14-12.74,14-12.74S125.63,151.7,106.38,145.21Z"/><path class="cls-55" d="M109.39,145.38s4,8.65,17.71,7c0,0,7.52-.42,9.85-6C137,146.39,121.75,150.93,109.39,145.38Z"/><path class="cls-56" d="M101.6,143a1.81,1.81,0,0,0,.53.36c8.54,4.09,29.36,10.12,41.15-1.42,0,0-5.44,4.84-17.07,5.47S101.6,143,101.6,143Z"/><path class="cls-57" d="M117.34,155.54a8,8,0,0,1,6.45-1s3-1.91,8,.67A12.37,12.37,0,0,1,117.34,155.54Z"/><path class="cls-12" d="M123.45,135.42S134.6,146,120,145.67c-6.06-.15-17.19-1.47-17.19-1.47l1.1,3.3-2.17-3.05a3.28,3.28,0,0,1,2.68-5.18h0c13.57-4,16-5.31,19.06-3.85Z"/><path class="cls-12" d="M123.77,135.24s-9.47,10.43,3.33,10.24c5.81-.08,16.48-1.46,16.48-1.46l-1.05,3.29,2.18-3.19a3.23,3.23,0,0,0-2.67-5h0c-6.89-1.83-11.64-3.47-18.27-3.84Z"/><path class="cls-40" d="M115.65,130.7a16.43,16.43,0,0,0,6.46,4.36c3.81,1.27,9.75-3.43,9.75-3.43"/><path class="cls-58" d="M115.65,130.7a24.46,24.46,0,0,0,3.76,2.63,15.6,15.6,0,0,0,2,1,5.4,5.4,0,0,0,2.06.47,7.54,7.54,0,0,0,2.14-.31,15.29,15.29,0,0,0,2.12-.75,39.62,39.62,0,0,0,4.11-2.08,16.63,16.63,0,0,1-3.77,2.78,9.8,9.8,0,0,1-4.61,1.36,6,6,0,0,1-2.41-.6A12.52,12.52,0,0,1,119,134,13.39,13.39,0,0,1,115.65,130.7Z"/><path class="cls-38" d="M66.76,317.85,68,334.14c-19.54,3.13-25,11.11-25,11.11s-2.76-5.37-4-19.74"/></g></g></svg>