<svg id="Layer_1" data-name="Layer 1" xmlns="http://www.w3.org/2000/svg" viewBox="0 0 160 95.07"><defs><style>.cls-1{fill:#ddc63e;}.cls-2{fill:#6f631f;}.cls-3{fill:#ffe94d;}.cls-4{fill:#fff294;}.cls-5{fill:#1ca0c9;}.cls-6{fill:#12472b;}.cls-7{fill:#71dbf4;}.cls-8{fill:#55b987;}.cls-9{fill:#1c9ec6;}.cls-10{fill:#4accff;}.cls-11{fill:#4f5d19;}.cls-12{fill:none;stroke:#3c5118;stroke-miterlimit:10;stroke-width:0.25px;}.cls-13{fill:#a1e9ff;}.cls-14{fill:#dbdddd;}.cls-15{fill:#fff;}.cls-16{fill:#009ce5;}.cls-17{fill:#00bdff;}.cls-18{fill:#0065e5;}</style></defs><path class="cls-1" d="M87.58,69.43S79.87,79.91,71.17,83.64c-1.87.81-7.32-7.71-4.16-14.75C72.93,69.22,87.58,69.43,87.58,69.43Z"/><path class="cls-2" d="M69,82.68C66.73,80,64.52,74,66.84,68.81l0-.12H67c5.85.33,20.42.54,20.56.55H88l-.22.3c-.07.1-7.84,10.56-16.49,14.26l-.09,0h0C70.59,84,69.84,83.6,69,82.68Zm-1.91-13.6c-2.16,5,0,10.79,2.2,13.35.68.78,1.32,1.17,1.71,1.06h0l0,0c7.74-3.32,14.78-12.12,16.11-13.85C84.89,69.58,72.53,69.38,67.13,69.08Z"/><path class="cls-2" d="M68.4,81.54c.1-.06,10.21-6.1,16.14-12l-.27-.27c-5.9,5.91-16,11.92-16.06,12Z"/><path class="cls-2" d="M66.75,77.84c.09,0,8.73-3.88,13.77-8.39l-.25-.29c-5,4.48-13.59,8.29-13.67,8.33Z"/><path class="cls-2" d="M66.11,73.83a37.07,37.07,0,0,0,8.46-4.46l-.23-.3A37.56,37.56,0,0,1,66,73.48Z"/><path class="cls-1" d="M63.9,68.71s-6.1,8.1-15.78,10.74c-1.5.44-2.43-.57-3.49-2.82-1.5-3.21-3.11-7.43,1.86-9.82C53,65,63.9,68.71,63.9,68.71Z"/><path class="cls-2" d="M48.17,79.63c-1.71.5-2.72-.81-3.71-2.92C43.24,74.1,41,69.25,46.41,66.64h0c6.45-1.79,17.41,1.87,17.52,1.9l.25.09-.16.21c0,.08-6.06,7.93-15.43,10.68h0ZM46.56,67c-4.69,2.26-3.37,6.12-1.76,9.56,1.1,2.35,2,3.09,3.27,2.72l.44-.13h0c8.39-2.46,14.05-9.07,15.08-10.33C61.9,68.27,52.35,65.39,46.56,67Z"/><path class="cls-2" d="M45.15,77.82c.2-.06,10.33-3.07,16.9-9.57L61.79,68C55.28,74.42,45.24,77.4,45,77.46h0l.1.36Z"/><path class="cls-2" d="M44.41,74.63a46,46,0,0,0,14.39-7.2l-.23-.3a45.87,45.87,0,0,1-14.84,7.3l.09.36Z"/><path class="cls-2" d="M43.21,71.65c.06,0,6.85-2,11.12-5l-.21-.32c-4.22,2.92-10.95,4.91-11,4.93Z"/><path class="cls-1" d="M35.07,49.72S21,42.13,10.6,42c-4.19,0-4.3,5.07.33,10.55s9.68,7.9,9.54,14.17C20.3,74.68,17.14,78.24,19.24,85s3.44,6.36,7.12,4.1S38,75.54,40,69.12C35.37,53.44,35.07,49.72,35.07,49.72Z"/><path class="cls-3" d="M10.6,42c10.42.1,24.47,7.69,24.47,7.69s.25,3,3.63,15c-4.28.91-8.65-.65-12.43-2.86-5.36-3.2-10.47-6-15.49-9.46C6.31,47,6.46,42.08,10.6,42Z"/><path class="cls-4" d="M9.14,42.31A3.84,3.84,0,0,1,10.6,42c10.42.1,24.47,7.69,24.47,7.69a20.26,20.26,0,0,0,.34,2C31.49,49.06,16,41.62,9.14,42.31Z"/><path class="cls-2" d="M19.06,85c-1.28-4.1-.63-7.05.12-10.45a38.88,38.88,0,0,0,1.1-7.85c.1-4.42-2.42-6.88-5.61-10a54.59,54.59,0,0,1-3.88-4.06c-2.72-3.22-4-6.56-3.35-8.73a3,3,0,0,1,3.17-2.13C21,41.94,35,49.47,35.16,49.55l.09.05v.1s.36,3.91,4.89,19.37v.1c-2,6.49-10.07,17.84-13.69,20.07a12.5,12.5,0,0,1-2.7,1.38C21.71,91.22,20.57,89.86,19.06,85Zm15.83-35.2c-1.21-.64-14.46-7.52-24.28-7.62A2.69,2.69,0,0,0,7.8,44.08c-.62,2.05.64,5.26,3.28,8.38a53.75,53.75,0,0,0,3.86,4c3.25,3.17,5.82,5.67,5.72,10.26a38.65,38.65,0,0,1-1.11,7.92c-.74,3.35-1.38,6.25-.13,10.26C21,90,22.09,90.71,23.65,90.25a11.83,11.83,0,0,0,2.61-1.33c3.56-2.19,11.54-13.37,13.51-19.8C35.59,54.85,35,50.54,34.89,49.84Z"/><path class="cls-2" d="M35.53,52.92l.16-.35c-9.66-4.49-27.85-8.72-28-8.76l-.08.37C7.75,44.22,25.91,48.44,35.53,52.92Z"/><rect class="cls-2" x="22.02" y="37.45" width="0.38" height="28.18" transform="matrix(0.2, -0.98, 0.98, 0.2, -32.68, 63.19)"/><path class="cls-2" d="M36.49,56.71l.06-.37c-6.85-1.07-23.5-1.8-23.67-1.8v.37C13,54.92,29.66,55.65,36.49,56.71Z"/><rect class="cls-2" x="17.23" y="58.49" width="19.83" height="0.38" transform="translate(-2.01 0.97) rotate(-1.97)"/><rect class="cls-2" x="19.88" y="61.55" width="17.7" height="0.38" transform="translate(-14.92 9.48) rotate(-14.92)"/><rect class="cls-2" x="19.65" y="64.67" width="18.88" height="0.38" transform="translate(-22.73 16.2) rotate(-22.65)"/><rect class="cls-2" x="17.65" y="68.72" width="22.31" height="0.38" transform="translate(-32.07 25.64) rotate(-31.91)"/><rect class="cls-2" x="15.37" y="73.8" width="26.86" height="0.38" transform="translate(-41.62 37.32) rotate(-41.22)"/><path class="cls-2" d="M20.05,87c.74-.67,18-16.49,19.55-19.62l-.34-.17C37.78,70.29,20,86.57,19.8,86.73Z"/><path class="cls-5" d="M31.93,55.38c1.79-.13,3.91,1.67,3.91,1.67l-1.78,7A12.12,12.12,0,0,1,31.93,55.38Z"/><path class="cls-6" d="M33.91,64.11a12.35,12.35,0,0,1-2.17-8.76l0-.15h.16c1.84-.13,3.95,1.64,4,1.72l.09.07-1.91,7.47ZM32.1,55.56a12,12,0,0,0,1.88,8l1.65-6.43A6.84,6.84,0,0,0,32.1,55.56Z"/><path class="cls-5" d="M31.85,56.12c.24-3.2,1.74-5.74,3.22-6.4a9.07,9.07,0,0,0,3.22,1l-2,8A6.14,6.14,0,0,1,31.85,56.12Z"/><path class="cls-6" d="M36.29,58.87a6.49,6.49,0,0,1-4.6-2.66l0-.05V56.1c.26-3.44,1.87-5.9,3.33-6.56l.09,0,.08,0a8.82,8.82,0,0,0,3.15,1l.22,0L36.46,58.9Zm-1.22-8.94c-1.3.64-2.77,3-3,6.14a6,6,0,0,0,4.13,2.4l1.88-7.58A9.63,9.63,0,0,1,35.07,49.93Z"/><path class="cls-5" d="M36.05,61.59c1.44,1.45,2.18,5.06,2.45,6.64a14.54,14.54,0,0,1-5.92-7.05A3.15,3.15,0,0,1,36.05,61.59Z"/><path class="cls-5" d="M36.05,61.59a8.27,8.27,0,0,1,1.62,3.12,12.69,12.69,0,0,1-3.08,0,13.1,13.1,0,0,1-2-3.54A3.15,3.15,0,0,1,36.05,61.59Z"/><path class="cls-6" d="M38.39,68.39a14.86,14.86,0,0,1-6-7.14l-.07-.18.18-.06c1.53-.57,2.82-.42,3.68.45,1.48,1.5,2.24,5.21,2.49,6.74l.08.43ZM32.82,61.3a14.43,14.43,0,0,0,5.41,6.52c-.3-1.67-1-4.8-2.31-6.1A2.74,2.74,0,0,0,33,61.23Z"/><path class="cls-5" d="M35.23,57.43a2.74,2.74,0,0,0-1.94,3.72c.69,2,3.41,3.34,6.92-.38C40.07,58.24,35.23,57.43,35.23,57.43Z"/><path class="cls-6" d="M33.11,61.21a3.07,3.07,0,0,1,.07-2.45,3.36,3.36,0,0,1,2-1.5l0,0h.08c.2,0,5,.87,5.14,3.51v.09l-.06.06A7.84,7.84,0,0,1,37,63.16,3.06,3.06,0,0,1,33.11,61.21Zm2.13-3.59h0a3,3,0,0,0-1.71,1.32,2.84,2.84,0,0,0,3.42,3.86A7.4,7.4,0,0,0,40,60.7C39.79,58.53,35.69,57.71,35.24,57.62Z"/><path class="cls-5" d="M37.05,52.23s-3.49,1.08-3.28,3.59,1.27,5.67,6.67,3.7c1.19-1.54,1.64-5,1.64-5Z"/><path class="cls-6" d="M35.34,59.73c-1-.71-1.6-2-1.76-3.9C33.36,53.21,36.85,52.09,37,52l.07,0,5.21,2.43v.14c0,.14-.47,3.49-1.68,5l0,0H40.5c-.28.11-.56.2-.82.28C37.82,60.51,36.36,60.43,35.34,59.73Zm6.53-5L37,52.43c-.47.16-3.26,1.23-3.08,3.37.15,1.8.67,3,1.59,3.61s2.66.71,4.77,0A12.52,12.52,0,0,0,41.87,54.68Z"/><path class="cls-5" d="M40,69.12a19.89,19.89,0,0,1-3.22-2.19,13,13,0,0,1-.27-4.09c.19-2.29,3.67-2.52,3.67-2.52l3.68,2-.6,5.83C42.22,68.42,41.14,68.74,40,69.12Z"/><path class="cls-5" d="M40.15,60.32l3.68,2-.07.63a22.08,22.08,0,0,1-7.31,1.83,15.9,15.9,0,0,1,0-2C36.67,60.55,40.15,60.32,40.15,60.32Z"/><path class="cls-6" d="M43.28,68.35c-1,.25-2.07.57-3.26,1l-.07,0-.08,0a20.51,20.51,0,0,1-3.24-2.22l-.05,0V67a12.59,12.59,0,0,1-.27-4.14,3,3,0,0,1,2.49-2.44,6.6,6.6,0,0,1,1.35-.25h0L44,62.23l-.63,6.09Zm-3.17-7.83c-.43,0-3.28.38-3.44,2.34a12.92,12.92,0,0,0,.25,4A19.91,19.91,0,0,0,40,68.91c1.11-.35,2.12-.65,3.06-.89l.58-5.58Z"/><path class="cls-5" d="M37.73,55c-2.72-1.35-2.14-3.6-1.57-4.79a5.49,5.49,0,0,0,6.05-.81L43.13,53S41.57,56.88,37.73,55Z"/><path class="cls-6" d="M37.65,55.15a3.47,3.47,0,0,1-1.66-5l.07-.16.16.06a6,6,0,0,0,3.86.34,5.69,5.69,0,0,0,2-1.11l.23-.19,1,4,0,.06a4.51,4.51,0,0,1-2.61,2.48h0A4.12,4.12,0,0,1,37.65,55.15Zm4.45-5.43a6.14,6.14,0,0,1-1.92,1,6.22,6.22,0,0,1-3.92-.29,3.06,3.06,0,0,0,1.56,4.38,3.84,3.84,0,0,0,2.77.38h0A4.1,4.1,0,0,0,42.93,53Z"/><path class="cls-5" d="M42.4,53.88s-4.5,2.37-3.42,5.6,5.32,4.23,7.62,2.9c1.9-2.73.79-6.74.79-6.74Z"/><path class="cls-6" d="M38.8,59.54c-1.11-3.35,3.33-5.73,3.52-5.83l.07,0,5.15,1.82,0,.1c0,.17,1.11,4.13-.81,6.9l0,0,0,0a4.33,4.33,0,0,1-.93.39C43.26,63.67,39.78,62.46,38.8,59.54Zm8.43-3.76-4.81-1.69c-.56.31-4.2,2.51-3.26,5.33s4.16,3.84,6.51,3.15a3.85,3.85,0,0,0,.8-.34C48.1,59.84,47.38,56.4,47.23,55.78Z"/><path class="cls-5" d="M49.66,55.76a9.22,9.22,0,0,1-6.85,0c-2.69-1.13-2.4-4-2.08-5.41,1.69-.74,3-2.39,4.58-4.28l3.52,2.87Z"/><path class="cls-6" d="M42.74,55.91c-2.87-1.21-2.49-4.34-2.19-5.63l0-.09.09,0c1.58-.7,2.85-2.23,4.33-4l.3-.36,3.72,3,.85,7.07-.12.06s-.3.13-.78.27h0A9.41,9.41,0,0,1,42.74,55.91ZM48.66,49l-3.32-2.7-.06.07c-1.48,1.78-2.76,3.33-4.38,4.08-.33,1.5-.48,4.06,2,5.1a9,9,0,0,0,6,.29,5.3,5.3,0,0,0,.6-.21Z"/><path class="cls-5" d="M46.46,61l1.23,6.37A33.9,33.9,0,0,0,40.4,69C38.16,62.87,46.46,61,46.46,61Z"/><path class="cls-5" d="M46.46,61l.16.83c-1.82.7-3.6,1.47-5.39,2A11.13,11.13,0,0,1,46.46,61Z"/><path class="cls-6" d="M47.71,67.57a30.07,30.07,0,0,0-6,1.22l-1.22.37-.17,0L40.23,69a5,5,0,0,1,.1-4.16C41.55,62.46,44.66,61.32,46,61l.47-.13.19,0,1.31,6.77Zm-1.66-6.26c-1.23.36-4.23,1.45-5.39,3.74a4.65,4.65,0,0,0-.14,3.69c.36-.11.71-.22,1-.31a31.53,31.53,0,0,1,5.9-1.22l-1.16-6Z"/><path class="cls-5" d="M47.65,54.64s-4.93,3-3.81,6.15,2,4.92,7.58,3.69a17.09,17.09,0,0,0,.07-5.83Z"/><path class="cls-5" d="M47.65,54.64l3.84,4a11.07,11.07,0,0,1,.18,1.64,40.27,40.27,0,0,0-7.08,2.35,15.76,15.76,0,0,1-.75-1.85C42.72,57.66,47.65,54.64,47.65,54.64Z"/><path class="cls-6" d="M51.47,64.67c-5.69,1.26-6.68-.63-7.81-3.82s3.69-6.24,3.9-6.37l.13-.08,4,4.15v.06a16.69,16.69,0,0,1-.06,5.9l0,.13Zm-3.84-9.78c-.76.49-4.57,3.17-3.62,5.84,1.09,3.05,2,4.74,7.25,3.59a17.36,17.36,0,0,0,.05-5.58Z"/><path class="cls-5" d="M50,48.44s-5.17,2.89-3.79,6.93,4.84,4.4,7.71,2.77,1.49-5.37,1.49-5.37Z"/><path class="cls-6" d="M46,55.43c-1.41-4.14,3.82-7.13,3.88-7.16l.11-.06,5.55,4.45,0,0S57,56.61,54,58.3a7.4,7.4,0,0,1-1.6.68C49.46,59.84,47.07,58.52,46,55.43Zm4-6.76c-.72.44-4.79,3.12-3.59,6.64,1,2.87,3.2,4.11,5.93,3.31A7.1,7.1,0,0,0,53.81,58c2.56-1.45,1.57-4.64,1.42-5.09Z"/><path class="cls-1" d="M98,18S89.43,7.11,77.43,4.51c-4.85.24-28,12.14-34.29,37.06a23.38,23.38,0,0,1,6.22,1.73S71.49,21.24,98,18Z"/><path class="cls-3" d="M77.43,4.51C87.19,6.62,94.64,14.22,97.09,17,77,11.13,59.8,28.23,45.33,40.11a7.17,7.17,0,0,1-2.14,1.24C49.58,16.59,72.59,4.75,77.43,4.51Z"/><path class="cls-4" d="M85.79,9.92c-3.62-.91-7.11-2.06-10.74-1C63.46,12.14,55.23,20.7,47.57,30.13,56.69,13,73.39,4.71,77.43,4.51c7.3,1.58,13.31,6.23,16.9,9.63C91.15,13.16,88.84,10.63,85.79,9.92Z"/><path class="cls-2" d="M49.29,43.47a23.82,23.82,0,0,0-6.16-1.71h-.24l.06-.23A54.24,54.24,0,0,1,58.83,15.31c6.21-5.76,13-9.5,16.9-10.66a7.48,7.48,0,0,1,1.69-.33h0C89.4,6.91,98,17.79,98.1,17.9l.21.27-.33,0a60.41,60.41,0,0,0-9.81,2.05c-21.59,6.32-38.51,23-38.68,23.17l-.09.09Zm48.3-25.6C96.2,16.2,88.17,7,77.42,4.7A7,7,0,0,0,75.83,5C71.94,6.16,65.25,9.87,59.09,15.59a53.82,53.82,0,0,0-15.71,25.8,23.68,23.68,0,0,1,5.94,1.68C50.69,41.74,67.2,26,88.06,19.89A62.66,62.66,0,0,1,97.59,17.87Z"/><path class="cls-2" d="M93.86,18.78l.28-.25A49.7,49.7,0,0,0,73.84,5.38l-.11.36A49.3,49.3,0,0,1,93.86,18.78Z"/><path class="cls-2" d="M89.14,19.81l.27-.27C82.88,13,71.38,6.68,71.27,6.62L71.09,7C71.2,7,82.65,13.26,89.14,19.81Z"/><path class="cls-2" d="M84.44,21.4l.29-.24A55.18,55.18,0,0,0,68.19,8.29L68,8.63A54.92,54.92,0,0,1,84.44,21.4Z"/><path class="cls-2" d="M79.87,22.88l.31-.21c-5.07-7.63-15-12.25-15.09-12.29l-.16.34C65,10.77,74.85,15.34,79.87,22.88Z"/><path class="cls-2" d="M76.34,24.62l.3-.23A35.09,35.09,0,0,0,61.23,13.33l-.11.36A34.68,34.68,0,0,1,76.34,24.62Z"/><path class="cls-2" d="M72.56,26.52l.29-.24C65.49,17.55,58.34,16,58.26,16l-.07.37C58.26,16.36,65.29,17.91,72.56,26.52Z"/><path class="cls-2" d="M69.33,28.39l.29-.24C62.09,19,56.15,18.28,55.9,18.26l0,.38C55.92,18.64,61.91,19.35,69.33,28.39Z"/><path class="cls-2" d="M66.54,30.07l.27-.26c-8.59-9-13.38-8.44-13.58-8.41l.05.37,0-.19,0,.19S58.11,21.24,66.54,30.07Z"/><path class="cls-2" d="M64,31.74l.26-.27c-5.25-5.2-13.12-7.1-13.2-7.12l-.09.37C51.06,24.74,58.83,26.61,64,31.74Z"/><path class="cls-2" d="M60.63,34.11l.26-.27A24.66,24.66,0,0,0,49,27.45l0,.37A24.35,24.35,0,0,1,60.63,34.11Z"/><path class="cls-2" d="M57.66,36.3l.26-.28c-5.68-5.28-10.42-5.57-10.62-5.58l0,.37S52.09,31.12,57.66,36.3Z"/><path class="cls-2" d="M55.4,38.06l.25-.28a16.38,16.38,0,0,0-9.82-4.29v.38A16,16,0,0,1,55.4,38.06Z"/><path class="cls-2" d="M53.46,39.65l.23-.3a14.26,14.26,0,0,0-9.06-2.92l0,.38A13.82,13.82,0,0,1,53.46,39.65Z"/><path class="cls-2" d="M51.17,41.68l.2-.32A14.51,14.51,0,0,0,43.8,39l0,.38A14.43,14.43,0,0,1,51.17,41.68Z"/><path class="cls-5" d="M55.94,68.13,55,67.94a23.37,23.37,0,0,0-9.88-.2C48.34,59.85,53.41,64.82,55.94,68.13Z"/><path class="cls-6" d="M55.91,68.32l-.95-.2a22.92,22.92,0,0,0-9.8-.19l-.35.07.14-.33c1-2.37,2.18-3.78,3.62-4.21,2.73-.79,5.6,2,7.52,4.56l.31.4Zm-10.48-.83a23.42,23.42,0,0,1,9.61.26l.44.09c-1.59-2-4.32-4.74-6.8-4C47.42,64.2,46.33,65.43,45.43,67.49Z"/><path class="cls-5" d="M54.72,56.22s-6.64,3.23-6.08,6.51,6.51,6.38,10.65,3.69c.84-2.52-1.3-6.13-1.3-6.13Z"/><path class="cls-5" d="M54.72,56.22l2.89,3.6c-1.39,0-2.8.12-4.27.22A20.7,20.7,0,0,0,49,61C50.23,58.4,54.72,56.22,54.72,56.22Z"/><path class="cls-6" d="M51.23,66.32a5.62,5.62,0,0,1-2.77-3.56c-.59-3.38,5.9-6.58,6.18-6.71l.14-.07,3.35,4.19,0,0c.09.16,2.18,3.72,1.32,6.29l0,.06-.06,0a6.56,6.56,0,0,1-1.7.78A8.17,8.17,0,0,1,51.23,66.32Zm6.6-5.92-3.16-3.94c-.93.47-6.33,3.38-5.84,6.24a5.37,5.37,0,0,0,2.6,3.3,7.76,7.76,0,0,0,6.15,1,5.86,5.86,0,0,0,1.55-.7C59.86,64,58,60.62,57.83,60.4Z"/><path class="cls-5" d="M49.93,50c-5,2.84-6.9.69-7.57-.7a60.09,60.09,0,0,0,4.51-5.05c1.17-1.33,2.35-2.61,3.52-3.82C52.15,42.44,55.13,47,49.93,50Z"/><path class="cls-7" d="M43.42,48.25c1.08-1.15,2.15-2.59,3.45-4s2.35-2.61,3.52-3.82A12.67,12.67,0,0,1,52,42.77a44.38,44.38,0,0,0-6.6,4.41A6.51,6.51,0,0,1,43.42,48.25Z"/><path class="cls-6" d="M42.19,49.35l-.07-.13.12-.09a25.51,25.51,0,0,0,2.75-3c.55-.66,1.11-1.35,1.74-2,1.14-1.3,2.33-2.59,3.52-3.83l.15-.15.13.15C51.62,41.54,53.4,44,53,46.47A5.38,5.38,0,0,1,50,50.13a12.66,12.66,0,0,1-2.6,1.15h0C44.14,52.24,42.73,50.49,42.19,49.35Zm4.82-5c-.62.69-1.19,1.37-1.73,2a26.13,26.13,0,0,1-2.69,2.94c.64,1.21,2,2.41,4.73,1.59h0a11.86,11.86,0,0,0,2.52-1.11,5,5,0,0,0,2.76-3.4c.38-2.18-1.17-4.46-2.22-5.72C49.24,41.87,48.11,43.1,47,44.35Z"/><path class="cls-5" d="M50.85,41s-5.52,7.73-.68,10.45,6.71-1,6.71-1l-.64-6.91Z"/><path class="cls-8" d="M50.85,41l2.31,1.1c-1.42.88-2.86,1.69-4.27,2.57A18.92,18.92,0,0,1,50.85,41Z"/><path class="cls-6" d="M50.07,51.61a3.87,3.87,0,0,1-2-2.6c-.76-3.4,2.45-7.94,2.59-8.13l.09-.13,5.63,2.68.65,7.07,0,0a4.17,4.17,0,0,1-2.41,1.91A6,6,0,0,1,50.07,51.61Zm6-7.94-5.14-2.44c-.52.77-3.1,4.77-2.44,7.7a3.46,3.46,0,0,0,1.78,2.35,5.59,5.59,0,0,0,4.28.82,3.85,3.85,0,0,0,2.15-1.68Z"/><path class="cls-5" d="M55.57,49.36a7.41,7.41,0,0,0-2.93,8.16c1.54,5.27,8.55,1.93,9.35,1.3.5-2-2-7.41-2-7.41Z"/><path class="cls-6" d="M52.46,57.57a7.62,7.62,0,0,1,3-8.36l.09-.06,4.6,2.12,0,.07c.1.22,2.49,5.47,2,7.53l0,.06,0,0a10.68,10.68,0,0,1-2.83,1.25C57.2,60.83,53.55,61.29,52.46,57.57Zm7.42-6-4.29-2a7.11,7.11,0,0,0-2.77,7.89c1,3.4,4.41,3,6.35,2.38a10.44,10.44,0,0,0,2.65-1.14C62.2,56.85,60.14,52.16,59.88,51.56Z"/><path class="cls-5" d="M57,63.73c3.13-1.48,6.83,3.21,8.72,6.07-5.13-.69-9.13-1.53-10.74-1.86-.33-.07-.65-.14-1-.19A4.71,4.71,0,0,1,57,63.73Z"/><path class="cls-6" d="M65.71,70c-5.12-.69-9-1.51-10.73-1.86h0l-1-.19-.17,0v-.17a4.91,4.91,0,0,1,3.1-4.17,3.66,3.66,0,0,1,.46-.18c3.15-.92,6.67,3.56,8.5,6.31l.23.35ZM57.1,63.9a4.53,4.53,0,0,0-2.86,3.69l.8.16h0c1.63.34,5.39,1.12,10.29,1.79-1.82-2.67-5-6.62-7.84-5.8A2.86,2.86,0,0,0,57.1,63.9Z"/><path class="cls-5" d="M60.77,55.33s-5.18,3.5-3.79,7.92,7.91,4.78,8.86,4,1.39-6.72,1.39-6.72Z"/><path class="cls-5" d="M60.77,55.33l5.3,4.27a11.85,11.85,0,0,1-2.72.27c-2.15-.11-4.18-.11-6.26,0A10.77,10.77,0,0,1,60.77,55.33Z"/><path class="cls-6" d="M61,67.22a6.32,6.32,0,0,1-4.2-3.91c-1.42-4.51,3.81-8.1,3.87-8.13l.11-.08,6.64,5.36v.1c0,.61-.47,6-1.46,6.84a1.18,1.18,0,0,1-.45.22A8.6,8.6,0,0,1,61,67.22Zm-.23-11.65c-.74.54-4.83,3.74-3.61,7.62s6.61,4.54,8.25,4.06a.74.74,0,0,0,.31-.14c.65-.52,1.14-4.12,1.31-6.48Z"/><path class="cls-5" d="M57.9,42.17s-5.14,3-3.45,8.41,8.4,2.76,8.4,2.76l1.34-5.51Z"/><path class="cls-6" d="M54.27,50.64C52.56,45.13,57.76,42,57.81,42l.12-.07,6.47,5.82L63,53.48l-.09,0s-.25.1-.66.22C60.75,54.18,55.71,55.27,54.27,50.64ZM64,47.89l-6.1-5.48c-.74.48-4.73,3.35-3.25,8.11,1.3,4.19,5.7,3.39,7.53,2.86l.53-.18Z"/><path class="cls-5" d="M63,47.57s-5.92,3.71-4.1,8.89,9.32,2.89,9.32,2.89l.56-5.49Z"/><path class="cls-6" d="M58.76,56.53c-1.85-5.27,4.11-9.08,4.17-9.12l.14-.08L69,53.8l-.58,5.7-.15,0C68,59.63,60.58,61.73,58.76,56.53ZM63,47.82c-.85.58-5.49,4-3.9,8.58s8.06,3.05,9,2.81l.53-5.28Z"/><path class="cls-5" d="M72.67,61.61l2.09,9.08c-4.31-.26-8.37-.76-11.73-1.28A7.44,7.44,0,0,1,63.29,65C65.13,59.78,72.67,61.61,72.67,61.61Z"/><path class="cls-6" d="M74.75,70.88C71,70.66,67.09,70.23,63,69.59h-.12l0-.12a7.56,7.56,0,0,1,.27-4.58,5.3,5.3,0,0,1,3.76-3.4,12.65,12.65,0,0,1,5.83,0l.12,0L75,70.89Zm-7.77-9A5,5,0,0,0,63.47,65a7.29,7.29,0,0,0-.29,4.23c3.94.6,7.75,1,11.34,1.25l-2-8.72A12.52,12.52,0,0,0,67,61.84Z"/><path class="cls-5" d="M74.11,53.4s-10.45-1.67-9.35,7.47c.73,4.52,6.35,4.84,7.66,4.26C74,63.28,75.29,56.41,74.11,53.4Z"/><path class="cls-5" d="M74.11,53.4c.64,1.64.56,4.44.09,7a44.51,44.51,0,0,0-7.78-.78c-.55,0-1.14.17-1.73.25C64.49,51.86,74.11,53.4,74.11,53.4Z"/><path class="cls-6" d="M66.92,64.43a5,5,0,0,1-2.35-3.54C64,56,66.64,54.21,69,53.52a13.52,13.52,0,0,1,5.17-.31l.11,0,0,.1c1.19,3,0,10-1.72,11.93l0,0,0,0-.23.08A7.53,7.53,0,0,1,66.92,64.43Zm7-10.86a13,13,0,0,0-4.89.32c-3.19.93-4.57,3.27-4.13,7a4.59,4.59,0,0,0,2.17,3.27,7.23,7.23,0,0,0,5,.92l.14,0C73.85,63.14,75,56.49,74,53.57Z"/><path class="cls-5" d="M59.09,44.19s-5,3.53-7.59,2c-1.73-1-2-3.35-2.06-4.83,2-2.14,4-4.11,6-5.91L59,37.33Z"/><path class="cls-7" d="M49.44,41.39c2-2.14,4-4.11,6-5.91L59,37.33v.2c-.52.45-1,.92-1.54,1.4a43.06,43.06,0,0,1-7.55,5.14A8.74,8.74,0,0,1,49.44,41.39Z"/><path class="cls-6" d="M51.4,46.38c-1.83-1.05-2.13-3.58-2.15-5v-.08l.06-.05c2-2.09,4-4.08,6-5.92l.09-.09,3.72,2,.14,7.07-.08.06a16.85,16.85,0,0,1-4.31,2.14h0A4.45,4.45,0,0,1,51.4,46.38Zm7.36-8.93-3.28-1.74c-2,1.79-3.94,3.72-5.85,5.75,0,1.34.32,3.65,2,4.6a4.08,4.08,0,0,0,3.19.06h0a16.83,16.83,0,0,0,4.12-2Z"/><path class="cls-5" d="M61.49,34.88s-6.21,2.61-5.19,7,5,5.91,8.62,4.5A8.26,8.26,0,0,0,66.31,39Z"/><path class="cls-6" d="M59.12,46.23a6.54,6.54,0,0,1-3-4.33c-1-4.47,5.23-7.17,5.29-7.19l.11-.05,4.91,4.19,0,0v0a8.47,8.47,0,0,1-1.42,7.55l0,0,0,0a6.45,6.45,0,0,1-.62.21A6.61,6.61,0,0,1,59.12,46.23Zm7-7.13-4.69-4c-.8.37-5.86,2.86-5,6.71a6.17,6.17,0,0,0,2.83,4.09,6.28,6.28,0,0,0,5,.49l.54-.18A8.13,8.13,0,0,0,66.14,39.1Z"/><path class="cls-5" d="M59.43,39.1a5.17,5.17,0,0,1-6.56-1.19,92.06,92.06,0,0,1,9-7.71C62.34,32.46,62.92,37.28,59.43,39.1Z"/><path class="cls-7" d="M52.87,37.91a92.06,92.06,0,0,1,9-7.71,13.51,13.51,0,0,1,.24,4.92,37.47,37.47,0,0,0-4.68,3.81c-.31.3-.64.58-1,.85A5.61,5.61,0,0,1,52.87,37.91Z"/><path class="cls-6" d="M52.73,38l-.13-.14.14-.13a92,92,0,0,1,9-7.72l.23-.17.07.28c.46,2.11,1.13,7.2-2.52,9.1a6.54,6.54,0,0,1-1.22.5h0A5.43,5.43,0,0,1,52.73,38Zm.4-.13a4.93,4.93,0,0,0,5.06,1.49h0a6.8,6.8,0,0,0,1.15-.47c3.26-1.7,2.81-6.23,2.38-8.4A95,95,0,0,0,53.13,37.91Z"/><path class="cls-5" d="M67.59,38.68c-2.35,1.61-5.25,1.14-7.35-1.33a5.55,5.55,0,0,1,.1-6q1.71-1.34,3.39-2.52l5,2.2S70,37.07,67.59,38.68Z"/><path class="cls-7" d="M60.34,31.36q1.71-1.34,3.39-2.52l5,2.2s0,0,0,.11c-.54.25-1.09.5-1.6.78a56.6,56.6,0,0,0-7.28,4.81A5.65,5.65,0,0,1,60.34,31.36Z"/><path class="cls-6" d="M60.09,37.47v0a5.74,5.74,0,0,1,.09-6.18l0,0,0,0c1.11-.86,2.26-1.71,3.4-2.52l.09-.07,5.23,2.28,0,.1c.05.25,1.17,6.17-1.26,7.83a5.48,5.48,0,0,1-1.6.77h0A5.74,5.74,0,0,1,60.09,37.47Zm3.67-8.41c-1.11.78-2.21,1.6-3.28,2.43A5,5,0,0,0,66,39.24h0a5.17,5.17,0,0,0,1.5-.72c2.06-1.41,1.25-6.58,1.12-7.35Z"/><path class="cls-5" d="M70.15,34.15c-5.28.62-6.63-2.7-7-4.93a75.84,75.84,0,0,1,9.49-5.81C74.68,26.75,75.15,33.48,70.15,34.15Z"/><path class="cls-7" d="M63.19,29.22a75.84,75.84,0,0,1,9.49-5.81,10.78,10.78,0,0,1,1.38,4.46A17,17,0,0,0,72,29.35c-1.42,1.2-3.24,1.74-4.77,2.58-.67.38-1.33.77-2,1.17A6,6,0,0,1,63.19,29.22Z"/><path class="cls-6" d="M70.17,34.34c-5.5.64-6.85-2.91-7.16-5.09l0-.11.09-.07a75.79,75.79,0,0,1,9.52-5.83l.16-.08.09.15c1.22,2.05,2,5.61,1,8.18A4.29,4.29,0,0,1,71,34.17h0A4.8,4.8,0,0,1,70.17,34.34Zm-6.77-5c.39,2.46,1.88,5.22,6.72,4.65a4.1,4.1,0,0,0,.73-.15h0a3.9,3.9,0,0,0,2.62-2.46c.94-2.39.26-5.7-.86-7.69A76.5,76.5,0,0,0,63.4,29.31Z"/><path class="cls-5" d="M67.36,39.11S60.6,40.6,61,46.78c.65,4.25,5.29,6.63,7,6.52C70.35,51.35,71.54,46,71.54,46Z"/><path class="cls-6" d="M68.08,53.49c-1.83.12-6.57-2.35-7.24-6.7-.38-5.43,4.6-7.32,6.13-7.77l.35-.1.13,0,4.29,7,0,.07c0,.22-1.22,5.46-3.53,7.43l0,0Zm-.81-14.16-.19.05c-1.47.43-6.22,2.23-5.86,7.37.62,4.08,5,6.42,6.77,6.36,2-1.8,3.19-6.47,3.35-7.11Z"/><path class="cls-5" d="M75.07,66c3,.2,6.38,3.26,7.93,4.82a96.3,96.3,0,0,1-12.74-.49C71,68.49,72.43,65.82,75.07,66Z"/><path class="cls-6" d="M83,71a98.33,98.33,0,0,1-12.76-.49l-.25,0,.09-.23c.63-1.65,1.78-3.74,3.72-4.31a3.66,3.66,0,0,1,1.28-.14c3,.2,6.33,3.14,8,4.87l.31.31Zm-12.48-.84a97.61,97.61,0,0,0,12,.47c-1.52-1.48-4.72-4.27-7.49-4.45a3.13,3.13,0,0,0-1.15.12C72.2,66.81,71.14,68.63,70.52,70.17Z"/><path class="cls-5" d="M74.15,57.46S68.87,61,70.63,65.2s10.3,3.29,10.3,3.29l-2.06-7Z"/><path class="cls-5" d="M78.22,60.92c-2.22-.25-4.41-.66-6.64-1a11.66,11.66,0,0,1,2.57-2.49Z"/><path class="cls-6" d="M81,68.68c-.36,0-8.7.89-10.49-3.41s3.53-7.93,3.58-8l.12-.08L79,61.36l2.13,7.3Zm-6.81-11c-.76.55-4.87,3.74-3.34,7.43s8.53,3.3,9.88,3.19l-2-6.74Z"/><path class="cls-5" d="M70.91,32.05S63,35.36,64.15,40s5.4,8,9.78,6.11,2.69-8,2.69-8Z"/><path class="cls-6" d="M68.2,45.88A9.39,9.39,0,0,1,64,40c-1.17-4.69,6.54-8,6.87-8.11l.12-.05L76.79,38v0c0,.06,1.68,6.29-2.8,8.21a5.59,5.59,0,0,1-.78.28A6.3,6.3,0,0,1,68.2,45.88Zm2.67-13.6c-1,.44-7.55,3.54-6.53,7.62a9.08,9.08,0,0,0,4,5.66,6,6,0,0,0,5.46.32c4-1.7,2.74-7.16,2.6-7.71Z"/><path class="cls-5" d="M71.26,44.67S65,50,66.55,53.84,72.4,59,76.93,57.31c3.9-1.84-.14-8.54-.14-8.54Z"/><path class="cls-6" d="M66.37,53.91c-1.56-4,4.5-9.16,4.76-9.38l.12-.1,5.69,4.21,0,0c.1.17,2.51,4.23,1.69,6.94A2.94,2.94,0,0,1,77,57.48c-.31.12-.62.22-.93.32C71.69,59.08,67.79,57.52,66.37,53.91Zm4.9-9c-.83.74-5.9,5.43-4.55,8.86s5.06,4.89,9.24,3.66c.3-.09.6-.19.89-.3a2.54,2.54,0,0,0,1.43-1.63c.74-2.43-1.41-6.22-1.63-6.6Z"/><path class="cls-5" d="M76.49,26.41s-9.65,5.19-7.35,9.91,9.47,4.06,9.47,4.06l2.61-9Z"/><path class="cls-6" d="M78.63,40.57c-.08,0-7.33.61-9.66-4.17s7-9.94,7.43-10.16l.13-.06,4.9,5.1-2.67,9.28ZM76.45,26.65c-1.11.63-9.2,5.37-7.14,9.59s8.19,4,9.15,4L81,31.39Z"/><path class="cls-5" d="M76.64,38.59s-7,2.46-6.27,7.76S82.54,52.9,82.54,52.9,80.78,41.06,76.64,38.59Z"/><path class="cls-6" d="M82.52,53.09C82.05,53,71,51.75,70.18,46.37s6.33-7.93,6.4-8l.08,0,.08,0c4.17,2.48,5.91,14,6,14.44l0,.25Zm-12-6.77c.68,4.66,10.1,6.14,11.76,6.36-.28-1.7-2-11.59-5.69-13.88C75.84,39.1,69.87,41.54,70.55,46.32Z"/><path class="cls-5" d="M83.08,31.84s-9.65,3-8.78,8.62,7.28,6.94,9.09,6.8C86.86,43,83.08,31.84,83.08,31.84Z"/><path class="cls-6" d="M83.4,47.45c-2.08.16-8.42-1.26-9.29-7s8.51-8.71,8.91-8.83l.18-.05,0,.17c.16.46,3.78,11.27.28,15.6l0,.07Zm-8.92-7c.83,5.41,7,6.73,8.81,6.65,3-3.92.12-13.57-.34-15C81.66,32.52,73.71,35.41,74.48,40.43Z"/><path class="cls-5" d="M77,64.58c.34-5.22,10.06-5.7,10.06-5.7l2.6,11.36a65.76,65.76,0,0,1-9.57.62C78.39,69.24,76.83,67.06,77,64.58Z"/><path class="cls-6" d="M89.68,70.43a66.19,66.19,0,0,1-9.6.62H80L80,71c-2.23-2.14-3.29-4.3-3.15-6.43.15-2.29,2.08-4,5.59-5.07A22.81,22.81,0,0,1,87,58.69h.16L89.88,70.4ZM82.5,59.86c-2.33.68-5.15,2.06-5.32,4.74-.13,2,.87,4,3,6.07a64.68,64.68,0,0,0,9.26-.59l-2.52-11A22.71,22.71,0,0,0,82.5,59.86Z"/><path class="cls-5" d="M78.19,49.71s-7,3.37-6.38,7.39,5,6.93,10.09,5.72C85.21,58.43,78.19,49.71,78.19,49.71Z"/><path class="cls-5" d="M71.81,57.1c-.65-4,6.38-7.39,6.38-7.39s5.43,6.74,4.48,11.35c-.66,0-1.33,0-2,0a62.7,62.7,0,0,1-7.47-.92A6.59,6.59,0,0,1,71.81,57.1Z"/><path class="cls-6" d="M81.94,63a9,9,0,0,1-7.17-1.13,7.07,7.07,0,0,1-3.15-4.74C71,53,77.81,49.68,78.1,49.54l.14-.07.09.12c.29.36,7.08,8.89,3.72,13.34L82,63ZM72,57.07a6.7,6.7,0,0,0,3,4.48,8.59,8.59,0,0,0,6.8,1.1C84.67,58.69,79,51,78.13,50,77.17,50.44,71.42,53.54,72,57.07Z"/><path class="cls-5" d="M85.3,45.49S77,45.84,76,49.19s2.76,8.75,5.83,9.14,7.63-7.27,7.63-7.27Z"/><path class="cls-6" d="M81.84,58.51c-1.52-.19-3.28-1.55-4.6-3.57s-1.86-4.22-1.39-5.8c.38-1.28,1.77-2.29,4.14-3a26,26,0,0,1,5.3-.86h.1l4.33,5.76-.06.11c-.16.26-3.84,6.37-6.86,7.26A2.31,2.31,0,0,1,81.84,58.51Zm3.37-12.83a25.45,25.45,0,0,0-5.11.84c-2.24.66-3.55,1.57-3.89,2.72-.44,1.48.07,3.53,1.35,5.49S80.5,58,81.88,58.14a2.11,2.11,0,0,0,.81-.08c2.67-.79,6.06-6.15,6.58-7Z"/><path class="cls-5" d="M84.23,21.65s-10.91,1.81-9,8.35S86.1,32.73,86.1,32.73Z"/><path class="cls-6" d="M75.06,30.05c-1.42-4.83,3.82-7.14,7.07-8.1a18.81,18.81,0,0,1,2.07-.49l.18,0,1.93,11.42-.14.06s-.58.24-1.45.5C82.32,34.11,76.56,35.19,75.06,30.05Zm9-8.18c-.31.06-1,.2-1.83.45-3.12.91-8.14,3.11-6.82,7.62s6.35,3.94,9.2,3.1a11.19,11.19,0,0,0,1.26-.43Z"/><path class="cls-5" d="M78.76,28.77c-6.82,1.73-8.67-1.42-9.15-3.69a65.75,65.75,0,0,1,15-6.39C85.49,21.8,85.7,27,78.76,28.77Z"/><path class="cls-7" d="M69.61,25.08a65.75,65.75,0,0,1,15-6.39,9.23,9.23,0,0,1-.07,5.62,49.77,49.77,0,0,0-9.14,2.83,15.91,15.91,0,0,0-2.83,1.69A4.88,4.88,0,0,1,69.61,25.08Z"/><path class="cls-6" d="M78.8,29c-3.06.78-5.45.66-7.09-.36a5.23,5.23,0,0,1-2.29-3.47l0-.13.12-.07A66.67,66.67,0,0,1,83.9,18.71l.71-.2.19-.05,0,.18c.78,3,1.11,8.23-5.54,10.17h0ZM84,19.08a65.7,65.7,0,0,0-14.19,6.1,4.87,4.87,0,0,0,2.09,3.08c1.55,1,3.84,1.08,6.8.33l.5-.14h0c6.2-1.82,6-6.67,5.32-9.52A5.08,5.08,0,0,0,84,19.08Z"/><path class="cls-5" d="M88,25.68s-10.61,2.81-8.75,8.48,7.42,6.5,11.69,4.56C93.78,34.72,88,25.68,88,25.68Z"/><path class="cls-6" d="M79,34.22a4.14,4.14,0,0,1,.27-3.34c1.7-3.23,7.28-5,8.38-5.32l.23-.07.14,0,.07.11c.24.38,5.84,9.2,2.93,13.26l0,0,0,0a10.38,10.38,0,0,1-1.44.54C85.54,40.6,80.75,39.44,79,34.22Zm8.85-8.32-.09,0c-1.08.32-6.52,2-8.15,5.14a3.75,3.75,0,0,0-.25,3c1.63,5,6.21,6.08,10,5a12.84,12.84,0,0,0,1.35-.5C93.31,34.94,88.55,27,87.89,25.9Z"/><path class="cls-5" d="M94.36,19.66s-10.21,3.06-10,9.71c.33,4.25,9.34,4,9.34,4A15.35,15.35,0,0,0,94.36,19.66Z"/><path class="cls-6" d="M93.66,33.6c-.37,0-9.19.16-9.53-4.22-.17-6.72,9.76-9.77,10.18-9.9l.16-.05.07.16a15.54,15.54,0,0,1-.72,13.91l0,.1Zm-9.15-4.24c.29,3.77,8,3.87,9,3.86a15.12,15.12,0,0,0,.7-13.32C93,20.32,84.36,23.39,84.51,29.36Z"/><path class="cls-5" d="M87.11,36.87s-9,4-7.59,9.42,9.7,6.53,9.7,6.53c3.14-4.08,2.13-9.89,2.13-9.89Z"/><path class="cls-6" d="M89.19,53c-.34,0-8.45-1.2-9.85-6.67S86.66,36.87,87,36.7l.15-.06,4.35,6.21v0c0,.06,1,6-2.17,10L89.3,53Zm-2.14-15.9c-1.13.54-8.59,4.31-7.35,9.14s8.47,6.21,9.44,6.36c2.84-3.78,2.11-9.09,2-9.61Z"/><path class="cls-5" d="M91.21,43.46s-10.32,3.81-5.7,10.84,9,4.55,9,4.55l1.83-8.22Z"/><path class="cls-6" d="M85.35,54.4a5.93,5.93,0,0,1-1-5.24c1.25-3.81,6.53-5.79,6.76-5.88l.13-.05,5.29,7.35L94.7,59l-.07,0a4.2,4.2,0,0,1-.64.25C92.62,59.67,89,60,85.35,54.4Zm10.81-3.73-5-7c-.83.34-5.3,2.28-6.39,5.59a5.55,5.55,0,0,0,.92,4.91c4.17,6.35,8.12,4.81,8.7,4.53Z"/><path class="cls-5" d="M92.61,31.42S83,34.83,84.22,40.48s9.27,5.37,9.27,5.37l2.07-8.4Z"/><path class="cls-6" d="M93.49,46c-.08,0-8.17.21-9.45-5.52s8.11-9.14,8.51-9.28l.16-.06,3.05,6.25L93.64,46Zm-1-14.39c-1.24.48-9.23,3.76-8.11,8.79s7.86,5.22,8.93,5.22l2-8.19Z"/><path class="cls-5" d="M87.49,27.39c-8,1.78-7.71-4.13-7-7.38a59.54,59.54,0,0,1,11.9-2.94C92.41,19.78,91.92,26,87.49,27.39Z"/><path class="cls-7" d="M80.52,20a59.54,59.54,0,0,1,11.9-2.94,18.1,18.1,0,0,1-1.06,6.37,46.67,46.67,0,0,0-10.77,1.87A9.29,9.29,0,0,1,80.52,20Z"/><path class="cls-6" d="M87.53,27.58c-2.92.64-5,.34-6.28-.91-1.64-1.65-1.4-4.56-.92-6.7l0-.1.09,0c1.14-.4,2.3-.78,3.45-1.12a59.26,59.26,0,0,1,8.49-1.82l.22,0v.21c0,2.69-.5,9.09-5.06,10.51h0ZM84,19.08c-1.11.32-2.23.68-3.33,1.07-.45,2.05-.65,4.75.84,6.25,1.15,1.15,3.14,1.43,5.92.81,4.2-1.31,4.76-7.21,4.79-9.92A58,58,0,0,0,84,19.08Z"/><path class="cls-7" d="M96.52,23c-6.61-.48-8.39-3.22-8.84-5.05a56.28,56.28,0,0,1,12.56-1.38A8.66,8.66,0,0,1,96.52,23Z"/><path class="cls-6" d="M96.5,23.16c-6.85-.49-8.58-3.46-9-5.18l0-.19.19,0a56.44,56.44,0,0,1,12.6-1.39h.21l0,.21a8.74,8.74,0,0,1-3.81,6.56l-.05,0Zm-8.59-5.09c.48,1.64,2.24,4.24,8.55,4.71a8.33,8.33,0,0,0,3.57-6A55.76,55.76,0,0,0,87.91,18.07Z"/><path class="cls-5" d="M91.18,55.79l6.58,12.4a41.86,41.86,0,0,1-12.05,2.48C80,64.94,91.18,55.79,91.18,55.79Z"/><path class="cls-6" d="M85.72,70.86h-.08l-.06-.07a5.43,5.43,0,0,1-1.69-4.26c.26-5.2,6.88-10.66,7.17-10.89l.18-.15L98,68.29l-.2.08c-.8.31-1.67.61-2.56.87h0A46.26,46.26,0,0,1,85.72,70.86Zm5.4-14.77C90.05,57,84.5,62,84.27,66.56a5.12,5.12,0,0,0,1.51,3.92,46.36,46.36,0,0,0,9.39-1.61c.81-.23,1.59-.5,2.32-.78Z"/><path class="cls-5" d="M91.46,23.9C91,20,95,18,97.79,16.59c1.09,0,2.15-.05,3.15,0,.46,2.68,1.43,9.19.54,12.13C101.48,28.69,92.45,29.53,91.46,23.9Z"/><path class="cls-7" d="M97.79,16.59c1.09,0,2.15-.05,3.15,0a61.23,61.23,0,0,1,.87,7.57,43.55,43.55,0,0,0-10.38-.7C91.31,19.82,95.13,17.94,97.79,16.59Z"/><path class="cls-6" d="M101.49,28.88c-.09,0-9.21.78-10.22-5-.49-4,3.6-6.06,6.3-7.43l.17-.08h0c1.06,0,2.12,0,3.17,0h.15l0,.16c.46,2.68,1.43,9.24.53,12.21l0,.12Zm-3.65-12.1-.1,0c-2.76,1.4-6.55,3.32-6.09,7,.88,5,8.59,4.71,9.68,4.64.8-2.9-.09-9.06-.55-11.76C99.81,16.73,98.82,16.74,97.84,16.78Z"/><path class="cls-7" d="M106.5,23.4c-7.19,2.81-8.15-3.61-8.21-6.82a47.43,47.43,0,0,1,14.62,1.69C112.47,19.8,110.9,21.69,106.5,23.4Z"/><path class="cls-6" d="M100.62,23.46c-2.12-1.56-2.48-5-2.52-6.88v-.19h.19A47.36,47.36,0,0,1,113,18.09l.18.05,0,.18c-.57,2-2.77,3.79-6.52,5.26a9.65,9.65,0,0,1-1,.35h0C103.51,24.53,101.85,24.37,100.62,23.46Zm-2.13-6.7c.05,1.86.43,5,2.35,6.39,1.14.84,2.68,1,4.59.42h0c.32-.09.66-.21,1-.34,3.47-1.36,5.62-3,6.24-4.83A47.32,47.32,0,0,0,98.49,16.76Z"/><path class="cls-5" d="M99,25.72s-8.36,1.53-8.86,7.46,3,7.42,6.32,7.22a19.56,19.56,0,0,0,3.39-7.3Z"/><path class="cls-6" d="M96.5,40.59a6.33,6.33,0,0,1-5-1.59c-1.24-1.27-1.75-3.23-1.54-5.83.4-4.67,5.56-6.68,7.76-7.32A11.55,11.55,0,0,1,99,25.54l.19,0,.87,7.58v.05a19.69,19.69,0,0,1-3.41,7.38l-.06.07ZM98.86,26c-.2.05-.56.13-1,.26-2.13.63-7.12,2.55-7.49,7-.21,2.49.27,4.35,1.43,5.54a5.94,5.94,0,0,0,4.6,1.48,19.44,19.44,0,0,0,3.29-7.13Z"/><path class="cls-5" d="M95.46,38.21s-7.65,2.63-6.33,8,8.63,4.31,8.63,4.31l-.65-5.34Z"/><path class="cls-6" d="M97.78,50.73c-.07,0-7.49,1.05-8.83-4.45s6.37-8.23,6.44-8.25l.2-.07,1.71,7.21L98,50.71ZM95.32,38.46c-1.17.46-7.15,3-6,7.73s7.1,4.31,8.23,4.19l-.62-5.13Z"/><path class="cls-5" d="M96,48.17s-9.13,5.17-5.56,11.09,11.82,2.19,11.82,2.19l-2.15-7.78Z"/><path class="cls-5" d="M96,48.17l4.11,5.5.54,2a38.53,38.53,0,0,1-9.85,4.18l-.36-.55C86.88,53.34,96,48.17,96,48.17Z"/><path class="cls-6" d="M90.29,59.36A5.45,5.45,0,0,1,89.62,55c1-4,6.08-6.9,6.29-7l.15-.08,4.21,5.63,0,0,2.2,8-.15.06a11.7,11.7,0,0,1-1.61.58C98,63,92.92,63.72,90.29,59.36Zm9.65-5.61-4-5.33c-.84.5-5.06,3.21-6,6.69a5.11,5.11,0,0,0,.63,4c2.5,4.15,7.35,3.46,10,2.67a12.24,12.24,0,0,0,1.42-.49Z"/><path class="cls-5" d="M99.53,58.84s3.81,6.86,2.93,6.86a27,27,0,0,1-10.15,4.08C86.48,62.66,99.53,58.84,99.53,58.84Z"/><path class="cls-6" d="M92.34,70l-.11,0-.07-.08c-1.38-1.7-1.84-3.36-1.35-4.94,1.27-4.1,8.36-6.22,8.66-6.31l.15,0,.07.13c.8,1.44,3.37,6.18,3.06,7a.31.31,0,0,1-.22.18,24.5,24.5,0,0,1-7.24,3.35h0C94.36,69.5,93.37,69.75,92.34,70Zm10.07-4.45c.07-.54-1.42-3.64-3-6.45-1,.33-7.15,2.42-8.27,6a4.82,4.82,0,0,0,1.21,4.5c1-.21,1.91-.44,2.8-.7a24,24,0,0,0,7.17-3.32l0,0Z"/><path class="cls-1" d="M100.49,62.33S92.08,71,84.13,65.74C76.91,61,75.42,52.82,75.87,51s7.78-.7,14.79,3.36c4.39,2.85,5.5,4.3,9.37,4.06A30.46,30.46,0,0,1,100.49,62.33Z"/><path class="cls-3" d="M75.87,51c.46-1.81,7.78-.7,14.79,3.36,1.46,1,2.56,1.75,3.52,2.38l.16.55c-1,1.1-2.59.56-4,.57.83.15,2.42.87,1.86,1.63a1.43,1.43,0,0,1-1.64.48c.27.9,2,.61,1.57,1.31-.26.47-1.4.61-2.13.82.84.15,1.7,1.08,1,1.48a9.83,9.83,0,0,1-8.6.9C76.68,59.65,75.45,52.67,75.87,51Z"/><path class="cls-4" d="M75.89,51c.54-1.76,7.81-.65,14.77,3.39,1.46,1,2.55,1.74,3.51,2.37a12.54,12.54,0,0,1-7.56-.92C82.84,54.48,79.77,51.87,75.89,51Z"/><path class="cls-2" d="M84,65.9c-7.25-4.8-8.83-13-8.34-14.94a1.24,1.24,0,0,1,1-.82c2.27-.66,8.3.7,14.1,4.07.84.54,1.56,1,2.19,1.47,2.75,1.89,4,2.75,7.07,2.56h.17l0,.16a30,30,0,0,1,.46,3.94v.08l-.06.06A20,20,0,0,1,93,67.13h0A10.24,10.24,0,0,1,84,65.9Zm15.84-7.28c-3.08.16-4.45-.78-7.13-2.62-.63-.44-1.35-.93-2.17-1.47-5.54-3.2-11.6-4.67-13.8-4-.41.12-.65.3-.71.55-.22.84,0,3.29,1.24,6.13a19,19,0,0,0,6.94,8.4,9.9,9.9,0,0,0,8.6,1.18,19.52,19.52,0,0,0,7.45-4.51A28.69,28.69,0,0,0,99.87,58.62Z"/><path class="cls-2" d="M100.12,59.19l0-.38c-10.77.93-24-7.87-24.1-8l-.21.32C75.9,51.26,89.21,60.12,100.12,59.19Z"/><path class="cls-2" d="M100.24,59.84l-.09-.36c-11.6,2.71-23.51-4-23.63-4.06l-.19.32C76.45,55.81,88.49,62.6,100.24,59.84Z"/><path class="cls-2" d="M99,61c.46-.13.91-.28,1.36-.44l-.13-.36c-9.66,3.41-20.88.69-21,.66l-.09.37C79.28,61.28,89.59,63.79,99,61Z"/><path class="cls-2" d="M94.21,64a19.64,19.64,0,0,0,6.17-2.88l-.22-.3c-5.8,4.3-16.44,4.35-16.55,4.35v.38A43.45,43.45,0,0,0,94.21,64Z"/><path class="cls-5" d="M101.5,54a53,53,0,0,0,5.13,6.49,7.92,7.92,0,0,0,7,2.79c-2.61,1.81-6.52,2.47-11.21,2.47C95.17,62.43,99.34,56.41,101.5,54Z"/><path class="cls-6" d="M102.46,65.89h0l0,0c-2.34-1.05-3.73-2.48-4.11-4.25-.65-3,1.66-6.16,3.09-7.79l.16-.19.14.21a52.48,52.48,0,0,0,5.11,6.46A7.72,7.72,0,0,0,113.65,63l.75-.08-.62.43A12.08,12.08,0,0,1,110.33,65h0A28,28,0,0,1,102.46,65.89Zm4-5.33a52.91,52.91,0,0,1-5-6.3c-1.39,1.63-3.43,4.58-2.84,7.28.35,1.64,1.65,3,3.86,4a27.75,27.75,0,0,0,7.72-.9h0a12.29,12.29,0,0,0,2.72-1.14A8.12,8.12,0,0,1,106.49,60.56Z"/><path class="cls-5" d="M94.58,52.27c-1.29-4.11,1.37-6.11,3.42-7,.5,4.33,3.14,8.55,6,12.13C101.55,57.5,96.11,57.15,94.58,52.27Z"/><path class="cls-5" d="M94.58,52.27c-1.29-4.11,1.37-6.11,3.42-7a21.64,21.64,0,0,0,4,9.48,37.17,37.17,0,0,1-3.21,1.91A6.77,6.77,0,0,1,94.58,52.27Z"/><path class="cls-6" d="M104,57.59c-2.37.1-8-.22-9.63-5.27C93,48,96,45.92,97.92,45.09l.24-.1,0,.25c.42,3.63,2.37,7.57,6,12l.23.29Zm-9.27-5.38c1.43,4.55,6.42,5,8.87,5-3.41-4.31-5.31-8.13-5.79-11.68C95.73,46.53,93.59,48.48,94.76,52.21Z"/><path class="cls-5" d="M93.8,38.82c.68-4.64,5.71-5.15,8.89-5-.49.64-1,1.27-1.52,1.88a11.83,11.83,0,0,0-2.94,10.9A6.8,6.8,0,0,1,93.8,38.82Z"/><path class="cls-6" d="M98.15,46.79a7,7,0,0,1-4.54-8A5.54,5.54,0,0,1,98,34.1a14.36,14.36,0,0,1,4.72-.46l.36,0-.22.29c-.51.67-1,1.3-1.53,1.89a11.72,11.72,0,0,0-2.9,10.73l.08.36Zm-.06-12.33A5.21,5.21,0,0,0,94,38.85a6.57,6.57,0,0,0,4,7.45,12.05,12.05,0,0,1,3-10.71c.43-.49.86-1,1.3-1.58A13.7,13.7,0,0,0,98.09,34.46Z"/><path class="cls-5" d="M96.87,26.88c1.58-5.58,8.93-4,12.31-3a100.69,100.69,0,0,1-7.64,11.38C99.35,34.49,95.34,32.29,96.87,26.88Z"/><path class="cls-7" d="M109.18,23.89c-.39.61-.78,1.26-1.2,1.93a41.22,41.22,0,0,0-8.69-2.09C102.2,22.11,106.73,23.13,109.18,23.89Z"/><path class="cls-6" d="M101.48,35.45c-2-.7-6.39-3-4.79-8.62a5.27,5.27,0,0,1,3.8-3.8c2.92-.86,6.73.06,8.75.68l.23.07-.13.21c-.44.7-.89,1.44-1.38,2.23a75.33,75.33,0,0,1-6.27,9.17l-.09.1Zm-.89-12.06a4.91,4.91,0,0,0-3.54,3.54c-1.43,5.08,2.1,7.26,4.43,8.12a75.14,75.14,0,0,0,6.16-9l1.25-2C106.87,23.39,103.31,22.6,100.59,23.39Z"/><path class="cls-5" d="M105.15,21c.69-2.21,3.46-3,5.75-3.3a28.22,28.22,0,0,1,3.44,1l0,0c-2.19,0-4.32,3.77-7.17,8.41C106,26,104.32,23.7,105.15,21Z"/><path class="cls-7" d="M105.15,21c.69-2.21,3.46-3,5.75-3.3a28.22,28.22,0,0,1,3.44,1l0,0c-2,0-3.9,3.06-6.34,7.05-.79-.28-1.59-.54-2.39-.78A5.18,5.18,0,0,1,105.15,21Z"/><path class="cls-6" d="M107,27.31c-1.14-1.17-2.92-3.55-2-6.33.43-1.39,1.68-2.39,3.71-3a12.41,12.41,0,0,1,2.2-.44h.06a26.46,26.46,0,0,1,3.47,1l.22.08-.21.31h-.1a2,2,0,0,0-.53.07c-1.75.52-3.55,3.46-5.83,7.19l-.64,1.06-.13.2Zm3.87-9.37a12,12,0,0,0-2.1.42c-1.9.56-3.07,1.48-3.46,2.73-.77,2.46.72,4.62,1.79,5.78l.52-.85c2.29-3.75,4.11-6.73,6-7.33A27.71,27.71,0,0,0,110.89,17.94Z"/><path class="cls-9" d="M119.87,60.5s-7.42,6.32-13.24-.06-13-16.2-5.46-24.73c6.47-7.51,9.8-17.36,13.37-16.93,3.09.08,16.29,7.36,20.09,12.68,2.89,1.79,5.15,3,6.1,5.12-1.77,1.83-10.89,13.31-10.89,13.31a39.7,39.7,0,0,0,7.84-1C135.09,53,128.09,58.29,119.87,60.5Z"/><path class="cls-10" d="M115,57.72c-2.29.28-4.32-1.3-6-2.79a27.86,27.86,0,0,0,1.61,3.47,7.6,7.6,0,0,1-5-1.24c-5.11-3.76-8.91-8.43-8.2-14.85a12.2,12.2,0,0,1,3.14-6.48c6.47-7.51,9.8-17.36,13.37-16.93,3.08.08,16.29,7.35,20.09,12.68,2.88,1.79,5.72,2.93,6.09,5.12-1.46,1.52-8,9.72-10.19,12.43l.12-.37-.12.37-.69.88h.38C127.4,55.59,120.71,57,115,57.72Z"/><path class="cls-11" d="M106.49,60.56c-2.53-2.78-6.09-7-7.78-11.62-1.85-5-1.07-9.53,2.31-13.35A71.11,71.11,0,0,0,107.64,26c2.32-3.8,4.15-6.8,6-7.35a2.13,2.13,0,0,1,.86-.08c3,.08,16.34,7.34,20.21,12.73.56.35,1.12.67,1.65,1,2.25,1.29,3.72,2.63,4.32,4.37l-.17.26.08.18c-1.58,1.63-8.95,10.76-10.41,12.59a42.21,42.21,0,0,0,7.41-1l.44-.11-.24.39c-2.45,4-9.14,9.18-17.2,11.54h0l-.68.19a13.9,13.9,0,0,1-4.57,2.4A8.26,8.26,0,0,1,106.49,60.56Zm13.33-.24.71-.2h0c7.71-2.26,14.15-7.16,16.74-11a38.17,38.17,0,0,1-7.44.95h-.38l.24-.3c.37-.46,8.65-11.11,10.54-13.13-.33-1.62-1.88-2.79-4-4-.56-.32-1.13-.65-1.7-1l0,0,0,0c-3.79-5.32-16.94-12.52-20-12.6a1.83,1.83,0,0,0-.73.06c-1.75.52-3.55,3.46-5.83,7.19a71.23,71.23,0,0,1-6.65,9.62c-7.44,8.39-.44,18,5.46,24.47a7.81,7.81,0,0,0,8.51,2.4,13.76,13.76,0,0,0,4.46-2.35l0,0Z"/><path class="cls-11" d="M119.89,60.69l0-.38c-5.56.58-8.08-2.88-8.1-2.92S114.1,61.29,119.89,60.69Z"/><path class="cls-10" d="M140.34,36.78s4.73,5.35,8.11,4.57,4.32-.55,4.1,1.06c-.48,3.47-3.26,6.74-15.17,12.13A81.63,81.63,0,0,1,124,59.08s-7.82,2.05-4.73-3.1"/><path class="cls-5" d="M152.6,42.09s-17,10.28-36,5.67C116.62,47.76,139.79,56.47,152.6,42.09Z"/><path class="cls-5" d="M114.63,48.58s3.37.36,3.22-4C117.85,44.58,116.76,47.89,114.63,48.58Z"/><path class="cls-12" d="M121.89,59.89s14.37-3.91,21.25-8c6.63-3.92,9.77-6.84,9.44-10.19-.17-1.74-4.62-.31-4.62-.31s-3.36.34-7.4-4.64"/><path class="cls-13" d="M147.8,41.73c-6.43,2.28-21.67-8.53-26.89-11.54-4-2.48-8.54-3.29-13-4.2,2.58-4.23,4.58-7.46,6.66-7.21,3.09.08,16.29,7.36,20.09,12.68,2.83,1.75,5.18,3,5.65,5.12A13.59,13.59,0,0,0,147.8,41.73Z"/><ellipse cx="121.75" cy="37.21" rx="6.23" ry="6.48" transform="translate(-5.55 35.73) rotate(-16.33)"/><path class="cls-14" d="M116.68,39.14a5.82,5.82,0,1,0,3.88-7.44A5.94,5.94,0,0,0,116.68,39.14Z"/><path class="cls-15" d="M117.09,34.59a5.67,5.67,0,0,1,3.47-2.89,5.94,5.94,0,0,1,7.29,4.17,6.13,6.13,0,0,1-1.19,5.7C122.22,41.86,118.49,38.85,117.09,34.59Z"/><path d="M116.5,39.2A6,6,0,1,1,124,43.5,6.14,6.14,0,0,1,116.5,39.2Zm.36-.11a5.63,5.63,0,1,0,3.75-7.21A5.76,5.76,0,0,0,116.86,39.09Z"/><path class="cls-16" d="M119.37,38.93c1.07,2.35,3.53,3.59,5.49,2.75s2.68-3.42,1.61-5.78-3.53-3.59-5.49-2.76S118.3,36.57,119.37,38.93Z"/><path class="cls-17" d="M118.88,36.54a3.69,3.69,0,0,1,2.1-3.4c2-.83,4.42.4,5.49,2.76a4.87,4.87,0,0,1,0,4.25A10.14,10.14,0,0,1,118.88,36.54Z"/><path class="cls-18" d="M119.17,39c-1.11-2.45-.34-5.16,1.73-6s4.66.39,5.77,2.84.34,5.16-1.73,6S120.29,41.46,119.17,39Zm.4-.17c1,2.26,3.37,3.46,5.21,2.67s2.52-3.27,1.49-5.53-3.37-3.45-5.21-2.66S118.54,36.58,119.57,38.84Z"/><path d="M120,38.81c.86,1.89,2.82,2.89,4.37,2.23s2.11-2.73,1.25-4.63-2.82-2.9-4.37-2.23S119.17,36.91,120,38.81Z"/><path class="cls-15" d="M123.16,34.6a1.2,1.2,0,0,0,1.57.49,1.12,1.12,0,0,0,.68-1.45,1.17,1.17,0,0,0-1.56-.49A1.12,1.12,0,0,0,123.16,34.6Z"/><ellipse class="cls-15" cx="125.23" cy="40" rx="0.73" ry="0.63" transform="translate(-6.21 42.59) rotate(-18.84)"/></svg>