<svg id="Layer_1" data-name="Layer 1" xmlns="http://www.w3.org/2000/svg" viewBox="0 0 76.36 101.6"><defs><style>.cls-1{fill:#ff9f57;stroke:#5e3b2c;stroke-miterlimit:10;}.cls-2{fill:#e6eb99;}.cls-3{fill:#c8af6e;}</style></defs><path class="cls-1" d="M48.82,6.72s.21,14.7,9,26.78S78.16,61.29,71.2,77.05,46.45,101.14,21.93,99c0,0-1.47-.56-.59-6s1.93-11.79,10.4-19.31c8.09-7.17,2.95-46.57,3.7-53.39S40.86,2.45,48.82,6.72Z"/><circle class="cls-2" cx="34.62" cy="86.29" r="3.88"/><circle class="cls-2" cx="43.61" cy="87.35" r="2.41"/><circle class="cls-2" cx="62.05" cy="72.99" r="3.91"/><ellipse class="cls-2" cx="41.17" cy="62.76" rx="2.41" ry="3.91" transform="translate(-5.98 4.36) rotate(-5.65)"/><circle class="cls-2" cx="43.47" cy="45.06" r="3.27"/><path class="cls-3" d="M33.44,16.87s.1-15.72,12-14.78C57.59,3,56.44,18.63,52,20.6c0,0,5.42-11.6-4-16.21C39.2.11,35.17,11.76,33.44,16.87Z"/><path class="cls-3" d="M49.68,12.43s.15-5.92-5.21-6-8.06,8.2-8.06,8.2.27-8.23,7.25-9.28C51.64,4.14,51.25,11.57,49.68,12.43Z"/></svg>