<svg xmlns="http://www.w3.org/2000/svg" xmlns:xlink="http://www.w3.org/1999/xlink" viewBox="0 0 209.26 156.77"><defs><style>.cls-1{isolation:isolate;}.cls-2{fill:#e8940f;}.cls-3{fill:#231f20;}.cls-4{fill:#8e3411;}.cls-16,.cls-17,.cls-21,.cls-5{mix-blend-mode:multiply;}.cls-6{fill:url(#radial-gradient);}.cls-23,.cls-7{mix-blend-mode:screen;}.cls-8{fill:url(#linear-gradient);}.cls-9{fill:url(#linear-gradient-2);}.cls-10{fill:url(#linear-gradient-3);}.cls-11,.cls-27{fill:#c97506;mix-blend-mode:color-dodge;}.cls-12{fill:#da5232;}.cls-13,.cls-23,.cls-26{fill:#fff;}.cls-13{stroke:#8e8e8e;}.cls-13,.cls-14,.cls-15,.cls-17,.cls-27{stroke-miterlimit:10;}.cls-13,.cls-14,.cls-15{stroke-width:0.5px;}.cls-14{fill:#cc5729;}.cls-14,.cls-15,.cls-17,.cls-27{stroke:#1d1d1b;}.cls-15{fill:url(#linear-gradient-4);}.cls-16,.cls-17{fill:#abadaf;}.cls-16,.cls-17,.cls-25{opacity:0.4;}.cls-17,.cls-27{stroke-width:0.25px;}.cls-18{fill:#ee982a;}.cls-19{fill:url(#linear-gradient-5);}.cls-20{fill:url(#linear-gradient-6);}.cls-21{fill:#da713b;opacity:0.6;}.cls-22{fill:#fffac4;}.cls-22,.cls-23{opacity:0.5;}.cls-24{fill:url(#linear-gradient-7);}.cls-25{fill:#000068;}.cls-28{fill:#510000;}</style><radialGradient id="radial-gradient" cx="-931.16" cy="1198.08" r="49.66" gradientTransform="matrix(-0.99, 0.24, 0.23, 1.02, -1096.51, -994.45)" gradientUnits="userSpaceOnUse"><stop offset="0" stop-color="#ffeb60"/><stop offset="0.13" stop-color="#fee459"/><stop offset="0.31" stop-color="#fad245"/><stop offset="0.53" stop-color="#f5b326"/><stop offset="0.73" stop-color="#ee9001"/><stop offset="0.74" stop-color="#dd5536"/></radialGradient><linearGradient id="linear-gradient" x1="-942.94" y1="1327.06" x2="-920.42" y2="1342.59" gradientTransform="matrix(-0.97, 0.23, 0.23, 0.97, -1095.46, -1071.41)" gradientUnits="userSpaceOnUse"><stop offset="0.04" stop-color="#d2b597"/><stop offset="0.08" stop-color="#bda388"/><stop offset="0.19" stop-color="#84725f"/><stop offset="0.29" stop-color="#55493d"/><stop offset="0.39" stop-color="#302922"/><stop offset="0.49" stop-color="#161310"/><stop offset="0.57" stop-color="#060504"/><stop offset="0.63"/></linearGradient><linearGradient id="linear-gradient-2" x1="-590.59" y1="165.2" x2="-542.46" y2="165.2" gradientTransform="translate(545.75 -281.05) rotate(-19.85)" gradientUnits="userSpaceOnUse"><stop offset="0.57" stop-color="#da5934"/><stop offset="0.87" stop-color="#de6435"/><stop offset="0.99" stop-color="#bf6b4e"/></linearGradient><linearGradient id="linear-gradient-3" x1="-503.74" y1="234.09" x2="-477.38" y2="234.09" xlink:href="#linear-gradient-2"/><linearGradient id="linear-gradient-4" x1="-172.19" y1="193.76" x2="-35.54" y2="193.76" gradientTransform="matrix(-0.94, 0.34, 0.34, 0.94, -117.3, -41.72)" gradientUnits="userSpaceOnUse"><stop offset="0.53" stop-color="#b05439"/><stop offset="0.86" stop-color="#624229"/></linearGradient><linearGradient id="linear-gradient-5" x1="-690.58" y1="849.64" x2="-664.82" y2="849.64" gradientTransform="translate(416.19 -930.75) rotate(-24.18)" xlink:href="#linear-gradient-2"/><linearGradient id="linear-gradient-6" x1="-686.39" y1="811.89" x2="-660.63" y2="811.89" gradientTransform="translate(416.19 -930.75) rotate(-24.18)" xlink:href="#linear-gradient-2"/><linearGradient id="linear-gradient-7" x1="-143.88" y1="196.41" x2="8.74" y2="196.41" gradientTransform="matrix(-0.94, 0.34, 0.34, 0.94, -117.3, -41.72)" gradientUnits="userSpaceOnUse"><stop offset="0.01" stop-color="#cce0f4"/><stop offset="0.05" stop-color="#cdd9eb"/><stop offset="0.1" stop-color="#cfc6d1"/><stop offset="0.18" stop-color="#d2a8a8"/><stop offset="0.27" stop-color="#d67e6f"/><stop offset="0.35" stop-color="#db4f2f"/><stop offset="0.57" stop-color="#1e9cd7"/><stop offset="0.99" stop-color="#a85338"/></linearGradient></defs><g class="cls-1"><g id="Layer_1" data-name="Layer 1"><path class="cls-2" d="M127.35,27.08s.26-1.11,4.79-8.94-2-10.11-5.45-7.38-4.54,1.08-8.71-.71-13-5.4-15.32,5.54c-1.26,5-4.63,5.95-9.79,5.78s-10,3.26-9.79,10.31c0,4.34-2,6.2-6.33,9s-8.08,5.83-4.32,7.26C73,48.12,97.21,26.94,127.35,27.08Z"/><path class="cls-3" d="M127,27.12a11.8,11.8,0,0,1,1.19-2.51c.77-1.46,1.58-2.89,2.39-4.33,1.22-2.14,2.67-4.26,2.75-6.82a3.49,3.49,0,0,0-2.05-3.35c-2.18-1-3.92.53-5.68,1.57-2.58,1.54-5-.15-7.37-1.26a20.9,20.9,0,0,0-7.85-2.25C106,8,103.84,11.68,103,15.56a7.08,7.08,0,0,1-5.27,5.58c-3.64.86-7.35-.24-10.64,2A8.59,8.59,0,0,0,84,27.44c-.68,1.91-.4,3.9-.67,5.87-.42,3.19-2.94,5.15-5.41,6.81a32,32,0,0,0-5.75,4.32c-.63.68-1.21,1.62-.67,2.52.22.36.77.93,1.09.71,1.22-.79,2.37-1.7,3.56-2.53,12.16-8.54,25.93-15,40.61-17.39a68.2,68.2,0,0,1,10.78-.82c.42,0-.08.3-.28.3-17.43,0-34.11,6.9-48.48,16.53-1.64,1.09-3.23,2.24-4.82,3.39-.35.25-1.23,1.11-1.74.88-3.75-1.62.45-4.73,2.25-6,3-2.23,7-3.89,8.07-7.88.47-1.73.17-3.57.49-5.33a9.32,9.32,0,0,1,2.14-4.43,9.85,9.85,0,0,1,7-3.12c2-.11,3.85.1,5.78-.45a6.29,6.29,0,0,0,4.13-4.25c.68-1.84.92-3.66,2-5.36a7.15,7.15,0,0,1,2.68-2.47c4.46-2.47,10.32.58,14.35,2.55,1.21.6,2.34,1.07,3.74.5A19.5,19.5,0,0,0,127,10.32a6.57,6.57,0,0,1,3-.82,3.82,3.82,0,0,1,4,4.2c-.07,2-1.22,3.83-2.18,5.5s-1.91,3.37-2.82,5.08a13.16,13.16,0,0,0-1.35,2.77C127.63,27.23,127,27.3,127,27.12Z"/><path class="cls-4" d="M124.35,18.5a10,10,0,0,0-.55,1,21.46,21.46,0,0,0-1,2.26,19.49,19.49,0,0,0-.69,2.36,9.5,9.5,0,0,0-.19,1.13s.25-.39.55-1a18.93,18.93,0,0,0,1-2.27,20.65,20.65,0,0,0,.68-2.36A8.87,8.87,0,0,0,124.35,18.5Z"/><path class="cls-4" d="M120.12,17.93a7.44,7.44,0,0,0-.35,1,17.06,17.06,0,0,0-.51,2.24,19.4,19.4,0,0,0-.22,2.3,9.18,9.18,0,0,0,0,1.05,8.27,8.27,0,0,0,.36-1,22.65,22.65,0,0,0,.5-2.24,17.52,17.52,0,0,0,.22-2.29A9.3,9.3,0,0,0,120.12,17.93Z"/><path class="cls-4" d="M111,19.21a9,9,0,0,0-.12,1,19.4,19.4,0,0,0,0,2.27,17.36,17.36,0,0,0,.32,2.25,7.72,7.72,0,0,0,.25,1,7.93,7.93,0,0,0,.13-1.05,17.78,17.78,0,0,0,0-2.27,17.38,17.38,0,0,0-.3-2.25A8.11,8.11,0,0,0,111,19.21Z"/><path class="cls-4" d="M106.73,21.46a4.72,4.72,0,0,0,0,.82,12.77,12.77,0,0,0,.31,1.75,12.28,12.28,0,0,0,.59,1.67,5.35,5.35,0,0,0,.39.72,4.74,4.74,0,0,0,0-.82,10.81,10.81,0,0,0-.9-3.42A4.65,4.65,0,0,0,106.73,21.46Z"/><g class="cls-5"><path class="cls-6" d="M76.73,40.54C81.05,37.76,83,35.88,83,31.48c-.28-7.16,4.58-10.6,9.75-10.43s8.54-.79,9.78-5.83c.94-4.67,3.07-6.72,5.51-7.39a8.6,8.6,0,0,0-4.22,6.09c-1.13,6.48-2.77,8.29-10.09,9.2C82.2,23.87,82.66,38.78,90,32.69s16.87-6,16.39-9-.47-7.06.62-3.32,3.38,6.83,3.34,1.67,1.21-7.68,2-2.12,3.34,6.61,5.09,2.78,3.46-8.79,3-4.92-.48,7.86.57,5.49,3.58-9.29,3.41-6.56-2.88,7.85-.5,7.28a20.57,20.57,0,0,1,4.92-.19A21.93,21.93,0,0,0,127.32,27C97.16,26.72,73,48.12,72.43,47.9,68.66,46.43,72.41,43.32,76.73,40.54Z"/></g><g class="cls-7"><path class="cls-8" d="M126.81,13.05c-7.55,2.84-9.16-.18-12.76-2.49s-7.19-4.13-10.37,1.2c3.25-6.76,10.53-3.71,14.2-2.11,4.18,1.83,5.25,3.5,8.72.75,3.12-2.48,8.68-.86,6.53,5.23C133.26,14.38,133.16,10.66,126.81,13.05Z"/></g><path class="cls-3" d="M85.2,42.75S82.76,40.42,75,36.23,58.88,28,57.55,42.87c-1.37,15.22-1.07,20.39-1.95,28.85-1.35,13-3.84,20.12-3.84,20.12l13.36,10.85Z"/><path class="cls-9" d="M86.1,43.29S83.66,41,75.85,36.77s-16.07-8.26-17.41,6.64C57.07,58.63,57.38,63.8,56.5,72.26c-1.35,13-3.85,20.12-3.85,20.12L66,103.23Z"/><path class="cls-4" d="M78.16,57.41S68.89,60.5,64.3,62.24c-2.85,1.08-5.65,3.64-7.35,5.43-.08,1.14-.16,2.3-.27,3.52a38.59,38.59,0,0,1,5.1-5.3C65.46,62.78,78.16,57.41,78.16,57.41ZM60.26,73.68c3.18-3.86,14-10.16,14-10.16S68.55,66,64.16,68c-2.7,1.25-5.86,4.56-7.88,6.9-.19,1.53-.38,3-.59,4.29C57,77.66,58.69,75.61,60.26,73.68ZM84.1,46.75s-8.37-5.24-13.49-8.63a25.27,25.27,0,0,0-8.82-3.55,7.93,7.93,0,0,0-2.08,3.28c1.74,0,4,.09,6.28.28C70.38,38.49,84.1,46.75,84.1,46.75ZM63.45,44.63c5.19-.6,20.65,2.12,20.65,2.12s-12.44-3-16.76-4.92c-2.86-1.28-6.5-.41-8.65.33-.07.52-.16,1-.21,1.61s-.12,1.36-.17,2A23.35,23.35,0,0,1,63.45,44.63Zm-9,41.58c1.93-2.35,4.94-6,6.62-8,2.61-3,8.9-7,8.9-7a54,54,0,0,0-8.82,5.2A41,41,0,0,0,55,83.18C54.82,84.28,54.61,85.29,54.41,86.21ZM64.87,51.57c3.42-2,18-3.19,18-3.19s-12.83.86-17.21.27c-2.65-.36-5.76,1.43-7.79,2.9-.1,1.48-.19,2.84-.26,4.12C59.24,54.78,62.44,53,64.87,51.57Zm16,.09a116.8,116.8,0,0,0-13,3.63,37,37,0,0,0-10.56,6.46c-.05,1.11-.1,2.19-.16,3.23,1.49-1.43,3.86-3.63,6.46-5.76C67.92,55.68,80.88,51.66,80.88,51.66Z"/><path class="cls-3" d="M158.1,88.89S185.35,107.37,180,118s-18.33,5.34-23.42.53c-7.26-6.84-5-14.81-5-14.81Z"/><path class="cls-10" d="M157.59,87.71s27.24,18.48,21.89,29.14-18.33,5.34-23.42.53c-7.25-6.84-5-14.81-5-14.81Z"/><path class="cls-11" d="M178.33,118.62a13.89,13.89,0,0,0,1.27-2,6.38,6.38,0,0,0,.63-2.06,50.6,50.6,0,0,0-5.11-8.16c-6.57-8.69-16.65-17.51-17.66-18.38v0c.92,1,8.84,9.61,12.77,14.94C175.8,110.49,177.68,115.78,178.33,118.62Zm-15.65,2.59c-.14-1.53-.48-5.51-.47-7.47,0-2.47-6.14-19-6.14-19s3.2,15,3.22,18.36a8.05,8.05,0,0,1-1.7,5.15A23.25,23.25,0,0,0,162.68,121.21Zm5.83-10.86A39,39,0,0,1,172,122.54a10,10,0,0,0,4.32-1.93c-1.09-1.71-3.47-5.6-6.06-10.76-3.53-7-13.28-19.44-13.28-19.44S165.34,103.82,168.51,110.35Zm-3.36,4.86a19.32,19.32,0,0,1-.44,6.74,16.9,16.9,0,0,0,5.29.8,35.33,35.33,0,0,0-3.45-11.56c-3.67-8-10.14-18.94-10.14-18.94S164,107.76,165.15,115.21Zm-8.45-7a79.16,79.16,0,0,0-2-10.35,56.24,56.24,0,0,1-.92,10.39,14.36,14.36,0,0,1-1.43,3.7,17,17,0,0,0,3,4.33A19.84,19.84,0,0,0,156.7,108.18Z"/><path class="cls-12" d="M106.66,120.47s-9,13.58-13.38,18.92S78.89,154,74.07,146.05s-3.34-19.14-7.38-22.6-3.85-6.9-3.85-6.9Z"/><path class="cls-4" d="M93.34,137.51c.06.6.1,1.15.12,1.66.76-.94,1.66-2.12,2.61-3.42A48.93,48.93,0,0,1,90.51,127,48.37,48.37,0,0,1,93.34,137.51Zm2-11.49a61.63,61.63,0,0,1,3.12,6.42l.79-1.11C98,129.66,96.67,127.8,95.33,126ZM75.61,147.9a95,95,0,0,1,0-10.09c.34-2.41,3-11.28,3-11.28s-2.21,6.22-3.71,9.71a6.05,6.05,0,0,1-3.4,3.48,24.28,24.28,0,0,0,2.6,6.33A6.89,6.89,0,0,0,75.61,147.9Zm11-13.21c.11,2.26.21,8,.26,11a37.56,37.56,0,0,0,4.05-3.66C87.79,136.9,86,127.22,86,127.22S86.43,131.35,86.59,134.69Zm-6.3,1.65c-.74,3.89-2.19,10.57-2.63,12.63a8.59,8.59,0,0,0,6.13-1.23,31.12,31.12,0,0,1-1.62-7.1c-.23-4.31-.13-13.71-.13-13.71S81.13,132,80.29,136.34Z"/><path class="cls-3" d="M74.07,146.05c-4.83-8-3.34-19.14-7.38-22.6s-3.85-6.9-3.85-6.9c6,1.37,11.13,4.8,10.91,8.29-.4,6.2-2.54,12.43-.86,16.69,4.09,10.34,17.64,1.35,20.83-3.38,3.57-5.29,8.69-19,8.69-19s10.08,3.77,6.21,6.72c-6.23,4.74-12,9.89-15.13,13.78C89.13,145,78.89,154,74.07,146.05Z"/><path class="cls-3" d="M75.11,120.68s1.09,7.73-1.44,12.73c0,0,4-4.75,3-13.22Z"/><path class="cls-3" d="M80.3,121.69s-1.81,15.09-3.45,20.55c0,0,5.23-12.28,4.21-20.74Z"/><path class="cls-3" d="M82.38,119.71s1.5,15.13,1.09,20.81c0,0,2.45-13.12-.39-21.16Z"/><path class="cls-3" d="M84.33,118.64s5.65,14.11,6.83,19.69c0,0-1.3-13.28-6.26-20.22Z"/><path class="cls-3" d="M85.54,114.87s8,12.94,10.09,18.23c0,0-3.55-12.86-9.62-18.85Z"/><path class="cls-3" d="M88.53,109.81s8,12.94,10.1,18.22c0,0-3.55-12.86-9.62-18.85Z"/><path class="cls-13" d="M44.09,113c-4.85-6.46-6.06-15-6.44-19.62C47.91,99.35,48.91,97,51.53,90.59a75.87,75.87,0,0,0,3,8.58c3.19,7.88,2.53,12.47,4.73,18.72A35.57,35.57,0,0,1,52.66,114c1.8,5.76.44,11.5-2.15,16.56A34.71,34.71,0,0,0,44.09,113Z"/><path class="cls-13" d="M64.88,80.53a43.53,43.53,0,0,1-6-8.4c.93-2.28,1.85-4.56,2.8-6.84C65,57.24,69.07,49.67,75,43.38c2.26,4.06,6.08,10.24,10.3,14,6.68,6,9,9.24,10.83,21.89s11.18,25,12.36,27.18c1,1.79,3.92,10.74,3.78,17.51-14.9,2.67-27.77,1.93-37.88-.66-.37-5.7-4.18-11.1-3.53-18C71.69,97.22,70.4,86.6,64.88,80.53Z"/><path class="cls-13" d="M112.53,80.67c-1.45-6.73-2.28-12.27-5.75-21.91s3-22,6.07-30.4A23.61,23.61,0,0,1,119,19.2a83.52,83.52,0,0,1,18.24-1.71c-2.38,1.12-5.85,3.47-8.4,8.93-4.64,9.94-4.28,17.47-.94,24.53s2.16,12.52,3,16.87,7.25,8.67,18.7,12.19,13.27,5.3,14.28,7.55c.67,1.5,6.56,2.49,10.82,4.29A191.28,191.28,0,0,1,145,112.67c-2.25,1.28-4.49,2.45-6.7,3.51-5.35-4.74-9.61-13.84-12.2-20.07C123.22,89.1,114,87.4,112.53,80.67Z"/><path class="cls-14" d="M108.53,106.5C107.35,104.3,98,92,96.17,79.32S92,63.48,85.34,57.43c-4.22-3.81-8-10-10.3-14,.18-.19.35-.38.53-.56A87.79,87.79,0,0,1,96.51,27.6,84.36,84.36,0,0,1,119,19.2a23.61,23.61,0,0,0-6.11,9.16c-3.06,8.36-9.55,20.77-6.07,30.4s4.3,15.18,5.75,21.91,10.69,8.43,13.61,15.44c2.59,6.23,6.85,15.33,12.2,20.07a99.8,99.8,0,0,1-25.85,8.51C112.64,117.92,109.5,108.29,108.53,106.5Z"/><path class="cls-14" d="M163.79,87.56c-1-2.25-2.82-4-14.28-7.55s-17.91-7.84-18.7-12.19.38-9.81-3-16.87-3.7-14.59.94-24.53c2.55-5.46,5.76-7.94,8.15-9,31.62.27,53.67,17.24,53.67,17.24s4.79-2.63,6.15.39c.53,1.17-.32,2.48-.13,4.63,4.41,2.44,1.21,6.61.45,9.92,1,16.41-8.19,30.38-22.26,42.61C170.57,90.36,164.46,89.06,163.79,87.56Z"/><path class="cls-15" d="M28,129.13c-1.17-12.48.67-13.34-11.1-26.42C8.52,93.44,13,83.52,15.16,79.63c1.61.58,5.34,2.74,15.33,9.29,2.8,1.85,5.16,3.33,7.16,4.49C38,98,39.24,106.57,44.09,113a34.71,34.71,0,0,1,6.42,17.5A49.93,49.93,0,0,1,39,144.68C33.64,143.54,28.89,139,28,129.13Z"/><path class="cls-3" d="M14.81,106.26c-9.54-12.88-1.8-26.15-1-26.64.26-.16.55-.26,1.34,0-2.21,3.89-6.64,13.81,1.7,23.08,11.77,13.08,9.93,13.94,11.1,26.42.93,9.84,5.68,14.41,11.07,15.55a15.6,15.6,0,0,1-3.23,2.38c-1.33.08-10.07-2.41-11.78-15.3C23.21,114.32,20.72,113.41,14.81,106.26Z"/><path class="cls-14" d="M54.57,99.17a78.93,78.93,0,0,1-3.09-8.82c.12-.29.24-.58.37-.87,2.4-5.76,4.69-11.56,7-17.35a43.53,43.53,0,0,0,6,8.4c5.52,6.07,6.81,16.69,6,24.84-.65,6.88,3.16,12.28,3.53,18a81.35,81.35,0,0,1-15.13-5.46C57.1,111.64,57.76,107.05,54.57,99.17Z"/><path class="cls-16" d="M42,109.68c9.64,7.59.74-6.48,8.34-.37a29.56,29.56,0,0,0,7.75,4.12,33.43,33.43,0,0,0,1.23,4.46A35.57,35.57,0,0,1,52.66,114c1.8,5.76.44,11.5-2.15,16.56A34.71,34.71,0,0,0,44.09,113,25.72,25.72,0,0,1,42,109.68Z"/><path class="cls-16" d="M110.89,113.58a44,44,0,0,1,1.6,11.11,89.58,89.58,0,0,1-38.06-1.34A26.62,26.62,0,0,0,73,117,92.74,92.74,0,0,0,110.89,113.58Z"/><path class="cls-16" d="M140.41,78.13c-10.57-6.13-9.86-10.68-10.26-13.22a5.65,5.65,0,0,0,.52,2c0,.31.09.63.14.93.79,4.35,7.25,8.67,18.7,12.19s13.27,5.3,14.28,7.55c.67,1.5,6.78,2.8,11,4.6C166.28,99.59,156,106.37,145,112.67c-2.25,1.28-4.49,2.45-6.7,3.51-3-2.64-5.64-6.67-7.85-10.79C148.41,95.07,149.11,83.18,140.41,78.13Z"/><path class="cls-17" d="M191.38,73.17c.57-1-4.8,12.75-29.27,20.24s-19.32,16.64-40.86,22.81-61.41,2.81-68-1c9.21,5.26,42.64,19,78.29,3.45C166.73,103.3,185.55,83.07,191.38,73.17Z"/><path class="cls-3" d="M150.28,101.16s14.92,31.12,4.44,38-19.41-4.84-21.49-11.89c-2.95-10,3.26-16.07,3.26-16.07Z"/><path class="cls-18" d="M150.44,99.82s14.91,31.12,4.44,38-19.42-4.84-21.49-11.89c-3-10,3.26-16.07,3.26-16.07Z"/><path class="cls-19" d="M152.9,138.76a14.1,14.1,0,0,0,2.23-1.17,6.92,6.92,0,0,0,1.66-1.53,53.19,53.19,0,0,0-.33-10.09c-1.35-11.34-5.83-24.64-6.28-26v0c.31,1.39,2.93,13.37,3.67,20.27C154.9,130.07,153.81,135.85,152.9,138.76Zm-15.54-5.91c.68-1.46,2.47-5.24,3.52-7,1.31-2.22,4.46-20.42,4.46-20.42s-5,15.3-6.79,18.33a8.48,8.48,0,0,1-4.25,3.77A24.55,24.55,0,0,0,137.36,132.85Zm11-6.76A40.84,40.84,0,0,1,145.13,139a10.46,10.46,0,0,0,4.93.53c-.08-2.13-.18-6.91.19-13,.52-8.23-1.75-24.61-1.75-24.61S149,118.51,148.37,126.09Zm-5.61,2.63a20.37,20.37,0,0,1-3.95,5.87,17.66,17.66,0,0,0,4.37,3.52,37.46,37.46,0,0,0,3-12.29c.87-9.15.81-22.51.81-22.51S145.64,121.35,142.76,128.72Zm-3.93-10.83a82.29,82.29,0,0,0,3.64-10.44,59.34,59.34,0,0,1-6.32,8.93A14.44,14.44,0,0,1,132.9,119a18,18,0,0,0,.44,5.52A21,21,0,0,0,138.83,117.89Z"/><path class="cls-3" d="M138.64,65s14.92,31.12,4.44,37.95-19.41-4.84-21.49-11.89c-3-10,3.26-16.07,3.26-16.07Z"/><path class="cls-18" d="M138.8,63.67s14.91,31.12,4.43,38-19.41-4.85-21.48-11.9c-3-10,3.26-16.06,3.26-16.06Z"/><path class="cls-20" d="M141.26,102.6a14.54,14.54,0,0,0,2.23-1.17,6.51,6.51,0,0,0,1.65-1.53,53,53,0,0,0-.32-10.09c-1.35-11.34-5.83-24.64-6.28-26h0c.31,1.39,2.92,13.37,3.67,20.28C143.26,93.91,142.17,99.69,141.26,102.6Zm-15.54-5.91c.68-1.46,2.47-5.24,3.52-7,1.31-2.22,4.46-20.42,4.46-20.42s-5,15.31-6.79,18.33a8.38,8.38,0,0,1-4.25,3.77A24.32,24.32,0,0,0,125.72,96.69Zm11-6.75a40.84,40.84,0,0,1-3.24,12.9,10.46,10.46,0,0,0,4.93.53c-.08-2.13-.18-6.9.19-12.94.52-8.24-1.75-24.61-1.75-24.61S137.31,82.35,136.73,89.94Zm-5.61,2.62a20.23,20.23,0,0,1-4,5.87,17.31,17.31,0,0,0,4.37,3.52,37.28,37.28,0,0,0,3-12.29c.88-9.15.82-22.5.82-22.5S134,85.2,131.12,92.56Zm-3.93-10.82a84,84,0,0,0,3.64-10.44,58.93,58.93,0,0,1-6.32,8.92,15,15,0,0,1-3.25,2.6,18,18,0,0,0,.44,5.51A20.84,20.84,0,0,0,127.19,81.74Z"/><path class="cls-21" d="M116.51,111.75a87.43,87.43,0,0,0,14-6.36c2.21,4.12,4.85,8.15,7.85,10.79a99.8,99.8,0,0,1-25.85,8.51,44,44,0,0,0-1.6-11.11C112.74,113,114.62,112.43,116.51,111.75Z"/><path class="cls-21" d="M73,117a26.62,26.62,0,0,1,1.45,6.37,81.35,81.35,0,0,1-15.13-5.46,33.43,33.43,0,0,1-1.23-4.46A66.16,66.16,0,0,0,73,117Z"/><path class="cls-22" d="M183.4,32.45S161.59,18.15,136,17.3C139.68,16.59,169.23,24.66,183.4,32.45Z"/><path class="cls-23" d="M128.32,21.49S76.52,27,55.38,87.86C57.69,77.62,78.27,21,128.32,21.49Z"/><path class="cls-22" d="M17.49,82.73s7.88,3.4,8,4.77S19,86.23,17,85.13,16.29,82.15,17.49,82.73Z"/><path class="cls-22" d="M17.52,92.06a35.73,35.73,0,0,1,4.45,2c2,1.1-1.69,1.82-4.26.12S15.92,91.42,17.52,92.06Z"/><path class="cls-22" d="M19.15,97.63l3.34-.11c1.68,0,1.52,1.31-1.61,1.58S18.24,97.77,19.15,97.63Z"/><path class="cls-22" d="M32.66,135.15l1.36-3.1c.68-1.56,1.8-.77.67,2.21S32.38,136,32.66,135.15Z"/><path class="cls-22" d="M38.83,140.21s1.06-1.31,2.13-2.61,1.94-.25.07,2.31S38.33,141,38.83,140.21Z"/><path class="cls-22" d="M33,125.22c-.64.47-3.29,5-1.84,6.31S35.19,123.64,33,125.22Z"/><path class="cls-24" d="M44.26,128.69c1-6.55-9-4-6.4-11.93s-11.08-7.56-7-10.09,4.53-7,.24-11.64c-2.6-2.83-3.93-6.39-4.87-8.91,1.29.83,2.71,1.76,4.3,2.8,2.8,1.85,5.16,3.33,7.16,4.49C38,98,39.24,106.57,44.09,113a34.71,34.71,0,0,1,6.42,17.5,42.39,42.39,0,0,1-4.4,6.75C45.53,134.17,43.65,132.59,44.26,128.69Z"/><path class="cls-25" d="M176.2,38.94a9.35,9.35,0,1,1-11.93-5.51A9.3,9.3,0,0,1,176.2,38.94Z"/><path class="cls-26" d="M175.87,37.24a8.29,8.29,0,1,1-10.58-4.89A8.24,8.24,0,0,1,175.87,37.24Z"/><path d="M174.26,37.82a6.58,6.58,0,1,1-8.4-3.88A6.53,6.53,0,0,1,174.26,37.82Z"/><path class="cls-26" d="M162.76,41.39a6.41,6.41,0,0,1,.12-4.69,6.37,6.37,0,0,0-.45,5.3,6.2,6.2,0,0,0,7.86,3.88,5.91,5.91,0,0,0,3.45-3.3,5.9,5.9,0,0,1-3.13,2.69A6.19,6.19,0,0,1,162.76,41.39Z"/><path class="cls-26" d="M170.12,34.61a2.71,2.71,0,1,1-3.45-1.6A2.7,2.7,0,0,1,170.12,34.61Z"/><path class="cls-26" d="M172,38.16a.9.9,0,1,1-1.14-.53A.89.89,0,0,1,172,38.16Z"/><path class="cls-27" d="M155.17,30.64S146.5,42.93,154,56.88c4.35,8.05,14.05,10.06,16,9.63-3.88,2.78-13.59,3.38-19.55-9.33S152,32.84,155.17,30.64Z"/><path class="cls-4" d="M158.69,55.87s15.79,5.36,20.58,5.7c5.11.36,15.38.86,16-12.38l1.37-9.56-6.48,7.87s-3,8.31-19.74,8.86C161.78,56.65,158.69,55.87,158.69,55.87Z"/><path class="cls-28" d="M158.69,55.87s20.23,6,37.66-16.15c0,0-2.94,5.56-2.29,9.38s-2.13,10.18-10.91,11.23C175,61.3,170.59,58.73,158.69,55.87Z"/><path class="cls-28" d="M156.31,57.18a3,3,0,0,0,2.42-3.71C158,50.33,158,56.15,156.31,57.18Z"/><path class="cls-28" d="M194.69,39.11s2.12,1.41,2.59,1.29S194.69,39.11,194.69,39.11Z"/></g></g></svg>