<svg id="Layer_1" data-name="Layer 1" xmlns="http://www.w3.org/2000/svg" viewBox="0 0 45.73 23.65"><defs><style>.cls-1{fill:#461211;}.cls-2{fill:#e55757;}.cls-3{fill:#9b593d;}.cls-4{fill:#fff;}</style></defs><path class="cls-1" d="M4.64,4s-.89,11.57,11,14.79c3.31.9,11.05,3.32,19.85-3.1,6.88-5,5.67-12.69,5-13.06S32.9,10.81,21.92,9.28C14.21,8.21,9.6,6.66,4.64,4Z"/><path class="cls-2" d="M14.74,15.43s9-4.73,16.2-.69c0,0-1.26,1.84-8.12,2.3C16.66,17.45,14.74,15.43,14.74,15.43Z"/><path class="cls-3" d="M38.27,1.12A8.76,8.76,0,0,1,42.52,4.7C43.47,6.16,42.12.39,38.27,1.12Z"/><path class="cls-3" d="M6.21,2.07A8.77,8.77,0,0,0,3,7S2.68,3.07,6.21,2.07Z"/><path class="cls-4" d="M4.72,4c-.21-.13-.37,2.09.55,3.67C6.34,9.49,24.66,18.57,40.48,6.29a16.19,16.19,0,0,0,0-3.67s-5.06,5.59-15.79,7C19.73,10.2,11.7,8,7.58,5.66,6.25,4.89,5.84,4.68,4.72,4Z"/><path class="cls-4" d="M7.54,12.88a32.72,32.72,0,0,0,31.09-1.54S35.75,18.48,24.07,20C24.07,20,13.06,20.65,7.54,12.88Z"/><path class="cls-3" d="M4.52,3.85s21,10.94,36.17-1.48c0,0-14.35,15.16-35.68,1.88L4.58,4C4.44,3.9,4.44,3.85,4.52,3.85Z"/><path class="cls-3" d="M4.52,3.85S4.24,22,23.61,21.22c3.5-.15,19.86-2.73,17.08-18.85a.83.83,0,0,0-.58.86c0,.21,0,.93,0,1.18-.21,4.12-1.82,13.85-16.73,15.26-.1,0-15.53.78-17.66-12.86a15.26,15.26,0,0,1-.37-2.18C5.38,4.18,4.55,3.83,4.52,3.85Z"/><path class="cls-3" d="M4.19,3.58s4,6.9,19.19,6.29c14.91-.59,16.93-7.28,16.93-7.28s-5.76,5-16.52,5.83C17.66,8.89,8.88,6.55,4.19,3.58Z"/></svg>