<svg id="Layer_1" data-name="Layer 1" xmlns="http://www.w3.org/2000/svg" viewBox="0 0 196.57 183.24"><defs><style>.cls-1{fill:#ff9f57;stroke:#5e3b2c;}.cls-1,.cls-2{stroke-miterlimit:10;}.cls-2{fill:#7c574f;stroke:#2d1111;}.cls-3{fill:#d7e384;}</style></defs><path class="cls-1" d="M192.18,143.71a78.26,78.26,0,0,0-10.2,27.6c-.26,1.61-77.65-8-77.46-9.6,0,0-26.28-30.24-29.37-36.85-2.39-5.13-2.26-9.55,22.37-8.2,31.07,1.71,20.22,17.55,53.1,29.2C175.21,154.56,192.18,143.71,192.18,143.71Z"/><path class="cls-2" d="M100.34,149.23S21.46,25.74,17.36,11.14s3.07-7.93,13.32,7.43,74.78,125.49,74.78,125.49S112.63,152.87,100.34,149.23Z"/><path class="cls-1" d="M77,118.23s-1.57,8.19,16.87,8.21c6.83,0,11.78-3.25,18.44-2.91s14.68,21.69-3.59,42.52S77.8,151.14,75.91,144.79C71.64,130.45,73.21,117,77,118.23Z"/><circle class="cls-3" cx="91.42" cy="142.34" r="3.03"/><circle class="cls-3" cx="108.67" cy="140.22" r="4.16"/><ellipse class="cls-3" cx="97.83" cy="161.39" rx="3.03" ry="2.25" transform="translate(-90.13 178.36) rotate(-63.94)"/></svg>