<svg id="Layer_1" data-name="Layer 1" xmlns="http://www.w3.org/2000/svg" viewBox="0 0 196.57 183.24"><defs><style>.cls-1{fill:#ff9f57;stroke:#5e3b2c;}.cls-1,.cls-2{stroke-miterlimit:10;}.cls-2{fill:#7c574f;stroke:#2d1111;}.cls-3{fill:#d7e384;}</style></defs><path class="cls-1" d="M191.73,144.09s-8.15,14.25-9.72,27.55c-.19,1.62-77.38-4.6-77.26-6.22,0,0-27.65-29-31-35.46-2.62-5-2.7-9.44,22-9.22,31.12.27,21,16.6,54.39,26.71C175,155,191.73,144.09,191.73,144.09Z"/><path class="cls-2" d="M100,153.15S15.5,33.42,10.74,19s2.7-8.07,13.64,6.81,80.49,121.91,80.49,121.91S112.44,156.21,100,153.15Z"/><path class="cls-1" d="M75.22,123.25s-1.19,8.26,17.23,7.42c6.83-.31,11.62-3.78,18.29-3.75s15.67,21-1.62,42.64-31.55-13.47-33.73-19.73C70.47,135.7,71.41,122.15,75.22,123.25Z"/><circle class="cls-3" cx="90.77" cy="146.67" r="3.03"/><circle class="cls-3" cx="107.9" cy="143.76" r="4.16"/><ellipse class="cls-3" cx="98.05" cy="165.41" rx="3.03" ry="2.25" transform="translate(-92.7 189.63) rotate(-66.58)"/></svg>