<svg id="Layer_1" data-name="Layer 1" xmlns="http://www.w3.org/2000/svg" viewBox="0 0 373.49 461.02"><defs><style>.cls-1{fill:#603b35;stroke:#251e10;}.cls-1,.cls-10,.cls-2,.cls-23,.cls-25,.cls-28,.cls-3,.cls-30,.cls-31,.cls-4,.cls-5,.cls-6,.cls-7,.cls-8{stroke-miterlimit:10;}.cls-2,.cls-28{fill:none;}.cls-2,.cls-3,.cls-4,.cls-5,.cls-6{stroke:#63452f;}.cls-3,.cls-5{fill:#a77b70;}.cls-4,.cls-6{fill:#8e615a;}.cls-5,.cls-6{stroke-width:0.75px;}.cls-7{fill:#e0c978;stroke:#503f17;}.cls-8{fill:#ff9f57;stroke:#5e3b2c;}.cls-9{fill:#e6eb98;}.cls-10{fill:#7c574f;stroke:#2d1111;}.cls-11{fill:#d7e384;}.cls-12{fill:#ffe265;}.cls-13{fill:#c8af6e;}.cls-14{fill:#e6eb99;}.cls-15{fill:#e6eb9c;}.cls-16,.cls-31{fill:#461211;}.cls-17{fill:#aa633c;}.cls-18,.cls-23{fill:#fff;}.cls-19,.cls-30{fill:#e55757;}.cls-20{fill:#9b593d;}.cls-21{fill:#9b723d;}.cls-22{fill:#9b633d;}.cls-23{stroke:#704634;}.cls-24{fill:#051930;}.cls-25{fill:#c67f4f;stroke:#5e392c;stroke-width:0.3px;}.cls-26{fill:#e5ad88;}.cls-27{fill:#6b3430;}.cls-28{stroke:#813d1c;stroke-width:4px;}.cls-29{fill:#813d1c;}.cls-30{stroke:#763317;}.cls-31{stroke:#37180c;}</style></defs><path class="cls-1" d="M214.31,135.88s6.58-3.17,40.56,17.85,41.94,43,41.94,43,12.67,12.17,8.38,34.18c0,0,8,9.33,9.68,17s.33,23.73-1.91,28.36-9.77,13.4-9.77,13.4,2,12.71.3,21.3-9.68,20.56-9.68,20.56a101.08,101.08,0,0,0-10.12,6.29s-7.51,10.93-17.9,16.18S193.48,304,198.22,272,214.31,135.88,214.31,135.88Z"/><path class="cls-2" d="M269.08,197.08s2.11,22,19.74,28.41C301,229.92,306,220.32,306,220.32"/><path class="cls-2" d="M241.32,152.33s-.39,12.33,20.15,23.43c16.11,8.71,14.3-6.44,14.3-6.44"/><path class="cls-3" d="M293.21,191s-7.3-8.31-13.91-5-5.2,11-1.3,21.52,16,16.2,22.22,9S297.28,195,293.21,191Z"/><path class="cls-4" d="M291.59,195.27s-4.17-5.27-7.63-3.43-2.48,6.53-.07,13,9.1,10.32,12.24,6.14S293.91,197.83,291.59,195.27Z"/><path class="cls-5" d="M226.21,138.77s-5.76-1.81-6.68.68,2.57,5.13,8.05,8.41,11.83,3.2,11.11-.68S229.19,139.54,226.21,138.77Z"/><path class="cls-6" d="M227.35,140.69s-3.5-1.24-3.95.1,1.74,2.93,5.13,5,7.16,2.25,6.58.08S229.15,141.23,227.35,140.69Z"/><path class="cls-3" d="M308.18,244.06s-3.37-10.28-9.38-9.35-7,8.61-6.81,19.83,7.94,20.63,14.68,16S310.24,249.21,308.18,244.06Z"/><path class="cls-4" d="M305.78,247.53s-1.79-6.36-4.95-5.79-3.67,5.31-3.57,12.26,4.21,12.78,7.76,9.89S306.88,250.72,305.78,247.53Z"/><path class="cls-3" d="M255.47,155s-6.36-3.28-8.35-.29,1.35,6.93,6.86,12,13.25,6.08,13.72,1S258.81,156.43,255.47,155Z"/><path class="cls-4" d="M256.19,157.57s-3.82-2.16-4.83-.55,1.09,4,4.5,7.16,7.92,4.07,8,1.23S258.18,158.57,256.19,157.57Z"/><path class="cls-3" d="M302.84,301.23s-9.59-1.14-14.27,11.17a59.77,59.77,0,0,0-3.76,23.54s6.73-2.66,9-4.47,9.29-15,9.81-21.33S302.84,301.23,302.84,301.23Z"/><path class="cls-4" d="M299.79,306.08s-10.61,3.46-10.36,21.84C289.57,338.81,305.86,306.08,299.79,306.08Z"/><path class="cls-2" d="M290.41,287.83s7.29-1.52,12.27,2"/><path class="cls-2" d="M305.28,230.42S296,234.5,286,232.51"/><path class="cls-2" d="M291.7,233.62s-5.63,7.86-3.24,24.29,12.19,22.87,23.76,19.68"/><path class="cls-2" d="M303.59,295.61s-8.89-1.41-15.5,9.78-7.55,34.48-7.28,36.05"/><path class="cls-2" d="M245.22,148s-5,13.53-24.78-1.69"/><path class="cls-7" d="M151.47,225.26s5.28-66.53,33.65-81.89,59.62,23.59,71.74,43.92c9.23,15.49,54.89,94.35,11.24,161-27,41.22-79.81,3.77-90-9.08C172.06,331.49,148.81,299.12,151.47,225.26Z"/><path class="cls-8" d="M183.34,324.2s-8.15,9.23-1.88,27.38,29.64,36.36,17,66.26-21.37,34-26.63,34-9.37-3.64-8.33-20S150.05,416.65,140,394s-9.57-42.08,27.14-87.69C167.1,306.26,180.66,298.54,183.34,324.2Z"/><circle class="cls-9" cx="178.9" cy="426.72" r="4.2"/><circle class="cls-9" cx="185.57" cy="381.76" r="4.2"/><circle class="cls-9" cx="172.47" cy="368.36" r="2.69"/><circle class="cls-9" cx="158.81" cy="382.56" r="4.2"/><ellipse class="cls-9" cx="180.68" cy="407.63" rx="3.56" ry="4.2" transform="translate(-96.31 58.22) rotate(-14.5)"/><ellipse class="cls-9" cx="169.87" cy="408.58" rx="1.5" ry="1.77" transform="translate(-96.89 55.55) rotate(-14.5)"/><path class="cls-8" d="M169.76,183s-3.61,5.9-7.47,29c-.27,1.6-76.33-11.13-76.06-12.73,0,0-24.77-31.32-27.54-38-2.14-5.21-1.82-9.61,22.64-7.13,30.86,3.13,19.32,18.4,51.52,31.51C156.92,195.36,169.76,183,169.76,183Z"/><path class="cls-10" d="M80.4,187.63s-69-128.69-72-143.51,3.65-7.66,12.67,8.39S85.88,182.88,85.88,182.88,92.34,192.17,80.4,187.63Z"/><path class="cls-8" d="M59.23,155.54s-1.16,8.23,17.19,7.34c6.8-.33,11.57-3.81,18.22-3.79s15.68,20.86-1.49,42.49S61.67,188.26,59.48,182C54.53,168,55.43,154.45,59.23,155.54Z"/><circle class="cls-11" cx="74.08" cy="179.33" r="3.02"/><circle class="cls-11" cx="91.34" cy="178.02" r="4.14"/><ellipse class="cls-11" cx="79.58" cy="198.6" rx="3.02" ry="2.24" transform="translate(-132.83 173.01) rotate(-61.29)"/><path class="cls-12" d="M181.88,179.3s-18.41,15.9-21.54,64.3c-3.4,52.64,15.27,96.78,49.18,107s59.89-17.84,63.75-34.23,5.23-112-45.47-138.57C200.5,163.52,181.88,179.3,181.88,179.3Z"/><path class="cls-13" d="M168.38,305.07s22.15,8.67,76.32-.18c0,0-.34,4.57-39.54,5.31C170.47,310.85,168.38,305.07,168.38,305.07Z"/><path class="cls-13" d="M181.35,329.68s27.38,14.69,81.85-3.94c0,0-4.47,10.16-43.72,12.71C184.73,340.7,181.35,329.68,181.35,329.68Z"/><path class="cls-13" d="M163.41,222.55s32.81,12.31,96.21-7.27c0,0-4.21,9.51-50.43,13.6C168.28,232.51,163.41,222.55,163.41,222.55Z"/><path class="cls-13" d="M160.64,265s38.55,12.17,110.8-7.53c0,0-5.47,9.56-58.12,13.75C166.73,274.9,160.64,265,160.64,265Z"/><path class="cls-13" d="M235.66,182.48s-10.46,5.9-3.78,19.16c7.88,15.62,24.14,5.92,23.7-1,0,0-11.71,13-20.42,1.36C228.51,193.13,234.22,185.29,235.66,182.48Z"/><path class="cls-8" d="M260.29,303.11s-2,21.17-16,37.59S211.88,378.49,220.14,402s33,37.5,68.58,37.09c0,0,2.19-.65,1.52-8.54s-1.45-17.22-12.83-29c-10.86-11.25,1-67.47.65-77.38S272.24,297.85,260.29,303.11Z"/><circle class="cls-14" cx="271.85" cy="419.4" r="5.62"/><circle class="cls-14" cx="258.77" cy="419.93" r="3.49"/><circle class="cls-14" cx="233.79" cy="397.17" r="5.66"/><ellipse class="cls-14" cx="265.03" cy="384.75" rx="5.66" ry="3.49" transform="translate(-160.2 578.29) rotate(-79.91)"/><circle class="cls-14" cx="263.71" cy="358.98" r="4.73"/><path class="cls-8" d="M235.07,194.67s4.91,14.15,16.34,9.13,31.17,4.25,41.53,9.42,43.36,22.2,68.19-2.18c0,0,11.83-12.18-2.19-20.22-11.43-6.54-50.59-8.43-40.83-14.31,31.89-19.22-12.67-23.57-27.68-13.79-14.31,9.33-38.94,16.93-51.17,19.33C231.24,183.63,235.07,194.67,235.07,194.67Z"/><circle class="cls-15" cx="324.48" cy="197.17" r="4.2"/><circle class="cls-15" cx="269.07" cy="190.47" r="5.19"/><ellipse class="cls-15" cx="299.65" cy="186.04" rx="3.32" ry="3.89" transform="translate(102.36 478.41) rotate(-87.82)"/><ellipse class="cls-15" cx="309.09" cy="204.63" rx="2.7" ry="3.89" transform="translate(-6.86 398.5) rotate(-65.04)"/><ellipse class="cls-15" cx="332.62" cy="214.13" rx="2.19" ry="2.42" transform="translate(-1.88 425.32) rotate(-65.04)"/><circle class="cls-15" cx="287.68" cy="197.82" r="3.89"/><path class="cls-16" d="M182.86,22.66s-3.06-2-3.63-1.46-3.36,5.61-3.12,7.73,15.72,6.39,15.72,6.39l1.91-4.73Z"/><path class="cls-16" d="M296.46,72.17s3.67.75,3.74,1.51-1.44,6.39-3.12,7.73-16.25-6.52-16.25-6.52l1.91-4.73Z"/><path class="cls-8" d="M181.28,172s16.77,13,35,7.89a51.69,51.69,0,0,1,29.14-37.92c26.53-12.45,32-16,35.22-43.26,1.49-12.56-1.8-17.09,1.78-25.89,5.16-12.65-3.62-32.6-25-28.84s-24.57-12.4-24.57-12.4S226.65,11.8,204.23,20c-9.68,3.52-13.49,16.71-20.77,25.88-4.68,5.88-23,11.39-24.81,39.25C157.41,103.85,171,117,175.39,126.81,179.1,135.1,184.94,145.17,181.28,172Z"/><path class="cls-17" d="M177.88,131.22s19.82,22.19,56.72,16.51c0,0-5.49,8.49-27.12,3.36-10.37-2.46-19.93-6.92-24.67-11.56A21.9,21.9,0,0,1,177.88,131.22Z"/><path class="cls-16" d="M194.1,72.53s-5.84,13.07,4.48,35.71c0,0,12.56,9.2,22.51,7.85s24.14-13.58,25.13-14.36-20.15,2.32-32.64-7.8C203.08,85.42,196.65,81.58,194.1,72.53Z"/><path class="cls-18" d="M194.1,72.53S200.18,87.46,225,96c0,0,16.56,5.59,22.23,4.94,0,0-5.3,4.61-7.31,5.49s-15.82-1.16-29.69-8.6C200.06,92.4,196.42,88.09,193,82.33,191.63,79.92,194.1,72.53,194.1,72.53Z"/><path class="cls-19" d="M196.71,103.78s16.56.34,24.38,12.31c0,0-3.64,2.73-14.59-2C196.68,109.78,196.71,103.78,196.71,103.78Z"/><path class="cls-20" d="M193.65,70.69S193.09,82,216.94,93.22c24.9,11.71,31.38,7.26,31.38,7.26s-13.49.6-30-7.9C205,85.74,200,82.44,193.65,70.69Z"/><path class="cls-20" d="M245.72,96.8a15.16,15.16,0,0,1,3.69,8.92C249.71,108.73,252.23,98.74,245.72,96.8Z"/><path class="cls-20" d="M198,69.47a15.24,15.24,0,0,0-8.93,5.06S191.77,68.19,198,69.47Z"/><path class="cls-20" d="M194.1,72.53s-2.11,24.74,3.58,33.34c0,0,3.16,5.86,11.72,8.73,7,2.37,14.31,2.13,20.82-1.79s17-11.86,17-11.86l1.11-.47s-11.82,12.07-21.87,15.92a26.21,26.21,0,0,1-18.76.27c-3.88-1.62-7.34-3.11-11.7-10.37s-5.45-30-2.34-35.61Z"/><path class="cls-21" d="M194.8,116.9a27.92,27.92,0,0,0,25.66,9S206.24,126.75,194.8,116.9Z"/><path class="cls-22" d="M192.67,54.73s-5.89-16.21,9.12-27.33c12.84-9.51,29.71,3,25.51,18.82-4.05,15.28-13.48,21.11-24,18C194.43,61.49,192.67,54.73,192.67,54.73Z"/><ellipse class="cls-23" cx="209.23" cy="45.52" rx="16.78" ry="13.69" transform="translate(88.66 222.48) rotate(-68)"/><ellipse class="cls-24" cx="206.85" cy="51.43" rx="9.16" ry="8.21" transform="translate(81.7 223.96) rotate(-68)"/><circle class="cls-18" cx="206.13" cy="43.18" r="2.34"/><path class="cls-22" d="M243.43,79.42s-5.89-16.2,9.12-27.32c12.84-9.52,29.71,3,25.51,18.82C274,86.2,264.59,92,254.11,88.87,245.19,86.19,243.43,79.42,243.43,79.42Z"/><ellipse class="cls-23" cx="260" cy="70.22" rx="16.78" ry="13.69" transform="translate(97.51 284.99) rotate(-68)"/><ellipse class="cls-24" cx="256.02" cy="75.26" rx="8.79" ry="7.87" transform="translate(90.35 284.46) rotate(-68)"/><circle class="cls-18" cx="257.12" cy="67.55" r="2.72"/><path class="cls-25" d="M187.85,58S236,54.06,261.91,92.35l3.1,5.88L191.82,65Z"/><path class="cls-26" d="M187.85,58s24.67-1.55,45.17,9,28.89,25.31,28.89,25.31A82.43,82.43,0,0,0,229.52,67.2C211.22,59.22,200.35,58.41,187.85,58Z"/><ellipse class="cls-27" cx="236.26" cy="87.9" rx="4.19" ry="1.07" transform="translate(-9.94 33.76) rotate(-8)"/><ellipse class="cls-27" cx="206" cy="71.21" rx="1.07" ry="3.8" transform="matrix(0.97, -0.25, 0.25, 0.97, -11.27, 53.85)"/><circle class="cls-28" cx="268.18" cy="66.93" r="26.81"/><circle class="cls-28" cx="207.03" cy="37.46" r="26.81"/><polygon class="cls-29" points="244.17 51.37 234.74 47.46 231.44 53.83 241.84 58.04 244.17 51.37"/><path class="cls-30" d="M191.1,172.4s-5.16-5.7-12.23-7.23-13.53,3.57-13.52,14.12c0,6.3,9,13.79,14.63,12.94s15.82-9.39,15.82-9.39Z"/><path class="cls-30" d="M208.46,168.49s5.17-5.7,12.23-7.23,13.53,3.57,13.53,14.12c0,6.3-9,13.78-14.64,12.93s-15.82-9.38-15.82-9.38Z"/><circle class="cls-31" cx="200.82" cy="177.76" r="11.1"/><path class="cls-13" d="M282.24,310.31s-2.38-22.61-19.41-19.57c-17.31,3.1-13.43,25.37-6.75,27.57,0,0-9.45-15.91,3.49-23.9C271.58,287,279,303.19,282.24,310.31Z"/><path class="cls-13" d="M258.25,306.23s-1.06-8.5,6.63-9.39,12.76,10.64,12.76,10.64-1.56-11.79-11.74-12.31C254.25,294.57,255.86,305.21,258.25,306.23Z"/></svg>