<svg id="Layer_1" data-name="Layer 1" xmlns="http://www.w3.org/2000/svg" viewBox="0 0 76.36 101.6"><defs><style>.cls-1{fill:#ff9f57;stroke:#5e3b2c;stroke-miterlimit:10;}.cls-2{fill:#e6eb99;}.cls-3{fill:#c8af6e;}</style></defs><path class="cls-1" d="M48.71,7.09s-1.23,14.65,6.36,27.54,17.47,29.65,9,44.65-27,21.54-51.19,17c0,0-1.41-.71,0-6S16,78.68,25.13,72c8.76-6.34,7.52-46,8.93-52.76S41.21,2.06,48.71,7.09Z"/><circle class="cls-2" cx="26.75" cy="84.87" r="3.88"/><circle class="cls-2" cx="35.59" cy="86.82" r="2.41"/><circle class="cls-2" cx="55.36" cy="74.34" r="3.91"/><ellipse class="cls-2" cx="35.59" cy="62.1" rx="2.41" ry="3.91"/><circle class="cls-2" cx="39.62" cy="44.72" r="3.27"/><path class="cls-3" d="M32.42,15.68S34.06,0,45.84,2.15c12,2.14,9.28,17.54,4.66,19.06,0,0,6.54-11-2.41-16.53C39.79-.44,34.64,10.76,32.42,15.68Z"/><path class="cls-3" d="M49,12.86s.73-5.88-4.59-6.5-8.83,7.37-8.83,7.37,1.08-8.16,8.12-8.52C51.77,4.8,50.65,12.15,49,12.86Z"/></svg>