<svg id="Layer_1" data-name="Layer 1" xmlns="http://www.w3.org/2000/svg" viewBox="0 0 196.57 183.24"><defs><style>.cls-1{fill:#ff9f57;stroke:#5e3b2c;}.cls-1,.cls-2{stroke-miterlimit:10;}.cls-2{fill:#7c574f;stroke:#2d1111;}.cls-3{fill:#d7e384;}</style></defs><path class="cls-1" d="M192,143.77s-7.74,13.2-10,27.84c-.25,1.61-77-1.16-76.94-2.79,0,0-28.85-27.8-32.51-34.11-2.84-4.89-3.11-9.31,21.55-10.15,31.1-1,21.69,15.69,55.48,24.38C174.88,155.44,192,143.77,192,143.77Z"/><path class="cls-2" d="M99.83,156.76S10.32,40.74,5,26.56s2.35-8.18,13.92,6.22,85.6,118.37,85.6,118.37S112.4,159.29,99.83,156.76Z"/><path class="cls-1" d="M73.81,128s-.84,8.29,17.53,6.67c6.8-.59,11.45-4.27,18.11-4.52s16.55,20.3.19,42.66-32.09-12.11-34.53-18.27C69.59,140.59,70,127,73.81,128Z"/><circle class="cls-3" cx="90.34" cy="150.68" r="3.03"/><circle class="cls-3" cx="107.33" cy="147.04" r="4.16"/><ellipse class="cls-3" cx="98.41" cy="169.09" rx="3.03" ry="2.25" transform="translate(-94.71 200.43) rotate(-69.02)"/></svg>