<svg id="Layer_1" data-name="Layer 1" xmlns="http://www.w3.org/2000/svg" viewBox="0 0 95.36 55.79"><defs><style>.cls-1{fill:#c8af6e;}.cls-2{fill:#ff9f57;stroke:#5e3b2c;stroke-miterlimit:10;}.cls-3{fill:#e6eb9c;}</style></defs><path class="cls-1" d="M90,19S97.18,23,92.56,32.2c-5.44,10.81-16.7,4.09-16.39-.68,0,0,8.1,9,14.12.94C94.9,26.31,91,20.89,90,19Z"/><path class="cls-2" d="M89.51,28.4S85.74,38.05,78,34.28,56.32,36.4,49,39.69,11.84,57.81,2,36.4c0,0,7.88-2.32,13.88-18.83C21,3.33,42-2.29,52.09,4.86c9.65,6.83,26.47,12.72,34.85,14.71C92.45,20.87,89.51,28.4,89.51,28.4Z"/><circle class="cls-3" cx="16.69" cy="29.39" r="2.9"/><circle class="cls-3" cx="28.44" cy="21.9" r="3.59"/><ellipse class="cls-3" cx="45.1" cy="20.74" rx="2.69" ry="2.29"/><ellipse class="cls-3" cx="38.09" cy="33.33" rx="2.69" ry="1.87" transform="translate(-9.94 17.35) rotate(-22.78)"/><ellipse class="cls-3" cx="21.58" cy="39.28" rx="1.68" ry="1.51" transform="translate(-13.53 11.42) rotate(-22.78)"/><circle class="cls-3" cx="31.12" cy="11.32" r="2.69"/></svg>