<svg id="Layer_1" data-name="Layer 1" xmlns="http://www.w3.org/2000/svg" viewBox="0 0 74.32 41.83"><defs><style>.cls-1{fill:#9b593d;}.cls-2{fill:#af7361;}.cls-3{fill:#461211;}</style></defs><path class="cls-1" d="M63,18.79a15,15,0,0,1,7,6.41C71.53,27.73,69.8,18,63,18.79Z"/><path class="cls-1" d="M8.05,13.37A14.89,14.89,0,0,0,1.89,21.3S1.81,14.68,8.05,13.37Z"/><path class="cls-2" d="M4.21,16.86s32.24,12.19,63.54,5.3C67.75,22.16,40.49,35.16,4.21,16.86Z"/><path class="cls-1" d="M4.21,16.86S15.43,29,38,29.74s29.8-7.58,29.8-7.58-9.19,5.09-29.27,3.25C16.94,23.44,7.73,18.82,4.21,16.86Z"/><path class="cls-3" d="M5.51,17.32S31.1,34,66.2,22.85C66.2,22.85,38.43,33.51,5.51,17.32Z"/></svg>