<svg id="Layer_1" data-name="Layer 1" xmlns="http://www.w3.org/2000/svg" xmlns:xlink="http://www.w3.org/1999/xlink" viewBox="0 0 197.19 317.38"><defs><style>.cls-1{fill:#b99278;}.cls-2{fill:url(#New_Gradient_Swatch_1);}.cls-3{fill:url(#New_Gradient_Swatch_1-2);}.cls-4{fill:url(#New_Gradient_Swatch_1-3);}.cls-5{opacity:0.3;}.cls-6{fill:#b2abab;}.cls-7{fill:#999292;}.cls-8{fill:#e8e3e3;}.cls-9{fill:#474242;}.cls-10{fill:#ede6e6;}.cls-11{fill:#c9c0c0;}.cls-12{fill:#7c7979;}.cls-13{fill:#4d8202;}.cls-14{fill:#589c00;}.cls-15{fill:#2c4e00;}.cls-16{fill:#f78f1e;}.cls-17{fill:#f9b762;}.cls-18{fill:#d87512;}.cls-19{fill:#5e1d00;}.cls-20{fill:#ffa9a9;}.cls-21{fill:#f28688;}.cls-22{fill:#fff;}.cls-23{fill:#dae3e8;}.cls-24{fill:#2c0000;}.cls-25{fill:#ffc4c4;}.cls-26{fill:#f59595;}.cls-27{fill:#8d2929;}.cls-28{fill:#e0e1e2;}.cls-29{fill:#7a8287;}.cls-30{fill:#332c2c;}.cls-31{fill:#262020;}.cls-32{fill:#2b2626;}.cls-33{fill:#1c1717;}.cls-34{fill:#544848;}.cls-35{fill:#542416;}</style><linearGradient id="New_Gradient_Swatch_1" x1="146.77" y1="114.83" x2="134.99" y2="214.18" gradientUnits="userSpaceOnUse"><stop offset="0" stop-color="#80bf00"/><stop offset="0" stop-color="#6ab003"/><stop offset="0" stop-color="#469708"/><stop offset="0" stop-color="#4d8874"/><stop offset="0.42" stop-color="#195e50"/><stop offset="0.68" stop-color="#003f46"/><stop offset="0.99" stop-color="#002955"/><stop offset="0.99" stop-color="#002a94"/></linearGradient><linearGradient id="New_Gradient_Swatch_1-2" x1="128.39" y1="128.94" x2="118.48" y2="212.54" xlink:href="#New_Gradient_Swatch_1"/><linearGradient id="New_Gradient_Swatch_1-3" x1="150.11" y1="130.67" x2="139.67" y2="218.74" xlink:href="#New_Gradient_Swatch_1"/></defs><path class="cls-1" d="M136.75,109.31s-28.93,4.25-17.93,9.23a47.64,47.64,0,0,1-5-1S111.69,113.08,136.75,109.31Z"/><path class="cls-2" d="M131.12,188c-.31-.31-8.22-69.12,26.19-69.12,0,0-29.85,5.25-20.71,71.59Z"/><path class="cls-3" d="M119,192.49c-.62-1.69-9.15-54.59,16.13-60.39,0,0-19.83,11.79-9,60.39Z"/><path class="cls-4" d="M137.21,197.27c0-.92-4.57-54,20.1-63.25,0,0-18.66,12-13.59,63.25Z"/><ellipse class="cls-5" cx="109.84" cy="289.97" rx="83.03" ry="23.08"/><path class="cls-6" d="M88.59,220.9a63.55,63.55,0,0,0-28.06,24.48c-11,17.9-1,29.45,3.6,32.89,0,0-16.83-2.14-24.4,2.07S33.38,293,35.44,293.11c.39,1.91,6.89,3.67,9,1.53,3.67,3.37,35.19,2,49.11-1.78s8.11-14.59,8.11-14.59C80.27,265.88,87.76,224.42,88.59,220.9Z"/><path class="cls-7" d="M101.69,278.27c-9.5-5.49-13.31-16.7-14.54-27.79-1.69,6.14-4.64,11.72-7.56,17.78-3.85,8-15.1,9.29-19.24,6.28a21,21,0,0,0,3.78,3.73c2.17,5.09,14.73,7.48,10.09,12.54-4.21,4.59-21,4.13-24.25,2.57-2.54-.87-2.29-3.61,2.58-6.54-8.46,2.06-9.44,6.69-12.93,5.81-3.1-.43-2.3-3.22-.54-5.23-2.54,2.1-5.21,2.62-5,.08-.68,3,.19,5.57,1.32,5.61.39,1.91,6.89,3.67,9,1.53,3.67,3.37,35.19,2,49.11-1.78S101.69,278.27,101.69,278.27Z"/><path class="cls-8" d="M60.53,245.38c-8.87,14.41-4.1,24.71.5,30C50.41,259.26,64,239,77.74,227.09A63.77,63.77,0,0,0,60.53,245.38Z"/><path class="cls-9" d="M101.86,278.11l-.06,0c-22.2-12.84-13.09-56.68-13-57.12l.1-.42-.41.16a64.27,64.27,0,0,0-28.16,24.57c-11.47,18.64-.17,30,3,32.69-1.48-.15-4.86-.45-8.73-.45-6.81,0-11.86.88-15,2.64-5.48,3-6.46,8.35-5.78,11.18.27,1.14.79,1.87,1.42,2,.5,1.42,3.65,2.53,6.09,2.53a4.94,4.94,0,0,0,3.13-.9c2.14,1.59,9.93,1.83,14.47,1.83,10.44,0,25.71-1.27,34.69-3.7,4.56-1.23,7.52-3.35,8.79-6.3,1.8-4.17-.45-8.44-.54-8.62Zm.15,8.49c-1.22,2.81-4.07,4.84-8.49,6-8.94,2.42-24.16,3.68-34.57,3.68-7.82,0-13-.67-14.33-1.85l-.16-.15-.15.16a4.31,4.31,0,0,1-3,.91c-2.53,0-5.46-1.19-5.68-2.32l0-.18h-.18c-.47,0-.93-.67-1.17-1.67-.64-2.69.31-7.75,5.56-10.67,3-1.69,8.15-2.58,14.79-2.58a83.76,83.76,0,0,1,9.47.54l.86.11-.69-.52c-1.66-1.24-15.79-12.68-3.54-32.59a64.17,64.17,0,0,1,27.55-24.22c-.9,4.61-8,44.8,13.23,57.16C101.77,279,103.61,282.88,102,286.6Z"/><path class="cls-9" d="M60.83,274.77l-.34.31a26.55,26.55,0,0,0,14.63,8.14,32.85,32.85,0,0,0,9.87.48C84.84,283.71,69.73,284.76,60.83,274.77Z"/><path class="cls-6" d="M77.76,196.65c5,8.49,15.28,14.92,15.28,14.92l6.37-34.24S83.13,173.48,77.76,196.65Z"/><path class="cls-9" d="M96.79,176.86c-4.42,0-15.12,1.93-19.25,19.74l0,.09,0,.08c4.93,8.44,15.26,14.93,15.36,15l.29.18,6.43-34.56,0-.22-.22,0A12.45,12.45,0,0,0,96.79,176.86Zm-3.91,34.33c-1.69-1.1-10.45-7.05-14.88-14.57,3.93-16.79,13.45-19.3,18.79-19.3a13,13,0,0,1,2.35.2Z"/><path class="cls-10" d="M121.57,210.19c-1.87-16.57.7-34.46,2.23-43-5.66-1.29-16-2.38-23.54,4.14C89.36,180.81,93.5,208.82,84,221.9s-18.51,41.3-3.59,53.46c12.63,10.3,33.64,11.22,44.39,9,.81-.17,1.56-.35,2.25-.55,14.35-4.7,17.92-30.53,5.85-46C123.74,226.14,122.47,218.15,121.57,210.19Z"/><path class="cls-11" d="M121.57,210.42c-.17-1.54-.31-3.1-.41-4.66-5.65,12.4,9.74,27.81,11.36,41.16,1.37,10.55-.19,19.89-10.21,26.6-14.84,9.94-43.27,2.53-48.82-9.06a20.74,20.74,0,0,0,6.93,11.13c12.63,10.3,33.64,11.22,44.39,9,.81-.17,1.56-.35,2.25-.55,14.35-4.7,17.92-30.53,5.85-46C123.74,226.37,122.47,218.38,121.57,210.42Z"/><path class="cls-12" d="M121.8,210.17c-1.85-16.35.6-33.89,2.23-42.9l0-.21-.22-.05a38,38,0,0,0-8.39-1c-6.21,0-11.37,1.75-15.35,5.18-5.83,5.05-7.37,15.11-9,25.76-1.4,9.19-2.85,18.69-7.28,24.8-8.73,12-19.11,41.1-3.55,53.78,11.12,9.07,27.28,10,33.71,10a55.54,55.54,0,0,0,10.86-1c.81-.16,1.58-.35,2.28-.55,5.48-1.8,9.68-6.69,11.84-13.77,3.28-10.79.92-23.87-5.87-32.57C124.26,226.42,122.75,218.56,121.8,210.17Zm16.73,60c-2.11,6.94-6.21,11.72-11.53,13.47-.69.2-1.44.38-2.24.54a55.4,55.4,0,0,1-10.77,1c-6.38,0-22.41-1-33.42-9.94-15.33-12.5-5-41.25,3.63-53.16,4.5-6.2,6-15.76,7.37-25,1.61-10.57,3.14-20.55,8.84-25.48,3.89-3.36,9-5.07,15-5.07a37,37,0,0,1,8.08.93c-1.63,9.09-4,26.53-2.19,42.81,1,8.46,2.47,16.39,11.38,27.8C139.44,246.6,141.77,259.52,138.53,270.16Z"/><path class="cls-6" d="M127.92,168.43a32.43,32.43,0,0,0-4.12-1.2c-1.53,8.5-4.1,26.39-2.23,43,.9,8,2.17,15.95,11.34,27.68,12.07,15.45,8.23,39.44-3.81,45.06,1-.28-.25.34.43,0,6.74,1.4,12.55-.48,18.74-1.61,9-1.64,17.67.69,19.12-11.24,1.42-11.61-6.19-30.41-21.11-45.21C130.32,209,127.92,168.43,127.92,168.43Z"/><path class="cls-7" d="M157.29,238.37c7,23.21-5.47,30-9,30.91s-7,.29-8.61-2.91c-1.35,7.64-5.14,14-10.62,16.56,1-.28-.25.34.43,0,6.74,1.4,12.55-.48,18.74-1.61,9-1.64,17.67.69,19.12-11.24C168.4,261.81,164.82,249.89,157.29,238.37Z"/><path class="cls-9" d="M146.44,224.72c-15.72-15.6-18.26-55.9-18.29-56.31v-.14l-.13-.06a34.6,34.6,0,0,0-4.16-1.2l-.23,0,0,.23c-1.63,9-4.09,26.62-2.23,43,1,8.46,2.47,16.39,11.38,27.8,6.71,8.58,9,21.5,5.8,32.14-1.78,5.86-5,10.18-9.14,12.44l.17.58a24.18,24.18,0,0,0,4.93.49,50.33,50.33,0,0,0,10.28-1.41c1.15-.24,2.35-.49,3.54-.7,1.87-.34,3.72-.51,5.51-.67,6.77-.62,12.63-1.15,13.8-10.78.72-5.88-.86-13.53-4.45-21.52A80.53,80.53,0,0,0,146.44,224.72Zm20.73,45.34c-1.13,9.26-6.54,9.75-13.4,10.37-1.8.16-3.66.33-5.54.68-1.2.21-2.4.46-3.56.7a49,49,0,0,1-10.18,1.4,23.87,23.87,0,0,1-4.51-.42c4.08-2.36,7.22-6.69,9-12.49,3.28-10.79.92-23.87-5.87-32.57-8.84-11.31-10.35-19.17-11.3-27.56-1.83-16.21.56-33.59,2.19-42.66a35.63,35.63,0,0,1,3.71,1.08c.19,2.73,3.07,41.21,18.42,56.45C161.66,240.46,168.47,259.36,167.17,270.06Z"/><path class="cls-6" d="M159.71,278.53c-16.22-.54-24.24,2.66-25.46,6.22-2.52,7.31,19.4,17.76,33.91,17.46,4.28,2.44,11-.31,11.14-3.52,3.84.31,8.65-.85,6.43-7.18C183.67,285.63,175.8,279.06,159.71,278.53Z"/><path class="cls-9" d="M172,303.36a7.88,7.88,0,0,1-3.84-.93c-11.44.22-28.3-6.49-33-13.08-1.2-1.68-1.56-3.25-1.07-4.67,1.07-3.11,7.45-6.43,22.18-6.43,1.13,0,2.3,0,3.5.06,16.12.54,24.12,7.13,26.22,13.13.81,2.32.76,4.16-.16,5.45-1.21,1.71-3.59,2.07-5.38,2.07h0l-.9,0C179.17,301.28,175.67,303.36,172,303.36ZM168.22,302l.05,0a7.46,7.46,0,0,0,3.68.91c3.55,0,7-2.06,7.13-4.25l0-.22.22,0c.36,0,.72,0,1.08,0,1.38,0,3.87-.24,5-1.88.83-1.17.86-2.87.1-5.05-2.06-5.86-9.92-12.32-25.83-12.84-1.19,0-2.36-.06-3.48-.06-14.5,0-20.75,3.16-21.77,6.13-.44,1.28-.1,2.72,1,4.27,4.65,6.51,21.33,13.14,32.7,12.9Z"/><path class="cls-6" d="M147.74,178.71c-8.88-8.89-21.12-8.39-21.12-8.39s4.43,5.39,7.13,9.48c2.95,4.47,3.59,7.67,2.18,11.8-.79,2.28-.67,4-1.62,5.27,7.85,1.13,15.68,2.23,23.45,3.86A37.31,37.31,0,0,0,147.74,178.71Z"/><path class="cls-7" d="M149.12,180.21A36.15,36.15,0,0,1,154,200c1.27.24,2.54.5,3.8.76A37.71,37.71,0,0,0,149.12,180.21Z"/><path class="cls-9" d="M147.9,178.55c-8.84-8.86-21.16-8.47-21.29-8.46l0,.46c.12,0,12.24-.4,20.94,8.32a36.78,36.78,0,0,1,9.93,21.81l.47.1A37.37,37.37,0,0,0,147.9,178.55Z"/><path class="cls-10" d="M126.06,170.26l-26.65,4.92C85,180.89,88,193.67,89.34,198c0,0,.83-3.1,1.67-6.88-.78,3.09,1.46,14.62,6,18.12a27.54,27.54,0,0,1,.52-7.91s.16,3.54.77,7.61l12.53,9.88a50.67,50.67,0,0,0,7.85-5.9c7.49-1.3,11.32-9.34,11.89-12.55,0,0,7.38-5.35,6.9-13.92S126.06,170.26,126.06,170.26Z"/><path class="cls-11" d="M126.06,170.26l-5.73,1.06c5.28,2.6,13.44,7.79,10.77,18.53-1-2.72-2.32-3.7-3.74-3.92.8,4,1.09,10.94-1.85,14.74a12.63,12.63,0,0,0-3.2-8.93c-1,10.09-4.93,23.16-15.16,24.21l3.67,2.9a50.67,50.67,0,0,0,7.85-5.9c7.49-1.3,11.32-9.34,11.89-12.55,0,0,7.38-5.35,6.9-13.92S126.06,170.26,126.06,170.26Z"/><path class="cls-12" d="M126.2,170.07l-.08-.06-.1,0L99.33,175c-13.45,5.34-12.17,16.79-10.21,23.14l.24.76.2-.77s.5-1.86,1.1-4.41c.29,4.68,2.48,12.9,6.2,15.78l.43.33-.06-.54a27.09,27.09,0,0,1,.19-6c.11,1.43.31,3.51.65,5.74l.45-.07c-.6-4-.77-7.56-.77-7.59l-.09-1.8-.37,1.76a29.27,29.27,0,0,0-.56,7.44c-4.11-3.74-6.16-14.18-5.54-17.36,0-.07,0-.13,0-.2l-.45-.1c0,.06,0,.12,0,.18-.56,2.54-1.12,4.77-1.41,5.9-1.76-6.31-2.4-16.79,10.12-21.77,8.3-1.52,25.14-4.64,26.56-4.9,1,.71,10.77,8,11.22,16,.47,8.34-6.73,13.67-6.8,13.73l-.08.05,0,.09c-.5,2.85-4.22,11.06-11.7,12.36h-.06l0,0a50.07,50.07,0,0,1-7.81,5.88l.22.4a50,50,0,0,0,7.84-5.89c7.47-1.33,11.34-9.15,12-12.63.78-.6,7.38-5.94,6.92-14.06C137.2,177.89,126.65,170.38,126.2,170.07Z"/><path class="cls-12" d="M112.29,175a31.43,31.43,0,0,0-5,10.55c-1.68,6.18-.54,10-.54,10a31.08,31.08,0,0,1,5.92-20.24Z"/><path class="cls-12" d="M90.71,194.37l.45-.07c-.48-3.19,1.56-8,1.58-8.06S90.21,191.05,90.71,194.37Z"/><path class="cls-12" d="M116.44,214.54l.28.36a18.49,18.49,0,0,0,5.24-7.19,22.67,22.67,0,0,0,1.83-8.38C123.78,199.43,122.73,209.55,116.44,214.54Z"/><path class="cls-12" d="M129.48,203.05l.4.22c2.11-3.75.45-13.7.45-13.7S131.52,199.42,129.48,203.05Z"/><path class="cls-13" d="M50.15,193.8c-2.09,1.69-9.17-3.39-16.76-6.31-.12-.78,1.49-3.4,1.49-3.4s6.09,1.84,7.23,1-5.81-5.52-5.81-5.52l1.63-3.41s7.82,5.43,8.53,5.11-.86-9.26-.86-9.26,1.95-.57,2.33-.71.58,6.48,3.07,8.66a18.94,18.94,0,0,1,5.12,8.13C54.77,189.2,52.24,192.11,50.15,193.8Z"/><path class="cls-14" d="M51,180c-2.49-2.18-2.7-8.8-3.07-8.66s-2.33.71-2.33.71,1.57,8.95.86,9.26-8.53-5.11-8.53-5.11l-1,2A16.89,16.89,0,0,1,39.81,180c1.43,1.07,2.86,2.61,2.31,4.48.15.28.17.49,0,.62-1.14.8-7.23-1-7.23-1s-.32.51-.66,1.15c3.75,2.47,8.8,3.18,12.67.63-.12,1-.12,2-.24,3a16,16,0,0,0,7.45-5.12A16.46,16.46,0,0,0,51,180Z"/><path class="cls-15" d="M49,194.39c-1.73,0-4.45-1.36-7.91-3.09-2.38-1.18-5.07-2.52-7.8-3.57l-.14-.06,0-.14c-.12-.83,1.25-3.12,1.52-3.57l.1-.17.19.06c2.31.7,6.26,1.61,7,1.07,0,0,0,0,0,0,0-.78-3.41-3.43-5.83-5.06L36,179.7l1.85-3.87.24.17c3.56,2.47,7.55,5,8.26,5.08.26-.65-.28-5-1-9l0-.22.21-.06s1.95-.57,2.31-.7a.26.26,0,0,1,.24,0c.2.11.25.39.45,1.58.34,2,1,5.64,2.64,7.11a19,19,0,0,1,5.19,8.25l0,.16-.13.1a32.78,32.78,0,0,0-2.4,2.3A47.88,47.88,0,0,1,50.31,194h0A2,2,0,0,1,49,194.39Zm-15.38-7.07c2.7,1.05,5.35,2.37,7.69,3.54,4,2,7.46,3.72,8.67,2.75h0a47,47,0,0,0,3.52-3.33c.91-.92,1.71-1.73,2.32-2.23a18.77,18.77,0,0,0-5-7.86c-1.81-1.58-2.45-5.36-2.8-7.39a10.63,10.63,0,0,0-.22-1.16l-1.93.59c.1.61.41,2.45.65,4.3.63,4.74.26,4.9,0,5s-.57.26-4.77-2.45c-1.61-1-3.18-2.12-3.76-2.52l-1.42,3c1.32.9,5.87,4.1,5.88,5.35a.55.55,0,0,1-.23.46c-1.14.8-6.11-.61-7.27-1A11.33,11.33,0,0,0,33.63,187.32Z"/><path class="cls-16" d="M91,201.44c-8.9-7.52-28-27.11-40.37-11.44-7,8.8-2.13,17.41,5,24.16,7.4,7,17.33,12.07,19.32,13.47,3.9,2.75,62.54,31.4,65.31,26.44C144.07,247.14,99.75,208.87,91,201.44Z"/><path class="cls-17" d="M91,201.44c-8.9-7.52-28-27.11-40.37-11.44a13.88,13.88,0,0,0-3.35,9.88c.32-6.76,6.82-14,14.22-13.64,0,.44-.44,2,0,2,6.1,0,10.23-1.4,15.95,3.81a2.6,2.6,0,0,1,.11,2.52c6.09,0,2.8,6,2.07,7.94.47,2,7.55-.84,10.79.89,1.31,1.1-1,4.71-2.72,6.05,1.5-.1,5.55-2.81,5.8-2.38,2.88,4.86,11,6.48,11,12.86,0,.43,1.74-.44,2.61-1.31.87,3.49-1.74,5.67-3,8.71,2.55-1,5.45-5.95,8.06-3.77,6.11,4.75,13.48,11.27,19.47,15.91C118.94,225.46,96.89,206.45,91,201.44Z"/><path class="cls-18" d="M131.43,246.92c-7.68,2.39-16.12-4.8-23.09-10a8.89,8.89,0,0,1-1.19-3.63c-5.72,3.9-13.34-.56-12.91-2.27,1.09-3,2.45-4.56,2-7.61-6.1,4.8-14,2.86-17.69,0-.44-.87,1.47-1.68,1.3-3-7,0-20.57-12.23-20.34-14.41.43-2.61,2.54-3.77,3.59-8-3.21,6.09-9.15,7-11.79,6.41a13.6,13.6,0,0,1-3.76-2.43c1,4.45,4.2,8.61,8,12.24,7.4,7,17.33,12.07,19.32,13.47,3.9,2.75,62.54,31.4,65.31,26.44.56-1,.1-2.67-1.12-4.81-1.89.87-4.59-.71-6.79-1C132.3,248.22,131,247.79,131.43,246.92Z"/><path class="cls-19" d="M91.11,201.26c-.85-.72-1.81-1.56-2.82-2.45-6.78-5.95-17-14.95-26.45-14.95-4.44,0-8.28,2-11.43,6-5.92,7.47-4.23,15.71,5,24.47,5.72,5.42,13,9.69,16.87,12,1.13.67,2,1.19,2.46,1.51,3.52,2.48,53.42,27.05,63.79,27.05h0c1,0,1.6-.22,1.86-.69C144.55,246.75,96.59,205.89,91.11,201.26ZM140,254c-.16.3-.67.46-1.45.46h0c-9.93,0-60.05-24.53-63.52-27-.46-.32-1.32-.83-2.5-1.52-3.88-2.29-11.1-6.54-16.79-11.93-9-8.57-10.71-16.59-5-23.85,3.06-3.86,6.78-5.82,11.07-5.82,9.26,0,19.42,8.93,26.14,14.84,1,.89,2,1.73,2.83,2.45C110.6,218.34,143.22,248.18,140,254Z"/><path class="cls-19" d="M51.32,209.32l.12.44a16.22,16.22,0,0,0,6.09-3.28,19.22,19.22,0,0,0,5.32-7.55C62.81,199,59,207.19,51.32,209.32Z"/><path class="cls-19" d="M85.62,210.43a11.37,11.37,0,0,0,6-3.91,9.37,9.37,0,0,0,1.58-3.3l-.45-.12C91.45,208.35,85.68,210.41,85.62,210.43Z"/><path class="cls-19" d="M108.11,216.73a14,14,0,0,1-3.68,10.51,11.74,11.74,0,0,0,3.76-6,13.37,13.37,0,0,0,.38-4.61Z"/><path class="cls-19" d="M86.86,233.66l.09.45a11.21,11.21,0,0,0,3.51-1.4,10.86,10.86,0,0,0,4.44-5.4A12.38,12.38,0,0,1,86.86,233.66Z"/><path class="cls-6" d="M134.31,196.87c-.38.5-.75.94-1.11,1.34-.6.88-5,13.57-5,17.55,0,0-14.53,8.26-17.13,15s-11.17,5.2-13,5.66-8.56,6.58,2.15,14.38,16.06,0,18.51-4,19-9.73,31.51-23.46a28.8,28.8,0,0,0,7.58-22.62C150,199.1,143.55,196.87,134.31,196.87Z"/><path class="cls-8" d="M98.39,238.37c4.74-.67,11.69-.89,14.42-7,4-8,14.21-11.75,16-14.53,1.75-3.16.67-8.49,4.62-18.92a3,3,0,0,1-.23.27c-.6.88-5,13.57-5,17.55,0,0-14.53,8.26-17.13,15s-11.17,5.2-13,5.66a6.35,6.35,0,0,0-3.61,7.16C94.56,240.22,96.3,238.66,98.39,238.37Z"/><path class="cls-7" d="M154,199.57a32.51,32.51,0,0,1-8.38,21.18c-8.16,9.44-18,11.61-26.72,19.41-2.76,2.3-5.08,6.08-8.13,8.17-2.66,1.82-13.36,1.64-16.5-6,.31,7.55,10.76,11.81,14.54,11.81,5.18-.08,8.21-4.59,9.89-7.31,2.45-4,19-9.73,31.51-23.46a28.8,28.8,0,0,0,7.58-22.62C156.5,200.47,155.23,199.81,154,199.57Z"/><path class="cls-9" d="M157.5,200.68A28.65,28.65,0,0,1,150,223.2c-7.65,8.38-16.71,13.73-23.32,17.63-4.2,2.48-7.24,4.27-8.22,5.86-1.14,1.85-3.8,6.18-8.19,7.05-3,.59-6.33-.47-10-3.13-5.48-4-6.14-7.4-5.72-9.56a6.19,6.19,0,0,1,3.5-4.42,11.53,11.53,0,0,1,1.77-.11c3.24-.06,9.26-.17,11.39-5.69,2.54-6.58,16.89-14.79,17-14.87l.11-.07v-.13c0-3.83,3.11-13.44,4.82-17.55a51.74,51.74,0,0,0-3.19,7.85,39.48,39.48,0,0,0-2.09,9.56c-1.47.85-14.61,8.56-17.12,15-2,5.23-7.84,5.33-11,5.39a10.45,10.45,0,0,0-1.88.13A6.56,6.56,0,0,0,94.12,241c-.44,2.28.22,5.87,5.9,10,3.09,2.24,6,3.38,8.63,3.38a8.88,8.88,0,0,0,1.72-.17c4.58-.9,7.32-5.36,8.49-7.26.92-1.49,4.07-3.35,8.06-5.7,6.64-3.92,15.73-9.29,23.43-17.72A29.07,29.07,0,0,0,158,200.78Z"/><path class="cls-6" d="M70.55,211.57c.46-2.07-3.59-5.51-6.73-3.75-.46-2.14-12.2,2-7.88,12.77s18,11.25,19.89,9.26c1.68-1.76-.69-4.28-2.37-6.55C75.91,220,73.15,212.26,70.55,211.57Z"/><path class="cls-7" d="M63.85,207.8c-2.33,1.73-3.24,5.18-4,7.9,2.58-5.37,6.64-9.09,10.6-5C69.93,208.67,66.56,206.32,63.85,207.8Z"/><path class="cls-7" d="M70.55,211.57s0-.06,0-.09c-3.46.46-4.71,5.62-5.53,8.86,1.17-2.54,3.54-6.38,5.74-6,1.84.35,2,5.74,1,7.12-1.38,2.75,1.34,4.77-1.32,6.75-2.47,1.83-4.91,1.16-8.44-.3,5.58,3.52,12.46,3.33,13.77,2,1.68-1.76-.69-4.28-2.37-6.55C75.91,220,73.15,212.26,70.55,211.57Z"/><path class="cls-9" d="M73.74,223.29c1.38-2,1-5.28.14-7.66-.78-2.2-1.94-3.78-3.07-4.22a3.08,3.08,0,0,0-.8-2.12,5.8,5.8,0,0,0-4.31-2.18,4.09,4.09,0,0,0-1.77.39c-.15-.23-.48-.45-1.18-.45a9,9,0,0,0-6.48,4c-1.26,1.86-2.38,5-.54,9.61C59,228.82,67.47,231,72,231c1.94,0,3.45-.37,4-1,1.61-1.68-.15-4-1.71-6C74.11,223.77,73.92,223.53,73.74,223.29Zm1.93,6.4c-.5.52-2,.85-3.71.85-4.37,0-12.62-2.11-15.8-10-1.77-4.37-.71-7.4.49-9.17a8.64,8.64,0,0,1,6.1-3.82c.23,0,.78,0,.85.36l.06.3.27-.15a3.61,3.61,0,0,1,1.77-.45,5.42,5.42,0,0,1,4,2,2.5,2.5,0,0,1,.68,2l0,.21.21.06c1,.27,2.2,1.84,3,4s1.21,5.49-.17,7.38l-.1.14.1.13.65.87C75.44,226.26,77,228.29,75.67,229.69Z"/><path class="cls-9" d="M69.36,211.62c-3,1.16-4.32,8.72-4.32,8.72s1.73-7.22,4.49-8.29a2,2,0,0,1,1.9.3l.26-.38A2.41,2.41,0,0,0,69.36,211.62Z"/><path class="cls-9" d="M59.88,215.81c0-.08,1.77-7.53,5.2-8.19l-.08-.45C61.27,207.88,59.88,215.81,59.88,215.81Z"/><path class="cls-9" d="M106,235.72c3.65-.79,7.44-4.89,7.44-4.89s-4,3.68-7.54,4.44Z"/><path class="cls-6" d="M133.89,4.58c-2.89.37-6.23,5-10.48,12.7A75.77,75.77,0,0,0,115,41.55c-2.71,16.26-.61,34.87,8.39,54.36,1.53.31,10.86,2.45,10.86,2.45s.62-8.57,6.89-23.71c9.14-22.11,8.16-37.73,3.06-53.86C141.12,11,138,4.05,133.89,4.58Z"/><path class="cls-7" d="M134.8,4.59c20.43,40.38-2.69,76.69-.9,93.68l.37.09s.62-8.57,6.89-23.71c9.14-22.11,8.16-37.73,3.06-53.86C141.36,11.76,138.45,5.12,134.8,4.59Z"/><path class="cls-8" d="M133.37,4.69c-2.77.83-6,5.37-10,12.59A75.77,75.77,0,0,0,115,41.55c-2.54,15.21-.86,32.49,6.74,50.62-1.11-7-3.26-14-4.16-21C116.44,62,117,51,118.51,40.38,120.2,28.44,125.82,13.1,133.37,4.69Z"/><path class="cls-9" d="M133.86,4.35c-2.72.35-5.8,4.06-10.65,12.81a75.92,75.92,0,0,0-8.42,24.36c-2.9,17.44,0,36.28,8.41,54.49l0,.1.12,0c1.5.3,10.76,2.42,10.85,2.44l.26.06,0-.26c0-.09.69-8.7,6.87-23.65,10-24.27,7.4-40.3,3.07-54C141.64,11.91,138.41,3.77,133.86,4.35Zm7.08,70.21c-5.6,13.55-6.7,22-6.87,23.52-1.47-.34-8.86-2-10.5-2.37-8.33-18.09-11.21-36.8-8.33-54.12a75.51,75.51,0,0,1,8.37-24.2c4.71-8.5,7.79-12.26,10.31-12.58,4.25-.55,7.48,7.84,10.08,16.05C148.31,34.49,150.93,50.42,140.94,74.56Z"/><path class="cls-6" d="M73.23,77.55C59.61,61.49,37.76,54.42,17.85,56c-21.42,1.68-11.9,15-6.12,21,6.37,6.53,17.06,14.85,34.88,17.3,18.88,2.59,32.89,7,37,12.39,2.6-4.28,13.62-9.49,13.62-9.49S86.85,93.62,73.23,77.55Z"/><path class="cls-7" d="M33.45,86.35C22.35,81,8.09,74.29,5.37,61c-2.9,4.89,2.55,12,6.36,15.94,6.37,6.53,17.06,14.85,34.88,17.3,18.88,2.59,32.89,7,37,12.39l.16-.24C69.71,91.47,48.59,94.13,33.45,86.35Z"/><path class="cls-8" d="M80.42,85.35a9.85,9.85,0,0,0,1.17,1c-.54-.5-1.09-1-1.65-1.57C80.1,85,80.27,85.16,80.42,85.35Z"/><path class="cls-8" d="M17.85,56c-7.38.58-11.09,2.55-12.54,5.12,14-9.49,48.86-1,69.28,18l-1.36-1.57C59.61,61.49,37.76,54.42,17.85,56Z"/><path class="cls-8" d="M74.59,79.12c1.86,2.11,3.65,4,5.35,5.66A59.31,59.31,0,0,0,74.59,79.12Z"/><path class="cls-9" d="M73.41,77.4C61.8,63.71,43.07,55.54,23.29,55.54c-1.82,0-3.66.07-5.46.21-7.4.58-11.81,2.62-13.11,6.06-2,5.39,4.11,12.48,6.85,15.28,9.51,9.76,21,15.44,35,17.37,19.46,2.67,32.9,7.15,36.87,12.3l.21.26.17-.28c2.54-4.18,13.41-9.35,13.52-9.4l.51-.24-.54-.18C97.22,96.88,86.81,93.22,73.41,77.4Zm10.2,28.83c-4.27-5.14-17.7-9.58-37-12.23-13.93-1.91-25.3-7.55-34.75-17.23C9.81,74.64,3.17,67.26,5.15,62c1.23-3.26,5.51-5.2,12.72-5.77,1.78-.14,3.61-.21,5.42-.21,19.64,0,38.25,8.11,49.77,21.7,11.83,14,21.37,18.52,23.62,19.46C94.56,98.19,86.17,102.46,83.61,106.23Z"/><path class="cls-20" d="M10.77,63.78c-.57,1.27,7.35,8.67,17,12.51C35.51,79.38,52.08,84,59.19,82.6c0,0-13.19-12.28-26-17.44S11.35,62.52,10.77,63.78Z"/><path class="cls-21" d="M10.77,63.78h0c11.21-3.37,38.75,10.4,39,18.5a30.08,30.08,0,0,0,9.4.31S46,70.32,33.15,65.16,11.35,62.52,10.77,63.78Z"/><path class="cls-9" d="M33.23,65a40.12,40.12,0,0,0-14.85-3.14c-4.3,0-7.41,1-7.82,1.88a.85.85,0,0,0,0,.67c.88,2.19,8.21,8.61,17.06,12.14,6.65,2.66,20.29,6.58,28.45,6.58h0a16.77,16.77,0,0,0,3.12-.25l.44-.09-.33-.31C59.22,82.31,46,70.07,33.23,65ZM56.12,82.62c-8.1,0-21.66-3.9-28.28-6.54-8.91-3.56-16-10-16.8-11.89a.51.51,0,0,1-.06-.31c.22-.47,2.65-1.61,7.4-1.61a39.67,39.67,0,0,1,14.68,3.1C44.58,70,56.53,80.5,58.69,82.45A16.52,16.52,0,0,1,56.12,82.62Z"/><path class="cls-9" d="M55,78.72l-.31.34c3.34,3.11,9.44,7.45,15.38,11.45,3.15,2.11,6.94,4.28,9.23,5.49-3.43-2.2-7.71-5-11.83-7.81A120.89,120.89,0,0,1,55,78.72Z"/><path class="cls-20" d="M134.27,14.22c-1.37-.16-8.11,14.07-8.87,28.76s4.44,31.28,4.13,35.91c0,0,11.63-18.47,10.86-38.21S135.65,14.37,134.27,14.22Z"/><path class="cls-21" d="M131.5,68.61a81.54,81.54,0,0,1,3-54.31.52.52,0,0,0-.24-.08c-1.37-.16-8.11,14.07-8.87,28.76s4.44,31.28,4.13,35.91a91.6,91.6,0,0,0,8.14-18.52C136,63.36,133.1,68.36,131.5,68.61Z"/><path class="cls-9" d="M134.3,14h-.05c-1.65,0-8.32,14.39-9.08,29-.49,9.33,1.42,19.4,2.82,26.75.79,4.18,1.42,7.49,1.31,9.15l-.06.91.48-.77c.12-.18,11.66-18.76,10.9-38.34S136,14.17,134.3,14Zm-4.54,64.06a71.2,71.2,0,0,0-1.32-8.42c-1.39-7.32-3.3-17.36-2.81-26.64.78-15.07,7.58-28.49,8.62-28.55,1.26.14,5.16,6.88,5.91,26.25C140.83,58,131.85,74.47,129.76,78.05Z"/><path class="cls-9" d="M130.55,76.67c-2.87,3.87-2.09,11.89-2.09,11.89s-.31-7.88,2.46-11.61Z"/><path class="cls-6" d="M101.61,90.33C88.28,93.22,76.22,96,68.72,115.72c-2.71,7.12-4.2,15.68-1.3,24.94,1.93,6.16-6.16,8.81-1.4,15.2,3.92,5.26,68.41,1.86,79.42-2,14.75.42,18.4-24.7,4.28-45.43C137.24,90.12,116.56,87.08,101.61,90.33Z"/><path class="cls-7" d="M80.58,117.27c-3.6-2.72-8.67-1.51-10.71,3.15-1.38,3.16-1.63,8,0,12.66,3.52,10.13,13.14,13.09,16.19,11.2a2.13,2.13,0,0,0,.5-.46C89.84,140,85.47,121,80.58,117.27Z"/><path d="M80.45,118.88c-3.66-2.1-7.75,0-9.67,4.21a14.71,14.71,0,0,0-.07,11C74,143.35,83.1,146.05,86,144.33a2.29,2.29,0,0,0,.47-.42C89.54,140.43,88.19,123.33,80.45,118.88Z"/><path class="cls-22" d="M80.47,119.72c-3.59-2-7.63,0-9.51,4.07a14,14,0,0,0-.07,10.68c3.27,8.93,12.2,11.54,15,9.87a2.17,2.17,0,0,0,.47-.4C89.43,140.57,88.09,124,80.47,119.72Z"/><path class="cls-23" d="M71,123.79a14,14,0,0,0-.07,10.68c3.27,8.93,12.2,11.54,15,9.87a2.17,2.17,0,0,0,.47-.4,16.38,16.38,0,0,1-7.67-3.59C73.38,136.44,71.82,130.21,71,123.79Z"/><path class="cls-8" d="M68.72,115.72c-2.71,7.12-4.2,15.68-1.3,24.94,1.83,5.84-5.34,8.53-2,14.24-.88-7.52,3.64-9.1,2.88-13.61-3.09-10.15-.9-22.35,5.27-32.07,4.44-7,9.08-12,17.41-16.17C82,96,74.15,101.43,68.72,115.72Z"/><path class="cls-7" d="M116.58,89.38c16,4,27.4,12.37,32.23,27.64,4.31,13.73,1.58,27.8-7.62,37.9a31.64,31.64,0,0,0,4.25-1c14.75.42,18.4-24.7,4.28-45.43C141.07,95.74,128.48,90.38,116.58,89.38Z"/><path class="cls-9" d="M112.3,89a51.12,51.12,0,0,0-10.74,1.14C88.47,93,76.11,95.63,68.5,115.64c-3.38,8.89-3.81,17.1-1.3,25.09.83,2.65-.27,4.66-1.34,6.6-1.35,2.46-2.75,5,0,8.67,1.72,2.31,13.69,2.79,23.43,2.79,21.54,0,49.34-2.31,56.21-4.67h.32c4.51,0,8.12-2.33,10.45-6.74,4.4-8.32,3.64-24.41-6.34-39.06C138.44,91.48,121.43,89,112.3,89Zm43.55,58.22c-2.25,4.24-5.72,6.49-10,6.49h-.39l0,0c-6.77,2.35-34.55,4.65-56.1,4.65-13.42,0-21.83-1-23.06-2.61-2.56-3.42-1.29-5.73.05-8.17,1.11-2,2.27-4.12,1.38-7-2.48-7.89-2-16,1.29-24.79C76.45,96,88.7,93.37,101.66,90.55a50.18,50.18,0,0,1,10.64-1.13c9,0,25.88,2.49,37.23,19.16C159.41,123.09,160.18,139,155.85,147.18Z"/><path class="cls-7" d="M115.61,143.43c-4.72-3.41-6.07-23.82,4.42-30.77,9.31-6.17,21.06,2,19.16,16.17C137.38,142.43,121.33,147.56,115.61,143.43Z"/><path d="M115.74,143.62c-4.42-2.94-5.68-20.55,4.12-26.55,8.7-5.32,19.68,1.73,17.91,14C136.08,142.75,121.08,147.18,115.74,143.62Z"/><path class="cls-22" d="M137.5,131.46c-1,6.68-6.49,10.91-11.93,12.56-3.82,1.17-7.61,1.06-9.77-.36s-3.55-6.3-3.23-11.59S115,120.89,119.86,118C128.43,112.8,139.25,119.63,137.5,131.46Z"/><path class="cls-23" d="M132.65,118.41c4.26,6.78.1,16.78-6.45,20.63a29.84,29.84,0,0,1-11.39,3.65,3.94,3.94,0,0,0,1,1c5.26,3.45,20-.84,21.7-12.2C138.37,125.6,136.15,121,132.65,118.41Z"/><path d="M120.54,145a8.91,8.91,0,0,1-4.86-1.2c-2.08-1.36-3.47-5.78-3.37-10.76.13-6.86,2.91-12.59,7.44-15.31A12.1,12.1,0,0,1,126,116a11.65,11.65,0,0,1,8.8,4.07,14,14,0,0,1,2.95,11.42C136.36,140.73,126.66,145,120.54,145ZM126,116.43a11.65,11.65,0,0,0-6,1.71c-4.39,2.65-7.1,8.24-7.22,15-.1,4.83,1.21,9.1,3.17,10.38a8.44,8.44,0,0,0,4.62,1.13c6,0,15.42-4.19,16.75-13.17a13.58,13.58,0,0,0-2.85-11.07A11.19,11.19,0,0,0,126,116.43Z"/><path d="M83.77,145h0c-3.57,0-10.29-2.85-13.08-10.49-1.66-4.54-1.29-9.2,1-12.46a7.26,7.26,0,0,1,5.84-3.39,6.06,6.06,0,0,1,3.06.84c5.1,2.88,7.48,11.14,7.54,17.61,0,3.83-.75,6.6-2.09,7.39A4.5,4.5,0,0,1,83.77,145Zm-6.25-25.9a6.81,6.81,0,0,0-5.48,3.2c-2.2,3.15-2.56,7.66-.94,12.06,2.72,7.44,9.22,10.21,12.67,10.21h0a4.08,4.08,0,0,0,2-.45c1.19-.7,1.91-3.38,1.87-7-.05-6.34-2.37-14.44-7.31-17.23A5.69,5.69,0,0,0,77.52,119.13Z"/><path class="cls-22" d="M84.43,140.24a1,1,0,1,1-.92-1.14A1,1,0,0,1,84.43,140.24Z"/><path class="cls-6" d="M84,122.35c5.51-1.46,13.43,2.25,14,13.26.55,10.29-10,10.59-12.58,10.09C88.88,134.94,84,122.35,84,122.35Z"/><path class="cls-8" d="M84,122.35c3.12,4.73,4.93,15.6,3.23,22.92-1.36.12-1.14.56-1.79.43C88.88,134.94,84,122.35,84,122.35Z"/><path d="M85.66,145.76l-.42-.13c3.14-10.26-1.67-23-1.23-23.28C84.83,124.4,88.82,134.34,85.66,145.76Z"/><path class="cls-10" d="M147,140.18c-11.27-2.19-19.71-.67-33.71,6.22-10.13,5-27.62,3.47-32.74.91-9.18-4.59-19.58-1.83-16.06,12.09s27.08,19.89,34,20.35c3.64,4,12.76,3.31,16.77-.08a119.9,119.9,0,0,1,26.83-9.25c13.81-2.91,20.89-12.93,17.12-22C157.67,144.83,153.78,141.5,147,140.18Z"/><path class="cls-22" d="M71.1,147.08c3.39-.65,7.84.4,11.27.94a13,13,0,0,1-1.8-.71c-9.18-4.59-19.58-1.83-16.06,12.09,1.14,4.49,4.36,8.16,8.44,11.07C64.51,165.26,60.81,149.07,71.1,147.08Z"/><path class="cls-11" d="M147,140.18c-1.13-.21-2.22-.39-3.3-.54,4.24,1.17,7.34,3,9.37,6.72,3.37,6.55.15,13.27-8,18.32-7.8,4.13-19.31,6.24-26.19,11.75a24.77,24.77,0,0,0,1.6-2.42c-6.2,5.56-10.64,6.8-15.11,6.72s-8.8-3.39-12.37-3.79l.68.31c-9.47-1-17.67-5.1-23.73-9.23,8.36,7.83,23.29,11.38,28.53,11.73,3.64,4,12.76,3.31,16.77-.08a119.9,119.9,0,0,1,26.83-9.25c13.81-2.91,20.89-12.93,17.12-22C157.67,144.83,153.78,141.5,147,140.18Z"/><path class="cls-12" d="M147.06,140a46.72,46.72,0,0,0-9-.94c-7.32,0-14.53,2.08-24.88,7.17-4.28,2.11-10.47,3.27-17.42,3.27-6.13,0-12.35-1-15.11-2.35A18.27,18.27,0,0,0,72.63,145a8.71,8.71,0,0,0-7.21,3.1c-2,2.53-2.36,6.44-1.13,11.32,3.55,14,27.44,20,34.08,20.51,1.63,1.75,4.49,2.74,7.85,2.74a14.83,14.83,0,0,0,9.15-2.85,121.21,121.21,0,0,1,26.75-9.22c7.81-1.64,13.9-5.65,16.71-11a13.06,13.06,0,0,0,.57-11.27C158.38,145.93,155.42,141.59,147.06,140Zm11.36,19.47c-2.74,5.22-8.72,9.15-16.39,10.76a121.42,121.42,0,0,0-26.89,9.28l0,0a14.4,14.4,0,0,1-8.88,2.76c-3.28,0-6-1-7.58-2.67l-.06-.06h-.09c-6.43-.43-30.25-6.31-33.76-20.18-1.19-4.73-.83-8.5,1-10.92a8.29,8.29,0,0,1,6.85-2.92,17.87,17.87,0,0,1,7.84,2c2.87,1.43,9,2.4,15.32,2.4,7,0,13.28-1.18,17.62-3.32,10.29-5.06,17.44-7.12,24.68-7.12a46.58,46.58,0,0,1,8.88.93c8.15,1.59,11,5.78,12,8.14A12.44,12.44,0,0,1,158.42,159.43Z"/><path class="cls-24" d="M88.45,158.64c6.81,2.75,5.94,8.18,10.64,13.69,3.52,4.13,9.52,1.43,10.49-4,2.43-13.52,8.4-17.66,8.4-17.66C111.87,147.83,90.23,155.59,88.45,158.64Z"/><path class="cls-25" d="M97.25,169.77a19.18,19.18,0,0,0,1.84,2.56c3.52,4.13,9.52,1.43,10.49-4v0C104,165.27,99.43,168,97.25,169.77Z"/><path class="cls-26" d="M99.49,168.25a14.2,14.2,0,0,0-2.24,1.52,19.18,19.18,0,0,0,1.84,2.56,6.37,6.37,0,0,0,.57.59C98.45,171.16,98.45,169.6,99.49,168.25Z"/><path class="cls-20" d="M107.37,167.42c.66,2.93-1.08,5.49-3.56,6.91a7,7,0,0,0,5.77-6v0A11.44,11.44,0,0,0,107.37,167.42Z"/><path class="cls-27" d="M104.47,166.71a11.67,11.67,0,0,0-7.37,2.89l-.15.12.1.17a19.85,19.85,0,0,0,1.86,2.59,5.55,5.55,0,0,0,4.29,2.08h0c3.13,0,6-2.66,6.61-6.2l0-.17-.14-.08A10.94,10.94,0,0,0,104.47,166.71Zm-1.27,7.39h0a5.09,5.09,0,0,1-3.94-1.92,19,19,0,0,1-1.71-2.36,11.15,11.15,0,0,1,6.92-2.66,10.3,10.3,0,0,1,4.86,1.28C108.68,171.68,106.07,174.1,103.2,174.1Z"/><path class="cls-12" d="M114.29,149.83c-8.55,0-24.52,6.1-26,8.69l-.13.23.25.1c4.12,1.67,5.37,4.34,6.82,7.43a25.47,25.47,0,0,0,3.72,6.2,5.57,5.57,0,0,0,4.29,2.08c3.13,0,6-2.66,6.61-6.19,2.37-13.25,8.24-17.47,8.3-17.51l.33-.23-.36-.17A9.26,9.26,0,0,0,114.29,149.83Zm-4.93,18.46c-.6,3.31-3.25,5.81-6.16,5.81a5.09,5.09,0,0,1-3.94-1.92,24.72,24.72,0,0,1-3.65-6.09c-1.46-3.12-2.73-5.82-6.8-7.56,2.18-2.62,17.27-8.24,25.48-8.24a10,10,0,0,1,3.24.44C116.23,151.81,111.48,156.47,109.36,168.29Z"/><path class="cls-22" d="M86.77,161.54c2,.92,7,7.12,7.36,7.65s4.5.46,6.49-1.07S104,158,104,158C98.7,154.35,86.46,159.78,86.77,161.54Z"/><path class="cls-28" d="M100.33,156.79c1.94,3.61.63,9.92-3.08,11.15A20.37,20.37,0,0,0,93.4,161c1.4,2.41,2.84,5.54,2.36,6.75-.24.64-1.6.93-2.41.46.41.5.7.86.78,1,.4.54,4.5.46,6.49-1.07S104,158,104,158A7.58,7.58,0,0,0,100.33,156.79Z"/><path class="cls-29" d="M99.26,156.51c-4.87,0-11,2.58-12.41,4.27a1,1,0,0,0-.31.8l0,.12.11.05c1.91.88,6.87,7,7.27,7.58.25.32,1.08.39,1.73.39a9.09,9.09,0,0,0,5.09-1.42c2-1.56,3.39-10,3.45-10.32l0-.14-.12-.08A8.46,8.46,0,0,0,99.26,156.51Zm1.22,11.43a8.73,8.73,0,0,1-4.81,1.32,2.65,2.65,0,0,1-1.36-.21c0-.06-5.06-6.44-7.3-7.65a1,1,0,0,1,.19-.33c1.22-1.44,7-4.1,12.06-4.1a8.22,8.22,0,0,1,4.47,1.09C103.54,159.19,102.23,166.59,100.48,167.94Z"/><path class="cls-29" d="M97.17,169.49h.46c.08-3.95-4.23-8.49-4.23-8.49S97.25,165.71,97.17,169.49Z"/><path class="cls-10" d="M83.29,145.94C73.14,151.85,79,162,84.55,162.46a8.41,8.41,0,0,0,7.92-3.67c1.89,1.58,7.62,3.11,13.31.69a10.83,10.83,0,0,0,5.5-5.23l.2-4.89C108.6,144.32,94.59,139.36,83.29,145.94Z"/><path class="cls-22" d="M83.29,145.94c-6.68,3.89-6.41,9.61-3.87,13.2-1.65-4.63-.41-8.25,2.07-10.53,7.28-6,16.64-5.68,26-2.83C101.77,142.56,91.77,141,83.29,145.94Z"/><path class="cls-11" d="M91.55,157.67c-2,2.87-7.8,5.05-11.64,2.1a7.17,7.17,0,0,0,4.64,2.69,8.41,8.41,0,0,0,7.92-3.67c1.89,1.58,7.62,3.11,13.31.69a10.83,10.83,0,0,0,5.5-5.23v-.33C106.73,159.27,97.63,160.17,91.55,157.67Z"/><path class="cls-12" d="M105.69,159.27c-5.75,2.44-11.35.78-13.07-.66l-.21-.17-.14.23a8.25,8.25,0,0,1-7.7,3.56c-2.82-.23-5.63-3-6.38-6.38-.85-3.75,1-7.29,5.22-9.71a24.71,24.71,0,0,1,18.78-2.23c4.24,1.14,7.81,3.33,9.09,5.56a6,6,0,0,0-2.12-2.87,19.28,19.28,0,0,0-6.86-3.13,25.24,25.24,0,0,0-19.13,2.27c-4.34,2.53-6.32,6.25-5.43,10.21.8,3.53,3.78,6.49,6.79,6.74l.86,0a8.7,8.7,0,0,0,7.13-3.6c2,1.46,7.62,3,13.35.57a11,11,0,0,0,5.62-5.34l-.42-.19A10.54,10.54,0,0,1,105.69,159.27Z"/><path class="cls-12" d="M89.76,153.79l-.44.13c.06.19,1.44,4.54,4.71,6l.19-.42C91.14,158.13,89.78,153.83,89.76,153.79Z"/><path class="cls-30" d="M83.66,149.09c-1.45,3.72,4.2,6.93,6.57,6.5,2-.36,4.94-3.57,4.65-7.13C94.57,144.52,85.29,144.9,83.66,149.09Z"/><path class="cls-31" d="M94.88,148.46a2.62,2.62,0,0,0-1.66-2.16c1.67,3-3.11,6.7-5.1,7.06a4.79,4.79,0,0,1-4.5-1.91c.92,2.6,4.76,4.48,6.61,4.14C92.24,155.23,95.17,152,94.88,148.46Z"/><path d="M90.24,145.48c-2.61,0-5.85,1.11-6.8,3.53A3.74,3.74,0,0,0,84,152.6a8.12,8.12,0,0,0,5.81,3.26h0a2.6,2.6,0,0,0,.5,0c2.11-.38,5.13-3.72,4.84-7.38C95,146.65,93.06,145.48,90.24,145.48Zm0,9.89a2.77,2.77,0,0,1-.42,0h0a7.74,7.74,0,0,1-5.43-3.06,3.27,3.27,0,0,1-.47-3.17c.87-2.22,3.91-3.23,6.37-3.23,2,0,4.27.67,4.42,2.54C94.93,151.9,92.13,155,90.19,155.37Z"/><path class="cls-6" d="M103.48,84.78c-8.14.7-18.13,5.85-18,14.69s6.31,15.77,6.31,15.77c.46,3.05,3.79,8.09,4.48,7.86s1.6-7.22,6.54-9.63c4.59-1,12.81-8.41,14.34-14.35S118.29,83.52,103.48,84.78Z"/><path class="cls-8" d="M115.52,88.06c-2-2.33-5.71-3.82-12-3.28-8.14.7-18.13,5.85-18,14.69a25.4,25.4,0,0,0,2,8.69c-1.7-9.8.85-15,6.68-18.43C101.27,85.5,111.48,84.11,115.52,88.06Z"/><path class="cls-7" d="M114.22,86.85c6.46,9.15-3.54,20.46-9.2,20.38,0-1-.51-2.36-.61-3.73.61,8.51-7.71,8.15-9.86,13.77-3-4.79-3.2-8-1.28-13.1-2.84,2.29-3.54,7.84-5.84,3.35l-.3-.12a29,29,0,0,0,4.65,7.84c.46,3.05,3.79,8.09,4.48,7.86s1.6-7.22,6.54-9.63c4.59-1,12.81-8.41,14.34-14.35C118.11,95.35,118.3,89.87,114.22,86.85Z"/><path class="cls-7" d="M93.27,104.17a11.41,11.41,0,0,0-.6,1.46C92.88,105.15,93.08,104.66,93.27,104.17Z"/><path class="cls-9" d="M103.46,84.55c-8.91.76-18.33,6.25-18.22,14.92.11,8.42,5.76,15.21,6.32,15.87.47,2.87,3.63,8,4.65,8l.12,0c.28-.09.44-.5.85-1.66.78-2.19,2.23-6.27,5.69-8,4.79-1.09,13-8.59,14.49-14.5.53-2.07,1.46-7.27-1.36-10.91C113.7,85.3,109.47,84,103.46,84.55Zm13.46,14.52c-1.49,5.78-9.5,13.12-14.17,14.17l-.06,0c-3.64,1.78-5.14,6-5.94,8.25a7.73,7.73,0,0,1-.56,1.37c-.66-.15-3.74-4.76-4.18-7.68v-.07l0,0c-.06-.07-6.14-7-6.25-15.62C85.58,90.55,96,85.65,103.5,85c.86-.07,1.69-.11,2.47-.11,4.54,0,7.79,1.23,9.66,3.65C118.34,92,117.43,97.07,116.92,99.07Z"/><path class="cls-9" d="M101.32,114.12l.28.36c5.38-4.21,2.81-11,2.81-11S106.45,110.1,101.32,114.12Z"/><path class="cls-9" d="M92.12,117.27l.45-.12a24.24,24.24,0,0,1,.63-13.07A22.21,22.21,0,0,0,92.12,117.27Z"/><path class="cls-32" d="M124,105.54c-1.38.84-1.59,3.2-.36,3.68s5.78-2.09,9.92,2.15C131.19,105.8,126,104.28,124,105.54Z"/><path class="cls-33" d="M122.85,107.17a1.69,1.69,0,0,0,.74,2c1.12.43,5.78-2.09,9.92,2.15a12.8,12.8,0,0,0-1.07-2C129.72,106.82,125.73,105.58,122.85,107.17Z"/><path d="M125,105a3.27,3.27,0,0,0-1.14.39,2.89,2.89,0,0,0-1.27,2.65,1.59,1.59,0,0,0,1,1.44,3.66,3.66,0,0,0,1.64-.08l.52-.08c2.35-.37,5.09-.38,7.67,2.26l.84.85-.46-1.1C131.65,106.3,127.36,104.58,125,105Zm.63,3.86-.52.09-.42.07a2.36,2.36,0,0,1-1,0,1.12,1.12,0,0,1-.66-1,2.42,2.42,0,0,1,1-2.21,2.59,2.59,0,0,1,1-.34c2.07-.32,5.67,1.06,7.77,5A8.71,8.71,0,0,0,125.6,108.81Z"/><path class="cls-32" d="M78.34,109.45c-1.69-.77-5.5.85-6.77,5.3,2.79-3.6,6.57-2.1,7.38-2.52S79.48,110,78.34,109.45Z"/><path class="cls-33" d="M72.19,113.17a9.81,9.81,0,0,0-.62,1.58c2.79-3.6,6.57-2.1,7.38-2.52a1.25,1.25,0,0,0,.43-1.49C76.9,109.54,74,111.11,72.19,113.17Z"/><path d="M78.44,109.25a2.44,2.44,0,0,0-1-.21c-2.15,0-5,2-6.05,5.65L71,115.84l.73-1a6,6,0,0,1,5.08-2.4c.34,0,.65,0,.93,0l.61,0a1.42,1.42,0,0,0,.67-.11,1.26,1.26,0,0,0,.63-1.23A2.25,2.25,0,0,0,78.44,109.25Zm.4,2.78a3.41,3.41,0,0,1-1,0l-1,0a6.43,6.43,0,0,0-4.67,1.71c1.28-3.07,3.8-4.25,5.23-4.25a2,2,0,0,1,.85.16,1.81,1.81,0,0,1,1,1.55A.86.86,0,0,1,78.84,112Z"/><path class="cls-12" d="M114,180.79c1.78-1,5.58-5,5.74-5.15a63.43,63.43,0,0,1-6,4.75Z"/><path class="cls-12" d="M93,176.94c.33.1,5.18,2.44,6.24,3.79l.36-.28C98.25,178.72,93,176.94,93,176.94Z"/><path class="cls-10" d="M117.51,149.35c-4.34-2.06-9.92,2-10.78,4.26a8,8,0,0,1,5.78,1.11,9.27,9.27,0,0,1,4,4.11S121.85,151.42,117.51,149.35Z"/><path class="cls-12" d="M110.13,153.59a6,6,0,0,0-3.4,0,11.27,11.27,0,0,1,9.72,5.17,6.62,6.62,0,0,0-1.41-2.47A10.16,10.16,0,0,0,110.13,153.59Z"/><path class="cls-12" d="M104.2,177.19c-3.69.48-7.15-4.52-7.18-4.57A11,11,0,0,0,99.58,176a6.46,6.46,0,0,0,4.11,1.68,3.64,3.64,0,0,0,.57,0,8.94,8.94,0,0,0,5.42-3.07,10.2,10.2,0,0,0,2.32-4.41C109.3,175.94,105.65,177,104.2,177.19Z"/><path class="cls-34" d="M87.61,146.85c-1,.28-1.7,1-1.54,1.49s1.09.75,2.1.47,1.7-1,1.55-1.5S88.62,146.56,87.61,146.85Z"/><path class="cls-35" d="M124.31,136.45c-.81,4-3.6,6.79-6.23,6.26s-4.11-4.2-3.31-8.19,3.6-6.78,6.23-6.25S125.12,132.46,124.31,136.45Z"/><path class="cls-35" d="M119,143a3.69,3.69,0,0,1-.94-.06c-2.75-.56-4.32-4.36-3.49-8.46.73-3.61,3.08-6.34,5.58-6.5a3.64,3.64,0,0,1,.93.06,4.43,4.43,0,0,1,3.11,2.94,9.77,9.77,0,0,1,.38,5.52C123.81,140.1,121.47,142.84,119,143Zm1.18-14.56c-2.3.15-4.46,2.73-5.15,6.13-.78,3.85.62,7.4,3.13,7.91a3.1,3.1,0,0,0,.81.05c2.29-.15,4.45-2.72,5.14-6.12a9.32,9.32,0,0,0-.35-5.26A4,4,0,0,0,121,128.5,3.16,3.16,0,0,0,120.15,128.44Z"/><path d="M122.24,136.22c-.73,2.59-2.72,4.3-4.43,3.81s-2.5-3-1.76-5.57,2.72-4.29,4.43-3.81S123,133.63,122.24,136.22Z"/><path class="cls-22" d="M120.47,131.71a2,2,0,1,1-2.19-1.69A1.95,1.95,0,0,1,120.47,131.71Z"/><path class="cls-22" d="M118.54,139.2a.76.76,0,0,1-1.5.18.76.76,0,0,1,1.5-.18Z"/><path class="cls-35" d="M85.52,135.4c1,3.95-.39,7.67-3,8.3s-5.5-2.06-6.46-6,.39-7.67,3-8.3S84.57,131.44,85.52,135.4Z"/><path class="cls-35" d="M83.45,143.59a3.57,3.57,0,0,1-.87.34c-2.74.66-5.76-2.12-6.74-6.19-.87-3.58.1-7,2.3-8.25a3.84,3.84,0,0,1,.87-.34,4.45,4.45,0,0,1,4.06,1.35,9.73,9.73,0,0,1,2.68,4.84C86.61,138.92,85.64,142.39,83.45,143.59ZM78.36,129.9c-2,1.11-2.88,4.36-2.07,7.73.92,3.82,3.69,6.44,6.18,5.84a3,3,0,0,0,.75-.29c2-1.1,2.89-4.35,2.07-7.73a9.38,9.38,0,0,0-2.53-4.61,4,4,0,0,0-3.64-1.23A3.05,3.05,0,0,0,78.36,129.9Z"/><path d="M83.55,136.07c.43,2.65-.65,5-2.4,5.32s-3.53-1.64-4-4.3.65-5,2.41-5.32S83.12,133.41,83.55,136.07Z"/><path class="cls-22" d="M80.36,132.51a2,2,0,1,1-2.7-.6A2,2,0,0,1,80.36,132.51Z"/><path class="cls-22" d="M81.11,140.52a.76.76,0,0,1-1.29.8.74.74,0,0,1,.26-1A.75.75,0,0,1,81.11,140.52Z"/></svg>