<svg id="Layer_1" data-name="Layer 1" xmlns="http://www.w3.org/2000/svg" viewBox="0 0 510.66 341.28"><defs><style>.cls-1{opacity:0.3;}.cls-10,.cls-2,.cls-27,.cls-4,.cls-5{fill:#ff8a00;}.cls-2,.cls-27,.cls-29,.cls-3,.cls-4,.cls-5{stroke:#5b1b02;}.cls-14,.cls-18,.cls-19,.cls-2,.cls-20,.cls-21,.cls-22,.cls-23,.cls-27,.cls-29,.cls-3,.cls-4,.cls-5{stroke-miterlimit:10;}.cls-2{stroke-width:0.71px;}.cls-3{fill:#c66c0a;}.cls-29,.cls-3,.cls-4{stroke-width:0.75px;}.cls-5{stroke-width:0.48px;}.cls-6{fill:#ff7a75;}.cls-7{fill:#ba6304;}.cls-8{fill:#6d1f0d;}.cls-9{fill:#590e0e;}.cls-11,.cls-15{fill:#ffde8c;}.cls-12{fill:#fbffff;}.cls-13{fill:#130d14;}.cls-14{fill:#6b0a0a;stroke:#2d0901;stroke-width:0.5px;}.cls-15{opacity:0.76;}.cls-16{fill:#091204;}.cls-17{fill:#b70f0f;}.cls-18,.cls-19,.cls-21,.cls-22,.cls-23{fill:#fff;}.cls-18,.cls-19{stroke:#4f2102;}.cls-18{stroke-width:0.64px;}.cls-19{stroke-width:0.61px;}.cls-20{fill:#4f2305;stroke-width:0.35px;}.cls-20,.cls-21,.cls-22,.cls-23{stroke:#020b3f;}.cls-21{stroke-width:0.07px;}.cls-22{stroke-width:0.12px;opacity:0.1;}.cls-23{stroke-width:0.07px;}.cls-24{fill:#160b0c;}.cls-25{fill:#60110e;}.cls-26{fill:#f5a954;}.cls-27{stroke-width:0.51px;}.cls-28{fill:#ddb966;}.cls-29{fill:none;}.cls-30{fill:#471201;}</style></defs><ellipse class="cls-1" cx="243.03" cy="312.45" rx="195.63" ry="18.03"/><path class="cls-2" d="M267.33,223.67s29.6-36.27,78.23-25.89,48.09,45.28,104.58,47.7l-1.26,4.68s-36.94,8.25-65.19-22.55C363,205,310.05,192.53,276.43,235.89l-6.82,1.25-6.15-9.53Z"/><path class="cls-3" d="M230.28,245s6.67,27.14,35.19,33.81c0,0,14.49,3.45,18.4,6.44v4.6a80.79,80.79,0,0,0-8.33,2.21c-4.52,1.46-19,.73-20.62,14,0,0-1,9.63,10.49,9.27,0,0,3.91,3,11.71-.73,0,0,10,3.9,20.74-7.44s10.85-20.13,10.85-20.13.74-3.9-4.75-7.07-9.4-20.13-4.64-28.06-2.54-15.44-2.54-15.44l-32.09-6-22.54,3.07Z"/><path class="cls-3" d="M145.14,238.77l3.33,65.55s.23,8.65-9.79,10.7-15.25,1.49-15.25,1.49-1.16.81-6,0c0,0-6.39,2-8.83-4,0,0-3.35-11,5.58-14.72s10.25-3.85,9.95-10.55-15.73-41.62-16.65-61.72Z"/><path class="cls-4" d="M90,192.35s-1,29.23,29.69,45.74S211,250.61,211,250.61s57.26-7.35,65.81-5.17a144.56,144.56,0,0,0,33.41,9.15c17.69,2.39,34.6,9.94,40.56,20.68,0,0,4.18,10.14,0,20.48,0,0-11.49,15.77,1.86,20.08H356a1.52,1.52,0,0,1,.66.15,15.93,15.93,0,0,0,14.81-1.34s11.93,3,14.91-7.16-6.76-28-6.76-28L366.93,249s1-7.55-9.35-10.14-25.45-4.17-32-17.3-5.51-22.24-25.05-33.2c-16.11-9-56.28-17.55-56.28-17.55s-47.08-17.75-62.31-40.27C181.93,130.56,89.65,175.89,90,192.35Z"/><path class="cls-5" d="M36.92,76.78S46.41,69,50.55,61.94c0,0,1.28-11.8-9-15.36-8-2.77-16.12,5.42-15.73,12.26C25.77,58.84,26.51,74.55,36.92,76.78Z"/><path class="cls-6" d="M35,52.63s8.09-3.36,13.6,11.78c0,0-4.9,4.54-10.51,5.31C38.06,69.72,26.87,57.5,35,52.63Z"/><path class="cls-7" d="M34.35,53S42.91,51.06,46,64.36a10.41,10.41,0,0,0,1.85-1.47,66.49,66.49,0,0,0-3.32-6.56C43.5,54.64,39.45,49.42,34.35,53Z"/><path class="cls-7" d="M27.13,54.3a35.2,35.2,0,0,0,3.48,15l-1.47.87a28.51,28.51,0,0,1-2.18-6S24.81,57.24,27.13,54.3Z"/><path class="cls-8" d="M110.69,29.93s4.54-17.8,28.74-14.28c0,0,11.54,2.74,18.72,16.63a14.26,14.26,0,0,0,16.45,5.28s-1.89,4.89-10,4.69c0,0,11.15,8,12.29,19.64s6.47,40.34,12.36,55,7.19,55.66-26.15,70.49c0,0-4.73,9.38-14.63,11.77,0,0-29.42,6.43-37.76,20.08,0,0-1.52-6.25,2.3-9.54,0,0-5.07,4-16.2,5.1S75,227.26,77,238.28c0,0-5.7-10.48-12.13-13.45S50.06,202.7,50.32,191s2.35,11.19-6,13.35c0,0,1.56-18.62-3.92-23.48s-15.92-7.89-15.14-27.3c0,0,0,8.83-5,11.18,0,0,2.61-10.28-2.08-19.35S6,123.15,9.6,111.09A130.23,130.23,0,0,1,18.74,89s-6.26.53-7.83,0c0,0,8.61-4,13.83-10.64S37,51.51,41.18,44s11.94-18.36,25.42-24c0,0-5.94-2.16-6.91-6.75,0,0,10,4,17.28,0S102.17,7.81,110.69,29.93Z"/><path class="cls-9" d="M102.23,48.09s-20.3-20.87-36.54-1.74S57,79.41,38.44,91.59a16.55,16.55,0,0,0,10.73-3.48S30.32,98.84,44,137.4c0,0,4.06-7.54,4.06-13.63a17.33,17.33,0,0,0,7.24,13.63c7.54,5.51,6.67,18.27,4.93,22.62,0,0,4.06-1.45,5.51-7.25L97.3,160l17.4-1.45s-6.38,11.31-4.06,18.27c0,0,6.38-11.89,12.18-13.63S137.31,156,137.31,156s-2.89,13.92-7.24,17.69c0,0,18.26-10.44,21.45-27.55L154.71,129h0a11.33,11.33,0,0,1,2,6.67c-.29,3.48,2.9-12.76-2.61-20.58a25,25,0,0,1-4.06-16.82s3.77,15.37,11.89,18.56l-1.74-4.93s10.44,11.88,18.27,13.33c0,0,.87-4-6.09-9.85S157,102.32,156.16,91.3c0,0-1.74,7.83,2,13.92,0,0-9.86-10.44-9.86-22.62s2.9-29.29-9-39.15-23.48,2.32-23.48,2.32.87-3.77,4.06-5.22l-3.77.29s2.81-4.06,5-6.56c0,0-5.8,3.94-8.41,9.45,0,0,5.23-6.27,1.17-9.75,0,0-1.49,5.19-3.23,7.8L109,32.93s1.34,7.68-1.72,8.55c0,0-3.5-8-5.82-9.7,0,0,3.72,3.56,2.85,12a22,22,0,0,1-3.19-5.51A19.66,19.66,0,0,0,102.23,48.09Z"/><path class="cls-10" d="M62.24,88.25S59.81,51.71,95.18,49a13.29,13.29,0,0,1,6.87,1.49c1.56.91,4.16,3.21,6.69,3.42a51.16,51.16,0,0,0,11.44-.75s19.09-3.13,24.13,21.5c3.66,17.82-6,35.71-6,35.71s19.92,24.63-12.68,42c0,0-18.11,4.59-22.33,15.5L72.11,163,67.94,150.2a13.08,13.08,0,0,0-5.7-12.51C55.1,132.56,44.52,117.48,49,105.3S62.24,88.25,62.24,88.25Z"/><path class="cls-11" d="M70.43,143.62s-1,10.22,7.59,11.54,15.83,1.32,22.1-7.25S114,126.14,114,126.14s-7.26,18.47-7.59,31-7.25,20.78-24.73,20.45c0,0-14.05-.89-17.68-11.44a22.54,22.54,0,0,1,2.35-15S70,145.76,70.43,143.62Z"/><path class="cls-12" d="M73.63,137s5.55,4.14,19,2.43S105,130.72,105,130.72H81.21l-8.52.66Z"/><path class="cls-13" d="M70.18,137l1.06,9.63,4.37,6.47h12.1l9.13-2,5.89-7.48s9-14,10.06-16.8l-4.25-.69L86,126.83S68.1,128.91,70.18,137Z"/><path class="cls-11" d="M68.6,111.41s-10.5,4.49-6.53,14.73,15.65,9,18,5.68v-4.16s-1.19,8.32,5.55,9.11,16-.26,27.14-10.63c0,0-3.81-8.79-16.67-7.4l-18.2-2Z"/><path class="cls-14" d="M70.84,107s7.53,8.19,27.68,6c0,0,2.15,5.69-8.9,10,0,0-3.72,2.42-5.77,3.78-5,3.32-7.46-.63-7.46-.63s-2-4.9-3.58-6.25S66.62,111,70.84,107Z"/><path class="cls-15" d="M108.48,108.78S93.75,91.28,114,75.25c0,0,9.92-3.45,11.35,6,3.64,24-5.11,22.38-7.86,26.51Z"/><path class="cls-16" d="M114,75.25s8.65-1.63,11.91,10.32c0,0,2.72-10.87-4.34-14.94S114,75.25,114,75.25Z"/><path class="cls-15" d="M63.57,89.69A33.53,33.53,0,0,1,71.76,68.2c8.62-9.72,15.22.26,15.22.26s.38,23.19-8.2,27.15Z"/><path class="cls-11" d="M118.68,209.18s1,15.22,61.45,21.33,85.59,6.07,85.59,6.07l11.13,8.86a208.17,208.17,0,0,0-30.8,1.24c-18.67,2-43.13,5.09-52.13,4.35s-41.42-1.17-52.74-5.25c0,0-25.07-4.92-40.72-22.94,0,0-4.09-3.49-5.83-10.67l10.42-1Z"/><path class="cls-16" d="M87,68.46s1.84-4.62,0-7.88-13.52,0-15.69,7.88C71.29,68.46,83.12,61.67,87,68.46Z"/><path class="cls-17" d="M75.61,146.81S84,138,98.68,140.68c0,0,3.77.44,2,4.39s-15.62,6.8-15.62,6.8l-9.5-.76Z"/><path class="cls-16" d="M68.27,133.05s2.62,6.8,2.14,12.13c0,0-1.41,10,10.38,10.36s15.09-1.16,20.39-9.12S114,126.14,114,126.14h-1.18s-9.33,17.74-15.59,22.17-16.62,6.28-23.57.37a73.27,73.27,0,0,1-1.22-9C72.41,137,68.27,133.05,68.27,133.05Z"/><path class="cls-12" d="M68.27,133.05l4.29,8.85s2,3.33,1.58-7.69C74.14,134.21,70.17,134.18,68.27,133.05Z"/><path class="cls-12" d="M90,137,92,144.6s1.49,3.43,3.14-8.3C95.18,136.3,91.12,137,90,137Z"/><path class="cls-12" d="M73.63,148.68s.61-5.47,2.11-6.84,1.86,9.27,1.86,9.27S73.83,149.79,73.63,148.68Z"/><path class="cls-12" d="M89.06,151.87s.54-6.66.92-8,2.76,4.37,3.38,6.63A13.69,13.69,0,0,1,89.06,151.87Z"/><path class="cls-12" d="M73,145.07s8.61,8.42,25.68,0c0,0,2.72-2,3.57-4.21l.48,1.51s-3.76,6.25-9.37,8.09c-4.3,1.41-9.82,3.13-15.76.65C77.6,151.11,71.24,149.56,73,145.07Z"/><ellipse class="cls-18" cx="115.04" cy="94.86" rx="12.89" ry="10.27" transform="translate(1.51 191.52) rotate(-79.92)"/><ellipse class="cls-19" cx="73.42" cy="85.57" rx="12.41" ry="9.58" transform="translate(-29.4 131.84) rotate(-73.6)"/><ellipse class="cls-20" cx="114.75" cy="96.42" rx="7.09" ry="5.75" transform="translate(-0.27 192.52) rotate(-79.92)"/><ellipse class="cls-16" cx="114.81" cy="96.97" rx="4.07" ry="3.45" transform="translate(-7.38 184.46) rotate(-75.79)"/><ellipse class="cls-21" cx="111.45" cy="95.12" rx="1.29" ry="1.21" transform="translate(4.59 195.38) rotate(-83.66)"/><circle class="cls-22" cx="116.68" cy="92.66" r="2.13"/><ellipse class="cls-20" cx="74.78" cy="89.06" rx="6.83" ry="5.37" transform="translate(-31.77 135.65) rotate(-73.6)"/><ellipse class="cls-16" cx="75" cy="89.54" rx="4.26" ry="3.16" transform="translate(-32.08 136.2) rotate(-73.6)"/><ellipse class="cls-23" cx="72.26" cy="87.25" rx="1.23" ry="1.16" transform="translate(-22.44 149.43) rotate(-83.66)"/><circle class="cls-22" cx="76.6" cy="84.92" r="2.13"/><path class="cls-7" d="M89.4,113.05s9.12-3.29,10.3-8.62c0,0,.68,6-.84,8.32C98.86,112.75,90.56,113.33,89.4,113.05Z"/><path class="cls-7" d="M106.5,154.94a41.45,41.45,0,0,1,14-7.7c8.36-2.6,22.06-10.38,22.62-27.3,0,0,4.55,12.71-4,21.77s-11.32,9.86-19.59,12.72-13.49,8.25-14.49,10.64C105.05,165.07,106.93,157.25,106.5,154.94Z"/><path class="cls-7" d="M67.65,149.09s2.56-3.85,2.78-5.47-1.28-8.88-2.16-10.57c-.62-1.21-1.5.7-5.6-5.91-.92-1.49-12.59-7.2-14.66-13.78,0,0,.09,4.8,3.49,11.24a45.67,45.67,0,0,0,12.94,15C68.27,142.5,67.65,149.09,67.65,149.09Z"/><path class="cls-11" d="M71,106.49s2.11-8,12.08-11.3C83.09,95.19,72.72,102.77,71,106.49Z"/><path class="cls-24" d="M105.6,109.52s12.09-1.22,18.88-2.18C124.48,107.34,112.05,106.69,105.6,109.52Z"/><path class="cls-24" d="M61.11,93.52s9.07,5,14.33,7.56C75.44,101.08,67.22,94.41,61.11,93.52Z"/><path class="cls-25" d="M11.87,88.68s11.55-2.31,15.47-6.6a13.87,13.87,0,0,1-8.76,6.6S12.69,89.53,11.87,88.68Z"/><path class="cls-9" d="M20.3,164.71s6.08-8.07,3.16-23.16c0,0,2.38,6.71,5.49,19.93S42,176.66,42,176.66s3.53,1.11,4,12.87-1.72,14.78-1.72,14.78.87-13.75-1.47-19.35a17,17,0,0,0-7.75-8.1s-6.4-4.26-7.91-9.7a79.59,79.59,0,0,1-1.93-13.63S25.44,162,20.3,164.71Z"/><path class="cls-9" d="M37,164.08A23.88,23.88,0,0,0,40,176.8l2.71,3.38,1.21,8.94.42,15.19s4.68-.42,6.08-10.7c0,0,.58,21.07,13.5,30.68s13.07,14,13.07,14-3.38-14.15,15.69-22.63c0,0,13.15-1.44,20.33-6,0,0-4.07,2.54-2.3,9.54,0,0,6.68-10.18,25.09-16.32s22.46-5.51,27.3-15.53c0,0,19.94-3.76,27.11-32.57,0,0-9.92,18.48-19.64,20.93,0,0,9.44-15.15,8.37-23.57,0,0-6.42,21.93-16.92,24.81,0,0,1.95-1.45,2.62-7.43s-1.35,13.87-14.59,19a14.42,14.42,0,0,0,2.21-4.57c.28-1.87-4,8.75-12.77,11.22s-19,6.66-22.69,9.1c0,0,4.54-4.08,4.94-7.94,0,0-7.73,10.62-20,12.41s-18.49,3.81-23.82,13.05c0,0,1.54-8.86,5.69-12.17,0,0-7.36,3.84-7.74,9.92,0,0-1.34-12.31-7.61-16.07,0,0,4.06,9.22,2.32,16.66,0,0-9.89-4.74-15.06-17.31,0,0-5-10.84-4.79-14.41S45.73,176,47,167.16a25.28,25.28,0,0,0-.56,15.23c.05.2.11.41.17.62C49.25,191.78,37.62,167.42,37,164.08Z"/><path class="cls-26" d="M63.57,128.52S73.86,134,80,128.42c0,0,5.94,8.34,23.33,4.73a29.17,29.17,0,0,1-14.91,4.49c-7-.08-7.44-2.31-8.2-6.42,0,0-.18,4.13-9,2.78C65.05,133.05,63.57,128.52,63.57,128.52Z"/><path class="cls-26" d="M66.23,170.28s25.58,5.93,32.45-4.05,7.6-25.34,12.3-31.51c0,0-4,13.39-4.32,18.66s-.09,15.44-8,20.19S74.37,181.06,66.23,170.28Z"/><path class="cls-27" d="M161.31,80.3s-.21,14,6.67,19.39c0,0,11.25.43,17-9.7,3.94-6.89-.8-18.18-7.52-18.52C177.48,71.47,164.28,70.66,161.31,80.3Z"/><path class="cls-6" d="M180.39,82.42S182.81,93.7,166,97.23c0,0-4.05-5.87-4-11.9C162,85.33,176.47,73.14,180.39,82.42Z"/><path class="cls-7" d="M163,90.75a10.5,10.5,0,0,1,5.6-3.68,5.14,5.14,0,0,0-4.56,0s10.73-11,16.38-4.87c0,0-1.27-5.63-8.42-2.91,0,0-7.74,2.71-10,5.82C162,85.11,161.88,88.89,163,90.75Z"/><path class="cls-7" d="M167.48,98.28c.07.18-.44.13.17.56l.57.55c3.64-.25,3.29,0,8.65-2.24,5.06-2.08,7.48-8.58,7.48-8.58C179.06,97,169.51,98.06,167.48,98.28Z"/><path class="cls-28" d="M96,215.19s21.92,21.17,65.92,24.18,109.54,1.15,109.54,1.15l5.38,4.92s-18.11.17-27.28,1.3S201,252.67,193.92,251l-33.67-1.16s-37.86-4-54.38-21.59C105.87,228.28,98.36,222.25,96,215.19Z"/><path class="cls-4" d="M147.75,204.31s18,68.57,24.95,83.93c0,0,1.91,6.74-1.7,8.73,0,0-13.53,2.16-9.93,15.15,0,0,.91,4.88,10.47,5.24h6s15.33,2.16,19.66-6.86c0,0-2.88-56.84-3.06-61.17s1.08-53.77-5.42-62.08"/><path class="cls-29" d="M365.54,299.43s-4.36,13.94,10.58,15.59"/><path class="cls-29" d="M354.13,300.79s-5.58,14,7.33,16.35"/><path class="cls-29" d="M177.6,301.68s-10.07,7.4-.88,15.53"/><path class="cls-29" d="M171.15,300.69s-10.63,6.77-2,16.47"/><path class="cls-29" d="M125.54,301.68s-9.66,5.54-2.11,14.83"/><path class="cls-29" d="M120.55,298.53s-7.33,3.15-6.65,9.8c.64,6.33,3.5,8.18,3.5,8.18"/><path class="cls-29" d="M280.36,297.92s-11.59,4.1-3.24,16.7"/><path class="cls-29" d="M270.26,296s-7.22,2.79-7.09,10.32,2.24,9.08,2.24,9.08"/><path class="cls-4" d="M259.35,229.32s12.17,14.66,22.08,17.91"/><path class="cls-29" d="M96,215.19S98.18,229.13,128,242c0,0,23.63,8.1,32.29,7.92"/><path class="cls-29" d="M193.92,251s27.93-.25,49.45-3.48c23.72-3.55,33.48-2.11,33.48-2.11"/><path class="cls-30" d="M434.12,244.76s16-17.61,38.39-6.25c0,0,19.73,12.68,29.51,14.44,0,0-10,14.94-36,11.68S430.05,251.65,434.12,244.76Z"/><path class="cls-24" d="M433.53,246.06s5.21,10.15,31.28,14S502,253,502,253s-5.79,10.56-22.38,11.73-34.6-2.84-41.22-8.91S432.94,247.36,433.53,246.06Z"/><path class="cls-24" d="M435,243.87s11.32,4.63,18.25,4.23c0,0-6.57,5.76-20-1.32A4.78,4.78,0,0,1,435,243.87Z"/></svg>