<svg id="Layer_1" data-name="Layer 1" xmlns="http://www.w3.org/2000/svg" xmlns:xlink="http://www.w3.org/1999/xlink" viewBox="0 0 507.64 944.82"><defs><style>.cls-1{fill:#f7ccb0;stroke:#965e38;}.cls-1,.cls-16,.cls-19,.cls-4,.cls-6{stroke-miterlimit:10;}.cls-2{fill:#e2b49a;}.cls-3{fill:url(#Áåçûìÿííûé_ãðàäèåíò_20);}.cls-4{fill:#ad5e09;}.cls-19,.cls-4,.cls-6{stroke:#51331e;}.cls-5{fill:url(#Áåçûìÿííûé_ãðàäèåíò_29);}.cls-18,.cls-6{fill:#f6931b;}.cls-7{fill:#d6a98a;}.cls-8{fill:#e2976d;}.cls-9{fill:#3a0b0b;}.cls-10{fill:#b77c5c;}.cls-11{fill:#e1b18c;}.cls-12,.cls-16{fill:#fff;}.cls-13{fill:url(#linear-gradient);}.cls-14{fill:url(#Áåçûìÿííûé_ãðàäèåíò_3);}.cls-15{fill:#d87912;}.cls-16{stroke:#4c1b1b;stroke-width:0.5px;}.cls-17{fill:#4c1b1b;}.cls-19{fill:none;}.cls-20{fill:#e44030;}.cls-21{fill:#f279ef;}.cls-22{fill:#323232;}.cls-23{fill:#4b4b4b;}</style><linearGradient id="Áåçûìÿííûé_ãðàäèåíò_20" x1="247.64" y1="604.86" x2="257.75" y2="373.38" gradientUnits="userSpaceOnUse"><stop offset="0" stop-color="#f15b3a"/><stop offset="0.58" stop-color="#f57256"/><stop offset="1" stop-color="#f8856d"/></linearGradient><linearGradient id="Áåçûìÿííûé_ãðàäèåíò_29" x1="225.94" y1="478.45" x2="277.98" y2="839.93" gradientUnits="userSpaceOnUse"><stop offset="0" stop-color="#f15b3a"/><stop offset="0.74" stop-color="#d55136"/><stop offset="1" stop-color="#ca4d34"/></linearGradient><linearGradient id="linear-gradient" x1="258.04" y1="245.71" x2="259.01" y2="268.22" gradientUnits="userSpaceOnUse"><stop offset="0" stop-color="#e8d9d7"/><stop offset="0.4" stop-color="#efe5e4"/><stop offset="1" stop-color="#fff"/></linearGradient><linearGradient id="Áåçûìÿííûé_ãðàäèåíò_3" x1="180.83" y1="70.26" x2="162.57" y2="162.22" gradientUnits="userSpaceOnUse"><stop offset="0" stop-color="#673024"/><stop offset="0.34" stop-color="#53271c"/><stop offset="0.68" stop-color="#462118"/><stop offset="1" stop-color="#421f16"/></linearGradient></defs><path class="cls-1" d="M333.72,340.54s-19.79,29.84-68.55,29.84l-13.08-.06a.28.28,0,0,0,0-.09c-44.68-2.16-63-29.69-63-29.69s22.53-12.46,24.75-18c.68-1.71,1.12-7,1.4-13.56.62-14.63.44-35.35.44-35.35h91.4s-.17,20.32.44,34.92c.27,6.73.71,12.24,1.41,14C311.19,328.08,333.72,340.54,333.72,340.54Z"/><path class="cls-2" d="M306.86,308.55,279.32,331.9l-34.24-.47L216.15,309c.61-14.63.43-35.35.43-35.35h89.85S306.26,294,306.86,308.55Z"/><path class="cls-3" d="M132.43,436.71c13.33-21.47,229.94-11,243.82,4.39,7.7,8.55-9.82,142.86-14.88,150.62S153.49,594.28,148,586.49,123.57,451,132.43,436.71Z"/><path class="cls-4" d="M317.06,329s5.62,15.38-22.26,26.08c-22,8.43-55.14,1.36-60.7-.86C206.36,343.2,204.23,329,204.23,329l-29.18,11.7s16.65,22.33,42.37,31c33.62,11.36,79.23,3.36,88.46,0,25.52-9.26,36.93-31.23,36.93-31.23Z"/><path class="cls-5" d="M401.49,644.83l-150,21.85-146.14-9.46,1.52,47.08s43.67,14.74,58.31,13.43c27.73-2.49,90.59-11.46,90.59-11.46l62.41-19.91s58.19,1.24,85.31-2.13Z"/><path class="cls-6" d="M101.36,595.85v1.46l-.09,44L89.49,927.35l23,1.93,0-.49c29.1,1.78,80.49,4.77,123,6.51,46.52,1.89,133.08-3.68,171.91-6.47h0c12.22-.88,19.71-1.48,19.71-1.48L411.07,645.56,411,587.22l-.22-115.08h0l48.9-42.71s-16.07-41.57-34.35-52.71-91-39.29-91-39.29-16.62,38.92-73.4,38.57c-53.34-.33-75.55-38.57-75.55-38.57s-69.18,21.81-87.47,32.95-52.1,88.93-52.1,88.93-7.41,25.41-32,110.36l34.34-18.83"/><path class="cls-1" d="M353.71,184.77c17.59-.85,6.27,22.32,6.27,22.32-6.62,30.1-15.22,34-19.29,34C329.07,241.13,341.14,185.37,353.71,184.77Z"/><path class="cls-7" d="M343.49,228.05s5.54-5.21,5.18-16.52c-.84-26.68,15.77-26.94,10.15-9.31,0,0-1.38-8.69-3.73-6.35-2.88,2.87,2.23,5.08-1.88,18.43C351.05,221.23,343.49,228.05,343.49,228.05Z"/><path class="cls-1" d="M167.29,184.77c-17.59-.85-6.27,22.32-6.27,22.32,6.62,30.1,15.27,34.57,19.29,34C195.46,238.92,179.86,185.37,167.29,184.77Z"/><path class="cls-7" d="M177.51,228.05s-5.54-5.21-5.18-16.52c.85-26.68-15.76-26.94-10.15-9.31,0,0,1.39-8.69,3.73-6.35,2.88,2.87-2.23,5.08,1.89,18.43C170,221.23,177.51,228.05,177.51,228.05Z"/><path class="cls-1" d="M169.26,121.43s5.46,68.14,6.35,75.51,5.74,60.19,9.13,68,47.08,53.19,59,56.68,27.57,3.11,36.83,0c8.88-3,50.1-52.51,51.86-59.26,2.13-8.16,9.84-43.26,11.62-62.88s-.36-72.06-2.14-77.09S335.8,63.77,246.37,67.6C181.94,70.35,169.26,121.43,169.26,121.43Z"/><path class="cls-8" d="M215.3,254.25s8,6.36,12.24,15.53,17.18,15.06,33.65,14.83,26.35-8.24,28.94-15.3,13.58-16.74,13.58-16.74S255.77,267.9,215.3,254.25Z"/><path class="cls-9" d="M281.05,161.9a8.15,8.15,0,0,0,1.07,6.5c-.55-2.32,1-6.06,2.39-8,10.48-.15,19.91-1.93,36.07,3.79,4.81,1.7,9.16,9.35,9.16,9.35s-4.12-3.67-16.73-4.22c-11-.49-27.1,3-32.69,2.22C280.32,171.58,277.76,166.06,281.05,161.9Z"/><path class="cls-9" d="M239.93,161.37a8.12,8.12,0,0,1-.92,6.52c.5-2.34-1.16-6-2.56-7.91-10.48.07-19.95-1.47-36,4.59-4.78,1.8-9,9.56-9,9.56s2.57-3.51,15.17-4.33c11-.71,28.62,2.1,34.2,1.23C240.88,171,243.31,165.45,239.93,161.37Z"/><path class="cls-10" d="M262.78,244c8.67-2.42,13.25-3.33,13.25-3.33C268.27,234.5,262.78,244,262.78,244Z"/><path class="cls-10" d="M239.5,239.82s6.39,1.66,13.2,4.26C252.7,244.08,247.56,234.62,239.5,239.82Z"/><path class="cls-11" d="M298.17,254.25l5.54-1.68a8.24,8.24,0,0,1-1.47,2.84c-.77.62-9.48,2.64-9.48,2.64Z"/><path class="cls-11" d="M219.48,254.81,214,253.13a8.36,8.36,0,0,0,1.46,2.84c.77.62,9.48,2.64,9.48,2.64Z"/><path class="cls-9" d="M216,254.21c.47.49.81,1.16,1.42,1.42,11.08,4.91,11.24,9.6,16,12.16,16.84,9.08,36.47,6.87,49.69-.42,7.61-4.2,8.58-9.09,17.68-12.64a2.27,2.27,0,0,0,1.45-1.42C253.63,265.2,216,254.21,216,254.21Z"/><path class="cls-12" d="M236.16,264.5c-2-.37-2.93,3.21-2.93,3.21,6.18,4.51,13.61,6.21,25.49,6.3,15.86.11,24.61-6.76,24.61-6.76s-2.23-3.45-4.84-2.93c-4.46.91-12.85,2.58-20.54,2.59A125.23,125.23,0,0,1,236.16,264.5Z"/><path class="cls-13" d="M227,256.53a7.21,7.21,0,0,0,4.39,6c2.46,1.06,8,5.24,29.35,4.59s25.61-5.82,26.59-6.72a11.38,11.38,0,0,0,2.63-4.52S257.76,262.17,227,256.53Z"/><path class="cls-8" d="M213.37,252.89s3.11,1.81,2.64,1.32c0,0,37.62,11,86.23-.9l2.64-1.33C278.48,256.39,213.37,252.89,213.37,252.89Z"/><path class="cls-14" d="M171.15,103s-14,4.91-8.48,32.15c0,0,4.77-28.49,21.13-31.43Z"/><path class="cls-9" d="M339.3,63.67c.51,8.75-7.88-20.51-32.47-44.24,0,0,11.77,18.82,6,27.81-1.1-8.92-.35-41.46-43.88-38.4,0,0-94.94,22.94-85.76,73.06,0,0,5.06-11.29,6.47-28.59-23.24,12.91-25.56,43.9-19.16,50.23-2.66,2.18-12.37,11.69-7.83,31.65.82,3.63,4.62,49.58,4.62,49.58s8.27,3.41,11.58,16c0-3.2,0-7.95,0-13.5,0-.07,2.7-40.09,3.12-41.8.35-1.43,10-34.48,16.45-37.22s32.83,4.56,51.24,4.53S310.29,103.23,315,106s21.48,36.42,22.41,38.38c1.35,2.87,6.12,44.37,6.12,44.37s0-.44,0-1.21c.42,4.77.71,8.69.8,11.16,0,.28,0,.56,0,.81,2.66-12,9.4-14.74,9.4-14.74.82-23.19,2.42-39.61,2.6-52.23v0a1.55,1.55,0,0,1,0-.89C364.25,101.78,345.59,70,339.3,63.67Z"/><path class="cls-15" d="M118.38,599.93l13.74-24.41s0-22.46-.5-25.87-22-84.57-22-84.57c-7.18,71.88,1.27,101.79-5.32,123.33-5.46,17.82-33.59,23.81-33.59,23.81s11.44-1.05,15.63-.69c13.73-5.81,7.7-2.3,21.39-7.86Z"/><ellipse class="cls-16" cx="298.69" cy="197.34" rx="18.33" ry="17.21"/><ellipse class="cls-17" cx="298.73" cy="197.24" rx="11.87" ry="11.14"/><ellipse class="cls-12" cx="303.63" cy="190.8" rx="3.25" ry="3.05"/><ellipse class="cls-16" cx="221.7" cy="197.58" rx="18.08" ry="16.97"/><ellipse class="cls-17" cx="221.74" cy="197.49" rx="11.7" ry="10.98"/><ellipse class="cls-12" cx="226.57" cy="191.13" rx="3.2" ry="3.01"/><polygon class="cls-18" points="447.15 418.64 451.8 427.93 455.78 445.19 415.95 478.37 409.98 431.91 447.15 418.64"/><path class="cls-19" d="M112,577.55s-4.37-94.94-7.19-135.89"/><polygon class="cls-20" points="395.68 495.07 246.87 392.06 91.71 597.73 243.15 704.34 395.68 495.07"/><polygon class="cls-21" points="410.74 510.65 269.92 396.97 100.05 590.67 243.23 708.13 410.74 510.65"/><rect class="cls-22" x="278.12" y="479" width="2.23" height="59.34" transform="translate(-295.7 430.19) rotate(-53.46)"/><polygon class="cls-22" points="302.39 553.21 234.03 500.61 235.39 498.85 303.75 551.45 302.39 553.21"/><polygon class="cls-22" points="291.31 566.09 222.95 513.49 224.31 511.73 292.68 564.33 291.31 566.09"/><path class="cls-1" d="M405.76,567.31S274.42,597.43,248.35,596c-9.24-.5-23.85-11.21-38.12-14.12-10.32-2.11-27.52,3.36-37.65,1.41-24.47-4.7-26,5.27-21.65,9.88,8.93,9.46,47.81,6.72,33.72,17.14s-44.44,14.59-47.1,22.49c-3.68,10.93-1.83,9.52,11.27,14,7.47,2.57,2.6,8.88,8.94,15.53s11.68,9.07,21.55,14,15.65,12.21,33.27,3.88,36.91-25.19,48.94-28.7c10.29-3,192.51-2.64,215.06-32.94s-16-160-16-160-17.17,33.85-51.65,33.53Z"/><path class="cls-22" d="M252,595s5.72,29.82,5.86,41.69c0,3.39,2.3,16.54,2.3,16.54s15.95-1.25,22.12-2.82c0,0-2.1-31.88-7.9-59Z"/><rect class="cls-23" x="254.2" y="609.7" width="26.32" height="26.32" transform="translate(-66.9 33.2) rotate(-6.32)"/><path class="cls-1" d="M273.2,480.63a6.59,6.59,0,0,1-.29.72c-1.13,2.25-6.42,8.29-8.23,9.64s-19.79,14.76-23.39,17.44a6.17,6.17,0,0,1-.53.32h.06c-.09.05-.21.09-.32.14l-.39.17c-6.93,3-21.85,5.33-25.22,7.15-.33.18-1.72,1.3-1.72,1.3s-96.44,80.82-97.44,81.61c-1.75,1.38-51.91,42.69-60,43.49h-.09c-.14,0-.29.08-.42.1a5.25,5.25,0,0,1-1.67-.18c-6.9-.94-16.81-8-16.83-8-7.27-4.32-14.43-9.4-17-12.85a11.66,11.66,0,0,1-2.78-8.57c-.05-3.3,0-6.75.19-10.39.48-10.47,1.77-22.5,3.61-37,5-7.61,35.2-33.8,76.11-47.53l-.21.54c13.81-7.15,26.35-12.69,33.6-15.76,6.71-3.84,12.37-7.33,16.27-9.81l7.74-5.82,19.32-15s3.29-24.38,2.93-30.19c-.25-3.95-2-20.47-2-20.47l-.37-26.48a20.37,20.37,0,0,0-.56-2.93s-7.53-12.6-5.87-15.7a1.59,1.59,0,0,1,.71-.72,6.83,6.83,0,0,1,3.89-2.2l0,0h.15c.81-.16,4.8-1.84,12.63,4.94,6.08,5.25,10.12,11.36,12.14,23.16.77,4.45,2.25,14,3.58,15.75s8.94,3.56,9.75,3.75l5.06-.78s3.78-2.05,8.26-4.44c1.72-.94,12.4-6.77,14.5-7.69,2.29-1,6.72-.7,9.93,3a14.62,14.62,0,0,1,3.2,6.9s0,0,0,0a9.58,9.58,0,0,1,.15,3.34v0a4.4,4.4,0,0,1-.23.9s4.68,0,8,6c.14.26.25.49.37.74s.4.77.57,1.16a22.81,22.81,0,0,1,1.59,4.83s0,.14.07.36.1.54.13.79.08.53.12.82v0a9.47,9.47,0,0,1,.05,1.49c0,.14,0,.23,0,.23a5.12,5.12,0,0,1,.69.12,9.43,9.43,0,0,1,6.81,6.18,18.67,18.67,0,0,1,1.28,5.58l0,0s0,.71,0,1.7c0,.25,0,.48,0,.7,0,.05,0,.09,0,.14a13.1,13.1,0,0,1-.4,2.47s2.73,2.77,4.51,5a13.18,13.18,0,0,1,1.31,1.87C277.42,464.52,274.91,476.2,273.2,480.63Z"/><path class="cls-2" d="M274.14,480.69a5.37,5.37,0,0,1-.29.71c-1.13,2.22-6.42,8.21-8.23,9.55s-19.79,14.63-23.39,17.29c-.14.1-.35.2-.53.31h.06c-.09.05-.21.09-.32.14l-.39.17c-6.93,3-21.85,5.27-25.22,7.09-.33.17-1.72,1.29-1.72,1.29s-96.43,80.08-97.44,80.86c-1.75,1.38-51.91,42.31-60,43.1h-.09a3.52,3.52,0,0,1-.42.09,4.92,4.92,0,0,1-1.67-.17c-6.9-.93-16.8-7.94-16.83-8-7.27-4.28-14.43-9.31-17-12.73a11.51,11.51,0,0,1-2.78-8.5c-.05-3.26,0-6.69.2-10.29C36.07,637.43,70.76,619,70.76,619S200.2,515.06,209.05,510.2s26.55-7.15,26.55-7.15,19-13,27.85-18.18c6.69-3.93,10.94-17.5,12.62-23.89a12.62,12.62,0,0,1,1.31,1.85C278.36,464.72,275.85,476.3,274.14,480.69Z"/><path class="cls-6" d="M446.15,400.78l5.63,10.64c22.37,42.27,37.63,101.83,42.35,149.42h0l-88.94-1.41-15.2-114"/><path class="cls-1" d="M405.76,567.31s20-1.41,29.88,11.77"/></svg>