<svg id="Layer_1" data-name="Layer 1" xmlns="http://www.w3.org/2000/svg" viewBox="0 0 95.82 128.83"><defs><style>.cls-1{fill:#ff9f57;stroke:#5e3b2c;}.cls-1,.cls-5,.cls-6{stroke-miterlimit:10;}.cls-2{fill:#aa633c;}.cls-3{fill:#9b723d;}.cls-4{fill:#6b3430;}.cls-5{fill:#e55757;stroke:#763317;}.cls-6{fill:#461211;stroke:#37180c;}</style></defs><path class="cls-1" d="M52.2,111.87S37.89,115.12,28,106.59a35.7,35.7,0,0,0-7.18-32.28C7.79,58.75,5.41,55,11.35,36.9c2.73-8.31,6.12-10.19,6.45-16.75C18.26,10.71,29.6.77,41.87,9.37s19-.6,19-.6S70.56-1.77,82.23,9.89c5,5,3.58,14.42,5.46,22.29C88.9,37.24,98.75,46,91.76,64c-4.7,12.12-17,16.38-22.67,21.26C64.33,89.41,57.73,94,52.2,111.87Z"/><path class="cls-2" d="M66.23,87.33s-18.91,8.12-40.38-6.22c0,0,1,6.92,16,10,7.22,1.49,14.52,1.5,18.84,0A15.18,15.18,0,0,0,66.23,87.33Z"/><path class="cls-3" d="M59.81,73.41A19.29,19.29,0,0,1,41.1,71.54,27.21,27.21,0,0,0,59.81,73.41Z"/><ellipse class="cls-4" cx="43.96" cy="44.2" rx="0.74" ry="2.9" transform="matrix(0.54, -0.84, 0.84, 0.54, -17.05, 56.99)"/><ellipse class="cls-4" cx="62.9" cy="44.39" rx="2.63" ry="0.74" transform="translate(-11.36 64.7) rotate(-50.5)"/><path class="cls-5" d="M49.28,112.71A18.16,18.16,0,0,1,58,108.16c4.93-.8,9.21,3,8.83,10.25-.23,4.35-6.73,9.19-10.58,8.4s-10.58-7.06-10.58-7.06Z"/><path class="cls-5" d="M37.43,109.38A18.12,18.12,0,0,0,29.25,104c-4.82-1.32-9.47,2-9.85,9.26-.23,4.35,5.73,9.84,9.64,9.46s11.26-5.91,11.26-5.91Z"/><circle class="cls-6" cx="42.37" cy="116.06" r="7.68"/></svg>