<svg id="Layer_1" data-name="Layer 1" xmlns="http://www.w3.org/2000/svg" viewBox="0 0 138.89 129.97"><defs><style>.cls-1{fill:#ff9f57;stroke:#5e3b2c;}.cls-1,.cls-2{stroke-miterlimit:10;}.cls-2{fill:#7c574f;stroke:#2d1111;}.cls-3{fill:#d7e384;}</style></defs><path class="cls-1" d="M5.11,98.88s1.73,3,2.63,19.12c.06,1.12,53.31-1.83,53.25-3,0,0,19.42-19.64,21.83-24,1.87-3.42,2-6.47-15-6.63C46.35,84.17,53.12,95.55,30,102.1,12.69,107,5.11,98.88,5.11,98.88Z"/><path class="cls-2" d="M64.42,106.65S124.14,25.2,127.6,15.34s-1.76-5.59-9.49,4.52-57,83-57,83S55.81,108.6,64.42,106.65Z"/><path class="cls-1" d="M81.87,86.36s.71,5.7-12,4.89c-4.7-.29-8-2.75-12.56-2.81s-11.05,14.27.59,29.4S79.84,109,81.42,104.67C85,95,84.51,85.64,81.87,86.36Z"/><circle class="cls-3" cx="70.86" cy="102.3" r="2.09"/><circle class="cls-3" cx="59.09" cy="100.08" r="2.87"/><ellipse class="cls-3" cx="65.61" cy="115.12" rx="1.55" ry="2.09" transform="translate(-38.9 33.66) rotate(-22.38)"/></svg>