<svg id="Layer_1" data-name="Layer 1" xmlns="http://www.w3.org/2000/svg" viewBox="0 0 138.89 129.97"><defs><style>.cls-1{fill:#ff9f57;stroke:#5e3b2c;}.cls-1,.cls-2{stroke-miterlimit:10;}.cls-2{fill:#7c574f;stroke:#2d1111;}.cls-3{fill:#d7e384;}</style></defs><path class="cls-1" d="M4.11,97.68s2.31,4.19,4.24,20.24c.13,1.12,53.08-5.25,53-6.37,0,0,18.11-20.84,20.24-25.4,1.65-3.53,1.56-6.58-15.42-5.65-21.41,1.18-13.93,12.1-36.59,20.12C12.58,106.63,4.11,97.68,4.11,97.68Z"/><path class="cls-2" d="M64.18,103s54.37-85.11,57.19-95.17-2.12-5.47-9.18,5.12S60.65,99.39,60.65,99.39,55.71,105.46,64.18,103Z"/><path class="cls-1" d="M80.29,81.58s1.08,5.65-11.63,5.66c-4.71,0-8.12-2.24-12.71-2s-10.12,14.94,2.47,29.3S79.71,104.27,81,99.89C84,90,82.88,80.7,80.29,81.58Z"/><circle class="cls-3" cx="70.33" cy="98.2" r="2.09"/><circle class="cls-3" cx="58.44" cy="96.74" r="2.87"/><ellipse class="cls-3" cx="65.91" cy="111.33" rx="1.55" ry="2.09" transform="translate(-42.21 40.28) rotate(-26.06)"/></svg>