<svg id="Layer_1" data-name="Layer 1" xmlns="http://www.w3.org/2000/svg" viewBox="0 0 156.46 123.43"><defs><style>.cls-1{fill:#72d6f6;stroke:#2d9e9b;}.cls-1,.cls-2,.cls-5,.cls-6{stroke-miterlimit:10;stroke-width:0.75px;}.cls-2{fill:#fee42b;stroke:#a07324;}.cls-3{fill:#c6691c;}.cls-4{fill:#eaa542;opacity:0.61;}.cls-5{fill:#26a3ef;}.cls-5,.cls-6{stroke:#3d7be0;}.cls-6{fill:none;}.cls-7{fill:#000068;opacity:0.4;}.cls-8{fill:#fff;}</style></defs><path class="cls-1" d="M34,84.7S47.71,33.46,55.91,13.51s61.14-7.9,66.19-.48S34,84.7,34,84.7Z"/><path class="cls-2" d="M32,87.37a272.93,272.93,0,0,0,20.43-42c9-23.6,45.33-44.42,73.74-29.78,0,0,16.45,11.81,20.68,7s6.83-4,6.42,1.08S143.11,47.81,124.24,62,92.83,75.16,86.58,74s-23-5.52-40,2.8C46.54,76.75,32.79,88.76,32,87.37Z"/><path class="cls-3" d="M125.76,41.73s19.21-1.92,26.69-20l.28-1.75s2.53,5.68-8.12,15.08S125.76,41.73,125.76,41.73Z"/><path class="cls-4" d="M33.46,85.45,34.18,88,46.54,76.75c12.14-8,44.12-2.25,44.12-2.25s24.42,2.22,45.06-22.75,16.73-30.06,16.73-30.06C148.55,39,120.55,56.31,111,62.75s-44,1.68-57.27,5.77c-12.11,3.71-18.22,14.11-19.23,16l-.15.28"/><path class="cls-3" d="M120.14,44.41s6.51-.82,4.83-5.55,2.45,1.53,1,3.67S120.14,44.41,120.14,44.41Z"/><path class="cls-1" d="M95.34,50.8S93,28.64,104.17,13l-9,.88S86.3,35.39,95.34,50.8Z"/><path class="cls-1" d="M83.48,59.7s-8.35-18.6,7-45.26L78.06,19.93S69.29,45.14,83.48,59.7Z"/><path class="cls-1" d="M71,57.28S63.77,40,69.9,26.41l-11,11.78S63.11,52.79,71,57.28Z"/><path class="cls-1" d="M56.56,62.77S52.33,45,53.82,42.21s-5.35,12.94-5.35,12.94Z"/><polygon class="cls-1" points="49.55 68.03 45.68 61.42 43.76 65.5 49.55 68.03"/><path class="cls-1" d="M108.7,47.14s-4.3,6-13.68,12.21,18.3,15.22,16.63,6.93C111,62.87,108.7,47.14,108.7,47.14Z"/><path class="cls-5" d="M33.94,84.14S18.67,76.32,3.31,88.41c0,0,10.16,9.8,17,9.17,0,0-.35,17.12,7.29,23.18,0,0,14.58-15.71,8.29-34Z"/><line class="cls-5" x1="20.3" y1="97.58" x2="34.95" y2="86.02"/><path class="cls-6" d="M23.89,114.83c9.49-8.81,12-28.11,12-28.11l-1.94-2.58S13.69,86.52,7.29,91.47"/><path class="cls-1" d="M95.57,11.68S85.09,3.57,76.2,2.77"/><path class="cls-1" d="M105.6,10.68S98.16,5,94.44,3.47"/><path class="cls-1" d="M79.69,17.66S69,7.45,60.43,7.79"/><path class="cls-1" d="M54.4,17.38S62,16.12,71.32,22.3"/><path class="cls-1" d="M60.32,32.38s-7.2-3.86-10.27-2.48"/><path class="cls-1" d="M47.55,37.7s6.31-2.23,9.12-.47"/><path class="cls-1" d="M45.49,44.38s6.37-1.66,8.08-1.22"/><path class="cls-1" d="M42.69,53.76s4.88-4.5,8.13-4"/><path class="cls-1" d="M40.25,62.16s4.29-4.27,6.73-3.6"/><path class="cls-7" d="M131.87,24.19a6.08,6.08,0,1,1-8.36-1.79A6,6,0,0,1,131.87,24.19Z"/><path class="cls-8" d="M131.41,23.15A5.39,5.39,0,1,1,124,21.57,5.35,5.35,0,0,1,131.41,23.15Z"/><path d="M130.48,23.75a4.28,4.28,0,1,1-5.89-1.26A4.25,4.25,0,0,1,130.48,23.75Z"/><path class="cls-8" d="M123.69,27.66a4.18,4.18,0,0,1-.59-3,4.13,4.13,0,0,0,.48,3.43,4,4,0,0,0,5.54,1.33,3.86,3.86,0,0,0,1.71-2.59,3.86,3.86,0,0,1-1.6,2.16A4,4,0,0,1,123.69,27.66Z"/><path class="cls-8" d="M127.4,22.31a1.76,1.76,0,1,1-2.43-.52A1.75,1.75,0,0,1,127.4,22.31Z"/><path class="cls-8" d="M129.09,24.29a.57.57,0,0,1-.18.8.58.58,0,1,1,.18-.8Z"/></svg>