<svg id="Layer_1" data-name="Layer 1" xmlns="http://www.w3.org/2000/svg" viewBox="0 0 45.73 23.65"><defs><style>.cls-1{fill:#9b593d;}.cls-2{fill:#af7361;}.cls-3{fill:#461211;}</style></defs><path class="cls-1" d="M39.35,8.4A9,9,0,0,1,43.77,12C44.76,13.43,43.37,7.66,39.35,8.4Z"/><path class="cls-1" d="M6.28,7.2a8.92,8.92,0,0,0-3.39,5S2.59,8.21,6.28,7.2Z"/><path class="cls-2" d="M4.11,9.43s19.73,6.09,38.19.81C42.3,10.24,26.48,19,4.11,9.43Z"/><path class="cls-1" d="M4.11,9.43s7.16,6.86,20.65,6.45S42.3,10.24,42.3,10.24s-5.31,3.39-17.38,3C12,12.89,6.29,10.47,4.11,9.43Z"/><path class="cls-3" d="M4.9,9.66s15.92,9,36.49,1.05C41.39,10.71,25.18,18.11,4.9,9.66Z"/></svg>