<svg id="Layer_1" data-name="Layer 1" xmlns="http://www.w3.org/2000/svg" viewBox="0 0 76.36 101.6"><defs><style>.cls-1{fill:#ff9f57;stroke:#5e3b2c;stroke-miterlimit:10;}.cls-2{fill:#e6eb99;}.cls-3{fill:#c8af6e;}</style></defs><path class="cls-1" d="M48.58,7.5S45.79,21.93,52,35.55s14.22,31.35,4.2,45.37S27,99.45,3.46,92.31c0,0-1.33-.85.64-6S8.38,75.19,18.22,69.56c9.38-5.37,12.38-45,14.49-51.51S41.65,1.7,48.58,7.5Z"/><circle class="cls-2" cx="18.46" cy="82.5" r="3.88"/><circle class="cls-2" cx="27.04" cy="85.37" r="2.41"/><circle class="cls-2" cx="48.03" cy="75.08" r="3.91"/><ellipse class="cls-2" cx="29.67" cy="60.8" rx="3.91" ry="2.41" transform="translate(-33.94 83.83) rotate(-83.89)"/><circle class="cls-2" cx="35.53" cy="43.94" r="3.27"/><path class="cls-3" d="M31.46,14.3s3.3-15.37,14.79-12c11.67,3.4,7.36,18.43,2.61,19.45,0,0,7.67-10.25-.64-16.69C40.51-.94,34.19,9.65,31.46,14.3Z"/><path class="cls-3" d="M48.26,13.26s1.35-5.76-3.87-6.94-9.56,6.38-9.56,6.38,1.94-8,9-7.61C51.86,5.54,50,12.74,48.26,13.26Z"/></svg>