<svg id="Layer_1" data-name="Layer 1" xmlns="http://www.w3.org/2000/svg" viewBox="0 0 45.73 23.65"><defs><style>.cls-1{fill:#461211;}.cls-2{fill:#fff;}.cls-3{fill:#e55757;}.cls-4{fill:#9b593d;}</style></defs><path class="cls-1" d="M5.23,3.44A27.84,27.84,0,0,0,16.8,20.67s9.24,1.27,14-2.06,8.54-13.38,8.84-14-9.69,6.52-18.75,4.66C13.23,7.66,8.93,7.4,5.23,3.44Z"/><path class="cls-2" d="M5.23,3.44s7.06,6,22,3.83c0,0,9.94-1.53,12.67-3.36a31.2,31.2,0,0,1-2.28,4.74c-.8,1-8.4,3.6-17.46,3.47C13.54,12,10.54,10.78,7.28,8.73,5.92,7.88,5.23,3.44,5.23,3.44Z"/><path class="cls-3" d="M14.84,18.73s8.56-4.21,15.73-.16c0,0-1.14,2.36-8,2.82C16.41,21.81,14.84,18.73,14.84,18.73Z"/><path class="cls-4" d="M4.51,2.62S7.22,8.56,22.39,8c15.83-.6,18-4.59,18-4.59S33.62,7.26,22.91,7.29C14.3,7.31,10.87,6.94,4.51,2.62Z"/><path class="cls-4" d="M38.05,2.18A8.74,8.74,0,0,1,42.3,5.77C43.25,7.23,41.9,1.45,38.05,2.18Z"/><path class="cls-4" d="M6.41.85a8.78,8.78,0,0,0-3.22,5S2.89,1.84,6.41.85Z"/><path class="cls-4" d="M5.23,3.44s5.48,13.21,10.66,16.1a12.24,12.24,0,0,0,8.31,1.37,14,14,0,0,0,10.16-6.44c2.3-3.72,5.55-10.56,5.55-10.56l.45-.53s-2.85,9.3-7,13.93a15,15,0,0,1-9.52,5.1c-2.42.21-4.58.36-8.73-2.2S4.42,6.33,4.51,2.62Z"/></svg>