<svg id="Layer_1" data-name="Layer 1" xmlns="http://www.w3.org/2000/svg" viewBox="0 0 137.76 79.47"><defs><style>.cls-1{fill:#c8af6e;}.cls-2{fill:#ff9f57;stroke:#5e3b2c;stroke-miterlimit:10;}.cls-3{fill:#e6eb9c;}</style></defs><path class="cls-1" d="M9.38,27s-11,4.95-5.5,18.8c6.47,16.32,23.6,8.09,23.78,1.14,0,0-12.87,11.92-20.53-.48C1.27,37,7.69,29.65,9.38,27Z"/><path class="cls-2" d="M8.79,40.68s4.19,14.43,15.9,10,31,5.88,41.13,11.59,51.38,31,68.45,1.35c0,0-11.09-4.37-17.62-29C111,13.36,81.47,2.51,65.93,11.53,51.1,20.14,26,26.48,13.64,28.25,5.52,29.41,8.79,40.68,8.79,40.68Z"/><circle class="cls-3" cx="113.9" cy="51.58" r="4.21"/><circle class="cls-3" cx="97.89" cy="39.23" r="5.21"/><ellipse class="cls-3" cx="73.96" cy="35.38" rx="3.33" ry="3.9" transform="translate(32.09 105.87) rotate(-84.86)"/><ellipse class="cls-3" cx="82.46" cy="54.5" rx="2.71" ry="3.9" transform="translate(-4.31 101.83) rotate(-62.08)"/><ellipse class="cls-3" cx="105.54" cy="65.24" rx="2.19" ry="2.43" transform="translate(-1.53 127.94) rotate(-62.08)"/><circle class="cls-3" cx="95.38" cy="23.59" r="3.9"/></svg>