<svg id="Layer_1" data-name="Layer 1" xmlns="http://www.w3.org/2000/svg" viewBox="0 0 98.43 147.14"><defs><style>.cls-1{fill:#ff9f57;stroke:#5e3b2c;stroke-miterlimit:10;}.cls-2{fill:#e6eb99;}.cls-3{fill:#c8af6e;}</style></defs><path class="cls-1" d="M35.45,10.79s3.09,21.11-6.76,40.44S6,95.73,19.63,116.71s41,28.78,75.63,20c0,0,2-1.15-.53-8.69s-5.48-16.45-19.36-25.26c-13.24-8.41-15-66-17.62-75.62S45.86,2.84,35.45,10.79Z"/><circle class="cls-2" cx="74.17" cy="121.49" r="5.64"/><circle class="cls-2" cx="61.54" cy="125.08" r="3.5"/><circle class="cls-2" cx="31.8" cy="108.78" r="5.68"/><ellipse class="cls-2" cx="59.34" cy="89.3" rx="3.5" ry="5.68" transform="translate(-5.36 3.8) rotate(-3.51)"/><circle class="cls-2" cx="51.96" cy="64.48" r="4.74"/><path class="cls-3" d="M59.81,21.78S56-.72,39.17,3.38C22,7.54,27.28,29.61,34.11,31.4c0,0-10.45-15.35,2-24.15C47.7-.91,56.16,14.85,59.81,21.78Z"/><path class="cls-3" d="M35.53,19.17S34,10.73,41.6,9.36,55,19.24,55,19.24,52.75,7.52,42.52,7.62C30.81,7.74,33.09,18.29,35.53,19.17Z"/></svg>