<svg id="Layer_1" data-name="Layer 1" xmlns="http://www.w3.org/2000/svg" width="715.6" height="529.83" viewBox="0 0 715.6 529.83">
  <defs>
    <style>
      .cls-1, .cls-15 {
        opacity: 0.3;
      }

      .cls-2 {
        fill: #bfbfbf;
      }

      .cls-3 {
        fill: #9c9c9c;
      }

      .cls-4 {
        fill: #515151;
      }

      .cls-5 {
        fill: #37363b;
      }

      .cls-6 {
        fill: #1e1d22;
      }

      .cls-7 {
        fill: #e2e2e2;
      }

      .cls-25, .cls-8 {
        fill: #fff;
      }

      .cls-9 {
        fill: #bfbbbb;
      }

      .cls-10 {
        fill: #676565;
      }

      .cls-11 {
        fill: #c5c6c4;
      }

      .cls-12 {
        fill: #323232;
      }

      .cls-13 {
        fill: #703100;
      }

      .cls-14 {
        fill: #542000;
      }

      .cls-16 {
        fill: #231103;
      }

      .cls-17 {
        fill: #383838;
      }

      .cls-18 {
        fill: #6d0004;
      }

      .cls-19 {
        fill: #370002;
      }

      .cls-20 {
        fill: #ff7676;
      }

      .cls-21 {
        fill: #e55757;
      }

      .cls-22 {
        fill: #bf2028;
      }

      .cls-23 {
        fill: #ff999a;
      }

      .cls-24 {
        fill: #ea7572;
      }

      .cls-25 {
        stroke: #515151;
        stroke-miterlimit: 10;
        stroke-width: 1.5px;
      }
    </style>
  </defs>
  <g>
    <ellipse class="cls-1" cx="419.98" cy="485.91" rx="285.54" ry="36.72"/>
    <g>
      <g>
        <path class="cls-2" d="M604.16,307.42s11.42,41.25,28.24,60c3.49,1.91,5.56-1-2.22-17.13-13.33-27.61-12.78-48.56-15.12-68.87C608,291.23,604.16,307.42,604.16,307.42Z"/>
        <path class="cls-3" d="M604.16,307.42s11.42,41.25,28.24,60c1.91,1,3.38.63,3.07-2.55C621.5,349.7,610,312,609.29,292A107,107,0,0,0,604.16,307.42Z"/>
        <path class="cls-4" d="M634,368.62h0a4.2,4.2,0,0,1-2-.6l-.19-.15c-16.73-18.63-28.28-59.85-28.4-60.26l-.05-.18.05-.18c.15-.66,3.92-16.43,11-26.27l1.07-1.5.21,1.83c.43,3.69.75,7.32,1.09,11.15,1.53,17.21,3.11,35,14,57.49,4.63,9.6,6.29,15.57,4.93,17.73A2,2,0,0,1,634,368.62Zm-1.18-1.8a2.7,2.7,0,0,0,1.18.37h0a.54.54,0,0,0,.52-.27c.39-.61,1.15-3.59-5-16.35-11-22.73-12.56-40.65-14.1-58-.28-3.16-.55-6.18-.87-9.2-5.87,9.1-9.26,22.33-9.67,24C605.74,310.36,616.94,349,632.85,366.82Z"/>
      </g>
      <g>
        <path class="cls-5" d="M633.36,363.9c-2.94,1.22-2.23,8.25-7.3,16.5s-14.28,21.27-4.76,43.48,16.18,27.61,7.93,46c8.57-5.07,16.18-17.77,10.16-40,4.44,6.35,6,22.21,6,22.21s10.79-15.86,1.91-33.64c6.66,8.89,11.11,10.79,11.11,10.79s-4.45-3.8-4.45-19c0-7.09-1-20.51-4.44-30.3C645.6,368.7,638.87,361.61,633.36,363.9Z"/>
        <path class="cls-6" d="M644.46,405.47c-1.9,6.67-1.9,14.28-1.9,20.95-2.86-3.81-6.43-11.86-9.28-15.66,1,6.66,1.66,16.61-.24,23.27-4.76-13.32-14.28-26.65-7.62-41.88,3.64-9.1,8.13-18.19,7.7-28.11-2.66,1.51-2.13,8.35-7.06,16.36-5.08,8.26-14.28,21.27-4.76,43.48s16.18,27.61,7.93,46c8.57-5.07,16.18-17.77,10.16-40,4.44,6.35,6,22.21,6,22.21s10.79-15.86,1.91-33.64c6.66,8.89,11.11,10.79,11.11,10.79a6.66,6.66,0,0,1-1.22-1.65C650.87,422.85,648.72,412.58,644.46,405.47Z"/>
        <path d="M627.66,471.66l.92-2.06c6.51-14.51,3.6-20.66-2.77-34.12-1.55-3.27-3.31-7-5.17-11.32-9.23-21.55-1.21-34.44,4.1-43l.71-1.15a39.48,39.48,0,0,0,4.41-10.85c.85-3,1.46-5.2,3.22-5.94a6.33,6.33,0,0,1,2.42-.48c5.33,0,11.11,6.65,14.71,16.93,3.54,10.1,4.49,23.95,4.49,30.54,0,14.59,4.15,18.47,4.2,18.51l3.26,2.91-4-1.72c-.15-.07-3.33-1.48-8.28-7.15,5.27,16-3.75,29.6-3.85,29.74l-1.11,1.63-.2-2a90.27,90.27,0,0,0-3.17-15.88c3.83,22.76-7.94,31.83-11.94,34.2Zm7.84-107.47a4.83,4.83,0,0,0-1.87.37c-1.13.47-1.66,2.37-2.39,5a41.63,41.63,0,0,1-4.57,11.21l-.72,1.16c-5.15,8.28-12.94,20.8-4,41.66,1.86,4.32,3.6,8,5.15,11.27,6,12.76,9.22,19.49,3.74,33.06,5.16-4,14.16-14.61,7.86-37.83l-1.08-4L640,429.5c3.56,5.08,5.3,15.81,5.9,20.41,2.42-4.6,7.69-17.35.81-31.11l1.21-.74a47.84,47.84,0,0,0,8.1,8.72c-1.29-2.79-2.72-7.86-2.72-16.55,0-6.5-.93-20.15-4.4-30.07C645.52,370.61,640.14,364.19,635.5,364.19Z"/>
      </g>
      <g>
        <path class="cls-2" d="M453.11,384.85s1.58,26.65,8.88,47,15.55,35.86,8.25,60.61c12.7,5.72,34.28,6,48.87-2.22,4.13-31.41-4.44-49.5-13-64.42s-16.18-47.6-16.18-47.6Z"/>
        <path class="cls-7" d="M455,394.05c-.49-1.95-1.22-4.15-1.7-6.47.62,7.3,2.79,27.83,8.68,44.23,7.3,20.31,15.55,35.86,8.25,60.61a38,38,0,0,0,5,1.83C491,463.43,464.1,439.55,455,394.05Z"/>
        <path class="cls-3" d="M506.1,425.78c-8.56-14.91-16.18-47.6-16.18-47.6l-12.86,2.33c4.15,21.14,7.27,42.9,16,63,7.8,17.34,8.49,41.76-9.39,52.47,11.6,1.52,25.21,0,35.41-5.82C523.24,458.79,514.67,440.7,506.1,425.78Z"/>
        <path class="cls-4" d="M492.16,497.29h0c-8.28,0-16.16-1.5-22.2-4.21l-.57-.26.18-.6c6.31-21.4.86-35.89-5.46-52.67-.92-2.44-1.86-4.93-2.78-7.5-7.25-20.17-8.91-46.89-8.93-47.16l0-.63,38.1-6.9.15.66c.08.33,7.7,32.76,16.11,47.41,8.52,14.82,17.25,33.27,13.1,64.87l0,.35-.31.18C512.09,495,502.39,497.29,492.16,497.29ZM471.1,492a54.79,54.79,0,0,0,21,3.84c9.86,0,19.18-2.17,26.3-6.1,4-30.94-4.6-49.06-13-63.62-7.84-13.66-15-42.41-16.1-47.13l-35.52,6.43c.3,4.15,2.24,27.87,8.8,46.13.92,2.56,1.86,5,2.77,7.48C471.78,455.91,477.27,470.49,471.1,492Z"/>
      </g>
      <path class="cls-4" d="M457.45,413.69l-1-1a18.56,18.56,0,0,1,9.42-4.62,14.1,14.1,0,0,1,8.1,1C473.87,409,463.35,407.91,457.45,413.69Z"/>
      <path class="cls-4" d="M462.92,417.94a20.34,20.34,0,0,0,14.83-3,5.94,5.94,0,0,1-3.33,3.32,14.75,14.75,0,0,1-6.09,1.38A10.08,10.08,0,0,1,462.92,417.94Z"/>
      <path class="cls-4" d="M467.18,429.24a41,41,0,0,1-6.58-.53l.23-1.41c13.49,2.15,22.43-3.34,22.52-3.39S477.43,429.24,467.18,429.24Z"/>
      <g>
        <polygon points="491.97 497.32 494.3 495.57 494.93 495.95 496.52 497.16 491.97 497.32"/>
        <g>
          <path class="cls-8" d="M504.2,480.37c-8.89,2.06-9.84,16.06-9.84,16.06l.14.09c8.48-.29,17.14-2.22,24.22-6.11C518.61,490.17,513,478.32,504.2,480.37Z"/>
          <path class="cls-9" d="M506.88,480.16c1.22,3.12,2.41,6.53.49,9.09-1.76,3.52-7.72,7-13,6.79,0,.25,0,.39,0,.39l.14.09c8.48-.29,17.14-2.22,24.22-6.11C518.62,490.19,514.12,480.71,506.88,480.16Z"/>
          <path class="cls-10" d="M494.27,497.24l-.2-.15.43-.57-.47.55-.41-.31,0-.38c0-.6,1.09-14.55,10.39-16.71a9.62,9.62,0,0,1,2.19-.25c8,0,12.93,10.25,13.14,10.68l.28.61-.59.32c-6.78,3.74-15.27,5.88-24.54,6.21Zm12-16.4a8.53,8.53,0,0,0-1.87.22c-7.17,1.67-8.88,11.94-9.21,14.72a53.78,53.78,0,0,0,22.61-5.67C516.61,488,512.32,480.84,506.23,480.84Z"/>
        </g>
        <g>
          <path class="cls-8" d="M480.16,477c-2.72,0-5.3,1.64-7.49,3.73a69.2,69.2,0,0,1-2.43,11.66c6.41,2.89,15.08,4.39,24,4.12l.15-.11C493.57,493.76,490.24,477,480.16,477Z"/>
          <path class="cls-9" d="M486,479.27c2,11.89-6.17,14.74-15.17,13.41,6.34,2.71,14.73,4.12,23.35,3.86l.15-.11C493.75,494.37,491.62,483.91,486,479.27Z"/>
          <path class="cls-10" d="M492.15,497.28h0c-8.29,0-16.17-1.49-22.2-4.2l-.57-.26.18-.6a69,69,0,0,0,2.4-11.54l0-.26.18-.18c2.73-2.6,5.42-3.92,8-3.92,9.71,0,13.4,14.2,14.61,18.87.11.44.21.79.28,1l.14.48-.67.49-.29.06Zm-21-5.26a54.72,54.72,0,0,0,21,3.84h0l1.31,0c0-.09,0-.19-.07-.29-1.15-4.4-4.62-17.8-13.22-17.8-2.14,0-4.44,1.13-6.83,3.35A67.71,67.71,0,0,1,471.1,492Z"/>
        </g>
      </g>
      <g>
        <path class="cls-2" d="M278.41,356.45s8.41,25.86,8.41,49.5,1.35,27.07,3.73,41.62,6.9,23.59,3.1,33.35-1.14,15.42,10,17.33,18.59-2.81,23-9.24-9.44-70-9.44-70l-4.29-37.35Z"/>
        <path class="cls-7" d="M297.19,459.38c-5.72-21.89-4-44.39-5.92-66.28-.82-12.22-5.82-23.74-10.82-35.17l-2-1.48s8.41,25.86,8.41,49.5,1.35,27.07,3.73,41.62,6.9,23.59,3.1,33.35c-2.12,5.43-2.89,7.95-.65,10.9C299.28,481.2,300.59,470.73,297.19,459.38Z"/>
        <path class="cls-3" d="M317.21,419l-4.29-37.35-16.5-12.06c.22.85.42,1.69.56,2.54,6,23.33,6.85,51.6,11.18,76.48,7.36,42.21-6.93,44.24-15.16,43.8,1.57,2.93,5,4.85,10.69,5.82,11.19,1.9,18.59-2.81,23-9.24S317.21,419,317.21,419Z"/>
        <path class="cls-4" d="M308.55,499.39h0a29.88,29.88,0,0,1-5-.44c-5.74-1-9.37-2.94-11.11-6s-1.53-7,.52-12.29c2.64-6.75,1.12-13.32-.8-21.63-.77-3.35-1.65-7.15-2.33-11.34-.37-2.27-.72-4.26-1-6.1-1.74-10.07-2.7-15.62-2.7-35.64,0-23.25-8.29-49-8.38-49.28l-.68-2.1,36.55,26.71,4.32,37.66c1.4,6.47,13.73,64,9.32,70.47A21.81,21.81,0,0,1,308.55,499.39Zm-28.83-141.1c2,6.62,7.82,28,7.82,47.66,0,19.9.95,25.4,2.68,35.39.32,1.85.66,3.85,1,6.11.67,4.15,1.55,7.93,2.31,11.26,2,8.55,3.54,15.3.74,22.47-1.89,4.83-2.08,8.45-.61,11.06s4.82,4.4,10.11,5.3a28.08,28.08,0,0,0,4.74.42,20.43,20.43,0,0,0,17.51-9.35c3.44-5.06-5.73-51.84-9.55-69.43l-4.26-37.11Z"/>
      </g>
      <path class="cls-4" d="M298.21,451.69a17.14,17.14,0,0,1-7.68-1.78l.63-1.28c7.25,3.59,14.47,0,14.54,0a8.93,8.93,0,0,1-5.73,3A16.58,16.58,0,0,1,298.21,451.69Z"/>
      <path class="cls-4" d="M289.11,435.75l-1.22-.73a14.12,14.12,0,0,1,9.29-6.49,11.36,11.36,0,0,1,7.64,1.09C304.71,429.6,293.88,427.76,289.11,435.75Z"/>
      <path class="cls-4" d="M290.44,444.74l-.91-1.1c2.2-1.84,5.44-2.56,8.4-2.8a13.23,13.23,0,0,1,6.91,1.64C304.74,442.46,294.87,441,290.44,444.74Z"/>
      <g>
        <path class="cls-8" d="M306,484.17c-6.95-.32-11.42,4-13.6,6.8,1.12,3.75,4.73,6.16,11.27,7.28,6.94,1.18,12.42-.19,16.62-2.93C318.75,492.14,314.17,484.55,306,484.17Z"/>
        <path class="cls-9" d="M313.33,486.76c1.08,5.77-10.37,11.91-20.85,4.14l-.06.07c1.12,3.75,4.73,6.16,11.27,7.28,6.94,1.18,12.42-.19,16.62-2.93A23.55,23.55,0,0,0,313.33,486.76Z"/>
        <path class="cls-10" d="M308.55,499.39h0a29.88,29.88,0,0,1-5-.44c-6.74-1.15-10.61-3.69-11.84-7.77l-.1-.35.22-.29c2.12-2.75,6.83-7.43,14.2-7.08,8.51.39,13.26,8.21,14.9,11.55l.28.57-.53.34A21.87,21.87,0,0,1,308.55,499.39Zm-15.33-8.27c1.17,3.31,4.64,5.41,10.59,6.42s11.2.17,15.57-2.47c-1.76-3.35-6.09-9.85-13.39-10.18C299.51,484.57,295.26,488.56,293.22,491.12Z"/>
      </g>
      <g>
        <path class="cls-11" d="M220.18,257s1.27,74.56,86.32,126.61c37.44,4.44,75.52,0,75.52,0s45.11,23.1,94.62,2.09c-.81,9-2.11,18.14,7.88,30.75s28.25,40.78,30.79,52.2c2.22,8.57-3.49,24.44-2.23,28.25s43.8,12.06,67.28,0c7.3-6,7.3-28.56-1-48.56s-16.5-49.82-15.23-55.53S608.86,339.53,615,278.86C622.77,201,577.88,108.3,510.57,96.19c-59.4-10.68-107.4,11.64-123,4-39.39-19.39-72.24-25.44-93.24-11.76C271.88,103,220.18,257,220.18,257Z"/>
        <g>
          <path class="cls-7" d="M508,439.42c-11-16.55-25.38-31.57-25.38-44.93,0-28.52,12.69-77.24,28.67-116.21-14.37,26.05-24.88,51-27.74,64.36-2.48,14.88-7.24,43.15-6.93,43-.81,9-2.11,18.14,7.88,30.75s28.25,40.78,30.79,52.2c2.22,8.57-3.49,24.44-2.23,28.25.25.73,2,1.63,4.91,2.52C526.79,471.66,522.79,461.67,508,439.42Z"/>
          <path class="cls-7" d="M320.25,81.07c-12.87-.26-42.89,12.31-41.34,17.64s45.62,3.81,48.42,1.8c22.26-16.78,50,21.85,76.8,12.84,47.62-16,100-19,131.51-5,3.17,1.4,6.66,2,10,3.15-12.51-8.12-26.56-14.89-42.36-16.88-36-4.53-72.43,2.59-102.5,7.71C385.29,105,364.41,82,320.25,81.07Z"/>
        </g>
        <g>
          <path class="cls-3" d="M395,340.74c-1.9,14.28-17.13,21.89-29.51,24.75-24.75,5.71-56.17,1.9-71.4-22.85-8.51,20.43-34.52.89-41.37-6.21,12.5,16.06,29.8,32.5,53.75,47.15,37.44,4.44,75.52,0,75.52,0s44.57,22.81,93.72,2.46c2.21-21.39,8.63-41.92,14.5-62.44C467.39,351.21,424.55,366.44,395,340.74Z"/>
          <path class="cls-3" d="M287.89,267.91s41.13,13.49,51.6-8.41c2.86-6.66,3.18-19.68,6-25.39,14.15-23,34.05-45.18,29.92-71.88a375.46,375.46,0,0,0-42.93,21.59C309.6,197.68,220.18,257,220.18,257s.15,8.31,3.5,21.31C243.42,283.12,264.09,281.39,287.89,267.91Z"/>
          <path class="cls-3" d="M615,278.86c2.72-47-6.19-107.61-50.65-152.25,41.58,41.22,43.51,190.1-23.43,267.78,6.76,24,17.22,45.85,21.72,71.06,2.3,13.8-4,25.13-7.09,37.47,8.91-.62,17.76-2.41,24.86-6.05,7.3-6,7.3-28.56-1-48.56s-16.5-49.82-15.23-55.53S611.42,339.74,615,278.86Z"/>
        </g>
        <path class="cls-4" d="M547.85,503.89c-17.09,0-34.45-3.83-35.44-6.8-.59-1.77.09-5.42,1-10,1.12-6,2.51-13.41,1.26-18.24-2.47-11.08-20.08-38.59-30.66-51.93-9.73-12.29-8.95-21.34-8.14-30.09a112.5,112.5,0,0,1-43.08,8.43,124.15,124.15,0,0,1-50.84-10.9,382.61,382.61,0,0,1-39.18,2h0a311.47,311.47,0,0,1-36.31-2l-.15,0-.14-.08c-44.09-27-65.3-60.11-75.33-83.15-10.88-25-11.32-43.87-11.32-44.06v-.39l.33-.21c.89-.6,54.61-158.24,77.84-171,19.14-10.5,46.42-4.85,76.58,7.52,7.09,2.91,14.49,7.59,21.8,8,16.48,1,32.84-4.58,50-6.68,4.2-.51,19.67-2.74,35.42-2.49a182.82,182.82,0,0,1,37.92,5.13c35,9.48,60.48,36.36,78.24,71.4,22.34,44.08,19.37,79.85,18.09,110.58-2,48.41-32.1,88.44-44.95,105.54-3.13,4.17-5.6,7.46-5.84,8.51-1.21,5.44,7,35.31,15.2,55.1s8.54,42.94.75,49.38l-.13.08C570.4,502.78,557.15,503.89,547.85,503.89ZM477.46,384.54l-.21,2.25c-.78,8.5-1.59,17.29,7.83,29.19,10.66,13.44,28.42,41.23,30.92,52.49,1.33,5.11-.09,12.72-1.23,18.83-.76,4.07-1.48,7.92-1,9.34.72,1.74,15.78,5.82,34.09,5.82,9.12,0,22.09-1.07,32.11-6.19,6.48-5.47,7.34-27-1.21-47.68-7.7-18.65-16.66-49.73-15.27-56,.29-1.29,2.18-3.85,6.09-9.06,12.77-17,42.67-56.78,44.67-104.74,1.37-33,1-69.58-18.59-108.12-15.58-30.6-46.33-66.86-76.58-72.39-3.93-.72-20.86-4.85-37.57-5.11-15.78-.25-31.37,2-35.51,2.49-16.45,1.79-33.6,7.54-49.9,6.61-7.58-.43-15.15-5.13-22.2-8.16-29.54-12.69-59.54-17.2-75.52-7.53-21.95,13.27-71.45,166.74-77.46,170.73.12,2.79,1.29,20.41,11.22,43.19s31,55.59,74.61,82.35a310.58,310.58,0,0,0,36,1.95,379.4,379.4,0,0,0,39.22-2l.22,0,.19.1c.21.11,21.52,10.84,50.39,10.84A111,111,0,0,0,476.36,385Z"/>
      </g>
      <path class="cls-4" d="M476.75,393.62l-1.43-.09c1.95-32.89,10.73-62,19-82.87,8.08-20.42,17-32.38,17-32.38C511,278.78,480.58,328.88,476.75,393.62Z"/>
      <path class="cls-4" d="M482.64,406.23a9.78,9.78,0,0,1,3.51-6.6,21.53,21.53,0,0,1,11.36-4.95c3.07-.41,10.51,2,10.51,2C488.86,392.55,482.88,405.67,482.64,406.23Z"/>
      <path class="cls-4" d="M489.12,408.87s2.06-3.44,3.59-4.35a33.75,33.75,0,0,1,9.44-3.78,14.64,14.64,0,0,1,8.51.52C510.54,401.26,498.61,400.6,489.12,408.87Z"/>
      <path class="cls-4" d="M498.63,417.79a32.5,32.5,0,0,1-3.37-.17c-2.2-.22-6.38-2.83-6.38-2.83,12.25,4.14,23.62-1.33,23.73-1.39a13.72,13.72,0,0,1-7.05,3.71A36,36,0,0,1,498.63,417.79Z"/>
      <g>
        <path d="M512.27,496.49a5.88,5.88,0,0,1-.08-.89l1.43-.08.06.79Z"/>
        <g>
          <path class="cls-8" d="M555.45,485.92c-8.33.95-14.78,17.05-14.78,17.05,10.61.61,22.59,0,32.64-3.23h0S563.78,485,555.45,485.92Z"/>
          <path class="cls-9" d="M557.46,486c2.52,2.35,5.24,6.09,3.23,10.5-1.67,3.65-12.56,5.95-19.82,5.22a12.64,12.64,0,0,0-.2,1.26c10.61.61,22.59,0,32.64-3.23C573.31,499.74,565.24,487.24,557.46,486Z"/>
          <path class="cls-10" d="M547.85,503.89h0c-2.36,0-4.8-.07-7.22-.21l-1-.06.38-.92c.27-.68,6.77-16.51,15.36-17.49s18.15,13.55,18.54,14.15l.5.78-.89.28C566.32,502.72,557.68,503.89,547.85,503.89Zm-6.13-1.58c2.06.1,4.12.15,6.13.15a85.43,85.43,0,0,0,24.32-3.11c-2.08-3-9.89-13.49-16.64-12.72C549.66,487.3,544.16,496.7,541.72,502.31Z"/>
        </g>
        <g>
          <path class="cls-8" d="M540.67,503s-5.53-19.59-13.78-19.91-14,12.52-14,12.52h0l.07.79c0,.18.07.35.11.5C513.75,498.88,525.9,502.12,540.67,503Z"/>
          <path class="cls-9" d="M540.67,503s-5-17.65-12.56-19.7c3,2.61,3.88,7.89,1.32,11.26s-9.86,3.56-16.26,2.5C514.4,499.05,526.29,502.14,540.67,503Z"/>
          <path class="cls-10" d="M541.38,503.72l-.75,0c-14.14-.81-27.32-3.89-28.22-6.59a3.31,3.31,0,0,1-.14-.6l-.08-.84c0-.66,5.87-13.31,14.4-13.31h.33c8.82.34,14.46,20.42,14.46,20.62Zm-27.75-8,0,.6c0,.09.05.22.08.33.58,1.4,11.07,4.58,25.94,5.55-1.8-5.84-6.84-18.18-12.84-18.41h-.27C519.52,483.77,514.31,494.28,513.63,495.71Z"/>
        </g>
      </g>
      <g>
        <path class="cls-2" d="M394.65,340.86l-99.1,1.3s5.71,29.28,9.52,48.32,5.24,48.79,8.57,61.4,8.57,30.81,8.57,34.92c-6.19,6.74-9.52,16.49-6.91,21s23.8,7.14,38.8,6.42,30.46-3.57,31.18-13.09-3.81-13-6.19-24.12-6.27-43.65.08-66.33,7.68-30.45,7.68-30.45S400.36,372.6,394.65,340.86Z"/>
        <path class="cls-7" d="M329.16,487.92c-.94-1.54-7.19-18.63-11.24-43.18-5.31-32.2-5.14-58.07-21.52-98.24,1.73,8.84,5.75,29.4,8.67,44,3.81,19,5.24,48.79,8.57,61.4s8.57,30.81,8.57,34.92c-6,6.52-9.29,15.87-7.12,20.56C317.35,500.14,323.47,492.75,329.16,487.92Z"/>
        <path class="cls-3" d="M394.65,340.86s-2.15,19.55-12.66,2.67c2.35,15.46-4.16,34.13-11.3,50.09-9.2,20.59-12.64,36.35-9.71,58.07,4.23,31.27,5.61,41.11-6.88,62.55,13.06-1.14,30.55-4.73,31.18-13.09.71-9.52-3.81-13-6.19-24.12s-6.27-43.65.08-66.33,7.68-30.45,7.68-30.45S400.36,372.6,394.65,340.86Z"/>
        <path class="cls-4" d="M349.08,515.07c-13.85,0-31.75-2.33-34.39-6.9s.39-14.54,6.79-21.64c-.16-3.5-3.35-15.26-6.17-25.67-.83-3.06-1.64-6.06-2.36-8.79-1.73-6.56-2.95-17.69-4.24-29.47-1.23-11.2-2.5-22.79-4.34-32-3.77-18.82-9.46-48-9.52-48.32a151.61,151.61,0,0,1,5.35,19.91c1.79,9.09,3.88,19.66,5.57,28.13,1.85,9.25,3.12,20.87,4.36,32.11,1.28,11.72,2.49,22.8,4.2,29.25.72,2.74,1.53,5.73,2.36,8.79,3.06,11.3,6.23,23,6.23,26.31v.28l-.19.21c-6,6.57-9.22,16-6.81,20.17s23,6.8,38.14,6.07c19.7-.94,30-5.12,30.5-12.43.42-5.5-.95-8.87-2.68-13.15a60.65,60.65,0,0,1-3.49-10.77c-2.09-9.74-6.56-42.92.09-66.67,6.26-22.36,7.65-30.3,7.67-30.38l.06-.34.3-.16c.13-.08,13.68-8,8.14-38.77,0,0,3,12.22,2.71,17-.84,16.16-8.23,21.79-9.87,22.84-.32,1.69-2,10.22-7.63,30.19-6.08,21.73-2.68,53.85-.07,66a59.11,59.11,0,0,0,3.42,10.54c1.72,4.27,3.22,7.95,2.78,13.78-.61,8.15-11.33,12.78-31.86,13.75C352.54,515,350.84,515.07,349.08,515.07Z"/>
      </g>
      <path class="cls-4" d="M387.56,380.33l-1.42-.15A87,87,0,0,0,382,343.53a39.54,39.54,0,0,1,5,14.68A88.48,88.48,0,0,1,387.56,380.33Z"/>
      <g>
        <g>
          <path class="cls-8" d="M352.31,495.8C342.2,497,338.76,514,338.76,514a126.27,126.27,0,0,0,15.34.28,96,96,0,0,0,16.59-2S362.42,494.61,352.31,495.8Z"/>
          <path class="cls-9" d="M356.57,496.36c3.39,5.09,5.61,10.35.38,13.84-5.46,3.64-11.8,2.93-18.18,3.7V514a126.27,126.27,0,0,0,15.34.28,96,96,0,0,0,16.59-2S364.64,499.35,356.57,496.36Z"/>
          <path class="cls-10" d="M349,515.07h0c-3.35,0-6.81-.13-10.27-.4l-.78-.06.13-.77c0-.17,3.54-17.5,14.17-18.75,10.48-1.21,18.77,16.11,19.11,16.82l.38.81-.87.19a95.57,95.57,0,0,1-16.72,2C352.5,515,350.77,515.07,349,515.07Zm-9.34-1.76c3.16.22,6.3.33,9.34.33h0c1.76,0,3.47,0,5.08-.11a99.49,99.49,0,0,0,15.59-1.81c-1.75-3.38-9-16.21-17.25-15.21S340.47,510,339.64,513.31Z"/>
        </g>
        <g>
          <path class="cls-8" d="M315.3,507.82c1.79,3.08,12.24,5.28,23.46,6.14,0,0-3.8-20.14-11.91-21.38-3.31-.59-9.58,4.26-12.35,9.67A9.19,9.19,0,0,0,315.3,507.82Z"/>
          <path class="cls-9" d="M327.65,492.77c2.37,3.5,5.43,9,3,13.14-3.4,4.75-14.7,1.55-16,0a6.27,6.27,0,0,0,.7,1.95c1.79,3.08,12.24,5.28,23.46,6.14C338.76,514,335.21,495.15,327.65,492.77Z"/>
          <path class="cls-10" d="M339.61,514.74l-.91-.07c-5-.38-21.39-2-24-6.5a9.67,9.67,0,0,1-.9-6l.08-.24c2.88-5.64,9.41-10.7,13.1-10.05,8.66,1.32,12.46,21.76,12.49,22ZM315.2,502.46a8.41,8.41,0,0,0,.72,5c1.43,2.46,10.2,4.73,21.95,5.71-1.26-6-5.2-19-11.13-19.88a2.56,2.56,0,0,0-.47,0C323.41,493.25,317.87,497.35,315.2,502.46Z"/>
        </g>
      </g>
      <path class="cls-4" d="M316.24,439.42a8.1,8.1,0,0,1,4.61-4.78,21.43,21.43,0,0,1,9.54-1.69c2.23.09,7,2.72,7,2.72C323.39,431.26,316.31,439.33,316.24,439.42Z"/>
      <path class="cls-4" d="M330.86,457.06a23.73,23.73,0,0,1-8.8-1.6c-2.37-.94-5.87-5.44-5.87-5.44,11.71,11.1,28.68,2.35,28.85,2.26a13.89,13.89,0,0,1-6.94,3.92A32.74,32.74,0,0,1,330.86,457.06Z"/>
      <path class="cls-4" d="M325.45,448.29c-1.5,0-4.35-1.94-4.35-1.94,8.32,2,16-2.72,16.12-2.77a7.24,7.24,0,0,1-3.87,3.33,24.54,24.54,0,0,1-7.42,1.37Z"/>
      <g>
        <g>
          <path class="cls-2" d="M296,90.64a50.29,50.29,0,0,0-2.8-14c-2.93-8.65-6.11-15.26-17.06-15.26s-20.35,4.07-24.17,9.41C259.57,76.64,296,90.64,296,90.64Z"/>
          <path class="cls-3" d="M293.17,76.64c-2.74-8.09-5.7-14.39-15-15.18,3.76,7.18,5.57,16.57,2.28,23C289,87.94,296,90.64,296,90.64A50.29,50.29,0,0,0,293.17,76.64Z"/>
          <path class="cls-4" d="M296.74,91.76l-1.05-.41c-1.49-.57-36.58-14.1-44.22-19.95l-.58-.45.43-.6c4.16-5.83,14.12-9.74,24.79-9.74,11.5,0,14.86,7.15,17.78,15.79a50.38,50.38,0,0,1,2.84,14.23ZM253,70.63c7.75,5.36,36.15,16.55,42.12,18.87a53.28,53.28,0,0,0-2.7-12.61c-2.82-8.36-5.82-14.75-16.33-14.75C266.29,62.14,257.16,65.53,253,70.63Z"/>
        </g>
        <g>
          <path class="cls-11" d="M131.31,228.46s-4.75,15.77-7.8,25.44-2.89,15.44,8.65,15.1,21-5.77,31.56-8.83,25.61,7.47,49.79,9.76,57.77,5.34,80.16-41,3.06-140,3.06-140S272.3,68,238.45,63.54C230.31,49,221.65,44.2,214.53,41.91c4.58,6.36,9.67,15.52,9.67,15.52s-11.45-15.27-32.7-6.87c5,1.27,20.69,9.67,20.69,9.67s-20.06-8.65-35.33,4.33c5.86-.26,21.38,2.29,21.38,2.29S174.52,69.31,155,86.27,122.66,128,104,142.6s-36.64,9.16-46.82-5.09S46.31,104.6,48,78.13s5.77-39.36-7.13-56.67-29.69-15.1-30-9.16,9.5,11.37,10,14.25c-3.73,4.75-7.29,7.64-6.45,11.71s6.28,4.58,11.37,3.22c3.4,5.26.51,17.65-4.58,36.14S4.06,150.2,42.75,199.94C66.27,230.19,103.83,238.14,131.31,228.46Z"/>
          <path class="cls-7" d="M218.22,65.7c-5.1-9.3-9.09-11.77-17.18-15.39,3.82-.51,7-.82,10.65-1.11-5.19-1.59-11.95-1.9-20.19,1.36,5,1.27,20.69,9.67,20.69,9.67s-20.06-8.65-35.33,4.33c5.86-.26,21.38,2.29,21.38,2.29S174.52,69.31,155,86.27,122.66,128,104,142.6s-36.64,9.16-46.82-5.09S46.31,104.6,48,78.13C49.65,52.46,53.53,39.55,42,23c-.36-.51-.73-1-1.12-1.55C29.32,6,14.64,6.12,11.47,10.6c4.81-2.63,13.26,1.68,18,5.09,9.35,6.55,14.26,15.62,16,26.87,3.18,34.07-11.63,62.15,4.92,94.27,6.11,12.22,20.64,22.31,36.14,19.24,23-4.56,35-17.5,47.2-34.81C152,94.8,174.81,72.92,211.22,69.65c-5.09-5.09-12.49-6.15-18.6-8.19C201.78,60.44,210.08,62.65,218.22,65.7Z"/>
          <path class="cls-3" d="M214.55,151.09c-2.57,18.33-16.2,31.57-30.44,29.57S160.4,162.18,163,143.85s16.2-31.56,30.45-29.56S217.12,132.76,214.55,151.09Z"/>
          <path class="cls-3" d="M236.16,256c-15.76,1-28.1-.13-43.6-2.39-7.93-1.16-15.1-3.25-23.1-2.28-15.55,1.95-33.57,18.19-47.41,12.94.76,3.25,3.66,5,10.11,4.78,11.54-.34,21-5.77,31.56-8.83s25.61,7.47,49.79,9.76c19.51,1.85,45.16,4.17,66.1-19.35-5.4-7.6-9.91-15.54-10.31-25.75C265.93,251.28,242.78,255.51,236.16,256Z"/>
          <g>
            <path class="cls-3" d="M131,229.37c14.83-7.3,29.52-14.13,42.52-24.34a16.33,16.33,0,0,0-8.14-2.64c-27.49,17.31-59.17,16.22-86.65,7.06C48.23,199.27,26,164.32,18.83,133.78c-1.1-5.2-2.27-10.24-3.47-15.2-.14,23.69,5.5,53.22,27.39,81.36,23.52,30.25,61.08,38.2,88.56,28.52Z"/>
            <path class="cls-3" d="M34.1,32a18.61,18.61,0,0,1-19.24,2.55,6,6,0,0,0-.45,3.73c.51,2.44,2.67,3.59,5.41,3.84C26.55,41.73,34.1,39.38,34.1,32Z"/>
            <path class="cls-3" d="M233.36,65.07s54.35,17.33,29.78,50.38c11.67-5.18,24.57-5.83,36.62-8.77-1.62-10.88-3-17.72-3-17.72S272.3,68,238.45,63.54c-7.67-13.66-15.79-18.74-22.66-21.2C225.33,49.36,228.78,55.39,233.36,65.07Z"/>
          </g>
          <path class="cls-4" d="M231.4,271.78c-6.4,0-12.54-.58-18-1.09-11.61-1.1-21.28-4.13-29.05-6.56-6.41-2-11.95-3.74-16.5-3.74a14.06,14.06,0,0,0-4,.52c-3.34,1-6.64,2.2-9.84,3.4-6.85,2.56-13.94,5.21-21.91,5.45-5.05.14-8.22-.85-9.85-3.07-2.25-3.07-1.11-8.07.45-13,2.48-7.87,6.13-19.91,7.37-24a72,72,0,0,1-22.39,3.46h0c-25.54,0-49.45-11.92-65.62-32.71C15.7,166.4,8,122.72,20.47,77.42c4.53-16.5,7.79-29.61,4.94-35.06a19,19,0,0,1-4.42.56c-4.06,0-6.73-1.64-7.32-4.51-.75-3.59,1.5-6.25,4.35-9.62.64-.75,1.31-1.54,2-2.4a17.23,17.23,0,0,0-3.26-3.6c-3.07-2.9-6.89-6.51-6.66-10.53.17-3,3.63-5.06,8.42-5.06,3,0,13.44,1,23,13.81,10.88,14.59,9.89,26,8.25,44.77-.33,3.89-.68,7.91-1,12.4-1.72,26.88-.8,45.14,9,58.89,6.17,8.63,14.69,13.39,24,13.39,7.25,0,14.56-2.85,21.74-8.46,9.63-7.53,17.6-17.64,26-28.35,7.65-9.72,15.56-19.76,25-27.95,14.26-12.42,30.94-17.16,38.92-18.81-5-.73-12.83-1.74-16.55-1.57l-2.23.1,1.7-1.44a31.16,31.16,0,0,1,20.81-7.34,42.55,42.55,0,0,1,7.86.75C200.18,55,194,52,191.31,51.3L189,50.71l2.19-.86a34.39,34.39,0,0,1,12.64-2.58,27.29,27.29,0,0,1,16.93,5.79c-1.88-3.16-4.46-7.35-6.88-10.71l-1.36-1.88,2.21.71c6.25,2,15.53,6.44,24.17,21.65,33.49,4.5,58.05,25.34,58.3,25.55l.19.17.06.26c.19.94,19.13,94.46-3.12,140.48C276,267.38,249.61,271.78,231.4,271.78Zm-63.51-12.92c4.78,0,10.43,1.77,17,3.81,7.7,2.41,17.28,5.41,28.73,6.5,5.39.51,11.49,1.09,17.82,1.09,19.3,0,43.75-4.73,61.59-41.64,21.45-44.36,4.14-133.74,3-139.24-2.39-2-26-21-57.68-25.08l-.38,0-.18-.34c-7.45-13.27-15.36-18.18-21.27-20.49,4.15,6.1,8.3,13.56,8.35,13.64l-1.28.83a26,26,0,0,0-19.73-9.09,31.7,31.7,0,0,0-10,1.73c3.11,1.18,7.65,3.36,11.48,5.28a43.55,43.55,0,0,1,6.92,4.43s-3.8-.78-8.81-1.57a39.72,39.72,0,0,0-6.23-.5,30,30,0,0,0-18.13,5.63c6.77.25,18.77,2.21,19.31,2.29L204,67l-5.67.59c-.23,0-23.72,2.64-42.78,19.24-9.31,8.1-17.17,18.09-24.78,27.74-8.5,10.79-16.52,21-26.29,28.61C97,149,89.38,152,81.78,152,72,152,63,147,56.55,138c-10.09-14.12-11-32.64-9.3-59.87.28-4.51.63-8.54,1-12.43,1.61-18.46,2.58-29.6-7.95-43.73C31.15,9.68,21.31,8.73,18.51,8.73c-3.88,0-6.78,1.52-6.9,3.61C11.42,15.66,15,19,17.8,21.69c2,1.89,3.58,3.38,3.81,4.73l.06.34-.21.26c-.78,1-1.55,1.9-2.27,2.76-2.69,3.17-4.62,5.46-4,8.32s3.91,3.29,5.83,3.29a18.43,18.43,0,0,0,4.6-.64l.53-.15.3.47c3.67,5.68.45,18.81-4.48,36.75-12.34,44.83-4.74,88,21.41,121.66,15.87,20.4,39.35,32.11,64.41,32.11h0a70.13,70.13,0,0,0,23.3-3.85l1.41-.5-.43,1.44c0,.16-4.79,15.88-7.81,25.45-1.94,6.16-2.14,9.65-.66,11.66,1.3,1.78,4.08,2.58,8.57,2.44,7.71-.22,14.68-2.83,21.42-5.35,3.22-1.21,6.55-2.45,9.94-3.44A15.65,15.65,0,0,1,167.89,258.86Z"/>
        </g>
        <g>
          <path class="cls-12" d="M168.33,141.26,213,152.58s2.83-24.53-15-29.75C182.13,118.18,170.66,134.13,168.33,141.26Z"/>
          <path class="cls-8" d="M211,158.55c-4.06,14.91-17.16,24.33-29.24,21s-18.59-18.06-14.52-33,17.16-24.33,29.24-21S215,143.63,211,158.55Z"/>
          <path class="cls-8" d="M166.79,148.31c-3.15,14.32,3.31,28.11,14.94,31.28,11.29,3.08,23.45-4.94,28.32-18.17C199.26,170.28,171.79,173,166.79,148.31Z"/>
          <g>
            <path class="cls-13" d="M202.86,157.75c-1.8,9.08-8.69,15.27-15.39,13.82s-10.68-10-8.88-19.06,8.69-15.27,15.39-13.82S204.66,148.67,202.86,157.75Z"/>
            <path class="cls-14" d="M186.42,160.92a18.71,18.71,0,0,1-8-7.08c-1.18,8.57,2.71,16.36,9.09,17.73,6.62,1.43,13.42-4.6,15.32-13.5C198.31,162.1,192.2,162.71,186.42,160.92Z"/>
            <path class="cls-12" d="M199.66,160.66c-1.24,6.26-5.8,10.57-10.19,9.62s-6.94-6.79-5.7-13.05,5.8-10.56,10.19-9.62S200.9,154.4,199.66,160.66Z"/>
            <path class="cls-8" d="M197.34,153.66a4.56,4.56,0,0,1-5.82,3.05,4.83,4.83,0,0,1-3.18-5.92,4.56,4.56,0,0,1,5.81-3A4.84,4.84,0,0,1,197.34,153.66Z"/>
            <g class="cls-15">
              <path class="cls-8" d="M188.26,165.25a2.1,2.1,0,0,1-2.67,1.41,2.23,2.23,0,0,1-1.47-2.73,2.1,2.1,0,0,1,2.68-1.4A2.21,2.21,0,0,1,188.26,165.25Z"/>
            </g>
            <path class="cls-16" d="M186.36,172.14c-6.58-2.1-10.34-10.8-8.55-19.8,1.88-9.51,9.21-16,16.33-14.47s11.37,10.63,9.51,20-9.22,16-16.35,14.47C187,172.32,186.67,172.24,186.36,172.14Zm8.26-32.42a7.27,7.27,0,0,0-.8-.22c-6.26-1.35-12.74,4.56-14.45,13.18s1.95,16.73,8.26,18.08,12.74-4.56,14.45-13.18C203.69,149.41,200.42,141.57,194.62,139.72Z"/>
          </g>
          <path class="cls-12" d="M186.64,181a19.14,19.14,0,0,1-5.11-.69c-6.08-1.65-11-6.11-13.82-12.55a32.23,32.23,0,0,1-1.24-21.36c3.52-12.9,14.06-22.26,25.07-22.26a19.54,19.54,0,0,1,5.11.68c6.08,1.66,11,6.12,13.82,12.56a32.23,32.23,0,0,1,1.24,21.36C208.19,171.65,197.65,181,186.64,181Zm4.9-55.33c-10.34,0-20.26,8.89-23.6,21.13a30.62,30.62,0,0,0,1.17,20.34c2.64,6,7.2,10.17,12.82,11.7a17.82,17.82,0,0,0,4.71.63c10.34,0,20.26-8.89,23.6-21.13A30.62,30.62,0,0,0,209.07,138c-2.65-6-7.2-10.17-12.82-11.7A17.82,17.82,0,0,0,191.54,125.68Z"/>
        </g>
        <path class="cls-4" d="M206.72,122c-13.08-14.77-27.59-2.74-28.2-2.22a13.17,13.17,0,0,1,6.71-5.34,19.42,19.42,0,0,1,15.05.61C202.81,116.27,206.72,122,206.72,122Z"/>
        <g>
          <path class="cls-17" d="M219.87,109.35s-12-15-36.13-12.47C190.61,85.42,209.18,83.9,219.87,109.35Z"/>
          <path class="cls-12" d="M222.7,114.1l-3.42-4.28c-.1-.12-10.21-12.47-30.1-12.47a51.24,51.24,0,0,0-5.36.29l-1.53.16.79-1.32a16.54,16.54,0,0,1,14.18-8.28c9.25,0,17.75,7.6,23.32,20.85ZM189.18,95.82a43,43,0,0,1,28.25,10.05C212.19,95.55,205,89.73,197.26,89.73a14.89,14.89,0,0,0-12,6.24C186.57,95.87,187.89,95.82,189.18,95.82Z"/>
        </g>
        <path class="cls-4" d="M122,231.74l-.29-1.5c.31-.06,32-6.52,50.74-26.71l1.12,1C154.49,225.13,122.36,231.68,122,231.74Z"/>
        <g>
          <path class="cls-18" d="M173,204.11c-9.72,10.42-22.71,17.18-33.17,21.32-2.9,8.46-10.15,30.09-8.51,30.5,2,.51,21.38-13.49,32.57-26.46S179,209.11,179,209.11Z"/>
          <path class="cls-19" d="M173,204.11a79.27,79.27,0,0,1-18.74,14.45,41.86,41.86,0,0,0-2.86,23.23,127.81,127.81,0,0,0,12.49-12.32c11.2-13,15.12-20.36,15.12-20.36Z"/>
          <g>
            <path class="cls-20" d="M163.88,229.47c1.56-1.81,3-3.5,4.25-5.08-4.84-1.34-13.08-2.44-20.66,2.19-11.66,7.13-16.16,29.35-16.16,29.35C133.35,256.44,152.69,242.44,163.88,229.47Z"/>
            <path class="cls-21" d="M156.42,223.46c1.31,9.58-5.86,15.4-12.72,21.28-3.46,2.07-7,6.09-11.11,6.22-.87,3-1.28,5-1.28,5,2,.51,21.38-13.49,32.57-26.46,1.56-1.81,3-3.5,4.25-5.08A30,30,0,0,0,156.42,223.46Z"/>
            <path class="cls-22" d="M131.43,256.71h0a1,1,0,0,1-.3,0l-.71-.17.14-.72c.19-.92,4.7-22.63,16.51-29.85a24.15,24.15,0,0,1,12.78-3.46,31.83,31.83,0,0,1,8.48,1.19l1.13.31-.74.9c-1.4,1.73-2.79,3.4-4.26,5.09C153.46,242.72,134.4,256.71,131.43,256.71ZM159.85,224a22.62,22.62,0,0,0-12,3.24c-9.72,5.94-14.41,23-15.54,27.66,4.32-2,20.62-13.92,31-25.92,1.19-1.38,2.33-2.75,3.48-4.14A29.85,29.85,0,0,0,159.85,224Z"/>
          </g>
          <path class="cls-4" d="M131.43,256.71h0a1,1,0,0,1-.3,0,1,1,0,0,1-.63-.5c-.31-.56-1.25-2.29,8.6-31l.12-.33.32-.13C149.07,221,162,214.62,171.9,204l.51-.45,7.55,5.39-.29.55c-.16.3-4.08,7.6-15.21,20.49S134.4,256.71,131.43,256.71Zm9-30.7c-6.32,18.45-8.56,27-8.61,29.09,3.36-1.16,20.67-13.59,31.49-26.13,9.32-10.8,13.6-17.77,14.71-19.68l-5-4.14C163.11,215.57,149.93,222.22,140.43,226Z"/>
        </g>
        <path class="cls-4" d="M24.48,42.56l-.38-1.48a26.58,26.58,0,0,0,9.12-4.21C33.12,37,30.68,41,24.48,42.56Z"/>
        <path class="cls-4" d="M38.71,84.52a17.74,17.74,0,0,1-10-3.36c.1,0,9.69,4.71,18.74,0l.65,1.38A22,22,0,0,1,38.71,84.52Z"/>
        <path class="cls-4" d="M29.76,115.75c.35.12,8.7,2.82,17.63-5.74l1.06,1.1C37.79,120.54,29.76,115.75,29.76,115.75Z"/>
        <path class="cls-4" d="M40.71,155.43c.12,0,11.51-2.78,16.32-17.37l1.45.48C53.39,154,40.71,155.43,40.71,155.43Z"/>
        <path class="cls-4" d="M75.79,181.38c0-.16,5.4-16.64-1.91-30.78l1.36-.7C82.85,164.62,75.79,181.38,75.79,181.38Z"/>
        <path class="cls-4" d="M121.13,182.24c0-.25,1.79-25.22-20-37.16l.73-1.34C124.54,156.16,121.13,182.24,121.13,182.24Z"/>
        <path class="cls-4" d="M154.88,137.67c-.07-.16-8-16.23-28.79-17.71l.11-1.53C147.86,120,154.88,137.67,154.88,137.67Z"/>
        <g>
          <path class="cls-2" d="M382.49,131.23c-7.89-14.76-16.29-34.61-33.85-40.46C299,75,281.46,95.6,265.43,107.06c-16.8,1.27-23.42,16.79-23.42,16.79l29.27,115.74c27.15,38.28,57,25,63.37,11.25s5.34-21.12,23.41-22.14,22.65-10.43,27.23-30,16-23.92,17.31-31.81S390.38,146,382.49,131.23Z"/>
          <path class="cls-7" d="M348.64,90.77C299,75,281.46,95.6,265.43,107.06c-11.25.85-17.93,8.09-21.12,12.78,3-1.56,13.46-11.06,12-.26,13.95-12.53,24-20.24,38.87-25.16,21.86-7.25,53.44-3.65,66.17,12.38,12.21,15.27,22.9,40.38,40.18,54.24-3.27-7.79-12.88-18.25-19.06-29.81C374.6,116.47,366.2,96.62,348.64,90.77Z"/>
          <path class="cls-3" d="M384.3,187.58c-3.93,13-5.63,33.23-24.27,35-6.33,1.85-14.14,1.87-18.51,6.87-6.11,5.09-8.59,14.87-12.22,19.34-5.84,7.19-16.25,11.07-25.07,8.34-9.69-3-18.42-10.3-24.9-17.9-3.82-4.47-11-14.43-11-14.43.41,10.22,1.78,19.79,11.26,25.76l.41-.45c24.5,24.9,48.94,13,54.63.71C341,237.1,340,229.72,358.06,228.7s22.65-10.43,27.23-30c4-17.33,13.47-22.72,16.48-29.19C394.59,173.53,387.67,179.59,384.3,187.58Z"/>
          <path class="cls-4" d="M310.2,265.49c-7.66,0-19.61-2.8-32.29-16.47-2.4-2.59-6-9.87-6-9.87,16.49,23.24,32.72,25.45,40.93,24.69,10.79-1,18.39-7.4,21.12-13.32,1.16-2.49,2.09-4.82,2.9-6.87,3.69-9.26,5.92-14.85,21.17-15.71,17.14-1,21.86-9.47,26.53-29.44,2.78-11.9,8.17-18.38,12.1-23.12,2.63-3.17,4.71-5.68,5.19-8.64.74-4.57-4.07-11.32-9.63-19.14a150.08,150.08,0,0,1-10.39-16c-.91-1.69-1.82-3.46-2.75-5.26-7.23-14-15.42-29.75-30.67-34.84-43.5-13.83-62,.44-76.84,11.91-2,1.51-3.83,2.95-5.69,4.28l-.17.12-.22,0c-16.14,1.22-22.7,16.18-22.76,16.33a18.67,18.67,0,0,1,5.4-10,27.55,27.55,0,0,1,17-7.87c1.79-1.28,3.58-2.66,5.47-4.12C285.76,90.5,304.6,76,348.88,90c15.85,5.28,24.18,21.38,31.54,35.59.93,1.79,1.84,3.55,2.74,5.24a151.67,151.67,0,0,0,10.29,15.85c5.76,8.09,10.74,15.07,9.9,20.26-.54,3.38-2.74,6-5.53,9.38-4.05,4.87-9.09,10.94-11.79,22.49-4.75,20.35-9.92,29.6-27.93,30.61-14.27.81-16.13,5.47-19.83,14.76-.82,2.07-1.76,4.41-2.93,6.94-2.92,6.32-11,13.16-22.37,14.2C312.13,265.44,311.2,265.49,310.2,265.49Z"/>
        </g>
        <path class="cls-4" d="M256.33,119.58a26.69,26.69,0,0,1,6-10.29,45,45,0,0,1,5.3-4.8l.93,1.21A54.2,54.2,0,0,0,256.33,119.58Z"/>
        <g>
          <path class="cls-23" d="M348.64,107c-14.25-9.16-40-5.43-60.06,12.23s-34.86,61-34.86,61l6.7-16.43s8.31,14,13.66,44.28,16,37.15,27.23,41.23,25.19,2.29,28.25-9.73S338,221.83,354,220.3c16.79-1.52,19.34-9.16,22.14-18.32s7.13-28.84,11.54-36C374.77,154.66,362.9,116.13,348.64,107Z"/>
          <path class="cls-24" d="M284.26,213.94c-2.32-28.7-5.52-35.91,3.65-61.36,8.14-21.38,37.07-41.15,56.41-33,16.6,6.84,31.47,38,42.54,45.6-12.58-12.13-24.26-49.24-38.22-58.21-14.25-9.16-40-5.43-60.06,12.23s-34.86,61-34.86,61l6.7-16.43s8.31,14,13.66,44.28,16,37.15,27.23,41.23c10.58,3.84,23.64,2.46,27.64-7.83C318.74,262.7,286.81,245.61,284.26,213.94Z"/>
          <path class="cls-4" d="M312.12,252a32.57,32.57,0,0,1-11.07-2c-11-4-22.2-10.52-27.72-41.81-4.4-24.94-10.88-38.87-12.92-42.83-3.74,8.67-5.91,14.94-6,15.1a55.36,55.36,0,0,1,4.16-14.75c6.14-14.37,16.81-35.94,29.48-47.12,19.25-17,45.47-22.26,61-12.29,7.83,5,14.88,18.6,21.71,31.72,5.93,11.41,11.54,22.19,17.4,27.31l.48.43-.33.54c-3.15,5.15-6.31,17-8.85,26.46-1,3.55-1.84,6.9-2.61,9.41-2.71,8.88-5.28,17.27-22.8,18.86-16.38,1.56-21,7.78-23.76,18.71a15.13,15.13,0,0,1-7.74,9.94A22.4,22.4,0,0,1,312.12,252ZM261.18,163.6c1,1.77,8.67,16.12,13.65,44.36,5.38,30.48,16.16,36.79,26.74,40.64,7.25,2.64,15,2.54,20.28-.24a13.48,13.48,0,0,0,7-9c2.95-11.61,7.82-18.21,25.1-19.86,16.5-1.5,18.81-9,21.48-17.78.76-2.49,1.65-5.83,2.6-9.37,2.48-9.27,5.54-20.74,8.69-26.3-5.89-5.46-11.43-16.09-17.28-27.34-6.73-12.94-13.69-26.32-21.18-31.14-15-9.61-40.38-4.38-59.14,12.16C277.39,130.08,267.39,149.5,261.18,163.6Z"/>
        </g>
        <g>
          <path class="cls-2" d="M158.57,173.31,180,186.37l23.27-3.48C185.16,170.42,158.57,173.31,158.57,173.31Z"/>
          <path class="cls-4" d="M204.17,183.52c-17.63-12.16-45.79-10.07-46.08-10A29,29,0,0,1,169.56,172c8.16.47,19.31,2,29,6.59C200.82,179.64,204.17,183.52,204.17,183.52Z"/>
        </g>
        <path class="cls-3" d="M172.77,219.07s20.89-4,23.65-6.49c0,0-2.41,9.37-29.41,14.53C167,227.11,171.21,221.35,172.77,219.07Z"/>
        <g>
          <path class="cls-12" d="M189,213.16c-5.77-.46-13.1-4.62-15.48-6.84a15.19,15.19,0,0,0-6.12-3.66c.06.07,4.19-1.44,12.3,5.19,3.3,2.7,11.82,4.83,16.68,4.23A19.43,19.43,0,0,1,189,213.16Z"/>
          <path class="cls-25" d="M196.42,212.58h0c-5.17,2-11,.48-16.13-1.69s-7.93-7.15-13.44-7.8c-4.24-.49-10.63,2.48-14.88,2.91-13,1.34-24.65.94-38.06-7.48-13-8.18-12.67,1-4.26,6.36A96.09,96.09,0,0,0,196.42,212.58Z"/>
        </g>
      </g>
    </g>
  </g>
</svg>
