<svg xmlns="http://www.w3.org/2000/svg" xmlns:xlink="http://www.w3.org/1999/xlink" viewBox="0 0 196.72 280.08"><defs><style>.cls-1{isolation:isolate;}.cls-2{opacity:0.3;}.cls-3{fill:#60833a;opacity:0.5;mix-blend-mode:multiply;}.cls-4{fill:url(#New_Gradient_Swatch_copy_25);}.cls-5{fill:#b1aeaf;}.cls-6{fill:#8e8e8e;}.cls-7{fill:#4f4f4f;}.cls-8{fill:#ffbbbe;}.cls-9{fill:#f99398;}.cls-10{fill:#eaeaea;}.cls-11{fill:#d0cecf;}.cls-12{fill:#353535;}.cls-13{fill:#fff;}.cls-14{fill:#d1d1d1;}.cls-15{fill:#320507;}.cls-16{fill:#494949;}.cls-17{fill:#ad6f44;}.cls-18{fill:#ffe9eb;}.cls-19{fill:#bf2c2c;}.cls-20{fill:#edd8c3;}.cls-21{fill:#d8b99e;}.cls-22{fill:#ddd;}.cls-23{fill:#bfbfbf;}.cls-24{fill:#b21414;}.cls-25{fill:#7f0000;}.cls-26{fill:#fca7a7;}.cls-27{fill:#f5eae9;}.cls-28{fill:#ef7a7a;}.cls-29{fill:#d83a3a;}.cls-30{fill:#7f7f7f;}.cls-31{fill:#f95858;}.cls-32{fill:#ffaeae;}.cls-33{fill:#ea3434;}</style><linearGradient id="New_Gradient_Swatch_copy_25" x1="74.4" y1="150.27" x2="68.85" y2="244.07" gradientUnits="userSpaceOnUse"><stop offset="0.02" stop-color="#749a23"/><stop offset="0.18" stop-color="#749a23"/><stop offset="0.19" stop-color="#719924"/><stop offset="0.27" stop-color="#53932a"/><stop offset="0.34" stop-color="#418e2f"/><stop offset="0.39" stop-color="#3a8d30"/><stop offset="0.41" stop-color="#328b32"/><stop offset="0.48" stop-color="#178438"/><stop offset="0.54" stop-color="#06803c"/><stop offset="0.59" stop-color="#007f3d"/><stop offset="0.69" stop-color="#006a2a"/><stop offset="0.78" stop-color="#005416"/><stop offset="0.86" stop-color="#005022"/><stop offset="1" stop-color="#004740"/></linearGradient></defs><g class="cls-1"><g id="Layer_1" data-name="Layer 1"><ellipse class="cls-2" cx="102.15" cy="251.35" rx="71.08" ry="19.76"/><path class="cls-3" d="M77.05,197.91c-1.78,0-4.14.06-6.5.18-4.57.19-8.68.74-9.75,1.84-.13.14-.09.25.16.37,4.46,2,13.44,1.47,19.54,1.2,2.21-.09,14.68-.3,14-2.13S80.62,197.84,77.05,197.91Z"/><path class="cls-3" d="M151,190.73c-1.51-1.43-10.63-.84-13.58-.74-1.24,0-4.12,0-6.51.23l-2,.09c-1.28.06-5.38.8-3.19,1.51,2.42.79,6.44.77,9.41.8,3.21,0,6.4-.12,9.53-.38a28.17,28.17,0,0,0,5.56-.72C150.77,191.32,151.29,191.05,151,190.73Z"/><path class="cls-4" d="M60.79,223.83c.93-2,7-3.06,6.78-.06.76-4,5.73.11,6.39,2.15,2.05-2.28,6.72-3.61,9.41-1.56-1.2-1.51-1.45-4.53.54-5.45-1.3.67-3.51,1.3-3.83-.5-2.75,3-8.12,1.63-6.77-2.82-1.6-.57-1.34-2.09-.29-3.1-2.1.66-6.79,2.71-7.87-.25a6.21,6.21,0,0,1-2.37,2.4l.68-.13a3.74,3.74,0,0,1,.9-.25,8.5,8.5,0,0,1-.9.25c-2,.85-3.14,3.3-1.35,4.3-2-.2-5.42.82-5.49,2.74C58.09,221.48,59.23,222.22,60.79,223.83Z"/><path d="M77.91,110.84a3.24,3.24,0,0,1-.44,0,6.91,6.91,0,0,1-5.34-3.88,14.8,14.8,0,0,1-1.63-8.37c.52-6.37,4.46-11.32,8.86-11,2.13.17,4,1.55,5.34,3.89a14.85,14.85,0,0,1,1.62,8.36C85.82,106,82.13,110.84,77.91,110.84Zm1-22.84c-4,0-7.51,4.66-8,10.61a14.36,14.36,0,0,0,1.58,8.12,6.51,6.51,0,0,0,5,3.68c4.16.34,7.91-4.43,8.41-10.58a14.31,14.31,0,0,0-1.57-8.13,6.54,6.54,0,0,0-5-3.68Z"/><path d="M78.13,105.82h-.26c-2.49-.2-4.28-3.32-4-7s2.55-6.43,5.06-6.23A4,4,0,0,1,82,94.84a8.4,8.4,0,0,1,.93,4.75C82.65,103.08,80.54,105.82,78.13,105.82ZM78.69,93c-2.2,0-4.13,2.57-4.39,5.86s1.34,6.34,3.61,6.52,4.34-2.45,4.62-5.85a8,8,0,0,0-.88-4.5,3.55,3.55,0,0,0-2.73-2Z"/><path d="M84,88.27A6,6,0,0,0,79.71,86a6.74,6.74,0,0,0-4.45,1.39L75,87.1a7.1,7.1,0,0,1,4.74-1.49A6.33,6.33,0,0,1,84.37,88Z"/><path class="cls-5" d="M119.59,30.57c-1.35.71-3.87,2.54-5.86,7.42s-5,18.08-8.14,27.67c1,.47,7.89,4.41,9.43,3.77,5.61-2.32,10.45-6.45,15.32-12.67C130.19,46.3,119.59,30.57,119.59,30.57Z"/><path class="cls-6" d="M112.1,43c-.23,2.3-.31,9.63,2.25,9.85,3.05.12,5.15-12,8.24-16.09,3,5.53,7.66,13.88,7.75,20-4.13,5.27-9.94,11.1-15.24,12.38-2.82.69-7.75-3.15-9.2-3.85C107.48,58.63,110.18,50.21,112.1,43Z"/><path class="cls-7" d="M114.59,69.71h0c-1.81,0-6.17-2.32-8.27-3.43-.38-.21-.67-.36-.82-.43l-.16-.08.06-.17c1.4-4.37,2.78-9.39,4.11-14.24,1.58-5.78,2.95-10.78,4-13.44,1.88-4.62,4.27-6.64,5.95-7.53l.17-.09.1.16c.11.15,10.64,15.9,10.78,26.3v.07l0,.06c-5,6.41-9.91,10.46-15.4,12.74A1.52,1.52,0,0,1,114.59,69.71Zm-8.75-4.15.67.35c1.91,1,6.37,3.39,8.08,3.39h0a.88.88,0,0,0,.35-.06C120.35,67,125.18,63,130.13,56.69,130,47,120.62,32.5,119.52,30.84c-1.61.9-3.83,2.88-5.6,7.23-1.07,2.64-2.5,7.87-4,13.4C108.59,56.26,107.23,61.22,105.84,65.56Z"/><path class="cls-8" d="M126.27,50.93c-2,4.29-7.77,9.55-13.42,12.67,3.23-4.23,9.47-15.21,9.73-22C123.69,44,126.27,50.93,126.27,50.93Z"/><path class="cls-9" d="M122.58,41.62c.32.7.78,1.8,1.26,3-.63,5.41-3.56,9.85-6.57,14,4.2-2.11,6.55-5.79,8.09-10,.53,1.38.91,2.4.91,2.4-2,4.29-7.77,9.55-13.42,12.67C116.08,59.37,122.32,48.39,122.58,41.62Z"/><path class="cls-7" d="M112.71,63.48c3.15-4.13,9.44-15.14,9.69-21.87l0-.74.31.67c1.1,2.37,3.67,9.25,3.69,9.32l0,.08,0,.08c-1.93,4.13-7.6,9.49-13.5,12.75l-.77.43Zm10-21.13c-.61,6.48-6,16.21-9.2,20.66,5.53-3.24,10.72-8.21,12.56-12.1C125.81,50.2,123.83,44.94,122.71,42.35Z"/><path class="cls-5" d="M118.8,31.27A12.6,12.6,0,0,1,124.39,29c3.17-.37,7,.56,10.19,5.07,4-1.49,10.45-2.27,14.91,6.24s6.23,16.2,9.39,24c2.9,7.22,6.67,10,6.31,12.4s-7.5,3.3-15.21.35-15.14-11-19.6-17.34c-6.19-8.86-9.46-22.45-9.46-22.45Z"/><path class="cls-10" d="M124.39,29c3.17-.37,7,.56,10.19,5.07,4-1.49,10.45-2.27,14.91,6.24s6.23,16.2,9.39,24a40.06,40.06,0,0,0,4.1,7.59c-7.84-9.79-8.23-18.34-15.21-31.66-3.79-6.23-8.21-5.94-10.94-5.19a79.73,79.73,0,0,1,6.46,10.82c-3.13-2.43-8.53-11.3-13.5-14.43-3.28-2.06-7-1.57-11-.4A19.82,19.82,0,0,1,124.39,29Z"/><path class="cls-6" d="M165.21,76.57c0,.06,0,.12,0,.18-.35,2.4-7.5,3.3-15.21.35s-15.14-11-19.6-17.34c-5.23-7.48-8.38-18.34-9.23-21.53C130.51,58.14,147.42,78.26,165.21,76.57Z"/><path class="cls-7" d="M141.5,43.4s-3.45-5-7.35-10.21l-.28.23C137.77,38.63,141.5,43.4,141.5,43.4Z"/><path class="cls-7" d="M162.86,78.74a5.43,5.43,0,0,0,1.49-.62,2,2,0,0,0,1-1.34c.19-1.28-.68-2.59-2-4.57A41.88,41.88,0,0,1,159,64.28c-1.12-2.79-2.09-5.62-3-8.35a105.65,105.65,0,0,0-6.37-15.72c-4.29-8.19-10.5-8-15-6.37-3.44-4.75-7.48-5.36-10.28-5A13.33,13.33,0,0,0,118.61,31l.19.32a13.1,13.1,0,0,1,5.61-2.09c2.72-.32,6.67.29,10,5l.08.11.13,0c4.37-1.63,10.47-1.88,14.68,6.15a105.53,105.53,0,0,1,6.35,15.66c.94,2.74,1.91,5.57,3,8.37a41.62,41.62,0,0,0,4.38,8c1.26,1.91,2.09,3.16,1.93,4.29a1.64,1.64,0,0,1-.85,1.09c-2.21,1.38-8.1,1.43-14.13-.88-9.42-3.6-17.32-14.13-19.52-17.27a58.38,58.38,0,0,1-5.65-10.72,96.93,96.93,0,0,1-4-11.62,67.26,67.26,0,0,0,3.65,11.81,57.52,57.52,0,0,0,5.67,10.75c2.21,3.16,10.17,13.77,19.69,17.41C155.17,79.28,160.05,79.51,162.86,78.74Z"/><path class="cls-5" d="M81.6,74c-7.54-.82-22.48-8.78-31.26-21.52S37,26.39,36.22,22.27s-2.91-12-1.06-12.87,3.08.78,14,4.07S70.08,26.11,77.62,38.18,88.87,67.93,89.14,69.57C87.91,71.77,83.84,74.36,81.6,74Z"/><path class="cls-6" d="M86.52,72.23l.43-.31.15-.13c.15-.11.29-.23.43-.35l.11-.1a7.21,7.21,0,0,0,1.5-1.77c-.25-1.48-3.29-16-9.43-27.75,1.85,5.71,1.87,13.7-.87,16.87-4.36-6.35-8.42-13-12.73-19.83-5.35-8.63-11.52-16-21-20.15-2.88-1.23-6.8-3.08-8.45-6.37-.51,4.69,3.87,8.19,6,12.06A143.71,143.71,0,0,0,69.89,59.74c-11-3.86-25.62-21.14-32.69-33.86A106.43,106.43,0,0,0,50.34,52.44C59.12,65.18,74.06,73.14,81.6,74a6.78,6.78,0,0,0,4.15-1.22h0l.61-.39Z"/><path class="cls-10" d="M36.08,10.9c1.17-.83,7.84,3,11.75,4.17C63.71,20,69,29.69,78,39.69a9.9,9.9,0,0,0,1.42,1.68c-.59-1.09-1.19-2.17-1.84-3.19C70.08,26.11,60,16.76,49.14,13.47S37,8.53,35.16,9.4s.24,8.76,1.06,12.87c.14.69.38,1.63.72,2.77C37,20.32,34.89,12.1,36.08,10.9Z"/><path class="cls-7" d="M40,17.72a6.61,6.61,0,0,1-3-4.16,7.85,7.85,0,0,0,3.23,3.8Z"/><path class="cls-8" d="M40,17.48c8,3.8,13.78,8.74,20.26,20.15s12.65,26,25.29,33.31c-5.76.72-17-3.08-27.66-14.29S39.65,28.44,40,17.48Z"/><path class="cls-9" d="M60.25,37.63c-6.37-11.21-12-16.17-19.84-20,12.1,10.44,19.85,25.94,26.93,40.1-13.35-7-20.7-20.07-26.66-33.21,2.07,10.35,8.62,23.08,17.2,32.08,10.7,11.21,21.9,15,27.66,14.29C72.9,63.64,66.73,49,60.25,37.63Z"/><path class="cls-7" d="M84.11,71.23c-5.81,0-16.21-3.78-26.38-14.44-10.58-11.09-18.3-28-17.94-39.32v-.31l.28.13c7.49,3.55,13.5,8.18,20.35,20.24,1,1.86,2.08,3.77,3.17,5.79,5.39,10,11.51,21.36,22,27.44l.53.31-.6.08A13.54,13.54,0,0,1,84.11,71.23ZM40.19,17.8C40,29,47.61,45.59,58,56.51,68.11,67.07,78.38,70.82,84.11,70.82l.78,0c-10.3-6.21-16.33-17.4-21.65-27.29-1.09-2-2.12-3.92-3.17-5.78C53.36,25.92,47.47,21.3,40.19,17.8Z"/><path class="cls-7" d="M82.1,74.21a3.1,3.1,0,0,1-.54,0C74.08,73.35,59,65.38,50.17,52.55,41.54,40,36.91,26.76,36,22.31c-.13-.64-.29-1.37-.46-2.16-1.2-5.54-2.07-10.19-.49-10.93,1.16-.55,2.06-.19,4.68.81,1.92.73,4.81,1.84,9.45,3.24,10.41,3.14,20.57,12,28.6,24.8S89.31,69.36,89.34,69.54v.07l0,.06C88.2,71.67,84.57,74.21,82.1,74.21ZM36.15,9.38a2,2,0,0,0-.9.21c-1.42.67-.13,6.57.71,10.47.17.79.33,1.53.46,2.17.89,4.42,5.5,17.6,14.09,30.09C59.27,65.05,74.21,73,81.62,73.75a2.52,2.52,0,0,0,.48,0c2.25,0,5.72-2.38,6.82-4.25-.24-1.27-3.81-19-11.47-31.25-8-12.77-18.05-21.51-28.37-24.63-4.65-1.4-7.55-2.51-9.47-3.24A11.84,11.84,0,0,0,36.15,9.38Z"/><path class="cls-5" d="M125.35,75.47C117.39,65,104.86,63.71,97.77,64c-7.3.33-19.64.89-27.61,11.39-7.75,10.22-9.95,24.92-9.32,34,5.66,1.68,35.85,1.4,36.9,1.39v0s31.17.32,36.93-1.39C135.3,100.38,133.09,85.68,125.35,75.47Z"/><path class="cls-11" d="M85.59,95.1c-.82,7.7-5.72,13.5-10.94,12.94s-8.77-7.26-8-15S73.05,74.14,78.27,74.7,86.42,87.4,85.59,95.1Z"/><path class="cls-12" d="M81.34,84.4a6.09,6.09,0,0,0-4.09-1.73,4.73,4.73,0,0,0-3.77,1.54,4.16,4.16,0,0,1,3.78-1.95A5.25,5.25,0,0,1,81.34,84.4Z"/><path d="M84.3,96.37c-.69,6.43-5,11.25-9.53,10.76s-7.72-6.1-7-12.53,5-11.25,9.53-10.76S85,89.94,84.3,96.37Z"/><path class="cls-13" d="M83.78,96.77c-.66,6.18-4.68,10.83-9,10.36s-7.25-5.84-6.58-12,4.68-10.83,9-10.37S84.44,90.58,83.78,96.77Z"/><path class="cls-14" d="M68.36,94c-.06.37-.11.74-.15,1.12-.67,6.19,2.28,11.57,6.58,12s8.33-4.18,9-10.36c0-.44.08-.86.09-1.29C79.35,99.69,71.29,99.12,68.36,94Z"/><path class="cls-15" d="M80.24,97.13c-.38,3.53-2.68,6.19-5.14,5.92S71,99.71,71.34,96.18,74,90,76.47,90.25,80.62,93.6,80.24,97.13Z"/><path d="M78.71,97.56c-.24,2.32-1.76,4.06-3.37,3.89s-2.72-2.2-2.48-4.52,1.76-4.07,3.38-3.89S79,95.23,78.71,97.56Z"/><path class="cls-13" d="M77.49,94.72A1.75,1.75,0,1,1,75.74,93,1.73,1.73,0,0,1,77.49,94.72Z"/><path class="cls-13" d="M78.19,99.32a.67.67,0,1,1-.67-.65A.66.66,0,0,1,78.19,99.32Z"/><path d="M75.44,103.28l-.36,0c-2.56-.28-4.33-3.46-3.94-7.11s2.78-6.38,5.36-6.1,4.33,3.46,3.94,7.1C80.08,100.59,77.88,103.28,75.44,103.28Zm.7-12.84c-2.23,0-4.25,2.53-4.6,5.76-.36,3.41,1.25,6.4,3.59,6.65s4.54-2.36,4.9-5.74-1.24-6.4-3.58-6.65Z"/><path d="M75.38,107.37l-.61,0a7,7,0,0,1-5.31-4A14.23,14.23,0,0,1,68,95.08c.64-5.94,4.42-10.58,8.6-10.58a6.08,6.08,0,0,1,.61,0,7.06,7.06,0,0,1,5.32,4A14.35,14.35,0,0,1,84,96.79C83.35,102.72,79.57,107.37,75.38,107.37ZM76.6,84.91c-4,0-7.58,4.48-8.19,10.21a13.87,13.87,0,0,0,1.41,8,6.64,6.64,0,0,0,5,3.76l.56,0c4,0,7.58-4.49,8.2-10.21a13.93,13.93,0,0,0-1.41-8,6.64,6.64,0,0,0-5-3.76A5.44,5.44,0,0,0,76.6,84.91Z"/><path class="cls-11" d="M107.83,95.1c.82,7.7,5.72,13.5,10.94,12.94s8.78-7.26,8-15-5.86-18.94-11.08-18.38S107,87.4,107.83,95.1Z"/><path class="cls-12" d="M112.08,84.4a6.09,6.09,0,0,1,4.09-1.73,4.71,4.71,0,0,1,3.77,1.54,4.16,4.16,0,0,0-3.78-1.95A5.25,5.25,0,0,0,112.08,84.4Z"/><path d="M109.12,96.37c.69,6.43,4.95,11.25,9.53,10.76s7.72-6.1,7-12.53-5-11.25-9.53-10.76S108.43,89.94,109.12,96.37Z"/><path class="cls-13" d="M109.64,96.77c.66,6.18,4.69,10.83,9,10.36s7.25-5.84,6.59-12-4.69-10.83-9-10.37S109,90.58,109.64,96.77Z"/><path class="cls-14" d="M125.06,94c.06.37.12.74.16,1.12.66,6.19-2.29,11.57-6.59,12s-8.33-4.18-9-10.36c0-.44-.07-.86-.08-1.29C114.07,99.69,122.13,99.12,125.06,94Z"/><path class="cls-15" d="M113.18,97.13c.38,3.53,2.68,6.19,5.14,5.92s4.14-3.34,3.76-6.87S119.41,90,117,90.25,112.81,93.6,113.18,97.13Z"/><path d="M114.71,97.56c.25,2.32,1.76,4.06,3.37,3.89s2.73-2.2,2.48-4.52-1.76-4.07-3.38-3.89S114.46,95.23,114.71,97.56Z"/><path class="cls-13" d="M115.42,94.72A1.75,1.75,0,1,0,117.17,93,1.73,1.73,0,0,0,115.42,94.72Z"/><path class="cls-13" d="M119.06,98.81a.67.67,0,1,0,.67-.65A.66.66,0,0,0,119.06,98.81Z"/><path d="M113,97.15c-.39-3.64,1.38-6.83,4-7.1s5,2.5,5.36,6.1-1.38,6.83-4,7.11l-.36,0C115.54,103.28,113.35,100.59,113,97.15Zm4-6.69c-2.34.25-4,3.23-3.58,6.65s2.56,6,4.91,5.74,3.94-3.24,3.58-6.65c-.35-3.23-2.37-5.76-4.6-5.76Z"/><path d="M109.44,96.79a14.26,14.26,0,0,1,1.45-8.29,7.06,7.06,0,0,1,5.32-4c.2,0,.41,0,.61,0,4.19,0,8,4.64,8.6,10.58a14.15,14.15,0,0,1-1.46,8.28,7,7,0,0,1-5.31,4c-.2,0-.41,0-.61,0C113.85,107.37,110.07,102.72,109.44,96.79Zm6.81-11.85a6.64,6.64,0,0,0-5,3.76,13.93,13.93,0,0,0-1.41,8c.62,5.72,4.22,10.21,8.2,10.21a5.44,5.44,0,0,0,.57,0,6.62,6.62,0,0,0,5-3.76,13.79,13.79,0,0,0,1.41-8c-.61-5.73-4.21-10.21-8.19-10.21A5.44,5.44,0,0,0,116.25,84.94Z"/><path class="cls-6" d="M125.35,75.47A27.27,27.27,0,0,0,114.67,67c10.56,8.75,15.87,23.67,12.38,43.37a42,42,0,0,0,7.62-.91C135.3,100.38,133.09,85.68,125.35,75.47Z"/><path class="cls-7" d="M103.55,111.1h0c-3.45,0-5.79,0-5.81,0h-.18v0c-.65,0-2.73,0-5.6,0-9.85,0-27-.18-31.17-1.42l-.12,0v-.16C60,99.5,62.6,85.07,70,75.28c8-10.58,20.36-11.13,27.73-11.47.63,0,1.26,0,1.9,0,6.37,0,18.19,1.5,25.82,11.56,7.43,9.79,10.06,24.21,9.37,34.16v.15l-.13,0C130.55,110.91,113.4,111.1,103.55,111.1Zm-5.63-.45c.61,0,2.72,0,5.63,0,9.74,0,26.61-.18,31-1.37.65-9.85-2-24-9.29-33.69C117.68,65.68,106,64.2,99.66,64.2c-.63,0-1.26,0-1.88,0-7.32.33-19.56.88-27.49,11.33C63,85.22,60.36,99.4,61,109.25c4.33,1.2,21.21,1.38,30.95,1.38,3.27,0,5.51,0,5.78,0h.18Z"/><path class="cls-16" d="M72.13,80.15c1.57-5.22,6.33-6,8.19-4.67.73.67.57,2.35.38,3.27C79,76.39,75.52,77,72.13,80.15Z"/><path d="M71.72,80.81l.21-.72c1.2-4,4.16-5.39,6.34-5.39a3.76,3.76,0,0,1,2.17.61c.91.85.59,2.88.46,3.48l-.09.46-.27-.38a3.18,3.18,0,0,0-2.68-1.34c-1.67,0-3.65,1-5.59,2.77Zm6.55-5.7a6.28,6.28,0,0,0-5.69,4.38,8.69,8.69,0,0,1,5.28-2.38,3.58,3.58,0,0,1,2.72,1.16c.14-1,.11-2.17-.4-2.64A3.32,3.32,0,0,0,78.27,75.11Z"/><path class="cls-16" d="M121.78,80.15c-1.57-5.22-6.33-6-8.19-4.67-.73.67-.57,2.35-.38,3.27C114.9,76.39,118.39,77,121.78,80.15Z"/><path d="M121.64,80.3c-1.94-1.79-3.92-2.77-5.59-2.77a3.18,3.18,0,0,0-2.68,1.34l-.27.38-.09-.46c-.13-.6-.45-2.63.46-3.48a3.78,3.78,0,0,1,2.17-.61c2.18,0,5.14,1.41,6.34,5.39l.21.72Zm-7.91-4.67c-.51.47-.54,1.63-.4,2.64a3.58,3.58,0,0,1,2.72-1.16,8.69,8.69,0,0,1,5.28,2.38,6.29,6.29,0,0,0-5.69-4.38A3.32,3.32,0,0,0,113.73,75.63Z"/><path class="cls-17" d="M87.21,142.35a9.58,9.58,0,0,1-2.37-5,11.55,11.55,0,0,0,2.66,4.77Z"/><path class="cls-17" d="M106.06,142.37l-.26-.31a9.41,9.41,0,0,0,3.08-4.86A8.23,8.23,0,0,1,106.06,142.37Z"/><path class="cls-5" d="M96.82,59.43c6.77.15,12.16,3.39,15,7.86s.93,9-1,10.18c-.77,2.57-1.77,6.89-7.92,9.26-2.57,1.8-4.88,4.52-5.14,6.27-1.85-3.34-3.24-4.58-4.78-5.61-3.09-.1-6.94-2.16-8.33-8.27a8.15,8.15,0,0,1-3.39-11.05C83.69,62.92,88.2,59.74,96.82,59.43Z"/><path class="cls-6" d="M111.86,67.29a16.3,16.3,0,0,0-4.45-4.55,17.56,17.56,0,0,1,3.53,9c-.82-2.06-2.88-3.29-4.53-4.12,1.24,4.12,4.12,8.64.83,12.34-.45-3.56-1.65-5.35-3.7-7,2.44,11.45-4.19,11.76-5.79,15.9-2.21-3.7-6.22-3.85-7.38-11.38-.77,2.47-1.31,4.28-.9,6.34C85.77,81,85.85,73,87.5,68.48c-3.29.82-3.71,4.11-4.94,6.58-.59-1.38-1.45-2.65-2.11-4a8.1,8.1,0,0,0,4.27,8c1.39,6.11,5.24,8.17,8.33,8.27,1.54,1,2.93,2.27,4.78,5.61.26-1.75,2.57-4.47,5.14-6.27,6.15-2.37,7.15-6.69,7.92-9.26C112.79,76.29,114.74,71.77,111.86,67.29Z"/><path class="cls-7" d="M84.68,79.81A12.46,12.46,0,0,1,86,71.17a13.78,13.78,0,0,0-.92,8.54Z"/><path class="cls-7" d="M93.14,87.7a6.51,6.51,0,0,1-2.59-5.87,7.11,7.11,0,0,0,2.83,5.54Z"/><path class="cls-7" d="M102.61,87.24l-.27-.31A8.93,8.93,0,0,0,105,76.31,8.76,8.76,0,0,1,102.61,87.24Z"/><path class="cls-7" d="M111,78l-.4-.09c1-4.35-2.22-8-2.26-8S112,73.43,111,78Z"/><path class="cls-7" d="M97.94,93.63l-.29-.53c-1.74-3.14-3-4.4-4.67-5.5-1.62-.07-6.71-.9-8.44-8.35A8.36,8.36,0,0,1,81.14,68c2.61-5.69,7.59-8.48,15.67-8.77,6.42.15,12.11,3.12,15.23,8a8.76,8.76,0,0,1,1.29,6.67,6.27,6.27,0,0,1-2.27,3.75l-.09.32c-.79,2.67-2,6.7-7.9,9-2.59,1.82-4.8,4.5-5,6.12Zm-1.13-34c-7.89.29-12.76,3-15.3,8.53a8,8,0,0,0,3.31,10.78l.08,0,0,.09c1.66,7.34,6.65,8.07,8.13,8.12h.06l0,0a13.75,13.75,0,0,1,4.59,5.22c.56-1.74,2.64-4.16,5.1-5.88l.05,0c5.75-2.21,6.91-6.13,7.68-8.73l.13-.46.07,0a5.8,5.8,0,0,0,2.15-3.54,8.39,8.39,0,0,0-1.24-6.36C108.65,62.68,103.09,59.78,96.81,59.63Z"/><path class="cls-5" d="M21.15,101.74c-.44-4.73-1.48-12.29,4.67-12.1,6.82.21,6.32,10.09,5.33,14.1C29.39,103.33,21.15,101.74,21.15,101.74Z"/><path class="cls-6" d="M24,89.87c-4.05,1.31-3.2,7.69-2.81,11.87l5.3,1C26.45,95.15,21.48,92.89,24,89.87Z"/><path class="cls-8" d="M28.46,94.6A2.22,2.22,0,0,1,26.38,97a2.26,2.26,0,0,1-2.48-2A2.24,2.24,0,0,1,26,92.59,2.26,2.26,0,0,1,28.46,94.6Z"/><path class="cls-18" d="M28.29,95A2.16,2.16,0,0,0,26,92.59a2.19,2.19,0,0,0-1.82,1.56C25.65,92.51,27.93,93.17,28.29,95Z"/><path class="cls-9" d="M24.07,94a2.27,2.27,0,1,0,4.38,1.11C27.2,96.65,24.29,95.61,24.07,94Z"/><path class="cls-19" d="M26.4,97.21A2.48,2.48,0,0,1,23.68,95,2.46,2.46,0,0,1,26,92.38a2.48,2.48,0,0,1,2.72,2.2A2.44,2.44,0,0,1,26.4,97.21ZM26,92.8A2,2,0,0,0,24.12,95a2.06,2.06,0,0,0,2.25,1.82,2,2,0,0,0,1.88-2.17A2.06,2.06,0,0,0,26,92.8Z"/><path class="cls-10" d="M26.18,89.67c4.69,2.06,4.87,8.64,3.61,13.77l1.36.3C32.12,99.81,32.61,90.21,26.18,89.67Z"/><path class="cls-7" d="M31.31,104l-.21,0c-1.74-.4-9.91-2-10-2l-.16,0-.09-.86c-.32-3.41-.78-8.09,1.33-10.32a4.55,4.55,0,0,1,3.64-1.3,5.29,5.29,0,0,1,4.2,2c2.45,3.09,2.14,9.06,1.33,12.32Zm-10-2.43c1.12.22,7.69,1.49,9.63,1.92.75-3.22,1-8.84-1.3-11.75a4.86,4.86,0,0,0-3.86-1.88A4.1,4.1,0,0,0,22.51,91c-2,2.09-1.53,6.65-1.21,10Z"/><path class="cls-5" d="M23.79,101.74c-.17-6.32-3.12-10.84-7-9.88s-4,9.88-1.79,13.49C16.48,106.94,23.79,101.74,23.79,101.74Z"/><path class="cls-6" d="M16.73,91.88c-3.82,1-3.92,9.87-1.73,13.47.78.84,3.17-.21,5.27-1.39C17.56,100.69,14.3,95.12,16.73,91.88Z"/><path class="cls-8" d="M20,96.64a2.22,2.22,0,0,1-1.87,2.55,2.29,2.29,0,0,1-2.65-1.8,2.23,2.23,0,0,1,1.87-2.56A2.28,2.28,0,0,1,20,96.64Z"/><path class="cls-18" d="M19.9,97a2.18,2.18,0,0,0-2.51-2.18,2.15,2.15,0,0,0-1.68,1.7C17.06,94.78,19.38,95.25,19.9,97Z"/><path class="cls-9" d="M15.61,96.34a2.17,2.17,0,0,0-.09,1,2.29,2.29,0,0,0,2.65,1.8,2.23,2.23,0,0,0,1.9-2.08C19,98.77,16,98,15.61,96.34Z"/><path class="cls-19" d="M18.21,99.4a2.5,2.5,0,0,1-2.9-2,2.43,2.43,0,0,1,2-2.8,2.51,2.51,0,0,1,2.9,2A2.44,2.44,0,0,1,18.21,99.4ZM17.43,95a2,2,0,0,0-1.69,2.31A2.07,2.07,0,0,0,18.13,99a2,2,0,0,0,1.69-2.32A2.06,2.06,0,0,0,17.43,95Z"/><path class="cls-10" d="M17.41,91.75c3.91,1.54,4.91,6.27,5.67,10.47l.71-.48C23.63,95.76,21,91.4,17.41,91.75Z"/><path class="cls-7" d="M15.87,105.86h0a1.36,1.36,0,0,1-1-.37l0,0c-1.68-2.77-2-8.16-.63-11.3a4,4,0,0,1,2.55-2.51,4.55,4.55,0,0,1,1.08-.13c3.44,0,6,4.29,6.2,10.21v.11l-.09.07C23.69,102.07,18.34,105.86,15.87,105.86Zm-.69-.64a1,1,0,0,0,.69.22c2.15,0,7-3.3,7.69-3.81C23.39,96,21,91.94,17.81,91.94a4.15,4.15,0,0,0-1,.12,3.51,3.51,0,0,0-2.25,2.26C13.3,97.3,13.59,102.59,15.18,105.22Z"/><path class="cls-5" d="M66.2,165.47c-9.12-3.19-22.2-16.84-26.81-22.68-6.21-5.1-11.92-15.08-14.39-22.68-6.54-2.39-10.08-3.72-13.15-8.11s-3.66-10.48-.95-11.75,5.25,1.86,6.13,4.09c1.87-2.71,8.08-6.91,13.73-2.44.28-3.14,1.43-8.71,6.38-7.23s4.3,11.46-.17,17.9a92.55,92.55,0,0,1,15.38,16.11C60,131,77,135.73,82.93,143.06,77.73,148.79,66.2,165.47,66.2,165.47Z"/><path class="cls-10" d="M16.3,107.49a10.76,10.76,0,0,1,4.62-5.26c2.91-1.58,7.69-2.55,11.78,2.28-2.48-4.72-7.8-5.62-12-3.44C18.44,102.22,16.28,104.31,16.3,107.49Z"/><path class="cls-6" d="M45.76,145.71a16.85,16.85,0,0,0,10.11-.85c-13.18-1.7-21.53-12.32-27.69-22.94,2.2-.43,4.4-.85,6.16-2.13-12.59-.38-23.3-8.64-23.92-19.24C8.27,102.29,9,107.89,11.85,112c3.07,4.39,6.61,5.72,13.15,8.11,2.47,7.6,8.18,17.58,14.39,22.68,4.61,5.84,17.69,19.49,26.81,22.68,0,0,6.75-9.77,12.25-16.92C66.86,157.32,55.55,153.72,45.76,145.71Z"/><path class="cls-8" d="M15,104.69a2.23,2.23,0,0,1-1.87,2.56,2.29,2.29,0,0,1-2.65-1.81,2.24,2.24,0,0,1,1.87-2.56A2.3,2.3,0,0,1,15,104.69Z"/><path class="cls-18" d="M14.81,105.07a2.19,2.19,0,0,0-2.51-2.19,2.17,2.17,0,0,0-1.68,1.71C12,102.83,14.29,103.31,14.81,105.07Z"/><path class="cls-9" d="M10.52,104.4a2.14,2.14,0,0,0-.09,1,2.29,2.29,0,0,0,2.65,1.81,2.25,2.25,0,0,0,1.9-2.09C13.86,106.83,10.87,106,10.52,104.4Z"/><path class="cls-19" d="M13.11,107.46a2.49,2.49,0,0,1-2.89-2,2.42,2.42,0,0,1,2-2.8,2.51,2.51,0,0,1,2.9,2A2.44,2.44,0,0,1,13.11,107.46Zm-.77-4.37a2,2,0,0,0-1.69,2.32A2.06,2.06,0,0,0,13,107a2,2,0,0,0,1.69-2.31A2.07,2.07,0,0,0,12.34,103.09Z"/><path class="cls-8" d="M31,109.39c0,2.38-2.21,4.31-4.95,4.31s-4.94-1.93-4.94-4.31,2.21-4.32,4.94-4.32S31,107,31,109.39Z"/><path class="cls-18" d="M30.87,109.1c-.17-2.46-2.27-4-4.78-4a5,5,0,0,0-4.44,2.44C25.31,105.07,28.82,105.19,30.87,109.1Z"/><path class="cls-9" d="M26.64,111.53c-2.31,0-5.46-1.69-4.77-4.38a3.93,3.93,0,0,0-.72,2.24c0,2.38,2.21,4.31,4.94,4.31S31,111.77,31,109.39a3.42,3.42,0,0,0-.09-.79C30.74,110.12,29.58,111.53,26.64,111.53Z"/><path class="cls-19" d="M26.09,113.92c-2.84,0-5.16-2-5.16-4.53s2.32-4.53,5.16-4.53,5.17,2,5.17,4.53S28.94,113.92,26.09,113.92Zm0-8.64c-2.6,0-4.72,1.84-4.72,4.11s2.12,4.1,4.72,4.1,4.73-1.84,4.73-4.1S28.7,105.28,26.09,105.28Z"/><path class="cls-8" d="M37.76,99.54a2.29,2.29,0,1,1-2.29-2.21A2.25,2.25,0,0,1,37.76,99.54Z"/><path class="cls-18" d="M37.56,99.89a2.15,2.15,0,0,0-2.09-2.56,2.2,2.2,0,0,0-2,1.4C35.15,97.22,37.36,98.07,37.56,99.89Z"/><path class="cls-9" d="M33.44,98.53a2.13,2.13,0,0,0-.26,1,2.25,2.25,0,0,0,2.29,2.22A2.27,2.27,0,0,0,37.71,100C36.31,101.47,33.51,100.2,33.44,98.53Z"/><path class="cls-19" d="M35.47,102A2.43,2.43,0,1,1,38,99.54,2.48,2.48,0,0,1,35.47,102Zm0-4.43a2,2,0,1,0,2.07,2A2,2,0,0,0,35.47,97.54Z"/><path class="cls-7" d="M38.62,142.42l.28-.33c2.93,2.3,8,2.9,8,2.91S41.65,144.8,38.62,142.42Z"/><path class="cls-7" d="M54,134.34A17.27,17.27,0,0,0,51.61,128l.37-.23A13.89,13.89,0,0,1,54,134.34Z"/><path class="cls-7" d="M24.49,120.15l.11-.41a18.44,18.44,0,0,0,4.22.62A10.25,10.25,0,0,1,24.49,120.15Z"/><path class="cls-7" d="M35,114.24A9.79,9.79,0,0,0,37.09,112l.37.23A6,6,0,0,1,35,114.24Z"/><path class="cls-7" d="M32.7,104.51a12,12,0,0,0-2.77-3l.25-.35A8.78,8.78,0,0,1,32.7,104.51Z"/><path class="cls-7" d="M16.3,107.49s-.24-2.54,1-3.9l.32.29A6.93,6.93,0,0,0,16.3,107.49Z"/><path class="cls-7" d="M66.28,165.72l-.16-.05c-9.23-3.23-22.32-16.95-26.89-22.73-6.28-5.17-12-15.29-14.41-22.67-6.45-2.35-10-3.68-13.15-8.15-2.18-3.1-3.22-7.27-2.49-9.9a3.18,3.18,0,0,1,1.62-2.16,3.24,3.24,0,0,1,1.38-.32c2.25,0,4.09,2.37,4.9,4.16a11.21,11.21,0,0,1,8.31-4.17,8.64,8.64,0,0,1,5.19,1.76c.31-2.89,1.37-7.28,5-7.28a5.62,5.62,0,0,1,1.61.26,4.74,4.74,0,0,1,3,3.14c1.44,3.93.16,10.31-3,14.92a92.87,92.87,0,0,1,15.22,16l.82.24c7.82,2.29,24.08,7.07,29.8,14.19l.11.13-.12.14c-5.13,5.66-16.61,22.22-16.72,22.39Zm-54.1-65.55a2.82,2.82,0,0,0-1.19.27,2.8,2.8,0,0,0-1.39,1.88c-.7,2.54.32,6.56,2.43,9.57,3.07,4.38,6.61,5.67,13,8l.1,0,0,.1c2.38,7.33,8.07,17.44,14.32,22.58l0,0c4.51,5.71,17.41,19.25,26.55,22.55,1.12-1.61,11.59-16.65,16.54-22.16-5.74-6.93-21.75-11.64-29.47-13.91l-1-.28,0-.06a91.26,91.26,0,0,0-15.34-16.06l-.15-.13.11-.16c3.08-4.45,4.41-10.9,3-14.7a4.26,4.26,0,0,0-2.75-2.87,5.07,5.07,0,0,0-1.48-.24c-3.45,0-4.37,4.56-4.61,7.27l0,.4-.32-.25a8.32,8.32,0,0,0-5.24-1.91,10.86,10.86,0,0,0-8.18,4.31l-.23.34-.15-.39C16.18,102.77,14.34,100.17,12.18,100.17Z"/><path class="cls-5" d="M168.11,103.37c.44-4.73,1.48-12.29-4.67-12.1-6.81.21-6.32,10.1-5.33,14.1C159.87,105,168.11,103.37,168.11,103.37Z"/><path class="cls-6" d="M165.31,91.51c4,1.3,3.19,7.68,2.8,11.86l-5.3,1C162.81,96.78,167.78,94.52,165.31,91.51Z"/><path class="cls-8" d="M160.8,96.23a2.23,2.23,0,0,0,2.08,2.4,2.22,2.22,0,1,0-2.08-2.4Z"/><path class="cls-18" d="M161,96.6a2.17,2.17,0,0,1,2.31-2.38,2.2,2.2,0,0,1,1.83,1.56C163.62,94.15,161.34,94.8,161,96.6Z"/><path class="cls-9" d="M165.19,95.59a2,2,0,0,1,.17,1,2.3,2.3,0,0,1-4.55.08C162.06,98.28,165,97.25,165.19,95.59Z"/><path class="cls-19" d="M160.58,96.21A2.48,2.48,0,0,1,163.3,94a2.46,2.46,0,0,1,2.28,2.63,2.49,2.49,0,0,1-2.72,2.21A2.46,2.46,0,0,1,160.58,96.21Zm.44,0a2,2,0,0,0,1.88,2.17A2,2,0,1,0,161,96.25Z"/><path class="cls-10" d="M163.08,91.3c-4.69,2.06-4.87,8.64-3.6,13.78l-1.37.29C157.14,101.44,156.65,91.85,163.08,91.3Z"/><path class="cls-7" d="M157.9,105.42c-.8-3.26-1.11-9.23,1.33-12.32a5.29,5.29,0,0,1,4.2-2,4.58,4.58,0,0,1,3.65,1.3c2.1,2.23,1.65,6.91,1.32,10.32l-.08.87-.17,0c-.08,0-8.25,1.59-10,2l-.21.05ZM168,102.64c.32-3.33.76-7.9-1.21-10a4.1,4.1,0,0,0-3.31-1.17,4.86,4.86,0,0,0-3.86,1.88c-2.3,2.91-2.05,8.54-1.3,11.75,1.94-.43,8.51-1.7,9.63-1.92Z"/><path class="cls-5" d="M165.48,103.37c.16-6.32,3.12-10.84,7-9.88s4,9.88,1.79,13.49C172.78,108.57,165.48,103.37,165.48,103.37Z"/><path class="cls-6" d="M172.53,93.51c3.82,1,3.92,9.88,1.73,13.47-.78.84-3.17-.21-5.26-1.39C171.7,102.32,175,96.75,172.53,93.51Z"/><path class="cls-8" d="M169.22,98.27a2.24,2.24,0,0,0,1.87,2.56A2.3,2.3,0,0,0,173.74,99a2.23,2.23,0,0,0-1.87-2.56A2.29,2.29,0,0,0,169.22,98.27Z"/><path class="cls-18" d="M169.37,98.65a2.11,2.11,0,0,1,4.18-.49A2.32,2.32,0,0,0,169.37,98.65Z"/><path class="cls-9" d="M173.65,98a2.17,2.17,0,0,1,.09,1,2.3,2.3,0,0,1-2.65,1.81,2.25,2.25,0,0,1-1.9-2.09C170.31,100.41,173.3,99.61,173.65,98Z"/><path class="cls-19" d="M169,98.23a2.5,2.5,0,0,1,2.89-2,2.44,2.44,0,0,1,2.06,2.8,2.52,2.52,0,0,1-2.9,2A2.44,2.44,0,0,1,169,98.23Zm.43.08a2,2,0,0,0,1.69,2.31A2.07,2.07,0,0,0,173.52,99a2,2,0,0,0-1.69-2.31A2.06,2.06,0,0,0,169.44,98.31Z"/><path class="cls-10" d="M171.85,93.38c-3.9,1.55-4.91,6.27-5.66,10.48-.45-.3-.71-.49-.71-.49C165.63,97.39,168.28,93,171.85,93.38Z"/><path class="cls-7" d="M165.34,103.54l-.09-.07v-.11c.16-5.92,2.76-10.21,6.2-10.21a4.49,4.49,0,0,1,1.08.13,4,4,0,0,1,2.55,2.51c1.35,3.15,1.06,8.53-.63,11.3l0,0a1.34,1.34,0,0,1-1,.38h0C170.93,107.5,165.57,103.7,165.34,103.54ZM174.67,96a3.47,3.47,0,0,0-2.25-2.25,4.11,4.11,0,0,0-1-.13c-3.17,0-5.58,4.07-5.75,9.69.73.51,5.54,3.81,7.7,3.81a.94.94,0,0,0,.69-.22C175.67,104.22,176,98.94,174.67,96Z"/><path class="cls-5" d="M123.07,167.1c9.11-3.19,22.19-16.84,26.8-22.68,6.21-5.1,11.92-15.08,14.4-22.68,6.53-2.39,10.07-3.71,13.14-8.1s3.67-10.48,1-11.76-5.26,1.86-6.14,4.09c-1.87-2.71-8.07-6.9-13.73-2.44-.28-3.14-1.43-8.71-6.37-7.23s-4.31,11.46.16,17.9a92.92,92.92,0,0,0-15.38,16.11c-7.69,2.27-24.68,7.05-30.58,14.38C111.53,150.42,123.07,167.1,123.07,167.1Z"/><path class="cls-10" d="M173,109.12a10.78,10.78,0,0,0-4.61-5.26c-2.92-1.58-7.69-2.55-11.79,2.28,2.49-4.72,7.8-5.61,12-3.43C170.83,103.85,173,105.94,173,109.12Z"/><path class="cls-6" d="M143.5,147.34a16.85,16.85,0,0,1-10.11-.85c13.19-1.7,21.54-12.32,27.69-22.94a15.07,15.07,0,0,1-6.15-2.12c12.58-.38,23.29-8.65,23.91-19.25,2.15,1.74,1.46,7.34-1.43,11.46-3.07,4.39-6.61,5.71-13.14,8.1-2.48,7.6-8.19,17.58-14.4,22.68-4.61,5.84-17.69,19.49-26.8,22.68,0,0-6.76-9.77-12.26-16.92C122.41,159,133.71,155.35,143.5,147.34Z"/><path class="cls-8" d="M174.31,106.33a2.22,2.22,0,0,0,1.87,2.55,2.28,2.28,0,0,0,2.65-1.81,2.22,2.22,0,0,0-1.87-2.55A2.29,2.29,0,0,0,174.31,106.33Z"/><path class="cls-18" d="M174.46,106.7a2.17,2.17,0,0,1,2.5-2.18,2.15,2.15,0,0,1,1.68,1.7C177.3,104.47,175,104.94,174.46,106.7Z"/><path class="cls-9" d="M178.75,106a2.21,2.21,0,0,1-2.57,2.85,2.24,2.24,0,0,1-1.9-2.08C175.4,108.46,178.39,107.66,178.75,106Z"/><path class="cls-19" d="M174.1,106.29a2.5,2.5,0,0,1,2.9-2,2.44,2.44,0,0,1,2.05,2.8,2.51,2.51,0,0,1-2.9,2A2.42,2.42,0,0,1,174.1,106.29Zm.43.07a2,2,0,0,0,1.69,2.31,2.06,2.06,0,0,0,2.39-1.63,2,2,0,0,0-1.69-2.31A2.06,2.06,0,0,0,174.53,106.36Z"/><path class="cls-8" d="M158.22,111c0,2.38,2.22,4.32,4.95,4.32s4.94-1.94,4.94-4.32-2.21-4.32-4.94-4.32S158.22,108.63,158.22,111Z"/><path class="cls-18" d="M158.39,110.73a4.48,4.48,0,0,1,4.78-4,5,5,0,0,1,4.44,2.44C164,106.7,160.44,106.82,158.39,110.73Z"/><path class="cls-9" d="M162.62,113.16c2.31,0,5.46-1.69,4.77-4.37a3.83,3.83,0,0,1,.72,2.23c0,2.38-2.21,4.32-4.94,4.32s-4.95-1.94-4.95-4.32a4.16,4.16,0,0,1,.09-.79C158.52,111.75,159.68,113.17,162.62,113.16Z"/><path class="cls-19" d="M158,111c0-2.5,2.32-4.53,5.17-4.53s5.16,2,5.16,4.53-2.32,4.53-5.16,4.53S158,113.52,158,111Zm.44,0c0,2.26,2.12,4.1,4.73,4.1s4.72-1.84,4.72-4.1-2.12-4.11-4.72-4.11S158.44,108.75,158.44,111Z"/><path class="cls-8" d="M151.5,101.17A2.29,2.29,0,1,0,153.79,99,2.26,2.26,0,0,0,151.5,101.17Z"/><path class="cls-18" d="M151.71,101.52A2.15,2.15,0,0,1,153.79,99a2.2,2.2,0,0,1,2,1.4C154.12,98.86,151.91,99.7,151.71,101.52Z"/><path class="cls-9" d="M155.82,100.16a2.17,2.17,0,0,1,.26,1,2.25,2.25,0,0,1-2.29,2.22,2.28,2.28,0,0,1-2.24-1.75C153,103.1,155.75,101.83,155.82,100.16Z"/><path class="cls-19" d="M151.28,101.17a2.51,2.51,0,1,1,2.51,2.43A2.47,2.47,0,0,1,151.28,101.17Zm.44,0a2.07,2.07,0,1,0,2.07-2A2,2,0,0,0,151.72,101.17Z"/><path class="cls-7" d="M150.64,144.05l-.28-.32c-2.93,2.29-8,2.89-8,2.9S147.61,146.43,150.64,144.05Z"/><path class="cls-7" d="M135.22,136a17.49,17.49,0,0,1,2.43-6.33l-.37-.23A13.89,13.89,0,0,0,135.22,136Z"/><path class="cls-7" d="M164.78,121.78l-.12-.41a18.44,18.44,0,0,1-4.22.62A10.29,10.29,0,0,0,164.78,121.78Z"/><path class="cls-7" d="M154.26,115.88a10,10,0,0,1-2.09-2.24l-.37.22A6.1,6.1,0,0,0,154.26,115.88Z"/><path class="cls-7" d="M156.56,106.14a12,12,0,0,1,2.77-3l-.24-.35A8.73,8.73,0,0,0,156.56,106.14Z"/><path class="cls-7" d="M173,109.12s.24-2.54-1-3.89l-.33.28A7,7,0,0,1,173,109.12Z"/><path class="cls-7" d="M122.88,167.22c-.11-.17-11.58-16.73-16.72-22.39l-.12-.13.12-.14c5.72-7.11,22-11.89,29.79-14.19l.82-.24a92.91,92.91,0,0,1,15.23-16c-3.13-4.61-4.4-11-3-14.92a4.76,4.76,0,0,1,3-3.14,5.68,5.68,0,0,1,1.61-.26c3.64,0,4.7,4.39,5,7.28a8.67,8.67,0,0,1,5.2-1.76,11.22,11.22,0,0,1,8.3,4.17c.81-1.79,2.66-4.16,4.9-4.16a3.2,3.2,0,0,1,1.38.32,3.16,3.16,0,0,1,1.63,2.16c.73,2.64-.32,6.8-2.49,9.91-3.14,4.47-6.71,5.79-13.16,8.15-2.42,7.37-8.13,17.49-14.41,22.66-4.57,5.78-17.66,19.5-26.89,22.73l-.16.06Zm49.56-61.17-.15.38-.24-.34a10.86,10.86,0,0,0-8.17-4.31,8.36,8.36,0,0,0-5.24,1.91l-.33.26,0-.4c-.24-2.72-1.15-7.28-4.61-7.28a5.12,5.12,0,0,0-1.48.24,4.24,4.24,0,0,0-2.74,2.87c-1.39,3.8-.06,10.26,3,14.7l.12.17-.16.12a91.62,91.62,0,0,0-15.34,16.06l0,.06-1,.29c-7.72,2.27-23.73,7-29.47,13.9,5,5.52,15.42,20.55,16.54,22.16,9.14-3.3,22-16.84,26.55-22.55l0,0c6.25-5.13,11.94-15.24,14.33-22.58l0-.1.1,0c6.43-2.36,10-3.65,13-8,2.11-3,3.13-7,2.43-9.56a2.77,2.77,0,0,0-1.39-1.89,2.82,2.82,0,0,0-1.19-.27C174.92,101.8,173.08,104.4,172.44,106.05Z"/><path class="cls-5" d="M74,144.84c-4,6.51-11.11,20.8-14.09,40.85-8.64,10.08-12.44,20.15-12.85,26.73s4.42,16.56,20,17.89c-4.63,2.78-12.8,4.43-18.67,5.76s-10,3.09-12.39,6.38-2.15,7.45-1.74,8.22c-.77,2.88-3.67,7.51,8.39,8.4,1.44,1.88,6,2.64,17.48-1.13a55.69,55.69,0,0,0,24.47-15.7c5.21-5.76,6.72-8.7,6.93-12.34a55.46,55.46,0,0,0,0-9.53c6,.62,22.48,2.4,34.45-13.6,5.24-3.6,9-6.07,12.64-5.38s5,3.73,6.73,6.41,4.27,6.94,7.46,5.09,20.87-72.65,20.87-72.65c-4.16-.56-9.51,2.37-13.47,9.21s-6.58,15.88-8.12,20.61c-3.24-4.32-11.65-17.31-25.36-4.56-1.92-8.09-5-17.51-7.51-20.66S74,144.84,74,144.84Z"/><path class="cls-6" d="M70.45,210.32c-9.86-5.92-10.88-15.24-10.7-24.4-.79.92-1.53,1.84-2.23,2.76C56.5,197.18,61,207.39,70.45,210.32Z"/><path class="cls-6" d="M146.72,193.5c-2.31,1.59-6,0-7.95-5.14-1.51-4-2.81-8.36-5.35-12.83,1.85,13.78-16,29.55-21.76,32.84-15.22,9-35.83,6.25-41,2.41,2.73,3.84,4.12,5.76,7,7.4,2.47,1.65,5.76,2.47,6.17,3.7,4.12,9.05-3.7,21.08-11.92,26C70.22,249.13,52,259.36,45,258.13c-2.31-.47-.36-7,4.84-10.78-6.19,2.24-10.49,7.85-13,5.79-2.26-1.93.66-6.88,6.77-11.38-4.54.31-7.28,3.67-9,3.29a9.26,9.26,0,0,0-.38,5.62c-.77,2.88-3.67,7.51,8.39,8.4,1.44,1.88,6,2.64,17.48-1.13a55.69,55.69,0,0,0,24.47-15.7c5.21-5.76,6.72-8.7,6.93-12.34a55.46,55.46,0,0,0,0-9.53c6,.62,22.48,2.4,34.45-13.6,5.24-3.6,9-6.07,12.64-5.38s5,3.73,6.73,6.41,4.27,6.94,7.46,5.09c2.37-1.38,12.77-40.93,17.94-61.08-3.26,3.86-8.61,7.34-11.48,12.42C152.89,175.67,149.29,192.74,146.72,193.5Z"/><path class="cls-7" d="M125,168.52a9.15,9.15,0,0,1,2-3.52l.28.31A12.81,12.81,0,0,0,125,168.52Z"/><path class="cls-7" d="M125.06,208.37l-.33-.25a48.76,48.76,0,0,0,3.81-5.64,43.82,43.82,0,0,0,4.05-9,31.93,31.93,0,0,1-3.73,9.26A48.82,48.82,0,0,1,125.06,208.37Z"/><path class="cls-7" d="M68.7,230.54a25.56,25.56,0,0,1-2.87-.15l0-.41a31.83,31.83,0,0,0,12.86-1.5A26.71,26.71,0,0,1,68.7,230.54Z"/><path class="cls-7" d="M42.56,259.18c-3.19-5.18,7.31-11.83,7.31-11.83s-9.94,6.77-7,11.61Z"/><path class="cls-7" d="M34.41,251.16,34,251c1.93-5.86,9.66-9.28,9.66-9.28S36.28,245.47,34.41,251.16Z"/><path class="cls-7" d="M148.36,196a120.46,120.46,0,0,1,1.58-16.43,92,92,0,0,1,2.48-10.94l.39.12a92.8,92.8,0,0,0-2.43,10.66C148.9,188,148.37,195.87,148.36,196Z"/><path class="cls-7" d="M92.6,220.68A37,37,0,0,1,77,214.92a40.62,40.62,0,0,0,15.69,5.35Z"/><path class="cls-7" d="M61.06,198.9a31,31,0,0,1-1.17-14.27l.41.05a30.43,30.43,0,0,0,1.31,14.53,21,21,0,0,0,8.84,11.11A20,20,0,0,1,61.06,198.9Z"/><path class="cls-7" d="M47.42,260.83c-2.33,0-3.94-.52-4.79-1.56-4.8-.37-7.68-1.36-8.8-3-1-1.49-.43-3.27,0-4.7l.26-.85a10.47,10.47,0,0,1,1.8-8.36c2.23-3,6-5,12.51-6.46l1.8-.4c5.39-1.22,12.05-2.71,16.24-5C50.21,228.8,46.53,218,46.88,212.41c.5-8,5.31-18,12.86-26.81,3.2-21.4,10.93-35.71,14.11-40.87l.06-.09H74c.19,0,19.19-1.4,32.46-1.4,11.83,0,12.71,1.11,13,1.48,2.55,3.26,5.63,12.79,7.47,20.4,3.84-3.5,7.61-5.27,11.21-5.27,6.75,0,11.27,6.13,13.7,9.43.09.12.17.24.26.35l.51-1.6c1.61-5.05,4-12.68,7.5-18.68s8.12-9.37,12.62-9.37a7.35,7.35,0,0,1,1.06.07l.23,0-.06.22c-.72,2.9-17.74,70.9-21,72.77a3.3,3.3,0,0,1-1.67.48c-2.47,0-4.43-3.09-5.87-5.34l-.19-.29c-.22-.35-.44-.7-.65-1.06-1.48-2.41-2.88-4.68-6-5.26a6.78,6.78,0,0,0-1.2-.11c-3.11,0-6.33,2.05-11.26,5.44-7,9.32-16.49,14.05-28.28,14.05a59.26,59.26,0,0,1-6.07-.36,59.05,59.05,0,0,1,0,9.3c-.21,3.84-1.91,6.87-7,12.47a56.24,56.24,0,0,1-24.56,15.75C54.81,259.92,50.48,260.83,47.42,260.83ZM74.15,145c-3.21,5.22-10.85,19.45-14,40.69v.06l0,0c-7.53,8.78-12.32,18.73-12.81,26.62-.34,5.49,3.37,16.26,19.86,17.67l.64,0-.55.33C63,233,56,234.59,50.32,235.87l-1.8.4c-6.44,1.47-10.11,3.35-12.27,6.3-2.4,3.27-2.09,7.33-1.73,8l0,.07,0,.08c-.08.29-.19.61-.29.93-.46,1.42-1,3-.08,4.35,1.06,1.57,3.86,2.51,8.58,2.85h.09l.06.08c1.75,2.29,7.77,1.9,17.25-1.21A55.77,55.77,0,0,0,84.53,242.1c5-5.51,6.66-8.48,6.87-12.21a54,54,0,0,0,0-9.48l0-.27.37,0a57.63,57.63,0,0,0,6.19.37c11.66,0,21.07-4.67,28-13.9l0-.05c5-3.44,8.29-5.53,11.52-5.53a6.85,6.85,0,0,1,1.28.12c3.25.61,4.76,3.07,6.22,5.45.21.35.43.7.65,1.05l.18.29c1.39,2.17,3.29,5.15,5.53,5.15a2.94,2.94,0,0,0,1.47-.42c2.45-1.43,14.59-47.77,20.72-72.29a6.79,6.79,0,0,0-.78,0c-4.35,0-8.94,3.43-12.26,9.17-3.45,5.95-5.87,13.56-7.47,18.59-.23.72-.44,1.39-.64,2l-.12.37-.24-.32-.49-.67c-2.39-3.24-6.83-9.26-13.37-9.26-3.57,0-7.34,1.82-11.19,5.4l-.26.24-.08-.34c-1.81-7.63-4.92-17.33-7.47-20.59-.47-.6-3.06-1.32-12.67-1.32C93.72,143.64,75.69,144.92,74.15,145Z"/><path class="cls-20" d="M126,179.93c-1.23-15.9-6.31-27.28-8.64-33L96.44,144v0h-.13v0l-20.88,2.86c-2.32,5.76-7.4,17.14-8.64,33a36.5,36.5,0,0,0,7.29,24c4,5.34,13.14,10.69,22.36,10.69,9.43,0,16.62-4.46,21.68-10.05C124.1,198,126.62,188.53,126,179.93Z"/><path class="cls-21" d="M126,179.93c-1.23-15.9-6.31-27.28-8.64-33l-14.8-2c12.86,14.54,20.69,37,4.73,51.52-12.31,10.91-31.4,10.56-39.66-6.51a38.39,38.39,0,0,0,6.5,14.06c4,5.34,13.14,10.69,22.36,10.69,9.43,0,16.62-4.46,21.68-10.05C124.1,198,126.62,188.53,126,179.93Z"/><path class="cls-17" d="M96.44,214.82c-9.45,0-18.66-5.55-22.52-10.77a36.54,36.54,0,0,1-7.33-24.13,101.44,101.44,0,0,1,8.1-31.76l.55-1.34,0-.11,20.82-2.86v0l.27,0,.27,0v.07l20.82,2.86,0,.11c.17.41.36.86.55,1.34a101.39,101.39,0,0,1,8.11,31.76c.72,9.27-2.23,18.54-7.89,24.79A29.15,29.15,0,0,1,96.44,214.82ZM75.58,147.08l-.51,1.24A100.89,100.89,0,0,0,67,180a36.17,36.17,0,0,0,7.25,23.86c3.8,5.14,12.87,10.6,22.19,10.6a28.72,28.72,0,0,0,21.52-10c5.59-6.18,8.5-15.33,7.79-24.49a101.12,101.12,0,0,0-8.08-31.63c-.18-.44-.35-.85-.5-1.24l-20.81-2.85h0Z"/><path class="cls-20" d="M117.38,134.59c-3.38-1.54-10.76-1.65-21-.83-10.24-.82-17.62-.71-21,.83s-7.3,12.44-1.64,18.82a15.9,15.9,0,0,1,1.36-4.53c0,2.47,1,10.69,8.85,13.57a8.43,8.43,0,0,1-.86-5.14c1.44,2.37,1.85,4.06,5.5,6.38s7.54,5.75,7.8,5.79c.55-.22,4.21-3.52,7.8-5.79s4.06-4,5.5-6.38a8.43,8.43,0,0,1-.86,5.14c7.89-2.88,8.8-11.1,8.85-13.57a15.79,15.79,0,0,1,1.37,4.53C124.68,147,120.78,136.13,117.38,134.59Z"/><path class="cls-21" d="M117.38,134.59a19.27,19.27,0,0,0-6.42-1.23c2.92,3.62,7.59,6.92,6.56,12-1.34-1.9-2.73-3-4.53-3.29,4.12,4.94,1.65,11.11-1.64,15.22-.15-3.49-.62-5.29-2.47-7-1.64,6.17-4.33,11.52-12.3,15.22-6-3.46-11.38-6.1-15.25-14.81a18,18,0,0,0-.83,6.58c-4.11-2.88-3.7-7.81-4.11-12.34-2.47.83-2.06,3.7-3.29,5.35a38.86,38.86,0,0,1-2-7.78c-.6,3.63-.11,7.78,2.63,10.87a15.9,15.9,0,0,1,1.36-4.53c0,2.47,1,10.69,8.85,13.57a8.43,8.43,0,0,1-.86-5.14c1.44,2.37,1.85,4.06,5.5,6.38s7.54,5.75,7.8,5.79c.55-.22,4.21-3.52,7.8-5.79s4.06-4,5.5-6.38a8.43,8.43,0,0,1-.86,5.14c7.89-2.88,8.8-11.1,8.85-13.57a15.79,15.79,0,0,1,1.37,4.53C124.68,147,120.78,136.13,117.38,134.59Z"/><path class="cls-17" d="M96.4,169.69h-.05c-.14,0-.32-.15-1.59-1.17a73.73,73.73,0,0,0-6.3-4.65,12.16,12.16,0,0,1-4.85-5.2c-.12-.22-.24-.44-.37-.66a7.5,7.5,0,0,0,.86,4.34l.33.51-.57-.2c-7.43-2.72-8.72-10.11-8.94-12.94a21.25,21.25,0,0,0-1,3.73l-.08.42-.28-.32c-2.58-2.91-3.51-7.22-2.53-11.82.75-3.51,2.49-6.52,4.25-7.32,2-.91,5.36-1.35,10.28-1.35,3,0,6.56.17,10.83.51,4.23-.34,7.77-.51,10.8-.51,4.92,0,8.28.44,10.28,1.35,1.75.8,3.5,3.81,4.24,7.32,1,4.6.06,8.91-2.53,11.82l-.28.32-.07-.42a21.25,21.25,0,0,0-1-3.73c-.22,2.83-1.52,10.22-9,12.94l-.56.2.32-.51a7.59,7.59,0,0,0,.87-4.34c-.13.22-.26.44-.38.66a12.1,12.1,0,0,1-4.85,5.2,69.13,69.13,0,0,0-6,4.44,14.82,14.82,0,0,1-1.83,1.37Zm-13.49-13,.34.55c.27.44.5.86.72,1.26a11.67,11.67,0,0,0,4.71,5A77.49,77.49,0,0,1,95,168.19c.59.48,1.15.93,1.35,1.06.26-.16.91-.68,1.65-1.27a72.79,72.79,0,0,1,6-4.47,11.6,11.6,0,0,0,4.71-5c.23-.4.46-.82.73-1.26l.33-.55,0,.65a9.56,9.56,0,0,1-.61,4.76c7.59-3.14,8.15-11.51,8.19-13.18v-.7l.37.59a15.18,15.18,0,0,1,1.31,4.17c2.29-2.8,3.08-6.84,2.16-11.14-.71-3.33-2.39-6.29-4-7-2-.89-5.25-1.32-10.11-1.32-3,0-6.55.17-10.8.51-4.29-.34-7.82-.51-10.83-.51-4.86,0-8.17.43-10.11,1.32-1.62.73-3.31,3.69-4,7-.91,4.3-.12,8.34,2.17,11.14a14.93,14.93,0,0,1,1.3-4.17l.37-.59,0,.7c0,1.67.59,10,8.19,13.18a9.44,9.44,0,0,1-.61-4.76Z"/><path class="cls-22" d="M174.82,139.76c-3.08-.13-6.92,1.17-10.35,9s-10.35,33.52-12.4,45.45-2.54,19.88,2.33,20.22,6.58-2.47,9-9.66,5.41-15.91,11.44-24.27,12.79-18.23,12.48-26.56c1.13-5.45.27-11.48-2.88-13.4C183.87,136.75,180.79,134.42,174.82,139.76Z"/><path class="cls-23" d="M185.51,141.79c-.2-.18-1.14-1.14-1.36-1.27a27.73,27.73,0,0,1-3.58,14.23C184,150.5,186.09,145.38,185.51,141.79Z"/><path class="cls-23" d="M174,151.78c2.09-4.26,6.33-10.48,2.16-13.33-.51.37-1,.81-1.62,1.31C178,140.18,175.23,146.53,174,151.78Z"/><path class="cls-23" d="M172.42,177.62c-5.7,7.3-11,20.9-14.91,19.46-3.7-.89-3.55-10.09-2.79-16.45-1.26,5.19-2.31,10-2.93,13.56-2,11.93-2.53,19.88,2.33,20.22s6.58-2.47,9-9.66,5.42-15.91,11.45-24.27c5.33-7.38,11.21-15.94,12.3-23.58C184,164.23,177,171.75,172.42,177.62Z"/><path class="cls-7" d="M183.57,160.22a22.92,22.92,0,0,0,3.38-7l.4.09A19,19,0,0,1,183.57,160.22Z"/><path class="cls-7" d="M180.57,154.75c0-.08,4.29-8.24,3.25-14.83l.41-.06C185.29,146.58,180.57,154.75,180.57,154.75Z"/><path class="cls-7" d="M174,151.78c0-.08,1.84-7.31,1.94-9.69a2.17,2.17,0,0,0-.43-1.65,2.51,2.51,0,0,0-1.86-.46h-.12v-.41h.12a2.85,2.85,0,0,1,2.16.59,2.57,2.57,0,0,1,.55,1.94C176.26,144.53,174,151.78,174,151.78Z"/><path class="cls-7" d="M181.8,158.91a7.51,7.51,0,0,0-3.76-4.49,6.44,6.44,0,0,0-2.69-.55,8.93,8.93,0,0,0-3.52.71,9.54,9.54,0,0,0-4,3.25,7.8,7.8,0,0,1,3.83-3.62,9.27,9.27,0,0,1,3.7-.75,6.82,6.82,0,0,1,2.76.55A7,7,0,0,1,181.8,158.91Z"/><path class="cls-7" d="M154.88,214.64h0c-.25,0-.51,0-.77,0a3.49,3.49,0,0,1-2.6-1.34c-2.19-2.79-1.55-9.67.08-19.12,2.14-12.43,9.11-37.94,12.42-45.5,2.69-6.13,6-9.11,10.13-9.11h.33c2.34-2.07,4.39-3.13,6.09-3.13,2,0,3.38,1.48,3.78,4,3.3,2.11,4,8.38,2.89,13.55.29,8.19-6,17.66-12.51,26.66-5.75,8-8.69,16-11.42,24.21C161,211.75,159.31,214.64,154.88,214.64ZM174.14,140c-3.95,0-7.14,2.9-9.75,8.87-3.31,7.53-10.26,33-12.4,45.39-1.39,8.1-2.38,16-.16,18.8a3.05,3.05,0,0,0,2.31,1.19c4.72.33,6.39-2.41,8.77-9.53,2.74-8.24,5.69-16.3,11.47-24.32,6.46-9,12.74-18.37,12.44-26.43v-.05c1.06-5.07.44-11.23-2.78-13.19l-.08-.05,0-.09c-.16-1.12-.81-3.72-3.38-3.72-1.59,0-3.62,1.07-5.87,3.09l-.07.05h-.48Z"/><path class="cls-8" d="M172.84,174c-1.78,4.52-4.92,7.52-7,6.69s-2.36-5.15-.58-9.67,4.91-7.52,7-6.7S174.61,169.52,172.84,174Z"/><path class="cls-9" d="M164.46,173.54c-.84,3.53-.35,6.52,1.36,7.19,2.1.83,5.24-2.17,7-6.69,1.16-3,1.44-5.86.91-7.72C173.76,173.45,167.08,180,164.46,173.54Z"/><path class="cls-18" d="M173.66,166.06a2.62,2.62,0,0,0-1.41-1.7c-2.1-.82-5.24,2.17-7,6.7a24.11,24.11,0,0,0-.59,2.37C167.11,168.83,170.06,163.38,173.66,166.06Z"/><path class="cls-24" d="M166.56,181.08a2.16,2.16,0,0,1-.81-.15c-2.24-.88-2.55-5.25-.71-10,1.59-4,4.31-7,6.47-7a2.16,2.16,0,0,1,.81.15c2.24.88,2.55,5.25.71,10C171.44,178.15,168.72,181.08,166.56,181.08Zm4.95-16.65c-2,0-4.56,2.82-6.08,6.7-1.73,4.41-1.52,8.63.47,9.41a1.8,1.8,0,0,0,.66.12c2,0,4.56-2.81,6.08-6.69,1.74-4.41,1.52-8.63-.47-9.42A1.8,1.8,0,0,0,171.51,164.43Z"/><path class="cls-8" d="M171.91,150.82c-.91,2.32-2.68,3.8-4,3.3s-1.58-2.79-.67-5.11,2.69-3.79,4-3.29S172.82,148.51,171.91,150.82Z"/><path class="cls-18" d="M172.19,146.77a1.72,1.72,0,0,0-.95-1.05c-1.27-.5-3.05,1-4,3.29-.07.17-.22,1.2-.27,1.37C168.72,147.3,170.09,145.41,172.19,146.77Z"/><path class="cls-9" d="M167,149.89c-.53,2-.17,3.79.95,4.23,1.28.5,3.05-1,4-3.3a7.16,7.16,0,0,0,.52-2.86C169.72,154.42,167,152.22,167,149.89Z"/><path class="cls-24" d="M168.48,154.42a1.78,1.78,0,0,1-.61-.11,2.35,2.35,0,0,1-1.28-2,7,7,0,0,1,.5-3.34c.82-2.07,2.31-3.52,3.63-3.52a1.53,1.53,0,0,1,.6.12,2.31,2.31,0,0,1,1.28,2,7,7,0,0,1-.5,3.34C171.29,153,169.8,154.42,168.48,154.42Zm2.24-8.59c-1.14,0-2.5,1.37-3.24,3.25a6.55,6.55,0,0,0-.48,3.14,2,2,0,0,0,1,1.7,1.22,1.22,0,0,0,.46.09c1.13,0,2.5-1.37,3.24-3.26a6.62,6.62,0,0,0,.47-3.13,2,2,0,0,0-1-1.71A1.12,1.12,0,0,0,170.72,145.83Z"/><path class="cls-8" d="M181.78,146.63c-.54,2-1.85,3.35-2.94,3.05s-1.54-2.13-1-4.11,1.85-3.34,2.94-3S182.31,144.66,181.78,146.63Z"/><path class="cls-9" d="M177.83,145.58c-.53,2-.08,3.81,1,4.1s2.4-1.07,2.94-3.05a6.88,6.88,0,0,0,.19-1.07C180.43,148.81,177.87,148.7,177.83,145.58Z"/><path class="cls-18" d="M181.9,144a1.85,1.85,0,0,0-1.13-1.51c-1.05-.28-2.57,1.26-2.91,3.53C179.23,143.35,180.44,142.09,181.9,144Z"/><path class="cls-24" d="M179.14,149.93a1.34,1.34,0,0,1-.35-.05,2,2,0,0,1-1.26-1.57,5.69,5.69,0,0,1,.11-2.79c.5-1.88,1.69-3.24,2.82-3.24a1.42,1.42,0,0,1,.36.05c1.22.32,1.72,2.24,1.15,4.36C181.47,148.56,180.28,149.93,179.14,149.93Zm1.32-7.24c-.93,0-2,1.26-2.43,2.94a5.32,5.32,0,0,0-.1,2.58,1.57,1.57,0,0,0,1,1.27.67.67,0,0,0,.24,0c.94,0,2-1.27,2.44-2.94.49-1.83.09-3.6-.87-3.86A1,1,0,0,0,180.46,142.69Z"/><path class="cls-8" d="M185.73,154c-.35,1.31-1.22,2.22-1.94,2s-1-1.41-.67-2.72,1.22-2.21,1.95-2S186.09,152.7,185.73,154Z"/><path class="cls-18" d="M185.6,152.07c-.13-.41-.22-.69-.53-.78-.73-.19-1.59.71-1.95,2,0,.07.12.25.11.32C183.83,152.49,184.71,151.14,185.6,152.07Z"/><path class="cls-9" d="M183,154c-.18,1.12.13,2.08.76,2.25s1.59-.71,1.94-2a3.65,3.65,0,0,0,.08-1.75C185.46,154.67,183.84,156,183,154Z"/><path class="cls-24" d="M184,156.26a1.07,1.07,0,0,1-.25,0,1.33,1.33,0,0,1-.88-1.09,3.79,3.79,0,0,1,.07-1.88c.34-1.28,1.15-2.2,1.94-2.2a1.07,1.07,0,0,1,.25,0,1.38,1.38,0,0,1,.88,1.09,3.83,3.83,0,0,1-.07,1.89C185.59,155.34,184.77,156.26,184,156.26Zm.88-4.79c-.58,0-1.26.83-1.55,1.89a3.46,3.46,0,0,0-.06,1.68c.1.44.31.72.59.79.6.16,1.38-.72,1.69-1.87a3.46,3.46,0,0,0,.06-1.68c-.11-.43-.31-.72-.59-.79Z"/><path class="cls-20" d="M130,104.55c-5.44-2.75-11.5-1.49-17.51,1.31-4.11-4.21-8.86-6.86-15.71-6.86A22.47,22.47,0,0,0,81,105.86c-6-2.8-12.07-4.06-17.51-1.31a14.4,14.4,0,0,0-7.4,15.06,6.33,6.33,0,0,1,2.47-2.35c-.8,3.22-.69,7.56,2.32,10.36a8.42,8.42,0,0,1,.85-3.68c.91,2.92,4.36,9.38,13.73,14a43.07,43.07,0,0,0,11.14,3.48c2.2,2.71,5.49,3.81,10,3.81a13.79,13.79,0,0,0,10.26-3.83A43.83,43.83,0,0,0,118,137.94c9.36-4.62,12.81-11.08,13.72-14a8.24,8.24,0,0,1,.86,3.68c3-2.8,3.11-7.14,2.32-10.36a6.31,6.31,0,0,1,2.46,2.35A14.39,14.39,0,0,0,130,104.55Z"/><path class="cls-13" d="M79.12,106.86c-.26.74-1.15,2.34-.81,3.77,10.88-14.18,27.29-13.24,36.81-.35a19.54,19.54,0,0,0-1-3.85c2-1.66,3.56-2.09,5.36-3a68.53,68.53,0,0,0-7.06,2.42c-4.11-4.21-8.86-6.86-15.71-6.86A22.47,22.47,0,0,0,81,105.86c-5.71-2.66-11.47-3.93-16.7-1.69C69.26,103.61,73.64,103.54,79.12,106.86Z"/><path class="cls-21" d="M130,104.55a15.26,15.26,0,0,0-9.54-1.29c6.63.83,13,4.72,14.68,11.67-2-.72-3.06-2.51-5.1-3.23,2,3.23,3.74,6.45,3.06,10.39-1.36-2.15-3.4-3.23-5.1-5,1.25,10.57-8.84,19.74-17.91,21.67.27-2.39,0-5.06-.76-4.92-2.67,6-8.8,7.72-12.68,7.89a13.27,13.27,0,0,1-12.27-7.43,12.24,12.24,0,0,0-.49,4.43c-9.47-2.1-19.13-9.28-21.86-20.2a13.46,13.46,0,0,0-1.7,5.37c-1.28-2.48-.89-6.89.47-10.12a35.61,35.61,0,0,0-3.93,2.9A21.91,21.91,0,0,1,62.66,105a14.46,14.46,0,0,0-6.54,14.58,6.33,6.33,0,0,1,2.47-2.35c-.8,3.22-.69,7.56,2.32,10.36a8.42,8.42,0,0,1,.85-3.68c.91,2.92,4.36,9.38,13.73,14a43.07,43.07,0,0,0,11.14,3.48c2.61,3.19,6.31,3.81,10,3.81a13.88,13.88,0,0,0,10.26-3.83A43.83,43.83,0,0,0,118,137.94c9.36-4.62,12.81-11.08,13.72-14a8.24,8.24,0,0,1,.86,3.68c3-2.8,3.11-7.14,2.32-10.36a6.31,6.31,0,0,1,2.46,2.35A14.39,14.39,0,0,0,130,104.55Z"/><path class="cls-17" d="M96.61,145.42c-4.73,0-7.94-1.22-10.1-3.82a44.07,44.07,0,0,1-11.12-3.49c-9.75-4.82-12.88-11.49-13.67-13.65a10.23,10.23,0,0,0-.61,3.17l0,.43-.33-.3c-3.44-3.21-2.89-8.08-2.48-10.08a5.59,5.59,0,0,0-2,2l-.27.57-.12-.61a14.22,14.22,0,0,1,14.21-16.83A26.18,26.18,0,0,1,81,105.62a22.71,22.71,0,0,1,15.75-6.81c6.25,0,11.11,2.1,15.76,6.81a26.11,26.11,0,0,1,10.86-2.8,14.22,14.22,0,0,1,14.2,16.83l-.12.61-.27-.57a5.51,5.51,0,0,0-2-2c.42,2,1,6.87-2.48,10.08l-.32.3,0-.43a9.67,9.67,0,0,0-.61-3.17c-.79,2.16-3.91,8.84-13.67,13.65A44.16,44.16,0,0,1,107,141.58,14,14,0,0,1,96.61,145.42Zm-34.78-22,.13.42c.44,1.41,3.15,8.72,13.62,13.89a43.59,43.59,0,0,0,11.09,3.46l.08,0,0,.05C88.86,143.85,92,145,96.61,145a13.64,13.64,0,0,0,10.12-3.77l0,0h.06a43.78,43.78,0,0,0,11.07-3.44c10.47-5.17,13.19-12.48,13.62-13.89l.13-.42.25.38a8,8,0,0,1,.85,3.33c3.22-3.37,2.31-8.38,1.94-9.87l-.11-.46.42.25a7.33,7.33,0,0,1,2.25,1.94,13.81,13.81,0,0,0-13.89-15.82A25.81,25.81,0,0,0,112.54,106l-.14.07-.1-.11c-4.59-4.7-9.39-6.8-15.56-6.8A22.37,22.37,0,0,0,81.18,106l-.1.11-.14-.07a25.8,25.8,0,0,0-10.81-2.82A13.82,13.82,0,0,0,56.23,119a7.44,7.44,0,0,1,2.25-1.94l.42-.25-.11.46c-.37,1.49-1.28,6.5,1.94,9.87a7.82,7.82,0,0,1,.86-3.33Z"/><path class="cls-25" d="M96.84,114.62c-1.48-.06-17.49-.68-19.17-.68,3.27,8.17,10.14,19.88,19.17,19.88,8.65,0,15.9-11.71,19.17-19.88C114.33,113.94,98.32,114.56,96.84,114.62Z"/><path class="cls-15" d="M84.64,126.37c3.34,4.24,7.47,7.45,12.2,7.45,4.39,0,8.42-3,11.75-7C102,121.05,92,121.42,84.64,126.37Z"/><path class="cls-26" d="M88.22,130.18a13.3,13.3,0,0,0,8.62,3.64c3.14,0,6.1-1.55,8.75-3.91C100.63,126.33,91.6,126.8,88.22,130.18Z"/><path class="cls-27" d="M102.43,128.5c-5.14-1.79-11.67-.86-14.21,1.68.27.23.54.44.82.66C92.54,127.87,98.12,128.07,102.43,128.5Z"/><path class="cls-28" d="M102.67,128.4c-2.11,4.2-7.68,5.19-12,3.57a11.8,11.8,0,0,0,6.16,1.85c3.14,0,6.1-1.55,8.75-3.91A12.21,12.21,0,0,0,102.67,128.4Z"/><path class="cls-29" d="M96.84,134v-.31c2.8,0,5.7-1.21,8.52-3.68a15.5,15.5,0,0,0-8.52-2.35c-3.48,0-6.72,1-8.43,2.63a13.07,13.07,0,0,0,8.43,3.4V134a13.3,13.3,0,0,1-8.72-3.64l-.15-.12.14-.14c1.75-1.75,5-2.8,8.73-2.8a15.51,15.51,0,0,1,8.85,2.51l.18.14-.17.15C102.76,132.67,99.77,134,96.84,134Z"/><path class="cls-17" d="M96.84,134h0c-10.52,0-17.45-15.3-19.33-20l-.1-.25h.26c1.77,0,19,.67,19.18.68s17.39-.68,19.16-.68h.26l-.1.25C112.48,123.23,105.21,134,96.84,134ZM77.93,114.13c2,4.9,8.78,19.51,18.91,19.51h0c8.12,0,15.24-10.45,18.91-19.51-2.74,0-18.74.66-18.9.67S80.67,114.17,77.93,114.13Z"/><path class="cls-13" d="M90.86,115.18c.47,3.33,2.94,10.25,3.33,10.53s4.57.58,5.39,0,3.52-7.3,3.36-9.64C99.54,115.18,91.18,114.52,90.86,115.18Z"/><path class="cls-14" d="M102.94,116.07c-.61-.16-1.39-.31-2.24-.45-.1,2.8-.81,8.69-1.86,8.69-.88-.08-1.25-4-1.56-6-.37,2.34-1.48,6-3.62,6.38a4,4,0,0,0,.53,1.06c.39.29,4.57.58,5.39,0S103.1,118.41,102.94,116.07Z"/><path class="cls-30" d="M97,126h-.3c.29-2.19.66-8.33.08-9.79l.26-.12C97.68,117.76,97.21,124.17,97,126Z"/><path class="cls-30" d="M97.28,126.22h0a10.27,10.27,0,0,1-3.19-.36c-.51-.38-3-7.47-3.39-10.66v0l0-.05c.06-.13.18-.37,2.06-.37A52.27,52.27,0,0,1,103,115.9l.12,0v.13c.16,2.31-2.54,9.17-3.43,9.8A5.44,5.44,0,0,1,97.28,126.22Zm-6.23-11a48.28,48.28,0,0,0,3.24,10.32,11.28,11.28,0,0,0,3,.3h0a4.93,4.93,0,0,0,2.21-.31c.69-.48,3.34-6.89,3.29-9.35a53.28,53.28,0,0,0-10-1.12A4.91,4.91,0,0,0,91.05,115.25Z"/><path class="cls-20" d="M76.59,112.63c1.53,4.85,11,10.74,20.37,3.49,10.09,7,19.39,1.4,21.35-3.49,0,0-16.09-5.46-21.39-5.46C91.79,107.17,76.59,112.63,76.59,112.63Z"/><path class="cls-21" d="M97.35,110.63c-1,3.22-4.08,5-6.8,5.73-4.58,1-10.25.19-12.84-4.12l-1.12.39c1.53,4.85,11,10.74,20.37,3.49,10.09,7,19.39,1.4,21.35-3.49l-.92-.31C111.65,117.13,102.05,117.23,97.35,110.63Z"/><path class="cls-17" d="M87.76,119.69a13.29,13.29,0,0,1-4.23-.69c-3.42-1.15-6.27-3.69-7.1-6.32l.33-.11c.66,2.1,3,4.8,6.87,6.09,2.54.86,7.63,1.64,13.23-2.68l.1-.07.1.07c4.47,3.1,9.4,4,13.86,2.6,3.36-1.08,6.2-3.44,7.23-6l.31.14c-1.06,2.67-4,5.11-7.44,6.22-4.53,1.45-9.52.53-14-2.58A15,15,0,0,1,87.76,119.69Z"/><path class="cls-17" d="M97.11,116.17l-.29-.08a26.52,26.52,0,0,0,.32-6.54l.31,0A26.43,26.43,0,0,1,97.11,116.17Z"/><path class="cls-17" d="M121,115.34a14.15,14.15,0,0,0-2.94-2.5,11.17,11.17,0,0,0-3.71-1.12,7.78,7.78,0,0,1,3.94.69A8.75,8.75,0,0,1,121,115.34Z"/><path class="cls-17" d="M73.77,115.34a8.75,8.75,0,0,1,2.71-2.93,7.78,7.78,0,0,1,3.94-.69,11.17,11.17,0,0,0-3.71,1.12A14.15,14.15,0,0,0,73.77,115.34Z"/><path class="cls-31" d="M104.05,102.89c.11-2.37-3.79-3.93-6.74-3.82-2.65,0-6.85,1.45-6.74,3.82s4.74,6.65,6.74,6.65C99.68,109.54,103.94,105.29,104.05,102.89Z"/><path class="cls-32" d="M104,102.68c-.13-2.26-3.87-3.72-6.73-3.61-2.48,0-6.33,1.27-6.71,3.39C94.3,99.55,100.87,99.07,104,102.68Z"/><path class="cls-33" d="M90.6,103.07c.31,2.42,4.75,6.47,6.71,6.47,2.33,0,6.47-4.11,6.72-6.52C100.44,107.2,94.57,106.92,90.6,103.07Z"/><path class="cls-24" d="M97.31,109.72c-2.1,0-6.79-4.28-6.91-6.82a2.38,2.38,0,0,1,.69-1.74c1.28-1.42,4.16-2.27,6.21-2.27h.32a8.44,8.44,0,0,1,5.86,2.15,2.57,2.57,0,0,1,.74,1.86C104.1,105.45,99.77,109.72,97.31,109.72Zm.31-10.47h-.3c-2,0-4.76.81-6,2.15a2.09,2.09,0,0,0-.6,1.49c.11,2.29,4.7,6.47,6.57,6.47,2.22,0,6.46-4.17,6.57-6.47a2.2,2.2,0,0,0-.64-1.6A8.24,8.24,0,0,0,97.62,99.25Z"/><path class="cls-17" d="M79.33,108.14a17.67,17.67,0,0,1,2.07-2.92l.27.29C80.9,106.22,79.35,108.12,79.33,108.14Z"/><path class="cls-17" d="M114.15,108.14s-1.57-1.92-2.34-2.64l.28-.28A18.07,18.07,0,0,1,114.15,108.14Z"/></g></g></svg>