<svg id="Layer_1" data-name="Layer 1" xmlns="http://www.w3.org/2000/svg" viewBox="0 0 201.36 127.09"><defs><style>.cls-1{fill:#ddc63e;}.cls-2{fill:#6f631f;}.cls-3{fill:#ffe94d;}.cls-4{fill:#fff294;}.cls-5{fill:#2ba769;}.cls-6{fill:#12472b;}.cls-7{fill:#238e56;}.cls-8{fill:#55b987;}.cls-9{fill:#9dba32;}.cls-10,.cls-15{fill:#a8ce3b;}.cls-11{fill:#b9d862;}.cls-12{fill:#4f5d19;}.cls-13{fill:#fff;}.cls-14{fill:#89a525;}.cls-15,.cls-16{stroke:#4c5b0c;stroke-miterlimit:10;stroke-width:0.5px;}.cls-16{fill:none;}.cls-17{fill:#dbdddd;}.cls-18{fill:#009ce5;}.cls-19{fill:#00bdff;}.cls-20{fill:#0065e5;}</style></defs><path class="cls-1" d="M114.73,89.27S105.41,104,94.14,109.8c-2.42,1.26-10.51-9.62-6.94-19.32C95.13,90.37,114.73,89.27,114.73,89.27Z"/><path class="cls-2" d="M91.21,108.71c-3.34-3.32-6.86-11.2-4.25-18.32l.06-.16h.17C95,90.12,114.52,89,114.71,89l.49,0-.26.42c-.09.15-9.48,14.84-20.68,20.61a.52.52,0,0,1-.13.06h0C93.4,110.35,92.37,109.86,91.21,108.71Zm-3.84-18c-2.42,6.86,1,14.42,4.19,17.62,1,1,1.88,1.45,2.4,1.25h0l.07,0c10-5.16,18.6-17.58,20.21-20C111.15,89.72,94.61,90.62,87.37,90.73Z"/><path class="cls-2" d="M90.24,107.25c.13-.09,13.06-9.11,20.43-17.61l-.38-.33C103,97.76,90.08,106.74,90,106.83Z"/><path class="cls-2" d="M87.69,102.46c.11-.06,11.3-6,17.61-12.51l-.37-.35C98.68,96.05,87.56,102,87.45,102Z"/><path class="cls-2" d="M86.46,97.18c.06,0,6.85-3.12,10.88-6.77L97,90c-4,3.59-10.69,6.64-10.75,6.67Z"/><path class="cls-1" d="M83,90.54s-7.4,11.4-20.08,15.83c-2,.73-3.3-.53-4.92-3.44-2.31-4.14-4.87-9.63,1.55-13.28C68.06,86.64,83,90.54,83,90.54Z"/><path class="cls-2" d="M63,106.61c-2.24.83-3.71-.82-5.24-3.56-1.87-3.36-5.36-9.63,1.66-13.62h0c8.45-3,23.44.85,23.59.89l.34.08-.19.3c-.07.11-7.36,11.17-19.62,15.72h0ZM59.69,89.88c-6,3.45-3.92,8.48-1.44,12.93,1.69,3,2.94,4,4.62,3.32l.57-.2h0c11-4.08,17.92-13.44,19.16-15.23C80.31,90.14,67.29,87.19,59.69,89.88Z"/><path class="cls-2" d="M58.83,104.48c.26-.1,13.51-5.08,21.68-14.39l-.38-.33C72.05,99,58.92,103.91,58.65,104h0l.18.47Z"/><path class="cls-2" d="M57.54,100.28a61.2,61.2,0,0,0,18.55-11l-.34-.37a61.24,61.24,0,0,1-19.14,11.14l.16.48Z"/><path class="cls-2" d="M55.65,96.42c.09,0,9-3.35,14.4-7.7l-.32-.39C64.37,92.62,55.57,95.91,55.48,96Z"/><path class="cls-1" d="M42.72,67.88s-19.49-8.8-33.42-8C3.71,60.38,4,67.1,10.74,74s13.67,9.64,14.08,18c.52,10.62-3.38,15.67.08,24.48s5.19,8.16,9.89,4.8,14.32-19.19,16.3-27.95C43.47,72.83,42.72,67.88,42.72,67.88Z"/><path class="cls-3" d="M9.3,59.92c13.93-.84,33.42,8,33.42,8s.61,4,6.26,19.71c-5.63,1.62-11.61-.07-16.88-2.65-7.46-3.77-14.56-7.07-21.58-11.19C4,67,3.77,60.37,9.3,59.92Z"/><path class="cls-4" d="M7.38,60.43a5.21,5.21,0,0,1,1.92-.51c13.93-.84,33.42,8,33.42,8s.11.71.65,2.68C37.87,67.34,16.48,58.87,7.38,60.43Z"/><path class="cls-2" d="M24.66,116.58c-2.1-5.36-1.51-9.35-.83-14A51.55,51.55,0,0,0,24.57,92c-.29-5.92-3.89-9-8.44-12.81-1.81-1.53-3.68-3.11-5.57-5-3.94-4-6-8.39-5.3-11.35.41-1.83,1.84-3,4-3.14,13.83-.84,33.34,7.89,33.53,8l.13.06,0,.13s.85,5.2,8.35,25.41l0,.07,0,.08c-2,8.85-11.77,24.78-16.4,28.09a16.09,16.09,0,0,1-3.47,2.1C28.78,124.58,27.13,122.88,24.66,116.58ZM42.49,68.06c-1.67-.74-20-8.68-33.16-7.89a3.61,3.61,0,0,0-3.58,2.75c-.63,2.79,1.35,7,5.17,10.89,1.87,1.92,3.73,3.49,5.54,5,4.64,3.92,8.31,7,8.61,13.17a51.12,51.12,0,0,1-.74,10.68c-.67,4.55-1.25,8.48.8,13.72,2.6,6.64,4.11,7.47,6.15,6.71a15.08,15.08,0,0,0,3.36-2c4.55-3.26,14.17-18.94,16.18-27.72C43.89,74.68,42.66,69,42.49,68.06Z"/><path class="cls-2" d="M43.64,72.11l.18-.47c-13.34-5.09-38-9-38.29-9.07l-.08.5C5.7,63.11,30.35,67,43.64,72.11Z"/><rect class="cls-2" x="25.45" y="52.66" width="0.51" height="37.74" transform="translate(-48.5 87.95) rotate(-82.71)"/><path class="cls-2" d="M45.28,77.09l0-.51c-9.26-.78-31.57-.18-31.79-.17v.51C13.77,76.91,36.05,76.31,45.28,77.09Z"/><rect class="cls-2" x="19.7" y="80.35" width="26.55" height="0.51" transform="translate(-8.26 3.9) rotate(-6.01)"/><rect class="cls-2" x="23.53" y="84.28" width="23.7" height="0.51" transform="translate(-25.54 16.07) rotate(-18.95)"/><rect class="cls-2" x="23.52" y="88.42" width="25.28" height="0.51" transform="translate(-35.97 25.68) rotate(-26.68)"/><rect class="cls-2" x="21.22" y="93.85" width="29.87" height="0.51" transform="translate(-48.36 39.15) rotate(-35.95)"/><rect class="cls-2" x="18.64" y="100.65" width="35.97" height="0.51" transform="translate(-60.83 55.89) rotate(-45.26)"/><path class="cls-2" d="M26.17,119.12c.92-1,22.55-23.73,24.27-28.06L50,90.87C48.28,95.11,26,118.54,25.8,118.77Z"/><path class="cls-5" d="M39.06,75.74c2.38-.33,5.38,1.87,5.38,1.87l-1.73,9.46A16.25,16.25,0,0,1,39.06,75.74Z"/><path class="cls-6" d="M42.52,87.22a16.55,16.55,0,0,1-3.72-11.5l0-.2.2,0c2.46-.35,5.44,1.82,5.57,1.91l.12.1L42.86,87.66ZM39.3,76a16,16,0,0,0,3.27,10.49l1.59-8.74C43.59,77.33,41.24,75.82,39.3,76Z"/><path class="cls-5" d="M39,76.73c0-4.29,1.78-7.82,3.7-8.85a12.15,12.15,0,0,0,4.4,1L45.23,79.75C43.12,79.62,40.47,78.79,39,76.73Z"/><path class="cls-6" d="M45.21,80c-1-.06-4.54-.47-6.4-3.12l0-.07v-.08c0-4.62,1.94-8.06,3.83-9.07l.1-.06.11.05a11.68,11.68,0,0,0,4.31,1h.3L45.44,80ZM42.74,68.16c-1.68,1-3.43,4.24-3.47,8.49,1.63,2.25,4.58,2.73,5.75,2.83l1.8-10.32A12.35,12.35,0,0,1,42.74,68.16Z"/><path class="cls-7" d="M45.15,83.65c2.06,1.81,3.39,6.56,3.89,8.64a19.53,19.53,0,0,1-8.57-8.85C41.88,82.8,43.72,82.4,45.15,83.65Z"/><path class="cls-5" d="M45.15,83.65a10.88,10.88,0,0,1,2.45,4,17.44,17.44,0,0,1-4.11.3,17.46,17.46,0,0,1-3-4.53C41.88,82.8,43.72,82.4,45.15,83.65Z"/><path class="cls-6" d="M48.92,92.51a19.8,19.8,0,0,1-8.68-9l-.11-.23.23-.11c2-.9,3.73-.81,5,.26,2.13,1.87,3.49,6.76,4,8.77l.13.57Zm-8.11-9a19.19,19.19,0,0,0,7.84,8.21c-.57-2.2-1.83-6.31-3.67-7.93a3.66,3.66,0,0,0-3.89-.39Z"/><path class="cls-5" d="M43.65,78.17a3.66,3.66,0,0,0-2.23,5.15c1.11,2.66,4.87,4.14,9.21-1.16C50.2,78.8,43.65,78.17,43.65,78.17Z"/><path class="cls-6" d="M41.19,83.42A4.09,4.09,0,0,1,41,80.15,4.5,4.5,0,0,1,43.5,78l.07,0,0,0h.06c.27,0,6.75.69,7.2,4.2v.11l-.06.09a10.4,10.4,0,0,1-4.21,3.33A4.08,4.08,0,0,1,41.19,83.42Zm2.49-5h0a3.94,3.94,0,0,0-2.17,1.92,3.81,3.81,0,0,0,4.94,4.83,9.76,9.76,0,0,0,3.91-3.1C49.86,79.21,44.3,78.5,43.68,78.43Z"/><path class="cls-5" d="M45.6,71.05s-4.56,1.78-4.05,5.1,2.23,7.47,9.26,4.32c1.45-2.16,1.73-6.77,1.73-6.77Z"/><path class="cls-6" d="M44,81.23c-1.43-.84-2.31-2.49-2.71-5-.54-3.48,4-5.3,4.21-5.38l.09,0,7.2,2.76v.18c0,.2-.29,4.71-1.77,6.9l0,.06-.06,0-1.08.44C47.41,82,45.45,82.07,44,81.23Zm8.26-7.36-6.66-2.55c-.62.27-4.24,2-3.81,4.8C42.17,78.5,43,80,44.27,80.79c1.48.87,3.63.69,6.37-.52C51.84,78.41,52.2,74.73,52.27,73.87Z"/><path class="cls-7" d="M51.09,93.34a26.65,26.65,0,0,1-4.51-2.63,17.56,17.56,0,0,1-.74-5.42c0-3.08,4.66-3.72,4.66-3.72l5.11,2.34-.25,7.85C54,92.2,52.62,92.72,51.09,93.34Z"/><path class="cls-5" d="M50.5,81.57l5.11,2.34,0,.86A29.56,29.56,0,0,1,46,87.9a21.37,21.37,0,0,1-.14-2.61C45.87,82.21,50.5,81.57,50.5,81.57Z"/><path class="cls-6" d="M55.44,92c-1.3.43-2.71,1-4.26,1.58l-.1,0-.1-.05a27.15,27.15,0,0,1-4.55-2.65l-.06,0,0-.08a17.41,17.41,0,0,1-.75-5.51c0-1.94,1.7-3,3.1-3.49a10.16,10.16,0,0,1,1.78-.47h.07l5.33,2.44L55.6,92Zm-5-10.16c-.57.09-4.35.82-4.37,3.45a16.86,16.86,0,0,0,.7,5.27,27,27,0,0,0,4.29,2.51c1.45-.59,2.79-1.08,4-1.49l.24-7.51Z"/><path class="cls-5" d="M46.77,74.67c-3.77-1.54-3.2-4.6-2.56-6.25,3.67,1.12,6,.24,8-1.64l1.57,4.74S52.08,76.84,46.77,74.67Z"/><path class="cls-6" d="M46.67,74.9c-4.1-1.67-3.25-5.15-2.69-6.57l.08-.22.23.07a7.92,7.92,0,0,0,5.17.09,7.73,7.73,0,0,0,2.6-1.68l.28-.27,1.73,5.2,0,.08a6,6,0,0,1-3.26,3.56h0A5.57,5.57,0,0,1,46.67,74.9Zm5.44-7.68a7.92,7.92,0,0,1-2.47,1.53,8.24,8.24,0,0,1-5.27,0c-.58,1.62-.9,4.32,2.49,5.7a5.08,5.08,0,0,0,3.75.26h0a5.55,5.55,0,0,0,2.92-3.17Z"/><path class="cls-5" d="M52.91,72.75s-5.79,3.59-4,7.81,7.49,5.15,10.45,3.15c2.27-3.82.41-9.08.41-9.08Z"/><path class="cls-6" d="M48.63,80.66c-1.81-4.37,3.9-8,4.14-8.12l.1-.06,7.06,1.94,0,.13c.08.22,1.87,5.41-.44,9.29l0,0,0,0a5.63,5.63,0,0,1-1.2.61C55,85.75,50.21,84.46,48.63,80.66Zm10.9-5.82L53,73c-.72.47-5.38,3.75-3.85,7.43s5.91,4.73,9,3.59a5.14,5.14,0,0,0,1.05-.52C61.08,80.18,59.79,75.65,59.53,74.84Z"/><path class="cls-5" d="M62.78,74.58a12.36,12.36,0,0,1-9.15.61c-3.71-1.26-3.59-5.16-3.29-7,2.18-1.15,3.8-3.49,5.71-6.15l5,3.49Z"/><path class="cls-6" d="M53.55,75.43c-3.95-1.34-3.74-5.56-3.46-7.31l0-.13.11-.06c2.05-1.07,3.61-3.25,5.41-5.77l.36-.5,5.27,3.69,1.8,9.37-.16.09a9.59,9.59,0,0,1-1,.44h0A12.6,12.6,0,0,1,53.55,75.43Zm7.25-9.78-4.69-3.29-.07.1c-1.81,2.52-3.37,4.71-5.47,5.86-.3,2-.25,5.48,3.14,6.63a12,12,0,0,0,8-.18,7.26,7.26,0,0,0,.78-.33Z"/><path class="cls-7" d="M59,81.89l2.24,8.4a45,45,0,0,0-9.58,2.82C48.08,85.16,59,81.89,59,81.89Z"/><path class="cls-5" d="M59,81.89l.29,1.1c-2.36,1.11-4.67,2.3-7,3.24C54.57,83.22,59,81.89,59,81.89Z"/><path class="cls-6" d="M61.28,90.54a41.6,41.6,0,0,0-7.94,2.2l-1.59.61-.22.09-.1-.22a6.8,6.8,0,0,1-.26-5.58c1.4-3.35,5.46-5.16,7.13-5.78.39-.14.62-.21.63-.21l.25-.08,2.38,8.93Zm-2.8-8.2c-1.62.6-5.52,2.33-6.85,5.5a6.25,6.25,0,0,0,.16,5l1.37-.53a42.19,42.19,0,0,1,7.77-2.17l-2.11-7.88Z"/><path class="cls-7" d="M60,73.27s-6.3,4.51-4.52,8.58S58.65,88.24,66,86.06a23.09,23.09,0,0,0-.47-7.8Z"/><path class="cls-5" d="M60,73.27l5.5,5a15.6,15.6,0,0,1,.4,2.19,53.12,53.12,0,0,0-9.23,3.8,21.48,21.48,0,0,1-1.19-2.4C53.69,77.78,60,73.27,60,73.27Z"/><path class="cls-6" d="M66,86.31c-7.48,2.22-9-.21-10.79-4.36s4.34-8.69,4.61-8.88L60,73l5.71,5.17,0,.07a23.21,23.21,0,0,1,.47,7.9l0,.17ZM60,73.6c-1,.74-5.8,4.67-4.28,8.15,1.75,4,3.08,6.14,10,4.12a23.33,23.33,0,0,0-.45-7.47Z"/><path class="cls-5" d="M62.51,64.77s-6.63,4.35-4.4,9.61,6.87,5.42,10.56,3,1.48-7.3,1.48-7.3Z"/><path class="cls-6" d="M57.87,74.48c-2.28-5.39,4.44-9.88,4.5-9.92l.15-.1,7.83,5.42,0,.06s2.25,5.08-1.57,7.62a10.38,10.38,0,0,1-2.06,1.07C62.89,80.06,59.57,78.51,57.87,74.48Zm4.64-9.4c-.92.66-6.11,4.62-4.17,9.2,1.58,3.75,4.66,5.2,8.23,3.87a9.59,9.59,0,0,0,2-1C71.81,75,70.19,70.8,70,70.21Z"/><path class="cls-1" d="M123.74,19.61S111.33,5.83,95.05,3.49c-6.47.78-36.25,18.86-42.33,52.75C55.93,56.13,61.2,58,61.2,58S88.69,26.4,123.74,19.61Z"/><path class="cls-3" d="M95.05,3.49c13.23,1.9,23.9,11.36,27.44,14.83-27.42-5.94-48.76,18.53-67,35.76a9.83,9.83,0,0,1-2.74,1.86C59,22.25,88.6,4.27,95.05,3.49Z"/><path class="cls-4" d="M106.72,9.93C101.8,9.05,97,7.85,92.28,9.61,77.1,15,66.91,27.22,57.56,40.54c10.58-23.76,32.11-36.4,37.49-37,9.89,1.42,18.36,7.07,23.48,11.28C114.19,13.76,110.87,10.59,106.72,9.93Z"/><path class="cls-2" d="M61.12,58.2s-5.27-1.81-8.39-1.71h-.31l0-.31A72.6,72.6,0,0,1,71.21,19.68C79,11.39,87.63,5.76,92.78,3.85A10.34,10.34,0,0,1,95,3.24h.07c16.18,2.33,28.71,16.06,28.84,16.2l.3.33-.44.08a82.5,82.5,0,0,0-12.92,3.67C82.62,34,61.6,57.88,61.39,58.12l-.11.13Zm62.12-38.75c-2-2.11-13.61-13.59-28.19-15.7A10.62,10.62,0,0,0,93,4.32C87.87,6.21,79.28,11.8,71.58,20,64.79,27.28,56.08,39.39,53,56a31.6,31.6,0,0,1,8.09,1.68C62.83,55.75,83.4,33.17,110.7,23A82.7,82.7,0,0,1,123.24,19.45Z"/><path class="cls-2" d="M118.34,21l.35-.37C106.38,8.67,90.49,5,90.33,5l-.11.49C90.37,5.53,106.13,9.13,118.34,21Z"/><path class="cls-2" d="M112.13,22.83l.33-.38C103.12,14.25,87.17,7,87,6.89l-.21.46C87,7.43,102.84,14.68,112.13,22.83Z"/><path class="cls-2" d="M106,25.4l.36-.36A74.13,74.13,0,0,0,83.05,9.41l-.18.47A73.46,73.46,0,0,1,106,25.4Z"/><path class="cls-2" d="M100,27.81l.41-.31c-7.51-9.71-21.2-14.95-21.33-15l-.18.47C79.06,13,92.62,18.21,100,27.81Z"/><path class="cls-2" d="M95.49,30.46l.37-.34A47,47,0,0,0,74.23,16.8l-.11.5A46.53,46.53,0,0,1,95.49,30.46Z"/><path class="cls-2" d="M90.62,33.36,91,33c-10.65-11-20.36-12.38-20.46-12.4l-.07.5C70.55,21.13,80.1,22.54,90.62,33.36Z"/><path class="cls-2" d="M86.47,36.16l.37-.35C75.92,24.26,67.92,23.9,67.58,23.89v.51C67.65,24.4,75.71,24.78,86.47,36.16Z"/><path class="cls-2" d="M82.91,38.67l.34-.37c-12.34-11.23-18.68-10-19-10l.11.5-.06-.25.06.25C64.47,28.82,70.81,27.66,82.91,38.67Z"/><path class="cls-2" d="M79.68,41.14l.33-.39C72.5,34.3,61.81,32.5,61.7,32.49l-.08.5C61.73,33,72.28,34.78,79.68,41.14Z"/><path class="cls-2" d="M75.39,44.63l.32-.4a33.18,33.18,0,0,0-16.52-7.41l0,.51A32.5,32.5,0,0,1,75.39,44.63Z"/><path class="cls-2" d="M71.63,47.83l.31-.4C63.86,40.91,57.5,41,57.24,41v.51C57.31,41.48,63.7,41.43,71.63,47.83Z"/><path class="cls-2" d="M68.77,50.39l.31-.4a21.93,21.93,0,0,0-13.52-4.8l0,.51A21.38,21.38,0,0,1,68.77,50.39Z"/><path class="cls-2" d="M66.33,52.7l.28-.42a19,19,0,0,0-12.38-3.05l.08.5A18.55,18.55,0,0,1,66.33,52.7Z"/><path class="cls-2" d="M63.47,55.63l.24-.45a19.45,19.45,0,0,0-10.34-2.46l.06.5A19.29,19.29,0,0,1,63.47,55.63Z"/><path class="cls-7" d="M72.34,90.52l-1.28-.18A31.3,31.3,0,0,0,57.84,91C61.4,80.17,68.64,86.33,72.34,90.52Z"/><path class="cls-6" d="M72.3,90.77,71,90.59a30.88,30.88,0,0,0-13.12.67l-.45.12.14-.44c1.07-3.26,2.57-5.27,4.45-6,3.57-1.32,7.67,2.2,10.48,5.38l.45.51Zm-14.07-.12a31.35,31.35,0,0,1,12.86-.56l.6.08c-2.31-2.5-6.22-5.92-9.46-4.72C60.58,86.06,59.24,87.81,58.23,90.65Z"/><path class="cls-7" d="M69.58,74.72S61,79.66,62.08,84s9.29,7.91,14.56,3.92c.89-3.44-2.31-8.06-2.31-8.06Z"/><path class="cls-5" d="M69.58,74.72l4.2,4.54c-1.85.19-3.72.42-5.68.69a28.13,28.13,0,0,0-5.78,1.71C63.79,78.06,69.58,74.72,69.58,74.72Z"/><path class="cls-6" d="M65.87,88.53a7.54,7.54,0,0,1-4-4.48c-1.1-4.47,7.27-9.35,7.63-9.55l.17-.1,4.88,5.28,0,0c.13.2,3.25,4.76,2.35,8.27l0,.09-.07,0a8.4,8.4,0,0,1-2.2,1.2A10.87,10.87,0,0,1,65.87,88.53ZM74.13,80l-4.59-5c-1.2.72-8.14,5.12-7.22,8.89a7.2,7.2,0,0,0,3.79,4.16,10.4,10.4,0,0,0,8.31.75,8.21,8.21,0,0,0,2-1.08C77.17,84.58,74.32,80.29,74.13,80Z"/><path class="cls-5" d="M62.6,66.81c-6.41,4.28-9.16,1.58-10.19-.21,1.85-1.81,3.43-4.46,5.55-7.17Q60.12,56.58,62.3,54C64.84,56.55,69.27,62.36,62.6,66.81Z"/><path class="cls-8" d="M53.73,65.13c1.33-1.64,2.63-3.65,4.23-5.7Q60.12,56.58,62.3,54a16.45,16.45,0,0,1,2.42,3,58.5,58.5,0,0,0-8.4,6.5A8.53,8.53,0,0,1,53.73,65.13Z"/><path class="cls-6" d="M52.19,66.73l-.1-.17.14-.14a32.57,32.57,0,0,0,3.4-4.25c.67-.94,1.36-1.91,2.13-2.89,1.41-1.85,2.87-3.69,4.35-5.46l.18-.21.19.2c1.58,1.59,4.18,4.75,3.85,8-.2,2-1.41,3.71-3.59,5.17a16.29,16.29,0,0,1-3.37,1.78h0C55.07,70.4,53,68.19,52.19,66.73Zm6-7.14c-.76,1-1.45,1.94-2.12,2.87a35.05,35.05,0,0,1-3.31,4.18c1,1.56,2.84,3,6.47,1.69h0a16.49,16.49,0,0,0,3.25-1.73c2.06-1.37,3.2-3,3.38-4.8.29-2.95-2-5.85-3.51-7.44C60.9,56.06,59.51,57.82,58.16,59.59Z"/><path class="cls-5" d="M63,54.73s-6.65,10.85.07,14,8.87-1.94,8.87-1.94l-1.51-9.17Z"/><path class="cls-8" d="M63,54.73,66.17,56c-1.81,1.31-3.67,2.53-5.47,3.85A25.38,25.38,0,0,1,63,54.73Z"/><path class="cls-6" d="M62.94,69a5.13,5.13,0,0,1-2.87-3.28c-1.34-4.47,2.53-10.84,2.69-11.11l.11-.18,7.77,3,1.55,9.39,0,.07a5.51,5.51,0,0,1-3,2.78C67.39,70.35,65.31,70.11,62.94,69Zm7.25-11.16-7.1-2.78c-.63,1.07-3.69,6.67-2.54,10.52a4.67,4.67,0,0,0,2.61,3c2.23,1.06,4.18,1.3,5.79.7a5.11,5.11,0,0,0,2.71-2.45Z"/><path class="cls-5" d="M70.07,65.48s-5.7,4.28-3.15,11.17,11.61,1.77,12.62.86c.47-2.74-3.33-9.71-3.33-9.71Z"/><path class="cls-6" d="M66.69,76.74c-2.6-7,3.17-11.42,3.23-11.47l.11-.08,6.35,2.4.05.09c.16.28,3.84,7.07,3.36,9.87v.09l-.07.06a14.38,14.38,0,0,1-3.66,1.93C73.33,80.64,68.49,81.61,66.69,76.74ZM76,68l-5.91-2.23a9.49,9.49,0,0,0-3,10.79c1.65,4.46,6.17,3.54,8.71,2.59a14.67,14.67,0,0,0,3.44-1.77C79.64,74.85,76.45,68.78,76,68Z"/><path class="cls-7" d="M73.36,84.53c4-2.26,9.42,3.65,12.22,7.29-6.92-.44-12.34-1.18-14.52-1.48l-1.31-.16A6.3,6.3,0,0,1,73.36,84.53Z"/><path class="cls-6" d="M85.56,92.07c-6.9-.44-12.23-1.16-14.51-1.47h0l-1.31-.16-.23,0v-.23a6.58,6.58,0,0,1,3.75-5.87,4.53,4.53,0,0,1,.59-.28c4.13-1.53,9.26,4.13,12,7.64l.34.44ZM73.49,84.75A6.08,6.08,0,0,0,70,90l1.08.13h0c2.21.3,7.3,1,13.91,1.43-2.68-3.41-7.36-8.38-11-7A4.9,4.9,0,0,0,73.49,84.75Z"/><path class="cls-7" d="M77.58,73S71,78.12,73.26,83.89s11,5.65,12.22,4.52,1.22-9.1,1.22-9.1Z"/><path class="cls-5" d="M77.58,73l7.48,5.21a16.23,16.23,0,0,1-3.61.61c-2.88,0-5.59.25-8.37.55A14.54,14.54,0,0,1,77.58,73Z"/><path class="cls-6" d="M79,88.82A8.44,8.44,0,0,1,73,84c-2.33-5.89,4.33-11.17,4.4-11.23l.15-.11L87,79.18v.13c0,.83,0,8.12-1.3,9.29a1.86,1.86,0,0,1-.57.33A11.48,11.48,0,0,1,79,88.82ZM77.6,73.28c-.94.79-6.1,5.45-4.1,10.52s9.25,5.45,11.4,4.65a1.34,1.34,0,0,0,.41-.22c.81-.76,1.12-5.62,1.14-8.79Z"/><path class="cls-5" d="M72.51,55.65s-6.58,4.47-3.82,11.56,11.48,2.9,11.48,2.9l1.28-7.5Z"/><path class="cls-6" d="M68.45,67.3c-2.8-7.19,3.85-11.81,3.92-11.86l.15-.1,9.2,7.16L80.4,70.28l-.12.06s-.32.15-.85.35C77.45,71.42,70.81,73.35,68.45,67.3Zm12.72-4.58L72.51,56c-1,.71-6,4.92-3.58,11.15,2.13,5.46,7.93,4,10.32,3.1.32-.12.56-.23.7-.29Z"/><path class="cls-5" d="M79.87,62.38s-7.55,5.51-4.63,12.27,12.73,3,12.73,3l.23-7.38Z"/><path class="cls-6" d="M75,74.75c-3-6.87,4.65-12.52,4.72-12.57l.17-.13,8.56,8.08-.24,7.67-.19.07C87.61,78,77.93,81.53,75,74.75Zm4.86-12c-1.08.86-7,5.89-4.39,11.84s11,3.31,12.25,2.89l.22-7.09Z"/><path class="cls-7" d="M94.07,80.23l3.65,11.93c-5.78.06-11.26-.23-15.79-.61a9.83,9.83,0,0,1-.07-6C83.82,78.49,94.07,80.23,94.07,80.23Z"/><path class="cls-6" d="M97.72,92.41c-5,.06-10.3-.15-15.81-.61h-.17l0-.16a10.22,10.22,0,0,1-.08-6.13,7.15,7.15,0,0,1,4.71-4.91A17.12,17.12,0,0,1,94.11,80l.15,0,3.8,12.41ZM86.5,81.07a6.65,6.65,0,0,0-4.4,4.57,9.68,9.68,0,0,0,0,5.67c5.31.44,10.44.64,15.25.6l-3.5-11.46A16.81,16.81,0,0,0,86.5,81.07Z"/><path class="cls-7" d="M95.22,69.12S81.1,67.87,83.43,80c1.41,6,8.94,5.88,10.64,5C96.06,82.32,97.07,73,95.22,69.12Z"/><path class="cls-5" d="M95.22,69.12c1,2.14,1.17,5.88.78,9.27a61.9,61.9,0,0,0-10.48-.31c-.73.12-1.5.34-2.29.5C82.22,68,95.22,69.12,95.22,69.12Z"/><path class="cls-6" d="M86.65,84.54A6.63,6.63,0,0,1,83.19,80C82,73.6,85.32,70.9,88.36,69.77a17.87,17.87,0,0,1,6.88-.9h.14l.07.13c1.87,3.95.88,13.38-1.18,16.1l0,0,0,0a1.57,1.57,0,0,1-.29.13A10.17,10.17,0,0,1,86.65,84.54Zm8.4-15.18a17.5,17.5,0,0,0-6.51.89c-4.16,1.54-5.8,4.8-4.86,9.67a6.17,6.17,0,0,0,3.21,4.17,9.73,9.73,0,0,0,6.82.75l.19-.08C95.8,82.16,96.73,73.16,95.05,69.36Z"/><path class="cls-5" d="M74.28,58.24s-6.32,5.18-10,3.42c-2.4-1.16-3-4.28-3.2-6.26,2.49-3,5-5.86,7.47-8.46l4.85,2.15Z"/><path class="cls-8" d="M61.13,55.4c2.49-3,5-5.86,7.47-8.46l4.85,2.15,0,.26c-.66.65-1.31,1.32-1.93,2-2.92,3.12-6.31,5.25-9.61,7.57A11.94,11.94,0,0,1,61.13,55.4Z"/><path class="cls-6" d="M64.22,61.89c-2.55-1.24-3.19-4.59-3.34-6.47v-.1l.07-.08c2.42-3,4.94-5.83,7.48-8.47l.12-.13,5.15,2.27.86,9.44-.11.08a22.23,22.23,0,0,1-5.56,3.27h0A6,6,0,0,1,64.22,61.89Zm9-12.63-4.55-2c-2.46,2.57-4.91,5.34-7.26,8.23.15,1.79.76,4.84,3,6a5.45,5.45,0,0,0,4.27-.21h0A22.32,22.32,0,0,0,74,58.13Z"/><path class="cls-5" d="M76.61,45.57s-8,4.07-6.27,9.81,7.17,7.43,11.93,5.21a11.05,11.05,0,0,0,1.16-10Z"/><path class="cls-6" d="M74.52,61a8.75,8.75,0,0,1-4.43-5.5c-1.81-5.87,6.32-10.06,6.4-10.11l.14-.07,7,5.13.06,0,0,.07a11.42,11.42,0,0,1-1.19,10.22l0,.06-.06,0c-.27.12-.54.24-.81.34A8.87,8.87,0,0,1,74.52,61Zm8.7-10.18-6.63-4.9c-1,.57-7.57,4.37-6,9.43a8.21,8.21,0,0,0,4.16,5.19,8.34,8.34,0,0,0,6.66.19c.23-.09.47-.18.7-.29A10.87,10.87,0,0,0,83.22,50.77Z"/><path class="cls-5" d="M74.26,51.4a6.93,6.93,0,0,1-8.88-1A121.37,121.37,0,0,1,76.66,39.29C77.53,42.25,78.75,48.64,74.26,51.4Z"/><path class="cls-8" d="M65.38,50.43A121.37,121.37,0,0,1,76.66,39.29a18.13,18.13,0,0,1,.78,6.54,49.62,49.62,0,0,0-5.89,5.54c-.4.42-.8.83-1.22,1.22A7.54,7.54,0,0,1,65.38,50.43Z"/><path class="cls-6" d="M65.21,50.61,65,50.44l.17-.18A122.26,122.26,0,0,1,76.49,39.1l.3-.26.11.38c.81,2.76,2.19,9.51-2.5,12.39a9,9,0,0,1-1.59.78h0A7.23,7.23,0,0,1,65.21,50.61Zm.53-.2a6.6,6.6,0,0,0,6.9,1.51h0a8.6,8.6,0,0,0,1.49-.74c4.2-2.58,3.17-8.59,2.39-11.44A123,123,0,0,0,65.74,50.41Z"/><path class="cls-5" d="M85.13,50.07c-3,2.37-6.91,2-10-1.08a7.48,7.48,0,0,1-.43-8Q76.9,39,79,37.29L86,39.75S88.12,47.7,85.13,50.07Z"/><path class="cls-8" d="M74.74,41Q76.9,39,79,37.29L86,39.75s0,.06,0,.15c-.71.38-1.41.77-2.07,1.19a74.89,74.89,0,0,0-9.27,7.12A7.57,7.57,0,0,1,74.74,41Z"/><path class="cls-6" d="M75,49.16l0,0a7.7,7.7,0,0,1-.46-8.27l0,0,0,0c1.4-1.26,2.85-2.51,4.31-3.7L79,37l7.2,2.55,0,.13c.09.33,2.14,8.14-1,10.59a7.44,7.44,0,0,1-2.06,1.17h0C80.47,52.46,77.39,51.61,75,49.16Zm4.1-11.58c-1.4,1.14-2.79,2.34-4.14,3.56-1.36,2.83-1.22,5.41.42,7.68C77.65,51.15,80.45,51.93,83,51h0A6.91,6.91,0,0,0,85,49.87c2.63-2.08,1-8.91.8-9.93Z"/><path class="cls-5" d="M88.11,43.78c-7,1.32-9.11-3-9.75-5.93a101,101,0,0,1,12.13-8.66C93.47,33.47,94.74,42.41,88.11,43.78Z"/><path class="cls-8" d="M78.36,37.85a101,101,0,0,1,12.13-8.66A14.73,14.73,0,0,1,92.75,35a21.67,21.67,0,0,0-2.67,2.17c-1.79,1.75-4.16,2.63-6.13,3.9-.86.57-1.71,1.16-2.54,1.75A7.89,7.89,0,0,1,78.36,37.85Z"/><path class="cls-6" d="M88.16,44c-7.29,1.37-9.43-3.25-10-6.12l0-.15.12-.1A100.68,100.68,0,0,1,90.36,29l.2-.13.13.2c1.83,2.62,3.18,7.31,2.08,10.83a5.78,5.78,0,0,1-3.57,3.85h0A8.36,8.36,0,0,1,88.16,44ZM78.64,38c.75,3.25,3,6.79,9.42,5.58a6.73,6.73,0,0,0,1-.27h0a5.2,5.2,0,0,0,3.26-3.53c1-3.29-.18-7.64-1.87-10.2A101.58,101.58,0,0,0,78.64,38Z"/><path class="cls-5" d="M84.85,50.67S76,53.29,77.12,61.51c1.27,5.61,7.7,8.36,10,8,2.87-2.82,4-10.11,4-10.11Z"/><path class="cls-6" d="M87.17,69.8c-2.43.34-9-2.5-10.3-8.25-1-7.23,5.45-10.23,7.45-11l.46-.16.17-.05,6.4,9,0,.1c0,.31-1.12,7.41-4,10.26l-.06.06ZM84.75,51l-.25.09c-1.92.72-8.1,3.57-7.13,10.41,1.22,5.38,7.29,8.09,9.65,7.85,2.55-2.59,3.65-8.94,3.8-9.81Z"/><path class="cls-7" d="M97.69,85.86c4,0,8.84,3.76,11,5.69a128.69,128.69,0,0,1-17.07.55C92.43,89.57,94.14,85.88,97.69,85.86Z"/><path class="cls-6" d="M108.76,91.8a129.54,129.54,0,0,1-17.1.56h-.33l.1-.32c.68-2.27,2-5.17,4.56-6.12a5.07,5.07,0,0,1,1.7-.3c4,0,8.75,3.6,11.21,5.75l.44.38ZM92,91.86a131.58,131.58,0,0,0,16.11-.5c-2.17-1.84-6.7-5.26-10.43-5.24a4.36,4.36,0,0,0-1.53.27C93.94,87.22,92.68,89.75,92,91.86Z"/><path class="cls-7" d="M95.65,74.55s-6.72,5.19-4,10.66,14.07,3.43,14.07,3.43l-3.41-9.19Z"/><path class="cls-5" d="M101.42,78.78c-3-.12-6-.47-9-.67a15.79,15.79,0,0,1,3.2-3.56Z"/><path class="cls-6" d="M105.8,88.89c-.47.08-11.54,2-14.34-3.56s4-10.93,4-11l.15-.12,6.9,5.06,3.54,9.55Zm-10.14-14c-1,.8-6.15,5.45-3.75,10.23s11.7,3.61,13.5,3.34l-3.28-8.83Z"/><path class="cls-5" d="M88.93,40.91s-10.25,5.15-8.28,11.18,8,10.16,13.64,7.24,2.84-10.92,2.84-10.92Z"/><path class="cls-6" d="M86.62,59.64a12.65,12.65,0,0,1-6.21-7.47c-2-6.17,8-11.28,8.41-11.49L89,40.6l8.36,7.66,0,.06c0,.09,2.85,8.25-3,11.23a8.45,8.45,0,0,1-7.78.09Zm2.27-18.43c-1.26.68-9.75,5.45-8,10.8a12.11,12.11,0,0,0,6,7.17,8,8,0,0,0,7.33-.08c5.16-2.65,3-9.83,2.74-10.55Z"/><path class="cls-5" d="M90.58,57.73s-7.84,7.64-5.42,12.69,8.31,6.38,14.19,3.65c5-2.81-1-11.39-1-11.39Z"/><path class="cls-6" d="M84.93,70.53c-2.47-5.15,5.15-12.66,5.48-13l.14-.14,8,5.08,0,0c.15.22,3.75,5.41,2.91,9.12a3.93,3.93,0,0,1-2,2.65c-.4.19-.81.36-1.21.51C92.52,76.93,87.17,75.22,84.93,70.53Zm5.69-12.48c-1,1.06-7.37,7.8-5.23,12.26s7.22,6,12.68,4c.39-.14.79-.31,1.16-.48A3.42,3.42,0,0,0,101,71.53c.76-3.32-2.47-8.17-2.8-8.66Z"/><path class="cls-5" d="M95.85,32.84S83.45,40.69,87,46.77s13,4.53,13,4.53L102.63,39Z"/><path class="cls-6" d="M100,51.55c-.09,0-9.73,1.51-13.29-4.65s8.45-13.95,9-14.27l.16-.11,7,6.36-2.7,12.65ZM95.83,33.16C94.4,34.1,84,41.21,87.19,46.65s11.32,4.59,12.6,4.43l2.57-12Z"/><path class="cls-5" d="M97.2,49.1S88,53,89.55,60.05s16.88,7.61,16.88,7.61S103,52,97.2,49.1Z"/><path class="cls-6" d="M106.42,67.91c-.63,0-15.57-.69-17.12-7.81S97,48.91,97.1,48.87l.11,0,.11,0c5.8,2.93,9.22,18.09,9.36,18.74l.07.32ZM89.8,60c1.34,6.17,14.07,7.25,16.31,7.39-.53-2.24-3.84-15.29-8.92-18C96.18,49.85,88.43,53.68,89.8,60Z"/><path class="cls-5" d="M105.16,39.48S92.55,44.34,94.25,51.82,104.64,60.4,107,60.05C111.27,54,105.16,39.48,105.16,39.48Z"/><path class="cls-6" d="M107.07,60.3c-2.77.4-11.36-.89-13.07-8.42s10.55-12.44,11.07-12.64l.23-.09.1.23c.25.6,6.1,14.69,1.84,20.81l-.06.09ZM94.49,51.76c1.62,7.15,10,8.33,12.4,8.05,3.7-5.52-1.12-18.13-1.87-20C103.33,40.51,93,45.13,94.49,51.76Z"/><path class="cls-7" d="M100.12,83.79c0-7,12.9-8.57,12.9-8.57l4.55,14.94a89.93,89.93,0,0,1-12.72,1.73C102.43,89.88,100.14,87.11,100.12,83.79Z"/><path class="cls-6" d="M117.62,90.4a88.45,88.45,0,0,1-12.76,1.74h-.1l-.08-.06c-3.18-2.64-4.8-5.43-4.81-8.29,0-3.07,2.4-5.6,7-7.3A29.9,29.9,0,0,1,113,75l.21,0,4.69,15.41ZM107,77c-3,1.13-6.67,3.24-6.66,6.83,0,2.68,1.55,5.32,4.56,7.84A88.84,88.84,0,0,0,117.24,90l-4.4-14.47A30.1,30.1,0,0,0,107,77Z"/><path class="cls-7" d="M100.32,63.8S91.24,69,92.49,74.28s7.41,8.78,14,6.69C110.52,74.79,100.32,63.8,100.32,63.8Z"/><path class="cls-5" d="M92.49,74.28C91.24,69,100.32,63.8,100.32,63.8s7.89,8.5,7.06,14.75c-.88.1-1.77.19-2.67.25a86.58,86.58,0,0,1-10.06-.52A8.89,8.89,0,0,1,92.49,74.28Z"/><path class="cls-6" d="M106.58,81.21a12,12,0,0,1-9.68-.84,9.46,9.46,0,0,1-4.66-6c-1.27-5.43,7.57-10.54,8-10.76l.18-.1.13.15c.42.46,10.3,11.21,6.22,17.48l0,.07Zm-13.84-7a9,9,0,0,0,4.41,5.71,11.53,11.53,0,0,0,9.19.83c3.49-5.57-4.89-15.3-6.07-16.63C99,64.88,91.64,69.56,92.74,74.22Z"/><path class="cls-5" d="M109.42,57.5s-11,1.25-12,5.81S101.9,74.75,106,75s9.51-10.42,9.51-10.42Z"/><path class="cls-6" d="M106,75.22c-2-.11-4.53-1.77-6.48-4.33s-2.89-5.47-2.41-7.63c.39-1.75,2.15-3.21,5.25-4.36a35.11,35.11,0,0,1,7-1.66h.13l6.33,7.28-.07.15c-.19.36-4.52,8.88-8.48,10.35A3.08,3.08,0,0,1,106,75.22Zm3.29-17.46a33.81,33.81,0,0,0-6.75,1.61c-2.93,1.09-4.59,2.43-4.94,4-.44,2,.43,4.71,2.33,7.21s4.22,4,6.09,4.14a2.61,2.61,0,0,0,1.07-.19c3.5-1.29,7.52-8.78,8.13-10Z"/><path class="cls-5" d="M105.74,25.74s-14.39,3.46-11.22,12,14.76,2.63,14.76,2.63Z"/><path class="cls-6" d="M94.28,37.84c-2.34-6.32,4.44-9.91,8.69-11.48a25.53,25.53,0,0,1,2.71-.86l.25-.06,3.65,15.08-.18.09s-.75.38-1.89.8C104.37,42.58,96.78,44.57,94.28,37.84Zm11.28-11.79c-.41.12-1.31.37-2.41.78-4.08,1.51-10.58,4.93-8.39,10.83,2.25,6.07,8.85,4.66,12.58,3.27.78-.29,1.37-.56,1.65-.69Z"/><path class="cls-5" d="M99.11,35.78c-8.94,2.95-11.72-1.09-12.57-4.06a87.31,87.31,0,0,1,19.51-10C107.45,25.84,108.22,32.77,99.11,35.78Z"/><path class="cls-8" d="M86.54,31.72a87.31,87.31,0,0,1,19.51-10,12.35,12.35,0,0,1,.43,7.51,65.61,65.61,0,0,0-11.94,4.65,19.64,19.64,0,0,0-3.62,2.52A6.56,6.56,0,0,1,86.54,31.72Z"/><path class="cls-6" d="M99.18,36c-4,1.33-7.21,1.39-9.51.18a7,7,0,0,1-3.38-4.41l-.05-.18.15-.1A88.17,88.17,0,0,1,105,21.86l.93-.34.24-.09.09.24c1.33,3.89,2.26,10.89-6.44,14.11h0Zm6-13.69a88.18,88.18,0,0,0-18.38,9.49,6.5,6.5,0,0,0,3.08,3.93c2.17,1.14,5.23,1.07,9.12-.21l.65-.23h0c8.11-3,7.43-9.48,6.21-13.23Z"/><path class="cls-5" d="M111.13,30.78s-13.92,4.75-10.9,12.15,10.53,8,16,5C119.73,42.31,111.13,30.78,111.13,30.78Z"/><path class="cls-6" d="M100,43a5.55,5.55,0,0,1,.06-4.48c2-4.48,9.25-7.37,10.69-7.91l.3-.1.18-.06.11.14c.35.48,8.67,11.75,5.16,17.44l0,0,0,0a15.18,15.18,0,0,1-1.89.85C109.29,50.94,102.77,49.85,100,43Zm11-12-.11,0c-1.41.52-8.53,3.35-10.41,7.63a5.1,5.1,0,0,0-.05,4.09c2.66,6.5,8.88,7.54,13.87,5.69a14,14,0,0,0,1.76-.8C119.12,42.65,112,32.44,111,31.08Z"/><path class="cls-5" d="M119.09,22.14s-13.35,5.05-12.49,13.92c.83,5.64,12.85,4.51,12.85,4.51A20.49,20.49,0,0,0,119.09,22.14Z"/><path class="cls-6" d="M119.47,40.82c-.5,0-12.26,1.09-13.12-4.73-.87-9,12.1-14,12.65-14.19l.22-.08.1.21a20.81,20.81,0,0,1,.36,18.65l-.07.13ZM106.85,36c.74,5,11.09,4.41,12.43,4.31A20.27,20.27,0,0,0,119,22.46C117.28,23.15,106.08,28.06,106.85,36Z"/><path class="cls-5" d="M111,45.81S99.41,52,101.78,59.12s13.57,7.8,13.57,7.8c3.82-5.74,1.91-13.42,1.91-13.42Z"/><path class="cls-6" d="M115.33,67.17c-.46,0-11.4-.8-13.79-8s8.89-13.35,9.37-13.61l.19-.1,6.4,7.9v0c0,.08,1.89,7.85-2,13.62l-.08.12Zm-4.36-21c-1.46.83-11.06,6.56-9,12.9s11.89,7.5,13.2,7.61c3.44-5.31,2-12.35,1.81-13Z"/><path class="cls-5" d="M117.13,54.23s-13.43,6.07-6.59,15S123,74.48,123,74.48l1.67-11.16Z"/><path class="cls-6" d="M110.34,69.4a7.9,7.9,0,0,1-1.78-6.91c1.31-5.21,8.17-8.36,8.46-8.49l.18-.08L125,63.24l-1.7,11.39-.1.06a3.92,3.92,0,0,1-.82.39C120.54,75.75,115.78,76.53,110.34,69.4Zm14.08-6-7.36-8.85c-1.08.53-6.87,3.55-8,8.07a7.43,7.43,0,0,0,1.69,6.48c6.17,8.08,11.3,5.65,12.05,5.23Z"/><path class="cls-5" d="M117.86,38S105.3,43.48,107.51,50.9s12.89,6.31,12.89,6.31l2-11.42Z"/><path class="cls-6" d="M120.42,57.46c-.11,0-10.9,1-13.15-6.48s10-13,10.49-13.21l.21-.09,4.67,8.07-2,11.69Zm-2.66-19.13c-1.6.75-12,5.89-10,12.5s11,6.24,12.42,6.14l1.93-11.13Z"/><path class="cls-5" d="M110.64,33.12c-10.58,3.13-10.69-4.8-10-9.21a79.55,79.55,0,0,1,15.62-5.05C116.5,22.49,116.43,30.87,110.64,33.12Z"/><path class="cls-8" d="M100.63,23.91a79.55,79.55,0,0,1,15.62-5.05,24.08,24.08,0,0,1-.82,8.61A62.27,62.27,0,0,0,101.23,31C100.17,28.87,100.31,26,100.63,23.91Z"/><path class="cls-6" d="M110.72,33.36c-3.85,1.14-6.7.93-8.48-.62-2.35-2.05-2.31-6-1.86-8.87l0-.13.13-.06c1.49-.65,3-1.27,4.5-1.82a78.31,78.31,0,0,1,11.17-3.24l.28-.06,0,.29c.25,3.59.19,12.18-5.76,14.5h0Zm-5.51-11c-1.45.54-2.91,1.13-4.35,1.76-.41,2.77-.42,6.4,1.72,8.27,1.63,1.42,4.32,1.6,8,.52C116,30.73,116.23,22.8,116,19.17A78.29,78.29,0,0,0,105.21,22.33Z"/><path class="cls-8" d="M122.28,26.36c-8.86,0-11.51-3.5-12.28-5.9a74.88,74.88,0,0,1,16.65-3A11.54,11.54,0,0,1,122.28,26.36Z"/><path class="cls-6" d="M122.28,26.62c-9.2,0-11.79-3.82-12.52-6.09l-.08-.24.25-.08a75.46,75.46,0,0,1,16.7-3l.28,0v.28a11.69,11.69,0,0,1-4.46,9.12l-.07.06Zm-12-6c.79,2.15,3.38,5.45,11.87,5.49a11.19,11.19,0,0,0,4.19-8.41A75.39,75.39,0,0,0,110.33,20.62Z"/><path class="cls-7" d="M118.24,70.71l10,15.94a56,56,0,0,1-15.86,4.45C104.14,84,118.24,70.71,118.24,70.71Z"/><path class="cls-6" d="M112.38,91.35l-.11,0-.09-.08a7.27,7.27,0,0,1-2.65-5.54c-.14-7,8.19-14.89,8.54-15.22l.23-.22,10.28,16.45-.26.12c-1,.5-2.17,1-3.33,1.4h0A62.28,62.28,0,0,1,112.38,91.35Zm5.82-20.24c-1.35,1.33-8.29,8.51-8.16,14.63a6.76,6.76,0,0,0,2.38,5.09,61.6,61.6,0,0,0,12.39-3c1.06-.4,2.08-.82,3-1.27Z"/><path class="cls-5" d="M115.62,28.08c-1-5.19,4.19-8.23,7.76-10.36,1.46-.16,2.87-.28,4.21-.35.87,3.54,2.77,12.15,1.86,16.16C129.45,33.53,117.47,35.5,115.62,28.08Z"/><path class="cls-8" d="M123.38,17.72c1.46-.16,2.87-.28,4.21-.35a84.09,84.09,0,0,1,1.88,10,57.53,57.53,0,0,0-13.94,0C115,22.64,120,19.77,123.38,17.72Z"/><path class="cls-6" d="M129.49,33.78c-.12,0-12.23,1.92-14.12-5.66-1-5.28,4.23-8.43,7.71-10.52l.22-.13h0c1.41-.16,2.84-.28,4.23-.35h.21l0,.2c.87,3.54,2.78,12.21,1.86,16.27l0,.17Zm-6-15.82-.12.07c-3.56,2.14-8.44,5.06-7.48,10,1.66,6.64,11.93,5.49,13.38,5.29.79-3.95-1-12.09-1.84-15.66C126.1,17.71,124.78,17.82,123.46,18Z"/><path class="cls-8" d="M135.66,26c-9.34,4.43-11.23-4-11.6-8.34a63.43,63.43,0,0,1,19.68.88C143.3,20.61,141.37,23.29,135.66,26Z"/><path class="cls-6" d="M127.81,26.62c-3-1.88-3.79-6.42-4-8.95l0-.25.25,0a63.65,63.65,0,0,1,19.76.89l.25.06,0,.24c-.58,2.76-3.34,5.33-8.22,7.64-.46.22-.91.41-1.34.57h0C131.77,27.78,129.55,27.72,127.81,26.62Zm-3.48-8.75c.24,2.48,1,6.62,3.75,8.32,1.6,1,3.67,1,6.17.13h0c.42-.16.86-.35,1.3-.56,4.51-2.13,7.23-4.56,7.88-7A63.37,63.37,0,0,0,124.33,17.87Z"/><path class="cls-5" d="M125.9,29.8s-11,2.83-11.13,10.8,4.66,9.62,9.13,9a26.06,26.06,0,0,0,3.83-10.07Z"/><path class="cls-6" d="M123.93,49.9c-2,.25-4.76.17-6.81-1.66-1.77-1.58-2.65-4.15-2.6-7.65.08-6.27,6.79-9.43,9.67-10.5,1-.37,1.62-.53,1.65-.54l.26-.07L128,39.53v.07a26.77,26.77,0,0,1-3.87,10.18l-.06.1Zm1.77-19.78c-.27.08-.74.22-1.33.44-2.78,1-9.27,4.08-9.35,10,0,3.34.78,5.79,2.44,7.26a8,8,0,0,0,6.29,1.55,26.33,26.33,0,0,0,3.72-9.83Z"/><path class="cls-5" d="M122.3,46.81s-10,4.24-7.69,11.33,11.93,4.94,11.93,4.94L125.18,56Z"/><path class="cls-6" d="M126.6,63.33c-.1,0-9.91,2.11-12.23-5.12s7.73-11.59,7.84-11.63l.25-.11,3,9.47,1.42,7.33Zm-4.45-16.17c-1.53.72-9.27,4.74-7.3,10.9s9.9,5.08,11.39,4.82l-1.31-6.8Z"/><path class="cls-7" d="M124,60.07s-11.71,7.77-6.38,15.34,16,1.81,16,1.81L130,67Z"/><path class="cls-5" d="M124,60.07l6,7,.9,2.56a50.87,50.87,0,0,1-12.75,6.52,7.63,7.63,0,0,1-.54-.7C112.27,67.84,124,60.07,124,60.07Z"/><path class="cls-6" d="M117.39,75.56a7.37,7.37,0,0,1-1.3-5.74c1-5.45,7.48-9.78,7.75-10l.19-.13,6.15,7.13,0,0,3.69,10.44-.19.11a21.23,21.23,0,0,1-2.1.92C128,79.71,121.32,81.13,117.39,75.56Zm12.38-8.4-5.83-6.76c-1.07.76-6.46,4.78-7.35,9.51a6.78,6.78,0,0,0,1.22,5.35c3.73,5.3,10.14,3.92,13.62,2.63.89-.33,1.54-.64,1.85-.79Z"/><path class="cls-7" d="M129.69,74s5.74,8.81,4.56,8.89a36,36,0,0,1-13.18,6.4C112.62,80.32,129.69,74,129.69,74Z"/><path class="cls-6" d="M121.14,89.53l-.15,0-.1-.11c-2-2.13-2.77-4.31-2.27-6.47,1.31-5.59,10.59-9.09,11-9.24l.19-.07.11.17c1.2,1.84,5.09,7.93,4.73,9a.41.41,0,0,1-.27.27A33,33,0,0,1,125,88.28h0C123.79,88.73,122.49,89.15,121.14,89.53Zm13-6.89c.05-.74-2.23-4.73-4.57-8.34-1.34.53-9.33,3.9-10.48,8.81-.45,2,.23,3.93,2,5.89,1.28-.37,2.52-.77,3.68-1.2a32.31,32.31,0,0,0,9.26-5.11l0,0Z"/><path class="cls-1" d="M131.3,78.57S120.89,91,109.77,84.67C99.68,79,96.91,68.22,97.35,65.76s10.33-1.67,20.07,3.09c6.13,3.41,7.75,5.24,12.9,4.54A40.63,40.63,0,0,1,131.3,78.57Z"/><path class="cls-3" d="M97.35,65.76c.44-2.46,10.33-1.67,20.07,3.09,2,1.14,3.59,2.1,4.93,2.85l.27.72c-1.31,1.57-3.42,1-5.26,1.14,1.13.13,3.32.93,2.64,2a1.9,1.9,0,0,1-2.14.79c.44,1.19,2.67.63,2.22,1.61-.3.65-1.81,1-2.76,1.3,1.12.12,2.36,1.28,1.5,1.87-3,2.51-7.55,3-11.4,2C99.25,77.23,97,68,97.35,65.76Z"/><path class="cls-4" d="M97.36,65.72c.56-2.41,10.38-1.6,20.06,3.13,2,1.14,3.58,2.09,4.91,2.84a16.76,16.76,0,0,1-10.18-.52C107,69.74,102.63,66.55,97.36,65.72Z"/><path class="cls-2" d="M109.65,84.89c-10.14-5.74-13-16.53-12.55-19.17.09-.52.5-.92,1.22-1.19,3-1.1,11.15.15,19.22,4.1,1.17.65,2.18,1.24,3.07,1.77,3.84,2.26,5.6,3.29,9.68,2.74l.23,0,0,.22a39.05,39.05,0,0,1,1,5.22v.1l-.07.08a26.76,26.76,0,0,1-9.81,7h0A13.73,13.73,0,0,1,109.65,84.89Zm20.48-11.22c-4.1.51-6-.62-9.78-2.84-.89-.52-1.89-1.11-3-1.75-7.69-3.76-15.94-5.14-18.81-4.08q-.81.3-.9.81c-.21,1.14.35,4.4,2.24,8.07A25.38,25.38,0,0,0,109.9,84.45a13.27,13.27,0,0,0,11.6.77A26.31,26.31,0,0,0,131,78.49,43.2,43.2,0,0,0,130.13,73.67Z"/><path class="cls-2" d="M130.51,74.4l-.08-.5c-14.3,2.25-32.77-8.25-32.95-8.36l-.26.44C97.41,66.09,116,76.68,130.51,74.4Z"/><path class="cls-2" d="M130.73,75.27l-.15-.49c-15.23,4.73-31.79-3.11-32-3.19L98.4,72C98.57,72.13,115.3,80.05,130.73,75.27Z"/><path class="cls-2" d="M129.22,77c.59-.23,1.19-.46,1.77-.72l-.2-.46c-12.59,5.46-27.83,2.88-28,2.85l-.09.5C102.87,79.17,116.88,81.54,129.22,77Z"/><path class="cls-2" d="M123.07,81.32a26.35,26.35,0,0,0,8-4.43l-.33-.38c-7.33,6.3-21.55,7.36-21.69,7.37l0,.51A58,58,0,0,0,123.07,81.32Z"/><path class="cls-7" d="M131.86,67.28a69.83,69.83,0,0,0,7.47,8.17A10.63,10.63,0,0,0,149,78.53c-3.32,2.66-8.49,3.9-14.75,4.35C124.21,79.2,129.22,70.77,131.86,67.28Z"/><path class="cls-6" d="M134.27,83.13h-.05l-.06,0c-3.22-1.18-5.21-3-5.89-5.3-1.15-3.9,1.63-8.38,3.39-10.7l.2-.26.21.26a68,68,0,0,0,7.44,8.15,10.38,10.38,0,0,0,9.45,3l1-.19-.79.63a15.88,15.88,0,0,1-4.46,2.44h0A37.79,37.79,0,0,1,134.27,83.13Zm4.89-7.49a69.75,69.75,0,0,1-7.29-7.94c-1.71,2.3-4.16,6.43-3.12,10,.64,2.16,2.5,3.82,5.54,4.95a37.58,37.58,0,0,0,10.23-1.94h0A17,17,0,0,0,148,78.92,10.89,10.89,0,0,1,139.16,75.64Z"/><path class="cls-7" d="M122.46,65.68c-2.11-5.37,1.25-8.28,3.91-9.68,1.08,5.74,5,11.14,9.18,15.64C132.27,72,125,72.06,122.46,65.68Z"/><path class="cls-5" d="M122.46,65.68c-2.11-5.37,1.25-8.28,3.91-9.68.82,4.38,3.3,8.56,6.29,12.3q-2,1.52-4.1,2.84A9,9,0,0,1,122.46,65.68Z"/><path class="cls-6" d="M135.58,71.89c-3.15.36-10.77.48-13.36-6.12-2.23-5.68,1.57-8.7,4-10l.3-.16.07.34c.9,4.8,3.89,9.87,9.12,15.51l.34.37ZM122.7,65.58c2.33,6,9,6.15,12.32,5.86-5-5.43-7.86-10.36-8.83-15C123.46,57.91,120.78,60.71,122.7,65.58Z"/><path class="cls-5" d="M120.15,47.79c.47-6.27,7.14-7.42,11.41-7.5-.6.89-1.21,1.78-1.86,2.65a15.88,15.88,0,0,0-2.9,14.84C124.2,56.93,119.64,54.47,120.15,47.79Z"/><path class="cls-6" d="M126.72,58c-2.77-.91-7.34-3.45-6.83-10.25.25-3.2,2.06-5.45,5.4-6.69a19.16,19.16,0,0,1,6.26-1H132l-.26.41c-.62.94-1.25,1.83-1.87,2.66A15.74,15.74,0,0,0,127,57.71l.13.46Zm-1.25-16.47c-3.14,1.17-4.85,3.27-5.07,6.26-.46,6.09,3.38,8.59,6,9.57a16.17,16.17,0,0,1,3.08-14.59c.52-.7,1.05-1.45,1.57-2.24A18.49,18.49,0,0,0,125.47,41.55Z"/><path class="cls-5" d="M123.13,31.55c1.58-7.61,11.54-6.24,16.16-5.16C136.85,31,134,36.94,130.16,42.32,127.16,41.48,121.6,38.92,123.13,31.55Z"/><path class="cls-8" d="M139.29,26.39c-.46.85-.93,1.76-1.42,2.7a54.92,54.92,0,0,0-11.81-2C129.8,24.68,136,25.61,139.29,26.39Z"/><path class="cls-6" d="M130.09,42.56c-2.7-.75-8.82-3.34-7.21-11.06a7,7,0,0,1,4.71-5.44c3.83-1.42,9-.56,11.76.08l.32.08-.16.29c-.52,1-1.06,2-1.63,3.1a99.72,99.72,0,0,1-7.52,12.85l-.1.15Zm-2.32-16a6.53,6.53,0,0,0-4.39,5.06c-1.44,6.92,3.48,9.49,6.67,10.42a100.28,100.28,0,0,0,7.38-12.64c.52-1,1-1.93,1.48-2.82C136.15,26,131.33,25.22,127.77,26.54Z"/><path class="cls-5" d="M133.64,23c.71-3,4.34-4.35,7.37-4.94a34.17,34.17,0,0,1,4.68,1l0,0c-2.93.21-5.41,5.46-8.78,11.91C135.24,29.49,132.78,26.59,133.64,23Z"/><path class="cls-8" d="M133.64,23c.71-3,4.34-4.35,7.37-4.94a34.17,34.17,0,0,1,4.68,1l0,0c-2.64.19-4.91,4.46-7.8,10-1.08-.31-2.17-.58-3.27-.82A7,7,0,0,1,133.64,23Z"/><path class="cls-6" d="M136.72,31.16c-1.63-1.45-4.23-4.47-3.33-8.26.45-1.89,2-3.35,4.67-4.34a19,19,0,0,1,2.9-.79h.09a35.93,35.93,0,0,1,4.72,1l.31.1-.26.43h-.13a2.46,2.46,0,0,0-.69.16c-2.3.85-4.43,5-7.12,10.15l-.76,1.47-.15.29ZM141,18.27a18.71,18.71,0,0,0-2.77.77c-2.48.92-4,2.26-4.36,4-.79,3.36,1.39,6.09,2.94,7.54.21-.39.41-.79.61-1.17,2.71-5.24,4.86-9.38,7.3-10.36C144,18.83,142.69,18.54,141,18.27Z"/><path class="cls-9" d="M157.29,74.16S148,83.3,139.6,75.32,120.67,54.91,130,42.81c7.94-10.65,11.45-24.12,16.27-23.88,4.13-.18,22.46,8.29,28,15,4,2.11,7.92,3.37,8.63,6.26-2.18,2.61-13.29,18.81-13.29,18.81A53.43,53.43,0,0,0,180,56.91C176.92,62.73,168.07,70.43,157.29,74.16Z"/><path class="cls-10" d="M151,70.83c-3,.58-5.9-1.33-8.2-3.17a34.44,34.44,0,0,0,2.47,4.48c-2.08.23-4.8.17-6.75-1.18-7.18-4.55-12.7-10.43-12.35-19.08a16.36,16.36,0,0,1,3.58-8.94c7.94-10.65,11.46-24.12,16.27-23.88,4.13-.18,22.46,8.29,28,15.05,4,2.11,7.92,3.37,8.63,6.26-1.82,2.17-9.8,13.74-12.44,17.57l.12-.51-.12.51-.85,1.24.51,0C167.26,66.82,158.46,69.3,151,70.83Z"/><path class="cls-11" d="M181.54,41.92c-8.38,3.65-18.73-4.69-26-8.21-5.64-2.94-11.72-3.6-17.8-4.39,3.05-5.89,5.42-10.4,8.22-10.26,4.13-.18,22.46,8.29,28,15.05,3.95,2.07,7.76,3.32,8.58,6.09C181.11,39.22,182.88,41.42,181.54,41.92Z"/><path class="cls-12" d="M139.16,75.64c-3.64-3.48-8.8-8.79-11.5-14.79-3-6.56-2.33-12.64,1.84-18.06a95.67,95.67,0,0,0,7.93-13.41c2.74-5.29,4.91-9.47,7.39-10.39A2.94,2.94,0,0,1,146,18.8c4.07-.17,22.52,8.27,28.2,15.11.78.41,1.56.78,2.31,1.15,3.11,1.51,5.81,2.82,6.41,5.25l0,.12-.08.1c-2,2.34-11.21,15.77-13,18.36a55.83,55.83,0,0,0,9.8-2.09l.59-.19-.29.55c-2.89,5.5-11.35,13.12-21.89,17h0l-.89.32a18.36,18.36,0,0,1-5.87,3.63A11,11,0,0,1,139.16,75.64Zm17.77-1.58.94-.34h0C168,70,176.09,62.83,179.2,57.46a51.42,51.42,0,0,1-9.85,2l-.51,0,.29-.42c.45-.66,10.88-15.86,13.22-18.73-.6-2.13-3.16-3.37-6.1-4.8-.77-.37-1.57-.75-2.37-1.17l0,0,0,0c-5.57-6.76-23.81-15.13-27.84-15a2.31,2.31,0,0,0-1,.16c-2.3.85-4.43,5-7.12,10.15a95.88,95.88,0,0,1-8,13.47C120.75,55,131,67.16,139.51,75.27a10.44,10.44,0,0,0,11.59,2.4,18.28,18.28,0,0,0,5.74-3.55l0,0Z"/><path class="cls-12" d="M157.06,74.55l-.09-.5c-7.36,1.29-11.06-3.1-11.09-3.14S149.39,75.9,157.06,74.55Z"/><path class="cls-13" d="M155.16,61.42S169.52,75.71,186,57C186,57,156.71,59.21,155.16,61.42Z"/><path class="cls-14" d="M146.84,52.78s6.93,13.45,19.86,13.66L172,66l-2,1.43a21.48,21.48,0,0,1-17.21-5.31C144.44,54.94,146.84,52.78,146.84,52.78Z"/><path class="cls-15" d="M146.8,52.81s8.53,20.78,41.64,2.69c0,0,7.74-4.79,7.53-7.06s-5.2-2-5.2-2S184,36.23,174,34.65"/><path class="cls-16" d="M153.43,59.81a18.6,18.6,0,0,0,17.95,6.31,23,23,0,0,0,14.27-8.8"/><path class="cls-16" d="M142.73,53.71s5.47,0,7-3.9"/><path class="cls-11" d="M165.5,39.21s5.93,4.73,17.44,5.19c0,0,6.09,4.13,7.16,3.62s5.54,1,.54,3.7-2.35,4.25.74,1.63,4.94-4.05,4.56-5-3.5-1.88-4.95-1.51c0,0-7.94-11.16-16.71-11.74l-.6-.93S165.29,38.08,165.5,39.21Z"/><ellipse cx="155.91" cy="40.95" rx="8.34" ry="8.68" transform="translate(-4.51 56.81) rotate(-20.36)"/><path class="cls-17" d="M149.31,44a7.8,7.8,0,1,0,4.49-10.32A8,8,0,0,0,149.31,44Z"/><path class="cls-13" d="M149.44,37.89a7.61,7.61,0,0,1,4.36-4.2,8,8,0,0,1,10.13,4.89,8.18,8.18,0,0,1-1.05,7.73C157,47.11,151.71,43.45,149.44,37.89Z"/><path d="M149.08,44.1a8,8,0,1,1,10.45,5A8.21,8.21,0,0,1,149.08,44.1Zm.47-.18a7.55,7.55,0,1,0,4.34-10A7.71,7.71,0,0,0,149.55,43.92Z"/><path class="cls-18" d="M152.89,43.46c1.66,3,5.06,4.47,7.6,3.17s3.26-4.83,1.6-7.88-5.06-4.46-7.6-3.16S151.24,40.42,152.89,43.46Z"/><path class="cls-19" d="M152,40.32a4.91,4.91,0,0,1,2.48-4.73c2.54-1.3,5.94.11,7.6,3.16a6.53,6.53,0,0,1,.43,5.67A13.57,13.57,0,0,1,152,40.32Z"/><path class="cls-20" d="M152.63,43.6c-1.72-3.17-.94-6.86,1.74-8.23s6.26.08,8,3.25.94,6.86-1.74,8.23S154.35,46.76,152.63,43.6Zm.52-.27c1.59,2.92,4.82,4.3,7.22,3.07s3-4.6,1.46-7.52-4.82-4.3-7.21-3.07S151.57,40.41,153.15,43.33Z"/><path d="M153.76,43.24c1.33,2.45,4,3.61,6.05,2.57s2.56-3.85,1.23-6.3-4-3.6-6-2.57S152.43,40.79,153.76,43.24Z"/><path class="cls-13" d="M157.55,37.32a1.59,1.59,0,0,0,2.14.51,1.51,1.51,0,0,0,.78-2,1.6,1.6,0,0,0-2.14-.51A1.49,1.49,0,0,0,157.55,37.32Z"/><ellipse class="cls-13" cx="160.82" cy="44.34" rx="0.97" ry="0.85" transform="translate(-4.59 66.01) rotate(-22.88)"/></svg>