<svg id="Layer_1" data-name="Layer 1" xmlns="http://www.w3.org/2000/svg" viewBox="0 0 215.49 354.21"><defs><style>.cls-1{opacity:0.3;}.cls-2{fill:#512c1e;}.cls-3{fill:#cac9c7;}.cls-4{fill:#eabc95;}.cls-5{fill:#f49398;}.cls-6{fill:#341c0e;}.cls-7{fill:#654324;}.cls-8{fill:#33302e;}.cls-9{fill:#341d0f;}.cls-10{fill:#949393;}.cls-11{fill:#351d0e;}.cls-12{fill:#983341;}.cls-13{fill:#361d0e;}.cls-14{fill:#323131;}.cls-15{fill:#c7a17b;}.cls-16{fill:#c19c78;}.cls-17{fill:#363330;}.cls-18{fill:#3d3d3c;}.cls-19{fill:#351810;}.cls-20{fill:#432712;}.cls-21{fill:#41403f;}.cls-22{fill:#402613;}.cls-23{fill:#484646;}.cls-24{fill:#36190f;}.cls-25{fill:#4d3123;}.cls-26{fill:#381e11;}.cls-27{fill:#674528;}.cls-28{fill:#424142;}.cls-29{fill:#381a11;}.cls-30{fill:#553022;}.cls-31{fill:#3a3939;}.cls-32{fill:#3b1d14;}.cls-33{fill:#624831;}.cls-34{fill:#573f31;}.cls-35{fill:#583c25;}.cls-36{fill:#464544;}.cls-37{fill:#373636;}.cls-38{fill:#504f4f;}.cls-39{fill:#3d2211;}.cls-40{fill:#4c3525;}.cls-41{fill:#5a3d25;}.cls-42{fill:#4c2f1f;}.cls-43{fill:#4a2d16;}.cls-44{fill:#442215;}.cls-45{fill:#3d2017;}.cls-46{fill:#341910;}.cls-47{fill:#575656;}.cls-48{fill:#4f3119;}.cls-49{fill:#5e4128;}.cls-50{fill:#4d4b4b;}.cls-51{fill:#414141;}.cls-52{fill:#4d4c4d;}.cls-53{fill:#3f2219;}.cls-54{fill:#53392a;}.cls-55{fill:#503525;}.cls-56{fill:#56371c;}.cls-57{fill:#523628;}.cls-58{fill:#371e0e;}.cls-59{fill:#4a4848;}.cls-60{fill:#593c26;}.cls-61{fill:#545454;}.cls-62{fill:#6e342f;}.cls-63{fill:#543829;}.cls-64{fill:#614033;}.cls-65{fill:#4d3829;}.cls-66{fill:#301610;}.cls-67{fill:#2a180c;}.cls-68{fill:#55361d;}.cls-69{fill:#301b0e;}.cls-70{fill:#555454;}.cls-71{fill:#4b3019;}.cls-72{fill:#6e6d6e;}.cls-73{fill:#674931;}.cls-74{fill:#351e10;}.cls-75{fill:#523527;}.cls-76{fill:#341c0f;}.cls-77{fill:#442712;}.cls-78{fill:#9d9d9d;}.cls-79{fill:#311d0f;}.cls-80{fill:#b2b0b0;}.cls-81{fill:#393838;}.cls-82{fill:#b0adac;}.cls-83{fill:#462626;}.cls-84{fill:#2f1c0e;}.cls-85{fill:#361717;}.cls-86{fill:#321e0f;}.cls-87{fill:#3f2713;}.cls-88{fill:#614c3e;}.cls-89{fill:#481f14;}.cls-90{fill:#412121;}.cls-91{fill:#5e4133;}.cls-92{fill:#5a3c2d;}.cls-93{fill:#593d2e;}.cls-94{fill:#533635;}.cls-95{fill:#705038;}.cls-96{fill:#3f2615;}.cls-97{fill:#47301f;}.cls-98{fill:#56392b;}.cls-99{fill:#543736;}.cls-100{fill:#513534;}.cls-101{fill:#280e0e;}.cls-102{fill:#593c2e;}.cls-103{fill:#321b0f;}.cls-104{fill:#2e1a0e;}.cls-105{fill:#4b3520;}.cls-106{fill:#533736;}.cls-107{fill:#fff;}.cls-108{fill:#2c190d;}.cls-109{fill:#361716;}.cls-110{fill:#805737;}.cls-111{fill:#5d422d;}.cls-112{fill:#c59f7a;}.cls-113{fill:#4e2f16;}.cls-114{fill:#472a14;}.cls-115{fill:#503117;}.cls-116{fill:#503017;}.cls-117{fill:#3d2311;}.cls-118{fill:#513218;}.cls-119{fill:#412511;}.cls-120{fill:#4f2f16;}.cls-121{fill:#3a200f;}.cls-122{fill:#482a14;}.cls-123{fill:#4e2f17;}.cls-124{fill:#3b200f;}.cls-125{fill:#58381c;}.cls-126{fill:#55361b;}.cls-127{fill:#53341a;}.cls-128{fill:#4d2e15;}.cls-129{fill:#845c3e;}.cls-130{fill:#845d3e;}.cls-131{fill:#845c3d;}.cls-132{fill:#825b3c;}.cls-133{fill:#5c3d2e;}.cls-134{fill:#3a2011;}.cls-135{fill:#3b2011;}.cls-136{fill:#472514;}.cls-137{fill:#492816;}.cls-138{fill:#371e0f;}.cls-139{fill:#c7a17c;}.cls-140{fill:#a17c5a;}.cls-141{fill:#a07b59;}.cls-142{fill:#4c4a4a;}.cls-143{fill:#704f38;}.cls-144{fill:#382111;}.cls-145{fill:#d2d0cf;}.cls-146{fill:#3f2613;}.cls-147{fill:#adabab;}.cls-148{fill:#815d42;}.cls-149{fill:#805c41;}.cls-150{fill:#7e5a3f;}.cls-151{fill:#78543a;}.cls-152{fill:#805637;}.cls-153{fill:#280f0e;}.cls-154{fill:#392619;}.cls-155{fill:#331c0f;}.cls-156{fill:#a27e5a;}.cls-157{fill:#403c39;}.cls-158{fill:#7c5537;}.cls-159{fill:#3f2121;}.cls-160{fill:#3d1e1c;}.cls-161{fill:#402322;}.cls-162{fill:#413c39;}.cls-163{fill:#4f4e4e;}.cls-164{fill:#514e4c;}.cls-165{fill:#605a51;}.cls-166{fill:#361714;}.cls-167{fill:#2a0f0f;}.cls-168{fill:#3c1b18;}.cls-169{fill:#dbdbdb;}.cls-170{fill:#dfdfdf;}.cls-171{fill:#e2e2e2;}.cls-172{fill:#58392d;}.cls-173{fill:#6c483b;}.cls-174{fill:#0c0d17;}.cls-175{fill:#240e0e;}.cls-176{fill:#402218;}.cls-177{fill:#432b22;}.cls-178{fill:#44281d;}.cls-179{fill:#3c1915;}.cls-180{fill:#46271a;}.cls-181{fill:#1d1613;}.cls-182{fill:#1c1712;}.cls-183{fill:#2a2623;}.cls-184{fill:#222120;}.cls-185{fill:#0b0b0b;}.cls-186{fill:#141412;}.cls-187{fill:#2a2420;}.cls-188{fill:#2f2c2a;}.cls-189{fill:#110f0f;}.cls-190{fill:#36302b;}.cls-191{fill:#35312e;}.cls-192{fill:#421e19;}.cls-193{fill:#211d1b;}.cls-194{fill:#342d28;}.cls-195{fill:#281d15;}.cls-196{fill:#24211e;}.cls-197{fill:#0e0e0d;}.cls-198{fill:#171717;}.cls-199{fill:#3c1d15;}.cls-200{fill:#4b2a1c;}.cls-201{fill:#442519;}.cls-202{fill:#321812;}.cls-203{fill:#0e0e0e;}.cls-204{fill:#2f1612;}.cls-205{fill:#502f20;}.cls-206{fill:#4f2e1f;}.cls-207{fill:#23201d;}.cls-208{fill:#745036;}.cls-209{fill:#422012;}.cls-210{fill:#3a1f11;}.cls-211{fill:#391d10;}.cls-212{fill:#3d2111;}.cls-213{fill:#4c2617;}.cls-214{fill:#401f12;}.cls-215{fill:#939292;}.cls-216{fill:#271110;}.cls-217{fill:#181818;}.cls-218{fill:#0c0c0c;}.cls-219{fill:#1e0d0e;}.cls-220{fill:#333;}.cls-221{fill:#4e4e4f;}.cls-222{fill:#464646;}.cls-223{fill:#23211f;}.cls-224{fill:#2e2925;}.cls-225{fill:#3b1e15;}.cls-226{fill:#646565;}.cls-227{fill:#292929;}.cls-228{fill:#373737;}.cls-229{fill:#2e2d2d;}.cls-230{fill:#1c1b1b;}.cls-231{fill:#323232;}.cls-232{fill:#1e1412;}.cls-233{fill:#f9f8f8;}.cls-234{fill:#191311;}.cls-235{fill:#83807e;}.cls-236{fill:#211612;}.cls-237{fill:#f6f6f6;}.cls-238{fill:#0f0a09;}.cls-239{fill:#431d11;}</style></defs><path class="cls-1" d="M123.42,309.34c-41,7.14-72.64,14.09-70.56,26.07s37.05,15.9,78.11,8.75,72.64-14.09,70.56-26.07S164.47,302.19,123.42,309.34Z"/><path class="cls-2" d="M9.49,126.52c-.78-.56,0-1.72-.85-2.24V123c.53-.08.35-.56.5-.86.81,0,.76.67.95,1.16a5,5,0,0,1,.16,2.65A1.07,1.07,0,0,1,9.49,126.52Z"/><path class="cls-3" d="M122.89,334.9a1,1,0,0,1,0-.35,1.4,1.4,0,0,1,2.25,0c0,.12,0,.24,0,.36Z"/><path class="cls-4" d="M67.93,56.55l.95,1.4a13.2,13.2,0,0,1,.86,2.9c1.35-3.54,2.5-7.15,5-10.09,1-1.19,2-2.51,3.91-2.13.44.65.09,1.21-.17,1.79-.47.74-.22,1.6-.42,2.38l.07.11-.08.11c-.76.66-.56,1.63-.78,2.47a60.54,60.54,0,0,0,0,7,17.53,17.53,0,0,0,.59,2.58c.94,1,2.53,1.53,2.2,3.35-.92,1.79-2.63,2.48-4.36,3.13-1.12.51-2.33.76-3.49,1.18a3.42,3.42,0,0,1-1.14.34,10.48,10.48,0,0,0-2.56.3,8.48,8.48,0,0,0-1.66.45,10.33,10.33,0,0,0-4.3,2.33c-1.23,1.12-2.37,2.32-3.53,3.51a7.4,7.4,0,0,0-1.3,2c-.62.4-.72,2.41-2,.67a12.82,12.82,0,0,1-.16-3,6.5,6.5,0,0,1,.07-1,3.22,3.22,0,0,1,.15-.63,26.37,26.37,0,0,1,2-4.79c-.41-.56-.76.18-1.14.06a13.05,13.05,0,0,0-3.26,1.21A10.7,10.7,0,0,0,50,76.48a1.36,1.36,0,0,1-.6.1.94.94,0,0,1-.64-.63,2.72,2.72,0,0,1,.37-1.78c.32-.6.63-1.22.93-1.83a15.41,15.41,0,0,1,.9-1.51,13.32,13.32,0,0,1,1.87-2.31,11.09,11.09,0,0,1,1.47-1.32A36.31,36.31,0,0,1,45.62,71,9.43,9.43,0,0,1,43,72a12.74,12.74,0,0,0-1.85.3,1.16,1.16,0,0,1-.56-.26c-.47-1.27.38-2.07,1.11-2.84a31.54,31.54,0,0,1,7.38-6.34c.42-.23,1-.36,1.06-1,0-.05-.06-.13-.11-.17a.66.66,0,0,0-.21-.08A63.56,63.56,0,0,1,41,62c-.86-.34-.56-.87-.19-1.35a16.2,16.2,0,0,1,1.35-1.4c.48-.36.94-.75,1.46-1.07s.88-.67,1.39-.92a6.66,6.66,0,0,1,1.21-.64c.35-.12.71-.25,1-.4a4.33,4.33,0,0,1,.56-.22c1.11-.39,2.29-.49,3.41-.83a16.06,16.06,0,0,1,6,.32c1.34.27,2.69.49,4,.73.29.05.23-.43.18-.15,0,.1-.07.1-.17.11a1.58,1.58,0,0,1-1.19-.39A20.81,20.81,0,0,0,50.67,52a.63.63,0,0,1-.36-.58c2.14-1.83,4.68-1.07,7.1-1.07.5,0,1,.27,1.49.31.8.14,1.45.67,2.24.82a9.68,9.68,0,0,1,3.39,1.63c.58.27.89.84,1.34,1.23.27-.08.38,0,.33.29A14.13,14.13,0,0,1,67.93,56.55Z"/><path class="cls-5" d="M119.57,128.26c.12.2,0,.3-.17.33a42.77,42.77,0,0,1-6.2,0,20.49,20.49,0,0,1-4.12-1.35A12.06,12.06,0,0,1,107,126c-.6-.33-1-.88-1.65-1.19a3.94,3.94,0,0,1-1.83-2A9.67,9.67,0,0,1,102,121c-.34-.47-.7-.92-1-1.41s-.59-1.23-.93-1.82a15.25,15.25,0,0,1-1.62-3.26c-.48-.85-.54-1.86-1-2.74a18.21,18.21,0,0,1-.54-4.09c0-.47,0-.94,0-1.41a16.54,16.54,0,0,0-.49-3.9,11.42,11.42,0,0,1-.31-1.5c-.23-2,1.1-4.37,2.58-4.59s2.88,1.12,3.39,3.39c.38,1.71.38,3.48.71,5.21.82,4.3,4,8.94,10,9.57a22.89,22.89,0,0,1,8.56,2.53,4.38,4.38,0,0,1,2.25,2c.91,2,.48,4,0,5.94a10.88,10.88,0,0,1-1.22,2.05l0,0A4.35,4.35,0,0,1,119.57,128.26Z"/><path class="cls-6" d="M79.68,68.41c.2-1.61-1.17-2.17-2-3.06-.17-.46,0-.54.43-.43.94.93,1.86.41,2.8,0,16.35-7.31,25.67-20.12,29.28-37.43,1.43-6.86,1.54-13.8,1.31-21a7.5,7.5,0,0,1,2,3.74c4.78,15.49,3.12,30.45-3.82,45a4,4,0,0,1-.41.51c-.42.12-.59-.14-.72-.46-.09-1.73,1.25-3,1.6-4.54a40.89,40.89,0,0,0,1.62-4.28,93.49,93.49,0,0,0,2.38-10.71c.31-4.13,1.13-8.23.42-12.39a59.21,59.21,0,0,0-1.73-10.45c.67,14.59-4.38,33.26-17.85,44.91A50.38,50.38,0,0,1,83.83,65.1c-.57.27-1.46.38-1.55,1.08s.87.84,1.37,1.21,1.34.89,2,1.34a28.39,28.39,0,0,1,3.88,3.21,1.82,1.82,0,0,0,2.7.23c2-1.34,3.78-3,5.71-4.45a31.7,31.7,0,0,0,2.77-2.67c1.22-.88,1.8-2.51,3.39-2.95.31.13.55.3.36.69C101.23,67.2,97,70.57,92.61,73.66c-1,.73-1.73,1.29-.62,2.44a.84.84,0,0,1,.19.39c.6,2.84,2.5,4.25,5.2,4.8,0,.4-.24.55-.56.65-1.31-.2-1.89.11-1.36,1.6.78,2.19.72,4.64,2,6.69a.85.85,0,0,1-.15,1.18.77.77,0,0,0-.53,1c.6,2.32.07,4.63-.43,6.83-.32,1.42.75,2.87-.34,4.15-.78.62-.45,1.49-.44,2.25a111.24,111.24,0,0,0,6.39,34.8c1.62,4.75,5.62,8.13,8.53,12.15,2.25,3.12,4.85,3.31,8.32,2.74,10.9-1.8,20.78-6,30.26-11.59,6.42-3.77,13.32-3.32,20-.35a22.72,22.72,0,0,1,7.84,5.47c.1.46-.18.61-.56.68-1.29-.24-2.15-1.2-3.13-1.94A23.34,23.34,0,0,0,156.14,143a17.92,17.92,0,0,0-7.52,2.85A79.15,79.15,0,0,1,117.69,157c-.94,0-1.82.39-2.76.41a4.15,4.15,0,0,1-1.78-.3c-6.46-6-12-12.5-14.32-21.35-2.73-10.51-5-21.06-4.68-32,0-1.62.48-3.18.45-4.8.23-6.68.06-13.27-2.73-19.57a20.86,20.86,0,0,0-9.48-10.24,3.45,3.45,0,0,0-2.1-.45A.91.91,0,0,1,79.68,68.41Z"/><path class="cls-7" d="M97.36,91.21c-2-3-1.87-6.69-3.08-10,1.09-.33,1.8.4,2.64.46a3.31,3.31,0,0,1,1.52.67,13.69,13.69,0,0,1,2.28,1.73A13,13,0,0,1,103,86.4a32.58,32.58,0,0,1,5.19,9A84.25,84.25,0,0,0,113,105c.61.75,1,1.68,2,2.15a.43.43,0,0,1,.08.36c1.22,1.37,2.86,2.21,4.24,3.39a10.88,10.88,0,0,1,3,3.44c.34.58.91,1.31-.15,1.82a4,4,0,0,1-2.66-1.13c-1.59-1.22-3.53-1.24-5.39-1.58a7.87,7.87,0,0,1-1.6-.2,19.14,19.14,0,0,1-5.37-2.28,2.37,2.37,0,0,1-.71-.7c-.64-1.5-1.72-2.8-2.07-4.44-.47-1.35-.31-2.82-.73-4.19-.13-.73-.32-1.44-.5-2.15a13.21,13.21,0,0,0-4.83-7.08A1.57,1.57,0,0,1,97.36,91.21Z"/><path class="cls-6" d="M167.66,304.5c.29-4.82,1.33-9.55,1.8-14.35a88.76,88.76,0,0,0-3.74-36.59c-.52-1.6-1-3.21-1.4-4.84a33.56,33.56,0,0,1-.62-4.12,11.41,11.41,0,0,1,.56-4.29c-5.39,2.35-10.68,4.12-16.35,4.48-.36,0-.73,0-1.09,0-3.85.07-4,.11-3.22,3.75,1.59,7.07,0,13.67-3.48,19.61-5.34,9.1-6.68,19-7.17,29.18-.13,2.85-.32,5.69-.48,8.54a46,46,0,0,0-.15,5.25c0,.52.3,1.25-.62,1.39a1.92,1.92,0,0,1-.6-1.58,145.1,145.1,0,0,1,2.26-30.79c1-5.08,3.87-9.3,6-13.85a29.72,29.72,0,0,0,2.55-18.56,33.53,33.53,0,0,1,.13-12.23,137,137,0,0,1,4.62-19c1.38-4.08,1.35-8.35,2-12.53a3.43,3.43,0,0,1,.48-1.88c1.71-.12,1.59,1.23,1.59,2.22a40.39,40.39,0,0,1-1.22,10.2c-.58,2.26-1.36,4.47-2,6.73a124.42,124.42,0,0,0-3.38,15,7.76,7.76,0,0,1-.2,1c-1,5.55-.27,6.53,5.22,5.8,7-.93,13.73-3,19.4-7.55a22.28,22.28,0,0,0,7.76-13.17,48.07,48.07,0,0,0,.2-18.09,7.26,7.26,0,0,1-.22-1.46c0-.57.19-1,.84-1a1.13,1.13,0,0,1,1.12.89,15,15,0,0,1,.78,3.87c.56,7.26.75,14.47-2.2,21.41a22.09,22.09,0,0,1-8.29,10.26,6.64,6.64,0,0,0-3.29,6.86,28.71,28.71,0,0,0,1.44,6.64c4.21,11.57,5.26,23.57,4.62,35.73-.31,5.76-1.59,11.45-2.24,17.2a2.18,2.18,0,0,1-.93,1.68C167,306,167.56,305.21,167.66,304.5Z"/><path class="cls-8" d="M131.61,312.46c1-1.24.29-2.68.49-4,.13-.84-.27-1.76.37-2.53-.62,4.42.75,8,3.66,11.49,3.2,3.85,4.27,8.7,4,13.79-.07,1.22-.45,1.78-1.73,2a92.4,92.4,0,0,1-13.27,1.36h-2.25a64.79,64.79,0,0,1-11.93-1.35c-1.1-.25-1.4-.64-1.3-1.74a27.43,27.43,0,0,1,2.36-8.33c-2.42.19-2.58-1.14-2.35-3A14.15,14.15,0,0,1,116.76,309c.41.12.84-.08,1.26,0a22.87,22.87,0,0,0,4.73.83,4,4,0,0,1,1.45.66c.41.64.06,1.39.29,2.05,1.21,1.14,2.59.57,3.93.39a10.6,10.6,0,0,1,2.64-.8A1,1,0,0,1,131.61,312.46Z"/><path class="cls-9" d="M179.17,151.09l.84.56c.61.17.93.69,1.33,1.12,2.65,2.79,4.45,6.14,6.34,9.45.24.5.54,1,.79,1.47a1.69,1.69,0,0,1-.09,1,88.75,88.75,0,0,1,8.1,38.31,100.29,100.29,0,0,1-9.5,41.32c-5.12,10.95-7.95,22.53-9.68,34.45-1.18,8.12-.82,16.37-2.11,24.47-.19,1.16-.35,2.32-.52,3.47a.69.69,0,0,1-.94,0,1.65,1.65,0,0,1-.29-.63,3.63,3.63,0,0,1,.08-1.43c.33-3.56,1-7.1,1-10.68a131.27,131.27,0,0,1,6-37.36A134.87,134.87,0,0,1,186.75,241a95,95,0,0,0,7.93-45.42c-1-14-4.78-27.21-12.89-38.93-1.12-1.62-2.74-2.89-3.31-4.87C178.53,151.32,178.65,151,179.17,151.09Z"/><path class="cls-10" d="M188.31,163.89a2,2,0,0,1-.93-1.27,1.09,1.09,0,0,1,1.19-.36,31,31,0,0,0,10.49.26c-1.09,0-2.59.23-4.09.15a5.1,5.1,0,0,1-2.72-.73c-.79-.56-1.57-1.18-1.52-2.26s1-1.42,1.75-1.77a23.06,23.06,0,0,0,5.62-3.39c-2.11.33-4.12,1.08-6.25,1.28-1,.09-2,.22-2.58-.72s.3-1.78.93-2.43a52.33,52.33,0,0,0,3.45-4,11.36,11.36,0,0,0,2.47-8,6.35,6.35,0,0,0-.23-2c.4-1-1.11-2.16.35-3,.24.61,1.08.89.92,1.72.62.63.41,1.74,1.27,2.24v.49c-.24,1.56.5,3.06.23,4.62-.21,1.17-.45,2.33-.76,3.48s-1.12,2.08-1.16,3.31l-.05,0a2.37,2.37,0,0,0,2.21,0,.43.43,0,0,1,0-.4,8.26,8.26,0,0,0,2.33-1.09.9.9,0,0,1,1.19-.13.94.94,0,0,1,.15,1.2,13.44,13.44,0,0,1-1.23,2.53,21.41,21.41,0,0,1-2.9,4.1l-.45.44c-.46.75-1.43.83-2,1.48.79,1.44,1.93.58,3,.46a17.58,17.58,0,0,0,4.11-1.37c.67-.21,1.09-1.15,2-.67.54,1-.37,1.55-.69,2.27-.85,2-2.87,2.81-4.15,4.37l-.16.14h-.2a22.91,22.91,0,0,0-3.58.62A16.41,16.41,0,0,1,188.31,163.89Z"/><path class="cls-11" d="M46.42,57l-1.27.58a.38.38,0,0,1,0-.59c4.61-19.75,13.83-36.35,31.8-47C67.53,22,60.91,35.2,60.18,50.8c-.81.36-1-.32-1.3-.79a2.9,2.9,0,0,1-.18-1A22.28,22.28,0,0,0,59,45.5a54.79,54.79,0,0,1,2.29-9.87c.41-1.15.68-2.34,1.2-3.45a106.52,106.52,0,0,1,6.78-13.87c.47-.81,1-1.59,1.47-2.39.12-.19.4-.46.36-.52-.16-.25-.25.07-.33.13A60.19,60.19,0,0,0,59.07,28.21,87.07,87.07,0,0,0,46.84,55.06C46.51,55.66,46.75,56.38,46.42,57Z"/><path class="cls-12" d="M106.59,110.14l.54.54c1.65.88,3.16,2,5.09,2.31a13.07,13.07,0,0,0,2,.1c1.86.58,3.89.55,5.61,1.61l2.17,1.23a2.41,2.41,0,0,1,1.69,2.5,1.13,1.13,0,0,1-.32.56c-2.68-2.57-6.18-3.24-9.61-3.86-7.91-1.44-11.45-5.31-11.89-13.41a7.3,7.3,0,0,0-.94-3.78c-1.19-1.84-2.66-1.75-3.61.2a4.42,4.42,0,0,0-.39,3.58,9.36,9.36,0,0,1,.41,4.55.36.36,0,0,1-.49-.06c-.13-.61,0-1.34-.68-1.72L96,103.41a42.41,42.41,0,0,1,.36-8.35,21.16,21.16,0,0,0-.27-3.44c-.11-1.69.73-.54,1.24-.41l.94,1a14.12,14.12,0,0,1,5,7.14c0,.77.6,1.39.48,2.18.44,1.34.27,2.79.74,4.13C104.72,107.36,106,108.61,106.59,110.14Z"/><path class="cls-13" d="M42.94,71.58l2.54-1c.5-.24.92-.27,1.07.4-.61,1.31-1.89,2-2.86,3C38,79.56,35.47,86.2,36.81,94.18a16.11,16.11,0,0,1,.12,2,87.13,87.13,0,0,0,4.48,17.57c.37,1,.64,2.1.93,3.15a6.4,6.4,0,0,1,.35,1.3,4.26,4.26,0,0,1-1.12,2.69c-.42,0-.59-.23-.62-.61-.1-.88.2-1.79-.2-2.64-.48-3.94-2.4-7.46-3.27-11.28-.12-.57-.23-1.14-.35-1.7A6,6,0,0,1,36,102.69c-1-1.93-.27-4.28-1.59-6.11.66-2.37,0-4.73,0-7.1a19.28,19.28,0,0,1,.92-6c.1-.53.47-.94.55-1.47,2.33-3.2,4-6.86,7-9.61A1.3,1.3,0,0,1,42.94,71.58Z"/><path class="cls-14" d="M178.66,312.48a20.23,20.23,0,0,1,1.5,7.88c0,1.46-.48,2.37-2,2.57-1.71.22-3.39.79-5.15.55a30,30,0,0,1-7.57,0c-2.19.28-4.31-.36-6.47-.5-1.34-.09-2.13-.74-1.93-2.39a13.78,13.78,0,0,1,1.37-5.51c.45-.13.65.13.8.48.21,1.35-.47,2.56-.64,3.85s.14,2.13,1.58,2.24,3,1,3.65-1.12c.34-1.11.51-2.28.9-3.38a13.49,13.49,0,0,1,.84-2.25c.58-1,1.08-2.73,2.44-2.32s.36,1.92.34,3-.34,2.16-.42,3.25c-.26,3.46-.1,3.63,3.27,3.62a9,9,0,0,0,3-.21c1.45-.33,3-.34,4.33-1.08.84-1.23.47-2.53.18-3.81s-1-2.77-.8-4.28C178,312.69,178.23,312.41,178.66,312.48Z"/><path class="cls-15" d="M50.78,61c1.08,1.11,0,1.49-.7,1.86-3.25,1.66-5.69,4.27-8.17,6.83A3.71,3.71,0,0,0,40.72,72c-1.18-.1-.45-1-.64-1.52A16.63,16.63,0,0,1,41,68c.16-.65.76-1,1.06-1.57.31-1.16,1.27-1.73,2.15-2.38C46,62.1,48.36,61.51,50.78,61Z"/><path class="cls-16" d="M78.61,48.58c-4.2,1.59-5.49,5.49-7.1,9.08-.62,1.37-.81,2.93-1.4,4.32-.43,1-.61.15-.76-.27.64-1.28-.92-3,.78-4.06-.85-1.55.08-3.07.74-4.1,1.79-2.78,4-5.3,7.67-5.73A.59.59,0,0,1,78.61,48.58Z"/><path class="cls-17" d="M158.93,315.57l-.51-.48a15.11,15.11,0,0,1,7-7.53,4.06,4.06,0,0,0,2.28-3.06c.23.59-.18,1.34.47,1.82a2.28,2.28,0,0,1,1.35.49,4.16,4.16,0,0,0,2.93.07,3.1,3.1,0,0,1,1.45-.12h.81c1.42,1.85,3.37,3.33,4,5.73l-.41.45c-1.48-.24-1.62-1.72-2.37-2.62-1-1.27-2-2.23-3.85-1.48a3.84,3.84,0,0,1-3-.05,3.69,3.69,0,0,0-3.87.64,17.1,17.1,0,0,0-4.59,4.62C160.14,314.65,160,315.62,158.93,315.57Z"/><path class="cls-18" d="M196.24,135.69c-.74,1.05.32,2.07,0,3.11.36.89-.2,1.77,0,2.65a12.06,12.06,0,0,1-6.14,8.8,16.54,16.54,0,0,1-9.28,2.6l-.83-1.2c1.58-.27,3.19-.41,4.73-.81,7.3-1.91,10.79-6.65,10.58-14.21a2.29,2.29,0,0,1,.07-1.85A1.09,1.09,0,0,1,196.24,135.69Z"/><path class="cls-19" d="M20.91,108.36c3.85-5,5.54-11,8-16.61a22.79,22.79,0,0,1,5.23-7.93.33.33,0,0,1,.55.05A2.7,2.7,0,0,1,33.81,86a39.23,39.23,0,0,0-5.66,11,41.53,41.53,0,0,1-5,10.16c-.48.72-.88,1.53-1.8,1.82C21,108.94,20.72,108.81,20.91,108.36Z"/><path class="cls-19" d="M112.79,105.36C109.63,100.56,108,95,105.11,90c-.72-1.24-1.62-2.39-2.43-3.58-.1-.4,0-.58.45-.44a23.37,23.37,0,0,1,4.58,7.3,119.48,119.48,0,0,0,5.56,11.51C113.44,105.3,113.21,105.42,112.79,105.36Z"/><path class="cls-20" d="M50.78,61,44.19,64c.55-1.09.75-1.91-1-1.7a15.09,15.09,0,0,1-2.77,0c-.53,0-1.09-.17-.54-.9.47-.26.63.26,1,.39Z"/><path class="cls-21" d="M201.06,153.65c.27-1.23,1.34-2.2,1.29-3.7-1.24.34-2.08,1.58-3.42,1.14,1-.71,2.09-1.44,3.15-2.13.34-.22.74-.58,1.17-.21a.88.88,0,0,1,.22,1c-.55,1.63-.83,3.4-2.31,4.55A.42.42,0,0,1,201.06,153.65Z"/><path class="cls-22" d="M108.79,55.19l.47.49a26,26,0,0,1-4.79,7.11l-.47-.51c.19-2.41,2.39-3.7,3.25-5.75C107.51,55.92,107.88,55.18,108.79,55.19Z"/><path class="cls-23" d="M188.31,163.89a36.26,36.26,0,0,0,8.28,1.23c.45-.13,1-.39,1,.44-3.17.85-6.16-.21-9.2-.83C187.78,164.5,188.29,164.18,188.31,163.89Z"/><path class="cls-24" d="M123.44,118.48c0-1.1-.94-1.72-1.46-2.55.27-2.42-1.61-3.5-3-4.86,0-.4,0-.64.52-.46a10.8,10.8,0,0,1,4.37,7C123.93,118,124.25,118.46,123.44,118.48Z"/><path class="cls-25" d="M123.44,118.48l.39-.92a10.54,10.54,0,0,1-.13,8c-.43,0-.64-.11-.44-.57a11.13,11.13,0,0,0,.09-6Z"/><path class="cls-26" d="M14.36,115.05l3.05-2.65c.39-.17.55.07.66.38-.95,1.65,1.13.7,1.24,1.45a.82.82,0,0,1-.17.6c-1.27,1-2.8.81-4.26,1C14.54,115.67,14.26,115.5,14.36,115.05Z"/><path class="cls-27" d="M77.09,62.9a18.22,18.22,0,0,1,0-7.78c.53.36.09,1,.45,1.43v4.86C77.19,61.84,77.67,62.54,77.09,62.9Z"/><path class="cls-28" d="M203.26,158.92a8.18,8.18,0,0,1-4.27,1.47c-.52.06-1.17.57-1.38-.41l5.14-1.46C203.18,158.32,203.31,158.5,203.26,158.92Z"/><path class="cls-29" d="M17.86,112.78l-.45-.38,3.5-4,.45.53A5.18,5.18,0,0,1,17.86,112.78Z"/><path class="cls-30" d="M112.8,128.45a21.48,21.48,0,0,1,6.6.14c-.24.79-.87.43-1.37.45a8.45,8.45,0,0,0-3.47,0c-.67.05-1.38.2-1.74-.62Z"/><path class="cls-31" d="M200.26,164.68c.81-1.9,3-2.58,3.92-4.34a.29.29,0,0,1,.5,0C203.92,162.52,202.08,163.6,200.26,164.68Z"/><path class="cls-32" d="M119.46,110.61l-.52.46c-1.29-1.21-3.23-1.72-3.94-3.58A20.66,20.66,0,0,1,119.46,110.61Z"/><path class="cls-33" d="M78.61,48.58l-.07-.76,1.71-.25L78.6,51c-.3-.09-.32-.4-.48-.6Z"/><path class="cls-34" d="M112.8,128.45l0,0c-1.61.76-2.75-.36-4-1a.36.36,0,0,1,0-.57C110.16,127.4,111.7,127.41,112.8,128.45Z"/><path class="cls-35" d="M70.13,57.65c-.67,1.28.05,2.82-.78,4.06.2-1.3-1.24-2.39-.47-3.76Z"/><path class="cls-17" d="M165.45,323.49H173A19.1,19.1,0,0,1,165.45,323.49Z"/><path class="cls-36" d="M201.06,153.65l.1.65c-.55,1.41-.93,2.95-2.69,3.4C199,156.12,200.2,155,201.06,153.65Z"/><path class="cls-37" d="M198.41,144.85c.38-1.57-.87-3.14,0-4.71a11.33,11.33,0,0,1,.39,5.66C198,145.78,198.29,145.28,198.41,144.85Z"/><path class="cls-38" d="M197.61,160c.36.47.91.32,1.38.41-.84.66-1.83.41-2.75.33s-1.25-.53-.39-1.26c.18-.21.36-.2.52,0C196.59,160.14,197.21,159.78,197.61,160Z"/><path class="cls-39" d="M179.17,151.09l-.5.5a2.2,2.2,0,0,1-2.22-2.23l.5-.48A6,6,0,0,1,179.17,151.09Z"/><path class="cls-40" d="M97.34,107.59c.26,1.42,0,2.91.54,4.3.16.43.4.91-.4.94a7.83,7.83,0,0,1-.6-3.34C96.89,108.82,96.24,108,97.34,107.59Z"/><path class="cls-23" d="M198.41,144.85l.42,1a7,7,0,0,1-.85,3.09c-.39.05-.66,0-.44-.5Z"/><path class="cls-41" d="M64.47,53.42l-3.14-1.67a.9.9,0,0,1,.46-.4A6.41,6.41,0,0,1,64.93,53,.76.76,0,0,1,64.47,53.42Z"/><path class="cls-42" d="M98.65,114.63a11.73,11.73,0,0,1,1.71,3.1c-.06.21-.08.45-.38.49a6.91,6.91,0,0,1-1.67-3.62C98.44,114.46,98.55,114.47,98.65,114.63Z"/><path class="cls-43" d="M40.84,61.8l-1-.39a5.67,5.67,0,0,1,2.62-2.57c.23.16.23.32,0,.49C42.12,60.27,40.79,60.57,40.84,61.8Z"/><path class="cls-44" d="M10.82,118.06a5.11,5.11,0,0,1,2.2-2.14c.65.14.65.14.27,1-.86.66-1.12,2.1-2.57,2A.81.81,0,0,1,10.82,118.06Z"/><path class="cls-45" d="M100.55,84.24l-2.3-1.71c0-.28.29-.32.47-.44a4.73,4.73,0,0,1,2.2,1.72C101.09,84.2,101,84.34,100.55,84.24Z"/><path class="cls-46" d="M100.55,84.24l.37-.43A5.79,5.79,0,0,1,103.13,86l-.45.44Z"/><path class="cls-47" d="M205.06,157.27a3.15,3.15,0,0,1,.9-1.76c.88,0,.57.56.5,1s0,.91-.45,1.19a.77.77,0,0,1-.9.12.39.39,0,0,1-.14-.37C205,157.34,205,157.27,205.06,157.27Z"/><path class="cls-48" d="M40.42,70.22c.08.58-.45,1.27.3,1.73l.46.11c.21.1.49.12.57.41-2.21.77-2.21.77-1.85-2.27A.37.37,0,0,1,40.42,70.22Z"/><path class="cls-49" d="M77.09,62.9c.14-.5,0-1.1.48-1.49l.5,3.51-.43.43C76.81,64.68,77.22,63.73,77.09,62.9Z"/><path class="cls-50" d="M197.54,148.39l.44.5a8.07,8.07,0,0,1-1.23,2.66C196,150.23,197.23,149.43,197.54,148.39Z"/><path class="cls-51" d="M205.07,157.75l.94,0a4.91,4.91,0,0,1-1.33,2.63h-.5c.23-.77.92-1.35.89-2.23q-.18-.12-.12-.24T205.07,157.75Z"/><path class="cls-52" d="M197.58,165.56c-.23-.37-.62-.39-1-.44,1.08-.38,2.14-.91,3.31-.31A4.19,4.19,0,0,1,197.58,165.56Z"/><path class="cls-53" d="M112.79,105.36l.48-.53a7.36,7.36,0,0,1,1.65,2.3C113.49,107.41,113.52,105.93,112.79,105.36Z"/><path class="cls-54" d="M9.59,123.52c-.11-.49,0-1.06-.45-1.42a3.9,3.9,0,0,1,.77-2.3,1,1,0,0,1,.69.7C10.47,121.58,10.93,122.85,9.59,123.52Z"/><path class="cls-55" d="M119.57,128.26l2.91-1.36C121.82,128,121.16,129.12,119.57,128.26Z"/><path class="cls-56" d="M77.57,56.55c-.5-.37-.33-.94-.45-1.43.23-.73-.53-1.91.93-2.1C77.48,54.14,77.82,55.39,77.57,56.55Z"/><path class="cls-57" d="M102.15,120.78a2.93,2.93,0,0,1,1.36,2c-1.05,0-1.28-.86-1.72-1.52C101.51,120.76,101.8,120.74,102.15,120.78Z"/><path class="cls-58" d="M61.79,51.35l-.46.4-2.15-.55a.82.82,0,0,1-.29-.78.72.72,0,0,1,.35-.45l.94.83Z"/><path class="cls-59" d="M205.07,157.75v.36c-.75-.06-1.16.64-1.81.81l-.51-.4a4.22,4.22,0,0,1,2.31-1.25Z"/><path class="cls-60" d="M40.42,70.22l-.52,0c.18-.79,0-1.72,1-2.15l0,0A2.8,2.8,0,0,1,40.42,70.22Z"/><path class="cls-61" d="M196.37,159.49l-.52,0a3.67,3.67,0,0,1,2.17-1.32C198,159.21,197.29,159.49,196.37,159.49Z"/><path class="cls-62" d="M97.34,107.59c-.6.52-.27,1.27-.46,1.9a5.84,5.84,0,0,1-.27-2.81.69.69,0,0,1,.38-.45l.33,0C97.33,106.71,97.33,107.15,97.34,107.59Z"/><path class="cls-63" d="M108.86,126.83l0,.57a4.45,4.45,0,0,1-2.24-1.33c0-.27.28-.3.47-.4Z"/><path class="cls-64" d="M98.65,114.63h-.17l-.17,0c-.72-.38-.59-1.16-.83-1.77l.4-.94A5.74,5.74,0,0,1,98.65,114.63Z"/><path class="cls-65" d="M13,116.74c.05-.27.49-.56,0-.82l1.34-.87.44.46c.17.63-.34.89-.67,1.25S13.4,117.15,13,116.74Z"/><path class="cls-66" d="M34.55,83.82h-.43a3.81,3.81,0,0,1,1.71-1.77c.54.27.1.6.05.9C35.48,83.31,35.42,84.19,34.55,83.82Z"/><path class="cls-67" d="M114.56,129a4.2,4.2,0,0,1,3.47,0Z"/><path class="cls-68" d="M67.93,56.55c-1-.24-1.36-1.07-1.73-1.89C67.41,54.71,67.85,55.47,67.93,56.55Z"/><path class="cls-69" d="M100,118.22l.38-.49.93,1.73a.69.69,0,0,1-.38.44C100.28,119.52,100.22,118.82,100,118.22Z"/><path class="cls-67" d="M10.31,120.3l-.4-.5c.1-.68.14-1.4.91-1.74l0,1C11.25,119.7,11,120.09,10.31,120.3Z"/><path class="cls-70" d="M198.43,139.65c-1.31-.24-1-1.41-1.27-2.24C198.1,137.86,198.14,138.82,198.43,139.65Z"/><path class="cls-58" d="M45.1,57l0,.59a2.35,2.35,0,0,1-1.34.81.33.33,0,0,1-.13-.34c0-.11.07-.17.1-.17A1.34,1.34,0,0,1,45.1,57Z"/><path class="cls-71" d="M41.75,72.47l-.57-.41,1.76-.48c.1.31.5.67-.14.86Z"/><path class="cls-58" d="M43.78,57.86l0,.51-1.3,1v-.49C42.72,58.24,43,57.77,43.78,57.86Z"/><path class="cls-33" d="M78.12,50.42l.48.6a3.32,3.32,0,0,1-.54,1.78A2.48,2.48,0,0,1,78.12,50.42Z"/><path class="cls-67" d="M100.91,119.9l.38-.44.86,1.32-.36.45C101.17,121,101.27,120.3,100.91,119.9Z"/><path class="cls-29" d="M98.72,82.09l-.47.44-1.33-.86.46-.38Z"/><path class="cls-61" d="M198.91,151.49c-.73.7-1.47.84-2.21,0C197.44,151.68,198.17,151,198.91,151.49Z"/><path class="cls-72" d="M206.46,156.53c-.09-.38-.07-.81-.5-1,.17-.38.24-.82.74-1A2.15,2.15,0,0,1,206.46,156.53Z"/><path class="cls-73" d="M40.87,68l0,0A1.22,1.22,0,0,1,42,66.42,1.91,1.91,0,0,1,40.87,68Z"/><path class="cls-74" d="M107,125.67l-.47.4c-.56-.29-1.15-.57-1.23-1.31C106.13,124.65,106.52,125.28,107,125.67Z"/><path class="cls-75" d="M123.26,125l.44.57c-.26.6-.45,1.26-1.26,1.34A2.8,2.8,0,0,1,123.26,125Z"/><path class="cls-76" d="M97,106.23l-.38.45c-.15-.73-.31-1.46-.46-2.19C97.36,104.62,96.83,105.59,97,106.23Z"/><path class="cls-77" d="M64.47,53.42l.46-.4c.57.27,1.1.57.94,1.34Z"/><path class="cls-78" d="M195.39,134.78l-.07,1.85a2.5,2.5,0,0,1-.22-1.93s.11-.07.14-.06S195.34,134.74,195.39,134.78Z"/><path class="cls-5" d="M10.31,120.3l.54-1.26,2.19-2.3.88-.31c2.25-1.2,4.84-.88,7.21-1.55,1.27-.35,2.56-.6,3.81-1a6.4,6.4,0,0,0,4.26-4.09,25.88,25.88,0,0,1,2.94-5.64c.46-.69,1-1.34,1.93-1.22s1.34,1,1.6,1.87c.77,2.6.09,5.24.21,7.86,0,.35,0,.71,0,1.06,0,.57-.26,1.1-.24,1.68-.17,1.08-.47,2.14-.64,3.22-.12.76-.54,1.41-.7,2.16a19.59,19.59,0,0,1-1,2.34,2.2,2.2,0,0,1-1.17,1.63c-1,.8-2.23,1.05-3.23,1.8l0,0a4.62,4.62,0,0,0-3.08,1.28l-.46.06a7.84,7.84,0,0,0-2.08,1,16.9,16.9,0,0,1-1.7,1.09,18.77,18.77,0,0,1-2.47,1.48l-.14.09-.14-.09a12,12,0,0,1-3.44.17,12.43,12.43,0,0,1-2.41-.73,13,13,0,0,1-2.73-2.61c-.11-.7-.7-1.34-.31-2.12l-.33-2.53Z"/><path class="cls-6" d="M117.67,309.41l-.91-.38c4.12-4.79,5.42-10.73,6.51-16.68,2.23-12.21,2.39-24.57,2.24-36.94,0-3.79-2.15-6.55-4.23-9.38a7.33,7.33,0,0,0-5.66-3.31,28,28,0,0,1-13.08-5.23c-1.19-.81-1.2-.15-1.3.69-.33,1.19.15,2.43-.29,3.61l-.12,6.5a12.05,12.05,0,0,0,0,3.93c0,1.88.09,3.75.13,5.62.43.88,0,1.86.33,2.74.07,3,1.14,5.81,1.41,8.76.45.69,0,1.53.35,2.23l.11,2.54a72.33,72.33,0,0,1,0,11.21l-.14,3.87c-.31.91.08,1.89-.29,2.79l-.15,2.48c-.32.72.11,1.55-.31,2.25l-.1,1.71c-.38.7.1,1.53-.35,2.22l-.89,7c-.64.14-1-.18-1.12-.76.28-4.87,1.18-9.66,1.59-14.51a42.56,42.56,0,0,1,.38-4.78A6.32,6.32,0,0,0,102,285a87.41,87.41,0,0,0-1.74-21.1,22,22,0,0,1-.46-5.66,6.41,6.41,0,0,0-.26-2.68,62.29,62.29,0,0,1-.19-7.1c.14-1.26,0-2.54.19-3.8a8,8,0,0,0,.33-2.78c.47-3.49-.58-6-3.38-8.56-7.29-6.59-11.8-15.21-15.82-24.05-2-4.42-4-8.91-4.21-14.22-.34,1.27,1.18,2.56-.74,3.09a10.93,10.93,0,0,1-.08-2.06c-.36-1.38.77-2.66.27-4.06-.18-6.76-1.7-13.37-2.33-20.08a1.5,1.5,0,0,1-.68-1.14.89.89,0,0,1,.81-1,1,1,0,0,1,.64.27c1.42,2.76,1,5.85,1.63,8.76,1.11,5.45,1,11.07,2.22,16.5,2.39,10.9,7.6,20.51,13.75,29.67,6.15,8.57,14,14.63,24.81,16.32a119.1,119.1,0,0,1-12.55-31.91,96.58,96.58,0,0,1-2.8-16.44c-.07-.78-.3-1.84.79-2s1.38.92,1.45,1.82a118,118,0,0,0,5.37,26c2.79,8.94,6.55,17.52,12.36,24.85A35.24,35.24,0,0,1,129,260.86a67.44,67.44,0,0,1,.33,14A322.59,322.59,0,0,1,125.22,308c-.17,1-.17,2.08-1.12,2.76-.44,0-.9.08-1.21-.36a5.89,5.89,0,0,1,.13-2.61A296.69,296.69,0,0,0,127,277.48a105.86,105.86,0,0,0,0-17.16,137.14,137.14,0,0,1-3.27,37.73,34.64,34.64,0,0,1-3.39,8.79A4.84,4.84,0,0,1,117.67,309.41Z"/><path class="cls-10" d="M73.57,170l-.4.86c-.08.32-.19.61-.6.63-.88-.38-.51-1.31-.83-1.93-.06-.28-.15-.56-.23-.84-.3-1-.55-2.5-1.66-2.52-.91,0-.74,1.51-1,2.35a20.66,20.66,0,0,1-5,8.75A11.87,11.87,0,0,1,59.85,180c-1.7.44-3.32,1.8-5.16.39.12-.79.72-1.13,1.34-1.44a11,11,0,0,0,6.27-4.16A22.08,22.08,0,0,0,67,161.13c0-1-.46-2.54.81-2.9,1.08-.31,1.46,1.19,2.11,1.93.29.32.54.69.86,1,.78.75,1.39.61,1.4-.48,0-4.24.5-8.5-.89-12.64-.44-1.33-1-1.75-2.39-1.07a9.72,9.72,0,0,1-6,1.08c-1.39-.24-2.29-.1-2.38,1.57,0,.5-.11,1.26-1,1a8.78,8.78,0,0,1,0-3.15c-.45.72.48,1.83-.67,2.35-.54-1.42.82-3.27-1-4.4,1.9-.59,3.89-.34,5.82-.66a13.36,13.36,0,0,0,2.86-.6,18.35,18.35,0,0,0,3.93-1.73c.65-.26,1.19-.88,2-.63A13.72,13.72,0,0,0,74,144.06,8.39,8.39,0,0,1,75,147a8.53,8.53,0,0,0,.28,1.81,14.77,14.77,0,0,0,.55,2.05,3,3,0,0,1,.24,1.23,5.51,5.51,0,0,0,.25,2.58,35,35,0,0,1-1.3,12.68A4.56,4.56,0,0,1,73.57,170Z"/><path class="cls-8" d="M100.08,307.18l.84.46c4.7,5.25,5.48,11.54,4.81,18.22-.15,1.53-1.39,1.37-2.29,1.45a127.71,127.71,0,0,1-17,.62c-2.27-.09-4.51-.33-6.75-.59-1.19-.14-1.7-.59-1.14-2A54.76,54.76,0,0,1,83,316.16c2.16-3.31,4.79-6.05,8.72-7.23a3.52,3.52,0,0,1,1.21.08,6.69,6.69,0,0,0,5.92-1.14A6.87,6.87,0,0,1,100.08,307.18Z"/><path class="cls-79" d="M92.53,309.39a.93.93,0,0,1-.86-.46c3-14.66,1.35-29.1-2-43.48-2.17-9.35-6-18.16-8.7-27.32a112.94,112.94,0,0,1-4.73-22.71c-.11-.7-.56-1.47.38-2,.82.58.82,1.52,1.07,2.36A155.76,155.76,0,0,0,86.1,248.5,139.83,139.83,0,0,1,94.63,287,93.39,93.39,0,0,1,94,304.9C93.8,306.46,93.82,308.16,92.53,309.39Z"/><path class="cls-80" d="M56.28,144.5h.07c-1.61.26-2.58-.83-3.64-1.73l-.58-.52A4.31,4.31,0,0,1,51,140.41a1.75,1.75,0,0,0-.81-1,6.81,6.81,0,0,1-2.07-.94,1.17,1.17,0,0,1-.16-.57.92.92,0,0,1,.3-.53,2.26,2.26,0,0,1,1.81.25,7.56,7.56,0,0,1,1.45.65c3.09,4.07,7.34,4.56,11.87,3.63,7.15-1.47,12-6.08,15.75-12.07.71-1.12,1-2.67,2.6-3,1,.44.82,1.26.71,2.07A12.33,12.33,0,0,1,81.08,131c-1.8,3-4.28,5.42-6.12,8.35a2.5,2.5,0,0,1-1.09,1.09c-1.2.56-2.23,1.41-3.38,2.05a21,21,0,0,1-4.43,1.93,25.68,25.68,0,0,1-3.8.7A10,10,0,0,1,56.28,144.5Z"/><path class="cls-81" d="M56.11,179.25l-1.28.89c-.38.15-.49,0-.48-.37,5.38-5.71,6.46-12.61,6-20.48-2.81,2.47-5.69,2.58-9.2,2.33,4.79-2.81,7.34-6.64,7.7-11.79a1.83,1.83,0,0,0,.35-1.41v-1.86c.8,1.74.25,3,.51,4.12.85,2.89-1,5-2.13,7.28-.29.59-.9.95-1.29,1.75a4.17,4.17,0,0,0,2.13-1c1.88-1.27,2.87-.9,3.35,1.34a17.53,17.53,0,0,1,.13,5.69,28.59,28.59,0,0,1-3.14,10.68C58.1,177.57,57.51,178.81,56.11,179.25Z"/><path class="cls-31" d="M72.75,171.27l.42-.46.43,1.09c-.56.76-1.09,1.54-1.68,2.28-.31.39-.69.92-1.25.59s-.16-.92.06-1.33c1.35-2.51.64-4.76-.81-7.2-1.31,4.29-2.5,8.37-5.91,11.25a.62.62,0,0,1-.34-.42,26.57,26.57,0,0,0,5.69-12.46A6.68,6.68,0,0,1,72,169.54C72.48,170,71.47,171.14,72.75,171.27Z"/><path class="cls-82" d="M48.21,137.42l0,.52c-1,.29-1.57-.56-2.33-.91a2,2,0,0,1-1.16-1.2,11.16,11.16,0,0,0-1.15-1.66,14.17,14.17,0,0,1-.8-1.55c-.31-.62-.66-1.22-.93-1.86a3,3,0,0,1-.57-2,1.27,1.27,0,0,1,.31-.54c.92-.08,1,.72,1.25,1.27a16.82,16.82,0,0,0,4.15,5.82,9.65,9.65,0,0,1,1.34,1.59A.57.57,0,0,1,48.21,137.42Z"/><path class="cls-18" d="M54.35,179.77l.48.37c1.85,1.18,3.45-.22,5.16-.5.48-.23.53,0,.49.42-2.42,1.46-5,1.64-8.26,1.3Z"/><path class="cls-83" d="M41.6,128.23l-.11.49c-.19.3,0,.88-.64.84a35,35,0,0,1-.1-9.15.32.32,0,0,1,.33-.23l.45.57A20,20,0,0,1,41.6,128.23Z"/><path class="cls-84" d="M75.89,196v2.16c1.26,2.28.41,4.75.65,7.13a8.24,8.24,0,0,1-.37,2.7.46.46,0,0,1-.64.24,107,107,0,0,1,0-12.28C75.66,195.77,75.79,195.79,75.89,196Z"/><path class="cls-85" d="M56.28,144.5a28.33,28.33,0,0,0,6.3.4c.53-.06,1.19-.6,1.4.41a18.21,18.21,0,0,1-6.16.12C57.19,145.31,56.34,145.55,56.28,144.5Z"/><path class="cls-86" d="M103.15,285.32V274.11A42.93,42.93,0,0,1,103.15,285.32Z"/><path class="cls-87" d="M75.87,208.23l0-2.64c.78.06.93.7.95,1.25.08,2.24.43,4.49-.14,6.71-.61.51-.26,1.25-.45,1.87a10.42,10.42,0,0,1-.42-4A5.68,5.68,0,0,1,75.87,208.23Z"/><path class="cls-88" d="M36.32,102.72a2.2,2.2,0,0,1,.81,1.9c-.89,1.81,0,3.86-.74,5.69-.81-.66-.33-1.66-.66-2.45C36.36,106.19,35,104.3,36.32,102.72Z"/><path class="cls-23" d="M60.48,180.06l-.49-.42,3.68-2.57.34.42A7.62,7.62,0,0,1,60.48,180.06Z"/><path class="cls-89" d="M36,108.06c.55.68.15,1.53.42,2.25a12.27,12.27,0,0,1-.45,4.39c-.39-.21-.18-.67-.41-1l0-.92C36,111.27,35.28,109.61,36,108.06Z"/><path class="cls-90" d="M52.71,142.77l3.64,1.73C54.41,145.46,53.47,144.3,52.71,142.77Z"/><path class="cls-91" d="M28.85,126.51c.56-1.54,2.07-1.35,3.23-1.8C31.47,126.15,30.15,126.3,28.85,126.51Z"/><path class="cls-92" d="M25.8,127.76c.6-1.46,1.71-1.69,3.08-1.28A6.83,6.83,0,0,1,25.8,127.76Z"/><path class="cls-93" d="M34.65,118.6a10.63,10.63,0,0,1,.72-3.2c.43.18.2.66.43.94a7.24,7.24,0,0,1-.78,3.13C34.66,119.28,34.88,118.85,34.65,118.6Z"/><path class="cls-67" d="M15.28,131.27l3.53.07c-1.41.91-2.92.54-4.42.33C14.39,130.87,14.86,131.12,15.28,131.27Z"/><path class="cls-94" d="M45.84,137c1-.21,1.54.65,2.33.91a1.22,1.22,0,0,1,0,.38.32.32,0,0,1,.1.34c0,.1-.08.16-.12.16A3.21,3.21,0,0,1,45.84,137Z"/><path class="cls-95" d="M75.89,196a1,1,0,0,0-.39-.05,10.18,10.18,0,0,1,.43-4C76.88,193.34,75.64,194.68,75.89,196Z"/><path class="cls-96" d="M10.44,128.15,13,130.48c.1.36,0,.55-.38.38a4.17,4.17,0,0,1-2.24-2.17C10.19,128.49,10.2,128.31,10.44,128.15Z"/><path class="cls-97" d="M19.09,131.34c.4-1.07,1.49-1.21,2.33-1.69a.69.69,0,0,1,.46.37A3.86,3.86,0,0,1,19.09,131.34Z"/><path class="cls-98" d="M33.25,123.08a3,3,0,0,1,.89-2.32c.11-.21.24-.22.37,0A2.11,2.11,0,0,1,33.25,123.08Z"/><path class="cls-86" d="M100.82,252.22a4.93,4.93,0,0,1,0-3.93Z"/><path class="cls-99" d="M48.18,138.82l0-.5a5,5,0,0,1,2.22.88c0,.28-.27.31-.46.41A2.43,2.43,0,0,1,48.18,138.82Z"/><path class="cls-100" d="M41.94,130.88c.72.37.8,1.08,1,1.76a.42.42,0,0,1-.66.07,3.47,3.47,0,0,1-.65-1.84A.2.2,0,0,1,41.94,130.88Z"/><path class="cls-101" d="M41.94,130.88l-.17,0-.17,0-.75-1.31.64-.84Z"/><path class="cls-102" d="M12.63,130.86l.38-.38,2.27.79-.89.4A2.33,2.33,0,0,1,12.63,130.86Z"/><path class="cls-86" d="M101,241.79c.08-1.21-.36-2.45.29-3.61A10.71,10.71,0,0,1,101,241.79Z"/><path class="cls-101" d="M51.16,140.12c.23.75,1,1.28,1,2.13-1.35.14-.94-1.08-1.31-1.7C50.58,140.13,50.83,140.1,51.16,140.12Z"/><path class="cls-103" d="M10.44,128.15l0,.54a2.6,2.6,0,0,1-.9-2.17l.43-.47C10.12,126.74,10.59,127.37,10.44,128.15Z"/><path class="cls-67" d="M23.14,128.68a2.37,2.37,0,0,1,2.2-.86c-.56.73-1.5.82-2.19,1.31q-.21-.15-.15-.3C23.05,128.73,23.1,128.68,23.14,128.68Z"/><path class="cls-104" d="M34.51,120.75h-.19l-.18,0,.51-2.16.37.87C35.13,120,34.74,120.35,34.51,120.75Z"/><path class="cls-105" d="M75.87,208.23l0,3.19a6.83,6.83,0,0,1-.32-3.17Z"/><path class="cls-106" d="M42.25,132.71l.66-.07.83,1.34a.77.77,0,0,1-.4.45A4.11,4.11,0,0,1,42.25,132.71Z"/><path class="cls-67" d="M23.14,128.68v.45l-1.27.89-.46-.37Z"/><path class="cls-107" d="M41.08,120.18l-.33.23V117.6C41.33,118.4,41.06,119.31,41.08,120.18Z"/><path class="cls-108" d="M35.8,116.34l-.43-.94c.05-.55.11-1.1.16-1.65l.41,1Z"/><path class="cls-86" d="M101.28,260.58c-.67-.84-.27-1.82-.33-2.74A6.89,6.89,0,0,1,101.28,260.58Z"/><path class="cls-86" d="M102.72,292c0-.93-.34-1.92.29-2.79A6.6,6.6,0,0,1,102.72,292Z"/><path class="cls-109" d="M43.34,134.43l.4-.45c.33.61,1.16,1,.94,1.85A2.4,2.4,0,0,1,43.34,134.43Z"/><path class="cls-86" d="M103,271.57c-.62-.66-.28-1.48-.35-2.23A4,4,0,0,1,103,271.57Z"/><path class="cls-86" d="M102.26,296.71c0-.76-.27-1.56.31-2.25A4.12,4.12,0,0,1,102.26,296.71Z"/><path class="cls-86" d="M101.81,300.64c.07-.75-.27-1.56.35-2.22A4,4,0,0,1,101.81,300.64Z"/><path class="cls-101" d="M51.16,140.12l-.34.43-.86-.94.46-.41A.79.79,0,0,1,51.16,140.12Z"/><path class="cls-110" d="M36.39,96.14c-1-6-.65-11.87,2.61-17.26a22.32,22.32,0,0,1,7.41-7.83A18.46,18.46,0,0,1,52,68.69c.74,1.06-.72,1.27-.78,2-.39.57-.69,1.19-1,1.79-.06.63-.88,1-.53,1.78L49,76c-.34,1.11-.2,2.39-1.12,3.3a2.33,2.33,0,0,1-1.08,0c-4.7-.54-6.17.22-8.49,4.41-.17.24.34.23.06.13-1.5-.53,5.49-4.24,8.39-4.47.9.13,1.55,0,1.73-1.1a2.91,2.91,0,0,1,1-1.9.4.4,0,0,1,.35,0,16.56,16.56,0,0,1,3.61-2.4A11.79,11.79,0,0,1,57,72.7a.6.6,0,0,1,.56.14c.07,1.77-1.59,3.07-1.37,4.89a.45.45,0,0,1-.08.4A8.19,8.19,0,0,0,56,83.49c1-.4,1-1.35,1.57-1.84a11.53,11.53,0,0,1,1.32-2A24.29,24.29,0,0,1,62.56,76a12.67,12.67,0,0,1,4.6-2.47,5.28,5.28,0,0,1,1.52-.27,15.61,15.61,0,0,1,2.43-.49l.75-.43a8.43,8.43,0,0,0,4-1,8.8,8.8,0,0,0,4.43-2.89c.59-1.66,1.46-.29,2,0C88,71.21,91.5,75.87,93.49,81.9c1.82,5.51,1.93,11.15,1.66,16.84-1.22-.24-.86-1.26-.76-1.93.29-1.93,0-3.86.15-5.14.09,6.53-.55,13.7-.5,20.88a6.73,6.73,0,0,1-.69,2.74,43.65,43.65,0,0,1-8.28,11.79c-.63.68-1.52,2.22-2.63.34-.26-.73-.81-1.3-1.08-2a5.55,5.55,0,0,1-.24-.56,3,3,0,0,0-1.57-2,3.79,3.79,0,0,1-1.48-1.49c-1.47-2.09-4-2.57-5.91-4.1-.81-2.35-3.09-2.24-4.89-2.92a8.39,8.39,0,0,1-1.86-.3,5.74,5.74,0,0,0-2.35-.78c-.81-.24-1.66-.32-2.48-.49a7.85,7.85,0,0,0-1.27-.22c-.67,0-1.34,0-2,0h-3a4,4,0,0,0-2.34.34c-.41.18-.91-.12-1.29.23-.77.2-1.57,0-2.34.21-1.16,0-2.27.42-3.43.35-1.5-.58-.78-1.43-.25-2.22,1.63-2.42,3.39-4.74,5.17-7,.18-.23,0,.09.12-.17s-.21-.12-.32-.19a1.24,1.24,0,0,1-1.73-1.24,4.48,4.48,0,0,1,2-2.25,3.63,3.63,0,0,0,1.81-1.71,9.3,9.3,0,0,0,.55-1.64,7.09,7.09,0,0,0,.2-4.72,5.36,5.36,0,0,0-1.09-2.66,8.79,8.79,0,0,0-3-2.64c-.8-.16-1.3-1-2.18-1-.65,0-1.29,0-2.19,0,1,0,1.77,0,2.52,0,.37.15.53.38.29.76-1,.67-2.22.43-3.35.41-1.12-.23-2.15-.18-2.81,1-.59.76-1.21,1.49-1.82,2.22a4.74,4.74,0,0,0-1.1,2.23c-.07.29-.15.57-.23.85-.29.76-.11,1.64-.57,2.36A.44.44,0,0,1,36.39,96.14Z"/><path class="cls-111" d="M59.58,45.55a8.79,8.79,0,0,1-.4,3.53c-.88.66-1.82.11-2.74.15a9,9,0,0,0-4.74,1.28c-.25.57-1.63-.1-1.26,1.15a1.33,1.33,0,0,0,.34.1c.37.29,1.14.13,1.07.93a13.05,13.05,0,0,1-.94,2.65,2.1,2.1,0,0,1-1.17.34,3.84,3.84,0,0,0-2.42.91h0c-.95,0-1.26-.45-.92-1.34a80.6,80.6,0,0,1,13.44-29A57.76,57.76,0,0,1,70.77,14.87c.54-.44,1.15-.78,2.28-1.53-.79,1.36-1.13,2.21-1.91,2.78a15.85,15.85,0,0,0-1.7,2C67.41,21,65,23.53,63,26.4a37.69,37.69,0,0,0-3.17,5c1.17.18,2.45-.13,3.22.95l-1.21,3.14c-4-.69-5.78,1.65-6.74,5.1-.43,1.53-1.31,2.93-1.56,4.7C55.62,45.34,57.68,44.38,59.58,45.55Z"/><path class="cls-112" d="M51.67,52.62l-.89-.86a15.12,15.12,0,0,1,10.61,4.71,7.53,7.53,0,0,1-4-.39,7.35,7.35,0,0,0-2.51-1.23C53.63,54.31,52.36,53.88,51.67,52.62Z"/><path class="cls-113" d="M52.07,68.91l-5.66,2.14-.93-.45c3.44-1.11,6.64-2.76,10.11-4L53,68.88A.74.74,0,0,1,52.07,68.91Z"/><path class="cls-114" d="M50.44,51.66c-.29.46-.63.57-1,.13a.42.42,0,0,1,.14-.7c.56-.28,1.16-.49,1.75-.73,2.62-1.08,5.24-1.55,7.85,0v.8C56.24,50.92,53.29,50.35,50.44,51.66Z"/><path class="cls-114" d="M55.23,54.43c.73.51,2,.34,2.11,1.65a28.75,28.75,0,0,0-6.42-.36c-.55.08-1.25.62-1.41-.47l1.34-.06C52.08,53.63,53.77,54.69,55.23,54.43Z"/><path class="cls-114" d="M57.89,81.65l-1.55,2.91c-1.49-2.38-1.56-4.82-.26-6.43V79a6.48,6.48,0,0,0,0,3.52c1,.12.79-1,1.38-1.31C57.84,81.11,58.06,81.2,57.89,81.65Z"/><path class="cls-115" d="M80.25,68.42C79.63,70.6,77.71,71,76,71.54c-.5.27-.54,0-.52-.41,1.51-.77,3.19-1.25,4.25-2.72Z"/><path class="cls-116" d="M67.13,73.76,62.66,76.3c-.19-.12-.45-.15-.5-.43a10,10,0,0,1,4.5-2.53C66.83,73.47,67.09,73.49,67.13,73.76Z"/><path class="cls-117" d="M49.49,76.37c-.48,1.43-.28,3.39-2.62,3.38-.1-.71.66-.41.88-.75.93-.81-.16-2.45,1.26-3Z"/><path class="cls-118" d="M56.16,77.73c-.85-1,.15-1.82.38-2.69s.82-1.34.83-2.17a.59.59,0,0,1,.91,0Z"/><path class="cls-119" d="M62.16,75.87l.5.43a20.69,20.69,0,0,0-3.49,3.57c-.4.08-.61,0-.46-.48A13,13,0,0,1,62.16,75.87Z"/><path class="cls-120" d="M53.5,74.18c-1.25.66-2.19,1.86-3.66,2.15.51-1.53,1.92-2,3.19-2.56C53.22,73.87,53.47,73.91,53.5,74.18Z"/><path class="cls-121" d="M75.43,71.13l.52.41a4.5,4.5,0,0,1-4.09.8Z"/><path class="cls-122" d="M53.5,74.18,53,73.77a9,9,0,0,1,3.52-1.32.84.84,0,0,1,.45.4Z"/><path class="cls-123" d="M49.51,55.25c.35.53.91.39,1.41.47l-3.6.87C47.55,55.32,48.7,55.56,49.51,55.25Z"/><path class="cls-124" d="M71.11,72.77c-.6.76-1.57.45-2.31.8-.3-.09-.48-.25-.37-.59C69.32,73,70.16,72.07,71.11,72.77Z"/><path class="cls-125" d="M58.71,79.39l.46.48-1.28,1.78-.44-.45A3.85,3.85,0,0,1,58.71,79.39Z"/><path class="cls-126" d="M52.07,68.91l1,0L51.3,71.14c-.28,0-.32-.31-.44-.49Z"/><path class="cls-110" d="M56.07,82.51a3.25,3.25,0,0,1,0-3.52Z"/><path class="cls-58" d="M57,72.85l-.45-.4A5.91,5.91,0,0,1,58.18,72c1,0,.18.5.1.79l-.91,0Z"/><path class="cls-124" d="M68.43,73l.37.59-1.67.19-.47-.42Z"/><path class="cls-127" d="M49.63,74.28c-.81-.82.21-1.27.38-1.9a.25.25,0,0,1,.43,0A3.59,3.59,0,0,1,49.63,74.28Z"/><path class="cls-128" d="M50.44,72.41l-.43,0c.28-.57.56-1.15.85-1.73l.44.49C51.06,71.6,51,72.15,50.44,72.41Z"/><path class="cls-123" d="M46.41,55.24a1.4,1.4,0,0,0,.92,1.34.91.91,0,0,1-.91.4C46.19,56.4,45.65,55.82,46.41,55.24Z"/><path class="cls-110" d="M124.1,310.71c1.65-8.89,3-17.83,3.91-26.82,1-10.24,2.14-20.53-1.49-30.58a23.77,23.77,0,0,0-3.87-7.08c-8.51-10.35-13.18-22.47-16.46-35.25a97,97,0,0,1-3.13-18.3c0-.56,0-1.43-.73-1.33s-.37.91-.32,1.45a140.09,140.09,0,0,0,2.77,16.8c-1.15.08-1.66-.8-2.23-1.54A52.72,52.72,0,0,1,92,182.13c-1.16-9.15-1.29-18.4-2.51-27.54A52.42,52.42,0,0,0,83,134.65a4.67,4.67,0,0,1-.92-2.21c.53-2,2.15-3.25,3.41-4.72A46.46,46.46,0,0,0,92,118.37c.32-.63.5-1.67,1.34-1.48s.67,1.19.7,1.91a65.77,65.77,0,0,0,3.65,18.41,34.51,34.51,0,0,0,15.61,19.59l1.71,0a16.11,16.11,0,0,1,5,1.67c-.65-.75-2.38-.42-2.29-2.08a82.37,82.37,0,0,0,30.72-11c1.62-.81,3.29-.38,4.95-.15,9.54,1.32,18.06,4.84,24.93,11.8,4.3,4.36,6.67,9.77,8.28,15.55a104.24,104.24,0,0,1,4.21,29.69c-.09,6,.21,12-.61,18-1,7.44-3.7,14.25-6.78,21-5,11.05-7.4,22.82-8.43,34.86a148.33,148.33,0,0,0-.67,22.8,26.53,26.53,0,0,1-.38,6.08l0,1.28c-.43.85-1.42.64-2,1.1-.93-.09-1.88.26-2.78-.22l-.89-.86c1.57-10.46,3.29-20.9,2.6-31.55a103.1,103.1,0,0,0-5.27-25.19,18.56,18.56,0,0,1-.74-3.2c-.51-3.62.08-6.55,3.65-8.78,5.95-3.71,8.69-9.71,9.81-16.42a48.55,48.55,0,0,0-.35-17.86c-.11-.53.06-1.3-.9-1-.08,0,0,.52-.06.79-1.58,5.21-5.06,9-9.4,11.95a39,39,0,0,1-17.86,6.6c-.86-.16-1.8.53-2.62-.21.82-3.22,1.78-6.41,2.43-9.67a35.39,35.39,0,0,0,.69-7.77c0-.74,0-1.47-.81-1.84-.72,2.67-1.67,5.28-2.17,8a61.36,61.36,0,0,1-12.77,27.16c-3.2,4-2.25,6.78.11,9.88a16,16,0,0,0,3.52,3.6c2.57,1.77,2.93,4.19,2.47,7a27.82,27.82,0,0,1-4.06,10.84c-7,10.57-7.11,22.17-5.69,34.09.39,3.24,1.13,6.47.52,9.76l-2.65,1a6.44,6.44,0,0,1-4.81-.49Z"/><path class="cls-95" d="M173.87,305c.21-5.41-.69-10.78-.46-16.2.67-15.64,2.5-31.05,8.38-45.73,1.71-4.27,4.12-8.23,5.43-12.68a66.64,66.64,0,0,0,2.88-17.82c.09-5.05.3-10.13,0-15.16-.72-11-2.34-21.86-6.89-32.06-3.6-8.08-10.17-13-18-16.38a47.68,47.68,0,0,0-16.76-3.61c6-4.08,12.47-4,19-1.67a30.54,30.54,0,0,1,9,5.65,9.59,9.59,0,0,0,2.22,2.23c9.13,10.75,13.86,23.42,15.84,37.19,2.84,19.66-.51,38.37-8.9,56.3-4.39,9.39-6.91,19.37-8.65,29.56a134.21,134.21,0,0,0-1.88,20.91A37.22,37.22,0,0,1,173.87,305Z"/><path class="cls-111" d="M112.25,46.84l-1.67,4c-2.89-1.41-2.85-1.39-5,1.61A23.87,23.87,0,0,1,100,58.57c-1.16.81-1.43,1.59-.45,2.88.82,1.09,2,2.23,1.37,3.89A8.67,8.67,0,0,1,98.26,68c-1.11-.77-.83-2.1-1.28-3.14-.88-2-1.36-2.12-3.06-.8-2.6,2-4.87,4.6-8.35,5.25l-5.09-3.12c10.83-4.93,19.45-12,24.9-22.49a63.94,63.94,0,0,0,6.94-32.91,1.36,1.36,0,0,1,.88,1.42,11.56,11.56,0,0,0,.28,4.27c.5,3.57,0,7.1,0,10.64,0,.74-.26,1.58.52,2.29,1-2-.42-4.43,1.08-6.28.77,1.51.34,3.13.36,4.7a37.08,37.08,0,0,1-.82,8.13c-.64-.32-.47-1.59-1.43-1.41s-.83,1.25-1,2a19.88,19.88,0,0,1-1.09,4.21C109.91,43.12,110.11,45.13,112.25,46.84Z"/><path class="cls-95" d="M113.26,156.8c-4.83-1.58-8.12-5.11-10.9-9.07-5.11-7.27-7.38-15.59-8.51-24.3-.26-2-.46-4.05-.57-6.2-2.51,5.82-6.93,10.22-10.83,15a13.47,13.47,0,0,1-4,4.15,1,1,0,0,1-.89-.16c.64-2,2.3-3.3,3.3-5.05a19.15,19.15,0,0,0,1.34-2.1c.19-.71-.28-1.51.32-2.16.39.62.55,1.51,1.55.4,3.54-3.92,6.87-8,9-12.87a3.3,3.3,0,0,0,.35-1.46c-.24-4.54.45-9,.46-13.57,0-3,.78-5.91.58-8.92.71,2.72-.24,5.56.69,8.25a59.23,59.23,0,0,0-.35,11.37A113,113,0,0,0,101.25,141c1.79,4.84,5.55,8.53,8.85,12.42C111.09,154.62,112.21,155.69,113.26,156.8Z"/><path class="cls-129" d="M100.92,65.34a9.11,9.11,0,0,0-2.24-4.18c-.81-.78-.93-1.42,0-2.12A31.89,31.89,0,0,0,107,49.32c.56-1,1.33-.83,2-.24a16.92,16.92,0,0,1,1.6,1.77c-.6,1.45-1.19,2.9-1.79,4.34q-2.39,3.56-4.79,7.09C103,63.3,102.2,64.58,100.92,65.34Z"/><path class="cls-130" d="M85.57,69.28a39.27,39.27,0,0,0,9-6.64c.89-.9,1.34-.35,1.89.28,1.27,1.45,1.34,3.31,1.77,5a52,52,0,0,1-6.43,5.12c-.92.65-1.49.57-2.17-.26A26.65,26.65,0,0,0,85.57,69.28Z"/><path class="cls-131" d="M112.25,46.84c-2.79-1.35-3-2-2.17-4.78.63-2.08,1.09-4.21,1.67-6.31.24-.87-.13-2.17,1.56-2.07s1,1.39,1.27,2.25A62.52,62.52,0,0,1,112.25,46.84Z"/><path class="cls-132" d="M115,23.1c0,2-.05,4.08-.05,6.12,0,.83-.17,1.44-1.21,1.38s-1-.66-1-1.36c.14-2.17-.13-4.34.31-6.53.55-2.74-.65-5.48-.3-8.26.1-.76-.3-1.62.41-2.27A39.72,39.72,0,0,1,115,23.1Z"/><path class="cls-133" d="M117.65,156.42c.68,1.25,2.41,1.19,3.2,2.63a22.59,22.59,0,0,1-5.88-2.22Z"/><path class="cls-134" d="M103.13,99.21a25.47,25.47,0,0,0-4.83-7c1.07-.58,1.17.56,1.6,1a13,13,0,0,1,3.62,6.07C103.38,99.43,103.25,99.43,103.13,99.21Z"/><path class="cls-135" d="M111.93,113.22a8.08,8.08,0,0,1-4.8-2.54c1.92.3,3.37,1.72,5.24,2.14A.79.79,0,0,1,111.93,113.22Z"/><path class="cls-136" d="M119.81,114.7l-5.72-1.44c-.14-.09-.18-.17-.14-.26s.09-.13.13-.13C116.05,113.3,118.22,113.11,119.81,114.7Z"/><path class="cls-137" d="M104.36,105.83a12.66,12.66,0,0,1-.74-4.44c.12-.17.24-.18.35,0,.77,1.37.27,3,.89,4.42C104.7,106.05,104.53,106.06,104.36,105.83Z"/><path class="cls-138" d="M104.36,105.83h.5c.12,1.62,1.76,2.63,1.73,4.32A7.49,7.49,0,0,1,104.36,105.83Z"/><path class="cls-67" d="M104,101.4h-.35c-.12-.74-.65-1.38-.49-2.18l.39,0Z"/><path class="cls-67" d="M114.08,112.87a1.7,1.7,0,0,1,0,.39l-2.16,0,.44-.4Z"/><path class="cls-139" d="M149.72,221.07c9.47-1.49,18-4.85,23.93-12.85,1.2-1.62,2.15-3.43,3.22-5.16l.12,1.18c1,8,.24,15.74-4.31,22.72-5,7.65-12.28,11.16-21.15,11.79a48.06,48.06,0,0,1-6.35,0c-.88-.06-2.08,0-1.71-1.53l.11-.79a74.54,74.54,0,0,0,3.93-12.91C147.73,222.24,148.06,221,149.72,221.07Z"/><path class="cls-95" d="M131.23,312.42c.19-4.18-1.09-8.2-1.43-12.33a73.79,73.79,0,0,1,.29-17c.76-5.16,2.87-9.7,5.47-14.16,2.42-4.15,4.4-8.57,4.48-13.57a4.13,4.13,0,0,0-1.89-3.68,18.9,18.9,0,0,1-5.74-6.54,5.94,5.94,0,0,1,.34-6.6,129.56,129.56,0,0,0,8.14-12.17c3.24-5.75,4.52-12.13,6.15-18.4a18.61,18.61,0,0,1,2.26-5.85c-.06,7.3-1.92,14.23-3.88,21.21s-3.81,14.27-3.18,21.75c.18,2.18.65,4.32.86,6.5A26.92,26.92,0,0,1,140.19,266c-1,2.1-1.89,4.26-3.1,6.28-3.17,5.28-3.87,11.25-4.51,17.21a202.37,202.37,0,0,0-1,23Z"/><path class="cls-140" d="M143.47,237.2c.14.53.38.92,1,1,7.33.37,14.51-.13,20.81-4.42,6.61-4.51,9.87-11.07,11.24-18.79.63-3.57.27-7.14.46-10.71,1.77,11.22,1.85,22.17-7,30.88-5,4.93-11.58,6.9-18.3,8.32a41.82,41.82,0,0,1-7,.52c-1.39,0-1.82-.5-1.69-1.79C143.21,240.51,142.81,238.81,143.47,237.2Z"/><path class="cls-141" d="M149.72,221.07c-1.54.51-1.5,1.92-1.77,3.14-.95,4.25-1.88,8.5-4.37,12.2a84.94,84.94,0,0,1,3.41-15C147.91,221.41,148.76,220.79,149.72,221.07Z"/><path class="cls-142" d="M124.24,319.6c-3.61,3.59-4.78,7.81-5.27,12.27-.13,1.18-.19,1.71-1.62,1.36a37.12,37.12,0,0,0-4.75-.57c-1.56-.19-2.31-.93-1.95-2.64a23.59,23.59,0,0,1,10.06-15.08,3.41,3.41,0,0,1,3.61-.55c1.93.8,4,.31,6-.5.87-.37,1.73-.64,2.52.36,3.75,4.71,6.71,9.71,6.39,16.07-.07,1.33-.36,1.86-1.78,2.07a88.3,88.3,0,0,1-12.35,1.22c-1.34,0-1.77-.45-1.77-1.78a69.38,69.38,0,0,1,.8-9.55C124.2,321.52,124.18,320.74,124.24,319.6Z"/><path class="cls-143" d="M117.67,309.41c4.59-5.63,5.82-12.49,6.94-19.34a167.86,167.86,0,0,0,1.8-29,27.58,27.58,0,0,1,.12-3.51,16.16,16.16,0,0,1,1.18,5.63c.63,11.7-.72,23.27-2.52,34.8q-.9,5.71-1.86,11.43a4.41,4.41,0,0,1-.44,1C121.11,310.3,119.3,310.35,117.67,309.41Z"/><path class="cls-142" d="M110.53,320.38a13.68,13.68,0,0,1,5-9.44,1.89,1.89,0,0,1,2-.33,14.25,14.25,0,0,0,4.24,1c.44,0,.93,0,1,.6s-.41.73-.79.93a9,9,0,0,0-2.41,1.51c-.14.14-.49.34-.53.29-2-2-2.1.72-2.63,1.31a32.9,32.9,0,0,0-3.27,4.9c-.47.76-1,1.23-2,.92S110.74,321,110.53,320.38Z"/><path class="cls-144" d="M123.77,312.89a18.12,18.12,0,0,0,4.81.49C126.92,313.84,125.23,314.52,123.77,312.89Z"/><path class="cls-145" d="M180.84,152.85c1.45-.88,3.16-.77,4.73-1.23,5.28-1.57,9-4.69,10.32-10.19.34-.2-.09-1.14.79-.83.52,4.87-2.14,8.3-5.21,11.56-.77.81-2.43,1.52-1.92,2.63.65,1.39,2.29.41,3.41.21,2.2-.38,4.34-1.08,6.64-1.69.07,1.23-.78,1.65-1.43,2.09a26.65,26.65,0,0,1-6,3.23c-1.58.58-1.4,1.43-.34,2.4a4.46,4.46,0,0,0,3.24,1.1c1.68,0,3.36,0,5.11,0-2.06,1.63-5.1,1.74-12.84.5C185.34,159.27,183.48,155.8,180.84,152.85Z"/><path class="cls-146" d="M172.07,307.18l1.78-.88v.46c-.32.52-.84.43-1.32.44A.27.27,0,0,1,172.07,307.18Z"/><path class="cls-147" d="M196.68,140.6l-.79.83c.13-.87.26-1.75.4-2.63C196.91,139.29,196.67,140,196.68,140.6Z"/><path class="cls-148" d="M59.58,45.55c-2,.08-4.07-.22-6,.61-.9.39-1-.17-.8-.88a40.23,40.23,0,0,1,4-9.4c1.12-1.76,3.34-1,5.13-.41Z"/><path class="cls-149" d="M63,32.33a6,6,0,0,0-4.49.19A73.64,73.64,0,0,1,69.28,17.87c.42-.09.65,0,.48.49C67.43,23,64.91,27.49,63,32.33Z"/><path class="cls-150" d="M59.17,50.4a26.82,26.82,0,0,0-7.85,0c2.33-2.18,5.07-1.9,7.86-1.28l.06.89A3,3,0,0,0,59.17,50.4Z"/><path class="cls-151" d="M69.76,18.36l-.48-.49a3.77,3.77,0,0,1,1.86-1.75A6.19,6.19,0,0,1,69.76,18.36Z"/><path class="cls-7" d="M34.55,83.82,35.88,83a24.82,24.82,0,0,0-.47,11.43c.25,1.08-.85,1.66-.85,2.63l-.13.26a8.49,8.49,0,0,0-2.26,3,10.34,10.34,0,0,0-1.59,3.12c-.5,1.1-.88,2.25-1.35,3.36a22.87,22.87,0,0,1-1,2.22c-.85,1.11-2,2-2.78,3.15a4.13,4.13,0,0,1-1,.63,20.6,20.6,0,0,0-2.24.91c-1,.22-1.9,1-3,.54l-2.72.3c.08-.92,1.29-.86,1.39-1.7l3.5-3.89a42.82,42.82,0,0,0,6.26-12,36.91,36.91,0,0,1,6.21-11.74A8.69,8.69,0,0,0,34.55,83.82Z"/><path class="cls-107" d="M41.6,128.23c-.81-2.48-.28-5-.07-7.48l.79-2.65c-.08-.45-.08-.91.48-1s.89.37,1.09.84a17.86,17.86,0,0,0,2.27,4.59,29.4,29.4,0,0,0,2.9,2.9,12.82,12.82,0,0,0,5.13,2.73,3.22,3.22,0,0,1,2.71,3.14,18.87,18.87,0,0,0,.64,2.87,2.73,2.73,0,0,1,.11,1.36c-1.58,2.16-3.8,1.72-5.94,1.4a13.07,13.07,0,0,1-3.61-1.45c-.32,0-.65-.73-1,0a.67.67,0,0,1-.28.38C44.26,133.92,43,131.06,41.6,128.23Z"/><path class="cls-152" d="M36.39,96.14h.39a.44.44,0,0,1,.55,0,9.63,9.63,0,0,1,.79,2.26,4.39,4.39,0,0,0,.76,1.51,7.7,7.7,0,0,0,2.8,2.36,1,1,0,0,1,.12.58c-.27.71-.83.5-1.2.5a38.2,38.2,0,0,1,8.62.5c.9.79,0,1.23-.36,1.72-1.52,2-2.92,4-4.26,6.09a5.3,5.3,0,0,0-.87,2.2c-.45,1.18,0,2.8-1.7,3.36C39.55,110.35,37.21,103.45,36.39,96.14Z"/><path class="cls-12" d="M24.39,112.45a1.23,1.23,0,0,1,1-.54,24.11,24.11,0,0,1,2.53-2.72,9.87,9.87,0,0,0,1.1-2.35c.4-1.25.93-2.44,1.4-3.65A9.27,9.27,0,0,1,32.14,100a5.76,5.76,0,0,1,2.42-3h0c.42-.16.8-.38.91.37.25,1.78.57,3.56.85,5.34-.14,1.78.27,3.6-.35,5.34-.27,1.58.27,3.23-.41,4.77-.22-2.75.25-5.55-.52-8.28-.16-.56-.2-1.22-.91-1.35s-1.05.43-1.33.94a37.58,37.58,0,0,0-2.93,5.62c-.9,2.67-2.74,4-5.2,4.85-3.49,1.2-7.16,1.25-10.75,1.82l.88-.92,4.39-1a11.19,11.19,0,0,1,2.8-1C22.81,113.21,23.56,112.73,24.39,112.45Z"/><path class="cls-153" d="M42,117.22c1.17-.9.45-2.49,1.28-3.52.37-.45.93-.16,1.36-.37,1.31-.2,2.57-.74,3.93-.46-.14,1.2-1.23,1-2,1.39-2.41.64-2.49.86-2,3.3.36,1.73,1.56,3.1,2,4.8A.85.85,0,0,1,46,123a12.36,12.36,0,0,1-2.58-5c-.1-.3.06-.81-.5-.79s-.35.56-.56.82Z"/><path class="cls-142" d="M158.93,315.57c1.66-2.68,3.49-5.21,6.27-6.86.5-.3,1.07-.82,1.55-.76a60.32,60.32,0,0,0,7.6.24c1.41,0,2.41,2.32,3.26,3.87a7.47,7.47,0,0,0,.64.87l.9,4.39a9.44,9.44,0,0,1,0,4.39,15.22,15.22,0,0,1-4.82.89c-1,.54-2.12-.15-3.09.42-4.45-.13-4,.93-3.89-4.14a55.29,55.29,0,0,1,.88-6.5c-2.48,2.22-2.86,4.88-3.59,7.38-.28,1,.12,2.47-1.23,2.74a11.07,11.07,0,0,1-5.32-.71c-.53-.16-.4-.82-.27-1.36C158.2,318.82,158.55,317.19,158.93,315.57Z"/><path class="cls-17" d="M179.12,321.71l0-4.39A5,5,0,0,1,179.12,321.71Z"/><path class="cls-17" d="M171.21,323c.94-.81,2.06-.28,3.09-.42C173.36,323.42,172.24,322.86,171.21,323Z"/><path class="cls-154" d="M172.07,307.18l.47,0a3.23,3.23,0,0,1-3.52,0Z"/><path class="cls-155" d="M22.25,113.67l-3.06.86v-.35a8.68,8.68,0,0,1,3.07-.93c.13.1.17.19.12.28S22.29,113.67,22.25,113.67Z"/><path class="cls-139" d="M77.69,136.22l.82-.08C80.29,138.87,81,142,82,145.08a125.07,125.07,0,0,1,5.29,25.31,94.36,94.36,0,0,1,.62,12.92c-.4,10.48,3.28,19.63,9.25,28a70,70,0,0,0,7.74,8.67c2.12,2.11,2.06,3.15-.39,4.87-2.81,2-5.76,3.51-9.41,2.48a8.72,8.72,0,0,1-3.38-1.94c-7.83-11.23-13.91-23.13-15.08-37.12-.52-6.11-1.65-12.17-2.51-18.25.54-2.83,1.57-5.51,1.9-8.42a28.66,28.66,0,0,0-.11-8c.06-.58-.31-1.15,0-1.73l-.45-.81c.24-.75-.44-1.4-.24-2.16-.51-.52-.26-1.3-.64-1.86l-.94-3.1c-.86-.47-.68-1.42-1-2.14-.35-.95.58-1.16,1-1.69a1.84,1.84,0,0,0,1-1C75.74,138.28,76.19,136.7,77.69,136.22Z"/><path class="cls-156" d="M91.71,225.4c2.57.92,5,2.5,8,1.34.54-.22,1.11-.38,1.63-.63,5.46-2.6,5.62-3.32,1.47-7.41A51.55,51.55,0,0,1,88,192.55a31.63,31.63,0,0,1-.72-7.39c.36-15-2.32-29.46-7-43.63-.59-1.79-1.66-3.43-1.74-5.39a19,19,0,0,1,3.94-3.91c2.6,4.88,5.15,9.78,6.35,15.25a119.18,119.18,0,0,1,2,14.44c.89,9.61.78,19.35,3.51,28.72a45.66,45.66,0,0,0,10.43,19,120.25,120.25,0,0,0,8,22.66c1.61,3.25,3.4,6.41,5.34,10.05C106.45,240.68,98.1,234.59,91.71,225.4Z"/><path class="cls-95" d="M76.71,213.55c-.69-1.77-.25-3.62-.41-5.43-.07-.85.26-1.77-.4-2.53,0-2.47,0-4.94,0-7.41.8-.92.09-2.14.6-3.22a88.36,88.36,0,0,0,17.14,34.63,20.69,20.69,0,0,0,4.48,4.48,5,5,0,0,1,2.37,5.35,17.76,17.76,0,0,0,0,2.19,2.59,2.59,0,0,0-.34.58c-.15,2-.59,4-.12,6.06l.1,7.52c.41.69-.12,1.54.38,2.21-.25,3.59.74,7,1.32,10.51a93.18,93.18,0,0,1,.87,16.69c-.48.67,0,1.51-.36,2.2a149.38,149.38,0,0,1-2.22,19.8c0,.54-.29.89-.88.91-1.67.66-1.75-.38-1.57-1.54.27-1.74.72-3.44.92-5.19,1-9.41.07-18.7-1.55-28s-2.89-18.67-3.76-28.08a6.84,6.84,0,0,0-2.19-4.6c-7.22-6.85-11.48-15.4-13.84-25A4.44,4.44,0,0,1,76.71,213.55Z"/><path class="cls-157" d="M76.21,153.35A28.06,28.06,0,0,1,74.12,170l-.55-.08a38.89,38.89,0,0,0,2.26-15.71C75.69,153.83,75.4,153.35,76.21,153.35Z"/><path class="cls-158" d="M100,248.25a10.58,10.58,0,0,1,.07-6.56,4.27,4.27,0,0,1,0,2.6Z"/><path class="cls-86" d="M100.1,244.29c0-.87,0-1.74,0-2.6a2.7,2.7,0,0,0,.39-.08C100.37,242.51,100.8,243.47,100.1,244.29Z"/><path class="cls-86" d="M102.3,287.38c0-.75-.26-1.55.36-2.2C102.58,285.92,103,286.74,102.3,287.38Z"/><path class="cls-86" d="M100.47,258c-.63-.65-.35-1.46-.38-2.21C100.75,256.41,100.38,257.23,100.47,258Z"/><path class="cls-145" d="M56.11,179.25c4.36-5.44,5.54-11.79,5.17-18.56-.05-.84,0-1.95-.88-2.35s-1.23.77-1.87,1.18a6.36,6.36,0,0,1-4,1.07,15.75,15.75,0,0,0,5.19-9.91c.9-1-.32-2.8.91-3.34.92-.41,2.26.22,3.41.19A9.63,9.63,0,0,0,69.4,146c.91-.62,1.5-.69,2,.51,1.94,4.93,1.59,10,1.29,15.16-.07,1.16-.77,1.45-1.77.53a45.34,45.34,0,0,1-3.17-4c-.29,2.72-.06,5.18-.62,7.56-1.34,5.69-3.77,10.59-9.3,13.33C57.32,179.3,56.77,180.08,56.11,179.25Z"/><path class="cls-159" d="M66.21,144.13l4.35-1.93a.41.41,0,0,1,.06.62,7.59,7.59,0,0,1-3.8,1.77C66.37,144.76,66.18,144.59,66.21,144.13Z"/><path class="cls-160" d="M70.62,142.82l-.06-.62c1-.74,1.68-1.86,3-2,.2.77-.81,1-.77,1.69a.42.42,0,0,1-.6.11Z"/><path class="cls-161" d="M66.21,144.13l.61.45a6.87,6.87,0,0,1-2.84.73c-.37-.47-.92-.31-1.4-.41Z"/><path class="cls-162" d="M72.21,142l.6-.11c.59.6.43,1.47.8,2.14C72.37,143.84,72.51,142.75,72.21,142Z"/><path class="cls-163" d="M76.21,153.35l-.38.89c-.43-.78-.69-1.56,0-2.32Z"/><path class="cls-72" d="M72.75,171.27c-.22.35-.45,1.17-.79.14a5.63,5.63,0,0,1,0-1.87C72.61,170,72.08,170.88,72.75,171.27Z"/><path class="cls-164" d="M75.35,148.92c-.23.74.89,1.43.08,2.19a3.53,3.53,0,0,1-.4-2.21C75.15,148.72,75.25,148.74,75.35,148.92Z"/><path class="cls-165" d="M75.35,148.92l-.32,0c-.66-.47-.45-1.17-.48-1.81C75.17,147.54,75.05,148.32,75.35,148.92Z"/><path class="cls-110" d="M77.21,215.75c1.7,3.78,2.87,7.77,4.81,11.46,2.79,5.33,5.9,10.38,10.73,14.19,1.21.95,1,2.66,1.11,4.06.53,6.52,1.63,13,2.39,19.45.84,7.2,2.62,14.25,3,21.55.39,6.89.46,13.67-1.13,20.39-.27,1.17.2,1.25,1,1.24a6,6,0,0,1-6.67,1.3,73.21,73.21,0,0,0,1.7-19.12,131.19,131.19,0,0,0-5.35-31.37c-3.08-10.41-7.53-20.39-9.66-31.1A91,91,0,0,1,77.21,215.75Z"/><path class="cls-142" d="M92.13,316.46c-2.3,1.94-3,4.61-3.47,7.29-.58,3.3-.88,3.66-4.16,3.19-.43-.06-.84-.25-1.27-.33-4.15-.69-4.14-.68-2.26-4.55s3.7-7.81,7.38-10.41A5,5,0,0,1,93,310.57a6.84,6.84,0,0,0,5.86-1c1.35-.92,2.15-.41,3,.86,3,4.46,3.15,9.45,3,14.54,0,.84-.44,1.09-1.22,1.19a90.37,90.37,0,0,1-10,.87c-1.35,0-1.57-.63-1.55-1.76C92.15,322.32,92.13,319.39,92.13,316.46Z"/><path class="cls-107" d="M78.5,121.21a2.65,2.65,0,0,0,1.32,1.32c.64.71,1.17,1.5,1.74,2.27a.92.92,0,0,0,0,.29c.06.6.75,1.19,0,1.83-2.37,3.56-4.44,7.35-7.76,10.21-4.26,3.67-9.06,5.93-14.77,5.58-3.2-.19-6.23-1-7.75-4.36a1,1,0,0,1,.46-.33,2.49,2.49,0,0,1,1.12,0l.54.13a3.52,3.52,0,0,0,2.13-.08,4.16,4.16,0,0,0,1.23-.51c.62-.4,1-1.1,1.89-1.12a2,2,0,0,1,.76.39,3.7,3.7,0,0,0,2,1,5.75,5.75,0,0,0,3.16,0,4.66,4.66,0,0,0,2.33-1,16.12,16.12,0,0,1,2.23-1.41,5.48,5.48,0,0,0,2.06-1.57c.4-.4.71-.89,1.09-1.31a4.18,4.18,0,0,0,1.34-1.37,3,3,0,0,1,.43-.71c.72-.19.86-.89,1.23-1.39a19.61,19.61,0,0,0,.92-1.76c.21-.42.1-1,.61-1.27-.68.24-.4.89-.7,1.3a11.66,11.66,0,0,1-.81,1.62c-.39.47-.47,1.2-1.18,1.39a15.82,15.82,0,0,1-9.88,6.22,11.05,11.05,0,0,1-5.53-.74,2.32,2.32,0,0,1-.59-.34,4.41,4.41,0,0,1-.92-1.8,7.36,7.36,0,0,1-.42-4c1.07-1.21,2.7-1,4-1.68A15.45,15.45,0,0,0,71.86,118c1.14-.6,2,.25,2.82.7A24.79,24.79,0,0,1,78.5,121.21Z"/><path class="cls-166" d="M77.69,136.22c-1,1-1.55,2.48-3.07,2.93,1.68-3,4.14-5.45,6-8.31.44-.12.64,0,.52.5Z"/><path class="cls-167" d="M81.57,126.92c.36-.63-.61-1.21,0-1.83.73.38.8,1.14,1,1.82,0,.87-.08,1.74-.11,2.62-.4.05-.62,0-.46-.5C81.8,128.33,82.26,127.52,81.57,126.92Z"/><path class="cls-168" d="M82,129l.46.5c-.43.6-.85,1.2-1.27,1.81l-.52-.5Z"/><path class="cls-169" d="M48.21,137.42a2.25,2.25,0,0,0-.06-.36.8.8,0,0,1,.58-.63,1.36,1.36,0,0,1,1.42.93.82.82,0,0,1-.2.54Z"/><path class="cls-170" d="M50,137.9v-.5c.93-.3,1.63-.21,1.72,1h-.2l-.19,0C50.78,138.4,50.27,138.42,50,137.9Z"/><path class="cls-171" d="M48.65,136.54l-.5.52-1.29-1.19c0-.22,0-.44,0-.67.63-.16,1,.3,1.47.6A.71.71,0,0,1,48.65,136.54Z"/><path class="cls-172" d="M46.46,113.75c.72-.27,1.56-.26,2.14-.88.74-.56,1.49.14,2.22,0a9.37,9.37,0,0,1,.78,2.49,6,6,0,0,0,5.24,4,7,7,0,0,0,6.08-3.62,2.93,2.93,0,0,0,.07-2.12.51.51,0,0,1,.31-.49,2.56,2.56,0,0,1,2,.63l2.21,0c.33.9,1.59.62,1.91,1.53a8.74,8.74,0,0,1-3.86,7.24c-4.22,3.15-8.7,4.79-13.71,1.59a12.25,12.25,0,0,1-5.76-7.9C46,115.37,45.72,114.49,46.46,113.75Z"/><path class="cls-107" d="M71,92.62l.08-.63a14.31,14.31,0,0,1,3.52-3.11A12.86,12.86,0,0,1,77.37,88a13,13,0,0,1,3,.2,6.63,6.63,0,0,1,1.64.38.25.25,0,0,0,.35.08,25.15,25.15,0,0,1,2.29,1.83.31.31,0,0,0,.08.34,4,4,0,0,1,1.19,1.29A9,9,0,0,1,87,94.92a10.12,10.12,0,0,1,.24,1.22c0,.31,0,.63,0,.94a5.9,5.9,0,0,1-.24,1.56,8,8,0,0,1-.88,2.31A8.83,8.83,0,0,1,83,104.22a7.88,7.88,0,0,0-1.41.74,3,3,0,0,1-1.93.41c-1.46-.12-3,.36-4.36-.48a4.47,4.47,0,0,1-1.64-1A5.18,5.18,0,0,1,71.59,102a7.69,7.69,0,0,1-1.26-2.23A7.45,7.45,0,0,1,70,95.09,5.21,5.21,0,0,1,71,92.62Z"/><path class="cls-107" d="M41.59,102.33a1.55,1.55,0,0,0-.36-.08,7.9,7.9,0,0,1-2.58-2.53A6,6,0,0,1,37.81,98a8.66,8.66,0,0,1-.37-5.06,14.15,14.15,0,0,1,1-2.48l1.84-2.22A5.2,5.2,0,0,1,43,86.93l3.79-.1c.67-.38,1.2.12,1.77.32a7.6,7.6,0,0,1,3,2.74,5.77,5.77,0,0,1,1,2.74c.7,1.55.28,3.06-.14,4.58a11.76,11.76,0,0,1-.53,1.51A10.3,10.3,0,0,1,50.32,101c-1.16,0-1.31,1.31-2.17,1.72a4.6,4.6,0,0,1-2.21.6C44.43,103.28,42.83,103.62,41.59,102.33Z"/><path class="cls-173" d="M63.13,113.31a1.56,1.56,0,0,1,.57,2c-1,2.86-4.91,5.13-7.93,4.49a6.62,6.62,0,0,1-5-7c.3-.5.59,0,.88,0a2.83,2.83,0,0,1,2.32-.66h3.19c.78-.09,1.61.22,2.37-.2a.88.88,0,0,1,.9.39C61.3,112.88,62.45,112.42,63.13,113.31Z"/><path class="cls-174" d="M86.72,83.9c-3.16-1.72-6.19-3.67-10.31-3a4.16,4.16,0,0,1,4.13-2.22C83.74,78.88,85.39,81.23,86.72,83.9Z"/><path class="cls-174" d="M47.75,79l-.88.75a13.47,13.47,0,0,0-9.19,5.51C38.18,79.92,42.23,77.49,47.75,79Z"/><path class="cls-175" d="M69.21,115.09c-.68-.28-1.6-.27-1.65-1.33,1.13.41,2.25.86,3.4,1.21a1.81,1.81,0,0,1,1.44,2.23c.28.52-.36.72-.39,1.13-1.53,5.61-5.65,8.41-10.88,10a.49.49,0,0,1-.74-.33c.47-1.08,1.56-1.23,2.47-1.6a14.57,14.57,0,0,0,6.77-5.63C71.31,118.21,71.21,117.28,69.21,115.09Z"/><path class="cls-176" d="M44.67,113.33c-.35.47-.86.39-1.36.37C44.64,110,47,107,49.5,104.05a.93.93,0,0,1,.44-.39L51,103l.28.21c-2.07,2.87-4.15,5.73-6.19,8.61C44.76,112.21,43.83,112.56,44.67,113.33Z"/><path class="cls-177" d="M49.94,103.66l-.44.39c-3.5.23-7-.45-10.55-.49.73-.92,2.35.35,2.64-1.23a15.85,15.85,0,0,0,4.85.48c.51.35,1.19-.16,1.67.33C48.58,103.8,49.31,103.55,49.94,103.66Z"/><path class="cls-178" d="M75,104.57l4.88.45a1.76,1.76,0,0,0,1.79-.24.35.35,0,0,1,.43.22c0,.27,1,.81,0,.78-3.09-.13-6.14.72-9.29.37.45-1.07,1.72-.45,2.21-1.25-.15-.06-.2-.13-.16-.21S74.92,104.57,75,104.57Z"/><path class="cls-179" d="M72,118.33l.39-1.13c2.23,1,4.68,1.74,6.1,4-1.78-.12-2.7-1.83-4.3-2.3C73.47,118.7,72.9,117.93,72,118.33Z"/><path class="cls-180" d="M71.9,110.69A28.25,28.25,0,0,1,70.75,104a10,10,0,0,1,1.57,5.31C71.94,109.72,72.34,110.34,71.9,110.69Z"/><path class="cls-181" d="M52.21,97.46c0-1.61.83-3.23,0-4.84.19-.27.3-.67.77-.42a6.58,6.58,0,0,1-.33,5.27C52.49,97.69,52.34,97.68,52.21,97.46Z"/><path class="cls-182" d="M70.24,95a12.72,12.72,0,0,0,.39,5.06c.25.45,0,.51-.37.46a8.67,8.67,0,0,1-.52-6.09C70.21,94.33,70.42,94.48,70.24,95Z"/><path class="cls-183" d="M82.84,104,85.9,101c.14-.19.28-.18.41,0-.34,1.73-1.69,2.58-3,3.47C83.13,104.31,82.86,104.31,82.84,104Z"/><path class="cls-184" d="M74.66,89.16c-1.38.72-2.09,2.28-3.6,2.83.44-1.65,1.73-2.48,3.1-3.23C74.37,88.84,74.62,88.87,74.66,89.16Z"/><path class="cls-185" d="M37.74,92.65c0,1.87-.42,3.77.41,5.58.19.47,0,.57-.44.48a6.39,6.39,0,0,1-.57-2.51,4.84,4.84,0,0,1,0-2.72l.13-.86C37.46,92.46,37.6,92.48,37.74,92.65Z"/><path class="cls-186" d="M51.31,90l-2.72-2.52a.35.35,0,0,1,0-.56,5.93,5.93,0,0,1,3.09,2.64C51.91,90,51.69,90.05,51.31,90Z"/><path class="cls-187" d="M51.31,90l.41-.44A4.71,4.71,0,0,1,53,92.2l-.77.42C52.21,91.63,51.56,90.87,51.31,90Z"/><path class="cls-188" d="M43,86.93a6.86,6.86,0,0,1-2.71,1.29A1.86,1.86,0,0,1,43,86.93Z"/><path class="cls-189" d="M74.66,89.16l-.5-.4a5.85,5.85,0,0,1,2.62-.89c.19.12.46.14.53.41Z"/><path class="cls-190" d="M84.64,90.52c-1-.37-2-.6-2.29-1.83C83.46,88.87,84.42,89.23,84.64,90.52Z"/><path class="cls-191" d="M86.82,94.89l-1.21-2.73c.09-.2.14-.45.43-.47A5.38,5.38,0,0,1,87.23,94C87,94.24,87.19,94.7,86.82,94.89Z"/><path class="cls-185" d="M77.31,88.28l-.53-.41a10.42,10.42,0,0,1,3.48,0,.42.42,0,0,1,0,.7Z"/><path class="cls-192" d="M81.56,124.8c-1.13-.33-1.49-1.26-1.74-2.27A2.36,2.36,0,0,1,81.56,124.8Z"/><path class="cls-193" d="M71.87,101.86l1.77,1.77a.63.63,0,0,1-.39.39,4.25,4.25,0,0,1-1.8-1.69C71.24,101.86,71.49,101.8,71.87,101.86Z"/><path class="cls-194" d="M70.24,95l-.5-.57c.14-.79.19-1.64,1.24-1.78A4.59,4.59,0,0,1,70.24,95Z"/><path class="cls-195" d="M86.94,97v-.91c.23-.27,0-.74.41-.94a3.2,3.2,0,0,1,0,3.21C86.87,98,87.24,97.43,86.94,97Z"/><path class="cls-187" d="M86.31,101H85.9l.88-2.29c.28.06.31.34.45.51A1.86,1.86,0,0,1,86.31,101Z"/><path class="cls-196" d="M71.87,101.86l-.42.47-1.19-1.84.37-.46Z"/><path class="cls-197" d="M48.63,86.89l0,.56-1.77-.62-.39-.47v-.22A3.51,3.51,0,0,1,48.63,86.89Z"/><path class="cls-198" d="M50.32,101a5.51,5.51,0,0,1,1.34-2.27c.28,0,.31.28.39.48A2.8,2.8,0,0,1,50.32,101Z"/><path class="cls-199" d="M57.4,112.38H53.91c-.15-.09-.2-.18-.15-.26s.1-.14.15-.14l3.49,0c.15.08.21.16.15.24S57.45,112.38,57.4,112.38Z"/><path class="cls-185" d="M37.74,92.65l-.44,0c.29-.78.22-1.76,1.18-2.18A4,4,0,0,1,37.74,92.65Z"/><path class="cls-200" d="M53.91,112a2.67,2.67,0,0,0,0,.4l-2.21.46C52,111.42,53.12,112.15,53.91,112Z"/><path class="cls-201" d="M71.9,110.69c0-.48-.08-1,.42-1.34,0,1,0,2,0,3.05q-.19.3-.39,0Z"/><path class="cls-185" d="M46.43,86.14v.22H43.31A5.65,5.65,0,0,1,46.43,86.14Z"/><path class="cls-202" d="M63.13,113.31c-.84-.43-1.92-.18-2.65-.93a4.59,4.59,0,0,1,2.65.49c.14.08.19.16.14.23s-.1.12-.15.12Z"/><path class="cls-13" d="M37.17,93.48l0,2.72a2.29,2.29,0,0,0-.36-.07C36.92,95.25,36.5,94.28,37.17,93.48Z"/><path class="cls-185" d="M73.25,104l.39-.39,1.33.94a.74.74,0,0,0,0,.33C74.26,104.9,73.79,104.39,73.25,104Z"/><path class="cls-203" d="M80.26,88.58v-.7a2,2,0,0,1,1.74.73Z"/><path class="cls-204" d="M63.12,113.22c0-.12,0-.24,0-.35.86,0,1.77-.19,2.22.86Z"/><path class="cls-185" d="M52.05,99.18l-.39-.48a1.6,1.6,0,0,1,.55-1.24h.43A2.65,2.65,0,0,1,52.05,99.18Z"/><path class="cls-185" d="M82.84,104l.46.41-1.23.57-.48-.12v-.3Z"/><path class="cls-203" d="M87.35,95.18l-.41.94-.12-1.23c.13-.3.27-.59.41-.89Z"/><path class="cls-205" d="M57.4,112.38a2.29,2.29,0,0,0,0-.37l2.18,0C59,112.72,58.14,112.31,57.4,112.38Z"/><path class="cls-206" d="M71.94,112.4h.39v1.71h-.39Z"/><path class="cls-185" d="M87.23,99.17l-.45-.51L86.94,97c.44.37.3.89.39,1.36C87.3,98.65,87.27,98.91,87.23,99.17Z"/><path class="cls-207" d="M48.11,103.14c-.57,0-1.21.24-1.67-.33.56-.21,1.11-.5,1.72-.12C48.14,102.84,48.13,103,48.11,103.14Z"/><path class="cls-198" d="M86,91.69l-.43.47-.89-1.3C85.41,90.75,85.76,91.17,86,91.69Z"/><path class="cls-208" d="M55.23,54.43c-1.36.82-3,.15-4.38.76,0-.94-.35-2,.82-2.57C52.94,53.05,53.87,54.16,55.23,54.43Z"/><path class="cls-209" d="M28,109.33a8.91,8.91,0,0,1-2.61,2.58c.31-1.49,1.59-2.15,2.6-3,.13.1.17.2.13.3S28,109.33,28,109.33Z"/><path class="cls-210" d="M34.56,97l-2.25,3.08c-.14.17-.28.18-.41,0C32.3,98.64,32.91,97.37,34.56,97Z"/><path class="cls-211" d="M30.57,103.17l-1.32,3.93c-.39.1-.6,0-.42-.42l1.34-3.51C30.31,103,30.44,103,30.57,103.17Z"/><path class="cls-212" d="M30.57,103.17h-.4a5.13,5.13,0,0,1,1.73-3.08h.41Z"/><path class="cls-213" d="M28.83,106.68l.42.42A5.76,5.76,0,0,1,28,109.33v-.45A4.73,4.73,0,0,1,28.83,106.68Z"/><path class="cls-214" d="M22.25,113.67c0-.14,0-.28,0-.42a2.3,2.3,0,0,1,2.13-.8A5.71,5.71,0,0,1,22.25,113.67Z"/><path class="cls-215" d="M48.65,136.54l-.51-.47c-.15-.4-.7-.68-.4-1.23a36.92,36.92,0,0,0,3.83,1.43c2.06.54,4.15.79,5.85-1a.55.55,0,0,1,.83,0l.08-.07c.58.5,1,1,.36,1.79l-1.73.92a10.55,10.55,0,0,1-3.91.41l-1.37.05a2.62,2.62,0,0,0-1.72-1Z"/><path class="cls-216" d="M60.49,127.8l.64.51c-1.26.82-2.78.79-4.13,1.28-.64.48.13,1.36-.53,1.84a2.39,2.39,0,0,0-2.12-2.65,12.06,12.06,0,0,1-5.81-3.14.92.92,0,0,1,.56-.36,2.91,2.91,0,0,1,1.84.57c2.72,1.5,5.48,2.79,8.72,1.79A1,1,0,0,1,60.49,127.8Z"/><path class="cls-217" d="M44.59,129.81c.75-1.36-2.77-2.89.58-4.39C44.31,127,45.15,128.44,44.59,129.81Z"/><path class="cls-218" d="M56.47,131.43c.34-.57-.4-1.44.53-1.84a10.23,10.23,0,0,0,.47,4.29c.21.48,0,.54-.43.48A6,6,0,0,1,56.47,131.43Z"/><path class="cls-219" d="M49.08,125.6l-.54,0A7.76,7.76,0,0,1,46,123l.46-.5C47.71,123.2,49,123.91,49.08,125.6Z"/><path class="cls-220" d="M46.53,133.74A3.76,3.76,0,0,1,44.86,130,10.68,10.68,0,0,1,46.53,133.74Z"/><path class="cls-221" d="M47.74,134.84c.19.39.59.72.4,1.23l-1.23-.87c0-.3-.56-.54-.19-.87C47.42,133.73,47.25,135,47.74,134.84Z"/><path class="cls-222" d="M57,134.36l.43-.48.78,1.39h-.83Z"/><path class="cls-223" d="M39,99.66l2.28,2.59c-1.52.07-1.93-1.29-2.73-2.13C38.33,99.66,38.54,99.56,39,99.66Z"/><path class="cls-224" d="M39,99.66l-.45.46a2.5,2.5,0,0,1-.79-1.41l.44-.48Z"/><path class="cls-225" d="M49.08,125.6c-.88-1-1.77-2-2.66-3.07a15.44,15.44,0,0,1-2.29-4.87c-.69-3.16-.75-3.15,2.33-3.91.07,7,5.22,10.9,10.65,11.68,4.78.68,10.9-4.63,11.8-9.52a6.21,6.21,0,0,1,.3-.82c2.62,1.16,2.81,1.47,1.82,4.08a13.57,13.57,0,0,1-6.9,7.22,32.62,32.62,0,0,1-3.64,1.41c-3.17,1.61-6,.49-8.92-.92C50.73,126.47,50.09,125.67,49.08,125.6Z"/><path class="cls-10" d="M58.69,137l-.36-1.79c5.69,2,10.27,0,14.36-3.89.47-.44,1-.86,1.46-1.28a.46.46,0,0,1-.05.66c.39.23.26.45,0,.66a18.48,18.48,0,0,0-1.73,1.33c.41.72.08,1.09-.62,1.27-1,.24-1.54,1.27-2.42,1.73A5.63,5.63,0,0,1,67.08,137a11.16,11.16,0,0,1-2.48,1.08,33.86,33.86,0,0,1-3.49,0A23.21,23.21,0,0,0,58.92,137l-.13,0Z"/><path class="cls-222" d="M75.83,127.34c-.27-2.34-.27-2.34,2.44-1.35-.89.33-1.68.56-2,1.36A.28.28,0,0,1,75.83,127.34Z"/><path class="cls-203" d="M60.93,137.88l3.95.13v.24a7.06,7.06,0,0,1-3.92,0c-.13-.07-.17-.15-.14-.23S60.89,137.88,60.93,137.88Z"/><path class="cls-226" d="M53.05,138.32c1.23-.77,2.61-.27,3.91-.41-.29.47-.77.48-1.24.5a4,4,0,0,1-2.67-.08Z"/><path class="cls-227" d="M69.31,135.68c.57-.9,1.19-1.74,2.42-1.73C71,134.68,70.52,135.67,69.31,135.68Z"/><path class="cls-14" d="M64.87,138.25a.33.33,0,0,1,0-.24c.54-.76,1.41-.78,2.2-1C66.67,138,65.72,138.05,64.87,138.25Z"/><path class="cls-228" d="M75.83,127.34h.45a2.39,2.39,0,0,1-.83,1.8.71.71,0,0,1-.38-.45A2.22,2.22,0,0,1,75.83,127.34Z"/><path class="cls-229" d="M60.93,137.88a.47.47,0,0,1,0,.35,3.1,3.1,0,0,1-2-1.19A2.08,2.08,0,0,1,60.93,137.88Z"/><path class="cls-215" d="M53.05,138.33l2.67.08A2.18,2.18,0,0,1,53.05,138.33Z"/><path class="cls-230" d="M75.07,128.7l.38.45a1.88,1.88,0,0,1-1.35,1.54c0-.22,0-.44.05-.66Z"/><path class="cls-231" d="M72.35,132.68c.39-.69.75-1.42,1.73-1.33C73.66,132,73.39,132.84,72.35,132.68Z"/><path class="cls-232" d="M83.53,93.58c1.43,2.9,1.23,5.22-.61,7a5.49,5.49,0,0,1-6.09,1A5.4,5.4,0,0,1,74.13,95c1-2.76,3.54-3.94,7-3.18.11.41-.15.59-.45.75-1.17.36-2.47.09-3.56.88a4,4,0,0,0,2.66,7.3,4.19,4.19,0,0,0,3.43-4.19A9.53,9.53,0,0,0,82.93,95C82.93,94.44,82.8,93.83,83.53,93.58Z"/><path class="cls-233" d="M83.53,93.58l-.33,1.61a1.53,1.53,0,0,1-2,1.18,2,2,0,0,1-1.78-1.67,1.72,1.72,0,0,1,1.13-2.26,4,4,0,0,1,1.81,0A2,2,0,0,0,83.53,93.58Z"/><path class="cls-234" d="M81.59,104.58v.3c-.53.72-1.12.64-1.74.14Z"/><path class="cls-235" d="M82.37,92.49l-1.69.11c-.12-.14-.14-.23-.06-.29a.29.29,0,0,1,.19-.06l.3-.47C81.69,91.73,82,92.24,82.37,92.49Z"/><path class="cls-236" d="M50,96.32a4.5,4.5,0,0,1-5.1,3.74,5.12,5.12,0,0,1-4.08-5.6c.49-3.63,3.06-5.29,6.93-4.48.12.4-.12.6-.42.77-.75.3-1.58.2-2.35.45A3.76,3.76,0,0,0,42.23,95a3.44,3.44,0,0,0,2.48,3.48c1.85.52,3-.48,4-2,.32-.51.3-1.59,1.43-1.13A1.72,1.72,0,0,1,50,96.32Z"/><path class="cls-237" d="M47.4,90.48c.29,0,.48-.16.35-.5,1,.41,1.94.89,1.77,2.24a1,1,0,0,1,.06,1,1.93,1.93,0,0,1-2.35,1,1.8,1.8,0,0,1-1.38-1.73A2,2,0,0,1,47.4,90.48Z"/><path class="cls-238" d="M49.45,93l.07-.73c.79,1.29,1.49,2.6.48,4.1l-.08-1.07A1.87,1.87,0,0,1,49.45,93Z"/><path class="cls-239" d="M80.81,92.25c0,.11-.09.23-.13.35-1.1.79-1.29,1.82-.39,2.78s2,.57,2.91-.19c1,2.07.59,3.79-1.35,5.28a4.29,4.29,0,0,1-5.75-.36c-1.77-1.7-2.1-3.91-.85-5.71A5.19,5.19,0,0,1,80.81,92.25Z"/><path class="cls-239" d="M49.45,93c.15.77.31,1.54.47,2.3-.18.39-.38.77-.55,1.15-1,2.13-2.81,3.21-4.69,2.75a4.44,4.44,0,0,1-3.07-4.53,4.55,4.55,0,0,1,3.82-4.16,14.41,14.41,0,0,1,2,0c-1.07.85-1.76,1.91-.64,3.08S48.7,93.82,49.45,93Z"/></svg>