<svg id="Layer_1" data-name="Layer 1" xmlns="http://www.w3.org/2000/svg" viewBox="0 0 139.99 189.26"><defs><style>.cls-1{fill:#ff9f57;stroke:#5e3b2c;}.cls-1,.cls-5,.cls-6{stroke-miterlimit:10;}.cls-2{fill:#aa633c;}.cls-3{fill:#9b723d;}.cls-4{fill:#6b3430;}.cls-5{fill:#e55757;stroke:#763317;}.cls-6{fill:#461211;stroke:#37180c;}</style></defs><path class="cls-1" d="M64,163.38s20.75,4.78,35.18-7.57A51.83,51.83,0,0,1,109.67,109c18.9-22.52,22.37-28,13.82-54.24-3.93-12.07-8.84-14.81-9.29-24.33-.64-13.69-17-28.16-34.89-15.73s-27.61-.93-27.61-.93-14-15.34-30.95,1.54c-7.33,7.29-5.24,20.91-8,32.33-1.78,7.32-16.1,20-6,46.2,6.77,17.61,24.67,23.83,32.82,30.93C46.42,130.75,56,137.45,64,163.38Z"/><path class="cls-2" d="M43.68,127.74s27.4,11.84,58.61-8.89c0,0-1.43,10-23.28,14.49-10.48,2.13-21.07,2.11-27.34-.12A22,22,0,0,1,43.68,127.74Z"/><path class="cls-3" d="M53,107.55a28,28,0,0,0,27.16-2.63S67.61,111.7,53,107.55Z"/><ellipse class="cls-4" cx="78.39" cy="65.12" rx="4.21" ry="1.07" transform="translate(-22.79 52.95) rotate(-32.86)"/><ellipse class="cls-4" cx="50.06" cy="65.26" rx="1.07" ry="3.82" transform="translate(-30.03 46.54) rotate(-39.35)"/><path class="cls-5" d="M68.18,164.62s-5.47-5.45-12.62-6.63-13.38,4.25-12.85,14.83C43,179.13,52.44,186.18,58,185s15.39-10.19,15.39-10.19Z"/><path class="cls-5" d="M85.38,159.83s4.89-6,11.89-7.86,13.74,2.91,14.26,13.48c.32,6.31-8.35,14.26-14,13.69s-16.32-8.61-16.32-8.61Z"/><circle class="cls-6" cx="78.19" cy="169.51" r="11.14"/></svg>