<svg id="Layer_1" data-name="Layer 1" xmlns="http://www.w3.org/2000/svg" viewBox="0 0 51.46 103.27"><defs><style>.cls-1{fill:#ff9f57;stroke:#5e3b2c;stroke-miterlimit:10;}.cls-2{fill:#e6eb98;}</style></defs><path class="cls-1" d="M7,18.92S11.26,21.83,9.65,35-5.11,63.9,7.8,82.28s19.38,19.88,22.94,19.15,5.82-3.82,2.74-14.73,6.86-12.25,10.39-29.07,1.06-30-30.39-55.49A51.28,51.28,0,0,1,7,18.92Z"/><circle class="cls-2" cx="22.3" cy="85.44" r="2.9"/><circle class="cls-2" cx="11.25" cy="56.01" r="2.9"/><circle class="cls-2" cx="18.17" cy="45.05" r="1.86"/><circle class="cls-2" cx="29.47" cy="52.67" r="2.9"/><ellipse class="cls-2" cx="18.32" cy="72.8" rx="2.9" ry="2.46" transform="translate(-55.17 88.08) rotate(-87.62)"/><ellipse class="cls-2" cx="25.77" cy="71.87" rx="1.23" ry="1.04" transform="translate(-47.11 94.63) rotate(-87.62)"/><path class="cls-1" d="M13.48,2.14A69.82,69.82,0,0,1,7,18.92S11.26,21.83,9.65,35"/></svg>