<svg id="Layer_1" data-name="Layer 1" xmlns="http://www.w3.org/2000/svg" viewBox="0 0 266.9 326.37"><defs><style>.cls-1{opacity:0.2;}.cls-2{fill:#603b35;stroke:#251e10;}.cls-2,.cls-3,.cls-4,.cls-5,.cls-6,.cls-7,.cls-8{stroke-miterlimit:10;}.cls-3{fill:none;}.cls-3,.cls-4,.cls-5,.cls-6,.cls-7{stroke:#63452f;}.cls-4,.cls-6{fill:#a77b70;}.cls-5,.cls-7{fill:#8e615a;}.cls-6,.cls-7{stroke-width:0.75px;}.cls-8{fill:#e0c978;stroke:#503f17;}.cls-9{fill:#ffe265;}.cls-10{fill:#c8af6e;}</style></defs><ellipse class="cls-1" cx="113.76" cy="300.45" rx="102.24" ry="20.16"/><path class="cls-2" d="M110.27,94.78s-4.57-2.13-27.87,12.73-28.6,30.11-28.6,30.11-8.65,8.54-5.47,23.72c0,0-5.47,6.53-6.53,11.83s0,16.41,1.59,19.59,6.88,9.18,6.88,9.18-1.23,8.8,0,14.73,6.89,14.12,6.89,14.12A69.55,69.55,0,0,1,64.22,235s5.29,7.49,12.53,11,49.53-35.2,46-57.31S110.27,94.78,110.27,94.78Z"/><path class="cls-3" d="M73,137.62s-1.25,15.24-13.38,19.84c-8.38,3.17-12-3.41-12-3.41"/><path class="cls-3" d="M91.75,106.41s.39,8.52-13.71,16.4c-11.06,6.17-10-4.32-10-4.32"/><path class="cls-4" d="M56.24,133.65s5-5.82,9.57-3.56,3.7,7.55,1.11,14.87S56,156.31,51.64,151.4,53.46,136.47,56.24,133.65Z"/><path class="cls-5" d="M57.4,136.59s2.83-3.69,5.24-2.45,1.78,4.49.17,9-6.19,7.23-8.4,4.36S55.82,138.38,57.4,136.59Z"/><path class="cls-6" d="M102.07,96.89s4-1.31,4.63.41-1.73,3.57-5.49,5.89-8.15,2.32-7.69-.36S100,97.45,102.07,96.89Z"/><path class="cls-7" d="M101.3,98.23s2.41-.89,2.73,0-1.17,2-3.5,3.48-4.93,1.62-4.55.12S100.06,98.62,101.3,98.23Z"/><path class="cls-4" d="M46.39,170.48s2.24-7.14,6.39-6.55,4.91,5.88,4.91,13.65-5.3,14.34-10,11.17S45,174.06,46.39,170.48Z"/><path class="cls-5" d="M48.08,172.86s1.18-4.42,3.37-4.05S54,172.45,54,177.25s-2.79,8.88-5.28,6.92S47.35,175.08,48.08,172.86Z"/><path class="cls-4" d="M82,108.36s4.37-2.33,5.77-.28-.86,4.8-4.63,8.37-9.1,4.33-9.48.86S79.69,109.42,82,108.36Z"/><path class="cls-5" d="M81.52,110.17s2.62-1.52,3.34-.42-.72,2.78-3,5-5.44,2.89-5.5.93S80.15,110.88,81.52,110.17Z"/><path class="cls-4" d="M50.63,210s6.62-.88,10,7.59a41.34,41.34,0,0,1,2.82,16.24s-4.67-1.78-6.26-3-6.57-10.25-7-14.66S50.63,210,50.63,210Z"/><path class="cls-5" d="M52.78,213.29s7.37,2.29,7.38,15C60.16,235.83,48.59,213.35,52.78,213.29Z"/><path class="cls-3" d="M59.1,200.58s-5.06-1-8.47,1.47"/><path class="cls-3" d="M48.27,161a24.9,24.9,0,0,0,13.35,1.26"/><path class="cls-3" d="M57.69,163.1s4,5.39,2.47,16.77S52,195.8,43.92,193.71"/><path class="cls-3" d="M50.06,206.08s6.13-1.05,10.8,6.62,5.55,23.77,5.38,24.86"/><path class="cls-3" d="M89,103.44s3.56,9.31,17.13-1.4"/><path class="cls-8" d="M154.58,156s-4.28-46-24.05-56.31-41,16.88-49.19,31.06c-6.24,10.8-37.06,65.76-6.24,111.44,19.06,28.24,55.22,1.85,62.12-7.14C141.35,229.65,157.12,207,154.58,156Z"/><path class="cls-9" d="M133.12,124.5s12.88,10.81,15.5,44.25c2.85,36.37-9.64,67.08-33,74.49S74,231.47,71.22,220.18s-4.68-77.4,30.12-96.26C120.08,113.76,133.12,124.5,133.12,124.5Z"/><path class="cls-10" d="M143.65,211.34s-15.24,6.2-52.78.6c0,0,.28,3.16,27.39,3.3C142.26,215.36,143.65,211.34,143.65,211.34Z"/><path class="cls-10" d="M134.91,228.48s-18.79,10.43-56.64-1.94c0,0,3.19,7,30.36,8.37C132.68,236.14,134.91,228.48,134.91,228.48Z"/><path class="cls-10" d="M146.3,154.22s-22.58,8.83-66.61-4.1c0,0,3,6.53,35,8.92C143,161.16,146.3,154.22,146.3,154.22Z"/><path class="cls-10" d="M148.62,183.55s-26.55,8.78-76.69-4.16c0,0,3.87,6.56,40.31,9C144.5,190.46,148.62,183.55,148.62,183.55Z"/></svg>