<svg id="Layer_1" data-name="Layer 1" xmlns="http://www.w3.org/2000/svg" viewBox="0 0 135.82 67.69"><defs><style>.cls-1{fill:#813d1c;}.cls-2{fill:#461211;}.cls-3{fill:#9b633d;}.cls-4,.cls-6{fill:#fff;}.cls-4{stroke:#704634;}.cls-10,.cls-4,.cls-8{stroke-miterlimit:10;}.cls-5{fill:#051930;}.cls-7{fill:#7c4a28;}.cls-8{fill:#c67f4f;stroke:#5e392c;stroke-width:0.3px;}.cls-9{fill:#e5ad88;}.cls-10{fill:none;stroke:#813d1c;stroke-width:4px;}</style></defs><rect class="cls-1" x="61.52" y="27.14" width="12.64" height="5.7" transform="translate(133.68 64.17) rotate(-176.41)"/><path class="cls-2" d="M5.67,25.23s-3.59-.68-3.93,0-1,6.49,0,8.37,15.12.27,15.12.27l.85-5.55Z"/><path class="cls-2" d="M130,28.6s3.7-.68,4.06,0,1.05,6.49,0,8.37-16.32.22-16.32.22l-.32-5.51Z"/><path class="cls-3" d="M26.85,51.39S15.28,38.52,25.07,22.52c8.37-13.68,28.77-8.41,30.81,7.93,2,15.75-4.6,24.72-15.54,25.72C31,57,26.85,51.39,26.85,51.39Z"/><ellipse class="cls-4" cx="38.81" cy="36.59" rx="13.74" ry="16.85"/><ellipse class="cls-5" cx="38.46" cy="38.24" rx="8.24" ry="9.2"/><circle class="cls-6" cx="43.23" cy="32.67" r="2.35"/><path class="cls-7" d="M52.84,36.59c0,6-3.28-10.06-14-10.06-12.77,0-14,14.81-14,10.06,0-9.5,6.28-17.2,14-17.2S52.84,27.09,52.84,36.59Z"/><path class="cls-3" d="M83.38,55.29S71.81,42.42,81.6,26.43C90,12.74,110.37,18,112.42,34.35c2,15.75-4.61,24.72-15.54,25.72C87.57,60.93,83.38,55.29,83.38,55.29Z"/><ellipse class="cls-4" cx="95.35" cy="40.49" rx="13.74" ry="16.85"/><ellipse class="cls-5" cx="95.85" cy="42.63" rx="7.9" ry="8.82"/><circle class="cls-6" cx="102.54" cy="36.68" r="2.73"/><path class="cls-7" d="M109.29,40.49c0,5.55-1.56-8.9-14-8.9C82.48,31.59,81.4,46,81.4,40.49c0-9.44,6.24-17.09,13.95-17.09S109.29,31.05,109.29,40.49Z"/><path class="cls-8" d="M23.6,56.26S67,34.46,105.44,60.37l5.1,4.31L29.92,61.26Z"/><path class="cls-9" d="M23.6,56.26S46,45.54,69,47.68s36.4,12.69,36.4,12.69a82.75,82.75,0,0,0-39.6-11.23C45.81,48.59,35.39,51.93,23.6,56.26Z"/><circle class="cls-10" cx="101.73" cy="34.35" r="26.91"/><circle class="cls-10" cx="33.72" cy="29.92" r="26.91"/></svg>