<svg id="Layer_1" data-name="Layer 1" xmlns="http://www.w3.org/2000/svg" viewBox="0 0 369.41 599.56"><defs><style>.cls-1{opacity:0.3;}.cls-2{fill:#e2e0e0;}.cls-3{fill:#d1cece;}.cls-4{fill:#72542e;}.cls-5{fill:#52371b;}.cls-6{fill:#6c6c6c;}.cls-7{fill:#7f7f7f;}.cls-8{fill:#ffa124;}.cls-9{fill:#b2b2b2;}.cls-10{fill:#f78e1c;}.cls-11{fill:#a07347;}.cls-12{fill:#82532d;}.cls-13{fill:#e89c7c;}.cls-14{fill:#dd7d5c;}.cls-15{fill:#dd8f6c;}.cls-16{fill:#eae2d6;}.cls-17{fill:#43474f;}.cls-18{fill:#c8ac8d;}.cls-19{fill:#a79d90;}.cls-20{fill:#91633a;}.cls-21{fill:#363a41;}.cls-22{fill:#bd9e7d;}.cls-23{fill:#988e80;}.cls-24{fill:#ddcbb3;}.cls-25{fill:#62371a;}.cls-26{fill:#a2865d;}.cls-27{fill:#664621;}.cls-28{fill:#d37d5f;}.cls-29{fill:#cc674c;}.cls-30{fill:#e0d4c6;}.cls-31,.cls-38{fill:#df805f;}.cls-32{fill:#cc7a5e;}.cls-33{fill:#231c2d;}.cls-34{fill:#322a3f;}.cls-35{fill:#fff;}.cls-36{fill:#a04e20;}.cls-37{fill:#1b1723;}.cls-38{opacity:0.56;}.cls-39{fill:#560926;}.cls-40{fill:#d3444f;}.cls-41{fill:none;stroke:#062047;stroke-miterlimit:10;stroke-width:0.5px;}</style></defs><ellipse class="cls-1" cx="189.36" cy="565.8" rx="119.28" ry="22.24"/><path class="cls-2" d="M260.2,480.62c-.26,44.49-18.64,58.58-18.64,58.58s-2.06,1.29-11.55,2.1a103.67,103.67,0,0,1-12.82,23.47s-28.59-22.29-40.36-41.19c-5.72,9.87-13,13.62-13,13.62s-21.23-19.07-26.43-55.65c-4.85-34.19,3-64.51,3-64.51l20.17-2.29,53.83-6.11,38.93-4.42a420.87,420.87,0,0,1,6.89,76.4"/><path class="cls-3" d="M226,550.46c-.38.75-.76,1.47-1.13,2.17.37-.7.75-1.42,1.13-2.17M193,442.62c4.48,36.06,6.24,82.48,6.91,107.18,9.3,8.7,17.33,15,17.33,15A96.5,96.5,0,0,0,224.11,554l-8.35,5.66s-5-72.17-22.73-117.08m30.76-17.27c12.81,29.55,12.4,65.71,10,90.13-1.17-9.66-6.82-39.74-33.13-69.51,14.9,44.21,24.26,87.46,27,101q1.25-2.7,2.36-5.64c9.49-.8,11.56-2.1,11.56-2.1h0a16.17,16.17,0,0,0,1.35-1.26c-3-3.75-9.32-14.84-3.95-36.51,1.16,16.83,8,23.62,11.37,25.94.74-1.43,1.49-3,2.23-4.73-5.51-5.78-12-17.54-12.53-40.67,2.36,18.15,12.68,22.93,17.62,24.16.36-1.64.66-3.34.95-5.11-6-4-17.71-15.4-22.75-44.89,5.7,14.26,16.86,23.07,24.29,27.61,0-1,0-2.06.06-3.11h0v-2.69c0-.59,0-1.18,0-1.78-18.68-13.45-28.06-41.4-28.36-42.33.47.56,11.72,13.77,27.68,21.94-.73-12.18-1.91-23.1-3.05-31.71-7.27.35-18.8.86-32.76,1.3m-85.13.47a193.31,193.31,0,0,0-2.73,27.72c8.73-5.65,19.53-14.44,22.68-24.82-1.74,20.78-15.13,35.85-22.28,42.5q.24,3.24.63,6.57c3.56-2.74,11.76-10.22,17.66-24.71,1.74,24.75-8.37,39.67-13.36,45.43,1,3.16,2.09,6.16,3.25,8.95,3.82-5.1,9.05-14.51,11.76-29.85,10.5,27.1,5.45,46.1,2.33,53.81a67.64,67.64,0,0,0,4.51,5.05c.48.48.75.72.76.72h0s7.32-3.74,13-13.61c4.26,6.83,10.71,14.11,17.22,20.62,1.48-22.15,2.06-59.91-7-94.1,3.36,38.14,0,66.71-3.12,83.11A90.92,90.92,0,0,1,177.8,525c3.48-22.05,6.11-57.91-3.3-96.68,2.63,23.68-1.19,55-5,77.87-8.92-27.54-9.71-61.3-9.32-79.93-7.21-.06-14.42-.19-21.52-.39"/><path class="cls-4" d="M217,534.76s-2.64,19.55-1.44,27.26,20.37,18.52,43.3,11.54c-25.07-30.14-41.86-38.8-41.86-38.8"/><path class="cls-5" d="M220,562.79l-.82,1.2a17.09,17.09,0,0,0,7.39,8.33,44.68,44.68,0,0,0,20.71,3.38,51.06,51.06,0,0,0,9.3-1.5,26.53,26.53,0,0,1-2.92.45l-.67.08-.57,0-.88.07c-.86,0-1.76.1-2.73.12s-1.93,0-3,0l-2.21,0c-13.29-.27-20.3-5.18-23.17-11.18-.16-.33-.31-.67-.44-1"/><path class="cls-5" d="M253.61,574.65l-.67.08-.57,0c-1.11.09-2.31.16-3.61.19-.94,0-1.93,0-3,0l-2.21,0c-13.29-.27-20.3-5.18-23.17-11.18A16.47,16.47,0,0,1,218.8,557q0-.69,0-1.38c.44-8.89-.09-11.67-.09-11.67l3.68-3.25s18.35-14.45,21-4.33c2.62,9.86,11.61,17.5,15.16,20.46a11,11,0,0,1,3.74,4.79,26.61,26.61,0,0,1,.78,3l0,.26c1.13,5.88-1,8.87-9.52,9.8"/><path class="cls-5" d="M220,562.78h0c.13.33.28.67.44,1,2.87,6,9.88,10.91,23.17,11.18l2.21,0c1.06,0,2,0,3,0s1.87-.07,2.73-.12l.88-.07.57,0,.67-.08c-7.17-1.19-12.71-8.24-5.28-9.72a26.87,26.87,0,0,1,3.63-.45,67.58,67.58,0,0,1,11.17.37l0-.26c-11.31-2.31-23.95-2.24-33.8-1.59-3.34.22-6.36.51-8.9.79-.16-.33-.3-.67-.44-1m40.34-4.37c.27.29.51.57.73.85-.22-.28-.46-.56-.73-.85M244.1,538.52a18.61,18.61,0,0,1-2.14,2.07h0s-2.07,1.29-11.55,2.1c-.74,1.95-1.54,3.84-2.37,5.64h0c-.56,1.22-1.13,2.4-1.71,3.53-.38.75-.75,1.47-1.13,2.17-.26.48-.51,1-.77,1.41h0l-.34.6c2.37-.33,4.73-.57,7-.72a121.61,121.61,0,0,1,27.45,1.48c-3.29-2.74-11.23-9.48-14.47-18.29"/><path class="cls-4" d="M185.25,555.49s10-4.24,10.13-.59-23.54,7.75-30.14,9.57S140,571.64,135,572.08s-4.87-2.44-4.87-2.44l55.09-14.15"/><path class="cls-6" d="M130.31,569.6l-.16,0a2.26,2.26,0,0,0,1.32,2h0a2.23,2.23,0,0,1-1.32-2l.16,0h0m53.46-9.46-.06,0,.06,0m11.48-5.8a1.44,1.44,0,0,1,.13.56c.07,1.76-5.27,3.6-11.6,5.24,6.32-1.64,11.66-3.48,11.6-5.23a1.45,1.45,0,0,0-.13-.57m0,0v0m-3.1-.84h0"/><path class="cls-5" d="M192.61,553.44l-.46,0h0v0c-2.63,1.5-9.58,3.69-20.74,6.26-3.29.76-6.89,1.61-10.74,2.6l-.94.25h0c-1.42.37-2.88.75-4.36,1.17-10.86,3-19.33,5.46-24.22,5.79l-.81,0-.16,0a2.23,2.23,0,0,0,1.32,2q.59,0,1.29,0a33.65,33.65,0,0,0,6.66-1.26c11.43-3.14,25.14-7.32,27.76-7.88a3,3,0,0,1,.44-.07c1.09-.07,0,1-.88,1.72,3.95-1,10.9-2.35,17-3.92l.06,0h0c6.33-1.64,11.67-3.48,11.6-5.24a1.44,1.44,0,0,0-.13-.56h0v0c-.36-.76-1.38-1-2.64-.88"/><path class="cls-5" d="M192.13,553.5c-2.63,1.5-9.58,3.69-20.74,6.26-3.56.82-7.48,1.75-11.68,2.85-1.42.37-2.88.75-4.36,1.17-15.13,4.2-25.63,7.31-28.25,5.08l-.2-.21-.17-.22,0-.07-.11-.24-.08-.27,0-.29v-.31a5.9,5.9,0,0,1,.57-2.13c1.59-3.62,9.58-7.58,17.8-11.76l.1-.06c3.78-1.91,7.6-3.87,10.88-5.87,6.42-4.24,8.33-6.78,9-8.75a7.39,7.39,0,0,0,.31-1.7,12.69,12.69,0,0,1,.22-2.1,5.23,5.23,0,0,1,.33-1c1.65-4,7.58-8.69,13.89-12.84,6.36,10.21,13.49,24.47,13.49,24.47s1.9,4.81-.88,8"/><path class="cls-7" d="M164.9,538.18l-.05,0c0,.18-.06.33-.08.46h0c0-.17.1-.34.13-.5"/><polyline class="cls-6" points="126.59 568.12 126.73 568.43 126.7 568.36 126.59 568.12"/><path class="cls-5" d="M144.93,553.3h0l-.1.06a6.82,6.82,0,0,1,4.8,3c2,2.8-12.49,10.26-19.6,10.73-1.58.1-2.8-.14-3.39-.86a4.29,4.29,0,0,0-.18,1h0v.31l0,.29.08.27.11.24,0,.07.17.22.2.21c.74.63,2.11.83,4,.71,4.89-.33,13.36-2.78,24.22-5.79,1.48-.42,2.94-.8,4.36-1.17h0c-2.26-7.67-10.1-9.13-14.78-9.31h0M177.22,525a37.76,37.76,0,0,1-12.32,13.19c0,.16-.08.33-.13.5h0l-.08.38c1.83,1.36,5.54,3.58,12.52,6.08,11.08,4-.75,7.28-5.38,7.59-.24,0-.47,0-.66,0-3.84,0-6.95-4.57-14.82-5.66-.17.12-.35.23-.54.34h0c8.38,1.39,13.31,8.2,15.58,12.32h0c-3.29.77-6.89,1.61-10.74,2.61,3.85-1,7.45-1.84,10.74-2.6,11.16-2.57,18.11-4.76,20.74-6.26a6.83,6.83,0,0,0,1.5-5,10.59,10.59,0,0,0-.62-3s-.53-1.07-1.45-2.84A114.77,114.77,0,0,1,177.22,525"/><path class="cls-6" d="M155.8,547.43l-.11,0h0l.1,0h0"/><path class="cls-2" d="M234.14,516.89c-1.18-9.66-6.83-39.74-33.14-69.51,14.91,44.21,24.27,87.47,27,101-1.18,2.57-2.42,5-3.61,7.11l-8.35,5.66s-5-72.17-22.74-117.08c4.48,36.06,6.25,82.48,6.91,107.18-1.9-1.77-3.85-3.66-5.8-5.6,1.48-22.15,2.05-59.91-7-94.1,3.35,38.14,0,66.71-3.13,83.11a92.81,92.81,0,0,1-6.21-8.26c3.48-22.05,6.11-57.91-3.29-96.68,2.63,23.67-1.19,55-5,77.87-11.36-35.07-9.55-80.25-8.87-91.39L214.77,410C237,441.44,237,487.61,234.14,516.89"/><path class="cls-8" d="M318.47,303.87q-.87-.51-1.68-1s-9.57,1.48-13.91-2.64a6.58,6.58,0,0,1-1.29-1.7c-.87-1.66-1.14-3.89-.37-6.88A25.11,25.11,0,0,1,303,287a11.48,11.48,0,0,1-.53-3.13s15.67-10.69,22.68-17c-22.71-14.92-33.63-25.4-33.63-25.4h0c-.32,1.12-13.08,45.61-30,77.94C255.73,361.5,265.26,425,265.26,425s-74.64,4.32-135.35,1.9v-.14c-.4-6.74,4.84-32.39,7.85-47.25.69-3.41,1-6.22.62-8.09C130.24,327.87,88.3,300.26,85,289.16l-.6-2,3.61-3c7.88-6.54,27.4-22.81,45.8-39.08,8.12-7.17,24.26-56.95,32.92-63.54,10.33-7.82,51-10.54,52.68-11.23l47.75,6.86s18.52,9,31.81,15.34,50,52.4,58.53,62.12,2.23,28.48-39,49.16"/><path class="cls-9" d="M88,284.23h0l-.86.71.86-.7h0"/><path class="cls-10" d="M159.49,194.21c-3.5,3.19-22,47.7-25.73,51l-1.33,3.19a51.79,51.79,0,0,1-25.67,27L88,284.23h0l-.86.7-2.62,2.16a10.32,10.32,0,0,1,2.79,1.36c17.45-7.59,34.69-13.11,68.15-21.24l.16-24"/><path class="cls-9" d="M264.61,420.32c.4,3,.65,4.7.65,4.7h0s-.25-1.69-.65-4.7"/><path class="cls-10" d="M259.69,357c-.47,19.41-6.55,33.87-17.27,37h0c-8.93,3.1-17.59,5.82-25.93,8.23q-10.55,3-20.42,5.38c-11.75,2.82-22.77,5-32.95,6.64l-1.83,9.19-6.59-.54-7.54-.62-16.91-1.4a37.93,37.93,0,0,0-.35,5.87v.14c60.71,2.42,135.35-1.9,135.35-1.9s-.25-1.69-.65-4.7v-.08L183.4,422s39.78-8.57,59.64-17.49c8-3.6,14-9.86,18.21-16-.77-9.7-1.39-20.53-1.56-31.46m.85-29q-1.76.65-3.54,1.26a130.74,130.74,0,0,1,2.64,21.3c0-7.69.28-15.33.9-22.56m30.95-86.61c-.48.9-16,29.63-44.23,40.11-4.33-8.41-14.41-24.84-26.57-24-7.1.47-17.54,1.85-27.07,3.25l-.14.69c2.86-.27,5.21-.45,7-.57,2.2-.14,3.46-.19,3.64-.19h0a15.2,15.2,0,0,1,3.34-.59c16.6-1.1,36.92,23.69,46.83,58.16.33,1.15.64,2.3.94,3.44q3.07-1.11,6.32-2.38c16.9-32.33,29.64-76.75,30-77.87"/><path class="cls-9" d="M316.79,302.85h0c.42.26.85.53,1.3.79-.45-.26-.88-.53-1.3-.79m24.3-12.47a160,160,0,0,1-22.62,13.49h0a160,160,0,0,0,22.62-13.49m-74-113.13c.17.08,18.58,9,31.81,15.34,4.92,2.36,13.07,10.17,21.81,19.57-8.74-9.4-16.89-17.21-21.81-19.57-13.29-6.33-31.81-15.34-31.81-15.34h0"/><path class="cls-10" d="M214.77,172.94c-1.22.75-2.65,1.65-4.24,2.7l-3.21,16.15c12.6,11.47,34.53,24.28,68.47,22a135.59,135.59,0,0,0,18.65-2.59c13.37,9.53,59.94,44.19,48.26,56.63-8.52,9.08-24.56,20.07-35.33,27a39.08,39.08,0,0,0,9.42,8h0c.42.26.85.53,1.3.79l.38.23a160,160,0,0,0,22.62-13.49c20.68-15.12,23-28.12,16.36-35.67-5.39-6.11-21.9-26.61-36.72-42.55-8.74-9.4-16.89-17.21-21.81-19.57-13.23-6.3-31.64-15.26-31.81-15.34l-5.34-.77-.07,2.59-28.91,12.18c-1.79.11-3.63.14-5.5.11a20.67,20.67,0,0,1-4.11-1.3h0l.14-5.62a27.17,27.17,0,0,1-3.89.66,2.71,2.71,0,0,1-1.16-.08c-1.34-.56-3.07-9.69-3.5-12.08"/><path class="cls-11" d="M88.38,309.27a230,230,0,0,0,22.9,3.74A4.77,4.77,0,0,0,112,312c1.48-2.75.88-6.7.88-6.7-52.32-5.73-95.43-30.1-96.59-32.51S16,251.16,16,251.16a8.59,8.59,0,0,0-3.58-.91,14.58,14.58,0,0,0-2.41.07,134.3,134.3,0,0,0,.1,26.47c18.53,14.17,41.84,23,61.42,28.39,6.07,1.69,11.78,3,16.88,4.09"/><path class="cls-12" d="M12.39,250.25c-.46,6.42-1.14,22,2.56,25.66,2.84,2.8,24.06,9.09,39.68,16.21l.5-.63c-23-8.34-38.15-17.34-38.83-18.75a11.78,11.78,0,0,1-.49-3.33c-.36-6.19.16-18.25.16-18.25a8.59,8.59,0,0,0-3.58-.91h0"/><path class="cls-13" d="M73,321.07c2.79,1.09,5.34-2.22,5.34-2.22A6.92,6.92,0,0,0,84.11,322c2.45.05,4.57-3.08,5.07-6.35a6.66,6.66,0,0,0-1.39-5.7s.2-.23.53-.66C83.11,308.06,72.77,305,72.77,305L72.6,303a11.7,11.7,0,0,0,2.72-.27h0A7.78,7.78,0,0,0,80.63,300l6.47,1.2,4.15.77a18.16,18.16,0,0,0,.23-3.12,20,20,0,0,0-1-5.88c-3.3-10.22-18.71-5.45-18.71-5.45l-6.9-1.06a9,9,0,0,0-8.37,3.3l-9.37,11.81a9.61,9.61,0,0,0,11.25,1.51s-.3.46-.72,1.2l0,0a28.26,28.26,0,0,0-1.45,3c-.79,2-1.4,4.26-.92,6.1,1,4,6.73,1.6,6.73,1.6s.12,3.65,3,4.47,5.23-3.55,5.23-3.55,0,4.07,2.79,5.17"/><path class="cls-14" d="M62.94,286.37a8.94,8.94,0,0,0-6.43,3.38l-1.38,1.74-.5.63-7.49,9.44s11-5.94,13.45-11a79.59,79.59,0,0,0,13.1,4.27q6.8-3.37,13.58-6.33a10.32,10.32,0,0,0-2.79-1.36h0a18.14,18.14,0,0,0-6.63-.65,29,29,0,0,0-6.07,1.06l-6.9-1.06a9,9,0,0,0-1.94-.08"/><path class="cls-14" d="M62.1,298.76a.53.53,0,0,0-.21.06,38.94,38.94,0,0,0-3.17,4c1.76-1,3.54-2,5.32-3a10.06,10.06,0,0,1-.8-.8,3.35,3.35,0,0,0-1.14-.27"/><path class="cls-15" d="M58.39,303.07a22.72,22.72,0,0,0,1.46-2.1c.43-.71.88-1.41,1.29-2.14s.85-1.45,1.32-2.16A16.75,16.75,0,0,1,64,294.52a11.69,11.69,0,0,1-1.66,5.09,9.92,9.92,0,0,1-1.65,2.11A4.74,4.74,0,0,1,58.39,303.07Z"/><path class="cls-15" d="M62.44,298.08a23.29,23.29,0,0,0,9,3.94,10.77,10.77,0,0,0,4.72-.3,16.36,16.36,0,0,0,4.47-2.22,10.15,10.15,0,0,1-4.12,3.3,9.49,9.49,0,0,1-5.26.68,13.57,13.57,0,0,1-4.93-1.88,14.67,14.67,0,0,1-3.93-3.52"/><path class="cls-15" d="M62,315c.85-2.35,1.88-4.51,2.78-6.71.48-1.1.88-2.2,1.25-3.32a12.34,12.34,0,0,0,.67-3.52,6.49,6.49,0,0,1,.38,3.78,15,15,0,0,1-1,3.65,21.29,21.29,0,0,1-1.74,3.27A15.49,15.49,0,0,1,62,315"/><path class="cls-15" d="M71.75,303.05a5.2,5.2,0,0,1,2,3,8.06,8.06,0,0,1,.07,3.75,11,11,0,0,1-1.33,3.4c-.33.5-.66,1-1,1.45a14.53,14.53,0,0,1-1.23,1.25c.19-.58.43-1.11.66-1.64s.41-1.07.64-1.58a21.26,21.26,0,0,0,.94-3.18,9.62,9.62,0,0,0-.69-6.45"/><path class="cls-15" d="M73.54,307.32a7.83,7.83,0,0,1,4.55-2.08,3.59,3.59,0,0,1,2.7.91,4.36,4.36,0,0,1,.76,2.92,18.83,18.83,0,0,1-1.1,5.13,25,25,0,0,1-2.11,4.65c.33-1.69.72-3.33,1.08-5a31.46,31.46,0,0,0,.74-4.86,3.32,3.32,0,0,0-.33-1.93l-.11-.12-.2-.13a1.65,1.65,0,0,0-.44-.22,4,4,0,0,0-1-.24,11.27,11.27,0,0,0-4.54.94"/><path class="cls-15" d="M80.6,311.4a4.45,4.45,0,0,1,1.2-1.93,4.78,4.78,0,0,1,2-1.2,3.51,3.51,0,0,1,2.33.12,3.28,3.28,0,0,1,1.7,1.52,9.34,9.34,0,0,0-2-.41,4.77,4.77,0,0,0-1.72.19A19.06,19.06,0,0,0,80.6,311.4Z"/><path class="cls-13" d="M75.36,302.68A7.78,7.78,0,0,0,80.63,300l-.69-.13a7.1,7.1,0,0,1-4.58,2.82"/><path class="cls-16" d="M39.92,370.9c9,31.49,28.26,53.53,42.91,49.23S102,386.82,93,355.33,64.7,301.8,50.06,306.1s-19.19,33.31-10.14,64.8"/><path class="cls-11" d="M53.73,396.62h0c.54.91,1.09,1.8,1.66,2.67.16.25.33.51.51.76a63.48,63.48,0,0,0,8.26,10.17,40,40,0,0,0,3.44,3.06h0c4,3.21,8.14,5.09,12,5.37a12.51,12.51,0,0,0,1.73,0,72,72,0,0,1,8.44,0c2.8.21,6.63.4,11.44.49,18.64.31,51.77-1.19,94.79-11.54q9.87-2.36,20.42-5.38c8.34-2.41,17-5.13,25.93-8.23L204.1,260.69s-7.21.23-19.17,1.69l-4.09.52c-5.87.79-12.67,1.85-20.16,3.29-24.71,4.7-57,13.4-88.6,29.41h0c-5.57,2.81-11.12,5.85-16.59,9.14-1.67,1-3.42,1.83-5.16,2.7l-.07,0c-5.17,2.56-8.84,8.57-10.77,16.81-.28,1.15-.52,2.36-.73,3.6a74.66,74.66,0,0,0-.85,14c0,.88.05,1.79.1,2.71A107.82,107.82,0,0,0,40,360c.17.84.34,1.68.53,2.52q.81,3.72,1.9,7.51c.78,2.71,1.65,5.36,2.57,7.92.32.87.64,1.74,1,2.59a105.24,105.24,0,0,0,7.77,16.07"/><path class="cls-17" d="M196.07,407.64q9.87-2.36,20.42-5.38c-13.13-8-34.38-25.92-44.33-64.11-9.57-36.73,1-62.57,8.68-75.25-5.87.79-12.67,1.85-20.16,3.29-6.91,15.14-15.1,43.46-2.75,78.11,11.77,33,27.87,53,38.14,63.34"/><path class="cls-17" d="M79.67,418.67a12.51,12.51,0,0,0,1.73,0,72,72,0,0,1,8.44,0c2.8.21,6.63.4,11.44.49C89.15,409,74.83,391.4,67.44,361.73s-1.86-51.91,4.63-66.12c-5.57,2.81-11.12,5.85-16.59,9.14-1.67,1-3.42,1.83-5.16,2.7-4,15.56-5.42,36.37,2.82,60.28C61,390.45,70.93,407.1,79.67,418.67"/><path class="cls-18" d="M48.07,318.89c-2.93,1.74-5.79,3.53-8.59,5.4h0c-.28,1.15-.52,2.36-.73,3.6q4.35-3,8.93-5.76.16-1.63.39-3.24m107.48-38.81c-24.92,5.26-58,14.18-88.23,28.59-.29,1.05-.57,2.14-.83,3.25,30-14.61,63.14-23.68,88.3-29.05.24-.95.49-1.88.76-2.79M181,275.39q-3.08.48-6.71,1.11c-.34.9-.68,1.83-1,2.78q3.63-.63,6.75-1.13l1-2.76"/><path class="cls-19" d="M174.26,276.5c-5.44.93-11.76,2.11-18.71,3.58-.27.91-.52,1.84-.76,2.79,6.82-1.46,13.05-2.64,18.47-3.59.32-.95.66-1.88,1-2.78"/><path class="cls-19" d="M67.32,308.67c-6.59,3.14-13,6.54-19.25,10.22q-.23,1.61-.39,3.24c6-3.67,12.35-7.07,18.81-10.21.26-1.11.54-2.2.83-3.25"/><path class="cls-18" d="M47.27,338.21q-4.65,1.77-9.37,3.66h0c0,.88.05,1.79.1,2.71q4.77-1.92,9.45-3.7-.11-1.33-.18-2.67m104.28-29.75A620.23,620.23,0,0,0,64,332.13c0,.9,0,1.81,0,2.72a615.92,615.92,0,0,1,87.66-23.78c0-.88,0-1.74,0-2.61"/><path class="cls-19" d="M168.16,305.58c-4.84.76-10.4,1.7-16.61,2.88,0,.87,0,1.73,0,2.61,5.56-1.06,10.61-1.94,15.09-2.65.51-.95,1-1.9,1.48-2.84"/><path class="cls-19" d="M64,332.13q-8.18,2.87-16.68,6.08.07,1.34.18,2.67,8.38-3.19,16.48-6c0-.91,0-1.82,0-2.72"/><path class="cls-18" d="M50.25,358,40,360c.17.84.34,1.68.53,2.52l10.39-2.07c-.23-.83-.44-1.66-.65-2.49m96.87-19.27L65.93,354.85c.15.84.32,1.67.5,2.52l78.2-15.55c.85-1,1.67-2.08,2.49-3.12"/><path class="cls-19" d="M65.93,354.85,50.25,358c.21.83.42,1.66.65,2.49l15.53-3.09c-.18-.85-.35-1.68-.5-2.52"/><path class="cls-18" d="M45,378c.32.87.64,1.74,1,2.59,3.78.08,7.81,0,12-.15-.35-.83-.69-1.67-1-2.52-4.2.16-8.2.19-12,.08m69.63-6.89c-14.38,2.47-29,4.57-42.46,5.8.32.84.64,1.67,1,2.48,11.94-1.11,24.62-2.87,36.89-4.89,1.56-1.11,3.1-2.24,4.6-3.39"/><path class="cls-19" d="M72.15,376.87c-2.71.25-5.38.46-8,.63s-4.88.29-7.24.38c.35.85.69,1.69,1,2.52,2.09-.09,4.22-.2,6.38-.35,2.87-.19,5.8-.42,8.77-.7-.33-.81-.65-1.64-1-2.48"/><path class="cls-18" d="M53.74,396.63c.54.91,1.09,1.8,1.66,2.67.91.05,1.82.09,2.74.12,2.62-.76,5.18-1.57,7.7-2.42-4.13,0-8.17-.11-12.1-.37"/><path class="cls-20" d="M190.21,276.64c-2.56.34-6,.84-10.2,1.51A228.05,228.05,0,0,1,168.46,305c0,.18,0,.36,0,.54,8.56-1.33,14.85-2.06,18.4-2.42-.29-10.2.88-19.3,3.37-26.48m10.22-15.76c-2.41.16-5.94.44-10.42.92-1.58.17-3.27.36-5.08.58h0c-.92,3.46-2.21,7.88-4,13,4.38-.69,7.88-1.17,10.29-1.48,2.92-6.87,7.24-11.58,12.81-13.22-.18,0-1.44.05-3.64.19"/><path class="cls-21" d="M168.46,305l-.3.58.28,0c0-.18,0-.36,0-.54"/><path class="cls-20" d="M153.79,329.63q-3.15,4.55-6.67,9.07L155.6,337c-.7-2.5-1.31-5-1.81-7.38M187,305.7c-3.6.37-9.95,1.1-18.58,2.45a110.2,110.2,0,0,0,2.77,25.77l19.42-3.86A134.59,134.59,0,0,1,187,305.7"/><path class="cls-21" d="M168.37,308.15l-1.69.27a212.69,212.69,0,0,1-12.89,21.21c.5,2.42,1.11,4.88,1.81,7.38l15.54-3.09a110.2,110.2,0,0,1-2.77-25.77"/><path class="cls-20" d="M156.34,339.49l-11.71,2.33a178.86,178.86,0,0,1-30,29.25c18-3.1,35.63-6.77,50.12-10-2.37-5.17-4.65-10.75-6.8-16.76q-.85-2.43-1.59-4.81m34.84-6.93-19.45,3.87c.14.57.28,1.14.43,1.72a130.29,130.29,0,0,0,6.77,19.65c9.43-2.23,16.28-4,19.19-4.71a146.38,146.38,0,0,1-5.87-16.64c-.38-1.3-.73-2.59-1.07-3.89"/><path class="cls-21" d="M171.73,336.43l-15.39,3.06q.74,2.38,1.59,4.81c2.15,6,4.43,11.59,6.8,16.76,5.18-1.16,10-2.26,14.2-3.26a130.29,130.29,0,0,1-6.77-19.65c-.15-.58-.29-1.15-.43-1.72"/><path class="cls-20" d="M65.86,397h0m100-33.53c-7.21,1.62-15.2,3.35-23.62,5.06-9.78,2-20.83,4.07-32.22,5.94A168.38,168.38,0,0,1,79.08,391.9q1.31,2.36,2.66,4.53c25.54-1.69,52.41-6.91,72.87-11.69,7.12-1.67,13.85-3.37,20-5a184,184,0,0,1-8.74-16.28m33.31-8c-2.6.67-9.5,2.43-19.15,4.71a107.88,107.88,0,0,0,8.87,15.6c8.75-2.52,15.15-4.55,18.15-5.52a116.58,116.58,0,0,1-7.87-14.79"/><path class="cls-21" d="M180,360.19c-4.23,1-9,2.11-14.16,3.27a184,184,0,0,0,8.74,16.28c5.23-1.39,10-2.73,14.29-3.95a107.88,107.88,0,0,1-8.87-15.6"/><path class="cls-21" d="M79.08,391.9q-6.36,2.76-13.22,5.09h0c5.17,0,10.47-.21,15.83-.56h0q-1.35-2.18-2.66-4.53"/><path class="cls-20" d="M58.14,399.42l-2.23.64a63.48,63.48,0,0,0,8.26,10.17h0c3.28.51,6.71.87,10.29,1.11-2.38-3.56-4.8-7.48-7.2-11.78-3.09,0-6.13,0-9.12-.14M176,382c-6.35,1.69-13.35,3.47-20.78,5.2C135,392,108.62,397.1,83.32,398.9a97.43,97.43,0,0,0,10,12.66q3.93-.13,8-.41c28.81-1.9,60.89-8.47,85.17-14.38A158.45,158.45,0,0,1,176,382m32.49-9.52c-2.57.84-9,2.89-18,5.5a94.68,94.68,0,0,0,12.92,14.44c8.1-2.16,14.37-4,18-5.06a70.46,70.46,0,0,1-12.92-14.88"/><path class="cls-21" d="M190.45,378c-4.28,1.24-9.14,2.6-14.46,4a158.45,158.45,0,0,0,10.42,14.74c6.23-1.51,12-3,17-4.32A94.68,94.68,0,0,1,190.45,378"/><path class="cls-21" d="M67.26,399.56c2.4,4.3,4.82,8.22,7.2,11.78a185.16,185.16,0,0,0,18.81.22,97.43,97.43,0,0,1-10-12.66l-1.4.1c-5,.32-9.86.52-14.66.56"/><path class="cls-20" d="M67.62,413.3c4,3.21,8.14,5.09,12,5.37-1.1-1.47-2.23-3-3.37-4.64q-4.48-.24-8.68-.73M188.21,399c-24.53,6-57.36,12.78-86.87,14.74-1.91.12-3.8.23-5.68.31,1.91,1.9,3.79,3.61,5.62,5.15h0c6.65.11,15.15,0,25.28-.68a416.48,416.48,0,0,0,69.51-10.86c-2.36-2.36-5-5.24-7.86-8.66m35.68-9.65c-3,.9-9.42,2.8-18.19,5.15a85.23,85.23,0,0,0,10.79,7.78h0c8.34-2.41,17-5.13,25.93-8.23h0a15.92,15.92,0,0,1-3.34.59c-4.86.32-10-1.58-15.19-5.29"/><path class="cls-21" d="M205.7,394.48c-5.11,1.38-11,2.91-17.49,4.5,2.84,3.42,5.5,6.3,7.86,8.66h0q9.87-2.36,20.42-5.38a85.23,85.23,0,0,1-10.79-7.78"/><path class="cls-21" d="M76.3,414c1.14,1.63,2.27,3.17,3.37,4.64h0a12.51,12.51,0,0,0,1.73,0,72,72,0,0,1,8.44,0c2.8.21,6.63.4,11.44.49-1.83-1.54-3.71-3.25-5.62-5.15-6.72.3-13.22.33-19.36,0"/><path class="cls-22" d="M191.26,273.91c-2.41.31-5.91.79-10.29,1.48l-1,2.76c4.19-.67,7.64-1.17,10.2-1.51.32-.94.67-1.86,1-2.73"/><path class="cls-22" d="M186.84,303.12c-3.55.36-9.84,1.09-18.4,2.42,0,.86-.06,1.73-.07,2.61,8.63-1.35,15-2.08,18.58-2.45,0-.86-.08-1.73-.11-2.58"/><path class="cls-23" d="M168.44,305.54l-.28,0c-.48.94-1,1.89-1.48,2.84l1.69-.27c0-.88,0-1.75.07-2.61"/><path class="cls-22" d="M155.6,337l-8.48,1.69c-.82,1-1.64,2.08-2.49,3.12l11.71-2.33c-.26-.83-.5-1.65-.74-2.48m35-6.95-19.42,3.86c.19.83.38,1.67.59,2.51l19.45-3.87c-.21-.83-.42-1.67-.62-2.5"/><path class="cls-23" d="M171.14,333.92,155.6,337c.24.83.48,1.65.74,2.48l15.39-3.06c-.21-.84-.4-1.68-.59-2.51"/><path class="cls-22" d="M164.73,361.06c-14.49,3.24-32.12,6.91-50.12,10-1.5,1.15-3,2.28-4.6,3.39,11.39-1.87,22.44-4,32.22-5.94,8.42-1.71,16.41-3.44,23.62-5.06-.37-.79-.75-1.59-1.12-2.4m33.39-8c-2.91.74-9.76,2.48-19.19,4.71.35.81.71,1.61,1.08,2.39,9.65-2.28,16.55-4,19.15-4.71-.35-.79-.7-1.59-1-2.39"/><path class="cls-23" d="M178.93,357.8c-4.25,1-9,2.1-14.2,3.26.37.81.75,1.61,1.12,2.4,5.17-1.16,9.93-2.26,14.16-3.27-.37-.78-.73-1.58-1.08-2.39"/><path class="cls-22" d="M65.84,397c-2.52.85-5.08,1.66-7.7,2.42,3,.12,6,.16,9.12.14-.47-.84-.94-1.69-1.4-2.56h0m108.75-17.26c-6.13,1.63-12.86,3.33-20,5-20.46,4.78-47.33,10-72.87,11.69.53.84,1.05,1.67,1.58,2.47,25.3-1.8,51.69-6.93,71.89-11.67,7.43-1.73,14.43-3.51,20.78-5.2-.46-.75-.93-1.51-1.4-2.29M207,370.27c-3,1-9.4,3-18.15,5.52.52.76,1,1.5,1.57,2.22,9-2.61,15.46-4.66,18-5.5-.49-.73-1-1.47-1.45-2.24"/><path class="cls-23" d="M188.88,375.79c-4.25,1.22-9.06,2.56-14.29,3.95.47.78.94,1.54,1.4,2.29,5.32-1.42,10.18-2.78,14.46-4-.53-.72-1-1.46-1.57-2.22"/><path class="cls-23" d="M65.86,397c.46.87.93,1.72,1.4,2.56,4.8,0,9.71-.24,14.66-.56l1.4-.1c-.53-.8-1-1.63-1.58-2.47h0c-5.36.35-10.66.55-15.83.56"/><path class="cls-22" d="M64.17,410.23a40,40,0,0,0,3.44,3.06h0q4.2.49,8.68.73c-.61-.87-1.22-1.77-1.84-2.69-3.58-.24-7-.6-10.29-1.11m122.24-13.46c-24.28,5.91-56.36,12.48-85.17,14.38q-4,.27-8,.41c.8.86,1.6,1.68,2.39,2.47,1.88-.08,3.77-.19,5.68-.31,29.51-2,62.34-8.74,86.87-14.74-.59-.71-1.19-1.45-1.8-2.21m35-9.38c-3.66,1.09-9.93,2.9-18,5.06.79.71,1.56,1.39,2.33,2,8.77-2.35,15.19-4.25,18.19-5.15-.83-.6-1.66-1.24-2.49-1.94"/><path class="cls-23" d="M203.37,392.45c-5,1.34-10.73,2.81-17,4.32.61.76,1.21,1.5,1.8,2.21,6.48-1.59,12.38-3.12,17.49-4.5-.77-.64-1.54-1.32-2.33-2"/><path class="cls-23" d="M74.46,411.34c.62.92,1.23,1.82,1.84,2.69,6.14.33,12.64.3,19.36,0-.79-.79-1.59-1.61-2.39-2.47a185.16,185.16,0,0,1-18.81-.22"/><path class="cls-24" d="M192.25,336.45c10.58,36.83,33,62.6,50.17,57.58s22.43-38.95,11.85-75.78-33.05-62.6-50.17-57.57-22.44,38.95-11.85,75.77"/><path class="cls-16" d="M195.19,335.59c9.58,33.33,29.91,56.66,45.41,52.11s20.3-35.26,10.73-68.58S221.42,262.46,205.92,267s-20.31,35.25-10.73,68.58"/><path class="cls-17" d="M217.28,328.79c3.79,13.21,11.85,22.45,18,20.65s8-14,4.25-27.18-11.86-22.45-18-20.65-8.05,14-4.25,27.18"/><path class="cls-11" d="M294.73,303.61c-5.53,3.11-11,5.94-16.37,8.46-30,14.15-55.52,19.24-57.25,18.52-2.4-1-14.15-15.45-14.15-15.45-2.61.56-4.94,3.24-4.94,3.24a130.55,130.55,0,0,0,17.11,19.14c31.29-2.23,62.74-17.61,81.21-28.31a33.77,33.77,0,0,1-5.61-5.6"/><path class="cls-12" d="M290.51,305.93h0a16.4,16.4,0,0,1-2.78,1.94,32.57,32.57,0,0,1-6.67,2.91l-2.7,1.29h0c-8.95,5.85-18.55,11.33-26.59,14.08-22.05,7.56-32.64,11.37-32.64,11.37,17-1.21,34.06-6.31,49.05-12.43L281.9,319l.75-.36c3.33-5.35,8.17-10.3,8.19-12.1a.59.59,0,0,0-.33-.59"/><path class="cls-13" d="M316.79,302.85l-.43.45c-5.55,4.9-9.57,15.32-18.59,17.51L293,322c-4.76,1.25-5.66,1.63-5.66,1.63-6.14,8.11-19.15,1.47-19.15,1.47l14.45-6.44c3.84-6.17,9.68-11.8,7.89-12.73,0,0-4.79,4.48-15.22,6.22h-.12c-3.47.39-8.79-1.11-4.57-3.55s13.93-16.3,18.46-17.68c2.91-.89,9.56-2.74,13.91-4,1.06,3.63,4.25,9.89,13.82,15.9"/><path class="cls-7" d="M268.17,325.1h0s.46.24,1.25.57h0c-.78-.32-1.24-.55-1.26-.56m12.9-14.33a41.35,41.35,0,0,1-5.78,1.38,42.72,42.72,0,0,0,5.77-1.37h0m-12-.69c-.35,1.27,2.24,2.06,4.67,2.12-2.43-.06-5-.85-4.67-2.12h0m23.87-20.31-3,.87h0l3-.87"/><path class="cls-25" d="M290.84,306.52c0,1.8-4.86,6.75-8.19,12.1h0c3.34-5.36,8.18-10.3,8.19-12.1"/><path class="cls-25" d="M287.73,307.87a32.76,32.76,0,0,1-6.66,2.9h0a32.57,32.57,0,0,0,6.67-2.91"/><path class="cls-14" d="M303,287h0c-2.91.82-6.87,1.92-10,2.82l-3,.87c1.21,2.53,1.9,6.53-1.17,11.53-3.57,5.83-12.23,7.44-18.14,7.83l-1.56.08c-.33,1.27,2.24,2.06,4.67,2.12.34,0,.69,0,1,0l.41,0h.12a41.35,41.35,0,0,0,5.78-1.38h0a32.76,32.76,0,0,0,6.66-2.9,17,17,0,0,0,2.78-1.94.59.59,0,0,1,.33.59c0,1.8-4.85,6.74-8.19,12.1l0,0h0l-14.45,6.44s.48.24,1.26.56c3-1,9.06-3.24,13.29-6.11,3.14,1.2,4.34,4.58-.35,7.55a9.61,9.61,0,0,0,4.95-3.47s.9-.38,5.66-1.63l4.79-1.19c9-2.19,13-12.61,18.59-17.51l.43-.45h0a39.08,39.08,0,0,1-9.42-8A22.34,22.34,0,0,1,303,287"/><path class="cls-15" d="M287.32,323.64a30.8,30.8,0,0,1,3.58-5.08,33.56,33.56,0,0,1,4.33-4.35,18.72,18.72,0,0,1-3.3,5.33A19.61,19.61,0,0,1,287.32,323.64Z"/><path class="cls-15" d="M292.26,322.51c1.07-1.38,2.08-2.6,3.11-3.86l1.55-1.88a22.46,22.46,0,0,1,1.7-1.87,10.17,10.17,0,0,1-2.21,4.71,10.79,10.79,0,0,1-1.86,1.78A6.2,6.2,0,0,1,292.26,322.51Z"/><path class="cls-26" d="M262.07,164.19l-.28,11.14,5.22-3,2-4.8c-1.33-1.75-7-3.32-7-3.32"/><path class="cls-26" d="M214.67,172.37s2.06,12,3.6,12.65c.85.37,4.58-.38,7.72-1.27,2.51-.7,4.63-1.49,4.64-1.88,0-.88,2.54-16.64,2.54-16.64l-1.07,1.25c-4.86.78-9,1.65-12.13,2.4h0a21,21,0,0,0-3.29,1.31l-2,2.17"/><path class="cls-27" d="M268.49,167c-2.09.62-4.27,1.17-6.53,1.63l-.12,4.84,0,1.9,5.22-3,2-4.8a2.93,2.93,0,0,0-.56-.55"/><path class="cls-27" d="M223.73,168c-1.37.29-2.63.57-3.76.84h0a21,21,0,0,0-3.29,1.31l-2,2.17s2.06,12,3.6,12.65a2.71,2.71,0,0,0,1.16.08,27.17,27.17,0,0,0,3.89-.66l.41-16.4"/><path class="cls-28" d="M224,158.78l-.78,31.28a20.67,20.67,0,0,0,4.11,1.3c1.87,0,3.71,0,5.5-.11l28.91-12.18.49-19.62L224,158.78"/><path class="cls-29" d="M262,168.59a84.49,84.49,0,0,1-11.47,1.59c9.18,2.34-2.12,5.07-13.1,8.33a29.94,29.94,0,0,1-6.61,1.25,16.53,16.53,0,0,1-7.32-1l-.28,11.27a20.67,20.67,0,0,0,4.11,1.3c1.87,0,3.71,0,5.5-.11l28.91-12.18.26-10.48"/><path class="cls-8" d="M227.29,191.36c1.87,0,3.71,0,5.5-.13,20-1.26,34.68-10.91,36-13.69,1.46-3,1.59-8.29.25-10v0c-.55,1.1-3.1,3.26-7.19,5.57a68.7,68.7,0,0,1-26.8,8.27h0A12.27,12.27,0,0,0,227.29,191.36Z"/><path class="cls-8" d="M212,178.79a23.86,23.86,0,0,0,11.14,11.08,18.44,18.44,0,0,0,4.11,1.49,16.7,16.7,0,0,0-1.29-7.61,6.65,6.65,0,0,0-2.57-3c0,1.16,0,0,0,0a14.21,14.21,0,0,1-3.38-7.8,15.05,15.05,0,0,1-.06-4h0a21,21,0,0,0-3.29,1.31c-2.23,1.11-4.37,2.62-4.55,3.93A15.2,15.2,0,0,0,212,178.79Z"/><path class="cls-30" d="M215.6,195.21a2.66,2.66,0,0,0,1.85,3.63,3.58,3.58,0,0,0,4.25-1.78,2.67,2.67,0,0,0-1.85-3.64A3.58,3.58,0,0,0,215.6,195.21Zm2.92,1.38a.47.47,0,0,1,.57-.23.35.35,0,0,1,.23.48.47.47,0,0,1-.55.24A.36.36,0,0,1,218.52,196.59Zm.39-.88a.49.49,0,0,1,.57-.24.37.37,0,0,1,.24.49.48.48,0,0,1-.56.23A.35.35,0,0,1,218.91,195.71Zm-1.33.6a.47.47,0,0,1,.56-.24.35.35,0,0,1,.25.48.48.48,0,0,1-.57.24A.35.35,0,0,1,217.58,196.31Zm.39-.89a.48.48,0,0,1,.56-.23.35.35,0,0,1,.25.48.48.48,0,0,1-.57.24A.36.36,0,0,1,218,195.42Z"/><path class="cls-30" d="M205.43,218.78a2.67,2.67,0,0,0,1.85,3.64,3.56,3.56,0,0,0,4.24-1.79,2.65,2.65,0,0,0-1.84-3.63A3.58,3.58,0,0,0,205.43,218.78Zm2.92,1.39a.47.47,0,0,1,.56-.24.35.35,0,0,1,.24.48.47.47,0,0,1-.56.24A.35.35,0,0,1,208.35,220.17Zm.39-.88a.47.47,0,0,1,.56-.24.35.35,0,0,1,.24.48.46.46,0,0,1-.56.24A.35.35,0,0,1,208.74,219.29Zm-1.33.59a.46.46,0,0,1,.56-.23.36.36,0,0,1,.25.48.49.49,0,0,1-.57.24A.36.36,0,0,1,207.41,219.88Zm.39-.88a.48.48,0,0,1,.56-.24.36.36,0,0,1,.25.49.47.47,0,0,1-.57.23A.35.35,0,0,1,207.8,219Z"/><path class="cls-30" d="M200.81,242a2.65,2.65,0,0,0,1.84,3.63,3.58,3.58,0,0,0,4.25-1.78,2.66,2.66,0,0,0-1.84-3.64A3.57,3.57,0,0,0,200.81,242Zm2.91,1.38a.48.48,0,0,1,.57-.23.35.35,0,0,1,.24.48.48.48,0,0,1-.56.24A.37.37,0,0,1,203.72,243.37Zm.4-.88a.48.48,0,0,1,.56-.24.36.36,0,0,1,.24.49.48.48,0,0,1-.56.24A.36.36,0,0,1,204.12,242.49Zm-1.34.6a.48.48,0,0,1,.57-.24.35.35,0,0,1,.24.48.47.47,0,0,1-.56.24A.35.35,0,0,1,202.78,243.09Zm.39-.88a.48.48,0,0,1,.57-.24.35.35,0,0,1,.24.48.47.47,0,0,1-.56.24A.35.35,0,0,1,203.17,242.21Z"/><path class="cls-4" d="M228.1,191.45c-1.25,2.22-2.46,4.45-3.59,6.74s-2.29,4.55-3.34,6.87c-2.12,4.63-4.12,9.32-5.8,14.14a118.68,118.68,0,0,0-4.21,14.74,77.59,77.59,0,0,0-1.56,15.31,62.69,62.69,0,0,1,.8-15.47,106.35,106.35,0,0,1,4-14.95,136.13,136.13,0,0,1,6-14.15A117,117,0,0,1,228.1,191.45Z"/><path class="cls-13" d="M203.87,129.49a19.27,19.27,0,0,1-3.69,3.17c-8,5.47-10.79,4.92-11.63,3.12s.1-4.38.1-4.38c-7-1.51-28-20.22-14.61-25.41a16.76,16.76,0,0,1,1.6-.54c12.31-3.48,18.79,9.94,18.79,9.94a28.21,28.21,0,0,1,8.45,4.51c2.78,2.4,4.38,5.65,1,9.59"/><path class="cls-31" d="M179.54,112.91c-3.77.53-.82,7.12,5.21,10.85s6.11,6.78,5.91,9.77a2.45,2.45,0,0,1-2.11,2.25,2.3,2.3,0,0,0,2.5,1.25,12.83,12.83,0,0,0,4.76-1.68c-.35-1.56-.65-3.19-.89-4.88h0a114,114,0,0,1-14.37-17.17c-.33-.14-.67-.26-1-.39M176,105.37l-.31.08.54.38c-.08-.16-.15-.31-.23-.46"/><path class="cls-32" d="M196,129.7a66.53,66.53,0,0,0-8-11.14,25.81,25.81,0,0,0-5-4,26.83,26.83,0,0,0-6.17-2.5,12,12,0,0,1,7,.36,16.45,16.45,0,0,1,6.12,4.06,23,23,0,0,1,4.08,6.16,20.57,20.57,0,0,1,1.91,7.1"/><path class="cls-13" d="M278.93,130.17a19.83,19.83,0,0,0,3.64,3.24c7.91,5.62,10.72,5.12,11.59,3.33s0-4.38,0-4.38c7-1.38,28.27-19.7,15-25.14a16.08,16.08,0,0,0-1.59-.57c-12.25-3.7-18.94,9.59-18.94,9.59a28.09,28.09,0,0,0-8.53,4.37c-2.82,2.34-4.47,5.57-1.15,9.56"/><path class="cls-31" d="M302.43,106l-.44,0a57,57,0,0,1-7.43,8.15L294,128.07a17.25,17.25,0,0,1,4.19-3.27c6.2-3.68,9.25-10.38,5.21-10.78-3.34-.34.77-5.18,4.2-7.37a14.49,14.49,0,0,0-5.12-.62"/><path class="cls-32" d="M286.82,130.53a20.46,20.46,0,0,1,2-7.07,22.79,22.79,0,0,1,4.18-6.08,16.36,16.36,0,0,1,6.18-3.95,12,12,0,0,1,7.05-.23,27.15,27.15,0,0,0-6.21,2.38,25.74,25.74,0,0,0-5.08,4A66.7,66.7,0,0,0,286.82,130.53Z"/><path class="cls-33" d="M171.05,88.34a38.54,38.54,0,0,0,.79,5.58,47.12,47.12,0,0,0,1.71,5.86c.25.67.51,1.36.79,2,3.36,8.13,9.64,17.71,20.58,28.64,39.05,38.94,98.52-15.29,98.52-15.29a52.71,52.71,0,0,0,12.61-15.64c3.43-6.82,5.13-15.26.7-24a30.13,30.13,0,0,0-3.25-5.07s8.82-1.16,11.77-3c0,0-5-7.77-13.6-19.74-4.58-6.31-10.18-13.8-16.61-21.93C274.64,12.61,249,8.38,225.84,13.86c-10-1-36.68-.76-44.62,27.22-1.95,6.87-2.78,15.43-1.94,26.06l-3.45-9.67,1.4,8.4-4.39-1,3.49,4.69s-6.07,6.51-5.28,18.74M184.74,45.1s1-25.87,36.94-30.16c-16.5,4.83-31.09,14.78-36.94,30.16"/><path class="cls-34" d="M171.84,93.92c6.37-.52,19.14-3.14,30.91-15-.18.55-6,17.49-29.2,20.85.25.67.51,1.36.79,2,5,1.14,14,1.41,25.63-5.57,0,0-4.55,7.24-7.47,8.62,0,0,11.84,6.55,20.67-5.7s-9.83-26.69-9.83-26.69-12.78,15.72-32.29,15.85a38.54,38.54,0,0,0,.79,5.58"/><path class="cls-13" d="M194.92,130.47c2.2,15.57,9.43,25.68,19,31.85,21.86,14.05,56,7.42,70.34-2.41,8-5.45,11.24-11.31,12.23-16.46a21.5,21.5,0,0,0-2.27-14c-.19-.35-.31-.54-.31-.54l1.14-26.33,1-23.55.26-5.85.11-2.76c-18.22.46-29.61-6.5-54.54-10.77s-42.68,10.51-42.68,10.51c26.21,27.62-1.31,52.58-1.31,52.58l.83,7.17-3.83.59"/><path class="cls-34" d="M241.41,84.57c-.64-1.6-.87-4.25-2.57-4.56a13.89,13.89,0,0,0-7,1c-4.39,1.58-9.52,6-12.44,12.4,5.79-4,13.46-7.9,22-8.87"/><path class="cls-34" d="M272.3,85.56c.6-1.62.76-4.27,2.45-4.63a13.82,13.82,0,0,1,7,.81c4.42,1.45,9.67,5.7,12.77,12-5.91-3.86-13.67-7.5-22.21-8.21"/><path class="cls-35" d="M233.55,96.72c-4.92.33-8.85,5.33-8.9,11.49-.06,6.41,4.11,11.64,9.29,11.68a5.81,5.81,0,0,0,.59,0c4.92-.33,8.85-5.33,8.9-11.49,0-6.41-4.11-11.64-9.3-11.68a5.61,5.61,0,0,0-.58,0"/><path class="cls-36" d="M233.55,96.75a8.91,8.91,0,0,0-6.56,4.33,13.18,13.18,0,0,0-2,7.71,12.63,12.63,0,0,0,2.68,7.44,8.19,8.19,0,0,0,6.85,3.2,8.66,8.66,0,0,0,6.47-4,13,13,0,0,0,2.14-7.63,12.7,12.7,0,0,0-2.57-7.53,9.18,9.18,0,0,0-3-2.62,8,8,0,0,0-3.94-.91v0a8,8,0,0,1,4,.82,9.36,9.36,0,0,1,3.19,2.6,12.94,12.94,0,0,1,2.7,7.68,13.37,13.37,0,0,1-2.13,7.87,9.11,9.11,0,0,1-6.79,4.26,8.22,8.22,0,0,1-4-.83,9.39,9.39,0,0,1-3.19-2.61,12.91,12.91,0,0,1-2.69-7.69,13.4,13.4,0,0,1,2.14-7.86,9.06,9.06,0,0,1,6.78-4.24Z"/><path class="cls-37" d="M225.46,110c0,4.23,2.71,7.69,6.15,7.72s6.24-3.37,6.27-7.61-2.72-7.69-6.15-7.72S225.49,105.8,225.46,110Z"/><path class="cls-35" d="M234.83,108.51a2,2,0,1,0,2-2.39A2.22,2.22,0,0,0,234.83,108.51Z"/><path class="cls-35" d="M233.49,111.61a1,1,0,1,0,2,0,1,1,0,1,0-2,0Z"/><path class="cls-38" d="M229.29,59a56.63,56.63,0,0,0-30.06,11.17c7.81,8.23,10.85,16.22,11.27,23.38,1,16.89-12.58,29.2-12.58,29.2l.83,7.17-3.83.59c2.2,15.57,9.43,25.68,19,31.85a73.61,73.61,0,0,0,34.78,6.29,75.69,75.69,0,0,0,38-13.28c-2.75,1.35-17.57,7.59-33.07,8.62-16.24,1.07-33.22-3.57-37.9-25.52-8.13-38,5.7-71.91,27.47-73.35a23.82,23.82,0,0,1,8.8,1.13c21.43,6.73,38.47,7.06,44.31,6.94l.11-2.76c-18.22.46-29.61-6.5-54.54-10.77A53.84,53.84,0,0,0,229.29,59"/><path class="cls-35" d="M280.6,98.45c-4.3.28-7.74,4.89-7.79,10.57-.05,5.89,3.58,10.7,8.09,10.74h.48c4.29-.29,7.74-4.9,7.78-10.58,0-5.89-3.57-10.7-8.09-10.74l-.47,0"/><path class="cls-36" d="M280.6,98.47a7.78,7.78,0,0,0-5.76,4.06,12.68,12.68,0,0,0-1.71,7,12,12,0,0,0,2.24,6.75,8,8,0,0,0,2.63,2.32,6.42,6.42,0,0,0,3.35.73,7.46,7.46,0,0,0,5.66-3.71,12.51,12.51,0,0,0,1.83-6.89,12.07,12.07,0,0,0-2.12-6.84,8.28,8.28,0,0,0-2.61-2.49,6.71,6.71,0,0,0-3.51-.9v0a6.71,6.71,0,0,1,3.59.82,8.24,8.24,0,0,1,2.75,2.47,12.27,12.27,0,0,1,2.25,7,12.9,12.9,0,0,1-1.81,7.12,8,8,0,0,1-6,4,6.78,6.78,0,0,1-3.6-.83A8.35,8.35,0,0,1,275,116.5a12.34,12.34,0,0,1-2.24-7,13,13,0,0,1,1.82-7.12,7.93,7.93,0,0,1,6-4Z"/><path class="cls-37" d="M273.77,110.09c0,4.17,2.53,7.58,5.73,7.61s5.81-3.33,5.85-7.5-2.53-7.58-5.73-7.6S273.8,105.92,273.77,110.09Z"/><path class="cls-35" d="M281.68,108.17a1.88,1.88,0,1,0,1.84-2.36A2.16,2.16,0,0,0,281.68,108.17Z"/><path class="cls-35" d="M280.43,111.22a1,1,0,1,0,1.84,0c0-.67-.4-1.21-.91-1.21A1.08,1.08,0,0,0,280.43,111.22Z"/><path class="cls-34" d="M244.08,20.19c-4.73-.05-50.66.79-56.33,49.63,0,0,5.78-11.16,11.62-14A37.06,37.06,0,0,0,194.9,69.6s15-28.15,45.89-18.9,65.49,9,65.49,9S277,53.27,251.67,46.31s-39-10.72-54.23,4.82c.24-.53,8.15-17.29,30-17.09,19.45.18,47.91,13.12,74.23,13.67-4.58-6.31-10.18-13.8-16.61-21.93C274.64,12.61,249,8.38,225.84,13.86c-10-1-36.68-.76-44.62,27.22-1.58,8.89-1.82,18.56,1.27,27C182.49,68.09,184.73,18.46,244.08,20.19Zm-22.4-5.25c-16.5,4.83-31.09,14.78-36.94,30.16C184.74,45.1,185.72,19.23,221.68,14.94Z"/><path class="cls-34" d="M306.05,99.54c3.43-6.82,5.13-15.26.7-24C301.3,80.93,291.23,93.37,306.05,99.54Z"/><path class="cls-32" d="M264.32,113.76c.08,1.83.1,3.64.09,5.46l-.56-.63a15.13,15.13,0,0,1,5.14.34,7.72,7.72,0,0,1,4.7,3.07,6.64,6.64,0,0,1,1,3,6.54,6.54,0,0,1-.45,3.14,8.74,8.74,0,0,1-3.94,4.22,12.63,12.63,0,0,1-10.39.81,11.42,11.42,0,0,1-4.39-3,12.39,12.39,0,0,1-2.62-4.55,12.56,12.56,0,0,0,7.51,5.73,12.13,12.13,0,0,0,8.77-1.22,7.23,7.23,0,0,0,2.9-3,3.87,3.87,0,0,0,.31-1.95,4.35,4.35,0,0,0-.49-1.93,6.53,6.53,0,0,0-3.38-2.53,17.38,17.38,0,0,0-4.6-1l-.66,0,.09-.58C263.62,117.33,263.93,115.54,264.32,113.76Z"/><path class="cls-39" d="M270.52,141c-.87,3.5-5,15.62-20.11,12.68-9.58-1.86-12.33-7.53-12.87-12.32a18.06,18.06,0,0,1,0-3.89c4.41,3.13,13.51,6.05,32.2,3.64Z"/><path class="cls-35" d="M269.73,141.08c0,1.16-1,2.42-3.34,3.79-12.74,7.38-24.89-.25-29.15-3.52a18,18,0,0,1,0-3.89C241.68,140.58,250.87,143.5,269.73,141.08Z"/><path class="cls-40" d="M237,137.48c7.1.77,14.35,2.12,21.47,2.69,2.85.24,5.66.37,8.55.39,1.47,0,2.95,0,4.54,0-.31.2-.64.39-1,.57-9.88,5.23-25.79,2.73-33.59-3.63Z"/><path class="cls-40" d="M241.85,150.09c5.21-.18,10.74.69,15.87,1.24,1.84.23,3.57.38,5.51.66a8.46,8.46,0,0,1-1.17.87c-6,3.61-16.2,2-20.21-2.77Z"/><path class="cls-41" d="M356.45,275.11q.17-.24.3-.48c.45-.73.87-1.45,1.23-2.15v0c.36-.7.66-1.38.93-2.06.05-.15.11-.3.17-.44a20.52,20.52,0,0,0,.63-2l.06-.24c.14-.58.25-1.16.33-1.73,0-.13,0-.25.05-.38a13.8,13.8,0,0,0,.11-1.8c0-.1,0-.2,0-.3,0-.53-.06-1-.13-1.55a2.51,2.51,0,0,0,0-.27,11.94,11.94,0,0,0-.37-1.62c0-.11-.07-.21-.1-.32a11.83,11.83,0,0,0-.57-1.43.75.75,0,0,0-.06-.13,12.11,12.11,0,0,0-.82-1.44l-.18-.27a14.47,14.47,0,0,0-1-1.34c-3.36-3.81-11-13.21-19.95-23.61l-.11-.14c-2.59-3-5.27-6.11-8-9.19l-.64-.71c-.66-.75-1.32-1.5-2-2.24-.24-.28-.49-.55-.73-.82l-2.14-2.37-.48-.53-2.57-2.79-.13-.15-.34-.35-2.45-2.61c-.26-.26-.51-.53-.76-.79-.93-1-1.85-1.92-2.75-2.83-.14-.15-.28-.28-.43-.43-.77-.78-1.53-1.53-2.28-2.26l-.75-.73c-.85-.81-1.69-1.61-2.49-2.35l-.38-.33c-.69-.63-1.37-1.23-2-1.79l-.7-.59c-.73-.62-1.46-1.21-2.14-1.73l-.26-.19c-.61-.46-1.19-.86-1.75-1.23l-.56-.37a17.59,17.59,0,0,0-1.63-.92l-.11-.07c-11.12-5.3-25.86-12.45-30.39-14.65a3.53,3.53,0,0,0,.27-.4c1.46-3,1.59-8.29.25-10l0,0h0a3.41,3.41,0,0,0-.54-.53h0l0,0a57.31,57.31,0,0,0,15.81-7c8-5.44,11.24-11.31,12.24-16.46a21,21,0,0,0-1.11-11.47c7.94-3,26.28-19.62,13.75-24.76a14.47,14.47,0,0,0-1.59-.56,15.76,15.76,0,0,0-2-.46l-.36-.06a16.41,16.41,0,0,0-1.82-.13h-.92l-.44,0,0,0h0a44.77,44.77,0,0,0,4.1-6.57,32.7,32.7,0,0,0,2.8-7.85l.15-.79a25.31,25.31,0,0,0,.38-5.73s0,0,0,0a24,24,0,0,0-2.62-9.6A30.13,30.13,0,0,0,303,70.89s8.82-1.16,11.76-3c0,0-5-7.77-13.6-19.73-2.28-3.16-4.83-6.62-7.6-10.29s-5.78-7.59-9-11.65c-7.24-9.15-21.84-14-37.83-14.24a87.33,87.33,0,0,0-21.4,2.32l-1-.09c-1.37-.11-3-.18-4.78-.18-.89,0-1.83,0-2.81.08a51.41,51.41,0,0,0-9.48,1.38c-.55.14-1.11.28-1.67.45A39.15,39.15,0,0,0,199,18.52a36.22,36.22,0,0,0-3.24,1.84,33,33,0,0,0-7.45,6.51l-.06.08a38.68,38.68,0,0,0-7.47,14.57c-2,6.87-2.78,15.43-1.94,26.06l-3.45-9.67,1.4,8.41-4.39-1L175.83,70s-6.07,6.51-5.27,18.74a37.2,37.2,0,0,0,.79,5.58,45.47,45.47,0,0,0,1.71,5.86c.25.67.51,1.36.79,2,.48,1.15,1,2.34,1.63,3.56h0v0l-.31.08a15.87,15.87,0,0,0-1.6.54c-13.35,5.19,7.65,23.9,14.61,25.41,0,0-.89,2.72-.11,4.38a2.22,2.22,0,0,0,.39.57,1.24,1.24,0,0,0,.18.14,1.49,1.49,0,0,0,.41.28,2,2,0,0,0,.29.1,2.08,2.08,0,0,0,.52.12,2.61,2.61,0,0,0,.4,0c.11,0,.2,0,.32,0s.3-.05.44-.07l.31,0a9.45,9.45,0,0,0,1.35-.38l.26-.1c.44-.17.92-.37,1.43-.62l.53-.25.44-.22v0l0,0c2.91,12.84,9.55,21.51,18.09,27a46,46,0,0,0,9.83,4.69l0,1-.84.18-.68.15-2.25.51h0a21,21,0,0,0-3.29,1.31h0c-.48.23-.94.49-1.39.76-10.9,1.23-40,4.21-48.57,10.66-3.44,2.62-8.06,12-12.88,22.9-6.87,14.2-17.27,38-20,40.6l0,0c-18.41,16.27-37.92,32.54-45.8,39.07h0l-.84.7L84,287.54a5.84,5.84,0,0,0-.6-.15c-.31-.08-.61-.17-.91-.23s-.5-.08-.75-.11-.6-.1-.9-.12-.51,0-.76-.05-.59,0-.89,0-.5,0-.76,0l-.84,0h-.21l-.73.07-.39,0-1.27.16-.1,0-1,.18-.33.07-.65.13-.3.07-.47.12-.22.05-.33.09-.1,0-.14,0-6.91-1.06a8.38,8.38,0,0,0-1.73-.07h-.2l-.15,0a8.52,8.52,0,0,0-1.59.27l-.28.09a8.37,8.37,0,0,0-1.36.54l-.24.11a8.81,8.81,0,0,0-1.35.9,3.11,3.11,0,0,0-.28.23A9,9,0,0,0,56,290.19l-1.38,1.74-1-.38c-.89-.32-1.77-.65-2.63-1L49.53,290l-2.36-.92-1.43-.57-2.28-.93-1.29-.54L39.72,286l-.9-.38c-1.08-.48-2.13-.94-3.14-1.41l-.73-.33-2.23-1-1-.49L30,281.52l-1-.51-1.54-.78-.92-.47L25,279l-.74-.39-1.67-.92-.3-.16-1.73-1-.45-.27-1-.62-.47-.29-.75-.49-.39-.27-.55-.39c-.11-.07-.21-.15-.3-.22l-.39-.32-.17-.15a1.34,1.34,0,0,1-.27-.33,2.45,2.45,0,0,1-.18-.59,2.16,2.16,0,0,1-.05-.27c0-.19-.07-.39-.1-.61s0-.26,0-.4,0-.49-.07-.76l0-.46c0-.33,0-.68-.06-1,0-.11,0-.21,0-.32,0-.49,0-1,0-1.54,0-.12,0-.25,0-.38,0-.42,0-.84,0-1.28,0-.19,0-.39,0-.59v-1.76c0-.48,0-1,0-1.45a2.62,2.62,0,0,0,0-.28c0-.6,0-1.19,0-1.77,0-.11,0-.22,0-.33l0-1.32c0-.18,0-.36,0-.53l0-1.11V256c0-.44,0-.85,0-1.24v-.12c0-.42,0-.79,0-1.13,0-.12,0-.23,0-.35s0-.45,0-.63a1.27,1.27,0,0,1,0-.2c0-.15,0-.29,0-.39s0-.12,0-.16v-.16a8.54,8.54,0,0,0-3.57-.91,14.74,14.74,0,0,0-2.42.07,134.84,134.84,0,0,0,.11,26.48c12,9.19,26.05,16.11,39.78,21.33L46.65,302a9.6,9.6,0,0,0,11.24,1.51c-1,.57-1.94,1.1-2.91,1.68-.49.29-1,.55-1.5.82a13.34,13.34,0,0,0-3.92.53c-14.64,4.29-19.18,33.31-10.13,64.8s28.26,53.53,42.91,49.23A13.36,13.36,0,0,0,85.71,419c1.21,0,2.43,0,3.64.12,2.8.2,6.63.39,11.44.48l3.25,0h4.64c1.23,0,2.51,0,3.82-.07l.91,0c1.08,0,2.18-.06,3.3-.11l1.21,0c1.44-.06,2.92-.13,4.44-.22h0c1.2-.06,2.43-.14,3.68-.22l.63-.05,3.41-.25c-.13.95-.25,1.86-.35,2.71h0c0,.06,0,.1,0,.15s0,.34-.05.51c-.06.54-.11,1.05-.15,1.54,0,.22,0,.42,0,.62,0,.43-.06.83-.07,1.21,0,.17,0,.34,0,.5,0,.5,0,1,0,1.34v.14c3,.12,6,.21,9.05.3h0c0,.23-.08.49-.12.73l-.09.51c-.15.89-.29,1.82-.44,2.8l0,.12-.06.38c-.08.6-.17,1.2-.26,1.83a1.1,1.1,0,0,1,0,.18c-.17,1.23-.33,2.53-.49,3.88,0,.11,0,.21,0,.32q-.36,3.13-.64,6.63c0,.21,0,.42,0,.63q-.26,3.33-.41,6.93c0,.46,0,.92-.05,1.38s0,.93-.05,1.41h0a.86.86,0,0,1,0,.16c0,1.27,0,2.56,0,3.88V460c0,1.19,0,2.4,0,3.62,0,.19,0,.37,0,.55,0,1.36.08,2.74.14,4.13l0,.54c.06,1.26.14,2.53.23,3.81,0,.14,0,.28,0,.42h0c0,.22,0,.44.05.66v.35c.12,1.51.28,3,.44,4.56,0,.34.06.66.1,1h0s0,.1,0,.15c.14,1.19.29,2.39.46,3.6.31,2.16.68,4.24,1.09,6.27.14.68.3,1.32.44,2,.3,1.34.6,2.66.93,3.94.2.74.41,1.45.61,2.17.33,1.16.66,2.3,1,3.41.22.71.46,1.41.7,2.1.36,1.07.74,2.11,1.13,3.13.24.65.49,1.3.74,1.93.42,1,.84,2,1.28,3,.24.55.48,1.12.72,1.65.51,1.09,1,2.13,1.53,3.15l.55,1.12c.71,1.36,1.42,2.67,2.13,3.9.13.22.26.42.38.63.59,1,1.18,2,1.76,2.89.24.4.49.75.73,1.13.46.7.91,1.38,1.35,2,.27.39.52.75.78,1.11.42.58.82,1.14,1.22,1.67.25.34.49.66.74,1L158.2,533l.66.81c.3.36.57.69.85,1l.27.32.43.5.52.57.44.49.09.09.26.29.25.26c.18.18.32.34.48.49l.23.25.07.07h0l0,0,.13.14,0,0,0,0,.17.16h0l.22.21.09.09,0,0,0,0,.16.15h0s.26-.13.71-.41l0,0c0,.18-.06.33-.08.46-.63,2-2.55,4.51-9,8.75h-.12l.1,0c-3.27,2-7.09,4-10.87,5.86l-.09.06c-8.23,4.18-16.21,8.14-17.8,11.76a6,6,0,0,0-.57,2.13V568l0,.29.08.27.13.31.17.23.2.2a2.85,2.85,0,0,0,.64.38l.27.08a4.29,4.29,0,0,0,.57.15c.13,0,.27,0,.4.06l.65,0h.69l-.16,0a2.05,2.05,0,0,0,.23.88h0a2.46,2.46,0,0,0,.86.93l.09.06a.91.91,0,0,0,.13.08H131a6.18,6.18,0,0,0,3.49.48c5-.44,23.6-5.79,30.21-7.61.53-.15,1.17-.31,1.9-.48l.88-.21,1-.23.62-.14c2.08-.47,4.51-1,7.05-1.57h0c1.49-.34,3-.69,4.5-1.06l.2,0,2-.52.21,0,.06,0h0l.09,0,2-.55.33-.09c.64-.18,1.26-.36,1.86-.55l.32-.1c.59-.18,1.16-.37,1.69-.56l.28-.09c.53-.19,1-.38,1.48-.57l.24-.1c.45-.19.87-.38,1.23-.57l.17-.1a8.79,8.79,0,0,0,.95-.58l.09-.08a2.9,2.9,0,0,0,.61-.6l0,0a1.11,1.11,0,0,0,.2-.63h0a1.45,1.45,0,0,0-.12-.57h0v0h0a1.24,1.24,0,0,0-.37-.45.83.83,0,0,0-.16-.09,2.12,2.12,0,0,0-.4-.19,2,2,0,0,0-.26-.06,2.21,2.21,0,0,0-.46-.08l-.33,0h-.65l-.47,0h0a5.87,5.87,0,0,0,.82-1.21c.07-.15.11-.31.17-.46a6.61,6.61,0,0,0,.3-.85,5.25,5.25,0,0,0,.09-.55c0-.26.09-.51.11-.76s0-.37,0-.56,0-.39,0-.58c0,0,0-.06,0-.1,0-.25-.05-.47-.08-.7s0-.31-.06-.44-.08-.41-.13-.6,0-.23-.07-.32-.1-.33-.14-.46,0-.11,0-.15l-.08-.22-.09-.19,0,0-.25-.51s0-.1-.08-.14c-.1-.21-.21-.43-.35-.7l-.14-.28c-.13-.25-.27-.51-.42-.81l-.1-.19h0l.12.13.07.08.08.07,0,0,.09.09.12.13.55.56,0,0,.73.74,0,0,.11.1.06.06.6.61.17.17.07.07h0l.68.67,0,0,0,0,0,.05,1.42,1.39.14.14.11.1,0,0,.07.06.1.1.73.7,1.21,1.16.25.23.33.31.64.6c.63.6,1.26,1.18,1.88,1.75l.64.58.45.41.22.21.55.49.67.6.41.36.72.65.56.5.25.22.93.81.08.07.53.47.81.69.49.42.28.25.55.47.59.5.32.27.33.28.6.5.42.35.28.24.44.36.5.42.08.07a.48.48,0,0,1,.11.09h0l.45.37,0,0a.27.27,0,0,1,.08.07l.06,0,.27.22,0,0,.38.31,0,0,.35.29h0l0,0,.31.25,0,0,.13.11,0,0,.12.09,0,0,.24.2,0,0,.13.11,0,0,.06,0h0l0,0,.17.13,0,0,.14.11h0l0,0,.1.08h0l.09.07h0l0,0,0,0h0l0,0v0l0,0c2.48,3,7,5.86,12.89,7.7l.63.2c.63.19,1.29.36,2,.52l.73.17a45.18,45.18,0,0,0,6.63,1l1.25.08c.62,0,1.24,0,1.87.05l1.65,0,1.71-.06h.28l.75-.09c1.09-.08,2.18-.2,3.3-.37.5-.07,1-.17,1.52-.26,1-.18,1.93-.37,2.91-.61.27-.06.54-.09.81-.16h0c6.12-1.28,7.59-4.21,6.61-9.35l0-.25a26.36,26.36,0,0,0-.79-3,10.92,10.92,0,0,0-3.73-4.79h0c-.38-.31-.83-.69-1.31-1.11l-.16-.13c-.48-.41-1-.88-1.55-1.38l-.26-.24c-.55-.5-1.12-1-1.71-1.64l-.31-.3c-.59-.6-1.2-1.24-1.8-1.91l-.3-.34c-.62-.69-1.24-1.42-1.84-2.19l-.23-.31c-.62-.8-1.22-1.63-1.79-2.49l-.13-.2c-.57-.89-1.12-1.81-1.62-2.77l-.06-.1a27.77,27.77,0,0,1-1.3-2.95l-.09-.24h0c.09-.1.19-.2.28-.31l.32-.36c.1-.11.21-.24.31-.37l.33-.4c.12-.13.23-.28.35-.43s.23-.29.35-.44l.37-.49.36-.49.4-.56.36-.52c.15-.21.29-.42.43-.64l.37-.56.45-.71.36-.6c.16-.25.31-.51.47-.78l.36-.65c.16-.28.32-.56.48-.86l.36-.68.49-.94.35-.72c.17-.34.33-.68.49-1s.23-.51.35-.76.33-.74.5-1.12.21-.51.31-.77.35-.82.52-1.24l.28-.76c.18-.45.35-.91.52-1.38.09-.23.17-.47.25-.71.18-.52.36-1,.54-1.57l.1-.34c.69-2.13,1.34-4.43,1.93-6.91,0-.1.05-.19.07-.29.15-.64.29-1.32.44-2l.18-.85c.13-.62.24-1.27.36-1.91l.21-1.09c.11-.62.2-1.27.31-1.91.06-.41.13-.81.19-1.23.09-.64.18-1.29.26-1.94.06-.46.12-.91.17-1.37.08-.65.15-1.32.22-2,.05-.49.1-1,.14-1.49.06-.66.11-1.34.17-2,0-.53.08-1.07.11-1.61s.08-1.38.11-2.07.06-1.14.08-1.72l.06-1.79h0c0-.25,0-.52,0-.79s0-.42,0-.65c0-.55,0-1.11,0-1.67v-3.32c0-1.62,0-3.22-.05-4.82,0-.33,0-.65,0-1,0-1.42-.07-2.83-.11-4.23l0-1.09c-.06-1.61-.12-3.21-.19-4.79,0-.33,0-.65-.05-1-.06-1.35-.13-2.69-.21-4l0-.66h0l-.06-.95v0q-.33-5.2-.74-10.06v0c-.66-7.73-1.46-14.73-2.24-20.63h0c5.34-.26,8.41-.44,8.41-.44s-.25-1.65-.64-4.57c-.84-6.31-2.34-18.63-3.48-33.41-.11-1.48-.22-3-.33-4.51-.05-.79-.11-1.57-.16-2.37q-.18-2.82-.34-5.73c0-.73-.08-1.46-.11-2.2-.1-2-.19-4.07-.27-6.12l-.06-2q-.11-3.24-.17-6.5c0-.34,0-.68,0-1,0-1.86,0-3.76,0-5.7,0-.37,0-.74,0-1.12,0-1.21,0-2.43,0-3.64,0-.71,0-1.41,0-2.12,0-1.42.07-2.83.12-4.24,0-.63,0-1.26.08-1.89.05-1.1.1-2.2.16-3.29,0-.63.07-1.26.11-1.88.08-1.23.17-2.44.27-3.65,0-.36,0-.72.08-1.07l.49-.18,2.43-.9,3.16-1.24,1.55-.61h0s.46.24,1.26.57h0c2.47,1,8.17,2.93,13,1.38l-.08.05a4.52,4.52,0,0,0,.47-.18c.22-.08.43-.15.65-.25a8.46,8.46,0,0,0,.79-.41c.2-.11.4-.21.6-.34a8.3,8.3,0,0,0,.77-.59c.17-.14.35-.26.52-.42a10.12,10.12,0,0,0,1.16-1.27h0a48,48,0,0,1,5.25-1.53l-.32.4a5.34,5.34,0,0,0,1.71-.75l3.8-.94c9-2.2,13.05-12.62,18.59-17.52l.44-.45,1.29.79.27.16.12.07.08,0c1.12-.57,2.22-1.13,3.29-1.69-1.1.58-2.22,1.15-3.37,1.73h0c1.23-.62,2.42-1.23,3.59-1.85l1-.55c.8-.42,1.6-.85,2.38-1.28l1.19-.67c.69-.38,1.37-.76,2-1.15l1.23-.72,1.82-1.08,1.2-.74,1.69-1.06,1.13-.73,1.62-1.07,1-.7,1.6-1.13.88-.62.19-.14c.13-.09.23-.18.35-.27,1-.75,2-1.49,2.91-2.23l.63-.5c1-.81,1.95-1.61,2.84-2.41.18-.15.34-.3.51-.46.78-.71,1.53-1.42,2.24-2.12l.39-.39q1.16-1.17,2.16-2.31c.15-.16.28-.33.42-.49.62-.71,1.2-1.43,1.73-2.13a1.39,1.39,0,0,0,.15-.19C355.48,276.57,356,275.84,356.45,275.11ZM281,319.6h0l.38-.17.75-.36,0,0Zm11.42-29.39-3,.87h0l-.88.27c-4.53,1.38-14.21,15.23-18.46,17.68-.95.55-1.4,1-1.51,1.49h0s0,0,0,.06a.71.71,0,0,0,0,.29.59.59,0,0,0,0,.13,1.08,1.08,0,0,0,.2.34.87.87,0,0,0,.17.16,1.08,1.08,0,0,0,.2.16l.25.15.26.13.3.13.39.13.5.14.45.1.34.05.5.07.29,0c.23,0,.45,0,.67,0h.15a8.88,8.88,0,0,0,.9,0h.09l.42,0h.11c1.22-.2,2.35-.45,3.42-.72l.92-.25c.42-.12.86-.23,1.25-.35-.83.4-1.68.85-2.51,1.24-5.83,2.75-11.48,5.15-16.83,7.24.33-.63.65-1.27,1-1.91l.57-1.11c.31-.61.61-1.24.92-1.86l.63-1.27c.29-.59.57-1.19.85-1.79s.45-.92.67-1.39l.93-2,.55-1.2c.34-.74.68-1.49,1-2.24.15-.34.31-.67.45-1l.95-2.16.48-1.12c.32-.74.64-1.48,1-2.23l.45-1c.4-1,.8-1.92,1.19-2.88l.16-.39c.34-.82.67-1.64,1-2.46l.33-.82q.47-1.14.9-2.28l.39-1,.76-2c.16-.42.33-.84.48-1.25.38-1,.74-1.94,1.1-2.89,0-.09.07-.18.1-.27q1.14-3,2.2-5.95a2.25,2.25,0,0,0,.08-.24c.3-.81.58-1.61.87-2.4l.21-.6c.25-.72.5-1.42.75-2.12.09-.26.18-.53.28-.79.26-.76.51-1.49.77-2.22.06-.2.13-.41.2-.6,1.27-3.68,2.4-7.09,3.38-10.12v-.05c2.72-8.37,4.29-13.88,4.4-14.26v0s10.92,10.48,33.63,25.4c-7,6.3-22.68,17-22.68,17a11.65,11.65,0,0,0,.52,3.13h0l-9.8,2.76ZM261.47,169ZM221.19,15.38a76.8,76.8,0,0,0-10.38,3.88c-1.07.5-2.13,1-3.17,1.56-.87.46-1.73.94-2.58,1.43s-1.78,1.08-2.65,1.65c-.62.4-1.22.81-1.82,1.24-7.31,5.21-13.14,12-16.34,20.4a28.38,28.38,0,0,1,5-13.47C194,25.06,203.21,17.53,221.19,15.38Zm101.5,286.49h0c.77-.4,1.53-.81,2.26-1.22h0Zm3.54-1.94.19-.11-.19.11Zm3.91-2.25,1.09-.66h0Zm2.32-1.41h0l1.65-1h0Zm2.82-1.79h0l.56-.36Z"/></svg>