<svg id="Layer_1" data-name="Layer 1" xmlns="http://www.w3.org/2000/svg" xmlns:xlink="http://www.w3.org/1999/xlink" viewBox="0 0 642.63 509.79"><defs><style>.cls-1{stroke:#301f18;fill:url(#linear-gradient);}.cls-1,.cls-14,.cls-15,.cls-20,.cls-3,.cls-4,.cls-6{stroke-miterlimit:10;}.cls-1,.cls-10,.cls-11,.cls-12,.cls-13,.cls-14,.cls-15,.cls-16,.cls-17,.cls-18,.cls-19,.cls-2,.cls-20,.cls-21,.cls-22,.cls-23,.cls-24,.cls-25,.cls-3,.cls-4,.cls-5,.cls-6,.cls-7,.cls-8,.cls-9{fill-rule:evenodd;}.cls-2{fill:#42251c;}.cls-3{fill:#b2694a;stroke:#7c4633;}.cls-15,.cls-20,.cls-3,.cls-4,.cls-6{stroke-width:0.5px;}.cls-4{fill:#ec916c;stroke:#ba694d;}.cls-5{opacity:0.31;}.cls-6{stroke:#5e5a58;fill:url(#linear-gradient-2);}.cls-7{fill:#2d251e;}.cls-8{fill:#552d1d;}.cls-9{fill:url(#linear-gradient-3);}.cls-10{fill:url(#linear-gradient-4);}.cls-11{fill:url(#linear-gradient-5);}.cls-12{fill:url(#linear-gradient-6);}.cls-13{fill:#23110a;}.cls-14{fill:#302824;stroke:#351d13;}.cls-15{fill:#302d2d;}.cls-15,.cls-20{stroke:#282423;}.cls-16{fill:url(#linear-gradient-7);}.cls-17{fill:#776a66;}.cls-18{fill:#323232;}.cls-19{fill:#fdfdfb;}.cls-20{fill:#4c4b4b;}.cls-21{fill:#ecdbd2;}.cls-22{fill:#f7efeb;}.cls-23{fill:#3f251d;opacity:0.47;}.cls-24{fill:#9b6a59;}.cls-25{fill:#bf9a8c;opacity:0.42;}</style><linearGradient id="linear-gradient" x1="295.98" y1="155.3" x2="547.43" y2="155.3" gradientTransform="translate(102.6 215.32) rotate(4.69)" gradientUnits="userSpaceOnUse"><stop offset="0.59" stop-color="#86491a"/><stop offset="0.73" stop-color="#9b642f"/><stop offset="0.9" stop-color="#b28046"/><stop offset="1" stop-color="#ba8a4e"/></linearGradient><linearGradient id="linear-gradient-2" x1="99.8" y1="99.98" x2="284.46" y2="-133.28" gradientTransform="translate(102.6 215.32) rotate(4.69)" gradientUnits="userSpaceOnUse"><stop offset="0.07" stop-color="#ded7cc"/><stop offset="0.11" stop-color="#d8c7b0"/><stop offset="0.18" stop-color="#ceaf86"/><stop offset="0.24" stop-color="#c89d67"/><stop offset="0.3" stop-color="#c39355"/><stop offset="0.34" stop-color="#c28f4e"/><stop offset="0.4" stop-color="#c28f4e"/></linearGradient><linearGradient id="linear-gradient-3" x1="134.44" y1="49.64" x2="383.38" y2="49.64" xlink:href="#linear-gradient"/><linearGradient id="linear-gradient-4" x1="141.32" y1="38.45" x2="361.34" y2="38.45" xlink:href="#linear-gradient"/><linearGradient id="linear-gradient-5" x1="169.83" y1="23.16" x2="340.56" y2="23.16" xlink:href="#linear-gradient"/><linearGradient id="linear-gradient-6" x1="221.27" y1="12.96" x2="324.37" y2="12.96" xlink:href="#linear-gradient"/><linearGradient id="linear-gradient-7" x1="56.05" y1="-58.85" x2="407.57" y2="83.12" gradientTransform="translate(102.6 215.32) rotate(4.69)" gradientUnits="userSpaceOnUse"><stop offset="0.07" stop-color="#86491a"/><stop offset="0.33" stop-color="#9b642f"/><stop offset="0.66" stop-color="#b28046"/><stop offset="0.86" stop-color="#ba8a4e"/></linearGradient></defs><path class="cls-1" d="M390.66,324.19c58,38.6,141.57,99,174.83,121.61s54.78,44.65,63.27,51.19c-2.43-9.79,11-26.94-26.78-58.63-21.32-17.9-60.79-44.78-93-66.72s-56.83-39.23-81.48-56.52C427.81,323.64,390.36,315.66,390.66,324.19Z"/><path class="cls-2" d="M245.41,454.52c2.51.07,8.34-.39,13.44,1.31s9.46,5.55,11.36,9.41,1.33,7.73.75,11.6c-2.77-4.57-5.55-9.14-10.7-11.27s-12.67-1.81-20.19-1.49a87.1,87.1,0,0,0,3.32-8.75C243.73,453.82,242.91,454.44,245.41,454.52Z"/><path class="cls-2" d="M294.69,429c3.83,0,7.67,0,11.26,1.35a19.26,19.26,0,0,1,9,7.58c2.07,3.34,2.86,7.19,3.65,11.05-1.9-3.31-3.8-6.62-7.69-8.59s-9.74-2.64-13.85-2.93-6.45-.23-6.55-1.58S292.55,431.73,294.69,429Z"/><path class="cls-2" d="M138.46,449.23c-4.67-1.7-9.34-3.4-13.69-1.55s-8.36,7.28-10.32,11.12a14.27,14.27,0,0,0-1.73,8.38c2.75-2.93,5.5-5.85,9.14-7.35s8.15-1.54,12.67-1.6Z"/><path class="cls-2" d="M207,438.51c-5.15,2.05-10.3,4.09-16.73,4.16s-14.16-1.84-20-2.81-9.86-1-12.79.25a10.25,10.25,0,0,0-5.63,6.33c-.83,2.55-.61,5.12-.4,7.69l28.42-.73,18.55-6.53Z"/><path class="cls-3" d="M268.52,382.75c-2.22,3.6-1.66,38.79-.94,40.62s-3.83,1.78,1.16,1.38,11.32-1.24,16-1.6,7.81-.23,10.27,1.37a9,9,0,0,1,4,8.06,11.13,11.13,0,0,1-5.64,8.48c-3,1.48-6.54.81-9.82-.7s-6.29-3.83-11.27-4.52-12,.27-18.9-.42-13.8-3.05-20.67-5.4l-19,3.93c-2.93-.07-5.86-.14-7.42-1.16s-1.73-3,1.41-5,9.62-4,14.3-5.07a34.06,34.06,0,0,1,12-.69c4.46.41,10.48,1.28,16.5,2.16,2.24-3,9.93-37.42,12.18-40.39Z"/><path class="cls-4" d="M296,380.28a178,178,0,0,1-3.33,18.33c-1.42,5.38-3.31,9.65-5.8,12.51s-5.59,4.31-10.25,5.63-10.9,2.51-20,6.37a233.08,233.08,0,0,0-28.88,15.17c-7.72,4.82-11.12,7.94-12.22,9.85s.13,2.61,5.2,2.56,14-.85,19.69-.68,8.15,1.3,9.17,4.45.59,8.31-3.43,10.66-11.65,1.9-20.28.13-18.25-4.86-25.61-6.53-12.44-1.92-17.64-1.36-19.08-1.74-23.4-2.6-14.18,1.34-17.74,2.12-6.54,3-8.8,3.53-3.78-.61-3.55-3.48a12.58,12.58,0,0,1,7.33-9.88c5.09-2.39,13.28-2.57,21.35-2.33s16,.89,22.15.37,10.45-2.21,21.81-7.28,29.76-13.53,41-19.38,15.22-9.1,16.42-14.36-.41-12.56-2-19.84Z"/><path class="cls-5" d="M386.15,321.89c50.92,33.3,149.44,102.57,181.94,125.76s46.59,36.27,60.67,49.34c.59-7.1,1.17-14.21-.84-20.84S621.3,463.34,587.36,440s-114.76-78.87-178-119.32C411.61,328.05,383.86,314.55,386.15,321.89Z"/><path class="cls-6" d="M47.27,50.07a34.93,34.93,0,0,1,7.67-14.62c3.93-4.27,9.49-7.73,19.69-11.67s25-8.33,37.43-9.87,22.33-.21,34.52,6.92,26.63,20.07,36.48,30.75,15.12,19.13,19,27.71,6.41,17.3,8.67,23S215,110.75,227,118.8s34.09,21.45,58.1,38.15,50,36.72,77.55,64.78,56.81,64.19,69.63,88.68-38.82.22-42.4,13.07c26.55,17.49,101.16,72.1,127.71,89.58-9.19-1.11-18.37-2.21-35.15-3.76s-41.13-3.56-60.13-8.69S389.71,387.2,375,383.78s-30.49-2-46.39-.14-31.94,4.1-44.31,5.47-21.1,1.85-33.05-2-27.11-12.1-50.8-30.48-55.94-46.91-77.08-68.4S92.17,252.26,85,237.45s-11.34-30-13.67-48.3-2.78-39.83-5.2-54.93-6.82-23.81-10.74-34.09S48.05,78,46.63,69.35,45.82,55.31,47.27,50.07Z"/><path class="cls-7" d="M161,87.33a48.51,48.51,0,0,1,2.11,18.86c-.56,6.56-2.54,12.57-6.07,16.92a23.82,23.82,0,0,1-13.87,8.1,29.31,29.31,0,0,1-14.9-1,23.36,23.36,0,0,1-10.07-7,117.17,117.17,0,0,1-8.62-11.44c7.72-2.86,15.45-5.72,21.83-10.28s11.41-10.84,14.9-15.47,5.43-7.62,7.78-7.45S159.18,82.11,161,87.33Z"/><path class="cls-8" d="M128.07,69.77a39.72,39.72,0,0,1,17.46-1.85c6.66.8,14.37,3.39,19.51,8.63s7.74,13.11,8.63,19.48a37.66,37.66,0,0,1-.89,15c-.94,3.71-2,6.27-1.39,7.55s2.92,1.3,7.14.16a63.71,63.71,0,0,0,15.89-6.84c5.52-3.4,10.39-7.88,15.27-12.37A135.73,135.73,0,0,0,203.88,81a105.13,105.13,0,0,0-13.35-23.69,149.34,149.34,0,0,0-23.46-24.11c-8.85-7.36-18.21-13.71-26.57-17.33s-15.75-4.53-24.82-3.76-19.82,3.2-28.79,5.81A132.83,132.83,0,0,0,65.28,26C59.8,28.7,56,31.37,53.21,34.29a21.05,21.05,0,0,0-5.38,9.16,27.22,27.22,0,0,0-.33,9c1.75,12.4,3.5,24.81,7.2,35.5s9.35,19.68,13.24,22.59,6-.23,8.38-5.85S81.26,91,87.47,85.79s16.07-7.43,23.37-9.73S122.89,71.43,128.07,69.77Z"/><path class="cls-5" d="M206.89,263.05C274.64,291.18,342.4,319.3,382,340.39s51,35.12,62.43,49.16c7.44-1,38.11-.49,39.06-3s-58.4-35.95-63.94-39.94c20.86,11.78,72.44,50,93.29,61.79-19.28-24-32.4-45.73-51.68-69.76-32.76-17.26-71.8-35.41-113.13-47.86S256.79,270.69,206.89,263.05Z"/><path class="cls-9" d="M234.3,263.57c22.87,10.82,45.74,21.64,71.14,31.81a740.24,740.24,0,0,0,81.43,27.29c28.12,7.59,56.44,13.23,71.56,15.67s17.07,1.65,18.22.13,1.5-3.8-5.48-8.23-21.3-11.05-52.91-19.73-80.49-19.44-113.73-32.95-50.8-29.77-68.37-46Z"/><path class="cls-10" d="M242,244.28c23.75,14.72,47.49,29.44,85,43s88.65,25.92,112.15,30.58,19.33,1.58,10.5-4.42-22.32-14.95-53-29.3S318.1,250,270.25,230.24Z"/><path class="cls-11" d="M271.58,232.65c29.69,15,59.37,29.91,84.9,41.63s46.88,20.19,60.11,24.52,18.32,4.48,20,3.73.08-2.42-13.27-12.17-38.39-27.55-58-40.79S331.41,227.68,317.15,219Z"/><path class="cls-12" d="M323.72,226.2C350.49,243,377.27,259.72,393.3,270s21.33,14.07,24.56,15.91,4.4,1.72,4.39.13-1.21-4.68-11-15.71-28.22-30-41.45-40.56-21.27-12.63-29.31-14.71Z"/><path class="cls-13" d="M267.19,278.33l4.19-2.33s118.82,55.38,189.07,57.55l13.81-.24s6.42,4.34-.49,6c0,0-16.78.38-82.13-16C391.64,323.28,327.85,308.08,267.19,278.33Z"/><path class="cls-13" d="M261.19,241.34s40.39,46.53,179.16,71.92l10.34,1.41s5.63,3.89,5.58,4.53c0,0,2.39,2.7-28.75-4.08,0,0-84.92-16.32-156-53.17l-20.35-18Z"/><path class="cls-13" d="M434.56,299.81s-71.95-18.5-110.86-48.17l.28,6.58s67.2,32.82,89.38,39.49C413.36,297.71,444.56,306.41,434.56,299.81Z"/><path class="cls-13" d="M419.73,286.85,339.94,236l6-4.59L422.08,285S424,288.57,419.73,286.85Z"/><path class="cls-14" d="M58,49.2c3.11-2.34,5.06-6.73,11.11-8.14s16.2.16,24.14.22a56.44,56.44,0,0,1,21,4.48,34.35,34.35,0,0,1,12.35,8.35c3.12,3.31,5.69,7.27,6.18,11.1s-1.08,7.54-4.25,11.36a30.4,30.4,0,0,1-13.91,9.68c-6,1.89-13.21,1.72-18.24,3.31S88.5,94.5,87.26,99.8s-.9,12.57,1.28,19.22,6.19,12.69,7.75,20.74.64,18.1-1.56,26.78-5.7,16-9.6,20.89-8.22,7.47-12.54,10a165.74,165.74,0,0,1-3.78-20.76c-1.16-9.64-2.17-23.34-3.25-33.23s-2.25-15.93-4.31-22.66-5-14.13-7.28-20S50.22,90.42,49.05,86.3a37.29,37.29,0,0,1-1.82-12.41,43.28,43.28,0,0,1,3.29-14.08C52.37,55.34,54.86,51.54,58,49.2Z"/><path class="cls-15" d="M17.53,69.39a116.55,116.55,0,0,0,11.7,6.71,94.94,94.94,0,0,0,17.9,7.34,66.87,66.87,0,0,0,19.34,2.44c5.81-.21,10.43-1.45,13.21-3.18s3.73-4,4.68-6.17c-7-3.47-14.08-7-21.66-9a79.53,79.53,0,0,0-23.4-2.29A175.23,175.23,0,0,0,17.15,68C16.4,68,15.65,68.05,17.53,69.39Z"/><path class="cls-16" d="M212.51,106.1c-1.38,4.26-2.77,8.53-8.64,13s-16.22,9.29-25.31,16.34-16.93,16.36-20.13,26.24-1.74,20.29,2.33,26.67,10.78,8.72,11.21,9.22-5.43-.82-11.28-2.16c-1.72,1.31-3.45,2.62-3.32,4.63s2.13,4.73,5.31,6.91,7.57,3.81,11.95,5.45c-3.13-.26-6.26-.52-7.25.13s.16,2.18,2.2,3.24a32,32,0,0,0,7.91,2.23c-3.48.9-7,1.81-8.66,4.35s-1.62,6.73.73,10.24,7,6.36,11.32,8a45.11,45.11,0,0,0,12.46,2.26c-2.77.46-5.53.91-5.68,1.75s2.3,2.06,4.84,2.78a40,40,0,0,0,7.78,1.15c-2.1,3.75-4.19,7.49,1.31,11.52s18.61,8.34,29.26,11.9,18.85,6.35,25.48,7,11.7-.91,14.57-3.19,3.54-5.29,2.13-9.87-4.91-10.75-7.45-15-4.15-6.6-5.74-8.94c10.3,7.32,20.6,14.63,31,19.27s20.75,6.6,27.38,6.72,9.5-1.6,10.17-3.59-.84-4.25-2.36-6.5c3.35,1.72,6.7,3.45,9.42,3a6,6,0,0,0,4.75-6c-.07-2.86-2.29-5.93-4.5-9,4.51,3.18,9,6.36,13.15,6.79s7.91-1.91,8-4.46-3.52-5.31-7.13-8.08c5,2.71,9.94,5.42,13.22,5.47s4.85-2.54,4.44-5.34-2.8-5.81-5.2-8.81c4.77,1.62,9.55,3.24,12.13,3.33s3-1.37-9.66-13.42-38.39-34.67-58.3-51-34-26.2-47.83-34.9-27.4-16.16-35-20.85S214.17,108,212.51,106.1Z"/><path class="cls-17" d="M86.27,54c-3.54,7-.47,15.65,6.85,19.41s16.12,1.16,19.65-5.8.48-15.65-6.84-19.4S89.81,47,86.27,54Z"/><path class="cls-18" d="M89.43,55.63c-2.76,5.45-.36,12.25,5.37,15.19s12.61.91,15.38-4.54.37-12.25-5.36-15.19S92.2,50.18,89.43,55.63Z"/><path class="cls-19" d="M89.51,53.25a5.25,5.25,0,1,0,7.2-2.61A5.46,5.46,0,0,0,89.51,53.25Z"/><path class="cls-20" d="M64.44,42.19c-8.46,2.38-16.91,4.75-24.59,8A118.18,118.18,0,0,0,20.62,60.87c-4.64,3.15-7,5.25-7.37,6.29s1.37,1,3.9.83a95.59,95.59,0,0,1,12.49-.25,229,229,0,0,1,26.19,2.61c9.66,1.56,19.1,3.87,28.53,6.18a20.88,20.88,0,0,0-6.68-9.45c-4.41-3.81-12.11-8.61-14.86-12.93S62.25,46,64.44,42.19Z"/><path class="cls-21" d="M185.81,215.65a123.74,123.74,0,0,0,20.87,12.69,264.74,264.74,0,0,0,33.17,13.43c9.17,2.86,13.65,3,14.07.27s-3.22-8.42-1.94-8,7.49,6.82,15.38,13.56,17.45,13.78,26.7,17.59a50.18,50.18,0,0,0,24.08,3.68c5.9-.71,8.78-2.69,8.84-4.76s-2.71-4.24-9.21-8.11-16.75-9.46-27-15.05L310.2,262.5l-11.07-6.27c-4.25-2.41-9.36-5.31-11.7-6.14s-1.92.41-1.46,1.52,1,2.09-3.77-1.48-14.69-11.7-25-18.68-20.95-12.79-31.6-18.61c2.38,4.75,4.75,9.49,7.2,13.52s5,7.35,3.53,6.38-6.81-6.23-13.92-11.6-16-10.86-24.81-16.35c1,2.65,1.9,5.3,3,8.17a51.55,51.55,0,0,1,2.17,6.12c-.13.18-1.61-2.55-3.36-4.14s-3.75-2-4.72-1.5-.92,2-1.85.83-2.85-5.09-5.71-6.61-6.65-.65-10.44.22A100.87,100.87,0,0,0,185.81,215.65Z"/><path class="cls-13" d="M191.91,134.73A90.05,90.05,0,0,1,214.1,140c8.63,3.19,17.5,7.94,21,13.54s1.6,12.06-2.27,14-9.73-.56-15.37-5.31-11.06-11.74-16.8-16.51-11.8-7.3-17.86-9.84C184.76,135.1,186.74,134.3,191.91,134.73Z"/><path class="cls-13" d="M242.54,164.53a66.3,66.3,0,0,1,20.52,7.27c8.38,4.54,17.22,11.46,20.91,18s2.24,12.58-1.2,14.17-8.85-1.3-15.59-8-14.8-17.26-20-22.9-7.52-6.37-9.84-7.11C237.84,164.93,238.33,164,242.54,164.53Z"/><path class="cls-13" d="M284.46,207c9.33,2.56,18.65,5.12,26.2,9.06s13.33,9.27,14.46,13.68-2.36,7.91-5.34,7.07-5.43-6-9.54-11.06a72.59,72.59,0,0,0-14.46-13.06A49.21,49.21,0,0,0,284.46,207Z"/><path class="cls-13" d="M232.33,134.77a75.53,75.53,0,0,1,18.55,4.4c7.21,2.67,14.64,6.64,17.56,11.33s1.33,10.08-1.91,11.72-8.13-.47-12.85-4.44S244.43,148,239.63,144s-9.86-6.11-14.93-8.24C226.35,135.08,228,134.42,232.33,134.77Z"/><path class="cls-13" d="M275.79,162.76A66.24,66.24,0,0,1,296.32,170c8.38,4.53,17.21,11.46,20.9,18s2.24,12.58-1.2,14.17-8.85-1.3-15.59-8-14.79-17.26-20-22.9-7.51-6.37-9.84-7.11C271.09,163.16,271.58,162.18,275.79,162.76Z"/><path class="cls-13" d="M317.72,205.21c9.32,2.56,18.64,5.12,26.19,9.07s13.33,9.26,14.47,13.67S356,235.86,353,235s-5.43-6-9.54-11.06A72.66,72.66,0,0,0,329,210.9,49.17,49.17,0,0,0,317.72,205.21Z"/><path class="cls-13" d="M181.5,157.86A66.3,66.3,0,0,1,202,165.13c8.38,4.54,17.22,11.46,20.91,18s2.23,12.58-1.2,14.17-8.85-1.3-15.59-8-14.8-17.26-20-22.9-7.52-6.37-9.84-7.11C176.8,158.26,177.29,157.28,181.5,157.86Z"/><path class="cls-13" d="M230.92,193.56c9.33,2.57,18.65,5.13,26.2,9.07s13.33,9.26,14.46,13.67-2.36,7.92-5.34,7.08-5.43-6-9.54-11.06a72.59,72.59,0,0,0-14.46-13.06A49.11,49.11,0,0,0,230.92,193.56Z"/><path class="cls-22" d="M119.38,146.29a20.63,20.63,0,0,1,22.09,11.42c4.79,9.8,4.25,26.38,5,44.36s2.86,37.36,13.77,53,30.64,27.65,51.48,35.08,42.82,10.33,59.5,23.83,28.08,37.59,24.84,51.06-21.11,16.32-43,9.68S205.33,352,180.58,332.51s-48.33-42.43-63.44-64.18S95.4,226,94.56,208s4.1-33.38,8.72-44S112.18,147.68,119.38,146.29Z"/><path class="cls-23" d="M172.56,119.39s17.59.21,37.13-19.9c0,0-9.31-33.87-19.31-41.54L173.67,96s1.46,9.82-1.49,17.17C172.18,113.2,169.88,119.36,172.56,119.39Z"/><path class="cls-24" d="M47.31,47.36S44.72,33.81,69.5,24c0,0,27.62-9.9,38.81-11,0,0,24.61-8.81,54.81,17L184,49.3,160.77,31s-23.63-19.34-51.43-15.4C109.34,15.58,57.12,22.71,47.31,47.36Z"/><path class="cls-25" d="M212.65,107.4s6.73,6.11,22.5,14.76c0,0,52.7,30.54,73.56,50.76l48.88,41.87s15.86,15.36,16.77,17.49c0,0,4.75,4.05-5.41,1,0,0-72-76.7-160.5-118.6C208.45,114.65,210.7,113.73,212.65,107.4Z"/></svg>