<svg id="Layer_1" data-name="Layer 1" xmlns="http://www.w3.org/2000/svg" viewBox="0 0 95.82 128.83"><defs><style>.cls-1{fill:#ff9f57;stroke:#5e3b2c;}.cls-1,.cls-5,.cls-6{stroke-miterlimit:10;}.cls-2{fill:#aa633c;}.cls-3{fill:#9b723d;}.cls-4{fill:#6b3430;}.cls-5{fill:#e55757;stroke:#763317;}.cls-6{fill:#461211;stroke:#37180c;}</style></defs><path class="cls-1" d="M52,111.35s-14.13,4-24.48-4a35.72,35.72,0,0,0-8.86-31.86C4.85,60.63,2.27,57,7.26,38.63c2.29-8.45,5.58-10.5,5.56-17.07,0-9.45,10.77-20,23.48-12s19-1.59,19-1.59,9.09-11,21.36,0c5.29,4.77,4.32,14.21,6.62,22C84.72,34.9,95,43.16,89,61.51,84.92,73.87,72.82,78.77,67.45,83.93,62.92,88.28,56.56,93.23,52,111.35Z"/><path class="cls-2" d="M64.71,86.12S46.25,95.21,24.05,82c0,0,1.33,6.86,16.53,9.18,7.28,1.11,14.57.73,18.81-1A15.27,15.27,0,0,0,64.71,86.12Z"/><path class="cls-3" d="M57.57,72.54a19.32,19.32,0,0,1-18.79-.88A27.21,27.21,0,0,0,57.57,72.54Z"/><ellipse class="cls-4" cx="40.2" cy="44.2" rx="0.74" ry="2.9" transform="translate(-18.18 56.92) rotate(-60)"/><ellipse class="cls-4" cx="59.13" cy="43.41" rx="2.63" ry="0.74" transform="translate(-10.93 65.13) rotate(-53.5)"/><path class="cls-5" d="M49.11,112.35a18.13,18.13,0,0,1,8.46-5c4.88-1.06,9.35,2.47,9.35,9.76,0,4.36-6.24,9.54-10.12,9s-10.94-6.49-10.94-6.49Z"/><path class="cls-5" d="M37.1,109.64a18.13,18.13,0,0,0-8.45-5c-4.89-1.06-9.36,2.47-9.36,9.77,0,4.35,6.24,9.53,10.12,8.94s11-6.49,11-6.49Z"/><circle class="cls-6" cx="42.39" cy="116.05" r="7.68"/></svg>