<svg id="Layer_1" data-name="Layer 1" xmlns="http://www.w3.org/2000/svg" viewBox="0 0 98.43 147.14"><defs><style>.cls-1{fill:#ff9f57;stroke:#5e3b2c;stroke-miterlimit:10;}.cls-2{fill:#e6eb99;}.cls-3{fill:#c8af6e;}</style></defs><path class="cls-1" d="M35.35,10.59s1.79,21.26-9.22,40-25.36,43-13.07,64.8,39.19,31.24,74.27,24.58c0,0,2-1,0-8.7s-4.46-16.76-17.77-26.4c-12.7-9.2-10.91-66.83-13-76.56S46.23,3.29,35.35,10.59Z"/><circle class="cls-2" cx="67.21" cy="123.45" r="5.64"/><circle class="cls-2" cx="54.38" cy="126.27" r="3.5"/><circle class="cls-2" cx="25.7" cy="108.17" r="5.68"/><ellipse class="cls-2" cx="54.38" cy="90.41" rx="3.5" ry="5.68"/><circle class="cls-2" cx="48.54" cy="65.19" r="4.74"/><path class="cls-3" d="M59,23.05S56.6.36,39.51,3.42C22.15,6.53,26.05,28.87,32.75,31.08c0,0-9.49-16,3.49-24C48.29-.34,55.77,15.91,59,23.05Z"/><path class="cls-3" d="M34.92,19s-1.06-8.53,6.66-9.43,12.8,10.69,12.8,10.69S52.82,8.38,42.6,7.86C30.91,7.26,32.53,17.93,34.92,19Z"/></svg>