<svg id="Layer_1" data-name="Layer 1" xmlns="http://www.w3.org/2000/svg" viewBox="0 0 95.36 55.79"><defs><style>.cls-1{fill:#c8af6e;}.cls-2{fill:#ff9f57;stroke:#5e3b2c;stroke-miterlimit:10;}.cls-3{fill:#e6eb9c;}</style></defs><path class="cls-1" d="M89,18.89s7.58,3.4,3.82,13c-4.44,11.26-16.26,5.6-16.39.82,0,0,8.88,8.19,14.15-.36C94.58,25.77,90.16,20.74,89,18.89Z"/><path class="cls-2" d="M89.41,28.34s-2.87,10-11,6.91-21.37,4.09-28.33,8S14.76,64.73,3,44.31c0,0,7.64-3,12.11-20C18.91,9.64,39.27,2.12,50,8.32c10.23,5.92,27.52,10.25,36.06,11.46C91.65,20.57,89.41,28.34,89.41,28.34Z"/><circle class="cls-3" cx="16.98" cy="35.98" r="2.9"/><circle class="cls-3" cx="28" cy="27.45" r="3.59"/><ellipse class="cls-3" cx="44.49" cy="24.77" rx="2.69" ry="2.29" transform="translate(-2.08 4.17) rotate(-5.25)"/><ellipse class="cls-3" cx="38.65" cy="37.95" rx="2.69" ry="1.87" transform="translate(-13.3 22.62) rotate(-28.03)"/><ellipse class="cls-3" cx="22.76" cy="45.39" rx="1.68" ry="1.51" transform="translate(-18.66 16.02) rotate(-28.03)"/><circle class="cls-3" cx="29.71" cy="16.67" r="2.69"/></svg>