<svg id="Layer_1" data-name="Layer 1" xmlns="http://www.w3.org/2000/svg" viewBox="0 0 372.45 454.67"><defs><style>.cls-1{fill:#603b35;stroke:#251e10;}.cls-1,.cls-10,.cls-2,.cls-22,.cls-24,.cls-27,.cls-29,.cls-3,.cls-30,.cls-4,.cls-5,.cls-6,.cls-7,.cls-8{stroke-miterlimit:10;}.cls-2,.cls-27{fill:none;}.cls-2,.cls-3,.cls-4,.cls-5,.cls-6{stroke:#63452f;}.cls-3,.cls-5{fill:#a77b70;}.cls-4,.cls-6{fill:#8e615a;}.cls-5,.cls-6{stroke-width:0.75px;}.cls-7{fill:#e0c978;stroke:#503f17;}.cls-8{fill:#ff9f57;stroke:#5e3b2c;}.cls-9{fill:#e6eb98;}.cls-10{fill:#7c574f;stroke:#2d1111;}.cls-11{fill:#d7e384;}.cls-12{fill:#ffe265;}.cls-13{fill:#c8af6e;}.cls-14{fill:#e6eb99;}.cls-15,.cls-30{fill:#461211;}.cls-16{fill:#aa633c;}.cls-17,.cls-22{fill:#fff;}.cls-18,.cls-29{fill:#e55757;}.cls-19{fill:#9b593d;}.cls-20{fill:#9b723d;}.cls-21{fill:#9b633d;}.cls-22{stroke:#704634;}.cls-23{fill:#051930;}.cls-24{fill:#c67f4f;stroke:#5e392c;stroke-width:0.3px;}.cls-25{fill:#e5ad88;}.cls-26{fill:#6b3430;}.cls-27{stroke:#813d1c;stroke-width:4px;}.cls-28{fill:#813d1c;}.cls-29{stroke:#763317;}.cls-30{stroke:#37180c;}.cls-31{fill:#e6eb9c;}</style></defs><path class="cls-1" d="M237.7,131.79s6.77-3.5,42.81,17.46,45,43.61,45,43.61,13.56,12.33,9.72,35.41c0,0,8.65,9.51,10.58,17.42s1,24.75-1.18,29.64-9.8,14.26-9.8,14.26,2.41,13.2.91,22.2-9.5,21.72-9.5,21.72a106.48,106.48,0,0,0-10.37,6.85s-7.52,11.62-18.21,17.39-76.85-50-72.82-83.54S237.7,131.79,237.7,131.79Z"/><path class="cls-2" d="M296.57,194.05s2.84,22.89,21.41,29.07c12.83,4.27,17.81-5.88,17.81-5.88"/><path class="cls-2" d="M266.34,148.17S266.29,161,288,172c17.05,8.62,14.73-7.12,14.73-7.12"/><path class="cls-3" d="M321.57,187s-7.85-8.46-14.65-4.78-5.11,11.62-.74,22.49,17.14,16.43,23.43,8.76S325.94,191.1,321.57,187Z"/><path class="cls-4" d="M320,191.52s-4.51-5.37-8.07-3.35-2.39,6.88.31,13.61,9.78,10.5,12.94,6.05S322.5,194.13,320,191.52Z"/><path class="cls-5" d="M250.2,134.46s-6.06-1.72-7,.9,2.83,5.28,8.64,8.54,12.43,3,11.57-1S253.32,135.18,250.2,134.46Z"/><path class="cls-6" d="M251.44,136.43s-3.69-1.19-4.12.22,1.89,3,5.49,5,7.54,2.13,6.87-.11S253.33,137,251.44,136.43Z"/><path class="cls-3" d="M338.7,241.93s-3.81-10.62-10-9.48-7,9.18-6.54,20.88,8.87,21.29,15.77,16.22S341,247.24,338.7,241.93Z"/><path class="cls-4" d="M336.31,245.62s-2.06-6.58-5.34-5.9-3.67,5.65-3.37,12.9,4.76,13.2,8.38,10.09S337.54,248.92,336.31,245.62Z"/><path class="cls-3" d="M281.18,150.5s-6.73-3.24-8.72-.06,1.6,7.19,7.5,12.34,14,6,14.34.7S284.7,152,281.18,150.5Z"/><path class="cls-4" d="M282,153.21s-4.05-2.14-5.05-.43,1.25,4.15,4.9,7.34,8.38,4,8.34,1S284.11,154.19,282,153.21Z"/><path class="cls-3" d="M334.77,301.72s-10-.92-14.56,12.06A62.19,62.19,0,0,0,317,338.43s6.94-3,9.25-4.92,9.26-15.86,9.63-22.53S334.77,301.72,334.77,301.72Z"/><path class="cls-4" d="M331.73,306.86s-11,3.92-10.18,23.08C322,341.29,338.06,306.69,331.73,306.86Z"/><path class="cls-2" d="M321.42,288.1s7.57-1.8,12.86,1.69"/><path class="cls-2" d="M335.29,227.79s-9.58,4.52-20.06,2.73"/><path class="cls-2" d="M321.22,231.51s-5.65,8.37-2.69,25.44,13.37,23.5,25.34,19.84"/><path class="cls-2" d="M335.39,295.83s-9.3-1.22-15.88,10.65-6.89,36.17-6.56,37.8"/><path class="cls-2" d="M270.29,143.52s-4.79,14.26-25.9-1.05"/><path class="cls-7" d="M174.71,226.82s3.61-69.55,32.76-86.39,62.86,22.9,76.08,43.76c10.07,15.9,60,96.84,16.33,167.61-27,43.76-83.12,6.21-94.07-6.9C199.24,337,174.06,303.92,174.71,226.82Z"/><path class="cls-8" d="M197.25,317.76s-10.06,8-6.92,27.78,23.83,42.76,5.36,71.17-28.14,31-33.55,30.12-9-5.45-4.92-22.06-11-18.1-17.25-43.26-2.16-45,43.87-85.14C183.84,296.37,199.17,290.9,197.25,317.76Z"/><circle class="cls-9" cx="174" cy="422.27" r="4.38"/><circle class="cls-9" cx="189.06" cy="377.3" r="4.38"/><circle class="cls-9" cx="178.04" cy="361.15" r="2.81"/><circle class="cls-9" cx="161.41" cy="373.25" r="4.38"/><ellipse class="cls-9" cx="179.31" cy="402.98" rx="3.71" ry="4.38" transform="translate(-30.67 15.1) rotate(-4.44)"/><ellipse class="cls-9" cx="168.03" cy="401.99" rx="1.57" ry="1.85" transform="translate(-30.63 14.22) rotate(-4.44)"/><path class="cls-8" d="M194.69,186.93s-3.21,6.47-5.07,30.78c-.13,1.69-80.36-4.46-80.23-6.14,0,0-28.66-30.24-32.16-37-2.71-5.21-2.79-9.81,22.87-9.51,32.35.37,21.79,17.32,56.47,27.94C182.5,201,194.69,186.93,194.69,186.93Z"/><path class="cls-10" d="M104.48,198.79S17,74,12.08,59.06s2.84-8.38,14.17,7.12,83.32,127,83.32,127S117.42,202,104.48,198.79Z"/><path class="cls-8" d="M78.82,167.63s-1.27,8.58,17.89,7.77c7.1-.3,12.09-3.9,19-3.85s16.22,21.87-1.82,44.33-32.76-14.1-35-20.61C73.83,180.56,74.86,166.47,78.82,167.63Z"/><circle class="cls-11" cx="94.91" cy="192.03" r="3.15"/><circle class="cls-11" cx="112.73" cy="189.05" r="4.32"/><ellipse class="cls-11" cx="102.43" cy="211.53" rx="3.15" ry="2.34" transform="translate(-132.42 220.75) rotate(-66.41)"/><path class="cls-12" d="M205.11,178s-18.74,17.11-20.61,67.67c-2,55,18.69,100.51,54.35,110.24s62-20.33,65.52-37.53,2.24-117-51.4-143.23C224.09,161,205.11,178,205.11,178Z"/><path class="cls-13" d="M194.64,309.58s23.35,8.4,79.6-2.38c0,0-.23,4.78-41.09,6.67C197,315.54,194.64,309.58,194.64,309.58Z"/><path class="cls-13" d="M208.88,334.87s29,14.54,85.25-6.46c0,0-4.37,10.73-45.24,14.51C212.72,346.27,208.88,334.87,208.88,334.87Z"/><path class="cls-13" d="M187.09,223.64s34.58,11.9,100.15-10.33c0,0-4.13,10-52.22,15.63C192.46,233.89,187.09,223.64,187.09,223.64Z"/><path class="cls-13" d="M185.42,268S226,279.57,300.77,257c0,0-5.43,10.13-60.22,16C192.05,278.15,185.42,268,185.42,268Z"/><path class="cls-8" d="M275.75,310.8s3.57,21.89-6.34,42.16-22.82,46.64-8.32,68.22,43.14,29.24,79,19.51c0,0,2-1.23-.7-9s-6-17-20.55-25.93c-13.91-8.52-16.69-68.4-19.6-78.32S286.45,302.36,275.75,310.8Z"/><circle class="cls-14" cx="317.87" cy="425.23" r="5.86"/><circle class="cls-14" cx="304.8" cy="429.18" r="3.64"/><circle class="cls-14" cx="273.61" cy="412.73" r="5.9"/><ellipse class="cls-14" cx="301.91" cy="392.01" rx="3.64" ry="5.9" transform="translate(-29.46 24.56) rotate(-4.44)"/><circle class="cls-14" cx="293.83" cy="366.33" r="4.93"/><path class="cls-15" d="M106.36,70.56s-3.69.92-3.71,1.71,1.87,6.57,3.66,7.9,16.08-7.41,16.08-7.41l-2.24-4.83Z"/><path class="cls-15" d="M225.09,19.39s3.19-2.26,3.83-1.77,3.83,5.66,3.65,7.89S216,33.23,216,33.23l-2.24-4.83Z"/><path class="cls-8" d="M218.89,178.27s21.86-3.48,31-21A53.94,53.94,0,0,1,241.77,108C251.22,79,252.43,72.31,234,50.36c-8.49-10.1-14.29-10.83-18.43-19.84-6-12.95-27.41-20.5-39.77-1.57s-27,9.86-27,9.86-19.45-9.34-29.23,13.55c-4.23,9.88,3.09,22.19,4.87,34.28,1.15,7.75-7.7,25.6,12.19,46.89,13.4,14.34,33.08,13.37,43.7,17C189.27,153.64,201.11,156.37,218.89,178.27Z"/><path class="cls-16" d="M185.45,151.81s31,.74,53.05-31.41c0,0,2.53,10.23-16.8,23-9.27,6.14-19.49,10.25-26.4,10.54A23,23,0,0,1,185.45,151.81Z"/><path class="cls-15" d="M152.34,97.58s5.79,13.77,30.38,22.07c0,0,16-3,22.05-11.54s6.87-28.07,7-29.38-12.62,17-29.23,19.29C168.56,99.94,161.05,102.1,152.34,97.58Z"/><path class="cls-17" d="M152.34,97.58s15.7,6,39.91-6.76c0,0,16.07-8.62,19.62-13.4,0,0-.27,7.32-1,9.48s-12.17,11.22-27.74,16.48c-11.38,3.84-17.26,3.53-24,2C156.21,104.74,152.34,97.58,152.34,97.58Z"/><path class="cls-18" d="M178,117.89s12.07-12.36,26.77-9.78c0,0-.53,4.72-12,9.65C182.54,122.19,178,117.89,178,117.89Z"/><path class="cls-19" d="M150.62,96.61s8.21,8.5,33.77-1.66c26.68-10.6,27.91-18.71,27.91-18.71s-9.16,10.7-27.43,17.22C170.18,98.7,164.1,100.15,150.62,96.61Z"/><path class="cls-19" d="M207.65,75.59a15.8,15.8,0,0,1,9.42,3.56C219.58,81.07,213.77,72,207.65,75.59Z"/><path class="cls-19" d="M152.79,92.43a15.92,15.92,0,0,0-2.52,10.41S147.37,96.26,152.79,92.43Z"/><path class="cls-19" d="M152.34,97.58s17.34,19.26,27.93,21.06c0,0,6.73,1.77,15-2.69,6.83-3.68,11.82-9.38,13.49-17.13s3.09-21.4,3.09-21.4l.43-1.18s.76,17.62-3.48,28a27.31,27.31,0,0,1-13.18,14.47c-4,1.81-7.6,3.38-16.25,1.51S152.7,103,150.62,96.61Z"/><path class="cls-20" d="M186.62,128.7a29.12,29.12,0,0,0,25.15-13.12S202.28,127,186.62,128.7Z"/><path class="cls-21" d="M137.76,86s-16.54-7.08-14.29-26.44C125.38,43,146.92,39,156,53.53c8.75,14,6.46,25.33-3.41,31.05C144.17,89.46,137.76,86,137.76,86Z"/><ellipse class="cls-22" cx="142.58" cy="66.79" rx="14.29" ry="17.51" transform="matrix(0.91, -0.42, 0.42, 0.91, -14.87, 66.14)"/><ellipse class="cls-23" cx="140.65" cy="73.54" rx="8.56" ry="9.56" transform="translate(-17.88 65.95) rotate(-24.86)"/><circle class="cls-17" cx="141.54" cy="68.02" r="2.45"/><path class="cls-21" d="M192.78,64.94s-16.53-7.08-14.29-26.44c1.92-16.56,23.45-20.51,32.53-6,8.74,14,6.45,25.32-3.42,31C199.19,68.43,192.78,64.94,192.78,64.94Z"/><ellipse class="cls-22" cx="197.6" cy="45.76" rx="14.29" ry="17.51" transform="translate(-0.93 87.32) rotate(-24.86)"/><ellipse class="cls-23" cx="195.6" cy="51.93" rx="8.22" ry="9.17" transform="translate(-3.7 87.06) rotate(-24.86)"/><circle class="cls-17" cx="197.65" cy="46.6" r="2.84"/><path class="cls-24" d="M136.83,92s31.37-39.51,79-31.89l6.69,1.84L145,93.94Z"/><path class="cls-25" d="M136.83,92S153.25,72.1,175.93,64s39.88-4,39.88-4a86,86,0,0,0-42.25,6.72C154.42,75.05,146.05,82.75,136.83,92Z"/><ellipse class="cls-26" cx="194.12" cy="76.45" rx="4.37" ry="1.11" transform="translate(19.88 191.2) rotate(-54.86)"/><ellipse class="cls-26" cx="159.83" cy="87.58" rx="1.11" ry="3.97" transform="translate(6.36 185.88) rotate(-61.36)"/><circle class="cls-27" cx="200.93" cy="37.18" r="27.97"/><circle class="cls-27" cx="134.86" cy="62.72" r="27.97"/><polygon class="cls-28" points="171.95 44.36 162.25 48.76 164.74 55.82 175.37 50.89 171.95 44.36"/><path class="cls-29" d="M218.51,167.08s-7-3.93-14.49-3.11-12.21,8-8.71,18.45c2.08,6.24,13.48,10.66,18.76,8s12.55-14.53,12.55-14.53Z"/><path class="cls-29" d="M234.39,157.46s3.23-7.35,9.71-11.2,14.57-.95,18.06,9.49c2.08,6.24-4.37,16.63-10.2,17.64s-18.77-4-18.77-4Z"/><circle class="cls-30" cx="229.9" cy="169.17" r="11.58"/><path class="cls-13" d="M300.51,321s-2.48-23.59-20.25-20.41c-18.06,3.23-14,26.46-7,28.76,0,0-9.86-16.6,3.64-24.94C289.39,296.68,297.16,313.58,300.51,321Z"/><path class="cls-13" d="M275.48,316.74s-1.1-8.86,6.92-9.79,13.32,11.11,13.32,11.11-1.63-12.31-12.25-12.86C271.31,304.58,273,315.68,275.48,316.74Z"/><path class="cls-8" d="M275,187.34s10.45-10,36.17-16c30-7.1,75.14,19.05,34.67,61.08s-32.05,46.81-32.05,46.81-34.07-23.79-9.89-60.67c0,0,28.09-25.51-16.89-2.57C287,216,274,219.3,275,187.34Z"/><path class="cls-8" d="M346.61,194.74s-19-.43-39.41,21.29"/><ellipse class="cls-31" cx="349.18" cy="204.94" rx="7.63" ry="3.73" transform="translate(-55.31 187.11) rotate(-27.89)"/><ellipse class="cls-31" cx="347.22" cy="221.36" rx="4.46" ry="4.07" transform="translate(-63.21 188.1) rotate(-27.89)"/><ellipse class="cls-31" cx="321.39" cy="235.38" rx="4.46" ry="4.07" transform="translate(-72.77 177.65) rotate(-27.89)"/><ellipse class="cls-31" cx="323.89" cy="213.55" rx="7.63" ry="3.73" transform="translate(-62.27 176.28) rotate(-27.89)"/><path class="cls-13" d="M276.94,182.12s-11.4,3-9.41,23.24c2.34,23.81,20.21,18.41,22,9.23,0,0-14.72,11.68-19.07-7.3C267.09,192.78,274.74,185.13,276.94,182.12Z"/></svg>