<svg id="Layer_1" data-name="Layer 1" xmlns="http://www.w3.org/2000/svg" viewBox="0 0 726.99 955.93"><defs><style>.cls-1,.cls-45{fill:#3e2c13;}.cls-1{stroke:#3e2c13;}.cls-1,.cls-11,.cls-12,.cls-13,.cls-16,.cls-17,.cls-18,.cls-2,.cls-20,.cls-22,.cls-23,.cls-24,.cls-28,.cls-29,.cls-3,.cls-30,.cls-31,.cls-32,.cls-4,.cls-41,.cls-46,.cls-5,.cls-53,.cls-6,.cls-7{stroke-miterlimit:10;}.cls-2,.cls-47{fill:#dab4aa;}.cls-11,.cls-12,.cls-13,.cls-16,.cls-17,.cls-18,.cls-2,.cls-20,.cls-28,.cls-3,.cls-32,.cls-4,.cls-5,.cls-6,.cls-7{stroke:#323232;}.cls-29,.cls-3,.cls-30{fill:none;}.cls-4{fill:#cebcb6;}.cls-5{fill:#9d9d9d;}.cls-5,.cls-53,.cls-6,.cls-7{stroke-width:0.5px;}.cls-6{fill:#7f9cbb;}.cls-7{fill:#838588;}.cls-8{fill:#601900;}.cls-9{fill:#fff;}.cls-10{fill:#b9908b;}.cls-11{fill:#dbae57;}.cls-12{fill:#587ab1;}.cls-13{fill:#7199c6;}.cls-14{fill:#1b3f72;opacity:0.76;}.cls-15{fill:#e7835b;}.cls-16{fill:#dfcdc7;}.cls-17,.cls-18{fill:#e0614f;}.cls-18{stroke-width:0.22px;}.cls-19{fill:#e8b776;}.cls-20{fill:#759ac4;}.cls-21{fill:#cbafaf;}.cls-22{fill:#767170;stroke:#3f4040;}.cls-23{fill:#375e95;stroke:#222058;}.cls-24{fill:#ae9997;stroke:#663f3f;}.cls-25{fill:#b6a09e;}.cls-26{fill:#456aab;}.cls-27{fill:#b3bfd0;}.cls-28{fill:#e0d1ce;}.cls-28,.cls-46{stroke-width:0.75px;}.cls-29{stroke:#562419;}.cls-30{stroke:#5f4a43;}.cls-31{fill:#d95c78;stroke:#8d2338;}.cls-32{fill:#fbd3c7;}.cls-33{fill:#e4a68d;}.cls-34,.cls-53{fill:#beced7;}.cls-35{fill:#ba7e70;}.cls-36{fill:#451e15;}.cls-37{fill:#dee8ee;}.cls-38{fill:#6d1616;}.cls-39{fill:#a04c43;}.cls-40{fill:#d8ccca;}.cls-41{fill:#3f1d1d;stroke:#221f1f;}.cls-42{fill:#431b15;}.cls-43{fill:#c48a74;}.cls-44{fill:#e9d960;}.cls-46{fill:#ad6327;stroke:#c87929;}.cls-48{fill:#323232;}.cls-49{fill:#bba748;}.cls-50{fill:#dd9f8f;}.cls-51{fill:#ef4b3b;}.cls-52{fill:#f59a91;}.cls-53{stroke:#1f353f;}.cls-54{fill:#f18d79;}.cls-55{fill:#c31b00;}.cls-56{fill:#ff5600;}.cls-57{fill:#fb4600;}.cls-58{fill:#c41b00;}.cls-59{fill:#832400;}.cls-60{fill:#ffb800;}.cls-61{fill:#ffe100;}.cls-62{fill:#ffca00;}</style></defs><path class="cls-1" d="M500.28,556c2.32,0,15.77,12,69.39,5.3l8.68-18.62-36-9-40.82,4Z"/><path class="cls-2" d="M411.34,635.52c-.54.7-17.49-5.48-19.39-1.66-2.26,4.55,15.59,6.12,24.07,5.75"/><path class="cls-2" d="M466,631.86l6.12-11.66s20.42,8.83,18.16,24.17S483.45,664,483.45,664c-8.7,4.16-47.79-30.68-51.89-28.81-11.7,5.34-22.58,9.23-23.56-8.22-.72-12.63,6.38-8.76,10.57-9.28,6-.73-9.87-3.69-10.78-10-.78-5.42,6.64-.18,16.34,1.48,1.07.18,1.69,1.44,2.63,2.18C437,619.4,454.2,628.7,466,631.86Z"/><path class="cls-3" d="M419.55,616.43a11.22,11.22,0,0,0-.91,7.82,33.55,33.55,0,0,0,2.9,7.5"/><path class="cls-2" d="M411.88,617.09c-.54.7-17,.81-21.08,2s8.74,4.89,17.21,4.52"/><path class="cls-2" d="M406.32,627.64c-.54.7-16.42-2.7-18.64.94-3,5,12.87,6.87,21.34,6.49"/><path class="cls-2" d="M408.82,624.66c-.54.7-20.75-4.71-23.46-1.43-2.91,3.53,13.95,6.09,22.43,5.72"/><path class="cls-4" d="M498.65,568.55s-12.93,8.79-19,22.16-12.76,31.55-11.81,32.09,15.61,7.46,15.61,7.46Z"/><path class="cls-5" d="M516.83,895.73c-1-3.18-2.37-8.41-5.75-10-.92-.41-1.75,0-2.61.45s-1.82,1-2.74,1.44c-.43.2-5.8,1.52-5.79,1.61a23.39,23.39,0,0,0-.23-2.47,5.35,5.35,0,0,0-1.19-1.94,6,6,0,0,0-7.74-1.21c-3.51,1.69-5.27,5.6-7.6,8.44-2.55,3.16-6.07,5.11-9.73,6.79-7,3.15-14,6.39-21.36,8.39a10.13,10.13,0,0,0-7.94,8.43c-.61,3.59-.84,9,2.33,11.56a10.35,10.35,0,0,0,3.33,1.57,16.36,16.36,0,0,0,3.32.94c9.51,1.89,20.08.31,29.4-1.59,1.76-.33,3.45-.72,5.15-1.13a106.85,106.85,0,0,0,13-5c3.71-1.69,7.29-3.57,10.85-5.49,2.74-1.49,5.65-3.21,7.31-5.91.08-1.19.08-2.39.06-3.59A68.74,68.74,0,0,0,516.83,895.73Z"/><path class="cls-6" d="M518.2,906.19c-.65.64-22.67,13.72-34.26,16.5a86.94,86.94,0,0,1-18.75,2.57c-6.95.11-17.26-.22-20.26-7.43-.32-.82.29-2.76.52-3.56a9.73,9.73,0,0,1,1.69-3.11c2.89-3.48,7.43-3.85,11.5-5.08,4.53-1.32,9-3.68,13.31-5.65s9.32-4.07,12.24-8c1.56-2.09,2.71-4.41,4.42-6.47C492.15,881.65,499,884.5,499,890a.31.31,0,0,0,.37.33A29.74,29.74,0,0,0,509.75,887a2.32,2.32,0,0,1,1.36.41,3.18,3.18,0,0,1,.58.58c2.53,2.12,3.28,5.21,4,8.34C516.07,897.66,518.21,905.61,518.2,906.19Z"/><path class="cls-7" d="M489,899.47a16,16,0,0,0-3.76-3.77c-1-.76-3.3-2.2-4.7-1.52-4,2-8.41,3.47-12.05,6.15a12.41,12.41,0,0,1,7.6,3,14.88,14.88,0,0,1,3.45,4c.71,1.31,1.17,3.26,3.08,3.23a3.41,3.41,0,0,0,1.25-.78C488.44,905.34,491.79,903.56,489,899.47Z"/><path class="cls-5" d="M525.42,908.61c.55-1.83,1.16-3.59,1.72-5.37,1.16-3.69,2.62-7.61,5.16-10.56,2.23-2.63,7.79-2,6.06,1.94.31.17.6.41.91.55a10.19,10.19,0,0,0,2.9,1.08c.07,0,.21,0,.37,0,2.38-2.5,6.05-3.35,9.67-3a6.68,6.68,0,0,1,4.66,2.49,11.86,11.86,0,0,1,1,1.77c2.4,4,3.59,8.46,7.15,11.76a92.6,92.6,0,0,0,14.2,10.28c4.24,2.66,7.5,4.59,8.54,9.79.72,3.7-.22,6.65-4.09,7.46a71.31,71.31,0,0,1-33.56-.89c-5.13-1.47-9.91-6.59-13.72-10.12-1-1-2-1.95-3.08-3-1.5-1.66-3-3.31-4.51-5s-3.59-3.88-3.59-6.51A25.92,25.92,0,0,1,525.42,908.61Z"/><path class="cls-6" d="M580.37,920.72c-3.71-2.41-7.45-4.64-11.11-7.18a32,32,0,0,1-7.41-6.66,18.6,18.6,0,0,1-2.33-4.31c-.37-1-.73-2.07-1.14-3a11.35,11.35,0,0,0-1.7-2.72,7.79,7.79,0,0,0-5.78-2.94c-1.88-.14-14.53-1.75-15.72-1.46a46.07,46.07,0,0,0-4.34,1.66c-.35.66-1.84,3.79-2.18,4.45-.06.12-1.73,3.34-2.18,4.44-.75,1.76,0,4.45,0,4.45,2.58,3.42,6.54,6.64,9.61,9.5a150.21,150.21,0,0,0,12.53,10.9c5.86,4.29,12.77,4.85,19.74,4.63,2.08-.05,17.39.25,18.51-3.3C586.39,925.38,583.65,922.84,580.37,920.72Z"/><path class="cls-7" d="M547.43,905.67a35.77,35.77,0,0,1,7.3-2.08c1.13-.16,5.38-.61,7.21.72,3.22,2.35,6.49,5.54,8.2,9.17-2.28-1-8.91-.62-11.41,0a13.79,13.79,0,0,0-4.33,1.73c-1.08.74-2.23,2.11-3.71,1.28a6,6,0,0,1-.65-1.13C547.19,910.14,543.54,907.75,547.43,905.67Z"/><path class="cls-8" d="M363.68,471.76h1.6a7.27,7.27,0,0,1,7.27,7.27v71.12a7.27,7.27,0,0,1-7.27,7.27h-1.6c-4,0-7.27-3.26-5.27-7.27V479C356.41,475,359.66,471.76,363.68,471.76Z"/><ellipse class="cls-9" cx="377.69" cy="513.67" rx="1.61" ry="12.2"/><path class="cls-2" d="M354,499.34s-5.31-11.68-14.69-8.46,7.52,10.47,7.34,25.89S360,529.06,360,529.06Z"/><path class="cls-2" d="M249.48,549.55,218.14,572.7l-33.2-15.28c6.53-2.68,8.57-5.84,9.26-8.16,1.94-6.54-5.23-11.87-3.23-20.44a16.27,16.27,0,0,1,3.64-6.84c6.39-7.83,21.13-9.35,37-4.71l13.91,23.17Z"/><path class="cls-10" d="M244.58,540.71c-13.35,8.12-22.8,9.52-38.41,10.14a46.38,46.38,0,0,1-11.19-.38c-.1-1.11-.26-2.85-.56-5-2.19-15.83-6.81-19.38-5.18-23.11l43.89.47,3.72-2.94Z"/><path class="cls-2" d="M372.55,529.32l-10.73,50a21.53,21.53,0,0,1-29.28,15.38L293,578.38l-13.75-5.68,19.87-30.33,12.38,4.31,24.24,8.45,7.72-16.9,5.68-12.35Z"/><path class="cls-10" d="M311.19,547.4c-.26.78-.5,1.52-.71,2.2a72.15,72.15,0,0,1-9.21,19.67,42.71,42.71,0,0,1-7.66,8.4l-13.67-5.75,18.87-28.83Z"/><path class="cls-11" d="M268.4,531.28l35.38,10.48h0A40.58,40.58,0,0,1,293.26,569l-7.17,7.9Z"/><path class="cls-2" d="M193,695.2s11.47,9.94,6.31,15.13-10.76-.85-10.76-.85-1.36,7-10.89,2.59c0,0-4.61,5.15-11.83-1.8s-11.63-24.55-11.63-24.55L145,677.27s-36.31-34.79-22-72.51l18.83-13.56,7.46-5.39,7.63-5.49,33.91,22.42-17.06,10.91-16.06,10.27-6.51,4.16,26.63,53.21.12,0,.37.06c.42.07,1.1.18,2,.35l.86.15c5.82,1.15,17.59,4,21.35,9.13C207.56,697.89,193,695.2,193,695.2Z"/><path class="cls-10" d="M174.81,612.55l-1.87.76-16.19,10.15c-9.37-8.41-12.83-20.94-14.91-31.5l7.46-5.39Z"/><path class="cls-2" d="M306.34,757.23c-.28,3.15-.76,6.73-1.47,10.8-1.22,6.87-2.63,13.58-4.18,20-11.32,47.5-29.57,82.13-29.57,82.13l-26.75,7.45,10.37-93.94L257.13,762l11.58-7.64,9-5.92S310,715.7,306.34,757.23Z"/><path class="cls-10" d="M305.53,757.23c-.27,3.15-.76,6.73-1.47,10.8-1.21,6.87-2.62,13.58-4.17,20a212.71,212.71,0,0,1-24.22,0c-5.5-.32-15.24-.93-21.74-4.36l2.4-21.71,11.58-7.65a64.92,64.92,0,0,1,16.75-1.15A73.75,73.75,0,0,1,305.53,757.23Z"/><path class="cls-2" d="M252.93,783.08Q251,789.14,249.2,795c-15.81,51.4-24.34,91.91-24.34,91.91l-20.41-4.23c-8.74-31.68-5.2-74.62-2.65-95.56.95-7.78,1.77-12.51,1.77-12.51S271.12,726.14,252.93,783.08Z"/><path class="cls-10" d="M252.05,781.2c-1.29,4-2.71,10-3.91,13.93a65.69,65.69,0,0,1-11.81.45c-8.21-.22-16.49-1.15-24.23-3.91a51.66,51.66,0,0,1-9.5-4.54c1-7.78,1.78-12.51,1.78-12.51S270.24,724.26,252.05,781.2Z"/><polygon class="cls-12" points="315.08 699.41 313.24 724.58 310.18 766.5 259.41 764.75 259.64 758.2 260.23 741.33 261.2 713.17 262.44 677.27 315.08 699.41"/><path class="cls-13" d="M258.68,760.88c7.07,1.33,40,6.94,52.28-1.18a1.31,1.31,0,0,1,2.06,1.16l-1.1,15.83a1.31,1.31,0,0,1-.9,1.16c-5.21,1.68-33.6,9.89-54.94-2.77a1.35,1.35,0,0,1-.63-1.33L257.14,762A1.3,1.3,0,0,1,258.68,760.88Z"/><path class="cls-12" d="M291,721l-26,16.78-.83,3.2-4.52,17.24-4.56,17.36-1.88.56c-17.89,5.32-55.47-5.68-55.47-5.68l4.63-35.18L207.14,699l54.06,14.19Z"/><path class="cls-14" d="M315.08,699.41l-1.84,25.17A115.9,115.9,0,0,1,264.16,741c-1.32.14-2.63.26-3.93.37-23.88,1.89-45.34-2.55-57.87-6.07L207.14,699l54.06,14.19,1.24-35.9Z"/><path class="cls-11" d="M183.69,554.82a8.4,8.4,0,0,1,8.86-.69c15.66,8.17,22,6,34.68,3.83,1.32-.22,10.45-1.88,17.18-8.7,1.31-1.33,3.84-2.42,3.07-4.2l-2-4.62c-1.23-2.87,12.8-5.71,22.9-9.16,1.17,1.89,6,11,7.15,12.9,0,0,40.58,57.19,50.37,156.34,0,0,0,17.54-39.83,27.81-18,4.65-63.35,5-88.49-4.05a6.39,6.39,0,0,1-4.24-6.12L195.49,603l-25.71,20.81-8.53-6.4c-7.07-5.3-13.53-26.46-14.72-35.22Z"/><path class="cls-15" d="M295.45,588.88s-12.3,23.16-98.79,33.55l-.43,15.3s79.26-5.35,104.16-36.41Z"/><path class="cls-15" d="M307.73,621.34s-19.2,25.23-112.23,33.8L195,669.6s88.3.62,116.77-35.66Z"/><path class="cls-2" d="M551.45,575.69l-22.38,11.09-19.21-5.08,2.09-15,1.59-11.36L550.4,541.6A122.42,122.42,0,0,0,549,563.42C549.21,568.09,549.91,572.56,551.45,575.69Z"/><path class="cls-10" d="M548.09,563.71c-1.57.52-2.26.67-3.85,1.06-7.8,1.88-21.26,4.64-31.47,2.17l1.42-11.8L550.4,541.6S547.61,553.31,548.09,563.71Z"/><path class="cls-4" d="M547.22,577.72s8.1-14.35,1.91-11c-38.52,20.87-36.24-4.3-47.3.21-6.19,2.52-11.41,8-14.33,18-11.6,39.85-19.24,49.93-19.24,49.93l62.26-8.4Z"/><path class="cls-16" d="M542.71,574.75l5.14-7.73a4.15,4.15,0,0,1,6.74-.26l36.3,46.51a58,58,0,0,0-16.3,28.91.93.93,0,0,1-1.75.23l-14.55-28.95-1,37.16L524,646.32l13.7-60.15Z"/><path class="cls-2" d="M511.93,888.5l-6.43,2.57a11.52,11.52,0,0,1-14.92-6.24,472.69,472.69,0,0,1-23.81-73.21c-1.3-5.62-2.5-11.37-3.55-17.21-9.69-53.82,19.19-22.09,19.19-22.09l24.5,17.06,1.37,27.14Z"/><path class="cls-10" d="M507.5,816.46c-13.08,1-25.3.28-37.74-3.79-1-.33-1.18-.39-2.18-.76-1.3-5.61-2.73-11.29-3.78-17.13-9.69-53.83,18.61-22.46,18.61-22.46l23.5,16.37Z"/><path class="cls-2" d="M553.43,893a8.23,8.23,0,0,1-6.34,6.09l-4.61.94a8.21,8.21,0,0,1-9.85-7.83,347.91,347.91,0,0,0-10.91-76.52c-1.39-5.32-3-10.73-4.74-16.18-15.19-46.77,28.61-8.88,39.57,1.12a8.11,8.11,0,0,1,2.65,5.54c.1,1.5.2,3.49.29,5.89C560.2,828.34,560.62,863.42,553.43,893Z"/><path class="cls-10" d="M559,812.2a60.27,60.27,0,0,1-16.59,3.92,89.92,89.92,0,0,1-14.86.06c-1.95-.15-3-.21-4.92-.44-1.85-7.1-3.89-10.83-5.66-16.28-15.19-46.77,28.61-8.88,39.57,1.12,1.58,1.43,3.46,1.49,2.52,3.41S558.69,809.59,559,812.2Z"/><path class="cls-17" d="M535.46,625c-48-11.67-60.16-3.54-60.16-3.54s-11.24,9.42-29.72,98.45c0,0-15.12,68.87-10.08,72.23C464.29,811.3,543,813.15,565.69,803L558.76,611.8C558.76,627.85,553.94,629.45,535.46,625Z"/><path class="cls-18" d="M555.32,565.68s-24.6,34.09-20.09,65.42h-9.75s3.09-51.23,25.56-68.89Z"/><path class="cls-18" d="M512,566.31s-19.15,32.44-20.45,59.28h-9s9.88-52.47,25.93-60.5Z"/><ellipse class="cls-19" cx="248.31" cy="580.32" rx="26.18" ry="10.29" transform="translate(-140.85 83.35) rotate(-14.9)"/><path class="cls-20" d="M199.86,760.84c9,3.37,35.52,12.08,57.26,6.57a2.55,2.55,0,0,1,3.17,2.88L258,783.55a2.53,2.53,0,0,1-1.79,2c-7.08,2-37.25,9.09-59.79-9.48a2.53,2.53,0,0,1-.91-2.18l.93-10.89A2.54,2.54,0,0,1,199.86,760.84Z"/><path class="cls-3" d="M195.54,604.53c-2.06-9.79-6.53-19.76-3.88-29.41"/><path class="cls-21" d="M200.71,810.7s14.54,15.53,41,6.69c0,0-11.52,42-16.61,61.56l-14.31,9.15L200.71,856S198,826.5,200.71,810.7Z"/><path class="cls-21" d="M253.08,806.88s24.27,12.86,42.22-1.43c0,0-13.37,45.23-19.81,49.52s-27.35-4.79-27.35-4.79Z"/><path class="cls-22" d="M217.61,904.45c0,8.86-5.59,20.44-34.2,20.39-12.35,0-21-7.18-21-16.05s18.74-20.12,31.08-20.12S217.61,895.58,217.61,904.45Z"/><path class="cls-22" d="M223.64,883.22c4.3,10.56,6.79,30.11-19.13,25.32-12.14-2.23-22.8-4.22-22.8-13.09s13.21-15.14,25.56-15.14S221.07,876.89,223.64,883.22Z"/><path class="cls-23" d="M215.8,884.18h.2a11.48,11.48,0,0,0,10.42-5.06h0s4.23,19.26-8.81,25.32c-12.87,6-36.78-6-36.78-6l-6.48-3.67c10.7-6.65,14.47-12.47,20.12-15.69h0L212.1,875"/><path class="cls-24" d="M219.53,904.11c-.91,9.55-22.54,21-45,15-12.46-3.33-14.28-8.86-10.26-17.62,5.24-11.46,16.53-14.75,26.69-13C203.71,890.81,220.45,894.55,219.53,904.11Z"/><path class="cls-23" d="M192.09,880.74s-10.13-31,15.18-26.61c34,5.87,11.81,31.72,11.81,31.72"/><ellipse class="cls-25" cx="189.21" cy="896.17" rx="13.52" ry="6.21"/><path class="cls-26" d="M190.24,884.89c1.63,0,11.73-7.54,23.45,5.79"/><path class="cls-27" d="M190.24,884.89c1-.36,2-.94,3-1.35a19.28,19.28,0,0,1,3.19-1,14.12,14.12,0,0,1,6.71.28,17.48,17.48,0,0,1,5.93,3.08,13.16,13.16,0,0,1,1.27,1.08l1.22,1.13c.72.84,1.44,1.68,2.12,2.54-.85-.71-1.63-1.48-2.46-2.18l-1.28-1a10.19,10.19,0,0,0-1.32-.94c-.46-.28-.91-.57-1.36-.87s-1-.48-1.42-.73l-.72-.36-.75-.28a13.24,13.24,0,0,0-1.5-.51,15.48,15.48,0,0,0-6.32-.48,18,18,0,0,0-3.15.67c-.53.13-1,.31-1.57.48A7.23,7.23,0,0,1,190.24,884.89Z"/><path class="cls-26" d="M187.4,886.85c1.63-.06,11.72-7.54,23.44,5.79"/><path class="cls-27" d="M187.4,886.85c1-.37,2-.94,3-1.35a18.22,18.22,0,0,1,3.2-1,14,14,0,0,1,6.7.28,17.48,17.48,0,0,1,5.93,3.08A9.41,9.41,0,0,1,207.5,889l1.22,1.13c.73.83,1.44,1.68,2.12,2.54-.85-.71-1.63-1.48-2.46-2.18l-1.28-1a10.26,10.26,0,0,0-1.32-1c-.46-.28-.91-.56-1.36-.86s-.95-.49-1.42-.73l-.72-.37-.74-.27a10.73,10.73,0,0,0-1.51-.51,15.27,15.27,0,0,0-6.31-.48,18.14,18.14,0,0,0-3.16.67c-.53.13-1,.31-1.57.47A6.66,6.66,0,0,1,187.4,886.85Z"/><path class="cls-27" d="M192.09,882.88c1-.36,2-.94,3-1.35a19.1,19.1,0,0,1,3.2-1,14.08,14.08,0,0,1,6.7.28,17.48,17.48,0,0,1,5.93,3.08,11.12,11.12,0,0,1,1.27,1.08l1.22,1.13c.73.84,1.44,1.68,2.12,2.54-.85-.71-1.63-1.47-2.46-2.18l-1.28-1a10.19,10.19,0,0,0-1.32-.94c-.46-.28-.91-.57-1.36-.86s-1-.49-1.42-.74l-.72-.36-.74-.28a14.11,14.11,0,0,0-1.51-.51,15.44,15.44,0,0,0-6.31-.48,18.14,18.14,0,0,0-3.16.67c-.53.13-1,.31-1.57.48A7.15,7.15,0,0,1,192.09,882.88Z"/><path class="cls-22" d="M243.19,874.54s-3.22,3.64-2.33,8.18S251.79,892,251.79,892s4.85,19.15,32.08,21.39C315,916,306.44,891,306.44,891Z"/><path class="cls-24" d="M254.19,885.44s-5.34,20.15,29.52,24.58c32.85,4.17,35.84-31.29-5.37-36.61S254.19,885.44,254.19,885.44Z"/><path class="cls-23" d="M245.49,869.93s-7.55-27.42,18.15-25.49c33.33,2.51,7.26,25.49,7.26,25.49Z"/><path class="cls-23" d="M273.32,867.55A110.54,110.54,0,0,1,286.05,875s-14.67-3.77-31.86,15.37l-10.79-8.65s-4.93-5.48,2.29-13"/><path class="cls-27" d="M282.25,874a14.7,14.7,0,0,0-9.12-.7,22.8,22.8,0,0,0-8.26,4.33,15.12,15.12,0,0,1,8-5.3,12.18,12.18,0,0,1,4.92-.18A10.09,10.09,0,0,1,282.25,874Z"/><path class="cls-27" d="M278.56,871.88A14.74,14.74,0,0,0,274,870.8a14.39,14.39,0,0,0-4.58.39,22.58,22.58,0,0,0-8.25,4.32,15.06,15.06,0,0,1,8-5.3,12.37,12.37,0,0,1,4.92-.18A10.13,10.13,0,0,1,278.56,871.88Z"/><path class="cls-27" d="M275.19,870.26a14.9,14.9,0,0,0-4.54-1.08,14.37,14.37,0,0,0-4.58.39,22.64,22.64,0,0,0-8.26,4.33,15,15,0,0,1,8-5.3,12.13,12.13,0,0,1,4.91-.19A10.2,10.2,0,0,1,275.19,870.26Z"/><ellipse class="cls-25" cx="282.96" cy="881.83" rx="13.45" ry="5.91"/><path class="cls-28" d="M197.75,806.72a.59.59,0,0,0,.08.37c.85,1.44,7,11,22.79,12.68,15.47,1.65,22.51-2.77,23.66-3.59a.62.62,0,0,0,.23-.32l1.9-6.4a.6.6,0,0,0-.73-.76c-5.31,1.54-29.38,7.31-46.27-8.27a.61.61,0,0,0-1,.36Z"/><path class="cls-28" d="M250.71,803.94a.59.59,0,0,0,.08.39c.74,1.21,5.63,7.76,24.7,7.86,21,.11,23.29-9,23.29-9l1.06-4.43a.61.61,0,0,0-.82-.7c-5.45,2.35-29.94,11.79-46.66-.65a.59.59,0,0,0-1,.4Z"/><path class="cls-29" d="M336.47,553.61a26.23,26.23,0,0,0-5.25,19.86"/><path class="cls-30" d="M151.64,629a56.84,56.84,0,0,0-6.68-6c-2.88-2.22-6.34-4.24-9.94-3.72"/><path class="cls-2" d="M388.28,503.81c1.32,8.25-9,6.73-20.2,6.73s-20.2-3-20.2-6.73,9.05-6.73,20.2-6.73S387.69,500.14,388.28,503.81Z"/><path class="cls-2" d="M388.28,516.05c-.47,12.16-8.94,5.51-20,5.51s-20-2.47-20-5.51,8.95-5.51,20-5.51S388.4,513,388.28,516.05Z"/><path class="cls-2" d="M384.35,527.9c-3.05,11-5.73,4.34-16.21,4.34s-16.43-3-16.43-6.37,4.67-4.31,15.15-4.31S385.26,524.62,384.35,527.9Z"/><path class="cls-2" d="M379.3,537c.27,6.28-4.91,3.27-13,3.27s-12.6-2.68-12.6-5,2.07-3,10.18-3S379.19,534.29,379.3,537Z"/><path class="cls-31" d="M145,443.29s-16.24-63.75,8.27-60.41c9.8,1.34,15.41,10.27,17.39,15.32,4.23,10.8-12.32,17.27-16.68,6.51a25.59,25.59,0,0,1-1.57-6.12c-2.55-18.55-8.64,2-5.71,41.48Z"/><path class="cls-32" d="M256.59,457.42s.17-13,8.36-7.9,11.24,27.53,1.2,38.13S256.59,457.42,256.59,457.42Z"/><path class="cls-33" d="M257.86,461.66s.25-9,5.8-5.52,7.4,18.84.43,26.23S257.86,461.66,257.86,461.66Z"/><path class="cls-2" d="M242.53,409.53c18.41,39,18.32,39.35,26.08,74.07,5.69,25.49-13.28,51.85-33.47,59.34-29.65,11-76.71,4.31-90.41-27.18-10.22-23.46-19.46-33.88-24.59-42.2-16.21-26.29-3.78-90.77,33.77-103C189,359.07,222.25,366.56,242.53,409.53Z"/><path class="cls-34" d="M179.86,464.4c-6.5,2.78-8.79,11.89-5.11,20.33s11.94,13,18.45,10.25,8.78-11.9,5.1-20.34S186.36,461.61,179.86,464.4Z"/><path class="cls-35" d="M173,476.4c0-4.74,1.93-9.75,5.36-11.58,5.94-3.18,14.28.12,18.49,7.93,2,3.81,4.4,7.57,2.29,15.08,3.6-6.35.88-13.61-2.88-18.84s-10.3-9.1-16.47-6.52C174.44,464.71,172.07,471.66,173,476.4Z"/><path class="cls-36" d="M188.1,484.87c4.82.2,8.35-4.1,7.89-9.6s-4.74-10.12-9.55-10.33-8.35,4.1-7.9,9.6S183.28,484.66,188.1,484.87Z"/><path class="cls-37" d="M184.27,483.78a2.12,2.12,0,0,0,2.3-2,2.36,2.36,0,0,0-2-2.49,2.09,2.09,0,0,0-2.29,2A2.35,2.35,0,0,0,184.27,483.78Z"/><path class="cls-38" d="M200,519.57c2.52,1.85,23.11,12,36.79,1.65,8.9-6.72,16.66-26.84,12.64-25.49-10,3.34-13.55,3.07-24.28,6.33C212.74,505.82,179.11,504.33,200,519.57Z"/><path class="cls-39" d="M229.51,522.46a18.49,18.49,0,0,1-9.94.65,11.57,11.57,0,0,1,5.45-6.76c4-2.28,10.31-4,13.77-1.64C237.2,517.92,232.53,521.33,229.51,522.46Z"/><path class="cls-40" d="M198.86,508.94c5.42-2,19.06-3,27.13-4.88,13.4-3.13,12.8-3.94,18.65-4.94.06,6-6.43,10.49-17.71,13.26C214.71,515.39,206.07,513.67,198.86,508.94Z"/><path class="cls-34" d="M233.54,449.28c-6.5,2.78-8.78,11.89-5.1,20.33s11.94,13,18.44,10.25,8.79-11.89,5.1-20.34S240,446.49,233.54,449.28Z"/><path class="cls-35" d="M226.67,461.28c.06-4.74,1.93-9.75,5.36-11.58,5.95-3.18,14.29.12,18.49,7.93,2.06,3.81,4.41,7.58,2.3,15.08,3.6-6.35.87-13.61-2.88-18.84s-10.31-9.1-16.47-6.52C228.12,449.59,225.76,456.54,226.67,461.28Z"/><path class="cls-36" d="M242.56,469.65c4.82.21,8.35-4.09,7.89-9.59s-4.73-10.12-9.55-10.33-8.35,4.1-7.89,9.6S237.74,469.45,242.56,469.65Z"/><path class="cls-37" d="M236.83,468.91a2.36,2.36,0,0,0,2.55-2.05,2.2,2.2,0,0,0-2.12-2.36,2.36,2.36,0,0,0-2.55,2.05A2.19,2.19,0,0,0,236.83,468.91Z"/><path class="cls-2" d="M135.94,499.25c-23.48-7.64-16.6,12.69-8.75,23.12,8.36,11.09,19,10.81,23.57,3.42"/><path class="cls-10" d="M129.9,518.45c4.75,5.54,11.13,7.77,12.64,5.52,1.68-2.54.05-7.35-3.73-13-4.42-6.64-8.66-9.8-11.66-7.23S124.31,511.93,129.9,518.45Z"/><path class="cls-10" d="M215.2,410.38c-4.3,5.94-9.77,11.34-16.44,14.36-13,5.91-22.88,5.78-36.89,2.22,8.75-3.79,20.3-11.56,23.17-17.09-8.24-2.94-15.93-.84-24.73.21-.64.08-.64,1.17-.82,1.87C156.15,425,141.42,424,139,425.34c12.1,2.05,23.68,40.22-12.77,55.85-3.17,1.36-6.35-5.78-8.52-8.53a27.72,27.72,0,0,1-5.77-14.73c-.19-2.35-.08-4.75-.7-7s-2.07-4.5-2.64-6.9c-1-4.24.77-8.56,2.63-12.45,4.79-10,10.48-19.63,17.87-27.84s16.54-15,27-18.56c7.67-2.61,15.84-3.43,23.95-4.1,11.06-.9,22.39-1.51,33.13,1.48a102.3,102.3,0,0,1,13.14,5,27.79,27.79,0,0,1,7.64,4.31,25.69,25.69,0,0,1,4.08,5c10.35,15.48,19.89,37.79,23,56.1-6.84-11-15.86-31.39-22.7-42.41C237,408.32,221.6,399.74,220,401,219.14,401.71,216.38,408.74,215.2,410.38Z"/><path class="cls-41" d="M213.5,395.9s6.27,29.46-49.89,30.55c0,0,49.85-30-8.67-18.62,0,0,6.46,8.38-23.68,17.12,0,0,32.9,11.87,1.35,50.65,0,0-3.85,3.32,1.2,16.63.45,1.2,1.8,3.67,3.73,7.31,10.12,19.13-7.07-2.13-7.07-2.13s-19.35,1.77-25.28-20.75c0,0-21.13-11.7-13.53-35,0,0-17.72-24.38,14.86-39.48,0,0,1.22-29.61,22.24-34,0,0,24.09-28.64,53.23-11.12,0,0,21.5-13.42,43.57,8.13,0,0,24.07,4.88,23.38,23.84,0,0,19.68,4.84,7.44,22.69,0,0,16.45,7.51,2.61,22.81l2.33,19-19.56-44.07S240,402.5,213.5,395.9Z"/><path class="cls-42" d="M222.91,427.61h0c.76-2.23,7-2.62,9.33-2,3.51.93,7.51,2.38,10.77,9.83.28.64.4,1.18-.15.72-3.29-2.72-10.28-6.69-16.86-6A2.75,2.75,0,0,1,222.91,427.61Z"/><path class="cls-42" d="M183.8,436.21h0c-1.46-1.85-7.48-.14-9.46,1.21-3,2-6.29,4.75-6.89,12.86,0,.7,0,1.25.39.63,2.19-3.66,7.46-9.73,13.88-11.32C183.29,439.2,184.33,437.49,183.8,436.21Z"/><path class="cls-43" d="M231.74,483.6a8.25,8.25,0,0,1,.33,6.41,7.21,7.21,0,0,1-2,2.85,9.14,9.14,0,0,1-3,1.73,11.82,11.82,0,0,1-6.59.49,6.75,6.75,0,0,1-4.88-4.09,7.92,7.92,0,0,0,5.15,2.56,13.67,13.67,0,0,0,5.64-.84,7.52,7.52,0,0,0,4.19-3.34A11,11,0,0,0,231.74,483.6Z"/><path class="cls-9" d="M513.32,535.34s-13.53-2.1-20.62,6.57C496.32,544.33,499.87,547.28,513.32,535.34Z"/><path class="cls-1" d="M476.22,470.38c-1.24,1.55-35.57,61.3,9.72,83.71,35.49,15.3,53.23-9.51,52.89-5.71Z"/><path class="cls-2" d="M477.81,481.56c.07-.25.37.23.13.3s-.43-.19-.55-.42a16.88,16.88,0,0,0-6-6.48c-1.74-1.08-3.86-1.81-5.75-1.07-2.68,1.05-3.71,4.54-3.83,7.58a27.09,27.09,0,0,0,3.43,14c4.11,7.39,12.3,12.62,20.2,11"/><path class="cls-10" d="M470.74,484.57a24.76,24.76,0,0,1,2.54,2.67c.62.76,1.24,1.9.75,2.79s-1.42.82-1.75,1.62a1.78,1.78,0,0,0,1,2.12c.72.32,1.52.27,2.26.55a3.5,3.5,0,0,1,2,2.72,2.75,2.75,0,0,1-.05,1.31,2,2,0,0,1-2.39,1.28,5.57,5.57,0,0,1-2.43-1.71,23.69,23.69,0,0,1-4.32-5.55C466.64,489.1,464.82,479.22,470.74,484.57Z"/><path class="cls-44" d="M481,501.92s6.47,10.14,1.21,13.4-5.67-9.7-5.67-9.7,3.26,10.22,3.86,3.26Z"/><path class="cls-2" d="M470.49,453.64c.55,1.09,2.78,38.12,3,55.55.2,20.41,19.71,46.71,43.14,49.91,28.74,3.93,55.81-3.33,70.9-24.36s15.91-52.38,15.91-52.38,26.37-29.26,1.64-58.61-56.56-43.49-100-37S470.49,453.64,470.49,453.64Z"/><path class="cls-10" d="M580.86,457.36c-1.36-.82-29.37-30.84-29.37-30.84S564.93,444.9,557,443c-2.22-.54-21-11.49-26.69-20.38,0,0,1.72,13.3,8.53,16.16,0,0-29.51.42-37-23,0,0,2.79,12.3-20.19,21.1-17.83,6.83-9.93,29.21-9.93,29.21l-2-46.47L491,401.17h47.86l37.95,14.6,11.69,33.12,14.93,33.47Z"/><path class="cls-1" d="M472.07,474.36c0-6.57,2.23-26,6.2-31.26,8-10.57,16.84-11.56,22.43-15,3.57-2.21,3.94-13.54,7.15-16.24,3.42-2.89-1,4.37,0,0,1.33,6.9-.06,11.26,5.74,15.22s11.42,5.71,18.27,7.3c-2.83-3.34-5.58-6.92-6.71-11.15-1.24-4.68-.35-9.62-.4-14.46a76.07,76.07,0,0,0,34,32.15,35.25,35.25,0,0,1-8.35-21.83,11.84,11.84,0,0,1,5.12,4.4,222.44,222.44,0,0,0,26.23,29.72c.34-1.89,1.53-3.4,1.88-5.28,3.32,13.29,20.07,39.07,20,38.3,0,0,.2,53.8-44.6,69.43-1.57.61,11.28,13.48,36.44,8.1,23.87-5.1,42.41-23.68,33.44-64.18s2.31-62.45-6.8-87.13c-10.83-29.35-53.41-68.52-129-30.26,0,0-35.22,9.59-26.54,75.54C466.62,457.7,472.06,476.47,472.07,474.36Z"/><path class="cls-45" d="M500.68,449s-11.68-3.79-18.28,4.43a.41.41,0,0,1-.72-.33c.46-2.69,2.31-8.11,9.87-8.81C503.49,443.2,500.68,449,500.68,449Z"/><path class="cls-45" d="M546.94,451.48s13.67-1.11,19.34,8.42a.46.46,0,0,0,.86-.15c0-2.74-.94-8.47-9.17-10.85C545,445.15,546.94,451.48,546.94,451.48Z"/><path class="cls-45" d="M513.34,484.33a11.51,11.51,0,0,1,.55,9.34,12.84,12.84,0,0,1-2.59,4.1c-.58.6-1.08,1.17-1.57,1.72a6.82,6.82,0,0,0-1.07,1.91,4.59,4.59,0,0,0,.45,4.09,6.57,6.57,0,0,0,3.5,2.52,10.45,10.45,0,0,0,4.49.43,12.64,12.64,0,0,0,2.28-.39c.75-.18,1.47-.49,2.21-.72l.06,0h0a5.14,5.14,0,0,0,2.79-.81,1.89,1.89,0,0,0,.74-1.2,3.17,3.17,0,0,0-.15-1.49,3.23,3.23,0,0,1,.32,1.51,2.15,2.15,0,0,1-.72,1.4,3.87,3.87,0,0,1-1.4.78,6.7,6.7,0,0,1-1.55.34l.09,0c-.75.28-1.47.63-2.24.86a14.52,14.52,0,0,1-2.37.53,10.55,10.55,0,0,1-4.86-.31,7.28,7.28,0,0,1-4-2.86,5.44,5.44,0,0,1-.55-4.95,5,5,0,0,1,.54-1.15,9.39,9.39,0,0,1,.71-1c.57-.62,1.14-1.21,1.67-1.74a13,13,0,0,0,2.59-3.75A12,12,0,0,0,513.34,484.33Z"/><path class="cls-46" d="M484.05,386.72a81.23,81.23,0,0,1,30.9-6.1c50.44,0,91.33,46.43,91.33,103.71,0,1.11,0,2.2,0,3.3q2.67-.57,5.42-.92c.07-1.61.1-3.23.1-4.85,0-57.28-40.88-103.71-91.31-103.71A81.63,81.63,0,0,0,484.05,386.72Z"/><path class="cls-47" d="M603.17,488.58c-.09-.25-.44.23-.16.3s.51-.19.66-.42a18.28,18.28,0,0,1,7.09-6.48c2.06-1.08,4.59-1.81,6.83-1.07,3.19,1,4.41,4.54,4.55,7.58a23.73,23.73,0,0,1-4.07,14.05c-4.88,7.39-14.62,12.62-24,10.94"/><path class="cls-48" d="M603.17,488.58c0-.12-.16-.06-.2,0s-.07.18,0,.23a.39.39,0,0,0,.46-.12,10.18,10.18,0,0,0,.59-.91,17.42,17.42,0,0,1,1.32-1.78,19.74,19.74,0,0,1,3.25-3,16.9,16.9,0,0,1,3.92-2.13,8.52,8.52,0,0,1,4.51-.52,6,6,0,0,1,3.84,2.51,9.81,9.81,0,0,1,1.61,4.27,21.73,21.73,0,0,1-.79,8.9A25.44,25.44,0,0,1,617.6,504a26.1,26.1,0,0,1-6.56,6,26.86,26.86,0,0,1-8.18,3.42,21.87,21.87,0,0,1-8.79.06,22.59,22.59,0,0,0,8.67-.54,26.17,26.17,0,0,0,7.88-3.59,26.8,26.8,0,0,0,6.25-5.91,24.72,24.72,0,0,0,3.84-7.68,20.77,20.77,0,0,0,.85-8.49,9.07,9.07,0,0,0-1.41-3.91,5.43,5.43,0,0,0-3.3-2.25,7.85,7.85,0,0,0-4.14.36,17,17,0,0,0-3.85,1.94,18.89,18.89,0,0,0-3.33,2.79,17.31,17.31,0,0,0-1.4,1.68,9.3,9.3,0,0,1-.66.89.44.44,0,0,1-.54.09.21.21,0,0,1,0-.27C603,488.51,603.15,488.46,603.17,488.58Z"/><path class="cls-10" d="M611.57,491.59a27.33,27.33,0,0,0-3,2.67c-.74.76-1.47,1.9-.89,2.79s1.68.82,2.08,1.62-.34,1.79-1.19,2.11-1.81.28-2.68.56a3.66,3.66,0,0,0-2.41,2.72,2.43,2.43,0,0,0,.07,1.31,2.47,2.47,0,0,0,2.84,1.28,6.8,6.8,0,0,0,2.89-1.71,25,25,0,0,0,5.13-5.55C616.44,496.12,618.6,486.24,611.57,491.59Z"/><path class="cls-49" d="M599.4,508.94s-7.68,10.13-1.43,13.4,6.74-9.71,6.74-9.71-3.88,10.23-4.6,3.27Z"/><path class="cls-50" d="M542.27,516.26a17,17,0,0,0,2.71-1.55,6.44,6.44,0,0,1,3-.77c1.33,0,2.91.66,3.07,2a3,3,0,0,1-1.62,2.58,8.08,8.08,0,0,1-5.24,1.22,2.51,2.51,0,0,1-2-1.08c-.38-.7.21-1.82,1-1.62"/><path class="cls-50" d="M498.61,514.46a10.83,10.83,0,0,0-2-2.14,4,4,0,0,0-1.65-.9,2.87,2.87,0,0,0-3.07,1.75,4,4,0,0,0,.46,3.64,6.76,6.76,0,0,0,2.94,2.36,4.64,4.64,0,0,0,2.47.48,2.21,2.21,0,0,0,1.87-1.51,2.31,2.31,0,0,0-.9-2.25,6.8,6.8,0,0,0-2.31-1.08"/><path class="cls-38" d="M545.65,517.45s1.7-1.86-1.12-1.12c-3.88,1-14.27,6.32-29.26,4.08-11.51-1.72-17.6-5.07-19.81-6.53a.48.48,0,0,0-.74.51c.77,3.45,4.59,14.82,14.64,20.59a20,20,0,0,0,17.61.81C532.86,533,538.15,528.76,545.65,517.45Z"/><path class="cls-40" d="M539.53,519.49c-.3.1-17.33,9.07-38.83-1.73,0,0,2.55,8.23,15.89,10.27C531.83,530.36,539.53,519.49,539.53,519.49Z"/><path class="cls-39" d="M518.11,535.77a13.12,13.12,0,0,0,8.64-2.44c-1.32-1.77-2.73-2.14-5.49-3-3.94-1.27-9.22.72-11.78,2.41C511.48,534.71,513.74,535.21,518.11,535.77Z"/><path class="cls-51" d="M599.26,419.05s24.65,12.67,10.86,21.66-30.09,7.4-21-18.18c5.69-16.07-3.51-6.22-3.51-6.22s-28.55-21.05-.43-26.87c26-5.39,9.66,21.27,9.66,21.27S603.21,408.87,599.26,419.05Z"/><ellipse class="cls-52" cx="594.26" cy="392.14" rx="2.13" ry="2.49" transform="translate(117.21 920.67) rotate(-81.35)"/><ellipse class="cls-52" cx="607.87" cy="429.54" rx="2.13" ry="2.49" transform="translate(91.8 965.91) rotate(-81.35)"/><ellipse class="cls-52" cx="609.11" cy="437.07" rx="2.13" ry="2.49" transform="translate(85.42 973.53) rotate(-81.35)"/><ellipse class="cls-52" cx="599.61" cy="431.69" rx="2.13" ry="2.49" transform="translate(82.66 959.57) rotate(-81.35)"/><ellipse class="cls-52" cx="593.1" cy="426.7" rx="2.13" ry="2.49" transform="translate(82.06 948.88) rotate(-81.35)"/><ellipse class="cls-52" cx="591.44" cy="436.44" rx="2.13" ry="2.49" transform="translate(71.02 955.52) rotate(-81.35)"/><ellipse class="cls-52" cx="599.85" cy="440.09" rx="2.13" ry="2.49" transform="translate(74.56 966.95) rotate(-81.35)"/><ellipse class="cls-52" cx="600.85" cy="424.43" rx="2.13" ry="2.49" transform="translate(90.89 954.62) rotate(-81.35)"/><ellipse class="cls-52" cx="596.08" cy="401.31" rx="2.13" ry="2.49" transform="translate(109.7 930.26) rotate(-81.35)"/><ellipse class="cls-52" cx="579.21" cy="397.58" rx="2.13" ry="2.49" transform="translate(99.05 910.42) rotate(-81.35)"/><ellipse class="cls-52" cx="584.83" cy="391.54" rx="2.13" ry="2.49" transform="translate(109.79 910.84) rotate(-81.35)"/><ellipse class="cls-52" cx="588.39" cy="398.98" rx="2.13" ry="2.49" transform="translate(105.46 920.68) rotate(-81.35)"/><ellipse class="cls-52" cx="590.9" cy="406.18" rx="2.13" ry="2.49" transform="translate(100.48 929.28) rotate(-81.35)"/><ellipse class="cls-52" cx="582.46" cy="405.45" rx="2.13" ry="2.49" transform="translate(94.04 920.32) rotate(-81.35)"/><ellipse class="cls-52" cx="586.38" cy="410.78" rx="2.13" ry="2.49" transform="translate(92.09 928.72) rotate(-81.35)"/><ellipse class="cls-51" cx="592.69" cy="416.75" rx="7.67" ry="5.73" transform="translate(-115.29 262.71) rotate(-22.84)"/><circle class="cls-50" cx="494.39" cy="476.26" r="16.12"/><ellipse class="cls-50" cx="550.3" cy="478.06" rx="16.84" ry="16.12"/><path class="cls-53" d="M480.19,473.51a15.16,15.16,0,0,0,10.12,18.91c8,2.43,15.72.41,18.15-7.61s-1.34-19-9.36-21.42A15.16,15.16,0,0,0,480.19,473.51Z"/><circle class="cls-36" cx="495.69" cy="472.6" r="9.41"/><circle class="cls-37" cx="498.88" cy="480.77" r="2.62"/><path class="cls-53" d="M565.27,479.68a15.17,15.17,0,0,1-15.17,15.17c-8.38,0-15.17-4.18-15.17-12.56s6.79-17.78,15.17-17.78A15.17,15.17,0,0,1,565.27,479.68Z"/><circle class="cls-36" cx="551.04" cy="474.3" r="9.41"/><circle class="cls-37" cx="558.01" cy="482.14" r="2.62"/><ellipse class="cls-54" cx="540.29" cy="639.53" rx="4.43" ry="4.31"/><ellipse class="cls-54" cx="522.59" cy="639.53" rx="4.43" ry="4.31"/><ellipse class="cls-54" cx="514.62" cy="630.26" rx="4.43" ry="4.31"/><ellipse class="cls-54" cx="513.81" cy="651.98" rx="4.43" ry="4.31"/><ellipse class="cls-54" cx="502.36" cy="639.53" rx="4.43" ry="4.31"/><ellipse class="cls-54" cx="484.53" cy="639.83" rx="4.43" ry="4.31"/><ellipse class="cls-54" cx="478.97" cy="630.26" rx="4.43" ry="4.31"/><ellipse class="cls-54" cx="475.18" cy="656.29" rx="4.43" ry="4.31"/><ellipse class="cls-54" cx="494.78" cy="653.43" rx="4.43" ry="4.31"/><ellipse class="cls-54" cx="545.35" cy="662.53" rx="4.43" ry="4.31"/><ellipse class="cls-54" cx="525.12" cy="662.53" rx="4.43" ry="4.31"/><ellipse class="cls-54" cx="504.89" cy="662.53" rx="4.43" ry="4.31"/><ellipse class="cls-54" cx="485.29" cy="666.15" rx="4.43" ry="4.31"/><ellipse class="cls-54" cx="464.82" cy="666.15" rx="4.43" ry="4.31"/><ellipse class="cls-54" cx="499.2" cy="626.79" rx="4.43" ry="4.31"/><ellipse class="cls-54" cx="472.02" cy="644.14" rx="4.43" ry="4.31"/><ellipse class="cls-54" cx="552.94" cy="649.12" rx="4.43" ry="4.31"/><ellipse class="cls-54" cx="552.94" cy="635.51" rx="4.43" ry="4.31"/><ellipse class="cls-54" cx="472.02" cy="675.94" rx="4.43" ry="4.31"/><ellipse class="cls-54" cx="494.78" cy="675.94" rx="4.43" ry="4.31"/><ellipse class="cls-54" cx="515.01" cy="675.94" rx="4.43" ry="4.31"/><ellipse class="cls-54" cx="535.24" cy="675.94" rx="4.43" ry="4.31"/><ellipse class="cls-54" cx="550.41" cy="688.41" rx="4.43" ry="4.31"/><ellipse class="cls-54" cx="525.12" cy="687.44" rx="4.43" ry="4.31"/><ellipse class="cls-54" cx="504.89" cy="687.44" rx="4.43" ry="4.31"/><ellipse class="cls-54" cx="482.13" cy="687.44" rx="4.43" ry="4.31"/><ellipse class="cls-54" cx="462.54" cy="684.57" rx="4.43" ry="4.31"/><ellipse class="cls-54" cx="469.49" cy="698.94" rx="4.43" ry="4.31"/><ellipse class="cls-54" cx="492.25" cy="698.94" rx="4.43" ry="4.31"/><ellipse class="cls-54" cx="515.01" cy="698.94" rx="4.43" ry="4.31"/><ellipse class="cls-54" cx="537.77" cy="698.94" rx="4.43" ry="4.31"/><ellipse class="cls-54" cx="527.65" cy="710.44" rx="4.43" ry="4.31"/><ellipse class="cls-54" cx="502.36" cy="710.44" rx="4.43" ry="4.31"/><ellipse class="cls-54" cx="479.6" cy="710.44" rx="4.43" ry="4.31"/><ellipse class="cls-54" cx="457.76" cy="707.57" rx="4.43" ry="4.31"/><ellipse class="cls-54" cx="466.96" cy="721.94" rx="4.43" ry="4.31"/><ellipse class="cls-54" cx="451.79" cy="719.07" rx="4.43" ry="4.31"/><ellipse class="cls-54" cx="489.72" cy="721.94" rx="4.43" ry="4.31"/><ellipse class="cls-54" cx="515.01" cy="721.94" rx="4.43" ry="4.31"/><ellipse class="cls-54" cx="477.08" cy="735.36" rx="4.43" ry="4.31"/><ellipse class="cls-54" cx="457.38" cy="735.36" rx="4.43" ry="4.31"/><ellipse class="cls-54" cx="447.44" cy="744.03" rx="4.43" ry="4.31"/><ellipse class="cls-54" cx="461.39" cy="748.78" rx="4.43" ry="4.31"/><ellipse class="cls-54" cx="489.72" cy="748.78" rx="4.43" ry="4.31"/><ellipse class="cls-54" cx="512.48" cy="748.78" rx="4.43" ry="4.31"/><ellipse class="cls-54" cx="540.29" cy="748.78" rx="4.43" ry="4.31"/><ellipse class="cls-54" cx="555.47" cy="760.28" rx="4.43" ry="4.31"/><ellipse class="cls-54" cx="527.65" cy="760.28" rx="4.43" ry="4.31"/><ellipse class="cls-54" cx="499.83" cy="760.28" rx="4.43" ry="4.31"/><ellipse class="cls-54" cx="474.55" cy="760.28" rx="4.43" ry="4.31"/><ellipse class="cls-54" cx="451.79" cy="760.28" rx="4.43" ry="4.31"/><ellipse class="cls-54" cx="461.9" cy="771.78" rx="4.43" ry="4.31"/><ellipse class="cls-54" cx="478.97" cy="776.09" rx="4.43" ry="4.31"/><ellipse class="cls-54" cx="512.48" cy="771.78" rx="4.43" ry="4.31"/><ellipse class="cls-54" cx="542.19" cy="771.78" rx="4.43" ry="4.31"/><ellipse class="cls-54" cx="555.47" cy="783.28" rx="4.43" ry="4.31"/><ellipse class="cls-54" cx="529.26" cy="783.28" rx="4.43" ry="4.31"/><ellipse class="cls-54" cx="525.12" cy="801.31" rx="4.43" ry="4.31"/><ellipse class="cls-54" cx="497.94" cy="778.97" rx="4.43" ry="4.31"/><ellipse class="cls-54" cx="478.34" cy="793.34" rx="4.43" ry="4.31"/><ellipse class="cls-54" cx="447.2" cy="776.09" rx="4.43" ry="4.31"/><ellipse class="cls-54" cx="442.77" cy="789.03" rx="4.43" ry="4.31"/><ellipse class="cls-54" cx="461.39" cy="789.03" rx="4.43" ry="4.31"/><ellipse class="cls-54" cx="512.48" cy="786.31" rx="4.43" ry="4.31"/><ellipse class="cls-54" cx="502.36" cy="799.09" rx="4.43" ry="4.31"/><ellipse class="cls-54" cx="544.72" cy="794.78" rx="4.43" ry="4.31"/><ellipse class="cls-54" cx="540.29" cy="721.94" rx="4.43" ry="4.31"/><ellipse class="cls-54" cx="502.36" cy="735.36" rx="4.43" ry="4.31"/><ellipse class="cls-54" cx="527.65" cy="735.36" rx="4.43" ry="4.31"/><ellipse class="cls-54" cx="552.94" cy="733.97" rx="4.43" ry="4.31"/><ellipse class="cls-54" cx="552.94" cy="710.44" rx="4.43" ry="4.31"/><ellipse class="cls-54" cx="532.71" cy="651.03" rx="4.43" ry="4.31"/><ellipse class="cls-54" cx="551.04" cy="675.94" rx="4.43" ry="4.31"/><path class="cls-48" d="M558,617.28c-.2-2-.27-3.92-.32-5.86l-.13-5.79c0-1.92,0-3.85,0-5.79s0-3.88.17-5.86a29.39,29.39,0,0,1,1.39,5.75,44,44,0,0,1,.15,11.77A30.37,30.37,0,0,1,558,617.28Z"/><path class="cls-2" d="M650.29,612.93c.71.52,15.31-10.08,18.18-6.93,3.43,3.76-13.31,10.17-21.56,12.14"/><path class="cls-2" d="M630.74,618.12c-4.45-.68-32.48,43.56-42,41.94,0,0-5.55-2.83-11.93-17a11.54,11.54,0,0,1-.45-1.13c-5-13.74,11.29-27.09,11.29-27.09l4.28,4.49,4.8,5c10.47-6.28,24.43-19.93,32.07-30.54.71-1,1-2.35,1.94-2.81,8.87-4.27,14.57-11.33,15.31-5.91.85,6.32-13.61,13.53-7.63,12.58,4.18-.65,9.94-6.32,12.73,6C655,620.79,643.46,620,630.74,618.12Z"/><path class="cls-3" d="M637.15,596.82a11.18,11.18,0,0,1,3,7.27,33.3,33.3,0,0,1-.73,8"/><path class="cls-2" d="M644.71,595.34c.71.53,16.55-3.87,20.81-3.88s-7.06,7.1-15.31,9.06"/><path class="cls-2" d="M653,604c.71.52,15-7.1,18.18-4.22,4.29,4-10.48,10.14-18.74,12.11"/><path class="cls-2" d="M649.73,601.78c.71.53,18.66-10.22,22.17-7.8,3.76,2.59-11.75,9.68-20,11.65"/><path class="cls-10" d="M591.93,620.49c-.33.29-.64.59-1,.9a61.81,61.81,0,0,0-11.08,14.35c-1.29,2.39-1.63,4.26-2.74,6.74-5-13.74,10.5-26.48,10.5-26.48Z"/><path class="cls-48" d="M599.28,623.17c-1.61.38-2.91,1.76-4.25,3a47,47,0,0,0-3.85,3.88,19.34,19.34,0,0,0-3,4.53,12.49,12.49,0,0,0-1.25,5.28,12.76,12.76,0,0,1,1-5.38,19.87,19.87,0,0,1,2.84-4.75,49.59,49.59,0,0,1,3.7-4.1c.65-.65,1.28-1.31,2-1.94A6.91,6.91,0,0,1,599,622.2Z"/><path class="cls-55" d="M370.36,541c-3.71-.21-7.41-.63-11.07-1.16,0,1.24-.08,4.57-.07,5,0,3.24,0,5.93,0,7.49a85.13,85.13,0,0,0,.16,10.35c.52,6-.26,17.8-12,16.94-11.48-.84-6.19-11.56-12.78-14.85a8.37,8.37,0,0,0-8.9.72c-5.49,4.36-2.08,12,1.05,16.79C331,588.87,340,593.68,348.93,594a26.11,26.11,0,0,0,13.49-2.37c9.8-4.81,11.75-14.59,12.12-23.34.07-1.69.1-3.37.12-5,0-3.55,0-7.1,0-10.65,0-2,0-4.06-.08-7,0-.37.13-2.65.16-4.15C373.27,541.33,371.81,541.22,370.36,541Z"/><path class="cls-56" d="M228.87,299.78s92.37-15.51,175.33,6.8L417,161.38l-182.39,9.8Z"/><path class="cls-57" d="M404.2,306.58s48.05-32.34,155.22-22.52c0,0-11.83-108.09-31-123.86s-113.28,10.45-113.28,10.45Z"/><path class="cls-55" d="M559.42,284.06s86.5-54.88,144.53-51.34c0,0-93.15-79.71-176.24-98.12C527.71,134.6,540.66,253.2,559.42,284.06Z"/><path class="cls-57" d="M228.87,299.78S175.94,270,85.23,281.25c0,0,13.45-59.9,57.08-100.75S244,169.4,244,169.4Z"/><path class="cls-58" d="M23,254s56.2,11.82,62.19,27.29c0,0,15-54.32,59.45-92.38C144.68,188.87,31.55,225,23,254Z"/><path class="cls-8" d="M370.59,17.88a7.33,7.33,0,0,0-5.74,6.85l-1.41,31.79-4.53,0v-.19l1.41-32a7.36,7.36,0,0,1,7.39-7A7.07,7.07,0,0,1,370.59,17.88Z"/><path class="cls-59" d="M376.25,56.56l-12.81,0,1.41-31.79a7.33,7.33,0,0,1,5.74-6.85A7.35,7.35,0,0,1,375,24.37Z"/><rect class="cls-59" x="358.72" y="52.36" width="16.47" height="445.03" transform="translate(0.91 -1.21) rotate(0.19)"/><rect class="cls-8" x="358.72" y="52.34" width="7.04" height="445.03" transform="translate(0.9 -1.19) rotate(0.19)"/><path class="cls-60" d="M201.26,228.3S296.91,173,389.07,209.55L377.94,47.86s-65.1,2.63-79,9.12S202.75,168.76,201.26,228.3Z"/><path class="cls-61" d="M704,232.72s-65.54-46.55-147.32-31.56L377.94,47.86S616,75.8,704,232.72Z"/><path class="cls-62" d="M377.94,47.86s143.32,11.67,178.69,153.3c0,0-68.46-31.43-167.56,8.39Z"/><path class="cls-61" d="M23,254s10.34-9.76,24.21-9.51L127,160.63,298.91,57S112.46,95.89,23,254Z"/><path class="cls-62" d="M47.25,244.45s54.21-52.64,154-16.15c0,0,30.61-102.54,97.65-171.32C298.91,57,141.41,81.3,47.25,244.45Z"/></svg>