<svg id="Layer_1" data-name="Layer 1" xmlns="http://www.w3.org/2000/svg" viewBox="0 0 74.32 41.83"><defs><style>.cls-1{fill:#461211;}.cls-2{fill:#e55757;}.cls-3{fill:#9b593d;}.cls-4{fill:#fff;}</style></defs><path class="cls-1" d="M6.59,8.58S3.9,27.77,23.38,34.36c5.43,1.84,18.07,6.68,33.4-3.11,12-7.66,10.76-20.56,9.61-21.25S53,22.86,34.83,19.18C22.1,16.6,14.58,13.54,6.59,8.58Z"/><path class="cls-2" d="M22.24,28.69s15.53-7,27.06.53c0,0-2.3,2.92-13.78,3C25.23,32.26,22.24,28.69,22.24,28.69Z"/><path class="cls-3" d="M62.92,7.27a14.6,14.6,0,0,1,6.71,6.42C71.07,16.22,69.4,6.45,62.92,7.27Z"/><path class="cls-3" d="M9.4,5.54a14.67,14.67,0,0,0-5.89,7.92S3.42,6.84,9.4,5.54Z"/><path class="cls-4" d="M6.73,8.58c-.34-.24-.85,3.44.53,6.17,1.59,3.17,31.18,20.2,58.8,1.37A26.66,26.66,0,0,0,66.39,10s-9,8.79-27,10c-8.28.54-21.43-3.92-28-8.3C9.17,10.24,8.51,9.85,6.73,8.58Z"/><path class="cls-4" d="M10.5,23.69s23.51,15.07,52,.66c0,0-5.53,11.59-25.15,12.85C37.31,37.2,18.9,37.21,10.5,23.69Z"/><path class="cls-3" d="M6.39,8.34S40.21,28.73,66.83,9.61c0,0-25.48,23.78-59.65-.56L6.5,8.58C6.26,8.41,6.28,8.33,6.39,8.34Z"/><path class="cls-3" d="M6.39,8.34s-2.34,30.27,30,30.9c5.85.12,33.37-2.48,30.42-29.63A1.39,1.39,0,0,0,65.77,11c0,.35,0,1.54-.09,2-.78,6.84-4.47,22.89-29.45,23.69-.18,0-25.95-.3-28.1-23.24a27.44,27.44,0,0,1-.4-3.68C7.8,9,6.46,8.3,6.39,8.34Z"/><path class="cls-3" d="M5.88,7.85s6,11.91,31.32,12.47c24.91.55,29-10.39,29-10.39s-10.11,7.73-28.12,8C27.78,18.09,13.39,13.29,5.88,7.85Z"/></svg>