<?xml version="1.0" encoding="utf-8"?>
<!-- Generator: Adobe Illustrator 25.2.0, SVG Export Plug-In . SVG Version: 6.00 Build 0)  -->
<svg version="1.1" id="Layer_1" xmlns="http://www.w3.org/2000/svg" xmlns:xlink="http://www.w3.org/1999/xlink" x="0px" y="0px"
	 viewBox="0 0 1600 900" style="enable-background:new 0 0 1600 900;" xml:space="preserve">
<style type="text/css">
	.st0{clip-path:url(#SVGID_2_);}
	.st1{fill:none;}
	.st2{clip-path:url(#SVGID_4_);}
	.st3{fill:#22A87B;}
	.st4{fill:url(#SVGID_5_);}
</style>
<g>
	<defs>
		<rect id="SVGID_1_" x="-1700" width="1600" height="900"/>
	</defs>
	<clipPath id="SVGID_2_">
		<use xlink:href="#SVGID_1_"  style="overflow:visible;"/>
	</clipPath>
	<g class="st0">
		<path class="st1" d="M-58.4,947c0-44.7-1.5-89.3-1.7-134c-0.4-78.4,1.9-156.8,2.8-235.2c0.9-78,0.3-156.1-5.8-233.9
			c0-28.6,7.6-56.6,22-81.3l25.2-32.6c11.6-11.6,24.9-21.4,39.5-29h-1648.7v782.2H-54.5C-57.6,971.3-58.9,959.2-58.4,947z"/>
	</g>
</g>
<g>
	<defs>
		<rect id="SVGID_3_" width="1600" height="900"/>
	</defs>
	<clipPath id="SVGID_4_">
		<use xlink:href="#SVGID_3_"  style="overflow:visible;"/>
	</clipPath>
	<g class="st2">
		<path class="st3" d="M1626,612c-0.4-78.4,15.9,44.1,16.7-34.3c0.4-34.5,0.5-69,0-103.5c-1.3-0.1-2.7-0.2-4.1-0.2
			c-1.6,0-3.2,0.1-4.7,0.4l0,0c-7.1,1.1-12.2,4.7-13.8,8.8c-6.3-5.6-18.7-4.1-25.6,0.3c-6.6,4.1-5.9,9.6-0.6,14
			c-8-0.4-15.2,2.4-18.9,6c-1.1-5.7-2.6-12.2-10.5-16.3c-6.7-3.5-19.9-4.6-26.1,0c-7.8,5.8-2,13.7,4.4,18.9
			c-7.4-1.4-16.3,1.2-17,5.6c-4.6-1-9.3-0.8-13.8,0.5c-2.5,0.6-4.9,1.8-6.9,3.5c-4.7-8.8-20.7-17.6-37.5-10.5s-3.5,18.5,11.7,22.1
			c-2,0.4-4,1-5.9,1.8c-6.9,2.8-12.3,7.9-6.3,11.9c-3.5,0.5-6.9,1.8-9.9,3.7c-1-3-3.8-6.5-8.4-8.5c-1.9-0.8-4-1.4-6.1-1.5
			c-7.3-0.7-14,1.8-17.6,5.2c-3.9,3.6-5.2,7.7-4.4,11.8c-12.6,3-14,9.8-12,16.7c-5.3-0.7-10,2.4-13,4.3c0.2-6.4-6.4-17.4-21.4-11.7
			c4.2-8.4-0.3-22.5-20.6-22.5c-9.6,0.1-16.6,4.3-18.5,9.2c-6.3-5.6-18.7-4.1-25.7,0.3c-6.6,4.2-5.9,9.6-0.6,14
			c-8-0.4-15.1,2.4-18.9,6c-1.1-5.7-2.6-12.2-10.5-16.3c-6.7-3.5-19.9-4.6-26.1,0c-7.4,5.5-2.6,12.8,3.3,18c0.3,0.3,0.7,0.6,1.1,0.9
			c-1.2-0.2-2.3-0.3-3.5-0.4l0,0c-6.4-0.2-12.9,2.2-13.5,6c-7.3-1.8-16.9,0.3-20.7,4c-3.9-7.1-15.1-14.3-28.2-12.9
			c-3.2,0.3-6.3,1.1-9.3,2.4c-8.2,3.4-9.2,8-6.3,12.1c-5.6,0.1-12.9,1.8-18.5,2.8l0,0c-2.4,0.6-4.9,0.8-7.4,0.8
			c-2.6-0.3-3.7-1.3-3.7-2.6c0-1.5,1.5-3.6,3.7-5.6c4.1-3.9,11.6-9,5-12.1c-1.3-0.6-2.7-1-4.2-1.1c-6.7-0.7-15.4,1.7-15.9,1.9
			c2.8-2.9,5.4-5.9,7.9-9.1c7.8-10.1,10.7-19.1-1-22.2c-15.6-4.2-32.4,7.6-44.3,20.1c0,0,2.2-9.1-7.2-11.6
			c-10.5-2.8-17.5,0.7-22.1,4.6c-0.2,0.1-0.3,0.3-0.5,0.4c4.4-8.1-7.6-10.4-14.8-9c2.2-1.8,4.3-3.8,6.1-6.1c1.1-1.4,2.1-2.9,2.9-4.5
			c4.8-9.3,2.6-18.8-10.3-21.6c-17.3-3.8-31.6,8.6-41.3,15.9l0,0l-1.3,1c0,0-0.5-0.8-1.5-2c-3.1-3.8-11-11.8-21.8-11.4l0,0
			c-1.8,0.1-3.6,0.4-5.4,0.9c-17.2,5-15.9,15.7-14.2,23.3c-12.4-5.8-27.1-0.1-27.7,0.2c4.5-6.9,5.1-22.9-13-23.4
			s-21.7,11.1-19.6,17.4c-11.1-5.4-21.5-7-27.3-3.3s-0.9,12.1,6.3,15.3c-10.2-0.4-23.5,0.6-32.3,3.5s-13.1,11.2-14.5,14.4
			c-4.9-4.8-14.9-9.2-24.6-1.1c-3.8-6.3-9.1-14.7-22-13.7s-15.9,9.8-14.6,14.8c-0.7-0.5-1.5-0.9-2.2-1.4
			c-8.9-5.8-19.2-13.5-33.5-7.9c-0.9,0.3-1.8,0.8-2.7,1.2c-5.6-7-21.1-6.3-30.9-0.8c1.6-3.2,0.8-7-2-9.3c-3.1-2.7-8.6-4.1-16.3-2.7
			c-14.5,2.8-16.2,9.9-14.1,17.1c-4.9-0.7-9.2,1.9-12.2,3.8l-0.8,0.5c0-0.9-0.1-1.8-0.3-2.6l0,0c-0.9-4.1-3.6-7.6-7.4-9.4
			c-3.4-1.5-7.9-1.8-13.7,0.4c4.2-8.4-0.3-22.5-20.5-22.5c-9.6,0.1-16.6,4.3-18.5,9.2c-6.3-5.6-18.7-4.1-25.7,0.3
			c-6.6,4.1-5.9,9.6-0.6,14c-8-0.4-15.1,2.4-18.9,6c-1.1-5.7-2.6-12.2-10.5-16.3c-6.7-3.5-19.9-4.5-26.1,0c-7.8,5.8-2,13.7,4.4,18.9
			c-7.4-1.4-16.3,1.2-17,5.6c-7.2-1.7-16.9,0.3-20.7,4c-2.7-5-9.1-10.1-17.2-12.1c-6.8-1.7-13.9-1.2-20.3,1.6
			c-12,5-8.6,12.3-0.2,17.4c-0.5,0-1.1-0.1-1.6-0.1c-2.8-0.1-6,0.2-7.8,1.4c0.2-3.2-4.5-6.4-10.4-6.8s-12,1.8-13.4,5l-1.7-0.3
			c0.4-1.1,0.2-2.3-0.6-3.1c-1-1.1-2.1-2-3.4-2.8c-1.5-1.2-3.2-2-5-2.4l0.4-0.5c2.7,0.8,5.6,1.2,8.4,1.2c2.5-0.1,4.9-0.5,7.3-1.1
			c4.5-1.1,9.3-2.5,11.5-5c0.9-1,1.4-2.1,0.8-3.2c-0.7-1.2-2.6-2.1-4.6-2.8c-2.3-0.8-4.7-1.3-7.2-1.7v-0.2c4,0.4,8,0.4,12,0.1
			c4-0.4,7.9-1.4,10.2-3.2c0.7-0.4,1.2-1.1,1.4-1.9c0.2-1.3-1.4-2.6-3.4-3.3c-2.2-0.7-4.6-1.1-6.9-1.3l-4.2-0.5
			c2-0.2,3.8-0.8,5.6-1.7c0.6-0.3,1.2-0.7,1.8-1.2l0,0c0.8-0.6,1.6-1.3,2.2-2.2c0.4-0.5,0.6-1,0.7-1.6c0.2-1.9-2.4-3.7-5.7-4.5
			c-3.4-0.6-7-0.7-10.4-0.1h-0.1c2.8-0.9,5.3-2.4,7.4-4.5c1.1-0.9,1.8-2,2.2-3.4c0.5-3-4-5.6-9-7c-6.7-1.8-13.7-2.2-20.5-1
			c-6.7,1.2-12.2,4.3-14.1,8c-0.6,1.3-0.9,2.8-1,4.2c-2.9-3-10.2-4-16.1-3c-5.1,0.9-9.8,3.3-13.4,7c-2.8-3-10.2-4.4-15.8-3l-0.8,0.1
			c0.1-0.6,0.1-1.3-0.2-1.8c-1-2-5.1-3.3-9-3.2c-3.5,0.1-6.9,1.1-9.8,3.1c-1.6,1-2.8,2.4-3.6,4.1c-0.5-1.3-1.2-2.5-2.2-3.6
			c-0.5-0.7-1.2-1.2-1.9-1.6c-2.7-1.3-7.2-0.7-9.7,0.7s-3.6,3.4-4.7,5.3c-0.1,0.2-0.3,0.3-0.5,0.4c-0.3,0.1-0.6,0.1-0.9,0
			c-2.7-0.4-5.3-0.5-8-0.6c-2.5-0.1-5.1,0.5-7.4,1.5c-1.9,1.1-2.7,2.6-2.5,4.1c0.3,1.5,1.2,2.9,2.4,3.8h-0.1c-2.9,0.1-5.7,0.4-8.6,1
			l0,0c-3.6,0.7-7.2,2-10.4,3.8c0.5-0.5,0.9-1.1,1-1.9l0.1-0.3c0.4-1.4,0.4-3,0-4.4c-0.9-1.6-2.1-2.9-3.5-4
			c-1.7-1.7-3.8-2.9-6.2-3.4c-2.1-0.3-4.2-0.2-6.2,0.3c-1.8,0.5-3.6,1.1-5.4,1.9l-0.4-0.2c2.4-1.9,4.4-4.2,5.9-6.9
			c1.1-2.1,1.6-4.4-0.2-6.3s-5.7-3-9.6-3.2c-3.8-0.1-7.5,0.5-11.1,1.7c-3.6,1.1-6.9,2.9-9.8,5.3c0.9-2.6-1.2-5.5-5-7.3
			c-4.2-1.9-10.1-2.5-15.4-1.8c-2.3,0.2-4.6,0.9-6.6,1.9c-2.9,1.6-3.9,4.1-3.2,6.3s2.7,4.3,4.9,6.2h-1.4c-4.5-0.4-9,0.2-13.3,1.5
			c-3.9,1.4-6.6,3.8-6.7,6.3s2.8,5,6.5,6.7l-0.3,0.2c-6.5-0.7-13.6,1.3-16.2,4.6c-0.6-2.6-3.9-4.8-7.5-6.5c-2.7-1.3-6.3-2.5-9.7-2
			c-1.2,0.2-2.4,0.6-3.5,1.1l-6.9,2.8l-0.3-0.1c0.6-0.7,1.1-1.5,1.5-2.3c1.3-2.3,2.5-4.8,1.7-7.2s-4-4.8-8.4-5.1
			c-3.4-0.1-6.8,0.7-9.8,2.3c-6.2,3.3-9.4,8.1-8.7,12.8c-1.6-0.8-3.4-1.2-5.2-1c-2.4,0.3-4.8,0.9-7,1.9l-3.1,1.2l-0.8-0.3
			c1.3-1,1.9-2.2,1.6-3.5c-0.1-0.4-0.3-0.8-0.6-1.2c-0.8-0.9-1.8-1.5-2.9-1.9c-0.4-0.2-0.9-0.3-1.3-0.4c-2.1-0.5-4.3-0.6-6.4-0.3
			c-1.1,0.1-2.2,0.3-3.2,0.6l-0.7,0.2c-2.8,0.9-5.4,2.3-7.7,4.1l-1.1-0.3c0.6-1,1-2,1.2-3.1c0.3-1.1,0.2-2.3-0.2-3.4
			c-0.6-1.2-1.6-2.2-2.8-2.7c-1.3-0.5-2.6-0.9-4-1c-1.3-0.1-2.5-0.1-3.8,0h-0.3l0,0c-2,0.3-4.1,0.7-6,1.4c-0.4,0.1-0.8,0.3-1.1,0.4
			c-0.7,0.2-1.4,0.5-2,0.8s-1.3,0.6-2,0.9l0,0c-1,0.5-1.9,1.1-2.8,1.7l0,0c-1.7,1.3-2.6,2.7-2.5,4.3c-0.5-0.2-1-0.4-1.5-0.6
			s-0.9-0.3-1.3-0.5l-0.2-0.1c-2.4-0.7-4.8-1.2-7.3-1.3c-0.2,0-0.3,0-0.5,0c-1.8-0.1-3.5,0-5.2,0.3c-1.4,0.2-2.9,0.6-4.2,1.2l0,0
			c-3.3,1.5-5.6,3.7-5.3,6s2.7,4.1,5.9,5.4c3,1.1,6.1,1.8,9.3,2.1l1.4,0.1h0.3l-0.2,0.2l-0.3,0.3c-0.4,0.1-0.8,0.2-1.1,0.3
			c-3.4,0.8-6.5,2.5-9,4.8c-1,0.8-1.6,2.1-1.6,3.4c0.3,2.3,3.9,4.2,7.8,5.2c0.9,0.2,1.9,0.4,2.8,0.6c1,0.1,2,0.2,3,0.2
			c0.4,0,0.8,0,1.2-0.1L43,570l-1.5,0.2c-1,0.2-2,0.3-3,0.5c-5.6,0.9-11,2.1-16.4,3.4c-2.3,0.5-4.5,1.2-6.6,2.1
			c-0.2,0.1-0.4,0.2-0.5,0.3c-2,1.1-3.3,2.7-2.7,4.2c0.4,1.1,1.8,1.9,3.5,2.5c1.7,0.5,3.5,0.8,5.3,0.8c3.7-0.1,7.4-0.7,11-1.8
			l6.4-1.7l1.7-0.4l0,0l0.5-0.1l2.7-0.7l0.1,0.1c-0.7,0.3-1.3,0.7-1.9,1s-1.1,0.7-1.6,1l-0.1,0.1c-0.5,0.3-1,0.7-1.5,1
			s-0.9,0.7-1.3,1.1c-1.3,0.9-2.2,2.1-2.7,3.6c-0.3,1.7,0.9,3.3,3,4.5L38,592c0.2,0.1,0.4,0.2,0.5,0.2c0.4,0.2,0.9,0.3,1.3,0.5
			l-0.3,0.6l-1-0.1l-0.8-0.1h-0.6c-2.1-0.2-4.3-0.1-6.4,0.2c-2.6,0.4-5.1,1.5-5.5,3c0,0.1-0.1,0.3-0.1,0.4c0.1,0.9,0.5,1.8,1.3,2.3
			c2,1.7,4.4,2.9,7,3.4l-0.2,0.2c-3.8-0.4-7.9-0.6-11.3,0.3c-2.2,0.5-4.2,1.8-5.6,3.5c-0.3,0.5-0.6,1-0.7,1.5l0,0
			c-0.3,1-0.3,2-0.1,3l0,0c0,0.1,0,0.1,0,0.2l0,0h-0.2c-0.9-1.3-2.1-2.2-3.6-2.7c-0.3-0.1-0.6-0.3-0.9-0.4c-2.1-0.7-4.3-1.1-6.6-1.3
			c-0.1,0-8.1,0.1-8.2,0.1v27l1624-20C1619.7,596.3,1626.1,629.7,1626,612z"/>
		
			<linearGradient id="SVGID_5_" gradientUnits="userSpaceOnUse" x1="787.6082" y1="262" x2="787.6082" y2="414.0601" gradientTransform="matrix(1 0 0 -1 0 900)">
			<stop  offset="0" style="stop-color:#00394D"/>
			<stop  offset="0.52" style="stop-color:#025A5D"/>
			<stop  offset="0.95" style="stop-color:#047268"/>
		</linearGradient>
		<path class="st4" d="M1642.7,577.7c0.2-20.7,0.3-41.3,0.3-62c-1.1,1-2.1,1.9-3,2.7c0,0-9.5-16.7-23.7-11.9s-13.2,15-11.8,22.3
			c-10.3-5.5-22.4-0.1-22.9,0.2c3.8-6.6,4.2-21.9-10.8-22.4s-18,10.6-16.2,16.7c-9.2-5.2-17.8-6.6-22.6-3.2s-0.7,11.6,5.3,14.7
			c-8.4-0.4-19.4,0.5-26.8,3.3s-10.9,10.7-12,13.8c-4-4.6-12.3-8.8-20.4-1.1c-3.2-6-7.6-14.1-18.2-13c-1,0.1-1.9,0.2-2.8,0.5
			c-2.9-2.7-8-4.1-13.6-4c-6.8,0-13.4,2.5-18.5,7c-0.7,0.1-1.3,0.1-2,0.3c-1.9-3.4-4.9-6-10.8-7c-3.8-0.6-9.1-0.7-12,1.2
			c-2.6,1.7-2,4.4-1.5,6.6c-8.4-4-17.6-5.8-26.9-5.3c9.4-6,16.7-15.7,13.9-24.2c-3-9.2-17.8-9.1-26.9-3.2
			c2.7-6.6-2.9-14.1-15.2-11.4c-12,2.6-13.4,9.5-11.7,16.4c-4.4-0.7-8.3,2.3-10.8,4.2c0.2-6.1-5.3-16.6-17.7-11.2
			c3.5-8-0.2-21.5-17-21.5c-8,0.1-13.7,4.1-15.3,8.8c-5.2-5.3-15.5-3.9-21.2,0.2c-5.5,4-4.9,9.2-0.5,13.4
			c-6.6-0.4-12.5,2.3-15.7,5.8c-0.9-5.4-2.1-11.7-8.7-15.6c-5.6-3.4-16.5-4.4-21.6,0c-6.5,5.5-1.7,13.1,3.7,18.1
			c-6.1-1.3-13.5,1.1-14.1,5.4c-6-1.7-14,0.3-17.1,3.8c-3.9-8.4-17.1-16.8-31.1-10.1s-2.9,17.7,9.7,21.2
			c-7.4,1.7-16.4,8.2-10.1,13.1c-3,0.5-5.8,1.7-8.2,3.6c-1.7-5.3-6.4-9.1-12-9.7c-5.4-0.6-10.7,1.2-14.6,5c-2.9,2.9-4.3,7-3.6,11.1
			c-10.4,2.9-11.6,9.4-9.9,15.9c-4.4-0.7-8.3,2.3-10.8,4.2c0.2-6.1-5.3-16.6-17.7-11.2c3.5-8-0.2-21.5-17-21.5
			c-8,0.1-13.7,4.1-15.3,8.8c-5.2-5.3-15.5-3.9-21.2,0.2c-5.5,4-4.9,9.2-0.5,13.4c-6.6-0.4-12.5,2.3-15.7,5.8
			c-0.9-5.4-2.1-11.7-8.7-15.6c-5.6-3.4-16.5-4.4-21.6,0c-6.5,5.5-1.7,13.1,3.6,18.1c-6.1-1.3-13.5,1.2-14.1,5.4
			c-6-1.7-14,0.3-17.1,3.8c-3.9-8.4-17.1-16.8-31.1-10.1c-6.8,3.3-7.6,7.6-5.2,11.6c-7.3,0.2-17.8,3.9-21.5,3.4
			c-4.6-0.6-3.4-4.1,0-7.9s9.6-8.6,4.1-11.6s-16.1,0.6-16.6,0.8c10.6-12.9,18.3-26.1,5.7-30c-12.9-4-26.8,7.2-36.7,19.2
			c0,0,1.8-8.7-6-11.1c-9-2.8-14.9,0.9-18.7,4.8c3.6-7.8-6.3-10-12.3-8.6c11.5-10.7,13.8-27.1-1.1-30.8s-27.2,9.3-35.2,16.2
			c0,0-9.5-16.7-23.7-11.9s-13.2,15-11.8,22.3c-10.3-5.5-22.4-0.1-22.9,0.2c3.8-6.6,4.3-21.8-10.8-22.4s-18,10.6-16.3,16.7
			c-9.2-5.2-17.8-6.6-22.6-3.2s-0.7,11.6,5.2,14.7c-8.4-0.4-19.4,0.5-26.8,3.3s-10.9,10.7-12,13.8c-4-4.6-12.3-8.8-20.4-1.1
			c-3.2-6-7.6-14.1-18.2-13.1s-13.2,9.3-12.1,14.1c-7.8-5.6-16.7-14.7-29.6-8.9c-0.8,0.3-1.5,0.7-2.2,1.2c-4.7-6.7-17.5-6-25.6-0.8
			c2.7-6.6-2.9-14.1-15.1-11.4c-12,2.6-13.4,9.5-11.6,16.3c-4.4-0.7-8.3,2.3-10.8,4.1c0.1-6.1-5.3-16.6-17.7-11.2
			c3.5-8-0.2-21.5-17-21.5c-8,0.1-13.7,4.1-15.3,8.8c-5.2-5.3-15.5-3.9-21.2,0.3c-5.5,4-4.9,9.2-0.5,13.4
			c-6.6-0.4-12.5,2.3-15.7,5.8c-0.9-5.4-2.1-11.7-8.7-15.6c-5.6-3.3-16.5-4.4-21.6,0c-6.5,5.5-1.7,13.1,3.7,18.1
			c-6.1-1.3-13.5,1.2-14.1,5.4c-6-1.7-14,0.3-17.1,3.8c-3.9-8.4-17.1-16.8-31.1-10.1c-9.9,4.8-7.1,11.7-0.2,16.6
			c-0.5,0-0.9-0.1-1.4-0.1c-2.3-0.1-5,0.2-6.4,1.4c0.2-3.1-3.8-6.1-8.6-6.5s-10,1.7-11.1,4.7l-1.4-0.3c0.4-1,0.2-2.2-0.5-3
			c-0.8-1-1.7-1.9-2.8-2.7c-1.2-1.1-2.6-1.9-4.1-2.3l0.3-0.5c2.3,0.7,4.6,1.1,7,1.2c2-0.1,4.1-0.5,6-1.1c3.8-1.1,7.7-2.4,9.6-4.8
			c0.8-0.8,1-2,0.6-3c-0.5-1.2-2.1-2-3.8-2.7c-1.9-0.7-3.9-1.3-5.9-1.6v-0.2c3.3,0.4,6.6,0.4,9.9,0.1c3.3-0.4,6.5-1.4,8.5-3.1
			c0.6-0.4,1-1.1,1.2-1.8c0.2-1.3-1.1-2.5-2.9-3.2c-1.8-0.6-3.8-1-5.7-1.2l-3.4-0.5c1.6-0.2,3.2-0.7,4.6-1.6c1.3-0.8,2.4-2,3.2-3.3
			c0.3-0.5,0.5-1,0.6-1.5c0.2-1.8-2-3.6-4.7-4.3c-2.8-0.6-5.8-0.6-8.6-0.1l0,0c2.4-0.9,4.5-2.4,6.1-4.3c0.9-0.9,1.5-2,1.8-3.2
			c0.4-2.9-3.4-5.4-7.4-6.7c-5.5-1.8-11.3-2.1-17-0.9c-5.5,1.2-10.1,4.1-11.7,7.7c-0.5,1.3-0.8,2.7-0.8,4.1
			c-2.4-2.8-8.5-3.9-13.3-2.9c-4.3,0.9-8.3,3.3-11.1,6.7c-2.3-2.9-8.5-4.2-13.1-2.9l-0.6,0.1c0.1-0.6,0-1.2-0.2-1.8
			c-0.9-2-4.2-3.2-7.5-3.1c-2.9,0.1-5.8,1.1-8.1,2.9c-1.4,1-2.4,2.4-3,4c-0.4-1.2-1-2.4-1.8-3.4c-0.4-0.6-1-1.1-1.6-1.5
			c-2.2-1.3-5.9-0.7-8,0.6s-2.9,3.3-3.9,5c-0.1,0.2-0.2,0.3-0.4,0.4c-0.2,0.1-0.5,0.1-0.7,0c-2.2-0.3-4.4-0.5-6.6-0.5
			c-2.1-0.1-4.2,0.5-6.1,1.5c-1.4,0.8-2.2,2.3-2.1,3.9c0.3,1.4,1,2.7,2,3.7h-0.1c-5.6,0.1-11,1.8-15.8,4.7c0.5-0.6,0.9-1.3,0.9-2.1
			c0.4-1.4,0.4-2.8,0-4.2c-0.7-1.5-1.7-2.8-2.9-3.8c-1.3-1.6-3.1-2.7-5.1-3.2c-1.7-0.3-3.5-0.2-5.2,0.3c-1.5,0.5-3,1.1-4.4,1.8
			l-0.3-0.2c2.1-1.8,3.7-4.1,4.9-6.6c0.9-2,1.3-4.2-0.1-6s-4.7-2.9-7.9-3.1c-3.1-0.1-6.3,0.5-9.2,1.6c-3,1.1-5.8,2.8-8.1,5.1
			c0.7-2.5-1-5.3-4.2-6.9c-3.5-1.8-8.4-2.4-12.8-1.7c-1.9,0.2-3.8,0.8-5.5,1.8c-2.2,1.2-3.2,3.7-2.7,6.1c0.5,2.2,2.2,4.1,4.1,6h-1.2
			c-3.7-0.3-7.5,0.2-11,1.5c-3.2,1.3-5.5,3.6-5.5,6s2.3,4.8,5.4,6.4l-0.3,0.2c-5.3-0.7-11.3,1.2-13.4,4.4c-0.5-2.5-3.3-4.6-6.2-6.2
			c-2.2-1.2-5.2-2.4-8.1-1.9c-1,0.2-2,0.6-2.9,1.1L43,552l-0.3-0.1c0.5-0.7,0.9-1.4,1.3-2.2c1-2.2,2-4.6,1.4-6.9s-3.3-4.6-7-4.8
			c-2.9-0.1-5.7,0.7-8.1,2.2c-5.1,3.1-7.8,7.8-7.2,12.2c-1.3-0.8-2.8-1.1-4.3-1c-2,0.2-4,0.9-5.8,1.8c-0.9,0.4-1.7,0.8-2.5,1.2
			l-0.7-0.3c1-0.8,1.5-2,1.3-3.3c-0.5-1.4-1.5-2.5-2.9-3c-2.9-1.1-6.1-1.1-9.1-0.1c-2.6,0.9-4.9,2.3-6.9,4.1l-0.9-0.3
			c0.5-1,0.8-2,1-3c0.4-2.1,0-4.5-2.5-5.9c-2-0.9-4.3-1.2-6.5-0.9c-2.1,0.3-4.2,0.9-6.2,1.8c-4.1,1.7-8,4.4-7.6,7.5
			c-4.1-2.1-8.7-2.9-13.3-2.1c-4.6,0.8-8.2,3.7-7.9,6.7c0.2,2.1,2.2,4,4.9,5.2c2.9,1.2,6,2,9.1,2.2l-0.4,0.5
			c-3.2,0.8-6.2,2.5-8.4,4.9c-0.8,0.9-1.3,2-1.3,3.2c0.2,2.3,3.2,4,6.4,5c1.9,0.6,3.9,0.8,5.9,0.6l0.2,0.4c-5.8,1-11.6,2.3-17.3,3.9
			c-2.1,0.5-4.1,1.3-6,2.3c-1.7,1-2.7,2.6-2.2,4c0.7,2,4.1,3.2,7.3,3.2c3.1-0.1,6.2-0.7,9.1-1.7l9.4-2.8l0.1,0.1
			c-1.9,1.1-3.7,2.5-5.3,4c-1.1,0.9-1.9,2.1-2.3,3.5c-0.4,2.1,1.5,4.2,4.5,5.2l-0.3,0.6c-2.4-0.3-4.9-0.3-7.3,0
			c-2.4,0.4-4.6,1.7-4.7,3.2c0.1,0.8,0.4,1.6,1,2.2c1.6,1.6,3.6,2.7,5.8,3.2l-0.1,0.2c-3.1-0.4-6.5-0.6-9.4,0.3
			c-1.9,0.5-3.5,1.7-4.6,3.4c-0.8,1.4-1,3-0.6,4.5h-0.2c-0.9-1.4-2.2-2.5-3.7-3c-1.7-0.7-3.6-1.1-5.4-1.2l-0.2-0.1V638l1709.8-12.7
			C1642.3,609.4,1642.5,593.6,1642.7,577.7z"/>
	</g>
</g>
</svg>
