<svg id="Layer_1" data-name="Layer 1" xmlns="http://www.w3.org/2000/svg" xmlns:xlink="http://www.w3.org/1999/xlink" viewBox="0 0 1099.84 962.8"><defs><style>.cls-1{opacity:0.22;}.cls-2{fill:#3beaa2;}.cls-3{fill:url(#linear-gradient);}.cls-4{fill:url(#linear-gradient-2);}.cls-5{fill:url(#linear-gradient-3);}.cls-6{fill:url(#linear-gradient-4);}.cls-7{fill:url(#linear-gradient-5);}.cls-8{stroke-miterlimit:22.93;fill:url(#linear-gradient-6);stroke:url(#linear-gradient-7);}.cls-9{fill:url(#linear-gradient-8);}.cls-10{fill:url(#linear-gradient-9);}.cls-11{fill:url(#linear-gradient-10);}.cls-12{fill:url(#linear-gradient-11);}</style><linearGradient id="linear-gradient" x1="5734" y1="507.02" x2="5423.96" y2="-227.58" gradientTransform="translate(-3742.73 0) scale(0.74 1)" gradientUnits="userSpaceOnUse"><stop offset="0.07" stop-color="#195b4f"/><stop offset="0.2" stop-color="#1c6051"/><stop offset="0.36" stop-color="#266f55"/><stop offset="0.55" stop-color="#37885d"/><stop offset="0.74" stop-color="#4dab68"/><stop offset="0.94" stop-color="#6ad775"/><stop offset="0.98" stop-color="#72e379"/></linearGradient><linearGradient id="linear-gradient-2" x1="14.16" y1="393.16" x2="336.02" y2="393.16" gradientTransform="matrix(1, 0, 0, 1, 0, 0)" xlink:href="#linear-gradient"/><linearGradient id="linear-gradient-3" x1="5310.02" y1="533.13" x2="5229.7" y2="256.71" xlink:href="#linear-gradient"/><linearGradient id="linear-gradient-4" x1="-4883.2" y1="403.23" x2="-5175.57" y2="-289.5" gradientTransform="matrix(-1, 0, 0, 1, -4312.73, 0)" xlink:href="#linear-gradient"/><linearGradient id="linear-gradient-5" x1="501.69" y1="545.09" x2="231.13" y2="280.11" gradientUnits="userSpaceOnUse"><stop offset="0.07" stop-color="#195b4f"/><stop offset="0.19" stop-color="#1d6151"/><stop offset="0.36" stop-color="#287256"/><stop offset="0.56" stop-color="#3b8f5f"/><stop offset="0.78" stop-color="#55b66b"/><stop offset="0.98" stop-color="#72e379"/></linearGradient><linearGradient id="linear-gradient-6" x1="-5221.19" y1="440.92" x2="-5319.24" y2="88.7" gradientTransform="matrix(-1, 0, 0, 1, -4312.73, 0)" gradientUnits="userSpaceOnUse"><stop offset="0.07" stop-color="#195b4f"/><stop offset="0.21" stop-color="#2c7858"/><stop offset="0.46" stop-color="#4aa666"/><stop offset="0.68" stop-color="#60c770"/><stop offset="0.86" stop-color="#6ddc77"/><stop offset="0.98" stop-color="#72e379"/></linearGradient><linearGradient id="linear-gradient-7" x1="785.31" y1="328.94" x2="1088.84" y2="328.94" gradientUnits="userSpaceOnUse"><stop offset="0" stop-color="#72e379"/><stop offset="0.15" stop-color="#6fde78"/><stop offset="0.33" stop-color="#66d073"/><stop offset="0.51" stop-color="#57b96c"/><stop offset="0.7" stop-color="#419962"/><stop offset="0.9" stop-color="#277055"/><stop offset="0.99" stop-color="#195b4f"/></linearGradient><linearGradient id="linear-gradient-8" x1="312.61" y1="277.78" x2="937.07" y2="277.78" gradientUnits="userSpaceOnUse"><stop offset="0.15" stop-color="#3e9360"/><stop offset="0.18" stop-color="#3e9360"/><stop offset="1" stop-color="#3e9360"/></linearGradient><linearGradient id="linear-gradient-9" x1="5571.26" y1="883.91" x2="5561.2" y2="368.6" gradientTransform="translate(-3742.73 0) scale(0.74 1)" gradientUnits="userSpaceOnUse"><stop offset="0" stop-color="#907d61"/><stop offset="0.36" stop-color="#6d6b4d"/><stop offset="0.58" stop-color="#5e6345"/></linearGradient><linearGradient id="linear-gradient-10" x1="732.13" y1="877.63" x2="721.5" y2="333.57" gradientTransform="matrix(1, 0, 0, 1, 0, 0)" xlink:href="#linear-gradient-9"/><linearGradient id="linear-gradient-11" x1="682.94" y1="562.43" x2="524.61" y2="17.48" gradientUnits="userSpaceOnUse"><stop offset="0.07" stop-color="#195b4f"/><stop offset="0.19" stop-color="#1f6552"/><stop offset="0.4" stop-color="#307f5a"/><stop offset="0.67" stop-color="#4ca967"/><stop offset="0.98" stop-color="#72e379"/></linearGradient></defs><ellipse class="cls-1" cx="576.92" cy="901.44" rx="409.17" ry="50.36"/><path class="cls-2" d="M186.27,309.64c3.64-34.1,13.24-85.58,42.1-127.63,78-113.6,227.28-60.74,275-43.77C621.33,180.12,683.23,287,720.67,345.46c6.19,6.25,8.33,35.88,14.52,42.13-82.44,19.38-164,4.15-277.75,2.2a1206.28,1206.28,0,0,1-257.86-32.58Z"/><path class="cls-3" d="M182.47,305.1c3.61-32.83,13.1-82.38,41.66-122.86C301.28,72.88,449,123.77,496.3,140.1,613,180.42,678.78,281.29,715.82,337.56c6.13,6,6,41.38,12.11,47.4-81.58,18.65-164.54-.82-277.12-2.7A1224.5,1224.5,0,0,1,195.65,350.9Z"/><path class="cls-4" d="M27.17,409.79s31.48-33.67,64.48-46.87c36.05-19.8,83.78-64,141.66-43.56,44.68,19.14,78.19,45.54,98,94.39,9.65,28.38,11.17,62.7-62.45,58.08l-205.12.42S-16.5,464.57,27.17,409.79Z"/><path class="cls-5" d="M24.16,417.05S56,382.83,89.39,369.41c36.47-20.13,84.75-65.09,143.31-44.29,45.2,19.46,79.1,46.3,99.13,96,9.76,28.85,11.3,63.74-63.18,59.05l-207.5.42S-20,472.74,24.16,417.05Z"/><path class="cls-2" d="M944.4,242.69l-15.16,55.53q-11.85,2.88-24.1,5.62-11.21,2.52-22.74,4.9-28.08,5.82-58,10.67-15.4,2.54-31.31,4.69A1319.38,1319.38,0,0,1,636.1,336.22q-44.4.76-86.31-1.32c-40.51-1.93-79.21-5.62-115.9-10.65-7.6-1-15.13-2.13-22.55-3.27-1.32-.21-2.64-.39-3.94-.6q-22.17-3.48-43.31-7.55-18.76-3.57-36.71-7.52-14.38-3.1-28.18-6.46c7-7.31,14.07-14.58,21.11-21.89,3.18-5.08,6.58-10.43,10.25-16,.71-1.09,1.43-2.17,2.17-3.28,23.74-35.75,57.36-80.07,101.16-120.69,32.87-30.48,71.45-58.87,115.9-80q16.49-7.89,34-14.31c54.33-19.79,224.08-81.48,312.71,51.08,29.15,43.59,41,95.91,46.23,134.93.35,2.71.67,5.33,1,7.88C944,238.66,944.19,240.7,944.4,242.69Z"/><path class="cls-6" d="M943.2,240.47c-4.11-38.31-14.9-96.14-47.37-143.38C808.12-30.54,640.14,28.85,586.4,47.91,453.74,95,367.76,207.79,325.64,273.46l-20.89,21.07a1356.22,1356.22,0,0,0,333.37,36,1358.52,1358.52,0,0,0,290.09-36.61Z"/><path class="cls-2" d="M396.3,434.48c-.39,1.53-.78,3.06-1.2,4.63-.58,0-1.14.09-1.72.12-21.78,1.56-41.34,2.7-58.81,3.36-84,3.19-120.63-4.21-131.59-23.93-9.53-17.08.18-43.35,14.94-79.94,28.65-59.53,76.18-77.45,114.81-81.06,1.19-.12,2.37-.24,3.53-.3,6-.45,11.72-.54,17.12-.42,24.45.54,41.72,5.77,41.72,5.77a22.41,22.41,0,0,1,2.85,3.73c4,6.19,11.08,20.71,13.05,48.67.16,1.9.25,3.85.34,5.87C412.46,347.1,409.26,383.81,396.3,434.48Z"/><path class="cls-7" d="M394.57,434.3c-.38,1.62-.77,3.24-1.19,4.93-.46,2-1,4-1.48,6.07C372,446.83,354,448,337.72,448.64c-92.59,4.09-127.81-5.14-134.74-30-4.85-17.29,4.05-42.15,16.85-75.37,27.6-60.14,73.34-78.51,110.73-82.35,1.18-.13,2.36-.22,3.52-.34a161.43,161.43,0,0,1,17.24-.45c23.78.54,40.58,5.87,40.58,5.87a24.73,24.73,0,0,1,2.92,4c3.69,6,9.85,19.48,12.12,44.43.19,1.9.35,3.85.46,5.9C409.05,346.14,406.64,382.88,394.57,434.3Z"/><path class="cls-2" d="M917.57,424c3.7,0,111-9.95,111-9.95s66.61-18.25,28.37-63a71.86,71.86,0,0,1-24.17-27.17c-7.62-14.67-5.59-21.86-10.45-35.37-15.39-42.77-67-57.33-67-57.33h0s-70-18.87-122.12,18.16c-5.81,4.13-8.67,6.36-10.88,10.21C798.22,301.44,873.16,424,873.16,424Z"/><path class="cls-8" d="M863.85,429.27c3.57,0,202.45-5.25,202.45-5.25s36-7.18,15.93-51.37c-11.74-22.09-20.27-39-27.41-53.31-7.36-14.71-27.18-37.07-40.49-49.42-32.7-34.24-95.45-36.48-95.45-36.48h0s-67.63-18.93-118,18.22c-5.61,4.14-8.37,6.38-10.51,10.24-23.28,42,49.11,165,49.11,165Z"/><path class="cls-9" d="M911.83,310.88s-61.08-67-125.11-93.33c-69.94-39.43-162.53-127.5-274.83-86.75-86.69,38.12-151.7,90.7-190.12,188-18.72,56.52-21.67,124.88,121.16,115.67l398,.84S996.54,420,911.83,310.88Z"/><path class="cls-10" d="M566.26,850.11c.33-1.13-2.16-2.09-4.45-6.37-2.12-4-4.3-7.84-4.68-9.81-2-10.25-8.16-22.59-10.73-27.17-8.15-14.54-12-36.37-18.36-72.57-2.77-15.7-5.91-36.8-8-62.21-.46-36.11,3.33-63.33,11.12-79a482.31,482.31,0,0,0,22.24-53.59s45.79,2.72,49.71,0,15.05-15.69,13.09-49.18l.65-8.05L605,486.45s-3.62,30-18.7,32.36c-18,3.25-38.54-11.21-35.52-32.36H537.74s4,61.67-15.75,74.7c-14.74,5.12-23.45-3-22.78-39.09l.67-36.1-23.46.05s1.34,38.38,0,40.71-11.73,26.06-22.78-22.8c-9.39-34.44-4-17.85-4-17.85l-12.74.38s5.7,37.94,24.46,61.67c12.4,22.81,12.74,61,3.35,74.46-10.05,13.5-27.14,20.94-40.21-59.1-8.71-53.05-11.05-77-11.05-77l-18.1-.26s7.37,63.33,6,74.5c-1.67,12.56-2.34,51.19-41.88,34.9-94.81-35.65,14.24-87.26.68-116.8-3.88-8.44-64.89,83.8-70.61,61.22-8.94-35.35-13.84-55.64-13.84-55.64l-14.74-.5s-.68,20.79,2.34,26.38c-4.72.44-44-3.93-61.43-15.16-15.57-10-35.94-24.54-37.59-30.07-3.94-.21-16,.22-19.91,0,3.07,10.27,8.14,14.34,11.89,18.12,14.45,14.51,45.21,33.69,98,43.29,1.74.31,8.53,1,12.49,2.39,0,.14.21,2.13.21,2.13S269,583,316.25,608.15c42.22,21.88,60.65,33,71.38,41.89s18.09,18.14,16.41,48.39a327.79,327.79,0,0,0,3,72.36,293.16,293.16,0,0,0,23.12,78c36.28,1.57,59.58,1.73,74.52,1.54,30-.38,47-2.42,56,.46C560.73,850.76,565.81,851.62,566.26,850.11Z"/><path class="cls-11" d="M992,424c-.19.67-.41,1.31-.63,1.92-3.52,9.95-8.86,14.17-12.88,18.12-16.43,16.06-51.4,37.26-111.38,47.88-2,.35-9.69,1.11-14.19,2.65,0,.17-.24,2.35-.24,2.35s-2.37,57.62-56.09,85.4c-10.15,5.12-19.08,9.69-27,13.85l-5.65,3q-4.89,2.61-9.23,5c-2.5,1.37-4.89,2.68-7.13,4-15.65,8.78-25.27,15.09-32.14,20.59-8.48,6.81-15.11,13.82-17.73,28.74a100.58,100.58,0,0,0-1.18,19.46c.07,1.71.13,3.49.24,5.35.3,4.3.57,9,.72,14.11,0,1.19.06,2.44.08,3.69.11,4.94.11,10.21,0,15.74a347.32,347.32,0,0,1-4.21,46.51c-1.46,9.16-3.2,17.77-5.15,25.8-1.85,7.73-3.87,14.92-6,21.61a304.67,304.67,0,0,1-15.17,38.8c-41.25,1.75-67.74,1.92-84.71,1.72-4.78-.06-9.26-.18-13.47-.29h-.48c-6-.15-11.5-.35-16.43-.53-16-.52-26.62-.75-33.27,1.31l-.31.06a.09.09,0,0,0-.08,0,15.38,15.38,0,0,1-4.5.06h-.07c-.71-.12-1.26-.38-1.39-.85-.37-1.25,2.46-2.29,5.07-7,2.41-4.39,4.89-8.66,5.32-10.85a66.2,66.2,0,0,1,1.72-6.51v0c.22-.64.41-1.28.63-1.89a5.55,5.55,0,0,1,.24-.64,135.62,135.62,0,0,1,9.6-21c8.35-14.52,12.72-35.55,18.82-68.91,0-.06,0-.12,0-.17q1-5.37,2.05-11.2c.34-1.92.71-3.93,1.06-6,.61-3.47,1.2-7.13,1.83-11a.25.25,0,0,0,0-.12,1.55,1.55,0,0,1,0-.29c.26-1.74.55-3.54.81-5.38.13-.87.26-1.74.39-2.64.87-6.08,1.74-12.57,2.54-19.46q1.11-9.25,2-19.46c.16-1.46.29-2.94.42-4.45a370.22,370.22,0,0,0-1.87-44.88c-.16-1.34-.31-2.65-.48-4q-.52-4.1-1.17-7.94c-2.11-12.6-5.18-22.89-9.13-30.66A530,530,0,0,1,527,506.25s-34.27,2-49.57,1.14a7.77,7.77,0,0,1-.85,0c-1.49-.12-2.76-.27-3.78-.44,0,0,0,0,0,0a6.28,6.28,0,0,1-2.26-.67,13.53,13.53,0,0,1-2-1.66,17.75,17.75,0,0,1-2.17-2.41c-.06-.09-.13-.15-.19-.23a45.57,45.57,0,0,1-7.09-14.2c-.59-1.89-1.15-3.95-1.63-6.16a108.47,108.47,0,0,1-1.85-29.73c0-.61-.1-1.19-.15-1.72l-.59-7.21,13.39,4.8s3.22,25.83,15.71,33.71h.05a14.22,14.22,0,0,0,5.5,2.07,35.6,35.6,0,0,0,19.12-2h0c13.3-5.12,23.58-17.69,21.23-33.74h14.85a261.21,261.21,0,0,0,.34,33.83c.9,11.34,2.76,23.53,6.5,33.21,2.65,6.9,6.24,12.48,11.06,15.59a33.37,33.37,0,0,0,3.31.94l.17,0a18.72,18.72,0,0,0,3.26.5,14,14,0,0,0,7.19-1.08.91.91,0,0,0,.22-.11,13.28,13.28,0,0,0,4.8-4c4.85-6.28,7.35-18.7,7-39.53-.05-1.92-.07-3.72-.11-5.47,0-.78,0-1.54,0-2.27v-.84c-.26-12.24-.39-19.72-.5-24.23a.49.49,0,0,1,0-.17c0-1.66-.05-2.91-.09-3.87l0-3.08,26.66.05s-.76,21.12-.65,34.47c0,5.59.22,9.8.65,10.56,1.37,2.33,10.93,23.5,21.93-10.53,1.3-4.07,2.63-8.93,4-14.69,2.8-10,4.45-16.17,5.34-19.72l13.72.41a193.27,193.27,0,0,1-9.26,34c-4.26,11.52-10.3,24-18.56,34.18-4.54,8.14-7.67,18.06-9.45,28.24-3.5,20-1.83,41.1,4.32,52a17.75,17.75,0,0,0,1.33,2.12,35.46,35.46,0,0,0,5.47,5.82c4,3.32,8.63,4.86,13.45,2.18a14.17,14.17,0,0,0,3-2.18,31.61,31.61,0,0,0,6-7.94c3.89-6.81,7.78-17.13,11.49-32.11,2.18-8.73,4.31-19,6.33-31.16.43-2.5.85-4.94,1.24-7.33v-.05c2.93-17.72,5.19-32.23,6.84-43.72,3.41-23.21,4.5-34.09,4.5-34.09l20.56-.29s-1.94,16.23-3.78,34.44c-2,19.63-3.85,41.56-3.07,48,1.92,13.9,2.68,56.63,47.62,38.63,69-25.28,43-57.77,19.4-86.48-13.25-16.11-25.7-31-20.16-42.76,2.3-4.88,22.45,20.83,42,42.82C806.52,502,823.87,518.88,827,507q3.59-13.87,6.43-24.84c6.07-23.62,9.33-36.71,9.33-36.71l16.75-.55s.76,23-2.67,29.17c5.37.5,50-4.33,69.85-16.78,9.49-6,20.55-13.32,29.07-19.84,5.52-4.22,10-8.09,12.22-10.91a8.88,8.88,0,0,0,1.45-2.5C973.86,423.79,987.53,424.25,992,424Z"/><path class="cls-12" d="M957.8,425.2v0a43.17,43.17,0,0,1-.91,6.49v0a46.05,46.05,0,0,1-4,11c-19.93,39.14-92.24,46.27-92.24,46.27L830.59,489,786,488.91l-21.87-.06-27.53-.06-36.44-.06-21.27-.06-31.43-.06-13.79,0h-8.41l-14.16,0-16.89-.06h-8.53L547,488.4h-4.66l-36.43-.09h0l-24.63,0h-.05l-22.41-.06h-.72l-3.38.21h-.14c-6.28.36-12.26.54-18,.6a0,0,0,0,1-.07,0c-.93,0-1.83,0-2.73,0H431.1c-48.37-.3-76.11-11.4-90.76-28.17h0a58.53,58.53,0,0,1-5.4-7.31v0a47,47,0,0,1-3.15-6s0,0,0,0c-4.45-9.9-5.91-20.84-5.43-32.26v0c.6-14.64,4.41-30,9.2-44.55a357,357,0,0,1,25.77-52.89c1-1.74,2.09-3.46,3.16-5.17A300.52,300.52,0,0,1,392,275c1-1.21,2.07-2.41,3.13-3.61a303.62,303.62,0,0,1,36-34.37c.88-.75,1.78-1.47,2.69-2.19,27.64-22.07,59.12-39.84,94.06-55.26A185.41,185.41,0,0,1,547,173.7c98.54-24,181.32,46.54,246.3,86.59,4.27,2.64,8.46,5.14,12.56,7.45q5.25,2.16,10.48,4.69c20.79,10,40.92,23.69,58.44,37.4,1.65,1.27,3.23,2.53,4.8,3.79a0,0,0,0,1,0,0,514.67,514.67,0,0,1,52.81,49c.33.42.63.81.93,1.23l0,0C952.47,388.91,959.05,409,957.8,425.2Z"/></svg>