<svg xmlns="http://www.w3.org/2000/svg" xmlns:xlink="http://www.w3.org/1999/xlink" viewBox="0 0 1600 900"><defs><style>.cls-1{fill:none;}.cls-2{isolation:isolate;}.cls-3{clip-path:url(#clip-path);}.cls-4{fill:url(#linear-gradient);}.cls-5{opacity:0.24;}.cls-6{fill:#1e490a;mix-blend-mode:multiply;}.cls-7,.cls-8,.cls-9{opacity:0.56;}.cls-7{fill:url(#linear-gradient-2);}.cls-8{fill:url(#linear-gradient-3);}.cls-9{fill:#021c13;}</style><clipPath id="clip-path"><rect class="cls-1" width="1600" height="900"/></clipPath><linearGradient id="linear-gradient" x1="-16.7" y1="713.91" x2="1862.53" y2="713.91" gradientUnits="userSpaceOnUse"><stop offset="0.03" stop-color="#4ca17a"/><stop offset="0.04" stop-color="#449b76"/><stop offset="0.08" stop-color="#2e8b6b"/><stop offset="0.12" stop-color="#1d7f62"/><stop offset="0.18" stop-color="#12765c"/><stop offset="0.26" stop-color="#0b7159"/><stop offset="0.48" stop-color="#097058"/><stop offset="0.6" stop-color="#0c7259"/><stop offset="0.67" stop-color="#14785e"/><stop offset="0.74" stop-color="#238365"/><stop offset="0.8" stop-color="#399370"/><stop offset="0.85" stop-color="#54a77e"/><stop offset="0.9" stop-color="#76c08f"/><stop offset="0.95" stop-color="#9ddca2"/><stop offset="1" stop-color="#cafdb9"/><stop offset="1" stop-color="#ccffba"/></linearGradient><linearGradient id="linear-gradient-2" x1="-9.41" y1="667.87" x2="617" y2="667.87" gradientUnits="userSpaceOnUse"><stop offset="0.19" stop-color="#002f00"/><stop offset="0.4" stop-color="#0a3613" stop-opacity="0.89"/><stop offset="0.65" stop-color="#274b48" stop-opacity="0.58"/><stop offset="0.92" stop-color="#576da1" stop-opacity="0.07"/><stop offset="0.95" stop-color="#5e72ae" stop-opacity="0"/></linearGradient><linearGradient id="linear-gradient-3" x1="-593.01" y1="657.13" x2="33.4" y2="657.13" gradientTransform="matrix(-1.14, 0, 0, 1, 967.23, 0)" xlink:href="#linear-gradient-2"/></defs><g class="cls-2"><g id="Layer_1" data-name="Layer 1"><g class="cls-3"><path class="cls-4" d="M1640,812.94c-.39-78.42,1.91-156.81,2.77-235.21q.09-8,.15-16a32.32,32.32,0,0,0-10.34,2.63c3.77-6.8,4.25-22.63-10.77-23.19s-18,11-16.24,17.28c-9.16-5.35-17.84-6.88-22.61-3.28s-.73,12,5.26,15.2c-8.43-.39-19.43.57-26.75,3.45s-10.88,11.11-12,14.23c-4-4.8-12.34-9.11-20.41-1.11-3.17-6.25-7.57-14.57-18.2-13.52a16.13,16.13,0,0,0-2.84.5c-2.86-2.79-8-4.21-13.56-4.19A27.29,27.29,0,0,0,1476,577a16.9,16.9,0,0,0-2,.27c-1.89-3.49-4.91-6.23-10.82-7.24-3.75-.65-9.08-.73-12,1.3-2.57,1.77-2,4.59-1.52,6.83a53.59,53.59,0,0,0-26.93-5.5c9.37-6.17,16.69-16.21,13.91-25.07-3-9.52-17.82-9.41-26.86-3.37,2.73-6.87-2.94-14.6-15.16-11.83-12,2.73-13.41,9.81-11.65,17-4.43-.73-8.29,2.34-10.78,4.29.15-6.33-5.3-17.23-17.72-11.57,3.51-8.27-.21-22.25-17-22.25-8,.09-13.73,4.23-15.34,9.1-5.25-5.53-15.46-4-21.25.27-5.48,4.11-4.87,9.51-.5,13.89-6.6-.44-12.54,2.36-15.67,6-.88-5.61-2.11-12.08-8.69-16.16-5.58-3.49-16.49-4.52-21.62,0-6.5,5.72-1.67,13.56,3.65,18.72-6.11-1.35-13.51,1.19-14.07,5.58-6-1.74-14,.31-17.13,3.95-3.92-8.7-17.14-17.42-31.09-10.44s-2.88,18.31,9.72,21.94c-7.42,1.79-16.43,8.47-10.08,13.54a18.5,18.5,0,0,0-8.17,3.7,14.07,14.07,0,0,0-12-10,17.37,17.37,0,0,0-14.6,5.13,13.61,13.61,0,0,0-3.64,11.66c-10.43,3-11.61,9.72-9.94,16.5-4.42-.73-8.28,2.34-10.78,4.29.16-6.33-5.29-17.23-17.71-11.57,3.5-8.27-.21-22.25-17-22.25-8,.09-13.72,4.23-15.34,9.1-5.24-5.53-15.46-4-21.25.27-5.48,4.11-4.86,9.52-.5,13.89-6.6-.44-12.54,2.36-15.66,6-.88-5.61-2.11-12.08-8.69-16.16-5.58-3.48-16.49-4.52-21.62,0-6.51,5.72-1.68,13.56,3.64,18.72-6.11-1.35-13.51,1.19-14.07,5.58-6-1.74-14,.31-17.12,4-3.93-8.7-17.14-17.42-31.09-10.44-6.82,3.41-7.63,7.88-5.21,12-7.26.22-17.82,4-21.49,3.56-4.62-.61-3.42-4.29,0-8.17s9.59-8.88,4.14-12-16.11.61-16.59.78c10.6-13.36,18.27-27,5.7-31-12.92-4.1-26.85,7.49-36.71,19.94,0,0,1.82-9-6-11.48-9-2.9-14.94,1-18.74,5,3.61-8-6.27-10.33-12.27-8.89,11.53-11,13.85-28-1.1-31.9s-27.22,9.61-35.25,16.74c0,0-9.5-17.34-23.72-12.36s-13.19,15.56-11.8,23c-10.3-5.73-22.42-.08-22.93.16,3.77-6.8,4.26-22.64-10.75-23.19s-18,11-16.26,17.28c-9.16-5.37-17.84-6.89-22.6-3.29s-.74,12,5.25,15.21c-8.43-.4-19.42.55-26.75,3.43s-10.88,11.12-12,14.25c-4-4.81-12.35-9.13-20.41-1.12-3.18-6.25-7.57-14.56-18.2-13.53s-13.2,9.69-12.1,14.65c-7.82-5.84-16.73-15.2-29.56-9.2a18.87,18.87,0,0,0-2.24,1.21c-4.66-6.88-17.48-6.25-25.62-.82,2.74-6.86-2.93-14.6-15.15-11.82-12,2.72-13.41,9.8-11.65,16.94-4.43-.74-8.29,2.35-10.78,4.29.15-6.34-5.3-17.22-17.73-11.56,3.52-8.28-.21-22.26-17-22.26-8,.08-13.73,4.23-15.34,9.11-5.25-5.54-15.46-4.07-21.25.26-5.48,4.1-4.87,9.52-.5,13.88-6.6-.43-12.55,2.38-15.67,6-.88-5.6-2.12-12.06-8.69-16.16-5.58-3.47-16.49-4.52-21.63,0-6.5,5.72-1.66,13.55,3.66,18.72-6.11-1.35-13.51,1.18-14.07,5.58-6-1.73-14,.31-17.13,3.95-3.92-8.69-17.15-17.41-31.09-10.44-9.91,5-7.15,12.16-.17,17.2-.45,0-.9-.09-1.36-.11-2.34-.12-5,.19-6.44,1.41.17-3.21-3.76-6.3-8.62-6.75s-9.95,1.8-11.13,4.92l-1.37-.3a3.24,3.24,0,0,0-.49-3.05,14.45,14.45,0,0,0-2.79-2.79,10,10,0,0,0-4.11-2.37l.32-.48a23.63,23.63,0,0,0,7,1.22,22.67,22.67,0,0,0,6-1.13c3.76-1.12,7.69-2.5,9.56-4.92a3,3,0,0,0,.64-3.13c-.55-1.22-2.14-2.09-3.78-2.76a30.12,30.12,0,0,0-5.93-1.68l0-.19a50.73,50.73,0,0,0,9.93.13c3.28-.37,6.51-1.4,8.45-3.18a3.43,3.43,0,0,0,1.18-1.87c.17-1.32-1.15-2.57-2.86-3.29a24.19,24.19,0,0,0-5.71-1.27l-3.44-.47a10.85,10.85,0,0,0,4.62-1.66,9.62,9.62,0,0,0,3.17-3.44,4.39,4.39,0,0,0,.59-1.59c.2-1.91-2-3.69-4.7-4.42a20.81,20.81,0,0,0-8.65-.11l0,0a14.82,14.82,0,0,0,6.12-4.48,7,7,0,0,0,1.84-3.33c.4-3-3.35-5.58-7.43-7a32.49,32.49,0,0,0-17-1c-5.52,1.24-10.15,4.24-11.68,7.93a13.1,13.1,0,0,0-.81,4.21c-2.4-2.92-8.48-4-13.33-3a19.45,19.45,0,0,0-11.09,6.91c-2.32-3-8.48-4.38-13.12-3l-.65.12a3.35,3.35,0,0,0-.19-1.82c-.87-2-4.25-3.31-7.46-3.19a13.63,13.63,0,0,0-8.1,3,9.2,9.2,0,0,0-3,4.09,13.27,13.27,0,0,0-1.8-3.56,5,5,0,0,0-1.59-1.58c-2.21-1.33-5.95-.73-8,.67s-2.95,3.38-3.92,5.22a.69.69,0,0,1-.38.39,1.53,1.53,0,0,1-.74,0,45.6,45.6,0,0,0-6.62-.56,11.88,11.88,0,0,0-6.11,1.52,4.29,4.29,0,0,0-2.11,4.07,7,7,0,0,0,2,3.79l-.12,0a30.93,30.93,0,0,0-15.76,4.75,3.74,3.74,0,0,0,.92-2.18,8.66,8.66,0,0,0,0-4.35,12.22,12.22,0,0,0-2.9-4,9.9,9.9,0,0,0-5.11-3.34,10.89,10.89,0,0,0-5.17.27,26.14,26.14,0,0,0-4.44,1.9l-.33-.15a21.22,21.22,0,0,0,4.89-6.81c.89-2,1.33-4.33-.15-6.21s-4.7-3-7.92-3.18a23,23,0,0,0-9.2,1.67,22.44,22.44,0,0,0-8.09,5.26c.73-2.62-1-5.46-4.18-7.18-3.46-1.89-8.38-2.45-12.78-1.77a14.42,14.42,0,0,0-5.51,1.86,5.76,5.76,0,0,0-2.67,6.29c.53,2.23,2.2,4.28,4.1,6.16h-1.18a24.7,24.7,0,0,0-11,1.52c-3.22,1.36-5.51,3.74-5.52,6.25s2.34,4.92,5.4,6.59l-.27.22c-5.35-.72-11.27,1.3-13.43,4.59-.52-2.59-3.27-4.74-6.24-6.47-2.25-1.29-5.2-2.51-8.07-1.93a11.46,11.46,0,0,0-2.89,1.09L94,588.38l-.27-.09A11,11,0,0,0,95,586c1.05-2.32,2.05-4.75,1.44-7.14s-3.28-4.73-7-5a13.46,13.46,0,0,0-8.1,2.31c-5.1,3.25-7.77,8-7.23,12.67a6.77,6.77,0,0,0-4.27-1,16.3,16.3,0,0,0-5.83,1.86l-2.54,1.2-.69-.34a3.5,3.5,0,0,0,1.31-3.42,4.84,4.84,0,0,0-2.91-3,13.23,13.23,0,0,0-9.1-.11,19.37,19.37,0,0,0-6.93,4.23l-.94-.35a13.21,13.21,0,0,0,1-3.07c.42-2.19,0-4.69-2.52-6.09a11.34,11.34,0,0,0-6.46-.93,21.77,21.77,0,0,0-6.18,1.83c-4.09,1.78-8,4.52-7.64,7.74A20.55,20.55,0,0,0,7.2,585.17c-4.57.88-8.22,3.83-7.88,7,.22,2.14,2.23,4.09,4.86,5.36a28,28,0,0,0,9.1,2.27l-.42.48a16.53,16.53,0,0,0-8.43,5.1,4.86,4.86,0,0,0-1.31,3.37c.24,2.34,3.22,4.19,6.44,5.19a13.28,13.28,0,0,0,5.87.63l.19.46a167.52,167.52,0,0,0-17.26,4,22.18,22.18,0,0,0-6,2.39c-1.65,1.09-2.72,2.68-2.21,4.17.7,2,4.11,3.28,7.31,3.29a30.38,30.38,0,0,0,9.1-1.78L16,624.17l.1.13a28.15,28.15,0,0,0-5.3,4.19,7.54,7.54,0,0,0-2.26,3.57c-.38,2.17,1.52,4.41,4.47,5.4l-.28.6a26.46,26.46,0,0,0-7.33,0C3,638.52.87,639.81.76,641.43a3.43,3.43,0,0,0,1.05,2.28,12.09,12.09,0,0,0,5.79,3.34l-.12.2c-3.12-.41-6.53-.61-9.37.33a8.27,8.27,0,0,0-4.62,3.51,6.48,6.48,0,0,0-.61,4.67l-.23,0a7.07,7.07,0,0,0-3.74-3.06,19.9,19.9,0,0,0-5.42-1.28l-.19-.08V908h1658C1640.87,876.31,1640.11,844.63,1640,812.94Z"/><g class="cls-5"><path class="cls-6" d="M1625,766.91h-.88v77h-4V866H-79V783.63l1.31,0,9.53-.26q16.54-.5,33-1.17h0l2.9-.12h0q12.18-.48,24.3-1c40.68-1.8,81-3.31,122.08-4.23l6.55-.15,1.34,0,3.15-.07,3-.07c15.45-.36,30.88-.75,46.27-1.28q13.32-.45,26.53-1.07c10.22-.48,20.43-1.3,30.73-1.56,11.32-.3,20.29-.74,26.08-3.72.35-.18.14-.36-.43-.47-22.21-4.07-52.82-4-78.44-4.18q-11.59-.12-23.15-.33c-13.34-.22-26.67-.45-40-.42-24,0-47.94.28-71.9,0-21.51-.27-45.76-.74-64.76-3.8a67,67,0,0,1-9.44-2.16c-2.31-.72-2.09-.73.41-1.36,2.88-.71,6.2-1.27,9.57-1.77,12.54-1.89,27.34-2.6,41.29-3.2,13-.54,26.13-.83,39-1.47,20-1,39.78-2.55,59.57-3.81,22.56-1.45,45.25-2.93,68.21-3.82h0l5.49-.2h0l6.34-.19c2.22-.07,4.44-.12,6.67-.17h.34l3.22-.06,3,0,3.71-.05h.36c1.54,0,3.08,0,4.63,0h0c1.42,0,2.84,0,4.27,0h.61c31.85,0,63.68,1,95.54.48,6.21-.1,12.45-.27,18.63-.55h0c3.18-.14,6.34-.32,9.46-.52l.88-.06h0l2.28-.16c1.76-.14,3.51-.28,5.25-.44l2.48-.23h0l.72-.08q4.77-.46,9.33-1.1c.87-.14.74-.47,0-.6-25.72-4.48-58.29-5-87.8-5.34-18.23-.23-36.09-.62-54.09-1.48-15.35-.73-30.53-1.73-45.59-2.83q-1.67-.11-3.3-.24H180l-1.2-.08-5.37-.41-1.08-.08h0l-.66,0-2.67-.2h0l-.1,0h-.17c-2.86-.21-5.71-.44-8.57-.66q-7.83-.6-15.65-1.24l-.44,0h0l-.35,0h0Q115.17,723,86.7,720.59h0l-3.49-.28h0l-.69-.06-9.88-.8L67.41,719h0l-2.52-.2-3.67-.29-2-.16-2.74-.21L54.11,718h0L50,717.67l-1.06-.09-6.75-.5h0q-9.22-.71-18.48-1.35h0q-5.38-.39-10.8-.75h0q-6-.4-12.09-.78l-.8-.05-.24,0-12.65-.76q-20.6-1.18-41.46-2-6.87-.27-13.76-.48c-3.17-.09-6.35-.18-9.53-.25l-1.31,0V706h1.31q4.75.06,9.53.16C-31.23,707,6.61,710,43,711.85c8,.4,15.95.93,23.88,1.53h0l3.08.24q10.83.86,21.6,1.86h0l3,.27,1.8.17h0l2.4.22,7.43.69h0l1.31.12h0l4.05.37.9.08h.08l1.77.17,3,.27h0l3.83.35.26,0,1.12.09,3.93.35h0l3.56.31q7.83.67,15.72,1.27c2,.16,4.09.3,6.14.45l.58,0h0l3.36.22h0q3.44.22,6.88.42l4.53.24.74,0,3.28.17h0l.62,0c49,2.44,96.92,4.17,146.25,5.38h0l3.1.08h.23l.85,0,2.73.06,1.18,0,2.25.07,1.84,0,3.13.1,1.89.06,4.67.16h0q4.15.14,8.29.3h0l6.41.27h0q11,.45,21.91,1h.1c2.54.12,5.07.26,7.6.39h0l1.95.11h.16l1.78.1,3.13.17,3,.16,1.63.1h.12l2.33.13,3.08.17h0l3.91.23.39,0h0l1.65.1,4.87.28,1.12.07h0c22.87,1.34,45.73,2.75,68.65,3.93,17.61.9,35.26,1.66,53,2.14,69.91,1.88,140,.15,209.92,2.06q22.32.61,44.42,1h0l5.56.11c-1.65,0-3.29,0-4.94,0h0c-7.82,0-15.64.1-23.5.26-19.87.42-39.67,1.16-59.47,1.78-19.45.62-39.16,1.25-58.77,1-17.34-.21-34.83-.82-52.1,0-2.56.12-5.09.33-7.54.54-1.13.09-1.16.45-.31.63,21.76,4.46,50.78,5.45,77.06,6,29.91.6,60.09.44,90,.7q21.7.19,43.41.26,39.32.15,78.63,0c41.07-.14,82.11-.69,123.17-.9,13.83-.08,27.61.05,41.36.3,64.83,1.21,129,5.28,194.17,4.7,23.41-.2,46.86-.79,70.25-1.45,13.69-.38,27.37-.79,41-1.15,29.39-.79,63.21-2.52,91.56.65-11.49,4.86-37.32,4.86-50.76,9.27-.52.16-.46.35.05.49l.18,0c12.07,2.55,29.54,2.54,44,2.26,12.2-.24,24.32-.84,36.26-1.64l3.64-.25c1.87-.14,3.74-.27,5.59-.42l1.23-.09,2.8-.22,2.65-.22,1.26-.1h0c3.57-.3,7.11-.61,10.64-.93,21.82-2,43.15-4.53,63.25-7.61,9.08-1.39,18.47-2.93,26.86-4.76a132.84,132.84,0,0,0,15-4.08l.29-.11c6.46-2.32,9.75-5.44,0-7.45l-.13,0c-1.15-.23-2.38-.44-3.67-.63h0c-3.49-.51-7.4-.86-11.52-1.11s-8.44-.37-12.75-.44l-1.24,0h-.62c-4.62,0-9.19,0-13.42,0l-4.71,0c-19.84.05-39.63.62-59.39,1.13l-19.83.47h0c-.94,0-1.89,0-2.83.06,0,0,0,0,0,0l-4.31.09h0l-15.41.34h-.89q-8.92.18-17.85.4h-.69c-4.85.12-9.71.23-14.56.36-27.37.71-55.15,1.32-82.68.91h0q-9.54-.14-19-.46h-.16l-1.83-.06h0l-2.08-.09h-.14l-3.77-.15-.25,0,.26,0,1.79-.23h0l2.75-.34h0l3.51-.43.45,0c15.29-1.79,31.07-3.12,47.12-4.23h0q9.73-.68,19.59-1.26h0l7.59-.44h0l.37,0h0l4.29-.24,6.63-.36h.13l3.8-.21,3.42-.18,4.35-.24h.12l.61,0,6.6-.35h0l2.65-.14h0c25.33-1.38,50.55-2.87,74.75-5.29,13.3-1.33,26-2.9,38.37-4.69,15.67-2.27,30.65-4.89,45.16-7.8l4.18-.84q7.59-1.54,15-3.13l.3,0c6-.68,8.24,1.4,14.27.76,1.63-.17,7,2.93,8.67,2.76v54.94Z"/></g><path class="cls-7" d="M-9.41,659.61c1.16-3.39,5.63-.19,6.16.54,1.22,1.68,2.22,5.23,3.58.17a15.26,15.26,0,0,0-.58-9.07c1.11,1.29,4.5,5.12,5.57,9.83A15.16,15.16,0,0,0,6.6,654.8c2.53,2.43,11.43,19.34,11.5,4,.6,3.49,2.43,5.7,3.45,5.87,2.1.36,2.1-3.45,2.87-6.61.8,1.24,2,2.7,1.89,5.22,2-.39,2.43-9.14.74-11.62.89.43,4.78,4.62,5.09,8.47.51-2.35,1.9-5.93,3.11-6.52-1.19,7,.9,8.77,2.93,3.49,1.52,2.13,1.35,4.85,3.35,3.27,1.31-1,2.89-4.7,2.69-8.26.81,4.67,1.5,11.81,4.3,6.86.08,1.33.71,3.06,1.41,3.53s1.8-.42,2.43-1.66c1.45-2.89,2.12-9.16,2.66-13.16-.3,5.36-1,11,1.82,14.09,2.54,2.82,3.19-1.36,4.4-5.61-1,6.74,3.34-2.07,3.94-2.41-.58,3.15,3.63,3.43,4.57,2.94.37-3.84,1.72-6.07,2.84-9,.06,2.1-1.07,8.42-.06,9.93.88,1.31,1.87-2.51,2.38-3.63.78,3,1.85,3.09,3.52,1.51-.12,1.38,2,1.87,2,1.77.86-1,2.65-.76,3.3-2,.92-1.68.93-4.5.58-6.91.78,1.24,2.89,5.56,3.61,6.7,1.8-5.12,2.69-.23,4.54,1.46,2.28,2.08,3.55-2.19,3.16-8.25.89,5.65,4.84,14.74,6,6.66,1,3.28.81,5.55,2.57,1.73,1.11-2.41,1.73-5.95,3.1-8.23,0,1.82-.42,6.56.52,7.6s2.09-2.4,2-4.39c.81,3,2,6.48,3,1.58.19,5,2.36,5.48,3.2,1.53.19,2.91,1.18,3.85,2,2,.73-1.69.29-6.28.07-8.67.9,5.13,2.35,11.27,4.32,7.11.16-.32,1.73-2.7.94-8.71,2.1,2.94,1.56,6.72,4.5,4a12.61,12.61,0,0,0,2.64-4.55c.27,1.41.5,4.56,1.25,5.54.93,1.22,2.41-1,2.72-.91,1,.19,1.45,1.88,2.59,2.07.82.12,2.76.55,3.44-.29s.8-4,1-5.47c.05,1.54.49,6,1.85,5.77.58-.11,1.05-1.87,2-2-.28.13-.05,2.67.63,2.66,1.76,0,3.16-3.31,3.73-6.77.94,4.54,1.67,12.3,3.66,15,1.19-2.58,1.18-8.23,1.65-11.51,1.57,5.87,3.76,9.37,3.84-.77.26,2.44.42,3.47,1.1,4.29.53.64.45-7.8.55-8.51.89,8,5.81,16,7.51,5,0,2.94-.7,9.69,1,10.34s4.2-6.34,4.67-9.64c.29,4.94.29,5.82,2.19,4.49,1.36-1,2.35-3.37,3.74-4.17.23.87,3.35,10.17,3.25,10.24.87-.68,1.54-2.43,1.77-4.35,1.33,1.54,2.38,4.88,3.33,7.45,1.07-1.11,1.56-4,2.33-4.94.34,3.32,9.59,6.19,6.87-.44,2.11,2.5,4.34,4.71,6.72,2.54-.05-.65,0-1.3,0-1.95a39.23,39.23,0,0,0,3.73,6c1.47.56,2.42-2.16,2.38-5.16.56,3.19,1.53,7.36,3.21,4.74,1.1-1.71.83-5.45.94-7.93.82.81,3.25,9,4.78,8.08,1.72-1.06,2-14.69,3.46-8.85,2-1.56,2.85-7.74,4.32-9.17-1.06,1.93.94,10.43,1.79,11.84,1.28,2.13,3.46,5.41,4.87,3.21s1.66-7.74,1.78-11.83a24.13,24.13,0,0,0,2,8.45c.6,1.17,1.71-4,1.79-4.65,1.11,1.25,1.32-2,1.38-4,1.2,4.1,2.12,11.11,4.92,9.82s2.78-8.16,3-14.4c.2,4,.29,10,1.44,13.25,1.35,3.76,3.55.94,3.68-4.42.14,1.94.4,6.39,1.51,7s1.59-3.41,2.15-5.16c.47,2.14,1.05,6,2.49,5.61,2.63-.62,1.54-10.74,3.91-3.88,1.31,3.81,1.52,5.07,3.42,1.21,1.54-3.13,2.84-8.17,4.59-10.52.18,2.81-1.62,9.58.58,10.83,1.12.63,2.35-3.28,3.12-4.7.17,4,0,5.75,1.82,4.68.51-.3,1.57-2.87,2-2.75,2.18.55,2.78,9.9,5.3,10.72,1.26-3.14,1.07-10.28,2.19-12.06-1.21,4.32,5.38,7.28,7.41,3.88,1-1.63,1.3-5.1,1.41-7.6,2,4.24,1.36,9.61,2.19,14.64,1.54.21,2.16-5,2.85-7.45.23,3.47,1.81,4.83,2.64,1.45,1.26,6.41,3.49-.13,3.44-4.65,1.65,12.36,5.46-2.11,6.05-8-.11,6.24,1.18,9.81,2.46,12.29.43-2,1.19-3.7,1.23-6,.58.86,2,10,2.13,9.94.87-.19,1.45-2.24,2-3.54,3,5.83,5.18-1.55,6.09-8.71.26,3.21,4,5,2.21,9.73,1.48-2,2.39-4.54,3.64-6.21,0,0,.24,3.86.25,4.24.9.41,1.63-1.2,1.77-3.22.07-.82,2.58,2.52,2.88,2.49,1.4-.18,1.58-4.23.21-4.9,1.42-.26,3.47,4.65,3.94,4.88,1.73.84,3.72-5,4.7-6.31-.59,1.68.39,6.55,1.77,7.24,2.22,1.1,3.63-5,4.55-7.19,1.58,1.09,2.23,4.47,2.83,6.8,1.1.36,1.82-.69,2-2.29.93,1.31,1,5.93,3.13,6.35.12,0,1.84-6.37,2.2-7a12.9,12.9,0,0,1,1.15,5.46c2-1.69,4.38,1.72,5.56,5.4,2-.41,1.74-8.94,1.67-11.7.25,1.58,1.25,8.56,2.4,8.44s1.45-4.11,1.43-5.83c.74,3.05,1.22,3.83,2.07,2.36.73-1.26,1.73-6.3,2.66-8.24-.28,2.31,1.77,11,2.29,11.34,1.54.9,2.59-5.75,2.87-7.9.17,2.57.43,9.16,2.08,9.42,1.05.17,1.59-2.78,2.33-4.11,2,6.64,4.79,3.09,4.92-4.37,2.35,3.69,2,10.38,3.27,11.76-.05-2.11,2.66-10.44,2.81-9.87.6,2.28.13,7.72.31,10.45-.05-.74,6-11.4,7.7-14.46-2.78,7.34-1.2,18.54,2,10,0,3.62.1,8.65,2.05,4.64.7,1.55.85,3.85,2,3.73,1.9-.2,3.24-10,3.45-14.35.11,2.53.28,7.47,1.27,8.31.84.72,1.73-1.28,2.57-1.33s1.69,1.48,2.63,1.29c.1-2.2,0-4.45.15-6.66a31,31,0,0,0,2.25,8.06c.67-6.78,1.28-17,3.24-22.66-.18.51,0,7.68-.05,8.76-.07,5.08.46,9.57,2.06,13.39,4.44,10.58,6.68-4.88,8.2-11.92-.21,5,.93,12.29,2.74,15.49a22.93,22.93,0,0,0,1.33-4.44c1.33,5.9,2,6.69,4,2.12,1,4.9,2.76,3,3.6-1,.7-3.35.36-7.38,1-10.84,1.9,2.52,3.78,9.72,4.38,14.44,1.35.46,2.2-2.44,3.29-1.91s1.64,4.74,2.75,5.62c2,1.63,1.82-4,3.47-4.59s2.19,4.39,4,3.3,3.32-8.58,4.33-11.84c0,6.15-.09,10.51,3.33,11.07.85.14,1-.9,1.87-.34,1.69,1.11,4.82,6.56,6.51,5,1.25-1.14,1.63-7.93,1.86-11,0,4.56,1.79,14.94,3.29,6.27,1.27,2.37,1.74,3.64,3.52,4.09,1,.25,2.48-4.59,3.31-11.31.81,2,.41,8.4,2.53,7.72,1.84-.6,2.27-6.28,3.19-8.27.46,1.52,1.92,5,2.53,4.54-.43-7.17,1.23-10.84,2.12-12.8-1.44,8.93,3.23,14.45,6.49,18.12,0-.61,1.47-3.41,1.53-4.1,2.13,5,2.83.11,4.72-1.73.15.69-.13,3.55,1.09,4.07-.09-2,.81-5.38,1-7.23.92.63.57,5.16,1.06,4.94,1.62-8.88,2.38-7.52,2.75-10.2,0,6.69,1.31,11.44,1.22,17.33a14.06,14.06,0,0,0,1.12-7.87c.81,3.87,2.77,8.51,4.49,4.83.57-1.22.65-4.33.86-6,.52,4.13,1.93,10.17,4.17,10.52,2.39.37,3.32-4.92,3.52-9.7.16,3.69.59,8.69,2.36,9.79,1.36.85,3.1-1.41,3.56-5.48,0,1.76,2.52,4.46,3.08,5.41a17.38,17.38,0,0,1,2.92,7.34c1.34-3,2.25-11.14,1.1-16.25,1.11,3.13,1.94,9.56,3.4,8.14.7-.68,2.2-8.58,1.49-10.53,1.31,1.51,3.35,6.4,3.7,10.21a9.89,9.89,0,0,0,1.12-3.55c.89,2.45,1.56,6.09,3.2,6.35a12.28,12.28,0,0,0,.21-5.42c.53,1.12.9,4.55,2.14,5.23.26-4.24.92-7.79.41-12.24,1.29,4.84,2.52,5.64,3.44,7.48,1.21,2.41,2.12,5.85,3.72,7s1.7-3.84,1.67-7.13c.84,2.57,2.07,5.66,3.41,7,.06-.73.38-1.38.43-2.21a3,3,0,0,0,2.14.69c0-.61.18-1,.25-1.49.91,1.28,3.82,4.44,4.91,3.58,2.61-2.1,1.49-10.47.41-13.9,1.21,2.37,3.56,4.55,4.85,8,.85,2.28,1,4.48,2.38,5.45a39,39,0,0,0,.93-10.24c.92,2.88,5.31,13,5.86,4.17.46,2.21,1.28,5.89,2.42,6.87,1.66,1.44,2.23-3.57,2.37-3.5,1.53.76,1.73-1.9,1.61-4.74.66,2.27.67,4.87,1.75,5.33.78.33.92-1.7,1.56-1.36.39.2.79,2,1.38,4.41v6.18H-9.41Z"/><path class="cls-8" d="M1641.68,647.78a8.53,8.53,0,0,0-2.73,1.62c-1.39,1.68-2.54,5.24-4.1.17a13.44,13.44,0,0,1,.67-9.06c-1.27,1.28-5.15,5.11-6.37,9.83a13.68,13.68,0,0,1-1.48-6.29c-2.89,2.44-13.08,19.34-13.15,4-.69,3.49-2.78,5.7-4,5.87-2.4.37-2.4-3.44-3.28-6.6-.92,1.24-2.31,2.7-2.18,5.21-2.23-.38-2.78-9.14-.84-11.61-1,.42-5.47,4.61-5.83,8.46-.58-2.34-2.17-5.93-3.55-6.52,1.36,7-1,8.78-3.36,3.5-1.74,2.13-1.54,4.84-3.84,3.26-1.49-1-3.3-4.7-3.07-8.26-.92,4.68-1.72,11.82-4.93,6.86-.08,1.33-.8,3.07-1.61,3.53s-2.06-.42-2.77-1.65c-1.67-2.89-2.44-9.16-3.06-13.16.34,5.36,1.12,11-2.08,14.08-2.91,2.82-3.64-1.36-5-5.6,1.12,6.74-3.82-2.07-4.51-2.42.67,3.16-4.15,3.44-5.23,2.95-.43-3.85-2-6.08-3.25-9-.07,2.1,1.22,8.41.07,9.92-1,1.31-2.15-2.5-2.73-3.62-.89,3-2.12,3.08-4,1.51.13,1.38-2.24,1.87-2.33,1.77-1-1-3-.76-3.78-2-1.06-1.69-1.06-4.5-.67-6.91-.89,1.24-3.31,5.56-4.13,6.69-2.06-5.12-3.07-.23-5.19,1.47-2.61,2.08-4.07-2.2-3.62-8.25-1,5.64-5.54,14.74-6.85,6.66-1.14,3.28-.93,5.55-2.94,1.73-1.27-2.42-2-5.95-3.54-8.23,0,1.81.48,6.56-.6,7.59s-2.39-2.39-2.34-4.38c-.93,3-2.3,6.48-3.43,1.57-.22,5-2.71,5.49-3.66,1.53-.22,2.91-1.35,3.86-2.3,2-.84-1.7-.34-6.29-.09-8.68-1,5.13-2.68,11.28-4.94,7.11-.18-.32-2-2.69-1.08-8.7-2.39,2.94-1.78,6.71-5.15,4a12.54,12.54,0,0,1-3-4.56c-.31,1.42-.57,4.57-1.43,5.54-1.07,1.22-2.76-1-3.11-.91-1.11.19-1.66,1.89-3,2.07-1,.13-3.16.56-3.94-.28s-.92-4-1.13-5.48c0,1.54-.56,6.06-2.12,5.78-.65-.12-1.2-1.87-2.31-2,.33.12.06,2.67-.71,2.65-2,0-3.62-3.31-4.27-6.76-1.08,4.53-1.92,12.3-4.2,15-1.35-2.58-1.34-8.23-1.88-11.52-1.8,5.88-4.3,9.37-4.39-.76-.31,2.44-.49,3.47-1.27,4.29-.6.64-.51-7.8-.63-8.51-1,8-6.65,16-8.6,5,.05,2.94.81,9.69-1.13,10.34s-4.8-6.35-5.34-9.64c-.34,4.93-.33,5.82-2.51,4.48-1.56-1-2.69-3.37-4.28-4.17-.26.88-3.83,10.18-3.72,10.25-1-.69-1.77-2.44-2-4.35-1.51,1.53-2.71,4.87-3.8,7.44-1.23-1.1-1.79-4-2.67-4.94-.4,3.32-11,6.2-7.87-.44-2.42,2.51-5,4.72-7.69,2.55,0-.66,0-1.31,0-1.95a38.7,38.7,0,0,1-4.26,6c-1.68.55-2.78-2.16-2.73-5.17-.64,3.2-1.75,7.37-3.68,4.74-1.25-1.7-.94-5.44-1.07-7.92-.94.81-3.72,9-5.47,8.08-2-1.06-2.25-14.7-4-8.85-2.32-1.57-3.26-7.74-5-9.17,1.21,1.92-1.07,10.42-2,11.84-1.46,2.13-4,5.4-5.57,3.21s-1.9-7.74-2-11.83a21.64,21.64,0,0,1-2.33,8.45c-.69,1.17-2-4-2-4.65-1.28,1.24-1.51-2-1.58-4-1.37,4.11-2.42,11.11-5.64,9.83s-3.17-8.16-3.48-14.41c-.23,4.06-.33,10-1.66,13.25-1.54,3.76-4,.95-4.21-4.42-.15,2-.45,6.4-1.72,7s-1.83-3.41-2.47-5.17c-.53,2.15-1.2,6-2.84,5.62-3-.63-1.77-10.74-4.47-3.89-1.51,3.82-1.75,5.08-3.92,1.22-1.76-3.14-3.25-8.17-5.26-10.52-.2,2.8,1.86,9.57-.66,10.83-1.28.62-2.69-3.29-3.58-4.7-.19,4,0,5.75-2.08,4.67-.58-.3-1.8-2.86-2.3-2.75-2.51.56-3.19,9.9-6.07,10.73-1.45-3.14-1.23-10.28-2.51-12.06,1.39,4.32-6.16,7.28-8.49,3.88-1.11-1.63-1.48-5.11-1.61-7.6-2.31,4.24-1.55,9.61-2.51,14.64-1.76.21-2.47-5-3.26-7.45-.26,3.46-2.07,4.83-3,1.44-1.45,6.42-4-.13-3.94-4.64-1.89,12.35-6.26-2.11-6.93-8,.13,6.23-1.35,9.8-2.82,12.29-.49-2-1.36-3.7-1.4-6-.67.87-2.25,10-2.45,9.95-1-.2-1.65-2.24-2.26-3.54-3.43,5.83-5.92-1.55-7-8.71-.3,3.21-4.61,5-2.52,9.73-1.7-2-2.74-4.55-4.18-6.21,0,0-.27,3.85-.28,4.23-1,.42-1.86-1.2-2-3.21-.07-.83-3,2.52-3.29,2.48-1.6-.18-1.82-4.23-.24-4.89-1.63-.26-4,4.64-4.51,4.88-2,.83-4.27-5-5.38-6.32.68,1.69-.45,6.56-2,7.24-2.54,1.11-4.16-5-5.21-7.18-1.81,1.09-2.55,4.47-3.23,6.8-1.27.35-2.09-.69-2.26-2.29-1.06,1.31-1.17,5.92-3.58,6.35-.14,0-2.11-6.37-2.52-7a11.59,11.59,0,0,0-1.32,5.46c-2.29-1.68-5,1.73-6.37,5.41-2.24-.41-2-8.94-1.9-11.71-.29,1.58-1.44,8.57-2.75,8.44s-1.66-4.1-1.64-5.83c-.84,3.06-1.39,3.83-2.37,2.36-.83-1.25-2-6.29-3-8.24.31,2.32-2,11-2.63,11.35-1.76.89-3-5.75-3.28-7.91-.19,2.57-.49,9.16-2.38,9.42-1.2.17-1.82-2.77-2.66-4.1-2.27,6.64-5.5,3.09-5.64-4.37-2.69,3.68-2.33,10.38-3.75,11.75.07-2.1-3-10.44-3.21-9.86-.69,2.28-.15,7.72-.35,10.45.06-.74-6.92-11.41-8.81-14.46,3.18,7.33,1.37,18.53-2.27,10,0,3.63-.12,8.65-2.35,4.65-.8,1.54-1,3.85-2.33,3.73-2.17-.2-3.7-10-3.94-14.35-.12,2.53-.32,7.46-1.45,8.31-1,.71-2-1.28-2.95-1.33s-1.93,1.48-3,1.29c-.11-2.2,0-4.45-.17-6.67a28.29,28.29,0,0,1-2.57,8.07c-.77-6.78-1.47-17-3.71-22.66.21.51,0,7.68,0,8.76.09,5.07-.52,9.57-2.35,13.39-5.09,10.58-7.65-4.88-9.39-11.93.24,5-1.07,12.3-3.13,15.5a20.23,20.23,0,0,1-1.52-4.44c-1.53,5.9-2.34,6.69-4.6,2.12-1.11,4.89-3.15,3-4.11-1-.81-3.35-.42-7.39-1.12-10.85-2.18,2.52-4.33,9.73-5,14.45-1.54.46-2.52-2.44-3.77-1.91s-1.87,4.74-3.14,5.62c-2.31,1.62-2.09-4-4-4.6-1.72-.5-2.5,4.4-4.6,3.3s-3.8-8.57-5-11.83c0,6.14.1,10.51-3.8,11.07-1,.14-1.17-.9-2.14-.35-1.94,1.11-5.53,6.57-7.45,5-1.44-1.14-1.88-7.93-2.14-11,0,4.57-2,14.94-3.77,6.27-1.45,2.37-2,3.64-4,4.09-1.16.26-2.85-4.58-3.79-11.3-.93,2-.48,8.4-2.9,7.71-2.11-.59-2.6-6.27-3.65-8.26-.53,1.51-2.2,5-2.89,4.53.49-7.16-1.41-10.84-2.44-12.79,1.66,8.93-3.68,14.44-7.42,18.12,0-.61-1.68-3.41-1.75-4.1-2.44,5-3.25.11-5.4-1.73-.18.68.14,3.55-1.25,4.06.1-2-.93-5.38-1.14-7.23-1.05.63-.65,5.17-1.22,5-1.85-8.88-2.73-7.52-3.14-10.2,0,6.69-1.51,11.44-1.41,17.33a12.44,12.44,0,0,1-1.28-7.87c-.92,3.87-3.17,8.51-5.14,4.82-.64-1.21-.74-4.33-1-6-.59,4.12-2.2,10.16-4.77,10.51-2.73.38-3.79-4.91-4-9.69-.19,3.68-.68,8.68-2.7,9.78-1.56.85-3.55-1.4-4.08-5.47,0,1.76-2.89,4.46-3.53,5.4-1.33,2-2.89,4.07-3.33,7.35-1.54-3-2.58-11.14-1.26-16.25-1.28,3.13-2.22,9.56-3.89,8.14-.8-.68-2.53-8.58-1.71-10.53-1.51,1.51-3.84,6.39-4.24,10.21a9.25,9.25,0,0,1-1.28-3.55c-1,2.44-1.78,6.09-3.67,6.35a10.87,10.87,0,0,1-.23-5.42c-.6,1.12-1,4.55-2.45,5.23-.3-4.24-1-7.8-.47-12.25-1.48,4.85-2.88,5.65-3.94,7.49-1.39,2.41-2.43,5.85-4.25,7s-2-3.83-1.91-7.12c-1,2.57-2.37,5.66-3.91,7-.07-.72-.44-1.38-.49-2.2a3.73,3.73,0,0,1-2.46.68c-.06-.61-.2-1-.28-1.48-1,1.27-4.38,4.44-5.62,3.57-3-2.09-1.71-10.46-.47-13.9-1.39,2.38-4.07,4.56-5.55,8-1,2.27-1.1,4.48-2.72,5.44a33.84,33.84,0,0,1-1.07-10.24c-1,2.89-6.07,13-6.71,4.17-.53,2.22-1.47,5.89-2.77,6.88-1.9,1.44-2.54-3.57-2.71-3.5-1.75.75-2-1.91-1.85-4.74-.75,2.26-.75,4.86-2,5.33-.89.33-1.05-1.71-1.78-1.36-.45.2-.91,2-1.58,4.4V680h712.12Q1641.39,663.89,1641.68,647.78Z"/><path class="cls-9" d="M1640,812.94c0-2.6,0-5.2,0-7.79-5.23-4.09-12-10.11-9.79-19.59-1.45,2.18-4.15,6.26-3.45,14.24-1,.53-3.36-3.36-4.11-5-1.49,2.21-2.19,8.54-5.18,9.2-3.44.77-2.8-6.34-4.11-8.59-1.35,7.49-3.74,12.87-5.38,12.59-2.9-.5-3.66-1.92-5.71-4.55-2.45,9.65-5.34-1.9-5.36-7-.37,3.4-1,11-3,12.23-2.74,1.73-7.82-4.34-10.57-5.58-1.39-.62-1.66.54-3,.39-5.55-.63-5.44-5.49-5.4-12.32-1.65,3.62-3.93,11.91-7,13.17s-4.09-4.23-6.53-3.68c-2.68.63-2.37,6.93-5.65,5.12-1.8-1-2.8-5.71-4.46-6.26s-3.16,2.64-5.35,2.13c-1-5.25-4-13.27-7.11-16.08-1,3.85-.45,8.35-1.59,12.07-1.36,4.44-4.26,6.54-5.84,1.09-3.21,5.09-4.35,4.21-6.52-2.36a19.88,19.88,0,0,1-2.16,4.95c-2.93-3.57-4.79-11.69-4.45-17.25-2.47,7.84-6.1,25.05-13.32,13.27-2.61-4.25-3.46-9.25-3.35-14.9,0-1.2-.22-9.18.08-9.75-3.18,6.25-4.18,17.67-5.27,25.22-1.85-2.55-2.91-6.08-3.64-9-.23,2.47-.09,5-.24,7.42-1.54.21-2.87-1.5-4.28-1.43s-2.82,2.27-4.18,1.48c-1.61-1-1.89-6.44-2.06-9.25-.34,4.83-2.52,15.74-5.6,16-1.92.13-2.17-2.43-3.31-4.15-3.16,4.46-3.26-1.14-3.33-5.17-5.17,9.49-7.73-3-3.22-11.14-2.69,3.4-12.59,15.27-12.51,16.1-.29-3,.48-9.1-.5-11.63-.25-.65-4.65,8.63-4.56,11-2-1.53-1.5-9-5.31-13.09-.21,8.31-4.79,12.26-8,4.86-1.19,1.49-2.08,4.76-3.77,4.58-2.69-.3-3.12-7.63-3.39-10.49-.46,2.4-2.15,9.8-4.66,8.8-.85-.34-4.17-10-3.72-12.63-1.52,2.16-3.14,7.78-4.33,9.17-1.38,1.64-2.16.77-3.36-2.62,0,1.92-.6,6.36-2.33,6.49s-3.48-7.64-3.89-9.4c.12,3.08.47,12.57-2.71,13-1.93-4.09-5.79-7.89-9-6a10.59,10.59,0,0,0-1.87-6.07c-.58.7-3.37,7.81-3.57,7.79-3.43-.47-3.58-5.61-5.09-7.07-.24,1.78-1.4,3-3.2,2.56-1-2.6-2-6.36-4.59-7.57-1.49,2.41-3.8,9.22-7.4,8-2.24-.76-3.84-6.18-2.88-8.06-1.58,1.45-4.83,8-7.63,7-.76-.27-4.09-5.73-6.4-5.44,2.23.74,1.93,5.25-.35,5.45-.48,0-4.57-3.69-4.67-2.77-.24,2.25-1.41,4-2.88,3.58,0-.42-.39-4.72-.41-4.71-2,1.85-3.51,4.63-5.92,6.91,3-5.31-3.16-7.26-3.59-10.83-1.48,8-5,16.18-9.89,9.69-.86,1.45-1.8,3.73-3.21,3.94-.28,0-2.52-10.1-3.47-11.07-.06,2.56-1.29,4.42-2,6.68-2.09-2.77-4.18-6.74-4-13.68-.94,6.53-7.15,22.63-9.83,8.88.09,5-3.54,12.31-5.59,5.17-1.34,3.77-3.9,2.25-4.27-1.61-1.13,2.7-2.13,8.53-4.63,8.29-1.36-5.59-.29-11.57-3.57-16.29-.17,2.78-.7,6.65-2.29,8.46-3.29,3.79-14,.49-12-4.32-1.82,2-1.5,9.93-3.57,13.42-4.09-.91-5-11.31-8.61-11.93-.71-.13-2.44,2.72-3.27,3.06-3,1.19-2.69-.77-2.95-5.21-1.26,1.58-3.26,5.93-5.08,5.24-3.58-1.4-.65-8.94-.94-12.06-2.85,2.62-5,8.22-7.47,11.71-3.07,4.3-3.41,2.9-5.55-1.35-3.84-7.63-2.08,3.62-6.35,4.32-2.33.39-3.29-3.86-4-6.25-.91,2-1.54,6.46-3.5,5.75-1.8-.65-2.23-5.6-2.45-7.76-.21,6-3.79,9.1-6,4.92-1.88-3.61-2-10.24-2.36-14.75-.43,7-.23,14.56-4.94,16-4.56,1.43-6.06-6.36-8-10.93-.09,2.18-.43,5.84-2.25,4.46-.13.73-1.93,6.47-2.9,5.17-1.56-2.11-2.72-5.13-3.31-9.4-.2,4.55-.6,10.73-2.89,13.16s-5.84-1.2-7.92-3.57c-1.39-1.58-4.63-11-2.91-13.18-2.39,1.59-3.73,8.47-7,10.21-2.43-6.51-2.83,8.67-5.63,9.85-2.48,1-6.43-8.09-7.76-9-.18,2.77.26,6.93-1.52,8.83-2.74,2.92-4.31-1.72-5.22-5.28.07,3.34-1.49,6.37-3.87,5.75-.57-.15-6-6.24-6.06-6.69,0,.72,0,1.44,0,2.17-3.86,2.41-7.48,0-10.91-2.83,4.41,7.38-10.61,4.18-11.17.49-1.25,1.09-2,4.26-3.79,5.49-1.54-2.85-3.25-6.57-5.4-8.28-.37,2.13-1.46,4.08-2.87,4.84.15-.08-4.92-10.43-5.29-11.4-2.25.89-3.86,3.58-6.08,4.64-3.09,1.49-3.08.5-3.56-5-.76,3.66-4.88,11.42-7.58,10.72s-1.67-8.23-1.61-11.5c-2.77,12.24-10.76,3.33-12.2-5.57-.16.8,0,10.19-.9,9.47-1.1-.91-1.36-2.06-1.79-4.77-.13,11.28-3.68,7.39-6.24.85-.76,3.66-.75,10-2.67,12.82-3.24-3-4.42-11.63-6-16.67-.92,3.84-3.19,7.48-6.06,7.52-1.09,0-1.47-2.81-1-3-1.57.17-2.34,2.12-3.27,2.25-2.22.31-2.94-4.72-3-6.43-.29,1.61-.44,5.1-1.6,6.1s-4.25.45-5.59.31c-1.85-.2-2.63-2.09-4.21-2.31-.49-.05-2.9,2.38-4.41,1-1.22-1.09-1.59-4.59-2-6.17a14.29,14.29,0,0,1-4.29,5.07c-4.78,3-3.91-1.23-7.31-4.51,1.27,6.7-1.28,9.34-1.53,9.69-3.21,4.64-5.57-2.2-7-7.91.35,2.66,1.07,7.77-.12,9.66-1.35,2.1-3,1.05-3.27-2.19-1.35,4.4-4.89,3.84-5.19-1.7-1.61,5.45-3.54,1.54-4.87-1.76.07,2.22-1.76,6.05-3.32,4.88s-.79-6.43-.85-8.45c-2.22,2.54-3.22,6.47-5,9.16-2.86,4.25-2.55,1.73-4.17-1.93-1.87,9-8.28-1.12-9.73-7.41.64,6.74-1.43,11.5-5.13,9.18-3-1.88-4.45-7.33-7.37-1.63-1.17-1.26-4.61-6.07-5.87-7.45.56,2.69.55,5.82-.94,7.69-1.06,1.35-4,1.1-5.37,2.19-.13.11-3.5-.43-3.31-2-2.71,1.75-4.45,1.62-5.72-1.68-.83,1.24-2.44,5.49-3.87,4-1.64-1.68.2-8.71.1-11-1.83,3.23-4,5.72-4.62,10-1.53.54-8.37.23-7.42-3.28-1,.38-8,10.19-6.4,2.69-2,4.72-3,9.37-7.14,6.24-4.56-3.46-3.45-9.72-3-15.68-.88,4.45-2,11.43-4.34,14.65-1,1.37-2.57,2.47-3.94,1.84-1.14-.52-2.17-2.45-2.29-3.93-4.54,5.52-5.68-2.43-7-7.64.33,4-2.24,8.06-4.36,9.2-3.25,1.76-3-1.27-5.45-3.64-3.29,5.88-6.7,3.94-4.77-3.89-2,.66-4.21,4.65-5,7.26-.51-4.28-6.83-8.95-8.27-9.42,2.74,2.75,2,12.5-1.2,12.93.2-2.8-1.78-4.43-3.09-5.8-1.24,3.51-1.24,7.75-4.65,7.35-1.66-.2-4.64-2.65-5.61-6.54-.11,17.13-14.57-1.69-18.68-4.39a12.56,12.56,0,0,1-2.09,7c-1.74-5.25-7.24-9.51-9-10.94a12.08,12.08,0,0,1,1,10.09c-2.21,5.63-3.84,1.68-5.83-.19a13.2,13.2,0,0,0-7.18-2.28c-2.61-.2-6.05,1.71-6.6,2.28-1.82,1.87-3.32,5.82-5.35.19a13,13,0,0,1,.87-10.09c-1.66,1.43-6.72,5.69-8.31,10.94a13.37,13.37,0,0,1-1.93-7c-3.78,2.7-17.07,21.52-17.17,4.39-.89,3.89-3.62,6.34-5.15,6.54-3.14.4-3.14-3.84-4.28-7.35-1.2,1.37-3,3-2.84,5.8-2.92-.43-3.62-10.18-1.1-12.93-1.32.47-7.14,5.14-7.6,9.42-.76-2.61-2.83-6.6-4.64-7.26,1.78,7.83-1.35,9.77-4.38,3.89-2.27,2.37-2,5.4-5,3.64-1.94-1.14-4.31-5.23-4-9.2-1.2,5.21-2.24,13.16-6.43,7.64-.11,1.48-1,3.41-2.09,3.93-1.27.63-2.7-.47-3.63-1.84-2.18-3.22-3.18-10.2-4-14.65.44,6,1.46,12.22-2.72,15.68-3.8,3.13-4.75-1.52-6.57-6.24,1.47,7.5-5-2.31-5.88-2.69.87,3.51-5.42,3.82-6.82,3.28-.57-4.28-2.57-6.77-4.25-10-.09,2.34,1.6,9.37.09,11-1.31,1.46-2.79-2.79-3.55-4-1.17,3.3-2.78,3.43-5.26,1.68.17,1.53-2.92,2.07-3,2-1.28-1.09-4-.84-4.93-2.19-1.37-1.87-1.38-5-.87-7.69-1.16,1.38-4.31,6.19-5.39,7.45-2.68-5.7-4-.25-6.77,1.63-3.41,2.32-5.31-2.44-4.72-9.18-1.33,6.29-7.23,16.41-8.94,7.41-1.49,3.66-1.21,6.18-3.84,1.93-1.66-2.69-2.59-6.62-4.62-9.16,0,2,.62,7.3-.79,8.45s-3.11-2.66-3.05-4.88c-1.21,3.3-3,7.21-4.47,1.76-.28,5.54-3.53,6.1-4.77,1.7-.29,3.24-1.77,4.29-3,2.19-1.1-1.89-.44-7-.12-9.66-1.33,5.71-3.5,12.55-6.45,7.91-.23-.35-2.58-3-1.41-9.69-3.12,3.28-2.32,7.48-6.72,4.51a14,14,0,0,1-3.94-5.07c-.4,1.58-.74,5.08-1.87,6.17-1.39,1.36-3.6-1.07-4-1-1.45.22-2.17,2.11-3.87,2.31-1.23.14-4.13.62-5.14-.31s-1.2-4.49-1.47-6.1c-.06,1.71-.73,6.74-2.76,6.43-.86-.13-1.57-2.08-3-2.25.41.14.07,3-.94,3-2.64,0-4.73-3.68-5.57-7.52-1.41,5-2.5,13.68-5.48,16.67-1.77-2.87-1.75-9.16-2.45-12.82-2.35,6.54-5.62,10.43-5.74-.85-.39,2.71-.63,3.86-1.65,4.77-.78.72-.67-8.67-.82-9.47-1.32,8.9-8.67,17.81-11.22,5.57.06,3.27,1,10.78-1.48,11.5s-6.26-7.06-7-10.72c-.44,5.49-.43,6.48-3.27,5-2-1.06-3.52-3.75-5.59-4.64-.34,1-5,11.32-4.86,11.4-1.3-.76-2.3-2.71-2.64-4.84-2,1.71-3.55,5.43-5,8.28-1.59-1.23-2.33-4.4-3.48-5.49-.51,3.69-14.33,6.89-10.27-.49-3.15,2.79-6.48,5.24-10,2.83.07-.73,0-1.45,0-2.17,0,.45-5,6.54-5.57,6.69-2.19.62-3.62-2.41-3.56-5.75-.83,3.56-2.28,8.2-4.79,5.28-1.64-1.9-1.24-6.06-1.41-8.83-1.22.91-4.84,10-7.13,9-2.57-1.18-2.94-16.36-5.17-9.85-3-1.74-4.26-8.62-6.46-10.21,1.58,2.14-1.39,11.6-2.67,13.18-1.9,2.37-5.16,6-7.27,3.57s-2.48-8.61-2.66-13.16c-.55,4.27-1.61,7.29-3,9.4-.9,1.3-2.56-4.44-2.67-5.17-1.67,1.38-2-2.28-2.07-4.46-1.79,4.57-3.16,12.36-7.35,10.93s-4.14-9.08-4.55-16c-.3,4.51-.43,11.14-2.16,14.75-2,4.18-5.29,1.05-5.49-4.92-.2,2.16-.6,7.11-2.25,7.76-1.81.71-2.38-3.8-3.22-5.75-.69,2.39-1.57,6.64-3.72,6.25-3.92-.7-2.3-11.95-5.83-4.32-2,4.25-2.28,5.65-5.11,1.35-2.3-3.49-4.24-9.09-6.86-11.71-.27,3.12,2.43,10.66-.87,12.06-1.66.69-3.5-3.66-4.66-5.24-.24,4.44.05,6.4-2.71,5.21-.77-.34-2.35-3.19-3-3.06-3.27.62-4.16,11-7.92,11.93-1.89-3.49-1.61-11.44-3.27-13.42,1.8,4.81-8,8.11-11.07,4.32-1.46-1.81-1.95-5.68-2.11-8.46-3,4.72-2,10.7-3.27,16.29-2.3.24-3.23-5.59-4.26-8.29-.34,3.86-2.7,5.38-3.93,1.61-1.89,7.14-5.22-.15-5.14-5.17-2.46,13.75-8.17-2.35-9-8.88.16,6.94-1.76,10.91-3.68,13.68-.64-2.26-1.78-4.12-1.83-6.68-.87,1-2.93,11.11-3.19,11.07-1.29-.21-2.15-2.49-2.95-3.94-4.47,6.49-7.73-1.72-9.09-9.69-.4,3.57-6,5.52-3.3,10.83-2.21-2.28-3.57-5.06-5.44-6.91,0,0-.36,4.29-.38,4.71-1.35.46-2.42-1.33-2.64-3.58-.1-.92-3.86,2.81-4.3,2.77-2.09-.2-2.37-4.71-.32-5.45-2.12-.29-5.18,5.17-5.88,5.44-2.58.92-5.56-5.59-7-7,.89,1.88-.59,7.3-2.64,8.06-3.31,1.23-5.43-5.58-6.8-8-2.36,1.21-3.33,5-4.22,7.57-1.65.39-2.72-.78-2.95-2.56-1.38,1.46-1.52,6.6-4.67,7.07-.18,0-2.75-7.09-3.28-7.79a11.16,11.16,0,0,0-1.72,6.07c-3-1.87-6.54,1.93-8.31,6-2.93-.46-2.6-9.95-2.49-13-.38,1.76-1.88,9.53-3.58,9.4s-2.17-4.57-2.14-6.49c-1.1,3.39-1.82,4.26-3.09,2.62-1.09-1.39-2.59-7-4-9.17.41,2.58-2.64,12.29-3.42,12.63-2.3,1-3.86-6.4-4.29-8.8-.24,2.86-.64,10.19-3.11,10.49-1.56.18-2.37-3.09-3.46-4.58-3,7.4-7.17,3.45-7.37-4.86-3.5,4.1-3,11.56-4.88,13.09.08-2.35-4-11.63-4.19-11-.9,2.53-.19,8.59-.46,11.63.07-.83-9-12.7-11.5-16.1,4.15,8.17,1.79,20.63-3,11.14-.07,4-.15,9.63-3.06,5.17-1,1.72-1.28,4.28-3,4.15-2.84-.23-4.84-11.14-5.15-16-.16,2.81-.41,8.3-1.89,9.25-1.26.79-2.58-1.43-3.85-1.48s-2.51,1.64-3.92,1.43c-.15-2.44,0-5-.23-7.42-.67,2.9-1.64,6.43-3.35,9-1-7.55-1.92-19-4.84-25.22.27.57,0,8.55.07,9.75.11,5.65-.68,10.65-3.08,14.9-6.63,11.78-10-5.43-12.24-13.27.31,5.56-1.4,13.68-4.09,17.25a20.54,20.54,0,0,1-2-4.95c-2,6.57-3.05,7.45-6,2.36-1.45,5.45-4.12,3.35-5.37-1.09-1-3.72-.54-8.22-1.46-12.07-2.84,2.81-5.65,10.83-6.53,16.08-2,.51-3.29-2.71-4.92-2.13s-2.45,5.28-4.1,6.26c-3,1.81-2.73-4.49-5.2-5.12-2.24-.55-3.26,4.89-6,3.68s-5-9.55-6.48-13.17c0,6.83.14,11.69-5,12.32-1.27.15-1.52-1-2.79-.39-2.54,1.24-7.21,7.31-9.73,5.58-1.87-1.28-2.44-8.83-2.78-12.23,0,5.08-2.67,16.63-4.92,7C43.39,806,42.69,807.45,40,808c-1.51.28-3.71-5.1-5-12.59-1.2,2.25-.61,9.36-3.77,8.59-2.75-.66-3.4-7-4.76-9.2-.7,1.69-2.88,5.58-3.78,5,.64-8-1.84-12.06-3.18-14.24,2.16,9.94-4.81,16.08-9.69,20.17,0-.68-2.18-3.8-2.28-4.56-3.18,5.6-4.23.12-7-1.93-.24.76.18,4-1.64,4.52.14-2.23-1.21-6-1.48-8-1.38.7-.86,5.75-1.59,5.5-2.42-9.88-3.56-8.37-4.11-11.35,0,7.44-2,12.73-1.83,19.28a12.08,12.08,0,0,1-1.66-8.75c-1.21,4.3-4.14,9.47-6.71,5.36-.85-1.35-1-4.81-1.29-6.63-.77,4.59-2.88,11.31-6.23,11.7-3.56.42-4.95-5.47-5.25-10.79-.24,4.1-.88,9.66-3.53,10.89-2,.94-4.62-1.56-5.31-6.1,0,2-3.77,5-4.61,6C-46.39,813-48.44,815.38-49,819c-2-3.38-3.36-12.4-1.64-18.09-1.67,3.49-2.9,10.64-5.08,9.06-1.05-.76-3.29-9.55-2.23-11.72-2,1.68-5,7.12-5.53,11.37a9.4,9.4,0,0,1-1.67-3.95c-1.33,2.71-2.32,6.77-4.78,7.06a10.38,10.38,0,0,1-.31-6c-.79,1.25-1.34,5.06-3.2,5.82-.38-4.72-1.37-8.67-.61-13.63-1.92,5.4-3.76,6.28-5.14,8.33-1.81,2.68-3.17,6.51-5.55,7.79s-2.55-4.27-2.49-7.93c-1.26,2.86-3.09,6.3-5.09,7.76-.1-.81-.58-1.54-.65-2.46a5.48,5.48,0,0,1-3.2.77c-.08-.68-.27-1.09-.37-1.65-1.36,1.41-5.71,4.94-7.33,4-3.9-2.33-2.24-11.64-.62-15.47-1.81,2.65-5.31,5.07-7.23,8.89-1.28,2.53-1.45,5-3.56,6.06a32.43,32.43,0,0,1-1.39-11.4c-1.38,3.22-7.93,14.47-8.76,4.65-.69,2.46-1.91,6.55-3.61,7.65-2.48,1.6-3.33-4-3.55-3.9-2.28.84-2.58-2.12-2.4-5.27-1,2.52-1,5.41-2.61,5.93-1.16.36-1.37-1.9-2.33-1.52-.58.23-1.19,2.27-2.06,4.91v6.88H1640C1640,819.59,1640,816.26,1640,812.94Z"/></g></g></g></svg>