<svg id="Layer_1" data-name="Layer 1" xmlns="http://www.w3.org/2000/svg" viewBox="0 0 450 490"><defs><style>.cls-1{fill:#8d8e8d;}</style></defs><path class="cls-1" d="M433.65,16.9H16.4L16,75.17H164.15V94.58s-54.82-11.42-88.74,27.21S52.31,270,180.48,237.42c0,0,16.61-7.57,21.22.72,0,0,14.89,24.22-3.67,64.26,0,0-5.52,10.42-12.26,16.4l-27.61-27.32S133.91,269,102.62,274.8c0,0-70.79,9-45,72.91,0,0,17.74,44.87,110.66,37.05,0,0,24.18,64.45,37.52,88.34l49.92-35.68a208.9,208.9,0,0,1-20.94-34.71S222.32,374,218.65,368.65c0,0,42.89-21.95,45-90.72h68.65v182.8l59.12,0V75.17H434ZM105.83,321.11c12.29-17.08,43.76,24.37,43.76,24.37S92.31,340,105.83,321.11ZM332.31,217.48H250.89c-8.73-17.64-23.37-33.46-48-38.09,0,0-19.61-4.9-43.86,2.13,0,0-31.43,7.6-45.49-3.54,0,0-8.43-2.19-1.84-15.24,0,0,3.61-13.59,37.16-10.6,0,0,27.93.47,50,7.71,0,0,29.67,9.56,35.65-19.42V75.17h97.77Z"/></svg>