<svg id="Layer_1" data-name="Layer 1" xmlns="http://www.w3.org/2000/svg" xmlns:xlink="http://www.w3.org/1999/xlink" width="1600" height="900" viewBox="0 0 1600 900">
  <defs>
    <style>
      .cls-1 {
        fill: none;
      }

      .cls-2 {
        clip-path: url(#clip-path);
      }

      .cls-3 {
        opacity: 0.03;
      }

      .cls-4 {
        fill: #fff;
      }
    </style>
    <clipPath id="clip-path">
      <rect class="cls-1" width="1600" height="900"/>
    </clipPath>
  </defs>
  <g class="cls-2">
    <g id="BG_texture" data-name="BG texture" class="cls-3">
      <polygon class="cls-4" points="49.16 614.6 64.41 626.43 60.45 603.87 73.79 588.61 56.12 586.55 49.12 565.29 42.15 586.57 24.48 588.69 37.85 603.9 33.93 626.48 49.16 614.6"/>
      <polygon class="cls-4" points="49.38 848.31 42.41 869.59 24.74 871.71 38.11 886.93 34.2 909.5 49.42 897.62 64.67 909.45 60.72 886.89 74.06 871.63 56.38 869.57 49.38 848.31"/>
      <path class="cls-4" d="M64.13,719.92l-14-42.53L36.19,720,.85,724.2l26.74,30.43-7.83,45.14L50.22,776l30.49,23.67L72.8,754.56,99.48,724Zm-1.35,30.41,4.41,25.13-17-13.18-17,13.23,4.36-25.14-14.89-17,19.68-2.36,7.76-23.71L58,731l19.69,2.29Z"/>
      <polygon class="cls-4" points="60.19 320.85 73.53 305.59 55.86 303.53 48.85 282.26 41.89 303.55 24.22 305.67 37.59 320.88 33.67 343.45 48.9 331.57 64.15 343.41 60.19 320.85"/>
      <path class="cls-4" d="M80.45,516.65l-7.92-45.11L99.22,441,63.87,436.9l-14-42.53L35.93,436.94.59,441.18l26.74,30.43L19.5,516.75,50,493Zm-43.11-49.3-14.89-17L42.13,448l7.76-23.71L57.69,448l19.69,2.29-14.86,17,4.41,25.12-17-13.17L33,492.49Z"/>
      <polygon class="cls-4" points="42.08 20.92 24.41 23.04 37.78 38.25 33.86 60.83 49.09 48.95 64.34 60.78 60.38 38.22 73.72 22.96 56.05 20.9 49.05 -0.36 42.08 20.92"/>
      <path class="cls-4" d="M80.64,234l-7.91-45.12,26.68-30.52-35.35-4.12-14-42.53L36.12,154.31.78,158.55,27.52,189l-7.83,45.14,30.46-23.76ZM37.53,184.72,22.64,167.77l19.68-2.36,7.76-23.71,7.8,23.69,19.69,2.29-14.86,17,4.41,25.13-17-13.18-17,13.23Z"/>
      <polygon class="cls-4" points="237.68 614.6 252.93 626.43 248.97 603.87 262.31 588.61 244.64 586.55 237.63 565.29 230.67 586.57 213 588.69 226.37 603.9 222.45 626.48 237.68 614.6"/>
      <path class="cls-4" d="M142.53,581l21.67,16.82-5.62-32.06,19-21.69-25.12-2.93L142.47,511l-9.9,30.25-25.12,3,19,21.63-5.57,32.08ZM123,550.78l14-1.68,5.52-16.85L148,549.08l14,1.64-10.56,12.07,3.13,17.86-12.07-9.37-12.05,9.41,3.1-17.87Z"/>
      <polygon class="cls-4" points="237.9 848.31 230.93 869.59 213.26 871.71 226.63 886.93 222.71 909.5 237.94 897.62 253.19 909.45 249.23 886.89 262.57 871.63 244.9 869.57 237.9 848.31"/>
      <path class="cls-4" d="M142.72,782.15,164.39,799l-5.63-32.06,19-21.69-25.11-2.93-10-30.22-9.9,30.25-25.11,3,19,21.63L121.08,799Zm-19.55-30.26,14-1.68,5.51-16.84,5.55,16.82,14,1.64L151.65,763.9l3.13,17.86-12.07-9.37-12.05,9.41,3.09-17.87Z"/>
      <path class="cls-4" d="M252.65,719.92l-14-42.53L224.71,720l-35.34,4.24,26.74,30.43-7.83,45.14L238.73,776l30.5,23.67-7.91-45.12L288,724Zm-1.35,30.41,4.41,25.13-17-13.18-17,13.23,4.36-25.14-14.89-17,19.68-2.36,7.76-23.71,7.8,23.69,19.69,2.29Z"/>
      <polygon class="cls-4" points="141.97 667.45 152.8 675.86 149.99 659.83 159.47 648.99 146.91 647.52 141.94 632.41 136.99 647.54 124.43 649.04 133.93 659.86 131.15 675.89 141.97 667.45"/>
      <polygon class="cls-4" points="248.71 320.85 262.05 305.59 244.37 303.53 237.37 282.26 230.41 303.55 212.74 305.67 226.1 320.88 222.19 343.45 237.42 331.57 252.67 343.41 248.71 320.85"/>
      <path class="cls-4" d="M142.34,379.93,164,396.75l-5.63-32.06,19-21.69-25.12-2.93-9.95-30.22-9.9,30.25-25.11,3,19,21.63-5.57,32.07ZM122.8,349.67l14-1.68,5.51-16.85L147.84,348l14,1.63-10.56,12.08,3.14,17.86-12.08-9.37-12.05,9.4,3.1-17.86Z"/>
      <path class="cls-4" d="M269,516.65l-7.92-45.11L287.74,441l-35.35-4.12-14-42.53-13.93,42.57-35.34,4.24,26.74,30.43L208,516.75,238.47,493Zm-43.11-49.3-14.9-17L230.65,448l7.76-23.71,7.8,23.69,19.69,2.29-14.87,17,4.41,25.12-17-13.17-17,13.23Z"/>
      <polygon class="cls-4" points="141.78 466.34 152.62 474.75 149.81 458.72 159.28 447.88 146.73 446.41 141.75 431.3 136.8 446.43 124.24 447.93 133.74 458.75 130.96 474.78 141.78 466.34"/>
      <polygon class="cls-4" points="142.16 868.56 152.99 876.97 150.18 860.94 159.66 850.1 147.1 848.63 142.12 833.52 137.17 848.65 124.62 850.15 134.12 860.97 131.33 877.01 142.16 868.56"/>
      <polygon class="cls-4" points="230.6 20.92 212.93 23.04 226.3 38.25 222.38 60.83 237.61 48.95 252.86 60.78 248.9 38.22 262.24 22.96 244.57 20.9 237.56 -0.36 230.6 20.92"/>
      <path class="cls-4" d="M142.48,179.1l21.67,16.81-5.62-32.06,19-21.68-25.12-2.93-10-30.22-9.9,30.25-25.12,3,19,21.62L120.84,196Zm-19.54-30.27,14-1.67,5.52-16.85L148,147.14l14,1.63-10.56,12.08,3.13,17.85-12.07-9.36-12.05,9.4,3.1-17.86Z"/>
      <path class="cls-4" d="M269.16,234l-7.92-45.12,26.69-30.52-35.35-4.12-14-42.53-13.93,42.57-35.34,4.24L216,189l-7.83,45.14,30.45-23.76Zm-43.11-49.31-14.89-16.95,19.68-2.36,7.76-23.71,7.8,23.69,19.69,2.29-14.86,17,4.41,25.13-17-13.18-17,13.23Z"/>
      <polygon class="cls-4" points="141.92 265.51 152.75 273.92 149.94 257.89 159.42 247.05 146.86 245.58 141.89 230.47 136.94 245.6 124.38 247.1 133.88 257.91 131.1 273.95 141.92 265.51"/>
      <polygon class="cls-4" points="141.92 57.69 152.75 66.1 149.94 50.07 159.42 39.23 146.86 37.77 141.89 22.66 136.94 37.78 124.38 39.29 133.88 50.1 131.1 66.14 141.92 57.69"/>
      <polygon class="cls-4" points="426.2 614.6 441.45 626.43 437.49 603.87 450.83 588.61 433.15 586.55 426.15 565.29 419.19 586.57 401.51 588.69 414.88 603.9 410.97 626.48 426.2 614.6"/>
      <path class="cls-4" d="M331.05,581l21.67,16.82-5.63-32.06,19-21.69-25.11-2.93L331,511l-9.9,30.25-25.11,3,19,21.63-5.56,32.08ZM311.5,550.78l14-1.68L331,532.25l5.55,16.83,14,1.64L340,562.79l3.13,17.86L331,571.28,319,580.69l3.1-17.87Z"/>
      <polygon class="cls-4" points="426.41 848.31 419.45 869.59 401.78 871.71 415.15 886.93 411.23 909.5 426.46 897.62 441.71 909.45 437.75 886.89 451.09 871.63 433.42 869.57 426.41 848.31"/>
      <path class="cls-4" d="M331.23,782.15,352.91,799l-5.63-32.06,19-21.69-25.12-2.93-9.95-30.22-9.9,30.25-25.11,3,19,21.63L309.59,799Zm-19.54-30.26,14-1.68,5.51-16.84,5.54,16.82,14,1.64L340.16,763.9l3.14,17.86-12.07-9.37-12.06,9.41,3.1-17.87Z"/>
      <path class="cls-4" d="M441.17,719.92l-14-42.53L413.23,720l-35.34,4.24,26.74,30.43-7.84,45.14L427.25,776l30.5,23.67-7.92-45.12L476.52,724Zm-1.36,30.41,4.42,25.13-17-13.18-17,13.23,4.36-25.14-14.89-17,19.68-2.36,7.76-23.71L435,731l19.69,2.29Z"/>
      <polygon class="cls-4" points="330.49 667.45 341.32 675.86 338.51 659.83 347.99 648.99 335.43 647.52 330.45 632.41 325.5 647.54 312.95 649.04 322.45 659.86 319.67 675.89 330.49 667.45"/>
      <polygon class="cls-4" points="437.23 320.85 450.57 305.59 432.89 303.53 425.89 282.26 418.92 303.55 401.25 305.67 414.62 320.88 410.71 343.45 425.93 331.57 441.18 343.41 437.23 320.85"/>
      <path class="cls-4" d="M330.86,379.93l21.67,16.82-5.62-32.06,19-21.69-25.12-2.93-9.95-30.22-9.9,30.25-25.11,3,19,21.63-5.57,32.07Zm-19.54-30.26,14-1.68,5.52-16.85L336.36,348l14,1.63-10.56,12.08,3.13,17.86-12.07-9.37-12.05,9.4,3.1-17.86Z"/>
      <path class="cls-4" d="M457.49,516.65l-7.92-45.11L476.25,441,440.9,436.9l-14-42.53L413,436.94l-35.34,4.24,26.74,30.43-7.84,45.14L427,493Zm-43.11-49.3-14.9-17L419.17,448l7.75-23.71L434.73,448l19.68,2.29-14.86,17L444,492.43l-17-13.17-17,13.23Z"/>
      <polygon class="cls-4" points="330.3 466.34 341.13 474.75 338.32 458.72 347.8 447.88 335.24 446.41 330.27 431.3 325.32 446.43 312.76 447.93 322.26 458.75 319.48 474.78 330.3 466.34"/>
      <polygon class="cls-4" points="330.67 868.56 341.51 876.97 338.69 860.94 348.18 850.1 335.62 848.63 330.64 833.52 325.69 848.65 313.13 850.15 322.63 860.97 319.85 877.01 330.67 868.56"/>
      <polygon class="cls-4" points="419.12 20.92 401.44 23.04 414.81 38.25 410.9 60.83 426.13 48.95 441.38 60.78 437.42 38.22 450.76 22.96 433.08 20.9 426.08 -0.36 419.12 20.92"/>
      <path class="cls-4" d="M331,179.1l21.67,16.81L347,163.85l19-21.68-25.12-2.93-10-30.22L321,139.27l-25.12,3,19,21.62L309.36,196Zm-19.55-30.27,14-1.67L331,130.31l5.55,16.83,14,1.63-10.56,12.08,3.13,17.85L331,169.34l-12.05,9.4,3.1-17.86Z"/>
      <path class="cls-4" d="M457.68,234l-7.92-45.12,26.69-30.52-35.35-4.12-14-42.53-13.93,42.57-35.34,4.24L404.56,189l-7.83,45.14,30.45-23.76Zm-43.11-49.31-14.9-16.95,19.69-2.36,7.76-23.71,7.8,23.69,19.69,2.29-14.87,17,4.42,25.13-17-13.18-17,13.23Z"/>
      <polygon class="cls-4" points="330.44 265.51 341.27 273.92 338.46 257.89 347.94 247.05 335.38 245.58 330.4 230.47 325.45 245.6 312.9 247.1 322.4 257.91 319.62 273.95 330.44 265.51"/>
      <polygon class="cls-4" points="330.44 57.69 341.27 66.1 338.46 50.07 347.94 39.23 335.38 37.77 330.4 22.66 325.45 37.78 312.9 39.29 322.4 50.1 319.62 66.14 330.44 57.69"/>
      <polygon class="cls-4" points="614.71 614.6 629.96 626.43 626 603.87 639.35 588.61 621.67 586.55 614.67 565.29 607.7 586.57 590.03 588.69 603.4 603.9 599.49 626.48 614.71 614.6"/>
      <path class="cls-4" d="M519.57,581l21.67,16.82-5.63-32.06,19-21.69-25.12-2.93L519.5,511l-9.9,30.25-25.11,3,19,21.63-5.57,32.08ZM500,550.78l14-1.68,5.51-16.85,5.54,16.83,14,1.64-10.56,12.07,3.14,17.86-12.07-9.37-12.06,9.41,3.1-17.87Z"/>
      <polygon class="cls-4" points="614.93 848.31 607.97 869.59 590.29 871.71 603.67 886.93 599.75 909.5 614.98 897.62 630.23 909.45 626.27 886.89 639.61 871.63 621.93 869.57 614.93 848.31"/>
      <path class="cls-4" d="M519.75,782.15,541.42,799l-5.62-32.06,19-21.69-25.12-2.93-9.95-30.22-9.9,30.25-25.11,3,19,21.63L498.11,799Zm-19.54-30.26,14-1.68,5.52-16.84,5.54,16.82,14,1.64L528.68,763.9l3.13,17.86-12.07-9.37-12.05,9.41,3.1-17.87Z"/>
      <path class="cls-4" d="M629.68,719.92l-14-42.53L601.75,720l-35.34,4.24,26.74,30.43-7.84,45.14L615.77,776l30.5,23.67-7.92-45.12L665,724Zm-1.35,30.41,4.41,25.13-17-13.18-17,13.23,4.37-25.14-14.9-17L608,731.06l7.75-23.71L623.51,731l19.68,2.29Z"/>
      <polygon class="cls-4" points="519 667.45 529.84 675.86 527.03 659.83 536.51 648.99 523.95 647.52 518.97 632.41 514.02 647.54 501.46 649.04 510.97 659.86 508.18 675.89 519 667.45"/>
      <polygon class="cls-4" points="625.74 320.85 639.08 305.59 621.41 303.53 614.4 282.26 607.44 303.55 589.77 305.67 603.14 320.88 599.22 343.45 614.45 331.57 629.7 343.41 625.74 320.85"/>
      <path class="cls-4" d="M519.38,379.93l21.67,16.82-5.63-32.06,19-21.69-25.12-2.93-10-30.22-9.89,30.25-25.12,3,19,21.63-5.56,32.07Zm-19.55-30.26,14-1.68,5.51-16.85L524.88,348l14,1.63-10.56,12.08,3.13,17.86-12.07-9.37-12.05,9.4,3.1-17.86Z"/>
      <path class="cls-4" d="M646,516.65l-7.91-45.11L664.77,441l-35.35-4.12-14-42.53-13.93,42.57-35.34,4.24,26.74,30.43-7.83,45.14L615.51,493Zm-43.11-49.3L588,450.4,607.68,448l7.76-23.71,7.8,23.69,19.69,2.29-14.86,17,4.41,25.12-17-13.17-17,13.23Z"/>
      <polygon class="cls-4" points="518.82 466.34 529.65 474.75 526.84 458.72 536.32 447.88 523.76 446.41 518.78 431.3 513.84 446.43 501.28 447.93 510.78 458.75 508 474.78 518.82 466.34"/>
      <polygon class="cls-4" points="519.19 868.56 530.03 876.97 527.21 860.94 536.69 850.1 524.13 848.63 519.16 833.52 514.21 848.65 501.65 850.15 511.15 860.97 508.37 877.01 519.19 868.56"/>
      <polygon class="cls-4" points="607.63 20.92 589.96 23.04 603.33 38.25 599.42 60.83 614.64 48.95 629.89 60.78 625.93 38.22 639.28 22.96 621.6 20.9 614.6 -0.36 607.63 20.92"/>
      <path class="cls-4" d="M519.52,179.1l21.67,16.81-5.63-32.06,19-21.68-25.12-2.93L519.45,109l-9.9,30.25-25.11,3,19,21.62L497.87,196ZM500,148.83l14-1.67,5.51-16.85L525,147.14l14,1.63-10.56,12.08,3.14,17.85-12.07-9.36-12.06,9.4,3.1-17.86Z"/>
      <path class="cls-4" d="M646.2,234l-7.92-45.12L665,158.39l-35.35-4.12-14-42.53-13.93,42.57-35.34,4.24L593.08,189l-7.84,45.14,30.46-23.76Zm-43.11-49.31-14.9-16.95,19.69-2.36,7.75-23.71,7.81,23.69,19.68,2.29-14.86,17,4.41,25.13-17-13.18-17,13.23Z"/>
      <polygon class="cls-4" points="518.95 265.51 529.79 273.92 526.98 257.89 536.46 247.05 523.9 245.58 518.92 230.47 513.97 245.6 501.42 247.1 510.92 257.91 508.13 273.95 518.95 265.51"/>
      <polygon class="cls-4" points="518.95 57.69 529.79 66.1 526.98 50.07 536.46 39.23 523.9 37.77 518.92 22.66 513.97 37.78 501.42 39.29 510.92 50.1 508.13 66.14 518.95 57.69"/>
      <polygon class="cls-4" points="803.23 614.6 818.48 626.43 814.52 603.87 827.86 588.61 810.19 586.55 803.18 565.29 796.22 586.57 778.55 588.69 791.92 603.9 788 626.48 803.23 614.6"/>
      <path class="cls-4" d="M708.08,581l21.68,16.82-5.63-32.06,19-21.69L718,541.18,708,511l-9.9,30.25-25.11,3,19,21.63-5.57,32.08Zm-19.54-30.26,14-1.68L708,532.25l5.54,16.83,14,1.64L717,562.79l3.13,17.86-12.07-9.37L696,580.69l3.1-17.87Z"/>
      <polygon class="cls-4" points="803.45 848.31 796.48 869.59 778.81 871.71 792.18 886.93 788.27 909.5 803.49 897.62 818.74 909.45 814.78 886.89 828.13 871.63 810.45 869.57 803.45 848.31"/>
      <path class="cls-4" d="M708.27,782.15,729.94,799l-5.62-32.06,19-21.69-25.12-2.93-10-30.22-9.89,30.25-25.12,3,19,21.63L686.63,799Zm-19.55-30.26,14-1.68,5.51-16.84,5.55,16.82,14,1.64L717.2,763.9l3.13,17.86-12.07-9.37-12,9.41,3.1-17.87Z"/>
      <path class="cls-4" d="M818.2,719.92l-14-42.53L790.26,720l-35.34,4.24,26.74,30.43-7.83,45.14L804.29,776l30.49,23.67-7.91-45.12L853.55,724Zm-1.35,30.41,4.41,25.13-17-13.18-17,13.23,4.36-25.14-14.89-17,19.68-2.36,7.76-23.71L812,731l19.69,2.29Z"/>
      <polygon class="cls-4" points="707.52 667.45 718.36 675.86 715.54 659.83 725.02 648.99 712.47 647.52 707.49 632.41 702.54 647.54 689.98 649.04 699.48 659.86 696.7 675.89 707.52 667.45"/>
      <polygon class="cls-4" points="814.26 320.85 827.6 305.59 809.93 303.53 802.92 282.26 795.96 303.55 778.29 305.67 791.66 320.88 787.74 343.45 802.97 331.57 818.22 343.41 814.26 320.85"/>
      <path class="cls-4" d="M707.9,379.93l21.67,16.82-5.63-32.06,19-21.69-25.12-2.93-9.95-30.22-9.9,30.25-25.11,3,19,21.63-5.57,32.07Zm-19.55-30.26,14-1.68,5.51-16.85L713.4,348l14,1.63-10.56,12.08L720,379.54l-12.07-9.37-12.06,9.4,3.1-17.86Z"/>
      <path class="cls-4" d="M834.52,516.65l-7.92-45.11L853.29,441l-35.35-4.12-14-42.53L790,436.94l-35.34,4.24,26.74,30.43-7.83,45.14L804,493Zm-43.11-49.3-14.89-17L796.2,448,804,424.33l7.8,23.69,19.69,2.29-14.86,17L821,492.43l-17-13.17-17,13.23Z"/>
      <polygon class="cls-4" points="707.33 466.34 718.17 474.75 715.36 458.72 724.84 447.88 712.28 446.41 707.3 431.3 702.35 446.43 689.8 447.93 699.3 458.75 696.51 474.78 707.33 466.34"/>
      <polygon class="cls-4" points="707.71 868.56 718.54 876.97 715.73 860.94 725.21 850.1 712.65 848.63 707.67 833.52 702.73 848.65 690.17 850.15 699.67 860.97 696.89 877.01 707.71 868.56"/>
      <polygon class="cls-4" points="796.15 20.92 778.48 23.04 791.85 38.25 787.93 60.83 803.16 48.95 818.41 60.78 814.45 38.22 827.79 22.96 810.12 20.9 803.12 -0.36 796.15 20.92"/>
      <path class="cls-4" d="M708,179.1l21.68,16.81-5.63-32.06,19-21.68-25.12-2.93L708,109l-9.9,30.25-25.11,3,19,21.62L686.39,196Zm-19.54-30.27,14-1.67L708,130.31l5.54,16.83,14,1.63L717,160.85l3.13,17.85L708,169.34l-12,9.4,3.1-17.86Z"/>
      <path class="cls-4" d="M834.71,234l-7.91-45.12,26.68-30.52-35.35-4.12-14-42.53-13.93,42.57-35.34,4.24L781.59,189l-7.83,45.14,30.46-23.76ZM791.6,184.72l-14.89-16.95,19.68-2.36,7.76-23.71,7.8,23.69,19.69,2.29-14.86,17,4.41,25.13-17-13.18-17,13.23Z"/>
      <polygon class="cls-4" points="707.47 265.51 718.31 273.92 715.49 257.89 724.97 247.05 712.41 245.58 707.44 230.47 702.49 245.6 689.93 247.1 699.43 257.91 696.65 273.95 707.47 265.51"/>
      <polygon class="cls-4" points="707.47 57.69 718.31 66.1 715.49 50.07 724.97 39.23 712.41 37.77 707.44 22.66 702.49 37.78 689.93 39.29 699.43 50.1 696.65 66.14 707.47 57.69"/>
      <polygon class="cls-4" points="991.75 614.6 1007 626.43 1003.04 603.87 1016.38 588.61 998.71 586.55 991.7 565.29 984.74 586.57 967.07 588.69 980.44 603.9 976.52 626.48 991.75 614.6"/>
      <path class="cls-4" d="M896.6,581l21.67,16.82-5.62-32.06,19-21.69-25.12-2.93-10-30.22-9.9,30.25-25.12,3,19,21.63L875,597.93Zm-19.54-30.26,14-1.68,5.51-16.85,5.55,16.83,14,1.64-10.56,12.07,3.13,17.86-12.07-9.37-12.05,9.41,3.1-17.87Z"/>
      <polygon class="cls-4" points="991.97 848.31 985 869.59 967.33 871.71 980.7 886.93 976.78 909.5 992.01 897.62 1007.26 909.45 1003.3 886.89 1016.64 871.63 998.97 869.57 991.97 848.31"/>
      <path class="cls-4" d="M896.79,782.15,918.46,799l-5.63-32.06,19-21.69-25.11-2.93-10-30.22-9.9,30.25-25.11,3,19,21.63L875.15,799Zm-19.55-30.26,14-1.68,5.51-16.84,5.55,16.82,14,1.64L905.71,763.9l3.14,17.86-12.07-9.37-12,9.41,3.09-17.87Z"/>
      <path class="cls-4" d="M1006.72,719.92l-14-42.53L978.78,720l-35.34,4.24,26.74,30.43-7.83,45.14L992.8,776l30.5,23.67-7.92-45.12L1042.07,724Zm-1.35,30.41,4.41,25.13-17-13.18-17,13.23,4.36-25.14-14.89-17L985,731.06l7.76-23.71,7.8,23.69,19.69,2.29Z"/>
      <polygon class="cls-4" points="896.04 667.45 906.87 675.86 904.06 659.83 913.54 648.99 900.98 647.52 896 632.41 891.06 647.54 878.5 649.04 888 659.86 885.22 675.89 896.04 667.45"/>
      <polygon class="cls-4" points="1002.78 320.85 1016.12 305.59 998.44 303.53 991.44 282.26 984.48 303.55 966.8 305.67 980.17 320.88 976.26 343.45 991.49 331.57 1006.74 343.41 1002.78 320.85"/>
      <path class="cls-4" d="M896.41,379.93l21.68,16.82-5.63-32.06,19-21.69-25.12-2.93-9.95-30.22-9.9,30.25-25.11,3,19,21.63-5.57,32.07Zm-19.54-30.26,14-1.68,5.51-16.85L901.91,348l14,1.63-10.56,12.08,3.14,17.86-12.08-9.37-12,9.4,3.1-17.86Z"/>
      <path class="cls-4" d="M1023,516.65l-7.92-45.11L1041.81,441l-35.35-4.12-14-42.53-13.93,42.57-35.34,4.24,26.74,30.43-7.84,45.14L992.54,493Zm-43.11-49.3-14.9-17L984.72,448l7.76-23.71,7.8,23.69,19.69,2.29-14.87,17,4.41,25.12-17-13.17-17,13.23Z"/>
      <polygon class="cls-4" points="895.85 466.34 906.69 474.75 903.87 458.72 913.36 447.88 900.79 446.41 895.82 431.3 890.87 446.43 878.31 447.93 887.81 458.75 885.03 474.78 895.85 466.34"/>
      <polygon class="cls-4" points="896.23 868.56 907.06 876.97 904.25 860.94 913.73 850.1 901.17 848.63 896.19 833.52 891.24 848.65 878.69 850.15 888.19 860.97 885.4 877.01 896.23 868.56"/>
      <polygon class="cls-4" points="984.67 20.92 967 23.04 980.37 38.25 976.45 60.83 991.68 48.95 1006.93 60.78 1002.97 38.22 1016.31 22.96 998.64 20.9 991.63 -0.36 984.67 20.92"/>
      <path class="cls-4" d="M896.55,179.1l21.67,16.81-5.62-32.06,19-21.68-25.12-2.93-10-30.22-9.9,30.25-25.12,3,19,21.62L874.91,196ZM877,148.83l14-1.67,5.52-16.85,5.54,16.83,14,1.63-10.56,12.08,3.13,17.85-12.07-9.36-12,9.4,3.1-17.86Z"/>
      <path class="cls-4" d="M1023.23,234l-7.92-45.12L1042,158.39l-35.35-4.12-14-42.53-13.93,42.57-35.34,4.24L970.11,189l-7.83,45.14,30.45-23.76Zm-43.11-49.31-14.89-16.95,19.68-2.36,7.76-23.71,7.8,23.69,19.69,2.29-14.86,17,4.41,25.13-17-13.18-17,13.23Z"/>
      <polygon class="cls-4" points="895.99 265.51 906.82 273.92 904.01 257.89 913.49 247.05 900.93 245.58 895.96 230.47 891.01 245.6 878.45 247.1 887.95 257.91 885.17 273.95 895.99 265.51"/>
      <polygon class="cls-4" points="895.99 57.69 906.82 66.1 904.01 50.07 913.49 39.23 900.93 37.77 895.96 22.66 891.01 37.78 878.45 39.29 887.95 50.1 885.17 66.14 895.99 57.69"/>
      <polygon class="cls-4" points="1180.27 614.6 1195.52 626.43 1191.56 603.87 1204.9 588.61 1187.22 586.55 1180.22 565.29 1173.26 586.57 1155.59 588.69 1168.95 603.9 1165.04 626.48 1180.27 614.6"/>
      <path class="cls-4" d="M1085.12,581l21.67,16.82-5.63-32.06,19-21.69L1095,541.18l-10-30.22-9.9,30.25-25.11,3,19,21.63-5.56,32.08Zm-19.55-30.26,14-1.68,5.51-16.85,5.55,16.83,14,1.64-10.56,12.07,3.13,17.86-12.07-9.37-12,9.41,3.1-17.87Z"/>
      <polygon class="cls-4" points="1180.48 848.31 1173.52 869.59 1155.85 871.71 1169.22 886.93 1165.3 909.5 1180.53 897.62 1195.78 909.45 1191.82 886.89 1205.16 871.63 1187.49 869.57 1180.48 848.31"/>
      <path class="cls-4" d="M1085.3,782.15,1107,799l-5.63-32.06,19-21.69-25.12-2.93-10-30.22-9.9,30.25-25.11,3,19,21.63L1063.66,799Zm-19.54-30.26,14-1.68,5.51-16.84,5.54,16.82,14,1.64-10.56,12.07,3.14,17.86-12.07-9.37-12.06,9.41,3.1-17.87Z"/>
      <path class="cls-4" d="M1195.24,719.92l-14-42.53L1167.3,720,1132,724.2l26.74,30.43-7.84,45.14L1181.32,776l30.5,23.67-7.92-45.12L1230.59,724Zm-1.36,30.41,4.41,25.13-17-13.18-17,13.23,4.36-25.14-14.9-17,19.69-2.36,7.76-23.71,7.8,23.69,19.69,2.29Z"/>
      <polygon class="cls-4" points="1084.56 667.45 1095.39 675.86 1092.58 659.83 1102.06 648.99 1089.5 647.52 1084.52 632.41 1079.57 647.54 1067.02 649.04 1076.52 659.86 1073.73 675.89 1084.56 667.45"/>
      <polygon class="cls-4" points="1191.29 320.85 1204.64 305.59 1186.96 303.53 1179.96 282.26 1172.99 303.55 1155.32 305.67 1168.69 320.88 1164.78 343.45 1180 331.57 1195.25 343.41 1191.29 320.85"/>
      <path class="cls-4" d="M1084.93,379.93l21.67,16.82L1101,364.69l19-21.69-25.12-2.93-10-30.22L1075,340.1l-25.11,3,19,21.63-5.57,32.07Zm-19.54-30.26,14-1.68,5.52-16.85,5.54,16.83,14,1.63-10.56,12.08,3.13,17.86-12.07-9.37-12.05,9.4,3.1-17.86Z"/>
      <path class="cls-4" d="M1211.56,516.65l-7.92-45.11L1230.32,441,1195,436.9l-14-42.53L1167,436.94l-35.34,4.24,26.74,30.43-7.84,45.14L1181.06,493Zm-43.12-49.3-14.89-17,19.69-2.36,7.75-23.71L1188.8,448l19.68,2.29-14.86,17,4.41,25.12-17-13.17-17,13.23Z"/>
      <polygon class="cls-4" points="1084.37 466.34 1095.2 474.75 1092.39 458.72 1101.87 447.88 1089.31 446.41 1084.34 431.3 1079.39 446.43 1066.83 447.93 1076.33 458.75 1073.55 474.78 1084.37 466.34"/>
      <polygon class="cls-4" points="1084.74 868.56 1095.58 876.97 1092.77 860.94 1102.25 850.1 1089.69 848.63 1084.71 833.52 1079.76 848.65 1067.2 850.15 1076.7 860.97 1073.92 877.01 1084.74 868.56"/>
      <polygon class="cls-4" points="1173.18 20.92 1155.52 23.04 1168.88 38.25 1164.97 60.83 1180.2 48.95 1195.45 60.78 1191.49 38.22 1204.83 22.96 1187.15 20.9 1180.15 -0.36 1173.18 20.92"/>
      <path class="cls-4" d="M1085.07,179.1l21.67,16.81-5.63-32.06,19-21.68L1095,139.24,1085,109l-9.9,30.25-25.11,3,19,21.62L1063.43,196Zm-19.55-30.27,14-1.67,5.51-16.85,5.55,16.83,14,1.63L1094,160.85l3.13,17.85-12.07-9.36-12,9.4,3.1-17.86Z"/>
      <path class="cls-4" d="M1211.75,234l-7.92-45.12,26.69-30.52-35.35-4.12-14-42.53-13.93,42.57-35.34,4.24L1158.63,189l-7.84,45.14,30.46-23.76Zm-43.11-49.31-14.9-16.95,19.69-2.36,7.76-23.71,7.8,23.69,19.69,2.29-14.87,17,4.41,25.13-17-13.18-17,13.23Z"/>
      <polygon class="cls-4" points="1084.51 265.51 1095.34 273.92 1092.53 257.89 1102.01 247.05 1089.45 245.58 1084.47 230.47 1079.52 245.6 1066.97 247.1 1076.47 257.91 1073.68 273.95 1084.51 265.51"/>
      <polygon class="cls-4" points="1084.51 57.69 1095.34 66.1 1092.53 50.07 1102.01 39.23 1089.45 37.77 1084.47 22.66 1079.52 37.78 1066.97 39.29 1076.47 50.1 1073.68 66.14 1084.51 57.69"/>
      <polygon class="cls-4" points="1368.78 614.6 1384.03 626.43 1380.07 603.87 1393.42 588.61 1375.74 586.55 1368.74 565.29 1361.77 586.57 1344.1 588.69 1357.47 603.9 1353.56 626.48 1368.78 614.6"/>
      <path class="cls-4" d="M1273.63,581l21.68,16.82-5.63-32.06,19-21.69-25.12-2.93-10-30.22-9.9,30.25-25.11,3,19,21.63L1252,597.93Zm-19.54-30.26,14-1.68,5.51-16.85,5.54,16.83,14,1.64-10.56,12.07,3.14,17.86-12.07-9.37-12.06,9.41,3.1-17.87Z"/>
      <polygon class="cls-4" points="1369 848.31 1362.04 869.59 1344.37 871.71 1357.73 886.93 1353.82 909.5 1369.05 897.62 1384.3 909.45 1380.34 886.89 1393.68 871.63 1376.01 869.57 1369 848.31"/>
      <path class="cls-4" d="M1273.82,782.15,1295.49,799l-5.62-32.06,19-21.69-25.12-2.93-10-30.22-9.9,30.25-25.11,3,19,21.63L1252.18,799Zm-19.54-30.26,14-1.68,5.52-16.84,5.54,16.82,14,1.64-10.56,12.07,3.13,17.86-12.07-9.37-12,9.41,3.1-17.87Z"/>
      <path class="cls-4" d="M1383.75,719.92l-14-42.53L1355.82,720l-35.34,4.24,26.74,30.43-7.84,45.14L1369.84,776l30.5,23.67-7.92-45.12L1419.1,724Zm-1.35,30.41,4.41,25.13-17-13.18-17,13.23,4.37-25.14-14.9-17,19.69-2.36,7.75-23.71,7.81,23.69,19.68,2.29Z"/>
      <polygon class="cls-4" points="1273.07 667.45 1283.91 675.86 1281.1 659.83 1290.58 648.99 1278.02 647.52 1273.04 632.41 1268.09 647.54 1255.54 649.04 1265.04 659.86 1262.25 675.89 1273.07 667.45"/>
      <polygon class="cls-4" points="1379.81 320.85 1393.15 305.59 1375.48 303.53 1368.47 282.26 1361.51 303.55 1343.84 305.67 1357.21 320.88 1353.29 343.45 1368.52 331.57 1383.77 343.41 1379.81 320.85"/>
      <path class="cls-4" d="M1273.45,379.93l21.67,16.82-5.63-32.06,19-21.69-25.12-2.93-10-30.22-9.89,30.25-25.12,3,19,21.63-5.56,32.07Zm-19.55-30.26,14-1.68,5.51-16.85L1279,348l14,1.63-10.56,12.08,3.13,17.86-12.07-9.37-12,9.4,3.1-17.86Z"/>
      <path class="cls-4" d="M1400.07,516.65l-7.91-45.11L1418.84,441l-35.35-4.12-14-42.53-13.93,42.57-35.34,4.24L1347,471.61l-7.83,45.14L1369.57,493ZM1357,467.35l-14.89-17,19.68-2.36,7.76-23.71,7.8,23.69,19.69,2.29-14.86,17,4.41,25.12-17-13.17-17,13.23Z"/>
      <polygon class="cls-4" points="1272.89 466.34 1283.72 474.75 1280.91 458.72 1290.39 447.88 1277.83 446.41 1272.85 431.3 1267.9 446.43 1255.35 447.93 1264.85 458.75 1262.07 474.78 1272.89 466.34"/>
      <polygon class="cls-4" points="1273.26 868.56 1284.1 876.97 1281.28 860.94 1290.76 850.1 1278.2 848.63 1273.23 833.52 1268.28 848.65 1255.72 850.15 1265.22 860.97 1262.44 877.01 1273.26 868.56"/>
      <polygon class="cls-4" points="1361.7 20.92 1344.03 23.04 1357.4 38.25 1353.49 60.83 1368.71 48.95 1383.96 60.78 1380 38.22 1393.35 22.96 1375.67 20.9 1368.67 -0.36 1361.7 20.92"/>
      <path class="cls-4" d="M1273.59,179.1l21.67,16.81-5.63-32.06,19-21.68-25.12-2.93-10-30.22-9.9,30.25-25.11,3,19,21.62L1251.94,196ZM1254,148.83l14-1.67,5.51-16.85,5.54,16.83,14,1.63-10.56,12.08,3.14,17.85-12.07-9.36-12.06,9.4,3.1-17.86Z"/>
      <path class="cls-4" d="M1400.27,234l-7.92-45.12L1419,158.39l-35.35-4.12-14-42.53-13.93,42.57-35.34,4.24L1347.15,189l-7.84,45.14,30.46-23.76Zm-43.11-49.31-14.9-16.95,19.69-2.36,7.75-23.71,7.81,23.69,19.68,2.29-14.86,17,4.41,25.13-17-13.18-17,13.23Z"/>
      <polygon class="cls-4" points="1273.02 265.51 1283.86 273.92 1281.05 257.89 1290.53 247.05 1277.97 245.58 1272.99 230.47 1268.04 245.6 1255.48 247.1 1264.98 257.91 1262.2 273.95 1273.02 265.51"/>
      <polygon class="cls-4" points="1273.02 57.69 1283.86 66.1 1281.05 50.07 1290.53 39.23 1277.97 37.77 1272.99 22.66 1268.04 37.78 1255.48 39.29 1264.98 50.1 1262.2 66.14 1273.02 57.69"/>
      <polygon class="cls-4" points="1557.3 614.6 1572.55 626.43 1568.59 603.87 1581.93 588.61 1564.26 586.55 1557.26 565.29 1550.29 586.57 1532.62 588.69 1545.99 603.9 1542.07 626.48 1557.3 614.6"/>
      <path class="cls-4" d="M1462.15,581l21.67,16.82-5.62-32.06,19-21.69L1472,541.18l-10-30.22-9.9,30.25-25.11,3,19,21.63-5.57,32.08Zm-19.54-30.26,14-1.68,5.52-16.85,5.54,16.83,14,1.64-10.56,12.07,3.13,17.86-12.07-9.37-12.05,9.41,3.1-17.87Z"/>
      <polygon class="cls-4" points="1557.52 848.31 1550.55 869.59 1532.88 871.71 1546.25 886.93 1542.34 909.5 1557.56 897.62 1572.81 909.45 1568.86 886.89 1582.2 871.63 1564.52 869.57 1557.52 848.31"/>
      <path class="cls-4" d="M1462.34,782.15,1484,799l-5.62-32.06,19-21.69-25.12-2.93-10-30.22-9.89,30.25-25.12,3,19,21.63L1440.7,799Zm-19.55-30.26,14-1.68,5.51-16.84,5.55,16.82,14,1.64-10.56,12.07,3.13,17.86-12.07-9.37-12,9.41,3.1-17.87Z"/>
      <path class="cls-4" d="M1572.27,719.92l-14-42.53L1544.33,720,1509,724.2l26.74,30.43-7.83,45.14L1558.35,776l30.5,23.67-7.91-45.12L1607.62,724Zm-1.35,30.41,4.41,25.13-17-13.18-17,13.23,4.36-25.14-14.89-17,19.68-2.36,7.76-23.71,7.8,23.69,19.69,2.29Z"/>
      <polygon class="cls-4" points="1461.59 667.45 1472.43 675.86 1469.61 659.83 1479.09 648.99 1466.53 647.52 1461.56 632.41 1456.61 647.54 1444.05 649.04 1453.55 659.86 1450.77 675.89 1461.59 667.45"/>
      <polygon class="cls-4" points="1568.33 320.85 1581.67 305.59 1564 303.53 1556.99 282.26 1550.03 303.55 1532.36 305.67 1545.73 320.88 1541.81 343.45 1557.04 331.57 1572.29 343.41 1568.33 320.85"/>
      <path class="cls-4" d="M1462,379.93l21.67,16.82L1478,364.69,1497,343l-25.12-2.93-9.95-30.22L1452,340.1l-25.11,3,19,21.63-5.57,32.07Zm-19.55-30.26,14-1.68,5.51-16.85,5.54,16.83,14,1.63-10.56,12.08,3.14,17.86L1462,370.17l-12.06,9.4,3.1-17.86Z"/>
      <path class="cls-4" d="M1588.59,516.65l-7.92-45.11L1607.36,441,1572,436.9l-14-42.53-13.93,42.57-35.34,4.24,26.74,30.43-7.83,45.14L1558.09,493Zm-43.11-49.3-14.89-17,19.68-2.36,7.76-23.71,7.8,23.69,19.69,2.29-14.86,17,4.41,25.12-17-13.17-17,13.23Z"/>
      <polygon class="cls-4" points="1461.4 466.34 1472.24 474.75 1469.43 458.72 1478.91 447.88 1466.35 446.41 1461.37 431.3 1456.42 446.43 1443.87 447.93 1453.37 458.75 1450.58 474.78 1461.4 466.34"/>
      <polygon class="cls-4" points="1461.78 868.56 1472.61 876.97 1469.8 860.94 1479.28 850.1 1466.72 848.63 1461.74 833.52 1456.8 848.65 1444.24 850.15 1453.74 860.97 1450.96 877.01 1461.78 868.56"/>
      <polygon class="cls-4" points="1550.22 20.92 1532.55 23.04 1545.92 38.25 1542 60.83 1557.23 48.95 1572.48 60.78 1568.52 38.22 1581.86 22.96 1564.19 20.9 1557.18 -0.36 1550.22 20.92"/>
      <path class="cls-4" d="M1462.1,179.1l21.68,16.81-5.63-32.06,19-21.68L1472,139.24,1462,109l-9.9,30.25-25.11,3,19,21.62L1440.46,196Zm-19.54-30.27,14-1.67,5.52-16.85,5.54,16.83,14,1.63L1471,160.85l3.13,17.85-12.07-9.36-12,9.4,3.1-17.86Z"/>
      <path class="cls-4" d="M1588.78,234l-7.91-45.12,26.68-30.52-35.35-4.12-14-42.53-13.93,42.57-35.34,4.24L1535.66,189l-7.83,45.14,30.45-23.76Zm-43.11-49.31-14.89-16.95,19.68-2.36,7.76-23.71,7.8,23.69,19.69,2.29-14.86,17,4.41,25.13-17-13.18-17,13.23Z"/>
      <polygon class="cls-4" points="1461.54 265.51 1472.38 273.92 1469.56 257.89 1479.04 247.05 1466.48 245.58 1461.51 230.47 1456.56 245.6 1444 247.1 1453.5 257.91 1450.72 273.95 1461.54 265.51"/>
      <polygon class="cls-4" points="1461.54 57.69 1472.38 66.1 1469.56 50.07 1479.04 39.23 1466.48 37.77 1461.51 22.66 1456.56 37.78 1444 39.29 1453.5 50.1 1450.72 66.14 1461.54 57.69"/>
    </g>
  </g>
</svg>
