<svg id="Layer_1" data-name="Layer 1" xmlns="http://www.w3.org/2000/svg" width="676.09" height="238.98" viewBox="0 0 676.09 238.98">
  <defs>
    <style>
      .cls-1 {
        fill: #0a2600;
      }

      .cls-2 {
        fill: #fffa3e;
      }
    </style>
  </defs>
  <g>
    <g>
      <path class="cls-1" d="M13.39,83.06l1.86-3.16,48-5.09a47.16,47.16,0,0,1,15.15-4.42,62.26,62.26,0,0,1,19.61.74L198.77,60.46l12.75,20.05-1.85,3.16-26.88,2.85,15.13,137-2,1.77-25.64-4.63L157,89.25,123.47,92.8A45.57,45.57,0,0,1,138,122c2,18.54-11.47,37.77-33.55,55,9.72,10.69,26.18,20,46.25,28.07l-7.51,28-1.7.18c-16.16-6.56-34.36-20.57-56.32-46.52-7.46,3.29-14.68,5.93-19.63,6.45-4.17.44-10.77-2.92-19.44-12.47-4.07-4.56-6.37-8.54-6.67-11.32-.7-6.64,5.57-13.87,19-15.29,8.34-.88,16.31.61,25,3.13,4.59-2.36,7.64-4.56,9.73-7-24.64-12.85-42.79-26.39-44.54-42.93a38.2,38.2,0,0,1-.07-6.55l-22.4,2.37Zm81.92,9.45C81.57,94,73.86,103.84,75.09,115.42c1.2,11.28,13.54,18.72,29.57,21.09,6.89-8.7,11.24-17.75,10.13-28.26C113.61,97.13,105.82,91.39,95.31,92.51Z"/>
      <path class="cls-1" d="M194.14,63.92,196,60.75l68.9-7.29,12.75,20.05-1.85,3.16-26.88,2.85,15.13,137-2,1.78-25.64-4.63L223.11,82.25,206.89,84Z"/>
      <path class="cls-1" d="M260.26,56.91l1.85-3.16L408.56,38.24l12.75,20-1.85,3.16L392.58,64.3l15.13,137-2,1.78-25.32-4.51-2.78-32.2a57.43,57.43,0,0,1-28.35,11.13c-16.53,1.75-32.27-3.77-46.79-18.48-10.87-11.19-15.21-21.19-16.11-29.69-2.16-20.39,11.33-39,43.47-42.41,10.5-1.11,23.35-.75,39.53,1.59L367.09,67,273,77Zm62.94,60.35c-8.26,6-11.91,14.39-11,23.19.9,8.5,9.62,15.55,25.68,13.84A53.27,53.27,0,0,0,351.77,151Zm40.51,27c8.33-6.82,10.51-12.83,9.74-20.09l-1.62-15.3a105.81,105.81,0,0,0-23.43,0,76.05,76.05,0,0,0-12.27,2.23Z"/>
      <path class="cls-1" d="M403.93,41.7l1.85-3.17,68.9-7.3,12.75,20.06-1.85,3.16L458.7,57.3l15.13,137-2,1.78-25.64-4.63L432.9,60l-16.22,1.72Z"/>
      <path class="cls-1" d="M470.05,34.69l1.85-3.16,48-5.09A47.47,47.47,0,0,1,535.1,22a62.21,62.21,0,0,1,19.6.74L655.43,12.09l12.75,20.05-1.86,3.17-26.88,2.84,15.13,137-2,1.77-25.65-4.63L613.64,40.88l-33.52,3.56a45.47,45.47,0,0,1,14.5,29.23c2,18.54-11.46,37.78-33.55,55,9.73,10.68,26.18,20,46.25,28.06l-7.5,28-1.7.17c-16.16-6.56-34.36-20.57-56.33-46.52-7.46,3.29-14.68,5.93-19.62,6.45-4.17.45-10.78-2.92-19.44-12.46-4.08-4.57-6.38-8.55-6.67-11.33-.71-6.64,5.56-13.87,19-15.29,8.34-.88,16.31.62,25,3.13,4.6-2.36,7.64-4.56,9.73-7C525.16,89,507,75.46,505.26,58.93a38.34,38.34,0,0,1-.07-6.56l-22.4,2.37ZM552,44.14c-13.75,1.45-21.45,11.33-20.23,22.92,1.2,11.27,13.55,18.71,29.58,21.08,6.89-8.7,11.24-17.75,10.13-28.26C570.27,48.76,562.47,43,552,44.14Z"/>
    </g>
    <path class="cls-2" d="M662.18,26.14l-12.75-20L548.7,16.76A62.21,62.21,0,0,0,529.1,16a47.47,47.47,0,0,0-15.16,4.42l-45.26,4.79h0l-66.12,7h0L256.11,47.75h0l-63.34,6.71h0L92.05,65.13a62.26,62.26,0,0,0-19.61-.74,47.16,47.16,0,0,0-15.15,4.42l-48,5.09L7.39,77.06l12.75,20,22.4-2.37a38.2,38.2,0,0,0,.07,6.55c1.75,16.54,19.9,30.08,44.54,42.93-2.09,2.41-5.14,4.61-9.73,7-8.7-2.52-16.67-4-25-3.13-13.44,1.42-19.71,8.65-19,15.29.3,2.78,2.6,6.76,6.67,11.32,8.67,9.55,15.27,12.91,19.44,12.47,4.95-.52,12.17-3.16,19.63-6.45,22,25.95,40.16,40,56.32,46.52l1.7-.18,7.51-28c-20.07-8-36.53-17.38-46.25-28.07C120.5,153.81,133.93,134.58,132,116a45.57,45.57,0,0,0-14.5-29.24L151,83.25l13.29,131.38,25.64,4.63,2-1.77-15.13-137L200.89,78h0l16.22-1.72L230.4,207.63,256,212.26l2-1.78-15.13-137,26.88-2.85h0L361.09,61l2.27,21.47c-16.18-2.34-29-2.7-39.53-1.59-32.14,3.41-45.63,22-43.47,42.41.9,8.5,5.24,18.5,16.11,29.69,14.52,14.71,30.26,20.23,46.79,18.48a57.43,57.43,0,0,0,28.35-11.13l2.78,32.2L399.71,197l2-1.78-15.13-137,24.1-2.55h0L426.9,54l13.29,131.38L465.83,190l2-1.78L452.7,51.3l26.88-2.85h0l19.61-2.08a38.34,38.34,0,0,0,.07,6.56C501,69.46,519.16,83,543.8,95.85c-2.09,2.41-5.13,4.61-9.73,7-8.7-2.51-16.67-4-25-3.13-13.44,1.42-19.71,8.65-19,15.29.29,2.78,2.59,6.76,6.67,11.33,8.66,9.54,15.27,12.91,19.44,12.46,4.94-.52,12.16-3.16,19.62-6.45,22,26,40.17,40,56.33,46.52l1.7-.17,7.5-28c-20.07-8-36.52-17.38-46.25-28.06,22.09-17.18,35.51-36.42,33.55-55a45.47,45.47,0,0,0-14.5-29.23l33.52-3.56,13.29,131.38,25.65,4.63,2-1.77-15.13-137,26.88-2.84ZM98.66,130.51c-16-2.37-28.37-9.81-29.57-21.09C67.86,97.84,75.57,88,89.31,86.51c10.51-1.12,18.3,4.62,19.48,15.74C109.9,112.76,105.55,121.81,98.66,130.51ZM331.9,148.29c-16.06,1.71-24.78-5.34-25.68-13.84-.93-8.8,2.72-17.16,11-23.19L345.77,145A53.27,53.27,0,0,1,331.9,148.29Zm25.81-10.07-27.58-33.17a76.05,76.05,0,0,1,12.27-2.23,105.81,105.81,0,0,1,23.43,0l1.62,15.3C368.22,125.39,366,131.4,357.71,138.22ZM555.32,82.14c-16-2.37-28.38-9.81-29.58-21.08-1.22-11.59,6.48-21.47,20.23-22.92,10.5-1.12,18.3,4.62,19.48,15.74C566.56,64.39,562.21,73.44,555.32,82.14Z"/>
  </g>
</svg>
