<svg id="Layer_1" data-name="Layer 1" xmlns="http://www.w3.org/2000/svg" width="1099.91" height="608.17" viewBox="0 0 1099.91 608.17">
  <defs>
    <style>
      .cls-1 {
        fill: #ff10e6;
        fill-rule: evenodd;
      }
    </style>
  </defs>
  <polygon class="cls-1" points="811.45 132.75 1005.62 61.97 896.58 133.71 1040.06 116.49 912.84 179.62 1027.62 182.49 962.58 214.05 1085.01 259.01 914.75 280.05 1014.23 323.1 911.88 327.88 1062.06 418.75 949.18 398.66 1016.14 478.05 922.4 435.97 959.71 515.36 821.01 401.53 886.05 497.18 787.53 415.88 804.75 526.84 755.97 421.62 736.84 555.53 692.84 433.1 681.36 514.4 654.58 435.01 649.79 575.62 607.71 437.88 594.32 544.05 566.58 443.62 509.19 589.97 513.01 440.75 427.88 570.84 436.49 445.53 387.71 599.53 400.14 426.4 349.45 506.75 338.92 435.97 249.01 593.79 278.66 433.1 183.97 507.71 253.79 412.05 50.05 498.14 221.27 371.88 114.14 382.4 200.23 329.79 7.97 348.92 196.4 259.97 59.62 256.14 199.27 225.53 89.27 162.4 205.97 195.88 126.58 53.36 290.14 186.31 240.4 101.18 320.75 181.53 280.58 25.62 406.84 179.62 375.27 82.05 468.06 165.27 403.97 16.05 512.05 146.14 488.14 59.1 532.14 113.62 549.36 39.01 595.27 136.57 632.58 19.88 642.14 133.71 706.23 38.05 697.62 126.05 828.66 5.53 775.1 123.18 831.53 93.53 811.45 132.75"/>
</svg>
