<svg id="Layer_1" data-name="Layer 1" xmlns="http://www.w3.org/2000/svg" width="330.69" height="352.22" viewBox="0 0 330.69 352.22">
  <defs>
    <style>
      .cls-1 {
        opacity: 0.5;
      }

      .cls-2 {
        fill: #ff0;
      }

      .cls-3, .cls-6 {
        fill: #d83c2d;
      }

      .cls-14, .cls-17, .cls-18, .cls-3, .cls-5 {
        stroke: #3d2c2c;
        stroke-miterlimit: 10;
      }

      .cls-14, .cls-17, .cls-3, .cls-5 {
        stroke-width: 0.25px;
      }

      .cls-4 {
        fill: #333232;
      }

      .cls-5, .cls-7 {
        fill: #f56461;
      }

      .cls-8 {
        fill: #4b5063;
      }

      .cls-9 {
        fill: #656c7c;
      }

      .cls-10 {
        fill: #c82c1d;
      }

      .cls-11 {
        fill: #4d2317;
      }

      .cls-12 {
        fill: #5a6270;
      }

      .cls-13 {
        fill: #6d7588;
      }

      .cls-14 {
        fill: #969daf;
      }

      .cls-15 {
        fill: #1d2a3a;
      }

      .cls-16, .cls-17 {
        fill: #6f839c;
      }

      .cls-18 {
        fill: #c0bfd1;
        stroke-width: 0.5px;
      }

      .cls-19 {
        fill: #1a3641;
      }

      .cls-20 {
        fill: #b1aca8;
      }

      .cls-21 {
        fill: #f6c4a3;
      }

      .cls-22 {
        fill: #fff;
      }

      .cls-23 {
        fill: #1e191d;
      }

      .cls-24 {
        fill: #9c9cbc;
      }

      .cls-25 {
        fill: #868f9e;
      }

      .cls-26 {
        fill: #d0cedc;
      }
    </style>
  </defs>
  <g>
    <path class="cls-1" d="M83.32,352.22a18.57,18.57,0,0,1-6-1,14.25,14.25,0,0,1-14.2-2.29,14.5,14.5,0,0,1-11.88-14.24A14.55,14.55,0,0,1,51,328,24.81,24.81,0,0,1,75.33,308.1,25,25,0,0,1,87,311a56.53,56.53,0,0,0,9.35.84,35.65,35.65,0,0,0,6.31-.52,26,26,0,0,0,1.91-2.34c-5.68-8.08-14.09-21.35-15.76-31.13-.74-4.37-4.77-9.84-7.14-12.25-.33-.34-.7-.75-1-1.12s-.74-1-1.08-1.41c-15.53-10.74-31.35-23-43.3-39.24-1.28-1.74-2.53-3.56-3.74-5.43A98.2,98.2,0,0,1,26.24,207c-.68-1.47-1.33-3-1.93-4.44a88.19,88.19,0,0,1-6.45-33.25c0-.66,0-1.32,0-2,0,0,0-.85,0-1a180.41,180.41,0,0,1,2-22.42l.08-.49c.71-4.69,1.61-9.56,2.66-14.48l.11-.52c.49-2.26,1-4.52,1.55-6.76l.2-.82c1-4.27,2.2-8.62,3.45-13,0,0,.29-1,.3-1,.29-1,1-3.44,1-3.44l.23-.76,1-3.25.27-.85c.4-1.28.81-2.55,1.22-3.8,0-.07,0-.09.06-.16.85-2.6,1.71-5.13,2.56-7.53l0-.07c.4-1.14.8-2.25,1.19-3.33l1.41-3.86.86-2.3,12.76,4.63L38.19,77.31l1-2.72c.21-.55.41-1.1.59-1.63l.07-.23c.12-.35.23-.69.32-1l0-.19a3.43,3.43,0,0,0,.09-.44h0a2.2,2.2,0,0,0-2.19-2,2.28,2.28,0,0,0-.36,0l-.52.07a96.47,96.47,0,0,1-10.69.8l-1.51,0h-.79a15.66,15.66,0,0,1-14-8.31C6.79,55,8.91,47.62,12.05,43a30.44,30.44,0,0,1,10.31-9.21,22.17,22.17,0,0,1,8.77-8A44.45,44.45,0,0,1,66.19,8.48c1.31,0,2.66.07,4.13.2l.64.06c1.2.13,2.45.32,3.77.58l.75.15c1.22.26,2.45.58,3.63.94l.6.19c1.38.44,2.55.88,3.66,1.34l.4.18c1,.45,2,.94,3.11,1.5l.67.36c1,.52,2,1.12,3,1.82l.77.52c1,.65,1.88,1.35,2.75,2.05l.63.53c1,.88,1.87,1.64,2.63,2.39l.5.52c.7.71,1.42,1.5,2.12,2.33l.45.52c5.65,6.47,9.77,14.8,12.89,26.15.58,2.13,1.07,4.07,1.49,5.95.6,2.67,1.17,5.53,1.79,9,.39,2.19.76,4.42,1.12,6.67.44,2.78.86,5.59,1.29,8.42l.23,1.5c.42,2.75.84,5.51,1.3,8.27l.27,1.62c.56,3.34,1.06,6.08,1.59,8.62l1.18,5.71c.19.93.7,3.26.7,3.26.22,1,.44,1.91.67,2.86l.13.52c.21.89.43,1.73.65,2.56l.08.29c.24.9.5,1.77.76,2.65l.14.45c.29.91.56,1.74.84,2.56a.66.66,0,0,1,0,.15c.3.83.61,1.66.94,2.48l.21.53c.32.78.65,1.56,1,2.35.2.4.43.86.69,1.36l1.07.5,1.33.65c.66.33,1.25.64,1.85,1,.43.23.89.48,1.34.74.63.36,1.27.75,1.9,1.14l.2.12.86.53c.95.61,1.84,1.23,2.72,1.87.37.26.7.51,1,.76l.33.26c.32.23.63.46.93.71l.58.48a58.43,58.43,0,0,1,8.55,8.53c2,2.18,18.05,16.59,46.31,33.06l2,1.15c1.51.87,3,1.73,4.61,2.6l1.72.95c1.14.62,2.28,1.25,3.45,1.87l2,1.06a385.44,385.44,0,0,0,37.45,17.26c.48.2,2.46,1,2.46,1,1.42.55,2.82,1.1,4.25,1.63.7.27,3,1.11,3,1.11l3.92,1.42,3.15,1.1,3.27,1.1q2.79.93,5.63,1.83l3.1,1c1.89.59,3.82,1.15,5.76,1.72l3.13.91c2.06.57,4.15,1.13,6.24,1.68l2.84.75c3.26.83,6.27,1.56,9.21,2.22l.12,0a15.71,15.71,0,0,1,6.7,3.38,14.94,14.94,0,0,1,5.16,10.82A14.43,14.43,0,0,1,311.92,248l-.11.07a23.15,23.15,0,0,1-2.49,1.33c-.27.13-.6.27-.92.4s-.93.39-1.53.61l-.79.28-.2.06c-.46.16-.91.32-1.42.47l-1,.29-1.45.4-1.22.31-1.5.36-1.2.28-1.64.35-1.35.27-1.67.32-1.43.26-3.3.55-3.49.54-2.36.33c1.37.55,2.81,1.14,4.26,1.76l7.17,3,5.64,2.42,3.69,1.62,4.53,2,2.86,1.35,1.77.86,1.5.75,1.91,1,1.46.78,1,.54,1.67,1,.25.15-.22-.13,1.4.88.89.61.36.24c.5.37.93.7,1.32,1l.39.33c.34.29.67.58,1,.85l.56.57.67.72.32.38c.15.18.29.35.43.54s.33.45.49.7c.28.42.58.91.85,1.41s.51,1.06.72,1.58h0a14.32,14.32,0,0,1,.67,2.23,13.84,13.84,0,0,1,.32,2.3s0,.28,0,.31a14.51,14.51,0,0,1-.15,2.47,14.74,14.74,0,0,1-1.9,5.31,14.16,14.16,0,0,1-4,4.29,14.45,14.45,0,0,1-4.68,2.17l-.32.09c-.31.08-.63.14-.95.2l-.13,0a17.55,17.55,0,0,1-1.76.22l-.62,0-1.26,0h-.67l-1.86-.05-2-.11-2.43-.19-3.12-.3-2.18-.22,1.24-13.52-1.42,13.5-1.4-.15,1.3-13.51-1.47,13.49-3.83-.45-5.65-.71-6-.8-6.3-.87-9.53-1.37-10-1.49-6.38-1c-14.08-2.16-25.75-4-28.37-4.47-1.68-.14-7.19-.57-14.35-1.07-7.44-.52-14.3-.94-20.4-1.26-4.26-.22-8.2-.39-11.7-.51-1.8-.06-3.55-.1-5.2-.13l-3.4,0h-1.58l-.16.32c-1.25,2.39-2.42,4.57-3.54,6.58-1.36,2.55-2.93,5.23-4.66,8l-1.46,2.32-.82,1.27c-1.76,2.7-3.35,5-4.74,6.88a19.59,19.59,0,0,1,3.82,1.51,19.17,19.17,0,0,1,6.21,5,20.19,20.19,0,0,1,4.45,10q.06.41.09.81c0,.38.05.75.06,1.13.15.63.27,1.26.37,1.91l.09.79a14.19,14.19,0,0,1-12.83,15.36A20.72,20.72,0,0,1,144.15,352a26.73,26.73,0,0,1-13.37-3.16l-.17-.08c-.37-.19-.85-.43-1.31-.64l-.1.05a18.91,18.91,0,0,1-2.43,1.2,31,31,0,0,1-13.13,2.8h-.79l-23,0a17.21,17.21,0,0,1-3-.27l-.63.11A18.86,18.86,0,0,1,83.32,352.22Z"/>
    <path class="cls-2" d="M74.84,343.74a18.57,18.57,0,0,1-6-1,14.25,14.25,0,0,1-14.2-2.29,14.5,14.5,0,0,1-11.88-14.24,14.55,14.55,0,0,1-.22-6.73,24.81,24.81,0,0,1,24.32-19.86,25,25,0,0,1,11.66,2.9,57.54,57.54,0,0,0,9.35.84,34.7,34.7,0,0,0,6.31-.53,24.29,24.29,0,0,0,1.91-2.33c-5.68-8.08-14.1-21.35-15.76-31.13-.74-4.37-4.77-9.84-7.14-12.26a13.07,13.07,0,0,1-1-1.11q-.57-.72-1.08-1.41c-15.53-10.74-31.35-23-43.3-39.24-1.28-1.74-2.54-3.56-3.74-5.43a97.5,97.5,0,0,1-6.31-11.4c-.68-1.46-1.33-3-1.93-4.43a88.19,88.19,0,0,1-6.45-33.25c0-.66,0-1.32,0-2,0,0,0-.86,0-1a178.52,178.52,0,0,1,2-22.42l.08-.49c.71-4.69,1.61-9.56,2.66-14.48l.11-.52c.49-2.26,1-4.52,1.55-6.76l.2-.82c1-4.27,2.2-8.62,3.45-12.95,0,0,.29-1,.3-1,.29-1,1-3.44,1-3.44l.23-.77c.33-1.11.67-2.18,1-3.24l.27-.85c.4-1.28.81-2.55,1.22-3.8,0-.07,0-.09.06-.17.85-2.59,1.71-5.13,2.55-7.53l0-.06c.4-1.14.79-2.25,1.18-3.33l1.42-3.86.86-2.3,12.76,4.62L29.71,68.83l1-2.72c.2-.55.41-1.1.59-1.63l.07-.23c.12-.35.22-.69.31-1l.06-.19a3.82,3.82,0,0,0,.09-.44h0a2.21,2.21,0,0,0-2.19-2,2.19,2.19,0,0,0-.36,0l-.52.08a96.71,96.71,0,0,1-10.69.8l-1.52,0h-.78a15.66,15.66,0,0,1-14-8.31c-3.5-6.66-1.38-14,1.76-18.7a30.35,30.35,0,0,1,10.31-9.21,22.31,22.31,0,0,1,8.76-8A44.49,44.49,0,0,1,57.71,0C59,0,60.37.07,61.84.2l.64.06c1.2.13,2.45.32,3.77.58L67,1c1.22.26,2.45.58,3.63.94l.6.19c1.37.44,2.55.87,3.66,1.34l.4.18c1,.45,2,.94,3.11,1.5l.67.35c1,.53,2,1.13,3,1.83l.77.52c1,.65,1.88,1.35,2.75,2.05l.63.53c1,.88,1.87,1.64,2.63,2.39l.5.52c.7.71,1.42,1.5,2.12,2.33.14.15.43.49.45.52,5.65,6.47,9.77,14.8,12.88,26.15.59,2.12,1.08,4.07,1.5,6,.6,2.67,1.17,5.53,1.79,9q.59,3.28,1.12,6.67c.44,2.77.86,5.59,1.29,8.42l.23,1.5c.42,2.75.84,5.51,1.29,8.27l.28,1.62c.56,3.34,1.06,6.08,1.58,8.62l1.19,5.71c.19.93.7,3.26.7,3.26.21,1,.44,1.91.67,2.86,0,0,.12.52.13.52.21.89.43,1.72.65,2.56l.08.28c.24.91.5,1.78.76,2.66l.14.44c.29.92.55,1.75.84,2.57,0,0,0,.1,0,.15.29.83.61,1.65.94,2.48l.21.52c.31.79.64,1.57,1,2.36.2.4.43.86.69,1.36l1.07.49,1.33.66c.66.33,1.25.64,1.84,1,.44.24.9.49,1.34.75.64.36,1.28.75,1.91,1.14l.2.12.86.53c1,.61,1.84,1.23,2.72,1.86l1,.77.34.25c.31.24.63.47.93.72s.39.32.58.48a58.93,58.93,0,0,1,8.55,8.53c2,2.18,18,16.59,46.31,33.06l2,1.15c1.5.87,3,1.73,4.61,2.6l1.72,1,3.45,1.87,2,1a383.16,383.16,0,0,0,37.45,17.27c.48.2,2.46,1,2.46,1,1.42.55,2.82,1.1,4.25,1.63.7.27,3,1.11,3,1.11,1.3.47,2.61,1,3.93,1.41,1.05.38,2.1.74,3.15,1.1l3.27,1.11c1.86.62,3.73,1.23,5.63,1.83l3.1,1c1.89.58,3.82,1.15,5.75,1.72l3.14.91q3.09.85,6.24,1.68l2.84.75c3.26.83,6.27,1.55,9.21,2.22l.12,0a15.77,15.77,0,0,1,6.7,3.38,14.94,14.94,0,0,1,5.16,10.82,14.44,14.44,0,0,1-6.64,12.59l-.11.07a22.06,22.06,0,0,1-2.48,1.33c-.27.13-.6.27-.93.4s-.92.39-1.52.61l-.79.27-.2.07-1.42.47-1,.29-1.45.4-1.22.31-1.5.36-1.2.27-1.64.35-1.35.28-1.67.32-1.43.26-3.3.55-3.49.54-2.36.33c1.37.55,2.81,1.14,4.25,1.76l7.18,3,5.64,2.41,3.69,1.63,4.52,2.05,2.87,1.35,1.77.86,1.5.75,1.91,1,1.46.78,1,.54,1.67,1,.25.15-.23-.13,1.41.88.89.6.35.25c.51.36.94.69,1.32,1l.4.33c.34.29.67.58.95.85l.57.57c.23.24.46.48.67.72l.32.38c.15.17.29.35.42.53s.34.46.49.71a15.48,15.48,0,0,1,.86,1.41c.24.47.51,1.05.72,1.58h0a14,14,0,0,1,.67,2.23,13.84,13.84,0,0,1,.32,2.3s0,.28,0,.31a13.61,13.61,0,0,1-.16,2.47,14,14,0,0,1-.66,2.68,14.25,14.25,0,0,1-5.22,6.92,14.65,14.65,0,0,1-4.68,2.17l-.32.09c-.32.08-.63.14-.95.2l-.14,0a16.83,16.83,0,0,1-1.76.22l-.61,0-1.26,0h-.67l-1.86-.05-2-.12-2.43-.18-3.12-.3-2.19-.22,1.25-13.52L294,292.75l-1.4-.16,1.3-13.51-1.48,13.49-3.82-.44-5.65-.71-6-.8-6.31-.87-9.52-1.37-10-1.49-6.38-1c-14.09-2.16-25.75-4.05-28.37-4.47-1.68-.14-7.19-.57-14.35-1.07-7.44-.52-14.3-.94-20.4-1.26-4.26-.22-8.2-.39-11.7-.51-1.81-.06-3.55-.1-5.2-.13l-3.4,0h-1.58l-.16.32c-1.25,2.39-2.42,4.57-3.54,6.58-1.36,2.54-2.93,5.23-4.67,8-.45.74-1,1.55-1.45,2.32l-.82,1.27c-1.76,2.7-3.35,5-4.74,6.88a19.59,19.59,0,0,1,3.82,1.51,19.24,19.24,0,0,1,6.2,5,20.28,20.28,0,0,1,4.46,10q.06.4.09.81c0,.37,0,.75,0,1.13a17.7,17.7,0,0,1,.37,1.9c0,.27.07.54.1.8a14.19,14.19,0,0,1-12.83,15.36,20.71,20.71,0,0,1-10.92,3.23,26.75,26.75,0,0,1-13.37-3.15l-.17-.09-1.32-.64-.09.06a20.31,20.31,0,0,1-2.43,1.2,31,31,0,0,1-13.13,2.8h-.79l-23,0a17.21,17.21,0,0,1-3-.27l-.63.11A18.86,18.86,0,0,1,74.84,343.74Z"/>
    <g>
      <g>
        <path class="cls-3" d="M143.92,319a6.61,6.61,0,0,0-6.07-2.31,103,103,0,0,1-10.7-.08c-8-.41-8.77-5.77-8.77-5.77l-1.47,2.39a6.63,6.63,0,0,0-.31-.59c-2.31-4-7.4-3.46-11.29-.94-3.46,2.24-4.76,5.09-2.85,8.74,2.15,4.12,7,6.05,10.91,3.74.5-.3,1.95-1.41,2.53-1.69,4.11-2,9.06.5,11.77,1.85a13.58,13.58,0,0,0,7.49,1.81c2.3,0,5.87-1.95,5.87-4.37a4.14,4.14,0,0,0-.18-1.22,6.55,6.55,0,0,1,3.39,2.17h0a.63.63,0,0,0,1.13-.46A6.61,6.61,0,0,0,143.92,319Z"/>
        <path class="cls-4" d="M75,316.61a11.26,11.26,0,0,0-19.13,5.57.92.92,0,0,0,1.57.82c.13-.14.26-.28.4-.41,3.47-3.36,6.52-2.32,10.45-.22a.94.94,0,0,0,1.07-.12,50.76,50.76,0,0,1,6.32-4.87C75.43,317.12,75.2,316.86,75,316.61Z"/>
        <path class="cls-5" d="M116,299.48c-3.38-.56-4.76,2.57-6.6,5.56-5,8.18-9,10.3-9,10.3-8.45,2.34-17.72,1.91-27.44,0h0a7.64,7.64,0,0,0-1.91-.11c-2.71.2-5.8,2.75-5.8,5.42s2.75,2.69,5.52,2.69a9.53,9.53,0,0,0,4-.86c1.7,1.91,4.26,3.84,6.26,3.84h22.61s7.36.67,11.54-3.59c2.29-2.33,3.8-7.13,7.08-14.34C125.82,300.2,116,299.48,116,299.48Z"/>
        <path class="cls-6" d="M103.35,312.86a16.47,16.47,0,0,1-3,2.48c-8.45,2.34-17.72,1.91-27.44,0h0a7.64,7.64,0,0,0-1.91-.11c-2.66.2-5.68,2.66-5.79,5.27,1.66-.69,3.52-.48,5.17-.48,6.72-.27,13.42.71,20.14.41a29,29,0,0,0,11.15-2.22,11.88,11.88,0,0,0,4.63-3.34C107.37,313.18,107.31,309,103.35,312.86Z"/>
        <path class="cls-4" d="M76.2,321.06a8.14,8.14,0,0,0-13.69,4.47.67.67,0,0,0,1.16.55l.27-.3c2.43-2.51,4.66-1.83,7.55-.4a.67.67,0,0,0,.76-.12,37.27,37.27,0,0,1,4.45-3.66A6.39,6.39,0,0,0,76.2,321.06Z"/>
        <path class="cls-7" d="M79.36,320.42A5.11,5.11,0,1,1,69.26,322c-.44-2.78,1.6-5,4.39-5.42S78.92,317.64,79.36,320.42Z"/>
        <path class="cls-7" d="M104,317l.62,9.34-22.89,0c-2.82,0-5.4-1.46-5.85-4.25a3.5,3.5,0,0,1,1.55-3.8C87.47,319.65,96.89,319.8,104,317Z"/>
        <path class="cls-8" d="M140.8,320.51a6.67,6.67,0,0,1,3.43,2.19h0a.64.64,0,0,0,1.14-.47,6.62,6.62,0,0,0-1.48-3.31,5.9,5.9,0,0,0-5.74-2A5.07,5.07,0,0,1,140.8,320.51Z"/>
      </g>
      <path class="cls-9" d="M82.83,247.57s9.09,9.1,10.87,19.53S111,297.94,111,297.94s-.88,8.21,1.56,8.43,16.19.44,9.76-33.51S79.5,239.58,79.5,239.58,77.72,241.14,82.83,247.57Z"/>
      <g>
        <g>
          <circle class="cls-10" cx="57.33" cy="29.8" r="6.02"/>
          <path class="cls-11" d="M57.33,38.11a8.31,8.31,0,1,1,8.3-8.31A8.32,8.32,0,0,1,57.33,38.11Zm0-12a3.74,3.74,0,1,0,3.74,3.74A3.74,3.74,0,0,0,57.33,26.06Z"/>
        </g>
        <path class="cls-3" d="M144.44,322.81a6.63,6.63,0,0,0-6.07-2.31,103.15,103.15,0,0,1-10.71-.08c-8-.41-8.76-5.77-8.76-5.77L117.42,317a6.54,6.54,0,0,0-.3-.59c-2.31-4-7.4-3.46-11.3-.94-3.46,2.24-4.76,5.09-2.85,8.74,2.15,4.12,7,6.05,10.92,3.74.5-.3,1.94-1.41,2.53-1.69,4.11-2,9.06.5,11.77,1.85a13.53,13.53,0,0,0,7.48,1.81c2.3,0,5.88-1.95,5.88-4.37a4.5,4.5,0,0,0-.18-1.22,6.56,6.56,0,0,1,3.38,2.17h0a.63.63,0,0,0,1.12-.46A6.69,6.69,0,0,0,144.44,322.81Z"/>
        <path class="cls-12" d="M264.94,257.82a223.88,223.88,0,0,1-29.52-14.33s-36.89-31.34-81.63-68.22S106,121.48,100.59,95.1s-5.79-55-19-70.08S47.82,60.25,47.82,60.25,23,116,23,160.84,60.67,231.09,85,247.67s28.18,47.61,28.18,47.61l.94,3.15a23.16,23.16,0,0,0-.72,3.92,6.66,6.66,0,0,0,6.77,6.77c4.07-.21,4.65-.52,7.34-5,4.6-7.58,10.92-13,23.29-38.23,2.61-3.24,67.15,2,67.15,2s86.94,14.21,90.32,11.84C312.11,277.14,283.21,265.27,264.94,257.82Z"/>
        <path class="cls-13" d="M264.94,257.82c-5.74-2.34-10.79-4.62-15-6.65-12.73,5-25.45-.66-37.67-5.39l-6.61.45c4.7,10.27,12.79,17.82,22.44,23.36,23,3.65,77.56,12.08,80.22,10.21C312.11,277.14,283.21,265.27,264.94,257.82Z"/>
        <path class="cls-14" d="M205.64,246.23c-35.95,2.21-95.69,2.23-128.86-17.83-31.43-19-42.71-32.19-40.41-64.41-4.35.13-12.3-4.82-13.29-6-.08.93-.13,1.89-.13,2.89,0,44.88,37.72,70.25,62.08,86.83,10.39,7.07,12.84,19.24,17.18,29.07,5.83,13.22,11,18.86,11,18.86l.94,2.83a23.16,23.16,0,0,0-.72,3.92,6.66,6.66,0,0,0,6.77,6.77c4.07-.21,4.65-.52,7.34-5,4.6-7.58,10.92-13,23.29-38.23,2.61-3.24,67.15,2,67.15,2l10.1,1.63C218.43,264.05,210.34,256.5,205.64,246.23Z"/>
        <path class="cls-15" d="M249.92,251.17c-9.21-4.44-14.5-7.68-14.5-7.68s-9.07,1.24-23.17,2.29C224.47,250.51,237.19,256.13,249.92,251.17Z"/>
        <path class="cls-15" d="M273,261.1c4.65,2.8,18.29,11.65-8.12,9.93-8.79-1-2.91,3.78,7.32,5.22,18.39,2.6,34.72,4.55,36.15,3.55C311.58,277.51,290.52,268.35,273,261.1Z"/>
        <path class="cls-15" d="M265.89,258.23c14.83,7.69,6.55,8.63-5.66,7.77-11.6-.82-2.58,3.53,10,6.25,19,4.12,34.68,6.92,36.42,6.55,3.77-.78-14.83-9.51-33.33-17.55C270.81,260.17,268.28,259.18,265.89,258.23Z"/>
        <path class="cls-16" d="M57.71,13.57A30.7,30.7,0,0,0,27,44.27a28.46,28.46,0,0,0,.15,2.93A16.07,16.07,0,0,1,29.68,47,15.77,15.77,0,0,1,45.45,62.76c0,3.11-1.38,6.54-3,10.83-.31.82,8.44,1.49,9.19,1.54,14,1,28.78-5.71,34.46-19.13a30.11,30.11,0,0,0,2.35-11.73A30.69,30.69,0,0,0,57.71,13.57Zm-.52,21.27a5,5,0,1,1,5-5A5,5,0,0,1,57.19,34.84Z"/>
        <path class="cls-17" d="M109,124.53c-4.12-9-6-17.67-8-27.62-.12-.6-.24-1.2-.37-1.81-5.41-26.39-5.79-55-19-70.08l0,0A30.69,30.69,0,0,0,27,44.27a28.46,28.46,0,0,0,.15,2.93A16.07,16.07,0,0,1,29.68,47,15.77,15.77,0,0,1,45.45,62.76c0,2.46-.86,5.12-2,8.23-.31.79-.63,1.62-.95,2.49l-.05.11h0c-2.85,7.49-6.43,17.63-9.74,29.07-5,17.19-9.34,37.32-9.68,55.83,29.26,25.51,90.07-26.18,90.07-26.18S110.53,127.73,109,124.53ZM57.19,24.88a5,5,0,1,1-5,5A5,5,0,0,1,57.19,24.88Z"/>
        <path class="cls-8" d="M16,47.92c-3.57,0-2.47-3.91-1.15-5.87,2.36-3.51,6.56-5.49,10.21-7.35,1.93-1,3.9-1.92,5.89-2.8.34-.15,1.44-4.21,2.55-1.09,2.2,6.19,9.37,8.55,9.37,8.55-6.7,1.72-14.07,3.91-15.7,7.84a83.79,83.79,0,0,1-9.31.71Z"/>
        <path class="cls-4" d="M75.48,320.44A11.27,11.27,0,0,0,56.34,326a.93.93,0,0,0,1.58.82l.39-.41c3.47-3.35,6.53-2.32,10.46-.21a.94.94,0,0,0,1.06-.13,50.09,50.09,0,0,1,6.33-4.87C75.94,321,75.72,320.69,75.48,320.44Z"/>
        <path class="cls-5" d="M116.48,303.32c-3.38-.57-4.76,2.57-6.6,5.55-5.06,8.18-9,10.3-9,10.3-8.46,2.34-17.73,1.92-27.44,0h0a8.12,8.12,0,0,0-1.91-.11c-2.7.21-5.8,2.76-5.8,5.42s2.75,2.69,5.53,2.69a9.45,9.45,0,0,0,4-.86c1.7,1.91,4.26,3.84,6.26,3.84H104s7.35.67,11.54-3.59c2.29-2.33,3.8-7.13,7.07-14.34C126.33,304,116.48,303.32,116.48,303.32Z"/>
        <path class="cls-6" d="M103.86,316.7a16.25,16.25,0,0,1-3,2.47c-8.46,2.34-17.73,1.92-27.44,0h0a8.12,8.12,0,0,0-1.91-.11c-2.65.2-5.67,2.66-5.79,5.27,1.66-.69,3.53-.48,5.18-.48,6.71-.27,13.42.71,20.13.41,3.79-.16,7.69-.59,11.15-2.22a11.81,11.81,0,0,0,4.63-3.34C107.88,317,107.82,312.81,103.86,316.7Z"/>
        <path class="cls-4" d="M76.71,324.89A8.13,8.13,0,0,0,63,329.36a.66.66,0,0,0,1.15.55,2.68,2.68,0,0,1,.28-.3c2.42-2.51,4.65-1.83,7.54-.4a.69.69,0,0,0,.77-.12,35.75,35.75,0,0,1,4.45-3.66A6.51,6.51,0,0,0,76.71,324.89Z"/>
        <path class="cls-7" d="M79.88,324.26a5.11,5.11,0,1,1-10.1,1.6c-.44-2.78,1.6-5,4.39-5.42S79.43,321.47,79.88,324.26Z"/>
        <path class="cls-7" d="M104.48,320.79l.61,9.34-22.88,0c-2.82,0-5.41-1.46-5.85-4.25a3.48,3.48,0,0,1,1.55-3.8C88,323.48,97.4,323.63,104.48,320.79Z"/>
        <path class="cls-18" d="M134.14,146c-9.81-12.23-27-19.52-44.16-18.33A50.21,50.21,0,0,0,53.51,147.1c-7-.43-12.76,2.34-16.2,10.71-8.1,19.7,6.74,43.51,24.83,55.86h0c24.57,16.67,51,22.93,59.66,24,21.71,2.63,42.59,1.65,56.6-3.64,35.37,7.32,107.88.33,117.78-5.95.56-.36.51-1.75-1-2.1C199.23,204.19,138.79,151.78,134.14,146Z"/>
        <path class="cls-15" d="M295.14,226a389.26,389.26,0,0,1-39-11c-20.78,9.51-45.39,16.06-69,20.51,37.39,4.81,99.87-1.59,109-7.39C296.74,227.7,296.69,226.31,295.14,226Z"/>
        <path class="cls-16" d="M256.17,214.94c-20.78,9.51-45.39,16.06-69,20.51,33.73,1.68,73.84-4.31,83-10.11C270.71,225,268.39,219.09,256.17,214.94Z"/>
        <path class="cls-19" d="M231,205.42c-40.65,18.17-95.28,25.3-128.61,27.65,28.31,9.23,56,7.81,84.82,2.38,23.61-4.45,48.22-11,69-20.51C247.35,212,238.94,208.74,231,205.42Z"/>
        <path class="cls-20" d="M141,226.81a.21.21,0,0,0-.14.07Z"/>
        <path class="cls-21" d="M36.15,33.48c.46,1.92,2.17,2.72,2.17,3.25,0,1.47-4.57,2.34-6.94,2.57-2.93.29-6.76-.35-7-3.28s3.23-7.32,7.19-7.3C34.46,28.74,35.46,30.62,36.15,33.48Z"/>
        <path class="cls-22" d="M57.21,37a7.09,7.09,0,1,1,7.09-7.09A7.1,7.1,0,0,1,57.21,37Zm0-12a5,5,0,1,0,5,5A5,5,0,0,0,57.21,25Z"/>
        <circle cx="57.21" cy="29.74" r="2.49"/>
        <circle class="cls-22" cx="57.67" cy="28.78" r="1.13"/>
        <path class="cls-23" d="M26.16,39.33a5.11,5.11,0,0,1-2.42.15c-1-.28-1.39-.74-1.26-1.19s.72-.75,1.73-.46A4.77,4.77,0,0,1,26.16,39.33Z"/>
        <circle class="cls-22" cx="50.12" cy="31.76" r="2.13"/>
        <path class="cls-24" d="M123.3,231.18a38.2,38.2,0,0,1-14.5-7.65c9.12,3.54,17,5.77,23.69,6.57Z"/>
        <path class="cls-24" d="M144.14,228.4c-5.47-1.49-11.65-6.27-13.81-9.25,11.61,5.67,16.39,6.74,24.51,7.66Z"/>
        <path class="cls-24" d="M165.8,224.82c-4.48-1.52-12.42-5.67-16-11.34a70.83,70.83,0,0,0,26.48,9.17Z"/>
        <path class="cls-24" d="M188.38,219.78c-6.5-1.6-14.92-7.08-20.5-13C177,212,187.72,216,197.75,217.26Z"/>
        <path class="cls-24" d="M211.23,213.08c-6.5-1.6-18.46-8-23.22-15.64,10.5,7.24,23.24,11.48,31.9,12.53C217.4,210.93,213.83,212.22,211.23,213.08Z"/>
        <path class="cls-15" d="M256.33,274c-13.65-2.66-31.55-9.71-38.46-20.65,26.5,10.29,43.28,13.16,54.56,12.37,3.38.8,2.41,11,2.41,11S262,274.8,256.33,274Z"/>
        <path class="cls-24" d="M86.54,217c-4.37-.74-10.24-3.95-14.17-7.35,10.84,3.44,17.21,5.21,23.4,5.24Z"/>
        <path class="cls-24" d="M106.63,212.23c-5-.84-12.73-6.56-14.27-9.26,10.08,4.25,16.7,6.56,24.29,6.53Z"/>
        <path class="cls-24" d="M127.56,206.21c-4-1-12.58-5.4-15-10.58,8.51,4.44,18.39,7.05,25.43,7.08Z"/>
        <path class="cls-25" d="M148.92,263.67a76.56,76.56,0,0,1-9.49,14.59c1.4-4.17,2.69-9.59,2-13.67A110.14,110.14,0,0,1,134,277.22a41.93,41.93,0,0,0-.28-12.39c-2.31,4.53-4.55,9.17-6.67,13a109.16,109.16,0,0,0-2.16-14,113.55,113.55,0,0,0-5.2,13.11c-1.39-4.37-2.69-9.84-4.16-15.11-1.84,3.83-2.63,8.61-3.09,12.5a116.33,116.33,0,0,1-5.59-15.4c-1.49,3.42-1.46,8.34-1,12.42a82.69,82.69,0,0,1-6.7-16c-1,2.72-.5,7.08.54,11.09.68,1.77.46,4.12,1,5.87C104,283,113.21,295.6,113.21,295.6l.94,2.83a23.16,23.16,0,0,0-.72,3.92,6.66,6.66,0,0,0,6.77,6.77c4.07-.21,4.65-.52,7.34-5,3.27-5.38,14-18.41,19.42-31.2C148.3,269.65,149.2,266.22,148.92,263.67Z"/>
        <path class="cls-24" d="M149.8,198.19c-5.92-.82-14.52-6.08-18.8-11.31,7.77,4.13,18.51,7.32,27.88,7.35Z"/>
        <path class="cls-24" d="M170.77,188.09c-5.92-.83-16.21-5.76-19.41-12.75A54.18,54.18,0,0,0,179.6,184C177,185.25,173.4,187,170.77,188.09Z"/>
        <path class="cls-19" d="M182,180.94c-27.1,19.69-72.47,31.72-109.67,39.05,4.23,2.37,8.43,4.47,12.51,6.31A267,267,0,0,0,200,190.91C193.56,187.57,187.58,184.22,182,180.94Z"/>
        <path class="cls-26" d="M90,127.65A50.21,50.21,0,0,0,53.51,147.1c-7-.44-12.76,2.34-16.2,10.71a30,30,0,0,0-2.07,8.1,23.13,23.13,0,0,1,20.42-12.5,22.66,22.66,0,0,1,7,1.11A59.2,59.2,0,0,1,127,139,54.43,54.43,0,0,0,90,127.65Z"/>
        <path class="cls-8" d="M141.32,324.34a6.64,6.64,0,0,1,3.42,2.19v0a.64.64,0,0,0,1.14-.47,6.59,6.59,0,0,0-1.47-3.32,5.92,5.92,0,0,0-5.75-2A5.11,5.11,0,0,1,141.32,324.34Z"/>
      </g>
    </g>
    <g>
      <g>
        <path class="cls-3" d="M143.92,319a6.61,6.61,0,0,0-6.07-2.31,103,103,0,0,1-10.7-.08c-8-.41-8.77-5.77-8.77-5.77l-1.47,2.39a6.63,6.63,0,0,0-.31-.59c-2.31-4-7.4-3.46-11.29-.94-3.46,2.24-4.76,5.09-2.85,8.74,2.15,4.12,7,6.05,10.91,3.74.5-.3,1.95-1.41,2.53-1.69,4.11-2,9.06.5,11.77,1.85a13.58,13.58,0,0,0,7.49,1.81c2.3,0,5.87-1.95,5.87-4.37a4.14,4.14,0,0,0-.18-1.22,6.55,6.55,0,0,1,3.39,2.17h0a.63.63,0,0,0,1.13-.46A6.61,6.61,0,0,0,143.92,319Z"/>
        <path class="cls-4" d="M75,316.61a11.26,11.26,0,0,0-19.13,5.57.92.92,0,0,0,1.57.82c.13-.14.26-.28.4-.41,3.47-3.36,6.52-2.32,10.45-.22a.94.94,0,0,0,1.07-.12,50.76,50.76,0,0,1,6.32-4.87C75.43,317.12,75.2,316.86,75,316.61Z"/>
        <path class="cls-5" d="M116,299.48c-3.38-.56-4.76,2.57-6.6,5.56-5,8.18-9,10.3-9,10.3-8.45,2.34-17.72,1.91-27.44,0h0a7.64,7.64,0,0,0-1.91-.11c-2.71.2-5.8,2.75-5.8,5.42s2.75,2.69,5.52,2.69a9.53,9.53,0,0,0,4-.86c1.7,1.91,4.26,3.84,6.26,3.84h22.61s7.36.67,11.54-3.59c2.29-2.33,3.8-7.13,7.08-14.34C125.82,300.2,116,299.48,116,299.48Z"/>
        <path class="cls-6" d="M103.35,312.86a16.47,16.47,0,0,1-3,2.48c-8.45,2.34-17.72,1.91-27.44,0h0a7.64,7.64,0,0,0-1.91-.11c-2.66.2-5.68,2.66-5.79,5.27,1.66-.69,3.52-.48,5.17-.48,6.72-.27,13.42.71,20.14.41a29,29,0,0,0,11.15-2.22,11.88,11.88,0,0,0,4.63-3.34C107.37,313.18,107.31,309,103.35,312.86Z"/>
        <path class="cls-4" d="M76.2,321.06a8.14,8.14,0,0,0-13.69,4.47.67.67,0,0,0,1.16.55l.27-.3c2.43-2.51,4.66-1.83,7.55-.4a.67.67,0,0,0,.76-.12,37.27,37.27,0,0,1,4.45-3.66A6.39,6.39,0,0,0,76.2,321.06Z"/>
        <path class="cls-7" d="M79.36,320.42A5.11,5.11,0,1,1,69.26,322c-.44-2.78,1.6-5,4.39-5.42S78.92,317.64,79.36,320.42Z"/>
        <path class="cls-7" d="M104,317l.62,9.34-22.89,0c-2.82,0-5.4-1.46-5.85-4.25a3.5,3.5,0,0,1,1.55-3.8C87.47,319.65,96.89,319.8,104,317Z"/>
        <path class="cls-8" d="M140.8,320.51a6.67,6.67,0,0,1,3.43,2.19h0a.64.64,0,0,0,1.14-.47,6.62,6.62,0,0,0-1.48-3.31,5.9,5.9,0,0,0-5.74-2A5.07,5.07,0,0,1,140.8,320.51Z"/>
      </g>
      <path class="cls-9" d="M82.83,247.57s9.09,9.1,10.87,19.53S111,297.94,111,297.94s-.88,8.21,1.56,8.43,16.19.44,9.76-33.51S79.5,239.58,79.5,239.58,77.72,241.14,82.83,247.57Z"/>
      <g>
        <g>
          <circle class="cls-10" cx="57.33" cy="29.8" r="6.02"/>
          <path class="cls-11" d="M57.33,38.11a8.31,8.31,0,1,1,8.3-8.31A8.32,8.32,0,0,1,57.33,38.11Zm0-12a3.74,3.74,0,1,0,3.74,3.74A3.74,3.74,0,0,0,57.33,26.06Z"/>
        </g>
        <path class="cls-3" d="M144.44,322.81a6.63,6.63,0,0,0-6.07-2.31,103.15,103.15,0,0,1-10.71-.08c-8-.41-8.76-5.77-8.76-5.77L117.42,317a6.54,6.54,0,0,0-.3-.59c-2.31-4-7.4-3.46-11.3-.94-3.46,2.24-4.76,5.09-2.85,8.74,2.15,4.12,7,6.05,10.92,3.74.5-.3,1.94-1.41,2.53-1.69,4.11-2,9.06.5,11.77,1.85a13.53,13.53,0,0,0,7.48,1.81c2.3,0,5.88-1.95,5.88-4.37a4.5,4.5,0,0,0-.18-1.22,6.56,6.56,0,0,1,3.38,2.17h0a.63.63,0,0,0,1.12-.46A6.69,6.69,0,0,0,144.44,322.81Z"/>
        <path class="cls-12" d="M264.94,257.82a223.88,223.88,0,0,1-29.52-14.33s-36.89-31.34-81.63-68.22S106,121.48,100.59,95.1s-5.79-55-19-70.08S47.82,60.25,47.82,60.25,23,116,23,160.84,60.67,231.09,85,247.67s28.18,47.61,28.18,47.61l.94,3.15a23.16,23.16,0,0,0-.72,3.92,6.66,6.66,0,0,0,6.77,6.77c4.07-.21,4.65-.52,7.34-5,4.6-7.58,10.92-13,23.29-38.23,2.61-3.24,67.15,2,67.15,2s86.94,14.21,90.32,11.84C312.11,277.14,283.21,265.27,264.94,257.82Z"/>
        <path class="cls-13" d="M264.94,257.82c-5.74-2.34-10.79-4.62-15-6.65-12.73,5-25.45-.66-37.67-5.39l-6.61.45c4.7,10.27,12.79,17.82,22.44,23.36,23,3.65,77.56,12.08,80.22,10.21C312.11,277.14,283.21,265.27,264.94,257.82Z"/>
        <path class="cls-14" d="M205.64,246.23c-35.95,2.21-95.69,2.23-128.86-17.83-31.43-19-42.71-32.19-40.41-64.41-4.35.13-12.3-4.82-13.29-6-.08.93-.13,1.89-.13,2.89,0,44.88,37.72,70.25,62.08,86.83,10.39,7.07,12.84,19.24,17.18,29.07,5.83,13.22,11,18.86,11,18.86l.94,2.83a23.16,23.16,0,0,0-.72,3.92,6.66,6.66,0,0,0,6.77,6.77c4.07-.21,4.65-.52,7.34-5,4.6-7.58,10.92-13,23.29-38.23,2.61-3.24,67.15,2,67.15,2l10.1,1.63C218.43,264.05,210.34,256.5,205.64,246.23Z"/>
        <path class="cls-15" d="M249.92,251.17c-9.21-4.44-14.5-7.68-14.5-7.68s-9.07,1.24-23.17,2.29C224.47,250.51,237.19,256.13,249.92,251.17Z"/>
        <path class="cls-15" d="M273,261.1c4.65,2.8,18.29,11.65-8.12,9.93-8.79-1-2.91,3.78,7.32,5.22,18.39,2.6,34.72,4.55,36.15,3.55C311.58,277.51,290.52,268.35,273,261.1Z"/>
        <path class="cls-15" d="M265.89,258.23c14.83,7.69,6.55,8.63-5.66,7.77-11.6-.82-2.58,3.53,10,6.25,19,4.12,34.68,6.92,36.42,6.55,3.77-.78-14.83-9.51-33.33-17.55C270.81,260.17,268.28,259.18,265.89,258.23Z"/>
        <path class="cls-16" d="M57.71,13.57A30.7,30.7,0,0,0,27,44.27a28.46,28.46,0,0,0,.15,2.93A16.07,16.07,0,0,1,29.68,47,15.77,15.77,0,0,1,45.45,62.76c0,3.11-1.38,6.54-3,10.83-.31.82,8.44,1.49,9.19,1.54,14,1,28.78-5.71,34.46-19.13a30.11,30.11,0,0,0,2.35-11.73A30.69,30.69,0,0,0,57.71,13.57Zm-.52,21.27a5,5,0,1,1,5-5A5,5,0,0,1,57.19,34.84Z"/>
        <path class="cls-17" d="M109,124.53c-4.12-9-6-17.67-8-27.62-.12-.6-.24-1.2-.37-1.81-5.41-26.39-5.79-55-19-70.08l0,0A30.69,30.69,0,0,0,27,44.27a28.46,28.46,0,0,0,.15,2.93A16.07,16.07,0,0,1,29.68,47,15.77,15.77,0,0,1,45.45,62.76c0,2.46-.86,5.12-2,8.23-.31.79-.63,1.62-.95,2.49l-.05.11h0c-2.85,7.49-6.43,17.63-9.74,29.07-5,17.19-9.34,37.32-9.68,55.83,29.26,25.51,90.07-26.18,90.07-26.18S110.53,127.73,109,124.53ZM57.19,24.88a5,5,0,1,1-5,5A5,5,0,0,1,57.19,24.88Z"/>
        <path class="cls-8" d="M16,47.92c-3.57,0-2.47-3.91-1.15-5.87,2.36-3.51,6.56-5.49,10.21-7.35,1.93-1,3.9-1.92,5.89-2.8.34-.15,1.44-4.21,2.55-1.09,2.2,6.19,9.37,8.55,9.37,8.55-6.7,1.72-14.07,3.91-15.7,7.84a83.79,83.79,0,0,1-9.31.71Z"/>
        <path class="cls-4" d="M75.48,320.44A11.27,11.27,0,0,0,56.34,326a.93.93,0,0,0,1.58.82l.39-.41c3.47-3.35,6.53-2.32,10.46-.21a.94.94,0,0,0,1.06-.13,50.09,50.09,0,0,1,6.33-4.87C75.94,321,75.72,320.69,75.48,320.44Z"/>
        <path class="cls-5" d="M116.48,303.32c-3.38-.57-4.76,2.57-6.6,5.55-5.06,8.18-9,10.3-9,10.3-8.46,2.34-17.73,1.92-27.44,0h0a8.12,8.12,0,0,0-1.91-.11c-2.7.21-5.8,2.76-5.8,5.42s2.75,2.69,5.53,2.69a9.45,9.45,0,0,0,4-.86c1.7,1.91,4.26,3.84,6.26,3.84H104s7.35.67,11.54-3.59c2.29-2.33,3.8-7.13,7.07-14.34C126.33,304,116.48,303.32,116.48,303.32Z"/>
        <path class="cls-6" d="M103.86,316.7a16.25,16.25,0,0,1-3,2.47c-8.46,2.34-17.73,1.92-27.44,0h0a8.12,8.12,0,0,0-1.91-.11c-2.65.2-5.67,2.66-5.79,5.27,1.66-.69,3.53-.48,5.18-.48,6.71-.27,13.42.71,20.13.41,3.79-.16,7.69-.59,11.15-2.22a11.81,11.81,0,0,0,4.63-3.34C107.88,317,107.82,312.81,103.86,316.7Z"/>
        <path class="cls-4" d="M76.71,324.89A8.13,8.13,0,0,0,63,329.36a.66.66,0,0,0,1.15.55,2.68,2.68,0,0,1,.28-.3c2.42-2.51,4.65-1.83,7.54-.4a.69.69,0,0,0,.77-.12,35.75,35.75,0,0,1,4.45-3.66A6.51,6.51,0,0,0,76.71,324.89Z"/>
        <path class="cls-7" d="M79.88,324.26a5.11,5.11,0,1,1-10.1,1.6c-.44-2.78,1.6-5,4.39-5.42S79.43,321.47,79.88,324.26Z"/>
        <path class="cls-7" d="M104.48,320.79l.61,9.34-22.88,0c-2.82,0-5.41-1.46-5.85-4.25a3.48,3.48,0,0,1,1.55-3.8C88,323.48,97.4,323.63,104.48,320.79Z"/>
        <path class="cls-18" d="M134.14,146c-9.81-12.23-27-19.52-44.16-18.33A50.21,50.21,0,0,0,53.51,147.1c-7-.43-12.76,2.34-16.2,10.71-8.1,19.7,6.74,43.51,24.83,55.86h0c24.57,16.67,51,22.93,59.66,24,21.71,2.63,42.59,1.65,56.6-3.64,35.37,7.32,107.88.33,117.78-5.95.56-.36.51-1.75-1-2.1C199.23,204.19,138.79,151.78,134.14,146Z"/>
        <path class="cls-15" d="M295.14,226a389.26,389.26,0,0,1-39-11c-20.78,9.51-45.39,16.06-69,20.51,37.39,4.81,99.87-1.59,109-7.39C296.74,227.7,296.69,226.31,295.14,226Z"/>
        <path class="cls-16" d="M256.17,214.94c-20.78,9.51-45.39,16.06-69,20.51,33.73,1.68,73.84-4.31,83-10.11C270.71,225,268.39,219.09,256.17,214.94Z"/>
        <path class="cls-19" d="M231,205.42c-40.65,18.17-95.28,25.3-128.61,27.65,28.31,9.23,56,7.81,84.82,2.38,23.61-4.45,48.22-11,69-20.51C247.35,212,238.94,208.74,231,205.42Z"/>
        <path class="cls-20" d="M141,226.81a.21.21,0,0,0-.14.07Z"/>
        <path class="cls-21" d="M36.15,33.48c.46,1.92,2.17,2.72,2.17,3.25,0,1.47-4.57,2.34-6.94,2.57-2.93.29-6.76-.35-7-3.28s3.23-7.32,7.19-7.3C34.46,28.74,35.46,30.62,36.15,33.48Z"/>
        <path class="cls-22" d="M57.21,37a7.09,7.09,0,1,1,7.09-7.09A7.1,7.1,0,0,1,57.21,37Zm0-12a5,5,0,1,0,5,5A5,5,0,0,0,57.21,25Z"/>
        <circle cx="57.21" cy="29.74" r="2.49"/>
        <circle class="cls-22" cx="57.67" cy="28.78" r="1.13"/>
        <path class="cls-23" d="M26.16,39.33a5.11,5.11,0,0,1-2.42.15c-1-.28-1.39-.74-1.26-1.19s.72-.75,1.73-.46A4.77,4.77,0,0,1,26.16,39.33Z"/>
        <circle class="cls-22" cx="50.12" cy="31.76" r="2.13"/>
        <path class="cls-24" d="M123.3,231.18a38.2,38.2,0,0,1-14.5-7.65c9.12,3.54,17,5.77,23.69,6.57Z"/>
        <path class="cls-24" d="M144.14,228.4c-5.47-1.49-11.65-6.27-13.81-9.25,11.61,5.67,16.39,6.74,24.51,7.66Z"/>
        <path class="cls-24" d="M165.8,224.82c-4.48-1.52-12.42-5.67-16-11.34a70.83,70.83,0,0,0,26.48,9.17Z"/>
        <path class="cls-24" d="M188.38,219.78c-6.5-1.6-14.92-7.08-20.5-13C177,212,187.72,216,197.75,217.26Z"/>
        <path class="cls-24" d="M211.23,213.08c-6.5-1.6-18.46-8-23.22-15.64,10.5,7.24,23.24,11.48,31.9,12.53C217.4,210.93,213.83,212.22,211.23,213.08Z"/>
        <path class="cls-15" d="M256.33,274c-13.65-2.66-31.55-9.71-38.46-20.65,26.5,10.29,43.28,13.16,54.56,12.37,3.38.8,2.41,11,2.41,11S262,274.8,256.33,274Z"/>
        <path class="cls-24" d="M86.54,217c-4.37-.74-10.24-3.95-14.17-7.35,10.84,3.44,17.21,5.21,23.4,5.24Z"/>
        <path class="cls-24" d="M106.63,212.23c-5-.84-12.73-6.56-14.27-9.26,10.08,4.25,16.7,6.56,24.29,6.53Z"/>
        <path class="cls-24" d="M127.56,206.21c-4-1-12.58-5.4-15-10.58,8.51,4.44,18.39,7.05,25.43,7.08Z"/>
        <path class="cls-25" d="M148.92,263.67a76.56,76.56,0,0,1-9.49,14.59c1.4-4.17,2.69-9.59,2-13.67A110.14,110.14,0,0,1,134,277.22a41.93,41.93,0,0,0-.28-12.39c-2.31,4.53-4.55,9.17-6.67,13a109.16,109.16,0,0,0-2.16-14,113.55,113.55,0,0,0-5.2,13.11c-1.39-4.37-2.69-9.84-4.16-15.11-1.84,3.83-2.63,8.61-3.09,12.5a116.33,116.33,0,0,1-5.59-15.4c-1.49,3.42-1.46,8.34-1,12.42a82.69,82.69,0,0,1-6.7-16c-1,2.72-.5,7.08.54,11.09.68,1.77.46,4.12,1,5.87C104,283,113.21,295.6,113.21,295.6l.94,2.83a23.16,23.16,0,0,0-.72,3.92,6.66,6.66,0,0,0,6.77,6.77c4.07-.21,4.65-.52,7.34-5,3.27-5.38,14-18.41,19.42-31.2C148.3,269.65,149.2,266.22,148.92,263.67Z"/>
        <path class="cls-24" d="M149.8,198.19c-5.92-.82-14.52-6.08-18.8-11.31,7.77,4.13,18.51,7.32,27.88,7.35Z"/>
        <path class="cls-24" d="M170.77,188.09c-5.92-.83-16.21-5.76-19.41-12.75A54.18,54.18,0,0,0,179.6,184C177,185.25,173.4,187,170.77,188.09Z"/>
        <path class="cls-19" d="M182,180.94c-27.1,19.69-72.47,31.72-109.67,39.05,4.23,2.37,8.43,4.47,12.51,6.31A267,267,0,0,0,200,190.91C193.56,187.57,187.58,184.22,182,180.94Z"/>
        <path class="cls-26" d="M90,127.65A50.21,50.21,0,0,0,53.51,147.1c-7-.44-12.76,2.34-16.2,10.71a30,30,0,0,0-2.07,8.1,23.13,23.13,0,0,1,20.42-12.5,22.66,22.66,0,0,1,7,1.11A59.2,59.2,0,0,1,127,139,54.43,54.43,0,0,0,90,127.65Z"/>
        <path class="cls-8" d="M141.32,324.34a6.64,6.64,0,0,1,3.42,2.19v0a.64.64,0,0,0,1.14-.47,6.59,6.59,0,0,0-1.47-3.32,5.92,5.92,0,0,0-5.75-2A5.11,5.11,0,0,1,141.32,324.34Z"/>
      </g>
    </g>
  </g>
</svg>
