<svg id="Layer_1" data-name="Layer 1" xmlns="http://www.w3.org/2000/svg" width="294.77" height="467.68" viewBox="0 0 294.77 467.68">
  <defs>
    <style>
      .cls-1 {
        opacity: 0.5;
      }

      .cls-2 {
        fill: #ff0;
      }

      .cls-10, .cls-3 {
        fill: #f9dad2;
      }

      .cls-16, .cls-3 {
        stroke: #755339;
      }

      .cls-14, .cls-16, .cls-3, .cls-4, .cls-5, .cls-7 {
        stroke-miterlimit: 10;
      }

      .cls-4 {
        fill: #fad2c7;
        stroke: #443222;
        stroke-width: 0.5px;
      }

      .cls-5 {
        fill: #e6ddc0;
        stroke: #9b8b5c;
      }

      .cls-6 {
        fill: #efbdb4;
      }

      .cls-11, .cls-7 {
        fill: #b8a0ca;
      }

      .cls-7 {
        stroke: #73459b;
      }

      .cls-8 {
        fill: #d67233;
      }

      .cls-9 {
        fill: #755339;
      }

      .cls-12 {
        fill: #73459b;
      }

      .cls-13 {
        fill: #fa9a3a;
      }

      .cls-14 {
        fill: none;
        stroke: #d67233;
      }

      .cls-15 {
        fill: #342517;
      }

      .cls-16, .cls-17 {
        fill: #a1c5ce;
      }

      .cls-18 {
        fill: #bc7e97;
      }

      .cls-19 {
        fill: #fff;
      }

      .cls-20 {
        fill: #381515;
      }

      .cls-21 {
        fill: #2b1c1c;
      }

      .cls-22 {
        fill: #b26b51;
      }
    </style>
  </defs>
  <g>
    <path class="cls-1" d="M194.48,467.68c-15.08,0-20.83-8.71-21.19-16.17-.4-8.41,5.06-15.27,9-19.05l7.49-20.86c-2.39-5.48-5.51-12.88-8.77-20.62l-1.08-2.56c-14.26-2.14-25.61-9.32-33.36-15.93l-8.07,6.28a12.3,12.3,0,0,1-7.57,2.59h-.46q-.3,10.61-1.27,23.72c7.6,15.29,10.07,22.95,6.1,29.82-1.86,3.22-4.65,8.06-28,11.61a110.46,110.46,0,0,1-24.42,4.71c-2,.2-3.78.37-4.92.59a41.63,41.63,0,0,1-8.17.92c-9,0-13.23-4.5-15-7.18a15,15,0,0,1-1-14.09,12.31,12.31,0,0,1,6.68-6.4,118.64,118.64,0,0,0,26.25-14.69c-3.52-8.76-8.47-21.86-11.08-32.27-7.62-6.83-12.15-17.93-13.54-21.74-.09-.26-.18-.51-.25-.77-6.2-21.21,9.39-60.82,23.8-90.73,1.48-5.33,4.14-13.4,6.17-19.41C88.42,239.22,91,232.87,93,228.2l.5-1.24c-3.34-8.64-9.11-23.65-13.55-38.8l-16.74,6.17a12.27,12.27,0,0,1-4.23.76h-.56c-12.22,5.82-25.9,9.34-29.8,9.77a19.45,19.45,0,0,1-2,.11c-4.43,0-10.54-1.62-14.49-9.32v0a18.25,18.25,0,0,1-1.72-3.36,11.55,11.55,0,0,1-.7-1.46C3.72,176,11.29,156.45,32.16,132.7c0-7.53,2.35-13.61,6.9-17.8a44,44,0,0,0,3.45-4,51.44,51.44,0,0,1,6.89-7.52,24.62,24.62,0,0,1-4.49-9.17,18,18,0,0,1-.2-9.86,18,18,0,0,1-3.27-9.54c-.19-4.29,1.11-10.09,7.38-15.61,0-1.48-.06-3.21-.24-4.92a20.62,20.62,0,0,0-.66-2,11.57,11.57,0,0,1-1-3.89,40,40,0,0,1,1.47-14.63,12.47,12.47,0,0,1,2-5.09A35.75,35.75,0,0,1,69.72,11a21.14,21.14,0,0,1,2.39-.85c.42-.14.86-.27,1.29-.37A103.7,103.7,0,0,1,94,7.7c12.46,0,22.77,2.46,30.74,7.34.53,0,.93,0,1.16,0A12.43,12.43,0,0,1,131,16.14c7.87,3.62,10.88,8.86,12,12.62a16.9,16.9,0,0,1-.13,10.29,19.59,19.59,0,0,1,2.72,6.68c6.67,3.43,12.4,5.45,14.61,5.45h.27A12.32,12.32,0,0,1,170.26,71l-.09.12c62.37,18.53,98.47,71.67,109.88,91.09,9.59.75,12.88,6.33,14,9.75,2.18,6.65-.6,12.86-8.24,18.47-1.86,1.37-4.56,3.69-7.68,6.38-13.41,11.55-33.44,28.81-54.89,29.94a531.19,531.19,0,0,1,7.81,53.55,12.31,12.31,0,0,1-2.71,8.83l.6,29.64,1.95,3.42a12.24,12.24,0,0,1,1.6,6.74,132.61,132.61,0,0,1-3.9,24.36c2.07,13.28,1.37,25,.81,34.58-.18,3-.35,6-.39,8.44,3.54,3.14,7.54,8.61,6.69,17.61-2.38,25.09-4.21,33-5.54,37C225.64,464.85,200.86,467.68,194.48,467.68Z"/>
    <path class="cls-2" d="M186.78,460c-15.07,0-20.83-8.71-21.18-16.16-.4-8.41,5.06-15.27,8.94-19.05L182,403.9c-2.4-5.47-5.52-12.88-8.77-20.61l-1.08-2.57c-14.26-2.14-25.61-9.32-33.37-15.93l-8.07,6.28a12.31,12.31,0,0,1-7.56,2.6h-.46q-.3,10.59-1.28,23.72c7.6,15.28,10.07,22.94,6.1,29.82-1.85,3.21-4.65,8.06-28,11.6a110.78,110.78,0,0,1-24.43,4.72c-2,.19-3.78.36-4.91.59A41.63,41.63,0,0,1,62,445c-9,0-13.23-4.5-15-7.19a15,15,0,0,1-1-14.08,12.31,12.31,0,0,1,6.68-6.4,119,119,0,0,0,26.25-14.7c-3.52-8.76-8.47-21.86-11.08-32.27-7.62-6.83-12.14-17.92-13.54-21.74-.09-.25-.18-.51-.25-.77-6.2-21.21,9.39-60.82,23.81-90.72,1.47-5.34,4.13-13.41,6.17-19.41-3.32-6.23-.72-12.57,1.2-17.25.15-.37.34-.8.51-1.24-3.35-8.64-9.11-23.65-13.56-38.79l-16.73,6.17a12.27,12.27,0,0,1-4.24.75h-.56c-12.21,5.82-25.9,9.34-29.8,9.77a19.3,19.3,0,0,1-2,.11c-4.43,0-10.53-1.61-14.48-9.31l0,0a19.14,19.14,0,0,1-1.72-3.35A12.2,12.2,0,0,1,2,183.11C-4,168.29,3.6,148.75,24.47,125c0-7.53,2.34-13.62,6.89-17.81a41.24,41.24,0,0,0,3.45-4,52.54,52.54,0,0,1,6.89-7.51,24.47,24.47,0,0,1-4.48-9.17,17.94,17.94,0,0,1-.2-9.86,18.06,18.06,0,0,1-3.28-9.55c-.18-4.28,1.12-10.09,7.39-15.6,0-1.49-.07-3.21-.24-4.92a16.52,16.52,0,0,0-.67-2,11.61,11.61,0,0,1-.94-3.89A39.78,39.78,0,0,1,40.75,26a12.29,12.29,0,0,1,2-5.1A35.72,35.72,0,0,1,62,3.33a18.22,18.22,0,0,1,2.39-.84,11.22,11.22,0,0,1,1.29-.37A102.28,102.28,0,0,1,86.27,0C98.73,0,109,2.47,117,7.35l1.17,0a12.51,12.51,0,0,1,5.17,1.13c7.86,3.61,10.87,8.85,12,12.61a16.88,16.88,0,0,1-.14,10.29A19.52,19.52,0,0,1,137.93,38c6.67,3.43,12.4,5.44,14.61,5.44h.28a12.32,12.32,0,0,1,9.75,19.85l-.09.13C224.85,82,261,135.12,272.36,154.54c9.58.75,12.87,6.33,14,9.75,2.18,6.65-.59,12.87-8.23,18.47-1.87,1.37-4.56,3.69-7.68,6.38C257,200.69,237,218,215.55,219.08a530.08,530.08,0,0,1,7.8,53.55,12.33,12.33,0,0,1-2.7,8.83l.59,29.65,1.95,3.41a12.35,12.35,0,0,1,1.61,6.75,133.61,133.61,0,0,1-3.9,24.36c2.06,13.28,1.37,25,.8,34.57-.18,3-.35,6-.39,8.45,3.54,3.14,7.55,8.61,6.69,17.6-2.37,25.1-4.2,33-5.53,37C217.94,457.15,193.17,460,186.78,460Z"/>
    <g>
      <g>
        <g>
          <g>
            <path class="cls-3" d="M196.75,399.38l-11.68,32.5s-7.44,5.86-7.18,11.35c.44,9.22,31,2.13,32.88-3.76s3.61-20,5-34.38c.73-7.75-5.92-8.54-7.12-10.68"/>
            <path class="cls-4" d="M188.63,437.22s-4.54,5.28-3.93,10.1"/>
            <path class="cls-4" d="M194.17,438.05s-3.48,4.13-2.88,8.95"/>
            <path class="cls-4" d="M198.62,439s-2.49,1.87-1.88,6.69"/>
            <path class="cls-4" d="M204.12,438.68s-1.45.73-.84,5.55"/>
          </g>
          <path class="cls-3" d="M197.11,407.07c-3.33-5.39-26.1-62.66-29.61-66.9,0,0,12.9-76.63,37.11-9,10.44,29.17,1.78,54.78,5.28,66.49,0,0,3.45,3.14,1.41,6.54"/>
        </g>
        <path class="cls-3" d="M94.06,407c3-4.16-11.28,11.67-36.81,21.84,0,0-2.64,5.87,10.52,3.23,5.82-1.16,14.75-.62,29-5.26,0,0,18.42-2.69,20.17-5.73s-8-21.06-8-21.26c4.46-56.34-1.68-60.73-1.68-60.73s-28.94,6.42-28.94,19S94.06,407,94.06,407Z"/>
        <g>
          <g>
            <path class="cls-5" d="M93.21,254s-34.47,66-27.32,90.46c0,0,6.17,16.92,14.16,19.19s38.6-15.79,38.6-15.79l12.28-85.09-33.15-5.26Z"/>
            <path class="cls-5" d="M89.33,348.77c9.65,1,27.83-16.22,28.56-42.36"/>
            <path class="cls-5" d="M89.51,327.58S115.19,314,123,289"/>
          </g>
          <g>
            <path class="cls-5" d="M136.56,269.51s-18.84,59.12.51,75.68c0,0,21.05,29.83,53.5,22.81,19.72-4.26,21.93-47.37,21.93-47.37L209,314.49l-.87-43.85-38.57-16.38L138.91,268Z"/>
            <path class="cls-5" d="M177.42,348.7s25.43,2.64,31.57-34.21"/>
            <path class="cls-5" d="M173.91,306.6s25.44,2.63,31.58-34.21"/>
            <path class="cls-5" d="M140.88,286.2s5,28.29,21.62,48.47"/>
            <path class="cls-5" d="M139.7,296.07s-2.63,28.95,14,49.12"/>
          </g>
          <g>
            <path class="cls-5" d="M142.33,274.14l-9.57,79.76-9.57,7.45s1.39-11.1,5-12.55c0,0-16.5.66-20-2.36,0,0,11.5-6.55,15-6.77,0,0-16.15-3.79-20-2.61l17.18-75.2"/>
            <path class="cls-5" d="M125.68,339.85s0-25.57.39-30.12"/>
            <path class="cls-5" d="M130.51,348.27s-1.93-17.08-.4-31.21"/>
          </g>
        </g>
      </g>
      <g>
        <path class="cls-3" d="M111.89,101.67s3.1,11.37,7.49,13.65c0,0,11.58,12.77-15.44,26.89,0,0-21.51-1.1-18.15-18.7,0,0,4.07-3.23,2.26-9.85C88.05,113.66,95.19,87.1,111.89,101.67Z"/>
        <path class="cls-6" d="M89.84,109.53,88,123.66c22.53,7.93,30.37-7.6,30.37-7.6l-5-8.64"/>
      </g>
      <g>
        <path class="cls-3" d="M29.36,153.83s-15.52,7.08-16.2,13.25c-.88,8,.52,12.71,1.56,14.16s1.32,4,4.81,3.67,27-6.59,37.72-16L46.71,143.1Z"/>
        <path class="cls-7" d="M87.07,161.87,51.21,175.08S42,158.92,41.74,144.16c0,0,12.44-9,40.94-20.89"/>
      </g>
      <path class="cls-3" d="M35.32,170.64c3.5-3.51,8.33-30.25,10.52-34.21,3-5.39.88-17.54-8.77-7C33,133.89,6.74,161.93,13.39,178.53"/>
      <path class="cls-8" d="M72.16,127.66c-7.9-6.14-18.42,0-25.44,12.28-7.22,12.63-14.91-3.51-8.77-5.26s7.25-14.38,8.77-20.18S71.33,89,71.33,89s29.29,15.93,35,23.75"/>
      <g>
        <path class="cls-3" d="M37.51,131.48s-2.63-10.78,2.19-15.22,9.18-13.1,14.24-13.13,9.74,2.94,10.45,7.6c1.63,10.79-5.07,5-4.51,5.53,1.75,1.75.12,7.62-2.63,6.14,0,0,1.72,6.48-3.51,5.26,0,0-.26,4.58-3,3.07a30.08,30.08,0,0,1-7.51-6.58"/>
        <path class="cls-9" d="M53.54,107.38A24.45,24.45,0,0,1,58.19,112,13.15,13.15,0,0,1,60,114.77a9.19,9.19,0,0,1,.8,3.23l-.09,0c-.59-1-1.05-1.89-1.61-2.8s-1-1.88-1.56-2.77a28.24,28.24,0,0,0-1.89-2.6,26,26,0,0,0-2.18-2.39Z"/>
        <path class="cls-9" d="M50.91,112.65A24.58,24.58,0,0,1,55,117.39a13.24,13.24,0,0,1,1.58,2.76,9.18,9.18,0,0,1,.68,3.11l-.09,0c-.58-.92-1-1.84-1.5-2.73s-.85-1.85-1.35-2.75a29.38,29.38,0,0,0-1.63-2.62,25.11,25.11,0,0,0-1.88-2.47Z"/>
        <path class="cls-9" d="M47.39,117.91a18.44,18.44,0,0,1,4.2,4.21,11.67,11.67,0,0,1,1.56,2.58,8.25,8.25,0,0,1,.63,3l-.09,0c-.56-.85-1-1.72-1.45-2.55s-.82-1.73-1.32-2.56a21.52,21.52,0,0,0-1.64-2.39,17.55,17.55,0,0,0-2-2.19Z"/>
      </g>
      <g>
        <path class="cls-10" d="M52,132.92l10.41-3s9.17-5,6.26-12.77-6.14,2.63-6.14,2.63-.47,6.4-3.74,7.15"/>
        <path class="cls-9" d="M52,132.87l10.35-3.2,0,0A16.69,16.69,0,0,0,67,125.36a8.48,8.48,0,0,0,1.71-5.92l-.1-.78-.23-.75a8,8,0,0,0-.57-1.47c-.43-.9-1.16-1.88-1.77-1.62a2.53,2.53,0,0,0-1,.83,7.92,7.92,0,0,0-.84,1.31,20.73,20.73,0,0,0-1.3,2.93l0-.09A14.38,14.38,0,0,1,61.83,124a6.47,6.47,0,0,1-1.18,1.85A3.39,3.39,0,0,1,58.78,127l0-.1a3.29,3.29,0,0,0,1.61-1.23,6.69,6.69,0,0,0,.92-1.83,16.66,16.66,0,0,0,.79-4.07v0l0,0a18.87,18.87,0,0,1,1.23-3.15,9.28,9.28,0,0,1,.92-1.48,3.21,3.21,0,0,1,1.53-1.18,1.82,1.82,0,0,1,1.15.07,2.48,2.48,0,0,1,.82.61,5.79,5.79,0,0,1,1,1.53,8.88,8.88,0,0,1,.57,1.62l.22.83.08.87a9.27,9.27,0,0,1-2,6.39,17.16,17.16,0,0,1-5.05,4.36l0,0h0L52,133Z"/>
      </g>
      <g>
        <path class="cls-7" d="M79.61,124.59l6.58-3.07c7.9,33.33,33-6.16,33-6.16s.81-1.3,7-2c22.18-2.57,46,44.13,62.71,66.06,15.83,20.84,22.26,94.3,22.26,94.3s-38.93,19.73-66.12,3.94c-30.55-17.74-56.14-13.15-56.14-13.15.39-4.23,8.77-28.31,8.77-28.31s0,.24-2.63-4.15c-1.34-2.23,4.59-11.24,3.53-14C94.09,206.6,78.3,167.13,78.3,147"/>
        <g>
          <path class="cls-11" d="M140.58,229.41s-35.48-7.82-43.86,8.77"/>
          <path class="cls-12" d="M140.58,229.41c-2-.29-3.92-.56-5.89-.74s-3.93-.38-5.9-.48a77.31,77.31,0,0,0-11.79.13,39,39,0,0,0-11.42,2.5,17.8,17.8,0,0,0-8.86,7.36,15,15,0,0,1,3.51-4.8,20.69,20.69,0,0,1,5-3.26,37.2,37.2,0,0,1,11.63-2.8,70,70,0,0,1,11.94.1A76.24,76.24,0,0,1,140.58,229.41Z"/>
        </g>
        <g>
          <path class="cls-11" d="M145,198.71S116,227.66,99.64,216.93"/>
          <path class="cls-12" d="M145,198.71a88.88,88.88,0,0,1-9.62,8.77,81.63,81.63,0,0,1-10.84,7.26,50.13,50.13,0,0,1-6,2.76,30.62,30.62,0,0,1-6.32,1.79,21.29,21.29,0,0,1-6.57.09,14.36,14.36,0,0,1-6-2.45c3.78,2.24,8.3,2.46,12.45,1.6A42.42,42.42,0,0,0,124,213.87a92.09,92.09,0,0,0,10.86-7c1.74-1.27,3.44-2.6,5.12-4S143.34,200.14,145,198.71Z"/>
        </g>
        <g>
          <path class="cls-11" d="M162.21,247.79s30-39.9,24.85-67.5"/>
          <path class="cls-12" d="M162.21,247.79c1.73-2.53,3.41-5.1,5-7.71s3.19-5.23,4.68-7.9a165,165,0,0,0,8.2-16.4A99.1,99.1,0,0,0,186,198.47a55.21,55.21,0,0,0,1.39-9,41.83,41.83,0,0,0-.27-9.15,45,45,0,0,1-.37,18.34A93.18,93.18,0,0,1,181,216.18a154,154,0,0,1-18.8,31.61Z"/>
        </g>
      </g>
      <path class="cls-13" d="M265.26,167.14S221.71,79.85,134,70.21c-51.47-5.67-27.56,28.16-15.79,43.85a122,122,0,0,1,6.73,11.12s2,9.06-16.38,11.69c-9.55,1.36,8.77,19.3,14,14s7.9-20.17,7.9-20.17l28.07,35.09s15.38,7.32,25.43,11.4c10.09,4.82,8.34,8.33,14.48,25,25.44,17.54,59.21-19.74,72.36-29.39C282.07,164.59,265.26,167.14,265.26,167.14Z"/>
      <path class="cls-8" d="M166.89,119.76c-2-.13-4-.15-5.94-.12a52.14,52.14,0,0,0-5.87.42,38.66,38.66,0,0,0-5.73,1.21,28.67,28.67,0,0,0-5.42,2.33,18.32,18.32,0,0,1,5.16-3.07,27.5,27.5,0,0,1,5.86-1.47A32.4,32.4,0,0,1,166.89,119.76Z"/>
      <path class="cls-8" d="M264.26,166.83l-4.12.17c-1.36.06-2.72.12-4.07.23s-2.69.25-4,.43-2.66.47-4,.83a14.29,14.29,0,0,1,3.85-1.59,25,25,0,0,1,4.11-.67A27.35,27.35,0,0,1,264.26,166.83Z"/>
      <path class="cls-8" d="M245.1,180.64c2-.12,4-.35,5.91-.62a55.58,55.58,0,0,0,5.77-1.16,38.6,38.6,0,0,0,5.54-1.92,30.11,30.11,0,0,0,5.08-3,18.17,18.17,0,0,1-4.74,3.69,27.1,27.1,0,0,1-5.62,2.2A32.31,32.31,0,0,1,245.1,180.64Z"/>
      <path class="cls-8" d="M129.88,118.86c.13-1.66.15-3.3.12-4.93a37.35,37.35,0,0,0-.44-4.86,25.17,25.17,0,0,0-1.22-4.68A23.05,23.05,0,0,0,126.1,100a13.7,13.7,0,0,1,3,4,18.53,18.53,0,0,1,1.49,4.83A22.14,22.14,0,0,1,129.88,118.86Z"/>
      <path class="cls-14" d="M147.59,121.52s45.62,0,105.26,45.61"/>
      <g>
        <path class="cls-3" d="M194.08,192.57s1.76-25.44-23.24-41.67c-24.23-15.72-21.24,3.72-21.24,3.72l25.26,28.93"/>
        <path class="cls-7" d="M188.82,168.89s-13.58-11.09-23.56-6c-20.3,10.37-26.44-40.5-26.44-40.5s11.68-1.83,25.44,7S188.82,168.89,188.82,168.89Z"/>
        <g>
          <path class="cls-3" d="M181.07,170.2c-5.3-4.72-12.69-9.88-22.95-15.35-13.16-7-13.08-9.68-13.16-11.4s-1.37-26.26-1.37-26.26-7.64-7.85-13.22-5.27c0,0-3,2.58-2.67,5.27,0,0-3.74.52-3.76,3.74,0,0-4.49,2.78-3.14,5.63,0,0-3.76,3.17-2.15,6.36,0,0-.82,2,1.7,0,4.44-3.51,8,3.72,8,3.51s.29,8,1.75,13.16,6.49,4.34,6.75,5.24,5.74,4.41,11.33,15.37,19.46,33,32.79,33.77c0,0,9.65,3.51,12-1.75a39.12,39.12,0,0,0,1.16-9.65"/>
          <g>
            <path class="cls-10" d="M137.07,118.89s-3.51-2.63-9.65-1.76"/>
            <path class="cls-9" d="M137,118.93l-2.45-.48c-.79-.13-1.55-.29-2.33-.41l-2.35-.37a20.46,20.46,0,0,1-2.48-.49l0-.1a19,19,0,0,1,2.5-.19,16.21,16.21,0,0,1,2.51.17,12.31,12.31,0,0,1,4.68,1.79Z"/>
          </g>
          <g>
            <path class="cls-10" d="M135.31,123.27A25.67,25.67,0,0,0,124,121"/>
            <path class="cls-9" d="M135.29,123.32a20.92,20.92,0,0,0-2.76-.85,24.74,24.74,0,0,0-2.82-.58c-.94-.15-1.9-.16-2.84-.31s-1.88-.27-2.86-.53V121a9,9,0,0,1,2.95-.38,12,12,0,0,1,2.91.53,22.34,22.34,0,0,1,5.46,2.12Z"/>
          </g>
          <g>
            <path class="cls-10" d="M131.8,128.54a25.6,25.6,0,0,0-11.3-2.27"/>
            <path class="cls-9" d="M131.78,128.58a22.53,22.53,0,0,0-2.76-.85,24.74,24.74,0,0,0-2.82-.58c-.94-.15-1.9-.16-2.84-.31s-1.88-.27-2.85-.52v-.1a9,9,0,0,1,3-.38,12.44,12.44,0,0,1,2.91.53,22.57,22.57,0,0,1,5.47,2.12Z"/>
          </g>
        </g>
      </g>
      <g>
        <path class="cls-15" d="M123.39,75.84S133,88.36,133.55,91.23c0,0-.91,7.53-13.29,8.46C120.26,99.69,111.32,74.41,123.39,75.84Z"/>
        <path class="cls-3" d="M119.25,49.9S82.73,20.18,60.63,55.21c0,0-3.66,27.42,11.16,51.2,0,0,18.71,27.83,42.08,4.1,0,0,7-4.72,10.86-29.82C124.73,80.69,125.53,53.06,119.25,49.9Z"/>
        <g>
          <g>
            <path class="cls-16" d="M125.34,45.1S143.07,56,152.84,55.79c0,0-7.16,9.21-7.92,19.5,0,0-12.78-13.06-17-10.59Z"/>
            <g>
              <path class="cls-17" d="M149.6,60.23s-9.67-2.6-16.43-6.1"/>
              <path class="cls-9" d="M149.47,60.71c-2.82-.87-5.58-1.84-8.31-2.91a70.35,70.35,0,0,1-8-3.67,71.13,71.13,0,0,0,8.16,3.2c2.77.9,5.58,1.72,8.4,2.42Z"/>
            </g>
            <g>
              <path class="cls-17" d="M146.4,68A49.13,49.13,0,0,1,136,61.78"/>
              <path class="cls-9" d="M146.2,68.46a52.59,52.59,0,0,1-5.33-3A41.68,41.68,0,0,1,136,61.78,40.9,40.9,0,0,0,141.12,65a52.9,52.9,0,0,0,5.47,2.53Z"/>
            </g>
          </g>
          <path class="cls-15" d="M118.87,78.16s.67-10.08-2.11-15.76c0,0-3.42-9.52-1.56-11.82,0,0-13.86-13.31-27.71-4.1,0,0-17.56,9.55-26.46,8.42a60.82,60.82,0,0,0,2,30.21s-3.77,1-10.78-11.3c0,0-14.65-6.86.9-15.84,0,0,1.06-11.13-1.16-18.78,0,0-1.93-18.65,16.4-25.06,0,0,29.77-6.75,45.06,5.79.17.13.33.27.5.42,0,0,7.48,24.2,10.52,27.64,0,0,15.11,8,6.3,17.74,0,0-7.26,5-6.4,10.17A6.68,6.68,0,0,1,118.87,78.16Z"/>
          <g>
            <path class="cls-16" d="M118.19,19.63s-6.4-.05-8.71,2.29c0,0-10.84-2.41-16.48-1.44,0,0-19.24-9.25-26.35-5.72,0,0-16.6,5.14-15.1,25,0,0,4.81,10.92.49,18.89,0,0,10-20.18,48.49-19.39,0,0,20,3.68,24.32,10.05,0,0,4.13-10.43-2.61-13.51,0,0-3.13-3,1-7.56C123.22,28.2,126.22,23.32,118.19,19.63Z"/>
            <g>
              <path class="cls-17" d="M109.48,21.92s-36.12-8.77-57.93,17.8"/>
              <path class="cls-9" d="M109.48,21.92a65.62,65.62,0,0,0-7.9-.89A74.74,74.74,0,0,0,93.66,21,66.65,66.65,0,0,0,78.07,23.3a53.67,53.67,0,0,0-14.45,6.22c-.57.33-1.12.69-1.66,1.07s-1.1.73-1.63,1.12c-1,.81-2.12,1.58-3.09,2.47a57.19,57.19,0,0,0-5.69,5.54A47.24,47.24,0,0,1,63.21,28.87,51.9,51.9,0,0,1,77.8,22.34a58.46,58.46,0,0,1,7.86-1.57,65.45,65.45,0,0,1,23.82,1.15Z"/>
            </g>
            <g>
              <path class="cls-17" d="M53.71,45.29s18.45-23.84,58.66-17.85"/>
              <path class="cls-9" d="M53.71,45.29a39.77,39.77,0,0,1,5.59-5.72c1.05-.83,2.07-1.71,3.19-2.44L64.13,36c.55-.38,1.14-.7,1.71-1.06a61.9,61.9,0,0,1,14.72-6.38c1.29-.34,2.61-.61,3.92-.91.65-.14,1.3-.32,2-.42l2-.28c1.33-.16,2.65-.4,4-.51s2.67-.14,4-.2c.67,0,1.33-.06,2-.07l2,.08,4,.17c1.33.07,2.65.33,4,.49l4,.56c-2.66-.15-5.3-.46-8-.56l-4,0-2,0c-.66,0-1.32.1-2,.14-1.32.11-2.64.21-4,.29s-2.62.37-3.93.55l-2,.3c-.65.11-1.29.29-1.93.43-1.29.32-2.58.59-3.85.94a64.84,64.84,0,0,0-14.6,6.08A52,52,0,0,0,53.71,45.29Z"/>
            </g>
            <g>
              <path class="cls-17" d="M52.93,27.81S67.13,16,78,18.92"/>
              <path class="cls-9" d="M52.93,27.81a37.17,37.17,0,0,1,5.42-4.25,36.92,36.92,0,0,1,6.09-3.3,25.81,25.81,0,0,1,6.68-1.91,14.55,14.55,0,0,1,1.74-.13l.87,0c.3,0,.59,0,.88.06a11.1,11.1,0,0,1,1.72.23c.56.14,1.12.29,1.67.45q-.87-.08-1.71-.18a10.6,10.6,0,0,0-1.69,0h-.85l-.84.11a13.32,13.32,0,0,0-1.66.26c-.55.14-1.1.26-1.64.38L68,20c-.54.14-1.06.37-1.59.56s-1.06.39-1.57.63a59.35,59.35,0,0,0-6.08,3c-1,.55-2,1.14-2.93,1.75S53.89,27.17,52.93,27.81Z"/>
            </g>
          </g>
          <path class="cls-18" d="M81.29,103.23s11.39.84,14.94-2.49-9.21-4-9.21-4Z"/>
          <path class="cls-15" d="M81.61,91.7s-8.4,7.86-2.87,17.1c0,0,3.27-5,7-9.65a45,45,0,0,1,14,2.63c7.75,2.91,8.61.16,8.61.16S101.54,93,98,91.26c-2.25-1.13-9.65-3.51-9.65-3.51"/>
          <g>
            <g>
              <g>
                <ellipse class="cls-19" cx="98.49" cy="69.37" rx="6.71" ry="6.89" transform="translate(-0.71 137.72) rotate(-69.73)"/>
                <path class="cls-20" d="M91.8,70.54a6.49,6.49,0,0,0,2.93,4.2,6.59,6.59,0,0,0,4.92.79,6.17,6.17,0,0,0,3.86-2.71,6,6,0,0,0,.83-4.46,6.54,6.54,0,0,0-7-5.16A6.38,6.38,0,0,0,93,65.56,6.22,6.22,0,0,0,91.8,70.54Zm-.1,0a6.63,6.63,0,0,1,1.08-5.13,6.76,6.76,0,0,1,4.46-2.77,7,7,0,0,1,5.14,1.13,6.94,6.94,0,0,1,2.94,4.38,6.64,6.64,0,0,1-1.1,5.15,6.83,6.83,0,0,1-4.48,2.76,7.09,7.09,0,0,1-5.14-1.15A6.94,6.94,0,0,1,91.7,70.56Z"/>
              </g>
              <ellipse class="cls-21" cx="98.7" cy="69.37" rx="3.77" ry="3.46"/>
            </g>
            <ellipse class="cls-19" cx="95.81" cy="68.68" rx="0.65" ry="0.9" transform="translate(-1.75 134.85) rotate(-69.79)"/>
          </g>
          <g>
            <g>
              <ellipse class="cls-19" cx="72.22" cy="73.44" rx="6.34" ry="6.12" transform="translate(-20.97 29.57) rotate(-20.27)"/>
              <path class="cls-20" d="M78.46,74.5A7,7,0,0,1,71,80a6.71,6.71,0,0,1-4.63-2.49,6.53,6.53,0,0,1-1.24-5.29,6.87,6.87,0,0,1,3.11-4.42,7.06,7.06,0,0,1,5.17-.88,6.61,6.61,0,0,1,4.14,2.85A6.3,6.3,0,0,1,78.46,74.5Zm-.1,0a5.84,5.84,0,0,0-1-4.6,6.11,6.11,0,0,0-4-2.44,6.44,6.44,0,0,0-4.6,1,6.24,6.24,0,0,0-2.62,3.91,5.87,5.87,0,0,0,1,4.58,6.09,6.09,0,0,0,4,2.45,6.46,6.46,0,0,0,4.62-1A6.29,6.29,0,0,0,78.36,74.48Z"/>
            </g>
            <ellipse class="cls-21" cx="73.77" cy="73.74" rx="3.77" ry="3.46"/>
            <ellipse class="cls-19" cx="70.4" cy="72.17" rx="0.65" ry="0.9" transform="translate(-21.65 113.3) rotate(-69.79)"/>
          </g>
          <g>
            <path class="cls-10" d="M79.21,67.12s-2.3,14.16,1,22c0,0,4.43,8.07,12.66-2.36a10,10,0,0,0-.67-7.2"/>
            <path class="cls-9" d="M79.21,67.12c-.17,1.85-.31,3.69-.36,5.54s-.11,3.68,0,5.52a49.81,49.81,0,0,0,.46,5.47,23.26,23.26,0,0,0,1.39,5.24l0,0a6,6,0,0,0,2.63,2.38,4.6,4.6,0,0,0,3.48,0,8.87,8.87,0,0,0,1.67-.81c.5-.4,1-.71,1.52-1.15s1-.84,1.4-1.32l1.3-1.44,0,.08A8.05,8.05,0,0,0,93,84.89,10,10,0,0,0,93,83.08a11.39,11.39,0,0,0-.83-3.56A11.31,11.31,0,0,1,93,81.23a10,10,0,0,1,.42,1.82,8.94,8.94,0,0,1-.22,3.77v0l0,0-1.25,1.54c-.42.51-.93,1-1.39,1.44a17.71,17.71,0,0,1-1.56,1.28,10.94,10.94,0,0,1-1.84.93,5.52,5.52,0,0,1-4.15,0,6.74,6.74,0,0,1-3.13-2.77v0a23.49,23.49,0,0,1-1.37-5.49,36.16,36.16,0,0,1-.33-5.59c0-1.86.13-3.72.31-5.57S78.82,68.94,79.21,67.12Z"/>
          </g>
          <g>
            <g>
              <line class="cls-10" x1="95.13" y1="117.19" x2="93.6" y2="121.82"/>
              <path class="cls-9" d="M95.17,117.2a4.62,4.62,0,0,1-.17,2.52,4.54,4.54,0,0,1-1.37,2.11l-.07,0,.73-2.33.81-2.3Z"/>
            </g>
            <g>
              <line class="cls-10" x1="100.78" y1="116.03" x2="103.03" y2="120.41"/>
              <path class="cls-9" d="M100.81,116a4.61,4.61,0,0,1,1.69,1.89,4.69,4.69,0,0,1,.56,2.48l-.06,0-1.16-2.18-1.1-2.2Z"/>
            </g>
            <g>
              <line class="cls-10" x1="98.39" y1="111.92" x2="97.99" y2="116.75"/>
              <path class="cls-9" d="M98.43,111.93a4.54,4.54,0,0,1,.43,2.46,4.65,4.65,0,0,1-.83,2.36H98l.16-2.42.24-2.41Z"/>
            </g>
            <g>
              <line class="cls-10" x1="81.61" y1="109.46" x2="78.47" y2="113.35"/>
              <path class="cls-9" d="M81.64,109.48a4.77,4.77,0,0,1-1.07,2.35,4.89,4.89,0,0,1-2.07,1.54l-.06,0,1.54-2,1.6-1.92Z"/>
            </g>
            <g>
              <line class="cls-10" x1="107.27" y1="113.98" x2="109.53" y2="118.35"/>
              <path class="cls-9" d="M107.31,114a5.09,5.09,0,0,1,2.25,4.38l-.06,0-1.17-2.17L107.24,114Z"/>
            </g>
            <g>
              <line class="cls-10" x1="112.52" y1="108.54" x2="114.78" y2="112.92"/>
              <path class="cls-9" d="M112.56,108.52a5.09,5.09,0,0,1,2.25,4.38l-.07,0-1.16-2.18-1.09-2.2Z"/>
            </g>
            <g>
              <line class="cls-10" x1="105.43" y1="108.43" x2="109.67" y2="111.31"/>
              <path class="cls-9" d="M105.45,108.4a5,5,0,0,1,2.48.91,5.13,5.13,0,0,1,1.76,2l0,.06-2.14-1.41-2.1-1.47Z"/>
            </g>
            <g>
              <line class="cls-10" x1="109.48" y1="103.13" x2="112.7" y2="105.32"/>
              <path class="cls-9" d="M109.5,103.1a3.11,3.11,0,0,1,2,.57,3.07,3.07,0,0,1,1.25,1.62l0,.06-1.63-1.06-1.59-1.13Z"/>
            </g>
            <g>
              <line class="cls-10" x1="115.62" y1="104.82" x2="117.87" y2="109.2"/>
              <path class="cls-9" d="M115.65,104.8a4.65,4.65,0,0,1,1.7,1.9,4.78,4.78,0,0,1,.56,2.48l-.07,0L116.68,107l-1.09-2.2Z"/>
            </g>
            <g>
              <line class="cls-10" x1="118.26" y1="101.47" x2="122.44" y2="104.43"/>
              <path class="cls-9" d="M118.28,101.44a5,5,0,0,1,2.46,1,5.13,5.13,0,0,1,1.72,2l0,.06L120.3,103l-2.06-1.51Z"/>
            </g>
            <g>
              <line class="cls-10" x1="88.78" y1="116.78" x2="87.24" y2="121.41"/>
              <path class="cls-9" d="M88.81,116.79a4.57,4.57,0,0,1-.16,2.51,4.65,4.65,0,0,1-1.37,2.12l-.08,0,.74-2.33.8-2.31Z"/>
            </g>
            <g>
              <line class="cls-10" x1="82.14" y1="113.66" x2="80.61" y2="118.29"/>
              <path class="cls-9" d="M82.18,113.67a4.57,4.57,0,0,1-.16,2.51,4.67,4.67,0,0,1-1.38,2.12l-.07,0L81.3,116l.81-2.3Z"/>
            </g>
            <g>
              <line class="cls-10" x1="73.61" y1="106.11" x2="72.08" y2="110.74"/>
              <path class="cls-9" d="M73.65,106.12a4.95,4.95,0,0,1-1.54,4.63l-.07,0,.73-2.33.81-2.3Z"/>
            </g>
            <g>
              <line class="cls-10" x1="77.49" y1="109.76" x2="75.95" y2="114.39"/>
              <path class="cls-9" d="M77.53,109.77a4.62,4.62,0,0,1-.17,2.52A4.54,4.54,0,0,1,76,114.4l-.07,0,.73-2.33.8-2.3Z"/>
            </g>
            <g>
              <line class="cls-10" x1="71.33" y1="102.93" x2="69.8" y2="107.57"/>
              <path class="cls-9" d="M71.37,103a4.57,4.57,0,0,1-.17,2.51,4.62,4.62,0,0,1-1.37,2.12l-.07,0,.73-2.32.81-2.31Z"/>
            </g>
          </g>
          <g>
            <path class="cls-3" d="M125.4,69.76c1.55-2.05,3.68-4.12,6.64-4.18s4.72,1.67,4.76,5.07-.41,6.19-3.61,8.68-7,3.18-9.25,1.55"/>
            <path class="cls-22" d="M126,79.19a11.22,11.22,0,0,0,1.13-.67,3.57,3.57,0,0,0,1.44-1.71,2.31,2.31,0,0,0-.08-1.94,3.12,3.12,0,0,0-.73-.92l-.19-.16.06-.13.4-.74a13.51,13.51,0,0,1,1.5-2,5.72,5.72,0,0,1,2.24-1.73,2.79,2.79,0,0,1,1.64-.09c.5.12.92.45.91.84-.09-.37-.53-.6-1-.68a2.49,2.49,0,0,0-1.38.16,5.73,5.73,0,0,0-2,1.68,22.21,22.21,0,0,0-1.58,2q-.27.39-.51.78a3.1,3.1,0,0,1,1,1,2.37,2.37,0,0,1,.22,2.12,3.86,3.86,0,0,1-1.69,1.84,9.66,9.66,0,0,1-1.25.61,3,3,0,0,1-1.41.3A3.09,3.09,0,0,0,126,79.19Zm7.62-4.54a3.07,3.07,0,0,0,.16-2.15,13.07,13.07,0,0,0-.84-2.13,7.43,7.43,0,0,1,1.21,2.06,2.93,2.93,0,0,1-.07,2.32,5.15,5.15,0,0,1-1.93,2,16.49,16.49,0,0,1-2.69,1.35c.84-.5,1.69-1,2.44-1.54A5.2,5.2,0,0,0,133.62,74.65Z"/>
          </g>
          <g>
            <path class="cls-3" d="M59.81,79.53c-2.08-1.61-4.72-3.09-7.61-2.45s-4.08,2.75-3.14,6,2.15,5.88,6,7.51,7.66,1.39,9.37-.72"/>
            <path class="cls-22" d="M63.29,88.89a3,3,0,0,1-1.45,0,9.91,9.91,0,0,1-1.38-.29,4,4,0,0,1-2.15-1.38,2.36,2.36,0,0,1-.4-2.09A2.89,2.89,0,0,1,58.59,84c-.23-.22-.48-.43-.72-.63a23.15,23.15,0,0,0-2.08-1.52,6.13,6.13,0,0,0-2.4-1.14,2.43,2.43,0,0,0-1.38.18c-.43.19-.79.51-.77.9-.13-.38.19-.8.64-1a2.64,2.64,0,0,1,1.6-.31,6,6,0,0,1,2.66,1.13,14.23,14.23,0,0,1,2,1.61c.21.2.4.41.59.62a.52.52,0,0,1,.1.11,1.43,1.43,0,0,0-.14.2,2.83,2.83,0,0,0-.44,1.07,2.35,2.35,0,0,0,.47,1.88,3.89,3.89,0,0,0,1.88,1.31c.41.15.84.26,1.28.38A3.18,3.18,0,0,0,63.29,88.89Zm-7.83-1.28c.87.35,1.83.61,2.79.9a18.15,18.15,0,0,1-3-.66,5.54,5.54,0,0,1-2.42-1.42,3,3,0,0,1-.73-2.23,7.16,7.16,0,0,1,.58-2.28,11.65,11.65,0,0,0-.2,2.26,3.12,3.12,0,0,0,.77,2A5.65,5.65,0,0,0,55.46,87.61Z"/>
          </g>
          <path class="cls-21" d="M87.51,56.17s1.75,5.42,5.18,5.78,15,2.11,15,2.11-7.28-5.36-10.77-6.14-9.4-2.63-9.4-2.63Z"/>
          <path class="cls-21" d="M78,56.67s.12,5.69-3,7.17-11.1,6.37-11.1,6.37,2.69-6.88,5.76-8.77,8.09-5.6,8.09-5.6Z"/>
        </g>
      </g>
    </g>
  </g>
</svg>
