<svg id="Layer_1" data-name="Layer 1" xmlns="http://www.w3.org/2000/svg" width="452.72" height="348.95" viewBox="0 0 452.72 348.95">
  <defs>
    <style>
      .cls-1 {
        opacity: 0.5;
      }

      .cls-2 {
        fill: #ff0;
      }

      .cls-3 {
        fill: #28201d;
      }

      .cls-4 {
        fill: #3d2503;
      }

      .cls-5 {
        fill: #444647;
      }

      .cls-6 {
        fill: #28ae02;
      }

      .cls-7 {
        fill: #fbd81e;
      }

      .cls-8 {
        fill: #227f04;
      }

      .cls-9 {
        fill: #dd971b;
      }

      .cls-10 {
        fill: #262626;
      }

      .cls-11 {
        fill: #8a561f;
      }

      .cls-12 {
        fill: #4f4f4f;
      }

      .cls-13 {
        fill: #363838;
      }

      .cls-14 {
        fill: #333;
      }

      .cls-15 {
        fill: #676566;
      }

      .cls-16 {
        fill: #aed8e5;
      }

      .cls-17 {
        fill: #a3ced8;
      }

      .cls-18 {
        fill: #c8e5e8;
      }

      .cls-19 {
        fill: #bfbfbf;
      }

      .cls-20 {
        fill: #36c108;
      }

      .cls-21 {
        fill: #dee2e3;
      }

      .cls-22 {
        fill: #d1d3d3;
      }
    </style>
  </defs>
  <g>
    <path class="cls-1" d="M60.29,349A41.61,41.61,0,0,1,49,347.4c-.9-.25-1.8-.54-2.73-.87a42.15,42.15,0,0,1-5.09-1.08A42.73,42.73,0,0,1,14.44,323a49.69,49.69,0,0,1-3.21-35.8,51.58,51.58,0,0,1,5.2-12.27L13.17,274a9.75,9.75,0,0,1-6.08-13.67c.61-1.25,13.45-26.74,40.4-33.94a110.7,110.7,0,0,1-3.44-22.21,27.11,27.11,0,0,0-2.12-2.93,25.14,25.14,0,0,1-4.49-8.47c-2.7-5-3.45-11.32-3.65-14.84a43.29,43.29,0,0,1,.64-10.63c0-7.23.53-12.85.55-13.1a9.76,9.76,0,0,1,5.13-7.72c1-.52,2.51-1.31,4.28-2.13-.5-4.4-1-9.23-1-11.32a12.37,12.37,0,0,1,4.4-9.4,9.79,9.79,0,0,1,.88-6.27l34.47-72.8A9.76,9.76,0,0,1,88.22,31.1,33.51,33.51,0,0,1,92,23.82a9.77,9.77,0,0,1,5.61-3.9c2.11-.54,52-13.17,77.2-13.17H175a9.92,9.92,0,0,1,3.31-.62s3.34,0,9.22,0c17.84,0,64.18.38,109.14,3.8,58.07,4.42,93.21,12.2,107.44,23.76,28.25,23,30.69,71,32.31,102.86.43,8.58.88,17.44,1.8,20.31a10.11,10.11,0,0,1,.45,2.56L440.91,215c7.32,10.88,6.83,28,6.63,31.61a9.73,9.73,0,0,1-1.81,5.15l6.7,27.16A9.75,9.75,0,0,1,443,291h-.18s-2.78,0-7.44-.17c-5.16,14.22-15.17,24.36-26.44,26.55a9.92,9.92,0,0,1-2.79.76,48.93,48.93,0,0,1-5.44.27h0c-14.29,0-25.2-4.86-30.72-13.7a52,52,0,0,1-6.61-17.23c-15.57-1.3-23.23-2.67-27.52-4.18l-31.62,5.75c-2.51,3.79-6.72,5.58-8.74,6.26-.38.12-.76.23-1.14.31-2.56.51-62.79,12.75-78.76,14.88a56.81,56.81,0,0,1-7.47.5,53.15,53.15,0,0,1-22.62-4.93c-2.41,0-6.34.11-11.18.11-55.36,0-61.21-6.94-64.35-10.67a47,47,0,0,1-3.24-4.31l-.54,0a51,51,0,0,1-1.27,21.93C99,334.24,80.67,349,60.29,349ZM342.07,99.8c-2.93,10.5-2.66,13.76-1.92,14.65a4,4,0,0,0,1.64.59,146.23,146.23,0,0,0,16.62,2.09q.36-9.41.33-17.38c-3.1-.23-6.36-.4-9.42-.4A46.88,46.88,0,0,0,342.07,99.8Zm-136-24.46c.21,10.25.45,22.44.9,36.84,2.5-.12,5.36-.23,8.43-.3,4-23.92,5.74-35.37,6.49-40.83a108.61,108.61,0,0,0-16-2.4C206,70.79,206.06,73,206.11,75.34Z"/>
    <path class="cls-2" d="M54.2,342.86A41.55,41.55,0,0,1,43,341.31c-.91-.25-1.81-.54-2.74-.88a40.16,40.16,0,0,1-5.08-1.08A42.7,42.7,0,0,1,8.35,316.92a49.75,49.75,0,0,1-3.22-35.8,51.92,51.92,0,0,1,5.21-12.28l-3.27-.93A9.76,9.76,0,0,1,1,254.23c.61-1.24,13.44-26.73,40.4-33.94A110.61,110.61,0,0,1,38,198.09a28.73,28.73,0,0,0-2.13-2.94,25.26,25.26,0,0,1-4.49-8.46c-2.7-5-3.44-11.33-3.64-14.84a42.8,42.8,0,0,1,.63-10.63c0-7.24.54-12.86.56-13.1A9.76,9.76,0,0,1,34,140.39c1-.52,2.51-1.31,4.29-2.13-.51-4.4-1-9.22-1-11.31a12.4,12.4,0,0,1,4.4-9.4,9.82,9.82,0,0,1,.88-6.28L77.05,38.48A9.76,9.76,0,0,1,82.13,25a32.77,32.77,0,0,1,3.81-7.29,9.75,9.75,0,0,1,5.61-3.89c2.11-.54,52-13.17,77.2-13.17h.12A9.76,9.76,0,0,1,172.18,0s3.35,0,9.23,0c17.84,0,64.18.37,109.13,3.79C348.61,8.22,383.76,16,398,27.55c28.25,23,30.69,71.05,32.3,102.87.44,8.57.89,17.43,1.8,20.31a9.69,9.69,0,0,1,.45,2.56l2.27,55.64c7.33,10.87,6.84,28,6.64,31.6a9.82,9.82,0,0,1-1.81,5.15l6.7,27.17a9.76,9.76,0,0,1-9.47,12.09h-.18l-7.43-.17c-5.16,14.21-15.17,24.36-26.45,26.55a9.85,9.85,0,0,1-2.78.76,52.4,52.4,0,0,1-5.44.27h0c-14.29,0-25.2-4.87-30.72-13.7a52.09,52.09,0,0,1-6.61-17.24c-15.58-1.29-23.24-2.67-27.52-4.17L298.11,283c-2.51,3.79-6.71,5.58-8.74,6.25a8.71,8.71,0,0,1-1.14.31c-2.55.52-62.78,12.76-78.76,14.89a56.75,56.75,0,0,1-7.46.49A53.24,53.24,0,0,1,179.38,300c-2.4,0-6.34.1-11.18.1-55.36,0-61.21-6.94-64.35-10.67a48.66,48.66,0,0,1-3.23-4.3l-.54,0a50.93,50.93,0,0,1-1.27,21.92C92.92,328.15,74.57,342.86,54.2,342.86ZM336,93.71c-2.94,10.49-2.67,13.75-1.92,14.64a3.77,3.77,0,0,0,1.64.59,143.51,143.51,0,0,0,16.61,2.1c.24-6.27.35-12.08.33-17.38-3.09-.24-6.36-.4-9.42-.4A45.46,45.46,0,0,0,336,93.71ZM200,69.24c.2,10.26.45,22.45.9,36.85,2.49-.12,5.36-.23,8.42-.3,4-23.93,5.74-35.37,6.49-40.84a108.53,108.53,0,0,0-16-2.39Q199.94,65.76,200,69.24Z"/>
    <g>
      <g>
        <path class="cls-3" d="M428,239.06l8.91,36.12s-102.26-1.87-106-8.44,49.26-49.25,49.26-49.25S422.8,205.29,428,239.06Z"/>
        <path class="cls-3" d="M398.87,302.39s-19.7,2.35-26.74-8.91-8.44-29.08-3.28-41.75,29.09-18.3,29.09-18.3Z"/>
        <path class="cls-4" d="M269.4,37.23C162.8,38.29,187.07,52,187.07,52s39.06,1.05,39.06,8.44-19,116.11-19,116.11l51.72,7.38L375,168.11l7.39-100.27S376,36.18,269.4,37.23Zm64.39,81.27c-15.84-3.16-8.45-22.16-6.34-30.6s42.22-2.12,42.22-2.12l4.22,35.89S349.62,121.67,333.79,118.5ZM283.15,29.78"/>
        <path class="cls-5" d="M349.62,172.33S244.07,160.72,243,175.5,318,188.17,318,188.17Z"/>
        <path class="cls-3" d="M239.85,117.45s21.11-4.22,19,15.83-4.23,36.94-14.78,38-51.72-2.11-55.94-7.39S239.85,117.45,239.85,117.45Z"/>
        <path class="cls-5" d="M192.35,116.39s50.66-4.22,54.89,5.28,1,44.33-10.56,46.44-43.27,0-48.55-4.22S192.35,116.39,192.35,116.39Z"/>
        <polygon class="cls-6" points="286.29 183.94 290.51 38.29 295.79 38.29 292.62 189.22 286.29 183.94"/>
        <path class="cls-7" d="M358.06,163.89S369.67,63.62,354.9,53.06s-166.77-6.33-166.77-6.33L172.3,9.79S358.06,7.68,391.84,35.12s26,103.09,31,118.57Z"/>
        <polygon class="cls-8" points="273.62 179.02 188.13 173.74 184.96 205.05 229.29 271.55 273.62 277.53 283.12 267.33 273.62 179.02"/>
        <path class="cls-9" d="M181.68,290.2s10.67,6.68,26.5,4.57S286.29,280,286.29,280s6.33-2.11,3.17-5.27-92.89,7.38-92.89,7.38l-16.89-15.83Z"/>
        <path class="cls-10" d="M243,261s27.45-8.09,30.61,16.54c0,0-82.32,21.46-86.55,6.69S185,257.83,185,257.83Z"/>
        <path class="cls-3" d="M238.79,207.16s6.33-5.27,7.39,26.39,5.28,36.94-1.06,38-44.33,10.55-59.1-1.06-7.39-62.27-7.39-62.27Z"/>
        <path class="cls-5" d="M189.18,197.67s60.17-15.84,63.33-5.28-9.5,15.83-25.33,16.89-39.05,3.16-41.16,0S189.18,197.67,189.18,197.67Z"/>
        <path class="cls-10" d="M290.51,182.89l63.33-13.72,6.33,44.33S345.4,261,315.84,266.27,272.57,236.72,290.51,182.89Z"/>
        <path class="cls-6" d="M47.51,192.62s0,25.33,8.92,38,38,30.49,44.09,35.18,3.29,8.45,10.79,17.36,70.37,7,70.37,7S195.75,220.3,192,129.29,192.94,19.05,179.33,12,94,23.28,94,23.28s-4.23,6.09-3.29,9.85,5.16,28.61,5.16,28.61L55.49,121.32s-8.44,2.34-8.44,5.63,1.87,17.82,1.87,17.82Z"/>
        <path class="cls-11" d="M98.65,243.29l-23-14.55,4.76,23.1c8.82,6.35,17.15,11.69,20.1,14a12.4,12.4,0,0,1,4.33,5.71Z"/>
        <ellipse class="cls-12" cx="48.06" cy="293.13" rx="38.25" ry="34.82" transform="translate(-247.18 260.44) rotate(-74.37)"/>
        <ellipse class="cls-13" cx="55.88" cy="295.08" rx="38.25" ry="34.82" transform="translate(-243.35 269.39) rotate(-74.37)"/>
        <path class="cls-14" d="M38.6,149s7-3.76,10.32-4.23c0,0,4.69,1.41,9.85,8.45,0,0,11.26,2.81,15,2.81s8.92-4.22,13.61-4.22,76.93-5.63,73.18,3.75-95.23,23-95.23,23l-23-14.07Z"/>
        <path class="cls-10" d="M51.27,115.69l4.22,5.63s90.07,3.52,104.84,1.41,21.11-7,20.41-24.63-2.81-60.52-2.81-60.52-2.12-14.77-25.34-13.37-66.84,9.86-66.84,9.86l3.51,1.4V78.22Z"/>
        <path class="cls-15" d="M98.65,243.29s-38.47-18.77-39.88-22.52-8-23-15.48-31.9S38.6,149,38.6,149a46.11,46.11,0,0,1,8.91,10.32C51.27,165.41,71,165,71,165s7.51-6.57,14.54-7.51,73.18-3.28,73.18-3.28l-53.94,44.09S77.54,200.6,98.65,243.29Z"/>
        <path class="cls-16" d="M176.52,105.84s0,11.25-22.52,12.67c-3.72.23-9,.3-15.27.28-3.82,0-8-.08-12.4-.17-15.33-.32-33.27-1-47.76-1.64-4.45-.19-8.57-.38-12.2-.55-9.13-.43-15.1-.74-15.1-.74l38-80.22,11.34-1.58,14-1.95L149.78,27s7.33-2.1,14.17,1.19c3.42,1.64,6.72,4.64,8.92,9.93s3.31,13.05,2.24,24.06Z"/>
        <path class="cls-17" d="M172.87,38.15l-34.14,80.64c-3.82,0-8-.08-12.4-.17C136.05,95,154.06,51.3,164,28.22,167.37,29.86,170.67,32.86,172.87,38.15Z"/>
        <path class="cls-18" d="M114.57,31.94l-36,85c-4.45-.19-8.57-.38-12.2-.55,7.94-19.31,23.41-56.88,34.23-82.54Z"/>
        <path class="cls-14" d="M79.41,166.35s3.29,25.8,8.92,29.56,65.67-4.69,69.89-7.51,4.23-33.31.47-34.24S81.76,158.85,79.41,166.35Z"/>
        <path class="cls-10" d="M102.63,162.48l37.3-2.23s-26.74.47-27.21,7.51-.47,22.52,5.63,23.46,24.86-1.88,24.86-1.88-27.21,5.39-40.58,4.1Z"/>
        <ellipse class="cls-19" cx="102.63" cy="177.96" rx="8.21" ry="15.48"/>
        <path class="cls-3" d="M132,193.56s-43.62,0-46.91,13.6,1.88,23,1.88,23l11.73,13.14s-7.51-31-.94-38S132,193.56,132,193.56Z"/>
        <path class="cls-6" d="M19.6,261.35l-9.85-2.82S29.45,218.42,71,230.39Z"/>
        <path class="cls-20" d="M99.82,275.42s-4.22-38-28.85-45-51.37,31-51.37,31,12,4.92,30.26.7S99.82,275.42,99.82,275.42Z"/>
        <ellipse class="cls-15" cx="56.86" cy="294.11" rx="23.57" ry="21.46" transform="translate(-241.69 269.62) rotate(-74.37)"/>
        <path class="cls-19" d="M46.33,170.79c.42,7.37-1.23,13.46-3.69,13.6s-4.79-5.72-5.2-13.09,1.23-13.46,3.69-13.6S45.92,163.42,46.33,170.79Z"/>
        <circle class="cls-21" cx="123.7" cy="220.96" r="11.02" transform="translate(-114.22 307.68) rotate(-80.78)"/>
        <circle class="cls-22" cx="123.7" cy="220.96" r="8.17" transform="translate(-114.22 307.68) rotate(-80.78)"/>
        <polygon class="cls-22" points="48.92 124.6 97.71 128.82 96.77 151.34 50.8 145.71 48.92 124.6"/>
        <path class="cls-6" d="M273.62,179v98.51l92.89-16.89s0-47.85,35.18-49.25l23.92,11.26-2.81-69s-64.74-2.82-69,15.48-9.85,61.92-15.48,74.58-39.41,25.34-46.44,7,0-71.77,0-71.77Z"/>
        <path class="cls-20" d="M366,255s14.54,4.69,19.23-3.28,0-14.07,16.42-18.76,20.17-4.7,20.64,3.28,9.38,3.75,9.38,3.75,1.41-25.8-10.32-30S367.44,207.16,366,255Z"/>
        <ellipse class="cls-13" cx="400.98" cy="267.91" rx="34.29" ry="21.9" transform="translate(80.55 628.32) rotate(-82.11)"/>
        <ellipse class="cls-15" cx="400.98" cy="267.91" rx="19.47" ry="12.43" transform="translate(80.55 628.32) rotate(-82.11)"/>
      </g>
      <path class="cls-10" d="M62.56,262.84,50.74,294.35s-.65,11.82,11.82,6.57l15.1-35.46Z"/>
      <path class="cls-10" d="M390.16,239.2l15.76,23.64s-.66,17.72-7.22,9.85-13.43-21-13.43-21Z"/>
    </g>
  </g>
</svg>
