<svg id="Layer_1" data-name="Layer 1" xmlns="http://www.w3.org/2000/svg" width="357.55" height="238.14" viewBox="0 0 357.55 238.14">
  <defs>
    <style>
      .cls-1 {
        opacity: 0.5;
      }

      .cls-2 {
        fill: #ff0;
      }

      .cls-3 {
        fill: #f9f9f9;
      }

      .cls-4 {
        fill: #892c2c;
      }

      .cls-5 {
        fill: #9e3838;
      }

      .cls-6 {
        fill: #f98282;
      }

      .cls-10, .cls-12, .cls-7, .cls-9 {
        fill: #fff;
      }

      .cls-7 {
        opacity: 0.23;
      }

      .cls-8 {
        fill: #dd4747;
        stroke: #933;
        stroke-miterlimit: 10;
      }

      .cls-9 {
        opacity: 0.42;
      }

      .cls-10 {
        opacity: 0.37;
      }

      .cls-11 {
        opacity: 0.45;
      }

      .cls-13 {
        fill: #420606;
        opacity: 0.25;
      }

      .cls-14 {
        fill: #3785a0;
      }
    </style>
  </defs>
  <g>
    <path class="cls-1" d="M191.94,238.14a61.44,61.44,0,0,1-14.68-1.78c-17.39-4.31-25.57-14.17-34.23-24.62-5.84-7.05-12.32-14.85-23.4-23.14-25.87,26.17-39.27,33.86-51.84,37.24-4.21,1.14-12,3.25-20.52,3.25-10,0-18.44-2.87-25-8.55C6.67,207,8.81,183.2,12.53,171.31c3-9.72,8.89-18.37,17.38-25.74,2.9-2.68,5.75-5.11,8.7-7.43l.37-.29c.84-.65,1.71-1.32,2.62-2A135.37,135.37,0,0,1,55,127.13c.94-.54,2-1.13,3.09-1.7s1.9-1,2.89-1.52a125.1,125.1,0,0,1,12.26-5.36c1.15-.44,2.35-.88,3.62-1.33s2.49-.85,3.88-1.28,2.58-.8,4-1.19,2.82-.78,4.25-1.15c20.16-60,76.66-102.74,137.21-102.74a121.72,121.72,0,0,1,21.49,1.9,29.69,29.69,0,0,1,12.63-2.9,25.38,25.38,0,0,1,8.27,1.35,24.25,24.25,0,0,1,4.14,1.86A28.82,28.82,0,0,1,284.36,25.9c28.25,15.61,51.16,42.64,63.38,75a151.83,151.83,0,0,1-2,112.48,13.14,13.14,0,0,1-12.13,8.09,13.39,13.39,0,0,1-1.9-.14c-5.08.27-10.21.41-15.28.41A285.75,285.75,0,0,1,260,216.11l-3.48-.72a122.65,122.65,0,0,1-31.34,15.77C215.41,234.43,204.31,238.14,191.94,238.14Z"/>
    <path class="cls-2" d="M182.08,228.29a61,61,0,0,1-14.68-1.79c-17.38-4.31-25.56-14.17-34.23-24.62-5.84-7-12.32-14.85-23.4-23.14C83.91,204.91,70.5,212.6,57.94,216c-4.22,1.13-12,3.25-20.53,3.25-10,0-18.44-2.88-25-8.56C-3.19,197.09-1,173.34,2.67,161.45c3.05-9.71,8.9-18.37,17.39-25.73,2.9-2.69,5.74-5.12,8.69-7.44l.37-.28c.84-.66,1.72-1.33,2.62-2a136.09,136.09,0,0,1,13.37-8.72c.93-.55,2-1.13,3.08-1.71s1.9-1,2.89-1.52a126.28,126.28,0,0,1,12.26-5.36c1.15-.43,2.35-.88,3.62-1.32s2.49-.86,3.88-1.29,2.58-.8,4-1.19,2.82-.78,4.26-1.15C99.21,43.76,155.7,1,216.25,1a121.82,121.82,0,0,1,21.5,1.89A29.61,29.61,0,0,1,250.37,0a25.34,25.34,0,0,1,8.27,1.35,24.25,24.25,0,0,1,4.14,1.86A28.88,28.88,0,0,1,274.5,16c28.25,15.61,51.17,42.64,63.38,75a151.78,151.78,0,0,1-2,112.48,13.12,13.12,0,0,1-12.13,8.09,13.5,13.5,0,0,1-1.9-.14c-5.08.27-10.21.41-15.27.41a285,285,0,0,1-56.39-5.63c-1.13-.22-2.28-.46-3.47-.72a122.9,122.9,0,0,1-31.35,15.78C205.55,224.58,194.45,228.29,182.08,228.29Z"/>
    <path class="cls-3" d="M263.33,25.17c0-3.07-2.81-8-7.08-10.48a11.89,11.89,0,0,0-2-.9c-5.17-1.78-11.35.44-14.06,3.07l-.38-.09h0C179.5,3.12,109,44,89.26,115.44c-4,.78-7.63,1.68-11,2.65-1.25.35-2.45.72-3.61,1.09s-2.38.77-3.48,1.16-2.28.83-3.32,1.22a109.69,109.69,0,0,0-11,4.82c-.89.45-1.74.9-2.59,1.36s-1.88,1-2.79,1.56a118.93,118.93,0,0,0-12.14,8c-.91.67-1.78,1.35-2.62,2-3.11,2.46-5.79,4.83-8.06,6.94h0a43.83,43.83,0,0,0-13.6,20c-2.94,9.44-4.28,26.72,5.86,35.58s26.25,4.5,33.44,2.55c9-2.44,21.39-7.89,53.53-41.89h0c38,24.11,36.89,46,62.52,52.4,14.87,3.7,27.64-.57,40.61-4.93a110,110,0,0,0,32.57-17.54c2.94.7,5.93,1.37,9,2a270.75,270.75,0,0,0,69.66,4.93h.06c-.05-.21-.11-.42-.16-.63.46.28,1,.55,1.4.83C353,128.67,319.31,52.82,263.33,25.17Z"/>
    <g>
      <g>
        <path class="cls-4" d="M322.47,198.27h-.06a271.9,271.9,0,0,1-69.66-4.9,272.23,272.23,0,0,1-51.43-15.77,80.2,80.2,0,0,1,25.17-25.33A58.73,58.73,0,0,1,256,143.21C286,142.42,314.57,165,322.47,198.27Z"/>
        <path class="cls-4" d="M322.47,198.27h-.06A158.87,158.87,0,0,0,268.55,185a155.35,155.35,0,0,0-30.49,1.07c-6.12-12.21-10.15-24-11.57-33.82A58.73,58.73,0,0,1,256,143.21C286,142.42,314.57,165,322.47,198.27Z"/>
        <path class="cls-5" d="M133.62,133c-5.75,6.87-14.45,16.93-25.58,28.64-32.13,33.82-44.52,39.24-53.53,41.67-7.19,1.94-23.3,6.28-33.44-2.54s-8.8-26-5.85-35.38c6.55-20.92,31.16-35.44,62-37.64Z"/>
        <path class="cls-6" d="M323.71,198.47c-6-3.58-12.53-7.26-19.41-11-11.77-6.35-24.74-12.8-38.89-19.07a563.73,563.73,0,0,0-58.48-22.16,563.6,563.6,0,0,0-118.7-23.87h0l-.71-.07C104.24,46.69,177.55,2.71,239.92,16.75h0c.76.17,1.5.34,2.25.53a101.1,101.1,0,0,1,11.4,3.56C315.35,43.9,354.77,124,323.71,198.47Z"/>
        <path class="cls-7" d="M239.92,16.75c-15.67.72-75.34,5.94-112.15,53.88a129.17,129.17,0,0,0-22.13,45.13,123.73,123.73,0,0,1-17.41,6.65h0l-.71-.07C104.24,46.69,177.55,2.71,239.92,16.75Z"/>
        <path class="cls-8" d="M265.79,169.24c-7.53,9.8-25.12,29.76-54.62,39.6-13,4.33-25.74,8.58-40.62,4.9-25.62-6.35-24.47-28.14-62.51-52.12-20.13-12.67-34-16.08-38.72-17a97.2,97.2,0,0,0-40.5.88c2.27-2.1,5-4.45,8.06-6.9.84-.64,1.7-1.32,2.61-2a123.8,123.8,0,0,1,12.15-7.94c.91-.53,1.84-1,2.79-1.54s1.7-.91,2.58-1.36A111.2,111.2,0,0,1,68,121c1-.4,2.14-.8,3.32-1.21s2.26-.78,3.48-1.16,2.36-.73,3.61-1.09a131.92,131.92,0,0,1,29.81-5c12.39-.59,29.62,1,81.81,21.49,11.06,4.34,23.48,9.55,37,15.79l1.39.63q4.23,2,8.59,4.07c.45.21.9.42,1.35.65,2.16,1,4.34,2.11,6.57,3.21l1.32.66c2.41,1.21,4.85,2.44,7.32,3.71.43.22.86.45,1.3.65C258.43,165.31,262.09,167.25,265.79,169.24Z"/>
        <path class="cls-6" d="M323.71,198.47a560,560,0,0,0-58.3-30,137.05,137.05,0,0,0-11.82-147.6C315.35,43.9,354.77,124,323.71,198.47Z"/>
        <path class="cls-9" d="M256.29,28.32c0-.92-1.47-.72-1.43.2a6.16,6.16,0,0,0,.35,1.64,15,15,0,0,1,.72,1.65c.19.9,1.62.71,1.43-.2C257.12,30.44,256.34,29.56,256.29,28.32Z"/>
        <path class="cls-9" d="M260.46,36.71c-.2-.41-.37-.83-.53-1.26-.34-.87-1.66-.31-1.33.55.16.43.33.85.53,1.27C259.53,38.1,260.86,37.55,260.46,36.71Z"/>
        <path class="cls-9" d="M263.52,43.09a7.94,7.94,0,0,1-.65-2.18c-.07-.92-1.49-.72-1.43.2A6.46,6.46,0,0,0,262,43c.1.25.18.51.28.76s.29.47.27.68a.72.72,0,0,0,1.43.17A3.44,3.44,0,0,0,263.52,43.09Z"/>
        <path class="cls-9" d="M266.75,50.25a3.28,3.28,0,0,1-.15-.51,2,2,0,0,0-.29-.92A2.24,2.24,0,0,1,266,48c-.14-.43-.5-.61-.48-1.12,0-.92-1.39-1.1-1.43-.17a2.39,2.39,0,0,0,.55,1.74c.23.84.62,1.57.85,2.44a.78.78,0,0,0,.62.62l.21,0C267.11,51.72,267.34,50.62,266.75,50.25Z"/>
        <path class="cls-9" d="M269.88,56.72a9.91,9.91,0,0,0-.66-.9c-.1-.13-.54-.43-.51-.59.17-.91-1.26-1.08-1.43-.17a1.5,1.5,0,0,0,.43,1.25c.36.42.69.83,1,1.28C269.28,58.34,270.43,57.46,269.88,56.72Z"/>
        <path class="cls-9" d="M272,63.54a5.71,5.71,0,0,1-.58-1.19,2.35,2.35,0,0,1-.34-1.25c0-.92-1.45-.72-1.43.2a3.28,3.28,0,0,0,.41,1.57,7,7,0,0,0,.8,1.54C271.51,65.09,272.66,64.22,272,63.54Z"/>
        <path class="cls-9" d="M274,69.49a2,2,0,0,1-.46-1.38c0-.91-1.44-1.1-1.43-.18a4.45,4.45,0,0,0,.14,1.41,2.73,2.73,0,0,0,.25.55c.06.09.43.47.42.57-.08.92,1.35,1.1,1.43.18A1.58,1.58,0,0,0,274,69.49Z"/>
        <path class="cls-9" d="M275.68,75.25c-.19-.9-1.62-.71-1.42.2s.85,1.73.81,2.6,1.38,1.1,1.43.17S275.9,76.27,275.68,75.25Z"/>
        <path class="cls-9" d="M277.65,85.33a10.68,10.68,0,0,1,0-1.79c0-.91-1.43-1.1-1.43-.17a17.2,17.2,0,0,0,0,1.9c.06.62.26,1.21.31,1.84.07.92,1.49.72,1.42-.2C277.89,86.37,277.73,85.86,277.65,85.33Z"/>
        <path class="cls-9" d="M276.85,92.44l0,3c0,.92,1.45.72,1.43-.2l-.06-3.05C278.26,91.31,276.83,91.52,276.85,92.44Z"/>
        <path class="cls-9" d="M278.69,101.21c.42-.45.18-1.38-.57-1.21l-.21,0a.74.74,0,0,0-.61.62c-.16.78,0,1.55-.06,2.33a15.3,15.3,0,0,0-.16,2.14c0,.93,1.43.72,1.42-.2,0-.7.15-1.36.2-2.06S278.65,101.77,278.69,101.21Z"/>
        <path class="cls-9" d="M277.42,110c0,.82-.34,1.67-.41,2.5a5.08,5.08,0,0,1-.12,1,2.41,2.41,0,0,0-.15,1c.06.93,1.49.73,1.42-.19,0-.27.21-.57.25-.84s0-.75.08-1.12a20.81,20.81,0,0,0,.36-2.19C278.84,109.3,277.41,109.11,277.42,110Z"/>
        <path class="cls-9" d="M277.06,118.62c0,.23-.23.57-.26.83-.05.47,0,.93-.09,1.4a13.57,13.57,0,0,0-.33,2.35c0,.93,1.46.72,1.43-.2a10.4,10.4,0,0,1,.25-1.21c0-.39.11-.77.16-1.15a11.72,11.72,0,0,1,0-1.19,3,3,0,0,0,.22-1C278.45,117.49,277,117.69,277.06,118.62Z"/>
        <path class="cls-9" d="M276.07,127.24l-.21,0a.75.75,0,0,0-.61.63c-.14.74-.41,1.46-.61,2.18a5,5,0,0,1-.74,1.77.72.72,0,0,0,1.13.88,5.5,5.5,0,0,0,.93-2.08c.2-.72.43-1.42.61-2.14C277.09,128.1,276.85,127.06,276.07,127.24Z"/>
        <path class="cls-9" d="M273.63,136.86a4.92,4.92,0,0,0-.24.77,1.37,1.37,0,0,0,0,.29,1.65,1.65,0,0,0-.6,1.16,4.21,4.21,0,0,1-.19,1,2,2,0,0,0-.2,1c.07.92,1.5.72,1.43-.2,0-.18.22-.53.27-.73s0-.81.17-1.06.41-.31.5-.67a8.9,8.9,0,0,1,.21-1C275.28,136.54,274,136,273.63,136.86Z"/>
        <path class="cls-9" d="M270.58,145.39a5.75,5.75,0,0,0-.89,1.93,4.18,4.18,0,0,1-.57,1.91c-.6.7.54,1.58,1.14.88a3.69,3.69,0,0,0,.71-1.66,5.21,5.21,0,0,1,.75-2.18C272.24,145.51,271.1,144.62,270.58,145.39Z"/>
        <path class="cls-9" d="M267.89,153.06l-.21,0a.75.75,0,0,0-.62.63c-.18,1.18-1.1,2.26-1,3.47.08.92,1.51.72,1.43-.2,0-.47.39-1.06.55-1.49a10,10,0,0,0,.36-1.18C268.91,153.9,268.67,152.88,267.89,153.06Z"/>
        <path class="cls-9" d="M264.16,161.69a7.26,7.26,0,0,1-.88,2.13c-.6.71.55,1.59,1.14.89a8.7,8.7,0,0,0,1.07-2.48A.72.72,0,0,0,264.16,161.69Z"/>
        <path class="cls-9" d="M264.1,31.91A6.22,6.22,0,0,1,262.65,29c-.19-.9-1.61-.71-1.42.2A7.63,7.63,0,0,0,263,32.78C263.58,33.46,264.73,32.59,264.1,31.91Z"/>
        <path class="cls-9" d="M266.73,37a3.15,3.15,0,0,1-.39-.9c-.11-.22-.54-.61-.53-.85,0-.92-1.39-1.1-1.43-.17a2.15,2.15,0,0,0,.52,1.42c.28.44.31,1,.68,1.37C266.21,38.49,267.36,37.62,266.73,37Z"/>
        <path class="cls-9" d="M269.77,42.62c-.17-.66-.64-1.17-.81-1.81-.22-.89-1.65-.71-1.42.19a13.41,13.41,0,0,0,.73,1.64c.13.33.15.69.27,1s.34.51.33.69c0,.92,1.4,1.11,1.43.18A7.25,7.25,0,0,0,269.77,42.62Z"/>
        <path class="cls-9" d="M274.17,49.94c-.41-1-1.23-1.95-1.28-3.1-.05-.93-1.47-.73-1.43.19.06,1.31.92,2.29,1.38,3.46A.72.72,0,0,0,274.17,49.94Z"/>
        <path class="cls-9" d="M276.27,55.17a2.92,2.92,0,0,0-.19-.49c-.11-.22-.26-.43-.38-.65.2-.47-.07-1.13-.71-1l-.22,0a.75.75,0,0,0-.62.81c.12.72.65,1.24.81,1.94a.75.75,0,0,0,.63.61l.21,0C276.6,56.63,276.83,55.55,276.27,55.17Z"/>
        <path class="cls-9" d="M278.09,61.48a3.61,3.61,0,0,0-.24-.79c-.09-.2-.43-.54-.41-.79.08-.92-1.35-1.1-1.43-.17a2.8,2.8,0,0,0,.51,1.52,4.07,4.07,0,0,1,.24.91,5.63,5.63,0,0,1,.33,1.11c0,.92,1.39,1.1,1.43.17A7.49,7.49,0,0,0,278.09,61.48Z"/>
        <path class="cls-9" d="M280.89,70.66a6,6,0,0,1-.51-2.61c0-.92-1.45-.72-1.42.2a6.9,6.9,0,0,0,.6,3C280,72,281.31,71.49,280.89,70.66Z"/>
        <path class="cls-9" d="M282.24,75.26c.32-.87-1-1.42-1.33-.55a6.22,6.22,0,0,0,0,2.91c.07.93,1.49.73,1.43-.2A4.94,4.94,0,0,1,282.24,75.26Z"/>
        <path class="cls-9" d="M284.11,84.93c-.26-.27-.25-.8-.35-1.15a13.79,13.79,0,0,1-.33-1.55.72.72,0,0,0-1.42.2c.08.68.29,1.31.43,2a2.66,2.66,0,0,0,.52,1.4C283.6,86.47,284.75,85.6,284.11,84.93Z"/>
        <path class="cls-9" d="M285.09,89.58c0-.93-1.46-.73-1.43.19a8.39,8.39,0,0,0,.25,1.5,5.83,5.83,0,0,1,.31,1.36c0,.92,1.39,1.1,1.43.17C285.7,91.71,285.13,90.67,285.09,89.58Z"/>
        <path class="cls-9" d="M283.58,99.43l.05,2.55c0,.92,1.44.71,1.42-.2l0-2.54C285,98.31,283.57,98.52,283.58,99.43Z"/>
        <path class="cls-9" d="M283.48,108.08l0,2.79c0,.93,1.45.72,1.43-.19l0-2.8C284.89,107,283.47,107.16,283.48,108.08Z"/>
        <path class="cls-9" d="M283.66,114.82a6.82,6.82,0,0,0-.28,2.62c0,1.08-.15,2.1-.18,3.17,0,.91,1.41,1.1,1.43.17s.21-1.71.21-2.57a8.2,8.2,0,0,1,.15-2.84C285.3,114.5,284,113.94,283.66,114.82Z"/>
        <path class="cls-9" d="M281.76,125.14a3.56,3.56,0,0,1-.19.58,4.21,4.21,0,0,0,0,.94c0,.71-.21,1.4-.23,2.11,0,.92,1.41,1.11,1.43.18,0-.72.22-1.42.23-2.14a3.43,3.43,0,0,1,.09-1,2.24,2.24,0,0,0,.12-.86C283.13,124,281.7,124.22,281.76,125.14Z"/>
        <path class="cls-9" d="M280.89,133.36c-.13.8-.56,1.53-.75,2.32s-.55,1.49-.7,2.28,1.27,1.08,1.43.17c.29-1.57,1.19-3,1.45-4.6C282.46,132.62,281,132.44,280.89,133.36Z"/>
        <path class="cls-9" d="M278.27,143.57c-.07.48-.15,1-.25,1.44a2.34,2.34,0,0,1-.31,1c-.62.69.52,1.56,1.14.88a3,3,0,0,0,.53-1.39c.12-.59.24-1.18.32-1.77A.72.72,0,0,0,278.27,143.57Z"/>
        <path class="cls-9" d="M275.52,151.66a7.13,7.13,0,0,0-.85,2.1,4.78,4.78,0,0,0-.5,2c.1.92,1.53.72,1.43-.2-.05-.47.33-1,.46-1.5a5.09,5.09,0,0,1,.6-1.54C277.18,151.78,276,150.89,275.52,151.66Z"/>
        <path class="cls-9" d="M272.67,160.13c-.73.24-1,1.06-1.1,1.72a14.87,14.87,0,0,0-.55,2.7c0,.91,1.42,1.1,1.43.17a12.27,12.27,0,0,1,.45-2.15c.05-.24.1-1,.32-1.11C274.1,161.18,273.54,159.85,272.67,160.13Z"/>
        <path class="cls-9" d="M269.45,167.53a3,3,0,0,0-.62,2.07c0,.92,1.43.72,1.42-.2a1.49,1.49,0,0,1,.34-1A.72.72,0,0,0,269.45,167.53Z"/>
        <path class="cls-10" d="M254.84,163.44a96.4,96.4,0,0,1-28.06,25.5c-6.79,4.07-21.64,12.95-39,13.26a47.76,47.76,0,0,1-7-.37c-11-1.34-16.6-5.92-26.78-14.24-4.56-3.73-10.23-8.36-17.77-13.85-24-17.49-46.73-34-74-36.66a82.65,82.65,0,0,0-25.34,1.53c.84-.64,1.7-1.32,2.61-2a83.73,83.73,0,0,1,22.87-1c27.68,2.7,50.53,19.33,74.73,36.93,7.57,5.52,13.26,10.16,17.84,13.9,10.3,8.41,15.48,12.64,26,13.93,19.75,2.43,37.5-8.16,45.06-12.7a94.75,94.75,0,0,0,27.51-24.91C254,163,254.4,163.24,254.84,163.44Z"/>
        <g class="cls-11">
          <path class="cls-12" d="M246.22,159.08a92.88,92.88,0,0,1-30.81,23.49c-7.75,3.64-18,8.42-30,8.64a45.19,45.19,0,0,1-6.31-.31c-12-1.42-18.38-7.09-28-15.67a236.69,236.69,0,0,0-29.46-23.07c-14.3-9.45-26.64-17.61-44.37-21.47a96.14,96.14,0,0,0-25.63-2c.91-.53,1.84-1,2.79-1.54a95,95,0,0,1,23.14,2.15c18,3.91,30.46,12.14,44.87,21.66a238,238,0,0,1,29.62,23.21c9.73,8.7,15.6,13.94,27.19,15.31,14.42,1.7,26.63-4,35.56-8.21a91.73,91.73,0,0,0,30.09-22.84Z"/>
        </g>
        <g class="cls-11">
          <path class="cls-12" d="M238.33,155.21a103.67,103.67,0,0,1-12.88,11.84c-8.6,6.64-18.32,14.17-32.17,15-.52,0-1,0-1.56.05a46.65,46.65,0,0,1-13.44-1.85c-15.24-4.14-24.81-12.49-34.94-21.32-2.87-2.5-5.82-5.08-9-7.62-8.77-7.09-29.29-23.69-54.47-28.77A81.82,81.82,0,0,0,68,121c1-.4,2.14-.8,3.32-1.21a80.88,80.88,0,0,1,8.88,1.31c25.51,5.16,46.24,21.91,55.08,29.06,3.19,2.56,6.14,5.14,9,7.66,10,8.72,19.44,17,34.37,21a44.12,44.12,0,0,0,14.53,1.75c13.41-.76,22.95-8.14,31.37-14.65A100.25,100.25,0,0,0,237,154.56C237.43,154.77,237.88,155,238.33,155.21Z"/>
        </g>
        <path class="cls-10" d="M228.39,150.49c-13.25,14-26.64,21.18-39.93,21.42h0c-15.48.28-26.37-8.78-39-19.27-11-9.13-23.44-19.48-41.85-26.6a117.85,117.85,0,0,0-32.81-7.42c1.16-.37,2.36-.73,3.61-1.09a117.64,117.64,0,0,1,29.71,7.18c18.64,7.19,31.18,17.61,42.27,26.82,12.91,10.73,23.1,19.21,38,18.94h0c12.77-.23,25.71-7.16,38.57-20.61Z"/>
        <path class="cls-13" d="M323.71,198.47c-6-3.58-12.53-7.26-19.41-11,2.32-6.31,30.6-86.37-14.83-139.62a106,106,0,0,0-35.88-27C315.35,43.9,354.77,124,323.71,198.47Z"/>
      </g>
      <path class="cls-14" d="M263.05,26.78c-1.86,3-10.53.17-13.48-.8A43,43,0,0,1,242.21,23c-1.93-1.07-3.38-2.36-3.29-3.79.21-3.3,8.7-7.77,15.46-5.46a11.89,11.89,0,0,1,2,.9C261.56,17.66,264.61,24.29,263.05,26.78Z"/>
      <path class="cls-13" d="M256.37,14.68a15.46,15.46,0,0,0-4-.27c-2.18.12-6.6.38-8.9,3.89a8.28,8.28,0,0,0-1.3,4.73c-1.93-1.07-3.38-2.36-3.29-3.79.21-3.3,8.7-7.77,15.46-5.46A11.89,11.89,0,0,1,256.37,14.68Z"/>
    </g>
  </g>
</svg>
