<svg id="Layer_1" data-name="Layer 1" xmlns="http://www.w3.org/2000/svg" width="325.96" height="333.42" viewBox="0 0 325.96 333.42">
  <defs>
    <style>
      .cls-1 {
        opacity: 0.5;
      }

      .cls-2 {
        fill: #ff0;
      }

      .cls-3, .cls-7 {
        fill: #7c4933;
      }

      .cls-3, .cls-5, .cls-8, .cls-9 {
        stroke: #4f251c;
      }

      .cls-10, .cls-3, .cls-5, .cls-8, .cls-9 {
        stroke-miterlimit: 10;
      }

      .cls-4 {
        fill: #663625;
      }

      .cls-5 {
        fill: #5b3123;
      }

      .cls-6, .cls-8 {
        fill: #8e5542;
      }

      .cls-9 {
        fill: none;
      }

      .cls-10 {
        fill: #e2d3c3;
        stroke: #63584e;
        stroke-width: 0.5px;
      }

      .cls-11 {
        fill: #6d5341;
      }

      .cls-12 {
        fill: #7a5f4c;
      }

      .cls-13 {
        fill: #fff;
      }

      .cls-14 {
        fill: #3a1a14;
      }

      .cls-15 {
        fill: #33100a;
      }

      .cls-16 {
        fill: #32313d;
      }

      .cls-17 {
        fill: #383540;
      }
    </style>
  </defs>
  <g>
    <path class="cls-1" d="M41.06,333.42a16.8,16.8,0,0,1-12.83-6c-3-1.1-6.23-3.52-8.65-8.64a13.9,13.9,0,0,1-2.4-6.81c-.1-1.05-.2-2.56-.31-4.62a12.43,12.43,0,0,1,.1-2.2,29.05,29.05,0,0,1-1.89-16.71,21.73,21.73,0,0,1,11.85-15.25,56.85,56.85,0,0,1,9.48-3.51,17,17,0,0,1-8.23-4.42c-.21-.2-.42-.42-.62-.64C19.64,255.86,16.91,246,19.64,237,12,221.36,7.79,205.35,7.42,190.33c-.38-15.78,3.31-27.76,11-35.59a27,27,0,0,1,18.6-8.5h.45a36.44,36.44,0,0,1,16.31,4.57q.4-5.44,1.07-10l-.33-.52A11.85,11.85,0,0,1,47,129.85l0-.67a11.72,11.72,0,0,1-2.72-5.53,104.38,104.38,0,0,1-1.9-26.4A30.44,30.44,0,0,1,31.8,84.48a11.85,11.85,0,0,1-6.59-11.59,12.09,12.09,0,0,1-1.9-4.32c-1.21-5.4.39-11.1,12.8-28.86.3-.44.61-.88.93-1.3a48,48,0,0,1,18.2-14.65A11.84,11.84,0,0,1,68.77,9.63,11.8,11.8,0,0,1,75.68,7.4a12.15,12.15,0,0,1,2.59.28L110,14.78c26.65.37,42.69,26,47.13,34.18,15,10.68,37.37,32.2,49.79,71,13.85,43.29,14.25,99.54,1.44,143.34l1.3.49a25.64,25.64,0,0,0,5.8,1.35,18.57,18.57,0,0,0,2.12.12,15.63,15.63,0,0,0,7.35-1.73,23.71,23.71,0,0,0,8.46-8.08.71.71,0,0,1,.1-.14c.54-.8,1.1-1.78,1.77-3s1.17-2.27,1.62-3.33l.07-.16a57,57,0,0,0,2.69-7.69,80.52,80.52,0,0,0,2.67-17.53,114.64,114.64,0,0,0-4.74-37.28l-.69-2.28-.76-2.37-.9-2.84c-.22-.67-.44-1.46-.66-2.26l-.3-1a103,103,0,0,1-2.74-13.34,86.54,86.54,0,0,1-.79-14.28,74.54,74.54,0,0,1,2-14.95,67.29,67.29,0,0,1,2.3-7.48l.06-.16a59.71,59.71,0,0,1,3.36-7.31,56,56,0,0,1,4.52-6.94,49.75,49.75,0,0,1,5.9-6.39,42.21,42.21,0,0,1,15.69-9,40.15,40.15,0,0,1,9-1.69l1.91-.12c.2,0,.4,0,.61,0h.41c.61,0,1.23,0,1.84,0l.55,0c.89.08,1.78.2,2.73.37a21.34,21.34,0,0,1,2.75.7l.66.21c.71.24,1.41.51,2.1.8,29.75,10.25,39.49,43.8,38.77,64-.57,15.87-10,21.51-17.95,21.51h0a19.33,19.33,0,0,1-9.16-2.38c-.37-.21-.73-.43-1.07-.67-11.17-7.94-12.78-13.4-14-24.87-.36-3.28-.8-7.35-1.8-12.9-.95-5.25-2.5-7.64-3.48-8.43a27,27,0,0,1-2.78-.16l-.46,0-.08,0a5.56,5.56,0,0,0-2,1.21l-.12.11c-2,1.81-3.71,5-4.63,8.85a34.57,34.57,0,0,0-.89,7A46.36,46.36,0,0,0,268,157a64.21,64.21,0,0,0,1.68,8.17l.27,1c.09.32.17.64.28,1,0,.05.82,2.61.82,2.61l.94,2.91.83,2.77a154,154,0,0,1,6.28,50.15,119.34,119.34,0,0,1-4,26.09,94.74,94.74,0,0,1-4.55,13c-.94,2.21-2,4.38-3,6.19l-.13.25c-1,1.79-2.18,3.87-3.62,6-.48.75-1,1.48-1.53,2.21,0,0-.64.89-.75,1l-.44.56c-.56.74-1.13,1.47-1.74,2.18a61.4,61.4,0,0,1-5.08,5.42,57.23,57.23,0,0,1-5.88,4.88,52.62,52.62,0,0,1-13.9,7.23l-.23.08a54.07,54.07,0,0,1-7.49,1.89,53,53,0,0,1-7.57.76l-1.28,0-1.42,0-.73,0c-.29,0-.57,0-.86,0l-.74-.05c-.75-.05-1.67-.1-2.71-.24a61.09,61.09,0,0,1-13.79-3.23l-3.27-1.24-.78-.3c-6.6,10.55-18.39,17.56-33.24,19.77a59.72,59.72,0,0,1-10.27.88,67.17,67.17,0,0,1-9.3-.66,93,93,0,0,1-22.49-5.52A27.65,27.65,0,0,1,98.46,321c-1,0-2-.05-3-.15-2.45-.26-5.31-.64-8.33-1.05-7.66-1-17.2-2.31-26.06-2.31q-3.62,0-6.71.29l-.16,4.09a11.83,11.83,0,0,1-7.85,10.67A15.89,15.89,0,0,1,41.06,333.42Z"/>
    <path class="cls-2" d="M33.66,326a16.78,16.78,0,0,1-12.83-6c-3-1.09-6.22-3.52-8.65-8.64a13.86,13.86,0,0,1-2.4-6.81c-.1-1-.2-2.55-.3-4.62a11.55,11.55,0,0,1,.09-2.2A29.05,29.05,0,0,1,7.68,281a21.72,21.72,0,0,1,11.86-15.25A56.7,56.7,0,0,1,29,262.28a17,17,0,0,1-8.22-4.41c-.22-.21-.43-.42-.63-.65-7.92-8.76-10.65-18.67-7.92-27.65C4.59,214,.39,198,0,182.93c-.38-15.78,3.3-27.76,11-35.59a27.06,27.06,0,0,1,18.6-8.5H30a36.41,36.41,0,0,1,16.3,4.57c.28-3.63.63-6.95,1.08-10-.12-.18-.23-.35-.33-.53a11.83,11.83,0,0,1-7.45-10.48l0-.67a11.81,11.81,0,0,1-2.72-5.53A103.8,103.8,0,0,1,35,89.85,30.36,30.36,0,0,1,24.41,77.08a11.84,11.84,0,0,1-6.6-11.58,12.21,12.21,0,0,1-1.9-4.33c-1.21-5.4.4-11.1,12.8-28.86.3-.44.62-.88.93-1.3A47.92,47.92,0,0,1,47.85,16.37,11.83,11.83,0,0,1,59.42,2.07a12.93,12.93,0,0,1,1.95.16A11.89,11.89,0,0,1,68.28,0a11.49,11.49,0,0,1,2.59.29l31.76,7.09c26.66.37,42.69,26,47.13,34.19,15,10.68,37.37,32.19,49.79,71,13.86,43.29,14.25,99.54,1.44,143.34l1.3.5a26.17,26.17,0,0,0,5.8,1.34,18.7,18.7,0,0,0,2.12.12,15.63,15.63,0,0,0,7.35-1.73,23.63,23.63,0,0,0,8.46-8.08l.1-.14c.54-.8,1.11-1.78,1.77-3s1.17-2.26,1.62-3.33l.07-.16a56.49,56.49,0,0,0,2.69-7.69,79.92,79.92,0,0,0,2.67-17.53A114.4,114.4,0,0,0,230.2,179l-.69-2.28-.76-2.37-.9-2.84c-.22-.67-.44-1.46-.66-2.25,0,0-.28-1-.3-1.05a102.86,102.86,0,0,1-2.74-13.33,86.71,86.71,0,0,1-.79-14.29,74.54,74.54,0,0,1,2-14.95,67.29,67.29,0,0,1,2.3-7.48l.06-.15a59.2,59.2,0,0,1,3.36-7.32,56,56,0,0,1,4.52-6.94,50.48,50.48,0,0,1,5.9-6.39,42.3,42.3,0,0,1,15.7-9,41.18,41.18,0,0,1,9-1.69l1.9-.12c.2,0,.4,0,.61,0h.41c.61,0,1.23,0,1.84,0l.56,0c.88.07,1.77.19,2.72.36a21.34,21.34,0,0,1,2.75.7l.67.21c.7.25,1.4.51,2.09.8,29.75,10.25,39.49,43.81,38.77,64-.57,15.87-10,21.51-17.95,21.51h0a19.21,19.21,0,0,1-9.16-2.38,11.94,11.94,0,0,1-1.07-.67c-11.16-7.94-12.78-13.4-14-24.87-.35-3.27-.79-7.35-1.8-12.9-.95-5.25-2.5-7.64-3.48-8.43a26.66,26.66,0,0,1-2.77-.15l-.47,0-.08,0a5.56,5.56,0,0,0-2,1.21l-.12.12c-2,1.8-3.71,5-4.62,8.85a35.06,35.06,0,0,0-.9,7,46.3,46.3,0,0,0,.45,7.77,62.27,62.27,0,0,0,1.69,8.17c.09.31.17.63.26,1s.17.65.28,1c0,.05.83,2.61.83,2.61l.93,2.91.83,2.77a154.37,154.37,0,0,1,6.29,50.15,119.94,119.94,0,0,1-4,26.09,96.12,96.12,0,0,1-4.56,12.95c-.94,2.22-2.05,4.38-3,6.19l-.14.25c-1,1.79-2.18,3.88-3.62,6-.48.75-1,1.48-1.53,2.2,0,0-.64.89-.75,1l-.43.56c-.57.74-1.14,1.47-1.75,2.18a61.4,61.4,0,0,1-5.08,5.42,57.23,57.23,0,0,1-5.88,4.88,56.45,56.45,0,0,1-6.65,4.12,55.77,55.77,0,0,1-7.24,3.11l-.24.08a53.72,53.72,0,0,1-7.49,1.89,53,53,0,0,1-7.57.76c-.43,0-.85,0-1.28,0l-1.42,0h-.73l-.85,0-.75,0c-.75-.05-1.67-.1-2.71-.24a61.09,61.09,0,0,1-13.79-3.23L186.91,291l-.79-.31c-6.6,10.55-18.39,17.57-33.24,19.77a59.63,59.63,0,0,1-10.27.88,67.28,67.28,0,0,1-9.3-.66,92.79,92.79,0,0,1-22.48-5.52,27.64,27.64,0,0,1-19.77,8.42,29.93,29.93,0,0,1-3-.15c-2.46-.26-5.31-.64-8.34-1.05-7.66-1-17.2-2.3-26.05-2.3-2.41,0-4.66.09-6.72.28l-.16,4.09A11.85,11.85,0,0,1,39,325.15,16.36,16.36,0,0,1,33.66,326Z"/>
    <g>
      <path class="cls-3" d="M179.92,211.52a87.83,87.83,0,0,0-2.63,10.73,75.38,75.38,0,0,0-1.2,10.63c-.26,7,.86,13.63,3.59,18.43.65,1.21,1.08,2.48,1.67,3.71.16.3.33.6.5.89a6.79,6.79,0,0,0,.54.85l1.25,1.61a28,28,0,0,0,6.44,5.38l1.89,1.11c.66.34,1.35.63,2,1l1,.48c.34.16.71.28,1.06.42l2.12.8a36.85,36.85,0,0,0,8.57,2,28.08,28.08,0,0,0,16.32-2.89,35.26,35.26,0,0,0,12.81-12c.88-1.28,1.66-2.66,2.44-4s1.47-2.85,2.1-4.35a66.65,66.65,0,0,0,3.27-9.32,91.76,91.76,0,0,0,3.09-20.11,127.46,127.46,0,0,0-5.2-41.14l-.75-2.5-.8-2.48-.88-2.78c-.31-.94-.55-1.91-.83-2.86a89.72,89.72,0,0,1-2.43-11.8,74,74,0,0,1-.69-12.32,61.7,61.7,0,0,1,1.65-12.53,53.61,53.61,0,0,1,1.88-6.14,49.64,49.64,0,0,1,2.7-5.89,44.38,44.38,0,0,1,3.55-5.46,37.29,37.29,0,0,1,4.44-4.79,28.85,28.85,0,0,1,17.77-7.74l1.66-.1c.56,0,1.11,0,1.67,0s1.11.12,1.66.22a14.89,14.89,0,0,1,1.62.44,27.41,27.41,0,0,1,10.95,7.14,35.09,35.09,0,0,1,6.7,10.46,56.29,56.29,0,0,1,4,22.76,72.4,72.4,0,0,0-4.27-10.05c-.42-.78-.81-1.56-1.26-2.31l-.66-1.12-.71-1.08c-.45-.72-1-1.39-1.44-2.08-.24-.34-.51-.65-.76-1s-.51-.65-.78-.94l-.8-.91-.84-.85c-.27-.29-.55-.55-.84-.81s-.56-.53-.86-.77a21.17,21.17,0,0,0-3.6-2.47,15,15,0,0,0-7.37-2,14.28,14.28,0,0,1-1.74-.09,8.08,8.08,0,0,1-.86-.11l-.88,0a12.12,12.12,0,0,0-3.5.59,17.55,17.55,0,0,0-6.52,3.81c-4,3.55-6.82,9-8.25,14.93a46.28,46.28,0,0,0-1.22,9.35,59.67,59.67,0,0,0,.55,9.77,74.63,74.63,0,0,0,2,9.79c.24.81.44,1.63.71,2.43l.77,2.45.89,2.75.82,2.76a142.3,142.3,0,0,1,5.8,46.2A107,107,0,0,1,256.21,241a82.63,82.63,0,0,1-4,11.35c-.79,1.85-1.7,3.66-2.64,5.45s-2,3.53-3.13,5.21c-.55.85-1.17,1.67-1.76,2.49s-1.23,1.63-1.89,2.4a50.58,50.58,0,0,1-4.19,4.47,46.63,46.63,0,0,1-4.72,3.91,45.53,45.53,0,0,1-5.21,3.21,44.31,44.31,0,0,1-5.59,2.39,42.7,42.7,0,0,1-5.84,1.48,41.21,41.21,0,0,1-5.94.59c-1,.05-2,0-2.95,0s-2-.1-2.93-.24a49.51,49.51,0,0,1-11.25-2.61l-2.66-1c-.45-.18-.89-.32-1.33-.53l-1.32-.62c-.88-.43-1.77-.82-2.64-1.28l-2.59-1.5a41.84,41.84,0,0,1-9.58-8.08c-.69-.86-1.36-1.74-2-2.63s-1.21-1.88-1.85-2.8a15.11,15.11,0,0,1-.86-1.46c-.28-.5-.54-1-.8-1.51-.13-.25-.26-.51-.37-.77s-.21-.54-.3-.81c-.19-.54-.36-1.09-.52-1.64a41.06,41.06,0,0,1-.91-13.24,51.51,51.51,0,0,1,2.62-12,66.14,66.14,0,0,1,4.7-10.54A61.59,61.59,0,0,1,179.92,211.52Z"/>
      <path class="cls-3" d="M268.64,112.78s13.69-2.91,17.54,18.36,0,22.39,11,30.23c0,0,9,5,9.49-9.24s-6.2-47.73-36.19-53.81"/>
    </g>
    <g>
      <path class="cls-4" d="M67.33,118.32s-10.91-4.62-9.78,54.31-27.48,52-27.48,52S15,233.88,28.94,249.29c0,0,5.27,5,4.14-3.86,0,0,7.91,12.72,7.53-.77s40.27-31.58,40.27-31.58l3-79.35Z"/>
      <path class="cls-3" d="M68.48,205.76s-8.85-53.93-38.9-55.08c0,0-18.49,0-17.72,32s21.57,68.18,50.85,89.75l22.72,11.17L98.91,269.7Z"/>
      <path class="cls-3" d="M34,170.51s17.33,17.34,32.93,80.9"/>
      <path class="cls-3" d="M128.19,42.82s41.6,15.6,60.09,73.38,10.4,131.74-12.13,168.14S44.41,291.85,61.74,190.16c0,0,8.75-35,4.63-80.31S128.19,42.82,128.19,42.82Z"/>
      <path class="cls-5" d="M118.68,129s28,15.77,12.48,89.87S79.23,263.3,79.23,263.3,62.37,245.64,68.1,220.41s9.44-56.13,4.39-76.31S111.26,117,118.68,129Z"/>
      <g>
        <path class="cls-6" d="M107,289.22s35.19,21.57,60.86,2.31c11.32-8.49,16-19.77,17.81-29.74a62.2,62.2,0,0,0-.35-23.16C177.11,188.55,162,181.88,162,181.88L127,226.56l-1.2,3.77Z"/>
        <path class="cls-7" d="M107,289.22s35.19,21.57,60.86,2.31c11.32-8.49,16-19.77,17.81-29.74-13.18,28.71-19.35-3.64-19.35-3.64,5.78-35.83-1.54-47.38-1.54-47.38l-38.95,19.56Z"/>
        <path class="cls-8" d="M83.89,279.46l-19.65-9a17,17,0,0,0-9.55-1.35c-7.86,1.17-22.84,3.75-29.86,7.26-9.76,4.88-4.88,17.46-2.18,20.67s34-8.09,34-8.09l24.65,5.91Z"/>
        <g>
          <g>
            <path class="cls-6" d="M164.27,208.33s3.21,11.3-4.11,31.71l-1.54-6.16s-5.14,25.69-32.25,44.83c-.67.47-1.34.93-2,1.39l.77-4.62s-6.16,9.24-19.65,17.33c0,0-5,10-16.17,8.86s-32.75-5.39-48.92-2.31l-5,5L35,314s-5.39,1.93-7.32-6.55c0,0-3.08,5.39-5.77-3.85,0,0-.2,3.47-.58-4.24l1.35-2.31s0-8.47,23.49-16.18c0,0,9.63-1.92,33.52,6.94,0,0,6.16-12.72,11.55-51.62s45.07-50.85,45.07-50.85"/>
            <path class="cls-9" d="M164.27,208.33s3.21,11.3-4.11,31.71l-1.54-6.16s-5.14,25.69-32.25,44.83c-.67.47-1.34.93-2,1.39l.77-4.62s-6.16,9.24-19.65,17.33c0,0-5,10-16.17,8.86s-32.75-5.39-48.92-2.31l-5,5L35,314s-5.39,1.93-7.32-6.55c0,0-3.08,5.39-5.77-3.85,0,0-.2,3.47-.58-4.24l1.35-2.31s0-8.47,23.49-16.18c0,0,9.63-1.92,33.52,6.94,0,0,6.16-12.72,11.55-51.62s45.07-50.85,45.07-50.85"/>
          </g>
          <g>
            <path class="cls-6" d="M28.42,309.25S26.37,306.17,31,299,44.6,288.45,44.6,288.45"/>
            <path class="cls-9" d="M28.42,309.25S26.37,306.17,31,299,44.6,288.45,44.6,288.45"/>
          </g>
          <g>
            <path class="cls-6" d="M21.88,303.6s1.92-9.25,16.56-18.49"/>
            <path class="cls-9" d="M21.88,303.6s1.92-9.25,16.56-18.49"/>
          </g>
        </g>
        <path class="cls-8" d="M21.11,293.58s-7.71-10.4,23.68-16.94"/>
      </g>
      <g>
        <g>
          <path class="cls-6" d="M128.19,109.27c15.6,31.2,11.55,57.2,11.55,57.2C76.76,206.34,60,220.78,60,220.78a35.1,35.1,0,0,0-5.76,5.16c-.65.73-1.3,1.52-1.94,2.38-3.43,4.63-6.18,11.09-3.6,18.53,5.2,15,7.45,8.47,7.45,8.47,5.42,4.74,8,4.41,9.18,3a5.65,5.65,0,0,0,1.09-3.29c12.33,1.55,10.79-5.39,10.79-5.39-12.39-3-17.62-12.14-13.25-12.36,9.39-.48,8.88-3.82,8.88-3.82,6.16-7.18,3.62-5.62,7.47-6.86,35.25-11.32,67-30.39,67.51-30.69l-4.62,11,14.45-12.72-5.2,8.67s30.62-8.67,30.62-34.09c0-14-5.79-39.62-11-59.78C167.86,92.59,164,79.8,164,79.8"/>
          <path class="cls-9" d="M128.19,109.27c15.6,31.2,11.55,57.2,11.55,57.2C76.76,206.34,60,220.78,60,220.78a35.1,35.1,0,0,0-5.76,5.16c-.65.73-1.3,1.52-1.94,2.38-3.43,4.63-6.18,11.09-3.6,18.53,5.2,15,7.45,8.47,7.45,8.47,5.42,4.74,8,4.41,9.18,3a5.65,5.65,0,0,0,1.09-3.29c12.33,1.55,10.79-5.39,10.79-5.39-12.39-3-17.62-12.14-13.25-12.36,9.39-.48,8.88-3.82,8.88-3.82,6.16-7.18,3.62-5.62,7.47-6.86,35.25-11.32,67-30.39,67.51-30.69l-4.62,11,14.45-12.72-5.2,8.67s30.62-8.67,30.62-34.09c0-14-5.79-39.62-11-59.78C167.86,92.59,164,79.8,164,79.8"/>
        </g>
        <path class="cls-8" d="M67.84,255.32s-10,.13-9.88-14.12"/>
        <path class="cls-8" d="M58.21,256.61s-8.73-4.37-7.19-17"/>
      </g>
      <g>
        <path class="cls-10" d="M141.78,104.22l-8-6.18c-1.17,20.36-8,24.49-8,24.49l-7.39,14.17,1.19-9.16-8.27,8.27,3-5.9c-16.52-1.48-18-4.42-18-4.42L85.7,131.76l-.88.52,8.55,3.53-15.05-.29,10,3.25-11.8-.29c-22.43-3-23.32-23.62-23.32-23.62l-1.76,7.07-.6-13.56L48.51,114c-3.54-18-.89-30.11-.89-30.11l-4.72-3c-14-8.87-8.06-25-7.69-25.93l-5.6,11.47,5.61-18L27.56,58.77S25.49,57.59,38.48,39c.2-.31.43-.62.65-.91,13.18-17.63,38.3-15.91,38.3-15.91L77,22,59.43,13.91,83.93,18l-15.64-6.2,33.05,7.38c24.12-.58,38.52,28.88,38.95,29.8l-8.54-3.82,6.49,13.27-5.9-3.24a25.84,25.84,0,0,1-6.79,16.83L139.41,88l-6.77-1.76Z"/>
        <g>
          <path class="cls-11" d="M81.42,48.15s5.16-7.82,17.71-8,19,11.51,17.56,23-9.59,13.58-9.59,13.58-2.81,4.28-.15,7.53c0,0,5-.15,6.94,3.54l4.57,5-4.28-3.1,2.07,9.59-2.36-6.2s-1.77,17.71-18,19.19c0,0-16.53,2.8-24.79-6.64l-3,5.16,1.62-8.26-5,1.92,4.58-4.43,3.1-11.37S74.19,84.9,69.61,84,51.75,82.83,51.9,66.6,61.35,44,75.37,47.41l-5.76-7.08L77.29,47l-.15-12.55,1.62,12.4,4.43-9.45-2.36,8.86C83.34,43.72,81.42,48.15,81.42,48.15Z"/>
          <path class="cls-12" d="M108.67,55.53c1.38,4.75-2.4,10-8.44,11.79s-10.66,5.54-12,.79,1-16.25,7-18S107.29,50.77,108.67,55.53Z"/>
          <path class="cls-12" d="M82.06,71c0,4.71-6.62,2.7-13,2.7s-11.57-3.82-11.57-8.53S62.65,56.62,69,56.62,82.06,66.27,82.06,71Z"/>
          <g>
            <g>
              <circle class="cls-13" cx="69.32" cy="64.83" r="7.08"/>
              <path class="cls-14" d="M69,71.88a7,7,0,0,0,5-1.92,6.93,6.93,0,0,0,2.09-4.87,6.83,6.83,0,0,0-1.93-4.81,6.86,6.86,0,0,0-9.46-.37,6.84,6.84,0,0,0-.59,9.67A7.06,7.06,0,0,0,69,71.88Zm0,.05a7.11,7.11,0,1,1,5.11-1.88A7.19,7.19,0,0,1,69,71.93Z"/>
            </g>
            <circle class="cls-15" cx="69.13" cy="65.5" r="4"/>
            <circle class="cls-13" cx="67.04" cy="62.81" r="1.16"/>
          </g>
          <g>
            <g>
              <circle class="cls-13" cx="97.06" cy="58.41" r="7.08"/>
              <path class="cls-14" d="M96.79,65.46a7,7,0,0,0,5-1.92,6.85,6.85,0,0,0,.17-9.68,6.86,6.86,0,0,0-9.46-.37,6.85,6.85,0,0,0-.6,9.67A7.11,7.11,0,0,0,96.79,65.46Zm0,.05a7.12,7.12,0,1,1,5.11-1.88A7.15,7.15,0,0,1,96.78,65.51Z"/>
            </g>
            <circle class="cls-15" cx="97.37" cy="58.78" r="4"/>
            <circle class="cls-13" cx="94.78" cy="56.39" r="1.16"/>
          </g>
          <path class="cls-15" d="M95,77.86s-2.76-1.38-3.25,3.25S95,77.86,95,77.86Z"/>
          <path class="cls-15" d="M82,79.8s1.18-1.87,3,2.4S82,79.8,82,79.8Z"/>
          <path class="cls-16" d="M105,87.25s-1.28,11-10.79,14.64S76.83,93.8,76.83,93.8,96.41,92.61,105,87.25Z"/>
          <path class="cls-16" d="M80.49,94.82a6,6,0,0,0,1.54.76,10.42,10.42,0,0,0,1.73.43,13.37,13.37,0,0,0,1.79.15c.6,0,1.21,0,1.81,0-.6.08-1.2.15-1.8.18a14,14,0,0,1-1.83,0,10.39,10.39,0,0,1-1.81-.31,6.29,6.29,0,0,1-1.73-.72Z"/>
          <path class="cls-17" d="M105.67,86.62S90.52,93.8,76.55,93.21C76.55,93.21,88.45,97.93,105.67,86.62Z"/>
          <path class="cls-13" d="M103.28,89.05S91.6,94.57,79,94.31c0,0,4.37,4.11,17.08.19,5.42-1.67,6.93-4.56,6.93-4.56"/>
          <path class="cls-13" d="M99.69,97.52s-5.78,5-13,3.59Z"/>
        </g>
      </g>
      <path class="cls-7" d="M79.77,226.08c35.26-11.32,67-30.39,67.51-30.68l-4.61,11,14.44-12.71-5.2,8.67s30.63-8.67,30.63-34.1c0-14-5.8-39.62-11-59.78,3.45,23.4,7.21,57.73,1.56,69l-6.93,8.86.77-11.17-13.87,14.25.38-11.56L88,219.08l-10,3.08.39-4.62S75.92,227.32,79.77,226.08Z"/>
      <path class="cls-8" d="M94.1,221.75s-10,5.2-13.67,11l1.34-6.54-8.86,4.23,1.74-7.51-14.83,1.73,8.09-5.2-18.3-1.34s8.86.19,23.88-7.71"/>
    </g>
  </g>
</svg>
