<svg id="Layer_1" data-name="Layer 1" xmlns="http://www.w3.org/2000/svg" width="376.25" height="207.36" viewBox="0 0 376.25 207.36">
  <defs>
    <style>
      .cls-1 {
        opacity: 0.5;
      }

      .cls-2 {
        fill: #ff0;
      }

      .cls-3 {
        fill: #7a8886;
      }

      .cls-4 {
        fill: #becfd2;
      }

      .cls-5 {
        fill: #b4bbb6;
      }

      .cls-6 {
        fill: #cadbde;
      }

      .cls-7 {
        fill: #9b9b95;
      }

      .cls-8 {
        fill: #f59b18;
      }

      .cls-9 {
        fill: #e77d0e;
      }

      .cls-10 {
        fill: #5eb52c;
      }

      .cls-11 {
        fill: #5f991e;
      }

      .cls-12 {
        fill: #fbe5ba;
      }

      .cls-13 {
        fill: #f4d29a;
      }

      .cls-14 {
        fill: #f5ba18;
      }

      .cls-15 {
        fill: #f5cf18;
      }
    </style>
  </defs>
  <g>
    <path class="cls-1" d="M193.22,207.36C98,207.36,22,176.42,11.48,133.59a44.78,44.78,0,0,1-3.65-17.52c0-14.52,7.25-35.78,41.78-54.66C72.14,49.09,102,40.18,136.21,35.49c.43-1,.85-1.94,1.22-2.83,3.3-7.87,10.54-12.2,16.93-16,1.72-1,3.34-2,4.76-3,1.12-.75,2-1.31,2.87-1.78A19.74,19.74,0,0,1,172.34,9.1l1.23,0,1,0A25.17,25.17,0,0,0,180,8.42a27.64,27.64,0,0,1,5.73-.59c16.94,0,34.89,14.67,40.73,22.52.83,1.12,1.57,2.18,2.22,3.21,35.52,3.26,67.43,11,92.66,22.47,28.85,13.13,46.55,30.26,51.29,49.59a44.71,44.71,0,0,1,3.65,17.52c0,24.52-20.46,46.62-57.61,62.24C284.93,199.56,240.39,207.36,193.22,207.36Z"/>
    <path class="cls-2" d="M185.39,199.53c-95.21,0-171.18-30.94-181.74-73.77A44.74,44.74,0,0,1,0,108.24C0,93.73,7.25,72.46,41.78,53.58c22.53-12.32,52.36-21.23,86.6-25.92.43-1,.85-1.94,1.22-2.83,3.3-7.87,10.54-12.2,16.93-16,1.72-1,3.34-2,4.76-3,1.12-.75,2-1.31,2.87-1.78a19.83,19.83,0,0,1,10.35-2.79l1.24,0,.95,0a25.17,25.17,0,0,0,5.44-.72A27.64,27.64,0,0,1,177.87,0c16.94,0,34.89,14.67,40.73,22.52.83,1.12,1.57,2.18,2.22,3.21,35.52,3.26,67.43,11,92.66,22.47C342.33,61.33,360,78.46,364.77,97.79a44.74,44.74,0,0,1,3.65,17.52c0,24.52-20.46,46.62-57.61,62.24C277.1,191.73,232.56,199.53,185.39,199.53Z"/>
    <ellipse class="cls-3" cx="185.39" cy="115.31" rx="170.5" ry="71.69"/>
    <ellipse class="cls-4" cx="183.03" cy="108.24" rx="170.5" ry="71.69"/>
    <g>
      <ellipse class="cls-5" cx="185.39" cy="107.53" rx="126.17" ry="52.12"/>
      <ellipse class="cls-6" cx="184.68" cy="109.65" rx="116.5" ry="48.11"/>
    </g>
    <g>
      <path class="cls-7" d="M94.12,91.26S66.77,95.5,66.3,117.67s31.6,28.77,45.75,28.3,13.2,18.39,49.52,18.39,45.28-7.07,51.88-17.92,2.83-10.38,2.83-10.38,24.3,10.83,52.24-13S94.12,91.26,94.12,91.26Z"/>
      <g>
        <g>
          <g>
            <path class="cls-8" d="M164.35,110.47c-2.43,3.63-3.61,8.34-7.22,12.77a24.79,24.79,0,0,1-6.94,5.81c-9.72,5.65-35,9.36-48.65-3s-11.48-10.63-14.15-21.23,0-23.54,0-23.54,3.73-7.59,6-13.07,10.62-9,17.15-13.45c.73-.48,1.37-.88,1.91-1.18,4.45-2.52,4.33,0,14.55-2.18,11.49-2.47,28.65,10.26,33.78,17.16s3.37,8.13,6.73,15.39S167.87,105.18,164.35,110.47Z"/>
            <path class="cls-9" d="M158.72,121.71a24.54,24.54,0,0,1-6.93,5.62c-9.73,5.46-35,9-48.65-2.91S91.65,114.16,89,103.91s0-22.73,0-22.73,3.73-7.34,6-12.63,10.62-8.72,17.16-13c.72-.46,1.36-.85,1.9-1.14-2.48,2.67-25,27.83-10.92,55C115.89,134,149.42,124.83,158.72,121.71Z"/>
          </g>
          <g>
            <g>
              <path class="cls-10" d="M135.56,56.49c0,1.38-2.08,2.52-4.67,2.52-2.34,0-4.27-.92-4.63-2.12a1.29,1.29,0,0,1-.06-.4c0-1.39,3-1.91,5.53-1.91,2.13,0,3.35.36,3.69,1.27A1.31,1.31,0,0,1,135.56,56.49Z"/>
              <path class="cls-11" d="M135.56,56.49c0,1.38-2.08,2.52-4.67,2.52-2.34,0-4.27-.92-4.63-2.12a8.25,8.25,0,0,0,6.72.64c1.52-.48,2.22-1.08,2.44-1.68A1.31,1.31,0,0,1,135.56,56.49Z"/>
            </g>
            <g>
              <path class="cls-10" d="M131.62,62.76c0,1.4-1.94,2.56-4.35,2.56-2.19,0-4-.94-4.32-2.15a1.77,1.77,0,0,1,0-.41c0-1.4,2.74-1.92,5.15-1.92,2,0,3.12.36,3.44,1.27A1.51,1.51,0,0,1,131.62,62.76Z"/>
              <path class="cls-11" d="M131.62,62.76c0,1.4-1.94,2.56-4.35,2.56-2.19,0-4-.94-4.32-2.15a7.16,7.16,0,0,0,6.26.65c1.42-.49,2.07-1.1,2.28-1.71A1.51,1.51,0,0,1,131.62,62.76Z"/>
            </g>
            <g>
              <path class="cls-10" d="M122.15,57.22c.06.9-1.13,1.73-2.68,1.84s-2.6-.41-2.87-1.18a1.1,1.1,0,0,1-.06-.26c-.06-.9,1.68-1.36,3.23-1.48,1.27-.09,2,.1,2.26.67A.86.86,0,0,1,122.15,57.22Z"/>
              <path class="cls-11" d="M122.15,57.22c.06.9-1.13,1.73-2.68,1.84s-2.6-.41-2.87-1.18a4.62,4.62,0,0,0,4.05.13c.89-.38,1.28-.8,1.38-1.2A.86.86,0,0,1,122.15,57.22Z"/>
            </g>
            <g>
              <g>
                <path class="cls-12" d="M105.33,74.93c-2.46-.16-3.79-1.34-3.79-2.43a1.57,1.57,0,0,1,.89-1.34c1.9-1.12,1.78-1.78,2.42-3.37a3.92,3.92,0,0,1,2.43-2.06,5.67,5.67,0,0,1,4.71,2,.07.07,0,0,0,0,0,7.21,7.21,0,0,1,1.34,2.39C113.87,71.86,108.92,75.17,105.33,74.93Z"/>
                <path class="cls-13" d="M105.33,74.93c-2.46-.16-3.79-1.34-3.79-2.43a5.93,5.93,0,0,0,5.2,1.25c4.55-.7,5.61-3.37,5.61-3.37a3.45,3.45,0,0,0-.34-2.61,7.21,7.21,0,0,1,1.34,2.39C113.87,71.86,108.92,75.17,105.33,74.93Z"/>
              </g>
              <g>
                <path class="cls-12" d="M121.19,65.43a.34.34,0,0,1,0,.14c-.1,1-1.4,1.74-3,1.74s-2.68-.68-2.92-1.56a1.75,1.75,0,0,1,0-.32c0-1,1.32-1.89,3-1.89S121.19,64.39,121.19,65.43Z"/>
                <path class="cls-13" d="M118.82,66.31a5.86,5.86,0,0,0,2.35-.74c-.1,1-1.4,1.74-3,1.74s-2.68-.68-2.92-1.56A4.71,4.71,0,0,0,118.82,66.31Z"/>
                <path class="cls-13" d="M121.69,64.59l-.14-.4A1,1,0,0,1,121.69,64.59Z"/>
              </g>
              <g>
                <path class="cls-12" d="M103.56,66.31a.34.34,0,0,1,0,.14c-.1,1-1.4,1.75-3,1.75s-2.68-.68-2.92-1.57a1.75,1.75,0,0,1,0-.32c0-1,1.32-1.88,3-1.88S103.56,65.27,103.56,66.31Z"/>
                <path class="cls-13" d="M101.2,67.19a5.85,5.85,0,0,0,2.34-.74c-.1,1-1.4,1.75-3,1.75s-2.68-.68-2.92-1.57A4.68,4.68,0,0,0,101.2,67.19Z"/>
                <path class="cls-13" d="M104.06,65.47l-.14-.4A1,1,0,0,1,104.06,65.47Z"/>
              </g>
              <g>
                <path class="cls-12" d="M114.79,60.1a2.08,2.08,0,0,1-.5,1.62c-2,2.77-3.48.24-3.48.24-3.53.4-5.2-.42-5.72-.94a.25.25,0,0,1,0-.32c.28-.52,1.93-1.17,1.93-1.17h.24C111.31,57.69,114.55,58.37,114.79,60.1Z"/>
                <path class="cls-13" d="M114.79,60.1a2.08,2.08,0,0,1-.5,1.62c-2,2.77-3.48.24-3.48.24-3.53.4-5.2-.42-5.72-.94a.25.25,0,0,1,0-.32,12.22,12.22,0,0,0,3.45.32c2.91-.12,3.13.58,3.13.58S113.45,62.94,114.79,60.1Z"/>
              </g>
            </g>
            <g>
              <g>
                <path class="cls-12" d="M145.19,64.34c2.39-.65,3.45-2.07,3.24-3.13a1.55,1.55,0,0,0-1.13-1.14c-2.09-.73-2.1-1.4-3-2.82a3.93,3.93,0,0,0-2.79-1.55,5.66,5.66,0,0,0-4.22,2.89.2.2,0,0,1,0,0,7.15,7.15,0,0,0-.85,2.6C136.22,63,141.72,65.28,145.19,64.34Z"/>
                <path class="cls-13" d="M145.19,64.34c2.39-.65,3.45-2.07,3.24-3.13a6,6,0,0,1-4.85,2.24c-4.6.21-6.16-2.19-6.16-2.19a3.45,3.45,0,0,1-.18-2.62,7.15,7.15,0,0,0-.85,2.6C136.22,63,141.72,65.28,145.19,64.34Z"/>
              </g>
              <g>
                <path class="cls-12" d="M133.84,65.84a.34.34,0,0,0,0,.14c.1,1,1.4,1.74,3,1.74s2.69-.68,2.93-1.56a1.75,1.75,0,0,0,0-.32c0-1-1.32-1.88-3-1.88S133.84,64.8,133.84,65.84Z"/>
                <path class="cls-13" d="M136.2,66.72a5.85,5.85,0,0,1-2.34-.74c.1,1,1.4,1.74,3,1.74s2.69-.68,2.93-1.56A4.72,4.72,0,0,1,136.2,66.72Z"/>
                <path class="cls-13" d="M133.34,65l.14-.4A1,1,0,0,0,133.34,65Z"/>
              </g>
              <g>
                <path class="cls-12" d="M150.34,65.66a.34.34,0,0,0,0,.14c.1,1,1.41,1.75,3,1.75s2.69-.68,2.93-1.57a1.75,1.75,0,0,0,0-.32c0-1-1.32-1.88-3-1.88S150.34,64.62,150.34,65.66Z"/>
                <path class="cls-13" d="M152.71,66.55a5.94,5.94,0,0,1-2.35-.75c.1,1,1.41,1.75,3,1.75s2.69-.68,2.93-1.57A4.68,4.68,0,0,1,152.71,66.55Z"/>
                <path class="cls-13" d="M149.84,64.82l.14-.4A1,1,0,0,0,149.84,64.82Z"/>
              </g>
              <g>
                <path class="cls-12" d="M142.41,69.71a2.08,2.08,0,0,0,.5,1.62c2,2.77,3.49.24,3.49.24,3.53.4,5.19-.42,5.71-.94a.25.25,0,0,0,0-.32c-.28-.52-1.92-1.17-1.92-1.17H150C145.9,67.3,142.65,68,142.41,69.71Z"/>
                <path class="cls-13" d="M142.41,69.71a2.08,2.08,0,0,0,.5,1.62c2,2.77,3.49.24,3.49.24,3.53.4,5.19-.42,5.71-.94a.25.25,0,0,0,0-.32,12.14,12.14,0,0,1-3.44.32c-2.91-.12-3.13.58-3.13.58S143.76,72.55,142.41,69.71Z"/>
              </g>
            </g>
          </g>
        </g>
        <g>
          <g>
            <path class="cls-8" d="M281.08,106.23c-2.42,3.62-3.61,8.33-7.21,12.76a25,25,0,0,1-6.94,5.82c-9.72,5.65-35,9.36-48.65-3s-11.49-10.62-14.15-21.23,0-23.53,0-23.53,3.73-7.6,6-13.07,10.63-9,17.16-13.45c.72-.48,1.36-.88,1.9-1.18,4.45-2.53,4.33,0,14.56-2.19,11.48-2.46,28.64,10.26,33.77,17.16s3.37,8.14,6.74,15.4S284.61,100.93,281.08,106.23Z"/>
            <path class="cls-9" d="M275.46,117.47a24.76,24.76,0,0,1-6.94,5.61c-9.72,5.47-35,9-48.65-2.9s-11.48-10.27-14.15-20.51,0-22.74,0-22.74,3.73-7.34,6-12.63,10.63-8.71,17.16-13c.72-.47,1.36-.86,1.91-1.15-2.49,2.68-25,27.84-10.93,55C232.62,129.77,266.16,120.59,275.46,117.47Z"/>
          </g>
          <g>
            <g>
              <path class="cls-10" d="M252.3,52.24c0,1.39-2.09,2.53-4.67,2.53-2.35,0-4.27-.92-4.63-2.13a1.29,1.29,0,0,1-.06-.4c0-1.38,2.94-1.9,5.53-1.9,2.12,0,3.35.36,3.69,1.26A1.31,1.31,0,0,1,252.3,52.24Z"/>
              <path class="cls-11" d="M252.3,52.24c0,1.39-2.09,2.53-4.67,2.53-2.35,0-4.27-.92-4.63-2.13a8.18,8.18,0,0,0,6.71.65c1.52-.49,2.23-1.09,2.45-1.69A1.31,1.31,0,0,1,252.3,52.24Z"/>
            </g>
            <g>
              <path class="cls-10" d="M248.35,58.52c0,1.4-1.94,2.55-4.35,2.55-2.18,0-4-.93-4.31-2.15a1.29,1.29,0,0,1-.06-.4c0-1.4,2.75-1.93,5.16-1.93,2,0,3.12.37,3.43,1.28A1.33,1.33,0,0,1,248.35,58.52Z"/>
              <path class="cls-11" d="M248.35,58.52c0,1.4-1.94,2.55-4.35,2.55-2.18,0-4-.93-4.31-2.15a7.16,7.16,0,0,0,6.26.65c1.41-.49,2.07-1.09,2.27-1.7A1.33,1.33,0,0,1,248.35,58.52Z"/>
            </g>
            <g>
              <path class="cls-10" d="M238.88,53c.07.9-1.13,1.74-2.68,1.85-1.4.1-2.6-.42-2.87-1.19a.66.66,0,0,1-.05-.25c-.07-.9,1.67-1.37,3.22-1.48,1.27-.09,2,.09,2.27.66A.93.93,0,0,1,238.88,53Z"/>
              <path class="cls-11" d="M238.88,53c.07.9-1.13,1.74-2.68,1.85-1.4.1-2.6-.42-2.87-1.19a4.58,4.58,0,0,0,4,.13c.89-.38,1.29-.8,1.39-1.2A.93.93,0,0,1,238.88,53Z"/>
            </g>
            <g>
              <g>
                <path class="cls-12" d="M222.07,70.68c-2.47-.16-3.79-1.34-3.79-2.42a1.55,1.55,0,0,1,.88-1.34c1.91-1.13,1.79-1.79,2.43-3.37A3.91,3.91,0,0,1,224,61.48a5.66,5.66,0,0,1,4.71,2,.07.07,0,0,0,0,0,7.13,7.13,0,0,1,1.35,2.38C230.61,67.62,225.66,70.93,222.07,70.68Z"/>
                <path class="cls-13" d="M222.07,70.68c-2.47-.16-3.79-1.34-3.79-2.42a5.94,5.94,0,0,0,5.19,1.24c4.55-.7,5.61-3.37,5.61-3.37a3.43,3.43,0,0,0-.34-2.6,7.13,7.13,0,0,1,1.35,2.38C230.61,67.62,225.66,70.93,222.07,70.68Z"/>
              </g>
              <g>
                <path class="cls-12" d="M237.92,61.18a.34.34,0,0,1,0,.14c-.1,1-1.4,1.75-3,1.75s-2.69-.68-2.93-1.57a1.75,1.75,0,0,1,0-.32c0-1,1.32-1.88,3-1.88S237.92,60.14,237.92,61.18Z"/>
                <path class="cls-13" d="M235.56,62.07a6,6,0,0,0,2.34-.75c-.1,1-1.4,1.75-3,1.75s-2.69-.68-2.93-1.57A4.72,4.72,0,0,0,235.56,62.07Z"/>
                <path class="cls-13" d="M238.43,60.34l-.15-.4A1,1,0,0,1,238.43,60.34Z"/>
              </g>
              <g>
                <path class="cls-12" d="M220.3,62.07a.34.34,0,0,1,0,.14c-.1,1-1.41,1.74-3,1.74s-2.69-.68-2.93-1.56a1.75,1.75,0,0,1,0-.32c0-1,1.33-1.89,3-1.89S220.3,61,220.3,62.07Z"/>
                <path class="cls-13" d="M217.93,63a6,6,0,0,0,2.35-.74c-.1,1-1.41,1.74-3,1.74s-2.69-.68-2.93-1.56A4.74,4.74,0,0,0,217.93,63Z"/>
                <path class="cls-13" d="M220.8,61.23l-.14-.41A1.06,1.06,0,0,1,220.8,61.23Z"/>
              </g>
              <g>
                <path class="cls-12" d="M231.53,55.85a2.08,2.08,0,0,1-.5,1.62c-2,2.77-3.49.25-3.49.25-3.53.4-5.19-.43-5.71-.95a.25.25,0,0,1,0-.32c.28-.52,1.92-1.16,1.92-1.16H224C228,53.45,231.29,54.13,231.53,55.85Z"/>
                <path class="cls-13" d="M231.53,55.85a2.08,2.08,0,0,1-.5,1.62c-2,2.77-3.49.25-3.49.25-3.53.4-5.19-.43-5.71-.95a.25.25,0,0,1,0-.32,12.18,12.18,0,0,0,3.45.32c2.9-.12,3.12.58,3.12.58S230.19,58.7,231.53,55.85Z"/>
              </g>
            </g>
            <g>
              <g>
                <path class="cls-12" d="M261.93,60.09c2.38-.64,3.45-2.06,3.23-3.12A1.57,1.57,0,0,0,264,55.82c-2.08-.72-2.1-1.39-3-2.82a3.88,3.88,0,0,0-2.78-1.54A5.67,5.67,0,0,0,254,54.35s0,0,0,0a7,7,0,0,0-.84,2.61C253,58.77,258.46,61,261.93,60.09Z"/>
                <path class="cls-13" d="M261.93,60.09c2.38-.64,3.45-2.06,3.23-3.12a5.94,5.94,0,0,1-4.84,2.24c-4.6.21-6.17-2.2-6.17-2.2a3.43,3.43,0,0,1-.18-2.62,7,7,0,0,0-.84,2.61C253,58.77,258.46,61,261.93,60.09Z"/>
              </g>
              <g>
                <path class="cls-12" d="M250.57,61.6a.34.34,0,0,0,0,.14c.1,1,1.4,1.74,3,1.74s2.68-.68,2.92-1.56a1.75,1.75,0,0,0,0-.32c0-1.05-1.32-1.89-3-1.89S250.57,60.55,250.57,61.6Z"/>
                <path class="cls-13" d="M252.94,62.48a5.86,5.86,0,0,1-2.35-.74c.1,1,1.4,1.74,3,1.74s2.68-.68,2.92-1.56A4.71,4.71,0,0,1,252.94,62.48Z"/>
                <path class="cls-13" d="M250.07,60.75l.14-.4A1,1,0,0,0,250.07,60.75Z"/>
              </g>
              <g>
                <path class="cls-12" d="M267.08,61.42a.34.34,0,0,0,0,.14c.1,1,1.4,1.74,3,1.74s2.68-.68,2.92-1.56a1.75,1.75,0,0,0,0-.32c0-1-1.32-1.89-3-1.89S267.08,60.38,267.08,61.42Z"/>
                <path class="cls-13" d="M269.44,62.3a5.85,5.85,0,0,1-2.34-.74c.1,1,1.4,1.74,3,1.74s2.68-.68,2.92-1.56A4.72,4.72,0,0,1,269.44,62.3Z"/>
                <path class="cls-13" d="M266.58,60.58l.14-.4A1,1,0,0,0,266.58,60.58Z"/>
              </g>
              <g>
                <path class="cls-12" d="M259.15,65.46a2.08,2.08,0,0,0,.5,1.62c2,2.77,3.49.25,3.49.25,3.52.4,5.19-.43,5.71-1a.25.25,0,0,0,0-.32c-.28-.52-1.92-1.16-1.92-1.16h-.25C262.64,63.06,259.39,63.74,259.15,65.46Z"/>
                <path class="cls-13" d="M259.15,65.46a2.08,2.08,0,0,0,.5,1.62c2,2.77,3.49.25,3.49.25,3.52.4,5.19-.43,5.71-1a.25.25,0,0,0,0-.32,12.18,12.18,0,0,1-3.45.32c-2.9-.12-3.13.58-3.13.58S260.49,68.31,259.15,65.46Z"/>
              </g>
            </g>
          </g>
        </g>
        <g>
          <g>
            <path class="cls-14" d="M212.1,71.91c-2.42,3.63-3.61,8.34-7.21,12.77A24.77,24.77,0,0,1,198,90.49c-9.72,5.66-35,9.37-48.65-3s-11.49-10.63-14.15-21.23,0-23.53,0-23.53,3.73-7.6,6-13.07,10.63-9,17.16-13.45c.72-.49,1.36-.89,1.9-1.19,4.45-2.52,4.33,0,14.56-2.18C186.26,10.37,203.42,23.1,208.55,30s3.37,8.14,6.74,15.39S215.63,66.62,212.1,71.91Z"/>
            <path class="cls-8" d="M206.48,83.16a24.76,24.76,0,0,1-6.94,5.61c-9.72,5.46-35,9-48.65-2.9S139.41,75.6,136.74,65.36s0-22.74,0-22.74,3.73-7.34,6-12.63,10.63-8.72,17.16-13c.72-.46,1.37-.85,1.91-1.14-2.49,2.67-25,27.83-10.93,55C163.64,95.45,197.18,86.27,206.48,83.16Z"/>
          </g>
          <g>
            <g>
              <path class="cls-10" d="M183.32,17.93c0,1.38-2.09,2.53-4.67,2.53-2.35,0-4.27-.93-4.63-2.13a1.29,1.29,0,0,1-.06-.4c0-1.38,2.94-1.9,5.53-1.9,2.12,0,3.35.36,3.69,1.26A1.31,1.31,0,0,1,183.32,17.93Z"/>
              <path class="cls-11" d="M183.32,17.93c0,1.38-2.09,2.53-4.67,2.53-2.35,0-4.27-.93-4.63-2.13a8.23,8.23,0,0,0,6.71.64c1.52-.48,2.23-1.08,2.45-1.68A1.31,1.31,0,0,1,183.32,17.93Z"/>
            </g>
            <g>
              <path class="cls-10" d="M179.37,24.2c0,1.4-1.94,2.56-4.35,2.56-2.18,0-4-.93-4.31-2.15a1.31,1.31,0,0,1-.06-.41c0-1.4,2.75-1.92,5.16-1.92,2,0,3.12.36,3.43,1.27A1.38,1.38,0,0,1,179.37,24.2Z"/>
              <path class="cls-11" d="M179.37,24.2c0,1.4-1.94,2.56-4.35,2.56-2.18,0-4-.93-4.31-2.15a7.16,7.16,0,0,0,6.26.65c1.42-.49,2.07-1.1,2.27-1.71A1.38,1.38,0,0,1,179.37,24.2Z"/>
            </g>
            <g>
              <path class="cls-10" d="M169.9,18.66c.07.9-1.13,1.73-2.68,1.84-1.4.11-2.6-.41-2.87-1.18a.71.71,0,0,1,0-.26c-.07-.9,1.67-1.36,3.22-1.47,1.27-.09,2,.09,2.27.66A.86.86,0,0,1,169.9,18.66Z"/>
              <path class="cls-11" d="M169.9,18.66c.07.9-1.13,1.73-2.68,1.84-1.4.11-2.6-.41-2.87-1.18a4.58,4.58,0,0,0,4.05.13c.89-.38,1.29-.8,1.39-1.2A.86.86,0,0,1,169.9,18.66Z"/>
            </g>
            <g>
              <g>
                <path class="cls-12" d="M153.09,36.37c-2.47-.16-3.79-1.34-3.79-2.42a1.57,1.57,0,0,1,.88-1.35c1.91-1.12,1.79-1.78,2.43-3.36A3.91,3.91,0,0,1,155,27.17a5.64,5.64,0,0,1,4.71,2,.07.07,0,0,0,0,0,7,7,0,0,1,1.35,2.38C161.63,33.3,156.68,36.61,153.09,36.37Z"/>
                <path class="cls-13" d="M153.09,36.37c-2.47-.16-3.79-1.34-3.79-2.42a5.94,5.94,0,0,0,5.19,1.24c4.55-.7,5.61-3.37,5.61-3.37a3.37,3.37,0,0,0-.34-2.6,7,7,0,0,1,1.35,2.38C161.63,33.3,156.68,36.61,153.09,36.37Z"/>
              </g>
              <g>
                <path class="cls-12" d="M168.94,26.87a.34.34,0,0,1,0,.14c-.1,1-1.4,1.74-3,1.74s-2.69-.68-2.93-1.56a1.75,1.75,0,0,1,0-.32c0-1,1.32-1.88,3-1.88S168.94,25.83,168.94,26.87Z"/>
                <path class="cls-13" d="M166.58,27.75a5.85,5.85,0,0,0,2.34-.74c-.1,1-1.4,1.74-3,1.74s-2.69-.68-2.93-1.56A4.72,4.72,0,0,0,166.58,27.75Z"/>
                <path class="cls-13" d="M169.45,26l-.14-.4A1,1,0,0,1,169.45,26Z"/>
              </g>
              <g>
                <path class="cls-12" d="M151.32,27.75a.34.34,0,0,1,0,.14c-.1,1-1.41,1.75-3,1.75s-2.69-.68-2.93-1.56a1.86,1.86,0,0,1,0-.33c0-1,1.33-1.88,3-1.88S151.32,26.71,151.32,27.75Z"/>
                <path class="cls-13" d="M149,28.64a5.73,5.73,0,0,0,2.35-.75c-.1,1-1.41,1.75-3,1.75s-2.69-.68-2.93-1.56A4.74,4.74,0,0,0,149,28.64Z"/>
                <path class="cls-13" d="M151.82,26.91l-.14-.4A1,1,0,0,1,151.82,26.91Z"/>
              </g>
              <g>
                <path class="cls-12" d="M162.55,21.54a2.08,2.08,0,0,1-.5,1.62c-2,2.77-3.49.24-3.49.24-3.53.4-5.19-.42-5.71-.94a.25.25,0,0,1,0-.32c.28-.52,1.92-1.16,1.92-1.16H155C159.06,19.13,162.31,19.81,162.55,21.54Z"/>
                <path class="cls-13" d="M162.55,21.54a2.08,2.08,0,0,1-.5,1.62c-2,2.77-3.49.24-3.49.24-3.53.4-5.19-.42-5.71-.94a.25.25,0,0,1,0-.32,12.18,12.18,0,0,0,3.45.32c2.9-.12,3.12.58,3.12.58S161.21,24.38,162.55,21.54Z"/>
              </g>
            </g>
            <g>
              <g>
                <path class="cls-12" d="M193,25.78c2.38-.64,3.45-2.07,3.23-3.13a1.54,1.54,0,0,0-1.13-1.14c-2.08-.72-2.1-1.4-3-2.82a3.91,3.91,0,0,0-2.78-1.55A5.68,5.68,0,0,0,185,20s0,0,0,0a6.92,6.92,0,0,0-.84,2.6C184,24.46,189.48,26.72,193,25.78Z"/>
                <path class="cls-13" d="M193,25.78c2.38-.64,3.45-2.07,3.23-3.13a5.91,5.91,0,0,1-4.84,2.25c-4.6.21-6.17-2.2-6.17-2.2a3.43,3.43,0,0,1-.18-2.62,6.92,6.92,0,0,0-.84,2.6C184,24.46,189.48,26.72,193,25.78Z"/>
              </g>
              <g>
                <path class="cls-12" d="M181.59,27.28a.34.34,0,0,0,0,.14c.1,1,1.4,1.75,3,1.75s2.68-.68,2.93-1.57a1.75,1.75,0,0,0,0-.32c0-1-1.33-1.88-3-1.88S181.59,26.24,181.59,27.28Z"/>
                <path class="cls-13" d="M184,28.16a5.86,5.86,0,0,1-2.35-.74c.1,1,1.4,1.75,3,1.75s2.68-.68,2.93-1.57A4.7,4.7,0,0,1,184,28.16Z"/>
                <path class="cls-13" d="M181.09,26.44l.14-.4A1,1,0,0,0,181.09,26.44Z"/>
              </g>
              <g>
                <path class="cls-12" d="M198.1,27.11a.34.34,0,0,0,0,.14c.1,1,1.4,1.74,3,1.74s2.68-.68,2.92-1.56a1.75,1.75,0,0,0,0-.32c0-1.05-1.32-1.89-3-1.89S198.1,26.06,198.1,27.11Z"/>
                <path class="cls-13" d="M200.47,28a5.86,5.86,0,0,1-2.35-.74c.1,1,1.4,1.74,3,1.74s2.68-.68,2.92-1.56A4.71,4.71,0,0,1,200.47,28Z"/>
                <path class="cls-13" d="M197.6,26.26l.14-.4A1,1,0,0,0,197.6,26.26Z"/>
              </g>
              <g>
                <path class="cls-12" d="M190.17,31.15a2.08,2.08,0,0,0,.5,1.62c2,2.77,3.49.24,3.49.24,3.52.4,5.19-.42,5.71-.94a.25.25,0,0,0,0-.32c-.28-.52-1.92-1.16-1.92-1.16h-.25C193.66,28.74,190.41,29.42,190.17,31.15Z"/>
                <path class="cls-13" d="M190.17,31.15a2.08,2.08,0,0,0,.5,1.62c2,2.77,3.49.24,3.49.24,3.52.4,5.19-.42,5.71-.94a.25.25,0,0,0,0-.32,12.18,12.18,0,0,1-3.45.32c-2.9-.12-3.13.58-3.13.58S191.51,34,190.17,31.15Z"/>
              </g>
            </g>
          </g>
        </g>
        <g>
          <g>
            <path class="cls-14" d="M219.53,139.12c-2.42,3.63-3.61,8.34-7.22,12.77a24.75,24.75,0,0,1-6.93,5.82c-9.72,5.65-35,9.36-48.65-3s-11.49-10.63-14.15-21.23,0-23.53,0-23.53,3.72-7.6,6-13.07,10.62-9,17.16-13.45c.72-.48,1.36-.88,1.9-1.19,4.45-2.52,4.33,0,14.56-2.18,11.48-2.47,28.64,10.26,33.77,17.16s3.37,8.14,6.74,15.39S223.06,133.83,219.53,139.12Z"/>
            <path class="cls-8" d="M213.91,150.37A24.76,24.76,0,0,1,207,156c-9.72,5.46-35,9.05-48.65-2.9s-11.49-10.27-14.15-20.51,0-22.74,0-22.74,3.73-7.34,6-12.63,10.63-8.71,17.16-13c.72-.46,1.36-.85,1.9-1.14-2.48,2.67-25,27.83-10.92,55C171.07,162.66,204.61,153.48,213.91,150.37Z"/>
          </g>
          <g>
            <g>
              <path class="cls-10" d="M190.75,85.14c0,1.38-2.09,2.53-4.68,2.53-2.34,0-4.26-.93-4.63-2.13a1.29,1.29,0,0,1-.06-.4c0-1.38,3-1.9,5.54-1.9,2.12,0,3.34.36,3.69,1.26A1.31,1.31,0,0,1,190.75,85.14Z"/>
              <path class="cls-11" d="M190.75,85.14c0,1.38-2.09,2.53-4.68,2.53-2.34,0-4.26-.93-4.63-2.13a8.22,8.22,0,0,0,6.72.64c1.52-.48,2.22-1.08,2.45-1.68A1.31,1.31,0,0,1,190.75,85.14Z"/>
            </g>
            <g>
              <path class="cls-10" d="M186.8,91.41c0,1.4-1.94,2.56-4.35,2.56-2.18,0-4-.93-4.31-2.15a1.31,1.31,0,0,1-.06-.41c0-1.39,2.75-1.92,5.16-1.92,2,0,3.12.36,3.43,1.28A1.31,1.31,0,0,1,186.8,91.41Z"/>
              <path class="cls-11" d="M186.8,91.41c0,1.4-1.94,2.56-4.35,2.56-2.18,0-4-.93-4.31-2.15a7.14,7.14,0,0,0,6.25.65c1.42-.49,2.08-1.1,2.28-1.7A1.31,1.31,0,0,1,186.8,91.41Z"/>
            </g>
            <g>
              <path class="cls-10" d="M177.33,85.87c.07.9-1.13,1.73-2.68,1.85s-2.6-.42-2.87-1.19a.91.91,0,0,1-.06-.26c-.06-.9,1.68-1.36,3.23-1.47,1.27-.09,2,.09,2.27.66A.89.89,0,0,1,177.33,85.87Z"/>
              <path class="cls-11" d="M177.33,85.87c.07.9-1.13,1.73-2.68,1.85s-2.6-.42-2.87-1.19a4.58,4.58,0,0,0,4.05.13c.89-.38,1.28-.8,1.39-1.2A.89.89,0,0,1,177.33,85.87Z"/>
            </g>
            <g>
              <g>
                <path class="cls-12" d="M160.52,103.58c-2.47-.16-3.79-1.34-3.79-2.42a1.57,1.57,0,0,1,.88-1.35c1.9-1.12,1.78-1.78,2.43-3.36a3.91,3.91,0,0,1,2.42-2.07,5.64,5.64,0,0,1,4.71,2,.07.07,0,0,0,0,0,7.31,7.31,0,0,1,1.35,2.38C169.06,100.52,164.11,103.82,160.52,103.58Z"/>
                <path class="cls-13" d="M160.52,103.58c-2.47-.16-3.79-1.34-3.79-2.42a5.93,5.93,0,0,0,5.19,1.24c4.55-.7,5.61-3.37,5.61-3.37a3.43,3.43,0,0,0-.34-2.6,7.31,7.31,0,0,1,1.35,2.38C169.06,100.52,164.11,103.82,160.52,103.58Z"/>
              </g>
              <g>
                <path class="cls-12" d="M176.37,94.08a.34.34,0,0,1,0,.14c-.1,1-1.4,1.75-3,1.75s-2.69-.69-2.93-1.57a1.75,1.75,0,0,1,0-.32c0-1,1.32-1.88,3-1.88S176.37,93,176.37,94.08Z"/>
                <path class="cls-13" d="M174,95a5.85,5.85,0,0,0,2.34-.74c-.1,1-1.4,1.75-3,1.75s-2.69-.69-2.93-1.57A4.72,4.72,0,0,0,174,95Z"/>
                <path class="cls-13" d="M176.87,93.24l-.14-.4A1,1,0,0,1,176.87,93.24Z"/>
              </g>
              <g>
                <path class="cls-12" d="M158.74,95a.34.34,0,0,1,0,.14c-.1,1-1.4,1.74-3,1.74s-2.69-.68-2.93-1.56a1.75,1.75,0,0,1,0-.32c0-1,1.32-1.89,3-1.89S158.74,93.92,158.74,95Z"/>
                <path class="cls-13" d="M156.38,95.85a5.85,5.85,0,0,0,2.34-.74c-.1,1-1.4,1.74-3,1.74s-2.69-.68-2.93-1.56A4.74,4.74,0,0,0,156.38,95.85Z"/>
                <path class="cls-13" d="M159.25,94.12l-.14-.4A1,1,0,0,1,159.25,94.12Z"/>
              </g>
              <g>
                <path class="cls-12" d="M170,88.75a2.08,2.08,0,0,1-.5,1.62c-2,2.77-3.49.24-3.49.24-3.53.4-5.19-.42-5.71-.94a.25.25,0,0,1,0-.32c.28-.52,1.92-1.16,1.92-1.16h.24C166.49,86.34,169.74,87,170,88.75Z"/>
                <path class="cls-13" d="M170,88.75a2.08,2.08,0,0,1-.5,1.62c-2,2.77-3.49.24-3.49.24-3.53.4-5.19-.42-5.71-.94a.25.25,0,0,1,0-.32,12.14,12.14,0,0,0,3.44.32c2.91-.12,3.13.58,3.13.58S168.64,91.6,170,88.75Z"/>
              </g>
            </g>
            <g>
              <g>
                <path class="cls-12" d="M200.38,93c2.38-.64,3.45-2.06,3.23-3.13a1.56,1.56,0,0,0-1.13-1.14c-2.09-.72-2.1-1.4-3-2.82a3.91,3.91,0,0,0-2.78-1.55,5.66,5.66,0,0,0-4.23,2.9s0,0,0,0a6.92,6.92,0,0,0-.84,2.6C191.4,91.67,196.91,93.93,200.38,93Z"/>
                <path class="cls-13" d="M200.38,93c2.38-.64,3.45-2.06,3.23-3.13a5.91,5.91,0,0,1-4.84,2.25c-4.6.21-6.17-2.2-6.17-2.2a3.43,3.43,0,0,1-.18-2.62,6.92,6.92,0,0,0-.84,2.6C191.4,91.67,196.91,93.93,200.38,93Z"/>
              </g>
              <g>
                <path class="cls-12" d="M189,94.49a.34.34,0,0,0,0,.14c.1,1,1.4,1.75,3,1.75s2.68-.68,2.92-1.57a1.75,1.75,0,0,0,0-.32c0-1-1.32-1.88-3-1.88S189,93.45,189,94.49Z"/>
                <path class="cls-13" d="M191.39,95.38a5.82,5.82,0,0,1-2.35-.75c.1,1,1.4,1.75,3,1.75s2.68-.68,2.92-1.57A4.65,4.65,0,0,1,191.39,95.38Z"/>
                <path class="cls-13" d="M188.52,93.65l.14-.4A1,1,0,0,0,188.52,93.65Z"/>
              </g>
              <g>
                <path class="cls-12" d="M205.53,94.32a.34.34,0,0,0,0,.14c.1,1,1.4,1.74,3,1.74s2.68-.68,2.92-1.56a1.75,1.75,0,0,0,0-.32c0-1-1.32-1.89-3-1.89S205.53,93.27,205.53,94.32Z"/>
                <path class="cls-13" d="M207.89,95.2a5.85,5.85,0,0,1-2.34-.74c.1,1,1.4,1.74,3,1.74s2.68-.68,2.92-1.56A4.72,4.72,0,0,1,207.89,95.2Z"/>
                <path class="cls-13" d="M205,93.48l.14-.41A1,1,0,0,0,205,93.48Z"/>
              </g>
              <g>
                <path class="cls-12" d="M197.6,98.36a2.08,2.08,0,0,0,.5,1.62c2,2.77,3.49.24,3.49.24,3.52.4,5.19-.42,5.71-.94a.25.25,0,0,0,0-.32c-.28-.52-1.93-1.16-1.93-1.16h-.24C201.08,96,197.84,96.64,197.6,98.36Z"/>
                <path class="cls-13" d="M197.6,98.36a2.08,2.08,0,0,0,.5,1.62c2,2.77,3.49.24,3.49.24,3.52.4,5.19-.42,5.71-.94a.25.25,0,0,0,0-.32,12.22,12.22,0,0,1-3.45.32c-2.91-.12-3.13.58-3.13.58S198.94,101.21,197.6,98.36Z"/>
              </g>
            </g>
          </g>
        </g>
        <path class="cls-15" d="M198.48,41.85s7.43,10.61,4.24,19.81S198.48,41.85,198.48,41.85Z"/>
        <path class="cls-15" d="M210.15,107.29s7.43,10.62,4.25,19.81S210.15,107.29,210.15,107.29Z"/>
      </g>
    </g>
  </g>
</svg>
