<svg xmlns="http://www.w3.org/2000/svg" xmlns:xlink="http://www.w3.org/1999/xlink" width="438.36" height="164.72" viewBox="0 0 438.36 164.72">
  <defs>
    <style>
      .cls-1 {
        fill: none;
      }

      .cls-2 {
        isolation: isolate;
      }

      .cls-3 {
        opacity: 0.5;
      }

      .cls-4 {
        fill: #ff0;
      }

      .cls-10, .cls-5 {
        opacity: 0.17;
      }

      .cls-10, .cls-13, .cls-18, .cls-22, .cls-24, .cls-32, .cls-41, .cls-5 {
        mix-blend-mode: overlay;
      }

      .cls-6 {
        fill: #a7a4a4;
      }

      .cls-7 {
        fill: #ccc9c9;
      }

      .cls-8 {
        fill: #a29c87;
      }

      .cls-9 {
        fill: #8d8787;
      }

      .cls-11 {
        fill: #ebc057;
      }

      .cls-12 {
        fill: #efc962;
      }

      .cls-13, .cls-38 {
        opacity: 0.76;
      }

      .cls-14 {
        opacity: 0.58;
      }

      .cls-14, .cls-28, .cls-38 {
        mix-blend-mode: soft-light;
      }

      .cls-15 {
        fill: #fff;
      }

      .cls-16 {
        fill: #dda72d;
      }

      .cls-17 {
        opacity: 0.63;
      }

      .cls-18 {
        opacity: 0.33;
      }

      .cls-19 {
        fill: #e1932a;
      }

      .cls-20 {
        fill: #9aa859;
      }

      .cls-21 {
        opacity: 0.72;
      }

      .cls-22 {
        opacity: 0.3;
      }

      .cls-23 {
        fill: #a4a7d3;
      }

      .cls-24, .cls-32 {
        opacity: 0.09;
      }

      .cls-25 {
        fill: #e27f3b;
      }

      .cls-26 {
        fill: #93928e;
      }

      .cls-27 {
        fill: #5b5aa7;
      }

      .cls-28 {
        opacity: 0.6;
      }

      .cls-29 {
        clip-path: url(#clip-path);
      }

      .cls-30 {
        fill: #93be48;
      }

      .cls-31 {
        fill: #bacd4e;
      }

      .cls-33 {
        fill: #d4f998;
      }

      .cls-34 {
        fill: #868583;
      }

      .cls-35 {
        fill: #b1632c;
      }

      .cls-36 {
        fill: #eb7c2d;
      }

      .cls-37 {
        fill: #f68f4d;
      }

      .cls-39 {
        fill: #d96327;
      }

      .cls-40 {
        fill: #e5e5e4;
      }

      .cls-41 {
        opacity: 0.78;
      }
    </style>
    <clipPath id="clip-path">
      <path class="cls-1" d="M70.13,65.71a13.08,13.08,0,0,0,9.65,5.71c6.5.51,7.84-.77,11.54-.78S96,68.87,97,69.19s5.44,2.34,8,1.52,3.27-2.51,7.63-2.34,13.46-1.86,12.67-4.59S99,53.27,99,53.27l-26.4.59Z"/>
    </clipPath>
  </defs>
  <g class="cls-2">
    <g id="Layer_1" data-name="Layer 1">
      <g>
        <path class="cls-3" d="M223.21,164.72a779.3,779.3,0,0,1-79.36-3.91A494.88,494.88,0,0,1,78.28,150c-19.75-4.82-35.5-10.57-46.81-17.1-15.53-9-23.41-19.87-23.41-32.42,0-11,6-20.65,17.86-28.9,5.11-20.52,42-28,76.69-28,4,0,8,.1,11.91.31q3.9-.6,7.93-1.16a27.53,27.53,0,0,1,4.78-8.47C144.94,13.54,178.63,8.06,194,8.06c1.78,0,3.49.07,5.06.2,4.29.36,7.72,2.58,10.25,6.58l1.94,3.06A111.08,111.08,0,0,1,229.62,13l.57-.11a105.32,105.32,0,0,1,13.17-1.43c1.72-.08,3.44-.12,5.14-.12,22.75,0,42.88,6.77,64.19,13.93l4.13,1.39c13.52,4.47,19.92,8.92,23,12.71,2,0,4-.07,5.95-.07,37.37,0,77.3,8.66,77.3,33q0,.55,0,1.14c10.19,7.84,15.34,16.91,15.34,27.05,0,12.55-7.87,23.46-23.41,32.42-11.31,6.53-27.06,12.28-46.81,17.1a494.88,494.88,0,0,1-65.57,10.81A779,779,0,0,1,223.21,164.72Z"/>
        <path class="cls-4" d="M215.15,156.66a776.07,776.07,0,0,1-79.36-3.92,495,495,0,0,1-65.57-10.8c-19.75-4.82-35.5-10.58-46.81-17.1C7.87,115.87,0,105,0,92.42c0-11,6-20.65,17.85-28.9,5.12-20.52,42-28,76.7-28,4,0,8,.11,11.9.32,2.6-.4,5.25-.79,7.93-1.16a27.78,27.78,0,0,1,4.79-8.47C136.87,5.48,170.57,0,185.91,0c1.79,0,3.49.07,5.06.19,4.3.37,7.73,2.58,10.25,6.59l1.95,3.05A112,112,0,0,1,221.56,5l.57-.12a109,109,0,0,1,13.16-1.43c1.72-.08,3.44-.12,5.15-.12,22.75,0,42.88,6.77,64.19,13.94l4.13,1.38c13.51,4.48,19.92,8.93,23,12.72,2,0,4-.08,6-.08,37.37,0,77.3,8.66,77.3,33,0,.38,0,.76,0,1.14,10.19,7.84,15.35,16.92,15.35,27.06,0,12.55-7.88,23.45-23.41,32.42-11.32,6.52-27.06,12.28-46.81,17.1a493.34,493.34,0,0,1-65.57,10.8A776.36,776.36,0,0,1,215.15,156.66Z"/>
        <g>
          <path class="cls-5" d="M405.51,91.66c0,24.46-85.3,44.3-190.54,44.3a753.79,753.79,0,0,1-80.77-4.16c80-2.75,221.92-10,238.14-35,8.16-12.55-17.86-29.19-35-39.13C379,65.83,405.51,78,405.51,91.66Z"/>
          <g>
            <ellipse class="cls-6" cx="215.15" cy="92.42" rx="199.91" ry="48.79"/>
            <path class="cls-7" d="M215.15,143.75a764.64,764.64,0,0,1-78-3.84c-23.9-2.47-45.38-6-63.83-10.51s-33.17-9.82-43.43-15.74c-11.24-6.49-17-13.64-17-21.24s5.71-14.75,17-21.24C40.11,65.26,54.72,60,73.28,55.44s39.93-8,63.83-10.51a764.57,764.57,0,0,1,78-3.85,764.37,764.37,0,0,1,78,3.85A480.34,480.34,0,0,1,357,55.44c18.56,4.53,33.17,9.82,43.42,15.74,11.25,6.49,17,13.64,17,21.24s-5.71,14.75-17,21.24c-10.25,5.92-24.86,11.21-43.42,15.74a480.34,480.34,0,0,1-63.84,10.51A764.44,764.44,0,0,1,215.15,143.75Zm0-97.57c-53.23,0-103.25,5-140.85,14.22C56.14,64.84,41.93,70,32,75.68c-9.46,5.46-14.47,11.25-14.47,16.74s5,11.28,14.47,16.74c9.89,5.7,24.1,10.84,42.26,15.27,37.6,9.18,87.62,14.23,140.85,14.23s103.25-5,140.85-14.23c18.15-4.43,32.37-9.57,42.26-15.27,9.46-5.46,14.46-11.25,14.46-16.74s-5-11.28-14.46-16.74C388.37,70,374.15,64.84,356,60.4,318.4,51.23,268.38,46.18,215.15,46.18Z"/>
            <path class="cls-8" d="M411.55,91.66c0,24.46-87.88,44.3-196.31,44.3A799.82,799.82,0,0,1,132,131.8c-66.82-7.08-113.1-22.38-113.1-40.14,0-24.47,87.89-44.31,196.31-44.31,48,0,92,3.89,126.09,10.35C384.27,65.83,411.55,78,411.55,91.66Z"/>
            <path class="cls-9" d="M411.56,91.66a9.87,9.87,0,0,1-.43,2.94c-6.72-23.1-91.85-41.36-195.88-41.36S26.07,71.5,19.38,94.6a9.89,9.89,0,0,1-.44-2.94c0-24.47,87.88-44.31,196.31-44.31S411.56,67.19,411.56,91.66Z"/>
            <g class="cls-10">
              <path d="M81.43,109c-1.09-.21-2.17-.45-3.26-.71s-2.16-.52-3.24-.8c-2.15-.57-4.3-1.2-6.43-1.9-1.07-.35-2.13-.71-3.19-1.1l-1.58-.59-1.58-.64c-1-.43-2.09-.89-3.12-1.39s-2.06-1-3.07-1.63a27.59,27.59,0,0,1-3-2A18,18,0,0,1,51.56,97a11,11,0,0,1-1.32-1.52,4.91,4.91,0,0,1-.31-.44l-.14-.23-.14-.25-.07-.12a.83.83,0,0,1-.07-.13L49.38,94c0-.09-.08-.18-.11-.27l-.06-.14a1.21,1.21,0,0,1-.05-.14l-.11-.29L49,92.88a.83.83,0,0,1,0-.15l0-.16-.06-.32a6.66,6.66,0,0,1-.07-1.34c0-.22,0-.45.08-.67l0-.17V90l0-.08c0-.11.06-.21.08-.32a6.89,6.89,0,0,1,.46-1.18,8.27,8.27,0,0,1,1.28-1.88,12.05,12.05,0,0,1,1.46-1.41c.51-.41,1-.79,1.54-1.13s1-.66,1.57-.95,1.05-.57,1.58-.83c1.07-.53,2.14-1,3.21-1.42s2.16-.82,3.24-1.18c2.17-.74,4.34-1.37,6.53-2,1.09-.29,2.18-.56,3.27-.82l3.27-.75L78,75.72l.41-.09.41-.08.82-.17L83,74.71c1.09-.23,2.19-.43,3.29-.64l3.28-.6,1.65-.28,1.65-.28,1.64-.27c.55-.09,1.1-.19,1.65-.27l3.3-.5c1.1-.17,2.2-.34,3.3-.48l3.31-.46,1.65-.22,1.65-.21,3.31-.4,1.65-.2,1.65-.19q13.25-1.48,26.51-2.36T169,66.07L172.3,66l3.32-.07,3.32-.06,3.32,0q6.65-.07,13.28,0t13.27.27c4.43.15,8.85.33,13.27.63-8.83.75-17.64,1.42-26.46,2.11S178,70.17,169.2,70.87c-17.6,1.43-35.17,2.95-52.69,4.92-2.19.23-4.37.51-6.56.76l-1.64.19-1.64.21-3.28.42c-1.09.13-2.18.28-3.27.43l-3.27.44c-.55.07-1.09.16-1.64.24l-1.63.24-3.26.47-3.26.52c-1.09.17-2.18.33-3.26.53l-3.25.55-.81.14-.41.07-.4.08-1.62.3L74.07,82c-1.08.21-2.14.43-3.21.66s-2.13.48-3.18.74-2.11.53-3.15.82a55.22,55.22,0,0,0-6.09,2.08c-.48.21-1,.42-1.43.65s-.93.46-1.37.72l-.33.19-.32.2-.31.21c-.1.07-.2.13-.3.21a8.73,8.73,0,0,0-1.08.9,4.79,4.79,0,0,0-.75.95,2.37,2.37,0,0,0-.22.46.56.56,0,0,0,0,.12V91a1.42,1.42,0,0,0,0,.22,3.49,3.49,0,0,0,0,.46.5.5,0,0,0,0,.12v.07s0,0,0,.06a.59.59,0,0,0,0,.13l0,.13a.64.64,0,0,0,0,.07l0,.07,0,.14.06.14,0,.08,0,.07.07.14.08.15c.05.1.11.2.17.3a9.2,9.2,0,0,0,.89,1.16,12.65,12.65,0,0,0,1.09,1.11,25.21,25.21,0,0,0,2.54,2A54.58,54.58,0,0,0,63,101.05c2,1,4,2,6,2.91s4.09,1.78,6.16,2.62S79.33,108.21,81.43,109Z"/>
            </g>
          </g>
          <g>
            <g>
              <path class="cls-11" d="M319.87,55.75a0,0,0,0,0,0,0c-9.63,17.95-42.55,26.44-43.94,25-3.11-1.19-6.2-10.41-6.2-10.41l17.14-28.92,23.29-1.15h0l11.51-.58A21.09,21.09,0,0,1,319.87,55.75Z"/>
              <path class="cls-5" d="M319.85,55.77c-9.63,17.95-42.55,26.44-43.94,25-3.11-1.19-6.2-10.41-6.2-10.41l17.14-28.92,23.29-1.15h0c3.62.59,9,5.87,9,6.92.16,11.92-15.22,12.16-19.82,14.61s-16.26,12.05-15.52,15.77,20.76-8.6,25.85-13C312.44,62.33,316.6,58.65,319.85,55.77Z"/>
              <path class="cls-12" d="M316.6,51.34a23.07,23.07,0,0,1-12.17,7.55c-4.74,1.2-8.19,2.07-11.77,5.14a56.2,56.2,0,0,0-8.8,10.15c-1.47,2.07-4,7.06-7.63,6.79-2.2-.17-11.43-4-23.4-9.33-1.85-.84-3.75-1.68-5.69-2.57-24.32-11-56.28-26.36-65.89-31-1.33-.65,1.38-3.92,2.63-4.69,14.51-8.79,27.77-13.66,40.33-15.8a.53.53,0,0,1,.12,0,95.63,95.63,0,0,1,11.59-1.26c23.8-1.1,45.46,6.76,68.75,14.55,9.79,3.24,17,7.47,17,8.91C322.58,44.32,319.49,47.82,316.6,51.34Z"/>
              <g class="cls-13">
                <path d="M215.52,35.16a18.93,18.93,0,0,1-2.16,1c-.74.29-1.48.55-2.23.8s-1.51.49-2.27.7l-1.14.3c-.38.09-.76.18-1.14.24l-.55.07a1.74,1.74,0,0,1-.46,0h0l0,0s0,0,0,0l0,0a.43.43,0,0,0,0,0s0,0,0,0v.05a.25.25,0,0,1,.08-.1l.07-.08.09-.08a6.82,6.82,0,0,1,.88-.62l.49-.29.5-.28c.67-.37,1.37-.71,2.08-1l1.07-.51L212,35l-.6.12-.6.14-1.17.33a22.1,22.1,0,0,0-2.28.83c-.37.17-.74.34-1.1.53-.18.09-.35.19-.53.3a6,6,0,0,0-.52.36l-.26.22a1.19,1.19,0,0,0-.24.34.6.6,0,0,0-.08.3.41.41,0,0,1,0,.11s0,.07,0,.11,0,.06.06.1l.07.09a.27.27,0,0,1,.08.07l.05,0,0,0,.08,0,.07,0,.13,0,.12,0a2.83,2.83,0,0,0,.76,0l.66-.08a18.48,18.48,0,0,0,2.41-.62c.78-.25,1.53-.54,2.27-.86a19.41,19.41,0,0,0,2.14-1.07c.35-.19.68-.4,1-.62l.47-.35A3.89,3.89,0,0,0,215.52,35.16Z"/>
              </g>
              <g class="cls-13">
                <path d="M278,62.42a20,20,0,0,1-2.16,1c-.73.28-1.48.55-2.23.8s-1.5.48-2.26.7c-.38.1-.76.21-1.15.29a11.56,11.56,0,0,1-1.14.24l-.55.08a3.5,3.5,0,0,1-.46,0h0l0,0s0,0,0,0l0,0s0,0,0,0v0s0,.06,0,.06a.63.63,0,0,1,.08-.11l.08-.08.09-.08a6.66,6.66,0,0,1,.87-.61c.16-.1.32-.2.49-.29s.33-.19.5-.28c.68-.37,1.37-.72,2.08-1.06l1.07-.5,1.08-.5-.6.12-.59.14c-.4.1-.79.21-1.18.33a24,24,0,0,0-2.28.84c-.37.16-.73.33-1.09.52l-.54.31c-.17.11-.35.22-.52.35l-.25.23a1.29,1.29,0,0,0-.25.33.55.55,0,0,0-.07.31.38.38,0,0,0,0,.1l0,.11.06.1a.34.34,0,0,0,.08.09.27.27,0,0,0,.08.07l0,0,0,0,.08,0,.07,0,.13,0,.12,0a3.26,3.26,0,0,0,.76,0,4.58,4.58,0,0,0,.66-.08,15.47,15.47,0,0,0,2.41-.62,23.63,23.63,0,0,0,2.27-.86,22.58,22.58,0,0,0,2.15-1.06c.34-.2.68-.4,1-.63l.47-.34C277.69,62.67,277.84,62.55,278,62.42Z"/>
              </g>
              <g class="cls-13">
                <path d="M262.4,37.76a20,20,0,0,1-2.16,1c-.73.28-1.48.55-2.23.8s-1.5.49-2.26.7c-.38.1-.76.21-1.15.3s-.76.17-1.14.23a5.21,5.21,0,0,1-.55.08,1.75,1.75,0,0,1-.46,0h0l0,0s0,0,0,0,0,0,0,0l0,0v0c0,.05,0,.05,0,.05a.63.63,0,0,1,.08-.11l.08-.07a.24.24,0,0,1,.09-.08,6.69,6.69,0,0,1,.87-.62c.16-.1.32-.2.49-.29s.33-.19.5-.28c.68-.37,1.37-.71,2.08-1,.35-.18.71-.34,1.07-.51l1.08-.49-.6.12-.59.14c-.4.09-.79.21-1.18.33a23.94,23.94,0,0,0-2.28.83c-.37.16-.73.33-1.09.53l-.54.3a5.41,5.41,0,0,0-.52.36,2.46,2.46,0,0,0-.25.22,1.29,1.29,0,0,0-.25.33.55.55,0,0,0-.07.31.31.31,0,0,0,0,.1l0,.11.06.1a.24.24,0,0,0,.08.09.27.27,0,0,0,.08.07l0,0,0,0,.08,0,.07,0,.13,0,.12,0a3.31,3.31,0,0,0,.76,0l.66-.08a18.08,18.08,0,0,0,2.41-.62c.78-.26,1.54-.54,2.27-.86s1.46-.68,2.15-1.07c.34-.2.68-.4,1-.63.16-.11.32-.22.47-.34A5.3,5.3,0,0,0,262.4,37.76Z"/>
              </g>
              <g class="cls-13">
                <path d="M302.37,37a20,20,0,0,1-2.16,1c-.73.28-1.48.55-2.23.8s-1.5.48-2.26.7c-.38.1-.76.21-1.15.29a11.56,11.56,0,0,1-1.14.24l-.55.08h-.46l0,0,0,0s0,0,0,0a.09.09,0,0,1,0,0,0,0,0,0,1,0,0c0,.05,0,.06,0,.06l.08-.11a.6.6,0,0,0,.08-.08l.08-.08a7.55,7.55,0,0,1,.88-.61c.16-.1.32-.2.49-.29s.33-.19.5-.28c.67-.37,1.37-.72,2.08-1.06l1.07-.5,1.08-.5-.6.12-.59.14c-.4.1-.79.21-1.18.33a24,24,0,0,0-2.28.84c-.37.16-.73.33-1.09.52l-.54.31a5.41,5.41,0,0,0-.52.36,2.46,2.46,0,0,0-.25.22,1.29,1.29,0,0,0-.25.33.55.55,0,0,0-.07.31.38.38,0,0,0,0,.1l0,.11.06.1a.34.34,0,0,0,.08.09.27.27,0,0,0,.08.07l0,0,0,0,.08,0,.07,0,.13,0,.12,0a3.26,3.26,0,0,0,.76,0,4.58,4.58,0,0,0,.66-.08,16.66,16.66,0,0,0,2.41-.61c.78-.26,1.54-.55,2.27-.87a22.58,22.58,0,0,0,2.15-1.06c.34-.2.68-.4,1-.63l.47-.34C302.09,37.27,302.24,37.15,302.37,37Z"/>
              </g>
              <g class="cls-13">
                <path d="M247,20.09a20.86,20.86,0,0,1-2.16,1c-.74.28-1.48.55-2.23.8s-1.51.48-2.27.7c-.38.1-.76.21-1.14.29a11.56,11.56,0,0,1-1.14.24l-.55.08a3.47,3.47,0,0,1-.46,0h0s0,0,0,0h0l0,0s0,0,0,0l0,0a.43.43,0,0,1,0,0s0,0,0,0a.45.45,0,0,0,0,.06.33.33,0,0,1,.08-.11l.07-.08.09-.08a6.79,6.79,0,0,1,.88-.61c.16-.1.32-.2.49-.29s.33-.19.5-.28c.67-.37,1.37-.72,2.08-1.06l1.07-.5,1.08-.5-.6.12-.6.14q-.58.15-1.17.33a22.15,22.15,0,0,0-2.28.84c-.37.16-.74.33-1.1.52-.18.1-.36.2-.53.31a4.4,4.4,0,0,0-.52.36,2.53,2.53,0,0,0-.26.22,1.28,1.28,0,0,0-.24.33.64.64,0,0,0-.08.31s0,.06,0,.1,0,.07,0,.11a.33.33,0,0,0,.06.1l.07.09.08.07,0,0,0,0a.2.2,0,0,0,.08,0s0,0,.07,0a.33.33,0,0,0,.13,0l.12,0a3.26,3.26,0,0,0,.76,0,4.76,4.76,0,0,0,.66-.08,15.76,15.76,0,0,0,2.41-.62c.78-.25,1.53-.54,2.27-.86a21.29,21.29,0,0,0,2.14-1.06c.35-.2.68-.4,1-.63l.47-.34C246.73,20.34,246.88,20.22,247,20.09Z"/>
              </g>
              <g class="cls-13">
                <path d="M234.06,42.76c-.24.13-.48.24-.73.35s-.49.21-.75.3c-.5.2-1,.38-1.52.55s-1,.33-1.54.48l-.78.2c-.26.06-.52.12-.78.16l-.37.05h-.34l0,0,0,0,0,0a0,0,0,0,0,0,0v0s0,0,0,0l.06-.07a1.14,1.14,0,0,1,.11-.11,4,4,0,0,1,.6-.42l.67-.39c.92-.5,1.9-.95,2.89-1.4A14.73,14.73,0,0,0,230,43a15.88,15.88,0,0,0-1.55.57q-.39.16-.75.36a4.54,4.54,0,0,0-.72.45l-.17.15a1.06,1.06,0,0,0-.17.23.41.41,0,0,0-.05.21v.07l0,.07a.42.42,0,0,0,.09.14l.11.08.1.05.1,0,.08,0a2.22,2.22,0,0,0,.51,0l.45,0a10.78,10.78,0,0,0,1.65-.43c.53-.17,1-.36,1.55-.58a15.29,15.29,0,0,0,1.46-.73c.23-.14.46-.27.68-.43l.32-.23C233.87,42.93,234,42.85,234.06,42.76Z"/>
              </g>
              <g class="cls-13">
                <path d="M280.53,44.85c-.24.13-.48.24-.73.35s-.49.21-.74.3c-.51.2-1,.38-1.53.55s-1,.33-1.54.48l-.78.2c-.26.06-.52.12-.78.16l-.37,0a1.83,1.83,0,0,1-.32,0h0l0,0,0,0,0,0s0,0,0,0v0s0,0,0,0,0,0,.06-.07l.11-.11a6.23,6.23,0,0,1,.6-.42l.67-.39c.93-.5,1.9-1,2.89-1.4a14.73,14.73,0,0,0-1.62.4c-.53.17-1,.36-1.55.58-.25.11-.5.22-.75.35a5.67,5.67,0,0,0-.72.45,1.29,1.29,0,0,0-.17.16.8.8,0,0,0-.17.22.43.43,0,0,0,0,.21.15.15,0,0,0,0,.07.24.24,0,0,0,0,.08,1,1,0,0,0,.09.13l.11.08.11,0,.09,0h.08a2.3,2.3,0,0,0,.52,0l.44-.05a12.07,12.07,0,0,0,1.65-.42c.53-.18,1-.37,1.55-.59a15.29,15.29,0,0,0,1.46-.73,7,7,0,0,0,.68-.43l.33-.23Z"/>
              </g>
              <g class="cls-13">
                <path d="M276.32,26.07a6.82,6.82,0,0,1-.72.35l-.75.31c-.5.19-1,.37-1.52.54s-1,.33-1.55.48L271,28c-.25.07-.51.12-.77.17l-.38.05h-.34l0,0,0,0s0,0,0,0a0,0,0,0,1,0,0v.06a.31.31,0,0,1,0-.07,1.14,1.14,0,0,0,.11-.11c.17-.14.39-.28.6-.42l.68-.38c.92-.5,1.89-1,2.88-1.4a12.62,12.62,0,0,0-1.61.4,14.56,14.56,0,0,0-1.56.57c-.25.11-.5.22-.75.35a5,5,0,0,0-.71.46,1.19,1.19,0,0,0-.18.15,1.05,1.05,0,0,0-.17.22.59.59,0,0,0-.05.21.15.15,0,0,0,0,.07.26.26,0,0,0,0,.08.28.28,0,0,0,.09.13.28.28,0,0,0,.11.08l.1.05.09,0,.08,0a2.31,2.31,0,0,0,.52,0l.45-.06a12.3,12.3,0,0,0,1.64-.42,16,16,0,0,0,1.55-.59A15.29,15.29,0,0,0,275,27a7.92,7.92,0,0,0,.69-.42l.32-.24Z"/>
              </g>
              <path class="cls-5" d="M247.14,69.07c-24.32-11-56.28-26.36-65.89-31-1.33-.65,1.38-3.92,2.63-4.69,14.51-8.79,27.77-13.66,40.33-15.8-6.52,1.56-13,3.28-15.52,4.48-5.74,2.77,4.22,2.79-1.32,4.94s-26.94,5.38-18.57,12.9,28,4,26.45,7.35,9.22,11.53,21.39,13.11C241.57,61,245.12,64.71,247.14,69.07Z"/>
              <g>
                <ellipse class="cls-11" cx="291.04" cy="52.42" rx="2.51" ry="0.8" transform="translate(1.25 111.35) rotate(-21.71)"/>
                <path class="cls-11" d="M269.91,44.21c-.21-.38-1.43-.27-2.71.26s-2.14,1.27-1.92,1.66,1.43.27,2.71-.26S270.13,44.6,269.91,44.21Z"/>
                <path class="cls-11" d="M264.45,64c-.22-.38-1.44-.27-2.72.26s-2.14,1.27-1.92,1.66,1.43.27,2.71-.26S264.66,64.4,264.45,64Z"/>
                <ellipse class="cls-11" cx="287.97" cy="32.26" rx="2.51" ry="0.8" transform="translate(8.49 108.79) rotate(-21.71)"/>
                <ellipse class="cls-11" cx="238.98" cy="49.78" rx="2.51" ry="0.8" transform="translate(-1.46 91.91) rotate(-21.71)"/>
                <path class="cls-11" d="M260.2,25c-.22-.38-1.43-.27-2.71.26s-2.14,1.28-1.92,1.66,1.43.27,2.71-.26S260.42,25.39,260.2,25Z"/>
                <path class="cls-11" d="M236.19,33.06c-.22-.39-1.44-.27-2.71.26s-2.14,1.27-1.93,1.66,1.44.27,2.72-.26S236.41,33.44,236.19,33.06Z"/>
                <path class="cls-11" d="M230.4,22c-.22-.38-1.43-.27-2.71.26s-2.14,1.27-1.93,1.66,1.44.27,2.72-.26S230.62,22.41,230.4,22Z"/>
                <ellipse class="cls-11" cx="205.14" cy="32.83" rx="2.51" ry="0.8" transform="translate(2.4 78.2) rotate(-21.71)"/>
                <path class="cls-11" d="M313.57,40.34c-.22-.39-1.43-.27-2.71.26s-2.14,1.27-1.92,1.66,1.43.27,2.71-.26S313.79,40.72,313.57,40.34Z"/>
              </g>
              <g class="cls-10">
                <path d="M290.11,73.67c.59-.23,1.16-.48,1.72-.74s1.12-.54,1.67-.82c1.09-.56,2.16-1.16,3.21-1.79s2.07-1.31,3.05-2a17.54,17.54,0,0,0,1.43-1.18l.34-.33.33-.35.08-.09.08-.1.16-.2.15-.23.1-.16a2.39,2.39,0,0,1,.42-.44,5.2,5.2,0,0,1,.62-.44c.45-.28,1-.54,1.5-.8s1.08-.49,1.64-.73l1.69-.71c1.14-.47,2.29-1,3.4-1.53a14.44,14.44,0,0,0,1.62-.93,6.72,6.72,0,0,0,.73-.56,2.87,2.87,0,0,0,.59-.67,4.07,4.07,0,0,1-.77.47q-.4.2-.84.36c-.57.21-1.15.4-1.74.58-1.19.36-2.39.69-3.59,1.05l-.9.28-.9.3c-.6.2-1.2.42-1.79.66a14.41,14.41,0,0,0-1.77.86,9.39,9.39,0,0,0-.86.59l-.2.18a1.8,1.8,0,0,0-.2.19,4,4,0,0,0-.37.45l-.08.13-.05.07-.08.13-.11.14-.05.07-.06.07c-.09.09-.17.19-.26.29l-.14.14a1.85,1.85,0,0,0-.14.14c-.39.38-.82.75-1.26,1.13s-.89.73-1.35,1.09l-.69.55-.7.54C293.87,70.72,292,72.15,290.11,73.67Z"/>
              </g>
              <g class="cls-14">
                <path class="cls-15" d="M279.09,74.52c1.6-1.85,3.18-3.71,4.79-5.55.8-.92,1.62-1.83,2.44-2.73l.62-.67.31-.34.32-.33.63-.66.64-.64.66-.64c.22-.2.44-.42.67-.61l.34-.29.17-.15.08-.07.08-.06a6.72,6.72,0,0,1,.71-.47c.25-.14.52-.29.8-.42s.55-.27.84-.4c.57-.26,1.17-.5,1.77-.74,1.2-.47,2.42-.93,3.65-1.38s2.47-.92,3.7-1.41,2.45-1,3.66-1.54,2.39-1.15,3.54-1.82a22.12,22.12,0,0,0,3.25-2.25A15.1,15.1,0,0,0,314.18,50a10.81,10.81,0,0,0,1.15-1.56,2.39,2.39,0,0,0,.13-.21l.11-.21a3.42,3.42,0,0,0,.21-.43,2,2,0,0,0,.1-.21l.08-.21c.06-.14.12-.28.17-.42a15.11,15.11,0,0,0,.55-1.73c.07-.29.12-.58.18-.88s.09-.59.11-.89a8.43,8.43,0,0,0-.05-1.81,7.32,7.32,0,0,0-.49-1.76,6.15,6.15,0,0,0-1-1.58c-.1-.12-.22-.23-.33-.35l-.18-.16-.09-.08-.09-.08a5.07,5.07,0,0,0-.81-.56,4.92,4.92,0,0,0-.9-.42,4.23,4.23,0,0,0-1-.23,3.68,3.68,0,0,1,.47.15,3.49,3.49,0,0,1,.44.2,4.59,4.59,0,0,1,.79.5,5.58,5.58,0,0,1,.67.61l.08.08.07.08a2.09,2.09,0,0,1,.14.17,4,4,0,0,1,.26.35,5.74,5.74,0,0,1,.73,1.52A6.44,6.44,0,0,1,316,41.5a7.51,7.51,0,0,1-.13,1.64c0,.28-.11.55-.17.82s-.14.53-.24.8-.09.26-.14.4l-.15.39-.08.2-.09.19-.17.39-.19.39-.09.19c0,.06-.07.13-.1.18s-.13.24-.21.36l-.1.18-.12.17a8.84,8.84,0,0,1-1.09,1.3,14.88,14.88,0,0,1-1.32,1.17,23.67,23.67,0,0,1-3.09,2c-1.1.6-2.24,1.16-3.41,1.67s-2.37,1-3.58,1.49-2.43.95-3.65,1.42l-1.84.71c-.62.24-1.23.49-1.84.75s-1.22.53-1.83.82a18.53,18.53,0,0,0-1.79,1,9.66,9.66,0,0,0-.85.62l-.1.08-.1.09-.18.16-.35.34c-.24.22-.45.45-.67.68l-.64.68a71.8,71.8,0,0,0-4.56,5.75c-.71,1-1.39,2-2.06,3S279.71,73.5,279.09,74.52Z"/>
              </g>
            </g>
            <g>
              <path class="cls-16" d="M169.36,37.67s-17.66-15.14-17.7-15.12c-8.5,3.28-16.8,7.72-21.92,16.22-4.65-1.57-10.59,21.71-5.16,32.82-.42,4,21.83,7.17,36.11,8,11.46,1.3,33.42,3,48,.16,12.06-1,22.79-2.78,28.36-5.6a16.13,16.13,0,0,0,4.34-4.81s-31-5.5-40.66-9.85A99,99,0,0,1,169.36,37.67Z"/>
              <path class="cls-11" d="M241.37,69.3a31.45,31.45,0,0,1-6.15,2.9c-.57.21-1.16.4-1.77.6C202,82.82,126.65,75.11,125.11,70a46.87,46.87,0,0,1-.88-23.09h0c.27-1.26.6-2.51,1-3.72,1-3.05,1.79-6.2,3.79-8.54,14.78-17.31,46.73-22.7,60.94-21.54,0,0,9.92,16.08,20.14,29.38A107.83,107.83,0,0,0,241.37,69.3Z"/>
              <g class="cls-17">
                <g class="cls-18">
                  <path d="M133.72,34.26a9.12,9.12,0,0,0,1.29.37c.44.1.88.18,1.34.24a16.78,16.78,0,0,0,2.75.13c.24,0,.47,0,.7,0l.35,0,.34,0c.23,0,.46,0,.69-.08l.35-.06.17,0h.15a4,4,0,0,1,1.07-.06,3.36,3.36,0,0,1,1,.24,16.46,16.46,0,0,1,2,1.17,13.56,13.56,0,0,0,2.37,1.22A12.34,12.34,0,0,0,151,38l.69.08.69,0H153l.68,0c-.86-.23-1.71-.45-2.5-.74a14.43,14.43,0,0,1-2.26-1l-.26-.14-.26-.15-.25-.16-.25-.15-1-.68c-.33-.24-.67-.48-1-.72a7.7,7.7,0,0,0-1.25-.68,4.8,4.8,0,0,0-.76-.24l-.41-.08-.42,0a5.44,5.44,0,0,0-1.58.15l-.17,0-.15,0-.31.07-.62.13-.31.06-.31.06-.63.1c-.85.12-1.71.21-2.59.27S134.62,34.27,133.72,34.26Z"/>
                </g>
                <g class="cls-18">
                  <path d="M160.15,44a10.67,10.67,0,0,0,1.29.37c.44.09.89.18,1.34.23a18,18,0,0,0,2.75.14l.7,0,.35,0,.34,0,.69-.09.35,0,.17,0,.08,0h.07a5,5,0,0,1,1.07-.06,3.36,3.36,0,0,1,1,.24,16.62,16.62,0,0,1,2,1.18A14.28,14.28,0,0,0,174.72,47a11.76,11.76,0,0,0,2.67.68l.69.08.69,0h.68c.23,0,.46,0,.68,0-.86-.23-1.71-.46-2.5-.74a16.58,16.58,0,0,1-2.26-1l-.26-.15c-.09,0-.17-.1-.26-.15l-.25-.15-.25-.16c-.33-.22-.66-.44-1-.68s-.67-.48-1-.72a7,7,0,0,0-1.25-.67,6.15,6.15,0,0,0-.76-.25l-.41-.07-.42,0a5.82,5.82,0,0,0-1.58.14l-.17,0-.15,0-.31.07-.62.13-.31.06-.31,0c-.21,0-.42.08-.63.1-.85.13-1.71.22-2.59.27S161.05,44,160.15,44Z"/>
                </g>
                <g class="cls-18">
                  <path d="M131.69,47.32a10.67,10.67,0,0,0,1.29.37c.44.09.88.17,1.34.23a18,18,0,0,0,2.75.14l.7,0,.34,0,.35,0,.69-.09.35-.06.17,0,.08,0h.07a4.41,4.41,0,0,1,1.07-.06,3.36,3.36,0,0,1,1,.24,15.41,15.41,0,0,1,2,1.18,13.53,13.53,0,0,0,2.37,1.21,11.28,11.28,0,0,0,2.67.69l.69.08.69,0H151l.68,0c-.86-.23-1.71-.46-2.5-.74a16.58,16.58,0,0,1-2.26-1l-.26-.15c-.09,0-.17-.1-.26-.15l-.25-.15-.25-.16c-.34-.22-.66-.44-1-.68s-.67-.48-1-.72a7,7,0,0,0-1.25-.67,6.15,6.15,0,0,0-.76-.25l-.41-.07-.42,0a5.82,5.82,0,0,0-1.58.14l-.17,0-.15,0-.31.07-.62.13-.31.06-.31,0c-.21,0-.42.08-.63.1-.85.13-1.71.22-2.59.27S132.59,47.33,131.69,47.32Z"/>
                </g>
                <g class="cls-18">
                  <path d="M129.54,60.24a9.14,9.14,0,0,0,1.29.38c.44.09.89.17,1.34.23a18.1,18.1,0,0,0,2.76.14l.69,0,.35,0,.35,0c.23,0,.46,0,.69-.09l.34-.06.17,0,.09,0h.07a4.36,4.36,0,0,1,1.07-.06,3.3,3.3,0,0,1,1,.24,14.23,14.23,0,0,1,2,1.18,13.62,13.62,0,0,0,2.38,1.21,12.19,12.19,0,0,0,2.67.69l.68.08.69,0c.23,0,.46,0,.69,0l.68,0c-.87-.23-1.71-.46-2.51-.74a17.14,17.14,0,0,1-2.26-1l-.26-.15-.25-.15-.26-.15-.25-.16c-.33-.22-.66-.44-1-.68s-.66-.48-1-.72a7.09,7.09,0,0,0-1.26-.67,5.21,5.21,0,0,0-.76-.25l-.41-.07-.41-.05a5.74,5.74,0,0,0-1.58.15l-.17,0-.16,0-.3.07-.62.13-.31.07-.32,0-.63.1c-.85.13-1.71.21-2.58.27S130.45,60.26,129.54,60.24Z"/>
                </g>
                <g class="cls-18">
                  <path d="M200.08,65.35a9.14,9.14,0,0,0,1.29.38c.44.09.88.17,1.34.23a18,18,0,0,0,2.75.14l.7,0,.35,0,.34,0c.23,0,.46,0,.69-.09l.35-.06.17,0,.08,0h.07a4.41,4.41,0,0,1,1.07-.06,3.36,3.36,0,0,1,1,.24,15.41,15.41,0,0,1,2,1.18,13.53,13.53,0,0,0,2.37,1.21,12.34,12.34,0,0,0,2.67.69l.69.08.69,0h.68l.68,0c-.86-.23-1.71-.46-2.5-.74a16.58,16.58,0,0,1-2.26-1l-.26-.15-.26-.15-.25-.15-.25-.16c-.33-.22-.66-.44-1-.68s-.67-.48-1-.72a7,7,0,0,0-1.25-.67,6.15,6.15,0,0,0-.76-.25l-.41-.07-.42,0a5.81,5.81,0,0,0-1.58.15l-.17,0-.15,0-.31.07-.62.12-.31.07-.31,0c-.21,0-.42.08-.63.1-.85.13-1.71.21-2.59.27S201,65.37,200.08,65.35Z"/>
                </g>
                <g class="cls-18">
                  <path d="M175.08,62.88a9.51,9.51,0,0,0,1.29.37c.44.1.89.18,1.34.24a18.1,18.1,0,0,0,2.76.13l.69,0,.35,0,.35,0a5.43,5.43,0,0,0,.69-.09l.34,0,.17,0h.16a3.92,3.92,0,0,1,1.07-.06,3.3,3.3,0,0,1,1,.24,15.11,15.11,0,0,1,2,1.17,14.38,14.38,0,0,0,2.38,1.22,12.19,12.19,0,0,0,2.67.69l.69.07c.23,0,.45,0,.68,0h.69l.68,0c-.87-.23-1.71-.46-2.51-.74a15.3,15.3,0,0,1-2.25-1L190,64.8l-.25-.15-.26-.16-.25-.16c-.33-.21-.66-.44-1-.67s-.66-.48-1-.72a7.82,7.82,0,0,0-1.26-.68,4.23,4.23,0,0,0-.76-.24l-.4-.08-.42,0a5.41,5.41,0,0,0-1.58.15l-.17,0-.16,0-.3.07-.62.13-.31.06-.32,0-.63.11c-.84.12-1.71.21-2.58.27S176,62.89,175.08,62.88Z"/>
                </g>
                <g class="cls-18">
                  <path d="M152.07,57.74a7.76,7.76,0,0,0,1.68.39,10.48,10.48,0,0,0,1.77.06l.45,0,.44,0,.44-.07.22,0,.11,0,.09,0a2.54,2.54,0,0,1,.66,0,1.79,1.79,0,0,1,.59.16,3.81,3.81,0,0,1,.61.35l.65.44a8.51,8.51,0,0,0,1.49.82,7.37,7.37,0,0,0,3.46.52c-.55-.15-1.09-.3-1.59-.49a8.67,8.67,0,0,1-1.41-.65l-.17-.1-.16-.1-.31-.21c-.2-.14-.41-.29-.61-.45a7.44,7.44,0,0,0-1.42-.94,3.05,3.05,0,0,0-1-.25,3.14,3.14,0,0,0-1,.1l-.21.05-.2,0-.19.05-.2,0-.39.08c-.13,0-.26.06-.4.07-.53.1-1.08.16-1.64.21S152.65,57.74,152.07,57.74Z"/>
                </g>
              </g>
              <path class="cls-19" d="M233.45,72.79h0C202,82.82,126.65,75.11,125.11,70a46.87,46.87,0,0,1-.88-23.09c.1,2.7.48,3.51-.26,5.72s0,6.65.08,7.69,1,6.52,1.11,6.91-.14,3.65,8.61,5,14.83,2.66,16.3,2.72,11.44.93,13,1,9.86.6,13,.37,12.44,1.06,13.82.59,9.33-.35,13.08-.52,11.94-.53,13.44-1.24S232.67,71.52,233.45,72.79Z"/>
              <g>
                <path class="cls-20" d="M216.21,67.13a.93.93,0,0,0-.31.27.86.86,0,0,0-.1.16.3.3,0,0,0-.05.16c0,.12,0,.25,0,.36a.64.64,0,0,1-.2.3.86.86,0,0,0-.14.13,1.34,1.34,0,0,0-.11.14,1.79,1.79,0,0,0-.2.28c-.05.09-.1.19-.14.28l-.06.15a.6.6,0,0,1-.11.14v0a.46.46,0,0,0,.26,0,.8.8,0,0,0,.23-.1,1.21,1.21,0,0,0,.31-.28,1.25,1.25,0,0,0,.16-.33,1.21,1.21,0,0,0,.05-.18,1.09,1.09,0,0,0,0-.18.6.6,0,0,1,.09-.34c.06-.1.19-.18.26-.28a.51.51,0,0,0,.09-.16c0-.05,0-.11,0-.16a1,1,0,0,0,0-.37Z"/>
                <path class="cls-20" d="M135.67,66.21a3,3,0,0,0-.84,0l-.41,0a2.23,2.23,0,0,0-.39.09,7,7,0,0,1-.77.27,3.56,3.56,0,0,1-.8.08h-.81c-.26,0-.52,0-.77,0a3.39,3.39,0,0,1-1.46-.31l0,0a1.26,1.26,0,0,0,.6.53,2.73,2.73,0,0,0,.85.22,4.91,4.91,0,0,0,.86,0,4.59,4.59,0,0,0,.82-.17,4.3,4.3,0,0,1,.79-.18c.27,0,.56,0,.83,0l.4-.07.39-.1a5.34,5.34,0,0,0,.76-.28Z"/>
                <path class="cls-20" d="M133.94,59a4.11,4.11,0,0,1,.21-.42l.12-.19.15-.18a3.4,3.4,0,0,1,.32-.34l.18-.15.19-.16c.13-.09.25-.21.4-.3l.22-.13L136,57l.25-.09.27-.07.55-.1a7,7,0,0,0,1.11-.3,4.83,4.83,0,0,0,1-.52,2.16,2.16,0,0,0,.69-.82,1.65,1.65,0,0,0,.12-1h-.05a3.22,3.22,0,0,1-.44.82,3.15,3.15,0,0,1-.69.62,6.73,6.73,0,0,1-.88.5l-.23.11-.24.11-.5.22c-.16.07-.33.13-.51.19l-.26.09c-.09,0-.18,0-.27.09l-.27.08c-.09,0-.18.06-.27.09a2.15,2.15,0,0,0-.27.1l-.26.12-.24.16-.21.18a1.8,1.8,0,0,0-.32.42,1.2,1.2,0,0,0-.11.23,1.09,1.09,0,0,0-.07.24,1.06,1.06,0,0,0,0,.5Z"/>
                <path class="cls-20" d="M151.24,62.43a7.35,7.35,0,0,0,.11.82c0,.13.05.26.08.4s.06.26.1.39a6,6,0,0,1,.22.8,1.92,1.92,0,0,1-.06.79c0,.06-.05.13-.07.2a1.46,1.46,0,0,0-.05.2,1.55,1.55,0,0,0,0,.21,1.62,1.62,0,0,0,0,.2,4.63,4.63,0,0,0-.05.83,5.76,5.76,0,0,0,.06.82,5.84,5.84,0,0,0,.17.81h0a12.87,12.87,0,0,0,.11-1.63c0-.27,0-.54,0-.81s0-.27,0-.4a1.34,1.34,0,0,1,0-.2c0-.07,0-.13,0-.2a2.94,2.94,0,0,0,0-.42,1.48,1.48,0,0,0,0-.21c0-.07,0-.13,0-.2,0-.28,0-.55,0-.83a2.83,2.83,0,0,0-.08-.4,2.64,2.64,0,0,0-.12-.4,4.07,4.07,0,0,0-.35-.77Z"/>
              </g>
              <g class="cls-21">
                <path class="cls-19" d="M161.49,60.85c.12.54-1.11-.46-3.41-.08s-4.16-1-4.14-1.59,1.91-.82,4.22-.53S161.09,58.93,161.49,60.85Z"/>
                <path class="cls-5" d="M160.33,60.22c.07.24-1.1,0-2.43.16s-2.4-.51-2.39-.77,1.1-.32,2.43-.15S160.09,59.38,160.33,60.22Z"/>
                <path class="cls-19" d="M212.21,68c.11.54-1.11-.46-3.42-.08s-4.15-1-4.13-1.59,1.91-.83,4.21-.53S211.8,66,212.21,68Z"/>
                <path class="cls-5" d="M211,67.32c.07.24-1.1,0-2.42.16s-2.4-.51-2.4-.77,1.1-.32,2.43-.15S210.8,66.48,211,67.32Z"/>
                <path class="cls-19" d="M146.19,51.7c.18.81-1.75-.7-5.38-.15s-6.55-1.54-6.52-2.42,3-1.2,6.64-.74S145.54,48.84,146.19,51.7Z"/>
                <path class="cls-5" d="M144.36,50.76c.11.35-1.74,0-3.82.2s-3.79-.78-3.77-1.16,1.72-.47,3.82-.21S144,49.5,144.36,50.76Z"/>
                <path class="cls-19" d="M140.33,64.62c.15.95-1.47-.74-4.54,0s-5.52-1.53-5.48-2.56,2.55-1.54,5.62-1.15S139.82,61.29,140.33,64.62Z"/>
                <path class="cls-5" d="M138.8,63.6c.09.41-1.47.11-3.24.4s-3.19-.77-3.17-1.21,1.46-.63,3.23-.41S138.48,62.14,138.8,63.6Z"/>
                <path class="cls-19" d="M188.4,68.66c.15,1-1.47-.75-4.54,0s-5.52-1.54-5.48-2.56S180.93,64.6,184,65,187.89,65.33,188.4,68.66Z"/>
                <path class="cls-5" d="M186.87,67.63c.09.42-1.47.11-3.24.4s-3.19-.76-3.17-1.21,1.47-.63,3.23-.4S186.55,66.17,186.87,67.63Z"/>
                <path class="cls-19" d="M162,45.54c-.19-.94,1.5.66,4.52-.33s5.56,1.19,5.58,2.22-2.47,1.71-5.54,1.51S162.71,48.85,162,45.54Z"/>
                <path class="cls-5" d="M163.61,46.47c-.11-.41,1.46-.2,3.2-.6s3.21.56,3.21,1-1.42.72-3.19.61S164,47.92,163.61,46.47Z"/>
                <path class="cls-19" d="M175.88,20.73c-.19-.94,1.5.66,4.52-.33S186,21.59,186,22.62s-2.46,1.71-5.53,1.51S176.55,24,175.88,20.73Z"/>
                <path class="cls-5" d="M177.46,21.67c-.11-.41,1.45-.21,3.19-.61s3.21.57,3.22,1-1.42.72-3.2.6S177.84,23.11,177.46,21.67Z"/>
                <path class="cls-19" d="M186.56,38.93c-.2-.94,1.5.66,4.51-.33s5.57,1.19,5.58,2.22-2.47,1.71-5.53,1.51S187.23,42.24,186.56,38.93Z"/>
                <path class="cls-5" d="M188.13,39.87c-.1-.41,1.46-.21,3.2-.61s3.21.57,3.22,1-1.43.72-3.2.6S188.52,41.31,188.13,39.87Z"/>
                <path class="cls-19" d="M159.39,27.3c-.19-.94,1.5.66,4.51-.33s5.57,1.19,5.58,2.22S167,30.9,164,30.7,160.06,30.61,159.39,27.3Z"/>
                <path class="cls-5" d="M161,28.24c-.11-.42,1.45-.21,3.19-.61s3.21.57,3.22,1-1.43.72-3.2.61S161.35,29.68,161,28.24Z"/>
                <path class="cls-19" d="M136.33,36c-.19-.95,1.5.65,4.51-.34s5.57,1.19,5.58,2.22-2.46,1.71-5.53,1.51S137,39.27,136.33,36Z"/>
                <path class="cls-5" d="M137.91,36.9c-.11-.41,1.45-.21,3.19-.61s3.21.57,3.22,1-1.43.72-3.2.6S138.29,38.34,137.91,36.9Z"/>
              </g>
              <path class="cls-5" d="M235.3,71.29l-.08.91c-.57.21-1.16.4-1.77.6C202,82.82,126.65,75.11,125.11,70a46.87,46.87,0,0,1-.88-23.09h0c.27-1.26.6-2.51,1-3.72a9.67,9.67,0,0,1,1.09,6.54c-1.45,8,7.45,19.06,18.83,19.45s13.95.33,20.64,3.67,18.43-4.34,29.63-.81,18.29-4.4,23.71-4.16S235.3,71.29,235.3,71.29Z"/>
              <g class="cls-10">
                <path d="M167.73,17.75c.83-.16,1.66-.33,2.49-.48s1.66-.31,2.5-.45c1.66-.29,3.33-.57,5-.8s3.35-.45,5-.58c.84-.07,1.68-.12,2.52-.14a22.52,22.52,0,0,1,2.47,0L187.2,15c.22.57.44,1.1.67,1.64l.18.41.18.4c.12.27.24.53.37.8.5,1.07,1,2.12,1.57,3.17L191,23l.43.78.44.78c.3.51.59,1,.9,1.54l.92,1.54,1,1.52c.16.25.32.51.49.76l.49.75.49.75.51.75c.34.5.67,1,1,1.49,1.38,2,2.83,3.93,4.33,5.84.75,1,1.52,1.91,2.3,2.85s1.58,1.88,2.38,2.81,1.63,1.84,2.47,2.75l1.26,1.36,1.29,1.34q1.31,1.33,2.64,2.64c.9.87,1.82,1.72,2.75,2.56S219,57.46,220,58.25l.75.6.77.57a15.27,15.27,0,0,0,1.64,1,15.93,15.93,0,0,1-1.52-1.15c-.48-.41-.95-.83-1.41-1.25-.92-.84-1.8-1.72-2.68-2.59s-1.71-1.77-2.55-2.67-1.67-1.81-2.48-2.72q-4.87-5.49-9.25-11.25C201.78,36.91,200.37,35,199,33l-1-1.48-.5-.74L197,30c-.32-.5-.66-1-1-1.49L195.11,27l-.93-1.51c-.31-.51-.6-1-.91-1.52s-.58-1-.88-1.54-.58-1-.86-1.53c-.56-1-1.12-2.07-1.64-3.11-.14-.26-.26-.52-.39-.78s-.26-.53-.38-.79c-.25-.52-.5-1.05-.72-1.57l-.14-.33-.4,0a23.18,23.18,0,0,0-2.64,0c-.87.06-1.73.14-2.59.24-1.7.21-3.39.49-5.06.81s-3.32.68-5,1.07l-2.45.62C169.34,17.3,168.53,17.51,167.73,17.75Z"/>
              </g>
            </g>
          </g>
          <path class="cls-22" d="M402.49,76.12a4.89,4.89,0,0,0,.08-.85c0-9.82-28.27-17.5-64.4-17.5s-64.4,7.68-64.4,17.5a5.55,5.55,0,0,0,.7,2.64v8c-11.41-5-31.9-8.35-55.78-8.35-27.16,0-49.95,4.27-60,10.53V81.63a5.58,5.58,0,0,0,.69-2.63c0-9.81-28.27-17.49-64.39-17.49S30.63,69.19,30.63,79a5.55,5.55,0,0,0,.7,2.64v21.62a4.88,4.88,0,0,0,.48,2,8.4,8.4,0,0,0,.75,1.31c5.88,7.77,31.6,13.61,62.47,13.61,26.62,0,49.42-4.35,58.94-10.53V120a5,5,0,0,0,.48,2.08,8.36,8.36,0,0,0,.77,1.34c6,7.89,32.1,13.83,63.47,13.83,35.74,0,64.72-7.72,64.72-17.25V108.2c11.12,5,31.47,8.3,54.76,8.3,35.18,0,63.7-7.6,63.7-17v-21a5.06,5.06,0,0,0,.62-2.38ZM275.22,75a1.6,1.6,0,0,1-.05.21s0-.09,0-.14Z"/>
          <g>
            <g>
              <path class="cls-23" d="M158.25,68.51V96.34c0,10.76-28.52,19.47-63.7,19.47-30.87,0-56.59-6.7-62.47-15.61a10.59,10.59,0,0,1-.75-1.51,6.29,6.29,0,0,1-.48-2.35V68.51Z"/>
              <path class="cls-24" d="M158.25,68.51V96.34c0,10.76-28.52,19.47-63.7,19.47-30.87,0-56.59-6.7-62.47-15.61a10.59,10.59,0,0,1-.75-1.51c55.36,13.6,84,11,108.19-3,7.66-4.43,16.8-19.8,16.1-27.13Z"/>
              <path class="cls-24" d="M32.08,100.2c54.94,24.49,107.51,8.47,118.55,1.29,9-5.94,7.59-25.91,6.72-33h.9V96.34c0,10.76-28.52,19.47-63.7,19.47C63.68,115.81,38,109.11,32.08,100.2Z"/>
              <ellipse class="cls-25" cx="94.55" cy="68.5" rx="63.71" ry="19.46"/>
              <path class="cls-26" d="M158.25,68.51a5.53,5.53,0,0,1-.17,1.34c-2.24-10.13-29.84-18.1-63.53-18.1s-61.29,8-63.53,18.1a5.53,5.53,0,0,1-.17-1.34C30.85,57.76,59.37,49,94.55,49S158.25,57.76,158.25,68.51Z"/>
              <path class="cls-27" d="M94.55,48.44c-36.13,0-64.4,8.81-64.4,20.07s28.27,20,64.4,20,64.39-8.79,64.39-20S130.67,48.44,94.55,48.44Zm0,38.92c-34.76,0-63-8.46-63-18.85s28.24-18.88,63-18.88,63,8.48,63,18.88S129.3,87.36,94.55,87.36Z"/>
              <g class="cls-28">
                <path class="cls-15" d="M48.66,84.06c1,.28,2,.51,3,.72s2,.41,3,.59,2,.36,3.05.5l.77.12.76.11c.51.08,1,.14,1.53.21l.77.1.77.09.76.1.77.08c1,.12,2.05.22,3.08.32l1.54.14,1.54.13.77.06.77,0,1.55.11c4.11.25,8.24.43,12.36.48l3.1,0h3.1c2.06,0,4.13,0,6.19-.1l1.55,0,.78,0,.77,0,3.1-.11,3.1-.13,3.1-.16,3.09-.19,1.54-.1,1.55-.11c1-.08,2.06-.15,3.08-.24l1.55-.13,1.53-.15.77-.07.77-.08,1.54-.17c1-.12,2-.23,3.07-.37q3.06-.39,6.09-.91c2-.35,4-.76,6-1.26,1-.25,2-.52,2.93-.84.49-.15,1-.32,1.44-.5l.7-.29a7,7,0,0,0,.67-.33,10,10,0,0,1-1.27.78c-.44.24-.9.46-1.36.67-.93.41-1.89.79-2.86,1.13-1.94.68-3.93,1.26-5.94,1.76s-4.05.94-6.1,1.32-4.1.71-6.17,1l-1.55.22-1.55.19c-1,.14-2.07.24-3.11.35l-1.56.16-1.55.15-3.12.26-3.13.21-3.12.18c-2.09.1-4.17.18-6.26.24l-.79,0-.78,0-1.57,0H91.68q-3.14,0-6.27-.12l-1.57-.07-1.57-.07c-1-.06-2.09-.11-3.13-.19q-3.14-.21-6.25-.55l-1.55-.17-.78-.1-.78-.1-1.55-.2-1.55-.23-1.54-.25-1.54-.26-.77-.14-.76-.14-1.53-.31L59,87.15,58.25,87l-.75-.18c-1-.24-2-.5-3-.78A48.08,48.08,0,0,1,48.66,84.06Z"/>
              </g>
              <g class="cls-28">
                <path class="cls-15" d="M33.62,77.58c.63,2.47,1.13,4.94,1.64,7.39l.39,1.83c.13.61.26,1.22.4,1.83s.27,1.21.43,1.81.3,1.2.47,1.79.36,1.18.56,1.74a10.24,10.24,0,0,0,.74,1.6,1,1,0,0,0,.11.17l0,.08.06.08.06.08s0,0,0,0l.06.06.07.06a6.25,6.25,0,0,0,.71.54c.55.35,1.14.69,1.74,1,1.21.67,2.46,1.3,3.71,1.94l1.89,1,1,.48.48.23.48.23a5.12,5.12,0,0,1-.54-.1c-.18,0-.36-.08-.54-.12L46.52,101c-.7-.19-1.4-.4-2.09-.62-1.38-.45-2.74-.94-4.08-1.51-.67-.29-1.33-.59-2-1a8.77,8.77,0,0,1-1-.64l-.12-.1-.13-.12A.8.8,0,0,1,37,97l-.1-.12a.52.52,0,0,1-.1-.11l-.09-.12a2,2,0,0,1-.17-.23,8.09,8.09,0,0,1-.55-.93c-.16-.31-.29-.62-.42-.93a17.06,17.06,0,0,1-.64-1.86c-.18-.63-.34-1.25-.48-1.88s-.25-1.25-.36-1.88-.2-1.25-.27-1.88l-.11-.94-.08-1c-.1-1.26-.16-2.52-.17-3.78q0-.94,0-1.89C33.51,78.84,33.54,78.21,33.62,77.58Z"/>
              </g>
              <g class="cls-29">
                <g>
                  <g>
                    <path class="cls-30" d="M88.12,67.72s-.43,6.77-1.84,4.21c0,0-1.59,3.81-1.68,1.93,0,0-.82,1.21-1.35.86s.28-1.43.28-1.43-1,.16-1-.22a4,4,0,0,1,.54-1.17s-2.83,2.25-3.29,1.56a1.94,1.94,0,0,1,0-1.67s-3.08.47-2.87-.4,3.24-1.53,3.24-1.53-.94-.53-.58-1,3,0,3,0-1.48-.32-1-.56.69-.06.69-.06-2.09-.91-1.65-1.35S84.24,66,88.12,67.72Z"/>
                    <path class="cls-24" d="M87.76,70.63c-.28,1.45-.75,2.63-1.48,1.3,0,0-1.59,3.81-1.68,1.93,0,0-.82,1.21-1.35.86s.28-1.43.28-1.43-1,.16-1-.22a3.62,3.62,0,0,1,.53-1.16c-.12.1-2.83,2.22-3.28,1.55a1.94,1.94,0,0,1,0-1.67s-3.08.47-2.87-.4c.11-.45,1-.85,1.83-1.13a1.38,1.38,0,0,0-.66.69c-.2.86,2.53.35,2.53.35a2.17,2.17,0,0,0,0,1.67c.38.66,2.82-1.5,2.93-1.6a4.26,4.26,0,0,0-.5,1.16c0,.39.88.2.88.2s-.72,1.1-.27,1.44,1.2-.88,1.2-.88c0,1.87,1.53-2,1.53-2C86.87,72.45,87.37,71.76,87.76,70.63Z"/>
                    <path class="cls-30" d="M84,64.6s-7.3,2.61-5.22.4c0,0-4.7.43-2.77-.45,0,0-1.62-.11-1.49-.67s1.63-.41,1.63-.41-.89-.49-.47-.64a27.2,27.2,0,0,1,4,.65s-5.18-1-5.37-2.82c-.08-.79,1.75-.73,1.75-.73s-1.82-2.17-.82-2.38,3,1.83,3,1.83-.37-1.77.27-1.69,1.81,3.12,1.81,3.12-1.07-2.69-.12-2.69c.57,0,.65,2.19.65,2.19s0-2,.71-1.85S84.19,60.84,84,64.6Z"/>
                    <path class="cls-24" d="M84,64.6h0c-.06-3.16-1.82-5.27-2.39-5.41S81,60.9,81,60.9a13.34,13.34,0,0,0-.59-2c-.42,0,.13,2.51.13,2.51s-1.09-2.83-1.68-2.9S78.59,60,78.59,60s-1.86-1.88-2.77-1.69c-.55.12-.18.87.21,1.46-.36-.45-1.58-2.08-.72-2.26s3,1.83,3,1.83-.37-1.76.27-1.69,1.55,2.46,1.76,3c-.19-.51-.91-2.58-.07-2.57.53,0,.63,1.86.65,2.15,0-.28.1-2,.71-1.81S84.18,60.84,84,64.6Z"/>
                    <path class="cls-31" d="M89.28,67.25c-.8.43-1.6.85-2.41,1.25s-1.64.79-2.47,1.17-1.68.72-2.55,1c-.44.15-.88.29-1.34.41a5.84,5.84,0,0,1-1.4.21.07.07,0,0,1-.07-.06s0-.05.07-.05h0A6.34,6.34,0,0,0,80.47,71c.44-.13.87-.27,1.3-.43.86-.33,1.69-.69,2.51-1.07s1.63-.79,2.43-1.21,1.59-.84,2.37-1.29h0a.19.19,0,0,1,.25,0,.14.14,0,0,1,0,.22Z"/>
                    <path class="cls-31" d="M82.46,67.61l.94.3.94.29,1,.25.48.1a2.67,2.67,0,0,0,.48,0h.11l-.05.08-.29.5-.28.49c-.19.33-.37.66-.55,1s-.35.67-.5,1a10.36,10.36,0,0,0-.43,1l.07-.27.09-.26.09-.27.11-.26c.14-.35.3-.69.47-1s.35-.67.53-1,.38-.66.58-1l.06.08a2.76,2.76,0,0,1-.51,0l-.49-.11c-.33-.08-.64-.17-1-.27L83.38,68Z"/>
                    <path class="cls-31" d="M80.56,72.68l.45-.59.46-.59.94-1.16h0c.45-.2.9-.38,1.36-.57l0,.1a10.13,10.13,0,0,1-1.46-.07,5.54,5.54,0,0,1-.71-.12,2.46,2.46,0,0,1-.67-.26,2.24,2.24,0,0,0,.68.21,5.52,5.52,0,0,0,.71.1l.72,0h1l-.27.12-1.35.57,0,0-1,1.14-.49.57Z"/>
                    <path class="cls-31" d="M83.7,71.6l.61-.31.61-.3,0,0c.08-.17.16-.34.25-.5s.17-.34.26-.5l.1-.2,0,.21c0,.25,0,.49.08.74s0,.24,0,.36l.06.37a2.47,2.47,0,0,1-.11-.36c0-.12-.06-.24-.09-.36s-.08-.49-.11-.74l.12,0c-.09.17-.17.34-.26.5l-.26.5v0h0l-.64.27Z"/>
                    <path class="cls-31" d="M83.13,68.27l.32-.13.32-.11h0l.58.14.29.08.14,0,.08,0h0a.07.07,0,0,0,0,0h0v0a1.27,1.27,0,0,0-.07-.24l-.09-.24c-.05-.17-.11-.33-.15-.5l.24.47a4.19,4.19,0,0,1,.2.49s0,0,0,0h0a.07.07,0,0,1,0,0h-.07l-.06,0-.14,0-.29-.07-.56-.16h0l-.34.09Z"/>
                    <g>
                      <path class="cls-30" d="M89,66s-6.83-3.42-3.52-3.32c0,0-3.24-3-1.24-2.17,0,0-.88-1.17-.28-1.42s1.36.87,1.36.87.3-.86.68-.66a4.3,4.3,0,0,1,1,.94s-1-3.18-.12-3.22a2.75,2.75,0,0,1,1.73.77s.93-2.56,1.73-2,.11,3.16.11,3.16,1-.47,1.3,0-1.38,2.27-1.38,2.27,1-1,1-.49-.25.55-.25.55,1.9-1.17,2.16-.63S92.61,63.87,89,66Z"/>
                      <path class="cls-24" d="M91.25,61.26a.66.66,0,0,0,.14-.49c0-.44-.86.33-1,.47C90.57,61,92,59.45,91.74,59s-1.3,0-1.3,0,.69-2.61-.11-3.16c-.34-.25-.71.09-1,.56a.42.42,0,0,1,.48,0c.8.55.11,3.16.11,3.16s1-.47,1.3,0-1.16,2-1.36,2.25c.15-.14,1-.91,1-.47a.67.67,0,0,1-.15.5c.4-.24,1.83-1,2.05-.58s-.17,1.57-1.38,3c1.65-1.62,2.1-3.13,1.92-3.53S91.67,61,91.25,61.26Zm-.11.06.1-.06A.22.22,0,0,1,91.14,61.32Z"/>
                      <path class="cls-30" d="M91.24,61.26a.22.22,0,0,1-.1.06Z"/>
                      <path class="cls-31" d="M89,67.13c-.09-.8-.15-1.61-.2-2.41s-.08-1.61-.09-2.41,0-1.62.1-2.42a9.93,9.93,0,0,1,.18-1.2,3.91,3.91,0,0,1,.42-1.17.07.07,0,0,1,.09,0s.05,0,0,.07h0a3.77,3.77,0,0,0-.38,1.13c-.07.4-.12.79-.15,1.19a21.36,21.36,0,0,0,0,2.4c0,.8.07,1.6.14,2.4s.15,1.6.25,2.4h0a.17.17,0,0,1-.17.17.17.17,0,0,1-.2-.14Z"/>
                      <path class="cls-31" d="M91.73,61.77c-.25.19-.5.38-.74.58s-.49.39-.73.59l-.7.61-.32.32a1.73,1.73,0,0,0-.27.35l0,.08-.06-.07-.38-.45-.39-.44c-.25-.3-.52-.59-.78-.87s-.54-.58-.82-.85a11.28,11.28,0,0,0-.89-.8l.25.18.23.18.23.2.23.2c.29.27.58.54.85.83s.54.57.81.86l.76.89h-.11a2,2,0,0,1,.29-.36c.11-.12.22-.22.33-.33s.48-.41.72-.6.5-.39.76-.57S91.46,61.94,91.73,61.77Z"/>
                      <path class="cls-31" d="M87.33,58c.14.2.27.41.4.61l.4.62c.27.41.53.82.78,1.24h0v0l0,1.29-.12,0a7.06,7.06,0,0,1,.73-1.08,4.24,4.24,0,0,1,.46-.49,2.3,2.3,0,0,1,.57-.39,2,2,0,0,0-.53.42,5.15,5.15,0,0,0-.43.5,11.4,11.4,0,0,0-.69,1.08l-.12.24V61.8l0-1.3v0c-.26-.42-.51-.83-.75-1.25-.12-.22-.25-.42-.37-.64S87.44,58.22,87.33,58Z"/>
                      <path class="cls-31" d="M87,60.89c0,.2,0,.4,0,.61l0,.6,0,0,.41.42c.14.14.27.29.4.43l.16.17L87.8,63,87,62.73l-.41-.13a3,3,0,0,0-.4-.12,3.07,3.07,0,0,1,.42.07l.42.11.81.24-.07.09c-.14-.14-.27-.28-.4-.43s-.27-.28-.4-.43h0v0c0-.2,0-.4,0-.6Z"/>
                      <path class="cls-31" d="M90.74,62c0,.1,0,.2,0,.3s0,.2,0,.3h0c-.13.13-.26.26-.4.38l-.21.19-.11.09-.07,0h0l0,0a0,0,0,0,0,0-.05h0l.28.06.3,0,.58.11-.6,0c-.2,0-.39,0-.6-.07h-.07a.12.12,0,0,1,0-.05l0,0h0l.05,0,.1-.08.21-.18.43-.36v0l.06-.3Z"/>
                    </g>
                    <path class="cls-31" d="M99.2,71.8c-2-.81-4.06-1.68-6.06-2.58s-4-1.83-5.9-2.81q-1.45-.73-2.88-1.5c-1-.51-1.9-1-2.83-1.58-.47-.27-.93-.55-1.37-.85a13.56,13.56,0,0,1-1.26-1c-.21-.17-.4-.34-.59-.52s-.37-.36-.55-.55c-.37-.36-.71-.75-1.05-1.13.36.37.71.75,1.09,1.1.18.19.38.36.57.53l.6.51c.41.32.84.63,1.29.92s.91.55,1.38.81c1.91,1,3.83,2,5.78,3s3.94,1.86,5.94,2.72,4,1.7,6.08,2.47h0a.23.23,0,0,1,.15.33.32.32,0,0,1-.39.13Z"/>
                    <path class="cls-31" d="M76.85,64h1.44l1.45,0,1.44,0,.71,0,.36,0a1.76,1.76,0,0,0,.33-.07v.1l-1.14-.64-.05,0,0-.05a1.76,1.76,0,0,0,.19-.39c.05-.13.08-.27.12-.41a4.81,4.81,0,0,0,.1-.85v-.43a3,3,0,0,0,0-.42c0-.15,0-.29-.06-.43l-.09-.43c0,.14.08.28.11.42s.07.29.09.43.05.29.06.43l0,.22v.21a5.1,5.1,0,0,1-.07.87,3.31,3.31,0,0,1-.12.42,2.6,2.6,0,0,1-.19.42l0-.08,1.14.63.11.06-.12,0a1.17,1.17,0,0,1-.36.08l-.36,0-.73,0q-.72,0-1.44,0H78.29Z"/>
                    <path class="cls-31" d="M75.59,60.87c.38.19.76.37,1.15.54s.77.35,1.17.51a12.15,12.15,0,0,0,1.2.42,6.23,6.23,0,0,0,.62.15,1.55,1.55,0,0,0,.61,0v.09l-1.15-.82,0,0v0c0-.44,0-.88,0-1.31,0-.22,0-.44,0-.66a2.85,2.85,0,0,0-.11-.65,2.92,2.92,0,0,1,.15.65c0,.21.06.43.08.65,0,.44.08.88.09,1.32l0,0,1.16.81.09.07-.11,0a1.57,1.57,0,0,1-.68,0,4.61,4.61,0,0,1-.64-.16A9.66,9.66,0,0,1,77.86,62l-1.16-.53C76.33,61.27,76,61.08,75.59,60.87Z"/>
                  </g>
                  <g>
                    <path class="cls-30" d="M99.15,69.18s-3.09,6.24-.5,4.47c0,0-.54,4,.51,2.37,0,0,.12,1.39.77,1.28s.49-1.4.49-1.4.84.54,1,.19a3.65,3.65,0,0,0,.11-1.25s1.39,3.07,2.15,2.63a2.08,2.08,0,0,0,.86-1.5s2.53,1.58,2.78.72-2.12-2.59-2.12-2.59,1.12-.12,1-.68-2.69-1.1-2.69-1.1,1.49.26,1.17-.14-.59-.31-.59-.31,2.35,0,2.17-.6S103.53,69.07,99.15,69.18Z"/>
                    <path class="cls-24" d="M98,71.93c-.49,1.4-.67,2.63.67,1.72,0,0-.54,4,.51,2.37,0,0,.12,1.39.77,1.28s.49-1.4.49-1.4.84.54,1,.19a3.34,3.34,0,0,0,.11-1.25c.07.14,1.41,3.07,2.15,2.63a2.08,2.08,0,0,0,.86-1.5s2.53,1.58,2.78.72c.13-.45-.46-1.14-1.06-1.7a1.16,1.16,0,0,1,.24.87c-.26.85-2.45-.64-2.45-.64a2.32,2.32,0,0,1-.82,1.51c-.68.45-1.76-2.41-1.81-2.54a4,4,0,0,1-.15,1.23c-.17.36-.9-.15-.9-.15s.09,1.27-.49,1.4-.63-1.25-.63-1.25c-1,1.66-.36-2.33-.36-2.33C97.85,73.89,97.75,73.09,98,71.93Z"/>
                    <path class="cls-30" d="M104.42,67.91s5.22,5.09,4.48,2.33c0,0,4,2.16,2.72.63,0,0,1.52.52,1.68,0s-1.25-1-1.25-1,1-.11.75-.39a25.87,25.87,0,0,0-4-.94s5.18,1,6.28-.51c.48-.68-1.2-1.31-1.2-1.31s2.75-1.27,2-1.84-3.65.51-3.65.51,1.25-1.44.63-1.61-3.22,2.12-3.22,2.12,2.34-2,1.48-2.38c-.51-.21-1.7,1.73-1.7,1.73s1-1.82.31-1.93S106.22,64.48,104.42,67.91Z"/>
                    <path class="cls-24" d="M104.42,67.91h0c1.68-2.81,4.35-4.05,4.93-4s-.29,1.78-.29,1.78a14.64,14.64,0,0,1,1.57-1.59c.39.12-1.41,2.2-1.41,2.2s2.43-2.13,3-2-.57,1.49-.57,1.49,2.63-1,3.35-.47c.43.31-.29.84-.94,1.23.56-.28,2.49-1.28,1.81-1.77s-3.65.51-3.65.51,1.25-1.44.63-1.61-2.65,1.62-3.13,2c.44-.39,2.15-2,1.39-2.29-.47-.19-1.52,1.44-1.68,1.7.13-.27.9-1.8.29-1.9S106.22,64.48,104.42,67.91Z"/>
                    <path class="cls-31" d="M98.67,68.15c.47.69,1,1.38,1.47,2s1,1.34,1.56,2,1.1,1.29,1.7,1.9c.31.31.62.6.95.88a5,5,0,0,0,1.1.72h0a.05.05,0,0,1,0,.08.07.07,0,0,1-.09,0,4.85,4.85,0,0,1-1.15-.72c-.34-.27-.67-.57-1-.87a24,24,0,0,1-1.76-1.89c-.56-.64-1.1-1.3-1.62-2s-1-1.35-1.53-2a.14.14,0,0,1,.06-.21.2.2,0,0,1,.26.05Z"/>
                    <path class="cls-31" d="M104.29,71.21l-1,0c-.33,0-.67,0-1-.07s-.67-.06-1-.11c-.16,0-.33,0-.49-.09a2.77,2.77,0,0,1-.49-.15l.09,0c0,.37,0,.74,0,1.11s0,.74,0,1.11-.05.73-.1,1.1c0,.09,0,.18,0,.27s0,.19,0,.28l-.06.27-.08.27a8.1,8.1,0,0,0,.16-1.1c0-.36,0-.73.06-1.1s0-.73,0-1.1V70.62l.09,0a3.09,3.09,0,0,0,.46.14l.48.09,1,.13,1,.1Z"/>
                    <path class="cls-31" d="M103.39,76.47c0-.23-.1-.46-.16-.69s-.09-.46-.14-.69c-.1-.46-.19-.93-.28-1.39v0c-.31-.34-.62-.68-.92-1l-.19-.2.27.12.64.28c.22.09.44.17.67.24a7,7,0,0,0,.69.18,2.41,2.41,0,0,0,.71.06,2.18,2.18,0,0,1-.72,0,5.59,5.59,0,0,1-.71-.15,10.19,10.19,0,0,1-1.34-.49l.08-.08.92,1h0l.24,1.4c0,.23.08.46.11.7S103.36,76.24,103.39,76.47Z"/>
                    <path class="cls-31" d="M101.13,74.33l-.45-.47-.43-.48,0,0h0c0-.19,0-.37,0-.55l0-.55.12,0c-.16.21-.32.42-.49.62a3.58,3.58,0,0,1-.26.29,1.92,1.92,0,0,1-.29.28l.25-.3.23-.31.45-.63.12-.19v.22l0,.54a4.93,4.93,0,0,1,0,.55v0c.14.16.27.33.4.5Z"/>
                    <path class="cls-31" d="M103.36,71.55l-.27-.2-.26-.21,0,0-.59-.07-.29,0-.15,0h-.1l0,0s0-.05,0-.05h0s0,0,0,0,.29-.24.44-.36a5.4,5.4,0,0,1,.46-.33l-.4.38-.2.19a1.7,1.7,0,0,0-.19.19l0,0h0s0,0,0,0l0,0h.09l.16,0,.29,0c.2,0,.4.06.59.09h0l.23.22Z"/>
                    <g>
                      <path class="cls-30" d="M99.21,67.32s7.89-.5,4.87-1.66c0,0,4.42-1.43,2.23-1.48,0,0,1.39-.72,1-1.16s-1.67.26-1.67.26.17-.89-.28-.85a5.48,5.48,0,0,0-1.35.48s2.57-2.47,1.76-2.84a3,3,0,0,0-2,0s.48-2.65-.52-2.45-1.73,2.8-1.73,2.8-.63-.79-1.17-.48.08,2.56.08,2.56-.41-1.26-.68-.83,0,.59,0,.59-1.11-1.77-1.62-1.38S97.1,64,99.21,67.32Z"/>
                      <path class="cls-24" d="M98.11,60.91c-.36.29-.74,1.81-.09,3.9-.37-1.71,0-2.93.28-3.18s1.31.92,1.55,1.28a.56.56,0,0,1,.12-.49c.25-.39.6.62.67.8-.07-.26-.57-2.23-.07-2.53s1.17.48,1.17.48.72-2.61,1.73-2.8a.39.39,0,0,1,.43.17c0-.53-.19-1-.62-.89-1,.2-1.73,2.8-1.73,2.8s-.63-.8-1.17-.48,0,2.28.07,2.53c-.06-.18-.42-1.19-.67-.8a.59.59,0,0,0-.12.49C99.41,61.81,98.55,60.58,98.11,60.91Zm1.55,1.28.07.1A.26.26,0,0,1,99.66,62.19Z"/>
                      <path class="cls-30" d="M99.66,62.19a.26.26,0,0,0,.07.1Z"/>
                      <path class="cls-31" d="M98.36,68.15c.5-.67,1-1.36,1.46-2.05s.93-1.4,1.36-2.11.84-1.43,1.2-2.16c.18-.37.34-.75.48-1.13a3.64,3.64,0,0,0,.24-1.16h0s0-.05.07-.05.07,0,.07.05a4.11,4.11,0,0,1-.22,1.21c-.13.39-.29.77-.46,1.15-.34.75-.74,1.48-1.15,2.2s-.86,1.43-1.32,2.14-.93,1.4-1.42,2.09a.2.2,0,0,1-.25.05.15.15,0,0,1-.06-.22Z"/>
                      <path class="cls-31" d="M99,62.47c.15.26.28.52.42.78s.26.53.38.8a7.27,7.27,0,0,1,.34.81,2.92,2.92,0,0,1,.13.42,2,2,0,0,1,.08.43l-.1,0c.38-.18.76-.34,1.15-.51l1.16-.47c.4-.15.79-.3,1.2-.43l.3-.09.31-.09.31-.08.31-.06c-.41.1-.81.24-1.21.38s-.78.29-1.17.45l-1.16.49-.57.25-.57.26-.09,0v-.09a3.12,3.12,0,0,0-.06-.41c0-.14-.08-.28-.13-.41-.1-.28-.2-.55-.31-.82s-.23-.53-.35-.8S99.09,62.74,99,62.47Z"/>
                      <path class="cls-31" d="M104.85,60.75l-.65.44-.65.43-1.31.84,0,0-.64,1.17-.13.24v-.26c0-.21,0-.41,0-.62s0-.41-.06-.62a4.29,4.29,0,0,0-.13-.6,1.67,1.67,0,0,0-.26-.58,1.73,1.73,0,0,1,.31.56,2.75,2.75,0,0,1,.16.61,6.6,6.6,0,0,1,.11,1.25l-.12,0c.21-.39.42-.79.64-1.18h0l1.34-.82.67-.4Z"/>
                      <path class="cls-31" d="M103.66,63.46l-.29.55-.3.55v0h0l-.57.23-.58.23,0-.1.85.08.43.07.42.09-.43,0-.43,0-.85,0-.25,0,.22-.09.58-.23.58-.23,0,0,.34-.54C103.42,63.81,103.53,63.63,103.66,63.46Z"/>
                      <path class="cls-31" d="M99.75,63l-.09.29-.09.3v0c.07.16.14.32.2.48l.1.24a.61.61,0,0,0,0,.12s0,0,0,0h0v0s0,0,0,0h-.08a5.32,5.32,0,0,1-.57-.16l-.55-.2.58.13.28.06.29.06h0a.08.08,0,0,0,0,0v0h0l0-.07a.61.61,0,0,0-.05-.12l-.09-.24c-.06-.17-.12-.33-.17-.49v0h0c0-.09.08-.19.13-.28Z"/>
                    </g>
                    <path class="cls-31" d="M87.13,68.16c2.24.08,4.49.09,6.73.07s4.49-.09,6.73-.21,4.48-.29,6.71-.48c.56-.06,1.11-.12,1.66-.21s1.09-.2,1.63-.34l.8-.23.78-.26c.52-.18,1-.38,1.54-.58-.5.21-1,.43-1.52.62l-.77.29-.8.25c-.53.15-1.08.28-1.63.39s-1.11.18-1.66.25c-1.12.14-2.23.25-3.35.35s-2.25.19-3.37.26q-3.36.23-6.74.3c-2.25.06-4.5.08-6.76,0a.25.25,0,1,1,0-.5Z"/>
                    <path class="cls-31" d="M111.19,70.08l-1.33-.5-1.3-.53c-.43-.18-.86-.38-1.29-.57-.21-.1-.42-.2-.62-.31l-.31-.17a3.06,3.06,0,0,1-.29-.21l-.08-.08.13,0,1.35-.13,0,.06a2.22,2.22,0,0,1,0-.45,3.31,3.31,0,0,1,.12-.42,4.22,4.22,0,0,1,.37-.81l.12-.19.13-.19c.08-.12.18-.24.27-.36s.2-.24.3-.35l.32-.33-.3.34-.28.36a3,3,0,0,0-.25.37l-.12.19L108,66a5.11,5.11,0,0,0-.35.8,3.2,3.2,0,0,0-.1.42,1.49,1.49,0,0,0,0,.42v0h-.06l-1.35.15,0-.1a1.34,1.34,0,0,0,.26.19l.29.17.62.32,1.28.58,1.28.55Z"/>
                    <path class="cls-31" d="M113.92,67.74c-.43.05-.87.09-1.3.12s-.88,0-1.32,0-.87,0-1.31-.05c-.22,0-.44-.06-.65-.11a1.35,1.35,0,0,1-.61-.27l-.08-.07.11,0,1.46-.3,0,0c.23-.39.49-.77.75-1.15.13-.19.27-.38.41-.56a3.8,3.8,0,0,1,.46-.52,4.63,4.63,0,0,0-.43.54c-.13.19-.25.38-.37.57-.25.38-.49.77-.72,1.16v0h0l-1.45.31,0-.1a1.33,1.33,0,0,0,.54.24,4.62,4.62,0,0,0,.63.11c.43.05.87.06,1.3.07s.88,0,1.31,0S113.48,67.77,113.92,67.74Z"/>
                  </g>
                </g>
              </g>
              <g class="cls-32">
                <path d="M57.25,79c1.09.31,2.2.6,3.3.87s2.22.53,3.33.77c2.23.48,4.47.92,6.73,1.3s4.51.72,6.78,1,4.55.52,6.83.72l1.71.13.86.06.85,0,1.72.1,1.72.07.85,0,.86,0,1.72,0H98.8l.86,0,1.72,0,1.71-.08.86,0,.42,0,.43,0,1.71-.12.86-.06.43,0,.42,0,1.71-.16c.57,0,1.13-.1,1.7-.18l1.7-.2.85-.1.84-.12,1.69-.25.85-.13.84-.15c2.24-.37,4.47-.82,6.68-1.32l1.65-.4.83-.19.82-.22.82-.21.81-.23.82-.22.81-.24.81-.24.81-.25c.54-.16,1.07-.34,1.6-.52.27-.08.53-.18.79-.27l.79-.28c.52-.19,1.05-.38,1.56-.59s1-.43,1.54-.64l1.49-.7a26.52,26.52,0,0,0,2.8-1.62l.33-.23.32-.23.31-.24.3-.25c.2-.16.38-.34.57-.52a3.44,3.44,0,0,0,.27-.27,3.33,3.33,0,0,0,.25-.28l.24-.29.22-.3.11-.15.09-.15c.06-.11.13-.21.18-.32a4.31,4.31,0,0,0,.47-1.33,4.06,4.06,0,0,0,0-1.39,4.85,4.85,0,0,0-.43-1.37,9,9,0,0,0-1.79-2.43,17.66,17.66,0,0,0-2.48-2A22.63,22.63,0,0,0,140,60.8c.52.21,1,.46,1.52.71s1,.53,1.44.82a18.18,18.18,0,0,1,2.64,2,9.09,9.09,0,0,1,2,2.47,5.2,5.2,0,0,1,.54,1.47,4.47,4.47,0,0,1,.06,1.55,4.93,4.93,0,0,1-.46,1.5c-.06.13-.13.24-.19.36l-.1.17a1,1,0,0,1-.11.17l-.23.34-.24.32a4,4,0,0,1-.27.31l-.27.3c-.2.2-.39.4-.6.58l-.3.27-.33.26-.32.26-.34.25a24.4,24.4,0,0,1-2.87,1.75c-.49.26-1,.51-1.51.75s-1,.47-1.55.69-1,.43-1.58.64l-.8.3-.8.29c-.54.19-1.07.38-1.62.56l-.81.26-.82.26-.82.25-.82.24-.82.24-.83.22-.83.23-.83.21-1.67.41c-2.23.54-4.49,1-6.76,1.39l-.85.16-.86.12-1.71.26-.86.13-.86.1-1.72.21a131,131,0,0,1-27.71,0C79.51,84.1,75,83.41,70.46,82.5,68.22,82,66,81.53,63.78,81S59.38,79.74,57.25,79Z"/>
              </g>
            </g>
            <g>
              <path class="cls-23" d="M401.39,64.23V92.06c0,10.75-28.52,19.47-63.7,19.47-30.87,0-56.59-6.7-62.46-15.61a10.17,10.17,0,0,1-.76-1.51,6.27,6.27,0,0,1-.47-2.35V64.23Z"/>
              <path class="cls-24" d="M401.39,64.23V92.06c0,10.75-28.52,19.47-63.7,19.47-30.87,0-56.59-6.7-62.46-15.61a10.17,10.17,0,0,1-.76-1.51c55.37,13.6,84,11,108.19-3,7.66-4.43,16.8-19.8,16.1-27.13Z"/>
              <path class="cls-24" d="M275.23,95.92c54.93,24.49,107.5,8.47,118.55,1.28,9-5.93,7.58-25.91,6.71-33h.9V92.06c0,10.75-28.52,19.47-63.7,19.47C306.82,111.53,281.1,104.83,275.23,95.92Z"/>
              <ellipse class="cls-33" cx="338.31" cy="65.25" rx="63.71" ry="19.46"/>
              <path class="cls-26" d="M401.39,64.23a5.59,5.59,0,0,1-.17,1.34C399,55.44,371.39,47.46,337.69,47.46s-61.29,8-63.53,18.11a5.58,5.58,0,0,1-.16-1.34c0-10.75,28.52-19.47,63.69-19.47S401.39,53.48,401.39,64.23Z"/>
              <path class="cls-34" d="M337.69,44.15c-36.13,0-64.4,8.82-64.4,20.07s28.27,20,64.4,20,64.4-8.79,64.4-20S373.82,44.15,337.69,44.15Zm0,38.92c-34.76,0-63-8.45-63-18.85s28.24-18.87,63-18.87,63,8.48,63,18.87S372.45,83.07,337.69,83.07Z"/>
              <g class="cls-28">
                <path class="cls-15" d="M291.8,79.78c1,.28,2,.51,3,.72s2,.41,3,.59,2,.35,3.05.5l.76.12.76.11L304,82l.76.11.77.09.77.09.76.09c1,.12,2.05.22,3.08.32l1.54.14,1.54.12.77.06.77.06,1.55.11c4.12.25,8.24.42,12.37.48,1,0,2.06,0,3.09,0h3.1c2.06,0,4.13,0,6.19-.09l1.55,0,.78,0,.77,0,3.1-.11,3.1-.14,3.1-.15,3.09-.19,1.55-.1,1.54-.11,3.09-.24,1.54-.14,1.54-.14.77-.08.76-.08,1.54-.16,3.07-.37q3.06-.39,6.1-.91c2-.35,4-.77,6-1.26,1-.25,2-.52,2.94-.84.48-.15,1-.32,1.43-.5l.7-.29c.23-.11.46-.21.68-.33a10.91,10.91,0,0,1-1.28.78c-.44.23-.9.46-1.36.66-.93.42-1.89.79-2.86,1.14-1.94.68-3.93,1.26-5.94,1.76s-4.05.94-6.09,1.32-4.11.71-6.17,1l-1.55.21-1.56.2c-1,.13-2.07.24-3.11.35l-1.55.16-1.56.15-3.12.25-3.13.22-3.12.18c-2.09.1-4.17.18-6.26.24l-.79,0h-.78l-1.57,0h-3.14c-2.09,0-4.18,0-6.27-.11L327,85.9l-1.57-.07c-1-.06-2.09-.11-3.13-.19-2.08-.14-4.17-.33-6.25-.55l-1.55-.18-.78-.09-.78-.1-1.55-.21-1.54-.22L308.28,84l-1.54-.26-.77-.14-.76-.15c-.51-.1-1-.19-1.53-.3l-1.53-.33-.75-.17-.76-.18c-1-.23-2-.49-3-.77A50.51,50.51,0,0,1,291.8,79.78Z"/>
              </g>
              <g class="cls-28">
                <path class="cls-15" d="M276.76,73.3c.63,2.47,1.13,4.93,1.64,7.38l.39,1.84c.14.61.26,1.22.4,1.83s.27,1.21.43,1.81.3,1.2.47,1.79.36,1.17.57,1.74a8.93,8.93,0,0,0,.73,1.59l.11.18.06.08a.35.35,0,0,1,.05.08l.06.07,0,0,.06.06.07.06a6.73,6.73,0,0,0,.72.54c.54.35,1.13.69,1.73,1,1.21.66,2.46,1.3,3.72,1.93l1.89,1,.94.47.48.24.48.23a5.12,5.12,0,0,1-.54-.1l-.54-.12-1.06-.28c-.7-.19-1.4-.4-2.09-.62-1.38-.44-2.74-.93-4.08-1.5-.66-.29-1.33-.59-2-.95a7.89,7.89,0,0,1-1-.64l-.13-.1-.13-.12-.13-.13-.1-.12-.1-.11-.09-.12-.17-.23a9,9,0,0,1-.55-.93q-.22-.47-.42-.93c-.25-.62-.45-1.24-.64-1.87s-.33-1.25-.48-1.87-.25-1.25-.36-1.88-.2-1.26-.27-1.88l-.1-1-.09-.94c-.1-1.26-.16-2.52-.17-3.78q0-.94,0-1.89C276.65,74.56,276.69,73.93,276.76,73.3Z"/>
              </g>
              <g>
                <ellipse class="cls-35" cx="335" cy="68.92" rx="1.79" ry="0.8"/>
                <ellipse class="cls-35" cx="364.03" cy="74.62" rx="1.79" ry="0.8"/>
                <ellipse class="cls-35" cx="306.57" cy="71.13" rx="1.79" ry="0.8"/>
                <ellipse class="cls-35" cx="303" cy="58.56" rx="1.79" ry="0.8"/>
                <ellipse class="cls-35" cx="281.35" cy="65.99" rx="1.79" ry="0.8"/>
                <ellipse class="cls-35" cx="365.02" cy="57.99" rx="1.79" ry="0.8"/>
                <ellipse class="cls-35" cx="334.13" cy="51.15" rx="1.79" ry="0.8"/>
                <ellipse class="cls-35" cx="383.7" cy="62.45" rx="1.79" ry="0.8"/>
              </g>
              <g>
                <g>
                  <path class="cls-36" d="M314.37,64.49a27.73,27.73,0,0,1-1.46-3.06c-.79-1.91,3.94-3.82,6.69-4.61,2-.58,3.69-1.34,5.5-1.09a13.67,13.67,0,0,1,2.9,1.09c.52.56,2.62,5.62,2.62,6.74S317.12,64.6,314.37,64.49Z"/>
                  <path class="cls-37" d="M313.74,64.77a10.22,10.22,0,0,1-3-3.15c-1-1.83,3.5-4.12,6.16-5.12s7.78-1.19,8.36-.67,3.23,5.38,3.35,6.5S316.5,64.66,313.74,64.77Z"/>
                  <g class="cls-38">
                    <path class="cls-15" d="M313.24,63a4.37,4.37,0,0,1-.49-.56,4.22,4.22,0,0,1-.42-.62,3.52,3.52,0,0,1-.31-.68,2.12,2.12,0,0,1-.08-.38,1.23,1.23,0,0,1,0-.42,1.28,1.28,0,0,1,.09-.22.61.61,0,0,1,.07-.1l0-.05,0,0a3.76,3.76,0,0,1,.29-.28,7.34,7.34,0,0,1,.6-.51c.2-.16.42-.31.63-.46l.67-.42a11.48,11.48,0,0,1,3-1.23,7.64,7.64,0,0,1,1.65-.24h.63l.21,0,.41.05.39.09a9.57,9.57,0,0,0-3.09.57,16.45,16.45,0,0,0-2.75,1.29c-.44.25-.86.52-1.27.81L313,60l-.27.23,0,0s0,0,0,0,0,0,0,0l-.06.1a1.23,1.23,0,0,0,0,.58,4.1,4.1,0,0,0,.16.65A10.19,10.19,0,0,0,313.24,63Z"/>
                  </g>
                </g>
                <g>
                  <path class="cls-36" d="M358.66,64A27.73,27.73,0,0,0,360.12,61c.79-1.91-3.94-3.82-6.69-4.61-2-.58-3.69-1.34-5.5-1.09a13.67,13.67,0,0,0-2.9,1.09c-.53.56-2.63,5.62-2.63,6.74S355.9,64.15,358.66,64Z"/>
                  <path class="cls-37" d="M359.29,64.32a10.22,10.22,0,0,0,3-3.15c1-1.84-3.5-4.12-6.16-5.12s-7.78-1.19-8.36-.67-3.23,5.38-3.35,6.5S356.53,64.21,359.29,64.32Z"/>
                  <g class="cls-38">
                    <path class="cls-15" d="M359.79,62.52a9.73,9.73,0,0,0,.55-1.3,3.75,3.75,0,0,0,.16-.64,1.1,1.1,0,0,0,0-.58.31.31,0,0,0,0-.1l0,0,0,0,0,0a3.23,3.23,0,0,0-.27-.23c-.19-.15-.39-.29-.59-.43-.41-.29-.83-.56-1.27-.81a15.7,15.7,0,0,0-2.75-1.29,9.57,9.57,0,0,0-3.09-.57l.39-.09.41,0,.21,0h.21c.14,0,.28,0,.42,0a7.73,7.73,0,0,1,1.65.24,11.28,11.28,0,0,1,3,1.23l.68.42c.21.15.43.3.63.46s.41.33.6.5a4,4,0,0,1,.29.29l0,0,0,0,.07.11a1,1,0,0,1,.09.22,1.23,1.23,0,0,1,0,.42,2.12,2.12,0,0,1-.08.38,3.52,3.52,0,0,1-.31.68,5.19,5.19,0,0,1-.42.62A4.37,4.37,0,0,1,359.79,62.52Z"/>
                  </g>
                  <g>
                    <path class="cls-39" d="M346.94,59.55c0,.09-.26.17-.58.17s-.57-.08-.57-.17.26-.17.57-.17S346.94,59.45,346.94,59.55Z"/>
                    <path class="cls-39" d="M350.15,62.35c0,.1-.26.17-.57.17s-.58-.07-.58-.17.26-.17.58-.17S350.15,62.26,350.15,62.35Z"/>
                  </g>
                  <g class="cls-38">
                    <ellipse class="cls-15" cx="347.53" cy="61.94" rx="0.48" ry="0.14"/>
                  </g>
                </g>
                <g>
                  <path class="cls-36" d="M347.74,68a38,38,0,0,0,2.06-4.31c1.11-2.7-5.55-5.39-9.43-6.5-2.87-.82-5.2-1.89-7.76-1.54a19.63,19.63,0,0,0-4.09,1.54c-.74.79-3.7,7.92-3.7,9.51S343.86,68.18,347.74,68Z"/>
                  <path class="cls-37" d="M348.63,68.42a14.38,14.38,0,0,0,4.2-4.44c1.4-2.59-4.94-5.81-8.69-7.22s-11-1.68-11.79-.95-4.54,7.59-4.72,9.17S344.74,68.27,348.63,68.42Z"/>
                  <g class="cls-38">
                    <path class="cls-15" d="M349.34,65.88a14.5,14.5,0,0,0,.77-1.83c.05-.15.1-.3.14-.46a3.58,3.58,0,0,0,.09-.45,2.2,2.2,0,0,0,0-.44,1.06,1.06,0,0,0-.07-.37,1,1,0,0,0-.08-.15l0,0,0,0,0,0-.38-.32c-.27-.21-.55-.42-.84-.62-.58-.4-1.17-.78-1.79-1.13a23.33,23.33,0,0,0-3.88-1.83,13.37,13.37,0,0,0-4.36-.79,8.11,8.11,0,0,1,2.31-.25,11.39,11.39,0,0,1,2.33.34,16.11,16.11,0,0,1,4.23,1.74c.32.19.64.39.94.59s.61.42.9.65.58.46.85.71.27.25.4.4l0,.05.06.07a.65.65,0,0,1,.1.15,1.37,1.37,0,0,1,.13.31,1.54,1.54,0,0,1,0,.6,1.93,1.93,0,0,1-.11.53,4.61,4.61,0,0,1-.43,1,8.32,8.32,0,0,1-.59.87A7.36,7.36,0,0,1,349.34,65.88Z"/>
                  </g>
                </g>
              </g>
            </g>
            <g>
              <path class="cls-23" d="M282.93,87.22V115.5c0,10.92-29,19.78-64.72,19.78-31.36,0-57.5-6.81-63.47-15.87a10,10,0,0,1-.77-1.53,6.44,6.44,0,0,1-.48-2.38V87.22Z"/>
              <path class="cls-24" d="M282.93,87.22V115.5c0,10.92-29,19.78-64.72,19.78-31.36,0-57.5-6.81-63.47-15.87a10,10,0,0,1-.77-1.53c56.26,13.82,85.34,11.14,109.93-3.09,7.78-4.51,17.07-20.12,16.36-27.57Z"/>
              <path class="cls-24" d="M154.74,119.41C210.56,144.3,264,128,275.2,120.72c9.11-6,7.7-26.32,6.82-33.5h.91V115.5c0,10.92-29,19.78-64.72,19.78C186.85,135.28,160.71,128.47,154.74,119.41Z"/>
              <ellipse class="cls-40" cx="218.21" cy="87.21" rx="64.73" ry="19.77"/>
              <path class="cls-26" d="M282.93,87.22a5.28,5.28,0,0,1-.17,1.36c-2.27-10.29-30.31-18.4-64.55-18.4s-62.28,8.11-64.55,18.4a5.76,5.76,0,0,1-.17-1.36c0-10.93,29-19.79,64.72-19.79S282.93,76.29,282.93,87.22Z"/>
              <path class="cls-34" d="M218.21,66.82c-36.71,0-65.43,9-65.43,20.39s28.72,20.37,65.43,20.37,65.43-8.93,65.43-20.37S254.92,66.82,218.21,66.82Zm0,39.55c-35.32,0-64-8.59-64-19.16S182.89,68,218.21,68s64,8.61,64,19.17S253.52,106.37,218.21,106.37Z"/>
              <g class="cls-28">
                <path class="cls-15" d="M171.59,103c1,.28,2,.52,3,.73s2.06.41,3.08.6,2.07.36,3.1.51l.78.12.78.11c.51.08,1,.14,1.55.21l.78.1.78.1.78.09.78.09c1,.12,2.08.22,3.13.32l1.56.14,1.57.13.78.07.78,0,1.57.11q6.28.39,12.57.49c1.05,0,2.1,0,3.15,0h3.14c2.1,0,4.2,0,6.3-.1l1.57,0,.79,0,.78,0,3.15-.12,3.15-.13,3.15-.16,3.14-.19,1.57-.1,1.57-.11,3.14-.25,1.56-.13,1.57-.16.78-.07.78-.08,1.56-.17,3.12-.37c2.07-.27,4.14-.57,6.19-.93s4.1-.78,6.11-1.28c1-.26,2-.53,3-.85.49-.16,1-.33,1.46-.51l.71-.3c.23-.1.46-.21.68-.33a9.88,9.88,0,0,1-1.29.79c-.45.24-.92.47-1.39.68-.94.42-1.91.8-2.9,1.15-2,.7-4,1.28-6,1.79s-4.11,1-6.19,1.34-4.17.72-6.27,1l-1.57.22-1.58.19c-1,.14-2.11.25-3.16.36l-1.58.16-1.59.15c-1.05.1-2.11.18-3.17.26l-3.17.22-3.18.18c-2.12.11-4.23.19-6.36.25l-.79,0h-.8l-1.6,0H215.3c-2.13,0-4.25,0-6.38-.11l-1.59-.07-1.59-.07c-1.07-.06-2.13-.11-3.19-.2-2.12-.14-4.23-.33-6.34-.55l-1.59-.18-.79-.1-.78-.1-1.58-.21-1.57-.23-1.57-.25-1.57-.27-.78-.14-.78-.15-1.55-.31c-.52-.1-1-.21-1.55-.33l-.77-.17-.77-.18c-1-.25-2-.51-3.05-.79A49,49,0,0,1,171.59,103Z"/>
              </g>
              <g class="cls-28">
                <path class="cls-15" d="M156.3,96.43c.64,2.51,1.15,5,1.67,7.51l.39,1.86c.14.62.27,1.24.41,1.86s.28,1.23.43,1.84.31,1.22.49,1.82.36,1.19.57,1.77a10,10,0,0,0,.75,1.62,1,1,0,0,0,.11.17l0,.09.06.08.06.07,0,0,.06.06.07.07a6.94,6.94,0,0,0,.73.54c.55.36,1.15.7,1.77,1,1.22.67,2.49,1.32,3.77,2l1.92,1,1,.49.48.24.5.23a5,5,0,0,1-.56-.1l-.54-.12-1.08-.28c-.71-.2-1.42-.41-2.12-.63-1.41-.45-2.79-1-4.15-1.53-.68-.3-1.35-.6-2-1a7.7,7.7,0,0,1-1-.65l-.13-.1-.13-.12-.14-.13-.1-.12-.1-.12-.09-.12c-.06-.08-.12-.15-.17-.23a7.85,7.85,0,0,1-.56-1c-.16-.31-.3-.63-.43-.94-.26-.63-.46-1.27-.65-1.9s-.34-1.27-.48-1.9-.26-1.28-.37-1.91-.2-1.28-.27-1.92l-.11-1-.09-.95c-.1-1.28-.16-2.56-.17-3.84,0-.64,0-1.28,0-1.92S156.22,97.07,156.3,96.43Z"/>
              </g>
              <path class="cls-40" d="M282.22,87.21c0,10.57-28.7,19.16-64,19.16s-64-8.59-64-19.16c-.67-6.63,24.88-14.74,56.88-19.18a50.09,50.09,0,0,1,14.26,0C255.89,72.6,282.88,84.36,282.22,87.21Z"/>
              <g>
                <path class="cls-41" d="M179.64,82.44c.14.36-.71.93-1.89,1.28s-2.27.34-2.41,0,.7-.93,1.89-1.27S179.49,82.09,179.64,82.44Z"/>
                <path class="cls-41" d="M162.56,86.17c.14.36-.7.93-1.89,1.28s-2.26.34-2.41,0,.71-.93,1.89-1.28S162.42,85.81,162.56,86.17Z"/>
                <ellipse class="cls-41" cx="190.27" cy="90.15" rx="2.24" ry="0.69" transform="translate(-17.31 54.94) rotate(-15.73)"/>
                <ellipse class="cls-41" cx="173.75" cy="93.9" rx="2.24" ry="0.69" transform="translate(-18.95 50.6) rotate(-15.73)"/>
                <ellipse class="cls-41" cx="205.05" cy="91.05" rx="2.24" ry="0.69" transform="translate(-17 58.98) rotate(-15.73)"/>
                <ellipse class="cls-41" cx="195.24" cy="81.02" rx="2.24" ry="0.69" transform="translate(-14.65 55.95) rotate(-15.73)"/>
                <ellipse class="cls-41" cx="213.23" cy="81.92" rx="2.24" ry="0.69" transform="translate(-14.22 60.86) rotate(-15.73)"/>
                <ellipse class="cls-41" cx="243.88" cy="91" rx="2.24" ry="0.69" transform="translate(-15.54 69.5) rotate(-15.73)"/>
                <ellipse class="cls-41" cx="234.07" cy="80.97" rx="2.24" ry="0.69" transform="matrix(0.96, -0.27, 0.27, 0.96, -13.18, 66.47)"/>
                <path class="cls-41" d="M207.81,72.94c.14.35-.7.92-1.89,1.27s-2.26.34-2.41,0,.71-.93,1.89-1.27S207.67,72.58,207.81,72.94Z"/>
                <ellipse class="cls-41" cx="216.67" cy="68.34" rx="2.24" ry="0.69" transform="translate(-10.41 61.28) rotate(-15.73)"/>
                <path class="cls-41" d="M191.71,72.94c.14.35-.7.92-1.89,1.27s-2.26.34-2.41,0,.71-.93,1.89-1.27S191.57,72.58,191.71,72.94Z"/>
                <path class="cls-41" d="M228.49,72.94c.14.35-.7.92-1.89,1.27s-2.27.34-2.41,0,.71-.93,1.89-1.27S228.35,72.58,228.49,72.94Z"/>
                <ellipse class="cls-41" cx="243.9" cy="73.52" rx="2.24" ry="0.69" transform="translate(-10.8 68.85) rotate(-15.73)"/>
                <path class="cls-41" d="M225.66,91.27c.14.36-.7.93-1.89,1.28s-2.26.34-2.41,0,.71-.93,1.89-1.27S225.52,90.92,225.66,91.27Z"/>
                <ellipse class="cls-41" cx="252.06" cy="81.87" rx="2.24" ry="0.69" transform="translate(-12.76 71.38) rotate(-15.73)"/>
                <ellipse class="cls-41" cx="195.1" cy="99.27" rx="2.24" ry="0.69" transform="matrix(0.96, -0.27, 0.27, 0.96, -19.6, 56.59)"/>
                <ellipse class="cls-41" cx="213.09" cy="100.17" rx="2.24" ry="0.69" transform="translate(-19.17 61.5) rotate(-15.73)"/>
                <ellipse class="cls-41" cx="233.93" cy="99.22" rx="2.24" ry="0.69" transform="translate(-18.14 67.11) rotate(-15.73)"/>
                <path class="cls-41" d="M262.36,94.9c.14.36-.71.93-1.89,1.28s-2.27.34-2.41,0,.7-.93,1.89-1.28S262.21,94.54,262.36,94.9Z"/>
                <ellipse class="cls-41" cx="268.95" cy="85.43" rx="2.24" ry="0.69" transform="translate(-13.09 76.09) rotate(-15.73)"/>
              </g>
            </g>
          </g>
        </g>
      </g>
    </g>
  </g>
</svg>
