<svg xmlns="http://www.w3.org/2000/svg" width="388.95" height="190.62" viewBox="0 0 388.95 190.62">
  <defs>
    <style>
      .cls-1 {
        isolation: isolate;
      }

      .cls-2 {
        fill: #353535;
        opacity: 0.3;
      }

      .cls-3 {
        fill: #ff0;
      }

      .cls-4 {
        fill: #fac294;
      }

      .cls-5 {
        fill: #9d2021;
      }

      .cls-6, .cls-7 {
        fill: #ef9799;
      }

      .cls-15, .cls-19, .cls-21, .cls-7 {
        opacity: 0.5;
      }

      .cls-20, .cls-7 {
        mix-blend-mode: screen;
      }

      .cls-8 {
        fill: #fff;
      }

      .cls-9 {
        fill: #cbcac1;
      }

      .cls-10 {
        fill: #cccbc2;
      }

      .cls-10, .cls-12, .cls-13, .cls-19, .cls-21 {
        mix-blend-mode: multiply;
      }

      .cls-11 {
        fill: #e7e8da;
      }

      .cls-13, .cls-14 {
        fill: #eae8db;
      }

      .cls-15 {
        fill: #f17997;
      }

      .cls-16, .cls-19 {
        fill: #ea5f59;
      }

      .cls-17 {
        fill: none;
      }

      .cls-18, .cls-20 {
        fill: #e96774;
      }
    </style>
  </defs>
  <g class="cls-1">
    <g id="Layer_1" data-name="Layer 1">
      <g>
        <path class="cls-2" d="M198.53,190.62c-33.09,0-63.78-7.24-65.07-7.55l-.26-.06C62.12,164.44,28.88,95.84,18.66,69.86A13,13,0,0,1,7.1,59.72C5.31,51.54,4.77,45.44,5.5,41.59c1.65-8.65,9.89-13.16,16.82-15.44L27,24.08A13,13,0,0,1,42,27.35l11.15-.93a272.43,272.43,0,0,0,35.46-6.73c4.36-1.2,8.77-2.46,13.15-3.71,4.86-1.39,9.68-2.77,14.36-4l.23-.06c12.76-3.48,26-6.69,36.39-6.69a31.51,31.51,0,0,1,13.91,2.74,111.59,111.59,0,0,1,15.27,9.43c1.24.87,2.71,1.9,4,2.77l.89-.67c6.55-4.86,17.5-13,34.88-13a61.32,61.32,0,0,1,9.43.76c7,1.11,19.5,3.23,33.92,5.68,15.55,2.64,33.74,5.73,50.89,8.54,22.6,3.64,35.22,5.25,42.26,5.92a13,13,0,0,1,15.75-3.46c8.26,4,12.38,13.47,14.39,20.75.15.51.28,1,.38,1.54A13,13,0,0,1,376,61.71a13.47,13.47,0,0,1-2.3-.21l-.17.2c-3.28,3.9-34.52,47-45.58,66.22-14.75,25.65-53.25,50-93.62,59.14A163.1,163.1,0,0,1,198.53,190.62Z"/>
        <path class="cls-3" d="M193.34,185.43c-33.09,0-63.77-7.23-65.07-7.54l-.26-.07C56.93,159.25,23.69,90.65,13.47,64.67A13,13,0,0,1,1.91,54.53C.12,46.35-.41,40.25.32,36.4,2,27.75,10.2,23.25,17.13,21l4.71-2.07a13,13,0,0,1,14.93,3.27l11.15-.92A274,274,0,0,0,83.38,14.5c4.36-1.2,8.77-2.46,13.15-3.71,4.86-1.39,9.68-2.76,14.36-4l.23-.06C123.88,3.21,137.11,0,147.51,0a31.73,31.73,0,0,1,13.92,2.74,112.47,112.47,0,0,1,15.26,9.44c1.24.86,2.72,1.89,4,2.76.31-.23.61-.46.9-.66,6.54-4.87,17.49-13,34.88-13a61.26,61.26,0,0,1,9.42.75c7,1.11,19.5,3.23,33.93,5.68,15.55,2.64,33.73,5.73,50.88,8.54,22.6,3.64,35.22,5.25,42.26,5.92a13,13,0,0,1,5.6-4,13.17,13.17,0,0,1,4.46-.78,13,13,0,0,1,5.7,1.32c8.25,4,12.37,13.46,14.38,20.74.15.51.28,1,.38,1.54a13,13,0,0,1-12.72,15.53,12.53,12.53,0,0,1-2.3-.21l-.17.2c-3.27,3.91-34.52,47-45.58,66.22-14.75,25.65-53.25,50-93.62,59.15A163.07,163.07,0,0,1,193.34,185.43Z"/>
        <g>
          <path class="cls-4" d="M363,30.36c-.14.32,1.17,4,.61,4.66-2.52,3.08-63.74-7.4-74.05-9.14S178.46,38.82,178.46,38.82L114.4,19.23,75.29,32,22.44,36.36a49.2,49.2,0,0,0,4.62-5.6L21.74,33.1s-8.07,2.52-8.68,5.72,1.52,12.94,1.52,12.94.94-6.57,2.9-10.45a116.66,116.66,0,0,1,6.69,15c3,8.22,32.56,89.48,107.12,109,0,0,54.78,13.09,95,4s73.71-32.9,85.25-53,43-63.46,46.89-68.09,8-9.35,8-9.35,3.84,1.68,4.45,4.72C370.79,43.54,368.22,32.89,363,30.36Z"/>
          <path class="cls-5" d="M25.15,38.82,19.46,40.4s25.77,48.38,45.86,70S140.79,157.26,212,147.52s86.12-30.13,99.51-47.17S358.38,41,358.38,41s-9.13-1.36-10.05-2.22-127.2-7.52-142.42-5.25-70.6.78-85.82,0S25.15,38.82,25.15,38.82Z"/>
          <path class="cls-6" d="M48,68c7.11,4.66,14.11,9.75,21.86,13.32a145.44,145.44,0,0,0,25.07,8.59,485.59,485.59,0,0,0,51.76,10.49c14.83,2.08,30.34,3.45,45.25,1.1,7.47-2.1,15.33-2.48,23-3.56,8.91-1.25,17.8-2.58,26.66-4.18,16.52-3,34.43-6,49.61-13.43,8-4,15.59-9,23.9-12.37,8.59-3.53,17.26-5.68,24.89-11.29a89.36,89.36,0,0,0,15.79-15.12l.73-.83c-2.73-.45-7.51-1.31-8.16-1.92-.91-.86-127.2-7.52-142.42-5.25s-70.6.78-85.82,0-94.94,5.25-94.94,5.25l-3.41.94C26,52.3,37,60.77,48,68Z"/>
          <g>
            <path class="cls-7" d="M241.4,59.48a1.71,1.71,0,0,1-2.65-.73,16.83,16.83,0,0,0-1.59-2.27C236,55,234.29,54.24,233,52.94c0,0-.1,0-.07.07.74,1,1.64,1.86,2.4,2.85a22.12,22.12,0,0,1,1,2c.39.65.87,1.15,1.22,1.85,1,2.13,2.82,1.84,4.09.07C241.71,59.64,241.62,59.35,241.4,59.48Z"/>
            <path class="cls-7" d="M266,51s0,0,0,.05c4.79,2.62,6.31,7.46,7.53,12.42.06.27.45.12.48-.1C274.74,57.83,270.81,53,266,51Z"/>
            <path class="cls-7" d="M299.31,53.67a5.94,5.94,0,0,0-3.37-1.93s-.05,0,0,0a7.26,7.26,0,0,1,2.84,2.33c.32.51.44,1.12.73,1.61l1,1.66c.12.2.4,0,.39-.18A6.86,6.86,0,0,0,299.31,53.67Z"/>
            <path class="cls-7" d="M321.37,48.82a.35.35,0,0,0-.22-.25c-.14-.06-.3-.46-.4-.58a3.44,3.44,0,0,0-1-.73,3.61,3.61,0,0,0-.53-.33c-.09,0-.39,0-.32-.18s-.05-.08-.08,0-.12.19-.05.25c.28.25.58.48.86.75s.93.89.82,1.27.27.86.47,1.12a.28.28,0,0,0,.48-.16A2.7,2.7,0,0,0,321.37,48.82Z"/>
            <path class="cls-7" d="M337.86,50.24a9.21,9.21,0,0,0-1.42-3.69s-.11,0-.09.06a9.39,9.39,0,0,1,.13,1.3,11.45,11.45,0,0,1,.37,2.54c0,1.49-.33,2.94-.4,4.43,0,.49.61.37.76.06A8,8,0,0,0,337.86,50.24Z"/>
            <path class="cls-7" d="M190.81,60.76c-2.64,1.15-6,2-8.21-.37,0,0-.11,0-.08.08a5.52,5.52,0,0,0,3.94,2.93,5.27,5.27,0,0,0,4.81-1.94C191.54,61.1,191.3,60.55,190.81,60.76Z"/>
            <path class="cls-7" d="M137,57.56c-.62.34-1.19.76-1.8,1.11-1.29.73-2.22.2-3.39-.35a19.88,19.88,0,0,1-4.9-3.7s-.08,0-.06.06c1.72,2.17,2.7,4.13,5.32,5.37,2.19,1,3.84-.27,5.13-2C137.45,57.8,137.31,57.39,137,57.56Z"/>
            <path class="cls-7" d="M100.32,60.43c-2.07-.31-2.7-1.51-4-2.94a13.5,13.5,0,0,0-5.46-3.77s0,0,0,0a13.78,13.78,0,0,1,4.39,3.83,32,32,0,0,0,2.24,2.93c.65.65,2.58,1.51,3.07.33C100.58,60.66,100.53,60.46,100.32,60.43Z"/>
            <path class="cls-7" d="M72.53,55.13a15.14,15.14,0,0,0-2.27-3.3,5.36,5.36,0,0,0-1.19-1c-.51-.33-.15-.26-.64-.46-.17-.07-.85-.28-.87-.46s0,0-.06,0c0,.39.45.56.73.76a10,10,0,0,1,1.44,1.6c.79.92,1.18,3,2.51,3.26C72.38,55.6,72.6,55.31,72.53,55.13Z"/>
            <path class="cls-7" d="M51.21,47.12a9.58,9.58,0,0,0-1.12-.76c-.4-.24-.84-.2-1.23-.44-.06,0-.15.06-.09.11.26.23.62.31.87.54a13.77,13.77,0,0,1,1,1.34c.42.53,1,1.76,1.78,1.56a.55.55,0,0,0,.42-.65C52.79,48.11,51.73,47.53,51.21,47.12Z"/>
            <path class="cls-7" d="M37.59,52.93c-.25-1.2-.18-2.44-.44-3.63,0-.06-.1,0-.1,0,.05,1.28-.3,2.55-.22,3.85a8,8,0,0,0,1.07,3.5c.19.33.63-.07.56-.35C38.2,55.2,37.83,54.08,37.59,52.93Z"/>
          </g>
          <g>
            <g>
              <g>
                <path class="cls-8" d="M51.84,75s-5.23-2.56-3.56,4,8.42,24.71,14.07,26,5.3-8.16,4.65-9.82-3.59-14.47-4.65-15.3S51.84,75,51.84,75Z"/>
                <path class="cls-9" d="M62.19,79.7c-1.52,2.8.28,8,.74,10.77a100,100,0,0,0,3.22,12.92c1.58-2.53,1.29-7.16.85-8.28-.66-1.66-3.59-14.47-4.65-15.3Z"/>
                <path class="cls-8" d="M64.22,79.81S62,78.29,62.4,82s4.36,28.09,10,30.87,9.41,2.46,9.8-8.7a59.51,59.51,0,0,0-2.11-18.77S68.28,80.68,64.22,79.81Z"/>
                <path class="cls-9" d="M79.19,98.25c.65,3.49,1.58,6.91,2.54,10.32a31,31,0,0,0,.43-4.37,59.51,59.51,0,0,0-2.11-18.77l-1.74-.69C76.93,88.65,78.48,94.42,79.19,98.25Z"/>
                <g>
                  <path class="cls-8" d="M83.37,85.43S78.6,82.23,79,86.8s2.08,21.6,6.44,30.12,12.61,11.08,15.64,6,0-22.84,0-22.84-.73-6.49-2.48-8.57C97.58,90.3,83.37,85.43,83.37,85.43Z"/>
                  <path class="cls-10" d="M102.41,116.26a98.09,98.09,0,0,0-1.32-16.16,34.53,34.53,0,0,0-1.39-6.46C98.16,101.22,100.11,108.89,102.41,116.26Z"/>
                </g>
                <path class="cls-8" d="M105.18,93.66s-5.07-.83-4.82,4.15,4,32.4,13.33,34.47,14.75-5.81,14.75-15.16v-15s.35-2.23-2.21-2.23S105.18,93.66,105.18,93.66Z"/>
                <path class="cls-9" d="M125.49,112.43a76.5,76.5,0,0,0,1.36,12.5l.06.23a20.79,20.79,0,0,0,1.53-8v-15a2.86,2.86,0,0,0-.05-.8C124.46,100.06,125.4,110.25,125.49,112.43Z"/>
                <path class="cls-11" d="M129.06,102.12s-3-1.38-2.83,1.93.13,27.4,8.44,32.39,20.76,5,20.56-8.52a191.78,191.78,0,0,0-1-19.73s.41-.61-2.08-1.65S129.06,102.12,129.06,102.12Z"/>
                <path class="cls-8" d="M129.06,102.12s-3-1.38-2.83,1.93.13,27.4,8.44,32.39,20.76,5,20.56-8.52a191.78,191.78,0,0,0-1-19.73s.41-.61-2.08-1.65S129.06,102.12,129.06,102.12Z"/>
                <path class="cls-9" d="M150.43,119.65A46.05,46.05,0,0,0,154.55,133a15.64,15.64,0,0,0,.68-5.07,191.78,191.78,0,0,0-1-19.73s.41-.61-2.08-1.65a14.77,14.77,0,0,0-2-.57C148.5,109.15,150.12,117.64,150.43,119.65Z"/>
                <path class="cls-8" d="M186.92,130.83s.87-23.57-.67-22.26c-.39.34-27.7-1.56-32.27-2,0,0-3.22-.65-2.75,4.54s1.09,26.17,11.26,30.73S185.59,145.78,186.92,130.83Z"/>
              </g>
              <g>
                <path class="cls-8" d="M322,75s5.22-2.56,3.56,4-8.42,24.71-14.07,26-5.3-8.16-4.65-9.82,3.58-14.47,4.65-15.3S322,75,322,75Z"/>
                <path class="cls-9" d="M311.65,79.7c1.51,2.8-.28,8-.74,10.77a100,100,0,0,1-3.22,12.92c-1.58-2.53-1.29-7.16-.85-8.28.65-1.66,3.58-14.47,4.65-15.3Z"/>
                <path class="cls-8" d="M309.61,79.81s2.24-1.52,1.83,2.22-4.36,28.09-10,30.87-9.4,2.46-9.79-8.7a59.51,59.51,0,0,1,2.11-18.77S305.55,80.68,309.61,79.81Z"/>
                <path class="cls-9" d="M294.65,98.25c-.65,3.49-1.58,6.91-2.55,10.32a32.74,32.74,0,0,1-.42-4.37,59.51,59.51,0,0,1,2.11-18.77l1.74-.69C296.91,88.65,295.36,94.42,294.65,98.25Z"/>
                <g>
                  <path class="cls-8" d="M290.46,85.43s4.78-3.2,4.37,1.37-2.08,21.6-6.44,30.12-12.61,11.08-15.64,6,0-22.84,0-22.84.73-6.49,2.47-8.57C276.26,90.3,290.46,85.43,290.46,85.43Z"/>
                  <path class="cls-10" d="M271.43,116.26a96.89,96.89,0,0,1,1.32-16.16,34.53,34.53,0,0,1,1.39-6.46C275.68,101.22,273.73,108.89,271.43,116.26Z"/>
                </g>
                <path class="cls-8" d="M268.66,93.66s5.07-.83,4.82,4.15-4,32.4-13.33,34.47-14.75-5.81-14.75-15.16v-15s-.36-2.23,2.21-2.23S268.66,93.66,268.66,93.66Z"/>
                <path class="cls-9" d="M248.35,112.43a76.5,76.5,0,0,1-1.36,12.5c0,.08-.05.15-.07.23a20.79,20.79,0,0,1-1.52-8v-15a2.47,2.47,0,0,1,0-.8C249.37,100.06,248.43,110.25,248.35,112.43Z"/>
                <path class="cls-11" d="M244.78,102.12s3-1.38,2.83,1.93-.13,27.4-8.44,32.39-20.77,5-20.56-8.52a191.78,191.78,0,0,1,1-19.73s-.42-.61,2.08-1.65S244.78,102.12,244.78,102.12Z"/>
                <path class="cls-8" d="M244.78,102.12s3-1.38,2.83,1.93-.13,27.4-8.44,32.39-20.77,5-20.56-8.52a191.78,191.78,0,0,1,1-19.73s-.42-.61,2.08-1.65S244.78,102.12,244.78,102.12Z"/>
                <path class="cls-9" d="M223.41,119.65A45.76,45.76,0,0,1,219.28,133a15.94,15.94,0,0,1-.67-5.07,191.78,191.78,0,0,1,1-19.73s-.42-.61,2.08-1.65a14.35,14.35,0,0,1,2-.57C225.33,109.15,223.72,117.64,223.41,119.65Z"/>
                <path class="cls-9" d="M186.92,130.83s-.13-22.61.25-22.26,28.12-1.56,32.69-2c0,0,3.21-.65,2.75,4.54s-1.09,26.17-11.27,30.73S188.24,145.78,186.92,130.83Z"/>
                <path class="cls-8" d="M186.92,130.83s1.62-22.61,2-22.26,26.37-1.56,30.94-2c0,0,3.21-.65,2.75,4.54s-1.09,26.17-11.27,30.73S188.24,145.78,186.92,130.83Z"/>
              </g>
            </g>
            <g class="cls-12">
              <path class="cls-13" d="M325.56,79c1.66-6.57-3.56-4-3.56-4s-6.61,2.8-9.39,4.2l12.84.24C325.49,79.27,325.53,79.12,325.56,79Z"/>
              <path class="cls-14" d="M64.47,82.28s3.83,7.85,17.73,7.48c0,0-.84,8.67,19.1,11.46,0,0,6.12.13,7-2.34,0,0,3,6.13,12,7.66s24.57,3.75,24.57,3.75-.63,1.53,3,2.9,17.86,4.87,35.91,2.1c0,0,2.19-1.31,3.44-2.18,0,0,2.15,3.37,17.62,3.22s22.67-2.69,24.24-5c0,0,25.21-1.1,30.41-7.92s7.66-7.1,7.67-5.48,2.4,6,19.69-2.65c0,0,5-3.71,5.95-5.5,0,0,15.34-.21,18.62-7.18,0,0,3.84,4.72,13,.46.46-1.38.83-2.61,1.1-3.63l-12.84-.24a8.5,8.5,0,0,0-1.12.64.86.86,0,0,0-.19.24c-.48-1.06-1.69-.24-1.69-.24-3.42.73-12.26,4.2-15,5.28-.89-1.84-4.16.34-4.16.34s-14.2,4.87-15.24,6.1a7,7,0,0,0-1.08,2.11h0A3.56,3.56,0,0,0,274,94a1.18,1.18,0,0,0-.07.2l-.12.4-.06.19c-.13.47-.25.94-.35,1.41l0,.15h0c-.7-3.39-4.72-2.74-4.72-2.74s-18.48,6.23-21.05,6.23c-2.11,0-2.24,1.49-2.22,2a3.11,3.11,0,0,0-.61.2s-16.41,2.69-21.68,4h0l-.53.14-.06,0-.38.11-.07,0a2.2,2.2,0,0,0-.32.12,5.2,5.2,0,0,0-.52.24,2.29,2.29,0,0,0-1.35-.22c-3.89.38-24.55,1.83-30.86,2l-.08,0s0,0,0,0a8.41,8.41,0,0,1-1.73,0,9.94,9.94,0,0,0-.19,2.62c-.13-1.83-.36-2.93-.73-2.62s-27.7-1.56-32.27-2a2.28,2.28,0,0,0-1.35.22c-.17-.08-.32-.16-.52-.24a2.2,2.2,0,0,0-.32-.12l-.09,0-.36-.1-.08,0c-.15,0-.32-.09-.49-.13l-.06,0-.62-.15h0c-5.86-1.36-21-3.85-21-3.85a3.44,3.44,0,0,0-.61-.2c0-.54-.11-2-2.22-2-2.57,0-21-6.23-21-6.23s-4-.65-4.72,2.74v0s0,0,0-.06q-.16-.76-.39-1.53a.36.36,0,0,0,0-.1c0-.16-.09-.31-.14-.46s0-.09,0-.13a7.77,7.77,0,0,0-1.23-2.55c-1-1.23-15.24-6.1-15.24-6.1s-3.27-2.18-4.16-.34c-2.72-1.08-11.57-4.55-15-5.28,0,0-1.21-.82-1.68.24a1.1,1.1,0,0,0-.19-.24C61.28,79,51.84,75,51.84,75S48,73.09,48,76.76A19.73,19.73,0,0,0,64.47,82.28Z"/>
            </g>
            <g>
              <g>
                <path class="cls-8" d="M53.52,53.84s-6-9.25-12.34-8.3-1.11,22.77,11,33.21c0,0,9.89,4.81,12.1,1.62S53.52,53.84,53.52,53.84Z"/>
                <path class="cls-10" d="M53.06,53.18c-2.44,10.26,2.49,20,8.53,28.27a3.16,3.16,0,0,0,2.68-1.08c2.22-3.2-10.75-26.53-10.75-26.53S53.35,53.58,53.06,53.18Z"/>
                <path class="cls-8" d="M68.39,53.05s-7.59-8.36-14.24-3.19,5.06,28.89,11.39,34.27S81,88.25,82.31,85.71,73.43,56.79,68.39,53.05Z"/>
                <path class="cls-10" d="M75.19,75.74a47.21,47.21,0,0,0,5.35,11.35,3.34,3.34,0,0,0,1.77-1.38c.88-1.77-3.81-15.22-8.44-24.42C73.78,66.17,73.61,70.89,75.19,75.74Z"/>
                <g>
                  <path class="cls-8" d="M95.28,60.72s-7-10.6-16.45-6.88-3.48,21.75,1.9,31.87,10.12,9.81,16.45,12,10.31,1.61,9.43-5.21S100.8,66.15,95.28,60.72Z"/>
                  <path class="cls-10" d="M106.72,94.43a14.73,14.73,0,0,0-.11-1.9,114,114,0,0,0-6-22.4C100.57,78.23,101.3,86.14,106.72,94.43Z"/>
                </g>
                <g>
                  <path class="cls-8" d="M135.66,68S125,48.7,111.1,52.18s-10.13,28.16-6,37.33,10.65,14.24,13.39,15.19,24.23,5.1,26,4.13S140.93,79.07,135.66,68Z"/>
                  <path class="cls-10" d="M136,89.46c2,6.67,4.62,13.07,7.19,19.51a3.3,3.3,0,0,0,1.23-.14c1.75-1-3.53-29.76-8.8-40.83,0,0-.45-.81-1.27-2A58.73,58.73,0,0,0,136,89.46Z"/>
                </g>
                <path class="cls-8" d="M184.91,67.79S178.64,50,160,49.86s-23.2,8.65-24.26,21.3,5.7,35.43,11,40.92c0,0,14.34,6.11,36.7,1.47a4.8,4.8,0,0,0,3.16-3.79C187,106.81,187.44,77.28,184.91,67.79Z"/>
              </g>
              <g>
                <path class="cls-8" d="M320.32,53.84s6-9.25,12.34-8.3,1.11,22.77-11,33.21c0,0-9.88,4.81-12.1,1.62S320.32,53.84,320.32,53.84Z"/>
                <path class="cls-10" d="M320.78,53.18c2.44,10.26-2.49,20-8.53,28.27a3.17,3.17,0,0,1-2.69-1.08c-2.21-3.2,10.76-26.53,10.76-26.53S320.49,53.58,320.78,53.18Z"/>
                <path class="cls-8" d="M305.45,53.05s7.59-8.36,14.24-3.19-5.07,28.89-11.39,34.27-15.5,4.12-16.77,1.58S300.4,56.79,305.45,53.05Z"/>
                <path class="cls-10" d="M298.65,75.74a46.86,46.86,0,0,1-5.36,11.35,3.36,3.36,0,0,1-1.76-1.38c-.89-1.77,3.81-15.22,8.44-24.42C300.06,66.17,300.23,70.89,298.65,75.74Z"/>
                <g>
                  <path class="cls-8" d="M278.56,60.72s7-10.6,16.45-6.88,3.48,21.75-1.9,31.87-10.12,9.81-16.45,12-10.32,1.61-9.43-5.21S273,66.15,278.56,60.72Z"/>
                  <path class="cls-10" d="M267.12,94.43a13.13,13.13,0,0,1,.11-1.9,114,114,0,0,1,6-22.4C273.27,78.23,272.54,86.14,267.12,94.43Z"/>
                </g>
                <g>
                  <path class="cls-8" d="M238.18,68s10.64-19.3,24.56-15.82,10.12,28.16,6,37.33-10.66,14.24-13.39,15.19-24.24,5.1-26,4.13S232.91,79.07,238.18,68Z"/>
                  <path class="cls-10" d="M237.8,89.46c-2,6.67-4.62,13.07-7.19,19.51a3.36,3.36,0,0,1-1.24-.14c-1.74-1,3.54-29.76,8.81-40.83,0,0,.44-.81,1.26-2A58.54,58.54,0,0,1,237.8,89.46Z"/>
                </g>
                <path class="cls-8" d="M188.92,67.79S195.2,50,213.81,49.86s23.2,8.65,24.26,21.3-5.7,35.43-11,40.92c0,0-14.34,6.11-36.7,1.47a4.8,4.8,0,0,1-3.16-3.79C186.82,106.81,186.39,77.28,188.92,67.79Z"/>
              </g>
            </g>
          </g>
          <g class="cls-12">
            <path class="cls-15" d="M348.33,38.82c-.91-.86-127.2-7.52-142.42-5.25s-70.6.78-85.82,0-94.94,5.25-94.94,5.25l-3.41.94c2.92,8.53,8.9,15.17,15.9,20.83-2.18-6.77-4.49-16.24-.39-16.44,6.39-.3,42.89,1.6,57.52,1.32S137.89,52.6,162,54.16s40.59-.45,60.67-3.19,115.74-8.37,117.4-5.5.71,7.36-.78,11.72c.23-.17.47-.32.7-.5a89.36,89.36,0,0,0,15.79-15.12l.73-.83C353.76,40.29,349,39.43,348.33,38.82Z"/>
          </g>
          <g>
            <g>
              <path class="cls-16" d="M356.25,47.7S326.63,91.52,312,111.81s-48.09,60.08-125.58,58.86S79.11,141.05,56,109.19,19.46,40.4,19.46,40.4s.61-3.45,3.25,0,31,69.38,95.56,79.53S243.65,129.56,280,110c0,0,42.81-29.41,63.71-53.15,9-10.18,11.76-18.69,18.05-18l.21,1.54Z"/>
              <g>
                <path class="cls-17" d="M117.67,159.27a26.38,26.38,0,0,0,3.6,1.3c-1.24-.43-2.46-.87-3.65-1.33Z"/>
                <path class="cls-18" d="M117.62,159.24a24.2,24.2,0,0,0-2.68-1.05C115.82,158.55,116.71,158.9,117.62,159.24Z"/>
                <path class="cls-19" d="M361.72,38.86c-6.29-.72-9.09,7.79-18.05,18C322.77,80.57,280,110,280,110c-36.31,19.58-97.18,20.09-161.69,10S25.35,43.85,22.71,40.4s-3.25,0-3.25,0A316,316,0,0,0,33.65,72.22c.74-1.58,2.14-2.3,4.83,1,5.47,6.67,26.17,50.92,102.25,59.43,0,0,68.73,4.45,77.88,3.23s4.7,19.48-6.06,24.35c-10.1,4.57-70.22,6.54-91.28.37,17.12,6,38.27,9.68,65.17,10.1,77.49,1.22,111-38.57,125.58-58.86S356.25,47.7,356.25,47.7l5.68-7.3Z"/>
                <path class="cls-19" d="M34,59.72C27.2,49.35,23.57,41.53,22.71,40.4c-2.64-3.45-3.25,0-3.25,0s3,8.23,8.58,20.27C29.65,58.56,31.8,58.67,34,59.72Z"/>
                <path class="cls-19" d="M361.72,38.86c-6.29-.72-9.09,7.79-18.05,18-2.76,3.14-5.92,6.37-9.29,9.63,0,0,0,0,0,.07.09,6.12-3.43,12-6.48,17C324,90,320.14,96.38,315.76,102.49c-8.82,12.29-17.25,24.92-27.83,35.8A144,144,0,0,0,312,111.81c14.61-20.29,44.23-64.11,44.23-64.11l5.68-7.3Z"/>
              </g>
              <g>
                <path class="cls-20" d="M104.41,131.53c-.51-1.14-1-2.3-1.42-3.47a157.94,157.94,0,0,1-18.73-8.46s-2.1-1.21-3.45-1C86.92,124.94,96.08,128.59,104.41,131.53Z"/>
                <path class="cls-20" d="M143.75,141.48c21.46,3.57,43.91,4.43,65.05-1.14V140c-.17-4.24-44.37,6.49-93.64-7.9.45,1.14.93,2.26,1.43,3.38A239.83,239.83,0,0,0,143.75,141.48Z"/>
              </g>
            </g>
            <g>
              <path class="cls-16" d="M19.46,37.15S58.82,34.72,86.82,27s58-17.86,69-12.58,21.67,15.91,26,14.75c7.71-2,17.29-18.24,42-14.34S340.42,35.12,364.36,37.15c0,0,4.06.81-2.43,3.25s-97.85,5.22-123.47,7.51c-20.93,1.87-50.61,9.53-84.28,4.66-25.16-3.64-39-7.71-64.52-9.33s-66.95-.82-70.2-2.84S16.64,37.35,19.46,37.15Z"/>
              <g class="cls-21">
                <path class="cls-16" d="M364.36,37.15c-23.82-2-114.82-18.26-140.09-22.25C240,19.27,257.47,29.64,261.44,34c5.3,5.85-.82,2.84-46.16,11.46s-80.95-3.14-104.69-6.61-80,.12-85.21-.79A3.76,3.76,0,0,1,23,36.89c-2.26.18-3.56.26-3.56.26-2.82.2-3.24,1.22,0,3.25s44.64,1.21,70.2,2.84,39.36,5.69,64.52,9.33c33.67,4.87,63.35-2.79,84.28-4.66,25.62-2.29,117-5.08,123.47-7.51S364.36,37.15,364.36,37.15Z"/>
              </g>
              <g class="cls-21">
                <path class="cls-16" d="M25.8,38.12l-.42,0A3.76,3.76,0,0,1,23,36.89c-2.26.18-3.56.26-3.56.26-2.82.2-3.24,1.22,0,3.25.91.56,4.76.9,10.4,1.14C28.49,40.43,27.14,39.28,25.8,38.12Z"/>
                <path class="cls-16" d="M364.91,37.32c-8,1.24-15.78,3.16-23.6,5.09,11-.68,18.88-1.36,20.62-2C366.77,38.58,365.74,37.67,364.91,37.32Z"/>
              </g>
              <path class="cls-20" d="M96,27.72s41.5-13.14,51.43-12.82,24.34,14.34,30.43,16.17c0,0-12.73-2.48-22.5-8.09S141,17.14,131.29,19.23,96,27.72,96,27.72Z"/>
              <path class="cls-20" d="M189.11,28s15.82-13.08,25.56-11.56C214.67,16.46,196.37,26.86,189.11,28Z"/>
            </g>
          </g>
        </g>
      </g>
    </g>
  </g>
</svg>
