<svg id="Layer_1" data-name="Layer 1" xmlns="http://www.w3.org/2000/svg" width="334.33" height="344.91" viewBox="0 0 334.33 344.91">
  <defs>
    <style>
      .cls-1 {
        fill: #231f20;
        opacity: 0.5;
      }

      .cls-2 {
        fill: #ff0;
      }

      .cls-3 {
        fill: #fcc172;
      }

      .cls-4 {
        fill: #7b4232;
      }

      .cls-5 {
        fill: #864e41;
      }

      .cls-6 {
        fill: #663124;
      }

      .cls-7 {
        fill: #98604f;
      }

      .cls-8 {
        fill: #889138;
      }

      .cls-9 {
        fill: #5c7835;
      }

      .cls-10 {
        fill: #a3a84c;
      }

      .cls-11 {
        fill: #b98d68;
      }

      .cls-12 {
        fill: #7dac45;
      }

      .cls-13 {
        fill: #96be61;
      }

      .cls-14 {
        fill: #539242;
      }

      .cls-15 {
        fill: #bfda7e;
      }

      .cls-16 {
        fill: #2c773b;
      }

      .cls-17 {
        fill: #f3752f;
      }

      .cls-18 {
        fill: #f05b22;
      }

      .cls-19 {
        fill: #f58d46;
      }

      .cls-20 {
        fill: #85a43d;
      }

      .cls-21 {
        fill: #77903b;
      }

      .cls-22 {
        fill: #fab061;
      }

      .cls-23 {
        fill: #f6f4c0;
      }

      .cls-24 {
        fill: #fcfae1;
      }

      .cls-25 {
        fill: #e1dd95;
      }

      .cls-26 {
        fill: #fcb63b;
      }

      .cls-27 {
        fill: #ffcc6a;
      }

      .cls-28 {
        fill: #ee9d20;
      }

      .cls-29 {
        fill: #7f4829;
      }

      .cls-30 {
        fill: #cb3d2d;
      }

      .cls-31 {
        fill: #e55245;
      }

      .cls-32 {
        fill: #b52b26;
      }

      .cls-33 {
        fill: #f27360;
      }

      .cls-34 {
        fill: #e9d99a;
      }

      .cls-35 {
        fill: #f39c56;
      }

      .cls-36 {
        fill: #da7d35;
      }
    </style>
  </defs>
  <g>
    <path class="cls-1" d="M144.9,344.91a14.68,14.68,0,0,1-5.13-.92c-1.13-.43-2.25-.87-3.35-1.33-5.68-.7-10.74-1.49-15.44-2.43a134.49,134.49,0,0,1-58.4-26.76,62.16,62.16,0,0,1-7.65-4.68,13.93,13.93,0,0,1-5.09-6.89c-3.08-3.15-6-6.46-8.78-9.86A123.19,123.19,0,0,1,23.91,264a13.88,13.88,0,0,1-4-9.59c0-.22,0-.44,0-.66a117.53,117.53,0,0,1-5-21.36,13.2,13.2,0,0,1-.47-1.51,13.72,13.72,0,0,1-.27-5,112.81,112.81,0,0,1-.31-13,33.39,33.39,0,0,1-6.07-19.29c0-5.65,2-17.41,17.36-22.68-.79-2.39-1.8-4.89-2.85-7.46-2.25-5.53-4.8-11.79-5.84-18.84-1.19-8.13.23-15.65,3.93-21.43a21.31,21.31,0,0,1,0-3.66,17.36,17.36,0,0,1,7.06-13.07,14.53,14.53,0,0,1,8.5-2.74A14.28,14.28,0,0,1,48.42,111c1.82-10.93,5.58-19.47,11.45-26C67.48,76.4,77.71,72.3,86.71,69.41l3.81-1.19a107.82,107.82,0,0,0,11.06-3.85,19.33,19.33,0,0,1,1.86-2.55,13,13,0,0,1,9.86-4.5,12.87,12.87,0,0,1,3.57.5c.3,0,.59.12.87.19A14.06,14.06,0,0,1,128.4,69.72c0,.39.08.78.1,1.17a31.73,31.73,0,0,1,5.13,3.88c.58-.58,1.16-1.15,1.75-1.71a15,15,0,0,1,9.85-8.19,85.4,85.4,0,0,1,7.26-4.68,81.88,81.88,0,0,1,11.1-5.33c1.71-.67,3.42-1.28,5.13-1.86l1.52-.5c1.26-.41,2.52-.79,3.78-1.16l2.21-.61A14.42,14.42,0,0,1,183.15,49c.3,0,.61,0,.91,0l2-.33,1.54-.22c1.24-.17,2.53-.32,3.81-.44l1.66-.14c1.48-.11,3-.18,4.49-.21l1,0h.51c1.63,0,3.22.07,4.82.19a15.56,15.56,0,0,1,1.83-.5A13,13,0,0,1,217.89,47a151.27,151.27,0,0,1,3.45-17.73,13,13,0,0,1,25.41.87c.56,1.08,1.53,2.75,2.3,4A154.75,154.75,0,0,1,262.32,13a13,13,0,0,1,10.43-5.23,13.22,13.22,0,0,1,4.1.66,13,13,0,0,1,8.92,12.34c0,9.21,0,18.59-.55,28.05a112.74,112.74,0,0,1,13.6-7.52,13,13,0,0,1,17.46,16.94c-2.55,5.93-5.13,12-8,17.91h.51a13,13,0,0,1,11.55,19,84,84,0,0,1-8.25,12.86,51.24,51.24,0,0,1-.53,13.65,34.79,34.79,0,0,1,4.81,8.09c5.81,13.63,7.44,29.61,4.83,46.68,8.78,4.64,11.9,11.1,12.83,16.38.74,4.21.68,11.57-5.93,18.87.14,11.29-2.12,30.19-10.45,50.39a14.48,14.48,0,0,1-6.76,14,119.43,119.43,0,0,1-19.78,26.39c-19.42,19.41-52.77,35.14-83,39.15-3.58.47-7.42.91-11.68,1.33a15.09,15.09,0,0,1-3.35.37l-.61,0c-8.73.76-17.32,1.15-25.56,1.15-5.65,0-11.27-.18-16.74-.54A15.15,15.15,0,0,1,144.9,344.91Zm19.63-227.2a57.73,57.73,0,0,1,7.36,2.26,35.28,35.28,0,0,1,4.13-2.48,33.5,33.5,0,0,1,17-19.53,12.52,12.52,0,0,1,.23-3.4c-.43,0-.87.06-1.3.06a13.1,13.1,0,0,1-1.88-.13A36.44,36.44,0,0,0,185,96.77a46.44,46.44,0,0,0-4.16,2.51A14.41,14.41,0,0,1,178,104a15,15,0,0,1-7.94,4.49c-1,1.12-2,2.24-2.86,3.35-.48.62-.93,1.23-1.35,1.84-.21.29-.4.59-.59.89A14.76,14.76,0,0,1,164.53,117.71Z"/>
    <path class="cls-2" d="M137.09,337.1a14.68,14.68,0,0,1-5.13-.92c-1.13-.43-2.25-.88-3.35-1.33-5.68-.7-10.74-1.49-15.44-2.43a134.6,134.6,0,0,1-58.4-26.76A64.71,64.71,0,0,1,47.12,301,13.81,13.81,0,0,1,42,294.09c-3.08-3.16-6-6.46-8.78-9.86A123.19,123.19,0,0,1,16.1,256.16a13.88,13.88,0,0,1-4-9.59c0-.23,0-.44,0-.66a117.53,117.53,0,0,1-5-21.36A13.2,13.2,0,0,1,6.65,223a13.72,13.72,0,0,1-.27-5,112.81,112.81,0,0,1-.32-13A33.46,33.46,0,0,1,0,185.72c0-5.65,2-17.41,17.36-22.69-.79-2.39-1.81-4.88-2.85-7.45-2.25-5.53-4.81-11.79-5.84-18.84-1.19-8.13.23-15.65,3.93-21.43a21.31,21.31,0,0,1,0-3.66,17.34,17.34,0,0,1,7.06-13.07,14.52,14.52,0,0,1,8.49-2.74,14.28,14.28,0,0,1,12.5,7.33c1.82-10.93,5.57-19.47,11.45-26,7.6-8.54,17.83-12.63,26.84-15.52l3.81-1.19a107.78,107.78,0,0,0,11.06-3.86A19.92,19.92,0,0,1,95.63,54a13,13,0,0,1,9.86-4.5,12.87,12.87,0,0,1,3.57.5c.3.05.59.12.87.19a14,14,0,0,1,10.65,11.71,11.57,11.57,0,0,1,.11,1.17A32.1,32.1,0,0,1,125.82,67c.58-.57,1.16-1.14,1.75-1.7a14.93,14.93,0,0,1,9.85-8.19,85.24,85.24,0,0,1,7.25-4.68,82.58,82.58,0,0,1,11.11-5.33c1.71-.67,3.42-1.28,5.13-1.86l1.51-.5c1.27-.41,2.53-.8,3.78-1.16l2.21-.61a14.49,14.49,0,0,1,6.92-1.78c.31,0,.62,0,.92,0l2-.33,1.54-.21c1.24-.17,2.53-.32,3.81-.44.55-.06,1.1-.11,1.66-.15,1.48-.11,3-.17,4.49-.2l1,0h.51c1.63,0,3.22.08,4.82.2a14.57,14.57,0,0,1,1.83-.5,13.75,13.75,0,0,1,1.39-.68,12.91,12.91,0,0,1,5-1,13.11,13.11,0,0,1,5.76,1.33,151.5,151.5,0,0,1,3.45-17.72,13,13,0,0,1,25.41.87c.55,1.07,1.53,2.75,2.29,4A155.79,155.79,0,0,1,254.51,5.23,13,13,0,0,1,278,13c0,9.21,0,18.59-.55,28.05A112.74,112.74,0,0,1,291,33.53a13,13,0,0,1,17.46,16.94c-2.55,5.93-5.14,12-8,17.9h.5a13,13,0,0,1,11.56,19,84.81,84.81,0,0,1-8.25,12.86,51.65,51.65,0,0,1-.53,13.65,34.52,34.52,0,0,1,4.8,8.08c5.81,13.64,7.45,29.62,4.84,46.69,8.78,4.64,11.9,11.1,12.83,16.38.74,4.21.67,11.57-5.94,18.87.14,11.29-2.11,30.19-10.44,50.38a14.51,14.51,0,0,1-6.76,14,119.14,119.14,0,0,1-19.78,26.38c-19.42,19.42-52.77,35.15-83,39.16-3.58.47-7.41.91-11.67,1.33a15.77,15.77,0,0,1-3.35.37l-.62,0c-8.72.76-17.32,1.14-25.56,1.14-5.65,0-11.26-.18-16.74-.53A15.09,15.09,0,0,1,137.09,337.1Zm19.62-227.2a55.25,55.25,0,0,1,7.36,2.26,36.25,36.25,0,0,1,4.14-2.48,33.49,33.49,0,0,1,17-19.53,12.94,12.94,0,0,1,.24-3.4c-.43,0-.87.06-1.3.06a12.9,12.9,0,0,1-1.88-.13A37.62,37.62,0,0,0,177.22,89q-2.06,1.11-4.15,2.51a14.35,14.35,0,0,1-2.91,4.77,15,15,0,0,1-7.94,4.49c-1,1.12-2,2.24-2.86,3.35q-.72.92-1.35,1.83-.31.45-.6.9A13.61,13.61,0,0,1,156.71,109.9Z"/>
    <g>
      <path class="cls-3" d="M144.45,103.24c6.37-12.53,23.44-26.88,37.51-30,15.66-3.45,26.95,4.82,37.27,16.69s15.38,27.27,19.38,42.45c4.84,18.37,7.68,40.9,10.06,59.74,5-3.14,9.1,2.09,15.42-6.35,1.07-19.3-1.52-41.08-4.81-60s-12.64-38-25.14-52.54c-20-23.26-46.44-24.68-73.63-14.07-26,10.12-43.58,35.5-51.16,62.32s-6.53,55.22-4.85,83c9.75,2.88,20.06,3.3,28.6,4a399.11,399.11,0,0,1,2.35-70.49C136.91,126.09,139,114,144.45,103.24Z"/>
      <g>
        <path class="cls-4" d="M208.36,232.47a20.66,20.66,0,0,0,31.27-18.31c5.89,1.25,11.09-4.26,13.45-9.8a35.86,35.86,0,0,0,1.35-24.12,25.34,25.34,0,0,0,10-34.62,18.82,18.82,0,0,0-18.76-29.49c.84-2.46-.32-5.26-2.21-7a18.56,18.56,0,0,0-6.83-3.65,134.32,134.32,0,0,0-18.89-5.18c-8-1.59-16.58-2.4-24.25.46S179.36,111,180,119.17A23.81,23.81,0,0,0,163,151.72a24.31,24.31,0,0,0-5.81,39.55,17.72,17.72,0,0,0,12.36,28.78c.9,7.92,7.88,14.25,15.64,16.09S201.2,236,208.36,232.47Z"/>
        <path class="cls-5" d="M174,125.76a18.43,18.43,0,0,0-8.31,17.3c.27,2.33,1.17,4.82,3.23,5.94s4.34.59,6.47,0a33.54,33.54,0,0,0,9.2-3.67A15.07,15.07,0,0,0,191,138a11.72,11.72,0,0,0-14.71-15.15Z"/>
        <path class="cls-5" d="M155.19,164a19.87,19.87,0,0,0,1.05,18.78c1.34,2.16,3.49,4.2,6,4,3-.21,4.87-3.35,5.7-6.23a51.81,51.81,0,0,0,1.45-12.31c.13-3.46,0-7.53-2.86-9.52a6.55,6.55,0,0,0-6.77-.06A11.65,11.65,0,0,0,155.19,164Z"/>
        <path class="cls-5" d="M196.45,189.15c3-1.59,5.9-3.81,7-7,1.44-4.05-.31-8.46-2-12.39-1.6-3.67-3.46-7.61-7-9.43-4-2-8.82-.75-12.9,1.08-2.48,1.12-5.05,2.62-6.09,5.13s-.3,5.24.22,7.85a73.6,73.6,0,0,0,1.78,8.62,12.75,12.75,0,0,0,4.94,7.08C186.55,192.71,192.09,191.45,196.45,189.15Z"/>
        <path class="cls-5" d="M221.41,132.25c-.93-2.79-2.43-5.55-4.92-7.13-3.91-2.48-9-1.44-13.5-.31-2.31.58-4.77,1.26-6.28,3.09s-1.7,4.63-1.51,7.11a38.7,38.7,0,0,0,3,12.29c1,2.28,2.34,4.63,4.64,5.54s5.09.06,7.46-.93c4.78-2,9.74-4.9,11.49-9.78C222.91,139,222.47,135.44,221.41,132.25Z"/>
        <path class="cls-5" d="M238.34,167.27c1.09-5.26-2.57-10.73-7.51-12.83s-10.73-1.34-15.64.82c-2.75,1.21-5.52,3.1-6.29,6a10,10,0,0,0,.21,4.9,29.4,29.4,0,0,0,4.43,9.87c1.39,2,3.18,3.92,5.54,4.53,3,.76,6-.72,8.67-2.22C232.35,175.76,237.26,172.43,238.34,167.27Z"/>
        <path class="cls-5" d="M256.94,168.41a18.19,18.19,0,0,0,5.18-7.49,12.85,12.85,0,0,0-.1-9,7.59,7.59,0,0,0-3.75-4.16c-1.89-.83-4.06-.57-6.11-.28a22.59,22.59,0,0,0-5.93,1.4,8.06,8.06,0,0,0-4.36,4.07,9.75,9.75,0,0,0-.22,5.49,24.71,24.71,0,0,0,3.71,9,8.3,8.3,0,0,0,4,3.52C252,171.83,254.87,170.28,256.94,168.41Z"/>
        <path class="cls-5" d="M243.58,142.47a53.2,53.2,0,0,0,10.28-4.37c2-1.12,4.05-2.49,5-4.58,1.29-2.79.23-6.26-1.92-8.45a15.45,15.45,0,0,0-8.22-3.88,30.76,30.76,0,0,0-12.71.25c-2.42.56-5,1.63-6.06,3.89s-.09,5.12.67,7.62a40.48,40.48,0,0,0,1.85,5.61,8.2,8.2,0,0,0,4,4.2C238.68,143.72,241.25,143.18,243.58,142.47Z"/>
        <path class="cls-5" d="M190.41,119.89c1.25,1,3,.89,4.56.7a56.68,56.68,0,0,0,12.64-3c2.59-.94,5.36-2.33,6.31-4.92,1-2.82-.64-6.09-3.15-7.75s-5.65-2-8.65-2.16a21.2,21.2,0,0,0-6.79.59,9.15,9.15,0,0,0-5.39,3.93c-1.26,2.17-1.26,4.81-1.23,7.31C188.73,116.49,188.88,118.71,190.41,119.89Z"/>
        <path class="cls-5" d="M234.66,202.27c1.21,2.43,3.19,4.72,5.86,5.24,3.12.6,6.25-1.47,8-4.13s2.44-5.85,3.37-8.9c.8-2.66,1.8-5.49,1-8.15-.9-2.86-3.84-4.75-6.82-5.1a15.75,15.75,0,0,0-8.66,2c-2.63,1.31-5.29,3.32-5.77,6.22a10.89,10.89,0,0,0,.37,4.12A36.86,36.86,0,0,0,234.66,202.27Z"/>
        <path class="cls-5" d="M207.73,217c2.37.29,4.69-.68,6.82-1.75,3.54-1.75,7-3.88,9.4-7s3.56-7.45,2.11-11.12a11.05,11.05,0,0,0-6.32-6,19.64,19.64,0,0,0-8.78-1.06,32.32,32.32,0,0,0-11.53,3.13c-1.86.91-3.76,2.14-4.44,4.09a8,8,0,0,0,.46,5.21,34.18,34.18,0,0,0,5.21,9.56C202.46,214.43,204.81,216.64,207.73,217Z"/>
        <path class="cls-5" d="M174.09,194.38c-3.8-1.14-8.13-1.12-11.52.94a7.6,7.6,0,0,0-3.88,5.82,9.89,9.89,0,0,0,1.47,5,33.26,33.26,0,0,0,5.74,7.73c1.42,1.42,3.11,2.77,5.11,2.95,3,.26,5.58-2.21,7.35-4.69a19.12,19.12,0,0,0,3.12-6.13,9.42,9.42,0,0,0-.57-6.73C179.56,196.76,176.84,195.22,174.09,194.38Z"/>
        <path class="cls-5" d="M194.39,213.54a9.7,9.7,0,0,0-6.8-1.59,12.54,12.54,0,0,0-10.17,8.43,6.56,6.56,0,0,0,.3,5.49,8.05,8.05,0,0,0,3.53,2.64A43.17,43.17,0,0,0,188,231a9.59,9.59,0,0,0,5.45.29c3.21-1,4.69-4.8,4.81-8.17C198.43,219.54,197.29,215.66,194.39,213.54Z"/>
        <path class="cls-5" d="M214.69,222.55a11.5,11.5,0,0,0-.56,4,3.87,3.87,0,0,0,2.06,3.25,5.35,5.35,0,0,0,3.22,0,24.74,24.74,0,0,0,8.35-3.13,13.41,13.41,0,0,0,5.61-6.78,3.39,3.39,0,0,0,.09-2.5c-.6-1.3-2.33-1.54-3.76-1.47C225,216.19,218.27,219.49,214.69,222.55Z"/>
        <path class="cls-6" d="M178.25,154a1.55,1.55,0,0,0-1-1.22c-1.21-.4-2.9-.23-3.47,1.09,0,0,0,0,0,.06a1.68,1.68,0,0,0-.37.2,1.13,1.13,0,0,0-.37,1.36c.85,1.66,3.51,1,4.61,0A1.65,1.65,0,0,0,178.25,154Z"/>
        <g>
          <path class="cls-6" d="M185.37,150.84h0Z"/>
          <path class="cls-6" d="M187.59,148.88a4.26,4.26,0,0,0-.7.19,2.38,2.38,0,0,0-.78.63c-.14.14-.25.32-.38.48a3.18,3.18,0,0,0-.26.44l-.06.1,0,.12h0c0,.16-.05.17,0,0a.66.66,0,0,0-.07.45,1.12,1.12,0,0,0,.21.47,1,1,0,0,0,.93.35,4,4,0,0,0,1.34-.72,3.84,3.84,0,0,0,.57-.57,2,2,0,0,0,.34-.93A1,1,0,0,0,187.59,148.88Z"/>
        </g>
        <path class="cls-6" d="M191.42,145.15c0-.79-1.25-.83-1.52-.17a.92.92,0,0,0,.15,1,.69.69,0,0,0,.93.1A1,1,0,0,0,191.42,145.15Z"/>
        <path class="cls-6" d="M171.66,184.52a2.8,2.8,0,0,0-2.25-.07,1.22,1.22,0,0,0-.7,1.46l-.06.06a2.6,2.6,0,0,0-.45.28h0a1.17,1.17,0,0,0,.27,2.05c1.41.52,3-.43,3.81-1.53A1.45,1.45,0,0,0,171.66,184.52Z"/>
        <path class="cls-6" d="M171.63,178.53a.91.91,0,0,0-1,1v.67c0,.75,1.22.79,1.45.16l.24-.64A.85.85,0,0,0,171.63,178.53Z"/>
        <path class="cls-6" d="M204.64,225.53c0-.53,0-1.06,0-1.59a1.65,1.65,0,0,0-.3-1.14,1.38,1.38,0,0,0-1.55-.42c-.66.22-.87.82-1.09,1.4s-.33.88-.48,1.32a1.71,1.71,0,0,0,1.42,2.32A1.79,1.79,0,0,0,204.64,225.53Z"/>
        <path class="cls-6" d="M227.35,182.78a4.15,4.15,0,0,0-1.77.42h-.05a3,3,0,0,1-.32.06l-.22,0a1.56,1.56,0,0,0-.57,0,1.5,1.5,0,0,0-1.25,1.21,1.37,1.37,0,0,0,.88,1.45,5.15,5.15,0,0,0,2.24.24,5,5,0,0,0,1.06-.27,2.14,2.14,0,0,0,1.25-1.09A1.49,1.49,0,0,0,227.35,182.78Z"/>
        <path class="cls-6" d="M234.42,178.9c.08-.31-.21-.51-.48-.54a1.28,1.28,0,0,0-.28-.07,1.56,1.56,0,0,0-.71.14,1,1,0,0,0-.52,1.25c.08.27.3.38.53.49a1,1,0,0,0,1.17-.31,4.11,4.11,0,0,0,.24-.39A2.4,2.4,0,0,0,234.42,178.9Z"/>
        <path class="cls-6" d="M209.24,181.57a1.22,1.22,0,0,0-2.19,0c0,.06-.23.45-.15.33l-.15.24s-.33.39-.1.16l-.41.4-.09.11c.2-.18.13-.11-.21.22a2.31,2.31,0,0,0-.44,1.06,1.41,1.41,0,0,0,1.24,1.55,2.42,2.42,0,0,0,2.54-1.65A3.37,3.37,0,0,0,209.24,181.57Z"/>
        <path class="cls-6" d="M204.78,186.12a4.09,4.09,0,0,0-1.64,1,.65.65,0,0,0,.63,1,4.26,4.26,0,0,0,1.68-.92C206.09,186.77,205.44,185.82,204.78,186.12Z"/>
        <path class="cls-6" d="M227.93,144.67a6,6,0,0,0,.19-2.19,1.47,1.47,0,0,0-.74-1.09.63.63,0,0,0-.34-.16,1.65,1.65,0,0,0-.32-.07,1.68,1.68,0,0,0-1.84,1.36,6,6,0,0,0,.07,2.28,1.47,1.47,0,0,0,1.68,1.2,1.58,1.58,0,0,0,1.18-.88h0A1.37,1.37,0,0,0,227.93,144.67Z"/>
        <path class="cls-6" d="M233.76,146.06a.92.92,0,0,0-1-.5,1.8,1.8,0,0,0-1.11.6c.15-.14-.05,0-.15.09l0,0a.69.69,0,0,0-.17.1.52.52,0,0,0-.31.84l.05,0c0-.1,0-.07.08.1a1.31,1.31,0,0,0,.43.31,1.91,1.91,0,0,0,1,.12A1.35,1.35,0,0,0,233.76,146.06Z"/>
        <path class="cls-6" d="M220.36,115.93v-.15h0A1.43,1.43,0,0,0,220,115a1.66,1.66,0,0,0-1.95-.41c-.75.2-1.13,1.42-1.51,2a1.45,1.45,0,0,0,1.79,2.16A3.13,3.13,0,0,0,220.36,115.93Z"/>
        <path class="cls-6" d="M224.45,121.86a1.54,1.54,0,0,0-1-.81,1.9,1.9,0,0,0-1.64.26.92.92,0,0,0-.3,1.11,1.8,1.8,0,0,0,1.3.88,1.71,1.71,0,0,0,1.52-.51A.92.92,0,0,0,224.45,121.86Z"/>
        <path class="cls-6" d="M228.33,114.85a2.14,2.14,0,0,0-1.4,1.88.58.58,0,0,0,.67.63,4.15,4.15,0,0,0,.48-.11,3,3,0,0,0,.61-.33,1.94,1.94,0,0,0,.81-1.24C229.68,115,228.84,114.67,228.33,114.85Z"/>
        <path class="cls-6" d="M186.85,201.52A1.08,1.08,0,0,0,185,202a14.18,14.18,0,0,1-.24,1.59,4.54,4.54,0,0,0-.26,2,1.53,1.53,0,0,0,2.43.91C188.37,205.25,187.93,202.93,186.85,201.52Z"/>
        <path class="cls-7" d="M189.44,163.85a23.66,23.66,0,0,0-4,1A7.56,7.56,0,0,0,183,166a10.58,10.58,0,0,0-2.23,1.69,1.57,1.57,0,0,0-.51,1.87c1.29,2.14,3.73,1.85,5.91,1.43,1.93-.38,5.78-1.29,6.66-3.33C193.92,165.13,191.83,163.53,189.44,163.85Z"/>
        <path class="cls-7" d="M184.8,172.87a1.8,1.8,0,0,0-2.4.34,2.77,2.77,0,0,0-.46.72l-.11.11a1.27,1.27,0,0,0-.17,1.32,1.69,1.69,0,0,0,.52.64,1.41,1.41,0,0,0,1.44.15l.51-.29.21-.1a2.46,2.46,0,0,0,.78-.61A1.58,1.58,0,0,0,184.8,172.87Z"/>
        <path class="cls-7" d="M191.21,172a1.67,1.67,0,0,0-.34.31l-.11.17a.54.54,0,0,0,.17,1,3.75,3.75,0,0,0,.67,0,1,1,0,0,0,.78-.67A.75.75,0,0,0,191.21,172Z"/>
        <path class="cls-7" d="M208.72,126.77c-3.78-1.56-8.83,2.17-9.75,5.82a1.12,1.12,0,0,0,0,.41,5.8,5.8,0,0,0,0,2c.46,2.64,3.32,1.65,4.89.89a18.81,18.81,0,0,0,5.71-3.9C210.94,130.37,211,127.71,208.72,126.77Z"/>
        <path class="cls-7" d="M215.46,129.33a1.29,1.29,0,0,0-1.48-1.05,1.46,1.46,0,0,0-1.06.75v0a1,1,0,0,0,0,.77v.2a1,1,0,0,0,1.1.78l.36,0A1.3,1.3,0,0,0,215.46,129.33Z"/>
        <path class="cls-7" d="M212.13,134a.53.53,0,0,0-.6-.58,1.45,1.45,0,0,1-.3.05.73.73,0,0,0-.56,1.29,1,1,0,0,0,1.26-.05A.63.63,0,0,0,212.13,134Z"/>
        <path class="cls-7" d="M208.79,138.37a1,1,0,0,0-.87-1.07,1,1,0,0,0-1.14.84l-.12.49a1.88,1.88,0,0,0,.08.74.86.86,0,0,0,.75.71.94.94,0,0,0,.93-.52l.25-.44A2.31,2.31,0,0,0,208.79,138.37Z"/>
        <path class="cls-7" d="M182.65,126.59a4.28,4.28,0,0,0-3.21-2.12c-2.08-.39-5.78,1.55-5.4,4-1.12.92-1.79,2.09-.2,3.19,1,.7,2.62.24,3.7,0a13.28,13.28,0,0,0,3.86-1.47C182.48,129.44,183.41,127.86,182.65,126.59Z"/>
        <path class="cls-7" d="M173.93,133.48a2.53,2.53,0,0,0-1.38.26,2.68,2.68,0,0,0-1.05,1.06c-.32.53.22,1.2.76,1.25a2.51,2.51,0,0,0,2.46-1.26C175.06,134.23,174.49,133.53,173.93,133.48Z"/>
        <path class="cls-7" d="M183.56,132a.63.63,0,0,0-1.11-.26A1.89,1.89,0,0,0,182,133c0,.58,1,.76,1.24.3A1.89,1.89,0,0,0,183.56,132Z"/>
        <path class="cls-7" d="M202.85,106.15c-3.11-1.31-7.27-.67-9.47,2a1.75,1.75,0,0,0-.26.46,2.68,2.68,0,0,0-.38.47,2.24,2.24,0,0,0,1.13,3.27c3.19,1,7.14-1.17,9.4-3.3A1.71,1.71,0,0,0,202.85,106.15Z"/>
        <path class="cls-7" d="M207.11,109.05l-.1,0a.37.37,0,0,0-.64.18c-.11.66.59,1,1.14.77S207.7,108.78,207.11,109.05Z"/>
        <path class="cls-7" d="M224.36,158.75a9.38,9.38,0,0,0-2-.42,2.32,2.32,0,0,0-1.71-.09l-.59.19a8.24,8.24,0,0,0-6.47,6.23c-.29,1.11.77,1.94,1.76,2.05a1.43,1.43,0,0,0,1.59.8c3.29-.89,6.13-3.4,8.15-6.07A1.73,1.73,0,0,0,224.36,158.75Z"/>
        <path class="cls-7" d="M246.81,125.91a13.57,13.57,0,0,0-14.5.3,1.88,1.88,0,0,0,.46,3.27c.31.1.61.17.91.25a3.68,3.68,0,0,0,1.19,1.35c1.63,1.1,4.16.57,5.94.32a11.54,11.54,0,0,0,6-2.53A1.83,1.83,0,0,0,246.81,125.91Z"/>
        <path class="cls-7" d="M165.11,162.19c.14-1.76-1.68-2.39-3-1.61a11.18,11.18,0,0,0-3.87,3.74,6.51,6.51,0,0,0-1.29,2c-.62,1.45-.77,3.43.52,4.49a2.34,2.34,0,0,0,1,.54C162.47,172.72,164.9,165,165.11,162.19Z"/>
        <path class="cls-7" d="M173.25,198c-2.9-1.22-7.85-.52-9.26,2.64a1.82,1.82,0,0,0-.58.72c-.57,1.32.52,2.35,1.61,2.85,1.39.64,3.43-.11,4.78-.52a7.54,7.54,0,0,0,4.22-3A1.77,1.77,0,0,0,173.25,198Z"/>
        <path class="cls-7" d="M214.54,196.55c-2.81-5.46-10.86-1.42-13.49,2.13a2.08,2.08,0,0,0-.38,1.28,13,13,0,0,0-.7,2.25,1.56,1.56,0,0,0,1.42,1.75C204.26,204,217.2,201.71,214.54,196.55Z"/>
        <path class="cls-7" d="M244,184a9.42,9.42,0,0,0-6.3,3.76c-1.37,1.1-2.35,2.79-1.69,4.2,1.54,3.26,7-.4,8.76-1.56a5.12,5.12,0,0,0,2.58-3.4C247.65,185.07,245.69,183.8,244,184Z"/>
        <path class="cls-7" d="M257.42,151.13c-.84-1.13-2.6-1-3.82-.93-1.42.1-3.51.26-4.7,1.17a3.36,3.36,0,0,0-1.07,1.31c-2.08,1.23-1.49,3.26-.35,5,1.75,2.67,5.1,3.74,7.46,1.12C256.59,157,259.19,153.53,257.42,151.13Z"/>
        <path class="cls-7" d="M238.14,134.21a2,2,0,0,0-.36-.1,1.14,1.14,0,0,0-.55.08l0,0-.19.12a.31.31,0,0,0-.11.08,1.21,1.21,0,0,0-.42.5l-.07.16a1.18,1.18,0,0,0-.31.83,1.33,1.33,0,0,0,.78,1.09l0,0a1.34,1.34,0,0,0,1.32-.19,2.26,2.26,0,0,0,.64-.89A1.33,1.33,0,0,0,238.14,134.21Z"/>
        <path class="cls-7" d="M252.57,126.59a1.57,1.57,0,0,0-.95-.92.81.81,0,0,0-1.06,1,1.56,1.56,0,0,0,.93,1A.83.83,0,0,0,252.57,126.59Z"/>
        <path class="cls-7" d="M193,215.59l-.74-.82a2,2,0,0,0-1.81-.68,13.48,13.48,0,0,0-6.87,3.74c-2.42,1.18-3.63,5.38-.41,6.21,1.86.48,3.7-.83,5.18-1.79a20.12,20.12,0,0,0,4.66-4.36A1.82,1.82,0,0,0,193,215.59Z"/>
        <path class="cls-7" d="M224.71,218.81a9.83,9.83,0,0,0-4.06,2.25c-.88.68-2.42,1.62-2.56,2.83a.34.34,0,0,0,.22.36c1.22.36,2.6-.54,3.67-1.07a9.68,9.68,0,0,0,3.8-2.62A1.1,1.1,0,0,0,224.71,218.81Z"/>
        <path class="cls-8" d="M221.79,79.17c2,4.87,8.71,16.17,5.91,21.31-4.84-10.9-5.69-25.38-6-37.19a141.82,141.82,0,0,1,4.4-38.59c-.48,1.86,5.93,11.23,6.85,13.55a88.17,88.17,0,0,1,4.61,16,90,90,0,0,1,0,33.16,87.5,87.5,0,0,1-4.38,15.29c-1.7,4.4-.92,9.8-6,7.56-9.43-4.14-16.27-15.74-19.47-25-3.81-11-4.28-22.83-3.44-34.4C212.85,58.12,217.46,68.84,221.79,79.17Z"/>
        <path class="cls-8" d="M264.94,13c0,17.11,0,34.39-3.73,51.07s-11.71,33-25,43.7A147,147,0,0,1,264.94,13Z"/>
        <path class="cls-8" d="M296.51,45.33c-5.76,13.39-11.59,26.93-20.35,38.59s-20.84,21.43-35.09,24.5A105.82,105.82,0,0,1,296.51,45.33Z"/>
        <path class="cls-8" d="M240.67,109.74a5.12,5.12,0,0,1,1.46-1.51A139.87,139.87,0,0,1,301,81.38a73,73,0,0,1-35.33,33c-7.15,3.12-15.88,4.93-22.45.72C241.34,113.94,239.65,111.66,240.67,109.74Z"/>
        <path class="cls-8" d="M229.74,104.43a10.46,10.46,0,0,0,8.06,8.8,11,11,0,0,0,11.12-4.56,11.72,11.72,0,0,0,.41-12.1,12.48,12.48,0,0,0-10.53-6.13c-3.64,0-7.59,2-8.55,5.47Z"/>
        <path class="cls-8" d="M238.09,105.31a31.34,31.34,0,0,1-15.2,25.57c-.23.13-.51.26-.73.12s-.23-.46-.2-.72a45.14,45.14,0,0,1,4.43-15.08,24.27,24.27,0,0,1,4.1-6.18c1.37-1.45,3.33-1.53,3.45-4.18Z"/>
        <path class="cls-8" d="M203.07,113.82c5.6,1.2,11.43,1.77,17,.6s11-4.24,14-9.08A29.82,29.82,0,0,0,203.07,113.82Z"/>
        <path class="cls-8" d="M257.14,133.31a23.63,23.63,0,0,0-17.71-23.78c-1.51,5.25.39,11.08,3.95,15.23S252,131.55,257.14,133.31Z"/>
        <path class="cls-8" d="M198.23,89.34A29.22,29.22,0,0,0,220.7,105,42.73,42.73,0,0,0,198.23,89.34Z"/>
        <path class="cls-8" d="M252,115.53c1.74,4,6,6.64,10.3,7.3s8.79-.4,12.85-2.08A41.84,41.84,0,0,0,252,115.53Z"/>
        <path class="cls-9" d="M238.08,89.86c.91-5.23,1.85-11.51.4-16.71a.3.3,0,0,0-.59,0c-1,5-.78,10.25-1.61,15.29a74.6,74.6,0,0,1-2.12,9c-.69,2.33-1.82,4.61-1.89,7.06a.6.6,0,0,0,1.07.4C236.5,101.17,237.26,94.52,238.08,89.86Z"/>
        <path class="cls-9" d="M256.57,78.82c-2.65,5.45-5.67,10.78-8.68,16s-6.75,10.12-9.4,15.5c-.33.66.63,1,1,.56,3.77-4.19,6.52-9.54,9.27-14.43A182.22,182.22,0,0,0,257.13,79C257.28,78.68,256.73,78.5,256.57,78.82Z"/>
        <path class="cls-9" d="M247.14,113.73c-9.91-2.23-19.58-4.42-28-10.43-.31-.21-.67.22-.37.46,8,6.29,17.88,11.44,28.39,10.8C247.66,114.53,247.59,113.83,247.14,113.73Z"/>
        <path class="cls-9" d="M268.85,90.89c-4.75,4.4-9.23,9-14.54,12.7-5.6,4-11.58,6.59-17.77,9.42-.76.35-.45,1.62.41,1.39,6.33-1.67,12.34-5.11,17.74-8.76,5.56-3.76,11-8.62,14.61-14.34C269.48,91,269.12,90.63,268.85,90.89Z"/>
        <path class="cls-9" d="M234.29,109.46c-3.85-2.7-5.11-6.41-6.49-10.71-1.7-5.31-3.24-10.7-4.59-16.11-.08-.32-.6-.25-.53.08A179.1,179.1,0,0,0,227,100.4c1.11,3.74,2.55,8.79,6.75,10C234.3,110.63,234.89,109.87,234.29,109.46Z"/>
        <path class="cls-9" d="M256.09,114.52a48.75,48.75,0,0,1-12.49-1.67.26.26,0,1,0-.21.47,22.14,22.14,0,0,0,12.7,2.63C256.92,115.88,257,114.53,256.09,114.52Z"/>
        <path class="cls-9" d="M261.19,111.06a21.67,21.67,0,0,0-7.19,1.49.32.32,0,0,0,.09.61,21.29,21.29,0,0,0,7.33-.53A.79.79,0,1,0,261.19,111.06Z"/>
        <path class="cls-9" d="M261.91,107.09a5.41,5.41,0,0,0-2.47,1.21.5.5,0,0,0,.39.88,5.37,5.37,0,0,0,2.63-.86A.7.7,0,0,0,261.91,107.09Z"/>
        <path class="cls-9" d="M271.1,105.61a7.1,7.1,0,0,0-3.48,1.9.47.47,0,0,0,.33.74,7.25,7.25,0,0,0,3.76-1.28A.75.75,0,1,0,271.1,105.61Z"/>
        <path class="cls-9" d="M222.41,90.8c-.4-1.28-.72-2.75-1.84-3.59a.34.34,0,0,0-.49.14,5.67,5.67,0,0,0-.06,3.53,15.53,15.53,0,0,0,1.5,4.49c.3.58,1.49.59,1.49-.21A14.62,14.62,0,0,0,222.41,90.8Z"/>
        <path class="cls-9" d="M223.41,101.22c-.38-.25-.73-.56-1.09-.83a11.12,11.12,0,0,0-1.09-.86.48.48,0,0,0-.64.09,1.77,1.77,0,0,0,0,1.89,2.61,2.61,0,0,0,2.08,1.32C223.57,102.92,224.22,101.77,223.41,101.22Z"/>
        <path class="cls-9" d="M234.94,70.69a.48.48,0,0,0-.79-.09c-1.17,1.75-1,4.29-.94,6.31,0,1,1.58.86,1.72,0C235.22,75,235.81,72.49,234.94,70.69Z"/>
        <path class="cls-9" d="M229.91,88.58c-.11-.75-.12-1.52-.22-2.27a5.56,5.56,0,0,0-.37-2.08.65.65,0,0,0-1-.22,3.09,3.09,0,0,0-.87,2.33,5,5,0,0,0,.8,2.69C228.73,89.77,230.06,89.57,229.91,88.58Z"/>
        <path class="cls-9" d="M231.34,96.51a20.68,20.68,0,0,0-.34-2.09c-.07-.35-.65-.38-.67,0,0,.74-.07,1.48,0,2.22S231.41,97.16,231.34,96.51Z"/>
        <path class="cls-9" d="M250.43,80.25a.72.72,0,0,0-1.31-.21,13.48,13.48,0,0,0-2.22,3.68,32.26,32.26,0,0,0-2.08,5.15,1.15,1.15,0,0,0,2,1.07C248.68,87.49,250.91,83.45,250.43,80.25Z"/>
        <path class="cls-9" d="M242.64,97c0-.28-.37-.32-.55-.2a8.45,8.45,0,0,0-2.05,2c-.68.87-1.36,1.75-1,2.88.17.55.87.64,1.32.49,1-.32,1.34-1.39,1.68-2.3A7.69,7.69,0,0,0,242.64,97Z"/>
        <path class="cls-9" d="M253.39,69.36c0-.33-.53-.34-.64-.07a13.22,13.22,0,0,0-.79,2.83c-.13.77,1.09.89,1.23.14A12.79,12.79,0,0,0,253.39,69.36Z"/>
        <path class="cls-9" d="M260.24,93.36a17.32,17.32,0,0,0-3,2.36,19.82,19.82,0,0,0-2.27,2.76.33.33,0,0,0,.4.49,26.94,26.94,0,0,0,3.22-1.62,15.3,15.3,0,0,0,3.16-2.63C262.6,93.8,261.12,92.82,260.24,93.36Z"/>
        <path class="cls-9" d="M267.12,87.82a6.18,6.18,0,0,0-.55.82,2.6,2.6,0,0,0-.28.84.22.22,0,0,0,.31.22,3.09,3.09,0,0,0,.73-.51,7.82,7.82,0,0,0,.63-.77C268.37,87.88,267.5,87.29,267.12,87.82Z"/>
        <path class="cls-9" d="M263.15,87.15c0-.19,0-.39,0-.59a4.43,4.43,0,0,1-.07-.81c.09-.59-.8-.65-.94-.11a1.52,1.52,0,0,1-.24.41c-.13.23-.22.47-.33.71a3.73,3.73,0,0,0-.24,1.37.78.78,0,0,0,1.49.36A4.78,4.78,0,0,0,263.15,87.15Z"/>
        <path class="cls-9" d="M274.85,78.7a10.5,10.5,0,0,0-3.05,3.44c-.34.54.26,1,.76.71a10.62,10.62,0,0,0,3.5-3C276.61,79,275.64,78.2,274.85,78.7Z"/>
        <path class="cls-9" d="M246.93,122.55a17,17,0,0,0-1.75-1.85,8.93,8.93,0,0,1-.82-1,12.87,12.87,0,0,1-.9-1.23.33.33,0,0,0-.59,0,3.34,3.34,0,0,0-.4,1.55,4,4,0,0,0,.6,1.91,3.57,3.57,0,0,0,3.33,1.87A.77.77,0,0,0,246.93,122.55Z"/>
        <path class="cls-9" d="M251.43,126.37A1.89,1.89,0,0,0,251,126c-.2,0-.34-.26-.48-.4s-.78.08-.5.38c.11.12.35.3.38.47a1.87,1.87,0,0,0,.36.58C251.11,127.6,252,126.84,251.43,126.37Z"/>
        <path class="cls-9" d="M231.87,116c-.27.38-.58.71-.86,1.08s-.51.77-.76,1.15c-.4.6.51,1.06.86.46l.68-1.19c.23-.39.36-.84.58-1.24S232,115.7,231.87,116Z"/>
        <path class="cls-9" d="M227.43,123.39c-.35-.07-.43.46-.08.53A.27.27,0,0,0,227.43,123.39Z"/>
        <path class="cls-9" d="M218.23,111.64a6.54,6.54,0,0,0-2.07,0,7,7,0,0,0-1,.21c-.27.08-.62.32-.91.3a.29.29,0,0,0-.16.56c.3.13.55.48.85.63a3.31,3.31,0,0,0,1.23.33,3.23,3.23,0,0,0,2.44-.79A.72.72,0,0,0,218.23,111.64Z"/>
        <path class="cls-9" d="M223.43,109.24a3,3,0,0,0-1.16.52,2,2,0,0,0-.42.51,2,2,0,0,1-.26.42.3.3,0,0,0,.32.5,1.61,1.61,0,0,1,.38,0,5.41,5.41,0,0,0,.58-.07,2.71,2.71,0,0,0,1.24-.78C224.55,109.9,224,109.08,223.43,109.24Z"/>
        <path class="cls-10" d="M207.32,61.25c-1.26.11-1.5,1.74-1.66,2.72a7.85,7.85,0,0,0,.91,4.65,1.12,1.12,0,0,0,2.1-.3C208.85,67,209.75,61,207.32,61.25Z"/>
        <path class="cls-10" d="M208.83,75.85a.31.31,0,0,0-.59.16c0,1.12-.3,2.69.92,3.31a.46.46,0,0,0,.53-.15C210.45,78.06,209.33,76.83,208.83,75.85Z"/>
        <path class="cls-10" d="M213.45,72.93a2.26,2.26,0,0,0-.72-1.05l-.46-.38-.2-.13-.25-.1c-.29-.29-.88,0-.68.39,0,.08,0,.32.06.45s.13.42.2.63a2.34,2.34,0,0,0,.83,1.11.81.81,0,0,0,1,0A.76.76,0,0,0,213.45,72.93Z"/>
        <path class="cls-10" d="M227.51,43.61c0-.37-.43-4.13-1.66-3.43-1.46.84-1.46,2.78-1.59,4.31a24.87,24.87,0,0,0,.41,7.15,1.16,1.16,0,0,0,2.28,0A27.55,27.55,0,0,0,227.51,43.61Z"/>
        <path class="cls-10" d="M226.73,61.29a2.83,2.83,0,0,0-.42-1,4.71,4.71,0,0,1-.64-1c-.1-.34-.69-.24-.71.1a3.67,3.67,0,0,1-.32,1,3.24,3.24,0,0,0-.2,1c0,.8.34,1.92,1.37,1.77S226.83,62,226.73,61.29Z"/>
        <path class="cls-10" d="M229.84,50c-.36-.23-1,0-.88.5s.31,1.29.44,2a8.05,8.05,0,0,0,.68,2.29,1,1,0,0,0,1.87-.27A4.38,4.38,0,0,0,229.84,50Z"/>
        <path class="cls-10" d="M260.23,29.07a.86.86,0,0,0-1.37-.51c-2.15,1.78-3.15,5.14-3.55,7.79a1.3,1.3,0,0,0,2.31.88C259.05,35,260.7,31.8,260.23,29.07Z"/>
        <path class="cls-10" d="M260.4,42.22c-.08-.46-.41-.64-.57-1a.36.36,0,0,0-.64,0c-.1.21-.38.38-.53.59a6.94,6.94,0,0,0-.57,1.12,16.26,16.26,0,0,0-1,2.83c-.3,1.18,1.33,1.37,1.95.74a5.06,5.06,0,0,0,1.37-2.65A4.89,4.89,0,0,0,260.4,42.22Z"/>
        <path class="cls-10" d="M251.36,49.77a.33.33,0,0,0-.53-.19,7.54,7.54,0,0,0-2.51,4.81,1.07,1.07,0,0,0,1.91.73A7.35,7.35,0,0,0,251.36,49.77Z"/>
        <path class="cls-10" d="M273.19,64.48c-1.09.75-2.08,1.57-3.11,2.41-.43.35-2.27,1.6-1.62,2.34s2.4-.11,3.13-.53a8.35,8.35,0,0,0,3.06-2.87A1,1,0,0,0,273.19,64.48Z"/>
        <path class="cls-10" d="M282.51,58.09a2.76,2.76,0,0,0-1.52.66c-.2.18-.39.37-.58.56a3.08,3.08,0,0,0-.36.6.46.46,0,0,0,.44.73,6.31,6.31,0,0,0,.76-.08l.71-.26a2.57,2.57,0,0,0,1.27-1A.75.75,0,0,0,282.51,58.09Z"/>
        <path class="cls-10" d="M279.2,67.42a3.74,3.74,0,0,0-.59.46,6.75,6.75,0,0,1-.53.54c-.25.24,0,.69.32.52a5.86,5.86,0,0,1,.67-.32,3.83,3.83,0,0,0,.75-.45C280.37,67.82,279.71,67,279.2,67.42Z"/>
        <path class="cls-10" d="M277.08,95a27.25,27.25,0,0,0-2.82,1.64c-1,.73-1.72,1.84-2.71,2.6a.31.31,0,0,0,.32.52c1-.54,2.09-.83,3.1-1.28a14.34,14.34,0,0,0,2.95-2.12A.81.81,0,0,0,277.08,95Z"/>
        <path class="cls-10" d="M287.46,89.45a3.8,3.8,0,0,0-2,.64,9.82,9.82,0,0,0-1.65.75,1,1,0,0,0,0,1.56c1.31.83,4.11.32,4.71-1.21A1.26,1.26,0,0,0,287.46,89.45Z"/>
        <path class="cls-10" d="M211.93,99a7.62,7.62,0,0,0-4.8-2.68c-.46,0-1,.42-.72.91a7.3,7.3,0,0,0,4.35,3.23C211.61,100.71,212.62,99.83,211.93,99Z"/>
      </g>
      <g>
        <path class="cls-11" d="M109.59,72.7a.56.56,0,0,0,.32-.14.36.36,0,0,0,0-.45,1,1,0,0,0-.41-.27,10.07,10.07,0,0,0-4-1.23,3.53,3.53,0,0,0-3.42,2,8.22,8.22,0,0,0,3.74.65A24.21,24.21,0,0,0,109.59,72.7Z"/>
        <path class="cls-11" d="M107.33,64.59a1.43,1.43,0,0,0,.35-1c-.05-.43-.5-.71-.92-.81a6.64,6.64,0,0,1-1.28-.3,6.27,6.27,0,0,0,.77,9A9.08,9.08,0,0,1,107.33,64.59Z"/>
        <path class="cls-12" d="M88.27,111.43c1.46-7.76.6-15.84,2.33-23.54S98,72.36,105.83,72c4.51-.22,8.86,2.11,12,5.36s5.17,7.39,6.94,11.54c4.69,10.95,7.76,22.64,13.62,33,4.38,7.76,10.19,14.59,15.33,21.86s9.7,15.25,11,24-1.12,18.6-8,24.25c-5.91,4.85-14,6-21.68,5.78s-15.28-1.54-22.89-.83c-7.21.67-14.12,3.15-21.22,4.6s-14.84,1.74-21.22-1.69c-9.84-5.28-13.49-18.17-11.42-29.14s8.61-20.5,15-29.66S86.21,122.4,88.27,111.43Z"/>
        <path class="cls-13" d="M151,179.83c-4.93,5.16-12.85,6.36-19.91,5.29s-13.66-4-20.51-6.05c-9.41-2.77-20.2-4.29-26.28-12-5-6.32-5.2-15.69-1.37-22.77s11.16-11.89,19-13.69,16.13-.81,23.79,1.65c13.51,4.36,26.11,14.38,29.38,28.19C156.72,167.16,155.77,174.85,151,179.83Z"/>
        <path class="cls-13" d="M107.92,77.44c3,.55,5.36,3,7.21,5.49a50.72,50.72,0,0,1,9.9,30.93c0,2.51-.4,5.26-2.22,7s-4.69,1.94-7.06,1.14a18.43,18.43,0,0,1-6.23-4.13c-5-4.54-9.71-9.7-12.25-16S94.64,88,98.4,82.41C100.51,79.27,104.19,76.78,107.92,77.44Z"/>
        <path class="cls-14" d="M69.39,183.2c1,.13,1.63,1.18,2.23,1.9a14.53,14.53,0,0,1,1.8,2.78c.68,1.29-1.08,2.43-2.13,1.6A7.52,7.52,0,0,1,68.78,186C68.54,185.36,67.93,183,69.39,183.2Z"/>
        <path class="cls-14" d="M77.17,191A4.31,4.31,0,0,1,80.8,192a1,1,0,0,1-.69,1.75,4.33,4.33,0,0,1-3.31-1.9A.58.58,0,0,1,77.17,191Z"/>
        <path class="cls-14" d="M85.39,195.36a1.83,1.83,0,0,1,.76-.59c.28-.08.6,0,.86-.09s.74.28.48.6-.15.52-.3.76a1.79,1.79,0,0,1-.79.56C85.72,196.93,84.81,196,85.39,195.36Z"/>
        <path class="cls-14" d="M71.25,194.4a5,5,0,0,1,1.48.37,3.22,3.22,0,0,1,.73.49c.2.17.36.42.56.58a.41.41,0,0,1-.29.74,1.75,1.75,0,0,0-.44.1,3.14,3.14,0,0,1-.81,0,3.51,3.51,0,0,1-1.64-.6,1,1,0,0,1-.59-.93A.88.88,0,0,1,71.25,194.4Z"/>
        <path class="cls-14" d="M64.1,168.13a.59.59,0,0,1,.77.11c1.33,1.41,1,4.06.42,5.72-.41,1.18-2.13.78-2.36-.3C62.57,172,62.59,169.31,64.1,168.13Z"/>
        <path class="cls-14" d="M69.59,174a.42.42,0,0,1,.8-.1,2,2,0,0,0,.5.65c.2.2.32.49.53.7.6.61-.41,1.56-1,1a2.68,2.68,0,0,1-.79-1A2.87,2.87,0,0,1,69.59,174Z"/>
        <path class="cls-14" d="M101.18,190.43a5.7,5.7,0,0,1,5.91.38.56.56,0,0,1,0,.89,5.58,5.58,0,0,1-5.6.74C100.82,192.1,100.3,190.94,101.18,190.43Z"/>
        <path class="cls-14" d="M92,190.32a6.62,6.62,0,0,1,2.94,1.21c.51.37,1.63,1.31.9,2-.53.49-1.4.27-2,.13a6.16,6.16,0,0,1-2.63-1.28A1.13,1.13,0,0,1,92,190.32Z"/>
        <path class="cls-14" d="M70.41,162a.79.79,0,0,1,1-.42l.07,0a.75.75,0,0,1,.48.72,6.23,6.23,0,0,1,.24,2.4,1.06,1.06,0,0,1-2.08,0A5.87,5.87,0,0,1,70.41,162Z"/>
        <path class="cls-14" d="M83.1,178.32a4.82,4.82,0,0,1,4,2.61.35.35,0,0,1-.19.47,4.88,4.88,0,0,1-4.78-1.4C81.41,179.3,82.27,178.26,83.1,178.32Z"/>
        <path class="cls-14" d="M151.29,188.24a14.79,14.79,0,0,1,2.14-2.12c.71-.6,1.29-1.47,2.24-1.66a.8.8,0,0,1,.75.3l.19.19a.39.39,0,0,1,.09.71,4.37,4.37,0,0,1-1.11,2.51,4.54,4.54,0,0,1-3.55,1.68A1,1,0,0,1,151.29,188.24Z"/>
        <path class="cls-14" d="M144,189.23a1.72,1.72,0,0,1,1.28,0l.07,0h.25l.17.07a.43.43,0,0,1,.52.49,1.15,1.15,0,0,1-.62,1.25,1.48,1.48,0,0,1-2.18-.58A1,1,0,0,1,144,189.23Z"/>
        <path class="cls-14" d="M156,178.35c.16-.45.84-.23.82.21s0,.83-.09,1.24c-.11.81-1.31.51-1.12-.28C155.69,179.12,155.85,178.74,156,178.35Z"/>
        <path class="cls-14" d="M123.66,189.3a7.75,7.75,0,0,1,3.82.67c1,.42,2.57,1.13,3,2.24a.44.44,0,0,1-.23.6,5.47,5.47,0,0,1-2.91-.23,13.73,13.73,0,0,1-3.88-1.23C122.58,190.88,122.43,189.42,123.66,189.3Z"/>
        <path class="cls-14" d="M131.76,126a10.07,10.07,0,0,1,3.2,1.23,5.05,5.05,0,0,1,2.28,2,.64.64,0,0,1-.5.89,5.39,5.39,0,0,1-2.73-.45,8.86,8.86,0,0,1-3-1.72C130.19,127.26,130.57,125.74,131.76,126Z"/>
        <path class="cls-14" d="M124.9,126a1.25,1.25,0,0,1,.68-.62,3.14,3.14,0,0,1,1.4,0,.65.65,0,0,1,.47,1,4.81,4.81,0,0,1-.74.82,1.22,1.22,0,0,1-1.8-.38A1.05,1.05,0,0,1,124.9,126Z"/>
        <path class="cls-14" d="M129.3,118.23a.75.75,0,0,1,1.11.28,3.53,3.53,0,0,1-.28,2.36c-.29.87-1.67.46-1.58-.4A3.41,3.41,0,0,1,129.3,118.23Z"/>
        <path class="cls-14" d="M93.15,126.39a4,4,0,0,1,2.53-1.19,3.23,3.23,0,0,1,2.31.25.4.4,0,0,1,.14.45,2.68,2.68,0,0,1-1.45,1.45,4.2,4.2,0,0,1-2.75.73C93.22,128,92.54,127,93.15,126.39Z"/>
        <path class="cls-14" d="M93,110.56A13,13,0,0,1,94.52,115a.77.77,0,0,1-1.47.38,13.16,13.16,0,0,1-.86-4.73C92.21,110.21,92.78,110.27,93,110.56Z"/>
        <path class="cls-14" d="M100.55,119.38l1,.65a5.83,5.83,0,0,1,.86.86c.58.63-.39,1.54-1,1a5.85,5.85,0,0,1-.9-.82l-.7-.91A.57.57,0,0,1,100.55,119.38Z"/>
        <path class="cls-14" d="M93.16,102.6a1,1,0,0,1,1.35.74c.09.34.19.67.25,1a.81.81,0,0,1-.49.88.93.93,0,0,1-1.15-.46c-.16-.31-.3-.64-.44-1A.9.9,0,0,1,93.16,102.6Z"/>
        <path class="cls-15" d="M120.3,146.26a7.12,7.12,0,0,1-2.32-1.69,2.64,2.64,0,0,1-.48-2.7c.5-1.06,1.78-1.44,2.93-1.68,4.25-.87,8.77-1.2,12.87.23s7.7,5,8.2,9.26a1.82,1.82,0,0,1-.46,1.7,2,2,0,0,1-1.31.24A48,48,0,0,1,120.3,146.26Z"/>
        <path class="cls-15" d="M108.45,145.16a16.65,16.65,0,0,1-7.68-1.17c-.58-.24-1.22-.6-1.33-1.22s.53-1.3,1.12-1.7a13,13,0,0,1,4.89-2.14,7.35,7.35,0,0,1,5.18.85,3.13,3.13,0,0,1,1.69,2.79,2.7,2.7,0,0,1-1.44,2A6,6,0,0,1,108.45,145.16Z"/>
        <path class="cls-15" d="M115.76,90A21.32,21.32,0,0,1,120,101.72c0,.79-.09,1.75-.82,2a2,2,0,0,1-1.7-.43,15.66,15.66,0,0,1-6.81-12.86,3,3,0,0,1,.49-1.92,2.22,2.22,0,0,1,2.56-.45A5.38,5.38,0,0,1,115.76,90Z"/>
        <path class="cls-15" d="M145.67,153.4a1.11,1.11,0,0,1,1.78-.71,4.15,4.15,0,0,1,.53,5.59,1.22,1.22,0,0,1-2.12-.55A19.65,19.65,0,0,1,145.67,153.4Z"/>
        <path class="cls-15" d="M152.11,161.82c.23.48.44,1,.63,1.45a.68.68,0,0,1-1.27.51c-.2-.55-.36-1.09-.51-1.66S151.83,161.27,152.11,161.82Z"/>
        <path class="cls-15" d="M120.31,136a5.43,5.43,0,0,1,4.29.18.6.6,0,0,1,0,1.11,5.33,5.33,0,0,1-4.28.29A.85.85,0,0,1,120.31,136Z"/>
        <path class="cls-15" d="M93.73,141a7.15,7.15,0,0,1,.57-.53c.21-.19.45-.17.66-.31a.36.36,0,0,1,.56.31c0,.19.14.33.12.54a7.1,7.1,0,0,1-.18.94,2.53,2.53,0,0,1-1.06,1.42.84.84,0,0,1-1.32-.72A2.57,2.57,0,0,1,93.73,141Z"/>
        <path class="cls-15" d="M117.79,106.93c.11-.35.47-.62.62-1a.29.29,0,0,1,.55.14,11.82,11.82,0,0,1,.18,1.17,4.6,4.6,0,0,1-.26,1.11c-.28.71-1.32.38-1.3-.33A4.42,4.42,0,0,1,117.79,106.93Z"/>
        <path class="cls-15" d="M109.26,83a2.15,2.15,0,0,1,1.18.09c.28.1.51.3.79.39.65.21.41,1.28-.27,1.13-.2,0-.57.28-.76.41a2.13,2.13,0,0,1-1.58.46,1,1,0,0,1-.79-.73C107.61,83.8,108.43,83.21,109.26,83Z"/>
        <path class="cls-14" d="M53.18,107.06c1.08-7.69,3.43-15.48,8.59-21.28C67.2,79.7,75.1,76.49,82.87,74s15.84-4.52,22.67-9c-6.72,11.51-8,25.94-16.36,36.29-4.66,5.76-11.15,9.73-17.73,13.14S58,120.88,52,125.2A161.52,161.52,0,0,1,53.18,107.06Z"/>
        <path class="cls-16" d="M70.86,91.18c8.83-8.89,20.28-16.47,31.2-22.54.36-.2.72.37.39.63C92.43,77.18,81.22,83,72,92A66.56,66.56,0,0,0,61.6,105.2c-3.36,5.56-4.61,11.43-6.11,17.65-.1.38-.63.15-.64-.17C54.39,110.9,63,99.1,70.86,91.18Z"/>
        <path class="cls-16" d="M78.67,104c.49-.46.92-1,1.38-1.48a4.85,4.85,0,0,1,1.41-1.3.65.65,0,0,1,.72,1c-.27,1.24-1.6,2.33-2.53,3A.78.78,0,0,1,78.67,104Z"/>
        <path class="cls-16" d="M70.71,109.52a3.49,3.49,0,0,1,1-.89l1.15-.75a.46.46,0,0,1,.58.71l-1,.94a3.22,3.22,0,0,1-1.09.78A.54.54,0,0,1,70.71,109.52Z"/>
        <path class="cls-16" d="M67.51,108.41l.75-.89a3.26,3.26,0,0,1,1.1-.73.48.48,0,0,1,.64.6,3.31,3.31,0,0,1-.53,1,9.27,9.27,0,0,1-.82.84.72.72,0,0,1-1,.11A.68.68,0,0,1,67.51,108.41Z"/>
        <path class="cls-16" d="M57.09,98.18c.46-1.26,1-2.48,1.52-3.7a.43.43,0,0,1,.8.32c-.35,1.3-.75,2.56-1.21,3.82C58,99.31,56.85,98.87,57.09,98.18Z"/>
        <path class="cls-16" d="M55.7,105.42a.47.47,0,0,1,.9.23,7.64,7.64,0,0,1-.42,2.64c-.22.63-1.18.33-1.14-.29A7.92,7.92,0,0,1,55.7,105.42Z"/>
      </g>
      <g>
        <path class="cls-17" d="M178.13,195.64c9.81-14.5,12.58-34.16,4.92-49.9a43.86,43.86,0,0,0-35.79-24.13c-8.77-.57-17.54,1.61-25.68,4.93-6,2.46-11.86,5.61-16.5,10.16-14,13.76-16,37-7.2,54.18a50.54,50.54,0,0,0,30.7,25C146.17,221,168.3,210.18,178.13,195.64Z"/>
        <g>
          <path class="cls-18" d="M169.39,190.87l0-.05a.09.09,0,0,0,0,.05,1.6,1.6,0,0,0,.13-1.82,1.48,1.48,0,0,0-1.76-.58,5,5,0,0,0-2.73,3.7,1.69,1.69,0,0,0,.89,1.87,1.83,1.83,0,0,0,2.33-.86l.28-.46a2.75,2.75,0,0,0,.65-1.07c.06-.19.1-.37.15-.56a1.46,1.46,0,0,1,0-.2l0,0A.21.21,0,0,0,169.39,190.87Z"/>
          <path class="cls-18" d="M169.39,190.87v0h0Z"/>
          <path class="cls-18" d="M169.39,190.88c0,.13.14-.15,0,0Z"/>
        </g>
        <path class="cls-18" d="M173.33,188a1.47,1.47,0,0,0-1.3,1.47,4.07,4.07,0,0,0,.09,1,2.08,2.08,0,0,0,.57.94,1,1,0,0,0,.82.27,1.27,1.27,0,0,0,1-.67,2.74,2.74,0,0,0,.19-2.1A1.27,1.27,0,0,0,173.33,188Z"/>
        <path class="cls-18" d="M158.06,199.49a3.24,3.24,0,0,0-1.52.65,7.67,7.67,0,0,0-1.19.72.63.63,0,0,0-.08.76,1.77,1.77,0,0,0,2,.76,2,2,0,0,0,1.88-1.95A1,1,0,0,0,158.06,199.49Z"/>
        <path class="cls-18" d="M173.51,175.34c-.44-.48-1.23-.05-1.35.49a3.64,3.64,0,0,0-.07,1.19,1,1,0,0,0,.06.35,1.09,1.09,0,0,0,1.4.68,1.2,1.2,0,0,0,.75-1.45A3,3,0,0,0,173.51,175.34Z"/>
        <path class="cls-18" d="M180.4,155.18a3.7,3.7,0,0,0-.73-1.1.88.88,0,0,0-1.41.51,2.58,2.58,0,0,0,0,.62,1.51,1.51,0,0,0-.31,1.88,1.3,1.3,0,0,0,.55.49l.08,0a1.41,1.41,0,0,0,2.5,0,2,2,0,0,0-.18-1.91A1.76,1.76,0,0,0,180.4,155.18Z"/>
        <path class="cls-19" d="M125.23,141.28c-1.2-.91-2.34-1.91-3.54-2.8-2.28-1.71-5.74-3.51-8.7-2.61-3.28,1-6.21,4.93-7.94,7.68-4,6.38-10.62,18.22-2.68,24.35,3.3,2.54,6.75,3.29,9.9,6.25l10.94,10.25c4.14,3.87,8.71,7.94,14.35,8.46,4.41.4,8.79-1.53,12.14-4.43s5.79-6.68,8-10.54c5.4-9.61,12.87-23.55,11.38-35-.26-3.78-4.13-9.82-8.62-8.84-2,.43-4.31,2.29-6.18,3.12l-8.32,3.7c-5.44,2.41-11.65,4.85-17.13,2.55A16.19,16.19,0,0,1,125.23,141.28Z"/>
        <path class="cls-18" d="M160.15,190.74a1.12,1.12,0,0,0-1.3.29,4.06,4.06,0,0,0-.43.62c-.09.21-.16.42-.24.63a2.16,2.16,0,0,0,.11,2,1,1,0,0,0,1.14.37,2.82,2.82,0,0,0,1.31-3A1.08,1.08,0,0,0,160.15,190.74Z"/>
        <path class="cls-18" d="M145.15,209.32l-.4-.12h0a4.21,4.21,0,0,0-.8-.17,3.39,3.39,0,0,0-.78,0,3.2,3.2,0,0,0-1.13.37,1.6,1.6,0,0,0-.73,1.42,1.48,1.48,0,0,0,1.21,1.4,1.6,1.6,0,0,0,.49,0h.24l.23,0a2,2,0,0,0,.58.14,1.76,1.76,0,0,0,1.79-.94,1.69,1.69,0,0,0,.12-1.23A1.52,1.52,0,0,0,145.15,209.32Z"/>
        <path class="cls-18" d="M138.42,200.93a.55.55,0,0,0-.57.29c-.74,1.22.36,2.88,1.48,3.38a1.14,1.14,0,0,0,1.42-1.61A3.85,3.85,0,0,0,138.42,200.93Z"/>
        <path class="cls-18" d="M153.83,207.68a1.63,1.63,0,0,0-1.57-.34,1.53,1.53,0,0,0-1.08,1.12.76.76,0,0,0,.23.73,1.76,1.76,0,0,0,.84.34,1.66,1.66,0,0,0,.77,0l.19,0,.21-.11h.05A1,1,0,0,0,153.83,207.68Z"/>
        <path class="cls-18" d="M177.35,143.44c-1.09-1.69-3.95-.24-3.23,1.63a19,19,0,0,0,1.52,3.68h0l0,0c.07.1.13.2.21.3a1.51,1.51,0,0,0,1.39.67,1.56,1.56,0,0,0,1.47-1.55,1.63,1.63,0,0,0,.08-.58A8.61,8.61,0,0,0,177.35,143.44Z"/>
        <path class="cls-18" d="M176,151.22l-.07-.07a.35.35,0,0,0-.41-.15l-.06,0h0a.77.77,0,0,0-.54.27,1.82,1.82,0,0,0-.35.85,1.79,1.79,0,0,0,.73,1.72.84.84,0,0,0,1,0,.86.86,0,0,0,.36-1c-.15-.38-.13-.57-.29-.95-.06-.14-.07-.3-.13-.45A.67.67,0,0,0,176,151.22Z"/>
        <path class="cls-18" d="M178.77,183.5l0,0a1.14,1.14,0,0,0-.3.18.89.89,0,0,0-.22.21l-.07.07h0c-.41.09-.42.62-.19.88a1.22,1.22,0,0,0,1,.4c.63,0,1-.71,1-1.24A.71.71,0,0,0,178.77,183.5Z"/>
        <path class="cls-18" d="M166.79,198a14.38,14.38,0,0,0-5.67,4c-.73.86-.52,2.75.89,2.8,2.43.1,6.43-1.17,6.55-4C169.7,199.63,168.57,197.3,166.79,198Z"/>
        <path class="cls-18" d="M180.35,168c-2.67.25-3.23,4-3.15,6.12a1.93,1.93,0,0,0,.06.36,2.09,2.09,0,0,0,1.07,2.32c2.56,1.15,4.31-2,4.73-4.06C183.42,171,182.81,167.81,180.35,168Z"/>
        <path class="cls-18" d="M178.42,164a1.32,1.32,0,0,0-.85.84l0,.07c.13-.18.1-.14-.08.12a3,3,0,0,0-.14.39.78.78,0,0,0,.24.78,1.27,1.27,0,0,0,1.3.13,1.37,1.37,0,0,0,.9-1.67A1.05,1.05,0,0,0,178.42,164Z"/>
        <path class="cls-18" d="M128.22,134.39A5.54,5.54,0,0,1,127,134a1.92,1.92,0,0,0-1.64,0c-1.61,1,3.5,4.27,4.32,4.72a14.92,14.92,0,0,0,14.93-.29,14.91,14.91,0,0,0,3.19-2.51c.84-.87,2.22-1.32,2.89-2.28a1.42,1.42,0,0,0-.32-2c-1.1-.52-2.38,1.06-3.47.54-.53-.25-.73-.88-1-1.38-1-1.68-3.33-1.94-5.3-2a19.81,19.81,0,0,0-5.44.33,7,7,0,0,0-4.43,2.95c-.56.92-1,2.14-2,2.32A1.78,1.78,0,0,1,128.22,134.39Z"/>
        <path class="cls-20" d="M139.45,131.55c.06-2.07-.91-3.45-3.14-4.32a1.26,1.26,0,0,0-1.72.89,6.82,6.82,0,0,0,.68,4.07c-2.46.53-5.13,1.92-5.38,4.21a9.5,9.5,0,0,0-.73,1.06,6.61,6.61,0,0,0,.9.24c.78,1.56,3.7.89,5.74,0,.5,2.13,1.58,4.73,3.57,4,2.32-.82,2.54-3.57,2.06-5.83,2.5-.3,5.52-1.35,5.43-3.83C146.75,129.07,142.23,130.36,139.45,131.55Z"/>
        <path class="cls-21" d="M139.3,133.41c-.4.16-.71.49-1.05.62a1.16,1.16,0,0,1-.87-.1,1.09,1.09,0,0,0-1,.09,1.85,1.85,0,0,0-.35.39l0,0a1,1,0,0,0,0,1c1.17,1.6,4.36,1.5,4.82-.7A1.17,1.17,0,0,0,139.3,133.41Z"/>
        <path class="cls-21" d="M137.14,128.4c-.24-.25-.6.17-.37.41a5.53,5.53,0,0,1,1,1.92.4.4,0,0,0,.76-.27A5,5,0,0,0,137.14,128.4Z"/>
        <path class="cls-21" d="M142.85,132.71a1.09,1.09,0,0,0-.63.32.63.63,0,0,0,0,.89.85.85,0,0,0,.48.22.77.77,0,0,0,.85-.59A.69.69,0,0,0,142.85,132.71Z"/>
        <path class="cls-21" d="M139.49,137.79a.48.48,0,0,0-.58,0,1,1,0,0,0-.42.77c0,.27,0,.57.34.64A.82.82,0,0,0,139.49,137.79Z"/>
        <path class="cls-21" d="M139.89,139.49a.86.86,0,0,0-.85-.17,1.1,1.1,0,0,0-.57.53.3.3,0,0,0,0,.33,2.25,2.25,0,0,0,.28.37,1,1,0,0,0,.67.22A.75.75,0,0,0,139.89,139.49Z"/>
        <path class="cls-21" d="M133.47,136c-.31.13-.6.33-.91.44a.3.3,0,0,0-.05.55,1.19,1.19,0,0,0,1.39-.05.58.58,0,0,0,.23-.62A.51.51,0,0,0,133.47,136Z"/>
        <path class="cls-22" d="M120.64,145.44a7.34,7.34,0,0,0-3.5-3.85,6.22,6.22,0,0,0-4.43-1,6.56,6.56,0,0,0-3.77,3.26,17.28,17.28,0,0,0-2.4,7.17,7.58,7.58,0,0,0,.3,3.48,3.69,3.69,0,0,0,2.44,2.36c1.36.32,2.73-.37,4-1a20.33,20.33,0,0,0,5.68-4A6.81,6.81,0,0,0,120.64,145.44Z"/>
        <path class="cls-22" d="M135.65,146.14c-2.34-.08-4.67-.15-7-.13-1.65,0-3.91,1.35-2.67,3.3.94,1.48,3.38,1.87,5,2.19a5.49,5.49,0,0,0,4.71-.87,3,3,0,0,0,1.82-2.87A1.72,1.72,0,0,0,135.65,146.14Z"/>
        <path class="cls-22" d="M144.63,144.47a2.13,2.13,0,0,0-1.37-.45,2.29,2.29,0,0,0-.82.15c-.86.32-1.74,1.35-1.36,2.32a1.35,1.35,0,0,0,1.06.93,2,2,0,0,0,.82-.09l.26-.06.31-.07c.08,0,.55-.12.12,0a1.72,1.72,0,0,0,1.3-.89A1.51,1.51,0,0,0,144.63,144.47Z"/>
        <path class="cls-17" d="M128.76,176.8a2.06,2.06,0,0,0-1.32,1.64,2.6,2.6,0,0,0,.68,2,8.25,8.25,0,0,0,1.59,1.59,3.23,3.23,0,0,0,2.08,1.17,1.67,1.67,0,0,0,1.89-1.3C133.9,179.39,131.62,176,128.76,176.8Z"/>
        <path class="cls-17" d="M140,180.81a4.2,4.2,0,0,1,.24,1.18,1.64,1.64,0,0,1-1.47,1.66,1.44,1.44,0,0,1-1.58-1.39,2.53,2.53,0,0,1,.39-1.3,1.75,1.75,0,0,1,.29-.42,1.34,1.34,0,0,1,1.55-.35,1.16,1.16,0,0,1,.5.45h0l.05.11Z"/>
        <path class="cls-17" d="M123.28,174.35a1.32,1.32,0,0,0-1.29.12,1.82,1.82,0,0,0-.77,1.27,3.38,3.38,0,0,0-.1.94,1.08,1.08,0,0,0,1.7.82,3.88,3.88,0,0,0,.65-.69,1.82,1.82,0,0,0,.52-1.37A1.3,1.3,0,0,0,123.28,174.35Z"/>
        <path class="cls-17" d="M156.08,162a1.76,1.76,0,0,0-2.15-.1,6.23,6.23,0,0,0-2.45,3.4,2.57,2.57,0,0,0,2.57,2.58,4.7,4.7,0,0,0,2.44-2.29,4.44,4.44,0,0,0,.45-1.42,2,2,0,0,0-.21-1.49A3.48,3.48,0,0,0,156.08,162Z"/>
        <path class="cls-17" d="M150.87,160.82c-.17.15-.37.25-.53.42a1.91,1.91,0,0,0-.36.71.79.79,0,0,0,.43.9,1.33,1.33,0,0,0,1.74-1.41A.82.82,0,0,0,150.87,160.82Z"/>
        <path class="cls-17" d="M159.93,141.37a2.68,2.68,0,0,1-1.51,3c-.89.46-2,1-3,.45a1.1,1.1,0,0,1-.29-1.73h0a1.51,1.51,0,0,1,.23-.21,3,3,0,0,1,1.27-2.53C157.67,139.63,159.58,140,159.93,141.37Z"/>
        <path class="cls-17" d="M164.47,143.53a1.49,1.49,0,0,0-.29-.2c.13.08.14.08,0,0a.82.82,0,0,0-1.14.1l-.05.06c.17-.14.13-.1-.12.11a1.79,1.79,0,0,0-.38.48,1.63,1.63,0,0,0,.06,1.75,1.36,1.36,0,0,0,.83.55,1.34,1.34,0,0,0,1.24-.45,2.12,2.12,0,0,0,.41-.84,1.55,1.55,0,0,0-.21-1.13A1.68,1.68,0,0,0,164.47,143.53Z"/>
        <path class="cls-17" d="M113.24,165.51c-.33-.39-.56-.84-.92-1.21a1.51,1.51,0,0,0-2.44,1.25,2.59,2.59,0,0,0,.43,1.18,2.9,2.9,0,0,0,.71.73h0l.31.22a1.51,1.51,0,0,0,1.9-2.16Z"/>
        <g>
          <path class="cls-17" d="M118.83,164.32h0Z"/>
          <path class="cls-17" d="M119.5,165a6.15,6.15,0,0,0-.46-.58c.07.07-.15-.08-.21-.12a.56.56,0,0,0-.53-.09,1.47,1.47,0,0,0-.8,1.61,1.58,1.58,0,0,0,.76,1.25,1.41,1.41,0,0,0,1.17.11.87.87,0,0,0,.57-.65A1.88,1.88,0,0,0,119.5,165Z"/>
        </g>
        <path class="cls-17" d="M134.29,157a.84.84,0,0,0-.51,1.42,2.27,2.27,0,0,0,2.37.52.68.68,0,0,0,.36-1A2.24,2.24,0,0,0,134.29,157Z"/>
        <path class="cls-19" d="M165,174a1.69,1.69,0,0,0-1.29.89,7.45,7.45,0,0,0-1,2.09,1.43,1.43,0,0,0,0,.41,3.92,3.92,0,0,0-.23.6,1.15,1.15,0,0,0,.63,1.31,2.67,2.67,0,0,0,3.14-1.31,3.28,3.28,0,0,0,.12-3.34A1.43,1.43,0,0,0,165,174Z"/>
        <path class="cls-19" d="M167.79,169.88a1.19,1.19,0,0,0-1.36,1.21,1.66,1.66,0,0,0,.21.78,1,1,0,0,0,1.35.25,2,2,0,0,0,.55-.66A1.08,1.08,0,0,0,167.79,169.88Z"/>
        <path class="cls-19" d="M159.69,184.61a.76.76,0,0,0-1.13.29.54.54,0,0,0,0,.55.75.75,0,0,0,1.15.12A.56.56,0,0,0,159.69,184.61Z"/>
        <path class="cls-19" d="M158.45,131.82a1.51,1.51,0,0,1-1.51.45c-1.21-.3-2.05-1.93-1.1-3a1.37,1.37,0,0,1,1.61-.36,1.44,1.44,0,0,1,.68.72A1.39,1.39,0,0,1,158.45,131.82Z"/>
        <path class="cls-19" d="M166,131.1a.9.9,0,0,0-1.18,0c-.73.84.66,2.38,1.45,1.48A1,1,0,0,0,166,131.1Z"/>
      </g>
      <g>
        <path class="cls-11" d="M27.2,109.16a1.34,1.34,0,0,1,2.19.79c.27,1.5-.34,3-.1,4.56s1.17,2.94,1.3,4.57a.62.62,0,0,1-.65.68C25.64,119.78,24,111.47,27.2,109.16Z"/>
        <path class="cls-12" d="M31,201.41c.51-11.6,2.31-23.91.47-35.37-1.73-10.8-8.37-20.37-10-31.19-.76-5.18-.08-11,3.74-14.61,4.38-4.1,11.48-3.76,16.88-1.16,9.37,4.52,15.84,14.57,23.18,21.67a161.86,161.86,0,0,0,27.87,21.58c6.55,4,13.44,7.6,19.25,12.61,11.94,10.3,17.86,29.5,2.91,40-6.94,4.88-14.39,4.86-22,7.25-7.21,2.26-12.66,10.69-17.78,15.83-5.37,5.39-12.28,10.22-19.87,9.69-8.4-.58-15-7.56-19.08-14.91C31.17,223.08,30.54,212.56,31,201.41Z"/>
        <path class="cls-23" d="M48,127.4a207,207,0,0,0,34.47,30.43c12.21,8.57,25.69,16.13,34.42,28.23,2.78,3.84,5.07,8.35,4.84,13.09a16.53,16.53,0,0,1-6.2,11.52,29.74,29.74,0,0,1-12.11,5.63c-5.17,1.24-10.68,1.71-15.22,4.47-8,4.88-11,15.61-18.94,20.51-8.41,5.15-20.1,1.79-26.65-5.58s-8.79-17.67-9-27.52S35,188.5,34.89,178.64a89.73,89.73,0,0,0-5.29-29.78c-2-5.53-4.56-11.08-4.42-17,.08-2.88.89-8.74,4.73-8.45a3.94,3.94,0,0,1,3,1.77A5.23,5.23,0,0,1,35,120.54C39.72,117.26,45.22,124.33,48,127.4Z"/>
        <path class="cls-24" d="M32,135.11c-.77-2.58-1.45-5.62.16-7.78,1.42-1.9,4.21-2.33,6.49-1.65,5.56,1.67,10.07,8.31,14.15,12.18q8,7.6,16.43,14.8,11.49,9.85,23.64,18.9c7.08,5.26,15.49,9.74,19.68,17.88,2.55,4.94,2.86,11.47-.76,15.7-2.7,3.15-7.09,4.45-11.25,4.35s-8.17-1.41-12.11-2.72c-12.84-4.23-26.36-8.91-35.11-19.22-5.35-6.29-8.43-14.16-11.24-21.92Q36.58,150.53,32,135.11Z"/>
        <path class="cls-25" d="M62.52,210A19.17,19.17,0,0,1,60,201a10.3,10.3,0,0,1,3.9-8.23,7.62,7.62,0,0,1,5.43-1.31c-1.05-1.93-2.11-3.85-3.2-5.71-3.92-6.67-7.82-13.34-11.78-20-8.11-13.57-17.18-27.07-23.6-41.55-.28-.63.66-1.26,1.09-.68,8.94,12,15.87,25.72,23.28,38.71q5.75,10.07,11.58,20.09c1.91,3.29,4,6.58,6.07,9.92,1-3.77,5.84-5.78,9.71-4.74,4.12,1.12,7.15,4.57,9.55,8.1a15.6,15.6,0,0,1,2.63,5.46,6.32,6.32,0,0,1-1.38,5.69c-2.52,2.55-6.71,1.53-10.33,1.95.22.44.44.87.65,1.3a27.24,27.24,0,0,1,2.8,7.94.81.81,0,0,1-1.52.48c-1.37-2.35-2.4-4.92-3.66-7.34-.29-.56-.61-1.12-.94-1.67a6.27,6.27,0,0,0-.83.47c-2.27,1.58-3.13,4.7-5.48,6.15a6.64,6.64,0,0,1-6.91-.43A14.17,14.17,0,0,1,62.52,210Z"/>
        <path class="cls-24" d="M45.3,193a2.32,2.32,0,0,1,2.86-3c2.74.63,5.56,2,6.71,4.72a1.37,1.37,0,0,1,.1.63,1.92,1.92,0,0,1,.12,1.71l-.3.6a2.23,2.23,0,0,1-2.19,1.38A8.83,8.83,0,0,1,45.3,193Z"/>
        <path class="cls-24" d="M49.83,203.24a2.15,2.15,0,0,1,1.61-.13l.52.23a4.44,4.44,0,0,1,1.21.61,1.41,1.41,0,0,1,.57,1.3,1.55,1.55,0,0,1-.89,1.18,5.14,5.14,0,0,1-1.33.36,2.57,2.57,0,0,1-2.11-.28A1.91,1.91,0,0,1,49.83,203.24Z"/>
        <path class="cls-24" d="M43,200.64a1.36,1.36,0,0,1,.32-1.75,1.11,1.11,0,0,1,1.57.12,1.37,1.37,0,0,1-.09,1.77A1,1,0,0,1,43,200.64Z"/>
        <path class="cls-24" d="M62.81,228.43a2.71,2.71,0,0,1,3.46-1c.39-.06.78-.11,1.17-.2a1.83,1.83,0,0,1,1.77,2.92,5.14,5.14,0,0,1-5.49,1.48A2.08,2.08,0,0,1,62.81,228.43Z"/>
        <path class="cls-24" d="M54.4,227.62a1.66,1.66,0,0,1,.31-1.2,1.84,1.84,0,0,1,1.53-.72,2.26,2.26,0,0,1,1.61.76,1.89,1.89,0,0,1,.26,1.82,1.38,1.38,0,0,1-2,.67A1.57,1.57,0,0,1,54.4,227.62Z"/>
        <path class="cls-24" d="M58.94,236.31c.21-.49.72-.58,1.18-.72a2.58,2.58,0,0,1,1.68.25.94.94,0,0,1,.62,1,1.05,1.05,0,0,1-.86.9l-.86,0a2.39,2.39,0,0,1-1.07-.36C59.27,237.25,58.75,236.76,58.94,236.31Z"/>
        <path class="cls-11" d="M80.11,194.67a1.61,1.61,0,0,1,2.38,1c2,.61,3.49,2.92,4.14,4.71a1.92,1.92,0,0,1-2.38,2.49C81.69,202,76.29,197,80.11,194.67Z"/>
        <path class="cls-11" d="M69.17,206.5c-1.12-1.6-3.41-6.63-.54-7.72,2-.75,3.5.63,4.23,2.37a6.65,6.65,0,0,1,2.92,5.54,2.88,2.88,0,0,1-3,2.47C71.2,209,70.07,207.77,69.17,206.5Z"/>
      </g>
      <g>
        <path class="cls-26" d="M282.11,212.1a85.6,85.6,0,0,1-30,26.43c-23.94,12.33-55.5,10.65-75.69-7.16a6.59,6.59,0,0,1-2-2.57,3.72,3.72,0,0,1,0-2.42,5.68,5.68,0,0,1,2.27-2.89,16.14,16.14,0,0,1,5.9-1.88c22.89-4.54,42.16-20.25,56.84-38.39S265,144.27,278,124.88c2-3,4.49-6.22,8.07-6.64,4.88-.57,8.54,4.33,10.47,8.85,6.46,15.15,6.07,32.51,2.17,48.51A105.7,105.7,0,0,1,282.11,212.1Z"/>
        <path class="cls-26" d="M279.44,125.59c3-2.76,3-7.49,2.26-11.51a56.74,56.74,0,0,0-5-15.28,18.34,18.34,0,0,1,5.82-4.53c2.29-1,5.22-.79,6.89,1a8.27,8.27,0,0,1,1.72,4.54,38.84,38.84,0,0,1-5.22,25.33Z"/>
        <path class="cls-27" d="M203.62,217.54c-6.85,3.29-27.59,5.27-19.27,8.18a59.29,59.29,0,0,0,36.14-2.16c11.73-4.37,25.81-13.78,34.13-23.13,31.84-35.71,40.43-78.5,28.89-77.69-3.88-1.66-20.59,36.34-33.48,52.71S222.4,208.51,203.62,217.54Z"/>
        <path class="cls-27" d="M277,98.69a8.7,8.7,0,0,0,12.07-4.61A10,10,0,0,0,277,98.69Z"/>
        <path class="cls-28" d="M287.49,120a4.33,4.33,0,0,1-1.31.45,3.84,3.84,0,0,1-1.65.1c-.23-.06-.51.2-.3.42s.42.47.66.68a2.32,2.32,0,0,0,1.2.37,3,3,0,0,0,2.38-.9C289.18,120.44,288.28,119.53,287.49,120Z"/>
        <path class="cls-28" d="M287.21,158.51A102.24,102.24,0,0,0,292,135.93c.35-4.31,1.05-13.21-4.35-14.88-.14,0-.33.06-.29.23.65,2.45,1.89,4.56,2.28,7.13.49,3.2.07,6.65-.2,9.85a84.51,84.51,0,0,1-4.13,20.93,99.37,99.37,0,0,1-22.85,37.52c-.11.11,0,.29.16.19A91.68,91.68,0,0,0,287.21,158.51Z"/>
        <path class="cls-28" d="M259.55,199.72s-.06.05,0,.07S259.59,199.74,259.55,199.72Z"/>
        <path class="cls-28" d="M233.88,221.5c-4.3,2.38-8.22,4.6-13,5.94a86.72,86.72,0,0,1-13,2.74,50.19,50.19,0,0,1-14.22-.3c-4.7-.75-9.31-3-14-3.37a.86.86,0,0,0-.6,1.55c3.59,2.65,9,3.19,13.34,3.62a80.77,80.77,0,0,0,14.67,0,56.55,56.55,0,0,0,27.2-9.72C234.49,221.78,234.17,221.33,233.88,221.5Z"/>
        <path class="cls-28" d="M255.32,206.54c-5.62,4.82-11.56,9.35-17.47,13.8-.21.16.05.41.25.29a100.31,100.31,0,0,0,17.44-13.84A.17.17,0,0,0,255.32,206.54Z"/>
        <path class="cls-28" d="M197.34,231.16l-1.76-.21A1.52,1.52,0,0,1,197.34,231.16Z"/>
        <path class="cls-28" d="M282.11,212.1a85.6,85.6,0,0,1-30,26.43c-23.94,12.33-55.5,10.65-75.69-7.16a6.59,6.59,0,0,1-2-2.57,3.72,3.72,0,0,1,0-2.42,152.48,152.48,0,0,0,21.2,4.57,1.71,1.71,0,0,0-.68.57,2.59,2.59,0,0,0,.08,2.68,6.42,6.42,0,0,0,2,2c17,11.91,43.83,5.35,60.48-4C266.79,226.94,274.79,219.91,282.11,212.1Z"/>
        <path class="cls-29" d="M178.68,226.65c.34-1.26.77-2.87,0-4a1.66,1.66,0,0,0-2.35-.55,4.32,4.32,0,0,0-2.23,1.71c-1.26,1.78-.86,4.11-.4,6.08.33,1.36,2.48,2.1,3.3.71A15.34,15.34,0,0,0,178.68,226.65Z"/>
        <path class="cls-28" d="M229.07,237.69a1.86,1.86,0,0,0-1.72-2c-.4,0-.81,0-1.21,0a4.24,4.24,0,0,0-1.93.33,1.69,1.69,0,0,0,.15,3.13,3.8,3.8,0,0,0,1.77.18l.88,0c.13,0,.21,0,.14,0h.38A1.81,1.81,0,0,0,229.07,237.69Z"/>
        <path class="cls-28" d="M219.74,237.32a1.66,1.66,0,0,0-1.15-.55c-.83,0-1.76.58-1.61,1.55a1.26,1.26,0,0,0,1.64.9,1.85,1.85,0,0,0,1.17-.91A.8.8,0,0,0,219.74,237.32Z"/>
        <path class="cls-28" d="M236,235.54a2.22,2.22,0,0,0-1.56-1.54,4.39,4.39,0,0,0-1.64-.53,1,1,0,0,0-1.1.86c-.21,1.59,2.11,3.41,3.55,2.6A1.28,1.28,0,0,0,236,235.54Z"/>
        <path class="cls-28" d="M253.68,227.32a3.62,3.62,0,0,0-3.92,1.68.88.88,0,0,0-.1.41c-.21.15-.41.3-.59.45a1.84,1.84,0,0,0,1.58,3.18,7.48,7.48,0,0,0,4.42-2.85A1.84,1.84,0,0,0,253.68,227.32Z"/>
        <path class="cls-28" d="M245.45,229.41a.7.7,0,0,0-.76-.38,2.2,2.2,0,0,0-1.74,1.33,1.23,1.23,0,0,0,.47,1.44,1.35,1.35,0,0,0,1.81-.28A2.06,2.06,0,0,0,245.45,229.41Z"/>
        <path class="cls-28" d="M260.81,221.57a.84.84,0,0,0-.75-.65,2.61,2.61,0,0,0-1.81.34c-.26.17-.92.71-.61,1.07a1.73,1.73,0,0,0,1.39.49,2.77,2.77,0,0,0,1.49-.5A.75.75,0,0,0,260.81,221.57Z"/>
        <path class="cls-28" d="M254.08,217.61a.26.26,0,0,0-.35-.32h0a1.25,1.25,0,0,0-1,.11c-.52.24-1,.58-1,1.22a.88.88,0,0,0,.82.93,1.46,1.46,0,0,0,1.42-.92A1.12,1.12,0,0,0,254.08,217.61Z"/>
        <path class="cls-28" d="M277.06,211.37a1.36,1.36,0,0,0-1.72-.6,3.91,3.91,0,0,0-1.81,1.53,3.27,3.27,0,0,1-.44.47,5,5,0,0,0-1.61,1.11,1.76,1.76,0,0,0,1.94,2.88C275.39,216,278.13,213.68,277.06,211.37Z"/>
        <g>
          <path class="cls-28" d="M279.89,205.53a2.22,2.22,0,0,0-1.78.2,2.41,2.41,0,0,0-1.17,1.75,1,1,0,0,0,.44.89,1.1,1.1,0,0,0,1.27,0l0,0,.18-.09a3,3,0,0,0,.63-.42c.06,0,.35-.33.43-.4a3.15,3.15,0,0,0,.41-.48A.91.91,0,0,0,279.89,205.53Z"/>
          <path class="cls-28" d="M279.93,207.4l0,0C280,207.37,280,207.37,279.93,207.4Z"/>
        </g>
        <path class="cls-28" d="M289.42,104.21a3.33,3.33,0,0,0-1-1.62,1.4,1.4,0,0,0-1.73-.1c-.7.71-.6,1.71-.67,2.65-.1,1.21.86,3,2.33,2.24A2.51,2.51,0,0,0,289.42,104.21Z"/>
        <path class="cls-28" d="M288.49,112h0a.3.3,0,0,0-.37-.43l-.09.06a1.86,1.86,0,0,0-1.84,2.4,1,1,0,0,0,1.77.39A3,3,0,0,0,288.49,112Z"/>
        <path class="cls-28" d="M285.89,109.39c-.13,0-.19,0-.3,0a.27.27,0,1,0-.2.51l.08,0a1.37,1.37,0,0,0,.13.2.5.5,0,0,0,.84-.13A.48.48,0,0,0,285.89,109.39Z"/>
        <path class="cls-28" d="M298.53,158.49a1.36,1.36,0,0,0-2.09.07,6.69,6.69,0,0,0-.74,2.58,5.21,5.21,0,0,0,0,2.66,1.37,1.37,0,0,0,2.16.75A4.59,4.59,0,0,0,298.53,158.49Z"/>
        <path class="cls-28" d="M296,155.7a1.82,1.82,0,0,0-.13-.89.35.35,0,0,0-.48-.24,2.41,2.41,0,0,0-.37.07,2.11,2.11,0,0,0-.52.31,3,3,0,0,0-.57,1c-.41.87,1,1.48,1.48.76A2.76,2.76,0,0,0,296,155.7Z"/>
        <path class="cls-28" d="M294.38,170.24c0-.24.06-.47.1-.71a2.06,2.06,0,0,0-.17-.88,2.61,2.61,0,0,0-.53-1.05c0-.25-.34-.28-.52-.15-.47.06-.88.61-1,1a2.4,2.4,0,0,0-.16,1.16,2.57,2.57,0,0,0,.6,1.11A1,1,0,0,0,294.38,170.24Z"/>
        <path class="cls-28" d="M293.62,183a14.72,14.72,0,0,1-.17-1.72.31.31,0,0,0-.56-.2c-.26.45-.77.65-1.09,1.06a2.73,2.73,0,0,0-.66,1.7,1.06,1.06,0,0,0,1.89.67A2.56,2.56,0,0,0,293.62,183Z"/>
        <path class="cls-26" d="M240.44,208c-1.3-1.47-3.41,0-4.53,1a1.88,1.88,0,0,0-.24,2.7,2.05,2.05,0,0,0,2.83.23v0C239.69,211.15,241.76,209.48,240.44,208Z"/>
        <path class="cls-26" d="M243.35,207a1.6,1.6,0,0,0,0-.75c-.15-.63-1.18-.82-1.4-.12a1.84,1.84,0,0,0-.1.93.77.77,0,0,0,.7.61A.78.78,0,0,0,243.35,207Z"/>
        <path class="cls-26" d="M232.29,212.44a1.19,1.19,0,0,1,0-.87.37.37,0,0,0-.58-.39c-1,.63-2.13,2-.9,3a1,1,0,0,0,1.33-.21A1.43,1.43,0,0,0,232.29,212.44Z"/>
        <path class="cls-26" d="M262.62,165.07a2,2,0,0,0-1.32-2,2.07,2.07,0,0,0-2.6,1.11c-.2.42-.34.87-.54,1.29a7.19,7.19,0,0,0-.82,1.21,1.82,1.82,0,0,0,.1,2.23,2,2,0,0,0,2.71.25A6.92,6.92,0,0,0,262.62,165.07Z"/>
        <path class="cls-26" d="M265.24,160a1.14,1.14,0,0,0-1.32,0c-.93.65-.82,2.13-.31,3a1.11,1.11,0,0,0,1.84.16A2.37,2.37,0,0,0,265.24,160Z"/>
        <path class="cls-26" d="M259.08,174.22a1.7,1.7,0,0,0-1.16-.49,2.41,2.41,0,0,0-.54.05c.18,0,.11,0-.2,0a.76.76,0,0,0-.33.11,1,1,0,0,0-.54,1,1.65,1.65,0,0,0,1.08,1.07,1.58,1.58,0,0,0,1.17,0,1.42,1.42,0,0,0,.71-.7A1,1,0,0,0,259.08,174.22Z"/>
      </g>
      <g>
        <path class="cls-30" d="M227.32,242.84c-5.62,5.06-12,8.16-18.86,6.6-3.68-.83-6.92-3.66-10.68-3.38-4.4.33-7.52,3.06-12.19,2.82a12.45,12.45,0,0,1-8-2.88c-6.45-4.93-11.9-11.67-16.2-18.5-9.94-15.75-14.7-36.16-12.31-54.69,1.21-9.33,7.11-18.63,16.17-21.17,6.94-1.94,14.29.27,21.1,2.59,3.87,1.32,7.88,2.7,11.95,2.28,3.41-.35,6.55-1.94,9.72-3.23,15.38-6.25,34.51-5.12,43,11,8.72,16.51,3.27,36.25-4.9,51.79C242.42,223.28,235.75,235.26,227.32,242.84Z"/>
        <path class="cls-31" d="M247.12,189.31c-2.56,9.95-7.41,18.68-18,21.26-5.64,1.37-11.58.93-17.28-.12-17.83-3.3-36.31-12.29-43.84-29.76a17.44,17.44,0,0,1-1.64-8.59,9.3,9.3,0,0,1,4.45-7.24c3.15-1.72,7-1,10.51-.12,8.13,1.91,16.51,3.9,24.75,2.56,5.79-.94,11.18-3.48,16.83-5s12-2.07,17.1.86c4.21,2.43,6.94,7,7.93,11.74A32.3,32.3,0,0,1,247.12,189.31Z"/>
        <path class="cls-32" d="M190.08,157.7c4.35,1.26,8.46,0,12.79.53a1.78,1.78,0,0,1,1.22.79c1.77-1,3.41-1.87,5.46-1.13a.35.35,0,0,1,.2.51c-1.8,2.83-5.65,4.82-8.82,5.68-4.25,1.15-8.79-1.28-12.44-3.15C186.5,159.92,188.12,157.14,190.08,157.7Z"/>
        <path class="cls-32" d="M178.54,234.64a2.6,2.6,0,0,1,3-.17,13.82,13.82,0,0,1,2.62,1.86,2.1,2.1,0,0,1,.58,1.27,2.3,2.3,0,0,1-.41,2.94c-1.41,1.27-3.18.45-4.36-.65a13.69,13.69,0,0,1-2-2.39A2.3,2.3,0,0,1,178.54,234.64Z"/>
        <path class="cls-32" d="M172.9,230.61c.08-.71.35-1.38,1.17-1.39a2,2,0,0,1,1.17.51,3.81,3.81,0,0,1,1.17,1.26,1.71,1.71,0,0,1-.77,2.35,1.9,1.9,0,0,1-2.48-.8,3.84,3.84,0,0,1-.29-1.28A3.54,3.54,0,0,1,172.9,230.61Z"/>
        <path class="cls-32" d="M189.49,236.11a1,1,0,0,1,1,.48,1.61,1.61,0,0,1-2,2.22,1,1,0,0,1-.67-.92A1.8,1.8,0,0,1,189.49,236.11Z"/>
        <path class="cls-32" d="M161.5,216.2a1.73,1.73,0,0,1,2.16-1,5.07,5.07,0,0,1,2.47,1.9,16,16,0,0,1,1.88,2.61,2.45,2.45,0,0,1-1.09,3.38,2.8,2.8,0,0,1-3.56-1.16,14.82,14.82,0,0,1-1.35-2.59A4.42,4.42,0,0,1,161.5,216.2Z"/>
        <path class="cls-32" d="M161.1,209.32a2,2,0,0,1,1.33-.47c.71,0,1.62.48,1.45,1.3l0-.14a1,1,0,0,1-.17.51c0-.07-.09.1-.17.19a5.76,5.76,0,0,1-.53.69,1.66,1.66,0,0,1-1.22.44,1.36,1.36,0,0,1-1.21-1.06A1.47,1.47,0,0,1,161.1,209.32Z"/>
        <path class="cls-32" d="M172.77,220.33a.53.53,0,0,1,.56-.22l-.05,0a.29.29,0,0,1,.1,0l.13,0s.05,0,.07,0,0,0,.07.06,0,0,0,0h0a1.36,1.36,0,0,1,.27.36,2.77,2.77,0,0,1,.18,1.07c0,.82-1.28.85-1.44.1A1.92,1.92,0,0,1,172.77,220.33Z"/>
        <path class="cls-32" d="M215.28,240.39a7.24,7.24,0,0,1,2.73-1l.2-.08a5,5,0,0,0,.64-.36c-.27.17.35-.28.31-.25.76-.64.14-.09.59-.39a1.83,1.83,0,0,1,3,1.38c.32,3.4-5.16,6.37-7.56,3.64A2.05,2.05,0,0,1,215.28,240.39Z"/>
        <path class="cls-32" d="M206.07,240.6a1.76,1.76,0,0,1,3-.55,3.33,3.33,0,0,1,.5.85c0,.1.08.21.13.31s.13.17.3.27a.36.36,0,0,1-.21.66.92.92,0,0,0-.7.23,3.11,3.11,0,0,1-.91.4A1.75,1.75,0,0,1,206.07,240.6Z"/>
        <path class="cls-32" d="M226.12,231.27a2.42,2.42,0,0,1,.82-.77l.23-.14c-.25.17-.18.12.22-.14s1.41-.84,1.93-.43c1.91,1.51-.6,5.17-2.73,3.72A1.62,1.62,0,0,1,226.12,231.27Z"/>
        <path class="cls-32" d="M208.44,232a5.49,5.49,0,0,1,2.6.36c.51.22,1.56.75,1.32,1.49s-1.09.8-1.73.82a5.43,5.43,0,0,1-2.55-.62A1,1,0,0,1,208.44,232Z"/>
        <path class="cls-32" d="M155.27,202a2.54,2.54,0,0,1,.7-1.45.39.39,0,0,1,.59,0,2.76,2.76,0,0,1,.89,1.33,4.69,4.69,0,0,1,.09,1.79,1.07,1.07,0,0,1-2.1.14A4.87,4.87,0,0,1,155.27,202Z"/>
        <path class="cls-32" d="M195.91,240.53a3.27,3.27,0,0,1,2.9-.25,1,1,0,0,1,.4,1.71,3.16,3.16,0,0,1-2.78.72,1.26,1.26,0,0,1-1.13-.92A1.12,1.12,0,0,1,195.91,240.53Z"/>
        <path class="cls-32" d="M179,228.83a4,4,0,0,1,4.69-.44.73.73,0,0,1,.11,1.16,7.65,7.65,0,0,1-1.79.82,6.14,6.14,0,0,1-2.24.46A1.16,1.16,0,0,1,179,228.83Z"/>
        <path class="cls-32" d="M163.77,201.59a5.93,5.93,0,0,1,4.66,3.64.94.94,0,0,1-.76,1.14,6,6,0,0,1-5.2-2.83A1.34,1.34,0,0,1,163.77,201.59Z"/>
        <path class="cls-32" d="M232.85,221.84a9.33,9.33,0,0,0,2.73-1.46.69.69,0,0,1,1.12.52,3.07,3.07,0,0,1-3.39,2.86,1.1,1.1,0,0,1-1-.81A1,1,0,0,1,232.85,221.84Z"/>
        <path class="cls-31" d="M183.53,206.28a3.69,3.69,0,0,1,3.65-.31c1.15.49,2.56,1.08,3.1,2.3a.91.91,0,0,1-.21,1.15c-1.93,1.29-5.82.63-6.82-1.6A1.24,1.24,0,0,1,183.53,206.28Z"/>
        <path class="cls-31" d="M180.68,202.66a1.71,1.71,0,0,1,1.26,1.27c.06.48.05,1-.51,1.2a1.73,1.73,0,0,1-2.1-1.3A1,1,0,0,1,180.68,202.66Z"/>
        <path class="cls-31" d="M159.29,171a4.06,4.06,0,0,1,2-2.63,1.82,1.82,0,0,1,2.51,1.17,2.73,2.73,0,0,1,0,1.39c-.05.3-.12.74-.21,1.2a4.08,4.08,0,0,1-1.32,2.39,1.68,1.68,0,0,1-2.28-.16A3.55,3.55,0,0,1,159.29,171Z"/>
        <path class="cls-31" d="M161.29,179.5a1,1,0,0,1,1.12-.36,5.31,5.31,0,0,1,2.25,2.46c.58,1-.5,2-1.5,1.69a3.1,3.1,0,0,1-1.89-1.51A2.29,2.29,0,0,1,161.29,179.5Z"/>
        <path class="cls-30" d="M224.36,204.3a5.08,5.08,0,0,1,2.28-.89c.67-.11,1.35-.63,2.16-.72a1.42,1.42,0,0,1,1.63,1c.48,3.11-4.81,5.14-6.37,2.25A1.35,1.35,0,0,1,224.36,204.3Z"/>
        <path class="cls-30" d="M217.89,204.05a2,2,0,0,1,2,.6,2.18,2.18,0,0,1,.62,1.07.62.62,0,0,1-.49.92,2.32,2.32,0,0,1-1.17.15,2,2,0,0,1-1.83-1.48C216.86,204.69,217.37,204.23,217.89,204.05Z"/>
        <path class="cls-30" d="M180.09,189.66a4.07,4.07,0,0,1,2.8,1.53,5.82,5.82,0,0,1,1.61,2.59,1.11,1.11,0,0,1-1.17,1.34A5.76,5.76,0,0,1,180.7,194a4.27,4.27,0,0,1-2.14-2.63A1.45,1.45,0,0,1,180.09,189.66Z"/>
        <path class="cls-30" d="M174.58,181.5a1.89,1.89,0,0,1,1.4.75,1.76,1.76,0,0,1,.25,1.84,1,1,0,0,1-1.24.6,2,2,0,0,1-1.38-1.81C173.6,182.39,173.92,181.41,174.58,181.5Z"/>
        <path class="cls-30" d="M238,194.86a9.68,9.68,0,0,1,2.19-2.32.73.73,0,0,1,.95.31c1.24,2.17-.53,6.28-3.08,6.52a1.41,1.41,0,0,1-1.66-1.36C236.45,196.68,237.24,195.84,238,194.86Z"/>
        <path class="cls-33" d="M225.32,166c3.1-1.06,6.32-2.41,9.43-.78,2,1,2.17,3.13,1.68,5.12a6.65,6.65,0,0,1,0,4c-.88,3.33-4.69,5-7.83,4.79-3-.17-8.23-3.15-8.88-6.35C218.93,168.63,222,167.1,225.32,166Z"/>
        <path class="cls-33" d="M200.92,171.57a23.72,23.72,0,0,1,8.46-1,2.52,2.52,0,0,1,2.07,3.67,2,2,0,0,1-.58,1.41c-2.68,2.94-7.81,2.39-10.72.15A2.34,2.34,0,0,1,200.92,171.57Z"/>
        <path class="cls-33" d="M239.37,173.82l0-.07a1.58,1.58,0,0,1,.23-.42,1.78,1.78,0,0,1,1.39-.81,2.21,2.21,0,0,1,2.14,1.94,2.34,2.34,0,0,1-.35,1.82,2.12,2.12,0,1,1-3.45-2.46Z"/>
        <path class="cls-33" d="M235.73,180.78a1.84,1.84,0,0,1,.81-.93,2.56,2.56,0,0,1,1.19-.2.62.62,0,0,1,.6.62,2.15,2.15,0,0,1-.25,1,2,2,0,0,1-1.11.8A1,1,0,0,1,235.73,180.78Z"/>
        <path class="cls-33" d="M189.62,170.13a2.8,2.8,0,0,1,1.75.59,1.85,1.85,0,0,1,.59.68c0,.18,0,.26.11.25s.21.65.06.27a.53.53,0,0,1-.36.74c.41-.14-.27.12-.26.11a1.77,1.77,0,0,1-1.18.07,2.82,2.82,0,0,1-1.56-1A1.05,1.05,0,0,1,189.62,170.13Z"/>
        <path class="cls-4" d="M199.58,140a2.3,2.3,0,0,1,2.57-.83,1.31,1.31,0,0,1,.82.38c.07.08.13.17.19.25a2.28,2.28,0,0,1,.24,2.65c-3.14,6-4.37,10.71-3.44,17.43a.63.63,0,0,1-1.19.39C195.43,154.34,195.61,145.64,199.58,140Z"/>
      </g>
      <g>
        <path class="cls-30" d="M171.35,167.88a559.47,559.47,0,0,1-65,44.22c10.28,9.2,23.92,15,37.7,14.35s27.4-8.39,33.67-20.68S181.73,177,171.35,167.88Z"/>
        <path class="cls-23" d="M169.89,167.36a4.4,4.4,0,0,0-2,.61Q132.81,185,98.58,203.75a51.77,51.77,0,0,0,17.67,15.92,39.69,39.69,0,0,0,23.18,4.62c11.62-1.39,22.17-8.81,28.21-18.83s7.72-22.4,5.48-33.89C172.75,169.69,171.8,167.41,169.89,167.36Z"/>
        <path class="cls-34" d="M126.37,194.82c-.23,2.18,1.61,4.11,3.65,4.89a10.91,10.91,0,0,0,7.2-.07,25.94,25.94,0,0,0,6.45-3.47c2.81-1.94,5.69-4.35,6.39-7.7a4.42,4.42,0,0,0-.85-3.94,4.13,4.13,0,0,0-3.36-1.1,12,12,0,0,0-3.5,1c-4.39,1.71-8.81,3.45-12.7,6.11C128.12,191.58,126.56,193,126.37,194.82Z"/>
        <path class="cls-4" d="M144.68,188.79a2.67,2.67,0,0,0-2.65-1.74c-2.16-.13-5.38.78-6.67,2.77a5.65,5.65,0,0,0-.56.54,2.31,2.31,0,0,0,1.25,3.83c2.86.79,6.12-.84,8-2.88A2.57,2.57,0,0,0,144.68,188.79Z"/>
        <path class="cls-24" d="M127.47,202.6c-2.51-.85-4.9-2.1-7.51-2.6s-5.6-.07-7.34,1.93c-1.93,2.21-1.66,5.75,0,8.2s4.29,4,7,5.15a27.72,27.72,0,0,0,13.7,2.42,17.59,17.59,0,0,0,12.11-6.37c1.14-1.49,2-3.51,1.2-5.19a4.29,4.29,0,0,0-3.17-2.15,16.47,16.47,0,0,0-4,0A31.07,31.07,0,0,1,127.47,202.6Z"/>
        <path class="cls-24" d="M157.12,195.55a11.85,11.85,0,0,0-7.2,8.31,2.8,2.8,0,0,0,.44,2.66,2.71,2.71,0,0,0,1.8.57,10.28,10.28,0,0,0,9.59-6.12,5.87,5.87,0,0,0,.53-3,3.3,3.3,0,0,0-1.59-2.51A4.37,4.37,0,0,0,157.12,195.55Z"/>
        <path class="cls-32" d="M169.52,211.38a3.41,3.41,0,0,0-3.65.81,5.85,5.85,0,0,0-2,2.52c-.34,1,.67,1.73,1.55,1.78a6.58,6.58,0,0,0,3-1,3.12,3.12,0,0,0,1.87-2.83A1.46,1.46,0,0,0,169.52,211.38Z"/>
        <path class="cls-32" d="M171.91,207.87a2,2,0,0,0-.68,1.24c-.11.4.41.55.65.31a2,2,0,0,0,.74-1.08A.46.46,0,0,0,171.91,207.87Z"/>
        <path class="cls-32" d="M177.62,192.27a.93.93,0,0,0-1.55.1A4.1,4.1,0,0,0,176,196a1.13,1.13,0,0,0,2.14-.13A4.05,4.05,0,0,0,177.62,192.27Z"/>
        <path class="cls-32" d="M173.65,200.66a3.76,3.76,0,0,0-.92,1.78.91.91,0,0,0,1.71.56,3.68,3.68,0,0,0,.47-1.93A.73.73,0,0,0,173.65,200.66Z"/>
      </g>
      <path class="cls-35" d="M115.71,319.65c-30.25-6-54.17-21.24-72.35-43.62s-26.8-50.79-23.77-78.3c94.56,14.18,191.56,11.24,286.52-.59,2.71-.34,3.69,52.65-32,88.37C256.3,303.27,225,317.46,198.57,321,171.14,324.6,143.1,325.09,115.71,319.65Z"/>
      <path class="cls-3" d="M313.38,187.29c1.15,6.56-6.21,11.58-12.76,14.71-40.07,19.18-85.4,29.25-130.85,30.19A366.72,366.72,0,0,1,36.71,209.63c-6-2.18-12-4.59-16.73-8.52a19.79,19.79,0,0,1-7-15.4c0-8.36,8-11.66,19.58-12.25L32,182.21a397.81,397.81,0,0,0,263.31-.62c.18-1.65.35-3.3.52-5C303.25,177.93,312.2,180.62,313.38,187.29Z"/>
      <path class="cls-3" d="M190.76,52.83c-9.77,0-20,2.33-30.25,6.35-26,10.12-43.58,35.5-51.16,62.32s-6.53,55.22-4.85,83c9.75,2.88,20.06,3.3,28.6,4a399.11,399.11,0,0,1,2.35-70.49c1.46-12,3.54-24.08,9-34.82,6.37-12.53,23.44-26.88,37.51-30a31.48,31.48,0,0,1,9.38-.69A119.64,119.64,0,0,1,190.76,52.83Z"/>
      <path class="cls-36" d="M138.91,320.19c-42.14-13.67-69.69-52.45-65.8-98.38.23-2.71-4.31-1.21-4.38.95A104.69,104.69,0,0,0,136.52,324C138.55,324.74,141.51,321,138.91,320.19Z"/>
      <path class="cls-36" d="M156.36,320.07a121.21,121.21,0,0,1-24-88.14c.33-2.67-4.32-1.2-4.38.94-.81,32.54,5.63,64.59,24.43,89.94C153.83,324.68,157.76,321.9,156.36,320.07Z"/>
      <path class="cls-36" d="M185.07,320.19a101.93,101.93,0,0,0,65.8-98.38c-.09-2.72,4.3-1.21,4.37.95,1.41,44.74-27.22,83.9-69.11,99.62C184.11,323.14,182.51,321.15,185.07,320.19Z"/>
      <path class="cls-36" d="M167.61,320.07c19.16-25.05,29.72-57.47,25.88-88.77-.33-2.67,2.21-.55,2.47,1.57a123.89,123.89,0,0,1-24.43,89.94C170.12,324.66,166.22,321.9,167.61,320.07Z"/>
      <path class="cls-35" d="M131.32,201.38c-9.28,2.6-18-3.36-27.32-3-1.31,0-2.59,2.42-.83,2.36,9.62-.35,18.33,5.66,28,2.95C132.51,203.29,133.13,200.88,131.32,201.38Z"/>
      <path class="cls-35" d="M132.78,184.37a30.66,30.66,0,0,1-27.89-16.07c-.66-1.19-3,.42-2.35,1.65A32.41,32.41,0,0,0,132,186.73C133.27,186.69,134.55,184.32,132.78,184.37Z"/>
      <path class="cls-35" d="M133.53,163.41a40,40,0,0,1-26-27.21c-.41-1.43-2.94-.13-2.58,1.14a41.67,41.67,0,0,0,27.18,28.34C133.33,166.09,135.08,163.92,133.53,163.41Z"/>
      <path class="cls-35" d="M136,135.64a43.43,43.43,0,0,1-16.84-34.7c0-1.64-2.61-.73-2.62.57a45.11,45.11,0,0,0,17.51,36.16C135.11,138.48,137.21,136.56,136,135.64Z"/>
      <path class="cls-35" d="M144.33,104.83a38.36,38.36,0,0,1-2.41-34.16c.67-1.64-2-1.25-2.5,0A40.27,40.27,0,0,0,142,106.47C142.68,107.65,145,106,144.33,104.83Z"/>
      <path class="cls-35" d="M174.48,54.45a35.73,35.73,0,0,0-16.19,32.67c.13,1.64,2.73.73,2.63-.56a32.91,32.91,0,0,1,14.74-30.42C177.16,55.16,176,53.48,174.48,54.45Z"/>
      <path class="cls-35" d="M200.13,52.41A28.06,28.06,0,0,0,183.52,73c-.3,1.56,2.38.68,2.63-.56a24.53,24.53,0,0,1,14.49-17.93C202.12,53.84,201.86,51.66,200.13,52.41Z"/>
      <path class="cls-35" d="M50.2,217.08a28.78,28.78,0,0,1-15.92-34.2c.48-1.71-2.14-1.32-2.5,0-4.07,14.73,2.53,29.78,16.47,36.26C49.44,219.66,51.5,217.68,50.2,217.08Z"/>
      <path class="cls-35" d="M83.33,225.43a33.77,33.77,0,0,1-19-33.39c.13-1.62-2.52-.72-2.62.56a35.32,35.32,0,0,0,19.64,34.87C82.56,228.05,84.62,226.07,83.33,225.43Z"/>
      <path class="cls-35" d="M122.16,235.54c-10-8.83-22.06-20.58-17.28-35.28.55-1.69-2.09-1.3-2.5,0-5.07,15.58,7.16,27.89,17.83,37.34C121.18,238.44,123.29,236.54,122.16,235.54Z"/>
      <path class="cls-35" d="M157.32,233.6a29.34,29.34,0,0,1-19.88-30.8c.14-1.61-2.51-.72-2.63.57a31,31,0,0,0,21.08,32.51C157.12,236.3,158.87,234.14,157.32,233.6Z"/>
      <path class="cls-35" d="M191.43,232.78a29.52,29.52,0,0,1-15.72-27.93c.1-1.62-2.55-.72-2.63.57a31.11,31.11,0,0,0,16.4,29.4C190.65,235.44,192.72,233.46,191.43,232.78Z"/>
      <path class="cls-35" d="M235,232.89a36.26,36.26,0,0,1-23-32.14c-.07-1.64-2.68-.72-2.63.57a37.92,37.92,0,0,0,24.22,33.84C234.75,235.63,236.5,233.48,235,232.89Z"/>
      <path class="cls-35" d="M268.12,221.8a30.51,30.51,0,0,1-21.38-25.68c-.17-1.44-2.74-.17-2.58,1.13a32.07,32.07,0,0,0,22.53,26.82C267.93,224.45,269.68,222.27,268.12,221.8Z"/>
      <path class="cls-35" d="M301.13,209.75A28,28,0,0,1,280,187.57c-.28-1.45-2.83-.16-2.59,1.13A29.62,29.62,0,0,0,299.7,212C301,212.32,302.7,210.12,301.13,209.75Z"/>
      <path class="cls-36" d="M301.27,215.83c-17.11,15.32-39.35,22-61.68,25.18-24.81,3.49-50.34,3.62-75.35,4s-50.41,1.13-75.14-2.68c-23.82-3.66-45.84-13.88-67.47-24.05-1.18-.55-3.24,1.43-1.95,2,21.9,10.29,43.94,20.32,68,24.29,25.47,4.2,52,3.15,77.66,2.72s52.15-.77,77.77-4.6C264.92,239.5,286.4,231.91,303,217,304.45,215.76,302.44,214.78,301.27,215.83Z"/>
      <path class="cls-36" d="M295.42,255.33c-43.09,18-90.3,20-136.38,20.38-45.24.35-94.82-.39-131.59-30.6-1-.83-3.11,1.08-1.95,2,37.07,30.46,87.11,31.24,132.72,30.93,46.53-.33,94.22-2.49,137.72-20.67C297.42,256.78,297.16,254.6,295.42,255.33Z"/>
      <path class="cls-36" d="M242,304.55c-31.7,3-63.76,1.22-95.51-.07-15.88-.65-31.74-1.62-47.54-3.35C84.2,299.52,69,297.24,56.67,288.37c-1.07-.77-3.16,1.16-2,2,10.74,7.72,23.55,10.49,36.44,12.24,16.79,2.28,33.77,3.26,50.68,4,33,1.49,66.4,3.34,99.33.23C242.46,306.78,243.74,304.38,242,304.55Z"/>
    </g>
  </g>
</svg>
