<svg id="Layer_1" data-name="Layer 1" xmlns="http://www.w3.org/2000/svg" width="278.43" height="387.77" viewBox="0 0 278.43 387.77">
  <defs>
    <style>
      .cls-1 {
        opacity: 0.5;
      }

      .cls-2 {
        fill: #ff0;
      }

      .cls-3 {
        fill: #9a6634;
      }

      .cls-4 {
        fill: #caaf99;
      }

      .cls-5 {
        fill: #4b2917;
      }

      .cls-6 {
        fill: #243a1a;
      }

      .cls-7 {
        fill: #cb7a35;
      }

      .cls-8 {
        fill: #589241;
      }

      .cls-9 {
        fill: #925c2a;
      }

      .cls-10 {
        fill: #20130a;
      }

      .cls-11 {
        fill: #6b3019;
      }

      .cls-12 {
        fill: #935d2b;
      }

      .cls-13 {
        fill: #935c2a;
      }

      .cls-14 {
        fill: #f5b576;
      }

      .cls-15 {
        fill: #21140a;
      }

      .cls-16 {
        fill: #935e2b;
      }

      .cls-17 {
        fill: #23160c;
      }

      .cls-18 {
        fill: #301110;
      }

      .cls-19 {
        fill: #22150b;
      }

      .cls-20 {
        fill: #9f6a39;
      }

      .cls-21 {
        fill: #25170d;
      }

      .cls-22 {
        fill: #323130;
      }

      .cls-23 {
        fill: #653f17;
      }

      .cls-24 {
        fill: #9e6732;
      }

      .cls-25 {
        fill: #353432;
      }

      .cls-26 {
        fill: #663f18;
      }

      .cls-27 {
        fill: #9d652e;
      }

      .cls-28 {
        fill: #725622;
      }

      .cls-29 {
        fill: #2b1b10;
      }

      .cls-30 {
        fill: #9a6430;
      }

      .cls-31 {
        fill: #a36f3e;
      }

      .cls-32 {
        fill: #9d6937;
      }

      .cls-33 {
        fill: #a2734a;
      }

      .cls-34 {
        fill: #a06e3e;
      }

      .cls-35 {
        fill: #a6764b;
      }

      .cls-36 {
        fill: #9d6635;
      }

      .cls-37 {
        fill: #725522;
      }

      .cls-38 {
        fill: #9b6229;
      }

      .cls-39 {
        fill: #a37144;
      }

      .cls-40 {
        fill: #9c6735;
      }

      .cls-41 {
        fill: #af7b4b;
      }

      .cls-42 {
        fill: #a57143;
      }

      .cls-43 {
        fill: #ab7444;
      }

      .cls-44 {
        fill: #ac7b4d;
      }

      .cls-45 {
        fill: #935d2c;
      }

      .cls-46 {
        fill: #3a1211;
      }

      .cls-47 {
        fill: #a87547;
      }

      .cls-48 {
        fill: #a87241;
      }

      .cls-49 {
        fill: #a26d3e;
      }

      .cls-50 {
        fill: #a26e3d;
      }

      .cls-51 {
        fill: #6d5948;
      }

      .cls-52 {
        fill: #59493a;
      }

      .cls-53 {
        fill: #506c39;
      }

      .cls-54 {
        fill: #9b6432;
      }

      .cls-55 {
        fill: #cbc8c5;
      }

      .cls-56 {
        fill: #526e3b;
      }

      .cls-57 {
        fill: #a87546;
      }

      .cls-58 {
        fill: #45652f;
      }

      .cls-59 {
        fill: #a27044;
      }

      .cls-60 {
        fill: #a87140;
      }

      .cls-61 {
        fill: #a97445;
      }

      .cls-62 {
        fill: #ad7646;
      }

      .cls-63 {
        fill: #a4764c;
      }

      .cls-64 {
        fill: #a37042;
      }

      .cls-65 {
        fill: #4b3624;
      }

      .cls-66 {
        fill: #9f6a38;
      }

      .cls-67 {
        fill: #cb7935;
      }

      .cls-68 {
        fill: #6a2f19;
      }

      .cls-69 {
        fill: #6e431e;
      }

      .cls-70 {
        fill: #efaf71;
      }

      .cls-71 {
        fill: #f2b274;
      }

      .cls-72 {
        fill: #f0b272;
      }

      .cls-73 {
        fill: #d49457;
      }

      .cls-74 {
        fill: #e8a768;
      }

      .cls-75 {
        fill: #dc9c5d;
      }

      .cls-76 {
        fill: #dd995b;
      }

      .cls-77 {
        fill: #da9657;
      }

      .cls-78 {
        fill: #d18848;
      }

      .cls-79 {
        fill: #dc9b5e;
      }

      .cls-80 {
        fill: #f5b577;
      }

      .cls-81 {
        fill: #381212;
      }

      .cls-82 {
        fill: #f7f2f3;
      }

      .cls-83 {
        fill: #491212;
      }

      .cls-84 {
        fill: #f4b576;
      }

      .cls-85 {
        fill: #f4b475;
      }

      .cls-86 {
        fill: #d99257;
      }

      .cls-87 {
        fill: #e7a162;
      }

      .cls-88 {
        fill: #e1a46b;
      }

      .cls-89 {
        fill: #d89c65;
      }

      .cls-90 {
        fill: #e5a66a;
      }

      .cls-91 {
        fill: #cb7a36;
      }

      .cls-92 {
        fill: #9c642f;
      }

      .cls-93 {
        fill: #9c6530;
      }

      .cls-94 {
        fill: #e7a566;
      }

      .cls-95 {
        fill: #e8b262;
      }

      .cls-96 {
        fill: #aa6b2a;
      }

      .cls-97 {
        fill: #9b6430;
      }

      .cls-98 {
        fill: #a46a32;
      }

      .cls-99 {
        fill: #b32726;
      }

      .cls-100 {
        fill: #e35a59;
      }

      .cls-101 {
        fill: #791416;
      }

      .cls-102 {
        fill: #fbd780;
      }

      .cls-103 {
        fill: #f8a71a;
      }

      .cls-104 {
        fill: #50534e;
      }

      .cls-105 {
        fill: #7c5a24;
      }

      .cls-106 {
        fill: #e89623;
      }

      .cls-107 {
        fill: #fbd680;
      }

      .cls-108 {
        fill: #795823;
      }

      .cls-109 {
        fill: #4e514d;
      }

      .cls-110 {
        fill: #9d6532;
      }

      .cls-111 {
        fill: #e8a263;
      }

      .cls-112 {
        fill: #dfa063;
      }

      .cls-113 {
        fill: #9b632f;
      }

      .cls-114 {
        fill: #9b6531;
      }

      .cls-115 {
        fill: #de8a4c;
      }

      .cls-116 {
        fill: #4b2221;
      }

      .cls-117 {
        fill: #dd894c;
      }

      .cls-118 {
        fill: #501412;
      }

      .cls-119 {
        fill: #4c1312;
      }

      .cls-120 {
        fill: #5d1b14;
      }

      .cls-121 {
        fill: #551412;
      }

      .cls-122 {
        fill: #5c332d;
      }

      .cls-123 {
        fill: #5d322b;
      }

      .cls-124 {
        fill: #5d3530;
      }

      .cls-125 {
        fill: #522926;
      }

      .cls-126 {
        fill: #5d352f;
      }

      .cls-127 {
        fill: #603730;
      }

      .cls-128 {
        fill: #5d3632;
      }

      .cls-129 {
        fill: #bb7233;
      }

      .cls-130 {
        fill: #a46e36;
      }

      .cls-131 {
        fill: #926327;
      }

      .cls-132 {
        fill: #f5ce7c;
      }

      .cls-133 {
        fill: #311313;
      }

      .cls-134 {
        fill: #351515;
      }

      .cls-135 {
        fill: #f9f8f8;
      }

      .cls-136 {
        fill: #e9e2e2;
      }

      .cls-137 {
        fill: #e8e0e0;
      }
    </style>
  </defs>
  <g>
    <path class="cls-1" d="M162.43,387.77a15.45,15.45,0,0,1-14-9.08,27.85,27.85,0,0,1-2.5-11.87c-.39-10.94,1.76-21.68,6.59-32.94,2.28-5.33,4.69-10.71,7.16-16a44.11,44.11,0,0,1,2.29-7.13c.2-.53.41-1.05.6-1.58s.49-1.33.74-2c-8.14,7-17.73,11.82-29.24,14.81a43.73,43.73,0,0,1-10.93,1.42c-9.17,0-18.27-3.09-27.06-9.17a150.11,150.11,0,0,1-14.92-12,2.81,2.81,0,0,0-2.14-.92,7.63,7.63,0,0,0-1.79.25l-.24.06A26.25,26.25,0,0,0,70.62,304c-3,1.7-3.38,3.17-3.54,4.12a7,7,0,0,0,.8,1c.15.16.61.58.94.88,0,0,0,0,0,0l.5.3c1.06.65,2.13,1.31,3.2,1.94l.22.13A27.58,27.58,0,0,0,79,315.3a35.21,35.21,0,0,1,11.9,6.06,15.07,15.07,0,0,1,6.25,10.49c.44,4.11-.89,8-3.94,11.67a19.64,19.64,0,0,1-15.18,7.29A22.24,22.24,0,0,1,67.57,348l-.2-.11a46.59,46.59,0,0,1-9.69-7.15,77.28,77.28,0,0,1-7.44-7.59c-3.94-4.29-9.34-11-11.73-20.36-2.55-10-.18-19.45,6.66-26.66,9.2-9.7,20.68-14.94,33.21-15.18H79c8.62,0,15.3,3.65,19.59,6.39,2.95,1.89,5.52,3.89,8,5.83,1.24,1,2.47,1.93,3.73,2.85l.22.16a30.25,30.25,0,0,0,6.8,3.91,15.26,15.26,0,0,0,8.53.54l.26-.05a37.24,37.24,0,0,0,14.5-6.43c5.65-4.17,7.43-9.31,5.59-16.16l0-.18c-.14-.48-.27-1-.38-1.45,0-.11-.05-.22-.07-.33s-.15,0-.27-.09a128.23,128.23,0,0,1-16.11-11.88,61.69,61.69,0,0,0-5,7.4,14.82,14.82,0,0,1-13.33,8.23,15.6,15.6,0,0,1-2.46-.2c-3.19-.41-6.4-.8-9.6-1.19-5.15-.62-10.48-1.27-15.76-2-7.56-1.05-15.2-2.2-22.59-3.31l-7.91-1.18-1.75.16-2.73.49a14.33,14.33,0,0,1-.35,1.95c-1.63,6.36-6.82,8.64-9,9.61a16.44,16.44,0,0,1-7,1.74c-4.12,0-9.74-1.68-13.13-9.7-.15-.36-.31-.71-.46-1a30.45,30.45,0,0,1-5.67-11.76,19.51,19.51,0,0,1-2.13-2.57,15,15,0,0,1-2.06-3.42,12.72,12.72,0,0,1-1.94-6.74v-3.08a12.72,12.72,0,0,1,2-6.83c.19-.36.39-.72.6-1.06a17.38,17.38,0,0,1,2.14-6.39,19.39,19.39,0,0,1,.61-3.18l.06-.2a20.2,20.2,0,0,1,13.59-13.6,10.3,10.3,0,0,1,1.06-.27,20,20,0,0,1,4.08-.42,20.47,20.47,0,0,1,3.41.29,37.75,37.75,0,0,1,4.17-1.39,29,29,0,0,1-2-10.78,18.77,18.77,0,0,1,2.44-9.57l-.12-.47A12.73,12.73,0,0,1,31,175.09a19.28,19.28,0,0,1-.62-5.1,13.19,13.19,0,0,1-1.29-13.89q.39-.93.78-1.83c-1.1-3-1.42-7,1-11.78,0,0-.05.12-.09.23l.09-.22A35.39,35.39,0,0,1,43,128.07a67.34,67.34,0,0,1,27-11.12,81.58,81.58,0,0,1,15-1.45A66.69,66.69,0,0,1,114.14,122a59.26,59.26,0,0,1,9.69,5.79c0-1,0-3.08,0-3.08-.13-8.65-.68-17.86-1.79-29.88-.13-1.48-.27-3-.41-4.45a28.14,28.14,0,0,1-8.4-6,18.8,18.8,0,0,1-5.32-15.65c0-.22.06-.43.1-.65-4.55-4.74-8.84-9.33-13-14.09-8.37-9.53-14.86-17.57-20.41-25.27a14.68,14.68,0,0,1-3.42-8.27A12.69,12.69,0,0,1,81.55,7a29.13,29.13,0,0,1,5.34-.44l2.08,0,1.38,0a4.47,4.47,0,0,0,.75,0,22,22,0,0,1,3.11-.23c6.42,0,11.89,2.9,16.27,8.61A290.58,290.58,0,0,0,132.8,40.23a20.68,20.68,0,0,1,7.47-1.37,23.48,23.48,0,0,1,4.52.45,16.09,16.09,0,0,1,8.8,4.66A18.84,18.84,0,0,1,162,49.83a17.18,17.18,0,0,1,3.79,7.76,16.88,16.88,0,0,1,3.71,16.87c3.55,3,7.11,5.83,10.57,8.58l3.46,2.79c3,2.42,5.81,4.71,8.69,6.74l5,3.62c3.18,2.3,6.19,4.48,9.27,6.52l.72.48c2.18,1.44,4.36,2.88,6.52,4.34A13.54,13.54,0,0,1,216,109a14.75,14.75,0,0,1,1.86,1.28l3.57,2.49a13.35,13.35,0,0,1,3.88,2.4c3.94,2.37,7.27,4.43,10.4,6.45s6.64,4,10.23,6.07l1.15.65c5.9,3.36,13.67,7.68,21.67,11.46a15.29,15.29,0,0,1,9.63,15.5c-.08,2.44-.07,4.94-.05,7.59,0,1.18,0,2.35,0,3.53a12.87,12.87,0,0,1-7.51,11.71c-.26.12-.53.23-.8.33a13.3,13.3,0,0,1-3.54.81c-.38,0-.77,0-1.15,0a12.78,12.78,0,0,1-4.91-1c-5.11-2.14-9.8-4.65-14.34-7.08l-2.52-1.35a547.53,547.53,0,0,1-79.71-51.62c.16.5.31,1,.47,1.5,2.67,8.38,5.11,15.09,7.68,21.12s1.73,11.77,1.27,14.84a12.7,12.7,0,0,1-5.13,8.42,13,13,0,0,1-7.75,6.13,25.85,25.85,0,0,0-2.64,12.45,57,57,0,0,0,1.65,11.08,24.17,24.17,0,0,1,3.74-6.76l.34-.42a15.1,15.1,0,0,1,22.69-1.1l.4.4a34.35,34.35,0,0,1,7,11,144.39,144.39,0,0,1,6.89,20,69.12,69.12,0,0,1,5.21-6.63,36.44,36.44,0,0,1,13.16-9.53,22.19,22.19,0,0,1,8.57-1.81c9.44,0,16.69,6.66,18.05,16.57.55,4,2.2,16-5.3,26.77a15.06,15.06,0,0,1-1.83,2.58,73.34,73.34,0,0,1-4.51,6.14l-1.22,1.65-.95,1.24-1.86,2.53-1.73,2.24a15.61,15.61,0,0,1-2,2.68,15.86,15.86,0,0,1-1.79,2.43,15.22,15.22,0,0,1-1.25,1.65c-.27.38-.56.75-.86,1.11a15.39,15.39,0,0,1-1.61,2q-1.63,2.28-3.47,4.4a15.19,15.19,0,0,1-2,2.36,20.68,20.68,0,0,1-1.85,2.32,15.41,15.41,0,0,1-1.8,2c-.57.67-1.16,1.3-1.79,1.91,2.06,5.52,2.17,12.86-1.56,18.3a11.77,11.77,0,0,1-1.11,1.4,18.08,18.08,0,0,1-2.6,3.74,12.49,12.49,0,0,1-3.06,2.48v0c-3.06,6.29-6.41,12.54-9.49,18.23-.16,1.12-.36,2.14-.54,3.05S191,330.58,191,331a111.29,111.29,0,0,1-6.71,35.7,45.2,45.2,0,0,1-7.1,13.41,21.54,21.54,0,0,1-7.72,6.09l-.22.1A16.72,16.72,0,0,1,162.43,387.77ZM70,231a48.11,48.11,0,0,0,8.72.8,49.79,49.79,0,0,0,5.18-.28c-.37-.69-.69-1.38-1-2.05a36.14,36.14,0,0,1-7.15-2.67,32,32,0,0,1-9.53,1.66l-.67,0c.13.49.25,1,.35,1.42l2,.67A13.35,13.35,0,0,1,70,231Z"/>
    <path class="cls-2" d="M156.07,381.42a15.45,15.45,0,0,1-13.95-9.08,27.88,27.88,0,0,1-2.5-11.87c-.4-10.94,1.76-21.68,6.58-32.94,2.29-5.34,4.7-10.71,7.17-16a45.33,45.33,0,0,1,2.28-7.14c.21-.52.41-1,.61-1.57s.49-1.34.73-2a71.31,71.31,0,0,1-29.23,14.8,43.79,43.79,0,0,1-10.93,1.42c-9.17,0-18.28-3.08-27.06-9.16a153,153,0,0,1-14.92-12,2.83,2.83,0,0,0-2.14-.93,7.78,7.78,0,0,0-1.8.26l-.24.06a25.74,25.74,0,0,0-6.41,2.37c-3,1.69-3.37,3.17-3.53,4.11a5.71,5.71,0,0,0,.8,1.05c.14.16.6.57.94.87a.08.08,0,0,0,0,0l.5.3c1.06.66,2.12,1.31,3.2,1.94l.22.14A27.58,27.58,0,0,0,72.69,309,35.28,35.28,0,0,1,84.59,315a14.67,14.67,0,0,1,2.3,22.16,19.61,19.61,0,0,1-15.17,7.29,22.16,22.16,0,0,1-10.51-2.78l-.19-.1a47.28,47.28,0,0,1-9.7-7.15,78.43,78.43,0,0,1-7.43-7.6c-3.94-4.28-9.34-11-11.73-20.35-2.55-10-.19-19.45,6.66-26.67C48,270.11,59.5,264.86,72,264.63h.57c8.61,0,15.3,3.65,19.58,6.4,2.95,1.89,5.53,3.89,8,5.83,1.23,1,2.47,1.92,3.73,2.84l.22.17a30.14,30.14,0,0,0,6.79,3.9,15.11,15.11,0,0,0,5.2.92,14.91,14.91,0,0,0,3.33-.37l.27-.06a37.22,37.22,0,0,0,14.5-6.42c5.64-4.17,7.43-9.31,5.58-16.17l-.05-.17c-.14-.48-.27-1-.38-1.45,0-.11,0-.22-.07-.33s-.15,0-.26-.09a130.09,130.09,0,0,1-16.12-11.88,61.61,61.61,0,0,0-5,7.4,14.84,14.84,0,0,1-13.34,8.23,14.39,14.39,0,0,1-2.45-.21c-3.2-.41-6.4-.79-9.6-1.18-5.15-.63-10.48-1.28-15.76-2-7.56-1-15.2-2.19-22.6-3.3l-7.91-1.19-1.75.17-2.73.48a12.94,12.94,0,0,1-.35,1.95c-1.63,6.36-6.81,8.64-9,9.62a16.64,16.64,0,0,1-7,1.74c-4.11,0-9.73-1.68-13.12-9.7-.16-.36-.31-.71-.47-1.05a30.45,30.45,0,0,1-5.67-11.76A20.2,20.2,0,0,1,4,244.35a14.6,14.6,0,0,1-2.06-3.41A12.73,12.73,0,0,1,0,234.19v-3.08a12.68,12.68,0,0,1,2-6.82c.18-.36.38-.72.6-1.07a17.68,17.68,0,0,1,2.13-6.39,19.1,19.1,0,0,1,.62-3.17,1.17,1.17,0,0,1,0-.2A20.27,20.27,0,0,1,19,199.85c.35-.1.7-.19,1.06-.26a20,20,0,0,1,4.08-.42,19.55,19.55,0,0,1,3.41.29,36.25,36.25,0,0,1,4.16-1.39,29,29,0,0,1-2-10.78,18.67,18.67,0,0,1,2.44-9.57c0-.16-.09-.32-.13-.47a12.71,12.71,0,0,1-7.38-8.52,19.27,19.27,0,0,1-.63-5.1,13.21,13.21,0,0,1-1.28-13.89c.25-.62.51-1.22.78-1.82-1.1-2.95-1.42-7,1-11.78,0,0-.05.12-.1.22l.1-.22a35.36,35.36,0,0,1,12.15-14.42,67.3,67.3,0,0,1,27-11.12,80.91,80.91,0,0,1,15-1.45,66.78,66.78,0,0,1,29.05,6.48,58.47,58.47,0,0,1,9.69,5.8c0-1,0-3.08,0-3.08-.12-8.65-.67-17.87-1.78-29.89-.14-1.48-.27-3-.41-4.44a28.48,28.48,0,0,1-8.41-6,18.81,18.81,0,0,1-5.31-15.66l.09-.64c-4.54-4.74-8.83-9.33-13-14.09-8.37-9.54-14.86-17.57-20.41-25.28a14.56,14.56,0,0,1-3.42-8.26A12.71,12.71,0,0,1,71.59,1.86,12.56,12.56,0,0,1,75.19.64,28.38,28.38,0,0,1,80.53.19c.7,0,1.39,0,2.08,0L84,.26a6.07,6.07,0,0,0,.74,0A22.16,22.16,0,0,1,87.86,0c6.42,0,11.89,2.9,16.27,8.61a291.94,291.94,0,0,0,22.31,25.27,20.72,20.72,0,0,1,7.47-1.37,24.38,24.38,0,0,1,4.53.44,16.15,16.15,0,0,1,8.8,4.67,18.81,18.81,0,0,1,8.39,5.86,17.24,17.24,0,0,1,3.79,7.76A17,17,0,0,1,164,63.38a16.66,16.66,0,0,1-.84,4.72c3.54,3,7.11,5.84,10.57,8.59l3.45,2.78c3,2.43,5.81,4.71,8.69,6.75,1.69,1.19,3.36,2.4,5,3.61,3.19,2.31,6.19,4.49,9.27,6.52l.73.48c2.17,1.44,4.35,2.89,6.52,4.35a13.34,13.34,0,0,1,2.25,1.5,13.09,13.09,0,0,1,1.85,1.28l3.58,2.48a13.75,13.75,0,0,1,3.88,2.41c3.94,2.36,7.27,4.43,10.39,6.45s6.64,4,10.24,6.07l1.14.65c5.91,3.36,13.67,7.68,21.68,11.46A15.28,15.28,0,0,1,272,149c-.08,2.44-.07,4.95-.06,7.6,0,1.17,0,2.35,0,3.53a12.88,12.88,0,0,1-7.5,11.71q-.39.18-.81.33a13.71,13.71,0,0,1-3.53.8A11.18,11.18,0,0,1,259,173a12.69,12.69,0,0,1-4.91-1c-5.12-2.14-9.81-4.65-14.34-7.08l-2.52-1.35A547.82,547.82,0,0,1,157.51,112c.15.5.31,1,.47,1.49,2.66,8.39,5.1,15.1,7.67,21.12s1.74,11.78,1.28,14.84a12.72,12.72,0,0,1-5.13,8.42A13,13,0,0,1,154,164a25.87,25.87,0,0,0-2.64,12.45,56.28,56.28,0,0,0,1.66,11.08,24.48,24.48,0,0,1,3.73-6.75l.35-.42a15.09,15.09,0,0,1,22.69-1.11l.39.4a34.36,34.36,0,0,1,7.05,11,142.58,142.58,0,0,1,6.88,20,70.85,70.85,0,0,1,5.21-6.64,36.45,36.45,0,0,1,13.17-9.52,22.16,22.16,0,0,1,8.56-1.82c9.44,0,16.7,6.66,18.06,16.58.55,4,2.2,16-5.3,26.76A15.14,15.14,0,0,1,232,238.6a75.65,75.65,0,0,1-4.51,6.14l-1.22,1.65-.95,1.23s-1.81,2.47-1.87,2.53l-1.72,2.24a15.24,15.24,0,0,1-2,2.69,15.16,15.16,0,0,1-1.78,2.43,16.5,16.5,0,0,1-1.25,1.64,13.42,13.42,0,0,1-.87,1.12,15.32,15.32,0,0,1-1.6,2c-1.09,1.51-2.25,3-3.48,4.4a14.59,14.59,0,0,1-1.94,2.36,18.8,18.8,0,0,1-1.86,2.31,14.21,14.21,0,0,1-1.8,2,24.67,24.67,0,0,1-1.78,1.9c2.06,5.52,2.17,12.86-1.56,18.3a11.75,11.75,0,0,1-1.12,1.41,18.22,18.22,0,0,1-2.6,3.74,12.67,12.67,0,0,1-3,2.48h0c-3.07,6.3-6.42,12.55-9.5,18.23-.16,1.13-.35,2.15-.53,3.05a19.16,19.16,0,0,0-.36,2.17,111.24,111.24,0,0,1-6.71,35.7,45.19,45.19,0,0,1-7.1,13.41,21.49,21.49,0,0,1-7.73,6.1l-.22.09A16.7,16.7,0,0,1,156.07,381.42ZM63.64,224.67a48.09,48.09,0,0,0,8.71.8,46.92,46.92,0,0,0,5.18-.28c-.36-.69-.69-1.37-1-2.05a35.4,35.4,0,0,1-7.14-2.66,32.32,32.32,0,0,1-9.53,1.65l-.67,0c.13.49.24,1,.34,1.42l2,.66A14.48,14.48,0,0,1,63.64,224.67Z"/>
    <g>
      <path class="cls-3" d="M13,231.07a3.15,3.15,0,0,1,.75-1.66c.33-.06.45.15.52.42a9.13,9.13,0,0,0,.36,6.16,1,1,0,0,1-.08.51.27.27,0,0,1-.37.13l-.07,0c-.79-.61-.6-1.8-1.4-2.4v-.34C13.14,233,12.66,232,13,231.07Z"/>
      <path class="cls-4" d="M13,231.07c-.08.93.36,1.91-.29,2.78v-2.74A.92.92,0,0,1,13,231.07Z"/>
      <path class="cls-5" d="M183.49,248.9l-.12-.68a14.91,14.91,0,0,0-1.35-4.53c-2.41-6.85-4.71-13.74-7.29-20.53-.08-.19-.08-.45-.4-.53a111.61,111.61,0,0,1-5.59,20.4,2,2,0,0,0,.48,2.38,101.33,101.33,0,0,1,10.38,14.31c4,6.28,7.33,12.95,11.17,19.32a4.94,4.94,0,0,1,.79,3.08c-.06.56,0,1.27-1,.85-.55-.24-.36.22-.35.43a7,7,0,0,1,0,1c-.08.91-.25,1.61-1.24.58a3.36,3.36,0,0,0-.89-.49c-.53-.77-.16-1.55,0-2.3a7.55,7.55,0,0,0-.85-5.9c-5.66-9.83-12.27-19.05-18.59-28.45-.4-.6-.76-1.57-1.84-.83s-.54,1.5,0,2.29a231.86,231.86,0,0,1,17.57,29.06,6.85,6.85,0,0,1,.57,5.42,204.55,204.55,0,0,1-10.12,25.36c-.07.15-.11.33-.29.4.82-.59.56-2.15,2-2.19.38.52.11,1-.16,1.42-1.43,2.2-2.33,4.69-3.7,6.92-.56.61-.76,1.44-1.29,2.07a.78.78,0,0,1-.7,0c-.74-.87-1-.27-1.21.4-.16.46-.08,1.16-.73,1.2a1.25,1.25,0,0,1-1.2-1c-.27-1.27-1.87-1.47-2.07-2.74h.07c1.94-5.63,4-11.21,6.18-16.76S176,288,177.62,282.34c.23-.82.26-1.67.55-2.48a1.76,1.76,0,0,0-.69-2c-3.72-3.46-7-7.35-10.58-10.92-2.82-2.81-5.71-5.57-8.35-8.56a43,43,0,0,0-10.7-8.61,125.61,125.61,0,0,1-16.3-12c-2.45-2-4.94-4-7.21-6.23a2.05,2.05,0,0,0-2.51-.26,12.25,12.25,0,0,0-3.43,2.2,62.66,62.66,0,0,0-11.55,14.68c-1.33,2.23-1.46,2.19-4.1,1.87-3.26-.39-6.52-.74-9.78-1.14-4.1-.51-8.18-1.06-12.27-1.62-3.53-.49-7.06-1-10.59-1.44s-6.93-1-10.4-1.5c-4.13-.56-8.24-1.3-12.38-1.84-.71-.42-.9-1.23-1.39-1.82a3.83,3.83,0,0,1-.25-.44c-1.15-2.3-1-2.52,1.49-2.75a.83.83,0,0,0,.56-.23c0-.66-.59-1.1-.88-1.67s-1.08-1.21-.47-2,1.38-.27,2.06-.09A35.58,35.58,0,0,1,52,234.72a23.07,23.07,0,0,0,3.61,1.36,49.72,49.72,0,0,0,13,4.65,66.06,66.06,0,0,0,16.74,1.94c11.46-.16,19.59-8.21,19.63-19.67,0-.52,0-1,0-1.57a30,30,0,0,1-4.27,8.43,21.38,21.38,0,0,1-4.41,4.5c-.48.38-.95.86-1.68.63-.46-1.07.56-1.37,1-1.88,3.7-3.93,6.9-8.16,8.22-13.52.68-2.73.82-5.59,1.66-8.3a19.57,19.57,0,0,0,.83-3.29,2.68,2.68,0,0,1,1.29-1.06,38.84,38.84,0,0,0,14.74-14.38,31,31,0,0,0,4.17-15.14,8.22,8.22,0,0,0,0-.86,14,14,0,0,1,2-8.71c3.36-5.48,3.7-11.49,1.5-17.58a16.56,16.56,0,0,0-1.29-2.6c-.29-.5-.86-1-.28-1.67a52.6,52.6,0,0,0,1.87-13.6c.17-3.87.29-7.74.23-11.61q-.2-11-.92-22c-.36-5.48-.93-11-1.36-16.44a60.93,60.93,0,0,1-.62-7.27,1.06,1.06,0,0,1,1.33-.66l0,0a4.42,4.42,0,0,0,2.88-.51c1.2-.15,1.86.71,2.56,1.42A10.57,10.57,0,0,1,136.8,78c.31,8.84,2.42,17.35,4.68,25.82a322.39,322.39,0,0,0,10.21,31.22c.57,1.49,1.17,3,1.85,4.4a9.74,9.74,0,0,1,.74,4.83c-.05.75-.28,1.3-1.15.76s-1,0-1.11.71c-.13,1,.12,2.2-.91,2.93a.83.83,0,0,1-.46-.3c-1-1.39-1.44-1.39-2.47,0-.8,1.1-1.66,2.17-2.38,3.33-.26.42-.5.95-1.17.62a1.68,1.68,0,0,1,.3-1.61,28.77,28.77,0,0,1,4.59-6.36,4.84,4.84,0,0,0,1.39-4.67,33.64,33.64,0,0,0-2.8-8c-4.18-9.36-6.76-19.22-9-29.19-1.32-5.9-2.34-11.85-3.47-17.81a19.32,19.32,0,0,0-.27,6.61c1,9.81,2.72,19.52,4.17,29.26a78.75,78.75,0,0,1,1.17,16c-.35,6-.76,12-1.52,18-.55,4.33-.7,8.71-1.81,13,0,.24.34,0,.12.08s-.11,0-.09-.15a22.15,22.15,0,0,1,2.06-6.28c1.06-2.28,2.21-4.5,3.36-6.73.33-.64.58-1.42,1.52-1.42.5.75-.06,1.28-.36,1.86a56,56,0,0,0-5.73,17.86,31.8,31.8,0,0,0,.35,8.65,71.25,71.25,0,0,0,4.72,18c.46,1.14,1.37,2.12,1.22,3.47-1.09.6-1.25-.47-1.53-1a81.14,81.14,0,0,1-7.23-15.8,18.69,18.69,0,0,1-1-5.23c.15,8.69,2.59,16.59,8.07,23.42,1.31,1.64,2.69,3.23,4.16,4.74a3,3,0,0,0,1.68,1.08c1.72,1.9,3,4.16,4.54,6.16a95.28,95.28,0,0,0,7.48,7.95c.58.59.9.47,1.16-.32a21.2,21.2,0,0,0,.53-4c.75-5.7.77-11.45,1.1-17.17a39.87,39.87,0,0,1,2.12-11.5c.08-.21.18-.41.28-.62,1.56-3.3,3.23-3.62,5.67-1,2.14,2.35,3.35,5.26,4.51,8.16a170.93,170.93,0,0,1,7,22.4,2,2,0,0,1,0,1.64c-1.17.16-1-.86-1.19-1.45-.9-3.29-1.82-6.59-2.85-9.84a92.07,92.07,0,0,0-7.17-17.7,14.68,14.68,0,0,0-1.87-2.64c-.39-.43-.81-.9-1.45-.58a2.54,2.54,0,0,0-1.49,2.14A1.12,1.12,0,0,0,168,193c2,.51,2.94,2,3.79,3.67,2.67,5.28,4.08,11,5.69,16.62,2.45,8.59,4.56,17.29,7.95,25.59a24.84,24.84,0,0,0,1.47,3.08c.43.77.18-.34.43-.21.71-.25.68.3.79.71a7,7,0,0,0,.84,2.34c.38,1-.24,1.75-.59,2.57-.12.26-.47.6-.63.49-1.32-.86-1.09.35-1.3.94-.46,1.31-.74,1.42-1.93.66A4.61,4.61,0,0,0,183.49,248.9Z"/>
      <path class="cls-6" d="M136.51,77.83c-1.61-1.1-2.6-2.92-4.41-3.79-2.5-6.34-7.47-10.15-13.33-13.06a1.54,1.54,0,0,1-.78-.62c-6.74-6.92-13.47-13.85-19.84-21.12-6.94-7.9-13.67-16-19.81-24.53-.35-.49-.85-.9-.9-1.57A74.92,74.92,0,0,1,85.08,13c.74,0,1.08.54,1.41,1.08a53,53,0,0,0,7.32,9c6.39,6.57,13.24,12.63,20.17,18.63a107.84,107.84,0,0,1,11.5,11.62,6.28,6.28,0,0,1-.26,2.69c-.07.56-.19,1.12-.23,1.69-.21,3.16.8,5,4.22,2.72.44-.3,1-.74,1.54-.24s.18,1,.06,1.46c-.29,1.15-.8,2.41.29,3.34s2.26.18,3.39-.11c.85-.21,1.82-1.14,2.54-.39s-.41,1.49-.71,2.23c-.73,1.81-.15,2.72,1.81,2.8,1.49.05,2.87-.75,4.38-.49,3.11,2.31,5.88,5,8.82,7.52q11.82,10.1,24.07,19.67,23.92,18.68,49.09,35.62c10.63,7.16,21.36,14.17,32.35,20.75,1.66,1,2.62,2,2.3,4-.19,1.22.13,2.49-.15,3.73-5.46-2.29-10.61-5.17-15.82-7.93a534.32,534.32,0,0,1-91.38-61.31c-4.64-3.86-9.14-7.88-13.74-11.79-.17-.15-.52-1.29-.94-.1C136.22,79,137,78.13,136.51,77.83Z"/>
      <path class="cls-7" d="M210.08,246.69a.11.11,0,0,1,0,.14l-.05,0c-.32.35-.94.46-.86,1.12a.35.35,0,0,1-.17.24c-.4.33-.84.61-.94,1.18l-.32.22a4.43,4.43,0,0,0-1.1,1.66l0,0c-.4.32-.87.6-1,1.19a.16.16,0,0,1-.1.19,2.07,2.07,0,0,0-.93,1.13,48.63,48.63,0,0,1-4.22,5.37,2.3,2.3,0,0,0-.92,1.12l-.8.93a4.69,4.69,0,0,0-1.65,2v0a12.15,12.15,0,0,0-1.09.95,16.4,16.4,0,0,1-4.68,3.85c-1.86.87-2.49.67-3.31-1.17a7.36,7.36,0,0,1-.64-2.62c1.09-2.44,1.8-5,2.64-7.56a239.93,239.93,0,0,1,11.69-29.11c2.7-5.57,5.68-11,9.89-15.67,1.51-1.66,3.09-3.35,5.58-3.55.58.65-.06,1.05-.36,1.44a136.1,136.1,0,0,0-11,17.4,10.91,10.91,0,0,0-1,2.26,10.05,10.05,0,0,1,1.58-3,5.41,5.41,0,0,0,1.14-1.65,21.65,21.65,0,0,0,1.24-1.92c2.59-4.15,5.26-8.25,7.9-12.37a6.1,6.1,0,0,0,.75-1.25c.29-.66.59-1.31,1.39-1.48a6.05,6.05,0,0,1,3.75.41c.73.81-.06,1.35-.4,1.92A236.22,236.22,0,0,0,210.69,231c-.22.46-.4.94-.58,1.41a58.15,58.15,0,0,1,3.12-6.46,5.42,5.42,0,0,0,1.34-2c.36-.49.36-1.14.75-1.61a2,2,0,0,0,.69-1.55,2.89,2.89,0,0,1,.92-1.53,2.71,2.71,0,0,0,1.06-1.58,35.39,35.39,0,0,1,5.36-8.88,5.77,5.77,0,0,1,2.59,3.81c.06.2-.11.62.38.33a4.45,4.45,0,0,1-.38,4.31c-3.75,5.89-7.73,11.62-11.71,17.35q5.24-7.42,10.25-15c.33-.49.44-1.41,1.43-1.06a3.31,3.31,0,0,1,.38,1.72,20.36,20.36,0,0,1-3.45,9.1c-.25.43-.73.72-.79,1.27a59.11,59.11,0,0,1-4.57,6.33,3.23,3.23,0,0,0-1.16,1.35c-.36.46-.87.81-1,1.4-.36.45-.86.79-1,1.38-.35.46-.87.79-1,1.39a7.36,7.36,0,0,0-1.37,1.72c-.47.3-.53.86-.78,1.29h0C210.62,245.8,210.16,246.09,210.08,246.69Z"/>
      <path class="cls-5" d="M118.41,140.41l.34.41c0,.64-.56.67-1,.71-9.47,1-12,9.56-11,16.44.11.85.2,1.7.33,2.55.06.39.08.86-.31,1.08-.54.29-.86-.2-1.11-.53-1.32-1.71-2.65-3.42-4.09-5-4-4.5-8.4-8.52-13.91-11.13-4.33-2-8.79-2.85-13.36-.75a12.08,12.08,0,0,0-6.77,7.5c-1.63,5-1,10,0,15,.19.92,1,2.22.19,2.7-1,.58-1.68-.83-2.36-1.51a25.28,25.28,0,0,0-5.24-4.08C53.48,160,49.38,162.64,46.62,169a11.71,11.71,0,0,0-.69,3,3.58,3.58,0,0,1-.71,2.06c-.44,0-.59-.24-.67-.6a31.22,31.22,0,0,1-.22-12.59c-.47.77-1.32,1.57-1.89,2.58-.19.34-.47.77-.91.59s-.47-.76-.4-1.21a14.15,14.15,0,0,1,1.71-4.43,16.82,16.82,0,0,1,4.86-5.86c.47-.32.88-.77,1.53-.53.41.77-.23,1.18-.64,1.58a39.09,39.09,0,0,0-4,4.55c.24-.12.4-.49.73-.67s.92-.59,1.41-.24.26.84.18,1.27a9.34,9.34,0,0,0-.16,3.33,13,13,0,0,1,7.56-3,23,23,0,0,1,8.24,1,25.48,25.48,0,0,1,.21-4.94c2.59-13.42,15.43-17.56,25.57-13.34a35.71,35.71,0,0,1,9.54,6.26c2.56,2.22,2.7,2.14,3.84-.91,1.48-4,4.57-6.49,8.13-8.43,2.95-1.6,2-1.75.14-3.14a52.87,52.87,0,0,0-25.77-10.17c-14-1.65-26.74,2.08-38.69,9.14-.39.24-.79.45-1.19.65,6.88-3.48,14.07-5.71,21.91-5.22a15.56,15.56,0,0,1,3.52.62c.58.17,1.43.34,1.33,1.08s-.93.73-1.55.83c-.78.13-1.59,0-2.38.18a46.7,46.7,0,0,0-26.75,14.39c-.38.4-.68,1-1.39.76-.49-.8.21-1.31.55-1.81a32.33,32.33,0,0,1,19.78-13.54,49.46,49.46,0,0,1,6.39-1,44.11,44.11,0,0,0-15.54,4.31,77.1,77.1,0,0,0-11.91,7c-.55.39-1.19,1.25-1.92.68s0-1.39.24-2A22.15,22.15,0,0,1,44,132.58c6.26-4.59,13.4-7.12,20.85-8.87a59.65,59.65,0,0,1,19.44-1.1,52,52,0,0,1,18.4,5.1,42.22,42.22,0,0,1,15,12.12C117.85,140.11,118,140.39,118.41,140.41Z"/>
      <path class="cls-8" d="M259,160.29c0-1.94.49-4.14-.27-5.73s-3.09-2.16-4.73-3.17q-37.14-22.9-71.82-49.41-13.77-10.5-27-21.68c-4.25-3.61-8.57-7.13-12.58-11,.31-1,1-1.07,1.8-.7,6.86,6.33,14.09,12.22,21.38,18,4.22,3.36,8.33,6.86,12.73,10,4.87,3.44,9.64,7.05,14.62,10.35q3.66,2.42,7.3,4.86c.16.11.23.35.35.53a7.09,7.09,0,0,0,1.29.72l.76.66c.39.06.57.65,1.07.44l5.78,4a7.69,7.69,0,0,0,1.29.71c3.86,2.31,7.71,4.66,11.48,7.09s8,4.81,12,7.09c7.54,4.29,15.19,8.46,23.06,12.15a2.66,2.66,0,0,1,1.85,2.91c-.15,4-.06,8-.06,12,0,0,0,.14,0,.15A1.05,1.05,0,0,1,259,160.29Z"/>
      <path class="cls-9" d="M45.2,174a17.91,17.91,0,0,1,3-8.74c3-4.25,7.38-4.46,11.58-2.19a21,21,0,0,1,4.21,2.9c1.2,1.11,2.25,2.39,3.54,3.46-.86-4.27-1.72-8.44-1.4-12.72.27-3.55,1-7,3.56-9.73,4-4.17,8.84-5.32,14.36-3.86,5.2,1.38,9.43,4.46,13.33,8a88.58,88.58,0,0,1,9.37,10.28c-.16-1.18-.36-2.34-.47-3.52-.46-5.11.19-9.92,4.15-13.67a12,12,0,0,1,7.08-3c.44,0,.93.12,1.27-.31,1.37.53,2.86.54,4.22,1.11,2.1.88,3.62,2.46,5.24,3.94a.25.25,0,0,1,.16.31l0,.06c5.16,7.29,4.26,17.08-.63,23.95a3.79,3.79,0,0,0-.79,2.49,39.5,39.5,0,0,1-1.57,14.12c-3.1,9.28-9.41,15.74-17.65,20.59l-1.31.77c-.1.33-.27.53-.65.39a77.68,77.68,0,0,1-7.86,2.73c-.66-.31-1-.76-.65-1.51a35.72,35.72,0,0,0,11.14-4.62c8.52-5.69,14.7-13.09,16.49-23.48.48-2.79,1-5.63.35-8.49a5.12,5.12,0,0,1,1.14-4.15c4.43-6.39,5.3-13.1,1.7-20.14a11.24,11.24,0,0,0-5.11-5.13c-6.84-3.33-14.61,1.51-15,9.35a31.08,31.08,0,0,0,1,10.34,3.84,3.84,0,0,1,.21,1.17,1.18,1.18,0,0,1-.74,1.23c-.52.19-.88-.16-1.15-.53-.84-1.15-1.63-2.34-2.49-3.48-4.55-6.06-9.67-11.53-16.36-15.29-4-2.23-8.18-3.23-12.64-1.7a10.92,10.92,0,0,0-7.49,8.41c-1.23,5.56-.23,11,1.24,16.35,0,.16.11.32.15.49.18.85.94,1.88-.08,2.49s-1.66-.55-2.3-1.21a11.87,11.87,0,0,0-2.8-2.9c-.81-.54-1.41-1.33-2.2-1.88a17,17,0,0,0-5.8-3.17,5.5,5.5,0,0,0-5.8,1.41c-3.85,3.82-4.76,9.4-2.37,15,.58,1.37,1.27,2.67,2,4a9.45,9.45,0,0,0,1,1.62c.41.51.77,1,1.2,1.55A66.3,66.3,0,0,0,57,192.1c.49.51,1,1,.86,1.76-.3,1.58-.08,3.2-.36,4.77-.46,2.48.1,4.87.43,7.29a1.92,1.92,0,0,0,2,1.88,1.84,1.84,0,0,0,.41-.06c5-.45,9.41-1.79,11.57-7a45.8,45.8,0,0,1,3.5-6.46c2.81-4.53,7.21-6.17,12.25-6.74,2.32-.27,4.65-.38,7-.68,4.32-.56,7.21-3.13,9.72-6.37.54-.7.56-1.21-.29-1.62a3.25,3.25,0,0,1-.85-.57c-.34-.31-.72-.62-.38-1.15a1,1,0,0,1,1.16-.5,3,3,0,0,1,.81.27,11.3,11.3,0,0,0,4.69,1.47c.73,0,1.37.42,1.27,1.29a1,1,0,0,1-1.18.9,1.12,1.12,0,0,1-.26-.08c-2.06-.6-3,.68-4,2.07a1.72,1.72,0,0,1-.31.4c-3.19,2.33-4.4,5.72-5.17,9.4a12.56,12.56,0,0,1-2.33,4.92c-.33.44-.53,1.22-1.39.9a2.25,2.25,0,0,1-.19-1.86c.83-2,2.07-3.89,2.5-6.09A6.1,6.1,0,0,0,98.6,188c-2.48,1.13-5,1.1-7.52,1.44-2.09.25-4.19.43-6.26.76a10.73,10.73,0,0,0-8.12,5.88c-.77,1.46-1.49,2.95-2.19,4.45-.33.65-.65,1.32-1,1.94-.65,1-.25,1.45.85,1.43,3.22-.07,6.45.26,9.64-.41a2.72,2.72,0,0,1,2.3.13c.32.52.09.93-.28,1.31a11.59,11.59,0,0,1-5.39,1c-2.38-.07-4.76,0-7.42,0a12.92,12.92,0,0,0,4.38,2.47,27.37,27.37,0,0,0,6.59,1.73,3.06,3.06,0,0,1,1.9.63c.31.38.56.77.16,1.25-5.53-.64-10.91-1.7-15.14-5.73-.67-.64-1-.11-1.44.16a19.47,19.47,0,0,1-10.33,3,2.39,2.39,0,0,1-2.67-2,20.52,20.52,0,0,1-.75-4.53c0-.87-.33-1.1-1.18-1.24C47,200.36,42.42,195,42.41,187.27c0-3.38,1.55-5,5-5.19a26.33,26.33,0,0,0-1.83-4.3,2.61,2.61,0,0,0-.32-1.62C45.09,175.43,44.53,174.72,45.2,174Z"/>
      <path class="cls-10" d="M47.21,242.38c1.71-.41,3.36.19,5,.43,8.61,1.31,17.21,2.65,25.85,3.74,7.63.95,15.24,2,22.87,3a22,22,0,0,1,3,.35c1.08.29,1.65-.38,2.16-1.22a72.82,72.82,0,0,1,7.15-10.36c2.46-2.81,4.84-5.77,8.42-7.33a2.51,2.51,0,0,1,3.14.52c8.66,7.7,17.57,15.07,27.78,20.72,2.64,1.46,4.51,4,6.51,6.23,3.08,3.44,6.52,6.52,9.63,9.92,2.92,3.19,6,6.27,9,9.3a2.52,2.52,0,0,1,.65,2.64c-1.47,6.69-4.21,12.95-6.6,19.32-1.9,5.05-4,10-5.54,15.21-.13.43-.23.75-.73.77.33-3,1.61-5.67,2.62-8.43,2.77-7.58,5.82-15,8.47-22.66,1.25-3.62,1.23-6.23-1.95-9.1-5.44-4.92-10.31-10.47-15.43-15.74-.07-.07-.2-.07-.49-.16a63.34,63.34,0,0,1,.68,6.88c-.05,9.2-2.55,17.38-9.6,23.76a58.82,58.82,0,0,1-25.3,13.16c-10.22,2.65-19.19-.09-27.57-5.89a138.23,138.23,0,0,1-13.58-10.91c-4.59-4.12-9.77-5.06-15.56-3.63a38.82,38.82,0,0,0-9.71,3.63c-5.31,3-9,7.27-10,13.47-.7,4.45,1.05,8.15,4,11.36.84.93,1.82,1.73,2.73,2.58a.58.58,0,0,1-.1.74,1.61,1.61,0,0,1-1.41-.47c-4.07-3.52-6.68-7.8-6.49-13.35.13-4.19,2.15-7.62,4.87-10.67,4.91-5.5,11.52-7.5,18.43-8.86,6.4-1.26,11.19,1.75,15.73,5.72,5.19,4.53,10.49,8.91,16.57,12.3A29.3,29.3,0,0,0,125.08,302,59,59,0,0,0,147,291.14,28.3,28.3,0,0,0,158,271.24a39.21,39.21,0,0,0-.25-10.38,7.47,7.47,0,0,0-2.51-4.71,27.26,27.26,0,0,0-3.69-3.29c.36,1.2.72,2.12,1,3,2.29,7.24,2.59,14.43-.54,21.54a28,28,0,0,1-9.33,11.36,52.69,52.69,0,0,1-20.63,9.11c-8.59,1.8-16.36-.3-23.55-5-3.67-2.41-7-5.28-10.54-7.87-4-2.94-8.19-5.6-13.27-6.37a17.53,17.53,0,0,0-5.6,0c-1.13.13-2.2.55-3.31.77a14.73,14.73,0,0,0-5.48,1.82c-4.66,2.2-9.07,4.8-12.25,9a14.3,14.3,0,0,0-2.63,12.27,30.22,30.22,0,0,0,7.22,13.2c.57.8,1.39,1.54.72,2.68-4.06-4.39-7.43-9.18-8.94-15.08-1.42-5.56-.33-10.66,3.57-14.77,6.54-6.89,14.54-11,24.23-11.22,4.82-.09,9.07,1.83,13.06,4.38s7.37,5.53,11.1,8.25a42.61,42.61,0,0,0,9.88,5.64,27.83,27.83,0,0,0,16,1.1,49.61,49.61,0,0,0,19.49-8.63c9.9-7.3,13.53-17.82,10.34-29.7-.11-.39-.23-.76-.32-1.15a12.55,12.55,0,0,0-6.1-8.45c-7.59-4.63-14.35-10.45-21-16.38a2.68,2.68,0,0,0-3.61-.36,27.18,27.18,0,0,0-7,6.44,74.18,74.18,0,0,0-7.46,10.81,2.2,2.2,0,0,1-2.54,1.32c-8.52-1.09-17.07-2-25.58-3.21-10.64-1.48-21.27-3.13-31.9-4.7C46.6,242.19,46.86,242.19,47.21,242.38Z"/>
      <path class="cls-11" d="M94.44,234.87a14.21,14.21,0,0,0,5.43-4.77,25.28,25.28,0,0,0,4.55-8.91,10.06,10.06,0,0,1,.5-1.22h.47c0,1.54.11,3.09,0,4.62-.71,8-4.6,13.87-12.15,17a19.72,19.72,0,0,1-6.78,1.43c-9.87.48-19.27-1.68-28.39-5.23a4.78,4.78,0,0,1-2.58-1.57c1.48-.46,2.65.87,4.08.7a.59.59,0,0,1,.7,0c.86.71,1.94.58,2.93.72a59.75,59.75,0,0,0,29.5-2.59C93.23,234.89,93.79,234.42,94.44,234.87Z"/>
      <path class="cls-10" d="M45.2,174a5.24,5.24,0,0,0,.38,2.38c.13.32.26.65-.29.67-1.65-4-2.18-9-1.53-14.73-1.41,1.48-1.83,3.32-3.14,4.93a12.05,12.05,0,0,1,.68-6.36c.61-2,1.88-3.7,2.81-5.58-3.25,2.8-5.14,6.56-7.19,10.24-.54-2.06,0-4,.58-5.82,1.89-6.6,6-11.62,11.36-15.77.81-.63,1.65-1.21,2.48-1.82.06-.12.21-.24,0-.37s-.29,0-.42,0c-5.3,2.54-9.39,6.54-13.22,10.86-.83.94-1.6,1.93-2.41,2.88-.28.33-.56.91-1.07.59s-.07-.86.07-1.23c2.34-5.75,5.43-11,10.11-15.2.29-.25.6-.47,1-.75-.59-.49-.87-.11-1.14.07-2.08,1.39-4.14,2.81-6.24,4.16-.71.45-1.51,1.56-2.34.81s.05-1.73.4-2.53a22.72,22.72,0,0,1,7.83-9.27,54.28,54.28,0,0,1,22-9.07c12.46-2.35,24.71-1.56,36.33,4a39.35,39.35,0,0,1,16.11,13.31c-.52.62-.75.09-1-.26-7.43-9.66-17.51-14.83-29.29-16.74a61.36,61.36,0,0,0-39.25,6.51c-4.56,2.4-8.66,5.44-11.26,10.1a7.25,7.25,0,0,0-1.17,3.3c4.9-3.3,9.52-6.6,14.77-8.74s10.55-4,16.3-3.7l.1.48c-1.23.17-2.45.38-3.67.52a32.57,32.57,0,0,0-24.78,15.25,1.59,1.59,0,0,0-.11.49c0,.08,0,.16,0,.24-.62,1.48-1.64,2.74-2.27,4.25C42.48,145.31,49.18,140,58,138c.59-.14,1.35-.5,1.61.33s-.51,1-1,1.18a51.56,51.56,0,0,0-10.82,6.8,28,28,0,0,0-9.31,14.24c2.13-3.74,5.05-7.5,9.57-9.71.75-.36,1.93-1.2,2.43.48a1.33,1.33,0,0,1-1.2.76,16.41,16.41,0,0,0-7.79,11.67c1.26-1.13,1.85-2.82,3.39-3.91a33.36,33.36,0,0,0-.68,8.4C44.37,170.14,44.26,172.16,45.2,174Z"/>
      <path class="cls-10" d="M136.51,77.83c.56.28.14,1,.6,1.33,1.13,13.12,4.79,25.67,8.76,38.14,2.39,7.53,5,15,8.09,22.26,1.08,2.52.82,5.19.4,8-1.12-.52-.56-2-1.82-2.24a15.79,15.79,0,0,1-1.4,5.39c-.23.44-.31,1.34-1.06,1-.59-.22-.14-.88,0-1.35l.09-.33c.09-.78.42-1.78-.39-2.2s-1.17.66-1.53,1.17c-6,8.38-10.05,17.62-9.51,28,1,18.39,8.66,33.83,21.88,46.57a4.32,4.32,0,0,0,.52.44,1.9,1.9,0,0,0,.48.14c.37-4.79,1.24-9.49,1.32-14.27.09-5.58.26-11.16,1.67-16.61a11.48,11.48,0,0,1,2.21-4.76c1.38-1.61,2.69-1.69,4.22-.22a21.87,21.87,0,0,1,4.53,7.17c4.19,9.44,6.69,19.42,9.16,29.41,1.45,5.91,2.8,11.84,3.87,17.83.55.62.91,1.25.23,2-.37.18-.58.18-.66-.34a7.38,7.38,0,0,0-.65-2.74,2.93,2.93,0,0,1-.77-1.84c-1.16-5.09-2-10.25-3.65-15.22-.28-.87-.77-1.83,0-2.76a59.44,59.44,0,0,0-2.31-9.4,123.81,123.81,0,0,0-6-17,20,20,0,0,0-4.51-6.77,1.51,1.51,0,0,0-2.12-.32,1.55,1.55,0,0,0-.35.37c-2.2,2.19-2.68,5.1-3.15,7.93a123.72,123.72,0,0,0-1.1,15.26,111.07,111.07,0,0,1-1.31,12.49c-.05.37.17.91-.32,1s-.77-.39-1.08-.68a71.37,71.37,0,0,1-11.88-14,5.27,5.27,0,0,0-.43-.51c-.92-.39-1.21-1.3-1.65-2.06-.64-1.13-1.3-2.25-2-3.32-.36-.53-.93-1.06-.42-1.81-.13-1.64-1.18-2.93-1.72-4.42A84.4,84.4,0,0,1,138.15,180c-1-8.38,1.37-15.92,4.61-23.37a19.67,19.67,0,0,0,1.62-3.56.68.68,0,0,1,.35-.67c1.28-1.23,2-2.85,3.11-4.23,1.35-1.72,2.09-1.71,3.28.17.68-.84.36-1.85.46-2.79.06-.53-.3-1.25.31-1.57s1,.39,1.4.71c.13.09.28.17.57.34a10.29,10.29,0,0,0-.6-5.35,297.24,297.24,0,0,1-10.64-30.58,195.47,195.47,0,0,1-4.89-20A50.56,50.56,0,0,1,136.51,77.83Z"/>
      <path class="cls-8" d="M125.22,53.21c-2.89-2.83-5.79-5.64-8.64-8.5-4.38-4.4-9.42-8.05-13.87-12.37C96.74,26.57,90.4,21.15,86,14a1.68,1.68,0,0,0-1.71-.79c-2.28,0-4.55,0-6.83,0,3-.56,6.11.1,9.12-.33,3.38-.49,5.44.87,7.48,3.53a303.84,303.84,0,0,0,24,27.1c2.58,2.64,5,5.4,7.88,7.79a1.41,1.41,0,0,1-.56,1.91Z"/>
      <path class="cls-12" d="M188.8,244.78c.26-.71-.36-1.32-.23-2,1.61.9,1.34-.9,1.94-1.51.86.78.39,2,1.07,2.67.83-.05.3-.88.69-1.18h0c.52-.44.43-1.14.69-1.69,4.24-10.12,8.48-20.25,15.92-28.6a23.54,23.54,0,0,1,8.63-6.27c4.78-2,8.37-.27,9.07,4.78.89,6.47.62,12.88-3.61,18.42-.08.14-.16.14-.24,0,.26-1.49,1.44-2.52,1.93-3.9a27.46,27.46,0,0,0,1.44-5.35c-.38-.52.19-1.21-.32-1.71l-8.15,11.92c-1.05,1.54-2.1,3.09-3.18,4.62-.23.34-.38.87-1.11.66a5.88,5.88,0,0,1,1.39-2.42c3.78-5.31,7.44-10.71,10.93-16.22a4,4,0,0,0,.52-4,30.39,30.39,0,0,1-1.13-3.54c-.38-1-.89-1-1.67-.55a64.29,64.29,0,0,0-5.07,8.87c-.49.5-.61,1.25-1.14,1.73a2.76,2.76,0,0,0-.93,1.37,2.43,2.43,0,0,1-.79,1.71c-.19.45-.05,1-.57,1.35-.59.6-.65,1.55-1.37,2.06-1.23,2.58-2.45,5.17-3.68,7.76.05-2.45,1.34-4.41,2.35-6.47s2.19-4.25,3.33-6.35,2.28-4.19,3.49-6.25,2.48-4.08,3.72-6.11c-.38-.54.71-1.36-.31-1.74a2,2,0,0,0-2.58.47,5.59,5.59,0,0,1-1.2.91c-.74.15-.55,1-1,1.36-.27.46-.77.76-.94,1.3-2.8,3.88-5.32,7.94-7.79,12a14.51,14.51,0,0,1-1.11,1.8c-.52.59-.6,1.44-1.18,2l-2.13,4-.47-.29a109.76,109.76,0,0,1,13.24-21.84c-.12-.3.22-1-.66-.56a23.81,23.81,0,0,0-6.41,4.77,58.19,58.19,0,0,0-8.46,12.18,122.24,122.24,0,0,0-10.17,25c-.52,1.86-1.27,3.66-1.73,5.54a3,3,0,0,1-.23.65c-.24.46-.53,1-1.14.81s-.47-.84-.33-1.3c.59-1.85,1.13-3.71,1.69-5.57.43-1.42,1.3-2.79.73-4.52-.32,1.68-1.66,2.67-2.24,4.08a1,1,0,0,1-.89.72c-.62,0-.35-.71-.62-1a3,3,0,0,1-1,2.74c-.87,0-.51-1-.93-1.3.28.53.33,1.16.65,1.68.91,3.4,1.43,6.88,2.22,10.3a2,2,0,0,1-.19,1.49c.87,4.71,2,5.16,5.73,2.24,1-.76,1.84-1.68,2.76-2.53a.24.24,0,0,1,.1.27c0,.09,0,.14-.08.14a13.11,13.11,0,0,1-4.45,3.86c-2.17,1.21-3.46.8-4.07-1.62-1-4-1.85-8.06-2.76-12.09-.42-1.87-.86-3.73-1.28-5.6,1.13-.9,1.29.78,2.21.75.6-.91.53-2.14.87-3.24.75.15.61,1,1.21,1.31A6.32,6.32,0,0,0,188.8,244.78Z"/>
      <path class="cls-13" d="M165.5,315.61c1.63.65,2.19,2.27,3.21,3.86.27-.88.39-1.5.63-2.07s.45-1,1-.91.25.76.36,1.17.42.3.64,0a2.3,2.3,0,0,1,1.07-2.07.44.44,0,0,1,.63,0l0,0c0,2.91-1.09,5.69-1.18,8.6A98.74,98.74,0,0,1,166,356a33,33,0,0,1-5.07,9.81,8.59,8.59,0,0,1-3.18,2.52c-1.94.86-3.26.36-4.2-1.56a16.36,16.36,0,0,1-1.21-6.84c-.34-9.57,1.83-18.62,5.58-27.37Q161.54,324,165.5,315.61Z"/>
      <path class="cls-13" d="M125.22,53.21l.69-2a15.57,15.57,0,0,1,1.93-3.2c2.19-2.57,5-3.21,8.19-2.6,2.21.42,2.82,1.53,3,4.76,2.71-1.45,5-.74,6.86,1.45s1.28,4.33-.21,6.66c1.38,0,2.59,0,3.63.83,2.7,2.15,2.61,5.49-.23,7.45-1.43,1-3.17,1.22-4.68,2a3.32,3.32,0,0,0-1.8.7c-1.28.2-2.56.47-3.85.6-1.14.12-2.39.16-3-1s0-2.08.58-3c.22-.39.47-.77.78-1.28-1.12-.11-1.86.61-2.75.83-1.26.3-2.56,1-3.7-.13s-.61-2.42-.29-3.69c.1-.43.47-.81.21-1.43-.88.49-1.71,1-2.61,1.43-1.89.83-3.2,0-3.39-2.12S125.06,55.3,125.22,53.21Z"/>
      <path class="cls-14" d="M45.6,222.68l-.06,0a20.54,20.54,0,0,1,1.63,5.85.83.83,0,0,1-.39.92c-1.27-.26-1.64-1.48-2.37-2.3A19.44,19.44,0,0,0,42,224.75c-.84-.66-1.47-.7-2,.42s-.85,2.35-1.29,3.51c-1,2.56-2.44,4.73-5.31,5.5-1.88-.78-2.27-1.72-1.34-3.36a20.09,20.09,0,0,0,1.82-4.9c.32-1.39.22-2.83.6-4.21.6-2.18,1.41-4.2,3.62-5.26,2.82-.27,4,2,5.59,3.62a7,7,0,0,1,.57.85C44.8,221.47,45.11,222.14,45.6,222.68Z"/>
      <path class="cls-15" d="M188.17,284.5c1.22-1.42.93.47,1.49.68.56-1.05,0-2.11-.06-3.14.74-.16,1,.48,1.52.79a4.36,4.36,0,0,0-.57-3.41c-6-10.35-11.46-21.05-18.84-30.56a19.31,19.31,0,0,0-2.42-2.85,2.65,2.65,0,0,1-.8-3.39,112.15,112.15,0,0,0,5.14-18,21,21,0,0,0,.17-2.37c0-.35.06-.77.44-.83s.49.36.6.68c.64,1.83,1.31,3.64,1.95,5.46q3.35,9.57,6.67,19.14c.16.45,1,1.08-.09,1.5q-3.93-11-7.85-21.94c-.26-.74-.53-1.48-.88-2.47-.71,2.95-1.27,5.69-2,8.36-1.1,3.76-2.37,7.47-3.56,11.2-.17.52-.46.95.09,1.53,5.38,5.57,9.33,12.17,13.26,18.77,3,5,5.78,10,8.64,15.08,1.28,2.27,1.41,6,.29,7.61-.64-.57-.07-1.46-.63-2.11-.51,2-.42,4.11-2.05,5.92-.43-1.6.43-2.83.1-4.36l-5.06,9.63c-.34,0-.44-.18-.49-.46a54.83,54.83,0,0,1,3.18-7.09C186.94,286.76,187.05,285.36,188.17,284.5Z"/>
      <path class="cls-16" d="M53.41,318.4a3.37,3.37,0,0,0-1-2.44c.15-1.06.23-1.18,1.46-.8.71.22.85,0,.9-.56,0-.22,0-.44.07-.66,1.64,1,3.28,2,4.94,3a39.7,39.7,0,0,0,9.3,4.19A22.58,22.58,0,0,1,76.79,325c1.78,1.37,1.85,2.2.38,3.95-2.58,3.07-6,3.6-10,1.47A34,34,0,0,1,60,325.08,63.46,63.46,0,0,1,53.41,318.4Z"/>
      <path class="cls-17" d="M128.34,146.24l-.13-.37c2.22-9.13,2.06-18.43,1.93-27.71-.15-10.31-.89-20.59-1.84-30.86q-.53-5.79-1.08-11.57c-.07-.55-.42-1.31.72-.93.45,4.84.94,9.68,1.35,14.53.29,3.5.49,7,.73,10.51.39,5.72.46,11.46.79,17.17a165.52,165.52,0,0,1-.41,19,47.06,47.06,0,0,1-1.35,9.22C128.93,145.69,129,146.22,128.34,146.24Z"/>
      <path class="cls-13" d="M127.94,74.8c-.84-.15-.52.59-.72.93-.12-1-.76-1.3-1.67-1.53-3.61-.91-7-2.28-9.64-5.08A6,6,0,0,1,114.12,64c.33-2.48,1.32-3.41,3.87-3.65,3.55.76,6.1,3.13,8.67,5.45a32.77,32.77,0,0,1,4.09,4.32A5.45,5.45,0,0,1,132.1,74C131,75.64,129.35,74.68,127.94,74.8Z"/>
      <path class="cls-7" d="M14.43,236.58l0-.37c-.61-3.75,1.8-6,5.61-5.26a20.63,20.63,0,0,1,10.51,5.27,3.19,3.19,0,0,1,1.15,1.64.92.92,0,0,1-.15.51c-.84.56-1.59.11-2.34-.23a10.09,10.09,0,0,0-1.83-.76,3.69,3.69,0,0,1-1.58-.79,6.26,6.26,0,0,0-2.35-1.17,15.92,15.92,0,0,0-3.1-.89c-2.46-.57-3,0-2.48,2.44-.13.86.62,2.05-.88,2.4a.15.15,0,0,1-.19-.07v0C16.14,238.26,15.05,237.64,14.43,236.58Z"/>
      <path class="cls-18" d="M97.26,209.87l.62,1.41c.83,2.14,2,4.17,1.77,6.61a9,9,0,0,1-1.13,3.85c-1.63,2.74-4.28,3.21-6.83,1.21-.12-.34.08-.47.35-.57a1.1,1.1,0,0,1,.67.08c2.92,1.68,5.31-.92,5.69-3.8a8.15,8.15,0,0,0-.7-4.84c-.75-1.48-1.27-3-1.89-4.58a11.76,11.76,0,0,1-.78-3.1c0-2.71-.75-5.42,0-8.14.08-.31.09-.75-.26-.92a.85.85,0,0,0-.92.29,12.69,12.69,0,0,1-3,2.2c-2.84,1.37-3.48,4-3.71,6.77-.37,4.74,1.07,9.06,3.26,13.18a4.91,4.91,0,0,1,.89,2c-.08.29-.21.51-.57.39-2.24-2.39-3.08-5.45-4-8.45-.15-.49-.27-1-.4-1.47l-.3-1c-.94-1.58-.31-3.31-.47-5a1.78,1.78,0,0,1,.43-1.17l.36-1c-.4-2.47,1.18-4,2.87-5.14,1.3-.88,2.7-1.62,3.93-2.63a3.2,3.2,0,0,1,1.86-.78c.72,0,1.38.07,1.32,1.05l0,2a1.15,1.15,0,0,1,.25,1,26.88,26.88,0,0,0,.57,7.64C97,207.88,97.71,208.82,97.26,209.87Z"/>
      <path class="cls-19" d="M94.44,234.87a56.94,56.94,0,0,1-19.56,3.83,65,65,0,0,1-13.64-1.06c-.45-.09-.93,0-1-.68a60.63,60.63,0,0,0,33-2.49,4.38,4.38,0,0,0,1.63-1.19c4.77-5,8.58-10.42,9.25-17.6a56.1,56.1,0,0,1,1.61-7.13l.65-.39a.55.55,0,0,1,.2.74c-1.22,3.3-1.62,6.79-2.32,10.21-1.07,5.33-4.21,9.57-7.75,13.52C95.84,233.39,95.13,234.13,94.44,234.87Z"/>
      <path class="cls-20" d="M46.93,228.68c.08-2.12-1.19-3.92-1.39-6,1.47,1.75,1.68,4,2,6.07A7.42,7.42,0,0,0,52,234.47a.24.24,0,0,1,.1.27c0,.09-.07.14-.1.14-1.63,0-3-.88-4.6-1.16-.32-.06-.65-.31-.92.05s.09.61.26.88c.46.72.93,1.42,1.39,2.14s.45,1.27-.65,1.18h-.34c-2.13,0-2.13,0-1.21,1.91a7.47,7.47,0,0,1,.29.79l-.24.11a3,3,0,0,1-1.59-3.2c.72-.62,1.65-.19,2.59-.53-.49-1.15-1.3-2.1-1.85-3.18-.21-.4-.55-.84-.29-1.27s.92-.23,1.4-.18,1,.43,1.66.32c-.21-.74-.94-1-1.36-1.47-.27-.5.17-.87.23-1.3S47.26,229.14,46.93,228.68Z"/>
      <path class="cls-21" d="M183.37,295.1l.3.34c-3.33,6.83-6.95,13.52-10.57,20.2l-.65-.05,4.07-8.18c.16-1.63,1.17-2.9,1.89-4.27,1.23-2.35,2.65-4.61,3.82-7C182.46,295.68,182.59,295,183.37,295.1Z"/>
      <path class="cls-22" d="M26.65,251.22l1.45,1.88c1.5,2,1.5,2-.81,3s-2.35,1-3.34-1.31c-.44-1-.92-2-1.39-3.08a1.25,1.25,0,0,1,.67-.57,2.25,2.25,0,0,1,.42-.13,6.59,6.59,0,0,0,1.06-.27,4.11,4.11,0,0,1,1.29-.3C26.51,250.45,26.51,250.89,26.65,251.22Z"/>
      <path class="cls-23" d="M23.32,251.36l-.76.32c-3-3-4-6.94-4.77-11-.15-.37-.2-.7.32-.79a1.37,1.37,0,0,1,.67.79c.6,2.12,1.08,4.27,1.89,6.34C21.31,248.68,22.67,249.79,23.32,251.36Z"/>
      <path class="cls-24" d="M25.69,212l3.09,1c.28.16.61,0,.89.18a32,32,0,0,1,4.23,3c.23.2.44.43.68.63.5.48,1.2.83,1.13,1.69a.75.75,0,0,1-.57.42c-1.29-.34-1.92-1.53-2.91-2.26-2.11-1.55-4.19-3.11-6.79-3.73a.77.77,0,0,1-.5-.43C25,212,25.44,212.2,25.69,212Z"/>
      <path class="cls-25" d="M39.39,209.6a3.34,3.34,0,0,0,.83-.13c1.64-.65,2.37-.14,2.76,1.62.26,1.22,0,1.64-1.08,1.86a12.9,12.9,0,0,0-1.47.42c-.69.09-.67-.53-.9-.9a3.81,3.81,0,0,1-.13-.45c0-.23-.06-.46-.09-.69s-.16-.74-.19-1.12A.77.77,0,0,1,39.39,209.6Z"/>
      <path class="cls-26" d="M39.39,209.6v.62a1.39,1.39,0,0,1-.87.47,28,28,0,0,0-7.88,2.5,2,2,0,0,1-1.16.16c-.28,0-.56,0-.71-.34A23.51,23.51,0,0,1,39.39,209.6Z"/>
      <path class="cls-27" d="M27.33,236.94c1.5.12,2.56,1.59,4.17,1.35a.29.29,0,0,1,.4,0v0c-.05.62-.54.61-1,.68a2.39,2.39,0,0,0-2.19,2.6,2.5,2.5,0,0,0,.27.92c.09.21.21.39.13.62a.45.45,0,0,1-.45,0,.83.83,0,0,0-.9.35,1.25,1.25,0,0,1-.63-.79,5.54,5.54,0,0,1,.27-2.25A4,4,0,0,0,27.33,236.94Z"/>
      <path class="cls-28" d="M27.43,242.75c.32.15.3.47.38.74-.32,2.59-1.17,5.1-1.16,7.73l-.7-.65a1.55,1.55,0,0,1-.31-1.28c.28-1.77.55-3.56,1-5.31A1.75,1.75,0,0,1,27.43,242.75Z"/>
      <path class="cls-29" d="M52,234.88v-.41l7.51,2.5c-1.49.51-2.68-.69-4.08-.7C54.25,236,53,235.92,52,234.88Z"/>
      <path class="cls-30" d="M16.45,222.19a2.82,2.82,0,0,0,.89-2.95,6.12,6.12,0,0,1,.23-2.13c.32,0,.45.18.56.42a11.51,11.51,0,0,1,.2,1.95c.32.59.77.23,1.16.14a2,2,0,0,1,1.76.11.53.53,0,0,1,.08.46,37.68,37.68,0,0,0-4.54,2.48C16.52,222.62,16.29,222.54,16.45,222.19Z"/>
      <path class="cls-31" d="M17.87,217.48l-.3-.37A7.55,7.55,0,0,1,22.64,212c.24.08.45.18.4.5-1.85,1.35-3.74,2.68-4.73,4.87A.42.42,0,0,1,17.87,217.48Z"/>
      <path class="cls-32" d="M44.2,221.17a17.78,17.78,0,0,0-2.77-3.23,3.9,3.9,0,0,0-3.06-1.24c-.1-.42.19-.53.49-.64l.23,0c2.61.67,4.08,2.67,5.46,4.75C44.68,221.14,44.5,221.21,44.2,221.17Z"/>
      <path class="cls-33" d="M47.21,242.38l-.6.31L42.8,243a.41.41,0,0,1,0-.44,1.86,1.86,0,0,1,1.65-.61,1.82,1.82,0,0,0,1.77-1.25l.06-.08A2.41,2.41,0,0,1,47.21,242.38Z"/>
      <path class="cls-34" d="M42.81,242.74c0,.1,0,.2,0,.3l-5.48,1a.59.59,0,0,1,0-.56A5.88,5.88,0,0,1,42.81,242.74Z"/>
      <path class="cls-35" d="M28.7,243.14l.39-.07a8.48,8.48,0,0,1,5.35.48.39.39,0,0,1,.17.5A14.51,14.51,0,0,1,28.7,243.14Z"/>
      <path class="cls-36" d="M15.12,228.08l0-2.44a.33.33,0,0,1,.42,0c.25,1.51,1.81,1.08,2.62,1.76-.61,1-1.65,1-2.64,1.19C15.29,228.54,15.08,228.41,15.12,228.08Z"/>
      <path class="cls-37" d="M39.81,212.31c.36.26.15.86.62,1.06-.44.89-.89,1.78-1.34,2.67H39a.49.49,0,0,1-.7,0A7.28,7.28,0,0,1,39.81,212.31Z"/>
      <path class="cls-38" d="M18.17,240l-.38.71c-.27-.45-.31-1-.78-1.35.93-.79.29-1.85.47-2.77,0-.48.18-.49.51-.24C18.35,237.56,19,238.75,18.17,240Z"/>
      <path class="cls-39" d="M15.45,225.65h-.3a4.75,4.75,0,0,1,1.3-3.45l.32.36c.31.61-.26,1-.38,1.47s-.19.91-.37,1.34C15.89,225.57,15.74,225.74,15.45,225.65Z"/>
      <path class="cls-40" d="M14.43,236.58c.89.81,2,1.45,2.38,2.69a7.09,7.09,0,0,1-2.7-2.68Z"/>
      <path class="cls-41" d="M15.12,228.08l.36.33c-.05.88-.46,1.39-1.4,1.34l-.33-.34A2.58,2.58,0,0,1,15.12,228.08Z"/>
      <path class="cls-42" d="M211.75,244.1c.1-.84.74-1.26,1.35-1.7.11-.17.21-.18.3,0l-1.62,2.12a.24.24,0,0,1-.13-.31A.27.27,0,0,1,211.75,244.1Z"/>
      <path class="cls-43" d="M197,263.23a2.07,2.07,0,0,1,1.65-2A6.42,6.42,0,0,1,197,263.23Z"/>
      <path class="cls-44" d="M44.2,221.17l.35-.38a2.87,2.87,0,0,1,1.05,1.89C44.82,222.46,44.56,221.77,44.2,221.17Z"/>
      <path class="cls-30" d="M23.05,212.35l-.41-.32a7.29,7.29,0,0,1,3.05,0l-.72.28A1.44,1.44,0,0,1,23.05,212.35Z"/>
      <path class="cls-45" d="M34.61,244.05c0-.09,0-.17,0-.26a2,2,0,0,1,2.69,0,1.77,1.77,0,0,0,0,.23A6.2,6.2,0,0,1,34.61,244.05Z"/>
      <path class="cls-46" d="M92.09,222.55l-.4.4a2.34,2.34,0,0,1-1.06-1l.41-.39C91.78,221.46,92.12,221.81,92.09,222.55Z"/>
      <path class="cls-47" d="M216.19,238.28a1.48,1.48,0,0,1,1.29-1.36l-1.27,1.73q-.17-.12-.12-.24C216.13,238.33,216.16,238.28,216.19,238.28Z"/>
      <path class="cls-48" d="M206.61,251.27a1.56,1.56,0,0,1,1.1-1.66A2.94,2.94,0,0,1,206.61,251.27Z"/>
      <path class="cls-49" d="M213.4,242.4h-.3a1.74,1.74,0,0,1,1-1.37c.1-.17.19-.17.28,0Z"/>
      <path class="cls-50" d="M216.19,238.28l0,.37-1,1.35c-.1-.07-.13-.15-.1-.22s.06-.11.09-.11A1.74,1.74,0,0,1,216.19,238.28Z"/>
      <path class="cls-50" d="M209.14,248c-.47-.95.35-.92.86-1.12C209.71,247.22,209.42,247.59,209.14,248Z"/>
      <path class="cls-51" d="M192.94,241.06c0,.67.1,1.36-.69,1.69A2.88,2.88,0,0,1,192.94,241.06Z"/>
      <path class="cls-52" d="M192.27,242.75c-.23.39.56,1.38-.69,1.18Z"/>
      <path class="cls-53" d="M202.07,113.06a1.13,1.13,0,0,1-1.29-.72C201.43,112.18,201.75,112.62,202.07,113.06Z"/>
      <path class="cls-54" d="M215.16,239.67c0,.11,0,.22,0,.33l-.75,1h-.28A1.65,1.65,0,0,1,215.16,239.67Z"/>
      <path class="cls-55" d="M51,141.78c.33-.43.81-.5,1.48-.74a1.56,1.56,0,0,1-1.11,1.07Z"/>
      <path class="cls-56" d="M211,118.88a1.14,1.14,0,0,1-1.29-.71C210.33,118,210.66,118.43,211,118.88Z"/>
      <path class="cls-57" d="M208,249.39a1,1,0,0,1,.7-1.15l.23,0A2.46,2.46,0,0,1,208,249.39Z"/>
      <path class="cls-58" d="M203.9,114.16c-.63.51-.81,0-1.07-.44C203.35,113.46,203.55,114,203.9,114.16Z"/>
      <path class="cls-59" d="M222.71,229.38H223a2.68,2.68,0,0,1-.89,1.21A1.07,1.07,0,0,1,222.71,229.38Z"/>
      <path class="cls-60" d="M205.64,252.48a1,1,0,0,1,.72-1.17.62.62,0,0,1,.23,0A2.63,2.63,0,0,1,205.64,252.48Z"/>
      <path class="cls-61" d="M204.61,253.8a.93.93,0,0,1,.72-1.11.5.5,0,0,1,.21,0A2.39,2.39,0,0,1,204.61,253.8Z"/>
      <path class="cls-62" d="M199.47,260.29a.93.93,0,0,1,.74-1.1.55.55,0,0,1,.18,0A2.35,2.35,0,0,1,199.47,260.29Z"/>
      <path class="cls-63" d="M196.05,264.35l0-.41a1,1,0,0,1,1-.68A2.26,2.26,0,0,1,196.05,264.35Z"/>
      <path class="cls-64" d="M211.75,244.1l0,.42-.72.94A1.24,1.24,0,0,1,211.75,244.1Z"/>
      <path class="cls-65" d="M45.29,177c.09-.22.19-.44.29-.67a1,1,0,0,1,0,1.43Z"/>
      <path class="cls-66" d="M210.08,246.69a1,1,0,0,1,1-1.22A2.68,2.68,0,0,1,210.08,246.69Z"/>
      <path class="cls-14" d="M14.08,229.75l1.4-1.34,2.72-1,.19-.2c3.07-.54,5.75.54,8.31,2.07a9.56,9.56,0,0,1,1.47,1.13,15.71,15.71,0,0,1,3.71,3.79,4.72,4.72,0,0,1,.93,2c.12.94,0,1.84-1.29,1.81-3.26-4-7.66-6-12.61-6.73a3.79,3.79,0,0,0-4.23,3.29,3.65,3.65,0,0,0,0,1c0,.3.06.56-.24.73A6.51,6.51,0,0,1,14.08,229.75Z"/>
      <path class="cls-11" d="M144.73,152.43l-.35.67a1.53,1.53,0,0,0-.77.87c-2.28,4.63-4.87,9.12-6.45,14.13.24-2.14.48-4.29.74-6.44.44-3.65,1-7.28,1.3-10.94.47-6,1.17-12,1.07-18a127.29,127.29,0,0,0-1.85-16.52c-.87-5.88-1.92-11.72-2.62-17.62a79.32,79.32,0,0,1-1-12,6.25,6.25,0,0,1,1.12-3.72c.69,3.76,1.34,7.23,1.94,10.7A216.66,216.66,0,0,0,143,115.91a112.78,112.78,0,0,0,7,18.65,20.51,20.51,0,0,1,1.56,5.9,4.38,4.38,0,0,1-1.38,4A23.68,23.68,0,0,0,144.73,152.43Z"/>
      <path class="cls-67" d="M164.21,246.16c-2.91,3.18-7.6,3.92-11.9,1.89a71.37,71.37,0,0,1-15.64-10.24,94,94,0,0,1-15-15.28,19.67,19.67,0,0,1-3.63-7.82c-.29-1.93-.61-3.86.25-5.74.77-.43.84.35,1.09.69a101.16,101.16,0,0,0,29.72,27.49,56,56,0,0,0,16,6.69C165.53,244.89,164.64,245.44,164.21,246.16Z"/>
      <path class="cls-11" d="M183.37,295.1l-5.58,10.11c-.41.74-.85,1.47-1.27,2.2-1,.7-1.29,2-2.27,2.76,1-2.4,1.95-4.81,3-7.19,2.63-6.17,5.17-12.36,7.22-18.76a7.1,7.1,0,0,0-.42-5.69,222,222,0,0,0-18.17-29.8c-1.29-1.79.69-1.62,1.11-2.33.63-1.06,1.12-.1,1.46.4q5.25,7.66,10.45,15.35,4.83,7.13,9.14,14.57a7,7,0,0,1,.69,5,9.72,9.72,0,0,0-.54,2.82C186.84,288.16,185,291.59,183.37,295.1Z"/>
      <path class="cls-68" d="M183,221.88c.12,2.69,1.5,5.06,2,7.68.74,4.06,1.91,8,2.5,12.14-.1.48.15,1-.28,1.6a35.44,35.44,0,0,1-3.53-7.72c-3-8.28-5-16.84-7.49-25.28-1.38-4.74-2.67-9.51-5-13.9-.81-1.51-1.69-2.85-3.63-3-.6,0-.84-.45-.92-1a3.66,3.66,0,0,1,2.12-3.55c.68-.21,1,.24,1.4.67,2.89,3.26,4.42,7.25,6,11.19a154.58,154.58,0,0,1,6.23,19.61A2.83,2.83,0,0,0,183,221.88Z"/>
      <path class="cls-9" d="M164.21,246.16c.13-.82,1-1.45.65-2.4a1,1,0,0,1,0-1.13c1.28-3.18.66-6.15-1-9a77.35,77.35,0,0,0-7.61-10,119.39,119.39,0,0,0-9.75-10.49c-3.84-3.55-7.75-7-12.42-9.52a23.88,23.88,0,0,0-3.26-1.47c-4.89-1.71-9.22.27-11.22,5.12-.23.56-.3,1.23-.88,1.61a16.5,16.5,0,0,0-.66,5.85,11.1,11.1,0,0,1,5.81-14.14c3.27-1.42,6.46-.53,9.54.9A46.25,46.25,0,0,1,144.28,209a129.57,129.57,0,0,1,20.5,23.18c3,4.34,3.07,9.36.41,13.07A2.16,2.16,0,0,1,164.21,246.16Z"/>
      <path class="cls-68" d="M144.38,203.06l4.1,7.19c-.64.62-.91-.09-1.21-.38-6.41-6.27-11-13.57-12.34-22.58-.34-2.32-1.13-4.78,0-7.28.92,6.81,3.6,12.84,6.85,18.65C142.65,200.14,143.16,201.8,144.38,203.06Z"/>
      <path class="cls-69" d="M171.38,317.66c-.06.28.21.74-.26.76s-.38-.43-.38-.76Z"/>
      <path class="cls-14" d="M187.54,264.23l-2.4-11.89c.12-.26.45-.19.62-.38.36-1.07.73-2.13,1.2-3.51l.39,2c.94-2.4,2.83-3.83,3.16-6.2a5,5,0,0,1,.33,4c-1,2.71-1.76,5.48-2.71,8.48,1.26-.4,1.15-1.32,1.36-2,2-6.39,3.82-12.86,6.51-19,3.54-8.11,7.35-16.05,13.32-22.74a23.74,23.74,0,0,1,8.8-6.29c.1,1-.63,1.25-.91,1.78-3.84,1.2-6.06,4.25-8.23,7.31-4.86,6.87-8.31,14.48-11.56,22.19-3.42,8.12-6.36,16.42-9.06,24.8C188.19,263.33,188.21,264,187.54,264.23Z"/>
      <path class="cls-70" d="M208.65,222.86a85,85,0,0,1,7.93-12.26c.11-.15.21-.16.33,0-2.11,3.88-4.72,7.45-7,11.21-.29.49-.6,1-.91,1.44C208.68,223.29,208.49,223.24,208.65,222.86Z"/>
      <path class="cls-71" d="M218.61,208.19c.76-1,1.24-2.3,2.94-2.08,2.07.27,2.31.68,1.15,2.44A12.23,12.23,0,0,0,218.61,208.19Z"/>
      <path class="cls-72" d="M223.36,208.88c.3-.41.41-1,1-1.26a8.41,8.41,0,0,1,1.79,5.35c0,.11,0,.26-.12.31s-.25,0-.28-.18A10.64,10.64,0,0,0,223.36,208.88Z"/>
      <path class="cls-73" d="M213.49,226c.45-.69.53-1.63,1.37-2.06C214.57,224.71,214.53,225.67,213.49,226Z"/>
      <path class="cls-74" d="M208.65,222.86l.34.37a5.13,5.13,0,0,1-1.33,1.77.24.24,0,0,1-.11-.26c0-.1.06-.14.09-.14Z"/>
      <path class="cls-75" d="M207.64,224.6l0,.4a2,2,0,0,1-1.09,1.67A5.06,5.06,0,0,1,207.64,224.6Z"/>
      <path class="cls-76" d="M215.44,222.56l.78-1.71C216.64,221.74,216.11,222.18,215.44,222.56Z"/>
      <path class="cls-77" d="M217.15,219.48c.25-.66.39-1.4,1.14-1.73C218.1,218.45,218,219.18,217.15,219.48Z"/>
      <path class="cls-78" d="M225.76,218.42c.08-.14.2-.57.31-.15a7.72,7.72,0,0,1,0,1.86C225.55,219.64,225.87,219,225.76,218.42Z"/>
      <path class="cls-79" d="M216.91,210.58l-.33,0a1.77,1.77,0,0,1,1-1A1.09,1.09,0,0,1,216.91,210.58Z"/>
      <path class="cls-11" d="M49.28,152a1.25,1.25,0,0,1,1-.67,4.12,4.12,0,0,1,2-1.65A14,14,0,0,0,44,153.67c-.55.5-1,1.06-1.58,1.56-.36.33-.76.91-1.26.47s-.07-1,.18-1.4a33.63,33.63,0,0,1,6.28-7.39,56.81,56.81,0,0,1,13.72-8.83c.57-.28,1.21-.34,1.83-.68a3.85,3.85,0,0,1-1.37.35c-8,.43-14.4,4-20,9.42-.53.51-1.12,1-1.69,1.43a.72.72,0,0,1-.94.08c-.38-.31-.31-.69-.06-1.06h0a48.77,48.77,0,0,1,9.18-8,47,47,0,0,1,19-7.65c1.22-.21,2.52.19,4-.68-5-1.69-9.75-1.38-14.51-.34a59,59,0,0,0-13.54,4.92A17.75,17.75,0,0,1,48,132.4a62.62,62.62,0,0,1,22.29-7.6,54.24,54.24,0,0,1,29.64,4.14,57.2,57.2,0,0,1,11.54,6.85c1.68,1.27,1.65,1.43-.18,2.4-3.61,1.92-7,4.15-8.75,8a18.48,18.48,0,0,0-.82,2.41c-.43,1.5-1.12,1.8-2.4.86s-2.49-2-3.72-3c-3.63-2.95-7.55-5.4-12.27-5.93-9.72-1.09-17.83,3.73-20,14.21a12.25,12.25,0,0,0,0,5.52,8.06,8.06,0,0,1-2.74-.56c-3.92-.78-7.78-.93-11.46,1a8.49,8.49,0,0,0-1.14.73c-.49.36-.88,1.17-1.52.86s-.13-1-.21-1.58c-.18-1.15.39-2.21.44-3.4-1.42.1-1.91,1.49-3.24,2.2C44.79,156.32,47.39,154.46,49.28,152Z"/>
      <path class="cls-80" d="M96.54,207.16a21.18,21.18,0,0,1-.39-8.89,21.06,21.06,0,0,0,4.34-10.76,2.11,2.11,0,0,1,.76-1.62,22.62,22.62,0,0,0,5-5.34,1.41,1.41,0,0,1,1.73-.68,5,5,0,0,0,1.34.21c.45,0,1.15.26,1.15-.58,0-.63-.56-.66-1-.65a9.91,9.91,0,0,1-5.13-1.66c-.41-.23-.91-.7-1.29,0s.42.83.75,1.05c1.89,1.26,1.88,1.21.5,3.05A15.09,15.09,0,0,1,92,187.65a53.75,53.75,0,0,0-7.59,1c-4.34.75-7.25,3.32-9.35,7a46,46,0,0,0-2.82,5.45c-2.06,5-6.37,6.53-11.15,7.11-3.15.39-3.4,0-3.9-3.15a37.15,37.15,0,0,1,.14-10.53,2.26,2.26,0,0,0-.76-2.21A32.39,32.39,0,0,1,52,187c-.18-.33,0-.41.29-.46a2.18,2.18,0,0,1,1,.64,14.53,14.53,0,0,0,4.46,2.88c.75.31,1.56.42,2.3.74a7.59,7.59,0,0,0,6.62-.76c.65-.36,1.33-.76,1.89.14a8,8,0,0,0,.87,1.43c-1.38-2.08-1.35-2.45.68-4.27.28-.25.28-.43,0-.68-.1-1.54.43-3,.33-4.56-.25-3.8-1.8-7.13-3.54-10.41,0-.35-.16-.75.42-.75.71.45,1,2,2,1.37.89-.51-.05-1.52-.25-2.27a40.57,40.57,0,0,1-1.77-13.94c.73-9.42,8.31-14.57,17.36-11.62,5.62,1.83,10,5.56,14.08,9.67a67.15,67.15,0,0,1,8.46,10.48c.27.4.4,1.3,1.16.94s.3-1.08.14-1.66a27,27,0,0,1-.77-12.82c1.07-5,4.3-8,9.29-8.75,4.55-.73,8,1.38,10.53,4.95,4.53,6.33,4.06,15.95-1,22-1.34,1.26-2.73.63-4.24,0a32.26,32.26,0,0,1-1.11,13,37.63,37.63,0,0,1-15.79,21.39,26,26,0,0,1-7,3.46C97.84,207.32,97.19,207.71,96.54,207.16Z"/>
      <path class="cls-7" d="M96.54,207.16a25.43,25.43,0,0,0,11-5.49c8-6.32,13-14.42,14.31-24.68a28.79,28.79,0,0,0-.15-8.79,4.77,4.77,0,0,0,4.92,1.06c-1.44,1.73-.82,3.7-.79,5.67a31.53,31.53,0,0,1-4.38,17.45c-5,8.12-11.87,14-21,16.93a7,7,0,0,1-3.16.56Z"/>
      <path class="cls-81" d="M96.2,196.28a1.18,1.18,0,0,0-1.5-.71,1.35,1.35,0,0,0-.33.19c-2,1.16-3.85,2.59-5.8,3.86a6.14,6.14,0,0,0-2.35,4.16,62.13,62.13,0,0,1-12.19.67c-2.14-.07-2.17-.11-1.12-1.92.42-.73.85-1.46,1.28-2.19a3.9,3.9,0,0,0,3.68-.36,45.91,45.91,0,0,0,6.71-4.32,1.91,1.91,0,0,0,1-2c-.19-1,.58-1.89,1.41-1.65,1.56.45,2-.67,2.72-1.44.46-.48.67-1.19,1.32-1.52,2.72-.39,5.52-.37,8.27-1.75A19.12,19.12,0,0,1,96.2,196.28Z"/>
      <path class="cls-82" d="M91,189.05a10.37,10.37,0,0,1-2.18,3.21c-.44.54-.8,1-1.34.09-.29-.5-.69-.35-.93,0s-1.27.54-.62,1.27.22,1.2-.32,1.66a40.77,40.77,0,0,1-8.71,5.62,2,2,0,0,1-2.7-.59,47.38,47.38,0,0,1,2.51-5.17,11.07,11.07,0,0,1,8.72-5.48C87.28,189.52,89.13,189.26,91,189.05Z"/>
      <path class="cls-83" d="M48.59,185.9a2.05,2.05,0,0,1,1.83.94,36.15,36.15,0,0,0,5,5.77,2.11,2.11,0,0,1,.74,2c-.19,1.37,0,2.8-.72,4.09a1.11,1.11,0,0,1-1.14.05c-4.16-1.81-7.34-4.5-8.29-9.19a3.58,3.58,0,0,1,.82-3C47.25,186,47.8,185.51,48.59,185.9Z"/>
      <path class="cls-84" d="M50,184.19c-2-3.35-3.59-6.82-3.52-10.87A12.43,12.43,0,0,1,51,163.93a5.4,5.4,0,0,1,5.13-1.07,15.47,15.47,0,0,1,6.5,3.58c.07.54-.33.59-.7.67-1.74-.35-3.38-1.08-5.25-.93a7,7,0,0,0-3.92,1.24c-2.62,1.72-3.55,4.33-3.86,7.27a4.68,4.68,0,0,0,0,2.7,7.78,7.78,0,0,1,.17,1.26c.1,1.82,1.22,3.34,1.48,5.11C50.49,184,50.38,184.25,50,184.19Z"/>
      <path class="cls-14" d="M48.59,185.9a3,3,0,0,0-2.13,3.68c.58,3.52,2.93,5.77,5.74,7.62a9.83,9.83,0,0,0,3.23,1.46,1.48,1.48,0,0,1,.24,1.74c-.33.54-.94.07-1.41,0a12.7,12.7,0,0,1-10.77-13.59c.1-2.3,1.85-3.9,3.84-3.55,1,.17,1.35.93,1.8,1.66S48.83,185.6,48.59,185.9Z"/>
      <path class="cls-67" d="M85.84,205.81l.06,5.12c-1.71-.34-3.44-.63-5.13-1A23.59,23.59,0,0,1,73,206.54c-.37-.25-.9-.48-.7-1,.25-.69.77-.09,1.16-.09,2.33,0,4.65,0,7,.07-.39,1-1.32.65-2,.73a8.55,8.55,0,0,1-2.47-.21c2.26.3,4.43,1,6.69,1.34,1.3.19,2.52.48,2.78-1.37C85.43,205.85,85.66,205.8,85.84,205.81Z"/>
      <path class="cls-85" d="M85.84,205.81c-.67,2.35-.68,2.4-3.22,2a32.66,32.66,0,0,1-7.6-1.89c2-.36,3.76.21,5.43-.42a25.31,25.31,0,0,0,5.41-.71Z"/>
      <path class="cls-86" d="M67.38,170.93c-.26.12-.27.35-.25.6l-.21.13a6.59,6.59,0,0,1-2.69-3c0-.28.23-.41.46-.52A10.89,10.89,0,0,1,67.38,170.93Z"/>
      <path class="cls-87" d="M64.69,168.16l-.39.36a2.5,2.5,0,0,1-2.37-1.72.79.79,0,0,0,.71-.36Z"/>
      <path class="cls-88" d="M52.3,186.65,52,187c-.35-.45-.69-.91-1-1.36s0-.4.25-.48a1.28,1.28,0,0,1,.64.31C52.14,185.82,52.69,186.07,52.3,186.65Z"/>
      <path class="cls-89" d="M51.28,185.27l-.28.36-1-1.44.32-.34a.42.42,0,0,1,.43,0C51.09,184.29,51.65,184.62,51.28,185.27Z"/>
      <path class="cls-5" d="M54.77,314.6l.67,1.43c-.78.09-1.21-.48-1.79-.62s-1.17-.41-1.24.55c-1.88-1.55-2.95-3.7-4.23-5.69a21.69,21.69,0,0,1-3.57-10.51,14.35,14.35,0,0,1,3.06-9.68c3.31-4.39,7.87-7.11,12.76-9.34,1.68-.76,3.34-1.72,5.29-1.71,0,.86-.82.83-1.34,1.06-2.38,1-4.75,2-7.1,3.13a31.14,31.14,0,0,1,14.58-3.62,21.75,21.75,0,0,1,14.4,5.77c6.61,5.91,13.61,11.3,22.3,13.9a28.1,28.1,0,0,0,14.67.58,43.82,43.82,0,0,0,17.57-8,61.37,61.37,0,0,0,6.31-6.18c-8.89,8.36-19.23,13.49-31.63,13.6-6.43.06-12.27-2.25-17.65-5.7a74.12,74.12,0,0,1-9.15-7.13c-5.11-4.57-10.91-7.62-18-7.65a1.88,1.88,0,0,1-1.59-.45c3-.82,5.95-.24,8.83.64,5.06,1.55,9.13,4.78,13.24,7.92,4.43,3.38,8.75,6.87,14,9,6.77,2.78,13.57,2.72,20.47.7A52.68,52.68,0,0,0,142,288.77c6.47-4.74,10.61-10.86,11.65-19,.73-5.72-.57-11-2.42-16.32-.13-.36-.48-.66-.22-1.23a3.84,3.84,0,0,1,2,1.08,12.41,12.41,0,0,0,1.46,1.44c3.61,2.52,4.06,6.36,4.24,10.27a37.72,37.72,0,0,1-1.53,12.45c-1.91,6.57-6.2,11.3-11.48,15.25a60.24,60.24,0,0,1-20.5,9.78c-8.9,2.43-17.17,1-25-3.81a124.46,124.46,0,0,1-14.86-11.39c-2.2-1.87-4.38-3.8-7.16-4.84a16.83,16.83,0,0,0-9.86-.33c-4.73,1.09-9.41,2.49-13.26,5.54-4.65,3.68-8.17,8.26-7.8,14.6C47.62,307.55,50.34,311.66,54.77,314.6Z"/>
      <path class="cls-68" d="M69.12,278.32c8.27-.36,14.86,3.19,20.8,8.6s12.69,9.91,20.93,11.45a32.23,32.23,0,0,0,16.09-1.29c7.67-2.47,14.66-6.15,20.25-12.13.21-.23.36-.59,1-.51A31.82,31.82,0,0,1,140,293a43.37,43.37,0,0,1-19.4,7.79,28.52,28.52,0,0,1-15.44-2.25c-7.46-3.1-13.7-8-19.66-13.28-4.93-4.4-10.74-5.74-17.23-5-4.24.46-8,2.26-12.06,3.45,3-2,6.31-3.22,9.54-4.67C66.85,278.78,67.91,278.17,69.12,278.32Z"/>
      <path class="cls-5" d="M39,147.62c0,.85.17,1.24,1,.53,2.55-2.06,4.84-4.44,7.71-6.13a30.52,30.52,0,0,1,13.89-4.65c.79,0,1.51-.59,2.59-.16-9.4,4.11-17.77,9.29-23,18.33,3.4-3.08,6.77-6.18,12-6.25-.83,1.14-2,1.39-2.91,2.08-.2-1-.87-.64-1.44-.45-3.14,1.09-5.33,3.43-7.35,5.88-1.36,1.65-2.44,3.52-3.87,5.61a27.18,27.18,0,0,1,8.1-14.81c4-4,8.76-6.69,13.69-9.22-9.93,1.56-17,7.53-23.29,14.86A12.76,12.76,0,0,1,39,147.62Z"/>
      <path class="cls-90" d="M185.76,252c-.1.3-.35.36-.62.38-.12-.59-.53-1.12-.35-1.81C185.5,250.79,185.14,251.7,185.76,252Z"/>
      <path class="cls-80" d="M164.92,319.06c1.1-.17.43,1.53,1.63,1.31.32-.32-.17-1,.23-1.44.72.17,1,.9,1.51,1.29.37.27.74.68,1.2.52.64-.21.11-.79.23-1.18a7.56,7.56,0,0,0,.14-.83c1.35,1.3,1.38,2.67,1.28,4.32a150.94,150.94,0,0,1-1.47,15.61A86.51,86.51,0,0,1,162.9,361c-.31.67-.71,1.3-1.08,1.93a1.06,1.06,0,0,1-.54.46c.74-3.33,2.08-6.51,2.52-9.89l-.47-.13c-.57,2-1.12,3.94-1.71,5.91-.54,1.79-1.19,3.56-1.67,5.37-.52,2-1.87,2.85-4,3.23,1.92-6.34,4.34-12.38,5-18.89a189.71,189.71,0,0,1-5.74,18.52c-1.1-1.32-1.65-2.48-1.27-4,1.43-5.74,2.81-11.48,4.19-17.23.12-.51.6-1,0-1.58s-.34-1.39-.16-2.07C160.11,334.68,162.35,326.82,164.92,319.06Z"/>
      <path class="cls-7" d="M164.92,319.06c-.48,3.73-1.88,7.22-2.89,10.82-1.26,4.53-2.56,9.05-3.83,13.58a5.77,5.77,0,0,0-.09,1.17,3.43,3.43,0,0,0-.75,1.86q-1.94,7.72-3.88,15.49c-.79-.19-.52-.75-.52-1.12-.16-9.88,1.31-19.42,5.72-28.4,1.93-3.92,3.57-8,5.36-12A2.89,2.89,0,0,1,164.92,319.06Z"/>
      <path class="cls-14" d="M134.8,46.35c3,.55,4,2.29,2.42,4.57A35.53,35.53,0,0,1,128,60.3a6.14,6.14,0,0,1-1.09.46c-.94-.13-.66-.84-.5-1.3,1.56-4.34,3.1-8.68,6.5-12A3.46,3.46,0,0,1,134.8,46.35Z"/>
      <path class="cls-14" d="M147.46,59.36a3.55,3.55,0,0,1,2.79,3.25A3.4,3.4,0,0,1,148,66.09a35.23,35.23,0,0,1-8.73,2.77,2.85,2.85,0,0,1-2.46-.26,1,1,0,0,1,.21-1c2.77-3.23,5.49-6.5,9.62-8.12A2.1,2.1,0,0,1,147.46,59.36Z"/>
      <path class="cls-14" d="M144,51.46c2.27,1.95,2.52,4.42.26,6.43a29.38,29.38,0,0,1-12.21,6.88c-.74-.35-.43-.84-.1-1.23A114,114,0,0,1,142.16,52.4C142.66,52,143.18,51.29,144,51.46Z"/>
      <path class="cls-7" d="M144,51.46c-4.71,3.5-8.07,8.28-12,12.54-.24.27-.12.52,0,.77-1.78-.32-1.1-1.67-.88-2.55a15.55,15.55,0,0,1,3-5.71c1.66-2.15,3.31-4.36,5.86-5.6C141.48,50.22,142.88,50.07,144,51.46Z"/>
      <path class="cls-7" d="M134.8,46.35c-4.57,3.44-6.29,8.59-8.13,13.67a.62.62,0,0,0,.26.74c-.88.65-1-.14-1.3-.67-.81-1.61-.3-3.28.05-4.83a16.88,16.88,0,0,1,2.73-6.37C129.83,47,132.76,45.79,134.8,46.35Z"/>
      <path class="cls-91" d="M147.46,59.36a28.85,28.85,0,0,0-10.65,9.24c-.88-.45-.41-1.17-.15-1.6,2.38-3.86,5.5-6.82,10.07-7.92A.63.63,0,0,1,147.46,59.36Z"/>
      <path class="cls-7" d="M47.24,230.07c.1.55-.45.67-.67,1-.77.23-1.15-.29-1.54-.8-.73-1.38-2.13-2.17-3.12-3.58-.32,1.06-1.34,1.53-1.53,2.57a3.8,3.8,0,0,1-.18.47,7.68,7.68,0,0,1-4.64,4.58c-.67.23-1.51.72-2-.38a8.62,8.62,0,0,0,4.92-5.88,27.73,27.73,0,0,1,1.59-3.92c.38-1,1-.49,1.63-.12,2.1,1.36,3.4,3.44,4.87,5.37A2.26,2.26,0,0,1,47.24,230.07Z"/>
      <path class="cls-92" d="M33.58,233.93c1.83.47,4.32-.87,5.53-3,.31-.53.43-1.18,1-1.58.42.46.25.95.07,1.44a6.17,6.17,0,0,1-7.78,3.72,2.14,2.14,0,0,1-.59-.53,1.37,1.37,0,0,1-.23-.43c-.33-.72-.35-1.53-.61-2.26a2,2,0,0,1-.21-.67.55.55,0,0,1,.18-.4A2.83,2.83,0,0,0,32.84,228c.35-.83.26-1.85,1.07-2.47.3,0,.52.09.36.45a12.45,12.45,0,0,1-1.65,4.77C31.69,232.46,31.8,232.94,33.58,233.93Z"/>
      <path class="cls-93" d="M34.27,226l-.32-.38c-.88-1.46-2.46-2.18-3.57-3.41a.57.57,0,0,1,.12-.44c.75-.33,1.31.14,1.85.5.92.61,1.54.67,1.64-.67a3.69,3.69,0,0,1,.18-.65c.31-.75.38-1.63,1.1-2.16l.39-.38c.48-1.25,1-2.44,2.68-2.37H39l-.63.65c-2.64,1.68-3.43,4.31-3.73,7.2C34.57,224.62,34.76,225.38,34.27,226Z"/>
      <path class="cls-94" d="M47.24,230.07a1,1,0,0,1-.65-.69c.28-.15.3-.43.34-.7C47.33,229.08,47.22,229.59,47.24,230.07Z"/>
      <path class="cls-14" d="M54.2,316.8c.76.27.76,1,1.15,1.35.82-.45.62-1.4,1.08-2.14,1.58.93,3.13,1.85,4.7,2.75a38.06,38.06,0,0,0,8,3.32,22.88,22.88,0,0,1,6.81,3.44c1.64,1.19,1.67,1.48.39,3.08-1.83,2.28-4.83,2.82-8,1.33-3.72-1.72-6.68-4.48-9.61-7.26-1.19-1.13-2.24-2.41-3.4-3.58A3.1,3.1,0,0,1,54.2,316.8Z"/>
      <path class="cls-14" d="M115.71,62.75c.8-1.64,2.18-1.17,3.41-.81A13.72,13.72,0,0,1,124,65a38.94,38.94,0,0,1,6,6.07A4.16,4.16,0,0,1,131,73.36a1.25,1.25,0,0,1-1.43.08c-5.53-2.12-9.88-5.83-13.75-10.2A.86.86,0,0,1,115.71,62.75Z"/>
      <path class="cls-7" d="M115.71,62.75c2.49,2.32,4.77,4.88,7.6,6.8,2.39,1.62,4.78,3.27,7.71,3.81-.61,1.17-1.74.8-2.56.62-4-.92-7.83-2.17-11.13-4.72A5.05,5.05,0,0,1,115.71,62.75Z"/>
      <path class="cls-95" d="M27.33,236.94c1.58,1,1.05,2.21.48,3.46-1.47-.8-3.18-1-4.67-1.8a3.41,3.41,0,0,1,.37-3c1-.39,1.7.45,2.53.76A2.17,2.17,0,0,0,27.33,236.94Z"/>
      <path class="cls-96" d="M17.8,236.26l-.32.34c-.71-2-.3-2.83,1.6-2.7a8.66,8.66,0,0,1,4.59,1.3,2.14,2.14,0,0,0-.1.22c-.16.41-.34.78-.88.44a5.25,5.25,0,0,0-2.82-.89C18.8,234.85,17.94,234.94,17.8,236.26Z"/>
      <path class="cls-97" d="M31.86,233.85l.36.37c1.65,1.8,1.51,3.42-.35,4.08H31.5c0-.12,0-.24,0-.35,2-1.25.41-2.5,0-3.75C31.39,233.83,31.55,233.77,31.86,233.85Z"/>
      <path class="cls-98" d="M26,236.35l-2.35-.73c-.19-.11-.2-.24,0-.39l0,0A3.09,3.09,0,0,1,26,236.35Z"/>
      <path class="cls-99" d="M92.09,222.55l-1-1a24.67,24.67,0,0,1-4.47-15.44,9.59,9.59,0,0,1,2.13-5.65c.51-.62,1-1.26,2-1.1.24.52,0,1-.19,1.46-1.21,3.52-.5,6.9.75,10.23.21.55.29-.22.51-.15.92.3.79,1.17.94,1.84a34.15,34.15,0,0,0,1.92,6.72c.3.65.53,1.53,1.46,1.45s1-1,1.31-1.64a6.78,6.78,0,0,0,0-4.36c-.33-1.16-.77-2.27-1.17-3.39-.26-.73-.67-1.5,0-2.26,1,2.89,3.06,5.46,2.79,8.78a7.42,7.42,0,0,1-.87,3.09C96.9,223.12,95,224.46,92.09,222.55Z"/>
      <path class="cls-100" d="M96.14,209.22c.11,2.32,1.54,4.25,1.92,6.51a7.22,7.22,0,0,1-.71,4.78c-.3.58-.63,1.05-1.39,1s-1.08-.52-1.37-1.09c-1.42-2.71-1.92-5.69-2.53-8.63-.07-.33,0-.68-.31-.94a2,2,0,0,1-.61-1.36,29.14,29.14,0,0,1-.1-8.13,5,5,0,0,1,1.89-3.5c.51-.4,1-.84,1.65-.47s.51.92.45,1.49a26.18,26.18,0,0,0,.44,7.23Z"/>
      <path class="cls-101" d="M95.47,206.15c-.88-2.27-.65-4.66-.67-7,0-.52.31-1.22-.4-1.5s-1.29.3-1.69.83a7.45,7.45,0,0,0-1.34,4.31,44.11,44.11,0,0,0,.38,8.12l-.12,1.49c-2.07-4.25-3.26-8.54-.95-13.07,1-.85,2-1.73,3.12-2.55.38-.29.85-.66,1.38-.4s.38.83.29,1.22C94.83,200.44,95.46,203.3,95.47,206.15Z"/>
      <path class="cls-7" d="M31.87,238.3c1.91-1.21.82-2.67.35-4.08,4,1,7.19-1,7.85-4.82h0c.06-1.14,1.18-1.51,1.69-2.33.18-.29.52-.06.71.13.46.48,1.06.84,1.25,1.54a14.18,14.18,0,0,1-5,7.86,20.84,20.84,0,0,1-3.62,2.64,21,21,0,0,0,7.39-1.41c.65-.27,1.29-.81,2.05-.25a6.86,6.86,0,0,0,1.71,3.15c.5,1,0,1.41-.91,1.59s-1.72-.1-2.48.41a11.46,11.46,0,0,0-5.5,1H34.62l-5.53-.72c-.83-.43-1.29-1-.72-2a3.34,3.34,0,0,0,.38-1.27c.11-1.11.53-1.61,1.72-1.22A1.23,1.23,0,0,0,31.87,238.3Z"/>
      <path class="cls-84" d="M44.49,237.59c-2.27.64-4.41,1.73-6.82,1.95a10.67,10.67,0,0,1-3.24-.1c4-2.78,7.54-5.9,9.07-10.69,1-.05,1.23.78,1.69,1.37l1.38.95c1.24.26,1.81,1.19,2.5,2.51l-4.25-1.12,3.07,5.13Z"/>
      <path class="cls-102" d="M23.35,238.65c1.68.08,3.34.25,4.46,1.75-.12.79-.25,1.57-.38,2.35A59.23,59.23,0,0,0,26,250.57c-.35.39-.85.38-1.3.5-.95-.12-1.09-.9-1.23-1.61a30.84,30.84,0,0,1-.82-9.23C22.8,239.68,22.82,239.05,23.35,238.65Z"/>
      <path class="cls-103" d="M23.32,251.36c-1.86-1.29-2.66-3.28-3.43-5.27a20.2,20.2,0,0,1-1.4-5.35c-.33-.86.22-1.33.86-1.57,1.06-.4,2.11-1.17,3.33-.43a41.11,41.11,0,0,0,1.06,11.75.74.74,0,0,1-.13.78Z"/>
      <path class="cls-104" d="M25.33,251.66c.67,0,3.15,2.26,2.92,2.89-.31.9-1.44.86-2.16,1.32-.42.27-.84.3-1.08-.31s-.62-1.33-.89-2C23.59,252.23,23.91,251.74,25.33,251.66Z"/>
      <path class="cls-105" d="M23.61,251.27a40.52,40.52,0,0,1-1.29-11.18,3.31,3.31,0,0,1,.25-1.46l.27,0c.51.45.27,1,.18,1.53a36,36,0,0,0,.91,9.48c.14.55.15,1.15.72,1.48C24.35,251.38,24,251.26,23.61,251.27Z"/>
      <path class="cls-106" d="M22.57,238.63c-.92.25-1.85.47-2.75.77-.64.21-1.29.5-1.33,1.34-.11-.24-.22-.48-.32-.73l-.37-3.76c-.37-1.54.35-2,1.75-1.73,1.24.24,2.78-.27,3.46,1.38.49,1-.07,1.87-.35,2.77Z"/>
      <path class="cls-14" d="M35.27,218.81l-.7,2.35c-1,.55-1.55-.4-2.18-.83-3.17-2.14-6.53-3.61-10.45-3.5a5.62,5.62,0,0,0-3.35,1c-.31,0-.54,0-.43-.43.66-2.62,2.64-4,4.89-5.05l1.92,0C29.11,213.37,32.25,216,35.27,218.81Z"/>
      <path class="cls-103" d="M29.49,213.35a23.81,23.81,0,0,1,9.91-3.13c.09.33.18.66.26,1a50,50,0,0,1-5.76,5.22A36.27,36.27,0,0,1,29.49,213.35Z"/>
      <path class="cls-107" d="M38.34,216.06c-1.23.41-1.81,1.55-2.68,2.37l-1.36-1.35A9.63,9.63,0,0,1,39.68,212a.68.68,0,0,0,.13.27C39.86,213.77,38.76,214.78,38.34,216.06Z"/>
      <path class="cls-108" d="M39.68,212a20.21,20.21,0,0,0-5.38,5.05.63.63,0,0,1-.4-.65,22.1,22.1,0,0,1,5.77-5.22C39.67,211.48,39.68,211.76,39.68,212Z"/>
      <path class="cls-109" d="M40.38,211c-.27-.95.25-1.06.88-1.09,1.07,0,.87.88,1,1.43.27,1-.76,1.08-1.27,1.08C39.88,212.42,40.72,211.35,40.38,211Z"/>
      <path class="cls-14" d="M30.49,222.15l2.72,1.91a1.67,1.67,0,0,1,.74,1.58c-.26.89-.51,1.79-.77,2.68-.73.58-1.16-.09-1.61-.44-3.45-2.7-7.49-3.72-11.74-4.15-1.11-.12-2.12.4-3.21.42a.85.85,0,0,1-.48-.22l.63-1.38a7.07,7.07,0,0,1,4.48-2.44C23.82,219.11,28.64,220.18,30.49,222.15Z"/>
      <path class="cls-7" d="M18.47,217.73c.46-1.31,1.62-1.25,2.67-1.33,4.67-.35,8.64,1.39,12.27,4.14.36.27.63.68,1.16.62-.56.67.13,2-.76,2.21-.72.19-1.5-.64-2.22-1.09a5.42,5.42,0,0,0-1.1-.42,18.48,18.48,0,0,0-9.23-2.05,4.15,4.15,0,0,0-2.25.43c-.52.28-1.09.51-1.14-.46C18.25,219.15,17.67,218.24,18.47,217.73Z"/>
      <path class="cls-110" d="M21.26,219.81c2.54-.8,4.87.22,7.22.94.7.21,1.61.27,2,1.12v.28a18.07,18.07,0,0,0-9.24-2C21.26,220,21.26,219.91,21.26,219.81Z"/>
      <path class="cls-111" d="M18.47,217.73c-.41.62,0,1.47-.6,2.05v-2.3l.29-.08Z"/>
      <path class="cls-7" d="M16.49,224c3.92-1.47,7.55-.11,11.18,1.14,2,.71,3.64,2.21,5.51,3.23-.46,1.07-.69,2.38-2.35,2.11a5,5,0,0,1-2.56-.45c-2.4-1.13-4.65-2.66-7.43-2.76a5.75,5.75,0,0,0-2.67.15h0a1.94,1.94,0,0,0-.68,0c-1.61.54-2.09-.29-2.07-1.71l.34-.36C16.11,224.89,15.8,224.16,16.49,224Z"/>
      <path class="cls-112" d="M16.49,224l-.7,1.34c0-.47-.14-1,.35-1.36Z"/>
      <path class="cls-113" d="M18.17,227.37a8.94,8.94,0,0,1,6.4.37,35.47,35.47,0,0,1,3.88,2,.29.29,0,0,1,.12.33c-.23.16-.16.35,0,.53-.07.2-.17.36-.41.17A14.43,14.43,0,0,0,18.17,227.37Z"/>
      <path class="cls-114" d="M28.12,230.76l.32-.25c.6-.37.9.18,1.26.46a.6.6,0,0,0,.85.05.52.52,0,0,0,.13-.17l.2-.1.29.35c.32.78-.18,1.79.69,2.41v.34l-.34.34Z"/>
      <path class="cls-80" d="M118.68,208.86c1.28-6.32,6.77-9.33,12.75-7a41.31,41.31,0,0,1,11.79,7.74,136,136,0,0,1,19.65,21.73c1.87,2.51,3.24,5.2,3.09,8.48a13,13,0,0,1-1.1,3.92c-.57.5-1.15.23-1.76.05A71.8,71.8,0,0,1,139.35,231a107.26,107.26,0,0,1-20-20.64A2.36,2.36,0,0,1,118.68,208.86Z"/>
      <path class="cls-83" d="M122.28,164.42c0-.62,0-1.24-.13-1.86a1.88,1.88,0,0,0-1.42-1.55,1.65,1.65,0,0,0-1.91.78c-.83,1.15-1.58,2.37-2.44,3.5-.61.81-1.38,1-1.77-.19-1.43-4.29-2.52-8.65-1.45-13.22.62-2.66,2-4.84,4.76-5.5a7.46,7.46,0,0,1,7.66,2.66c2.69,3.09,3,6.77,2.38,10.62a23.49,23.49,0,0,1-2,6.85c-.49,1-1,2.34-2.4,2s-1.26-1.73-1.38-2.86a9.43,9.43,0,0,1,0-1.19Z"/>
      <path class="cls-115" d="M77.39,151.14a9,9,0,0,1,7.29-2c7.21,1.18,11.85,6.13,13.17,13.61a19.72,19.72,0,0,1,.42,6,11.27,11.27,0,0,1-7.75,9.24c-2.84.8-5.65,1.16-8.38-.35.49-.46,1-.28,1.61-.19,6.89,1.07,11.45-4.72,11.64-10A16.32,16.32,0,0,0,89.76,154a11.44,11.44,0,0,0-10.4-2.92C78.72,151.22,78.06,151.59,77.39,151.14Z"/>
      <path class="cls-116" d="M77.39,151.14c9.48-3.53,17.74,5.24,18.43,13.59.27,3.27-.17,6.4-2.17,9.08a9.85,9.85,0,0,1-10.16,4.08l-1.35-.18a16.16,16.16,0,0,1-10.66-13C70.53,159,72.21,154.25,77.39,151.14Z"/>
      <path class="cls-117" d="M67.13,171.53c2.88,4.51,4.8,9.23,3.27,14.73,0,.12.11.29.17.44-.95,1.1-2.16,2.06-2.19,3.71-.49-.8-.95-.33-1.49,0a7.4,7.4,0,0,1-7,.72,1.22,1.22,0,0,1,1-.46A8.6,8.6,0,0,0,69,183a15.22,15.22,0,0,0-1.61-9.39c-.3-.58-.75-1.17-.44-1.91Z"/>
      <path class="cls-118" d="M78.75,186.46c0,.84-.18,1.32-.91,1.27a1.56,1.56,0,0,1-1.51-1.53c-.08-.64.14-1.21.84-1.19A1.55,1.55,0,0,1,78.75,186.46Z"/>
      <path class="cls-119" d="M73.05,190.38c0,.72-.25,1.12-.89,1.11A1.59,1.59,0,0,1,70.48,190a.25.25,0,0,1,0-.08.83.83,0,0,1,.61-1,.88.88,0,0,1,.28,0A1.66,1.66,0,0,1,73.05,190.38Z"/>
      <path class="cls-120" d="M74.2,185.56a3.08,3.08,0,0,1,2.7-2.74c1.4-.2,2.66.88,3.41,2.9-1.26-.61-1.64-2.21-3.09-2.25S75.19,184.83,74.2,185.56Z"/>
      <path class="cls-121" d="M68.38,190.41c-.39-1.9.74-2.9,2.19-3.71.27,0,.6-.11.8,0s0,.42-.15.51c-1,.49-2.22.89-2.32,2.24s1,2,1.62,2.9c0,.06,0,.2-.12.48A5.44,5.44,0,0,1,68.38,190.41Z"/>
      <path class="cls-122" d="M57.51,190.35a9.43,9.43,0,0,1-4.4-3,.51.51,0,0,1,.49-.44,19.84,19.84,0,0,1,4.06,3.06A.52.52,0,0,1,57.51,190.35Z"/>
      <path class="cls-123" d="M57.51,190.35l.06-.47c1.33-.47,2.58,0,3.86.29.64.73-.18.65-.48.86l-1.06.09Z"/>
      <path class="cls-124" d="M53.41,187l-.3.34-.81-.65c-.21-.34-.41-.68-.62-1s0-.45.31-.53A1.79,1.79,0,0,1,53.41,187Z"/>
      <path class="cls-125" d="M61,191l.67-.58a1.64,1.64,0,0,1,1.11-.71c4.81-1.35,5.94-6,5.84-9.19a14.91,14.91,0,0,0-4.87-10.9c-2.9-2.66-6.1-3.58-9.85-2.11a1.88,1.88,0,0,1-1,.18c-.27-.08-.49-.2-.46-.54,3.09-2.29,6.29-1.79,9.53-.38l2.37,1.72L67,171.67a19,19,0,0,1,2.66,8.18c.29,5.05-2.08,9.93-6.85,11A5,5,0,0,1,61,191Z"/>
      <path class="cls-126" d="M52.4,167.18l.4.33a1.23,1.23,0,0,1-.43,1.06,10.75,10.75,0,0,0-3,8.88c-.11.51.07,1.19-.74,1.3l-.09-1.21a7.73,7.73,0,0,1,0-3A8.9,8.9,0,0,1,52.4,167.18Z"/>
      <path class="cls-127" d="M48.67,178.75c.45-.4.23-.95.32-1.43a.6.6,0,0,1,.6.51,50.48,50.48,0,0,0,1.56,5.57.71.71,0,0,1-.52.57,1.59,1.59,0,0,0-.27-.12A18.43,18.43,0,0,1,48.67,178.75Z"/>
      <path class="cls-127" d="M48.58,174.51v3A4.76,4.76,0,0,1,48.58,174.51Z"/>
      <path class="cls-128" d="M50.63,184l.34-.42a1.34,1.34,0,0,1,1.1,1.55.76.76,0,0,1,0,.16l-.36.38-.4-.37Z"/>
      <path class="cls-92" d="M45.19,230.12l-1.69-1.37c-1.52-2-1.79-1.93-3.44.66,0-.48-.06-.95.38-1.39,1-1,.93-1,1.2-2.52C42.54,227.52,44.59,228.19,45.19,230.12Z"/>
      <path class="cls-129" d="M31.86,233.51c-1.33-.49-.72-1.53-.69-2.41C31.73,231.81,31.5,232.74,31.86,233.51Z"/>
      <path class="cls-130" d="M28.43,230.05c0-.11,0-.21,0-.32a5.26,5.26,0,0,1,2.38.7,1.13,1.13,0,0,0,.05.32l-.05,0C29.79,231.32,29.16,230.52,28.43,230.05Z"/>
      <path class="cls-131" d="M22.66,238.67c.11-.92.23-1.85.34-2.77l.65-.67c0,.13,0,.26,0,.39,0,1-.55,2-.34,3L23,240.11C22.87,239.63,23.15,239.06,22.66,238.67Z"/>
      <path class="cls-132" d="M28.43,230.05l2.4.72c0,.95-.08,1.77-1.22.65a11.45,11.45,0,0,0-1.17-.91C28.21,230.36,28.08,230.2,28.43,230.05Z"/>
      <path class="cls-82" d="M95.18,166.24c0,5.78-3.19,10.13-8.25,11a10.75,10.75,0,0,1-9-2.75c-4.7-4-6.8-9.06-5.68-15.2,1.25-6.82,8-10.15,14.26-7.14A15.92,15.92,0,0,1,95.18,166.24Z"/>
      <path class="cls-82" d="M52,185.26,51,183.55a23.82,23.82,0,0,1-2-6.23c-.23-3.85.77-7.22,3.81-9.81,4-2.21,7.64-1.39,10.82,1.5,4.56,4.13,6.42,9.3,4.82,15.39a7.74,7.74,0,0,1-6.83,6,18.39,18.39,0,0,1-4-.57c-1.6-.67-2.77-1.95-4.16-2.92Z"/>
      <path class="cls-133" d="M83,165.45c.15-3.4,2.54-5.84,5.54-5.66s5.61,3.32,5.4,6.74-2.52,5.69-5.46,5.57C85.35,172,82.83,168.9,83,165.45Z"/>
      <path class="cls-134" d="M68,179.59c0,2.9-1.45,5-3.47,5.43-2.17.45-4.28-.86-5.27-3.35a6.5,6.5,0,0,1-.54-3.48c.42-2.63,1.87-4.31,3.91-4.5s4,1.3,4.84,3.61A15.87,15.87,0,0,1,68,179.59Z"/>
      <path class="cls-83" d="M83.84,165.65c0-3,1.62-5,4.1-5a4.93,4.93,0,0,1,5.12,4.73,1.62,1.62,0,0,1,0,.22,6,6,0,0,1-.35,3,4.43,4.43,0,0,1-5.31,2.63c-1.6-.32-3.44-2.58-3.56-4.37C83.82,166.45,83.85,166.05,83.84,165.65Z"/>
      <path class="cls-83" d="M62.92,174.32c1.31-.09,2.08.77,2.86,1.6a6.11,6.11,0,0,1,.83,6.8,3.58,3.58,0,0,1-4.92,1.22,3.8,3.8,0,0,1-1-.86,6.2,6.2,0,0,1-.52-7.29A3.63,3.63,0,0,1,62.92,174.32Z"/>
      <path class="cls-135" d="M92.1,164.07a1.36,1.36,0,0,1-1.24,1.45H90.7a1.44,1.44,0,0,1-.13-2.88,1.39,1.39,0,0,1,1.52,1.21A1.7,1.7,0,0,1,92.1,164.07Z"/>
      <path class="cls-136" d="M91.26,167.62c-.21.33-.37.62-.7.54s-.55-.28-.47-.58.27-.57.61-.44S91.08,167.46,91.26,167.62Z"/>
      <path class="cls-135" d="M66.12,177.45c-.08.83-.46,1.36-1.27,1.33a1.21,1.21,0,0,1-1.19-1.21.61.61,0,0,1,0-.14,1.19,1.19,0,0,1,1-1.35h.17C65.71,176.05,66.07,176.69,66.12,177.45Z"/>
      <path class="cls-137" d="M65.3,181.21c-.29-.08-.51-.25-.41-.56s.3-.45.39-.42a.54.54,0,0,1,.45.58A.44.44,0,0,1,65.3,181.21Z"/>
    </g>
  </g>
</svg>
