<svg id="Layer_1" data-name="Layer 1" xmlns="http://www.w3.org/2000/svg" xmlns:xlink="http://www.w3.org/1999/xlink" width="188.82" height="340.92" viewBox="0 0 188.82 340.92">
  <defs>
    <style>
      .cls-1 {
        fill: none;
      }

      .cls-2 {
        opacity: 0.5;
      }

      .cls-3 {
        fill: #ff0;
      }

      .cls-4 {
        fill: #5e961b;
      }

      .cls-5 {
        fill: #488019;
      }

      .cls-6 {
        fill: #ff7db8;
      }

      .cls-7 {
        fill: #f93a91;
      }

      .cls-8 {
        fill: #b31b64;
      }

      .cls-9 {
        fill: #ff4d9e;
      }

      .cls-10 {
        fill: #ff59a5;
      }

      .cls-11 {
        fill: #7db03f;
      }

      .cls-12 {
        fill: #6da32c;
      }

      .cls-13 {
        fill: #cc6900;
      }

      .cls-14 {
        fill: #ba5700;
      }

      .cls-15 {
        fill: #e38017;
      }

      .cls-16 {
        clip-path: url(#clip-path);
      }

      .cls-17 {
        clip-path: url(#clip-path-2);
      }
    </style>
    <clipPath id="clip-path">
      <rect class="cls-1" x="698.47" y="9.71" width="319.96" height="319.96" rx="26.14"/>
    </clipPath>
    <clipPath id="clip-path-2">
      <rect class="cls-1" x="287.39" y="1.73" width="992.93" height="491.34"/>
    </clipPath>
  </defs>
  <g>
    <path class="cls-2" d="M186.5,132.45a30.64,30.64,0,0,0-7.1-10.71,24.69,24.69,0,0,0,1.17-3.06c3-9.73.42-20.82-7-29.68a35.59,35.59,0,0,0-5.39-5.25c3-10.39,1.11-22.35-5.49-32.91a43.18,43.18,0,0,0-14.5-14.29,37.91,37.91,0,0,0-9.91-12.3c-3.95-3.38-10.17-7.7-17.36-9.07a19.78,19.78,0,0,0-3.65-.35c-7.16,0-11.84,3.94-15,7.34a32.3,32.3,0,0,0-4-2.15,31.57,31.57,0,0,0-8.79-8.08C84.45,8.66,79.43,6.87,74.63,6.62l-.93,0C64.44,6.6,60.11,13.43,58,16.72l-4.11,6.4c-.53.83-1.07,1.7-1.57,2.63a32.39,32.39,0,0,0-8.6,9.94,36.39,36.39,0,0,0-4.51,13.05,10.77,10.77,0,0,0-13.76,6.57A32.58,32.58,0,0,0,24,71.38a10.75,10.75,0,0,0,10.64,9h0a10.81,10.81,0,0,0,5.59-1.57c-.81,2.53-1.53,5.1-2.09,7.72A100.45,100.45,0,0,0,38.27,128c3,14.75,9.08,28.38,14.63,39.76C55,172,57.11,176.06,59.2,180c.24.44.47.88.7,1.32-3.36-1.91-6.76-3.67-10.12-5.42l-3.36-1.74c-5.19-2.73-11.13-6-15.91-10a12.33,12.33,0,0,0-20.31,8.16,57.62,57.62,0,0,0,4.72,29.37,11.79,11.79,0,0,0-7.76,7.79,12.4,12.4,0,0,0,4.68,13.81l1.12.78a11.2,11.2,0,0,0-1.76,8.13L27.49,328.8a14.46,14.46,0,0,0,11.05,11.73,10.46,10.46,0,0,0,2.84.39h69.81a14.73,14.73,0,0,0,14.48-12.05l17.82-96.47a11.2,11.2,0,0,0-11-13.25h-2.29a52.25,52.25,0,0,0,6.24-10.27A70.54,70.54,0,0,0,141.66,191c.32-1.87.59-3.79.84-5.85,0-.15,0-.3.05-.44a17.93,17.93,0,0,0,5.22,1.36,16.69,16.69,0,0,0,1.86.1,17,17,0,0,0,2.71-.22,11,11,0,0,0,4.68,1.29l.09,0a17.77,17.77,0,0,0,7.39,1.6h0a18.51,18.51,0,0,0,15-7.81,21.37,21.37,0,0,0,2.53-19,23.58,23.58,0,0,0,2.06-2.5C189.4,152.12,190.29,142,186.5,132.45ZM106.39,161.2c-1.43-8.43-1.7-17.1-2-26.28v-.45a12,12,0,0,0-12-11.58,11.75,11.75,0,0,0-8.71,3.88,81.11,81.11,0,0,0-12.62,18.61c-1.71-4-3.25-7.94-4.57-11.95-4.07-12.31-5.87-23-5.52-32.7A59.29,59.29,0,0,1,65,81.12a24.7,24.7,0,0,0,4-.36,31.3,31.3,0,0,0,.88,3.46c4.18,13.33,16,22.28,29.36,22.28.75,0,1.51,0,2.27-.09.36,0,.72-.06,1.08-.1a31.06,31.06,0,0,0,2,19.24,26.49,26.49,0,0,0,14,13.32,25.2,25.2,0,0,0,.06,5.56,24.3,24.3,0,0,0,1.72,6.47,52.69,52.69,0,0,0-14,10.39S106.39,161.23,106.39,161.2Z"/>
    <path class="cls-3" d="M179.9,125.85a30.68,30.68,0,0,0-7.1-10.72,24,24,0,0,0,1.17-3c3-9.73.42-20.82-7-29.68a35.07,35.07,0,0,0-5.38-5.25c3-10.39,1.11-22.35-5.49-32.91A43.18,43.18,0,0,0,141.63,30a37.91,37.91,0,0,0-9.91-12.3c-4-3.38-10.17-7.7-17.36-9.07a19.78,19.78,0,0,0-3.65-.35c-7.16,0-11.84,3.94-15,7.34a31,31,0,0,0-4-2.15,31.42,31.42,0,0,0-8.79-8.08C77.85,2.06,72.83.27,68,0L67.1,0C57.84,0,53.51,6.83,51.43,10.12l-4.11,6.4c-.52.83-1.06,1.7-1.56,2.62a32.63,32.63,0,0,0-8.6,9.94,36.31,36.31,0,0,0-4.51,13.06,10.77,10.77,0,0,0-13.76,6.57,32.45,32.45,0,0,0-1.54,16.07,10.74,10.74,0,0,0,10.64,9h0a10.84,10.84,0,0,0,5.59-1.57A77.73,77.73,0,0,0,31.49,80a100.45,100.45,0,0,0,.18,41.43c3,14.75,9.08,28.38,14.63,39.76,2,4.19,4.21,8.3,6.3,12.28l.7,1.32c-3.36-1.91-6.76-3.68-10.12-5.42l-3.36-1.74c-5.19-2.73-11.13-6-15.91-10A12.33,12.33,0,0,0,3.6,165.74a57.64,57.64,0,0,0,4.72,29.37A11.79,11.79,0,0,0,.56,202.9a12.41,12.41,0,0,0,4.67,13.81l1.13.78a11.2,11.2,0,0,0-1.76,8.13L20.89,322.2a14.46,14.46,0,0,0,11.05,11.73,10.41,10.41,0,0,0,2.84.39h69.81a14.73,14.73,0,0,0,14.48-12.05l17.82-96.47a11.22,11.22,0,0,0-11-13.25h-2.29a52.73,52.73,0,0,0,6.24-10.27,70.54,70.54,0,0,0,5.24-17.91c.31-1.87.59-3.79.84-5.85,0-.15,0-.3,0-.44a17.85,17.85,0,0,0,5.22,1.36,16.56,16.56,0,0,0,1.86.1,17,17,0,0,0,2.71-.22,11,11,0,0,0,4.68,1.29l.09,0a17.77,17.77,0,0,0,7.39,1.6h0a18.51,18.51,0,0,0,15-7.81,21.37,21.37,0,0,0,2.53-19,23.58,23.58,0,0,0,2.06-2.5C182.8,145.52,183.69,135.39,179.9,125.85ZM99.79,154.6c-1.44-8.43-1.7-17.1-2-26.28v-.45a12,12,0,0,0-12-11.58,11.75,11.75,0,0,0-8.71,3.88,81.11,81.11,0,0,0-12.62,18.61c-1.71-4-3.25-7.94-4.57-12-4.07-12.31-5.87-23-5.52-32.71a59.53,59.53,0,0,1,3.93-19.6,24.5,24.5,0,0,0,4-.36,33.74,33.74,0,0,0,.89,3.46c4.18,13.32,16,22.28,29.36,22.28.75,0,1.51,0,2.26-.09.37,0,.73-.06,1.09-.1A31.07,31.07,0,0,0,98,119a26.49,26.49,0,0,0,14,13.32,25.1,25.1,0,0,0,.06,5.55,24.27,24.27,0,0,0,1.72,6.48,52.47,52.47,0,0,0-14,10.39S99.79,154.63,99.79,154.6Z"/>
    <g>
      <path class="cls-4" d="M92.92,179.86c-.22-8-2.21-15.67-3.54-23.49-1.59-9.31-1.85-18.77-2.13-28.19a1.35,1.35,0,0,0-2.27-.94,71.69,71.69,0,0,0-17.51,36.94,70.14,70.14,0,0,0-.18,20.56c1,7.44,3.66,14.53,4.79,21.95a89,89,0,0,1,1,9.77c.13,3.14.39,6.9-.86,9.86a.53.53,0,0,0,0,.41l-.25.17a1.36,1.36,0,0,0,1.38,2.35c4.81-2.2,7.72-7.37,9.87-12,2.34-5,4-10.32,6-15.49A56.23,56.23,0,0,0,92.92,179.86Z"/>
      <path class="cls-4" d="M78.06,224.08c-1.49-.58-3-1.06-4.54-1.49,2.51-9.34-3-19.87-9.24-26.5-8.13-8.61-19-13.72-29.36-19.14-6.24-3.28-12.43-6.73-17.83-11.3a1.78,1.78,0,0,0-3,1.24c-1.36,12.49,2.76,25.12,10.48,34.94,7.38,9.4,17.93,16.07,29.28,19.6C61.5,223.82,69.5,225,77.25,227A1.52,1.52,0,0,0,78.06,224.08Z"/>
      <path class="cls-5" d="M71.59,223.71a1.69,1.69,0,0,0,1.51,2V226l-.13.1c-.19.15-.09.57.2.45l.4-.17C72.93,225.46,72.27,224.58,71.59,223.71Z"/>
      <path class="cls-5" d="M92.92,180.1c-.22-8-2.21-15.67-3.54-23.49-1.59-9.31-1.85-18.77-2.13-28.19a1.4,1.4,0,0,0-.79-1.18A119.3,119.3,0,0,0,82,145.65c-2,14-1.28,28.2-1.05,42.3a175.36,175.36,0,0,1-.61,21.5c-.35,3.32-.72,6.7-1.22,10.07,1.28-1.8,2.61-3.55,4-5.26l3-3.84c1-2.79,2-5.61,3.09-8.38A56.29,56.29,0,0,0,92.92,180.1Z"/>
      <path class="cls-5" d="M70.47,223.32a73.86,73.86,0,0,0-7.7-7.62c-16.16-14-41.61-25.21-48.64-46.55a49,49,0,0,0,10.65,32.92c7.38,9.39,17.93,16.06,29.28,19.6,6.08,1.89,12.38,3,18.6,4.43C72,225.15,71.24,224.22,70.47,223.32Z"/>
      <path class="cls-5" d="M82.19,227.64c2.29-10.94-.49-22.52-4-32.92-3.52-10.55-8.35-20.73-13.35-30.64-5.57-11.06-11.07-22.16-15-33.94s-6.49-24.06-6-36.4c.43-11.66,3.44-23.4,9.87-33.21A41.41,41.41,0,0,1,65.27,48.61a28.85,28.85,0,0,1,17.09-4.83c10.89.34,21.62,5.08,30,11.94a56.82,56.82,0,0,1,17.55,24.73A60,60,0,0,1,133,97.19a189.31,189.31,0,0,0,1.64,19.47,105.21,105.21,0,0,0,12.26,34.71c.72,1.28,1.48,2.55,2.26,3.81s1.83,2.46,2.7,3.73c.52.75,1.75,0,1.23-.72-.88-1.3-1.57-2.76-2.4-4.1s-1.63-2.72-2.4-4.1q-2.26-4.1-4.16-8.38a103.18,103.18,0,0,1-6-17.92,105.85,105.85,0,0,1-2.72-18.81c-.35-6.49-.41-13-1.9-19.38a57.69,57.69,0,0,0-14.92-26.79A56.68,56.68,0,0,0,92,43.18c-6.37-1.59-13.12-2-19.5-.25A34.8,34.8,0,0,0,58.12,51.4c-8.54,8.09-13.85,19.41-16.31,30.79a90.75,90.75,0,0,0,.21,37.1c2.64,13,8,25.41,13.78,37.24,4.9,10.06,10.57,19.7,15.08,29.94,4.62,10.48,8.43,21.52,9.24,33a67,67,0,0,1,.1,7.89,1,1,0,0,0,2,.26Z"/>
      <g>
        <path class="cls-6" d="M91.1,38.53a21.59,21.59,0,0,1,4-6c2-2.37,4-4.72,6-7.08,3.11-3.65,5.88-7.54,11.25-6.52,4.55.86,9,3.74,12.46,6.71s6.88,6.82,8.23,11.38c1.4,4.74-1.88,10.74-3.27,15.27C126.6,62.71,118.91,63.16,115,63.8a19.51,19.51,0,0,1-12.81-2.46C94.86,57.17,87.71,47.29,91.1,38.53Z"/>
        <g>
          <path class="cls-7" d="M147.17,49.84c-4.47-7.14-12.51-14-21.9-13.73a9.15,9.15,0,0,0-5.85,2c-2,1.86-1.61,4.35-1.63,6.76a29.37,29.37,0,0,1-1.42,8.86c-.88,2.75-2.36,5.27-3.21,8-.1.32.22.52.5.46l1,3.68a1.17,1.17,0,0,0-.91.73c-2.12,4.57-.44,9.31,2.27,13.35s6.31,7.55,11.31,8.81c9.67,2.43,19-3.1,22.9-11.36C154.43,68.49,152.29,58,147.17,49.84Z"/>
          <path class="cls-7" d="M110.07,65.88l1-3.68c.28.06.6-.14.5-.46-.73-2.36-2-4.51-2.81-6.83A30.43,30.43,0,0,1,107,46.72c-.15-2.24.46-4.81-.48-6.93a6.34,6.34,0,0,0-4.26-3.28c-4.07-1.14-8.85.12-12.5,1.9A29.48,29.48,0,0,0,79.5,47.09c-5.88,7.61-9.06,18.15-6.16,27.36C76,83.05,84.14,90,94.09,89.28c5.86-.44,10.19-3.46,13.55-7.84s5.72-9.7,3.34-14.83A1.19,1.19,0,0,0,110.07,65.88Z"/>
        </g>
        <path class="cls-8" d="M123.9,65.84c-.39-2.16-1.85-4.43-4.26-4.49a4.61,4.61,0,0,0-2.93,1,7.73,7.73,0,0,0-.41-3.73c-.71-1.89-2.53-4-4.75-3.71s-2.78,2.7-2.83,4.59a15.47,15.47,0,0,0,.25,3.21,4.94,4.94,0,0,0-1.9-.85,3,3,0,0,0-3.62,2.35c-1.15,4.41,2.79,9.32,6.13,11.59a.22.22,0,0,0,.28,0,16.82,16.82,0,0,0,6,12.14c.58.48,1.78.23,1.68-.7q-.6-5.49-1.65-10.92C120.63,75.11,124.82,71.09,123.9,65.84Z"/>
        <path class="cls-6" d="M103.85,78.52a29.08,29.08,0,0,0-3.51,2.68,21.12,21.12,0,0,1-4.07,2.4,26.86,26.86,0,0,1-9.71,2.14c-.06,0-.07.09,0,.1a18.44,18.44,0,0,0,10.09-.66c2.9-1,6.83-2.72,8.25-5.64A.76.76,0,0,0,103.85,78.52Z"/>
        <path class="cls-6" d="M101.85,74.23c-2.92.91-5.65,2.68-8.37,4.08-.16.08,0,.31.12.28,3-.57,6.35-1.48,8.75-3.51C102.74,74.75,102.32,74.08,101.85,74.23Z"/>
        <path class="cls-6" d="M101.59,69.76a27.16,27.16,0,0,1-3,.47,7,7,0,0,1-3.44-.92.44.44,0,0,0-.45.76c1.9,1.19,5.12,2,7.11.58C102.17,70.4,102.11,69.7,101.59,69.76Z"/>
        <path class="cls-6" d="M97.82,63.77a22.72,22.72,0,0,0-3.28-2.17,18.35,18.35,0,0,1-3-2.66,20.79,20.79,0,0,1-4.47-7.41.29.29,0,0,0-.55.15,16.94,16.94,0,0,0,3.51,8.39c1.65,2,4.45,4.85,7.22,5A.8.8,0,0,0,97.82,63.77Z"/>
        <path class="cls-6" d="M101.52,59.65c-.45-1-1.65-1.64-2.39-2.4a11.84,11.84,0,0,1-2.11-3c-.25-.5-1-.15-.87.36a11.2,11.2,0,0,0,1.73,3.82c.72,1,1.74,2.2,3,2.3C101.49,60.77,101.73,60.1,101.52,59.65Z"/>
        <path class="cls-6" d="M133.32,44.77a.89.89,0,0,0-1.61-.21,15.74,15.74,0,0,0-1.16,3.85,23.47,23.47,0,0,1-1.83,4.5c-1.54,2.78-3.75,4.79-6,6.92-.33.31,0,1,.46.8a16.84,16.84,0,0,0,7.27-6.42C132,51.85,134.31,47.7,133.32,44.77Z"/>
        <path class="cls-6" d="M140.43,67.21c-2-.75-4.45-.55-6.55-.9s-4.37-.81-6.54-1.26a.4.4,0,0,0-.3.72,23.16,23.16,0,0,0,6.62,2.59c2.06.46,4.7,1.15,6.77.52A.88.88,0,0,0,140.43,67.21Z"/>
        <path class="cls-6" d="M134.39,79.38c-1-.94-2.52-1.1-3.7-1.75a28.63,28.63,0,0,1-3.59-2.48c-.41-.32-.8.26-.63.62a8.24,8.24,0,0,0,3.25,3.52c1.2.72,3,1.69,4.4,1.11A.61.61,0,0,0,134.39,79.38Z"/>
        <path class="cls-6" d="M128.38,84.06c-1.32-.73-2.65-1-3.76-2.12a7.68,7.68,0,0,1-2.08-4c-.09-.52-.9-.38-.9.13a6.82,6.82,0,0,0,1.92,5c1.13,1.23,2.94,2.44,4.68,2.15A.6.6,0,0,0,128.38,84.06Z"/>
        <path class="cls-6" d="M109.15,67.07c-1.66.45-.7,3.06.95,2.24C111.33,68.69,110.48,66.72,109.15,67.07Z"/>
        <path class="cls-6" d="M112.14,72.16a.76.76,0,0,0-.43-.34,2.32,2.32,0,0,0-.53,0,.75.75,0,0,0-.75.75.77.77,0,0,0,.22.53.75.75,0,0,0,.53.22,2.32,2.32,0,0,0,.53,0,.74.74,0,0,0,.37-.26.7.7,0,0,0,.16-.44A.88.88,0,0,0,112.14,72.16Z"/>
        <path class="cls-6" d="M115,70.55a.71.71,0,0,0-.51-.21,1.84,1.84,0,0,0-.4.06l-.22.09a.88.88,0,0,0-.43.24,1.1,1.1,0,0,0-.25.43,1,1,0,0,0,.25.94,1,1,0,0,0,.94.25.89.89,0,0,0,.43-.25,1,1,0,0,0,.25-.42l.08-.23a1.34,1.34,0,0,0,.06-.4A.66.66,0,0,0,115,70.55Z"/>
        <path class="cls-6" d="M118.16,66.81a.94.94,0,0,0,0,1.87A.94.94,0,0,0,118.16,66.81Z"/>
        <path class="cls-6" d="M112.65,66.33a.68.68,0,0,0,0,1.36A.68.68,0,0,0,112.65,66.33Z"/>
        <path class="cls-6" d="M112.65,62.05a.92.92,0,0,0,0,1.84A.92.92,0,0,0,112.65,62.05Z"/>
        <path class="cls-6" d="M117.05,69.89a.8.8,0,0,0,0,1.59A.8.8,0,0,0,117.05,69.89Z"/>
        <path class="cls-6" d="M108.51,66.27a1.18,1.18,0,0,0-.19-.25,1.07,1.07,0,0,0-.7-.28l-.49,0a.94.94,0,0,0,0,1.87l.49,0a1.09,1.09,0,0,0,.61-.21,1.4,1.4,0,0,0,.28-.32A.68.68,0,0,0,108.51,66.27Z"/>
      </g>
      <g>
        <path class="cls-6" d="M116.9,86.5a15.88,15.88,0,0,1,2.32-4.75l3.7-5.76c1.9-3,3.53-6.08,7.55-5.87,3.4.17,6.93,1.83,9.75,3.65s5.69,4.28,7.12,7.47-.29,8-.86,11.45c-1.3,7.89-6.86,9-9.62,9.84a14.43,14.43,0,0,1-9.59-.51C121.5,99.71,115.3,93.22,116.9,86.5Z"/>
        <g>
          <path class="cls-9" d="M158.89,89.16c-4-4.76-10.51-9-17.33-7.82a6.63,6.63,0,0,0-4.06,2c-1.28,1.55-.75,3.33-.51,5.09a22.15,22.15,0,0,1-.16,6.6c-.37,2.09-1.19,4.07-1.54,6.16a.28.28,0,0,0,.41.28l1.11,2.58a.89.89,0,0,0-.58.62c-1.09,3.54.6,6.83,3,9.51s5.35,4.87,9.12,5.29c7.29.81,13.57-4.15,15.56-10.56C166,102,163.43,94.6,158.89,89.16Z"/>
          <path class="cls-9" d="M133.45,104.54l.38-2.78c.22,0,.43-.16.32-.39-.77-1.64-1.87-3.09-2.72-4.7a21.84,21.84,0,0,1-2.1-5.79c-.34-1.61-.15-3.55-1-5a4.62,4.62,0,0,0-3.43-2c-3.09-.43-6.44,1-8.93,2.62a21.71,21.71,0,0,0-6.63,7.36c-3.52,6.12-4.79,14.12-1.77,20.55,2.83,6,9.43,10.28,16.61,8.74,4.22-.91,7.07-3.54,9.09-7.07s3.2-7.63,1-11.14A.89.89,0,0,0,133.45,104.54Z"/>
        </g>
        <path class="cls-8" d="M143.52,103.13c-.49-1.53-1.79-3-3.55-2.84a3.39,3.39,0,0,0-2,1,5.58,5.58,0,0,0-.67-2.68c-.7-1.31-2.23-2.63-3.83-2.23s-1.75,2.25-1.6,3.62a10.41,10.41,0,0,0,.5,2.32,3.62,3.62,0,0,0-1.47-.43,2.23,2.23,0,0,0-2.4,2.07c-.4,3.33,2.95,6.52,5.62,7.84a.16.16,0,0,0,.2,0,12.37,12.37,0,0,0,5.59,8.25c.47.29,1.32,0,1.15-.67-.65-2.63-1.42-5.23-2.29-7.8C142.06,110.22,144.72,106.87,143.52,103.13Z"/>
        <path class="cls-6" d="M130.18,114.37a20.72,20.72,0,0,0-2.29,2.3,15.72,15.72,0,0,1-2.73,2.16,19.84,19.84,0,0,1-6.87,2.53s0,.07,0,.07a13.48,13.48,0,0,0,7.29-1.49c2-1,4.7-2.66,5.45-4.92A.56.56,0,0,0,130.18,114.37Z"/>
        <path class="cls-6" d="M128.29,111.45a40.55,40.55,0,0,0-5.69,3.8c-.11.08,0,.23.11.19a13.85,13.85,0,0,0,6-3.42A.38.38,0,0,0,128.29,111.45Z"/>
        <path class="cls-6" d="M127.66,108.21a18,18,0,0,1-2.13.64,5.12,5.12,0,0,1-2.6-.32.33.33,0,0,0-.25.6c1.5.67,3.93,1,5.24-.29C128.14,108.63,128,108.12,127.66,108.21Z"/>
        <path class="cls-6" d="M124.31,104.23a16.41,16.41,0,0,0-2.6-1.26,13,13,0,0,1-2.44-1.64,15.11,15.11,0,0,1-4-5,.21.21,0,0,0-.39.17,12.39,12.39,0,0,0,3.39,5.76c1.41,1.32,3.73,3.1,5.76,3A.57.57,0,0,0,124.31,104.23Z"/>
        <path class="cls-6" d="M126.6,100.86c-.43-.66-1.37-1-2-1.52a8.45,8.45,0,0,1-1.84-2c-.23-.34-.75,0-.6.35a8.35,8.35,0,0,0,1.64,2.61,3.54,3.54,0,0,0,2.44,1.38A.53.53,0,0,0,126.6,100.86Z"/>
        <path class="cls-6" d="M148.29,86.84a.66.66,0,0,0-1.2,0,12.36,12.36,0,0,0-.46,2.92,17.22,17.22,0,0,1-.88,3.46A21.25,21.25,0,0,1,142,98.88c-.21.25.1.71.41.53a12.36,12.36,0,0,0,4.66-5.4C148,92.13,149.3,88.88,148.29,86.84Z"/>
        <path class="cls-6" d="M155.71,102.49c-1.52-.35-3.3,0-4.87,0s-3.26-.15-4.88-.26a.29.29,0,0,0-.15.55,17,17,0,0,0,5.08,1.23c1.55.13,3.54.37,5-.29A.64.64,0,0,0,155.71,102.49Z"/>
        <path class="cls-6" d="M152.52,112c-.81-.59-2-.55-2.87-.91a21.43,21.43,0,0,1-2.87-1.45c-.33-.19-.55.27-.39.52a6.11,6.11,0,0,0,2.71,2.24c1,.41,2.35.93,3.33.37A.46.46,0,0,0,152.52,112Z"/>
        <path class="cls-6" d="M148.61,116a10.63,10.63,0,0,1-3-1.17,5.75,5.75,0,0,1-1.92-2.73c-.11-.37-.69-.19-.64.18a5.07,5.07,0,0,0,1.9,3.43,4.18,4.18,0,0,0,3.62,1.09A.44.44,0,0,0,148.61,116Z"/>
        <path class="cls-6" d="M132.9,105.5c-1.17.49-.21,2.3.91,1.54C134.65,106.47,133.83,105.11,132.9,105.5Z"/>
        <path class="cls-6" d="M135.58,108.91a.55.55,0,0,0-.34-.2,1.79,1.79,0,0,0-.4,0,.54.54,0,0,0-.36.21.6.6,0,0,0-.11.41.56.56,0,0,0,.21.36.61.61,0,0,0,.41.11,2.11,2.11,0,0,0,.38-.09.56.56,0,0,0,.25-.23.49.49,0,0,0,.07-.33A.6.6,0,0,0,135.58,108.91Z"/>
        <path class="cls-6" d="M137.5,107.45a.55.55,0,0,0-.39-.1,1.4,1.4,0,0,0-.29.09l-.15.08a.73.73,0,0,0-.29.23.81.81,0,0,0-.14.33.73.73,0,0,0,.28.66.7.7,0,0,0,.71.09.77.77,0,0,0,.29-.22.85.85,0,0,0,.14-.34l0-.17a1,1,0,0,0,0-.3A.55.55,0,0,0,137.5,107.45Z"/>
        <path class="cls-6" d="M139.44,104.42a.69.69,0,0,0,.18,1.36A.69.69,0,0,0,139.44,104.42Z"/>
        <path class="cls-6" d="M135.37,104.62a.5.5,0,0,0,.14,1A.5.5,0,0,0,135.37,104.62Z"/>
        <path class="cls-6" d="M135,101.5a.67.67,0,0,0,.18,1.33A.67.67,0,0,0,135,101.5Z"/>
        <path class="cls-6" d="M138.94,106.77a.59.59,0,0,0,.16,1.16A.59.59,0,0,0,138.94,106.77Z"/>
        <path class="cls-6" d="M132.36,105c-.06,0-.11-.12-.17-.16a.8.8,0,0,0-.54-.14l-.36,0a.69.69,0,0,0,.19,1.36l.35-.07a.79.79,0,0,0,.43-.21,1.45,1.45,0,0,0,.17-.26A.52.52,0,0,0,132.36,105Z"/>
      </g>
      <g>
        <path class="cls-6" d="M53.91,27a15.86,15.86,0,0,1,2.31-4.75q1.85-2.89,3.71-5.77c1.9-3,3.53-6.08,7.55-5.87,3.4.18,6.92,1.84,9.74,3.65s5.7,4.29,7.13,7.48-.29,8-.86,11.45c-1.3,7.89-6.86,9-9.62,9.84a14.37,14.37,0,0,1-9.59-.52C58.51,40.16,52.31,33.68,53.91,27Z"/>
        <g>
          <path class="cls-10" d="M95.9,29.61c-4-4.76-10.51-9-17.33-7.82a6.68,6.68,0,0,0-4.06,2c-1.29,1.55-.75,3.33-.52,5.09a21.81,21.81,0,0,1-.15,6.6c-.37,2.09-1.2,4.07-1.54,6.16a.29.29,0,0,0,.41.29l1.11,2.58a.83.83,0,0,0-.58.62c-1.09,3.54.6,6.83,3,9.5s5.35,4.87,9.12,5.3c7.28.81,13.56-4.16,15.56-10.57C103.05,42.48,100.44,35.06,95.9,29.61Z"/>
          <path class="cls-10" d="M70.46,45l.38-2.78c.21,0,.42-.17.32-.39-.77-1.65-1.87-3.1-2.72-4.7a22,22,0,0,1-2.1-5.79c-.34-1.62-.15-3.55-1-5a4.69,4.69,0,0,0-3.43-2c-3.09-.43-6.44,1-8.93,2.63a21.68,21.68,0,0,0-6.63,7.35c-3.53,6.13-4.79,14.13-1.77,20.56,2.82,6,9.43,10.27,16.61,8.73,4.22-.9,7.07-3.53,9.09-7.06s3.2-7.64,1-11.14A.84.84,0,0,0,70.46,45Z"/>
        </g>
        <path class="cls-8" d="M80.53,43.59c-.49-1.54-1.79-3-3.55-2.85a3.5,3.5,0,0,0-2,1,5.63,5.63,0,0,0-.67-2.68c-.7-1.3-2.24-2.63-3.83-2.22s-1.75,2.24-1.61,3.62a10.92,10.92,0,0,0,.51,2.31,3.77,3.77,0,0,0-1.47-.42,2.23,2.23,0,0,0-2.4,2.07c-.4,3.33,3,6.51,5.62,7.84a.18.18,0,0,0,.2,0,12.33,12.33,0,0,0,5.59,8.25c.47.29,1.32,0,1.15-.68-.65-2.63-1.42-5.23-2.29-7.79C79.07,50.67,81.73,47.32,80.53,43.59Z"/>
        <path class="cls-6" d="M67.19,54.83a20.81,20.81,0,0,0-2.3,2.3,15,15,0,0,1-2.73,2.16,20,20,0,0,1-6.86,2.53s0,.07,0,.07a13.54,13.54,0,0,0,7.28-1.49c2-1,4.71-2.66,5.45-4.93A.55.55,0,0,0,67.19,54.83Z"/>
        <path class="cls-6" d="M65.3,51.9a40.62,40.62,0,0,0-5.69,3.81c-.11.08,0,.23.11.19a13.88,13.88,0,0,0,6-3.43C66,52.19,65.63,51.75,65.3,51.9Z"/>
        <path class="cls-6" d="M64.67,48.67a20,20,0,0,1-2.13.64,5.13,5.13,0,0,1-2.6-.33.33.33,0,0,0-.25.6c1.5.68,3.93,1,5.24-.29C65.15,49.08,65,48.58,64.67,48.67Z"/>
        <path class="cls-6" d="M61.32,44.68a16.36,16.36,0,0,0-2.6-1.25,14,14,0,0,1-2.45-1.65,15.27,15.27,0,0,1-4-5,.21.21,0,0,0-.39.17,12.49,12.49,0,0,0,3.39,5.76c1.41,1.32,3.73,3.09,5.76,3A.58.58,0,0,0,61.32,44.68Z"/>
        <path class="cls-6" d="M63.61,41.31c-.43-.66-1.37-1-2-1.51a8.93,8.93,0,0,1-1.84-2c-.22-.33-.74,0-.59.36a8.28,8.28,0,0,0,1.64,2.61,3.49,3.49,0,0,0,2.43,1.37C63.7,42.13,63.8,41.61,63.61,41.31Z"/>
        <path class="cls-6" d="M85.3,27.3a.66.66,0,0,0-1.2,0,12.44,12.44,0,0,0-.46,2.92,17.14,17.14,0,0,1-.88,3.47A21,21,0,0,1,79,39.33c-.21.26.11.71.42.54a12.43,12.43,0,0,0,4.66-5.4C85.05,32.59,86.31,29.34,85.3,27.3Z"/>
        <path class="cls-6" d="M92.72,43c-1.52-.36-3.31,0-4.87,0s-3.26-.16-4.89-.27a.29.29,0,0,0-.14.55,17,17,0,0,0,5.07,1.24c1.55.13,3.55.36,5-.3A.64.64,0,0,0,92.72,43Z"/>
        <path class="cls-6" d="M89.53,52.41c-.81-.59-2-.55-2.88-.9a22,22,0,0,1-2.86-1.46c-.33-.18-.55.28-.4.52a6.07,6.07,0,0,0,2.72,2.24c1,.41,2.35.94,3.32.38A.46.46,0,0,0,89.53,52.41Z"/>
        <path class="cls-6" d="M85.62,56.42a10.2,10.2,0,0,1-3-1.16,5.75,5.75,0,0,1-1.92-2.73c-.11-.37-.69-.19-.64.17A5,5,0,0,0,82,56.13a4.21,4.21,0,0,0,3.63,1.1A.44.44,0,0,0,85.62,56.42Z"/>
        <path class="cls-6" d="M69.91,46c-1.17.49-.21,2.3.91,1.53C71.66,46.92,70.84,45.57,69.91,46Z"/>
        <path class="cls-6" d="M72.59,49.37a.55.55,0,0,0-.35-.2,1.71,1.71,0,0,0-.39,0,.55.55,0,0,0-.36.22.57.57,0,0,0-.11.4.61.61,0,0,0,.21.37.55.55,0,0,0,.41.1,1.24,1.24,0,0,0,.38-.09.54.54,0,0,0,.25-.22.5.5,0,0,0,.07-.34A.57.57,0,0,0,72.59,49.37Z"/>
        <path class="cls-6" d="M74.51,47.91a.51.51,0,0,0-.39-.1,1.38,1.38,0,0,0-.29.08l-.15.09a.7.7,0,0,0-.29.22.79.79,0,0,0-.14.34.71.71,0,0,0,.28.66.72.72,0,0,0,.71.09.7.7,0,0,0,.28-.23.61.61,0,0,0,.14-.33,1.16,1.16,0,0,0,0-.18,1.38,1.38,0,0,0,0-.29A.55.55,0,0,0,74.51,47.91Z"/>
        <path class="cls-6" d="M76.44,44.87a.69.69,0,0,0,.19,1.36A.69.69,0,0,0,76.44,44.87Z"/>
        <path class="cls-6" d="M72.38,45.07a.5.5,0,0,0,.14,1A.5.5,0,0,0,72.38,45.07Z"/>
        <path class="cls-6" d="M72,42a.68.68,0,0,0,.19,1.34A.68.68,0,0,0,72,42Z"/>
        <path class="cls-6" d="M76,47.22a.59.59,0,0,0,.16,1.17A.59.59,0,0,0,76,47.22Z"/>
        <path class="cls-6" d="M69.36,45.43s-.1-.11-.16-.16a.8.8,0,0,0-.54-.13l-.36,0a.69.69,0,0,0-.59.77.71.71,0,0,0,.78.59l.35-.07a.85.85,0,0,0,.43-.22,1,1,0,0,0,.17-.26A.53.53,0,0,0,69.36,45.43Z"/>
      </g>
      <g>
        <path class="cls-6" d="M137.3,116.68a13.11,13.11,0,0,1,3.08-3.18c1.48-1.22,3-2.42,4.46-3.63,2.29-1.87,4.4-3.93,7.55-2.71a17.58,17.58,0,0,1,6.82,5.45,15.46,15.46,0,0,1,3.73,7.82c.33,3-2.32,6.31-3.67,8.91-3.1,5.95-7.82,5.38-10.24,5.34a12.07,12.07,0,0,1-7.51-2.92C137.51,128.41,134.27,121.62,137.3,116.68Z"/>
        <g>
          <path class="cls-7" d="M170.09,129.76c-1.93-4.83-6.05-9.9-11.78-10.76a5.62,5.62,0,0,0-3.77.56c-1.43.9-1.46,2.46-1.74,3.92A18.07,18.07,0,0,1,151,128.7c-.83,1.58-2,2.94-2.83,4.51a.24.24,0,0,0,.25.34l.22,2.35a.71.71,0,0,0-.63.34c-1.8,2.54-1.3,5.6-.11,8.36a12.21,12.21,0,0,0,5.9,6.6,12.46,12.46,0,0,0,15.16-4.36C172.43,141.88,172.29,135.29,170.09,129.76Z"/>
          <path class="cls-7" d="M145.79,135.39l1-2.12c.17.06.39,0,.36-.23-.18-1.51-.69-2.95-.95-4.46a18.59,18.59,0,0,1-.16-5.16c.16-1.38.81-2.87.48-4.26a3.88,3.88,0,0,0-2.23-2.46c-2.34-1.15-5.38-.91-7.8-.24a18.24,18.24,0,0,0-7.21,4.14c-4.41,4-7.5,10-6.77,15.92.69,5.52,4.83,10.66,11,11.31a11.38,11.38,0,0,0,9.1-3.27c2.47-2.23,4.54-5.25,3.66-8.63A.7.7,0,0,0,145.79,135.39Z"/>
        </g>
        <path class="cls-8" d="M154.18,136.89c0-1.35-.63-2.89-2.08-3.19a2.82,2.82,0,0,0-1.89.26,4.73,4.73,0,0,0,.16-2.31c-.22-1.23-1.1-2.68-2.47-2.78s-2,1.34-2.23,2.47a9.64,9.64,0,0,0-.2,2,3,3,0,0,0-1.06-.72,1.87,1.87,0,0,0-2.46,1c-1.18,2.55.66,6,2.44,7.72a.12.12,0,0,0,.17,0,10.36,10.36,0,0,0,2.31,8c.29.36,1,.34,1.09-.24.17-2.26.24-4.54.21-6.81C151.17,142.16,154.16,140.18,154.18,136.89Z"/>
        <path class="cls-6" d="M140.61,142.37a17.37,17.37,0,0,0-2.43,1.24,12.89,12.89,0,0,1-2.74,1,16.63,16.63,0,0,1-6.13.22s-.05,0,0,.06a11.4,11.4,0,0,0,6.19.71c1.88-.28,4.45-.89,5.64-2.5A.47.47,0,0,0,140.61,142.37Z"/>
        <path class="cls-6" d="M139.87,139.55a32.83,32.83,0,0,0-5.54,1.55c-.1,0-.06.18,0,.18a11.77,11.77,0,0,0,5.71-1.16A.32.32,0,0,0,139.87,139.55Z"/>
        <path class="cls-6" d="M140.21,136.8a16.68,16.68,0,0,1-1.87,0,4.33,4.33,0,0,1-2-.94.27.27,0,0,0-.36.41c1,.93,2.89,1.79,4.25,1.14C140.48,137.26,140.53,136.83,140.21,136.8Z"/>
        <path class="cls-6" d="M138.58,132.75a13.25,13.25,0,0,0-1.75-1.68,11.48,11.48,0,0,1-1.52-1.95,13.07,13.07,0,0,1-1.89-5,.18.18,0,0,0-.35,0,10.51,10.51,0,0,0,1.2,5.48c.78,1.42,2.17,3.44,3.83,3.86A.49.49,0,0,0,138.58,132.75Z"/>
        <path class="cls-6" d="M141.28,130.66c-.17-.64-.82-1.18-1.18-1.73a7.14,7.14,0,0,1-.95-2.06.3.3,0,0,0-.57.13,6.88,6.88,0,0,0,.63,2.51c.32.68.81,1.53,1.58,1.73C141.14,131.33,141.36,131,141.28,130.66Z"/>
        <path class="cls-6" d="M162.24,125.14a.55.55,0,0,0-1-.3,10,10,0,0,0-1.13,2.21,14.25,14.25,0,0,1-1.61,2.53,17.63,17.63,0,0,1-4.43,3.53c-.24.15-.1.59.19.53a10.36,10.36,0,0,0,5.12-3.08C160.66,129.3,162.51,127,162.24,125.14Z"/>
        <path class="cls-6" d="M164.07,139.56a22,22,0,0,0-3.88-1.28c-1.28-.46-2.56-1-3.83-1.48a.24.24,0,0,0-.26.4,13.91,13.91,0,0,0,3.73,2.3,8.87,8.87,0,0,0,4,1.07A.54.54,0,0,0,164.07,139.56Z"/>
        <path class="cls-6" d="M159.05,146.28c-.49-.68-1.4-.95-2.05-1.48a17.13,17.13,0,0,1-1.91-1.9c-.21-.24-.51.07-.45.31a5.13,5.13,0,0,0,1.59,2.49c.65.58,1.63,1.36,2.55,1.17A.38.38,0,0,0,159.05,146.28Z"/>
        <path class="cls-6" d="M154.89,148.45a8.37,8.37,0,0,1-2-1.7,4.73,4.73,0,0,1-.82-2.68c0-.32-.5-.33-.56,0a4.21,4.21,0,0,0,.62,3.23,3.53,3.53,0,0,0,2.6,1.82A.38.38,0,0,0,154.89,148.45Z"/>
        <path class="cls-6" d="M145.09,136a.75.75,0,1,0,.33,1.46C146.24,137.23,145.94,135.94,145.09,136Z"/>
        <path class="cls-6" d="M146.34,139.43a.42.42,0,0,0-.22-.25,1.17,1.17,0,0,0-.32-.09.45.45,0,0,0-.34.07.43.43,0,0,0-.19.3.44.44,0,0,0,.07.34.41.41,0,0,0,.3.19.87.87,0,0,0,.32,0,.47.47,0,0,0,.26-.11.42.42,0,0,0,.14-.25A.44.44,0,0,0,146.34,139.43Z"/>
        <path class="cls-6" d="M148.25,138.76a.45.45,0,0,0-.28-.18,1,1,0,0,0-.25,0l-.15,0a.57.57,0,0,0-.28.11.5.5,0,0,0-.2.23.59.59,0,0,0,0,.6.62.62,0,0,0,.55.25.56.56,0,0,0,.28-.1.55.55,0,0,0,.2-.23l.08-.13a1,1,0,0,0,.08-.24A.44.44,0,0,0,148.25,138.76Z"/>
        <path class="cls-6" d="M150.59,136.85a.57.57,0,0,0-.21,1.13A.57.57,0,0,0,150.59,136.85Z"/>
        <path class="cls-6" d="M147.3,136a.42.42,0,0,0-.15.82A.42.42,0,0,0,147.3,136Z"/>
        <path class="cls-6" d="M147.77,133.35a.56.56,0,0,0-.2,1.11A.56.56,0,0,0,147.77,133.35Z"/>
        <path class="cls-6" d="M149.58,138.59a.49.49,0,0,0-.18,1A.49.49,0,0,0,149.58,138.59Z"/>
        <path class="cls-6" d="M144.8,135.45l-.09-.17a.69.69,0,0,0-.4-.25L144,135a.57.57,0,1,0-.21,1.13l.3,0a.64.64,0,0,0,.6-.22A.46.46,0,0,0,144.8,135.45Z"/>
      </g>
      <g>
        <path class="cls-6" d="M144.65,149.56a8.35,8.35,0,0,1,1.92-2l2.77-2.26c1.43-1.16,2.74-2.45,4.7-1.69a11,11,0,0,1,4.24,3.39,9.71,9.71,0,0,1,2.33,4.87c.2,1.89-1.45,3.92-2.29,5.54-1.93,3.7-4.86,3.34-6.37,3.32a7.49,7.49,0,0,1-4.67-1.81C144.79,156.86,142.77,152.64,144.65,149.56Z"/>
        <g>
          <path class="cls-7" d="M165.05,157.7c-1.2-3-3.76-6.16-7.33-6.69a3.49,3.49,0,0,0-2.34.34c-.89.57-.91,1.53-1.08,2.45a11.39,11.39,0,0,1-1.15,3.24c-.52,1-1.25,1.83-1.76,2.81-.06.11,0,.21.15.21l.14,1.46a.44.44,0,0,0-.4.21c-1.11,1.58-.8,3.49-.06,5.2a7.57,7.57,0,0,0,3.67,4.11,7.75,7.75,0,0,0,9.43-2.72C166.51,165.24,166.42,161.14,165.05,157.7Z"/>
          <path class="cls-7" d="M149.93,161.2l.64-1.32c.11,0,.24,0,.23-.14-.12-.94-.43-1.84-.59-2.77a11.15,11.15,0,0,1-.1-3.21,8,8,0,0,0,.29-2.65,2.4,2.4,0,0,0-1.38-1.53,7.09,7.09,0,0,0-4.85-.15,11.3,11.3,0,0,0-4.49,2.57c-2.74,2.47-4.67,6.23-4.21,9.91a7.89,7.89,0,0,0,6.82,7,7.09,7.09,0,0,0,5.65-2c1.54-1.39,2.83-3.27,2.29-5.37A.46.46,0,0,0,149.93,161.2Z"/>
        </g>
        <path class="cls-8" d="M155.16,162.14a1.91,1.91,0,0,0-1.3-2,1.82,1.82,0,0,0-1.18.16,2.87,2.87,0,0,0,.11-1.43c-.14-.77-.69-1.67-1.54-1.73s-1.24.83-1.39,1.54a6.41,6.41,0,0,0-.12,1.23,1.73,1.73,0,0,0-.66-.45,1.17,1.17,0,0,0-1.53.63c-.74,1.59.41,3.71,1.52,4.8a.07.07,0,0,0,.1,0,6.43,6.43,0,0,0,1.44,5c.18.22.65.21.68-.14.1-1.42.14-2.83.13-4.24C153.28,165.41,155.15,164.18,155.16,162.14Z"/>
        <path class="cls-6" d="M146.71,165.55a10.23,10.23,0,0,0-1.51.77,7.86,7.86,0,0,1-1.7.62,10.44,10.44,0,0,1-3.82.14,0,0,0,0,0,0,0,7.07,7.07,0,0,0,3.86.44c1.16-.17,2.76-.55,3.5-1.56A.29.29,0,0,0,146.71,165.55Z"/>
        <path class="cls-6" d="M146.25,163.79a20.94,20.94,0,0,0-3.44,1c-.07,0,0,.12,0,.12a7.3,7.3,0,0,0,3.54-.73C146.55,164.05,146.44,163.77,146.25,163.79Z"/>
        <path class="cls-6" d="M146.46,162.08a9,9,0,0,1-1.16,0,2.6,2.6,0,0,1-1.23-.58.17.17,0,0,0-.22.26,2.64,2.64,0,0,0,2.64.7C146.64,162.37,146.66,162.1,146.46,162.08Z"/>
        <path class="cls-6" d="M145.45,159.56a7.66,7.66,0,0,0-1.09-1,7,7,0,0,1-.94-1.22,8.08,8.08,0,0,1-1.18-3.1c0-.15-.21-.12-.22,0a6.53,6.53,0,0,0,.75,3.41c.49.88,1.35,2.14,2.38,2.4A.31.31,0,0,0,145.45,159.56Z"/>
        <path class="cls-6" d="M147.13,158.26c-.1-.39-.51-.73-.74-1.07a5,5,0,0,1-.59-1.29c-.05-.2-.36-.12-.35.08a4.48,4.48,0,0,0,.39,1.57c.2.42.51.95,1,1.07C147,158.68,147.18,158.44,147.13,158.26Z"/>
        <path class="cls-6" d="M160.17,154.83a.34.34,0,0,0-.6-.19,6.32,6.32,0,0,0-.7,1.37,9,9,0,0,1-1,1.58,11.1,11.1,0,0,1-2.76,2.2.18.18,0,0,0,.12.33,6.51,6.51,0,0,0,3.19-1.92C159.18,157.42,160.34,156,160.17,154.83Z"/>
        <path class="cls-6" d="M161.31,163.8a13.2,13.2,0,0,0-2.42-.8c-.79-.29-1.59-.6-2.38-.92a.15.15,0,0,0-.16.25,8.8,8.8,0,0,0,2.32,1.43,5.55,5.55,0,0,0,2.52.67A.34.34,0,0,0,161.31,163.8Z"/>
        <path class="cls-6" d="M158.19,168c-.31-.43-.88-.59-1.28-.92a11.14,11.14,0,0,1-1.19-1.19c-.13-.14-.31,0-.28.2a3.22,3.22,0,0,0,1,1.55c.4.36,1,.84,1.59.72A.23.23,0,0,0,158.19,168Z"/>
        <path class="cls-6" d="M155.6,169.33a5.44,5.44,0,0,1-1.28-1.06,2.93,2.93,0,0,1-.51-1.66c0-.21-.31-.21-.35,0a2.61,2.61,0,0,0,.39,2,2.18,2.18,0,0,0,1.62,1.13A.23.23,0,0,0,155.6,169.33Z"/>
        <path class="cls-6" d="M149.5,161.59c-.65,0-.47,1.1.21.91C150.22,162.35,150,161.55,149.5,161.59Z"/>
        <path class="cls-6" d="M150.28,163.71a.29.29,0,0,0-.14-.15,1.17,1.17,0,0,0-.2-.06.31.31,0,0,0-.21.05.29.29,0,0,0,.11.52l.2,0a.27.27,0,0,0,.16-.08.24.24,0,0,0,.09-.15A.26.26,0,0,0,150.28,163.71Z"/>
        <path class="cls-6" d="M151.47,163.3a.27.27,0,0,0-.18-.11h-.24a.36.36,0,0,0-.18.07.29.29,0,0,0-.13.14.4.4,0,0,0,0,.37.39.39,0,0,0,.34.16.35.35,0,0,0,.18-.06.44.44,0,0,0,.12-.15l.05-.08a.34.34,0,0,0,0-.14A.31.31,0,0,0,151.47,163.3Z"/>
        <path class="cls-6" d="M152.92,162.11a.36.36,0,0,0-.13.71A.36.36,0,0,0,152.92,162.11Z"/>
        <path class="cls-6" d="M150.87,161.55a.26.26,0,0,0-.09.51A.26.26,0,0,0,150.87,161.55Z"/>
        <path class="cls-6" d="M151.17,159.93a.36.36,0,0,0-.13.7A.36.36,0,0,0,151.17,159.93Z"/>
        <path class="cls-6" d="M152.29,163.2a.31.31,0,0,0-.11.6A.31.31,0,0,0,152.29,163.2Z"/>
        <path class="cls-6" d="M149.32,161.24a.6.6,0,0,0-.06-.11A.41.41,0,0,0,149,161l-.17,0a.36.36,0,0,0-.42.29.36.36,0,0,0,.29.42l.18,0a.43.43,0,0,0,.25,0,.69.69,0,0,0,.13-.11A.28.28,0,0,0,149.32,161.24Z"/>
      </g>
      <g>
        <path class="cls-4" d="M125.41,177.26c1-8.34,1.22-16.75,2.37-25.08a1.16,1.16,0,0,0-1.54-1.27c-13.17,3.15-22.79,13.7-29,25.23-6.59,12.24-9.57,26.09-16.55,38.13A45.83,45.83,0,0,1,73,224.52c-1.89.39-3.77.81-5.62,1.31-1.32.36-.93,2.27.24,2.49l0,.17-.12.07c-.19.1-.16.46.09.4a13.3,13.3,0,0,0,2.58-.88A99.93,99.93,0,0,0,90,223a61.69,61.69,0,0,0,18-9.79,43.28,43.28,0,0,0,12.31-15.6C123.2,191.23,124.57,184.22,125.41,177.26Z"/>
        <path class="cls-5" d="M127.74,152.42a1.1,1.1,0,0,0-.33-1,57.81,57.81,0,0,0-9.3,15c-3,6.52-5.47,13.23-8.69,19.63a103.83,103.83,0,0,1-12.25,19c-5.08,6.2-11.09,11.31-16.91,16.76q-2.92,2.74-5.53,5.69a107.53,107.53,0,0,0,15.19-4.27,61.43,61.43,0,0,0,18-9.78,43.31,43.31,0,0,0,12.31-15.61c2.94-6.4,4.31-13.42,5.15-20.38C126.38,169.15,126.59,160.74,127.74,152.42Z"/>
      </g>
      <path class="cls-4" d="M60.24,226c-1.61-1.27-20.46-12.32-26.81-15.06A79.11,79.11,0,0,0,12,205.17c-1.65-.21-1.87,2.09-.77,2.85,7.27,5,14.68,10,22.91,13.28s16.92,3.5,25.23,6.12C60.18,227.67,61,226.5,60.24,226Z"/>
      <path class="cls-4" d="M121,172.3c-1.52,8.36-3,16.58-7.88,23.76a51.83,51.83,0,0,1-7.44,8.56c-2.77,2.64-5.89,4.88-8.6,7.57a1.11,1.11,0,0,0,1.34,1.73,39.45,39.45,0,0,0,9.53-7.45,50.43,50.43,0,0,0,7.28-9.18c4.68-7.62,5.71-16.18,6-25C121.3,172.18,121.05,172.14,121,172.3Z"/>
      <path class="cls-4" d="M89.31,173.94c-.94-5.34-2.24-10.6-2.87-16s-.92-10.59-1.3-15.87c0-.13-.21-.18-.24,0A51.82,51.82,0,0,0,84,158.29a55.49,55.49,0,0,0,3.41,16.18A1,1,0,0,0,89.31,173.94Z"/>
      <path class="cls-4" d="M38.73,208.32c-2.21-2.28-5.3-3.56-7.67-5.69a31.33,31.33,0,0,1-5.61-6.81c-3.37-5.36-5.77-11.31-8.87-16.81a.14.14,0,0,0-.25.1c2.1,6.3,4.45,12.76,7.94,18.46a28.9,28.9,0,0,0,5.79,7c2.32,2,5.08,4.05,8.07,4.83A.63.63,0,0,0,38.73,208.32Z"/>
      <path class="cls-4" d="M55.22,216.8a50.56,50.56,0,0,1-6.77-3.23c-.4-.25-.76.37-.37.63A20.64,20.64,0,0,0,55,217.4C55.31,217.47,55.58,217,55.22,216.8Z"/>
      <path class="cls-4" d="M64.17,164.5c-2.42-5.4-4.7-10.86-7.24-16.21S52,137.53,49.93,132a126,126,0,0,1-5-16.37A84.88,84.88,0,0,1,43.47,107c-.33-2.79-.3-5.65-.86-8.41,0-.1-.17-.09-.2,0a28.89,28.89,0,0,0-.16,8.41,83.24,83.24,0,0,0,1.08,8.46A102.32,102.32,0,0,0,48,132.52a172.24,172.24,0,0,0,6.91,16.19c2.64,5.5,5.87,10.69,9,15.93A.14.14,0,0,0,64.17,164.5Z"/>
      <path class="cls-4" d="M80,203.24a96.32,96.32,0,0,0-5.56-16.87A90.08,90.08,0,0,0,66,170.19a.15.15,0,0,0-.26.15c2.49,5.44,5.23,10.74,7.57,16.26s4.35,11.14,6.43,16.74A.17.17,0,0,0,80,203.24Z"/>
      <path class="cls-4" d="M28.85,52.22a22.09,22.09,0,0,0-1.08,10.84c.05.32.5.22.53-.07.28-3.59.5-7.14,1-10.71C29.29,52,28.92,52,28.85,52.22Z"/>
      <path class="cls-11" d="M117.92,157.18c-5.11,1.87-9.44,6.39-12.75,10.57a67.35,67.35,0,0,0-8.55,14.78c-2.46,5.58-4.48,11.33-6.74,17A139.17,139.17,0,0,1,81.18,217a.05.05,0,0,0,.09.06c4.3-4.21,7.32-9.56,10.13-14.85s5.32-10.93,8-16.4c2.48-5.1,5.13-10,8.09-14.85a59,59,0,0,1,4.85-6.82c1.87-2.25,4-4.18,6-6.36C118.52,157.56,118.3,157,117.92,157.18Z"/>
      <path class="cls-11" d="M82.92,132.52A63.49,63.49,0,0,0,70.11,158c-2.07,9-2.42,19.8,2.57,28a.64.64,0,0,0,1.16-.5A96.28,96.28,0,0,1,72.55,172,62.86,62.86,0,0,1,74,158.36c2-8.84,5.58-17.33,9.33-25.55C83.4,132.58,83.1,132.29,82.92,132.52Z"/>
      <path class="cls-11" d="M35.93,217.15c-3-3-7.67-4.78-11.56-6.44-1.92-.83-3.85-1.69-5.82-2.39a21.61,21.61,0,0,0-6.07-1.64s0,0,0,0a25.3,25.3,0,0,0,5,3.23c1.93,1.11,3.94,2.09,5.91,3.12s3.79,1.9,5.67,2.86a23,23,0,0,0,6.13,2.47A.75.75,0,0,0,35.93,217.15Z"/>
      <path class="cls-11" d="M68.42,205.39c-1.18-4.59-5.39-8.68-8.93-11.67A73,73,0,0,0,46,185.1c-10.16-5.31-20.26-10.17-29.21-17.44-.11-.09-.32,0-.22.16,6.33,8.86,16.92,13.66,26.2,18.75a110.69,110.69,0,0,1,13.53,8.37,64.92,64.92,0,0,1,6,4.93c2,1.86,3.56,4,5.59,5.79A.28.28,0,0,0,68.42,205.39Z"/>
      <path class="cls-11" d="M73.82,180.5c0-.08-.18,0-.15.06,1.5,4.85,2.5,9.86,4.19,14.63.09.26.5.23.49-.06C78.17,189.94,76.22,185.05,73.82,180.5Z"/>
      <path class="cls-12" d="M131.37,139.16a3.48,3.48,0,0,0-1.61,1.15,2,2,0,0,0-.74,1.51.17.17,0,0,0,.2.12c.51-.17.79-.65,1.18-1s1-.66,1.42-1S131.79,139,131.37,139.16Z"/>
      <g>
        <g>
          <path class="cls-13" d="M35.22,323.76h69.37a4.15,4.15,0,0,0,4.09-3.4l17.82-96.49a.64.64,0,0,0-.63-.76H15.65a.65.65,0,0,0-.64.75L31.3,320.44A4,4,0,0,0,35.22,323.76Z"/>
          <path class="cls-14" d="M107.92,223.11,93.25,301.36a20,20,0,0,1-16.87,16.13l-41.63,5.86a.21.21,0,0,0,0,.41h69.81a4.15,4.15,0,0,0,4.09-3.4l17.82-96.49a.64.64,0,0,0-.63-.76Z"/>
        </g>
        <path class="cls-15" d="M43.29,306.94q-.82-4.33-1.64-8.67-1.66-8.85-3.26-17.71-3.2-17.7-6.42-35.4c-.59-3.23-1.3-6.43-2.18-9.59a41.6,41.6,0,0,0-1.9-4.94c-.53-1.27-.81-2.69-2.09-3.39a1,1,0,0,0-1.16.15,3.94,3.94,0,0,0-.95,2.77c-.15,1.63-.38,3.26-.42,4.89a57.89,57.89,0,0,0,.51,8.73c.78,6.21,1.65,12.41,2.5,18.61C27.93,274.3,30,286.16,32,298q.85,5.06,1.73,10.1.45,2.63.91,5.23c.42,2.4,1.08,4,3.11,5.53s4.71.24,5.85-1.54C45.52,314.34,43.91,310.17,43.29,306.94Z"/>
        <path class="cls-15" d="M47,282c-.65-6.1-1.77-12.15-2.78-18.2s-2.11-12-3.28-18c-.58-3-1.22-6-2.08-8.91-.39-1.35-.79-2.7-1.19-4a13.49,13.49,0,0,0-1.48-4.16.72.72,0,0,0-1.29.17,13.87,13.87,0,0,0,0,4.36c.1,1.39.19,2.78.28,4.17.19,3,.56,6,1,9,.88,6.08,1.73,12.16,2.63,18.23s1.6,12.16,2.7,18.19a51.87,51.87,0,0,0,2.05,8.89,84.14,84.14,0,0,1,2.72,8.69.46.46,0,0,0,.89-.12c0-3.08,0-6,.3-9.1A46.21,46.21,0,0,0,47,282Z"/>
        <path class="cls-13" d="M118.68,231.63c0-.38-.57-.61-.78-.21-1.52,3-2.19,6.38-3,9.63s-1.47,6.48-2.15,9.74c-1.41,6.75-2.76,13.51-4.1,20.27s-2.72,13.52-4,20.29c-.63,3.28-1.25,6.55-1.88,9.82a45.77,45.77,0,0,0-1.22,10.36c0,1.2,1.9,2,2.47.67,2.72-6.12,3.37-13.2,4.63-19.74,1.31-6.78,2.54-13.57,3.8-20.36s2.52-13.57,3.71-20.37c.58-3.3,1.12-6.59,1.62-9.89S119,235,118.68,231.63Z"/>
      </g>
    </g>
  </g>
</svg>
