<svg id="Layer_1" data-name="Layer 1" xmlns="http://www.w3.org/2000/svg" width="387.37" height="308.37" viewBox="0 0 387.37 308.37">
  <defs>
    <style>
      .cls-1 {
        opacity: 0.5;
      }

      .cls-2 {
        fill: #ff0;
      }

      .cls-3 {
        fill: #052d05;
      }

      .cls-4 {
        fill: #0b4712;
      }

      .cls-5 {
        fill: #6da541;
      }

      .cls-6 {
        fill: #5c8c31;
      }

      .cls-7 {
        fill: #547c29;
      }

      .cls-8 {
        fill: #063508;
      }

      .cls-9 {
        fill: #d8dc3a;
      }

      .cls-10 {
        fill: #feffff;
      }

      .cls-11 {
        fill: #d82a2b;
      }

      .cls-12 {
        fill: #e8363f;
      }

      .cls-13 {
        fill: #c6d62b;
      }

      .cls-14 {
        fill: #c4121b;
      }

      .cls-15 {
        fill: #ce1527;
      }

      .cls-16 {
        fill: #330e0b;
      }

      .cls-17 {
        fill: #511918;
      }

      .cls-18 {
        fill: #a06665;
      }
    </style>
  </defs>
  <g>
    <path class="cls-1" d="M247.29,308.37c-10.77,0-28.65-1.65-53.59-9.27-2.36.83-4.68,1.58-6.93,2.25a142.35,142.35,0,0,1-29,5.41c-3.68.29-7.42.44-11.11.44a137.43,137.43,0,0,1-18.82-1.29l-1.29-.19c-2.91-.42-5.82-1-8.65-1.56-3-.64-6-1.39-8.93-2.23-4.08-1.17-8.16-2.54-12.11-4.07a138,138,0,0,1-15.88-7.37c-2.75-1.5-5.44-3.07-8-4.69-2.85-1.8-5.73-3.79-8.54-5.89l-.57-.43a138.84,138.84,0,0,1-28.57-29.05c-.94-1.28-1.91-2.66-3.05-4.36l-.22-.31c-.38-.56-.76-1.12-1.13-1.69-.66-1-1.31-2-1.94-3.08l-.15-.24c-.63-1-1.29-2.13-1.94-3.24A150,150,0,0,1,9.47,191a158.78,158.78,0,0,1,8.11-88l.16-.39C32.05,66,58.68,36.43,92.75,19.18c2.46-1.25,4.92-2.39,7.33-3.4,1.51-.64,3.12-1.28,4.9-1.94l.52-.19c1.44-.52,3-1.05,4.71-1.6l.65-.2c1.57-.49,3.17-.95,4.75-1.36l.67-.17c1.54-.4,3.12-.77,4.65-1.1l1-.2,2.24-.44,1-.18c.7-.13,1.38-.24,2.06-.35l1.19-.18,2-.27,1.2-.15q1-.12,2-.21l1.18-.12,2-.17L138,6.87l2.1-.12,1.07-.06,2.29-.07.92,0,2.17,0h1a144.25,144.25,0,0,1,26.82,2.84c4.22.84,8.52,1.87,12.79,3.06,5.09,1.43,10.31,3.13,15.5,5.07.89.33,1.83.68,2.76,1.05,3.32,1.29,6.47,2.61,9.41,3.93,3.59,1.6,7.17,3.33,10.61,5.14,2.85,1.5,5.61,3.05,8.21,4.61a139.22,139.22,0,0,1,30.49,24.33l0,.05a116.42,116.42,0,0,1,23.36,37c.23.55.47,1.19.71,1.84a155.37,155.37,0,0,1,9.29,65.07l80.84,11.61a10.54,10.54,0,0,1,8.93,12A146.23,146.23,0,0,1,380,212.79c-.39,1.08-.8,2.15-1.21,3.21-3.92,11.71-10.27,21.77-15.4,29.25-.67,1.05-1.36,2.07-2.06,3.07a107.49,107.49,0,0,1-15.08,17.14c-.88.85-1.77,1.69-2.66,2.52-4.35,4-8.78,7.76-13.7,11.87l-.6.46c-.16.13-.32.24-.49.36-1,.73-2.16,1.48-3.33,2.21-.29.18-.69.45-1.19.79-6.1,4.13-24.67,16.67-55.17,21.93l-1.49.3-1.25.26c-3.38.66-6.44,1.19-9.36,1.62a65.36,65.36,0,0,1-9.7.59Z"/>
    <path class="cls-2" d="M240.71,301.78c-10.77,0-28.65-1.64-53.6-9.26-2.35.83-4.67,1.58-6.93,2.24a142.39,142.39,0,0,1-29,5.41c-3.69.3-7.43.45-11.12.45a139.14,139.14,0,0,1-18.82-1.29l-1.29-.19c-2.9-.43-5.81-1-8.65-1.57s-6-1.38-8.92-2.22c-4.09-1.17-8.16-2.54-12.12-4.08a138.71,138.71,0,0,1-15.88-7.36c-2.75-1.5-5.43-3.08-8-4.7-2.84-1.8-5.72-3.78-8.54-5.88l-.57-.43a139.38,139.38,0,0,1-28.57-29.06c-.93-1.27-1.9-2.66-3.05-4.36l-.21-.31c-.38-.56-.76-1.12-1.13-1.69-.67-1-1.31-2-1.95-3.07l-.15-.24c-.63-1-1.29-2.13-1.93-3.24A149.84,149.84,0,0,1,2.89,184.4a158.57,158.57,0,0,1,8.11-88l.15-.4c14.31-36.52,40.94-66.12,75-83.38,2.47-1.24,4.93-2.38,7.34-3.4,1.51-.64,3.12-1.27,4.9-1.93l.51-.19c1.44-.53,3-1.06,4.71-1.6l.65-.21c1.58-.48,3.18-.94,4.75-1.35l.67-.18c1.55-.4,3.13-.77,4.65-1.09l1-.21c.75-.15,1.49-.3,2.24-.43l1.06-.19,2.06-.34,1.19-.18c.63-.09,1.3-.19,2-.27L125,.87l2-.22L128.2.53l2-.16,1.18-.09,2.1-.12,1.06,0,2.3-.07.92,0,2.16,0h1a146.16,146.16,0,0,1,26.83,2.84c4.22.84,8.52,1.87,12.78,3.07C185.61,7.33,190.83,9,196,11c.89.32,1.82.68,2.76,1,3.31,1.29,6.46,2.61,9.41,3.93,3.59,1.6,7.17,3.33,10.6,5.14,2.85,1.5,5.62,3.05,8.21,4.61A139.81,139.81,0,0,1,257.5,50s0,0,.05,0a116.77,116.77,0,0,1,23.36,37c.22.56.47,1.2.71,1.84A155.23,155.23,0,0,1,290.9,154l80.85,11.61a10.53,10.53,0,0,1,8.92,12,146.57,146.57,0,0,1-7.26,28.63c-.4,1.08-.8,2.14-1.22,3.2-3.92,11.72-10.26,21.77-15.39,29.26-.67,1-1.36,2.06-2.06,3.07a108,108,0,0,1-15.08,17.13c-.89.86-1.77,1.69-2.67,2.52-4.34,4-8.77,7.76-13.7,11.87-.19.16-.39.32-.6.47s-.31.24-.49.36c-1,.73-2.16,1.47-3.32,2.2l-1.19.8c-6.11,4.12-24.68,16.67-55.17,21.93-.5.09-1,.19-1.49.3l-1.25.25c-3.38.66-6.44,1.2-9.37,1.63a67.3,67.3,0,0,1-9.7.58Z"/>
    <g>
      <g>
        <path class="cls-3" d="M270.49,197.25a150.91,150.91,0,0,1-12.21,24.58,145.65,145.65,0,0,1-51.39,50.1,138.23,138.23,0,0,1-29.69,12.73,132.25,132.25,0,0,1-26.89,5,126.92,126.92,0,0,1-27.66-.78l-1.2-.18q-4-.58-8-1.44-4.14-.88-8.25-2c-3.75-1.07-7.49-2.33-11.19-3.77a126.36,126.36,0,0,1-14.66-6.8q-3.78-2.06-7.36-4.33c-2.72-1.71-5.34-3.53-7.89-5.43l-.47-.35A128.88,128.88,0,0,1,37.2,237.62c-1.41-1.93-2.77-3.89-4.08-5.9s-2.54-4-3.73-6.07h0a139.77,139.77,0,0,1-16.15-43.27h0a148.14,148.14,0,0,1,7.59-82.2l.06-.15h0c13.83-35.45,39.46-62.55,70-78,2.21-1.11,4.43-2.15,6.67-3.09a105.23,105.23,0,0,1,19.22-6,111.82,111.82,0,0,1,24-2.34,134,134,0,0,1,24.86,2.64q6,1.19,12,2.87,7.33,2.06,14.67,4.8c.88.32,1.77.66,2.65,1q4.53,1.77,8.88,3.71c3.43,1.53,6.76,3.14,10,4.86q3.95,2.07,7.7,4.32A128.75,128.75,0,0,1,249.8,57.22h0a105.74,105.74,0,0,1,21.3,33.71c.22.55.43,1.11.64,1.67C283.72,124.65,284.24,161.87,270.49,197.25Z"/>
        <path class="cls-4" d="M253.12,190.19a143.12,143.12,0,0,1-11.63,23.42q-2.58,4.21-5.42,8.18a138.38,138.38,0,0,1-43.56,39.56q-5.52,3.18-11.29,5.79a129.15,129.15,0,0,1-17,6.34l-2.27.65a125.11,125.11,0,0,1-23.36,4.13q-3.93.32-7.88.37a119.56,119.56,0,0,1-18.48-1.12l-1.15-.16-1.51-.24c-2-.32-4-.7-6.07-1.13-2.63-.57-5.25-1.22-7.86-2q-5.37-1.53-10.67-3.58c-1.13-.44-2.25-.9-3.36-1.37C78,267.52,74.43,265.8,71,263.94c-2-1.06-3.88-2.18-5.76-3.34L64,259.82q-3.89-2.46-7.52-5.18l-.44-.33a122.61,122.61,0,0,1-22.92-22.59q-1.95-3-3.73-6.07h0a139.77,139.77,0,0,1-16.15-43.27h0a148.14,148.14,0,0,1,7.59-82.2l.06-.15h0c13.83-35.45,39.46-62.55,70-78,2.21-1.11,4.43-2.15,6.67-3.09a105.23,105.23,0,0,1,19.22-6,108.33,108.33,0,0,1,12.75-.62,127.14,127.14,0,0,1,23.69,2.51q5.72,1.14,11.43,2.74,4.44,1.24,8.9,2.76c1.69.57,3.39,1.18,5.08,1.81l2.52,1a1,1,0,0,1,.21.08q4.22,1.64,8.26,3.45c.82.37,1.64.74,2.44,1.12,2.42,1.12,4.78,2.29,7.1,3.51l.11.05c2.11,1.12,4.19,2.27,6.22,3.47l1,.59c1,.6,2,1.21,2.95,1.82q5,3.18,9.67,6.73a114.45,114.45,0,0,1,14.26,12.88h0q3.59,3.85,6.78,8.05a100.32,100.32,0,0,1,13.52,24.08c.21.53.41,1.06.61,1.59,1.15,3.07,2.19,6.2,3.11,9.36h0A140.46,140.46,0,0,1,253.12,190.19Z"/>
        <path class="cls-5" d="M230,131.55c-2.75,14.69,3.18,28-6.65,41,.24-.31-.46,1.18-.42,1-7.44,18.2-1.46,40.84-14.13,59.2-4.13,5.94-9.26,13.37-14.51,18.36-4.26,3.86-9,7.72-11.77,12.77a12.47,12.47,0,0,0-1.25,3.25,129.15,129.15,0,0,1-17,6.34l-2.27.65a10.9,10.9,0,0,0,1.4-3.3c2.95-13.65,13.3-19.63,18.35-32.64,3.83-11.73,4.69-20.13,9-32,3.77-10.7-2.86-23.2,7.21-31.28,3.76-3.17,4.75-7.26,2.07-11.43-3.09-10.24,1.9-10.58,6.93-19.65,4.11-5-3.76-12.2-4.24-17.2-.39-4.29,2.85-8.52,4.6-12.23,2.29-4.87,3-8.29-.79-13.32-5.69-9,3.17-13.81.26-20.57-.95-2.86-5-18.73-6-26.38-.37-3-.24-4.76.76-3.9a34.41,34.41,0,0,1,4.3,4.56c9.19,11.43,19.32,34.11,17.46,47.39C223.29,112.35,230.83,120.62,230,131.55Z"/>
        <path class="cls-6" d="M112.24,277.51a119.56,119.56,0,0,0,18.48,1.12c-2.35,3.08-5.37,7.07-8.07,10.26l-1.2-.18q-4-.58-8-1.44-4.14-.88-8.25-2c1.3-2.45,2.89-5.27,4.34-8.11l1.51.24Z"/>
        <path class="cls-6" d="M181.22,267.14c-1.27,5.58,1.44,10.78-3.05,16.35-.24.32-.56.71-1,1.17a132.25,132.25,0,0,1-26.89,5c1.37-5.79,8.44-10.31,11.65-15.54l2.27-.65A129.15,129.15,0,0,0,181.22,267.14Z"/>
        <path class="cls-5" d="M190.7,94c.16,6.53,2.3,19.66,4.59,25.63,2.13,5.91-7.19,19.11-9.08,24.85-4.16,10.13,1.88,11.48-1.76,22.74-2.5,5.67-12.35,6.41-13.25,26C169.74,217,164,223.43,157,234.83c-11.9,19-17.73,33.11-23.49,40.18-.71.88-1.69,2.15-2.81,3.62a119.56,119.56,0,0,1-18.48-1.12l-1.15-.16-1.51-.24a52.18,52.18,0,0,0,3.47-8c1.81-5,6.67-9.14,8.22-14.24,1.92-4.65,7.23-6.37,9.82-10.87,4.49-7.77-2.24-23.08,4.34-28.05,7.49-5.73,16.15-4.15,10.56-16.63-2.75-6,1.55-10.71,4.41-15.33,4.6-7.46-3.52-13.94,1-20.61,4.7-7.08,6.09-3.37,6.86-12.66.49-6.21,1.39-12.45,4-18.13,4.14-9.16,8.33-11.22,8.9-21.15.59-11.49,3.3-23,11.46-33.4,6.76-8.58,6.87-19.91,8-26.83,0-.15.05-.3.07-.45.78-4.4,1.83-2.6,2.8,1.49h0c1.61,6.76,3,19.79,2.6,21.39C195,80.31,190.6,87.19,190.7,94Z"/>
        <path class="cls-5" d="M199.3,31.25a33.63,33.63,0,0,0-2.77,4l-.11.18c-2.34,4-3.53,2.32-4-1.58a48.93,48.93,0,0,1-.3-6.17c2.42,1.12,4.78,2.29,7.1,3.51Z"/>
        <path class="cls-6" d="M81.62,269.06a21.27,21.27,0,0,1-2.23,5.59q-3.78-2.06-7.36-4.33c-2.72-1.71-5.34-3.53-7.89-5.43.32-1.37.7-2.82,1.11-4.29,1.88,1.16,3.8,2.28,5.76,3.34C74.43,265.8,78,267.52,81.62,269.06Z"/>
        <path class="cls-5" d="M181,46.38c-2.93,3.28-10.21,8.88-12,15-.25.85-.52,1.7-.8,2.53h0C163.75,77,155.47,86.29,148.46,97.48c-6.28,10.11-3.15,24.36-13.28,32.19-4.08,3.18-8.53,6.73-10.48,11.65-1.1,2.78-.45,5.71.07,8.54.58,3.26,1,6.4-1.67,9l0,0h0l0,.06-.12.09c-11.08,8.42-11.09,15.33-13.41,28.86-2.38,15-8.53,18.15-18.66,28.09-7.1,7.8-.5,21.43-3.75,30.56-3.33,9.37-3.94,16.78-5.45,22.45C78,267.52,74.43,265.8,71,263.94c-2-1.06-3.88-2.18-5.76-3.34,1.44-5.19,3.25-10.44,4.23-11.73,7.08-10.48-6.9-17.73-2.49-29C70.5,211,72,201.1,75.78,193c2.37-5.06,8.59-7.08,10.51-12.17,1.52-4-.12-7.9-1.41-11.84-.87-2.67-1.59-5.36-1.06-8.13,1-5.35,10.27-7.5,13.33-11.78,3.58-5,5.06-11.15,6.41-17.05,2.72-11.88,6.37-21.42,14.44-30.86,3.54-4.14,7.21-10.31,11-13.93,4.8-4.58,12.47-4.91,15.51-11.06,2-5.44,11.42-15.8,20.32-23.43,4.83-4.13,9.49-7.45,12.74-8.75a7,7,0,0,1,2.55-.6C182.92,43.46,182.64,44.56,181,46.38Z"/>
        <path class="cls-5" d="M173.57,40c-2.76,1.46-8.09,3.44-12.84,5.74A40.49,40.49,0,0,0,155.05,49c-9.49,7-12.79,13.25-22.59,19.76a19.64,19.64,0,0,0-2.79,6.44c-2.2,6.71-8.31,9-13.15,13.22-6.56,5.57-11,22.67-17.4,28.46l0,0a36.62,36.62,0,0,0-7.53,5.22c-.76.67-1.48,1.37-2.18,2.09-2.27,2.3-4.68,4.17-6.19,7-.54,1-1,2-1.51,3.05s-1,2.08-1.54,3.1c-.75.94-1.49,1.88-2.21,2.82S76.49,142,75.79,143C70.29,150.6,65,158.37,61,166.87a11.52,11.52,0,0,1-1.9,2.85c-2.22,2.59-5.23,5-5.79,8.78a35.11,35.11,0,0,0-.5,3.48c-.73,7.14-.32,14.64-7.59,21.87-6.56,6.71-7.82,8.89-6.14,20.48a25.16,25.16,0,0,1-1.87,13.29,131.4,131.4,0,0,1-7.81-12h0c.19-2.79.49-5.75.9-8.72,1.69-14,5.89-28.4,5.78-31.38-.5-10.09-1.32-16.37,4-24.6l.32-.47a45.68,45.68,0,0,0,2.52-4.22c3.25-9,8.58-16.77,13-25a37.63,37.63,0,0,0,4.28-13.43c.21-1.39.37-2.8.49-4.24a6.61,6.61,0,0,1,4.09-6c1.59-.78,3-1.37,4.38-1.88,9.46-3.45,12.32.36,14.28-13.62,1.39-9.26,7.06-16,16.74-18.21,14.23-3.1,16.81-9.75,25-20.25,4.5-6.14,16.67-12.17,28.52-15.07,6.74-1.65,13.38-2.29,18.45-1.36a17.36,17.36,0,0,1,2.67.69C176.07,38.31,175.36,39.05,173.57,40Z"/>
        <path class="cls-5" d="M172.65,34.51l-.12,0c-2.87-.73-16.85-2.06-27-.93a29.55,29.55,0,0,0-7.26,1.58c-5.93,2.33-11.05,3.63-14.12,3.37-12.84-.15-19.72,8.92-29.94,13.33C85.31,55.88,84.41,60,77.76,67,73.68,71.39,68.85,75,64,78.44,56.85,83.79,60.25,82.9,56.58,90c-3.21,6.78-11.46,5-14.89,12.81-2.07,4.86-3.24,10.66-8.62,13-11.16,5.13-5.74,9.79-5.14,18.38a8.68,8.68,0,0,1-1,4.44c-2.93,6.14-11.24,12.75-12.2,20.15-.69,5.24,1.87,9.5,1,14.49-.74,3-1.7,6-2.51,9.11a148.14,148.14,0,0,1,7.59-82.2l.06-.15h0c1.43-1.68,3-3.42,4.74-5.25C40.07,80.91,37.34,73.92,41.18,68.44c8.46-9.37,11.58-5.55,19.34-13.95,4.41-4.43,14.74-17.75,21.1-18.39s19.6-3.22,26.08-5.25c35.56-11.13,51.34-.45,58.46-.16A19.08,19.08,0,0,1,174.27,33C176.93,34.43,177.44,35.83,172.65,34.51Z"/>
        <path class="cls-5" d="M185.67,32.31c.21,1.82-.39,2.34-1.86-.25-.18-.32-.38-.69-.58-1.11-.73-1.46-4.73-5.93-9.65-10.68,1.69.57,3.39,1.18,5.08,1.81l2.52,1a1,1,0,0,1,.21.08,5.37,5.37,0,0,0,.35.45A18.54,18.54,0,0,1,185.67,32.31Z"/>
        <path class="cls-6" d="M267,176.5c.25,5.35,5.19,12.24,3.25,17.65-2.53,6.9-9.57,8.81-11.65,15.88-1.18,3.87-.26,7.79-.35,11.8a145.65,145.65,0,0,1-51.39,50.1l.16-.27c3.65-5.72,7.65-11.54,9.27-13.82,5.58-7.62,17.74-12.84,19.17-23.15.37-5.18.37-9.21.58-12.9q2.84-4,5.42-8.18a143.12,143.12,0,0,0,11.63-23.42,140.46,140.46,0,0,0,4.31-90.36,21.92,21.92,0,0,1,3.5,4.72c2.56,4.81,4.39,12.17,6.21,17.55,4.16,12.29,4.18,23.27,2,35.62C268.07,163.88,266.75,170.19,267,176.5Z"/>
        <path class="cls-5" d="M253.12,190.19a143.12,143.12,0,0,1-11.63,23.42q-2.58,4.21-5.42,8.18a43.34,43.34,0,0,1,5.2-19.19c5.42-11.72,8.59-17.77,4.67-30,0,0,0,0,0-.07-1.39-6.37,5-9.44,5.4-15.74.32-5.14-1.76-10.11-3.81-14.44-5.15-10.57-2.14-19.61-5.44-30.86-4.16-13.19-9.09-20.4-14.24-34.22-3.43-9.19-11.26-17.6-16.29-22.79-3.42-3.53-5.56-5.58-4.15-5.38s4.28,1.62,7.54,3.66c8.39,5.23,20.21,14.77,23.62,20.06,4.84,7.32,9.74,11.42,11,16.36,1.46,4.77,4.88,7.42,7.91,10.67h0A140.46,140.46,0,0,1,253.12,190.19Z"/>
        <path class="cls-6" d="M195,21.85q4.53,1.77,8.88,3.71c-1.65,2-3.25,4-4.58,5.69l-.11-.05c-2.32-1.22-4.68-2.39-7.1-3.51,0-2.22.11-4.59.26-6.84C193.23,21.17,194.12,21.51,195,21.85Z"/>
        <path class="cls-6" d="M221.59,34.74a99.86,99.86,0,0,0-12.11,2.39c-1-.61-1.95-1.22-2.95-1.82l-1-.59c2.39-1.39,5.29-2.87,8.37-4.3Q217.84,32.49,221.59,34.74Z"/>
        <path class="cls-6" d="M177.68,16.05a57.94,57.94,0,0,0,3.71,7.07,1,1,0,0,0-.21-.08l-2.52-1c-1.69-.63-3.39-1.24-5.08-1.81-2.5-2.41-5.23-4.89-7.89-7.09Q171.68,14.37,177.68,16.05Z"/>
        <path class="cls-5" d="M209.48,37.13c-2.12.54-4,1.07-5.54,1.48-3.17.86-4.86,1.24-4.17.32a9.51,9.51,0,0,1,1.69-1.57,39.06,39.06,0,0,1,4.06-2.64l1,.59C207.53,35.91,208.51,36.52,209.48,37.13Z"/>
        <path class="cls-6" d="M271.1,90.93c-.37-.11-.76-.23-1.14-.36-7-2.34-9.42-17.07-17.44-21.8-4.06-2.4-8.42-2.11-12.33-4q-3.19-4.2-6.78-8.05h0a114.45,114.45,0,0,0-14.26-12.88,117.37,117.37,0,0,1,11.47,3.68c4.7,1.44,11.3,4.9,19.18,9.68h0A105.74,105.74,0,0,1,271.1,90.93Z"/>
        <path class="cls-5" d="M240.19,64.79A12.85,12.85,0,0,1,238.8,64c-4.29-3.23-8.34-7.06-13.15-9.84-4-2.36-7.48-4.26-10.38-5.8-10.82-5.76-13.78-6.45-9.42-6.79a17.35,17.35,0,0,1,3.1.14,77.1,77.1,0,0,1,10.2,2.14,114.45,114.45,0,0,1,14.26,12.88h0Q237,60.6,240.19,64.79Z"/>
        <path class="cls-5" d="M179.81,33.15c-.26.24-1.13-.28-2.58-1.08a32.34,32.34,0,0,0-8.26-3.3c-6.58-1.65-13.37-3.6-16-4.41-9-2.88-23.11-9.6-33.35-7.68-11.51,2.95-12.71,3.46-22,2.22a107.51,107.51,0,0,1,43.24-8.36c8.31,3.84,15.34,8.6,23,9.89,6.92,1.17,14.95,8.23,16.08,11.42C180.13,32.43,180.11,32.88,179.81,33.15Z"/>
        <path class="cls-3" d="M215.58,51.69a3.08,3.08,0,0,1-.65,1c-3.26-2-6-3.43-7.54-3.66s.73,1.85,4.15,5.38a20.69,20.69,0,0,1-5.72.35,34.41,34.41,0,0,0-4.3-4.56c-1-.86-1.13.88-.76,3.9a57.33,57.33,0,0,1-7.26-1.92h0c-1-4.09-2-5.89-2.8-1.49,0,.15,0,.3-.07.45A56.12,56.12,0,0,1,181,46.38c1.64-1.82,1.92-2.92-.86-3a7,7,0,0,0-2.55.6,21.71,21.71,0,0,1-4-4c1.79-.94,2.5-1.68,1.27-2.15a17.36,17.36,0,0,0-2.67-.69,3.6,3.6,0,0,1,.1-2.14,3.26,3.26,0,0,1,.26-.53l.12,0c4.79,1.32,4.28-.08,1.62-1.55a9.85,9.85,0,0,1,3-.89c1.45.8,2.32,1.32,2.58,1.08s.32-.72.11-1.3a29.83,29.83,0,0,1,3.89.21c1.47,2.59,2.07,2.07,1.86.25a51.71,51.71,0,0,1,6.72,1.55c.5,3.9,1.69,5.54,4,1.58l.11-.18.45.17c1.56.6,3.06,1.25,4.48,1.93a9.51,9.51,0,0,0-1.69,1.57c-.69.92,1,.54,4.17-.32a47.08,47.08,0,0,1,5,3.11,17.35,17.35,0,0,0-3.1-.14c-4.36.34-1.4,1,9.42,6.79A4.16,4.16,0,0,1,215.58,51.69Z"/>
        <path class="cls-7" d="M203.94,38.61c-3.17.86-4.86,1.24-4.17.32a9.51,9.51,0,0,1,1.69-1.57C202.31,37.76,203.14,38.18,203.94,38.61Z"/>
        <path class="cls-7" d="M173.57,40a8,8,0,0,1-1.4-2.84,17.36,17.36,0,0,1,2.67.69C176.07,38.31,175.36,39.05,173.57,40Z"/>
        <path class="cls-7" d="M172.65,34.51l-.12,0A4.36,4.36,0,0,1,174.27,33C176.93,34.43,177.44,35.83,172.65,34.51Z"/>
        <path class="cls-7" d="M181,46.38A38.93,38.93,0,0,1,177.59,44a7,7,0,0,1,2.55-.6C182.92,43.46,182.64,44.56,181,46.38Z"/>
        <path class="cls-7" d="M177.23,32.07a18.42,18.42,0,0,1,2.69-.22c.21.58.19,1-.11,1.3S178.68,32.87,177.23,32.07Z"/>
        <path class="cls-7" d="M183.81,32.06c.6.06,1.22.15,1.86.25C185.88,34.13,185.28,34.65,183.81,32.06Z"/>
        <path class="cls-7" d="M193.5,52.21c-.87-.29-1.74-.6-2.62-.94l-.25-.1c0-.15.05-.3.07-.45C191.48,46.32,192.53,48.12,193.5,52.21Z"/>
        <path class="cls-8" d="M192.39,33.86c1.36.41,2.74.87,4.14,1.4l-.11.18C194.08,39.4,192.89,37.76,192.39,33.86Z"/>
        <path class="cls-7" d="M201.52,50.24a34.41,34.41,0,0,1,4.3,4.56,41.41,41.41,0,0,1-5.06-.66C200.39,51.12,200.52,49.38,201.52,50.24Z"/>
        <path class="cls-7" d="M215.27,48.37c-10.82-5.76-13.78-6.45-9.42-6.79a17.35,17.35,0,0,1,3.1.14C212.09,44,214.32,46.29,215.27,48.37Z"/>
        <path class="cls-7" d="M207.39,49.07c1.53.23,4.28,1.62,7.54,3.66a6.47,6.47,0,0,1-3.39,1.72C208.12,50.92,206,48.87,207.39,49.07Z"/>
      </g>
      <g>
        <g>
          <path class="cls-3" d="M370.25,176a134.62,134.62,0,0,1-6.74,26.56c-.4,1.08-.8,2.16-1.22,3.23-3.23,9.74-8.36,18.41-14.28,27-.62,1-1.26,1.92-1.91,2.86a98.55,98.55,0,0,1-13.69,15.52c-.85.82-1.71,1.63-2.57,2.43-4.31,4-8.84,7.8-13.3,11.51-.94.67-1.91,1.3-2.89,1.92-3.9,2.46-21.3,15.87-52.54,21.26-1,.17-2,.4-3,.6-3,.58-5.94,1.1-8.88,1.54-.87.13-23.53,3.65-66.31-10.79-11.24-3.79-20.93-10.86-30-18.1-1-.76-1.9-1.54-2.83-2.32-2.93-2.82-5.76-5.75-8.55-8.73-.69-.74-1.39-1.49-2.08-2.25s-1.29-1.49-2-2.23l-2-2.21c-.67-.79-1.32-1.58-2-2.39s-1.28-1.6-1.9-2.41c-2.33-2.69-4.63-5.43-6.79-8.25-.73-.94-1.43-1.9-2.13-2.86-1.79-2.17-15.87-30.62-17.18-42.12-.13-1.2-.45-2.37-.66-3.57a150.68,150.68,0,0,1-3.05-19.66c-.09-1.1-.16-2.2-.2-3.31a108.77,108.77,0,0,1,1-17.2c.16-1.16.33-2.31.52-3.51,0-.3.07-.59.11-.88Z"/>
          <path class="cls-9" d="M364.47,179.51c-.14.82-.3,1.62-.46,2.42q-.74,3.62-1.65,7.13c-.3,1.18-.62,2.34-1,3.5s-.61,2.25-1,3.38c-1.34,2.84-2.58,5.74-3.81,8.66l-1.23,2.92a113.48,113.48,0,0,1-16.81,29.17q-.84,1.13-1.71,2.25c-.57.76-1.15,1.5-1.73,2.25s-1.41,1.73-2.12,2.59c-2.15,2.58-4.38,5.1-6.69,7.59-.75.73-1.51,1.44-2.3,2.13-3.93,3.45-35.35,23.27-37.35,23.29-1,.24-2,.44-3,.61-5,.84-22.88,6.33-25.76,6.75-1.26.22-2.53.41-3.81.58a129.78,129.78,0,0,1-23.39,1c-.68,0-1.35-.07-2-.12-9.61-2.29-19.57-3.58-29.3-5.88-1.09-.26-2.16-.57-3.25-.81-8.61-1.92-23.18-6.74-32.79-14.71l-2.61-2c-.87-.67-1.74-1.34-2.61-2s-1.83-1.54-2.72-2.34c-3.56-3.18-6.93-6.64-10.28-10.11-.85-.84-1.67-1.69-2.48-2.55-1.62-1.71-3.18-3.47-4.71-5.27-.82-1-1.63-2-2.43-3a56,56,0,0,1-5.72-9.49c-.34-.7-.67-1.42-1-2.17a87.65,87.65,0,0,1-6.12-8.53c-.62-1-1.21-2-1.8-3-1.59-3.29-3.1-6.64-4.49-10q-.7-1.69-1.35-3.42c-1.69-5.63-3.69-11.2-5.3-16.81-.31-1.14-.6-2.27-.87-3.42-1.81-11-1.85-22.05-1.24-33,.07-1,.16-2.06.26-3.09q.26-2.76.65-5.53l256.64,36.86A25.45,25.45,0,0,1,364.47,179.51Z"/>
          <path class="cls-10" d="M353.43,199.14c-.48,1-1,2-1.53,3a68.43,68.43,0,0,1-5.67,8.55c-.54,1-1.08,2-1.63,3-1.79,3.31-3.59,6.64-5.34,10L338,226.18a69.34,69.34,0,0,1-3.42,6.1c-.61,1-1.25,1.94-1.91,2.89a77.1,77.1,0,0,1-11,11.94c-.81.71-1.63,1.42-2.46,2.1a16,16,0,0,1-4.31,3.12c-4.07,2.14-7.93,4.25-11.66,6.41-.93.54-10.12,10.56-33.56,16.5-.85.22-1.68.44-2.53.63s-1.69.33-2.55.44l-3.06.66a107.9,107.9,0,0,1-14.94,2.22c-1.08.08-2.16.14-3.24.19a145.1,145.1,0,0,1-22.59-1c-1.16-.14-2.3-.29-3.44-.46-10.15-1.51-20.12-4.31-28.73-9.56-.91-.49-1.81-1-2.72-1.43-6.32-3.2-12.92-5.67-19.27-8.45-.94-.53-1.83-1.09-2.69-1.67-7.76-5.24-13.53-12.81-19.49-20.22l-2.09-2.43c-2.08-2.42-4.15-4.83-6.21-7.18l-1.66-2.92c-.55-1-1.09-1.94-1.63-2.91s-1.07-1.94-1.6-2.95c-1.93-4.07-4-8.1-6.06-12.15-.5-1-1-2-1.47-3.09a16.68,16.68,0,0,1-1.61-5.24,81.66,81.66,0,0,0-2-9.94c-.29-1.06-.59-2.12-.93-3.18a54.43,54.43,0,0,1-4.36-11.7c-.24-1-.45-2-.63-3a12.89,12.89,0,0,1-.27-5.47c0-8.63,1.94-16.4,1.32-25.07l243.44,35C357.19,182.7,357.47,191.54,353.43,199.14Z"/>
          <path class="cls-11" d="M338.6,193.65a11.07,11.07,0,0,0-.53,2.57c-.85,4.25-1.75,8.38-4.44,11.91-.61.94-1.25,1.86-1.91,2.77-2,2.73-4.2,5.34-6.33,8-.55.8-1.1,1.6-1.63,2.42a50.89,50.89,0,0,0-4.23,7.72,12.61,12.61,0,0,1-5.24,5.87c-.9.71-1.82,1.4-2.76,2.08a125.93,125.93,0,0,0-10.41,8.89,27.67,27.67,0,0,1-2.45,2c-5.86,4.18-13,6.59-19.59,9.69-1,.53-2,1.05-3.05,1.54-2,1-4.11,1.89-6.23,2.68-1.09.28-2.18.51-3.28.7a53.72,53.72,0,0,1-6.77.77c-1.25.18-2.46.33-3.67.48-3.6.44-7.22.76-10.79,1.17l-3.08.4c-3.07.37-6.14.66-9.21.85-1.22,0-2.42-.15-3.61-.29a37.18,37.18,0,0,1-13.75-4.26q-1.5-.59-3-1.11a118.62,118.62,0,0,0-16.11-4.21l-2.8-.55a38.31,38.31,0,0,1-14.68-4.92c-.89-.5-1.75-1-2.59-1.58-.53-.34-1.17-.64-1.79-1s-1-1-1.62-1.31c-13.72-7.53-25.32-22.44-25.68-23.3-1.8-4.3-9-16.23-9.56-17.21-4.72-5.59-5.13-12.7-6.78-19.6-.24-1-.44-2-.62-3-.84-3.24-1.7-6.48-2.4-9.74-.23-1.08-.45-2.17-.64-3.26a23.72,23.72,0,0,1-.58-5.7c0-5.41,1.44-10.38,2.07-15.43.12-1,.21-2,.24-3.06a33.8,33.8,0,0,1-.32-5.19l215.8,31C343.43,178.58,341.38,187.76,338.6,193.65Z"/>
          <path class="cls-12" d="M331,173.49a15.42,15.42,0,0,1-.74,2.27c-1.52,3.7-4.33,7.05-6.29,10.37-.39.58-.78,1.17-1.13,1.77a14,14,0,0,0-.92,1.91c-1.54,4-.14,7.76-.05,11.66.13,1.32-.64,2.18-1.14,3.38a17.4,17.4,0,0,1-1.62,1.38c-3.95,2.92-8.79,4.31-10.78,8.77-.35.67-.69,1.34-1,2-1,2-2,4.12-3,6.24a18.62,18.62,0,0,1-1.57,1.63c-3.32,3.06-7.59,5.1-11.75,7.34-.65.52-1.29,1.06-1.93,1.61a65.23,65.23,0,0,0-5.68,5.53,6.12,6.12,0,0,1-2.89,1.87c-.74.34-1.5.64-2.28.91-3.9,1.34-8.25,1.93-12.42,3.1-.76.22-1.53.4-2.3.56l-2.26.59-1.9.47-1.9.44c-10,5.38-20.52,1.92-30.75,1.93-.85,0-1.67,0-2.49-.05-8.19-.35-16-2.83-23.73-5.93l-2.11-.86c-5.35-3.37-9.43-8.81-15.25-10.72l-1.89-.41a32.41,32.41,0,0,1-5.67-1.55,17,17,0,0,1-6.87-4.55,20,20,0,0,1-2.52-3.39c-2-2.78-2.22-6-3-9.4a12.2,12.2,0,0,0-7.69-8.87,13.89,13.89,0,0,1-2-1.06,7.86,7.86,0,0,1-1.67-1.43c-.79-5.55-3.62-10.14-5.77-15-.3-.69-.59-1.4-.85-2.12a3.65,3.65,0,0,1-.44-3.64c1.78-6.1,2.34-11.42,1.27-16.79-.16-.78-.35-1.55-.58-2.34a28.44,28.44,0,0,1-2.95-17.44l.06-.35,188.83,27.12A14.4,14.4,0,0,1,331,173.49Z"/>
          <path class="cls-11" d="M308.57,168.71a19.36,19.36,0,0,1-.79,1.89,30.49,30.49,0,0,0-2.46,5.68c-.29.84-.56,1.66-.89,2.46a16.19,16.19,0,0,1-13,11.23c-1.36.45-2.22,1.95-2.77,3.49a12.56,12.56,0,0,0-.27,2.37c-.11,3.95,1.16,7.9-.44,11.37a8.18,8.18,0,0,1-1.5,2.12,12.38,12.38,0,0,1-5.48,2.91c-.7.19-1.4.37-2.13.52-9-3.52-14.83,1.15-19,9a9.81,9.81,0,0,1-3.18,2.44,2.57,2.57,0,0,1-1.28.65,6.15,6.15,0,0,1-2.29-.07c-3.44-.37-6.55-1.91-9.71-3.28-.63-.27-1.27-.54-1.9-.79a4.5,4.5,0,0,0-4-.56c-6.06,2.75-10.75,5.87-15.56,4.85a6.61,6.61,0,0,1-2.07-.86c-1.45-1.68-2.8-3.75-4.23-5.69-.48-.64-1-1.28-1.48-1.87-3.69-4.53-10.36-3.22-15.67-2.36-2.52.31-4.65-2.13-6.27-5.08-.33-.59-.63-1.21-.91-1.82-2-8.35-7.6-16.62-16.72-18.57a5.8,5.8,0,0,1-2.29-1.22c-1-.87-1.11-2.19-1.24-3.51.14-5.49,2.55-11,1.28-15.69-.23-.69-.43-1.35-.61-2s-.37-1.41-.54-2.11c-1.79-4.73-.11-9.68-.33-14.9a3.47,3.47,0,0,0-.39-1.41,5.07,5.07,0,0,0-.32-.61L309,167.23A4,4,0,0,1,308.57,168.71Z"/>
          <path class="cls-12" d="M270.37,177.78c-1,.85-3.7,1-5.2,2.19-.61.24-1.2.47-1.76.73-3.36,1.54-5.44,4.4-5.42,9.65-.09.64-1.09.82-1.73.72a8.09,8.09,0,0,0-2.44-.57c-5.45,1.39-9.17-4.33-14.39-4.11a3.58,3.58,0,0,0-1.57.58,5.19,5.19,0,0,0-1.22,1.13c-1.93,1.82-3.25,6.5-5.24,4.59-4.76-5.22-8.39-7-15.15-7.36-2.27,0,1.64-4.63,1.27-7.89a2.68,2.68,0,0,0-.9-1.5c-3.63-4-9.21-1.28-13.07-3.78-3.26-2.09-1.9-7.08-3.94-10.24-.28-.5-.58-1-.89-1.47a18.61,18.61,0,0,1-1.78-3.18c-.72-2.17,0-4.14.9-6l73.65,10.58c-2.27,4.15-2.24,10-.83,14.76A1,1,0,0,1,270.37,177.78Z"/>
        </g>
        <g>
          <path class="cls-3" d="M369.87,176.32a136.39,136.39,0,0,1-6.74,26.56c-.4,1.08-.8,2.15-1.23,3.22-3.22,9.75-8.35,18.41-14.27,27-.62,1-1.26,1.93-1.91,2.86A98.18,98.18,0,0,1,332,251.52c-.84.81-1.7,1.62-2.56,2.42-4.31,4-8.84,7.8-13.3,11.52-1,.66-1.91,1.3-2.89,1.91-3.91,2.47-21.31,15.88-52.54,21.27-1,.17-2,.4-3,.6-3,.58-5.93,1.1-8.87,1.54-.88.13-23.53,3.64-66.31-10.79-11.24-3.79-20.93-10.87-30-18.11-1-.75-1.9-1.53-2.83-2.32-2.94-2.81-5.76-5.74-8.55-8.72l-2.08-2.25c-.64-.75-1.29-1.49-2-2.23s-1.32-1.48-2-2.22-1.32-1.58-2-2.38-1.28-1.6-1.91-2.42c-2.33-2.69-4.62-5.42-6.79-8.25-.72-.94-1.43-1.89-2.12-2.85-1.79-2.18-15.88-30.62-17.18-42.12-.14-1.2-.45-2.37-.67-3.58a152.24,152.24,0,0,1-3.05-19.65c-.08-1.1-.15-2.2-.19-3.31a107.72,107.72,0,0,1,1-17.21c.15-1.15.32-2.31.51-3.51,0-.29.07-.58.11-.88Z"/>
          <path class="cls-13" d="M364.09,179.79c-.15.82-.3,1.63-.47,2.43q-.72,3.6-1.64,7.13c-.31,1.17-.63,2.34-1,3.5s-.61,2.25-1,3.37c-1.34,2.84-2.58,5.75-3.81,8.66-.42,1-.82,2-1.24,2.92A113.22,113.22,0,0,1,338.21,237c-.56.74-1.13,1.5-1.71,2.25l-1.73,2.25c-.7.87-1.41,1.73-2.12,2.59-2.16,2.58-4.38,5.1-6.69,7.59-.75.73-1.51,1.44-2.3,2.13-3.93,3.45-35.35,23.26-37.36,23.28-1,.25-2,.44-3,.61-5,.85-22.88,6.34-25.76,6.75-1.26.22-2.53.41-3.81.58a128.87,128.87,0,0,1-23.39,1c-.68,0-1.35-.07-2-.12-9.6-2.29-19.56-3.58-29.29-5.89-1.09-.25-2.16-.56-3.25-.81-8.61-1.91-23.18-6.73-32.79-14.71-.88-.66-1.75-1.33-2.62-2l-2.6-2c-.93-.76-1.83-1.54-2.72-2.33-3.57-3.18-6.93-6.65-10.28-10.11-.85-.84-1.67-1.69-2.48-2.55-1.62-1.72-3.19-3.47-4.71-5.27q-1.23-1.47-2.43-3a56.61,56.61,0,0,1-5.73-9.48c-.33-.7-.66-1.42-1-2.17a85,85,0,0,1-6.12-8.54c-.62-1-1.22-2-1.8-3-1.59-3.29-3.1-6.64-4.49-10-.47-1.14-.92-2.27-1.36-3.42-1.68-5.63-3.68-11.2-5.29-16.82-.31-1.13-.61-2.27-.87-3.41-1.81-11-1.85-22.06-1.24-33,.07-1,.16-2,.25-3.08.18-1.84.39-3.69.65-5.54l256.65,36.86A25.45,25.45,0,0,1,364.09,179.79Z"/>
          <path class="cls-10" d="M353.05,199.43c-.48,1-1,2-1.54,3a69.84,69.84,0,0,1-5.66,8.55l-1.63,3c-1.8,3.32-3.59,6.65-5.34,10-.44.83-.88,1.67-1.31,2.52-1.06,2.11-2.19,4.14-3.42,6.1-.62,1-1.25,1.94-1.92,2.88a75.65,75.65,0,0,1-11,11.94c-.81.72-1.64,1.42-2.47,2.11a16.08,16.08,0,0,1-4.3,3.11c-4.07,2.14-7.93,4.26-11.66,6.42-.93.54-10.12,10.55-33.56,16.5-.85.21-1.69.44-2.53.62s-1.69.34-2.55.45l-3.06.66a109.66,109.66,0,0,1-14.94,2.22c-1.08.08-2.17.14-3.25.18a143.81,143.81,0,0,1-22.58-1l-3.44-.46c-10.16-1.51-20.12-4.31-28.73-9.56-.91-.5-1.81-1-2.72-1.43-6.33-3.2-12.92-5.67-19.27-8.46-.94-.53-1.83-1.08-2.69-1.66-7.76-5.24-13.54-12.81-19.49-20.23L142,234.47c-2.08-2.42-4.15-4.83-6.21-7.19-.56-1-1.11-1.94-1.66-2.91s-1.09-2-1.63-2.92-1.07-1.94-1.61-2.94c-1.93-4.07-4-8.1-6-12.16-.51-1-1-2-1.48-3.08a16.88,16.88,0,0,1-1.6-5.25,81.88,81.88,0,0,0-2-9.93c-.28-1.06-.59-2.12-.92-3.19a53.12,53.12,0,0,1-4.36-11.69c-.24-1-.46-2-.64-3a13,13,0,0,1-.26-5.46c0-8.64,1.94-16.4,1.31-25.07l243.45,35C356.81,183,357.08,191.83,353.05,199.43Z"/>
          <path class="cls-14" d="M338.22,193.94a11,11,0,0,0-.53,2.56c-.85,4.26-1.75,8.38-4.44,11.91-.61,1-1.25,1.87-1.92,2.78-2,2.73-4.19,5.34-6.32,8-.56.8-1.1,1.61-1.63,2.43a50,50,0,0,0-4.23,7.72,12.66,12.66,0,0,1-5.24,5.87c-.9.71-1.83,1.4-2.76,2.07a126.14,126.14,0,0,0-10.42,8.9,28,28,0,0,1-2.45,2c-5.85,4.18-13,6.59-19.58,9.69q-1.53.79-3.06,1.53c-2,1-4.11,1.9-6.23,2.69-1.08.27-2.18.51-3.28.7a55.24,55.24,0,0,1-6.76.77c-1.25.17-2.46.33-3.67.47-3.6.44-7.22.77-10.8,1.17-1,.15-2,.28-3.07.4-3.07.38-6.15.67-9.21.86-1.22-.06-2.42-.15-3.61-.29a37.56,37.56,0,0,1-13.75-4.26c-1-.4-2-.77-3-1.12a122,122,0,0,0-16.11-4.21l-2.8-.54A38.42,38.42,0,0,1,178.66,251c-.88-.51-1.75-1-2.58-1.59-.53-.33-1.18-.63-1.79-1s-1-1-1.62-1.3c-13.72-7.53-25.33-22.44-25.69-23.3-1.79-4.3-9-16.23-9.55-17.21-4.72-5.59-5.13-12.71-6.79-19.6-.23-1-.43-2-.61-3-.85-3.24-1.71-6.49-2.4-9.74-.24-1.09-.45-2.17-.64-3.26a23.86,23.86,0,0,1-.59-5.71c0-5.41,1.45-10.37,2.08-15.42.12-1,.21-2,.23-3.07a35,35,0,0,1-.31-5.18l215.8,31C343,178.87,341,188.05,338.22,193.94Z"/>
          <path class="cls-12" d="M330.62,173.78a15.35,15.35,0,0,1-.75,2.26c-1.52,3.71-4.32,7.06-6.29,10.38-.39.58-.77,1.16-1.12,1.77a14.47,14.47,0,0,0-.92,1.9c-1.55,4-.14,7.76-.05,11.67.13,1.31-.64,2.17-1.14,3.37a16.41,16.41,0,0,1-1.63,1.39c-3.94,2.92-8.78,4.3-10.77,8.77-.35.66-.7,1.33-1,2-1,2-2,4.12-3,6.25a20.13,20.13,0,0,1-1.58,1.62c-3.31,3.07-7.59,5.1-11.74,7.34-.65.53-1.29,1.07-1.93,1.62a60,60,0,0,0-5.68,5.53,6,6,0,0,1-2.89,1.86c-.74.34-1.51.64-2.28.91-3.9,1.35-8.25,1.93-12.42,3.1-.76.22-1.53.4-2.3.56s-1.51.41-2.26.6l-1.9.46c-.64.16-1.27.31-1.91.45-10,5.37-20.51,1.92-30.74,1.92-.85,0-1.68,0-2.49,0-8.19-.35-16-2.83-23.74-5.93l-2.1-.86c-5.35-3.37-9.43-8.82-15.25-10.72-.62-.15-1.25-.28-1.89-.41a32.52,32.52,0,0,1-5.68-1.55,17,17,0,0,1-6.86-4.55,21.06,21.06,0,0,1-2.53-3.39c-2-2.78-2.21-6-3-9.41a12.2,12.2,0,0,0-7.68-8.87,13.84,13.84,0,0,1-2-1,8.15,8.15,0,0,1-1.67-1.43c-.79-5.56-3.63-10.14-5.77-15-.3-.7-.6-1.4-.85-2.12a3.67,3.67,0,0,1-.44-3.65c1.78-6.09,2.34-11.41,1.26-16.79-.15-.77-.34-1.55-.57-2.33A28.46,28.46,0,0,1,142.06,144l.06-.34L331,170.73A15.83,15.83,0,0,1,330.62,173.78Z"/>
          <path class="cls-15" d="M308.18,169a17,17,0,0,1-.79,1.88,31.21,31.21,0,0,0-2.45,5.69c-.29.84-.57,1.66-.89,2.46a16.18,16.18,0,0,1-13,11.22c-1.36.46-2.23,1.95-2.77,3.5a12.55,12.55,0,0,0-.27,2.36c-.11,3.95,1.16,7.9-.44,11.37a8.49,8.49,0,0,1-1.5,2.13,12.25,12.25,0,0,1-5.49,2.9c-.69.2-1.4.37-2.12.53-9-3.52-14.84,1.15-19,9a9.83,9.83,0,0,1-3.18,2.45,2.61,2.61,0,0,1-1.28.65,6,6,0,0,1-2.29-.08c-3.44-.36-6.56-1.9-9.71-3.27-.64-.27-1.27-.54-1.91-.79a4.45,4.45,0,0,0-4-.57c-6.07,2.76-10.76,5.88-15.57,4.86a6.37,6.37,0,0,1-2.06-.87c-1.45-1.68-2.8-3.75-4.23-5.68-.48-.65-1-1.28-1.49-1.87-3.69-4.53-10.36-3.22-15.67-2.37-2.52.32-4.64-2.12-6.26-5.08-.33-.59-.64-1.2-.92-1.81-2-8.36-7.59-16.62-16.71-18.58a5.79,5.79,0,0,1-2.29-1.21c-1-.88-1.11-2.19-1.24-3.51.14-5.49,2.54-11,1.28-15.7-.23-.68-.43-1.35-.61-2s-.38-1.41-.54-2.12c-1.8-4.73-.11-9.67-.34-14.89a3.37,3.37,0,0,0-.38-1.41c-.1-.21-.21-.41-.33-.61l138.81,19.93A3.8,3.8,0,0,1,308.18,169Z"/>
          <path class="cls-12" d="M270,178.06c-1,.86-3.71,1-5.2,2.2-.61.24-1.2.47-1.76.73-3.36,1.54-5.45,4.39-5.42,9.65-.09.63-1.09.81-1.73.71a8.44,8.44,0,0,0-2.44-.56c-5.45,1.38-9.17-4.34-14.39-4.11a3.74,3.74,0,0,0-1.58.57,5.61,5.61,0,0,0-1.21,1.13c-1.93,1.83-3.25,6.5-5.24,4.6-4.76-5.22-8.39-7-15.15-7.36-2.27,0,1.63-4.63,1.27-7.89a2.7,2.7,0,0,0-.91-1.5c-3.62-4-9.2-1.28-13.06-3.78-3.26-2.09-1.9-7.08-3.95-10.24-.27-.5-.58-1-.89-1.48a17.83,17.83,0,0,1-1.77-3.17c-.72-2.18,0-4.15.9-6l73.64,10.57c-2.26,4.16-2.24,10-.82,14.77A1,1,0,0,1,270,178.06Z"/>
        </g>
        <g>
          <path class="cls-14" d="M173.54,215.87a30.73,30.73,0,0,0,5.81-11.28c.15-.71.16-1.2,0-1.4l0,0,0,0c-.81-1-9.24,1-13.44,3.73a7.79,7.79,0,0,0-2.86,3,5.66,5.66,0,0,0,1.07,6.27l0,0a.08.08,0,0,1,0,0C166.22,218.66,169.93,219.87,173.54,215.87Z"/>
          <g>
            <path class="cls-16" d="M164.14,214.84l0,0,0,0a5.14,5.14,0,0,1-.88-5.82A7.88,7.88,0,0,1,166,206.1c4-2.63,11.94-4.61,12.68-3.74l0,0,0,0c.15.18.14.64,0,1.3A30.39,30.39,0,0,1,173,214.36C169.53,218.16,166.07,217.1,164.14,214.84Z"/>
            <path class="cls-17" d="M165.13,213.12l0,0,0,0a7,7,0,0,1-1.06-1.58,3.27,3.27,0,0,1-.28-2.25,5.84,5.84,0,0,1,2.51-2.76c3.7-2.57,11.17-4.61,11.9-3.8l0,0h0l0,0c.16.17.16.61,0,1.24a28.33,28.33,0,0,1-4.89,8.77C170.16,216.25,166.94,215.24,165.13,213.12Z"/>
            <path class="cls-18" d="M169.06,207.3c-2.17,1.45-2.37,2.22-2.79,3.58-.27.87-1.37,1.06-1.73.42a3,3,0,0,1-.23-2.05,5.56,5.56,0,0,1,2.33-2.55c3.43-2.4,10.32-4.34,11-3.61a0,0,0,0,1,0,0c.27.3-.67.76-1.42,1A25.64,25.64,0,0,0,169.06,207.3Z"/>
          </g>
        </g>
        <g>
          <path class="cls-14" d="M206.22,207a30.71,30.71,0,0,0,2.69-12.4c0-.72-.16-1.2-.38-1.35l0,0,0,0c-1-.7-8.67,3.36-12,7.08a7.86,7.86,0,0,0-2,3.64,5.66,5.66,0,0,0,2.66,5.78l0,0,0,0C199.86,211.59,203.76,211.8,206.22,207Z"/>
          <g>
            <path class="cls-16" d="M196.87,208.44l0,0,0,0a5.14,5.14,0,0,1-2.35-5.4,7.75,7.75,0,0,1,1.91-3.46c3.18-3.57,10.34-7.54,11.28-6.9l0,0,0,0c.19.14.3.59.32,1.26a30.12,30.12,0,0,1-2.73,11.74C202.93,210.25,199.32,210.13,196.87,208.44Z"/>
            <path class="cls-17" d="M197.38,206.52l0,0,0,0a7.11,7.11,0,0,1-1.43-1.26,3.17,3.17,0,0,1-.85-2.09,5.78,5.78,0,0,1,1.71-3.32c2.9-3.44,9.6-7.34,10.51-6.75l0,0h0l0,0c.19.12.3.55.35,1.19a28.23,28.23,0,0,1-2.45,9.74C203.05,208.24,199.68,208.1,197.38,206.52Z"/>
            <path class="cls-18" d="M199.67,199.89c-1.72,2-1.71,2.74-1.77,4.18,0,.9-1.05,1.37-1.56.85a2.93,2.93,0,0,1-.75-1.92,5.46,5.46,0,0,1,1.59-3.07c2.69-3.21,8.84-6.86,9.67-6.33l0,0c.33.22-.46.9-1.11,1.35A25.72,25.72,0,0,0,199.67,199.89Z"/>
          </g>
        </g>
        <g>
          <path class="cls-14" d="M208.57,239.77a30.89,30.89,0,0,0-.61-12.68c-.22-.68-.47-1.11-.71-1.2h-.05l0,0c-1.17-.42-7.5,5.48-9.77,9.95a7.67,7.67,0,0,0-1,4,5.64,5.64,0,0,0,4.06,4.9l0,0h.05C203.62,245.85,207.44,245,208.57,239.77Z"/>
          <g>
            <path class="cls-16" d="M199.91,243.58h0l0,0a5.13,5.13,0,0,1-3.67-4.6,7.69,7.69,0,0,1,1-3.84c2.14-4.27,8-10,9.11-9.59l0,0,0,0c.23.07.45.48.64,1.13a30.06,30.06,0,0,1,.4,12.05C206.23,243.76,202.71,244.58,199.91,243.58Z"/>
            <path class="cls-17" d="M199.91,241.59h0l0,0a7,7,0,0,1-1.71-.84,3.21,3.21,0,0,1-1.36-1.8,5.83,5.83,0,0,1,.79-3.65c1.91-4.08,7.37-9.58,8.41-9.24H206c.22.08.44.46.65,1.06a28.11,28.11,0,0,1,.15,10C205.83,241.79,202.54,242.52,199.91,241.59Z"/>
            <path class="cls-18" d="M200.4,234.59c-1.16,2.34-.94,3.1-.62,4.5.2.88-.66,1.6-1.29,1.22a2.88,2.88,0,0,1-1.22-1.66,5.41,5.41,0,0,1,.74-3.37c1.77-3.79,6.76-8.92,7.7-8.61,0,0,0,0,0,0,.38.12-.2,1-.72,1.59A26.36,26.36,0,0,0,200.4,234.59Z"/>
          </g>
        </g>
        <g>
          <path class="cls-14" d="M236,221a31,31,0,0,0-3.88-12.09c-.39-.6-.74-1-1-1h-.1c-1.24-.1-5.83,7.24-6.86,12.14a7.77,7.77,0,0,0,.09,4.14,5.66,5.66,0,0,0,5.19,3.68h.1C232.82,228.1,236.3,226.33,236,221Z"/>
          <g>
            <path class="cls-16" d="M228.65,226.87h-.1a5.13,5.13,0,0,1-4.73-3.5,7.74,7.74,0,0,1-.07-4c1-4.68,5.18-11.7,6.31-11.61h.1c.23,0,.55.35.91.93a30.09,30.09,0,0,1,3.5,11.53C234.8,225.41,231.61,227.11,228.65,226.87Z"/>
            <path class="cls-17" d="M228.13,225H228a6.68,6.68,0,0,1-1.86-.37,3.24,3.24,0,0,1-1.79-1.39,5.8,5.8,0,0,1-.18-3.72c.8-4.44,4.65-11.16,5.74-11.11h0s0,0,0,0c.23,0,.54.32.9.85a28.26,28.26,0,0,1,2.75,9.66C233.9,223.61,230.91,225.17,228.13,225Z"/>
            <path class="cls-18" d="M226.79,218.06c-.51,2.56-.1,3.24.56,4.51.43.8-.21,1.72-.92,1.51a2.89,2.89,0,0,1-1.61-1.28,5.44,5.44,0,0,1-.16-3.46c.73-4.11,4.22-10.36,5.21-10.31h0c.39,0,0,1-.29,1.73A26,26,0,0,0,226.79,218.06Z"/>
          </g>
        </g>
        <g>
          <path class="cls-14" d="M254,244.4a30.75,30.75,0,0,0-6.87-10.68c-.53-.48-1-.74-1.22-.69h-.1c-1.22.23-3.75,8.5-3.48,13.5a7.76,7.76,0,0,0,1.16,4,5.64,5.64,0,0,0,6,2.21h.09C252.79,252.13,255.7,249.52,254,244.4Z"/>
          <g>
            <path class="cls-16" d="M248.45,252h-.09a5.14,5.14,0,0,1-5.48-2.15,7.81,7.81,0,0,1-1.1-3.8c-.28-4.78,2-12.65,3.1-12.86h.05l0,0c.23,0,.63.21,1.12.67a30.18,30.18,0,0,1,6.37,10.23C254,249,251.37,251.48,248.45,252Z"/>
            <path class="cls-17" d="M247.45,250.3h-.08a7.1,7.1,0,0,1-1.9.13,3.27,3.27,0,0,1-2.09-.88,5.81,5.81,0,0,1-1.14-3.55c-.38-4.49,1.6-12,2.67-12.21H245c.22-.05.6.17,1.08.59a28.28,28.28,0,0,1,5.16,8.62C252.68,247.51,250.19,249.79,247.45,250.3Z"/>
            <path class="cls-18" d="M244.38,244c.16,2.6.73,3.16,1.7,4.21.62.66.24,1.71-.5,1.7a2.91,2.91,0,0,1-1.89-.82,5.5,5.5,0,0,1-1-3.3c-.37-4.16,1.4-11.1,2.36-11.31h0c.39-.08.31,1,.17,1.74A25.76,25.76,0,0,0,244.38,244Z"/>
          </g>
        </g>
        <g>
          <path class="cls-14" d="M268.32,211.08a31,31,0,0,0-9.4-8.54c-.64-.32-1.12-.45-1.36-.34l0,0,0,0c-1.12.54-1.42,9.19.13,13.95a7.88,7.88,0,0,0,2.15,3.54,5.67,5.67,0,0,0,6.34.59l0,0,.05,0C269.11,218.88,271.24,215.6,268.32,211.08Z"/>
          <g>
            <path class="cls-16" d="M264.89,219.89l0,0-.05,0a5.14,5.14,0,0,1-5.85-.66,7.9,7.9,0,0,1-2-3.38c-1.5-4.54-1.36-12.73-.33-13.22l0,0,0,0c.22-.1.66,0,1.26.35a30.09,30.09,0,0,1,8.79,8.24C269.48,215.55,267.57,218.62,264.89,219.89Z"/>
            <path class="cls-17" d="M263.48,218.49l0,0,0,0a7.49,7.49,0,0,1-1.8.61,3.26,3.26,0,0,1-2.24-.31,5.81,5.81,0,0,1-2-3.14c-1.53-4.24-1.56-12-.59-12.48l0,0h0l0,0c.2-.1.63,0,1.21.29a28.4,28.4,0,0,1,7.2,7C267.8,214.44,266,217.29,263.48,218.49Z"/>
            <path class="cls-18" d="M258.88,213.19c.83,2.47,1.52,2.86,2.74,3.62.76.49.67,1.6-.05,1.78a2.9,2.9,0,0,1-2-.31,5.47,5.47,0,0,1-1.86-2.91c-1.43-3.93-1.52-11.09-.64-11.54h0c.36-.17.55.85.62,1.64A25.81,25.81,0,0,0,258.88,213.19Z"/>
          </g>
        </g>
        <g>
          <path class="cls-14" d="M290.05,225.51a30.69,30.69,0,0,0-11.29-5.81c-.7-.15-1.2-.16-1.39,0a.08.08,0,0,0,0,0l0,0c-1,.81,1,9.24,3.73,13.44a7.84,7.84,0,0,0,3,2.86,5.68,5.68,0,0,0,6.28-1.07l0,0,0,0C292.84,232.83,294.05,229.12,290.05,225.51Z"/>
          <g>
            <path class="cls-16" d="M289,234.91l0,0,0,0a5.14,5.14,0,0,1-5.82.88,7.88,7.88,0,0,1-2.85-2.75c-2.63-4-4.61-11.94-3.74-12.68l0,0,0,0c.18-.15.64-.14,1.3,0a30.39,30.39,0,0,1,10.63,5.68C292.33,229.52,291.28,233,289,234.91Z"/>
            <path class="cls-17" d="M287.3,233.92l0,0,0,0a7,7,0,0,1-1.58,1.06,3.27,3.27,0,0,1-2.25.28,5.84,5.84,0,0,1-2.76-2.51c-2.57-3.7-4.61-11.17-3.8-11.9l0,0h0l0,0c.17-.16.61-.16,1.24,0a28.44,28.44,0,0,1,8.77,4.89C290.43,228.89,289.42,232.11,287.3,233.92Z"/>
            <path class="cls-18" d="M281.48,230c1.44,2.17,2.21,2.37,3.58,2.79.87.27,1.06,1.37.42,1.73a2.92,2.92,0,0,1-2.05.23,5.51,5.51,0,0,1-2.55-2.33c-2.4-3.43-4.34-10.32-3.61-11h0c.3-.27.75.67,1,1.42A26,26,0,0,0,281.48,230Z"/>
          </g>
        </g>
        <g>
          <path class="cls-14" d="M310.46,201.78a30.71,30.71,0,0,0-12.4-2.69c-.72,0-1.21.16-1.35.38l0,0,0,0c-.7,1,3.36,8.67,7.08,12a7.86,7.86,0,0,0,3.64,2,5.66,5.66,0,0,0,5.78-2.66l0,0,0,0C315.05,208.14,315.26,204.24,310.46,201.78Z"/>
          <g>
            <path class="cls-16" d="M311.9,211.13l0,0,0,0a5.14,5.14,0,0,1-5.4,2.35,7.75,7.75,0,0,1-3.46-1.91c-3.57-3.18-7.55-10.34-6.9-11.28l0,0,0,0c.14-.19.59-.3,1.26-.32a30.12,30.12,0,0,1,11.74,2.73C313.71,205.07,313.58,208.68,311.9,211.13Z"/>
            <path class="cls-17" d="M310,210.62l0,0,0,0a7.11,7.11,0,0,1-1.26,1.43,3.19,3.19,0,0,1-2.09.85,5.78,5.78,0,0,1-3.32-1.71c-3.44-2.9-7.34-9.6-6.75-10.51v0h0a.08.08,0,0,1,0,0c.12-.19.55-.3,1.19-.35a28.12,28.12,0,0,1,9.73,2.45C311.7,205,311.56,208.32,310,210.62Z"/>
            <path class="cls-18" d="M303.34,208.33c2,1.72,2.75,1.71,4.18,1.77.91,0,1.38,1.05.85,1.56a2.91,2.91,0,0,1-1.92.75,5.44,5.44,0,0,1-3.06-1.59c-3.21-2.69-6.86-8.84-6.33-9.67l0,0c.22-.33.9.45,1.35,1.11A25.89,25.89,0,0,0,303.34,208.33Z"/>
          </g>
        </g>
        <g>
          <path class="cls-14" d="M309.74,174.66a30.93,30.93,0,0,0-12.69.61c-.68.23-1.11.47-1.2.71a.43.43,0,0,1,0,.05s0,0,0,.05c-.42,1.17,5.48,7.5,9.95,9.77a7.79,7.79,0,0,0,4,1,5.65,5.65,0,0,0,4.9-4.07s0,0,0-.05v0C315.81,179.61,315,175.79,309.74,174.66Z"/>
          <g>
            <path class="cls-16" d="M313.54,183.32s0,0,0,0l0,0a5.15,5.15,0,0,1-4.6,3.67,7.85,7.85,0,0,1-3.84-1c-4.27-2.14-10-8-9.58-9.1,0,0,0,0,0-.05a.06.06,0,0,1,0,0c.08-.23.49-.44,1.13-.64a30.24,30.24,0,0,1,12.05-.4C313.72,177,314.54,180.52,313.54,183.32Z"/>
            <path class="cls-17" d="M311.55,183.32s0,0,0,0l0,0a7,7,0,0,1-.84,1.71,3.17,3.17,0,0,1-1.8,1.36,5.7,5.7,0,0,1-3.65-.79c-4.08-1.91-9.58-7.37-9.24-8.41v0a.06.06,0,0,1,0,0c.07-.22.45-.44,1.05-.65a28.11,28.11,0,0,1,10-.15C311.75,177.4,312.49,180.69,311.55,183.32Z"/>
            <path class="cls-18" d="M304.56,182.83c2.33,1.16,3.09.94,4.49.63.89-.21,1.6.65,1.22,1.28a2.91,2.91,0,0,1-1.65,1.23,5.44,5.44,0,0,1-3.38-.75c-3.79-1.76-8.91-6.76-8.61-7.7,0,0,0,0,0,0,.12-.38,1,.2,1.6.72A25.69,25.69,0,0,0,304.56,182.83Z"/>
          </g>
        </g>
        <g>
          <path class="cls-14" d="M149,172.79a30.88,30.88,0,0,0,10.68-6.86c.48-.54.74-1,.69-1.22,0,0,0,0,0-.05v0c-.23-1.23-8.5-3.76-13.51-3.49a7.85,7.85,0,0,0-4,1.16,5.64,5.64,0,0,0-2.21,6,.43.43,0,0,1,0,.05.11.11,0,0,0,0,0C141.22,171.54,143.83,174.45,149,172.79Z"/>
          <g>
            <path class="cls-16" d="M141.33,167.2s0,0,0,0a.43.43,0,0,0,0,0,5.14,5.14,0,0,1,2.15-5.48,7.71,7.71,0,0,1,3.8-1.09c4.78-.29,12.65,2,12.86,3.09v.05s0,0,0,0c0,.24-.21.63-.67,1.12a30,30,0,0,1-10.23,6.37C144.34,172.76,141.87,170.12,141.33,167.2Z"/>
            <path class="cls-17" d="M143.05,166.2a.06.06,0,0,0,0,0v0a7.54,7.54,0,0,1-.12-1.9,3.27,3.27,0,0,1,.88-2.09,5.78,5.78,0,0,1,3.55-1.13c4.49-.38,12,1.59,12.21,2.66a0,0,0,0,1,0,0v0s0,0,0,0c.05.22-.17.6-.59,1.09a28.46,28.46,0,0,1-8.62,5.15C145.84,171.43,143.56,169,143.05,166.2Z"/>
            <path class="cls-18" d="M149.36,163.13c-2.6.16-3.16.73-4.21,1.71-.66.61-1.71.23-1.7-.5a3,3,0,0,1,.82-1.9,5.5,5.5,0,0,1,3.3-1c4.16-.36,11.1,1.4,11.31,2.37v0c.08.39-1,.32-1.74.17A26,26,0,0,0,149.36,163.13Z"/>
          </g>
        </g>
        <g>
          <path class="cls-14" d="M175.34,186.33a30.9,30.9,0,0,0,8.54-9.39c.32-.65.45-1.13.34-1.36a.08.08,0,0,0,0,0s0,0,0,0c-.54-1.12-9.19-1.43-14,.12a7.8,7.8,0,0,0-3.54,2.16,5.65,5.65,0,0,0-.59,6.33s0,0,0,.05a.08.08,0,0,1,0,0C167.54,187.13,170.82,189.26,175.34,186.33Z"/>
          <g>
            <path class="cls-16" d="M166.53,182.9a.05.05,0,0,1,0,0,.08.08,0,0,1,0,0,5.12,5.12,0,0,1,.66-5.85,7.71,7.71,0,0,1,3.38-2c4.54-1.51,12.73-1.36,13.22-.34l0,0a.05.05,0,0,1,0,0c.1.21,0,.66-.35,1.25a30.11,30.11,0,0,1-8.24,8.8C170.87,187.5,167.8,185.59,166.53,182.9Z"/>
            <path class="cls-17" d="M167.93,181.5l0,0,0,0a7.42,7.42,0,0,1-.61-1.81,3.27,3.27,0,0,1,.31-2.24,5.88,5.88,0,0,1,3.14-2c4.24-1.52,12-1.55,12.48-.58l0,0v0a.05.05,0,0,1,0,0c.11.2,0,.63-.28,1.2a28.27,28.27,0,0,1-7,7.21C172,185.82,169.13,184,167.93,181.5Z"/>
            <path class="cls-18" d="M173.23,176.9c-2.47.83-2.86,1.52-3.62,2.73-.49.77-1.6.67-1.78,0a2.89,2.89,0,0,1,.31-2,5.41,5.41,0,0,1,2.91-1.86c3.93-1.43,11.09-1.53,11.54-.64v0c.18.35-.84.55-1.63.62A25.81,25.81,0,0,0,173.23,176.9Z"/>
          </g>
        </g>
      </g>
    </g>
  </g>
</svg>
