<svg id="Layer_1" data-name="Layer 1" xmlns="http://www.w3.org/2000/svg" width="369.08" height="204.56" viewBox="0 0 369.08 204.56">
  <defs>
    <style>
      .cls-1 {
        opacity: 0.5;
      }

      .cls-2 {
        fill: #ff0;
      }

      .cls-3 {
        fill: #d84e0b;
      }

      .cls-4 {
        fill: #be450a;
      }

      .cls-5 {
        fill: #a13a09;
      }

      .cls-6 {
        fill: #903408;
      }

      .cls-7 {
        fill: #fea;
      }

      .cls-8 {
        fill: #ffe385;
      }

      .cls-9 {
        fill: #fff1bf;
      }

      .cls-10 {
        fill: #ffcc5c;
      }

      .cls-11 {
        fill: #fff5d2;
      }

      .cls-12 {
        fill: #ffeaa0;
      }

      .cls-13 {
        fill: #ffe793;
      }

      .cls-14 {
        fill: #ffe589;
      }

      .cls-15 {
        fill: #ffe179;
      }

      .cls-16 {
        fill: #ffeccb;
      }

      .cls-17 {
        fill: #ffefd1;
      }

      .cls-18 {
        fill: #ffe9c5;
      }

      .cls-19 {
        fill: #923509;
      }

      .cls-20 {
        fill: #7c2d07;
      }

      .cls-21 {
        fill: #aa3e09;
      }

      .cls-22 {
        fill: #8f3408;
      }

      .cls-23 {
        fill: #873108;
      }

      .cls-24 {
        fill: #7a2c07;
      }

      .cls-25 {
        fill: #bf450a;
      }

      .cls-26 {
        fill: #dd500c;
      }

      .cls-27 {
        fill: #802e08;
      }

      .cls-28 {
        fill: #ffc94a;
      }

      .cls-29 {
        fill: #612a0e;
      }

      .cls-30 {
        fill: #84420c;
      }

      .cls-31 {
        fill: #532908;
      }

      .cls-32 {
        fill: #a7530f;
      }

      .cls-33 {
        fill: #6d700e;
      }

      .cls-34 {
        fill: #898c11;
      }

      .cls-35 {
        fill: #dac152;
      }

      .cls-36 {
        fill: #f4f1ae;
      }
    </style>
  </defs>
  <g>
    <path class="cls-1" d="M182.71,204.56c-39.44,0-77.88-10.67-108.24-30.06C41.1,153.2,19.23,123,11.1,86.93a23.24,23.24,0,0,1-2.26-11.7A13.73,13.73,0,0,1,9,73.32,14,14,0,0,1,11,66.7c.21-.48.44-1,.69-1.42C25.62,38.76,99.86,14.9,178.21,11.51a21.87,21.87,0,0,1,4.34-1.58,41.36,41.36,0,0,1,9.83-1.15A64.57,64.57,0,0,1,208.8,11.2c67.9,1.61,133.37,18.72,152.82,40,5.6,6.15,7.17,12.07,7.31,16.49a21.18,21.18,0,0,1-1.06,9.19l0,.1a14,14,0,0,1-.53,2.64l-.19.57A111.23,111.23,0,0,1,362,103.65l-.15.49c-.05.13-.13.34-.19.52-.57,1.66-1.21,3.36-1.88,5l-.28.7c-.68,1.68-1.45,3.43-2.28,5.2l-.44.93c-.88,1.84-1.72,3.49-2.57,5.08l-.31.55c-.9,1.65-1.82,3.25-2.78,4.83l-.29.47c-.92,1.49-1.91,3-3,4.67-.13.21-.26.4-.39.59l-.36.51.11-.16c-.95,1.37-1.85,2.62-2.77,3.85l-1,1.31c-.71.91-1.4,1.79-2.11,2.66l-1.6,1.94c-.58.68-1.13,1.31-1.69,1.94l-.69.79L336,147l-1.91,2-.72.74c-.7.72-1.39,1.42-2.09,2.1l-2.66,2.57-2.1,1.94-.64.57c-1.15,1-2.26,2-3.39,2.93l-1.16,1c-1.12.93-2.17,1.77-3.23,2.6L315,165.86l-2.06,1.5c-1.1.8-2.19,1.56-3.29,2.31l-1.77,1.21-2.27,1.48-1.64,1c-1,.62-2,1.24-3,1.85l-1.39.83c-1.56.92-3,1.73-4.41,2.52l-.39.21c-.86.48-1.72.94-2.59,1.4l-3.26,1.68c-.94.48-1.95,1-3,1.47l-2.29,1.09s-2.16,1-2.86,1.31l-1,.45-2.17.95-2.48,1.05c-1.15.47-2.16.88-3.19,1.28l-2.1.81c-1,.38-1.91.73-2.85,1.07l-2.35.83c-1.51.53-3,1-4.43,1.51l-2.29.72c-.87.28-1.78.56-2.68.83l-2.38.7-2.58.72-3.92-13.5,3.74,13.55-.93.25-2.91.75-2.76.68-2.64.62-2.53.55c-1.24.26-2.54.53-3.84.78l-1.21.23-1.82.33-2.61.45-1.51.24c-1.33.21-2.64.41-4,.59l-2.49.32q-1.46.19-2.94.36l-2.77.29-3.3.29-2.43.18-2.28.15-2.36.12-2.65.1L201,204c-1.41,0-2.82.07-4.23.07C192.11,204.41,187.38,204.56,182.71,204.56Z"/>
    <path class="cls-2" d="M173.92,195.78c-39.44,0-77.88-10.67-108.24-30.06-33.36-21.3-55.24-51.55-63.36-87.57A23.26,23.26,0,0,1,.06,66.45a15.31,15.31,0,0,1,.12-1.91,14.08,14.08,0,0,1,2.07-6.63c.21-.47.44-.95.69-1.41C16.84,30,91.08,6.11,169.43,2.73a21.26,21.26,0,0,1,4.34-1.58A41.36,41.36,0,0,1,183.6,0,65.18,65.18,0,0,1,200,2.41c67.9,1.62,133.37,18.73,152.82,40,5.6,6.15,7.17,12.07,7.31,16.49a21.33,21.33,0,0,1-1.06,9.19l0,.1a14.22,14.22,0,0,1-.54,2.64q-.09.3-.18.57a111.23,111.23,0,0,1-5.08,23.43c-.05.16-.1.33-.16.49s-.12.34-.18.52c-.57,1.65-1.21,3.36-1.88,5.05l-.28.7c-.68,1.68-1.45,3.43-2.28,5.19l-.44.94c-.88,1.84-1.72,3.49-2.58,5.08l-.3.54q-1.35,2.48-2.79,4.84l-.28.47c-.92,1.49-1.91,3-3,4.67-.13.21-.26.4-.39.59l-.36.51.11-.16c-1,1.37-1.85,2.62-2.77,3.85l-1,1.31c-.71.91-1.41,1.79-2.12,2.66l-1.59,1.94c-.58.68-1.13,1.31-1.69,1.94l-.69.78c-.44.5-.88,1-1.33,1.46l-1.9,2-.72.74c-.7.72-1.39,1.42-2.09,2.1l-2.66,2.57c-.64.6-1.37,1.27-2.11,1.94l-.63.57c-1.15,1-2.26,2-3.39,2.93l-1.16,1c-1.12.93-2.17,1.77-3.23,2.6l-3.14,2.39-2.06,1.5c-1.1.8-2.19,1.56-3.29,2.31l-1.77,1.21-2.27,1.48-1.64,1c-1,.62-2,1.24-3,1.85l-1.39.83c-1.56.91-3,1.73-4.41,2.52L286,170c-.86.48-1.72.94-2.59,1.4l-3.26,1.68c-.94.48-2,1-3,1.47l-2.29,1.09s-2.16,1-2.86,1.31l-1,.45-2.17.95-2.48,1.05-3.19,1.28-2.11.81c-1,.38-1.91.73-2.85,1.07l-2.34.83c-1.51.53-3,1-4.43,1.51l-2.29.72c-.87.28-1.78.56-2.68.83l-2.38.7-2.58.72-3.93-13.5L241.29,188l-.93.25-2.91.75-2.77.68-2.64.62-2.52.55c-1.24.26-2.54.53-3.84.78l-1.22.23-1.81.33-2.61.44-1.51.25c-1.33.21-2.64.41-4,.59l-2.49.32c-1,.13-2,.25-2.94.35l-2.77.3-3.31.29-2.42.18-2.28.15-2.37.12-2.64.1-1.14,0c-1.41,0-2.82.06-4.23.07C183.33,195.63,178.6,195.78,173.92,195.78Z"/>
    <g>
      <path class="cls-3" d="M346.1,60.15C344.35,84.38,261.16,99.07,176,100.23,87.16,101.43,2.26,88,15.38,63,25,44.73,91.6,18.82,177.13,16.5,268.67,14,347.51,40.53,346.1,60.15Z"/>
      <path class="cls-4" d="M344.56,57.68c.83-2.48-38.45-27.78-110.16-35.15a414.94,414.94,0,0,0-97.67.93C83,30.55,46.78,45.61,30.63,54,5,67.4,17.55,69.33,14.79,65.07l4.5,4.49s161.22-50.65,322.19-7.21Z"/>
      <path class="cls-5" d="M178.48,25.67C98.83,28.7,41.09,48.6,16.21,67.14c19.2,20.31,88.88,34.05,159.76,33.09,73.71-1,150.24-17.1,167.51-37.21C337.15,48.6,253.32,22.82,178.48,25.67Z"/>
      <path class="cls-6" d="M157.48,47q-4.36,0-8.76.1c-47.9,1.07-90.85,12-120.9,24.72C56.85,88,116.53,101,176,100.23c48.64-.66,97.56-8.09,130.18-18.84C280.62,62,220.68,47,157.48,47Z"/>
      <path class="cls-7" d="M18,68.11S44,50.34,58.35,51.64,77,37.77,90.86,37.77s20-12.36,38.14-10.84c35.82,3,41.28-10.46,48.12-12.14,16.7-4.1,38.27,9.91,57.22,13.87,27.07,5.66,39.66,5.45,49.29,9.59,23.18,10,36.06,12.32,43,16.75,5.18,1,11.7,4.56,12.33,8,.3,1.68-2.32,3.32-4.26,4.59-7,5.72-58.47,33.65-160.61,34.35C70.39,102.63,18,68.65,18,68.11Z"/>
      <path class="cls-8" d="M112.1,46.87C73.52,66.38,125.1,72,134.2,73.74s33-3,42.05-4.76,8.67-6.51,30.34-5.21,63.29-13,63.29-13-51.15,15.61-68.49,15.61-9.53,11.27-65.45,11.27S80.45,52.94,112.1,46.87Z"/>
      <path class="cls-8" d="M197.85,81.24c30.65,3.68,21.46-3.68,47.82-9.2s16.55-22.68,5.52-23.29S235.86,50,229.73,45.68,213.18,32.2,213.18,32.2s15.94,11,28.2,12.26,20.23-.62,24.52,8,6.74,15.32-9.2,22.68-18.39.61-31.87,7.35S197.85,81.24,197.85,81.24Z"/>
      <path class="cls-8" d="M46.21,65.51c-8.67,7.37,4.33,8.23,25.14,16s25.57,9.1,36.85,8.23,8.23-2.16,18.63.44,46.39,1.3,60.26,3,36-2.6,36-2.6-20.38,6.5-39.88,6.07-37.72-3.9-51.59-3.47-7.37,1.3-26.44-1.73-19.07-4.34-42.91-10S28.87,67.68,46.21,65.51Z"/>
      <path class="cls-8" d="M137.78,38.63c-4.6,2.15-2.76,3.07,10.72,6.75s5.21,6.13,18.7,1.53,16.55-8.28,24.22-8.58,14.1-3.07,14.4-6.44S210.11,23,210.11,23s-1.22,1.23-1.84,4.6,0,2.45-2.75,5.82-1.84,4-9.2,6.75S192.64,38,181,43.84s-23.9,8.28-27.58,8.28-2.45-2.45-15.33-6.44-8-8-7.66-9.5-3.37-.31-.31-3.06-5.21-3.38-5.21-3.38.61-1.84,4.29-.61,5.83.61,5.52,2.15-1.23-4.6-.31,2.14S127.66,35.57,137.78,38.63Z"/>
      <path class="cls-8" d="M303.91,56.72c-7.36,8-1.84,8.58-11,15.32S272,79.4,269,81.24s-6.13,1.22-17.16,4.29-23.91,1.23-23.91,1.23H261c8.59,0,4.3-4.91,17.78-8s13.49-3.68,17.78-4.3,8-9.19,8-9.19S296.55,59.17,303.91,56.72Z"/>
      <path class="cls-7" d="M172.78,25.85c-6.72,2.16-3.46,0-8.45,4.11s-5.85,1.95-10.84,3-15.38-1.3-15.38.21,7.15,3.91,3.25,5.42.86,3.25,5.41,4.34,1.52-.65,6.51,1.73.86,6.5,6.72,2.39,12.13,1.51,20.15-5.64,3.25-7.37,9.32-7.59,3.69,3.69,8-1.08,4.12-2.82,6.5-6.93,2.17-5,.22-5S200.09,16.74,196,17s-4.11-.65-6.93.43-3.69,0-6.29.22-.43-1.95-3.9,1.52S179.72,24.11,172.78,25.85Z"/>
      <path class="cls-9" d="M190.77,18c-5.09,1.74-5.74.44-8.88,4.45s.32,3.25-7,6.39-8,2.49-12.35,3.79-.33.22-9.32,1.63-5-.33-9.75,1.52-3.47,1-5.31.43-.66-.76-.33-2.17a4.61,4.61,0,0,0-1.63-4.33c-1.19-.76,2.5-1.2,6.29-.87s13.76-1.3,18.31-3.58,7.7-4.55,10.3-5.52,4.33-4.34,8.24-4.12,5.63-.43,7.58-.43.33-1,3.58.21,13.44,2.06,15.39,3.47,4.11,1.84,5.41,2.6,3.8,1.95,4.56,2.38-.87-.43-5.64-1-5.31-1.84-9.1-2.38-3.36-.76-6.4-1.63S191.31,17.72,190.77,18Z"/>
      <path class="cls-9" d="M211.8,37.12c-1.52,1.3-.44,1.73-6.51,4.76s-9.32-1.3-13.43,3.91-5.64,2.6-15.18,6.06-5,4.12-13.22,4.77.44-4.77-16.69-1.51-16-8.46-22.75-11.49-5.85-8.45-8-8.45-10-.66-11.92-.44,6.72-4.55,9.75-5.2S124.45,28.66,126,35s3.68,10,9.1,12.14,11.05,5.63,21.24,5.63,15.39-2.82,21.24-5.42,4.55-3,12.36-4.77,8.88-1.51,13-4.33,6.72-3,8.24-7.59,3.9-6.93,7.36-6.72S232,28.45,230,28.23s-6.72-1.73-10.4-.43-5.42.86-5.85,2.6S212.66,33.43,211.8,37.12Z"/>
      <path class="cls-9" d="M93.64,42.92c-7.36,2.46-12,10.73-15.33,16.86S67,65.61,70.65,69.59s12.87.92,14.71,7.36,13.49,4.59,27.28,6.74.92,6.74,23.3,3.07,35.55-1.23,46.89-3.07,13.18-5.21,26.06-7.36,20.84-3.06,31-7.66a143.74,143.74,0,0,1,19-7.05s-15.63-.31-22.38,1.53-20.23,5.52-28.81,6.75-11.34.92-24.21,4.9-9.51,4-23.91,5.21-23.91,4.29-29.12,1.53S116.63,79.4,105,75.41s-19-3.67-16.86-14.1S90,47.52,96.4,46.91s7.35-4.29,9.8-7.66S104.37,37.1,93.64,42.92Z"/>
      <path class="cls-9" d="M229.14,35.82c7.36,2.81,6.93,5.85,16.25,5.85s13.87-3.25,17.56.86,9.53,6.51,10.18,14.53,5.85,6.93-.21,11.7,0,7.15-14.09,9.1-29,6.07-26.44,5.85S243,81.33,252.76,82.2s25.36-5.42,29-7.16,3.47-9.31,8.46-11.05,6.06-6.93-2.39-10.62-6.5-6.5-10.84-8.23-8.67-1.52-11-3.26,2.38-2.38-11.05-5.2-12.36-2.6-16-2.6-6.72-1.73-9.54-1.73-12.57-1.52-10-1.09S223.07,35.38,229.14,35.82Z"/>
      <path class="cls-9" d="M49.89,54c-1.73,1.09,5.85,6.29,2.6,10.62s-8.88,4.77-1.3,6.94S61,75.26,68.75,77.43s7.58,3.47,15.39,6.07,19.07,4.12,23.4,3.68.87-.43-1.51-.86S91.72,85.23,84.79,82s-.44-4.12-8-6.07-12.14.87-11.71-4.33.22-4.55,4.12-8.67,5.2-5.64,6.5-10.19,5-7.37.44-4.33-6.29,5.2-9.32,5.2-.44-.87-4.12-.44S53.36,51.42,49.89,54Z"/>
      <path class="cls-9" d="M115.35,51.85c-9.11,4.34-8,7.81-3.69,12.57s13.44,4.34,19.94,4.34,15,3.47,22.76,1.73,6.72-3,17.77-4.33,14.09-6.29,23-6.29,13,.87,24.49-.86,24.71-6.29,21.24-5.64-16.47-1.08-29.48,1.52S186.22,56,182.1,57.49s-8.88,5-21.67,6.07-9.1-.22-23.63-.87-22.32.87-19.5-2.82,5.2-4.76,2.38-5.42S119.68,50.55,115.35,51.85Z"/>
      <path class="cls-10" d="M127.51,29.59c2.68,0,5.21,1.23,5,2.3s1.38,1.84.46,3.14-1.92,3.68-.16,4.45,2,.76,1.69,2.22,1.38,2.22,2.07,2.22a66.7,66.7,0,0,1,12.87,3.83c4.68,2.07,8.51,2.68,10.27,2.3s15.17-4.06,17.09-5.13,8.73-4.83,14.64-5.37,6.36-1.45,8.65-2.3,6.29-4.44,7.28-7.35a22,22,0,0,0,.92-2.84s-2.07,8.74-8.81,11.5-7.28-.23-14,2.52-10,5.45-13.71,6.36-10.73,3.07-14.94,3.38-9.81-3.83-12.34-4.29-9.27-1.31-10.81-3,.54-1.61-1.3-3.76-.84-4-.23-5.44-.15-1.38-.61-2.6S129.81,29.9,127.51,29.59Z"/>
      <path class="cls-10" d="M221.33,38.2c5.42,3.25,9.32,6.72,21.24,8S265.33,49,266.85,59s-5.42,11.48-15.17,14.08S236.5,76.56,230,79.6s-16.47,6.28-24.27,4.11-6.07-2.16-6.07-2.16a50.81,50.81,0,0,0,13.87,1.73c7.15-.22,25.58-8,32.51-10.19s16.47-3,18-8,1.73-12.58-5.42-14.31-10.19-3.25-19.72-4.12S221.33,38.2,221.33,38.2Z"/>
      <path class="cls-10" d="M104.21,50c-6,3.22-11.49,8.59-6.13,15.79s41.38,12.41,59.31,8.12,25.44-5.67,32.65-7.81,8,.3,22.68-1.84l14.71-2.15A114.59,114.59,0,0,1,208.58,65c-11.49.92-15.94.62-22.68,2.76s-19.77,8.89-39.85,8.58-40.46-1.07-48-8.43S94.4,55,104.21,50Z"/>
      <path class="cls-10" d="M44.14,65.76c-.62.61-5.37,5.21,4.44,9.5s38,12.72,53.18,14.56S131.65,92,143,92.89s33.25.3,42.14.92,34.64-2.3,34.64-2.3-9.5,3.37-34,2.91S133.94,92,124.6,92.58s-35.1-4-47.82-7.36S30.19,73.42,44.14,65.76Z"/>
      <path class="cls-10" d="M302.07,58.56c-2.3,2.45.92,7-4.14,11.18S280.3,78,273.71,80.17,260.07,85.38,255.17,86s-14.41,1.23-14.41,1.23,11.8.3,19.62-1.69,17.32-6.28,23.6-8.12,14.26-6,16.25-8.28S300.69,60.55,302.07,58.56Z"/>
      <path class="cls-11" d="M208.12,20.85c-4.9-.3-13-8.12-24.67-3.67s-12.57,9.35-24.83,13-20.23,1.54-21.46.62,14.1,1.22,22.53-3.38,14.1-10.72,20.23-12.26S194,13.65,208.12,20.85Z"/>
      <path class="cls-11" d="M110.65,31.28c2.6-1.08,10.11-3.53,13.33,3.37s4.14,12.11,13.34,14.86,8.12,4.53,6,4.75-5.59,1.38-11-4.06S123.75,40,119.77,36,109.65,33,108.2,33,108.89,31.66,110.65,31.28Z"/>
      <path class="cls-11" d="M217.54,25.41c-2.06.76-4,2.28-6.29,7.05s-7,7.58-12.68,8.45-13.87,2.71-17.66,5.2-14.63,6.39-18.64,6.94-.87,2.49,4.34,1.3,13.65-8.35,18.64-9.21,7.58-1.52,9.64-2.82,6.72.32,10.84-2S213.86,26.6,217.54,25.41Z"/>
      <path class="cls-12" d="M143.09,39.07c11.7,1.73,36.41-7.37,43.78-12.14s10.19-6.29,14.31-2.39S204,30,201.18,33s-15,2.6-23.2,6.5-16.9,6.94-23.4,6.07S138.54,39.07,143.09,39.07Z"/>
      <path class="cls-11" d="M115.71,55c-3.07,1.53-6.44,8.58,1.53,10.58s20.23.76,27.89,2.75,18.85-1.68,25.14-3.21,16.09-6.29,15-6.13-20.39,8-32.5,7.2S135.17,63,125.67,62.85s-11.19-1.23-7.82-5.52S115.71,55,115.71,55Z"/>
      <path class="cls-11" d="M198.16,57.48c5.36-.76,29.12-2.91,34.33-3.06S212,59.63,198.16,57.48Z"/>
      <path class="cls-11" d="M228.81,34c8.12,2.6,9.35,4.75,15.48,4.9s14.25-.46,16.86,1.38,5.05,5.06,9,6.59S276.78,57,277.55,60.7s20.38,3.22,11.18-3.68-16.39-10.57-19.92-13.33a26.58,26.58,0,0,0-11.65-5.52c-4.9-1.07-12-.76-16.55-2.3S228,34,228.81,34Z"/>
      <path class="cls-11" d="M277.9,69c-3.79,4.11-6.83,9-17.12,9.32s-18.53,3.25-17.34,3S258.5,79.6,261.86,80s10.84-5.2,15-5.2,8.23-7.59,8.13-8.45S278.88,65.83,277.9,69Z"/>
      <path class="cls-11" d="M100.53,42.77c-3.21.77-7.51-1.07-12.72,7s-11,16.55-13.48,17.78,10.27,1.07,12.72,6.13,2,5.21,11.8,5.52,15.48,1.68,19.46,4.29,11,1.68,14.41,1.22-10.12-2.6-19.62-5.51S94.86,77,89.65,72.66s-2-9-3.37-13.18,5.82-14.72,9.5-14.72S102.37,43.08,100.53,42.77Z"/>
      <path class="cls-11" d="M245.52,63.15c-4.6,0-16.4,2.76-22.53,5.52s-23.45,3.37-37.09,7-27.59,7-22.84,6.9,21.46.15,27.9-3.68,16.09-7.51,23.29-7.36S243.37,65.45,245.52,63.15Z"/>
      <path class="cls-11" d="M58.13,56.08c-1.19,8.13.22,8.89-3,11.16s2.82,3.25,5.42,4.34,2.28,2.27,5.2,4,9.87,1.84,12.9,3.79,3.14,3.68,9.54,4.88S84.46,83.5,81.21,81s.33-3.47-5.42-4.34-12.68-.11-11.92-6.39S65.5,63,68.86,59,57.91,52.83,58.13,56.08Z"/>
      <path class="cls-12" d="M214.4,39.86c-16.24,9-17.77,6.74-25,10.27s-15.17,5.36-21,7-9.81-1.69-14.87-.62-23.91,1.54-27.28-3.37-5.21-7.51-8.89-7.66,2.45,2.6,3.53,6.9-.31,6.13,6.13,7.35,25.9,3.22,31.26,2,16.86-2.75,20.23-3.52,12.26-5.67,18.24-5.67,25.59-1.23,28.51-3.07S220.23,39.09,214.4,39.86Z"/>
      <path class="cls-13" d="M269.23,37.33c10.62,4.77,10.62,11.71,23,14.31s16.47,2.81,16.68,8.45-2.6,13-8.88,16.26-13.22,1.08-20.37,5S265.76,90.22,253.84,92s-22.54,4.34-19.72,4.12,33.38-3,54.4-11.92,25.79-6.5,35.33-14.74-7.8-16-16.26-18.64-10.18.87-19.29-6.29A33.89,33.89,0,0,0,269.23,37.33Z"/>
      <path class="cls-14" d="M47.07,61.17c-10,2.39-16.68,8.89-9.31,13.44S81.54,90,93.46,91.73,168,97.59,177.77,99.1,217,96.29,217,96.29s-27.31,7.58-75,2.81S68.32,90.65,46.21,80,20.42,69.19,22.8,67.68,60.51,47.74,47.07,61.17Z"/>
      <path class="cls-14" d="M146.34,88.7c14.52,1.08,40.1-3.25,48.33-3s15.83,2,22.33,1.51,19.72-5.2,24.06-4.55-1.3.22-7.59,2-6.5,2.39-3.25,3S245.61,90,239.54,90s-19.72-1.08-31.21,0S163.46,92.17,146.34,88.7Z"/>
      <path class="cls-14" d="M145.29,40.47c3.14.84,14.48,1.15,23.29-1.45s26-10.12,30.19-10.81,5.37.84,3.45,3.3S188.35,35.87,181.68,38s-18.77,7.43-23.44,7.59S140.15,41.08,145.29,40.47Z"/>
      <path class="cls-14" d="M223.45,45.53c-1.69,1.07-25.14,4.44-33.11,6.28s-23.29,7.67-31.87,8.13-29.74-3.22-33.57-4.3-2.76,2.15,2.45,3.38,19.16,2.91,27.28,2.45,22.84-3.37,26.82-4.91,14.56-5.21,18.7-5.05S219.92,51.35,223,50,227,45.38,223.45,45.53Z"/>
      <path class="cls-15" d="M271,37.87c3.06.46,10,4.59,17.62,8.73s15.48,4.14,20.69,7,12.11,7.82,10.12,13.18-13,10.73-21.46,12.88-19.77,6.43-24.06,7.81-30.5,7.36-29.73,7.2,32.64-6.59,36.16-7.66,19-6.89,25.45-8.73,18.69-6.9,20.07-13S313.1,52.89,306.05,51.35s-12.87-3.22-17.93-7.05S271,37.87,271,37.87Z"/>
      <path class="cls-16" d="M237.19,115c-6.29,6-4,4.62-7,7.94s-5,2.63-5.2,3.49-2.61.68-6.61-1.16-4.22.07-.92.12,2.92,2.68,6.8,1.72,5.75-1,7.58-4.14,3.42-3.61,4.29-5,1-.25-.73,2.56-2.54,2.21-3,4.74-2,3.66-1.26,3,1.06,0,3-3.55a26.53,26.53,0,0,1,3-5,11.69,11.69,0,0,0,2-4.48c.66-2.2,2.11-4.62,3-5.2s3.33-2.43.86-.58-2.77.35-3.63,2.81S237.19,115,237.19,115Z"/>
      <path class="cls-17" d="M187.08,120.23c3.47,6,3.2,6.64,6.28,7.78s2.95-.85,5.39,1.66,6.32,2.6,8.46,2.8,3.82-1.43,6.4-2.35,6.32-1.15,2.58-.09-2.27,1.58-5.81,2.39-2.55.32-8.26-1.18-9.29-2.81-7.29-1.89.76-2.33,2.62,1.19,6.46,6.46,7.11,7-.35,1.81-2.69-.83-.26-2.08-3.54-3.78-1.31-.19-4.21-2.64-1-1.63-3.81-3.15a41.72,41.72,0,0,1-4.84-2.91c-.78-.61-.42-.54-1.38-2.53a17.15,17.15,0,0,0-4.31-5.21,8.86,8.86,0,0,1,3.91,3.44c1.23,2.31,1.29,3.18,2.59,4.19s4,2.26,3.06,1.43a7.78,7.78,0,0,1-1.82-2.76A3.56,3.56,0,0,1,187.08,120.23Z"/>
      <path class="cls-16" d="M165.34,111.36c1.3,5,1.47,5,3.55,5.7s2,.91,3.93,2.74,1.11.27,2,2.24-.75,0,.76,2.07,2.26.12,1.51,2a2.09,2.09,0,0,0,.78,2.89c.42.32-.52,0-.86-.7a2.22,2.22,0,0,1-.24-1.44c0-.42.63-1.58.24-1.66s-.47.19-1-.41-1.36-1.39-1.32-1.58.72.12,0-1-.64-1.31-1-1.59a33.19,33.19,0,0,0-2.76-2.1c-1.41-.94-1.25-1.44-1.82-1.41s-2.87-1.59-2.85-1.28.36.39.5,1.27-.22.9.21,1.53.52.29.92,1.19a9.81,9.81,0,0,0,.94,1.46c.17.35.26.57.05.26a6,6,0,0,0-.57-.88,18,18,0,0,0-1.63-2.08c-.42-.36,0-1.18-.49-2s-.28-1.07-.19-1.33.65,1.17.26.09a18.13,18.13,0,0,1-.72-2.73c-.13-.69-.56-1-.44-1.48a15.41,15.41,0,0,0,.1-2.18c0-.56.15-1.24.14-.18s0,1.77,0,2.08A2.29,2.29,0,0,0,165.34,111.36Z"/>
      <path class="cls-16" d="M226.07,130c-1.95,1-4,2.83-5.74,3.23s-.72-.41-3.18.48a17.18,17.18,0,0,1-5.48,1.37c-1.49,0-2-.41-5.86-1s-3.25-.75-1.79-.35,2.45,1.6,4.81,1.21,4.73,0,7.26-.43,4.21-.87,2.94-.37-1.65,1.37-3.8,1.48-3,.21-1.7.3a5.76,5.76,0,0,0,4.37-.89c1.84-1.23,2-1.67,3.23-2.07a18.61,18.61,0,0,0,3.56-1.37A16.79,16.79,0,0,0,226.07,130Z"/>
      <path class="cls-17" d="M54.06,91.58c3.47,6,3.2,6.64,6.28,7.78s2.95-.85,5.38,1.66,6.33,2.6,8.47,2.8,3.81-1.43,6.4-2.35,6.32-1.16,2.57-.09-2.26,1.58-5.8,2.39-2.55.32-8.26-1.18-9.29-2.81-7.3-1.89.76-2.33,2.62,1.19,6.47,6.46,7.12,7-.35,1.81-2.69-.83-.26-2.09-3.54-3.78-1.31-.19-4.21-2.64-1-1.63-3.81-3.16a40.74,40.74,0,0,1-4.84-2.9C51.67,94.94,52,95,51.07,93a17.29,17.29,0,0,0-4.31-5.21,8.86,8.86,0,0,1,3.91,3.44c1.23,2.31,1.28,3.18,2.59,4.19s4,2.25,3.06,1.43a7.78,7.78,0,0,1-1.82-2.76A3.56,3.56,0,0,1,54.06,91.58Z"/>
      <path class="cls-16" d="M93,101.39c-2,1-4,2.83-5.73,3.22s-.72-.4-3.18.49a17.18,17.18,0,0,1-5.48,1.37c-1.49,0-2.05-.41-5.86-1s-3.26-.75-1.79-.35,2.45,1.6,4.81,1.21,4.73,0,7.26-.43,4.21-.87,2.94-.37-1.65,1.37-3.8,1.48-3,.21-1.71.3a5.77,5.77,0,0,0,4.38-.89c1.83-1.23,2-1.67,3.22-2.07A19.17,19.17,0,0,0,91.67,103,16.27,16.27,0,0,0,93,101.39Z"/>
      <path class="cls-18" d="M89.08,96.1c3.58,9.85,2,6.72,3.22,13.55s.83,7.13,2.67,8.55,5.4-3.93,6.49,4.58-3.46,6.75,1.08,8.5a42.45,42.45,0,0,1,4.92,2s-6.66-.73-7.32-3.3,1.62-1,1-4.79-.86-6.7-1.93-6.65-.82,2-2,.92a8.75,8.75,0,0,1-2.51-5.33c.05-1.58,2.59-3.07,2.86-4.18s3-5.29.61-1.83-2.65,4-3.19,4.32-.29,1-.57-.49-.32-2.16-.83-4.18S93.25,104,92,102,89.72,96.6,89.08,96.1Z"/>
      <path class="cls-16" d="M159.29,116.91c-6.29,6-4,4.62-7,7.94s-5,2.63-5.2,3.49-2.62.68-6.61-1.16-4.23.07-.93.12,2.93,2.68,6.8,1.72,5.76-1,7.58-4.14,3.42-3.61,4.3-5,1-.25-.73,2.56-2.54,2.21-3,4.74-2,3.66-1.26,3,1.05,0,3-3.55a26.35,26.35,0,0,1,3-5,11.69,11.69,0,0,0,2-4.48c.66-2.2,2.12-4.62,3-5.2s3.34-2.43.87-.58-2.78.35-3.64,2.81S159.29,116.91,159.29,116.91Z"/>
      <path class="cls-17" d="M109.19,122.13c3.47,6,3.19,6.64,6.28,7.78s3-.85,5.38,1.66,6.33,2.6,8.47,2.8,3.81-1.43,6.4-2.35,6.31-1.15,2.57-.09-2.26,1.58-5.81,2.39-2.54.32-8.26-1.18-9.29-2.81-7.29-1.89.76-2.33,2.62,1.19,6.47,6.46,7.12,7-.36,1.81-2.69-.83-.27-2.08-3.54-3.78-1.32-.19-4.21-2.64-1-1.63-3.82-3.15a41.23,41.23,0,0,1-4.83-2.91c-.79-.61-.42-.54-1.38-2.53a17.29,17.29,0,0,0-4.31-5.21,8.81,8.81,0,0,1,3.9,3.44c1.24,2.31,1.29,3.18,2.6,4.19s4,2.26,3.06,1.43a7.78,7.78,0,0,1-1.82-2.76A3.56,3.56,0,0,1,109.19,122.13Z"/>
      <path class="cls-18" d="M127.5,122.44c-3.35,2.3-1.65,4.56-4.65,3.18s-.91-.71-4.46-2.31a13.09,13.09,0,0,1-4.69-3.11c-1-.75-2.85-7.1-2.84-6.57a25.09,25.09,0,0,0,.59,4.63c.32.66,1.45,1.22,1.87,2.17s.71,1,2.7,2.3a21.85,21.85,0,0,0,4.49,2c.82.42,2.36,1,.66.62a9.48,9.48,0,0,0-2.46-.45c-1.67-.14-1.52.08-2.52-.38s-1.17-.91-2.08-1.09-1.7-.49-.89-.06.68.21,2,.92,1.16.79,2.18,1,1.38.24,2.16.32,1.31,1.12,2.54.61,1.73.4,2.75-.11.76-1.19,1.21-1.83.42-.82.79-1,.16-.28,1-.77,1-1.24.57-.87S127.5,122.44,127.5,122.44Z"/>
      <path class="cls-16" d="M87.45,113.26c1.3,5,1.46,5,3.55,5.7s1.94.91,3.92,2.74,1.12.27,2,2.24-.75,0,.76,2.07,2.26.12,1.51,2,.37,2.57.79,2.89-.52,0-.86-.7a2.25,2.25,0,0,1-.25-1.44c0-.42.63-1.58.25-1.66s-.48.19-1-.41-1.36-1.39-1.32-1.58.72.12,0-1-.65-1.31-1-1.59a31.47,31.47,0,0,0-2.76-2.1c-1.41-.94-1.24-1.44-1.82-1.41s-2.86-1.59-2.84-1.28.36.39.49,1.27-.22.9.22,1.53.51.29.92,1.19a10,10,0,0,0,.93,1.46c.17.35.26.57.06.26a8.81,8.81,0,0,0-.57-.88,18,18,0,0,0-1.64-2.08c-.42-.36,0-1.18-.48-2s-.28-1.07-.19-1.33.65,1.17.26.09a17,17,0,0,1-.72-2.73c-.13-.69-.57-1-.44-1.48a17.11,17.11,0,0,0,.09-2.18c0-.56.16-1.24.15-.18s0,1.77,0,2.08A1.89,1.89,0,0,0,87.45,113.26Z"/>
      <path class="cls-16" d="M148.17,131.94c-1.95,1-4,2.83-5.74,3.23s-.71-.41-3.17.48a17.24,17.24,0,0,1-5.48,1.37c-1.49,0-2.05-.41-5.86-1s-3.26-.75-1.79-.35,2.44,1.6,4.8,1.21,4.74,0,7.26-.43,4.21-.87,2.95-.37-1.66,1.37-3.8,1.48-3,.21-1.71.3A5.77,5.77,0,0,0,140,137c1.83-1.23,2-1.67,3.22-2.07a18.48,18.48,0,0,0,3.57-1.37A16.27,16.27,0,0,0,148.17,131.94Z"/>
      <path class="cls-19" d="M344.88,55.74c-13.31,40.32-102,45.36-168.19,45.46-65,0-139.36,6.21-162.47-35.93,11.55,80.05,94,121.29,173.28,116C260.46,181.22,347.55,134.86,344.88,55.74Z"/>
      <path class="cls-20" d="M346.13,60.45c-4.23,23.08-84.4,44.05-166.34,45.16-77.1,1-154.67-18.53-165.17-40.79-5.53,24.39,80.57,49.23,166.12,48.07,85.19-1.15,157.81-25,164.35-46.12C345,65.26,346.71,62,346.13,60.45Z"/>
      <path class="cls-21" d="M344.88,55.74c-4.23,23.08-87,43.38-168.91,44.49-77.11,1-150.09-15-160.59-37.21-5.53,24.39,76,45.65,161.54,44.49,85.19-1.16,171.25-23.05,169-47.24A16.59,16.59,0,0,0,344.88,55.74Z"/>
      <path class="cls-22" d="M339.81,90.8c-86.32,56-191.29,69.3-244.45,72.45a187,187,0,0,0,92.14,18C248.91,181.23,320.33,148.38,339.81,90.8Z"/>
      <path class="cls-23" d="M327.1,116c-73.33,40.05-155,53.13-205.83,57.39a184.82,184.82,0,0,0,66.23,7.93C239.31,181.24,298.24,157.85,327.1,116Z"/>
      <path class="cls-24" d="M310.45,135.23C252,162.37,190.83,174.1,146,179.17a180.87,180.87,0,0,0,41.53,2.11C230.73,181.25,278.91,165,310.45,135.23Z"/>
      <path class="cls-25" d="M15.43,65.2S68.13,113.25,225.82,99C225.82,99,69.57,125.68,15.43,65.2Z"/>
      <path class="cls-26" d="M25.39,73.61s53.19,28.24,121.27,27.92C146.66,101.53,68,98.78,25.39,73.61Z"/>
      <path class="cls-27" d="M326.26,84.67c-1.79.9-46.57,37.62-209.12,27.76C290,130.79,326.26,84.67,326.26,84.67Z"/>
      <g>
        <path class="cls-28" d="M248.65,59.59a9.11,9.11,0,0,1,7.5,2.28c2.27,2.19,4.09-.08,3.79,2.42s-.84,2.2-2.43,3.79-.07,1.13-2.95,1.81.45.46-3.71,1-.53,1.29-6.21-.08-4.85-3.1-6.29-4-2.35-1.52-.68-2.65,2.05-.38,3.56-2.2a3.88,3.88,0,0,1,4.24-1.51C246.53,60.73,246.61,59.14,248.65,59.59Z"/>
        <path class="cls-29" d="M253.41,68.9c3.28-1.27,2.83-.5,4-2.14s.23-.75-.64-2.21-1.32-1.33-3.22-2.7-3-1.53-5.47-1.21-3.79,2.14-5.74,2.46-5.47,1.3-3.82,3,.15,1.5,2.42,2.21,3.46,1.48,7.15,1.19S252.76,70,253.41,68.9Z"/>
        <path class="cls-30" d="M252.82,68.23c2.79-1.06,2.43-.44,3.34-1.78s.18-.6-.63-1.78-1.18-1.07-2.87-2.15a5.75,5.75,0,0,0-4.77-.93c-2.12.29-3.19,1.78-4.86,2s-4.68,1.12-3.2,2.5.19,1.21,2.17,1.77,3,1.16,6.21.89S252.3,69.13,252.82,68.23Z"/>
        <path class="cls-31" d="M254.56,66.69c.33-.27.67-1.78.17-.82-1.24,0-1.55.75-2.84.66-2.63-.6-5-.38-5.95.57-.56.61-4.19-.73-3.34.48,1.08-.22,3,.08,3.8-.43a4.25,4.25,0,0,1,3.34-.6c1.57.31,3.29.75,4,.18A1.45,1.45,0,0,0,254.56,66.69Z"/>
        <path class="cls-31" d="M251.07,65.88c3.14-1.69,1.42-.94,0-.61s-1.15-.63-3-.46-1.11.2-3,.32-2.67.17-2.91.48-.25,1.62.16.9-.72-.57.7-.79,2.09.11,3.05-.35.82-.38,2.19-.12,1.36.46,1.84.3S250.31,66.17,251.07,65.88Z"/>
        <path class="cls-31" d="M254,64.37c-.18-.89-2.37-1.25-3.2-1.11s-1.94-1-3.21-.53S245.45,63.86,244,64s-1.38-.22-2.56.63a1.28,1.28,0,0,0-.36,2.06c.3.48-.18-.43-.05-1a1.83,1.83,0,0,1,1.16-1.3c.64-.24,2,.12,3.75-.71s1.91-1.07,2.52-.84a3.82,3.82,0,0,0,1.87.61c1,0,.69-.23,1.72,0S254,64.86,254,64.37Z"/>
        <path class="cls-32" d="M252.26,64.4a14.3,14.3,0,0,0-3.65-.68c-.76-.19-3.52.73-4.6.85s-2.21.34-2.43.8.13-.09.72-.15,2.8-.61,3.91-.62a17.75,17.75,0,0,1,2.93-.15,7.46,7.46,0,0,0,2.21.12C251.82,64.51,253.37,65,252.26,64.4Z"/>
        <path class="cls-32" d="M249.53,65.79A5.27,5.27,0,0,0,247,65.6a14.49,14.49,0,0,1-2.95.39c-.62,0-1.34.31-1.28.64s1.8.25,2.56.09,1.11-.66,2.21-.73S250.52,66.11,249.53,65.79Z"/>
        <path class="cls-32" d="M252.92,67.4c-2.23-.17-3.71-1.13-4.68-.7a7.14,7.14,0,0,1-3.5,1.11c-1.45-.1-1.82,0-1.4.21a39.33,39.33,0,0,0,5.8.27,25.33,25.33,0,0,0,3.68-.38,14.26,14.26,0,0,0,2.28-.7c.59-.25,0,0-.92,0A2,2,0,0,0,252.92,67.4Z"/>
        <path class="cls-32" d="M254,63.58a16.8,16.8,0,0,0-2.77-1.52,9,9,0,0,0-3.85-.31A10.27,10.27,0,0,0,245,63.14c-.42.43-.09.47.45.28a13.14,13.14,0,0,1,3.19-1,18.47,18.47,0,0,1,3.13.59C253.11,63.22,255.28,64.56,254,63.58Z"/>
      </g>
      <g>
        <path class="cls-28" d="M107.74,65.06a9.13,9.13,0,0,1,7.5,2.28c2.27,2.19,4.09-.08,3.78,2.42s-.83,2.2-2.42,3.79-.08,1.13-2.95,1.81.45.46-3.72,1-.53,1.29-6.21-.08-4.84-3.1-6.28-4-2.35-1.52-.68-2.65,2-.38,3.56-2.2a3.88,3.88,0,0,1,4.24-1.51C105.62,66.2,105.69,64.61,107.74,65.06Z"/>
        <path class="cls-29" d="M112.49,74.37c3.28-1.27,2.84-.5,4-2.14s.24-.75-.64-2.21-1.31-1.33-3.21-2.7-3-1.53-5.47-1.21-3.79,2.14-5.74,2.46-5.47,1.3-3.83,3,.16,1.5,2.43,2.21,3.45,1.48,7.14,1.19S111.84,75.47,112.49,74.37Z"/>
        <path class="cls-30" d="M111.91,73.7c2.78-1.06,2.43-.44,3.33-1.78s.18-.6-.63-1.78-1.18-1.07-2.86-2.15a5.75,5.75,0,0,0-4.77-.93c-2.12.29-3.2,1.78-4.87,2s-4.68,1.12-3.2,2.5.19,1.21,2.18,1.77,3,1.16,6.21.89S111.39,74.6,111.91,73.7Z"/>
        <path class="cls-31" d="M113.65,72.16c.32-.27.67-1.78.16-.82-1.24,0-1.54.75-2.83.66-2.64-.6-5-.38-6,.57-.56.61-4.19-.73-3.35.48,1.08-.22,3,.08,3.8-.43a4.31,4.31,0,0,1,3.35-.6c1.57.31,3.28.76,4,.18A1.46,1.46,0,0,0,113.65,72.16Z"/>
        <path class="cls-31" d="M110.15,71.35c3.14-1.69,1.42-.94,0-.61s-1.15-.63-3-.46-1.11.2-3,.32-2.67.17-2.92.48-.25,1.62.16.9-.71-.57.7-.79,2.1.11,3.06-.35.81-.38,2.18-.12,1.36.46,1.85.3S109.4,71.64,110.15,71.35Z"/>
        <path class="cls-31" d="M113,69.84c-.18-.89-2.36-1.25-3.2-1.11s-1.94-1-3.2-.53-2.1,1.13-3.55,1.26-1.39-.22-2.56.63a1.28,1.28,0,0,0-.36,2.06c.29.48-.19-.43-.06-1a1.85,1.85,0,0,1,1.17-1.3c.64-.24,2,.12,3.74-.71s1.92-1.07,2.53-.84a3.78,3.78,0,0,0,1.87.61c1,0,.69-.23,1.72,0S113.11,70.33,113,69.84Z"/>
        <path class="cls-32" d="M111.34,69.87a14.26,14.26,0,0,0-3.64-.68c-.76-.19-3.53.73-4.6.85s-2.22.34-2.43.8.13-.09.72-.15,2.79-.61,3.91-.62a17.63,17.63,0,0,1,2.92-.15,7.46,7.46,0,0,0,2.21.12C110.91,70,112.45,70.45,111.34,69.87Z"/>
        <path class="cls-32" d="M108.62,71.26a5.31,5.31,0,0,0-2.54-.19,13.73,13.73,0,0,1-2.94.39c-.63,0-1.34.31-1.29.64s1.81.25,2.56.09,1.12-.66,2.21-.73S109.6,71.58,108.62,71.26Z"/>
        <path class="cls-32" d="M112,72.88c-2.23-.18-3.71-1.14-4.69-.71a7.1,7.1,0,0,1-3.49,1.11c-1.45-.1-1.83,0-1.4.21a39.18,39.18,0,0,0,5.79.27,25.33,25.33,0,0,0,3.68-.38,15.17,15.17,0,0,0,2.29-.69c.58-.25,0,0-.92,0S112.32,72.73,112,72.88Z"/>
        <path class="cls-32" d="M113.06,69.05a16.68,16.68,0,0,0-2.76-1.52,9,9,0,0,0-3.85-.31,10.27,10.27,0,0,0-2.39,1.39c-.43.43-.1.47.45.28a13.2,13.2,0,0,1,3.18-1,18.39,18.39,0,0,1,3.14.59C112.19,68.69,114.37,70,113.06,69.05Z"/>
      </g>
      <g>
        <path class="cls-28" d="M161.89,36.27a9.07,9.07,0,0,1,4.71,6.26c.54,3.12,3.35,2.36,1.63,4.19s-2,1.28-4.2,1.63-.73.87-3.45-.28.09.63-3.58-1.4-1.19.73-5-3.73S150,37.57,149.33,36s-1-2.61,1-2.54,1.87.9,4.17.33a3.92,3.92,0,0,1,4.32,1.28C159.51,35.93,160.51,34.69,161.89,36.27Z"/>
        <path class="cls-29" d="M160.24,46.59c3.39.91,2.58,1.27,4.44.6s.64-.46.79-2.16-.27-1.85-1-4.07-1.51-3-3.7-4.21-4.32-.51-6.08-1.41-5.18-2.18-4.87.18-.76,1.3.65,3.21,1.92,3.24,5.06,5.19S159.06,47.09,160.24,46.59Z"/>
        <path class="cls-30" d="M160.16,45.7c2.87.79,2.22,1.08,3.74.54s.5-.39.54-1.81-.32-1.56-1-3.44a5.76,5.76,0,0,0-3.3-3.56c-1.88-1-3.63-.45-5.14-1.22s-4.43-1.86-4.05.13-.57,1.09.71,2.71,1.76,2.73,4.48,4.38S159.2,46.12,160.16,45.7Z"/>
        <path class="cls-31" d="M162.47,45.49c.42,0,1.6-1,.62-.57-1-.71-1.69-.31-2.68-1.14-1.77-2-3.79-3.24-5.14-3.05-.81.15-3-3.07-3-1.6,1,.47,2.35,1.83,3.32,1.9a4.34,4.34,0,0,1,3.06,1.49c1.08,1.18,2.2,2.55,3.13,2.53C162,45.25,162.28,45.48,162.47,45.49Z"/>
        <path class="cls-31" d="M160.13,42.76c3.53.5,1.7.09.39-.46s-.55-1.18-2.14-2.14-1-.5-2.63-1.52-2.25-1.45-2.63-1.34-1.16,1.15-.41.82-.24-.89,1-.22,1.62,1.32,2.67,1.52.88.17,1.83,1.19.83,1.18,1.31,1.33S159.35,42.56,160.13,42.76Z"/>
        <path class="cls-31" d="M163.35,43.26c.38-.83-1.17-2.41-1.92-2.79s-1-1.93-2.28-2.32-2.36-.33-3.61-1.08-1-1-2.44-1-1.46.89-1.5,1.45.1-.46.54-.83a1.82,1.82,0,0,1,1.71-.36c.65.18,1.54,1.28,3.43,1.64s2.18.27,2.54.81.35,1,1.15,1.6.69.22,1.37,1S163.12,43.69,163.35,43.26Z"/>
        <path class="cls-32" d="M162,42.28a13.78,13.78,0,0,0-2.55-2.7c-.5-.61-3.28-1.5-4.21-2s-2-1-2.43-.8.16,0,.67.31,2.61,1.16,3.52,1.81a17.92,17.92,0,0,1,2.45,1.6,7.42,7.42,0,0,0,1.71,1.41C161.55,42.11,162.52,43.4,162,42.28Z"/>
        <path class="cls-32" d="M158.94,41.79c-.49-.6-1.38-1.55-1.93-1.65a14.33,14.33,0,0,1-2.61-1.43c-.52-.34-1.26-.54-1.41-.24s1.31,1.27,2,1.58,1.29.13,2.2.72S159.55,42.62,158.94,41.79Z"/>
        <path class="cls-32" d="M160.72,45.09c-1.69-1.46-2.32-3.1-3.36-3.33a7.07,7.07,0,0,1-3.47-1.17c-1.12-.93-1.47-1.09-1.26-.66a39.1,39.1,0,0,0,4.52,3.64,25.64,25.64,0,0,0,3.19,1.87,15.33,15.33,0,0,0,2.26.79c.62.14,0,0-.73-.56S161.06,45.16,160.72,45.09Z"/>
        <path class="cls-32" d="M163.83,42.63a15.49,15.49,0,0,0-1.33-2.85,9.06,9.06,0,0,0-2.92-2.54,10.2,10.2,0,0,0-2.75-.28c-.6.09-.35.32.2.48a13.68,13.68,0,0,1,3.17,1.06,18.33,18.33,0,0,1,2.19,2.33C163.35,41.82,164.31,44.19,163.83,42.63Z"/>
      </g>
      <g>
        <path class="cls-28" d="M160.54,66.28c-1.51,1.06-6.28,4.77-5.45,6.74s8.18,1.13,13.56-2,4.77-8.26,3.25-8S167.21,62.79,160.54,66.28Z"/>
        <path class="cls-33" d="M172.63,64s-7.14,12.69-17.75,9.24C158.92,64.63,172.8,63.65,172.63,64Z"/>
        <path class="cls-34" d="M172.48,64.31s-7,11.69-17.37,9.07C158.75,66.57,172.48,64.31,172.48,64.31Z"/>
        <path class="cls-35" d="M172.06,64.71s-4.28,6-8.84,7.73a14,14,0,0,1-7.86.9S158.42,68.76,172.06,64.71Z"/>
        <path class="cls-36" d="M171.78,65s-5.34,6.06-8.53,7.16a28,28,0,0,1-7.32,1.15S169.55,65.51,171.78,65Z"/>
      </g>
      <g>
        <path class="cls-28" d="M227.12,35.24c-1.78-.53-7.65-2-8.67-.1s4.18,7.12,10,9.41,9.44-1.38,8.32-2.43S234,38.3,227.12,35.24Z"/>
        <path class="cls-33" d="M236.37,43.32S222,45.61,218.11,35.14C227.4,32.94,236.78,43.22,236.37,43.32Z"/>
        <path class="cls-34" d="M236.06,43.38s-13.52,1.74-17.89-8C225.77,34,236.06,43.38,236.06,43.38Z"/>
        <path class="cls-35" d="M235.49,43.29s-7.34.35-11.54-2.13a13.93,13.93,0,0,1-5.58-5.61S223.85,35.12,235.49,43.29Z"/>
        <path class="cls-36" d="M235.09,43.25S227,42.82,224.19,41a27.77,27.77,0,0,1-5.45-5S233.3,41.83,235.09,43.25Z"/>
      </g>
      <g>
        <path class="cls-28" d="M70.91,56.21c-1.35-.4-5.85-1.51-6.63-.07s3.2,5.44,7.61,7.2,7.22-1.06,6.37-1.86A18.43,18.43,0,0,0,70.91,56.21Z"/>
        <path class="cls-33" d="M78,62.4s-11,1.74-14-6.26C71.13,54.45,78.31,62.32,78,62.4Z"/>
        <path class="cls-34" d="M77.75,62.44s-10.34,1.33-13.68-6.11C69.88,55.27,77.75,62.44,77.75,62.44Z"/>
        <path class="cls-35" d="M77.32,62.37s-5.62.27-8.83-1.63a10.62,10.62,0,0,1-4.27-4.29S68.41,56.12,77.32,62.37Z"/>
        <path class="cls-36" d="M77,62.34s-6.17-.33-8.34-1.72a21.48,21.48,0,0,1-4.16-3.84S75.64,61.25,77,62.34Z"/>
      </g>
      <g>
        <path class="cls-28" d="M298.07,55.23c-1.35-.4-5.84-1.5-6.63-.07s3.2,5.45,7.62,7.2,7.21-1.06,6.36-1.86A18.34,18.34,0,0,0,298.07,55.23Z"/>
        <path class="cls-33" d="M305.15,61.42s-11,1.74-14-6.26C298.29,53.47,305.47,61.34,305.15,61.42Z"/>
        <path class="cls-34" d="M304.91,61.46s-10.34,1.33-13.68-6.11C297,54.29,304.91,61.46,304.91,61.46Z"/>
        <path class="cls-35" d="M304.48,61.4s-5.62.26-8.83-1.64a10.72,10.72,0,0,1-4.27-4.28S295.57,55.14,304.48,61.4Z"/>
        <path class="cls-36" d="M304.18,61.36S298,61,295.84,59.65a21.25,21.25,0,0,1-4.17-3.85S302.8,60.27,304.18,61.36Z"/>
      </g>
    </g>
  </g>
</svg>
