<svg id="Layer_1" data-name="Layer 1" xmlns="http://www.w3.org/2000/svg" width="360.26" height="220.29" viewBox="0 0 360.26 220.29">
  <defs>
    <style>
      .cls-1 {
        opacity: 0.5;
      }

      .cls-2 {
        fill: #ff0;
      }

      .cls-3 {
        fill: #8e8149;
      }

      .cls-4 {
        fill: #d6e0ca;
      }

      .cls-5 {
        fill: #b29e66;
      }

      .cls-6 {
        fill: #d3c589;
      }

      .cls-7 {
        fill: #514619;
        opacity: 0.54;
      }

      .cls-8 {
        fill: #ffd757;
      }

      .cls-9 {
        fill: #615a3e;
      }

      .cls-10 {
        opacity: 0.58;
      }

      .cls-11 {
        fill: none;
        stroke: #514619;
        stroke-miterlimit: 10;
      }
    </style>
  </defs>
  <g>
    <path class="cls-1" d="M107.34,220.29c-.34,0-.69,0-1,0a14.94,14.94,0,0,1-11.58-6.36,12.85,12.85,0,0,1-1-1.64c-.53.05-1.07.07-1.61.07a23.16,23.16,0,0,1-4.54-.48c-8.29-1.67-12.06-8-12.1-13.55,0-.35,0-.75,0-1.2a13.53,13.53,0,0,1-2.28-7,14.32,14.32,0,0,1,6-12.13c.28-.22.57-.44.87-.65a14.18,14.18,0,0,1,1.7-7.4,14.94,14.94,0,0,1,10.94-7.57,15.88,15.88,0,0,1,2.52-.2c.44,0,.88,0,1.31,0a18.94,18.94,0,0,1,8.78,3.17c1.78-3.05,3.67-6.1,5.62-9.05.57-.87,1.15-1.74,1.74-2.6-4.49.45-9,1-13.67,1.61-1.67.21-3.35.43-5,.63-3,.37-6.54.8-10.16,1.15-5.88.56-11.32.84-16.66.84a130,130,0,0,1-35.81-4.82A25.56,25.56,0,0,1,28,151.89c-.7-.31-17-7.67-19.6-19.26a14.84,14.84,0,0,1-.36-4,18.92,18.92,0,0,1,3.29-15.54c.35-.47.75-.95,1.26-1.52a31.93,31.93,0,0,1,6.36-5.43,148.8,148.8,0,0,1,24.3-13.45A22.84,22.84,0,0,0,46.5,89.6c3.34-3.49,7.92-8.27,15.33-9.69l.09,0a24,24,0,0,1,4.33-.4A25,25,0,0,1,71,80a17.1,17.1,0,0,1,3.34-2.65,21.11,21.11,0,0,1,3.95-1.93A14.28,14.28,0,0,1,87,64.64a16.78,16.78,0,0,1,2.67-.9,16.54,16.54,0,0,1,3.91-.47,16.18,16.18,0,0,1,5.4.93l.58.23a13.75,13.75,0,0,1,1.57-.36,15.16,15.16,0,0,1,2.53-.22,14.53,14.53,0,0,1,14.64,16.64,50.49,50.49,0,0,1,7.82,2.81c4,1.57,8,3.25,11.85,4.93l.91-.31a275.81,275.81,0,0,1,27.82-7.61c2.43-.53,4.89-1,7.33-1.5.69-4,3.3-7.89,8.34-10.26a21.69,21.69,0,0,1,4.13-1.49,14.29,14.29,0,0,1,9.77-9.72,16.84,16.84,0,0,1,4.91-.74,16.1,16.1,0,0,1,7.06,1.62l.55.28a15,15,0,0,1,2.52-.21,14.87,14.87,0,0,1,14.78,13.42,15.47,15.47,0,0,1,0,2.26c2.29,0,4.42,0,6.42.07a14,14,0,0,1-.56-3.44c-.27-7.47,5.19-13.78,13.28-15.33a19.91,19.91,0,0,1,2.49-.33l3.09-.21c1.57-.11,3.22-.22,4.82-.37l.6-.08h.05c2-.2,3.41-.41,4.65-.65q.91-.18,1.8-.42l.12,0c.57-.16,1.12-.33,1.61-.51l.06,0c.36-.13.71-.26,1.06-.41l.09,0c.24-.11.39-.2.53-.27l.5-.33a1.37,1.37,0,0,0,.2-.13l.38-.28.27-.24.43-.43.19-.23.21-.29c.17-.22.31-.42.45-.63l.19-.29c.16-.25.3-.48.43-.72,0-.07.23-.42.23-.42.09-.17.38-.78.38-.78.25-.54.53-1.19.79-1.85l.15-.41c.22-.57.43-1.16.63-1.75l.15-.44c.26-.77.49-1.52.73-2.27l.5-1.63C276,29,280.13,15.6,295.13,10l.23-.08c1-.37,2-.69,3.08-1l1-.26,1.17-.26c.9-.19,1.81-.35,2.77-.48.64-.08,1.28-.15,1.91-.2.29,0,.59-.06.88-.07h.06c1-.07,2-.11,3-.12H310c.87,0,1.7,0,2.54.08h.27c.3,0,.6,0,.89.08A54.64,54.64,0,0,1,322,9l.52.13a54,54,0,0,1,8.09,2.69l.73.31c1.28.56,2.51,1.15,3.66,1.77l.68.37c1.13.63,2.12,1.22,3.06,1.83.3.19.54.34.77.5,1.05.7,2.07,1.46,3.14,2.31.34.27.66.54,1,.82.87.73,1.66,1.45,2.4,2.17l.57.54c.37.37.66.7.95,1l.19.21c.5.54,1,1.08,1.47,1.63q.43.53.84,1.05l.16.21c.49.6,1,1.23,1.43,1.87.27.37.51.73.75,1.09.51.75,1,1.51,1.45,2.28.16.26.34.56.51.87.45.8.9,1.65,1.31,2.5l.36.73c0,.09.09.19.13.29.27.58.52,1.17.76,1.77.12.29.24.6.35.9q.36.95.69,1.92c.1.31.19.61.28.91.21.66.4,1.32.57,2l.16.66c.2.85.36,1.55.49,2.26,0,.11,0,.3.08.49a46.54,46.54,0,0,1,.68,7.18c0,.28,0,.52,0,.76,0,.61,0,1.25,0,1.9,0,0,0,.72-.05,1,0,.62-.08,1.23-.14,1.84,0,.33-.06.67-.1,1-.07.61-.15,1.22-.24,1.81l-.15.92c-.12.67-.22,1.28-.35,1.88-.05.24-.19.87-.19.87-.15.67-.29,1.29-.45,1.9,0,.06,0,.13-.05.19-.39,1.46-.87,3-1.43,4.58l-.15.42c-.18.51-.43,1.14-.68,1.77l-.3.74c-.24.57-.49,1.15-.75,1.72l-.05.11c-.08.18-.16.37-.25.55a2.72,2.72,0,0,1-.12.25c-.31.65-.63,1.29-.95,1.92l-.32.62c-.36.68-.71,1.32-1.07,1.94l0,0c-.13.26-.28.51-.43.77l0,0c-.32.54-.64,1.07-1,1.6l-.27.43-.19.3c-.39.6-.78,1.17-1.17,1.73l-.43.62c-.38.53-.78,1.08-1.2,1.63-.1.15-.45.6-.45.6L347,91a68.54,68.54,0,0,1-4.89,5.63l-.63.64-.27.26c-.64.64-1.29,1.26-1.95,1.87l-.75.69-.25.21c-.84.75-1.67,1.45-2.51,2.13l-.48.37.05,0-.6.45c-.7.54-1.35,1-2,1.49l-.31.23.06,0-1,.72c-.79.53-1.64,1.09-2.52,1.62l-.63.39q-1.92,1.14-3.92,2.21c-1.26.68-2.53,1.34-3.82,2-.62.31-1.25.61-1.87.9l-1.54.75c-1.67.85-3.27,1.56-4.49,2.08l-.48.21-.38.15-5.63,2.5c-3,1.32-5.48,2.43-7.94,3.61-1.9.9-3.77,1.85-5.63,2.81l-1.07.54q-2.85,1.48-5.68,3l-.22.12-5.74,3c-1.18.62-2.35,1.23-3.53,1.83l-1.17.61c-3.06,1.55-5.8,2.88-8.38,4-1.31.59-2.63,1.17-4,1.73h0l-.39.6c-.47.72-.94,1.42-1.42,2.11l-.18.27.09,0a82.33,82.33,0,0,1,10.12,4.21c1.65.82,3.29,1.72,4.85,2.66l.47.28c1.2.72,2.57,1.56,4,2.56l.15.1c.56.4,1.1.81,1.64,1.24l.33.27c.54.45,1.1,1,1.65,1.49l.36.36a22.62,22.62,0,0,1,1.78,2l.25.33a19.63,19.63,0,0,1,3,5.73,11,11,0,0,0,1.15.68h.11c7.05.92,11.69,4.26,13.77,9.92a16.32,16.32,0,0,1-1.17,13.53A15.36,15.36,0,0,1,292.83,196l-.43.08a14.38,14.38,0,0,1-2.27.18h-.64a21.9,21.9,0,0,1-3.5,6.59,15.36,15.36,0,0,1-9.9,6.36,12.69,12.69,0,0,1-2.19.18,13.48,13.48,0,0,1-5.65-1.24,14.8,14.8,0,0,1-1.54-.85l-.87.13a14.3,14.3,0,0,1-1.64.1,13.66,13.66,0,0,1-5.32-1.07c-2.58-1.1-7.07-4-8.58-10.92-.14-.63-.25-1.26-.35-1.9a14.48,14.48,0,0,1-6.79-5.1,15.24,15.24,0,0,1-2.82-9.86l-.25-.3a13.46,13.46,0,0,1-1.92-3.2l-2.84,0h-.57c-3.58,0-13.11,0-19.32-7.57a19.41,19.41,0,0,1-4.18-9.53,165.67,165.67,0,0,1-21.94,1.46c-4.34,0-8.65-.17-12.81-.51q-2.25-.18-4.5-.45l-.65-.07c-2.73-.33-5.6-.74-8.84-1.26l1.66-11.9-1.94,11.85c-2.58-.42-5.15-.87-7.73-1.32l-.48-.09-.15.53c-.13.46-.27.91-.42,1.36-.08.27-.18.53-.27.79-.18.51-.36,1-.54,1.43l-.28.67q-.31.74-.66,1.47l-.29.58c-.24.5-.51,1-.8,1.53l-.22.41c-.3.52-.63,1.08-1,1.64l-.14.23a51.46,51.46,0,0,1-3.88,5.3c-3.71,4.45-7.51,9-11.57,13.42a43.86,43.86,0,0,1-5.82,6c.12.19.25.37.38.55a16.94,16.94,0,0,1,2.63,4.83,14.68,14.68,0,0,1-6.3,17.11,14.29,14.29,0,0,1-4.73,1.82,11.31,11.31,0,0,1-1.3.19,15.68,15.68,0,0,1-9.4,4.55A17.36,17.36,0,0,1,107.34,220.29ZM295.92,60c-.26.47-.51.91-.76,1.34l-.2.34c-.29.51-.59,1-.89,1.49s-.78,1.19-1.17,1.76l-1,1.41c-.43.57-.87,1.14-1.32,1.69s-.68.8-1,1.21c-.49.56-1,1.11-1.49,1.64-.27.28-.53.53-.8.79l-.15.15a45.19,45.19,0,0,1-6.58,5.32l1,0c1,0,2.1-.06,3.18-.11a107.1,107.1,0,0,0,14-1.55l.22,0,1-.27a35.53,35.53,0,0,1,4.81-1l1.73-.49.17,0a49,49,0,0,0,6-2.25l.68-.35c1.27-.61,2.33-1.17,3.25-1.73l.4-.23.71-.49,1-.66a20.62,20.62,0,0,0,1.7-1.42c.26-.24.49-.46.71-.69a20.4,20.4,0,0,0,1.52-1.72.29.29,0,0,0,.07-.08,19,19,0,0,0,1.13-1.54l.11-.15c.35-.53.67-1.07,1-1.62,0,0,.07-.12.08-.15a19.87,19.87,0,0,0,1.42-3.31l.17-.48.15-.52.07-.27c.15-.59.26-1.19.35-1.77,0-.16,0-.33,0-.49a15.83,15.83,0,0,0,.08-1.73c0-.16,0-.32,0-.48s0-.49,0-.49-.09-.72-.09-.72c0-.2-.06-.35-.09-.51s-.13-.57-.15-.65-.07-.23-.11-.34a9.86,9.86,0,0,0-1.13-2.48l-.1-.17c-.1-.15-.16-.25-.24-.35l-.09-.12-.36-.48-.21-.24c-.06-.08-.19-.22-.32-.37l-.19-.19c-.11-.12-.25-.26-.4-.4l-.57-.52c-.45-.39-.93-.76-1.42-1.12l-.05,0c-.56-.4-1.16-.78-1.76-1.13l-.22-.12c-.46-.26-.93-.5-1.41-.73l-.28-.13c-.46-.21-1-.45-1.6-.66s-1.14-.38-1.67-.53l-.45-.13a18.06,18.06,0,0,0-3.26-.55l-.22,0-.72,0c-.39,0-.77,0-1.15,0h-.6l-.26,0c-.22,0-.41.06-.58.1l-.16,0c-.18,0-.38.11-.56.18a4,4,0,0,0-1.21.78l-.23.2a10.06,10.06,0,0,0-1.28,1.62l-.12.19A22.27,22.27,0,0,0,302.6,44l-.21.43c-.54,1.17-1.09,2.5-1.7,4.15-.46,1.24-.9,2.47-1.33,3.68-.09.26-.19.52-.3.77s-.29.74-.44,1.11l-.12.3c-.51,1.26-1.06,2.51-1.64,3.71l-.14.3c-.21.43-.41.87-.63,1.29Z"/>
    <path class="cls-2" d="M99.84,212.79c-.35,0-.69,0-1,0a15,15,0,0,1-11.57-6.36,14.49,14.49,0,0,1-1-1.64c-.52.05-1.06.07-1.6.07a22.46,22.46,0,0,1-4.54-.49c-8.29-1.67-12.06-8-12.1-13.54,0-.35,0-.76,0-1.2a13.35,13.35,0,0,1-2.28-7,14.29,14.29,0,0,1,6-12.13l.87-.65a14.28,14.28,0,0,1,1.71-7.4,15,15,0,0,1,10.94-7.58,15.85,15.85,0,0,1,2.51-.2q.67,0,1.32.06a18.94,18.94,0,0,1,8.78,3.17c1.78-3.06,3.67-6.1,5.62-9.06.57-.87,1.15-1.73,1.74-2.59-4.49.44-9,1-13.67,1.61l-5,.63c-3,.37-6.54.8-10.16,1.14-5.88.57-11.33.84-16.66.84a130,130,0,0,1-35.81-4.81,25.08,25.08,0,0,1-3.46-1.27c-.7-.31-17-7.67-19.6-19.26a14.84,14.84,0,0,1-.36-4,18.91,18.91,0,0,1,3.29-15.54A17.3,17.3,0,0,1,5.05,104a32.61,32.61,0,0,1,6.36-5.43A149.82,149.82,0,0,1,35.7,85.17,22.89,22.89,0,0,0,39,82.1c3.35-3.5,7.93-8.28,15.34-9.69l.09,0a24,24,0,0,1,4.33-.4,25,25,0,0,1,4.78.47,17.13,17.13,0,0,1,3.34-2.66,22.35,22.35,0,0,1,3.94-1.93,14.3,14.3,0,0,1,8.66-10.73,16.47,16.47,0,0,1,6.59-1.37,15.83,15.83,0,0,1,5.39.93l.59.23a13.58,13.58,0,0,1,1.56-.36,14.2,14.2,0,0,1,2.54-.22,14.81,14.81,0,0,1,14.54,11.82,15,15,0,0,1,.1,4.82,50.2,50.2,0,0,1,7.82,2.81c4,1.57,8,3.25,11.85,4.93l.9-.31a276.72,276.72,0,0,1,27.83-7.61c2.43-.53,4.88-1,7.33-1.5.69-4,3.3-7.89,8.34-10.26A21.18,21.18,0,0,1,179,59.56a14.29,14.29,0,0,1,9.77-9.72,15.79,15.79,0,0,1,2.78-.6,16.25,16.25,0,0,1,9.2,1.48l.55.28a14.92,14.92,0,0,1,2.51-.21,14.39,14.39,0,0,1,3.58.44,14.84,14.84,0,0,1,11.21,13,14.13,14.13,0,0,1,0,2.26c2.3,0,4.42,0,6.43.07a14.55,14.55,0,0,1-.57-3.44c-.27-7.48,5.2-13.78,13.29-15.33a19.75,19.75,0,0,1,2.48-.33l3.09-.21c1.58-.11,3.23-.22,4.82-.37l.61-.08h0c2-.2,3.41-.4,4.65-.64q.92-.18,1.8-.42l.12,0c.57-.16,1.11-.33,1.61-.51l.06,0c.35-.13.71-.26,1.06-.41l.09-.05.53-.27.5-.32.2-.13a3.72,3.72,0,0,0,.37-.29,2.38,2.38,0,0,0,.27-.23l.44-.44.18-.23.22-.28c.16-.22.31-.42.45-.63l.19-.29c.15-.25.29-.48.43-.73l.23-.42c.09-.16.38-.77.38-.77.25-.54.53-1.19.79-1.85l.15-.41c.22-.57.42-1.16.62-1.75l.16-.44c.25-.77.49-1.52.72-2.27l.51-1.63c3-9.8,7.14-23.21,22.14-28.86l.22-.08c1-.37,2-.69,3.08-1l1-.26,1.17-.26c.9-.19,1.81-.35,2.77-.48.64-.08,1.27-.15,1.91-.2.29,0,.58-.06.88-.08h.06c1-.07,2-.11,3-.12h.81c.86,0,1.7,0,2.54.08h.27a8.91,8.91,0,0,1,.89.08,54.31,54.31,0,0,1,8.28,1.32l.52.12a55.36,55.36,0,0,1,8.1,2.7l.73.3q1.92.86,3.66,1.77l.68.38c1.12.63,2.11,1.22,3.06,1.83.3.19.54.34.77.5,1.05.7,2.07,1.45,3.14,2.3l1,.83c.87.73,1.66,1.44,2.4,2.17l.57.54c.36.37.66.7.95,1l.19.2c.5.55,1,1.09,1.47,1.64.29.34.57.69.84,1l.16.21c.48.61,1,1.24,1.43,1.88.26.37.51.73.75,1.09.51.75,1,1.51,1.45,2.28.16.26.33.56.5.86.46.81.91,1.65,1.32,2.51.07.13.35.7.36.73s.09.19.13.29q.39.87.75,1.77c.12.29.25.59.36.9.24.63.47,1.27.68,1.92.11.31.2.61.29.9.2.67.39,1.33.57,2l.15.66c.2.85.36,1.55.49,2.26,0,.11.06.29.09.48a46.67,46.67,0,0,1,.68,7.19c0,.28,0,.52,0,.76,0,.61,0,1.25,0,1.9,0,0,0,.72,0,1,0,.61-.08,1.22-.14,1.84,0,.33-.07.67-.1,1-.08.61-.15,1.21-.24,1.81L352,56c-.12.68-.23,1.29-.35,1.89-.05.24-.19.87-.19.87-.15.66-.29,1.28-.45,1.9a1.05,1.05,0,0,0-.05.19c-.39,1.46-.88,3-1.43,4.58l-.15.42c-.18.5-.43,1.13-.68,1.76l-.3.75c-.24.57-.5,1.15-.76,1.72l0,.1c-.08.19-.16.37-.25.55l-.12.26c-.31.65-.63,1.28-.95,1.92l-.32.62-1.07,1.94,0,0a8.31,8.31,0,0,1-.44.76l0,.06c-.32.54-.65,1.07-1,1.6l-.27.43c-.07.1-.13.2-.2.29-.39.6-.77,1.17-1.16,1.74l-.43.61c-.38.54-.79,1.09-1.2,1.64l-.45.6-.22.27a70.34,70.34,0,0,1-4.89,5.62l-.63.64-.27.27c-.65.64-1.3,1.26-2,1.87l-.75.69-.24.21c-.84.75-1.67,1.45-2.51,2.12l-.48.38,0,0-.59.45c-.71.54-1.36,1-2,1.49l-.32.22.07,0-1,.72c-.79.53-1.65,1.08-2.52,1.61l-.63.4c-1.28.75-2.6,1.49-3.92,2.21s-2.54,1.33-3.82,2l-1.87.91-1.55.74c-1.66.86-3.26,1.57-4.48,2.09l-.48.21-.38.15-5.64,2.5c-3,1.31-5.47,2.43-7.94,3.61-1.89.9-3.76,1.85-5.62,2.8l-1.07.55c-1.9,1-3.79,2-5.68,3l-.22.12-5.75,3-3.53,1.83-1.16.61c-3.06,1.55-5.8,2.88-8.38,4-1.31.6-2.63,1.18-4,1.73h0l-.39.59c-.47.72-.94,1.42-1.42,2.12l-.18.27.08,0a81,81,0,0,1,10.13,4.21c1.65.82,3.28,1.71,4.85,2.65l.47.29c1.2.71,2.57,1.55,4,2.55l.15.11c.56.39,1.1.81,1.63,1.24l.33.27c.55.45,1.11,1,1.65,1.49.13.11.25.23.37.35a24.13,24.13,0,0,1,1.77,2l.26.33a19.47,19.47,0,0,1,3,5.73,11,11,0,0,0,1.16.68h.1c7.06.92,11.69,4.25,13.78,9.92a16.34,16.34,0,0,1-1.17,13.52,15.37,15.37,0,0,1-10.57,7.89l-.43.08a14.38,14.38,0,0,1-2.27.18l-.64,0a22,22,0,0,1-3.5,6.6,15.36,15.36,0,0,1-9.9,6.36,14,14,0,0,1-2.19.18,13.3,13.3,0,0,1-5.65-1.25,13.63,13.63,0,0,1-1.54-.84l-.87.13a14.3,14.3,0,0,1-1.64.1,13.67,13.67,0,0,1-5.32-1.08c-2.59-1.1-7.07-3.95-8.58-10.91-.14-.63-.26-1.26-.35-1.9a14.48,14.48,0,0,1-6.79-5.1,15.14,15.14,0,0,1-2.82-9.87,3.47,3.47,0,0,1-.25-.29,14.06,14.06,0,0,1-1.93-3.2l-2.84,0h-.56c-3.58,0-13.11,0-19.33-7.58a19.56,19.56,0,0,1-4.18-9.52,165.52,165.52,0,0,1-21.93,1.46c-4.34,0-8.65-.17-12.81-.51-1.5-.12-3-.28-4.5-.45l-.66-.07c-2.72-.33-5.6-.74-8.83-1.27l1.65-11.89-1.93,11.85c-2.58-.42-5.16-.87-7.73-1.32l-.48-.09-.15.53q-.19.69-.42,1.35c-.09.28-.18.54-.27.8-.18.51-.36,1-.54,1.43l-.28.67c-.21.49-.43,1-.67,1.46l-.28.59c-.24.49-.52,1-.8,1.53l-.23.4c-.29.53-.62,1.09-1,1.64l-.14.24a52.57,52.57,0,0,1-3.88,5.3c-3.71,4.45-7.51,9-11.57,13.42a43.91,43.91,0,0,1-5.83,6l.39.55a16.86,16.86,0,0,1,2.63,4.82,14.7,14.7,0,0,1-6.3,17.12,14.38,14.38,0,0,1-4.73,1.82c-.43.08-.86.15-1.3.19a15.67,15.67,0,0,1-9.4,4.54A15.35,15.35,0,0,1,99.84,212.79ZM288.41,52.54c-.25.47-.5.9-.76,1.34l-.2.34c-.29.5-.58,1-.88,1.49s-.78,1.19-1.17,1.76-.66.94-1,1.4-.87,1.14-1.32,1.7c-.33.4-.68.8-1,1.2q-.74.85-1.5,1.65c-.26.27-.52.53-.79.79l-.15.14A44.17,44.17,0,0,1,273,69.68l1,0c1,0,2.1-.06,3.18-.11a105.64,105.64,0,0,0,14-1.54l.21,0,1-.27a33.75,33.75,0,0,1,4.81-1l1.72-.49.18-.06a50.24,50.24,0,0,0,6-2.24l.68-.35a35.69,35.69,0,0,0,3.24-1.73l.41-.23.7-.49,1-.66c.57-.43,1.17-.93,1.7-1.42l.71-.69a22.34,22.34,0,0,0,1.52-1.72l.07-.08c.4-.5.78-1,1.13-1.54l.1-.15c.36-.54.68-1.07,1-1.62,0,0,.07-.12.08-.15a21.14,21.14,0,0,0,1.42-3.31c0-.14.16-.48.16-.48l.16-.52.06-.28a16.1,16.1,0,0,0,.35-1.76c0-.16,0-.33.05-.5a13.49,13.49,0,0,0,.07-1.72c0-.16,0-.32,0-.49s0-.48,0-.48-.09-.73-.09-.73c0-.19-.06-.34-.1-.5s-.12-.57-.14-.65-.08-.23-.11-.34a10.46,10.46,0,0,0-1.13-2.49,1.4,1.4,0,0,1-.1-.16l-.24-.36-.09-.12c-.15-.2-.25-.34-.36-.47s-.2-.24-.21-.24a4.06,4.06,0,0,0-.33-.37l-.18-.19c-.11-.12-.26-.26-.4-.4l-.57-.53c-.45-.38-.93-.76-1.42-1.11l-.05,0c-.57-.39-1.16-.78-1.77-1.13l-.21-.11c-.46-.26-.93-.5-1.41-.73l-.28-.14c-.46-.21-1-.44-1.6-.65s-1.14-.38-1.67-.53l-.45-.14a18.91,18.91,0,0,0-3.27-.54l-.21,0-.72,0c-.39,0-.77,0-1.16,0h-.6l-.25,0c-.22,0-.41.06-.58.1l-.16,0a4.66,4.66,0,0,0-.57.18,4.09,4.09,0,0,0-1.2.78l-.23.2a9.84,9.84,0,0,0-1.28,1.61l-.13.2a23.12,23.12,0,0,0-1.36,2.52c-.07.14-.14.29-.22.43-.53,1.16-1.08,2.5-1.69,4.15-.46,1.24-.9,2.47-1.33,3.68-.09.25-.19.51-.3.77s-.29.74-.44,1.1l-.12.3c-.51,1.26-1.06,2.51-1.64,3.71l-.14.3c-.21.44-.42.88-.63,1.29C288.53,52.32,288.48,52.43,288.41,52.54Z"/>
    <g>
      <g>
        <path class="cls-3" d="M135.22,108.2l11.1,3.39c0-.19,0-.39-.08-.58-1.38-8.25-7.74-13.65-16.19-17.35-5.37-2.36-10.75-4.71-16.23-6.83-3.9-1.91-8.89-3-13.11-4a2.2,2.2,0,0,1-.76-.3,1.48,1.48,0,0,1-.48-.82,21,21,0,0,1-.69-9.87,4.09,4.09,0,0,0,.1-1.48,2.83,2.83,0,0,0-2.38-2,2.41,2.41,0,0,0-2.62,1.35c-.44,1.21.45,2.56,1.11,3.8a12.84,12.84,0,0,1,1.54,5.32c0,.38,0,.84-.41,1s-1.07-.26-1.44-.66a25,25,0,0,1-4.82-6.44c-.69-1.57-.28-3.95-2.48-4.74a4.35,4.35,0,0,0-3.14.15,2.42,2.42,0,0,0-1.59,1.71c-.13,1,.7,2,1.63,2.65a22.48,22.48,0,0,1,2.83,2,9.23,9.23,0,0,1,1.26,1.75c1,1.72,2.17,3.44,3.11,5.2-1.39-.47-2.06-.07-3.34.09a28.54,28.54,0,0,1-5.44-.29,6.49,6.49,0,0,1-3.17-.83c-.52-.36-.9-.86-1.44-1.19-1.57-1-3.53-.08-5,.79-.86.53-1.81,1.37-1.3,2.26a2.64,2.64,0,0,0,1.66,1c5.18,1.36,11,0,15.63,2.59L82.22,88a3.79,3.79,0,0,1-1.54.22,6.41,6.41,0,0,1-1.59-.6,5.33,5.33,0,0,0-4-.06c-1,.41-1.72,1.36-1.24,2.26A3.2,3.2,0,0,0,76,91a16.31,16.31,0,0,0,8.59-.26c2.53-.82,5.2-2.31,7.84-1.28-1,1.47-2,2.94-3,4.4a3,3,0,0,1-.94,1c-.73.42-1.8.33-2.48.8-.91.63-.59,2.1.44,2.78a3.79,3.79,0,0,0,3.52.15,6,6,0,0,0,2.36-2.21,15.33,15.33,0,0,0,1.43-2.56c.69-1.54,1.25-3.31,2.92-4.1a6,6,0,0,1,4.43.05c2.74,1,5.22,3,7.63,4.52q4.23,2.61,8.59,5Q126,104.18,135.22,108.2Z"/>
        <path class="cls-3" d="M238.58,106.69l10.67,4.58c0-.19,0-.38,0-.58-.47-8.35-6.21-14.42-14.2-19-5.08-2.93-10.17-5.86-15.38-8.57-3.67-2.32-8.51-3.91-12.6-5.36a2.1,2.1,0,0,1-.73-.37,1.52,1.52,0,0,1-.38-.87,20.82,20.82,0,0,1,.4-9.88,4.31,4.31,0,0,0,.25-1.46,2.83,2.83,0,0,0-2.14-2.29,2.43,2.43,0,0,0-2.76,1.06c-.56,1.16.17,2.59.7,3.9a12.88,12.88,0,0,1,1,5.45c0,.39-.12.83-.52.94s-1-.37-1.36-.81a24.62,24.62,0,0,1-4.08-6.92c-.52-1.65.14-4-2-5a4.31,4.31,0,0,0-3.13-.19,2.41,2.41,0,0,0-1.76,1.52c-.25,1,.47,2,1.32,2.81A22.2,22.2,0,0,1,194.44,68a8.16,8.16,0,0,1,1.06,1.88c.85,1.83,1.78,3.66,2.53,5.51-1.34-.62-2-.3-3.33-.28a28.67,28.67,0,0,1-5.37-.89A6.45,6.45,0,0,1,186.26,73c-.47-.42-.79-1-1.3-1.34-1.45-1.13-3.5-.47-5,.24-.92.43-2,1.17-1.54,2.11A2.62,2.62,0,0,0,180,75.16c5,1.92,10.91,1.23,15.25,4.28l-7.09,1.32a3.72,3.72,0,0,1-1.56.06,6.72,6.72,0,0,1-1.51-.77,5.31,5.31,0,0,0-4-.5c-1,.3-1.86,1.16-1.48,2.11a3.22,3.22,0,0,0,2,1.48,16.39,16.39,0,0,0,8.57.68c2.61-.54,5.42-1.73,7.94-.41l-3.46,4a2.89,2.89,0,0,1-1,.89c-.77.34-1.82.13-2.55.52-1,.54-.82,2,.13,2.81a3.76,3.76,0,0,0,3.48.54,5.93,5.93,0,0,0,2.59-1.94,15.86,15.86,0,0,0,1.7-2.38c.86-1.46,1.61-3.16,3.35-3.76a6,6,0,0,1,4.4.53c2.61,1.27,4.85,3.57,7.09,5.33q3.91,3.06,8,6Q229.9,101.69,238.58,106.69Z"/>
        <path class="cls-4" d="M218.57,135.41c9.48-2.58,18.35-6.35,25.66-11.54a67.39,67.39,0,0,0,9.69-8.3c3-3.26,4.44-8,8.42-10.33-26,15.48-57,16.18-86.37,16.94-10.94.28-21.88.72-32.83,1-13.53.32-27.08.4-40.6-.39s-26.43-5.11-40.06-5.6a345.12,345.12,0,0,0-44,1.21c-14,1.27-.29,11.88,6.82,15a13.45,13.45,0,0,0,1.85.7c16.12,4.55,31.69,5.15,48.06,3.58s31.35-4.6,47.67-4.3c15.82.28,31.31,4.92,47.07,6.2C184.74,140.78,202.51,139.8,218.57,135.41Z"/>
        <path class="cls-5" d="M314.79,89.7l-.1.06c-9.28,5.5-19.43,9.26-29.15,13.9-10.53,5-20.55,11.06-31.2,15.88a167.81,167.81,0,0,1-67.43,14.71c-8.61.14-17.23-.12-25.81-.79-13.95-1.08-27.81-3.22-41.8-3.61-12.61-.36-25.3,2.72-37.84,1.57s-26.12-.74-39-2c-7.55-.74-27.27-1.73-30.18-10.89a6.77,6.77,0,0,1,1.26-5.9,18.38,18.38,0,0,1,4.67-4.1A137,137,0,0,1,40.51,96.17c6.21-2.72,9.45-10.71,16.07-12a14.11,14.11,0,0,1,9.87,2.12c4.59,2.8,11.48,1.36,16.64.94a56.45,56.45,0,0,1,22.18,2.4c5.21,1.68,10.36,3.66,15.77,4.63s8.88-.75,14.08-2.47a264.43,264.43,0,0,1,108.93-12.1c6,.6,12,1.41,18.05,1.75,18.07,1,45-.72,59-13.7,11.56-10.75,15.67-29.34,2.67-40.72-6.5-5.7-15.84-9.13-24.51-8.11-11.6,1.35-15.29,12.26-18.69,21.79-6.44,18.08-20.8,25.86-39.39,25-6.11-.27-6.49-5.89-.05-6.36,7.37-.54,15.31-.69,22.14-3.84,19.06-8.79,8.54-39.87,34.22-43.27,11.49-1.52,25,2.79,33.14,11.1C351.66,44.79,336.83,76.56,314.79,89.7Z"/>
        <path class="cls-3" d="M327.54,77c-8.52,7.16-18.75,11.91-28.8,16.49a132.77,132.77,0,0,1-22.47,8c-6.61,1.67-14.48,4.66-21.31,3.92a10.91,10.91,0,0,0-4.44-.07c-1.88.58-3.08,2.35-4.35,3.84-5.73,6.7-15.19,7.09-23.13,9.7-8.33,2.75-17.62,6.34-26.7,6.62a143.39,143.39,0,0,1-38.11,3.23,136.19,136.19,0,0,1-14.95-1.4c-3.42-.52-8-2.79-11.26-2.68-2.26.07-4.2,1.27-6.36,1.78a16.59,16.59,0,0,1-7,.09c-2.06-.43-5.61-2.94-2.56-5a2.32,2.32,0,0,0-2.24.81c-.58.61-1,1.37-1.57,2-1.44,1.5-3.71,1.78-5.78,2-8.81.82-17.45.68-26.27.72-1.11,0-2.63-.38-2.56-1.5.09-1.32,2.39-1.49,2.59-2.8-.53-.42-1.29-.08-1.87.26a34.74,34.74,0,0,1-11.73,4.64,16.63,16.63,0,0,1-12.14-2.34c-1.55-1.08-2.92-2.52-4.73-3.05-1-.28-2.26-.12-2.61.82s.32,2.1-.39,2.72a1.77,1.77,0,0,1-.84.33,38.55,38.55,0,0,1-12.59.22c-2.53-.38-9.31-.93-10.39-3.56a5.6,5.6,0,0,1-.16-3.22,1.94,1.94,0,0,0,0-1c-.22-.63-1-.83-1.67-.87-1.07-.06-2.16.06-3.23,0a4.93,4.93,0,0,1-3-1.06c-1.42-1.28-.92-3.64-.26-5.19a15.52,15.52,0,0,0-1.14,1.27,6.77,6.77,0,0,0-1.26,5.9c2.91,9.16,22.63,10.15,30.18,10.89,12.92,1.26,26.42.84,39,2s25.23-1.93,37.84-1.57c14,.39,27.85,2.53,41.8,3.61,8.58.67,17.2.93,25.81.79a167.81,167.81,0,0,0,67.43-14.71c10.65-4.82,20.67-10.85,31.2-15.88,9.72-4.64,19.87-8.4,29.15-13.9l.1-.06a56.69,56.69,0,0,0,19.5-19.82A44.75,44.75,0,0,1,327.54,77Z"/>
        <path class="cls-6" d="M277.91,81.53c-5.28.26-10.36.21-14.91,0,7.48,7.57,11.39,18.36,9.69,28.73,4.25-2.26,8.51-4.51,12.85-6.58l.5-.24C285.6,95.4,284.88,85.45,277.91,81.53Z"/>
        <path class="cls-6" d="M307.1,90.63a26,26,0,0,0-.71-5.42,13.69,13.69,0,0,0-2.08-4.38,7.19,7.19,0,0,0-1.12-1.28c-2.51-2.13-6.05-.64-9,.07,2.13,1.68,3.57,4.41,4.65,6.8A17.6,17.6,0,0,1,300,97.19a49.64,49.64,0,0,0,5.11-2.39,3.58,3.58,0,0,0,2-2.75A6.53,6.53,0,0,0,307.1,90.63Z"/>
        <path class="cls-6" d="M330.3,53.48A33.2,33.2,0,0,1,328,58.84a16.09,16.09,0,0,1,8.57,6.69,47.28,47.28,0,0,0,2.62-7.06C337.58,54.77,333.58,52.5,330.3,53.48Z"/>
        <path class="cls-6" d="M334,27.32c-3,.06-4.78,2.33-5.62,5.11a22.68,22.68,0,0,1,2.44,5.4,14,14,0,0,1,7.72-2.36A34.37,34.37,0,0,0,334,27.32Z"/>
        <path class="cls-6" d="M299.24,12.11a13.71,13.71,0,0,0,1.59,6.72,27.72,27.72,0,0,1,3.53,0,17.41,17.41,0,0,1,.39-6.75A39,39,0,0,0,299.24,12.11Z"/>
        <path class="cls-6" d="M290.09,23A15.9,15.9,0,0,1,295,20a18.6,18.6,0,0,1-1.39-6.87,19.87,19.87,0,0,0-5.95,2.8A12.11,12.11,0,0,0,290.09,23Z"/>
        <path class="cls-6" d="M280.35,41.2c.06-.16.13-.31.19-.47.45-1.27.91-2.56,1.39-3.84a18.22,18.22,0,0,1-5.07-1.68c-.43,1.39-.87,2.79-1.33,4.16A11.06,11.06,0,0,0,280.35,41.2Z"/>
        <path class="cls-6" d="M274.33,52.26A38.66,38.66,0,0,0,278,46.64a15.74,15.74,0,0,1-4.54-1.88,26.77,26.77,0,0,1-3.23,5.32A5.42,5.42,0,0,0,274.33,52.26Z"/>
        <path class="cls-6" d="M244.08,59.2l-3,.21c-6.44.47-6.06,6.09.05,6.36,1.15,0,2.26,0,3.38,0A20.88,20.88,0,0,1,244.08,59.2Z"/>
        <path class="cls-6" d="M250.34,65.38a41.88,41.88,0,0,0,7.06-1.5,15.12,15.12,0,0,1-1.67-6c-1.9.37-3.83.61-5.76.81A14.71,14.71,0,0,0,250.34,65.38Z"/>
        <path class="cls-6" d="M262.94,61.64a32.86,32.86,0,0,0,6.87-4.57,10.54,10.54,0,0,1-3.69-2.69c-.09-.1-.16-.21-.25-.31a19,19,0,0,1-2.63,1.5c-.69.32-1.39.58-2.1.84A7.8,7.8,0,0,0,262.94,61.64Z"/>
        <path class="cls-6" d="M284.25,31.32a36.85,36.85,0,0,1,2.09-3.82A16.46,16.46,0,0,1,282.66,21a38,38,0,0,0-4.07,8.73A11.86,11.86,0,0,0,284.25,31.32Z"/>
        <path class="cls-6" d="M310.49,12.91a11.9,11.9,0,0,0,0,7c.82.23,1.64.48,2.44.77a13.67,13.67,0,0,1,4.09-5.91A43.11,43.11,0,0,0,310.49,12.91Z"/>
        <path class="cls-6" d="M323.28,17.8c-2.53.93-4.69,3.05-4.93,5.41a33,33,0,0,1,5.39,3.84c.2.17.37.34.56.52a11.61,11.61,0,0,1,5.26-5.16A35.77,35.77,0,0,0,323.28,17.8Z"/>
        <path class="cls-6" d="M331.76,44.32a25.81,25.81,0,0,1-.15,3.16,14.31,14.31,0,0,1,9,3.64,35.71,35.71,0,0,0-.33-9.35C337.6,40,334.3,41.91,331.76,44.32Z"/>
        <path class="cls-6" d="M324.46,64.12c-.73.9-1.49,1.76-2.3,2.59a19.92,19.92,0,0,1,4.37,3.53,15.79,15.79,0,0,1,3.44,6q1.69-2.16,3.16-4.45A9.26,9.26,0,0,0,324.46,64.12Z"/>
        <path class="cls-6" d="M320.27,75.13a15.37,15.37,0,0,0-4.93-3.1A48.07,48.07,0,0,1,311,74.34a17.55,17.55,0,0,1,6.46,8.79,13,13,0,0,1,.57,4.43,54.67,54.67,0,0,0,4.75-3.75C323.16,80.62,322.73,77.55,320.27,75.13Z"/>
        <path class="cls-7" d="M78.94,113.08c.71,6.24-4.5,12-11.64,12.78s-13.5-3.6-14.21-9.84,4.5-12,11.64-12.78S78.23,106.83,78.94,113.08Z"/>
        <path class="cls-8" d="M77.08,113.29c.61,5.35-3.85,10.25-10,10.94S55.55,121.16,55,115.81s3.85-10.25,10-11S76.48,107.94,77.08,113.29Z"/>
        <path class="cls-9" d="M68.33,114.28a21.68,21.68,0,0,1-1.25,9.65A20.29,20.29,0,0,1,65,105.17,21.67,21.67,0,0,1,68.33,114.28Z"/>
        <path class="cls-5" d="M128.27,120.33c-1.92-1.71-4.31-2.15-7.25.24-3.3,2.68-1.65,5.82-.21,8.81.48,1,4.57,10.11,4.75,9.9a178.66,178.66,0,0,0-12,16.17q-2.78,4.22-5.31,8.57c-1.45,2.49-2.66,5.58-4.71,7.65a5.38,5.38,0,0,1-4.15,1.75c-2-.2-3.52-1.84-5-3.19a24,24,0,0,0-2.77-2.13,7.78,7.78,0,0,0-3.46-1.41,3.37,3.37,0,0,0-3.23,1.51A2.18,2.18,0,0,0,86,171.28c.9.23,1.86-.27,2.78-.11a4,4,0,0,1,1.44.68l5.26,3.46c-1.92,2.1-5.26,1.55-8.11,1.67a14.6,14.6,0,0,0-8.26,3,2.79,2.79,0,0,0-1.35,2.13c0,1.12,1.3,1.83,2.43,1.89a4.71,4.71,0,0,0,3.74-1.59,5.52,5.52,0,0,1,1.17-1.24,3.36,3.36,0,0,1,1.58-.35l7.67-.45c-3,4.45-9.18,5.28-13.31,8.68a2.34,2.34,0,0,0-1,1.65c0,1.12,1.38,1.65,2.49,1.87,1.82.37,4.15.53,5.1-1.07.33-.55.41-1.22.71-1.79a5.36,5.36,0,0,1,2.53-2.08,24.38,24.38,0,0,1,5-2.38c1.3-.33,2.15-.17,3.2-1.19.09,2.2,0,4.43-.05,6.63a9.38,9.38,0,0,1-.22,2.31,20.85,20.85,0,0,1-1.55,3.19,3.52,3.52,0,0,0-.07,3.4,3.15,3.15,0,0,0,2.44,1.18,4,4,0,0,0,3-1c1.64-1.68-.06-4-.28-5.92a25.71,25.71,0,0,1,1-8.58c.13-.56.41-1.25,1-1.24s.75.47.94.88a16,16,0,0,1,1.49,6.16c.06,1.55,0,3.3,1,4.4a2.71,2.71,0,0,0,3.22.41,2.67,2.67,0,0,0,1.12-3,5.2,5.2,0,0,0-.91-1.51,28.44,28.44,0,0,1-4.82-10.6,1.28,1.28,0,0,1,.56-1.64c3.43-2.64,7.56-5.65,10.19-9.14,4-4.32,7.76-8.84,11.53-13.36,5.92-7.1,8.94-15.19,5.67-24.36C133.28,129.23,131.38,123.11,128.27,120.33Z"/>
        <path class="cls-3" d="M111,159.43h.1a74.84,74.84,0,0,0,6-6.24c3.7-4.55,6.65-9.91,11.35-13.33-5.06-4.82-7.67-12.67-7.11-19.54l-.34.24c-3.3,2.68-1.65,5.82-.21,8.81.48,1,4.57,10.11,4.75,9.9a178.66,178.66,0,0,0-12,16.17C112.67,156.77,111.83,158.09,111,159.43Z"/>
        <path class="cls-5" d="M258.19,150.17A81.22,81.22,0,0,0,240.5,144c-.95-.22-7.18-2.2-7.55-1.73,7.91-9.95,16-20.15,20.21-32.13.73-2,1.26-4.57-.18-6.21a4.86,4.86,0,0,0-2.29-1.33c-8.6-2.71-15.06,4.33-19.55,10.6-5.65,7.91-9.52,16.91-13.33,25.8a26,26,0,0,0-2.19,6.77,8.83,8.83,0,0,0,1.59,6.75c2.41,2.93,6.72,3.21,10.52,3.18,4.51,0,9.32-.31,13.94-.15a51.86,51.86,0,0,1,8.07.53c.86.16,7.69,2.11,5.47,3.72a2.41,2.41,0,0,1-1.25.34l-10.61.83a2.12,2.12,0,0,0-1.61.62,1.49,1.49,0,0,0,.2,1.74c1,1.2,2.88,1.19,4.25.48a10.11,10.11,0,0,1,1.83-.92,4.93,4.93,0,0,1,1.58,0,16.86,16.86,0,0,1,4.48.87c-1.34,1.77-3.74,2.33-5.58,3.46a8.62,8.62,0,0,0-3.09,2.81,3.75,3.75,0,0,0,0,4,2.43,2.43,0,0,0,3.65.34c.67-.8.62-2,1.23-2.87a4.31,4.31,0,0,1,1.38-1.12l6-3.66c1.2,3-1,6.07-2.22,9a16.37,16.37,0,0,0-.92,9.8,3.15,3.15,0,0,0,1.5,2.4c1.16.49,2.48-.44,3.08-1.55a5.26,5.26,0,0,0,.19-4.55,5.92,5.92,0,0,1-.69-1.77,3.83,3.83,0,0,1,.41-1.77l3.23-8c3.08,5.14.92,11.83,2.38,17.64a2.58,2.58,0,0,0,1.16,1.84c1.15.53,2.33-.6,3.09-1.61,1.25-1.67,2.54-4,1.38-5.68-.4-.6-1-1-1.48-1.57a6.06,6.06,0,0,1-.88-3.57,27.68,27.68,0,0,1,0-6.17c.3-1.47.87-2.25.34-3.81,2.27,1,4.47,2.16,6.69,3.25a10.37,10.37,0,0,1,2.22,1.33,23.57,23.57,0,0,1,2.49,3.11,3.92,3.92,0,0,0,3.4,1.7,3.48,3.48,0,0,0,2.36-1.9,4.39,4.39,0,0,0,.42-3.58c-.91-2.46-4.08-1.86-6.12-2.56-3.07-1.06-5.69-3.13-8.2-5.12-1-.82-.48-1.89-.77-3-.95-3.76-5.42-6.31-8.48-8.15C260.9,151.59,259.56,150.85,258.19,150.17Z"/>
        <path class="cls-3" d="M259.31,151c1,.46,2.19,1,3.44,1.65l-.52-.31c-1.33-.79-2.67-1.53-4-2.21A81.22,81.22,0,0,0,240.5,144c-.95-.22-7.18-2.2-7.55-1.73,7.91-9.95,16-20.15,20.21-32.13.73-2,1.26-4.57-.18-6.21a3.92,3.92,0,0,0-1.1-.84c-.92,8.58-6.53,15.56-11.53,22.6-4.48,6.33-9.77,13.81-16.44,18.35C235.93,145.56,248.11,145.85,259.31,151Z"/>
        <g class="cls-10">
          <path class="cls-7" d="M261.45,96.75c.1-2-2.16-1.23-3.25-.82s.16,2,.87,2.29A1.79,1.79,0,0,0,261.45,96.75Z"/>
          <g>
            <path class="cls-7" d="M21.82,118.31a1.4,1.4,0,1,1-1.51-1A1.3,1.3,0,0,1,21.82,118.31Z"/>
            <path class="cls-7" d="M138.75,121.59a3.12,3.12,0,0,0,.68,1.41,5.66,5.66,0,0,0,3.55,1.25,3.41,3.41,0,0,0,1.77-.9c1.39-1.19,2.36-3.18,1.65-4.87C144.47,113.82,138.09,118,138.75,121.59Z"/>
            <path class="cls-7" d="M167.21,117.48c.62-1.57.39-4.71-1.73-5.15-1.27-.27-3.59,1.27-4.46,2.11-2,1.9-1.58,4.81,1,5.75C164.08,120.92,166.43,119.48,167.21,117.48Z"/>
            <path class="cls-7" d="M177.7,123.06c3.7.66,5-5.44,1.45-5.14C176.61,118.14,174,122.4,177.7,123.06Z"/>
            <path class="cls-7" d="M169.16,128.21a1.57,1.57,0,1,0-1.8-2.58c-1.64,1-.74,3.92,1.2,3A2.38,2.38,0,0,0,169.16,128.21Z"/>
            <path class="cls-7" d="M154.79,125.63c-1.8-1.64-4.78.4-2.7,1.93,1,.73,3.34.39,3.19-1.11A1.41,1.41,0,0,0,154.79,125.63Z"/>
            <path class="cls-7" d="M197.43,121.05c.56-4-3.5-3.19-5.56-1.58s-1.72,4.34.91,5a3.55,3.55,0,0,0,2.87-.68A4.16,4.16,0,0,0,197.43,121.05Z"/>
            <path class="cls-7" d="M205.26,122.81c-3.94-2.26-5.06,5.42-.32,3.45a2.3,2.3,0,0,0,1.17-1A2,2,0,0,0,205.26,122.81Z"/>
            <path class="cls-7" d="M187.34,129.8c4-3.15-5.05-5.4-4.09-.61C183.61,131,186.24,130.66,187.34,129.8Z"/>
            <path class="cls-7" d="M189,107c-3.37-3.86-7,1.25-3.92,4.53a2.27,2.27,0,0,0,1.09.73,2.42,2.42,0,0,0,1.94-.86,4.39,4.39,0,0,0,1.54-2A2.67,2.67,0,0,0,189,107Z"/>
            <path class="cls-7" d="M206.56,108.54c-2.55-3.65-9.09,4.25-2.46,4.78a2.43,2.43,0,0,0,1.22-.18,3.21,3.21,0,0,0,1.45-2.33A3,3,0,0,0,206.56,108.54Z"/>
            <path class="cls-7" d="M175.22,106.58c1.9-3.21-4.85-7-6.09-2.46-.86,3.11,2.8,4.77,5.17,3.34A2.59,2.59,0,0,0,175.22,106.58Z"/>
            <path class="cls-7" d="M155.83,107.9c-.53-4.45-6.48-2.11-6.92,1a4,4,0,0,0,2.39,3.57,3.1,3.1,0,0,0,2.18-.36A4.38,4.38,0,0,0,155.83,107.9Z"/>
            <path class="cls-7" d="M136.74,108.45c-1.78-3.71-7.35-1.34-7.12,2.24.09,1.41,2.06,3,3.39,3a3.94,3.94,0,0,0,2.37-1,4.17,4.17,0,0,0,1.63-2.18A3,3,0,0,0,136.74,108.45Z"/>
            <path class="cls-7" d="M131.23,118c-4.24-2.79-7.15,5.39-1.61,5.29a3.07,3.07,0,0,0,3-2.82A3,3,0,0,0,131.23,118Z"/>
            <path class="cls-7" d="M225.25,111.53c5-1.69,1.43-7.33-2.3-4.56S221.2,112.9,225.25,111.53Z"/>
            <path class="cls-7" d="M217.5,123.21c2.15-.67,3.51-4.72.83-5.75-1.71-.66-5.08,2.13-4.76,4C213.83,123,216.24,123.6,217.5,123.21Z"/>
            <path class="cls-7" d="M216.73,98.54c-3.88-4.6-10.18,6.72-3.51,6.25a4.24,4.24,0,0,0,2.67-1.55A5.56,5.56,0,0,0,217.2,101,2.82,2.82,0,0,0,216.73,98.54Z"/>
            <path class="cls-7" d="M200.17,100.66c-.19-3.19-2.76-3.32-5-1.82-3,2-.43,6.33,2.7,5.5A3.55,3.55,0,0,0,200.17,100.66Z"/>
            <path class="cls-7" d="M181.48,99c2.53,2.74,7.29-.32,5.82-3.77C185.51,91,178.56,95.8,181.48,99Z"/>
            <path class="cls-7" d="M166.27,95.22c-.88-4.21-5.78-.46-5.66,2.16.08,1.73,1.93,3.46,3.59,2.6A4.44,4.44,0,0,0,166.27,95.22Z"/>
            <path class="cls-7" d="M146.83,99.42c-1.52-5.15-9.22.64-4.37,3.17C144.53,103.67,147.58,102,146.83,99.42Z"/>
            <path class="cls-7" d="M132.08,99.17c-.93-3.35-5.25-2.67-6,.45-.8,3.47,3.45,2.86,5.18,1.49a2.23,2.23,0,0,0,.79-.91A1.65,1.65,0,0,0,132.08,99.17Z"/>
            <path class="cls-7" d="M121.31,104.14c-5.78-2.21-4.67,8.57.65,4.55a2.69,2.69,0,0,0,.67-3.67A3.17,3.17,0,0,0,121.31,104.14Z"/>
            <path class="cls-7" d="M115.6,97.06c1.09-3.69-6.81-3.54-5,.16C111.57,99.07,115,99,115.6,97.06Z"/>
            <path class="cls-7" d="M101.09,96.92c2.29,1.34,3.93-1.89,2.1-3.27S98.36,95.32,101.09,96.92Z"/>
            <path class="cls-7" d="M105.49,105.71c2.05,2,5.77,0,4.1-2.8C108.06,100.33,103,103.28,105.49,105.71Z"/>
            <path class="cls-7" d="M93,101.77c1.89-2.88-3.12-5.92-5.22-3.42-1.92,2.27-.12,4.94,2.57,4.74A3.42,3.42,0,0,0,93,101.77Z"/>
            <path class="cls-7" d="M92.44,92c1.09-2.17-2.56-3.16-3.8-1.6s-.06,2.23,1.55,2.45A2.16,2.16,0,0,0,92.44,92Z"/>
            <path class="cls-7" d="M107.72,114.34c-1.34-2-5.3-.79-4,1.48.69,1.16,3.24,1.53,4,.42A1.71,1.71,0,0,0,107.72,114.34Z"/>
            <path class="cls-7" d="M115.69,117c1.81,1.4,4.69-1.34,2.65-2.82C116.78,113.06,113.68,115.47,115.69,117Z"/>
            <path class="cls-7" d="M112.53,124.9c-.4-2.59-3.41-2-3.87.21-.4,2,1.71,2.89,3.2,1.82A2.07,2.07,0,0,0,112.53,124.9Z"/>
            <path class="cls-7" d="M93.3,110.75c-2.27-3.21-6.55,2.49-2,3.12a2.28,2.28,0,0,0,1.76-.42A2.06,2.06,0,0,0,93.3,110.75Z"/>
            <path class="cls-7" d="M82.17,93.07c-3.24-3.64-6.08,3.44-1.13,2.75A2,2,0,0,0,82.49,95,1.74,1.74,0,0,0,82.17,93.07Z"/>
            <path class="cls-7" d="M65.15,93.63c1.91.79,3.77-1.86,1.94-3.09C65.46,89.43,62.27,92.44,65.15,93.63Z"/>
            <path class="cls-7" d="M51.26,94.31c2.41-.47,1.27-3.79-1.23-2.77-1.44.59-1.3,1.73-.51,2.36A2.13,2.13,0,0,0,51.26,94.31Z"/>
            <path class="cls-7" d="M66.38,96.92c-.55-2.54-5.69.59-3.47,2.4C64.51,100.63,66.76,98.69,66.38,96.92Z"/>
            <path class="cls-7" d="M56.12,101.84c2.66-5.29-7.35.3-2.82,1.28A2.61,2.61,0,0,0,56.12,101.84Z"/>
            <path class="cls-7" d="M78.48,103.11c1.57-.94.48-3-.84-3.12-1-.09-3.47,1-3,2.25S77.61,103.63,78.48,103.11Z"/>
            <path class="cls-7" d="M30.47,109.64c1.8-2.84-1.62-3.45-3.58-2.45C24.5,108.4,28.17,113.27,30.47,109.64Z"/>
            <path class="cls-7" d="M41.14,102c.65,2.1,4.49,1.36,4.19-.84C45,98.64,40.39,99.51,41.14,102Z"/>
            <path class="cls-7" d="M46.45,108.11c-1.45-1-4.62,1.74-1.71,2.6C46.3,111.17,48.1,109.25,46.45,108.11Z"/>
            <path class="cls-7" d="M36.7,118.41c-.67-1.36-1.59-1.21-2.75-.74-.62.26-2.36.75-2.47,1.58s1.8,1.83,2.52,1.86a3.19,3.19,0,0,0,2.55-1.22,1.44,1.44,0,0,0,.3-.52A1.35,1.35,0,0,0,36.7,118.41Z"/>
            <path class="cls-7" d="M49.42,119c-.83-1.12-1.33-1.63-2.58-.91-.73.42-1.92,1.34-1.34,2.3.68,1.13,2.8.54,3.63,0a1,1,0,0,0,.56-.82A1.3,1.3,0,0,0,49.42,119Z"/>
            <path class="cls-7" d="M90.17,120.05c-.72-1.6-2.7-1.27-3.94-.55-3.17,1.84.17,4.55,2.67,3.28A2.26,2.26,0,0,0,90.17,120.05Z"/>
            <path class="cls-7" d="M155.86,90.79c-.71-2.54-5.66-1.31-4.54,1.06.61,1.29,2.94,1.34,3.92.58A1.61,1.61,0,0,0,155.86,90.79Z"/>
            <path class="cls-7" d="M176.72,88.88c2.13-1.13.69-4-1.63-2.94-1.34.63-2.94,2.17-.73,2.94A3,3,0,0,0,176.72,88.88Z"/>
            <path class="cls-7" d="M194.82,86c2.08-3.51-4-2.89-4.68-.5-.41,1.56,1.51,2.21,2.67,1.91A3.28,3.28,0,0,0,194.82,86Z"/>
            <path class="cls-7" d="M209.52,91.59c1-1.55-.7-3.44-2.25-3.31a3.24,3.24,0,0,0-2.84,3,2.5,2.5,0,0,0,.09,1,1.73,1.73,0,0,0,1.66,1,4.51,4.51,0,0,0,2-.62A3.29,3.29,0,0,0,209.52,91.59Z"/>
            <path class="cls-7" d="M226.23,89.78c-1.09-2.2-5.58-.68-4.34,2a2,2,0,0,0,2,1.14,3,3,0,0,0,1.72-1.16C226.07,91.2,226.56,90.44,226.23,89.78Z"/>
            <path class="cls-7" d="M218,82.6c.21-1.9-3-2.41-3.73-.72s.88,2.07,2.13,1.89C217.13,83.67,218,83.31,218,82.6Z"/>
            <path class="cls-7" d="M242.13,98.18c2.51-3-3.47-5.06-5.43-2.61a2.37,2.37,0,0,0,1.05,3.87,4.43,4.43,0,0,0,3.45-.61A2.79,2.79,0,0,0,242.13,98.18Z"/>
            <path class="cls-7" d="M250.93,101.16a2.16,2.16,0,0,0-.1-2.73c-.71-.54-1.9-.06-2.59.3-2.13,1.11-1.6,2.59.6,2.87A2.39,2.39,0,0,0,250.93,101.16Z"/>
            <path class="cls-7" d="M243.35,106.76c-.73-2.59-4.54-.52-4.32,1.41a2.12,2.12,0,0,0,2.61,1.55A2.55,2.55,0,0,0,243.35,106.76Z"/>
            <path class="cls-7" d="M237.9,115c-.73-2.6-4.54-.52-4.31,1.41a2.09,2.09,0,0,0,2.6,1.54A2.54,2.54,0,0,0,237.9,115Z"/>
            <path class="cls-7" d="M264.87,109.73c2.45-4-4.81-1.65-3.61.42C262,111.48,264.23,110.8,264.87,109.73Z"/>
            <path class="cls-7" d="M253.79,92.33c4.45-.62-1.75-5.41-2.32-1.57A1.19,1.19,0,0,0,252,92,2.72,2.72,0,0,0,253.79,92.33Z"/>
            <path class="cls-7" d="M244.44,87.8a1.82,1.82,0,0,0,.1-3c-1-.61-3.13.51-3.08,1.75S243.57,88.24,244.44,87.8Z"/>
            <path class="cls-7" d="M234,83.66c.47-2.17-2-1.41-3-1-1.62.7-.61,1.94.67,2.28A1.74,1.74,0,0,0,234,83.66Z"/>
            <path class="cls-7" d="M259.66,86.9c2.15.69,3.44-2.83,1-3C258.86,83.85,257.36,86.16,259.66,86.9Z"/>
            <path class="cls-7" d="M291.19,86c1.12-3.26-5.78-1.17-3.36.84A2.32,2.32,0,0,0,291.19,86Z"/>
            <path class="cls-7" d="M292.92,97.38c1-.63,1.49-3,0-3.2-1.19-.15-3,1.6-2.25,2.78A1.7,1.7,0,0,0,292.92,97.38Z"/>
            <path class="cls-7" d="M317.66,82.41c-.84-1.18-3.16-.61-2.91,1a1.61,1.61,0,0,0,2.66,1A1.55,1.55,0,0,0,317.66,82.41Z"/>
            <path class="cls-7" d="M308.86,82.59c-.1-1.75-3.23-1.64-3.13.07a1.61,1.61,0,0,0,2.76.87A1.33,1.33,0,0,0,308.86,82.59Z"/>
            <path class="cls-7" d="M324.3,77.43c2.5-1.54-1.48-4.67-2.5-1.85C321.18,77.27,323,78.24,324.3,77.43Z"/>
            <path class="cls-7" d="M328,65.76c2.83,1.63,2.72-3.29.27-1.81C327,64.66,327.3,65.38,328,65.76Z"/>
            <path class="cls-7" d="M336.67,56.74c1.45.54,2.33-1.56,1.28-2.49C336.34,52.84,334.68,56,336.67,56.74Z"/>
            <path class="cls-7" d="M335.87,42.58c1.25-2.83-3.68-1.51-2.32.15A1.4,1.4,0,0,0,335.87,42.58Z"/>
            <path class="cls-7" d="M329.91,25.56c-1.83-1.67-2.73,2.2-.5,1.58A1,1,0,0,0,329.91,25.56Z"/>
            <path class="cls-7" d="M298.58,14.37c-1.83-1.67-2.73,2.2-.5,1.58A1,1,0,0,0,298.58,14.37Z"/>
          </g>
        </g>
      </g>
      <path class="cls-11" d="M336.57,65.53h0c4.77-10.28,5.91-21.77,1.06-32.12l0,0a36.25,36.25,0,0,0-7-10c-6.49-6.59-16.32-10.65-25.85-11.29h-.18c-.83-.06-1.65-.09-2.47-.09H302c-.86,0-1.71,0-2.56.11h-.16c-.6.05-1.2.1-1.79.18a24.91,24.91,0,0,0-5.52,1.36l-.07,0c-10.06,3.79-12.49,13.42-15.39,22.74-.27.85-.53,1.7-.81,2.55a54.08,54.08,0,0,1-2.39,6.08l-.48,1c-.06.13-.13.24-.19.36a25.8,25.8,0,0,1-2.42,3.72h0a18.87,18.87,0,0,1-4.31,4h0c-.4.26-.81.52-1.24.77s-.83.46-1.27.67l-.12.06c-.69.31-1.39.58-2.1.84h0a36.1,36.1,0,0,1-5.41,1.49h0c-1.9.38-3.83.62-5.76.82v0c-2,.19-3.93.33-5.88.46h0c-1,.07-2,.13-3,.21-3.21.23-4.73,1.75-4.67,3.25s1.68,3,4.73,3.1h0c.71,0,1.41,0,2.11,0,15.41.13,27.7-5.92,34.66-19.16h0a45.8,45.8,0,0,0,2.4-5.44h0c.06-.16.13-.31.19-.48.45-1.26.91-2.55,1.39-3.83h0c.7-1.88,1.45-3.76,2.31-5.56h0a36.85,36.85,0,0,1,2.09-3.82h0a21.48,21.48,0,0,1,3.74-4.5h0A15.88,15.88,0,0,1,295,20h0a17.34,17.34,0,0,1,4.27-1.06c.53-.06,1.06-.1,1.6-.13v0a25.85,25.85,0,0,1,3.52,0,31.19,31.19,0,0,1,6.17,1.09h0c.82.23,1.64.49,2.44.78a34.68,34.68,0,0,1,5.39,2.49c1,.56,1.91,1.16,2.81,1.8h0c.9.64,1.76,1.32,2.58,2h0l0,0,.53.49h0a24.37,24.37,0,0,1,4.05,4.87h0a22.68,22.68,0,0,1,2.44,5.4h0a23.76,23.76,0,0,1,1,6.48v0a28,28,0,0,1-.15,3.16h0a29.44,29.44,0,0,1-1.32,6h0A32.6,32.6,0,0,1,328,58.79a35.28,35.28,0,0,1-3.55,5.33h0c-.73.89-1.49,1.76-2.3,2.58h0c-.36.36-.72.72-1.09,1.06a35.87,35.87,0,0,1-5.7,4.29l0,0A48.07,48.07,0,0,1,311,74.34l0,0a63.79,63.79,0,0,1-11.66,4.13,32.16,32.16,0,0,0-5.19,1.12l0,0a116.24,116.24,0,0,1-16.47,1.89c-1.17.06-2.33.1-3.48.13h-.38l-3.54,0h-.24c-1.19,0-2.37,0-3.51-.06h-.14c-1.19,0-2.35-.08-3.48-.14h0l-.89,0c-6-.33-12-1.14-18.06-1.74a261.68,261.68,0,0,0-34.52-1.11l-2.47-.87a2.1,2.1,0,0,1-.73-.37,1.57,1.57,0,0,1-.39-.87,21.08,21.08,0,0,1,.4-9.88,4.11,4.11,0,0,0,.26-1.47,2.83,2.83,0,0,0-2.15-2.28,2.42,2.42,0,0,0-2.75,1.06c-.56,1.15.17,2.59.7,3.89a13.11,13.11,0,0,1,.95,5.46c0,.39-.12.83-.52.94s-1-.38-1.36-.81a24.94,24.94,0,0,1-4.09-6.93c-.51-1.64.15-4-1.95-5a4.36,4.36,0,0,0-3.13-.19,2.44,2.44,0,0,0-1.77,1.52c-.24,1,.48,2,1.33,2.82A22.2,22.2,0,0,1,194.45,68a8.71,8.71,0,0,1,1.06,1.87c.85,1.83,1.78,3.66,2.53,5.51-1.34-.61-2-.29-3.34-.28a27.87,27.87,0,0,1-5.36-.88A6.43,6.43,0,0,1,186.27,73c-.47-.41-.8-1-1.3-1.34-1.45-1.12-3.5-.47-5,.25-.91.43-2,1.16-1.54,2.1A2.65,2.65,0,0,0,180,75.16c5,1.91,10.91,1.23,15.25,4.28l-.44.08c-3,.27-6,.58-9,1-.25-.13-.48-.29-.73-.42a5.28,5.28,0,0,0-4-.5c-.86.26-1.63,1-1.57,1.74q-4.4.64-8.76,1.44a265,265,0,0,0-35.63,9.08c-1.92.64-3.61,1.27-5.24,1.77-5.32-2.33-10.64-4.66-16.06-6.76-3.9-1.9-8.89-3-13.11-3.95a1.94,1.94,0,0,1-.76-.29,1.48,1.48,0,0,1-.48-.82,20.91,20.91,0,0,1-.69-9.87,4.09,4.09,0,0,0,.1-1.48,2.83,2.83,0,0,0-2.39-2,2.41,2.41,0,0,0-2.62,1.35c-.43,1.21.46,2.56,1.12,3.8a12.75,12.75,0,0,1,1.54,5.32c0,.38,0,.84-.41,1s-1.07-.26-1.44-.66a25,25,0,0,1-4.82-6.44c-.69-1.57-.28-3.95-2.49-4.74a4.32,4.32,0,0,0-3.13.15,2.43,2.43,0,0,0-1.59,1.7c-.13,1,.7,2,1.63,2.65a23.61,23.61,0,0,1,2.83,2,9.23,9.23,0,0,1,1.26,1.75c1,1.72,2.17,3.44,3.11,5.2-1.4-.47-2.06-.07-3.34.09a28.56,28.56,0,0,1-5.44-.3,6.37,6.37,0,0,1-3.17-.82c-.52-.36-.9-.86-1.44-1.19-1.57-1-3.53-.08-4.95.79-.86.53-1.81,1.37-1.3,2.26a2.61,2.61,0,0,0,1.66,1c5.18,1.36,11,0,15.63,2.59l-4.27,1.29c-.59,0-1.18,0-1.77.1-1.2.1-2.49.26-3.83.4l-.17-.08a5.33,5.33,0,0,0-4-.06,2.7,2.7,0,0,0-.75.49,14.64,14.64,0,0,1-7.89-1.69,14.16,14.16,0,0,0-9.87-2.11c-6.62,1.26-9.86,9.25-16.07,12a137,137,0,0,0-22.34,12.36A20.51,20.51,0,0,0,14.05,112a7.36,7.36,0,0,0-.54.64,6.77,6.77,0,0,0-1.26,5.9,6.93,6.93,0,0,0,.82,1.74c-3,3.53,6.66,10.65,12.26,13.14a13.53,13.53,0,0,0,1.86.7c16.12,4.54,31.69,5.15,48.06,3.57,16.14-1.55,31.2-4.55,47.41-4.29.08.16.16.33.23.5,1.1,2.38,2.28,4.88,2.6,5.33,0,.05.06.08.07.06a180.46,180.46,0,0,0-12,16.17q-2.77,4.22-5.31,8.57c-1.46,2.49-2.66,5.58-4.71,7.65a5.34,5.34,0,0,1-4.15,1.74c-2-.19-3.53-1.83-5-3.18a22.89,22.89,0,0,0-2.77-2.13,7.66,7.66,0,0,0-3.46-1.41,3.37,3.37,0,0,0-3.23,1.51A2.18,2.18,0,0,0,86,171.28c.9.23,1.86-.28,2.78-.12a4.17,4.17,0,0,1,1.44.69l5.26,3.46c-1.92,2.1-5.26,1.55-8.11,1.66a14.61,14.61,0,0,0-8.26,3,2.79,2.79,0,0,0-1.35,2.13c0,1.12,1.3,1.83,2.43,1.89A4.71,4.71,0,0,0,84,182.42a5.49,5.49,0,0,1,1.16-1.24,3.43,3.43,0,0,1,1.59-.35l7.67-.46c-3,4.46-9.18,5.28-13.31,8.69a2.3,2.3,0,0,0-1,1.64c0,1.13,1.38,1.65,2.48,1.88,1.83.37,4.16.53,5.11-1.07.33-.55.41-1.22.7-1.8a5.42,5.42,0,0,1,2.54-2.07,24.42,24.42,0,0,1,5-2.39c1.3-.32,2.15-.16,3.2-1.18.09,2.2,0,4.43,0,6.63a9.38,9.38,0,0,1-.22,2.31,20.85,20.85,0,0,1-1.55,3.19,3.49,3.49,0,0,0-.07,3.4,3.15,3.15,0,0,0,2.44,1.18,4,4,0,0,0,3-1c1.64-1.68-.06-4-.28-5.92a26,26,0,0,1,1-8.58c.13-.56.42-1.25,1-1.24s.74.47.94.88a16,16,0,0,1,1.49,6.16c.06,1.54,0,3.3,1.05,4.4a2.71,2.71,0,0,0,3.22.41,2.67,2.67,0,0,0,1.12-3,5.43,5.43,0,0,0-.91-1.51,28.44,28.44,0,0,1-4.82-10.6,1.27,1.27,0,0,1,.56-1.64c3.43-2.65,7.56-5.65,10.19-9.14,4-4.32,7.76-8.84,11.53-13.36,5.46-6.55,8.44-13.94,6.31-22.23,11.68,1.49,23.27,4.3,35,5.26,14.76,1.19,32.53.2,48.59-4.18l.89-.26L217.82,139a26,26,0,0,0-2.19,6.77,8.8,8.8,0,0,0,1.59,6.75c2.41,2.93,6.72,3.21,10.52,3.18,4.51,0,9.31-.31,13.94-.15a51.94,51.94,0,0,1,8.07.53c.86.16,7.68,2.1,5.47,3.72a2.34,2.34,0,0,1-1.25.33l-10.61.84a2.11,2.11,0,0,0-1.61.62,1.49,1.49,0,0,0,.2,1.74c1,1.2,2.88,1.19,4.25.48a9.51,9.51,0,0,1,1.83-.92,4.66,4.66,0,0,1,1.58,0,16.71,16.71,0,0,1,4.47.87c-1.33,1.77-3.73,2.33-5.57,3.45a8.56,8.56,0,0,0-3.09,2.82,3.74,3.74,0,0,0,0,4,2.44,2.44,0,0,0,3.65.35c.67-.8.62-2,1.23-2.87a4.31,4.31,0,0,1,1.38-1.12l6-3.67c1.2,3-1,6.08-2.22,9a16.46,16.46,0,0,0-.93,9.8,3.15,3.15,0,0,0,1.51,2.39c1.16.5,2.48-.43,3.08-1.54a5.26,5.26,0,0,0,.19-4.55,5.92,5.92,0,0,1-.69-1.77,3.8,3.8,0,0,1,.41-1.77q1.61-4,3.23-8c3.08,5.14.92,11.82,2.37,17.64a2.62,2.62,0,0,0,1.17,1.84c1.15.53,2.33-.6,3.09-1.61,1.25-1.67,2.54-4,1.38-5.68-.4-.6-1-1-1.48-1.58a6,6,0,0,1-.88-3.56c-.07-2-.42-4.22,0-6.17.3-1.47.87-2.25.34-3.81,2.27,1,4.47,2.16,6.68,3.25a10.44,10.44,0,0,1,2.23,1.33,23.57,23.57,0,0,1,2.49,3.11,3.92,3.92,0,0,0,3.4,1.7,3.5,3.5,0,0,0,2.36-1.9,4.43,4.43,0,0,0,.42-3.58c-.91-2.46-4.08-1.86-6.13-2.56-3.06-1.06-5.68-3.13-8.19-5.13-1-.81-.49-1.88-.77-3-.9-3.56-4.93-6-8-7.84h0l-.52-.31c-1.33-.79-2.67-1.53-4-2.21a71.71,71.71,0,0,0-8.65-3.6c-3-1-6-1.85-9-2.58-.95-.22-7.18-2.2-7.55-1.73,2-2.49,4-5,5.9-7.53a131.12,131.12,0,0,0,8.35-12.17c2.4-1,4.78-2,7.14-3,2.67-1.21,5.29-2.49,7.89-3.81,3.52-1.79,7-3.65,10.48-5.5,1.92-1,3.85-2,5.79-3l1.1-.56c2-1,3.94-2,5.94-3,4.76-2.27,9.61-4.33,14.42-6.48v0c1.5-.65,3-1.3,4.45-2.06,2.28-1.08,4.54-2.19,6.76-3.39,1.19-.64,2.36-1.3,3.52-2l.1-.06c.88-.53,1.74-1.09,2.59-1.67l.67-.46c.73-.52,1.45-1,2.16-1.6l.36-.28c.84-.66,1.65-1.35,2.45-2.07l.39-.35c.71-.65,1.42-1.32,2.1-2l.3-.3a59,59,0,0,0,4.46-5.13l.15-.19q1.43-1.87,2.7-3.86h0c.39-.62.77-1.23,1.13-1.86l0,0h0q1.24-2.13,2.28-4.35Z"/>
    </g>
  </g>
</svg>
