<svg id="Layer_1" data-name="Layer 1" xmlns="http://www.w3.org/2000/svg" width="306.31" height="168.27" viewBox="0 0 306.31 168.27">
  <defs>
    <style>
      .cls-1 {
        opacity: 0.5;
      }

      .cls-2 {
        fill: #ff0;
      }

      .cls-3 {
        fill: #09152b;
      }

      .cls-4 {
        fill: #fff;
      }

      .cls-5 {
        fill: #dbdbdb;
      }

      .cls-6 {
        fill: #f1ac31;
      }

      .cls-7 {
        fill: #fbdd91;
      }

      .cls-8 {
        fill: #e2a225;
      }

      .cls-9 {
        fill: #f5c674;
      }

      .cls-10 {
        fill: #fde2a1;
      }

      .cls-11 {
        fill: #fbde95;
      }

      .cls-12 {
        fill: #ffecbf;
      }

      .cls-13 {
        fill: #c28b2c;
      }

      .cls-14 {
        fill: #9c722a;
      }

      .cls-15 {
        fill: #0b8040;
      }

      .cls-16 {
        fill: #0c8743;
      }

      .cls-17 {
        fill: #069046;
      }

      .cls-18, .cls-19, .cls-20, .cls-21 {
        fill: none;
      }

      .cls-18, .cls-20 {
        stroke: #204f26;
      }

      .cls-18 {
        stroke-width: 2.09px;
      }

      .cls-19, .cls-21 {
        stroke: #000;
      }

      .cls-19 {
        stroke-width: 0.11px;
      }

      .cls-20 {
        stroke-width: 1.36px;
      }

      .cls-21 {
        stroke-width: 0.07px;
      }
    </style>
  </defs>
  <g>
    <path class="cls-1" d="M155.85,168.27c-38.75,0-75.29-4.79-102.89-13.48C13.64,142.41,5.38,126.32,5.38,115S13.64,87.58,53,75.2a258.68,258.68,0,0,1,34.29-8c3.72-3,7.22-5.89,9.21-7.66C107.13,50,152.81,8.71,153.27,8.29a8.58,8.58,0,0,1,3.73-2l.18-.05a26,26,0,0,1,6.45-.89c6.9,0,17.26,2.71,41.74,22.81C217,37.77,229.7,51.62,243,69.35l1.62,1.94c5,1.21,9.71,2.52,14.12,3.91,39.32,12.38,47.57,28.47,47.57,39.8C306.31,150,230.62,168.27,155.85,168.27Z"/>
    <path class="cls-2" d="M150.47,162.89c-38.75,0-75.29-4.79-102.9-13.48C8.25,137,0,120.94,0,109.61S8.25,82.2,47.57,69.82a257.28,257.28,0,0,1,34.3-8c3.71-3,7.22-5.89,9.21-7.67,10.67-9.53,56.35-50.8,56.81-51.22a8.6,8.6,0,0,1,3.73-2l.18,0A26,26,0,0,1,158.25,0c6.9,0,17.26,2.71,41.74,22.81,11.67,9.58,24.33,23.43,37.63,41.16l1.61,1.94c5,1.21,9.72,2.52,14.13,3.91,39.32,12.38,47.57,28.47,47.57,39.79C300.93,144.59,225.24,162.89,150.47,162.89Z"/>
    <g>
      <path class="cls-3" d="M292.32,109.61c0,24.67-63.51,44.67-141.86,44.67-37.62,0-73.7-4.71-100.3-13.08S8.61,121.46,8.61,109.61s15-23.2,41.55-31.58S112.84,65,150.46,65,224.17,69.66,250.77,78,292.32,97.77,292.32,109.61Z"/>
      <ellipse class="cls-4" cx="150.52" cy="105.67" rx="39.76" ry="135.43" transform="translate(44.64 256.05) rotate(-89.92)"/>
      <path class="cls-5" d="M153.66,9.3s-46,41.59-56.84,51.25-58.25,45.37-57.31,50.83,0,17.23,52.14,19.75,82.21.42,76.57,3.78-7,8.4,6.11,7.14,9.86-3.78,18.79-1.26,12.68-3.36,8.45-6.72,13.63-3.78,32-7.14,24-15.13,21.13-21.43-31.47-52.51-60.12-76S158.83,8,153.66,9.3Z"/>
      <path class="cls-6" d="M147.48,15.87s-94.43,85.69-104.09,90.7C31.73,112.6,56,123.14,99,128.33c43.25,5.22,117.33,4.83,142.19-7.57,16.71-8.34,13.91-12.75,12.44-16.78-2-5.42-11.85-6.82-23.94-22.49C208.56,54.18,162.81-.35,147.48,15.87Z"/>
      <path class="cls-7" d="M151.21,12.19S55.54,99.26,45.57,104.38s4,15.36,48.84,21.34,109.63,2.56,137.53-6,27.91-14.51,6-41.82S167.16-4,151.21,12.19Z"/>
      <path class="cls-8" d="M109.69,120c-6.6-.45-51.32-13.13-55.22-9.81s24.73,10.72,36.59,12.53,54.72,4.37,59.8,5.43-25.58,2.41-41.17-.15S57.18,122.82,47.86,113s3.39-8.9,15.93-5.74,44,9.66,48.28,10.87S129.51,120.86,109.69,120Z"/>
      <path class="cls-8" d="M70.18,91c-12.5,3.45-19.08,9.88-10.64,6.44s16.89-4,28.72-2.24,91,20.5,111.14,21.1,24.49-2.55,23.31-2.55-14.53,3.75-56.92-4.49S101.65,95.2,84.54,91C77.78,89.39,70.18,91,70.18,91Z"/>
      <path class="cls-6" d="M48.88,111.2c-2-6,2.71-8.45,29.14.6s101,15.09,134.84,9.66,39.78-13.72,40.5-16.07-11,20.06-83.13,16.86S62,103.47,56.68,103.47s-15.18,1.47-15.18,4.89c0,2.59,7.18,8,9,7.1C51.05,115.16,49.25,112.59,48.88,111.2Z"/>
      <path class="cls-6" d="M53.21,98.68S63.45,88,75.64,87.36,200,126.89,228.1,110.9C246.29,100.55,251,98.47,252,98.34c.08,0,.1.07.12.09s.07.15,0,.17a2.85,2.85,0,0,1-.26.23c-.36.16-18.79,12.36-30.51,15.79-10.68,3.13-48.25-2-62.74-5.6S86.86,91.33,72,91c-8.22-.19-22.6,11.93-20.41,9C51.8,99.76,52.73,99.21,53.21,98.68Z"/>
      <path class="cls-9" d="M177.11,17s-11.44,8.09-29.82,11.37,6.13,1.52,18.38-4.55,12.38-6.55,12.38-6.55Z"/>
      <path class="cls-9" d="M117.58,43.51s3.12,3.17,19.79,6.34,22.56,5.82,22.56,5.82S123.09,48.8,116.46,44C116.46,44,116.24,43.82,117.58,43.51Z"/>
      <path class="cls-9" d="M113.24,47s33.84,17.39,38.25,19.72a54.37,54.37,0,0,0,7.92,3.46s-5.35-.83-16.28-6.8-26.87-13.11-28.65-14S110,48.49,113.24,47Z"/>
      <path class="cls-9" d="M109,51.44s21,15.48,25.69,18.5,4.61,5.59,1.87,2.1-14.17-8.5-18.12-11.52-11.75-8.26-11.75-8.26S107,51.68,109,51.44Z"/>
      <path class="cls-10" d="M176.94,22.17c-22.52,8.1-17.73,11.09-36.89,13.65s-2.4,13.66,15.33,13.66,25.87,5.55,10.54,8.11S141.49,55,148.67,60.15,178.38,75.09,165,76.8,139.09,61,143.4,69.11s5.75,17.08-6.23,10.67-20.6-20.06-33.06-15.36S78.24,80.64,89.26,84.05s80.5,26,98.7,26.46,0-21.76,11.5-20.91,5.27-21.34,11.5-23.47S209,49.91,197.07,38,187.48,20.46,176.94,22.17Z"/>
      <path class="cls-11" d="M212.52,52.65c2.71,14.49,7.45,6,2,15.69s0,14.79-6.44,18.71-6.77,5.14-8.47,13.89-8.13,11.77-2.37,11.77,24.73,1.2,37.27-7.25,17.62-5.43,8.13-19.31S215.23,53.56,212.52,52.65Z"/>
      <path class="cls-10" d="M207.61,119.05c-52.71-8.54-104-21.34-128.41-21.77s-38.33,3.42,1,10.25S153,119.9,166.4,120.33,221.5,120.76,207.61,119.05Z"/>
      <path class="cls-10" d="M55.24,112.22c3.36,4.27,3.36,3.84,20.61,7.68s68,9,89.11,7.69,11.5-2.14-7.66-2.56-75.7-7.69-89.12-12.81S50.45,109.23,55.24,112.22Z"/>
      <path class="cls-11" d="M177.62,32.73c-43.36.6-8.13,12.07,4.75,12.07s21,14.49-4.07,15.09,21.68,6,10.16,15.7,10.17,16.29-23,13.88-52.18-4.83-25.75,2.41,26.42,16.3,37.26,13.89-3.38-4.83,8.14-9.06,1.35-14.48,8.8-16.29S190.5,61.1,198,56.27,195.24,44.8,187.79,40,200,30.32,177.62,32.73Z"/>
      <path class="cls-12" d="M223.42,90.88c-11,.85-7.67,1.28-2.88,3s3.36,7.68,8.15,1.28S227.73,91.31,223.42,90.88Z"/>
      <path class="cls-12" d="M216.23,68.69c0,1.7-2.39,11.09,3.35,5.12S224.86,63.14,216.23,68.69Z"/>
      <path class="cls-12" d="M98.37,71.67s6.22,3.85,3.83,6.41,1,3.41,1,3.41-5.27-5.12-9.59-3.84S87.82,64.42,98.37,71.67Z"/>
      <path class="cls-12" d="M112.74,86.19c0,3.41,9.58,5.12,9.58,5.12s-3.35-3-.48-4.7-1.43-2.13-4.79-1.28S113.7,82.34,112.74,86.19Z"/>
      <path class="cls-12" d="M144.84,94.72c-2.87,5.55,2.88,5.55,6.71,5.55s4.31-1.28,4.79-3.41-6.23-3.42-6.71-.43S147.72,93.87,144.84,94.72Z"/>
      <path class="cls-12" d="M177.42,102.83c12.94.43,19.65-4.69,14.85-.43s-13.89,2.14-13.89,2.14,10.06,4.69,1.92,3S171.19,103.26,177.42,102.83Z"/>
      <path class="cls-12" d="M189.4,44.36c-.48,8.54,7.67,9.82,7.67,9.82s-6.23-1.71-3.84-2.56,3.36-5.55,1-6S192.75,40.09,189.4,44.36Z"/>
      <path class="cls-12" d="M176.46,61.86s6.23,5.12-1,6-6.7-1.28-3.35,3.42,2.4,5.55,5.27,2.13,3.83-1.28,4.79-4.27S186.52,61.43,176.46,61.86Z"/>
      <path class="cls-12" d="M143.88,41c-3.35,1.7-.48,6,2.4,6.4s4.31,1.7,4.31-1.28S150.59,38.81,143.88,41Z"/>
      <path class="cls-8" d="M173.56,28.2c-2,2.72-2,5.13.67,3S177.28,27.6,173.56,28.2Z"/>
      <path class="cls-8" d="M134.6,34.24c-3.39,1.21-.68,2.11-3,3.62s2.37,3,2.71,1.51S138.66,33.94,134.6,34.24Z"/>
      <path class="cls-8" d="M141.71,34.54c-1.36,2.42,1.35,3.62,3,.91S140.69,30.92,141.71,34.54Z"/>
      <path class="cls-8" d="M191.85,62.91c-1,4.83,4.07,4.83,4.07,4.83s.34.91.34-1.51S191.85,62.91,191.85,62.91Z"/>
      <path class="cls-8" d="M212.52,107c-4.07,4.23,1.69,6,2,4.53s-1.35-3.32.34-3.92S215.23,105.77,212.52,107Z"/>
      <path class="cls-8" d="M115.62,75.28c.34,2.72-2,3.93,2,2.72s4.06-2.11,4.06-2.11S117,76.79,115.62,75.28Z"/>
      <path class="cls-8" d="M82.08,82.53a8.89,8.89,0,0,0,3.73.9c2,0-2.71,2.12,1.35,3s5.76,1.81,4.75,0-2.71-3-3-4.22-3-2.12-3.73-.91S81.4,80.11,82.08,82.53Z"/>
      <path class="cls-13" d="M189.65,85.24c-11.39.91-9.53,1.51-8.37,2.42s-.23,3,1.86,1.81.47-1.51,2.1-1.21a14.67,14.67,0,0,0,2.09.3S193.14,87.36,189.65,85.24Z"/>
      <path class="cls-8" d="M228.78,83.73c-5.08.91-4.74,2.72-1.69,2.72s2.37,1.81,3,0S231.49,83.13,228.78,83.73Z"/>
      <path class="cls-8" d="M239.28,96.71c-5.42.61-5.42,5.13-3.72,4.83s0-1.51,3.38-3S241,97.32,239.28,96.71Z"/>
      <path class="cls-13" d="M154.92,85.85c-3,.6.34,0,1,1.51s.68,3.32,2.71,1.81,1-.3,2-2.12,2.37-3,1-3.32-4.07-.9-4.07,1.51S157.29,85.24,154.92,85.85Z"/>
      <path class="cls-14" d="M167.6,43.72c-1,.85-.72,4.27.72,3.2S168.56,43.93,167.6,43.72Z"/>
      <path class="cls-14" d="M155.86,61.65c0,3.2.72,3.84.72,1.92S157.54,61.86,155.86,61.65Z"/>
      <path class="cls-14" d="M114.66,67c-1.68.21-.48,6,1,4s2.64-2.34,1.44-2.56A3.13,3.13,0,0,1,114.66,67Z"/>
      <path class="cls-14" d="M205.21,79.36c-2.16,2.34-3.35,3.41-1.68,2.77S206.65,80.64,205.21,79.36Z"/>
      <path class="cls-14" d="M199.46,96.64c0,2.14,0,5.34,2.16,1.71S200.42,96.86,199.46,96.64Z"/>
      <path class="cls-14" d="M191.32,37.74c-1.92,0-2.4,1.07,0,1.28s3.83-1.28,2.39-1.28Z"/>
      <path class="cls-15" d="M187.68,133.59s2.41,4.72-7,5.7a114,114,0,0,1-12.14.88s-1-6.1,6.6-8.13S182.64,135,187.68,133.59Z"/>
      <path class="cls-16" d="M186.85,133.82S189,138,180.6,138.9a105.26,105.26,0,0,1-10.82.79s-.91-5.44,5.89-7.25S182.37,135.06,186.85,133.82Z"/>
      <path class="cls-17" d="M185.7,135.08c-.25.8-.95,1.21-4.36,2.51s-5.58-.24-9.33.75.73-.21.8-1.48a4.76,4.76,0,0,1,6.22-3.33C182.87,134.77,183.43,135.78,185.7,135.08Z"/>
      <path class="cls-18" d="M187.65,133.62a23,23,0,0,1-6.26,2.26c-3.16.55-12.89,4.3-12.89,4.3"/>
      <path class="cls-19" d="M168.68,137.7a5.26,5.26,0,0,1,1.91.12,20.78,20.78,0,0,0,3.67.15s-.87,1.62-.35,1.53.32.25.32.25"/>
      <path class="cls-19" d="M169.24,136.37s3.55-.19,4.69.35a7.3,7.3,0,0,0,2.63.55s-.38,1.42.06,1.8-.5.67-.5.67"/>
      <path class="cls-19" d="M179.16,136.54s-4.61-2.13-6.56-1.8a6.43,6.43,0,0,1-2.46.17"/>
      <path class="cls-19" d="M179.37,136.64s-.34,1.09-.16,1.32-.78,1.34-.78,1.34l.19.27"/>
      <path class="cls-19" d="M171.75,133.51s2.16-.06,3.15-.2a9,9,0,0,1,4.39.82c.92.62,2.71,1.64,2.71,1.64s1.41,1.14,1.17,1.74.55,1.27.55,1.27"/>
      <path class="cls-15" d="M189.28,134.83s-1.41,3.41,4.09,4.11a52.39,52.39,0,0,0,7.08.64,5.49,5.49,0,0,0-3.85-5.87C192.15,132.25,192.22,135.83,189.28,134.83Z"/>
      <path class="cls-16" d="M189.76,135s-1.25,3,3.65,3.66a47.11,47.11,0,0,0,6.3.57,4.88,4.88,0,0,0-3.43-5.23C192.32,132.7,192.38,135.89,189.76,135Z"/>
      <path class="cls-17" d="M190.44,135.91c.14.58.55.87,2.53,1.81s3.26-.17,5.45.54-.43-.15-.47-1.07-1.39-3.3-3.63-2.4S191.76,136.41,190.44,135.91Z"/>
      <path class="cls-20" d="M189.3,134.86a12.27,12.27,0,0,0,3.65,1.63,62.61,62.61,0,0,1,7.51,3.1"/>
      <path class="cls-21" d="M200.36,137.8a2.59,2.59,0,0,0-1.12.08,9.24,9.24,0,0,1-2.14.11s.51,1.17.21,1.11-.19.18-.19.18"/>
      <path class="cls-21" d="M200,136.84a7.49,7.49,0,0,0-2.74.25,3.53,3.53,0,0,1-1.53.4s.23,1,0,1.3.29.48.29.48"/>
      <path class="cls-21" d="M194.25,137s2.69-1.54,3.82-1.3a3,3,0,0,0,1.43.13"/>
      <path class="cls-21" d="M194.13,137s.2.78.09.94.45,1,.45,1l-.11.2"/>
      <path class="cls-21" d="M198.56,134.77s-1.25,0-1.83-.14a4.31,4.31,0,0,0-2.56.59c-.53.45-1.58,1.19-1.58,1.19s-.82.81-.68,1.25-.32.91-.32.91"/>
    </g>
  </g>
</svg>
