<svg id="Layer_1" data-name="Layer 1" xmlns="http://www.w3.org/2000/svg" xmlns:xlink="http://www.w3.org/1999/xlink" width="357.51" height="281.59" viewBox="0 0 357.51 281.59">
  <defs>
    <style>
      .cls-1, .cls-2, .cls-21 {
        fill: none;
      }

      .cls-2 {
        clip-rule: evenodd;
      }

      .cls-10, .cls-11, .cls-12, .cls-13, .cls-14, .cls-15, .cls-16, .cls-17, .cls-20, .cls-3, .cls-4, .cls-5, .cls-6, .cls-7, .cls-8, .cls-9 {
        fill-rule: evenodd;
      }

      .cls-3 {
        opacity: 0.5;
      }

      .cls-4 {
        fill: #ff0;
      }

      .cls-5 {
        fill: #604c33;
      }

      .cls-6 {
        fill: #705d45;
      }

      .cls-7 {
        fill: #db8204;
      }

      .cls-8 {
        fill: #eca33d;
      }

      .cls-9 {
        fill: #4a341d;
      }

      .cls-10 {
        fill: #f6bd64;
      }

      .cls-12 {
        fill: #896130;
      }

      .cls-13 {
        fill: #57442c;
      }

      .cls-14 {
        fill: #ed8a12;
      }

      .cls-15 {
        fill: #c96601;
      }

      .cls-16 {
        fill: #333;
      }

      .cls-17 {
        fill: #1a1a1a;
      }

      .cls-18 {
        clip-path: url(#clip-path);
      }

      .cls-19 {
        clip-path: url(#clip-path-2);
      }

      .cls-20 {
        fill: #5c6163;
      }

      .cls-21 {
        stroke: #52646e;
        stroke-miterlimit: 22.93;
        stroke-width: 0px;
      }
    </style>
    <clipPath id="clip-path">
      <rect class="cls-1" x="870.54" y="12.79" width="424.99" height="424.99" rx="26.14"/>
    </clipPath>
    <clipPath id="clip-path-2">
      <polygon class="cls-2" points="1968.07 517.65 477.8 517.65 477.8 226.47 1968.07 226.47 1968.07 517.65 1968.07 517.65"/>
    </clipPath>
  </defs>
  <g>
    <path class="cls-3" d="M103.91,281.59c-1.58,0-3.15,0-4.69-.09-44.56-1.84-76.77-18.65-88.38-46.13-.34-.81-.65-1.59-.95-2.37l-.27-.76q-.31-.86-.6-1.71c-.1-.31-.19-.61-.28-.9-.18-.6-.34-1.18-.5-1.76,0,0-.17-.65-.23-.9-.17-.72-.31-1.43-.44-2.14-.05-.22-.08-.42-.12-.62-.14-.89-.26-1.85-.34-2.82,0-.25,0-.52-.05-.79,0-.74-.07-1.44-.07-2.15,0-.33,0-.7,0-1.08s0-.63,0-1,0-.55.08-.82a36.42,36.42,0,0,1,.55-4.2c1.9-9.73,9.82-32.78,42.84-46.63a346.52,346.52,0,0,1,4.56-42.42c3.38-19.27,2-30.13.48-41.63A147.21,147.21,0,0,1,53.9,58.49c.06-3.71.27-6.94.52-9.69a19.08,19.08,0,0,1,1.1-9.73,13.78,13.78,0,0,0,.1-2,17.07,17.07,0,0,1-1.31-6.4c0-.13,0-.26,0-.4C53.3,23,55.89,17,62,12.67,67.53,8.77,76.05,7,81.64,7a24.72,24.72,0,0,1,2.93.17c9.69,1.19,28.58,10.48,41,31.22a3.62,3.62,0,0,1,.2.33,37.69,37.69,0,0,1,4.64,17.38,12.31,12.31,0,0,1,.11,1.5,47.88,47.88,0,0,1-3.12,17,159.75,159.75,0,0,1-7.87,17c-4,7.76-8.08,15.79-10.44,24.87a252.16,252.16,0,0,0-5.92,32.35l3.42-.75c1.1-.23,2.22-.46,3.37-.68A179.5,179.5,0,0,1,193.67,151c5.8,1.64,11.66,3.59,17.43,5.81,14.75,5.66,23.49,13.61,28.84,22.34a11.14,11.14,0,0,1,1.61-4.12c.54-.84,1.13-1.69,1.74-2.52.39-.52.82-1.07,1.26-1.61l.51-.63c.57-.68,1.17-1.35,1.78-2a38.35,38.35,0,0,1,26.76-12.06c.67,0,1.45,0,2.23,0,16.5,0,35.75,8.88,52.81,24.37,16.44,14.93,27.16,32.75,28.67,47.69,0,.06,0,.17,0,.23.05.54.1,1.15.13,1.75,0,.15,0,.79,0,.79,0,.42,0,.84,0,1.26,0,.72,0,1.45-.08,2.18-1.61,22.82-27,36.44-67.91,36.44h0a208.87,208.87,0,0,1-24.32-1.49c-41.17-4.86-54.4-28.63-59.23-45.34-.08.35-.17.7-.26,1.06C196.74,258.9,145.84,281.59,103.91,281.59Zm149.34-63c6.22,5,21.46,8.27,38.93,8.27,11.45,0,19.68-1.34,24.32-2.59a1.63,1.63,0,0,0-.09-.19,63.22,63.22,0,0,0-3-5.69l9.54-5.84-9.62,5.7-.72-1.19-.67-1.06-.72-1.11c-.93-1.41-1.92-2.84-3-4.25l-.24-.33-.9-1.19-1-1.23-1-1.24-.88-1.06c-.89-1-1.73-2-2.59-2.95l-.29-.32-1.12-1.19-1.14-1.18L298,198.74l-1.31-1.25-.87-.79c-.63-.57-1.23-1.09-1.84-1.61L292.58,194l-1.25-1-1.2-.89-.73-.52-1.25-.85-1.23-.79-.06,0c-.71-.44-1.34-.8-2-1.15l-.27-.15-.82-.44-.42-.21-1.26-.61-.72-.32-.49-.2-.76-.31-.36-.13c-.3-.12-.55-.21-.8-.29l-.34-.12c-.89-.29-1.79-.54-2.65-.73l-.31-.07-.73-.13-.43-.08-.67-.09-.38,0-.68-.06-.44,0-.63,0h-1l-.23,0A18.82,18.82,0,0,0,268,185l-.28,0-.71.16-.46.11-.59.16-.37.12c-.23.07-.45.14-.66.22l-.44.16-.61.25-.34.15-.76.34a26.23,26.23,0,0,0-4.82,3.11,11.2,11.2,0,0,1-12.82.83A83,83,0,0,1,248,203C249.3,211.17,252.06,217.15,253.25,218.54Zm-117.68-4.79c-1.47,0-3.06,0-4.84.13-6.19.32-10,4.07-14.08,9.58a116,116,0,0,0,30.2-8.49A46.3,46.3,0,0,0,135.57,213.75Z"/>
    <path class="cls-4" d="M96.91,274.6c-1.57,0-3.14,0-4.68-.1-44.56-1.83-76.78-18.64-88.38-46.13-.34-.8-.65-1.58-1-2.37l-.27-.75c-.21-.57-.41-1.15-.6-1.71l-.28-.9c-.18-.6-.35-1.18-.5-1.76L1,220c-.17-.72-.32-1.43-.44-2.15,0-.21-.09-.41-.12-.61-.15-.9-.26-1.85-.34-2.82,0-.25,0-.52,0-.8,0-.73-.07-1.43-.07-2.14,0-.34,0-.71,0-1.08s0-.63,0-1a7.34,7.34,0,0,1,.08-.82,36.42,36.42,0,0,1,.55-4.2c1.89-9.73,9.82-32.78,42.84-46.64a344.76,344.76,0,0,1,4.56-42.42c3.38-19.27,2-30.12.48-41.62A144.75,144.75,0,0,1,46.91,51.5c.05-3.71.27-7,.52-9.69a19.08,19.08,0,0,1,1.1-9.73,13.78,13.78,0,0,0,.1-2,17.11,17.11,0,0,1-1.31-6.41c0-.13,0-.26,0-.39C46.3,16,48.9,10,55,5.68,60.54,1.78,69.06,0,74.65,0a24.84,24.84,0,0,1,2.93.17c9.69,1.19,28.58,10.48,41,31.21,0,.06.17.28.2.33a37.65,37.65,0,0,1,4.63,17.38,10.84,10.84,0,0,1,.11,1.51,47.9,47.9,0,0,1-3.11,17,163.81,163.81,0,0,1-7.87,17c-4,7.76-8.08,15.79-10.44,24.87a251.84,251.84,0,0,0-5.92,32.35c1.15-.27,2.29-.52,3.42-.76s2.22-.45,3.36-.67A179.18,179.18,0,0,1,186.68,144c5.79,1.64,11.66,3.59,17.43,5.81,14.75,5.66,23.48,13.61,28.84,22.34a11.14,11.14,0,0,1,1.61-4.12c.54-.85,1.13-1.69,1.74-2.52.38-.53.82-1.07,1.26-1.62,0,0,.37-.46.51-.62.56-.68,1.16-1.35,1.78-2a38.29,38.29,0,0,1,26.76-12.06c.66,0,1.44-.06,2.23-.06,16.5,0,35.75,8.89,52.81,24.38,16.44,14.93,27.15,32.75,28.67,47.68a1.94,1.94,0,0,0,0,.24c.05.54.1,1.15.13,1.75,0,.15,0,.78,0,.78q0,.65,0,1.26c0,.72,0,1.46-.08,2.18-1.62,22.82-27,36.45-67.92,36.45h0a208.74,208.74,0,0,1-24.32-1.49C217,257.55,203.8,233.77,199,217.06c-.08.35-.17.71-.27,1.06C189.75,251.9,138.84,274.6,96.91,274.6Zm149.34-63.06c6.23,5,21.47,8.28,38.93,8.28,11.46,0,19.69-1.34,24.33-2.59a1.21,1.21,0,0,1-.09-.2c-.81-1.76-1.83-3.67-3-5.69l9.54-5.84-9.62,5.71-.73-1.2-.66-1.06-.72-1.11c-.93-1.41-1.93-2.83-3-4.24l-.24-.33-.9-1.19-1-1.23-1-1.24-.88-1.06c-.88-1.06-1.72-2-2.58-3l-.29-.33-1.12-1.19-1.15-1.17L291,191.74l-1.31-1.24-.87-.79c-.63-.57-1.23-1.1-1.84-1.61L285.58,187l-1.25-1-1.19-.89-.73-.52-1.25-.86-1.23-.78-.07,0c-.71-.44-1.33-.8-2-1.15l-.27-.15-.83-.44-.42-.22c-.29-.15-1.26-.6-1.26-.6l-.71-.32-.49-.21-.77-.3-.35-.14-.8-.29-.34-.11c-.9-.29-1.79-.54-2.66-.73l-.3-.07-.73-.14-.43-.07-.67-.09-.38,0-.68-.06-.45,0-.62,0h-1.25A20.89,20.89,0,0,0,261,178l-.27.05-.72.15-.45.11-.6.17-.36.11-.66.22-.44.17-.62.24-.34.16-.76.34a26.1,26.1,0,0,0-4.81,3.1,11.19,11.19,0,0,1-12.83.84A82.77,82.77,0,0,1,241,196C242.31,204.18,245.07,210.16,246.25,211.54Zm-117.67-4.79c-1.48,0-3.06.05-4.84.14-6.19.32-10,4.07-14.08,9.57a115.87,115.87,0,0,0,30.2-8.48A46.38,46.38,0,0,0,128.58,206.75Z"/>
    <g>
      <path class="cls-5" d="M77.21,184.8c38.8-19.33,90.19-13.87,111.24-3.8,13.3,6.36,16.92,8.37,18.92,21.58s7.16,43.4,52.14,48.71,78.35-4.61,79.77-24.63c2.34-33.27-69-93.43-95.31-52.56,37.46-30.07,81.27,38.33,78.12,48.3S258.36,236.13,239,220c-4-3.31-7.57-13.21-9-22.27-2.33-14.55-6.94-28.7-29.86-37.5-59.92-23-105.17-6.76-121.6-2-6.84,5.41-6.09,12-5.74,12.55S77.22,184.89,77.21,184.8Z"/>
      <path class="cls-6" d="M76.22,171.7c38.8-19.33,93.33-14,114.38-4,13.29,6.36,22.87,10,24.87,23.19s.38,43.4,45.36,48.71,72.09-.49,73.49-20.51c1-14-6.5-24.6-22.47-38.55C289.41,161,259.34,150.11,244,174.1c14.6-17.06,36.8-10.38,50.28-1.24,20.7,14,36,34.17,30.48,49.9-3.47,9.85-67.36,14.81-86.75-1.28-4-3.32-9.55-13.57-11-22.63-2.33-14.56-4-29.78-26.89-38.58-59.92-23-105.17-6.76-121.6-2-6.84,5.41-6.09,12-5.74,12.55S76.23,171.79,76.22,171.7Z"/>
      <path class="cls-7" d="M250.87,169.67c33.07-16.22,68.47,34.74,71.21,49.84C324.11,209.12,288.74,148.49,250.87,169.67Z"/>
      <path class="cls-7" d="M77.21,184.8c38.8-19.33,90.19-13.87,111.24-3.8,13.3,6.36,16.92,8.37,18.92,21.58s7.16,43.4,52.14,48.71,78.35-4.61,79.77-24.63a26.68,26.68,0,0,0-.28-5.73c-1.89,19.72-35.08,29.45-79.72,24.18-45-5.31-50.14-35.51-52.14-48.72s-5.62-15.21-18.92-21.57c-21.05-10.08-69.79-16.88-111.06,1.68,0,.07-3-7-4.14-10.53a8.48,8.48,0,0,0-.27,4.81C73.11,171.31,77.22,184.89,77.21,184.8Z"/>
      <path class="cls-7" d="M109.06,37.26c1.27,1.93,6,12.25.8,26.31-5,13.26-14.24,25.93-18.66,42.93-6.26,24.07-8.54,52.83-9.17,74,0,1.1-.4,12-.43,13,7.51,1.43,38-8,48.31-7.4.66,0,27.39,3.35,33,6.78,9.12,5.62-1.3,14.31-.67,15.67-12.06-12.62-26.38-13.56-39.05-12.9-19.22,1-24.87,21.31-29.95,22.77-8.76,2.52-34.72.32-36.81-11-3.15-17.11-3.25-56.33,2.7-90.22,5.73-32.64-1.34-44.25-1-65.61.24-15,3.16-20.82.85-25.93-.57-1.28-.34-2.46-.54-3.87-.56-4.12,1.2-5.72,3.1-7.06,3.45-2.45,10.79-4,14.72-3.54C82.51,12.05,98.49,19.54,109.06,37.26Z"/>
      <path class="cls-8" d="M92.86,218.59c-9.25,2.33-34.34.12-36.39-11-1.65-9-2.47-24.09-2-41.32.85-9.69,2-18.72,2.67-25.15,2.62-24.83,8.56-38.54,4.67-79C59.94,42.77,68.11,33,59.9,25.39c0,0,5.26,4.14,11.32,4.28,11.12.26,24.78-9.81,33.94,13.44,6.2,15.77-8.11,31.86-12.12,41s-11.21,32.62-15.62,65C73.08,181,72.05,219.91,92.86,218.59Z"/>
      <path class="cls-9" d="M65.16,106.17c3.43-35.36-2.35-42.49-2.64-47.51C61.38,39.26,70.57,33,64,25.39c0,0,4.22,4.14,9.07,4.28,8.91.26,23.83.36,28,17.57C104.61,61.83,90.66,74.62,87,90c-8,32.88-7.92,11.19-8.83,16.25Z"/>
      <path class="cls-10" d="M92.86,218.59c-9.25,2.33-34.34.12-36.39-11-1.65-9-2.47-24.09-2-41.32.85-9.69,2-18.72,2.67-25.15,1.39-13.28,3.7-23.38,5-35.88,1.72-16.62,9.35-65.51.17-79.33,0,0,2.86,3.6,8.92,3.74,11.12.26,10.87-19.73,19.72,3.66,6.6,17.44.53,50.36-6,76.19a365.47,365.47,0,0,0-7.55,39.61C73.08,181,72.05,219.91,92.86,218.59Z"/>
      <path class="cls-5" d="M112.33,50.66a36.42,36.42,0,0,1-2.4,13c-5,13.27-14.24,25.94-18.66,42.94-6.31,24.27-8.58,53.3-9.18,74.55,0,.92.06,11.5,0,12.39,5.26-3.11,13.24-21.86,51.42-19.94,3.7.18,64.47,3.4,54.34,41.64-7.71,29.09-56.67,49.66-95.2,48.08-40.8-1.68-69-16.85-78.53-39.31-2.49-5.89-3.74-11.07-2.5-17.48,1.9-9.75,10.06-29.82,42.75-40.95-.17,8.08,0,18.42.29,25-7.48,4.21-14.79,10.41-13.33,17A13.24,13.24,0,0,0,45.08,214c7.78,9.18,37.23,15.87,51.09,15.1,43.41-2.42,66.18-20.17,64.65-22.4-2.88-11.26-21.43-14.5-31.21-14.47-28.55.09-28.42,17.26-36.7,21.4-6.61,3.31-10.61-4.26-11.48-6.25-2.52-5.75-1.9-12.5-2-15A377.86,377.86,0,0,1,81.33,149c3-30.15,8-46.23,13.11-58.9C100.4,75.31,109.55,70.15,112.33,50.66Z"/>
      <path class="cls-7" d="M187.69,199.08c1.6,4.53,1.87,9.87.2,16.17-7.71,29.09-56.67,49.66-95.2,48.08-40.8-1.68-69-16.85-78.53-39.31-2-4.77-3.22-9.08-2.94-14,4.09,34.72,53.05,45.08,80.86,46.23,38.52,1.58,87.48-19,95.19-48.08A29,29,0,0,0,187.69,199.08Z"/>
      <path class="cls-7" d="M55,195.28c-6.86,4.85-12.44,9.77-11.8,14.85a7.64,7.64,0,0,0,2,4c-3.19-3.17-4.81-6.32-5.31-9.35-1.49-9.16,8.73-15.45,14.68-17.95C54.64,189.79,54.8,192.63,55,195.28Z"/>
      <path class="cls-8" d="M79.06,165.33c-2.18,2.66-6.63,4.47-11.75,4.47-5.87,0-10.84-2.38-12.56-5.67.76,4.05,6,7.2,12.34,7.2,5.7,0,10.51-2.54,12-6Zm5.51,49.07c-1.83,2.22-5.24,3.86-9.3,4.33,1.27.2,2.56.35,3.82.46a9.63,9.63,0,0,0,5.48-4.79Zm-24.28-1.06.08.06a1.28,1.28,0,0,1-.11-.2l0,.14Zm20.38-4.81c-1.47,3.46-6.27,6-12,6s-10.63-2.61-12-6.13c-.07-.26-.14-.52-.19-.79a.44.44,0,0,0,0-.1c1.81,3.2,6.7,5.49,12.46,5.49,5.13,0,9.57-1.81,11.76-4.47Zm-1.61-8.26c-2.13,2.65-6.47,4.47-11.48,4.47-5.71,0-10.56-2.36-12.25-5.64v.13c.84,4,5.9,7,12,7,5.58,0,10.27-2.53,11.7-6ZM78,191.53c-2.1,2.66-6.37,4.48-11.29,4.48-5.58,0-10.32-2.34-12-5.57v.2c.93,3.91,5.85,6.89,11.8,6.89,5.48,0,10.09-2.54,11.5-6Zm-.33-8.73c-2.1,2.65-6.37,4.47-11.3,4.47-5.54,0-10.25-2.3-12-5.51V182c1,3.85,5.88,6.77,11.76,6.77,5.48,0,10.1-2.53,11.51-6Zm1.39-8.73c-2.18,2.65-6.63,4.47-11.75,4.47-5.87,0-10.84-2.38-12.56-5.68.76,4.06,6,7.2,12.34,7.2,5.7,0,10.51-2.54,12-6Zm9.4-148.49C86,28.24,81.1,30.06,75.4,30.06a25.34,25.34,0,0,1-4.52-.4,19.48,19.48,0,0,1-7.76-2.27c2.37,2.5,6.87,4.19,12,4.19,6.33,0,11.67-2.54,13.3-6Zm3.2,8.74c-2.43,2.65-7.36,4.47-13,4.47-6.52,0-12-2.38-14-5.68.84,4.06,6.66,7.2,13.7,7.2,6.34,0,11.68-2.53,13.3-6Zm1.7,8.73c-2.42,2.66-7.36,4.47-13,4.47-6.52,0-12-2.38-13.94-5.67.83,4.06,6.65,7.2,13.7,7.2,6.33,0,11.67-2.54,13.29-6Zm.5,8.74c-2.42,2.65-7.36,4.47-13,4.47-6.52,0-12-2.38-13.94-5.68.83,4.06,6.65,7.2,13.7,7.2,6.33,0,11.67-2.54,13.29-6Zm-.2,8.73C91.24,63.18,86.3,65,80.61,65c-6.52,0-12-2.38-13.94-5.67.83,4,6.65,7.2,13.7,7.2,6.33,0,11.67-2.54,13.29-6Zm-1,8.74c-2.43,2.65-7.36,4.47-13,4.47-6.52,0-12-2.39-13.94-5.68.83,4.06,6.65,7.2,13.7,7.2,6.33,0,11.67-2.54,13.29-6ZM91.18,78C88.82,80.64,84,82.46,78.5,82.46c-6.32,0-11.68-2.38-13.54-5.67.82,4,6.46,7.19,13.31,7.19,6.15,0,11.33-2.53,12.91-6Zm-1.6,8.73c-2.3,2.66-7,4.48-12.37,4.48C71,91.2,65.8,88.81,64,85.52c.79,4.06,6.3,7.2,13,7.2,6,0,11.06-2.54,12.6-6Zm-1.85,8.74c-2.23,2.65-6.75,4.47-12,4.47-6,0-11-2.38-12.78-5.68.77,4.06,6.1,7.2,12.56,7.2,5.8,0,10.69-2.53,12.18-6Zm-1.36,8.73c-2.2,2.66-6.67,4.47-11.83,4.47-5.5,0-10.21-2.06-12.23-5,0,.17,0,.34-.05.51,1.47,3.47,6.31,6,12.06,6s10.58-2.54,12.05-6Zm-.7,8.74c-2.23,2.65-6.75,4.47-12,4.47-5.58,0-10.36-2.07-12.4-5l-.06.46c1.44,3.5,6.38,6.08,12.24,6.08s10.71-2.54,12.2-6Zm-1.8,8.73c-2.19,2.66-6.63,4.47-11.76,4.47-5.45,0-10.12-2-12.14-5l-.08.47c1.45,3.47,6.27,6,12,6s10.51-2.53,12-6Zm-1.35,8.73c-2.17,2.66-6.57,4.48-11.64,4.48-5.6,0-10.37-2.21-12.24-5.31l0,.28c1.15,3.74,6.11,6.55,12.06,6.55,5.65,0,10.41-2.54,11.86-6Zm-1.15,8.74c-2.16,2.65-6.54,4.47-11.6,4.47-5.69,0-10.53-2.3-12.3-5.51l0,.15c.95,3.9,6,6.88,12.11,6.88,5.62,0,10.36-2.53,11.81-6Zm-1.2,8.73c-2.13,2.66-6.46,4.47-11.44,4.47-5.7,0-10.54-2.37-12.22-5.65v0c.76,4,5.84,7.16,12,7.16,5.55,0,10.23-2.54,11.66-6ZM67.88,161.07c-5.73,0-10.59-2.32-12.35-5.54l0,.14c.93,3.92,6,6.92,12.15,6.92,5.65,0,10.41-2.54,11.85-6C77.35,159.25,73,161.07,67.88,161.07Z"/>
      <path class="cls-11" d="M63,29.26c-.35.62-1.75,2.31-3,4.43C58.7,36.07,58.12,38.8,58.49,40A11.42,11.42,0,0,1,60.21,35c-.51,2.32-1.08,4.62-.6,6.25.2-6.36,4.24-10.59,5.44-12.62C64.55,28.85,63.52,29,63,29.26Z"/>
      <g>
        <path class="cls-12" d="M109.13,37.37C105.92,33.24,97.51,26.12,91,25.57s-18,4.87-22.28,4.35c-5.15-.61-7.35,1-9.66-4.07-.57-1.28-.35-2.47-.54-3.87-.56-4.12,1.2-5.72,3.1-7.06,3.45-2.45,10.79-4,14.71-3.54C82.58,12.16,98.56,19.65,109.13,37.37Z"/>
        <path class="cls-5" d="M109.13,37.37c-2.7-3.47-9.07-9.06-14.93-11.07-8.44-11.77-11.65-10.36-13.81-9.89-1.33.29-4.59-.76-5.6,1.58-.76,1.78-1.88,4.81-3.41,5.19-3.36.83-1.89,4.87-1,6.23.34.52-1.11.58-1.71.51-4.56-.54-6.82.69-8.87-2.58a4.45,4.45,0,0,1,0-2.58c.93-3.88-.21-4.6.65-6.94.7-1.89,3-3.65,5.32-4.9a26.88,26.88,0,0,1,10.56-1.54C82.58,12.16,98.56,19.65,109.13,37.37Z"/>
        <path class="cls-9" d="M68,12.23a24.66,24.66,0,0,1,8.24-.85c2.59.32,6.81,1.77,11.61,4.6-10.39-3.75-17-.36-19.68,4.55-1.95,3.62-5.36,4.26-5.56,1.58A11.22,11.22,0,0,1,68,12.23Z"/>
        <path class="cls-13" d="M107,35c-4-4-10.65-9-16.06-9.41-6.56-.54-18,4.87-22.28,4.35-5.15-.61-7.35,1-9.66-4.07a5.66,5.66,0,0,1-.42-2.06,9.14,9.14,0,0,0,1,2.68c.55.78.35-.6,1.78-.76,3.48-.39,7,.35,8.16,2.2s4.23-.11,8.47-1S93.91,18.08,107,35Z"/>
        <path class="cls-14" d="M76.78,18.74c-3.35,1.48-2.69,3.76-4.83,5C75.91,24.06,77.42,20.94,76.78,18.74Z"/>
        <path class="cls-15" d="M76.78,18.74C74.14,19.9,74,21.56,73,22.82a4,4,0,0,0,3.9-3.52A3.48,3.48,0,0,0,76.78,18.74Z"/>
        <path class="cls-16" d="M75.14,19.75a6.61,6.61,0,0,0-1.41,1.91,4.37,4.37,0,0,0,1,1.64,4.87,4.87,0,0,0,.59-.36A11.28,11.28,0,0,1,75.14,19.75Z"/>
        <path class="cls-17" d="M75.14,19.75a6.61,6.61,0,0,0-1.41,1.91,4,4,0,0,0,.44.93,3.86,3.86,0,0,0,1-.48A13.53,13.53,0,0,1,75.14,19.75Z"/>
        <path class="cls-11" d="M62.67,26.05c-.5,0-.9.23-.89.5s.41.48.91.47.89-.23.89-.5S63.17,26,62.67,26.05Z"/>
        <path class="cls-11" d="M65.82,26.17c.49,0,.88.31.85.58s-.44.45-.94.4-.87-.31-.85-.58S65.32,26.12,65.82,26.17Z"/>
      </g>
      <path class="cls-6" d="M82.13,193.55c5.26-3.11,13.24-21.86,51.42-19.94,2.19.11,24.27,1.27,39.91,10.09,10.84,6.11,11.09,18.88-.77,30.83-13.22,13.33-42.87,33.53-81.32,30.5-58.23-4.6-90.5-44.76-61.48-66.46a86.67,86.67,0,0,1,24.52-13c-.07,3.48-.09,7.38-.06,11.22-22.54,7.71-24.23,28.35-4.94,40.79,11.23,7.25,34.8,12.14,46.76,11.48,30.26-1.7,50.48-10.88,59.5-17,3.88-2.64,14.62-6.08,12.75-15.07-2.37-11.39-29.36-14.5-39.14-14.47-13.74,0-20.66,3.57-25.35,7.28a51.74,51.74,0,0,0-12,13.63C87.24,211.35,80.16,204.17,82.13,193.55Z"/>
    </g>
  </g>
  <g class="cls-18">
    <g class="cls-19">
      <path class="cls-20" d="M341.85,260.49c483.28-4,1364.83,47.35,1475.75,275.14H1073.4C975.24,288.71,619.47,295.25,341.22,279.29c0-2,.51-2.56.51-4.59v-2.23l-.7,0-.19-10.22,1,0v-1.76Z"/>
      <path class="cls-21" d="M341.85,260.49c483.28-4,1364.83,47.35,1475.75,275.14H1073.4C975.24,288.71,619.47,295.25,341.22,279.29c0-2,.51-2.56.51-4.59v-2.23l-.7,0-.19-10.22,1,0v-1.76Z"/>
    </g>
  </g>
</svg>
