<svg xmlns="http://www.w3.org/2000/svg" width="165.89" height="334.76" viewBox="0 0 165.89 334.76">
  <defs>
    <style>
      .cls-1 {
        isolation: isolate;
      }

      .cls-2 {
        opacity: 0.5;
      }

      .cls-3 {
        fill: #ff0;
      }

      .cls-4 {
        fill: #f47e20;
      }

      .cls-5 {
        fill: #bb5d27;
      }

      .cls-6 {
        fill: #7fd1e9;
      }

      .cls-7 {
        fill: #dad9d8;
      }

      .cls-7, .cls-8 {
        mix-blend-mode: multiply;
      }

      .cls-8 {
        fill: #c7e7f9;
      }

      .cls-9 {
        fill: #575756;
      }

      .cls-10, .cls-9 {
        mix-blend-mode: screen;
      }

      .cls-10 {
        fill: #3c3c3b;
      }
    </style>
  </defs>
  <g class="cls-1">
    <g id="Layer_1" data-name="Layer 1">
      <g>
        <path class="cls-2" d="M86.43,334.76h-.58a18.15,18.15,0,0,1-12.35-4.93c-3.17-1.29-6.29-4.16-7.87-10.13a26.59,26.59,0,0,1-12-20.49c-.25-4.46-.12-9.17,4.47-13.55.31-.47,1.69-2.85,3.94-10.31,5.29-17.47,2.7-36.28,1.45-40.21a13.35,13.35,0,0,1,1.08-13.8,20.22,20.22,0,0,0-.07-2.64c-.39-5-5.57-8.77-6.55-9.45-12.13-6.43-20.64-12.85-26-19.62-8.4-10.62-10-20.94-11-27.76-.35-2.26-.82-5.34-1.31-6.08C11,148.07,5.3,130.46,7.49,118.16c1.15-6.41,4.49-11.5,9.33-14.36-.23-3.44-2.09-10-3.28-14.25-.68-2.42-1.45-5.16-2.14-7.89a32.44,32.44,0,0,1,6.86-29.77c5-5.69,11.52-9.07,18.05-9.41,2.54-2.45,6.91-8.3,9.67-12,8-10.72,14.91-20,23.53-22.34a30.55,30.55,0,0,1,8-1.12,24.49,24.49,0,0,1,8.95,1.63A24.43,24.43,0,0,1,95.4,7a30.49,30.49,0,0,1,8,1.12c8.61,2.36,15.52,11.61,23.53,22.33,2.79,3.74,7.14,9.57,9.66,12,6.54.34,13.07,3.73,18.06,9.42a32.42,32.42,0,0,1,6.87,29.77c-.68,2.69-1.46,5.45-2.15,7.89-1.18,4.21-3,10.81-3.28,14.25,4.84,2.86,8.19,8,9.33,14.36,2.19,12.3-3.51,29.91-12.2,37.68-.45.69-.92,3.77-1.27,6-1,6.83-2.62,17.14-11,27.76-5.36,6.78-13.88,13.21-26,19.65-.88.6-6.1,4.35-6.5,9.42a20.39,20.39,0,0,0-.07,2.65,13.38,13.38,0,0,1,1.08,13.79c-1.24,3.94-3.83,22.74,1.45,40.21,2.25,7.47,3.64,9.85,3.94,10.31,4.6,4.45,4.73,9.13,4.47,13.55a26.59,26.59,0,0,1-12,20.49c-1.58,6-4.71,8.84-7.87,10.13A18.2,18.2,0,0,1,87,334.76Z"/>
        <path class="cls-3" d="M79.41,327.73h-.58a18.15,18.15,0,0,1-12.35-4.93c-3.17-1.3-6.29-4.16-7.87-10.13a26.61,26.61,0,0,1-12-20.49c-.26-4.46-.12-9.17,4.47-13.55.3-.47,1.69-2.85,3.94-10.31,5.28-17.48,2.69-36.28,1.45-40.21a13.33,13.33,0,0,1,1.08-13.8,20.2,20.2,0,0,0-.07-2.64c-.39-5-5.57-8.77-6.56-9.45-12.13-6.43-20.63-12.86-26-19.63-8.4-10.62-10-20.93-11-27.75-.35-2.26-.82-5.35-1.31-6.08C4,141-1.72,123.44.47,111.14,1.61,104.73,5,99.64,9.79,96.78c-.23-3.44-2.09-10-3.27-14.25-.68-2.42-1.46-5.16-2.15-7.89a32.42,32.42,0,0,1,6.87-29.77c5-5.69,11.52-9.08,18-9.42,2.54-2.44,6.9-8.29,9.66-12,8-10.72,14.92-20,23.54-22.34a30.43,30.43,0,0,1,8-1.12,24.65,24.65,0,0,1,8.94,1.62A24.71,24.71,0,0,1,88.38,0a30.55,30.55,0,0,1,8,1.12C105,3.48,111.9,12.73,119.9,23.45c2.8,3.73,7.15,9.57,9.67,12,6.54.34,13.07,3.73,18.06,9.42a32.42,32.42,0,0,1,6.86,29.76c-.68,2.7-1.45,5.46-2.14,7.9-1.19,4.21-3,10.81-3.28,14.25,4.84,2.86,8.18,8,9.33,14.36,2.19,12.3-3.51,29.9-12.2,37.68-.45.68-.92,3.77-1.27,6-1,6.83-2.62,17.14-11,27.75-5.36,6.78-13.88,13.21-26,19.66-.89.6-6.1,4.35-6.5,9.42a20.39,20.39,0,0,0-.07,2.65,13.38,13.38,0,0,1,1.08,13.79c-1.25,3.93-3.83,22.73,1.45,40.21,2.25,7.47,3.64,9.84,3.94,10.31,4.59,4.45,4.72,9.13,4.47,13.55a26.61,26.61,0,0,1-12,20.49c-1.58,6-4.71,8.84-7.87,10.13A18.23,18.23,0,0,1,80,327.74Z"/>
        <g>
          <path class="cls-4" d="M142.33,106.34c-9.46-3.73-2.8-19.72.93-34.54s-7.82-25.67-15.75-24.73S103.12,15,93.32,12.3s-13.89,3-13.89,3-4.08-5.72-13.88-3S39.3,48,31.36,47.07,11.88,57,15.61,71.8s10.38,30.81.93,34.54-3.85,26.95,3.85,33.84S22.14,160.37,34,175.42c5.08,6.42,14.09,12.24,22.75,16.8h0s11.33,6.65,12.26,18.55-3.85,8.87-2,12.6,5.48,27.07-.94,48.31-8.4,11.78-7.93,19.84,7.35,12.36,9.57,12.83,1.28,7.59,3.5,7.82,3.5,4.32,8.16,4c4.67.35,5.95-3.74,8.17-4s1.29-7.35,3.5-7.82,9.1-4.78,9.57-12.83-1.52,1.4-7.93-19.84-2.8-44.57-.94-48.31-2.91-.7-2-12.6,12.25-18.55,12.25-18.55h0c8.67-4.56,17.67-10.38,22.75-16.8,11.9-15,6-28.36,13.66-35.24S151.78,110.08,142.33,106.34Z"/>
          <path class="cls-5" d="M78.83,316.51c-2.62,0-4.16-1.42-5.41-2.58a4.36,4.36,0,0,0-2.19-1.41c-1.38-.15-1.71-2.09-2.06-4.14-.29-1.64-.61-3.5-1.48-3.69-2-.42-9.35-4.62-9.84-13.15-.2-3.47,0-3.86,1-4.78s3.3-3.13,6.94-15.18c6.49-21.49,2.69-44.58,1-48-.81-1.63-.46-2.19.23-3,.84-1,2.27-2.76,1.72-9.71-.91-11.59-12-18.22-12.08-18.28-10.79-5.68-18.48-11.36-22.85-16.89C27.22,167.35,26,159.47,25,153.15c-.82-5.4-1.48-9.67-4.88-12.71-5.77-5.16-10.12-19-8.63-27.33.65-3.64,2.34-6.09,4.88-7.09,7.56-3,4.33-14.43.92-26.54-.7-2.49-1.43-5.07-2.06-7.59a21.33,21.33,0,0,1,4.41-19.61c3.41-3.88,7.9-6,11.72-5.56S41.72,38.54,48,30.18,60.56,13.3,65.46,12c8.49-2.33,12.87,1.61,14,2.83,1.11-1.22,5.48-5.16,14-2.83,4.89,1.34,11.3,9.92,17.5,18.22s12.68,17,16.56,16.54,8.31,1.68,11.72,5.56a21.35,21.35,0,0,1,4.41,19.61c-.64,2.52-1.36,5.1-2.07,7.59-3.41,12.11-6.63,23.55.92,26.54,2.55,1,4.24,3.45,4.89,7.09,1.49,8.38-2.86,22.17-8.63,27.33-3.41,3-4.06,7.31-4.89,12.71-1,6.32-2.17,14.2-8.72,22.48-4.37,5.53-12.06,11.21-22.86,16.9-.44.26-11.17,6.75-12.07,18.27-.55,6.95.87,8.68,1.72,9.71.69.83,1,1.39.23,3-1.74,3.47-5.54,26.56.95,48,3.64,12.05,5.87,14.17,6.94,15.18s1.21,1.31,1,4.78c-.5,8.53-7.82,12.73-9.85,13.15-.87.19-1.19,2.05-1.47,3.69-.35,2.05-.68,4-2.06,4.14a4.36,4.36,0,0,0-2.19,1.41c-1.34,1.24-3,2.78-6,2.56Zm.58-.72c2.77.21,4.26-1.17,5.57-2.38a4.86,4.86,0,0,1,2.58-1.59c.86-.09,1.17-1.93,1.45-3.56.34-1.95.68-4,2-4.25,1.84-.39,8.83-4.5,9.29-12.52.19-3.28,0-3.48-.8-4.22-1.19-1.14-3.42-3.26-7.12-15.49-6.55-21.67-2.67-45-.91-48.56.65-1.31.44-1.57-.14-2.27-.91-1.11-2.45-3-1.88-10.21.94-11.94,12.31-18.76,12.43-18.83,10.73-5.65,18.34-11.27,22.65-16.71,6.44-8.14,7.63-15.91,8.58-22.16.82-5.32,1.52-9.91,5.11-13.12,5.63-5,9.87-18.5,8.41-26.69-.62-3.43-2.11-5.64-4.45-6.56-8.14-3.22-4.84-15-1.34-27.38.7-2.48,1.43-5.06,2.06-7.57a20.64,20.64,0,0,0-4.26-19C135.4,49,131.15,47,127.55,47.41c-4.28.51-10.55-7.91-17.2-16.81-6.13-8.21-12.46-16.69-17.12-18-9.44-2.58-13.35,2.68-13.51,2.9l-.29.4-.28-.4c-.16-.22-4.08-5.48-13.51-2.9-4.66,1.28-11,9.76-17.12,18-6.65,8.91-12.94,17.32-17.2,16.81C27.72,47,23.46,49,20.21,52.74a20.64,20.64,0,0,0-4.26,19c.63,2.51,1.36,5.08,2.06,7.57,3.5,12.43,6.8,24.16-1.34,27.38-2.34.92-3.84,3.13-4.45,6.56-1.46,8.19,2.78,21.66,8.41,26.69,3.59,3.21,4.29,7.8,5.11,13.12,1,6.25,2.14,14,8.58,22.16,4.3,5.44,11.92,11.07,22.64,16.71.48.28,11.51,6.94,12.44,18.83.57,7.24-1,9.1-1.88,10.21-.58.7-.79,1-.14,2.27,1.76,3.52,5.64,26.89-.91,48.56-3.7,12.23-5.93,14.35-7.13,15.49-.77.74-1,.94-.79,4.22.46,8,7.45,12.13,9.29,12.52,1.33.28,1.68,2.3,2,4.25.28,1.63.59,3.47,1.44,3.56a4.81,4.81,0,0,1,2.59,1.6C75.2,314.62,76.69,316,79.41,315.79Z"/>
          <ellipse class="cls-6" cx="79.43" cy="104.59" rx="52.97" ry="79.01"/>
          <path class="cls-7" d="M81,25.58l-.76,0c28.91.6,52.22,35.73,52.22,79s-23.31,78.39-52.22,79H81c29.26,0,53-35.37,53-79S110.21,25.58,81,25.58Z"/>
          <path class="cls-8" d="M79.43,25.58h-.55c29,.45,52.42,35.64,52.42,79s-23.42,78.56-52.42,79h.55c29.26,0,53-35.37,53-79S108.69,25.58,79.43,25.58Z"/>
          <path class="cls-7" d="M26.46,104.59c0-43.08,23.12-78.11,51.87-79l-1.11,0c-29.26,0-53,35.38-53,79s23.72,79,53,79l1.11,0C49.58,182.7,26.46,147.67,26.46,104.59Z"/>
          <path class="cls-8" d="M28.91,105.64c0-43.63,23.72-79,53-79A36.86,36.86,0,0,1,95.32,29.2a37.2,37.2,0,0,0-15.89-3.62c-29.25,0-53,35.38-53,79C26.46,141.3,43.25,172.16,66,181,44.5,171,28.91,141,28.91,105.64Z"/>
          <path class="cls-9" d="M100.12,31.84l-70.55,46a116.73,116.73,0,0,0-.77,50L125.27,65C119.54,50.25,110.71,38.55,100.12,31.84Z"/>
          <path class="cls-9" d="M39.94,157.25l92.23-60.17a111.46,111.46,0,0,0-3.52-21.78l-97,63.31A89.31,89.31,0,0,0,39.94,157.25Z"/>
          <path class="cls-10" d="M78.5,15.38S75,12,68.39,12.65,54.65,21.92,56,21.79s7-6.65,16.36-6.3C78.47,15.72,79.68,16.54,78.5,15.38Z"/>
          <path class="cls-10" d="M31.4,48S26.65,46.6,20.7,52.9s-4.64,18.82-2.76,23.8S16,63.1,23.19,55.48C29.8,48.47,33.36,48.57,31.4,48Z"/>
          <path class="cls-10" d="M70.57,255.09c0-.59,2.5,14.08-.12,21.32s-7.38,10.26-6.16,15.46,7.62,11.78,6.1,11.72S61.9,301,60.39,297s-2.51-7.47-.35-9.45S70.39,271.08,70.57,255.09Z"/>
          <path class="cls-10" d="M19.18,105.74a10.09,10.09,0,0,1-2.8,1.75c-1.69.7-3.89,4.28-4,8.24s1,13,4.93,19c3,4.56,5.51,5.63,6.62,8.49s2.13,10,2.31,10.62a106.94,106.94,0,0,0-.7-13.59c-.59-3.21-8.35-9.49-9.28-17.74C14.68,108.62,21.15,104.57,19.18,105.74Z"/>
          <path class="cls-10" d="M53.53,176.35s11.38,11.41,25.9,11.14,21.25-9.55,21.25-9.55S81.35,193.09,53.53,176.35Z"/>
        </g>
      </g>
    </g>
  </g>
</svg>
