<svg xmlns="http://www.w3.org/2000/svg" xmlns:xlink="http://www.w3.org/1999/xlink" width="330.35" height="352.95" viewBox="0 0 330.35 352.95">
  <defs>
    <style>
      .cls-1 {
        fill: none;
      }

      .cls-2 {
        isolation: isolate;
      }

      .cls-3 {
        opacity: 0.5;
      }

      .cls-4 {
        fill: #ff0;
      }

      .cls-5 {
        fill: url(#linear-gradient);
      }

      .cls-6 {
        fill: url(#linear-gradient-2);
      }

      .cls-7 {
        fill: url(#linear-gradient-3);
      }

      .cls-8 {
        fill: url(#New_Gradient_Swatch_copy_125);
      }

      .cls-9 {
        fill: url(#New_Gradient_Swatch_copy_125-2);
      }

      .cls-10 {
        fill: url(#New_Gradient_Swatch_copy_125-3);
      }

      .cls-11 {
        fill: url(#linear-gradient-4);
      }

      .cls-12 {
        fill: url(#New_Gradient_Swatch_copy_125-4);
      }

      .cls-13, .cls-29, .cls-30 {
        mix-blend-mode: multiply;
      }

      .cls-13 {
        fill: url(#New_Gradient_Swatch_copy_29);
      }

      .cls-14 {
        fill: url(#New_Gradient_Swatch_copy_125-5);
      }

      .cls-15 {
        fill: url(#New_Gradient_Swatch_copy_125-6);
      }

      .cls-16 {
        fill: url(#linear-gradient-5);
      }

      .cls-17 {
        fill: url(#New_Gradient_Swatch_copy_125-7);
      }

      .cls-18 {
        fill: #c3c0b8;
      }

      .cls-19 {
        fill: #a13b35;
      }

      .cls-20 {
        fill: #ff5d53;
      }

      .cls-21 {
        fill: url(#New_Gradient_Swatch_copy_125-8);
      }

      .cls-22, .cls-30 {
        fill: #ede2dc;
      }

      .cls-23 {
        fill: url(#linear-gradient-6);
      }

      .cls-24 {
        fill: url(#linear-gradient-7);
      }

      .cls-25 {
        fill: url(#New_Gradient_Swatch_copy_125-9);
      }

      .cls-26 {
        clip-path: url(#clip-path);
      }

      .cls-27 {
        fill: #54504b;
      }

      .cls-27, .cls-28 {
        opacity: 0.3;
        mix-blend-mode: screen;
      }

      .cls-28 {
        fill: #d4d4d4;
      }

      .cls-29 {
        fill: url(#linear-gradient-8);
      }

      .cls-31 {
        fill: #c14b44;
      }

      .cls-32 {
        fill: #74201c;
      }

      .cls-33 {
        fill: #c74941;
      }

      .cls-34 {
        fill: #de5148;
      }
    </style>
    <linearGradient id="linear-gradient" x1="13.2" y1="189.3" x2="283.4" y2="189.3" gradientUnits="userSpaceOnUse">
      <stop offset="0" stop-color="#e6e2d9"/>
      <stop offset="0.29" stop-color="#d0cdc5"/>
      <stop offset="1" stop-color="#9b9893"/>
    </linearGradient>
    <linearGradient id="linear-gradient-2" x1="84.79" y1="306.42" x2="100.09" y2="369.69" xlink:href="#linear-gradient"/>
    <linearGradient id="linear-gradient-3" x1="63.22" y1="358.35" x2="177.27" y2="275.69" xlink:href="#linear-gradient"/>
    <linearGradient id="New_Gradient_Swatch_copy_125" data-name="New Gradient Swatch copy 125" x1="206.74" y1="231.07" x2="330.22" y2="186.67" gradientUnits="userSpaceOnUse">
      <stop offset="0" stop-color="#b0ada7"/>
      <stop offset="1" stop-color="#656460"/>
    </linearGradient>
    <linearGradient id="New_Gradient_Swatch_copy_125-2" x1="275.91" y1="401.16" x2="127.86" y2="80.57" xlink:href="#New_Gradient_Swatch_copy_125"/>
    <linearGradient id="New_Gradient_Swatch_copy_125-3" x1="160.47" y1="235" x2="138.27" y2="34.47" xlink:href="#New_Gradient_Swatch_copy_125"/>
    <linearGradient id="linear-gradient-4" x1="280.43" y1="4.28" x2="63.34" y2="210.03" xlink:href="#linear-gradient"/>
    <linearGradient id="New_Gradient_Swatch_copy_125-4" x1="282.67" y1="5.36" x2="62.79" y2="213.75" xlink:href="#New_Gradient_Swatch_copy_125"/>
    <linearGradient id="New_Gradient_Swatch_copy_29" data-name="New Gradient Swatch copy 29" x1="94.79" y1="292.6" x2="113.57" y2="-29.47" gradientUnits="userSpaceOnUse">
      <stop offset="0" stop-color="#e6e2d9"/>
      <stop offset="1" stop-color="#9b9893"/>
    </linearGradient>
    <linearGradient id="New_Gradient_Swatch_copy_125-5" x1="172.35" y1="306.93" x2="135.23" y2="152.71" xlink:href="#New_Gradient_Swatch_copy_125"/>
    <linearGradient id="New_Gradient_Swatch_copy_125-6" x1="183.35" y1="242.36" x2="221.1" y2="359.16" xlink:href="#New_Gradient_Swatch_copy_125"/>
    <linearGradient id="linear-gradient-5" x1="143.04" y1="130.19" x2="254.39" y2="16.92" xlink:href="#linear-gradient"/>
    <linearGradient id="New_Gradient_Swatch_copy_125-7" x1="123.68" y1="429.16" x2="163.47" y2="135.33" xlink:href="#New_Gradient_Swatch_copy_125"/>
    <linearGradient id="New_Gradient_Swatch_copy_125-8" x1="38.94" y1="56.39" x2="309.2" y2="56.39" xlink:href="#New_Gradient_Swatch_copy_125"/>
    <linearGradient id="linear-gradient-6" x1="38.97" y1="92.22" x2="309.23" y2="92.22" xlink:href="#linear-gradient"/>
    <linearGradient id="linear-gradient-7" x1="73.23" y1="137.75" x2="334.37" y2="-9.65" xlink:href="#linear-gradient"/>
    <linearGradient id="New_Gradient_Swatch_copy_125-9" x1="38.94" y1="134.26" x2="309.2" y2="134.26" xlink:href="#New_Gradient_Swatch_copy_125"/>
    <clipPath id="clip-path">
      <path class="cls-1" d="M300.08,65.13C281.46,38.44,247.65,23.64,216,17.32a214,214,0,0,0-40-4.09C108.89,13,65.57,39,48.24,64.41,83.89,11.69,202.42-2.14,271,38.84,284,46.64,293.72,55.61,300.08,65.13Z"/>
    </clipPath>
    <linearGradient id="linear-gradient-8" x1="310.12" y1="184.23" x2="373.9" y2="274.54" xlink:href="#linear-gradient"/>
  </defs>
  <g class="cls-2">
    <g id="Layer_1" data-name="Layer 1">
      <g>
        <path class="cls-3" d="M156.68,353l-2.44,0h-.33c-1.57,0-3.21-.06-4.86-.13l-.71,0c-1.52-.06-3-.15-4.49-.24l-.93-.07c-1.43-.1-2.86-.22-4.3-.35l-.94-.1c-1.44-.14-2.87-.3-4.29-.47l-.88-.11c-1.47-.18-2.93-.39-4.39-.61l-.79-.12c-1.47-.22-3-.48-4.51-.75l2.07-12.83-2.26,12.79-.37-.06c-1.56-.28-3.17-.6-4.78-.94l-.29-.06a166.52,166.52,0,0,1-30.35-9.46l-1-.41q-2.22-1-4.38-2l-1.23-.57c-1.87-.91-3.52-1.74-5.09-2.57l-1-.55c-1.29-.7-2.56-1.41-3.81-2.15l-.83-.46c-.34-.2-.64-.39-.93-.59q-2.22-1.34-4.33-2.75l-.91-.58c-1.51-1-3.09-2.17-4.84-3.48l-1.36-1A107.19,107.19,0,0,1,43.4,309.56c-.45-.49-.9-1-1.35-1.52-1-1.09-1.88-2.2-2.78-3.32-.26-.3-.52-.61-.76-.93a92.29,92.29,0,0,1-8.79-13.72l-.29-.58q-.93-1.78-1.77-3.63s-.09-.21-.12-.26c-.56-1.24-1.08-2.49-1.58-3.76-.14-.35-.28-.72-.42-1.09q-.63-1.65-1.2-3.33l-.24-.71c-.41-1.26-.77-2.48-1.11-3.71-.12-.43-.24-.88-.36-1.34-.3-1.14-.58-2.29-.83-3.45l-.19-.88c-.25-1.23-.48-2.5-.7-3.78-.06-.41-.13-.82-.19-1.24-.21-1.4-.4-2.82-.54-4.26l-.05-.4c-.19-1.78-.28-2.85-.3-3.81-.12-5.75-.37-24.65,0-78.44l-1.2-1.92a62.28,62.28,0,0,1-9.35-28.39L8.94,142c-3.62-21.6,4.92-43.43,23.47-60,2.21-2.1,4.63-4.19,7.22-6.22a72.34,72.34,0,0,1,12-18.43,94.76,94.76,0,0,1,7.93-8.12C79.31,30.88,108.63,17.53,142,11.78a224.63,224.63,0,0,1,40.47-3.66,218.27,218.27,0,0,1,57.81,7.68c14.88,3.94,65.25,19.93,83.76,58.81.67,1.41,1.3,2.85,1.87,4.28.25.64.48,1.29.71,1.94l.47,1.34c.15.4.28.76.39,1.12.22.68.41,1.37.59,2.06l.4,1.47c.1.35.19.66.26,1,.17.71.31,1.44.45,2.18,0,0,.26,1.34.28,1.47.07.32.13.62.17.92.13.79.22,1.6.31,2.41l.07.69c.07.51.13,1,.18,1.54.05.71.08,1.43.09,2.14l0,.84c0,.57.05,1.14.05,1.71,0,.34,0,.71,0,1.07V106c0,.31,0,.6,0,.88s0,1.22,0,1.22c0,1.23-.13,2.52-.25,3.77,0,0,0,.22,0,.26-1.86,18.7-12.19,35.93-29.94,50-.21.57-.43,1.14-.66,1.7s-.41,1-.63,1.56l-.07.16a67.21,67.21,0,0,1-5.85,10.85v7.31c-.06,30.2-.09,48.43-.3,60.45-.08,5.57-.18,9-.35,11.79-.1,2.09-.22,3.9-.37,5.53-.09,1.33-.28,2.88-.57,4.58a50.77,50.77,0,0,1-1.38,6.18c-.19.69-.4,1.42-.63,2.17l-.3,1c-.24.75-.49,1.49-.75,2.26l-.47,1.3-.57,1.49c-.26.67-.52,1.33-.8,2s-.52,1.22-.8,1.85c-.21.48-.42.95-.65,1.42-.41.9-.86,1.82-1.34,2.76-.14.28-.56,1.08-.56,1.08-.46.87-1,1.77-1.47,2.69l-.41.72c-.66,1.15-1.39,2.34-2.16,3.54l-.38.59c-1.49,2.3-3.16,4.64-4.93,6.92l-.82,1c-.85,1.07-1.73,2.13-2.66,3.2-1.27,1.44-2.6,2.86-4.16,4.43l-1.18,1.17c-1.09,1.07-2.21,2.13-3.35,3.16,0,0-.81.74-1.09,1-1.56,1.38-3.05,2.62-4.56,3.82l-.54.41c-1.39,1.09-2.8,2.15-4.26,3.19l-1.27.9q-2.08,1.44-4.21,2.81l-.78.5c-1.67,1.05-3.44,2.1-5.24,3.12l-.85.47c-1.5.83-3,1.65-4.61,2.44l-1.14.57c-3.66,1.81-7.48,3.5-11.34,5l-.82.32q-2.58,1-5.24,1.91l-.78.28c-4,1.35-8.1,2.57-12.27,3.64l-.69.17c-2,.51-4.06,1-6,1.4l-.18.05c-4.23.89-8.59,1.65-13,2.25l-.54.07A191.68,191.68,0,0,1,156.68,353Z"/>
        <path class="cls-4" d="M148.56,344.82h-2.77c-1.57,0-3.22-.07-4.86-.13l-.71,0c-1.52-.07-3-.15-4.49-.25l-.93-.07c-1.43-.1-2.87-.21-4.3-.35l-.94-.09c-1.45-.14-2.87-.3-4.3-.47l-.87-.11c-1.48-.19-2.94-.39-4.39-.61l-.79-.12c-1.48-.23-3-.48-4.52-.75L116.76,329l-2.26,12.8-.36-.06c-1.56-.29-3.18-.61-4.79-1l-.28-.06a166.07,166.07,0,0,1-30.36-9.45l-1-.42c-1.48-.64-2.94-1.29-4.38-2l-1.23-.57c-1.87-.91-3.53-1.74-5.09-2.58-.22-.11-1-.54-1-.54-1.29-.7-2.56-1.42-3.82-2.15-.33-.18-.58-.32-.82-.47s-.64-.39-.93-.58c-1.48-.9-2.92-1.81-4.33-2.75l-.91-.59c-1.51-1-3.1-2.16-4.84-3.47l-1.36-1a108,108,0,0,1-13.78-12.69l-1.35-1.52c-1-1.09-1.88-2.2-2.77-3.32-.26-.3-.52-.61-.77-.93A92.22,92.22,0,0,1,21.6,282l-.3-.58c-.61-1.2-1.2-2.4-1.76-3.63,0,0-.1-.21-.12-.27-.56-1.23-1.08-2.49-1.58-3.76-.14-.34-.29-.71-.43-1.09-.42-1.09-.82-2.2-1.19-3.33l-.24-.7c-.41-1.26-.77-2.48-1.11-3.71-.12-.43-.24-.88-.36-1.34-.3-1.14-.58-2.29-.83-3.46l-.19-.87c-.26-1.23-.49-2.5-.7-3.78-.07-.41-.13-.83-.19-1.24-.21-1.41-.4-2.82-.55-4.26l0-.4c-.19-1.79-.29-2.85-.3-3.81-.12-5.75-.37-24.65-.05-78.44-.1-.16-1-1.65-1.2-1.92A62.32,62.32,0,0,1,1.11,137l-.3-3.07c-3.61-21.6,4.92-43.42,23.48-60,2.21-2.11,4.63-4.19,7.22-6.23a72.46,72.46,0,0,1,12-18.42,93.36,93.36,0,0,1,7.93-8.13C71.19,22.75,100.5,9.41,133.86,3.65A225.54,225.54,0,0,1,174.33,0a218,218,0,0,1,57.81,7.68C247,11.62,297.38,27.61,315.9,66.49c.67,1.41,1.3,2.85,1.87,4.28.25.63.48,1.28.7,1.93l.48,1.35c.15.4.27.76.39,1.12.21.68.4,1.37.59,2.06l.4,1.47c.1.34.18.65.26,1,.17.72.31,1.45.44,2.19,0,0,.27,1.34.29,1.46.07.32.12.62.17.92.13.8.22,1.61.3,2.41l.08.7c.07.51.13,1,.17,1.54.06.71.08,1.42.1,2.14l0,.83c0,.57.06,1.14.05,1.71q0,.52,0,1.08v3.2c0,.32,0,.6,0,.89s0,1.22,0,1.22c-.05,1.23-.13,2.51-.25,3.77,0,0,0,.21,0,.25-1.86,18.71-12.19,35.93-29.94,50-.2.57-.42,1.13-.65,1.7s-.42,1-.64,1.55l-.06.17a67.21,67.21,0,0,1-5.85,10.85v7.3c-.06,30.21-.09,48.44-.3,60.45-.08,5.58-.18,9-.35,11.79-.1,2.1-.23,3.91-.38,5.54a43.25,43.25,0,0,1-.56,4.58,48.86,48.86,0,0,1-1.39,6.17c-.18.7-.4,1.43-.62,2.18l-.31,1c-.24.75-.48,1.49-.75,2.25-.11.33-.47,1.31-.47,1.31-.18.5-.37,1-.56,1.49-.26.67-.53,1.32-.81,2s-.51,1.22-.79,1.84l-.65,1.43c-.42.9-.86,1.82-1.34,2.76-.14.28-.56,1.07-.56,1.07-.46.87-1,1.78-1.47,2.69l-.41.73c-.66,1.14-1.4,2.34-2.16,3.54l-.38.58c-1.49,2.3-3.16,4.65-4.93,6.92l-.82,1.05c-.86,1.06-1.73,2.13-2.66,3.2-1.27,1.43-2.61,2.85-4.16,4.43l-1.18,1.16q-1.65,1.62-3.36,3.16l-1.08,1c-1.57,1.37-3.06,2.62-4.56,3.81l-.54.42c-1.39,1.09-2.81,2.14-4.26,3.18l-1.28.91q-2.07,1.44-4.21,2.8l-.77.5c-1.68,1.06-3.44,2.1-5.24,3.13l-.86.46c-1.49.83-3,1.65-4.6,2.44l-1.14.58c-3.67,1.81-7.48,3.5-11.34,5l-.82.31q-2.58,1-5.24,1.92l-.79.28c-4,1.35-8.1,2.57-12.27,3.64l-.69.17c-2,.51-4,1-6,1.4l-.19,0c-4.22.9-8.58,1.66-13,2.26l-.54.07A191.67,191.67,0,0,1,148.56,344.82Z"/>
        <g>
          <g>
            <path class="cls-5" d="M268.5,89.26c-8.52-9.58-19.17-16.87-30.44-22.72-.82-.46-3-1.62-3.91-2a.15.15,0,0,1-.1-.06,170,170,0,0,0-22.59-8.72,188.92,188.92,0,0,0-21.58-5.3c-1.14-.34-7.11-1.22-8.27-1.41C103.94,37.43,10,71.23,13.29,126.83c.15,2.54,1,10.83,1.07,11.87a3.63,3.63,0,0,1,.09.56c.43,2.81.86,4.47.86,4.47a56.06,56.06,0,0,0,9.37,19.56c-.34,54.43-.13,75.31,0,82.23,0,.61.21,2.48.27,3.09a75.74,75.74,0,0,0,15.68,39.1,80.19,80.19,0,0,0,7.65,8.54A101.29,101.29,0,0,0,68,311.37a128.69,128.69,0,0,0,20.85,9.95c23.54,8.91,50.88,12.25,77.24,9.65,33.55-3.31,65.52-16.2,86.09-39.43a79,79,0,0,0,17-31,43.94,43.94,0,0,0,1.5-8.2c.06-.77.09-1.41.12-2,.55-7.17.74-7.5.89-86.28,9.9-13.34,10.52-23.92,11.27-32.23.09-.83.15-1.63.21-2.3C285.46,106.41,268.5,89.26,268.5,89.26Z"/>
            <path class="cls-6" d="M88.88,182.73V321.32A128.69,128.69,0,0,1,68,311.37a101.29,101.29,0,0,1-19.72-15.12V166.66Z"/>
            <path class="cls-7" d="M283,131.79c-.75,8.31-1.37,18.9-11.27,32.23-.15,78.78-.34,79.11-.89,86.28,0,.61-.06,1.25-.12,2a43.94,43.94,0,0,1-1.5,8.2,75.84,75.84,0,0,1-11.94,24.62c-1.5,2.11-3.18,4.25-5,6.4-20.57,23.23-52.54,36.12-86.09,39.43a83.14,83.14,0,0,0,16.9-8.91c16.47-11.88,14.14-28.32,14.14-28.32s-.37-90.32,0-91.85C211.85,185.33,260.92,133.36,283,131.79Z"/>
            <path class="cls-8" d="M283,131.79c-.75,8.31-1.37,18.9-11.27,32.23-.16,80.4,0,88-2.51,96.5a75.84,75.84,0,0,1-11.94,24.62V169.75l24.37-37.84C282.09,131.85,282.55,131.82,283,131.79Z"/>
            <g>
              <path class="cls-9" d="M283.41,125.26c-2.07,72.7-150.26,102.65-232,53.92-26-15.55-44.86-39.91-35.94-68.86A60.4,60.4,0,0,1,26.94,90.24C28.47,87.18,43.41,72.61,65.15,63c20.33-9,40.55-13.53,63-15.58,26.38-2.59,56.58,1.57,61.69,3,.8,0,10.05,2.12,10.86,2.33a176.25,176.25,0,0,1,33.31,11.69.15.15,0,0,0,.1.06c2.49,1.07,8.68,4.56,11,5.91a99.29,99.29,0,0,1,23.3,18.8c.09,0,2.78,3.32,2.84,3.4a62.72,62.72,0,0,1,8,13.41,62,62,0,0,1,2.24,6.31A49.22,49.22,0,0,1,283.41,125.26Z"/>
              <g>
                <path class="cls-10" d="M47.39,72.66C32.92,82,20.06,94.91,15.2,111.22c-3,10.16-1.81,17.25-1,25.7-1.93-21.15,11.45-49.29,57.06-67.76,91.21-36.93,217.48,3.68,211.19,68.51.26-2.72.53-5.44.79-8.17C290.22,57.26,134.07,16.44,47.39,72.66Z"/>
                <path class="cls-11" d="M168.86,56.18C107.15,50.55,26,72.51,15,123.05c-6.87,31.74,19.86,50.16,52.52,64.36,22.88-12.11,58.26-17.79,83.88-17.08a183,183,0,0,1,77.34,17.51c19.63-8.18,51.57-28.77,53.65-50.17C287.21,88.27,219,60.74,168.86,56.18Z"/>
                <path class="cls-12" d="M282,140.85c-2.51,15.85-13.9,29.55-26.61,39.25,0,0-.06,0-.09.09-2.2,1.62-4.5,3.24-6.92,4.8,51.71-40.91,14-100-72.1-111.71C63.73,57.92-18.15,131.73,48.65,185c-2.54-1.65-5-3.39-7.38-5.2,0,0-.06-.06-.06-.06-6.84-5.35-13.51-11.46-18.34-19-5.2-7.81-8.48-16.44-8.88-25.69a1,1,0,0,1,0-.31c0-.67,0-1.31,0-2a48.32,48.32,0,0,1,1.1-9.64C26,72.51,107.15,50.56,168.87,56.17,219.77,60.8,289.62,89,282,140.85Z"/>
                <path class="cls-13" d="M189,197.57c-87.12,15.54-180.36-21.4-172.52-80.22C18.74,96.31,48.27,59.4,116,50,94.71,112.84,131.86,173.32,189,197.57Z"/>
              </g>
              <path class="cls-14" d="M44.27,182c8.88,6.29,10.81,7.85,15.45,10.62,50.05,29.92,135.52,29.3,182.2-3.79C185.61,220.42,94.34,217.51,44.27,182Z"/>
              <path class="cls-15" d="M283.19,129.49c-1.06,10.74-.61,29.86-27.8,50.61,0,0-.06,0-.09.09-57.8,42.52-161.68,39.31-214-.4,0,0-.06-.06-.06-.06l-1.32-1c-6.24-5-12.27-10.56-17-18a61.52,61.52,0,0,1-6.74-14c-1.77-5.73-1.89-9-2.72-18,1.56,17.3,12.46,31.6,26.48,42.5,70.64,55.53,230.07,32.62,242.72-37.69C282.85,132.21,283.07,130.87,283.19,129.49Z"/>
              <path class="cls-16" d="M197.38,52c-3.06-.61-27.91-6.73-55.12-5.76-36.49,0-83.46,12.59-109.16,37.18C2.63,110.53,5.19,151.5,51.43,179.18c84.7,50.51,232.15,15.82,232-54.13C283.31,85.39,235.8,60.34,197.38,52Zm74.36,94.48C243.59,201,123.89,217.44,55.93,176.67,24.75,158,8.84,128.55,27.19,99.18v0c6.43-10.29,16.9-19.9,31.35-28C125.83,33.37,238,49,269.57,99.76a0,0,0,0,0,0,0C278.9,114.85,279.61,131.26,271.74,146.51Z"/>
            </g>
            <path class="cls-17" d="M270.82,250.3c0,.61-.06,1.25-.12,2a42.37,42.37,0,0,1-1.5,8.2,79,79,0,0,1-17,31C192,359.56,34.17,339,25,248.61c2.45,16.23,14.91,35.15,45.89,49.63C146.68,333.6,261.36,306.38,270.82,250.3Z"/>
          </g>
          <g>
            <path class="cls-18" d="M43.11,204l0,11.3a45.64,45.64,0,0,0,22.2,39.33c.23.19,3.29,2,3.56,2.11a17.19,17.19,0,0,0,25.79-14.85l0-8.15-8.08-4.63c0,.06,0,10.49,0,10.55a10.14,10.14,0,0,1-15.22,8.47l-2.79-1.64a34.68,34.68,0,0,1-17.38-30.16l0-7.68Z"/>
            <g>
              <path class="cls-19" d="M51.2,198.07l0,10.59-8.88,5.17a10.17,10.17,0,0,0-3.55,3.43,10.15,10.15,0,0,1,3.34-13.9S51.15,198.1,51.2,198.07Z"/>
              <g>
                <path class="cls-19" d="M94.69,223.15c-39.09,10.84-64.06,7.2-55.95-5.89a10.21,10.21,0,0,1,0-10.5c-8.58,5-4.55,2.66-11.12,6.49,0,.45-.05,10.15,0,10.59a16.91,16.91,0,0,0,8.52,14l2.9,1.65a45.77,45.77,0,0,0,45.87-.06l9.76-5.67h0Z"/>
                <path class="cls-20" d="M94.67,223.14l-9.76,5.7a45.61,45.61,0,0,1-45.16.42c-.28-.1-3.34-1.86-3.61-2a17.18,17.18,0,0,1,0-29.75l7-4.11,8.05,4.69c-.05,0-9.08,5.25-9.12,5.29a10.14,10.14,0,0,0,.27,17.42l2.82,1.6a34.68,34.68,0,0,0,34.81,0l6.64-3.85Z"/>
              </g>
            </g>
          </g>
          <g>
            <g class="cls-2">
              <path class="cls-21" d="M177.84,15c-38.09-.69-83.38,8.32-113.26,32.16C40,66.76,39,84.93,38.94,97.06c.15-51,77.52-78.95,138.88-77.84,73.11,1.31,131.49,36.08,131.37,78.59,0-1.27,0-3,0-4.22C309.32,50.76,250.36,16.3,177.84,15Z"/>
              <ellipse class="cls-22" cx="174.06" cy="97.43" rx="78.27" ry="135.12" transform="translate(76.14 271.22) rotate(-89.84)"/>
              <path class="cls-23" d="M304.16,72.08C291.61,45.72,257.93,28,228.7,20.21,131.34-6.55,23.12,45.31,40.9,106.12c17.24,59,137.53,84.95,217,48.65,13.11-6,26-14.39,35.49-24.74C310.82,111.13,313,90.53,304.16,72.08Z"/>
              <path class="cls-24" d="M212.84,30.43c-38.56-10.6-93.92-4.34-120.48,26.75C83.8,67.8,81.86,78.77,84.85,89a41.33,41.33,0,0,0,9.85,16.63c9.59,10.3,24.62,18.11,42,22.8a151.64,151.64,0,0,0,41.56,5.09c18.66-.29,37.61-3.65,54.51-11.37,8.93-4.09,17.69-9.81,24.18-16.86C283.62,76.35,257.92,42.37,212.84,30.43Z"/>
              <path class="cls-25" d="M82.17,150.42c-22.63-12.23-43.29-32-43.22-57.59v4.23c-.08,27.55,23.75,48.21,48.4,60.24C173,199.08,309,165.58,309.19,97.81V93.59C309,162,165.17,195.26,82.17,150.42Z"/>
            </g>
            <g class="cls-2">
              <g class="cls-26">
                <path class="cls-27" d="M300.08,65.13C252.36-3.27,97.17-3.94,48.49,64,83.05,12.92,201.11-2.92,271,38.84c13,7.8,22.75,16.77,29.11,26.29Z"/>
              </g>
            </g>
            <path class="cls-28" d="M129.81,126.63a113.53,113.53,0,0,0-7.49,15.53A103.29,103.29,0,0,0,117,164c-25.47-6.89-47.51-18.34-61.6-33.46.46-.52.92-1,1.38-1.59,33.68-39,100-57,100-57l19.76,6.49C174.21,80.19,142.47,105,129.81,126.63Z"/>
            <path class="cls-29" d="M293.39,130c-44.73-37.5-111.52-50.47-111.52-50.47s-46.7,2.33.38-13c29.49-9.61,86.37-5.19,121.91,5.53C313,90.55,310.81,111.14,293.39,130Z"/>
            <path class="cls-30" d="M193.46,60.61c-8.19-4.9-21.65-5-30.07-.31s-8.61,12.52-.43,17.42,21.65,5,30.07.3S201.64,65.5,193.46,60.61Z"/>
            <g>
              <path class="cls-31" d="M199,58.42c.17-4.05-2-6.15-4.5-9.54l0,0c-7.46-10.06-32.6-10.48-40.51-.14h-.15c.05-.08-.49.7-2.48,3.32a9.3,9.3,0,0,0-2.1,6.36c0,1.09,0,2.86,0,3.64,0,4.33,3.3,7.82,8.14,10.23C159.61,80.91,180,83.93,188.53,76a8.37,8.37,0,0,0,2.31-3.57c6.86-3.54,8.55-8.07,8.25-14Z"/>
              <path class="cls-19" d="M190.89,72.33a8.38,8.38,0,0,1-2.36,3.7,17.14,17.14,0,0,1-7.9,3.92h0c-9.49,2.18-21.55-1.13-23.18-7.65,0,0,0,0,0-.06a68.1,68.1,0,0,0,19,2.14h0A69,69,0,0,0,190.89,72.33Z"/>
              <path class="cls-32" d="M190.89,72.33a8.38,8.38,0,0,1-2.36,3.7,17.14,17.14,0,0,1-7.9,3.92h0a9.92,9.92,0,0,1-3.12-2,42.56,42.56,0,0,1-18.28-4.65l-1.78-1-.67-.37a120.43,120.43,0,0,0,19.62,2.45h0C181.85,74.53,187.27,74.11,190.89,72.33Z"/>
              <path class="cls-19" d="M190.86,72.44c-14.84,7.8-41.54,2.06-41.58-10.37-.06-.92,0-3.24,0-4.17l49.81.52C199.45,65.58,196.91,69,190.86,72.44Z"/>
              <g>
                <path class="cls-33" d="M197.28,52.56l-2.75-3.68c.69.92-40.72-.06-40.68-.13s-.49.7-2.48,3.32c-5.85,7.7,1,15.34,10.81,18.48h0A40.41,40.41,0,0,0,175,72.35h0c9.28-.14,23-4.21,24.06-13.37h0A9.46,9.46,0,0,0,197.28,52.56Z"/>
                <g>
                  <path class="cls-34" d="M194.86,49.35c-7.34-11-34.68-10.82-41.53.25-5.8,9.4,8.2,18.7,24.77,17h0C188.13,65.54,200.85,59.33,194.86,49.35Z"/>
                  <path class="cls-20" d="M186.42,44.5c-6.56-3.92-17.36-4-24.11-.24s-6.91,10-.35,14,17.37,4,24.12.24S193,48.43,186.42,44.5Z"/>
                </g>
              </g>
            </g>
          </g>
        </g>
      </g>
    </g>
  </g>
</svg>
