<svg id="Layer_1" data-name="Layer 1" xmlns="http://www.w3.org/2000/svg" xmlns:xlink="http://www.w3.org/1999/xlink" width="310.64" height="266.57" viewBox="0 0 310.64 266.57">
  <defs>
    <style>
      .cls-1, .cls-10, .cls-12, .cls-13, .cls-14, .cls-16, .cls-17, .cls-19 {
        fill: none;
      }

      .cls-2 {
        fill: #353535;
        opacity: 0.3;
      }

      .cls-3 {
        fill: #ff0;
      }

      .cls-4 {
        fill: #261f2d;
      }

      .cls-5 {
        fill: #eecb84;
      }

      .cls-6 {
        fill: #f69d5a;
      }

      .cls-7 {
        fill: #dc8638;
      }

      .cls-8 {
        fill: #62262a;
      }

      .cls-9 {
        fill: #35161a;
      }

      .cls-10, .cls-13, .cls-16 {
        stroke: #873f36;
      }

      .cls-10, .cls-12, .cls-13, .cls-14, .cls-16, .cls-17, .cls-19 {
        stroke-miterlimit: 10;
      }

      .cls-10, .cls-12 {
        stroke-width: 3.75px;
      }

      .cls-11 {
        fill: #ae6d42;
      }

      .cls-12, .cls-14, .cls-17, .cls-19 {
        stroke: #62262a;
      }

      .cls-13 {
        stroke-width: 4.45px;
      }

      .cls-14 {
        stroke-width: 3.91px;
      }

      .cls-15 {
        fill: #f5ba22;
      }

      .cls-16 {
        stroke-width: 6.21px;
      }

      .cls-17 {
        stroke-width: 5.61px;
      }

      .cls-18 {
        fill: #cc7328;
      }

      .cls-19 {
        stroke-width: 5.63px;
      }

      .cls-20 {
        fill: #e85d3f;
      }

      .cls-21 {
        fill: #bf3927;
      }

      .cls-22 {
        clip-path: url(#clip-path);
      }

      .cls-23 {
        fill: #e5e5e4;
      }

      .cls-24 {
        fill: #f7991c;
      }

      .cls-25 {
        fill: #ee8322;
      }

      .cls-26 {
        fill: #de6e26;
      }

      .cls-27 {
        fill: #4e7a6c;
      }

      .cls-28 {
        fill: #8d4d21;
      }

      .cls-29 {
        opacity: 0.15;
      }
    </style>
    <clipPath id="clip-path">
      <rect class="cls-1" x="821.48" y="10.81" width="350.93" height="350.93" rx="26.14"/>
    </clipPath>
  </defs>
  <g>
    <path class="cls-2" d="M308.77,252l-2.4-3.14V224.2a9.07,9.07,0,0,0-3.4-7l-15.67-14.3v-8.21a9.1,9.1,0,0,0-4.52-8l-1.42-.83L270.27,174v-9.37a9.06,9.06,0,0,0-2-5.72l-1.88-2.32-.45-.63a9,9,0,0,0-1.1-1.27L244,129.18a9.08,9.08,0,0,0-7-3.35l-18,.07c.83-11.14-.32-23-4.87-30.41-2.69-4.37-.28-11-.29-11A9.06,9.06,0,0,0,205.39,72a8.78,8.78,0,0,0-2,.23,16.07,16.07,0,0,0-8.76,5.89c-2.55-3.49-5.19-6.49-7.58-9.2-7.91-9-8.93-10.89-5.46-17.33,5.76-10.7,6.93-20.49,3.48-29.08-4.83-12-16.75-16.21-18.09-16.64a9.11,9.11,0,0,0-11.33,5.39,9,9,0,0,0,4.81,11.5,7.8,7.8,0,0,1,3.14,2.56s-.57,3.78-11.08,10.4C140,43.63,133.22,53.61,129.7,63.23c-.42-.39-.75-.67-1-.89a9.22,9.22,0,0,0-6.1-2.34,9,9,0,0,0-8,13.3c.24,1.43.72,5.73.55,16.74-.11,7.1-2.37,13.42-4.76,20.12a96.59,96.59,0,0,0-4.64,15.77l-25.9-.1a9.08,9.08,0,0,0-7,3.35L48.59,158.91a9.06,9.06,0,0,0-2,5.73v9.22L33.77,186.6a9.08,9.08,0,0,0-4.45,9.87q.09.39.21.78v6l-16,14.12a9,9,0,0,0-3.07,6.8v19.93a9.12,9.12,0,0,0-.25,2.09v1.29L7.41,251a9.08,9.08,0,0,0,7.07,14.72l287.09.82a9.07,9.07,0,0,0,7.2-14.58Z"/>
    <path class="cls-3" d="M303.33,246.54l-2.4-3.13V218.76a9.1,9.1,0,0,0-3.4-7l-15.67-14.3V189.2a9.08,9.08,0,0,0-4.52-8l-1.43-.83-11.08-11.84V159.2a9.06,9.06,0,0,0-2-5.73l-1.87-2.31-.46-.63a7.84,7.84,0,0,0-1.1-1.27l-20.78-25.53a9.07,9.07,0,0,0-7-3.34l-18,.07c.84-11.14-.31-23-4.86-30.41-2.69-4.37-.29-11-.29-11A9.07,9.07,0,0,0,200,66.57a8.88,8.88,0,0,0-2,.24,16.08,16.08,0,0,0-8.75,5.89c-2.55-3.49-5.19-6.49-7.58-9.2-7.91-9-8.93-10.9-5.47-17.33,5.77-10.7,6.94-20.49,3.49-29.08C174.76,5,162.85.88,161.51.44A9.26,9.26,0,0,0,158.69,0,9.06,9.06,0,0,0,155,17.34a7.78,7.78,0,0,1,3.15,2.56s-.57,3.78-11.08,10.4c-12.5,7.88-19.27,17.87-22.79,27.49-.43-.39-.75-.67-1-.89a9.19,9.19,0,0,0-6.11-2.34,9,9,0,0,0-8,13.3c.24,1.43.72,5.73.55,16.74-.11,7.1-2.37,13.42-4.76,20.11a97,97,0,0,0-4.64,15.78l-25.91-.1a9.09,9.09,0,0,0-7,3.34L43.15,153.47a9.06,9.06,0,0,0-2,5.73v9.22L28.32,181.16A9.08,9.08,0,0,0,23.88,191q.09.39.21.78v6L8.08,212A9.06,9.06,0,0,0,5,218.76v19.93a9.12,9.12,0,0,0-.24,2.09v1.29L2,245.59A9.07,9.07,0,0,0,9,260.31l287.09.81a9.07,9.07,0,0,0,7.2-14.58Z"/>
    <g>
      <polygon class="cls-4" points="14.93 243.87 9.07 251.24 296.13 252.05 289.87 243.87 14.93 243.87"/>
      <g>
        <polygon class="cls-5" points="255.76 159.2 231.55 129.46 152.97 129.76 74.39 129.46 50.18 159.2 255.76 159.2"/>
        <polygon class="cls-6" points="271.57 189.04 243.74 159.3 153.43 159.6 63.12 159.3 33.16 189.15 271.57 189.04"/>
        <polygon class="cls-6" points="291.86 218.82 259.27 189.08 153.5 189.38 47.73 189.08 14.08 218.76 291.86 218.82"/>
        <polygon class="cls-7" points="243.9 155.78 226.41 133.88 152.97 134.1 79.53 133.88 61.1 155.78 243.9 155.78"/>
        <polygon class="cls-6" points="79.24 155.78 226.24 155.78 226.24 133.88 152.97 134.1 79.53 133.88 79.24 134.23 79.24 155.78"/>
        <g>
          <g>
            <path class="cls-8" d="M163.63,155.68a26.53,26.53,0,0,1,16.23-.48c9.28,2.52,11,.12,11,.12s-.87,1.73,11.52,1.17,30.89-10.44,38.59-1.11c0,0,7.56,10.82-8.23,11.05,0,0-21-.85-31,2.44s-23.24.33-27.49-.26a15.38,15.38,0,0,0-7.63.95Z"/>
            <path class="cls-7" d="M241.13,156.14c-7.7-9.33-26.21.55-38.6,1.11s-13.2,1.23-22.47-1.29a26.49,26.49,0,0,0-16.23.47l2.74,13.12h0l-2.9-13.88a26.53,26.53,0,0,1,16.23-.48c9.28,2.52,11,.12,11,.12s-.87,1.73,11.52,1.17,30.89-10.44,38.59-1.11a12,12,0,0,1,1.65,3.81A12.19,12.19,0,0,0,241.13,156.14Z"/>
            <path class="cls-9" d="M173.17,164.82c4.26.59,17.45,3.56,27.5.26s31-2.44,31-2.44c8.08-.12,10-3,10-5.8,1.42,3,3.1,9.41-9.05,9.59,0,0-21-.85-31,2.44s-23.24.33-27.49-.26a15.38,15.38,0,0,0-7.63.95l-.81-3.86A15.5,15.5,0,0,1,173.17,164.82Z"/>
            <path class="cls-10" d="M170.62,156.27s4.53-1.28,12.88,1.24,14.37.44,18.21.22,15.07-3.71,20.82-2.5,11.82,3,14.67,2,1.32-2.9-2-3.35-6.2-.34-6.51.58,3.46,1.45,5.51,1.08"/>
            <path class="cls-10" d="M169.28,164.44a47.27,47.27,0,0,0,13.61,3.78c7.49.84,17.42-2.82,24.48-3.28s24.53.62,28.87-1.22,5.47-2.82,5.47-2.82"/>
            <path class="cls-10" d="M188.36,164.16a5.17,5.17,0,0,1-3.53-.08c-1.79-.75,2-2.09,4.22-1.59s5,1.45,1.85,2.49-5,1.21-7.9.11-1.37-4.49,5.25-3.78,8.41,2.4,13,2.24,18.09-1.09,22.81-3.67,10.47-.44,13.38-1.29,3.42-1.53,3.42-1.53"/>
            <path class="cls-10" d="M166.71,158.79s2.52,4.22,9.47,2.15,19.14-.71,23.22-.19,12.52-.19,18.41-1.71a55,55,0,0,1,10.47-1.68"/>
            <path class="cls-11" d="M171.63,160.27a7.15,7.15,0,1,1-9-4.57A7.15,7.15,0,0,1,171.63,160.27Z"/>
            <path class="cls-12" d="M170,160.79a5.48,5.48,0,1,1-6.91-3.51A5.48,5.48,0,0,1,170,160.79Z"/>
            <path class="cls-12" d="M168.74,161.21a4.12,4.12,0,1,1-5.19-2.62A4.11,4.11,0,0,1,168.74,161.21Z"/>
            <path class="cls-12" d="M166.6,161.92a1.86,1.86,0,1,1-2.35-1.19A1.85,1.85,0,0,1,166.6,161.92Z"/>
          </g>
          <path class="cls-8" d="M69.07,150.22a31.52,31.52,0,0,1,19.22,1.63c10.6,4.24,12.91,1.62,12.91,1.62s-1.26,1.93,13.43,2.94,37.86-8.14,45.68,3.91c0,0,7.47,13.78-11.2,11.92,0,0-24.65-3.84-37-1.31s-27.46-2.76-32.4-4a18.31,18.31,0,0,0-9.13.09Z"/>
          <path class="cls-7" d="M160.44,161.24c-7.82-12.05-31-2.89-45.68-3.91S99,157,88.42,152.78a31.48,31.48,0,0,0-19.22-1.64L70.67,167h0l-1.55-16.78a31.52,31.52,0,0,1,19.22,1.63c10.6,4.24,12.91,1.62,12.91,1.62s-1.26,1.93,13.43,2.94,37.86-8.14,45.68,3.91a14,14,0,0,1,1.43,4.72A14.1,14.1,0,0,0,160.44,161.24Z"/>
          <path class="cls-9" d="M79.1,162.3c4.94,1.27,20.1,6.55,32.41,4s37,1.31,37,1.31c9.55,1,12.26-2.18,12.63-5.48,1.28,3.69,2.39,11.52-12,10.09,0,0-24.65-3.84-37-1.31s-27.46-2.76-32.4-4a18.31,18.31,0,0,0-9.13.09l-.43-4.67A18.49,18.49,0,0,1,79.1,162.3Z"/>
          <path class="cls-13" d="M77.25,151.87s5.51-.9,15,3.2,16.89,2.47,21.46,2.72,18.28-2.34,24.9-.14,13.53,5.18,17,4.34,1.94-3.25-1.94-4.24-7.26-1.23-7.75-.18,3.88,2.17,6.35,2"/>
          <path class="cls-13" d="M74.56,161.32a56.16,56.16,0,0,0,15.54,6.31c8.73,2,20.94-1,29.33-.57s28.85,4,34.23,2.46,6.83-2.59,6.83-2.59"/>
          <path class="cls-13" d="M97.11,163.58A6.13,6.13,0,0,1,93,163c-2-1.13,2.64-2.21,5.2-1.31s5.71,2.39,1.84,3.18-6,.77-9.34-.93-1-5.49,6.71-3.75,9.6,4,15,4.39,21.5,1.16,27.41-1.24,12.42.89,16,.28,4.23-1.35,4.23-1.35"/>
          <path class="cls-13" d="M72.29,154.31s2.4,5.33,10.88,3.82,22.68,1.75,27.43,2.91,14.78,1.47,21.94.48a64.21,64.21,0,0,1,12.59-.57"/>
          <path class="cls-11" d="M77,157.18c.94,4.6-1.16,8.91-4.7,9.64s-7.17-2.41-8.11-7,1.16-8.91,4.69-9.64S76,152.59,77,157.18Z"/>
          <path class="cls-14" d="M75.5,157.49c.72,3.52-.89,6.83-3.61,7.39s-5.49-1.85-6.22-5.37.89-6.83,3.6-7.39S74.77,154,75.5,157.49Z"/>
          <path class="cls-14" d="M74.27,157.74c.54,2.65-.67,5.13-2.7,5.54s-4.13-1.38-4.67-4,.67-5.13,2.7-5.54S73.72,155.1,74.27,157.74Z"/>
          <path class="cls-14" d="M72.25,158.16a1.76,1.76,0,1,1-2.11-1.82C71.06,156.15,72,157,72.25,158.16Z"/>
          <path class="cls-15" d="M153.51,152.61c-1.08-.71-35.39,10.06-42.86-11.69s7.79-35.08,8.12-56.18-1.63-21.11-1.63-21.11,10.07,7.47,14,26.3c0,0-9.1-33.12,20.78-52s6.82-28.9,6.82-28.9,23.06,7.47,9.42,32.8,24.35,26.3,24,69.5c0,0,7.14-5.2,3.25-19.49S200,75.64,200,75.64s-4.28,10.62,1,19.16C211,111.23,202.55,184.76,153.51,152.61Z"/>
          <path class="cls-7" d="M119.79,103.73s-2.89,3.81-.12,9.57.69,9.92.69,9.92,6.11-4.5,3.23-10.15S119.44,107.54,119.79,103.73Z"/>
          <path class="cls-7" d="M159.28,53.71s5.92,3.37,5.54,12.5,4.67,13.4,4.67,13.4-10.55-2.46-10-11.5S161.87,58.51,159.28,53.71Z"/>
          <path class="cls-7" d="M151.81,149.28s-22.89-1.46-24.6-25.57,18-33.62,19.73-52.37c0,0,23.14,13.15,18.75,41.65,0,0,11-4.63,7.8-20.95,0,0,11.93,11.94,1.46,27.28S151.08,133.94,151.81,149.28Z"/>
          <path class="cls-8" d="M154.49,155.21a40,40,0,0,0,17,4.87c10.23.65,17.21,1.78,17.21,1.78"/>
          <path class="cls-8" d="M98.15,130.69s12.5-1.14,25.81,7.63,17.21,5.84,17.21,5.84-7.3-7.3-6-14.45l7.14-.65s-3.41,17.38,16.4,22.9,54.07-.49,61.38,18.18c0,0,6.33,21-18.68,13.16,0,0-32.63-12.18-50.17-12.18s-36.79-11.5-43.19-14.62a25.46,25.46,0,0,0-12.5-2.43Z"/>
          <g>
            <path class="cls-7" d="M158.71,154.76c19.81,5.52,54.07-.49,61.38,18.18a20.36,20.36,0,0,1,.65,3.78,19.81,19.81,0,0,0-.65-6.58c-7.31-18.67-41.57-12.66-61.38-18.18-13.5-3.76-16.22-13-16.58-18.56C141.84,137.77,142.49,150.24,158.71,154.76Z"/>
            <path class="cls-7" d="M98.15,133.49s12.5-1.14,25.81,7.63,16.33,5,15.23,3.51c-2.32.07-7-.87-15.23-6.31-13.31-8.77-25.81-7.63-25.81-7.63l-2.6,23.38.31,0Z"/>
          </g>
          <g>
            <path class="cls-9" d="M220.2,170.58c-.65,5.22-4.47,10.67-19.27,6.06,0,0-32.64-12.18-50.18-12.18S114,153,107.56,149.85a25.71,25.71,0,0,0-11.27-2.49l-.74,6.71a25.46,25.46,0,0,1,12.5,2.43c6.4,3.12,25.66,14.62,43.19,14.62s50.17,12.18,50.17,12.18C224.27,190.42,220.94,173.53,220.2,170.58Z"/>
            <path class="cls-9" d="M142.16,130.23c.07-.74.15-1.17.15-1.17l-.38,0C142,129.47,142.07,129.84,142.16,130.23Z"/>
          </g>
          <path class="cls-16" d="M108.86,135.23s7.8.33,19.65,8.61,22.41,8.12,28.58,9.74,25.65,1.95,34.09,6.82,17,10.88,22.09,10.72,3.57-3.9-1.46-6.33-9.58-3.74-10.56-2.44,4.71,4.06,8.12,4.55"/>
          <path class="cls-16" d="M102.53,147.41a78.22,78.22,0,0,0,19.48,13c11.37,5.2,28.91,4.55,40.27,7.47s38.32,13.64,46.12,13,10.06-1.62,10.06-1.62"/>
          <path class="cls-16" d="M132.73,156.83a8.57,8.57,0,0,1-5.52-2c-2.43-2.11,4.22-2.27,7.47-.32s7.14,4.87,1.62,4.87-8.44-.65-12.5-3.9.16-7.79,10.23-3.25,12,8.12,19.32,10.23,29.07,7.63,37.83,6,16.73,4.71,21.76,4.87,6.17-.65,6.17-.65"/>
          <path class="cls-16" d="M101.39,137.18s1.79,8,13.81,8.28,30.52,8.77,36.69,11.69,19.81,6.17,29.88,6.82a90.16,90.16,0,0,1,17.37,2.76"/>
          <path class="cls-11" d="M108.38,142.05c0,6.55-4.33,11.86-9.67,11.86s-9.66-5.31-9.66-11.86,4.33-11.85,9.66-11.85S108.38,135.51,108.38,142.05Z"/>
          <path class="cls-17" d="M106.13,142.05c0,5-3.32,9.1-7.42,9.1s-7.41-4.07-7.41-9.1S94.62,133,98.71,133,106.13,137,106.13,142.05Z"/>
          <ellipse class="cls-17" cx="98.71" cy="142.05" rx="5.56" ry="6.82"/>
          <path class="cls-17" d="M101.23,142.05A2.57,2.57,0,1,1,98.71,139,2.85,2.85,0,0,1,101.23,142.05Z"/>
          <path class="cls-8" d="M204.49,142.77s-12.41-1.92-26.25,6-17.54,4.75-17.54,4.75,2.13,2.41-18,6.68-53.93-3.88-62.4,14.3c0,0-7.63,20.51,17.81,14.3,0,0,33.34-10.11,50.84-9s37.44-9.16,44-11.88a25.42,25.42,0,0,1,12.63-1.64Z"/>
          <path class="cls-18" d="M80.31,175.8c8.47-18.18,42.28-10,62.4-14.3s21.69-3.52,35.53-11.44,26.25-6,26.25-6l1.06,22.19h.06l-1.12-23.5s-12.41-1.92-26.25,6-17.54,4.75-17.54,4.75,2.13,2.41-18,6.68-53.93-3.88-62.4,14.3a19.74,19.74,0,0,0-1.06,6.8A20.23,20.23,0,0,1,80.31,175.8Z"/>
          <path class="cls-9" d="M193,161.42c-6.58,2.71-26.52,13-44,11.87s-50.84,9-50.84,9c-13,3.18-17.37-.63-18.52-5.11-1,5.34-1.06,16.39,18.52,11.61,0,0,33.34-10.11,50.84-9s37.44-9.16,44-11.88a25.42,25.42,0,0,1,12.63-1.64l-.31-6.54A25.58,25.58,0,0,0,193,161.42Z"/>
          <path class="cls-16" d="M193.51,146.63s-7.8-.16-20.15,7.36-22.87,6.7-29.13,7.93-25.73.34-34.46,4.67-17.7,9.79-22.71,9.31-3.32-4.11,1.85-6.23,9.8-3.13,10.69-1.77-4.95,3.76-8.39,4"/>
          <path class="cls-16" d="M199.06,159.19a78.59,78.59,0,0,1-20.26,11.74c-11.67,4.47-29.13,2.72-40.65,4.93s-39.1,11.2-46.84,10.07-10-2.25-10-2.25"/>
          <path class="cls-16" d="M168.33,166.69a8.51,8.51,0,0,0,5.63-1.6c2.57-2-4.07-2.53-7.43-.79s-7.44,4.41-1.93,4.76,8.47-.12,12.73-3.11.32-7.78-10-3.88-12.5,7.35-19.93,9-29.48,5.79-38.13,3.62-17,3.65-22,3.5-6.12-1-6.12-1"/>
          <path class="cls-16" d="M200.84,149.05s-2.28,7.83-14.29,7.4-31,6.83-37.36,9.36-20.16,4.92-30.25,4.93a90.15,90.15,0,0,0-17.51,1.67"/>
          <path class="cls-11" d="M195.7,153.9c-.41,6.53,3.6,12.1,9,12.44s10-4.69,10.45-11.22-3.6-12.1-9-12.44S196.11,147.37,195.7,153.9Z"/>
          <path class="cls-19" d="M198,154c-.31,5,2.77,9.29,6.88,9.54s7.7-3.59,8-8.6-2.76-9.29-6.87-9.54S198.28,149,198,154Z"/>
          <path class="cls-19" d="M199.82,154.16c-.23,3.76,2.08,7,5.16,7.16s5.78-2.7,6-6.46-2.07-7-5.15-7.16S200.06,150.4,199.82,154.16Z"/>
          <path class="cls-19" d="M202.88,154.35a2.58,2.58,0,1,0,2.72-2.92A2.85,2.85,0,0,0,202.88,154.35Z"/>
        </g>
        <rect class="cls-20" x="33.16" y="189.15" width="239.63" height="29.61"/>
        <rect class="cls-20" x="50.18" y="159.2" width="205.58" height="29.95"/>
        <rect class="cls-20" x="14.08" y="218.76" width="277.78" height="29.61"/>
        <path class="cls-21" d="M255.76,163c-40.67,26.53-179.38,20-205.58,18.54v7.59H255.76Z"/>
        <path class="cls-21" d="M272.7,192.63c-47.25,26.53-209.12,20-239.54,18.54v7.59H272.7Z"/>
        <path class="cls-21" d="M291.86,222.24c-55,26.53-242.6,20-278,18.54v7.59h278Z"/>
        <polygon class="cls-5" points="255.76 159.58 50.18 159.58 53.72 155.78 253.07 155.78 255.76 159.58"/>
      </g>
      <g>
        <path class="cls-6" d="M19.29,239.38a1.09,1.09,0,0,1-.87-1.75l10.06-13.35a1.09,1.09,0,0,1,1.73,0l10.73,13.36a1.09,1.09,0,0,1-1.7,1.37l-9.86-12.26L20.16,239A1.09,1.09,0,0,1,19.29,239.38Z"/>
        <path class="cls-6" d="M32.73,235.78a3,3,0,1,1-3-3A3,3,0,0,1,32.73,235.78Z"/>
      </g>
      <g>
        <path class="cls-6" d="M39.78,239.38a1,1,0,0,1-.65-.22,1.09,1.09,0,0,1-.22-1.53L49,224.28a1.12,1.12,0,0,1,.86-.44,1.1,1.1,0,0,1,.87.41l10.73,13.36a1.08,1.08,0,0,1-.16,1.53,1.1,1.1,0,0,1-1.54-.16l-9.86-12.26L40.66,239A1.12,1.12,0,0,1,39.78,239.38Z"/>
        <path class="cls-6" d="M53.22,235.78a3,3,0,1,1-3-3A3,3,0,0,1,53.22,235.78Z"/>
      </g>
      <g>
        <path class="cls-6" d="M60.28,239.38a1.1,1.1,0,0,1-.88-1.75l10.07-13.35a1.11,1.11,0,0,1,.85-.44,1.09,1.09,0,0,1,.87.41l10.74,13.36A1.1,1.1,0,0,1,80.22,239l-9.85-12.26L61.15,239A1.1,1.1,0,0,1,60.28,239.38Z"/>
        <path class="cls-6" d="M73.72,235.78a3,3,0,1,1-3-3A3,3,0,0,1,73.72,235.78Z"/>
      </g>
      <g>
        <path class="cls-6" d="M80.77,239.38a1.09,1.09,0,0,1-.87-1.75L90,224.28a1.11,1.11,0,0,1,.86-.44,1.08,1.08,0,0,1,.86.41l10.74,13.36a1.09,1.09,0,0,1-1.7,1.37l-9.86-12.26L81.64,239A1.09,1.09,0,0,1,80.77,239.38Z"/>
        <path class="cls-6" d="M94.21,235.78a3,3,0,1,1-3-3A3,3,0,0,1,94.21,235.78Z"/>
      </g>
      <g>
        <path class="cls-6" d="M101.26,239.38a1.09,1.09,0,0,1-.87-1.75l10.06-13.35a1.12,1.12,0,0,1,.86-.44,1.1,1.1,0,0,1,.87.41l10.73,13.36a1.09,1.09,0,0,1-1.7,1.37l-9.86-12.26L102.13,239A1.09,1.09,0,0,1,101.26,239.38Z"/>
        <path class="cls-6" d="M114.7,235.78a3,3,0,1,1-3-3A3,3,0,0,1,114.7,235.78Z"/>
      </g>
      <g>
        <path class="cls-6" d="M121.75,239.38a1,1,0,0,1-.65-.22,1.09,1.09,0,0,1-.22-1.53l10.06-13.35a1.12,1.12,0,0,1,.86-.44,1.1,1.1,0,0,1,.87.41l10.73,13.36a1.08,1.08,0,0,1-.16,1.53,1.1,1.1,0,0,1-1.54-.16l-9.85-12.26L122.63,239A1.12,1.12,0,0,1,121.75,239.38Z"/>
        <path class="cls-6" d="M135.2,235.78a3,3,0,1,1-3-3A3,3,0,0,1,135.2,235.78Z"/>
      </g>
      <g>
        <path class="cls-6" d="M142.25,239.38a1.1,1.1,0,0,1-.88-1.75l10.07-13.35a1.11,1.11,0,0,1,.85-.44,1.09,1.09,0,0,1,.87.41l10.74,13.36a1.1,1.1,0,0,1-1.71,1.37l-9.85-12.26L143.12,239A1.1,1.1,0,0,1,142.25,239.38Z"/>
        <path class="cls-6" d="M155.69,235.78a3,3,0,1,1-3-3A3,3,0,0,1,155.69,235.78Z"/>
      </g>
      <g>
        <path class="cls-6" d="M162.74,239.38a1.09,1.09,0,0,1-.87-1.75l10.06-13.35a1.11,1.11,0,0,1,.86-.44,1.08,1.08,0,0,1,.86.41l10.74,13.36a1.09,1.09,0,0,1-1.7,1.37l-9.86-12.26L163.61,239A1.09,1.09,0,0,1,162.74,239.38Z"/>
        <path class="cls-6" d="M176.18,235.78a3,3,0,1,1-3-3A3,3,0,0,1,176.18,235.78Z"/>
      </g>
      <g>
        <path class="cls-6" d="M183.23,239.38a1.09,1.09,0,0,1-.87-1.75l10.06-13.35a1.12,1.12,0,0,1,.86-.44,1.1,1.1,0,0,1,.87.41l10.73,13.36a1.09,1.09,0,0,1-1.7,1.37l-9.86-12.26L184.1,239A1.09,1.09,0,0,1,183.23,239.38Z"/>
        <path class="cls-6" d="M196.67,235.78a3,3,0,1,1-3-3A3,3,0,0,1,196.67,235.78Z"/>
      </g>
      <g>
        <path class="cls-6" d="M203.72,239.38a1,1,0,0,1-.65-.22,1.1,1.1,0,0,1-.22-1.53l10.07-13.35a1.08,1.08,0,0,1,1.72,0l10.73,13.36a1.08,1.08,0,0,1-.16,1.53,1.1,1.1,0,0,1-1.54-.16l-9.85-12.26L204.6,239A1.11,1.11,0,0,1,203.72,239.38Z"/>
        <path class="cls-6" d="M217.17,235.78a3,3,0,1,1-3-3A3,3,0,0,1,217.17,235.78Z"/>
      </g>
      <g>
        <path class="cls-6" d="M224.22,239.38a1.1,1.1,0,0,1-.88-1.75l10.07-13.35a1.11,1.11,0,0,1,.85-.44,1.09,1.09,0,0,1,.87.41l10.74,13.36a1.1,1.1,0,0,1-1.71,1.37l-9.85-12.26L225.09,239A1.09,1.09,0,0,1,224.22,239.38Z"/>
        <path class="cls-6" d="M237.66,235.78a3,3,0,1,1-3-3A3,3,0,0,1,237.66,235.78Z"/>
      </g>
      <g>
        <path class="cls-6" d="M244.71,239.38a1.09,1.09,0,0,1-.87-1.75l10.06-13.35a1.09,1.09,0,0,1,1.73,0l10.73,13.36a1.09,1.09,0,0,1-1.7,1.37l-9.86-12.26L245.58,239A1.09,1.09,0,0,1,244.71,239.38Z"/>
        <path class="cls-6" d="M258.15,235.78a3,3,0,1,1-3-3A3,3,0,0,1,258.15,235.78Z"/>
      </g>
      <g>
        <path class="cls-6" d="M265.2,239.38a1,1,0,0,1-.65-.22,1.09,1.09,0,0,1-.22-1.53l10.06-13.35a1.12,1.12,0,0,1,.86-.44,1.1,1.1,0,0,1,.87.41l10.73,13.36a1.08,1.08,0,0,1-.16,1.53,1.1,1.1,0,0,1-1.54-.16l-9.86-12.26L266.08,239A1.12,1.12,0,0,1,265.2,239.38Z"/>
        <path class="cls-6" d="M278.64,235.78a3,3,0,1,1-3-3A3,3,0,0,1,278.64,235.78Z"/>
      </g>
      <circle class="cls-6" cx="39.55" cy="227.45" r="2.5"/>
      <path class="cls-6" d="M62.91,227.45a2.5,2.5,0,1,1-2.5-2.5A2.5,2.5,0,0,1,62.91,227.45Z"/>
      <path class="cls-6" d="M83.77,227.45a2.5,2.5,0,1,1-2.5-2.5A2.5,2.5,0,0,1,83.77,227.45Z"/>
      <path class="cls-6" d="M104.63,227.45a2.5,2.5,0,1,1-2.5-2.5A2.5,2.5,0,0,1,104.63,227.45Z"/>
      <circle class="cls-6" cx="122.1" cy="227.45" r="2.5"/>
      <path class="cls-6" d="M144.92,227.45a2.5,2.5,0,1,1-2.49-2.5A2.49,2.49,0,0,1,144.92,227.45Z"/>
      <path class="cls-6" d="M166.13,227.45a2.5,2.5,0,1,1-2.5-2.5A2.5,2.5,0,0,1,166.13,227.45Z"/>
      <circle class="cls-6" cx="183.94" cy="227.45" r="2.5"/>
      <circle class="cls-6" cx="204.23" cy="227.45" r="2.5"/>
      <path class="cls-6" d="M226.58,227.45a2.5,2.5,0,1,1-2.49-2.5A2.49,2.49,0,0,1,226.58,227.45Z"/>
      <path class="cls-6" d="M247.57,227.45a2.5,2.5,0,1,1-2.5-2.5A2.5,2.5,0,0,1,247.57,227.45Z"/>
      <path class="cls-6" d="M268.43,227.45a2.5,2.5,0,1,1-2.5-2.5A2.5,2.5,0,0,1,268.43,227.45Z"/>
      <g>
        <path class="cls-6" d="M39.78,211.72a1,1,0,0,1-.65-.22,1.09,1.09,0,0,1-.22-1.53L49,196.62a1.12,1.12,0,0,1,.86-.44,1.1,1.1,0,0,1,.87.41L61.43,210a1.08,1.08,0,0,1-.16,1.53,1.1,1.1,0,0,1-1.54-.17l-9.86-12.26-9.21,12.24A1.12,1.12,0,0,1,39.78,211.72Z"/>
        <path class="cls-6" d="M53.22,208.12a3,3,0,1,1-3-3A3,3,0,0,1,53.22,208.12Z"/>
      </g>
      <g>
        <path class="cls-6" d="M60.28,211.72A1.1,1.1,0,0,1,59.4,210l10.07-13.35a1.11,1.11,0,0,1,.85-.44,1.09,1.09,0,0,1,.87.41L81.93,210a1.09,1.09,0,0,1-1.71,1.36l-9.85-12.26-9.22,12.24A1.1,1.1,0,0,1,60.28,211.72Z"/>
        <path class="cls-6" d="M73.72,208.12a3,3,0,1,1-3-3A3,3,0,0,1,73.72,208.12Z"/>
      </g>
      <g>
        <path class="cls-6" d="M80.77,211.72A1.09,1.09,0,0,1,79.9,210L90,196.62a1.11,1.11,0,0,1,.86-.44,1.08,1.08,0,0,1,.86.41L102.42,210a1.09,1.09,0,1,1-1.7,1.36l-9.86-12.26-9.22,12.24A1.09,1.09,0,0,1,80.77,211.72Z"/>
        <path class="cls-6" d="M94.21,208.12a3,3,0,1,1-3-3A3,3,0,0,1,94.21,208.12Z"/>
      </g>
      <g>
        <path class="cls-6" d="M101.26,211.72a1.09,1.09,0,0,1-.87-1.75l10.06-13.35a1.12,1.12,0,0,1,.86-.44,1.1,1.1,0,0,1,.87.41L122.91,210a1.09,1.09,0,1,1-1.7,1.36l-9.86-12.26-9.22,12.24A1.09,1.09,0,0,1,101.26,211.72Z"/>
        <path class="cls-6" d="M114.7,208.12a3,3,0,1,1-3-3A3,3,0,0,1,114.7,208.12Z"/>
      </g>
      <g>
        <path class="cls-6" d="M121.75,211.72a1,1,0,0,1-.65-.22,1.09,1.09,0,0,1-.22-1.53l10.06-13.35a1.12,1.12,0,0,1,.86-.44,1.1,1.1,0,0,1,.87.41L143.4,210a1.08,1.08,0,0,1-.16,1.53,1.1,1.1,0,0,1-1.54-.17l-9.85-12.26-9.22,12.24A1.12,1.12,0,0,1,121.75,211.72Z"/>
        <path class="cls-6" d="M135.2,208.12a3,3,0,1,1-3-3A3,3,0,0,1,135.2,208.12Z"/>
      </g>
      <g>
        <path class="cls-6" d="M142.25,211.72a1.1,1.1,0,0,1-.88-1.75l10.07-13.35a1.11,1.11,0,0,1,.85-.44,1.09,1.09,0,0,1,.87.41L163.9,210a1.09,1.09,0,0,1-1.71,1.36l-9.85-12.26-9.22,12.24A1.1,1.1,0,0,1,142.25,211.72Z"/>
        <path class="cls-6" d="M155.69,208.12a3,3,0,1,1-3-3A3,3,0,0,1,155.69,208.12Z"/>
      </g>
      <g>
        <path class="cls-6" d="M162.74,211.72a1.09,1.09,0,0,1-.87-1.75l10.06-13.35a1.11,1.11,0,0,1,.86-.44,1.08,1.08,0,0,1,.86.41L184.39,210a1.09,1.09,0,1,1-1.7,1.36l-9.86-12.26-9.22,12.24A1.09,1.09,0,0,1,162.74,211.72Z"/>
        <path class="cls-6" d="M176.18,208.12a3,3,0,1,1-3-3A3,3,0,0,1,176.18,208.12Z"/>
      </g>
      <g>
        <path class="cls-6" d="M183.23,211.72a1.09,1.09,0,0,1-.87-1.75l10.06-13.35a1.12,1.12,0,0,1,.86-.44,1.1,1.1,0,0,1,.87.41L204.88,210a1.09,1.09,0,1,1-1.7,1.36l-9.86-12.26-9.22,12.24A1.09,1.09,0,0,1,183.23,211.72Z"/>
        <path class="cls-6" d="M196.67,208.12a3,3,0,1,1-3-3A3,3,0,0,1,196.67,208.12Z"/>
      </g>
      <g>
        <path class="cls-6" d="M203.72,211.72a1,1,0,0,1-.65-.22,1.1,1.1,0,0,1-.22-1.53l10.07-13.35a1.08,1.08,0,0,1,1.72,0L225.37,210a1.08,1.08,0,0,1-.16,1.53,1.1,1.1,0,0,1-1.54-.17l-9.85-12.26-9.22,12.24A1.11,1.11,0,0,1,203.72,211.72Z"/>
        <path class="cls-6" d="M217.17,208.12a3,3,0,1,1-3-3A3,3,0,0,1,217.17,208.12Z"/>
      </g>
      <g>
        <path class="cls-6" d="M224.22,211.72a1.1,1.1,0,0,1-.88-1.75l10.07-13.35a1.11,1.11,0,0,1,.85-.44,1.09,1.09,0,0,1,.87.41L245.87,210a1.09,1.09,0,0,1-1.71,1.36l-9.85-12.26-9.22,12.24A1.09,1.09,0,0,1,224.22,211.72Z"/>
        <path class="cls-6" d="M237.66,208.12a3,3,0,1,1-3-3A3,3,0,0,1,237.66,208.12Z"/>
      </g>
      <g>
        <path class="cls-6" d="M244.71,211.72a1.09,1.09,0,0,1-.87-1.75l10.06-13.35a1.09,1.09,0,0,1,1.73,0L266.36,210a1.09,1.09,0,0,1-1.7,1.36l-9.86-12.26-9.22,12.24A1.09,1.09,0,0,1,244.71,211.72Z"/>
        <path class="cls-6" d="M258.15,208.12a3,3,0,1,1-3-3A3,3,0,0,1,258.15,208.12Z"/>
      </g>
      <path class="cls-6" d="M42.05,199.79a2.5,2.5,0,1,1-2.5-2.5A2.5,2.5,0,0,1,42.05,199.79Z"/>
      <path class="cls-6" d="M62.91,199.79a2.5,2.5,0,1,1-2.5-2.5A2.5,2.5,0,0,1,62.91,199.79Z"/>
      <path class="cls-6" d="M83.77,199.79a2.5,2.5,0,1,1-2.5-2.5A2.5,2.5,0,0,1,83.77,199.79Z"/>
      <path class="cls-6" d="M104.63,199.79a2.5,2.5,0,1,1-2.5-2.5A2.5,2.5,0,0,1,104.63,199.79Z"/>
      <path class="cls-6" d="M124.59,199.79a2.5,2.5,0,1,1-2.49-2.5A2.49,2.49,0,0,1,124.59,199.79Z"/>
      <path class="cls-6" d="M144.92,199.79a2.5,2.5,0,1,1-2.49-2.5A2.49,2.49,0,0,1,144.92,199.79Z"/>
      <path class="cls-6" d="M166.13,199.79a2.5,2.5,0,1,1-2.5-2.5A2.5,2.5,0,0,1,166.13,199.79Z"/>
      <path class="cls-6" d="M186.44,199.79a2.5,2.5,0,1,1-2.5-2.5A2.5,2.5,0,0,1,186.44,199.79Z"/>
      <path class="cls-6" d="M206.73,199.79a2.5,2.5,0,1,1-2.5-2.5A2.5,2.5,0,0,1,206.73,199.79Z"/>
      <path class="cls-6" d="M226.58,199.79a2.5,2.5,0,1,1-2.49-2.5A2.49,2.49,0,0,1,226.58,199.79Z"/>
      <path class="cls-6" d="M247.57,199.79a2.5,2.5,0,1,1-2.5-2.5A2.5,2.5,0,0,1,247.57,199.79Z"/>
      <path class="cls-6" d="M268.43,199.79a2.5,2.5,0,1,1-2.5-2.5A2.5,2.5,0,0,1,268.43,199.79Z"/>
      <g>
        <path class="cls-6" d="M60.28,180.38a1.16,1.16,0,0,1-.66-.22,1.1,1.1,0,0,1-.22-1.53l10.07-13.36a1.1,1.1,0,0,1,1.72,0L81.93,178.6A1.1,1.1,0,0,1,80.22,180l-9.85-12.26-9.22,12.23A1.08,1.08,0,0,1,60.28,180.38Z"/>
        <path class="cls-6" d="M73.72,176.77a3,3,0,1,1-3-3A3,3,0,0,1,73.72,176.77Z"/>
      </g>
      <g>
        <path class="cls-6" d="M80.77,180.38a1.16,1.16,0,0,1-.66-.22,1.09,1.09,0,0,1-.21-1.53L90,165.27a1.1,1.1,0,0,1,1.72,0l10.74,13.36a1.09,1.09,0,0,1-1.7,1.37l-9.86-12.26-9.22,12.23A1.07,1.07,0,0,1,80.77,180.38Z"/>
        <path class="cls-6" d="M94.21,176.77a3,3,0,1,1-3-3A3,3,0,0,1,94.21,176.77Z"/>
      </g>
      <g>
        <path class="cls-6" d="M101.26,180.38a1.16,1.16,0,0,1-.66-.22,1.1,1.1,0,0,1-.21-1.53l10.06-13.36a1.11,1.11,0,0,1,1.73,0l10.73,13.36a1.09,1.09,0,0,1-1.7,1.37l-9.86-12.26-9.22,12.23A1.07,1.07,0,0,1,101.26,180.38Z"/>
        <path class="cls-6" d="M114.7,176.77a3,3,0,1,1-3-3A3,3,0,0,1,114.7,176.77Z"/>
      </g>
      <g>
        <path class="cls-6" d="M121.75,180.38a1.11,1.11,0,0,1-.65-.22,1.09,1.09,0,0,1-.22-1.53l10.06-13.36a1.11,1.11,0,0,1,1.73,0L143.4,178.6a1.08,1.08,0,0,1-.16,1.53,1.1,1.1,0,0,1-1.54-.16l-9.85-12.26-9.22,12.23A1.1,1.1,0,0,1,121.75,180.38Z"/>
        <path class="cls-6" d="M135.2,176.77a3,3,0,1,1-3-3A3,3,0,0,1,135.2,176.77Z"/>
      </g>
      <g>
        <path class="cls-6" d="M142.25,180.38a1.16,1.16,0,0,1-.66-.22,1.1,1.1,0,0,1-.22-1.53l10.07-13.36a1.1,1.1,0,0,1,1.72,0L163.9,178.6a1.1,1.1,0,0,1-1.71,1.37l-9.85-12.26-9.22,12.23A1.08,1.08,0,0,1,142.25,180.38Z"/>
        <path class="cls-6" d="M155.69,176.77a3,3,0,1,1-3-3A3,3,0,0,1,155.69,176.77Z"/>
      </g>
      <g>
        <path class="cls-6" d="M162.74,180.38a1.16,1.16,0,0,1-.66-.22,1.09,1.09,0,0,1-.21-1.53l10.06-13.36a1.1,1.1,0,0,1,1.72,0l10.74,13.36a1.09,1.09,0,0,1-1.7,1.37l-9.86-12.26-9.22,12.23A1.07,1.07,0,0,1,162.74,180.38Z"/>
        <path class="cls-6" d="M176.18,176.77a3,3,0,1,1-3-3A3,3,0,0,1,176.18,176.77Z"/>
      </g>
      <g>
        <path class="cls-6" d="M183.23,180.38a1.16,1.16,0,0,1-.66-.22,1.1,1.1,0,0,1-.21-1.53l10.06-13.36a1.11,1.11,0,0,1,1.73,0l10.73,13.36a1.09,1.09,0,0,1-1.7,1.37l-9.86-12.26-9.22,12.23A1.07,1.07,0,0,1,183.23,180.38Z"/>
        <path class="cls-6" d="M196.67,176.77a3,3,0,1,1-3-3A3,3,0,0,1,196.67,176.77Z"/>
      </g>
      <g>
        <path class="cls-6" d="M203.72,180.38a1.1,1.1,0,0,1-.87-1.75l10.07-13.36a1.05,1.05,0,0,1,.85-.43,1.09,1.09,0,0,1,.87.4l10.73,13.36a1.08,1.08,0,0,1-.16,1.53,1.1,1.1,0,0,1-1.54-.16l-9.85-12.26-9.22,12.23A1.09,1.09,0,0,1,203.72,180.38Z"/>
        <path class="cls-6" d="M217.17,176.77a3,3,0,1,1-3-3A3,3,0,0,1,217.17,176.77Z"/>
      </g>
      <g>
        <path class="cls-6" d="M224.22,180.38a1.16,1.16,0,0,1-.66-.22,1.1,1.1,0,0,1-.22-1.53l10.07-13.36a1.1,1.1,0,0,1,1.72,0l10.74,13.36a1.1,1.1,0,0,1-1.71,1.37l-9.85-12.26-9.22,12.23A1.07,1.07,0,0,1,224.22,180.38Z"/>
        <path class="cls-6" d="M237.66,176.77a3,3,0,1,1-3-3A3,3,0,0,1,237.66,176.77Z"/>
      </g>
      <path class="cls-6" d="M62.91,168.44a2.5,2.5,0,1,1-2.5-2.49A2.5,2.5,0,0,1,62.91,168.44Z"/>
      <path class="cls-6" d="M83.77,168.44a2.5,2.5,0,1,1-2.5-2.49A2.5,2.5,0,0,1,83.77,168.44Z"/>
      <path class="cls-6" d="M104.63,168.44a2.5,2.5,0,1,1-2.5-2.49A2.5,2.5,0,0,1,104.63,168.44Z"/>
      <path class="cls-6" d="M124.59,168.44A2.5,2.5,0,1,1,122.1,166,2.49,2.49,0,0,1,124.59,168.44Z"/>
      <path class="cls-6" d="M144.92,168.44a2.5,2.5,0,1,1-2.49-2.49A2.49,2.49,0,0,1,144.92,168.44Z"/>
      <path class="cls-6" d="M166.13,168.44a2.5,2.5,0,1,1-2.5-2.49A2.5,2.5,0,0,1,166.13,168.44Z"/>
      <path class="cls-6" d="M186.44,168.44a2.5,2.5,0,1,1-2.5-2.49A2.5,2.5,0,0,1,186.44,168.44Z"/>
      <path class="cls-6" d="M206.73,168.44a2.5,2.5,0,1,1-2.5-2.49A2.5,2.5,0,0,1,206.73,168.44Z"/>
      <path class="cls-6" d="M226.58,168.44a2.5,2.5,0,1,1-2.49-2.49A2.49,2.49,0,0,1,226.58,168.44Z"/>
      <path class="cls-6" d="M247.57,168.44a2.5,2.5,0,1,1-2.5-2.49A2.5,2.5,0,0,1,247.57,168.44Z"/>
      <polygon class="cls-6" points="14.08 218.76 22.71 214.77 275.6 214.77 291.86 218.76 14.08 218.76"/>
      <polygon class="cls-6" points="32.74 189.08 41.37 185.1 265.93 185.1 272.79 189.08 32.74 189.08"/>
    </g>
  </g>
  <g class="cls-22">
    <g>
      <rect class="cls-23" x="255.98" y="154.45" width="278.78" height="133.14"/>
      <rect class="cls-24" x="255.98" y="180.67" width="278.78" height="61.53"/>
      <rect class="cls-25" x="255.98" y="222.47" width="278.78" height="19.73"/>
      <rect class="cls-26" x="255.98" y="233.96" width="278.78" height="8.24"/>
      <g>
        <rect class="cls-27" x="268.97" y="193.89" width="75.42" height="35.09" rx="3.27"/>
        <path class="cls-28" d="M340.84,195a2.46,2.46,0,0,1,2.46,2.46v28a2.46,2.46,0,0,1-2.46,2.46H272.52a2.46,2.46,0,0,1-2.46-2.46v-28a2.46,2.46,0,0,1,2.46-2.46h68.32m0-1.08H272.52a3.55,3.55,0,0,0-3.55,3.54v28a3.55,3.55,0,0,0,3.55,3.54h68.32a3.55,3.55,0,0,0,3.55-3.54v-28a3.55,3.55,0,0,0-3.55-3.54Z"/>
      </g>
      <rect class="cls-29" x="255.98" y="154.45" width="278.78" height="11.22"/>
    </g>
  </g>
</svg>
