<svg id="Layer_1" data-name="Layer 1" xmlns="http://www.w3.org/2000/svg" width="349.77" height="398.1" viewBox="0 0 349.77 398.1">
  <defs>
    <style>
      .cls-1 {
        opacity: 0.5;
      }

      .cls-2 {
        fill: #d80e82;
      }

      .cls-2, .cls-3 {
        stroke: #a02d61;
      }

      .cls-2, .cls-3, .cls-4, .cls-6 {
        stroke-miterlimit: 10;
      }

      .cls-2, .cls-3, .cls-6 {
        stroke-width: 0.5px;
      }

      .cls-3 {
        fill: #f55b9c;
      }

      .cls-4, .cls-5 {
        fill: #f2c900;
      }

      .cls-4 {
        stroke: #cea809;
        stroke-width: 0.25px;
      }

      .cls-6 {
        fill: #fee600;
        stroke: #dbc105;
      }

      .cls-7 {
        fill: #ffe000;
      }
    </style>
  </defs>
  <g>
    <g class="cls-1">
      <path d="M210.23,157.14c-.16-.81-.33-1.66-.5-2.46-1.26-6.21-2.42-11.9-3.43-17.29q-2.18,3.65-4,7.41a81.21,81.21,0,0,0-3.82,9.21l-.37,1.05a32.49,32.49,0,0,0-1.93,7.33c-.17.88-.31,2-.43,3.1a16,16,0,0,1,1.55,3c2.06,5.35,6.52,11.21,11.17,17.33,1.74,2.29,3.48,4.63,5.19,7-.37-7.41-1-16.58-2.07-28.83C211.1,161.66,210.66,159.37,210.23,157.14Z"/>
      <path d="M308,17.48C295,6.21,277.69,0,259.28,0a78.63,78.63,0,0,0-19.85,2.53c-1.56.33-3,.69-4.45,1.09-33.82,9.57-39.07,44.25-41.31,59.06a232.68,232.68,0,0,0-2.86,32.2c-.09,4.5,0,8.87.22,13.24-10.83,16.13-14.1,33.25-14.32,47.55a91.18,91.18,0,0,1,7.64,41.14c1.89,4.76,4,9.33,5.81,12.88l.68,1.39c2.61,5.28,5.49,11.1,9.82,16.35-.33,2.26-.7,4.68-1.11,7.3-.79,5.16-1.72,11.19-2.77,18.67,0,.1,0,.2,0,.29-.52,4.53-1.51,9.73-2.55,15.22-3.37,17.7-7.19,37.73.27,55.12A45.29,45.29,0,0,0,204.53,340c4,5.28,19.45,22.52,49,22.52h0c1.37,0,2.76,0,4.2-.11A85.72,85.72,0,0,0,268.53,361c47.21-8.79,51.6-52,55.13-86.74l.83-8.29c2.68-26.88,5.45-54.67,13.26-80.3,7.19-23.57,11.1-48.67,12-76.73C350.76,75.74,334.77,40.68,308,17.48ZM326.89,182.4c-8.14,26.72-11,55.08-13.7,82.52-.27,2.75-.54,5.49-.82,8.24-3.52,34.64-7.21,69.52-45.92,76.73a73.78,73.78,0,0,1-9.32,1.13c-28.7,1.59-42.34-16.19-44-18.49A34,34,0,0,1,205,319.79c-8.4-19.19.84-45.64,3-64.81,2.06-14.58,3.64-23.62,4.65-31.38-5.75-5.17-9.09-12.41-12.34-19h0a123.64,123.64,0,0,1-8.11-19.78l0-.1c-.54-1.52-13.46-38.95,8.85-71.16a1,1,0,0,0,.08-.14c.48-.85,1-1.65,1.48-2.47-.39-5.13-.55-10.35-.43-15.87a219,219,0,0,1,2.73-30.74c3.18-21,9.31-43.08,33.18-49.83,1.32-.38,2.65-.7,4-1,20.12-5.32,42.89-1.05,58.51,12.49,24.26,21,38.75,52.65,37.82,82.57C337.54,135.67,333.78,159.8,326.89,182.4Z"/>
      <path d="M154.83,173c-1,5.38-2.18,11.08-3.44,17.29-.16.8-.34,1.65-.5,2.47-.43,2.22-.87,4.51-1.32,6.89-1,12.25-1.7,21.41-2.06,28.83,1.7-2.38,3.45-4.73,5.18-7,4.66-6.12,9.12-12,11.17-17.33a16,16,0,0,1,1.56-3c-.12-1.14-.26-2.22-.44-3.1a32,32,0,0,0-1.93-7.33l-.37-1.05a79.41,79.41,0,0,0-3.82-9.21C157.63,177.92,156.27,175.45,154.83,173Z"/>
      <path d="M176.71,155.67a83.1,83.1,0,0,0-6.61-11.92c.24-4.37.3-8.71.21-13.13a232.59,232.59,0,0,0-2.85-32.31c-2.24-14.8-7.5-49.49-41.31-59-1.42-.41-2.89-.77-4.46-1.1a78.57,78.57,0,0,0-19.85-2.53c-18.4,0-35.7,6.21-48.71,17.48-26.78,23.2-42.77,58.25-41.73,91.5.87,28.06,4.79,53.16,12,76.73C31.19,247,34,274.79,36.64,301.67l.82,8.26c3.53,34.73,7.91,77.95,55.14,86.75A87.09,87.09,0,0,0,103.37,398c1.43.08,2.83.11,4.2.11h0c29.58,0,45-17.24,49-22.52a45.58,45.58,0,0,0,10.07-15.92c7.45-17.39,3.64-37.42.27-55.11-1.05-5.5-2-10.69-2.56-15.23l0-.29c-1-7.48-2-13.51-2.78-18.67-.4-2.62-.78-5-1.11-7.3,4.33-5.25,7.21-11.07,9.82-16.35l.69-1.39a139,139,0,0,0,8.78-21.46,100.9,100.9,0,0,0,4.6-27.05c-1.13-2.85-2.17-5.77-3-8.57A103,103,0,0,1,176.71,155.67ZM169,220.39a.42.42,0,0,0,0,.1,123.5,123.5,0,0,1-8.1,19.78h0c-3.26,6.55-6.59,13.79-12.35,19,1,7.76,2.6,16.8,4.65,31.38,2.19,19.17,11.42,45.62,3,64.81A34,34,0,0,1,148,368.16c-1.64,2.3-15.27,20.08-44,18.49a74,74,0,0,1-9.32-1.13C56,378.3,52.27,343.43,48.76,308.79c-.28-2.75-.56-5.49-.83-8.24-2.73-27.44-5.56-55.8-13.7-82.52-6.89-22.6-10.65-46.73-11.49-73.77C21.81,114.34,36.3,82.7,60.56,61.69,76.18,48.15,99,43.87,119.07,49.2c1.33.28,2.66.6,4,1,23.88,6.76,30,28.83,33.19,49.84A220.36,220.36,0,0,1,159,130.75c.12,5.52,0,10.74-.42,15.87.49.82,1,1.62,1.47,2.47l.09.14C182.4,181.44,169.49,218.87,169,220.39Z"/>
    </g>
    <g>
      <g>
        <path class="cls-2" d="M289.22,26.06C273.2,12.18,249.66,8,229.17,14,203.81,21.35,196.88,44,193.5,66.18c-5.63,36.88-1.9,55.22,4.88,88.5.75,3.64,1.53,7.47,2.33,11.52,3.89,43.11,3.12,48-.54,71.58-.81,5.21-1.73,11.12-2.8,18.63-.54,4.8-1.56,10.13-2.63,15.77-3.87,20.4-8.74,44.84,7.06,60.35,1.64,2.3,15.28,20.08,44,18.49a73.78,73.78,0,0,0,9.32-1.13c38.72-7.21,42.4-42.09,45.92-76.73.28-2.75.55-5.49.82-8.24,2.74-27.44,5.56-55.8,13.71-82.52,6.88-22.6,10.64-46.73,11.48-73.77C328,78.71,313.47,47.07,289.22,26.06Z"/>
        <path class="cls-3" d="M318.3,108.69c1-30.23-13.47-61.24-35.6-81.51-14.09-12.91-35.85-18.33-56-12.63-23.87,6.75-30,28.82-33.18,49.83-6.14,40.49-1.14,58.34,6.66,99.66,4.44,53,2.4,48.73-3.54,90.94-2.58,22.68-15,55.55,3.52,74.54,0,0,15.12,23.48,49.45,17.48s39-35.43,42.91-74.05c3.11-30.52,5.63-61.64,14.48-91.14C314.18,157.94,317.47,133.52,318.3,108.69Z"/>
        <path class="cls-4" d="M189,204.64c3.65,7.35,7.37,15.57,14.53,20.75a6.12,6.12,0,0,0,2.15,1.11c7.75,1.76,6.81-10.28,6.33-13.79a33.12,33.12,0,0,0-2-8.71c-1.23-2.87-3.55-5.07-5.31-7.67l-.18-.27c-2.33-3.47-4.93-6.89-7.45-10.2-4.65-6.12-9.11-12-11.17-17.33-4.91-12-6.25,5-5.88,8.11,1,8,7.44,23.21,7.44,23.21Z"/>
        <path class="cls-4" d="M297.41,170.27s-2.61,9-2.61,9a136.08,136.08,0,0,1-8.76,22c-3.21,6.54-8.86,13.7-9.8,20.89-.45,3.36.55,7.52,4.85,7.86,14.1,1.12,13.39-13.81,15.61-22.34.39-1.49,1.44-8.22,1.77-9.82C301.72,183.17,299.26,151.76,297.41,170.27Z"/>
        <rect class="cls-5" x="236.13" y="61.8" width="7.52" height="12.39" rx="1.66" transform="translate(7.8 -23.13) rotate(5.61)"/>
        <path class="cls-6" d="M188.94,204.43a119.68,119.68,0,0,1-4.57-21.81c-.64-5.36-.57-15.34.42-20.23a32.49,32.49,0,0,1,1.93-7.33l.37-1.05a79.48,79.48,0,0,1,3.83-9.21c9-18.25,23.89-34.31,37.74-49,3.09-3.28,7.5-6.62,11.22-6.33.88.07,5.63.28,21.58,19.09,18.33,20,30.39,43.23,34.26,56,2,7,2.31,9.53,3.41,18.48a49.34,49.34,0,0,1-1,16.82s5-21.13,5.44-27.08c1.78-23.14-2.89-34.91-8.49-45.69-6.78-13-21.49-38.6-47.6-55.25a13.65,13.65,0,0,0-6.37-2.07,13.91,13.91,0,0,0-6.92,1.3,103.22,103.22,0,0,0-44.43,42.36,1,1,0,0,1-.08.14c-22.31,32.21-9.39,69.64-8.85,71.16l0,.11A123.94,123.94,0,0,0,189,204.64Z"/>
      </g>
      <g>
        <path class="cls-2" d="M49.21,61.69c16-13.88,39.56-18.06,60-12.09,25.36,7.38,32.29,30.07,35.67,52.21,5.64,36.88,1.9,55.21-4.88,88.5-.74,3.64-1.52,7.47-2.33,11.52-3.88,43.11-3.12,48,.55,71.58.81,5.21,1.73,11.12,2.79,18.63.55,4.8,1.56,10.13,2.63,15.77,3.87,20.4,8.74,44.84-7.06,60.35-1.63,2.3-15.27,20.08-44,18.49a74,74,0,0,1-9.32-1.13c-38.71-7.21-42.4-42.09-45.91-76.73-.28-2.75-.56-5.49-.83-8.24C33.85,273.11,31,244.75,22.88,218,16,195.43,12.23,171.3,11.39,144.26,10.46,114.34,25,82.7,49.21,61.69Z"/>
        <path class="cls-3" d="M20.12,144.32c-1-30.24,13.47-61.24,35.6-81.51,14.1-12.91,35.86-18.33,56-12.64,23.87,6.76,30,28.83,33.18,49.84,6.13,40.49,1.14,58.34-6.67,99.66-4.43,53-2.4,48.73,3.54,90.94,2.59,22.68,15.05,55.55-3.52,74.54,0,0-15.11,23.48-49.45,17.48s-39-35.43-42.91-74.06c-3.11-30.51-5.63-61.63-14.48-91.13C24.25,193.57,21,169.15,20.12,144.32Z"/>
        <path class="cls-4" d="M149.46,240.27c-3.66,7.35-7.38,15.57-14.54,20.75a6.07,6.07,0,0,1-2.14,1.11c-7.76,1.76-6.81-10.28-6.34-13.79a33.12,33.12,0,0,1,2-8.71c1.24-2.87,3.55-5.07,5.31-7.67l.18-.27c2.34-3.47,4.94-6.89,7.45-10.2,4.66-6.12,9.12-12,11.17-17.33,4.92-12,6.26,5,5.89,8.11-1,8-7.44,23.21-7.44,23.21Z"/>
        <path class="cls-4" d="M41,205.9s2.6,9,2.61,9a135.17,135.17,0,0,0,8.76,22c3.21,6.54,8.85,13.7,9.8,20.89.44,3.36-.56,7.52-4.85,7.86-14.11,1.12-13.4-13.81-15.62-22.35-.39-1.48-1.44-8.21-1.77-9.81C36.71,218.8,39.16,187.39,41,205.9Z"/>
        <rect class="cls-5" x="94.78" y="97.43" width="7.52" height="12.39" rx="1.66" transform="matrix(-1, 0.1, -0.1, -1, 206.74, 197.12)"/>
        <path class="cls-6" d="M149.49,240.06a120.74,120.74,0,0,0,4.56-21.81c.65-5.36.58-15.34-.42-20.23a32,32,0,0,0-1.93-7.33l-.36-1.05a81.27,81.27,0,0,0-3.83-9.21c-8.95-18.25-23.9-34.31-37.75-49-3.09-3.29-7.5-6.62-11.21-6.33-.89.07-5.63.28-21.58,19.09-18.33,20-30.4,43.22-34.27,56-2,7-2.3,9.53-3.4,18.48a49.19,49.19,0,0,0,1,16.82s-5-21.13-5.43-27.08c-1.79-23.14,2.88-34.91,8.49-45.69,6.77-13,21.48-38.6,47.59-55.25a13.69,13.69,0,0,1,6.37-2.07,14,14,0,0,1,6.93,1.3,103.21,103.21,0,0,1,44.42,42.36l.09.14c22.31,32.21,9.39,69.64,8.85,71.16a.42.42,0,0,0,0,.1,123.5,123.5,0,0,1-8.1,19.78Z"/>
      </g>
    </g>
    <g>
      <path class="cls-7" d="M198.89,157.14c-.17-.81-.34-1.66-.51-2.46-1.26-6.21-2.42-11.9-3.43-17.29-1.45,2.43-2.8,4.9-4,7.41a79.48,79.48,0,0,0-3.83,9.21l-.36,1.05a32,32,0,0,0-1.94,7.33c-.17.88-.31,2-.43,3.1a16,16,0,0,1,1.55,3c2.06,5.35,6.52,11.21,11.17,17.33,1.74,2.29,3.48,4.63,5.19,7-.37-7.41-1-16.58-2.07-28.83C199.75,161.66,199.31,159.37,198.89,157.14Z"/>
      <path class="cls-7" d="M296.65,17.48C283.64,6.21,266.34,0,247.93,0a78.49,78.49,0,0,0-19.84,2.53c-1.57.33-3,.69-4.46,1.09-33.82,9.57-39.07,44.25-41.31,59.06a232.68,232.68,0,0,0-2.86,32.2c-.09,4.5,0,8.87.22,13.24-10.83,16.13-14.1,33.25-14.32,47.55A91.34,91.34,0,0,1,173,196.81c1.88,4.76,4,9.33,5.8,12.88l.68,1.39c2.61,5.28,5.49,11.1,9.83,16.35-.34,2.26-.71,4.68-1.12,7.3-.79,5.16-1.72,11.19-2.77,18.67,0,.1,0,.2,0,.29-.52,4.53-1.51,9.73-2.55,15.22-3.37,17.7-7.19,37.73.27,55.12A45.44,45.44,0,0,0,193.18,340c4,5.28,19.45,22.52,49,22.52h0c1.37,0,2.76,0,4.2-.11A85.72,85.72,0,0,0,257.18,361c47.21-8.79,51.6-52,55.13-86.74l.83-8.29c2.68-26.88,5.45-54.67,13.26-80.3,7.19-23.57,11.1-48.67,12-76.73C339.41,75.74,323.42,40.68,296.65,17.48Zm18.9,164.92c-8.15,26.72-11,55.08-13.71,82.52-.27,2.75-.54,5.49-.82,8.24-3.52,34.64-7.2,69.52-45.92,76.73a73.78,73.78,0,0,1-9.32,1.13c-28.7,1.59-42.34-16.19-44-18.49a34,34,0,0,1-8.16-12.74c-8.4-19.19.84-45.64,3-64.81,2.06-14.58,3.64-23.62,4.65-31.38-5.75-5.17-9.08-12.41-12.34-19h0a123.64,123.64,0,0,1-8.11-19.78l0-.1c-.54-1.52-13.46-38.95,8.85-71.16a1,1,0,0,0,.08-.14c.48-.85,1-1.65,1.48-2.47-.39-5.13-.55-10.35-.43-15.87a219,219,0,0,1,2.73-30.74c3.18-21,9.31-43.08,33.18-49.83,1.32-.38,2.65-.7,4-1,20.12-5.32,42.89-1.05,58.52,12.49,24.25,21,38.74,52.65,37.81,82.57C326.19,135.67,322.43,159.8,315.55,182.4Z"/>
      <path class="cls-7" d="M143.48,173c-1,5.38-2.17,11.08-3.44,17.29-.16.8-.33,1.65-.5,2.47-.43,2.22-.87,4.51-1.32,6.89-1,12.25-1.7,21.41-2.06,28.83,1.7-2.38,3.45-4.73,5.18-7,4.66-6.12,9.12-12,11.17-17.33a16,16,0,0,1,1.56-3c-.12-1.14-.26-2.22-.44-3.1a32,32,0,0,0-1.93-7.33l-.37-1.05a79.41,79.41,0,0,0-3.82-9.21C146.28,177.92,144.92,175.45,143.48,173Z"/>
      <path class="cls-7" d="M165.36,155.67a83.1,83.1,0,0,0-6.61-11.92c.24-4.37.31-8.71.21-13.13a232.59,232.59,0,0,0-2.85-32.31c-2.24-14.8-7.5-49.49-41.31-59-1.42-.41-2.89-.77-4.46-1.1a78.57,78.57,0,0,0-19.85-2.53c-18.4,0-35.7,6.21-48.71,17.48C15,76.31-1,111.36.05,144.61c.87,28.06,4.79,53.16,12,76.73,7.82,25.66,10.59,53.45,13.27,80.33l.82,8.26c3.53,34.73,7.91,77.95,55.14,86.75A87.33,87.33,0,0,0,92,398c1.43.08,2.83.11,4.2.11h0c29.57,0,45-17.24,49-22.52a45.58,45.58,0,0,0,10.07-15.92c7.45-17.39,3.64-37.42.27-55.11-1.05-5.5-2-10.69-2.56-15.23l0-.29c-1.05-7.48-2-13.51-2.78-18.67-.4-2.62-.78-5-1.11-7.3,4.33-5.25,7.21-11.07,9.82-16.35l.69-1.39a139,139,0,0,0,8.78-21.46A100.72,100.72,0,0,0,173,196.81c-1.14-2.85-2.18-5.77-3-8.57A103,103,0,0,1,165.36,155.67Zm-7.76,64.72a.42.42,0,0,0,0,.1,123.5,123.5,0,0,1-8.1,19.78h0c-3.26,6.55-6.59,13.79-12.35,19,1,7.76,2.6,16.8,4.65,31.38,2.19,19.17,11.42,45.62,3,64.81a34,34,0,0,1-8.16,12.74c-1.63,2.3-15.27,20.08-44,18.49a74,74,0,0,1-9.32-1.13c-38.71-7.22-42.4-42.09-45.91-76.73-.28-2.75-.56-5.49-.83-8.24C33.85,273.11,31,244.75,22.88,218,16,195.43,12.23,171.3,11.39,144.26,10.46,114.34,25,82.7,49.21,61.69,64.83,48.15,87.6,43.87,107.72,49.2c1.34.28,2.66.6,4,1,23.87,6.76,30,28.83,33.18,49.84a222.06,222.06,0,0,1,2.73,30.74c.11,5.52,0,10.74-.43,15.87.49.82,1,1.62,1.47,2.47l.09.14C171.06,181.44,158.14,218.87,157.6,220.39Z"/>
    </g>
  </g>
</svg>
