<svg id="Layer_1" data-name="Layer 1" xmlns="http://www.w3.org/2000/svg" width="249.2" height="313.92" viewBox="0 0 249.2 313.92">
  <defs>
    <style>
      .cls-1 {
        opacity: 0.5;
      }

      .cls-2 {
        fill: #ff0;
      }

      .cls-3 {
        fill: #ad6e3e;
      }

      .cls-4 {
        fill: #772f07;
      }

      .cls-5 {
        fill: #894416;
      }

      .cls-6 {
        fill: #964816;
      }

      .cls-7 {
        fill: #8c3600;
      }

      .cls-8 {
        fill: #964508;
      }

      .cls-9 {
        fill: #281005;
      }

      .cls-10 {
        fill: #de8600;
      }

      .cls-11 {
        fill: #e4ae31;
      }

      .cls-12 {
        fill: #dedede;
      }

      .cls-13 {
        fill: #703711;
      }
    </style>
  </defs>
  <g>
    <path class="cls-1" d="M89.91,313.92c-42.63,0-71.62-34.5-75.25-39A35.37,35.37,0,0,1,11.83,271c-.41-.62-.75-1.18-1-1.67-7.64-13.61-6.06-30.86,4.45-48.56,14.81-24.92,45.47-46.67,77.22-55l29.28-45.17a16.33,16.33,0,0,1,0-28.5,15.82,15.82,0,0,1,2.59-1.17A16.7,16.7,0,0,1,125,86a16.25,16.25,0,0,1,7.74-9.83,16.6,16.6,0,0,1,2.54-1.15,16.35,16.35,0,0,1,8.23-16.14,16.63,16.63,0,0,1,3.87-1.57,16.38,16.38,0,0,1,8.1-17.09c.28-.16.57-.31.86-.45A16.34,16.34,0,0,1,182.5,26.88l.21-.32a9,9,0,0,1,.58-.8c7.24-9,17.9-19.72,27.58-19.72a13.66,13.66,0,0,1,10,4.36,9.28,9.28,0,0,1,1,1.09,46.3,46.3,0,0,1,7.81,16.37,16.35,16.35,0,0,1,5.23,30.36c-.52.28-1,.54-1.58.77a16.43,16.43,0,0,1-4.72,13.78,29.44,29.44,0,0,1,17,13.49c9,16,.23,38.08-19.53,49.16a48,48,0,0,1-23.37,6.34h0c-9,0-17.13-2.94-23-8.12l-22.64,41.82a36.13,36.13,0,0,1,5,6.06,8.42,8.42,0,0,1,.72,1.14,36.72,36.72,0,0,1,5,14.63c4.64,18.25,14.45,76.36-37.84,105.7C117.13,310.24,103.62,313.92,89.91,313.92Z"/>
    <path class="cls-2" d="M83.87,307.88c-42.63,0-71.62-34.49-75.25-39A35.37,35.37,0,0,1,5.79,265c-.4-.61-.75-1.18-1-1.67-7.64-13.61-6.06-30.85,4.45-48.55,14.8-24.93,45.47-46.67,77.21-55l29.28-45.16a16.36,16.36,0,0,1,0-28.51,16.71,16.71,0,0,1,2.59-1.17,16.45,16.45,0,0,1,8.35-14.71A16.51,16.51,0,0,1,129.19,69,16.32,16.32,0,0,1,141.3,51.32a16.38,16.38,0,0,1,8.1-17.1c.28-.16.57-.31.86-.45a16.34,16.34,0,0,1,26.21-12.92l.2-.32c.18-.28.38-.55.58-.81C184.49,10.73,195.16,0,204.83,0a13.66,13.66,0,0,1,10.06,4.36,10.07,10.07,0,0,1,1,1.09,46.17,46.17,0,0,1,7.82,16.37,16.34,16.34,0,0,1,5.22,30.36,15.44,15.44,0,0,1-1.58.78,16.41,16.41,0,0,1-4.72,13.77,29.44,29.44,0,0,1,17,13.49c9,16,.23,38.08-19.52,49.17a48.12,48.12,0,0,1-23.38,6.33h0c-9,0-17.13-2.93-23-8.11l-22.63,41.81a37,37,0,0,1,5,6.06,11.35,11.35,0,0,1,.71,1.14,36.58,36.58,0,0,1,5,14.64C166.51,209.51,176.32,267.61,124,297A81.38,81.38,0,0,1,83.87,307.88Z"/>
    <g>
      <path class="cls-3" d="M154.12,42.64a6.69,6.69,0,1,0,9.11,2.56A6.69,6.69,0,0,0,154.12,42.64Z"/>
      <path class="cls-3" d="M163.32,28a6.69,6.69,0,1,0,9.11,2.56A6.69,6.69,0,0,0,163.32,28Z"/>
      <circle class="cls-3" cx="145.42" cy="67.13" r="6.69" transform="translate(-6.57 117.67) rotate(-43.17)"/>
      <path class="cls-3" d="M131.38,78.6a6.68,6.68,0,1,0,9.1,2.56A6.69,6.69,0,0,0,131.38,78.6Z"/>
      <path class="cls-3" d="M120.44,94.48a6.69,6.69,0,1,0,9.1,2.56A6.69,6.69,0,0,0,120.44,94.48Z"/>
      <ellipse class="cls-4" cx="203.8" cy="100.33" rx="31.43" ry="23.66" transform="translate(-23.03 112.56) rotate(-29.3)"/>
      <path class="cls-5" d="M148.5,65.47h0a1.39,1.39,0,0,0-1.13.81,4.41,4.41,0,0,0,0,4,1.4,1.4,0,0,0,1.11.83h.05l12.86.18.19-5.64-13-.19Z"/>
      <path class="cls-6" d="M209.63,73.61c-11.71-.15-26.06,7.9-32,18S176.25,110,188,110.09s26.06-7.91,32.05-18S221.35,73.75,209.63,73.61Z"/>
      <path class="cls-3" d="M172,67.2c7.4,13.19,3.15,32.69,4.93,35.86s5.64,5.15,11.17,5.22c11.07.14,24.63-7.47,30.28-17,2.83-4.76,3.15-9.1,1.37-12.26S202.6,71.82,193.3,55.25,164.61,54,172,67.2Z"/>
      <path class="cls-5" d="M126.79,98.65h0a1.44,1.44,0,0,0-1.14.81,4.44,4.44,0,0,0,0,4,1.44,1.44,0,0,0,1.11.84h0l12.86.18.2-5.64-13-.19Z"/>
      <path class="cls-5" d="M137.73,82.77h0a1.42,1.42,0,0,0-1.14.81,4.44,4.44,0,0,0,0,4,1.43,1.43,0,0,0,1.11.83h.05l12.86.18.2-5.65-13-.18Z"/>
      <path class="cls-5" d="M169.68,32.21h0a1.42,1.42,0,0,0-1.13.81,4.44,4.44,0,0,0-.05,4,1.4,1.4,0,0,0,1.11.83h0l12.86.18.2-5.64-13-.19Z"/>
      <path class="cls-5" d="M160.47,46.81h0a1.41,1.41,0,0,0-1.13.81,4.41,4.41,0,0,0,0,4,1.42,1.42,0,0,0,1.11.84h.05l12.86.18.19-5.64-13-.19Z"/>
      <path class="cls-7" d="M189.34,33.92,97,176.33l39.12.48,77.2-142.6c5.13-9.48-5.15-22.88-5.15-22.88Z"/>
      <path class="cls-8" d="M184.78,25.78,92.46,168.19l39.12.48,77.2-142.6s3.61-15.29-3.3-16.37S184.78,25.78,184.78,25.78Z"/>
      <path class="cls-4" d="M13.19,258.58c5.63,10,51.69,60.49,106.11,29.95s33.89-97.43,29-107.33C143.06,170.41,7.56,248.55,13.19,258.58Z"/>
      <ellipse class="cls-3" cx="81.11" cy="220.47" rx="77.89" ry="44.97" transform="translate(-97.51 67.89) rotate(-29.3)"/>
      <ellipse class="cls-8" cx="79.74" cy="220.51" rx="63.1" ry="36.5" transform="translate(-97.71 67.23) rotate(-29.3)"/>
      <polygon class="cls-9" points="104.64 164.36 124.21 164.6 200.93 35.4 181.37 35.16 104.64 164.36"/>
      <polygon class="cls-10" points="54.7 239.81 56.45 242.92 86.09 243.28 91.53 234.12 89.78 231 61.89 233.76 54.7 239.81"/>
      <polygon class="cls-11" points="54.7 239.81 84.34 240.17 89.78 231 60.15 230.64 54.7 239.81"/>
      <g>
        <path class="cls-12" d="M78.87,236.88h.58c39.33-65.5,78.19-130.83,118.73-199.74h-.58C157.06,106.05,118.2,171.39,78.87,236.88Z"/>
        <path class="cls-12" d="M76.17,236.85h.58C115.13,171.32,153.92,106,195.47,37.12h-.57C153.34,106,114.54,171.34,76.17,236.85Z"/>
        <path class="cls-12" d="M71.59,236.79h.59C110.56,171.3,149.36,106,190.9,37.07h-.58C148.78,106,110,171.29,71.59,236.79Z"/>
        <path class="cls-12" d="M66.85,236.73h.58C106.86,171.25,145.72,105.92,186.16,37h-.58Z"/>
        <path class="cls-12" d="M63.16,236.69h.58C102.81,171.21,141.65,105.87,182.47,37h-.58C141.07,105.87,102.23,171.2,63.16,236.69Z"/>
      </g>
      <path class="cls-13" d="M197.15,52.53h0a1.4,1.4,0,0,0-1.14.8,4.41,4.41,0,0,0,0,4,1.42,1.42,0,0,0,1.1.84h.06l12.85.18.2-5.64-13-.19Z"/>
      <path class="cls-3" d="M207.85,49.27a6.68,6.68,0,1,0,9.1,2.56A6.68,6.68,0,0,0,207.85,49.27Z"/>
      <path class="cls-13" d="M206.93,35.36h0a1.38,1.38,0,0,0-1.13.81,4.39,4.39,0,0,0-.05,4,1.42,1.42,0,0,0,1.11.84h0l12.86.18.2-5.64-13-.19Z"/>
      <path class="cls-3" d="M217.63,32.1a6.69,6.69,0,1,0,9.11,2.56A6.68,6.68,0,0,0,217.63,32.1Z"/>
    </g>
  </g>
</svg>
