<svg id="Layer_1" data-name="Layer 1" xmlns="http://www.w3.org/2000/svg" width="197.48" height="529.44" viewBox="0 0 197.48 529.44">
  <defs>
    <style>
      .cls-1, .cls-19 {
        opacity: 0.5;
      }

      .cls-2 {
        fill: #ffda00;
      }

      .cls-3 {
        fill: #342517;
      }

      .cls-15, .cls-17, .cls-4 {
        fill: #f9dad2;
      }

      .cls-17, .cls-4, .cls-6, .cls-7, .cls-8 {
        stroke: #4c2606;
      }

      .cls-11, .cls-17, .cls-31, .cls-34, .cls-35, .cls-4, .cls-6, .cls-7, .cls-8, .cls-9 {
        stroke-miterlimit: 10;
      }

      .cls-4, .cls-6, .cls-7, .cls-8 {
        stroke-width: 0.5px;
      }

      .cls-5 {
        fill: #e8c0b8;
      }

      .cls-6 {
        fill: #5393b7;
      }

      .cls-7 {
        fill: #81c0ea;
      }

      .cls-8 {
        fill: #d3e7f2;
      }

      .cls-9 {
        fill: #e16faa;
        stroke: #323232;
        stroke-width: 0.75px;
      }

      .cls-10 {
        fill: #ce5f9c;
      }

      .cls-11 {
        fill: #faf079;
        stroke: #9a9435;
      }

      .cls-12 {
        fill: #ba8313;
      }

      .cls-13 {
        fill: #f86909;
      }

      .cls-14 {
        fill: #4c2606;
      }

      .cls-16 {
        fill: #342516;
      }

      .cls-18 {
        fill: #b26b51;
      }

      .cls-19 {
        fill: #eaa698;
      }

      .cls-20 {
        fill: #fff;
      }

      .cls-21 {
        fill: #3d2d16;
      }

      .cls-22 {
        fill: #84331a;
      }

      .cls-23 {
        fill: #331008;
      }

      .cls-24 {
        fill: #8c3d35;
      }

      .cls-25 {
        fill: #7a2f2b;
      }

      .cls-26 {
        fill: #f9988f;
      }

      .cls-27 {
        fill: #f58778;
      }

      .cls-28 {
        fill: #fff7f4;
      }

      .cls-29 {
        fill: #f48a71;
      }

      .cls-30 {
        fill: #ef4b3b;
      }

      .cls-31 {
        fill: #fe66ca;
      }

      .cls-31, .cls-34 {
        stroke: #af1086;
        stroke-width: 2px;
      }

      .cls-32 {
        fill: #fffa71;
      }

      .cls-33 {
        fill: #cc0098;
      }

      .cls-34 {
        fill: #e852bb;
      }

      .cls-35 {
        fill: #e7d760;
        stroke: #baa73b;
      }
    </style>
  </defs>
  <g>
    <path class="cls-1" d="M127,529.44c-13.48,0-23.55-5.84-27.63-16a15.27,15.27,0,0,1-1-3.9,16.33,16.33,0,0,1-.79-4.61c-2,3.71-7.07,9.84-37.06,15.49l-.47.08a136.3,136.3,0,0,1-19.48,1.63c-11.65,0-19.63-2.39-23.7-7.09A19.62,19.62,0,0,1,12,500.61,19.1,19.1,0,0,1,17.81,487c3.9-3.73,9.69-6.56,16.38-9.82,2.05-1,4.11-2,6.06-3A31.37,31.37,0,0,0,46,470.61l.05,0a45.56,45.56,0,0,1,4.35-4.63c-1.3-6.88-2.37-14.82-3.18-23.75-23.78-7.73-35.1-19.23-36.43-20.65a12.11,12.11,0,0,1-3.14-10.08A310.2,310.2,0,0,1,19,363.63c-8.42-19.12-8.83-29.09-8.82-31,0-.07,0-.13,0-.19,1-45.76,7.63-68,8.38-70.32l2.21-7.22a41,41,0,0,1-6.84-8.9,12.1,12.1,0,0,1,.57-12.8c.09-.12,8.54-12.41,15.18-22.36.81-1.2,1.67-2.38,2.58-3.52q-2-1.47-3.82-3c-15.63-13.49-13.82-25.53-12.23-36.16a81.89,81.89,0,0,0,1.12-11.2c-3.65-5.27-4.81-10.77-5.44-16-1.08-9,1.24-14.88,4.19-18.61-.29-.86-.56-1.73-.82-2.6a43.78,43.78,0,0,1-1.51-5.81A87.66,87.66,0,0,1,11.6,94.79c0-24.55,6.91-45.55,20-60.71,15-17.35,37.69-26.52,65.72-26.52,16.35,0,30.67,3.34,42.62,9.92a23,23,0,0,1,9.57,5.83,25.53,25.53,0,0,1,2.23,2.4,72,72,0,0,1,15.41,19,27.84,27.84,0,0,1,12,6.55c1.9,1.79,7.68,7.24,7.2,15.18-.4,6.54-4.53,10.44-7.75,12.94a150.78,150.78,0,0,1,1.63,22.53A81.46,81.46,0,0,1,176.94,125c2.06,3.69,3.42,8.92,2.54,16.26a44.09,44.09,0,0,1-1.9,9A78.66,78.66,0,0,0,180,162.42c3.94,13.42.74,23.12-2.63,28.9a37.41,37.41,0,0,1-12,12.37c7.74,11.43,19.11,32.58,21.62,37.3a12.09,12.09,0,0,1-.38,12c1.63,5.81,3.48,13.06,4.6,19.52,3,17.57-3.48,24.58-6.43,26.78a12,12,0,0,1-2.87,1.59,107,107,0,0,1-21.8,5.84c17.45,33.76,34.72,96.34,36.91,104.41A12.11,12.11,0,0,1,192.69,424c-1.41,1.07-13.34,9.75-37.26,16.68-.65,9.1-1.42,16.94-2,21.56-.63,5.19-.91,10.38-1,14.47a39,39,0,0,1,4,11.41c.31,1.42.65,2.76,1,4a59,59,0,0,1,1.55,7.35c2.22,12-1.79,20.65-11.92,25.59A48.1,48.1,0,0,1,127,529.44Zm-27-35.69a45,45,0,0,1,2.92-5.64,14.58,14.58,0,0,0,2-5.11,21.86,21.86,0,0,1,2.51-6.75,167.55,167.55,0,0,0-4.63-27.3l-2,.09c-.12.84-.24,1.68-.36,2.5-1.41,9.61-2.25,15.65-2.75,19.42a66.77,66.77,0,0,1,1.88,9.19A62.06,62.06,0,0,1,100,492.9C99.94,493.2,99.94,493.49,99.93,493.75Z"/>
    <path class="cls-2" d="M119.39,521.88c-13.48,0-23.55-5.84-27.63-16a15.27,15.27,0,0,1-1-3.9,16.33,16.33,0,0,1-.79-4.61c-2,3.71-7.07,9.84-37.06,15.49l-.47.08A136.3,136.3,0,0,1,33,514.54c-11.65,0-19.63-2.39-23.7-7.09a19.62,19.62,0,0,1-4.86-14.4,19.1,19.1,0,0,1,5.83-13.62c3.9-3.73,9.69-6.56,16.38-9.82,2.05-1,4.11-2,6.06-3a31.37,31.37,0,0,0,5.79-3.53l.05,0a45.56,45.56,0,0,1,4.35-4.63c-1.3-6.88-2.37-14.82-3.18-23.75C15.92,426.9,4.6,415.4,3.27,414A12.11,12.11,0,0,1,.13,403.9a310.2,310.2,0,0,1,11.28-47.83C3,337,2.58,327,2.59,325.08c0-.07,0-.13,0-.19,1-45.76,7.63-68,8.38-70.32l2.21-7.22a41,41,0,0,1-6.84-8.9,12.1,12.1,0,0,1,.57-12.8c.09-.12,8.54-12.41,15.18-22.36.81-1.2,1.67-2.38,2.58-3.52q-2-1.47-3.82-3C5.23,183.25,7,171.21,8.63,160.58a81.89,81.89,0,0,0,1.12-11.2c-3.65-5.27-4.81-10.77-5.44-16-1.08-9,1.24-14.88,4.19-18.61-.29-.86-.56-1.73-.82-2.6a43.78,43.78,0,0,1-1.51-5.81A87.66,87.66,0,0,1,4,87.23C4,62.68,11,41.68,24,26.52,39,9.17,61.72,0,89.75,0c16.35,0,30.67,3.34,42.62,9.92a23,23,0,0,1,9.57,5.83,25.53,25.53,0,0,1,2.23,2.4,72,72,0,0,1,15.41,19,27.84,27.84,0,0,1,12,6.55c1.9,1.79,7.68,7.24,7.2,15.18-.4,6.54-4.53,10.44-7.75,12.94a150.78,150.78,0,0,1,1.63,22.53,81.46,81.46,0,0,1-3.25,23.07c2.06,3.69,3.42,8.92,2.54,16.26a44.09,44.09,0,0,1-1.9,9,78.66,78.66,0,0,0,2.44,12.15c3.94,13.42.74,23.12-2.63,28.9a37.41,37.41,0,0,1-12,12.37c7.74,11.43,19.11,32.58,21.62,37.3a12.09,12.09,0,0,1-.38,12c1.63,5.81,3.48,13.06,4.6,19.52,3,17.57-3.48,24.58-6.43,26.78a12,12,0,0,1-2.87,1.59,107,107,0,0,1-21.8,5.84C170,333,187.31,395.54,189.5,403.61a12.11,12.11,0,0,1-4.37,12.81c-1.41,1.07-13.34,9.75-37.26,16.68-.65,9.1-1.42,16.94-2,21.56-.63,5.19-.91,10.38-1,14.47a39,39,0,0,1,4,11.41c.31,1.42.65,2.76,1,4a59,59,0,0,1,1.55,7.35c2.22,12-1.79,20.65-11.92,25.59a48.1,48.1,0,0,1-20.07,4.38Zm-27-35.69a45,45,0,0,1,2.92-5.64,14.58,14.58,0,0,0,2-5.11,21.86,21.86,0,0,1,2.51-6.75,167.55,167.55,0,0,0-4.63-27.3l-2.05.09c-.12.84-.24,1.68-.36,2.5-1.41,9.61-2.25,15.65-2.75,19.42a66.77,66.77,0,0,1,1.88,9.19,62.06,62.06,0,0,1,.49,12.75C92.38,485.64,92.38,485.93,92.37,486.19Z"/>
    <g>
      <path class="cls-3" d="M29.6,79.32s-12.43,32.8-8.49,59.22-9.65,34.11,7.65,49,51.13,21.53,65.55,7.34c0,0,9.61,2.83,32.61-.66s40.33-14.18,33.94-36-3.29-50.73-4.29-67.87S134.21,53.17,89.22,65.27,29.6,79.32,29.6,79.32Z"/>
      <g>
        <path class="cls-4" d="M84.94,395.79s-.15,5.52-.73,14.06-1.63,20.23-3.41,32.38c-3.56,24.21-3.56,26.37-3.56,26.37l1,1.65c.59,8.13-12.63,11.95-20.34,10.28s-1-14.92-1-14.92c-4.66-16.95-6.18-41.94-6.67-57.17-.26-8-.23-13.32-.23-13.32C71.12,378.87,84.94,395.79,84.94,395.79Z"/>
        <path class="cls-5" d="M85.33,396.21s-.89,5.63-1.48,14.17c-16.14,2.41-26.92.28-33.21-1.52-.26-8-.24-13.32-.24-13.32C71.52,379.29,85.33,396.21,85.33,396.21Z"/>
        <g>
          <path class="cls-6" d="M59.67,479.05a31,31,0,0,1-5.52-6.55c-2.17-3.65-.89-4.57-5.83,1.49s-25.56,11.52-31.08,16.83a8.12,8.12,0,0,0,1.18,8.71s4.74,5.47,32.27,1.41c0,0,26.45-5,28.92-9.87a56.67,56.67,0,0,0,.2-17.5s.49-1.32-2.77-2.65c0,0,1.29,4-2.56,5.64S59.67,479.05,59.67,479.05Z"/>
          <path class="cls-7" d="M80.2,487.5c-1.68,4.73-30,10.21-30,10.21-27.34,5.47-32.27-1.41-32.27-1.41-3.56-4.06.69-8.13.69-8.13C22.14,484.79,31,481.1,38.3,477.3a41.06,41.06,0,0,0,8.53-5.49,12.26,12.26,0,0,0,1-1.06c4.94-6.05,9.87-8.62,12-5s-.69,10-.69,10,11-.84,14.81-2.49a5.48,5.48,0,0,0,3.19-5.89c3.24,1.31,2.13,2.9,2.13,2.9A81,81,0,0,1,80.2,487.5Z"/>
          <path class="cls-8" d="M62.24,481.94c-.71,2.38-3.35,4.45-6.94,5.61a3.23,3.23,0,0,1-3.78-1.37c-1.38-2.55-4.87-6.82-13.22-8.88a41.06,41.06,0,0,0,8.53-5.49A28.76,28.76,0,0,1,54,474.32S63.13,479,62.24,481.94Z"/>
        </g>
      </g>
      <g>
        <path class="cls-4" d="M137,406.35c-.24,18.09-2.09,38.51-3.1,46.87a185.82,185.82,0,0,0-1.14,24.87c-10.12,9-21.08.5-21.08.5,1.42-8.29-1-26.37-5.64-43.61a160.68,160.68,0,0,1-4.2-26.09c-.66-7.52-.76-12.89-.76-12.89,1.72-32.84,34.72-13.6,34.72-13.6C136.81,388.5,137.1,397.12,137,406.35Z"/>
        <path class="cls-5" d="M136.69,406.45c-17.47,4-28.86,3.31-34.62,2.49-.66-7.52-1-12.94-1-12.94,1.72-32.84,34.72-13.6,34.72-13.6C136.81,388.5,136.81,397.22,136.69,406.45Z"/>
        <g>
          <path class="cls-6" d="M111.94,480.09s-3.91,2,7,2.49,15.64-.75,15.17-5.73c0,0,1.62-.08,3.62,9.29s5.15,16.25-3.53,20.48-26.8,5.73-31.19-5.3c0,0-1.52-3.4,3.34-11.45s1.24-8.62,5.34-11.27Z"/>
          <path class="cls-7" d="M112.07,475.22s-3.06,3.82,6.16,4.29c10.87.55,15.17-.91,14.69-5.89,0,0,2.1.08,4.1,9.45s5.63,15.76-3.05,20-27.28,6.22-31.67-4.81c0,0-1.52-3.4,3.34-11.45s2.32-11.08,6.43-13.73Z"/>
          <ellipse class="cls-7" cx="122.38" cy="477.81" rx="7.2" ry="7.17"/>
          <path class="cls-8" d="M133.88,488.35a.86.86,0,0,1-1.41.52,18.2,18.2,0,0,0-10-3.72,25.51,25.51,0,0,0-12.62,2.37c-.63.29-1.38-.18-1.23-.79a16.75,16.75,0,0,1,3.36-6.64c3.42-4.22,18.46-1.33,19.89.41C133.08,482,134,484.41,133.88,488.35Z"/>
        </g>
      </g>
      <path class="cls-4" d="M27.14,361l4.94,8.28c1.64,2,4.1-.31,3.25-2.73l-5.26-14.94a42.78,42.78,0,0,1,1.29-14.48l8,8.26s6.73-.89-2.73-16l-6-7.62c-1.84,4.9,10.85-31,15-55.49L57.47,240.7l1.25-4.62s.93-11.78-17.46-10.1l-11.38,8.16-7.35,24s-6.86,20.77-7.84,67C14.69,325.15,14.59,336.4,27.14,361Z"/>
      <path class="cls-9" d="M53.57,291.67s-31.67,49-41.47,114c0,0,24.37,26,81.77,23.63s83.95-22.56,83.95-22.56-25.88-95.34-45.13-116.22C132.69,290.56,71.78,266,53.57,291.67Z"/>
      <g>
        <path class="cls-10" d="M60.64,299s-22.75,37.1-26.25,78.68c0,0,8.4-49.25,30.8-78Z"/>
        <path class="cls-10" d="M108.13,300.53s12.6,13.64,23.56,51.81c0,0-6.06-27.08-16.33-47.76,0,0-4.43-7.47,10-7.47,0,0,7.24-1.27,20.54,30.28,0,0-9.34-27.93-18.44-32.41S108.13,300.53,108.13,300.53Z"/>
      </g>
      <path class="cls-11" d="M52,283.32a13.8,13.8,0,0,0-.35,10c2,5.12,25.66,6.61,39.78,6.61,13.81,0,34.43-1.12,42.64-6.65a2.9,2.9,0,0,0,.95-1.11c.83-1.63,2.22-5.78-2.05-9.93C127.49,276.93,82,272.88,52,283.32Z"/>
      <path class="cls-9" d="M168.8,239.12s-7.24,9.27-31.74,11.83c0,0,3.46,13.95-2.14,32.92,0,0-9.16,9.45-43.46,8.92-41.18-.64-39-12.26-39-12.26a238,238,0,0,1-7.57-29.47s-20.07-4.48-28-18.55c0,0,8.5-12.36,15.27-22.5a40.66,40.66,0,0,1,15.48-13.56c10.16-5.17,26.52-12.51,42.52-15.54l20.77,7.25S138.23,190.93,145,199,168.8,239.12,168.8,239.12Z"/>
      <g>
        <path class="cls-11" d="M106.48,235.37a5.48,5.48,0,0,1-.71,1.21,6.8,6.8,0,0,1-3,2.21c-1.84.71-7.24.18-8-1.86.87,2.37,2.15,3.56.8,6.21a8.24,8.24,0,0,1-1.77,2.29,10.2,10.2,0,0,1-1.21,1,11.12,11.12,0,0,1-2.66,1.3,8.71,8.71,0,0,1-1.94.4,7.83,7.83,0,0,1-1.37,0,8.23,8.23,0,0,1-7.07-10.32c-.24.83-3.39,2.19-4.22,2.38a11.66,11.66,0,0,1-6.5-.17,7.46,7.46,0,0,1-1.75-.85,7.26,7.26,0,0,1-1.2-.95,5.49,5.49,0,0,1-1.57-4.06h0a7.71,7.71,0,0,1,0-1c0-.13,0-.27.05-.4a7.72,7.72,0,0,1,10-6.22c-2.69-2.72-4.81-5.86-3.67-8.47a3.77,3.77,0,0,1,.72-1.11,9.34,9.34,0,0,1,4.45-2.47,7.07,7.07,0,0,1,8.43,4.81c-.26-2.9,2.5-6.46,5.24-7.51a8.35,8.35,0,0,1,3.83-.39,11.49,11.49,0,0,1,1.82.36h0a11,11,0,0,1,4.12,2.09,6.49,6.49,0,0,1,.94,1,4,4,0,0,1,.39.56c2.85,4.62-1.7,8.72-5.31,11.48,4.14-1.59,9.74.47,11.23,4.35a5.53,5.53,0,0,1,.35,1.4c0,.09,0,.17,0,.26A5.24,5.24,0,0,1,106.48,235.37Z"/>
        <path class="cls-12" d="M90.63,235.09c3.52-2.56,5-7.31.89-10.94A8.87,8.87,0,0,0,79,225c-2.85,3.37-2.51,8.41,1.56,10.71A9.26,9.26,0,0,0,90.63,235.09Z"/>
        <path class="cls-13" d="M89.86,234.25c3-2.18,4.22-6.21.76-9.3a7.54,7.54,0,0,0-10.65.74c-2.42,2.86-2.13,7.14,1.33,9.09A7.85,7.85,0,0,0,89.86,234.25Z"/>
      </g>
      <g>
        <path class="cls-4" d="M111.74,286.88s29.4,6.4,58.28-4.8c0,0,3.85-2.88,1.75-15s-7.17-27.83-7.17-27.83-14.36,8.32-28.36,9.44L141,261.93s-14.88,5.44-28.88,7"/>
        <path class="cls-14" d="M140.24,262.05a15.71,15.71,0,0,1,3.78-1.78,15.1,15.1,0,0,1,4.09-.73,13.28,13.28,0,0,1,4.12.46,15.83,15.83,0,0,1,3.79,1.61,15.12,15.12,0,0,0-3.83-1.48,12.61,12.61,0,0,0-4.06-.34,15.08,15.08,0,0,0-4,.83,15.71,15.71,0,0,0-3.61,1.83Z"/>
        <g>
          <path class="cls-4" d="M117.81,271.53c-14.12-17.91-20.07-18.13-20.07-18.13-13.07.54-19,6.19-21.58,9.7s0,4.16,0,4.16,2.45.54,7.46-3.3c0,0,2.22-2.24,9.34-2.56,0,0-14.47,10.77-7.35,19.19a2.1,2.1,0,0,0,1.51,2.77,3.08,3.08,0,0,0,1.4,3.63c2.22,1.28,6-4.06,10.39-4.8l3.85.11a7.09,7.09,0,0,0,4.67,6.29,11.8,11.8,0,0,0,12.36-3"/>
          <g>
            <path class="cls-15" d="M85.61,281.23s.58-8.53,10.15-13.33"/>
            <path class="cls-14" d="M85.36,281.21A15,15,0,0,1,86.61,277a17.46,17.46,0,0,1,2.31-3.73,18,18,0,0,1,3.13-3,20,20,0,0,1,1.8-1.25c.62-.38,1.27-.7,1.91-1.05-.63.37-1.27.71-1.88,1.11s-1.21.8-1.75,1.28a18.14,18.14,0,0,0-3,3.11A17.06,17.06,0,0,0,87,277.12a14,14,0,0,0-1.1,4.13Z"/>
          </g>
          <g>
            <path class="cls-15" d="M87,284.64s0-3.2,6.06-8c0,0,.94-.95,5.49-2.13"/>
            <path class="cls-14" d="M86.76,284.64a6.28,6.28,0,0,1,.93-2.49,13.91,13.91,0,0,1,1.54-2.09A21,21,0,0,1,91,278.22c.64-.58,1.3-1.12,2-1.65h0a6.1,6.1,0,0,1,1.31-.74c.46-.19.92-.36,1.39-.52.94-.32,1.89-.57,2.85-.81-1,.27-1.9.55-2.82.89-.46.18-.92.36-1.36.57a5.65,5.65,0,0,0-1.24.74h0c-.65.54-1.3,1.1-1.91,1.69a20.38,20.38,0,0,0-1.73,1.87,13.37,13.37,0,0,0-1.43,2.07,6,6,0,0,0-.8,2.29Z"/>
          </g>
        </g>
      </g>
      <path class="cls-9" d="M165.88,234l2.92,5.12s-7.24,9.17-31.74,11.83c0,0-4.67-10.66-5.72-18.12"/>
      <path class="cls-9" d="M45.46,256.24s-2.68-9.79-2-27.54"/>
      <path class="cls-4" d="M90.37,196.54c-21.75-.82-14-11.29-14-11.29,0-.86,0-1.66,0-2.4-.11-4.23-.18-6.46,1.28-8.75a14,14,0,0,1,10.88-5.79,20.51,20.51,0,0,1,9.1,1.35,9.22,9.22,0,0,1,5.54,8.89,26.5,26.5,0,0,0,.13,4.11c.5,4.05,2,4.11,2,4.11C106.72,196.27,90.37,196.54,90.37,196.54Z"/>
      <path class="cls-5" d="M103.14,183a37.81,37.81,0,0,1-11.7,3.31c-5.45.51-11.5-1.82-14.74-3.32-.1-4.23-.18-6.46,1.28-8.75a14,14,0,0,1,10.88-5.79A20.49,20.49,0,0,1,98,169.8c3.53,1.46,5,5.07,4.9,8.89A25.54,25.54,0,0,0,103.14,183Z"/>
      <g>
        <path class="cls-16" d="M160.53,94.34c0,40.66-32.06,66.51-72,66.51s-72.36-33-72.36-73.62S37.08,12.1,89.75,12.1C145,12.1,160.53,53.69,160.53,94.34Z"/>
        <g>
          <path class="cls-17" d="M33.1,126.75c-2.87-3.87-6.6-7.6-11-6.88s-6.6,4.87-5.74,12,2.44,10.9,7.89,15.2,8.32,6.46,14,2.58C39.27,141.81,34.53,129.33,33.1,126.75Z"/>
          <path class="cls-18" d="M34.72,146.73a16.81,16.81,0,0,1-1.85-1.07,7.07,7.07,0,0,1-2.62-3.19,6.74,6.74,0,0,1-.39-4.09,7.08,7.08,0,0,1,.84-2.15,3.68,3.68,0,0,1,.24-.39c-.05-.1-.08-.18-.13-.26-.25-.48-.51-1-.79-1.43a27.14,27.14,0,0,0-2.79-3.87,9,9,0,0,0-3.81-3,3,3,0,0,0-2.46.29,2.1,2.1,0,0,0-1.14,2,2,2,0,0,1,1.31-1.72,2.71,2.71,0,0,1,2.11-.06,9.46,9.46,0,0,1,3.42,2.94,43.24,43.24,0,0,1,2.88,3.68c.33.48.66,1,1,1.48a6.47,6.47,0,0,0-1.21,2.31,6.83,6.83,0,0,0,.25,4.5,7.06,7.06,0,0,0,3,3.39,13.78,13.78,0,0,0,2,.93,3.31,3.31,0,0,0,2.19.22A3.53,3.53,0,0,1,34.72,146.73ZM22.15,139.4a8.85,8.85,0,0,1-.83-4.48A36.8,36.8,0,0,1,22,130.2a19.08,19.08,0,0,0-1.26,4.67,8.66,8.66,0,0,0,.72,4.87,9.36,9.36,0,0,0,3.41,3.54,21.5,21.5,0,0,0,4.37,2.06,45.13,45.13,0,0,1-4.05-2.53A9.74,9.74,0,0,1,22.15,139.4Z"/>
        </g>
        <g>
          <path class="cls-17" d="M142.89,127c2.91-3.93,6.69-7.71,11.2-7s6.69,5,5.82,12.22-2.47,11.06-8,15.43-8.44,6.54-14.26,2.62C136.63,142.26,141.43,129.61,142.89,127Z"/>
          <path class="cls-18" d="M139.16,147.82a3.29,3.29,0,0,0,2.22-.22,14.17,14.17,0,0,0,2.06-.94,7.11,7.11,0,0,0,3.05-3.44,7,7,0,0,0,.26-4.57,6.76,6.76,0,0,0-1.24-2.34q.48-.76,1-1.5a46.28,46.28,0,0,1,2.92-3.74,9.73,9.73,0,0,1,3.47-3,2.74,2.74,0,0,1,2.14.06,2.06,2.06,0,0,1,1.33,1.75,2.11,2.11,0,0,0-1.15-2.06,3,3,0,0,0-2.5-.29,9.08,9.08,0,0,0-3.87,3,28.69,28.69,0,0,0-2.83,3.92c-.28.48-.54,1-.8,1.46-.05.08-.08.16-.13.26a3.73,3.73,0,0,1,.25.39,7.6,7.6,0,0,1,.85,2.19,6.82,6.82,0,0,1-.4,4.14,7,7,0,0,1-2.65,3.24,18.55,18.55,0,0,1-1.89,1.09A3.59,3.59,0,0,1,139.16,147.82Zm11.74-4.54a45.92,45.92,0,0,1-4.11,2.57,22.18,22.18,0,0,0,4.44-2.09,9.41,9.41,0,0,0,3.45-3.6,8.69,8.69,0,0,0,.74-4.93,19.41,19.41,0,0,0-1.28-4.74,36,36,0,0,1,.7,4.78,8.89,8.89,0,0,1-.84,4.55A9.85,9.85,0,0,1,150.9,143.28Z"/>
        </g>
        <g>
          <path class="cls-17" d="M146.2,105.37c-.06.51,5.16,1.06,5.1,1.57-2.06,17.37-5.25,34-7.58,42.6a33.26,33.26,0,0,1-3.95,9.13,37.66,37.66,0,0,1-10.83,11,126.37,126.37,0,0,1-19.28,10.43,95.43,95.43,0,0,1-9.78,3.77,37,37,0,0,1-10.64,2.06,41.59,41.59,0,0,1-12-2.24C68,180.81,58.15,175.78,52.85,173c-7.76-4.05-17.19-12.73-19.4-22a427.85,427.85,0,0,1-8.31-43.22c-.78-5.84,4.22-8.11,9-25.43,6.43-23.23,15.29-32.43,51.9-32.43C150,49.94,148.24,87.44,146.2,105.37Z"/>
          <path class="cls-19" d="M29,131s6-39.2,19.05-49.82S63,63.77,63,63.77,66.44,83.6,88.85,92.09l-1-11.91a29.11,29.11,0,0,0,13.32,11.91L99,77.06a232.69,232.69,0,0,1,33.44,16.18C148.68,103,148,135,148,135l-6.51-66.47-55.42-23L50.79,44.17,26.91,77.06l3.71,25.63Z"/>
        </g>
        <g>
          <g>
            <ellipse class="cls-20" cx="115.4" cy="118.46" rx="11.67" ry="12.35" transform="translate(-29.22 38.23) rotate(-16.73)"/>
            <path class="cls-21" d="M104.22,121.82a12.7,12.7,0,0,0,5.67,7.24,11,11,0,0,0,15.71-4.9,12.69,12.69,0,0,0-4.83-16.07A11,11,0,0,0,105,112.65,12.75,12.75,0,0,0,104.22,121.82Zm0,0a12.79,12.79,0,0,1,.64-9.22,11.4,11.4,0,0,1,16.24-5.06,13,13,0,0,1,5.08,16.89,11.4,11.4,0,0,1-16.34,4.73A12.83,12.83,0,0,1,104.22,121.82Z"/>
          </g>
          <ellipse class="cls-22" cx="115.57" cy="118.33" rx="7.81" ry="8.27"/>
          <ellipse class="cls-20" cx="120.33" cy="111.67" rx="2.14" ry="2.27"/>
        </g>
        <g>
          <g>
            <ellipse class="cls-20" cx="59.77" cy="120.69" rx="12.35" ry="11.67" transform="translate(-73.96 136.71) rotate(-70.49)"/>
            <path class="cls-21" d="M70.77,124.59a12.82,12.82,0,0,1-6,7.06,11.41,11.41,0,0,1-16.09-5.52,13,13,0,0,1,5.9-16.63,11.4,11.4,0,0,1,16,5.85A12.81,12.81,0,0,1,70.77,124.59Zm0,0a12.72,12.72,0,0,0-.29-9.19,11,11,0,0,0-15.57-5.33,12.69,12.69,0,0,0-5.61,15.81,11,11,0,0,0,15.45,5.67A12.76,12.76,0,0,0,70.77,124.59Z"/>
          </g>
          <ellipse class="cls-22" cx="60.05" cy="120.82" rx="7.69" ry="8"/>
          <ellipse class="cls-23" cx="60.05" cy="120.82" rx="5.55" ry="5.77"/>
          <ellipse class="cls-23" cx="115.77" cy="118.6" rx="5.55" ry="5.77"/>
          <ellipse class="cls-20" cx="63.58" cy="113.9" rx="2.14" ry="2.27"/>
        </g>
        <path class="cls-24" d="M79.89,137.31a18.59,18.59,0,0,0,3.42,2.48A11,11,0,0,0,87,141a8.58,8.58,0,0,0,3.79-.31,13,13,0,0,0,3.65-2,6.82,6.82,0,0,1-3,3.42,7.41,7.41,0,0,1-4.69.87A8.48,8.48,0,0,1,79.89,137.31Z"/>
        <g>
          <path class="cls-19" d="M67.22,148.39c-.89-.36-1.94-1.81-2.75-2.31a6.47,6.47,0,0,0-2.7-.91c-1.24-.12-2.75.33-3,1.45a2.53,2.53,0,0,0,1.3,2.35,8.12,8.12,0,0,0,4.77,1.48,2.42,2.42,0,0,0,2-.76c.4-.58-.06-1.58-.79-1.47Z"/>
          <path class="cls-19" d="M107.24,150.88c.57-.63,1.49-2.41,2.24-2.88a3.8,3.8,0,0,1,1.59-.63,2.71,2.71,0,0,1,2.71,1.75,3.22,3.22,0,0,1-.69,3.08,6.21,6.21,0,0,1-2.92,1.77,4.48,4.48,0,0,1-2.32.21,2,2,0,0,1-1.62-1.44,2,2,0,0,1,1-1.86,6.6,6.6,0,0,1,2.22-.73Z"/>
          <g>
            <path class="cls-25" d="M111.1,149.93a21.4,21.4,0,0,1-1,2.29c-2.21,4.43-7.46,12.62-14.12,15.67a18.61,18.61,0,0,1-15.49-.28c-6.36-3-9.25-6.56-12.9-12.55-1.18-1.95-2.45-4.16-4-6.69,0,0-.36-.47.23-.49a3.44,3.44,0,0,1,1,.17c3.58,1,12.66,6,26.72,5.35,10.81-.53,16.71-2.9,18.87-4a.48.48,0,0,1,.64.23A.36.36,0,0,1,111.1,149.93Z"/>
            <path class="cls-26" d="M110.1,152.22c-2.21,4.43-7.46,12.62-14.12,15.67a18.61,18.61,0,0,1-15.49-.28c-6.36-3-9.25-6.56-12.9-12.55,4.25,4.69,11.42,10.85,20.13,11.44C99.65,167.31,107.77,155.94,110.1,152.22Z"/>
            <path class="cls-27" d="M111.09,149.66a45.71,45.71,0,0,1-24.49,5.7c-13-.54-20.39-5.71-22.73-7.48a3.44,3.44,0,0,1,1,.17c3.58,1,12.66,6,26.72,5.35,10.81-.53,16.71-2.9,18.87-4A.47.47,0,0,1,111.09,149.66Z"/>
            <path class="cls-28" d="M69.16,150.62c.27.11,15.37,9.19,36.14,1.71,0,0-3,6.84-15.51,7.49C75.48,160.56,69.16,150.62,69.16,150.62Z"/>
            <path class="cls-29" d="M87.78,166.32c-3-.16-6.63-.94-8.07-2.25,2.6-2.57,6-.69,8.79-1.51,5.94-1.71,8,.43,8.76,1.6C95.53,165.53,91.88,166.55,87.78,166.32Z"/>
          </g>
        </g>
        <path class="cls-21" d="M63.71,95.68s-11.62-2-17.2,5.75c-.23.31-.75.16-.72-.2.18-2.35,1.45-7.18,8.67-8.59C65.86,90.41,63.71,95.68,63.71,95.68Z"/>
        <path class="cls-21" d="M108.19,90.92s11.63-2,17.21,5.75a.39.39,0,0,0,.72-.2c-.18-2.35-1.45-7.18-8.68-8.59C106,85.65,108.19,90.92,108.19,90.92Z"/>
        <path class="cls-16" d="M144.78,70.86c-5.49-29.06-15.17-24.61-41-30C91.93,38.33,91.9,29.75,79.89,31c-6.81.68-25.11-2.61-41.07,24.69-10,17.21-26.52,32.2-19.67,52.7C25.44,127.87,29,131,29,131l.5-2.87c.16-2.2.36-4.38.45-6.58C31.6,80.25,50.05,79.7,64.57,55.05c3.88,3.62,8.62,6.36,13,8.94,8.34,4.9,17,9.1,25.67,13.15s17.56,7.56,26.17,12C151.48,100.33,146.84,131,146.85,131c-.13-.77,2.65-4.28,3-4.91a76,76,0,0,0,5.63-11C162,99.33,148,88.16,144.78,70.86Z"/>
        <path class="cls-16" d="M86.06,62.6a37.78,37.78,0,0,0,0,24.38A52.62,52.62,0,0,1,63.87,50.45"/>
        <path class="cls-16" d="M79.89,60S80.25,68.88,99,87.63c0,0-7-12.38-3-25"/>
        <path class="cls-30" d="M23.92,122.17a104.44,104.44,0,0,1-2.47-16.83,119.15,119.15,0,0,1,0-17.11,59.87,59.87,0,0,1,1.28-8.51q.86-4.22,2.11-8.36a70.9,70.9,0,0,1,7-15.81,59,59,0,0,1,11-13.42A67.06,67.06,0,0,1,57.06,32.4a69,69,0,0,1,33.5-7.34,73.71,73.71,0,0,1,33.1,9,59.29,59.29,0,0,1,13.85,10.42A44.68,44.68,0,0,1,143,51.33a42.47,42.47,0,0,1,2.15,3.81c.69,1.27,1.29,2.58,1.89,3.88a89.57,89.57,0,0,1,7.63,33.4,114.5,114.5,0,0,1-1.11,17.08,97.69,97.69,0,0,1-3.67,16.61,116.19,116.19,0,0,0,1.93-33.55c-.31-2.77-.45-5.55-.82-8.31s-.86-5.5-1.46-8.22a81.49,81.49,0,0,0-5.23-15.77c-.58-1.26-1.16-2.52-1.82-3.74a37.44,37.44,0,0,0-2-3.57,41.43,41.43,0,0,0-5.09-6.38,56.49,56.49,0,0,0-13.15-9.89,70.78,70.78,0,0,0-31.74-8.62,66,66,0,0,0-32.06,7,64.25,64.25,0,0,0-13.65,9.29A55.83,55.83,0,0,0,34.34,57.09a68.5,68.5,0,0,0-6.65,15.15c-.81,2.65-1.49,5.35-2,8.08s-.88,5.49-1.34,8.24A123.56,123.56,0,0,0,23.92,122.17Z"/>
        <g>
          <g>
            <g>
              <path class="cls-31" d="M157.92,66.9c-5.37,5.68-6,13.79-14.08,6.16S138.9,49,138.9,49s16.27-4.1,24.35,3.53S163.28,61.22,157.92,66.9Z"/>
              <path class="cls-31" d="M119.57,30.71c-5.36,5.68-13.42,6.78-5.34,14.41s24.35,3.53,24.35,3.53,3.15-16.47-4.94-24.1S124.93,25,119.57,30.71Z"/>
            </g>
            <circle class="cls-32" cx="131.06" cy="30" r="1.68"/>
            <circle class="cls-32" cx="134.16" cy="36.59" r="1.68"/>
            <circle class="cls-32" cx="124.13" cy="37.33" r="1.68"/>
            <path class="cls-32" d="M127.94,45.55a1.68,1.68,0,1,1-2.45-2.31,1.68,1.68,0,0,1,2.45,2.31Z"/>
            <circle class="cls-32" cx="119.52" cy="42.22" r="1.68"/>
            <path class="cls-32" d="M137.31,40.52a1.68,1.68,0,0,0,1.32,2.83c.05-1,.08-2.15,0-3.35A1.66,1.66,0,0,0,137.31,40.52Z"/>
            <path class="cls-32" d="M137.1,33.39a1.7,1.7,0,0,0,.82.42,23.68,23.68,0,0,0-.84-2.84L137,31A1.69,1.69,0,0,0,137.1,33.39Z"/>
            <path class="cls-32" d="M120.88,48.13l0,0a21.81,21.81,0,0,0,2.85.67,1.75,1.75,0,0,0-.45-.76A1.68,1.68,0,0,0,120.88,48.13Z"/>
            <path class="cls-32" d="M132.76,47.79a1.69,1.69,0,0,0-2.38.06,1.71,1.71,0,0,0-.43,1.37c1.19,0,2.32-.12,3.34-.23A1.66,1.66,0,0,0,132.76,47.79Z"/>
            <path class="cls-32" d="M125.08,29A1.68,1.68,0,0,0,125,26.6a1.64,1.64,0,0,0-1.37-.43c-.44.67-.9,1.38-1.4,2.11a1.71,1.71,0,0,0,.46.77A1.68,1.68,0,0,0,125.08,29Z"/>
            <path class="cls-32" d="M127.32,24.16a1.67,1.67,0,0,0,2.82-1.37,3.49,3.49,0,0,0-3.31-.18A1.66,1.66,0,0,0,127.32,24.16Z"/>
            <path class="cls-32" d="M115.78,36.39a1.68,1.68,0,0,0,2.31-2.45,1.76,1.76,0,0,0-.81-.42c-.69.54-1.37,1-2,1.51A1.7,1.7,0,0,0,115.78,36.39Z"/>
            <path class="cls-32" d="M113.54,41.21a1.68,1.68,0,0,0-.07-2.38,1.65,1.65,0,0,0-1.56-.4,3.5,3.5,0,0,0,.41,3.3A1.67,1.67,0,0,0,113.54,41.21Z"/>
            <circle class="cls-32" cx="157.95" cy="55.38" r="1.68"/>
            <circle class="cls-32" cx="150.75" cy="53.21" r="1.68"/>
            <circle class="cls-32" cx="151.03" cy="62.71" r="1.68"/>
            <path class="cls-32" d="M142.61,59.39a1.68,1.68,0,1,0,2.38-.07A1.68,1.68,0,0,0,142.61,59.39Z"/>
            <circle class="cls-32" cx="146.42" cy="67.6" r="1.68"/>
            <path class="cls-32" d="M147.09,49.75a1.68,1.68,0,0,1-2.9-1.16c1-.11,2.14-.2,3.33-.24A1.71,1.71,0,0,1,147.09,49.75Z"/>
            <path class="cls-32" d="M154.22,49.54a1.69,1.69,0,0,1-.47-.8,23.62,23.62,0,0,1,2.88.68l0,0A1.68,1.68,0,0,1,154.22,49.54Z"/>
            <path class="cls-32" d="M140.44,66.59h0a22.55,22.55,0,0,1-.84-2.8,1.67,1.67,0,0,1,.86,2.79Z"/>
            <path class="cls-32" d="M140.09,54.71a1.67,1.67,0,0,1-1.26,2.89c0-1.2,0-2.33,0-3.35A1.65,1.65,0,0,1,140.09,54.71Z"/>
            <path class="cls-32" d="M159.31,61.28a1.68,1.68,0,0,1,2.9,1.28c-.65.48-1.33,1-2,1.51a1.62,1.62,0,0,1-.8-.41A1.7,1.7,0,0,1,159.31,61.28Z"/>
            <path class="cls-32" d="M164,58.77a1.68,1.68,0,0,1,1.2-2.9,3.51,3.51,0,0,1,.38,3.3A1.68,1.68,0,0,1,164,58.77Z"/>
            <path class="cls-32" d="M152.46,71a1.68,1.68,0,1,1,2.77-1.67c-.5.72-.95,1.43-1.39,2.1A1.67,1.67,0,0,1,152.46,71Z"/>
            <path class="cls-32" d="M147.78,73.51a1.68,1.68,0,0,1,2.37-.07,1.7,1.7,0,0,1,.5,1.54,3.57,3.57,0,0,1-3.33-.21A1.68,1.68,0,0,1,147.78,73.51Z"/>
          </g>
          <g>
            <g>
              <g>
                <path class="cls-33" d="M128.11,34.17c-2.57,1.71,6.22,9.32,6.22,9.32S130.67,32.46,128.11,34.17Z"/>
                <path class="cls-33" d="M125.05,41c-1,1.84,8.24,4.3,8.24,4.3S126,39.13,125.05,41Z"/>
              </g>
              <g>
                <path class="cls-33" d="M154,58.56c-1.56,2.66-9.67-5.67-9.67-5.67S155.52,55.9,154,58.56Z"/>
                <path class="cls-33" d="M147.34,62c-1.78,1.07-4.76-8-4.76-8S149.12,60.94,147.34,62Z"/>
              </g>
            </g>
            <rect class="cls-34" x="133.71" y="43.74" width="10.09" height="10.09" rx="2.99" transform="translate(8.04 116.22) rotate(-46.66)"/>
          </g>
        </g>
        <path class="cls-35" d="M31,147s4.75,9.89-1.1,11.57-4-9.36-4-9.36,1.53,9.32,3.33,3.55Z"/>
        <path class="cls-35" d="M146,147.6s-4.75,9.9,1.1,11.58,4-9.37,4-9.37-1.52,9.32-3.33,3.56Z"/>
      </g>
    </g>
  </g>
</svg>
