<svg id="Layer_1" data-name="Layer 1" xmlns="http://www.w3.org/2000/svg" width="512.22" height="328.26" viewBox="0 0 512.22 328.26">
  <defs>
    <style>
      .cls-1 {
        opacity: 0.5;
      }

      .cls-2 {
        fill: #ff0;
      }

      .cls-11, .cls-28, .cls-3, .cls-5, .cls-6 {
        fill: #ff8a00;
      }

      .cls-28, .cls-3, .cls-30, .cls-4, .cls-5, .cls-6 {
        stroke: #5b1b02;
      }

      .cls-15, .cls-19, .cls-20, .cls-21, .cls-22, .cls-23, .cls-24, .cls-28, .cls-3, .cls-30, .cls-4, .cls-5, .cls-6 {
        stroke-miterlimit: 10;
      }

      .cls-3 {
        stroke-width: 0.71px;
      }

      .cls-4 {
        fill: #c66c0a;
      }

      .cls-30, .cls-4, .cls-5 {
        stroke-width: 0.75px;
      }

      .cls-6 {
        stroke-width: 0.48px;
      }

      .cls-7 {
        fill: #ff7a75;
      }

      .cls-8 {
        fill: #ba6304;
      }

      .cls-9 {
        fill: #6d1f0d;
      }

      .cls-10 {
        fill: #590e0e;
      }

      .cls-12, .cls-16 {
        fill: #ffde8c;
      }

      .cls-13 {
        fill: #fbffff;
      }

      .cls-14 {
        fill: #130d14;
      }

      .cls-15 {
        fill: #6b0a0a;
        stroke: #2d0901;
        stroke-width: 0.5px;
      }

      .cls-16 {
        opacity: 0.76;
      }

      .cls-17 {
        fill: #091204;
      }

      .cls-18 {
        fill: #b70f0f;
      }

      .cls-19, .cls-20, .cls-22, .cls-23, .cls-24 {
        fill: #fff;
      }

      .cls-19, .cls-20 {
        stroke: #4f2102;
      }

      .cls-19 {
        stroke-width: 0.64px;
      }

      .cls-20 {
        stroke-width: 0.61px;
      }

      .cls-21 {
        fill: #4f2305;
        stroke-width: 0.35px;
      }

      .cls-21, .cls-22, .cls-23, .cls-24 {
        stroke: #020b3f;
      }

      .cls-22 {
        stroke-width: 0.07px;
      }

      .cls-23 {
        stroke-width: 0.12px;
        opacity: 0.1;
      }

      .cls-24 {
        stroke-width: 0.07px;
      }

      .cls-25 {
        fill: #160b0c;
      }

      .cls-26 {
        fill: #60110e;
      }

      .cls-27 {
        fill: #f5a954;
      }

      .cls-28 {
        stroke-width: 0.51px;
      }

      .cls-29 {
        fill: #ddb966;
      }

      .cls-30 {
        fill: none;
      }

      .cls-31 {
        fill: #471201;
      }
    </style>
  </defs>
  <g>
    <path class="cls-1" d="M185.84,328.26a42.68,42.68,0,0,1-4.48-.23h-5.67c-.94,0-1.88-.11-2.87-.23a9.3,9.3,0,0,1-1-.15c-7.2-1.12-11.72-4.57-14.13-8.28a22.59,22.59,0,0,1-11.89,6.15,76.61,76.61,0,0,1-15.21,1.75h-.73a18.51,18.51,0,0,1-3.43.29,29.94,29.94,0,0,1-3.41-.21,19.54,19.54,0,0,1-2.69.18,16.63,16.63,0,0,1-15.85-10.66c-.11-.28-.22-.57-.31-.87-3-9.8,0-22.24,11.38-27l3.24-1.36c-.71-2.7-2.56-8.08-4.09-12.54-3.7-10.8-8.63-25.18-10.87-37.53a50.64,50.64,0,0,1-6.85-7.36c-3.45,2.8-4,5.55-4,7.22,0,.14,0,.28,0,.41a12.27,12.27,0,0,1,.16,1.43,10.32,10.32,0,0,1-7.5,10.46,10.46,10.46,0,0,1-2.81.39,10.32,10.32,0,0,1-9.06-5.38,41.19,41.19,0,0,0-3.05-4.62,64.22,64.22,0,0,0-6.8-5.73,20,20,0,0,1-1.87-1.49,41.73,41.73,0,0,1-11.31-16.26h-.1a10.32,10.32,0,0,1-10.32-10.05L40,192.61a15,15,0,0,0-.39-1.7,4.7,4.7,0,0,0-.58-.84L37.5,189c-.66-.47-1.34-1-2-1.47a33.78,33.78,0,0,1-9.43-10A10.22,10.22,0,0,1,17,164.68c.41-1.74,1-7.46-1.22-11.8l-.93-1.77c-5.12-9.8-12.86-24.6-8.27-39.75,1.24-4.08,2.66-7.93,4-11.29a10.32,10.32,0,0,1,2.76-16.82c1.74-.83,7-3.84,9.89-7.53a15.51,15.51,0,0,0,1-1.52,41.2,41.2,0,0,1-2.19-10.8,22.14,22.14,0,0,1,6.34-16.2,23.34,23.34,0,0,1,11.73-6.8A66,66,0,0,1,56.32,22.12,18,18,0,0,1,55.71,20a10.33,10.33,0,0,1,14-11.71,18.25,18.25,0,0,0,5.57,1,5.31,5.31,0,0,0,2.58-.47A31,31,0,0,1,92.65,5.16a32.85,32.85,0,0,1,24.43,11c5.09-3.82,12.09-6.64,21.37-6.64a52.66,52.66,0,0,1,7.47.56c.3,0,.6.1.9.17,1.6.38,15.76,4.17,24.78,20.85a3.74,3.74,0,0,0,2.61,1.29,5.74,5.74,0,0,0,1.69-.31,10.32,10.32,0,0,1,12.83,13.53,15.09,15.09,0,0,1-2.54,4.24,34,34,0,0,1,5.42,15c.11,1.08.25,2.33.44,3.72a22.32,22.32,0,0,1,6.51,8.21c3.44,7.21,3.35,15.6-.24,21.89-.11.21-.23.41-.36.62a135.27,135.27,0,0,0,5.14,16.91c2.54,6.32,4,14.86,4,23.61,16.36,12.49,39.43,21.86,43.67,23.53,6.91,1.49,41.59,9.26,57.56,18.21a71.55,71.55,0,0,1,10.35,6.93,87.73,87.73,0,0,1,11.91-.82,92.63,92.63,0,0,1,19.25,2.07c24,5.12,37.35,15.91,49.14,25.43,10.15,8.19,19,15.37,34.21,19a42.52,42.52,0,0,1,24.77-8.27,43,43,0,0,1,19.56,4.89,10,10,0,0,1,.9.52c7.37,4.72,20.12,11.81,25.35,12.76A10.31,10.31,0,0,1,511,259.18c-.86,1.57-9,15.28-30.15,16.88a58.77,58.77,0,0,1-7.33.45,66.41,66.41,0,0,1-8.34-.54l-2.42-.32c-6.38-.74-21.57-3.23-30.1-10.7a29.09,29.09,0,0,1-3-2.6,80.1,80.1,0,0,1-52-26.14c-9-9.85-24.6-16.38-40.15-17,3.31,5.89,10.11,7.81,20,10,1.58.35,3.1.69,4.53,1.05,12.45,3.11,16.4,11.68,17,17.82l11.61,27.74c2.41,4.53,11,22.11,7.24,35-2.74,9.32-10.52,14.87-20.81,14.87-.68,0-1.33,0-1.93-.06a25.73,25.73,0,0,1-10.44,2.19,26.1,26.1,0,0,1-8.29-1.35h-1.7a10.35,10.35,0,0,1-3.17-.5c-6.3-2-10.78-6.26-12.61-11.88-3-9.19,2.25-18.74,4.71-22.51a19.15,19.15,0,0,0-.16-11c-4.26-6.63-17.21-12.55-32-14.54l-.91-.13a17.72,17.72,0,0,0,2,6.44c7.53,4.7,9.59,11.52,9.06,16.42-.25,3.41-2,13.79-13.49,26-8.77,9.26-17.7,11.2-23.65,11.2a25.37,25.37,0,0,1-3.31-.21A25,25,0,0,1,273,327.2a19.16,19.16,0,0,1-6.84-1.2c-6.94-.46-11.14-3.53-13.5-6.13A19.29,19.29,0,0,1,248,305.55c0-.06,0-.12,0-.18,1.11-9.3,6-14.59,11.4-17.67a57.14,57.14,0,0,1-30.33-26.48l-2.19.17c-7.08.69-13,1.16-17.67,1.4.88,17.64,2.39,47.26,2.41,47.64a10.38,10.38,0,0,1-1,5C206.68,323.7,197.87,328.26,185.84,328.26ZM163,292.09a24,24,0,0,1,3.42-2.14c-1.17-3-2.54-6.94-4.13-11.86Z"/>
    <path class="cls-2" d="M180.68,323.1a42.68,42.68,0,0,1-4.48-.23h-5.67c-.94,0-1.88-.11-2.87-.23a9,9,0,0,1-1-.15c-7.2-1.12-11.72-4.57-14.14-8.28a22.55,22.55,0,0,1-11.88,6.15,76.69,76.69,0,0,1-15.21,1.75h-.73a19.41,19.41,0,0,1-3.43.29,29.8,29.8,0,0,1-3.41-.21,19.65,19.65,0,0,1-2.69.18A16.62,16.62,0,0,1,99.28,311.7c-.11-.28-.22-.58-.31-.87-3-9.8,0-22.24,11.38-27l3.24-1.36c-.71-2.7-2.56-8.08-4.09-12.54-3.7-10.8-8.63-25.18-10.87-37.53A50.09,50.09,0,0,1,91.78,225c-3.45,2.8-4,5.54-4,7.22,0,.14,0,.28,0,.41a12,12,0,0,1,.16,1.43,10.32,10.32,0,0,1-7.5,10.46,10.46,10.46,0,0,1-2.81.39,10.33,10.33,0,0,1-9.06-5.39,42.74,42.74,0,0,0-3-4.61,63,63,0,0,0-6.8-5.73,20,20,0,0,1-1.87-1.49A41.62,41.62,0,0,1,45.6,211.43h-.1a10.32,10.32,0,0,1-10.32-10.05l-.38-13.93a14.49,14.49,0,0,0-.39-1.7,4.7,4.7,0,0,0-.58-.84c-.45-.34-1-.7-1.49-1.08s-1.35-1-2-1.47a33.91,33.91,0,0,1-9.43-10,10.22,10.22,0,0,1-9.06-12.86c.41-1.75,1-7.46-1.22-11.8L9.67,146c-5.12-9.8-12.86-24.6-8.27-39.75,1.23-4.08,2.66-7.93,4-11.29A10.33,10.33,0,0,1,8.2,78.09c1.74-.83,7-3.84,9.89-7.53a15.51,15.51,0,0,0,1-1.52,41.2,41.2,0,0,1-2.19-10.8A22.14,22.14,0,0,1,23.25,42,23.34,23.34,0,0,1,35,35.24,65.82,65.82,0,0,1,51.16,17a18,18,0,0,1-.61-2.16,10.33,10.33,0,0,1,14-11.71,18.19,18.19,0,0,0,5.57,1,5.31,5.31,0,0,0,2.58-.47A30.91,30.91,0,0,1,87.49,0a32.85,32.85,0,0,1,24.43,11C117,7.15,124,4.33,133.29,4.33a52.66,52.66,0,0,1,7.47.56,8.74,8.74,0,0,1,.89.17c1.61.38,15.77,4.17,24.79,20.85a3.74,3.74,0,0,0,2.61,1.29,5.74,5.74,0,0,0,1.69-.31,10.1,10.1,0,0,1,3.2-.51,10.32,10.32,0,0,1,9.63,14A15.09,15.09,0,0,1,181,44.66a34,34,0,0,1,5.42,15c.11,1.08.25,2.33.44,3.72a22.19,22.19,0,0,1,6.5,8.21c3.45,7.21,3.36,15.6-.23,21.89-.11.21-.23.41-.36.62A135.27,135.27,0,0,0,197.94,111c2.54,6.32,3.95,14.86,3.95,23.61,16.37,12.49,39.44,21.86,43.68,23.53,6.91,1.49,41.59,9.26,57.56,18.21a70.88,70.88,0,0,1,10.34,6.93,86.29,86.29,0,0,1,11.92-.82,92.63,92.63,0,0,1,19.25,2.07c24,5.12,37.35,15.91,49.14,25.43,10.15,8.19,19,15.37,34.21,19a41.37,41.37,0,0,1,44.33-3.38,9.93,9.93,0,0,1,.9.51c7.37,4.73,20.11,11.82,25.35,12.77A10.33,10.33,0,0,1,505.79,254c-.86,1.57-9,15.28-30.15,16.87a58.75,58.75,0,0,1-7.33.46,66.41,66.41,0,0,1-8.34-.54c-.82-.1-1.63-.21-2.42-.33-6.38-.73-21.57-3.22-30.1-10.69a29.09,29.09,0,0,1-3-2.6,80.1,80.1,0,0,1-52-26.14c-9-9.85-24.6-16.38-40.15-17,3.31,5.89,10.11,7.81,20,10,1.57.35,3.1.69,4.53,1,12.45,3.11,16.4,11.68,17,17.82l11.61,27.74c2.4,4.53,11,22.11,7.23,35-2.73,9.32-10.51,14.87-20.8,14.87-.68,0-1.33,0-1.93-.06a25.73,25.73,0,0,1-10.44,2.19,26.22,26.22,0,0,1-8.3-1.35H349.5a10.3,10.3,0,0,1-3.17-.5c-6.3-2-10.78-6.26-12.61-11.88-3-9.19,2.25-18.74,4.71-22.51a19.24,19.24,0,0,0-.16-11c-4.26-6.63-17.21-12.55-32-14.54l-.91-.13a17.72,17.72,0,0,0,2,6.44c7.53,4.7,9.59,11.52,9.06,16.42-.25,3.41-2,13.79-13.49,26-8.77,9.26-17.7,11.2-23.65,11.2a27.12,27.12,0,0,1-3.31-.21,25,25,0,0,1-8.13,1.44,19.16,19.16,0,0,1-6.84-1.2c-6.94-.46-11.14-3.53-13.5-6.13a19.31,19.31,0,0,1-4.67-14.32c0-.06,0-.12,0-.18,1.11-9.3,6-14.59,11.4-17.68A57.09,57.09,0,0,1,224,256.06l-2.19.17c-7.08.69-13,1.16-17.67,1.39.88,17.65,2.39,47.27,2.41,47.65a10.38,10.38,0,0,1-1,5C201.52,318.54,192.71,323.1,180.68,323.1Zm-22.82-36.17a25,25,0,0,1,3.42-2.15c-1.17-3-2.54-6.93-4.13-11.85Z"/>
    <g>
      <path class="cls-3" d="M265.36,220.18s29.18-35.75,77.13-25.52,47.41,44.64,103.1,47l-1.25,4.62s-36.41,8.13-64.26-22.24c-20.45-22.29-72.6-34.59-105.74,8.16l-6.73,1.23-6.07-9.39Z"/>
      <path class="cls-4" d="M228.83,241.2s6.58,26.76,34.7,33.34c0,0,14.28,3.4,18.14,6.34v4.54a79.77,79.77,0,0,0-8.22,2.18c-4.45,1.44-18.76.72-20.32,13.83,0,0-1,9.5,10.34,9.14,0,0,3.85,3,11.55-.72,0,0,9.86,3.85,20.44-7.34s10.7-19.84,10.7-19.84.72-3.85-4.69-7-9.26-19.85-4.57-27.66-2.5-15.22-2.5-15.22l-31.64-5.89-22.22,3Z"/>
      <path class="cls-4" d="M144.9,235.07l3.28,64.63s.22,8.52-9.65,10.54-15,1.47-15,1.47-1.14.8-5.94,0c0,0-6.3,2-8.71-3.9,0,0-3.3-10.81,5.51-14.51s10.11-3.8,9.8-10.41-15.51-41-16.41-60.84Z"/>
      <path class="cls-5" d="M90.52,189.31s-1,28.82,29.26,45.09,90.09,12.35,90.09,12.35,56.45-7.25,64.88-5.1a142.22,142.22,0,0,0,32.93,9c17.45,2.35,34.11,9.8,40,20.39,0,0,4.12,10,0,20.19,0,0-11.33,15.54,1.83,19.8h3.31a1.65,1.65,0,0,1,.65.14,15.7,15.7,0,0,0,14.6-1.32s11.76,2.94,14.7-7.06-6.66-27.64-6.66-27.64l-12.55-30s1-7.45-9.21-10-25.09-4.11-31.56-17.05-5.43-21.93-24.7-32.74c-15.88-8.9-55.48-17.29-55.48-17.29s-46.41-17.51-61.44-39.71C181.16,128.39,90.19,173.08,90.52,189.31Z"/>
      <g>
        <g>
          <path class="cls-6" d="M38.21,75.37s9.36-7.63,13.43-14.63c0,0,1.27-11.63-8.92-15.14-7.93-2.73-15.9,5.34-15.51,12.08C27.21,57.68,27.94,73.17,38.21,75.37Z"/>
          <path class="cls-7" d="M36.28,51.56s8-3.31,13.41,11.61c0,0-4.83,4.48-10.36,5.24C39.33,68.41,28.3,56.37,36.28,51.56Z"/>
        </g>
        <path class="cls-8" d="M35.67,51.88S44.11,50,47.2,63.12A10,10,0,0,0,49,61.68a65.37,65.37,0,0,0-3.27-6.47C44.69,53.55,40.7,48.39,35.67,51.88Z"/>
        <path class="cls-8" d="M28.56,53.21A34.42,34.42,0,0,0,32,68l-1.45.86A28.26,28.26,0,0,1,28.38,63S26.27,56.1,28.56,53.21Z"/>
      </g>
      <path class="cls-9" d="M110.94,29.18s4.47-17.55,28.33-14.08c0,0,11.37,2.7,18.45,16.39a14.07,14.07,0,0,0,16.22,5.21s-1.86,4.82-9.88,4.63c0,0,11,7.87,12.12,19.36s6.38,39.77,12.18,54.2,7.09,54.87-25.78,69.49c0,0-4.66,9.24-14.42,11.6,0,0-29,6.34-37.22,19.8,0,0-1.51-6.17,2.27-9.41,0,0-5,3.89-16,5s-21.52,12.32-19.54,23.18c0,0-5.62-10.32-12-13.25s-14.57-21.81-14.32-33.4,2.32,11-5.91,13.17c0,0,1.54-18.36-3.86-23.15S25.94,170.17,26.71,151c0,0,0,8.71-4.88,11,0,0,2.57-10.13-2.06-19.08s-12.1-21.89-8.49-33.79a128.24,128.24,0,0,1,9-21.75s-6.17.52-7.72,0c0,0,8.49-4,13.64-10.49S38.29,50.46,42.41,43s11.77-18.1,25-23.69c0,0-5.85-2.13-6.81-6.65,0,0,9.88,4,17,0S102.53,7.37,110.94,29.18Z"/>
      <path class="cls-10" d="M102.59,47.09s-20-20.58-36-1.72S58,78,39.7,90a16.33,16.33,0,0,0,10.58-3.43s-18.58,10.58-5.15,48.6c0,0,4-7.44,4-13.44a17.1,17.1,0,0,0,7.15,13.44c7.43,5.43,6.58,18,4.86,22.29,0,0,4-1.42,5.43-7.14l31.16,7.14L114.88,156s-6.28,11.14-4,18c0,0,6.29-11.73,12-13.44s14.29-7.15,14.29-7.15-2.86,13.72-7.14,17.44c0,0,18-10.29,21.15-27.16l3.15-16.86h0a11.2,11.2,0,0,1,2,6.57c-.29,3.43,2.85-12.58-2.58-20.3a24.66,24.66,0,0,1-4-16.58s3.72,15.16,11.72,18.3L159.77,110s10.29,11.72,18,13.15c0,0,.85-4-6-9.72s-15.15-12.86-16-23.73c0,0-1.71,7.72,2,13.73,0,0-9.72-10.3-9.72-22.3s2.85-28.88-8.87-38.6S116,44.8,116,44.8s.86-3.71,4-5.14l-3.72.28s2.78-4,4.93-6.47c0,0-5.71,3.89-8.29,9.32,0,0,5.16-6.19,1.16-9.62,0,0-1.47,5.12-3.18,7.69l-1.71-8.72s1.32,7.57-1.7,8.43c0,0-3.45-7.85-5.73-9.56,0,0,3.66,3.5,2.8,11.79a21.88,21.88,0,0,1-3.14-5.43A19.38,19.38,0,0,0,102.59,47.09Z"/>
      <path class="cls-11" d="M63.17,86.68s-2.4-36,32.47-38.72a13.07,13.07,0,0,1,6.78,1.46c1.53.9,4.1,3.17,6.59,3.37a50,50,0,0,0,11.28-.74s18.82-3.09,23.79,21.2c3.6,17.57-5.94,35.21-5.94,35.21s19.64,24.28-12.49,41.42c0,0-17.86,4.52-22,15.27L72.9,160.41l-4.12-12.65a12.88,12.88,0,0,0-5.61-12.34c-7-5.06-17.47-19.92-13-31.94S63.17,86.68,63.17,86.68Z"/>
      <path class="cls-12" d="M71.25,141.26s-1,10.08,7.47,11.38,15.61,1.3,21.79-7.15S114.16,124,114.16,124s-7.15,18.21-7.47,30.56-7.16,20.49-24.39,20.16c0,0-13.85-.87-17.43-11.27a22.24,22.24,0,0,1,2.32-14.79S70.79,143.37,71.25,141.26Z"/>
      <path class="cls-13" d="M74.39,134.72s5.48,4.08,18.69,2.4,12.28-8.57,12.28-8.57H81.87l-8.4.65Z"/>
      <path class="cls-14" d="M71,134.72l1.05,9.5,4.31,6.37H88.28l9-1.93,5.81-7.39s8.83-13.76,9.92-16.56l-4.2-.68-22.25.68S69,126.76,71,134.72Z"/>
      <path class="cls-12" d="M69.44,109.51S59.09,113.94,63,124s15.43,8.92,17.77,5.6v-4.1s-1.17,8.2,5.47,9S102.07,134.26,113,124c0,0-3.76-8.66-16.44-7.29l-17.95-2Z"/>
      <path class="cls-15" d="M71.65,105.16s7.42,8.08,27.28,5.9c0,0,2.13,5.61-8.76,9.87,0,0-3.67,2.38-5.7,3.73-4.93,3.27-7.35-.63-7.35-.63s-2-4.83-3.53-6.16S67.49,109.11,71.65,105.16Z"/>
      <path class="cls-16" d="M108.76,106.92s-14.53-17.25,5.4-33.06c0,0,9.79-3.4,11.2,5.88,3.58,23.63-5,22.07-7.75,26.13Z"/>
      <path class="cls-17" d="M114.16,73.86S122.7,72.25,125.91,84c0,0,2.68-10.72-4.28-14.73S114.16,73.86,114.16,73.86Z"/>
      <path class="cls-16" d="M64.48,88.1a33.08,33.08,0,0,1,8.08-21.19c8.5-9.58,15,.25,15,.25S87.94,90,79.47,93.93Z"/>
      <path class="cls-12" d="M118.81,205.9s1,15,60.58,21,84.38,6,84.38,6l11,8.74a203.73,203.73,0,0,0-30.37,1.22c-18.4,1.95-42.52,5-51.39,4.29S152.15,246,141,242c0,0-24.72-4.84-40.16-22.61a21,21,0,0,1-5.74-10.52l10.27-1Z"/>
      <path class="cls-17" d="M87.56,67.16s1.82-4.55,0-7.76-13.33,0-15.47,7.76C72.09,67.16,83.75,60.47,87.56,67.16Z"/>
      <path class="cls-18" d="M76.35,144.41s8.26-8.67,22.75-6c0,0,3.71.43,2,4.32s-15.4,6.71-15.4,6.71l-9.36-.74Z"/>
      <path class="cls-17" d="M69.12,130.85s2.58,6.7,2.1,12c0,0-1.39,9.88,10.24,10.2s14.87-1.14,20.1-9,12.6-20,12.6-20H113s-9.2,17.5-15.38,21.86-16.38,6.19-23.24.37a72.64,72.64,0,0,1-1.2-8.9C73.19,134.71,69.12,130.85,69.12,130.85Z"/>
      <path class="cls-13" d="M69.12,130.85l4.23,8.72s2,3.28,1.55-7.58C74.9,132,71,132,69.12,130.85Z"/>
      <path class="cls-13" d="M90.52,134.7l2,7.53s1.48,3.38,3.1-8.18C95.64,134.05,91.64,134.72,90.52,134.7Z"/>
      <path class="cls-13" d="M74.39,146.26s.61-5.4,2.09-6.75,1.83,9.15,1.83,9.15S74.59,147.35,74.39,146.26Z"/>
      <path class="cls-13" d="M89.61,149.4s.53-6.57.91-7.92,2.71,4.31,3.33,6.53A13.42,13.42,0,0,1,89.61,149.4Z"/>
      <path class="cls-13" d="M73.78,142.69s8.48,8.3,25.32,0c0,0,2.68-2,3.51-4.15l.48,1.49s-3.72,6.16-9.24,8c-4.24,1.39-9.68,3.08-15.54.65C78.31,148.66,72,147.12,73.78,142.69Z"/>
      <ellipse class="cls-19" cx="115.22" cy="93.19" rx="12.71" ry="10.12" transform="translate(3.3 190.33) rotate(-79.92)"/>
      <ellipse class="cls-20" cx="74.19" cy="84.04" rx="12.23" ry="9.44" transform="translate(-27.37 131.48) rotate(-73.6)"/>
      <ellipse class="cls-21" cx="114.93" cy="94.74" rx="6.99" ry="5.67" transform="translate(1.54 191.31) rotate(-79.92)"/>
      <ellipse class="cls-17" cx="115" cy="95.28" rx="4.01" ry="3.4" transform="translate(-5.59 183.37) rotate(-75.79)"/>
      <ellipse class="cls-22" cx="111.68" cy="93.45" rx="1.27" ry="1.19" transform="translate(6.46 194.13) rotate(-83.66)"/>
      <circle class="cls-23" cx="116.84" cy="91.02" r="2.1"/>
      <g>
        <ellipse class="cls-21" cx="75.54" cy="87.48" rx="6.73" ry="5.29" transform="translate(-29.71 135.23) rotate(-73.6)"/>
        <ellipse class="cls-17" cx="75.75" cy="87.95" rx="4.2" ry="3.12" transform="translate(-30.02 135.78) rotate(-73.6)"/>
        <ellipse class="cls-24" cx="73.05" cy="85.7" rx="1.21" ry="1.14" transform="translate(-20.2 148.83) rotate(-83.66)"/>
        <circle class="cls-23" cx="77.33" cy="83.4" r="2.1"/>
      </g>
      <path class="cls-8" d="M90,111.13s9-3.24,10.15-8.5c0,0,.67,5.89-.83,8.2C99.27,110.83,91.08,111.41,90,111.13Z"/>
      <path class="cls-8" d="M106.81,152.43a40.8,40.8,0,0,1,13.83-7.6c8.23-2.55,21.74-10.23,22.3-26.91,0,0,4.48,12.53-4,21.47s-11.16,9.71-19.31,12.53-13.3,8.14-14.29,10.49C105.37,162.41,107.22,154.7,106.81,152.43Z"/>
      <path class="cls-8" d="M68.5,146.66s2.52-3.79,2.75-5.4-1.27-8.75-2.13-10.41c-.62-1.19-1.48.69-5.52-5.83-.92-1.47-12.42-7.1-14.46-13.59,0,0,.08,4.74,3.44,11.09a45,45,0,0,0,12.75,14.79C69.12,140.16,68.5,146.66,68.5,146.66Z"/>
      <path class="cls-12" d="M71.81,104.66s2.08-7.94,11.92-11.14C83.73,93.52,73.5,101,71.81,104.66Z"/>
      <path class="cls-25" d="M105.92,107.65s11.91-1.21,18.61-2.15C124.53,105.5,112.28,104.86,105.92,107.65Z"/>
      <path class="cls-25" d="M62.05,91.87s9,4.91,14.13,7.45C76.18,99.32,68.08,92.75,62.05,91.87Z"/>
      <path class="cls-26" d="M13.51,87.1s11.39-2.28,15.25-6.5a13.67,13.67,0,0,1-8.63,6.5S14.32,87.94,13.51,87.1Z"/>
      <path class="cls-10" d="M21.83,162.06s6-8,3.11-22.84c0,0,2.34,6.62,5.41,19.66s12.91,15,12.91,15,3.48,1.09,3.93,12.68S45.5,201.1,45.5,201.1s.86-13.56-1.45-19.08a16.8,16.8,0,0,0-7.63-8s-6.32-4.19-7.8-9.56A78.65,78.65,0,0,1,26.71,151S26.89,159.36,21.83,162.06Z"/>
      <path class="cls-10" d="M38.33,161.44A23.48,23.48,0,0,0,41.22,174l2.67,3.33,1.2,8.82.41,15s4.61-.42,6-10.55c0,0,.58,20.77,13.32,30.24s12.88,13.79,12.88,13.79-3.33-13.94,15.47-22.31c0,0,13-1.41,20-5.9,0,0-4,2.51-2.27,9.41,0,0,6.58-10,24.73-16.09s22.14-5.43,26.91-15.31c0,0,19.66-3.71,26.73-32.12,0,0-9.78,18.23-19.36,20.64,0,0,9.31-14.94,8.25-23.24,0,0-6.33,21.63-16.68,24.47,0,0,1.92-1.43,2.58-7.33s-1.33,13.68-14.38,18.77a14.12,14.12,0,0,0,2.17-4.5c.28-1.85-3.91,8.63-12.58,11.05s-18.73,6.57-22.37,9c0,0,4.47-4,4.87-7.83,0,0-7.62,10.47-19.71,12.23s-18.23,3.76-23.48,12.87c0,0,1.52-8.73,5.6-12,0,0-7.25,3.78-7.63,9.77,0,0-1.32-12.14-7.5-15.84,0,0,4,9.09,2.29,16.42,0,0-9.75-4.67-14.85-17.06,0,0-5-10.69-4.71-14.21s-4.93-12.27-3.64-21a25,25,0,0,0-.56,15c.05.21.11.41.17.62C50.36,188.75,38.9,164.73,38.33,161.44Z"/>
      <path class="cls-27" d="M64.48,126.38s10.14,5.44,16.17-.1c0,0,5.86,8.22,23,4.67A28.79,28.79,0,0,1,89,135.37c-6.92-.08-7.33-2.28-8.08-6.33,0,0-.19,4.07-8.84,2.74C65.94,130.85,64.48,126.38,64.48,126.38Z"/>
      <path class="cls-27" d="M67.1,167.55s25.22,5.85,32-4,7.49-25,12.12-31.07c0,0-3.92,13.2-4.26,18.39s-.09,15.23-7.86,19.91S75.13,178.18,67.1,167.55Z"/>
      <g>
        <g>
          <path class="cls-28" d="M160.84,78.84s-.2,13.75,6.57,19.11c0,0,11.1.43,16.79-9.55,3.87-6.8-.8-17.93-7.42-18.27C176.78,70.13,163.77,69.34,160.84,78.84Z"/>
          <path class="cls-7" d="M179.65,80.93s2.38,11.12-14.19,14.6c0,0-4-5.78-4-11.73C161.5,83.8,175.78,71.78,179.65,80.93Z"/>
          <path class="cls-8" d="M162.54,89.14a10.31,10.31,0,0,1,5.52-3.62,5.05,5.05,0,0,0-4.5,0s10.58-10.82,16.15-4.8c0,0-1.25-5.56-8.3-2.87,0,0-7.64,2.67-9.85,5.73C161.56,83.58,161.4,87.31,162.54,89.14Z"/>
        </g>
        <path class="cls-8" d="M166.92,96.56c.07.18-.43.13.17.56l.56.54c3.59-.24,3.24,0,8.53-2.21,5-2,7.38-8.46,7.38-8.46C178.34,95.33,168.92,96.35,166.92,96.56Z"/>
      </g>
      <path class="cls-29" d="M96.46,211.82s21.61,20.87,65,23.84,108,1.14,108,1.14l5.3,4.85s-17.85.17-26.9,1.28-47.93,5.84-54.86,4.23L159.79,246s-37.32-4-53.61-21.29C106.18,224.73,98.78,218.78,96.46,211.82Z"/>
      <path class="cls-5" d="M147.47,201.1s17.72,67.6,24.6,82.74c0,0,1.88,6.65-1.68,8.61,0,0-13.34,2.13-9.78,14.94,0,0,.89,4.8,10.32,5.16h5.87s15.12,2.13,19.39-6.76c0,0-2.85-56-3-60.31s1.07-53-5.33-61.2"/>
      <path class="cls-30" d="M362.18,294.88s-4.3,13.74,10.44,15.37"/>
      <path class="cls-30" d="M350.94,296.22s-5.5,13.76,7.22,16.12"/>
      <path class="cls-30" d="M176.9,297.09s-9.93,7.3-.87,15.31"/>
      <path class="cls-30" d="M170.54,296.12s-10.48,6.68-2,16.23"/>
      <path class="cls-30" d="M125.58,297.09s-9.53,5.47-2.09,14.62"/>
      <path class="cls-30" d="M120.65,294s-7.22,3.1-6.55,9.66c.63,6.24,3.45,8.06,3.45,8.06"/>
      <path class="cls-30" d="M278.2,293.39s-11.42,4-3.18,16.46"/>
      <path class="cls-30" d="M268.25,291.45s-7.12,2.75-7,10.17,2.21,8.95,2.21,8.95"/>
      <path class="cls-5" d="M257.49,225.76s12,14.44,21.78,17.65"/>
      <path class="cls-30" d="M96.46,211.82s2.14,13.75,31.5,26.39c0,0,23.29,8,31.83,7.81"/>
      <path class="cls-30" d="M193,247.16s27.54-.25,48.75-3.43c23.39-3.5,33-2.08,33-2.08"/>
      <path class="cls-31" d="M429.8,241s15.79-17.36,37.84-6.16c0,0,19.46,12.5,29.1,14.24,0,0-9.91,14.72-35.48,11.51S425.78,247.77,429.8,241Z"/>
      <path class="cls-25" d="M429.21,242.26s5.14,10,30.84,13.76,36.69-7,36.69-7-5.71,10.4-22.07,11.56-34.11-2.81-40.63-8.79S428.63,243.54,429.21,242.26Z"/>
      <path class="cls-25" d="M430.68,240.1s11.17,4.57,18,4.17c0,0-6.48,5.68-19.74-1.31A4.69,4.69,0,0,1,430.68,240.1Z"/>
    </g>
  </g>
</svg>
