<?xml version="1.0" encoding="UTF-8"?><svg id="a" xmlns="http://www.w3.org/2000/svg" viewBox="0 0 185.18 163.93"><defs><style>.b{fill:#81c783;}.c{fill:#f9ec38;}.d{fill:#903e96;}.e{fill:#468ecb;}.f{fill:#ec1559;}.g{fill:#f4387c;}.h{fill:#ff0;}</style></defs><path class="h" d="M51.69,159.1c-1.43,0-2.71-.42-3.8-1.24-.62-.47-1.13-1.08-1.47-1.78-1.43-2.88-3.06-5.64-4.79-8.57-.69-1.16-1.38-2.33-2.05-3.5-6.93-12.03-13.87-24.05-20.81-36.07l-11.85-20.53c-.35-.6-.62-1.18-.87-1.69l-.02-.04c-.04-.05-.08-.11-.12-.16-.34-.39-.62-.82-.83-1.3h0c-.17-.35-.29-.72-.38-1.1-.51-2.38,.6-4.1,.96-4.66C19.23,54.96,32.8,31.46,46.38,7.95c.36-.61,.73-1.01,.92-1.2,.25-.29,.54-.54,.86-.77,1.07-.75,2.3-1.13,3.66-1.13,.31,0,.62,.02,.92,.05h.06c12.54,0,25.08,0,37.62,0,13.92,0,27.83,0,41.75,.01h.11c.34-.04,.68-.07,1.02-.07,1.89,0,3.22,.73,4.01,1.35,.5,.39,.92,.87,1.24,1.41l2.82,4.79c2.02,3.42,4.04,6.85,6.03,10.29,9.79,16.9,19.56,33.81,29.33,50.71l2.32,4.01c.27,.47,.47,.9,.64,1.27,.7,.97,1.03,2.17,.93,3.37l-.03,.36c-.06,.72-.28,1.41-.63,2.03l-2.72,4.79c-2.02,3.56-4.04,7.13-6.08,10.68-9.64,16.74-19.3,33.48-28.96,50.21l-3.36,5.82c-.36,.62-.76,1.04-.94,1.23-.16,.18-.34,.35-.52,.5-.77,.64-2.08,1.4-3.96,1.4-.25,0-.5-.01-.76-.04h.04c-26.76,.03-53.52,.04-80.28,.06-.25,.02-.47,.03-.7,.03Z"/><g><path class="b" d="M175.58,81.96c-2.93,5.15-5.83,10.31-8.79,15.44-10.76,18.68-21.54,37.35-32.31,56.02-.08,.14-.22,.26-.33,.38-.23-.33-.48-.64-.68-.98-5.55-9.53-11.1-19.06-16.64-28.6,8.13-14.1,16.26-28.21,24.39-42.31,5.64-.01,11.28-.05,16.92-.04,5.81,0,11.62,.05,17.43,.08Z"/><path class="c" d="M116.83,124.22c5.55,9.53,11.09,19.07,16.64,28.6,.2,.34,.45,.65,.68,.98-.45,.38-.99,.2-1.48,.21-26.76,.03-53.52,.05-80.28,.06-.5,0-1.03,.15-1.49-.2,1.62-2.81,3.27-5.6,4.86-8.42,3.99-7.09,7.96-14.19,11.94-21.28,.74,.02,1.48,.05,2.22,.05,15.64,0,31.27,0,46.91,0Z"/><path class="d" d="M51.04,10.06c.52-.37,1.11-.16,1.66-.16,26.51-.01,53.03-.01,79.54,0,.66,0,1.37-.26,1.98,.22-3.11,5.24-6.23,10.47-9.31,15.73-2.68,4.56-5.31,9.15-7.96,13.73-13.43,0-26.87,0-40.3,.02-2.97,0-5.94,.05-8.92,.08-.12-.88-.65-1.57-1.07-2.31-2.88-5.11-5.76-10.23-8.68-15.33-2.29-4.01-4.63-7.98-6.94-11.97Z"/><path class="e" d="M51.04,10.06c2.32,3.99,4.65,7.97,6.94,11.97,2.91,5.1,5.79,10.21,8.68,15.33,.42,.74,.95,1.43,1.06,2.31-2.11,3.66-4.23,7.31-6.33,10.97-6,10.43-11.99,20.86-17.99,31.3-2.75,.02-5.49,.04-8.24,.05-8.52,.03-17.04,.05-25.57,.08-.1-.45,.2-.76,.39-1.09C23.56,57.46,37.13,33.96,50.71,10.45c.08-.14,.22-.26,.33-.38Z"/><path class="g" d="M116.94,39.58c2.65-4.58,5.28-9.17,7.96-13.73,3.08-5.25,6.21-10.49,9.31-15.73,2.95,5.02,5.92,10.01,8.84,15.05,10.56,18.23,21.1,36.48,31.65,54.72,.25,.44,.44,.91,.66,1.37-.67-.06-1.12-.55-1.62-.91-18.08-13.01-36.15-26.04-54.24-39.05-.68-.49-1.27-1.16-2.18-1.29l.04,.04-.38-.38-.04-.1Z"/><path class="e" d="M67.7,124.16c-3.98,7.1-7.95,14.2-11.94,21.28-1.59,2.82-3.24,5.61-4.86,8.42-2.1-4.24-4.63-8.25-6.99-12.35-10.87-18.88-21.78-37.74-32.66-56.61-.37-.63-.66-1.31-.99-1.97,1,.04,1.65,.74,2.38,1.27,15.93,11.61,31.84,23.25,47.79,34.84,2.25,1.63,4.31,3.57,6.92,4.66l-.08,.03,.32,.41h.12Z"/><path class="c" d="M117.32,40.02c.91,.12,1.5,.79,2.18,1.29,18.08,13.01,36.16,26.03,54.24,39.05,.5,.36,.94,.85,1.62,.91v-.03c-.06,.22,.06,.31,.25,.35l-.03,.37c-5.81-.03-11.62-.07-17.43-.08-5.64,0-11.28,.02-16.92,.04-.29-.56-.55-1.13-.86-1.67-5.5-9.54-11.02-19.06-16.5-28.61-2.21-3.85-4.63-7.59-6.54-11.61Z"/><path class="b" d="M67.34,123.71c-2.61-1.1-4.67-3.03-6.92-4.66-15.95-11.58-31.86-23.23-47.79-34.84-.72-.53-1.38-1.23-2.38-1.27l-.03-.02-.26-.32-.06-.12-.25-.27-.06-.14c8.52-.03,17.04-.05,25.57-.08,2.75,0,5.49-.03,8.24-.05,4.47,7.77,8.95,15.54,13.41,23.32,3.52,6.14,7.02,12.3,10.53,18.45Z"/><path class="f" d="M175.61,81.59c-.19-.04-.31-.13-.27-.35l.27,.35Z"/><path class="e" d="M9.66,82.21l.25,.27-.25-.27Z"/><path class="e" d="M9.97,82.6l.26,.32-.26-.32Z"/><path class="g" d="M67.34,123.71c-3.51-6.15-7.01-12.3-10.53-18.45-4.46-7.78-8.94-15.55-13.41-23.32,6-10.43,11.99-20.87,17.99-31.3,2.1-3.66,4.22-7.31,6.33-10.97,2.97-.03,5.94-.07,8.92-.08,13.43-.01,26.87-.01,40.3-.02l.04,.1,.38,.38-.04-.04c1.91,4.02,4.33,7.76,6.54,11.61,5.47,9.55,11,19.07,16.5,28.61,.31,.54,.57,1.11,.86,1.67-8.13,14.1-16.26,28.21-24.39,42.31-15.64,0-31.27,0-46.91,0-.74,0-1.48-.03-2.22-.05h-.12c-.01-.23-.08-.39-.32-.42l.08-.03Z"/><path class="c" d="M117.37,40.07l-.38-.38,.38,.38Z"/><path class="b" d="M67.26,123.74c.25,.02,.31,.19,.32,.41l-.32-.41Z"/></g></svg>