<svg xmlns="http://www.w3.org/2000/svg" xmlns:xlink="http://www.w3.org/1999/xlink" width="432" height="434" viewBox="0 0 432 434">
  <defs>
    <style>
      .cls-1 {
        fill: none;
      }

      .cls-2 {
        isolation: isolate;
      }

      .cls-3 {
        opacity: 0.5;
      }

      .cls-4 {
        clip-path: url(#clip-path);
      }

      .cls-5 {
        clip-path: url(#clip-path-2);
      }

      .cls-6 {
        fill: url(#linear-gradient);
      }

      .cls-7 {
        fill: url(#linear-gradient-2);
      }

      .cls-8 {
        fill: #75c289;
      }

      .cls-9 {
        fill: #41b049;
      }

      .cls-10 {
        fill: url(#linear-gradient-3);
      }

      .cls-11 {
        opacity: 0.3;
      }

      .cls-12 {
        fill: #90c856;
      }

      .cls-12, .cls-14 {
        mix-blend-mode: multiply;
      }

      .cls-13 {
        fill: #54a364;
      }

      .cls-14 {
        fill: #60833a;
        opacity: 0.18;
      }

      .cls-15 {
        fill: #3192b8;
      }

      .cls-16 {
        fill: #50abd0;
      }

      .cls-17 {
        fill: #61bbd7;
      }

      .cls-18 {
        fill: #3997bd;
      }

      .cls-19 {
        fill: #2884a6;
      }

      .cls-20 {
        fill: #288098;
      }

      .cls-21 {
        fill: #ff0;
      }
    </style>
    <clipPath id="clip-path">
      <rect class="cls-1" x="12.16" y="11.99" width="399.27" height="399.27" rx="26.14"/>
    </clipPath>
    <clipPath id="clip-path-2">
      <rect class="cls-1" x="-206.47" y="-69.03" width="679.16" height="679.16"/>
    </clipPath>
    <linearGradient id="linear-gradient" x1="151.64" y1="530.51" x2="151.64" y2="-52.34" gradientUnits="userSpaceOnUse">
      <stop offset="0" stop-color="#e9f6fd"/>
      <stop offset="0.14" stop-color="#cff4fd"/>
      <stop offset="0.48" stop-color="#94eefe"/>
      <stop offset="0.74" stop-color="#6feaff"/>
      <stop offset="0.87" stop-color="#61e9ff"/>
    </linearGradient>
    <linearGradient id="linear-gradient-2" x1="-1870.53" y1="906.39" x2="2882.55" y2="-391.67" gradientUnits="userSpaceOnUse">
      <stop offset="0.01" stop-color="#80c572"/>
      <stop offset="0.66" stop-color="#94cb7e"/>
      <stop offset="1" stop-color="#95cc80"/>
    </linearGradient>
    <linearGradient id="linear-gradient-3" x1="-686.59" y1="494.21" x2="801.73" y2="494.21" gradientUnits="userSpaceOnUse">
      <stop offset="0.39" stop-color="#62bb54"/>
      <stop offset="0.49" stop-color="#68bd53"/>
      <stop offset="0.62" stop-color="#7ac14e"/>
      <stop offset="0.73" stop-color="#90c749"/>
    </linearGradient>
  </defs>
  <g class="cls-2">
    <g id="Layer_1" data-name="Layer 1">
      <g>
        <path class="cls-3" d="M357.06,10.77H76.77A68.25,68.25,0,0,0,8.6,78.94V359.23A74.83,74.83,0,0,0,83.34,434H357.06a74.83,74.83,0,0,0,74.75-74.75V85.51A74.83,74.83,0,0,0,357.06,10.77Zm62.67,348.46a62.67,62.67,0,0,1-62.67,62.67H83.34a62.67,62.67,0,0,1-62.67-62.67V83.45a60.61,60.61,0,0,1,60.61-60.6H357.06a62.66,62.66,0,0,1,62.67,62.66Z"/>
        <g class="cls-4">
          <g class="cls-5">
            <g>
              <rect class="cls-6" x="-191.04" y="-81.46" width="685.34" height="676.95"/>
              <path class="cls-7" d="M-755,422l1568.68-4c-.09-.45-.21-.9-.29-1.35-3.7-19.44-2.89-38.89-1.86-58.34-42.7.11-77.44.23-102.69.37q-735.22,4-1471,.38C-760.68,380-758,401-755,422Z"/>
              <path class="cls-8" d="M-755.64,405.33H813.57c-.07-.19-.16-.37-.23-.56-3-8-3-16-2.42-24.09-65.49.62-116.68,1.09-143.24,1.31s-62.14,1.59-108.17.75c-104.15-1.89-115.57-11.61-228.42-16.27-65.54-2.71-126.44-2.19-172.38-1.81-113.44,1-142.91,5.52-245.73,6.5-80.06.76-134.16-1.32-187-2.71-209.42-5.48-327.54,1.86-488.41,4.3A245.38,245.38,0,0,0-755.64,405.33Z"/>
              <path class="cls-9" d="M819.68,508.49a390,390,0,0,1-6.34-41.84c-2.84-28.62-3-57.25-2.49-85.89-1,.37-1.65.78-1.84,1.23-10.07-.89-23.4.16-28.65,2-6.59-4.47-28.71-9-52.05-5.37-11.43,1.76-12.79,4.06-8.73,6.17-12.16.11-29.83,2.08-36,1.83-7.73-.31-5.72-2.21,0-4.2s16.07-4.58,6.94-6.19c-8.91-1.58-27,.31-27.78.4,17.75-6.88,30.59-13.93,9.55-16-21.63-2.12-44.95,3.86-61.47,10.27,0,0,3-4.62-10.05-5.91-15.14-1.5-25,.49-31.36,2.55,6-4.14-10.5-5.32-20.55-4.58,19.31-5.69,23.18-14.44-1.85-16.42s-45.56,4.94-59,8.61c0,0-15.91-8.93-39.7-6.36s-22.09,8-19.77,11.87c-17.24-2.95-37.53,0-38.38.08,6.31-3.5,7.12-11.66-18-11.94s-30.09,5.64-27.22,8.9c-15.33-2.77-29.87-3.55-37.83-1.7s-1.24,6.19,8.79,7.84c-14.12-.21-32.52.28-44.79,1.76s-18.21,5.73-20,7.34a58.12,58.12,0,0,0-34.18-.57c-5.31-3.22-12.66-7.51-30.46-7s-22.1,5-20.25,7.54c-13.1-3-28-7.83-49.5-4.74q-2,.28-3.75.63c-7.81-3.55-29.26-3.22-42.89-.43,4.58-3.53-4.92-7.51-25.37-6.08-20.13,1.4-22.45,5-19.51,8.72-7.41-.38-13.88,1.21-18,2.21.26-3.26-8.87-8.87-29.67-6,5.88-4.27-.36-11.47-28.47-11.47-13.36.05-23,2.18-25.69,4.69-8.79-2.85-25.87-2.09-35.57.14-9.18,2.11-8.16,4.9-.84,7.15-11-.22-21,1.22-26.24,3.08-1.47-2.89-3.53-6.22-14.55-8.32-9.34-1.79-27.6-2.33-36.2,0-10.89,2.94-2.79,7,6.12,9.64-10.23-.69-22.62.61-23.56,2.87-10.07-.89-23.42.16-28.67,2-6.57-4.48-28.71-9-52.05-5.38-16.6,2.56-12,6.26-.3,8.86-.74,0-1.49-.05-2.26-.06-3.93-.06-8.34.1-10.79.73.29-1.66-6.3-3.25-14.44-3.48s-16.65.93-18.62,2.53l-2.3-.15c.71-.52.24-1.08-.83-1.57a31.91,31.91,0,0,0-4.66-1.44,36.21,36.21,0,0,0-6.88-1.22l.53-.25c3.74.34,7.63.66,11.7.64,3.54,0,6.89-.3,10.11-.59,6.29-.57,12.86-1.29,16-2.53,1.24-.5,1.86-1.08,1.06-1.61s-3.58-1.08-6.33-1.42c-3.09-.38-6.43-.68-9.93-.87l.05-.1c5.53.15,11.15.26,16.62.07s10.91-.72,14.16-1.64c1-.29,1.81-.61,2-1,.29-.68-1.93-1.32-4.78-1.69s-6.24-.52-9.56-.66l-5.76-.24a49.14,49.14,0,0,0,7.73-.86,18.33,18.33,0,0,0,5.31-1.77,2.2,2.2,0,0,0,1-.81c.33-1-3.32-1.91-7.87-2.28a112.51,112.51,0,0,0-14.47-.06l-.08,0A44.61,44.61,0,0,0-311.67,356c1.47-.54,2.81-1.11,3.08-1.72.67-1.54-5.6-2.87-12.44-3.58a173.87,173.87,0,0,0-28.4-.49c-9.24.63-17,2.18-19.54,4.08a3.28,3.28,0,0,0-1.36,2.17c-4-1.51-14.2-2.06-22.32-1.53-8.3.56-14.49,2-18.56,3.56-3.9-1.54-14.2-2.26-22-1.54l-1.1.06c.18-.31.1-.63-.31-.93-1.46-1-7.12-1.71-12.49-1.65A60.54,60.54,0,0,0-460.65,356a12.43,12.43,0,0,0-5,2.1,10.46,10.46,0,0,0-3-1.83,11,11,0,0,0-2.66-.81,42.77,42.77,0,0,0-13.43.34,18.28,18.28,0,0,0-6.57,2.69,1.3,1.3,0,0,1-.63.2,8.37,8.37,0,0,1-1.23,0c-3.66-.14-7.36-.31-11.09-.29a59,59,0,0,0-10.23.78c-2.67.54-3.79,1.34-3.54,2.1s1.54,1.35,3.3,1.95l-.19,0a145.71,145.71,0,0,0-26.39,2.44,2.12,2.12,0,0,0,1.53-1.12c.4-.75.79-1.51-.06-2.24s-2.87-1.4-4.85-2a32.61,32.61,0,0,0-8.56-1.72,57.88,57.88,0,0,0-8.65.14c-2.71.24-5.09.61-7.43,1l-.55-.08a29,29,0,0,0,8.18-3.51c1.49-1.05,2.22-2.23-.26-3.2s-7.86-1.55-13.25-1.63a116.27,116.27,0,0,0-15.4.86,74.83,74.83,0,0,0-13.55,2.7c1.22-1.34-1.69-2.81-7-3.69a108.74,108.74,0,0,0-21.39-.91,67.5,67.5,0,0,0-9.23,1c-4.09.83-5.36,2.09-4.48,3.24s3.7,2.21,6.86,3.18h-2a127.89,127.89,0,0,0-18.47.78c-5.39.7-9.22,1.92-9.24,3.21s3.91,2.54,9,3.4l-.46.11c-9-.37-18.87.67-22.49,2.37-.87-1.34-5.47-2.44-10.44-3.33a58.75,58.75,0,0,0-13.51-1c-1.81.11-3.35.34-4.84.56l-9.54,1.44-.45-.05a10.42,10.42,0,0,0,2.12-1.17c1.75-1.2,3.43-2.45,2.4-3.68s-5.48-2.44-11.64-2.58a64.07,64.07,0,0,0-13.55,1.19c-8.53,1.67-13,4.14-12.11,6.53a33.64,33.64,0,0,0-7.14-.52l-.23,0c2.3,55,6.69,109.9,10.72,164.85H819.6C820.37,522.67,821.17,515.56,819.68,508.49Z"/>
              <polygon class="cls-10" points="-686.6 311.48 801.73 358.38 789.33 676.95 -686.6 676.95 -686.6 311.48"/>
              <g class="cls-11">
                <path class="cls-12" d="M-744.76,733.29H852.46c-7.78-17.93-15.62-37.86-18.61-51.56-7.1-32.53-10.46-67.55-13.82-100.57a267,267,0,0,1-1.26-30.85c.32-21.31,3.11-42.68.91-63.92-2.93-28.36-4.95-56.81-6.34-85.29-.59-12-1-24-1.41-36-411.73-4.91-713.64-7.59-734.27-4.77-10,2.61-20.2,5.21-30.49,7.72A1126.14,1126.14,0,0,1-85.48,392.33c-98.54,12.06-207.72,12.19-303,27.4,57.74,3.1,116.8,1.59,174.7-.24,40.44-1.29,80.91-2.17,121.32-3.42,31.38-1,62.8-2.08,94.31-2.18,23.28-.08,56.13-.62,76.12,4.32,16,4,10.34,10.18-.26,14.76-17.19,7.37-42.52,12.68-66.52,17.17-31.93,6-65.8,10.93-100.45,14.8-32.86,3.67-67.11,6.69-101.75,7.53-22.9.54-50.64.56-69.8-4.39-1.06-.3-1.29-.71-.37-1.06,21.34-8.57,62.36-8.57,80.6-18-45-6.17-98.71-2.81-145.39-1.28-58.66,1.92-117.73,4.46-176.68,5.07-84.39.91-167.78-4.17-251.53-7.36C-750.73,541.39-747.07,637.33-744.76,733.29Z"/>
              </g>
              <path class="cls-13" d="M-635.81,425c-16.45,2.81-33.49,4.85-50.17,6.94-22.73,2.82-45.57,5-68.48,6.59,2.86,79,5.85,157.91,8.15,236.88L835.05,686.6c-.45-1.69-.86-3.33-1.2-4.87-7.1-32.53-10.46-67.55-13.82-100.57a267,267,0,0,1-1.26-30.85c.32-21.31,3.11-42.68.91-63.92-2.93-28.36-4.95-56.81-6.34-85.29-.92-18.82-1.54-37.64-2-56.47-221.44-1.59-432.74-3.07-621.27-4.31L158,340.1c-443-2.9-752.6-4.43-758.07-2.85-18.83,5.44-39.55,11-55.56,19.86-3.67,2-9.7,5.31-9.16,9,.95,6.47,13.43,11.28,20.49,14.47,14.92,6.73,41.69,16.51,34.48,31.47C-613.54,419.69-625,423.1-635.81,425Z"/>
              <path class="cls-14" d="M-157,333.19s-399.88,48.14-281.88,71.36S-106,434.86-.07,440.49s384.39-5.81,369.26-7.73S248.24,415,168,421.4s-367,2.72-424.86-16.85-22.25-37.76,73.41-37.83,416,10.53,384.48,9.82-74-13.85-201.08-21S-157,333.19-157,333.19Z"/>
              <g>
                <path class="cls-15" d="M-236.63,336.18s75.65-46.51,86.86-50.74,38.29-17.76,47.63-23.68,19.61-11,39.23-16.91,43-17.76,51.36-21.14S6.2,211,11.8,206.79s15.88-7.61,26.15-11,29-16.91,32.69-22.83,10.28-14.38,18.68-16.92,31.76-22,41.1-23.68,22.41,4.23,30.82,12.69,35.49,37.21,54.16,50.74S366.7,336.18,406.86,343c0,0,14.95.84,22.42,3.38H-259Z"/>
                <path class="cls-16" d="M144.5,135.43s-9.61,6.52-6.4,13,4,8.69,4,8.69,3.2,10.15-3.2,5.8-12.81-8-12.81-8a8.53,8.53,0,0,0-.8,11.6c4.8,6.52,6.4,9.42,9.6,13.05s8,9.42,12.81,12.32,7.21.72,7.21,5.07,10.41,9.43-2.4,9.43,4.8,3.62,6.4,7.24,0,7.25,2.4,7.25,9.61-.72,9.61-.72,2.4,1.45.8,5.07-1.6,8,6.4,10.88,6.41,10.14,18.42,10.87,15.21-1.45,22.41-2.9,16-3.62,18.42-6.52,8.8-7.25,7.2-9.43,0-8-4-10.15-7.21-7.25-7.21-7.25S182.13,172.4,159.71,147C159.71,147,146.1,131.08,144.5,135.43Z"/>
                <path class="cls-17" d="M146.76,142.31c6.38-1.76,36.42,40.59,53.93,51.37s44.6,37.21,44.6,37.21,24,37,10.74,31.29-60.24-21.56-68.64-33.61S158,173.39,154.46,167.05,140,144.18,146.76,142.31Z"/>
                <path class="cls-18" d="M59.9,337.66S97,310.39,123.64,297.07s45.53-24.1,53.24-35.52,50.43-36.79,56-39.32,32.22-20.93,42.72-18.4,8,10.62,18.92,20.93c9.67,9.16,46.93,36.79,55.33,43.77s42,27.9,64.45,38.05,38,23.07,56.34,28.24c21.8,6.15,38,13.08,58.84,13.08,0,0-25.91,1.4-58.89.08C300.91,341.18,58.76,338.69,59.9,337.66Z"/>
                <path class="cls-16" d="M275.41,206c-3.69-2.48-11.91-.43-17.51,5.07s-7,19.45-12.61,19.87-11.67,4.66-8.87,7.19,14.47,10.57,18.68,10.15,8.4.42,6.53,4.23.94,1.69,12.61,10.57,18.22,10.57,18.92,15,4.9,11.42,16.81,18.39,21.71,19,25.21,21.57,68.42,20.72,96.43,24.1,55.18,5.07,90.67,6.77c0,0-77.59-16.92-113.08-42.29s-24.28-16.91-45.76-27.06-82.37-62.21-84.84-65.26C277.16,212.49,277.36,207.26,275.41,206Z"/>
                <path class="cls-19" d="M-156.54,287.55s58.14-27.9,67.94-30.44,11.21,0,14.71,7.61,4.91,12,9.11,15.22,31.52,10.15,40.63,10.15,24.51-8.24,36.42-9.51S37.49,273,39.59,269.16,57.8,260.28,61.3,259s7-5.07,9.11-2.53a43.3,43.3,0,0,1,7,14.58c1.4,5.71,4.21,9.52,20.32,12.69s23.81,10.78,40.62,4.44,17.13-22,26.74-19.9c8.46,1.81,9,21.17,22.3,23.07s16.81-3.81,25.91,1.27,41.33,12.05,50.44,15.85,42,8.88,53.93,14,25.22,7.61,53.24,16.49,51.13,4.44,55.33,4.44H-199.27Z"/>
                <path class="cls-18" d="M163.57,279.1c2.7.79,11.21,21.56,29,21.56s31.29,6.34,40.63,11,81.25,14.79,90.59,18.18,55.57,10.15,59.78,12.68H175.24s-20.08-7.61-16.81-46.09C158.43,296.43,156.41,277,163.57,279.1Z"/>
                <path class="cls-20" d="M67.22,259.22c-3.1.74-2.49,2.26-8.41,5.64s-11.2,2.54-14.32,9.59-12.76,10.43-13.38,13,2.17,7-3.74,8.46-11.21,6.2-13.08,8.74S-.34,315.88-6.88,315s-16.18,5.64-16.18,5.64a132.65,132.65,0,0,0-11.52,9.58c-7.47,6.77-15.57,11-16.81,11.28a15.1,15.1,0,0,0-3.74,2.25s44.21-.84,57-.84,33.62.56,34.56-9.59,15.25-13,11.21-23.4-4-13.81.31-18.6,12.14-13.25,12.14-14.09,3.42-9,5-11S73.13,257.81,67.22,259.22Z"/>
                <path class="cls-17" d="M267.71,213.14s-12.15,7.18-11.68,11.41-6.54,14.8-4.67,16.49,20.08,6.77,23.82,11,31.28,25.37,34.55,29.59,11.68,12.27,18.68,19.88,17.28,17.76,31.76,19,43.43,11.41,50.9,13.53,23.81,4.22,36.42,5.49S469.44,343,471.77,343s19.15.42,19.15.42S451.69,333.22,433,326a288.16,288.16,0,0,1-39.69-18.6c-11.67-6.35-22.41-3.39-32.22-10.57s-14-11-19.15-19.45-7.93-11-18.21-16.49-19.61-7.19-25.68-14-21.48-16.07-22.88-22.83S273.78,210.6,267.71,213.14Z"/>
              </g>
            </g>
          </g>
        </g>
        <path class="cls-21" d="M348.66,0H68.36A68.25,68.25,0,0,0,.19,68.19v280.3a74.83,74.83,0,0,0,74.75,74.74H348.66a74.83,74.83,0,0,0,74.74-74.74V74.77A74.83,74.83,0,0,0,348.66,0Zm62.67,348.47a62.66,62.66,0,0,1-62.67,62.66H74.94a62.66,62.66,0,0,1-62.67-62.66V72.71A60.61,60.61,0,0,1,72.88,12.1H348.66a62.67,62.67,0,0,1,62.67,62.67Z"/>
      </g>
    </g>
  </g>
</svg>
