<svg id="Layer_1" data-name="Layer 1" xmlns="http://www.w3.org/2000/svg" width="614.39" height="388.9" viewBox="0 0 614.39 388.9">
  <defs>
    <style>
      .cls-1 {
        opacity: 0.5;
      }

      .cls-2 {
        fill: #f9ff00;
      }

      .cls-3 {
        fill: #4f2857;
      }

      .cls-10, .cls-3 {
        stroke: #431e4c;
        stroke-width: 0.5px;
      }

      .cls-10, .cls-17, .cls-3, .cls-4, .cls-9 {
        stroke-miterlimit: 10;
      }

      .cls-4, .cls-7 {
        fill: #ccc;
      }

      .cls-4 {
        stroke: #989898;
      }

      .cls-17, .cls-4 {
        stroke-width: 0.25px;
      }

      .cls-5 {
        fill: #805c39;
      }

      .cls-6 {
        fill: #e8e8e8;
      }

      .cls-8 {
        fill: #589400;
      }

      .cls-9 {
        fill: #ffd888;
        stroke: #d6a651;
      }

      .cls-10, .cls-17 {
        fill: #63326c;
      }

      .cls-11 {
        fill: #9eb4ca;
      }

      .cls-12 {
        fill: #7e96ad;
      }

      .cls-13 {
        fill: #bb85c4;
      }

      .cls-14 {
        fill: #fff;
      }

      .cls-15 {
        fill: #c28649;
      }

      .cls-16 {
        fill: #fff8b6;
      }

      .cls-17 {
        stroke: #4d2656;
      }

      .cls-18 {
        fill: #467500;
      }

      .cls-19 {
        fill: #f29a8d;
      }
    </style>
  </defs>
  <g>
    <path class="cls-1" d="M52.58,388.9a14.37,14.37,0,0,1-14.37-14.37v-7.95c-7-10.87-10.3-24.32-8.42-35.57a33.31,33.31,0,0,1,8.41-17.47V298.35c0-.24,0-.48,0-.72v-6c0-.24,0-.47,0-.71V265.17c0-.24,0-.48,0-.71v-6c0-.24,0-.48,0-.72V232c0-.24,0-.48,0-.72v-6c0-.23,0-.47,0-.71V198.82c0-.24,0-.48,0-.71v-6c0-.24,0-.48,0-.72V172.56H23.35A14.37,14.37,0,0,1,9,158.19v-7.55a14.38,14.38,0,0,1,8.15-12.95l77.48-37.24V77.09A14.37,14.37,0,0,1,109,62.72h64.13l56.36-27.08a14.24,14.24,0,0,1,6.22-1.42h46.17V23.35A14.37,14.37,0,0,1,296.23,9h27.94a14.37,14.37,0,0,1,14.37,14.37V34.22h54.19a14.49,14.49,0,0,1,6.42,1.51l54,27h64.88a14.38,14.38,0,0,1,14.37,14.37V102.3l71,35.49A14.36,14.36,0,0,1,611,153.94a15.72,15.72,0,0,1-.51,1.69v2.56a14.37,14.37,0,0,1-14.37,14.37h-14v14.63c.31.78.59,1.56.84,2.35,18.08,5,31.36,21.11,31.36,40.19a40.32,40.32,0,0,1-3.94,17.44,40.88,40.88,0,0,1,.83,28.55c-4.49,12.74-15.14,22.11-29.09,26.2v72.61a14.37,14.37,0,0,1-14.37,14.37Z"/>
    <path class="cls-2" d="M43.6,379.92a14.37,14.37,0,0,1-14.37-14.37V357.6c-7-10.87-10.31-24.32-8.42-35.57a33.31,33.31,0,0,1,8.41-17.47V289.37c0-.24,0-.48,0-.72v-6c0-.24,0-.47,0-.71V256.19c0-.24,0-.48,0-.71v-6c0-.24,0-.48,0-.72V223c0-.24,0-.48,0-.72v-6c0-.24,0-.47,0-.71V189.84c0-.24,0-.48,0-.71v-6c0-.24,0-.48,0-.72V163.58H14.37A14.37,14.37,0,0,1,0,149.21v-7.55a14.39,14.39,0,0,1,8.14-12.95L85.63,91.47V68.11A14.37,14.37,0,0,1,100,53.74h64.13l56.36-27.08a14.24,14.24,0,0,1,6.22-1.42h46.17V14.37A14.37,14.37,0,0,1,287.25,0h27.94a14.37,14.37,0,0,1,14.37,14.37V25.24h54.18a14.5,14.5,0,0,1,6.43,1.51l54,27h64.88a14.38,14.38,0,0,1,14.37,14.37V93.32l71,35.49A14.36,14.36,0,0,1,602.06,145a14.9,14.9,0,0,1-.51,1.68v2.57a14.37,14.37,0,0,1-14.37,14.37h-14v14.63c.31.78.59,1.56.84,2.35,18.08,5,31.36,21.11,31.36,40.18a40.33,40.33,0,0,1-3.94,17.45,40.88,40.88,0,0,1,.83,28.55c-4.49,12.74-15.14,22.11-29.09,26.2v72.61a14.37,14.37,0,0,1-14.37,14.37Z"/>
    <g>
      <g>
        <rect class="cls-3" x="100" y="68.11" width="99.26" height="45.49"/>
        <rect class="cls-3" x="409.81" y="68.11" width="99.26" height="45.49"/>
        <g>
          <rect class="cls-4" x="289.62" y="18.99" width="23.21" height="55.03"/>
          <rect class="cls-5" x="287.25" y="14.37" width="27.95" height="11.52"/>
        </g>
        <g>
          <rect class="cls-6" x="43.6" y="321.37" width="515.24" height="10.99"/>
          <rect class="cls-6" x="43.6" y="342.59" width="515.24" height="10.99"/>
          <rect class="cls-7" x="43.6" y="331.74" width="515.24" height="10.99"/>
        </g>
        <path class="cls-8" d="M187.91,353.4c9.78-7.76,16.18-32.33-8.22-32.33s-18,24.57-8.23,32.33Z"/>
        <rect class="cls-9" x="43.6" y="141.49" width="515.24" height="179.88"/>
        <polygon class="cls-10" points="226.71 39.61 383.75 39.61 588.07 141.66 14.37 141.66 226.71 39.61"/>
        <g>
          <g>
            <path class="cls-5" d="M459,188H448.94a31.73,31.73,0,0,0-31.59,31.8v84.49H490.6V219.84A31.73,31.73,0,0,0,459,188Z"/>
            <path class="cls-11" d="M485.21,304.33H422.74V219.75A26.28,26.28,0,0,1,449,193.47h9.89a26.28,26.28,0,0,1,26.29,26.28Z"/>
            <path class="cls-12" d="M433.6,224.4a26.28,26.28,0,0,1,26.28-26.28h9.9a26.25,26.25,0,0,1,4.64.43,26.15,26.15,0,0,0-15.5-5.08H449a26.28,26.28,0,0,0-26.29,26.28v84.58H433.6Z"/>
            <rect class="cls-5" x="450.13" y="193.47" width="8.28" height="110.86"/>
            <rect class="cls-5" x="418.7" y="216.65" width="71.15" height="2.98"/>
          </g>
          <rect class="cls-5" x="417.35" y="298.15" width="73.25" height="6.18"/>
        </g>
        <g>
          <g>
            <path class="cls-5" d="M153.49,188H143.42a31.73,31.73,0,0,0-31.59,31.8v84.49h73.25V219.84A31.73,31.73,0,0,0,153.49,188Z"/>
            <path class="cls-11" d="M179.69,304.33H117.22V219.75a26.28,26.28,0,0,1,26.28-26.28h9.9a26.28,26.28,0,0,1,26.29,26.28Z"/>
            <path class="cls-12" d="M128.07,224.4a26.29,26.29,0,0,1,26.29-26.28h9.9a26.34,26.34,0,0,1,4.64.43,26.18,26.18,0,0,0-15.5-5.08h-9.9a26.28,26.28,0,0,0-26.28,26.28v84.58h10.85Z"/>
            <rect class="cls-5" x="144.61" y="193.47" width="8.28" height="110.86"/>
            <rect class="cls-5" x="113.18" y="216.65" width="71.15" height="2.98"/>
          </g>
          <rect class="cls-5" x="111.83" y="298.15" width="73.25" height="6.18"/>
        </g>
        <rect class="cls-8" x="43.6" y="353.07" width="515.24" height="12.48"/>
        <rect class="cls-13" x="14.37" y="141.66" width="231.2" height="7.54"/>
        <rect class="cls-13" x="355.98" y="141.66" width="231.2" height="7.54"/>
        <g>
          <path class="cls-14" d="M364.81,149.21H237.62s-8.17-67.45,63.59-67.45S364.81,149.21,364.81,149.21Z"/>
          <path class="cls-13" d="M237.62,149.21s.42-67.45,63.59-67.45,63.6,67.45,63.6,67.45H378.4s1.57-81-77.12-81-77.24,81-77.24,81Z"/>
        </g>
        <rect class="cls-14" x="237.62" y="149.14" width="21.92" height="203.93"/>
        <rect class="cls-14" x="342.87" y="149.14" width="21.92" height="203.93"/>
        <rect class="cls-14" x="373.24" y="149.14" width="21.92" height="203.93"/>
        <rect class="cls-14" x="208.23" y="149.14" width="21.92" height="203.93"/>
        <rect class="cls-5" x="269.39" y="187.96" width="63.66" height="133.42"/>
        <rect class="cls-15" x="280.22" y="197.86" width="42" height="113.28"/>
        <rect class="cls-16" x="43.58" y="156.67" width="43.64" height="25.71"/>
        <rect class="cls-16" x="43.58" y="189.84" width="43.64" height="25.71"/>
        <rect class="cls-16" x="43.58" y="223.02" width="43.64" height="25.71"/>
        <rect class="cls-16" x="43.58" y="256.19" width="43.64" height="25.71"/>
        <rect class="cls-16" x="43.58" y="289.37" width="43.64" height="25.71"/>
        <rect class="cls-16" x="515.19" y="156.67" width="43.64" height="25.71"/>
        <rect class="cls-16" x="515.19" y="189.84" width="43.64" height="25.71"/>
        <rect class="cls-16" x="515.19" y="223.02" width="43.64" height="25.71"/>
        <rect class="cls-16" x="515.19" y="256.19" width="43.64" height="25.71"/>
        <rect class="cls-16" x="515.19" y="289.37" width="43.64" height="25.71"/>
        <g>
          <g>
            <path class="cls-5" d="M306.26,95.34H296.18a31.74,31.74,0,0,0-31.59,31.8v12.12h73.26V127.14A31.74,31.74,0,0,0,306.26,95.34Z"/>
            <path class="cls-11" d="M332.46,139.26H270V127.05a26.28,26.28,0,0,1,26.28-26.28h9.9a26.29,26.29,0,0,1,26.29,26.28Z"/>
            <path class="cls-12" d="M280.84,131.71a26.29,26.29,0,0,1,26.29-26.29H317a27.11,27.11,0,0,1,4.63.43,26.12,26.12,0,0,0-15.49-5.08h-9.9A26.28,26.28,0,0,0,270,127.05v12.21h10.85Z"/>
            <rect class="cls-5" x="297.38" y="100.77" width="8.28" height="38.49"/>
          </g>
          <rect class="cls-5" x="264.59" y="133.08" width="73.25" height="6.18"/>
        </g>
        <path class="cls-8" d="M74.13,357.75C89.48,345.56,99.53,307,61.21,307S33,345.56,48.3,357.75Z"/>
        <path class="cls-8" d="M125.51,357.75c12.26-9.73,12.2-40.53-18.39-40.53S76.47,348,88.72,357.75Z"/>
        <g>
          <rect class="cls-5" x="529.5" y="244.61" width="6.08" height="83.6"/>
          <rect class="cls-5" x="513.68" y="233.2" width="6.08" height="67.64" transform="translate(-64.77 279.98) rotate(-28.61)"/>
          <polygon class="cls-17" points="551.94 314.31 513.2 314.31 520.82 353.07 544.32 353.07 551.94 314.31"/>
          <rect class="cls-13" x="513.2" y="314.31" width="38.75" height="7.86"/>
          <ellipse class="cls-8" cx="550.27" cy="248.39" rx="31.29" ry="40.8" transform="translate(133.04 684.76) rotate(-70.58)"/>
          <ellipse class="cls-8" cx="507.71" cy="225.93" rx="42.61" ry="33.89" transform="translate(-47.5 249.56) rotate(-26.43)"/>
          <ellipse class="cls-8" cx="534.76" cy="190.03" rx="26.39" ry="21.1"/>
          <ellipse class="cls-8" cx="562.25" cy="220.74" rx="28.79" ry="27.41"/>
        </g>
      </g>
      <g>
        <path class="cls-18" d="M550,189.72s.55,5.87-2.72,9.16-9.15,2.76-9.15,2.76-.56-5.87,2.72-9.16S550,189.72,550,189.72Z"/>
        <circle class="cls-19" cx="534.03" cy="209.7" r="10"/>
      </g>
      <g>
        <path class="cls-18" d="M517.39,214.63s.55,5.87-2.72,9.16-9.15,2.76-9.15,2.76-.56-5.87,2.72-9.16S517.39,214.63,517.39,214.63Z"/>
        <circle class="cls-19" cx="501.45" cy="234.61" r="10"/>
      </g>
      <g>
        <path class="cls-18" d="M564.89,225.9s.56,5.87-2.72,9.16-9.15,2.75-9.15,2.75-.55-5.87,2.72-9.16S564.89,225.9,564.89,225.9Z"/>
        <circle class="cls-19" cx="548.96" cy="245.87" r="10"/>
      </g>
    </g>
  </g>
</svg>
