<svg id="Layer_1" data-name="Layer 1" xmlns="http://www.w3.org/2000/svg" width="367.44" height="345.6" viewBox="0 0 367.44 345.6">
  <defs>
    <style>
      .cls-1 {
        opacity: 0.5;
      }

      .cls-2 {
        fill: #ff5600;
      }

      .cls-3 {
        fill: #fb4600;
      }

      .cls-4 {
        fill: #c31b00;
      }

      .cls-5 {
        fill: #c41b00;
      }

      .cls-6 {
        fill: #601900;
      }

      .cls-7 {
        fill: #832400;
      }

      .cls-8 {
        fill: #ffb800;
      }

      .cls-9 {
        fill: #ffe100;
      }

      .cls-10 {
        fill: #ffca00;
      }

      .cls-11 {
        fill: #bda000;
      }

      .cls-12 {
        fill: #ff0;
      }
    </style>
  </defs>
  <g>
    <path class="cls-1" d="M364,49.94C323.08,14.47,267,7,227.17,7A351.6,351.6,0,0,0,166,12.44l-.21,0-1.5-3.71A14,14,0,0,0,152.3,0c-.31,0-.62,0-.94,0a13.95,13.95,0,0,0-13.31,18.1l1.23,4c-15.38,7-20.38,10.51-22.53,12.37-4.46,2.62-20.68,12.78-38.82,31.83-24.57,24.23-56,64.2-66.7,117.5a20.81,20.81,0,0,0-1.17,7.88,10,10,0,0,0,10,9.43,9.15,9.15,0,0,0,1.38-.1,149.13,149.13,0,0,1,17.42-1.21c6.82,0,9.61.76,10.43,1.06a10.06,10.06,0,0,0,11.39,1.62c27.69-14,50.22-16.13,61.19-16.13a59.26,59.26,0,0,1,7.92.43h0a9.3,9.3,0,0,0,1.66.14,10,10,0,0,0,4.92-1.28,264.24,264.24,0,0,1,53.36-21.21L235.4,292.46a10.15,10.15,0,0,0,.59,3.22l5.56,15.62a3.51,3.51,0,0,1-1.51,4.29l-.31.13a3.32,3.32,0,0,1-1.11.19,3.18,3.18,0,0,1-2.53-1.28L235,313.2a14.81,14.81,0,0,0-9.81-5.81,15.27,15.27,0,0,0-2-.14c-.43,0-.87,0-1.15.05A14.82,14.82,0,0,0,211.28,331l1.08,1.45A32.57,32.57,0,0,0,238.6,345.6a32.92,32.92,0,0,0,11-1.9l.08,0a32.17,32.17,0,0,0,3.07-1.27,32.73,32.73,0,0,0,15.55-15.93,33.32,33.32,0,0,0,1.16-25.22l-5.54-15.54a9.78,9.78,0,0,0-1.14-2.26L218.41,158.91c1-.11,2-.2,3-.29a10.22,10.22,0,0,0,7.2-4c.17-.23,17.61-22.44,68.2-35.6a10,10,0,0,0,5.4-3.56c8.77-11.28,36.29-42,58.05-48.33A10,10,0,0,0,364,49.94Zm-69.72,59.39c-55.47,14.42-73.71,39.3-73.71,39.3-5.29.44-10.54,1.16-15.71,2.09L254.2,289.18l.29-.1L260,304.62a23.3,23.3,0,0,1-.83,17.67,22.53,22.53,0,0,1-10.75,11,20.66,20.66,0,0,1-2.12.89h0a22.76,22.76,0,0,1-25.94-7.81L219.3,325a4.8,4.8,0,0,1,3.47-7.68,4.61,4.61,0,0,1,1,0,4.78,4.78,0,0,1,3.17,1.88l1.08,1.44a13.19,13.19,0,0,0,15,4.52l.11,0a12,12,0,0,0,1.63-.74A13.49,13.49,0,0,0,251,307.93l-5.57-15.62.5-.18L196.15,152.48c-35.56,8-64.67,24.38-64.67,24.38s-31.9-5.37-75.32,16.64c-5.79-6.67-36.08-2.45-36.08-2.45a11.94,11.94,0,0,1,.85-4.64c10-50.52,39.46-88.79,64.16-113.11,20.1-21.13,37.66-30.73,37.66-30.73,3.79-3.77,18.79-10.63,28.76-14.95l-3.88-12.5a3.9,3.9,0,0,1,2.43-4.86,4,4,0,0,1,1.55-.22,3.92,3.92,0,0,1,3.4,2.45l4.7,11.65,1-.4s2.57-.7,7-1.41c27.26-5,127.59-18.65,189.68,35.19C327.69,66.22,294.26,109.33,294.26,109.33Z"/>
    <g>
      <g>
        <path class="cls-2" d="M121.45,176.86s43.48-24.44,89.07-28.23L190.75,73.56l-89.62,37.83Z"/>
        <path class="cls-3" d="M210.52,148.63s18.24-24.88,73.71-39.3c0,0-25.44-52-37.88-56.47s-54.87,25.68-54.87,25.68Z"/>
        <path class="cls-4" d="M284.23,109.33s33.43-43.11,63.15-51.81c0,0-61.06-23.13-106-17.35C241.36,40.17,269.25,97.25,284.23,109.33Z"/>
        <path class="cls-3" d="M121.45,176.86s-31.9-5.37-75.32,16.64c0,0-4.07-32.44,10.42-60.78s48.93-23.91,48.93-23.91Z"/>
        <path class="cls-5" d="M10.05,191.05s30.29-4.22,36.08,2.45c0,0-2.28-29.93,13.12-57C59.25,136.49,9.09,175,10.05,191.05Z"/>
      </g>
      <g>
        <path class="cls-6" d="M141.58,10a3.91,3.91,0,0,0-1.65,4.47l5,16.18-2.27.81,0-.09-5.07-16.29A3.92,3.92,0,0,1,140,10.26,4,4,0,0,1,141.58,10Z"/>
        <path class="cls-7" d="M151.39,28.4,145,30.69l-5-16.18A3.91,3.91,0,0,1,141.58,10,3.91,3.91,0,0,1,145,12.49Z"/>
      </g>
      <g>
        <rect class="cls-7" x="191.66" y="19.24" width="8.77" height="296.03" transform="translate(-44.78 75.54) rotate(-19.62)"/>
        <rect class="cls-6" x="191.8" y="20.09" width="3.75" height="296.03" transform="translate(-45.2 74.8) rotate(-19.62)"/>
      </g>
      <g>
        <path class="cls-8" d="M94.71,146s37.94-45,90.72-43.29l-34.76-79S118.53,36.8,112.72,42.57,84.71,115.93,94.71,146Z"/>
        <path class="cls-9" d="M347.38,57.52S306.13,46,267.87,68.29L150.67,23.74S275-5.24,347.38,57.52Z"/>
        <path class="cls-10" d="M150.67,23.74s73.91-20,117.2,44.55c0,0-40-3.39-82.44,34.45Z"/>
        <path class="cls-9" d="M10.05,191.05s3.42-6.76,10.41-9.13l24.85-56.4,67.41-82.95S26.32,95.71,10.05,191.05Z"/>
        <path class="cls-10" d="M20.46,181.92S38.12,145.76,94.71,146c0,0-3.17-56.9,18-103.46C112.72,42.57,38.19,83.18,20.46,181.92Z"/>
      </g>
      <g>
        <path class="cls-11" d="M238.08,291.36l5.53,15.52a13.44,13.44,0,0,1-7.8,17.19l-.1,0c-.3.11-.6.2-.9.28A13.51,13.51,0,0,0,241,307.93l-5.57-15.62Z"/>
        <path class="cls-9" d="M244.46,289.08,250,304.62a23.35,23.35,0,0,1-.83,17.67,22.51,22.51,0,0,1-10.76,11,19.6,19.6,0,0,1-2.11.89h0a22.76,22.76,0,0,1-25.94-7.81L209.27,325a4.8,4.8,0,0,1,3.47-7.68,4.61,4.61,0,0,1,1,0,4.78,4.78,0,0,1,3.17,1.88l1.08,1.44a13.19,13.19,0,0,0,15,4.52l.1,0a11.56,11.56,0,0,0,1.64-.74c.3-.08.6-.17.9-.28l.1,0a13.44,13.44,0,0,0,7.8-17.19l-5.53-15.52Z"/>
      </g>
    </g>
    <path class="cls-12" d="M354,49.94C313.05,14.47,257,7,217.14,7A351.6,351.6,0,0,0,156,12.44l-.21,0-1.5-3.71a14,14,0,0,0-12-8.74c-.31,0-.63,0-.94,0A14,14,0,0,0,128,18.1l1.24,4c-15.38,7-20.39,10.51-22.53,12.37C102.26,37.06,86,47.22,67.9,66.27c-24.57,24.23-56,64.2-66.7,117.5A20.61,20.61,0,0,0,0,191.65a10,10,0,0,0,10,9.43,9.15,9.15,0,0,0,1.38-.1,148.91,148.91,0,0,1,17.42-1.21c6.82,0,9.6.76,10.43,1.06a10.06,10.06,0,0,0,11.39,1.62c27.68-14,50.22-16.13,61.19-16.13a59.45,59.45,0,0,1,7.92.43h0a9.3,9.3,0,0,0,1.66.14,10,10,0,0,0,4.91-1.28,264.79,264.79,0,0,1,53.37-21.21l45.65,128.06a9.87,9.87,0,0,0,.58,3.22l5.57,15.62a3.51,3.51,0,0,1-1.52,4.29,2.71,2.71,0,0,1-.3.13,3.38,3.38,0,0,1-1.12.19,3.17,3.17,0,0,1-2.52-1.28L225,313.2a14.8,14.8,0,0,0-9.82-5.81,15,15,0,0,0-2-.14c-.43,0-.87,0-1.15.05A14.83,14.83,0,0,0,201.24,331l1.09,1.45a32.56,32.56,0,0,0,26.24,13.15,33,33,0,0,0,11-1.9l.08,0a30.93,30.93,0,0,0,3.06-1.27,32.64,32.64,0,0,0,15.55-15.93,33.28,33.28,0,0,0,1.17-25.22l-5.54-15.54a10.19,10.19,0,0,0-1.14-2.26l-44.4-124.54c1-.11,2-.2,3-.29a10.22,10.22,0,0,0,7.2-4c.17-.23,17.6-22.44,68.2-35.6a10.07,10.07,0,0,0,5.4-3.56c8.77-11.28,36.28-42,58-48.33A10,10,0,0,0,354,49.94Zm-69.72,59.39c-55.47,14.42-73.71,39.3-73.71,39.3-5.29.44-10.55,1.16-15.71,2.09l49.35,138.46.3-.1L250,304.62a23.35,23.35,0,0,1-.83,17.67,22.51,22.51,0,0,1-10.76,11,19.6,19.6,0,0,1-2.11.89h0a22.76,22.76,0,0,1-25.94-7.81L209.27,325a4.8,4.8,0,0,1,3.47-7.68,4.61,4.61,0,0,1,1,0,4.78,4.78,0,0,1,3.17,1.88l1.08,1.44a13.19,13.19,0,0,0,15,4.52l.1,0a11.56,11.56,0,0,0,1.64-.74A13.51,13.51,0,0,0,241,307.93l-5.57-15.62.5-.18L186.12,152.48c-35.56,8-64.67,24.38-64.67,24.38s-31.9-5.37-75.32,16.64c-5.79-6.67-36.08-2.45-36.08-2.45a11.58,11.58,0,0,1,.85-4.64c10-50.52,39.46-88.79,64.16-113.11,20.09-21.13,37.66-30.73,37.66-30.73,3.79-3.77,18.79-10.63,28.76-14.95l-3.89-12.5A3.92,3.92,0,0,1,140,10.26a4,4,0,0,1,1.56-.22A3.91,3.91,0,0,1,145,12.49l4.71,11.65,1-.4s2.57-.7,7-1.41c27.25-5,127.59-18.65,189.68,35.19C317.66,66.22,284.23,109.33,284.23,109.33Z"/>
  </g>
</svg>
