<svg id="Layer_1" data-name="Layer 1" xmlns="http://www.w3.org/2000/svg" width="535.33" height="248.96" viewBox="0 0 535.33 248.96">
  <defs>
    <style>
      .cls-1, .cls-27 {
        opacity: 0.5;
      }

      .cls-2 {
        fill: #ff0;
      }

      .cls-3 {
        fill: #302c29;
      }

      .cls-4 {
        fill: #ff6252;
      }

      .cls-5 {
        fill: #ab2727;
      }

      .cls-6 {
        fill: #f3422f;
      }

      .cls-7 {
        fill: #8acbd9;
      }

      .cls-8 {
        fill: #454a50;
      }

      .cls-9 {
        fill: #373f43;
      }

      .cls-10 {
        fill: #c02e23;
      }

      .cls-11 {
        fill: #dc3428;
      }

      .cls-12 {
        fill: #565d64;
      }

      .cls-13 {
        fill: #1b2226;
      }

      .cls-14 {
        fill: #453e3b;
      }

      .cls-15 {
        fill: #292523;
      }

      .cls-16 {
        fill: #6c5e55;
      }

      .cls-17 {
        fill: #172026;
      }

      .cls-18 {
        fill: #a4c8cf;
      }

      .cls-19 {
        fill: #728b90;
      }

      .cls-20, .cls-22, .cls-25, .cls-26, .cls-27 {
        fill: #fff;
      }

      .cls-20 {
        opacity: 0.2;
      }

      .cls-21 {
        fill: #c72929;
      }

      .cls-22 {
        opacity: 0.7;
      }

      .cls-23 {
        fill: #2b3236;
      }

      .cls-24 {
        opacity: 0.3;
      }

      .cls-26, .cls-33 {
        opacity: 0.9;
      }

      .cls-28 {
        fill: #f1a03e;
      }

      .cls-29 {
        fill: #d4dee6;
      }

      .cls-30 {
        fill: #51575d;
      }

      .cls-31 {
        fill: #8b98a1;
      }

      .cls-32 {
        fill: #b62219;
      }

      .cls-33 {
        fill: #8c8c8c;
      }
    </style>
  </defs>
  <g>
    <path class="cls-1" d="M351.56,249c-11.36,0-22.28-5.76-29.93-15.81l-.36-.47a31.71,31.71,0,0,1-3.44-5.17H218.91c-5.75,12-15,19.68-25.46,20.86a24.65,24.65,0,0,1-2.8.16H159.81a33,33,0,0,1-3.45-.19l-.21,0c-.58-.06-1.09-.13-1.6-.21l-.26,0c-.61-.1-1.12-.2-1.63-.3l-.14,0a34,34,0,0,1-4.61-1.34l-.46-.17c-.48-.18-.87-.35-1.27-.52l-.6-.26-1.13-.52-.58-.3a35.88,35.88,0,0,1-3.69-2.17l-.51-.33-1-.75-.51-.38c-.34-.25-.68-.53-1-.8l-.29-.25a44.15,44.15,0,0,1-4.62-4.45l-.46-.52c-.71-.83-1.3-1.55-1.84-2.26-.18-.22-.38-.51-.59-.8h0c-7,9.79-16.85,15.93-27.78,16.92a5.37,5.37,0,0,1-.7,0l-23,.1H74C62.6,249,51.69,243.19,44,233.14l-.42-.55a32.35,32.35,0,0,1-3.56-5.34,36.71,36.71,0,0,1-17.51-7.11L22.4,220c-.71-.52-1.42-1.09-2.16-1.73l-.57-.52-.08-.07c-.51-.46-1-1-1.55-1.47-.21-.2-.41-.42-.61-.64l-.15-.16c-.45-.47-.9-.95-1.34-1.46l-.59-.71-.15-.19q-.37-.42-.72-.87l-.7-1a46.17,46.17,0,0,1-8.47-22.48,48.68,48.68,0,0,1,.48-13.14,67.69,67.69,0,0,1,4-14.35c.31-.77.67-1.54,1.09-2.38a29.5,29.5,0,0,1,3.69-5.76,122.53,122.53,0,0,1,3.93-14.58,26.88,26.88,0,0,1,2.61-16.76,46.12,46.12,0,0,1,9.19-12.5c.37-.37.74-.73,1.12-1.08l.54-.5.62-.56.55-.47,1.14-1c.35-.28.69-.56,1-.82l.07-.06c.39-.3.78-.58,1.16-.86l.22-.16.89-.62.42-.28c.2-.14.45-.29.7-.45l.45-.28,1-.6a21.73,21.73,0,0,1,4-1.78c.38-.12.71-.2,1-.28l1.07-.83,1.27-.93.48-.34c.39-.28.79-.57,1.18-.83l1.33-.89.59-.38,1-.67c.46-.29.93-.56,1.39-.83l.57-.34,1-.6c.49-.28,1-.53,1.45-.79l.59-.32,1-.52c.5-.26,1-.5,1.5-.74l.57-.29,1-.47c.46-.22,1-.43,1.43-.65l.67-.29.92-.41,1.48-.61,1.55-.63,1.47-.55.61-.23.93-.35,1.41-.49s1.32-.46,1.59-.54l1.44-.46,1.49-.48,1.59-.47,1.32-.39,2-.55.86-.23,2.09-.55.73-.19,2.41-.6.37-.09,2.61-.62,3.19-.74c3.17-.74,6.2-1.43,8.94-2.16,2-1.67,3.85-3.2,5.68-4.65,70.28-56,160.4-67.78,223.62-67.78a522,522,0,0,1,84.42,6.86l1.27.21a12.87,12.87,0,0,1,2,.49A286.06,286.06,0,0,1,455,21.12c1.27.38,2.25.67,2.91.85,7.52,2,11,6.25,12.59,9.48,2,4.06,2.26,9,.8,14.18,4,3.32,7.85,6.73,11.51,10.19,15.79,14.91,28.21,31,37,47.92a14.73,14.73,0,0,1,3.22,1.62c6.86,4.26,10.65,13.87,11.55,29.34a58.22,58.22,0,0,1-.62,12.11A126.12,126.12,0,0,1,535.3,168c0,.29,0,.59,0,.89l0,.87c0,.4,0,.81,0,1.21-.06,1.41-.16,2.91-.3,4.59l-.09,1.2-.07.6c-.07.75-.14,1.49-.23,2.22l-.06.52c-2.36,19.68-8.92,34.06-14.28,40.95a23.1,23.1,0,0,1-2.64,2.93l-.15.14-.78.67-.21.17c-.37.28-.73.54-1.08.76-.19.12-.37.23-.56.33s-.47.26-.69.37-.41.19-.58.26-.46.19-.69.27l-.1,0-.48.14a4,4,0,0,1-.44.11,9.34,9.34,0,0,1-2.19.26H497.37c-6.92,12.07-17.94,19.75-30.28,20.87a7.76,7.76,0,0,1-1.52.15H443.29l-.5,0h-2.63l-.63,0-.68,0h-.3a7.87,7.87,0,0,1-.84,0c-10.83-.58-20.79-6.15-28.11-15.76-.58-.76-1.15-1.54-1.68-2.34-7,10.67-17.33,17.4-28.83,18.45a5.37,5.37,0,0,1-.7,0l-23.08.1Z"/>
    <path class="cls-2" d="M346.49,243.89c-11.37,0-22.28-5.77-29.93-15.81l-.36-.47a31.08,31.08,0,0,1-3.44-5.17H213.83c-5.75,12-15,19.68-25.45,20.85a24.72,24.72,0,0,1-2.8.17H154.74a32.87,32.87,0,0,1-3.45-.19l-.21,0c-.58-.06-1.09-.13-1.6-.21l-.26,0c-.61-.1-1.12-.2-1.63-.31l-.14,0a35.61,35.61,0,0,1-4.62-1.34l-.45-.17c-.48-.19-.88-.35-1.27-.52l-.6-.26c-.38-.17-.76-.34-1.13-.53l-.58-.29a39.15,39.15,0,0,1-3.7-2.17l-.5-.34c-.34-.23-.69-.48-1-.74l-.51-.38-1-.81-.29-.24a43.25,43.25,0,0,1-4.62-4.46l-.46-.51c-.72-.83-1.3-1.55-1.84-2.26-.18-.22-.39-.51-.59-.8h0c-7,9.79-16.85,15.92-27.78,16.92-.23,0-.47,0-.7,0l-23,.1H68.91c-11.38,0-22.29-5.77-29.94-15.82l-.42-.55A32.79,32.79,0,0,1,35,222.18a36.71,36.71,0,0,1-17.51-7.11l-.15-.11c-.71-.53-1.42-1.1-2.16-1.74l-.57-.51-.08-.07c-.51-.46-1-.95-1.56-1.47l-.61-.64-.15-.16c-.44-.47-.89-1-1.33-1.46l-.59-.71-.15-.19c-.25-.28-.49-.57-.72-.88l-.7-.94A46.2,46.2,0,0,1,.24,183.71a48.68,48.68,0,0,1,.48-13.14,67.37,67.37,0,0,1,4-14.36c.31-.76.67-1.54,1.09-2.37a29.47,29.47,0,0,1,3.68-5.76,122.52,122.52,0,0,1,3.94-14.58,26.87,26.87,0,0,1,2.61-16.76,46.26,46.26,0,0,1,9.18-12.51l1.12-1.07.55-.5.62-.56.55-.48,1.14-1c.34-.28.69-.56,1-.82l.06-.06,1.17-.86.22-.16.89-.62.41-.28.71-.45.45-.29,1-.59a22,22,0,0,1,3.94-1.78c.39-.12.72-.21,1-.28l1.07-.83,1.27-.93.48-.34c.39-.29.78-.57,1.18-.84l1.33-.88.59-.38c.34-.23.69-.45,1-.67s.93-.56,1.39-.84l.57-.33,1-.6c.49-.28,1-.53,1.44-.79l.6-.32,1-.52,1.5-.75.57-.28,1-.47c.46-.22.94-.43,1.43-.65l.67-.3.92-.4,1.47-.61,1.56-.63,1.46-.56.61-.22.94-.35,1.41-.49S68,80,68.25,80l1.43-.46,1.5-.48,1.59-.47,1.32-.39,2-.55.85-.23,2.1-.55.73-.19,2.41-.6.37-.09,2.61-.62,3.19-.74c3.17-.74,6.2-1.44,8.94-2.16,2-1.67,3.84-3.2,5.68-4.65C173.23,11.76,263.36,0,326.58,0A522.08,522.08,0,0,1,411,6.86l1.27.21a12.87,12.87,0,0,1,2,.49A288.46,288.46,0,0,1,449.91,16c1.27.38,2.25.68,2.91.85,7.51,2,11,6.25,12.58,9.49,2,4.06,2.27,9,.81,14.18,4,3.32,7.85,6.73,11.51,10.19,15.79,14.91,28.21,31,37,47.92a14.44,14.44,0,0,1,3.21,1.62c6.87,4.26,10.65,13.86,11.56,29.34a58.12,58.12,0,0,1-.62,12.1A126.3,126.3,0,0,1,530.23,163l0,.89,0,.87c0,.4,0,.81,0,1.21-.06,1.41-.15,2.91-.29,4.59,0,0-.07.93-.1,1.2l-.06.6c-.07.75-.14,1.49-.23,2.22l-.07.52c-2.36,19.67-8.92,34.06-14.27,40.95a23.89,23.89,0,0,1-2.64,2.93l-.15.13c-.25.23-.52.46-.79.68l-.21.17c-.36.28-.72.53-1.07.76l-.56.33c-.24.14-.47.26-.69.37l-.58.26c-.23.1-.47.19-.69.26l-.1,0-.48.14-.44.11a9.37,9.37,0,0,1-2.2.26H492.3c-6.92,12.07-17.94,19.74-30.28,20.87a7.76,7.76,0,0,1-1.52.15H438.22l-.5,0h-2.63l-.63,0-.68,0h-.3c-.28,0-.56,0-.84,0-10.83-.58-20.79-6.16-28.11-15.76-.59-.76-1.15-1.54-1.69-2.34-7,10.67-17.32,17.4-28.82,18.45-.23,0-.47,0-.7,0l-23.08.1Z"/>
    <g>
      <path class="cls-3" d="M45.43,213.32h77c-.2.49-.4,1-.61,1.45-5.22,11.73-14.87,19.88-26.08,20.9l-23,.1H68.91c-9.22,0-17.56-4.82-23.48-12.61-1.93-2.51-4-4.76-5-9.84Z"/>
      <path class="cls-3" d="M323,213.32H400c-.19.49-.39,1-.6,1.45-5.22,11.73-14.86,19.88-26.08,20.9l-23,.1h-3.75c-9.22,0-17.55-4.82-23.48-12.61-1.93-2.51-3.5-4.32-4.64-8.83Z"/>
      <path class="cls-4" d="M8.31,182.89a38.08,38.08,0,0,0,6.92,18.47l.59.8a32.57,32.57,0,0,0,6.51,6.4h0a28.5,28.5,0,0,0,17,5.76H430.19V115.4l-84-72.31s78.06-25.84,64.74-28c-13-2.1-186.17-34-303,59.07-2.31,1.81-4.58,3.7-6.83,5.64C96.94,81,92.15,82,87,83.22,73.15,86.5,56.85,90.91,43.2,102.45a66.16,66.16,0,0,0-11,11.79,74.89,74.89,0,0,0-7.15,12.08c-1.15,2.39-2.2,4.91-3.18,7.59h0a114.12,114.12,0,0,0-4.87,18,19.14,19.14,0,0,0-3.95,5.57c-.3.59-.59,1.21-.85,1.85A59.3,59.3,0,0,0,8.72,172,40.54,40.54,0,0,0,8.31,182.89Z"/>
      <path class="cls-5" d="M256.24,30.73l-.57-1.46c.44-.18,44.6-17.39,66.49-17.59l0,1.56C300.57,13.45,256.68,30.55,256.24,30.73Z"/>
      <path class="cls-6" d="M102.9,214.33H504.51a1.73,1.73,0,0,0,.6-.12A9.25,9.25,0,0,0,508.7,211c7-9,17.31-35.57,12-69.19-4.08-25.81-17.39-55.79-48.51-85.19q-7.22-6.81-15.7-13.56a19.45,19.45,0,0,0,1.08-2.23c1.77-4.22,4.08-13.26-6.78-16.12C437.7,21.31,310.82-24.91,192.08,79.79,166.79,87,119.85,88.89,108,151.91,97.16,161.83,95.12,200.51,102.9,214.33Z"/>
      <path class="cls-7" d="M179.52,79.65a4.56,4.56,0,0,0,3.07-1.18l2.86-2.55c2-1.8,2.7-2.41,3-2.63h0c15.74-13.74,36.08-26.74,60.47-38.64,5.13-2.51,10.42-5,15.76-7.31L208.58,27C167,34.84,113.53,73.22,105.3,79.26Z"/>
      <path class="cls-8" d="M186,76.55s-23.32-12.42-69.08-5.46c-.5.33-12.27,9-12.27,9l76.44-.79Z"/>
      <path class="cls-8" d="M149.67,76.65c1-5.38,7.54-9.54,15.51-9.54s14.53,4.16,15.49,9.54Z"/>
      <path class="cls-9" d="M208.74,27.8l52,.36c-4.15,1.86-8.25,3.79-12.26,5.75-24.45,11.93-44.85,25-60.64,38.76h0c-.4.33-1.17,1-3,2.63l-1.8,1.61-1.06.94a3.84,3.84,0,0,1-2.53,1l-57.77-.3-13.9-.07c12.76-9.2,61.9-43.22,100.89-50.65Zm-.15-1.68C167.06,34,113.83,71.93,104.29,79a.67.67,0,0,0-.22.69.65.65,0,0,0,.59.43l17.07.09,57.73.3h.06a5.4,5.4,0,0,0,3.62-1.39c.84-.75,1.89-1.69,2.87-2.55,1.54-1.39,2.9-2.61,3-2.62,17.66-15.43,39.29-28.28,60.27-38.53,6.58-3.21,13.08-6.17,19.39-8.85l-60-.43Z"/>
      <path class="cls-10" d="M124.83,192v22.35h100c1,0,2.52-1.15,4.18-3.3V192c0-31.07-23.35-56.36-52.07-56.36a49.65,49.65,0,0,0-33.7,13.44A58.22,58.22,0,0,0,124.83,192Z"/>
      <path class="cls-11" d="M131.26,192v22.35h91.28V192c0-27.5-20.47-49.89-45.64-49.89a43.11,43.11,0,0,0-29.35,11.73A51.76,51.76,0,0,0,131.26,192Z"/>
      <path class="cls-9" d="M224.08,80.85a5.4,5.4,0,0,1-5.21-4,5.84,5.84,0,0,1,2.4-6.14C275.55,28.62,324.86,19.35,381.14,23c52.64,3.35,69.71,40.18,74.14,53.3a3.56,3.56,0,0,1-.46,3.15A3.48,3.48,0,0,1,452,80.85Z"/>
      <path class="cls-12" d="M446.94,76.55a2.68,2.68,0,0,0,2.43-3.73,75.78,75.78,0,0,0-10-17c-13.61-17.34-33.27-26.94-58.45-28.55-7.35-.47-14.19-.7-20.9-.7-51.69,0-93.66,14.68-136.1,47.61-.5.38-1,1-.88,1.55a1.12,1.12,0,0,0,1.08.84Z"/>
      <path class="cls-13" d="M131.26,192v30.74c5.93,7.78,14.25,12.62,23.48,12.62a24.75,24.75,0,0,0,3.76-.28v.28h23v-.11c11.21-1,20.85-9.17,26.07-20.9h14.93V192c0-27.5-20.47-49.89-45.64-49.89a43.11,43.11,0,0,0-29.35,11.73A51.76,51.76,0,0,0,131.26,192Z"/>
      <path class="cls-14" d="M126.3,214.33a43,43,0,0,0,3.12,5.76c.43.69.91,1.36,1.4,2,.14.2.29.42.44.61a35.06,35.06,0,0,0,3.55,4,.68.68,0,0,0,.12.12,28.34,28.34,0,0,0,19.81,8.48,23.53,23.53,0,0,0,3.76-.28,27,27,0,0,0,8.46-2.71,35.34,35.34,0,0,0,14.58-14.71c.59-1.07,1.14-2.16,1.63-3.3a47.67,47.67,0,0,0,3.11-9.55,52.1,52.1,0,0,0,1.11-10.72,49,49,0,0,0-.68-8.29,47.17,47.17,0,0,0-5.17-15.27,36.79,36.79,0,0,0-11.47-12.86A27.29,27.29,0,0,0,167,155.8c-.87-.44-1.76-.84-2.66-1.19l-.71-.26a26.15,26.15,0,0,0-5.09-1.27,24.75,24.75,0,0,0-3.76-.28,26.13,26.13,0,0,0-7.19,1A51.74,51.74,0,0,0,131.26,192v19.19a3.17,3.17,0,0,1-.92,2.23,3.07,3.07,0,0,1-2.21.93Z"/>
      <polygon class="cls-14" points="154.74 152.8 154.74 235.33 185.57 235.33 186.28 204.78 186.71 185.77 187.42 154.65 187.48 152.91 154.74 152.8"/>
      <path class="cls-15" d="M183.64,157a40.12,40.12,0,0,0-4.9-.26c-2.23-.15-33.49-.66-47.21,29.89a51.3,51.3,0,0,1,16-32.83,26.13,26.13,0,0,1,7.19-1l32.74.11-.06,1.73Z"/>
      <path class="cls-16" d="M159.34,194.07a60,60,0,0,0,3.38,20.26A42.27,42.27,0,0,0,169,226a27.23,27.23,0,0,0,6.81,6.35,18.13,18.13,0,0,0,9.82,3,17.15,17.15,0,0,0,1.9-.11c9-1,16.76-9.17,21-20.9a59.76,59.76,0,0,0,3.39-20.26c0-21.78-10.74-39.62-24.34-41.15a17.15,17.15,0,0,0-1.9-.11,18,18,0,0,0-9.82,3,27.23,27.23,0,0,0-6.81,6.35C163.08,169.72,159.34,181.2,159.34,194.07Z"/>
      <path class="cls-10" d="M404.55,192v22.35h100c1,0,2.52-1.15,4.18-3.3V192c0-31.07-23.36-56.36-52.07-56.36a49.65,49.65,0,0,0-33.7,13.44A58.22,58.22,0,0,0,404.55,192Z"/>
      <path class="cls-17" d="M411,192v30.74c5.93,7.78,14.25,12.62,23.48,12.62a24.66,24.66,0,0,0,3.76-.28v.28H459.6l1.66-.11c11.21-1,20.86-9.17,26.07-20.9h14.93V192c0-27.5-20.47-49.89-45.64-49.89a43.13,43.13,0,0,0-29.35,11.73A51.76,51.76,0,0,0,411,192Z"/>
      <path class="cls-14" d="M406,214.33a41,41,0,0,0,5,8.39c5.93,7.78,14.25,12.62,23.48,12.62a24.43,24.43,0,0,0,3.75-.28,27,27,0,0,0,8.47-2.71,35.43,35.43,0,0,0,14.58-14.72,36.12,36.12,0,0,0,1.63-3.3,49.48,49.48,0,0,0,4.22-20.26,48.91,48.91,0,0,0-5.85-23.56,35.34,35.34,0,0,0-14.58-14.71,27,27,0,0,0-8.47-2.71,24.43,24.43,0,0,0-3.75-.28,26.23,26.23,0,0,0-7.19,1A51.76,51.76,0,0,0,411,192v19.28a3.06,3.06,0,0,1-3,3.07Z"/>
      <polygon class="cls-14" points="436.21 152.87 433.48 235.32 460.5 235.34 461.26 152.81 436.21 152.87"/>
      <path class="cls-16" d="M426.25,194.07a49.48,49.48,0,0,0,4.21,20.26A40.51,40.51,0,0,0,438.22,226a32.09,32.09,0,0,0,8.46,6.35,26.65,26.65,0,0,0,12.22,3c.79,0,1.59,0,2.36-.11,11.21-1,20.86-9.17,26.07-20.9a49.48,49.48,0,0,0,4.21-20.26c0-21.78-13.34-39.62-30.28-41.15-.77-.07-1.57-.11-2.36-.11a26.53,26.53,0,0,0-12.22,3,32.09,32.09,0,0,0-8.46,6.35C430.92,169.72,426.25,181.2,426.25,194.07Z"/>
      <path class="cls-6" d="M17,151.91h0l93.32.89s13.57-7.56,3.64-22c-52.2,32.38-90.4,15.3-92.09,3.07A114.12,114.12,0,0,0,17,151.91Z"/>
      <path class="cls-11" d="M67.42,152.79l2.22-.26A22,22,0,0,0,67.42,152.79Z"/>
      <path class="cls-6" d="M15.82,202.16a32.57,32.57,0,0,0,6.51,6.4h0a28.5,28.5,0,0,0,17,5.76h74.55l0,0,3.7-67.61-47.9,5.81c7.24-.5,29.4-1.57,28.46,32.3C97.25,219.78,21.78,207.54,15.82,202.16Z"/>
      <g>
        <path class="cls-18" d="M128.41,104.59a2.38,2.38,0,0,1,1.74,1.12,2.41,2.41,0,0,1,.21,2.08c-3.29,9-16.31,36.91-52.06,38.84a1.64,1.64,0,0,1-1.71-1.51C75,126.85,97.7,101,128.41,104.59Z"/>
        <path class="cls-19" d="M78.22,147.28a2.3,2.3,0,0,1-2.28-2.1c-.71-8.05,3.18-17.58,10.42-25.49a49.41,49.41,0,0,1,42.13-15.75A3,3,0,0,1,131,108c-3.19,8.73-16.41,37.32-52.63,39.28Zm44.4-42.38a48,48,0,0,0-35.3,15.67c-7,7.65-10.76,16.8-10.08,24.5a1,1,0,0,0,1,.91v.65l0-.66c35.43-1.91,48.36-29.88,51.48-38.41a1.78,1.78,0,0,0-.15-1.51,1.72,1.72,0,0,0-1.27-.81A47.67,47.67,0,0,0,122.62,104.9Z"/>
      </g>
      <path class="cls-18" d="M21.91,133.92A17.13,17.13,0,0,0,25,139.49a54.72,54.72,0,0,0,13.12-17,48,48,0,0,0,5.11-20.06c-.52-.42-2,0-4,1.14A41.78,41.78,0,0,0,31,110a38.19,38.19,0,0,0-7.59,10.29C21.28,124.59,20.4,129.3,21.91,133.92Z"/>
      <path class="cls-19" d="M21.74,133.41v0A10.92,10.92,0,0,0,24.33,140a.83.83,0,0,0,1.16.14,55.32,55.32,0,0,0,13.21-17,.76.76,0,0,0,.11-.22A48.4,48.4,0,0,0,44,102.48V102l-.18-.15-.66.55a1,1,0,0,0-.72-.13c-.11.32-.21.87-.14.85a46.87,46.87,0,0,1-4.87,18.72c0,.08-.08.17-.12.25A55.39,55.39,0,0,1,26,137.49a1.14,1.14,0,0,1-.89.32,1.16,1.16,0,0,1-.87-.39,13.47,13.47,0,0,1-2.08-3.06A2.81,2.81,0,0,1,22,134a.18.18,0,0,1-.05-.12c-.05-.11-.12-.25-.18-.42S21.76,133.43,21.74,133.41Z"/>
      <path class="cls-7" d="M243.25,60.39s55.19-48.77,155.14-30.51c0,0,27.95,28.71,27.86,39.84-.08,0-183,0-183,0Z"/>
      <path class="cls-20" d="M449.37,72.82a75.78,75.78,0,0,0-10-17,71,71,0,0,0-28.19-21.68q-9.88,21.35-20.52,42.43h56.32a2.68,2.68,0,0,0,2.43-3.73Z"/>
      <path class="cls-21" d="M476.18,114.79a5.74,5.74,0,0,1-5.69,5.77c-18.22.13-74.12,6-77.57,73.17a8,8,0,0,1-7.86,7.6c-27.32.24-113.71,0-142.43-.11a9.28,9.28,0,0,1-9.23-9.11c-.4-17.83-4.85-56.76-35.18-69.45a8.13,8.13,0,0,1-5-7.51v-4.61a6.28,6.28,0,0,1,6.26-6.29H470.31a5.89,5.89,0,0,1,5.87,5.9Z"/>
      <polygon class="cls-9" points="243.25 60.38 243.25 79.06 222.97 79.06 219.14 74.75 243.25 60.38"/>
      <path class="cls-11" d="M384.5,166.84c-.05.23-.09.48-.13.72-3.93,21.16-20.71,22.9-33.29,22.75l-115-1.53-2.86-21.94Z"/>
      <path class="cls-5" d="M352.24,191.58h-1.18L239.74,190l-.15-1.07c-5.91-41.65-6.42-78.67-1.52-110l2.5.39c-4.82,30.85-4.36,67.25,1.37,108.21L351.1,189c13.81.19,28.42-2.29,32-21.71,6.09-32.83-6.46-85.65-6.58-86.18l2.46-.59c.13.53,12.79,53.87,6.61,87.23C381.75,188.59,366,191.58,352.24,191.58Z"/>
      <path class="cls-6" d="M84.61,182.49c0,6.25,3.76,11.32,8.37,11.32s8.38-5.07,8.38-11.32S97.62,171.16,93,171.16,84.61,176.23,84.61,182.49Z"/>
      <polygon class="cls-6" points="102.4 193.67 92.98 193.81 92.98 171.16 102.4 171.16 102.4 193.67"/>
      <g>
        <path class="cls-18" d="M94,182.49c0,5.48,3.28,9.92,7.33,9.92s7.35-4.44,7.35-9.92-3.29-9.93-7.35-9.93S94,177,94,182.49Z"/>
        <path class="cls-19" d="M101.36,193c-4.36,0-7.9-4.71-7.9-10.49S97,172,101.36,172s7.92,4.72,7.92,10.51S105.73,193,101.36,193Zm0-19.85c-3.73,0-6.76,4.2-6.76,9.36s3,9.35,6.76,9.35,6.77-4.2,6.77-9.35S105.1,173.13,101.36,173.13Z"/>
      </g>
      <path class="cls-20" d="M31,110a19.79,19.79,0,0,0,1.28,4.24,25.89,25.89,0,0,0,5.23,7.64c.2.22.4.41.62.63l.61.6a47.59,47.59,0,0,0,4.5,3.8C68.21,145.61,149.26,87,149.26,87s-33-2.63-62.24-3.77c-13.65,3.23-29.65,7.55-43.16,18.68-.23.18-.45.36-.66.55a1,1,0,0,0-.72-.14C40.51,102.45,35.59,105.44,31,110Z"/>
      <path class="cls-18" d="M521.37,130.11c-.59-10.09-2.82-22.41-10.06-23.86a6.24,6.24,0,0,0-1.58-.17c-3.18,0-5.15,2-5.56,5.36-1.14,9.76,10.12,29.62,16.28,31.21A52.26,52.26,0,0,0,521.37,130.11Z"/>
      <path class="cls-19" d="M503.35,111.35c.42-3.62,2.55-5.78,5.81-6,.24.56.29.25.57.78-12.75.2,3,34.15,10.72,36.57,0,.52.1.17.11.69,0,.07,0,.14,0,.21l-.33-.09C513.12,141.62,502.23,120.91,503.35,111.35Z"/>
      <path class="cls-10" d="M505.11,214.21a9.17,9.17,0,0,0,3.58-3.18c7-9,17.32-35.56,12-69.18v0S519,179.66,506.9,188.72C506.38,194.63,505.51,207.58,505.11,214.21Z"/>
      <path class="cls-16" d="M432.19,164.32a2.51,2.51,0,0,0,2.5,2.52h7.05a2.52,2.52,0,0,0,2.5-2.52h0a2.52,2.52,0,0,0-2.5-2.52h-7.05a2.51,2.51,0,0,0-2.5,2.52Z"/>
      <path class="cls-16" d="M427,173.76a2.51,2.51,0,0,0,2.5,2.52h7.05a2.51,2.51,0,0,0,2.5-2.52h0a2.5,2.5,0,0,0-2.5-2.51h-7.05a2.5,2.5,0,0,0-2.5,2.51Z"/>
      <path class="cls-16" d="M424.16,184.1a2.5,2.5,0,0,0,2.49,2.51h7.06a2.5,2.5,0,0,0,2.5-2.51h0a2.51,2.51,0,0,0-2.5-2.52h-7.06a2.51,2.51,0,0,0-2.49,2.52Z"/>
      <path class="cls-16" d="M158.3,165.08a2.51,2.51,0,0,0,2.51,2.52h7.05a2.52,2.52,0,0,0,2.5-2.52h0a2.51,2.51,0,0,0-2.5-2.51h-7.05a2.51,2.51,0,0,0-2.51,2.51Z"/>
      <path class="cls-16" d="M153.13,174.52a2.5,2.5,0,0,0,2.49,2.52h7.06a2.51,2.51,0,0,0,2.5-2.52h0a2.5,2.5,0,0,0-2.5-2.51h-7.06a2.49,2.49,0,0,0-2.49,2.51Z"/>
      <path class="cls-16" d="M150.27,184.86a2.51,2.51,0,0,0,2.51,2.51h7.05a2.5,2.5,0,0,0,2.5-2.51h0a2.5,2.5,0,0,0-2.5-2.51h-7.05a2.51,2.51,0,0,0-2.51,2.51Z"/>
      <path class="cls-20" d="M8.31,182.89a38.08,38.08,0,0,0,6.92,18.47,32.58,32.58,0,0,0,7.1,7.2,23.58,23.58,0,0,1-.72-22.26A23.29,23.29,0,0,1,39.7,173.48l13.49-1.62A6.58,6.58,0,0,0,59,165.32v-1.94a5.87,5.87,0,0,0-5.85-5.9h-40c-.3.59-.59,1.21-.85,1.85A59.3,59.3,0,0,0,8.72,172,40.54,40.54,0,0,0,8.31,182.89Z"/>
      <path class="cls-22" d="M254.68,37.57s-28.58,10.07-49,32.15C218.37,61.48,254.68,37.57,254.68,37.57Z"/>
      <path class="cls-23" d="M168.45,79.31s-30.95-9.61-43-6.19-8.82,6-5,6Z"/>
      <g class="cls-24">
        <path class="cls-25" d="M104.07,79.67a.65.65,0,0,0,.59.43l17.07.09c35.65-21.41,101.71-38.6,127.51-44.79,6.58-3.21,13.08-6.17,19.39-8.85l-60-.43C167.06,34,113.83,71.93,104.29,79A.67.67,0,0,0,104.07,79.67Z"/>
      </g>
      <path class="cls-26" d="M124.81,114.48a4.55,4.55,0,0,0-.33-4.92,4.45,4.45,0,0,0-4.6-1.68c-8.78,2.05-26.95,7.92-35.23,22.45a3.49,3.49,0,0,0,.25,3.82,3.78,3.78,0,0,0,3.6,1.23C98.51,134.18,119.56,123.88,124.81,114.48Z"/>
      <path class="cls-26" d="M23.37,120.29c.65,3.08,1.64,5.56,2.72,6.49,4.24,3.72,14.85-16.07,13.1-23.19A41.78,41.78,0,0,0,31,110,38.19,38.19,0,0,0,23.37,120.29Z"/>
      <path class="cls-27" d="M96.65,180.52c0,2.52,1.29,4.58,2.87,4.58s2.88-2.06,2.88-4.58-1.28-4.59-2.88-4.59S96.65,178,96.65,180.52Z"/>
      <path class="cls-26" d="M520.54,129.17c-.56-9.56-2.65-21.73-9.4-23.09C508.86,109.49,508.15,116.42,520.54,129.17Z"/>
      <path class="cls-28" d="M215.19,116.69a3.49,3.49,0,1,0,3.49-3.52A3.51,3.51,0,0,0,215.19,116.69Z"/>
      <path class="cls-22" d="M267.83,67c1.79-.27,11.67,1.33,10.15-2.3-2.19-5.23-13.11-4.35-15.24.54C261,69.28,265.67,67.37,267.83,67Z"/>
      <path class="cls-29" d="M458.9,224.55c.49,0,.94,0,1.32-.06,7.11-.65,13.56-6.09,17.34-14.58a39.14,39.14,0,0,0,3.27-15.84c0-15.74-9.22-29.38-20.54-30.4a12.43,12.43,0,0,0-1.39-.07,16,16,0,0,0-7.36,1.82,21.76,21.76,0,0,0-5.64,4.23c-5.68,5.9-8.93,14.8-8.93,24.42a38.79,38.79,0,0,0,3.25,15.8,29.56,29.56,0,0,0,5.68,8.62,21.83,21.83,0,0,0,5.62,4.24A16.1,16.1,0,0,0,458.9,224.55Z"/>
      <path class="cls-30" d="M440.48,194.07a34.74,34.74,0,0,0,2.68,13.66,5.22,5.22,0,0,0,.25.61,26.09,26.09,0,0,0,4,6.47,12,12,0,0,0,1,1.14,17.49,17.49,0,0,0,4.68,3.52,12.68,12.68,0,0,0,5.81,1.45c.36,0,.7,0,1,0a14.23,14.23,0,0,0,7.33-3,21.63,21.63,0,0,0,5.36-6.09,33.77,33.77,0,0,0,1.78-3.39,35.13,35.13,0,0,0,2.95-14.32v-.44a35.65,35.65,0,0,0-1.09-8.29c-1.85-7.33-5.93-13.44-10.94-16.33a12.72,12.72,0,0,0-5.29-1.74,10.29,10.29,0,0,0-1.09-.05h-.8a13.59,13.59,0,0,0-5,1.43,18.05,18.05,0,0,0-4.68,3.55,26.46,26.46,0,0,0-5.44,8.54,33.49,33.49,0,0,0-2.13,8.07A36.36,36.36,0,0,0,440.48,194.07Z"/>
      <path class="cls-29" d="M185.58,224.55c.4,0,.75,0,1.06-.06,5.71-.65,10.9-6.09,13.93-14.58a47,47,0,0,0,2.64-15.84c0-15.74-7.41-29.38-16.51-30.4a8.11,8.11,0,0,0-1.12-.07,10.84,10.84,0,0,0-5.91,1.82,18.31,18.31,0,0,0-4.54,4.23c-4.56,5.9-7.17,14.8-7.17,24.42a47.09,47.09,0,0,0,2.61,15.8,30.81,30.81,0,0,0,4.56,8.62,18.45,18.45,0,0,0,4.52,4.24A11,11,0,0,0,185.58,224.55Z"/>
      <path class="cls-30" d="M185.58,221.2a4.51,4.51,0,0,0,.66,0c4.37-.49,8.66-5.24,11.21-12.39a43.65,43.65,0,0,0,2.44-14.71c0-15.06-7.14-26.36-13.56-27.08a4.84,4.84,0,0,0-.75,0,7.65,7.65,0,0,0-4.14,1.29,14.79,14.79,0,0,0-3.69,3.48c-4.12,5.31-6.48,13.46-6.48,22.35a43.43,43.43,0,0,0,2.42,14.66,27.28,27.28,0,0,0,4.06,7.7,14.84,14.84,0,0,0,3.67,3.47A7.66,7.66,0,0,0,185.58,221.2Z"/>
      <path class="cls-29" d="M447.69,202,443,207.88a6,6,0,0,0,.25.61,26.59,26.59,0,0,0,4,6.54l5.91-7.42a5.5,5.5,0,0,1,5-2.16,5.91,5.91,0,0,1,4.45,3.33l4.71,9.34a21.93,21.93,0,0,0,5.42-6.15L469,204.58a7.54,7.54,0,0,1-.26-6.06,6.08,6.08,0,0,1,4.15-3.8l4.61-1.1a36.41,36.41,0,0,0-1.1-8.37l-5,1.2a5.26,5.26,0,0,1-5.13-1.59,7.2,7.2,0,0,1-1.89-5.65l1-10.47A12.94,12.94,0,0,0,460,167a10.23,10.23,0,0,0-1.09-.06l-.81,0L457,178.29a6.78,6.78,0,0,1-2.92,5.07,5.17,5.17,0,0,1-5.3.31l-6-3.06a34.43,34.43,0,0,0-2.16,8.14l5.11,2.63a6.49,6.49,0,0,1,3.34,4.72A7.31,7.31,0,0,1,447.69,202Z"/>
      <path class="cls-31" d="M455.69,194.07c0,3.35,2.09,6.06,4.66,6.06s4.67-2.71,4.67-6.06-2.09-6.06-4.67-6.06S455.69,190.73,455.69,194.07Z"/>
      <path class="cls-29" d="M176.27,201.48l-4,5.71c.06.19.14.4.22.6a26.11,26.11,0,0,0,3.44,6.3l5-7.16a4.46,4.46,0,0,1,4.24-2.07,5.16,5.16,0,0,1,3.8,3.19l4,9a20.59,20.59,0,0,0,4.63-5.93L194.47,204a8.14,8.14,0,0,1-.23-5.84,5.45,5.45,0,0,1,3.54-3.66l3.93-1.07a38.32,38.32,0,0,0-.93-8l-4.29,1.15A4.24,4.24,0,0,1,192.1,185a7.6,7.6,0,0,1-1.62-5.46l.86-10.08c-1.45-.94-2.36-3.18-4-3.33-.33,0-1.51,0-1.81,0h0l-1.37,12.53a6.68,6.68,0,0,1-2.48,4.88,4,4,0,0,1-4.54.3l-5.1-3a36,36,0,0,0-1.84,7.86l4.36,2.51a6.32,6.32,0,0,1,2.84,4.56A7.74,7.74,0,0,1,176.27,201.48Z"/>
      <path class="cls-31" d="M181.31,194.07c0,3.35,2.09,6.06,4.67,6.06s4.67-2.71,4.67-6.06S188.56,188,186,188,181.31,190.73,181.31,194.07Z"/>
      <path class="cls-25" d="M310.51,37h-.05l.05,0Z"/>
      <path class="cls-23" d="M235.42,73.84l.87-.41L254,65l8.38,21.84H244.41C234,86.85,235.42,73.84,235.42,73.84Z"/>
      <path class="cls-11" d="M251.54,70.39v5.92a10.58,10.58,0,0,0,1.39,5.24,10.15,10.15,0,0,0,1.8,2.34,10.49,10.49,0,0,0,7.62,3l15.45-.52a10.66,10.66,0,0,0,9.41-6.4,10.8,10.8,0,0,0-1.65-11.31L282.5,65v0l-3.32-3.88a9.91,9.91,0,0,0-11.67-2.64l-11.78,5.39A7.15,7.15,0,0,0,251.54,70.39Z"/>
      <path class="cls-32" d="M252.93,81.55a10.15,10.15,0,0,0,1.8,2.34,10.49,10.49,0,0,0,7.62,3l15.45-.52a10.66,10.66,0,0,0,9.41-6.4,10.8,10.8,0,0,0-1.65-11.31L282.5,65l.51,6.58c.38,4.68-4.93,8.73-11.86,9.07Z"/>
      <path class="cls-6" d="M62,188.58a1.32,1.32,0,0,1-.38.93,1.28,1.28,0,0,1-.92.39H18.56a1.52,1.52,0,0,1-1.08-.45,1.58,1.58,0,0,1-.44-1.11V169a1.43,1.43,0,0,1,.4-1,1.35,1.35,0,0,1,1-.4H60.57a1.41,1.41,0,0,1,1,.42,1.44,1.44,0,0,1,.42,1Z"/>
      <path class="cls-33" d="M60.35,186.81a1.21,1.21,0,0,1-1.21,1.2H19.84a1.43,1.43,0,0,1-1.42-1.42V168.87a1.26,1.26,0,0,1,1.28-1.27H59a1.31,1.31,0,0,1,1.33,1.32Z"/>
      <path class="cls-26" d="M59,186.81a1.2,1.2,0,0,1-1.2,1.2H18.46a1.43,1.43,0,0,1-1-.42,1.38,1.38,0,0,1-.41-1V168.87a1.26,1.26,0,0,1,1.27-1.27H57.64a1.28,1.28,0,0,1,.93.38,1.33,1.33,0,0,1,.39.94Z"/>
    </g>
  </g>
</svg>
