<svg id="Layer_1" data-name="Layer 1" xmlns="http://www.w3.org/2000/svg" width="249.3" height="341.53" viewBox="0 0 249.3 341.53">
  <defs>
    <style>
      .cls-1 {
        opacity: 0.5;
      }

      .cls-2 {
        fill: #ff0;
      }

      .cls-3 {
        fill: #f5ac4e;
      }

      .cls-4 {
        fill: #ef8245;
      }

      .cls-5 {
        fill: #fed952;
      }

      .cls-6 {
        fill: #a35020;
      }

      .cls-7 {
        fill: #ffd953;
      }
    </style>
  </defs>
  <g>
    <path class="cls-1" d="M147.75,341.53c-1.21,0-2.41,0-3.59,0-13.22-.17-23.92-1.21-27.31-1.58-1.37.09-2.86.13-4.45.13-24.88,0-72.33-9.7-92.39-46.07-22.16-40.2-15.4-87.72,15.09-105.92,4.35-2.61,8.71-5,12.92-7.33,19-10.48,34.06-18.75,39.2-38.43.28-1.08.53-2.12.74-3.13l-.66-.65c-6.9-7.09-5.68-13.5-4.33-16.7.12-.28.25-.56.39-.83a14.47,14.47,0,0,1-.91-5.94,73.5,73.5,0,0,1-9.51-16.29C71.06,94.06,62.72,87.47,56,82.18S42.46,71.46,38,65.42C28.05,52,34.25,41.26,37.37,37.26c6.69-8.58,15.71-13.11,26.07-13.11,10.06,0,18.92,4.31,23.67,6.62.66.32,1.24.6,1.71.81a18.6,18.6,0,0,1,6,4.43c.88-14.65,7.7-20,10.16-21.52A11.11,11.11,0,0,1,109.2,13a46.61,46.61,0,0,1,6.35-.45c10,0,18.69,3.64,25,10.52a41,41,0,0,1,8.36,14.49C173.81,10.55,187.13,7,195.34,7c9.07,0,16.55,5.2,20.63,14.31,4.31,7.66,13.16,36.34-48.42,91.49a65.45,65.45,0,0,1,14.55,4A115.69,115.69,0,0,1,200.75,127c8.31,5.6,11.67,9.48,12.41,14.3.31,2,1,9-3.52,14.29a13.58,13.58,0,0,1-10.47,4.78,15.4,15.4,0,0,1-3.66-.45,35.81,35.81,0,0,1,1.57,6,11.2,11.2,0,0,1,.15,2.38,19.09,19.09,0,0,1-3,9.69l4.3,4.6c5.91,6.35,12.84,13.83,19.42,21.14,3.81,4.23,7.3,8.2,10.38,11.78,2.6,3,4.85,5.72,6.87,8.24,1.11,1.37,2.15,2.69,3.14,4,1.71,2.21,3.1,4.11,4.27,5.81,4.9,7.12,7.11,15.63,6.57,25.29A61.55,61.55,0,0,1,247,271.58c-5.89,21.31-21.8,41.83-34.73,53.92-7.87,7.36-20.12,12.07-37.46,14.4-1.31.17-2.62.33-3.94.48-3.14.34-6.45.6-9.85.79l-1.92.1c-2.51.12-5.08.19-7.68.23Z"/>
    <path class="cls-2" d="M140.79,334.56l-3.6,0c-13.22-.17-23.92-1.22-27.31-1.58-1.37.08-2.86.13-4.45.13-24.88,0-72.33-9.71-92.38-46.08-22.17-40.2-15.4-87.72,15.08-105.92,4.36-2.6,8.71-5,12.93-7.33,19-10.47,34.05-18.75,39.19-38.43.28-1.07.53-2.12.74-3.13l-.66-.65c-6.9-7.09-5.67-13.5-4.33-16.69q.18-.44.39-.84a13.46,13.46,0,0,1-.47-1.48,14,14,0,0,1-.44-4.46A73.26,73.26,0,0,1,66,91.79c-1.88-4.7-10.22-11.29-16.92-16.58S35.49,64.49,31,58.45c-9.94-13.39-3.74-24.16-.61-28.16,6.69-8.58,15.7-13.11,26.06-13.11,10.07,0,18.92,4.31,23.68,6.62.65.32,1.23.61,1.7.82a18.6,18.6,0,0,1,6,4.42C88.74,14.39,95.55,9,98,7.52A11.17,11.17,0,0,1,102.23,6a48.22,48.22,0,0,1,6.35-.44c10,0,18.69,3.63,25,10.51A41.12,41.12,0,0,1,142,30.59C166.84,3.58,180.16,0,188.37,0c9.08,0,16.55,5.2,20.63,14.32,4.32,7.65,13.16,36.33-48.42,91.48a65,65,0,0,1,14.56,4A115.13,115.13,0,0,1,193.78,120c8.31,5.61,11.68,9.48,12.41,14.31.32,2,1,9-3.52,14.28a13.55,13.55,0,0,1-10.47,4.78,15.4,15.4,0,0,1-3.66-.45,37.13,37.13,0,0,1,1.58,6,11.2,11.2,0,0,1,.14,2.38,19.09,19.09,0,0,1-3,9.69l4.3,4.61c5.91,6.34,12.84,13.82,19.42,21.13,3.81,4.24,7.31,8.2,10.38,11.78,2.6,3,4.85,5.73,6.88,8.24,1.11,1.37,2.14,2.69,3.14,4,1.7,2.21,3.09,4.11,4.26,5.81,4.9,7.12,7.11,15.63,6.57,25.29a61.44,61.44,0,0,1-2.18,12.83c-5.89,21.31-21.8,41.83-34.73,53.92-7.86,7.36-20.12,12.07-37.46,14.4-1.31.18-2.62.34-3.94.48-3.13.34-6.45.61-9.85.79l-1.92.1c-2.51.12-5.08.19-7.68.23Z"/>
    <g>
      <path class="cls-3" d="M110.1,321.76s66.89,8,87.63-11.37,43.48-56.19,28.76-77.59S165,164.57,154.92,151.86s-24.75-33.44-12-45.48,67.56-59.54,56.18-87-51.5,20.74-64.88,37.46c0,0,3.68-44.48-30.43-39.8,0,0-6.69,4-4.35,22.41s3,24.41-3,21.4-13-23.41-19.07-26.09S52.24,20.42,39.2,37.15,69,69.25,76.32,87.65,98.73,108.72,91,138.15s-33.11,38.13-57.19,52.51-30.77,55.18-11,91S94.38,323.1,110.1,321.76Z"/>
      <path class="cls-4" d="M226.49,232.8c-14.72-21.41-61.54-68.23-71.57-80.94s-25.47-34.25-12-45.48c73.58-61.54,56.18-87,56.18-87S171.19,37.14,141.2,77.61c-6.68,9-16.34,37.32-14.55,42.54,7,20.3,38.63,66.5,55.36,118.67,17.14,53.48-72.81,83-71.91,82.94,0,0,66.89,8,87.63-11.37S241.21,254.2,226.49,232.8Z"/>
      <path class="cls-5" d="M67.29,228.45s9.37-9,18.4-13,16.38-18.06,8.36-20.07-16.73,1.34-21.41,2S54.92,197,50.9,196s-20.73-.67-30.1,17.73-1.67,35.11,7,50.83,25.08,44.48,52.84,45.15,18.73-5,13-12.37S62.94,277,61.6,262.23,59.26,234.81,67.29,228.45Z"/>
      <path class="cls-6" d="M91.66,114.07s-10.2-3.85-1.67-9.87c0,0,1-1.84,6.69,3.18s30.27,8,32.11,8,4-7.19,9.53,0c0,0,19.9-.67,32.44,4.68S194.84,133.8,195.18,136s.16,8-5.19,5.68-20.4-18.06-36.62-17.56c0,0,23.08,20.74,25.75,36.63,0,0-.5,10.53-7.36,1.17s-9-24.42-31.6-36c0,0-1.51,9.2-13.38,9s-32.11-4.68-38.46-11.2,3-6.86,4-6.52,14,10.87,27.93,10,13.88-3,14-3.68-2.51-1.34-7.53-.67S96.35,118.42,91.66,114.07Z"/>
      <path class="cls-7" d="M57.59,42.16S83,85,97.73,90.32c0,0,23.41,28.77-.67,8S52.91,56.21,50.9,48.18,57.59,42.16,57.59,42.16Z"/>
      <path class="cls-7" d="M116.29,41s6.52-14.55-.5-15-7.53,14.55-7.53,21.57,4,40.14,3.51,45.66a27.16,27.16,0,0,0,.5,9s6-13.55,3-28.6S116.29,41,116.29,41Z"/>
      <path class="cls-7" d="M127.07,91.66c-3.24.54-8.52,2.26-2-7.77S162.78,33,173.81,27.45s8.53,7,3.51,9-26.51,20.2-33.69,28.59C138.42,71.16,129.44,91.27,127.07,91.66Z"/>
    </g>
  </g>
</svg>
