<svg id="Layer_1" data-name="Layer 1" xmlns="http://www.w3.org/2000/svg" width="216.1" height="223.06" viewBox="0 0 216.1 223.06">
  <defs>
    <style>
      .cls-1 {
        fill: #353535;
        opacity: 0.5;
      }

      .cls-2 {
        fill: #ff0;
      }

      .cls-3 {
        fill: #7d4828;
      }

      .cls-4 {
        fill: #190c0e;
      }

      .cls-5 {
        fill: #5c3223;
      }

      .cls-6 {
        fill: #7b6046;
      }

      .cls-7 {
        fill: #a17153;
      }

      .cls-8 {
        fill: #5b3320;
      }

      .cls-9 {
        fill: #653d1f;
      }

      .cls-10 {
        fill: #6c311d;
      }
    </style>
  </defs>
  <g>
    <path class="cls-1" d="M114.15,223.06a6.15,6.15,0,0,1-5.72-3.86c0-.06-.05-.12-.07-.17-4-10.73-4.71-21.59-5.43-32.08a158.19,158.19,0,0,0-2.14-19.47c-.94-4.87-2.16-9.43-3.35-13.83-1.74-6.51-3.43-12.81-4.15-19.6-13.37,16.86-29.74,33.6-49.65,50.8a6.13,6.13,0,0,1-9.42-1.16,6.69,6.69,0,0,1-.52-1,6.3,6.3,0,0,1,.71-6.07,4.34,4.34,0,0,1,.48-.58c3.49-3.76,7.22-7.53,10.82-11.17,8.52-8.62,17.33-17.52,24-27.06,1.92-2.75,3.74-5.57,5.5-8.29s3.4-5.24,5.22-7.87c-4.4.43-8.8.56-13.13.69-4,.12-7.84.24-11.58.58-5.89.53-11.66,2-17.77,3.6-7.08,1.82-14.4,3.71-22.07,4.05H15.5a6.08,6.08,0,0,1-4.74-2.27,6.25,6.25,0,0,1-1.36-5.38,6.17,6.17,0,0,1,5.3-4.8l.18,0c6.95-.6,13.5-3,20.43-5.49,3.41-1.24,6.88-2.5,10.48-3.57-15.45-3.68-27.71-8.1-39-14a5.85,5.85,0,0,1-1.72-1.37,6.33,6.33,0,0,1-1-1.6,5.91,5.91,0,0,1-.55-2.55,6.29,6.29,0,0,1,1.7-4.31,6.14,6.14,0,0,1,4.45-1.92,6.35,6.35,0,0,1,2.43.49c6.49,2.62,13.76,4,21.45,5.48,4.21.81,8.56,1.64,12.77,2.7,9.33,2.34,18.5,4.49,27.73,5.28a13.69,13.69,0,0,1-.69-2.77,6.22,6.22,0,0,1,8.52-6.67,17.65,17.65,0,0,1,3.66-3c.33-.21.84-.61,1.34-1s.93-.73,1.45-1.1l-.26-.49a4.94,4.94,0,0,1-.26-.57A6.25,6.25,0,0,1,93.6,73a6.26,6.26,0,0,1,2,.33,14.14,14.14,0,0,1,2.53,1.07c.68-9.25,0-18.63-.82-28.16-.39-4.38-.53-8.89-.67-13.25-.23-7.78-.46-15.12-2-21.93a6.1,6.1,0,0,1,1.14-5.2,6.25,6.25,0,0,1,4.81-2.36h.23l.48,0a5.89,5.89,0,0,1,4.09,2.11l.15.17a5.93,5.93,0,0,1,1,1.87c4,11.91,6.51,25,7.72,40.7,1.63-3.41,3.44-6.66,5.2-9.84,3.55-6.4,6.9-12.44,8.6-19.14a6.15,6.15,0,0,1,6-4.77,6.31,6.31,0,0,1,5.05,2.56,6,6,0,0,1,1,5.35c-1.54,7.4-4.52,14.23-7.39,20.83-2.53,5.79-4.91,11.26-6.35,17-.93,3.66-1.64,7.39-2.4,11.33-.82,4.25-1.65,8.57-2.76,12.84,3.13-1.51,6.26-2.89,9.35-4.24,2.74-1.21,5.57-2.45,8.34-3.76,10.31-4.92,20.49-12.23,30.35-19.29,4.18-3,8.5-6.1,12.73-8.95a6.25,6.25,0,0,1,3.6-1.16,6.15,6.15,0,0,1,4.23,1.69,6.09,6.09,0,0,1,2,4.28,6.17,6.17,0,0,1-2.17,5c-20.24,17.05-39.42,30.62-58.22,41.17,6.54,1.76,12.42,4.39,18.5,7.11,4.21,1.89,8.55,3.83,13.29,5.55a161,161,0,0,0,18.84,5.16c10.25,2.38,20.85,4.84,30.8,10.41a6.64,6.64,0,0,1-3.33,12.19,6.25,6.25,0,0,1-2.68-.61c-9.56-4.59-19.8-6.49-30.63-8.5-3.4-.63-6.92-1.28-10.41-2a64,64,0,0,1-12.06-4l-1.14-.46-1.15-.47-.16-.07c-1.14-.48-2.28-1-3.43-1.49-1.47-.64-3-1.29-4.42-1.91,4.23,5.37,7.75,11.17,8.3,17.53a31.58,31.58,0,0,1-2.13,14.39c.88,2.24,1.92,4.66,3.14,7.32l.1.24a6.18,6.18,0,0,1-1.73,7.05l-.1.09a6.23,6.23,0,0,1-4,1.46,6.14,6.14,0,0,1-3.57-1.14l-.22-.17c-2.27-1.78-4.76-3.6-7.57-5.54h-.44c-8.68,0-17.53-6-23-10.84l1.11,4.25a9.82,9.82,0,0,1,.28,1s.12.41.16.57.14.5.2.76.06.25.1.38l.3,1.15c.15.58.31,1.15.43,1.72a65.9,65.9,0,0,1,2,12.24c.17,3.45.26,6.91.34,10.25.28,11.13.55,21.64,3.57,31.93a1.82,1.82,0,0,1,.07.25,6.13,6.13,0,0,1-3.38,7A6.26,6.26,0,0,1,114.15,223.06Z"/>
    <path class="cls-2" d="M110.61,219.53a6.15,6.15,0,0,1-5.71-3.86c0-.06-.05-.12-.07-.17-4-10.73-4.71-21.59-5.43-32.08A159.94,159.94,0,0,0,97.26,164c-.94-4.87-2.17-9.43-3.35-13.83-1.74-6.51-3.43-12.81-4.15-19.6C76.39,147.38,60,164.11,40.11,181.32a6.13,6.13,0,0,1-9.42-1.16,6.69,6.69,0,0,1-.52-1,6.3,6.3,0,0,1,.71-6.07,4.41,4.41,0,0,1,.47-.58c3.5-3.76,7.23-7.53,10.83-11.17,8.52-8.62,17.33-17.53,24-27.07,1.92-2.74,3.74-5.56,5.5-8.28s3.4-5.24,5.22-7.87c-4.4.43-8.8.56-13.13.69-4,.12-7.84.24-11.58.58-5.89.53-11.66,2-17.77,3.6-7.08,1.82-14.4,3.71-22.07,4H12a6.08,6.08,0,0,1-4.74-2.27,6.25,6.25,0,0,1-1.36-5.38,6.16,6.16,0,0,1,5.3-4.8l.18,0c7-.6,13.5-3,20.43-5.49,3.41-1.24,6.88-2.5,10.48-3.57-15.45-3.68-27.71-8.1-39-14a6,6,0,0,1-1.72-1.37,6.33,6.33,0,0,1-1-1.6A5.93,5.93,0,0,1,0,86a6.28,6.28,0,0,1,1.7-4.3,6.17,6.17,0,0,1,6.88-1.43c6.49,2.61,13.76,4,21.45,5.48,4.21.81,8.56,1.64,12.77,2.7,9.32,2.34,18.5,4.49,27.72,5.28a15.37,15.37,0,0,1-.69-2.77,6.22,6.22,0,0,1,8.53-6.67,17.57,17.57,0,0,1,3.65-3c.34-.21.85-.61,1.35-1s.93-.73,1.45-1.11l-.26-.48a3.68,3.68,0,0,1-.26-.57,6.25,6.25,0,0,1,5.78-8.55,6.31,6.31,0,0,1,2,.33,14.14,14.14,0,0,1,2.53,1.07c.68-9.25,0-18.63-.82-28.16-.4-4.38-.53-8.89-.67-13.25-.23-7.78-.46-15.12-2-21.93a6.14,6.14,0,0,1,1.15-5.2A6.29,6.29,0,0,1,97,0h.23l.48,0a5.89,5.89,0,0,1,4.09,2.11l.15.17a6.14,6.14,0,0,1,1,1.87c4,11.91,6.51,25,7.72,40.7,1.63-3.41,3.43-6.66,5.2-9.84,3.55-6.4,6.89-12.44,8.6-19.14a6.15,6.15,0,0,1,6-4.77,6.31,6.31,0,0,1,5.05,2.56,6,6,0,0,1,1,5.34c-1.55,7.41-4.52,14.24-7.39,20.84-2.53,5.79-4.91,11.25-6.35,17-.93,3.66-1.65,7.39-2.4,11.33-.82,4.25-1.65,8.57-2.76,12.83,3.13-1.5,6.26-2.88,9.34-4.23,2.74-1.21,5.58-2.45,8.35-3.76,10.31-4.92,20.49-12.23,30.35-19.29,4.18-3,8.5-6.1,12.73-8.95a6.25,6.25,0,0,1,3.6-1.16,6.17,6.17,0,0,1,4.23,1.69,6.07,6.07,0,0,1,2,4.28,6.17,6.17,0,0,1-2.17,5C165.88,71.62,146.7,85.19,127.9,95.74a124,124,0,0,1,18.5,7.11c4.21,1.88,8.55,3.83,13.29,5.55a161,161,0,0,0,18.84,5.16c10.25,2.38,20.85,4.84,30.8,10.41a6.52,6.52,0,0,1-6,11.57c-9.57-4.58-19.8-6.48-30.64-8.49-3.39-.63-6.91-1.28-10.41-2a64.18,64.18,0,0,1-12.05-4l-1.14-.46-1.15-.47-.16-.07-3.43-1.49c-1.47-.64-3-1.29-4.42-1.91,4.22,5.37,7.75,11.17,8.3,17.53a31.66,31.66,0,0,1-2.13,14.38c.88,2.25,1.92,4.67,3.14,7.33l.1.24a6.18,6.18,0,0,1-1.73,7l-.1.09a6.23,6.23,0,0,1-4,1.46,6.14,6.14,0,0,1-3.57-1.14l-.22-.17c-2.27-1.78-4.76-3.6-7.57-5.54h-.44c-8.68,0-17.53-6-23-10.84l1.11,4.25a9.82,9.82,0,0,1,.28,1s.12.41.16.57.13.5.2.76l.09.38c0,.08.23.85.31,1.15.15.58.3,1.15.43,1.72a65.9,65.9,0,0,1,2,12.24c.17,3.45.26,6.9.34,10.25.28,11.13.55,21.64,3.57,31.93,0,.08,0,.16.07.25a6.12,6.12,0,0,1-1.12,5.26,6.2,6.2,0,0,1-2.26,1.79A6.26,6.26,0,0,1,110.61,219.53Z"/>
    <g>
      <path d="M108.26,104.42l.6-.17c0-.06,0-.09,0-.18,1.69-5,.16-8.6-3.77-11.66-1.89-1.48-4.35-2-6.25-3.37a40.37,40.37,0,0,1-5.19-4.61c2.15,3.32,3.93,6.89,6.63,9.79C103.29,97.45,106.36,100.38,108.26,104.42Zm1.91-6.09c0,.44,0,.81,0,1.18a.19.19,0,0,1,.19-.05c18.83-.38,30.13,8.23,47.29,14.47,16.24,5.89,33.59,6.65,48.84,15.21.39.19,0,.74-.35.53h-.06c.29.21.13.76-.26.57-13.44-6.44-27.9-7.9-42.36-11a59.43,59.43,0,0,1-11-3.68,45.33,45.33,0,0,0,4.78,1.58c16.39,4.33,33,5,48.55,12.31-15.21-8.37-32.23-9.07-48.31-14.92s-29.21-14.79-47.14-14.48c-.07,0-.09,0-.15,0a11.46,11.46,0,0,1-.63,4,13.52,13.52,0,0,1,9.6,1.25c11.31-1.69,20.78,5,30.93,9.38-10.12-4.36-20.88-9.66-29.83-8.82,4.94,2.7,9.42,7.35,12.32,11.16,4,4.71,9.21,11.2,9.78,17.7.31,3.79-.23,9.86-2.74,13.49l.06.07c1.24,3.4,2.67,6.76,4.2,10.09a.34.34,0,0,1-.09.36l0,0,0,0a.29.29,0,0,1-.37,0c-3.11-2.44-6.33-4.73-9.58-6.94l0,0c-8.68,1.57-20.41-7.7-24.94-12.94a41,41,0,0,1-8.19-14.24c-2,7.94,1,18.36,3.55,28.32-2.8-9.79-7-19.57-4-29.4,0-.06.07-.06.07-.06a18.44,18.44,0,0,1,0-9.75,12.28,12.28,0,0,1-3.43,0,.14.14,0,0,1,0,.13c-3.2,17.72,3.57,32,6.81,48.83s1.27,33.76,7.14,50.09c-4.78-16.46-2.82-33-4.5-49.88a45.91,45.91,0,0,0-.77-4.72,64,64,0,0,1,1.86,11.23c.71,14.72-.07,29.23,4.13,43.55.1.38-.47.46-.63.14,0,0,0,0,0,.09.15.39-.42.65-.58.27-6.07-16.45-4-33.7-7.31-50.63-3.47-17.82-10.17-30.58-6.85-49a.4.4,0,0,1,.13-.18,6.83,6.83,0,0,1-1.18-.25s0,0,0,.06C78.54,137.32,58,158.08,36.08,177a.24.24,0,0,1-.43,0l0,0a.42.42,0,0,1,0-.43C47.34,164,61.15,151.75,71,137.65c6.69-9.6,11.74-19.17,20-27.71a4.41,4.41,0,0,1-.51-.6l0,0c-12.3,4.42-26,3.06-38.84,4.23-13.5,1.21-26.25,7.06-39.6,7.63-.16,0-.21,0-.24-.14-.23-.14-.23-.54.08-.58,13.59-1.18,25.23-8.25,38.44-10.87,12.64-2.49,25.62-1,38.15-4.51,0,0,0,0,.09,0-.2-.57-.44-1.12-.64-1.69-12,3.93-24.23.7-36.23-1.82C35.76,98.29,20.42,93.87,6,86.3c-.06-.07-.09-.1-.08-.16l0,0s0,0,0-.1c0-.22.13-.45.39-.34,11,4.42,23.58,5.58,35.09,8.47,14.92,3.75,29.21,7,44.62,5.36,0-.12-.14-.22-.19-.35l0,0c-4.47-1.62-9.38-4-10.12-9.11a.34.34,0,0,1,.52-.33A9.57,9.57,0,0,1,78,91.18c1.72,1.68,2.74,2.87,5,3.39-.3-.43-.58-.76-.83-1.12-2.22-2.8.73-5.78,3.07-7.26,2-1.26,4.59-4.08,7.15-4a.29.29,0,0,1,.23.14c.29.33.6.63.94,1-.18-2.3-1.21-3.43-2.59-5.39a20.82,20.82,0,0,1-1.14-2,.36.36,0,0,1,.41-.46c4.94,1.57,6.53,6.79,7.43,11.4a.17.17,0,0,1,0,.09.79.79,0,0,0,.29.21c4-14.91,3.12-29.61,1.77-44.88-1.07-11.79-.18-24.5-2.82-36a.29.29,0,0,1,.4-.34s0,0,.09,0l0,0,.11.13c5.2,15.42,7.18,31.29,7.94,47.47.57,12.27,1.85,24.91-4,36.09l1.6.87a0,0,0,0,1,0-.06c5.36-11.83,6-24.88,10.44-37,4.68-12.62,13.47-23,16.8-36.18.06-.33.46-.27.59,0a.22.22,0,0,1,.07.28c-2.65,13.13-10.46,24.77-13.76,37.94-3.18,12.49-4,26.2-10.3,37.62l0,0c.23.21.3.43.51.6,9.64-6.74,20-10.36,30.52-15.33,15.37-7.34,29.87-19.31,44-28.75a.27.27,0,0,1,.43,0,.28.28,0,0,1,0,.46C160.12,68.77,136.39,85.75,110.17,98.33Zm32.72,59.23c-1.35-2.92-2.6-5.86-3.72-8.85a7.18,7.18,0,0,1-.94,1,9.37,9.37,0,0,1-3.58,1.91C137.43,153.58,140.18,155.52,142.89,157.56Zm-5.09-8.31c4.53-3.68,4.17-14.77,2.4-19.32s-4.86-8.72-8.11-12.53c-6.13-8-21-20.75-29.1-7.28-6,10-.51,20.46,6.31,28.32C114.5,144.47,129.55,156,137.8,149.25ZM41.3,171.54c9.9-8.78,19.43-17.94,28.41-27.66a282.58,282.58,0,0,0,24.87-30.82,9.77,9.77,0,0,1-3.16-2.63c-9.65,9.95-15.09,21.68-23.59,32.31C59.8,152.85,50.35,162.16,41.3,171.54Zm68.6-73.78c23.92-11.53,45.78-26.69,66.29-43.49-10.78,7.48-21.5,15.24-32.76,21.76-11.78,6.78-24.28,10.24-35.62,18.13A9.86,9.86,0,0,1,109.9,97.76Zm-9.46,15.33a12.07,12.07,0,0,1,.54-1.31C91.08,110,89.75,98.47,82.67,93.13a44.92,44.92,0,0,1,5,7.65c1.07,2.12,1.21,4.58,2.4,6.71C92.4,111.65,95.57,113.76,100.44,113.09Zm.83-1.91a13.43,13.43,0,0,1,2-2.87c-3.79-2.43-6.23-6-9.17-9.34-3.31-3.75-6.76-7.39-9.94-11.32a5.05,5.05,0,0,0-1.27,1.26,5.55,5.55,0,0,0-.62,3.1C90.1,97.08,90.94,109.53,101.27,111.18Zm2.37-3.39,0,0,.51-.6.13-.12c-7.57-5.66-10.49-15.25-17.92-20.81l-.08-.1-1,.69c-.22.14-.39.28-.62.42,2.7,3.36,5.63,6.52,8.53,9.72C96.54,100.74,99.35,105,103.64,107.79Zm1.17-1.11a14.28,14.28,0,0,1,2.84-2c-2.05-4.42-5.53-7.29-8.61-10.9-2.8-3.28-4.52-7.31-7-10.78,0,0,0-.09,0-.13-1.83.14-3.7,1.9-5.11,2.93C94.29,91.45,97.14,101,104.81,106.68Zm-14.67,2a15.48,15.48,0,0,1-1.43-3.07.27.27,0,0,1-.16.08c-12.56,3.45-25.47,2-38.15,4.5-10,2-19,6.46-28.72,9,9.94-1.89,19.7-5.47,29.84-6.4C64.3,111.71,77.87,113.12,90.14,108.72Zm13.37-18a15.79,15.79,0,0,1,2.82,1.89c6.24-11.39,7-25,10.19-37.42,2.52-9.87,7.59-19,11.06-28.48-4.09,9.15-10,17.36-13.53,26.93-4.48,12.11-5,25.13-10.44,37ZM87.67,102.82s0-.1,0-.13a22.48,22.48,0,0,0-1.31-2.61C74,101.39,62,99.86,50,97,37.61,94,24.22,92.35,11.93,88.41a163.57,163.57,0,0,0,31.33,10.7C57,102.36,73.66,107.45,87.67,102.82Zm13.06-13.6a.16.16,0,0,1,.12.07c6.78-13.11,4.42-30.37,3.34-44.44A164.46,164.46,0,0,0,98.6,12.26c2,12.69,1.52,26.27,2.47,38.91.87,12.36.56,24.41-2.68,36.38A28.09,28.09,0,0,0,100.73,89.22ZM85.31,98.31c-.63-1-1.26-2-1.86-2.93a7.29,7.29,0,0,1-3.81-1.44c-1.16-1-2-2.08-3.1-3C77.65,94.83,81.6,96.9,85.31,98.31ZM94.2,84a31.86,31.86,0,0,0,2.6,2.3c-.81-3.89-2.2-8.14-6-9.86.76,1.24,1.76,2.27,2.53,3.51A7.62,7.62,0,0,1,94.2,84Z"/>
      <path class="cls-3" d="M106.31,162.9c1.68,16.87-.28,33.42,4.5,49.88-5.87-16.33-3.87-33.31-7.14-50.09s-10-31.11-6.81-48.83a.14.14,0,0,0,0-.13,12.28,12.28,0,0,0,3.43,0,18.44,18.44,0,0,0,0,9.75s-.07,0-.07.06c-3,9.83,1.16,19.61,4,29.4a4.77,4.77,0,0,1,.2.7c.07.28.14.5.21.79s.21.85.33,1.26c.21.85.46,1.67.64,2.49A45.91,45.91,0,0,1,106.31,162.9Z"/>
      <path class="cls-3" d="M205.79,129.48c-15.51-7.31-32.16-8-48.55-12.31a45.33,45.33,0,0,1-4.78-1.58l-2.37-1c-10.15-4.39-19.62-11.07-30.93-9.38a13.52,13.52,0,0,0-9.6-1.25,11.46,11.46,0,0,0,.63-4c.06,0,.08,0,.15,0,17.93-.31,31,8.6,47.14,14.48S190.58,121.11,205.79,129.48Z"/>
      <path class="cls-4" d="M139.17,148.71c1.12,3,2.37,5.93,3.72,8.85-2.71-2-5.46-4-8.24-5.9a9.37,9.37,0,0,0,3.58-1.91A7.18,7.18,0,0,0,139.17,148.71Z"/>
      <path class="cls-5" d="M140.2,129.93c1.77,4.55,2.13,15.64-2.4,19.32-8.25,6.76-23.3-4.78-28.5-10.81-6.82-7.86-12.32-18.27-6.31-28.32,8.08-13.47,23-.71,29.1,7.28C135.34,121.21,138.38,125.24,140.2,129.93Z"/>
      <path class="cls-6" d="M69.71,143.88c-9,9.72-18.51,18.88-28.41,27.66,9.05-9.38,18.5-18.69,26.53-28.8,8.5-10.63,13.94-22.36,23.59-32.31a9.77,9.77,0,0,0,3.16,2.63A282.58,282.58,0,0,1,69.71,143.88Z"/>
      <path class="cls-6" d="M176.19,54.27c-20.51,16.8-42.37,32-66.29,43.49a9.86,9.86,0,0,0-2.09-3.6c11.34-7.89,23.84-11.35,35.62-18.13C154.69,69.51,165.41,61.75,176.19,54.27Z"/>
      <path class="cls-7" d="M101,111.78a12.07,12.07,0,0,0-.54,1.31c-4.87.67-8-1.44-10.33-5.6-1.19-2.13-1.33-4.59-2.4-6.71a44.92,44.92,0,0,0-5-7.65C89.75,98.47,91.08,110,101,111.78Z"/>
      <path class="cls-7" d="M108.86,104.25l-.6.17c-1.9-4-5-7-8-10.2-2.7-2.9-4.48-6.47-6.63-9.79A40.37,40.37,0,0,0,98.86,89c1.9,1.35,4.36,1.89,6.25,3.37,3.93,3.06,5.46,6.67,3.77,11.66C108.84,104.16,108.87,104.19,108.86,104.25Z"/>
      <path class="cls-4" d="M103.23,108.31a13.43,13.43,0,0,0-2,2.87c-10.33-1.65-11.17-14.1-19-19.17a5.55,5.55,0,0,1,.62-3.1,5.05,5.05,0,0,1,1.27-1.26c3.18,3.93,6.63,7.57,9.94,11.32C97,102.35,99.44,105.88,103.23,108.31Z"/>
      <path class="cls-8" d="M103.67,107.82l0,0C99.35,105,96.54,100.74,93.2,97c-2.9-3.2-5.83-6.36-8.53-9.72.23-.14.4-.28.62-.42l1-.69.08.1c7.43,5.56,10.35,15.15,17.92,20.81l-.13.12Z"/>
      <path class="cls-4" d="M107.65,104.71a14.28,14.28,0,0,0-2.84,2c-7.67-5.64-10.52-15.23-18-20.85,1.41-1,3.28-2.79,5.11-2.93,0,0,0,.1,0,.13,2.5,3.47,4.22,7.5,7,10.78C102.12,97.42,105.6,100.29,107.65,104.71Z"/>
      <path class="cls-9" d="M88.71,105.65a15.48,15.48,0,0,0,1.43,3.07c-12.27,4.4-25.84,3-38.62,4.16-10.14.93-19.9,4.51-29.84,6.4,9.68-2.59,18.68-7.07,28.72-9,12.68-2.51,25.59-1,38.15-4.5A.27.27,0,0,0,88.71,105.65Z"/>
      <path class="cls-9" d="M106.33,92.63a15.79,15.79,0,0,0-2.82-1.89l.1-.09c5.39-11.86,6-24.88,10.44-37,3.57-9.57,9.44-17.78,13.53-26.93-3.47,9.48-8.54,18.61-11.06,28.48C113.34,67.65,112.57,81.24,106.33,92.63Z"/>
      <path class="cls-10" d="M87.62,102.69s0,.09,0,.13c-14,4.63-30.65-.46-44.41-3.71a163.57,163.57,0,0,1-31.33-10.7C24.22,92.35,37.61,94,50,97c12,2.91,24,4.44,36.31,3.13A22.48,22.48,0,0,1,87.62,102.69Z"/>
      <path class="cls-10" d="M100.85,89.29a.16.16,0,0,0-.12-.07,28.09,28.09,0,0,1-2.34-1.67c3.24-12,3.55-24,2.68-36.38-.95-12.64-.52-26.22-2.47-38.91a164.46,164.46,0,0,1,5.59,32.59C105.27,58.92,107.63,76.18,100.85,89.29Z"/>
      <path class="cls-4" d="M83.45,95.38c.6.91,1.23,1.92,1.86,2.93-3.71-1.41-7.66-3.48-8.77-7.4,1.1,1,1.94,2.07,3.1,3A7.29,7.29,0,0,0,83.45,95.38Z"/>
      <path class="cls-4" d="M96.8,86.28A31.86,31.86,0,0,1,94.2,84a7.62,7.62,0,0,0-.82-4c-.77-1.24-1.77-2.27-2.53-3.51C94.6,78.14,96,82.39,96.8,86.28Z"/>
    </g>
  </g>
</svg>
