<svg xmlns="http://www.w3.org/2000/svg" xmlns:xlink="http://www.w3.org/1999/xlink" width="342.38" height="317.08" viewBox="0 0 342.38 317.08">
  <defs>
    <style>
      .cls-1 {
        isolation: isolate;
      }

      .cls-10, .cls-2 {
        opacity: 0.5;
      }

      .cls-3 {
        fill: #ff0;
      }

      .cls-4 {
        fill: url(#linear-gradient);
      }

      .cls-5, .cls-6 {
        fill: #7f2811;
      }

      .cls-5, .cls-7 {
        stroke: #5b180b;
      }

      .cls-11, .cls-5, .cls-7, .cls-9 {
        stroke-miterlimit: 10;
      }

      .cls-5 {
        opacity: 0.6;
      }

      .cls-10, .cls-5, .cls-6, .cls-8 {
        mix-blend-mode: multiply;
      }

      .cls-6, .cls-8 {
        opacity: 0.4;
      }

      .cls-7 {
        fill: url(#linear-gradient-2);
      }

      .cls-8 {
        fill: #b26e36;
      }

      .cls-10, .cls-9 {
        fill: #605448;
      }

      .cls-11, .cls-9 {
        stroke: #3d2c4f;
      }

      .cls-11 {
        mix-blend-mode: screen;
        fill: url(#linear-gradient-3);
      }
    </style>
    <linearGradient id="linear-gradient" x1="-1560.66" y1="3685.99" x2="-1455.38" y2="3685.99" gradientTransform="translate(-1429.31 -3344.54) rotate(-47.71)" gradientUnits="userSpaceOnUse">
      <stop offset="0" stop-color="#ffc871"/>
      <stop offset="1" stop-color="#efb560"/>
    </linearGradient>
    <linearGradient id="linear-gradient-2" x1="-1560.66" y1="3544.69" x2="-1455.38" y2="3544.69" xlink:href="#linear-gradient"/>
    <linearGradient id="linear-gradient-3" x1="-1518.01" y1="3649.17" x2="-1508.52" y2="3649.17" gradientTransform="translate(1765.27 -3418.86)" xlink:href="#linear-gradient"/>
  </defs>
  <g class="cls-1">
    <g id="Layer_1" data-name="Layer 1">
      <g>
        <path class="cls-2" d="M342.31,273.35a11.59,11.59,0,0,1-.26,1.43,11.74,11.74,0,0,1-8.33,8.59l-5.62,1.52c0,.24,0,.47,0,.71,0,0,0,.52,0,.57a16,16,0,0,1-.11,1.84c-.05.44-.11.88-.2,1.3,0,.16-.13.59-.13.6a15.53,15.53,0,0,1-1.14,3.17l-.31.6a15.86,15.86,0,0,1-2,2.81l-.48.51c-.29.29-.58.57-.88.83a12.48,12.48,0,0,1-1.59,1.17,16.12,16.12,0,0,1-8.43,2.56l-1,5.77A11.74,11.74,0,0,1,292.45,314l-38.07-34.63a11.75,11.75,0,0,1-3.74-7.13l-3.08-23.08L50.93,70.33,49.5,71.9a11.75,11.75,0,0,1-19.26-2.78L8.51,24.2A11.74,11.74,0,0,1,23.17,8.08L70,25.46a11.77,11.77,0,0,1,7.32,8.23,11.8,11.8,0,0,1-2.73,10.68l-1.43,1.57L269.75,224.79l23.26.88a11.8,11.8,0,0,1,7.46,3.05l9,8.22a11.67,11.67,0,0,1,3.2,4.83,11.81,11.81,0,0,1,5.11,2.72l20.73,18.86A11.73,11.73,0,0,1,342.31,273.35Z"/>
        <path class="cls-3" d="M335,266a14.46,14.46,0,0,1-.25,1.44,11.77,11.77,0,0,1-8.34,8.58l-5.62,1.52c0,.24,0,.47,0,.71,0,0,0,.52,0,.58a15.91,15.91,0,0,1-.11,1.83,13.08,13.08,0,0,1-.2,1.3c0,.16-.13.59-.13.6a15.32,15.32,0,0,1-1.14,3.17l-.31.6a15.86,15.86,0,0,1-2,2.81l-.48.51c-.29.29-.58.57-.88.83a12.48,12.48,0,0,1-1.59,1.17,16.09,16.09,0,0,1-8.43,2.56l-1,5.77a11.74,11.74,0,0,1-19.47,6.69L247,272.05a11.75,11.75,0,0,1-3.74-7.13l-3.08-23.08L43.59,63l-1.43,1.57A11.75,11.75,0,0,1,22.9,61.78L1.17,16.86A11.74,11.74,0,0,1,15.83.74L62.61,18.12a11.77,11.77,0,0,1,7.32,8.23A11.8,11.8,0,0,1,67.2,37L65.78,38.6,262.41,217.45l23.26.88a11.8,11.8,0,0,1,7.46,3l9,8.22a11.67,11.67,0,0,1,3.2,4.83,11.81,11.81,0,0,1,5.11,2.72L331.2,256A11.74,11.74,0,0,1,335,266Z"/>
        <g>
          <polygon class="cls-4" points="254.94 263.37 293.01 298 297.54 271.69 323.3 264.69 302.57 245.84 285.98 247.39 294.26 238.28 285.23 230.07 250.32 228.74 254.94 263.37"/>
          <polygon class="cls-5" points="254.94 263.37 293.01 298 297.54 271.69 323.3 264.69 302.57 245.84 285.98 247.39 294.26 238.28 285.23 230.07 250.32 228.74 254.94 263.37"/>
          <polygon class="cls-6" points="272.04 278.92 293.01 298 297.54 271.69 323.3 264.69 311.39 253.86 282.55 258.06 269.12 245.84 272.04 278.92"/>
          <path class="cls-7" d="M305.64,272.64c7.64,6.95,1.25,14-6.38,7L38.06,42.1l6.39-7Z"/>
          <polygon class="cls-8" points="50 52.96 61.64 50.71 44.45 35.08 38.06 42.1 50 52.96"/>
          <path class="cls-6" d="M307.89,281.64c1.9-1.65,1.78-5.33-2.25-9L44.45,35.08,41,38.88Z"/>
          <polygon class="cls-9" points="11.74 11.74 33.47 56.66 45.99 42.9 58.52 29.13 11.74 11.74"/>
          <polygon class="cls-10" points="58.52 29.13 11.74 11.74 45.99 42.9 58.52 29.13"/>
          <rect class="cls-11" x="247.26" y="226.92" width="9.49" height="6.71" transform="translate(-87.91 261.76) rotate(-47.71)"/>
        </g>
      </g>
    </g>
  </g>
</svg>
