<svg xmlns="http://www.w3.org/2000/svg" xmlns:xlink="http://www.w3.org/1999/xlink" width="224.3" height="523.07" viewBox="0 0 224.3 523.07">
  <defs>
    <style>
      .cls-1, .cls-11 {
        fill: none;
      }

      .cls-2 {
        isolation: isolate;
      }

      .cls-13, .cls-16, .cls-3 {
        opacity: 0.3;
      }

      .cls-4 {
        fill: #e7ff00;
      }

      .cls-5 {
        opacity: 0.11;
      }

      .cls-42, .cls-6 {
        fill: #fbd1b5;
      }

      .cls-6 {
        stroke: #cca183;
      }

      .cls-11, .cls-17, .cls-19, .cls-28, .cls-30, .cls-32, .cls-40, .cls-6, .cls-7 {
        stroke-miterlimit: 10;
      }

      .cls-10, .cls-7 {
        fill: #b9c0b0;
      }

      .cls-7 {
        stroke: #2c9b59;
      }

      .cls-8 {
        fill: #3093e6;
      }

      .cls-9 {
        fill: #097cc1;
      }

      .cls-11 {
        stroke: #878e6f;
      }

      .cls-12, .cls-28, .cls-33, .cls-40 {
        fill: #eeeded;
      }

      .cls-13, .cls-19 {
        fill: #717070;
      }

      .cls-13, .cls-15, .cls-16, .cls-23, .cls-26, .cls-33, .cls-36, .cls-39, .cls-48 {
        mix-blend-mode: multiply;
      }

      .cls-14 {
        fill: #342517;
      }

      .cls-15, .cls-16 {
        fill: #644f43;
      }

      .cls-15, .cls-23 {
        opacity: 0.5;
      }

      .cls-17 {
        fill: #a58484;
      }

      .cls-17, .cls-28, .cls-30, .cls-32, .cls-40 {
        stroke: #ba9b9b;
      }

      .cls-17, .cls-28, .cls-32 {
        stroke-width: 2px;
      }

      .cls-18 {
        fill: #c2c3c3;
      }

      .cls-19 {
        stroke: #5b4343;
      }

      .cls-20 {
        fill: #585857;
      }

      .cls-21, .cls-23 {
        fill: #7e4f25;
      }

      .cls-22 {
        fill: #442a19;
      }

      .cls-24 {
        fill: #ead3d3;
      }

      .cls-25 {
        fill: #878787;
      }

      .cls-27 {
        fill: #b3b2b2;
      }

      .cls-29 {
        fill: #dadada;
      }

      .cls-30, .cls-32 {
        fill: #f7f5f5;
      }

      .cls-31 {
        fill: #a3a3a3;
      }

      .cls-34, .cls-36 {
        fill: #afb0b0;
      }

      .cls-35 {
        fill: #9f9f9f;
      }

      .cls-37, .cls-39 {
        fill: #78c8c1;
      }

      .cls-38 {
        fill: #5ebeb6;
      }

      .cls-40 {
        stroke-width: 0.75px;
      }

      .cls-41 {
        clip-path: url(#clip-path);
      }

      .cls-43 {
        fill: #eac1a4;
      }

      .cls-44 {
        fill: #6b6f70;
      }

      .cls-45, .cls-48 {
        fill: #4b5157;
      }

      .cls-46 {
        fill: #808588;
      }

      .cls-47 {
        fill: #899497;
      }

      .cls-48 {
        opacity: 0.4;
      }

      .cls-49 {
        fill: #cca183;
      }

      .cls-50 {
        fill: #db9d8e;
      }

      .cls-51 {
        fill: #fff;
      }

      .cls-52 {
        fill: #3d2e17;
      }

      .cls-53 {
        fill: #2d2b21;
      }

      .cls-54 {
        fill: #f2f0e9;
      }

      .cls-55 {
        fill: #f4a198;
      }

      .cls-56 {
        fill: #60201e;
      }

      .cls-57 {
        fill: #fff7f4;
      }

      .cls-58 {
        fill: #f58778;
      }

      .cls-59 {
        fill: #f97a98;
      }

      .cls-60 {
        fill: #aa7959;
      }
    </style>
    <clipPath id="clip-path">
      <path class="cls-1" d="M35,284.46s9.73-1.4,13.11-1.08c0,0,3.29,6.24,7.83,4.53s5.16-4.61.86-10.35-9.21-14.4-18-13S35,284.46,35,284.46Z"/>
    </clipPath>
  </defs>
  <g class="cls-2">
    <g id="Layer_1" data-name="Layer 1">
      <g>
        <path class="cls-3" d="M103.52,523.07c-23.75,0-46.16-1.69-63.12-4.75s-34.06-8-34.06-21.48c0-12.09,13.61-19.13,45.24-23.2A11.58,11.58,0,0,1,53,464.39c-.86-8.41-3.14-28.14-4-33.86-.63-4.18-.46-10.55-.14-19.8.12-3.28.27-7.58.23-9.75-1.1-2.05-3.59-7.14-1-13-.14-.86-.34-2-.53-3.12l-.14-.76c-.67-3.87-2.5-12.88-4.09-20.42-4-.46-6.68-.83-7.11-.9l-.2,0a10.56,10.56,0,0,1-9-10.27v-.23c0-.09-.3-18.93-.31-30.08v-.31c0-8.55.91-21.08,1.42-27.45-.17-.27-.34-.56-.49-.85-.31-.6-.53-1.1-.76-1.65a4.22,4.22,0,0,1-.18-.45c-4.95-12.52-7-45.82-6.45-60,.66-17.43,11.63-56.32,15.9-66.77,5.1-12.5,15.68-14.72,23.4-16.33,1.72-.36,3.31-.69,4.82-1.11.81-.22,1.68-.49,2.63-.82.61-.49,1.25-.95,1.92-1.4A51.08,51.08,0,0,1,54.11,121.5a24.07,24.07,0,0,1-10.89-13.09c-.59-1.59-5.57-15.8.63-24.7a14.6,14.6,0,0,1,1.2-1.5,65.91,65.91,0,0,1,1.42-26.69A72.12,72.12,0,0,1,48.72,48a12.36,12.36,0,0,1,.9-5.15l.12-.29C57,25.86,66.67,20.92,73,19.58,80.4,11,92.87,6.34,108.89,6.34A86.61,86.61,0,0,1,119,7c31.29,3.73,42,34.74,42.41,36.06a10.52,10.52,0,0,1,.54,3.7,57,57,0,0,1,1.51,30.57,88,88,0,0,1-.85,9.35,14.25,14.25,0,0,1,3.39,4c5.8,10.12-1.82,23.7-2.7,25.22A25.1,25.1,0,0,1,150.46,127a56.15,56.15,0,0,1-12.45,19,11.12,11.12,0,0,1,1.94,2c.12.15.23.3.34.46,6.68,2.88,9.49,4,10.65,4.5l1.44.55a25.64,25.64,0,0,1,8,4.28,11.94,11.94,0,0,1,.32-2.66,11.58,11.58,0,0,1,6.17-7.68,15.33,15.33,0,0,1,7.18-1.81,14.92,14.92,0,0,1,3.54.43c3.18-11.24,7.07-19.85,15.73-19.85a10.57,10.57,0,0,1,5.55,1.58,14,14,0,0,1,3.52,3.07,13,13,0,0,1,2.83-.3,12.07,12.07,0,0,1,7.3,2.46,13,13,0,0,1,5.09,8.37,11.36,11.36,0,0,1,4,3.5c1.71,2.42,3.3,6.59,1.13,12.77a14.8,14.8,0,0,1-.65,1.59,12,12,0,0,1,2.28,7c.19,10.27-9.06,14.2-17.06,16.5a29.38,29.38,0,0,1-3.64,4,38.66,38.66,0,0,1,1.63,10.22v.29a10.56,10.56,0,0,1-2.23,6.64c-4.3,9.83-20,42.58-40.18,46a20.51,20.51,0,0,1-3.3.28,19,19,0,0,1-11-3.38c0,.2,0,.38,0,.56-.05,1.91.25,2.62,1.86,6.07a98,98,0,0,1,7.44,22.22c4.61,21,9.06,68.93,9.25,71a10.59,10.59,0,0,1-6.32,10.67l.06,1.87c0,.38,0,.66,0,.87v.34c.26,8.13.58,17.88,1.09,21.27,3.49,6,1.87,11.94.86,15.21-.13,2.23,1,9.05,1.9,14.07.39,2.27.8,4.65,1.19,7.13.8,4.94,1.63,11.11,2.43,17.07.86,6.46,2.05,15.31,2.58,17.24a24.11,24.11,0,0,1,1,5.4,13.52,13.52,0,0,1,3.57,7.2,13.15,13.15,0,0,1-1.08,7.47,16.64,16.64,0,0,1-.14,4.64c14.26,3.26,26.47,8.65,26.47,19.95,0,12.67-14.93,19.79-49.88,23.76a38.71,38.71,0,0,1-8.62,1c-.41,0-.83,0-1.24,0C129.16,522.57,116.57,523.07,103.52,523.07Zm0-52.46c5.61,0,11.16.1,16.61.29a12.77,12.77,0,0,1,.76-3.23c-.34-1.49-.89-3.59-1.14-4.57-1.84-7-10.41-41.57-12-51.11-.33-1.92-.6-3.89-.85-5.83-.22,6.17-1.07,17.15-2.82,37.66-.5,5.77-.91,10.61-1.1,13.2-.29,4.18-.2,8-.14,11.14,0,.84,0,1.66,0,2.45Z"/>
        <path class="cls-4" d="M97.17,516.73C73.43,516.73,51,515,34.06,512S0,504,0,490.5c0-12.09,13.61-19.14,45.24-23.2A11.61,11.61,0,0,1,46.63,458c-.86-8.4-3.15-28.14-4-33.85-.63-4.18-.46-10.55-.14-19.8.11-3.29.27-7.59.23-9.76-1.1-2-3.59-7.13-1-13-.14-.86-.34-2-.53-3.12l-.14-.77c-.67-3.86-2.51-12.87-4.09-20.41-4-.46-6.69-.83-7.11-.9l-.2,0a10.56,10.56,0,0,1-9-10.27v-.23c0-.1-.31-18.93-.31-30.09v-.31c0-8.54.91-21.07,1.42-27.44-.18-.28-.34-.56-.49-.85-.31-.61-.54-1.11-.77-1.65l-.18-.45c-4.94-12.53-7-45.83-6.44-60,.66-17.44,11.63-56.32,15.89-66.77,5.11-12.5,15.69-14.72,23.41-16.33,1.71-.36,3.3-.69,4.82-1.11.8-.22,1.68-.49,2.62-.82.62-.49,1.26-1,1.93-1.4a51,51,0,0,1-14.83-23.5,24,24,0,0,1-10.89-13.08c-.59-1.59-5.57-15.8.63-24.7a14.6,14.6,0,0,1,1.2-1.5,66,66,0,0,1,1.42-26.7,69.61,69.61,0,0,1,2.25-7.54,12.36,12.36,0,0,1,.9-5.15l.12-.29c7.23-16.67,16.93-21.61,23.27-22.95C74.05,4.65,86.53,0,102.55,0a84.49,84.49,0,0,1,10.14.61c31.29,3.72,42,34.74,42.41,36.06a10.42,10.42,0,0,1,.53,3.69,56.88,56.88,0,0,1,1.51,30.57,85.57,85.57,0,0,1-.84,9.36,14.25,14.25,0,0,1,3.39,4c5.8,10.12-1.82,23.7-2.71,25.22a25.08,25.08,0,0,1-12.86,11.08,56.15,56.15,0,0,1-12.45,19,11.13,11.13,0,0,1,1.94,2c.12.15.23.3.34.46,6.68,2.88,9.48,4,10.65,4.49l1.44.55a26.18,26.18,0,0,1,8,4.28,11.92,11.92,0,0,1,.32-2.65,11.58,11.58,0,0,1,6.17-7.68,15.3,15.3,0,0,1,7.18-1.81,14.48,14.48,0,0,1,3.54.43c3.17-11.24,7.07-19.85,15.72-19.85a10.57,10.57,0,0,1,5.56,1.57,14.05,14.05,0,0,1,3.51,3.08,13,13,0,0,1,2.83-.3,12.14,12.14,0,0,1,7.31,2.45,13,13,0,0,1,5.09,8.38,11.45,11.45,0,0,1,4,3.5c1.71,2.41,3.3,6.59,1.13,12.77-.18.51-.4,1-.65,1.58a12.16,12.16,0,0,1,2.28,7c.19,10.26-9.06,14.2-17.06,16.49a29.48,29.48,0,0,1-3.64,4,38.66,38.66,0,0,1,1.63,10.21v.3a10.62,10.62,0,0,1-2.23,6.64c-4.3,9.83-20,42.57-40.19,46a20.3,20.3,0,0,1-3.29.28,19,19,0,0,1-11-3.39c0,.2,0,.39,0,.57-.05,1.91.25,2.62,1.85,6.07a97,97,0,0,1,7.45,22.22c4.61,21,9.06,68.93,9.24,71a10.54,10.54,0,0,1-6.32,10.66l.07,1.88c0,.38,0,.66,0,.87a1.93,1.93,0,0,1,0,.34c.27,8.13.59,17.87,1.1,21.26,3.49,6,1.86,11.95.86,15.21-.13,2.24,1,9.06,1.9,14.07.38,2.27.79,4.66,1.19,7.14.8,4.93,1.62,11.1,2.42,17.07.87,6.46,2.06,15.31,2.58,17.23a23.8,23.8,0,0,1,1,5.41,13.57,13.57,0,0,1,3.57,7.19,13.26,13.26,0,0,1-1.08,7.48,17,17,0,0,1-.14,4.64c14.26,3.25,26.47,8.65,26.47,19.95,0,12.67-14.93,19.78-49.88,23.76a38.78,38.78,0,0,1-8.62,1c-.42,0-.83,0-1.24,0C122.81,516.23,110.22,516.73,97.17,516.73Zm0-52.46c5.61,0,11.16.1,16.62.28a12.79,12.79,0,0,1,.76-3.22c-.34-1.49-.89-3.6-1.14-4.57-1.84-7-10.42-41.57-12-51.11-.33-1.92-.61-3.89-.85-5.83C100.3,406,99.46,417,97.7,437.48c-.49,5.77-.9,10.6-1.09,13.2-.29,4.18-.21,8-.14,11.14,0,.84,0,1.66,0,2.45Z"/>
        <g>
          <ellipse class="cls-5" cx="97.17" cy="490.5" rx="86.6" ry="15.66"/>
          <g>
            <g>
              <path class="cls-6" d="M109.44,135.88c-3.64,1.55-6.78,4.67-10.46,6.09-1.25.48-3.14-.41-4.52-.5a23.52,23.52,0,0,1-3.81-.83c-1.79-.41-4.42-2.6-6.14-3.08,0,2-2.79,5.94-3,7.89s-1.25.79-1.48,2.7l4.16,3.09a30.91,30.91,0,0,0,4.53,2.66c1.75.91,3.13,2.21,4.83,3.15,3,1.66,6.27-.93,8.85-2.3,1.62-.86,3.18-1.8,4.81-2.64,1-.54,2.8-3.64,3.46-4.54C110.54,142.85,109.61,140.61,109.44,135.88Z"/>
              <path class="cls-7" d="M107.32,143.87c-1.35.73-2.71,1.46-4.16,2.07-1.71.73-4,2.17-6,2a16.61,16.61,0,0,1-6.12-2.17,40,40,0,0,1-4.48-2.27h-4.4s-15,7.76-27.12,12.07L71.29,260.94l43.15-1.14,9.66-109.69A76,76,0,0,1,107.32,143.87Z"/>
              <path class="cls-8" d="M108.58,224.68c-.42-4.56-9.89-61.59-10.61-63.68a5.22,5.22,0,0,0-1.92-.66,6.31,6.31,0,0,0-3.06.41,78.44,78.44,0,0,0-1.83,8.66c-.62,3.38-1.09,6.79-1.53,10.21-.84,6.65-5.2,49.44-5.2,55.82,1.92,2.6,8.92,11.44,11.24,11.31,1.81-.1,10.34-10.11,14-13.56C109.45,230.35,108.84,227.47,108.58,224.68Z"/>
              <path class="cls-9" d="M86.35,153.68a27.6,27.6,0,0,0,3,5.16c1.48,2,2.9,3.28,3.53,3.28,2,0,5,0,5.28-.13,1.4-.47,2.47-2.05,3.42-3.43.28-.42.54-.8.8-1.14a10.57,10.57,0,0,0,.94-1.54c.15-.31.32-.63.51-.94a5,5,0,0,1-.45-2.37l0-.57a12.13,12.13,0,0,0-2.41-2.55c-1,.1-1.93.18-2.81.21a20.12,20.12,0,0,1-5.73-.63,19.59,19.59,0,0,0-3.65,3l-1.15,1.11-.23.23-.07.06a.31.31,0,0,1-.11.21C87,153.87,86.67,153.82,86.35,153.68Z"/>
              <g>
                <path class="cls-10" d="M77.21,150.42c.54.47,1.11,1,1.68,1.48a16.32,16.32,0,0,1,1.41,1.19,55,55,0,0,1,4.76,5.21c.18.2.35.41.53.63l.08.09a14.08,14.08,0,0,1,1.61-3.65,17.47,17.47,0,0,1,2-2.5l.45-.5c2.68-3,4.94-4,6.28-4.35a10.22,10.22,0,0,1-1-.37c-.62-.25-1.23-.52-1.85-.78l-2.1-.9a45.5,45.5,0,0,1-7.24-3.68l-.19-.17-.78-.72a24,24,0,0,0-2.8,3.76c-.19.31-.38.63-.58.94l-.26.39A23.56,23.56,0,0,0,77.21,150.42Zm20.91-2.22c3.73,1.82,6.54,7.64,7.67,10.33a33,33,0,0,0,4.33-3.49c1.22-1.15,2.39-2.38,3.38-3.43l.6-.62a8,8,0,0,0,2-2.59c-.67-.68-1.18-1.22-1.65-1.73-.74-.82-1.46-1.69-2.16-2.52s-1.54-1.86-2.37-2.76c0,.35,0,.7.08,1l0,.2-.18.09c-.91.43-1.8,1-2.65,1.47s-1.71,1-2.62,1.46A56.24,56.24,0,0,1,98.12,148.2Z"/>
                <path class="cls-11" d="M77.21,150.42c.54.47,1.11,1,1.68,1.48a16.32,16.32,0,0,1,1.41,1.19,55,55,0,0,1,4.76,5.21c.18.2.35.41.53.63l.08.09a14.08,14.08,0,0,1,1.61-3.65,17.47,17.47,0,0,1,2-2.5l.45-.5c2.68-3,4.94-4,6.28-4.35a10.22,10.22,0,0,1-1-.37c-.62-.25-1.23-.52-1.85-.78l-2.1-.9a45.5,45.5,0,0,1-7.24-3.68l-.19-.17-.78-.72a24,24,0,0,0-2.8,3.76c-.19.31-.38.63-.58.94l-.26.39A23.56,23.56,0,0,0,77.21,150.42Zm20.91-2.22c3.73,1.82,6.54,7.64,7.67,10.33a33,33,0,0,0,4.33-3.49c1.22-1.15,2.39-2.38,3.38-3.43l.6-.62a8,8,0,0,0,2-2.59c-.67-.68-1.18-1.22-1.65-1.73-.74-.82-1.46-1.69-2.16-2.52s-1.54-1.86-2.37-2.76c0,.35,0,.7.08,1l0,.2-.18.09c-.91.43-1.8,1-2.65,1.47s-1.71,1-2.62,1.46A56.24,56.24,0,0,1,98.12,148.2Z"/>
              </g>
            </g>
            <path class="cls-12" d="M100,259.59a9.11,9.11,0,0,0-4.32-.34c-2,.15-3.91.22-5.87.51a0,0,0,0,0,0,.09c3.32.44,6.75-.22,10.09,0C100.09,259.88,100.19,259.67,100,259.59Z"/>
            <path class="cls-12" d="M101.29,260.17a.82.82,0,0,0-.61-.35.14.14,0,0,0-.16.17.82.82,0,0,0,.41.49C101.13,260.61,101.45,260.36,101.29,260.17Z"/>
            <path class="cls-13" d="M88.76,288.22c.82,8.89,1.41,18.18,6.1,26.16.67-2-.14-4.4-.54-6.43-.47-2.37-.54-4.83-.79-7.23a148.24,148.24,0,0,1-1.18-16.43,112,112,0,0,1,2-19.76l-5.56.06C86.32,272.12,88.06,280.57,88.76,288.22Z"/>
            <g>
              <g>
                <path class="cls-14" d="M86,473.29c-.24-2.25-.32-6.42-1.83-8.28,0-.07-.54,1.84-.59,1.78a1.27,1.27,0,0,0-.32-.3l-.1-.12a.18.18,0,0,0-.21,0,2.32,2.32,0,0,0-.85,0c-1.62.17-3.16.37-4.8.42-3.42.11-6.83.47-10.25.55-1.55,0-4.24.55-5.62-.29a.09.09,0,0,1,0-.05c0-.11-.13-.12-.22-.08s-.37.09-.32.24a.75.75,0,0,0,.18.28c-.52,3.12-3.82,5.89-6.36,8a51.93,51.93,0,0,1-10.4,6.5c-3.55,1.68-7.41,2.79-11.06,4.28a6.89,6.89,0,0,0-4.65,6c-.32,2.2-.41,4.9,2.26,6.1,3.54,1.59,7.64,1.51,11.52,1.34,4.16-.2,8.38-.36,12.52-.77a44.43,44.43,0,0,0,7.48-1.38,25.26,25.26,0,0,0,8.39-4.06A57.13,57.13,0,0,0,77,487.27c2-2.06,4.69-2.5,7.42-3.62a3.13,3.13,0,0,0,2.31-3.51C86.62,477.88,86.23,475.54,86,473.29Z"/>
                <path class="cls-15" d="M58.38,472c3.63.62,6.95,2.35,10.71,2.42,3.31.05,6.24-1.27,9.29-2.19,1.87-.55,4.53-1.35,6.4-.35a4.18,4.18,0,0,1,1.17.9c-.2-2.32-.37-6.06-1.78-7.8,0-.07-.54,1.84-.59,1.78a1.27,1.27,0,0,0-.32-.3l-.1-.12a.18.18,0,0,0-.21,0,2.32,2.32,0,0,0-.85,0c-1.62.17-3.16.37-4.8.42-3.42.11-6.83.47-10.25.55-1.55,0-4.24.55-5.62-.29a.09.09,0,0,1,0-.05c0-.11-.13-.12-.22-.08s-.37.09-.32.24a.75.75,0,0,0,.18.28A9.49,9.49,0,0,1,58.38,472Z"/>
                <path class="cls-16" d="M83.88,481.37a26.54,26.54,0,0,1-4.59,1.9c-2.31.77-3.52,2.15-5.08,3.67a30.31,30.31,0,0,1-9,6.56,49.76,49.76,0,0,1-11,3.17,60,60,0,0,1-12.57.79c-3.63-.13-7.22-.33-10.59-1.6a5,5,0,0,1-2.65-1.95,4.17,4.17,0,0,0,2.41,4.28c3.54,1.59,7.64,1.51,11.52,1.34,4.16-.2,8.38-.36,12.52-.77a44.43,44.43,0,0,0,7.48-1.38,25.26,25.26,0,0,0,8.39-4.06A57.13,57.13,0,0,0,77,487.27c2-2.06,4.69-2.5,7.42-3.62a3.13,3.13,0,0,0,2.31-3.51c0-.25,0-.5,0-.75A14.38,14.38,0,0,1,83.88,481.37Z"/>
              </g>
              <g>
                <path class="cls-14" d="M156.15,469.65a5.86,5.86,0,0,1-1.36-3.06,12.11,12.11,0,0,1,.63-3.19s0-.08,0-.11a1.09,1.09,0,0,0,0-.18.46.46,0,0,0-.54-.38c-2.2.28-4.28.9-6.46,1.27l-6.75,1.15c-2.36.41-4.73.71-7.09,1.05s-4.48,1-6.84.9c-.3,0-.42.34-.11.41l.27,0c.33,1.65.74,3.29,1,5a17.34,17.34,0,0,1-.51,6.12c-1.14,4.93-3.14,9.67-3.87,14.68-.5,3.44-.65,7.92,3.51,9.86,4.91,2.28,12.08,1.78,17-.06a24.14,24.14,0,0,0,4.13-2c6.33-3.89,7.18-10.76,7.12-16.82a57.51,57.51,0,0,1,.46-11.05A4.4,4.4,0,0,0,156.15,469.65Z"/>
                <path class="cls-15" d="M127.59,467.51l.27,0c.33,1.65.74,3.29,1,5a13.85,13.85,0,0,1,.1,1.7,21.41,21.41,0,0,0,8.42,3.32c4.37.69,7.6-.95,11.32-2.61,1.76-.78,3.66-1.48,5.34-2.38,1-.51,1.78-1.21,2.66-1.8a4.86,4.86,0,0,0-.52-1.09,5.86,5.86,0,0,1-1.36-3.06,12.11,12.11,0,0,1,.63-3.19s0-.08,0-.11a1.09,1.09,0,0,0,0-.18.46.46,0,0,0-.54-.38c-2.2.28-4.28.9-6.46,1.27l-6.75,1.15c-2.36.41-4.73.71-7.09,1.05s-4.48,1-6.84.9C127.4,467.09,127.28,467.44,127.59,467.51Z"/>
                <path class="cls-16" d="M156.15,469.65c-.25-.39-.5-.75-.71-1.1-.25,1.91-.57,3.82-.7,5.75-.25,4.12-.31,8.25-.84,12.36-.77,5.88-2.15,12.73-9.37,15.44-5.4,2-13.69,3.18-18.85-1.66-1.23-1.15-1.4-2.74-1.46-4.73-.12,2.9.5,6,3.74,7.46,4.91,2.28,12.08,1.78,17-.06a24.14,24.14,0,0,0,4.13-2c6.33-3.89,7.18-10.76,7.12-16.82a57.51,57.51,0,0,1,.46-11.05A4.4,4.4,0,0,0,156.15,469.65Z"/>
              </g>
              <g>
                <path class="cls-17" d="M83.86,341.52a14.26,14.26,0,0,1,10.88-4.29c6.73.41,13.18,1.09,13.18,1.09V287.61h-28Z"/>
                <path class="cls-18" d="M83.61,342.27l-4.07-54.94h28.69v51.32l-.34,0c-.07,0-6.52-.69-13.17-1.1a14,14,0,0,0-10.62,4.2ZM80.2,287.9l3.92,52.94a14.5,14.5,0,0,1,10.64-3.9c5.79.36,11.43.92,12.85,1.06V287.9Z"/>
              </g>
              <path class="cls-19" d="M50.37,264.94l78.94-.74s13.56,58.05,14.29,79.55.89,34.05,2.43,36.05,1.4,4,.2,7.82,1,13.74,2.88,25.58,4.13,31.83,5.32,35.69-.16,6.85,2.39,8.71,2.05,3.5.94,5,.34,5.78-.43,6.36-12.88,6.49-17.74,6.92-8.7-2.79-10.16-3.21-1.1-3.21-3-4.57-2.73-2.28-1.71-3.71.94-2.43-1.1-10.28-10.34-41.37-11.84-50.22-1.94-19.61-3.31-22-2.5-3.53-1.14-5.43,1.83-3,1.83-4.38-5.85-16.56-9.73-37.26c-2.36-12.55-6.23-17.29-6.23-17.29s-6,42-6,48.27-2.08,10.09,0,12,1.84,3.43.93,4.95,1.14,7.62,1.82,12.18-3.2,45.3-3.88,55,.46,17.51-.57,18.36S71,473.58,68.61,473.44,58.65,470.78,58,470s-3.07-5.62-2.39-6.28a8.65,8.65,0,0,0,1.94-2.19c.22-.67-3.41-32.07-4.44-38.93s.93-28.74-.1-31.11-2.61-3.81-1.36-6,1.13-2.47-.12-9.61-5.91-29.31-6.6-32.07-7.13-33.43-5-78.88Z"/>
              <g>
                <path class="cls-20" d="M94.38,314.27a3.23,3.23,0,0,0,.37-.37c-.33-7.14-1.24-14.17-1.74-21.27-.54-7.87-.29-15.79-.51-23.68,0-.22-.17-.15-.17,0-.08,7.89-.1,15.85.32,23.73C93,299.94,93.87,307.07,94.38,314.27Z"/>
                <path class="cls-20" d="M94.16,314.27a2.4,2.4,0,0,0,.41-.3c-1.72-6.55-2.13-13.3-2.66-20.54a224.61,224.61,0,0,1-.53-24.21c0-.31-.23-.24-.26,0-1.18,8.46-.37,17.82.27,26.37C91.82,301.39,92.06,309.39,94.16,314.27Z"/>
              </g>
              <path class="cls-13" d="M104.47,357.72c2.47.17,36.93-3.71,39.46-4.05-.05-2.86-2.79-22.3-2.64-25.15.27-5.4-30.3,3.27-30.28-2.14a362.58,362.58,0,0,0-4.85-62l-25.79.26c.38,5.08.7,10.15,1,15.22.4,7.1.9,14.23,1.09,21.34a54.9,54.9,0,0,1-1.46,15c.38,6.43-38.57,3.93-38.45,10.4.1,5.37,5.83,24.51,6.09,29.92,2.18.26,38.19,1,40.38.63,1.61-14.43,4.76-39.68,4.76-39.68s3.49,4.74,5.62,17.29C100.43,341,103.31,352.79,104.47,357.72Z"/>
            </g>
            <g>
              <g>
                <rect class="cls-21" x="82.03" y="261.09" width="25.89" height="6.29"/>
                <path class="cls-22" d="M108.23,267.67H81.72V260.8h26.51Zm-25.89-.57h25.27v-5.73H82.34Z"/>
              </g>
              <path class="cls-23" d="M82,261.09v6.3h25.89v-6.3Zm19.79,2.62c-.1,1.09.48,1.69-.63,2.35-1.28.75-4.23.58-5.61.51-2.33-.12-8.52.8-8.29-2.66.08-1.14.59-2.1,2-2l.33,0c1.91-.07,3.79-.2,5.71-.15A27.45,27.45,0,0,1,100,262C101.21,262.12,101.93,262.48,101.82,263.71Z"/>
              <g>
                <path class="cls-24" d="M99.1,259.17H90.49c-3.25,0-3.53,2.26-3.53,5s.28,5,3.53,5H99.1c3.25,0,3.42-2.25,3.42-5S102.35,259.17,99.1,259.17Zm-1,8.44H91.52c-2.47,0-2.67-1.53-2.67-3.41s.2-3.4,2.67-3.4h6.53c2.46,0,2.59,1.52,2.59,3.4S100.51,267.61,98.05,267.61Z"/>
                <path class="cls-25" d="M98.05,267.9H91.52c-3,0-3-2.23-3-3.7s0-3.69,3-3.69h6.53c2.9,0,2.9,2,2.9,3.69S101,267.9,98.05,267.9Zm-6.53-6.82c-2,0-2.36,1-2.36,3.12s.35,3.13,2.36,3.13h6.53c2.13,0,2.28-1.19,2.28-3.13s-.15-3.12-2.28-3.12Z"/>
              </g>
              <g class="cls-26">
                <path class="cls-27" d="M88.85,264.2v-.09c0,.11-.08.23-.11.34a5.93,5.93,0,0,0,0,2.66,2.3,2.3,0,0,0,1.63,1.08,18.12,18.12,0,0,0,3.12.3,18,18,0,0,0,4.76-.33,2.74,2.74,0,0,0,2.34-3.34c0,1.59-.4,2.79-2.58,2.79H91.52C89.05,267.61,88.85,266.08,88.85,264.2Z"/>
                <path class="cls-27" d="M99.83,260.81a2.64,2.64,0,0,0-1.56-.47,26.32,26.32,0,0,0-3.55-.1,25.53,25.53,0,0,0-3.53.22,3.66,3.66,0,0,0-1.52.86,2.74,2.74,0,0,1,1.85-.52h6.53c1.83,0,2.37.84,2.53,2.05A2.59,2.59,0,0,0,99.83,260.81Z"/>
              </g>
            </g>
            <path class="cls-28" d="M68.61,348.77h0A305.23,305.23,0,0,1,31.53,346l-.26,0v-.24c0-.19-.31-19.26-.31-30.27s1.68-30.09,1.7-30.28V285l2.88-1-.2-1.33a4.3,4.3,0,0,1-1.92.44,6,6,0,0,1-2.64-.67l-.07-.05,0-.08c-4.14-8.25-6.79-41.24-6.19-56.8.6-15.74,11.28-53.77,15.12-63.17,3-7.32,8.93-8.55,15.81-10,1.76-.37,3.59-.75,5.43-1.26,8.72-2.39,19.86-8.42,20-8.48l.46-.25v.5c0,.52-2,.41-2.12.6-.42.85-1.48,7.21-.83,13,.41,3.68.84,8.47,1.2,12.7l2,10.1c1.33,15.81,6.5,55.42,6.89,78.1.41,23.9,0,88.67,0,89.32v.21l-.23.06C83.53,348.15,76.93,348.77,68.61,348.77Z"/>
            <path class="cls-28" d="M35.58,316h0c-1.35,0-2.8-.06-4.34-.19l-.28,0v-.37c0-11,1.68-30.09,1.7-30.28V285l2.24-.76c.52-.13,1-.25,1.54-.34a47.53,47.53,0,0,1,6.72-.6l1.18-.05a86.5,86.5,0,0,1,8.67,0h.28v.27c.13,3.41.25,7.09.22,10.82v1.1c0,4.25,0,9.07-1.89,13.12C49.36,313.48,44,316,35.58,316Z"/>
            <g>
              <path class="cls-29" d="M35.58,282.16l.24,1.51a22.59,22.59,0,0,1,2.54-.46c2.44-.25,4.92-.36,7.38-.44s4.83-.07,7.23,0c0-1-.08-2.08-.13-3.12h0a38.34,38.34,0,0,0-2.07-3.48,2.71,2.71,0,0,1-.56-1.36c0-.73.35-1.71-.1-2.36a21.6,21.6,0,0,0-3.71-3.69c-1.52-1.34-3.35-2.76-5.6-2.11-3.22.94-6.07,4-7.86,6.61-1.46,2.08-2.89,5.31-2.38,8,.13.31.26.59.39.85C31,282.16,33.43,283.59,35.58,282.16Z"/>
              <path class="cls-29" d="M35.56,284l-.21-1.38a4.3,4.3,0,0,1-1.92.44h0a6,6,0,0,1-2.64-.67l-.07-.05,0-.08c-.13-.26-.26-.55-.4-.87-.53-2.81.9-6.11,2.41-8.28s4.38-5.66,8-6.72a4.41,4.41,0,0,1,1.23-.18c1.87,0,3.39,1.21,4.68,2.35l.64.56a18.13,18.13,0,0,1,3.12,3.19,2.65,2.65,0,0,1,.21,1.94c0,.2-.05.4-.05.58a2.16,2.16,0,0,0,.42,1.08l.09.14c.24.42.5.82.77,1.22a14.42,14.42,0,0,1,1.31,2.29l0,.14.13,3.4-.34,0c-2.25-.11-4.65-.13-7.2,0-2.18.06-4.76.17-7.36.43a20.56,20.56,0,0,0-2.5.46Zm.26-2.36.25,1.66a17.59,17.59,0,0,1,2.25-.39c2.62-.27,5.21-.38,7.4-.45q3.68-.11,6.93,0l-.11-2.77a14.27,14.27,0,0,0-1.25-2.15c-.26-.41-.53-.82-.79-1.25l-.08-.14a2.68,2.68,0,0,1-.5-1.37c0-.2,0-.41.06-.63a2.3,2.3,0,0,0-.12-1.56,18,18,0,0,0-3-3.08L46.2,269c-1.2-1.06-2.62-2.19-4.26-2.19a3.81,3.81,0,0,0-1,.16c-3.59,1-6.58,4.88-7.69,6.48-1.45,2.08-2.83,5.22-2.33,7.82.1.22.21.47.32.7a5.27,5.27,0,0,0,2.23.55h0a3.45,3.45,0,0,0,2-.58Z"/>
            </g>
            <path class="cls-30" d="M67.37,164.94c.26.1.52.2.78.28,1.42.47,6.39,4.66,6.95,6.08a.59.59,0,0,1,0,.54,12.68,12.68,0,0,1-3.31,2.42c-1.39.85-3.29,2-3.36,2.54,0,0,0,0,0,.07,4.25,4.35,12.89,25.9,14.71,31,.69,1.92,1.53,4.31,2.38,6.81-1.3-18.24-2.8-36.12-3.46-43.94l-.2-2.49c-.36-4.22-.83-8.39-1.24-12.06-.81-7.19-1.21-11-.71-12l.22-.35c.29-.43.84-1.26,1.14-1.8a5.15,5.15,0,0,0-1.68.64l-1.29.67c-1.81.94-4.85,2.51-5,3.37-.29.88-.61,1.72-.91,2.53-.37,1-.76,2-1.08,3-.52,1.6-1,3.22-1.48,4.79-.25.79-.49,1.59-.73,2.38-.46,1.49-.88,2.84-1.34,4.2C67.6,164.29,67.47,164.69,67.37,164.94Z"/>
            <path class="cls-27" d="M47.94,161.44c-.06-.12-.25,0-.2.07.84,2,1.74,4,2.55,6.06s1.44,4.13,2.3,6.14c0,.11.23.06.21-.05C52.12,169.44,49.81,165.29,47.94,161.44Z"/>
            <path class="cls-31" d="M61,252.19l-.3-.9c-1.15-4.18-1.88-8.5-3.48-12.55,0-.11-.21,0-.18.06a69.59,69.59,0,0,1,1.9,7.25A71.87,71.87,0,0,0,54,234.53c-.06-.1-.22,0-.18.08,2.49,6,4.76,12.09,6.84,18.26a119.37,119.37,0,0,0,7.06,17.72c0,.07.16,0,.13-.06C65.18,264.55,63.05,258.37,61,252.19Z"/>
            <path class="cls-31" d="M53.86,176.52c0-.11-.18-.08-.18,0,.06,4.2-.26,8.34-.52,12.52-.28,4.4-.22,8.83-.41,13.24-.35,7.87-1.45,15.69-2,23.56-.21-.21-.43-.41-.65-.61-3.37-4-7.35-7.37-12.67-8.83-.1,0-.19.12-.08.16a21.41,21.41,0,0,1,7.1,3.91,37.4,37.4,0,0,1,3.11,2.92,26.87,26.87,0,0,0-6.37-2.78c-3.42-1-7-.51-9.55,2-.05.05,0,.14.09.09,3.14-2.47,6.74-2.62,10.5-1.33,2.94,1,5.22,2.81,7.77,4.36l.06.05s0,0,.06,0l.62.36c-.05.78-.11,1.56-.13,2.34-.4,8.79-.41,17.66-.46,26.46,0,6.67,2.37,14-.35,20.41-.13.3.32.48.47.19,1.43-2.77,1.45-6,1.33-9-.13-3.4-.69-6.77-.75-10.17-.09-4.43.11-8.88.21-13.32s0-9,.2-13.52c.32-8.94,1.62-17.81,2-26.74.17-4.41.13-8.83.33-13.24S54.57,180.82,53.86,176.52Z"/>
            <path class="cls-27" d="M49.21,289.86a57.66,57.66,0,0,1-2.64,7.83A32.24,32.24,0,0,1,41.78,305c-.15.18.09.35.25.2,4.4-3.78,6.41-10,7.36-15.36C49.42,289.76,49.24,289.75,49.21,289.86Z"/>
            <g>
              <path class="cls-32" d="M112.84,144.36s3.66,1.23,2.22,7.64-11.21,58.21-12,65.8-1.11,119.46,1.35,128.79c0,0,24.46,1,45.83-5.52,0,0-4.52-49.11-9-69.66s-9.75-21.66-9.54-30.8,5.44-33.53,5.44-33.53,4.1,28.17,17.67,25.88,29-30.83,33.29-42.25c0,0,.21-22.46-21.37-20.55l-9.25,20.93s-5.14-19.51-7.09-26-4.21-6.66-9.55-8.75S112.84,144.36,112.84,144.36Z"/>
              <path class="cls-33" d="M111.61,344.64c-4.76-2.75-5.58-8.69-6.32-13.43-.89-5.63-1.69-11.29-2.43-16.94.27,16.56.75,29.41,1.51,32.32,0,0,5,.19,12.38-.19A16.14,16.14,0,0,1,111.61,344.64Z"/>
              <path class="cls-28" d="M120.33,284.53c0,.08,0,.17,0,.26,0,1.31.16,2.74.35,4.49.14,1.29.25,2.6.36,3.87.12,1.42.24,2.89.4,4.32.58,5.07,1.3,11.37,6.64,14.39a18.67,18.67,0,0,0,9.07,2.48,14,14,0,0,0,6-1.3,19.15,19.15,0,0,0,3.52-2.18c-1.34-11.48-2.64-21.13-3.86-28.68-1.63.24-3.32.32-5,.4-1.16.05-2.26.1-3.29.2s-2.27.22-3.41.33c-2.91.26-5.92.53-8.8,1C121.7,284.26,121,284.39,120.33,284.53Z"/>
              <g class="cls-26">
                <path class="cls-34" d="M167.47,172.94a32.75,32.75,0,0,0,2.15,5.34,22,22,0,0,0,5,7.12c3.83,3.36,8.42,4.71,13.34,5.2,0-1.68-.67-22.17-21.23-20.46A20.85,20.85,0,0,0,167.47,172.94Z"/>
                <path class="cls-35" d="M188.32,190.92l-.35,0c-5.78-.57-10.07-2.25-13.52-5.28a22.76,22.76,0,0,1-5.11-7.2,34,34,0,0,1-2.17-5.38l0-.2a21.52,21.52,0,0,1-.65-2.63l0-.3.32,0c8.87-.74,15.45,2.64,18.94,9.74a27.34,27.34,0,0,1,2.63,11ZM167.13,170.4a23.31,23.31,0,0,0,.58,2.27l.06.2a31.94,31.94,0,0,0,2.13,5.29,22.08,22.08,0,0,0,5,7c3.27,2.88,7.35,4.49,12.81,5.09a27,27,0,0,0-2.56-10.44C181.75,173,175.7,169.79,167.13,170.4Z"/>
              </g>
              <path class="cls-36" d="M184.69,186c-1.82-3.33-4.06-6.74-7.26-9.1-2.91-2.13-6.34-3-9.86-3.63a33.28,33.28,0,0,0,2.05,5,19.86,19.86,0,0,0,17.24,12.18C186.21,188.94,185.48,187.43,184.69,186Z"/>
              <g>
                <path class="cls-37" d="M183.19,178.5a12.27,12.27,0,0,0-2-4.34,16.94,16.94,0,0,0-10.36-4.06c-.68,1.19-1.54,2.34-2.24,3.44-.21.33-.42.65-.62,1a35.49,35.49,0,0,0,1.62,3.76,22,22,0,0,0,5,7.12,19.1,19.1,0,0,0,5,3.15c.56-1,1.12-2.08,1.66-3.14.69-1.38,1.46-2.72,2.25-4A16.21,16.21,0,0,0,183.19,178.5Z"/>
                <path class="cls-38" d="M179.77,188.93l-.27-.12a19.71,19.71,0,0,1-5.05-3.21,22.76,22.76,0,0,1-5.11-7.2,37.8,37.8,0,0,1-1.64-3.79l0-.12.69-1.09c.28-.45.59-.91.91-1.37.45-.67.93-1.36,1.33-2.06l.1-.17.2,0A17.29,17.29,0,0,1,181.43,174l0,0a12.41,12.41,0,0,1,2,4.43,15.82,15.82,0,0,1,.37,2.92v.08l0,.07c-.87,1.45-1.61,2.76-2.24,4s-1.17,2.23-1.67,3.15Zm-11.44-14.38a39.23,39.23,0,0,0,1.57,3.61,22.08,22.08,0,0,0,5,7,18.69,18.69,0,0,0,4.61,3c.47-.86,1-1.86,1.53-2.88.63-1.26,1.36-2.56,2.22-4a15.73,15.73,0,0,0-.35-2.74,12.24,12.24,0,0,0-1.9-4.22,16.76,16.76,0,0,0-10-3.94c-.39.66-.83,1.31-1.26,1.93-.31.46-.62.91-.9,1.36Z"/>
              </g>
              <path class="cls-39" d="M183.55,181.37a16.21,16.21,0,0,0-.36-2.87,12.27,12.27,0,0,0-2-4.34,16.94,16.94,0,0,0-10.36-4.06c-.43.75-.92,1.47-1.41,2.18a4.55,4.55,0,0,0,.64,2.95,15.65,15.65,0,0,0,4.67,4.18c1.83,1.24,3.83,3,6.25,2.94"/>
              <path class="cls-40" d="M102.8,222.13l0-1.35c.05-1.47.11-2.47.17-3,.78-7.2,9-59.32,10.46-66,1.36-6-.7-7.11-.72-7.13l-.48-.23.45-.26a2,2,0,0,1,1-.19,4.68,4.68,0,0,1,1.12.15c4.22,1.06,6.45,2,6.92,3.94.82,2.55,1.61,5.18,2.36,7.72.45,1.52,1,3,1.51,4.52a57.37,57.37,0,0,1,2.24,7.39l.06.28-.3.06a19.47,19.47,0,0,0-5.26,2.12,27,27,0,0,1-3.93,1.8.1.1,0,0,0-.05,0c.43.47.83.89,1.24,1.3a32,32,0,0,1,5.23,6.31l.13.23-.24.15c-2.32,1.35-3.58,4.2-4.6,6.49l-.17.36c-.55,1.25-1.09,2.49-1.63,3.74-1.14,2.62-2.32,5.33-3.61,8-4,8.26-7.72,15.58-11.27,22.36Z"/>
              <path class="cls-31" d="M142.65,164.22a86.6,86.6,0,0,0-5.74,8.79c-1.74,2.87-4.13,5.51-5,8.74,0,.1.12.14.16.05.25-.56.54-1.11.84-1.64a155.47,155.47,0,0,1,2.45,18.35c.38,6.23.4,12.47.62,18.71,0,.09.14.07.14,0,.22-6.24.1-12.51-.27-18.75s-1-12.59-2.8-18.52h0c1.23-2.13,2.78-4.1,4-6.25,1.81-3.18,3.87-6.22,5.68-9.39C142.78,164.22,142.69,164.17,142.65,164.22Z"/>
              <path class="cls-27" d="M158.23,189.77s0-.05,0,0a31.81,31.81,0,0,0-3.06,6.53c-1.65,2.34-3.49,4.34-4.65,7a17.54,17.54,0,0,0-1.46,8c0,.21.29.14.31,0a24.4,24.4,0,0,1,1.76-8.28c.93-2.14,2.54-3.87,3.77-5.85-.18.59-.36,1.19-.51,1.78-.8,3.1-1.27,6.63-.41,9.76.05.18.34.09.32-.08a28.31,28.31,0,0,1,.54-9.62A48.45,48.45,0,0,1,158.23,189.77Z"/>
            </g>
            <g class="cls-41">
              <g>
                <path class="cls-42" d="M34.41,272c.21,1.09,2.3,16.61,2.65,22.5s2.66,10.22,6.54,10.76,2.12-22.73,3.72-23.46,4,6.15,7.74,4.84S50.5,276.1,49.4,274.1s-3.72-2.89-3.83-4.87-2.89-3.09-5.32-2.36S34.2,270.93,34.41,272Z"/>
                <path class="cls-6" d="M43.74,305.59h-.18c-3.88-.54-6.42-4.66-6.8-11-.35-5.85-2.45-21.41-2.65-22.47-.25-1.3,3.54-4.73,6-5.49a5.73,5.73,0,0,1,1.65-.24c2.22,0,4,1.23,4.07,2.85.06,1,.87,1.74,1.82,2.56a8.35,8.35,0,0,1,2,2.2c.24.43.87,1.27,1.59,2.24,2.26,3,5.68,7.6,5,9.72a1.61,1.61,0,0,1-1.07,1,3.24,3.24,0,0,1-1,.19c-2,0-3.47-1.85-4.69-3.33-.7-.86-1.42-1.73-1.86-1.73l-.11,0c-.45.38-.58,4.46-.69,8.07C46.49,299.2,46.11,305.59,43.74,305.59Z"/>
              </g>
              <path class="cls-43" d="M49.89,283.54c-1.06-2.18-2.86-4.7-5.8-3.77a.07.07,0,0,0,0,.13,3.88,3.88,0,0,1,4,1.77,6,6,0,0,0-3.61-.52c-.07,0-.09.12,0,.12a6.51,6.51,0,0,1,4.31,1.5.14.14,0,0,0,.15,0c.23.29.47.59.73.88C49.74,283.76,50,283.68,49.89,283.54Z"/>
            </g>
            <g>
              <g>
                <g>
                  <path class="cls-44" d="M72.54,242.37a4.67,4.67,0,0,1-3.41-1.3c-1.62-2-3.86-7.63-4-7.87l1.35-.45c0,.06,2.26,5.7,3.74,7.52,1.26,1.53,7.48,1.13,14.37-3l.77,1.11C80.46,241.34,75.71,242.56,72.54,242.37Z"/>
                  <path class="cls-45" d="M83.15,236.37a5.61,5.61,0,0,0,1.59,3.94s1.27,1.22,5.85-2.58a4.9,4.9,0,0,0-1.31-3.29S84.19,234.53,83.15,236.37Z"/>
                </g>
                <g>
                  <path class="cls-46" d="M71.34,242.22a4.62,4.62,0,0,0,3.2-1.7c1.33-2.14,2.78-8,2.85-8.26L76,232c0,.06-1.47,5.93-2.7,7.9-1,1.66-7.25,2-14.65-1.27l-.62,1.2C63.34,242.13,68.22,242.77,71.34,242.22Z"/>
                  <path class="cls-45" d="M60,237.49a5.56,5.56,0,0,1-1.05,4.11s-1.09,1.36-6.15-1.87a4.87,4.87,0,0,1,.86-3.42S58.7,235.79,60,237.49Z"/>
                </g>
                <path class="cls-45" d="M70.92,147.78a36.37,36.37,0,0,0,4-3.47c-4.46,1.55-8.37,3.81-11.24,7.74-5.86,8-3.84,19.87-2.5,27.7.21,1.24.41,2.38.56,3.41.55,3.76,1,6.1,1.26,7.54l-.41.16c-3.42,1.57-5.58,6.35-5.76,12.78C56.57,212,64.62,231.5,65,232.33l2.67-1c-.09-.2-8.19-19.86-8-27.67.15-5.27,1.29-8.78,3.67-9.87,1.45-.65,4.24-.27,6.44,1.21,6.91,4.66,8,27.84,5.52,36.16l2.75.72c2.46-8.16,1.74-33.67-7-39.59a10.76,10.76,0,0,0-5.18-2c-.28-1.33-.7-3.63-1.27-7.51-.15-1.05-.35-2.22-.57-3.47-1.34-7.87-3.18-18.64,2-25.81a15,15,0,0,1,2.21-2.41"/>
                <path class="cls-45" d="M64.44,182.78s1.19,7.2,1.32,7.85.32.91,1.31,1.24c0,0,.46,0,.25.58a8.12,8.12,0,0,0-.47,2.32c0,.59.13.82-.33.78s-2.24-.72-3.5.25c-.44.33-.54.26-.85-.36a20.27,20.27,0,0,1-1.07-2.54c-.08-.37.54-.44.86-.62s.63-.24.44-1.43-1.22-7.11-1.3-7.73.62-.74,1.39-1S64.36,182.2,64.44,182.78Z"/>
                <path class="cls-47" d="M63.49,191.66a.08.08,0,0,0,0-.1c0-.16.68-.21.72,0s0,.11,0,.17S63.39,191.78,63.49,191.66Z"/>
              </g>
              <g>
                <g>
                  <path class="cls-45" d="M125.87,223.44c-1.71,5-7.48,7.79-12.89,6.21s-8.42-6.93-6.71-11.94,7.48-7.79,12.89-6.21S127.58,218.42,125.87,223.44Z"/>
                  <path class="cls-48" d="M124.7,215.43a10.37,10.37,0,0,1,.57,4.28c-.2,3.39-1.62,6.11-5.07,7.58-3.74,1.58-8.48.5-11.61-1.74a7.3,7.3,0,0,1-2.67-3.58,9.74,9.74,0,0,0,7.06,7.68c5.41,1.58,11.18-1.2,12.89-6.21A8.89,8.89,0,0,0,124.7,215.43Z"/>
                  <path class="cls-47" d="M118.85,221.17A3.13,3.13,0,0,1,115,223a2.79,2.79,0,0,1-2-3.55,3.12,3.12,0,0,1,3.84-1.86A2.82,2.82,0,0,1,118.85,221.17Z"/>
                </g>
                <path class="cls-45" d="M125.19,148c-.42-.55-2.61-1.15-3.21-.77s-.31.48,1.06,2.16c5.53,6.79-3.16,50.63-6.82,66.29a1,1,0,0,0,0,.52.45.45,0,0,1,.22-.13,2.83,2.83,0,0,1,2.1.6,1.35,1.35,0,0,0,.24-.48c0-.14,3.35-14.41,5.81-29.59C125.85,178.85,129.69,154,125.19,148Z"/>
              </g>
            </g>
            <g>
              <g>
                <path class="cls-6" d="M183.28,176.15c7.61-1.77,10.94-9,10.94-9,12.36-3.19,13.2-5.29,13.17-7.16s-2.21-1.46-2.21-1.46l-10.54,2.66s10-8.59,11.71-13.41-1.43-4.45-5.44-.72-7.85,7.08-7.85,7.08-1.28,0-.35-1.8,7.53-13.61,7.53-13.61,1.49-2.19-.45-3.65-4.8,1.49-13.16,14.41c0,0-.57-1.6,1.81-10.35,0,0,1.7-6.77-1.51-8.75,0,0-2.47,0-6.79,16.77,0,0-2.48,8-4.92,9.6,0,0-.36.72-2-2.49s-4.55-5.75-8-3.76c0,0-1.86.62.75,3.23s3.15,4.92,3.86,9.13.72,4.21,2.94,8.32l-2.67,4.08s6.46,7.07,10.92,7.12l1.87-5.53"/>
                <g>
                  <path class="cls-42" d="M181.44,146.65s14.57,4.89,13.5,15.82"/>
                  <path class="cls-49" d="M181.44,146.65a21.79,21.79,0,0,1,5.23,2.08,20.36,20.36,0,0,1,4.59,3.36,14.66,14.66,0,0,1,3.21,4.75,11,11,0,0,1,.47,5.63,14.16,14.16,0,0,0-1.19-5.32,17.06,17.06,0,0,0-3.19-4.35,26.29,26.29,0,0,0-4.29-3.4A44.92,44.92,0,0,0,181.44,146.65Z"/>
                </g>
              </g>
              <path class="cls-6" d="M174.51,156.36s5.56,3,6.35,8.52"/>
            </g>
            <g>
              <path class="cls-6" d="M147.86,104.18c-3.91,6.67-11,8.95-16.29,5.85s-2.91-6.8,1-13.46,4-5.86,9.73-8C154.88,83.78,151.77,97.52,147.86,104.18Z"/>
              <path class="cls-50" d="M144.09,91.71a2.88,2.88,0,0,1,2.57.46c.92.8.93,2.2.73,3.4a19.89,19.89,0,0,1-6.21,10.92,5,5,0,0,1-1.7,1.16,1.89,1.89,0,0,1-1.94-.35,2.14,2.14,0,0,1-.25-2.2c.67-1.86,2.51-3,4-4.21a3.81,3.81,0,0,0,1.06-1.2,1.5,1.5,0,0,0-.06-1.53,2,2,0,0,0-1.08-.61,11,11,0,0,0-2.56-.23c-.25-1.3.9-2.41,1.7-3.24A7.71,7.71,0,0,1,144.09,91.71Z"/>
            </g>
            <g>
              <path class="cls-6" d="M46.79,98.4c2.6,7,8.36,10.06,13.18,7.53s3.17-6.44.57-13.48-2.76-6.24-7.39-9C43,77.38,44.19,91.36,46.79,98.4Z"/>
              <path class="cls-50" d="M51.3,86.4a2.18,2.18,0,0,0-2.23.19c-.86.69-1,2.09-1,3.3a21.41,21.41,0,0,0,4.1,11.51,4.41,4.41,0,0,0,1.32,1.33,1.43,1.43,0,0,0,1.68-.14,2.48,2.48,0,0,0,.45-2.16c-.38-1.92-1.82-3.21-3-4.61a3.73,3.73,0,0,1-.78-1.3A1.75,1.75,0,0,1,52.11,93a1.62,1.62,0,0,1,1-.49,7.65,7.65,0,0,1,2.19,0c.35-1.27-.51-2.49-1.1-3.4A6.73,6.73,0,0,0,51.3,86.4Z"/>
            </g>
            <path class="cls-6" d="M143.3,75.78c2.38-25.63-10.27-43.5-39.41-45.5-28.28-2-45.74,11.57-48.11,37.2-1.1,11.84.15,32.54.18,33.18,1.94,37.24,39.23,42.55,40.9,42.24,5.87-1.06,32,.16,40.79-36.61C137.8,105.66,142.2,87.62,143.3,75.78Z"/>
            <path class="cls-14" d="M86.31,72.9c-3.2-1.05-14.66-1.69-17.88,5.09,0,0,9.31-3,17.09-1.41C85.52,76.58,87.93,73.43,86.31,72.9Z"/>
            <path class="cls-14" d="M110.74,73.15c3.28-.73,14.75-.28,17.31,6.78,0,0-9-3.85-16.88-3C111.17,76.89,109.07,73.52,110.74,73.15Z"/>
            <path class="cls-50" d="M70.43,55.24s1.63,3.94,19.87,6.59a51.67,51.67,0,0,0,25.6-2.75l6.47-2.43s8.29-8.89,11.93,17.79l5.23,23,.69-47.82L73.63,39.05l-11,10.07-8,12.79s.28,20.74.78,29.75l4.88-19.85S67.8,71.2,70.43,55.24Z"/>
            <path class="cls-14" d="M133.49,55.84l0,3.26,6,38.34a135.62,135.62,0,0,0,5.34-13.18s2.77-12.19,1.32-21.05a34.2,34.2,0,0,0,.23,7s7.08-22.83-8.88-39.68A16.62,16.62,0,0,0,145.07,40s-8.64-25.93-33.63-28.91c-13.07-1.55-32.19-.33-39.07,12.39,0,0-10.72-2.82-19.27,16.91,0,0-2.31,5.77,10.41-9.85,0,0-8.48,1.95-13.11,21.11C46,69.75,50,80.35,55,93.65c0,0,.16-15,4.92-25.88l.2,2.42s4.45,0,9.3-18.59c0,0-1.9,2.94,11.24,6.63a83.25,83.25,0,0,0,45.84-.35Z"/>
            <g>
              <g>
                <ellipse class="cls-51" cx="115.66" cy="93.27" rx="8.86" ry="8.5" transform="translate(15.94 203.42) rotate(-86.73)"/>
                <path class="cls-52" d="M124.19,93.76a9.18,9.18,0,0,1-2.73,6.14,8.61,8.61,0,0,1-6.32,2.57,8.7,8.7,0,0,1-6.34-3,9.45,9.45,0,0,1,.76-13.17,8.72,8.72,0,0,1,6.63-2.24,8.6,8.6,0,0,1,6,3.27A9.23,9.23,0,0,1,124.19,93.76Zm-.08,0A9,9,0,0,0,122,87.46a8.2,8.2,0,0,0-12-.68,9.08,9.08,0,0,0-.7,12.29,8.2,8.2,0,0,0,12,.7A9,9,0,0,0,124.11,93.75Z"/>
              </g>
              <ellipse class="cls-53" cx="115.69" cy="92.89" rx="5.51" ry="5.29" transform="translate(16.34 203.09) rotate(-86.73)"/>
              <ellipse class="cls-54" cx="117.76" cy="90.31" rx="1.6" ry="1.53" transform="translate(20.88 202.73) rotate(-86.73)"/>
            </g>
            <g>
              <g>
                <ellipse class="cls-51" cx="80.61" cy="91.15" rx="8.85" ry="8.5" transform="translate(-14.99 166.42) rotate(-86.73)"/>
                <path class="cls-52" d="M89.13,91.63a9.14,9.14,0,0,1-2.73,6.14,8.61,8.61,0,0,1-12.65-.41A9.44,9.44,0,0,1,74.5,84.2,8.72,8.72,0,0,1,81.13,82a8.6,8.6,0,0,1,6,3.27A9.13,9.13,0,0,1,89.13,91.63Zm-.07,0A9,9,0,0,0,87,85.34a8.2,8.2,0,0,0-12-.67,9.06,9.06,0,0,0-.7,12.27,8.19,8.19,0,0,0,12,.7A9,9,0,0,0,89.06,91.63Z"/>
              </g>
              <ellipse class="cls-53" cx="80.63" cy="90.77" rx="5.5" ry="5.29" transform="translate(-14.6 166.09) rotate(-86.73)"/>
              <ellipse class="cls-54" cx="82.97" cy="88.73" rx="1.6" ry="1.53" transform="translate(-10.35 166.5) rotate(-86.73)"/>
            </g>
            <g>
              <path class="cls-55" d="M81.67,115.56S88.35,130,97.46,130.63c10.29.67,15.31-14.56,15.31-14.56S97.63,120.94,81.67,115.56Z"/>
              <path class="cls-56" d="M83.32,116.6s6.87,10.77,16,10.2c7.53-.46,11.59-10.56,11.59-10.56S99.27,122,83.32,116.6Z"/>
              <path class="cls-57" d="M85.81,116.75s3.27,7.16,14.68,5.82c0,0,6.23-.35,8.16-5C108.65,117.58,96.06,121.35,85.81,116.75Z"/>
              <path class="cls-58" d="M79.35,114.76a1.45,1.45,0,0,0,.44.3c7.09,3.38,24.34,8.38,34.11-1.18,0,0-4.51,4-14.15,4.53S79.35,114.76,79.35,114.76Z"/>
              <path class="cls-59" d="M92.4,125.16a6.7,6.7,0,0,1,5.35-.81s2.51-1.58,6.6.56A10.24,10.24,0,0,1,92.4,125.16Z"/>
            </g>
            <path class="cls-14" d="M97.46,108.49s9.25,8.8-2.88,8.49c-5-.12-14.25-1.21-14.25-1.21l.91,2.73L79.45,116a2.71,2.71,0,0,1,2.21-4.29h0c11.26-3.34,13.23-4.4,15.8-3.19Z"/>
            <path class="cls-14" d="M97.73,108.34s-7.85,8.64,2.76,8.49c4.82-.07,13.66-1.21,13.66-1.21l-.87,2.73,1.8-2.65a2.67,2.67,0,0,0-2.2-4.17h0c-5.72-1.52-9.66-2.88-15.15-3.19Z"/>
            <g>
              <path class="cls-42" d="M91,104.58a13.63,13.63,0,0,0,5.36,3.61c3.15,1,8.07-2.84,8.07-2.84"/>
              <path class="cls-60" d="M91,104.58a22.27,22.27,0,0,0,3.15,2.12,12.15,12.15,0,0,0,1.68.78,4,4,0,0,0,1.67.38A9.35,9.35,0,0,0,101,107a36,36,0,0,0,3.43-1.66,13.3,13.3,0,0,1-3.09,2.37,8.1,8.1,0,0,1-3.85,1.14,5,5,0,0,1-2-.51,9.15,9.15,0,0,1-1.72-1A10.65,10.65,0,0,1,91,104.58Z"/>
            </g>
            <path class="cls-40" d="M50.48,259.69l1.06,13.5c-16.19,2.6-20.75,9.22-20.75,9.22S28.51,278,27.45,266"/>
          </g>
        </g>
      </g>
    </g>
  </g>
</svg>
