<svg id="Layer_1" data-name="Layer 1" xmlns="http://www.w3.org/2000/svg" width="298.73" height="267.01" viewBox="0 0 298.73 267.01">
  <defs>
    <style>
      .cls-1 {
        opacity: 0.5;
      }

      .cls-2 {
        fill: #ff0;
      }

      .cls-3 {
        fill: #fac213;
        stroke: #c48d05;
      }

      .cls-10, .cls-3, .cls-4, .cls-5, .cls-6, .cls-8, .cls-9 {
        stroke-miterlimit: 10;
      }

      .cls-10, .cls-3 {
        stroke-width: 0.5px;
      }

      .cls-4 {
        fill: #ccad56;
      }

      .cls-4, .cls-8 {
        stroke: #d8a209;
      }

      .cls-4, .cls-5, .cls-6, .cls-8, .cls-9 {
        stroke-width: 0.75px;
      }

      .cls-5 {
        fill: #af924b;
        stroke: #bf9222;
      }

      .cls-6 {
        fill: #9e8346;
        stroke: #967012;
      }

      .cls-7 {
        fill: #fff;
        opacity: 0.17;
      }

      .cls-8, .cls-9 {
        fill: #7f6634;
      }

      .cls-9 {
        stroke: #665222;
      }

      .cls-10 {
        fill: #bc8813;
        stroke: #996b10;
      }
    </style>
  </defs>
  <g>
    <path class="cls-1" d="M152.73,267c-36.77,0-71.43-2.74-97.61-7.72C21.67,252.92,6.75,244,6.75,230.49v-.28a10.14,10.14,0,0,1,.11-1.46,17.29,17.29,0,0,1,3.85-9l.41-.73c.29-.51.6-1.06.92-1.6l.59-1,1-1.62.69-1.05.95-1.42.72-1c.34-.47.67-.93,1-1.39.21-.3.46-.64.72-1l1-1.31.7-.87,1.15-1.37.65-.77c.45-.52.91-1,1.38-1.54l.4-.45c.63-.68,1.24-1.32,1.86-1.95l.48-.47c.45-.46.91-.91,1.37-1.35l.65-.62,1.23-1.13.74-.67,1.13-1,.76-.64,1.11-.92c.24-.2.53-.42.81-.64s.68-.55,1-.82l.76-.59L36.1,191l.74-.53c.36-.27.74-.53,1.12-.8l.69-.48,1.25-.83.51-.34c.6-.39,1.17-.75,1.74-1.1l.09-.06,1.67-1,1.68-1L47.2,184l.64-.34.92-.48,1.5-.75.68-.33,1.39-.66.73-.33c.48-1,1-1.9,1.52-2.82l.34-.58a64.22,64.22,0,0,1,3.69-5.64l.34-.46c.64-.85,1.28-1.67,1.93-2.46,0,0,.32-.39.34-.4.64-.77,1.29-1.52,2-2.24s1.45-1.54,2.14-2.22l.39-.38c.66-.65,1.33-1.28,2-1.88l.28-.25c.7-.62,1.34-1.16,2-1.69l.12-.1c.75-.61,1.42-1.13,2.09-1.63l.42-.32c.61-.45,1.25-.92,1.89-1.36l.27-.18c.59-.41,1.18-.79,1.76-1.16l.28-.18c.6-.38,1.2-.74,1.79-1.09l.28-.16c.67-.39,1.23-.71,1.78-1l.91-.48.31-.52.55-1c.1-.2.6-1.26.6-1.26l.62-1.46.61-1.6c.18-.51.38-1.06.57-1.63l.62-1.92.61-2,.6-2.15.59-2.22.59-2.33.6-2.48.58-2.49,2-9,2-9.13.7-3,.72-3.11.75-3.09L96,98.89l.82-3.17.83-3.11.9-3.2.94-3.2c.19-.64.4-1.29.6-1.95l.38-1.23c.34-1,.68-2.12,1-3.18,4.3-12.81,11.84-22.63,21.83-28.71a31.95,31.95,0,1,1,58.85,0C190.54,56.17,199,64.88,204,79.85c4.5,13.41,7.56,27.29,10.26,39.54,2.95,13.37,6,27.15,9.65,33.06a66.15,66.15,0,0,1,28.53,28.7c10.9,4.93,30.12,16.28,42.37,38.69a17.47,17.47,0,0,1,3.74,8.34,11,11,0,0,1,.17,2.81c-.36,13.27-15.32,22-48.37,28.3C224.16,264.27,189.49,267,152.73,267Zm0-231.48a3.18,3.18,0,1,0,3.17,3.18A3.18,3.18,0,0,0,152.74,35.53Z"/>
    <path class="cls-2" d="M146,260.26c-36.77,0-71.43-2.74-97.61-7.72C14.92,246.17,0,237.29,0,223.74v-.27A11.82,11.82,0,0,1,.11,222,17.24,17.24,0,0,1,4,213c.08-.16.4-.73.4-.73.29-.51.6-1.06.92-1.6l.59-1,1-1.61L7.57,207l.95-1.42.72-1,1-1.39c.21-.3.47-.64.72-1s.67-.87,1-1.31l.69-.88,1.15-1.37.65-.77c.45-.52.91-1,1.38-1.54l.4-.45c.63-.68,1.24-1.32,1.86-1.95l.48-.47c.45-.46.91-.91,1.37-1.35l.65-.62,1.23-1.13.74-.66,1.13-1,.76-.64,1.11-.92.81-.64c.32-.26.69-.54,1-.82l.76-.59c.4-.3.76-.57,1.13-.83l.73-.53c.36-.27.74-.53,1.13-.8l.68-.48,1.25-.83.51-.34c.6-.38,1.17-.75,1.74-1.1l.1-.06,1.66-1,1.68-1,1.61-.89.65-.34.92-.48,1.49-.75.68-.33,1.39-.66.73-.33c.48-1,1-1.9,1.52-2.82l.34-.58a64.06,64.06,0,0,1,3.69-5.63l.34-.47c.64-.85,1.28-1.67,1.93-2.46,0,0,.32-.39.34-.4.64-.77,1.29-1.52,2-2.23s1.45-1.55,2.14-2.23l.39-.38c.66-.65,1.33-1.28,2-1.88l.28-.25c.7-.61,1.34-1.16,2-1.69l.12-.1c.75-.61,1.42-1.13,2.09-1.63l.42-.32c.61-.45,1.25-.92,1.89-1.36l.27-.18c.6-.4,1.18-.79,1.76-1.16l.28-.18c.6-.38,1.2-.74,1.79-1.09l.28-.16c.67-.39,1.24-.71,1.78-1l.91-.49.31-.52.55-1c.1-.2.6-1.26.6-1.26l.62-1.46.61-1.6c.18-.51.38-1.06.57-1.62l.62-1.93.61-2,.6-2.15.59-2.22.59-2.33.6-2.48.58-2.49,2-9,2-9.13.7-3,.72-3.11.75-3.08.77-3.13L90.05,89l.83-3.11.9-3.2.94-3.2c.19-.64.4-1.29.6-1.95l.39-1.23c.33-1,.67-2.12,1-3.18,4.3-12.81,11.84-22.63,21.83-28.71a32,32,0,1,1,58.85,0c8.37,5.05,16.79,13.76,21.82,28.73,4.49,13.41,7.55,27.29,10.25,39.54,2.95,13.37,6,27.15,9.65,33.06a66.13,66.13,0,0,1,28.53,28.71c10.9,4.92,30.12,16.27,42.37,38.68a17.51,17.51,0,0,1,3.74,8.34,11,11,0,0,1,.17,2.81c-.36,13.27-15.32,22-48.37,28.3C217.41,257.52,182.74,260.26,146,260.26Zm0-231.48A3.18,3.18,0,1,0,149.16,32,3.19,3.19,0,0,0,146,28.78Z"/>
    <g>
      <path class="cls-3" d="M146,10.8A21.16,21.16,0,1,0,167.15,32,21.16,21.16,0,0,0,146,10.8Zm0,35.13a14,14,0,1,1,14-14A14,14,0,0,1,146,45.93Z"/>
      <path class="cls-4" d="M187,76.54c-8.78-26.19-29.76-28.49-37.8-28.36q-3.21,0-6.42,0c-8-.13-29,2.17-37.8,28.36-11,32.73-13.18,69.06-24.35,79H211.35C200.17,145.6,198,109.27,187,76.54Z"/>
      <path class="cls-5" d="M207.63,153.19c-8-5-32.52-8.65-61.45-8.65-28.14,0-52.05,3.45-60.75,8.24a55.31,55.31,0,0,0-31.17,30.11H237.71A55.41,55.41,0,0,0,207.63,153.19Z"/>
      <path class="cls-6" d="M236.84,182.43c-11.87-6.92-47.93-12-90.57-12-41.47,0-76.72,4.76-89.54,11.39C50.1,184.11,23.8,194.61,10.8,223.5H281.18C269.05,196.55,245.35,185.6,236.84,182.43Z"/>
      <path class="cls-7" d="M87.17,174.17c4-23.23,24.18-27.68,24.18-27.68.81-72.92,35.07-92,49.5-96.77a40.68,40.68,0,0,0-11.65-1.54q-3.21,0-6.42,0c-8-.13-29,2.17-37.8,28.36-10.53,31.39-13,66.08-23,77.68a55.47,55.47,0,0,0-27.64,28.52c-9.12,3.54-31.76,14.63-43.52,40.76H54.68L56,204.55C60.64,176.83,87.17,174.17,87.17,174.17Z"/>
      <g>
        <ellipse class="cls-8" cx="145.98" cy="223.74" rx="135.18" ry="25.73"/>
        <ellipse class="cls-9" cx="145.98" cy="212.95" rx="122.76" ry="14.94"/>
        <path class="cls-10" d="M121.12,217.34a24.86,24.86,0,1,0,40.7-19.15c-5.19-.12-10.48-.18-15.84-.18s-10.65.06-15.85.18A24.81,24.81,0,0,0,121.12,217.34Z"/>
      </g>
    </g>
  </g>
</svg>
