<svg id="Layer_1" data-name="Layer 1" xmlns="http://www.w3.org/2000/svg" width="403.41" height="483.28" viewBox="0 0 403.41 483.28">
  <defs>
    <style>
      .cls-1 {
        opacity: 0.5;
      }

      .cls-2 {
        fill: #ff0;
      }

      .cls-3 {
        fill: #0fd174;
      }

      .cls-4 {
        fill: #72341e;
      }

      .cls-5 {
        fill: #d4855a;
      }

      .cls-6 {
        fill: #dc9d6f;
      }

      .cls-7 {
        fill: #c86935;
      }

      .cls-8 {
        fill: #912a14;
      }

      .cls-9 {
        fill: #474745;
      }

      .cls-10 {
        fill: #7c7c7b;
      }

      .cls-11 {
        fill: #787878;
      }

      .cls-12 {
        fill: #b1b1b1;
      }

      .cls-13 {
        fill: #aa5530;
      }

      .cls-14 {
        fill: #655a84;
      }
    </style>
  </defs>
  <g>
    <path class="cls-1" d="M389.08,9h-8.95a14.27,14.27,0,0,0-3.5.43L254.54,40.06H23.29A14.33,14.33,0,0,0,9,54.39V443.14a14.9,14.9,0,0,0,.15,2.12v4.82a14.33,14.33,0,0,0,14.34,14.33h231.1l.55,0,121.66,18.46a14.27,14.27,0,0,0,3.55.44h8.77a14.41,14.41,0,0,0,14.33-14.43V23.29A14.32,14.32,0,0,0,389.08,9Z"/>
    <path class="cls-2" d="M380.13,0h-9a14.63,14.63,0,0,0-3.49.43L245.58,31.1H14.33A14.34,14.34,0,0,0,0,45.44V434.18a13.48,13.48,0,0,0,.16,2.12v4.82a14.32,14.32,0,0,0,14.33,14.33h231.1l.55,0L367.8,473.88a14.39,14.39,0,0,0,3.55.44h8.78a14.41,14.41,0,0,0,14.33-14.43V14.33A14.34,14.34,0,0,0,380.13,0Z"/>
    <g>
      <rect class="cls-3" x="22.45" y="50.45" width="211.54" height="385.68"/>
      <polygon class="cls-4" points="18.34 49.45 18.34 433.87 30.91 434.19 34.27 433.87 34.27 62.13 222.45 62.13 222.45 433.87 226.75 434.17 240.55 433.87 240.55 49.45 18.34 49.45"/>
      <g>
        <g>
          <polygon class="cls-5" points="371.17 459.89 380.13 459.89 380.13 14.33 371.17 14.33 247.17 45.48 247.17 441.09 371.17 459.89"/>
          <polyline class="cls-6" points="380.13 459.99 371.35 459.99 371.35 14.33 380.13 14.33"/>
          <polygon class="cls-7" points="352.05 42.28 345.09 51.13 271.01 70.81 264.61 64.81 345.87 43.89 352.05 42.28"/>
          <polygon class="cls-6" points="352.05 42.28 351.78 282.34 345.03 275.53 345.03 51.03 352.05 42.28"/>
          <polygon class="cls-8" points="345.03 50.9 345.03 275.39 270.79 275.52 270.79 70.58 345.03 50.9"/>
          <polygon class="cls-7" points="351.63 303.92 345.09 310.6 271.03 309.12 263.81 302.19 269.7 302.13 351.63 303.92"/>
          <polygon class="cls-6" points="351.78 303.89 352.05 427.81 345.03 419.64 345.03 310.57 351.78 303.89"/>
          <polygon class="cls-6" points="352.05 427.81 345.87 426.68 264.47 413.83 271.01 407.97 345.09 419.65 352.05 427.81"/>
          <polygon class="cls-8" points="345.03 310.45 345.03 419.76 270.79 408.05 270.79 308.84 345.03 310.45"/>
          <path class="cls-5" d="M270.79,308.84v99.21L345,419.76V310.45Zm0-238.39V275.39l74.24-.13V50.76Z"/>
          <g>
            <path class="cls-9" d="M366.48,277.18l-10.49.38a.82.82,0,0,1-.84-.84V237.37a.86.86,0,0,1,.25-.61h0a.82.82,0,0,1,.58-.28l10.48-.38a.83.83,0,0,1,.84.85v39.34a.89.89,0,0,1-.24.62h0A.86.86,0,0,1,366.48,277.18Z"/>
            <path class="cls-10" d="M356.67,277.88l10.47-.38a.9.9,0,0,0,.84-.9V236.09a.82.82,0,0,0-.84-.84l-10.47.38a.91.91,0,0,0-.84.91V277A.82.82,0,0,0,356.67,277.88Z"/>
            <g>
              <polygon class="cls-11" points="364.92 260.18 357.85 260.43 357.85 252.14 358.21 251.76 365.28 251.5 365.28 259.8 364.92 260.18"/>
              <polygon class="cls-12" points="357.85 260.26 365.28 259.99 365.28 251.28 357.85 251.55 357.85 260.26"/>
              <polygon class="cls-9" points="362.58 257.72 362.58 258.45 335.58 259.43 335.58 258.71 335.58 254.2 335.58 253.48 362.58 252.5 362.58 253.22 362.58 257.72"/>
              <polygon class="cls-10" points="335.58 258.71 362.58 257.72 362.58 252.5 335.58 253.48 335.58 258.71"/>
            </g>
            <path class="cls-9" d="M361.92,271.77a.3.3,0,0,1-.58,0l-.79-3.29c0-1.18,2.15-1.26,2.15-.08Z"/>
          </g>
          <polygon class="cls-6" points="351.46 281.91 269.7 282.63 264.61 282.46 271.11 275.39 345.26 275.27 351.46 281.91"/>
        </g>
        <polygon class="cls-7" points="270.79 308.6 270.79 408.57 264.04 414.49 263.81 301.85 270.79 308.6"/>
        <polygon class="cls-7" points="271.59 70.36 271.59 275.8 264.85 282.63 264.85 65.04 271.59 70.36"/>
      </g>
      <polygon class="cls-13" points="14.33 45.44 14.33 434.18 30.91 434.18 30.91 58.26 226.76 58.26 226.76 434.18 245.59 434.18 245.59 45.44 14.33 45.44"/>
      <rect class="cls-14" x="245.36" y="125.84" width="1.6" height="30.48"/>
      <rect class="cls-14" x="245.36" y="325.58" width="1.6" height="30.48"/>
      <polygon class="cls-4" points="30.91 434.18 226.76 434.18 222.45 433.87 34.27 433.87 30.91 434.18"/>
      <rect class="cls-13" x="14.49" y="434.19" width="231.1" height="6.93"/>
    </g>
  </g>
</svg>
