<svg id="Layer_1" data-name="Layer 1" xmlns="http://www.w3.org/2000/svg" width="297.5" height="262.12" viewBox="0 0 297.5 262.12">
  <defs>
    <style>
      .cls-1 {
        opacity: 0.5;
      }

      .cls-2 {
        fill: #ff0;
      }

      .cls-3 {
        fill: #e23939;
        stroke: #b72c2c;
        stroke-miterlimit: 10;
        stroke-width: 2px;
      }
    </style>
  </defs>
  <g>
    <path class="cls-1" d="M20.71,262.12A12.74,12.74,0,0,1,9.67,243l132-228.67a12.73,12.73,0,0,1,22.07,0L295.79,243a12.74,12.74,0,0,1-11,19.11Z"/>
    <path class="cls-2" d="M12.74,254.16A12.75,12.75,0,0,1,1.71,235l132-228.67a12.74,12.74,0,0,1,22.07,0L287.83,235a12.75,12.75,0,0,1-11,19.12Z"/>
    <polygon class="cls-3" points="144.77 12.74 210.78 127.08 276.79 241.42 144.77 241.42 12.74 241.42 78.75 127.08 144.77 12.74"/>
  </g>
</svg>
