<svg id="Layer_1" data-name="Layer 1" xmlns="http://www.w3.org/2000/svg" width="258.99" height="408.88" viewBox="0 0 258.99 408.88">
  <defs>
    <style>
      .cls-1 {
        opacity: 0.5;
      }

      .cls-2 {
        fill: #ff0;
      }

      .cls-3 {
        fill: #512c1e;
      }

      .cls-4 {
        fill: #cac9c7;
      }

      .cls-5 {
        fill: #eabc95;
      }

      .cls-6 {
        fill: #f49398;
      }

      .cls-7 {
        fill: #341c0e;
      }

      .cls-8 {
        fill: #654324;
      }

      .cls-9 {
        fill: #33302e;
      }

      .cls-10 {
        fill: #341d0f;
      }

      .cls-11 {
        fill: #949393;
      }

      .cls-12 {
        fill: #351d0e;
      }

      .cls-13 {
        fill: #983341;
      }

      .cls-14 {
        fill: #361d0e;
      }

      .cls-15 {
        fill: #323131;
      }

      .cls-16 {
        fill: #c7a17b;
      }

      .cls-17 {
        fill: #c19c78;
      }

      .cls-18 {
        fill: #363330;
      }

      .cls-19 {
        fill: #3d3d3c;
      }

      .cls-20 {
        fill: #351810;
      }

      .cls-21 {
        fill: #432712;
      }

      .cls-22 {
        fill: #41403f;
      }

      .cls-23 {
        fill: #402613;
      }

      .cls-24 {
        fill: #484646;
      }

      .cls-25 {
        fill: #36190f;
      }

      .cls-26 {
        fill: #4d3123;
      }

      .cls-27 {
        fill: #381e11;
      }

      .cls-28 {
        fill: #674528;
      }

      .cls-29 {
        fill: #424142;
      }

      .cls-30 {
        fill: #381a11;
      }

      .cls-31 {
        fill: #553022;
      }

      .cls-32 {
        fill: #3a3939;
      }

      .cls-33 {
        fill: #3b1d14;
      }

      .cls-34 {
        fill: #624831;
      }

      .cls-35 {
        fill: #573f31;
      }

      .cls-36 {
        fill: #583c25;
      }

      .cls-37 {
        fill: #464544;
      }

      .cls-38 {
        fill: #373636;
      }

      .cls-39 {
        fill: #504f4f;
      }

      .cls-40 {
        fill: #3d2211;
      }

      .cls-41 {
        fill: #4c3525;
      }

      .cls-42 {
        fill: #5a3d25;
      }

      .cls-43 {
        fill: #4c2f1f;
      }

      .cls-44 {
        fill: #4a2d16;
      }

      .cls-45 {
        fill: #442215;
      }

      .cls-46 {
        fill: #3d2017;
      }

      .cls-47 {
        fill: #341910;
      }

      .cls-48 {
        fill: #575656;
      }

      .cls-49 {
        fill: #4f3119;
      }

      .cls-50 {
        fill: #5e4128;
      }

      .cls-51 {
        fill: #4d4b4b;
      }

      .cls-52 {
        fill: #414141;
      }

      .cls-53 {
        fill: #4d4c4d;
      }

      .cls-54 {
        fill: #3f2219;
      }

      .cls-55 {
        fill: #53392a;
      }

      .cls-56 {
        fill: #503525;
      }

      .cls-57 {
        fill: #56371c;
      }

      .cls-58 {
        fill: #523628;
      }

      .cls-59 {
        fill: #371e0e;
      }

      .cls-60 {
        fill: #4a4848;
      }

      .cls-61 {
        fill: #593c26;
      }

      .cls-62 {
        fill: #545454;
      }

      .cls-63 {
        fill: #6e342f;
      }

      .cls-64 {
        fill: #543829;
      }

      .cls-65 {
        fill: #614033;
      }

      .cls-66 {
        fill: #4d3829;
      }

      .cls-67 {
        fill: #301610;
      }

      .cls-68 {
        fill: #2a180c;
      }

      .cls-69 {
        fill: #55361d;
      }

      .cls-70 {
        fill: #301b0e;
      }

      .cls-71 {
        fill: #555454;
      }

      .cls-72 {
        fill: #4b3019;
      }

      .cls-73 {
        fill: #6e6d6e;
      }

      .cls-74 {
        fill: #674931;
      }

      .cls-75 {
        fill: #351e10;
      }

      .cls-76 {
        fill: #523527;
      }

      .cls-77 {
        fill: #341c0f;
      }

      .cls-78 {
        fill: #442712;
      }

      .cls-79 {
        fill: #9d9d9d;
      }

      .cls-80 {
        fill: #311d0f;
      }

      .cls-81 {
        fill: #b2b0b0;
      }

      .cls-82 {
        fill: #393838;
      }

      .cls-83 {
        fill: #b0adac;
      }

      .cls-84 {
        fill: #462626;
      }

      .cls-85 {
        fill: #2f1c0e;
      }

      .cls-86 {
        fill: #361717;
      }

      .cls-87 {
        fill: #321e0f;
      }

      .cls-88 {
        fill: #3f2713;
      }

      .cls-89 {
        fill: #614c3e;
      }

      .cls-90 {
        fill: #481f14;
      }

      .cls-91 {
        fill: #412121;
      }

      .cls-92 {
        fill: #5e4133;
      }

      .cls-93 {
        fill: #5a3c2d;
      }

      .cls-94 {
        fill: #593d2e;
      }

      .cls-95 {
        fill: #533635;
      }

      .cls-96 {
        fill: #705038;
      }

      .cls-97 {
        fill: #3f2615;
      }

      .cls-98 {
        fill: #47301f;
      }

      .cls-99 {
        fill: #56392b;
      }

      .cls-100 {
        fill: #543736;
      }

      .cls-101 {
        fill: #513534;
      }

      .cls-102 {
        fill: #280e0e;
      }

      .cls-103 {
        fill: #593c2e;
      }

      .cls-104 {
        fill: #321b0f;
      }

      .cls-105 {
        fill: #2e1a0e;
      }

      .cls-106 {
        fill: #4b3520;
      }

      .cls-107 {
        fill: #533736;
      }

      .cls-108 {
        fill: #fff;
      }

      .cls-109 {
        fill: #2c190d;
      }

      .cls-110 {
        fill: #361716;
      }

      .cls-111 {
        fill: #805737;
      }

      .cls-112 {
        fill: #5d422d;
      }

      .cls-113 {
        fill: #c59f7a;
      }

      .cls-114 {
        fill: #4e2f16;
      }

      .cls-115 {
        fill: #472a14;
      }

      .cls-116 {
        fill: #503117;
      }

      .cls-117 {
        fill: #503017;
      }

      .cls-118 {
        fill: #3d2311;
      }

      .cls-119 {
        fill: #513218;
      }

      .cls-120 {
        fill: #412511;
      }

      .cls-121 {
        fill: #4f2f16;
      }

      .cls-122 {
        fill: #3a200f;
      }

      .cls-123 {
        fill: #482a14;
      }

      .cls-124 {
        fill: #4e2f17;
      }

      .cls-125 {
        fill: #3b200f;
      }

      .cls-126 {
        fill: #58381c;
      }

      .cls-127 {
        fill: #55361b;
      }

      .cls-128 {
        fill: #53341a;
      }

      .cls-129 {
        fill: #4d2e15;
      }

      .cls-130 {
        fill: #845c3e;
      }

      .cls-131 {
        fill: #845d3e;
      }

      .cls-132 {
        fill: #845c3d;
      }

      .cls-133 {
        fill: #825b3c;
      }

      .cls-134 {
        fill: #5c3d2e;
      }

      .cls-135 {
        fill: #3a2011;
      }

      .cls-136 {
        fill: #3b2011;
      }

      .cls-137 {
        fill: #472514;
      }

      .cls-138 {
        fill: #492816;
      }

      .cls-139 {
        fill: #371e0f;
      }

      .cls-140 {
        fill: #c7a17c;
      }

      .cls-141 {
        fill: #a17c5a;
      }

      .cls-142 {
        fill: #a07b59;
      }

      .cls-143 {
        fill: #4c4a4a;
      }

      .cls-144 {
        fill: #704f38;
      }

      .cls-145 {
        fill: #382111;
      }

      .cls-146 {
        fill: #d2d0cf;
      }

      .cls-147 {
        fill: #3f2613;
      }

      .cls-148 {
        fill: #adabab;
      }

      .cls-149 {
        fill: #815d42;
      }

      .cls-150 {
        fill: #805c41;
      }

      .cls-151 {
        fill: #7e5a3f;
      }

      .cls-152 {
        fill: #78543a;
      }

      .cls-153 {
        fill: #805637;
      }

      .cls-154 {
        fill: #280f0e;
      }

      .cls-155 {
        fill: #392619;
      }

      .cls-156 {
        fill: #331c0f;
      }

      .cls-157 {
        fill: #a27e5a;
      }

      .cls-158 {
        fill: #403c39;
      }

      .cls-159 {
        fill: #7c5537;
      }

      .cls-160 {
        fill: #3f2121;
      }

      .cls-161 {
        fill: #3d1e1c;
      }

      .cls-162 {
        fill: #402322;
      }

      .cls-163 {
        fill: #413c39;
      }

      .cls-164 {
        fill: #4f4e4e;
      }

      .cls-165 {
        fill: #514e4c;
      }

      .cls-166 {
        fill: #605a51;
      }

      .cls-167 {
        fill: #361714;
      }

      .cls-168 {
        fill: #2a0f0f;
      }

      .cls-169 {
        fill: #3c1b18;
      }

      .cls-170 {
        fill: #dbdbdb;
      }

      .cls-171 {
        fill: #dfdfdf;
      }

      .cls-172 {
        fill: #e2e2e2;
      }

      .cls-173 {
        fill: #58392d;
      }

      .cls-174 {
        fill: #6c483b;
      }

      .cls-175 {
        fill: #0c0d17;
      }

      .cls-176 {
        fill: #240e0e;
      }

      .cls-177 {
        fill: #402218;
      }

      .cls-178 {
        fill: #432b22;
      }

      .cls-179 {
        fill: #44281d;
      }

      .cls-180 {
        fill: #3c1915;
      }

      .cls-181 {
        fill: #46271a;
      }

      .cls-182 {
        fill: #1d1613;
      }

      .cls-183 {
        fill: #1c1712;
      }

      .cls-184 {
        fill: #2a2623;
      }

      .cls-185 {
        fill: #222120;
      }

      .cls-186 {
        fill: #0b0b0b;
      }

      .cls-187 {
        fill: #141412;
      }

      .cls-188 {
        fill: #2a2420;
      }

      .cls-189 {
        fill: #2f2c2a;
      }

      .cls-190 {
        fill: #110f0f;
      }

      .cls-191 {
        fill: #36302b;
      }

      .cls-192 {
        fill: #35312e;
      }

      .cls-193 {
        fill: #421e19;
      }

      .cls-194 {
        fill: #211d1b;
      }

      .cls-195 {
        fill: #342d28;
      }

      .cls-196 {
        fill: #281d15;
      }

      .cls-197 {
        fill: #24211e;
      }

      .cls-198 {
        fill: #0e0e0d;
      }

      .cls-199 {
        fill: #171717;
      }

      .cls-200 {
        fill: #3c1d15;
      }

      .cls-201 {
        fill: #4b2a1c;
      }

      .cls-202 {
        fill: #442519;
      }

      .cls-203 {
        fill: #321812;
      }

      .cls-204 {
        fill: #0e0e0e;
      }

      .cls-205 {
        fill: #2f1612;
      }

      .cls-206 {
        fill: #502f20;
      }

      .cls-207 {
        fill: #4f2e1f;
      }

      .cls-208 {
        fill: #23201d;
      }

      .cls-209 {
        fill: #745036;
      }

      .cls-210 {
        fill: #422012;
      }

      .cls-211 {
        fill: #3a1f11;
      }

      .cls-212 {
        fill: #391d10;
      }

      .cls-213 {
        fill: #3d2111;
      }

      .cls-214 {
        fill: #4c2617;
      }

      .cls-215 {
        fill: #401f12;
      }

      .cls-216 {
        fill: #939292;
      }

      .cls-217 {
        fill: #271110;
      }

      .cls-218 {
        fill: #181818;
      }

      .cls-219 {
        fill: #0c0c0c;
      }

      .cls-220 {
        fill: #1e0d0e;
      }

      .cls-221 {
        fill: #333;
      }

      .cls-222 {
        fill: #4e4e4f;
      }

      .cls-223 {
        fill: #464646;
      }

      .cls-224 {
        fill: #23211f;
      }

      .cls-225 {
        fill: #2e2925;
      }

      .cls-226 {
        fill: #3b1e15;
      }

      .cls-227 {
        fill: #646565;
      }

      .cls-228 {
        fill: #292929;
      }

      .cls-229 {
        fill: #373737;
      }

      .cls-230 {
        fill: #2e2d2d;
      }

      .cls-231 {
        fill: #1c1b1b;
      }

      .cls-232 {
        fill: #323232;
      }

      .cls-233 {
        fill: #1e1412;
      }

      .cls-234 {
        fill: #f9f8f8;
      }

      .cls-235 {
        fill: #191311;
      }

      .cls-236 {
        fill: #83807e;
      }

      .cls-237 {
        fill: #211612;
      }

      .cls-238 {
        fill: #f6f6f6;
      }

      .cls-239 {
        fill: #0f0a09;
      }

      .cls-240 {
        fill: #431d11;
      }
    </style>
  </defs>
  <g>
    <path class="cls-1" d="M258.05,185.28a11.65,11.65,0,0,0-3.21-4.63,12.59,12.59,0,0,0-4.05-6.68,11.48,11.48,0,0,0-1.12-.86c-.12-.75-.27-1.48-.46-2.2a11,11,0,0,0-.59-2.47l.06.16h0a16.18,16.18,0,0,0-2.36-5.1,14.35,14.35,0,0,0-1.15-1.77,12.79,12.79,0,0,0-5.26-5.2,10.22,10.22,0,0,0-1.48-.74,11.89,11.89,0,0,0-16,7.51,14.54,14.54,0,0,0-.25,7.38,2.66,2.66,0,0,1-2.2,2.87A39,39,0,0,0,208.56,166a40.6,40.6,0,0,0-16.49-3.72A33.68,33.68,0,0,0,174.8,167c-10.73,6.31-20.34,10.06-30.19,11.77-.93-1.19-1.88-2.3-2.74-3.31-1.06-1.25-2.09-2.45-2.88-3.56.42,0,.85.06,1.28.06s.77,0,1.19,0h3a12.86,12.86,0,0,0,1.38.07,12.4,12.4,0,0,0,4.47-.82,13.33,13.33,0,0,0,7.72-4.44,14.18,14.18,0,0,0,4.3-5.94l-3.76-1.53v-.11l3.82,1.5a23.79,23.79,0,0,0,.56-17,24.07,24.07,0,0,0-9.27-14.07L153,129c-.75-.61-1.62-1.32-2.65-2a17.3,17.3,0,0,0-1.15-1.43c-2-3.68-3.76-7.64-5.28-11.12A39.21,39.21,0,0,0,137,103.27a18.31,18.31,0,0,0-3.82-4c-.34-.35-.67-.66-1-1a54.88,54.88,0,0,0,6.24-6.89A42.08,42.08,0,0,0,144.93,82a13.25,13.25,0,0,0,1-1.79c9.54-19.9,11.23-40.19,5-60.28a20,20,0,0,0-5.68-9.55,11.75,11.75,0,0,0-19.63,9.08c.22,6.89.22,14.26-1.27,21.4-2,9.62-5.74,17.46-11.32,23.63a11.76,11.76,0,0,0-11.59-9.85,12.11,12.11,0,0,0-1.69.12L98,55a20.61,20.61,0,0,0-5.37,1.39C95.26,47.84,100,39.31,107,30.3A11.75,11.75,0,0,0,91.68,13C71.32,25.06,57.92,43.62,50.85,69.64a12.11,12.11,0,0,0-1.08,1.07A19,19,0,0,0,45.12,76a12.27,12.27,0,0,0-1.06,11.74,18.77,18.77,0,0,0-.53,2.49q-.08.41-.12.81a24.54,24.54,0,0,0-.23,4.62L43,96c-.4.63-.78,1.24-1.16,1.81a16.22,16.22,0,0,0-2.69,3,39,39,0,0,0-7.51,11.78c-.81,1.87-1.53,3.7-2.22,5.47-1.69,4.3-3.15,8-5.31,10.9l-3.25,3.75-2.25,2-.49.31a17.88,17.88,0,0,0-5.26,4.56,13.25,13.25,0,0,0-3.31,5.58,14.92,14.92,0,0,0-1.12,3.16,11.69,11.69,0,0,0-1.07,4.9v1.52a11.78,11.78,0,0,0,.85,4.38,13.73,13.73,0,0,0,.55,1.9,14.34,14.34,0,0,0,3,5.95A16.29,16.29,0,0,0,16.9,172,15.07,15.07,0,0,0,24,174.82l.43.07a25.18,25.18,0,0,0,3.86.35,16.52,16.52,0,0,0,5.24-.83,15.93,15.93,0,0,0,7.89-3.77l.39-.27c.36-.16.79-.36,1.27-.62a19.33,19.33,0,0,0,3.49-1.37c.22.49.47,1,.74,1.46a15.57,15.57,0,0,0,2.13,3.51,14.46,14.46,0,0,0,2.58,3,13.13,13.13,0,0,0,1.34,1.35,15,15,0,0,0,5,3.91A12.31,12.31,0,0,0,61.72,185a15.67,15.67,0,0,0,1.64,1.7,12.21,12.21,0,0,1-1.33.89,11.75,11.75,0,0,0,2.45,21.33,11.7,11.7,0,0,1-.73,1L62.23,211A11.74,11.74,0,0,0,68,232.07a38.81,38.81,0,0,0,4.14.24A24,24,0,0,0,84,229.44l.58-.27c.07.79.13,1.57.17,2.34a22,22,0,0,0-.46,6,132.79,132.79,0,0,0,0,13.85,19.94,19.94,0,0,0,.38,5.24,21.17,21.17,0,0,0,.66,5.33,145.39,145.39,0,0,0,5.76,27.2c1.32,4.45,2.84,8.78,4.3,13a171.64,171.64,0,0,1,5.53,17.79c3.63,15.65,4.64,28.11,3.15,39.54a33.52,33.52,0,0,0-9.31,9.77,68.86,68.86,0,0,0-5.87,11.92l-.26.61A13,13,0,0,0,99.46,400.1c2.71.32,5.63.63,8.64.75,1.58.06,3.22.1,4.88.1,3.79,0,7.81-.17,12.43-.52a13.5,13.5,0,0,0,8.86,6.21A80.44,80.44,0,0,0,147,408.33a11.68,11.68,0,0,0,3.56.55h2.53a11.66,11.66,0,0,0,3.55-.55,124.79,124.79,0,0,0,13.7-1.59,13.61,13.61,0,0,0,11.77-13.21c0-.79.07-1.57.07-2.34a14.35,14.35,0,0,0,9.16,3.95c.39,0,1,.12,1.65.21a34.27,34.27,0,0,0,5.23.48l.8,0a35.32,35.32,0,0,0,5,.37,32.61,32.61,0,0,0,5-.38h.33a27.18,27.18,0,0,0,5.36-.61c.36-.07.71-.14,1.07-.19,7.39-1,12.42-6.78,12.52-14.46a35.19,35.19,0,0,0-2.34-13,20.58,20.58,0,0,0-3.32-6.32c.71-4.95,1-9.76,1.21-14.42.23-4.4.45-8.55,1-12.54,2.11-14.48,5.34-26,10.16-36.36a127.29,127.29,0,0,0,12-52.35,112.78,112.78,0,0,0-4.35-32.8l.78-.34a11.88,11.88,0,0,0,2.86-1.51,21.41,21.41,0,0,0,8.65-8.78,16.59,16.59,0,0,0,2.24-4.24,13,13,0,0,0,.94-2.78A14.15,14.15,0,0,0,258.05,185.28ZM139.59,326.1l-.08-1.88a16.62,16.62,0,0,0-.66-5.26c-.22-1.56-.52-3-.8-4.25a24.47,24.47,0,0,1-.57-3.18,20.62,20.62,0,0,0-.42-4.73l-.11-4.72c1,.2,1.93.37,2.91.5a15.62,15.62,0,0,1,2,3.19c.15,12.3.1,26.56-2.38,40.19,0-.52,0-1,0-1.59l.12-3.44A61.7,61.7,0,0,0,139.59,326.1Zm41.37,43a21.91,21.91,0,0,0-2.17,6.4,30.64,30.64,0,0,0-3.92-6c-1.87-2.25-1.74-3.19-1.61-4.1,0-.32.08-.63.09-.95l.18-2.94q.21-3.5.39-7c.46-9.55,1.58-19.58,6.64-28.21a43.89,43.89,0,0,0,6.32-22l.9-.18c.33,1.14.66,2.18,1,3.08a89.87,89.87,0,0,1,3.78,37.33c-.21,2.08-.53,4.23-.87,6.52-.31,2-.62,4.12-.86,6.27A29,29,0,0,0,181,369.12Z"/>
    <path class="cls-2" d="M250.71,177.94a11.76,11.76,0,0,0-3.21-4.63,12.65,12.65,0,0,0-4.05-6.68,11.48,11.48,0,0,0-1.12-.86c-.12-.75-.27-1.48-.46-2.21a11.61,11.61,0,0,0-.59-2.46l.06.16h0a16.18,16.18,0,0,0-2.36-5.1,13.64,13.64,0,0,0-1.15-1.77,12.85,12.85,0,0,0-5.26-5.2,10.76,10.76,0,0,0-1.48-.74,11.89,11.89,0,0,0-16,7.51,14.43,14.43,0,0,0-.25,7.38,2.67,2.67,0,0,1-2.2,2.87,38.78,38.78,0,0,0-11.46-7.58,40.6,40.6,0,0,0-16.49-3.72,33.66,33.66,0,0,0-17.27,4.74c-10.73,6.31-20.34,10.06-30.19,11.77-.94-1.19-1.88-2.3-2.74-3.31-1.06-1.25-2.09-2.45-2.88-3.56.42,0,.85.06,1.28.06s.77,0,1.19-.05h3a12.86,12.86,0,0,0,1.38.07,12.4,12.4,0,0,0,4.47-.82,13.33,13.33,0,0,0,7.72-4.44,14.29,14.29,0,0,0,4.3-5.95l-3.76-1.52v-.11l3.82,1.5a23.79,23.79,0,0,0,.56-17,24,24,0,0,0-9.27-14.07c-.25-.19-.48-.39-.73-.59-.74-.61-1.61-1.32-2.64-2-.42-.58-.82-1-1.15-1.43-2-3.68-3.76-7.64-5.28-11.12a39.45,39.45,0,0,0-6.85-11.09,18.59,18.59,0,0,0-3.82-4c-.34-.34-.67-.65-1-1a54.84,54.84,0,0,0,6.24-6.88,42.41,42.41,0,0,0,6.48-9.42,13.25,13.25,0,0,0,1-1.79c9.53-19.9,11.23-40.19,5-60.28A20,20,0,0,0,138,3a11.74,11.74,0,0,0-7.89-3,11.88,11.88,0,0,0-4.93,1.08,11.77,11.77,0,0,0-6.81,11c.22,6.89.22,14.26-1.27,21.4-2,9.62-5.74,17.46-11.32,23.63A11.76,11.76,0,0,0,94.18,47.3a12.11,12.11,0,0,0-1.69.12l-1.83.26a21.43,21.43,0,0,0-5.37,1.39C87.91,40.5,92.62,32,99.6,23A11.74,11.74,0,0,0,84.34,5.65C64,17.72,50.58,36.28,43.51,62.3a10.9,10.9,0,0,0-1.08,1.07,19,19,0,0,0-4.65,5.3,12.28,12.28,0,0,0-1.06,11.75,17,17,0,0,0-.53,2.49q-.07.41-.12.81a24.48,24.48,0,0,0-.24,4.62c-.06.1-.13.2-.19.31-.4.63-.78,1.23-1.16,1.81a16.22,16.22,0,0,0-2.69,3,39,39,0,0,0-7.51,11.78c-.81,1.87-1.53,3.7-2.22,5.47-1.69,4.3-3.15,8-5.31,10.9l-3.25,3.75-2.26,2-.48.31a17.49,17.49,0,0,0-5.26,4.56,13.25,13.25,0,0,0-3.31,5.58,14.92,14.92,0,0,0-1.12,3.16A11.69,11.69,0,0,0,0,145.83v1.51a11.79,11.79,0,0,0,.85,4.39,14.14,14.14,0,0,0,.55,1.9,14.44,14.44,0,0,0,3,6,16.41,16.41,0,0,0,5.2,5,15.07,15.07,0,0,0,7.14,2.85l.43.06a24,24,0,0,0,3.86.35,16.46,16.46,0,0,0,5.23-.82,15.93,15.93,0,0,0,7.9-3.77l.39-.27c.36-.16.79-.36,1.27-.62A20.09,20.09,0,0,0,39.27,161c.22.49.47,1,.74,1.46A15.84,15.84,0,0,0,42.13,166a14.82,14.82,0,0,0,2.59,3,14.12,14.12,0,0,0,1.33,1.35,15.1,15.1,0,0,0,5,3.91,12.17,12.17,0,0,0,3.35,3.36A14.68,14.68,0,0,0,56,179.31a10.88,10.88,0,0,1-1.33.9,11.75,11.75,0,0,0,2.45,21.33,11.7,11.7,0,0,1-.73,1l-1.52,1.13a11.74,11.74,0,0,0,5.78,21.09,38.81,38.81,0,0,0,4.14.24,24,24,0,0,0,11.84-2.87l.58-.27c.07.79.13,1.57.17,2.34a22,22,0,0,0-.46,6A132.8,132.8,0,0,0,77,244a19.52,19.52,0,0,0,.38,5.24,21.17,21.17,0,0,0,.66,5.33,145.74,145.74,0,0,0,5.76,27.2c1.32,4.45,2.84,8.78,4.3,13A173.33,173.33,0,0,1,93.6,312.5c3.63,15.65,4.64,28.11,3.14,39.54a33.49,33.49,0,0,0-9.3,9.77,69.68,69.68,0,0,0-5.88,11.92l-.25.61a13,13,0,0,0,10.81,18.42c2.71.32,5.63.62,8.64.75,1.58.06,3.22.1,4.88.1,3.79,0,7.81-.17,12.43-.52a13.5,13.5,0,0,0,8.85,6.21A81.88,81.88,0,0,0,139.7,401a11.68,11.68,0,0,0,3.56.55h2.53a11.55,11.55,0,0,0,3.54-.55A124.23,124.23,0,0,0,163,399.4a13.61,13.61,0,0,0,11.78-13.21c.05-.79.07-1.57.07-2.34A14.35,14.35,0,0,0,184,387.8c.39,0,1,.12,1.65.21a34.27,34.27,0,0,0,5.23.48l.8,0a35.29,35.29,0,0,0,5,.36,32.7,32.7,0,0,0,5-.37H202a27.18,27.18,0,0,0,5.36-.61c.36-.07.71-.14,1.07-.19,7.39-1,12.42-6.78,12.52-14.46a35,35,0,0,0-2.35-13,20.25,20.25,0,0,0-3.31-6.32c.7-5,1-9.76,1.21-14.43.23-4.39.45-8.55,1-12.53,2.11-14.48,5.34-26,10.16-36.36a127.46,127.46,0,0,0,12-52.36,112.76,112.76,0,0,0-4.35-32.79l.78-.34a11.88,11.88,0,0,0,2.86-1.51,21.41,21.41,0,0,0,8.65-8.78,17.28,17.28,0,0,0,2.24-4.24,13.14,13.14,0,0,0,.94-2.78A14.15,14.15,0,0,0,250.71,177.94ZM132.25,318.76l-.09-1.88a16.44,16.44,0,0,0-.65-5.27c-.22-1.55-.53-3-.8-4.24a24.77,24.77,0,0,1-.57-3.18,21.2,21.2,0,0,0-.42-4.73l-.12-4.72c1,.2,1.94.37,2.91.49a16.05,16.05,0,0,1,2,3.2c.14,12.3.1,26.56-2.39,40.19,0-.52,0-1.06,0-1.6l.12-3.43A61.7,61.7,0,0,0,132.25,318.76Zm41.37,43a22.06,22.06,0,0,0-2.17,6.41,31.1,31.1,0,0,0-3.92-6c-1.87-2.25-1.74-3.19-1.61-4.11,0-.31.07-.62.09-.94l.18-2.94c.13-2.33.27-4.66.39-7,.45-9.55,1.58-19.58,6.64-28.22a43.85,43.85,0,0,0,6.32-22l.9-.18c.33,1.14.66,2.18,1,3.08a89.87,89.87,0,0,1,3.78,37.33c-.21,2.08-.53,4.23-.87,6.51-.31,2-.62,4.13-.87,6.28A29.07,29.07,0,0,0,173.62,361.77Z"/>
    <g>
      <path class="cls-3" d="M12.73,149.93c-.9-.65,0-2-1-2.58v-1.52c.6-.09.4-.65.57-1,.93,0,.88.78,1.09,1.35a5.61,5.61,0,0,1,.19,3A1.23,1.23,0,0,1,12.73,149.93Z"/>
      <path class="cls-4" d="M143.26,389.79a.9.9,0,0,1,0-.4,1.61,1.61,0,0,1,2.59,0,2.83,2.83,0,0,1,0,.41Z"/>
      <path class="cls-5" d="M80,69.39l1.1,1.6a14.86,14.86,0,0,1,1,3.34c1.56-4.07,2.88-8.23,5.75-11.61,1.17-1.37,2.32-2.89,4.5-2.45.51.74.11,1.39-.19,2.06-.54.84-.25,1.84-.48,2.74l.08.13-.09.12c-.87.76-.65,1.87-.9,2.84a67.73,67.73,0,0,0,0,8.06,20.23,20.23,0,0,0,.67,3C92.51,80.31,94.34,81,94,83c-1.06,2.06-3,2.85-5,3.61-1.29.59-2.69.87-4,1.35a3.37,3.37,0,0,1-1.31.39,12.22,12.22,0,0,0-3,.36,10.56,10.56,0,0,0-1.91.51A11.83,11.83,0,0,0,73.81,92c-1.42,1.28-2.74,2.66-4.07,4a8.5,8.5,0,0,0-1.5,2.28c-.71.45-.82,2.76-2.34.77a14.67,14.67,0,0,1-.18-3.5,7.3,7.3,0,0,1,.09-1.14,4.41,4.41,0,0,1,.16-.72,30.23,30.23,0,0,1,2.27-5.52c-.47-.64-.87.22-1.31.07a15.28,15.28,0,0,0-3.75,1.4,12.14,12.14,0,0,0-3.8,2.7,1.36,1.36,0,0,1-.69.11,1.06,1.06,0,0,1-.74-.71,3.13,3.13,0,0,1,.42-2c.37-.7.73-1.41,1.08-2.11a16.92,16.92,0,0,1,1-1.74,15.27,15.27,0,0,1,2.15-2.66,12.15,12.15,0,0,1,1.7-1.51C61.24,83.3,58,85.16,54.31,86a11,11,0,0,1-3,1.08,13.9,13.9,0,0,0-2.13.34,1.38,1.38,0,0,1-.64-.29c-.55-1.47.43-2.38,1.27-3.27,2.58-2.73,5.17-5.45,8.5-7.3.48-.27,1.12-.42,1.22-1.11,0-.06-.07-.14-.13-.19a.75.75,0,0,0-.24-.1A71.91,71.91,0,0,1,49,75.71c-1-.4-.65-1-.22-1.56a16.94,16.94,0,0,1,1.56-1.61A19.92,19.92,0,0,1,52,71.31c.61-.25,1-.78,1.6-1.06a7.79,7.79,0,0,1,1.4-.74c.4-.14.81-.29,1.21-.46.21-.1.42-.18.64-.26,1.28-.45,2.63-.56,3.92-1a18.8,18.8,0,0,1,6.89.36c1.54.32,3.1.57,4.65.85.34,0,.26-.5.21-.17,0,.11-.08.11-.19.12A1.82,1.82,0,0,1,71,68.55a23.9,23.9,0,0,0-10.85-4.38.73.73,0,0,1-.42-.67c2.47-2.11,5.39-1.23,8.17-1.24.58,0,1.13.32,1.72.37.92.15,1.67.77,2.58.94a10.94,10.94,0,0,1,3.9,1.88c.67.3,1,1,1.55,1.42.31-.1.43,0,.37.33A16.53,16.53,0,0,1,80,69.39Z"/>
      <path class="cls-6" d="M139.44,151.93c.13.23,0,.34-.2.37a46,46,0,0,1-7.14,0c-1.57-.54-3.28-.68-4.74-1.55a13.51,13.51,0,0,1-2.41-1.47c-.68-.38-1.19-1-1.89-1.37a4.51,4.51,0,0,1-2.11-2.32,12.27,12.27,0,0,1-1.7-2c-.38-.54-.8-1.06-1.15-1.62s-.68-1.42-1.07-2.11a17.44,17.44,0,0,1-1.87-3.74c-.56-1-.63-2.15-1.12-3.15a22.13,22.13,0,0,1-.62-4.72v-1.62a18.85,18.85,0,0,0-.56-4.49,12.93,12.93,0,0,1-.35-1.73c-.27-2.34,1.25-5,3-5.28s3.31,1.3,3.9,3.91c.45,2,.45,4,.82,6,.94,5,4.62,10.29,11.53,11a26.39,26.39,0,0,1,9.85,2.92,5,5,0,0,1,2.59,2.29c1,2.28.55,4.56,0,6.83a11.55,11.55,0,0,1-1.4,2.37l0,0A5,5,0,0,1,139.44,151.93Z"/>
      <path class="cls-7" d="M93.52,83c.23-1.85-1.35-2.49-2.35-3.52-.2-.53,0-.61.49-.49,1.09,1.06,2.14.46,3.23,0,18.83-8.42,29.56-23.16,33.7-43.09,1.65-7.9,1.78-15.88,1.51-24.16a8.63,8.63,0,0,1,2.34,4.3C137.94,33.88,136,51.1,128,67.8a3.23,3.23,0,0,1-.47.58c-.48.14-.68-.16-.83-.53-.1-2,1.43-3.41,1.84-5.22a43.88,43.88,0,0,0,1.86-4.94,108,108,0,0,0,2.75-12.32c.36-4.75,1.3-9.48.48-14.26a68.34,68.34,0,0,0-2-12c.77,16.79-5,38.28-20.54,51.7A57.93,57.93,0,0,1,98.3,79.22c-.66.32-1.68.45-1.78,1.25s1,1,1.57,1.39c.75.55,1.55,1,2.31,1.54a33.08,33.08,0,0,1,4.47,3.69c1,1.09,1.93,1,3.11.27,2.32-1.54,4.35-3.44,6.57-5.12a35.64,35.64,0,0,0,3.19-3.08c1.41-1,2.07-2.88,3.91-3.39.35.15.63.35.4.8-3.73,5.07-8.55,9-13.65,12.51-1.21.84-2,1.48-.7,2.81a.9.9,0,0,1,.21.45c.69,3.26,2.88,4.89,6,5.52,0,.46-.28.63-.65.75-1.51-.23-2.18.13-1.57,1.85.9,2.52.83,5.33,2.33,7.69a1,1,0,0,1-.17,1.36.88.88,0,0,0-.61,1.17c.69,2.67.08,5.33-.49,7.87-.37,1.63.86,3.3-.39,4.77-.91.72-.52,1.72-.51,2.59A127.71,127.71,0,0,0,119.19,166c1.86,5.46,6.47,9.36,9.81,14,2.6,3.59,5.59,3.81,9.58,3.15,12.56-2.07,23.92-6.92,34.83-13.34,7.39-4.34,15.34-3.82,23.05-.41a26.36,26.36,0,0,1,9,6.3c.12.54-.21.7-.64.78-1.49-.27-2.48-1.38-3.61-2.22a26.79,26.79,0,0,0-19.71-5.38,20.62,20.62,0,0,0-8.66,3.28A91,91,0,0,1,137.28,185c-1.08,0-2.11.44-3.19.46a4.81,4.81,0,0,1-2.05-.33c-7.42-6.89-13.84-14.4-16.48-24.58-3.14-12.1-5.79-24.24-5.38-36.86.06-1.87.55-3.67.51-5.52.26-7.69.07-15.28-3.14-22.53A24,24,0,0,0,96.64,83.84a4,4,0,0,0-2.42-.52A1,1,0,0,1,93.52,83Z"/>
      <path class="cls-8" d="M113.87,109.28c-2.31-3.49-2.15-7.7-3.55-11.51,1.26-.38,2.08.46,3,.52a3.76,3.76,0,0,1,1.75.78,15.46,15.46,0,0,1,2.63,2c1.12.65,1.75,1.79,2.65,2.67a37.49,37.49,0,0,1,6,10.39,95.5,95.5,0,0,0,5.48,11c.7.87,1.19,1.93,2.25,2.48a.5.5,0,0,1,.09.41c1.4,1.58,3.29,2.55,4.88,3.9a12.72,12.72,0,0,1,3.45,4c.4.67,1.05,1.5-.18,2.1a4.65,4.65,0,0,1-3.05-1.3c-1.83-1.41-4.07-1.44-6.2-1.82a9.55,9.55,0,0,1-1.85-.23c-2.27-.39-4.18-1.62-6.18-2.63a2.69,2.69,0,0,1-.81-.8c-.74-1.73-2-3.22-2.39-5.11-.55-1.56-.36-3.25-.84-4.83-.15-.83-.37-1.65-.58-2.48a15.21,15.21,0,0,0-5.56-8.14A1.85,1.85,0,0,1,113.87,109.28Z"/>
      <path class="cls-7" d="M194.8,354.8c.33-5.55,1.53-11,2.07-16.52a102.23,102.23,0,0,0-4.31-42.12c-.6-1.84-1.17-3.69-1.6-5.57a37.92,37.92,0,0,1-.72-4.74,12.87,12.87,0,0,1,.64-4.94c-6.21,2.7-12.29,4.75-18.82,5.15-.42,0-.84.05-1.26.05-4.42.08-4.65.13-3.71,4.32,1.84,8.14,0,15.73-4,22.57-6.14,10.48-7.68,21.86-8.25,33.59-.15,3.28-.37,6.55-.55,9.83-.36,2,0,4-.18,6.05,0,.59.35,1.43-.7,1.59a2.2,2.2,0,0,1-.7-1.82,167.08,167.08,0,0,1,2.6-35.44c1.12-5.85,4.46-10.7,6.92-15.94a34.25,34.25,0,0,0,2.93-21.37,38.76,38.76,0,0,1,.15-14.08,157.53,157.53,0,0,1,5.32-21.83c1.59-4.69,1.56-9.61,2.27-14.43a3.93,3.93,0,0,1,.56-2.16c2-.13,1.82,1.42,1.83,2.56a47,47,0,0,1-1.41,11.74c-.67,2.61-1.57,5.15-2.26,7.75a143.55,143.55,0,0,0-3.89,17.29,8,8,0,0,1-.23,1.2c-1.13,6.4-.31,7.52,6,6.68,8.09-1.07,15.8-3.47,22.32-8.69,4.88-3.91,7.62-9.13,8.94-15.16a55.23,55.23,0,0,0,.22-20.82,8.63,8.63,0,0,1-.25-1.68c0-.66.22-1.19,1-1.21a1.3,1.3,0,0,1,1.29,1,17.07,17.07,0,0,1,.89,4.45c.65,8.36.87,16.67-2.52,24.65a25.58,25.58,0,0,1-9.54,11.82,7.6,7.6,0,0,0-3.79,7.89,33.14,33.14,0,0,0,1.65,7.65c4.84,13.31,6.06,27.12,5.32,41.12-.35,6.63-1.83,13.19-2.57,19.81a2.52,2.52,0,0,1-1.08,1.92C194.05,356.55,194.68,355.61,194.8,354.8Z"/>
      <path class="cls-9" d="M153.3,364c1.1-1.43.33-3.09.56-4.62.15-1-.31-2,.43-2.92-.71,5.09.87,9.21,4.21,13.23,3.68,4.43,4.92,10,4.58,15.87-.08,1.41-.51,2.05-2,2.3a109,109,0,0,1-15.28,1.56h-2.59a74.63,74.63,0,0,1-13.73-1.56c-1.27-.28-1.62-.74-1.51-2a31.85,31.85,0,0,1,2.72-9.58c-2.78.21-3-1.32-2.7-3.42.72-5.59,3.25-9.95,8.19-12.81.48.13,1-.1,1.45,0a25.21,25.21,0,0,0,5.45,1,4.41,4.41,0,0,1,1.66.76c.48.74.07,1.6.34,2.37,1.4,1.31,3,.65,4.53.44a11.9,11.9,0,0,1,3-.91A1.14,1.14,0,0,1,153.3,364Z"/>
      <path class="cls-10" d="M208,178.21l1,.64c.71.2,1.08.79,1.53,1.29,3.05,3.21,5.13,7.07,7.3,10.87.27.58.63,1.12.91,1.7a2,2,0,0,1-.1,1.2A102.05,102.05,0,0,1,228,238,115.33,115.33,0,0,1,217,285.57c-5.89,12.6-9.15,25.93-11.14,39.65-1.36,9.36-.94,18.85-2.43,28.18-.21,1.33-.4,2.66-.6,4a.8.8,0,0,1-1.07,0,1.85,1.85,0,0,1-.34-.74,4.12,4.12,0,0,1,.09-1.64c.38-4.1,1.16-8.17,1.18-12.29.07-14.71,2.76-29,7-43a155.24,155.24,0,0,1,7.08-18.12,109.2,109.2,0,0,0,9.12-52.28c-1.1-16.11-5.5-31.32-14.84-44.82-1.28-1.85-3.14-3.32-3.8-5.6C207.31,178.47,207.44,178.09,208,178.21Z"/>
      <path class="cls-11" d="M218.57,192.94a2.25,2.25,0,0,1-1.07-1.46,1.24,1.24,0,0,1,1.36-.41,35.77,35.77,0,0,0,12.08.29c-1.26,0-3,.27-4.71.18a5.83,5.83,0,0,1-3.13-.85c-.91-.63-1.81-1.35-1.75-2.59s1.09-1.64,2-2a26.8,26.8,0,0,0,6.48-3.9c-2.44.38-4.75,1.24-7.2,1.47-1.12.1-2.31.26-3-.84s.34-2,1.07-2.79a57.64,57.64,0,0,0,4-4.58,13.1,13.1,0,0,0,2.85-9.2,7.31,7.31,0,0,0-.27-2.28c.46-1.12-1.27-2.49.4-3.46.28.7,1.25,1,1.06,2,.72.73.48,2,1.47,2.58v.56c-.27,1.8.59,3.53.27,5.32-.25,1.35-.52,2.68-.88,4s-1.29,2.41-1.33,3.82l-.06-.05a2.71,2.71,0,0,0,2.55,0,.53.53,0,0,1,0-.46,9.33,9.33,0,0,0,2.7-1.25,1,1,0,0,1,1.37-.15,1.09,1.09,0,0,1,.16,1.38,15.11,15.11,0,0,1-1.41,2.92,25,25,0,0,1-3.34,4.72l-.52.5c-.53.87-1.65,1-2.27,1.7.9,1.67,2.22.67,3.4.53A20.22,20.22,0,0,0,235.6,187c.77-.25,1.26-1.33,2.3-.77.61,1.15-.43,1.78-.81,2.62-1,2.25-3.3,3.23-4.77,5l-.18.15h-.24a24.9,24.9,0,0,0-4.11.72A19,19,0,0,1,218.57,192.94Z"/>
      <path class="cls-12" d="M55.24,69.87l-1.47.67a.45.45,0,0,1-.06-.68C59,47.14,69.63,28,90.32,15.76c-10.78,13.9-18.41,29.05-19.24,47-.94.41-1.15-.37-1.5-.91a3.35,3.35,0,0,1-.21-1.21,25.44,25.44,0,0,0,.4-4A62.32,62.32,0,0,1,72.4,45.3c.47-1.32.79-2.69,1.38-4a122.79,122.79,0,0,1,7.8-16c.55-.93,1.14-1.82,1.7-2.75.13-.21.45-.52.41-.59-.18-.29-.29.07-.38.15A69.41,69.41,0,0,0,69.79,36.76,100.42,100.42,0,0,0,55.71,67.67C55.34,68.35,55.62,69.19,55.24,69.87Z"/>
      <path class="cls-13" d="M124.49,131.07l.63.63c1.9,1,3.64,2.36,5.86,2.65a14.46,14.46,0,0,0,2.28.12c2.14.66,4.48.62,6.46,1.84l2.49,1.43a2.77,2.77,0,0,1,1.95,2.88,1.39,1.39,0,0,1-.37.64c-3.09-3-7.11-3.74-11.06-4.45-9.11-1.65-13.19-6.1-13.69-15.43A8.52,8.52,0,0,0,118,117c-1.37-2.12-3.06-2-4.15.23a5.06,5.06,0,0,0-.45,4.12,10.78,10.78,0,0,1,.46,5.23.41.41,0,0,1-.56-.06c-.15-.71.06-1.55-.78-2,0-.42-.09-.83-.13-1.25a47.55,47.55,0,0,1,.41-9.61,24.19,24.19,0,0,0-.31-4c-.14-2,.84-.62,1.42-.47l1.09,1.13a16.18,16.18,0,0,1,5.75,8.22c0,.88.69,1.6.55,2.5.51,1.55.32,3.22.86,4.76C122.35,127.87,123.77,129.31,124.49,131.07Z"/>
      <path class="cls-14" d="M51.22,86.69l2.94-1.13c.57-.28,1.05-.32,1.23.46-.71,1.5-2.19,2.28-3.3,3.39-6.51,6.46-9.46,14.1-7.91,23.29a18.79,18.79,0,0,1,.13,2.26,100.86,100.86,0,0,0,5.16,20.22c.42,1.19.74,2.41,1.07,3.63a6.44,6.44,0,0,1,.4,1.49,4.94,4.94,0,0,1-1.29,3.1c-.49,0-.67-.27-.71-.7-.12-1,.22-2.06-.23-3-.55-4.53-2.76-8.58-3.76-13-.15-.65-.27-1.31-.4-2a6.81,6.81,0,0,1-1.37-2.22c-1.1-2.22-.31-4.92-1.83-7,.76-2.72-.06-5.45,0-8.18a22.09,22.09,0,0,1,1-6.86c.11-.6.55-1.08.64-1.69,2.68-3.68,4.62-7.9,8-11.06A1.46,1.46,0,0,1,51.22,86.69Z"/>
      <path class="cls-15" d="M207.45,364a23.1,23.1,0,0,1,1.73,9.08c0,1.68-.55,2.72-2.29,2.95-2,.26-3.9.91-5.93.64a34.78,34.78,0,0,1-8.71,0c-2.52.33-5-.42-7.45-.58-1.54-.1-2.45-.85-2.22-2.74.28-2.21.43-4.39,1.58-6.35.51-.16.74.15.91.55.25,1.56-.53,2.95-.73,4.44s.16,2.44,1.83,2.57,3.44,1.15,4.19-1.29c.4-1.28.59-2.62,1-3.89a16.37,16.37,0,0,1,1-2.59c.68-1.2,1.25-3.14,2.82-2.67,1.4.42.41,2.21.38,3.4s-.39,2.48-.48,3.74c-.3,4-.12,4.18,3.77,4.17a10.65,10.65,0,0,0,3.47-.24c1.68-.38,3.44-.4,5-1.25,1-1.42.54-2.91.21-4.39-.37-1.63-1.16-3.18-.93-4.93C206.75,364.22,207,363.91,207.45,364Z"/>
      <path class="cls-16" d="M60.25,74.49c1.25,1.28,0,1.72-.81,2.15-3.73,1.91-6.54,4.91-9.4,7.85a4.26,4.26,0,0,0-1.37,2.62c-1.35-.11-.51-1.16-.74-1.75a19,19,0,0,1,1-2.81c.18-.75.88-1.16,1.22-1.8.36-1.34,1.47-2,2.48-2.75C54.71,75.77,57.46,75.09,60.25,74.49Z"/>
      <path class="cls-17" d="M92.29,60.21C87.45,62,86,66.52,84.11,70.66c-.71,1.58-.92,3.38-1.6,5-.5,1.16-.7.18-.88-.3.74-1.48-1.06-3.44.9-4.68-1-1.79.09-3.53.85-4.72,2.06-3.2,4.62-6.11,8.83-6.6A.7.7,0,0,1,92.29,60.21Z"/>
      <path class="cls-18" d="M184.74,367.54l-.58-.55a17.44,17.44,0,0,1,8-8.67,4.71,4.71,0,0,0,2.63-3.52c.25.68-.21,1.55.54,2.1a2.58,2.58,0,0,1,1.55.56,4.83,4.83,0,0,0,3.37.08,3.51,3.51,0,0,1,1.67-.13l.93,0c1.63,2.13,3.88,3.83,4.59,6.59l-.47.53c-1.7-.28-1.86-2-2.72-3-1.2-1.46-2.33-2.57-4.44-1.7a4.44,4.44,0,0,1-3.45-.06c-1.7-.76-3.08-.21-4.47.73a19.65,19.65,0,0,0-5.28,5.32C186.14,366.48,186,367.6,184.74,367.54Z"/>
      <path class="cls-19" d="M227.69,160.48c-.85,1.21.37,2.38.06,3.58.42,1-.22,2,0,3.05a13.83,13.83,0,0,1-7.06,10.13,19.19,19.19,0,0,1-10.69,3l-1-1.39c1.82-.31,3.67-.47,5.44-.93,8.41-2.2,12.43-7.65,12.18-16.35a2.72,2.72,0,0,1,.08-2.13A1.22,1.22,0,0,1,227.69,160.48Z"/>
      <path class="cls-20" d="M25.87,129c4.43-5.72,6.37-12.62,9.18-19.12a26.36,26.36,0,0,1,6-9.12.36.36,0,0,1,.62,0,3.07,3.07,0,0,1-1,2.48A45.11,45.11,0,0,0,34.2,116a48,48,0,0,1-5.74,11.7c-.55.82-1,1.75-2.08,2.09C26,129.69,25.65,129.54,25.87,129Z"/>
      <path class="cls-20" d="M131.64,125.57c-3.65-5.53-5.54-11.94-8.85-17.63-.83-1.44-1.86-2.76-2.8-4.13-.11-.46,0-.67.52-.51a26.64,26.64,0,0,1,5.27,8.41,141.64,141.64,0,0,0,6.4,13.25C132.38,125.5,132.11,125.63,131.64,125.57Z"/>
      <path class="cls-21" d="M60.25,74.49,52.67,78c.63-1.25.87-2.2-1.15-2a17.13,17.13,0,0,1-3.2,0c-.61,0-1.24-.2-.62-1,.55-.29.74.31,1.11.45Z"/>
      <path class="cls-22" d="M233.24,181.15c.31-1.42,1.55-2.52,1.48-4.25-1.42.39-2.39,1.82-3.94,1.3,1.21-.81,2.41-1.65,3.64-2.44.39-.26.84-.68,1.34-.25a1,1,0,0,1,.26,1.16c-.64,1.87-1,3.91-2.67,5.23A.49.49,0,0,1,233.24,181.15Z"/>
      <path class="cls-23" d="M127,67.82l.54.56a29.89,29.89,0,0,1-5.52,8.19l-.53-.59c.21-2.78,2.75-4.26,3.74-6.62C125.56,68.65,126,67.8,127,67.82Z"/>
      <path class="cls-24" d="M218.57,192.94a41.49,41.49,0,0,0,9.53,1.41c.52-.14,1.11-.45,1.14.51-3.65,1-7.1-.23-10.59-1C218,193.64,218.55,193.27,218.57,192.94Z"/>
      <path class="cls-25" d="M143.89,140.67c0-1.27-1.07-2-1.68-2.93.31-2.79-1.85-4-3.5-5.59-.05-.47.07-.74.6-.54a12.43,12.43,0,0,1,5,8C144.45,140.07,144.82,140.65,143.89,140.67Z"/>
      <path class="cls-26" d="M143.89,140.67l.45-1.06a12.08,12.08,0,0,1-.15,9.24c-.49,0-.73-.13-.5-.65a12.88,12.88,0,0,0,.1-6.94C143.82,141.06,143.86,140.87,143.89,140.67Z"/>
      <path class="cls-27" d="M18.33,136.72l3.51-3.05c.45-.2.63.08.76.44-1.1,1.89,1.3.8,1.42,1.67a.92.92,0,0,1-.19.69c-1.45,1.15-3.22.93-4.9,1.12C18.54,137.44,18.21,137.24,18.33,136.72Z"/>
      <path class="cls-28" d="M90.54,76.69a20.94,20.94,0,0,1,0-9c.61.41.1,1.17.52,1.64,0,1.87,0,3.73,0,5.6C90.66,75.47,91.2,76.28,90.54,76.69Z"/>
      <path class="cls-29" d="M235.78,187.22a9.44,9.44,0,0,1-4.92,1.69c-.6.08-1.34.66-1.59-.47l5.92-1.68C235.68,186.53,235.84,186.74,235.78,187.22Z"/>
      <path class="cls-30" d="M22.36,134.11l-.52-.44,4-4.65.51.61A6,6,0,0,1,22.36,134.11Z"/>
      <path class="cls-31" d="M131.65,152.15a24.77,24.77,0,0,1,7.59.15c-.28.91-1,.5-1.57.53a9.63,9.63,0,0,0-4,0c-.77.05-1.59.23-2-.72Z"/>
      <path class="cls-32" d="M232.32,193.86c.93-2.19,3.42-3,4.52-5a.33.33,0,0,1,.57,0C236.53,191.36,234.42,192.6,232.32,193.86Z"/>
      <path class="cls-33" d="M139.31,131.61l-.6.54c-1.48-1.41-3.71-2-4.53-4.13A23.77,23.77,0,0,1,139.31,131.61Z"/>
      <path class="cls-34" d="M92.29,60.21c0-.29-.06-.59-.08-.88l2-.29-1.89,4c-.34-.11-.37-.46-.55-.7Z"/>
      <path class="cls-35" d="M131.65,152.15l0-.05c-1.86.88-3.17-.42-4.61-1.16a.41.41,0,0,1,0-.65C128.61,150.94,130.37,151,131.65,152.15Z"/>
      <path class="cls-36" d="M82.53,70.65c-.78,1.47.06,3.24-.9,4.68.23-1.5-1.43-2.76-.54-4.34Z"/>
      <path class="cls-18" d="M192.25,376.66H201A22.21,22.21,0,0,1,192.25,376.66Z"/>
      <path class="cls-37" d="M233.24,181.15l.11.75c-.63,1.62-1.06,3.4-3.09,3.92C230.85,184,232.25,182.71,233.24,181.15Z"/>
      <path class="cls-38" d="M230.19,171c.44-1.8-1-3.62,0-5.42a13,13,0,0,1,.45,6.52C229.74,172.09,230.06,171.52,230.19,171Z"/>
      <path class="cls-39" d="M229.27,188.44c.42.54,1,.37,1.59.47-1,.76-2.11.48-3.17.39s-1.43-.62-.45-1.46c.22-.24.41-.23.6,0C228.1,188.63,228.81,188.21,229.27,188.44Z"/>
      <path class="cls-40" d="M208,178.21l-.57.57a2.51,2.51,0,0,1-2.55-2.56l.57-.56A7,7,0,0,1,208,178.21Z"/>
      <path class="cls-41" d="M113.85,128.13c.29,1.64,0,3.36.62,5,.18.5.46,1-.46,1.09a9.1,9.1,0,0,1-.69-3.85C113.33,129.55,112.59,128.6,113.85,128.13Z"/>
      <path class="cls-24" d="M230.19,171l.48,1.1a8.2,8.2,0,0,1-1,3.56c-.45,0-.77,0-.51-.58Z"/>
      <path class="cls-42" d="M76,65.77,72.4,63.86a1,1,0,0,1,.53-.46,7.26,7.26,0,0,1,3.61,1.92A.82.82,0,0,1,76,65.77Z"/>
      <path class="cls-43" d="M115.35,136.24a13.2,13.2,0,0,1,2,3.56c-.06.25-.09.53-.43.57A8,8,0,0,1,115,136.2C115.11,136.05,115.24,136.05,115.35,136.24Z"/>
      <path class="cls-44" d="M48.81,75.42,47.7,75a6.61,6.61,0,0,1,3-3c.27.19.27.38,0,.58C50.29,73.67,48.76,74,48.81,75.42Z"/>
      <path class="cls-45" d="M14.25,140.19a5.88,5.88,0,0,1,2.54-2.47c.75.17.75.17.31,1.21-1,.76-1.29,2.41-3,2.28A.91.91,0,0,1,14.25,140.19Z"/>
      <path class="cls-46" d="M117.54,101.26l-2.64-2c0-.31.33-.36.54-.49a5.42,5.42,0,0,1,2.54,2C118.17,101.21,118,101.37,117.54,101.26Z"/>
      <path class="cls-47" d="M117.54,101.26l.44-.5a6.78,6.78,0,0,1,2.53,2.54l-.52.51Z"/>
      <path class="cls-48" d="M237.85,185.33a3.63,3.63,0,0,1,1-2c1,0,.66.65.58,1.18s0,1.05-.51,1.37a.89.89,0,0,1-1,.13.44.44,0,0,1-.16-.42C237.77,185.4,237.81,185.33,237.85,185.33Z"/>
      <path class="cls-49" d="M48.32,85.12c.1.66-.51,1.46.35,2l.53.12c.25.12.56.15.66.48-2.54.88-2.54.88-2.13-2.62A.41.41,0,0,1,48.32,85.12Z"/>
      <path class="cls-50" d="M90.54,76.69c.16-.58,0-1.27.56-1.71l.56,4-.49.49C90.22,78.74,90.69,77.65,90.54,76.69Z"/>
      <path class="cls-51" d="M229.19,175.1l.51.58a9.6,9.6,0,0,1-1.42,3.06C227.38,177.22,228.84,176.3,229.19,175.1Z"/>
      <path class="cls-52" d="M237.86,185.87l1.09,0c0,1.25-.89,2.09-1.54,3l-.57,0c.25-.89,1.06-1.55,1-2.56-.14-.09-.18-.19-.14-.28S237.81,185.87,237.86,185.87Z"/>
      <path class="cls-53" d="M229.24,194.86c-.27-.42-.71-.44-1.14-.51,1.24-.43,2.46-1,3.8-.35A4.71,4.71,0,0,1,229.24,194.86Z"/>
      <path class="cls-54" d="M131.64,125.57l.54-.61a8.35,8.35,0,0,1,1.91,2.65C132.44,127.93,132.48,126.23,131.64,125.57Z"/>
      <path class="cls-55" d="M12.84,146.47c-.12-.56.05-1.21-.52-1.64a4.59,4.59,0,0,1,.88-2.64,1.1,1.1,0,0,1,.8.81C13.85,144.24,14.38,145.7,12.84,146.47Z"/>
      <path class="cls-56" d="M139.44,151.93l3.35-1.57C142,151.63,141.27,152.92,139.44,151.93Z"/>
      <path class="cls-57" d="M91.09,69.38c-.57-.42-.37-1.08-.52-1.64.27-.85-.61-2.21,1.08-2.42C91,66.61,91.38,68,91.09,69.38Z"/>
      <path class="cls-58" d="M119.39,143.32a3.38,3.38,0,0,1,1.56,2.26c-1.21,0-1.47-1-2-1.74C118.65,143.3,119,143.28,119.39,143.32Z"/>
      <path class="cls-59" d="M72.93,63.4l-.53.46-2.47-.64a.94.94,0,0,1-.34-.9.85.85,0,0,1,.4-.51l1.09,1Z"/>
      <path class="cls-60" d="M237.86,185.87v.42c-.87-.07-1.34.74-2.08.93l-.59-.46a4.81,4.81,0,0,1,2.66-1.43Z"/>
      <path class="cls-61" d="M48.32,85.12l-.59,0c.21-.9.05-2,1.15-2.47l0,0A3.23,3.23,0,0,1,48.32,85.12Z"/>
      <path class="cls-62" d="M227.84,187.88l-.6,0a4.29,4.29,0,0,1,2.5-1.52C229.7,187.56,228.9,187.88,227.84,187.88Z"/>
      <path class="cls-63" d="M113.85,128.13c-.69.61-.31,1.47-.53,2.19a6.73,6.73,0,0,1-.31-3.24.77.77,0,0,1,.44-.51l.37,0Z"/>
      <path class="cls-64" d="M127.11,150.29l0,.65a5,5,0,0,1-2.58-1.53c0-.32.32-.35.54-.46Z"/>
      <path class="cls-65" d="M115.35,136.24h-.19l-.2,0c-.83-.44-.67-1.34-.95-2l.46-1.09A6.53,6.53,0,0,1,115.35,136.24Z"/>
      <path class="cls-66" d="M16.82,138.67c.05-.32.56-.65,0-.95l1.54-1,.51.53c.19.73-.4,1-.78,1.44S17.22,139.14,16.82,138.67Z"/>
      <path class="cls-67" d="M41.57,100.77h-.49a4.35,4.35,0,0,1,2-2c.62.32.11.69.05,1C42.65,100.19,42.57,101.2,41.57,100.77Z"/>
      <path class="cls-68" d="M133.67,152.82a4.82,4.82,0,0,1,4,0Z"/>
      <path class="cls-69" d="M80,69.39c-1.15-.28-1.57-1.24-2-2.19C79.4,67.26,79.9,68.14,80,69.39Z"/>
      <path class="cls-70" d="M116.89,140.37l.43-.57,1.08,2a.82.82,0,0,1-.44.52C117.24,141.86,117.16,141.07,116.89,140.37Z"/>
      <path class="cls-68" d="M13.67,142.76l-.47-.57c.13-.78.17-1.62,1.05-2l0,1.12C14.75,142.08,14.44,142.52,13.67,142.76Z"/>
      <path class="cls-71" d="M230.22,165c-1.52-.28-1.16-1.62-1.47-2.58C229.84,163,229.88,164.09,230.22,165Z"/>
      <path class="cls-59" d="M53.71,69.86l.06.68a2.65,2.65,0,0,1-1.54.94.36.36,0,0,1-.15-.39c0-.14.08-.2.12-.2A1.55,1.55,0,0,1,53.71,69.86Z"/>
      <path class="cls-72" d="M49.86,87.71l-.66-.48,2-.54c.12.35.59.76-.15,1Z"/>
      <path class="cls-59" d="M52.2,70.89l0,.59-1.5,1.11c0-.19,0-.39,0-.58C51,71.33,51.34,70.79,52.2,70.89Z"/>
      <path class="cls-34" d="M91.73,62.32l.55.7a3.94,3.94,0,0,1-.62,2A2.83,2.83,0,0,1,91.73,62.32Z"/>
      <path class="cls-68" d="M118,142.31l.44-.52,1,1.53-.42.52C118.26,143.57,118.38,142.76,118,142.31Z"/>
      <path class="cls-30" d="M115.44,98.79l-.54.49-1.54-1,.54-.43Z"/>
      <path class="cls-62" d="M230.77,178.66a1.56,1.56,0,0,1-2.55,0C229.07,178.88,229.91,178.15,230.77,178.66Z"/>
      <path class="cls-73" d="M239.46,184.47c-.11-.43-.08-.93-.58-1.18.19-.43.28-.94.86-1.16A2.52,2.52,0,0,1,239.46,184.47Z"/>
      <path class="cls-74" d="M48.85,82.6l0,0a1.39,1.39,0,0,1,1.31-1.87A2.21,2.21,0,0,1,48.85,82.6Z"/>
      <path class="cls-75" d="M125,149l-.54.46c-.65-.34-1.33-.65-1.42-1.51C124,147.77,124.42,148.5,125,149Z"/>
      <path class="cls-76" d="M143.69,148.2l.5.65c-.29.7-.52,1.46-1.45,1.55A3.21,3.21,0,0,1,143.69,148.2Z"/>
      <path class="cls-77" d="M113.45,126.57l-.44.51c-.17-.84-.35-1.67-.53-2.51C113.87,124.72,113.27,125.84,113.45,126.57Z"/>
      <path class="cls-78" d="M76,65.77l.53-.45c.66.31,1.27.65,1.09,1.55Z"/>
      <path class="cls-79" d="M226.71,159.44l-.08,2.13a2.94,2.94,0,0,1-.25-2.23s.12-.08.17-.06S226.66,159.38,226.71,159.44Z"/>
      <path class="cls-6" d="M13.67,142.76l.62-1.45,2.53-2.64,1-.36c2.6-1.38,5.57-1,8.31-1.78,1.45-.41,2.95-.69,4.38-1.2a7.37,7.37,0,0,0,4.9-4.71,29.72,29.72,0,0,1,3.39-6.49c.53-.79,1.14-1.54,2.22-1.41s1.54,1.15,1.84,2.15c.89,3,.11,6,.24,9.06,0,.4,0,.81,0,1.21,0,.66-.3,1.27-.27,1.94-.2,1.24-.54,2.46-.74,3.71-.15.86-.63,1.62-.81,2.48a22.42,22.42,0,0,1-1.2,2.7,2.55,2.55,0,0,1-1.34,1.88c-1.11.91-2.57,1.2-3.72,2.06l0,0a5.29,5.29,0,0,0-3.55,1.47l-.53.07a8.85,8.85,0,0,0-2.4,1.1,16.6,16.6,0,0,1-2,1.24,20.44,20.44,0,0,1-2.84,1.72l-.16.1-.16-.11a13.49,13.49,0,0,1-4,.19,13.69,13.69,0,0,1-2.78-.84,14.83,14.83,0,0,1-3.13-3c-.13-.81-.81-1.54-.37-2.43-.12-1-.24-1.95-.37-2.92C13.12,145.24,13.4,144,13.67,142.76Z"/>
      <path class="cls-7" d="M137.25,360.45,136.2,360c4.75-5.52,6.24-12.36,7.49-19.2,2.57-14.06,2.76-28.29,2.59-42.53-.05-4.36-2.48-7.54-4.88-10.8a8.42,8.42,0,0,0-6.51-3.81c-5.5-.52-10.5-2.9-15.06-6-1.37-.94-1.37-.18-1.49.79-.38,1.36.17,2.8-.33,4.15-.05,2.5-.1,5-.14,7.49a14,14,0,0,0,0,4.52c.05,2.16.11,4.32.16,6.47.49,1-.06,2.14.37,3.15.08,3.44,1.32,6.69,1.63,10.09.52.8,0,1.76.4,2.57l.13,2.92a84.17,84.17,0,0,1,0,12.9l-.16,4.45c-.36,1.05.09,2.18-.34,3.22l-.17,2.86c-.36.82.12,1.77-.36,2.58l-.12,2c-.42.8.12,1.76-.4,2.56l-1,8.05c-.74.16-1.12-.2-1.29-.88.32-5.59,1.36-11.11,1.83-16.7a50.74,50.74,0,0,1,.44-5.5,7.17,7.17,0,0,0,.29-3,100.68,100.68,0,0,0-2-24.3,25.4,25.4,0,0,1-.53-6.51,7.31,7.31,0,0,0-.3-3.08,69.66,69.66,0,0,1-.21-8.17c.15-1.46,0-2.93.21-4.38a8.94,8.94,0,0,0,.39-3.21c.54-4-.68-6.94-3.89-9.85-8.4-7.58-13.59-17.51-18.21-27.67-2.32-5.09-4.55-10.26-4.85-16.38-.39,1.46,1.36,3-.85,3.56a13.44,13.44,0,0,1-.1-2.37c-.41-1.59.89-3.07.31-4.67-.21-7.79-2-15.39-2.68-23.12a1.79,1.79,0,0,1-.79-1.31,1,1,0,0,1,1-1.12,1.17,1.17,0,0,1,.73.31c1.63,3.18,1.18,6.74,1.87,10.09,1.29,6.27,1.18,12.74,2.56,19,2.76,12.54,8.75,23.61,15.83,34.16,7.08,9.85,16,16.84,28.56,18.78a136.91,136.91,0,0,1-14.45-36.74,111.19,111.19,0,0,1-3.23-18.92c-.08-.89-.33-2.12.92-2.26s1.58,1.07,1.66,2.1a136.21,136.21,0,0,0,6.19,29.9c3.21,10.29,7.54,20.16,14.22,28.61a40.41,40.41,0,0,1,8.78,19.81,77.45,77.45,0,0,1,.37,16.12,371.7,371.7,0,0,1-4.75,38.09c-.19,1.14-.2,2.39-1.29,3.18-.5,0-1,.09-1.39-.42a6.61,6.61,0,0,1,.15-3,343.64,343.64,0,0,0,4.53-34.84,120.44,120.44,0,0,0-.06-19.75,157.52,157.52,0,0,1-3.76,43.44,39.44,39.44,0,0,1-3.9,10.11A5.55,5.55,0,0,1,137.25,360.45Z"/>
      <path class="cls-11" d="M86.49,199.91l-.46,1c-.09.37-.23.7-.69.72-1-.44-.59-1.5-1-2.22-.07-.33-.18-.64-.27-1-.34-1.2-.62-2.88-1.91-2.91-1,0-.85,1.74-1.18,2.71-1.27,3.74-2.87,7.29-5.8,10.07a13.55,13.55,0,0,1-4.53,3.17c-2,.52-3.82,2.08-5.93.45.13-.91.82-1.29,1.54-1.65a12.71,12.71,0,0,0,7.22-4.79,25.42,25.42,0,0,0,5.36-15.74c0-1.19-.53-2.92.93-3.34,1.25-.35,1.68,1.37,2.43,2.22.33.38.62.8,1,1.15.9.86,1.61.7,1.62-.56,0-4.87.56-9.78-1-14.54-.51-1.53-1.15-2-2.76-1.23a11.25,11.25,0,0,1-6.86,1.24c-1.59-.28-2.63-.12-2.73,1.81,0,.57-.13,1.44-1.17,1.17a9.85,9.85,0,0,1,0-3.63c-.52.83.55,2.11-.77,2.7-.63-1.63.94-3.76-1.15-5.05,2.19-.69,4.48-.4,6.7-.76a15.34,15.34,0,0,0,3.28-.7,20.39,20.39,0,0,0,4.54-2c.75-.29,1.36-1,2.3-.72a15.61,15.61,0,0,0,1.75,2.58,9.5,9.5,0,0,1,1.25,3.4,9.89,9.89,0,0,0,.33,2.09,16.32,16.32,0,0,0,.63,2.35,3.62,3.62,0,0,1,.27,1.42,6.24,6.24,0,0,0,.29,3,40.37,40.37,0,0,1-1.5,14.59A5.17,5.17,0,0,1,86.49,199.91Z"/>
      <path class="cls-9" d="M117,357.89l1,.52c5.41,6,6.31,13.28,5.54,21-.18,1.77-1.61,1.59-2.64,1.68a147.85,147.85,0,0,1-19.63.71c-2.6-.1-5.18-.38-7.76-.68-1.38-.16-2-.68-1.32-2.26a64,64,0,0,1,5.12-10.61c2.49-3.82,5.52-7,10-8.32a3.88,3.88,0,0,1,1.4.09,7.73,7.73,0,0,0,6.81-1.31A7,7,0,0,1,117,357.89Z"/>
      <path class="cls-80" d="M108.31,360.43a1.08,1.08,0,0,1-1-.53c3.49-16.88,1.56-33.5-2.28-50-2.49-10.76-6.88-20.91-10-31.45a131,131,0,0,1-5.43-26.15c-.13-.8-.66-1.68.43-2.26.94.67,1,1.76,1.23,2.72a180,180,0,0,0,9.66,37.63,160.75,160.75,0,0,1,9.82,44.27,107.84,107.84,0,0,1-.73,20.65C109.78,357.06,109.8,359,108.31,360.43Z"/>
      <path class="cls-81" d="M66.59,170.62h.08c-1.86.3-3-1-4.19-2l-.67-.6a4.78,4.78,0,0,1-1.33-2.12,2.09,2.09,0,0,0-.95-1.21,7.71,7.71,0,0,1-2.37-1.08A1.26,1.26,0,0,1,57,163a1.05,1.05,0,0,1,.33-.6,2.6,2.6,0,0,1,2.09.28,9.4,9.4,0,0,1,1.68.76c3.54,4.68,8.45,5.24,13.66,4.17,8.23-1.69,13.8-7,18.13-13.9.81-1.29,1.14-3.06,3-3.5,1.1.52.94,1.46.81,2.39a14.53,14.53,0,0,1-1.53,2.57c-2.08,3.41-4.94,6.24-7.06,9.61A2.83,2.83,0,0,1,86.84,166c-1.38.65-2.57,1.63-3.9,2.37a24.85,24.85,0,0,1-5.1,2.22,29.23,29.23,0,0,1-4.37.8A11.45,11.45,0,0,1,66.59,170.62Z"/>
      <path class="cls-82" d="M66.38,210.63l-1.47,1c-.43.17-.56,0-.54-.43,6.19-6.57,7.43-14.52,6.86-23.57-3.23,2.84-6.54,3-10.58,2.68,5.51-3.24,8.45-7.64,8.86-13.58a2.09,2.09,0,0,0,.4-1.62c0-.47,0-.94,0-2.14.93,2,.29,3.43.59,4.75,1,3.32-1.15,5.73-2.45,8.38-.33.67-1,1.09-1.48,2A4.8,4.8,0,0,0,69,187c2.17-1.47,3.31-1,3.86,1.53a20,20,0,0,1,.15,6.55,33,33,0,0,1-3.62,12.3C68.68,208.69,68,210.12,66.38,210.63Z"/>
      <path class="cls-32" d="M85.54,201.44c.16-.18.32-.36.49-.53.16.41.33.83.49,1.25-.64.88-1.26,1.77-1.93,2.62-.36.45-.8,1.07-1.44.69s-.19-1.06.06-1.53c1.57-2.89.75-5.48-.92-8.29-1.51,4.94-2.88,9.63-6.81,12.95a.73.73,0,0,1-.39-.48,30.52,30.52,0,0,0,6.55-14.35,7.71,7.71,0,0,1,3,5.68C85.24,200,84.06,201.29,85.54,201.44Z"/>
      <path class="cls-83" d="M57.3,162.47l0,.6c-1.16.33-1.81-.64-2.68-1a2.35,2.35,0,0,1-1.34-1.37,13.33,13.33,0,0,0-1.32-1.92A15.79,15.79,0,0,1,51,157c-.36-.72-.76-1.4-1.07-2.14a3.55,3.55,0,0,1-.66-2.36,1.46,1.46,0,0,1,.36-.61c1.06-.1,1.16.83,1.43,1.45A19.29,19.29,0,0,0,55.84,160a11.75,11.75,0,0,1,1.54,1.83A.67.67,0,0,1,57.3,162.47Z"/>
      <path class="cls-19" d="M64.37,211.22l.54.43c2.13,1.35,4-.26,6-.58.54-.26.61,0,.56.48-2.78,1.69-5.8,1.9-9.5,1.5Z"/>
      <path class="cls-84" d="M49.69,151.9l-.13.56c-.22.34,0,1-.74,1a40.79,40.79,0,0,1-.11-10.53.37.37,0,0,1,.38-.27l.51.66C50.36,146.15,50,149,49.69,151.9Z"/>
      <path class="cls-85" d="M89.15,229.93v2.48c1.45,2.63.47,5.48.75,8.21a9.66,9.66,0,0,1-.43,3.11.53.53,0,0,1-.74.27,125.67,125.67,0,0,1,0-14.13C88.89,229.64,89,229.66,89.15,229.93Z"/>
      <path class="cls-86" d="M66.59,170.62a32.63,32.63,0,0,0,7.25.46c.6-.07,1.37-.69,1.61.48a21.1,21.1,0,0,1-7.09.14C67.64,171.56,66.66,171.83,66.59,170.62Z"/>
      <path class="cls-87" d="M120.54,332.72v-12.9A50.18,50.18,0,0,1,120.54,332.72Z"/>
      <path class="cls-88" d="M89.13,244l0-3c.9.06,1.07.79,1.09,1.43.1,2.58.49,5.17-.15,7.73-.71.58-.31,1.44-.52,2.14a11.87,11.87,0,0,1-.49-4.59A6.58,6.58,0,0,1,89.13,244Z"/>
      <path class="cls-89" d="M43.61,122.53a2.54,2.54,0,0,1,.94,2.18c-1,2.09,0,4.45-.86,6.56-.93-.76-.38-1.92-.76-2.83C43.66,126.53,42.11,124.35,43.61,122.53Z"/>
      <path class="cls-24" d="M71.42,211.55l-.56-.48,4.23-2.95.39.48A8.68,8.68,0,0,1,71.42,211.55Z"/>
      <path class="cls-90" d="M43.2,128.68c.64.77.18,1.75.49,2.59-.06,1.69.15,3.41-.52,5-.45-.24-.21-.77-.47-1.09l0-1.06C43.18,132.37,42.41,130.46,43.2,128.68Z"/>
      <path class="cls-91" d="M62.48,168.63l4.19,2C64.43,171.73,63.35,170.39,62.48,168.63Z"/>
      <path class="cls-92" d="M35,149.91c.64-1.77,2.39-1.55,3.72-2.06C38,149.49,36.5,149.67,35,149.91Z"/>
      <path class="cls-93" d="M31.5,151.35c.69-1.68,2-1.94,3.55-1.47A7.85,7.85,0,0,1,31.5,151.35Z"/>
      <path class="cls-94" d="M41.68,140.81c.27-1.23.19-2.54.83-3.69.5.21.23.77.5,1.08a8.51,8.51,0,0,1-.89,3.61C41.7,141.59,42,141.09,41.68,140.81Z"/>
      <path class="cls-68" d="M19.39,155.39l4.06.08c-1.62,1.06-3.36.63-5.09.38C18.36,154.93,18.9,155.22,19.39,155.39Z"/>
      <path class="cls-95" d="M54.57,162c1.13-.24,1.77.75,2.68,1a1.63,1.63,0,0,1,0,.44.34.34,0,0,1,.12.38c0,.13-.09.19-.14.19A3.69,3.69,0,0,1,54.57,162Z"/>
      <path class="cls-96" d="M89.15,229.93a1.09,1.09,0,0,0-.44-.06,11.89,11.89,0,0,1,.49-4.59C90.3,226.84,88.88,228.38,89.15,229.93Z"/>
      <path class="cls-97" d="M13.82,151.8l3,2.68c.11.42,0,.63-.44.44a4.78,4.78,0,0,1-2.58-2.5C13.53,152.19,13.54,152,13.82,151.8Z"/>
      <path class="cls-98" d="M23.77,155.48c.47-1.24,1.72-1.41,2.68-2A.85.85,0,0,1,27,154C26,154.73,25.14,155.59,23.77,155.48Z"/>
      <path class="cls-99" d="M40.07,146a3.41,3.41,0,0,1,1-2.67c.13-.25.27-.26.42,0A2.43,2.43,0,0,1,40.07,146Z"/>
      <path class="cls-87" d="M117.85,294.62a5.64,5.64,0,0,1,0-4.52C117.86,291.61,117.86,293.11,117.85,294.62Z"/>
      <path class="cls-100" d="M57.26,164.08l0-.57a5.82,5.82,0,0,1,2.56,1c0,.32-.32.36-.53.48A2.77,2.77,0,0,1,57.26,164.08Z"/>
      <path class="cls-101" d="M50.08,154.94c.82.43.92,1.25,1.11,2a.47.47,0,0,1-.75.09,3.94,3.94,0,0,1-.75-2.11C49.82,154.78,50,154.79,50.08,154.94Z"/>
      <path class="cls-102" d="M50.08,154.94l-.19-.05-.2.05-.87-1.52.74-1Z"/>
      <path class="cls-103" d="M16.34,154.92l.44-.44,2.61.91-1,.46A2.65,2.65,0,0,1,16.34,154.92Z"/>
      <path class="cls-87" d="M118,282.61c.09-1.38-.42-2.82.33-4.15A12.9,12.9,0,0,1,118,282.61Z"/>
      <path class="cls-102" d="M60.69,165.59c.27.86,1.11,1.46,1.12,2.44-1.55.16-1.08-1.24-1.51-1.95C60,165.59,60.31,165.55,60.69,165.59Z"/>
      <path class="cls-104" d="M13.82,151.8l-.06.62a3,3,0,0,1-1-2.49l.48-.54C13.45,150.18,14,150.9,13.82,151.8Z"/>
      <path class="cls-68" d="M28.44,152.41a2.72,2.72,0,0,1,2.53-1c-.64.85-1.72.94-2.53,1.51-.16-.11-.21-.23-.16-.34S28.39,152.41,28.44,152.41Z"/>
      <path class="cls-105" d="M41.52,143.28h-.21l-.21,0,.58-2.49.44,1C42.24,142.43,41.79,142.82,41.52,143.28Z"/>
      <path class="cls-106" d="M89.13,244l0,3.68a8,8,0,0,1-.37-3.66Z"/>
      <path class="cls-107" d="M50.44,157.05l.75-.09,1,1.55a.91.91,0,0,1-.46.52A4.65,4.65,0,0,1,50.44,157.05Z"/>
      <path class="cls-68" d="M28.44,152.41v.52L27,154l-.54-.44Z"/>
      <path class="cls-108" d="M49.09,142.62l-.38.27v-3.24C49.37,140.57,49.06,141.62,49.09,142.62Z"/>
      <path class="cls-109" d="M43,138.2l-.5-1.08c.07-.63.13-1.26.19-1.89.16.36.31.72.47,1.09Z"/>
      <path class="cls-87" d="M118.38,304.24c-.76-1-.3-2.09-.37-3.15A8,8,0,0,1,118.38,304.24Z"/>
      <path class="cls-87" d="M120,340.39c.06-1.08-.39-2.21.34-3.22A7.64,7.64,0,0,1,120,340.39Z"/>
      <path class="cls-110" d="M51.69,159l.46-.52c.38.7,1.34,1.11,1.08,2.14A2.82,2.82,0,0,1,51.69,159Z"/>
      <path class="cls-87" d="M120.41,316.9c-.71-.77-.33-1.71-.4-2.57A4.64,4.64,0,0,1,120.41,316.9Z"/>
      <path class="cls-87" d="M119.51,345.83c.06-.87-.31-1.8.36-2.58A4.77,4.77,0,0,1,119.51,345.83Z"/>
      <path class="cls-87" d="M119,350.36c.08-.87-.31-1.8.4-2.56A4.44,4.44,0,0,1,119,350.36Z"/>
      <path class="cls-102" d="M60.69,165.59l-.39.49-1-1.08.53-.48A.91.91,0,0,1,60.69,165.59Z"/>
      <path class="cls-111" d="M43.69,115c-1.21-7-.75-13.66,3-19.86a25.54,25.54,0,0,1,8.52-9,21.44,21.44,0,0,1,6.4-2.73c.86,1.23-.82,1.47-.9,2.33-.44.66-.79,1.37-1.18,2.07-.07.72-1,1.18-.61,2l-.71,1.92c-.4,1.28-.23,2.76-1.3,3.81a2.73,2.73,0,0,1-1.24,0c-5.41-.63-7.09.25-9.77,5.08-.2.27.39.26.07.15-1.72-.61,6.32-4.89,9.66-5.15,1,.15,1.78,0,2-1.27a3.32,3.32,0,0,1,1.14-2.18.41.41,0,0,1,.4,0,18.5,18.5,0,0,1,4.16-2.77,13.47,13.47,0,0,1,4-1.42.7.7,0,0,1,.65.16c.07,2.05-1.84,3.53-1.58,5.63a.51.51,0,0,1-.1.46,9.5,9.5,0,0,0-.08,6.17c1.12-.46,1.15-1.56,1.81-2.11A14.17,14.17,0,0,1,69.6,96a28.33,28.33,0,0,1,4.21-4.2,14.72,14.72,0,0,1,5.3-2.84,5.51,5.51,0,0,1,1.75-.31,17.7,17.7,0,0,1,2.79-.57l.87-.49a9.71,9.71,0,0,0,4.56-1.19,10.08,10.08,0,0,0,5.09-3.32c.69-1.92,1.69-.34,2.28,0,6.62,3.25,10.68,8.62,13,15.56,2.1,6.35,2.22,12.84,1.91,19.39-1.41-.28-1-1.46-.87-2.22a58.12,58.12,0,0,0,.16-5.92c.11,7.52-.63,15.77-.57,24a7.58,7.58,0,0,1-.8,3.16,50.09,50.09,0,0,1-9.53,13.57c-.72.78-1.74,2.56-3,.39-.31-.84-.94-1.5-1.25-2.33a6.14,6.14,0,0,1-.27-.64,3.43,3.43,0,0,0-1.81-2.26A4.42,4.42,0,0,1,91.66,144c-1.68-2.41-4.66-3-6.79-4.73-.94-2.69-3.56-2.57-5.64-3.35a10.19,10.19,0,0,1-2.13-.35,6.67,6.67,0,0,0-2.71-.89c-.93-.29-1.91-.37-2.86-.58a12,12,0,0,0-1.46-.25c-.77,0-1.53,0-2.3,0H64.3a4.73,4.73,0,0,0-2.7.4c-.47.2-1-.14-1.48.27-.89.22-1.81,0-2.7.23-1.33,0-2.61.49-3.94.4-1.73-.66-.9-1.64-.29-2.55,1.87-2.79,3.9-5.46,6-8.11.2-.27,0,.1.14-.2.17-.47-.24-.14-.37-.22a1.86,1.86,0,0,1-1.87-.71,1.76,1.76,0,0,1-.12-.72,5.18,5.18,0,0,1,2.34-2.59,4.06,4.06,0,0,0,2.08-2A9.79,9.79,0,0,0,62,116.2a8.13,8.13,0,0,0,.23-5.44A6.26,6.26,0,0,0,61,107.7a10.15,10.15,0,0,0-3.47-3c-.92-.18-1.5-1.14-2.51-1.1-.74,0-1.48,0-2.52,0,1.16,0,2,0,2.9,0,.43.17.61.43.34.87-1.22.77-2.56.49-3.86.47-1.29-.26-2.48-.21-3.24,1.1-.67.87-1.39,1.71-2.09,2.55a5.36,5.36,0,0,0-1.26,2.57c-.08.33-.18.65-.28,1-.33.87-.11,1.88-.65,2.71A.49.49,0,0,1,43.69,115Z"/>
      <path class="cls-112" d="M70.38,56.72a10,10,0,0,1-.46,4.07c-1,.75-2.1.12-3.15.17a10.22,10.22,0,0,0-5.45,1.47c-.3.66-1.88-.12-1.46,1.33a1.74,1.74,0,0,0,.39.11c.43.33,1.32.14,1.23,1.07-.41,1-.44,2.13-1.08,3a2.44,2.44,0,0,1-1.34.39,4.41,4.41,0,0,0-2.79,1.05h0c-1.1,0-1.46-.52-1.07-1.55A93,93,0,0,1,70.69,34.45,67,67,0,0,1,83.26,21.4c.62-.5,1.33-.89,2.63-1.76-.91,1.57-1.3,2.54-2.2,3.2a18.29,18.29,0,0,0-2,2.35c-2.34,3.27-5.13,6.18-7.43,9.48a44.92,44.92,0,0,0-3.65,5.74c1.34.21,2.82-.15,3.71,1.09L73,45.12c-4.66-.8-6.65,1.9-7.76,5.86-.49,1.77-1.5,3.38-1.79,5.41C65.83,56.48,68.19,55.37,70.38,56.72Z"/>
      <path class="cls-113" d="M61.28,64.85l-1-1a17.35,17.35,0,0,1,12.21,5.42,8.65,8.65,0,0,1-4.65-.45,8.76,8.76,0,0,0-2.89-1.42C63.54,66.8,62.07,66.31,61.28,64.85Z"/>
      <path class="cls-114" d="M61.73,83.61l-6.51,2.47-1.06-.52c4-1.28,7.64-3.18,11.63-4.66l-2.94,2.68A.86.86,0,0,1,61.73,83.61Z"/>
      <path class="cls-115" d="M59.86,63.76c-.33.52-.72.65-1.16.15a.5.5,0,0,1,.16-.82c.65-.31,1.34-.56,2-.83,3-1.25,6-1.79,9,0l0,.92C66.54,62.9,63.14,62.24,59.86,63.76Z"/>
      <path class="cls-115" d="M65.38,66.94c.84.59,2.3.39,2.43,1.9a32.75,32.75,0,0,0-7.4-.41c-.63.09-1.43.71-1.61-.54l1.54-.07C61.75,66,63.7,67.24,65.38,66.94Z"/>
      <path class="cls-115" d="M68.44,98.28l-1.79,3.35c-1.71-2.74-1.79-5.55-.3-7.41v1a7.47,7.47,0,0,0,0,4.06c1.13.13.91-1.17,1.59-1.52C68.38,97.65,68.63,97.75,68.44,98.28Z"/>
      <path class="cls-116" d="M94.17,83.05c-.7,2.5-2.92,2.91-4.94,3.58-.57.32-.62,0-.6-.47,1.73-.88,3.68-1.43,4.89-3.13Z"/>
      <path class="cls-117" d="M79.08,89.19l-5.15,2.93c-.22-.14-.51-.18-.57-.5a11.44,11.44,0,0,1,5.17-2.91C78.73,88.85,79,88.88,79.08,89.19Z"/>
      <path class="cls-118" d="M58.77,92.2c-.56,1.65-.33,3.9-3,3.89-.11-.81.77-.47,1-.87,1.07-.92-.18-2.82,1.46-3.51Z"/>
      <path class="cls-119" d="M66.45,93.76c-1-1.18.17-2.09.44-3.09s.94-1.55,1-2.5a.69.69,0,0,1,1,0Z"/>
      <path class="cls-120" d="M73.36,91.62l.57.5a24,24,0,0,0-4,4.1c-.46.1-.7,0-.53-.55A14.89,14.89,0,0,1,73.36,91.62Z"/>
      <path class="cls-121" d="M63.39,89.68c-1.45.76-2.53,2.13-4.22,2.48.59-1.77,2.22-2.27,3.68-3C63.06,89.32,63.35,89.36,63.39,89.68Z"/>
      <path class="cls-122" d="M88.63,86.16l.59.47a5.14,5.14,0,0,1-4.7.93Z"/>
      <path class="cls-123" d="M63.39,89.68l-.54-.48a10.16,10.16,0,0,1,4.05-1.51,1,1,0,0,1,.52.46Z"/>
      <path class="cls-124" d="M58.8,67.89c.39.61,1,.45,1.61.54l-4.14,1C56.53,68,57.85,68.24,58.8,67.89Z"/>
      <path class="cls-125" d="M83.65,88.05c-.68.87-1.8.52-2.65.92-.34-.1-.55-.29-.43-.68C81.6,88.28,82.56,87.25,83.65,88.05Z"/>
      <path class="cls-126" d="M69.38,95.67l.53.55-1.48,2.06c-.16-.18-.33-.35-.5-.53A4.46,4.46,0,0,1,69.38,95.67Z"/>
      <path class="cls-127" d="M61.73,83.61l1.12,0c-.67.86-1.34,1.73-2,2.6-.32-.06-.36-.36-.51-.57Z"/>
      <path class="cls-111" d="M66.34,99.27a3.75,3.75,0,0,1,0-4.06C66.34,96.56,66.34,97.92,66.34,99.27Z"/>
      <path class="cls-59" d="M67.42,88.15l-.52-.46a6.51,6.51,0,0,1,1.88-.48c1.08.07.2.58.11.91l-1,0Z"/>
      <path class="cls-125" d="M80.57,88.29,81,89l-1.92.21-.55-.48Z"/>
      <path class="cls-128" d="M58.93,89.79c-.93-.94.24-1.47.43-2.18a.28.28,0,0,1,.5,0A4.17,4.17,0,0,1,58.93,89.79Z"/>
      <path class="cls-129" d="M59.86,87.64a4.19,4.19,0,0,0-.5,0l1-2,.51.57C60.58,86.71,60.47,87.34,59.86,87.64Z"/>
      <path class="cls-124" d="M55.22,67.87a1.62,1.62,0,0,0,1.07,1.55,1,1,0,0,1-1,.45C55,69.21,54.35,68.54,55.22,67.87Z"/>
      <path class="cls-111" d="M144.65,362c1.91-10.24,3.51-20.52,4.5-30.88,1.13-11.79,2.47-23.63-1.71-35.19a27.31,27.31,0,0,0-4.46-8.16c-9.79-11.91-15.17-25.86-18.94-40.57a112.29,112.29,0,0,1-3.61-21.07c0-.64,0-1.65-.84-1.53s-.42,1-.37,1.66a161.94,161.94,0,0,0,3.19,19.35c-1.32.09-1.91-.92-2.56-1.77a60.6,60.6,0,0,1-12.18-29.85c-1.34-10.54-1.49-21.18-2.89-31.71a60.39,60.39,0,0,0-7.42-22.94,5.59,5.59,0,0,1-1-2.55c.6-2.31,2.47-3.74,3.92-5.43a53.78,53.78,0,0,0,7.43-10.77c.36-.72.57-1.92,1.54-1.7s.77,1.37.8,2.2a76,76,0,0,0,4.2,21.19c3.27,9.7,9.07,17.36,18,22.55l2,0a18.48,18.48,0,0,1,5.72,1.92c-.74-.86-2.73-.48-2.63-2.4,12.7-1.7,24.36-6.28,35.36-12.7,1.87-.94,3.79-.44,5.7-.18,11,1.52,20.78,5.58,28.7,13.59,4.95,5,7.67,11.24,9.52,17.89a119.86,119.86,0,0,1,4.85,34.18c-.1,6.91.24,13.81-.7,20.71-1.18,8.56-4.26,16.4-7.8,24.2-5.79,12.71-8.52,26.26-9.71,40.12-.74,8.73-1.37,17.46-.77,26.24a31.21,31.21,0,0,1-.43,7l0,1.47c-.49,1-1.63.74-2.37,1.27-1.06-.11-2.16.29-3.18-.26l-1-1c1.81-12,3.79-24.07,3-36.33a118.6,118.6,0,0,0-6.07-29,22.3,22.3,0,0,1-.85-3.68c-.58-4.17.09-7.54,4.2-10.11,6.85-4.27,10-11.18,11.29-18.9a55.54,55.54,0,0,0-.4-20.56c-.12-.61.08-1.5-1-1.21-.1,0-.05.6-.08.92-1.82,6-5.82,10.32-10.81,13.75A44.94,44.94,0,0,1,174,259.38c-1-.18-2.08.61-3-.24.95-3.7,2.06-7.38,2.8-11.12a41.24,41.24,0,0,0,.8-9c0-.85,0-1.7-.94-2.12-.83,3.07-1.92,6.08-2.5,9.21a70.5,70.5,0,0,1-14.7,31.26c-3.68,4.61-2.59,7.8.13,11.37a18.35,18.35,0,0,0,4,4.15c3,2,3.38,4.82,2.85,8a32.11,32.11,0,0,1-4.68,12.48c-8,12.17-8.18,25.52-6.55,39.24.45,3.73,1.31,7.44.6,11.24l-3.05,1.1c-1.89.34-3.78.53-5.53-.56Z"/>
      <path class="cls-96" d="M202,355.4c.24-6.23-.8-12.42-.53-18.65.76-18,2.87-35.74,9.64-52.65,2-4.91,4.74-9.46,6.25-14.59A76.92,76.92,0,0,0,220.63,249c.1-5.82.34-11.66,0-17.45-.83-12.66-2.69-25.17-7.93-36.9-4.15-9.31-11.71-15-20.76-18.86a54.64,54.64,0,0,0-19.3-4.15c6.95-4.71,14.35-4.58,21.91-1.93,3.93,1.38,7.22,3.89,10.42,6.51a10.87,10.87,0,0,0,2.55,2.56c10.51,12.38,15.95,27,18.24,42.82,3.26,22.63-.59,44.16-10.25,64.8-5.05,10.8-8,22.3-10,34a155,155,0,0,0-2.16,24.07A43,43,0,0,1,202,355.4Z"/>
      <path class="cls-112" d="M131,58.2l-1.92,4.62c-3.33-1.63-3.28-1.6-5.75,1.85a27.64,27.64,0,0,1-6.43,7c-1.33.93-1.64,1.83-.52,3.31.94,1.25,2.27,2.57,1.58,4.48a9.7,9.7,0,0,1-3.06,3c-1.28-.88-1-2.41-1.48-3.61-1-2.34-1.56-2.44-3.51-.92-3,2.33-5.62,5.3-9.62,6.05l-5.86-3.6c12.46-5.67,22.39-13.8,28.67-25.88,6.16-11.85,8.55-24.49,8-37.89a1.57,1.57,0,0,1,1,1.64c-.37,1.66.1,3.31.33,4.91.58,4.11,0,8.17,0,12.25,0,.85-.31,1.82.59,2.64,1.17-2.35-.49-5.1,1.24-7.24.89,1.75.39,3.61.42,5.42a43.42,43.42,0,0,1-.95,9.36c-.73-.37-.54-1.84-1.64-1.63s-1,1.44-1.15,2.28a23.2,23.2,0,0,1-1.26,4.85C128.31,53.92,128.55,56.24,131,58.2Z"/>
      <path class="cls-96" d="M132.18,184.78c-5.57-1.82-9.35-5.88-12.55-10.44-5.89-8.37-8.49-18-9.79-28-.31-2.34-.53-4.66-.67-7.13-2.88,6.71-8,11.76-12.46,17.26a15.32,15.32,0,0,1-4.59,4.79,1.2,1.2,0,0,1-1-.19c.75-2.28,2.65-3.8,3.8-5.81a21.14,21.14,0,0,0,1.55-2.42c.22-.81-.33-1.74.36-2.49.45.72.63,1.74,1.79.46,4.07-4.5,7.9-9.16,10.33-14.8a4,4,0,0,0,.41-1.69c-.28-5.23.52-10.41.53-15.62,0-3.44.9-6.81.66-10.27.82,3.14-.27,6.4.8,9.5a67.35,67.35,0,0,0-.4,13.08,129.66,129.66,0,0,0,7.42,35.6c2.06,5.56,6.39,9.82,10.19,14.3C129.68,182.27,131,183.5,132.18,184.78Z"/>
      <path class="cls-130" d="M118,79.5a10.36,10.36,0,0,0-2.58-4.81c-.93-.9-1.07-1.64,0-2.45a36.66,36.66,0,0,0,9.55-11.18c.64-1.1,1.52-1,2.31-.28a21,21,0,0,1,1.84,2l-2.06,5L121.52,76C120.33,77.15,119.45,78.63,118,79.5Z"/>
      <path class="cls-131" d="M100.3,84a45.16,45.16,0,0,0,10.39-7.64c1-1,1.55-.41,2.19.32,1.46,1.66,1.53,3.8,2,5.8a59.1,59.1,0,0,1-7.4,5.9c-1.07.75-1.72.66-2.5-.3A30.06,30.06,0,0,0,100.3,84Z"/>
      <path class="cls-132" d="M131,58.2c-3.21-1.55-3.49-2.27-2.5-5.5.73-2.4,1.26-4.85,1.93-7.26.27-1-.15-2.5,1.79-2.39s1.21,1.61,1.46,2.6A71.73,71.73,0,0,1,131,58.2Z"/>
      <path class="cls-133" d="M134.22,30.87c0,2.35-.05,4.71-.06,7.06,0,1-.19,1.65-1.39,1.58s-1.2-.75-1.14-1.57c.15-2.5-.16-5,.35-7.51.63-3.15-.75-6.31-.34-9.5.11-.88-.35-1.87.46-2.62A45.41,45.41,0,0,1,134.22,30.87Z"/>
      <path class="cls-134" d="M137.23,184.34c.79,1.44,2.77,1.37,3.68,3a25.72,25.72,0,0,1-6.77-2.55Z"/>
      <path class="cls-135" d="M120.51,118.49a29.08,29.08,0,0,0-5.55-8.08c1.22-.67,1.35.65,1.83,1.12a14.8,14.8,0,0,1,4.17,7C120.8,118.74,120.65,118.74,120.51,118.49Z"/>
      <path class="cls-136" d="M130.65,134.62a9.29,9.29,0,0,1-5.53-2.92c2.21.34,3.88,2,6,2.45A1,1,0,0,1,130.65,134.62Z"/>
      <path class="cls-137" d="M139.72,136.31l-6.59-1.65c-.16-.1-.21-.2-.16-.3s.1-.15.15-.15C135.39,134.7,137.88,134.48,139.72,136.31Z"/>
      <path class="cls-138" d="M121.93,126.11a14.64,14.64,0,0,1-.85-5.12c.14-.19.27-.2.4,0,.89,1.59.32,3.47,1,5.1C122.32,126.37,122.13,126.37,121.93,126.11Z"/>
      <path class="cls-139" d="M121.93,126.11h.57c.14,1.86,2,3,2,5A8.7,8.7,0,0,1,121.93,126.11Z"/>
      <path class="cls-68" d="M121.48,121h-.2l-.2,0c-.13-.84-.75-1.58-.57-2.5l.45,0C121.14,119.34,121.31,120.17,121.48,121Z"/>
      <path class="cls-68" d="M133.12,134.21a2.26,2.26,0,0,1,0,.45l-2.48,0,.5-.47Z"/>
      <path class="cls-140" d="M174.14,258.76c10.91-1.72,20.68-5.58,27.55-14.79,1.39-1.87,2.48-3.95,3.7-5.93.05.45.09.9.14,1.35,1.16,9.25.28,18.11-4.95,26.15-5.73,8.8-14.14,12.85-24.35,13.57a55.72,55.72,0,0,1-7.31,0c-1-.06-2.4,0-2-1.76l.13-.91a85.76,85.76,0,0,0,4.52-14.86C171.86,260.11,172.23,258.72,174.14,258.76Z"/>
      <path class="cls-96" d="M152.86,363.92c.22-4.82-1.26-9.44-1.65-14.2a86,86,0,0,1,.33-19.57c.88-5.94,3.31-11.16,6.3-16.29,2.79-4.79,5.07-9.87,5.16-15.62a4.78,4.78,0,0,0-2.17-4.24,21.66,21.66,0,0,1-6.61-7.53,6.85,6.85,0,0,1,.39-7.6,147.92,147.92,0,0,0,9.37-14c3.73-6.62,5.21-14,7.08-21.18a21.48,21.48,0,0,1,2.6-6.73c-.07,8.4-2.21,16.38-4.47,24.41s-4.38,16.42-3.66,25.05c.21,2.5.75,5,1,7.47a30.93,30.93,0,0,1-3.34,16.6c-1.16,2.42-2.19,4.9-3.58,7.22-3.64,6.09-4.45,13-5.18,19.82A231,231,0,0,0,153.3,364Z"/>
      <path class="cls-141" d="M167,277.33c.16.6.43,1.06,1.17,1.1,8.43.43,16.69-.15,23.95-5.09,7.61-5.18,11.36-12.74,12.93-21.63.72-4.1.32-8.21.53-12.32,2,12.92,2.13,25.51-8,35.54-5.74,5.68-13.33,7.94-21.06,9.58a46,46,0,0,1-8,.59c-1.61.06-2.11-.56-2-2.05C166.65,281.14,166.19,279.18,167,277.33Z"/>
      <path class="cls-142" d="M174.14,258.76c-1.77.58-1.73,2.21-2,3.62-1.09,4.89-2.16,9.78-5,14A97.37,97.37,0,0,1,171,259.14C172.07,259.16,173,258.44,174.14,258.76Z"/>
      <path class="cls-143" d="M144.81,372.18c-4.15,4.14-5.49,9-6.06,14.12-.15,1.36-.22,2-1.86,1.57a41.46,41.46,0,0,0-5.47-.65c-1.8-.22-2.66-1.08-2.25-3a27.17,27.17,0,0,1,11.58-17.36,3.91,3.91,0,0,1,4.16-.63c2.21.91,4.61.35,6.85-.58,1-.42,2-.74,2.9.41,4.33,5.43,7.73,11.17,7.36,18.49-.07,1.54-.41,2.15-2.05,2.39a101,101,0,0,1-14.21,1.41c-1.55,0-2-.52-2-2.05a79.36,79.36,0,0,1,.92-11C144.76,374.39,144.74,373.49,144.81,372.18Z"/>
      <path class="cls-144" d="M137.25,360.45c5.29-6.48,6.7-14.38,8-22.26a192.64,192.64,0,0,0,2.08-33.43,34.24,34.24,0,0,1,.14-4,18.41,18.41,0,0,1,1.35,6.48c.74,13.47-.82,26.78-2.9,40.06q-1,6.58-2.13,13.15a4.68,4.68,0,0,1-.51,1.12C141.21,361.47,139.13,361.54,137.25,360.45Z"/>
      <path class="cls-143" d="M129,373.08a15.77,15.77,0,0,1,5.74-10.87,2.18,2.18,0,0,1,2.33-.38A16.32,16.32,0,0,0,142,363c.51,0,1.08,0,1.16.69s-.47.83-.91,1.06a10.21,10.21,0,0,0-2.76,1.74c-.16.17-.57.39-.62.34-2.33-2.31-2.41.83-3,1.5a38.52,38.52,0,0,0-3.76,5.65c-.54.87-1.21,1.41-2.27,1.06S129.27,373.73,129,373.08Z"/>
      <path class="cls-145" d="M144.28,364.46a20.59,20.59,0,0,0,5.53.56C147.9,365.54,146,366.33,144.28,364.46Z"/>
      <path class="cls-146" d="M210,180.24c1.67-1,3.65-.89,5.45-1.43,6.08-1.8,10.3-5.39,11.88-11.72.39-.23-.1-1.31.91-1,.6,5.61-2.46,9.56-6,13.31-.88.93-2.79,1.75-2.2,3,.74,1.61,2.63.48,3.92.25,2.53-.44,5-1.25,7.65-1.94.07,1.4-.91,1.89-1.66,2.4a30.55,30.55,0,0,1-6.86,3.72c-1.82.66-1.6,1.64-.39,2.76a5.18,5.18,0,0,0,3.73,1.26c1.93,0,3.87,0,5.89,0-2.38,1.87-5.88,2-14.78.57C215.15,187.62,213,183.63,210,180.24Z"/>
      <path class="cls-147" d="M199.87,357.89l2-1c0,.18,0,.36,0,.54-.36.59-1,.48-1.52.5A.32.32,0,0,1,199.87,357.89Z"/>
      <path class="cls-148" d="M228.2,166.13l-.91,1c.15-1,.3-2,.46-3C228.47,164.62,228.19,165.41,228.2,166.13Z"/>
      <path class="cls-149" d="M70.38,56.72c-2.32.09-4.68-.25-6.93.71-1,.44-1.19-.21-.93-1a46.24,46.24,0,0,1,4.55-10.83c1.29-2,3.84-1.15,5.9-.46Q71.68,50.91,70.38,56.72Z"/>
      <path class="cls-150" d="M74.37,41.5a6.94,6.94,0,0,0-5.17.22C72.72,35.1,77,29.91,81.55,24.86c.49-.11.74,0,.55.56C79.42,30.74,76.52,35.94,74.37,41.5Z"/>
      <path class="cls-151" d="M69.91,62.3a30.78,30.78,0,0,0-9,0c2.69-2.51,5.84-2.19,9.05-1.47,0,.34,0,.68.07,1A2.64,2.64,0,0,0,69.91,62.3Z"/>
      <path class="cls-152" d="M82.1,25.42l-.55-.56a4.34,4.34,0,0,1,2.14-2A7.25,7.25,0,0,1,82.1,25.42Z"/>
      <path class="cls-8" d="M41.57,100.77l1.53-1c-1,4.35-1.55,8.73-.53,13.16.28,1.24-1,1.91-1,3a1.77,1.77,0,0,0-.15.31,9.85,9.85,0,0,0-2.61,3.42,11.77,11.77,0,0,0-1.83,3.6c-.57,1.26-1,2.58-1.55,3.86a25.18,25.18,0,0,1-1.11,2.55c-1,1.29-2.25,2.32-3.2,3.63a4.49,4.49,0,0,1-1.2.73,25.07,25.07,0,0,0-2.59,1c-1.14.26-2.19,1.1-3.46.62l-3.13.34c.09-1.05,1.49-1,1.6-1.95,1.34-1.49,2.68-3,4-4.48a49.58,49.58,0,0,0,7.2-13.79,42.5,42.5,0,0,1,7.15-13.51A9.29,9.29,0,0,0,41.57,100.77Z"/>
      <path class="cls-108" d="M49.69,151.9c-.94-2.86-.32-5.74-.09-8.62l.92-3.05c-.09-.51-.1-1,.54-1.16s1,.42,1.26,1a20.66,20.66,0,0,0,2.62,5.28,31.92,31.92,0,0,0,3.34,3.34,14.62,14.62,0,0,0,5.9,3.14,3.7,3.7,0,0,1,3.12,3.61,22,22,0,0,0,.73,3.31,3.08,3.08,0,0,1,.13,1.56c-1.81,2.49-4.37,2-6.83,1.62a15.14,15.14,0,0,1-4.17-1.68c-.36.05-.74-.84-1.09,0a1,1,0,0,1-.32.44C52.74,158.44,51.25,155.15,49.69,151.9Z"/>
      <path class="cls-153" d="M43.69,115h.45a.5.5,0,0,1,.63,0,11.42,11.42,0,0,1,.92,2.59,4.6,4.6,0,0,0,.87,1.74c1,1,1.8,2.21,3.22,2.72a1.2,1.2,0,0,1,.14.67c-.31.82-1,.57-1.39.57a43.92,43.92,0,0,1,9.92.58c1,.91,0,1.41-.41,2-1.75,2.26-3.35,4.61-4.91,7a6.35,6.35,0,0,0-1,2.55c-.51,1.36,0,3.22-2,3.86C47.33,131.31,44.64,123.36,43.69,115Z"/>
      <path class="cls-13" d="M29.87,133.73a1.41,1.41,0,0,1,1.13-.62A27.89,27.89,0,0,1,33.92,130a11.51,11.51,0,0,0,1.26-2.71c.46-1.43,1.07-2.8,1.61-4.2a10.54,10.54,0,0,1,2-3.65A6.58,6.58,0,0,1,41.59,116h0c.47-.18.92-.43,1,.43.29,2.05.65,4.1,1,6.15-.17,2,.31,4.14-.41,6.15-.3,1.82.31,3.71-.47,5.49-.25-3.17.29-6.4-.6-9.53-.18-.65-.23-1.41-1-1.56s-1.21.49-1.54,1.08a43.32,43.32,0,0,0-3.36,6.48c-1,3.06-3.16,4.59-6,5.57-4,1.39-8.25,1.44-12.38,2.1l1-1.06,5.05-1.12A12,12,0,0,1,27.12,135C28.06,134.6,28.92,134.05,29.87,133.73Z"/>
      <path class="cls-154" d="M50.18,139.22c1.35-1,.52-2.87,1.48-4.05.42-.53,1.07-.18,1.56-.43,1.51-.23,3-.85,4.53-.53-.17,1.38-1.42,1.2-2.28,1.6-2.77.74-2.86,1-2.28,3.8.41,2,1.79,3.57,2.24,5.53a1,1,0,0,1-.72.77,14,14,0,0,1-3-5.72c-.11-.34.08-.93-.56-.9s-.41.64-.65.94C50.4,139.89,50.29,139.56,50.18,139.22Z"/>
      <path class="cls-143" d="M184.74,367.54c1.91-3.09,4-6,7.22-7.9.58-.34,1.23-.94,1.79-.87a69,69,0,0,0,8.74.28c1.63,0,2.78,2.67,3.76,4.45a9.92,9.92,0,0,0,.73,1c.35,1.68.69,3.36,1,5a10.82,10.82,0,0,1,0,5.06,17.58,17.58,0,0,1-5.56,1c-1.12.63-2.43-.17-3.55.49-5.12-.15-4.57,1.06-4.48-4.77a65.5,65.5,0,0,1,1-7.48c-2.85,2.55-3.28,5.62-4.12,8.5-.33,1.11.13,2.84-1.42,3.15-2.06.41-4.14-.22-6.12-.82-.61-.19-.47-.95-.31-1.56C183.91,371.28,184.31,369.41,184.74,367.54Z"/>
      <path class="cls-18" d="M208,374.61l0-5.06A5.7,5.7,0,0,1,208,374.61Z"/>
      <path class="cls-18" d="M198.88,376.12c1.08-.93,2.37-.32,3.55-.49C201.36,376.58,200.06,375.94,198.88,376.12Z"/>
      <path class="cls-155" d="M199.87,357.89l.54,0a3.7,3.7,0,0,1-4,0Z"/>
      <path class="cls-156" d="M27.41,135.13l-3.52,1v-.41a10,10,0,0,1,3.53-1.07c.15.11.2.22.15.32S27.46,135.13,27.41,135.13Z"/>
      <path class="cls-140" d="M91.23,161.09l.94-.09c2.06,3.15,2.91,6.77,4,10.29a144.3,144.3,0,0,1,6.09,29.13,110.2,110.2,0,0,1,.72,14.87c-.47,12.07,3.76,22.6,10.64,32.25a79.61,79.61,0,0,0,8.91,10c2.45,2.44,2.37,3.63-.45,5.62-3.23,2.27-6.63,4-10.83,2.85a10.08,10.08,0,0,1-3.89-2.23c-9-12.93-16-26.63-17.36-42.73-.59-7-1.9-14-2.89-21,.62-3.25,1.8-6.35,2.19-9.69a33.5,33.5,0,0,0-.12-9.17c0-.66-.37-1.32,0-2l-.52-.93c.27-.87-.51-1.62-.28-2.48-.58-.6-.3-1.5-.73-2.15L86.53,170c-1-.55-.78-1.63-1.14-2.47-.4-1.09.67-1.34,1.11-1.95a2.09,2.09,0,0,0,1.19-1.16C89,163.46,89.5,161.64,91.23,161.09Z"/>
      <path class="cls-157" d="M107.37,263.75c3,1.05,5.79,2.88,9.15,1.53.62-.24,1.28-.42,1.88-.71,6.28-3,6.47-3.83,1.69-8.54-8.54-8.41-14.43-18.31-17-30.1a35.64,35.64,0,0,1-.83-8.5c.41-17.24-2.67-33.92-8.09-50.22-.68-2.07-1.92-4-2-6.21a22.3,22.3,0,0,1,4.54-4.51c3,5.63,5.93,11.26,7.31,17.56a139.05,139.05,0,0,1,2.35,16.62c1,11.06.9,22.28,4,33.06a52.51,52.51,0,0,0,12,21.83,138.34,138.34,0,0,0,9.27,26.08c1.85,3.74,3.91,7.38,6.15,11.57C124.34,281.33,114.73,274.33,107.37,263.75Z"/>
      <path class="cls-96" d="M90.11,250.11c-.81-2-.3-4.17-.48-6.25-.08-1,.3-2-.46-2.91,0-2.85,0-5.69,0-8.54.91-1.06.1-2.46.69-3.71a101.71,101.71,0,0,0,19.73,39.87,24,24,0,0,0,5.15,5.15,5.77,5.77,0,0,1,2.73,6.17,21.17,21.17,0,0,0,0,2.52,2.62,2.62,0,0,0-.39.67c-.17,2.32-.68,4.63-.14,7q0,4.33.11,8.67c.48.79-.13,1.76.44,2.53-.29,4.14.85,8.09,1.53,12.1a109.32,109.32,0,0,1,1,19.22c-.56.78,0,1.74-.43,2.54A169.42,169.42,0,0,1,117,357.89c-.06.61-.33,1-1,1-1.92.76-2-.43-1.8-1.77.31-2,.82-4,1-6,1.21-10.83.08-21.52-1.78-32.19s-3.33-21.48-4.33-32.31a7.85,7.85,0,0,0-2.52-5.29c-8.32-7.89-13.21-17.73-15.94-28.75A5.18,5.18,0,0,1,90.11,250.11Z"/>
      <path class="cls-158" d="M89.53,180.81A32.22,32.22,0,0,1,87.12,200l-.63-.09a44.8,44.8,0,0,0,2.6-18.07C88.93,181.36,88.59,180.81,89.53,180.81Z"/>
      <path class="cls-159" d="M116.9,290a12.25,12.25,0,0,1,.08-7.55,5,5,0,0,1,0,3Z"/>
      <path class="cls-87" d="M117,285.49c0-1,0-2,0-3a2.36,2.36,0,0,0,.45-.08C117.33,283.44,117.83,284.55,117,285.49Z"/>
      <path class="cls-87" d="M119.55,335.1c0-.87-.29-1.79.43-2.54C119.88,333.41,120.3,334.35,119.55,335.1Z"/>
      <path class="cls-87" d="M117.45,301.24c-.72-.74-.4-1.67-.44-2.53C117.78,299.45,117.35,300.39,117.45,301.24Z"/>
      <path class="cls-146" d="M66.38,210.63c5-6.27,6.39-13.58,6-21.37,0-1,0-2.24-1-2.71s-1.41.89-2.14,1.36a7.35,7.35,0,0,1-4.66,1.24,18.16,18.16,0,0,0,6-11.41c1-1.14-.37-3.22,1-3.85,1.06-.47,2.6.25,3.93.22a11.11,11.11,0,0,0,6.21-1.75c1-.71,1.72-.79,2.26.59,2.24,5.67,1.84,11.57,1.49,17.45-.09,1.33-.89,1.67-2,.6-1.37-1.26-2.2-2.92-3.65-4.65-.33,3.14-.06,6-.71,8.71-1.54,6.55-4.34,12.2-10.7,15.34C67.78,210.68,67.14,211.58,66.38,210.63Z"/>
      <path class="cls-160" d="M78,170.19,83,168a.47.47,0,0,1,.08.71,8.77,8.77,0,0,1-4.38,2C78.2,170.92,78,170.72,78,170.19Z"/>
      <path class="cls-161" d="M83.1,168.69,83,168c1.12-.86,1.94-2.15,3.48-2.36.23.89-.94,1.15-.89,2a.48.48,0,0,1-.69.12Z"/>
      <path class="cls-162" d="M78,170.19l.7.53a8.12,8.12,0,0,1-3.27.84c-.43-.54-1.06-.37-1.61-.48Z"/>
      <path class="cls-163" d="M84.92,167.7l.69-.12c.68.68.5,1.68.92,2.46C85.11,169.87,85.26,168.61,84.92,167.7Z"/>
      <path class="cls-164" d="M89.53,180.81c-.15.34-.29.68-.44,1-.49-.91-.8-1.81.06-2.68C89.27,179.71,89.4,180.26,89.53,180.81Z"/>
      <path class="cls-73" d="M85.54,201.44c-.25.4-.52,1.34-.9.16a6.5,6.5,0,0,1,0-2.15C85.38,199.93,84.77,201,85.54,201.44Z"/>
      <path class="cls-165" d="M88.53,175.71c-.26.85,1,1.64.1,2.52a4,4,0,0,1-.46-2.54C88.3,175.48,88.42,175.5,88.53,175.71Z"/>
      <path class="cls-166" d="M88.53,175.71l-.36,0c-.76-.54-.52-1.35-.55-2.09C88.32,174.13,88.19,175,88.53,175.71Z"/>
      <path class="cls-111" d="M90.67,252.64c2,4.35,3.32,8.94,5.54,13.19,3.22,6.14,6.8,11.95,12.35,16.33,1.39,1.1,1.16,3.06,1.29,4.68.6,7.5,1.87,14.92,2.74,22.38,1,8.3,3,16.41,3.49,24.81.45,7.93.54,15.73-1.29,23.47-.32,1.35.22,1.44,1.2,1.43a7,7,0,0,1-7.68,1.5,84,84,0,0,0,2-22,151.3,151.3,0,0,0-6.16-36.11c-3.55-12-8.66-23.48-11.11-35.81C92.08,261.9,91,257.34,90.67,252.64Z"/>
      <path class="cls-143" d="M107.85,368.57c-2.65,2.23-3.45,5.31-4,8.38-.67,3.81-1,4.22-4.8,3.68-.49-.07-1-.29-1.46-.38-4.77-.79-4.76-.78-2.6-5.24s4.26-9,8.5-12c1.61-1.14,3.17-1.88,5.37-1.24a7.92,7.92,0,0,0,6.76-1.19c1.55-1.06,2.46-.47,3.46,1,3.48,5.13,3.62,10.88,3.43,16.73,0,1-.51,1.26-1.4,1.38a105.54,105.54,0,0,1-11.51,1c-1.55,0-1.8-.73-1.78-2C107.88,375.31,107.85,371.94,107.85,368.57Z"/>
      <path class="cls-108" d="M92.16,143.81a3.08,3.08,0,0,0,1.52,1.52c.73.82,1.35,1.73,2,2.62a.7.7,0,0,0,0,.32c.07.7.86,1.38.06,2.11-2.73,4.11-5.12,8.47-8.94,11.76-4.9,4.22-10.42,6.82-17,6.42-3.69-.22-7.18-1.16-8.93-5a1.16,1.16,0,0,1,.53-.37,2.81,2.81,0,0,1,1.29,0c.21,0,.42.1.63.16a4.07,4.07,0,0,0,2.44-.1,4.91,4.91,0,0,0,1.42-.59c.71-.46,1.21-1.26,2.17-1.29a2.33,2.33,0,0,1,.87.45,4.15,4.15,0,0,0,2.26,1.12,6.75,6.75,0,0,0,3.65,0,5.41,5.41,0,0,0,2.67-1.17,20.26,20.26,0,0,1,2.57-1.63,6.27,6.27,0,0,0,2.37-1.8c.47-.46.82-1,1.26-1.51a4.84,4.84,0,0,0,1.54-1.58,3.88,3.88,0,0,1,.49-.81c.83-.22,1-1,1.42-1.6s.76-1.32,1.06-2c.24-.49.12-1.12.71-1.47-.79.27-.47,1-.81,1.49a12.58,12.58,0,0,1-.94,1.87c-.45.54-.54,1.38-1.36,1.6a18.23,18.23,0,0,1-11.36,7.16,12.64,12.64,0,0,1-6.37-.85,2.56,2.56,0,0,1-.68-.39,5,5,0,0,1-1.06-2.07,8.42,8.42,0,0,1-.48-4.63c1.22-1.39,3.11-1.2,4.61-1.94A17.78,17.78,0,0,0,84.52,140.1c1.31-.7,2.26.29,3.24.8A27.25,27.25,0,0,1,92.16,143.81Z"/>
      <path class="cls-167" d="M91.23,161.09c-1.12,1.19-1.78,2.85-3.54,3.37,1.94-3.46,4.77-6.27,6.93-9.56.51-.14.75,0,.6.57Z"/>
      <path class="cls-168" d="M95.7,150.38c.41-.71-.7-1.38-.07-2.11.85.45.93,1.32,1.18,2.1,0,1-.09,2-.13,3-.45.07-.71,0-.52-.57C96,152,96.49,151.07,95.7,150.38Z"/>
      <path class="cls-169" d="M96.16,152.81l.52.58-1.46,2.08-.6-.57Z"/>
      <path class="cls-170" d="M57.3,162.47a3.1,3.1,0,0,0-.08-.42.93.93,0,0,1,.68-.71,1.53,1.53,0,0,1,1.62,1.06.87.87,0,0,1-.23.63Z"/>
      <path class="cls-171" d="M59.29,163l0-.58c1.07-.35,1.87-.24,2,1.11h-.23l-.22,0C60.25,163.6,59.67,163.62,59.29,163Z"/>
      <path class="cls-172" d="M57.8,161.46l-.58.59-1.47-1.36c0-.26,0-.51,0-.77.73-.18,1.18.34,1.69.69A.8.8,0,0,1,57.8,161.46Z"/>
      <path class="cls-173" d="M55.28,135.23c.83-.32,1.8-.3,2.47-1,.84-.65,1.7.16,2.55,0,.62.85.54,1.92.9,2.86a7,7,0,0,0,6,4.61,8,8,0,0,0,7-4.17,3.43,3.43,0,0,0,.08-2.44.57.57,0,0,1,.36-.56,3,3,0,0,1,2.35.72l2.55,0c.38,1,1.83.7,2.2,1.75a10.11,10.11,0,0,1-4.44,8.35c-4.87,3.62-10,5.5-15.79,1.83a14.2,14.2,0,0,1-6.63-9.1C54.69,137.08,54.43,136.08,55.28,135.23Z"/>
      <path class="cls-108" d="M83.51,110.9l.09-.72a16.09,16.09,0,0,1,4.05-3.58,15.09,15.09,0,0,1,3.21-1,15.25,15.25,0,0,1,3.44.24,7.13,7.13,0,0,1,1.89.44.3.3,0,0,0,.41.09,33.14,33.14,0,0,1,2.63,2.1.34.34,0,0,0,.1.39,4.89,4.89,0,0,1,1.37,1.49,10.54,10.54,0,0,1,1.29,3.19,11.56,11.56,0,0,1,.28,1.4c0,.36,0,.73,0,1.09a7.25,7.25,0,0,1-.27,1.79,9,9,0,0,1-1,2.66,10.18,10.18,0,0,1-3.66,3.77,9,9,0,0,0-1.63.85,3.51,3.51,0,0,1-2.22.47c-1.67-.14-3.43.41-5-.56a5.14,5.14,0,0,1-1.89-1.17,6,6,0,0,1-2.37-2.17,8.83,8.83,0,0,1-1.45-2.57,8.57,8.57,0,0,1-.44-5.36A6,6,0,0,1,83.51,110.9Z"/>
      <path class="cls-108" d="M49.68,122.08a2.13,2.13,0,0,0-.42-.1,9,9,0,0,1-3-2.9,7.15,7.15,0,0,1-1-2,10,10,0,0,1-.44-5.82,17.12,17.12,0,0,1,1.2-2.86l2.12-2.55a6,6,0,0,1,3.12-1.49l4.36-.11c.78-.44,1.38.13,2.05.36a8.94,8.94,0,0,1,3.47,3.16,6.8,6.8,0,0,1,1.15,3.15c.8,1.79.32,3.53-.16,5.27a14,14,0,0,1-.61,1.75,11.52,11.52,0,0,1-1.86,2.58c-1.34,0-1.51,1.51-2.5,2a5.38,5.38,0,0,1-2.54.7C52.94,123.17,51.1,123.56,49.68,122.08Z"/>
      <path class="cls-174" d="M74.47,134.72a1.8,1.8,0,0,1,.66,2.35C74,140.36,69.48,143,66,142.23a7.61,7.61,0,0,1-5.7-8c.34-.57.67-.06,1,0a3.25,3.25,0,0,1,2.67-.76h3.67c.91-.11,1.86.25,2.74-.23a1,1,0,0,1,1,.45C72.36,134.23,73.69,133.7,74.47,134.72Z"/>
      <path class="cls-175" d="M101.62,100.87c-3.63-2-7.12-4.23-11.86-3.49a4.79,4.79,0,0,1,4.75-2.56C98.19,95.08,100.09,97.79,101.62,100.87Z"/>
      <path class="cls-175" d="M56.76,95.22l-1,.87a15.49,15.49,0,0,0-10.57,6.34C45.75,96.29,50.41,93.49,56.76,95.22Z"/>
      <path class="cls-176" d="M81.46,136.77c-.77-.33-1.83-.31-1.89-1.53,1.3.47,2.59,1,3.91,1.39a2.07,2.07,0,0,1,1.66,2.56c.32.6-.42.83-.45,1.3-1.76,6.47-6.5,9.68-12.53,11.5a.56.56,0,0,1-.85-.39c.54-1.23,1.8-1.41,2.85-1.84A16.73,16.73,0,0,0,82,143.29C83.88,140.35,83.77,139.29,81.46,136.77Z"/>
      <path class="cls-177" d="M53.22,134.74c-.41.55-1,.45-1.56.43,1.53-4.25,4.27-7.71,7.12-11.11a1.15,1.15,0,0,1,.5-.45l1.22-.82.32.24c-2.38,3.31-4.77,6.6-7.13,9.91C53.32,133.45,52.26,133.86,53.22,134.74Z"/>
      <path class="cls-178" d="M59.28,123.61l-.5.45c-4,.27-8-.51-12.14-.56.84-1.07,2.7.39,3-1.42a18.39,18.39,0,0,0,5.58.55c.58.4,1.37-.18,1.92.38C57.72,123.77,58.56,123.48,59.28,123.61Z"/>
      <path class="cls-179" d="M88.1,124.66l5.62.51a2,2,0,0,0,2.06-.27.43.43,0,0,1,.5.25c0,.32,1.08.94,0,.9-3.55-.15-7.06.83-10.69.43.52-1.24,2-.52,2.54-1.44-.17-.08-.23-.16-.18-.25S88,124.66,88.1,124.66Z"/>
      <path class="cls-180" d="M84.69,140.49l.45-1.3c2.57,1.19,5.39,2,7,4.62-2-.14-3.11-2.1-5-2.64C86.37,140.92,85.71,140,84.69,140.49Z"/>
      <path class="cls-181" d="M84.56,131.7a32.53,32.53,0,0,1-1.32-7.65,11.56,11.56,0,0,1,1.81,6.11C84.61,130.58,85.07,131.29,84.56,131.7Z"/>
      <path class="cls-182" d="M61.9,116.47c0-1.85,1-3.71,0-5.57.22-.3.35-.77.88-.48.56,2.07.77,4.11-.38,6.07C62.22,116.74,62.05,116.73,61.9,116.47Z"/>
      <path class="cls-183" d="M82.65,113.61a14.67,14.67,0,0,0,.45,5.82c.29.52,0,.59-.42.53a9.89,9.89,0,0,1-.6-7C82.62,112.87,82.86,113,82.65,113.61Z"/>
      <path class="cls-184" d="M97.16,124l3.53-3.54c.16-.22.31-.2.46,0-.38,2-1.94,3-3.46,4C97.49,124.36,97.18,124.36,97.16,124Z"/>
      <path class="cls-185" d="M87.74,106.92c-1.58.83-2.41,2.62-4.14,3.26.5-1.91,2-2.86,3.57-3.72C87.41,106.55,87.7,106.58,87.74,106.92Z"/>
      <path class="cls-186" d="M45.24,110.94c0,2.15-.48,4.34.47,6.42.23.54,0,.66-.5.56a7.27,7.27,0,0,1-.66-2.9,5.65,5.65,0,0,1,0-3.13l.16-1A.29.29,0,0,1,45.24,110.94Z"/>
      <path class="cls-187" d="M60.86,107.86,57.73,105a.4.4,0,0,1,.05-.64c1.66.45,2.6,1.75,3.55,3C61.56,107.87,61.3,107.94,60.86,107.86Z"/>
      <path class="cls-188" d="M60.86,107.86c.16-.17.32-.34.47-.52a5.36,5.36,0,0,1,1.44,3.08l-.88.48C61.9,109.77,61.15,108.89,60.86,107.86Z"/>
      <path class="cls-189" d="M51.33,104.35c-1,.56-1.89,1.39-3.12,1.49C48.73,104.25,49.81,103.83,51.33,104.35Z"/>
      <path class="cls-190" d="M87.74,106.92l-.57-.46a6.51,6.51,0,0,1,3-1c.22.13.53.16.61.47Z"/>
      <path class="cls-191" d="M99.23,108.48c-1.11-.42-2.33-.68-2.63-2.1C97.87,106.58,99,107,99.23,108.48Z"/>
      <path class="cls-192" d="M101.74,113.51l-1.39-3.13c.1-.24.15-.53.49-.55a6.27,6.27,0,0,1,1.37,2.66C101.92,112.77,102.16,113.29,101.74,113.51Z"/>
      <path class="cls-186" d="M90.79,105.91l-.61-.47a11.74,11.74,0,0,1,4,0,.48.48,0,0,1,0,.8Z"/>
      <path class="cls-193" d="M95.69,148c-1.31-.39-1.72-1.46-2-2.62A2.72,2.72,0,0,1,95.69,148Z"/>
      <path class="cls-194" d="M84.53,121.54l2,2a.76.76,0,0,1-.45.46,5,5,0,0,1-2.07-2C83.8,121.54,84.09,121.47,84.53,121.54Z"/>
      <path class="cls-195" d="M82.65,113.61l-.57-.66c.16-.91.22-1.88,1.43-2A5.35,5.35,0,0,1,82.65,113.61Z"/>
      <path class="cls-196" d="M101.88,116v-1c.26-.31,0-.85.47-1.08a3.69,3.69,0,0,1,0,3.69C101.8,117.13,102.23,116.44,101.88,116Z"/>
      <path class="cls-188" d="M101.15,120.5h-.46l1-2.64c.32.08.35.4.52.6A2.17,2.17,0,0,1,101.15,120.5Z"/>
      <path class="cls-197" d="M84.53,121.54l-.48.54c-.46-.71-.92-1.41-1.37-2.12l.42-.53Z"/>
      <path class="cls-198" d="M57.78,104.31l-.05.64-2-.71-.45-.54v-.26A4,4,0,0,1,57.78,104.31Z"/>
      <path class="cls-199" d="M59.73,120.51a6.25,6.25,0,0,1,1.54-2.61c.32,0,.35.32.45.55A3.24,3.24,0,0,1,59.73,120.51Z"/>
      <path class="cls-200" d="M67.87,133.64l-4,0c-.17-.1-.23-.2-.17-.3s.12-.16.17-.16l4,0c.18.1.24.19.18.28S67.93,133.64,67.87,133.64Z"/>
      <path class="cls-186" d="M45.24,110.94l-.5,0c.34-.9.25-2,1.35-2.52A4.48,4.48,0,0,1,45.24,110.94Z"/>
      <path class="cls-201" d="M63.85,133.2c0,.16,0,.31,0,.46l-2.54.53C61.65,132.54,63,133.39,63.85,133.2Z"/>
      <path class="cls-202" d="M84.56,131.7c0-.55-.08-1.16.49-1.54,0,1.17,0,2.34,0,3.51-.15.24-.3.24-.44,0Z"/>
      <path class="cls-186" d="M55.24,103.44v.26H51.65A6.53,6.53,0,0,1,55.24,103.44Z"/>
      <path class="cls-203" d="M74.47,134.72c-1-.5-2.21-.21-3-1.07a5.35,5.35,0,0,1,3,.56c.17.09.22.18.16.27s-.12.13-.18.13Z"/>
      <path class="cls-14" d="M44.58,111.89l0,3.13-.41-.08C44.3,113.93,43.82,112.82,44.58,111.89Z"/>
      <path class="cls-186" d="M86.12,124l.45-.46,1.53,1.09a1,1,0,0,0,0,.38C87.28,125,86.74,124.45,86.12,124Z"/>
      <path class="cls-204" d="M94.19,106.25v-.8a2.26,2.26,0,0,1,2,.84Z"/>
      <path class="cls-205" d="M74.45,134.61c0-.13,0-.27,0-.4,1,0,2-.22,2.55,1Z"/>
      <path class="cls-186" d="M61.72,118.45l-.45-.55a1.87,1.87,0,0,1,.63-1.43l.49,0A3,3,0,0,1,61.72,118.45Z"/>
      <path class="cls-186" d="M97.16,124l.53.46-1.41.66-.56-.13v-.35Z"/>
      <path class="cls-204" d="M102.35,113.85l-.47,1.08-.14-1.42c.15-.34.31-.68.47-1C102.26,113,102.3,113.4,102.35,113.85Z"/>
      <path class="cls-206" d="M67.87,133.64a2.94,2.94,0,0,0,0-.42l2.52,0C69.67,134,68.72,133.56,67.87,133.64Z"/>
      <path class="cls-207" d="M84.62,133.67a3.23,3.23,0,0,0,.44,0v2l-.44,0Z"/>
      <path class="cls-186" d="M102.22,118.45l-.52-.6.18-1.87c.5.42.34,1,.45,1.56C102.29,117.84,102.25,118.15,102.22,118.45Z"/>
      <path class="cls-208" d="M57.18,123c-.66,0-1.39.28-1.92-.38.64-.24,1.28-.58,2-.14C57.22,122.66,57.2,122.84,57.18,123Z"/>
      <path class="cls-199" d="M100.84,109.83l-.49.55-1-1.51C100.11,108.75,100.52,109.23,100.84,109.83Z"/>
      <path class="cls-209" d="M65.38,66.94c-1.57.94-3.44.17-5,.88,0-1.09-.41-2.31.94-3C62.74,65.35,63.81,66.63,65.38,66.94Z"/>
      <path class="cls-210" d="M34,130.14a10,10,0,0,1-3,3c.36-1.72,1.83-2.48,3-3.5.14.12.19.24.14.35S34.05,130.14,34,130.14Z"/>
      <path class="cls-211" d="M41.59,116,39,119.5c-.16.2-.32.21-.47,0C39,117.83,39.68,116.38,41.59,116Z"/>
      <path class="cls-212" d="M37,123.05l-1.52,4.52c-.44.12-.69,0-.48-.48l1.55-4Q36.77,122.69,37,123.05Z"/>
      <path class="cls-213" d="M37,123.05h-.45a5.85,5.85,0,0,1,2-3.55H39Z"/>
      <path class="cls-214" d="M35,127.09l.48.48A6.42,6.42,0,0,1,34,130.14v-.53A5.52,5.52,0,0,1,35,127.09Z"/>
      <path class="cls-215" d="M27.41,135.13c0-.16,0-.32,0-.48a2.65,2.65,0,0,1,2.45-.92A6.29,6.29,0,0,1,27.41,135.13Z"/>
      <path class="cls-216" d="M57.8,161.46l-.59-.54c-.17-.46-.8-.79-.45-1.42a44,44,0,0,0,4.4,1.65c2.38.62,4.78.9,6.74-1.15a.62.62,0,0,1,1,0l.08-.09c.67.58,1.13,1.21.42,2.06l-2,1.06a12.28,12.28,0,0,1-4.51.48l-1.57.05a3,3,0,0,0-2-1.11Z"/>
      <path class="cls-217" d="M71.43,151.4l.73.59c-1.44.94-3.19.91-4.75,1.47-.73.55.15,1.57-.6,2.12a2.76,2.76,0,0,0-2.44-3.05,14,14,0,0,1-6.7-3.62,1.11,1.11,0,0,1,.65-.41,3.28,3.28,0,0,1,2.11.66c3.14,1.72,6.32,3.2,10,2.05A1.2,1.2,0,0,1,71.43,151.4Z"/>
      <path class="cls-218" d="M53.13,153.72c.87-1.58-3.19-3.34.66-5.07C52.81,150.49,53.78,152.14,53.13,153.72Z"/>
      <path class="cls-219" d="M66.81,155.58c.39-.65-.47-1.66.6-2.12A11.82,11.82,0,0,0,68,158.4c.24.55,0,.62-.5.55A6.87,6.87,0,0,1,66.81,155.58Z"/>
      <path class="cls-220" d="M58.3,148.86l-.63,0a8.85,8.85,0,0,1-3-3l.53-.58C56.72,146.1,58.16,146.92,58.3,148.86Z"/>
      <path class="cls-221" d="M55.36,158.24A4.34,4.34,0,0,1,53.43,154,12,12,0,0,1,55.36,158.24Z"/>
      <path class="cls-222" d="M56.76,159.5c.21.45.67.83.45,1.42l-1.41-1c0-.35-.65-.63-.21-1C56.38,158.22,56.19,159.64,56.76,159.5Z"/>
      <path class="cls-223" d="M67.46,159l.5-.55.9,1.6h-1Z"/>
      <path class="cls-224" d="M46.64,119c.87,1,1.74,2,2.62,3-1.75.09-2.22-1.47-3.14-2.44C45.93,119,46.16,118.89,46.64,119Z"/>
      <path class="cls-225" d="M46.64,119l-.52.54a2.87,2.87,0,0,1-.91-1.62l.5-.56Z"/>
      <path class="cls-226" d="M58.3,148.86l-3.06-3.53a17.52,17.52,0,0,1-2.64-5.61c-.79-3.63-.87-3.61,2.68-4.49.09,8,6,12.55,12.27,13.44,5.5.78,12.54-5.33,13.58-10.95a5.38,5.38,0,0,1,.34-.95c3,1.34,3.24,1.68,2.09,4.69-1.46,3.87-4.36,6.46-7.94,8.32a39.89,39.89,0,0,1-4.19,1.62c-3.65,1.85-7,.56-10.26-1.06C60.2,149.87,59.46,149,58.3,148.86Z"/>
      <path class="cls-11" d="M69.36,162l-.42-2.06c6.55,2.34,11.83,0,16.54-4.47.54-.51,1.11-1,1.67-1.48a.52.52,0,0,1-.05.77c.45.26.3.51,0,.75a22.68,22.68,0,0,0-2,1.53c.46.83.09,1.26-.72,1.47-1.2.28-1.77,1.46-2.79,2A6.49,6.49,0,0,1,79,162c-.83.7-1.92.78-2.86,1.25a38.32,38.32,0,0,1-4,0A26.82,26.82,0,0,0,69.62,162l-.14,0Z"/>
      <path class="cls-223" d="M89.08,150.87c-.3-2.7-.3-2.7,2.82-1.56-1,.38-1.94.65-2.29,1.57A.34.34,0,0,1,89.08,150.87Z"/>
      <path class="cls-204" d="M71.94,163l4.55.15,0,.27a8.14,8.14,0,0,1-4.51,0c-.14-.09-.2-.17-.16-.27S71.89,163,71.94,163Z"/>
      <path class="cls-227" d="M62.86,163.51c1.43-.89,3-.32,4.51-.48-.34.54-.88.56-1.43.58a4.65,4.65,0,0,1-3.08-.09Z"/>
      <path class="cls-228" d="M81.58,160.47c.66-1,1.38-2,2.79-2C83.56,159.31,83,160.46,81.58,160.47Z"/>
      <path class="cls-15" d="M76.47,163.42a.32.32,0,0,1,0-.27c.62-.88,1.62-.9,2.53-1.13C78.55,163.18,77.45,163.2,76.47,163.42Z"/>
      <path class="cls-229" d="M89.08,150.87h.53a2.82,2.82,0,0,1-1,2.08.81.81,0,0,1-.43-.53A2.65,2.65,0,0,1,89.08,150.87Z"/>
      <path class="cls-230" d="M71.94,163a.64.64,0,0,1,0,.41A3.54,3.54,0,0,1,69.62,162,2.44,2.44,0,0,1,71.94,163Z"/>
      <path class="cls-216" d="M62.86,163.52l3.08.09A2.51,2.51,0,0,1,62.86,163.52Z"/>
      <path class="cls-231" d="M88.22,152.43l.43.53a2.17,2.17,0,0,1-1.55,1.77c0-.26,0-.51.05-.77Z"/>
      <path class="cls-232" d="M85.09,157c.44-.79.85-1.62,2-1.53C86.59,156.23,86.28,157.19,85.09,157Z"/>
      <path class="cls-233" d="M98,112c1.64,3.35,1.41,6-.71,8.11a6.31,6.31,0,0,1-7,1.17,6.22,6.22,0,0,1-3.11-7.68c1.09-3.18,4.08-4.54,8-3.66.12.46-.17.67-.52.86-1.35.41-2.84.1-4.1,1a4.55,4.55,0,0,0,3.06,8.41,4.83,4.83,0,0,0,4-4.83,11.28,11.28,0,0,0-.29-1.74C97.26,113,97.11,112.29,98,112Z"/>
      <path class="cls-234" d="M98,112l-.39,1.86a1.76,1.76,0,0,1-2.29,1.36,2.34,2.34,0,0,1-2-1.93,2,2,0,0,1,1.3-2.6,4.76,4.76,0,0,1,2.09.06A2.21,2.21,0,0,0,98,112Z"/>
      <path class="cls-235" d="M95.72,124.67V125c-.61.82-1.29.73-2,.15Z"/>
      <path class="cls-236" d="M96.62,110.75l-1.94.12c-.15-.15-.17-.26-.08-.33a.39.39,0,0,1,.23-.06l.34-.54C95.83,109.88,96.14,110.47,96.62,110.75Z"/>
      <path class="cls-237" d="M59.35,115.16a5.18,5.18,0,0,1-5.87,4.3A5.88,5.88,0,0,1,48.79,113c.56-4.18,3.52-6.09,8-5.15.13.46-.15.68-.49.88-.87.35-1.82.23-2.7.52a4.32,4.32,0,0,0-3.17,4.33c.11,1.91.91,3.46,2.86,4,2.12.6,3.48-.55,4.57-2.24.37-.59.34-1.84,1.64-1.31A2,2,0,0,1,59.35,115.16Z"/>
      <path class="cls-238" d="M56.36,108.44c.33-.06.56-.18.41-.57,1.16.47,2.23,1,2,2.58a1,1,0,0,1,.07,1.14,2.2,2.2,0,0,1-2.7,1.2,2.06,2.06,0,0,1-1.59-2A2.25,2.25,0,0,1,56.36,108.44Z"/>
      <path class="cls-239" d="M58.72,111.28l.08-.83c.91,1.48,1.72,3,.55,4.71l-.08-1.23A2.15,2.15,0,0,1,58.72,111.28Z"/>
      <path class="cls-240" d="M94.83,110.48a3.12,3.12,0,0,0-.15.39c-1.28.92-1.5,2.1-.45,3.21s2.27.66,3.34-.22c1.19,2.38.68,4.36-1.55,6.07a4.93,4.93,0,0,1-6.62-.41c-2-2-2.41-4.5-1-6.57A6,6,0,0,1,94.83,110.48Z"/>
      <path class="cls-240" d="M58.72,111.28c.18.89.36,1.77.55,2.65-.22.44-.44.88-.65,1.33-1.1,2.44-3.23,3.69-5.39,3.16a5.13,5.13,0,0,1-3.54-5.22,5.25,5.25,0,0,1,4.41-4.78,14.22,14.22,0,0,1,2.26,0c-1.23,1-2,2.19-.73,3.54S57.86,112.29,58.72,111.28Z"/>
    </g>
  </g>
</svg>
