<?xml version="1.0" encoding="utf-8"?>
<!-- Generator: Adobe Illustrator 26.2.1, SVG Export Plug-In . SVG Version: 6.00 Build 0)  -->
<svg version="1.1" id="a" xmlns="http://www.w3.org/2000/svg" xmlns:xlink="http://www.w3.org/1999/xlink" x="0px" y="0px"
	 viewBox="0 0 232.4 295" style="enable-background:new 0 0 232.4 295;" xml:space="preserve">
<style type="text/css">
	.st0{fill-rule:evenodd;clip-rule:evenodd;fill:#FFFF00;}
	.st1{fill-rule:evenodd;clip-rule:evenodd;fill:#21110E;}
	.st2{fill-rule:evenodd;clip-rule:evenodd;fill:#FF6A14;}
	.st3{fill-rule:evenodd;clip-rule:evenodd;fill:#EB4600;}
	.st4{fill-rule:evenodd;clip-rule:evenodd;fill:#F54F08;}
	.st5{fill-rule:evenodd;clip-rule:evenodd;fill:#D64000;}
	.st6{fill-rule:evenodd;clip-rule:evenodd;fill:#E02D00;}
	.st7{fill-rule:evenodd;clip-rule:evenodd;fill:#B3560E;}
	.st8{fill-rule:evenodd;clip-rule:evenodd;fill:#B5580D;}
	.st9{fill-rule:evenodd;clip-rule:evenodd;fill:#A63200;}
	.st10{fill-rule:evenodd;clip-rule:evenodd;fill:#B3580D;}
	.st11{fill-rule:evenodd;clip-rule:evenodd;fill:#BA5D11;}
	.st12{fill-rule:evenodd;clip-rule:evenodd;fill:#C26112;}
	.st13{fill-rule:evenodd;clip-rule:evenodd;fill:#852D08;}
	.st14{fill-rule:evenodd;clip-rule:evenodd;fill:#D46E1A;}
	.st15{fill-rule:evenodd;clip-rule:evenodd;fill:#C76414;}
	.st16{fill-rule:evenodd;clip-rule:evenodd;fill:#A14310;}
	.st17{fill-rule:evenodd;clip-rule:evenodd;fill:#993D0C;}
	.st18{fill-rule:evenodd;clip-rule:evenodd;fill:#AB3000;}
	.st19{fill-rule:evenodd;clip-rule:evenodd;fill:#913109;}
	.st20{fill:#9E240B;}
	.st21{fill-rule:evenodd;clip-rule:evenodd;fill:#331C17;}
	.st22{fill-rule:evenodd;clip-rule:evenodd;fill:#241512;}
	.st23{fill-rule:evenodd;clip-rule:evenodd;fill:#BA5B0D;}
	.st24{fill-rule:evenodd;clip-rule:evenodd;fill:#331D18;}
	.st25{fill-rule:evenodd;clip-rule:evenodd;fill:#941600;}
	.st26{fill-rule:evenodd;clip-rule:evenodd;fill:#590900;}
	.st27{fill-rule:evenodd;clip-rule:evenodd;fill:#BD3B07;}
	.st28{fill-rule:evenodd;clip-rule:evenodd;fill:#D96B11;}
	.st29{fill-rule:evenodd;clip-rule:evenodd;fill:#C42100;}
	.st30{fill-rule:evenodd;clip-rule:evenodd;fill:#54190A;}
	.st31{fill-rule:evenodd;clip-rule:evenodd;fill:#6B4913;}
	.st32{fill-rule:evenodd;clip-rule:evenodd;fill:#8F3A15;}
	.st33{fill-rule:evenodd;clip-rule:evenodd;fill:#994500;}
	.st34{fill-rule:evenodd;clip-rule:evenodd;fill:#AD4B05;}
	.st35{fill-rule:evenodd;clip-rule:evenodd;fill:#942C00;}
</style>
<g>
	<path class="st0" d="M95.4,288.8c-7,0-51.9-6.9-70.7-13.3c-0.5,0.7-1.1,1.2-1.7,1.7c-1.9,2.8-4.3,3.3-5.7,3.3c-0.4,0-0.8,0-1.3-0.1
		c-1.1,0.6-2.2,0.8-3.2,0.8c-1.1,0-2.7-0.3-4.2-1.5c-2.2-0.5-3.5-1.6-4.3-2.5c-0.9-1-1.9-2.8-1.8-5.4C0,257.1,0.9,252,3,249.1
		c1.9-2.9,4.5-7.1,6.7-10.5c-0.2-0.7-0.2-1.5-0.1-2.3c0.1-1,0.7-3.6,3.5-5.5c0.3-1.3,1-2.4,2-3.3c-0.2-1.1-0.1-2.2,0.3-3.2
		c0.4-1.2,1.2-2.1,2.2-2.8c0.1-0.7,0.3-1.5,0.7-2.1c0.4-0.7,0.9-1.4,1.6-1.9c2.9-7.3,6.7-16.7,9.8-23.2c0.5-1.1,1-2.2,1.6-3.3
		c1.3-2.6,2.3-4.1,3.2-5.1l0.2-0.2c0.6-0.7,1.4-1.7,2.3-2.4c2.7-2.8,5.6-6,6.5-8.3c0.3-0.8,1.2-4.5,2.2-8.5
		c2.9-11.7,7.6-30.9,11.6-39.9c0-1.5,0-4.3,0-8.1c0.1-8.9,5.6-11.8,9.3-13.7c3-1.6,4.4-2.4,5-5.2L80.7,58c-0.3-1.6-0.5-3.2-0.6-4.6
		c-0.7-7.9,4.3-14.4,8.2-18.1c0.1-1.6,0.8-3,1.9-4c0.1-3.2,1.7-6,4.2-7.8c1.4-5,5.4-8.9,10.4-10.1c0.7-2.5,2.7-4.5,6-5.9
		c0.3-0.1,0.7-0.2,1-0.3c0.4-0.1,0.7-0.2,1.1-0.2c-0.1-1,0-2,0.5-2.9c0.9-1.7,2.6-2.7,4.4-2.7c0.5,0,1,0.1,1.5,0.2
		c1.7,0.5,7,2.2,7.9,6.9c0.3,1.5,0.2,3.7-1.6,6c3.7,1.8,6.5,5.2,7.6,9.4c2.1,1.7,3.5,4.2,3.7,6.9c1.5,1.1,2.6,2.9,2.6,5
		c0,0.1,0,0.3,0,0.4c3.7,3.9,8,10,7.4,17.3c-0.1,1.1-0.2,2.3-0.4,3.6l9.4,42.7c0.6,2.8,2,3.6,5,5.2c3.7,1.9,9.2,4.8,9.3,13.7
		c0,3.7,0,6.5,0,8c3.7,8,7.9,24.3,11.8,40.3c1,3.9,1.9,7.6,2.2,8.5c0.8,2.4,3.8,5.5,6.5,8.3c0.5,0.4,1.3,1.2,2.3,2.4l0.2,0.2
		c1,1,1.9,2.6,3.3,5.2c0.5,1,1.1,2.1,1.6,3.2c3,6.5,6.8,15.8,9.8,23.2c0.6,0.5,1.2,1.1,1.6,1.9c0.4,0.7,0.6,1.4,0.7,2.1
		c1,0.7,1.8,1.6,2.2,2.8c0.4,1,0.5,2.2,0.3,3.2c1,0.8,1.7,2,2,3.3c2.3,1.6,3.1,3.6,3.3,4.6c0.2,0.9,0.3,1.8,0.1,2.7
		c0.2,0.5,0.5,1,0.7,1.6c2,3.2,4.3,6.8,6,9.3c2.1,2.9,3,8,0.5,22.7c0.1,2.6-0.9,4.3-1.8,5.4c-0.8,0.9-2.1,2-4.3,2.5
		c-1.5,1.2-3.1,1.5-4.2,1.5l0,0c-0.9,0-2-0.2-3.2-0.8c-0.4,0.1-0.8,0.1-1.3,0.1c-1.4,0-3.9-0.5-5.7-3.3c-0.2-0.1-0.4-0.3-0.6-0.5
		c-3.4,0.6-9.5,1.8-16.6,3.1c-20.7,4.6-47.9,8.7-53.4,8.7c-0.5,0-1,0-1.4-0.1c-0.7-0.1-3.4-0.4-13.1-0.5c-0.2,0-0.3,0-0.5,0
		c-7.1,0-19.4,0.2-22.2,0.6C96.3,288.8,95.9,288.8,95.4,288.8z M72.9,176.2c-2.8,4.6-4.5,8.4-5.1,11c-2.5,10.6-7.6,18.1-10.3,22.2
		c-0.2,0.3-0.4,0.6-0.8,1.1c2.9-0.8,7-1.8,10.3-2.6c-0.1-1.1-0.1-2.4-0.1-3.9c0-2.9,1.4-6.8,7.6-9.7v-10
		C74.5,182.6,74.3,180,72.9,176.2z M162.2,207.8c2.4,0.6,5.3,1.3,7.8,1.9c0,0,0,0,0,0c-2.7-4-7.8-11.6-10.3-22.2
		c-0.6-2.7-2.6-6.8-5.6-11.7c-0.2,0.3-0.4,0.5-0.7,0.7c-1.3,3.6-1.5,6.2-1.5,7.8v8.7c5.2,1.8,8.4,4.3,9.8,7.6
		c0.1,0.3,0.2,0.5,0.3,0.8c0.2,0.8,0.3,1.6,0.3,2.4C162.3,205.3,162.2,206.6,162.2,207.8z"/>
	<g>
		<g>
			<path class="st1" d="M135.7,49.7l5.1,5.5l10,45.5c2.4,10.9,14.1,6.5,14.2,17.8c0.1,5.8,0,9.2,0,9.2h-50.7v0.1H62.1
				c0,0-0.1-3.4,0-9.2c0.1-11.3,11.8-6.9,14.2-17.8l10-45.5l5.1-5.5l22,6.8L135.7,49.7z"/>
		</g>
		<g>
			<path class="st2" d="M84.3,196.5c0,0-12.4,2-12.4,7.4c0,5.4,0.7,7.8,0.7,7.8s-14.8,3.4-17.3,4.4c-2.5,1-3.9,6.4-3.9,6.4
				S21,233,16.8,239.1c-4.2,6.1-4.2,21.7,2.8,28.4c7.1,6.8,72.1,16.9,76.3,16.2c4.2-0.7,23-0.7,23-0.7l0,0
				c5.5,0.1,12.1,0.2,14.4,0.6c4.2,0.7,69.2-9.5,76.3-16.2c7.1-6.8,7.1-22.3,2.8-28.4c-4.2-6.1-34.6-16.6-34.6-16.6
				s-1.4-5.4-3.9-6.4c-2.5-1-17.3-4.4-17.3-4.4s0.7-2.4,0.7-7.8c0-5.4-12.4-7.4-12.4-7.4l-30.5,7L84.3,196.5z"/>
		</g>
		<g>
			<path class="st3" d="M109.1,256c0,0,40.5,12.9,53.8,14.7c13.3,1.8,17.4-2.3,16.8-4.7c-0.5-2.3-8.4-9.3-4.3-9.5
				c4.1-0.2,15.8,6.8,17.2,5.6c1.4-1.3-0.2-7.2,1.6-5.6c1.8,1.6,4.3,6.3,5.2,5c0.9-1.3-2.6-16.1-2.6-16.1l9.6,3.6l-0.4,22.5
				c0,0-53,9.9-65.9,11.7C127.2,285,91.3,266.8,109.1,256z"/>
		</g>
		<g>
			<path class="st4" d="M84.2,219.1c15,12.7,22.2,13.9,21.7,3.7c-5.1,0.5-9.6-1-13.4-4.3c-11.1-10.6-16.4-15.4-15.9-14.2
				c-3.1-0.6-4.4,1.8-3.9,7.4c-38.2,18.1-56.4,30.5-54.5,37c-1.7,14.8,7.4,22.6,27.2,23.3c-3.8-5.9-5.3-12.6-4.7-20.1
				c4.6,16.5,15,25.1,31.2,25.8c-4.9-11.9-3.1-16.5,5.4-13.6c17.9,11.4,34.4,17.2,49.5,17.4c-26.9-11.8-41.4-23.2-43.5-34.4
				C81.3,234.3,81.6,224.9,84.2,219.1z"/>
		</g>
		<g>
			<path class="st5" d="M50.8,255c0,0-2-7-0.2-10.8c1.8-3.8-14.5-1.8-14.5-1.8s36.2-27.8,36.9-25.3c0.7,2.5,2.9,8.6,4.5,7.2
				c1.6-1.4,2.2-4.1,2.2-4.1l2.7,10.6c0,0-2.5,13.1-2.9,18.3c-0.4,5.2,4.1,12.2,4.1,12.2s-9-6.8-16.1-9.5
				C60.3,249,50.8,255,50.8,255z"/>
		</g>
		<g>
			<path class="st6" d="M82.4,230.8c-3.1-14.8,1.8-15.6,14.7-2.2C86.1,220.3,81.2,221.1,82.4,230.8z"/>
		</g>
		<g>
			<path class="st7" d="M59.5,240.3c8.1,6.7,18.7,8.6,31.8,5.8c2.4-12.8-1.6-18.5-11.7-17.2c-7.7-0.5-13.2-3.6-16.6-9.1
				c-17.3-7.2-22.4-4.1-20.7,1.7c-2.8,9.3-3.2,11.5,1,11.8C49.4,234.6,54.8,236.9,59.5,240.3z"/>
		</g>
		<g>
			<path class="st8" d="M66.1,141c0,0,0.3,14.3,6.6,23.9c6.2,9.6,6.9,15.8,6.9,19.4c0,3.6,0,17.3,0,17.3s13.5,11.1,17.9,14
				c1.9,1.3,6,1.8,10.1,2.1l0,0c0,0,2.2,0.1,5.3,0.1l0,0l0.3,0h0c3.3,0,5.7-0.1,5.7-0.1l0,0c4.1-0.2,8.2-0.8,10.1-2.1
				c4.5-3,17.9-14,17.9-14s0-13.7,0-17.3c0-3.6,0.7-9.9,6.9-19.4c6.2-9.6,6.6-23.9,6.6-23.9c3.4-26.9-22.4-26.3-30.7-26.3
				c-8.3,0-6.9-14.9-6.9-14.9s-10.3,0-15.2,0h0h-3.9c0,0,1.4,14.9-6.9,14.9C88.5,114.7,62.6,114.1,66.1,141z"/>
		</g>
		<g>
			<path class="st9" d="M115.9,167.4c-0.3,6.7,8.1,8.8,25.4,6.3c5.2-0.5,9-4.4,11.4-11.8c0.5,0.8,1.1,1.7,1.7,2.6
				c-1.6,2.4-2.9,4.6-3.8,6.6c-3.4,7.3-20.6,7.4-30.9,4.7c-5.7-1.5-5.8-9-4.8-21.3L115.9,167.4z"/>
		</g>
		<g>
			<path class="st10" d="M111.2,166.1c0.3,5.9-8.1,7.7-25.4,5.5c-5.2-0.4-9-3.9-11.4-10.3c-0.5,0.7-1.1,1.5-1.7,2.3
				c1.6,2.1,2.8,4,3.8,5.8c3.4,6.4,20.6,6.5,30.9,4.2c5.7-1.3,5.8-7.9,4.8-18.7L111.2,166.1z"/>
		</g>
		<g>
			<path class="st11" d="M81.1,127.6l-3,32c0,0-13,17.1-15.2,26.5c-2.2,9.4-6.6,16.2-9.6,20.5c-2.6,3.9-21.1,23.6-24.9,27.6
				c4.4,9.6,2.6,15.9-5.3,18.8c0.3,12.9-1,19.7-3.9,20.4c-1,2.4-2.4,2.7-4.1,0.8c-1.4,2.3-2.8,2.5-4.2,0.7c-2.5-0.1-3.7-1.2-3.4-3.4
				c-1.9-11-2-17.5-0.4-19.5c6.6-10.2,10.7-16.6,12.1-19.2c0,0,14.8-39.1,18.8-43.4c4-4.4,8.6-8.6,10-12.8
				c1.4-4.2,10.2-44.8,15.6-51.4c5.3-6.5,9.1-7.6,13.2-8.4c4.1-0.7,4.5-0.7,4.5-0.7L81.1,127.6z"/>
		</g>
		<g>
			<path class="st9" d="M21.6,236.4l2.3,1.7c0,0,0.9,3.4,0,6.8c-0.9,3.4-3.6,6-3.6,6l-0.2,2.4L19,272.4l-0.9-16.9l-2.4,0l-0.6,18.7
				c0,0-2.2-18.9-1.6-19c0.6-0.1,0,0.9-0.8,1c-0.9,0-1.3,18.8-1.8,18.8c-0.6,0,0.9-19.6,0.2-21.5c-0.7-1.9-2.9-0.5-3.2-0.7
				c-0.4-0.2,3.3-2,4-1.2c0.7,0.7,0.7,0.7,0.7,0.7l6.8-2c0,0,5.1-4.5,4.7-6.1C23.8,242.5,21.6,236.4,21.6,236.4z"/>
		</g>
		<g>
			<path class="st9" d="M18,236.4c4.3-2.8,12.9,6.2,2.2,14.5c0.1,4.4,2.3,15.3-4.2,14.2c-2.1,0.1-4.7-5.6-4.1-11.9
				C9.4,250,8,251.6,8,251.6C11.9,245.4,18,236.4,18,236.4z"/>
		</g>
		<g>
			<path class="st11" d="M146.3,127.9l3,32c0,0,13,17.1,15.2,26.5c2.2,9.4,6.6,16.2,9.6,20.5c2.6,3.9,21.1,23.6,24.9,27.6
				c-4.4,9.6-2.6,15.9,5.3,18.8c-0.3,12.9,1,19.7,3.9,20.4c1,2.4,2.4,2.7,4.1,0.8c1.4,2.3,2.8,2.5,4.2,0.7c2.5-0.1,3.7-1.2,3.4-3.4
				c1.9-11,2-17.5,0.4-19.5c-6.6-10.2-10.7-16.6-12.1-19.2c0,0-14.8-39.1-18.8-43.4c-4-4.4-8.6-8.6-10-12.8
				c-1.4-4.2-10.2-44.8-15.6-51.4c-5.3-6.5-9.1-7.6-13.2-8.4c-4.1-0.7-4.5-0.7-4.5-0.7L146.3,127.9z"/>
		</g>
		<g>
			<ellipse class="st12" cx="111.4" cy="132.6" rx="41.2" ry="15.4"/>
		</g>
		<g>
			<path class="st9" d="M111.3,167.6c0.3,6.7-8.1,8.8-25.4,6.3c-5.2-0.5-9-4.4-11.4-11.8c-0.5,0.8-1.1,1.7-1.7,2.6
				c1.6,2.4,2.9,4.6,3.8,6.6c3.4,7.3,20.6,7.4,30.9,4.7c5.7-1.5,5.8-9,4.8-21.3L111.3,167.6z"/>
		</g>
		<g>
			<path class="st13" d="M77.1,173c-0.8-4.4-2.1-14.2-3.1-32.9c0.2,11.7-0.2,17.2-1.4,24.8C75.3,169.6,77,172.6,77.1,173z"/>
		</g>
		<g>
			<path class="st6" d="M80.6,247.3c0.8,13.1,18.3,25.3,52.7,36.4c-34-13.6-49.8-25.9-47.3-36.8C82.3,247.2,80.5,247.3,80.6,247.3z"
				/>
		</g>
		<g>
			<path class="st12" d="M112.8,217.9L112.8,217.9L112.8,217.9z M118.8,217.7c4.1-0.2,8.2-0.8,10.1-2.1c0.9-0.6,2.3-1.6,3.8-2.7
				c0.5-2.3,0.8-4.8,0.8-7.4c0-2.2-0.2-4.4-0.6-6.4c-2.2-11.2-9.9-19.6-19.1-19.6c-9.1,0-16.8,8.2-19.1,19.3
				c-0.4,2.1-0.7,4.4-0.7,6.7c0,3,0.4,5.8,1.1,8.5c0.9,0.7,1.7,1.2,2.3,1.6c1.9,1.3,6,1.8,10.1,2.1l0,0c0,0,2.2,0.1,5.3,0.1l0.3,0h0
				C116.4,217.9,118.8,217.8,118.8,217.7L118.8,217.7z"/>
		</g>
		<g>
			<path class="st12" d="M17.9,235c4.1-2.6,11.8,7.4,1.5,15.2c1,9.2,0.9,13.8-3.7,13.1c-2,0.1-3.4-5.9-3.1-11.1
				c-2.4-3-5.6-0.2-5.6-0.2C10.9,246.2,17.9,235,17.9,235z"/>
		</g>
		<g>
			<path class="st14" d="M14,258.3l0.5,3.2c0,0,1.3,0.9,2.8,0.5c1.4-0.4,1.7-0.7,1.7-0.7l-0.4-3.5C18.6,257.8,15.7,256.7,14,258.3z"
				/>
		</g>
		<g>
			<path class="st15" d="M26.5,229.8c0,0,21.3-27.2,22.2-34.8c0.9-7.5-8.4-8-8.4-8s-2.9,2-6.2,9.5c-3.3,7.5-14.9,36.3-14.9,36.3
				S23.3,237,26.5,229.8z"/>
		</g>
		<g>
			<path class="st13" d="M15.6,238.8c-1.4-2.7,7.3-3.2,10.5-2.9c3.2,0.3,3.9,2.5,3.9,2.5s1.1-0.9,0.7-2c-0.4-1.2-1-3.1-9.1-2.8
				C13.5,233.8,13.8,238.1,15.6,238.8z"/>
		</g>
		<g>
			<path class="st16" d="M19.1,233.1c0.7,0,1.2-0.5,1.2-1c0-0.6-0.5-1-1.2-1c-0.7,0-1.2,0.5-1.2,1C17.9,232.7,18.5,233.1,19.1,233.1
				z"/>
		</g>
		<g>
			<path class="st16" d="M21.5,232.7c0.8,0,1.4-0.6,1.4-1.2c0-0.7-0.6-1.2-1.4-1.2c-0.8,0-1.4,0.6-1.4,1.2
				C20.1,232.1,20.7,232.7,21.5,232.7z"/>
		</g>
		<g>
			<path class="st16" d="M24.3,232.6c0.8,0,1.4-0.6,1.4-1.2c0-0.7-0.6-1.2-1.4-1.2c-0.8,0-1.4,0.6-1.4,1.2
				C23,232,23.6,232.6,24.3,232.6z"/>
		</g>
		<g>
			<path class="st16" d="M27.2,232.8c0.8,0,1.4-0.6,1.4-1.2c0-0.7-0.6-1.2-1.4-1.2c-0.8,0-1.4,0.6-1.4,1.2
				C25.8,232.2,26.4,232.8,27.2,232.8z"/>
		</g>
		<g>
			<path class="st16" d="M29.7,233.7c0.8,0,1.4-0.6,1.4-1.2c0-0.7-0.6-1.2-1.4-1.2c-0.8,0-1.4,0.6-1.4,1.2
				C28.3,233.2,28.9,233.7,29.7,233.7z"/>
		</g>
		<g>
			<path class="st17" d="M21.5,225.6c0.4,0.1,0.7,0.4,0.8,0.8c0,0,0,0,0-0.1c0.2-0.6,1.1-0.9,1.8-0.7c0.8,0.3,1.2,1,0.9,1.6
				c-0.2,0.6-1.1,0.9-1.8,0.7c-0.5-0.2-0.8-0.5-0.9-1l0,0c-0.2,0.5-0.9,0.8-1.5,0.6c-0.6-0.2-1-0.8-0.8-1.4
				C20.2,225.6,20.9,225.4,21.5,225.6L21.5,225.6z M31.9,229.4c-0.5-0.2-1-0.1-1.4,0.1c0.1-0.1,0.1-0.2,0.1-0.3
				c0.2-0.6-0.2-1.4-0.9-1.6c-0.8-0.3-1.6,0-1.8,0.7c-0.2,0.6,0.2,1.4,0.9,1.6c0.5,0.2,1,0.1,1.4-0.1c-0.1,0.1-0.1,0.2-0.1,0.3
				c-0.2,0.6,0.2,1.4,0.9,1.6c0.8,0.3,1.6,0,1.8-0.7C33,230.4,32.6,229.7,31.9,229.4L31.9,229.4z M27,226.5c-0.8-0.3-1.6,0-1.8,0.7
				c-0.2,0.6,0.2,1.4,0.9,1.6c0.8,0.3,1.6,0,1.8-0.7C28.2,227.5,27.8,226.7,27,226.5z"/>
		</g>
		<g>
			<path class="st17" d="M24.2,221.4c0.4,0.2,0.6,0.5,0.7,0.9c0,0,0,0,0-0.1c0.3-0.6,1.2-0.8,1.9-0.4c0.7,0.4,1,1.1,0.7,1.7
				c-0.3,0.6-1.2,0.8-1.9,0.4c-0.5-0.2-0.8-0.6-0.8-1.1l0,0c-0.3,0.5-1,0.7-1.6,0.4c-0.6-0.3-0.9-1-0.6-1.5
				C22.9,221.3,23.6,221.1,24.2,221.4L24.2,221.4z M34,226.6c-0.5-0.2-1-0.2-1.4,0c0.1-0.1,0.1-0.1,0.2-0.2c0.3-0.6,0-1.4-0.7-1.7
				c-0.7-0.4-1.6-0.2-1.9,0.4c-0.3,0.6,0,1.4,0.7,1.7c0.5,0.2,1,0.2,1.4,0c-0.1,0.1-0.1,0.1-0.2,0.2c-0.3,0.6,0,1.4,0.7,1.7
				c0.7,0.4,1.6,0.2,1.9-0.4C35,227.7,34.7,226.9,34,226.6L34,226.6z M29.5,223c-0.7-0.4-1.6-0.2-1.9,0.4c-0.3,0.6,0,1.4,0.7,1.7
				c0.7,0.4,1.6,0.2,1.9-0.4C30.6,224.2,30.3,223.4,29.5,223z"/>
		</g>
		<g>
			<path class="st18" d="M88.3,72.3l51.8-0.4c1.7,0,3.3,1.4,3.1,3.1l-1,9.4c-0.2,1.7-1.4,3.1-3.1,3.1H89.2c-1.7,0-2.9-1.4-3.1-3.1
				l-0.9-8.9C85,73.7,86.6,72.3,88.3,72.3z"/>
		</g>
		<g>
			<path class="st19" d="M108.5,174.7c-0.5-0.5-0.6-1-0.5-1.6c0,0-0.1,0.1-0.1,0.1c-1,0.7-2.5,0.6-3.4-0.2c-0.9-0.8-0.8-2.1,0.2-2.8
				c1-0.7,2.5-0.6,3.4,0.2c0.6,0.5,0.7,1.3,0.5,1.9l0,0c0.8-0.6,2.1-0.5,2.9,0.2c0.4,0.4,0.6,0.8,0.5,1.3c0.4-0.3,1-0.5,1.6-0.5
				c1.3,0,2.3,0.9,2.3,2c0,1.1-1,2-2.3,2c-1.3,0-2.3-0.9-2.3-2c0-0.1,0-0.2,0-0.3C110.5,175.5,109.2,175.4,108.5,174.7L108.5,174.7z
				 M119.1,174.6c0.5-0.5,0.6-1,0.5-1.6c0,0,0.1,0.1,0.1,0.1c1,0.7,2.5,0.6,3.4-0.2c0.9-0.8,0.8-2.1-0.2-2.8c-1-0.7-2.5-0.6-3.4,0.2
				c-0.6,0.5-0.7,1.3-0.5,1.9l0,0c-0.8-0.6-2.1-0.5-2.9,0.2c-0.8,0.7-0.7,1.8,0.1,2.4C117,175.4,118.3,175.3,119.1,174.6
				L119.1,174.6z M133.7,158.1c0-0.7-0.5-1.4-1.1-1.7c0.2,0,0.3,0.1,0.5,0.1c1.3,0,2.3-0.9,2.3-2.1c0-1.1-1.1-2.1-2.3-2.1
				c-1.3,0-2.3,0.9-2.3,2.1c0,0.7,0.5,1.4,1.1,1.7c-0.2,0-0.3-0.1-0.5-0.1c-1.3,0-2.3,0.9-2.3,2.1c0,0.6,0.3,1.1,0.7,1.4
				c-0.9-0.2-1.8,0-2.5,0.6c-0.9,0.8-0.8,2.1,0.2,2.8c0.1,0.1,0.3,0.2,0.5,0.3c-0.8-0.1-1.6,0.1-2.2,0.7c-0.9,0.8-0.8,2.1,0.2,2.8
				c1,0.7,2.5,0.6,3.4-0.2c0.9-0.8,0.8-2.1-0.2-2.8c-0.1-0.1-0.3-0.2-0.5-0.3c0.8,0.1,1.6-0.1,2.2-0.7c0.8-0.8,0.8-1.9,0-2.6
				c0.2,0,0.4,0.1,0.5,0.1C132.7,160.2,133.8,159.3,133.7,158.1L133.7,158.1z M135.8,150.1c0-2.7-4.7-2.7-4.6,0
				c0,1.1,1.1,2.1,2.3,2.1C134.8,152.2,135.8,151.3,135.8,150.1L135.8,150.1z M126.5,169.9c-0.9,0.8-2.4,0.9-3.4,0.2
				c-1-0.7-1.1-2-0.2-2.8c0.9-0.8,2.4-0.9,3.4-0.2C127.3,167.8,127.4,169,126.5,169.9L126.5,169.9z M93.8,158.2
				c0-0.7,0.5-1.4,1.1-1.7c-0.2,0-0.3,0.1-0.5,0.1c-1.3,0-2.3-0.9-2.3-2.1c0-1.1,1.1-2.1,2.3-2.1c1.3,0,2.3,0.9,2.3,2.1
				c0,0.7-0.5,1.4-1.1,1.7c0.2,0,0.3-0.1,0.5-0.1c1.3,0,2.3,0.9,2.3,2.1c0,0.6-0.3,1-0.7,1.4c0.9-0.2,1.8,0,2.5,0.6
				c0.9,0.8,0.8,2.1-0.2,2.8c-0.1,0.1-0.3,0.2-0.5,0.3c0.8-0.1,1.6,0.1,2.2,0.7c0.9,0.8,0.8,2.1-0.2,2.8c-1,0.7-2.5,0.6-3.4-0.2
				c-0.9-0.8-0.8-2.1,0.2-2.8c0.1-0.1,0.3-0.2,0.5-0.3c-0.8,0.1-1.6-0.1-2.2-0.7c-0.8-0.8-0.8-1.9,0-2.6c-0.2,0-0.4,0.1-0.5,0.1
				C94.8,160.3,93.8,159.3,93.8,158.2L93.8,158.2z M91.8,150.2c0-2.7,4.7-2.7,4.6,0c0,1.1-1.1,2.1-2.3,2.1
				C92.8,152.3,91.7,151.3,91.8,150.2L91.8,150.2z M101.1,169.9c0.9,0.8,2.4,0.9,3.4,0.2c1-0.7,1.1-2,0.2-2.8
				c-0.9-0.8-2.4-0.9-3.4-0.2C100.3,167.8,100.2,169.1,101.1,169.9z"/>
		</g>
		<g>
			<path class="st19" d="M92,146.3c-0.2-1.3,0.7-2.4,1.9-2.6c1.2-0.2,2.4,0.7,2.6,1.9c0.2,1.3-0.7,2.4-1.9,2.6
				C93.3,148.4,92.1,147.6,92,146.3z"/>
		</g>
		<g>
			<path class="st19" d="M93.3,137.8c0.1,0.7,0.5,1.2,1.1,1.5c0,0-0.1,0-0.1,0c-1.2,0.2-2.1,1.4-1.9,2.6c0.2,1.3,1.3,2.1,2.6,1.9
				c1.2-0.2,2.1-1.4,1.9-2.6c-0.1-0.8-0.6-1.5-1.3-1.8l0,0c1-0.2,1.8-1.2,1.6-2.2c-0.2-1.1-1.1-1.8-2.2-1.7
				C93.8,135.7,93.1,136.7,93.3,137.8z"/>
		</g>
		<g>
			<path class="st19" d="M95.7,130.5c0,0.6,0.4,1.1,0.8,1.4c0,0-0.1,0-0.1,0c-1.1,0.1-2,1.1-2,2.2c0.1,1.2,1,2,2.2,1.9
				c1.1-0.1,2-1.1,2-2.2c0-0.7-0.5-1.4-1.1-1.7l0,0c1-0.1,1.7-0.9,1.6-1.9c0-1-0.9-1.7-1.8-1.7C96.4,128.7,95.7,129.5,95.7,130.5z"
				/>
		</g>
		<g>
			<path class="st19" d="M132.4,130.6c0,0.6-0.3,1.2-0.8,1.5c0,0,0.1,0,0.1,0c1.2,0,2.1,1,2,2.2c0,1.2-1,2.1-2.1,2
				c-1.2,0-2.1-1-2-2.2c0-0.8,0.4-1.4,1-1.8l0,0c-1,0-1.7-0.9-1.7-1.9c0-1,0.8-1.8,1.8-1.7C131.7,128.7,132.4,129.6,132.4,130.6z"/>
		</g>
		<g>
			<path class="st20" d="M114.4,193.9c-7,0-13.5-6.5-18.3-18.3c-4.8-11.6-7.4-26.9-7.4-43.2c0-16.3,2.6-31.6,7.4-43.2
				c4.8-11.8,11.3-18.3,18.3-18.3c7,0,13.5,6.5,18.3,18.3c4.8,11.6,7.4,26.9,7.4,43.2c0,16.3-2.6,31.6-7.4,43.2
				C127.9,187.4,121.4,193.9,114.4,193.9z M114.4,72.5c-6.3,0-12.4,6.2-17,17.4c-4.7,11.4-7.3,26.5-7.3,42.6s2.6,31.2,7.3,42.6
				c4.6,11.2,10.6,17.4,17,17.4s12.4-6.2,17-17.4c4.7-11.4,7.3-26.5,7.3-42.6s-2.6-31.2-7.3-42.6C126.8,78.7,120.8,72.5,114.4,72.5z
				"/>
		</g>
		<g>
			<path class="st21" d="M140.1,67.9l0.2,27.5c0,0,0.1,16-4.9,26.4c-4.9,10.1-19.8,27-20.8,28.1l0,0.1c0,0-16-17.8-21.2-28.1
				c-5.2-10.4-5.3-26.4-5.3-26.4L88,68l27.8,1.7L140.1,67.9z"/>
		</g>
		<g>
			<path class="st22" d="M115.7,35.9H95.2c0,0-10.9,7.6-10.1,17c0.8,9.4,5,21.4,5,21.4l22.4,1.3v0.1l1-0.1l1,0.1v-0.1l22.4-1.3
				c0,0,4.2-12,5-21.4c0.8-9.4-10.1-17-10.1-17L115.7,35.9L115.7,35.9z"/>
		</g>
		<g>
			<path class="st23" d="M108.9,44.9l4.9,2.6l5.2-2.6c8.7-4.3,17.8,7.7,17.8,17.2v19.7c0,9.5-8,17.2-17.8,17.2h-10.2
				c-9.8,0-17.8-7.7-17.8-17.2V62.1C91.1,52.7,100.4,40.4,108.9,44.9z"/>
		</g>
		<g>
			<path class="st12" d="M109.9,44.9l3.8,2.6l4-2.6c6.7-4.3,13.7,7.7,13.7,17.2v19.7c0,9.5-6.2,17.2-13.7,17.2h-7.8
				c-7.5,0-13.7-7.7-13.7-17.2V62.1C96.2,52.7,103.3,40.4,109.9,44.9z"/>
		</g>
		<g>
			<path class="st11" d="M113.7,105.9c5.9,0,10.8-3.2,10.8-7.2s-4.8-7.2-10.8-7.2c-5.9,0-10.8,3.2-10.8,7.2S107.7,105.9,113.7,105.9
				z"/>
		</g>
		<g>
			<path class="st22" d="M100.3,26.5h26.4c2.8,0,5.1,2.3,5.1,5.1v5.1H95.2v-5.1C95.2,28.8,97.5,26.5,100.3,26.5z"/>
		</g>
		<g>
			<path class="st22" d="M108.2,17.9h10.9c5.2,0,9.5,4.3,9.5,9.5v9.5H98.8v-9.5C98.8,22.1,103,17.9,108.2,17.9z"/>
		</g>
		<g>
			<path class="st24" d="M126.2,27.7c1.6,0.8,2.7,2.4,2.7,4.3v4.8h-2.7h-24.4h-3V32c0-2,1.2-3.7,3-4.4c0.2-4.6,4.1-8.3,8.7-8.3h6.9
				C122.1,19.3,126,23,126.2,27.7z"/>
		</g>
		<g>
			<path class="st18" d="M112,87.1c-3.4-0.1-5.2-0.2-5.2-0.2c-0.7-2.2,0.2-3.8,2.6-4.6c1.1-3.1,3.6-5.6,4.2-5.5
				c0.5,0,3.1,2.5,4.2,5.5c2.4,0.9,3.2,2.4,2.6,4.6c0,0-1.7,0.1-5.2,0.2c0.3,0-0.2,0-1.6,0v0C112.2,87.1,111.7,87.1,112,87.1z"/>
		</g>
		<g>
			<path class="st25" d="M107.4,83.6c-0.8,1-1,2.1-0.5,3.4c0,0,4.5,0,13.5,0c0.4-0.9,0.3-1.9-0.4-3.2c0.2,1-1,1.3-3.6,0.9
				c-1.9,1.3-3.7,1.3-5.6,0.1C108.8,85,107.7,84.6,107.4,83.6z"/>
		</g>
		<g>
			<path class="st26" d="M107.8,87c2.8,0.1,4.2,0.1,4.2,0.1C110.8,85.2,109.4,85.2,107.8,87z"/>
		</g>
		<g>
			<path class="st21" d="M113.7,99L113.7,99c2.1,0,3.7,1.7,3.7,3.7v4.9c0,2.1-1.7,3.7-3.7,3.7l0,0c-2.1,0-3.7-1.7-3.7-3.7v-4.9
				C109.9,100.7,111.6,99,113.7,99z"/>
		</g>
		<g>
			<path class="st26" d="M119.3,87c-2.8,0.1-4.2,0.1-4.2,0.1C116.3,85.2,117.7,85.1,119.3,87z"/>
		</g>
		<g>
			<path class="st9" d="M113.7,94.9h-5.2c-1.2,0-2.2-0.7-2.5-1.8c0,0-0.1,0.1-0.1,0.1c0.1,1.2,0.7,2.3,1.7,3
				c0.2,0.2,0.5,0.3,0.8,0.5c0.6,0.3,1.2,0.4,1.9,0.4h3.5h3.7c0.7,0,1.3-0.1,1.8-0.4c0.3-0.1,0.5-0.3,0.8-0.5
				c0.9-0.7,1.5-1.7,1.7-2.9c0,0-0.1-0.1-0.1-0.1c-0.4,1-1.4,1.7-2.5,1.7H113.7z"/>
		</g>
		<g>
			<path class="st27" d="M113.4,84.5c1.3,0,2.4-0.4,2.4-0.8c0-0.5-1.1-0.8-2.4-0.8c-1.3,0-2.4,0.4-2.4,0.8
				C111,84.1,112.1,84.5,113.4,84.5z"/>
		</g>
		<g>
			<path class="st27" d="M115.4,82.6c0.3,0,0.6-0.2,0.6-0.4c0-0.2-0.2-0.4-0.6-0.4c-0.3,0-0.6,0.2-0.6,0.4
				C114.8,82.4,115,82.6,115.4,82.6z"/>
		</g>
		<g>
			<path class="st28" d="M113.7,94h-5.2c-1.2,0-2.2-0.4-2.5-0.9c0,0-0.1,0-0.1,0c0.1,0.6,0.7,1.1,1.7,1.5c0.2,0.1,0.5,0.2,0.8,0.2
				c0.6,0.1,1.2,0.2,1.9,0.2h3.5h3.7c0.7,0,1.3-0.1,1.8-0.2c0.3-0.1,0.5-0.1,0.8-0.2c0.9-0.3,1.5-0.9,1.7-1.5c0,0-0.1,0-0.1-0.1
				c-0.4,0.5-1.4,0.9-2.5,0.9H113.7z"/>
		</g>
		<g>
			<path class="st1" d="M100.7,99.1c-1,1.1-2.9,1.2-4.2,0.1c-1.3-1.1-1.5-3-0.4-4.1c4.6-5.1,3.4-8.4,14.3-8.3c1.3,0,2.5,0.9,3,2.1
				c0.5-1.2,1.7-2.1,3-2.1c10.9-0.1,9.7,3.2,14.3,8.3c1,1.1,0.9,3-0.4,4.1c-1.3,1.1-3.2,1.1-4.2-0.1c-2.9-3.2-1.5-6.6-10.1-6.5
				c-1.2,0-2.2-0.6-2.6-1.6c-0.4,1-1.4,1.6-2.6,1.6C102.3,92.6,103.6,96,100.7,99.1z"/>
		</g>
		<g>
			<path class="st29" d="M112.1,62.2c-0.2-3.4,1.5-13.1,1.7-13c0.2,0,1.9,9.5,1.7,13C114.8,64.4,112.8,64.1,112.1,62.2z"/>
		</g>
		<g>
			<path class="st9" d="M115.6,67.1c5.8-0.4,11.7,0.3,17.6,2.3C132.2,81.2,114.8,80.3,115.6,67.1z"/>
		</g>
		<g>
			<path class="st9" d="M111.9,67.1c-5.8-0.4-11.7,0.3-17.6,2.3C95.3,81.2,112.8,80.3,111.9,67.1z"/>
		</g>
		<g>
			<path class="st1" d="M131.8,68.1c1,0.1,1.7,0.9,1.6,1.8c-0.1,0.9-0.9,1.6-1.9,1.5c-2.1-0.2-2.8-1.2-3.4-2.1
				c-0.1-0.2-0.3-0.4-0.3-0.4c-1.1-0.2-3.4,0.1-5.4,0.3c-1.5,0.2-2.8,0.3-3.8,0.3c-0.7,0-1.3-0.1-1.8-0.6c-0.6-0.5-0.9-1.1-0.9-2.2
				c0-0.9,0.8-1.7,1.7-1.7c0.8,0,1.4,0.4,1.7,1.1c0.7,0,1.8-0.2,2.8-0.3c2.3-0.3,4.9-0.6,6.5-0.3c1.4,0.3,1.9,1,2.5,1.8
				C131.1,67.7,131.3,68,131.8,68.1z"/>
		</g>
		<g>
			<path class="st30" d="M128.4,74.1c0,0,2.5,0.2,2.5,0.2c-2.2,0.1-2.2,0.6-3,2.1c-1.9,2-9.4,1.7-9.2-2.5c0,0,0.5,0.1,0.5,0
				C119.8,77,127,78,128.4,74.1z"/>
		</g>
		<g>
			<path class="st30" d="M98.8,74.1c0,0-2.5,0.2-2.5,0.2c2.2,0.1,2.2,0.6,3,2.1c1.9,2,9.4,1.7,9.2-2.5c0,0-0.5,0.1-0.5,0
				C107.4,77,100.2,78,98.8,74.1z"/>
		</g>
		<g>
			<path class="st31" d="M94.4,34.5h38.9c0.6,0,1.1,0.5,1.1,1.1l0,0c0,0.6-0.5,1.1-1.1,1.1H94.4c-0.6,0-1.1-0.5-1.1-1.1l0,0
				C93.3,35,93.8,34.5,94.4,34.5z"/>
		</g>
		<g>
			<path class="st22" d="M111.1,18.3c3.9,0,5.9,0,5.9,0c-2.8-2.4-1.7-4.3,3.3-5.7c3.3-2.7,2.4-4.8-2.5-6.4c3.3,2.5,1.6,4.4-5.1,5.7
				C109,13.5,108.5,15.6,111.1,18.3z"/>
		</g>
		<g>
			<path class="st19" d="M136,146.6c0.2-1.3-0.7-2.4-1.9-2.6c-1.2-0.2-2.4,0.7-2.6,1.9c-0.2,1.3,0.7,2.4,1.9,2.6
				C134.7,148.7,135.8,147.9,136,146.6z"/>
		</g>
		<g>
			<path class="st19" d="M134.7,138.1c-0.1,0.7-0.5,1.2-1.1,1.5c0,0,0.1,0,0.1,0c1.2,0.2,2.1,1.4,1.9,2.6c-0.2,1.3-1.3,2.1-2.6,1.9
				c-1.2-0.2-2.1-1.4-1.9-2.6c0.1-0.8,0.6-1.5,1.3-1.8l0,0c-1-0.2-1.8-1.2-1.6-2.2c0.2-1.1,1.1-1.8,2.2-1.7
				C134.1,136,134.8,137,134.7,138.1z"/>
		</g>
		<g>
			<path class="st32" d="M112.2,193.5c0.2,0.8,0.9,1.5,1.6,1.7c-0.1,0-0.1,0-0.2,0c-1.6,0.5-2.5,2.1-2,3.7c0.4,1.6,2.1,2.5,3.6,2
				c1.6-0.5,2.5-2.1,2-3.7c-0.3-1-1.1-1.8-2-2l0,0c1.3-0.4,2.1-1.8,1.7-3.2c-0.4-1.4-1.8-2.1-3.1-1.8
				C112.6,190.7,111.8,192.1,112.2,193.5z"/>
		</g>
		<g>
			<path class="st13" d="M113.9,214.8c0.7,0,1.3-1.4,1.3-3.1c0-1.7-0.6-3.1-1.3-3.1c-0.7,0-1.3,1.4-1.3,3.1
				C112.7,213.4,113.2,214.8,113.9,214.8z"/>
		</g>
		<g>
			<path class="st33" d="M52.9,167.8c0,0-1.8,5.6,0.9,10c2.7,4.5,9.1,0.2,9.1,0.2l-6.6,11.5c0,0,0.4-4.5-1.3-6.5
				c-1.6-2.1-6.3-2.3-6.3-2.3L52.9,167.8z"/>
		</g>
		<g>
			<path class="st34" d="M45.1,222c0,0,3.1,0.7,4.7,1.1c1.5,0.5,6.2,2.3,10.3,5.8c4.1,3.6,8.1,9,11.1,10.4c3,1.4,20.7,1.6,20.7,1.6
				l-0.6,5.1c0,0-21.4,1.4-27.6-2.9c-6.2-4.3-13.1-10.5-15.8-10.8c-2.7-0.4-5.9-0.7-6.2-1.4c-0.3-0.7,1.3-2.2,1.3-2.2l-0.6-3l2-0.7
				C44.4,225.1,43,223.1,45.1,222z"/>
		</g>
		<g>
			<path class="st7" d="M168,240.6c-8.1,6.7-18.7,8.6-31.8,5.8c-2.4-12.8,1.6-18.5,11.7-17.2c7.7-0.5,13.2-3.6,16.6-9.1
				c17.3-7.2,22.4-4.1,20.7,1.7c2.8,9.3,3.2,11.5-1,11.8C178,234.8,172.6,237.2,168,240.6z"/>
		</g>
		<g>
			<path class="st9" d="M205.9,236.6l-2.3,1.7c0,0-0.9,3.4,0,6.8c0.9,3.4,3.6,6,3.6,6l0.2,2.4l1.1,19.1l0.9-16.9l2.4,0l0.6,18.7
				c0,0,2.2-18.9,1.6-19c-0.6-0.1,0,0.9,0.8,1c0.9,0,1.3,18.8,1.8,18.8c0.6,0-0.9-19.6-0.2-21.5c0.7-1.9,2.9-0.5,3.2-0.7
				c0.4-0.2-3.3-2-4-1.2c-0.7,0.7-0.7,0.7-0.7,0.7l-6.8-2c0,0-5.1-4.5-4.7-6.1C203.7,242.7,205.9,236.6,205.9,236.6z"/>
		</g>
		<g>
			<path class="st9" d="M209.4,236.7c-4.3-2.8-12.9,6.2-2.2,14.5c-0.1,4.4-2.3,15.3,4.2,14.2c2.1,0.1,4.7-5.6,4.1-11.9
				c2.5-3.2,3.9-1.6,3.9-1.6C215.5,245.7,209.4,236.7,209.4,236.7z"/>
		</g>
		<g>
			<path class="st12" d="M209.5,235.2c-4.1-2.6-11.8,7.4-1.5,15.2c-1,9.2-0.9,13.8,3.7,13.1c2,0.1,3.4-5.9,3.1-11.1
				c2.4-3,5.6-0.2,5.6-0.2C216.6,246.4,209.5,235.2,209.5,235.2z"/>
		</g>
		<g>
			<path class="st14" d="M213.4,258.6l-0.5,3.2c0,0-1.3,0.9-2.8,0.5c-1.4-0.4-1.7-0.7-1.7-0.7l0.4-3.5
				C208.8,258.1,211.7,256.9,213.4,258.6z"/>
		</g>
		<g>
			<path class="st15" d="M201,230c0,0-21.3-27.2-22.2-34.8c-0.9-7.5,8.4-8,8.4-8s2.9,2,6.2,9.5c3.3,7.5,14.9,36.3,14.9,36.3
				S204.2,237.3,201,230z"/>
		</g>
		<g>
			<path class="st13" d="M211.9,239.1c1.4-2.7-7.3-3.2-10.5-2.9c-3.2,0.3-3.9,2.5-3.9,2.5s-1.1-0.9-0.7-2c0.4-1.2,1-3.1,9.1-2.8
				C214,234.1,213.6,238.3,211.9,239.1z"/>
		</g>
		<g>
			<path class="st16" d="M208.3,233.4c0.7,0,1.2-0.5,1.2-1c0-0.6-0.5-1-1.2-1c-0.7,0-1.2,0.5-1.2,1
				C207.1,232.9,207.7,233.4,208.3,233.4z"/>
		</g>
		<g>
			<path class="st16" d="M206,233c0.8,0,1.4-0.6,1.4-1.2c0-0.7-0.6-1.2-1.4-1.2c-0.8,0-1.4,0.6-1.4,1.2
				C204.6,232.4,205.2,233,206,233z"/>
		</g>
		<g>
			<path class="st16" d="M203.1,232.8c0.8,0,1.4-0.6,1.4-1.2c0-0.7-0.6-1.2-1.4-1.2c-0.8,0-1.4,0.6-1.4,1.2
				C201.7,232.3,202.3,232.8,203.1,232.8z"/>
		</g>
		<g>
			<path class="st16" d="M200.3,233.1c0.8,0,1.4-0.6,1.4-1.2c0-0.7-0.6-1.2-1.4-1.2c-0.8,0-1.4,0.6-1.4,1.2
				C198.9,232.5,199.5,233.1,200.3,233.1z"/>
		</g>
		<g>
			<path class="st16" d="M197.8,234c0.8,0,1.4-0.6,1.4-1.2c0-0.7-0.6-1.2-1.4-1.2c-0.8,0-1.4,0.6-1.4,1.2
				C196.4,233.5,197,234,197.8,234z"/>
		</g>
		<g>
			<path class="st17" d="M205.9,225.9c-0.4,0.1-0.7,0.4-0.8,0.8c0,0,0,0,0-0.1c-0.2-0.6-1.1-0.9-1.8-0.7c-0.8,0.3-1.2,1-0.9,1.6
				c0.2,0.6,1.1,0.9,1.8,0.7c0.5-0.2,0.8-0.5,0.9-1l0,0c0.2,0.5,0.9,0.8,1.5,0.6c0.6-0.2,1-0.8,0.8-1.4
				C207.3,225.9,206.6,225.6,205.9,225.9L205.9,225.9z M195.6,229.7c0.5-0.2,1-0.1,1.4,0.1c-0.1-0.1-0.1-0.2-0.1-0.3
				c-0.2-0.6,0.2-1.4,0.9-1.6c0.8-0.3,1.6,0,1.8,0.7c0.2,0.6-0.2,1.4-0.9,1.6c-0.5,0.2-1,0.1-1.4-0.1c0.1,0.1,0.1,0.2,0.1,0.3
				c0.2,0.6-0.2,1.4-0.9,1.6c-0.8,0.3-1.6,0-1.8-0.7C194.4,230.7,194.8,229.9,195.6,229.7L195.6,229.7z M200.4,226.7
				c0.8-0.3,1.6,0,1.8,0.7c0.2,0.6-0.2,1.4-0.9,1.6c-0.8,0.3-1.6,0-1.8-0.7C199.3,227.7,199.7,227,200.4,226.7z"/>
		</g>
		<g>
			<path class="st17" d="M203.2,221.7c-0.4,0.2-0.6,0.5-0.7,0.9c0,0,0,0,0-0.1c-0.3-0.6-1.2-0.8-1.9-0.4c-0.7,0.4-1,1.1-0.7,1.7
				c0.3,0.6,1.2,0.8,1.9,0.4c0.5-0.2,0.8-0.6,0.8-1.1l0,0c0.3,0.5,1,0.7,1.6,0.4c0.6-0.3,0.9-1,0.6-1.5
				C204.6,221.6,203.9,221.4,203.2,221.7L203.2,221.7z M193.5,226.8c0.5-0.2,1-0.2,1.4,0c-0.1-0.1-0.1-0.1-0.2-0.2
				c-0.3-0.6,0-1.4,0.7-1.7c0.7-0.4,1.6-0.2,1.9,0.4c0.3,0.6,0,1.4-0.7,1.7c-0.5,0.2-1,0.2-1.4,0c0.1,0.1,0.1,0.1,0.2,0.2
				c0.3,0.6,0,1.4-0.7,1.7c-0.7,0.4-1.6,0.2-1.9-0.4C192.5,228,192.8,227.2,193.5,226.8L193.5,226.8z M197.9,223.3
				c0.7-0.4,1.6-0.2,1.9,0.4c0.3,0.6,0,1.4-0.7,1.7c-0.7,0.4-1.6,0.2-1.9-0.4C196.9,224.4,197.2,223.7,197.9,223.3z"/>
		</g>
		<g>
			<path class="st33" d="M174.5,168c0,0,1.8,5.6-0.9,10c-2.7,4.5-9.1,0.2-9.1,0.2l6.6,11.5c0,0-0.4-4.5,1.3-6.5
				c1.6-2.1,6.3-2.3,6.3-2.3L174.5,168z"/>
		</g>
		<g>
			<path class="st34" d="M182.3,222.3c0,0-3.1,0.7-4.7,1.1c-1.5,0.5-6.2,2.3-10.3,5.8c-4.1,3.6-8.1,9-11.1,10.4
				c-3,1.4-20.7,1.6-20.7,1.6l0.6,5.1c0,0,21.4,1.4,27.6-2.9c6.2-4.3,13.1-10.5,15.8-10.8c2.7-0.4,5.9-0.7,6.2-1.4
				c0.3-0.7-1.3-2.2-1.3-2.2l0.6-3l-2-0.7C183,225.4,184.4,223.3,182.3,222.3z"/>
		</g>
		<g>
			<path class="st13" d="M150.1,172.7c0.8-4.4,2.1-14.2,3.1-32.9c-0.2,11.7,0.2,17.2,1.4,24.8C151.9,169.4,150.2,172.4,150.1,172.7z
				"/>
		</g>
		<g>
			<path class="st4" d="M98.8,235.4c0,0,17.9,18.3,26.9,19.7c9,1.4,0-11.8-2.5-19c-2.5-7.2,16.5-11.5,16.5-11.5s11.1,1.1,16.1-1.8
				c5-2.9,7.9-9.6,7.9-9.6l-7.1-1.7l0.5-8.9c0,0-3.5-2.2-5.8,0.1c-2.3,2.3-21.3,17.2-26.3,18.5c-5,1.3-14,4.7-14.9,8.4
				c-0.9,3.8,8.7,11.1,4.5,10.4C110.4,239.4,98.8,235.4,98.8,235.4z"/>
		</g>
		<g>
			<path class="st4" d="M175.7,265.4c0,0-32.8-8.1-38.7-12.2c-5.9-4.1-10.2-16.3-9.7-17.9c0.5-1.6,3.4-2.2,3.4-2.2
				s17.2,1.6,21.7,2.5c4.5,0.9,32.4,7,36,7.9c3.6,0.9-8.4-2-7.2,1.3c1.3,3.2,6.3,8.2,9,11.5c2.7,3.2-11.3-5.2-20.3-6.6
				C161,248.1,175.7,265.4,175.7,265.4z"/>
		</g>
		<g>
			<path class="st6" d="M130.7,233.1c0,0,27.1,4.1,46.6,8.2c19.5,4.1,20.8,17.9,20.8,17.9s-1.8-10.4-6.1-14.9
				C187.7,239.9,141.4,229.5,130.7,233.1z"/>
		</g>
		<g>
			<path class="st6" d="M104.2,231.3c0,0,2.1,0.6,2.4-1.1c0.4-1.7,1.3-3.9,4.6-5.3c3.3-1.3,12.2,5.3,15.9,6.7
				c3.7,1.4,7.7,2.1,7.7,2.1l3.4-1.4c0,0-13.2-3.3-15.7-5.5c-2.5-2.2-7.3-4.6-9.6-4.7c-2.3-0.1-5.4-0.1-6.4,2.5
				c-1,2.6-2.7,4.7-5.4,4.4c-2.7-0.3-7.1-3.6-7.1-3.6S97.9,230.9,104.2,231.3z"/>
		</g>
		<g>
			<path class="st13" d="M144,164c1.2,0,1.7,1.4,1.1,3.1c-0.6,1.7-1.9,3.1-3.1,3.1c-1.2,0-1.7-1.4-1.1-3.1
				C141.4,165.4,142.8,164,144,164z"/>
		</g>
		<g>
			<path class="st13" d="M81.2,164c-1.2,0-1.7,1.4-1.1,3.1c0.6,1.7,1.9,3.1,3.1,3.1c1.2,0,1.7-1.4,1.1-3.1
				C83.7,165.4,82.4,164,81.2,164z"/>
		</g>
		<g>
			<path class="st14" d="M67.8,125.5c1.5,0.4,2,3,1.2,5.7c-0.8,2.7-2.6,4.5-4.1,4.1c-1.5-0.4-2-3-1.2-5.7
				C64.5,126.9,66.3,125,67.8,125.5z"/>
		</g>
		<g>
			<path class="st14" d="M157.8,122.9c-1.5,0.4-2,3-1.2,5.7c0.8,2.7,2.6,4.5,4.1,4.1s2-3,1.2-5.7
				C161.1,124.3,159.3,122.5,157.8,122.9z"/>
		</g>
		<g>
			<path class="st1" d="M100.4,104.6c-2.7,5.2-1.7,8.4-0.6,11.1c1.4,3.2,3.1,5.6-0.7,9.8c1.4-3.3,1.7-4.8,0.5-7.7
				c-0.2-0.4-0.3-0.8-0.5-1.2C96.4,112,96.7,108.5,100.4,104.6L100.4,104.6z M109.9,107.7c-4.6,2.9-5.2,5.6-1.8,9.8l-0.1-0.1
				c5.8,10.3-9.9,7.8,0.7,20.3v0h0l0,0c-2.1-4.1-4.1-7-1-11.1c0.8-0.6,1.1-0.8,1.6-1.3c0.1-0.2,0.3-0.4,0.5-0.6
				c2.2-2.9,1.2-4.8-0.2-6.6C107.6,115.5,104.7,112.9,109.9,107.7z"/>
		</g>
		<g>
			<path class="st21" d="M66.2,118.5c0-3,1.3-4.8,3.1-5.9c2.1-1.4,5-1.9,7.8-2.6l0,0c6.6-2,5.4-6.5,3.6-12.5l0,0
				c-1-4.2-0.6-5.3,0.7-9.4l0,0l0,0l0,0c-0.5,3.5-1,5.6,0.2,9c6.4,18.3-7.3,11.3-13.3,17.5C67.4,115.6,66.7,116.8,66.2,118.5z"/>
		</g>
		<g>
			<path class="st21" d="M161.8,119.1c0-3-1.3-4.8-3.1-5.9c-2.1-1.4-5-1.9-7.8-2.6l0,0c-6.6-2-5.4-6.5-3.6-12.5l0,0
				c1-4.2,0.6-5.3-0.7-9.4l0,0h0l0,0c0.5,3.5,1,5.6-0.2,9c-6.4,18.3,7.3,11.3,13.3,17.5C160.6,116.2,161.3,117.4,161.8,119.1z"/>
		</g>
		<g>
			<path class="st1" d="M127.3,104.7c2.7,5.2,1.7,8.4,0.6,11.1c-1.4,3.2-3.1,5.6,0.7,9.8c-1.4-3.3-1.7-4.8-0.5-7.7
				c0.1-0.4,0.3-0.8,0.5-1.2C131.3,112.1,131,108.6,127.3,104.7L127.3,104.7z M117.8,107.8c4.6,2.9,5.2,5.6,1.8,9.8l0.1-0.1
				c-5.8,10.3,9.9,7.8-0.7,20.3v0l0,0v0c2.1-4.1,4.1-7,1-11.1c-0.8-0.6-1.1-0.8-1.6-1.3c-0.1-0.2-0.3-0.4-0.5-0.6
				c-2.2-2.9-1.2-4.8,0.2-6.6C120.1,115.5,123,113,117.8,107.8z"/>
		</g>
		<g>
			<path class="st1" d="M103.2,34.1c-1.9-1.6-1.2-2.6-0.4-3.4c1-1,2.2-1.7-0.5-3c1,1,1.2,1.5,0.4,2.4c-0.1,0.1-0.2,0.2-0.4,0.4
				C100.4,31.8,100.7,32.9,103.2,34.1L103.2,34.1z M110,33.1c-3.3-0.9-3.7-1.7-1.2-3l0,0c4.1-3.2-7-2.4,0.5-6.3v0h0l0,0
				c-1.5,1.3-2.9,2.2-0.7,3.4c0.5,0.2,0.8,0.2,1.1,0.4c0.1,0,0.2,0.1,0.3,0.2c1.6,0.9,0.9,1.5-0.1,2.1
				C108.3,30.7,106.3,31.5,110,33.1z"/>
		</g>
		<g>
			<path class="st1" d="M124.6,34.1c2.1-1.6,1.3-2.6,0.5-3.4c-1.1-1-2.4-1.7,0.5-3c-1.1,1-1.3,1.5-0.4,2.4c0.1,0.1,0.3,0.2,0.4,0.4
				C127.6,31.8,127.4,32.9,124.6,34.1L124.6,34.1z M117.2,33.1c3.6-0.9,4-1.7,1.4-3l0,0c-4.4-3.2,7.6-2.4-0.5-6.3v0l0,0v0
				c1.7,1.3,3.2,2.2,0.8,3.4c-0.6,0.2-0.9,0.2-1.2,0.4c-0.1,0-0.2,0.1-0.4,0.2c-1.7,0.9-0.9,1.5,0.1,2.1
				C119,30.7,121.2,31.5,117.2,33.1z"/>
		</g>
		<g>
			<path class="st35" d="M43.4,221.4l9,2.7C52.4,224.1,46.1,224.5,43.4,221.4z"/>
		</g>
		<g>
			<path class="st35" d="M49.4,226.7l-8-2.7C41.5,224,46.6,227.5,49.4,226.7z"/>
		</g>
		<g>
			<path class="st35" d="M47.2,229.1l-6.7-1.5C40.5,227.5,44.2,230,47.2,229.1z"/>
		</g>
		<g>
			<path class="st35" d="M45.4,232l-5.3-1.5C40.1,230.6,43.9,232.7,45.4,232z"/>
		</g>
		<g>
			<path class="st14" d="M49.9,219.1l-2,2.4l-4.6-1.2c0,0,0.8-2.6,2-2.6C46.6,217.6,49.9,219.1,49.9,219.1z"/>
		</g>
		<g>
			<path class="st35" d="M184.8,221.8l-8.5,1.4C176.3,223.2,182,224.5,184.8,221.8z"/>
		</g>
		<g>
			<path class="st35" d="M178.6,226.2l7.6-1.5C186.2,224.7,181.1,227.4,178.6,226.2z"/>
		</g>
		<g>
			<path class="st35" d="M180.4,228.9l6.3-0.5C186.6,228.3,183,230.2,180.4,228.9z"/>
		</g>
		<g>
			<path class="st35" d="M181.6,232.1l5-0.7C186.6,231.4,182.8,232.9,181.6,232.1z"/>
		</g>
		<g>
			<path class="st14" d="M179.2,218.6l1.5,2.7l4.3-0.5c0,0-0.3-2.6-1.4-2.9C182.4,217.6,179.2,218.6,179.2,218.6z"/>
		</g>
		<g>
			<path class="st33" d="M76.6,234.9c0,0,2.6-3.1,5.4-1.9c2.8,1.2,4.2,3.5,4.2,3.5l-0.6-4.2l-9.2-1.1L76.6,234.9z"/>
		</g>
		<g>
			<path class="st1" d="M96.3,71.5c-1,0.1-1.8-0.6-1.9-1.5c-0.1-0.9,0.6-1.7,1.6-1.8c0.5,0,0.7-0.4,0.9-0.7c0.6-0.8,1.1-1.5,2.5-1.8
				c1.6-0.3,4.2,0,6.5,0.3c1.1,0.1,2.1,0.2,2.8,0.3c0.3-0.6,0.9-1.1,1.7-1.1c1,0,1.7,0.8,1.7,1.7c0,1-0.4,1.7-0.9,2.2
				c-0.6,0.5-1.2,0.6-1.9,0.6c-1,0-2.4-0.1-3.8-0.3c-2-0.2-4.3-0.5-5.4-0.3c0,0-0.1,0.2-0.3,0.4C99,70.3,98.3,71.3,96.3,71.5z"/>
		</g>
	</g>
</g>
</svg>
