<svg id="Layer_1" data-name="Layer 1" xmlns="http://www.w3.org/2000/svg" width="350.88" height="400.16" viewBox="0 0 350.88 400.16">
  <defs>
    <style>
      .cls-1 {
        opacity: 0.5;
      }

      .cls-2 {
        fill: #f9ff00;
      }

      .cls-3 {
        fill: #efad1b;
      }

      .cls-3, .cls-4, .cls-5 {
        stroke: #e8880a;
      }

      .cls-3, .cls-4, .cls-5, .cls-7 {
        stroke-miterlimit: 10;
      }

      .cls-4, .cls-8 {
        fill: #ff8500;
      }

      .cls-5 {
        fill: #fc0;
      }

      .cls-6 {
        fill: #ffeb00;
      }

      .cls-7 {
        stroke: #b76706;
      }

      .cls-9 {
        fill: #cf7100;
      }

      .cls-10 {
        fill: #ffa400;
      }

      .cls-11 {
        fill: #ffc400;
      }
    </style>
  </defs>
  <g>
    <path class="cls-1" d="M344.75,396.2c-6.93,5.81-18.58,6.28-29-5.78-.1-.11-1-1.27-1.57-1.95l-.28-.35-187-228a22.58,22.58,0,0,0-4.81,3.16,34.53,34.53,0,0,0-3.54,3.45,61.62,61.62,0,0,0-6.25,8.62,79.52,79.52,0,0,0-5.82,12.09,10.82,10.82,0,0,1-3,4.25A10.2,10.2,0,0,1,87.19,187c-.84-2.52-1.8-5.54-2.63-8.83-1,.17-2,.31-3.13.4-10.76.93-20.07-1.93-26.93-8.28-12.06-11.16-15.6-27.71-18.43-41-.31-1.44-.61-2.87-.92-4.26-4-17.51-8.9-35.19-21.6-41.72a10.41,10.41,0,0,1-1.88-17.19,10.46,10.46,0,0,1,6.39-2.39c11.84-.29,22.35,8,27.56,12.94A79.11,79.11,0,0,1,54,86.05a72.68,72.68,0,0,0-11.08-33.5,26.33,26.33,0,0,0-1.6-2.28,10.24,10.24,0,0,1,1.28-14.36,10.48,10.48,0,0,1,14.64,1.18,43.51,43.51,0,0,0,6.59,5.83A75.19,75.19,0,0,0,85.34,54.14q2.46.82,5,1.49a78.79,78.79,0,0,1-8-10c-4-6-10.4-17.74-8.11-29.4A10.33,10.33,0,0,1,87.34,8.38a10.31,10.31,0,0,1,7,6.77c4.31,13.64,20.9,21.49,37.53,28.35,1.29.53,2.64,1.07,4,1.61,12.63,5,28.35,11.31,37.32,25.08,5.1,7.83,6.35,17.5,3.62,27.94-.13.5-.29,1-.45,1.49l0,.11c-.13.47-.28.94-.43,1.42,3.11,1.37,5.94,2.84,8.31,4.11a10.23,10.23,0,0,1,5.37,7.94,10.42,10.42,0,0,1-3.61,8.9h0a10.45,10.45,0,0,1-4.76,2.25,79.91,79.91,0,0,0-12.84,3.7,62.21,62.21,0,0,0-9.6,4.75,35.3,35.3,0,0,0-3.75,2.72,22.26,22.26,0,0,0-4.51,5L343.54,364c9.09,10.51,9.83,24.49,1.69,31.82ZM68.06,111.09c3.3,6.82,6.94,13.41,11.78,18.43,2.54,2.65,6.27,5.69,9.57,5.15a8.58,8.58,0,0,0,4.12-1.6l1-.89.3-.24a10.13,10.13,0,0,1,.15-9.18l-6.87-8.14c-3.26-3.87-6.34-7.52-9.87-9.74a6.15,6.15,0,0,0-2.78-1.14l-.12.1a6.52,6.52,0,0,0-1.61,2,10.63,10.63,0,0,1-2.68,3.49A10.26,10.26,0,0,1,68.06,111.09Zm61.74-8.62a8.54,8.54,0,0,0,2.36-3.87c1.09-3.16-1.27-7.35-3.45-10.3-4.14-5.61-10-10.3-16.16-14.69a10.19,10.19,0,0,1-2.19,2.55,10.6,10.6,0,0,1-3.9,2,4.65,4.65,0,0,0-1.75.88c-.77.64-.68,1.08-.6,1.47.81,4,4,8.06,7.78,12.54l7.57,9a10.09,10.09,0,0,1,4.19-.48,10.22,10.22,0,0,1,4.93,1.89l.46-.39Z"/>
    <path class="cls-2" d="M336.78,388.23c-6.93,5.81-18.58,6.28-29-5.78-.1-.11-1-1.27-1.58-1.94l-.28-.35-187-228a22.91,22.91,0,0,0-4.8,3.16,35.7,35.7,0,0,0-3.55,3.45,61.74,61.74,0,0,0-6.24,8.63,79.92,79.92,0,0,0-5.83,12.08,10.82,10.82,0,0,1-3,4.26A10.19,10.19,0,0,1,79.23,179c-.85-2.51-1.81-5.53-2.64-8.83-1,.17-2,.31-3.13.4-10.75.93-20.07-1.93-26.93-8.28-12.06-11.16-15.59-27.7-18.43-41-.31-1.44-.61-2.87-.92-4.26-4-17.51-8.9-35.18-21.59-41.72a10.25,10.25,0,0,1-5.52-8A10.39,10.39,0,0,1,3.7,58.16a10.55,10.55,0,0,1,6.39-2.4c11.84-.28,22.35,8,27.56,12.95A77.47,77.47,0,0,1,46,78.09,72.72,72.72,0,0,0,34.92,44.58c-.56-.86-1.11-1.68-1.6-2.28a10.24,10.24,0,0,1,1.29-14.36,10.47,10.47,0,0,1,14.63,1.19A43.45,43.45,0,0,0,55.83,35,75.47,75.47,0,0,0,77.37,46.18c1.64.54,3.32,1,5,1.48a78.18,78.18,0,0,1-8-10C70.4,31.73,64,20,66.3,8.3A10.34,10.34,0,0,1,79.38.42a10.3,10.3,0,0,1,7,6.77c4.3,13.64,20.9,21.48,37.52,28.35l4,1.61c12.63,5,28.34,11.3,37.31,25.07,5.1,7.84,6.36,17.5,3.63,28-.13.5-.29,1-.46,1.49l0,.11c-.13.46-.27.94-.43,1.41,3.11,1.37,5.94,2.84,8.32,4.11a10.22,10.22,0,0,1,5.36,7.94,10.38,10.38,0,0,1-3.61,8.9h0a10.41,10.41,0,0,1-4.75,2.25,79.76,79.76,0,0,0-12.85,3.71,62.2,62.2,0,0,0-9.6,4.74,35.37,35.37,0,0,0-3.75,2.73,22.28,22.28,0,0,0-4.51,5L335.58,356c9.08,10.51,9.83,24.49,1.69,31.82ZM60.1,103.12c3.29,6.82,6.93,13.41,11.77,18.43,2.55,2.65,6.27,5.69,9.57,5.15a8.53,8.53,0,0,0,4.12-1.6l1-.88.3-.25a10.36,10.36,0,0,1-1-5A10.23,10.23,0,0,1,87,114.79l-6.86-8.13c-3.26-3.87-6.34-7.52-9.88-9.75a6.13,6.13,0,0,0-2.77-1.14l-.13.1a6.26,6.26,0,0,0-1.6,2,10.52,10.52,0,0,1-2.69,3.48A10.34,10.34,0,0,1,60.1,103.12Zm61.74-8.62a8.49,8.49,0,0,0,2.35-3.86c1.1-3.17-1.27-7.35-3.45-10.31-4.14-5.6-10-10.29-16.15-14.69a10.45,10.45,0,0,1-2.19,2.56,10.77,10.77,0,0,1-3.91,2,4.8,4.8,0,0,0-1.75.88c-.76.65-.67,1.09-.6,1.47.81,4,4,8.06,7.78,12.54l7.57,9a10.09,10.09,0,0,1,9.13,1.41l.45-.38Z"/>
    <g>
      <path class="cls-3" d="M123.88,124.52,328.54,361.36c5.4,6.26,6.55,14.24,2.56,17.83s-9.79,1.8-15.2-4.46c-.14-.16-1.5-1.87-1.63-2L116.11,131c-2.72-3.34-3.14-7.45-.93-9.18S121.17,121.39,123.88,124.52Z"/>
      <g>
        <g>
          <path class="cls-4" d="M37.71,113.56c-4.4-19.73-11.64-41.22-26.92-48.62,0,0,21.27-.69,38.33,36.71,14.38,31.54,27.88,39.67,42.77,31,8.34-9,21.46-8.88,21.46-8.88l13.06,15.26c-23-1.11-36.92,35.49-36.92,35.49a76.61,76.61,0,0,1-4.16-18.38A52.52,52.52,0,0,1,74.5,159C47.12,162.83,42.11,133.29,37.71,113.56Z"/>
          <path class="cls-5" d="M11.53,65c3.86.27,22.39,3.36,37.59,36.68,14.38,31.54,27.88,39.67,42.77,31,4.83-5.21,11.26-7.36,15.82-8.25l5.29,4.72s-16.28,17.3-32,18.88c-7.48.75-14.09-.84-19.59-5.81-18.05-16.31-16.08-40.91-32.51-64.41A36.09,36.09,0,0,0,11.53,65Z"/>
          <path class="cls-6" d="M113,129.17a72.87,72.87,0,0,1-6.86,6.75,81.44,81.44,0,0,1-7.62,5.94A54.24,54.24,0,0,1,90,146.59a31.31,31.31,0,0,1-9.51,2.56,28.2,28.2,0,0,1-9.93-.61,23.41,23.41,0,0,1-9-4.48A48.69,48.69,0,0,1,49.51,128.6a130.35,130.35,0,0,1-7.06-18.06c-2-6.09-4-12.12-6.48-18a92.21,92.21,0,0,0-4.16-8.54Q30.67,82,29.4,80a40.45,40.45,0,0,0-2.68-3.88,33.45,33.45,0,0,0-6.83-6.5A41.64,41.64,0,0,0,11.53,65,35.9,35.9,0,0,1,27.74,75.21,76.14,76.14,0,0,1,37.91,91.72a185.25,185.25,0,0,1,7,18,134.48,134.48,0,0,0,7,17.64A46.88,46.88,0,0,0,63.2,142.07a20.93,20.93,0,0,0,8,4.17,27.62,27.62,0,0,0,9.13.81,30.3,30.3,0,0,0,9-2.11,53.39,53.39,0,0,0,8.47-4.2A91.66,91.66,0,0,0,113,129.17Z"/>
          <path class="cls-7" d="M37.93,113.4c-2.73-12.05-6.16-24.14-12.59-34.8a40.82,40.82,0,0,0-9.95-11.24c-1.48-1.15-2.82-2.11-4.58-2.08a8.51,8.51,0,0,1,.88,0C24.28,66.32,34.5,77.75,41,87.43c10.17,15.1,14.8,38.27,32.5,47.06,5,2.48,10.58,2.1,15.63,0,4.47-1.89,7.49-5.72,12-7.72a32.55,32.55,0,0,1,11.87-2.57c1,0,3.73,4.13,4.42,4.93q3.67,4.31,7.36,8.6l.93,1.09c.83,1,.26,0-.39-.06a21.88,21.88,0,0,0-6.12.89c-4.65,1.25-8.73,4.21-12.24,7.4-6.4,5.82-11.12,13.51-15,21.2-1,1.94-1.87,3.93-2.68,5.95,0,.09-.07.19-.11.28.59-1.54-1.07-4.76-1.5-6.27a68.37,68.37,0,0,1-2.22-12c0-.12-.11-.31-.27-.26-13.83,4.88-27.62,4.26-36.28-8.74-6.55-9.85-8.57-22.38-11.08-33.72-.1-.43-.51,0-.44.31,3,13.74,5.52,30,16.38,40.09,5.27,4.87,12.31,6.25,19.27,5.65a46.81,46.81,0,0,0,6.22-1.1c1.54-.34,3-.83,4.55-1.31,1.8-.58,1.5,2.15,1.62,3a83,83,0,0,0,3.75,14.7c.09.29.35.18.43,0,5.79-15.11,18.37-35.69,36.67-35.25.31,0,.32-.46.18-.63q-5.18-6-10.34-12.08c-.39-.46-2.17-3.24-2.84-3.24a33.69,33.69,0,0,0-7.67,1.07,29.46,29.46,0,0,0-12.85,6.77,18.12,18.12,0,0,1-9.25,4.09c-7.26,1.19-13.63-3.11-18.42-8.09C57.77,119.62,53,109.48,48.6,99.91c-4.29-9.25-9.91-18.07-17.32-25.13-5.13-4.87-13-10.36-20.46-10.18-.3,0-.36.53-.12.66,17.21,8.85,22.86,31.08,26.79,48.45C37.59,114.14,38,113.72,37.93,113.4Z"/>
          <path class="cls-7" d="M68.2,158.16c4.82,2,11.5-.13,16-1.91a65.18,65.18,0,0,0,16.29-9.69c3.46-2.74,6.56-5.95,10.13-8.54a19.9,19.9,0,0,1,11.63-3.79c.3,0,.44.38.08.38A19.81,19.81,0,0,0,110,139.07c-3.8,3-7.21,6.41-11.1,9.3-7.48,5.54-17,10.94-26.58,10.78a12.09,12.09,0,0,1-4.34-.66c-.33-.13-.07-.44.21-.33Z"/>
        </g>
        <g>
          <path class="cls-4" d="M120.4,43.81C101.69,36.15,81.73,25.39,77,9.08c0,0-4.27,20.85,29.72,44,28.67,19.48,34.41,34.16,23.41,47.38-10.28,6.71-12.37,19.67-12.37,19.67l12.84,15.44c2.79-22.89,41.21-30.41,41.21-30.41a76.86,76.86,0,0,0-17.42-7.21,52.8,52.8,0,0,0,4.54-10.21C167.38,61.38,139.1,51.47,120.4,43.81Z"/>
          <path class="cls-5" d="M76.91,9.82c-.38,3.85-.46,22.63,29.82,43.23,28.67,19.48,34.41,34.16,23.41,47.38-6,3.89-9.16,9.87-10.8,14.21l3.76,6s19.8-13.13,24-28.35c2-7.25,1.55-14-2.42-20.29-13-20.54-37.61-22.74-58-42.9A36,36,0,0,1,76.91,9.82Z"/>
          <path class="cls-6" d="M123.1,120.65a75.29,75.29,0,0,0,7.81-5.62,81.36,81.36,0,0,0,7.14-6.52,52.74,52.74,0,0,0,6.09-7.59A31.11,31.11,0,0,0,148.27,92a28.57,28.57,0,0,0,1.08-9.89,23.46,23.46,0,0,0-2.91-9.62A48.63,48.63,0,0,0,133.23,58a131.26,131.26,0,0,0-16.6-10C111,45,105.35,42,100,38.56Q96,36,92.3,33c-1.24-1-2.45-2-3.63-3.06a42.07,42.07,0,0,1-3.37-3.3A33.58,33.58,0,0,1,80,18.83a42.36,42.36,0,0,1-3.13-9,36,36,0,0,0,7.37,17.7,76.35,76.35,0,0,0,14.55,12.8,186.46,186.46,0,0,0,16.57,9.92,134.2,134.2,0,0,1,16.2,9.9,46.87,46.87,0,0,1,12.6,13.59A21,21,0,0,1,147,82.3a28,28,0,0,1-.75,9.14,30.5,30.5,0,0,1-3.6,8.55,52.8,52.8,0,0,1-5.57,7.63A90.81,90.81,0,0,1,123.1,120.65Z"/>
          <path class="cls-7" d="M120.2,44C108.78,39.28,97.45,33.86,88,25.72A40.78,40.78,0,0,1,78.62,14c-.88-1.65-1.6-3.13-1.28-4.86a8.62,8.62,0,0,0-.11.87C76.1,22.61,85.64,34.61,94.08,42.67c13.17,12.56,35.23,21,40.91,40,1.61,5.37.29,10.79-2.67,15.4-2.61,4.08-6.9,6.42-9.64,10.57a32.74,32.74,0,0,0-4.53,11.27c-.2,1,3.44,4.36,4.12,5.18l7.24,8.7.91,1.11c.82,1-.08.25,0-.39a21.84,21.84,0,0,1,1.91-5.89c2-4.37,5.61-7.9,9.35-10.82,6.82-5.32,15.2-8.69,23.42-11.17,2.08-.62,4.19-1.18,6.31-1.63l.3-.06c-1.62.32-4.51-1.86-5.93-2.53a68,68,0,0,0-11.5-4.22c-.12,0-.29-.17-.21-.32,7.14-12.8,8.85-26.5-2.5-37.23C143,52.48,131,48.39,120.2,44c-.41-.17.09-.5.39-.38,13,5.32,28.67,10.5,36.75,22.89,3.91,6,4.09,13.2,2.32,19.95a46.3,46.3,0,0,1-2.13,6c-.6,1.46-1.33,2.86-2.06,4.26-.87,1.68,1.87,1.85,2.67,2.11A81.83,81.83,0,0,1,172,104.94c.27.14.11.38-.13.43-15.86,3.15-38.27,12.09-40.93,30.2,0,.3-.5.24-.64.06l-10.17-12.22c-.38-.46-2.82-2.69-2.71-3.34a32.88,32.88,0,0,1,2.35-7.38,29.38,29.38,0,0,1,8.83-11.53,18.1,18.1,0,0,0,5.59-8.43c2.4-7-.77-14-4.87-19.52-6.34-8.61-15.53-15-24.23-21C96.71,46.46,89,39.43,83.26,30.94c-4-5.88-8-14.52-6.59-21.89,0-.29.58-.27.67,0,5.82,18.45,26.78,27.77,43.25,34.57C121,43.79,120.51,44.12,120.2,44Z"/>
          <path class="cls-7" d="M159.67,81.29c1,4.36-1.3,9.61-3.24,13.34a59.55,59.55,0,0,1-11,14.34c-3.5,3.47-7.45,6.37-11.17,9.58A20.52,20.52,0,0,0,127,130.73c0,.25-.58.16-.53-.09a19.5,19.5,0,0,1,4.92-10c3-3.18,6.68-5.65,10-8.51,7.64-6.64,15.63-15.6,17.59-25.9a12.6,12.6,0,0,0,.21-4.93c-.06-.26.48-.24.53,0Z"/>
        </g>
      </g>
      <g>
        <path class="cls-5" d="M116.22,131.55,86.82,96.71C84.21,93.62,78,86.46,70.88,84.56c-9.22-2.47-14,7.75-14,7.75,3.05-35.91-15-57.7-15-57.7S60.3,56.11,96.21,59.16c0,0-10.87,3-10,12.46.68,7.31,6.69,14.67,9.29,17.76l29.4,34.84Z"/>
        <path class="cls-8" d="M86.22,71.62c.68,7.31,6.69,14.67,9.29,17.76l29.4,34.84-4.35,3.67L41.88,34.61S60.3,56.11,96.21,59.16C96.21,59.16,85.34,62.11,86.22,71.62Z"/>
        <path class="cls-6" d="M120.56,127.89l-.84-1.09-2.38-3.06c-2.06-2.63-5-6.37-8.6-10.82-1.79-2.23-3.74-4.65-5.81-7.18s-4.26-5.23-6.54-8-4.62-5.61-7-8.48L82,80.56l-7.36-8.68c-2.42-2.87-4.85-5.65-7.18-8.37s-4.6-5.31-6.76-7.78-4.2-4.8-6.1-6.94c-3.78-4.29-7-7.84-9.22-10.31l-2.61-2.86-.93-1,.84,1.09,2.37,3.06c2.06,2.63,5,6.37,8.61,10.83,1.79,2.23,3.73,4.64,5.81,7.18s4.25,5.22,6.54,8,4.62,5.61,7,8.48L80.4,82l7.36,8.67c2.43,2.87,4.86,5.65,7.18,8.37s4.61,5.31,6.76,7.78,4.2,4.8,6.1,6.94c3.78,4.29,7,7.84,9.22,10.31l2.61,2.86Z"/>
        <path class="cls-7" d="M115.92,131.69,98.43,111,88.36,99c-3.65-4.33-7.35-8.71-12.2-11.76-4.66-2.94-10.06-4-14.6-.3a16.29,16.29,0,0,0-4.3,5.48c-.13.29-.74.12-.72-.2,1.51-18.73-2.32-38.43-12.7-54.31a33.86,33.86,0,0,0-2.26-3.18c-.3-.36.37-.54.59-.28a52.46,52.46,0,0,0,8.17,7.3A85.18,85.18,0,0,0,74.74,54.5a94,94,0,0,0,21.52,4.39c.32,0,.46.42.1.52-6.34,1.77-10.85,7.25-9.5,14,1.31,6.55,5.73,12,9.94,17l21.32,25.28,7.08,8.39a.22.22,0,0,1,0,.33l-8.69,7.33c-.26.22-.93-.1-.6-.37l6.39-5.39,1.59-1.35c.34-.29.62-.8.71-.27,0-.23-.56-.66-.7-.83l-11.57-13.72-14-16.56c-4.25-5-8.75-10-11.18-16.28-1.8-4.6-2.12-9.66,1.39-13.53a16.18,16.18,0,0,1,7.48-4.54c0,.17.07.34.11.52C77.3,57.74,58.4,50.57,44.38,37.57a33.87,33.87,0,0,1-2.8-2.82l.59-.28a53,53,0,0,1,6,9.6,85.94,85.94,0,0,1,8.5,26.83,95.19,95.19,0,0,1,.62,21.47l-.72-.2c2.22-4.71,7-8.73,12.47-8.21,7.49.71,13.64,7.36,18.2,12.76q10.67,12.6,21.29,25.23l8,9.47C116.81,131.77,116.14,132,115.92,131.69Z"/>
      </g>
      <g>
        <path class="cls-9" d="M109.29,108.75c2.34,2.56,1.64,4.54.07,5.86s-3.64,1.69-5.77-1c-2.45-3.13-2.23-8.43-2.23-8.43S106.6,105.82,109.29,108.75Z"/>
        <path class="cls-10" d="M106.75,112.71c-.49.29-1.64,1-3.35-1.24a11.85,11.85,0,0,1-1.91-6,11.79,11.79,0,0,1,5.61,2.89,3.58,3.58,0,0,1,1.16,2.37,2.37,2.37,0,0,1-1,1.6A4.14,4.14,0,0,1,106.75,112.71Z"/>
        <path class="cls-11" d="M104.71,109.86c-.26.15-.65.37-1.65-.91a8.22,8.22,0,0,1-1.35-3.32,8.36,8.36,0,0,1,3,1.9c.67.73.83,1.22.82,1.4a1.34,1.34,0,0,1-.51.68A3.31,3.31,0,0,1,104.71,109.86Z"/>
        <g>
          <path class="cls-9" d="M104.71,115.31c3.47.15,4.37,2,4.2,4.1s-1.39,3.76-4.83,3.33c-3.94-.48-7.53-4.38-7.53-4.38S100.74,115.13,104.71,115.31Z"/>
          <path class="cls-10" d="M105.31,121a3.93,3.93,0,0,1-2.4.29,11.9,11.9,0,0,1-5.59-2.9,1.18,1.18,0,0,1,.19-.11,11.68,11.68,0,0,1,5.81-1.81,3.67,3.67,0,0,1,2.5.85,2.37,2.37,0,0,1,.44,1.82C106.15,120.56,105.52,120.92,105.31,121Z"/>
          <path class="cls-11" d="M102.46,119.73a2.86,2.86,0,0,1-1.58.11,8.28,8.28,0,0,1-3.3-1.38,8.43,8.43,0,0,1,3.49-.82,2.6,2.6,0,0,1,1.57.41,1.31,1.31,0,0,1,.12.84C102.73,119.15,102.67,119.61,102.46,119.73Z"/>
          <path class="cls-9" d="M110.82,110.15c-.43,3.44,1.29,4.65,3.34,4.82s3.94-.74,4.1-4.2c.18-4-3.07-8.16-3.07-8.16S111.31,106.21,110.82,110.15Z"/>
          <path class="cls-10" d="M115.92,112a2.76,2.76,0,0,1-1.57.26,2.41,2.41,0,0,1-1.72-.74,3.61,3.61,0,0,1-.42-2.61,12,12,0,0,1,2.89-5.6,11.67,11.67,0,0,1,1.93,6c-.07,1.39-.44,2.3-1.11,2.69Z"/>
          <path class="cls-11" d="M115.4,108.85a1.43,1.43,0,0,1-.79.09c-.48,0-.73-.16-.81-.27a2.44,2.44,0,0,1-.14-1.61,8.4,8.4,0,0,1,1.39-3.31,8.22,8.22,0,0,1,.81,3.49C115.81,108.33,115.55,108.76,115.4,108.85Z"/>
        </g>
        <g>
          <g>
            <path class="cls-9" d="M105.73,122.75c3.42-.54,4.69,1.13,4.93,3.18s-.61,4-4.07,4.23c-4,.31-8.25-2.79-8.25-2.79S101.8,123.37,105.73,122.75Z"/>
            <path class="cls-10" d="M107.21,128.49a4.51,4.51,0,0,1-2,.51,11.76,11.76,0,0,1-6.06-1.72,16.38,16.38,0,0,1,2.67-2,8.17,8.17,0,0,1,2.83-1.09,3.63,3.63,0,0,1,2.62.34,2.39,2.39,0,0,1,.8,1.7C108.28,127.69,107.68,128.22,107.21,128.49Z"/>
            <path class="cls-11" d="M104.49,127.65a3.27,3.27,0,0,1-1.4.34,8.19,8.19,0,0,1-3.51-.7c.28-.2.57-.39.88-.57a6.9,6.9,0,0,1,2.37-.92,2.59,2.59,0,0,1,1.63.08,1.28,1.28,0,0,1,.28.81C104.83,127.45,104.63,127.57,104.49,127.65Z"/>
          </g>
          <g>
            <path class="cls-9" d="M118,112.39c-1.11,3.29.33,4.82,2.31,5.39s4,.07,4.85-3.29c1-3.86-1.37-8.61-1.37-8.61S119.26,108.63,118,112.39Z"/>
            <path class="cls-10" d="M123,115.19a2.35,2.35,0,0,1-1.87.08,2.4,2.4,0,0,1-1.54-1.07,3.71,3.71,0,0,1,.1-2.64,11.79,11.79,0,0,1,4-4.9,11.77,11.77,0,0,1,.69,6.25,3.71,3.71,0,0,1-1.34,2.28Z"/>
            <path class="cls-11" d="M122.88,112.05a1.3,1.3,0,0,1-.84,0c-.46-.13-.69-.3-.74-.41a2.52,2.52,0,0,1,.18-1.62,8.18,8.18,0,0,1,2-3,8.18,8.18,0,0,1,.1,3.58A2.57,2.57,0,0,1,122.88,112.05Z"/>
          </g>
        </g>
        <path class="cls-7" d="M109.21,108.92c1.49,1.77,2,3.81.1,5.52a3.7,3.7,0,0,1-2.83,1c-3.22-.29-4.45-5-4.83-7.55a17.12,17.12,0,0,1-.16-2.48c0-.2,0-.21-.1,0,.24,0,.48.08.72.12a13.56,13.56,0,0,1,7.1,3.45c.15.15.29-.21.17-.34a14.19,14.19,0,0,0-8-3.64c-.1,0-.16.11-.16.19-.12,3.73,1,9.59,5.22,10.65,1.7.43,3.41-1.12,4.17-2.47.94-1.65-.18-3.47-1.23-4.73C109.24,108.42,109.1,108.78,109.21,108.92Z"/>
        <g>
          <path class="cls-7" d="M104.7,115.5c2,.17,3.78.86,4.07,3.08a3.42,3.42,0,0,1-2.79,4c-2.87.63-5.92-1.36-8-3.09a15.83,15.83,0,0,1-1.27-1.18c-.16-.16-.21.34,0,.2s.45-.32.68-.48a13.39,13.39,0,0,1,7.32-2.49c.19,0,.22-.39,0-.39a13.87,13.87,0,0,0-8.23,3.07.24.24,0,0,0,0,.34c2.27,2.44,7.06,5.94,10.55,4.12,1.62-.84,2.09-2.41,2-4.14-.09-2.38-2.28-3.22-4.32-3.39C104.55,115.09,104.51,115.49,104.7,115.5Z"/>
          <path class="cls-7" d="M110.68,110.14c-.17,2,.16,3.88,2.17,4.75,1.52.66,3.88.35,4.76-1.21,2-3.59-.07-8.26-2.33-11.23a.12.12,0,0,0-.17,0,14,14,0,0,0-4.43,7.68c0,.24.24.26.28,0a13,13,0,0,1,3.29-6.32c.32-.37.66-.72,1-1.06-.17.16.56,1,.72,1.3,1.61,2.6,2.86,6,1.64,9-.64,1.59-2.39,1.86-3.88,1.68-2.37-.29-3-2.46-2.78-4.56C111,109.92,110.7,109.89,110.68,110.14Z"/>
        </g>
        <g>
          <path class="cls-7" d="M105.75,122.94c2-.23,3.82.09,4.59,2.17.9,2.44-.69,4.23-3,4.76-2.49.58-5.21-.55-7.37-1.7a15.51,15.51,0,0,1-1.51-.91c-.19-.13-.16.35,0,.14s.37-.39.56-.58a13.45,13.45,0,0,1,6.66-3.88c.17,0,.16-.42,0-.38a14,14,0,0,0-7.46,4.66.25.25,0,0,0,0,.34c2.65,1.88,8.64,4.64,11.47,1.67a4.37,4.37,0,0,0,.69-4.72c-.73-2-2.94-2.16-4.73-2C105.53,122.58,105.54,123,105.75,122.94Z"/>
          <path class="cls-7" d="M117.86,112.33c-.58,2-.61,3.86,1.21,5.13a3.88,3.88,0,0,0,5.18-.6c2.48-2.87,1.1-8.1-.36-11.11a.12.12,0,0,0-.17,0,14,14,0,0,0-5.86,6.63c-.08.21.16.37.26.13a13.22,13.22,0,0,1,4.68-5.69c.3-.23,1-.56.88-.73a15.59,15.59,0,0,1,.66,1.64c1,2.82,1.49,6.24-.26,8.88-1,1.44-2.71,1.38-4.14.9-2.25-.76-2.42-3-1.82-5C118.18,112.25,117.93,112.08,117.86,112.33Z"/>
        </g>
        <path class="cls-10" d="M122.29,115.37c3.81,4,1.42,8.2-2.54,11.54s-8.51,5-11.8.58c-3.78-5.06-.89-15.6-.89-15.6S117.92,110.82,122.29,115.37Z"/>
        <path class="cls-9" d="M122.72,115.87c2.47,6.12-9.19,11.56-12.42,7.08-2.83-3.94-1.83-9.74-1.83-9.74a84.74,84.74,0,0,1,9.51-.33,31.5,31.5,0,0,0-10.92-1s-2.89,10.54.89,15.6c3.29,4.41,7.84,2.77,11.8-.58C123.54,123.71,125.89,119.69,122.72,115.87Z"/>
        <path class="cls-7" d="M122.2,115.54c5,5.6-2.09,12.33-7.5,14.13-7.3,2.43-8.83-7.22-8.45-12.18a34.62,34.62,0,0,1,.86-5.25c.09-.36-.15-.15.19-.17.6,0,1.21-.07,1.81-.08,4.42-.11,9.75.34,13.09,3.55.16.15.3-.21.18-.33-3.82-3.66-10.3-4-15.3-3.52a.17.17,0,0,0-.15.14c-1.5,5.58-2.75,16.92,5,18.48,4.06.81,8.46-3.28,10.7-6.16a6.56,6.56,0,0,0-.25-8.94C122.23,115.05,122.09,115.41,122.2,115.54Z"/>
        <path class="cls-11" d="M111.36,113.81s5.39-.59,8.37,1.32c3.26,2.1,2.07,5.59-.86,6.68s-.67-1.9-.77-3.68S113.75,114.16,111.36,113.81Z"/>
        <g>
          <path class="cls-10" d="M130.64,122.08a2.52,2.52,0,0,1-.2,3.54,69,69,0,0,0-13.12,11.92c-.8.93-2.34.85-3.47-.21l-.41-.39a2.8,2.8,0,0,1-.54-3.74,73,73,0,0,1,13.84-12.57,2.67,2.67,0,0,1,3.58,1C130.43,121.77,130.54,121.92,130.64,122.08Z"/>
          <path class="cls-9" d="M130.64,122.08a.83.83,0,0,0-.08-.12c-3.07,4.88-16.34,14.27-14.43,10.07,2.05-4.52,11.55-11.52,11.55-11.52a1.07,1.07,0,0,0-.26-.17,1.87,1.87,0,0,0-.68.29A73,73,0,0,0,112.9,133.2a2.8,2.8,0,0,0,.54,3.74l.41.39c1.13,1.06,2.67,1.14,3.47.21a69.52,69.52,0,0,1,9.78-9.09c1.16-.93,2.12-2,3.34-2.83A2.52,2.52,0,0,0,130.64,122.08Z"/>
          <path class="cls-7" d="M130.48,122.18c1.69,3.45-6.46,8.06-8,9.52-1.16,1.07-6.71,8.15-8.46,5.45-3-4.57,3.26-8.2,5.13-10,1.33-1.25,8.36-9.24,11.42-4.94.27.39.45-.07.25-.35a3.78,3.78,0,0,0-3.24-1.94c-1.15-.09-2.22,1.28-3,1.82-1.67,1.24-3.26,2.58-4.82,4a72.44,72.44,0,0,0-7,7.2,2.89,2.89,0,0,0-.09,3.3c1.32,1.73,1.6,2.36,3.31,2.35a2.59,2.59,0,0,0,1.56-.78c1.66-1.91,3.39-3.74,5.22-5.48,2.41-2.32,5.71-3.91,7.9-6.43.92-1.07,1.11-2,.19-3.92C130.6,121.54,130.32,121.86,130.48,122.18Z"/>
        </g>
      </g>
    </g>
  </g>
</svg>
