<svg id="Layer_1" data-name="Layer 1" xmlns="http://www.w3.org/2000/svg" xmlns:xlink="http://www.w3.org/1999/xlink" width="370.02" height="191.8" viewBox="0 0 370.02 191.8">
  <defs>
    <style>
      .cls-1 {
        opacity: 0.5;
      }

      .cls-2 {
        fill: #ff0;
      }

      .cls-3 {
        fill: url(#linear-gradient);
      }

      .cls-4 {
        fill: #a31e22;
      }

      .cls-5 {
        fill: #c12530;
      }

      .cls-6 {
        fill: #7c181f;
      }

      .cls-7 {
        fill: url(#linear-gradient-2);
      }

      .cls-8 {
        fill: #4f4f4e;
      }

      .cls-9 {
        fill: #3f2311;
      }

      .cls-10 {
        fill: #686867;
      }

      .cls-11 {
        fill: #593315;
      }
    </style>
    <linearGradient id="linear-gradient" x1="-389.54" y1="10590.7" x2="-341.79" y2="10590.7" gradientTransform="matrix(0.05, 0.73, -1.04, 0.07, 11049.77, -370.67)" gradientUnits="userSpaceOnUse">
      <stop offset="0" stop-color="#404041"/>
      <stop offset="0.11" stop-color="#464647"/>
      <stop offset="0.26" stop-color="#555657"/>
      <stop offset="0.42" stop-color="#6f7073"/>
      <stop offset="0.51" stop-color="#808184"/>
      <stop offset="0.7" stop-color="#6a6b6d"/>
      <stop offset="1" stop-color="#404041"/>
    </linearGradient>
    <linearGradient id="linear-gradient-2" x1="166.69" y1="4397.56" x2="214.44" y2="4397.56" gradientTransform="matrix(-0.05, 0.73, 1.04, 0.07, -4236.07, -370.67)" xlink:href="#linear-gradient"/>
  </defs>
  <g>
    <path class="cls-1" d="M197.78,191.8c-3,0-6.16-.07-9.3-.21-3.14.14-6.27.21-9.3.21-26,0-48.86-5-67.87-14.94a110.5,110.5,0,0,1-41.11-37,135.67,135.67,0,0,1-16.21-34c-.17-.51-.33-1-.49-1.54a13.54,13.54,0,0,1-5,1H48c-13-.45-25-4.75-33-11.79-10.3-9.08-9-21.7-6.34-37.26a.31.31,0,0,1,0-.08h0c2.05-11.7,10.79-18.68,23.4-18.68a48.59,48.59,0,0,1,14.12,2.39,14.11,14.11,0,0,1,.33-1.51,21.8,21.8,0,0,1,6-10.47A32,32,0,0,1,61.18,22c5.13-2.47,11.92-4.6,20.76-6.54l2.68-.57c25.28-5.17,63.19-8.14,104-8.14,25,0,49.29,1.13,70.31,3.25l5.94.64c3.81.43,7.57.91,11.16,1.42l3.24.48c4.93.75,9.43,1.55,13.46,2.38,2.62.53,5.14,1.1,7.51,1.69,7.5,1.89,13.28,4,17.67,6.33,6.62,3.58,10.12,8,11.85,12.29A49.53,49.53,0,0,1,344.7,32.6c12.61,0,21.35,7,23.4,18.68v.08c2.71,15.55,4,28.18-6.34,37.25-8,7-20,11.35-33,11.8h-.47a13.86,13.86,0,0,1-3.58-.5,136.82,136.82,0,0,1-19.17,41.65,110.41,110.41,0,0,1-41,35.85C245.77,187,223.31,191.8,197.78,191.8Z"/>
    <path class="cls-2" d="M191,185c-3,0-6.16-.07-9.3-.21-3.14.14-6.27.21-9.3.21-26,0-48.87-5-67.87-14.94a110.35,110.35,0,0,1-41.11-37A135.39,135.39,0,0,1,47.22,99c-.17-.51-.33-1-.49-1.53a13.54,13.54,0,0,1-5,1h-.47c-12.95-.45-25-4.75-33-11.8C-2.06,77.62-.8,65,1.91,49.44c0,0,0,0,0-.08h0c2-11.7,10.79-18.68,23.4-18.68a48.45,48.45,0,0,1,14.11,2.39c.09-.5.2-1,.34-1.51a21.67,21.67,0,0,1,6-10.47,31.82,31.82,0,0,1,8.66-5.84c5.13-2.47,11.92-4.61,20.75-6.54.74-.17,1.58-.34,2.69-.57C103.13,3,141,0,181.85,0c25,0,49.29,1.12,70.31,3.25,1.92.19,3.86.4,5.93.64,3.82.43,7.58.91,11.16,1.42l3.25.47Q279.9,6.92,286,8.16c2.62.54,5.14,1.11,7.51,1.7,7.5,1.89,13.27,4,17.66,6.33,6.63,3.57,10.12,8,11.86,12.29a49.18,49.18,0,0,1,14.94-2.66c12.61,0,21.35,7,23.39,18.68l0,.08c2.71,15.56,4,28.18-6.34,37.26-8,7-20,11.34-33,11.8h-.46a13.86,13.86,0,0,1-3.58-.5,137,137,0,0,1-19.17,41.65,110.5,110.5,0,0,1-41,35.85C239,180.19,216.53,185,191,185Z"/>
    <g>
      <g>
        <g>
          <path class="cls-3" d="M63.59,64.05l-1-12.74L40,47.88S28,51.84,29.07,66A18,18,0,0,0,42.52,82.71l22-5.92ZM34.76,65.66c-.62-8.47,3.85-12.43,6.32-13.95l16.06,2.42.76,10.23.74,10.24L43.06,78.8C40.47,77.57,35.38,74.11,34.76,65.66Z"/>
          <path class="cls-4" d="M43.62,83s-5.34-10-5.55-17.17,4.57-17.4,4.57-17.4-4.8-3.37-12.51-2.25c0,0-8.88,5.9-8.47,20s9.59,19.62,9.59,19.62C39,86.62,43.62,83,43.62,83Z"/>
        </g>
        <g>
          <path class="cls-5" d="M39,44.42s-23.51-9.88-26.42,6.8S10.19,74,15.41,78.56s21.29,9.1,27.14,7.83S45.78,50.77,39,44.42Z"/>
          <path class="cls-4" d="M15.41,78.56c5.22,4.6,14.35,8.69,26.19,9.1,3.79.13,4.52-8.28,3.16-22.18-3.3,2-9.45,1.74-19.22-1.66C11,58.77,12.6,51.22,12.6,51.22,9.68,67.9,10.19,74,15.41,78.56Z"/>
          <path class="cls-6" d="M40.82,50.27S23.63,44.1,22.29,51.34s12.62,8.79,17.83,9.16c3.06.22,3.67.75,3.67.75Z"/>
        </g>
      </g>
      <g>
        <g>
          <path class="cls-7" d="M298.74,71.94l22,5.92a18,18,0,0,0,13.45-16.73C335.21,47,323.27,43,323.27,43L300.6,46.46l-1,12.74Zm21.45,2-15.58-4.19.73-10.24.76-10.23,16.07-2.43c2.46,1.52,6.94,5.48,6.32,14S322.78,72.72,320.19,73.94Z"/>
          <path class="cls-4" d="M319.63,78.19s5.34-10,5.55-17.18-4.57-17.39-4.57-17.39,4.8-3.38,12.51-2.26c0,0,8.87,5.9,8.47,20S332,81,332,81C324.23,81.77,319.63,78.19,319.63,78.19Z"/>
        </g>
        <g>
          <path class="cls-5" d="M324.22,39.56s23.52-9.88,26.43,6.81,2.41,22.73-2.81,27.34-21.29,9.09-27.14,7.83S317.47,45.91,324.22,39.56Z"/>
          <path class="cls-4" d="M347.84,73.71c-5.23,4.6-14.36,8.68-26.2,9.1-3.78.13-4.51-8.28-3.16-22.18,3.3,2,9.45,1.74,19.22-1.66,14.55-5.06,12.95-12.6,12.95-12.6C353.56,63.05,353.06,69.1,347.84,73.71Z"/>
          <path class="cls-6" d="M322.43,45.41s17.18-6.16,18.52,1.08-12.62,8.79-17.83,9.16c-3.05.22-3.67.75-3.67.75Z"/>
        </g>
      </g>
      <path class="cls-8" d="M239.08,161.48a117.57,117.57,0,0,1-12.18,3.6,138.59,138.59,0,0,1-15.79,2.81c-9,1.07-18.74,3.38-29.4,2.89-29.22,1.35-51.79-5.61-69.23-14.35-66-33.1-58.29-119.91-58.29-119.91h0c0,2.89,3.88,5.65,10.85,8.14a101.83,101.83,0,0,0,10.11,2.92c1.29.3,2.63.61,4,.9C83.36,49.37,88,50.2,93,51c1.57.24,3.18.47,4.83.7,22.45,3.1,51.85,5,84,5,17.84,0,34.82-.58,50.24-1.62,6.7-.45,13.11-1,19.17-1.61,7.63-.78,14.69-1.69,21.07-2.7l3.06-.5c4.78-.82,9.15-1.69,13-2.62h0c1.24-.29,2.44-.6,3.59-.91,10-2.68,16.14-5.76,17.29-9C310,48.49,312.82,135.16,239.08,161.48Z"/>
      <path class="cls-9" d="M313.48,36.79c-.15-2.52-1.57-4.58-3.44-5a3.11,3.11,0,0,0-.74-.08,4.2,4.2,0,0,0-3.69,3c-.38.47-2.93,3.12-14.42,6.21-1.09.29-2.23.58-3.5.88l-.15,0c-3.78.9-8.05,1.75-12.68,2.54-23.91,4.05-57.82,6.38-93,6.38-30.8,0-60.49-1.76-83.6-5-1.63-.22-3.24-.45-4.78-.68-5-.78-9.6-1.6-13.62-2.46-1.22-.26-2.48-.54-4-.89-13.09-3.14-16.75-6-17.62-6.87-.44-2.45-2.09-4.27-4.07-4.27h0c-2.12,0-3.91,2.11-4.15,4.91a158.27,158.27,0,0,0,1.07,30.79,162.41,162.41,0,0,0,6.42,29.46,125.09,125.09,0,0,0,14.9,31.33,99.77,99.77,0,0,0,37.12,33.43c17.44,9.1,38.59,13.71,62.86,13.71,3,0,6.16-.07,9.3-.22,3.14.15,6.27.22,9.3.22,23.81,0,44.62-4.44,61.87-13.21a99.69,99.69,0,0,0,37-32.37C315.4,91.93,314,45.69,313.48,36.79ZM191,168.63c-3,0-6.6.55-9.79.4-3.17.15-5.79-.4-8.81-.4-130,0-118.22-132.52-118.22-132.52h0c0,4.09,7.71,7.89,21,11.06,1.29.31,2.63.61,4,.91C83.36,49,88,49.8,93,50.57q2.36.36,4.83.69c22.45,3.1,51.85,5,84,5,37,0,70.24-2.47,93.54-6.43,4.79-.81,9.15-1.69,13-2.61h0c1.24-.3,2.44-.6,3.59-.91,10-2.68,16.14-5.76,17.29-9C310.08,50.05,313.91,168.63,191,168.63Z"/>
      <ellipse class="cls-10" cx="181.85" cy="36.52" rx="127.65" ry="20.13"/>
      <path class="cls-11" d="M306,25.72a68.22,68.22,0,0,0-15.14-5.35c-2.21-.55-4.59-1.09-7.06-1.59-3.86-.79-8.18-1.56-12.82-2.27h0l-.77-.11h0l-2.4-.35c-3.48-.49-7.13-1-10.86-1.38-2-.23-3.93-.44-5.8-.63-20.66-2.09-44.59-3.19-69.22-3.19-40.12,0-77.23,2.88-101.84,7.92l-2.53.53C69.6,21,63.41,23,59.1,25a21.29,21.29,0,0,0-5.76,3.81A10.57,10.57,0,0,0,50,36.52c0,6.81,6.16,10,8.18,11,3.79,2,9.25,3.81,16.23,5.48,1.54.36,2.85.66,4.12.92,4.13.88,8.83,1.73,14,2.53,1.59.24,3.22.47,4.88.7,23.38,3.23,53.38,5,84.46,5,35.53,0,69.82-2.35,94.07-6.47,4.84-.82,9.29-1.71,13.24-2.65l.16,0c1.27-.31,2.43-.6,3.53-.9A60.09,60.09,0,0,0,306.58,47c1.76-1,7.11-4.07,7.11-10.47C313.69,29.88,307.89,26.75,306,25.72Zm-14,21c-1.15.31-2.35.62-3.59.91h0c-3.88.92-8.24,1.79-13,2.61-23.3,4-56.59,6.42-93.54,6.42-32.18,0-61.58-1.87-84-5-1.65-.23-3.26-.46-4.83-.7-5-.77-9.63-1.6-13.8-2.49-1.4-.29-2.74-.6-4-.9-13.25-3.17-21-7-21-11.06,0-4.38,8.89-8.44,24-11.74.8-.18,1.63-.36,2.47-.53,23.34-4.77,60-7.85,101.2-7.85,25.38,0,49,1.16,68.9,3.17q2.94.3,5.77.62,5.61.64,10.76,1.38l2.38.34.82.12c4.56.7,8.8,1.45,12.66,2.24q3.69.77,6.92,1.57c12.32,3.09,19.44,6.76,19.44,10.68C309.5,40.23,303.13,43.71,292,46.69Z"/>
    </g>
  </g>
</svg>
