<svg id="Layer_1" data-name="Layer 1" xmlns="http://www.w3.org/2000/svg" xmlns:xlink="http://www.w3.org/1999/xlink" width="173.43" height="295.2" viewBox="0 0 173.43 295.2">
  <defs>
    <style>
      .cls-1 {
        fill: #353535;
        opacity: 0.5;
      }

      .cls-2 {
        fill: #fff800;
      }

      .cls-3 {
        fill: #e77e31;
      }

      .cls-4 {
        fill: #3f1a0c;
      }

      .cls-5 {
        fill: #1c0e0a;
      }

      .cls-6 {
        fill: #b65b2b;
      }

      .cls-7 {
        fill: #db6d27;
      }

      .cls-8 {
        fill: #2c140c;
      }

      .cls-9 {
        fill: #f2e7da;
      }

      .cls-10 {
        fill: #4e1f0f;
      }

      .cls-11 {
        fill: #d9c5b1;
      }

      .cls-12 {
        fill: #fff;
      }

      .cls-13 {
        fill: url(#Áåçûìÿííûé_ãðàäèåíò_26);
      }

      .cls-14 {
        fill: #ab9579;
      }
    </style>
    <linearGradient id="Áåçûìÿííûé_ãðàäèåíò_26" data-name="Áåçûìÿííûé ãðàäèåíò 26" x1="52.09" y1="97.45" x2="8.27" y2="80.39" gradientUnits="userSpaceOnUse">
      <stop offset="0.09" stop-color="#f2e7da"/>
      <stop offset="1" stop-color="#fcfaf7"/>
    </linearGradient>
  </defs>
  <g>
    <path class="cls-1" d="M98.53,295.2a107.48,107.48,0,0,1-24.72-2.85h-.19c-9.4-.46-21.93-5.36-24.35-6.34a105.49,105.49,0,0,0-18.38-5.67,7.51,7.51,0,0,1-5.05-3.46,7.3,7.3,0,0,1-.5-1,7.54,7.54,0,0,1-6.35-9,29.16,29.16,0,0,1,4.38-9.52A11.28,11.28,0,0,1,21.18,252a16,16,0,0,1,4.34-12.8A132.44,132.44,0,0,0,24,225.61c-.7-1.62-1.31-3.24-1.85-4.93a47.29,47.29,0,0,1-2.1-18.79C14,167.62,9.57,151.49,7.49,147.83a7.51,7.51,0,0,1-.63-6c-1.46-5.44-2.18-9.29-2.22-9.51a7.52,7.52,0,0,1,2.37-7l0,0-.12-.26A7.54,7.54,0,0,1,8.3,116.7,86.72,86.72,0,0,0,18.7,103,60.41,60.41,0,0,1,9,90.61a7.5,7.5,0,0,1-.69-6C6.2,80.31,5.06,77.32,5,77.14a7.51,7.51,0,0,1,5.27-10,79.84,79.84,0,0,1,13.19-17,55.13,55.13,0,0,1-1-10.14,38.71,38.71,0,0,1,1.35-10.54l0-.11.15-.56s.2-.7.2-.7C27.64,15.68,34.89,8.38,40,5.94l.09,0c.24-.12.47-.22.69-.31l.27-.1a13.18,13.18,0,0,1,4.9-1,12.36,12.36,0,0,1,2.11.19c5.79,1,9.14,5.88,10.24,7.5,3.34,4.91,6.12,15.43,6.95,18.79l.6,2.12A80.12,80.12,0,0,1,79,35.93c.74-.79,1.56-1.64,2.44-2.54a52.81,52.81,0,0,1,9.38-8.62,49,49,0,0,1,5.19-3.72,16.33,16.33,0,0,1,8.79-3.16c.2,0,.4,0,.6,0a12.07,12.07,0,0,1,1.87.15c.34.05.66.12,1,.19l.49.14c7.43,2.06,9.58,10.08,10.39,13.12,1.49,5.56,1.35,12.83-.39,19.94a41.47,41.47,0,0,1-1.88,6c0,.06,0,.13-.07.18-.1.25-.16.39-.23.54l-.27.63a38.79,38.79,0,0,1-2.92,5.39,49.5,49.5,0,0,1-4.7,6.44c2.28,6.07,4.2,12,5.47,16A7.53,7.53,0,0,1,117,99c-5.6,5.67-13.79,10.67-20.84,14.36.78,4.53,3.28,10.34,8.54,16.09,7,7.6,22.36,32.88,28.71,56.66a57.94,57.94,0,0,1,3.58,8.6h.85c15.35,0,32.22,12.85,35.29,41.57,3.34,31.24-23.75,49.44-50.22,56.06a102.4,102.4,0,0,1-24.4,2.88Z"/>
    <path class="cls-2" d="M94,290.69a106.93,106.93,0,0,1-24.72-2.86h-.19c-9.41-.46-21.93-5.37-24.35-6.35a105.86,105.86,0,0,0-18.39-5.66,7.61,7.61,0,0,1-5.55-4.43,7.52,7.52,0,0,1-6.34-9,28.92,28.92,0,0,1,4.38-9.52,11.4,11.4,0,0,1-2.2-5.43A16,16,0,0,1,21,234.66a133.61,133.61,0,0,0-1.49-13.56c-.69-1.62-1.3-3.24-1.84-4.93a47.34,47.34,0,0,1-2.1-18.8C9.46,163.11,5.06,147,3,143.32a7.47,7.47,0,0,1-.62-6C.88,131.85.17,128,.13,127.78a7.51,7.51,0,0,1,2.37-7l0,0-.12-.27a7.49,7.49,0,0,1,1.39-8.34A86.43,86.43,0,0,0,14.19,98.5a60.4,60.4,0,0,1-9.7-12.4,7.52,7.52,0,0,1-.69-6C1.69,75.8.55,72.81.49,72.63a7.52,7.52,0,0,1,2.32-8.52,7.39,7.39,0,0,1,2.95-1.44A79.82,79.82,0,0,1,19,45.64a54.1,54.1,0,0,1-1-10.14A38.3,38.3,0,0,1,19.26,25l0-.11c.05-.2.1-.38.15-.56s.2-.71.2-.71C23.13,11.17,30.37,3.87,35.5,1.43l.1,0c.24-.12.47-.22.68-.31l.28-.1a13.18,13.18,0,0,1,4.9-1,11.42,11.42,0,0,1,2.11.19c5.79,1,9.13,5.88,10.24,7.5,3.34,4.91,6.12,15.43,6.95,18.79.21.73.41,1.44.6,2.12a81.26,81.26,0,0,1,13.17,2.81c.74-.78,1.56-1.64,2.43-2.53a53.91,53.91,0,0,1,9.38-8.63,49.82,49.82,0,0,1,5.2-3.71,16.39,16.39,0,0,1,8.79-3.17h.6a12.17,12.17,0,0,1,1.87.15c.33.05.66.12,1,.19l.5.13c7.43,2.07,9.57,10.09,10.39,13.13,1.49,5.56,1.34,12.83-.39,19.94a42.77,42.77,0,0,1-1.89,6,1.62,1.62,0,0,1-.06.17c-.1.25-.16.4-.23.55l-.27.62a39.37,39.37,0,0,1-2.92,5.4,49.5,49.5,0,0,1-4.7,6.44c2.27,6.06,4.2,11.94,5.47,16a7.53,7.53,0,0,1,2.83,12.35c-5.61,5.67-13.79,10.67-20.84,14.35.77,4.54,3.28,10.35,8.54,16.09,7,7.61,22.36,32.89,28.71,56.66a58.06,58.06,0,0,1,3.58,8.61l.84,0c15.36,0,32.23,12.86,35.3,41.58,3.34,31.24-23.75,49.44-50.22,56.06A102.4,102.4,0,0,1,94,290.69Z"/>
    <g>
      <path class="cls-3" d="M55.78,37.25S50.32,12.31,43.67,8.15s-18.5,13-18.24,27.22,4.77,16.7,4.77,16.7Z"/>
      <path class="cls-4" d="M27.45,48a38.61,38.61,0,0,1-.87-21.34C29.52,15.24,36,9.31,39.1,8.06s5.59-.39,8.49,3.86S53.5,28.43,53.5,28.43,49,15.92,45.63,15.24s-.41,22-.41,22S37.07,38.93,27.45,48Z"/>
      <path class="cls-5" d="M42.45,235.75c-4.31-2.49-10.89,4.27-11.57,7.64S37.93,247,37.93,247l26.39-5.85S51.75,241.13,42.45,235.75Z"/>
      <path class="cls-6" d="M55.52,166.35c-28.39,4.12-36.93,28.16-30.69,47.51,7.64,23.7,26.63,27.32,48.23,26.92S55.52,166.35,55.52,166.35Z"/>
      <path class="cls-7" d="M9.51,139.6c5.13,9,13,52.63,16.42,73.7s2.5,23.76,2.5,23.76-.65,4.8,4.29,4.89,5.66-3.64,5.83-12.94.4-31.68-3.19-47.63S9.51,139.6,9.51,139.6Z"/>
      <path class="cls-8" d="M24.13,195.07s3.71,20,4.65,28.5,1,13.49,1,13.49-6.35,3.66-5.62,9.46S35.32,249.93,39,249s1.89-34.17.09-51.36l-2.7,7.71Z"/>
      <path class="cls-3" d="M76.22,40.74s16.66-19.36,24.49-19.86,10.11,20.22,3.11,32.63S91.68,65.93,91.68,65.93Z"/>
      <path class="cls-3" d="M85.11,99c-3.24,7.84-.23,20.34,9.55,31,6.83,7.47,24.38,36.66,28.64,60.87s-1,49.27-39.44,52.52-39.32-22.48-41.72-37.68c-2.9-18.33-25.13-44.4-25.13-69s8.19-33.74,7.51-43.06S29.52,72,58.85,75,85.11,99,85.11,99Z"/>
      <path class="cls-3" d="M54.64,35.54c-14.21-.19-35,14.71-44.95,35.83,0,0,8.23,24.53,38.93,30.89s55.46-12.68,55.46-12.68-9.76-34.18-18.4-43.5S56.33,35.56,54.64,35.54Z"/>
      <path class="cls-9" d="M52.48,235.42C43.67,231,45,202.27,19.29,159.76c-8.08-13.34-11.77-33.34-11.77-33.34l6.82,2L9.23,117.38s12.58-13.15,15.29-23.76,43.36-6.7,49,4.52,6.31,32.71,6.31,32.71l-9-6.65s4.15,7.17,6,21.27c0,0-18.64,3.63-28.88,26.14S52.48,235.42,52.48,235.42Z"/>
      <path class="cls-9" d="M7.52,70s5.74,15.23,16,26.77c4.76,5.37,31,18.67,53.29,10.78,0,0,20.4-8.22,30.4-18.34,0,0-5.46,1.16-14.78.11,0,0,5.12-1.48,7.62-4.09a232.73,232.73,0,0,1-23.3,4.21,85.47,85.47,0,0,1-17.61.26L46.26,87.81s-13.37-6.6-19.17-12.93a21.45,21.45,0,0,0,3.32,7.55S22.36,79.64,7.52,70Z"/>
      <path class="cls-4" d="M52.62,94.91c-3.36-.4-7.77-6.68-7.81-11.23s18.62-3,19,2.8S56.65,95.38,52.62,94.91Z"/>
      <path class="cls-7" d="M54.48,160.74c-5.08,5.71-10.75,13.82-10.81,29s5,49.84,5.34,54.51,8.7,5.63,9.27-2.89,4.21-51.62,5.68-61.62,1-15.08-1.25-20.23S57,158,54.48,160.74Z"/>
      <path class="cls-4" d="M43.73,195.07s1.34,21.2,2.27,29.74-.1,12.46-.1,12.46a13,13,0,0,0-3.36,9.93c.73,5.8,11.19,3.41,14.83,2.5s.91-25.57,4.6-51.47l-7.22,7.82Z"/>
      <path class="cls-3" d="M116.37,176.45c-18.08-19.86-53.52-8.08-62.07,10.72s-5,37.73,3,48.25,27.05,10.68,42.06,8,29.53-14.95,29.12-32.07C128.08,196,123.17,183.92,116.37,176.45Z"/>
      <path class="cls-10" d="M99.32,243.41s-19.68,3.45-28.54,5.73-14.55,3-16.54.45,5.5-8.7,7.73-8.78,9.38,2.5,18.93,2.86S99.32,243.41,99.32,243.41Z"/>
      <path class="cls-9" d="M29,46.74C26.62,41,26.52,29.42,30.2,20.87s7.08-9.55,8.53-8.7,6.49,25.08,6.49,25.08-4.87,2.12-9.39,4.42A23.61,23.61,0,0,0,29,46.74Z"/>
      <path class="cls-11" d="M39.83,14.7s-4.26-.14-7.07,9.41,0,19.39,0,19.39,6.42-3.67,12.46-6.25c0,0-1-5.06-2.16-9.85S39.83,14.7,39.83,14.7Z"/>
      <path class="cls-9" d="M85.68,46.08s10-17.11,15.11-19.67c6.23-3.11,7.18,13,2,24-2.27,4.89-8.19,11.94-8.19,11.94S89.82,50.88,85.68,46.08Z"/>
      <path class="cls-4" d="M82.56,33.92a45.42,45.42,0,0,1,8.3-7.65c5-3.58,6.69-5.25,9.85-5.39s5.14,2.23,6.69,8,.78,14.22-2.09,21.51-9.89,13.83-9.89,13.83l-1.16-2.79s6.52-6.05,9.69-13.73,3-19.8-.57-21.45-8.85,6.41-9.95,7.93-7.75,11.88-7.75,11.88,6.84-14,4.88-16S82.56,33.92,82.56,33.92Z"/>
      <path class="cls-11" d="M97.68,28.83c1.64-1.37,5-.18,4.65,5.57s-3.94,13.79-9.76,23.38a59.6,59.6,0,0,0-6.89-11.7s3.58-6,6.19-9.69S97.68,28.83,97.68,28.83Z"/>
      <path class="cls-9" d="M23.47,96.75A54.47,54.47,0,0,1,11,82.31s3.29,1.52,2.73.51S23.47,96.75,23.47,96.75Z"/>
      <path class="cls-3" d="M123.46,200.24c14.51-7.94,34.52,2.54,37.7,32.31s-26.37,43.41-44.56,48-44.08,4.09-66.38-7.73S22.9,263,22.9,263s13.78-22.43,37.82-22.24,35.77,7.4,55.19-5.22c13.36-8.69,3.89-19.37,3.89-19.37Z"/>
      <path class="cls-9" d="M69.42,280.31c-7.08-.34-17.37-4-21.84-5.8a112.71,112.71,0,0,0-19.85-6.09,7.93,7.93,0,0,1,1.9-3.09s-1.73-.88-7.79-1.39c0,0,2.16-10.46,16.29-18.58s36.08-2.92,55.51-2.41c0,0-7,15.28-18.2,19.83,0,0,5.06,6.53,19.56,6.53C95,269.31,75.28,280.59,69.42,280.31Z"/>
      <path class="cls-7" d="M123,216.6s3.82,9.65-7.1,18.94S95,244.08,95,244.08a38.42,38.42,0,0,1-12.51,16.5s19.16,9.7,46-5.76,13.38-48,6.34-53.21S120.11,206.34,123,216.6Z"/>
      <path class="cls-6" d="M93.69,243s8.13.66,17.61-4.69,13.63-13,8.52-22.09a18.64,18.64,0,0,1-9.36,17.33c-10.65,6.4-17.23,5.93-30,5.12-5.55-.35-21-.88-21-.88v3S78.61,242.76,93.69,243Z"/>
      <path class="cls-7" d="M82.49,107.26a51.78,51.78,0,0,0,9.66,21.83,181.72,181.72,0,0,1,22.06,37.26c7,15.47,7.13,17,7.13,17s-15.32-20.17-40-14.82-15.12-13.76-9.44-15.35,6.25-9.66,6.25-9.66l-2-10.92,10.8,7s-3-3.23-5.46-16.53S82.49,107.26,82.49,107.26Z"/>
      <g>
        <path d="M31.24,62.82s5.15-3.86,9.12.1,1.22,9.3,1.22,9.3-3.46,1.6-7.57-1.39S31.24,62.82,31.24,62.82Z"/>
        <path d="M41,73.69s5.33-8,.47-11.93c-6.29-5.16-11.83,1.61-11.83,1.61s7.14-2.94,10.72.81S41,73.69,41,73.69Z"/>
        <path class="cls-12" d="M35.43,62.39A2.48,2.48,0,0,0,35.18,67c2.21,1.12,3.38-1.56,2.76-3S36.35,62.12,35.43,62.39Z"/>
      </g>
      <g>
        <path d="M83.65,71.29s-4-5-8.86-2.15-3.49,8.7-3.49,8.7,3,2.41,7.68.53S83.65,71.29,83.65,71.29Z"/>
        <path d="M71.47,79.4s-3.2-9,2.5-11.67C81.34,64.29,85,72.22,85,72.22s-6.19-4.62-10.58-1.87S71.47,79.4,71.47,79.4Z"/>
        <path class="cls-12" d="M76,70.46A2.48,2.48,0,0,1,75.08,75c-2.42.54-2.89-2.35-1.94-3.54S75.16,70,76,70.46Z"/>
      </g>
      <path class="cls-6" d="M76.61,168.81a40.62,40.62,0,0,0-21,15.85s8.23-11.8,13.91-18.51a2.28,2.28,0,0,0,1.25,2.64C73,169.81,76.61,168.81,76.61,168.81Z"/>
      <path class="cls-13" d="M13.57,84.73S20.33,96.32,35.92,102s33.24,4,33.24,4-19.44-6.32-22-10.79-3.62-6.27-3.62-6.27l-13.88-11a35.62,35.62,0,0,0,4.06,8.44s-8.83-4.12-16.5-8.8-8.86-6.18-8.86-6.18,6.14,9.86,10.92,15.32Z"/>
      <path class="cls-11" d="M76.76,107.53a61.79,61.79,0,0,1-26,1.37s13.44.81,19.78,4.9,9.25,17,9.25,17S79.41,115.76,76.76,107.53Z"/>
      <path class="cls-14" d="M60.73,102a8.48,8.48,0,0,1-7.13-1.08c-.49-.34-.84,0-1.23.16a7.64,7.64,0,0,1-6.21-.25,1.7,1.7,0,0,1-1-1,8.4,8.4,0,0,0,5.68.79c1-.24,1.72-1.23,2.54-1.28.64,0,1.18,1.26,2.06,1.64a8,8,0,0,0,4.81.56C60.65,101.47,61,101.37,60.73,102Z"/>
    </g>
  </g>
</svg>
