<svg id="Layer_1" data-name="Layer 1" xmlns="http://www.w3.org/2000/svg" xmlns:xlink="http://www.w3.org/1999/xlink" width="355" height="357" viewBox="0 0 355 357">
  <defs>
    <style>
      .cls-1 {
        fill: none;
      }

      .cls-2 {
        opacity: 0.5;
      }

      .cls-3 {
        clip-path: url(#clip-path);
      }

      .cls-4 {
        clip-path: url(#clip-path-2);
      }

      .cls-5 {
        clip-path: url(#clip-path-3);
      }

      .cls-6, .cls-9 {
        isolation: isolate;
      }

      .cls-6 {
        fill: url(#linear-gradient);
      }

      .cls-7 {
        fill: url(#linear-gradient-2);
      }

      .cls-8 {
        fill: url(#linear-gradient-3);
      }

      .cls-9 {
        fill: url(#linear-gradient-4);
      }

      .cls-10 {
        fill: #81bfe0;
      }

      .cls-11 {
        fill: #b3d6d8;
      }

      .cls-11, .cls-12, .cls-13, .cls-14, .cls-15, .cls-17, .cls-18, .cls-20, .cls-21, .cls-22, .cls-24, .cls-25, .cls-27, .cls-28, .cls-34, .cls-40, .cls-46, .cls-49 {
        fill-rule: evenodd;
      }

      .cls-12 {
        fill: url(#linear-gradient-5);
      }

      .cls-13 {
        fill: url(#linear-gradient-6);
      }

      .cls-14 {
        fill: url(#linear-gradient-7);
      }

      .cls-15 {
        fill: url(#linear-gradient-8);
      }

      .cls-16 {
        fill: #61a6bc;
      }

      .cls-17 {
        fill: url(#linear-gradient-9);
      }

      .cls-18 {
        fill: url(#linear-gradient-10);
      }

      .cls-19 {
        fill: url(#linear-gradient-11);
      }

      .cls-20 {
        fill: url(#linear-gradient-12);
      }

      .cls-21 {
        fill: url(#linear-gradient-13);
      }

      .cls-22 {
        fill: url(#linear-gradient-14);
      }

      .cls-23 {
        fill: url(#linear-gradient-15);
      }

      .cls-24 {
        fill: url(#linear-gradient-16);
      }

      .cls-25 {
        fill: #95cece;
      }

      .cls-26 {
        fill: url(#linear-gradient-17);
      }

      .cls-27 {
        fill: #6fa68c;
      }

      .cls-28 {
        fill: url(#linear-gradient-18);
      }

      .cls-29 {
        fill: #85a13d;
      }

      .cls-30 {
        fill: url(#linear-gradient-19);
      }

      .cls-31 {
        fill: #61833a;
      }

      .cls-32 {
        fill: #a2c83a;
      }

      .cls-33 {
        fill: #84a73e;
      }

      .cls-34 {
        fill: #6a808c;
      }

      .cls-35 {
        fill: url(#linear-gradient-20);
      }

      .cls-36 {
        fill: url(#linear-gradient-21);
      }

      .cls-37 {
        fill: url(#linear-gradient-22);
      }

      .cls-38 {
        fill: url(#linear-gradient-23);
      }

      .cls-39 {
        fill: url(#linear-gradient-24);
      }

      .cls-40 {
        fill: #5b5b5d;
      }

      .cls-41 {
        fill: url(#linear-gradient-25);
      }

      .cls-42 {
        fill: url(#linear-gradient-26);
      }

      .cls-43 {
        fill: url(#linear-gradient-27);
      }

      .cls-44 {
        fill: url(#linear-gradient-28);
      }

      .cls-45 {
        fill: url(#linear-gradient-29);
      }

      .cls-46 {
        fill: #535149;
      }

      .cls-47 {
        fill: url(#linear-gradient-30);
      }

      .cls-48 {
        fill: url(#linear-gradient-31);
      }

      .cls-49 {
        fill: #615e5e;
      }

      .cls-50 {
        fill: url(#linear-gradient-32);
      }

      .cls-51 {
        fill: url(#linear-gradient-33);
      }

      .cls-52 {
        fill: url(#linear-gradient-34);
      }

      .cls-53 {
        fill: #fff800;
      }
    </style>
    <clipPath id="clip-path">
      <rect class="cls-1" x="10.02" y="10.06" width="328.06" height="328.06" rx="26.14"/>
    </clipPath>
    <clipPath id="clip-path-2">
      <rect class="cls-1" x="1.29" y="0.22" width="341.79" height="341.79"/>
    </clipPath>
    <clipPath id="clip-path-3">
      <rect class="cls-1" x="-136.4" y="-1.46" width="614.19" height="345.48"/>
    </clipPath>
    <linearGradient id="linear-gradient" x1="171.59" y1="210.3" x2="174.41" y2="-104.06" gradientUnits="userSpaceOnUse">
      <stop offset="0.2" stop-color="#faf6be"/>
      <stop offset="0.35" stop-color="#ddeace"/>
      <stop offset="0.62" stop-color="#b2d7e7"/>
      <stop offset="0.75" stop-color="#a1d0f0"/>
    </linearGradient>
    <linearGradient id="linear-gradient-2" x1="165.77" y1="64.73" x2="165.77" y2="159.06" gradientUnits="userSpaceOnUse">
      <stop offset="0.02" stop-color="#bee4f8"/>
      <stop offset="0.6" stop-color="#e9f5f8"/>
      <stop offset="0.97" stop-color="#f9faee"/>
    </linearGradient>
    <linearGradient id="linear-gradient-3" x1="164.53" y1="68.26" x2="164.53" y2="225.07" gradientUnits="userSpaceOnUse">
      <stop offset="0.01" stop-color="#a6badf"/>
      <stop offset="0.9" stop-color="#e3f3f7"/>
    </linearGradient>
    <linearGradient id="linear-gradient-4" x1="163.16" y1="189.01" x2="182.3" y2="379.48" gradientUnits="userSpaceOnUse">
      <stop offset="0.01" stop-color="#faf6be"/>
      <stop offset="0.04" stop-color="#f8f5c0"/>
      <stop offset="0.2" stop-color="#d9e8d1"/>
      <stop offset="0.38" stop-color="#c1dddf"/>
      <stop offset="0.57" stop-color="#afd6e8"/>
      <stop offset="0.77" stop-color="#a4d1ee"/>
      <stop offset="1" stop-color="#a1d0f0"/>
    </linearGradient>
    <linearGradient id="linear-gradient-5" x1="8647.89" y1="238.45" x2="8643.87" y2="220.92" gradientTransform="matrix(-1.08, 0, 0, 1, 9531.49, 0)" gradientUnits="userSpaceOnUse">
      <stop offset="0" stop-color="#fdfced"/>
      <stop offset="0.99" stop-color="#dbf0f8"/>
    </linearGradient>
    <linearGradient id="linear-gradient-6" x1="8705.09" y1="203.66" x2="8702.91" y2="194.14" gradientTransform="matrix(-1.08, 0, 0, 1, 9531.49, 0)" gradientUnits="userSpaceOnUse">
      <stop offset="0.02" stop-color="#fff"/>
      <stop offset="0.99" stop-color="#bbe4ef"/>
    </linearGradient>
    <linearGradient id="linear-gradient-7" x1="8732.16" y1="204.88" x2="8729.97" y2="195.36" xlink:href="#linear-gradient-6"/>
    <linearGradient id="linear-gradient-8" x1="8677.62" y1="226.02" x2="8675.38" y2="216.23" xlink:href="#linear-gradient-5"/>
    <linearGradient id="linear-gradient-9" x1="8705.82" y1="267.21" x2="8705.54" y2="285.83" gradientTransform="matrix(-1.08, 0, 0, 1, 9531.49, 0)" gradientUnits="userSpaceOnUse">
      <stop offset="0" stop-color="#e5f2e7"/>
      <stop offset="0.99" stop-color="#7dd1f5"/>
    </linearGradient>
    <linearGradient id="linear-gradient-10" x1="8716.74" y1="269.16" x2="8716.45" y2="288.45" gradientTransform="matrix(-1.08, 0, 0, 1, 9531.49, 0)" gradientUnits="userSpaceOnUse">
      <stop offset="0" stop-color="#e5f2e7"/>
      <stop offset="0.98" stop-color="#afd9f4"/>
    </linearGradient>
    <linearGradient id="linear-gradient-11" x1="8894.09" y1="243.89" x2="8894.05" y2="246.54" xlink:href="#linear-gradient-10"/>
    <linearGradient id="linear-gradient-12" x1="8851.77" y1="272.28" x2="8851.71" y2="276.45" xlink:href="#linear-gradient-10"/>
    <linearGradient id="linear-gradient-13" x1="8874.8" y1="281.25" x2="8874.75" y2="284.75" xlink:href="#linear-gradient-10"/>
    <linearGradient id="linear-gradient-14" x1="8824.41" y1="309.16" x2="8824.34" y2="313.93" xlink:href="#linear-gradient-10"/>
    <linearGradient id="linear-gradient-15" x1="8866.31" y1="317.32" x2="8866.24" y2="322.09" xlink:href="#linear-gradient-10"/>
    <linearGradient id="linear-gradient-16" x1="8816.25" y1="302.47" x2="8816.19" y2="306.67" xlink:href="#linear-gradient-10"/>
    <linearGradient id="linear-gradient-17" x1="7860.67" y1="-254.21" x2="7842.25" y2="-295.71" gradientTransform="matrix(-1.24, 0.04, 0.02, 1.22, 10002.84, 214.33)" gradientUnits="userSpaceOnUse">
      <stop offset="0" stop-color="#749cb5"/>
      <stop offset="0.96" stop-color="#73a6a2"/>
    </linearGradient>
    <linearGradient id="linear-gradient-18" x1="206.77" y1="198.85" x2="206.43" y2="172.48" gradientUnits="userSpaceOnUse">
      <stop offset="0.01" stop-color="#628f62"/>
      <stop offset="0.99" stop-color="#8ca17e"/>
    </linearGradient>
    <linearGradient id="linear-gradient-19" x1="222.1" y1="273.01" x2="259.17" y2="310.55" gradientUnits="userSpaceOnUse">
      <stop offset="0.01" stop-color="#80a242"/>
      <stop offset="0.98" stop-color="#61833a"/>
    </linearGradient>
    <linearGradient id="linear-gradient-20" x1="8683.13" y1="256.6" x2="8700.3" y2="280.63" gradientTransform="matrix(-1.08, 0, 0, 1, 9531.49, 0)" gradientUnits="userSpaceOnUse">
      <stop offset="0" stop-color="#526b31"/>
      <stop offset="0.99" stop-color="#495e2b"/>
    </linearGradient>
    <linearGradient id="linear-gradient-21" x1="8544.67" y1="305.67" x2="8487.84" y2="177.59" gradientTransform="matrix(-1.08, 0, 0, 1, 9531.49, 0)" gradientUnits="userSpaceOnUse">
      <stop offset="0.01" stop-color="#567033"/>
      <stop offset="0.78" stop-color="#84a13d"/>
      <stop offset="1" stop-color="#a0c13a"/>
    </linearGradient>
    <linearGradient id="linear-gradient-22" x1="8657.29" y1="268.44" x2="8656.27" y2="259.74" gradientTransform="matrix(-1.08, 0, 0, 1, 9531.49, 0)" gradientUnits="userSpaceOnUse">
      <stop offset="0.01" stop-color="#324c32"/>
      <stop offset="0.99" stop-color="#666d80"/>
    </linearGradient>
    <linearGradient id="linear-gradient-23" x1="8656.84" y1="268.65" x2="8655.93" y2="260.85" gradientTransform="matrix(-1.08, 0, 0, 1, 9531.49, 0)" gradientUnits="userSpaceOnUse">
      <stop offset="0.01" stop-color="#323f38"/>
      <stop offset="0.99" stop-color="#51565c"/>
    </linearGradient>
    <linearGradient id="linear-gradient-24" x1="8657.37" y1="270.18" x2="8656.78" y2="265.09" gradientTransform="matrix(-1.08, 0, 0, 1, 9531.49, 0)" gradientUnits="userSpaceOnUse">
      <stop offset="0.01" stop-color="#3d4938"/>
      <stop offset="0.99" stop-color="#434343"/>
    </linearGradient>
    <linearGradient id="linear-gradient-25" x1="8685.07" y1="275.58" x2="8683.25" y2="259.96" gradientTransform="matrix(-1.08, 0, 0, 1, 9531.49, 0)" gradientUnits="userSpaceOnUse">
      <stop offset="0.01" stop-color="#3d4938"/>
      <stop offset="0.98" stop-color="#382b23"/>
    </linearGradient>
    <linearGradient id="linear-gradient-26" x1="8629.58" y1="275.58" x2="8585.69" y2="176.67" gradientTransform="matrix(-1.08, 0, 0, 1, 9531.49, 0)" gradientUnits="userSpaceOnUse">
      <stop offset="0" stop-color="#465e2b"/>
      <stop offset="0.99" stop-color="#78923b"/>
    </linearGradient>
    <linearGradient id="linear-gradient-27" x1="8540.77" y1="315" x2="8496.87" y2="216.09" xlink:href="#linear-gradient-26"/>
    <linearGradient id="linear-gradient-28" x1="8361.19" y1="-238.96" x2="8387.47" y2="-202.18" gradientTransform="matrix(-1.19, 0.05, 0.05, 1.13, 10309.32, 142.69)" gradientUnits="userSpaceOnUse">
      <stop offset="0.02" stop-color="#365427"/>
      <stop offset="0.99" stop-color="#495e2b"/>
    </linearGradient>
    <linearGradient id="linear-gradient-29" x1="183.83" y1="187.71" x2="176.28" y2="154.34" gradientUnits="userSpaceOnUse">
      <stop offset="0.04" stop-color="#639179"/>
      <stop offset="0.98" stop-color="#99c182"/>
    </linearGradient>
    <linearGradient id="linear-gradient-30" x1="8565.4" y1="289.76" x2="8566.01" y2="269.79" gradientTransform="matrix(-1.08, 0, 0, 1, 9531.49, 0)" gradientUnits="userSpaceOnUse">
      <stop offset="0.01" stop-color="#3d4938"/>
      <stop offset="0.99" stop-color="#4c5854"/>
    </linearGradient>
    <linearGradient id="linear-gradient-31" x1="8539.31" y1="289.49" x2="8539.55" y2="281.69" xlink:href="#linear-gradient-30"/>
    <linearGradient id="linear-gradient-32" x1="8601.67" y1="301.61" x2="8602.38" y2="278.27" xlink:href="#linear-gradient-30"/>
    <linearGradient id="linear-gradient-33" x1="8596.87" y1="299.33" x2="8595.67" y2="289.08" xlink:href="#linear-gradient-24"/>
    <linearGradient id="linear-gradient-34" x1="8604.8" y1="307.67" x2="8603.95" y2="300.37" xlink:href="#linear-gradient-25"/>
  </defs>
  <g>
    <path class="cls-2" d="M293.4,9.05H63.1a56.08,56.08,0,0,0-56,56V295.37A61.48,61.48,0,0,0,68.5,356.78H293.4a61.48,61.48,0,0,0,61.42-61.41V70.47A61.49,61.49,0,0,0,293.4,9.05Zm51.49,286.32a51.49,51.49,0,0,1-51.49,51.49H68.5A51.5,51.5,0,0,1,17,295.37V68.77A49.8,49.8,0,0,1,66.81,19H293.4a51.49,51.49,0,0,1,51.49,51.49Z"/>
    <g class="cls-3">
      <g class="cls-4">
        <g class="cls-5">
          <g>
            <path class="cls-6" d="M488.68,128.75c.47-12.66,1.21-25.32,2.32-37.95V-18.92H-144.69V200.62H488.38C487.87,176.67,487.8,152.7,488.68,128.75Z"/>
            <path class="cls-7" d="M488.19,128.94c.58-15.89,1.58-31.75,3.2-47.56a97.94,97.94,0,0,0-17,4.18C457,91.84,411.47,98.3,401,90.78c-6.26-4.51-12.13-9.69-22.18-13.85-26.78,1.83-73,31.32-111.4,23.44S170.65,94.5,137,81.61C125.25,77.1,89.35,67.15,80.54,64a204.49,204.49,0,0,0-32.42-8.29S10.87,78,4.51,81.58-101.33,100.22-149.29,92a72.3,72.3,0,0,1-10.57,3.54c.3,23.59.79,47.17,1.21,70.76,0,.86,0,1.72.05,2.58l646.19,12.72C487.42,164,487.55,146.47,488.19,128.94Z"/>
            <path class="cls-8" d="M488.65,128.75q.23-6.16.55-12.35c-17,3.62-21.17-.91-31.68-5.64-6.44-2.9-37.72,11.62-48,9-36.79-18-88.45-33-123.49-51.46C236.54,79,187.46,104,151.92,103c-12.5-.35-46.6,16-57.48,15.51-17.21-.86-47.79,14.27-47.79,14.27s-52.42-23.58-82.17-22.15c-6.93.34-63.69,21.24-99.64,21.24-2.74,0-12.29-.77-25-1.92q.33,18.09.66,36.18.25,13.85.42,27.7l647.43,8.29C487.85,177.64,487.76,153.19,488.65,128.75Z"/>
            <path class="cls-9" d="M492.54,341.9c-.29-35-2-70-3.16-105-.47-13.57-.88-27.15-1.14-40.72H-147.12V302.82q1.6,27.32,2.85,54.63H492.64Q492.61,349.68,492.54,341.9Z"/>
            <path class="cls-10" d="M256,340c-4.09.8-4.75,1.73,0,0Z"/>
            <path class="cls-10" d="M230.58,316.08c24.72,0-26.86,9.55,12.87,9.55s-2.59,9.44,2.77,9.28,22.68.08,11.15,4.55L256,340a49.08,49.08,0,0,1,25.31,2.27c21.25,7.59-7.11,1.4.55,7.59s10.18,0,17.85,6.18-8,5.77,2.37,8.44c4.45,1.14,5.35,2.15,4.12,2.91q10.26-.16,20.5-.36c47.14-.92,94.28-2.33,141.41-3.66L230.58,303.23S205.87,316.08,230.58,316.08Z"/>
            <path class="cls-11" d="M143.75,205.58s-15.34,1.09.83,1.85-10.82,3.28,11.37,3.28-18-.06,3.78,1.93-9.51-.37,18.33,3.23-8.62,3.63,19.06,7.25-31.56,3,3.85,3-13.26-5,21.57-1-14.38-1.3,4.57,5.15-14.76,2.42,7.85,5.49-23.67.89-9.2,2.9-25.67-.22-16.4,1.6,4.78,4.89,4.78,4.89l-9.85,2s132.62-13.06,99.9-25.61S143.75,205.58,143.75,205.58Z"/>
            <path class="cls-12" d="M203.15,216.13s98.78,7.35,51.18,16.36-81.66,14.35-81.66,14.35,119.18-15.9,103.2-21-61.27-8.58-61.27-8.58Z"/>
            <path class="cls-13" d="M182.19,198.46s-38.52,4.31-49.05,6.45,1.08,3.22,13.08,4.37l46.14,4.43s-57-7.22-52.68-8.69,32.33-5.58,34.88-5.58,23.25-1.31,23.25-1.31l-15.62.33Z"/>
            <path class="cls-14" d="M153.06,199.68s-38.52,4.31-49,6.45,1.09,3.22,13.08,4.37l46.14,4.43s-57-7.22-52.68-8.69,32.33-5.58,34.88-5.58,23.25-1.31,23.25-1.31l-15.62.33Z"/>
            <path class="cls-15" d="M142.22,209.94s90.84,10.65,102.46,13.93-21.8,10.65-30.88,12.29-13.81,2.3-13.81,2.3,49.41-9,36-13.61-46.14-8.2-56-9.34-37.79-5.57-37.79-5.57Z"/>
            <path class="cls-16" d="M152.12,286.63c-10.47,0,12.63,2.29,19.24,2.29s12.72,5.31,21.45,5.31-2.77,5,8.43,1.9,15.79.73,10.43.73c-7.14,0,0,2.51-2.37,4.43-3.36,2.71,45.49,11.09,34,12.51s33.24,9.84,44.19,9.84,18.55,7.8,18.55,7.8,31.87,2.36,27.84,2.73c-14.05,1.28-3.45,2.63-3.45,5.19,5.66,0,28.95,4.3,21.86,3.34S356.9,347,356.9,347L370.18,349s-.35,3.32,11.32,4.6c7.09.78,9,2.38,11.95,3.71-4.59,1.33,8.68,4.06,15.64,4.06,3.93,0,14,1.76,19.78,3.12q31.89-.9,63.79-1.79v-1.46c-46.55-11.67-99.88-24.92-107.07-26.36-12.75-2.55-108.91-26.6-112.46-27.88s-52.21-14.61-57.88-17.16c-4.68-2.11-67.43-19.35-76.42-23.22,1.44,1.43,2.9,4.56-5.75,4.56-5.93,0,.33,4.06,2.81,2.05s1.49.4,2.43.57c4.89.87,7.19,2.47,2.23,3.2-6.45,1,7.07,2.06,1.14,3.65s-1.2,4.08-1.2,4.08S162.58,286.63,152.12,286.63Z"/>
            <path class="cls-17" d="M139.79,268s16.2,10.1,26.08,12.09,26.79,4.47,26.79,4.47-36.31-6.76-53.07-14.32S139.79,268,139.79,268Z"/>
            <path class="cls-18" d="M125.78,268s-16.13,1.35,14.77,9,42.87,10.13,42.87,10.13S91,271.22,125.78,268Z"/>
            <ellipse class="cls-19" cx="-40.31" cy="245.05" rx="78.97" ry="0.81"/>
            <path class="cls-20" d="M-122,274.1c0-.67,57-1.21,127.28-1.21s127.27.54,127.27,1.21-57,1.21-127.27,1.21S-122,274.77-122,274.1Z"/>
            <path class="cls-21" d="M-115.19,282.78c0-.67,42.82-1.21,95.64-1.21s95.64.54,95.64,1.21S33.27,284-19.55,284-115.19,283.45-115.19,282.78Z"/>
            <path class="cls-22" d="M-119,311.24c0-.67,68.81-1.2,153.69-1.2s153.7.53,153.7,1.2-68.82,1.21-153.7,1.21S-119,311.91-119,311.24Z"/>
            <ellipse class="cls-23" cx="-10.4" cy="319.4" rx="153.18" ry="1.21"/>
            <path class="cls-24" d="M-85.22,304.31c0-.67,57.62-1.21,128.69-1.21s128.69.54,128.69,1.21-57.62,1.21-128.69,1.21S-85.22,305-85.22,304.31Z"/>
            <path class="cls-25" d="M-110.83,184.07c.13.2,2.91-.87,4.56-1.82,1-.57,1.06-1.34,1.34-1.08s2.55-.49,2.65-.18c.25.69-1.79,2.32-.62,2,1.71-.47-4.54,1.87-3.07,1.93a4.17,4.17,0,0,0,3.7-.07c-.28-.65.74-1.25,1.94-1.84,1,.3,1.65.78,1.84,1.45,0,0,1.6-2.42-.32-2.28s-1.12-3.07,0-2.71,1.67,1.26,1.75.51.63-1.71-.77-1.66a2.27,2.27,0,0,1-2-.83s.55-1.39,1.8-.8,3.87-1.14,3.87-1.14l1.4-.05s-2.86-.87-.18-1.63,4-1.79,3-.63-.62,1.7-.62,1.7,1.38-2.76,2.47-2,1,1.13,1,1.13l1.63-.59c-.29-.29-.57-.6-.86-.9,0,0,1.06-1.47,2.16-1.1s1.78.07,1.32.7,1.19-.38,1.19-.38,3.94-1,2.47-1.52-3.07-1.64-.92-1.88,2.44-.23,2.44-.23l.58.46s3-4.31,3.63-3.32-.55,1.39.33,1.42a2.27,2.27,0,0,0,1.57-.69l1.73-1.34,1.09.81,1.45-2.22,2.55-1.41s1.16.48.18,1.63,0,.86,0,.86,1.3-2,2.33-1.31.85,1.33.85,1.33l3.13-1s-2.8-.76-1.38-1.25l2.61-.87s-.46.2.2.77a1.9,1.9,0,0,0,1.63.28l1.41-.48,1,.69s-3.57.72-2.1,1.21.66.57,2.43.21,1.45,1.36,2.31-.45,1-2,2.09-1.21-2,2.73.34,1.85.84-1.81,2.61-1.74,3-2,2.46-.65A7.27,7.27,0,0,1-43.8,164l2-.46.58.46s-2,.89-1.65,1.45.58.45.58.45,2.54-1.41,2.15-.23-2.12,2.07-2.12,2.07,2.64-2.16,3.14-1.39-.84.94-.49,1.93,1.41,0,1.41,0,2.87.44,1.93-.57a2.47,2.47,0,0,1-.85-1.77l1.2-.81s1.65-1,1.41-.06-.1,1.19-.1,1.19,1.83,1.05,1.64-.58a4.48,4.48,0,0,1,.19-2.37s2.17-1.11,2.09-.35a1.8,1.8,0,0,1-.7,1.16,2.91,2.91,0,0,1,2.38-.77c1.33.27.06,1,.06,1s.07.11,1.56-.27,3.82-2.55,3.27-1.16a4,4,0,0,1-1.37,1.89l1.63-.15.57.89-1.77.36s-2.31.45-1.73.9,1.85.18.73.68a9.08,9.08,0,0,1-2.82.53l-.32,1.29c.12,1.09-1.51,1.24-.63,1.7a3,3,0,0,1,1,.7l1.71-.47-.11,1.61s3.5-1.26,3.07-1.93.48-1.49.48-1.49,1.4-.06,2.22-.13,3-.64,2.18-1.54.33-1.71.33-1.71,4.85-2.3,3.35-1.06a2.79,2.79,0,0,0-1.17,2.66s5.92-3.77,4.7-2.08a24.22,24.22,0,0,0-1.6,2.42s1.84.18,1.94-.57,1.65-1.45,1.65-1.45l.27,1.31,2.06.09.69-1.17,1.55.61-1,1.58L-4,167.18s1.33-.18.66.75l-1,1.39s1.74-1,2.83-.54A.89.89,0,0,1-1,170.12s3-.54,2.1-.93.43-2.79.43-2.79,1.84-.35,1.41.71a6.89,6.89,0,0,0-.48,1.48A4.67,4.67,0,0,1,5,167.13c1.68-.34.47-1,.47-1s-1.94-1.28-1-1.23A7.17,7.17,0,0,0,7,164.29l.77.69,2-.58s1.89-.52.83-.68.73-1.82.73-1.82,2.39-1.22,2.21-.51a3.72,3.72,0,0,0,.05,1.55,2.66,2.66,0,0,1,2.06-1c1.51-.12,1.3.53,1.3.53l-1.17,1.39A4.66,4.66,0,0,0,18,163.6c1-.44.92-1,.92-1s-.31-1.2.64-1.47,2,1.34,1.18,1.85a3.42,3.42,0,0,0-1.08,1s1-1.15,2-.39a6.53,6.53,0,0,1,1.12,1s1.65-.65,1.16-.91.89-1.58.89-1.58l1.68-.1a1.51,1.51,0,0,1,.18,1,1.65,1.65,0,0,1-.38.88,1.87,1.87,0,0,1,2.26-.93c1.58.49,1.78.79,1.78.79a5.8,5.8,0,0,0-1.32.67,1.3,1.3,0,0,1-.91.32S25.73,166,26.83,166s2.12.09,2.12.09l-1.29,1.2-1.47.18s-.68-.81-1.38-.41-1.36.84-1.36.84a.69.69,0,0,0-.94-.22c-.57.33-2.15,1.35-.8,1.22a11.17,11.17,0,0,0,2.63-.61l.1,1.14s.6.44,2.41-.2,1.83.14,2.68-1,.72-1.82,1.59-2,.76.45.76.45l-1.58,1.48s1.75-1.48,2.06-1-.15,1.49-1.88,2-1.93.93-1.93.93,1.1-.25,1.25.23,0,0,1.6,0a20.27,20.27,0,0,0,2.61-.13s-1.39.3-.72-.86A4,4,0,0,1,35,167.76s1.28-.49.89.39a3.45,3.45,0,0,1-.59,1s1.7-1.3,2.3-.62a.71.71,0,0,1-.23,1.13s-1.69.58-1,.67,1.69-.59,1.56,0-1.13,1.2-1.13,1.2-1.87-.19-1.84.35.27.67.27.67,2.2-1.53,1.72-.29A3.7,3.7,0,0,1,35.77,174l2-.58s-1.25-.47.07-1.13a16.45,16.45,0,0,1,3-1.08s2.18-1,1.39-.3-1.66,1.6-1.66,1.6l.64.27-.75,1.05.94,0s1.77-1.18,1.43-.25-1.95,1.66-1.51,1.85a10.66,10.66,0,0,1,1,.52l-2.83.54-.82.21s.32.25.26,1.15-.51.93.35.79,2.9-2.16,3.09-1.61-1.17,1.63-1.17,1.63l.89.15s1.7-1.07,1.56-.3-1.34,1.39-1.34,1.39l.24.37a4.73,4.73,0,0,1,1.89-.53c.81,0,.47,1,1,1.24s1.85-.35,1.85-.35-1.23.31-.65-.26A18.77,18.77,0,0,1,48.08,179a7.05,7.05,0,0,1,0,.77,1.38,1.38,0,0,0,.15.73s1.53-1.08,1.6-.24a4.16,4.16,0,0,1,0,1l1.82-.64s-.82,0,.13-.77S54,177.55,54.26,178a1.11,1.11,0,0,1,.1.9l.24.37s1-1.69,2-1.59,0,1.5,0,1.5l2-.52s-1.15.67-1.29,1.2,2,.14,2,.14,1.94-1.17,1.93-.69a10.18,10.18,0,0,1-.1,1.07s-.49.22,0,.41,2.44.1,1.62.55-1.44.72-1.44.72l.23.84s-.24-.61.89-.08.51,1,.51,1-.17.46,1,.64,1.09.7,1.09.7l-.22.65a1.77,1.77,0,0,1,2-.64c1.34.35.35,1.27.35,1.27l.07.6,2.45-.62a2,2,0,0,0-1.28,1.2c-.23.89-.06.9-.06.9s.32.25-.87.62,1.12,2.56,1.12,2.56l4,3.12,8.78,2.28s-220.45.7-225.89,1.85,28.2-8.33,34.79-14.88l-1.16,0Z"/>
            <path class="cls-26" d="M128.12,174.51c3.28,2.67-3.65-2.71-.38-2a26.83,26.83,0,0,1,5,1.46,10.57,10.57,0,0,0-4.49-4.22c-3.12-1.53-2.92-2.63-2.92-2.63a6,6,0,0,1,4.57-.28,25.39,25.39,0,0,0,4.68,1.15s-1.44-2.44.6-3.31a7.43,7.43,0,0,1,3.51-.7l.65,2.62s4.25-.6,3.08-2.44a12.61,12.61,0,0,1-1.36-5s4.78.59,4.48,2.24,3,2.35,3,2.35l3.07-2.45,3.11,1.52s1.7-3.17-.18-3.13-5.29-4-5.29-4,.82-2.45,2.82-1.06,3.27.68,3.27.68-2.6-2.3-.51-3.45a14.91,14.91,0,0,0,3.49-2.67l2.23,2.25.43,1.76a1.91,1.91,0,0,1,2.83-1.08c2.06,1.11,1.24,3.56,1.24,3.56s.78-.19,4.05.5,3.22,2.94,3.22,2.94l3.32.41s-3.17-1.24-1.34-3a36.74,36.74,0,0,1,3.12-2.72l2,3.36,1.44,2.45s6-.11,4.34-1.16a4.11,4.11,0,0,1-1.65-3.31l6.15,1.32,1.24,3.54,2.17-3.68,1-3.26s.1-.56-1.84-.23-5.22-2.35-5.22-2.35.67-1.61,4.3-.87,5.3-.2,5.3-.2-1.73-5,.11-4.78,0-2.26-3.11-1.52-4.85-2.29-4.85-2.29,4.37-3.42,6-2.08,2.91,2.62,2.91,2.62,2-2.86,4.64-2.81a2.08,2.08,0,0,1,2.18,2.53l3.11,1.51s1.2-.41,3.25-1.28a7.14,7.14,0,0,1,4.19-.33l1.88,4.19,5.85,3s.1-.56,1.51-2.08-1.7-1.06-1.35-3a10.51,10.51,0,0,1,1.39-3.51s3,.1,3.75,2.17a8.66,8.66,0,0,0,2.39,3.4s-.08-3.68,4.28-2.85,4.06,2.48,4.06,2.48l8.25.18.28,2.57s1,1,3.37.13,5.89.74,5.89.74-3.82,2.35-2.13,3.4,6.8-2.26,10.25,1.57S268,158,268,158l3.35,1.14s7.27.45,6.5,2.62.65,2.63.65,2.63,4.48-4,6.69-3.7,13.51,2.25,12.11,3.77S300,168.2,300,168.2l8.41,1.33s8,3.8,4.77,4.83.78,4,4.19,3.9,14.84-1,14.34,1.78,15.34,6.71,15.34,6.71-174.25-1.61-180.61-1.82-50.87-6.75-50.87-6.75,9.23-6.34,12.51-3.67Z"/>
            <path class="cls-27" d="M7.11,196.08c3.16,1.9,2-3.84,4.87-3.54s1.19-1.11,1.19-1.11,1.75-.2-1.12-1.18-.66-1.36-.66-1.36-.53-1.65,1.71-1.14a24.3,24.3,0,0,0,4.17.55s-1.55-1.87.09-2.75a6.55,6.55,0,0,1,2.94-.85l.89,2.08s3.58-.83,2.33-2.24a10.46,10.46,0,0,1-1.8-3.93s4.19.09,4.14,1.47,2.85,1.67,2.85,1.67L31,181.5l2.87,1s1.05-2.72-.56-2.53-5.07-2.86-5.07-2.86a1.49,1.49,0,0,1,2.29-1.1c1.9,1,2.9.29,2.9.29s-2.53-1.66-.88-2.76a11.94,11.94,0,0,0,2.66-2.47l2.2,1.66.6,1.39a1.57,1.57,0,0,1,2.29-1.1,2.51,2.51,0,0,1,1.53,2.79,11.7,11.7,0,0,1,3.54.08c2.89.3,3.15,2.14,3.15,2.14l2.9.06s-2.88-.75-1.53-2.33a28.65,28.65,0,0,1,2.34-2.47l2.17,2.58L56,177.72s5.18-.57,3.59-1.3a3.55,3.55,0,0,1-1.85-2.56l5.46.58,1.52,2.78,1.4-3.18.41-2.73s0-.47-1.61,0-4.79-1.49-4.79-1.49.37-1.36,3.58-1.06,4.54-.59,4.54-.59-2.14-3.95-.52-3.91-.27-1.84-2.88-1-4.46-1.47-4.46-1.47,3.33-3.14,4.91-2.18,2.84,1.89,2.84,1.89,1.37-2.49,3.63-2.67A1.85,1.85,0,0,1,74,160.7l2.87,1s1-.43,2.62-1.31a6.45,6.45,0,0,1,3.57-.61L85.17,163l5.41,2s0-.47,1-1.82-1.59-.72-1.53-2.33a8,8,0,0,1,.74-3s2.58-.16,3.5,1.46a7.82,7.82,0,0,0,2.49,2.58s-.54-3,3.31-2.67,3.82,1.69,3.82,1.69l7.1-.53.58,2.07s.95.72,2.91-.16,5.16.12,5.16.12-3,2.22-1.39,2.94,5.56-2.39,9,.44,3.43,3.52,3.43,3.52l3,.65s6.31-.22,5.93,1.61.89,2.09.89,2.09,3.34-3.6,5.28-3.56,11.91.73,10.89,2.09,2.81,2.81,2.81,2.81l7.4.4s7.34,2.45,4.72,3.55,1.19,3.23,4.1,2.83,12.64-2,12.57.29,14,4.21,14,4.21-150,12.88-155.51,13.23S0,200.38,0,200.38s2.57-4.44,5.74-2.53Z"/>
            <path class="cls-28" d="M374.71,184.75c-1.64-1-2.93-2-6.6-1.15.65-2.48,47-11.61,47-10.24-1.58-1-144.27-.83-186,0-11.08.21-5,2.32-13.32,2-23.11-.83-38,3-51.18,3.44-17.89.55-33-1.77-51.78-.38S-1.88,200.59-1.88,200.59l150-3.11s70.25,5.72,73.92,6,67.52-10,67.52-10L333.7,185s29.36.56,42.67-.28Z"/>
            <path class="cls-29" d="M293.75,231.45c80.82-6.15,144.64-9.81,195.07-11.86-.6-20.15-1-40.32-.83-60.47-20.49,2.23-56.93,7.94-71.54,9.82-18.83,2.42-65.17,11.39-77.72,11.39-22.66,0-23.36,2.21-45.68,4.09C263.67,186.89,234.4,196,203.92,197c-35.4,1.15-52.63,5.21-55,5.7s-2.7,1.87-2,1.17-1,1-1,1a76.34,76.34,0,0,0,11.8,2.86c6.27,1,26.15,3.88,31.38,3.88s52.31,6.78,61.72,6.78,38.71,4.85,50.22,5.82S293.75,231.45,293.75,231.45Z"/>
            <path class="cls-30" d="M152.31,203.64l2.2-.42A11.6,11.6,0,0,0,152.31,203.64Z"/>
            <path class="cls-31" d="M488.42,204.72c-11.5.55-25.11,1.27-25.11,1.27s-32.68,3.22-38.91,3.22-26.25,2.16-46.41,5.18-58.06,9.69-68.74,9.69c22.12-5.53,16.7-6.62,16.7-6.62s3.85-.37,19.49-3.31c28.76-5.4,39.78-7.39,14.25-6.8-11.86.28-31.14.55-38.25.69s-14.23.55-25.21.55-12.15,1-19.27.82-11.56,0,2.67-2.75S328,201.3,328,201.3a363,363,0,0,0-36.86,1.44c-21.44,1.85-33,.3-49,2.77-6,.93-9,.65-10.84.91-29,4.15-2.72-.73-4.48-1.23a25.44,25.44,0,0,0-5.36-.81c-10.37-.69-8.47,2.28-26.26.36a250.55,250.55,0,0,0-35.58-1s2.67.55,11.27.82,18.38,1.24,18.38,1.24-7.41.27-25.8-.69c-10.9-.57-12-1.14-11.09-1.51l-2.84.55c-2.07.41-.89.41-2.38.27s-1.77.83.6,1.38,2.07,1.1,5.63,1.37,10.38,1.38,18.68,1.24,13.64,2.2,19,2.75,18.09,1,25.79,1.51,18.39,1.92,21.65,1.92-1.49.55-5,.42,11.26,1.1,19,1.92,13.53,2.17,22.13,3c6.52.63,13.09,2.84,18.39,4.64,1.65.57,2.12,1.32,2.18,2.05.1,1.21-.93,2.36.56,2.43,5.63.27,13.67-2.21,15.15-2.76a23.88,23.88,0,0,1,4.45-.83s18.38-.68,44.18-2.47c19.78-1.37,96-11.67,129.08-16.45C488.45,206,488.44,205.34,488.42,204.72Z"/>
            <path class="cls-32" d="M489.38,236.92q-.57-16.41-1-32.84c-5,.14-9.29.22-9.29.22l-18.68,2L319.33,223.92c-5.39.66-14.37-.42-16.88.58s-46,12.72-51,14.05-36.62,6.32-42,7.48-32.32,5.33-37,6.49-23.34,6.15-23.34,6.15-17.34,12.26,54.65,17.69c42.75,3.22,179.84-1.26,286.85-5.53C490.2,259.53,489.76,248.22,489.38,236.92Z"/>
            <path class="cls-33" d="M489.38,236.92q-.33-9.36-.6-18.73c-28-.53-64.7-.31-71.39.24-10.05.83-13.64.67-22.62,2.17s-23,5.65-36.27,6.15-15.44-.17-28.72.16-14-1.66-22.62-.49-23,4.32-27.29,5.48-47,11.14-55.3,12.31-57.9,9.2-61.13,9.86S198,251,212.72,248.51s70.21-17.51,86-18.5-30.6,9.77-28.8,9.77c50.45,0-24.07,10.4-57.2,14.24-11.49,1.33-26.57,3.16-26.57,3.16s39.5-2.5,58.17-3.49,42-1.17,46.32.33,33.3,2.54,43.36,2.71-14.55,6.38-15.71,3.77c-.58-1.29-27.9.14-26.93,3.44.24.83-38.55,2.57-22.48,2.06,20.66-.66,44.74.15,47.79.05,3.92-.13-30,1.73-54.44,3.83-39.47,3.38-90.4,14.23-83.2,13.7C201.65,281.92,330.85,272.14,323,273c-5.09.54,56-3.91,105.45-8.34,27.29-2.45,50.36-5.89,58.28-6.12l3.47-.09Q489.76,247.67,489.38,236.92Z"/>
            <path class="cls-34" d="M234.23,193.59s-44.77.89-55.68.89c-7,0-21.31.83-41.13,1.26-6.6.14,40,3.06,34.51,3.37-3.74.22-70.43,1.36-73.17,1.36-24,0-100.76.13-100.76.13s78.46-4.43,87.9-6.12,88.29-1.35,101.37-1.35,91.36-7,91.36-7Z"/>
            <path class="cls-35" d="M144.18,260.74s-6.29.27-7.38,3.84c-.36,1.2-1.56,4.71,1.49,5.46s4.24,2.84,10.33,5.22,15.28,6.66,17.15,7.1,17.52-1.14,24.08-1.14,26-5.81,26-5.81c-7.85-2.61,3.27-3.28,3.27-3.7,0-1.64-6.16-6.8-12-6.8s-22-.57-31.16-2.51-26.62-3.22-26.62-3.22Z"/>
            <path class="cls-36" d="M164.54,281.28a158.58,158.58,0,0,0,15.56,4.09,40.75,40.75,0,0,1,10.69,3.56c1.54.89-.78-2-.78-2l3.47,2.32,3.09,1.43s-1.54-2.68-.39-1.79a34.64,34.64,0,0,0,3.47,2.14c1.16-.06-1.92.75-.77.69a26.56,26.56,0,0,1,4.59.21c.67.23-1.61.84-.87,1,1.79.31,3.25.06,3.05.51-.38.9,3.64-1.29,3.64-1.29-.51.77-1,1.54-1.54,2.32a12.71,12.71,0,0,0,4.75-.31c-.25.32.45.95.27,1.69,1.42.36.65-1.35,2.06-1,2.49.31,2.81,1.79,3.32,0,.45-.83-.92-1.67-1.92-2.5-.28-.15,1.3-.58,4.62,3.93l-.77,2.14,3.86-.35c-.39-.6-.78-1.19-1.16-1.79,0,0,2.7,2.68,3.08,4.11s3.09,2.85,3.09,2.85a21.26,21.26,0,0,1-.39-3c1-.13,2.39-2.62,2.32-2.68.26,2.44.51,4.88.77,7.32l3.08-4.11.39,4.29,3.47-2v2.33l4.62.89c-.25-.6-.51-1.19-.77-1.79v-.89l3.47,1.79-1.16,1.42,3.47,1.61,1.54-1.43c.26,1.07,2.45,1.55,2.71,2.62,1,.24.12,1.07,1.15,1.31l2.7-.18a27.46,27.46,0,0,0,3.79,1.77c2.31.89,4.69,1.62,4.69,1.62a33.13,33.13,0,0,1,5.39,1.43c3.86,1.25-.38-2.68,3.09-.71,1.19.67,1,.78.64.73.63.17,1.74.49,3.6,1.05,8.87,2.68,9.25,2.32,12.34,3.21a17.84,17.84,0,0,1,5.39,2.15c2.7,1.43,3.47-1.08,6.17.71S306,324.1,307.2,325s0,0,3.86,1.43,2.69.54,5.39,1.79.77,0,3.47,1.06,3.86-.35,3.86-.35l-.39,2.68s2.31-2.68,2.31-1.79S328,332,328,332l1.92-2.68.78,3.22s1.54-4.28,2.31-2.32a9.34,9.34,0,0,1,.77,3c.26.36.51.72.77,1.07,0,0-.77-3.92,0-3s3.09,4.1,3.09,4.1a7.74,7.74,0,0,1,6.55-3.74c-3.35,1.84-2.73,2.77-1.54,3.57-.22,1.2,5.74-1.42,6.5-1.9C348.32,334.54,345,337,345,337l8.09-1.78-1.54,2.32c.35,1,4.91-2.14,6.34-3.35a14.75,14.75,0,0,0-.94,5.13s3.93-5.3,3.55-4.22,2.23,4.05,2.23,4.05l.13-.1c.26,1,1.94,1.56,2.57,2.24,1.3-1.19,4.15-1.8,7.71-2.14l-2.31,2c2,5,2.82,4.07,3.47,2.32,0,0,4.23-3.75,4.23-2.14-4,2.67-1,5.68-.38,5.53l2.31-2.5,2.31,2.32,1.93-.53,2.31,1.07,3.86-1.07c.26.35.51.71.77,1.07l2.7,1.25s8.48.71,10.41,1.6-3.09,2.14,0,2.32,13.49,1.79,15.8,1.79,3.86,1.07,7.33,1.25a52.17,52.17,0,0,1,8.48,1.25c2.69.53,3.85.53,6.16.89s0,1.79,4.63,2.68,13.49,2.32,15.8,2.68a14,14,0,0,1,1.94.58l27.79-.77q0-10.38-.12-20.75c-.26-31-1.6-62-2.74-93-2.18.09-3.8-1-5.67-1.7-2.31-.9-1.88.71-1.88.71l-2.36-.18-3.47.36s-6,2-6,.6-2.92-3.95-2.92-3.95A13.68,13.68,0,0,0,469,248.3h0a7.64,7.64,0,0,0-3-1,45,45,0,0,1-4.62-.71l4.24,2c-.65.21.72,1.75.08,2s-3.29-.92-3.94-.71l-1.92-1.61-3.47-1.06s-.13.41,2.18,1.48,1.67,2.44,1.67,2.44a11,11,0,0,1-3.85,0c-2.32-.36-3.09-.39-3.09-.39s-7,.44-6.46,1c.12.12,3.37-.3,4.09-.17,3.09-.55,6.79,1.12,6.61,1.38-1,.29-1.92,0-2.57.25s-.59,1-1.46,1.23c.57-1.05-1.57-3.43-5.22-1-2.7.72-9.46.69-9.46.69.9.3,6.58.17,7.48.47,0,0,3.53-1.34,4.3-.27.24.33-4.59.68-4.64.94-.08.56,4.25.84,4.25.84l-4.62.72c-.16.72-5.7.38-6.5-.28s2.26,2.42,1.87,3-1.81.61-3,.18c-.47-.16-.9-1.2-1.22-1.18-.84.06,0,1.86-.36,2.25s-1.73,2.1-2.78,1.64c-.54-.24-.46-2.87-1.07-2.9s-.89,4.08-1.34,4c-1.09-.29-1.53-3.68-1.53-3.68-.8.33-.72,3.5-1.51,3.84-.62.26-2.11-2.32-2.73-2.06l-1.54,1.79a6.57,6.57,0,0,1-3.47-.36c-2.31-.72-6.55-.36-9.64-.72a4.72,4.72,0,0,0-4.46,1.7,11.67,11.67,0,0,0-4.24.18c-1.93.54-5.4.71-5.4,1.61s-2.31,2.49-4.24,1.24-7.71-1.24-7.71-1.24-2.31-.54-2.31-1.43-1.54,1.78-1.54,1.78l-1.93,2a1.29,1.29,0,0,0-2.31.17,8.51,8.51,0,0,1-3.49,2.56c.28-.3.07-.85-2.29-1.84-4.24-1.79-5-3-5-3v2l-2.69-.36s-7.52-1.5-10.6-.61-2.35.61-2.35.61.6-1.11-3.47-2.41c-2.7.9,2.92,2.23.23,2.59-3,.65-2.57-.93-4.63-2.68-1.16-.27,1,1.91.38,1.68a13.9,13.9,0,0,1-3.35-1.6,4.31,4.31,0,0,1-1.27-1.51s-.87.63,0,1.69c.35.42,3.05,1.07,3.05,1.53,0,1.6-2.31,2-2.31,2-.31-1.89.33-2.73-.2-2.11-.91,1.05-3.78,2.28-4.42,2.11,0,0,1.53-1.79-1.16-.89-.45.15-1.06,1.65-1.94,1.36-.61-.19-1.85-2.32-1.89-2.13-.17.7,1.89,4.22-1.54.79-.6-.61-1.17.75-1.43,1.33a12.87,12.87,0,0,0-3.22-.46c-.55,0,.09-1.95-.61-1.76-.35.09-1.26,2.66-1.77,3s-.39-1.8-.8-1.53a6.73,6.73,0,0,1-2.38,1.2,2.82,2.82,0,0,1-1-.19c-.33-.12-.47,1.27-.77,1.08s-.71-1.89-1-2.07c-.5-.35-.6,2-1,1.91s-1.12-2.37-1.37-2a3.77,3.77,0,0,0-.5,1c-.08,0-1.2,1.13-2.14,1.23-.37,0-.89-.45-1.49-.87s-.6,1.83-1.21,2c-.18,0-1-2.12-1.21-1.69a6,6,0,0,1-.9,1.37,4.41,4.41,0,0,1-3,.58c-1.48,0-.75-1.16-1.22-.8-1.54,1.25-4.24-.18-4.24-.18-.43,0-1.45,1.44-2.44,1.08-.46-.17-.84-2.39-1.27-2.33-.63.08-1.2,1.79-1.58,1.85-1.2.19-.51,1.12-1.41,1.12-.29,0-.33-2.39-.82-.89a2,2,0,0,1-1.38.83c-.55,0-.88-.69-1.17-.78-.46-.13,0-.88-.73-.88,0,0-.65.87-1.24.8-.36-.05-.58-1.1-.95-1-1,.29-1.7,1.38-2.54,1.41-1.31.06-1.07-1-2.59-.68-.56.11-.93,1.13-1.18.36s.32,1.25-3,1.25c-.27,0-.13-.9-.46-.9-.4.29-1.2,1.67-1.67,1.44-.28-.13-.23-1.95-.53-1.85-.65.22-1.14,2.37-1.55,2-.17-.16-.13-2-.72-1.44a3.15,3.15,0,0,1-.74.55,3,3,0,0,1-2.11-.06c-.61,0-1.21,1.07-1.51,1-.49-.12-.45-1.43-.58-1.57s-.8,1.13-1.53,1.18-1.12-1.77-1.21-1.55c-.66,1.58-1.36,2-1.06,1.36a19.56,19.56,0,0,0,.1-2.13c-.44.12-1,2.49-1.41,2.61-.2.06-.32-2.13-.52-2.07-1.93,3.56-2.66,2.39-2.7,1.07A8,8,0,0,1,253,273.8c-.57,0-.7-.66-1.17-.78s.17,2.12-.5.86c-.18-.34-1.63-1.76-2-1.49-.11.09.05,1.46-.35,1.23s-1.35-2.06-1.55-1.88c-.4.36.07,1.5-.29,1.65-.71.3-1.09-.23-2-.13-.31,0-.52-2.23-.89-2.48s-.71,3.43-1,3.58-.89-1.79-1.2-1.84-1-1.13-1.11-1c-.61.6,1.18,2.42-.27,2.15-1.92-.36-1.27,1-1.27,1l-2.7.36c-1.12.59,4.68.44,1.75.92-5.4,1.79-14.09.68-18.33,2.29-1.59.61-3.25,1.73-3.44,1.23-.58-1.48-2.34-.39-5.64.39-1.1.27-2.1-.13-3.64.16-9.25.18-10-.35-12.33.36s-.77-.18-6.55-.18-6.54.13-7.7,1a29.09,29.09,0,0,0-7.23,0,32.42,32.42,0,0,1-6.77-.18S161.08,280.21,164.54,281.28ZM363.2,337.7a2.38,2.38,0,0,0-.3.56C362.84,338.11,362.86,337.93,363.2,337.7Z"/>
            <g>
              <path class="cls-37" d="M229.82,267.71c-1.55-1-5.09-6.37-9.74-7.5s-18.16,2-19.93,2.69.45,4.39,5.76,6.22a99.67,99.67,0,0,0,17.49,4c2.66.14,8-4.39,6.42-5.38Z"/>
              <path class="cls-38" d="M226.5,269.41c-2.21-.14-4.21-2.55-7.53-4.53s.89-3.54-1.77-4-14.83,1-16.38,2.26,3.54,5.09,8.85,6.23,11.3,3.11,13.07,3.39,4.2-1,5.09-1.7a16.87,16.87,0,0,0,2.3-2.84,5.22,5.22,0,0,1-3.63,1.15Z"/>
              <path class="cls-39" d="M217.32,268.15c-.89-.71-1-.3-5-2.28S201,263.61,201,263.61s8.86,5.8,11.07,6.65,9.74,3.25,11.29,3,5.24-3,5.24-3-3.27,1.43-5.93.86l-2.15-1.55Z"/>
              <path class="cls-40" d="M224.43,276.75c-1.55,1.13-15.2.44-24.5,1.29s-14.17,2.12-16.61,1.13-4.42-5.23-5.75-6.37-9.52-2-13.95-2.26-10.18-1.13-11.29-2.83-5.54-6.51-4.65-7.36,5.31-.57,11.95-2.12,11.74-3.11,16.61-4A32,32,0,0,1,190,255.54c2,.85,8.85,4.53,10.85,5.1s3.1,5.23,3.1,5.23,14.61,3.82,17.05,4.24,5,5.51,3.46,6.64Z"/>
              <path class="cls-41" d="M196.61,266.86c-2.44.14-2.88-.14-6.2,1.7s-7.53,3.11-6.86,4.67,2.21,2.4,7.3,2.68,14.84-1.41,20.15-.42a53.24,53.24,0,0,0,10.19,1c1.32,0,3.32-1.55,3.32-1.55s1.33,2.12-3.77,2.68-21.66,2.86-24.53,3.15-14.78,2.23-16.55.53-11.15-3.61-12.36-4.5-14.61,1.92-12.32-1.71c-11.79-1.27-9.29-15.15-7.3-14.73a72.59,72.59,0,0,1,10.91,2.73c6,2,10.12.38,6.14.1,1.55-.28-9.3-3.4-6.2-2.83s12.4,3,16.38,5.38,5.54,1.56,8,1.27.22-4.1,6-4.95,12.18-1.13,9.3-.43a48.35,48.35,0,0,0-7.08,2.7,17.59,17.59,0,0,0,4,.56c2.66.14,6.86-3.39,6.86-3.39s2.71,3.92,2,4.38c-2.88,0-6.43,2-6.43,2S199.05,266.72,196.61,266.86Z"/>
            </g>
            <path class="cls-42" d="M231.31,303c.6.24.69.24.44.08C230.64,302.66,230.22,302.51,231.31,303Z"/>
            <path class="cls-43" d="M490.05,255.54c-3.76-.09-6.09-.45-4.79-1.53,4.29-3.56-20.15-.87-33.24-.87s-35.77,7.59-35.86,7.59a40.75,40.75,0,0,1-6.5,1.89c-.46.09-.73,0-1.33-.42-.23-.16-.22,1.44-.84,1.17-.38-.16-1.5-2.3-1.6-2.27-.92.28,1,2.57.16,2.8-.44.12-1.12-1.58-1.5-1.49-.65.16-.94,2.09-1.38,2.15s-1.52-1.45-1.51-1.6c.15-2-.48,1.66-.81,1.62-.67-.09-1.36.18-1.8,0s-.64-.81-.86-1-.34-.25-.34-.25-.94,1.48-1.63,1.48a1.81,1.81,0,0,1-2.28-1.42c-1.14,0-1.1,1.55-2.46,1.62s-4.11-1.33-5.44-1.2c-.33,0,1.76,1.64,1.44,1.67-.81-.22-4.85-2-5.34-1.32,1.13.27,2.72,2.21,1.16,2.13-.74.3-3.95-1.36-4.57-1.82-.25,0-.63,1.49-.86,1.51-.68.05-1.11-1.34-1.54-1.3l-.92.09c-.18,0,1.53,1.85,1.53,2.18-.16.34-2.21-.86-2.69-.36-.25.24,1.08,1.15-.88.75-.25-.05,1.14,1.29.58,1.53-.33.14-2.74-.91-2.76-.64,0,.42,1.67,1.4,1.5,1.49-.33.16-1.53-.51-2.08-.43s-.19.91-.54,1-1-1.17-1.59-1.06-1.7,1.25-2.51,1.16-1.41-1.41-2.37-1.58-.65,1.39-1.85,1.37a5.34,5.34,0,0,1-3.26-1.32c-.15-.21-.15,1-.09,1.17.68,2.11-1.62-1.7-1.89-1.68-.46,0,.45,2,0,2-3.7.34-7-1.17-7.78-.75-.57.28,6.53,1.56,6.76,1.84.12.47-5.19-.11-6.29-.41.73.39,1.49.88,1.94,1.06s2.5.89.72.71a22.15,22.15,0,0,1-4.7-.64c-.26.28,1.73,1,2,1.39s-1.22.51-1.41.7c1,1.95-.48.78-2.49-.17-.18.44-1,.43-2.79-.21-.36.16,1.35.88,1.53,1.23s-.62,1.13-.61,1.32-.79-.6-1.67-.9-1.15-.33-1.13-.21.32.39.54.69,1.71,1.89,1.44,2.13-2.33-.87-3.8-.93,2.31,1.27,2.3,1.57a1.29,1.29,0,0,1-1.18.6,11.7,11.7,0,0,1-2.08-.67c1.1.78,1.17,2.05-.44,1.42a17.85,17.85,0,0,1-1.42-1.81c-1.31-1.82.11,1.87-.48,1.72-.94-.25-1.21-1.54-1.76-1.39s-3.63-.07-4.21,0c-.32.05-6-1.72-6.37-1.87-.65-.32-.85,1.88-1.09,2-1.05.51.3,3.26-3.35,1.28-5.32-2.88,1.77,3.12-1.78,1.68s2.36,2.64-2.95,0c-.78-.39-.89,1.28-1.43,1.15-.89-.22-2-2.06-2.41-1.83-1.08.61-.92,2.27-2.06,1.88-3.55-1.2,0,.72-3.55,0a2,2,0,0,0-1.68.58c-.48.38-.87.79-1.23.78-1.21,0-1.81-1.6-1.81-1.6a5.22,5.22,0,0,1-1.82,1.54c-.65.19-1-.69-1.83-.52s1.69.69-1.45.39c-10-1,1,4.59,1,4.59s-7.67,2.64-13.58,1.44-20.67,0-23.62-.24-9.61,3.27-14.92,2.55c-1.33-.18-2.17-1.67-2.78-1.73s-1.52-1.15-2-.86c-.21.15,1.26,2.34,1.11,2.7-.24.58-2.1-.67-2.67-.84-.73-.22-.33-.77-1.51-1.67s1,2.24,1.15,3.11c.12.54-3.68-2.21-3.46-1.59.35,1.05,2.52,2.77,2,2.41-.27-.2-1.54.11-2.41-.37-.51-.29-.71-1.5-.94-1.51-.82-.07-1.66,1.25-2.11,1.44-1.19.51-1.48-1.66-3.25-1.83-.26,0-.41,2.3-.74,2.27-1.35-.16-2.89.95-2.83,1.37.34,2.07-1.22-1.92-1.59-1.87-1.15.17-.52,1.87-1.95,1.71-.47,0-2.74-1.86-3.29-1.93s-.37,2.74-.93,2.56c-2-.62-3.64-2.11-3.73-1.29,0,.35-1.47,1.89-1.35,2.26.35,1.13,2.68,1,2.68.06,0-.59,2.38.93,4,1.31.88.21,1-.84,1.85-.67,2.58.52,5.44,2,4.22,1.28-2-1.19,7.46,3.4,8.71,4.17,2.48.86,8.42,2.9,8.42,2.07,0-1.2,10.63,4.56,8.27,1.68s8.85,4.08,8.27.72,13,5.28,11.81,3.6,15.94,3.6,15.94,3.6,89.18-13.2,93.32-13.67c.43-.06,2.71,0,6.13.07s8.24-.41,13,.24c4.22.58,5,3.73,15.55,0,1.94-.69,5.08-.12,7.42-.23s3,1.45,4.9,1.25c.83-.08,3.21-1.87,4-2l2.31-.29c1.48-.2,2.89-.42,4.22-.64,2.29-.39,5.4.69,7.23.25s2.39-2.37,3.8-2.81a41.93,41.93,0,0,0,6.36-2.47,13.64,13.64,0,0,0,1.88-1.09h13.59s11.22,1,7.67-1,4.14,1.68,0-1.2,7.68,2.15,10-1.92,4.14,2.4,4.14-.48c0-.85.51-1.05,1.25-1C490.87,277,490.45,266.28,490.05,255.54Z"/>
            <path class="cls-44" d="M345.82,291.82c-15.59,2.32-66.42-5.77-73.48-4.11s-8.9,11.84-16.51,12.12-10.3-3.8-10.3-3.8-10.31,2.25-9.26,4.31-3.12,4.33,1.66,4.86,7.64.42,11.58,3.09,1.88-.42,7.16.44c3.92.64,8.87,4.52,11.25,5.12.83.2-.1-1.38.9-1.14s.71-1.4,1.29-1.66-.32,2.42.31,2c.35-.22,2.09-3.53,2.6-3.7.85-.27.16,4.24,3.66-.3,1.3.1,3.1,5.68,4.49.2.26,5.31,2,.05,3,.07.22,4.61,5.15-1.13,5,.11-.47,5.3,2.62.08,3.86.15.22,4.45,2.11.13,3.07.23,1.3.13.38,5.38,3.43.51.67.16-.6,4.78,4.22,2a7.72,7.72,0,0,0,1.87.74c3,0,3,0,3.91-2.71,1.88.55.08,5.67,6.81,1.19.24,4.76,5.65.47,5.65.47s2.71,3.79,4.2-.68c2.84-.41,5.42,4.75,7.64-.45,1.62.41,2.27-1.51,4.83-2.8-2.41,5.81,3-1.11,5.46-1.08a18.09,18.09,0,0,1,3.83-4c-1.15,3,1.78,3,2.94,2.12.94-.69,1.69-3,2.65-4.57s2.2-2.49,4.07,0c6.07-2.33-1.47-.82,1.74-3.39,2.43-1.95-5.94.55-1.62-2.91,1.16.78,3,2.17,8.22,3.07.75-.23-5.55-3-4.17-3C360.39,289.93,361.42,289.5,345.82,291.82Z"/>
            <path class="cls-45" d="M3.41,199.45s93.67-23.74,114.7-22.8,11.26,3.63,24.66,1.82c9.34-1.26,38.34-.27,42.09-.23s32.57-7.16,37.56-6.75,26.32,1.94,26.32,1.94,49.68-.63,41.5-.63-5.17.24-20.47,2.3c26.47,0,100.15-1.52,93.53-1.52-7.89,0-78.71,12.1-126,10.1-57.39-2.43-69.06-3.15-89.66,2.28-14.84,3.92-82.51,8.21-89.52,10.92-3.22,1.24,60-10.44,52.59-10.44S61.43,192.3,59,192.3,3.41,199.45,3.41,199.45Z"/>
            <g>
              <path class="cls-46" d="M358,288.9s-7.88-2.36-13.27-6.16-14.17-5.07-16.44-6.23-5.11-5.55-6-6.58-6.53-2.19-9.36-2.48-13.63-.29-13.63-.29-12.2-4-18.72-4-8.52,4.24-11.36,5.26-5.39,10.23-5.39,10.23l2.84,3.8s38.88,10.22,40.58,10.81,23.27,1.26,27.24,1,19-1.26,21-1.12c-2-.14,5.67-1.31,5.67-1.31Z"/>
              <path class="cls-47" d="M346.75,292c-3.4-.43-8.79-6.28-14.19-8.62s-1.42-4.38-5.95-5-4.54-6.14-7.38-7.75-11.92-1.6-15-1.6-9.37,1.16-14.76.14-5.11-5.41-7.66-5.41-10.78,5.12-12.49,6.43-3.68,5.55-4.25,6.72,2.55,5.26,2.55,5.26,29.23,9.06,30.65,9.36,16.46,2.33,16.18,1.46-17.6-6.87-17-9.79,4.82-6.14-.57-6-5.11-1.76-7.38-3.07-6.24-1-7.09-1.9-3.41-2.49-1.14-2.34,19.3,4.09,21.29,4.39,8.23,8.18,11.34,11.54,9.65,3.65,11.64,4.53-9.36,3.5-6.52,4.09,28.94-.73,33.48-1.32,9.08-1.46,9.08-1.46-11.35.73-14.76.29Z"/>
              <path class="cls-48" d="M355.78,291.11s-18.73-10.23-23.84-11.4-6.24.73-3.69,1.9,9.65,6,12.77,7.31,14.76,2.19,14.76,2.19Z"/>
            </g>
            <g>
              <path class="cls-49" d="M322.52,299.24c-3.3-1.25-16.26-11.8-30.16-16.09s-55.83-13.77-64.54-12.52-3.3,12.52,1.17,15.91a32.83,32.83,0,0,0,9.19,4.83s-5.65,5.19-2.12,8.05,8.43,7.12,11,7.48,27.84-.33,33,.21,17.91-1.43,19.08-1.43,14.61-2.15,17.44-2.15,9.18-3,5.89-4.29Z"/>
              <path class="cls-50" d="M311,301.57c-3.77-.18-15.31-12.88-25.91-15.38s-13.19-4.12-12-2.86a34.78,34.78,0,0,0,7.06,5.9c3.07,1.79,6.36,2.5,2.36,2.32s-7.78-5.9-19.08-8.4-24.27-5.19-29.45-6.62-.94-4.29-.94-4.29-5.89-1.26-7.54-.36-1.11,11.85,3.84,14.89a64.13,64.13,0,0,0,8.88,4.6,17.31,17.31,0,0,1,13.66-2.86c8.25,1.61,9.19,4.29,9.19,4.29s-18.14-1.25-20.26,2.51,13.66,9.65,14.61,10.55-20.55-8.95-20-7.22c1.65,5.47,13.19,8.83,14.37,9s17.44,0,24.74,0,20.49-3.22,23.32-3.22,15.79,1.61,19.55-.18a20.43,20.43,0,0,0,5.89-4.12s-8.48,1.62-12.25,1.44Z"/>
              <path class="cls-51" d="M295.66,305.32s-1.41-1.07-17-7.87-21-8.29-26-9-11.88,1.36-11.88,1.36,10.69-7.72,25.37-.57c9.18,4.47,11.07,2.86,12.48,3.75s13.19,5.55,13.19,5.55l-8.48-5.37s6.83,1.43,9.66,3.22a59.6,59.6,0,0,0,12,5.72c4,1.25,13.9.72,13.9.72s-7.77,2.68-13.66,3a36.18,36.18,0,0,1-9.66-.54Z"/>
              <path class="cls-52" d="M289.3,302.19c-.47.18-9.19-.09-17.2.27s-16,2-20.49.18-10.25-4.91-10.25-4.91,6,6,8.84,6.88-6.84-.18-5.42,1.25,13.73,3.69,16.79,3.87,21.84-2.44,23.72-2.44,16.89-2,16.89-2-9-1.7-9.45-1.52Z"/>
            </g>
          </g>
        </g>
      </g>
    </g>
    <path class="cls-53" d="M286.5.22H56.19a56.08,56.08,0,0,0-56,56v230.3A61.49,61.49,0,0,0,61.6,348H286.5a61.48,61.48,0,0,0,61.41-61.42V61.63A61.48,61.48,0,0,0,286.5.22ZM338,286.53A51.5,51.5,0,0,1,286.5,338H61.6a51.49,51.49,0,0,1-51.49-51.5V59.94A49.8,49.8,0,0,1,59.9,10.14H286.5A51.5,51.5,0,0,1,338,61.63Z"/>
  </g>
</svg>
