<svg id="Layer_1" data-name="Layer 1" xmlns="http://www.w3.org/2000/svg" xmlns:xlink="http://www.w3.org/1999/xlink" width="223.54" height="180.65" viewBox="0 0 223.54 180.65">
  <defs>
    <style>
      .cls-1 {
        mask: url(#mask);
        filter: url(#luminosity-noclip-2);
      }

      .cls-2 {
        mix-blend-mode: multiply;
        fill: url(#linear-gradient);
      }

      .cls-3 {
        opacity: 0.5;
      }

      .cls-4 {
        fill: #ff0;
      }

      .cls-5 {
        fill: #f5ba5e;
      }

      .cls-6 {
        fill: #e5894c;
      }

      .cls-7 {
        fill: #af621e;
      }

      .cls-8 {
        fill: #ba522a;
        opacity: 0.78;
      }

      .cls-9 {
        fill: #ad4b1f;
      }

      .cls-10, .cls-21 {
        fill: #fee3c5;
      }

      .cls-11 {
        fill: url(#linear-gradient-2);
      }

      .cls-12 {
        fill: #eaaa63;
        opacity: 0.7;
      }

      .cls-13 {
        fill: #e8a66b;
      }

      .cls-14 {
        fill: #f4c287;
      }

      .cls-15 {
        fill: #f2bb7e;
      }

      .cls-16 {
        mask: url(#mask-2);
      }

      .cls-17 {
        fill: url(#linear-gradient-3);
      }

      .cls-18 {
        fill: #d37039;
      }

      .cls-19 {
        fill: #eaaf75;
      }

      .cls-20 {
        fill: #eaa549;
      }

      .cls-21 {
        opacity: 0.37;
      }

      .cls-22 {
        fill: #c17744;
        opacity: 0.56;
      }

      .cls-23 {
        fill: #c98857;
        opacity: 0.41;
      }

      .cls-24 {
        fill: #ffeddc;
        opacity: 0.72;
      }

      .cls-25 {
        filter: url(#luminosity-noclip);
      }
    </style>
    <filter id="luminosity-noclip" x="42.89" y="-5721.17" width="70.05" height="32766" filterUnits="userSpaceOnUse" color-interpolation-filters="sRGB">
      <feFlood flood-color="#fff" result="bg"/>
      <feBlend in="SourceGraphic" in2="bg"/>
    </filter>
    <mask id="mask" x="42.89" y="-5721.17" width="70.05" height="32766" maskUnits="userSpaceOnUse">
      <g class="cls-25"/>
    </mask>
    <linearGradient id="linear-gradient" x1="-3822.71" y1="1706.82" x2="-3717.79" y2="1681.28" gradientTransform="matrix(0.54, -0.84, 0.84, 0.54, 718.18, -3985.22)" gradientUnits="userSpaceOnUse">
      <stop offset="0.01" stop-color="#fff"/>
      <stop offset="0.52" stop-color="#fff"/>
      <stop offset="1" stop-color="gray"/>
    </linearGradient>
    <linearGradient id="linear-gradient-2" x1="-3819.61" y1="1727.06" x2="-3708.58" y2="1692.77" gradientTransform="matrix(0.54, -0.84, 0.84, 0.54, 718.18, -3985.22)" gradientUnits="userSpaceOnUse">
      <stop offset="0.27" stop-color="#f9bf78"/>
      <stop offset="0.53" stop-color="#f9cd90"/>
      <stop offset="0.94" stop-color="#f9d3a0"/>
    </linearGradient>
    <filter id="luminosity-noclip-2" x="42.89" y="39.71" width="70.05" height="117.99" filterUnits="userSpaceOnUse" color-interpolation-filters="sRGB">
      <feFlood flood-color="#fff" result="bg"/>
      <feBlend in="SourceGraphic" in2="bg"/>
    </filter>
    <mask id="mask-2" x="42.89" y="39.71" width="70.05" height="117.99" maskUnits="userSpaceOnUse">
      <g class="cls-1">
        <path class="cls-2" d="M108.64,48A60.22,60.22,0,0,1,111.79,60c2.65,16.42.51,34.6-4.17,50.37-5.19,17.54-13.21,30.93-1.14,47.28A111.45,111.45,0,0,1,90,156c-3.2-.56-6.09-1.23-8.69-1.93-10.5-2.86-16.14-6.33-16.14-6.33-1.36-.74-2.67-1.52-3.93-2.26-1.66-1-3.25-2-4.76-3.06A81.36,81.36,0,0,1,42.89,131a125.32,125.32,0,0,1,16.59-23.65C70.22,95.11,80.73,84.82,89,70.69c3.23-5.56,5.24-10.08,6.35-16.48.62-3.55-1.79-11.24-1.66-14.5A44.84,44.84,0,0,1,108.64,48Z"/>
      </g>
    </mask>
    <linearGradient id="linear-gradient-3" x1="-3822.71" y1="1706.82" x2="-3717.79" y2="1681.28" gradientTransform="matrix(0.54, -0.84, 0.84, 0.54, 718.18, -3985.22)" gradientUnits="userSpaceOnUse">
      <stop offset="0.01" stop-color="#d9705e"/>
      <stop offset="0.52" stop-color="#f4925d"/>
      <stop offset="1" stop-color="#f4925d"/>
    </linearGradient>
  </defs>
  <g>
    <path class="cls-3" d="M200.48,180.65a40.87,40.87,0,0,1-8.25-.85,43.18,43.18,0,0,1-9.52-3.43l-1.7-.76a55.1,55.1,0,0,0-12.39-3.34,76.25,76.25,0,0,0-12.16-.92l-1.63,0c-1.25,0-2.57.08-4,.17l-1,.08c-1,.08-2.09.18-3.13.3l-.52.06c-.88.1-1.77.22-2.66.34s-2,.29-3,.46a143.46,143.46,0,0,1-24,2.06c-1.28,0-2.54,0-3.77-.05-1.58,0-3.16-.12-4.84-.24s-3.06-.23-4.48-.38l-.4,0c-1.34-.14-2.67-.31-4-.49l-.47-.07c-1.3-.18-2.58-.39-3.82-.61l-.12,0-2.11-.4-.74-.14-2.38-.52-.29-.06c-1.4-.33-2.74-.66-4-1-1-.28-2-.56-2.92-.84l-.15,0-1.48-.46-.17-.06c-.64-.21-1.32-.43-2-.66l-1-.34-1.86-.7-1.35-.53-.18-.07a61.88,61.88,0,0,1-7.35-3.51l-.24-.14c-1.29-.72-2.55-1.44-3.76-2.17l-.3-.17c-1.12-.68-2.12-1.31-3.09-1.94l-.94-.62c-.43-.28-.86-.56-1.28-.85l-1.55-1.08a93.19,93.19,0,0,1-11.28-9.29l-.15-.15c-.82-.8-1.61-1.59-2.36-2.39-10.64-11.22-16.85-24.54-18-38.49a55.94,55.94,0,0,1-.16-6.1v-.12c0-.57,0-1.12.07-1.65l0-.27c0-.48.07-.94.11-1.38l0-.43c0-.35.17-1.6.17-1.6l0-.16L23.53,94l-.47-.52-.37-.42c-.14-.16-.31-.38-.48-.6s-.24-.31-.35-.47l-.3-.43,0-.06a15.1,15.1,0,0,1-1-1.76l0-.06c-.13-.25-.26-.51-.37-.77s-.18-.36-.27-.57-.12-.28-.17-.42-.13-.35-.19-.53a7.66,7.66,0,0,1-.25-.77l.7-.22v-.13l-.73.22c-.09-.27-.17-.55-.24-.83a18.71,18.71,0,0,1-.48-2.56s-.05-.33-.06-.47,0-.49-.05-.72,0-.57,0-.84,0-.48,0-.72l-.06-.08a20.87,20.87,0,0,1-2.34-4.13l-.2-.52c-.22-.57-.4-1.08-.55-1.59l-.13-.5c-.15-.57-.27-1.07-.36-1.57,0-.2-.07-.38-.1-.57-.07-.46-.13-1-.17-1.46,0-.12,0-.28,0-.44,0-.47,0-.94,0-1.41v-.45l-.12-.16a9,9,0,0,1-.53-.79c-.27-.39-.52-.78-.76-1.2-.14-.25-.27-.49-.39-.74l2.26-1.19,0-.13-2.36,1.2c-.24-.47-.46-.93-.67-1.41-.08-.18-.17-.41-.26-.63-.2-.53-.38-1-.53-1.44-.07-.21-.13-.41-.19-.62l-.07-.22c-.1-.35-.21-.7-.29-1s-.14-.54-.2-.82l0-.14c-.07-.3-.12-.52-.16-.73-.08-.39-.14-.77-.2-1.13a19.79,19.79,0,0,1-3.24-11.1c0-.17,0-.36,0-.53s0-.3,0-.47l0-.5c0-.18,0-.34.06-.5s0-.36.08-.57c0,0,.12-.63.15-.79l.16-.69.19-.67.13-.39a10.53,10.53,0,0,1,4.9-5.78,17.91,17.91,0,0,1,2.12-1l.72-.24c.43-.14.86-.27,1.31-.37l.8-.18c.4-.07.79-.14,1.18-.19l.76-.09c.37,0,.79-.06,1.21-.07l.52,0h.3l1.28,0,.57,0,1,.1.55.06,1,.15.41.07,1.24.24.19,0a43.31,43.31,0,0,1,4.88,1.41,22.83,22.83,0,0,1,4.24-.4,23.17,23.17,0,0,1,5.22.6l.27.06.38.1c.29.07.58.15.85.24l.52.15.49.17c.71.25,1.38.51,2,.78l.87-.18.23,0c.51-.08,1-.15,1.49-.2l.21,0c.45,0,1-.07,1.46-.08H51c.45,0,.89,0,1.32,0l.2,0c.41,0,.88.08,1.33.14l.14,0c.49.08,1,.16,1.41.26s1,.25,1.43.38A20.26,20.26,0,0,1,59,37.3l.55-.18c.3-.09.57-.17.84-.23s.61-.15.94-.22l.75-.13c.36,0,.68-.1,1-.13l.69,0,1,0,.63,0a16.25,16.25,0,0,1,2.19.22l.47.09c.33.07.64.14,1,.23.15,0,.39.1.63.18l.65.21.14.06.62.23.54.24,1-.39c2-11.64,11.17-20.55,27.13-26.43A79,79,0,0,1,110.44,7.9c.3-.06.6-.15.9-.23a24.25,24.25,0,0,1,4.58-.89c1.68-.14,3.1-.2,4.46-.2A40.87,40.87,0,0,1,126,7a42.51,42.51,0,0,1,11.48,2.94,90.22,90.22,0,0,1,23,15.09,95.31,95.31,0,0,1,13.8,15c2.14,2.88,4.18,5.9,6.22,9.24a243,243,0,0,0,14.88,22,75.22,75.22,0,0,0,10.36,11.52,10.65,10.65,0,0,1,.91.87c4.48,4.86,5.21,13.75,2.16,26.45a16.89,16.89,0,0,0,2.94,2.23c4.48,2.43,9.82,7.74,10.8,15.17S220.31,142,213,148.84a22,22,0,0,1,6.16,4.24l.18.19a17.41,17.41,0,0,1,1.46,1.73l.33.47a14,14,0,0,1,2.3,6c0,.37.07.74.08,1.12.13,2.87-.59,7.47-5.18,11.89-4.15,4-10.34,6.15-17.87,6.15Z"/>
    <path class="cls-4" d="M193.91,174.07a40.18,40.18,0,0,1-8.26-.85,43.2,43.2,0,0,1-9.52-3.42l-1.69-.77a55.74,55.74,0,0,0-12.4-3.34,76.21,76.21,0,0,0-12.15-.92l-1.64,0c-1.25,0-2.57.08-4,.18l-1,.08c-1.05.08-2.09.17-3.13.29l-.51.07q-1.33.15-2.67.33c-1,.14-2,.29-3,.46a143.49,143.49,0,0,1-24,2.07c-1.28,0-2.53,0-3.77-.06-1.58,0-3.16-.12-4.84-.23s-3.06-.24-4.48-.39l-.39,0c-1.35-.14-2.67-.3-4-.49L92,167c-1.3-.19-2.58-.39-3.81-.61l-.13,0L86,166l-.75-.15-2.38-.51-.29-.07c-1.4-.32-2.73-.66-4-1-1-.28-2-.56-2.92-.84l-.15-.05c-.48-.14-1-.3-1.47-.46l-.18,0-2-.67-1-.34-1.86-.69-1.35-.54-.18-.07A61.06,61.06,0,0,1,60.18,157l-.24-.14c-1.29-.71-2.54-1.44-3.76-2.16l-.29-.17c-1.13-.68-2.12-1.31-3.1-2l-.93-.61-1.29-.86L49,150.06a94.19,94.19,0,0,1-11.28-9.3l-.15-.15c-.82-.8-1.61-1.59-2.36-2.39C24.6,127,18.38,113.68,17.27,99.73a55.87,55.87,0,0,1-.16-6.1v-.12c0-.56,0-1.11.08-1.65v-.27c0-.48.07-.93.11-1.38l0-.43c0-.35.18-1.6.18-1.6l0-.16c-.12-.12-.53-.51-.6-.59l-.47-.51-.37-.43c-.14-.16-.31-.37-.48-.6s-.24-.31-.35-.47-.2-.28-.29-.43l0-.06a13.2,13.2,0,0,1-1-1.76l0,0c-.13-.26-.25-.52-.37-.77s-.18-.37-.27-.58-.12-.28-.17-.42-.13-.35-.19-.53-.17-.51-.25-.76l.7-.23V79.7l-.74.23q-.13-.42-.24-.84a20.35,20.35,0,0,1-.48-2.56l-.06-.47c0-.25,0-.48-.05-.72s0-.57,0-.84,0-.47,0-.71l-.07-.09a20.28,20.28,0,0,1-2.33-4.13c-.06-.14-.15-.36-.21-.52-.22-.57-.39-1.08-.54-1.59L8.42,67c-.15-.56-.26-1.07-.36-1.57L8,64.82c-.08-.46-.14-1-.18-1.46,0-.12,0-.28,0-.44,0-.47,0-.94,0-1.4v-.45l-.12-.17c-.15-.2-.34-.49-.53-.79s-.52-.78-.75-1.19-.28-.5-.4-.75L8.17,57l0-.13-2.35,1.2c-.24-.46-.47-.93-.68-1.4-.08-.19-.17-.41-.25-.64-.21-.52-.38-1-.54-1.44-.06-.2-.13-.41-.19-.62l-.07-.22c-.1-.35-.2-.7-.29-1s-.13-.54-.19-.82l0-.13L3.44,51c-.07-.39-.14-.77-.2-1.12A19.84,19.84,0,0,1,0,38.77c0-.17,0-.35,0-.53a4.23,4.23,0,0,1,0-.47l0-.5c0-.18,0-.34.05-.5l.08-.56s.12-.64.15-.79.16-.7.16-.7l.2-.67c0-.12.08-.28.12-.39a10.51,10.51,0,0,1,4.9-5.77,15.18,15.18,0,0,1,2.12-1l.72-.25c.43-.14.87-.26,1.31-.37l.81-.18,1.18-.19.76-.09c.36,0,.78-.06,1.2-.07l.53,0h.29l1.28,0,.57,0,1.05.1.55.07,1,.14.41.07,1.24.24.19.05a40.66,40.66,0,0,1,4.88,1.4,22.86,22.86,0,0,1,9.46.2l.27.06.38.1.86.24.51.16.49.16c.72.25,1.38.51,2,.79l.86-.18.24,0c.5-.09,1-.16,1.49-.21l.21,0c.44,0,.95-.07,1.45-.08h.36c.45,0,.89,0,1.32.05h.21c.4,0,.87.08,1.33.15l.14,0c.48.07,1,.16,1.4.26s1,.24,1.43.37a20.26,20.26,0,0,1,2.14.78l.56-.18.83-.23.94-.22.75-.13c.36-.05.68-.1,1-.13l.69,0,1,0,.63,0A16.1,16.1,0,0,1,61,30l.48.08,1,.23.63.18.65.22.15.05c.2.08.41.15.61.24l.54.23,1-.39C68,19.2,77.14,10.29,93.11,4.41a77.48,77.48,0,0,1,10.75-3.08l.9-.24A24.54,24.54,0,0,1,109.35.2C111,.06,112.44,0,113.8,0a41,41,0,0,1,5.64.39,42.21,42.21,0,0,1,11.47,2.95,89.73,89.73,0,0,1,23,15.08,95.27,95.27,0,0,1,13.8,15c2.15,2.88,4.18,5.9,6.22,9.24a246.79,246.79,0,0,0,14.88,22,75.7,75.7,0,0,0,10.37,11.52,12.19,12.19,0,0,1,.9.86c4.48,4.86,5.21,13.76,2.17,26.45a16.22,16.22,0,0,0,2.93,2.23c4.48,2.43,9.82,7.74,10.8,15.17s-2.23,14.49-9.52,21.34a21.8,21.8,0,0,1,6.16,4.23l.18.2a17.33,17.33,0,0,1,1.46,1.72l.34.47a14.12,14.12,0,0,1,2.29,6A10.54,10.54,0,0,1,217,156c.13,2.88-.58,7.47-5.18,11.89-4.15,4-10.33,6.15-17.86,6.15Z"/>
    <g>
      <path class="cls-5" d="M76,39.91a4.73,4.73,0,0,1-.33-2.29c.21-3.37,2.31-7.18,4.08-10,2.61-4.14,6.59-8.24,11.29-9.67,5.13-1.56,10.44-2.68,15.49-4.28,6-1.9,12.23-2.38,17.89-.31a39.57,39.57,0,0,1,10.22,5.15c2.41,1.88,4.93,5.39,8.05,5.91-.18.25,6.07,5.38,7.22,7a62.54,62.54,0,0,0,5.54,7.22c2.38,2.58,5.2,4.88,6.76,8.23,1.79,3.81,3.22,7.75,5.57,11.38,3.24,5,6,10,9.5,14.86,3.92,5.36,8.17,10.51,12,16,3.4,4.86-1.61,10-.11,15.89a27.51,27.51,0,0,0,3,6.43c1.81,3.05,5.63,4.14,7.26,7.06,4.5,8-8.24,17.75-13.88,20.9-3.61,2-9.91,3.79-12.59,6.68-10.12-5.5-16.93-15.87-24.23-24.34-6.82-7.91-12.07-17.15-16.66-26.49-4-8.17-8.87-15.76-13.09-23.84-5.84-11.18-17-23.15-29.48-26.82-2.58-.76-5.22-1.25-7.83-1.9S76.88,41.81,76,39.91Z"/>
      <path class="cls-6" d="M79.82,41c3.1-10.18,12.71-15.27,22.74-16.31,14.85-1.54,27.88,8,37.81,18,10.5,10.54,21.45,23.61,28.48,36.66,7.33,13.58,15.14,28.16,10.27,44.05-1.63,5.3-5.17,10.77-8.55,15.17-4.57,6-6,10.48-13.79,6.45-5.52-2.85-9.54-7.33-13.68-11.83-5.47-6-11-11.71-15.73-18.3-5.34-7.41-10.45-15.06-16.19-22.18-5.32-6.59-10.73-12.6-15.09-19.9S87.38,59.28,84.74,51.28a46.12,46.12,0,0,0-2-5.64C82.27,44.69,80.55,41.3,79.82,41Z"/>
      <path class="cls-7" d="M83.94,41a2.87,2.87,0,0,1,1.14-1.87,18.85,18.85,0,0,1,6.42-3.64c3.33-1.17,7.69-2.49,11.25-1.83,8.71,1.63,16.28,6.49,22.86,12.3,9.5,8.39,14.94,20.47,20.84,31.35,3.29,6.06,7.48,11.24,11.64,16.76,3.51,4.67,9,9,11.59,14.17,4.83,9.75,1.68,21.38-4.37,29.69-8.43-2.6-14.9-9-20.2-15.82-14-18-23.34-39-35.85-58-5.17-7.82-11.68-15.35-20-20C87.44,43.16,83.93,42.65,83.94,41Z"/>
      <g>
        <path class="cls-8" d="M112.08,48.48A58.09,58.09,0,0,1,111,42.62c-.57-2.26-.21-4.41-.29-6.75-.15-4.13-.73-9.18,1.08-13,1.15-2.44,5.55-7.32,6.52-2,.34,1.84-1,4.6-1.47,6.37-.71,2.73-.61,5.31-.76,8.1-.2,3.66-.51,7.25-.49,10.88,0,1.18,1.21,5.25-.63,5.28C113.45,51.49,112.61,50.15,112.08,48.48Z"/>
        <path class="cls-8" d="M119.93,57.47c-.21-4.49,3.42-10.22,5.59-14.06,2.28-4,4.72-9.24,7.92-12.69C135,29,140,28.09,141.36,31c1.1,2.37-5.58,9.38-7,11.37-2.3,3.23-4.57,6.55-6.87,9.77-.94,1.34-1.93,2.65-2.76,4.06-.47.8-1,3-1.82,3.47C121.86,60.26,120,58.66,119.93,57.47Z"/>
        <path class="cls-8" d="M129,68.94c1.25-1.54,3.59-2.3,5.25-3.36,2.54-1.62,5-3.23,7.61-4.7a35.81,35.81,0,0,1,17.7-4.55c1.7,0,3.35-.33,4.19,1.24s-.47,4.07-1.84,5c-1.86,1.27-4.81,1.2-6.94,1.74-3.82,1-8,1.45-11.71,2.72C142.12,67.42,128.2,74.27,129,68.94Z"/>
        <path class="cls-8" d="M145.2,94.33c3.72,4.13,9.61,4.23,14.76,4s9.73.41,14.58-1.37c3.28-1.21,8.89-4.68,5-8.37-3.42-3.21-5.07-.14-8,1.16a33.49,33.49,0,0,1-10.2,2.53c-3.55.41-7.32,0-10.83-.24-1.65-.1-5.58-1-6.31.86A6.58,6.58,0,0,0,145.2,94.33Z"/>
      </g>
      <path class="cls-9" d="M97.93,42.34c16.1,1.3,28.37,17.92,35.48,30.48,6.25,11,16,19.59,22.26,30.59,3.17,5.53,7.88,21.23-4.08,19.25-5-.83-9.11-5.64-12.61-9-9.35-8.85-15.56-19.1-23.75-28.83a78.75,78.75,0,0,1-13.31-21.42c-1.81-4.47-8.28-16.54-4-21C98.55,42.91,98.57,42.52,97.93,42.34Z"/>
      <path class="cls-10" d="M159.25,39.74c2,2.7,3.89,5.52,5.68,8.45a257.39,257.39,0,0,0,15.52,22.92,85.39,85.39,0,0,0,11.87,13.11s3.24,3.51-.85,18.91c0,0-1.95,5.42,8.47,11.77,0,0,13.62,6.87-1.38,20.31a32.45,32.45,0,0,1-11.38,6.47,74.71,74.71,0,0,1-11.45,2.7l-.49-.45c3.33-2.51,6.66-5.07,9.83-7.75,3.92-3.32,9.37-7.52,11.14-12.62,1.42-4.12-1.38-6.52-3.92-9.58-3.69-4.42-6.06-7.49-5.36-13.54.36-3.22,2.51-7,1.08-10.18-1.15-2.49-4.61-4.26-6.61-6.12-9.28-8.63-13.51-22.75-19.45-33.81-8-15-23.11-28.33-38.9-34.91-10.07-4.21-22,.84-31.41,5C87.82,22.1,83.38,23,81.11,26.92c-2.16,3.69-2,8.14-4,12l-.81-.1c-1.2-.15-.14-5.2,0-5.9C78,22.82,88.08,17.48,96.75,14.29a66.32,66.32,0,0,1,9.3-2.67,33.28,33.28,0,0,1,4.16-.93,33.7,33.7,0,0,1,7.77.12A32.47,32.47,0,0,1,126.67,13,80.55,80.55,0,0,1,147,26.34,85.87,85.87,0,0,1,159.25,39.74Z"/>
      <path class="cls-11" d="M108.64,48a62.66,62.66,0,0,1,13.19,14.76c14.67,17.37,29.88,48.43,29.88,48.43a64.15,64.15,0,0,0,3.83,7.12c14.54,23.49,39.64,31.25,39.64,31.25a32.07,32.07,0,0,1,6.94,2.35,9.44,9.44,0,0,1,3.72,2.91h0a3.34,3.34,0,0,1,.57,1.48h0c.16,1.21-.38,2.56-1.95,4.06-3.85,3.73-11.76,3.62-16.63,2.59-3.4-.72-6.05-2.16-9.15-3.53a66.35,66.35,0,0,0-14.94-4.09,88.5,88.5,0,0,0-15.68-1,95.12,95.12,0,0,0-9.57.66,0,0,0,0,0,0,0c-2.08.23-4.18.52-6.28.88a130.76,130.76,0,0,1-25.71,1.86c-1,0-2-.08-2.93-.13-24.6-1.33-38.38-9.81-38.38-9.81A90.58,90.58,0,0,1,42.89,131C32,119.47,28.47,107.84,27.76,98.9A40.32,40.32,0,0,1,29.4,83L29,82.83c-.48-.17-.93-.35-1.35-.53C20.21,79,22.46,71.22,22.8,70.19a.3.3,0,0,1,0-.12l-.66-.5C15.77,64.46,19.09,57,19.09,57A.37.37,0,0,1,19,57,6.23,6.23,0,0,1,16.34,55c-2.3-2.77-2.82-7.21-2.93-8.67,0-.32,0-.49,0-.49-4.08-4.61-2.58-8.74-2.58-8.74,4.24-2.32,11.92.77,14,1.67l.51.24a12,12,0,0,1,7.79-.65,15.6,15.6,0,0,1,5.24,2.38,3,3,0,0,1,.51.38c5-2.75,8.94-1.28,11.1.14a9.47,9.47,0,0,1,1.9,1.61l.26-.18c5.43-4.12,8.9-2.13,10.49-.56a6.4,6.4,0,0,1,1.06,1.32l.18-.1a44.14,44.14,0,0,1,12.52-4.6,35.26,35.26,0,0,1,17.33.93A44.84,44.84,0,0,1,108.64,48Z"/>
      <path class="cls-12" d="M195.18,149.52c2.95.66,8.79,2.37,10.66,5.26h0a3.34,3.34,0,0,1,.57,1.48h0c.16,1.21-.38,2.56-1.95,4.06-3.85,3.73-11.76,3.62-16.63,2.59-3.4-.72-6.05-2.16-9.15-3.53a66.35,66.35,0,0,0-14.94-4.09,88.5,88.5,0,0,0-15.68-1,103,103,0,0,0-15.88,1.56,130.76,130.76,0,0,1-25.71,1.86c-1,0-2-.08-2.93-.13,3.52-.78,7.11-1.87,8.29-2.14,5.08-1.19,10.32-1.42,15.28-2.67,8.57-2.17,16.46-10,20.18-17.83a27.49,27.49,0,0,0,2.38-7c.46-2.5-.21-6.26,1-8.43,1.14-2,2.94-2,4.83-1.23C170.08,141.76,195.18,149.52,195.18,149.52Z"/>
      <path class="cls-13" d="M24.76,38.8a21.66,21.66,0,0,1-11.35,7.56c0-.32,0-.49,0-.49a14.3,14.3,0,0,1-1.18-1.57c-2.58-3.93-1.4-7.17-1.4-7.17,3.43-1.88,9.13-.21,12.26,1C23.78,38.38,24.38,38.63,24.76,38.8Z"/>
      <path class="cls-5" d="M76.32,38.78c1,18.62-13.38,39.67-13.38,39.67-17.79,19.69-30.18,21-35.18,20.45a44.56,44.56,0,0,1,.39-10.67A30.68,30.68,0,0,1,29.4,83L29,82.83c-.48-.17-.93-.35-1.35-.53,22-12.51,31.83-32.62,34.88-40.14.09.08.17.18.26.26s.25.28.35.41a7.49,7.49,0,0,1,.45.65l.18-.1c.6-.31,1.21-.63,1.8-.92A42.81,42.81,0,0,1,76.32,38.78Z"/>
      <path class="cls-14" d="M62,41.64a7.12,7.12,0,0,1,1.64,1.84l.18-.1A62.57,62.57,0,0,1,41.09,75.75,62.31,62.31,0,0,1,29,82.83c-.48-.17-.93-.35-1.35-.53a8.29,8.29,0,0,1-.79-.39,6.31,6.31,0,0,1-.71-.42,5.37,5.37,0,0,1-.87-.66.56.56,0,0,1-.22-.18,5.07,5.07,0,0,1-.58-.55,5.88,5.88,0,0,1-.81-1,3.25,3.25,0,0,1-.41-.67.75.75,0,0,1-.13-.27,4.53,4.53,0,0,1-.28-.59,8.37,8.37,0,0,1-.5-1.85l-.11-.7a10.77,10.77,0,0,1,0-1.79,5.82,5.82,0,0,1,.07-.73A9.52,9.52,0,0,1,22.58,71l.09-.36c.06-.2.09-.37.13-.46a.3.3,0,0,1,0-.12l-.66-.5c3-2,5.69-4,8.14-5.95,11-8.78,16.7-16.83,19.6-22.33a9.47,9.47,0,0,1,1.9,1.61l.26-.18C56.9,39.05,60.19,40.22,62,41.64Z"/>
      <path class="cls-15" d="M50.33,41.59a8.27,8.27,0,0,1,1.48,1.31l.26-.18C45.78,59.12,30.48,67.1,22.8,70.19a.3.3,0,0,1,0-.12,11.91,11.91,0,0,1-2.71-2.61c-3.54-4.83-1-10.42-1-10.42A.37.37,0,0,1,19,57,6.23,6.23,0,0,1,16.34,55c3.55-3.83,7.46-8.27,7.87-9s4.94-4.46,8.85-7.69a15.6,15.6,0,0,1,5.24,2.38,3,3,0,0,1,.51.38C44.19,38.22,48.27,40.08,50.33,41.59Z"/>
      <g class="cls-16">
        <path class="cls-17" d="M108.64,48A60.22,60.22,0,0,1,111.79,60c2.65,16.42.51,34.6-4.17,50.37-5.19,17.54-13.21,30.93-1.14,47.28A111.45,111.45,0,0,1,90,156c-3.2-.56-6.09-1.23-8.69-1.93-10.5-2.86-16.14-6.33-16.14-6.33-1.36-.74-2.67-1.52-3.93-2.26-1.66-1-3.25-2-4.76-3.06A81.36,81.36,0,0,1,42.89,131a125.32,125.32,0,0,1,16.59-23.65C70.22,95.11,80.73,84.82,89,70.69c3.23-5.56,5.24-10.08,6.35-16.48.62-3.55-1.79-11.24-1.66-14.5A44.84,44.84,0,0,1,108.64,48Z"/>
      </g>
      <path class="cls-18" d="M103.85,91.72c-.86,7.33-4.85,14.76-8,21.32-5.21,10.88-6.67,23.15-6.64,35.16,0,2.2.55,5,.79,7.81-3.2-.56-6.09-1.23-8.69-1.93-10.5-2.86-16.14-6.33-16.14-6.33-1.36-.74-2.67-1.52-3.93-2.26-1.66-1-3.25-2-4.76-3.06-.07-5.56,8.37-16.52,10.42-19.76,6.64-10.47,14.78-19.44,22-29.51a68,68,0,0,0,5-8.88c1.4-2.75,3.93-9.87,7.13-4.64A20.51,20.51,0,0,1,103.85,91.72Z"/>
      <path class="cls-19" d="M38.3,40.77C30.77,52.14,23.15,55.8,19,57a6.48,6.48,0,0,1-2.86-2.27c-2.08-2.79-2.58-6.93-2.68-8.34A21.66,21.66,0,0,0,24.76,38.8l.51.24a12.76,12.76,0,0,1,11,.55A14.62,14.62,0,0,1,38.3,40.77Z"/>
      <path class="cls-20" d="M65.6,42.46s1.21,9.12-13.29,29.1c0,0-9.21,12.28-24.16,16.67A30.68,30.68,0,0,1,29.4,83L29,82.83A63.2,63.2,0,0,0,63.8,43.38C64.4,43.07,65,42.75,65.6,42.46Z"/>
      <path class="cls-18" d="M63.62,43.48l.18-.1A63.2,63.2,0,0,1,29,82.83a10.13,10.13,0,0,1-5.2-3.54C28.35,78.24,51,71.56,62,41.64A7.12,7.12,0,0,1,63.62,43.48Z"/>
      <path class="cls-18" d="M51.81,42.9l.26-.18C45.78,59.12,30.48,67.1,22.8,70.19a.3.3,0,0,1,0-.12,11.91,11.91,0,0,1-2.71-2.61c4.08-1.22,18.94-6.81,30.21-25.87A8.27,8.27,0,0,1,51.81,42.9Z"/>
      <path class="cls-7" d="M38.3,40.77C30.77,52.14,23.15,55.8,19,57a6.48,6.48,0,0,1-2.86-2.27A33.64,33.64,0,0,0,36.31,39.59,14.62,14.62,0,0,1,38.3,40.77Z"/>
      <path class="cls-7" d="M24.76,38.8a21.66,21.66,0,0,1-11.35,7.56c0-.32,0-.49,0-.49a14.3,14.3,0,0,1-1.18-1.57,32.29,32.29,0,0,0,10.86-6.2C23.78,38.38,24.38,38.63,24.76,38.8Z"/>
      <path class="cls-21" d="M108.64,48a62.66,62.66,0,0,1,13.19,14.76c14.67,17.37,29.88,48.43,29.88,48.43,13.38,29.07,43.47,38.37,43.47,38.37,2.95.66,8.79,2.37,10.66,5.26a38.66,38.66,0,0,0-5.16-2.22c-8-1-17.33-5.4-17.33-5.4-9.37-3.72-24.48-17-24.48-17-6.8-5.58-14.3-20.05-14.3-20.05-6.43-12.22-22-34.19-22-34.19A79.87,79.87,0,0,0,95.31,51.08c-14.22-8.2-34-.87-34-.87-4.64-4.8-11.75-2.15-11.75-2.15C45.69,41.76,35,45.24,35,45.24c-5.2-5.84-12.5-4-12.5-4-4.76-4-11.74-4.16-11.74-4.16,4.24-2.32,11.92.77,14,1.67l.51.24a12,12,0,0,1,7.79-.65,15.6,15.6,0,0,1,5.24,2.38,3,3,0,0,1,.51.38c5-2.75,8.94-1.28,11.1.14a9.47,9.47,0,0,1,1.9,1.61l.26-.18c5.43-4.12,8.9-2.13,10.49-.56a6.4,6.4,0,0,1,1.06,1.32l.18-.1a44.14,44.14,0,0,1,12.52-4.6,35.26,35.26,0,0,1,17.33.93A44.84,44.84,0,0,1,108.64,48Z"/>
      <path class="cls-5" d="M92,107.52c-7.44,15-10.49,30.24-10.72,46.56-10.5-2.86-16.14-6.33-16.14-6.33-1.36-.74-2.67-1.52-3.93-2.26.72-5.66,4.41-12.7,6.5-16.29,6.55-11.21,14.82-21,21.81-31.81,1.64-2.53,3.53-4.88,5.11-7.44a24.21,24.21,0,0,0,2-3.92c.45-1.16.35-4.44,2.1-3.33a3.43,3.43,0,0,1,1.12,2c.5,2-.06,4.35-.6,6.32a73,73,0,0,1-6,13.92C92.91,105.82,92.46,106.66,92,107.52Z"/>
      <path class="cls-22" d="M206.42,156.28c.16,1.21-.38,2.56-1.95,4.06-3.85,3.73-11.76,3.62-16.63,2.59-3.4-.72-6.05-2.16-9.15-3.53a66.35,66.35,0,0,0-14.94-4.09,88.5,88.5,0,0,0-15.68-1,103,103,0,0,0-15.88,1.56,130.76,130.76,0,0,1-25.71,1.86c-26.44-.78-41.31-9.94-41.31-9.94A90.58,90.58,0,0,1,42.89,131C32,119.47,28.47,107.84,27.76,98.9A40.32,40.32,0,0,1,29.4,83L29,82.83a62.31,62.31,0,0,0,12.06-7.08c.12.07-.11,4.38-.1,4.66a54.45,54.45,0,0,0,1.74,11.9,51.81,51.81,0,0,0,6.64,15.28c14.1,21.84,41.52,33.69,66.13,38.23,4.86.89,9.06,1.86,14,1.64,6.4-.28,12.85-.44,19.25-.11,12.54.66,25.14,3.31,36.07,9.68C191.32,160.82,201,163.18,206.42,156.28Z"/>
      <path class="cls-23" d="M17.66,44.67s-.75,5.66,7.65,9.43a10.63,10.63,0,0,0,5,9.52A13.76,13.76,0,0,0,33,65s-1.25,7.22,8.09,10.78A62.31,62.31,0,0,1,29,82.83c-.48-.17-.93-.35-1.35-.53a8.29,8.29,0,0,1-.79-.39,6.31,6.31,0,0,1-.71-.42,5.37,5.37,0,0,1-.87-.66.56.56,0,0,1-.22-.18,5.07,5.07,0,0,1-.58-.55,5.88,5.88,0,0,1-.81-1,3.25,3.25,0,0,1-.41-.67.75.75,0,0,1-.13-.27,4.53,4.53,0,0,1-.28-.59,8.37,8.37,0,0,1-.5-1.85l-.11-.7a10.77,10.77,0,0,1,0-1.79,5.82,5.82,0,0,1,.07-.73A9.52,9.52,0,0,1,22.58,71l.09-.36c.06-.2.09-.37.13-.46a.3.3,0,0,1,0-.12l-.66-.5C15.77,64.46,19.09,57,19.09,57A.37.37,0,0,1,19,57,6.23,6.23,0,0,1,16.34,55c-2.3-2.77-2.82-7.21-2.93-8.67,0-.32,0-.49,0-.49-4.08-4.61-2.58-8.74-2.58-8.74S13.11,43.32,17.66,44.67Z"/>
      <path class="cls-24" d="M66.41,56.81a3.78,3.78,0,0,1-.07-.61c-.11-2.57,2.09-5.32,3.49-7.28,2.93-4.09,7.28-8.16,12.66-8.23,5.17-.08,8.09,1.26,12.71,3.11,1.63.66,9,3.31,6.18,6.12-1.3,1.3-4.58-.15-6.06-.62-3.24-1-6.55-1.78-10-.78-4.4,1.26-7.77,4.81-11.49,7.47C71.87,57.39,67.07,60,66.41,56.81Z"/>
      <path class="cls-7" d="M205.84,154.78h0a3.34,3.34,0,0,1,.57,1.48h0c.16,1.21-.38,2.56-1.95,4.06-3.85,3.73-11.76,3.62-16.63,2.59-3.4-.72-6.05-2.16-9.15-3.53a66.35,66.35,0,0,0-14.94-4.09,88.5,88.5,0,0,0-15.68-1,95.12,95.12,0,0,0-9.57.66,31.48,31.48,0,0,0,3.53-1.82c6.46-3.82,12.21-2.25,19.22-2.34,6.55-.12,13,2,19.09,4.09,4.75,1.65,10.47,2.69,15.41.94,2.33-.82,4.32-2.67,6.37-3.93A9.44,9.44,0,0,1,205.84,154.78Z"/>
      <path class="cls-24" d="M49.46,51.74c-.31-1.06,2-4,2.4-4.73.9-1.84,1.94-3.62,3.92-4.45,1-.43,4,0,3.45,1.79-.26.88-1.49.78-2.16,1.18a12.58,12.58,0,0,0-2.81,3.09c-.94,1.13-2.15,3.21-3.74,3.47C49.86,52.2,49.55,52.05,49.46,51.74Z"/>
      <path class="cls-24" d="M36.07,46.93a12.37,12.37,0,0,1,2.77-3.28,9.06,9.06,0,0,1,3.88-2.41c1.21-.27,3.61.25,2.82,2s-3.79,1.11-5,2c-.88.66-2.55,3.27-3.81,3.11C36,48.26,35.83,47.49,36.07,46.93Z"/>
      <path class="cls-24" d="M24.47,43.38a1.08,1.08,0,0,1-.09-.41c0-.66,1.37-2,1.89-2.41a5.2,5.2,0,0,1,3.84-1.16c1.34.31,1.35,1.57.36,2.29S28,42.5,26.89,43C26.26,43.27,24.83,44.15,24.47,43.38Z"/>
      <path class="cls-24" d="M15.78,38.82c1,.21,3,.06,2.14-1.31C17.38,36.7,16,36.7,15.2,37,13.65,37.68,14.5,38.56,15.78,38.82Z"/>
    </g>
  </g>
</svg>
