<svg id="Layer_1" data-name="Layer 1" xmlns="http://www.w3.org/2000/svg" xmlns:xlink="http://www.w3.org/1999/xlink" width="167.76" height="339.58" viewBox="0 0 167.76 339.58">
  <defs>
    <style>
      .cls-1 {
        opacity: 0.5;
      }

      .cls-2 {
        fill: #ff0;
      }

      .cls-10, .cls-11, .cls-12, .cls-13, .cls-14, .cls-15, .cls-17, .cls-2, .cls-26, .cls-27, .cls-29, .cls-3, .cls-30, .cls-31, .cls-32, .cls-33, .cls-34, .cls-35, .cls-5, .cls-7, .cls-8, .cls-9 {
        isolation: isolate;
      }

      .cls-3 {
        fill: url(#linear-gradient);
      }

      .cls-4 {
        fill: url(#_5);
      }

      .cls-15, .cls-5 {
        opacity: 0.15;
      }

      .cls-5 {
        fill: url(#linear-gradient-2);
      }

      .cls-6 {
        fill: url(#_144);
      }

      .cls-10, .cls-12, .cls-13, .cls-14, .cls-17, .cls-27, .cls-30, .cls-32, .cls-7 {
        opacity: 0.2;
      }

      .cls-7 {
        fill: url(#linear-gradient-3);
      }

      .cls-29, .cls-34, .cls-8 {
        opacity: 0.6;
      }

      .cls-8 {
        fill: url(#linear-gradient-4);
      }

      .cls-9 {
        fill: #fff;
        opacity: 0.1;
      }

      .cls-10 {
        fill: url(#linear-gradient-5);
      }

      .cls-11, .cls-26, .cls-31 {
        opacity: 0.4;
      }

      .cls-11 {
        fill: url(#linear-gradient-6);
      }

      .cls-12 {
        fill: url(#linear-gradient-7);
      }

      .cls-13 {
        fill: url(#linear-gradient-8);
      }

      .cls-14 {
        fill: url(#linear-gradient-9);
      }

      .cls-15 {
        fill: url(#linear-gradient-10);
      }

      .cls-16 {
        fill: url(#linear-gradient-11);
      }

      .cls-17 {
        fill: url(#linear-gradient-12);
      }

      .cls-18 {
        fill: #608298;
      }

      .cls-19 {
        fill: #570f17;
      }

      .cls-20 {
        fill: #191919;
      }

      .cls-21 {
        fill: url(#_144-2);
      }

      .cls-22 {
        fill: #9e8e32;
      }

      .cls-23 {
        fill: #f4dd6a;
      }

      .cls-24 {
        fill: url(#_5-2);
      }

      .cls-25 {
        fill: url(#_144-3);
      }

      .cls-26 {
        fill: url(#linear-gradient-13);
      }

      .cls-27 {
        fill: url(#linear-gradient-14);
      }

      .cls-28 {
        fill: url(#linear-gradient-15);
      }

      .cls-29 {
        fill: url(#linear-gradient-16);
      }

      .cls-30 {
        fill: url(#linear-gradient-17);
      }

      .cls-31 {
        fill: url(#linear-gradient-18);
      }

      .cls-32 {
        fill: url(#linear-gradient-19);
      }

      .cls-33, .cls-35 {
        opacity: 0.3;
      }

      .cls-33 {
        fill: url(#linear-gradient-20);
      }

      .cls-34 {
        fill: url(#linear-gradient-21);
      }

      .cls-35 {
        fill: url(#linear-gradient-22);
      }
    </style>
    <linearGradient id="linear-gradient" x1="-8.79" y1="162.56" x2="178.43" y2="172.69" gradientUnits="userSpaceOnUse">
      <stop offset="0" stop-color="#fff"/>
      <stop offset="0.07" stop-color="#fff"/>
      <stop offset="0.52" stop-color="#fff"/>
      <stop offset="0.93" stop-color="#fff"/>
      <stop offset="1" stop-color="#fff"/>
    </linearGradient>
    <linearGradient id="_5" data-name="   5" x1="1288.34" y1="-9645.8" x2="1399.33" y2="-9644.96" gradientTransform="matrix(1, 0, 0, -1, -1290.24, -9440.85)" gradientUnits="userSpaceOnUse">
      <stop offset="0" stop-color="#7a7a80"/>
      <stop offset="1" stop-color="#2a2829"/>
    </linearGradient>
    <linearGradient id="linear-gradient-2" x1="1370.2" y1="-9636.4" x2="1390.56" y2="-9636.4" gradientTransform="matrix(1, 0, 0, -1, -1290.24, -9440.85)" gradientUnits="userSpaceOnUse">
      <stop offset="0" stop-color="#fff"/>
      <stop offset="1" stop-color="#fff"/>
    </linearGradient>
    <linearGradient id="_144" data-name="   144" x1="1310.35" y1="-9748.39" x2="1376.5" y2="-9748.06" gradientTransform="matrix(1, 0, 0, -1, -1290.24, -9440.85)" gradientUnits="userSpaceOnUse">
      <stop offset="0" stop-color="#facc1f"/>
      <stop offset="1" stop-color="#da9828"/>
    </linearGradient>
    <linearGradient id="linear-gradient-3" x1="1328.24" y1="-9738.74" x2="1395.66" y2="-9736.76" xlink:href="#linear-gradient-2"/>
    <linearGradient id="linear-gradient-4" x1="1312.65" y1="-9741.89" x2="1377.88" y2="-9741.73" xlink:href="#linear-gradient-2"/>
    <linearGradient id="linear-gradient-5" x1="10769.24" y1="-9504.9" x2="10678.41" y2="-9506.63" gradientTransform="translate(10682.58 -9505.08) rotate(179.39)" xlink:href="#linear-gradient-2"/>
    <linearGradient id="linear-gradient-6" x1="1304.6" y1="-9575.42" x2="1304.82" y2="-9720.98" gradientTransform="matrix(1, 0, 0, -1, -1290.24, -9440.85)" gradientUnits="userSpaceOnUse">
      <stop offset="0" stop-color="#fff"/>
      <stop offset="0.86" stop-color="#fff"/>
      <stop offset="1" stop-color="#fff"/>
    </linearGradient>
    <linearGradient id="linear-gradient-7" x1="1388.57" y1="-9575.2" x2="1388.79" y2="-9720.76" xlink:href="#linear-gradient-6"/>
    <linearGradient id="linear-gradient-8" x1="1388.61" y1="-9575.2" x2="1388.83" y2="-9720.76" xlink:href="#linear-gradient-6"/>
    <linearGradient id="linear-gradient-9" x1="1324.99" y1="-9742.53" x2="1324.91" y2="-9760.39" gradientTransform="matrix(1, 0, 0, -1, -1290.24, -9440.85)" xlink:href="#linear-gradient"/>
    <linearGradient id="linear-gradient-10" x1="1383.7" y1="-9736.21" x2="1383.59" y2="-9759.2" xlink:href="#linear-gradient-2"/>
    <linearGradient id="linear-gradient-11" x1="1290.78" y1="-9734.3" x2="1336.54" y2="-9737.21" gradientTransform="matrix(1, 0, 0, -1, -1290.24, -9440.85)" gradientUnits="userSpaceOnUse">
      <stop offset="0" stop-color="#d02727"/>
      <stop offset="1" stop-color="#670918"/>
    </linearGradient>
    <linearGradient id="linear-gradient-12" x1="1325.13" y1="-9515.34" x2="1324.72" y2="-9739.14" gradientTransform="matrix(1, 0, 0, -1, -1290.24, -9440.85)" xlink:href="#linear-gradient"/>
    <linearGradient id="_144-2" x1="98.38" y1="149.81" x2="147.84" y2="149.81" gradientTransform="matrix(1, 0, 0, 1, 0, 0)" xlink:href="#_144"/>
    <linearGradient id="_5-2" x1="1302.81" y1="-9493.94" x2="1386.35" y2="-9490.12" xlink:href="#_5"/>
    <linearGradient id="_144-3" x1="1315.46" y1="-9520.55" x2="1368.43" y2="-9519.25" xlink:href="#_144"/>
    <linearGradient id="linear-gradient-13" x1="1328.77" y1="-9511.26" x2="1328.49" y2="-9530.19" gradientTransform="matrix(1, 0, 0, -1, -1290.24, -9440.85)" xlink:href="#linear-gradient"/>
    <linearGradient id="linear-gradient-14" x1="1330.6" y1="-9454.87" x2="1328.52" y2="-9506.8" gradientTransform="matrix(1, 0, 0, -1, -1290.24, -9440.85)" xlink:href="#linear-gradient"/>
    <linearGradient id="linear-gradient-15" x1="1303.52" y1="-9510.68" x2="1366.11" y2="-9509.75" xlink:href="#linear-gradient-11"/>
    <linearGradient id="linear-gradient-16" x1="1314.16" y1="-9511.05" x2="1372.87" y2="-9511.05" xlink:href="#linear-gradient-2"/>
    <linearGradient id="linear-gradient-17" x1="1316.58" y1="-9508.52" x2="1374.41" y2="-9508.52" xlink:href="#linear-gradient-2"/>
    <linearGradient id="linear-gradient-18" x1="1314.6" y1="-9484.23" x2="1318.56" y2="-9484.23" xlink:href="#linear-gradient-6"/>
    <linearGradient id="linear-gradient-19" x1="11553.68" y1="1107.29" x2="11557.63" y2="1107.29" gradientTransform="matrix(-0.99, 0.13, 0.13, 0.99, 11406.78, -2521.14)" xlink:href="#linear-gradient-6"/>
    <linearGradient id="linear-gradient-20" x1="1337.61" y1="-9455.46" x2="1377.05" y2="-9455.59" xlink:href="#linear-gradient-2"/>
    <linearGradient id="linear-gradient-21" x1="1313.93" y1="-9520.66" x2="1315.27" y2="-9520.59" gradientTransform="matrix(1, 0, 0, -1, -1290.24, -9440.85)" xlink:href="#linear-gradient"/>
    <linearGradient id="linear-gradient-22" x1="10912.06" y1="1461.14" x2="10913.4" y2="1461.21" gradientTransform="matrix(-1, 0, 0, 1, 11000.04, -1381.84)" xlink:href="#linear-gradient"/>
  </defs>
  <g>
    <path class="cls-1" d="M60.83,339.58c-33.58,0-47.92-4.55-51.17-16.23-.49-1.75-.69-2.47-1-19.58v-.45C8,267.88,7,125.94,8.29,118.34a60.69,60.69,0,0,1,2.48-9c.47-1.37,1-2.79,1.54-4.19l.43-1.07c.41-1,.85-2.06,1.3-3.06.35-.79.71-1.56,1.06-2.29Q15,98.13,15,97.48a13.16,13.16,0,0,1,3.4-8.84l.07-4.36.09-3.43L30.86,81l-12.25-.35.16-4.71c.4-10.44,1.08-22.9,1.82-33.3,1.46-20.3,2.24-21.67,3.65-24.14C28.72,10.64,38.05,8,62.64,7.68l2.85,0c9.42,0,17.41.66,23.15,1.91l.4.08c.5.11,1,.23,1.43.35l.32.09c.5.13,1,.27,1.42.41l.46.16c.54.18,1,.35,1.41.52l.51.2c.6.26,1.21.56,1.76.86l.54.31a17.93,17.93,0,0,1,1.54,1c.24.18.47.36.69.55h0a13.9,13.9,0,0,1,2.14,2.21l.23.3a13.36,13.36,0,0,1,1.63,3l.15.4c0,.1.12.35.12.37.09.27.18.58.28.93l.09.34c.13.55.27,1.24.41,2.08l.2,1.31c0,.27.13,1,.13,1,0,.37.16,1.33.17,1.38l.19,1.72.4,4.09c.1,1.15.19,2.2.28,3.31l.18,2.13c.09,1.2.43,5.81.43,5.81l.28,4-12.21,1,12.22-.86c0,.07.57,8.81.57,8.81.08,1.34.38,6.47.38,6.52s.35,6.4.35,6.44c.1,1.94.3,5.89.3,6s.33,7.5.33,7.5h2.72a15.15,15.15,0,0,1,10.79-4.77c.87-.06,3.22-.18,6.05-.18,8.16,0,13.25,1,17,3.35a29.44,29.44,0,0,1,12.61,17.39c.72,2.71,1.18,7.29,2.16,17.4.92,9.46,2.07,21.24,3.6,31.12.67,4.35,1.34,8.3,1.93,11.83,2.48,14.84,3.73,22.28.89,28.66-3.32,7.49-9.09,12.38-19.29,16.34-2.34.92-5.36,2-8.55,3.09-2.11.74-5.08,1.78-7.83,2.8.38,4.83-.11,10.64-3.11,14.51a12.91,12.91,0,0,1-4.16,6.41,14.32,14.32,0,0,1-3,1.9l0,34.42-.06,16.18-.11,13.78-.06,4.07c0,.09,0,.55,0,.67l-.09,5.33c0,1.8-.08,3.36-.12,4.76,0,0-.09,2.7-.09,2.75l0,1.17q-.06,1.13-.12,2V319a17.26,17.26,0,0,1-1.58,7,14.51,14.51,0,0,1-2.52,3.56l-.29.3a17,17,0,0,1-2.41,2l-.46.31a24.27,24.27,0,0,1-2.29,1.29l-.33.15c-.61.3-1.35.61-2.16.92l-.34.12c-.68.25-1.42.5-2.22.73l-.16.06c-.87.25-1.65.46-2.48.66l-.31.08c-.79.18-1.63.37-2.5.55l-.21,0c-1,.19-1.87.36-2.82.52l-.15,0C87.25,338.8,75,339.58,60.83,339.58Zm58.35-216.43.18,9,.24,17.41.27,28.79c2.26-.93,4.54-1.88,6.7-2.83l1.51-.65c1.5-.67,2.84-1.28,4-1.84-.09-1.21-.21-2.54-.33-4-.15-1.65-.32-3.44-.51-5.35l-.15-1.46c-.14-1.44-.3-3-.47-4.53l-.17-1.62c-1.06-9.76-2.29-19.66-3.46-27.86l-.22-1.53c-.78-5.39-1.42-9.15-1.91-11.74-.91,0-1.82-.08-2.77-.2a17.81,17.81,0,0,1-3.66-.87l-.6-.24c.05.18.11.36.16.53s.37,1.38.37,1.38l.12.53c.19.79.32,1.47.41,2.1l0,.18c0,.19,0,.48.08.86,0,.07,0,.53,0,.53l-.36,0,0,.18.39,0Z"/>
    <path class="cls-2" d="M53.17,331.92c-33.58,0-47.93-4.55-51.17-16.23-.49-1.75-.69-2.47-1-19.58v-.46c-.64-35.43-1.68-177.37-.37-185a60.69,60.69,0,0,1,2.48-9c.47-1.37,1-2.79,1.54-4.19l.43-1.07c.41-1,.85-2.06,1.3-3.06.35-.79.71-1.56,1.06-2.29,0-.41-.06-.84-.06-1.26A13.11,13.11,0,0,1,10.78,81l.07-4.37.09-3.42,12.26.12L11,73l.16-4.71c.39-10.44,1.08-22.91,1.82-33.3,1.46-20.3,2.24-21.67,3.65-24.14C21.06,3,30.39.35,55,0l2.85,0C67.25,0,75.24.66,81,1.91l.4.08c.5.11,1,.23,1.43.35l.32.09c.5.13,1,.27,1.41.41L85,3c.54.18,1,.35,1.41.52l.51.2c.6.26,1.21.56,1.76.86l.54.31a17.93,17.93,0,0,1,1.54,1c.24.18.47.36.69.55h0A13.91,13.91,0,0,1,93.6,8.68l.23.3a13.14,13.14,0,0,1,1.63,3l.15.4c0,.1.12.35.12.36.09.28.18.59.28.94l.09.34c.13.55.27,1.24.41,2.08l.2,1.31c0,.27.13,1,.13,1,0,.37.16,1.33.17,1.38l.19,1.72.4,4.09c.1,1.14.19,2.2.28,3.31L98.06,31c.09,1.2.43,5.81.43,5.81l.28,4-12.21,1L98.78,41c0,.07.57,8.8.57,8.8.08,1.35.38,6.48.38,6.53s.35,6.4.35,6.43c.1,2,.3,5.9.3,6s.33,7.5.33,7.5h2.72a15.15,15.15,0,0,1,10.79-4.77c.87-.06,3.22-.18,6-.18,8.16,0,13.25,1,17,3.35a29.44,29.44,0,0,1,12.61,17.39c.72,2.71,1.18,7.29,2.16,17.4.92,9.46,2.07,21.24,3.6,31.12.67,4.35,1.34,8.3,1.93,11.83,2.48,14.84,3.73,22.28.89,28.66-3.32,7.49-9.09,12.38-19.29,16.34-2.35.92-5.36,2-8.55,3.09-2.11.74-5.08,1.78-7.83,2.8.38,4.83-.11,10.64-3.11,14.51a12.91,12.91,0,0,1-4.16,6.41,14.32,14.32,0,0,1-3,1.9l0,34.42-.06,16.18-.11,13.78-.06,4.07c0,.09,0,.55,0,.67l-.09,5.32c0,1.81-.08,3.37-.12,4.77,0,0-.09,2.7-.09,2.75l-.05,1.17q-.06,1.13-.12,2v.06a17.26,17.26,0,0,1-1.58,7.05,14.79,14.79,0,0,1-2.52,3.56l-.29.3a17.72,17.72,0,0,1-2.41,2l-.46.31a24.27,24.27,0,0,1-2.29,1.29L102,326c-.61.3-1.35.61-2.16.92l-.34.12c-.68.25-1.42.5-2.22.73,0,0-.16,0-.16.06-.87.25-1.65.46-2.48.66l-.32.08c-.78.18-1.62.37-2.49.55l-.21,0c-1,.19-1.87.36-2.82.52l-.15,0C79.59,331.14,67.33,331.92,53.17,331.92Zm58.35-216.43.18,9,.24,17.41.27,28.79c2.26-.93,4.54-1.88,6.7-2.83l1.51-.65c1.5-.67,2.84-1.28,4-1.84-.1-1.21-.21-2.54-.33-4-.15-1.65-.32-3.44-.51-5.35l-.15-1.46c-.14-1.44-.3-3-.47-4.53l-.17-1.62c-1.06-9.76-2.29-19.66-3.46-27.87l-.22-1.52c-.78-5.39-1.42-9.15-1.91-11.74a26.62,26.62,0,0,1-2.77-.21,17.19,17.19,0,0,1-3.66-.86l-.6-.24c0,.18.11.36.16.53s.37,1.38.37,1.38l.12.52c.19.8.32,1.48.41,2.11l0,.18c0,.19,0,.48.08.86,0,.07,0,.53,0,.53l-.36,0,0,.18.39,0Z"/>
    <path class="cls-3" d="M143.54,142.44c-2.86-18.47-4.4-43.09-5.5-47.27a17.1,17.1,0,0,0-7.26-10.11c-3.51-2.2-16-1.32-16-1.32-2.57,0-3.33,1.9-3.16,4.13h0v0c0,.19,0,.39.07.59l-24.05.11.28,0H88a3.72,3.72,0,0,0,.37-.08l0,0a.41.41,0,0,0,.18-.09.59.59,0,0,0,0-.15.17.17,0,0,0,0-.07c0-.07,0-.14,0-.23a.45.45,0,0,1,0-.11c0-.13,0-.27,0-.45v0c0-.16,0-.35,0-.55s0-.13,0-.2v-.77c0-.26,0-.53,0-.83v-.13c0-.27,0-.55,0-.85,0-.1,0-.2,0-.3,0-.26,0-.54,0-.82,0-.1,0-.21,0-.32q0-.56,0-1.17c0-.06,0-.13,0-.19q0-.54,0-1.11c0-.14,0-.27,0-.41l0-1c0-.14,0-.28,0-.43,0-.47,0-1-.05-1.44,0-.1,0-.2,0-.3,0-.41,0-.82,0-1.24,0-.17,0-.34,0-.51l-.06-1.28c0-.12,0-.24,0-.35,0-.56,0-1.13-.08-1.7,0-.11,0-.22,0-.32,0-.49,0-1-.07-1.47v-.24h0c-.09-1.93-.19-4-.3-6v-.09c-.11-2-.22-4.15-.34-6.28v-.19c-.12-2.11-.25-4.24-.38-6.36v-.2l-.12-2v-.15c-.09-1.41-.18-2.82-.27-4.2v-.14c0-.67-.09-1.33-.14-2V41.7c-.09-1.35-.19-2.68-.28-4l0-.3c0-.56-.08-1.1-.12-1.64l0-.27c-.09-1.23-.18-2.43-.28-3.59l0-.31-.12-1.43,0-.29c-.09-1.1-.18-2.15-.27-3.14l0-.31c0-.41-.07-.81-.11-1.2l0-.25c-.08-.93-.17-1.8-.26-2.6l0-.25c0-.33-.07-.64-.1-.95l0-.21c-.08-.72-.16-1.36-.24-1.93l0-.21c0-.21-.07-.41-.1-.61,0,0,0-.11,0-.17-.08-.47-.16-.85-.23-1.15l0-.11c0-.11,0-.2-.08-.28l0-.08a1.16,1.16,0,0,0-.1-.22h0a2.87,2.87,0,0,0-.39-.39l-.14-.12a4,4,0,0,0-.46-.29.78.78,0,0,0-.15-.1q-.33-.18-.75-.36l-.21-.08-.73-.27-.3-.1-1-.3-.11,0-1-.24h0c-5-1.14-13.23-1.82-23.54-1.67C39.09,12.5,29,13.81,27.22,16.89c-1.13,2-3.08,31.23-3.86,51.86h0c0,.15,0,.3,0,.44h0v0c0,.14,0,.28,0,.42h0l-.06,1.55v.1c0,.63,0,1.24-.06,1.84v.36c0,.49,0,1-.05,1.44,0,.12,0,.25,0,.37,0,.56,0,1.11,0,1.64v.28l0,1.27c0,.16,0,.31,0,.47,0,.45,0,.9,0,1.33v.1c0,.47,0,.92,0,1.35v.36c0,.32,0,.64,0,1v1.43a1.93,1.93,0,0,1,0,.24c0,.27,0,.53,0,.77s0,.21,0,.3c0,.28,0,.55,0,.79v.08c0,.26,0,.5.05.72,0,.06,0,.12,0,.18s0,.32.05.46,0,.09,0,.14a3.66,3.66,0,0,0,.07.42.14.14,0,0,0,0,.07,2.18,2.18,0,0,0,.06.22,0,0,0,0,1,0,0H20.51a.88.88,0,1,0,0,1.76h1.65c-1.34,1-3.22,4.54-5,8.59-.52,1.19-1,2.44-1.49,3.68q-.36.93-.69,1.86c-.22.61-.43,1.22-.63,1.82-.1.29-.19.59-.29.88-.27.87-.53,1.71-.74,2.49-.28,1-.5,2-.64,2.79-.91,5.29-.31,136.09.55,182.85v.28h0c.18,9.72.37,15.85.56,16.53,1.1,4,12.75,7.26,39.36,7.26,14,0,25.51-.8,33.55-2.13h0c.84-.14,1.63-.29,2.39-.43l.23-.05c.73-.15,1.43-.3,2.09-.46l.23-.05c.65-.16,1.25-.32,1.82-.49l.22-.06c.56-.17,1.07-.34,1.55-.52l.19-.07a13.21,13.21,0,0,0,1.29-.54l.14-.07a10.58,10.58,0,0,0,1-.57l.1-.07a5.47,5.47,0,0,0,.76-.61s0,0,0,0a2.81,2.81,0,0,0,.49-.66.88.88,0,0,0,.07-.2v0a13.64,13.64,0,0,0,.21-1.89c0-.22,0-.47,0-.72s0-.24,0-.37,0-.27,0-.4,0-.37,0-.58,0-.28,0-.42,0-.44,0-.69v-.05c0-.37,0-.75,0-1.15,0-.14,0-.28,0-.42,0-.3,0-.6,0-.92V305c0-.9.05-1.88.08-2.92,0-.18,0-.38,0-.57,0-.36,0-.71,0-1.08,0-.11,0-.23,0-.34q0-.69,0-1.41v-.2c0-.54,0-1.08,0-1.64v-.14c0-.57,0-1.15,0-1.75h0v-.06h0v-.34h0c0-.48,0-1,0-1.46s0-.81,0-1.23,0-1,0-1.48,0-.88,0-1.33,0-1,0-1.56,0-.91,0-1.37,0-1.14,0-1.71,0-.89,0-1.34c0-.92,0-1.85,0-2.79,0-.17,0-.33,0-.5,0-1,0-2,0-3,0-.55,0-1.12,0-1.68s0-1.21,0-1.82,0-1.06,0-1.59,0-1.27,0-1.91V268c0-.6,0-1.2,0-1.8v-1.87c0-.68,0-1.38,0-2.07v-5.6c0-1.2,0-2.4,0-3.62V249.1c0-.62,0-1.25,0-1.87V241c0-.67,0-1.34,0-2v-4.14c0-2.73,0-5.49,0-8.26v-1.67c0-.88,0-1.76,0-2.64v-1.53c0-1,0-1.92,0-2.88v-1.94h0l.4.07h0c2.22.31,6-.38,7-1.19.4-.33.53-1.88.55-3.94a4.92,4.92,0,0,0,1.87-.67c.66-.66.66-8.14,0-9.46a3.66,3.66,0,0,0-2.15-1.42,10.6,10.6,0,0,1,.17-2.32c.66-2.42,18.69-7.91,26.6-11s10.78-5.94,12.54-9.89S146.4,160.91,143.54,142.44ZM96.42,103.77c-.08-.21-.17-.43-.26-.64s-.29-.73-.44-1.09l-.06-.15c-.08-.18-.16-.36-.23-.54-.15-.35-.3-.69-.44-1s-.22-.48-.32-.72l-.45-1-.12-.29-.21-.42c-.14-.31-.29-.62-.44-.92l-.16-.34-.18-.34c-.14-.29-.29-.58-.43-.86s-.23-.42-.34-.63l-.43-.77c-.07-.12-.14-.26-.21-.37l-.11-.19-.42-.68-.3-.47-.42-.57-.21-.3,0-.06c-.15-.18-.28-.32-.42-.46s-.14-.16-.21-.22a2.13,2.13,0,0,0-.54-.39l23-.11s0,.09,0,.14c.08.23.15.45.24.68l.15.37q.13.31.27.6c.06.13.12.24.18.36s.2.36.3.52l.19.32c.11.16.21.3.32.44a1.69,1.69,0,0,0,.2.25,4,4,0,0,0,.34.36l.17.16a2.07,2.07,0,0,0,.5.3,13.58,13.58,0,0,0,4,.36,37.31,37.31,0,0,1,4.2.19,11.76,11.76,0,0,1,1.61.31,7,7,0,0,1,2.12.9,1.18,1.18,0,0,1,.32.4,18.94,18.94,0,0,1,1.29,4.17c.07.29.14.59.21.91.54,2.51,1.12,5.75,1.71,9.46.23,1.39.45,2.84.68,4.35.74,5,1.49,10.63,2.2,16.3l.42,3.41c.13,1.13.27,2.27.4,3.4.07.56.13,1.12.2,1.68.13,1.12.25,2.24.38,3.34l.18,1.64c.9,8.17,1.61,15.56,2,20.44.07,1,.13,1.86.17,2.62a17.16,17.16,0,0,1,0,3.3c-.55,2.06-14.07,7.73-24.67,12l-1.56.63-3,1.19-4.85,2c-1,.4-1.79.74-2.35,1l-.46.22c0-.94,0-1.87,0-2.8,0-.42,0-.84,0-1.26,0-1.09,0-2.18,0-3.26,0-.29,0-.58,0-.87,0-1.24,0-2.48,0-3.7,0-.31,0-.62,0-.93l0-3.56c0-.47,0-.94,0-1.42,0-.79,0-1.58,0-2.36,0-.63,0-1.25,0-1.88s0-1.32,0-2,0-1.25,0-1.86,0-1.32,0-2,0-1.14,0-1.7c0-.74,0-1.47,0-2.2,0-.5,0-1,0-1.49,0-.84,0-1.67,0-2.49,0-.52,0-1,0-1.54,0-1,0-2,0-2.94,0-.32,0-.63,0-.95,0-.76,0-1.52,0-2.26,0-.54,0-1,0-1.58s0-1,0-1.55,0-1.14,0-1.71c0-.42,0-.83,0-1.25,0-.59,0-1.18,0-1.76s0-.86,0-1.29,0-1,0-1.53c0-1.85,0-3.6-.07-5.26,0-.31,0-.6,0-.91,0-.52,0-1,0-1.55,0-.33,0-.64,0-1s0-.92,0-1.36,0-.6,0-.89,0-.81,0-1.2,0-.63,0-.93,0-.72,0-1.06,0-.54,0-.79c0-1.18,0-2.23-.07-3.15,0-.17,0-.31,0-.47s0-.55,0-.8,0-.33,0-.49,0-.42,0-.62,0-.25,0-.36,0-.36,0-.51a2.62,2.62,0,0,0,0-.29c0-.15,0-.27,0-.39s0-.12,0-.17,0-.26,0-.33a12,12,0,0,0-.28-1.34v0c0-.15-.09-.32-.13-.48s-.06-.24-.1-.38a1.54,1.54,0,0,0,0-.17l-.23-.77c-.06-.2-.12-.39-.18-.6s-.21-.61-.31-.92l-.2-.59q-.27-.78-.57-1.59v0l-.13-.34C96.76,104.66,96.6,104.22,96.42,103.77Z"/>
    <g>
      <g>
        <path class="cls-4" d="M22.82,90.33S86.15,89,89,90.33s9.45,17.37,10.11,22,2.2,195.91.22,199.87-19.79,7-46.39,7-38-3.3-39.14-7.26-2.2-192.83-1.1-199.21S20.19,90.55,22.82,90.33Z"/>
        <path class="cls-5" d="M100,300.1c.91-42.74-.3-183.82-.87-187.78-.66-4.62-7.25-20.67-10.11-22-.62-.28-4.05-.44-9.05-.52,1.6,4.82,7.34,22.25,7.62,24.81.33,3-1.16,186.69-1.16,186.69Z"/>
        <path class="cls-6" d="M13.81,312.41c1.1,4,12.75,7.26,39.36,7.26s44.19-2.86,46.17-6.82c.36-.71.6-7.42.75-18-2.11,1.49-11.12,6-43.19,6.35-32.4.37-41.82-4.19-43.65-5.32C13.43,305.6,13.62,311.73,13.81,312.41Z"/>
        <path class="cls-7" d="M14.69,295.48s5.28,4.18,32.76,5.06,43.32-3.08,49-5.06c0,0-16.93,4.4-42.65,4S14.25,293.94,14.69,295.48Z"/>
        <path class="cls-8" d="M16.56,298.45s8.35,4,38.26,4.18S96,297.9,96,297.9s-11,5.27-38.48,5.93S19.53,301,16.56,298.45Z"/>
        <path class="cls-9" d="M89,90.33c-2.86-1.32-66.19,0-66.19,0-2.63.22-9,16-10.11,22.43,1.54,2.86,9.23,2.64,30.34,3.52s52.11-2,54.75-3.08c.7-.29,1-1.14,1-2.24C97.4,105.16,91.63,91.54,89,90.33Z"/>
        <path class="cls-10" d="M97.58,113s-6.82,2.3-37.82,3.07-43.31-2.64-43.31-2.64A517.09,517.09,0,0,0,97.58,113Z"/>
        <path class="cls-11" d="M14.25,134.09l.08,4.5.06,4.5.13,9,.18,18c.07,6,.07,12,.11,18l.1,18v36l-.07,18-.07,9,0,4.5-.05,4.5-.08-4.5-.07-4.5-.12-9-.18-18,0-4.5,0-4.5-.05-9-.09-18,0-18c0-6,0-12,0-18l.07-18,.07-9,0-4.5Z"/>
        <path class="cls-12" d="M98,188.1c.25-.23.52-.46.79-.67,0-5.85,0-11.71-.11-17.56l-.18-18-.12-9-.07-4.5-.08-4.5,0,4.5,0,4.5-.07,9-.06,18c0,6,0,12,0,18Z"/>
        <path class="cls-13" d="M98.92,223.88v-4.46c-.28-.31-.56-.64-.82-1l0,5.44,0,9,0,4.5,0,4.5.18,18,.13,9,.06,4.5.08,4.5,0-4.5,0-4.5.07-9,.07-18,0-4.5v-13.5Z"/>
        <path class="cls-14" d="M23.59,301.25s-.11,13.8.33,14.9,20.67,3.52,21.33,2.64.66-15.83.66-15.83Z"/>
        <path class="cls-15" d="M99.34,312.85c.35-.71.6-7.4.75-17.94l-.17.06c-1.24.82-4.34,2.37-11.39,3.72l-1.68.54s.35,16.26-.13,18.32C94,316.35,98.4,314.72,99.34,312.85Z"/>
        <path class="cls-16" d="M100.09,294.52a.6.6,0,0,0-.19.06c-1.06.75-3.81,2.21-10.24,3.54-8,1.67-19,2.59-32.76,2.75-32.64.37-41.94-4.32-43.47-5.27a.34.34,0,0,0-.17-.05c0,.25,0,.49,0,.72,2.42,1.41,11.67,5.28,39.92,5.28l3.72,0c13.76-.16,24.83-1.09,32.89-2.76,6.17-1.28,9-2.7,10.28-3.51C100.08,295,100.08,294.77,100.09,294.52Z"/>
        <path class="cls-17" d="M32.94,93s-8.68,18.94-9.4,22.77-1.82,177.32-.06,179.52,19,5,21,2.83S42,120.9,43.05,116.28s4.62-22,3.74-23.31C45.25,90.66,32.94,93,32.94,93Z"/>
      </g>
      <path class="cls-18" d="M20.51,90.66a.88.88,0,1,1,0-1.76h0l93.89-.44h0a.88.88,0,0,1,.88.88.87.87,0,0,1-.87.88l-93.89.44Z"/>
      <g>
        <path class="cls-19" d="M100.09,189.15c-.2-.11-.61-.11-1.41.79-1.76,2-1.32,25.72-.44,27.26a2.65,2.65,0,0,0,2,1.31C100.21,208.67,100.15,198.75,100.09,189.15Z"/>
        <path class="cls-20" d="M106.6,199s2.86.44,3.52,1.76.66,8.8,0,9.46-4.4,1.1-4.4,1.1Z"/>
        <path class="cls-21" d="M114.73,83.74s12.54-.88,16,1.32A17.1,17.1,0,0,1,138,95.17c1.1,4.18,2.64,28.8,5.5,47.27s5.49,29.69,3.74,33.65-4.62,6.81-12.54,9.89-25.94,8.57-26.6,11,.88,16.71-.44,17.81-7.92,2-8.58.44-1.54-24.84.66-26.16,36.28-13.85,37.16-17.15-6.82-73.22-10.11-75.42-9.46-.88-11.88-1.76S108.8,83.74,114.73,83.74Z"/>
        <path class="cls-22" d="M139.36,175.65c2.64-4.18-7.7-76.52-10.11-80.48s-11-2.2-14.08-3.08c-2-.58-3.1-2.79-3.6-4.22.22,2.9,2,6.36,3.38,6.86,2.42.88,8.58-.44,11.88,1.76s11,72.12,10.11,75.42-35,15.83-37.16,17.15-1.32,24.62-.66,26.16c.18.41.77.65,1.58.76-.89-2.66-2-18.53-1.14-21.64C100.44,191,137.14,179.15,139.36,175.65Z"/>
        <path class="cls-23" d="M106.38,210.83s-1.32-14.08.22-15.84,31.66-11.43,35.62-14.29c0,0-1.54,2.42-14.51,7s-19.79,7-20.23,8.35S106.38,210.83,106.38,210.83Z"/>
        <path class="cls-23" d="M137.16,96.49s-2.64-9.9-8.35-11.21c-4.13-1-16.06-1.76-15.84.43s13.51.43,16.71,1.76C132.32,88.57,136.28,94.07,137.16,96.49Z"/>
        <path class="cls-23" d="M131.44,98.47c-.1.42,9.9,57.17,9.46,74.76,0,0,1.76-5.72-.66-26.17S131.66,97.59,131.44,98.47Z"/>
      </g>
      <g>
        <path class="cls-24" d="M23.48,89s64.21.66,65.09-.66S85.71,18.65,84,16.23s-12.75-4.17-28.8-4S29,13.81,27.22,16.89,21.72,88.79,23.48,89Z"/>
        <path class="cls-25" d="M23.48,89s64.21.66,65.09-.66c.29-.44.07-8.45-.43-19-33.33-1.29-60.09-.36-64.8-.18C22.93,80.39,22.87,88.94,23.48,89Z"/>
        <path class="cls-26" d="M30.08,87.91s-.44-17.15.44-17.59,16.05-1.1,16.05.22.44,17.15,0,17.59S30.08,88.35,30.08,87.91Z"/>
        <path class="cls-27" d="M30.3,67.47s2-51.24,4.62-52.34,11.43-2,11.43-.88.66,52.12-.44,52.56S30.3,67.47,30.3,67.47Z"/>
        <path class="cls-9" d="M84,16.23c-.63-.86-2.45-1.65-5.26-2.28.23,5.87,2.24,54.81,2.11,55.14-.07.17,3.53.26,7.34.3C87.16,48.56,85.12,17.84,84,16.23Z"/>
        <path class="cls-28" d="M88.12,68.93c-33.13-1.28-59.69-.38-64.76-.18l0,.88h0c5-.19,31.57-1.11,64.76.18h0C88.15,69.52,88.13,69.23,88.12,68.93Z"/>
        <path class="cls-9" d="M81.07,88.94c4.44-.13,7.32-.31,7.5-.59.29-.44.07-8.36-.42-18.8l-4.52-.34-2.75-.09c.05,1.59.58,18.7.19,19.82Z"/>
        <path class="cls-29" d="M23.92,70.1s12.76-.44,27.93-.44,30.78.66,30.78.66-23.09.22-29.24.22S25.46,71.2,23.92,70.1Z"/>
        <path class="cls-30" d="M84.17,68.56s-34.08-2-57.83-.44C26.34,68.12,35.36,64.83,84.17,68.56Z"/>
        <path class="cls-31" d="M24.8,65.05c0-3.63.16-7.25.32-10.86.08-1.81.18-3.62.27-5.42l.34-5.42.39-5.42c.15-1.8.3-3.61.47-5.41.34-3.6.71-7.21,1.29-10.79l-.83,10.18c-.09,1.81-.21,3.61-.32,5.42l-.35,5.41L26,48.16c-.14,1.8-.26,3.61-.42,5.41C25.29,57.18,25.2,61.44,24.8,65.05Z"/>
        <path class="cls-32" d="M83.61,20.83c.43,3.6.76,7.2,1.06,10.81.16,1.81.28,3.61.42,5.42l.35,5.41.3,5.43c.08,1.8.17,3.61.22,5.42.12,3.62.21,7.24.09,10.87L85.58,54c-.14-1.8-.24-3.61-.37-5.41l-.34-5.42-.31-5.42c-.09-1.8-.2-3.61-.27-5.42C84.12,28.7,83.67,24.45,83.61,20.83Z"/>
        <path class="cls-33" d="M30.52,16.23a13.29,13.29,0,0,1,3-1.17l.39-.12.4-.1.79-.19,1.6-.34c2.14-.4,4.3-.66,6.46-.87l1.62-.14c.54-.05,1.08-.07,1.63-.1l1.62-.1L49.69,13,51.32,13l1.62,0c1.09,0,2.17,0,3.26,0,2.17,0,4.34.07,6.51.16,1.08.06,2.17.1,3.25.19l1.62.12,1.62.15,1.62.17,1.62.2,1.61.23,1.61.26c1.07.2,2.13.41,3.19.66A26,26,0,0,1,82,16c-.52-.15-1-.27-1.58-.38s-1.06-.21-1.59-.3l-1.6-.26-1.6-.21c-2.15-.27-4.3-.45-6.45-.6l-1.62-.11-1.62-.08c-1.08-.07-2.16-.09-3.24-.13q-3.22-.11-6.48-.12H51.33l-1.62,0-1.62,0L46.48,14c-1.08,0-2.16.11-3.24.16-2.15.15-4.31.32-6.44.62L35.2,15l-.8.15L34,15.2l-.4.09c-.53.11-1,.24-1.57.39A9.2,9.2,0,0,0,30.52,16.23Z"/>
        <path class="cls-34" d="M24.36,88.13c-.14-1.38-.24-2.78-.3-4.17S24,81.17,24,79.78,24,77,24,75.6s.17-2.79.33-4.18l0,8.36V84C24.4,85.35,24.39,86.74,24.36,88.13Z"/>
        <path class="cls-35" d="M87.31,71c.15,1.39.25,2.78.31,4.18s.09,2.78.1,4.18,0,2.79-.08,4.18-.17,2.79-.33,4.17l0-8.35V75.16C87.27,73.77,87.29,72.38,87.31,71Z"/>
      </g>
    </g>
  </g>
</svg>
