<svg id="Layer_1" data-name="Layer 1" xmlns="http://www.w3.org/2000/svg" xmlns:xlink="http://www.w3.org/1999/xlink" width="380" height="382" viewBox="0 0 380 382">
  <defs>
    <style>
      .cls-1 {
        fill: none;
      }

      .cls-2 {
        opacity: 0.5;
      }

      .cls-3 {
        clip-path: url(#clip-path);
      }

      .cls-4 {
        fill: #edd3bd;
      }

      .cls-5 {
        fill: #8b959a;
      }

      .cls-6 {
        fill: #758184;
      }

      .cls-7 {
        fill: #dcb29a;
      }

      .cls-8 {
        fill: #b1b4b8;
      }

      .cls-9 {
        fill: #687689;
      }

      .cls-10 {
        fill: #3a3a3a;
      }

      .cls-11 {
        fill: url(#linear-gradient);
      }

      .cls-12 {
        fill: #fddc63;
      }

      .cls-13 {
        fill: #efb890;
      }

      .cls-14 {
        fill: #e7c2a8;
      }

      .cls-15 {
        fill: #e5e5e4;
      }

      .cls-16 {
        fill: #4d4e4e;
      }

      .cls-17 {
        fill: #f7991c;
      }

      .cls-18 {
        fill: #ee8322;
      }

      .cls-19 {
        fill: #de6e26;
      }

      .cls-20 {
        fill: #4e7a6c;
      }

      .cls-21 {
        fill: #8d4d21;
      }

      .cls-22 {
        opacity: 0.25;
      }

      .cls-23 {
        opacity: 0.15;
      }

      .cls-24 {
        fill: #f2f2f2;
      }

      .cls-25 {
        fill: #333;
      }

      .cls-26 {
        opacity: 0.7;
      }

      .cls-27 {
        fill: #fff;
      }

      .cls-28 {
        fill: #5b9a8b;
      }

      .cls-29 {
        fill: #84cdb8;
      }

      .cls-30 {
        opacity: 0.1;
      }

      .cls-31 {
        fill: #899095;
      }

      .cls-32 {
        fill: #e8e7e7;
      }

      .cls-33 {
        fill: #cbcbca;
      }

      .cls-34 {
        fill: #754f31;
      }

      .cls-35 {
        fill: #5c3925;
      }

      .cls-36 {
        fill: #1a1a1a;
      }

      .cls-37 {
        fill: #363636;
      }

      .cls-38 {
        fill: #676767;
      }

      .cls-39 {
        fill: #f5ae92;
      }

      .cls-40 {
        fill: #e09580;
      }

      .cls-41 {
        fill: #a75f26;
      }

      .cls-42 {
        fill: #80431d;
      }

      .cls-43 {
        fill: #545455;
      }

      .cls-44, .cls-55 {
        fill: #30302f;
      }

      .cls-45 {
        fill: #e7b096;
      }

      .cls-46 {
        fill: #ab4c2b;
      }

      .cls-47 {
        fill: #c16037;
      }

      .cls-48 {
        fill: #e5e6e6;
      }

      .cls-49 {
        fill: #59595c;
      }

      .cls-50 {
        fill: #e2a88b;
      }

      .cls-51 {
        fill: #d09077;
      }

      .cls-52 {
        fill: #221f1f;
      }

      .cls-53 {
        fill: #66c7c8;
      }

      .cls-54 {
        fill: #41bfbe;
      }

      .cls-55 {
        opacity: 0.8;
      }

      .cls-56 {
        fill: #ff0;
      }
    </style>
    <clipPath id="clip-path">
      <rect class="cls-1" x="10.84" y="10.81" width="350.93" height="350.93" rx="26.14"/>
    </clipPath>
    <linearGradient id="linear-gradient" x1="-194.4" y1="360.23" x2="719.37" y2="360.23" gradientUnits="userSpaceOnUse">
      <stop offset="0" stop-color="#cbcbca"/>
      <stop offset="1" stop-color="#979797"/>
    </linearGradient>
  </defs>
  <g>
    <path class="cls-2" d="M314,9.74H67.62A60,60,0,0,0,7.71,69.65V316A65.77,65.77,0,0,0,73.4,381.71H314A65.77,65.77,0,0,0,379.68,316V75.43A65.77,65.77,0,0,0,314,9.74ZM369.07,316A55.08,55.08,0,0,1,314,371.1H73.4A55.08,55.08,0,0,1,18.32,316V73.62A53.27,53.27,0,0,1,71.59,20.35H314a55.08,55.08,0,0,1,55.08,55.08Z"/>
    <g class="cls-3">
      <g>
        <g>
          <g>
            <rect class="cls-4" x="-194.4" y="61.12" width="913.78" height="169.4"/>
            <rect class="cls-5" x="-194.4" y="7.02" width="913.78" height="92.25"/>
            <rect class="cls-6" x="-194.4" y="12.8" width="913.78" height="6.11"/>
            <rect class="cls-7" x="-194.4" y="218.29" width="913.78" height="12.23"/>
            <rect class="cls-8" x="-194.4" y="-125.97" width="913.78" height="138.77"/>
            <rect class="cls-9" x="-194.4" y="230.52" width="913.78" height="243.47"/>
            <rect class="cls-10" x="-194.4" y="240.88" width="913.78" height="145.69"/>
            <rect class="cls-11" x="-194.4" y="287.6" width="913.78" height="145.26"/>
            <rect class="cls-12" x="-194.4" y="297.85" width="913.78" height="3.85"/>
            <rect class="cls-12" x="-194.4" y="235.78" width="913.78" height="1.86"/>
            <polygon class="cls-13" points="345.56 119.24 179.41 119.24 178.01 119.24 178.01 126.03 178.01 211.5 178.01 218.29 179.41 218.29 345.56 218.29 346.97 218.29 346.97 211.5 346.97 126.03 346.97 119.24 345.56 119.24"/>
            <rect class="cls-4" x="184.62" y="126.03" width="155.73" height="92.26"/>
            <rect class="cls-14" x="68.19" y="99.27" width="49.86" height="131.25"/>
          </g>
          <g>
            <g>
              <g>
                <path class="cls-15" d="M397.25,287.59H281.67V154.45h0a81.94,81.94,0,0,1,58.89,25l71.31,73.71C424.35,266,415.2,287.59,397.25,287.59Z"/>
                <path class="cls-16" d="M417.1,271.67a20.17,20.17,0,0,1-19.85,15.93H281.67V271.67Z"/>
                <polygon class="cls-17" points="401.29 242.2 281.67 242.2 281.67 180.67 341.77 180.67 401.29 242.2"/>
                <polygon class="cls-18" points="401.29 242.2 281.67 242.2 281.67 222.47 382.21 222.47 401.29 242.2"/>
                <polygon class="cls-19" points="401.29 242.2 281.67 242.2 281.67 233.96 393.32 233.96 401.29 242.2"/>
                <g>
                  <path class="cls-20" d="M388.51,229h-89.9a3.93,3.93,0,0,1-3.94-3.94v-27.2a3.94,3.94,0,0,1,3.94-4h55.95Z"/>
                  <path class="cls-1" d="M298.61,195a2.87,2.87,0,0,0-2.86,2.87V225a2.87,2.87,0,0,0,2.86,2.86h88.85L355.61,195h-57Z"/>
                  <path class="cls-21" d="M298.61,227.9a2.87,2.87,0,0,1-2.86-2.86v-27.2a2.87,2.87,0,0,1,2.86-2.87h57l-1.05-1.08H298.61a3.94,3.94,0,0,0-3.94,4V225a3.93,3.93,0,0,0,3.94,3.94h89.9l-1.05-1.08Z"/>
                </g>
              </g>
              <path class="cls-22" d="M413.4,279.63a19.88,19.88,0,0,1-16.15,8H281.67v-8Z"/>
              <path class="cls-23" d="M397.25,287.6h-5.47l7.85-8.25a16.27,16.27,0,0,0-.08-22.51L325.4,183.15A60.16,60.16,0,0,0,283,165.66h-1.34V154.45a81.85,81.85,0,0,1,58.88,25l71.31,73.71C424.34,266,415.21,287.6,397.25,287.6Z"/>
              <g>
                <rect class="cls-15" x="2.9" y="154.45" width="278.78" height="133.14"/>
                <rect class="cls-16" x="2.9" y="271.67" width="278.78" height="15.92" transform="translate(284.57 559.27) rotate(180)"/>
                <rect class="cls-17" x="2.9" y="180.67" width="278.78" height="61.53"/>
                <rect class="cls-18" x="2.9" y="222.47" width="278.78" height="19.73"/>
                <rect class="cls-19" x="2.9" y="233.96" width="278.78" height="8.24"/>
                <g>
                  <rect class="cls-20" x="15.89" y="193.89" width="75.42" height="35.09" rx="3.27"/>
                  <path class="cls-21" d="M87.76,195a2.46,2.46,0,0,1,2.46,2.46v28a2.46,2.46,0,0,1-2.46,2.46H19.43A2.47,2.47,0,0,1,17,225.44v-28A2.47,2.47,0,0,1,19.43,195H87.76m0-1.08H19.43a3.55,3.55,0,0,0-3.54,3.54v28A3.55,3.55,0,0,0,19.43,229H87.76a3.54,3.54,0,0,0,3.54-3.54v-28a3.54,3.54,0,0,0-3.54-3.54Z"/>
                </g>
                <g>
                  <rect class="cls-20" x="193.27" y="193.89" width="75.42" height="35.09" rx="3.27"/>
                  <path class="cls-21" d="M265.14,195a2.47,2.47,0,0,1,2.46,2.46v28a2.47,2.47,0,0,1-2.46,2.46H196.81a2.46,2.46,0,0,1-2.46-2.46v-28a2.46,2.46,0,0,1,2.46-2.46h68.33m0-1.08H196.81a3.54,3.54,0,0,0-3.54,3.54v28a3.54,3.54,0,0,0,3.54,3.54h68.33a3.55,3.55,0,0,0,3.54-3.54v-28a3.55,3.55,0,0,0-3.54-3.54Z"/>
                </g>
                <rect class="cls-22" x="2.9" y="279.63" width="278.77" height="7.96"/>
                <g>
                  <path class="cls-24" d="M109.17,181.23H175.4a4.87,4.87,0,0,1,4.87,4.87V284a0,0,0,0,1,0,0h-76a0,0,0,0,1,0,0V186.1A4.88,4.88,0,0,1,109.17,181.23Z"/>
                  <path class="cls-17" d="M180.27,186.51v55.7h-76v-55.7a5.21,5.21,0,0,1,2.1-4.2h71.77A5.21,5.21,0,0,1,180.27,186.51Z"/>
                  <rect class="cls-18" x="104.3" y="222.47" width="75.98" height="19.74"/>
                  <rect class="cls-19" x="104.3" y="233.96" width="75.98" height="8.25"/>
                  <path class="cls-16" d="M175,182.31a4.22,4.22,0,0,1,4.21,4.21v96.37H105.38V186.52a4.22,4.22,0,0,1,4.21-4.21H175m0-1.08H109.59a5.29,5.29,0,0,0-5.29,5.29V284h76V186.52a5.29,5.29,0,0,0-5.29-5.29Z"/>
                  <rect class="cls-16" x="141.74" y="181.23" width="1.09" height="102.75"/>
                  <rect class="cls-25" x="104.3" y="281.44" width="75.98" height="2.53"/>
                  <g>
                    <rect class="cls-20" x="110.51" y="193.89" width="25.55" height="35.09" rx="3.27"/>
                    <path class="cls-21" d="M132.52,195a2.46,2.46,0,0,1,2.46,2.46v28a2.46,2.46,0,0,1-2.46,2.46H114.06a2.46,2.46,0,0,1-2.46-2.46v-28a2.46,2.46,0,0,1,2.46-2.46h18.46m0-1.08H114.06a3.55,3.55,0,0,0-3.55,3.54v28a3.55,3.55,0,0,0,3.55,3.54h18.46a3.55,3.55,0,0,0,3.55-3.54v-28a3.55,3.55,0,0,0-3.55-3.54Z"/>
                  </g>
                  <g>
                    <rect class="cls-20" x="148.5" y="193.89" width="25.55" height="35.09" rx="3.27" transform="translate(322.56 422.87) rotate(180)"/>
                    <path class="cls-21" d="M170.51,195a2.46,2.46,0,0,1,2.46,2.46v28a2.46,2.46,0,0,1-2.46,2.46H152.05a2.46,2.46,0,0,1-2.46-2.46v-28a2.46,2.46,0,0,1,2.46-2.46h18.46m0-1.08H152.05a3.55,3.55,0,0,0-3.55,3.54v28a3.55,3.55,0,0,0,3.55,3.54h18.46a3.55,3.55,0,0,0,3.55-3.54v-28a3.55,3.55,0,0,0-3.55-3.54Z"/>
                  </g>
                </g>
                <rect class="cls-23" x="2.9" y="154.45" width="278.78" height="11.22"/>
              </g>
              <g>
                <rect class="cls-15" x="-275.88" y="154.45" width="278.78" height="133.14"/>
                <rect class="cls-16" x="-275.88" y="271.67" width="278.78" height="15.92" transform="translate(-272.99 559.27) rotate(180)"/>
                <rect class="cls-17" x="-275.88" y="180.67" width="278.78" height="61.53"/>
                <rect class="cls-18" x="-275.88" y="222.47" width="278.78" height="19.73"/>
                <rect class="cls-19" x="-275.88" y="233.96" width="278.78" height="8.24"/>
                <rect class="cls-22" x="-275.88" y="279.63" width="278.77" height="7.96"/>
                <rect class="cls-23" x="-275.88" y="154.45" width="278.78" height="11.22"/>
              </g>
            </g>
            <g>
              <g class="cls-26">
                <path class="cls-27" d="M280.86,172.24H207.2a1.59,1.59,0,1,1,0-3.18h73.66a1.59,1.59,0,0,1,0,3.18Z"/>
                <path class="cls-27" d="M329.2,172.24H297.68a1.59,1.59,0,0,1,0-3.18H329.2a1.59,1.59,0,1,1,0,3.18Z"/>
                <path class="cls-27" d="M290.61,172.24h-4a1.59,1.59,0,1,1,0-3.18h4a1.59,1.59,0,0,1,0,3.18Z"/>
              </g>
              <g class="cls-26">
                <path class="cls-27" d="M232.85,202.12H202.06a1.59,1.59,0,1,1,0-3.18h30.79a1.59,1.59,0,0,1,0,3.18Z"/>
                <path class="cls-27" d="M324.06,202.12H261a1.59,1.59,0,1,1,0-3.18h63.09a1.59,1.59,0,0,1,0,3.18Z"/>
                <path class="cls-27" d="M253.9,202.12H238.56a1.59,1.59,0,1,1,0-3.18H253.9a1.59,1.59,0,0,1,0,3.18Z"/>
              </g>
              <g class="cls-26">
                <path class="cls-27" d="M316.92,226.63h-38a1.59,1.59,0,0,1,0-3.18h38a1.59,1.59,0,0,1,0,3.18Z"/>
                <path class="cls-27" d="M392.07,226.63h-67.4a1.59,1.59,0,0,1,0-3.18h67.4a1.59,1.59,0,1,1,0,3.18Z"/>
              </g>
              <g class="cls-26">
                <path class="cls-27" d="M388.86,252.41H315.2a1.59,1.59,0,1,1,0-3.18h73.66a1.59,1.59,0,0,1,0,3.18Z"/>
                <path class="cls-27" d="M298.38,252.41H266.86a1.59,1.59,0,0,1,0-3.18h31.52a1.59,1.59,0,1,1,0,3.18Z"/>
                <path class="cls-27" d="M309.49,252.41h-4a1.59,1.59,0,1,1,0-3.18h4a1.59,1.59,0,0,1,0,3.18Z"/>
              </g>
            </g>
          </g>
          <g>
            <g>
              <g>
                <path class="cls-22" d="M189.81,60.29v39H18.71v-39a4.17,4.17,0,0,1,4.16-4.17H185.65A4.17,4.17,0,0,1,189.81,60.29Z"/>
                <rect class="cls-28" x="63.93" y="13.47" width="80.67" height="168.54" rx="3.18" transform="translate(202 -6.52) rotate(90)"/>
                <rect class="cls-29" x="25.12" y="62.54" width="158.27" height="70.4" rx="3.18"/>
                <g>
                  <rect class="cls-24" x="28.33" y="67.23" width="43.88" height="5.81"/>
                  <rect class="cls-24" x="114.83" y="67.23" width="23.06" height="4.87"/>
                  <rect class="cls-24" x="150.72" y="67.23" width="23.06" height="4.87"/>
                  <rect class="cls-24" x="28.33" y="77.84" width="79.03" height="4.15"/>
                  <g>
                    <g>
                      <rect class="cls-24" x="115.47" y="77.84" width="9.62" height="4.15"/>
                      <rect class="cls-24" x="127.62" y="77.84" width="9.62" height="4.15"/>
                    </g>
                    <g>
                      <rect class="cls-24" x="115.47" y="86.33" width="9.62" height="4.15"/>
                      <rect class="cls-24" x="127.62" y="86.33" width="9.62" height="4.15"/>
                    </g>
                    <g>
                      <rect class="cls-24" x="115.47" y="94.82" width="9.62" height="4.15"/>
                      <rect class="cls-24" x="127.62" y="94.82" width="9.62" height="4.15"/>
                    </g>
                    <g>
                      <rect class="cls-24" x="115.47" y="103.3" width="9.62" height="4.15"/>
                      <rect class="cls-24" x="127.62" y="103.3" width="9.62" height="4.15"/>
                    </g>
                    <g>
                      <rect class="cls-24" x="115.47" y="111.79" width="9.62" height="4.15"/>
                      <rect class="cls-24" x="127.62" y="111.79" width="9.62" height="4.15"/>
                    </g>
                    <g>
                      <rect class="cls-24" x="115.47" y="120.28" width="9.62" height="4.15"/>
                      <rect class="cls-24" x="127.62" y="120.28" width="9.62" height="4.15"/>
                    </g>
                  </g>
                  <g>
                    <g>
                      <rect class="cls-24" x="151.36" y="77.84" width="9.62" height="4.15"/>
                      <rect class="cls-24" x="163.51" y="77.84" width="9.62" height="4.15"/>
                    </g>
                    <g>
                      <rect class="cls-24" x="151.36" y="86.33" width="9.62" height="4.15"/>
                      <rect class="cls-24" x="163.51" y="86.33" width="9.62" height="4.15"/>
                    </g>
                    <g>
                      <rect class="cls-24" x="151.36" y="94.82" width="9.62" height="4.15"/>
                      <rect class="cls-24" x="163.51" y="94.82" width="9.62" height="4.15"/>
                    </g>
                    <g>
                      <rect class="cls-24" x="151.36" y="103.3" width="9.62" height="4.15"/>
                      <rect class="cls-24" x="163.51" y="103.3" width="9.62" height="4.15"/>
                    </g>
                    <g>
                      <rect class="cls-24" x="151.36" y="111.79" width="9.62" height="4.15"/>
                      <rect class="cls-24" x="163.51" y="111.79" width="9.62" height="4.15"/>
                    </g>
                    <g>
                      <rect class="cls-24" x="151.36" y="120.28" width="9.62" height="4.15"/>
                      <rect class="cls-24" x="163.51" y="120.28" width="9.62" height="4.15"/>
                    </g>
                  </g>
                  <rect class="cls-24" x="28.33" y="86.33" width="45.92" height="4.15"/>
                  <rect class="cls-24" x="28.33" y="94.82" width="62.66" height="4.15"/>
                  <rect class="cls-24" x="28.33" y="103.3" width="31.33" height="4.15"/>
                  <rect class="cls-24" x="28.33" y="111.79" width="67.19" height="4.15"/>
                  <rect class="cls-24" x="28.33" y="120.28" width="55.53" height="4.15"/>
                </g>
              </g>
              <g class="cls-30">
                <polygon class="cls-27" points="96.04 57.41 19.99 133.46 19.99 76.49 39.07 57.41 96.04 57.41"/>
                <polygon class="cls-27" points="120.82 57.41 40.16 138.08 27.21 138.08 107.88 57.41 120.82 57.41"/>
                <path class="cls-27" d="M188.53,60.29v6.46l-71.32,71.33H92l80.67-80.67h12.94A2.88,2.88,0,0,1,188.53,60.29Z"/>
                <polygon class="cls-27" points="188.53 72.83 188.53 81.2 131.66 138.08 123.29 138.08 188.53 72.83"/>
                <polygon class="cls-27" points="188.53 99.49 188.53 114.45 164.91 138.08 149.94 138.08 188.53 99.49"/>
              </g>
            </g>
            <g>
              <g>
                <path class="cls-22" d="M335.16,60.29v39h171.1v-39a4.17,4.17,0,0,0-4.16-4.17H339.33A4.17,4.17,0,0,0,335.16,60.29Z"/>
                <rect class="cls-28" x="380.38" y="13.47" width="80.67" height="168.54" rx="3.18" transform="translate(518.45 -322.97) rotate(90)"/>
                <rect class="cls-29" x="341.57" y="62.54" width="158.27" height="70.4" rx="3.18" transform="translate(841.42 195.48) rotate(180)"/>
                <g>
                  <rect class="cls-24" x="351.2" y="67.23" width="23.06" height="4.87" transform="translate(725.45 139.32) rotate(180)"/>
                  <g>
                    <g>
                      <rect class="cls-24" x="363.99" y="77.84" width="9.62" height="4.15" transform="translate(737.61 159.84) rotate(180)"/>
                      <rect class="cls-24" x="351.84" y="77.84" width="9.62" height="4.15" transform="translate(713.3 159.84) rotate(180)"/>
                    </g>
                    <g>
                      <rect class="cls-24" x="363.99" y="86.33" width="9.62" height="4.15" transform="translate(737.61 176.81) rotate(180)"/>
                      <rect class="cls-24" x="351.84" y="86.33" width="9.62" height="4.15" transform="translate(713.3 176.81) rotate(180)"/>
                    </g>
                    <g>
                      <rect class="cls-24" x="363.99" y="94.82" width="9.62" height="4.15" transform="translate(737.61 193.78) rotate(180)"/>
                      <rect class="cls-24" x="351.84" y="94.82" width="9.62" height="4.15" transform="translate(713.3 193.78) rotate(180)"/>
                    </g>
                    <g>
                      <rect class="cls-24" x="363.99" y="103.3" width="9.62" height="4.15" transform="translate(737.61 210.76) rotate(180)"/>
                      <rect class="cls-24" x="351.84" y="103.3" width="9.62" height="4.15" transform="translate(713.3 210.76) rotate(180)"/>
                    </g>
                    <g>
                      <rect class="cls-24" x="363.99" y="111.79" width="9.62" height="4.15" transform="translate(737.61 227.73) rotate(180)"/>
                      <rect class="cls-24" x="351.84" y="111.79" width="9.62" height="4.15" transform="translate(713.3 227.73) rotate(180)"/>
                    </g>
                    <g>
                      <rect class="cls-24" x="363.99" y="120.28" width="9.62" height="4.15" transform="translate(737.61 244.7) rotate(180)"/>
                      <rect class="cls-24" x="351.84" y="120.28" width="9.62" height="4.15" transform="translate(713.3 244.7) rotate(180)"/>
                    </g>
                  </g>
                </g>
              </g>
              <g class="cls-30">
                <path class="cls-27" d="M336.44,60.29v6.46l71.32,71.33h25.17L352.26,57.41H339.33A2.88,2.88,0,0,0,336.44,60.29Z"/>
                <polygon class="cls-27" points="336.44 72.83 336.44 81.2 393.31 138.08 401.68 138.08 336.44 72.83"/>
                <polygon class="cls-27" points="336.44 99.49 336.44 114.45 360.06 138.08 375.03 138.08 336.44 99.49"/>
              </g>
            </g>
            <g>
              <g>
                <rect class="cls-31" x="-386.13" y="34.69" width="1297.22" height="11.43"/>
                <rect class="cls-23" x="-386.13" y="40.4" width="1297.22" height="5.71"/>
              </g>
              <g>
                <g>
                  <rect class="cls-32" x="254.42" y="-72.79" width="8.06" height="107.47"/>
                  <g>
                    <rect class="cls-32" x="83.91" y="-72.79" width="15.5" height="107.47"/>
                    <g>
                      <g>
                        <polygon class="cls-32" points="83.91 27.53 83.91 34.69 73.59 34.69 6.42 -11.9 -3.92 -19.05 -67 -62.8 -71.09 -65.63 -71.09 -72.79 -60.77 -72.79 6.42 -26.2 16.73 -19.05 79.81 24.68 83.91 27.53"/>
                        <polygon class="cls-23" points="79.81 24.68 83.91 27.53 83.91 34.69 79.81 34.69 79.81 24.68"/>
                      </g>
                      <polygon class="cls-32" points="83.91 -72.79 83.91 -65.63 79.81 -62.78 16.73 -19.05 6.42 -11.9 -60.77 34.69 -71.09 34.69 -71.09 27.53 -67 24.69 -3.92 -19.05 6.42 -26.2 73.59 -72.79 83.91 -72.79"/>
                    </g>
                    <g>
                      <g>
                        <polygon class="cls-32" points="254.42 27.53 254.42 34.69 244.1 34.69 176.93 -11.9 166.59 -19.05 103.51 -62.8 99.42 -65.63 99.42 -72.79 109.74 -72.79 176.93 -26.2 187.25 -19.05 250.32 24.68 254.42 27.53"/>
                        <polygon class="cls-23" points="250.32 24.68 254.42 27.53 254.42 34.69 250.32 34.69 250.32 24.68"/>
                      </g>
                      <g>
                        <polygon class="cls-32" points="254.42 -72.79 254.42 -65.63 250.32 -62.78 187.25 -19.05 176.93 -11.9 109.74 34.69 99.42 34.69 99.42 27.53 103.51 24.69 166.59 -19.05 176.93 -26.2 244.1 -72.79 254.42 -72.79"/>
                        <polygon class="cls-23" points="99.42 27.53 103.51 24.69 103.51 34.69 99.42 34.69 99.42 27.53"/>
                      </g>
                    </g>
                  </g>
                </g>
                <g>
                  <rect class="cls-32" x="262.49" y="-72.79" width="8.06" height="107.47"/>
                  <g>
                    <g>
                      <polygon class="cls-32" points="270.55 27.53 270.55 34.69 280.87 34.69 348.05 -11.9 358.38 -19.05 421.47 -62.8 425.56 -65.63 425.56 -72.79 415.24 -72.79 348.05 -26.2 337.73 -19.05 274.65 24.68 270.55 27.53"/>
                      <polygon class="cls-23" points="274.65 24.68 270.55 27.53 270.55 34.69 274.65 34.69 274.65 24.68"/>
                    </g>
                    <polygon class="cls-32" points="270.55 -72.79 270.55 -65.63 274.65 -62.78 337.73 -19.05 348.05 -11.9 415.24 34.69 425.56 34.69 425.56 27.53 421.47 24.69 358.38 -19.05 348.05 -26.2 280.87 -72.79 270.55 -72.79"/>
                  </g>
                </g>
              </g>
            </g>
          </g>
        </g>
        <g>
          <ellipse class="cls-22" cx="214.24" cy="315" rx="29.62" ry="1.73"/>
          <g>
            <path class="cls-33" d="M200.46,248.28c3.69-1,8.67-2.33,10.51-2.92l-2.29-5.84s-7.36.95-10.62,1.51S195.87,249.54,200.46,248.28Z"/>
            <g>
              <g>
                <g>
                  <path class="cls-34" d="M211.51,315.44h5.4l.78-.44.56.44h5.46a.58.58,0,0,0,.58-.61l0-.92a9.25,9.25,0,0,0-.4-1.66,6.23,6.23,0,0,1-.22-.95l-.14-.85h-6.19l-1.09,1.47a2.58,2.58,0,0,1-2,.49h-.87a1.31,1.31,0,0,0-1.15.67l-1,1.66,0,.07A.42.42,0,0,0,211.51,315.44Z"/>
                  <path class="cls-25" d="M211.51,315.44h5.4l.78-.44.56.44h5.46a.58.58,0,0,0,.58-.61l0-.92h-6.3a1.37,1.37,0,0,0-.78.25l-.6.43a.88.88,0,0,1-.49.15h-4.89l0,.07A.42.42,0,0,0,211.51,315.44Z"/>
                </g>
                <path class="cls-35" d="M224.29,314.83l0-.92h-4.82a13.39,13.39,0,0,1,1.1-3.46h3l.14.85a6.23,6.23,0,0,0,.22.95,9.25,9.25,0,0,1,.4,1.66l0,.92a.58.58,0,0,1-.58.61h0A.58.58,0,0,0,224.29,314.83Z"/>
                <path class="cls-2" d="M224.24,313.91l0,.92a.58.58,0,0,1-.58.61h-4.38a11.35,11.35,0,0,1,.09-1.53Z"/>
              </g>
              <polygon class="cls-36" points="216.91 315.44 218.25 315.44 217.69 315 216.91 315.44"/>
            </g>
            <g>
              <g>
                <g>
                  <path class="cls-34" d="M201.46,315.44h5.4l.78-.44.57.44h5.45a.58.58,0,0,0,.58-.61l-.05-.92a9.25,9.25,0,0,0-.4-1.66,6.23,6.23,0,0,1-.22-.95l-.14-.85h-6.19l-1.09,1.47a2.57,2.57,0,0,1-2,.49h-.87a1.32,1.32,0,0,0-1.15.67l-1,1.66,0,.07A.43.43,0,0,0,201.46,315.44Z"/>
                  <path class="cls-25" d="M201.46,315.44h5.4l.78-.44.57.44h5.45a.58.58,0,0,0,.58-.61l-.05-.92H207.9a1.4,1.4,0,0,0-.79.25l-.6.43a.86.86,0,0,1-.49.15h-4.89l0,.07A.43.43,0,0,0,201.46,315.44Z"/>
                </g>
                <path class="cls-35" d="M214.24,314.83l-.05-.92h-4.82a13.39,13.39,0,0,1,1.1-3.46h3l.14.85a7.7,7.7,0,0,0,.22.95,9.25,9.25,0,0,1,.4,1.66l.05.92a.57.57,0,0,1-.58.61h0A.58.58,0,0,0,214.24,314.83Z"/>
                <path class="cls-2" d="M214.19,313.91l.05.92a.58.58,0,0,1-.58.61h-4.38a13.28,13.28,0,0,1,.09-1.53Z"/>
              </g>
              <polygon class="cls-36" points="206.86 315.44 208.21 315.44 207.64 315 206.86 315.44"/>
            </g>
            <path class="cls-37" d="M213.07,256.82l2.35,29.53.69,25a.24.24,0,0,0,.24.24h7.44a.26.26,0,0,0,.25-.24l.19-25L226,256.82Z"/>
            <path class="cls-38" d="M214.29,256.82h-1.22l2.35,29.53.69,25a.24.24,0,0,0,.24.24h1.17l-.61-24.24Z"/>
            <path class="cls-37" d="M204.61,257.27l.74,29.08.71,24.94c0,.27.15.31.3.31h7.39a.24.24,0,0,0,.23-.22l.42-25,3.16-29.53Z"/>
            <path class="cls-38" d="M205.55,257.24l-.94,0,.74,29.08.71,24.94c0,.27.15.31.3.31h1.12l-1-25.28Z"/>
            <path class="cls-33" d="M208.94,221.44h13.9a5.22,5.22,0,0,1,5.22,5.6s-1.92,20-1.92,23.44a52.22,52.22,0,0,0,.57,6.75.86.86,0,0,1-.86,1H205c-.52,0-.73-.14-.68-.65.26-2.62.75-7.94.75-14,0-7.46-.82-17.23-.82-17.23A4.67,4.67,0,0,1,208.94,221.44Z"/>
            <path class="cls-33" d="M204.85,223.86l-9,18.95c-1,2.17-.35,4.57,1.43,5.37a4.28,4.28,0,0,0,5.39-1.71c2.45-4.35,7.48-13.06,9.51-17.32C215.11,222.93,206.71,220.34,204.85,223.86Z"/>
            <g>
              <g>
                <path class="cls-39" d="M214.48,202c-2.92,0-6.64,1.59-6.64,8.53,0,4.7.76,7.14,1.25,8.23a1.27,1.27,0,0,0,1.14.73H215c1.7,0,7.33-2,7.33-8.85C222.28,206.22,220.3,202,214.48,202Z"/>
                <path class="cls-40" d="M222.28,210.63c0,6.8-5.62,8.85-7.32,8.85h-4.51a3.39,3.39,0,0,1-.86-1.32c-1.93-4.83-.55-13.08-.54-13.19l.12-.2,0,0a3.57,3.57,0,0,1,.25-.38c.14-.19.29-.36.44-.53s.21-.21.31-.3l.17-.15.16-.13.16-.12.34-.23.18-.11.35-.18.15-.07.4-.16.17-.06.4-.12.16,0a7.82,7.82,0,0,1,.8-.13l.22,0c.21,0,.42,0,.62,0C220.3,202,222.28,206.22,222.28,210.63Z"/>
              </g>
              <path class="cls-40" d="M219,217.24a9.15,9.15,0,0,0,.93,4.2h-8.17a6.38,6.38,0,0,0,1.48-4.23Z"/>
              <path class="cls-38" d="M209.67,212.32c-.89-.72-.5-2.84-1-3.08a4.81,4.81,0,0,0-.5-.22.36.36,0,0,1-.18-.12,9.21,9.21,0,0,1-1-6.91s.52,1.29,2.14.58c1.16-.51,9.15-4.09,12.77,2.11,0,0,4.32,6-2,12.44-.37.37-.72.79-2.63.79-6,0-6.18-2.88-6.18-2.88a2.13,2.13,0,0,0,.58-2.53C210.62,209.57,209.67,212.32,209.67,212.32Z"/>
              <path class="cls-25" d="M219.91,217.12c-.37.37-.72.8-2.63.8-6,0-6.18-2.89-6.18-2.89a2.13,2.13,0,0,0,.58-2.53c-1.06-2.93-2-.18-2-.18-.46-.84-.06-4.46-.65-4.74a4.19,4.19,0,0,0-.59-.26.52.52,0,0,1-.22-.14A9.94,9.94,0,0,1,207,202v0s.52,1.29,2.14.58c1.16-.51,9.15-4.09,12.77,2.11C221.93,204.68,226.25,210.73,219.91,217.12Z"/>
              <path class="cls-27" d="M220.84,221.44l-.46-.9a.71.71,0,0,0-.64-.39h-5.2c-2.41,0-3.4.94-3.4,1.29Z"/>
            </g>
            <path class="cls-27" d="M205.08,242.16h0c0,.47,0,.94,0,1.39,0,6.07-.49,11.39-.75,14-.05.51.16.65.68.65C204.85,257.68,206.22,247.39,205.08,242.16Z"/>
            <path class="cls-27" d="M196.72,242.25c.42-.91,8.08-16.64,8.72-18a4.78,4.78,0,0,1,4.25-2.39h14.1a4.09,4.09,0,0,1,2.9,1.24,5.19,5.19,0,0,0-3.85-1.69h-13.9a4.66,4.66,0,0,0-4,2.3l-.07.12,0,.06-.15.33-8.84,18.56c-1,2.17-.35,4.57,1.43,5.37a4.31,4.31,0,0,0,1.86.35,3.31,3.31,0,0,1-2.31-1C195.23,246.17,196.1,243.6,196.72,242.25Z"/>
          </g>
        </g>
        <g>
          <path class="cls-22" d="M80.61,327.72c0,1.48,20.54,2.67,45.88,2.67s45.88-1.19,45.88-2.67S151.83,325,126.49,325,80.61,326.24,80.61,327.72Z"/>
          <g>
            <g>
              <g>
                <path class="cls-41" d="M115.19,326.06v1.29a1.25,1.25,0,0,1-.19.56.89.89,0,0,1-.75.39H102.07a.6.6,0,0,1-.33-.64v-.07c0-.1,0-.29.05-.51,0-.05,0-.1,0-.15a.86.86,0,0,0,0-.16v-.1c0-.35.07-.67.08-.72.23-1.26,1-1.28,2.23-1.51,2.24-.41,2-1.48,2.65-2.15a1.52,1.52,0,0,1,1.07-.46h6l.19,0a.6.6,0,0,1,.19.06,1.12,1.12,0,0,1,.24.13l.07.06a.23.23,0,0,1,.07.07.86.86,0,0,1,.2.33l0,.08s0,.06,0,.09,0,.06,0,.1Z"/>
                <path class="cls-42" d="M115.19,326.06v1.29a1.25,1.25,0,0,1-.19.56.89.89,0,0,1-.75.39H102.07a.6.6,0,0,1-.33-.64v-.07c0-.1,0-.29.05-.51,0-.05,0-.1,0-.15a.86.86,0,0,0,0-.16v-.1c1.32.38,4.06-.1,6.09-2.43a9.88,9.88,0,0,1,2.93-2.41h3l.19,0a.6.6,0,0,1,.19.06.8.8,0,0,1,.24.13l.07.06a.23.23,0,0,1,.07.07.86.86,0,0,1,.2.33l0,.08s0,.06,0,.09,0,.06,0,.1Z"/>
              </g>
              <path class="cls-43" d="M107.54,261.48S106,320.9,106,322.59s9.26,2,9.26.42c0-1,1.91-27.69,1.91-27.69s4.41-31.8,4.5-33.84Z"/>
              <g>
                <path class="cls-41" d="M120.93,326.06v1.29a1.25,1.25,0,0,0,.19.56.89.89,0,0,0,.75.39h12.18a.62.62,0,0,0,.33-.64v-.07c0-.1,0-.29-.06-.51a.76.76,0,0,0,0-.15c0-.05,0-.11,0-.16v-.1c0-.35-.07-.67-.08-.72-.23-1.26-1-1.28-2.23-1.51-2.24-.41-2-1.48-2.65-2.15a1.52,1.52,0,0,0-1.07-.46h-6l-.19,0a.6.6,0,0,0-.19.06,1.12,1.12,0,0,0-.24.13l-.07.06a.23.23,0,0,0-.07.07.86.86,0,0,0-.2.33l0,.08s0,.06,0,.09,0,.06,0,.1Z"/>
                <path class="cls-42" d="M120.93,326.06v1.29a1.25,1.25,0,0,0,.19.56.89.89,0,0,0,.75.39h12.18a.62.62,0,0,0,.33-.64v-.07c0-.1,0-.29-.06-.51a.76.76,0,0,0,0-.15c0-.05,0-.11,0-.16v-.1c-1.32.38-4.06-.1-6.09-2.43a9.88,9.88,0,0,0-2.93-2.41h-3l-.19,0a.6.6,0,0,0-.19.06.8.8,0,0,0-.24.13l-.07.06a.23.23,0,0,0-.07.07.86.86,0,0,0-.2.33l0,.08a.29.29,0,0,0,0,.09s0,.06,0,.1Z"/>
              </g>
              <path class="cls-43" d="M132.1,261.48s-1.89,59.8-1.89,61.49-9.26,1.79-9.26.19c0-1-.42-27.84-.42-27.84S119,263.52,119,261.48Z"/>
              <path class="cls-44" d="M130.9,261.48l-1.69,62.29a15.9,15.9,0,0,1-7.32.13V299c0-2.68-2.22-22.1-2.22-22.1s-3.93,19.18-4.18,22.55l-1.83,24.4a16,16,0,0,1-6.85-.53l1.6-61.87Z"/>
            </g>
            <g>
              <g>
                <path class="cls-45" d="M119.82,221.61h-3.63v-9h7.26v9Z"/>
                <g>
                  <path class="cls-45" d="M114.87,210.7c0,1.25-.51,2.27-1.48,2.27s-.83-.35-1-2.27c-.13-1.25-1.16-2.28.78-2.28A2.07,2.07,0,0,1,114.87,210.7Z"/>
                  <path class="cls-45" d="M124.76,210.7c0,1.25.52,2.27,1.49,2.27s.83-.35,1-2.27c.14-1.25,1.17-2.28-.77-2.28A2.07,2.07,0,0,0,124.76,210.7Z"/>
                  <path class="cls-45" d="M119.82,199.14a7.19,7.19,0,0,0-7.38,7l.42,3.87a19.53,19.53,0,0,0,1.47,5.66c1.18,2.7,2.43,3.7,5.49,3.7s4.31-1,5.48-3.7a19.55,19.55,0,0,0,1.48-5.66l.42-3.87A7.2,7.2,0,0,0,119.82,199.14Z"/>
                  <path class="cls-46" d="M125.33,200.83c-1.06-1.35-1.91-2.9-5.51-2.9a8.66,8.66,0,0,0-6.88,3.41,6,6,0,0,1-3.65,2.2l-.49.08c1.75.54,2.65.89,2.65.89a7.85,7.85,0,0,0-2.18,1c1.87.63,3.52,3.53,4.25,7.47.45,2.41,2.68,5.78,6.28,5.78h0c3.6,0,5.84-3.37,6.29-5.78.73-3.94,2-4.82,2-7.58C128.14,202.83,126.8,201.26,125.33,200.83Z"/>
                  <path class="cls-25" d="M128.14,205.35c0,2.76-1.29,3.65-2,7.58a7.82,7.82,0,0,1-1.38,3.08l-.11.15-.09.12a6,6,0,0,1-4.71,2.42h0a6.11,6.11,0,0,1-5-2.77,7.82,7.82,0,0,1-1.31-3c-.73-3.93-2.38-6.84-4.25-7.47a7.88,7.88,0,0,1,2.18-1s-.89-.35-2.63-.88h0l.49-.08a6.11,6.11,0,0,0,3.66-2.2,8.62,8.62,0,0,1,6.87-3.41c3.61,0,4.45,1.55,5.51,2.9C126.8,201.26,128.14,202.83,128.14,205.35Z"/>
                  <path class="cls-47" d="M114.83,215.93a7.82,7.82,0,0,1-1.31-3c-.73-3.93-2.38-6.84-4.25-7.47a7.88,7.88,0,0,1,2.18-1s.54.46,0,.6c-.25.06-.72.14-1.16.21C113.64,207.44,113.77,212.45,114.83,215.93Z"/>
                  <path class="cls-25" d="M128.14,205.35c0,2.76-1.29,3.65-2,7.58a7.82,7.82,0,0,1-1.38,3.08c1-1.5,1-4.56,2.26-7.95s-2.24-6.35-2.24-6.35a7.56,7.56,0,0,0-5.49-2.52c-3.44,0-5.14,2.79-6.83,3.83a5.34,5.34,0,0,1-3.62.61h0l.49-.08a6.11,6.11,0,0,0,3.66-2.2,8.62,8.62,0,0,1,6.87-3.41c3.61,0,4.45,1.55,5.51,2.9C126.8,201.26,128.14,202.83,128.14,205.35Z"/>
                </g>
              </g>
              <polygon class="cls-48" points="123.45 219.9 119.82 219.9 116.19 219.9 114.84 221.61 119.82 221.32 124.8 221.61 123.45 219.9"/>
            </g>
            <path class="cls-49" d="M129.92,222.1a5.63,5.63,0,0,0-2.35-.49s-3-.29-7.75-.29-7.67.29-7.67.29a5.56,5.56,0,0,0-3.16.95,5.27,5.27,0,0,0-2.33,4.33l1.39,24.44-.87,11.75a.76.76,0,0,0,.44.74c1,.43,3.82,1.21,11.61,1.21,8.15,0,11.55-.85,12.72-1.26a.76.76,0,0,0,.5-.76l-.87-11.68L133,226.89A5.15,5.15,0,0,0,129.92,222.1Z"/>
            <g>
              <g>
                <path class="cls-50" d="M101.27,267.68c.66,0,2.62,1.55,2.68,2.37s.59,6,.22,7c.28,0,.82.5.63.9a.54.54,0,0,1-.52.36s.08.58-.66.67c0,0-.12.53-.57.56,0,0,.06.61-.81.55a6.72,6.72,0,0,1-2.16-.63c-.2-.12-2.54-2.58-2.54-3s1.28-6.07,1.39-6.67S100.05,267.67,101.27,267.68Z"/>
                <path class="cls-51" d="M100.86,278.56a7.29,7.29,0,0,0,1.2.56c.34,0,.71-.31.52-.53,0,0,.75-.09.54-.42,0,0,.84-.13.65-.42,0,0,.73-.38.4-.66a.68.68,0,0,1-.62-.56,16.67,16.67,0,0,1-.19-2.55,8.39,8.39,0,0,1-1-2.39s-.58,2.66-2.68,3.38c0,0-.13,1.59-.1,1.75A12.94,12.94,0,0,0,100.86,278.56Z"/>
              </g>
              <path class="cls-49" d="M111.81,221.61c-4.49,0-7.43,2.17-8.62,5.6s-4.82,22.29-4.82,22.29-.3,18.51-.3,20.15,6.54,1.8,6.64,0,1.18-19.3,1.18-19.3,4.13-19,4.92-21.22S113.92,221.61,111.81,221.61Z"/>
            </g>
            <g>
              <path class="cls-45" d="M152.3,264.92a18.32,18.32,0,0,1,2.07,2,4.42,4.42,0,0,1,.58,2.28c-.1.48-1.57,1.49-1.9,1.64s-1-.71-.52-1.18,1-1,1-1l-.13-1.49Z"/>
              <g>
                <g>
                  <g>
                    <rect class="cls-52" x="144.84" y="268.87" width="11.89" height="1.64"/>
                    <rect class="cls-52" x="143.84" y="269.87" width="3.64" height="1.64" transform="translate(416.35 125.04) rotate(90)"/>
                    <rect class="cls-27" x="135.78" y="281.75" width="19.76" height="1.3" transform="translate(428.06 136.74) rotate(90)"/>
                    <rect class="cls-23" x="145.49" y="283.3" width="0.33" height="1.3" transform="translate(429.61 138.29) rotate(90)"/>
                    <rect class="cls-27" x="146.03" y="281.75" width="19.76" height="1.3" transform="translate(438.31 126.49) rotate(90)"/>
                    <rect class="cls-23" x="155.75" y="283.3" width="0.33" height="1.3" transform="translate(439.86 128.04) rotate(90)"/>
                    <rect class="cls-52" x="154.09" y="269.87" width="3.64" height="1.64" transform="translate(426.6 114.78) rotate(90)"/>
                  </g>
                  <path class="cls-52" d="M144,291.71h13.65a4.62,4.62,0,0,1,4.62,4.62v25.85a2,2,0,0,1-2,2H141.38a2,2,0,0,1-2-2V296.34a4.62,4.62,0,0,1,4.62-4.62Z"/>
                  <path class="cls-53" d="M144,292.28h13.65a4.62,4.62,0,0,1,4.62,4.62v25.85a2,2,0,0,1-2,2H141.38a2,2,0,0,1-2-2V296.9a4.62,4.62,0,0,1,4.62-4.62Z"/>
                  <path class="cls-54" d="M161.44,293.47v29.85a.69.69,0,0,1-.69.68H140.82a.69.69,0,0,1-.69-.68V293.47a3.32,3.32,0,0,1,2.56-1.19h16.19A3.32,3.32,0,0,1,161.44,293.47Z"/>
                  <path class="cls-52" d="M162.23,310.12h0a.4.4,0,0,1-.4-.38,6.1,6.1,0,0,0-6.08-5.71h-9.93a6.1,6.1,0,0,0-6.08,5.71.4.4,0,0,1-.4.38h0a6.49,6.49,0,0,1,6.48-6.48h9.93A6.49,6.49,0,0,1,162.23,310.12Z"/>
                  <rect class="cls-52" x="144.31" y="310.89" width="12.95" height="0.56" rx="0.11"/>
                  <rect class="cls-52" x="146.2" y="297.87" width="9.17" height="1.66"/>
                </g>
                <g>
                  <path class="cls-49" d="M142.23,324.79h.67a0,0,0,0,1,0,0v1.63a0,0,0,0,1,0,0h-.4a.27.27,0,0,1-.27-.27v-1.36A0,0,0,0,1,142.23,324.79Z"/>
                  <path class="cls-49" d="M144.6,324.79h.67a0,0,0,0,1,0,0v1.36a.27.27,0,0,1-.27.27h-.4a0,0,0,0,1,0,0v-1.63A0,0,0,0,1,144.6,324.79Z"/>
                  <rect class="cls-49" x="143.41" y="324.27" width="0.67" height="1.7" transform="translate(-181.38 468.87) rotate(-90)"/>
                  <rect class="cls-52" x="142.9" y="325.46" width="1.7" height="2.84" rx="0.34"/>
                </g>
                <g>
                  <path class="cls-49" d="M158.94,324.79h.4a0,0,0,0,1,0,0v1.63a0,0,0,0,1,0,0h-.67a0,0,0,0,1,0,0v-1.36A.27.27,0,0,1,158.94,324.79Z" transform="translate(318.02 651.21) rotate(180)"/>
                  <path class="cls-49" d="M156.3,324.79h.4a.27.27,0,0,1,.27.27v1.36a0,0,0,0,1,0,0h-.67a0,0,0,0,1,0,0v-1.63A0,0,0,0,1,156.3,324.79Z" transform="translate(313.27 651.21) rotate(-180)"/>
                  <rect class="cls-49" x="157.49" y="324.27" width="0.67" height="1.7" transform="translate(-167.3 482.95) rotate(-90)"/>
                  <rect class="cls-52" x="156.97" y="325.46" width="1.7" height="2.84" rx="0.34" transform="translate(315.64 653.77) rotate(180)"/>
                </g>
              </g>
              <path class="cls-45" d="M145.58,266s.45,2.11.58,2.82.3,1.58.36,1.73a2.07,2.07,0,0,0,1.22.87,1.58,1.58,0,0,0,.79-.28,1.58,1.58,0,0,0,.83.28,2.87,2.87,0,0,0,1-.28,2.92,2.92,0,0,0,1,.28,2.43,2.43,0,0,0,.91-.28,2,2,0,0,0,.86.28,1.06,1.06,0,0,0,1.18-.87,15.83,15.83,0,0,0-.3-3.7,42.35,42.35,0,0,0-3.23-3.4c-.31-.44-2.28-2.54-4.53-1.54S145.58,266,145.58,266Z"/>
              <path class="cls-49" d="M128,221.61c1.89,0,6.22,1.21,7.41,4.64s7.08,23.37,7.08,23.37S150.24,261.56,151,263c.83,1.65-5.27,4.49-6.18,2.94-1.25-2.11-9.48-13.37-9.48-13.37s-7.45-22.84-8.23-25.1S125.86,221.61,128,221.61Z"/>
            </g>
            <path class="cls-55" d="M153.49,267.88l-7-.8-.46-.67-9.71-13.83a3.59,3.59,0,0,1-.45-.87l-4.54-12.84-1,11.41a14.87,14.87,0,0,0,0,2.11l.67,11.68c-1.75.43-5.22,1-11.67,1s-9.46-.53-10.89-.95c0,0,.83-11.4.78-12.95s-1.34-11.79-1.34-11.79l-2.73,9.94a6.76,6.76,0,0,0-.24,1.54L104,270.5l-.1,2.13-5.35-1,0-1.23.53-20.16a7.87,7.87,0,0,1,.12-1.18c.62-3.43,3.75-20.78,4.61-22.17,1-1.55,2.54-4.63,8.12-4.63H127.2c1.73,0,6,.75,7.25,4.13s6.79,22.64,7.19,23.57c.27.64,5.8,8.94,9.21,14Z"/>
          </g>
        </g>
        <rect id="background" class="cls-1" x="-194.4" y="-125.97" width="913.78" height="646.1"/>
      </g>
    </g>
    <path class="cls-56" d="M306.6.29H60.23A60,60,0,0,0,.32,60.2V306.57A65.77,65.77,0,0,0,66,372.26H306.6a65.77,65.77,0,0,0,65.69-65.69V66A65.77,65.77,0,0,0,306.6.29Zm55.08,306.28a55.08,55.08,0,0,1-55.08,55.08H66a55.08,55.08,0,0,1-55.08-55.08V64.17A53.27,53.27,0,0,1,64.2,10.9H306.6A55.08,55.08,0,0,1,361.68,66Z"/>
  </g>
</svg>
