<svg id="Layer_1" data-name="Layer 1" xmlns="http://www.w3.org/2000/svg" xmlns:xlink="http://www.w3.org/1999/xlink" width="460" height="462" viewBox="0 0 460 462">
  <defs>
    <style>
      .cls-1, .cls-11, .cls-13, .cls-15, .cls-17, .cls-18, .cls-2, .cls-35, .cls-8 {
        fill: none;
      }

      .cls-2 {
        clip-rule: evenodd;
      }

      .cls-3 {
        opacity: 0.5;
      }

      .cls-4 {
        clip-path: url(#clip-path);
      }

      .cls-5 {
        fill: url(#linear-gradient);
      }

      .cls-6 {
        fill: #9dc2d4;
      }

      .cls-10, .cls-38, .cls-39, .cls-6, .cls-7 {
        fill-rule: evenodd;
      }

      .cls-7 {
        fill: #a1c96d;
      }

      .cls-8 {
        stroke: #75bfa8;
      }

      .cls-11, .cls-13, .cls-15, .cls-17, .cls-18, .cls-8 {
        stroke-miterlimit: 22.93;
        stroke-width: 0px;
      }

      .cls-9 {
        clip-path: url(#clip-path-2);
      }

      .cls-10 {
        fill: #5c6163;
      }

      .cls-11 {
        stroke: #52646e;
      }

      .cls-12 {
        fill: #818f96;
      }

      .cls-13 {
        stroke: #818f96;
      }

      .cls-14 {
        fill: #73828a;
      }

      .cls-15 {
        stroke: #73828a;
      }

      .cls-16 {
        fill: #63747d;
      }

      .cls-17 {
        stroke: #63747d;
      }

      .cls-18 {
        stroke: #677e89;
      }

      .cls-19 {
        opacity: 0.63;
      }

      .cls-20 {
        fill: #3d8723;
      }

      .cls-21 {
        fill: #000b19;
        opacity: 0.3;
      }

      .cls-22 {
        fill: #091e28;
      }

      .cls-23, .cls-38 {
        fill: #0c2635;
      }

      .cls-24, .cls-39 {
        fill: #f0f2f8;
      }

      .cls-25 {
        fill: #a6b3c6;
      }

      .cls-26 {
        fill: #56595b;
      }

      .cls-27 {
        fill: #225ec4;
      }

      .cls-28 {
        fill: #6c8094;
      }

      .cls-29 {
        fill: #153b4f;
      }

      .cls-30 {
        fill: #231f20;
      }

      .cls-30, .cls-36 {
        opacity: 0.1;
      }

      .cls-31 {
        fill: #ee252c;
      }

      .cls-32, .cls-33 {
        fill: #fff;
      }

      .cls-33 {
        opacity: 0.4;
      }

      .cls-34 {
        fill: #647a7a;
      }

      .cls-35 {
        stroke: #404041;
        stroke-linejoin: round;
        stroke-width: 0.65px;
      }

      .cls-36 {
        fill: #0c1b24;
      }

      .cls-37 {
        fill: #a6a8ab;
      }

      .cls-40 {
        fill: #ccc;
      }

      .cls-41 {
        fill: #ff0;
      }
    </style>
    <clipPath id="clip-path">
      <rect class="cls-1" x="13.03" y="12.79" width="424.99" height="424.99" rx="26.14"/>
    </clipPath>
    <linearGradient id="linear-gradient" x1="-225.86" y1="1035.54" x2="663.97" y2="-522.04" gradientUnits="userSpaceOnUse">
      <stop offset="0.2" stop-color="#c5f7fd"/>
      <stop offset="0.34" stop-color="#b3f0fd"/>
      <stop offset="0.66" stop-color="#8ee1fd"/>
      <stop offset="0.83" stop-color="#80dbfd"/>
    </linearGradient>
    <clipPath id="clip-path-2">
      <polygon class="cls-2" points="1110.56 517.65 -379.71 517.65 -379.71 226.47 1110.56 226.47 1110.56 517.65 1110.56 517.65"/>
    </clipPath>
  </defs>
  <g>
    <path class="cls-3" d="M380.15,11.49H81.8A72.64,72.64,0,0,0,9.24,84V382.4A79.65,79.65,0,0,0,88.8,462H380.15a79.65,79.65,0,0,0,79.56-79.55V91A79.65,79.65,0,0,0,380.15,11.49Zm66.7,370.91a66.7,66.7,0,0,1-66.7,66.7H88.8a66.71,66.71,0,0,1-66.71-66.7V88.85A64.51,64.51,0,0,1,86.6,24.34H380.15a66.71,66.71,0,0,1,66.7,66.71Z"/>
    <g class="cls-4">
      <g>
        <rect class="cls-5" x="-402.52" y="-245.66" width="1541.97" height="481.76"/>
        <g>
          <path class="cls-6" d="M16.57,85.24V62.89h-3V82.64l-1.19-1v33.07H6.12v86.62l-9.73,13.1h-8l-52.79-35.84V146.8L-104.29,170v14.82h-7.54v4.83H-106v1.3h-.94v.87h.94v1.74h-11.79v6h-2.44v-9.26h3.12v-1.49h-3.12v-9.27h3.12V178h-3.12v-9.26h3.12v-1.5h-3.12V158h3.12v-1.49h-3.12v-9.26h3.12v-1.5h-3.12v-9.26h3.12V135h-3.12v-8.5h3l.18-23h-33.29l-11.33,8.07h-57v15h2.69V135h-2.6v1.49h2.6v9.26h-2.6v1.5h2.6v9.26h-2.6V158h2.6v9.26h-2.6v1.5h2.6V178h-2.6v1.49h2.6v9.27h-2.6v1.49h2.6v9.26h-2.6V201h2.6v9.25h-2.6v1.5h2.6V221h-2.6v1.49h2.6v3.21h-2.38v-.35H-219v-4.8h.74v-.77H-219V215h.74v-.77H-219v-4.8h.74v-.77H-219v-4.8h.74v-.77H-219v-4.25h.16v-6.18h-7.23v-6h-59.08v6h-7.22v6.18h.16v4.25h-.75v.77h.75v4.8h-.75v.77h.75v4.8h-.75V215h.75v4.8h-.75v.77h.75v2h-7V218.7h.55v-.65h-.55v-3.57h.12v-5.19h-5.31v-5H-347.8v5h-5.31v5.19h.12v3.57h-.55v.65h.55v4h-.55v.66h.55v4h-.55v.65h.55v4h-.55v.65h.55v4h-.55v.65h.55v4h-.55v.65h.55v4h-.55v.66h.55v4h-.55v.65h.55v4h-.55v.65h.55v4h-.55v.65h.55v4h-.55v.66h.55v4h-.55v.65h.55v4h-.55v.65h.55v4h-.55v.65h.55v4.51h-3.4v5h3.4v3.08h-3.4v5h142v-3.91h97.29V289.7h5.24v6.13h44.24l-1.67,8.93h68.1L-3.36,293H.44v-2.7H6.12v7.5H86.79l-.15-1.1h79.5v-3.15h3.68v1.88H357.74v1.75h13.72l-.5,1H552c-10.54-21.32-43.19-37.28-82.77-39.14v-.2h.43V258h-.43v-4.9h.43v-.79h-.43v-4.9h.43v-.79h-.43v-4.9h.43v-.79h-.43V236h.43v-.79h-.43v-4.9h.43v-.79h-.43v-4.9h.43v-.79h-.43V219h.43v-.79h-.43v-4.9h.43v-.79h-.43v-4.9h.43v-.79h-.43v-4.9h.43v-.79h-.43v-4.34h.09v-6.31h-4.2v-6.12H434.35v-6.17H400v6.46h-1.08v-.29H364.55v6.12h-4.2v6.31h.09v4.34H360v.79h.43v4.9H360v.79h.43v4.9H360v.79h.43v4.9H360V219h.43v3.42h-6.66V200.63l-37.73-21.94v43.68H312.2V199.69H250.28v-5.13H185v-17H92.58v17H72.71l-6.53-47.88c-4.84-19.55-15.42-29.54-30.5-32H33l0-15L16.57,85.24Zm-81,99.57Zm-53.36,90v-9.27h-2.44v9.27Zm0-10.76v-9.26h-2.44V264Zm0-10.76V244h-2.44v9.25Zm0-10.75v-9.26h-2.44v9.26Zm0-10.75v-9.27h-2.44v9.27Zm0-10.76v-9.26h-2.44V221Zm0-10.76V201h-2.44v9.25ZM77.11,226.81v-4.39h-.6L76,218.54h1.71v12.54l-.58-4.27Zm.58-14.31H75.16l-1.62-11.87h4.15V212.5ZM14.24,44h1.69v18.9H14.24V44Z"/>
          <path class="cls-6" d="M828,67.79V45.44h-3V65.19l-1.19-1V97.22h-6.29v86.62l-9.74,13.1h-8L747,161.1V129.35l-39.9,23.19v14.82h-7.54v4.83h5.87v1.31h-.94v.86h.94v1.74H693.67v6h-2.44V172.8h3.12v-1.49h-3.12V162h3.12v-1.49h-3.12v-9.26h3.12v-1.5h-3.12v-9.26h3.12V139h-3.12v-9.26h3.12v-1.5h-3.12V119h3.12v-1.49h-3.12V109h3l.18-23H661.15l-11.34,8.07H592.86v15h2.68v8.5H593V119h2.59v9.26H593v1.5h2.59V139H593v1.49h2.59v9.26H593v1.5h2.59v9.26H593V162h2.59v9.27H593v1.49h2.59v9.26H593v1.5h2.59v9.25H593v1.5h2.59v9.26H593v1.49h2.59v3.21h-2.37v-.35h-.75v-4.8h.75v-.77h-.75v-4.8h.75v-.77h-.75V192h.75v-.77h-.75v-4.8h.75v-.77h-.75v-4.25h.16v-6.18h-7.22v-6H526.27v6h-7.22v6.18h.16v4.25h-.74v.77h.74v4.8h-.74V192h.74v4.8h-.74v.77h.74v4.8h-.74v.77h.74v2h-7v-3.85h.55v-.65h-.55V197h.12v-5.19H507v-5.05H463.62v5.05h-5.31V197h.12v3.57h-.55v.65h.55v4h-.55v.66h.55v4h-.55v.66h.55v4h-.55v.65h.55v4h-.55V220h.55v4h-.55v.65h.55v4h-.55v.66h.55v4h-.55v.65h.55v4h-.55v.65h.55v4h-.55v.65h.55v4h-.55v.66h.55v4h-.55v.65h.55v4h-.55v.65h.55v4h-.55v.65h.55v4.51H455v5h3.4v3.08H455v5h142v-3.91h97.29v-3.54h5.24v6.13h44.24l-1.67,8.93h68.1l-2.2-11.79h3.8v-2.7h5.68v7.5h80.67l-.15-1.1h79.5v-3.15h3.67V278h187.93v1.75h13.71c-.17.32-.33.65-.49,1h181c-10.54-21.32-43.19-37.28-82.78-39.14v-.2h.44v-.79h-.44v-4.9h.44v-.79h-.44V230h.44v-.79h-.44v-4.9h.44v-.79h-.44v-4.9h.44v-.79h-.44v-4.9h.44v-.79h-.44v-4.9h.44v-.79h-.44v-4.9h.44v-.79h-.44v-4.9h.44V195h-.44v-4.9h.44v-.79h-.44v-4.9h.44v-.79h-.44V179.3h.09V173h-4.2v-6.12h-30.76V160.7h-34.36v6.46h-1.08v-.29H1176V173h-4.2v6.31h.09v4.34h-.44v.79h.44v4.9h-.44v.79h.44V195h-.44v.79h.44v4.9h-.44v.79h.44v3.42h-6.66V183.18l-37.73-21.93v43.67h-3.85V182.24H1061.7v-5.13H996.43v-17H904v17H884.13l-6.53-47.88c-4.84-19.55-15.43-29.54-30.5-32h-2.64l0-15L828,67.79Zm-81,99.57Zm-53.36,90v-9.26h-2.44v9.26Zm0-10.76v-9.26h-2.44v9.26Zm0-10.76v-9.25h-2.44v9.25Zm0-10.75v-9.26h-2.44v9.26Zm0-10.75v-9.27h-2.44v9.27Zm0-10.76v-9.26h-2.44v9.26Zm0-10.76v-9.25h-2.44v9.25Zm194.86,16.55V205h-.6l-.53-3.88h1.71v12.54l-.58-4.27Zm.58-14.31h-2.53L885,183.18h4.15v11.87ZM825.66,26.54h1.69v18.9h-1.69V26.54Z"/>
          <polygon class="cls-7" points="1110.56 517.65 -379.71 517.65 -379.71 226.47 1110.56 226.47 1110.56 517.65 1110.56 517.65"/>
          <polygon class="cls-8" points="1110.56 517.65 -379.71 517.65 -379.71 226.47 1110.56 226.47 1110.56 517.65 1110.56 517.65"/>
          <g class="cls-9">
            <path class="cls-10" d="M-515.66,260.49c483.28-4,1364.83,47.35,1475.75,275.14H215.89C117.73,288.71-238,295.25-516.29,279.29c0-2,.51-2.56.51-4.59v-2.23l-.7,0-.19-10.22,1,0v-1.76Z"/>
            <path class="cls-11" d="M-515.66,260.49c483.28-4,1364.83,47.35,1475.75,275.14H215.89C117.73,288.71-238,295.25-516.29,279.29c0-2,.51-2.56.51-4.59v-2.23l-.7,0-.19-10.22,1,0v-1.76Z"/>
          </g>
          <path class="cls-12" d="M447.6,391.16c37.65,14.63,72.28,30.69,102.82,48.27H525c-29.79-16.9-63.36-32.42-99.72-46.63l22.31-1.64Z"/>
          <path class="cls-13" d="M447.6,391.16c37.65,14.63,72.28,30.69,102.82,48.27H525c-29.79-16.9-63.36-32.42-99.72-46.63l22.31-1.64Z"/>
          <path class="cls-14" d="M335.74,354c29.08,8.31,57.23,17.24,84.09,26.84H393.26c-25-8.89-51-17.22-77.84-25l20.27-1.4.05-.42Z"/>
          <path class="cls-15" d="M335.74,354c29.08,8.31,57.23,17.24,84.09,26.84H393.26c-25-8.89-51-17.22-77.84-25l20.27-1.4.05-.42Z"/>
          <path class="cls-16" d="M223.3,325.79c27.41,6,54.45,12.53,80.86,19.53H277.61c-26.24-7-53.06-13.49-80.2-19.53Z"/>
          <path class="cls-17" d="M223.3,325.79c27.41,6,54.45,12.53,80.86,19.53H277.61c-26.24-7-53.06-13.49-80.2-19.53Z"/>
          <polygon class="cls-10" points="-284.24 261.95 1110.24 261.95 1110.24 297.9 -284.24 261.95 -284.24 261.95"/>
          <polygon class="cls-18" points="-284.24 261.95 1110.24 261.95 1110.24 297.9 -284.24 261.95 -284.24 261.95"/>
        </g>
        <g class="cls-19">
          <path class="cls-20" d="M30.41,390.44s6.14-5.35,18-6.67-12.73-7-21.5,6.67C26.9,390.44,23,396.53,30.41,390.44Z"/>
          <path class="cls-20" d="M13.73,391.2s18-17.11,28.52-21.68-10.09-4.94-24.13,9.32C18.12,378.84,11.1,387.4,13.73,391.2Z"/>
          <path class="cls-20" d="M8.47,391.2s12-27.76,17.38-31.18-8.61-5.33-17.38,17.3C8.47,377.32,5,389.3,8.47,391.2Z"/>
          <path class="cls-20" d="M2.1,391.2s4.61-25.48,9-29.28S-5.58,366.1,2.1,391.2Z"/>
        </g>
        <g class="cls-19">
          <path class="cls-20" d="M387.37,295.81s3.1-2.7,9.07-3.36-6.42-3.54-10.84,3.36C385.6,295.81,383.61,298.88,387.37,295.81Z"/>
          <path class="cls-20" d="M379,296.19s9.07-8.63,14.38-10.93-5.09-2.49-12.17,4.7C381.17,290,377.63,294.28,379,296.19Z"/>
          <path class="cls-20" d="M376.31,296.19s6-14,8.76-15.72-4.34-2.69-8.76,8.72C376.31,289.19,374.54,295.23,376.31,296.19Z"/>
          <path class="cls-20" d="M373.1,296.19s2.32-12.85,4.53-14.76S369.23,283.54,373.1,296.19Z"/>
          <path class="cls-20" d="M371.77,296.19s.11-10.7-4.65-12.35S369.89,290.82,371.77,296.19Z"/>
          <path class="cls-20" d="M370.22,296.19s-3-12.26-10.29-12.56S365.68,288.14,370.22,296.19Z"/>
          <path class="cls-20" d="M369.59,296.19a13.25,13.25,0,0,0-10.54-4.6C352.41,292,368,294.66,369.59,296.19Z"/>
        </g>
        <g class="cls-19">
          <path class="cls-20" d="M184.81,258a14.82,14.82,0,0,1,7.69-2.85c5.07-.57-5.44-3-9.19,2.85C183.31,258,181.62,260.63,184.81,258Z"/>
          <path class="cls-20" d="M177.68,258.35s7.69-7.31,12.2-9.27-4.32-2.11-10.32,4C179.56,253.07,176.56,256.73,177.68,258.35Z"/>
          <path class="cls-20" d="M175.43,258.35s5.11-11.87,7.43-13.33-3.68-2.28-7.43,7.4C175.43,252.42,173.93,257.54,175.43,258.35Z"/>
          <path class="cls-20" d="M172.71,258.35s2-10.89,3.85-12.52S169.43,247.62,172.71,258.35Z"/>
          <path class="cls-20" d="M171.59,258.35s.09-9.07-3.94-10.47S170,253.8,171.59,258.35Z"/>
          <path class="cls-20" d="M170.27,258.35s-2.53-10.4-8.72-10.64S166.43,251.52,170.27,258.35Z"/>
          <path class="cls-20" d="M169.74,258.35a11.23,11.23,0,0,0-8.94-3.9C155.17,254.78,168.36,257.05,169.74,258.35Z"/>
        </g>
        <path class="cls-21" d="M100.43,353.11c-.5.06-1.12.48,2.09,1.35,17.25,4.63,63.66,15.48,81.34,19.44,21.51,4.82,36.92,5.27,54.68,5.27s74.62-4,82.69-5.38-11.53-8.4-32.76-10.39-114.65-15.75-114.65-15.75S103.2,352.77,100.43,353.11Z"/>
        <g>
          <path class="cls-22" d="M100.26,331.52l21.64,10.41,48.32,6.42,36.45,1.81,56.78-2.83-16.54-42.66-139.12,3.85s-5.9,4.5-7.31,10S100.26,331.52,100.26,331.52Z"/>
          <g>
            <path class="cls-23" d="M209.45,345.23c0,14.47-5.16,26.2-11.52,26.2s-11.52-11.73-11.52-26.2,5.16-26.2,11.52-26.2S209.45,330.76,209.45,345.23Z"/>
            <polygon class="cls-23" points="197.93 319.03 183.46 319.03 183.18 372.07 197.93 371.43 197.93 319.03"/>
            <path class="cls-23" d="M195.15,345.55c0,14.65-5.36,26.52-12,26.52s-12-11.87-12-26.52,5.36-26.52,12-26.52S195.15,330.91,195.15,345.55Z"/>
            <path class="cls-24" d="M191.23,345.55c0,11.22-3.95,20.31-8.82,20.31s-8.82-9.09-8.82-20.31,3.95-20.3,8.82-20.3S191.23,334.34,191.23,345.55Z"/>
            <path class="cls-24" d="M190,345.55c0,10.1-3.48,18.28-7.77,18.28s-7.76-8.18-7.76-18.28,3.47-18.28,7.76-18.28S190,335.46,190,345.55Z"/>
            <polygon class="cls-24" points="181.15 325.89 182.72 342.43 174.74 336.44 174.13 339.94 182.41 346.24 175.72 357.48 176.75 360.55 183.7 348.99 186.41 363.17 187.88 360.62 185.32 346.2 190.91 342.11 190.45 337.97 184.99 342.16 183.46 325.68 181.15 325.89"/>
            <path class="cls-25" d="M186.25,345.55c0,3.25-1.14,5.88-2.55,5.88s-2.55-2.63-2.55-5.88,1.14-5.87,2.55-5.87S186.25,342.31,186.25,345.55Z"/>
            <path class="cls-24" d="M185.89,345.55c0,1.55-.55,2.8-1.22,2.8s-1.22-1.25-1.22-2.8.55-2.8,1.22-2.8S185.89,344,185.89,345.55Z"/>
          </g>
          <g>
            <path class="cls-23" d="M126.49,334.41c0,10.95-3.54,19.82-7.9,19.82s-7.89-8.87-7.89-19.82,3.54-19.81,7.89-19.81S126.49,323.47,126.49,334.41Z"/>
            <polygon class="cls-23" points="118.59 314.6 108.68 314.6 108.49 354.72 118.59 354.23 118.59 314.6"/>
            <path class="cls-23" d="M116.69,334.66c0,11.08-3.67,20.06-8.2,20.06s-8.2-9-8.2-20.06,3.67-20.06,8.2-20.06S116.69,323.58,116.69,334.66Z"/>
            <path class="cls-24" d="M114,334.66C114,343.14,111.3,350,108,350s-6-6.88-6-15.36,2.71-15.36,6-15.36S114,326.18,114,334.66Z"/>
            <path class="cls-24" d="M113.15,334.66c0,7.63-2.38,13.82-5.32,13.82s-5.32-6.19-5.32-13.82,2.39-13.83,5.32-13.83S113.15,327,113.15,334.66Z"/>
            <polygon class="cls-24" points="107.1 319.79 108.17 332.3 102.71 327.76 102.29 330.41 107.96 335.18 103.38 343.68 104.08 346 108.85 337.26 110.7 347.98 111.71 346.05 109.95 335.15 113.79 332.06 113.47 328.93 109.73 332.09 108.68 319.62 107.1 319.79"/>
            <path class="cls-25" d="M110.6,334.66c0,2.45-.79,4.44-1.75,4.44s-1.75-2-1.75-4.44.78-4.45,1.75-4.45S110.6,332.2,110.6,334.66Z"/>
            <path class="cls-24" d="M110.35,334.66c0,1.17-.38,2.12-.84,2.12s-.83-.95-.83-2.12.37-2.12.83-2.12S110.35,333.49,110.35,334.66Z"/>
          </g>
          <g>
            <ellipse class="cls-23" cx="298.36" cy="341.76" rx="12.62" ry="23.91"/>
            <polygon class="cls-23" points="298.36 317.85 282.51 317.85 282.21 366.26 298.36 365.67 298.36 317.85"/>
            <path class="cls-23" d="M295.32,342.06c0,13.36-5.87,24.2-13.11,24.2s-13.11-10.84-13.11-24.2,5.87-24.21,13.11-24.21S295.32,328.69,295.32,342.06Z"/>
            <path class="cls-26" d="M291,342.06c0,10.23-4.33,18.53-9.66,18.53s-9.67-8.3-9.67-18.53,4.33-18.53,9.67-18.53S291,331.82,291,342.06Z"/>
            <path class="cls-26" d="M289.66,342.06c0,9.21-3.81,16.68-8.5,16.68s-8.51-7.47-8.51-16.68,3.81-16.68,8.51-16.68S289.66,332.84,289.66,342.06Z"/>
            <polygon class="cls-26" points="279.98 324.11 281.7 339.21 272.96 333.74 272.29 336.94 281.37 342.68 274.04 352.94 275.16 355.75 282.78 345.19 285.74 358.14 287.35 355.81 284.55 342.65 290.68 338.92 290.17 335.14 284.19 338.96 282.51 323.92 279.98 324.11"/>
            <path class="cls-25" d="M285.57,342.06c0,3-1.25,5.36-2.79,5.36s-2.8-2.4-2.8-5.36,1.26-5.36,2.8-5.36S285.57,339.1,285.57,342.06Z"/>
            <path class="cls-24" d="M285.17,342.06c0,1.41-.59,2.55-1.33,2.55s-1.33-1.14-1.33-2.55.59-2.56,1.33-2.56S285.17,340.65,285.17,342.06Z"/>
          </g>
          <path class="cls-27" d="M100.26,331.52l0-4.62s1.72-14.59,7.57-15.48c7.11-1.08,9.6,7.78,10.62,14.51s2.3,16.27,6,16.82c7.85,1.2,16.89,2.4,25.09,3.17s20.77,2.43,20.77,2.43a15.84,15.84,0,0,1-1.59-6.72c-.23-4.41-2.35-29.92,13.89-31.33,12.49-1.08,16.41,16.21,18,23.61s3.71,14.88,6.15,16.25,14.6,1.47,24.62.93,72.7-3,79-3.76,12.28-3,14.1-10.44S329,319.45,327,315.81s-8.82-32.25-8.82-32.25l2-4.33s-6-4-8.18-5.53c-6.79-4.95-31.16-14.14-37.25-17.26-12.34-6.34-14.3-7.5-31.74-8.26a467.32,467.32,0,0,0-52.4.61c-17,1.17-36.66,9.69-46,18.12s-24,27.7-24,27.7-9.63,3.5-13.61,7.07S102,307,101,311C98.32,321.53,98.74,325.93,100.26,331.52Z"/>
          <path class="cls-28" d="M122.32,294.28s54-16.43,65.68-19.52c11.41-3,14.43-5.21,9.63-9.68-9.79-9.11-15.49-11.62-26.8-9.43-9.13,1.76-19.47,6.12-26.16,12.26C136,275.91,122.32,294.28,122.32,294.28Z"/>
          <path class="cls-23" d="M197.63,265.08c-7.61-7.08-12.75-10.17-20-10.17a35.84,35.84,0,0,0-6.83.74c-9.13,1.76-19.47,6.12-26.16,12.26-8.72,8-22.35,26.37-22.35,26.37s54-16.43,65.68-19.52C199.41,271.73,202.43,269.55,197.63,265.08Zm.37,3.58c0,.07-.23.7-2.32,1.67a53.42,53.42,0,0,1-8.15,2.67c-9.37,2.48-46.35,13.66-60.34,17.9,4.58-5.92,12.84-16.26,18.72-21.65s15.59-9.94,25.27-11.81a34,34,0,0,1,6.48-.71c6.3,0,10.85,2.35,18.73,9.69C198.13,268,198,268.64,198,268.66Z"/>
          <path class="cls-29" d="M122.32,294.28s54-16.43,65.68-19.52c11.41-3,14.43-5.21,9.63-9.68-18.29-.74-28.93,2.09-39.71,6.15C131.27,281.28,122.32,294.28,122.32,294.28Z"/>
          <path class="cls-30" d="M117,307.29,115.44,304s51.91-13.12,70.73-17.77c19.36-4.78,27.35-8.17,44.87-8.84,16.87-.65,39.63-.75,53.26-.24,18.56.68,35.83,2.12,35.83,2.12l-2,4.33s-17.78-1.66-35.5-2.37-54.09-.77-65.74,1.08-97.4,22.85-97.4,22.85l1,9.55Z"/>
          <g>
            <path class="cls-31" d="M254.54,289.84l12-8.44s-25.42-.79-46,1.32c-9.27.95-14.21,7.17-19.65,14.4C215.07,292.09,254.54,289.84,254.54,289.84Z"/>
            <path class="cls-31" d="M293.08,282.16l10.56,8.32a157.81,157.81,0,0,1,16.93,3.08l-2.44-10s-2-.05-6.89-.42C302.31,282.46,293.08,282.16,293.08,282.16Z"/>
            <path class="cls-31" d="M254.54,289.84s16.08-.67,28.07-.44c11.28.22,21,1.08,21,1.08l-10.56-8.32s-4.8-.34-11.72-.54-14.78-.22-14.78-.22Z"/>
          </g>
          <polygon class="cls-32" points="264.87 300.92 298.46 300.92 296.63 292.27 263.45 291.66 264.87 300.92"/>
          <path class="cls-33" d="M145.65,334.89c9.81,0,23.21,2,20.47,3.41s-18.3,1.07-25.81.89-21.75-1.19-16-2.3A115,115,0,0,1,145.65,334.89Z"/>
          <path class="cls-34" d="M312,273.7s-13.49-.87-31.77-1.55c-20.49-.77-39.58-1.07-53.25-.92-11.71-9-26-23.08-36.37-22.44,0,0,26.6-1.92,41.62-1.38,14,.51,22.66,1.33,27.44,1.88C273,250.81,288.16,259.83,312,273.7Z"/>
          <path class="cls-28" d="M259.62,249.29c-4.78-.55-13.46-1.37-27.44-1.88-1.86-.07-3.9-.1-6.05-.1-15.17,0-35.57,1.48-35.57,1.48l.69,0c10.3,0,24.23,13.68,35.68,22.46,2.3,0,4.76,0,7.34,0,12.79,0,28.87.32,45.91,1,18.28.68,31.77,1.55,31.77,1.55C288.16,259.83,273,250.81,259.62,249.29Zm-25.35,20.08c-2.35,0-4.61,0-6.73,0-2.24-1.73-4.55-3.63-7-5.62-6.41-5.25-12.95-10.62-19.12-13.83,7.17-.4,16.7-.81,24.69-.81,2.21,0,4.23,0,6,.09,10.63.39,19.81,1,27.29,1.87,11.7,1.33,25.28,8.84,45,20.34-5.74-.31-14.29-.74-24.2-1.12C263.86,269.71,247.53,269.37,234.27,269.37Z"/>
          <path class="cls-33" d="M254.54,289.84l8.71,12a1.75,1.75,0,0,0,1.43.73h33.86a1.77,1.77,0,0,0,1.69-1.23l3.41-10.88-7,1.79-32.9-.61Z"/>
          <path class="cls-30" d="M296.63,292.27l7-1.79a164,164,0,0,0-21-1.87,250,250,0,0,0-28.07,1.23l8.91,1.82Z"/>
          <g>
            <path class="cls-23" d="M206.52,351.19a12.57,12.57,0,0,1-3.05-6.36s23.8-.79,25.07-2.08a50.82,50.82,0,0,1,8.81-7.5c2.16-1.41,7.06-2.21,12.75-2.43s63-2.19,68-2,4.11,9.63,4.11,11.22-5.51,4.9-10.29,5.6c-13.49,2-54.71,3.66-65.19,4.12S206.52,351.19,206.52,351.19Z"/>
            <path class="cls-29" d="M121.44,339.68s11.6,1.45,22.45,2.27,24.83.8,24.83.8,1,4.05,1.2,4.49a2.12,2.12,0,0,0,1.37,1.14l.07,1.6s-20.16-3.24-27.47-4.1c-16.64-2-19.67-.57-20.74-1.67S121.44,339.68,121.44,339.68Z"/>
          </g>
          <g>
            <path class="cls-35" d="M191,312.85s6-9.56,10.37-16.36"/>
            <path class="cls-35" d="M226.93,271.23l5.72,6.12-2,4.64s.95,22,1.57,28c.45,4.31,1.38,8,8,8,26.42,0,67.34-.43,76-1,4.13-.3,4.44-3.11,4.21-7.67s-4.16-26.1-4.16-26.1l1.12-4.37L312,273.7"/>
            <polyline class="cls-35" points="186.17 256.69 187.47 274.9 183.7 286.8 183.18 291.65 176.37 312.42"/>
            <path class="cls-35" d="M125.63,344.7l-2.66-5v-2.79s-2.72-21.54-3.09-27.23a52,52,0,0,0-.69-6.65l3.13-8.73"/>
            <path class="cls-35" d="M161.07,258.4,149.8,286,147,296l.11,5s-1.93,14.39-1.71,20.09.84,14,.16,15.84a4.27,4.27,0,0,1-1.66,2.33s-.47.8.36,3.53,1,3.29,1,3.29"/>
          </g>
          <path class="cls-33" d="M318.13,283.56l-8.68-.55s2.77,15.72,3.9,19.58c3.23,11.05,9.95,4.1,12.53,10.5C323,303.7,318.13,283.56,318.13,283.56Z"/>
          <path class="cls-36" d="M313.51,314.67c-.29-4.33-4.06-31.66-4.06-31.66-27.33-1.48-47-2.24-78.84-1,0,0,1.27,27,2.39,32s7.84,4.4,7.23,9.27-2.58,15-4.71,18.11a22.75,22.75,0,0,1-17.74,8.76c-8.91,0-11.11,0-11.11,0l2.18,1.11c7.19.24,29.2.91,37.91.53,10.48-.46,51.7-2.15,65.19-4.12a19.47,19.47,0,0,0,4.46-1.27c4.72-2.73,5.37-16.86,5.37-23.14C321.78,318.75,313.79,319,313.51,314.67Z"/>
          <path class="cls-36" d="M221.85,317.76c-1.86-9.75-3.42-19.06-8.11-22.06-4.1-2.62-22,.54-28.7,2.08-3,.68-62.35,17.12-62.35,17.12a59,59,0,0,1,1.79,7.88c.46,2.51,1,6.31,1.34,8.93.23,1.74,1,2.92,1.86,2.87l34.86,0c1.44-.08,2.74-1.81,3.39-4.49.74-3,1.68-9,2.73-12.36,2.51-8,7.31-12.52,12.07-13.77,9.23-2.4,18.94,2,26.31,19.11.66,1.54,1.23,3,1.71,4.44.68,2,3.09,13.8,5,13.75s10.39-6.58,10.16-13.3C223.79,324.85,223,323.91,221.85,317.76Z"/>
          <path class="cls-37" d="M284.62,284.76A2.1,2.1,0,1,1,282,283,2.24,2.24,0,0,1,284.62,284.76Z"/>
          <path class="cls-33" d="M286.36,315.75c25.15.1,34,.09,39.35,1.15,7,1.37-19.4,2.87-38.69,3-32.8.21-52.59.61-59.66-1.81C219.56,315.4,264.29,315.66,286.36,315.75Z"/>
          <path class="cls-33" d="M231,277.35c16.87-.65,89.09,1.88,89.09,1.88L312,273.7S280.25,272,272,271.86c-11.32-.23-45.75-1.54-55.07,0-6.3,1.06-40.5,10.42-51.75,13.38-10.28,2.7-38,10.46-53,15.68-7.09,2.47-9.21,5-9.21,5s9.5-4.15,12.46-2c0,0,51.91-13.12,70.73-17.77C205.53,281.41,213.52,278,231,277.35Z"/>
          <g>
            <polygon class="cls-38" points="182.53 287.12 173.36 289.44 173.83 287.58 183.01 285.26 182.53 287.12"/>
            <polygon class="cls-39" points="182.47 286.82 173.3 289.14 173.77 287.28 182.95 284.96 182.47 286.82"/>
          </g>
          <g>
            <polygon class="cls-38" points="145.68 296.4 137.42 298.49 137.87 296.72 146.13 294.62 145.68 296.4"/>
            <polygon class="cls-39" points="145.62 296.11 137.36 298.21 137.82 296.43 146.08 294.33 145.62 296.11"/>
          </g>
          <path class="cls-40" d="M124.52,286.4a1.75,1.75,0,0,0-1.67-2.38c-3.38.09-9,.36-10.24,1.24s-4.3,3.32-2.26,4.83,9.78,2.55,9.78,2.55l2.84,3.09a1.87,1.87,0,0,0,2.17-1c.52-1.42-2.32-3.95-2.32-3.95Z"/>
          <path class="cls-30" d="M124.12,286.21a1.31,1.31,0,0,0-1.22-1.8c-3,0-8.63.16-10,1.09s-4.28,3.08-2.25,4.59,9.43,2.55,9.43,2.55l2.84,3.09a1.87,1.87,0,0,0,2.17-1c-1.88-1.39-3.36-2.76-3.36-2.76Z"/>
          <path class="cls-29" d="M121.13,291.69l2.51-5.66a.93.93,0,0,0-.07-.87.91.91,0,0,0-.77-.41c-2.67,0-8.41.2-10,1.35-2.13,1.52-3.36,3.45,0,4.19C116.69,291.15,121.13,291.69,121.13,291.69Z"/>
          <path class="cls-29" d="M312,273.7s-13.49-.87-31.77-1.55c-20.49-.77-39.58-1.07-53.25-.92-13.3-11.1-26.4-20.2-36.23-22.45C203.27,248,273,251,312,273.7Z"/>
        </g>
      </g>
    </g>
    <path class="cls-41" d="M371.2.05H72.85A72.63,72.63,0,0,0,.29,72.6V371a79.65,79.65,0,0,0,79.56,79.55H371.2A79.65,79.65,0,0,0,450.76,371V79.6A79.65,79.65,0,0,0,371.2.05ZM437.91,371a66.71,66.71,0,0,1-66.71,66.7H79.85A66.7,66.7,0,0,1,13.15,371V77.41A64.51,64.51,0,0,1,77.66,12.9H371.2a66.71,66.71,0,0,1,66.71,66.7Z"/>
  </g>
</svg>
