<svg xmlns="http://www.w3.org/2000/svg" xmlns:xlink="http://www.w3.org/1999/xlink" width="256.32" height="348.48" viewBox="0 0 256.32 348.48">
  <defs>
    <style>
      .cls-1 {
        isolation: isolate;
      }

      .cls-2, .cls-4 {
        opacity: 0.5;
      }

      .cls-3 {
        fill: #f3ff00;
      }

      .cls-4 {
        fill: #60833a;
        mix-blend-mode: multiply;
      }

      .cls-5 {
        fill: url(#New_Gradient_Swatch_copy_25);
      }

      .cls-6 {
        fill: #b1aeaf;
      }

      .cls-7 {
        fill: #8e8e8e;
      }

      .cls-8 {
        fill: #4f4f4f;
      }

      .cls-9 {
        fill: #ffbbbe;
      }

      .cls-10 {
        fill: #f99398;
      }

      .cls-11 {
        fill: #eaeaea;
      }

      .cls-12 {
        fill: #d0cecf;
      }

      .cls-13 {
        fill: #353535;
      }

      .cls-14 {
        fill: #fff;
      }

      .cls-15 {
        fill: #d1d1d1;
      }

      .cls-16 {
        fill: #320507;
      }

      .cls-17 {
        fill: #494949;
      }

      .cls-18 {
        fill: #ad6f44;
      }

      .cls-19 {
        fill: #ffe9eb;
      }

      .cls-20 {
        fill: #bf2c2c;
      }

      .cls-21 {
        fill: #edd8c3;
      }

      .cls-22 {
        fill: #d8b99e;
      }

      .cls-23 {
        fill: #ddd;
      }

      .cls-24 {
        fill: #bfbfbf;
      }

      .cls-25 {
        fill: #b21414;
      }

      .cls-26 {
        fill: #7f0000;
      }

      .cls-27 {
        fill: #fca7a7;
      }

      .cls-28 {
        fill: #f5eae9;
      }

      .cls-29 {
        fill: #ef7a7a;
      }

      .cls-30 {
        fill: #d83a3a;
      }

      .cls-31 {
        fill: #7f7f7f;
      }

      .cls-32 {
        fill: #f95858;
      }

      .cls-33 {
        fill: #ffaeae;
      }

      .cls-34 {
        fill: #ea3434;
      }
    </style>
    <linearGradient id="New_Gradient_Swatch_copy_25" data-name="New Gradient Swatch copy 25" x1="94.28" y1="189.96" x2="87.28" y2="308.28" gradientUnits="userSpaceOnUse">
      <stop offset="0.02" stop-color="#749a23"/>
      <stop offset="0.18" stop-color="#749a23"/>
      <stop offset="0.19" stop-color="#719924"/>
      <stop offset="0.27" stop-color="#53932a"/>
      <stop offset="0.34" stop-color="#418e2f"/>
      <stop offset="0.39" stop-color="#3a8d30"/>
      <stop offset="0.41" stop-color="#328b32"/>
      <stop offset="0.48" stop-color="#178438"/>
      <stop offset="0.54" stop-color="#06803c"/>
      <stop offset="0.59" stop-color="#007f3d"/>
      <stop offset="0.69" stop-color="#006a2a"/>
      <stop offset="0.78" stop-color="#005416"/>
      <stop offset="0.86" stop-color="#005022"/>
      <stop offset="1" stop-color="#004740"/>
    </linearGradient>
  </defs>
  <g class="cls-1">
    <g id="Layer_1" data-name="Layer 1">
      <g>
        <path class="cls-2" d="M67.57,348.48a21.39,21.39,0,0,1-10.35-2.36c-5.79-.78-12.59-2.77-16.52-8.61-3.7-5.5-2.79-11.17-1.9-14.42a25.84,25.84,0,0,1,4.82-16.62c4.64-6.32,11.47-9.49,17.83-11.39A31.62,31.62,0,0,1,55.19,275c.74-11.85,6.85-25.59,16.87-38.12.89-5.23,2-10.4,3.36-15.44-11.28-7.86-22.18-19.73-26.61-25.13-.2-.17-.4-.35-.58-.53C40.4,188.64,33.87,177.84,30,168.56c-6.5-2.58-12.24-5.72-17.1-12.66S6.17,140.28,8,133.55a16,16,0,0,1,5.8-8.67,23.27,23.27,0,0,1,1.05-3A16.44,16.44,0,0,1,26.07,112a17.11,17.11,0,0,1,4.16-.51h.26a18,18,0,0,1,9.56-2.64h.65a18.41,18.41,0,0,1,13.35,6.09,19,19,0,0,1,4,.76,17.73,17.73,0,0,1,11.46,11.16,28.15,28.15,0,0,1,1.1,13.32,30.47,30.47,0,0,1,1.93-2.86,81,81,0,0,1,10.21-35.68A83.39,83.39,0,0,1,61.39,80.68C49.89,64,43.21,45.75,41.7,38.19c-.15-.74-.34-1.61-.54-2.53C39,25.9,36.41,13.77,47,8.77a14.78,14.78,0,0,1,6.37-1.44c3.18,0,5.69,1,8.61,2.07,2.38.91,5.8,2.22,11.24,3.86,15.85,4.78,31,17.67,42.62,36.29A111.1,111.1,0,0,1,125.8,71c1.18-.12,2.4-.2,3.65-.25.14,0,.6,0,.69,0a38,38,0,0,1,4,.3c.15-.54.3-1.08.44-1.6,2.18-8,3.91-14.27,5.54-18.27,3.69-9.09,9-13.42,12.89-15.45l.15-.08c.21-.11.42-.22.64-.32a28.32,28.32,0,0,1,9.48-2.88,25.64,25.64,0,0,1,2.9-.17,24.46,24.46,0,0,1,15.29,5.39c.7,0,1.39-.08,2.08-.08,5.69,0,16.3,2,23.35,15.46a145.85,145.85,0,0,1,8.73,21.43c1.14,3.32,2.3,6.72,3.61,10a41.72,41.72,0,0,0,4.35,7.88c2.35,3.53,5.26,7.91,4.35,14a13.48,13.48,0,0,1-3.41,7.2,17.72,17.72,0,0,1,3.68.51,16.46,16.46,0,0,1,11.15,9.9,21.85,21.85,0,0,1,1,3,16,16,0,0,1,5.81,8.68c1.86,6.72,0,15.5-4.84,22.35s-10.6,10.07-17.11,12.66c-.22.53-.45,1.06-.68,1.6a20.67,20.67,0,0,1,11.93-4.12,15.83,15.83,0,0,1,11.74,5.12,17.31,17.31,0,0,1,3.45,5.36c5.67,6.57,6.36,16.59,5,24.34-.14,13.48-8.93,26.81-18,39.34-6.83,9.46-10.3,19.86-12.83,27.46-1.74,5.23-3.45,9.42-6.09,12.8a19.12,19.12,0,0,1-15.75,7.7c-.58,0-1.19,0-1.82-.07a16.19,16.19,0,0,1-6.26-1.73c-7.31-1.71-11.53-8.34-13.71-11.76l-.22-.36c-.33-.5-.65-1-1-1.54l-.26-.42c-1.43.79-3.32,2-4.85,3.07l-.33.43c-.15.19-.3.38-.46.55a53.89,53.89,0,0,1-39,19.68c0,.11,0,.23,0,.35-.49,8.8-4.7,15.07-11.81,22.92a82.33,82.33,0,0,1-36,23.15C79.25,347.18,72.75,348.48,67.57,348.48ZM184.13,111.76a83.64,83.64,0,0,1,3.52,11.86,17,17,0,0,1,8.53-5.88c.22-.06.44-.13.66-.18-1.39-.4-2.78-.86-4.15-1.39A46.5,46.5,0,0,1,184.13,111.76Z"/>
        <path class="cls-3" d="M60.25,341.15a21.4,21.4,0,0,1-10.36-2.36C44.1,338,37.3,336,33.37,330.18c-3.69-5.49-2.79-11.17-1.89-14.42a25.83,25.83,0,0,1,4.81-16.62c4.64-6.32,11.47-9.49,17.83-11.38a31.63,31.63,0,0,1-6.26-20.14c.74-11.85,6.85-25.59,16.87-38.11q1.33-7.86,3.37-15.45c-11.29-7.85-22.19-19.73-26.62-25.13-.2-.17-.39-.35-.58-.53-7.83-7.09-14.35-17.88-18.25-27.16-6.51-2.59-12.24-5.72-17.11-12.67S-1.16,133,.7,126.22a16,16,0,0,1,5.81-8.67,21.78,21.78,0,0,1,1-3,16.47,16.47,0,0,1,11.19-9.91,17.68,17.68,0,0,1,4.16-.51h.26a18,18,0,0,1,9.56-2.64h.66a18.39,18.39,0,0,1,13.34,6.09,19.67,19.67,0,0,1,4,.76,17.74,17.74,0,0,1,11.46,11.17,28,28,0,0,1,1.1,13.31A30.47,30.47,0,0,1,65.22,130,81,81,0,0,1,75.44,94.3a83.47,83.47,0,0,1-21.38-21C42.56,56.64,35.88,38.42,34.37,30.86c-.15-.74-.34-1.61-.54-2.53-2.12-9.76-4.75-21.89,5.83-26.88A14.83,14.83,0,0,1,46,0c3.17,0,5.69,1,8.6,2.08C57,3,60.44,4.29,65.88,5.93c15.85,4.79,31,17.67,42.63,36.29a110.73,110.73,0,0,1,10,21.43c1.18-.12,2.4-.2,3.66-.25h.68a38.23,38.23,0,0,1,4,.3c.14-.54.29-1.07.43-1.6,2.19-8,3.91-14.26,5.54-18.27,3.69-9.09,9.05-13.41,12.89-15.45l.16-.08.63-.32A28.85,28.85,0,0,1,156,25.1a25.46,25.46,0,0,1,2.89-.17,24.41,24.41,0,0,1,15.29,5.4c.7-.06,1.39-.09,2.08-.09,5.7,0,16.31,2,23.35,15.46a147.11,147.11,0,0,1,8.74,21.43c1.13,3.33,2.29,6.72,3.61,10A40.88,40.88,0,0,0,216.26,85c2.35,3.53,5.26,7.91,4.36,14a13.69,13.69,0,0,1-3.41,7.21,17,17,0,0,1,3.67.51A16.45,16.45,0,0,1,232,116.6a23.2,23.2,0,0,1,1,3,15.92,15.92,0,0,1,5.81,8.69c1.86,6.72,0,15.49-4.84,22.34s-10.6,10.08-17.1,12.67q-.33.78-.69,1.59a20.74,20.74,0,0,1,11.93-4.12,15.83,15.83,0,0,1,11.74,5.12,17,17,0,0,1,3.45,5.36c5.67,6.57,6.36,16.59,5,24.34-.13,13.48-8.92,26.81-18,39.34-6.83,9.46-10.29,19.87-12.83,27.46-1.74,5.23-3.45,9.42-6.09,12.8a19.11,19.11,0,0,1-15.74,7.7q-.88,0-1.83-.06a16.43,16.43,0,0,1-6.26-1.74c-7.3-1.71-11.52-8.33-13.7-11.76l-.23-.35c-.33-.51-.64-1-1-1.54l-.26-.43c-1.43.8-3.32,2.05-4.84,3.08,0,0-.24.31-.33.43l-.47.55A53.82,53.82,0,0,1,128,290.74c0,.12,0,.23,0,.35-.5,8.81-4.71,15.08-11.81,22.93a82.59,82.59,0,0,1-36,23.15C71.92,339.85,65.42,341.15,60.25,341.15ZM176.8,104.43a83.38,83.38,0,0,1,3.52,11.87,17.13,17.13,0,0,1,8.53-5.89l.66-.18c-1.39-.4-2.78-.86-4.15-1.38A45.93,45.93,0,0,1,176.8,104.43Z"/>
        <g>
          <path class="cls-4" d="M97.62,250.06c-2.24.05-5.22.07-8.2.23-5.76.24-11,.93-12.3,2.32-.16.17-.11.32.21.46,5.62,2.57,16.94,1.86,24.64,1.51,2.79-.11,18.52-.37,17.62-2.68C118.63,249.42,102.13,250,97.62,250.06Z"/>
          <path class="cls-4" d="M190.85,241c-1.91-1.81-13.41-1.05-17.13-.93-1.56.05-5.2,0-8.21.29l-2.52.11c-1.6.07-6.78,1-4,1.91,3.06,1,8.13,1,11.87,1,4,0,8.07-.16,12-.48a35.34,35.34,0,0,0,7-.91C190.61,241.75,191.26,241.4,190.85,241Z"/>
          <path class="cls-5" d="M77.11,282.75c1.18-2.5,8.8-3.86,8.55-.07,1-5,7.23.13,8.06,2.71,2.59-2.88,8.48-4.56,11.88-2-1.53-1.92-1.84-5.72.67-6.88-1.64.85-4.42,1.64-4.83-.64C98,279.73,91.2,278,92.9,272.36c-2-.72-1.68-2.64-.37-3.91-2.64.84-8.56,3.42-9.92-.32a7.78,7.78,0,0,1-3,3c.29,0,.58-.1.86-.16a4.61,4.61,0,0,1,1.13-.32,11.16,11.16,0,0,1-1.13.32c-2.57,1.08-4,4.16-1.7,5.42-2.52-.25-6.84,1-6.93,3.46C73.7,279.79,75.14,280.72,77.11,282.75Z"/>
          <path d="M98.71,140.23l-.57,0c-2.68-.22-5.07-2-6.73-4.91a18.59,18.59,0,0,1-2-10.55c.65-8,5.63-14.28,11.17-13.82,2.68.22,5.08,2,6.73,4.9a18.61,18.61,0,0,1,2,10.55C108.68,134.15,104,140.23,98.71,140.23ZM100,111.42c-5,0-9.47,5.88-10.08,13.38a18.08,18.08,0,0,0,2,10.25c1.57,2.79,3.82,4.44,6.33,4.64,5.25.43,10-5.59,10.61-13.35a18.08,18.08,0,0,0-2-10.25c-1.57-2.79-3.81-4.44-6.32-4.65Z"/>
          <path d="M99,133.9h-.32c-3.15-.26-5.4-4.2-5-8.79s3.22-8.11,6.38-7.85a5,5,0,0,1,3.87,2.8,10.56,10.56,0,0,1,1.16,6C104.68,130.45,102,133.9,99,133.9Zm.71-16.15c-2.77,0-5.21,3.25-5.54,7.39-.35,4.31,1.69,8,4.55,8.23s5.48-3.09,5.83-7.38a10,10,0,0,0-1.1-5.68,4.51,4.51,0,0,0-3.46-2.55Z"/>
          <path d="M106.44,111.76a7.62,7.62,0,0,0-5.47-2.83,8.51,8.51,0,0,0-5.61,1.74l-.35-.38a8.84,8.84,0,0,1,6-1.88,8,8,0,0,1,5.87,3Z"/>
          <path class="cls-6" d="M151.28,39c-1.7.9-4.89,3.21-7.39,9.36s-6.38,22.8-10.27,34.91c1.22.58,9.95,5.55,11.89,4.75,7.09-2.94,13.19-8.14,19.32-16C164.65,58.82,151.28,39,151.28,39Z"/>
          <path class="cls-7" d="M141.84,54.6c-.3,2.91-.39,12.15,2.83,12.43,3.84.15,6.5-15.17,10.4-20.29,3.83,7,9.66,17.51,9.76,25.27-5.2,6.65-12.53,14-19.21,15.62-3.56.87-9.78-4-11.61-4.86C136,74.37,139.41,63.75,141.84,54.6Z"/>
          <path class="cls-8" d="M145,88.35h0c-2.28,0-7.78-2.93-10.43-4.33l-1-.54-.2-.1.06-.21c1.78-5.52,3.51-11.85,5.19-18,2-7.29,3.73-13.59,5.09-17,2.37-5.81,5.39-8.37,7.51-9.49l.2-.11.14.19c.13.2,13.41,20.07,13.59,33.18v.09l-.05.07c-6.33,8.09-12.5,13.2-19.43,16.07A1.67,1.67,0,0,1,145,88.35Zm-11-5.24.84.45c2.41,1.28,8,4.27,10.19,4.27h0a1.06,1.06,0,0,0,.44-.07c6.82-2.83,12.92-7.86,19.16-15.84-.22-12.26-12-30.51-13.37-32.6-2,1.14-4.84,3.64-7.07,9.12-1.35,3.33-3.16,9.92-5.07,16.9C137.4,71.39,135.69,77.64,133.94,83.11Z"/>
          <path class="cls-9" d="M159.7,64.66c-2.52,5.41-9.8,12-16.93,16,4.08-5.35,11.95-19.19,12.28-27.73C156.45,55.93,159.7,64.66,159.7,64.66Z"/>
          <path class="cls-10" d="M155.05,52.92c.41.88,1,2.26,1.58,3.77-.79,6.82-4.47,12.42-8.27,17.62,5.3-2.66,8.26-7.3,10.2-12.68l1.14,3c-2.52,5.41-9.8,12-16.93,16C146.85,75.3,154.72,61.46,155.05,52.92Z"/>
          <path class="cls-8" d="M142.6,80.49c4-5.21,11.9-19.09,12.23-27.59l0-.93.39.84c1.38,3,4.63,11.67,4.66,11.76l0,.1,0,.1c-2.42,5.21-9.58,12-17,16.09l-1,.54Zm12.61-26.66c-.76,8.18-7.58,20.46-11.59,26.06,7-4.07,13.51-10.35,15.84-15.25C159.12,63.74,156.63,57.1,155.21,53.83Z"/>
          <path class="cls-6" d="M150.29,39.86a16,16,0,0,1,7-2.88c4-.46,8.79.71,12.86,6.4,5.05-1.88,13.18-2.86,18.8,7.87s7.86,20.44,11.84,30.33c3.67,9.11,8.42,12.62,8,15.65s-9.46,4.16-19.18.44-19.1-13.83-24.73-21.87C157.08,64.63,153,47.48,153,47.48Z"/>
          <path class="cls-11" d="M157.33,37c4-.46,8.79.71,12.86,6.4,5.05-1.88,13.18-2.86,18.8,7.87s7.86,20.44,11.84,30.33A51.15,51.15,0,0,0,206,91.16C196.12,78.81,195.63,68,186.83,51.23,182,43.37,176.47,43.74,173,44.68c3.42,4.64,5.1,8,8.15,13.64-3.95-3.06-10.75-14.25-17-18.19-4.13-2.6-8.87-2-13.92-.51A25.54,25.54,0,0,1,157.33,37Z"/>
          <path class="cls-7" d="M208.82,97a2,2,0,0,1,0,.23c-.45,3-9.46,4.16-19.18.44s-19.1-13.83-24.73-21.87c-6.6-9.44-10.56-23.13-11.64-27.16C165.06,73.76,186.38,99.13,208.82,97Z"/>
          <path class="cls-8" d="M178.91,55.16c0-.06-4.34-6.3-9.27-12.88l-.34.3C174.22,49.14,178.91,55.16,178.91,55.16Z"/>
          <path class="cls-8" d="M205.85,99.74a6.94,6.94,0,0,0,1.89-.78A2.46,2.46,0,0,0,209,97.27c.24-1.62-.85-3.27-2.51-5.77a52.28,52.28,0,0,1-5.47-10C199.63,78,198.4,74.41,197.23,71a134.93,134.93,0,0,0-8-19.82c-5.41-10.34-13.24-10.1-18.91-8-4.35-6-9.44-6.76-13-6.35A16.92,16.92,0,0,0,150,39.46l.25.4a16.53,16.53,0,0,1,7.07-2.64c3.44-.4,8.42.37,12.66,6.31l.1.14.15-.06c5.52-2,13.22-2.38,18.53,7.76a135.18,135.18,0,0,1,8,19.75c1.18,3.45,2.4,7,3.82,10.55a53.46,53.46,0,0,0,5.51,10.1c1.6,2.4,2.65,4,2.44,5.41a2.08,2.08,0,0,1-1.07,1.37c-2.79,1.74-10.21,1.8-17.82-1.11-11.89-4.54-21.85-17.82-24.62-21.79a72.07,72.07,0,0,1-7.13-13.51,123.23,123.23,0,0,1-5-14.66,85.65,85.65,0,0,0,4.61,14.89,72.38,72.38,0,0,0,7.15,13.57c2.79,4,12.83,17.36,24.83,22C196.16,100.42,202.31,100.71,205.85,99.74Z"/>
          <path class="cls-6" d="M103.36,93.71c-9.51-1-28.36-11.07-39.43-27.15s-16.77-32.86-17.81-38-3.67-15.13-1.34-16.23,3.89,1,17.64,5.12,26.41,16,35.92,31.17,14.18,37.53,14.53,39.6C111.31,90.94,106.19,94.22,103.36,93.71Z"/>
          <path class="cls-7" d="M109.56,91.53l.55-.4.19-.15.54-.45.14-.12a9.19,9.19,0,0,0,1.89-2.24c-.31-1.87-4.15-20.25-11.9-35,2.34,7.2,2.36,17.28-1.09,21.28-5.5-8-10.63-16.43-16.06-25C77.07,38.54,69.29,29.21,57.36,24c-3.63-1.56-8.58-3.89-10.66-8-.65,5.92,4.88,10.34,7.54,15.21A181.25,181.25,0,0,0,88.59,75.77C74.71,70.91,56.27,49.11,47.35,33.06a134,134,0,0,0,16.58,33.5C75,82.64,93.85,92.67,103.36,93.71c1.42.25,3.41-.44,5.24-1.54h0c.26-.16.51-.33.76-.5Z"/>
          <path class="cls-11" d="M46,14.16c1.47-1,9.88,3.74,14.81,5.27,20,6.23,26.68,18.44,38.1,31.05a12.91,12.91,0,0,0,1.8,2.12c-.74-1.38-1.51-2.73-2.32-4-9.51-15.21-22.17-27-35.92-31.17s-15.31-6.22-17.64-5.12.3,11,1.34,16.23c.17.87.48,2,.91,3.5C47.11,26.05,44.43,15.67,46,14.16Z"/>
          <path class="cls-8" d="M50.91,22.77a8.34,8.34,0,0,1-3.81-5.25,9.86,9.86,0,0,0,4.08,4.8Z"/>
          <path class="cls-9" d="M50.88,22.46c10.11,4.8,17.37,11,25.55,25.42s15.95,32.81,31.9,42c-7.26.91-21.4-3.89-34.89-18S50.44,36.3,50.88,22.46Z"/>
          <path class="cls-10" d="M76.43,47.88c-8-14.14-15.19-20.4-25-25.16,15.26,13.16,25.05,32.72,34,50.58C68.53,64.43,59.26,48,51.74,31.41c2.61,13.05,10.87,29.11,21.7,40.47,13.49,14.13,27.63,18.93,34.89,18C92.38,80.69,84.6,62.28,76.43,47.88Z"/>
          <path class="cls-8" d="M106.52,90.27c-7.33,0-20.44-4.77-33.26-18.22-13.36-14-23.09-35.31-22.64-49.6v-.39l.36.17c9.44,4.48,17,10.31,25.66,25.52,1.33,2.35,2.63,4.76,4,7.31,6.81,12.63,14.52,27,27.81,34.62l.67.38-.77.1A15.17,15.17,0,0,1,106.52,90.27Zm-55.4-67.4C50.87,37,60.49,57.92,73.63,71.7c12.72,13.32,25.66,18,32.89,18q.51,0,1,0c-13-7.83-20.6-21.94-27.31-34.42-1.38-2.54-2.67-4.95-4-7.29C67.74,33.11,60.31,27.28,51.12,22.87Z"/>
          <path class="cls-8" d="M104,94a3.66,3.66,0,0,1-.68-.06c-9.43-1-28.46-11.07-39.59-27.25C52.83,50.88,47,34.18,45.87,28.56l-.58-2.73c-1.52-7-2.61-12.84-.62-13.78,1.45-.69,2.59-.24,5.9,1,2.42.92,6.07,2.32,11.92,4.08,13.13,4,25.94,15.08,36.07,31.29,10,16,14.53,39.47,14.57,39.69v.09l0,.08C111.68,90.82,107.1,94,104,94ZM46,12.25a2.63,2.63,0,0,0-1.14.26c-1.78.85-.17,8.29.9,13.21.22,1,.42,1.93.58,2.74C47.49,34,53.3,50.65,64.15,66.41c11,16.06,29.88,26,39.24,27a3.83,3.83,0,0,0,.6,0c2.84,0,7.21-3,8.61-5.37-.31-1.6-4.81-24-14.48-39.42C88.06,32.61,75.35,21.58,62.34,17.65c-5.86-1.77-9.53-3.17-12-4.1C48.18,12.71,47,12.25,46,12.25Z"/>
          <path class="cls-6" d="M158.54,95.61c-10-13.24-25.84-14.83-34.79-14.43-9.21.41-24.76,1.12-34.82,14.38C79.16,108.44,76.37,127,77.17,138.45c7.14,2.12,45.23,1.76,46.55,1.75v.05s39.31.41,46.58-1.75C171.1,127,168.31,108.49,158.54,95.61Z"/>
          <path class="cls-12" d="M108.4,120.37c-1,9.72-7.22,17-13.8,16.32s-11.08-9.15-10-18.87,8-23.88,14.6-23.18S109.44,110.66,108.4,120.37Z"/>
          <path class="cls-13" d="M103,106.88a7.8,7.8,0,0,0-5.17-2.19,6,6,0,0,0-4.75,2,5.25,5.25,0,0,1,4.76-2.47A6.67,6.67,0,0,1,103,106.88Z"/>
          <path d="M106.77,122c-.87,8.11-6.25,14.19-12,13.57s-9.74-7.69-8.88-15.81,6.25-14.19,12-13.57S107.64,113.86,106.77,122Z"/>
          <path class="cls-14" d="M106.11,122.48c-.83,7.8-5.91,13.66-11.33,13.08s-9.15-7.38-8.32-15.18,5.92-13.66,11.34-13.08S107,114.67,106.11,122.48Z"/>
          <path class="cls-15" d="M86.66,119c-.08.46-.14.93-.2,1.41-.83,7.8,2.89,14.6,8.32,15.18s10.5-5.28,11.33-13.08c.06-.55.09-1.09.11-1.62C100.52,126.16,90.35,125.44,86.66,119Z"/>
          <path class="cls-16" d="M101.64,122.94c-.48,4.45-3.38,7.8-6.47,7.47s-5.23-4.22-4.75-8.68,3.37-7.8,6.47-7.47S102.12,118.48,101.64,122.94Z"/>
          <path d="M99.72,123.48c-.32,2.93-2.22,5.12-4.26,4.91s-3.43-2.77-3.12-5.7,2.22-5.13,4.26-4.92S100,120.54,99.72,123.48Z"/>
          <path class="cls-14" d="M98.17,119.9A2.21,2.21,0,1,1,96,117.76,2.18,2.18,0,0,1,98.17,119.9Z"/>
          <path class="cls-14" d="M99.06,125.7a.85.85,0,1,1-.85-.82A.84.84,0,0,1,99.06,125.7Z"/>
          <path d="M95.59,130.69a3.4,3.4,0,0,1-.45,0c-3.24-.34-5.47-4.36-5-9s3.52-8,6.76-7.7,5.47,4.36,5,8.95C101.44,127.29,98.66,130.69,95.59,130.69Zm.88-16.19c-2.81,0-5.36,3.19-5.79,7.26-.47,4.31,1.56,8.07,4.51,8.39s5.74-3,6.19-7.24-1.56-8.07-4.51-8.39Z"/>
          <path d="M95.52,135.85a6.51,6.51,0,0,1-.77,0c-2.71-.29-5.09-2.07-6.71-5a18,18,0,0,1-1.83-10.45C87,112.86,91.77,107,97.06,107a6.74,6.74,0,0,1,.77,0c2.71.29,5.09,2.07,6.7,5a17.92,17.92,0,0,1,1.84,10.45C105.57,130,100.8,135.85,95.52,135.85Zm1.54-28.33c-5,0-9.56,5.66-10.34,12.88a17.41,17.41,0,0,0,1.78,10.15c1.53,2.79,3.77,4.48,6.3,4.75.24,0,.48,0,.72,0,5,0,9.56-5.66,10.33-12.89a17.5,17.5,0,0,0-1.77-10.15c-1.53-2.79-3.77-4.47-6.31-4.74A5.53,5.53,0,0,0,97.06,107.52Z"/>
          <path class="cls-12" d="M136.44,120.37c1,9.72,7.22,17,13.8,16.32s11.08-9.15,10-18.87-7.4-23.88-14-23.18S135.4,110.66,136.44,120.37Z"/>
          <path class="cls-13" d="M141.8,106.88a7.8,7.8,0,0,1,5.17-2.19,6,6,0,0,1,4.75,2,5.25,5.25,0,0,0-4.76-2.47A6.67,6.67,0,0,0,141.8,106.88Z"/>
          <path d="M138.07,122c.87,8.11,6.25,14.19,12,13.57s9.75-7.69,8.88-15.81-6.25-14.19-12-13.57S137.2,113.86,138.07,122Z"/>
          <path class="cls-14" d="M138.73,122.48c.83,7.8,5.91,13.66,11.33,13.08s9.15-7.38,8.32-15.18S152.47,106.72,147,107.3,137.89,114.67,138.73,122.48Z"/>
          <path class="cls-15" d="M158.18,119c.08.46.14.93.2,1.41.83,7.8-2.89,14.6-8.32,15.18s-10.5-5.28-11.33-13.08c-.06-.55-.09-1.09-.11-1.62C144.32,126.16,154.49,125.44,158.18,119Z"/>
          <path class="cls-16" d="M143.2,122.94c.48,4.45,3.38,7.8,6.48,7.47s5.22-4.22,4.74-8.68-3.37-7.8-6.47-7.47S142.72,118.48,143.2,122.94Z"/>
          <path d="M145.12,123.48c.32,2.93,2.22,5.12,4.26,4.91s3.43-2.77,3.12-5.7-2.22-5.13-4.26-4.92S144.81,120.54,145.12,123.48Z"/>
          <path class="cls-14" d="M146,119.9a2.21,2.21,0,1,0,2.21-2.14A2.18,2.18,0,0,0,146,119.9Z"/>
          <path class="cls-14" d="M150.62,125.05a.84.84,0,1,0,.84-.82A.83.83,0,0,0,150.62,125.05Z"/>
          <path d="M142.94,123c-.49-4.59,1.74-8.61,5-8.95s6.27,3.15,6.76,7.7-1.74,8.61-5,9a3.4,3.4,0,0,1-.45,0C146.18,130.69,143.4,127.29,142.94,123Zm5-8.44c-2.95.32-5,4.08-4.51,8.39s3.23,7.55,6.19,7.24,5-4.08,4.52-8.39c-.44-4.07-3-7.26-5.8-7.26Z"/>
          <path d="M138.47,122.51a17.92,17.92,0,0,1,1.84-10.45c1.61-3,4-4.73,6.7-5a6.74,6.74,0,0,1,.77,0c5.29,0,10.05,5.86,10.85,13.35a18,18,0,0,1-1.83,10.45c-1.62,2.94-4,4.72-6.71,5a6.51,6.51,0,0,1-.77,0C144,135.85,139.27,130,138.47,122.51Zm8.6-15c-2.54.27-4.78,2-6.31,4.74A17.5,17.5,0,0,0,139,122.45c.77,7.23,5.31,12.89,10.33,12.89.24,0,.48,0,.72,0,2.53-.27,4.77-2,6.3-4.75a17.41,17.41,0,0,0,1.78-10.15c-.78-7.22-5.31-12.88-10.34-12.88A5.63,5.63,0,0,0,147.07,107.56Z"/>
          <path class="cls-7" d="M158.54,95.61a34.53,34.53,0,0,0-13.46-10.67c13.31,11,20,29.86,15.61,54.7a53.55,53.55,0,0,0,9.61-1.14C171.1,127,168.31,108.49,158.54,95.61Z"/>
          <path class="cls-8" d="M131,140.55h0c-4.35,0-7.3,0-7.33,0h-.22v-.05c-.81,0-3.44,0-7.07,0-12.42,0-34.06-.23-39.31-1.79l-.15-.05,0-.19c-.87-12.55,2.45-30.74,11.82-43.09,10.13-13.35,25.69-14,35-14.47.78,0,1.59,0,2.38,0,8,0,23,1.89,32.58,14.57,9.37,12.36,12.69,30.55,11.82,43.09v.2l-.16,0C165.11,140.32,143.47,140.55,131,140.55Zm-7.1-.56c.77,0,3.44,0,7.1,0,12.29,0,33.58-.23,39.05-1.74.81-12.42-2.48-30.32-11.72-42.49-9.5-12.52-24.27-14.39-32.24-14.39-.79,0-1.58,0-2.37,0-9.22.41-24.66,1.11-34.66,14.29-9.24,12.17-12.53,30.06-11.72,42.49,5.47,1.5,26.76,1.73,39,1.73,4.13,0,7,0,7.29,0h.23Z"/>
          <path class="cls-17" d="M91.42,101.52c2-6.59,8-7.58,10.33-5.9.91.85.71,3,.48,4.13C100.09,96.77,95.7,97.57,91.42,101.52Z"/>
          <path d="M90.89,102.36l.28-.91c1.5-5,5.24-6.81,8-6.81a4.79,4.79,0,0,1,2.74.77c1.15,1.07.74,3.63.58,4.39l-.12.58L102,99.9a4,4,0,0,0-3.38-1.69c-2.1,0-4.6,1.24-7,3.5Zm8.27-7.2c-2.4,0-5.61,1.47-7.18,5.52,2.3-1.94,4.64-3,6.66-3a4.51,4.51,0,0,1,3.43,1.45c.18-1.26.14-2.73-.5-3.33A4.24,4.24,0,0,0,99.16,95.16Z"/>
          <path class="cls-17" d="M154,101.52c-2-6.59-8-7.58-10.33-5.9-.91.85-.72,3-.48,4.13C145.37,96.77,149.76,97.57,154,101.52Z"/>
          <path d="M153.86,101.71c-2.44-2.26-4.94-3.5-7-3.5a4,4,0,0,0-3.38,1.69l-.35.48L143,99.8c-.15-.76-.56-3.32.58-4.39a4.82,4.82,0,0,1,2.75-.77c2.75,0,6.49,1.79,8,6.81l.27.91Zm-10-5.9c-.64.6-.67,2.07-.49,3.33a4.49,4.49,0,0,1,3.43-1.45c2,0,4.35,1,6.66,3-1.58-4.05-4.79-5.52-7.18-5.52A4.28,4.28,0,0,0,143.88,95.81Z"/>
          <path class="cls-18" d="M110.43,180c-2.47-2.36-3-6.37-3-6.37a14.53,14.53,0,0,0,3.36,6Z"/>
          <path class="cls-18" d="M134.21,180l-.32-.39a11.89,11.89,0,0,0,3.88-6.13S137.29,177.73,134.21,180Z"/>
          <path class="cls-6" d="M122.55,75.38c8.54.19,15.35,4.28,19,9.92s1.17,11.35-1.23,12.84c-1,3.24-2.23,8.69-10,11.67-3.24,2.27-6.16,5.71-6.48,7.91-2.33-4.21-4.09-5.77-6-7.07-3.89-.12-8.76-2.72-10.51-10.44-4.15-2.4-7.26-7.43-4.28-13.93S111.68,75.77,122.55,75.38Z"/>
          <path class="cls-7" d="M141.53,85.3a20.47,20.47,0,0,0-5.62-5.75,22,22,0,0,1,4.46,11.39c-1-2.59-3.64-4.15-5.71-5.19,1.56,5.19,5.19,10.9,1,15.57-.56-4.5-2.08-6.75-4.67-8.82,3.08,14.44-5.29,14.84-7.29,20.06-2.79-4.67-7.85-4.86-9.31-14.36-1,3.12-1.66,5.4-1.14,8-4.67-3.63-4.57-13.69-2.49-19.4-4.15,1-4.67,5.19-6.23,8.3-.74-1.73-1.83-3.34-2.66-5a10.21,10.21,0,0,0,5.38,10.12c1.75,7.72,6.62,10.32,10.51,10.44,1.94,1.3,3.7,2.86,6,7.07.32-2.2,3.24-5.64,6.48-7.91,7.76-3,9-8.43,10-11.67C142.7,96.65,145.16,90.94,141.53,85.3Z"/>
          <path class="cls-8" d="M107.24,101.08a15.75,15.75,0,0,1,1.67-10.89A17.36,17.36,0,0,0,107.75,101Z"/>
          <path class="cls-8" d="M117.91,111a8.23,8.23,0,0,1-3.26-7.41,9,9,0,0,0,3.57,7Z"/>
          <path class="cls-8" d="M129.86,110.46l-.34-.39a11.27,11.27,0,0,0,3.35-13.4A11,11,0,0,1,129.86,110.46Z"/>
          <path class="cls-8" d="M140.38,98.8l-.51-.12c1.3-5.49-2.8-10.08-2.84-10.13S141.74,93,140.38,98.8Z"/>
          <path class="cls-8" d="M124,118.52l-.37-.67c-2.19-4-3.82-5.55-5.88-6.94-2-.09-8.47-1.13-10.65-10.53-3.95-2.33-7.41-7.42-4.29-14.21,3.29-7.17,9.58-10.69,19.76-11,8.11.18,15.28,3.94,19.21,10a11,11,0,0,1,1.63,8.41,7.88,7.88,0,0,1-2.86,4.74l-.11.39c-1,3.37-2.49,8.46-10,11.34-3.27,2.3-6,5.68-6.35,7.72Zm-1.42-42.88c-10,.35-16.1,3.77-19.3,10.75-3,6.53.37,11.4,4.17,13.6l.1.06,0,.11c2.1,9.25,8.38,10.17,10.26,10.24h.07l.06,0c2,1.33,3.69,2.92,5.79,6.58.71-2.19,3.33-5.25,6.44-7.42l.05,0c7.27-2.79,8.72-7.74,9.69-11l.17-.58.08,0a7.24,7.24,0,0,0,2.71-4.46,10.47,10.47,0,0,0-1.56-8C137.48,79.48,130.46,75.82,122.55,75.64Z"/>
          <g>
            <path class="cls-6" d="M27.11,128.75c-.55-6-1.87-15.51,5.9-15.26,8.59.26,8,12.73,6.71,17.78C37.5,130.76,27.11,128.75,27.11,128.75Z"/>
            <path class="cls-7" d="M30.65,113.78c-5.11,1.64-4,9.7-3.54,15l6.68,1.3C33.79,120.44,27.52,117.58,30.65,113.78Z"/>
            <path class="cls-9" d="M36.33,119.75a2.82,2.82,0,0,1-2.62,3,2.86,2.86,0,0,1-3.13-2.54,2.82,2.82,0,0,1,2.62-3A2.86,2.86,0,0,1,36.33,119.75Z"/>
            <path class="cls-19" d="M36.12,120.2a2.74,2.74,0,0,0-2.92-3,2.77,2.77,0,0,0-2.3,2C32.78,117.11,35.66,117.94,36.12,120.2Z"/>
            <path class="cls-10" d="M30.79,118.93a2.65,2.65,0,0,0-.21,1.31,2.9,2.9,0,0,0,5.74.1C34.74,122.32,31.07,121,30.79,118.93Z"/>
            <path class="cls-20" d="M33.74,123a3.15,3.15,0,0,1-3.44-2.78A3.17,3.17,0,1,1,33.74,123Zm-.51-5.56a2.56,2.56,0,0,0-2.38,2.73,2.6,2.6,0,0,0,2.84,2.3,2.55,2.55,0,0,0,2.37-2.74A2.58,2.58,0,0,0,33.23,117.48Z"/>
            <path class="cls-11" d="M33.46,113.52c5.91,2.6,6.14,10.9,4.54,17.38.74.15,1.35.28,1.72.37C41,126.31,41.57,114.21,33.46,113.52Z"/>
            <path class="cls-8" d="M39.93,131.59l-.27-.06C37.47,131,27.16,129,27.05,129l-.2,0-.1-1.09c-.42-4.31-1-10.21,1.66-13a5.77,5.77,0,0,1,4.6-1.64,6.68,6.68,0,0,1,5.3,2.57C41.4,119.7,41,127.22,40,131.33Zm-12.56-3.07c1.4.27,9.69,1.88,12.14,2.43,1-4.06,1.27-11.16-1.64-14.83A6.16,6.16,0,0,0,33,113.75a5.22,5.22,0,0,0-4.18,1.47c-2.48,2.64-1.93,8.4-1.52,12.61Z"/>
            <path class="cls-6" d="M30.43,128.75c-.2-8-3.93-13.67-8.82-12.46s-5,12.46-2.26,17C21.22,135.31,30.43,128.75,30.43,128.75Z"/>
            <path class="cls-7" d="M21.54,116.31c-4.82,1.3-4.95,12.46-2.19,17,1,1.06,4-.26,6.64-1.75C22.59,127.42,18.47,120.4,21.54,116.31Z"/>
            <path class="cls-9" d="M25.71,122.31a2.81,2.81,0,0,1-2.36,3.23A2.88,2.88,0,0,1,20,123.26,2.81,2.81,0,0,1,22.37,120,2.89,2.89,0,0,1,25.71,122.31Z"/>
            <path class="cls-19" d="M25.53,122.79a2.67,2.67,0,0,0-5.29-.61C21.94,120,24.88,120.57,25.53,122.79Z"/>
            <path class="cls-10" d="M20.12,121.94a2.66,2.66,0,0,0-.11,1.32,2.88,2.88,0,0,0,3.34,2.28,2.83,2.83,0,0,0,2.39-2.63C24.33,125,20.57,124,20.12,121.94Z"/>
            <path class="cls-20" d="M23.39,125.8a3.14,3.14,0,0,1-3.65-2.5,3.06,3.06,0,0,1,2.58-3.53,3.15,3.15,0,0,1,3.66,2.5A3.06,3.06,0,0,1,23.39,125.8Zm-1-5.5a2.54,2.54,0,0,0-2.14,2.91,2.62,2.62,0,0,0,3,2.07,2.54,2.54,0,0,0,2.13-2.92A2.6,2.6,0,0,0,22.42,120.3Z"/>
            <path class="cls-11" d="M22.39,116.15c4.93,1.95,6.2,7.91,7.15,13.21l.89-.61C30.24,121.21,26.89,115.71,22.39,116.15Z"/>
            <path class="cls-8" d="M20.44,134h0a1.71,1.71,0,0,1-1.3-.47l0,0c-2.12-3.49-2.5-10.28-.79-14.25A5,5,0,0,1,21.54,116a5.28,5.28,0,0,1,1.36-.17c4.33,0,7.62,5.41,7.81,12.88v.14l-.12.08C30.31,129.17,23.56,134,20.44,134Zm-.87-.81a1.21,1.21,0,0,0,.87.28c2.73,0,8.8-4.17,9.71-4.81-.22-7.09-3.26-12.22-7.25-12.22a4.83,4.83,0,0,0-1.23.16,4.42,4.42,0,0,0-2.84,2.84C17.21,123.15,17.57,129.82,19.57,133.14Z"/>
            <path class="cls-6" d="M83.93,209.14c-11.5-4-28-21.24-33.82-28.61-7.83-6.43-15-19-18.15-28.6-8.25-3-12.7-4.69-16.58-10.23s-4.62-13.22-1.21-14.83,6.63,2.34,7.74,5.16c2.36-3.42,10.19-8.71,17.33-3.08.34-4,1.8-11,8-9.11s5.43,14.44-.2,22.57c6.28,4.91,15.38,14.51,19.4,20.32,9.7,2.86,31.13,8.89,38.57,18.14C98.48,188.1,83.93,209.14,83.93,209.14Z"/>
            <path class="cls-11" d="M21,136a13.55,13.55,0,0,1,5.82-6.63c3.68-2,9.7-3.21,14.87,2.87-3.14-6-9.84-7.08-15.18-4.33C23.68,129.36,21,132,21,136Z"/>
            <path class="cls-7" d="M58.15,184.22a21.3,21.3,0,0,0,12.75-1.08C54.27,181,43.74,167.6,36,154.2c2.77-.53,5.54-1.07,7.76-2.68-15.87-.48-29.38-10.9-30.17-24.27-2.71,2.19-1.83,9.26,1.81,14.45,3.88,5.54,8.33,7.21,16.58,10.23,3.12,9.57,10.32,22.17,18.15,28.6,5.83,7.37,22.32,24.59,33.82,28.61,0,0,8.52-12.32,15.46-21.35C84.76,198.86,70.5,194.32,58.15,184.22Z"/>
            <path class="cls-9" d="M19.29,132.48a2.8,2.8,0,0,1-2.36,3.22,2.88,2.88,0,0,1-3.34-2.28A2.82,2.82,0,0,1,16,130.19,2.89,2.89,0,0,1,19.29,132.48Z"/>
            <path class="cls-19" d="M19.11,133A2.76,2.76,0,0,0,16,130.19a2.75,2.75,0,0,0-2.13,2.15C15.52,130.13,18.46,130.73,19.11,133Z"/>
            <path class="cls-10" d="M13.7,132.1a2.67,2.67,0,0,0-.11,1.32,2.88,2.88,0,0,0,3.34,2.28,2.81,2.81,0,0,0,2.39-2.63C17.91,135.17,14.15,134.16,13.7,132.1Z"/>
            <path class="cls-20" d="M17,136a3.16,3.16,0,0,1-3.65-2.5,3.07,3.07,0,0,1,2.58-3.54,3.18,3.18,0,0,1,3.66,2.5A3.09,3.09,0,0,1,17,136Zm-1-5.51a2.54,2.54,0,0,0-2.14,2.92,2.62,2.62,0,0,0,3,2.06A2.54,2.54,0,0,0,19,132.52,2.6,2.6,0,0,0,16,130.46Z"/>
            <path class="cls-9" d="M39.58,138.39c0,3-2.79,5.45-6.23,5.45s-6.24-2.44-6.24-5.45S29.9,133,33.35,133,39.58,135.39,39.58,138.39Z"/>
            <path class="cls-19" d="M39.37,138c-.22-3.1-2.86-5.08-6-5.08A6.35,6.35,0,0,0,27.74,136C32.35,133,36.79,133.1,39.37,138Z"/>
            <path class="cls-10" d="M34,141.09c-2.92,0-6.89-2.12-6-5.51a4.9,4.9,0,0,0-.9,2.81c0,3,2.79,5.45,6.24,5.45s6.23-2.44,6.23-5.45a4.69,4.69,0,0,0-.11-1C39.21,139.32,37.75,141.11,34,141.09Z"/>
            <path class="cls-20" d="M33.35,144.11c-3.6,0-6.52-2.56-6.52-5.72s2.92-5.71,6.52-5.71,6.51,2.56,6.51,5.71S36.94,144.11,33.35,144.11Zm0-10.89c-3.29,0-6,2.32-6,5.17s2.67,5.18,6,5.18,5.95-2.32,5.95-5.18S36.63,133.22,33.35,133.22Z"/>
            <path class="cls-9" d="M48.06,126a2.89,2.89,0,1,1-2.89-2.79A2.84,2.84,0,0,1,48.06,126Z"/>
            <path class="cls-19" d="M47.8,126.42a2.71,2.71,0,0,0-2.63-3.23A2.77,2.77,0,0,0,42.7,125C44.76,123.05,47.55,124.12,47.8,126.42Z"/>
            <path class="cls-10" d="M42.62,124.7a2.66,2.66,0,0,0-.34,1.28,2.9,2.9,0,0,0,5.71.59C46.23,128.41,42.7,126.8,42.62,124.7Z"/>
            <path class="cls-20" d="M45.17,129A3.06,3.06,0,1,1,48.34,126,3.12,3.12,0,0,1,45.17,129Zm0-5.59A2.53,2.53,0,1,0,47.78,126,2.58,2.58,0,0,0,45.17,123.45Z"/>
            <path class="cls-8" d="M49.15,180.07l.35-.42c3.7,2.9,10.08,3.66,10.14,3.66S53,183.06,49.15,180.07Z"/>
            <path class="cls-8" d="M68.6,169.87a22.08,22.08,0,0,0-3.07-8l.47-.29A17.58,17.58,0,0,1,68.6,169.87Z"/>
            <path class="cls-8" d="M31.32,152l.14-.52a23.11,23.11,0,0,0,5.33.78A13.2,13.2,0,0,1,31.32,152Z"/>
            <path class="cls-8" d="M44.58,144.52a12.55,12.55,0,0,0,2.63-2.82l.47.28A7.69,7.69,0,0,1,44.58,144.52Z"/>
            <path class="cls-8" d="M41.68,132.24a15.36,15.36,0,0,0-3.5-3.72l.31-.44A11,11,0,0,1,41.68,132.24Z"/>
            <path class="cls-8" d="M21,136s-.3-3.2,1.31-4.91l.41.36A8.75,8.75,0,0,0,21,136Z"/>
            <path class="cls-8" d="M84,209.46l-.2-.07C72.19,205.32,55.68,188,49.91,180.72,42,174.2,34.79,161.44,31.74,152.13c-8.14-3-12.64-4.64-16.59-10.28-2.75-3.91-4.07-9.17-3.15-12.5a4,4,0,0,1,2.05-2.72,4,4,0,0,1,1.74-.4c2.84,0,5.16,3,6.19,5.25a14.11,14.11,0,0,1,10.47-5.27A11,11,0,0,1,39,128.43c.38-3.64,1.72-9.17,6.31-9.17a7.31,7.31,0,0,1,2,.32,6,6,0,0,1,3.82,4c1.81,5,.2,13-3.74,18.82,6.18,4.89,15.08,14.21,19.2,20.14l1,.3c9.85,2.9,30.36,8.93,37.58,17.9l.14.18-.15.16c-6.47,7.14-20.94,28-21.09,28.25ZM15.79,126.77a3.45,3.45,0,0,0-1.49.34,3.49,3.49,0,0,0-1.76,2.38c-.88,3.19.41,8.26,3.06,12.06,3.88,5.53,8.35,7.16,16.46,10.12l.12.05,0,.13c3,9.25,10.19,22,18.07,28.48l.05,0c5.68,7.2,22,24.28,33.48,28.44,1.41-2,14.62-21,20.86-27.95-7.23-8.74-27.43-14.68-37.17-17.54L66.29,163l-.05-.08c-4.12-5.95-13.16-15.42-19.35-20.26l-.2-.15.15-.21c3.89-5.61,5.56-13.75,3.81-18.55a5.37,5.37,0,0,0-3.46-3.62,6.49,6.49,0,0,0-1.87-.3c-4.35,0-5.51,5.75-5.81,9.18l0,.51-.41-.33a10.55,10.55,0,0,0-6.61-2.4,13.72,13.72,0,0,0-10.31,5.43l-.3.43-.19-.49C20.84,130.05,18.52,126.77,15.79,126.77Z"/>
          </g>
          <g>
            <path class="cls-6" d="M212.48,130.8c.56-6,1.87-15.5-5.89-15.26-8.59.27-8,12.74-6.72,17.79C202.09,132.81,212.48,130.8,212.48,130.8Z"/>
            <path class="cls-7" d="M208.94,115.84c5.11,1.64,4,9.7,3.54,15l-6.68,1.31C205.8,122.5,212.07,119.64,208.94,115.84Z"/>
            <path class="cls-9" d="M203.26,121.8a2.82,2.82,0,0,0,2.62,3A2.87,2.87,0,0,0,209,122.3a2.82,2.82,0,0,0-2.63-3A2.86,2.86,0,0,0,203.26,121.8Z"/>
            <path class="cls-19" d="M203.48,122.26a2.66,2.66,0,0,1,5.21-1C206.81,119.17,203.94,120,203.48,122.26Z"/>
            <path class="cls-10" d="M208.8,121a2.75,2.75,0,0,1,.22,1.31,2.87,2.87,0,0,1-3.14,2.53,2.84,2.84,0,0,1-2.61-2.43C204.86,124.38,208.52,123.08,208.8,121Z"/>
            <path class="cls-20" d="M203,121.78a3.15,3.15,0,0,1,3.44-2.78,3.09,3.09,0,0,1,2.87,3.32,3.17,3.17,0,0,1-6.31-.54Zm.55,0a2.57,2.57,0,0,0,2.38,2.74,2.6,2.6,0,0,0,2.83-2.3,2.56,2.56,0,0,0-2.37-2.74A2.6,2.6,0,0,0,203.53,121.83Z"/>
            <path class="cls-11" d="M206.14,115.58c-5.92,2.6-6.15,10.9-4.55,17.38-.74.15-1.35.28-1.72.37C198.65,128.37,198,116.27,206.14,115.58Z"/>
            <path class="cls-8" d="M199.6,133.39c-1-4.11-1.4-11.64,1.68-15.54a6.7,6.7,0,0,1,5.3-2.57,5.77,5.77,0,0,1,4.6,1.64c2.65,2.81,2.08,8.71,1.66,13l-.1,1.09-.2,0c-.11,0-10.42,2-12.6,2.52l-.27.06Zm12.69-3.5c.41-4.21,1-10-1.52-12.61a5.21,5.21,0,0,0-4.17-1.47,6.18,6.18,0,0,0-4.88,2.37c-2.9,3.67-2.58,10.77-1.64,14.83,2.45-.55,10.74-2.16,12.15-2.43Z"/>
            <path class="cls-6" d="M209.16,130.8c.21-8,3.94-13.66,8.83-12.46s5,12.46,2.25,17C218.37,137.37,209.16,130.8,209.16,130.8Z"/>
            <path class="cls-7" d="M218.06,118.37c4.82,1.29,4.94,12.46,2.18,17-1,1.06-4-.26-6.64-1.75C217,129.48,221.13,122.46,218.06,118.37Z"/>
            <path class="cls-9" d="M213.89,124.37a2.8,2.8,0,0,0,2.36,3.23,2.88,2.88,0,0,0,3.33-2.28,2.8,2.8,0,0,0-2.36-3.23A2.87,2.87,0,0,0,213.89,124.37Z"/>
            <path class="cls-19" d="M214.07,124.85a2.66,2.66,0,0,1,5.28-.61C217.65,122,214.71,122.63,214.07,124.85Z"/>
            <path class="cls-10" d="M219.48,124a2.78,2.78,0,0,1,.1,1.32,2.88,2.88,0,0,1-3.33,2.28,2.84,2.84,0,0,1-2.4-2.64C215.26,127.07,219,126.06,219.48,124Z"/>
            <path class="cls-20" d="M213.61,124.33a3.16,3.16,0,0,1,3.66-2.5,3.08,3.08,0,0,1,2.59,3.53,3.16,3.16,0,0,1-3.66,2.5A3.08,3.08,0,0,1,213.61,124.33Zm.55.09a2.53,2.53,0,0,0,2.13,2.91,2.61,2.61,0,0,0,3-2.06,2.53,2.53,0,0,0-2.13-2.91A2.6,2.6,0,0,0,214.16,124.42Z"/>
            <path class="cls-11" d="M217.2,118.21c-4.92,2-6.19,7.91-7.14,13.21-.56-.37-.9-.62-.9-.62C209.35,123.27,212.7,117.77,217.2,118.21Z"/>
            <path class="cls-8" d="M209,131l-.11-.08v-.14c.2-7.47,3.48-12.89,7.81-12.89a5.91,5.91,0,0,1,1.37.17,5,5,0,0,1,3.21,3.16c1.71,4,1.34,10.77-.79,14.26l0,0a1.71,1.71,0,0,1-1.3.47h0C216,136,209.28,131.22,209,131Zm11.77-9.57a4.44,4.44,0,0,0-2.84-2.85,5.24,5.24,0,0,0-1.23-.15c-4,0-7,5.13-7.25,12.22.92.64,7,4.81,9.71,4.8a1.19,1.19,0,0,0,.87-.27C222,131.88,222.38,125.21,220.76,121.45Z"/>
            <path class="cls-6" d="M155.66,211.2c11.51-4,28-21.24,33.82-28.61,7.83-6.43,15-19,18.15-28.61,8.25-3,12.71-4.69,16.59-10.22s4.62-13.22,1.2-14.83-6.63,2.34-7.74,5.16c-2.35-3.42-10.18-8.71-17.32-3.08-.35-4-1.8-11-8-9.12s-5.43,14.45.21,22.58c-6.29,4.91-15.39,14.51-19.4,20.32-9.71,2.86-31.14,8.89-38.58,18.13C141.11,190.16,155.66,211.2,155.66,211.2Z"/>
            <path class="cls-11" d="M218.61,138.06a13.62,13.62,0,0,0-5.83-6.63c-3.67-2-9.7-3.22-14.87,2.87,3.14-6,9.84-7.08,15.18-4.33C215.91,131.42,218.63,134.05,218.61,138.06Z"/>
            <path class="cls-7" d="M181.44,186.27a21.21,21.21,0,0,1-12.75-1.07c16.63-2.14,27.16-15.54,34.92-28.94-2.77-.53-5.54-1.07-7.76-2.68,15.88-.48,29.38-10.9,30.17-24.27,2.71,2.19,1.83,9.26-1.8,14.45-3.88,5.53-8.34,7.21-16.59,10.22-3.11,9.58-10.32,22.18-18.15,28.61-5.82,7.37-22.31,24.59-33.82,28.61,0,0-8.52-12.32-15.46-21.35C154.83,200.92,169.09,196.38,181.44,186.27Z"/>
            <path class="cls-9" d="M220.31,134.54a2.79,2.79,0,0,0,2.36,3.22,2.88,2.88,0,0,0,3.33-2.28,2.8,2.8,0,0,0-2.36-3.23A2.88,2.88,0,0,0,220.31,134.54Z"/>
            <path class="cls-19" d="M220.49,135a2.66,2.66,0,0,1,5.28-.61C224.07,132.19,221.13,132.79,220.49,135Z"/>
            <path class="cls-10" d="M225.9,134.16a2.67,2.67,0,0,1,.1,1.32,2.88,2.88,0,0,1-3.33,2.28,2.84,2.84,0,0,1-2.4-2.63C221.68,137.23,225.45,136.22,225.9,134.16Z"/>
            <path class="cls-20" d="M220,134.49a3.17,3.17,0,0,1,3.66-2.5,3.08,3.08,0,0,1,2.59,3.53,3.16,3.16,0,0,1-3.66,2.5A3.08,3.08,0,0,1,220,134.49Zm.55.09a2.55,2.55,0,0,0,2.13,2.92,2.61,2.61,0,0,0,3-2.07,2.53,2.53,0,0,0-2.13-2.91A2.61,2.61,0,0,0,220.58,134.58Z"/>
            <path class="cls-9" d="M200,140.45c0,3,2.79,5.45,6.24,5.45s6.23-2.44,6.23-5.45-2.79-5.44-6.23-5.44S200,137.45,200,140.45Z"/>
            <path class="cls-19" d="M200.22,140.09c.22-3.11,2.86-5.08,6-5.08a6.37,6.37,0,0,1,5.61,3.07C207.24,135,202.81,135.16,200.22,140.09Z"/>
            <path class="cls-10" d="M205.56,143.15c2.91,0,6.89-2.12,6-5.51a4.9,4.9,0,0,1,.9,2.81c0,3-2.79,5.45-6.23,5.45s-6.24-2.44-6.24-5.45a4.62,4.62,0,0,1,.11-1C200.38,141.38,201.85,143.16,205.56,143.15Z"/>
            <path class="cls-20" d="M199.73,140.45c0-3.15,2.93-5.71,6.52-5.71s6.51,2.56,6.51,5.71-2.92,5.72-6.51,5.72S199.73,143.6,199.73,140.45Zm.56,0c0,2.86,2.67,5.18,6,5.18s6-2.32,6-5.18-2.68-5.18-6-5.18S200.29,137.6,200.29,140.45Z"/>
            <path class="cls-9" d="M191.53,128a2.89,2.89,0,1,0,2.89-2.8A2.85,2.85,0,0,0,191.53,128Z"/>
            <path class="cls-19" d="M191.79,128.48a2.72,2.72,0,0,1,2.63-3.24,2.78,2.78,0,0,1,2.47,1.77C194.83,125.11,192,126.18,191.79,128.48Z"/>
            <path class="cls-10" d="M197,126.76a2.73,2.73,0,0,1,.33,1.28,2.9,2.9,0,0,1-5.71.59C193.36,130.47,196.89,128.86,197,126.76Z"/>
            <path class="cls-20" d="M191.25,128a3.17,3.17,0,1,1,3.17,3.06A3.12,3.12,0,0,1,191.25,128Zm.56,0a2.61,2.61,0,1,0,2.61-2.53A2.57,2.57,0,0,0,191.81,128Z"/>
            <path class="cls-8" d="M190.44,182.13l-.35-.42c-3.69,2.9-10.07,3.65-10.14,3.66S186.62,185.12,190.44,182.13Z"/>
            <path class="cls-8" d="M171,171.93a21.74,21.74,0,0,1,3.06-8l-.46-.29A17.45,17.45,0,0,0,171,171.93Z"/>
            <path class="cls-8" d="M208.28,154l-.15-.51a23.13,23.13,0,0,1-5.32.78A13.11,13.11,0,0,0,208.28,154Z"/>
            <path class="cls-8" d="M195,146.58a12.8,12.8,0,0,1-2.63-2.82l-.47.28A7.69,7.69,0,0,0,195,146.58Z"/>
            <path class="cls-8" d="M197.91,134.3a15.36,15.36,0,0,1,3.5-3.72l-.31-.44A11,11,0,0,0,197.91,134.3Z"/>
            <path class="cls-8" d="M218.61,138.06s.29-3.2-1.31-4.91l-.41.36C218.36,135.08,218.6,138,218.61,138.06Z"/>
            <path class="cls-8" d="M155.43,211.34c-.14-.21-14.61-21.1-21.09-28.24l-.15-.17.14-.17c7.22-9,27.73-15,37.59-17.9l1-.3c4.12-5.93,13-15.25,19.21-20.14-3.94-5.82-5.55-13.87-3.74-18.83a5.94,5.94,0,0,1,3.82-4,6.93,6.93,0,0,1,2-.33c4.59,0,5.93,5.54,6.32,9.18a10.94,10.94,0,0,1,6.55-2.22,14.13,14.13,0,0,1,10.48,5.27c1-2.27,3.35-5.25,6.18-5.25a4,4,0,0,1,1.74.4,4,4,0,0,1,2.05,2.72c.92,3.33-.4,8.58-3.14,12.5-3.95,5.64-8.46,7.3-16.59,10.28-3.06,9.3-10.26,22.07-18.18,28.59-5.77,7.29-22.28,24.6-33.92,28.67l-.21.07Zm62.51-77.16-.19.49-.3-.43a13.72,13.72,0,0,0-10.31-5.43,10.55,10.55,0,0,0-6.61,2.4l-.4.32,0-.5c-.3-3.43-1.45-9.18-5.81-9.18a6.49,6.49,0,0,0-1.87.3,5.39,5.39,0,0,0-3.46,3.62c-1.75,4.79-.07,12.94,3.82,18.55l.14.21-.2.15c-6.19,4.84-15.23,14.3-19.34,20.26l-.06.08-1.22.36c-9.74,2.86-29.94,8.8-37.17,17.54,6.25,7,19.45,25.92,20.86,28,11.53-4.16,27.8-21.24,33.49-28.44l0,0c7.88-6.48,15.06-19.23,18.07-28.49l0-.12.13-.05c8.11-3,12.57-4.6,16.45-10.12,2.66-3.8,3.95-8.87,3.06-12.06a3.27,3.27,0,0,0-3.25-2.73C221.07,128.82,218.76,132.11,217.94,134.18Z"/>
          </g>
          <g>
            <path class="cls-6" d="M93.81,183.11c-5.06,8.22-14,26.24-17.77,51.53-10.9,12.71-15.7,25.42-16.22,33.73s5.58,20.88,25.3,22.56c-5.84,3.5-16.15,5.58-23.54,7.27S49,302.09,46,306.24s-2.73,9.4-2.21,10.37c-1,3.63-4.62,9.47,10.59,10.59,1.82,2.38,7.53,3.33,22-1.42A70.42,70.42,0,0,0,107.25,306c6.57-7.27,8.47-11,8.73-15.57s.44-9.25,0-12c7.61.77,28.36,3,43.45-17.17,6.62-4.54,11.37-7.65,15.95-6.79s6.34,4.72,8.5,8.09,5.38,8.75,9.4,6.42,26.33-91.63,26.33-91.63c-5.25-.71-12,3-17,11.61s-8.3,20-10.25,26c-4.08-5.45-14.69-21.83-32-5.75C158,199,154,187.09,150.91,183.11S93.81,183.11,93.81,183.11Z"/>
            <path class="cls-7" d="M89.3,265.71c-12.44-7.46-13.73-19.22-13.5-30.78-1,1.16-1.93,2.33-2.82,3.49C71.7,249.14,77.38,262,89.3,265.71Z"/>
            <path class="cls-7" d="M185.5,244.5c-2.92,2-7.61,0-10-6.48-1.91-5.11-3.54-10.55-6.74-16.19,2.33,17.38-20.19,37.28-27.46,41.43-19.19,11.41-45.2,7.87-51.75,3,3.44,4.84,5.19,7.26,8.82,9.34,3.12,2.07,7.27,3.11,7.79,4.67,5.18,11.41-4.67,26.59-15,32.81-2.07,1.56-25,14.46-33.85,12.91-2.92-.59-.45-8.79,6.11-13.6-7.81,2.83-13.24,9.9-16.36,7.31-2.84-2.44.84-8.68,8.55-14.36-5.73.39-9.19,4.63-11.3,4.14-1.15,3.26-.87,6.38-.49,7.1-1,3.63-4.62,9.47,10.59,10.59,1.82,2.38,7.53,3.33,22-1.42A70.42,70.42,0,0,0,107.25,306c6.57-7.27,8.47-11,8.73-15.57s.44-9.25,0-12c7.61.77,28.36,3,43.45-17.17,6.62-4.54,11.37-7.65,15.95-6.79s6.34,4.72,8.5,8.09,5.38,8.75,9.4,6.42c3-1.74,16.11-51.63,22.63-77-4.1,4.87-10.86,9.27-14.48,15.67C193.28,222,188.74,243.53,185.5,244.5Z"/>
            <path class="cls-8" d="M158.15,213a11.59,11.59,0,0,1,2.53-4.43l.36.38A16.41,16.41,0,0,0,158.15,213Z"/>
            <path class="cls-8" d="M158.18,263.26l-.41-.32a62.33,62.33,0,0,0,4.8-7.12,55.28,55.28,0,0,0,5.11-11.32A40.21,40.21,0,0,1,163,256.17,62.4,62.4,0,0,1,158.18,263.26Z"/>
            <path class="cls-8" d="M87.09,291.22a32,32,0,0,1-3.62-.2l.06-.51a39.86,39.86,0,0,0,16.22-1.9A33.53,33.53,0,0,1,87.09,291.22Z"/>
            <path class="cls-8" d="M54.11,327.34c-4-6.53,9.23-14.92,9.23-14.92S50.8,321,54.55,327.07Z"/>
            <path class="cls-8" d="M43.83,317.23l-.49-.16c2.43-7.39,12.19-11.7,12.19-11.7S46.2,310.05,43.83,317.23Z"/>
            <path class="cls-8" d="M187.58,247.63a151,151,0,0,1,2-20.72,116.84,116.84,0,0,1,3.13-13.8l.49.15a117,117,0,0,0-3.06,13.45C188.24,237.52,187.58,247.49,187.58,247.63Z"/>
            <path class="cls-8" d="M117.24,278.78a46.83,46.83,0,0,1-19.73-7.26,51.68,51.68,0,0,0,19.79,6.75Z"/>
            <path class="cls-8" d="M77.46,251.31a39,39,0,0,1-1.48-18l.51.06a38.25,38.25,0,0,0,1.65,18.33c3.69,10.06,11,14,11.16,14S81.14,262,77.46,251.31Z"/>
            <path class="cls-8" d="M60.25,329.43c-3,0-5-.67-6-2-6.05-.46-9.68-1.71-11.1-3.82-1.27-1.89-.54-4.13,0-5.94.12-.37.23-.72.33-1.06-.52-1.24-.79-6.39,2.27-10.56,2.81-3.82,7.53-6.25,15.78-8.14l2.26-.51c6.81-1.53,15.21-3.41,20.5-6.32C63.76,289,59.13,275.36,59.57,268.35c.62-10,6.69-22.68,16.22-33.82,4-27,13.78-45,17.79-51.55l.07-.12h.14c.24,0,24.2-1.76,40.93-1.76,14.94,0,16,1.4,16.4,1.86,3.21,4.11,7.1,16.13,9.41,25.74,4.85-4.42,9.61-6.66,14.14-6.66,8.52,0,14.22,7.74,17.29,11.9l.32.44.65-2c2-6.37,5.09-16,9.47-23.55S212.63,177,218.31,177a9.94,9.94,0,0,1,1.34.09l.28,0-.07.28c-.91,3.65-22.38,89.43-26.45,91.79a4.19,4.19,0,0,1-2.1.61c-3.12,0-5.6-3.9-7.41-6.74l-.24-.37-.83-1.33c-1.86-3-3.62-5.91-7.49-6.64a8.51,8.51,0,0,0-1.52-.14c-3.92,0-8,2.59-14.2,6.86-8.81,11.76-20.81,17.72-35.68,17.72a74.47,74.47,0,0,1-7.65-.45,74.36,74.36,0,0,1-.05,11.74c-.27,4.84-2.41,8.66-8.8,15.72a70.78,70.78,0,0,1-31,19.87C69.56,328.28,64.11,329.43,60.25,329.43ZM94,183.36c-4,6.59-13.68,24.54-17.67,51.32v.08l0,.05c-9.49,11.08-15.52,23.63-16.15,33.57-.43,6.93,4.25,20.51,25.06,22.29l.8.07-.69.42c-5.3,3.17-14.2,5.17-21.35,6.78l-2.27.51c-8.12,1.85-12.75,4.23-15.47,7.94-3,4.12-2.64,9.25-2.19,10.1l.05.09,0,.1c-.1.37-.23.77-.36,1.18-.58,1.79-1.23,3.81-.1,5.49,1.33,2,4.87,3.16,10.82,3.6h.12l.07.1c2.21,2.89,9.8,2.4,21.76-1.52a70.32,70.32,0,0,0,30.76-19.73c6.29-6.95,8.4-10.7,8.66-15.4.25-4.35.44-9.17,0-12l0-.34.46,0a72.9,72.9,0,0,0,7.8.47c14.71,0,26.58-5.9,35.29-17.54l.06-.06c6.32-4.34,10.45-7,14.53-7a8.53,8.53,0,0,1,1.61.15c4.1.77,6,3.88,7.85,6.88.27.44.54.88.82,1.32l.23.37c1.75,2.74,4.15,6.5,7,6.5a3.61,3.61,0,0,0,1.84-.54c3.1-1.79,18.41-60.25,26.14-91.18-.32,0-.65,0-1,0-5.49,0-11.27,4.32-15.47,11.57-4.34,7.51-7.4,17.1-9.42,23.45-.29.91-.55,1.75-.8,2.5l-.15.48-.3-.4-.63-.85c-3-4.09-8.61-11.69-16.87-11.69-4.5,0-9.24,2.3-14.11,6.82l-.33.3-.1-.43c-2.28-9.63-6.21-21.86-9.42-26-.6-.76-3.85-1.67-16-1.67C118.65,181.6,95.9,183.22,94,183.36Z"/>
            <path class="cls-21" d="M159.3,227.38c-1.55-20.06-8-34.42-10.89-41.67l-26.33-3.61v0l-.09,0-.08,0v0l-26.33,3.61c-2.93,7.25-9.34,21.61-10.9,41.67-.81,10.5,2.72,21.52,9.2,30.27,5,6.74,16.57,13.48,28.2,13.48,11.89,0,21-5.62,27.34-12.66C157,250.12,160.14,238.23,159.3,227.38Z"/>
            <path class="cls-22" d="M159.3,227.38c-1.55-20.06-8-34.42-10.89-41.67l-18.67-2.56c16.22,18.33,26.09,46.72,6,65-15.53,13.76-39.6,13.32-50-8.22a48,48,0,0,0,8.2,17.74c5,6.74,16.57,13.48,28.2,13.48,11.89,0,21-5.62,27.34-12.66C157,250.12,160.14,238.23,159.3,227.38Z"/>
            <path class="cls-18" d="M122.08,271.39c-11.92,0-23.54-7-28.41-13.59-6.68-9-10-20.11-9.25-30.44,1.45-18.64,7.16-32.57,10.23-40.05.24-.61.47-1.17.69-1.7l0-.14,26.26-3.6v-.07l.34,0,.35,0v.09l26.25,3.6.06.14c.21.53.44,1.09.69,1.7,3.07,7.48,8.77,21.41,10.22,40.05.91,11.7-2.81,23.39-9.95,31.28C144.35,264.46,135.3,271.39,122.08,271.39ZM95.76,185.94c-.2.49-.41,1-.64,1.56-3.05,7.46-8.74,21.34-10.18,39.9-.79,10.2,2.54,21.17,9.15,30.1,4.79,6.48,16.24,13.37,28,13.37,13,0,22-6.84,27.15-12.58,7-7.79,10.71-19.33,9.81-30.89-1.44-18.56-7.12-32.44-10.18-39.9-.23-.55-.44-1.07-.64-1.56L122,182.35h0Z"/>
            <path class="cls-21" d="M148.5,170.19c-4.28-1.95-13.58-2.08-26.51-1.05-12.92-1-22.23-.9-26.5,1.05s-9.21,15.69-2.07,23.73a20.22,20.22,0,0,1,1.71-5.71c.07,3.12,1.23,13.49,11.17,17.12-1.31-2.07-1.21-4.62-1.08-6.48,1.81,3,2.33,5.12,6.94,8s9.5,7.26,9.83,7.3c.69-.26,5.31-4.43,9.84-7.3s5.12-5.06,6.94-8c.13,1.86.22,4.41-1.08,6.48,9.94-3.63,11.1-14,11.16-17.12a20.11,20.11,0,0,1,1.72,5.71C157.7,185.88,152.77,172.13,148.5,170.19Z"/>
            <path class="cls-22" d="M148.5,170.19a24.38,24.38,0,0,0-8.11-1.55c3.68,4.56,9.57,8.72,8.28,15.16-1.69-2.4-3.44-3.8-5.71-4.15,5.19,6.23,2.08,14-2.07,19.2-.2-4.41-.78-6.68-3.12-8.82-2.07,7.78-5.46,14.53-15.52,19.19-7.61-4.36-14.35-7.69-19.24-18.67-1,2.59-1,5.7-1,8.3-5.19-3.63-4.67-9.86-5.19-15.57-3.11,1-2.6,4.67-4.15,6.75a49.06,49.06,0,0,1-2.54-9.82c-.76,4.58-.14,9.81,3.32,13.71a20.22,20.22,0,0,1,1.71-5.71c.07,3.12,1.23,13.49,11.17,17.12-1.31-2.07-1.21-4.62-1.08-6.48,1.81,3,2.33,5.12,6.94,8s9.5,7.26,9.83,7.3c.69-.26,5.31-4.43,9.84-7.3s5.12-5.06,6.94-8c.13,1.86.22,4.41-1.08,6.48,9.94-3.63,11.1-14,11.16-17.12a20.11,20.11,0,0,1,1.72,5.71C157.7,185.88,152.77,172.13,148.5,170.19Z"/>
            <path class="cls-18" d="M122,214.46H122c-.17,0-.39-.18-2-1.47a97.68,97.68,0,0,0-7.94-5.87,15.35,15.35,0,0,1-6.12-6.56l-.48-.84a9.54,9.54,0,0,0,1.1,5.48l.4.65-.71-.26c-9.37-3.43-11-12.75-11.28-16.32A26.53,26.53,0,0,0,93.67,194l-.1.52-.35-.4C90,190.42,88.79,185,90,179.18c.94-4.43,3.14-8.22,5.35-9.23,2.53-1.15,6.77-1.7,13-1.7,3.81,0,8.28.2,13.66.63,5.34-.43,9.81-.63,13.63-.63,6.2,0,10.44.55,13,1.7,2.22,1,4.42,4.8,5.36,9.23,1.23,5.8.07,11.24-3.2,14.91l-.35.4-.1-.52a26.43,26.43,0,0,0-1.25-4.71c-.28,3.57-1.91,12.89-11.28,16.32l-.72.26.41-.65a9.53,9.53,0,0,0,1.09-5.48l-.47.84a15.35,15.35,0,0,1-6.12,6.56,88.68,88.68,0,0,0-7.57,5.59,17,17,0,0,1-2.31,1.74ZM105,198l.42.69c.34.56.63,1.08.91,1.59a14.72,14.72,0,0,0,6,6.37,93.6,93.6,0,0,1,8,5.9c.75.6,1.46,1.17,1.71,1.33.33-.19,1.15-.85,2.09-1.6a86.43,86.43,0,0,1,7.61-5.63,14.62,14.62,0,0,0,5.94-6.37c.29-.51.58-1,.92-1.59L139,198l.06.81a11.94,11.94,0,0,1-.77,6c9.58-4,10.29-14.5,10.33-16.62l0-.88.46.75a18.57,18.57,0,0,1,1.65,5.26c2.89-3.54,3.88-8.63,2.73-14.05-.89-4.21-3-7.94-5.06-8.87-2.46-1.11-6.63-1.66-12.75-1.66-3.8,0-8.26.21-13.63.64-5.4-.43-9.86-.64-13.66-.64-6.13,0-10.3.55-12.75,1.66-2,.93-4.17,4.66-5.07,8.87-1.15,5.42-.15,10.51,2.73,14.05a19.27,19.27,0,0,1,1.65-5.26l.47-.75v.88c0,2.12.76,12.67,10.33,16.62a11.93,11.93,0,0,1-.76-6Z"/>
            <path class="cls-23" d="M221,176.71c-3.89-.17-8.73,1.47-13.06,11.33s-13,42.28-15.65,57.33-3.19,25.07,2.94,25.5,8.3-3.11,11.33-12.19,6.83-20.06,14.44-30.61,16.13-23,15.74-33.5c1.42-6.88.34-14.48-3.63-16.91C232.36,172.91,228.47,170,221,176.71Z"/>
            <path class="cls-24" d="M234.43,179.26c-.26-.22-1.44-1.42-1.72-1.6.3,4-.73,11.07-4.51,18C232.52,190.26,235.16,183.8,234.43,179.26Z"/>
            <path class="cls-24" d="M219.92,191.87c2.64-5.37,8-13.22,2.73-16.82a26.3,26.3,0,0,0-2.05,1.66C224.9,177.23,221.46,185.24,219.92,191.87Z"/>
            <path class="cls-24" d="M217.92,224.46c-7.19,9.21-13.88,26.37-18.81,24.55-4.67-1.12-4.47-12.72-3.52-20.75-1.59,6.55-2.92,12.61-3.69,17.11-2.6,15-3.2,25.07,2.94,25.5s8.3-3.11,11.33-12.19,6.83-20.06,14.43-30.61c6.72-9.31,14.15-20.11,15.52-29.74C232.58,207.57,223.71,217.06,217.92,224.46Z"/>
            <path class="cls-8" d="M232,202.52a28.85,28.85,0,0,0,4.27-8.83l.5.11C235.72,198.27,232,202.52,232,202.52Z"/>
            <path class="cls-8" d="M228.2,195.61c.06-.1,5.41-10.39,4.1-18.7l.51-.08C234.15,185.32,228.2,195.61,228.2,195.61Z"/>
            <path class="cls-8" d="M219.92,191.87c0-.09,2.33-9.22,2.46-12.23a2.77,2.77,0,0,0-.55-2.07,3.13,3.13,0,0,0-2.34-.58h-.16v-.52h.15a3.57,3.57,0,0,1,2.72.74,3.18,3.18,0,0,1,.7,2.45C222.77,182.72,219.92,191.87,219.92,191.87Z"/>
            <path class="cls-8" d="M229.75,200.86A9.47,9.47,0,0,0,225,195.2a8.12,8.12,0,0,0-3.39-.7,11.11,11.11,0,0,0-4.45.91,12,12,0,0,0-5.06,4.1,9.82,9.82,0,0,1,4.84-4.57,11.62,11.62,0,0,1,4.67-1,8.54,8.54,0,0,1,3.47.7C229,196.4,229.75,200.86,229.75,200.86Z"/>
            <path class="cls-8" d="M195.8,271.17h0c-.32,0-.64,0-1,0a4.37,4.37,0,0,1-3.28-1.69c-2.76-3.52-1.95-12.19.1-24.12,2.71-15.68,11.49-47.85,15.67-57.38,3.39-7.74,7.57-11.5,12.77-11.5h.43c2.94-2.62,5.53-3.95,7.68-3.95,2.49,0,4.27,1.87,4.76,5,4.17,2.65,5,10.57,3.65,17.08.37,10.33-7.6,22.28-15.78,33.63-7.26,10.06-11,20.19-14.41,30.54C203.5,267.51,201.38,271.17,195.8,271.17ZM220.08,177c-5,0-9,3.66-12.29,11.19-4.17,9.5-12.94,41.61-15.64,57.26-1.76,10.21-3,20.14-.2,23.71a3.8,3.8,0,0,0,2.91,1.49c6,.43,8.06-3,11.06-12,3.46-10.4,7.18-20.56,14.48-30.68,8.14-11.29,16.06-23.16,15.68-33.34v-.06c1.32-6.4.54-14.16-3.52-16.63l-.1-.07,0-.12c-.2-1.41-1-4.68-4.26-4.68-2,0-4.57,1.34-7.41,3.89l-.08.07h-.62Z"/>
            <path class="cls-9" d="M218.44,220c-2.24,5.7-6.2,9.48-8.84,8.44s-3-6.5-.74-12.2,6.19-9.49,8.84-8.45S220.68,214.25,218.44,220Z"/>
            <path class="cls-10" d="M207.87,219.31c-1.05,4.46-.43,8.24,1.73,9.08,2.64,1,6.6-2.74,8.84-8.44,1.48-3.75,1.83-7.39,1.15-9.74C219.61,219.21,211.18,227.51,207.87,219.31Z"/>
            <path class="cls-19" d="M219.48,209.88a3.26,3.26,0,0,0-1.78-2.14c-2.65-1-6.61,2.74-8.84,8.45a27.74,27.74,0,0,0-.74,3C211.22,213.37,214.94,206.5,219.48,209.88Z"/>
            <path class="cls-25" d="M210.53,228.82a2.73,2.73,0,0,1-1-.19c-2.82-1.1-3.21-6.61-.89-12.54,2-5.09,5.43-8.78,8.16-8.78a2.73,2.73,0,0,1,1,.19c2.82,1.11,3.21,6.62.89,12.54C216.69,225.13,213.26,228.82,210.53,228.82Zm6.24-21c-2.52,0-5.75,3.55-7.67,8.45-2.19,5.56-1.92,10.89.59,11.87a2.32,2.32,0,0,0,.84.16c2.52,0,5.75-3.56,7.67-8.46,2.19-5.56,1.92-10.88-.59-11.87A2.32,2.32,0,0,0,216.77,207.83Z"/>
            <path class="cls-9" d="M217.27,190.67c-1.15,2.92-3.38,4.78-5,4.15s-2-3.52-.84-6.44,3.39-4.79,5-4.16S218.42,187.74,217.27,190.67Z"/>
            <path class="cls-19" d="M217.63,185.56a2.22,2.22,0,0,0-1.19-1.34c-1.61-.63-3.85,1.23-5,4.16-.09.22-.27,1.5-.34,1.72C213.26,186.22,215,183.84,217.63,185.56Z"/>
            <path class="cls-10" d="M211.08,189.49c-.67,2.51-.21,4.77,1.2,5.33,1.61.63,3.84-1.23,5-4.15a9,9,0,0,0,.66-3.61C214.51,195.2,211.08,192.42,211.08,189.49Z"/>
            <path class="cls-25" d="M212.94,195.2a2.18,2.18,0,0,1-.76-.14,2.94,2.94,0,0,1-1.61-2.57,8.71,8.71,0,0,1,.63-4.21c1-2.61,2.9-4.44,4.57-4.44a2.14,2.14,0,0,1,.76.14,3,3,0,0,1,1.62,2.57,8.71,8.71,0,0,1-.64,4.21C216.49,193.37,214.61,195.2,212.94,195.2Zm2.83-10.84c-1.43,0-3.15,1.73-4.09,4.11a8.26,8.26,0,0,0-.6,3.95,2.48,2.48,0,0,0,1.29,2.15,1.56,1.56,0,0,0,.57.11c1.44,0,3.16-1.73,4.09-4.11a8.26,8.26,0,0,0,.6-3.95,2.44,2.44,0,0,0-1.29-2.15A1.56,1.56,0,0,0,215.77,184.36Z"/>
            <path class="cls-9" d="M229.72,185.38c-.67,2.49-2.33,4.21-3.7,3.85s-1.94-2.69-1.27-5.19,2.32-4.21,3.7-3.84S230.39,182.89,229.72,185.38Z"/>
            <path class="cls-10" d="M224.75,184.05c-.67,2.49-.1,4.81,1.27,5.18s3-1.36,3.7-3.85A9.92,9.92,0,0,0,230,184C228,188.13,224.8,188,224.75,184.05Z"/>
            <path class="cls-19" d="M229.87,182.09a2.28,2.28,0,0,0-1.42-1.89c-1.33-.36-3.25,1.58-3.67,4.45C226.51,181.23,228,179.65,229.87,182.09Z"/>
            <path class="cls-25" d="M226.4,189.54a1.74,1.74,0,0,1-.45-.06,2.46,2.46,0,0,1-1.58-2,7.16,7.16,0,0,1,.13-3.51c.63-2.37,2.13-4.09,3.57-4.09a1.61,1.61,0,0,1,.44.06c1.54.41,2.18,2.82,1.46,5.5C229.33,187.82,227.83,189.54,226.4,189.54Zm1.67-9.13c-1.19,0-2.51,1.59-3.07,3.7a6.64,6.64,0,0,0-.13,3.26,2,2,0,0,0,1.22,1.61,1.55,1.55,0,0,0,.31,0c1.18,0,2.5-1.6,3.07-3.71.62-2.31.12-4.54-1.09-4.86A1.1,1.1,0,0,0,228.07,180.41Z"/>
            <path class="cls-9" d="M234.71,194.69c-.44,1.65-1.54,2.79-2.45,2.54s-1.28-1.78-.84-3.43,1.54-2.79,2.45-2.54S235.16,193,234.71,194.69Z"/>
            <path class="cls-19" d="M234.55,192.23c-.17-.5-.28-.87-.68-1-.91-.25-2,.89-2.45,2.54,0,.09.15.32.13.4C232.31,192.77,233.42,191.06,234.55,192.23Z"/>
            <path class="cls-10" d="M231.3,194.63c-.22,1.42.16,2.63,1,2.84s2-.89,2.45-2.54a4.6,4.6,0,0,0,.09-2.22C234.37,195.52,232.32,197.13,231.3,194.63Z"/>
            <path class="cls-25" d="M232.52,197.53a1.13,1.13,0,0,1-.32-.05,1.71,1.71,0,0,1-1.12-1.37,4.86,4.86,0,0,1,.09-2.38c.43-1.6,1.46-2.77,2.45-2.77a1.45,1.45,0,0,1,1.43,1.42,4.82,4.82,0,0,1-.09,2.37C234.53,196.36,233.5,197.53,232.52,197.53Zm1.1-6.05c-.73,0-1.59,1.05-2,2.39a4.37,4.37,0,0,0-.08,2.11c.13.56.4.91.74,1,.76.2,1.74-.91,2.13-2.36a4.26,4.26,0,0,0,.09-2.11c-.14-.56-.4-.91-.75-1Z"/>
          </g>
          <g>
            <path class="cls-21" d="M164.37,132.29c-6.87-3.46-14.52-1.88-22.09,1.66-5.19-5.31-11.18-8.66-19.82-8.66A28.36,28.36,0,0,0,102.64,134c-7.58-3.54-15.22-5.12-22.09-1.66a18.17,18.17,0,0,0-9.33,19,8.14,8.14,0,0,1,3.11-3c-1,4.07-.86,9.54,2.92,13.08a10.6,10.6,0,0,1,1.09-4.65c1.14,3.69,5.5,11.83,17.31,17.66a54,54,0,0,0,14,4.4c2.78,3.41,6.93,4.79,12.6,4.79,5.36,0,9.25-1.38,12.93-4.82a55.21,55.21,0,0,0,14-4.37c11.81-5.83,16.17-14,17.31-17.66a10.5,10.5,0,0,1,1.08,4.65c3.79-3.54,3.93-9,2.93-13.08a8.14,8.14,0,0,1,3.11,3A18.18,18.18,0,0,0,164.37,132.29Z"/>
            <path class="cls-14" d="M100.23,135.21c-.32.93-1.45,2.95-1,4.76,13.73-17.9,34.42-16.71,46.43-.45a24.82,24.82,0,0,0-1.22-4.86c2.54-2.09,4.49-2.63,6.76-3.76a84.35,84.35,0,0,0-8.9,3c-5.19-5.31-11.18-8.66-19.82-8.66A28.36,28.36,0,0,0,102.64,134c-7.2-3.36-14.47-4.95-21.07-2.13C87.79,131.11,93.32,131,100.23,135.21Z"/>
            <path class="cls-22" d="M164.37,132.29a19.35,19.35,0,0,0-12.05-1.62c8.37,1,16.35,6,18.52,14.71-2.57-.9-3.86-3.16-6.43-4.06,2.57,4.06,4.72,8.13,3.86,13.09-1.72-2.7-4.29-4.06-6.43-6.32,1.58,13.33-11.15,24.9-22.6,27.33.35-3,0-6.38-1-6.2-3.37,7.52-11.1,9.74-16,9.95a16.73,16.73,0,0,1-15.48-9.37,15.37,15.37,0,0,0-.63,5.58c-11.94-2.64-24.12-11.71-27.57-25.48a17.11,17.11,0,0,0-2.14,6.77c-1.61-3.12-1.13-8.69.59-12.75a43.14,43.14,0,0,0-4.95,3.65,27.56,27.56,0,0,1,7.35-14.67,18.24,18.24,0,0,0-8.25,18.39,8.14,8.14,0,0,1,3.11-3c-1,4.07-.86,9.54,2.92,13.08a10.6,10.6,0,0,1,1.09-4.65c1.14,3.69,5.5,11.83,17.31,17.66a54,54,0,0,0,14,4.4c3.3,4,8,4.79,12.6,4.79s8.86-.95,12.93-4.82a55.21,55.21,0,0,0,14-4.37c11.81-5.83,16.17-14,17.31-17.66a10.5,10.5,0,0,1,1.08,4.65c3.79-3.54,3.93-9,2.93-13.08a8.14,8.14,0,0,1,3.11,3A18.18,18.18,0,0,0,164.37,132.29Z"/>
            <path class="cls-18" d="M122.3,183.85c-6,0-10-1.54-12.74-4.82a55.53,55.53,0,0,1-14-4.4c-12.31-6.08-16.25-14.49-17.24-17.23a12.87,12.87,0,0,0-.78,4l0,.54-.41-.38c-4.34-4-3.65-10.19-3.12-12.72a7,7,0,0,0-2.49,2.54l-.34.72-.15-.77c-1.48-7.38,2.68-15.84,9.46-19.26a18.6,18.6,0,0,1,8.46-2c4.07,0,8.56,1.15,13.69,3.53a28.7,28.7,0,0,1,19.88-8.6c7.88,0,14,2.65,19.87,8.6,5.14-2.38,9.62-3.53,13.7-3.53a18.63,18.63,0,0,1,8.46,2c6.78,3.42,10.94,11.88,9.46,19.26l-.15.77-.34-.72a7,7,0,0,0-2.49-2.54c.52,2.53,1.22,8.67-3.12,12.72l-.41.38,0-.54a12.64,12.64,0,0,0-.77-4c-1,2.74-4.94,11.15-17.24,17.23a55.64,55.64,0,0,1-14,4.37C131.7,182.4,127.79,183.85,122.3,183.85Zm-43.88-27.7.17.53c.55,1.78,4,11,17.18,17.51a54.61,54.61,0,0,0,14,4.38h.1l.06.08c2.61,3.2,6.55,4.7,12.39,4.7,5.37,0,9.18-1.42,12.75-4.76l.06,0h.07a55.17,55.17,0,0,0,14-4.35c13.2-6.51,16.63-15.73,17.18-17.51l.17-.53.3.47a10.1,10.1,0,0,1,1.08,4.21c4.07-4.25,2.92-10.57,2.45-12.45l-.14-.58.53.31a9.22,9.22,0,0,1,2.84,2.45A17.42,17.42,0,0,0,156,130.61c-4,0-8.5,1.16-13.64,3.56l-.17.08-.14-.14c-5.79-5.93-11.84-8.57-19.62-8.57a28.16,28.16,0,0,0-19.63,8.57l-.13.14-.17-.08c-5.14-2.4-9.6-3.56-13.64-3.56a17.42,17.42,0,0,0-17.53,19.95,9.22,9.22,0,0,1,2.84-2.45l.53-.31-.14.58c-.47,1.88-1.62,8.2,2.45,12.45a9.94,9.94,0,0,1,1.08-4.21Z"/>
            <path class="cls-26" d="M122.58,145c-1.86-.08-22.06-.86-24.18-.86,4.12,10.31,12.8,25.08,24.18,25.08,10.92,0,20.06-14.77,24.19-25.08C144.65,144.14,124.45,144.92,122.58,145Z"/>
            <path class="cls-16" d="M107.19,159.82c4.21,5.34,9.43,9.4,15.39,9.4,5.54,0,10.62-3.81,14.83-8.9C129.15,153.11,116.5,153.57,107.19,159.82Z"/>
            <path class="cls-27" d="M111.71,164.62c3.24,2.79,6.89,4.6,10.87,4.6s7.7-2,11-4.93C127.37,159.77,116,160.36,111.71,164.62Z"/>
            <path class="cls-28" d="M129.63,162.51c-6.47-2.26-14.72-1.09-17.92,2.11.34.29.68.56,1,.83C117.16,161.71,124.19,162,129.63,162.51Z"/>
            <path class="cls-29" d="M129.94,162.38c-2.67,5.3-9.69,6.54-15.12,4.51a14.91,14.91,0,0,0,7.76,2.33c4,0,7.7-2,11-4.93A15.09,15.09,0,0,0,129.94,162.38Z"/>
            <path class="cls-30" d="M122.58,169.38V169c3.53,0,7.19-1.53,10.75-4.64a19.51,19.51,0,0,0-10.75-3c-4.39,0-8.48,1.32-10.63,3.32A16.46,16.46,0,0,0,122.58,169v.39c-3.72,0-7.42-1.5-11-4.59l-.19-.16.18-.17c2.21-2.21,6.32-3.53,11-3.53a19.43,19.43,0,0,1,11.16,3.17l.24.17-.22.19C130.05,167.77,126.28,169.38,122.58,169.38Z"/>
            <path class="cls-18" d="M122.58,169.44h0c-13.26,0-22-19.29-24.38-25.21l-.12-.31h.32c2.23,0,24,.84,24.19.85s21.95-.85,24.18-.85h.32l-.13.31C142.31,155.86,133.14,169.44,122.58,169.44ZM98.73,144.37c2.51,6.19,11.08,24.62,23.85,24.62h0c10.25,0,19.22-13.18,23.86-24.62-3.46.06-23.64.84-23.85.85S102.19,144.43,98.73,144.37Z"/>
            <path class="cls-14" d="M115,145.7c.6,4.21,3.7,12.93,4.19,13.29s5.77.73,6.81,0,4.44-9.22,4.24-12.16C126,145.7,115.44,144.87,115,145.7Z"/>
            <path class="cls-15" d="M130.28,146.83c-.77-.2-1.75-.4-2.83-.57-.12,3.53-1,11-2.35,11-1.11-.11-1.58-5-2-7.63-.47,3-1.87,7.56-4.57,8.05a5.84,5.84,0,0,0,.66,1.34c.5.36,5.77.73,6.81,0S130.48,149.77,130.28,146.83Z"/>
            <path class="cls-31" d="M122.75,159.38l-.38,0c.36-2.76.83-10.5.09-12.34l.34-.15C123.64,149,123.05,157,122.75,159.38Z"/>
            <path class="cls-31" d="M123.14,159.64h0a12.84,12.84,0,0,1-4-.46c-.64-.48-3.71-9.42-4.28-13.45v-.07l0-.06c.08-.16.22-.46,2.6-.46a66.09,66.09,0,0,1,12.88,1.47l.15,0v.16c.2,2.91-3.2,11.57-4.33,12.37A6.8,6.8,0,0,1,123.14,159.64Zm-7.87-13.85c.63,4.23,3.62,12.55,4.09,13a14.5,14.5,0,0,0,3.78.37h0a6.42,6.42,0,0,0,2.78-.38c.87-.61,4.22-8.69,4.15-11.79a66.65,66.65,0,0,0-12.62-1.42A6.47,6.47,0,0,0,115.27,145.79Z"/>
            <path class="cls-21" d="M97.05,142.48C99,148.61,110.9,156,122.74,146.9c12.72,8.82,24.45,1.76,26.92-4.42,0,0-20.29-6.88-27-6.88C116.22,135.6,97.05,142.48,97.05,142.48Z"/>
            <path class="cls-22" d="M123.23,140c-1.29,4.06-5.15,6.32-8.58,7.22-5.78,1.22-12.94.24-16.2-5.2l-1.4.49C99,148.61,110.9,156,122.74,146.9c12.72,8.82,24.45,1.76,26.92-4.42l-1.15-.38C141.27,148.17,129.16,148.28,123.23,140Z"/>
            <path class="cls-18" d="M111.13,151.39a16.88,16.88,0,0,1-5.34-.86c-4.31-1.46-7.91-4.66-9-8l.41-.15c.83,2.65,3.84,6.06,8.67,7.68,3.2,1.08,9.63,2.08,16.69-3.38l.12-.09.12.09c5.65,3.91,11.86,5.08,17.49,3.28,4.24-1.36,7.82-4.34,9.12-7.59l.4.17c-1.35,3.38-5,6.46-9.39,7.85-5.72,1.83-12,.67-17.73-3.25A18.92,18.92,0,0,1,111.13,151.39Z"/>
            <path class="cls-18" d="M122.92,147l-.36-.1a33.42,33.42,0,0,0,.4-8.25l.39,0A33,33,0,0,1,122.92,147Z"/>
            <path class="cls-18" d="M153.1,145.91a17.21,17.21,0,0,0-3.71-3.15,14,14,0,0,0-4.68-1.42,9.9,9.9,0,0,1,5,.87A11.11,11.11,0,0,1,153.1,145.91Z"/>
            <path class="cls-18" d="M93.48,145.91a11.11,11.11,0,0,1,3.42-3.7,9.9,9.9,0,0,1,5-.87,14.07,14.07,0,0,0-4.68,1.42A17.5,17.5,0,0,0,93.48,145.91Z"/>
            <path class="cls-32" d="M131.68,130.21c.14-3-4.78-5-8.5-4.82-3.35,0-8.65,1.82-8.51,4.82s6,8.38,8.51,8.38C126.16,138.59,131.53,133.23,131.68,130.21Z"/>
            <path class="cls-33" d="M131.66,129.93c-.16-2.84-4.88-4.68-8.48-4.54-3.14,0-8,1.6-8.47,4.26C119.37,126,127.67,125.38,131.66,129.93Z"/>
            <path class="cls-34" d="M114.71,130.43c.39,3,6,8.16,8.47,8.16,2.93,0,8.16-5.18,8.47-8.22C127.12,135.64,119.72,135.29,114.71,130.43Z"/>
            <path class="cls-25" d="M123.18,138.82c-2.65,0-8.57-5.4-8.72-8.6a3.06,3.06,0,0,1,.87-2.21c1.62-1.78,5.25-2.85,7.83-2.85h.4c2.91,0,6,1.11,7.4,2.71a3.22,3.22,0,0,1,.93,2.35C131.74,133.43,126.28,138.82,123.18,138.82Zm.38-13.21h-.38c-2.51,0-6,1-7.54,2.72a2.56,2.56,0,0,0-.75,1.87c.14,2.89,5.92,8.16,8.29,8.16,2.8,0,8.14-5.26,8.28-8.16a2.75,2.75,0,0,0-.81-2C129.3,126.69,126.32,125.61,123.56,125.61Z"/>
            <path class="cls-18" d="M100.5,136.82a23,23,0,0,1,2.6-3.68l.35.36C102.48,134.41,100.52,136.8,100.5,136.82Z"/>
            <path class="cls-18" d="M144.42,136.82s-2-2.42-3-3.33l.36-.35A23,23,0,0,1,144.42,136.82Z"/>
          </g>
        </g>
      </g>
    </g>
  </g>
</svg>
