<svg xmlns="http://www.w3.org/2000/svg" width="446.24" height="208.81" viewBox="0 0 446.24 208.81">
  <defs>
    <style>
      .cls-1 {
        isolation: isolate;
      }

      .cls-13, .cls-2 {
        opacity: 0.5;
      }

      .cls-3 {
        fill: #fff200;
      }

      .cls-4 {
        fill: #fcf8f7;
      }

      .cls-13, .cls-14, .cls-4 {
        mix-blend-mode: overlay;
      }

      .cls-5 {
        fill: #d48d59;
        stroke: #8c552f;
      }

      .cls-10, .cls-5 {
        stroke-miterlimit: 10;
      }

      .cls-6 {
        fill: #e0a363;
      }

      .cls-7 {
        fill: #f0b974;
      }

      .cls-10, .cls-8 {
        fill: #ffc483;
      }

      .cls-9 {
        fill: #e0ae76;
        opacity: 0.59;
      }

      .cls-12, .cls-9 {
        mix-blend-mode: multiply;
      }

      .cls-10 {
        stroke: #9e6c3b;
      }

      .cls-11 {
        fill: #d4804a;
      }

      .cls-12 {
        fill: #e8bf91;
      }

      .cls-12, .cls-14 {
        opacity: 0.4;
      }

      .cls-13, .cls-14 {
        fill: #ffbdae;
      }
    </style>
  </defs>
  <g class="cls-1">
    <g id="Layer_1" data-name="Layer 1">
      <g>
        <path class="cls-2" d="M141.26,208.81c-1.25,0-2.51,0-3.86-.08-1.15,0-2.35-.11-3.55-.19-2.62-.18-5.26-.46-7.86-.83l-.79-.11c-1.17-.18-2.38-.38-3.61-.6l-.12,0c-1.39-.25-2.87-.56-4.34-.89l-.11,0c-1.41-.32-2.85-.68-4.24-1.06l-.13,0c-1.4-.38-2.79-.79-4.15-1.22l-.19-.06c-3.3-1-6.59-2.28-9.69-3.61l-.14-.05c-1.37-.59-2.78-1.24-4.3-2l-.22-.11c-2.55-1.24-5.12-2.62-7.63-4.1l-.12-.07c-1.27-.75-2.57-1.55-3.85-2.38l-.1-.07c-1.25-.8-2.5-1.66-3.73-2.53-2.06-1.47-4-3-5.88-4.48l-.11-.1c-1.12-.91-2.31-1.93-3.53-3-.5-.44-1-.88-1.47-1.33l-1.09-1q-1.32-1.25-2.61-2.55a110.85,110.85,0,0,1-7.64-8.71,107.87,107.87,0,0,1-8.92-13.23l-.06-.09A108.85,108.85,0,0,1,39.67,138s-.34-.91-.46-1.25c-.19-.55-.37-1.05-.54-1.56-.42-1.23-.77-2.32-1.09-3.38L18.44,68.38A20.58,20.58,0,0,1,6.76,49.8V27.89A20.64,20.64,0,0,1,27.37,7.28H60.42L61.75,7a14.6,14.6,0,0,1,2.73-.26,15,15,0,0,1,3.88.52H91.88L93.22,7a14.41,14.41,0,0,1,2.72-.26,14.87,14.87,0,0,1,3.88.52h23.53L124.68,7a14.52,14.52,0,0,1,2.73-.26,15,15,0,0,1,3.88.52h23.52L156.15,7a14.41,14.41,0,0,1,2.72-.26,14.87,14.87,0,0,1,3.88.52h23.53L187.63,7a14.77,14.77,0,0,1,6.59.27h23.52L219.08,7a14.41,14.41,0,0,1,2.72-.26,14.87,14.87,0,0,1,3.88.52h23.53L250.56,7a14.77,14.77,0,0,1,6.59.27h23.52L282,7a14.41,14.41,0,0,1,2.72-.26,14.87,14.87,0,0,1,3.88.52h23.53L313.47,7a14.6,14.6,0,0,1,2.73-.26,14.87,14.87,0,0,1,3.88.52H343.6L345,7a15.09,15.09,0,0,1,2.71-.25,14.87,14.87,0,0,1,3.88.52h23.53L376.42,7a15.09,15.09,0,0,1,2.71-.25,14.87,14.87,0,0,1,3.88.52h23.52L407.88,7a15.09,15.09,0,0,1,2.71-.25,14.87,14.87,0,0,1,3.88.52h11.16a20.64,20.64,0,0,1,20.61,20.61V49.8a20.6,20.6,0,0,1-11.68,18.58l-19.12,63.39c-.32,1.06-.68,2.18-1.13,3.51-.16.47-.33,1-.51,1.45s-.5,1.36-.5,1.36a109.69,109.69,0,0,1-4.84,11.15l-.09.18c-.62,1.23-1.33,2.56-2.06,3.87l-.33.58c-.69,1.22-1.4,2.42-2.12,3.59l-.36.56c-.71,1.14-1.49,2.34-2.28,3.5l-.29.43h0c-.87,1.26-1.76,2.49-2.64,3.66l-.14.19a108.35,108.35,0,0,1-7.34,8.7c-2,2.17-4.18,4.29-6.39,6.29l-.21.19c-.76.68-1.49,1.32-2.23,2-2,1.71-4,3.31-6,4.75l-.06,0c-1.12.82-2.32,1.67-3.55,2.5l-.17.11c-1.07.73-2.3,1.52-3.56,2.3s-2.25,1.37-3.24,1.93c-1.29.74-2.64,1.47-4.12,2.23l-.22.11a110,110,0,0,1-12.59,5.47l-.59.2c-.93.33-1.83.65-2.75.94l-1.51.48-2.05.62-1,.28-.8.22-1.63.43c-1.87.47-3.84.9-6.05,1.32l-.83.16c-1.82.33-3.49.6-5.14.81l-.23,0c-3.32.43-6.75.72-10.12.85-1.51.05-2.78.08-4,.08Z"/>
        <path class="cls-3" d="M134.49,202.05c-1.24,0-2.5,0-3.85-.08-1.15,0-2.35-.11-3.55-.19-2.62-.18-5.27-.46-7.86-.83l-.79-.11c-1.17-.18-2.38-.38-3.61-.6l-.12,0c-1.4-.25-2.87-.56-4.34-.9l-.11,0c-1.42-.32-2.85-.68-4.25-1.06l-.12,0c-1.4-.38-2.8-.79-4.15-1.22l-.19-.07c-3.3-1.05-6.59-2.27-9.69-3.6l-.14-.05c-1.37-.59-2.78-1.24-4.3-2l-.22-.1c-2.55-1.24-5.12-2.62-7.64-4.1l-.11-.07c-1.28-.75-2.57-1.55-3.85-2.38l-.1-.07c-1.25-.81-2.5-1.66-3.73-2.54-2.07-1.46-4-3-5.88-4.47l-.12-.1c-1.12-.92-2.3-1.93-3.52-3-.5-.44-1-.88-1.47-1.33l-1.1-1c-.87-.83-1.75-1.68-2.6-2.55a109.45,109.45,0,0,1-16.56-21.94l-.06-.09a108.49,108.49,0,0,1-7.55-16.21s-.34-.9-.46-1.25c-.19-.54-.37-1-.54-1.55-.42-1.23-.77-2.32-1.09-3.38L11.68,61.62A20.6,20.6,0,0,1,0,43V21.13A20.64,20.64,0,0,1,20.61.52h33L55,.25A15.29,15.29,0,0,1,57.71,0a14.87,14.87,0,0,1,3.88.52H85.12L86.45.25A15.49,15.49,0,0,1,89.18,0a14.87,14.87,0,0,1,3.88.52h23.53l1.33-.27A15.29,15.29,0,0,1,120.64,0a15,15,0,0,1,3.89.52h23.52l1.33-.27A15.49,15.49,0,0,1,152.11,0,14.87,14.87,0,0,1,156,.52h23.52l1.35-.27A15.2,15.2,0,0,1,183.58,0a14.85,14.85,0,0,1,3.87.52H211l1.33-.27A15.49,15.49,0,0,1,215,0a14.87,14.87,0,0,1,3.88.52h23.53L243.8.25a14.77,14.77,0,0,1,6.59.27h23.52l1.34-.27A15.29,15.29,0,0,1,278,0a14.87,14.87,0,0,1,3.88.52h23.53l1.33-.27A15.49,15.49,0,0,1,309.44,0a15,15,0,0,1,3.88.52h23.52l1.35-.27A15.09,15.09,0,0,1,340.9,0a14.87,14.87,0,0,1,3.88.52h23.53l1.34-.27A15.29,15.29,0,0,1,372.37,0a15,15,0,0,1,3.88.52h23.52l1.35-.27a14.77,14.77,0,0,1,6.59.27h11.15a20.64,20.64,0,0,1,20.62,20.61V43A20.6,20.6,0,0,1,427.8,61.62L408.68,125c-.32,1.06-.68,2.18-1.13,3.51-.16.47-.33,1-.51,1.45s-.5,1.36-.5,1.36a109.69,109.69,0,0,1-4.84,11.15,1.51,1.51,0,0,0-.09.18c-.62,1.22-1.33,2.56-2.06,3.87l-.33.58c-.7,1.22-1.4,2.42-2.12,3.59l-.36.56c-.71,1.14-1.49,2.33-2.28,3.5l-.3.43h0c-.87,1.26-1.75,2.49-2.63,3.66l-.14.19a110.46,110.46,0,0,1-7.34,8.7c-2,2.17-4.18,4.29-6.39,6.29l-.22.19c-.75.68-1.48,1.32-2.22,1.95-2,1.71-4,3.31-6,4.75l-.06.05c-1.12.82-2.32,1.67-3.55,2.5l-.17.11c-1.07.73-2.3,1.52-3.56,2.29s-2.25,1.38-3.25,1.94c-1.28.74-2.63,1.46-4.11,2.23l-.22.11a108.18,108.18,0,0,1-12.59,5.46l-.59.21c-.93.33-1.83.64-2.75.94l-1.51.47c-.69.22-1.37.43-2.05.62-.33.1-.68.2-1,.29l-.8.22-1.63.43c-1.87.47-3.85.9-6.05,1.32l-.84.16c-1.81.33-3.49.59-5.13.81l-.23,0c-3.32.44-6.75.73-10.12.86-1.51.05-2.79.08-4,.08Z"/>
        <path class="cls-4" d="M416.07,14.45H404.63a.87.87,0,0,0-1-.5c-.81.15-1.59.33-2.36.5H373.16a.87.87,0,0,0-1-.5c-.82.15-1.59.33-2.37.5H341.7a.87.87,0,0,0-1-.5c-.81.15-1.59.33-2.36.5H310.23a.87.87,0,0,0-1-.5c-.81.15-1.58.33-2.36.5H278.77a.87.87,0,0,0-1-.5c-.81.15-1.59.33-2.36.5H247.3a.87.87,0,0,0-1-.5c-.81.15-1.59.33-2.36.5H215.84a.87.87,0,0,0-1-.5c-.81.15-1.59.33-2.36.5H184.37a.87.87,0,0,0-1-.5c-.81.15-1.59.33-2.36.5H152.91a.87.87,0,0,0-1-.5c-.81.15-1.59.33-2.37.5H121.44a.87.87,0,0,0-1-.5c-.81.15-1.59.33-2.36.5H90a.85.85,0,0,0-1-.5c-.82.15-1.59.33-2.37.5H58.51a.87.87,0,0,0-1-.5c-.81.15-1.59.33-2.36.5H23.4a9.47,9.47,0,0,0-9.47,9.47V40.25a9.46,9.46,0,0,0,8.7,9.43L24,54.19h0l1.4,4.65L44.13,121c.45,1.49.95,3,1.46,4.4l.14.36a94,94,0,0,0,6.81,14.77l.07.12a93.66,93.66,0,0,0,7.77,11.52h0A95.3,95.3,0,0,0,70.5,163.09l.63.57q1.74,1.58,3.56,3.08h0c1.66,1.36,3.38,2.67,5.13,3.91h0c1.08.77,2.18,1.51,3.29,2.24h0l0,0c1.12.72,2.25,1.42,3.4,2.1h0c1,.62,2.09,1.21,3.15,1.78h0q1.8,1,3.63,1.86l.12.06c1.24.6,2.5,1.18,3.76,1.72h0c1.5.64,3,1.24,4.57,1.81h0c1.35.5,2.71,1,4.08,1.4h0c1.23.39,2.47.76,3.72,1.1h0c1.23.34,2.47.65,3.72.94h.07c1.27.29,2.54.55,3.82.79h0q1.58.3,3.18.54h0l.25,0a92.42,92.42,0,0,0,10.45,1c1.1,0,2.21.07,3.31.07H305c1.17,0,2.33,0,3.5-.08h0q4.47-.16,8.85-.75h0c1.62-.21,3.22-.47,4.82-.77l.37-.07c1.81-.34,3.61-.72,5.38-1.16h0c1-.26,2.05-.54,3.07-.83.69-.2,1.37-.41,2.05-.63l1-.32c.8-.26,1.59-.53,2.38-.81l.52-.19q3.81-1.37,7.45-3h0c1.22-.56,2.43-1.15,3.62-1.76l.1,0c1.21-.62,2.4-1.26,3.58-1.93h0c.95-.54,1.89-1.11,2.83-1.69h0c1.09-.67,2.16-1.36,3.22-2.07l0,0c1.06-.72,2.1-1.46,3.14-2.22h0c1.79-1.32,3.52-2.71,5.21-4.14h0a94.41,94.41,0,0,0,14.17-15h0c.81-1.08,1.6-2.18,2.37-3.29a.44.44,0,0,1,.08-.11,1.4,1.4,0,0,1,.1-.16c.72-1.05,1.41-2.11,2.09-3.2l.11-.16.1-.17c.67-1.09,1.32-2.19,2-3.32l.09-.15.05-.1c.67-1.2,1.32-2.41,1.94-3.64h0a96.22,96.22,0,0,0,4.52-10.5l.12-.34c.51-1.45,1-2.9,1.45-4.38l4.94-16.38.05-.18h0l3.56-11.78.62-2.07h0l1.85-6.12h0l.61-2,3.28-10.85h0l1.19-4,5.41-17.93a9.46,9.46,0,0,0,8.69-9.43V23.92A9.47,9.47,0,0,0,416.07,14.45Z"/>
        <g>
          <path class="cls-5" d="M219.74,19.36H29.25A11.71,11.71,0,0,0,18,34.46L44.13,121a94.4,94.4,0,0,0,90.36,67.13H305A94.39,94.39,0,0,0,395.34,121l26.1-86.53a11.71,11.71,0,0,0-11.21-15.1Z"/>
          <path class="cls-6" d="M418.51,40.37a27.56,27.56,0,0,0-23.94.68,46.57,46.57,0,0,0-4.55,2.8,23,23,0,0,0-2.44,1.79c-4.37,3.91-11.18,8.49-18.82,8.06a21,21,0,0,1-8.32-2.34c-.92-.52-5-3.84-6.72-5.26-1.55-1.26-2.12-1.72-2.45-2a38.06,38.06,0,0,0-6.62-3.78,27.54,27.54,0,0,0-23.93.68c-2.78,1.45-5.47,3.21-8.08,4.91-6.4,4.18-12.45,8.13-19.44,7.74a21,21,0,0,1-8.32-2.34c-.91-.52-5-3.84-6.71-5.25-1.55-1.27-2.13-1.73-2.46-2a38.06,38.06,0,0,0-6.62-3.78,27.54,27.54,0,0,0-23.93.68,38.19,38.19,0,0,0-7.57,5.62,40.39,40.39,0,0,1-5,4c-5,3.2-9.66,4.63-14.11,4.39a21,21,0,0,1-8.31-2.33c-.92-.53-5-3.84-6.72-5.26-1.55-1.27-2.12-1.73-2.45-2a38.06,38.06,0,0,0-6.62-3.78,27.53,27.53,0,0,0-23.94.69c-2.77,1.45-5.47,3.21-8.07,4.91C156,51.46,150,55.4,143,55a21,21,0,0,1-8.32-2.33c-.92-.53-5-3.84-6.72-5.26-1.55-1.27-2.12-1.73-2.45-2a38.06,38.06,0,0,0-6.62-3.78,27.51,27.51,0,0,0-23.93.69,48.12,48.12,0,0,0-4.56,2.79A25.42,25.42,0,0,0,87.94,47C83.57,50.87,76.75,55.45,69.11,55a21,21,0,0,1-8.31-2.33c-.92-.53-5-3.84-6.73-5.26-1.54-1.27-2.11-1.73-2.44-2A38.43,38.43,0,0,0,45,41.69a27.53,27.53,0,0,0-23.94.69l-.55.3,2.11,7c.58-.34,1.17-.67,1.75-1a20.17,20.17,0,0,1,17.76-.48A31.62,31.62,0,0,1,47.5,51.3c.22.16,1.2,1,2.06,1.66C54,56.58,56.32,58.41,57.49,59a28.15,28.15,0,0,0,11.23,3.13c8,.45,16.27-3,24-9.86l.07-.06a47.79,47.79,0,0,1,5.47-3.52A20.14,20.14,0,0,1,116,48.23a30.86,30.86,0,0,1,5.36,3.07c.23.16,1.2,1,2.06,1.66,4.44,3.62,6.76,5.45,7.94,6.06a28.15,28.15,0,0,0,11.22,3.13c9.33.53,17-4.48,23.74-8.88,2.58-1.68,5-3.27,7.48-4.56a20.17,20.17,0,0,1,17.76-.48,31.62,31.62,0,0,1,5.36,3.07c.22.16,1.2,1,2.06,1.66,4.44,3.62,6.76,5.45,7.94,6.06a28.15,28.15,0,0,0,11.22,3.13c.46,0,.93,0,1.4,0,5.52,0,11.07-1.81,16.92-5.53A45,45,0,0,0,242.32,52a31.84,31.84,0,0,1,6.15-4.64,20.2,20.2,0,0,1,17.76-.47A31,31,0,0,1,271.59,50c.22.16,1.2,1,2.06,1.66,4.44,3.62,6.75,5.45,7.93,6.06a28.15,28.15,0,0,0,11.22,3.13c9.33.52,17-4.48,23.74-8.89,2.58-1.68,5-3.27,7.49-4.56a20.18,20.18,0,0,1,17.75-.47A30.59,30.59,0,0,1,347.14,50c.22.16,1.2,1,2.06,1.66,4.44,3.62,6.76,5.45,7.94,6.06a28.15,28.15,0,0,0,11.22,3.13c8,.45,16.28-3,24-9.87l.06-.06a48.72,48.72,0,0,1,5.47-3.52,20.2,20.2,0,0,1,17.76-.47c.59.26,1.18.56,1.78.87l2.09-6.94Z"/>
          <path class="cls-7" d="M394.57,54.17A48.59,48.59,0,0,0,390,57a23,23,0,0,0-2.44,1.79c-4.37,3.91-11.18,8.48-18.82,8.06a21.12,21.12,0,0,1-8.32-2.33c-.92-.53-5-3.85-6.73-5.27-1.54-1.26-2.11-1.72-2.44-1.95a38.06,38.06,0,0,0-6.62-3.78,27.54,27.54,0,0,0-23.93.68c-2.78,1.45-5.47,3.21-8.08,4.91-6.4,4.18-12.45,8.12-19.44,7.74a21.07,21.07,0,0,1-8.31-2.33c-.92-.53-5-3.85-6.73-5.27-1.55-1.26-2.12-1.72-2.45-1.95a37.7,37.7,0,0,0-6.62-3.78,27.54,27.54,0,0,0-23.93.68,38.19,38.19,0,0,0-7.57,5.62,40.39,40.39,0,0,1-5,4c-5,3.2-9.66,4.64-14.11,4.39a21,21,0,0,1-8.31-2.33c-.92-.53-5-3.85-6.72-5.26-1.55-1.27-2.12-1.73-2.45-2a38.43,38.43,0,0,0-6.62-3.78,27.53,27.53,0,0,0-23.94.69c-2.77,1.45-5.47,3.21-8.07,4.91C156,64.58,150,68.52,143,68.14a21,21,0,0,1-8.32-2.33c-.92-.53-5-3.85-6.72-5.26-1.55-1.27-2.12-1.73-2.45-2a38.06,38.06,0,0,0-6.62-3.78,27.51,27.51,0,0,0-23.93.69,48.12,48.12,0,0,0-4.56,2.79,23.66,23.66,0,0,0-2.43,1.8c-4.37,3.9-11.19,8.47-18.83,8a20.91,20.91,0,0,1-8.31-2.33c-.92-.53-5-3.85-6.73-5.26-1.54-1.27-2.11-1.73-2.44-2A38.43,38.43,0,0,0,45,54.81a27.67,27.67,0,0,0-21-.62l2.07,6.86a20.19,20.19,0,0,1,16.08.31,30.88,30.88,0,0,1,5.36,3.06c.22.16,1.2,1,2.06,1.66,4.44,3.62,6.76,5.45,7.93,6.06a28.15,28.15,0,0,0,11.23,3.13c8,.45,16.27-3,24-9.86l.07-.06a47.79,47.79,0,0,1,5.47-3.52A20.11,20.11,0,0,1,116,61.36a30.16,30.16,0,0,1,5.36,3.06c.23.16,1.2,1,2.06,1.66,4.44,3.62,6.76,5.45,7.94,6.06a28.15,28.15,0,0,0,11.22,3.13c9.33.53,17-4.47,23.74-8.88,2.58-1.68,5-3.27,7.48-4.56a20.13,20.13,0,0,1,17.76-.47,30.88,30.88,0,0,1,5.36,3.06c.22.16,1.2,1,2.06,1.66,4.44,3.62,6.76,5.45,7.94,6.06a28.06,28.06,0,0,0,11.22,3.13c.46,0,.93,0,1.4,0,5.52,0,11.07-1.81,16.92-5.53a45,45,0,0,0,5.87-4.64,31.84,31.84,0,0,1,6.15-4.64A20.2,20.2,0,0,1,266.23,60a31,31,0,0,1,5.36,3.07c.22.16,1.19.95,2.06,1.66,4.43,3.62,6.75,5.45,7.93,6.06A28.15,28.15,0,0,0,292.8,74c9.33.53,17-4.48,23.74-8.88,2.58-1.69,5-3.28,7.49-4.57A20.18,20.18,0,0,1,341.78,60a30.23,30.23,0,0,1,5.36,3.07c.22.16,1.2.95,2.06,1.65,4.44,3.63,6.76,5.46,7.94,6.07A28.15,28.15,0,0,0,368.36,74c8,.44,16.28-3,24-9.87l.06,0a48.49,48.49,0,0,1,5.47-3.53,20,20,0,0,1,16-1.13L416,52.53A27.42,27.42,0,0,0,394.57,54.17Z"/>
          <path class="cls-6" d="M394.57,67.29a48.59,48.59,0,0,0-4.55,2.8,23,23,0,0,0-2.44,1.79c-4.37,3.91-11.18,8.48-18.82,8.06a21.12,21.12,0,0,1-8.32-2.33c-.92-.53-5-3.85-6.72-5.26-1.55-1.27-2.12-1.73-2.45-2a38.06,38.06,0,0,0-6.62-3.78,27.54,27.54,0,0,0-23.93.68c-2.78,1.45-5.47,3.21-8.08,4.91-6.4,4.18-12.44,8.12-19.44,7.74a21.07,21.07,0,0,1-8.31-2.33c-.92-.53-5-3.84-6.72-5.26-1.55-1.27-2.13-1.73-2.46-2a37.7,37.7,0,0,0-6.62-3.78,27.54,27.54,0,0,0-23.93.68,38.19,38.19,0,0,0-7.57,5.62,40.39,40.39,0,0,1-5,4c-5,3.2-9.66,4.64-14.11,4.39a20.79,20.79,0,0,1-8.31-2.33c-.92-.53-5-3.85-6.73-5.27-1.54-1.26-2.11-1.72-2.44-2a38.06,38.06,0,0,0-6.62-3.78,27.56,27.56,0,0,0-23.94.69c-2.77,1.45-5.47,3.21-8.07,4.91C156,77.7,150,81.64,143,81.26a20.79,20.79,0,0,1-8.32-2.33c-.92-.53-5-3.85-6.73-5.27-1.54-1.26-2.11-1.72-2.44-2a38.06,38.06,0,0,0-6.62-3.78,27.54,27.54,0,0,0-23.93.69,48.12,48.12,0,0,0-4.56,2.79,23.66,23.66,0,0,0-2.43,1.8c-4.37,3.9-11.19,8.48-18.83,8.05a20.74,20.74,0,0,1-8.31-2.33c-.92-.53-5-3.85-6.73-5.27-1.54-1.26-2.11-1.72-2.44-2A38.43,38.43,0,0,0,45,67.93a27.9,27.9,0,0,0-17.39-1.71l2.06,6.83a20.48,20.48,0,0,1,12.46,1.43,30.88,30.88,0,0,1,5.36,3.06c.22.16,1.19,1,2,1.66,4.44,3.62,6.77,5.45,7.94,6.06a28.15,28.15,0,0,0,11.23,3.13c8,.45,16.27-3,24-9.86l.07-.06A47.79,47.79,0,0,1,98.24,75,20.11,20.11,0,0,1,116,74.48a30.16,30.16,0,0,1,5.36,3.06c.22.16,1.2,1,2.06,1.66,4.44,3.62,6.76,5.45,7.94,6.06a28.15,28.15,0,0,0,11.22,3.13c9.33.53,17-4.47,23.74-8.88,2.58-1.68,5-3.27,7.48-4.56a20.13,20.13,0,0,1,17.76-.47,30.88,30.88,0,0,1,5.36,3.06c.22.16,1.19,1,2.05,1.66,4.44,3.62,6.77,5.45,7.95,6.06a28.06,28.06,0,0,0,11.22,3.13c.46,0,.93,0,1.4,0,5.52,0,11.07-1.81,16.92-5.53a45,45,0,0,0,5.87-4.64,31.84,31.84,0,0,1,6.15-4.64,20.2,20.2,0,0,1,17.76-.47,31.62,31.62,0,0,1,5.36,3.07c.22.16,1.2,1,2.06,1.66,4.44,3.62,6.75,5.45,7.93,6.06a28.15,28.15,0,0,0,11.22,3.13c9.34.53,17-4.48,23.74-8.88,2.58-1.69,5-3.28,7.49-4.57a20.18,20.18,0,0,1,17.75-.47,30.86,30.86,0,0,1,5.36,3.07c.22.16,1.2,1,2.06,1.66,4.44,3.62,6.76,5.45,7.94,6.06a28.15,28.15,0,0,0,11.22,3.13c8,.45,16.28-3,24-9.86l.06-.06a48.49,48.49,0,0,1,5.47-3.53,19.9,19.9,0,0,1,12.37-2.05l2.07-6.87A27.26,27.26,0,0,0,394.57,67.29Z"/>
          <path class="cls-7" d="M394.57,80.41a48.59,48.59,0,0,0-4.55,2.8A23,23,0,0,0,387.58,85c-4.37,3.91-11.18,8.49-18.82,8.06a21.12,21.12,0,0,1-8.32-2.33c-.92-.53-5-3.85-6.72-5.27-1.55-1.26-2.12-1.72-2.45-1.95a38.06,38.06,0,0,0-6.62-3.78,27.54,27.54,0,0,0-23.93.68c-2.78,1.45-5.47,3.21-8.08,4.91-6.4,4.18-12.44,8.12-19.44,7.74a21.16,21.16,0,0,1-8.32-2.33c-.91-.53-5-3.85-6.71-5.26-1.55-1.27-2.13-1.73-2.46-2a38.06,38.06,0,0,0-6.62-3.78,27.54,27.54,0,0,0-23.93.68A38.19,38.19,0,0,0,237.59,86a40.39,40.39,0,0,1-5,4c-5,3.2-9.67,4.63-14.11,4.39a20.79,20.79,0,0,1-8.31-2.33c-.92-.52-5-3.84-6.72-5.26-1.55-1.26-2.12-1.73-2.45-2a38.06,38.06,0,0,0-6.62-3.78,27.53,27.53,0,0,0-23.94.69c-2.77,1.45-5.47,3.21-8.07,4.91C156,90.82,150,94.77,143,94.38a20.79,20.79,0,0,1-8.32-2.33c-.92-.52-5-3.84-6.72-5.26-1.55-1.26-2.12-1.73-2.45-2a38.06,38.06,0,0,0-6.62-3.78,27.51,27.51,0,0,0-23.93.69,48.12,48.12,0,0,0-4.56,2.79,23.66,23.66,0,0,0-2.43,1.8c-4.37,3.91-11.19,8.47-18.83,8a20.79,20.79,0,0,1-8.31-2.33c-.92-.52-5-3.84-6.73-5.26-1.54-1.26-2.11-1.73-2.44-2A38.43,38.43,0,0,0,45,81.05a28.25,28.25,0,0,0-13.62-2.31l2.12,7a21.1,21.1,0,0,1,8.63,1.83,30.88,30.88,0,0,1,5.36,3.06c.22.16,1.2,1,2.06,1.66,4.44,3.62,6.76,5.45,7.93,6.06a28.15,28.15,0,0,0,11.23,3.13c8,.46,16.27-3,24-9.86l.07-.06a47.79,47.79,0,0,1,5.47-3.52A20.11,20.11,0,0,1,116,87.6a30.16,30.16,0,0,1,5.36,3.06c.23.16,1.2,1,2.06,1.66,4.44,3.62,6.76,5.45,7.94,6.06a28.15,28.15,0,0,0,11.22,3.13c9.32.53,17-4.47,23.74-8.88,2.58-1.68,5-3.27,7.48-4.56a20.13,20.13,0,0,1,17.76-.47,30.88,30.88,0,0,1,5.36,3.06c.22.16,1.2,1,2.06,1.66,4.44,3.62,6.76,5.45,7.94,6.06a28.15,28.15,0,0,0,11.22,3.13c.46,0,.93,0,1.4,0,5.52,0,11.07-1.81,16.92-5.52a45.86,45.86,0,0,0,5.87-4.65,31.84,31.84,0,0,1,6.15-4.64,20.2,20.2,0,0,1,17.76-.47,31,31,0,0,1,5.36,3.07c.22.16,1.2,1,2.06,1.66,4.44,3.62,6.75,5.45,7.93,6.06a28.15,28.15,0,0,0,11.22,3.13c9.32.53,17-4.48,23.74-8.88,2.58-1.69,5-3.27,7.49-4.57a20.18,20.18,0,0,1,17.75-.47,30.59,30.59,0,0,1,5.36,3.07c.22.16,1.2,1,2.06,1.66,4.44,3.62,6.76,5.45,7.94,6.06a28.15,28.15,0,0,0,11.22,3.13c8,.45,16.28-3,24-9.86l.06-.06a48.49,48.49,0,0,1,5.47-3.53,20.08,20.08,0,0,1,8.48-2.28l2.14-7.09A27.25,27.25,0,0,0,394.57,80.41Z"/>
          <path class="cls-6" d="M394.57,93.53a48.59,48.59,0,0,0-4.55,2.8,23,23,0,0,0-2.44,1.79c-4.37,3.91-11.18,8.48-18.82,8.06a21.12,21.12,0,0,1-8.32-2.33c-.92-.53-5-3.85-6.73-5.27-1.54-1.26-2.11-1.72-2.44-2a38.06,38.06,0,0,0-6.62-3.78,27.54,27.54,0,0,0-23.93.68c-2.78,1.46-5.47,3.21-8.08,4.91-6.4,4.18-12.45,8.13-19.44,7.74a21.16,21.16,0,0,1-8.32-2.33c-.91-.53-5-3.85-6.72-5.27-1.55-1.26-2.12-1.72-2.45-2a38.06,38.06,0,0,0-6.62-3.78,27.54,27.54,0,0,0-23.93.68,38.19,38.19,0,0,0-7.57,5.62,40.39,40.39,0,0,1-5,4c-5,3.2-9.66,4.64-14.11,4.39a20.79,20.79,0,0,1-8.31-2.33c-.92-.52-5-3.84-6.72-5.26-1.55-1.26-2.12-1.73-2.45-2a38.72,38.72,0,0,0-6.62-3.78,27.53,27.53,0,0,0-23.94.69c-2.77,1.45-5.47,3.21-8.07,4.91C156,103.94,150,107.88,143,107.5a20.79,20.79,0,0,1-8.32-2.33c-.92-.52-5-3.84-6.72-5.26-1.55-1.26-2.12-1.73-2.45-2a38.72,38.72,0,0,0-6.62-3.78,27.51,27.51,0,0,0-23.93.69,48.12,48.12,0,0,0-4.56,2.79,23.66,23.66,0,0,0-2.43,1.8c-4.37,3.91-11.18,8.47-18.83,8a20.74,20.74,0,0,1-8.31-2.33c-.92-.52-5-3.84-6.73-5.26-1.54-1.26-2.11-1.73-2.44-2A39.1,39.1,0,0,0,45,94.17a28.41,28.41,0,0,0-9.67-2.34l2.25,7.45a21.61,21.61,0,0,1,4.55,1.44,30.88,30.88,0,0,1,5.36,3.06c.22.16,1.2,1,2.06,1.66,4.44,3.62,6.76,5.46,7.93,6.06a28.15,28.15,0,0,0,11.23,3.13c8,.45,16.27-3,24-9.86l.07-.06a47.79,47.79,0,0,1,5.47-3.52,20.11,20.11,0,0,1,17.75-.47,30.16,30.16,0,0,1,5.36,3.06c.23.16,1.2,1,2.06,1.66,4.44,3.62,6.76,5.46,7.94,6.06a28.15,28.15,0,0,0,11.22,3.13c9.32.53,17-4.47,23.74-8.88,2.58-1.68,5-3.27,7.48-4.56a20.13,20.13,0,0,1,17.76-.47,30.88,30.88,0,0,1,5.36,3.06c.22.16,1.2,1,2.06,1.66,4.44,3.62,6.76,5.46,7.94,6.06a28.06,28.06,0,0,0,11.22,3.13c.46,0,.93,0,1.4,0,5.52,0,11.07-1.81,16.92-5.52a45.86,45.86,0,0,0,5.87-4.65,31.84,31.84,0,0,1,6.15-4.64,20.2,20.2,0,0,1,17.76-.47,31.62,31.62,0,0,1,5.36,3.07c.22.16,1.19,1,2.05,1.66,4.44,3.62,6.76,5.45,7.94,6.06a28.15,28.15,0,0,0,11.22,3.13c9.32.53,17-4.48,23.74-8.88,2.58-1.69,5-3.27,7.49-4.57a20.18,20.18,0,0,1,17.75-.47,30.86,30.86,0,0,1,5.36,3.07c.22.16,1.2,1,2.06,1.65,4.44,3.63,6.76,5.46,7.94,6.07a28.15,28.15,0,0,0,11.22,3.13c8,.45,16.28-3,24-9.86l.06-.06a48.49,48.49,0,0,1,5.47-3.53,20.35,20.35,0,0,1,4.34-1.67l2.29-7.61A27.3,27.3,0,0,0,394.57,93.53Z"/>
          <path class="cls-7" d="M400.33,104.43a27.86,27.86,0,0,0-5.76,2.22,48.59,48.59,0,0,0-4.55,2.8,23,23,0,0,0-2.44,1.79c-4.37,3.91-11.18,8.48-18.82,8.06a21,21,0,0,1-8.32-2.33c-.92-.53-5-3.85-6.72-5.26-1.55-1.27-2.12-1.73-2.45-2a38.06,38.06,0,0,0-6.62-3.78,27.54,27.54,0,0,0-23.93.68c-2.78,1.46-5.47,3.21-8.08,4.91-6.4,4.18-12.45,8.12-19.44,7.74a20.91,20.91,0,0,1-8.31-2.33c-.92-.53-5-3.84-6.72-5.26-1.55-1.27-2.13-1.73-2.46-2a37.7,37.7,0,0,0-6.62-3.78,27.54,27.54,0,0,0-23.93.68,37.83,37.83,0,0,0-7.57,5.63,41.25,41.25,0,0,1-5,4c-5,3.2-9.66,4.64-14.11,4.39a20.79,20.79,0,0,1-8.31-2.33c-.92-.52-5-3.84-6.72-5.26-1.55-1.26-2.12-1.73-2.45-2a37.72,37.72,0,0,0-6.62-3.77,27.53,27.53,0,0,0-23.94.68c-2.77,1.45-5.47,3.21-8.07,4.91C156,117.06,150,121,143,120.62a20.79,20.79,0,0,1-8.32-2.33c-.92-.52-5-3.84-6.72-5.26-1.55-1.26-2.12-1.73-2.45-2a37.36,37.36,0,0,0-6.62-3.77,27.51,27.51,0,0,0-23.93.68,48.12,48.12,0,0,0-4.56,2.79,23.66,23.66,0,0,0-2.43,1.8c-4.37,3.91-11.19,8.48-18.83,8.05a20.74,20.74,0,0,1-8.31-2.33c-.92-.52-5-3.84-6.73-5.26-1.54-1.26-2.11-1.73-2.44-2A37.72,37.72,0,0,0,45,107.3a28.35,28.35,0,0,0-5.54-1.78L42,113.76l.19.08a30.88,30.88,0,0,1,5.36,3.06c.22.16,1.2,1,2.06,1.66,4.44,3.62,6.76,5.46,7.93,6.06a28,28,0,0,0,11.23,3.13c8,.45,16.27-3,24-9.86l.07-.06a47.79,47.79,0,0,1,5.47-3.52,20.14,20.14,0,0,1,17.75-.47,30.16,30.16,0,0,1,5.36,3.06c.23.16,1.2,1,2.06,1.66,4.44,3.62,6.76,5.46,7.94,6.06a28,28,0,0,0,11.22,3.13c9.33.53,17-4.47,23.74-8.88,2.58-1.68,5-3.27,7.48-4.56a20.17,20.17,0,0,1,17.76-.47,30.88,30.88,0,0,1,5.36,3.06c.22.16,1.2,1,2.06,1.66,4.44,3.62,6.76,5.46,7.94,6.06a27.9,27.9,0,0,0,11.22,3.13c.46,0,.93,0,1.4,0,5.52,0,11.07-1.81,16.92-5.52a45.86,45.86,0,0,0,5.87-4.65,31.84,31.84,0,0,1,6.15-4.64,20.2,20.2,0,0,1,17.76-.47,31.62,31.62,0,0,1,5.36,3.07c.22.16,1.2,1,2.06,1.66,4.44,3.62,6.75,5.45,7.93,6.06a28.15,28.15,0,0,0,11.22,3.13c9.33.52,17-4.48,23.74-8.88,2.58-1.69,5-3.27,7.49-4.57a20.18,20.18,0,0,1,17.75-.47,30.86,30.86,0,0,1,5.36,3.07c.22.16,1.2,1,2.06,1.66,4.44,3.62,6.76,5.45,7.94,6.06a28.15,28.15,0,0,0,11.22,3.13c8,.44,16.28-3,24-9.86l.06-.06a48.47,48.47,0,0,1,5.32-3.44Z"/>
          <path class="cls-6" d="M395.34,121l.56-1.86c-.44.2-.89.42-1.33.64a48.59,48.59,0,0,0-4.55,2.8,24.52,24.52,0,0,0-2.44,1.79c-4.37,3.91-11.18,8.48-18.82,8.06a21,21,0,0,1-8.32-2.33c-.92-.53-5-3.85-6.72-5.26-1.55-1.27-2.12-1.73-2.45-2a38.06,38.06,0,0,0-6.62-3.78,27.54,27.54,0,0,0-23.93.68c-2.78,1.46-5.47,3.21-8.08,4.91-6.4,4.18-12.44,8.12-19.44,7.74a20.91,20.91,0,0,1-8.31-2.33c-.92-.53-5-3.84-6.72-5.26-1.55-1.27-2.13-1.73-2.46-2a37.7,37.7,0,0,0-6.62-3.78,27.54,27.54,0,0,0-23.93.68,37.83,37.83,0,0,0-7.57,5.63,41.36,41.36,0,0,1-5,4c-5,3.19-9.67,4.63-14.11,4.38a20.79,20.79,0,0,1-8.31-2.33c-.92-.52-5-3.84-6.72-5.26-1.55-1.26-2.12-1.73-2.45-2a38.65,38.65,0,0,0-6.62-3.77,27.53,27.53,0,0,0-23.94.68c-2.77,1.45-5.47,3.21-8.07,4.91-6.4,4.18-12.46,8.11-19.44,7.73a20.79,20.79,0,0,1-8.32-2.33c-.92-.52-5-3.84-6.72-5.26-1.55-1.26-2.12-1.73-2.45-2a38.65,38.65,0,0,0-6.62-3.77,27.51,27.51,0,0,0-23.93.68,48.12,48.12,0,0,0-4.56,2.79,23.66,23.66,0,0,0-2.43,1.8c-4.37,3.91-11.19,8.48-18.83,8.05a20.74,20.74,0,0,1-8.31-2.33c-.92-.52-5-3.84-6.73-5.26-1.54-1.26-2.11-1.73-2.44-2A39,39,0,0,0,45,120.42c-.4-.18-.8-.33-1.19-.49l.31,1.06c.93,3.05,2,6,3.21,8.93l.16.1c.22.16,1.2,1,2.06,1.66,4.44,3.63,6.76,5.46,7.93,6.06a28.17,28.17,0,0,0,11.23,3.14c8,.45,16.27-3,24-9.87l.07-.06a47.79,47.79,0,0,1,5.47-3.52A20.11,20.11,0,0,1,116,127a30.79,30.79,0,0,1,5.36,3.06c.23.16,1.2,1,2.06,1.66,4.44,3.63,6.76,5.46,7.94,6.06a28.17,28.17,0,0,0,11.22,3.14c9.33.52,17-4.48,23.74-8.89,2.58-1.68,5-3.27,7.48-4.56a20.13,20.13,0,0,1,17.76-.47,31.54,31.54,0,0,1,5.36,3.06c.22.16,1.2,1,2.06,1.66,4.44,3.63,6.76,5.46,7.94,6.06a28.08,28.08,0,0,0,11.22,3.14c.46,0,.93,0,1.4,0,5.52,0,11.07-1.81,16.92-5.52a45.86,45.86,0,0,0,5.87-4.65,32.25,32.25,0,0,1,6.15-4.64,20.2,20.2,0,0,1,17.76-.47,31.62,31.62,0,0,1,5.36,3.07c.22.16,1.2,1,2.06,1.66,4.44,3.62,6.75,5.45,7.93,6.06a28.15,28.15,0,0,0,11.22,3.13c9.32.53,17-4.48,23.74-8.88,2.58-1.69,5-3.27,7.49-4.57a20.18,20.18,0,0,1,17.75-.47,30.86,30.86,0,0,1,5.36,3.07c.22.16,1.2,1,2.06,1.66,4.44,3.62,6.76,5.45,7.94,6.06a28.15,28.15,0,0,0,11.22,3.13c7.92.44,16.15-2.92,23.8-9.71A92.87,92.87,0,0,0,395.34,121Z"/>
          <path class="cls-7" d="M389.25,136.21a17,17,0,0,0-1.67,1.27c-4.37,3.91-11.18,8.47-18.82,8.06a21,21,0,0,1-8.32-2.33c-.92-.53-5-3.85-6.72-5.26-1.55-1.27-2.12-1.73-2.45-2a38.06,38.06,0,0,0-6.62-3.78,27.54,27.54,0,0,0-23.93.68c-2.78,1.46-5.47,3.21-8.08,4.91-6.4,4.18-12.45,8.12-19.44,7.74a21,21,0,0,1-8.32-2.33c-.91-.53-5-3.84-6.71-5.26-1.55-1.27-2.13-1.73-2.46-2a38.06,38.06,0,0,0-6.62-3.78,27.54,27.54,0,0,0-23.93.68,37.83,37.83,0,0,0-7.57,5.63,42.38,42.38,0,0,1-5,4c-5,3.2-9.66,4.63-14.11,4.38a20.79,20.79,0,0,1-8.31-2.33c-.92-.52-5-3.84-6.72-5.26-1.55-1.26-2.12-1.73-2.45-2a38.65,38.65,0,0,0-6.62-3.77,27.56,27.56,0,0,0-23.94.68c-2.77,1.45-5.47,3.21-8.07,4.91-6.4,4.18-12.45,8.11-19.44,7.73a20.79,20.79,0,0,1-8.32-2.33c-.92-.52-5-3.84-6.72-5.26-1.55-1.26-2.12-1.73-2.45-2a38.65,38.65,0,0,0-6.62-3.77,27.54,27.54,0,0,0-23.93.68A48.12,48.12,0,0,0,90.37,137a23.66,23.66,0,0,0-2.43,1.8c-4.37,3.91-11.18,8.47-18.83,8.05a20.79,20.79,0,0,1-8.31-2.33c-.92-.52-5-3.84-6.73-5.26-1.54-1.26-2.11-1.73-2.44-2s-.85-.58-1.28-.85a94.32,94.32,0,0,0,10,15.7A27.79,27.79,0,0,0,68.72,154c8,.44,16.27-3,24-9.87l.07-.06a47.79,47.79,0,0,1,5.47-3.52,20.11,20.11,0,0,1,17.75-.47,30.79,30.79,0,0,1,5.36,3.06c.23.16,1.2,1,2.06,1.66,4.44,3.63,6.76,5.46,7.94,6.06A28.17,28.17,0,0,0,142.57,154c9.32.53,17-4.48,23.74-8.89,2.58-1.68,5-3.27,7.48-4.56a20.13,20.13,0,0,1,17.76-.47,31.54,31.54,0,0,1,5.36,3.06c.22.16,1.2,1,2.06,1.66,4.44,3.63,6.76,5.46,7.94,6.06A28.17,28.17,0,0,0,218.13,154c.46,0,.93,0,1.4,0,5.52,0,11.07-1.81,16.92-5.52a45.86,45.86,0,0,0,5.87-4.65,31.78,31.78,0,0,1,6.15-4.63,20.17,20.17,0,0,1,17.76-.48,31.62,31.62,0,0,1,5.36,3.07c.22.16,1.2,1,2.06,1.66,4.44,3.62,6.75,5.45,7.93,6.06a28.15,28.15,0,0,0,11.22,3.13c9.32.52,17-4.48,23.74-8.88,2.58-1.68,5-3.27,7.49-4.56a20.14,20.14,0,0,1,17.75-.48,31.24,31.24,0,0,1,5.36,3.07c.22.16,1.2,1,2.06,1.66,4.44,3.62,6.76,5.45,7.94,6.06a28.15,28.15,0,0,0,11.22,3.13,27.61,27.61,0,0,0,12-2.14A94,94,0,0,0,389.25,136.21Z"/>
          <path class="cls-6" d="M373.88,158.22a18.91,18.91,0,0,1-5.12.44,21,21,0,0,1-8.32-2.33c-.92-.53-5-3.85-6.72-5.26-1.55-1.27-2.12-1.73-2.45-2a38.06,38.06,0,0,0-6.62-3.78,27.51,27.51,0,0,0-23.93.69c-2.78,1.45-5.47,3.21-8.08,4.91-6.4,4.17-12.45,8.12-19.44,7.73a20.91,20.91,0,0,1-8.31-2.33c-.92-.53-5-3.84-6.72-5.26-1.55-1.27-2.13-1.73-2.46-2a37.7,37.7,0,0,0-6.62-3.78,27.51,27.51,0,0,0-23.93.69,37.42,37.42,0,0,0-7.57,5.62,41.36,41.36,0,0,1-5,4c-5,3.2-9.66,4.63-14.11,4.38a20.79,20.79,0,0,1-8.31-2.33c-.92-.52-5-3.84-6.72-5.26-1.55-1.26-2.12-1.73-2.45-2a39,39,0,0,0-6.62-3.77,27.56,27.56,0,0,0-23.94.68c-2.77,1.45-5.47,3.21-8.07,4.91C156,156.43,150,160.36,143,160a20.79,20.79,0,0,1-8.32-2.33c-.92-.52-5-3.84-6.72-5.26-1.55-1.26-2.12-1.73-2.45-2a38.65,38.65,0,0,0-6.62-3.77,27.54,27.54,0,0,0-23.93.68,50.29,50.29,0,0,0-4.56,2.79,23.66,23.66,0,0,0-2.43,1.8c-4.37,3.91-11.19,8.48-18.83,8a16.38,16.38,0,0,1-2.07-.23,93.89,93.89,0,0,0,7.66,7c6.08-1.09,12.2-4.3,18-9.49l.07-.06a47.79,47.79,0,0,1,5.47-3.52A20.14,20.14,0,0,1,116,153.2a30.79,30.79,0,0,1,5.36,3.06c.23.16,1.2,1,2.06,1.66,4.44,3.63,6.76,5.46,7.94,6.06a28.17,28.17,0,0,0,11.22,3.14c9.33.52,17-4.48,23.74-8.89,2.58-1.68,5-3.27,7.48-4.56a20.17,20.17,0,0,1,17.76-.47,31.54,31.54,0,0,1,5.36,3.06c.22.16,1.2,1,2.06,1.66,4.44,3.63,6.76,5.46,7.94,6.06a28.08,28.08,0,0,0,11.22,3.14c.46,0,.93,0,1.4,0,5.52,0,11.07-1.81,16.92-5.52a45.86,45.86,0,0,0,5.87-4.65,32.19,32.19,0,0,1,6.15-4.63,20.17,20.17,0,0,1,17.76-.48,31.62,31.62,0,0,1,5.36,3.07c.22.16,1.2,1,2.06,1.66,4.44,3.62,6.75,5.45,7.93,6.06a28.15,28.15,0,0,0,11.22,3.13c9.33.53,17-4.48,23.74-8.88,2.58-1.68,5-3.27,7.49-4.56a20.14,20.14,0,0,1,17.75-.48,30.86,30.86,0,0,1,5.36,3.07c.22.16,1.2,1,2.06,1.66,4.44,3.62,6.76,5.45,7.94,6.06a28.62,28.62,0,0,0,9,2.91A95.41,95.41,0,0,0,373.88,158.22Z"/>
          <path class="cls-7" d="M360.44,169.45c-.92-.53-5-3.84-6.72-5.26-1.55-1.27-2.12-1.73-2.45-2a38.06,38.06,0,0,0-6.62-3.78,27.51,27.51,0,0,0-23.93.69c-2.78,1.45-5.47,3.21-8.08,4.91-6.4,4.17-12.44,8.11-19.44,7.73a20.91,20.91,0,0,1-8.31-2.33c-.92-.52-5-3.84-6.72-5.26-1.55-1.26-2.13-1.73-2.46-2a37.7,37.7,0,0,0-6.62-3.78,27.51,27.51,0,0,0-23.93.69,37.42,37.42,0,0,0-7.57,5.62,41.36,41.36,0,0,1-5,4c-5,3.2-9.67,4.63-14.11,4.38a20.79,20.79,0,0,1-8.31-2.33c-.92-.52-5-3.84-6.73-5.26-1.54-1.26-2.11-1.72-2.44-2a38.65,38.65,0,0,0-6.62-3.77,27.56,27.56,0,0,0-23.94.68c-2.77,1.45-5.47,3.21-8.07,4.91C156,169.55,150,173.49,143,173.1a20.79,20.79,0,0,1-8.32-2.33c-.92-.52-5-3.85-6.73-5.26-1.54-1.26-2.11-1.72-2.44-2a38.65,38.65,0,0,0-6.62-3.77,27.51,27.51,0,0,0-23.93.68,50.29,50.29,0,0,0-4.56,2.79,23.66,23.66,0,0,0-2.43,1.8,37.48,37.48,0,0,1-8.1,5.61Q83.11,173,86.58,175a45.68,45.68,0,0,0,6.12-4.66l.07-.06a47.79,47.79,0,0,1,5.47-3.52,20.14,20.14,0,0,1,17.75-.47,30.79,30.79,0,0,1,5.36,3.06c.22.16,1.2,1,2.06,1.66,4.44,3.62,6.76,5.46,7.94,6.06a28.17,28.17,0,0,0,11.22,3.14c9.32.52,17-4.48,23.74-8.89,2.58-1.68,5-3.27,7.48-4.56a20.17,20.17,0,0,1,17.76-.47,31.54,31.54,0,0,1,5.36,3.06c.22.16,1.19,1,2.05,1.66,4.44,3.62,6.77,5.46,7.95,6.06a28.08,28.08,0,0,0,11.22,3.14c.46,0,.93,0,1.4,0,5.52,0,11.07-1.82,16.92-5.53a45.86,45.86,0,0,0,5.87-4.65,32.19,32.19,0,0,1,6.15-4.63,20.17,20.17,0,0,1,17.76-.48,31.62,31.62,0,0,1,5.36,3.07c.22.16,1.2,1,2.06,1.67,4.44,3.61,6.75,5.44,7.93,6.05a28.15,28.15,0,0,0,11.22,3.13c9.32.52,17-4.47,23.74-8.88,2.58-1.68,5-3.27,7.49-4.56a20.14,20.14,0,0,1,17.75-.48,30.86,30.86,0,0,1,5.36,3.07c.22.16,1.2,1,2.06,1.66,2.34,1.91,4.07,3.31,5.38,4.3q3.29-2,6.39-4.31Z"/>
          <path class="cls-6" d="M351.27,175.35a38.06,38.06,0,0,0-6.62-3.78,27.51,27.51,0,0,0-23.93.69c-2.78,1.45-5.47,3.21-8.08,4.91-6.4,4.17-12.44,8.11-19.44,7.73a21,21,0,0,1-8.32-2.33c-.91-.53-5-3.84-6.71-5.26-1.55-1.26-2.13-1.73-2.46-2a38.06,38.06,0,0,0-6.62-3.78,27.51,27.51,0,0,0-23.93.69,37.42,37.42,0,0,0-7.57,5.62,41.36,41.36,0,0,1-5,4c-5,3.2-9.66,4.63-14.11,4.38a20.79,20.79,0,0,1-8.31-2.33c-.92-.52-5-3.84-6.72-5.26-1.55-1.26-2.12-1.72-2.45-2a38.65,38.65,0,0,0-6.62-3.77,27.56,27.56,0,0,0-23.94.68c-2.77,1.45-5.47,3.21-8.07,4.91C156,182.67,150,186.61,143,186.22a20.79,20.79,0,0,1-8.32-2.33c-.92-.52-5-3.84-6.72-5.26-1.55-1.26-2.12-1.72-2.45-2a38.65,38.65,0,0,0-6.62-3.77,27.54,27.54,0,0,0-23.93.68,50.29,50.29,0,0,0-4.56,2.79l-.64.44c2.45,1.32,5,2.55,7.52,3.65.34-.2.67-.38,1-.55a20.14,20.14,0,0,1,17.75-.47,30.79,30.79,0,0,1,5.36,3.06c.23.17,1.2,1,2.06,1.67,1.92,1.56,3.42,2.77,4.62,3.71,2.14.14,4.29.24,6.46.24h26c2-1.18,3.94-2.44,5.8-3.65,2.58-1.68,5-3.27,7.48-4.56a20.17,20.17,0,0,1,17.76-.47,31.54,31.54,0,0,1,5.36,3.06c.22.17,1.2,1,2.06,1.67,2.08,1.69,3.67,3,4.92,4H236l.41-.25a45,45,0,0,0,5.87-4.65,32.19,32.19,0,0,1,6.15-4.63,20.13,20.13,0,0,1,17.76-.47,30.88,30.88,0,0,1,5.36,3.06c.22.16,1.2,1,2.06,1.66,3.23,2.64,5.33,4.32,6.69,5.28H305c1.18,0,2.35,0,3.53-.08,2.83-1.5,5.49-3.24,8-4.89s5-3.27,7.49-4.56a20.11,20.11,0,0,1,17.75-.47,26.51,26.51,0,0,1,2.66,1.34c2.49-1.15,4.93-2.39,7.31-3.75Z"/>
          <path class="cls-7" d="M194.42,186a27.56,27.56,0,0,0-23.94.68c-.85.44-1.69.92-2.52,1.42h30.48A36.86,36.86,0,0,0,194.42,186Z"/>
          <path class="cls-7" d="M118.86,186a28.08,28.08,0,0,0-13-2.35,94.24,94.24,0,0,0,15.29,3.49C120.41,186.75,119.64,186.36,118.86,186Z"/>
          <path class="cls-7" d="M275.19,188.12a38.54,38.54,0,0,0-6.09-3.43,27.53,27.53,0,0,0-23.94.69,26.46,26.46,0,0,0-4.18,2.74Z"/>
          <path class="cls-7" d="M320.72,185.38c-1.14.59-2.25,1.24-3.36,1.91a93.87,93.87,0,0,0,19.57-4.76A27.19,27.19,0,0,0,320.72,185.38Z"/>
          <polygon class="cls-8" points="216.17 19.36 216.17 188.12 219.74 188.12 223.31 188.12 223.31 19.36 219.74 19.36 216.17 19.36"/>
          <path class="cls-8" d="M390.59,19.36l-26.9,100.32a140.61,140.61,0,0,1-18.51,41.09c-6.38,9.67-12.22,18-17.25,24.52a93.17,93.17,0,0,0,11.69-3.77q5.34-7.44,11.53-16.82a147.67,147.67,0,0,0,19.43-43.17L398,19.36Z"/>
          <path class="cls-8" d="M337.66,19.36c-.08.67-.16,1.34-.25,2-3.77,30.4-10.78,87-17.26,106.31-6.59,19.6-18.38,39.39-36,60.42h9.24c16.12-20,27.12-39.13,33.51-58.15,6.71-20,13.78-77,17.58-107.7q.18-1.5.36-2.91Z"/>
          <path class="cls-8" d="M284,19.36c0,.75-.06,1.52-.09,2.3-1.26,30.61-3.61,87.59-8.49,107.38-4.65,18.84-13.87,38.24-28.07,59.08H256c13.17-20.05,21.86-38.92,26.41-57.37,5.06-20.49,7.42-77.93,8.69-108.79,0-.89.08-1.76.11-2.6Z"/>
          <path class="cls-8" d="M68.89,119.58a147.56,147.56,0,0,0,19.44,43.17q7.33,11.1,13.49,19.52a94.73,94.73,0,0,0,11.58,3.45c-5.43-6.88-11.93-16-19.11-26.9a140.71,140.71,0,0,1-18.5-41.09L49.41,19.36H42Z"/>
          <path class="cls-8" d="M95,20.32C98.77,51,105.84,108,112.56,128c6.59,19.63,18.11,39.34,35.09,60.1H157c-18.52-21.76-30.84-42.17-37.63-62.37-6.49-19.32-13.5-75.91-17.27-106.31v-.08h-7.2Z"/>
          <path class="cls-8" d="M148.42,20c1.27,30.86,3.64,88.31,8.69,108.79,4.7,19.06,13.8,38.55,27.7,59.33h8.65c-15-21.59-24.62-41.61-29.41-61-4.88-19.78-7.23-76.76-8.49-107.37,0-.12,0-.23,0-.35H148.4Z"/>
          <path class="cls-6" d="M207.74,50.86c-1.5-1.18-3.26-2.62-4.25-3.43-1.55-1.27-2.12-1.73-2.45-2a38.06,38.06,0,0,0-6.62-3.78,27.53,27.53,0,0,0-23.94.69c-2.77,1.45-5.47,3.21-8.07,4.91C156,51.46,150,55.4,143,55a21,21,0,0,1-8.32-2.33c-.92-.53-5-3.84-6.72-5.26-1.55-1.27-2.12-1.73-2.45-2a38.06,38.06,0,0,0-6.62-3.78,28.55,28.55,0,0,0-6.94-2,19.66,19.66,0,0,0-.08,2.54c.13.59.29,1.17.47,1.75a9.74,9.74,0,0,1,.45,3.16A23.86,23.86,0,0,1,116,48.23a30.86,30.86,0,0,1,5.36,3.07c.23.16,1.2,1,2.06,1.66,4.44,3.62,6.76,5.45,7.94,6.06a28.15,28.15,0,0,0,11.22,3.13c9.33.53,17-4.48,23.74-8.88,2.58-1.68,5-3.27,7.48-4.56a20.17,20.17,0,0,1,17.76-.48,31.62,31.62,0,0,1,5.36,3.07c.22.16,1.2,1,2.06,1.66,4.38,3.58,6.69,5.4,7.89,6A60.84,60.84,0,0,1,207.74,50.86Z"/>
          <path class="cls-6" d="M327.57,43.12c-.12-.71-.25-1.42-.41-2.13a12.61,12.61,0,0,1-.29-2.25,27.23,27.23,0,0,0-6.15,2.31c-2.78,1.45-5.47,3.21-8.08,4.91-6.4,4.18-12.45,8.13-19.44,7.74a21,21,0,0,1-8.32-2.34c-.91-.52-5-3.84-6.71-5.25-1.55-1.27-2.13-1.73-2.46-2a38.06,38.06,0,0,0-6.62-3.78,27.54,27.54,0,0,0-23.93.68,38.19,38.19,0,0,0-7.57,5.62,40.39,40.39,0,0,1-5,4,37,37,0,0,1-3.34,1.88s0,.06,0,.09c-.31,1.85-.65,3.7-1,5.54.47-2.42,0,.41,0,.85,0,.28.1,1.26.11,1.64a38.14,38.14,0,0,0,8.08-4A45,45,0,0,0,242.32,52a31.84,31.84,0,0,1,6.15-4.64,20.2,20.2,0,0,1,17.76-.47A31,31,0,0,1,271.59,50c.22.16,1.2,1,2.06,1.66,4.44,3.62,6.75,5.45,7.93,6.06a28.15,28.15,0,0,0,11.22,3.13c9.33.52,17-4.48,23.74-8.89,2.58-1.68,5-3.27,7.49-4.56a21.13,21.13,0,0,1,3.79-1.52C327.75,45,327.67,44,327.57,43.12Z"/>
          <path class="cls-6" d="M418.51,40.37a27.56,27.56,0,0,0-23.94.68,46.57,46.57,0,0,0-4.55,2.8,23,23,0,0,0-2.44,1.79c-4.37,3.91-11.18,8.49-18.82,8.06a21,21,0,0,1-8.32-2.34c-.92-.52-5-3.84-6.72-5.26-1.55-1.26-2.12-1.72-2.45-2-.69-.49-1.39-.94-2.09-1.37.14,1.27.25,2.54.35,3.82a8.68,8.68,0,0,1-.9,4.57l.57.47c4.44,3.62,6.76,5.45,7.94,6.06a28.15,28.15,0,0,0,11.22,3.13c8,.45,16.28-3,24-9.87l.06-.06a48.72,48.72,0,0,1,5.47-3.52,20.2,20.2,0,0,1,17.76-.47c.59.26,1.18.56,1.78.87l2.09-6.94Z"/>
          <path class="cls-6" d="M90.48,45.1l-.11.07A25.42,25.42,0,0,0,87.94,47C83.57,50.87,76.75,55.45,69.11,55a21,21,0,0,1-8.31-2.33c-.92-.53-5-3.84-6.73-5.26-1.54-1.27-2.11-1.73-2.44-2A38.43,38.43,0,0,0,45,41.69a27.53,27.53,0,0,0-23.94.69l-.55.3,2.11,7c.58-.34,1.17-.67,1.75-1a20.17,20.17,0,0,1,17.76-.48A31.62,31.62,0,0,1,47.5,51.3c.22.16,1.2,1,2.06,1.66C54,56.58,56.32,58.41,57.49,59a28.15,28.15,0,0,0,11.23,3.13c8,.45,16.25-3,24-9.84a11.5,11.5,0,0,1-1.22-2.61A24.84,24.84,0,0,1,90.48,45.1Z"/>
          <path class="cls-7" d="M24,54.19l2.07,6.86a20.19,20.19,0,0,1,16.08.31,29.74,29.74,0,0,1,3.06,1.58,10.83,10.83,0,0,1,2.66-6.7c-1-.53-1.9-1-2.85-1.43A27.67,27.67,0,0,0,24,54.19Z"/>
          <path class="cls-7" d="M370.24,71.18c.27-1.49.54-3,.85-4.4a18.09,18.09,0,0,1-2.33,0,21.12,21.12,0,0,1-8.32-2.33c-.92-.53-5-3.85-6.73-5.27-1.54-1.26-2.11-1.72-2.44-1.95a38.06,38.06,0,0,0-6.62-3.78,27.54,27.54,0,0,0-23.93.68c-2.78,1.45-5.47,3.21-8.08,4.91a64.17,64.17,0,0,1-10.94,6.2c0,.16-.06.33-.1.49-.61,2.49-1.13,5-1.62,7.51,6.2-1.46,11.63-5,16.56-8.21,2.58-1.69,5-3.28,7.49-4.57A20.18,20.18,0,0,1,341.78,60a30.23,30.23,0,0,1,5.36,3.07c.22.16,1.2.95,2.06,1.65,4.44,3.63,6.76,5.46,7.94,6.07A28.15,28.15,0,0,0,368.36,74c.56,0,1.12,0,1.69,0A13.79,13.79,0,0,1,370.24,71.18Z"/>
          <path class="cls-7" d="M394.57,54.17l-.2.11a11.61,11.61,0,0,1,1,7.69c.81-.52,1.68-1,2.48-1.47a20,20,0,0,1,16-1.13L416,52.53A27.42,27.42,0,0,0,394.57,54.17Z"/>
          <path class="cls-7" d="M273.06,55.55a37.59,37.59,0,0,0-4-2.06,27.54,27.54,0,0,0-23.93.68,38.19,38.19,0,0,0-7.57,5.62,40.39,40.39,0,0,1-5,4c-5,3.2-9.66,4.64-14.11,4.39a21,21,0,0,1-8.31-2.33c-.92-.53-5-3.85-6.72-5.26-1.55-1.27-2.12-1.73-2.45-2a38.43,38.43,0,0,0-6.62-3.78,27.53,27.53,0,0,0-23.94.69c-1.89,1-3.74,2.12-5.56,3.28a11.35,11.35,0,0,1,.6,8.12l.79-.51c2.58-1.68,5-3.27,7.48-4.56a20.13,20.13,0,0,1,17.76-.47,30.88,30.88,0,0,1,5.36,3.06c.22.16,1.2,1,2.06,1.66,4.44,3.62,6.76,5.45,7.94,6.06a28.06,28.06,0,0,0,11.22,3.13c.46,0,.93,0,1.4,0,5.52,0,11.07-1.81,16.92-5.53a45,45,0,0,0,5.87-4.64,31.84,31.84,0,0,1,6.15-4.64A20.2,20.2,0,0,1,266.23,60a30.86,30.86,0,0,1,3.89,2.09A10.43,10.43,0,0,1,273.06,55.55Z"/>
          <path class="cls-7" d="M143.12,68.14H143a21,21,0,0,1-8.32-2.33c-.92-.53-5-3.85-6.72-5.26-1.55-1.27-2.12-1.73-2.45-2a38.06,38.06,0,0,0-6.62-3.78,27.51,27.51,0,0,0-23.93.69,48.12,48.12,0,0,0-4.56,2.79,23.66,23.66,0,0,0-2.43,1.8c-4,3.58-10.09,7.72-17,8a10.78,10.78,0,0,1,.72,7.12c7-.44,14.25-3.81,21-9.85l.07-.06a47.79,47.79,0,0,1,5.47-3.52A20.11,20.11,0,0,1,116,61.36a30.16,30.16,0,0,1,5.36,3.06c.23.16,1.2,1,2.06,1.66,4.44,3.62,6.76,5.45,7.94,6.06a28.15,28.15,0,0,0,11.22,3.13l1.09,0A41.33,41.33,0,0,1,143.12,68.14Z"/>
          <path class="cls-6" d="M93.54,69.39c-1.18.7-2.32,1.44-3.17,2a23.66,23.66,0,0,0-2.43,1.8c-4.37,3.9-11.19,8.48-18.83,8.05a20.74,20.74,0,0,1-8.31-2.33c-.92-.53-5-3.85-6.73-5.27-1.54-1.26-2.11-1.72-2.44-2A38.43,38.43,0,0,0,45,67.93a27.9,27.9,0,0,0-17.39-1.71l2.06,6.83a20.48,20.48,0,0,1,12.46,1.43,30.88,30.88,0,0,1,5.36,3.06c.22.16,1.19,1,2,1.66,4.44,3.62,6.77,5.45,7.94,6.06a28.15,28.15,0,0,0,11.23,3.13c8,.45,16.27-3,24-9.86l.07-.06c.57-.43,2.27-1.64,4-2.68l-.21-.26A13,13,0,0,1,93.54,69.39Z"/>
          <path class="cls-6" d="M208.71,77.86c-1.62-1.25-4-3.2-5.23-4.2-1.54-1.26-2.11-1.72-2.44-2a38.06,38.06,0,0,0-6.62-3.78,27.56,27.56,0,0,0-23.94.69c-2.77,1.45-5.47,3.21-8.07,4.91C156,77.7,150,81.64,143,81.26a20.79,20.79,0,0,1-8.32-2.33c-.92-.53-5-3.85-6.73-5.27-1.54-1.26-2.11-1.72-2.44-2a38.06,38.06,0,0,0-6.62-3.78l-1.13-.46a31.84,31.84,0,0,1,2.64,4.17,11.78,11.78,0,0,1,1.36,6.19l1.68,1.37c4.44,3.62,6.76,5.45,7.94,6.06a28.15,28.15,0,0,0,11.22,3.13c9.33.53,17-4.47,23.74-8.88,2.58-1.68,5-3.27,7.48-4.56a20.13,20.13,0,0,1,17.76-.47,30.88,30.88,0,0,1,5.36,3.06c.22.16,1.19,1,2.05,1.66,4.44,3.62,6.77,5.45,7.95,6.06.36.19.73.36,1.1.53A18.29,18.29,0,0,1,208.71,77.86Z"/>
          <path class="cls-6" d="M394.57,67.29a48.59,48.59,0,0,0-4.55,2.8,23,23,0,0,0-2.44,1.79c-4.37,3.91-11.18,8.48-18.82,8.06a21.12,21.12,0,0,1-8.32-2.33c-.92-.53-5-3.85-6.72-5.26-1.55-1.27-2.12-1.73-2.45-2a39,39,0,0,0-6.46-3.71c.05,2.64-.07,5.27-.22,7.9.85.5,1.71,1,2.55,1.64.22.16,1.2,1,2.06,1.66,4.44,3.62,6.76,5.45,7.94,6.06a28.15,28.15,0,0,0,11.22,3.13c8,.45,16.28-3,24-9.86l.06-.06a48.49,48.49,0,0,1,5.47-3.53,19.9,19.9,0,0,1,12.37-2.05l2.07-6.87A27.26,27.26,0,0,0,394.57,67.29Z"/>
          <path class="cls-6" d="M323.15,66.18c-.82.33-1.64.7-2.43,1.11-2.78,1.45-5.47,3.21-8.08,4.91-6.4,4.18-12.44,8.12-19.44,7.74a21.07,21.07,0,0,1-8.31-2.33c-.92-.53-5-3.84-6.72-5.26-1.55-1.27-2.13-1.73-2.46-2a37.7,37.7,0,0,0-6.62-3.78,27.54,27.54,0,0,0-23.93.68,38.19,38.19,0,0,0-7.57,5.62,40.39,40.39,0,0,1-5,4c-.7.45-1.39.85-2.08,1.23a10.54,10.54,0,0,1-.79,6.78c.12.45.26.89.39,1.33a40.34,40.34,0,0,0,6.3-3.31,45,45,0,0,0,5.87-4.64,31.84,31.84,0,0,1,6.15-4.64,20.2,20.2,0,0,1,17.76-.47,31.62,31.62,0,0,1,5.36,3.07c.22.16,1.2,1,2.06,1.66,4.44,3.62,6.75,5.45,7.93,6.06a28.15,28.15,0,0,0,11.22,3.13c9.34.53,17-4.48,23.74-8.88,2.21-1.45,4.32-2.81,6.43-4C323.12,71.53,323.23,68.85,323.15,66.18Z"/>
          <path class="cls-7" d="M51.63,84.83A38.43,38.43,0,0,0,45,81.05a28.25,28.25,0,0,0-13.62-2.31l2.12,7a21.1,21.1,0,0,1,8.63,1.83,30.88,30.88,0,0,1,5.36,3.06c.22.16,1.2,1,2.06,1.66s1.54,1.25,2.22,1.8a12.72,12.72,0,0,1,.31-2,10.25,10.25,0,0,1,2.73-4.68l-.75-.61C52.53,85.53,52,85.06,51.63,84.83Z"/>
          <path class="cls-7" d="M145.1,98.27c-.23-1.28-.44-2.58-.61-3.88-.51,0-1,0-1.52,0a20.79,20.79,0,0,1-8.32-2.33c-.92-.52-5-3.84-6.72-5.26-1.55-1.26-2.12-1.73-2.45-2a38.06,38.06,0,0,0-6.62-3.78,27.51,27.51,0,0,0-23.93.69,48.12,48.12,0,0,0-4.56,2.79,23.66,23.66,0,0,0-2.43,1.8,32.79,32.79,0,0,1-12.59,7.33,39.23,39.23,0,0,1,1.77,5.57,11.68,11.68,0,0,1,.24,1.29A39.09,39.09,0,0,0,92.7,91.65l.07-.06a47.79,47.79,0,0,1,5.47-3.52A20.11,20.11,0,0,1,116,87.6a30.16,30.16,0,0,1,5.36,3.06c.23.16,1.2,1,2.06,1.66,4.44,3.62,6.76,5.45,7.94,6.06a28.15,28.15,0,0,0,11.22,3.13,25.39,25.39,0,0,0,3.15,0C145.51,100.41,145.29,99.34,145.1,98.27Z"/>
          <path class="cls-7" d="M361.54,91.25c-.37-.16-.74-.34-1.1-.52-.92-.53-5-3.85-6.72-5.27-1.55-1.26-2.12-1.72-2.45-1.95a38.06,38.06,0,0,0-6.62-3.78,27.54,27.54,0,0,0-23.93.68c-2.78,1.45-5.47,3.21-8.08,4.91-6.4,4.18-12.44,8.12-19.44,7.74l-.46,0c-.21,2.37-.33,4.75-.4,7.13l.46,0c9.32.53,17-4.48,23.74-8.88,2.58-1.69,5-3.27,7.49-4.57a20.18,20.18,0,0,1,17.75-.47,30.59,30.59,0,0,1,5.36,3.07c.22.16,1.2,1,2.06,1.66,4.44,3.62,6.76,5.45,7.94,6.06a27.52,27.52,0,0,0,2.78,1.25A54,54,0,0,1,361.54,91.25Z"/>
          <path class="cls-7" d="M394.57,80.41a48.59,48.59,0,0,0-4.55,2.8A23,23,0,0,0,387.58,85c-.47.43-1,.86-1.52,1.3a8.56,8.56,0,0,1-1.4,7,15.94,15.94,0,0,0-2.09,3.77,44.08,44.08,0,0,0,9.78-6.72l.06-.06a48.49,48.49,0,0,1,5.47-3.53,20.08,20.08,0,0,1,8.48-2.28l2.14-7.09A27.25,27.25,0,0,0,394.57,80.41Z"/>
          <path class="cls-7" d="M271.6,89.34c.2-2.06.43-4.12.73-6.18a7.3,7.3,0,0,1,.41-1.56,34.05,34.05,0,0,0-3.65-1.87,27.54,27.54,0,0,0-23.93.68A38.19,38.19,0,0,0,237.59,86a40.39,40.39,0,0,1-5,4c-5,3.2-9.67,4.63-14.11,4.39a20.79,20.79,0,0,1-8.31-2.33c-.92-.52-5-3.84-6.72-5.26-1.55-1.26-2.12-1.73-2.45-2a38.06,38.06,0,0,0-6.62-3.78,27.53,27.53,0,0,0-23.94.69c-1.88,1-3.72,2.11-5.52,3.26a11.07,11.07,0,0,1,.64,3.41,35.88,35.88,0,0,0,.43,4.4l.28-.18c2.58-1.68,5-3.27,7.48-4.56a20.13,20.13,0,0,1,17.76-.47,30.88,30.88,0,0,1,5.36,3.06c.22.16,1.2,1,2.06,1.66,4.44,3.62,6.76,5.45,7.94,6.06a28.15,28.15,0,0,0,11.22,3.13c.46,0,.93,0,1.4,0,5.52,0,11.07-1.81,16.92-5.52a45.86,45.86,0,0,0,5.87-4.65,31.84,31.84,0,0,1,6.15-4.64,20.2,20.2,0,0,1,17.76-.47,31,31,0,0,1,5.36,3.07Z"/>
          <path class="cls-6" d="M94.93,94.86a48.12,48.12,0,0,0-4.56,2.79,23.66,23.66,0,0,0-2.43,1.8c-4.37,3.91-11.18,8.47-18.83,8a20.74,20.74,0,0,1-8.31-2.33c-.92-.52-5-3.84-6.73-5.26-1.54-1.26-2.11-1.73-2.44-2A39.1,39.1,0,0,0,45,94.17a28.41,28.41,0,0,0-9.67-2.34l2.25,7.45a21.61,21.61,0,0,1,4.55,1.44,30.88,30.88,0,0,1,5.36,3.06c.22.16,1.2,1,2.06,1.66,4.44,3.62,6.76,5.46,7.93,6.06a28.15,28.15,0,0,0,11.23,3.13c8,.45,16.27-3,24-9.86l.07-.06a49.48,49.48,0,0,1,5.37-3.47c-.51-2.43-1-4.86-1.22-7.31C96.25,94.21,95.58,94.52,94.93,94.86Z"/>
          <path class="cls-6" d="M209.22,104.48c-1.59-1.19-4.37-3.46-5.73-4.57-1.55-1.26-2.12-1.73-2.45-2a38.72,38.72,0,0,0-6.62-3.78,27.53,27.53,0,0,0-23.94.69c-2.77,1.45-5.47,3.21-8.07,4.91C156,103.94,150,107.88,143,107.5a20.79,20.79,0,0,1-8.32-2.33c-.92-.52-5-3.84-6.72-5.26-1.55-1.26-2.12-1.73-2.45-2a38.72,38.72,0,0,0-6.62-3.78l-.06,0c.2,1.06.46,2.21.77,3.63.41,1.89.85,3.77,1.28,5.66.17.12.34.22.5.34s1.2,1,2.06,1.66c4.44,3.62,6.76,5.46,7.94,6.06a28.15,28.15,0,0,0,11.22,3.13c9.32.53,17-4.47,23.74-8.88,2.58-1.68,5-3.27,7.48-4.56a20.13,20.13,0,0,1,17.76-.47,30.88,30.88,0,0,1,5.36,3.06c.22.16,1.2,1,2.06,1.66,4.44,3.62,6.76,5.46,7.94,6.06.67.35,1.35.66,2,1C209,109.79,209.12,107.14,209.22,104.48Z"/>
          <path class="cls-6" d="M321.39,101.36a27.94,27.94,0,0,0,.73-6.1c0-.23-.05-1.48-.07-2.37-.45.2-.89.41-1.33.64-2.78,1.46-5.47,3.21-8.08,4.91-6.4,4.18-12.45,8.13-19.44,7.74a21.16,21.16,0,0,1-8.32-2.33c-.91-.53-5-3.85-6.72-5.27-1.55-1.26-2.12-1.72-2.45-2a38.06,38.06,0,0,0-6.62-3.78,27.54,27.54,0,0,0-23.93.68,38.19,38.19,0,0,0-7.57,5.62,40.39,40.39,0,0,1-5,4c-.6.38-1.18.73-1.76,1-.1,2.7-.2,5.4-.28,8.09a41.1,41.1,0,0,0,5.86-3.1,45.86,45.86,0,0,0,5.87-4.65,31.84,31.84,0,0,1,6.15-4.64,20.2,20.2,0,0,1,17.76-.47,31.62,31.62,0,0,1,5.36,3.07c.22.16,1.19,1,2.05,1.66,4.44,3.62,6.76,5.45,7.94,6.06a28.15,28.15,0,0,0,11.22,3.13c9.32.53,17-4.48,23.74-8.88C318.2,103.34,319.8,102.31,321.39,101.36Z"/>
          <path class="cls-6" d="M394.57,93.53a48.59,48.59,0,0,0-4.55,2.8,23,23,0,0,0-2.44,1.79c-4.37,3.91-11.18,8.48-18.82,8.06a21.12,21.12,0,0,1-8.32-2.33c-.92-.53-5-3.85-6.73-5.27-1.54-1.26-2.11-1.72-2.44-2a38.06,38.06,0,0,0-6.62-3.78l-1-.41a47.76,47.76,0,0,1-.24,7.74,30.46,30.46,0,0,1,3.74,2.28c.22.16,1.2,1,2.06,1.65,4.44,3.63,6.76,5.46,7.94,6.07a28.15,28.15,0,0,0,11.22,3.13c8,.45,16.28-3,24-9.86l.06-.06a48.49,48.49,0,0,1,5.47-3.53,20.35,20.35,0,0,1,4.34-1.67l2.29-7.61A27.3,27.3,0,0,0,394.57,93.53Z"/>
          <path class="cls-7" d="M61.07,118.42l-.27-.13c-.92-.52-5-3.84-6.73-5.26-1.54-1.26-2.11-1.73-2.44-2A37.72,37.72,0,0,0,45,107.3a28.35,28.35,0,0,0-5.54-1.78L42,113.76l.19.08a30.88,30.88,0,0,1,5.36,3.06c.22.16,1.2,1,2.06,1.66,4.44,3.62,6.76,5.46,7.93,6.06a29.08,29.08,0,0,0,3.91,1.67,34.29,34.29,0,0,1-.77-4.25A7.83,7.83,0,0,1,61.07,118.42Z"/>
          <path class="cls-7" d="M148.05,120.16a17.93,17.93,0,0,1-5.08.46,20.79,20.79,0,0,1-8.32-2.33c-.92-.52-5-3.84-6.72-5.26-1.55-1.26-2.12-1.73-2.45-2a37.36,37.36,0,0,0-6.62-3.77,27.51,27.51,0,0,0-23.93.68,48.12,48.12,0,0,0-4.56,2.79,23.66,23.66,0,0,0-2.43,1.8,38.5,38.5,0,0,1-6.93,5A14.9,14.9,0,0,1,82.27,122c-.4-3.51.1-.2.32.6.18.62.38,1.23.58,1.85a44.43,44.43,0,0,0,9.53-6.6l.07-.06a47.79,47.79,0,0,1,5.47-3.52,20.14,20.14,0,0,1,17.75-.47,30.16,30.16,0,0,1,5.36,3.06c.23.16,1.2,1,2.06,1.66,4.44,3.62,6.76,5.46,7.94,6.06a28,28,0,0,0,11.22,3.13A24.82,24.82,0,0,0,150,127,56.21,56.21,0,0,1,148.05,120.16Z"/>
          <path class="cls-7" d="M269.93,114.49a23.09,23.09,0,0,1,3.64-6.15,38,38,0,0,0-4.48-2.37,27.54,27.54,0,0,0-23.93.68,37.83,37.83,0,0,0-7.57,5.63,41.25,41.25,0,0,1-5,4c-5,3.2-9.66,4.64-14.11,4.39a20.79,20.79,0,0,1-8.31-2.33c-.92-.52-5-3.84-6.72-5.26-1.55-1.26-2.12-1.73-2.45-2a37.72,37.72,0,0,0-6.62-3.77,27.53,27.53,0,0,0-23.94.68c-.89.46-1.77,1-2.64,1.49a10.21,10.21,0,0,1,.95,2.26,10.71,10.71,0,0,1,.35,3.48c.07.3.13.6.22.89s.14.45.21.68c1.41-.9,2.81-1.74,4.22-2.47a20.17,20.17,0,0,1,17.76-.47,30.88,30.88,0,0,1,5.36,3.06c.22.16,1.2,1,2.06,1.66,4.44,3.62,6.76,5.46,7.94,6.06a27.9,27.9,0,0,0,11.22,3.13c.46,0,.93,0,1.4,0,5.52,0,11.07-1.81,16.92-5.52a45.86,45.86,0,0,0,5.87-4.65,31.84,31.84,0,0,1,6.15-4.64,20.2,20.2,0,0,1,17.76-.47A30.38,30.38,0,0,1,269.93,114.49Z"/>
          <path class="cls-7" d="M353.72,111.71c-1.55-1.27-2.12-1.73-2.45-2a38.06,38.06,0,0,0-6.62-3.78,27.54,27.54,0,0,0-23.93.68c-2.78,1.46-5.47,3.21-8.08,4.91-5.66,3.7-11.05,7.19-17.05,7.68-.36,2.44-.86,4.83-1.41,7.22,8.71,0,15.94-4.73,22.36-8.91,2.58-1.69,5-3.27,7.49-4.57a20.18,20.18,0,0,1,17.75-.47,30.86,30.86,0,0,1,5.36,3.07c.22.16,1.2,1,2.06,1.66,3.1,2.53,5.15,4.17,6.52,5.15.51-2.63,1-5.26,1.45-7.89C355.88,113.47,354.54,112.38,353.72,111.71Z"/>
          <path class="cls-7" d="M400.33,104.43a27.86,27.86,0,0,0-5.76,2.22,48.59,48.59,0,0,0-4.55,2.8,23,23,0,0,0-2.44,1.79,36.07,36.07,0,0,1-9.11,6.08,12.42,12.42,0,0,1-.16,1.35q-.58,3.38-1.21,6.74a39.39,39.39,0,0,0,15.25-8.84l.06-.06a48.47,48.47,0,0,1,5.32-3.44Z"/>
          <path class="cls-6" d="M205.75,128l-2.26-1.84c-1.55-1.26-2.12-1.73-2.45-2a38.65,38.65,0,0,0-6.62-3.77,27.53,27.53,0,0,0-23.94.68c-2.77,1.45-5.47,3.21-8.07,4.91-6.4,4.18-12.46,8.11-19.44,7.73a20.79,20.79,0,0,1-8.32-2.33c-.92-.52-5-3.84-6.72-5.26-1.55-1.26-2.12-1.73-2.45-2s-.75-.51-1.13-.76c1.47,3.62,2.92,7.25,4.26,10.92a8.44,8.44,0,0,1,.43,1.82,17.15,17.15,0,0,0,2.31,1.57,28.17,28.17,0,0,0,11.22,3.14c9.33.52,17-4.48,23.74-8.89,2.58-1.68,5-3.27,7.48-4.56a20.13,20.13,0,0,1,17.76-.47,31.54,31.54,0,0,1,5.36,3.06c.22.16,1.2,1,2.06,1.66,4.44,3.63,6.76,5.46,7.94,6.06.29.16.6.3.9.44C207.19,134.77,206.55,131.36,205.75,128Z"/>
          <path class="cls-6" d="M314.46,123.5l-1.82,1.18c-6.4,4.18-12.44,8.12-19.44,7.74a20.91,20.91,0,0,1-8.31-2.33c-.92-.53-5-3.84-6.72-5.26-1.55-1.27-2.13-1.73-2.46-2a37.7,37.7,0,0,0-6.62-3.78,27.54,27.54,0,0,0-23.93.68,37.83,37.83,0,0,0-7.57,5.63,41.36,41.36,0,0,1-5,4,34.83,34.83,0,0,1-4.1,2.23c.44,2.41.87,4.82,1.32,7.23a40.51,40.51,0,0,0,6.6-3.43,45.86,45.86,0,0,0,5.87-4.65,32.25,32.25,0,0,1,6.15-4.64,20.2,20.2,0,0,1,17.76-.47,31.62,31.62,0,0,1,5.36,3.07c.22.16,1.2,1,2.06,1.66,4.44,3.62,6.75,5.45,7.93,6.06a28.15,28.15,0,0,0,11.22,3.13c7.19.41,13.39-2.48,18.95-5.84C312.62,130.3,313.54,126.9,314.46,123.5Z"/>
          <path class="cls-6" d="M395.34,121l.56-1.86c-.44.2-.89.42-1.33.64a48.59,48.59,0,0,0-4.55,2.8,24.52,24.52,0,0,0-2.44,1.79c-4.37,3.91-11.18,8.48-18.82,8.06a21,21,0,0,1-8.32-2.33c-.92-.53-5-3.85-6.72-5.26-1.55-1.27-2.12-1.73-2.45-2a38.06,38.06,0,0,0-6.62-3.78,28.62,28.62,0,0,0-6.09-1.9c-.59,2.31-1.21,4.62-1.83,6.92a21.5,21.5,0,0,1,5,1.52,30.86,30.86,0,0,1,5.36,3.07c.22.16,1.2,1,2.06,1.66,4.44,3.62,6.76,5.45,7.94,6.06a28.15,28.15,0,0,0,11.22,3.13c7.92.44,16.15-2.92,23.8-9.71A92.87,92.87,0,0,0,395.34,121Z"/>
          <path class="cls-6" d="M94.93,121.1a48.12,48.12,0,0,0-4.56,2.79,23.66,23.66,0,0,0-2.43,1.8c-4.37,3.91-11.19,8.48-18.83,8.05a20.74,20.74,0,0,1-8.31-2.33c-.92-.52-5-3.84-6.73-5.26-1.54-1.26-2.11-1.73-2.44-2A39,39,0,0,0,45,120.42c-.4-.18-.8-.33-1.19-.49l.31,1.06c.93,3.05,2,6,3.21,8.93l.16.1c.22.16,1.2,1,2.06,1.66,4.44,3.63,6.76,5.46,7.93,6.06a28.17,28.17,0,0,0,11.23,3.14c8,.45,16.27-3,24-9.87l.07-.06a47.79,47.79,0,0,1,5.47-3.52,20.49,20.49,0,0,1,3.89-1.55q-1.36-3.31-2.72-6.63A27.12,27.12,0,0,0,94.93,121.1Z"/>
          <path class="cls-7" d="M69.11,146.86a20.79,20.79,0,0,1-8.31-2.33c-.92-.52-5-3.84-6.73-5.26-1.54-1.26-2.11-1.73-2.44-2s-.85-.58-1.28-.85a94.32,94.32,0,0,0,10,15.7A27.79,27.79,0,0,0,68.72,154a26.27,26.27,0,0,0,5.15-.25c-1.23-2.26-2.41-4.53-3.47-6.87C70,146.89,69.54,146.89,69.11,146.86Z"/>
          <path class="cls-7" d="M153.91,144.23A21.81,21.81,0,0,1,143,146.86a20.79,20.79,0,0,1-8.32-2.33c-.92-.52-5-3.84-6.72-5.26-1.55-1.26-2.12-1.73-2.45-2a38.65,38.65,0,0,0-6.62-3.77,27.54,27.54,0,0,0-23.93.68A48.12,48.12,0,0,0,90.37,137l-.65.45c0,.12.11.23.15.35l0,.05c.36.64.65,1.34,1,2,.59,1.15,1.22,2.29,1.85,3.42l.32.57a45.35,45.35,0,0,1,5.17-3.3,20.11,20.11,0,0,1,17.75-.47,30.79,30.79,0,0,1,5.36,3.06c.23.16,1.2,1,2.06,1.66,4.44,3.63,6.76,5.46,7.94,6.06a26.53,26.53,0,0,0,24.91.14C155.46,148.75,154.63,146.5,153.91,144.23Z"/>
          <path class="cls-7" d="M267.06,131.42a27.43,27.43,0,0,0-21.9,1.47,37.83,37.83,0,0,0-7.57,5.63,42.38,42.38,0,0,1-5,4c-5,3.2-9.66,4.63-14.11,4.38a20.79,20.79,0,0,1-8.31-2.33c-.92-.52-5-3.84-6.72-5.26-1.55-1.26-2.12-1.73-2.45-2a38.65,38.65,0,0,0-6.62-3.77,27.63,27.63,0,0,0-20.8-.71c0,.18,0,.34,0,.52,0,.49.24,1.83.15,1.52.09.38.17.76.27,1.14.34,1.3.76,2.58,1.19,3.86a20.17,20.17,0,0,1,16.3.21,31.54,31.54,0,0,1,5.36,3.06c.22.16,1.2,1,2.06,1.66,4.44,3.63,6.76,5.46,7.94,6.06A28.17,28.17,0,0,0,218.13,154c.46,0,.93,0,1.4,0,5.52,0,11.07-1.81,16.92-5.52a45.86,45.86,0,0,0,5.87-4.65,31.78,31.78,0,0,1,6.15-4.63,20,20,0,0,1,15.9-1.19C265.22,135.82,266.11,133.61,267.06,131.42Z"/>
          <path class="cls-7" d="M389.25,136.21a17,17,0,0,0-1.67,1.27c-3.77,3.38-9.37,7.24-15.76,8a44.73,44.73,0,0,1-3,7.24,27.73,27.73,0,0,0,11.57-2.16A93.86,93.86,0,0,0,389.25,136.21Z"/>
          <path class="cls-7" d="M349.2,143.48l.05,0c.29-.52.58-1.05.85-1.59a10.7,10.7,0,0,0,1-2.43c.21-1.11.32-1.42.31-.94a12.42,12.42,0,0,0,0-1.93c0-.18,0-.36,0-.54l-.14-.1a38.06,38.06,0,0,0-6.62-3.78,27.54,27.54,0,0,0-23.93.68c-2.78,1.46-5.47,3.21-8.08,4.91-6.4,4.18-12.45,8.12-19.44,7.74a20.85,20.85,0,0,1-7.86-2.11c-.89,2.21-1.71,4.46-2.5,6.72a27.77,27.77,0,0,0,10,2.52c9.32.52,17-4.48,23.74-8.88,2.58-1.68,5-3.27,7.49-4.56a20.14,20.14,0,0,1,17.75-.48,31.24,31.24,0,0,1,5.36,3.07C347.36,142,348.34,142.78,349.2,143.48Z"/>
          <path class="cls-6" d="M118.86,146.66a27.54,27.54,0,0,0-23.93.68,50.29,50.29,0,0,0-4.56,2.79,23.66,23.66,0,0,0-2.43,1.8c-4.37,3.91-11.19,8.48-18.83,8a16.38,16.38,0,0,1-2.07-.23,93.89,93.89,0,0,0,7.66,7c6.08-1.09,12.2-4.3,18-9.49l.07-.06a47.79,47.79,0,0,1,5.47-3.52A20.14,20.14,0,0,1,116,153.2c.78.34,1.56.74,2.35,1.17a11.07,11.07,0,0,1,1-7.49Z"/>
          <path class="cls-6" d="M205.36,155a10.56,10.56,0,0,1-.32-1.32l-1.55-1.27c-1.55-1.26-2.12-1.73-2.45-2a39,39,0,0,0-6.62-3.77,27.56,27.56,0,0,0-23.94.68c-2.77,1.45-5.47,3.21-8.07,4.91-5.06,3.3-9.9,6.45-15.16,7.43,1.15,1.62,2.31,3.22,3.48,4.82a7.84,7.84,0,0,1,.83,1.46c5.45-1.67,10.3-4.82,14.75-7.73,2.58-1.68,5-3.27,7.48-4.56a20.17,20.17,0,0,1,17.76-.47,31.54,31.54,0,0,1,5.36,3.06c.22.16,1.2,1,2.06,1.66,4.44,3.63,6.76,5.46,7.94,6.06.17.1.36.18.54.27A53.28,53.28,0,0,0,205.36,155Z"/>
          <path class="cls-6" d="M293.07,165.8a11.91,11.91,0,0,1,.88-1.9c1-1.75,1.91-3.57,2.77-5.41a17.14,17.14,0,0,1-3.52.17,20.91,20.91,0,0,1-8.31-2.33c-.92-.53-5-3.84-6.72-5.26-1.55-1.27-2.13-1.73-2.46-2a37.7,37.7,0,0,0-6.62-3.78,27.51,27.51,0,0,0-23.93.69,37.42,37.42,0,0,0-7.57,5.62,41.36,41.36,0,0,1-5,4,38,38,0,0,1-4.28,2.32c.42,2.42.72,4.87,1,7.33a39,39,0,0,0,7.14-3.62,45.86,45.86,0,0,0,5.87-4.65,32.19,32.19,0,0,1,6.15-4.63,20.17,20.17,0,0,1,17.76-.48,31.62,31.62,0,0,1,5.36,3.07c.22.16,1.2,1,2.06,1.66,4.44,3.62,6.75,5.45,7.93,6.06a28.15,28.15,0,0,0,11.22,3.13Z"/>
          <path class="cls-6" d="M373.88,158.22a18.91,18.91,0,0,1-5.12.44,21,21,0,0,1-8.32-2.33c-.92-.53-5-3.85-6.72-5.26-1.55-1.27-2.12-1.73-2.45-2a38.06,38.06,0,0,0-6.62-3.78,28.28,28.28,0,0,0-11.7-2.39c-.65,2.45-1.39,4.88-2.19,7.27a20.75,20.75,0,0,1,11,1.66,30.86,30.86,0,0,1,5.36,3.07c.22.16,1.2,1,2.06,1.66,4.44,3.62,6.76,5.45,7.94,6.06a28.62,28.62,0,0,0,9,2.91A95.41,95.41,0,0,0,373.88,158.22Z"/>
          <path class="cls-7" d="M79.83,170.65Q83.12,173,86.58,175l.19-.11C85.4,173,84,171,82.78,169A31.25,31.25,0,0,1,79.83,170.65Z"/>
          <path class="cls-7" d="M163.13,164.9l-.72.47C156,169.55,150,173.49,143,173.1a20.79,20.79,0,0,1-8.32-2.33c-.92-.52-5-3.85-6.73-5.26-1.54-1.26-2.11-1.72-2.44-2a38.65,38.65,0,0,0-6.62-3.77,27.86,27.86,0,0,0-17.4-1.72c1.32,2.26,2.89,4.35,4.39,6.5A20.81,20.81,0,0,1,116,166.32a30.79,30.79,0,0,1,5.36,3.06c.22.16,1.2,1,2.06,1.66,4.44,3.62,6.76,5.46,7.94,6.06a28.17,28.17,0,0,0,11.22,3.14c9.09.51,16.6-4.23,23.23-8.56A33.65,33.65,0,0,1,163.13,164.9Z"/>
          <path class="cls-7" d="M252.83,163.79c1.76-2.58,3.55-5.15,5.31-7.73a27,27,0,0,0-13,3.08,37.42,37.42,0,0,0-7.57,5.62,41.36,41.36,0,0,1-5,4c-5,3.2-9.67,4.63-14.11,4.38a20.79,20.79,0,0,1-8.31-2.33c-.92-.52-5-3.84-6.73-5.26-1.54-1.26-2.11-1.72-2.44-2a38.65,38.65,0,0,0-6.62-3.77,28.18,28.18,0,0,0-10.83-2.4,21.67,21.67,0,0,0,3.13,7.45,21.85,21.85,0,0,1,4.83,1.49,31.54,31.54,0,0,1,5.36,3.06c.22.16,1.19,1,2.05,1.66,4.44,3.62,6.77,5.46,7.95,6.06a28.08,28.08,0,0,0,11.22,3.14c.46,0,.93,0,1.4,0,5.52,0,11.07-1.82,16.92-5.53a45.86,45.86,0,0,0,5.87-4.65,32.19,32.19,0,0,1,6.15-4.63A20,20,0,0,1,252.83,163.79Z"/>
          <path class="cls-7" d="M334.18,163.19q2.06-3.33,4.05-6.69a27.2,27.2,0,0,0-17.51,2.64c-2.78,1.45-5.47,3.21-8.08,4.91-6.4,4.17-12.44,8.11-19.44,7.73a20.91,20.91,0,0,1-8.31-2.33c-.87-.49-4.49-3.44-6.37-5q-2,3-4,5.92a61.78,61.78,0,0,0,7.1,5.38,28.15,28.15,0,0,0,11.22,3.13c9.32.52,17-4.47,23.74-8.88,2.58-1.68,5-3.27,7.49-4.56A19.85,19.85,0,0,1,334.18,163.19Z"/>
          <path class="cls-7" d="M360.44,169.45c-.48-.28-1.84-1.33-3.27-2.47q-1.83,3.11-3.71,6.17c.4.32.77.61,1.12.87q3.29-2,6.39-4.31Z"/>
          <path class="cls-6" d="M138.84,188.12a28.45,28.45,0,0,1-.75-2.82,22.21,22.21,0,0,1-3.44-1.41c-.92-.52-5-3.84-6.72-5.26-1.55-1.26-2.12-1.72-2.45-2a38.65,38.65,0,0,0-6.62-3.77,27.54,27.54,0,0,0-23.93.68,50.29,50.29,0,0,0-4.56,2.79l-.64.44c2.45,1.32,5,2.55,7.52,3.65.34-.2.67-.38,1-.55a20.14,20.14,0,0,1,17.75-.47,30.79,30.79,0,0,1,5.36,3.06c.23.17,1.2,1,2.06,1.67,1.92,1.56,3.42,2.77,4.62,3.71,2.14.14,4.29.24,6.46.24Z"/>
          <path class="cls-6" d="M275.71,175.35a38.06,38.06,0,0,0-6.62-3.78,27.51,27.51,0,0,0-23.93.69,37.42,37.42,0,0,0-7.57,5.62,41.36,41.36,0,0,1-5,4c-1.11.7-2.19,1.3-3.25,1.83a38.11,38.11,0,0,1,.59,4.45H236l.41-.25a45,45,0,0,0,5.87-4.65,32.19,32.19,0,0,1,6.15-4.63,20.13,20.13,0,0,1,17.76-.47,30.88,30.88,0,0,1,5.36,3.06c.22.16,1.2,1,2.06,1.66,1.64,1.34,3,2.44,4.1,3.31,1.35-2,2.67-4,4-5.94l-3.58-2.9C276.62,176.05,276,175.58,275.71,175.35Z"/>
          <path class="cls-6" d="M351.27,175.35a38.06,38.06,0,0,0-6.62-3.78,27.51,27.51,0,0,0-23.93.69c-2.78,1.45-5.47,3.21-8.08,4.91-2,1.31-4,2.61-6,3.75a7.83,7.83,0,0,1-1.45,3.43q-1.41,1.86-2.76,3.77H305c1.17,0,2.33,0,3.5-.08,2.84-1.49,5.52-3.23,8.06-4.89s5-3.27,7.49-4.56a20.11,20.11,0,0,1,17.75-.47,26.51,26.51,0,0,1,2.66,1.34c2.49-1.15,4.93-2.39,7.31-3.75Z"/>
          <path class="cls-6" d="M207.74,186.53a9.14,9.14,0,0,1-.27-4.69c-1.43-1.13-3.05-2.44-4-3.21-1.55-1.26-2.12-1.72-2.45-2a38.65,38.65,0,0,0-6.62-3.77,27.56,27.56,0,0,0-23.94.68c-2.77,1.45-5.47,3.21-8.07,4.91-1.18.77-2.35,1.53-3.52,2.26a15.23,15.23,0,0,1,.46,2.31c-.3-2.6-.1-1.59.14-.68.09.19.23.46.41.77q1.14,2,2.38,3.9c1.38-.85,2.72-1.73,4-2.58,2.58-1.68,5-3.27,7.48-4.56a20.17,20.17,0,0,1,17.76-.47,31.54,31.54,0,0,1,5.36,3.06c.22.17,1.2,1,2.06,1.67,2.08,1.69,3.67,3,4.92,4h4.28A15.62,15.62,0,0,1,207.74,186.53Z"/>
          <path class="cls-9" d="M340.16,71.15c.46,13.67-3.72,27.38-10.4,39.21-6.8,12.07-16.42,21.17-27.87,28.78-38.75,25.75-88.1,30.37-133.45,28.48-23.67-1-47-3.26-69.06-12.48A173.39,173.39,0,0,1,72.6,141a4.49,4.49,0,0,0-6,6.46,90.65,90.65,0,0,0,72.37,36.21H303.26a91.08,91.08,0,0,0,87.09-65.34L415.5,34.06a11.39,11.39,0,0,0-10.81-14.7H37.5a11.38,11.38,0,0,0-10.8,14.7l5.48,18.36A12.34,12.34,0,0,0,44,61.22"/>
          <path class="cls-7" d="M120.3,186.69l.18.37.71.1Z"/>
          <path class="cls-7" d="M168,188.12h30.48a36.86,36.86,0,0,0-4-2.1,27.56,27.56,0,0,0-23.94.68C169.63,187.14,168.79,187.62,168,188.12Z"/>
          <rect class="cls-8" x="13.93" y="14.45" width="411.61" height="35.27" rx="7.45"/>
          <rect class="cls-8" x="13.93" y="14.45" width="411.61" height="35.27" rx="7.45"/>
          <rect class="cls-10" x="13.93" y="14.45" width="411.61" height="35.27" rx="7.45"/>
          <path class="cls-11" d="M24.38,50.06a.9.9,0,0,1-.89-.91c0-.29.88-29,34.06-35.2a.89.89,0,1,1,.33,1.75C26.16,21.63,25.3,48.06,25.28,49.18A.9.9,0,0,1,24.38,50.06Z"/>
          <path class="cls-11" d="M15.31,20.67a11.46,11.46,0,0,0-1.1,3A43.6,43.6,0,0,1,33,15.7a.89.89,0,0,0,.71-1,1.8,1.8,0,0,0-.08-.21H30.33A45.82,45.82,0,0,0,15.31,20.67Z"/>
          <path class="cls-11" d="M55.85,50.06a.9.9,0,0,1-.89-.91c0-.29.88-29,34.06-35.2a.89.89,0,1,1,.32,1.75c-31.71,5.93-32.58,32.36-32.6,33.48A.9.9,0,0,1,55.85,50.06Z"/>
          <path class="cls-11" d="M87.31,50.06a.9.9,0,0,1-.89-.91c0-.29.88-29,34.06-35.2a.89.89,0,1,1,.33,1.75c-31.76,5.94-32.6,33.2-32.6,33.48A.9.9,0,0,1,87.31,50.06Z"/>
          <path class="cls-11" d="M118.78,50.06a.9.9,0,0,1-.89-.91c0-.29.88-29,34.06-35.2a.89.89,0,0,1,.33,1.75c-31.72,5.93-32.59,32.36-32.61,33.48A.9.9,0,0,1,118.78,50.06Z"/>
          <path class="cls-11" d="M150.24,50.06a.9.9,0,0,1-.89-.91c0-.29.88-29,34.06-35.2a.89.89,0,0,1,1,.71.88.88,0,0,1-.71,1c-31.71,5.93-32.58,32.36-32.6,33.48A.9.9,0,0,1,150.24,50.06Z"/>
          <path class="cls-11" d="M181.71,50.06a.9.9,0,0,1-.89-.91c0-.29.88-29,34.06-35.2a.89.89,0,0,1,.33,1.75c-31.72,5.93-32.59,32.36-32.61,33.48A.89.89,0,0,1,181.71,50.06Z"/>
          <path class="cls-11" d="M213.18,50.06a.9.9,0,0,1-.9-.91c0-.29.89-29,34.06-35.2a.9.9,0,0,1,1,.71.89.89,0,0,1-.72,1c-31.71,5.93-32.58,32.36-32.6,33.48A.9.9,0,0,1,213.18,50.06Z"/>
          <path class="cls-11" d="M244.64,50.06a.9.9,0,0,1-.89-.91c0-.29.88-29,34.06-35.2a.89.89,0,1,1,.33,1.75c-31.77,5.94-32.6,33.2-32.61,33.48A.89.89,0,0,1,244.64,50.06Z"/>
          <path class="cls-11" d="M276.11,50.06a.9.9,0,0,1-.9-.91c0-.29.89-29,34.06-35.2a.9.9,0,0,1,1.05.71.89.89,0,0,1-.72,1C277.89,21.63,277,48.06,277,49.18A.9.9,0,0,1,276.11,50.06Z"/>
          <path class="cls-11" d="M307.57,50.06a.9.9,0,0,1-.89-.91c0-.29.88-29,34.06-35.2a.89.89,0,0,1,.33,1.75c-31.72,5.93-32.58,32.36-32.61,33.48A.89.89,0,0,1,307.57,50.06Z"/>
          <path class="cls-11" d="M339,50.06a.91.91,0,0,1-.9-.91c0-.29.89-29,34.07-35.2a.89.89,0,1,1,.32,1.75c-31.71,5.93-32.58,32.36-32.6,33.48A.9.9,0,0,1,339,50.06Z"/>
          <path class="cls-11" d="M370.5,50.06a.9.9,0,0,1-.89-.91c0-.29.88-29,34.06-35.2A.89.89,0,0,1,404,15.7c-31.76,5.94-32.6,33.2-32.61,33.48A.88.88,0,0,1,370.5,50.06Z"/>
          <path class="cls-11" d="M423.47,19.52a12.36,12.36,0,0,0-1.17-1.43,37.74,37.74,0,0,0-21.23,31.06,1,1,0,0,0,.21.57h1.37a.86.86,0,0,0,.21-.54A35.82,35.82,0,0,1,423.47,19.52Z"/>
          <path class="cls-12" d="M425.54,38V27.53a12.12,12.12,0,0,1-12.12,10.39H26.8c-7.08,0-12.38-5.58-12.87-11.08V38a11.67,11.67,0,0,0,4.15,8.94H421.4A11.69,11.69,0,0,0,425.54,38Z"/>
          <path class="cls-13" d="M75.47,126c-6.64-17.76-12.83-37.16-12.59-56.4l-.77.37C49.34,76.67,52.17,96.1,55,107.48c4.17,17,13.31,31.68,25.79,43.91a61.67,61.67,0,0,0,10.63,8.32A215.43,215.43,0,0,1,75.47,126Z"/>
          <path class="cls-13" d="M109.16,78.94l-1.72-.8c-13.18-6.09-26.63-14.68-40.94-10-.54,19,5.5,38.11,12,55.68a209.27,209.27,0,0,0,19.18,39.33c13.56,6.5,29.09,8.45,44.44,8.52h1.34C121.75,145.8,113.12,112.05,109.16,78.94Z"/>
          <path class="cls-13" d="M167.14,139.73a140.26,140.26,0,0,1-9.38-38c-5.21-2.65-10.51-5.14-15.81-7.6l-29-13.4c4.08,32.64,13,65.94,35.17,90.93,9.18-.19,18.5-1,27.24-3.64,2-.61,4.13-1.31,6.2-2.12A137.64,137.64,0,0,1,167.14,139.73Z"/>
          <path class="cls-13" d="M170.11,137.54A132.69,132.69,0,0,0,185,164.43a28.6,28.6,0,0,0,7.82-5.34c7.46-7.5,7.7-17.71,3.59-26.82-4.93-10.91-16.78-18.13-26.72-24.06-2.64-1.57-5.32-3.06-8-4.5A136.38,136.38,0,0,0,170.11,137.54Z"/>
          <path class="cls-14" d="M356.12,21.15H41c-6.47,0-6.48,6.55,0,6.55H356.12C362.59,27.7,362.6,21.15,356.12,21.15Z"/>
        </g>
      </g>
    </g>
  </g>
</svg>
