<svg xmlns="http://www.w3.org/2000/svg" width="174.96" height="255.7" viewBox="0 0 174.96 255.7">
  <defs>
    <style>
      .cls-1 {
        isolation: isolate;
      }

      .cls-2 {
        opacity: 0.5;
      }

      .cls-3 {
        fill: #ff0;
      }

      .cls-4 {
        fill: #c27005;
      }

      .cls-5 {
        fill: #a85a00;
      }

      .cls-17, .cls-6 {
        opacity: 0.35;
      }

      .cls-11, .cls-15, .cls-16, .cls-6 {
        mix-blend-mode: multiply;
      }

      .cls-7 {
        opacity: 0.65;
      }

      .cls-8 {
        fill: #db7b0d;
      }

      .cls-9 {
        fill: #ffc533;
      }

      .cls-10 {
        fill: #efad1b;
      }

      .cls-11 {
        opacity: 0.66;
      }

      .cls-12 {
        fill: #e2810e;
      }

      .cls-13 {
        fill: #353535;
      }

      .cls-14 {
        fill: #212121;
      }

      .cls-16 {
        opacity: 0.57;
      }

      .cls-18 {
        fill: #ffd880;
      }
    </style>
  </defs>
  <g class="cls-1">
    <g id="Layer_1" data-name="Layer 1">
      <g>
        <path class="cls-2" d="M47,255.7A39.91,39.91,0,0,1,7.16,215.83V127.77A40,40,0,0,1,25.74,94.11v-23a64.06,64.06,0,0,1,64-64h.87a64.05,64.05,0,0,1,64,64V93A40.13,40.13,0,0,1,175,127.77v88.06a39.91,39.91,0,0,1-39.87,39.87ZM112,87.9V71.14A21.47,21.47,0,0,0,90.59,49.7h-.87A21.47,21.47,0,0,0,68.28,71.14V87.9Z"/>
        <path class="cls-3" d="M39.87,248.54A39.91,39.91,0,0,1,0,208.67V120.61A40,40,0,0,1,18.58,87V64a64.06,64.06,0,0,1,64-64h.87a64.05,64.05,0,0,1,64,64V85.86a40.13,40.13,0,0,1,20.39,34.75v88.06a39.91,39.91,0,0,1-39.87,39.87Zm65-167.8V64A21.47,21.47,0,0,0,83.43,42.54h-.87A21.47,21.47,0,0,0,61.12,64V80.74Z"/>
        <g>
          <g>
            <path class="cls-4" d="M126.14,126.77H39.85A8.73,8.73,0,0,1,31.12,118V64A51.51,51.51,0,0,1,82.56,12.53h.87A51.51,51.51,0,0,1,134.87,64V118A8.73,8.73,0,0,1,126.14,126.77ZM48.59,109.3H117.4V64a34,34,0,0,0-34-34h-.87a34,34,0,0,0-34,34Z"/>
            <path class="cls-5" d="M126.14,127.85H39.85A9.82,9.82,0,0,1,30,118V64A52.58,52.58,0,0,1,82.56,11.46h.87A52.58,52.58,0,0,1,136,64V118A9.82,9.82,0,0,1,126.14,127.85ZM82.56,13.61A50.43,50.43,0,0,0,32.19,64V118a7.67,7.67,0,0,0,7.66,7.66h86.29A7.67,7.67,0,0,0,133.8,118V64A50.43,50.43,0,0,0,83.43,13.61Zm34.84,96.77H48.59a1.09,1.09,0,0,1-1.08-1.08V64a35.09,35.09,0,0,1,35.05-35h.87A35.09,35.09,0,0,1,118.48,64V109.3A1.08,1.08,0,0,1,117.4,110.38Zm-67.74-2.15h66.67V64a32.94,32.94,0,0,0-32.9-32.9h-.87A32.94,32.94,0,0,0,49.66,64Z"/>
          </g>
          <g class="cls-6">
            <path class="cls-4" d="M134.86,62.71c0-.14,0-.29,0-.43s0-.56,0-.83l0-.51c0-.25,0-.5,0-.75s0-.36-.05-.54l-.06-.71-.06-.56c0-.22,0-.45-.08-.67s-.05-.38-.07-.57l-.09-.66-.09-.58c0-.21-.07-.43-.11-.65s-.07-.38-.1-.57l-.12-.64-.12-.57c0-.21-.09-.42-.13-.63s-.09-.38-.13-.58l-.15-.6-.15-.59c0-.2-.1-.39-.16-.59s-.1-.39-.16-.58-.11-.4-.17-.59l-.18-.58-.18-.58c-.06-.19-.13-.38-.19-.58s-.13-.37-.19-.56l-.21-.58-.21-.55c-.07-.19-.14-.39-.22-.58l-.21-.54-.24-.58-.22-.52c-.09-.2-.17-.39-.26-.58s-.15-.35-.23-.52l-.27-.57-.24-.5-.29-.58c-.08-.16-.16-.33-.25-.49l-.3-.57-.25-.48c-.11-.19-.22-.38-.32-.57l-.26-.46c-.12-.19-.23-.38-.34-.57l-.27-.45c-.11-.19-.23-.38-.35-.57l-.27-.43-.38-.57-.27-.41-.39-.58-.27-.39-.42-.58-.27-.37-.44-.58-.27-.35-.46-.59-.26-.32-.49-.6-.25-.29-.53-.61c-.07-.09-.15-.17-.23-.26s-.37-.42-.56-.62l-.21-.22-.6-.64-.18-.18c-.21-.23-.43-.45-.65-.67l-.13-.12-.72-.7-.06-.06A51.58,51.58,0,0,0,106.4,18l0,0-1-.48-.07,0-1-.44-.1,0-1-.42-.13-.05-1-.39L102,16l-1-.36-.16-.06-1-.33-.17-.06-1-.31-.19-.06-1-.29-.2,0-1-.27-.2-.05-1-.24-.21-.05-1-.22-.22,0-1-.19-.22,0-1-.17-.23,0-1-.15-.22,0-1-.12-.23,0-1-.1H88c-.67-.06-1.34-.11-2-.15V13A51.52,51.52,0,0,0,41,64V118a8.73,8.73,0,0,0,8.74,8.73h76.36a8.73,8.73,0,0,0,8.73-8.73V64C134.87,63.56,134.87,63.13,134.86,62.71Zm-7.53,46.59H48.59V64a34,34,0,0,1,34-34h.87a31.8,31.8,0,0,1,3.39.17h.09l1,.11A34,34,0,0,1,117.4,64v43.84h9.93Z"/>
          </g>
          <g class="cls-7">
            <path class="cls-8" d="M36.87,80.67a1.61,1.61,0,0,1-1.61-1.61V65.35a1.61,1.61,0,0,1,3.22,0V79.06A1.61,1.61,0,0,1,36.87,80.67Z"/>
          </g>
          <g class="cls-7">
            <path class="cls-8" d="M36.87,59.84a1.61,1.61,0,0,1-1.61-1.6c0-.49,0-12.3,10.59-25a1.61,1.61,0,0,1,2.27-.21,1.63,1.63,0,0,1,.2,2.28c-9.85,11.77-9.84,22.76-9.84,22.87a1.61,1.61,0,0,1-1.59,1.63Z"/>
          </g>
          <g class="cls-6">
            <path class="cls-4" d="M31.12,82.28v18.44l6.69,2.44,10.78,4.29V87.84A73.25,73.25,0,0,1,31.12,82.28Z"/>
            <path class="cls-4" d="M134.87,82.26a72.84,72.84,0,0,1-17.47,5.58V109.3H53.22l13.49,5.38,39.11,2.15,29.05-15Z"/>
          </g>
          <g>
            <rect class="cls-9" x="12.53" y="93.27" width="142.73" height="142.73" rx="27.33"/>
            <path class="cls-10" d="M127.93,237.08H39.87a28.44,28.44,0,0,1-28.41-28.41V120.61A28.44,28.44,0,0,1,39.87,92.2h88.06a28.44,28.44,0,0,1,28.41,28.41v88.06A28.44,28.44,0,0,1,127.93,237.08ZM39.87,94.35a26.29,26.29,0,0,0-26.26,26.26v88.06a26.29,26.29,0,0,0,26.26,26.26h88.06a26.29,26.29,0,0,0,26.26-26.26V120.61a26.29,26.29,0,0,0-26.26-26.26Z"/>
          </g>
          <g class="cls-11">
            <rect class="cls-9" x="29.06" y="109.81" width="109.67" height="109.67" rx="21"/>
            <path class="cls-10" d="M117.73,220.55H50.07A22.1,22.1,0,0,1,28,198.47V130.81a22.1,22.1,0,0,1,22.08-22.08h67.66a22.1,22.1,0,0,1,22.08,22.08v67.66A22.1,22.1,0,0,1,117.73,220.55ZM50.07,110.88a20,20,0,0,0-19.93,19.93v67.66A20,20,0,0,0,50.07,218.4h67.66a20,20,0,0,0,19.93-19.93V130.81a20,20,0,0,0-19.93-19.93Z"/>
          </g>
          <path class="cls-12" d="M117.73,109.81H111a25.17,25.17,0,0,0,27.69,34v-13A21,21,0,0,0,117.73,109.81Z"/>
          <path class="cls-12" d="M33.53,187.49a25.36,25.36,0,0,0-4.47.39v10.59a21,21,0,0,0,21,21h7.65a25.42,25.42,0,0,0,.94-6.86A25.13,25.13,0,0,0,33.53,187.49Z"/>
          <path class="cls-12" d="M138.73,187.86a25.14,25.14,0,0,0-28.48,31.62h7.48a21,21,0,0,0,21-21Z"/>
          <path class="cls-12" d="M29.06,130.81v12.94A25.18,25.18,0,0,0,58.66,119a24.88,24.88,0,0,0-1.74-9.2H50.07A21,21,0,0,0,29.06,130.81Z"/>
          <g>
            <circle class="cls-9" cx="134.43" cy="119.01" r="6.85"/>
            <path class="cls-10" d="M134.43,126.94a7.93,7.93,0,1,1,7.93-7.93A7.94,7.94,0,0,1,134.43,126.94Zm0-13.71a5.78,5.78,0,1,0,5.78,5.78A5.78,5.78,0,0,0,134.43,113.23Z"/>
          </g>
          <g>
            <circle class="cls-9" cx="33.53" cy="212.62" r="6.85" transform="translate(-175.74 162.23) rotate(-67.5)"/>
            <path class="cls-10" d="M33.53,220.55a7.93,7.93,0,1,1,7.93-7.93A7.94,7.94,0,0,1,33.53,220.55Zm0-13.71a5.78,5.78,0,1,0,5.78,5.78A5.79,5.79,0,0,0,33.53,206.84Z"/>
          </g>
          <g>
            <circle class="cls-9" cx="134.43" cy="212.62" r="6.85" transform="translate(-110.97 157.33) rotate(-45)"/>
            <path class="cls-10" d="M134.43,220.55a7.93,7.93,0,1,1,7.93-7.93A7.94,7.94,0,0,1,134.43,220.55Zm0-13.71a5.78,5.78,0,1,0,5.78,5.78A5.79,5.79,0,0,0,134.43,206.84Z"/>
          </g>
          <g>
            <path class="cls-9" d="M92.38,162a2.34,2.34,0,0,1,.87-2.35,15.13,15.13,0,1,0-18.74,0,2.43,2.43,0,0,1,.91,2.39l-5,23.19a10.61,10.61,0,0,0,1.87,8.73,6.82,6.82,0,0,0,5.34,2.67H90.13a6.83,6.83,0,0,0,5.35-2.67,10.61,10.61,0,0,0,1.87-8.73Z"/>
            <path class="cls-10" d="M90.13,197.69H77.66a7.86,7.86,0,0,1-6.18-3.08A11.75,11.75,0,0,1,69.39,185l5-23.19a1.35,1.35,0,0,0-.53-1.31,16.19,16.19,0,1,1,20.07,0,1.27,1.27,0,0,0-.48,1.27l5,23.19a11.71,11.71,0,0,1-2.08,9.63A7.87,7.87,0,0,1,90.13,197.69Zm-6.22-63.95a14,14,0,0,0-8.74,25,3.47,3.47,0,0,1,1.3,3.45l-5,23.19a9.52,9.52,0,0,0,1.65,7.83,5.78,5.78,0,0,0,4.51,2.28H90.13a5.78,5.78,0,0,0,4.52-2.28,9.52,9.52,0,0,0,1.65-7.83l-5-23.19a3.39,3.39,0,0,1,1.25-3.41,14,14,0,0,0-8.23-25.08Z"/>
          </g>
          <g>
            <circle class="cls-9" cx="33.53" cy="119.01" r="6.85"/>
            <path class="cls-10" d="M33.53,126.94A7.93,7.93,0,1,1,41.46,119,7.94,7.94,0,0,1,33.53,126.94Zm0-13.71A5.78,5.78,0,1,0,39.31,119,5.78,5.78,0,0,0,33.53,113.23Z"/>
          </g>
          <g>
            <path class="cls-13" d="M90.08,156.36a10,10,0,1,0-12.39,0,5.81,5.81,0,0,1,2.12,5.76l-4.48,22.78c-.63,2.92.86,5.89,3,5.89H89.52c2.09,0,3.58-3,3-5.89L88,162.1A5.78,5.78,0,0,1,90.08,156.36Z"/>
            <path class="cls-14" d="M89.52,191.84H78.28a3.65,3.65,0,0,1-2.83-1.46,7,7,0,0,1-1.18-5.72l4.48-22.77A4.71,4.71,0,0,0,77,157.18a11.07,11.07,0,1,1,13.72,0,4.68,4.68,0,0,0-1.7,4.66l4.49,22.8a7,7,0,0,1-1.18,5.71A3.65,3.65,0,0,1,89.52,191.84ZM83.9,139.59a8.92,8.92,0,0,0-5.54,15.91,6.84,6.84,0,0,1,2.5,6.82l-4.48,22.77a4.92,4.92,0,0,0,.74,3.94,1.6,1.6,0,0,0,1.16.66H89.52a1.6,1.6,0,0,0,1.16-.66,4.93,4.93,0,0,0,.74-3.92L86.94,162.3a6.78,6.78,0,0,1,2.47-6.78,8.91,8.91,0,0,0-5.22-15.92Z"/>
          </g>
          <g class="cls-15">
            <path class="cls-13" d="M79.16,190.77c.35-5.91,2.65-36.33,12.93-48a10,10,0,1,0-14.4,13.54,5.81,5.81,0,0,1,2.12,5.76l-4.48,22.78c-.63,2.92.86,5.89,3,5.89Z"/>
          </g>
          <g class="cls-16">
            <path class="cls-9" d="M39.87,236h88.06a27.34,27.34,0,0,0,27.34-27.34V192.83C61,193.69,12.53,122.91,12.53,122.91v85.76A27.34,27.34,0,0,0,39.87,236Z"/>
          </g>
          <g class="cls-17">
            <path class="cls-18" d="M34.74,176.16a4.5,4.5,0,1,1-4.47-4.52A4.49,4.49,0,0,1,34.74,176.16Z"/>
          </g>
        </g>
      </g>
    </g>
  </g>
</svg>
