<svg id="Layer_1" data-name="Layer 1" xmlns="http://www.w3.org/2000/svg" width="299.05" height="256.23" viewBox="0 0 299.05 256.23">
  <defs>
    <style>
      .cls-1 {
        opacity: 0.5;
      }

      .cls-2 {
        fill: #ff0;
      }

      .cls-3 {
        fill: #9b0000;
      }

      .cls-4 {
        fill: #ebb386;
      }

      .cls-5 {
        fill: #edd8bf;
      }

      .cls-6 {
        fill: red;
      }

      .cls-7 {
        fill: #ff8989;
      }
    </style>
  </defs>
  <g>
    <path class="cls-1" d="M266.78,256.23a13.07,13.07,0,0,1-6.21-1.57l-29.46-16.4a21.65,21.65,0,0,1-6.59,1.05,19.43,19.43,0,0,1-8-1.7,19,19,0,0,1-4.27-2.64,19.3,19.3,0,0,1-10.35-4.46,19.45,19.45,0,0,1-4.19-1.33,19.07,19.07,0,0,1-4.86-3.16,19.37,19.37,0,0,1-4.44-1.38c-6.49-2.94-10.81-9.15-12.09-17.25-8.48-5.08-14.52-9.07-18-11.89a41.58,41.58,0,0,1-4.72-4.48,42.53,42.53,0,0,1-4.73,4.48c-3.46,2.82-9.49,6.81-18,11.89-1.69,11-8.28,15.53-12.07,17.24a19.21,19.21,0,0,1-4.42,1.38,19.11,19.11,0,0,1-4.88,3.16,19.78,19.78,0,0,1-4.14,1.33,17.82,17.82,0,0,1-4.45,2.85,19.07,19.07,0,0,1-4.08,1.31c-.62.13-1.25.23-1.87.3a19.07,19.07,0,0,1-4.08,2.56l-.32.15a19.47,19.47,0,0,1-8,1.71,21.65,21.65,0,0,1-6.59-1L46.79,254.58a13.06,13.06,0,0,1-10.91.83l-.44-.17c-1.75-.69-7.92-3.51-14-10.77-5.37-6.37-12-17.91-13.21-36.73l0-.35a13.06,13.06,0,0,1,8.88-13.19l.32-.1c1.76-.6,16.25-5.57,32.67-11.72a20.32,20.32,0,0,1,10.26-11.22l.35-.16a18.86,18.86,0,0,1,5.81-1.59,19.12,19.12,0,0,1,8.32-3.94h0a19.3,19.3,0,0,1,4.58-2.9,18.77,18.77,0,0,1,4.5-1.39A19.19,19.19,0,0,1,88.78,158a19.42,19.42,0,0,1,4-1.29,15.79,15.79,0,0,1,2-.28c.29,0,.74-.09,1.27-.12l.76,0a21,21,0,0,1,3.37.28l.78.15c.59.12,1.21.27,1.83.45,2.23-2.95,3.33-7.49,4.64-18.4.92-7.69,1.36-13.35,1.68-17.49.45-5.85.79-10.17,2.19-14.08a30,30,0,0,1,2.42-11c.69-1.62,1.5-3.27,2.29-4.87a74.31,74.31,0,0,0,5-12.21c1.42-4.85,2.52-9.54,3.39-13.31.59-2.52,1.09-4.68,1.6-6.51.16-.58.32-1.13.49-1.72.9-3,2.24-7.55,4.44-23.75-.7-13.48,3-18.43,4.3-20.09l.34-.45A13,13,0,0,1,146,8.16h0a13.09,13.09,0,0,1,7.57,2.44,13,13,0,0,1,7.56-2.44h0a13,13,0,0,1,10.42,5.19l.35.46c1.25,1.65,5,6.6,4.29,20.08,2.2,16.22,3.54,20.73,4.43,23.74.2.67.36,1.2.51,1.73.51,1.87,1,4.11,1.58,6.49.88,3.76,2,8.46,3.4,13.34a74.83,74.83,0,0,0,5,12.17c.81,1.66,1.61,3.3,2.3,4.91a30,30,0,0,1,2.42,10.94c1.4,3.9,1.74,8.23,2.19,14.09.32,4.13.76,9.8,1.68,17.49,1.24,10.35,2.33,15,4.29,17.9a21.56,21.56,0,0,1,6.28-1,19.37,19.37,0,0,1,8,1.71,18.75,18.75,0,0,1,4.83,3.14,19,19,0,0,1,4.54,1.4,19.3,19.3,0,0,1,4.58,2.9,19.42,19.42,0,0,1,3.93,1.28,19,19,0,0,1,4.34,2.72,19,19,0,0,1,6.06,1.62,20.29,20.29,0,0,1,10.72,12c16.34,6.11,30.71,11,32.49,11.65l.29.09A13.06,13.06,0,0,1,299,207.39l0,.34c-1.21,18.83-7.85,30.37-13.22,36.75-6.07,7.22-12.24,10.05-14,10.75l-.51.19A13.07,13.07,0,0,1,266.78,256.23Z"/>
    <path class="cls-2" d="M258.62,248.08a13,13,0,0,1-6.21-1.58L223,230.1a21.73,21.73,0,0,1-6.6,1.06,19.51,19.51,0,0,1-8-1.7,18.93,18.93,0,0,1-4.28-2.65,19.28,19.28,0,0,1-10.35-4.45,19.48,19.48,0,0,1-4.19-1.34,19.16,19.16,0,0,1-4.86-3.16,19.37,19.37,0,0,1-4.44-1.38c-6.49-2.93-10.81-9.14-12.09-17.24-8.48-5.09-14.52-9.08-18-11.89a43.47,43.47,0,0,1-4.72-4.49,44.41,44.41,0,0,1-4.72,4.49c-3.46,2.81-9.5,6.8-18,11.88-1.69,11-8.29,15.53-12.08,17.24a19.28,19.28,0,0,1-4.41,1.38,19.44,19.44,0,0,1-9,4.49,18.53,18.53,0,0,1-4.45,2.86,20,20,0,0,1-4.08,1.3c-.63.13-1.25.24-1.88.31a19.62,19.62,0,0,1-4.07,2.55l-.32.15a19.4,19.4,0,0,1-8,1.72,21.71,21.71,0,0,1-6.59-1.06L38.63,246.43a13,13,0,0,1-10.91.82l-.44-.16c-1.75-.7-7.92-3.52-14-10.77C7.9,230,1.25,218.4.05,199.59l0-.35a13,13,0,0,1,8.88-13.19l.31-.11c1.77-.6,16.25-5.57,32.68-11.72A20.2,20.2,0,0,1,52.16,163l.34-.17a19.14,19.14,0,0,1,5.81-1.59,19.2,19.2,0,0,1,8.33-3.93h0a19,19,0,0,1,9.08-4.3,19.23,19.23,0,0,1,4.86-3.15,19,19,0,0,1,3.95-1.28,14.39,14.39,0,0,1,2-.29c.3,0,.74-.09,1.27-.12l.77,0a19.93,19.93,0,0,1,3.37.29l.77.14c.59.12,1.21.27,1.84.45,2.23-2.95,3.33-7.49,4.63-18.4.92-7.68,1.36-13.35,1.68-17.49.46-5.85.79-10.17,2.19-14.08a30.44,30.44,0,0,1,2.42-11c.7-1.62,1.51-3.28,2.29-4.88a73.67,73.67,0,0,0,5-12.2c1.43-4.85,2.52-9.55,3.4-13.32.58-2.52,1.08-4.68,1.59-6.51.16-.58.32-1.13.5-1.72.89-3,2.23-7.55,4.44-23.74-.71-13.48,3-18.43,4.29-20.1l.34-.45A13.06,13.06,0,0,1,137.84,0h0a13,13,0,0,1,7.56,2.45A13,13,0,0,1,153,0h0a13,13,0,0,1,10.42,5.19l.35.46c1.25,1.66,5,6.6,4.29,20.09,2.21,16.21,3.55,20.72,4.44,23.74.2.66.35,1.19.5,1.73.51,1.86,1,4.1,1.58,6.48.88,3.76,2,8.46,3.4,13.34a74.83,74.83,0,0,0,5,12.17c.82,1.67,1.62,3.3,2.3,4.91a30,30,0,0,1,2.42,10.94c1.4,3.9,1.74,8.23,2.19,14.09.33,4.14.77,9.81,1.69,17.49,1.23,10.35,2.32,15,4.28,17.9a21.6,21.6,0,0,1,6.28-.95,19.11,19.11,0,0,1,12.85,4.84,19.49,19.49,0,0,1,4.53,1.4,19.14,19.14,0,0,1,4.58,2.91,18.92,18.92,0,0,1,8.27,4,19.23,19.23,0,0,1,6.06,1.62,20.36,20.36,0,0,1,10.73,12c16.33,6.11,30.7,11,32.48,11.65l.29.1a13,13,0,0,1,8.88,13.19l0,.33c-1.2,18.83-7.85,30.38-13.22,36.75-6.07,7.22-12.23,10.06-14,10.75l-.51.2A13,13,0,0,1,258.62,248.08Z"/>
    <g>
      <g>
        <g>
          <path class="cls-3" d="M106,178.5c5.24,11.61,4.85,23.1-.86,25.68s-14.59-4.74-19.82-16.35-4.85-23.1.86-25.68S100.76,166.9,106,178.5Z"/>
          <path d="M102.65,205.13c-5.9,0-13.19-7-17.74-17.12a38.16,38.16,0,0,1-3.71-16.42c.17-5,1.87-8.51,4.79-9.83a6.41,6.41,0,0,1,2.66-.56c5.89,0,13.19,7.05,17.74,17.12a38.52,38.52,0,0,1,3.71,16.42c-.17,5-1.87,8.52-4.8,9.84A6.48,6.48,0,0,1,102.65,205.13Zm-14-43.06a5.48,5.48,0,0,0-2.3.48c-5.49,2.47-5.78,13.73-.65,25.1,4.34,9.63,11.47,16.61,17,16.61a5.66,5.66,0,0,0,2.3-.47c5.48-2.48,5.77-13.74.65-25.11C101.25,169.05,94.13,162.07,88.65,162.07Z"/>
        </g>
        <g>
          <path class="cls-3" d="M77.88,191.48c5.23,11.6,4.85,23.1-.87,25.68s-14.58-4.75-19.82-16.35-4.84-23.11.87-25.68S72.64,179.87,77.88,191.48Z"/>
          <path d="M74.54,218.11c-5.9,0-13.19-7.05-17.74-17.13a38.15,38.15,0,0,1-3.71-16.41c.17-5,1.87-8.52,4.79-9.84a6.4,6.4,0,0,1,2.66-.55c5.89,0,13.19,7,17.73,17.12A38.16,38.16,0,0,1,82,207.72c-.16,5-1.87,8.51-4.79,9.83A6.36,6.36,0,0,1,74.54,218.11ZM60.54,175a5.48,5.48,0,0,0-2.3.48c-5.49,2.48-5.78,13.74-.65,25.11,4.34,9.62,11.47,16.61,17,16.61a5.54,5.54,0,0,0,2.3-.48c5.48-2.47,5.77-13.74.65-25.1C73.15,182,66,175,60.54,175Z"/>
        </g>
        <g>
          <path class="cls-3" d="M87.93,187.26c5.24,11.61,4.85,23.1-.86,25.68s-14.59-4.74-19.82-16.35-4.85-23.1.86-25.68S82.7,175.65,87.93,187.26Z"/>
          <path d="M84.59,213.89c-5.89,0-13.19-7-17.73-17.12a38.39,38.39,0,0,1-3.72-16.42c.17-5,1.88-8.52,4.8-9.83a6.36,6.36,0,0,1,2.65-.56c5.9,0,13.19,7,17.74,17.12A38.19,38.19,0,0,1,92,203.5c-.17,5-1.87,8.52-4.79,9.83A6.41,6.41,0,0,1,84.59,213.89Zm-14-43.06a5.7,5.7,0,0,0-2.3.47c-2.6,1.18-4.12,4.4-4.28,9.08a37.46,37.46,0,0,0,3.63,16C72,206,79.11,213,84.59,213a5.48,5.48,0,0,0,2.3-.48c2.61-1.17,4.13-4.39,4.29-9.07a37.31,37.31,0,0,0-3.64-16C83.2,177.81,76.07,170.83,70.59,170.83Z"/>
        </g>
        <g>
          <path class="cls-3" d="M96.69,183c5.24,11.61,4.85,23.11-.86,25.68S81.24,204,76,192.37s-4.85-23.1.86-25.68S91.46,171.44,96.69,183Z"/>
          <path d="M93.35,209.67c-5.9,0-13.19-7-17.74-17.12a38.31,38.31,0,0,1-3.71-16.42c.17-5,1.87-8.51,4.79-9.83a6.41,6.41,0,0,1,2.66-.56c5.9,0,13.19,7,17.74,17.12a38.52,38.52,0,0,1,3.71,16.42c-.17,5-1.87,8.52-4.79,9.84A6.56,6.56,0,0,1,93.35,209.67Zm-14-43.06a5.51,5.51,0,0,0-2.3.48c-5.49,2.47-5.78,13.73-.65,25.1,4.34,9.63,11.47,16.62,16.95,16.62a5.67,5.67,0,0,0,2.3-.48c2.6-1.18,4.12-4.4,4.28-9.08a37.46,37.46,0,0,0-3.63-16C92,173.6,84.83,166.61,79.35,166.61Z"/>
        </g>
        <g>
          <path class="cls-4" d="M13.5,198.73s66.17-22.49,82.61-33.52c11.46-7.69,14.16-13.08,16.54-33s1.62-26.16,3.78-29.95c.43-.75-.43-4.32,1.52-8.86s5.4-10.24,7.85-18.6,3.89-15.85,5-20,3.1-8.5,6.67-37.91c0,0,6.7-1.84,7.78,6.6.54,4.54-.33,11-.22,13.4s-.16,10.27-.37,12,0,3.3.32,6.33.59,11.57,0,14.22c-.44,2,.21,6-.08,10-.26,3.61-.68,5.55-.54,6.67.24,1.81,1.3,10.43-.25,15.21,0,0,1.44,1.73,1.08,9.08s-.14,15-.14,17.44,0,16.52-.25,22.27c-.44,9.73-4.54,20.22-12.65,26.82S99.46,197.1,99.46,197.1L32.24,234.55S15.38,228.06,13.5,198.73Z"/>
          <path d="M32.28,235l-.19-.07c-.18-.07-4.37-1.72-8.84-7-4.11-4.88-9.2-13.9-10.18-29.17l0-.33.31-.1c.67-.23,66.31-22.6,82.51-33.47,11.38-7.64,14-12.83,16.35-32.67,1-8,1.4-13.77,1.73-18,.51-6.47.76-9.73,2.11-12.08a5.25,5.25,0,0,0,.09-1.33,18.36,18.36,0,0,1,1.4-7.49c.57-1.33,1.28-2.78,2-4.32a86.15,86.15,0,0,0,5.81-14.23c1.53-5.22,2.67-10.12,3.58-14.06.55-2.36,1-4.4,1.46-6,.13-.48.28-1,.43-1.48,1.22-4.13,3.07-10.36,6.23-36.37l0-.29.28-.08a7.43,7.43,0,0,1,1.62-.18c2.17,0,5.91.93,6.71,7.14a57.36,57.36,0,0,1-.07,9.63c-.1,1.6-.18,3-.14,3.81.11,2.47-.17,10.34-.39,12.08a19.85,19.85,0,0,0,.15,4.38c.06.56.12,1.17.18,1.85.27,3.05.61,11.62,0,14.35a20,20,0,0,0-.07,4.3,50,50,0,0,1,0,5.62c-.12,1.55-.26,2.8-.37,3.8a14.25,14.25,0,0,0-.18,2.78c.4,3.09,1.17,10.68-.2,15.2.39.66,1.34,3,1,9.17-.29,5.81-.21,11.73-.17,15.27,0,.91,0,1.64,0,2.15v.09c0,6.16,0,17.25-.25,22.2-.48,10.86-5.27,21-12.81,27.13-8,6.55-32.58,20.13-32.82,20.26ZM14,199c1,14.83,6,23.59,10,28.33a24.9,24.9,0,0,0,8.31,6.71l67-37.34c.24-.14,24.71-13.68,32.69-20.18,7.35-6,12-15.88,12.49-26.5.22-4.93.26-16,.26-22.16v-.09c0-.51,0-1.24,0-2.14,0-3.55-.12-9.48.16-15.32.34-7-1-8.78-1-8.79l-.14-.18.06-.23c1.41-4.32.63-11.94.24-15a13.83,13.83,0,0,1,.17-3c.11-1,.25-2.23.36-3.76a48.27,48.27,0,0,0,0-5.52,20.71,20.71,0,0,1,.1-4.53c.56-2.6.23-11.16,0-14.08-.06-.68-.12-1.29-.18-1.84a19.7,19.7,0,0,1-.14-4.58c.2-1.67.48-9.56.37-11.93,0-.87,0-2.28.15-3.9a57.65,57.65,0,0,0,.07-9.47c-.68-5.28-3.55-6.39-5.85-6.39a6.7,6.7,0,0,0-1.11.1c-3.14,25.83-5,32.07-6.22,36.2-.15.52-.29,1-.42,1.47-.43,1.56-.91,3.59-1.45,5.94-.92,4-2.07,8.86-3.6,14.1a87.47,87.47,0,0,1-5.86,14.38c-.75,1.52-1.45,3-2,4.27a17.59,17.59,0,0,0-1.32,7.16,4.11,4.11,0,0,1-.21,1.75c-1.25,2.19-1.5,5.37-2,11.72-.34,4.26-.79,10.1-1.74,18.06-2.39,19.95-5.2,25.55-16.73,33.29C80.64,176.11,18.94,197.32,14,199Z"/>
        </g>
        <path class="cls-5" d="M18.36,217.75a56.6,56.6,0,0,1-4.18-18.57c6-2.05,66.7-23,82.29-33.43,11.6-7.79,14.43-13.41,16.82-33.44,1-8,1.41-13.81,1.74-18.07.49-6.32.74-9.49,2-11.63a4.17,4.17,0,0,0,.23-1.86,17.51,17.51,0,0,1,1.31-7.08c.56-1.3,1.26-2.74,2-4.26A87.27,87.27,0,0,0,126.43,75c1.53-5.26,2.68-10.17,3.6-14.12.54-2.35,1-4.38,1.44-5.93.13-.47.28-1,.43-1.47.91-3.09,2.2-7.42,4.13-20.47,0,.7.59-7.65,1.81-12.4.92-3.56,1.9-3.78,2.23-3.17,1.29,2.36.72,23.9.62,24.76a67,67,0,0,0-.08,6.84c.26,2.92,0,18,.1,19.9.07,1.69-.78,8-1,11.35-.22,3.56-1.51,12.47-2.3,14.9,0,0-.89,2.66-1.23,9.5-.28,5.85-.14,17.57-.14,17.57,0,10.63-.09,18.5-.25,22.15-.47,10.55-5.11,20.4-12.42,26.34-8,6.48-32.41,20-32.66,20.15,0,0-38.91,21.5-51.77,28.85C34.45,222.32,23.23,228.94,18.36,217.75Z"/>
        <path d="M126.55,110.05a29.47,29.47,0,0,1,1-3.68,22.88,22.88,0,0,1,1.48-3.56l.25-.43c.08-.13.16-.26.23-.4s.3-.54.44-.82c.27-.56.53-1.13.76-1.71a24,24,0,0,0,1.14-3.55c.06-.3.12-.61.17-.91,0-.15.05-.3.07-.45l.05-.48.26-1.89L133,88.4l1.1-7.53q1.14-7.53,2.32-15.05c.19-1.25.4-2.5.61-3.75.11-.63.21-1.25.33-1.89,0-.08,0-.16.06-.26l0-.22.11-.46.19-.92c.49-2.48.95-5,1.42-7.47l.05-.24.22-.08h0a3.33,3.33,0,0,1,.55-.16,5.21,5.21,0,0,1,.55-.08,4.14,4.14,0,0,1,1.11.06,4,4,0,0,1,2,1,5.74,5.74,0,0,1,1.22,1.76,10.1,10.1,0,0,1,.65,2,.43.43,0,0,1-.84.2h0a10,10,0,0,0-.59-1.8,4.85,4.85,0,0,0-1-1.5,3.1,3.1,0,0,0-1.52-.79,3.26,3.26,0,0,0-.88-.05l-.44.07a2.22,2.22,0,0,0-.41.11h0L140,51c-.42,2.51-.86,5-1.34,7.5l-.19.94-.1.48-.06.23,0,.21c-.12.61-.22,1.24-.32,1.87L137.35,66q-1.18,7.51-2.32,15l-1.17,7.52-.56,3.76L133,94.18l-.06.46c0,.17-.05.33-.08.49,0,.32-.12.64-.19,1a24.38,24.38,0,0,1-1.21,3.68c-.25.59-.51,1.18-.8,1.75-.15.29-.3.58-.46.86s-.17.29-.26.42l-.23.4c-.3.53-.57,1.09-.83,1.66s-.51,1.15-.76,1.73c-.5,1.16-1,2.33-1.5,3.49a.06.06,0,0,1-.07,0A0,0,0,0,1,126.55,110.05Z"/>
        <path d="M144.65,38a15.65,15.65,0,0,0-.26-3.12,9.61,9.61,0,0,0-1-2.91,4.49,4.49,0,0,0-2.09-2,5,5,0,0,0-2.92-.26h0l.35-.34q-1,4.77-1.88,9.54c-.3,1.6-.59,3.19-.87,4.78-.13.8-.26,1.6-.37,2.39s-.19,1.6-.3,2.41q-.6,4.84-1.39,9.66c-.27,1.6-.55,3.2-.87,4.8s-.66,3.19-1.1,4.78c-.11.39-.23.8-.35,1.17s-.21.77-.3,1.15c-.19.78-.34,1.57-.49,2.36-.29,1.59-.55,3.2-.86,4.8a53.51,53.51,0,0,1-2.65,9.43,48.51,48.51,0,0,1-2,4.48c-.37.73-.76,1.45-1.16,2.16a5.65,5.65,0,0,0-.42,1,8.56,8.56,0,0,0-.25,1.14,36.2,36.2,0,0,0-.2,4.8,24.11,24.11,0,0,1-.43,4.87,0,0,0,0,1-.06,0s0,0,0,0a35.68,35.68,0,0,0,0-4.85c0-.81-.09-1.62-.1-2.44a17.28,17.28,0,0,1,.11-2.48,7.21,7.21,0,0,1,.72-2.46c.39-.7.77-1.42,1.13-2.14.72-1.44,1.36-2.91,1.94-4.41a53.31,53.31,0,0,0,2.54-9.3c.3-1.59.54-3.19.83-4.8.14-.8.29-1.6.48-2.41.1-.4.2-.8.31-1.2s.23-.77.34-1.16c.82-3.1,1.4-6.3,1.93-9.49s1-6.4,1.39-9.61c.11-.8.18-1.6.3-2.43s.25-1.61.39-2.41c.29-1.6.59-3.2.9-4.79q.94-4.78,2-9.55l.07-.29.28-.05h0a6,6,0,0,1,3.43.33,4.82,4.82,0,0,1,1.45,1,6.34,6.34,0,0,1,1,1.39,10.46,10.46,0,0,1,1.09,3.17,16.68,16.68,0,0,1,.27,3.31.45.45,0,0,1-.44.43.44.44,0,0,1-.43-.44h0Z"/>
        <path d="M116.93,102a44.51,44.51,0,0,1,.33,5.15q0,1.29,0,2.58c0,.86-.09,1.72-.19,2.58,0,.43-.11.86-.15,1.27s-.06.81-.06,1.23a19.16,19.16,0,0,0,.21,2.49c.25,1.67.66,3.32,1,5,0,0,0,0,0,.05a.05.05,0,0,1,0,0,34.06,34.06,0,0,1-1.59-4.89,17.2,17.2,0,0,1-.38-2.59c0-.44,0-.88,0-1.33s.09-.85.11-1.27c.13-1.68.15-3.38.14-5.07,0-.84,0-1.69-.08-2.54s-.08-1.69-.14-2.53h0a.44.44,0,0,1,.41-.46A.43.43,0,0,1,116.93,102Z"/>
        <path d="M144.59,101.43a12.78,12.78,0,0,1-1.05,1.81,14.36,14.36,0,0,1-1.28,1.61,10.77,10.77,0,0,1-3.25,2.44,0,0,0,0,1,0,0s0,0,0,0a10.53,10.53,0,0,0,2.92-2.68,14.64,14.64,0,0,0,1.07-1.66,12.74,12.74,0,0,0,.81-1.77v0a.44.44,0,0,1,.56-.26.43.43,0,0,1,.26.55S144.59,101.42,144.59,101.43Z"/>
        <path d="M144.71,102.18c-.32,1-.67,1.93-1.06,2.88s-.82,1.86-1.3,2.76a21.14,21.14,0,0,1-1.59,2.61,11.24,11.24,0,0,1-2.07,2.23,0,0,0,0,1-.05,0s0,0,0-.05a10.85,10.85,0,0,0,1.89-2.33,22.35,22.35,0,0,0,1.4-2.65c.41-.92.77-1.85,1.09-2.8s.62-1.91.85-2.87h0a.42.42,0,0,1,.52-.32.43.43,0,0,1,.31.53Z"/>
        <path d="M141.48,85.83q.75-.09,1.47-.24l.71-.19a2.1,2.1,0,0,0,.58-.26.44.44,0,0,1,.62.09.44.44,0,0,1-.09.61.24.24,0,0,1-.11.06h0a2.81,2.81,0,0,1-.85.16c-.27,0-.53,0-.78,0-.52,0-1-.07-1.52-.13,0,0-.06,0,0-.07A0,0,0,0,1,141.48,85.83Z"/>
        <path d="M142.22,69.87c.47,0,.93-.09,1.38-.17a6.37,6.37,0,0,0,.66-.16,1.3,1.3,0,0,0,.5-.23.44.44,0,0,1,.63,0,.43.43,0,0,1,0,.63l-.13.1-.08,0a1.39,1.39,0,0,1-.44.12l-.39,0a5.82,5.82,0,0,1-.73,0,12.93,12.93,0,0,1-1.41-.2s-.06,0-.05-.07A.05.05,0,0,1,142.22,69.87Z"/>
        <path d="M124.78,112.69c-.11.74-.22,1.48-.29,2.2a8.26,8.26,0,0,0,0,2.11,11.58,11.58,0,0,0,.58,2.06c.25.68.55,1.38.76,2.11a.08.08,0,0,1,0,.09.08.08,0,0,1-.08,0,13.61,13.61,0,0,1-1.26-1.9,6.89,6.89,0,0,1-.79-2.2,5.87,5.87,0,0,1,.13-2.37,7.44,7.44,0,0,1,.86-2.13.07.07,0,0,1,.09,0s0,0,0,.06Z"/>
        <g>
          <path class="cls-6" d="M137.84,13.77s4.61,6.2-1.44,13.34C136.4,27.11,135.39,17,137.84,13.77Z"/>
          <path d="M136.07,28.16l-.1-1c0-.42-1-10.3,1.52-13.64l.35-.46.35.46c.05.07,4.74,6.56-1.46,13.88Zm1.77-13.58c-1.48,2.8-1.26,8.91-1.1,11.4C140.66,20.67,138.72,16.12,137.84,14.58Z"/>
        </g>
        <g>
          <path class="cls-6" d="M138.49,26.39S141.66,34.24,136,41C136,41,134.88,30.93,138.49,26.39Z"/>
          <path d="M135.72,42l-.11-1c-.05-.42-1.13-10.26,2.54-14.88l.46-.58.28.68c0,.08,3.2,8.18-2.52,15Zm2.62-14.65c-2.26,3.65-2.12,9.94-2,12.46A14.7,14.7,0,0,0,138.34,27.34Z"/>
        </g>
        <g>
          <path class="cls-6" d="M139.64,46.86a9.57,9.57,0,0,1,1.59,6.77,16.88,16.88,0,0,1-3.39,6.7S137.48,50.6,139.64,46.86Z"/>
          <path d="M137.45,61.45l0-1.1c0-.4-.34-9.9,1.86-13.71l.33-.58.39.54a10,10,0,0,1,1.66,7.12,17.24,17.24,0,0,1-3.48,6.9Zm2.23-13.7c-1.31,3.06-1.44,8.81-1.43,11.33a15.33,15.33,0,0,0,2.55-5.53A8.78,8.78,0,0,0,139.68,47.75Z"/>
        </g>
        <g>
          <g>
            <path class="cls-6" d="M79.89,205.93c-.2,3-1.17,5.63-2.5,6.69a2,2,0,0,1-.66.39,2,2,0,0,1-.75-.07c-4.67-1.84-9.68-7.19-13-14.45-3.68-8.17-4.09-16.37-1.5-20.91a.53.53,0,0,1,.26-.25c.25-.12,1.32-.37,4.77,1.36l.1,0c.4-.26.8-.53,1.22-.78a16.5,16.5,0,0,0-4.41-2.65h0l-.37-.13h0a6.92,6.92,0,0,0-5.17,0c-5.72,2.58-6.1,14.07-.87,25.68s14.11,18.92,19.82,16.35a7.26,7.26,0,0,0,2.79-2.7,15.63,15.63,0,0,0,1.74-8.6Z"/>
            <path d="M74.39,218.18h0c-5.89,0-13.19-7-17.73-17.13A38.15,38.15,0,0,1,53,184.64c.16-5,1.87-8.52,4.79-9.84a7.45,7.45,0,0,1,5.49-.05l.39.15.83.31,0,0a17.47,17.47,0,0,1,3.72,2.37l.48.39-.53.32c-.24.14-.47.29-.7.44l-.52.34-.2.13-.31-.15a10.26,10.26,0,0,0-4.07-1.4,1,1,0,0,0-.34,0l-.07.1c-2.57,4.5-2,12.75,1.54,20.49,3.11,6.91,8,12.36,12.72,14.23a2.52,2.52,0,0,0,.43.05h.07a1.54,1.54,0,0,0,.48-.31c1.23-1,2.15-3.49,2.33-6.37l0-.41h2.33l0,.41A16,16,0,0,1,80,214.73l0,0a7.39,7.39,0,0,1-3,2.86A6.41,6.41,0,0,1,74.39,218.18Zm-14-43.06a5.7,5.7,0,0,0-2.3.47c-2.6,1.18-4.12,4.4-4.28,9.08a37.49,37.49,0,0,0,3.63,16c4.35,9.62,11.47,16.61,17,16.61h0a5.48,5.48,0,0,0,2.3-.48,6.6,6.6,0,0,0,2.6-2.52A15,15,0,0,0,81,206.37h-.69c-.26,3-1.25,5.49-2.63,6.59a2.14,2.14,0,0,1-.84.47,1,1,0,0,1-.25,0,2.56,2.56,0,0,1-.75-.12c-4.93-1.94-10-7.56-13.19-14.67-3.66-8.11-4.24-16.48-1.49-21.3a1.06,1.06,0,0,1,.47-.44,1.63,1.63,0,0,1,.68-.12,11.2,11.2,0,0,1,4.33,1.43l.29-.2.21-.13a15.57,15.57,0,0,0-3.81-2.2L63,175.6l-.07,0A7.94,7.94,0,0,0,60.39,175.12Z"/>
          </g>
          <path class="cls-7" d="M74.39,215.58c-4,0-10.8-5.46-15.37-15.59-5.06-11.22-4.18-21-.21-22.82a3.63,3.63,0,0,1,.58-.21c-2.74,5.34-2.11,14.06,1.66,22.42C64.49,207,69.77,212.82,75.19,215a3.59,3.59,0,0,0,1,.22l-.18.09a3.74,3.74,0,0,1-1.59.32Z"/>
          <g>
            <path class="cls-6" d="M89.87,204.28a7.37,7.37,0,0,1-2.1,4,1.79,1.79,0,0,1-.67.4,2,2,0,0,1-.74-.07c-4.67-1.84-9.68-7.19-13-14.46-3.68-8.16-4.09-16.37-1.5-20.9a.55.55,0,0,1,.26-.26c.25-.11,1.32-.36,4.77,1.36l.09,0c.41-.26.81-.54,1.23-.79A16.19,16.19,0,0,0,73.84,171h0l-.37-.13h0a7,7,0,0,0-5.18,0c-5.71,2.58-6.09,14.08-.86,25.68s14.11,18.93,19.82,16.35A7.31,7.31,0,0,0,90,210.21a14.54,14.54,0,0,0,1.71-5.93Z"/>
            <path d="M84.77,213.85h0c-5.89,0-13.19-7-17.73-17.12a38.33,38.33,0,0,1-3.72-16.42c.17-5,1.88-8.51,4.8-9.83a7.4,7.4,0,0,1,5.49,0l.39.14.71.27,0,0a17.7,17.7,0,0,1,3.84,2.43l.48.38-.53.32-.7.45c-.17.11-.34.23-.52.33l-.2.13-.31-.15a10.26,10.26,0,0,0-4.07-1.4.88.88,0,0,0-.34.05l-.07.1c-2.57,4.5-2,12.74,1.54,20.49,3.11,6.91,8,12.36,12.72,14.22a1.64,1.64,0,0,0,.42.06H87a1.39,1.39,0,0,0,.48-.3,7.12,7.12,0,0,0,2-3.79l.08-.33h2.69l0,.47a15.08,15.08,0,0,1-1.76,6.1l0,0a7.46,7.46,0,0,1-3,2.86A6.56,6.56,0,0,1,84.77,213.85Zm-14-43.06a5.54,5.54,0,0,0-2.3.48c-5.48,2.47-5.77,13.74-.65,25.1C72.17,206,79.29,213,84.77,213h0a5.48,5.48,0,0,0,2.3-.48A6.59,6.59,0,0,0,89.66,210a14.11,14.11,0,0,0,1.62-5.28H90.21A7.45,7.45,0,0,1,88,208.63a2.13,2.13,0,0,1-.84.48,1.06,1.06,0,0,1-.26,0,2.55,2.55,0,0,1-.74-.11c-4.93-1.94-10-7.57-13.19-14.68-3.66-8.11-4.24-16.47-1.49-21.3a1.06,1.06,0,0,1,.47-.44,1.82,1.82,0,0,1,.68-.11A11.31,11.31,0,0,1,77,173.91l.3-.19.2-.14a15.57,15.57,0,0,0-3.81-2.2l-.29-.11-.06,0h0A7.92,7.92,0,0,0,70.77,170.79Z"/>
          </g>
          <path class="cls-7" d="M84.77,211.26c-4,0-10.8-5.47-15.37-15.6-5.06-11.22-4.18-21-.22-22.81a3.19,3.19,0,0,1,.59-.21C67,178,67.66,186.69,71.43,195.05c3.44,7.62,8.72,13.44,14.14,15.58a3.9,3.9,0,0,0,1,.21l-.18.09a3.74,3.74,0,0,1-1.59.33Z"/>
          <g>
            <path class="cls-6" d="M90,164.28a.3.3,0,0,0-.12.21Z"/>
            <path d="M89.46,166.06l0-1.57a.69.69,0,0,1,.29-.55l1.83-1.4Zm.74-1.57.1.13s0,0,0-.13Z"/>
          </g>
          <g>
            <path class="cls-6" d="M98.49,199.59a7.92,7.92,0,0,1-2.21,4.52,2,2,0,0,1-.67.4,1.93,1.93,0,0,1-.74-.07c-4.67-1.84-9.69-7.19-13-14.46-3.69-8.16-4.1-16.37-1.51-20.9a.59.59,0,0,1,.26-.26c.26-.11,1.32-.36,4.78,1.36l.09,0c.41-.26.8-.54,1.22-.79a16.3,16.3,0,0,0-4.4-2.64h0l-.36-.14h0a6.93,6.93,0,0,0-5.17,0c-5.71,2.58-6.1,14.08-.87,25.68S90,211.3,95.76,208.72a7.23,7.23,0,0,0,2.78-2.7,14.7,14.7,0,0,0,1.75-6.43Z"/>
            <path d="M93.28,209.67h0c-5.9,0-13.19-7-17.74-17.12a38.31,38.31,0,0,1-3.71-16.42c.17-5,1.87-8.51,4.79-9.83a7.4,7.4,0,0,1,5.49-.05l.4.14.66.25,0,0A17.61,17.61,0,0,1,87,169.11l.48.39-.53.31c-.23.14-.46.3-.69.45l-.52.33-.2.13-.32-.15a10.21,10.21,0,0,0-4.07-1.4.81.81,0,0,0-.33.05.44.44,0,0,0-.08.1c-2.56,4.49-2,12.74,1.54,20.49,3.12,6.91,8,12.36,12.73,14.22a1.5,1.5,0,0,0,.42.06h.07a1.48,1.48,0,0,0,.49-.3,7.54,7.54,0,0,0,2-4.27l.07-.35h2.61l0,.45a15,15,0,0,1-1.79,6.62l0,0a7.41,7.41,0,0,1-3,2.86A6.51,6.51,0,0,1,93.28,209.67Zm-14-43.06a5.46,5.46,0,0,0-2.29.48c-5.49,2.47-5.78,13.73-.65,25.1,4.34,9.63,11.47,16.61,17,16.62h0a5.71,5.71,0,0,0,2.3-.48,6.73,6.73,0,0,0,2.59-2.52A14.18,14.18,0,0,0,99.83,200h-1a8,8,0,0,1-2.29,4.43,2.09,2.09,0,0,1-.85.48.94.94,0,0,1-.25,0,2.5,2.5,0,0,1-.74-.11c-4.93-1.94-10-7.57-13.2-14.68-3.66-8.11-4.24-16.47-1.48-21.3a1,1,0,0,1,.46-.44,1.9,1.9,0,0,1,.68-.11,11.26,11.26,0,0,1,4.33,1.42l.3-.19.2-.14a15.21,15.21,0,0,0-3.81-2.2l-.3-.11,0,0h0A7.83,7.83,0,0,0,79.27,166.61Z"/>
          </g>
          <path class="cls-7" d="M93.28,207.08c-4,0-10.81-5.47-15.37-15.6-5.06-11.22-4.18-21-.22-22.81a3,3,0,0,1,.59-.21c-2.74,5.34-2.11,14,1.66,22.41,3.43,7.62,8.72,13.44,14.13,15.58a4.1,4.1,0,0,0,1,.21l-.17.09a3.8,3.8,0,0,1-1.59.33Z"/>
          <g>
            <path class="cls-6" d="M109.56,191.46c-.37.2-.87.43-1.39.67-.06,3.37-1.09,6.3-2.52,7.44a1.87,1.87,0,0,1-.67.4,2.14,2.14,0,0,1-.74-.07c-4.67-1.84-9.69-7.19-13-14.46-3.68-8.16-4.1-16.37-1.51-20.9a.91.91,0,0,1,.32-.27c.12-.07,1.26-.35,4.72,1.37l.09.05c.41-.26.8-.54,1.22-.79a16.15,16.15,0,0,0-4.4-2.64h0l-.36-.14h0a6.93,6.93,0,0,0-5.17,0c-5.71,2.58-6.1,14.08-.86,25.68s14.1,18.93,19.82,16.35a7.16,7.16,0,0,0,2.78-2.7C109.51,198.47,109.93,195.58,109.56,191.46Z"/>
            <path d="M102.65,205.13h0c-5.9,0-13.19-7-17.74-17.12a38.16,38.16,0,0,1-3.71-16.42c.17-5,1.87-8.51,4.79-9.83a7.35,7.35,0,0,1,5.49,0l.4.14.78.3,0,0a17.49,17.49,0,0,1,3.76,2.4l.49.39-.54.31c-.23.14-.47.3-.69.45l-.52.33-.2.13-.25-.12-.07,0a10.16,10.16,0,0,0-4.1-1.39.8.8,0,0,0-.23,0,.38.38,0,0,0-.15.12c-2.57,4.49-1.95,12.74,1.54,20.49,3.12,6.91,8,12.36,12.73,14.22a1.61,1.61,0,0,0,.42,0h.07a1.73,1.73,0,0,0,.49-.3c1.35-1.08,2.3-3.94,2.36-7.12v-.27l.41-.19c.45-.21.88-.41,1.2-.58l.57-.3.06.65c.38,4.3-.11,7.27-1.69,10.26l0,0a7.41,7.41,0,0,1-3,2.86A6.48,6.48,0,0,1,102.65,205.13Zm-14-43.06a5.46,5.46,0,0,0-2.29.48c-5.49,2.47-5.78,13.73-.65,25.1,4.34,9.63,11.47,16.61,17,16.61h0a5.66,5.66,0,0,0,2.3-.47,6.69,6.69,0,0,0,2.59-2.53,15.55,15.55,0,0,0,1.64-9.13l-.58.28c-.12,3.36-1.16,6.28-2.68,7.5a2.36,2.36,0,0,1-.85.48l-.25,0a2.5,2.5,0,0,1-.74-.11c-4.93-1.94-10-7.57-13.2-14.68-3.66-8.11-4.24-16.47-1.48-21.3a1.27,1.27,0,0,1,.48-.43,1.5,1.5,0,0,1,.63-.11,10.63,10.63,0,0,1,4.36,1.41l.3-.19.2-.14a15.34,15.34,0,0,0-3.8-2.2l-.29-.11-.06,0A8,8,0,0,0,88.64,162.07Z"/>
          </g>
          <path class="cls-7" d="M102.65,202.53c-4,0-10.81-5.46-15.37-15.59-5.06-11.22-4.18-21-.22-22.82a4.1,4.1,0,0,1,.59-.2c-2.74,5.34-2.11,14.05,1.66,22.41,3.43,7.62,8.72,13.44,14.14,15.58a3.92,3.92,0,0,0,1,.21l-.17.09a3.8,3.8,0,0,1-1.59.32Z"/>
        </g>
      </g>
      <g>
        <g>
          <path class="cls-3" d="M184.9,178.5c-5.23,11.61-4.84,23.1.87,25.68s14.59-4.74,19.82-16.35,4.85-23.1-.86-25.68S190.14,166.9,184.9,178.5Z"/>
          <path d="M188.25,205.13h0a6.56,6.56,0,0,1-2.66-.55c-2.92-1.32-4.62-4.82-4.79-9.84a38.22,38.22,0,0,1,3.71-16.42c4.55-10.07,11.84-17.12,17.74-17.12a6.33,6.33,0,0,1,2.65.56c2.93,1.32,4.63,4.81,4.8,9.83A38.33,38.33,0,0,1,206,188C201.44,198.09,194.14,205.13,188.25,205.13Zm14-43.06c-5.48,0-12.61,7-16.95,16.61-5.13,11.37-4.84,22.63.65,25.11a5.63,5.63,0,0,0,2.3.47c5.48,0,12.6-7,16.95-16.61a37.43,37.43,0,0,0,3.63-16c-.16-4.67-1.68-7.9-4.28-9.07A5.51,5.51,0,0,0,202.25,162.07Z"/>
        </g>
        <g>
          <path class="cls-3" d="M213,191.48c-5.24,11.6-4.85,23.1.86,25.68s14.59-4.75,19.82-16.35,4.85-23.11-.86-25.68S218.25,179.87,213,191.48Z"/>
          <path d="M216.36,218.11h0a6.41,6.41,0,0,1-2.66-.56c-2.92-1.32-4.62-4.81-4.79-9.83a38.31,38.31,0,0,1,3.71-16.42c4.55-10.08,11.84-17.12,17.74-17.12a6.35,6.35,0,0,1,2.65.55c2.92,1.32,4.63,4.81,4.8,9.84A38.44,38.44,0,0,1,234.1,201C229.55,211.06,222.26,218.11,216.36,218.11Zm14-43.07c-5.48,0-12.61,7-17,16.62-5.13,11.36-4.84,22.63.65,25.1a5.48,5.48,0,0,0,2.3.48c5.48,0,12.61-7,16.95-16.61a37.5,37.5,0,0,0,3.63-16c-.16-4.67-1.68-7.89-4.28-9.07A5.51,5.51,0,0,0,230.36,175Z"/>
        </g>
        <g>
          <path class="cls-3" d="M203,187.26c-5.23,11.61-4.85,23.1.87,25.68s14.58-4.74,19.82-16.35,4.84-23.1-.87-25.68S208.19,175.65,203,187.26Z"/>
          <path d="M206.3,213.89h0a6.36,6.36,0,0,1-2.65-.56c-2.92-1.31-4.62-4.81-4.79-9.83a38.19,38.19,0,0,1,3.71-16.42C207.11,177,214.41,170,220.31,170a6.39,6.39,0,0,1,2.65.56c2.92,1.31,4.62,4.81,4.79,9.83A38.22,38.22,0,0,1,224,196.77C219.49,206.85,212.2,213.89,206.3,213.89Zm14-43.06c-5.49,0-12.61,7-16.95,16.61-5.13,11.37-4.84,22.63.64,25.1a5.54,5.54,0,0,0,2.3.48c5.48,0,12.61-7,16.95-16.61,5.13-11.37,4.84-22.63-.65-25.11A5.62,5.62,0,0,0,220.31,170.83Z"/>
        </g>
        <g>
          <path class="cls-3" d="M194.2,183c-5.23,11.61-4.84,23.11.87,25.68s14.59-4.74,19.82-16.35,4.85-23.1-.87-25.68S199.44,171.44,194.2,183Z"/>
          <path d="M197.55,209.67h0a6.55,6.55,0,0,1-2.65-.55c-2.92-1.32-4.62-4.81-4.79-9.84a38.22,38.22,0,0,1,3.71-16.42c4.55-10.07,11.84-17.12,17.74-17.12a6.36,6.36,0,0,1,2.65.56c2.92,1.32,4.62,4.81,4.79,9.83a38.16,38.16,0,0,1-3.71,16.42C210.74,202.63,203.44,209.67,197.55,209.67Zm14-43.06c-5.48,0-12.61,7-17,16.61-5.13,11.37-4.84,22.63.65,25.11a5.64,5.64,0,0,0,2.3.48c5.47,0,12.6-7,16.94-16.62a37.31,37.31,0,0,0,3.64-16c-.16-4.67-1.68-7.9-4.28-9.07A5.54,5.54,0,0,0,211.55,166.61Z"/>
        </g>
        <g>
          <path class="cls-4" d="M277.39,198.73s-66.17-22.49-82.6-33.52c-11.46-7.69-14.16-13.08-16.54-33s-1.62-26.16-3.79-29.95c-.43-.75.44-4.32-1.51-8.86s-5.41-10.24-7.86-18.6-3.89-15.85-5-20-3.1-8.5-6.67-37.91c0,0-6.7-1.84-7.78,6.6-.54,4.54.32,11,.21,13.4s.17,10.27.38,12-.05,3.3-.32,6.33-.6,11.57,0,14.22c.43,2-.22,6,.07,10,.26,3.61.69,5.55.54,6.67-.23,1.81-1.3,10.43.25,15.21,0,0-1.44,1.73-1.08,9.08s.15,15,.15,17.44,0,16.52.25,22.27c.43,9.73,4.54,20.22,12.65,26.82s32.76,20.21,32.76,20.21l67.21,37.45S275.52,228.06,277.39,198.73Z"/>
          <path d="M258.62,235l-.18-.09-67.21-37.45c-.25-.13-24.78-13.71-32.82-20.26-7.54-6.13-12.33-16.27-12.81-27.13-.22-5-.26-16-.26-22.19v-.1c0-.51,0-1.24,0-2.15,0-3.54.13-9.46-.16-15.27-.31-6.22.65-8.51,1-9.17-1.37-4.52-.61-12.11-.21-15.2a14.05,14.05,0,0,0-.17-2.78c-.12-1-.26-2.25-.37-3.8a49.83,49.83,0,0,1,0-5.61,20.09,20.09,0,0,0-.07-4.31c-.6-2.73-.27-11.3,0-14.35.06-.68.12-1.29.17-1.84a19.35,19.35,0,0,0,.15-4.39c-.21-1.74-.49-9.61-.38-12.08,0-.83,0-2.21-.15-3.81a58.43,58.43,0,0,1-.06-9.63c.79-6.21,4.54-7.14,6.7-7.14a7.2,7.2,0,0,1,1.62.18l.29.08,0,.29c3.15,26,5,32.24,6.22,36.37.16.52.3,1,.43,1.48.44,1.57.91,3.61,1.46,6,.92,3.94,2.06,8.84,3.59,14.06a86.67,86.67,0,0,0,5.81,14.24c.75,1.53,1.46,3,2,4.31a18.31,18.31,0,0,1,1.39,7.49,5.61,5.61,0,0,0,.1,1.33c1.34,2.35,1.6,5.61,2.1,12.08.33,4.26.79,10.08,1.74,18,2.37,19.84,5,25,16.35,32.67,16.2,10.87,81.84,33.24,82.5,33.47l.31.1,0,.33c-1,15.27-6.07,24.29-10.17,29.17-4.47,5.31-8.67,7-8.84,7ZM151.87,17.13c-2.29,0-5.17,1.11-5.84,6.39a56.55,56.55,0,0,0,.06,9.47c.11,1.62.19,3,.15,3.9-.1,2.37.17,10.26.38,11.93a19.77,19.77,0,0,1-.15,4.58c-.05.55-.11,1.16-.17,1.84-.26,2.92-.6,11.48,0,14.08a20.71,20.71,0,0,1,.1,4.53,46,46,0,0,0,0,5.52c.11,1.53.25,2.77.37,3.76a13.81,13.81,0,0,1,.17,3c-.4,3.08-1.17,10.7.23,15l.08.23-.15.18s-1.33,1.81-1,8.79c.29,5.84.21,11.77.17,15.32,0,.9,0,1.63,0,2.14v.1c0,10.63.09,18.5.25,22.15.47,10.62,5.14,20.52,12.49,26.5,8,6.5,32.45,20,32.7,20.17l67,37.35a25,25,0,0,0,8.35-6.76c4-4.73,8.9-13.48,9.91-28.28-5-1.71-66.68-22.92-82.39-33.46-11.53-7.74-14.35-13.34-16.73-33.29-1-8-1.41-13.8-1.74-18.06-.49-6.35-.74-9.53-2-11.72a4,4,0,0,1-.21-1.75,17.64,17.64,0,0,0-1.33-7.16c-.56-1.31-1.26-2.75-2-4.27a87.47,87.47,0,0,1-5.86-14.38c-1.54-5.24-2.68-10.15-3.6-14.1-.55-2.35-1-4.39-1.45-5.94-.13-.48-.27-.95-.43-1.47C158,49.3,156.13,43.06,153,17.23A6.84,6.84,0,0,0,151.87,17.13Z"/>
        </g>
        <path class="cls-5" d="M272.53,217.75a56.09,56.09,0,0,0,4.18-18.57c-6-2.05-66.7-23-82.28-33.43C182.83,158,180,152.34,177.6,132.31c-.95-8-1.4-13.81-1.74-18.07-.49-6.32-.73-9.49-2-11.63a4.13,4.13,0,0,1-.24-1.86,17.34,17.34,0,0,0-1.31-7.08c-.56-1.3-1.26-2.74-2-4.26A86.4,86.4,0,0,1,164.47,75c-1.54-5.26-2.68-10.17-3.6-14.12-.55-2.35-1-4.38-1.45-5.93q-.19-.7-.42-1.47c-.92-3.09-2.2-7.42-4.13-20.47,0,.7-.59-7.65-1.81-12.4-.92-3.56-1.91-3.78-2.24-3.17-1.28,2.36-.72,23.9-.61,24.76a63.94,63.94,0,0,1,.07,6.84c-.25,2.92.22,18,.14,19.9-.07,1.69.55,8,.76,11.35.23,3.56,1.52,12.47,2.31,14.9,0,0,.89,2.66,1.22,9.5.29,5.85.15,17.57.15,17.57,0,10.63.09,18.5.25,22.15.47,10.55,5.11,20.4,12.41,26.34,8,6.48,32.42,20,32.67,20.15,0,0,38.9,21.5,51.77,28.85C256.45,222.32,267.66,228.94,272.53,217.75Z"/>
        <path d="M164.25,110.08c-.52-1.16-1-2.33-1.5-3.49-.25-.58-.5-1.16-.77-1.73a18.35,18.35,0,0,0-.83-1.66c-.07-.14-.15-.27-.23-.4s-.17-.28-.25-.42-.31-.57-.46-.85c-.29-.58-.56-1.17-.8-1.76a23.31,23.31,0,0,1-1.21-3.68c-.08-.32-.14-.64-.2-1,0-.16-.05-.32-.07-.49l-.06-.46-.27-1.88L157,88.54,155.87,81q-1.14-7.53-2.32-15l-.6-3.75c-.1-.63-.2-1.26-.31-1.87l0-.21-.06-.23-.1-.48-.19-.94c-.48-2.5-.92-5-1.35-7.5l.26.33h0a2.11,2.11,0,0,0-.4-.11l-.44-.07a3.23,3.23,0,0,0-.88.05,3.13,3.13,0,0,0-1.53.79,4.83,4.83,0,0,0-1,1.5,9.25,9.25,0,0,0-.59,1.8.44.44,0,1,1-.85-.19h0a10.14,10.14,0,0,1,.66-2,5.41,5.41,0,0,1,1.22-1.76,3.91,3.91,0,0,1,2-1,4.12,4.12,0,0,1,1.11-.06,5,5,0,0,1,.54.08,3.08,3.08,0,0,1,.55.16h0l.22.08,0,.24c.47,2.49.93,5,1.43,7.47l.19.92.1.46.06.22c0,.1,0,.18.05.26.13.64.23,1.26.34,1.89.21,1.25.41,2.5.61,3.75q1.18,7.53,2.32,15.05L158,88.4l.54,3.77.25,1.89.06.48.06.45c0,.3.11.61.18.91a22.9,22.9,0,0,0,1.14,3.55c.23.58.48,1.15.76,1.71.14.28.28.55.43.82l.23.4c.09.14.17.29.25.43a22.93,22.93,0,0,1,1.49,3.56,33.37,33.37,0,0,1,1,3.68,0,0,0,0,1,0,.06A0,0,0,0,1,164.25,110.08Z"/>
        <path d="M145.38,38a16.68,16.68,0,0,1,.27-3.31,10.46,10.46,0,0,1,1.09-3.17,5.76,5.76,0,0,1,1-1.39,4.7,4.7,0,0,1,1.45-1,5.92,5.92,0,0,1,3.42-.33h0l.29.05.06.29q1,4.77,2,9.55c.31,1.59.62,3.19.9,4.79.14.8.28,1.6.4,2.41s.19,1.63.29,2.43c.4,3.21.86,6.42,1.39,9.61s1.11,6.39,1.94,9.49c.1.39.22.76.34,1.16s.21.8.3,1.2c.19.81.35,1.61.49,2.41.28,1.61.53,3.21.83,4.8a52.44,52.44,0,0,0,2.54,9.3,48,48,0,0,0,1.94,4.41c.36.72.74,1.44,1.13,2.14a7.44,7.44,0,0,1,.72,2.46,17.28,17.28,0,0,1,.11,2.48c0,.82-.06,1.63-.1,2.44a37.38,37.38,0,0,0,0,4.85s0,0,0,0a.05.05,0,0,1-.06,0,24.84,24.84,0,0,1-.42-4.87,36.19,36.19,0,0,0-.21-4.8,8.56,8.56,0,0,0-.25-1.14,5.63,5.63,0,0,0-.41-1c-.4-.71-.79-1.43-1.16-2.16a48.51,48.51,0,0,1-2-4.48,52.67,52.67,0,0,1-2.65-9.43c-.31-1.6-.57-3.21-.86-4.8-.15-.79-.31-1.58-.49-2.36-.09-.38-.2-.77-.31-1.15s-.24-.78-.35-1.17c-.44-1.59-.78-3.18-1.1-4.78s-.6-3.2-.86-4.8q-.79-4.82-1.4-9.66c-.1-.81-.18-1.62-.29-2.41s-.24-1.59-.38-2.39c-.27-1.59-.57-3.18-.87-4.78-.6-3.18-1.23-6.36-1.87-9.54l.35.34h0a5,5,0,0,0-2.92.26,4.52,4.52,0,0,0-2.08,2,9.91,9.91,0,0,0-1,2.91,15.65,15.65,0,0,0-.26,3.12v0a.45.45,0,0,1-.43.44.44.44,0,0,1-.44-.43Z"/>
        <path d="M174.82,102c0,.84-.11,1.69-.14,2.53s-.06,1.7-.07,2.54c0,1.69,0,3.39.13,5.07,0,.42.09.83.11,1.27a9.84,9.84,0,0,1,0,1.33,16,16,0,0,1-.38,2.59,32.85,32.85,0,0,1-1.59,4.89s0,0,0,0a.05.05,0,0,1,0-.05c.39-1.67.81-3.32,1-5a16.2,16.2,0,0,0,.21-2.49,10,10,0,0,0-.05-1.23c0-.41-.11-.84-.16-1.27-.09-.86-.15-1.72-.19-2.58s0-1.72,0-2.58A49.45,49.45,0,0,1,174,102a.44.44,0,0,1,.48-.38.43.43,0,0,1,.38.46Z"/>
        <path d="M147.12,101.12a10.77,10.77,0,0,0,.81,1.77,13.38,13.38,0,0,0,1.07,1.66,10.53,10.53,0,0,0,2.92,2.68s0,0,0,0,0,0,0,0a10.77,10.77,0,0,1-3.25-2.44,13.3,13.3,0,0,1-1.28-1.61,12.78,12.78,0,0,1-1.05-1.81.43.43,0,0,1,.21-.57.44.44,0,0,1,.58.21s0,0,0,0Z"/>
        <path d="M147,102c.24,1,.53,1.93.86,2.87s.68,1.88,1.09,2.8a21,21,0,0,0,1.4,2.65,11.11,11.11,0,0,0,1.88,2.33,0,0,0,0,1,0,.05,0,0,0,0,1-.06,0,11.24,11.24,0,0,1-2.07-2.23,23.91,23.91,0,0,1-1.59-2.61q-.71-1.35-1.29-2.76c-.39-1-.75-1.89-1.06-2.88a.43.43,0,0,1,.82-.26,0,0,0,0,1,0,0Z"/>
        <path d="M149.42,86c-.51.06-1,.11-1.52.13-.26,0-.52,0-.78,0a2.75,2.75,0,0,1-.85-.16h0a.44.44,0,1,1,.3-.82.24.24,0,0,1,.11.06,2.32,2.32,0,0,0,.59.26c.22.07.46.13.7.19.48.1,1,.18,1.47.24a.06.06,0,0,1,.06.06S149.44,85.94,149.42,86Z"/>
        <path d="M148.68,70a12.93,12.93,0,0,1-1.41.2,5.88,5.88,0,0,1-.73,0,2.56,2.56,0,0,1-.39,0,1.44,1.44,0,0,1-.45-.12l-.07,0a.45.45,0,0,1,.37-.82.71.71,0,0,1,.14.1,1.3,1.3,0,0,0,.5.23c.21.07.43.11.65.16.46.08.92.13,1.38.17a.06.06,0,0,1,.06.06A.06.06,0,0,1,148.68,70Z"/>
        <path d="M166.24,112.64a7.42,7.42,0,0,1,.85,2.13,5.69,5.69,0,0,1,.14,2.37,7.15,7.15,0,0,1-.8,2.2,12.78,12.78,0,0,1-1.26,1.9.06.06,0,0,1-.09,0,.07.07,0,0,1,0-.08c.21-.73.51-1.43.76-2.11a12.49,12.49,0,0,0,.58-2.06,8.74,8.74,0,0,0,0-2.11c-.08-.72-.19-1.46-.3-2.2h0a.07.07,0,0,1,.06-.07A.09.09,0,0,1,166.24,112.64Z"/>
        <g>
          <path class="cls-6" d="M153.06,13.77s-4.62,6.2,1.44,13.34C154.5,27.11,155.51,17,153.06,13.77Z"/>
          <path d="M154.83,28.16l-.66-.77c-6.21-7.32-1.51-13.81-1.46-13.88l.34-.46.35.46c2.52,3.34,1.57,13.22,1.53,13.64Zm-1.77-13.58c-.89,1.54-2.83,6.09,1.09,11.4C154.32,23.49,154.54,17.38,153.06,14.58Z"/>
        </g>
        <g>
          <path class="cls-6" d="M152.41,26.39S148.8,33.52,154.86,41C154.86,41,156,30.93,152.41,26.39Z"/>
          <path d="M155.17,42l-.65-.79c-6.17-7.56-2.54-15-2.5-15l.31-.6.42.53c3.67,4.62,2.58,14.46,2.54,14.88ZM152.5,27.27a13.32,13.32,0,0,0,2,12.52C154.68,37.24,154.81,30.9,152.5,27.27Z"/>
        </g>
        <g>
          <path class="cls-6" d="M151.25,46.86a9.59,9.59,0,0,0-1.58,6.77,16.88,16.88,0,0,0,3.39,6.7S153.42,50.6,151.25,46.86Z"/>
          <path d="M153.45,61.45l-.72-.83a17.34,17.34,0,0,1-3.49-6.9,10.05,10.05,0,0,1,1.66-7.12l.4-.54.33.58c2.2,3.81,1.87,13.31,1.86,13.71Zm-2.24-13.7a8.84,8.84,0,0,0-1.12,5.8,15.68,15.68,0,0,0,2.55,5.53C152.66,56.56,152.53,50.81,151.21,47.75Z"/>
        </g>
        <g>
          <g>
            <path class="cls-6" d="M211,205.36c.19,3,1.17,5.63,2.49,6.68a1.67,1.67,0,0,0,.67.39,1.93,1.93,0,0,0,.74-.07c4.67-1.84,9.69-7.18,13-14.45,3.68-8.16,4.1-16.36,1.51-20.9-.09-.13-.14-.21-.26-.26s-1.32-.37-4.78,1.36l-.09,0c-.41-.25-.81-.53-1.22-.78a16.15,16.15,0,0,1,4.4-2.64h0l.36-.13h0a7,7,0,0,1,5.18,0c5.71,2.58,6.1,14.08.86,25.68S219.68,219.23,214,216.65a7.26,7.26,0,0,1-2.79-2.7,15.68,15.68,0,0,1-1.74-8.59Z"/>
            <path d="M216.45,217.6a6.41,6.41,0,0,1-2.66-.56,7.35,7.35,0,0,1-3-2.85l0,0a16.07,16.07,0,0,1-1.79-8.81l0-.42h2.33l0,.41c.18,2.89,1.1,5.39,2.33,6.37a1.42,1.42,0,0,0,.49.31h.07a1.74,1.74,0,0,0,.43-.06c4.72-1.86,9.6-7.31,12.72-14.23,3.49-7.74,4.1-16,1.52-20.51a.32.32,0,0,0-.06-.07.81.81,0,0,0-.33-.05,10.28,10.28,0,0,0-4.08,1.4l-.06,0-.25.12-.2-.13-.52-.33q-.34-.24-.69-.45l-.54-.31.49-.39a17.51,17.51,0,0,1,3.57-2.31l-.06,0,1-.38.38-.14a7.4,7.4,0,0,1,5.51,0c2.92,1.32,4.62,4.81,4.79,9.83a38.31,38.31,0,0,1-3.71,16.42C229.64,210.56,222.35,217.6,216.45,217.6Zm-4.89-3.87a6.62,6.62,0,0,0,2.59,2.53,5.66,5.66,0,0,0,2.3.47c5.48,0,12.61-7,17-16.61,5.13-11.37,4.84-22.63-.65-25.1a6.5,6.5,0,0,0-4.86,0h0l-.31.12a15.34,15.34,0,0,0-3.8,2.2l.2.13.3.2a11.09,11.09,0,0,1,4.33-1.42,1.7,1.7,0,0,1,.68.11,1,1,0,0,1,.45.42c2.77,4.85,2.18,13.21-1.47,21.32C225,205.2,220,210.82,215,212.77a2.5,2.5,0,0,1-.74.11l-.25,0a2.21,2.21,0,0,1-.85-.48c-1.37-1.1-2.36-3.6-2.62-6.59h-.7A15,15,0,0,0,211.56,213.73Z"/>
          </g>
          <path class="cls-7" d="M216.45,215c4,0,10.8-5.46,15.37-15.59,5.06-11.22,4.18-21,.22-22.82a4.1,4.1,0,0,0-.59-.2c2.74,5.34,2.11,14.05-1.66,22.41-3.43,7.62-8.72,13.44-14.14,15.58a3.92,3.92,0,0,1-1,.21l.17.09a3.8,3.8,0,0,0,1.59.32Z"/>
          <g>
            <path class="cls-6" d="M201,203.7a7.47,7.47,0,0,0,2.1,4,2,2,0,0,0,.67.39,1.93,1.93,0,0,0,.74-.07c4.67-1.84,9.68-7.19,13-14.45,3.68-8.17,4.1-16.37,1.51-20.91-.09-.12-.14-.2-.26-.25s-1.32-.37-4.78,1.36l-.09,0c-.41-.26-.81-.53-1.22-.78a16.46,16.46,0,0,1,4.4-2.65h0l.36-.13h0a7,7,0,0,1,5.18,0c5.71,2.57,6.1,14.07.86,25.68s-14.1,18.92-19.82,16.34a7.07,7.07,0,0,1-2.78-2.69,14.51,14.51,0,0,1-1.72-5.93Z"/>
            <path d="M206.07,213.27a6.32,6.32,0,0,1-2.65-.55,7.34,7.34,0,0,1-3-2.86l0,0a15,15,0,0,1-1.76-6.1l0-.46h2.68l.08.33a7,7,0,0,0,2,3.78,1.64,1.64,0,0,0,.49.31h.07a1.66,1.66,0,0,0,.43-.06c4.72-1.86,9.6-7.31,12.72-14.22,3.49-7.75,4.1-16,1.52-20.51a.35.35,0,0,0,0-.08,1.08,1.08,0,0,0-.34,0,10.28,10.28,0,0,0-4.08,1.4l-.31.14-.2-.12-.52-.34-.69-.44-.54-.32.49-.39a17.92,17.92,0,0,1,3.7-2.37l0,0,.85-.33.38-.13.17-.07h0a7.31,7.31,0,0,1,5.33.1c2.92,1.32,4.62,4.81,4.79,9.84a38.29,38.29,0,0,1-3.71,16.41C219.26,206.23,212,213.27,206.07,213.27Zm-4.89-3.86a6.66,6.66,0,0,0,2.59,2.52,5.51,5.51,0,0,0,2.3.48c5.48,0,12.61-7,17-16.61,5.13-11.37,4.84-22.63-.65-25.11a6.55,6.55,0,0,0-4.86,0l0,0h0l-.28.11a15,15,0,0,0-3.8,2.2l.2.13.3.19a11.26,11.26,0,0,1,4.33-1.42,1.69,1.69,0,0,1,.68.12,1.07,1.07,0,0,1,.45.41c2.77,4.85,2.18,13.21-1.47,21.32-3.21,7.12-8.27,12.74-13.2,14.68a2.49,2.49,0,0,1-.74.12.9.9,0,0,1-.25,0,2.16,2.16,0,0,1-.85-.47,7.62,7.62,0,0,1-2.17-3.93h-1.06A14,14,0,0,0,201.18,209.41Z"/>
          </g>
          <path class="cls-7" d="M206.07,210.68c4,0,10.81-5.47,15.37-15.59,5.06-11.23,4.18-21,.22-22.82a3.19,3.19,0,0,0-.59-.21c2.74,5.34,2.11,14.06-1.66,22.42-3.43,7.62-8.72,13.44-14.14,15.57a3.51,3.51,0,0,1-1,.21l.17.1a4,4,0,0,0,1.59.32Z"/>
          <g>
            <path class="cls-6" d="M200.81,163.7a.34.34,0,0,1,.13.21Z"/>
            <path d="M201.38,165.47l-2.13-3.5,1.82,1.39a.72.72,0,0,1,.3.55Zm-.73-1.56h-.15a.15.15,0,0,0,.05.13Z"/>
          </g>
          <g>
            <path class="cls-6" d="M192.36,199a7.87,7.87,0,0,0,2.21,4.53,2,2,0,0,0,.66.39,2,2,0,0,0,.75-.07c4.67-1.84,9.68-7.19,13-14.45,3.68-8.17,4.09-16.37,1.5-20.91a.57.57,0,0,0-.26-.25c-.26-.12-1.32-.37-4.77,1.36l-.1,0c-.41-.26-.8-.53-1.22-.78a16.5,16.5,0,0,1,4.41-2.65h0l.36-.14h0a6.92,6.92,0,0,1,5.17,0c5.72,2.57,6.1,14.07.87,25.68s-14.11,18.92-19.82,16.34a7.17,7.17,0,0,1-2.79-2.69,14.6,14.6,0,0,1-1.74-6.44Z"/>
            <path d="M197.56,209.09a6.39,6.39,0,0,1-2.65-.55,7.33,7.33,0,0,1-3-2.86l0,0a15,15,0,0,1-1.8-6.62l0-.45h2.61l.07.35a7.45,7.45,0,0,0,2.06,4.27,1.54,1.54,0,0,0,.48.31h.07a1.66,1.66,0,0,0,.43-.06c4.73-1.86,9.6-7.31,12.72-14.22,3.5-7.75,4.11-16,1.52-20.51l-.05-.08a1,1,0,0,0-.34,0A10.33,10.33,0,0,0,205.6,170l-.31.15-.21-.12-.51-.34c-.23-.15-.46-.3-.7-.44l-.53-.32.48-.39a17.37,17.37,0,0,1,3.91-2.46l0,0,.63-.24.37-.13a7.35,7.35,0,0,1,5.51,0c2.92,1.32,4.62,4.81,4.79,9.83A38.16,38.16,0,0,1,215.3,192C210.76,202.05,203.46,209.09,197.56,209.09Zm-4.89-3.86a6.61,6.61,0,0,0,2.6,2.52,5.46,5.46,0,0,0,2.29.48c5.48,0,12.61-7,16.95-16.61,5.13-11.37,4.84-22.64-.64-25.11a6.55,6.55,0,0,0-4.86,0l-.36.14a15.25,15.25,0,0,0-3.81,2.2,1.37,1.37,0,0,1,.2.13l.3.19a11.26,11.26,0,0,1,4.33-1.42,1.66,1.66,0,0,1,.68.12,1,1,0,0,1,.45.42c2.77,4.84,2.19,13.2-1.47,21.31-3.21,7.12-8.26,12.74-13.2,14.68a2.45,2.45,0,0,1-.74.11h0a1,1,0,0,1-.25,0,2.06,2.06,0,0,1-.84-.48,8,8,0,0,1-2.29-4.42h-1A14,14,0,0,0,192.67,205.23Z"/>
          </g>
          <path class="cls-7" d="M197.56,206.5c4.05,0,10.81-5.47,15.38-15.59,5.06-11.23,4.17-21,.21-22.82a3.42,3.42,0,0,0-.59-.21c2.75,5.34,2.12,14.06-1.65,22.41-3.44,7.63-8.72,13.45-14.14,15.58a3.58,3.58,0,0,1-1,.21l.18.1a3.88,3.88,0,0,0,1.58.32Z"/>
          <g>
            <path class="cls-6" d="M181.28,190.89l1.39.66c.07,3.37,1.09,6.3,2.53,7.45a2,2,0,0,0,.66.39,2,2,0,0,0,.75-.07c4.67-1.84,9.68-7.19,13-14.45,3.68-8.17,4.09-16.37,1.5-20.91a.92.92,0,0,0-.32-.27c-.12-.06-1.26-.35-4.71,1.38l-.1,0c-.41-.26-.8-.54-1.22-.79a16.56,16.56,0,0,1,4.4-2.64h0l.36-.14h0a6.92,6.92,0,0,1,5.17,0c5.72,2.57,6.1,14.07.87,25.67s-14.11,18.93-19.82,16.35a7.24,7.24,0,0,1-2.79-2.69C181.33,197.9,180.92,195,181.28,190.89Z"/>
            <path d="M188.19,204.55a6.39,6.39,0,0,1-2.65-.55,7.39,7.39,0,0,1-3-2.86l0,0c-1.59-3-2.08-6-1.7-10.26l.06-.64.57.29c.32.17.74.37,1.18.57l.44.2v.27c.06,3.18,1,6,2.37,7.12.3.24.43.3.48.3H186a1.66,1.66,0,0,0,.43-.06c4.73-1.86,9.6-7.31,12.72-14.22,3.5-7.75,4.11-16,1.53-20.51l-.13-.1a1.84,1.84,0,0,0-.23,0,10.37,10.37,0,0,0-4.11,1.39l-.31.15-.21-.12-.51-.34c-.23-.15-.46-.3-.7-.44l-.53-.32.48-.39a17.37,17.37,0,0,1,3.91-2.46v0l.62-.24.37-.13a7.35,7.35,0,0,1,5.51,0c2.92,1.32,4.62,4.81,4.79,9.83a38.16,38.16,0,0,1-3.71,16.42C201.39,197.51,194.09,204.55,188.19,204.55Zm-4.89-3.86a6.67,6.67,0,0,0,2.6,2.52,5.46,5.46,0,0,0,2.29.48c5.48,0,12.61-7,16.95-16.61a37.38,37.38,0,0,0,3.64-16c-.16-4.67-1.68-7.9-4.28-9.07a6.55,6.55,0,0,0-4.86,0l-.13.05-.23.08a15.39,15.39,0,0,0-3.81,2.2l.2.14.3.19a10.82,10.82,0,0,1,4.37-1.41,1.32,1.32,0,0,1,.62.12,1.16,1.16,0,0,1,.47.4c2.77,4.85,2.19,13.21-1.47,21.32-3.21,7.12-8.26,12.74-13.2,14.68a2.45,2.45,0,0,1-.74.11,1,1,0,0,1-.25,0,2.06,2.06,0,0,1-.84-.48c-1.53-1.21-2.57-4.14-2.69-7.5l-.57-.27A15.57,15.57,0,0,0,183.3,200.69Z"/>
          </g>
          <path class="cls-7" d="M188.19,202c4.05,0,10.81-5.47,15.38-15.59,5.06-11.23,4.17-21,.21-22.82a2.75,2.75,0,0,0-.59-.21c2.75,5.34,2.12,14.06-1.65,22.41-3.44,7.63-8.72,13.45-14.14,15.58a3.66,3.66,0,0,1-1,.21.76.76,0,0,0,.18.09,3.72,3.72,0,0,0,1.58.33Z"/>
        </g>
      </g>
    </g>
  </g>
</svg>
