<svg id="Layer_1" data-name="Layer 1" xmlns="http://www.w3.org/2000/svg" xmlns:xlink="http://www.w3.org/1999/xlink" width="185.94" height="276.16" viewBox="0 0 185.94 276.16">
  <defs>
    <style>
      .cls-1 {
        fill: none;
      }

      .cls-2 {
        opacity: 0.5;
      }

      .cls-3 {
        fill: #ff0;
      }

      .cls-4 {
        fill: #efe800;
        stroke: #938c00;
      }

      .cls-14, .cls-4, .cls-7 {
        stroke-miterlimit: 10;
        stroke-width: 2px;
      }

      .cls-5 {
        fill: #fffef3;
      }

      .cls-6 {
        fill: #e7242b;
      }

      .cls-10, .cls-7 {
        fill: #ed152e;
      }

      .cls-7 {
        stroke: #700;
      }

      .cls-8 {
        clip-path: url(#clip-path);
      }

      .cls-9 {
        opacity: 0.43;
      }

      .cls-11 {
        opacity: 0.12;
      }

      .cls-12 {
        fill: #fff;
      }

      .cls-13 {
        opacity: 0.21;
      }

      .cls-14 {
        fill: #bbefff;
        stroke: #008e87;
      }

      .cls-15 {
        fill: #f4bf3b;
        opacity: 0.96;
        isolation: isolate;
      }

      .cls-16 {
        opacity: 0.49;
      }

      .cls-17 {
        opacity: 0.29;
      }

      .cls-18 {
        clip-path: url(#clip-path-3);
      }

      .cls-19 {
        opacity: 0.65;
      }

      .cls-20 {
        fill: #ddbd58;
      }

      .cls-21 {
        fill: #dda758;
      }

      .cls-22 {
        opacity: 0.46;
      }

      .cls-23 {
        fill: #ffdd4d;
      }

      .cls-24 {
        fill: #ffa64d;
      }
    </style>
    <clipPath id="clip-path">
      <path class="cls-1" d="M70.66,148.17l5.07-.26L69.38,17.11a5,5,0,0,0-4.68-4.73h-.22l-46.94.68.09,5.07,44.59-.64a2.17,2.17,0,0,1,2.22,2.09Z"/>
    </clipPath>
    <clipPath id="clip-path-3">
      <path class="cls-1" d="M65,223.26h0v9a8.22,8.22,0,0,0,5.58,7.84,47,47,0,0,0,13.67,1.83,38.38,38.38,0,0,0,11.12-1.19,9.7,9.7,0,0,0,6.9-9.33v-8.05h0c0-9.54,1.66-43.75,9.28-84.64,6.73-36,15.42-54.18,15.42-54.18H40.37s8.69,18.19,15.42,54.18C63.37,179.52,65,213.72,65,223.26Z"/>
    </clipPath>
  </defs>
  <g>
    <path class="cls-2" d="M58.17,276.16a6.06,6.06,0,0,1-5.83-4.39L51,267.21c-1.6-5.56-1.36-14.16,4.59-20.1.43-.43.83-.8,1.19-1.12v0a566.34,566.34,0,0,0-9.54-98.08C39.92,108.54,27,88.23,26.91,88l-6.4-9.74a6.07,6.07,0,0,1,5.08-9.41H61.65L60.14,37.6,19,38.18a6.06,6.06,0,0,1-6.07-6l-.3-17.68a6.08,6.08,0,0,1,6-6.18l53.26-.77h.55l.5,0A17.38,17.38,0,0,1,89.32,23.87l2.19,45h15.32a40.52,40.52,0,1,1,38.59,52.89c-1.28,0-2.55-.06-3.82-.18a248.71,248.71,0,0,0-6.37,26.31A566.61,566.61,0,0,0,125.68,246c.37.33.77.7,1.19,1.13,5.95,5.94,6.19,14.54,4.59,20.1l-1.32,4.56a6.06,6.06,0,0,1-5.83,4.39Z"/>
    <path class="cls-3" d="M50.58,268.57a6.06,6.06,0,0,1-5.83-4.39l-1.32-4.56c-1.6-5.56-1.36-14.16,4.59-20.1.43-.43.83-.8,1.19-1.12v0a565.68,565.68,0,0,0-9.55-98.08C32.33,101,19.45,80.64,19.32,80.44l-6.4-9.74A6.07,6.07,0,0,1,18,61.29H54.06L52.55,30l-41.12.58a6.07,6.07,0,0,1-6.07-6L5.06,7A6.08,6.08,0,0,1,11,.77L64.3,0h.55l.5,0A17.38,17.38,0,0,1,81.73,16.28l2.19,45H99.24a40.52,40.52,0,1,1,38.59,52.89c-1.28,0-2.55-.06-3.82-.18a248.71,248.71,0,0,0-6.37,26.31,566.61,566.61,0,0,0-9.55,98.08c.37.33.77.7,1.19,1.12,6,6,6.19,14.55,4.59,20.11l-1.32,4.56a6.06,6.06,0,0,1-5.83,4.39Z"/>
    <g>
      <g>
        <circle class="cls-4" cx="137.83" cy="73.66" r="28.14"/>
        <circle class="cls-5" cx="137.83" cy="73.66" r="25.97" transform="translate(43.04 197.91) rotate(-80.78)"/>
        <g>
          <path class="cls-3" d="M137.94,70.6a38.68,38.68,0,0,1-1-11.87c.33-7.18-1.1-9.07,2.47-8.95a14.82,14.82,0,0,1,7.39,2.13c1.85,1,3.69,2.3,2,4.4s-7.23,11.46-8.42,12.94S138.35,72,137.94,70.6Z"/>
          <path class="cls-3" d="M134.61,75.73s-16.34,5.38-17.2,7.44,1.64,5.83,3.53,7.31,3.86,2.75,4.73,1.93S137.24,74.87,134.61,75.73Z"/>
          <path class="cls-3" d="M141.47,74a1,1,0,0,1-.33-1.73,10.91,10.91,0,0,1,2.26-1.43c3.41-1.65,13-5.88,14.5-5.43s2.75.17,3.32,4.44.54,5.83-1.35,5.7-11.05-.69-13.47-.82A18.08,18.08,0,0,1,141.47,74Z"/>
          <path class="cls-3" d="M125.25,54.79s1.93,3,4,6.69,5,8.71,5.91,9.24,1.56-.57,1.4-2.5-.74-16.27-1.28-17-3.12-.9-5.09,0S125.54,53.84,125.25,54.79Z"/>
          <path class="cls-3" d="M115.19,69.45s-1.85,4.76-.65,8.13,1.23,4.85,3.48,3.78,14.5-6.32,16.14-6.45.82-1.93-.45-2S116.92,68.75,115.19,69.45Z"/>
          <path class="cls-3" d="M137.2,76.76s-.33-1.27-1.64.12-7.68,14.54-8.22,15.53,1.07,3.45,3.58,3.85,6.48,1.73,7.14.33S137.16,78.48,137.2,76.76Z"/>
          <path class="cls-3" d="M123.94,55.77s-6.78,4-7.88,8.42-1.44,4.23,3,5,12.4,2,14.25,2.67-2-6.16-3.94-9.12S125.29,55.94,123.94,55.77Z"/>
          <path class="cls-3" d="M140.77,74.66s9.24.83,12.77,1.32,7.72-.5,7.23,3.4-1.48,3.62-2.17,5.26-3.58,6.41-4.73,6.24-6.4-6.9-8.7-9.36S139.21,74.5,140.77,74.66Z"/>
          <path class="cls-3" d="M140.61,71.46a.66.66,0,0,1-.66-1c1.6-2.17,6.41-8.66,7.43-10.26,1.24-1.93,2.84-5.46,4.77-4.43a13.81,13.81,0,0,1,5,5.38c1.35,2.34,1.31,2.38-.54,3.73s-12.11,4.56-13.92,5.67A7,7,0,0,1,140.61,71.46Z"/>
          <path class="cls-3" d="M139.38,75.73s-.83-1.07-.86,2.38.86,7.77.69,9.49a35.76,35.76,0,0,0,.41,7.64,2.87,2.87,0,0,0,3.78,2.13c2.22-.7,10.19-3.73,9.49-5.17S140.53,77.58,139.38,75.73Z"/>
        </g>
      </g>
      <path class="cls-6" d="M137.66,73.67h-108S43.87,95.27,51.83,138a578.06,578.06,0,0,1,9.76,100.53h0c-.13,7.19-1.92,6.85-4.82,9.71s-1.45,7.92-1.45,7.92H112s1.44-5-1.45-7.92-4.69-2.52-4.82-9.71h0A578.06,578.06,0,0,1,115.47,138C123.48,95.27,137.66,73.67,137.66,73.67Z"/>
      <g>
        <g>
          <g>
            <path id="SVGID" class="cls-7" d="M70.66,148.17l5.07-.26L69.38,17.11a5,5,0,0,0-4.68-4.73h-.22l-46.94.68.09,5.07,44.59-.64a2.17,2.17,0,0,1,2.22,2.09Z"/>
            <g class="cls-8">
              <g class="cls-9">
                <path class="cls-10" d="M74.24,149.53l5.11,1-6.26-137A5,5,0,0,0,68.4,8.76h-.21l-54.27.17-.55,5.45L64.65,14a3.54,3.54,0,0,1,3,2.68Z"/>
              </g>
            </g>
            <g class="cls-8">
              <g class="cls-11">
                <path class="cls-12" d="M67.17,151.66l5.06-.25L65.89,20.6c-.17-2.56-.17-4.69-2.69-4.86L6.77,16l.08,5.07,51.07.55a2.18,2.18,0,0,1,2.22,2.09Z"/>
              </g>
            </g>
          </g>
          <g class="cls-13">
            <path class="cls-12" d="M56.47,16.21c-4.47,1.24-10.47.34-16,.6-6.35.25-14.27,1.7-20.32-.09-.89-.25-1.06-1.74,0-1.91,9.2-1.28,26.45-1.15,36.59-.43C58.94,14.55,56.86,16.08,56.47,16.21Z"/>
          </g>
          <g class="cls-13">
            <path class="cls-12" d="M67.93,27.71c1.71,4.56,1.32,10.1,1.62,14.87.3,5.15,1.62,12,.81,17.12-.17,1-2,.47-2.43-.34-1.91-3.45-1-8.77-1.32-12.69C66,38.53,65,34.19,65.5,28.22,65.8,24.82,67.93,27.71,67.93,27.71Z"/>
          </g>
        </g>
        <g>
          <path class="cls-14" d="M137.66,73.67h-108S43.87,95.27,51.83,138a578.06,578.06,0,0,1,9.76,100.53h0c-.13,7.19-1.92,6.85-4.82,9.71s-1.45,7.92-1.45,7.92H112s1.44-5-1.45-7.92-4.69-2.52-4.82-9.71h0A578.06,578.06,0,0,1,115.47,138C123.48,95.27,137.66,73.67,137.66,73.67Z"/>
          <path class="cls-15" d="M65,223.26h0v9a8.22,8.22,0,0,0,5.58,7.84,47,47,0,0,0,13.67,1.83,38.38,38.38,0,0,0,11.12-1.19,9.7,9.7,0,0,0,6.9-9.33v-8.05h0c0-9.54,1.66-43.75,9.28-84.64,6.73-36,15.42-54.18,15.42-54.18H40.37s8.69,18.19,15.42,54.18C63.37,179.52,65,213.72,65,223.26Z"/>
          <g class="cls-16">
            <path class="cls-12" d="M34.2,76.53c7.41.93,14.82.89,22.27,1.15,3.71.12,7.42.46,11.16.55,4.05.08,8.18,1.28,12.06-.21a.54.54,0,0,0,0-1C72,74.78,62.61,75.38,54.56,75.12c-4.22-.13-8.44,0-12.65.13-2.77.08-5.37-.43-7.88.76-.26.09-.09.47.17.52Z"/>
          </g>
          <g class="cls-16">
            <path class="cls-12" d="M94.38,77.51c6.73.89,13.42,1.23,20.19,1.49,4.77.17,12.78,2.17,16.79-1.07a.63.63,0,0,0-.13-1c-1.71-.94-2.69-.68-4.69-.59-3.28.12-6.68-.35-10-.47a126.61,126.61,0,0,0-22,.47c-.63.08-.89,1.06-.17,1.15Z"/>
          </g>
          <g class="cls-16">
            <path class="cls-12" d="M96.51,250.48c-5-.38-10-.55-15.08-.51a53.12,53.12,0,0,1-8.26-.3c-3.07-.42-5.71-2.25-8.52-3.4-3.62-1.49-5.24,4.47-1.62,5.87,11,4.26,22.54,3,33.74.09,1-.26.68-1.66-.26-1.75Z"/>
          </g>
          <g class="cls-16">
            <path class="cls-12" d="M103,251.85a2.74,2.74,0,0,1,.55,0l-1.15-.3c.21.13.17.09-.17-.13a3,3,0,0,0,1.28.77,3.3,3.3,0,0,0,2.13.08,2.65,2.65,0,0,0,.64-4.77,3.48,3.48,0,0,0-2.77-.38,6.63,6.63,0,0,0-1.62.85,2,2,0,0,0,1.11,3.84Z"/>
          </g>
          <g class="cls-17">
            <path class="cls-12" d="M91.44,248.35c-3.49.17-6.94-1.27-10.35-2-3.7-.85-6.85-2.64-10.35-4-5.11-2-8.09,6-3.62,8.6,6.52,3.92,18.4,3.54,25-.3a1.26,1.26,0,0,0-.64-2.3Z"/>
          </g>
          <g class="cls-17">
            <path class="cls-12" d="M89.91,78c8.14,1.62,18.79,3.54,26.75.52a.67.67,0,0,0,0-1.28c-3.88-1.54-8.22-1.37-12.35-1.54-4.77-.21-9.71-.63-14.4.26a1.06,1.06,0,0,0,0,2Z"/>
          </g>
          <path class="cls-12" d="M103.5,78.23c7.58.81,17.08,3.71,24.24,0,.59-.3.21-1-.3-1.11-3.62-.47-7.37,0-11,0-4.35,0-8.57,0-12.91.39-.47,0-.43.63,0,.72Z"/>
          <path class="cls-12" d="M76.71,250.18c-.6-.08-1.15-.63-1.71-.85-.81-.34-1.62-.68-2.42-1a13.74,13.74,0,0,1-2.22-1.06c-.64-.34-.68-.85-1.23-1.36a2,2,0,0,0-3.11.38c-1.45,2.68,1.57,4.47,3.7,5.2a12.22,12.22,0,0,0,3.88.55c1,0,2-.47,2.94-.51.72,0,1-1.24.17-1.37Z"/>
          <g>
            <g class="cls-18">
              <g class="cls-19">
                <path class="cls-20" d="M87.27,242l.13.13c-1.07,2.69-2.17,5.33-3.24,8,4.35-3,6.48-3.79,7.41-8.65,1.54-7.75.09-19.42-.25-27.13-.77-15.93.08-31.78.21-47.66,0-7.8,2.77-37.83,4.26-44.9,1.75-8.39,2.64-17,3.71-25.47a58,58,0,0,0,.63-12.14c-.34-4.34-1.7-8.52-1.91-12.86-.34-7-5.63-12.91-12.91-12.91-6.77,0-54,11.46-53.71,18.49.21,4.26,5.79,7.11,6.64,11.28.69,3.41,8.78,46.48,8.1,55.46-.64,8.44,9.15,18.19,9,26.62-.38,17,6.18,34.34,8.74,51.42,1.1,7.32-5.5,14-3.71,20.61.9,3.32,11.88,5.92,14.95,7.71a10.5,10.5,0,0,0,4.81,1.28c6.22,0-4.85.25,1.84.08A6.33,6.33,0,0,0,87.27,242Z"/>
              </g>
            </g>
            <g class="cls-18">
              <g class="cls-19">
                <path class="cls-21" d="M82.2,237.62l.13.13-1.92,8.43c3.79-3.66-8.18-120.07-7.88-127.27.34-8.56-1.91-18.45-2.25-27a61.11,61.11,0,0,0-1.37-12.09c-1.06-4.22-3.11-8.14-4-12.36C63.37,60.6,57.2,55.65,50,56.85,43.31,58-1.45,77,0,83.89.93,88,6.94,89.94,8.43,94c1.23,3.23,16.31,44.38,17.12,53.37.77,8.43,12.05,16.44,13.25,24.79C41.27,189,50.51,205,55.88,221.39c2.3,7-3.07,14.74-.26,21,1.41,3.11,12.7,3.87,16,5.15a10.35,10.35,0,0,0,5,.47c6.14-1-4.73,1,1.79-.21a6.33,6.33,0,0,0,3.79-10.14Z"/>
              </g>
            </g>
            <g class="cls-18">
              <g class="cls-22">
                <path class="cls-23" d="M143.45,61.36c-6.13-4.21-15.29.34-18.65,4.77-4.48,5.84-10.14,30.07-10.91,32.2A157.57,157.57,0,0,0,108.4,117c-3.2,13.07-4.09,22.62-7.88,38.84-1.24,5.24-2.35,22.54-3.41,29-1,6.13-1.19,19.76-1.79,26-.51,5.79.64,29.9,1.24,35.27.89,7.88,9.62,13.12,18.18,13.12,7.29,0,6.82-6.47,5.8-14.35-.47-3.8-2-7.84-5.75-9.59-1.2-.55-2.35-1.06-3.58-1.53-9.5-2.6,1,1.06.51.72l4.64,4.64c2.43,4,.85,5.29,1.15,1.15a37.92,37.92,0,0,1,1.24-5.19,87.22,87.22,0,0,0,1.7-14.48,208.12,208.12,0,0,1,2.69-25.18c1.66-9.58,4.08-18.82,4.72-28.58.64-9.33.77-18.53,2.18-27.77,1.36-9,2.25-18.06,4.17-27,1.28-5.87,3.15-11.5,4-17.46A156.26,156.26,0,0,1,141,78.91c.56-2.3,1-4.68,1.54-7,.29-1.32,1.61-1.79,2.81-3.58,1.57-2.43.25-5.5-1.88-7Z"/>
              </g>
            </g>
            <g class="cls-18">
              <g class="cls-22">
                <path class="cls-24" d="M146.86,61.36c-6.13-4.21-15.29.34-18.66,4.77-4.47,5.84-10.13,30.07-10.9,32.2A159.53,159.53,0,0,0,111.8,117c-3.19,13.07-4.08,22.62-7.88,38.84-1.23,5.24-2.34,22.54-3.4,29-1,6.13-1.2,19.76-1.79,26-.51,5.79.64,29.9,1.23,35.27.9,7.88,9.63,13.12,18.19,13.12,7.29,0,6.82-6.47,5.79-14.35-.46-3.8-2-7.84-5.75-9.59-1.19-.55-2.34-1.06-3.57-1.53-9.5-2.6,1,1.06.51.72l4.64,4.64c2.43,4,.85,5.29,1.15,1.15a37.92,37.92,0,0,1,1.24-5.19,88.29,88.29,0,0,0,1.7-14.48,208.1,208.1,0,0,1,2.68-25.18c1.66-9.58,4.09-18.82,4.73-28.58.64-9.33.77-18.53,2.17-27.77,1.37-9,2.26-18.06,4.18-27,1.28-5.87,3.15-11.5,4-17.46.77-5.24,1.45-10.48,2.73-15.59.55-2.3,1-4.68,1.53-7,.3-1.32,1.62-1.79,2.81-3.58,1.62-2.43.26-5.5-1.87-7Z"/>
              </g>
            </g>
          </g>
          <path class="cls-12" d="M112,97.82c-5.12,8.44-6.35,20.49-8.74,29.86A212,212,0,0,0,98.3,152.3c-1.49,11-2.55,22.07-3.36,33.18-.64,8.61-1.45,17.51-.56,26.11.26,2.6,4.35,2.69,4.14,0-1.54-19.12,1.4-39.14,3.7-58.14a220.87,220.87,0,0,1,4.64-24.79c1.41-6,2.26-12.27,3.62-18.31.9-3.92,2.35-8.35,2-12.4-.08-.25-.34-.34-.46-.13Z"/>
        </g>
      </g>
    </g>
  </g>
</svg>
