<svg id="Layer_1" data-name="Layer 1" xmlns="http://www.w3.org/2000/svg" width="486.29" height="382.93" viewBox="0 0 486.29 382.93">
  <defs>
    <style>
      .cls-1 {
        opacity: 0.5;
      }

      .cls-2 {
        fill: #f9ff00;
      }

      .cls-3 {
        fill: #bfbfbf;
      }

      .cls-4 {
        fill: #9c9c9c;
      }

      .cls-5 {
        fill: #515151;
      }

      .cls-6 {
        fill: #37363b;
      }

      .cls-7 {
        fill: #1e1d22;
      }

      .cls-8 {
        fill: #e2e2e2;
      }

      .cls-9 {
        fill: #fff;
      }

      .cls-10 {
        fill: #bfbbbb;
      }

      .cls-11 {
        fill: #676565;
      }

      .cls-12 {
        fill: #c5c6c4;
      }

      .cls-13 {
        fill: #323232;
      }

      .cls-14 {
        fill: #703100;
      }

      .cls-15 {
        fill: #542000;
      }

      .cls-16 {
        opacity: 0.3;
      }

      .cls-17 {
        fill: #231103;
      }

      .cls-18 {
        fill: #383838;
      }

      .cls-19 {
        fill: #6d0004;
      }

      .cls-20 {
        fill: #370002;
      }

      .cls-21 {
        fill: #ff7676;
      }

      .cls-22 {
        fill: #e55757;
      }

      .cls-23 {
        fill: #bf2028;
      }

      .cls-24 {
        fill: #ff999a;
      }

      .cls-25 {
        fill: #ea7572;
      }
    </style>
  </defs>
  <g>
    <path class="cls-1" d="M236.18,382.93c-1.33,0-2.65,0-3.91-.09h-.14l-2.59-.16-.49,0a70,70,0,0,1-10.17-1.44l-.62-.14a6.87,6.87,0,0,1-.88-.27c-11.64-3.15-14.54-9.57-14.91-14.46-.44-5.86,1.12-9.71,2.5-13.11a35.51,35.51,0,0,0,2.09-6.37c1.67-7.81,4-29.71.06-43.85-1.13-4-2-7.41-2.77-10.22A98.19,98.19,0,0,1,176.14,297c-2.81,0-5.64-.13-8.46-.4a120.65,120.65,0,0,1-5.26,22.05c-.67,1.88-1.35,3.69-2,5.47-3.53,9.36-6.31,16.76-5.22,26.12l.09.62c.06.47.12.93.2,1.4,0,.18.14.74.14.74.09.47.19,1,.31,1.46l.15.65c.19.82.39,1.54.58,2.2l.13.43a7.2,7.2,0,0,1-3.95,8.59l-.4.18c-.69.31-1.41.61-2.14.88a48,48,0,0,1-16,2.77c-.21,0-.42,0-.64,0h-.24l-1.17,0h-.44l-.54,0-1.12,0a6.11,6.11,0,0,1-.86-.08l-1.05-.09c-.59-.05-1.15-.12-1.71-.19s-.89-.12-1.33-.19-1-.15-1.46-.24l-.81-.16c-3,2.27-9.25,4.66-22.76,5.56l-.26,0-1.25.07h-.32c-.57,0-1.15.06-1.73.07h-.36c-.85,0-1.75,0-2.64,0s-1.74,0-2.66,0h-.28c-.72,0-1.39-.05-2.06-.09l-.91,0L86,374.58l-1.35-.14-.63-.07c-.89-.11-1.77-.23-2.64-.37l-.44-.06-1.41-.25-.75-.15-1.31-.27c-.6-.14-1.2-.28-1.8-.44l-.74-.2-.2-.06-1.2-.35-.43-.13-.65-.21a5.34,5.34,0,0,1-.52-.18,40.82,40.82,0,0,1-5.08-2.16,6.5,6.5,0,0,1-.63-.37l-.1-.06c-.22-.15-.44-.31-.65-.48-9.48-7.83-7.87-28.35-1.54-43.69,5.42-13.12,9.82-29.73,10.38-34.78-.72-1-1.87-2.54-2.77-3.75A207.61,207.61,0,0,1,51.2,254.72a98.14,98.14,0,0,1-9,16,18.53,18.53,0,0,0,1.93,4.45l.5.81c4,6.47,11.53,18.54,3.44,37.43-1.4,3.25-2.68,6-3.82,8.36-4.33,9.15-5.23,11.06-1.92,18.44l.66,1.47a7.2,7.2,0,0,1-6.57,10.14,7.09,7.09,0,0,1-3.66-1L31.37,350a25.53,25.53,0,0,1-9.89-11.2,7.26,7.26,0,0,1-3.37-2.67L17.32,335a33.78,33.78,0,0,1-4.63-11.89,6.59,6.59,0,0,1-1,.07,7.19,7.19,0,0,1-4.8-12.56L8.64,309c.33-.73,1.21-3.15,1.21-8.42,0-1.43.1-14.25,3.61-24.28,2.62-7.46,6.65-12.84,11.31-15.35.72-2,1.68-4.19,2.9-6.72,7.21-14.94,8.24-26.48,9.32-38.71.26-2.83.49-5.46.8-8.18l.05-.41c0-.08,0-.16,0-.23-1-23.53,6.35-48.46,20.13-68.39C73,116.5,94.79,102,119.21,97.56a106.65,106.65,0,0,1,19.08-1.65c17.77,0,38,3.85,60.27,11.44A100.21,100.21,0,0,0,205.33,97c.63-1.19,1.27-2.42,1.92-3.67,5.61-10.84,12.59-24.32,26.73-29l.09,0c9.51-3,17.94-4.5,25.78-4.5a55.24,55.24,0,0,1,8.56.64c.14-.45.28-.9.44-1.37,1.78-5.26,5.48-16.21,19.56-16.21a35.36,35.36,0,0,1,15.89,3.61q3.19-.84,6.35-1.41c5.26-8.08,11.67-13.25,19.53-15.78l1.58-.51a7.34,7.34,0,0,1,2.21-.35,7.21,7.21,0,0,1,5.82,3,7.29,7.29,0,0,1,1,1.92,32.13,32.13,0,0,1,11.12,2.34l1.57.62a7.18,7.18,0,0,1,4.55,6.5,28.86,28.86,0,0,1,6.54,4.22l1.22,1a7.19,7.19,0,0,1,2.48,6.38,64.22,64.22,0,0,1,12,8.21c7.26,6.32,13.14,13.79,18.83,21s11.22,14.24,17.44,19.11c3.85,3,7.6,4.53,11.15,4.53,5.49,0,9.2-3.58,11.34-6.58,5.8-8.11,6.28-19.92,5.14-37.57-.2-3.15-.44-6-.68-8.72-1.23-14.14-2.12-24.36,7.31-37C459.65,5.42,470.07,4.5,473.06,4.5c7.31,0,12.87,4.38,13.22,10.41.26,4.71-2.32,8.36-4.78,11a12.45,12.45,0,0,1,2.07,9.65,11.11,11.11,0,0,1-8.78,8.57,163.8,163.8,0,0,0,3.8,16c9.56,34.71,3.59,68.27-16.8,94.49-13,16.66-32.17,26.22-52.71,26.22-1.91,0-3.79-.09-5.65-.26.61,2,1.22,4,1.75,5.62,1.06,3.35,3.25,10.31-.74,15.76-2.5,3.42-6.61,5.15-12.22,5.15h-.84c-6.92-.21-12.82-2.41-18-4.36-2.16-.81-4.39-1.65-6.54-2.27a3,3,0,0,0-.83-.09c-2.16,0-5.81,1.15-9.68,2.36a104.5,104.5,0,0,1-22.29,5l-.52,0a114.76,114.76,0,0,1-6,17.42c-5.37,12.34-15.88,30.43-35.65,47.47-1.46,6.12-3.4,15.89-3.4,24.85,0,15-.77,19.41-2,26.77-.23,1.31-.47,2.72-.74,4.32-.52,3.23-1.18,6.07-1.76,8.58-1.29,5.59-1.91,8.62-.88,11.27,1.68,4.29,2.1,8,1.3,11.43,0,.19-.09.37-.15.56l-.11.37a12.89,12.89,0,0,1-1.11,2.61,13.89,13.89,0,0,1-4.48,4.72c-.07.05-.2.14-.34.22a14.41,14.41,0,0,1-1.53.85l-.47.23c-.46.21-1,.41-1.47.6l-.56.2c-.49.16-1,.31-1.52.45l-.55.15c-.71.17-1.39.31-2.09.43s-1.19.18-1.78.25l0,.09c-.08.28-.16.55-.25.81a11.65,11.65,0,0,1-.91,2c-1.91,3.31-5.7,5.4-12.26,6.78l-.64.13a80.68,80.68,0,0,1-8.09,1.15l-1.35.12-1.2.09-.34,0c-.89.06-1.78.11-2.67.14l-.67,0c-1.12,0-2.22.06-3.29.06Z"/>
    <path class="cls-2" d="M231.68,378.43c-1.33,0-2.64,0-3.91-.09h-.14l-2.58-.16-.5,0a70.1,70.1,0,0,1-10.17-1.45l-.61-.14a7,7,0,0,1-.89-.27c-11.63-3.15-14.54-9.57-14.9-14.46-.44-5.85,1.12-9.71,2.49-13.11a35.51,35.51,0,0,0,2.09-6.37c1.68-7.81,4-29.7.06-43.85-1.13-4-2-7.41-2.77-10.22a98.19,98.19,0,0,1-28.21,4.23c-2.81,0-5.64-.13-8.46-.4a121.44,121.44,0,0,1-5.25,22.05c-.68,1.88-1.36,3.69-2,5.48-3.53,9.36-6.31,16.75-5.22,26.11l.09.63c.06.46.13.92.21,1.39,0,.19.13.74.13.74.09.47.2,1,.31,1.47l.15.65c.2.81.39,1.53.58,2.19l.13.44a7.19,7.19,0,0,1-3.94,8.58l-.41.19c-.69.3-1.4.6-2.14.87a48.3,48.3,0,0,1-16,2.78l-.63,0h-.25l-1.17,0h-.44l-.53,0-1.13,0a8.33,8.33,0,0,1-.86-.08l-1-.09c-.58-.06-1.15-.12-1.71-.2s-.89-.12-1.33-.19-1-.15-1.46-.24l-.81-.16c-3,2.27-9.25,4.66-22.76,5.56l-.25,0-1.25.07-.33,0-1.73.07h-.36c-.85,0-1.74,0-2.64,0s-1.74,0-2.66,0H86.2l-2.07-.1-.91,0-1.76-.14-1.36-.14-.62-.07c-.89-.1-1.78-.23-2.65-.36l-.44-.07L75,369.19l-.75-.15-1.31-.27c-.6-.13-1.2-.28-1.8-.44l-.73-.2-.2-.06c-.4-.11-.8-.22-1.2-.35l-.43-.12-.66-.21-.52-.19A41.47,41.47,0,0,1,62.3,365a5.76,5.76,0,0,1-.63-.37l-.09-.06a8,8,0,0,1-.66-.48c-9.48-7.83-7.86-28.35-1.54-43.69,5.42-13.12,9.82-29.73,10.38-34.78-.72-1-1.87-2.54-2.77-3.75A207.61,207.61,0,0,1,46.7,250.22a96.67,96.67,0,0,1-9,16,18.82,18.82,0,0,0,1.94,4.46l.5.8c4,6.48,11.53,18.54,3.43,37.44-1.39,3.25-2.68,6-3.81,8.36-4.33,9.14-5.24,11.05-1.93,18.43l.66,1.47a7.2,7.2,0,0,1-10.23,9.14l-1.39-.83A25.59,25.59,0,0,1,17,334.28a7.12,7.12,0,0,1-3.36-2.67l-.8-1.16A34.09,34.09,0,0,1,8.2,318.56a6.82,6.82,0,0,1-1,.07,7.2,7.2,0,0,1-4.8-12.56l1.74-1.55c.33-.73,1.21-3.16,1.21-8.43,0-1.43.1-14.24,3.62-24.27,2.61-7.47,6.64-12.85,11.3-15.36.72-2,1.68-4.19,2.9-6.71,7.22-14.94,8.24-26.49,9.33-38.71.25-2.84.48-5.47.8-8.18l0-.42c0-.08,0-.15,0-.23-1-23.53,6.36-48.46,20.13-68.39C68.54,112,90.3,97.52,114.71,93.06a106.68,106.68,0,0,1,19.09-1.65c17.76,0,38,3.85,60.26,11.44a99.15,99.15,0,0,0,6.77-10.4c.63-1.18,1.27-2.41,1.92-3.67,5.61-10.84,12.6-24.32,26.73-29l.09,0c9.51-3,17.94-4.49,25.79-4.49a56.48,56.48,0,0,1,8.55.63c.14-.44.28-.9.44-1.37,1.78-5.26,5.48-16.21,19.56-16.21a35.57,35.57,0,0,1,15.9,3.61c2.12-.56,4.24-1,6.34-1.4,5.26-8.08,11.67-13.26,19.53-15.79l1.59-.51a7.22,7.22,0,0,1,8,2.62,7.45,7.45,0,0,1,1,1.92,32.23,32.23,0,0,1,11.13,2.34l1.57.63a7.2,7.2,0,0,1,4.55,6.5,28.91,28.91,0,0,1,6.54,4.21l1.21,1a7.21,7.21,0,0,1,2.48,6.39,63.27,63.27,0,0,1,12,8.21c7.26,6.31,13.14,13.78,18.83,21s11.22,14.25,17.44,19.11c3.85,3,7.61,4.54,11.16,4.54,5.48,0,9.19-3.58,11.34-6.59,5.79-8.11,6.27-19.92,5.14-37.57-.21-3.15-.45-6-.69-8.72-1.23-14.14-2.12-24.36,7.31-37C455.16.92,465.58,0,468.56,0c7.31,0,12.87,4.38,13.22,10.41.27,4.72-2.32,8.36-4.78,11A12.38,12.38,0,0,1,479.07,31a11.1,11.1,0,0,1-8.78,8.57c.75,4.9,2.78,12.27,3.8,16,9.56,34.71,3.59,68.27-16.79,94.49-13,16.66-32.17,26.22-52.72,26.22-1.9,0-3.79-.09-5.65-.26.62,2,1.22,4,1.75,5.63,1.06,3.34,3.26,10.3-.74,15.75-2.5,3.42-6.61,5.15-12.22,5.15h-.84c-6.92-.2-12.82-2.41-18-4.36-2.16-.81-4.39-1.65-6.53-2.27a3.13,3.13,0,0,0-.83-.09c-2.17,0-5.82,1.15-9.69,2.36a104.36,104.36,0,0,1-22.29,5l-.52.05a115,115,0,0,1-6,17.41c-5.37,12.34-15.88,30.43-35.64,47.47-1.47,6.12-3.41,15.89-3.41,24.86,0,15-.77,19.4-2,26.76-.23,1.32-.47,2.72-.73,4.32-.53,3.23-1.19,6.07-1.77,8.58-1.29,5.59-1.91,8.63-.88,11.27,1.68,4.3,2.1,8,1.3,11.43,0,.19-.09.37-.14.56,0,0-.1.33-.12.37a12.89,12.89,0,0,1-1.11,2.61,13.82,13.82,0,0,1-4.48,4.73l-.34.21a16.55,16.55,0,0,1-1.53.86l-.47.22q-.69.31-1.47.6l-.56.2c-.49.17-1,.31-1.52.45l-.55.15c-.71.17-1.39.31-2.09.43s-1.19.19-1.78.25l0,.09c-.08.28-.16.55-.25.82a11.14,11.14,0,0,1-.91,2c-1.91,3.31-5.69,5.4-12.26,6.78l-.64.13a80.27,80.27,0,0,1-8.09,1.15l-1.35.12-1.2.09-.34,0c-.89.06-1.78.11-2.66.14l-.67,0c-1.13,0-2.23.06-3.3.07Z"/>
    <g>
      <g>
        <path class="cls-3" d="M48.77,222.39s-8.19,29.57-20.25,43c-2.5,1.36-4-.74,1.6-12.28,9.55-19.79,9.16-34.81,10.83-49.36C46,210.79,48.77,222.39,48.77,222.39Z"/>
        <path class="cls-4" d="M48.77,222.39s-8.19,29.57-20.25,43c-1.36.74-2.42.45-2.2-1.83,10-10.85,18.26-37.86,18.77-52.2A76.85,76.85,0,0,1,48.77,222.39Z"/>
        <path class="cls-5" d="M26.12,265.59c-1-1.56.21-5.83,3.53-12.72,7.79-16.12,8.92-28.87,10-41.2.25-2.75.48-5.35.78-8l.15-1.31.78,1.07c5.08,7.05,7.78,18.35,7.9,18.83l0,.13,0,.13c-.08.29-8.36,29.84-20.36,43.19l-.13.11a3.09,3.09,0,0,1-1.41.43h0A1.41,1.41,0,0,1,26.12,265.59Zm22.12-43.21c-.3-1.21-2.72-10.69-6.93-17.21-.23,2.16-.42,4.33-.63,6.59-1.1,12.42-2.24,25.27-10.1,41.56-4.42,9.15-3.87,11.29-3.6,11.72a.39.39,0,0,0,.38.19h0a1.82,1.82,0,0,0,.84-.26C39.61,252.21,47.64,224.5,48.24,222.38Z"/>
      </g>
      <g>
        <path class="cls-6" d="M27.84,262.88c2.11.87,1.59,5.91,5.23,11.83S43.31,290,36.48,305.87s-11.6,19.79-5.68,33c-6.14-3.64-11.6-12.74-7.28-28.66-3.19,4.55-4.32,15.92-4.32,15.92S11.46,314.74,17.83,302c-4.77,6.37-8,7.74-8,7.74s3.19-2.73,3.19-13.65c0-5.09.72-14.7,3.18-21.73C19.06,266.31,23.89,261.24,27.84,262.88Z"/>
        <path class="cls-7" d="M19.88,292.68c1.36,4.77,1.36,10.23,1.36,15,2.05-2.73,4.61-8.5,6.66-11.23-.68,4.78-1.2,11.91.17,16.69,3.41-9.56,10.23-19.11,5.46-30-2.61-6.51-5.83-13-5.52-20.14,1.9,1.08,1.53,6,5.06,11.73,3.64,5.91,10.24,15.24,3.41,31.16s-11.6,19.79-5.68,33c-6.14-3.64-11.6-12.74-7.28-28.66-3.19,4.55-4.32,15.92-4.32,15.92S11.46,314.74,17.83,302c-4.77,6.37-8,7.74-8,7.74a4.88,4.88,0,0,0,.87-1.19C15.29,305.13,16.83,297.77,19.88,292.68Z"/>
        <path d="M30.54,339.29c-2.86-1.69-11.3-8.19-8.56-24.51a64.92,64.92,0,0,0-2.27,11.38l-.14,1.41-.8-1.17c-.07-.11-6.54-9.84-2.76-21.32-3.55,4.07-5.82,5.08-5.94,5.13L7.2,311.44l2.33-2.09s3-2.81,3-13.26c0-4.73.68-14.66,3.22-21.89s6.72-12.14,10.55-12.14a4.52,4.52,0,0,1,1.73.34c1.26.53,1.7,2.1,2.31,4.26a28.49,28.49,0,0,0,3.16,7.78l.51.82c3.8,6.12,9.55,15.37,2.94,30.81-1.34,3.11-2.6,5.77-3.71,8.12-4.57,9.64-6.65,14.05-2,24.45l.66,1.47ZM16.72,274.53c-2.49,7.11-3.15,16.9-3.15,21.56,0,6.22-1,9.86-2,11.86a34.19,34.19,0,0,0,5.8-6.26l.87.54c-4.93,9.86-1.15,19,.58,22.3.43-3.3,1.68-11,4.23-14.63l1.68-2.4L24,310.32c-4.51,16.65,1.93,24.27,5.63,27.12-3.93-9.72-1.64-14.54,2.69-23.69,1.1-2.34,2.36-5,3.68-8.08,6.41-15,.83-23.93-2.86-29.87l-.51-.83a29.58,29.58,0,0,1-3.28-8c-.53-1.89-.91-3.26-1.72-3.59a3.36,3.36,0,0,0-1.33-.27C23,263.08,19.12,267.68,16.72,274.53Z"/>
      </g>
      <g>
        <path class="cls-3" d="M157,277.89s-1.14,19.11-6.37,33.67-11.14,25.7-5.91,43.44c-9.1,4.1-24.57,4.32-35-1.59-3-22.52,3.18-35.49,9.32-46.18s11.61-34.12,11.61-34.12Z"/>
        <path class="cls-8" d="M155.68,284.49c.35-1.4.87-3,1.21-4.64-.44,5.23-2,19.95-6.22,31.71-5.23,14.55-11.14,25.7-5.91,43.44a28.75,28.75,0,0,1-3.57,1.31C129.88,334.22,149.16,317.1,155.68,284.49Z"/>
        <path class="cls-4" d="M119.05,307.23c6.15-10.69,11.61-34.12,11.61-34.12l9.21,1.67c-3,15.16-5.21,30.75-11.49,45.19-5.59,12.42-6.09,29.93,6.74,37.61-8.32,1.09-18.08,0-25.39-4.17C106.77,330.89,112.91,317.92,119.05,307.23Z"/>
        <path class="cls-5" d="M109.48,353.85l-.23-.12,0-.25c-3-22.65,3.29-35.88,9.39-46.5s11.49-33.75,11.55-34l.11-.48,27.31,5,0,.45c0,.19-1.2,19.35-6.4,33.81-.66,1.84-1.33,3.62-2,5.37-4.52,12-8.43,22.42-3.91,37.76l.13.42-.41.19a40,40,0,0,1-15.92,3h0C121.71,358.49,114.76,356.84,109.48,353.85Zm38.73-37.11c.65-1.75,1.32-3.52,2-5.36,4.7-13.08,6.1-30.09,6.31-33.07L131,273.7c-.82,3.39-5.92,24-11.54,33.79-6,10.44-12.15,23.42-9.3,45.6a39.66,39.66,0,0,0,18.85,4.37,39.19,39.19,0,0,0,15.09-2.75C139.72,339.28,143.66,328.83,148.21,316.74Z"/>
      </g>
      <path class="cls-5" d="M153.93,298.56l.71-.73a13.2,13.2,0,0,0-6.75-3.31,10.16,10.16,0,0,0-5.8.71C142.16,295.22,149.7,294.42,153.93,298.56Z"/>
      <path class="cls-5" d="M150,301.61a14.55,14.55,0,0,1-10.62-2.12,4.23,4.23,0,0,0,2.38,2.38,10.63,10.63,0,0,0,4.37,1A7.2,7.2,0,0,0,150,301.61Z"/>
      <path class="cls-5" d="M147,309.71a29.54,29.54,0,0,0,4.72-.38l-.16-1c-9.67,1.54-16.08-2.39-16.15-2.43A18.22,18.22,0,0,0,147,309.71Z"/>
      <g>
        <polygon points="129.19 358.51 127.51 357.26 127.06 357.53 125.92 358.39 129.19 358.51"/>
        <g>
          <path class="cls-9" d="M120.42,346.36c6.37,1.48,7,11.51,7,11.51l-.1.07A39.29,39.29,0,0,1,110,353.55C110.09,353.38,114.12,344.89,120.42,346.36Z"/>
          <path class="cls-10" d="M118.49,346.21c-.87,2.24-1.72,4.68-.35,6.52,1.27,2.52,5.54,5,9.31,4.87,0,.17,0,.27,0,.27l-.1.07A39.29,39.29,0,0,1,110,353.55C110.08,353.4,113.31,346.61,118.49,346.21Z"/>
          <path class="cls-11" d="M127.36,358.45A39.44,39.44,0,0,1,109.77,354l-.43-.23.21-.43c.15-.32,3.66-7.66,9.41-7.66a7.16,7.16,0,0,1,1.58.18c6.66,1.55,7.41,11.55,7.44,12l0,.28-.29.22-.34-.39.31.41-.14.11Zm-16.66-5.11a38.71,38.71,0,0,0,16.21,4.07c-.24-2-1.47-9.36-6.61-10.55a5.52,5.52,0,0,0-1.34-.16C114.6,346.7,111.52,351.81,110.7,353.34Z"/>
        </g>
        <g>
          <path class="cls-9" d="M137.65,344a8.2,8.2,0,0,1,5.37,2.67,50.13,50.13,0,0,0,1.74,8.36A40.39,40.39,0,0,1,127.58,358l-.11-.08C128,356,130.43,344,137.65,344Z"/>
          <path class="cls-10" d="M133.44,345.57c-1.42,8.52,4.43,10.57,10.87,9.61A40.78,40.78,0,0,1,127.58,358l-.11-.08C127.91,356.39,129.44,348.9,133.44,345.57Z"/>
          <path class="cls-11" d="M127.57,358.46l-.21,0-.48-.36.1-.34c0-.17.12-.42.2-.74.87-3.34,3.51-13.52,10.47-13.52,1.84,0,3.77,1,5.73,2.81l.13.13,0,.18a49.25,49.25,0,0,0,1.72,8.28l.13.42-.41.19a39.88,39.88,0,0,1-15.91,3h0C128.56,358.48,128.06,358.48,127.57,358.46Zm15-11.57c-1.72-1.6-3.36-2.41-4.9-2.41-6.16,0-8.65,9.6-9.47,12.76l-.06.21h.95a39.13,39.13,0,0,0,15.08-2.75A49.16,49.16,0,0,1,142.54,346.89Z"/>
        </g>
      </g>
      <g>
        <path class="cls-3" d="M282.26,257.53s-6,18.54-6,35.49-1,19.4-2.67,29.83-4.95,16.91-2.22,23.91.82,11.05-7.2,12.41-13.33-2-16.45-6.61,6.76-50.17,6.76-50.17l3.07-26.77Z"/>
        <path class="cls-8" d="M268.81,331.32c4.09-15.7,2.87-31.82,4.24-47.52.58-8.75,4.16-17,7.75-25.2l1.46-1.07s-6,18.54-6,35.49-1,19.4-2.67,29.83-4.95,16.91-2.22,23.91c1.52,3.89,2.07,5.69.46,7.81C267.3,347,266.37,339.45,268.81,331.32Z"/>
        <path class="cls-4" d="M254.45,302.39l3.07-26.77L269.35,267c-.15.61-.29,1.21-.4,1.82-4.28,16.72-4.91,37-8,54.82-5.28,30.26,5,31.71,10.86,31.4-1.12,2.09-3.61,3.47-7.66,4.16-8,1.37-13.33-2-16.45-6.61S254.45,302.39,254.45,302.39Z"/>
        <path class="cls-5" d="M247.26,352.84c-3.16-4.65,5.68-45.88,6.69-50.51l3.09-27,26.2-19.15-.49,1.51c-.06.19-6,18.66-6,35.33,0,14.35-.69,18.32-1.94,25.54-.23,1.32-.48,2.75-.74,4.37-.5,3-1.12,5.73-1.68,8.13-1.37,6-2.46,10.67-.57,15.51,1.47,3.77,1.59,6.65.37,8.8s-3.85,3.61-8,4.31a21.1,21.1,0,0,1-3.57.31h0A15.65,15.65,0,0,1,247.26,352.84ZM258,275.9,255,302.5c-2.74,12.61-9.3,46.14-6.84,49.77a14.64,14.64,0,0,0,12.55,6.7,20,20,0,0,0,3.39-.3c3.8-.65,6.17-1.89,7.25-3.8s.92-4.46-.43-7.93c-2-5.14-.89-10,.52-16.11.55-2.38,1.18-5.09,1.67-8.06.26-1.63.51-3.06.74-4.38,1.24-7.16,1.92-11.11,1.92-25.37,0-14.09,4.2-29.42,5.6-34.17Z"/>
      </g>
      <path class="cls-5" d="M268.07,325.8a12.26,12.26,0,0,0,5.51-1.28l-.46-.91a12.61,12.61,0,0,1-10.42,0,6.36,6.36,0,0,0,4.11,2.13Q267.41,325.8,268.07,325.8Z"/>
      <path class="cls-5" d="M274.59,314.38l.88-.53a10.12,10.12,0,0,0-6.66-4.64,8.18,8.18,0,0,0-5.48.77C263.41,310,271.17,308.65,274.59,314.38Z"/>
      <path class="cls-5" d="M273.64,320.82l.66-.79a10.82,10.82,0,0,0-6-2,9.39,9.39,0,0,0-4.95,1.17C263.39,319.19,270.46,318.16,273.64,320.82Z"/>
      <g>
        <path class="cls-9" d="M262.47,349.09a11.62,11.62,0,0,1,9.75,4.87c-.8,2.69-3.39,4.42-8.08,5.21a16.15,16.15,0,0,1-11.91-2.09C253.35,354.8,256.63,349.36,262.47,349.09Z"/>
        <path class="cls-10" d="M257.24,350.94c-.78,4.14,7.43,8.54,14.94,3l0,0c-.8,2.69-3.39,4.42-8.08,5.21a16.15,16.15,0,0,1-11.91-2.09A16.66,16.66,0,0,1,257.24,350.94Z"/>
        <path class="cls-11" d="M252,357.51l-.38-.25.2-.41c1.18-2.39,4.58-8,10.68-8.27a12.18,12.18,0,0,1,10.18,5.07l.16.21-.08.25c-.88,2.92-3.65,4.75-8.48,5.57a21.1,21.1,0,0,1-3.57.31h0A15.65,15.65,0,0,1,252,357.51Zm10.55-7.91c-5.24.24-8.34,4.89-9.6,7.29a15.87,15.87,0,0,0,11.15,1.78c4.27-.73,6.76-2.23,7.6-4.61A11.07,11.07,0,0,0,262.5,349.6Z"/>
      </g>
      <g>
        <path class="cls-12" d="M324,186.23s-.91,53.45-61.87,90.75c-26.84,3.19-54.14,0-54.14,0s-32.33,16.56-67.82,1.5c.59,6.43,1.52,13-5.65,22s-20.24,29.23-22.06,37.42c-1.59,6.14,2.5,17.52,1.59,20.25s-31.39,8.64-48.22,0c-5.23-4.33-5.23-20.48.68-34.81s11.83-35.71,10.92-39.8-34.58-38-36.4-81.66,26.84-92.46,75.07-101.28,111,23.22,127.38,33.15S324,186.23,324,186.23Z"/>
        <g>
          <path class="cls-8" d="M117.68,317c7.88-11.87,18.19-22.63,18.19-32.21,0-20.44-9.09-55.36-20.55-83.3,10.3,18.68,17.84,36.58,19.88,46.14,1.78,10.67,5.19,30.93,5,30.84.59,6.43,1.52,13-5.65,22s-20.24,29.23-22.06,37.42c-1.59,6.14,2.5,17.52,1.59,20.25-.17.52-1.45,1.17-3.52,1.8C104.23,340.11,107.09,333,117.68,317Z"/>
          <path class="cls-8" d="M243.48,133.79c2.51,1.52,6.14,3.8,10.48,6.58-5.64.55-11.05,4.34-15,1.5-44.36-33.44-110.71-47.05-146-31.39-2.28,1-4.78,1.45-7.17,2.25a83.06,83.06,0,0,1,30.37-12.09C164.32,91.82,227.05,123.86,243.48,133.79Z"/>
        </g>
        <g>
          <path class="cls-4" d="M198.67,246.27C200,256.51,211,262,219.82,264c17.74,4.1,40.26,1.37,51.18-16.37,6.1,14.64,24.74.64,29.66-4.45-9,11.51-21.37,23.29-38.53,33.79-26.84,3.19-54.14,0-54.14,0s-31.94,16.35-67.17,1.76c-1.59-15.33-6.19-30-10.39-44.75C146.81,253.78,177.51,264.7,198.67,246.27Z"/>
          <path class="cls-4" d="M275.47,194.07s-29.48,9.67-37-6c-2-4.77-2.28-14.1-4.33-18.2-10.14-16.48-24.4-32.38-21.44-51.52a270.54,270.54,0,0,1,30.77,15.47c16.43,9.94,80.52,52.44,80.52,52.44a72.83,72.83,0,0,1-2.5,15.28C307.34,205,292.52,203.74,275.47,194.07Z"/>
          <path class="cls-4" d="M41,201.92c-1.37-33,14.63-68.85,43.3-88.25-31.92,25.92-38.18,115.38,9.8,171.06C89.29,302,81.79,317.59,78.57,335.67c-1.65,9.89,2.89,18,5.08,26.85-6.39-.44-12.73-1.72-17.82-4.33-5.23-4.33-5.23-20.48.68-34.81s11.83-35.71,10.92-39.8S42.85,245.59,41,201.92Z"/>
        </g>
        <path class="cls-5" d="M65.59,358.64l-.09-.06c-5.59-4.62-5.34-21.16.54-35.39s11.76-35.6,10.89-39.5c-.17-.75-1.94-3.11-4.19-6.1C63.53,265.34,42,236.64,40.52,201.94c-.91-22,6-45.36,18.86-64,14-20.25,34.1-33.66,56.63-37.78a98.64,98.64,0,0,1,17.79-1.53c41.52,0,90.07,22.73,109.94,34.74,16.26,9.83,79.9,52,80.54,52.45l.24.16v.28c0,.13-.32,13.67-8.11,31.58-7.19,16.51-22.4,40.26-54,59.6l-.1.06h-.11a222.89,222.89,0,0,1-26,1.42h0a276.1,276.1,0,0,1-28.07-1.4,89.11,89.11,0,0,1-36.45,7.81,80.58,80.58,0,0,1-30.88-6c.58,6.27,1.14,12.76-5.84,21.56-7.57,9.56-20.2,29.28-22,37.23-.89,3.46.1,8.79.9,13.07.62,3.32,1.11,5.94.69,7.21-.71,2.13-13.16,4.87-25.41,4.87C82.46,363.22,73,362.43,65.59,358.64ZM140.37,278a79.61,79.61,0,0,0,31.27,6.28,87.39,87.39,0,0,0,36.12-7.77l.14-.07.15,0a270.55,270.55,0,0,0,28.12,1.41A223.79,223.79,0,0,0,262,276.49c31.29-19.18,46.35-42.68,53.48-59s7.95-29,8-31c-4.31-2.86-64.54-42.76-80.27-52.27-19.78-12-68.11-34.6-109.41-34.6a98.48,98.48,0,0,0-17.61,1.51c-49,9-76.42,58.26-74.64,100.76,1.43,34.38,22.86,62.9,32,75.08,2.81,3.73,4.16,5.56,4.37,6.49,1,4.46-5.43,26.74-11,40.11-6.13,14.85-5.51,30.25-.87,34.18,7.18,3.67,16.48,4.44,23,4.44,13.12,0,23.92-2.93,24.43-4.18.34-1-.17-3.77-.72-6.69-.81-4.38-1.83-9.84-.88-13.5,1.79-8.07,14.52-28,22.16-37.62,6.76-8.53,6.18-14.83,5.61-20.93l-.14-1.61Z"/>
      </g>
      <path class="cls-5" d="M140.09,284.18l1-.06c-1.4-23.58-7.69-44.47-13.6-59.41-5.79-14.63-12.2-23.21-12.2-23.21C115.54,201.86,137.35,237.77,140.09,284.18Z"/>
      <path class="cls-5" d="M135.87,293.22a7,7,0,0,0-2.51-4.73,15.51,15.51,0,0,0-8.14-3.55c-2.2-.3-7.54,1.41-7.54,1.41C131.41,283.41,135.7,292.82,135.87,293.22Z"/>
      <path class="cls-5" d="M131.23,295.11a12.19,12.19,0,0,0-2.57-3.12,24.33,24.33,0,0,0-6.77-2.71,10.48,10.48,0,0,0-6.1.38A23.6,23.6,0,0,1,131.23,295.11Z"/>
      <path class="cls-5" d="M124.41,301.5a22.4,22.4,0,0,0,2.42-.12c1.57-.16,4.57-2,4.57-2-8.78,3-16.93-1-17-1a9.88,9.88,0,0,0,5,2.65A25.58,25.58,0,0,0,124.41,301.5Z"/>
      <g>
        <path d="M114.64,357.91a4,4,0,0,0,0-.63l-1-.06,0,.57Z"/>
        <g>
          <path class="cls-9" d="M83.68,350.34c6,.68,10.6,12.22,10.6,12.22-7.61.44-16.19,0-23.4-2.31h0S77.71,349.66,83.68,350.34Z"/>
          <path class="cls-10" d="M82.24,350.39c-1.81,1.68-3.75,4.36-2.31,7.52,1.19,2.62,9,4.27,14.2,3.74a7.36,7.36,0,0,1,.15.91c-7.61.44-16.19,0-23.4-2.31C70.88,360.25,76.67,351.28,82.24,350.39Z"/>
          <path class="cls-11" d="M70.73,360.73l-.64-.2.36-.56c.28-.43,7.09-10.85,13.29-10.14s10.82,12.05,11,12.53L95,363l-.71,0c-1.74.1-3.48.15-5.18.15h0A60.94,60.94,0,0,1,70.73,360.73Zm12.9-9.88c-4.84-.56-10.44,7-11.93,9.11a60.77,60.77,0,0,0,17.43,2.24c1.44,0,2.92,0,4.39-.11C91.78,358.06,87.83,351.33,83.63,350.85Z"/>
        </g>
        <g>
          <path class="cls-9" d="M94.28,362.56s4-14,9.88-14.27,10,9,10,9h0l-.05.56a1.9,1.9,0,0,1-.08.36C113.57,359.63,104.87,362,94.28,362.56Z"/>
          <path class="cls-10" d="M94.28,362.56s3.57-12.65,9-14.12a6.24,6.24,0,0,0-.94,8.07c1.85,2.43,7.06,2.55,11.65,1.79C113.1,359.75,104.59,362,94.28,362.56Z"/>
          <path class="cls-11" d="M93.77,362.56c0-.15,4-14.54,10.37-14.78h.23c6.11,0,10.32,9.06,10.32,9.53l0,.6a4.13,4.13,0,0,1-.1.44c-.65,1.93-10.1,4.14-20.23,4.72l-.54,0Zm10.6-13.76h-.2c-4.3.17-7.9,9-9.19,13.2,10.65-.69,18.17-3,18.58-4a1.67,1.67,0,0,0,.06-.24l0-.43C113.17,356.33,109.44,348.8,104.37,348.8Z"/>
        </g>
      </g>
      <g>
        <path class="cls-3" d="M198.94,246.36l71,.94s-4.1,21-6.83,34.63-3.75,35-6.14,44-6.14,22.08-6.14,25c4.44,4.83,6.82,11.82,4.95,15.06s-17.06,5.12-27.81,4.61-21.84-2.56-22.35-9.38,2.73-9.33,4.44-17.29,4.49-31.29-.06-47.55-5.51-21.82-5.51-21.82S194.85,269.11,198.94,246.36Z"/>
        <path class="cls-8" d="M245.89,351.77c.67-1.1,5.15-13.35,8.05-30.95,3.81-23.08,3.69-41.62,15.43-70.42-1.24,6.34-4.13,21.08-6.22,31.53-2.73,13.65-3.75,35-6.14,44s-6.14,22.08-6.14,25c4.3,4.68,6.66,11.37,5.1,14.74C254.35,360.53,250,355.23,245.89,351.77Z"/>
        <path class="cls-4" d="M198.94,246.36s1.55,14,9.08,1.92c-1.68,11.07,3,24.46,8.09,35.9,6.6,14.76,9.07,26.06,7,41.62-3,22.42-4,29.47,4.93,44.84-9.36-.82-21.9-3.39-22.35-9.38-.51-6.83,2.73-9.33,4.44-17.29s4.49-31.29-.06-47.55-5.51-21.82-5.51-21.82S194.85,269.11,198.94,246.36Z"/>
        <path class="cls-5" d="M231.61,371.23c9.92,0,22.76-1.67,24.65-4.94s-.28-10.43-4.87-15.51c.12-2.51,2.4-10.94,4.42-18.4.6-2.2,1.18-4.34,1.7-6.31,1.24-4.69,2.11-12.67,3-21.12.88-8,1.79-16.33,3.11-22.92,2.69-13.49,6.78-34.43,6.82-34.64a109.69,109.69,0,0,0-3.84,14.27c-1.28,6.52-2.77,14.1-4,20.17-1.32,6.63-2.24,15-3.12,23-.92,8.41-1.79,16.35-3,21-.52,2-1.1,4.11-1.7,6.3-2.19,8.1-4.46,16.48-4.46,18.86v.2l.13.15c4.34,4.71,6.62,11.47,4.89,14.46s-16.48,4.87-27.34,4.35c-14.12-.67-21.47-3.67-21.87-8.91-.29-3.94.69-6.36,1.93-9.42a44.12,44.12,0,0,0,2.5-7.72c1.5-7,4.7-30.77-.07-47.8-4.48-16-5.48-21.71-5.49-21.77l0-.24-.22-.12c-.1-.06-9.81-5.74-5.84-27.79,0,0-2.11,8.76-1.94,12.19.6,11.58,5.9,15.61,7.07,16.37.23,1.21,1.47,7.32,5.48,21.64,4.36,15.58,1.91,38.59,0,47.3a42.42,42.42,0,0,1-2.45,7.55c-1.24,3.06-2.31,5.7-2,9.88.44,5.84,8.12,9.16,22.84,9.86C229.13,371.21,230.34,371.23,231.61,371.23Z"/>
      </g>
      <path class="cls-5" d="M204,274.65l1-.11a62.38,62.38,0,0,1,3-26.26,28.2,28.2,0,0,0-3.59,10.51A63.59,63.59,0,0,0,204,274.65Z"/>
      <g>
        <g>
          <path class="cls-9" d="M229.29,357.42c7.25.85,9.71,13,9.72,13a93,93,0,0,1-11,.2,69.8,69.8,0,0,1-11.9-1.45S222.05,356.57,229.29,357.42Z"/>
          <path class="cls-10" d="M226.24,357.82c-2.43,3.65-4,7.42-.28,9.92,3.92,2.61,8.47,2.1,13,2.65v.05a93,93,0,0,1-11,.2,69.8,69.8,0,0,1-11.9-1.45S220.45,360,226.24,357.82Z"/>
          <path class="cls-11" d="M228,371.15a69.56,69.56,0,0,1-12-1.46l-.62-.14.27-.58c.24-.51,6.19-12.93,13.7-12.06s10.14,13.32,10.16,13.44l.09.56-.56,0c-2.48.19-5,.28-7.36.28h0C230.4,371.23,229.16,371.21,228,371.15Zm1.24-13.22c-5.95-.71-11.11,8.48-12.36,10.9a70.5,70.5,0,0,0,11.17,1.3c1.15.05,2.37.08,3.64.08h0c2.18,0,4.43-.08,6.69-.24C237.78,367.6,235.16,358.62,229.23,357.93Z"/>
        </g>
        <g>
          <path class="cls-9" d="M255.82,366c-1.28,2.22-8.77,3.79-16.81,4.41,0,0,2.72-14.44,8.53-15.33,2.37-.42,6.87,3.05,8.85,6.94A6.46,6.46,0,0,1,255.82,366Z"/>
          <path class="cls-10" d="M247,355.25c-1.7,2.51-3.89,6.47-2.13,9.42,2.44,3.4,10.54,1.11,11.49,0a4.88,4.88,0,0,1-.51,1.39c-1.28,2.22-8.77,3.79-16.81,4.41C239,370.43,241.55,357,247,355.25Z"/>
          <path class="cls-11" d="M238.5,370.35c0-.14,2.75-14.79,8.95-15.74,2.65-.47,7.33,3.16,9.4,7.2l0,.18a6.9,6.9,0,0,1-.64,4.3c-1.88,3.25-13.65,4.39-17.22,4.66l-.65.05ZM248,355.59l-.34,0c-4.25.65-7.07,9.95-8,14.25,8.43-.7,14.71-2.33,15.74-4.09a6,6,0,0,0,.51-3.58C254,358.53,250,355.59,248,355.59Z"/>
        </g>
      </g>
      <path class="cls-5" d="M255.14,317a5.79,5.79,0,0,0-3.3-3.43,15.42,15.42,0,0,0-6.84-1.21c-1.6.07-5,1.95-5,1.95C250,311.16,255.09,317,255.14,317Z"/>
      <path class="cls-5" d="M244.67,329.65A17,17,0,0,0,251,328.5c1.69-.67,4.2-3.9,4.2-3.9-8.39,8-20.55,1.69-20.68,1.63a9.93,9.93,0,0,0,5,2.8A22.93,22.93,0,0,0,244.67,329.65Z"/>
      <path class="cls-5" d="M248.54,323.37c1.08,0,3.12-1.39,3.12-1.39-6,1.44-11.49-2-11.55-2a5.16,5.16,0,0,0,2.78,2.39,17.45,17.45,0,0,0,5.31,1Z"/>
      <g>
        <g>
          <path class="cls-3" d="M269.68,67a36,36,0,0,1,2-10c2.09-6.2,4.37-10.94,12.22-10.94S298.5,49,301.24,52.78C295.77,57,269.68,67,269.68,67Z"/>
          <path class="cls-4" d="M271.69,57c2-5.8,4.08-10.32,10.76-10.88-2.7,5.15-4,11.88-1.63,16.46C274.71,65.07,269.68,67,269.68,67A36,36,0,0,1,271.69,57Z"/>
          <path class="cls-5" d="M269.13,67a35.9,35.9,0,0,1,2-10.2c2.09-6.19,4.5-11.32,12.74-11.32,7.65,0,14.79,2.81,17.77,7l.31.43-.42.32c-5.47,4.2-30.63,13.9-31.69,14.31l-.76.29Zm14.78-20.42c-7.53,0-9.68,4.58-11.71,10.57a38.49,38.49,0,0,0-1.93,9c4.28-1.67,24.64-9.69,30.19-13.53C297.5,49,291,46.58,283.91,46.58Z"/>
        </g>
        <g>
          <path class="cls-12" d="M387.7,165.79s3.41,11.3,5.6,18.24,2.06,11.06-6.21,10.82-15.07-4.13-22.61-6.32-18.37,5.35-35.7,7-41.41,3.83-57.46-29.37S269.13,65.8,269.13,65.8s17.51-15.06,41.78-18.22c5.83-10.4,12-13.86,17.14-15.51-3.28,4.56-6.93,11.13-6.93,11.13s8.21-10.94,23.44-4.92c-3.56.91-14.83,6.93-14.83,6.93s14.38-6.2,25.32,3.1c-4.2-.18-15.32,1.64-15.32,1.64s17,1.76,31,13.93,23.21,29.91,36.58,40.37,26.27,6.57,33.57-3.65S448.63,77,447.41,58s-4.13-28.22,5.11-40.62S473.8,6.6,474.05,10.85s-6.81,8.15-7.18,10.22c2.68,3.4,5.23,5.47,4.62,8.39s-4.5,3.28-8.15,2.31c-2.43,3.77-.36,12.65,3.29,25.9s12.28,52-15.45,87.68C434.32,167,407.4,172.73,387.7,165.79Z"/>
          <path class="cls-8" d="M325.41,49.13c3.65-6.67,6.51-8.43,12.31-11-2.74-.36-5.05-.58-7.63-.79,3.72-1.14,8.57-1.36,14.47,1-3.56.91-14.83,6.93-14.83,6.93s14.38-6.2,25.32,3.1c-4.2-.18-15.32,1.64-15.32,1.64s17,1.76,31,13.92,23.21,29.92,36.58,40.38,26.27,6.57,33.57-3.65S448.63,77,447.41,58c-1.18-18.4-4-27.65,4.31-39.51.26-.37.52-.74.8-1.11,8.29-11.12,18.81-11,21.08-7.79-3.45-1.88-9.5,1.2-12.93,3.65-6.7,4.7-10.22,11.2-11.43,19.26C447,57,457.57,77.09,445.71,100.11c-4.38,8.76-14.79,16-25.9,13.79C403.32,110.63,394.73,101.36,386,89c-13.13-19-29.45-34.65-55.55-37,3.65-3.65,9-4.41,13.34-5.87C337.19,45.36,331.25,46.94,325.41,49.13Z"/>
          <path class="cls-4" d="M328,110.34c1.84,13.13,11.61,22.62,21.82,21.19s17-13.24,15.15-26.38S353.4,82.52,343.19,84,326.19,97.2,328,110.34Z"/>
          <path class="cls-4" d="M312.55,185.5c11.29.73,20.14-.1,31.25-1.72,5.69-.82,10.83-2.32,16.56-1.63,11.15,1.4,24.06,13,34,9.28-.55,2.32-2.62,3.56-7.25,3.42-8.26-.24-15.07-4.13-22.61-6.32s-18.37,5.35-35.7,7c-14,1.32-32.37,3-47.38-13.87,3.87-5.45,7.11-11.14,7.39-18.46C291.21,182.15,307.8,185.19,312.55,185.5Z"/>
          <g>
            <path class="cls-4" d="M387.9,166.45c-10.63-5.24-21.16-10.13-30.48-17.45,2.19-2.19,4.38-5.11,5.11-5.11,19.7,12.41,43.13,14.84,62.83,8.27,21.89-7.29,37.86-32.34,43-54.23.79-3.73,1.62-7.34,2.48-10.9a92.23,92.23,0,0,1-19.63,58.32C434.32,167,407.4,172.73,387.7,165.79Z"/>
            <path class="cls-4" d="M457.39,25a13.34,13.34,0,0,0,13.78,1.83,4.2,4.2,0,0,1,.32,2.67c-.36,1.75-1.91,2.58-3.87,2.75C462.8,32,457.39,30.26,457.39,25Z"/>
            <path class="cls-4" d="M314.55,48.67S275.6,61.1,293.21,84.79c-8.36-3.72-17.61-4.18-26.25-6.29,1.16-7.8,2.17-12.7,2.17-12.7s17.51-15.06,41.78-18.22c5.49-9.79,11.31-13.44,16.24-15.2C320.31,37.42,317.84,41.74,314.55,48.67Z"/>
          </g>
          <path class="cls-5" d="M270.83,166.39c-15.95-33-2.37-100-2.23-100.7l0-.18.15-.12c.17-.15,17.78-15.09,41.78-18.32,6.2-10.9,12.85-14.08,17.33-15.52l1.58-.51-1,1.35c-1.74,2.41-3.59,5.41-4.94,7.68a19.57,19.57,0,0,1,12.14-4.15,24.61,24.61,0,0,1,9.06,1.85l1.57.62-1.63.42a71.65,71.65,0,0,0-9.84,4.37,30.22,30.22,0,0,1,5.63-.54,22.37,22.37,0,0,1,14.92,5.25l1.21,1L355,48.86A84.56,84.56,0,0,0,343.16,50c5.72,1.19,17.68,4.58,27.9,13.48,6.74,5.88,12.41,13.08,17.9,20,6.05,7.67,11.76,14.92,18.66,20.32,5.15,4,10.39,6.06,15.59,6.06,6.66,0,12.77-3.41,17.19-9.6,7-9.85,7.7-22.94,6.47-42.21-.21-3.22-.46-6.1-.7-8.88-1.17-13.49-1.88-21.64,5.91-32.1,6.84-9.18,14.34-9.89,16.48-9.89,3.43,0,5.91,1.49,6,3.62.17,2.88-2.57,5.47-4.77,7.55A12.42,12.42,0,0,0,467.48,21c.49.62,1,1.19,1.43,1.72,2,2.42,3.66,4.32,3.12,6.9-.43,2.05-2.34,3.23-5.25,3.23a14,14,0,0,1-3.17-.4c-2,3.91.29,13.31,3.55,25.13,8.93,32.47,3.41,63.78-15.54,88.16-11.59,14.9-28.73,23.44-47,23.44h0a51.45,51.45,0,0,1-16.05-2.48c.89,2.94,3.51,11.57,5.29,17.21,1.12,3.55,1.93,7.13.32,9.34-1.17,1.59-3.44,2.29-7.06,2.2-5.71-.17-10.79-2.07-15.71-3.91-2.29-.86-4.65-1.74-7.05-2.44a10,10,0,0,0-2.83-.37c-3.27,0-7.24,1.24-11.84,2.68a97.74,97.74,0,0,1-20.82,4.7c-3.88.37-8.28.79-12.87.79C302.91,196.85,284,193.69,270.83,166.39ZM364.63,188c2.43.71,4.82,1.6,7.13,2.46,4.83,1.81,9.82,3.68,15.35,3.84,3.21.1,5.21-.47,6.14-1.75,1.06-1.44.92-3.94-.47-8.36-2.17-6.85-5.57-18.13-5.6-18.24l-.31-1,1,.36a50.22,50.22,0,0,0,16.7,2.76h0a58.32,58.32,0,0,0,46.17-23c18.74-24.1,24.19-55.07,15.35-87.2-3.54-12.86-5.84-22.28-3.22-26.35l.22-.33.39.1a12.8,12.8,0,0,0,3.29.47c1.38,0,3.75-.31,4.18-2.36s-1-3.7-2.89-6c-.52-.61-1.07-1.26-1.63-2l-.15-.2,0-.24c.17-1,1.31-2,2.74-3.39,2-1.93,4.57-4.32,4.43-6.7-.09-1.5-2.16-2.59-4.94-2.59-2,0-9.06.68-15.6,9.46-7.55,10.12-6.85,18.11-5.7,31.34.24,2.79.49,5.68.7,8.91,1.25,19.52.56,32.8-6.67,42.92-4.63,6.49-11.05,10.06-18.08,10.06-5.45,0-10.92-2.12-16.26-6.3-7-5.48-12.76-12.78-18.85-20.51-5.45-6.92-11.09-14.08-17.76-19.88-13.67-11.9-30.5-13.78-30.67-13.79l-4.06-.43,4-.66c.39-.06,9-1.47,13.84-1.64a21.46,21.46,0,0,0-13-4,29.22,29.22,0,0,0-4.47.36c-3.59.57-6.31,1.13-6.31,1.13a30.52,30.52,0,0,1,5-3.18c2.74-1.38,6-2.94,8.23-3.79A22.84,22.84,0,0,0,335.7,37a18.62,18.62,0,0,0-14.14,6.51l-.92-.59c0-.06,3-5.41,6-9.78-4.24,1.65-9.91,5.18-15.25,14.69l-.13.24-.27,0c-22.68,3-39.63,16.56-41.35,18-.79,3.94-13.19,68,2.18,99.81,12.79,26.45,30.32,29.84,44.15,29.84,4.54,0,8.91-.41,12.77-.78a96.82,96.82,0,0,0,20.6-4.65c4.68-1.47,8.73-2.74,12.16-2.74A11.19,11.19,0,0,1,364.63,188Z"/>
        </g>
        <g>
          <path class="cls-13" d="M361.17,103.29l-32,8.11s-2-17.58,10.73-21.32C351.28,86.75,359.5,98.18,361.17,103.29Z"/>
          <path class="cls-9" d="M330.6,115.68c2.92,10.69,12.3,17.44,21,15.08s13.32-12.94,10.4-23.63S349.67,89.68,341,92,327.69,105,330.6,115.68Z"/>
          <path class="cls-9" d="M362.27,108.34c2.26,10.27-2.37,20.15-10.7,22.42-8.1,2.21-16.82-3.54-20.31-13C339,124.09,358.68,126.05,362.27,108.34Z"/>
          <g>
            <path class="cls-14" d="M336.42,115.11c1.29,6.51,6.23,10.94,11,9.91s7.65-7.16,6.36-13.67-6.23-10.94-11-9.9S335.13,108.6,336.42,115.11Z"/>
            <path class="cls-15" d="M348.2,117.38A13.45,13.45,0,0,0,354,112.3c.84,6.15-2,11.73-6.52,12.72-4.75,1-9.62-3.3-11-9.68C339.68,118.23,344.06,118.67,348.2,117.38Z"/>
            <path class="cls-13" d="M338.71,117.2c.89,4.48,4.16,7.57,7.3,6.89s5-4.87,4.09-9.35-4.16-7.57-7.3-6.9S337.82,112.71,338.71,117.2Z"/>
            <path class="cls-9" d="M340.38,112.18a3.27,3.27,0,0,0,4.16,2.19,3.47,3.47,0,0,0,2.29-4.25,3.28,3.28,0,0,0-4.17-2.18A3.46,3.46,0,0,0,340.38,112.18Z"/>
            <g class="cls-16">
              <path class="cls-9" d="M346.88,120.49a1.51,1.51,0,0,0,1.92,1,1.59,1.59,0,0,0,1.05-1.95,1.5,1.5,0,0,0-1.92-1A1.59,1.59,0,0,0,346.88,120.49Z"/>
            </g>
            <path class="cls-17" d="M347.57,125.6c-5.11,1.11-10.36-3.55-11.72-10.37s1.69-13.25,6.82-14.37,10.35,3.55,11.71,10.37c1.27,6.45-1.42,12.69-6.14,14.19C348,125.49,347.8,125.55,347.57,125.6ZM337,115c1.22,6.17,5.87,10.41,10.35,9.44s7.13-6.84,5.92-13-5.87-10.42-10.35-9.45a5.47,5.47,0,0,0-.58.15C338.17,103.51,335.82,109.13,337,115Z"/>
          </g>
          <path class="cls-13" d="M330.07,115.82a23.1,23.1,0,0,1,.89-15.3,15.31,15.31,0,0,1,9.9-9,13.81,13.81,0,0,1,3.67-.49c7.89,0,15.45,6.71,18,16a23.07,23.07,0,0,1-.89,15.31,15.31,15.31,0,0,1-9.9,9,13.76,13.76,0,0,1-3.67.49C340.15,131.78,332.59,125.07,330.07,115.82Zm11.08-23.25A14.26,14.26,0,0,0,332,101a22,22,0,0,0-.83,14.58c2.39,8.77,9.5,15.15,16.91,15.15a12.87,12.87,0,0,0,3.38-.46,14.22,14.22,0,0,0,9.19-8.38,22,22,0,0,0,.84-14.58c-2.4-8.78-9.51-15.15-16.92-15.15A12.86,12.86,0,0,0,341.15,92.57Z"/>
        </g>
        <path class="cls-5" d="M333.65,89.48c9.37-10.59,19.78-2,20.22-1.59a9.44,9.44,0,0,0-4.82-3.82,13.93,13.93,0,0,0-10.79.43C336.46,85.37,333.65,89.48,333.65,89.48Z"/>
        <g>
          <path class="cls-18" d="M324.22,80.41s8.58-10.76,25.91-8.93C345.2,63.27,331.88,62.17,324.22,80.41Z"/>
          <path class="cls-13" d="M323.72,80.2c4-9.5,10.08-14.94,16.71-14.94a11.86,11.86,0,0,1,10.16,5.93l.57.94L350.07,72a36,36,0,0,0-3.85-.2c-14.26,0-21.5,8.85-21.57,8.94l-2.45,3.06ZM349,70.83a10.68,10.68,0,0,0-8.61-4.48c-5.53,0-10.7,4.18-14.45,11.57a30.81,30.81,0,0,1,20.24-7.2C347.15,70.72,348.09,70.76,349,70.83Z"/>
        </g>
        <path class="cls-5" d="M394.35,168.15l.21-1.08c-.23,0-22.91-4.67-36.37-19.15l-.8.75C371.09,163.4,394.12,168.1,394.35,168.15Z"/>
        <path class="cls-5" d="M353.36,152.75c2-1.55,4.08-3.36,5.79-5a14.36,14.36,0,0,0,3.3-4.76c-.08.08-8.16,8.48-13.49,11.33A13.92,13.92,0,0,0,353.36,152.75Z"/>
        <g>
          <path class="cls-19" d="M357.83,148.34c7,7.47,16.28,12.32,23.77,15.28,2.08,6.06,7.28,21.57,6.1,21.87-1.46.36-15.32-9.67-23.35-19s-10.83-14.59-10.83-14.59Z"/>
          <path class="cls-20" d="M357.83,148.34a56.94,56.94,0,0,0,13.43,10.36,30,30,0,0,1,2.05,16.65,90.34,90.34,0,0,1-9-8.84c-8-9.3-10.83-14.59-10.83-14.59Z"/>
          <g>
            <path class="cls-21" d="M364.35,166.51q-1.67-1.94-3-3.63c3.47-1,9.38-1.75,14.81,1.57,8.36,5.1,11.58,21,11.58,21C386.24,185.85,372.38,175.82,364.35,166.51Z"/>
            <path class="cls-22" d="M369.71,162.21c-.94,6.87,4.2,11,9.12,15.25,2.47,1.48,5,4.37,7.95,4.46.63,2.14.92,3.57.92,3.57-1.46.36-15.32-9.67-23.35-19q-1.67-1.94-3-3.63A21.38,21.38,0,0,1,369.71,162.21Z"/>
            <path class="cls-23" d="M363.94,166.87c-1.05-1.21-2.05-2.41-3.05-3.65l-.53-.65.8-.22a22.76,22.76,0,0,1,6.09-.85,17.28,17.28,0,0,1,9.16,2.48c8.46,5.17,11.7,20.74,11.83,21.4l.1.51-.5.13-.23,0h0C385.49,186,371.83,176,363.94,166.87Zm-1.67-3.68c.82,1,1.64,2,2.5,3,7.42,8.6,19.1,17.13,22.2,18.58-.81-3.36-4.17-15.57-11.14-19.83a16.2,16.2,0,0,0-8.58-2.32A21.51,21.51,0,0,0,362.27,163.19Z"/>
          </g>
          <path class="cls-5" d="M363.94,166.87c-8-9.24-10.79-14.47-10.9-14.69l-.21-.39,5-4.21.36.38c7.11,7.63,16.74,12.45,23.57,15.15l.24.1.08.23c7.06,20.58,6.39,21.81,6.17,22.22a.73.73,0,0,1-.45.36l-.23,0h0C385.49,186,371.83,176,363.94,166.87Zm-6.16-17.78-3.56,3a100.92,100.92,0,0,0,10.55,14.11c7.75,9,20.16,17.9,22.56,18.73,0-1.49-1.63-7.63-6.17-20.85C374.36,161.32,364.91,156.56,357.78,149.09Z"/>
        </g>
        <path class="cls-5" d="M464.28,32.54l.27-1.06a19.1,19.1,0,0,1-6.54-3A10.39,10.39,0,0,0,464.28,32.54Z"/>
        <path class="cls-5" d="M454.07,62.62a12.72,12.72,0,0,0,7.17-2.41c-.07,0-6.95,3.38-13.43,0l-.47,1A15.79,15.79,0,0,0,454.07,62.62Z"/>
        <path class="cls-5" d="M460.49,85c-.25.09-6.23,2-12.64-4.11l-.75.79C454.74,88.44,460.49,85,460.49,85Z"/>
        <path class="cls-5" d="M452.64,113.45c-.08,0-8.25-2-11.69-12.45l-1,.34C443.55,112.41,452.64,113.45,452.64,113.45Z"/>
        <path class="cls-5" d="M427.5,132.05c0-.12-3.87-11.93,1.37-22.07l-1-.5C422.44,120,427.5,132.05,427.5,132.05Z"/>
        <path class="cls-5" d="M395,132.66c0-.18-1.28-18.08,14.31-26.63l-.52-1C392.56,114,395,132.66,395,132.66Z"/>
        <path class="cls-5" d="M370.81,100.72A25.24,25.24,0,0,1,391.45,88l-.08-1.09A24,24,0,0,0,370.81,100.72Z"/>
        <g>
          <path class="cls-3" d="M207.66,96.1c5.65-10.58,11.67-24.81,24.26-29,35.57-11.31,48.16,3.46,59.65,11.67,12,.91,16.78,12,16.78,12l-21,83c-19.45,27.44-40.86,17.92-45.42,8.07S238.12,166.7,225.17,166s-16.23-7.48-19.52-21.53-11.49-17.14-12.4-22.8S202,106.68,207.66,96.1Z"/>
          <path class="cls-8" d="M231.92,67.1c35.57-11.31,48.16,3.46,59.65,11.67a20.12,20.12,0,0,1,15.13,9.16c-2.14-1.11-9.64-7.92-8.61-.18-10-9-17.21-14.51-27.86-18-15.67-5.19-38.31-2.61-47.43,8.88-8.76,11-16.42,28.94-28.8,38.88,2.34-5.58,9.23-13.08,13.66-21.37C213.31,85.52,219.33,71.29,231.92,67.1Z"/>
          <path class="cls-4" d="M206.36,136.49c2.82,9.35,4,23.82,17.4,25.1,4.53,1.33,10.14,1.34,13.27,4.92,4.38,3.65,6.15,10.66,8.75,13.87,4.19,5.15,11.65,7.93,18,6,6.94-2.14,13.2-7.38,17.84-12.83,2.74-3.21,7.87-10.34,7.87-10.34-.29,7.32-1.27,14.18-8.07,18.46l-.29-.32c-17.57,17.84-35.08,9.31-39.16.51-4.56-9.85-3.83-15.14-16.78-15.87s-16.23-7.48-19.52-21.53c-2.9-12.42-9.66-16.28-11.81-20.92C199,126.42,204,130.76,206.36,136.49Z"/>
          <path class="cls-5" d="M259.48,192.34c5.49,0,14-2,23.14-11.81,1.72-1.85,4.31-7.08,4.31-7.08-11.82,16.67-23.45,18.25-29.34,17.71-7.73-.71-13.18-5.31-15.14-9.55-.83-1.79-1.49-3.46-2.08-4.93-2.64-6.64-4.24-10.64-15.17-11.26-12.29-.69-15.67-6.79-19-21.1a37.05,37.05,0,0,0-8.68-16.57c-1.89-2.28-3.38-4.07-3.72-6.2-.53-3.27,2.91-8.11,6.9-13.71a109.06,109.06,0,0,0,7.45-11.48c.65-1.22,1.31-2.48,2-3.77,5.18-10,11-21.33,22-25,31.19-9.92,44.44.31,55.09,8.53,1.41,1.09,2.74,2.11,4.07,3.07l.13.09h.15c11.57.88,16.27,11.6,16.32,11.71A13.42,13.42,0,0,0,304,83.88a19.7,19.7,0,0,0-12.22-5.64c-1.27-.92-2.56-1.91-3.91-3-10.86-8.37-24.36-18.79-56.1-8.7-11.36,3.78-17.33,15.32-22.61,25.5-.66,1.29-1.32,2.55-2,3.76a107.3,107.3,0,0,1-7.38,11.36c-4.13,5.8-7.69,10.81-7.09,14.53.39,2.42,2,4.31,4,6.72,2.9,3.49,6.51,7.84,8.45,16.12,3.41,14.59,7.11,21.22,20,21.94,10.23.58,11.56,3.92,14.21,10.58.6,1.48,1.26,3.16,2.11,5,2.09,4.52,7.86,9.43,16,10.18C258.09,192.3,258.76,192.34,259.48,192.34Z"/>
        </g>
        <path class="cls-5" d="M298.09,87.75a19.1,19.1,0,0,0-4.29-7.38A32.82,32.82,0,0,0,290,76.93l-.66.87A38.78,38.78,0,0,1,298.09,87.75Z"/>
        <g>
          <path class="cls-24" d="M231.92,78.71c10.22-6.57,28.7-3.89,43.05,8.76s25,43.76,25,43.76l-4.8-11.78s-6,10-9.79,31.74-11.49,26.63-19.52,29.55-18.06,1.64-20.25-7-6-12.73-17.51-13.82c-12-1.1-13.86-6.57-15.87-13.14S207.11,126.14,204,121C213.19,112.9,221.7,85.28,231.92,78.71Z"/>
          <path class="cls-25" d="M278.07,155.39c1.66-20.57,3.95-25.75-2.61-44C269.62,96.08,248.88,81.91,235,87.75c-11.9,4.9-22.56,27.2-30.49,32.68,9-8.69,17.39-35.29,27.39-41.72,10.22-6.57,28.7-3.89,43.05,8.76s25,43.76,25,43.76l-4.8-11.78s-6,10-9.79,31.74-11.49,26.63-19.52,29.55c-7.58,2.76-17,1.77-19.81-5.61C253.35,190.33,276.24,178.09,278.07,155.39Z"/>
          <path class="cls-5" d="M250.62,181a10.85,10.85,0,0,1-5.55-7.13c-2-7.83-5.29-12.29-17-13.41-12.56-1.14-14.4-7.15-16.34-13.52-.55-1.8-1.2-4.2-1.88-6.75-1.82-6.8-4.08-15.27-6.34-19l-.24-.39.35-.31c4.2-3.67,8.22-11.39,12.47-19.57C221,91.58,226,81.86,231.62,78.25c11.12-7.14,29.91-3.36,43.71,8.81,9.08,8,16.73,23.48,21.13,33.77a39.43,39.43,0,0,1,3,10.58c0-.12-1.59-4.61-4.27-10.83-1.47,2.84-6.11,12.83-9.26,30.71-4,22.42-12,27.1-19.87,30a23.68,23.68,0,0,1-7.94,1.43A16.17,16.17,0,0,1,250.62,181Zm24-93.15c-13.45-11.85-31.67-15.6-42.39-8.71-5.37,3.45-10.36,13-15.19,22.32-4.19,8.06-8.16,15.69-12.38,19.59,2.26,4,4.45,12.21,6.23,18.86.68,2.54,1.32,4.93,1.86,6.71,1.92,6.27,3.57,11.68,15.4,12.75,12.38,1.18,15.88,5.91,18,14.23a9.69,9.69,0,0,0,5,6.43c3.77,2,9.34,2.06,14.53.17,7.59-2.76,15.31-7.28,19.17-29.13,3.57-20.24,9.07-30.53,9.78-31.8C290.16,109.19,283,95.28,274.61,87.88Z"/>
        </g>
        <g>
          <path class="cls-3" d="M368.16,126.26l-15.33,9.37-16.68-2.5C349.1,124.19,368.16,126.26,368.16,126.26Z"/>
          <path class="cls-5" d="M335.48,133.58c12.64-8.72,32.82-7.22,33-7.2a20.94,20.94,0,0,0-8.23-1.07c-5.84.34-13.84,1.46-20.79,4.73C337.88,130.8,335.48,133.58,335.48,133.58Z"/>
        </g>
      </g>
    </g>
  </g>
</svg>
