<svg id="Layer_1" data-name="Layer 1" xmlns="http://www.w3.org/2000/svg" width="361.58" height="359.32" viewBox="0 0 361.58 359.32">
  <defs>
    <style>
      .cls-1 {
        fill: #353535;
        opacity: 0.5;
      }

      .cls-2 {
        fill: #ff0;
      }

      .cls-3 {
        fill: #ca3727;
      }

      .cls-4 {
        fill: #986632;
      }

      .cls-5 {
        fill: #4e2f13;
      }

      .cls-6 {
        fill: #d3ab29;
      }

      .cls-7 {
        fill: #ffcc05;
      }

      .cls-8 {
        fill: #1a1a1a;
      }

      .cls-9 {
        fill: #ffd740;
      }

      .cls-10 {
        fill: #ffd741;
      }

      .cls-11 {
        fill: #e25626;
      }

      .cls-12 {
        fill: #fde78c;
      }

      .cls-13 {
        fill: #fdcb0a;
      }

      .cls-14 {
        fill: #ffcc09;
      }

      .cls-15 {
        fill: #6f5f2c;
      }

      .cls-16 {
        fill: #93792c;
      }

      .cls-17 {
        fill: #715f2b;
      }

      .cls-18 {
        fill: #603b16;
      }

      .cls-19 {
        fill: #7b5226;
      }

      .cls-20 {
        fill: #333;
      }

      .cls-21 {
        fill: #ac7e4f;
      }

      .cls-22 {
        fill: #c6996c;
      }

      .cls-23 {
        fill: #f8ba1e;
      }

      .cls-24 {
        fill: #a06f35;
      }

      .cls-25 {
        fill: #f5d055;
      }

      .cls-26 {
        fill: #f6d158;
      }

      .cls-27 {
        fill: #c6996b;
      }

      .cls-28 {
        fill: #bc8e60;
      }
    </style>
  </defs>
  <g>
    <path class="cls-1" d="M307.15,359.32a13.5,13.5,0,0,1-7.92-2.62,13.48,13.48,0,0,1-6.74-3.65c-.17-.15-.33-.3-.5-.47a13.94,13.94,0,0,1-2.65-1.39,14.2,14.2,0,0,1-3.36-3.13c-1.24-.29-2.61-.63-4.05-1.1-2.44-.45-4.7-1-6.89-1.62l-2.43-.62q-28.5-7.05-57-14.14L108.14,303.87a22.17,22.17,0,0,1-4.11,3.86,17.91,17.91,0,0,1-1.8,1.19,22.37,22.37,0,0,1-3.84,4.75,15.57,15.57,0,0,1-7,3.81A13.17,13.17,0,0,1,76.65,311a16.33,16.33,0,0,1-2-8c0-.67,0-1.35,0-2,0-1.18,0-2.51,0-3.89a14.68,14.68,0,0,1-6.14-6.25H68l-3.07,0H63.34a21.86,21.86,0,0,1-6.23-.92,13.19,13.19,0,0,1-8.69-17.39,16.22,16.22,0,0,1,6.25-8.12c.53-.36,1.13-.74,1.8-1.13a16.46,16.46,0,0,1,4.94-5.76l.22-.16c-.19-.73-.38-1.46-.58-2.21l-.81-3.09q-8.87-34.86-17.77-69.71l-25-98.15a13.19,13.19,0,0,1-.27-1.31,46.62,46.62,0,0,1-1.27-4.61,12.61,12.61,0,0,1-2.8-4.48c-.19-.2-.38-.4-.57-.62A14.8,14.8,0,0,1,9,66.69,13,13,0,0,1,7.56,53.35C6.19,43.57,8.31,34,13.88,24.7a41.25,41.25,0,0,1,19-17.18A37.22,37.22,0,0,1,47.81,4.25a33.18,33.18,0,0,1,8.78,1.19,25.92,25.92,0,0,1,19,28.21A10.62,10.62,0,0,1,60.5,42a11.69,11.69,0,0,1-5.81-6.09,9.56,9.56,0,0,0-.95-1.51c-.65-.74-.88-.74-1-.74a3.63,3.63,0,0,0-1,.17c-3.39.9-6.78,4.33-8,7.81a13.07,13.07,0,0,1,3.59,5.72,13.48,13.48,0,0,1,2.21,3.76,13.53,13.53,0,0,1,2.06,3.07c.13.23.25.47.36.71a14,14,0,0,0,3.11,1.46,29.39,29.39,0,0,0,8.21,1.18c.77,0,1.53,0,2.3,0A128.68,128.68,0,0,0,81.09,56.4q10.3-1.24,20.61-2.59c5.37-.7,10.35-1.22,15.24-1.6,4.63-.36,8.82-.53,12.81-.53a105.8,105.8,0,0,1,21.3,2c11.2,2.28,21.13,8.17,29.53,17.5a218.29,218.29,0,0,1,15,19.39l1.49,2.08c3,4.2,5.91,8.24,9,11.92h0a16.12,16.12,0,0,1,9.06,2.87c3.64,2.47,7.33,5.25,11.28,8.5l1.39,1.15,13.71-13.71-4-4.09a13.28,13.28,0,0,1-3.83-5.59,10.62,10.62,0,0,1,5.91-13.3l52-21.88q.39-.17.78-.3l.36-.19a10.88,10.88,0,0,1,5.48-1.47,11,11,0,0,1,6.1,1.85A10.85,10.85,0,0,1,309.14,68a10.61,10.61,0,0,1-1.3,4.51l-1.6,3.85c-1.56,3.76-3.13,7.53-4.7,11.28q-7.31,17.39-14.62,34.76l-.8,1.9c-.23.55-.47,1.08-.72,1.6l-.22.45a10.62,10.62,0,0,1-9.63,6.16,10.2,10.2,0,0,1-1.45-.1,12.31,12.31,0,0,1-7.64-4.2l-4-4-13.68,13.66a149.69,149.69,0,0,1,9.47,12.51,16.65,16.65,0,0,1,3,9.24c3.9,3.28,8.16,6.32,12.61,9.49l1.76,1.26C280.7,174.05,286,177.79,291,182a86.47,86.47,0,0,1,10.59,10.4c5.33,6.28,8.82,13.76,10.68,22.86a110.37,110.37,0,0,1,1.71,28.3c-.31,5.67-.83,11.55-1.59,18-.38,3.23-.8,6.46-1.23,9.69l-.68,5.27c-.79,6.19-1.54,12-1.92,17.95-.19,2.83-.25,5.38-.2,7.79a39.43,39.43,0,0,0,.72,6.68,13.67,13.67,0,0,0,1.94,4.83,12.1,12.1,0,0,1,1.69.92,13.27,13.27,0,0,1,1.95,1.39,12.79,12.79,0,0,1,1.73.88,15.41,15.41,0,0,1,1.88,1.26,13.37,13.37,0,0,1,1.88.79,12.69,12.69,0,0,1,4.16,3,13,13,0,0,0,5.35-3.8,8.93,8.93,0,0,0,2.54-4.78c.1-.62.11-.71-.63-1.38a7,7,0,0,0-1.43-.92,13.74,13.74,0,0,1-4.91-3.49,10.62,10.62,0,0,1,5.94-17.47,18.21,18.21,0,0,1,3.56-.34,27,27,0,0,1,5.73.72c12.25,2.58,20.31,12.07,21.07,24.79.71,12-3.84,22.79-13.18,31.2a45.6,45.6,0,0,1-24.5,11.58,42.79,42.79,0,0,1-5.87.41h0a41.35,41.35,0,0,1-5.33-.34A13.61,13.61,0,0,1,307.15,359.32ZM130.43,282.51l55.21,13.73,85.82,21.29c-.12-.69-.24-1.38-.34-2.09a102.65,102.65,0,0,1-.51-21.28c.46-7.19,1.37-14.29,2.24-21.14.32-2.47.63-4.93.93-7.4.61-5.12,1.21-10.59,1.54-16,.24-4,.3-7.16.19-10.08a47.46,47.46,0,0,0-2.69-15.22,12.79,12.79,0,0,0-6.69-7.31,52.47,52.47,0,0,0-11.31-3.74c-2.12-.5-4.25-.95-6.38-1.41-4-.84-8.06-1.72-12.2-2.9a65.5,65.5,0,0,1-15.4-6.26,17.58,17.58,0,0,1-2.68.21c-5.64,0-10.46-2.79-14.33-8.28-1.32-1.87-2.86-4-4.57-6.24q-28.74,28.77-57.51,57.5c.39,6.33.24,12.52.11,18.54A19,19,0,0,1,132,280.18,21.58,21.58,0,0,1,130.43,282.51Zm-67.88-127L82.85,235a21.7,21.7,0,0,1,2.33-1.49,18.54,18.54,0,0,1,15.88-9.84c2.52-.14,5.15-.2,8.28-.2,2.51,0,5,0,7.53.08l2.62,0,.6,0q28.54-28.58,57.11-57.13-2.19-1.68-4.48-3.4l-1.59-1.19c-5.95-4.49-8.64-10-8-16.47,0-.11,0-.23,0-.34a58.9,58.9,0,0,1-5.06-11.3,146.14,146.14,0,0,1-4.17-16.22l-.67-3.11a75.8,75.8,0,0,0-3.65-12.88c-1.63-3.89-3.5-6.24-6.06-7.6a26.33,26.33,0,0,0-6.17-2.24A59.49,59.49,0,0,0,123.3,90.3h-1.69a162.05,162.05,0,0,0-16.76,1.25l-7.43.9C91.11,93.24,84.8,94,78.49,94.7a141.22,141.22,0,0,1-15.44.9h0c-1.71,0-3.43,0-5.14-.12a69.42,69.42,0,0,1-11-1.33C50.89,109.83,62.55,155.49,62.55,155.49Z"/>
    <path class="cls-2" d="M300.77,355.07a13.47,13.47,0,0,1-7.91-2.62,13.51,13.51,0,0,1-6.75-3.65c-.16-.15-.33-.3-.49-.47a13.65,13.65,0,0,1-2.65-1.39,14,14,0,0,1-3.36-3.13c-1.25-.29-2.61-.63-4.05-1.1-2.44-.45-4.7-1-6.9-1.62l-2.43-.62q-28.49-7.05-57-14.14l-107.5-26.71a21.56,21.56,0,0,1-4.11,3.86,15.8,15.8,0,0,1-1.8,1.19A22,22,0,0,1,92,309.42a15.57,15.57,0,0,1-7,3.81,13.23,13.23,0,0,1-3.18.38,13.07,13.07,0,0,1-11.54-6.9,16.33,16.33,0,0,1-2-8c0-.67,0-1.35,0-2,0-1.18,0-2.51,0-3.89a14.64,14.64,0,0,1-3.92-3.05,14.34,14.34,0,0,1-2.22-3.2h-.58c-1,0-2.05,0-3.08,0H57a22,22,0,0,1-6.23-.92,13.2,13.2,0,0,1-8.68-17.39,16.22,16.22,0,0,1,6.25-8.12c.53-.36,1.13-.74,1.8-1.13A16.46,16.46,0,0,1,55,253.28l.22-.16c-.19-.73-.39-1.46-.58-2.21q-.42-1.54-.81-3.09Q45,213,36.1,178.11L11.05,80c-.11-.42-.2-.86-.28-1.31A46.62,46.62,0,0,1,9.5,74a12.58,12.58,0,0,1-2.79-4.48,6.76,6.76,0,0,1-.57-.62,14.8,14.8,0,0,1-3.49-6.5A13,13,0,0,1,1.18,49.1c-1.36-9.78.76-19.4,6.33-28.65a41.23,41.23,0,0,1,19-17.18A37.29,37.29,0,0,1,41.43,0a33.12,33.12,0,0,1,8.78,1.19,25.9,25.9,0,0,1,19,28.21,10.62,10.62,0,0,1-15.09,8.34,11.69,11.69,0,0,1-5.8-6.08,8.64,8.64,0,0,0-1-1.52c-.64-.74-.87-.74-1-.74a3.69,3.69,0,0,0-1,.17c-3.39.9-6.77,4.33-8,7.81A13,13,0,0,1,41,43.1a13.48,13.48,0,0,1,2.21,3.76,13.59,13.59,0,0,1,2.07,3.07l.36.71a13.79,13.79,0,0,0,3.11,1.46,29.27,29.27,0,0,0,8.21,1.18c.77,0,1.53,0,2.29,0a128.53,128.53,0,0,0,15.49-1.17Q85,50.91,95.32,49.56c5.37-.7,10.36-1.22,15.25-1.6,4.63-.36,8.82-.53,12.81-.53a105.87,105.87,0,0,1,21.3,2c11.19,2.28,21.13,8.17,29.53,17.51a216.74,216.74,0,0,1,15,19.38l1.49,2.08c3,4.2,5.91,8.24,9,11.92h0a16.09,16.09,0,0,1,9.05,2.87c3.64,2.47,7.34,5.25,11.29,8.5l1.38,1.15L235.2,99.13l-4-4.09a13.28,13.28,0,0,1-3.84-5.59,10.64,10.64,0,0,1,5.91-13.3l52-21.88q.39-.17.78-.3c.11-.07.24-.13.36-.19a10.85,10.85,0,0,1,5.47-1.47,11,11,0,0,1,6.1,1.85,10.88,10.88,0,0,1,4.8,9.61,10.77,10.77,0,0,1-1.31,4.51l-1.6,3.85c-1.56,3.76-3.12,7.53-4.7,11.28q-7.29,17.39-14.61,34.76l-.8,1.9c-.23.56-.48,1.08-.73,1.6l-.21.45a10.63,10.63,0,0,1-9.63,6.16,10.1,10.1,0,0,1-1.45-.1,12.31,12.31,0,0,1-7.64-4.2l-4-4-13.69,13.66a147,147,0,0,1,9.47,12.51,16.61,16.61,0,0,1,3,9.24c3.89,3.28,8.16,6.32,12.6,9.49l1.76,1.26c5.08,3.62,10.33,7.36,15.36,11.55a86.58,86.58,0,0,1,10.6,10.4c5.33,6.28,8.82,13.76,10.68,22.86a110.37,110.37,0,0,1,1.71,28.3c-.31,5.67-.83,11.55-1.59,18-.38,3.23-.81,6.46-1.23,9.69l-.69,5.27c-.79,6.19-1.54,12-1.92,17.95-.18,2.83-.24,5.38-.2,7.79a39.49,39.49,0,0,0,.73,6.68,13.83,13.83,0,0,0,1.93,4.83,11.07,11.07,0,0,1,1.69.92,13.34,13.34,0,0,1,2,1.39,12.67,12.67,0,0,1,1.72.88,13.85,13.85,0,0,1,1.88,1.27,11.94,11.94,0,0,1,1.89.78,13,13,0,0,1,4.16,3,12.93,12.93,0,0,0,5.34-3.8,8.86,8.86,0,0,0,2.54-4.78c.1-.62.12-.71-.62-1.38a7.57,7.57,0,0,0-1.43-.92,13.57,13.57,0,0,1-4.91-3.49,10.62,10.62,0,0,1,5.93-17.47,18.39,18.39,0,0,1,3.57-.34,26.85,26.85,0,0,1,5.72.72c12.26,2.58,20.31,12.07,21.07,24.79.72,12-3.84,22.79-13.17,31.2a45.56,45.56,0,0,1-24.51,11.58,42.79,42.79,0,0,1-5.87.41h0a41.47,41.47,0,0,1-5.33-.34A13.58,13.58,0,0,1,300.77,355.07ZM124.05,278.26,179.27,292l85.82,21.29c-.13-.68-.24-1.38-.34-2.09a102,102,0,0,1-.51-21.28c.46-7.19,1.36-14.29,2.24-21.14.31-2.47.63-4.93.92-7.4.61-5.12,1.22-10.59,1.54-16,.24-4,.3-7.16.2-10.08a47.45,47.45,0,0,0-2.7-15.22,12.77,12.77,0,0,0-6.68-7.31A52.56,52.56,0,0,0,248.44,209c-2.12-.5-4.25-.95-6.38-1.41-4-.84-8.06-1.72-12.19-2.9a65.33,65.33,0,0,1-15.4-6.26,17.61,17.61,0,0,1-2.69.21c-5.63,0-10.45-2.79-14.32-8.28-1.32-1.87-2.86-4-4.57-6.24q-28.74,28.77-57.51,57.51c.38,6.32.24,12.51.1,18.53a19,19,0,0,1-9.86,15.74A20.21,20.21,0,0,1,124.05,278.26Zm-67.88-127,20.31,79.54a22.27,22.27,0,0,1,2.33-1.49,18.54,18.54,0,0,1,15.87-9.84c2.52-.13,5.15-.2,8.28-.2,2.51,0,5,0,7.53.08l2.63,0,.59,0,57.12-57.13c-1.46-1.12-3-2.25-4.48-3.4l-1.59-1.19c-5.95-4.49-8.64-10-8-16.47l0-.34a58.9,58.9,0,0,1-5-11.3,144,144,0,0,1-4.17-16.22l-.67-3.11a76.71,76.71,0,0,0-3.66-12.88c-1.62-3.89-3.49-6.24-6.06-7.6A26.07,26.07,0,0,0,131,87.52a59.64,59.64,0,0,0-14.1-1.47h-1.69a162.25,162.25,0,0,0-16.76,1.25l-7.42.9c-6.31.78-12.62,1.55-18.93,2.24a141.4,141.4,0,0,1-15.45.9h0c-1.71,0-3.42,0-5.14-.12a69.14,69.14,0,0,1-11-1.33C44.52,105.58,56.17,151.24,56.17,151.24Z"/>
    <g>
      <path class="cls-3" d="M256,105.06c-.47.51-.94,1-1.43,1.51l-25.32,25.28c-.45.45-.86.94-1.28,1.4a3.9,3.9,0,0,1-1.09,1.93c-2.89,2.83-5.7,5.75-8.61,8.56-2.68,2.68-5.31,5.39-8,8q-4.86,4.89-9.74,9.76c-1,1-2,2.07-3.1,3-.48.73-1.29,1.13-1.79,1.84s-1.36,1.06-1.8,1.84q-34.89,35-69.85,69.85c-1.28,1.06-2.23,2.46-3.59,3.45a43.19,43.19,0,0,1-4.17,4.17,29.37,29.37,0,0,1-3.15,3.16,44,44,0,0,1-4.16,4.15,27.56,27.56,0,0,1-3.15,3.15,41.89,41.89,0,0,1-4.16,4.16c-.94.94-1.74,2-2.77,2.87-1.61,1.38-2.83,3.15-4.54,4.44-.94.94-1.74,2-2.77,2.87-1.56,1.42-2.87,3.12-4.53,4.44a29.29,29.29,0,0,1-2.81,2.87c-1,1-1.93,2.1-3,3.05a2.76,2.76,0,0,1-1.6.91.89.89,0,0,1-.46-.19,2.2,2.2,0,0,1-.41-1.45c-.18-2.48-1.39-3.65-3.84-3.71a2.22,2.22,0,0,1-1.49-.29.9.9,0,0,1-.06-1,23.13,23.13,0,0,1,3.86-4.05,36.13,36.13,0,0,1,3.51-3.49,37.33,37.33,0,0,1,3.83-3.82c.94-1.38,2.42-2.22,3.43-3.54,1.23-1.32,2.54-2.56,3.88-3.77.94-1.38,2.43-2.22,3.43-3.54,1.21-1.34,2.58-2.51,3.83-3.82,1-1.3,2.47-2.17,3.48-3.48,1.21-1.34,2.58-2.52,3.83-3.82a42.7,42.7,0,0,1,3.2-3.11,34.54,34.54,0,0,1,3.82-3.83c1.13-1.44,2.61-2.55,3.79-3.93l68.37-68.38c.5-.49,1-.95,1.54-1.41a12,12,0,0,1,1.83-1.81c.56-.65,1.18-1.24,1.8-1.83,4-4.26,8.26-8.34,12.43-12.48,2.65-2.7,5.27-5.42,8.05-8,2.83-3.08,5.87-5.94,8.81-8.9a1.88,1.88,0,0,1,1.68-.73,3.93,3.93,0,0,0,1.33-1.1q13-13,25.94-25.94c.41-.41.77-.87,1.15-1.3.46-.6.78,0,1,.2a14.71,14.71,0,0,1,2.23,2.3C254.37,102.64,256,103.26,256,105.06Z"/>
      <path class="cls-4" d="M243.27,159.25c5.62,5.49,12,10,18.38,14.56,5.47,3.91,11,7.77,16.15,12.08a76.29,76.29,0,0,1,9.3,9.12,39.52,39.52,0,0,1,8.37,18.1,99.86,99.86,0,0,1,1.51,25.6c-.32,5.79-.85,11.55-1.53,17.3-.58,4.89-1.25,9.77-1.88,14.65-.8,6.26-1.6,12.52-2,18.82-.19,2.9-.28,5.79-.22,8.69a50.2,50.2,0,0,0,.91,8.45,26.59,26.59,0,0,0,6.62,12.8.68.68,0,0,1,.14.93c-.94,1.56-1.32,3.57-3.33,4.32-1.9-.34-2.6-2.05-3.58-3.34A30.64,30.64,0,0,1,286,305.15a104.79,104.79,0,0,1,.3-19.4c1-10.48,2.65-20.87,3.83-31.32.59-5.28.9-10.59,1.22-15.91a92,92,0,0,0-1.46-22.42,36.61,36.61,0,0,0-8.75-18c-4.65-5.25-10.15-9.45-15.73-13.59-6.89-5.1-14.1-9.75-20.71-15.22a32.77,32.77,0,0,1-5.43-5.1C239.16,161.93,241.38,159.22,243.27,159.25Z"/>
      <path class="cls-4" d="M35.73,56.3a24.94,24.94,0,0,0,9.7,5.9,40.17,40.17,0,0,0,11.14,1.7A127.34,127.34,0,0,0,76,62.7q10.37-1.26,20.7-2.6,7.34-1,14.7-1.54c10.44-.82,20.83-.82,31.17,1.29,9.61,1.95,17.29,7,23.75,14.19,5.8,6.45,10.74,13.54,15.78,20.56,4.33,6,8.66,12.06,13.89,17.37a.87.87,0,0,1,.13.66c-.44,1.45-3.37,3.42-5,3.37-3.58-3-6.28-6.78-9.08-10.47-5.6-7.37-10.61-15.19-16.46-22.38-4.84-6-10.05-11.55-17.17-14.87a49.74,49.74,0,0,0-15.08-3.88,83.28,83.28,0,0,0-14.72-.7c-6.35.34-12.69.79-19,1.57C92.9,66.09,86.2,67,79.49,67.85c-5.28.69-10.57,1.31-15.87,1.59-8,.41-16.12.56-23.78-2.66A34.91,34.91,0,0,1,31,61a2,2,0,0,1-.76-1.32,1.14,1.14,0,0,1,.43-1.06c1.28-.83,2.55-1.69,3.91-2.39A1.09,1.09,0,0,1,35.73,56.3Z"/>
      <path class="cls-5" d="M243.27,159.25a1.47,1.47,0,0,0-1,.63c-1,1.31-2,2.61-3,3.92.13,1.27-.88,1.93-1.5,2.8-.4.57-1.09.87-1.41,1.51a68,68,0,0,1-6.31,6.93c-3.59,3.28-7.17,6.58-11.06,9.52a7.44,7.44,0,0,1-1.43,1,4.33,4.33,0,0,0-1.31,1,2.91,2.91,0,0,1-.58.47c-4.39,1.88-6.83,1.17-9.61-2.78a144.22,144.22,0,0,0-11.32-14.4,4.34,4.34,0,0,1-1.35-2.17,8.79,8.79,0,0,1,1.78-1.72c1.39-.69,2,.46,2.69,1.23,2.71,3.16,5.35,6.39,7.74,9.8.7,1,1.4,2,2.13,3,1.83,2.43,3.93,2.76,6.46,1.18a52.84,52.84,0,0,0,15.58-15.37,4.68,4.68,0,0,0,.05-5.92,127.89,127.89,0,0,0-8.71-11.25c-1-1.08-1.84-2.23-2.86-3.26-.51-.53-1.08-1.14-.48-2,3.26-3.49,6.65-6.83,10.1-10.13l3.89,4.41a142,142,0,0,1,11.26,14.47c1.35,2,1.64,4,.29,6.15A.91.91,0,0,0,243.27,159.25Z"/>
      <path class="cls-5" d="M191.43,115.89c1.57-1.24,3.38-2.2,4.55-3.92a2.33,2.33,0,0,0,1.3-.39,5.13,5.13,0,0,1,5.56.4c3.64,2.47,7.12,5.14,10.52,7.92,2.32,1.91,4.58,3.87,6.85,5.84a5.54,5.54,0,0,1,1.49,1.67c-1.74,2.09-3.79,3.89-5.69,5.83-1.42,1.45-2.89,2.84-4.34,4.25-.86.27-1.43-.23-2-.74a144.42,144.42,0,0,0-14.43-11.42c-2.22-1.53-3.64-1.47-5.87.07a56.35,56.35,0,0,0-14.91,14.9c-2,3-1.68,5.32,1.24,7.44,4.31,3.14,8.57,6.35,12.59,9.85.65.57,1.38,1.12,1.07,2.18a7.66,7.66,0,0,1-1.71,1.7,1.7,1.7,0,0,1-1.86-.59c-4.61-4.23-9.64-7.92-14.62-11.68-2.29-1.73-4.15-3.72-3.83-6.93a5.3,5.3,0,0,1,.87-2.77,12.37,12.37,0,0,0,.73-1,4.14,4.14,0,0,1,.57-.8,114.63,114.63,0,0,1,17.06-18.5,2.2,2.2,0,0,1,.58-.37c.87-.59,1.42-1.51,2.28-2.12C190,116.27,190.58,115.73,191.43,115.89Z"/>
      <path class="cls-6" d="M256,105.06l-2.91-3.17c-.1-.87.5-1.39,1-1.91q17.19-17.24,34.4-34.42c.73-.74,1.76-1.13,2.35-2,.15-.28.45-.3.71-.37a.38.38,0,0,1,.49.11c-2.23,5.34-4.44,10.69-6.67,16Q277.68,97.63,270,116c-.24.57-.52,1.13-.79,1.7-.73-.1-1-.65-1.42-1-3.49-3.47-7-7-10.45-10.43A4.07,4.07,0,0,0,256,105.06Z"/>
      <path class="cls-7" d="M290.84,63.54a.43.43,0,0,1,.05.62c-.31.35-.63.68-1,1l-35.57,35.56c-.41.41-.86.78-1.29,1.17l-2.95-2.82q-5.77-5.8-11.53-11.61A4.09,4.09,0,0,1,237.34,86l6.24-2.63,45.8-19.25C289.85,63.87,290.35,63.72,290.84,63.54Z"/>
      <path class="cls-8" d="M81.07,268a26.31,26.31,0,0,1-3.47,3.45,93.07,93.07,0,0,1-10-.17,79.27,79.27,0,0,0-9.87-.06,1.77,1.77,0,0,0-.68.15c-.77.35-1.86.59-1.66,1.67s1.2.67,1.91.73c4.78.39,9.57.37,14.37.39.84,0,1.95-.22,2.11,1.15l-.37.64a.7.7,0,0,1-.53.62.9.9,0,0,1-.43,0l-.4-.14c-5-.79-9.94-.38-14.91-.45a11.86,11.86,0,0,1-3.25-.45,2.6,2.6,0,0,1-1.81-3.67A5.52,5.52,0,0,1,54.21,269a12.94,12.94,0,0,1,3.55-1.81,1.61,1.61,0,0,0,1.37-1.69,4.94,4.94,0,0,1,2.28-3.72,9.63,9.63,0,0,1,3.7-1.85,1.46,1.46,0,0,0,1.31-1.55,19.86,19.86,0,0,1,.4-2.39A4.14,4.14,0,0,1,69,253.5a6.3,6.3,0,0,1,2.32-1.18,3,3,0,0,0,1.73-2.19c.61-2.69,2.71-4.1,5.09-5a3.18,3.18,0,0,0,2.3-2.45C81.05,240.26,83,239,85.1,238a4.33,4.33,0,0,0,2.63-2.7,8,8,0,0,1,7.52-5.27c5.89-.32,11.81-.14,17.71-.06,1.1,0,2.17.32,3.27.41a1.64,1.64,0,0,1,1.49,1,35.72,35.72,0,0,1-3.92,3.86c-6.13-.06-12.25-.56-18.38-.35a5.46,5.46,0,0,0-3,.62c-.44.3-.87.64-.72,1.25s.61.65,1.08.71a8.3,8.3,0,0,0,1.22.05c4.63-.16,9.23.54,13.87.39.84,0,2-.22,2.12,1.14a23,23,0,0,1-3.12,3.12,5.55,5.55,0,0,1-2.9.33c-5.5-.62-11-.16-16.51-.28a3.54,3.54,0,0,0-2.59.81c-.73.68-.56,1.4.4,1.68a6,6,0,0,0,1.9.12c4.64-.21,9.26.33,13.89.38.74,0,1.54-.06,2,.77a26.16,26.16,0,0,1-3.48,3.5c-1.19.64-2.39,0-3.58,0-3.65,0-7.3,0-10.95,0a23,23,0,0,1-4-.21,4.37,4.37,0,0,0-3,.65c-.5.3-1,.65-.92,1.34s.78.77,1.36.82a12.91,12.91,0,0,0,1.39,0c4.57.06,9.15-.19,13.7.36.79.1,1.67-.1,2.16.79a26.31,26.31,0,0,1-3.5,3.5c-1.26.38-2.53,0-3.79,0-4.68,0-9.36.13-14-.31a6.22,6.22,0,0,0-3.4.52c-.63.31-1.3.69-1.12,1.54s.89.84,1.53.86c3,.1,6,0,9,0,1.73,0,3.47,0,5.2,0a3.14,3.14,0,0,1,2.77,1.1,26.23,26.23,0,0,1-3.49,3.5A123.48,123.48,0,0,1,72.45,264a64.7,64.7,0,0,0-7.1-.1,4,4,0,0,0-1.34.34c-.65.26-1.42.54-1.39,1.35,0,1,1,.81,1.61.9,4.83.68,9.7.14,14.55.36C79.66,266.91,80.86,266.54,81.07,268Z"/>
      <path class="cls-8" d="M105.4,255.77a21.05,21.05,0,0,1,3.13-3.13c1.16.13,1.09,1.06,1.07,1.83-.1,4.34.6,8.65.39,13a5.06,5.06,0,0,0,0,.87c.12.8-.3,2,.89,2.12s1.6-1.14,1.62-2.11a134,134,0,0,0-.08-14.73,11.88,11.88,0,0,1,.28-5.14,20.65,20.65,0,0,1,3.13-3.14c.88,0,1,.68,1,1.31a14.1,14.1,0,0,1,.06,2.25c-.21,4.23.42,8.43.38,12.65,0,.67-.07,1.54.87,1.64s1.15-.67,1.43-1.31a6.38,6.38,0,0,0,.3-2.57c.11-5-.08-10.05-.34-15.07a7.63,7.63,0,0,1,.43-3.07,26.76,26.76,0,0,1,3.48-3.5,1.71,1.71,0,0,1,1,1.65,182.23,182.23,0,0,1,.31,20.64,8.47,8.47,0,0,1-6,7.32,2.17,2.17,0,0,0-1.64,1.58,10.3,10.3,0,0,1-3.13,4.51c-.44.39-.88.88-1.44.93-1.86.16-2.52,1.45-3.22,2.92-1.1,2.32-2.7,4.17-5.38,4.75-.85.18-1.17.89-1.53,1.54a5.69,5.69,0,0,1-1.18,2.32,5,5,0,0,1-2.46,2.26c-.23,0-.46.06-.69.07-1.94.1-3.29.74-3.79,2.94-.38,1.64-1.74,2.85-3.1,3.87a2.89,2.89,0,0,1-2.07.79c-1.12-.18-1.4.46-1.62,1.3a9.59,9.59,0,0,1-2.91,4.65,4.92,4.92,0,0,1-2.27,1.21,2.47,2.47,0,0,1-2.8-1.22,5.81,5.81,0,0,1-.71-2.84c0-2.08-.08-4.17,0-6.26.14-2.73-.43-5.42-.37-8.14,0-.57-.14-1-.76-1.21a1.4,1.4,0,0,1,1.48-1.66l.33,0c1.28.16,1.06,1.21,1.08,2,.09,3.53.05,7.06,0,10.59a31.68,31.68,0,0,0,.37,4.14c.06.46.11,1,.66,1.12s1-.29,1.25-.72a3.43,3.43,0,0,0,.63-1.79,50.56,50.56,0,0,0-.06-7.28,89.23,89.23,0,0,1-.13-11.09,2,2,0,0,1,.34-1.15,18.47,18.47,0,0,1,2.79-2.8c1.51.13,1.41,1.31,1.43,2.32.09,3.93,0,7.86,0,11.79a18.06,18.06,0,0,0,.06,2.08c.07.59.2,1.21.86,1.37s1.15-.4,1.48-1a4.67,4.67,0,0,0,.56-2.85c-.45-5.36-.27-10.74-.36-16.11a3.42,3.42,0,0,1,.45-2.15,18.47,18.47,0,0,1,2.79-2.8c1.06.1,1,.94,1.11,1.66.67,3.85.24,7.74.36,11.61,0,1,0,2.09.06,3.13,0,.59.18,1.21.88,1.32s1-.43,1.31-1a5.15,5.15,0,0,0,.68-3c-.59-4.79-.19-9.6-.27-14.4,0-1.29-.53-2.67.39-3.88a18,18,0,0,1,2.8-2.79c1.32.25,1,1.34,1.09,2.19.44,4.44.36,8.9.4,13.36,0,.84-.34,2.18,1,2.21s1.51-1.21,1.54-2.18c.13-5.56.22-11.13,0-16.68A7.38,7.38,0,0,1,105.4,255.77Z"/>
      <path class="cls-9" d="M69.18,254c-.82.62-1.36,1.58-2.36,2-.69-3.64-1.74-7.2-2.66-10.78q-11.05-43.5-22.17-87-10.32-40.45-20.65-80.9c-.11-.45-.16-.91-.24-1.36-.46-2.3-1.13-4.54-1.65-6.82-.39-1.75-.27-2,1.54-2.5a1.33,1.33,0,0,1,.58.19,1.27,1.27,0,0,1,.38.45c2.56,7.51,4.17,15.29,6.15,23C32.59,107.63,37,125,41.41,142.43q6.42,25.15,12.85,50.32,6.48,25.32,12.93,50.66c.68,2.69,1.39,5.38,2.08,8.07A3.61,3.61,0,0,1,69.18,254Z"/>
      <path class="cls-9" d="M98.89,288.08c.28-1.1,1.33-1.57,1.94-2.4a3.28,3.28,0,0,1,2.69,0c18.51,4.55,37,9.2,55.48,13.77,20.47,5,40.9,10.23,61.37,15.23,17.39,4.25,34.73,8.68,52.11,13,4.55,1.12,9.15,2,13.6,3.55a3.72,3.72,0,0,1,2.43,2.76c-.3,1-.95.66-1.65.5-2.88-.65-5.69-1.58-8.62-2-3.2-.53-6.31-1.45-9.45-2.23q-38.36-9.5-76.68-19l-69.44-17.25-22.75-5.66A8.52,8.52,0,0,0,98.89,288.08Z"/>
      <path class="cls-4" d="M12.38,51.1c-2.25-9-.47-17.36,4.23-25.18A30.79,30.79,0,0,1,30.77,13c5.37-2.33,10.91-3.14,16.63-1.58A15.36,15.36,0,0,1,58.66,28.14c-.49-.24-.57-.72-.77-1.1a18.82,18.82,0,0,0-2.56-3.93A11.74,11.74,0,0,0,42.62,19.3c-8,2.16-15,10.08-16.16,18.3a14.7,14.7,0,0,0,.07,4.68c.3,1.65.3,1.65,1.91,2.14-.09.21-.22.47-.43.5-2.05.25-4,1.13-6.14.91a2.56,2.56,0,0,1-1.11-2.22,23,23,0,0,1,4.76-16.12,27.14,27.14,0,0,1,12-9.36,14.31,14.31,0,0,1,9.5-.66c.21.07-.06,0,.16,0s.28.18.44.21c-.15,0-.25-.18-.41-.2-4-.87-7.89-1.61-12-.64a26.13,26.13,0,0,0-15.67,10.7A30.69,30.69,0,0,0,13.62,49a4.32,4.32,0,0,1-.08,1.56C13.28,51,13,51.33,12.38,51.1Z"/>
      <path class="cls-4" d="M310.85,326.79c.21,1.2.95,1.62,2.13,1.76,7.42.91,13.2-2.18,18.06-7.39a19.41,19.41,0,0,0,5.26-10.39,11.53,11.53,0,0,0-4-10.9,17.88,17.88,0,0,0-3.9-2.59,4.17,4.17,0,0,1-1.6-1,12.71,12.71,0,0,1,5.13.35c7.88,1.66,12.16,7.51,12.6,15,.55,9.1-2.95,16.62-9.67,22.67a35.1,35.1,0,0,1-18.87,9,31.17,31.17,0,0,1-10.55-.31l-1.37-.25a1,1,0,0,1,.43-1,10.71,10.71,0,0,1,4.11-.2,26.19,26.19,0,0,0,12-2.17c6.57-2.65,12-6.78,15.42-13.11a21.13,21.13,0,0,0,2.42-15.09c-.13-.56-.14-1.15-.27-1.45.73,4-.66,7.86-2.84,11.39-3.95,6.4-9.4,10.94-16.85,12.74a18.83,18.83,0,0,1-6,.57,3.86,3.86,0,0,1-3-1.09A11.16,11.16,0,0,1,310.85,326.79Z"/>
      <path class="cls-10" d="M304.61,321.83c1.38.64,1.69,1.83,1.69,3.2a1,1,0,0,1,.36,1.23,42.85,42.85,0,0,1-3.1,8.19,1.28,1.28,0,0,1-.87.76c-1-.43-.65-1.22-.48-1.92a8.12,8.12,0,0,0,.56-2.94c-2,3.59-4,6.71-6.08,9.94.92.2,1.59-.43,2.25,0,.41.56.15.93-.37,1.21a5.9,5.9,0,0,0-.73.15c-1.61.56-3.17.82-4.47-.66a2.61,2.61,0,0,1,.47-3c3.47-4.53,6.75-9.17,8.57-14.68C302.74,322.33,303.38,321.57,304.61,321.83Z"/>
      <path class="cls-10" d="M30,48.93c1.53.09,3,.34,3.45,2.13a2.76,2.76,0,0,1-2,2,41.7,41.7,0,0,0-13,7.48c-1.21,1-2.47,2.2-4.33,1.43-1.38-1.46-1.52-2.61-.56-4.61a.45.45,0,0,1,.46.08c.39.84.79,1.29,1.79.57a96.78,96.78,0,0,1,8.94-5.57,9.87,9.87,0,0,0-4,1.06c-.71.27-1.5.85-2.16-.13,0-.63.45-.89.92-1.14a53,53,0,0,1,9-3.56A1.27,1.27,0,0,1,30,48.93Z"/>
      <path class="cls-10" d="M310.85,326.79c.16,2.29-.57,4.42-1.09,6.6a3.23,3.23,0,0,1-1.65,3.65.79.79,0,0,1-.5-.06c-1-1.07.08-2.21-.12-3.5-1.83,3.11-3.54,6.09-5.52,8.9.44.61,1.23.17,1.57.73-1.84,1.68-3.46,1.78-5,.31-.49-1.28.51-2.05,1.09-2.9a45.41,45.41,0,0,0,5.86-10.72c.45-1.3.78-2.64,1.26-3.93.39-1.08,1-1.79,2.29-1.59C310.31,324.68,310.64,325.69,310.85,326.79Z"/>
      <path class="cls-10" d="M21.84,45.47a19,19,0,0,1,6.6-1c1.21.28,2.26.74,2.47,2.15a3.23,3.23,0,0,1-2.52,2.11,38.31,38.31,0,0,0-14.28,7.37,2.71,2.71,0,0,1-2.38.65c-1.38-1.27-1.47-2.46-.31-4.33a1.45,1.45,0,0,0,2.3.26c2.38-1.78,5-3.2,7.71-4.85-1.21-.17-2.18.63-3.19.12a.75.75,0,0,1-.37-.68A3.44,3.44,0,0,1,21.84,45.47Z"/>
      <path class="cls-10" d="M292.69,338.29a.45.45,0,0,0-.32.06c-.16,0-.28.17-.45.2a4,4,0,0,1-3-.41c-.56-.38-1.15-.8-1.12-1.61a3.5,3.5,0,0,1,.95-2.18,71.05,71.05,0,0,0,10.11-13.6c.39-.67.82-1.46,1.84-1.32,1.2.55,1.33,1.65,1.42,2.77.06.1.17.21.16.3a13.8,13.8,0,0,1-3.83,8.19c-1.09-.6-.4-1.52-.44-2.72-2.36,3.27-4.72,6.15-7.12,9.19,1.36.26,2.09-1.24,3.28-.66.45.86-.1,1.31-.7,1.74A1.3,1.3,0,0,1,292.69,338.29Z"/>
      <path class="cls-11" d="M79.3,281.58a5.35,5.35,0,0,1-1.48,1.66c-.32.13-.64.28-1,.4a4.14,4.14,0,0,1-4.62-1,4.27,4.27,0,0,1-.53-4.86l.56-1.07.09-.19.37-.16.66-.37a4.68,4.68,0,0,1,3.67.08,4,4,0,0,1,2.3,4.5C79.31,280.89,79.32,281.24,79.3,281.58Z"/>
      <path class="cls-10" d="M17.91,67.2A2.3,2.3,0,0,1,16.55,65a7.35,7.35,0,0,0,2.89-1.8c2.35-2,4.87-3.9,7.55-5.85-.65-.28-1.46-.07-1.76-.79.79-1.72,5.92-4,7.73-3.35,1.28,0,2.42.29,2.85,1.73-.09.65-.57.94-1.09,1.24a78.91,78.91,0,0,0-14,10.27C19.85,67.16,19,67.66,17.91,67.2Z"/>
      <path class="cls-12" d="M25.32,56.65c.75,0,1.44-.44,2.21-.3.41.07.83.19.93.65s-.38.51-.64.69a81.62,81.62,0,0,0-9.13,7.12c-1.06,1-1.07.93-2.14.15a1.27,1.27,0,0,1,.05-1.3c1.26-3.8,4.59-5.36,7.72-7.15a1.72,1.72,0,0,1,.75.07Z"/>
      <path class="cls-12" d="M303.54,343.11c-.48.18-1,.37-1.45.54s-.93.18-1.23-.3,0-.77.23-1.09c1.2-1.63,2.29-3.32,3.34-5.05.92-1.53,1.85-3,2.63-4.66.14-.3.26-.72.7-.65s.55.53.6.93a6.48,6.48,0,0,1-.47,2.88c-.13.38-.2.77-.3,1.16.31.76-.23,1.34-.4,2a1.53,1.53,0,0,1-.19.41,6,6,0,0,0-.53,1,5.8,5.8,0,0,0-.41.78c-.29.62-1,.69-1.46,1l-.54.69Z"/>
      <path class="cls-12" d="M18.37,47.63a13.2,13.2,0,0,1,3-.74,2.35,2.35,0,0,1,1.36.2c.35.23.44.53.08.84a4.43,4.43,0,0,1-.59.36,84.8,84.8,0,0,0-8.88,5.45,8.16,8.16,0,0,1-.88.56c-.66.34-1,.18-1.07-.54a12.89,12.89,0,0,1,0-1.39c.14-.56.7-.8,1-1.27a1.67,1.67,0,0,0,.84-.69,4.3,4.3,0,0,1,.51-1,1.83,1.83,0,0,1,.35-.33,1.48,1.48,0,0,1,.42-.2c.37-.1.66-.39,1-.48C16.5,48.18,17.34,47.53,18.37,47.63Z"/>
      <path class="cls-13" d="M300.7,319.43a6.67,6.67,0,0,0-1.54,2.07,71.67,71.67,0,0,1-9.69,12.83c-.67.67-1,1.54-1.67,2.2-.61-.47.32-1.33-.37-1.68a11.06,11.06,0,0,0-1.84-.49c-2.43-.72-5-1.09-7.35-2a6.07,6.07,0,0,1,2.2.21c2.16.56,4.33,1.07,6.49,1.62.54.13,1,.28,1.24-.44.18-.22.25-.51.41-.74a6.86,6.86,0,0,0,.67-.86,31.19,31.19,0,0,1,3-3.68c.66-1,1.36-1.94,2-2.92a2.23,2.23,0,0,1,1.57-1.18,29.48,29.48,0,0,0,3-5A1.34,1.34,0,0,1,300.7,319.43Z"/>
      <path class="cls-14" d="M24.62,57a30.17,30.17,0,0,0-6.42,4.64c-.65.6-1,1.41-1.6,2l.16-1.3c-1,.19-1.92.49-2.64-.43,1.63.11,2.67-1,3.77-1.89A45.74,45.74,0,0,1,31.05,52.5a14.35,14.35,0,0,0,2.35-1.44c.59.86-.32,1.4-.44,2.11a37.88,37.88,0,0,0-6.12,2.39,2.83,2.83,0,0,0-1.52,1.09h0C25.13,56.87,24.81,56.79,24.62,57Z"/>
      <path class="cls-13" d="M17.91,67.2a3.85,3.85,0,0,0,2.65-1.4A72,72,0,0,1,35.81,54.9c.52.5.14.94-.08,1.4a37.07,37.07,0,0,0-5.18,3.18c-.63,1.88-2.6,2.27-3.85,3.46S24.14,65,22.87,66.08a6,6,0,0,1-1.64,1c-1.91.65-1.92.65-1.46,2.53.36,1.5.73,3,1.12,4.51A4.71,4.71,0,0,1,21.1,76a70.63,70.63,0,0,1-1.93-7.12A2.2,2.2,0,0,0,17.91,67.2Z"/>
      <path class="cls-14" d="M298.22,330.57a26.6,26.6,0,0,0,3.23-6.6c.23-.58.44-1.18.67-1.77.77-.51,1.54-1.07,2.49-.37-1,.2-1.35,1-1.64,1.85a42.47,42.47,0,0,1-4.41,8.78,51.53,51.53,0,0,1-3.95,5.46,4,4,0,0,0-1.24,3.1c-.74-.51-.71-1.27-.67-2,.27-.29.07-.68.25-1a1.88,1.88,0,0,0,1.1-1.49,1.49,1.49,0,0,1,.38-1.59c1-1.38,1.95-2.83,3.07-4.14a1.16,1.16,0,0,1,.47-.2Z"/>
      <path class="cls-14" d="M11.73,56.7A3.77,3.77,0,0,0,13.28,56a41.91,41.91,0,0,1,14.45-7.69,9.22,9.22,0,0,0,3.18-1.7c.49,1.12-.42,1.66-1,2.36a49.93,49.93,0,0,0-10,3.65,2.38,2.38,0,0,0-1.19,1c0,.08,0,.16,0,.24a2.1,2.1,0,0,1-.31.66c-1.45,1.06-2.51,2.73-4.52,2.94l-.28,0c-.13-.45-.49-.32-.8-.32S12,57.09,11.73,56.7Z"/>
      <path class="cls-14" d="M309.09,324.28c-1.12.27-1.51,1.15-1.83,2.12a65.94,65.94,0,0,1-2.45,6.49,45.43,45.43,0,0,1-4.68,7.89c-.59.83-1.5,1.49-1.54,2.64-.58-.47-.29-1.09-.29-1.67a1.83,1.83,0,0,1,0-.47c.31-.25.67-.46.66-.94a1.7,1.7,0,0,1,0-.22,8.8,8.8,0,0,1,.55-1.21,2.31,2.31,0,0,1,.25-.36,2.33,2.33,0,0,0,.69-1.31,5,5,0,0,1,1.13-1.76,1.55,1.55,0,0,1,.63-.34l.23,0a16.76,16.76,0,0,0,2.58-5.43c.54-1.52.89-3.1,1.32-4.66C307.15,324.46,307.88,323.45,309.09,324.28Z"/>
      <path class="cls-15" d="M293,338a.84.84,0,0,1-.25,1v-.69Z"/>
      <path class="cls-16" d="M292,63.28l-.49-.11a.35.35,0,0,1,.55-.16C292.21,63.09,292.17,63.21,292,63.28Z"/>
      <path class="cls-17" d="M298.27,341.28c.19.15.38.29,0,.47l-.46-.07Z"/>
      <path class="cls-11" d="M72,276.43l.14,0c.18-.06.23,0,.15.17l0,.05Z"/>
      <path class="cls-15" d="M291.92,338.55a.37.37,0,0,1,.45-.2A.36.36,0,0,1,291.92,338.55Z"/>
      <path class="cls-18" d="M217.85,143.38a2,2,0,0,0,.68,1.17,127,127,0,0,1,11.86,14.71c1.65,2.33,2.06,4.17.12,6.84a61.77,61.77,0,0,1-8.84,10.45,59.87,59.87,0,0,1-8,5.82c-2.06,1.29-4.63.5-6.39-1.78-.71-.91-1.36-1.87-2-2.83-2.36-3.51-5.12-6.71-7.79-10a4,4,0,0,0-2.25-1.8,6.89,6.89,0,0,1,1.74-1.75c1.38-.3,2,.79,2.65,1.58a93.66,93.66,0,0,1,6.46,8.37,11.22,11.22,0,0,0,1.38,1.77c1.72,1.67,3.13,1.84,5.11.46a27.82,27.82,0,0,0,6.61-6.56c1.33-1.85,1.36-3,0-4.91a107.2,107.2,0,0,0-8.59-10.88c-.67-.75-1.64-1.44-.82-2.67C212.4,148.62,215.06,145.93,217.85,143.38Z"/>
      <path class="cls-18" d="M189.35,159.77c-1-1.57-2.57-2.51-3.93-3.64-3.38-2.81-6.95-5.39-10.47-8-2.57-1.92-3.69-4.79-1.38-7.85,2.68-3.55,5.25-7.21,8.62-10.18a68,68,0,0,1,7.86-6,4.3,4.3,0,0,1,5.07.24,120.29,120.29,0,0,1,13.61,10.74c.91.88,2,1.63,2.94,2.43-2.6,2.74-5.27,5.42-8,8-.9.4-1.55-.05-2.18-.62-3.37-3-6.93-5.8-10.58-8.47-2.47-1.8-3.67-1.84-6.07,0a39,39,0,0,0-5.65,5.63c-2.28,2.63-1,5,.91,6.4s4,3,6,4.48c1.3,1,2.52,2,3.78,3.06a2.58,2.58,0,0,1,1.25,2A7.59,7.59,0,0,1,189.35,159.77Z"/>
      <path class="cls-19" d="M209.83,151.39a1.85,1.85,0,0,0,.59,1.4A98.34,98.34,0,0,1,219.48,164a9.49,9.49,0,0,1,1,1.44,3.94,3.94,0,0,1-.2,4.27,30.35,30.35,0,0,1-7.42,7.49c-2.08,1.45-3.81,1.27-5.64-.46a24.12,24.12,0,0,1-3-4c-1.67-2.38-3.56-4.56-5.39-6.81a7.19,7.19,0,0,0-1.77-1.66,22,22,0,0,1,2.62-2.75C203,158.12,206.28,154.61,209.83,151.39Z"/>
      <path class="cls-19" d="M191.09,158c-3.07-2.54-6.14-5.07-9.36-7.42-.56-.41-1.11-.84-1.69-1.21a8,8,0,0,1-1.69-1.48,4.16,4.16,0,0,1-.3-5.56,34,34,0,0,1,7.08-7.09,4.08,4.08,0,0,1,5.16-.12c2.31,1.64,4.6,3.31,6.79,5.1a62,62,0,0,1,5.51,4.74,2.07,2.07,0,0,0,1.06.56C199.53,149.73,195.38,153.93,191.09,158Z"/>
      <path class="cls-20" d="M88.41,260.67c-5.54-.7-11.11-.24-16.67-.38a4.29,4.29,0,0,1-2.36-.44,1.31,1.31,0,0,1-.49-2.06,4.28,4.28,0,0,1,3.68-2,18,18,0,0,1,5,.21,7.7,7.7,0,0,0,1.73.09c3.25,0,6.5,0,9.75,0a5.48,5.48,0,0,1,3.15.75A35.14,35.14,0,0,1,88.41,260.67Z"/>
      <path class="cls-20" d="M95.72,253.36c-5.78-.32-11.57-.46-17.36-.38-1,0-2.14,0-2.44-1.16s.58-1.91,1.52-2.48a5.43,5.43,0,0,1,4-.76,12.44,12.44,0,0,0,2.58.22c3.65,0,7.3,0,11,0a10,10,0,0,1,4.57.75A36.16,36.16,0,0,1,95.72,253.36Z"/>
      <path class="cls-20" d="M73.76,275.33a2.14,2.14,0,0,0-1.64-.41c-1.33,0-2.66-.06-4,0-4.12.19-8.2-.39-12.31-.36a1.55,1.55,0,0,1-1.69-.93,1.65,1.65,0,0,1,.62-1.85,4.21,4.21,0,0,1,3.09-1.39c3.69.11,7.39-.21,11.09.26a42.51,42.51,0,0,0,6.08.06,3.73,3.73,0,0,1,2.59.75A36.83,36.83,0,0,1,73.76,275.33Z"/>
      <path class="cls-20" d="M81.07,268c-.58-.54-1.31-.4-2-.4-3.48,0-7-.08-10.43,0-2,0-3.92-.3-5.88-.4-1.46-.08-1.9-1.09-1.08-2.29a4.17,4.17,0,0,1,3.58-1.82,76,76,0,0,1,8,.19,75.42,75.42,0,0,0,8.51.11,5.45,5.45,0,0,1,3.16.75A36.83,36.83,0,0,1,81.07,268Z"/>
      <path class="cls-20" d="M110,239.12a2,2,0,0,0-1.63-.4c-5.21.22-10.39-.54-15.59-.35l-.7,0a1.49,1.49,0,0,1-1.5-1A1.65,1.65,0,0,1,91,235.5,4.41,4.41,0,0,1,94,234.19c4.28,0,8.56-.11,12.83.08,1.78.07,3.57.24,5.36.26a1.68,1.68,0,0,1,1.62.78A29.33,29.33,0,0,1,110,239.12Z"/>
      <path class="cls-20" d="M103,246.05c-5.73.06-11.45-.6-17.19-.38a5.3,5.3,0,0,1-.69,0c-.83-.07-1.71-.19-1.93-1.15a2,2,0,0,1,1-2.09,4.55,4.55,0,0,1,2.75-.94c5,0,10,0,15,.06a18.17,18.17,0,0,1,5,.7A35.33,35.33,0,0,1,103,246.05Z"/>
      <path class="cls-20" d="M98.42,262.73c.7,4.78.22,9.58.36,14.37a17.91,17.91,0,0,0,.24,3.1,6.52,6.52,0,0,1-.88,4.67,3.18,3.18,0,0,1-.5.7c-1.17,1.13-2.46.81-2.89-.75a6.6,6.6,0,0,1-.14-1.72c0-3.24-.07-6.48,0-9.72,0-1.86-.42-3.66-.43-5.51,0-.21-.18-.41-.29-.62A53.55,53.55,0,0,1,98.42,262.73Z"/>
      <path class="cls-20" d="M91.11,270.05a30.66,30.66,0,0,1,.33,7.77c-.11,3.71.39,7.38.38,11.08a5.59,5.59,0,0,1-1,3.41,2.44,2.44,0,0,1-1.23.92c-1,.34-1.61,0-2-1a6.26,6.26,0,0,1-.26-2.23q0-6.51,0-13a2.93,2.93,0,0,0-.69-2.42A50.63,50.63,0,0,1,91.11,270.05Z"/>
      <path class="cls-20" d="M120,241.16a3.4,3.4,0,0,1,.34,1.33c.09,6.08.55,12.15.35,18.23a3.85,3.85,0,0,1-1.77,3.39,1.45,1.45,0,0,1-2.39-1.16,4.43,4.43,0,0,1,0-.52c.06-5-.57-10.05-.36-15.09a2.73,2.73,0,0,0-.33-2A39.18,39.18,0,0,1,120,241.16Z"/>
      <path class="cls-20" d="M83.8,277.36a9.19,9.19,0,0,1,.36,2.91c0,1.79,0,3.58,0,5.38,0,3.52.51,7,.36,10.55a6,6,0,0,1-1,3.42,2.46,2.46,0,0,1-1.22.92c-1.13.37-1.83-.06-1.91-1.23-.17-2.24-.43-4.48-.38-6.74.08-3.06,0-6.13,0-9.2a2.62,2.62,0,0,0-.34-1.83A39.18,39.18,0,0,1,83.8,277.36Z"/>
      <path class="cls-20" d="M112.71,248.47a3.4,3.4,0,0,1,.34,1.33c0,3.41.48,6.81.36,10.23-.09,2.61,0,5.22,0,7.82a4.36,4.36,0,0,1-1.22,3.16,1.83,1.83,0,0,1-2,.62,1.63,1.63,0,0,1-.93-1.72c0-.17,0-.35,0-.52.23-5.1-.5-10.17-.35-15.27a2,2,0,0,0-.34-1.48A39.18,39.18,0,0,1,112.71,248.47Z"/>
      <path class="cls-20" d="M105.4,255.77a15.12,15.12,0,0,1,.68,4.27c0,4.93,0,9.86,0,14.79a5.08,5.08,0,0,1-.8,3,2.19,2.19,0,0,1-2.16,1.16c-.77-.2-1.21-.87-1.22-2.08,0-2.84,0-5.68,0-8.52,0-2.49-.5-5-.35-7.46a1.37,1.37,0,0,0-.33-1A41.14,41.14,0,0,1,105.4,255.77Z"/>
      <path class="cls-21" d="M295.83,324.4a23,23,0,0,1-3.16,4.43c-1.38,0-2-1.05-2.75-1.9a35.06,35.06,0,0,1-8.48-20.49,114.35,114.35,0,0,1,.32-19.23c.87-9.56,2.38-19,3.48-28.58q1-9,1.59-18.13A85.24,85.24,0,0,0,284.65,215c-1.81-7.47-6.36-13.11-11.91-18.14-8.75-7.91-18.91-13.95-28.14-21.2-2.46-1.94-4.95-3.83-7.23-6a4.58,4.58,0,0,1-1.36-2l3.34-3.93a2.56,2.56,0,0,1,1.31.8,129,129,0,0,0,15.08,12c5.62,4,11.32,7.88,16.68,12.21a62.86,62.86,0,0,1,12.37,12.6,37,37,0,0,1,5.77,14A72.55,72.55,0,0,1,292.07,228c.06,2.08.34,4.16.24,6.24-.17,3.58-.3,7.16-.58,10.74-.24,3.05-.5,6.11-.81,9.15-.32,3.22-.78,6.43-1.19,9.64s-.83,6.19-1.22,9.28c-.45,3.5-.86,7-1.29,10.5-.16,1.32-.24,2.65-.38,4a89.62,89.62,0,0,0-.35,15.1c.3,5,1.17,9.9,3.72,14.33A28.05,28.05,0,0,0,295.83,324.4Z"/>
      <path class="cls-21" d="M26.3,62.54a21.74,21.74,0,0,1,4.25-3.06A35.74,35.74,0,0,0,37,64.42c4.23,2.65,8.94,3.63,13.84,4.13a91.58,91.58,0,0,0,10.07.26c2.43,0,4.84-.36,7.26-.55,2.59-.21,5.18-.46,7.76-.8,2.41-.31,4.82-.59,7.23-.89,3.15-.4,6.3-.82,9.46-1.21,2.18-.28,4.36-.53,6.54-.79,3.27-.39,6.55-.71,9.83-1,2.48-.22,5-.34,7.44-.5a73.28,73.28,0,0,1,11.28.1c2.71.25,5.42.4,8.11.82,6.65,1,13.06,2.74,18.52,6.92a60.14,60.14,0,0,1,7.45,6.74c6.7,7.12,11.94,15.34,17.71,23.16,3.5,4.75,6.89,9.61,11.1,13.79a2.38,2.38,0,0,1,.81,1.31l-3.91,3.35c-1.37-.4-2.18-1.52-3.05-2.51a216,216,0,0,1-13.73-18.12,172.68,172.68,0,0,0-13.67-17.52,36.85,36.85,0,0,0-23-11.84,95.23,95.23,0,0,0-16.78-1c-6.24.27-12.46.85-18.67,1.55-5.92.67-11.82,1.49-17.72,2.26-4.76.62-9.52,1.2-14.31,1.58-9.43.75-18.85,1.26-28-2-4.46-1.59-8.1-4.43-11.69-7.37A1.57,1.57,0,0,1,26.3,62.54Z"/>
      <path class="cls-22" d="M236,167.73a2,2,0,0,1,1.17.69,139,139,0,0,0,14.25,11.35c5.71,4.15,11.61,8.06,17.12,12.49a62.4,62.4,0,0,1,12.3,12.42,30.07,30.07,0,0,1,4.41,9.57,69.75,69.75,0,0,1,2.27,14.37,77.9,77.9,0,0,1,.23,8.5c-.18,3.17-.27,6.35-.55,9.52-.25,2.88-.53,5.75-.82,8.63-.32,3.22-.79,6.42-1.2,9.63s-.81,6.31-1.21,9.46c-.43,3.38-.82,6.77-1.27,10.15-.19,1.43-.23,2.88-.38,4.32A91.63,91.63,0,0,0,282,304.1a39.34,39.34,0,0,0,3,13.66,41.55,41.55,0,0,0,4.66,7.52c.91,1.28,2.07,2.33,3.05,3.55a20.34,20.34,0,0,1-3.2,3.85c-.69.24-1.06-.26-1.48-.65a33.58,33.58,0,0,1-10.93-21.64,108,108,0,0,1,.15-20.26c.77-9.52,2.28-18.94,3.33-28.43a161.59,161.59,0,0,0,1.32-24.07c-.3-7.95-1.4-15.8-4.88-23.06a26.79,26.79,0,0,0-11.12-11.82c-6.8-3.89-14.31-5.55-21.83-7.19-6.11-1.33-12.25-2.55-18.13-4.74a34.24,34.24,0,0,1-8-4c-.58-.41-1.25-.75-.7-1.63A133.49,133.49,0,0,0,236,167.73Z"/>
      <path class="cls-21" d="M217.16,185.15c.05.77.71,1,1.22,1.35a39.68,39.68,0,0,0,9.94,4.53c7.07,2.29,14.42,3.46,21.63,5.2a58.46,58.46,0,0,1,16.67,6.33,28.51,28.51,0,0,1,12,14.42,57.53,57.53,0,0,1,3.29,13.11c.91,6.23.74,12.49.6,18.74-.07,3.29-.57,6.57-.91,9.84-.36,3.46-.72,6.91-1.14,10.35-.38,3.1-.86,6.19-1.25,9.29-.31,2.46-.49,4.95-.83,7.41-.49,3.56-.71,7.14-.92,10.71a74.19,74.19,0,0,0,.12,11.64,66.41,66.41,0,0,0,1.18,7.71A28.1,28.1,0,0,0,285,328a39,39,0,0,0,4.44,4.64,1.17,1.17,0,0,1-.63.71,15.86,15.86,0,0,1-5.31-5c-.91-1.75-2.29-3.18-3.28-4.89a37.85,37.85,0,0,1-4.48-14.12,95.42,95.42,0,0,1-.41-16.64c.18-4.35.69-8.71,1.21-13,.61-5,1.25-10.08,1.89-15.11s1.24-9.86,1.6-14.8a101.54,101.54,0,0,0,0-18.37,60.05,60.05,0,0,0-3.42-15.33c-2.6-6.72-7.44-11.16-13.9-14-5.91-2.64-12.19-4-18.48-5.32-7.2-1.53-14.39-3.06-21.14-6.11a23.3,23.3,0,0,1-7.13-4.53A2.58,2.58,0,0,1,217.16,185.15Z"/>
      <path class="cls-4" d="M216,186.13c6.49,4.81,14,7,21.77,8.73,5.53,1.25,11.12,2.29,16.58,3.84a46.51,46.51,0,0,1,12.74,5.42,25.42,25.42,0,0,1,10.19,12.6,53.79,53.79,0,0,1,3.24,13.82,70.17,70.17,0,0,1,.59,11.94c-.2,3-.24,6-.52,9s-.54,5.87-.85,8.8c-.41,4-1,7.91-1.51,11.87-.43,3.38-.85,6.76-1.23,10.15s-.66,6.55-1,9.83c-.05.52-.07,1-.07,1.56,0,3.77-.06,7.54,0,11.3a41.06,41.06,0,0,0,3.66,16.84,43.82,43.82,0,0,0,4.35,6.69.36.36,0,0,1-.06.52c-.59.25-1.15.4-1.32-.48.18-.1.55-.11.45-.38a3.91,3.91,0,0,0-.66-1,35.31,35.31,0,0,1-7.14-17.49,91.51,91.51,0,0,1-.42-19.08c.6-9.37,2-18.65,3.11-28,.66-5.52,1.27-11,1.6-16.6.22-3.71.34-7.42.2-11.12a58.56,58.56,0,0,0-3.36-18.56,23.41,23.41,0,0,0-11.86-13.06,61.17,61.17,0,0,0-13.64-4.58c-6-1.43-12.15-2.5-18.12-4.2A51.17,51.17,0,0,1,218,188.13c-.77-.52-1.51-1.08-2.26-1.62C215.82,186.38,215.92,186.25,216,186.13Z"/>
      <path class="cls-22" d="M26.3,62.54a38.14,38.14,0,0,0,7.22,5.68c4.68,3,9.94,4.24,15.43,4.86a75.94,75.94,0,0,0,11.28.22c3.46-.14,6.92-.49,10.37-.85q4.92-.53,9.83-1.16c3.09-.4,6.19-.83,9.29-1.22q5.25-.64,10.51-1.23c3-.34,6-.63,9-.94a5.38,5.38,0,0,1,.69-.07c4.63-.14,9.26-.61,13.89-.35,6.78.39,13.5,1.12,20,3.39a30.64,30.64,0,0,1,9.63,5.78c5.76,4.85,10.27,10.81,14.66,16.87,4,5.49,7.89,11,11.93,16.47a79.57,79.57,0,0,0,6.6,7.84c.4.41.88.77,1,1.41a144.57,144.57,0,0,0-17.66,18.94c-1.11.27-1.39-.7-1.79-1.32A45.07,45.07,0,0,1,162.89,125c-1.91-6.45-3-13.09-4.59-19.62-1.44-5.91-3.27-11.68-6.47-16.94-3.78-6.21-9.39-9.89-16.15-12.08-8.15-2.65-16.55-3.13-25-3-8.69.18-17.29,1.32-25.9,2.36-8.21,1-16.39,2.21-24.66,2.64A108.46,108.46,0,0,1,49,78.54c-9.24-.47-17.77-2.92-24.42-9.89-.83-.88-2.3-1.31-2.09-2.93A16.88,16.88,0,0,1,26.3,62.54Z"/>
      <path class="cls-21" d="M22.48,65.72A34.44,34.44,0,0,0,30,72.39c3.91,2.84,8.43,4,13.1,4.79a64.29,64.29,0,0,0,13.51.67c3.75-.2,7.5-.45,11.23-.87,3.34-.37,6.67-.77,10-1.17s6.64-.88,10-1.25c3.79-.42,7.58-.87,11.37-1.26a138.79,138.79,0,0,1,19.44-.58,55.73,55.73,0,0,1,21.89,4.89A27.94,27.94,0,0,1,153.41,90a64.65,64.65,0,0,1,5.65,15.84c1.54,6.36,2.6,12.83,4.48,19.11a42.8,42.8,0,0,0,5.2,11.9,3.28,3.28,0,0,0,1.12,1.3l-.42.64c-1.11.39-1.38-.58-1.79-1.18a50.41,50.41,0,0,1-6.57-15.23c-1.89-6.87-3-13.92-4.86-20.78a60.88,60.88,0,0,0-4-10.9c-3.37-6.88-8.91-11-16.12-13.23a69.67,69.67,0,0,0-16.68-2.63,113.42,113.42,0,0,0-14,.32c-5.8.39-11.58,1.16-17.35,1.89-4.28.54-8.58,1-12.87,1.58A156.61,156.61,0,0,1,52.35,80,48.55,48.55,0,0,1,35.41,76.9c-3.72-1.47-6.8-3.89-9.92-6.28-1.43-1.1-2.61-2.45-4-3.56h-.24C21.32,66.31,22,66.07,22.48,65.72Z"/>
      <path class="cls-4" d="M21.47,67.06c.75-.46,1.05.24,1.41.61a55.93,55.93,0,0,0,5.6,4.93,32.55,32.55,0,0,0,14.47,6c6.49,1.19,13.06.8,19.59.61,4-.12,8.05-.72,12.07-1.19,5.11-.6,10.21-1.31,15.31-1.91,3.62-.43,7.24-.87,10.86-1.23A43.08,43.08,0,0,1,107,74.4c1.57.07,3.13-.25,4.67-.27a79.18,79.18,0,0,1,21.53,2.1,38.94,38.94,0,0,1,9.35,3.67,25,25,0,0,1,9.83,10.51,62.65,62.65,0,0,1,5.27,15c1.81,7.61,3,15.35,5.65,22.76a43.25,43.25,0,0,0,4.61,9.32c.38.59.73,1.21,1.53,1.29a1.28,1.28,0,0,1-.7.71,42.25,42.25,0,0,1-6.94-13.36c-2-5.94-3.18-12.1-4.53-18.21a85.93,85.93,0,0,0-4.22-14.69c-2.27-5.44-5.54-10-10.89-12.89a36.65,36.65,0,0,0-8.63-3.18,72.6,72.6,0,0,0-18.47-1.76A175,175,0,0,0,97.2,76.76c-8.74,1-17.48,2.17-26.24,3.13A122.1,122.1,0,0,1,52,80.62a56.47,56.47,0,0,1-11.85-1.71,33.54,33.54,0,0,1-12.92-6.59l-2.58-2.07c-.95.4-1.48-.22-2-.86a14.87,14.87,0,0,1-1.19-2A1.5,1.5,0,0,0,21.47,67.06Z"/>
      <path class="cls-7" d="M21.53,67.35l3.15,2.9A73.38,73.38,0,0,0,26.53,78q9.66,37.94,19.35,75.87,9.12,35.74,18.25,71.5L71.18,253l-2,1.06c-.37-1.39-.76-2.79-1.12-4.19q-4.86-19-9.71-38.08-4.12-16.17-8.27-32.34-4.41-17.28-8.8-34.55Q37,128,32.67,111.16c-2.94-11.51-5.84-23-8.81-34.54C23.06,73.53,22.21,70.46,21.53,67.35Z"/>
      <path class="cls-23" d="M72.32,276.64a.8.8,0,0,0-.15-.17l.56-.13A.48.48,0,0,1,72.32,276.64Z"/>
      <path class="cls-7" d="M282.61,328.55c.37.36.88.31,1.33.46.89.73,1.89,1.38,2.09,2.66-3-.73-6.09-1.45-9.12-2.21L222.77,316l-51.45-12.77-52.29-13c-5.63-1.4-11.25-2.76-16.88-4.15-.45-.11-.88-.28-1.32-.42l1.1-2a.17.17,0,0,0,.23,0c.35.24.81,0,1.14.3,3.54,1.11,7.17,1.87,10.76,2.77q34.11,8.5,68.25,17l99.95,24.8Z"/>
      <path class="cls-24" d="M286,331.67c-.56-1-1.62-1.6-2.09-2.66,0-.17,0-.33.05-.5,1.09.63,1.54,1.85,2.45,2.65a26.72,26.72,0,0,0,2.4,2.23.74.74,0,0,1-.67.39A13.78,13.78,0,0,0,286,331.67Z"/>
      <path class="cls-21" d="M14.3,49.68a3,3,0,0,1-1.09.73,28.56,28.56,0,0,1,1.6-15.86A34,34,0,0,1,22.37,23,24.12,24.12,0,0,1,33,16.63a20.36,20.36,0,0,1,11.65-.39,7.19,7.19,0,0,1,2.93,1.44h0a43.19,43.19,0,0,0-6.23.17A22.42,22.42,0,0,0,32,22.09a26.66,26.66,0,0,0-8.62,10.68,20.34,20.34,0,0,0-1.5,12.7A29.17,29.17,0,0,0,18,47.35c-.3.33-.62.52-1,.2a2.74,2.74,0,0,1-.76-1.87A21.8,21.8,0,0,1,19,32.31a17.33,17.33,0,0,1,1.14-1.81s0,0,0,0c-.28.56-.74,1-1,1.54A34,34,0,0,0,15,47.91a2.25,2.25,0,0,1-.43,1.44l-.07.08A.34.34,0,0,0,14.3,49.68Z"/>
      <path class="cls-21" d="M47.6,17.68l.31.08c-.18.23-.21-.06-.31-.09Z"/>
      <path class="cls-21" d="M304.6,342.06a6.26,6.26,0,0,1,1-1.4,4.9,4.9,0,0,1,3-.71A31.93,31.93,0,0,0,322,336.59a19.63,19.63,0,0,1-13.13,2.07,2.1,2.1,0,0,1-1.23-.57.86.86,0,0,1,.36-1.21l1.8-3.49c1.1.11,2.19.31,3.28.33a22.7,22.7,0,0,0,13.67-4.36,27.89,27.89,0,0,0,8.69-9.78,19.21,19.21,0,0,0,2.12-11.6c0-.17-.06-.34-.07-.51s.05-.09.18-.27a11,11,0,0,1,1.65,4.17A21.65,21.65,0,0,1,338,324c-2.47,6.26-7,10.64-12.66,14a33.88,33.88,0,0,1-13.79,4.39,10,10,0,0,1-2.94,0A31.36,31.36,0,0,0,304.6,342.06Z"/>
      <path class="cls-12" d="M302,335.82a6.24,6.24,0,0,0-1,1.72,11.86,11.86,0,0,1-1,1.42h0a15.78,15.78,0,0,1-1.06,1.38h0c-.79.34-1.39,1.09-2.34,1.07-.35,0-.72,0-.94-.33s0-.66.2-.95c1.14-1.75,2.29-3.49,3.42-5.25a48.07,48.07,0,0,0,2.92-5.13c.15-.3.27-.71.7-.68s.59.49.74.86a2.23,2.23,0,0,1-.11,1.53c-.36,1.22-.74,2.43-1.12,3.65h0C302.23,335.32,302.3,335.66,302,335.82Z"/>
      <path class="cls-12" d="M13.84,57.37c1.16-1.44,2.8-2.29,4.19-3.45.15-.26.5-.18.68-.39h0c1.66-.49,3.1-1.58,4.85-1.82a7.18,7.18,0,0,1,1.19-.19c.52,0,1.14.15,1.29.71s-.53.67-.9.86a91.81,91.81,0,0,0-8.45,5.13c-.38.26-.75.55-1.15.78s-1,1-1.67.51-.19-1.07-.09-1.62A4.35,4.35,0,0,0,13.84,57.37Z"/>
      <path class="cls-25" d="M308,336.88l-.29,1c0,.73-.19,1.22-1.06,1.07a4.52,4.52,0,0,1,1-2.1Z"/>
      <path class="cls-26" d="M17.31,47.56l.73-.21.33.28A8,8,0,0,1,15.43,49C15.46,47.78,16.14,47.35,17.31,47.56Z"/>
      <path class="cls-12" d="M298,331a35.37,35.37,0,0,1-3.9,5.53c-.45.35-.89.73-1.37,1.05a3.42,3.42,0,0,1-1.92.71c-.42,0-.85-.08-1-.5s.14-.65.36-.91l3-3.61a62.91,62.91,0,0,0,4.45-6c.18-.29.32-.68.74-.62s.56.53.64.92a2.35,2.35,0,0,1-.16,1.36,4.73,4.73,0,0,0-.51,1.65h0C298.14,330.71,298,330.84,298,331Z"/>
      <path class="cls-10" d="M24.62,57a.94.94,0,0,1,.7-.34A.85.85,0,0,1,24.62,57Z"/>
      <path class="cls-27" d="M306.61,339c.52-.19.64-.78,1.06-1.07a33.17,33.17,0,0,1,3.61.34,25.3,25.3,0,0,0,7.69-1,22.34,22.34,0,0,0,4.5-1.79,1.61,1.61,0,0,1,1.45-.35,27.83,27.83,0,0,1-19.27,5.58c.09-.18.17-.35.26-.52a6.16,6.16,0,0,1,.71-1.18Z"/>
      <path class="cls-25" d="M306.62,339a1.61,1.61,0,0,1-.71,1.18A1.25,1.25,0,0,1,306.62,339Z"/>
      <path class="cls-27" d="M17.31,47.56c-.59.53-1.39.8-1.88,1.48l-.83.31c-.83-2.84-.17-5.64.41-8.39a27.52,27.52,0,0,1,4-9.35c.32-.09.48,0,.37.35a39.85,39.85,0,0,0-2.08,6.19A25.88,25.88,0,0,0,17.31,47.56Z"/>
      <path class="cls-27" d="M14.3,49.68l.23-.25Z"/>
      <path class="cls-10" d="M298,331l.29-.38Z"/>
      <path class="cls-10" d="M18.71,53.53a1,1,0,0,1-.68.39A.79.79,0,0,1,18.71,53.53Z"/>
      <path class="cls-10" d="M300,339a2.12,2.12,0,0,1,1-1.42A1.65,1.65,0,0,1,300,339Z"/>
      <path class="cls-10" d="M298.93,340.34A2,2,0,0,1,300,339,1.65,1.65,0,0,1,298.93,340.34Z"/>
      <path class="cls-10" d="M302,335.82a1,1,0,0,1,.37-.7A.78.78,0,0,1,302,335.82Z"/>
      <path class="cls-8" d="M103.3,284a1.33,1.33,0,0,1-1.14-.3A1.31,1.31,0,0,1,103.3,284Z"/>
      <path class="cls-28" d="M19.43,32l-.37-.35c.52-.75.87-1.64,1.73-2.11h0A5.43,5.43,0,0,1,19.43,32Z"/>
      <path class="cls-28" d="M20.79,29.5a3.94,3.94,0,0,1,.14-.49c.07-.14.19-.32.37-.12,0,0,0,.23-.1.3a3.12,3.12,0,0,1-.4.32Z"/>
    </g>
  </g>
</svg>
