<svg id="Layer_1" data-name="Layer 1" xmlns="http://www.w3.org/2000/svg" width="189.12" height="331.11" viewBox="0 0 189.12 331.11">
  <defs>
    <style>
      .cls-1 {
        opacity: 0.5;
      }

      .cls-2 {
        fill: #ff0;
      }

      .cls-3, .cls-8 {
        fill: #196131;
      }

      .cls-3, .cls-4, .cls-8 {
        stroke: #1c3d1c;
      }

      .cls-10, .cls-12, .cls-13, .cls-14, .cls-3, .cls-4, .cls-8 {
        stroke-miterlimit: 10;
      }

      .cls-3 {
        stroke-width: 0.25px;
      }

      .cls-4 {
        fill: #27ac4a;
        stroke-width: 0.5px;
      }

      .cls-5 {
        fill: #1d8240;
      }

      .cls-6 {
        fill: #35b34a;
      }

      .cls-7 {
        fill: #215a2d;
      }

      .cls-9 {
        fill: #188441;
      }

      .cls-10 {
        fill: #7456a3;
      }

      .cls-10, .cls-12, .cls-13 {
        stroke: #312254;
      }

      .cls-11, .cls-12 {
        fill: #5e3593;
      }

      .cls-13 {
        fill: #724d9e;
      }

      .cls-14 {
        fill: #f7991c;
        stroke: #de6e26;
        stroke-width: 0.75px;
      }

      .cls-15 {
        fill: #fcbf10;
      }

      .cls-16 {
        fill: #fcd58a;
      }

      .cls-17 {
        fill: #836db0;
      }
    </style>
  </defs>
  <g>
    <path class="cls-1" d="M84.22,331.11l-.52,0a10.08,10.08,0,0,1-8.21-4.87,185.65,185.65,0,0,1-10-19.4,7.67,7.67,0,0,1-1.75-4.1A173.22,173.22,0,0,1,57,283a7.62,7.62,0,0,1-1.59-4.21c0-.5-.19-2.23-.64-4.83-.27-1.29-.54-2.59-.78-3.88a65.54,65.54,0,0,0-7.08-18.2c-7.55-1.45-22.38-5.63-32-16.84l-.2-.24A37.16,37.16,0,0,1,8.5,224.59h0a38.78,38.78,0,0,1-2.18-7.82h0a46.31,46.31,0,0,1-.45-11.24c0-.24,0-.38,0-.38l.59-6.4,6.43.13a31.87,31.87,0,0,1,6.16.93,46.19,46.19,0,0,1,9.73,3.55h0A49.81,49.81,0,0,1,39,210.07h0a57.18,57.18,0,0,1,12.55,15.34A199.18,199.18,0,0,1,58.65,186a64.33,64.33,0,0,0-3.86-11.58c-4.69-1.3-12-4.24-16.78-10.58h0a22.66,22.66,0,0,1-3.39-6.36h0a23.32,23.32,0,0,1-1.07-4.78h0a26.3,26.3,0,0,1,0-6.14c0-.46.08-.71.08-.71l1-6.29,6.36.41a19.84,19.84,0,0,1,3.83.77,27.88,27.88,0,0,1,3.91,1.51h.13l1.57.88a29.12,29.12,0,0,1,5.68,4.21h0a36.16,36.16,0,0,1,9.74,17.08l.06.12a336.37,336.37,0,0,1,17.68-37.37q1.09-2.07,2.06-4.14l-.51-.2-.16.09a41.49,41.49,0,0,1-5.27,2.37,48.81,48.81,0,0,1-17.12,3.41c-12.53,0-19.45-6.07-22-8.89-3.14-2-10.86-7.79-12.08-16.72-.48-3.5-.07-8.51,3.89-14L31.05,89A22.38,22.38,0,0,1,11,67.62c-.28-7.49,3.68-16.84,15.25-20.71-2.39-5.5-2.64-10.63-.63-14.83,2.65-5.57,8.55-8.74,17.52-9.43l.39,0,.38,0a61.77,61.77,0,0,1,27.83,8.8C73.36,12.9,85.16,6.2,96,6.2q.64,0,1.17,0a19.84,19.84,0,0,1,4.41-.51c11.44,0,17.46,10.2,19.52,17.13A35,35,0,0,1,135.9,15a20.84,20.84,0,0,1,5-.64,15.42,15.42,0,0,1,12.47,6.13c4.51,5.85,5.15,14.63,4.52,19.08A30.31,30.31,0,0,1,156.16,51a54.29,54.29,0,0,1,7-.47c9.87,0,17.72,2.91,22.11,8.2a16.94,16.94,0,0,1,3.46,14.38C186.4,85.69,179.69,89.73,175,91a19.54,19.54,0,0,1-7.62,8.31c-2.41,2.28-8.29,6.35-19.43,6.35-1.32,0-2.68-.06-4.07-.18a23.21,23.21,0,0,1-4.17,8c-3.29,4.12-11.11,11-26.58,11-1.69,0-3.44-.09-5.23-.25l-1.09.14a93.14,93.14,0,0,1-3.76,8.74,15.1,15.1,0,0,1,2.56.34l6.18,1.5-1,6.38s0,.19-.11.53a19,19,0,0,1-1.35,4.16h0a17.29,17.29,0,0,1-1.83,3.07h0a16.42,16.42,0,0,1-3.84,3.69h0a21.74,21.74,0,0,1-12.28,3.48.52.52,0,0,1-.1.11,221,221,0,0,0-16,46.12,31.89,31.89,0,0,1,14.06-9.45h0A24.07,24.07,0,0,1,96.4,192H97a24.35,24.35,0,0,1,5.22.69h0a28.74,28.74,0,0,1,6.24,2.32c.42.2.65.33.65.33l5.62,3.07-2.62,5.85a20.44,20.44,0,0,1-2.19,3.55,29.39,29.39,0,0,1-4.5,4.79h0a31.35,31.35,0,0,1-6.4,4.21h0a37.67,37.67,0,0,1-16.89,3.71c-.69,0-1.4,0-2.12,0a28.46,28.46,0,0,0-8.46,7.79A152.09,152.09,0,0,0,73,261.46,58.17,58.17,0,0,1,84.62,242.6h0a50.08,50.08,0,0,1,9.32-7.79h0a46.69,46.69,0,0,1,9.28-4.62,31.75,31.75,0,0,1,6-1.61l6.33-.88,1.34,6.3s0,.14.07.4a46,46,0,0,1,.82,11.21h0a39,39,0,0,1-1.29,8h0a36.85,36.85,0,0,1-5,10.84h0c-8.57,12.83-23.63,18.66-30.88,20.82-.3,1.06-.59,2.17-.85,3.33a160.23,160.23,0,0,0,13.13,27.82,9.59,9.59,0,0,1,1,7.61,9.86,9.86,0,0,1-5.11,6A10.32,10.32,0,0,1,84.22,331.11Z"/>
    <path class="cls-2" d="M78.5,325.39l-.52,0a10.08,10.08,0,0,1-8.21-4.87,185.65,185.65,0,0,1-10-19.4A7.55,7.55,0,0,1,58,297a171.35,171.35,0,0,1-6.77-19.72,7.69,7.69,0,0,1-1.59-4.21c0-.5-.19-2.23-.63-4.83-.28-1.29-.54-2.59-.79-3.88a65.23,65.23,0,0,0-7.08-18.2c-7.55-1.45-22.38-5.63-32-16.83l-.21-.25a37,37,0,0,1-6.15-10.21h0A38.78,38.78,0,0,1,.6,211.05h0a46.31,46.31,0,0,1-.45-11.24c0-.24,0-.38,0-.38L.77,193l6.43.13a31.87,31.87,0,0,1,6.16.93,46.19,46.19,0,0,1,9.73,3.55h0a49.81,49.81,0,0,1,10.13,6.7h0A57.4,57.4,0,0,1,45.8,219.69a198.43,198.43,0,0,1,7.13-39.44,64.33,64.33,0,0,0-3.86-11.58c-4.68-1.3-12-4.24-16.78-10.58h0a22.38,22.38,0,0,1-3.38-6.36h0a23.32,23.32,0,0,1-1.07-4.78h0a26.86,26.86,0,0,1,0-6.14c0-.46.08-.71.08-.71l1-6.29,6.37.41a20.36,20.36,0,0,1,3.82.78,26.65,26.65,0,0,1,3.91,1.5h.13l1.57.88a29.48,29.48,0,0,1,5.69,4.21h0a36.16,36.16,0,0,1,9.74,17.08l.06.12a336.37,336.37,0,0,1,17.68-37.37q1.09-2.07,2.06-4.14l-.51-.2-.16.09A41.49,41.49,0,0,1,74,119.53a48.81,48.81,0,0,1-17.12,3.41c-12.53,0-19.44-6.07-22-8.89-3.14-2-10.86-7.79-12.08-16.72-.48-3.5-.07-8.51,3.89-14l-1.37-.13a22.38,22.38,0,0,1-20-21.35C5,54.41,9,45.06,20.53,41.19c-2.39-5.5-2.64-10.63-.63-14.83,2.65-5.57,8.55-8.74,17.52-9.43l.39,0,.38,0A61.74,61.74,0,0,1,66,25.72C67.64,7.18,79.44.48,90.32.48c.43,0,.82,0,1.17,0A19.84,19.84,0,0,1,95.9,0c11.44,0,17.46,10.2,19.52,17.13a35.05,35.05,0,0,1,14.77-7.84,20.7,20.7,0,0,1,4.95-.64,15.44,15.44,0,0,1,12.48,6.13c4.5,5.85,5.15,14.63,4.52,19.08a30.52,30.52,0,0,1-1.7,11.39,54.29,54.29,0,0,1,7-.47c9.87,0,17.72,2.92,22.11,8.21a16.91,16.91,0,0,1,3.46,14.37C180.68,80,174,84,169.26,85.26a19.59,19.59,0,0,1-7.61,8.32c-2.42,2.27-8.3,6.34-19.44,6.34-1.32,0-2.68-.06-4.07-.18a23.21,23.21,0,0,1-4.17,8c-3.29,4.12-11.11,11-26.58,11-1.69,0-3.44-.09-5.23-.25l-1.09.14a93.14,93.14,0,0,1-3.76,8.74,15.1,15.1,0,0,1,2.56.34l6.19,1.5-1,6.38s0,.19-.11.53a19,19,0,0,1-1.35,4.16h0a17.29,17.29,0,0,1-1.83,3.07h0a16.42,16.42,0,0,1-3.84,3.69h0a21.72,21.72,0,0,1-12.28,3.48.52.52,0,0,1-.1.11A220.38,220.38,0,0,0,69.54,196.8a31.8,31.8,0,0,1,14-9.45h0a24.07,24.07,0,0,1,7.08-1.07h.6a24.35,24.35,0,0,1,5.22.69h0a28.74,28.74,0,0,1,6.24,2.32c.42.2.65.33.65.33L109,192.7l-2.62,5.85a20.44,20.44,0,0,1-2.19,3.55,28.57,28.57,0,0,1-4.5,4.79h0a31.73,31.73,0,0,1-6.4,4.2h0a37.52,37.52,0,0,1-16.88,3.71c-.7,0-1.41,0-2.13,0a28.46,28.46,0,0,0-8.46,7.79,152.09,152.09,0,0,0,1.4,33.18A58.17,58.17,0,0,1,78.9,236.88h0a50.08,50.08,0,0,1,9.32-7.79h0a46.2,46.2,0,0,1,9.28-4.63,31.75,31.75,0,0,1,6-1.61l6.33-.88,1.34,6.3s0,.14.07.4a45.51,45.51,0,0,1,.82,11.21h0a38.37,38.37,0,0,1-1.29,8h0a36.85,36.85,0,0,1-5,10.84h0c-8.57,12.83-23.63,18.66-30.88,20.82-.3,1.06-.59,2.17-.85,3.33A160.23,160.23,0,0,0,87.22,310.7a9.59,9.59,0,0,1,1,7.61,9.86,9.86,0,0,1-5.11,6A10.32,10.32,0,0,1,78.5,325.39Z"/>
    <g>
      <g>
        <g>
          <path class="cls-3" d="M65.2,296.76h0c-.19,0-.34-.29-.33-.6s.46-26.49,12.67-35.28c.17-.13.38,0,.46.29a.75.75,0,0,1-.16.75C66,270.44,65.51,296,65.51,296.24S65.37,296.76,65.2,296.76Z"/>
          <g>
            <path class="cls-4" d="M69.5,273.89s42.13-8.43,35-44.25C104.47,229.64,75.78,233.61,69.5,273.89Z"/>
            <path class="cls-5" d="M70.23,273.13s6.93-29.68,34-42.86C104.19,230.27,76,234.5,70.23,273.13Z"/>
            <path class="cls-6" d="M70.23,273.13s33.64-10.54,34.24-43.49C104.47,229.64,111.3,263.19,70.23,273.13Z"/>
            <g>
              <polygon class="cls-7" points="103.5 231.87 71.09 273.51 69.5 273.88 69.78 272.2 103.5 231.87"/>
              <g>
                <path class="cls-7" d="M75.62,266.8s4.84,1.76,17-4.41"/>
                <path class="cls-7" d="M76,253.78s-2.3,8.26-.4,12.72"/>
                <path class="cls-7" d="M82.94,258.28s4.67,2.71,17.18-3.36"/>
                <path class="cls-7" d="M83.91,241.55s-2.45,10.32-1.07,15.79"/>
                <path class="cls-7" d="M104.17,246.07s-7.73,5.26-15.29,4.59"/>
                <path class="cls-7" d="M91.94,234.84s-3.94,6.54-2.57,13.93"/>
                <path class="cls-7" d="M99.83,230.91s-3.21,4.09-2.4,8.76"/>
                <path class="cls-7" d="M105.23,239.49s-9.11,4.26-9.45,2.3"/>
              </g>
            </g>
          </g>
        </g>
        <g>
          <path class="cls-3" d="M57.26,273.37h.08a.8.8,0,0,0,.76-.84c0-.38-2.4-37.73-31.55-50.84a.8.8,0,1,0-.66,1.46c28.27,12.72,30.59,49.1,30.61,49.46A.79.79,0,0,0,57.26,273.37Z"/>
          <path class="cls-4" d="M46.73,240.07S3.92,236.42,7,200C7,200,36,200.75,46.73,240.07Z"/>
          <path class="cls-5" d="M45.92,239.4S35.7,210.68,7.36,200.62C7.36,200.62,35.9,201.65,45.92,239.4Z"/>
          <path class="cls-6" d="M45.92,239.4S11.31,232.7,7,200C7,200,4,234.13,45.92,239.4Z"/>
          <g>
            <polygon class="cls-7" points="8.23 202.14 45.11 239.87 46.73 240.07 46.26 238.43 8.23 202.14"/>
            <g>
              <path class="cls-7" d="M39.85,233.72s-4.61,2.29-17.38-2.48"/>
              <path class="cls-7" d="M38,220.82s3.22,7.94,1.82,12.59"/>
              <path class="cls-7" d="M31.62,226.07s-4.33,3.21-17.45-1.41"/>
              <path class="cls-7" d="M28.78,209.56s3.6,10,2.84,15.57"/>
              <path class="cls-7" d="M9.15,216.32s8.27,4.36,15.72,2.84"/>
              <path class="cls-7" d="M20.05,203.79s4.65,6.05,4.12,13.55"/>
              <path class="cls-7" d="M11.77,200.77s3.65,3.7,3.37,8.44"/>
              <path class="cls-7" d="M7.36,209.9s9.53,3.21,9.65,1.22"/>
            </g>
          </g>
        </g>
        <g>
          <path class="cls-3" d="M61.7,201c.12,0,.23-.2.25-.45,1.37-25.15-9.35-41.25-9.46-41.41s-.24-.09-.32.12a.82.82,0,0,0,0,.64c.11.16,10.65,16,9.3,40.62,0,.26.07.47.2.48Z"/>
          <g>
            <path class="cls-4" d="M54.08,162.76s-21.95-3-19.36-21.7C34.72,141.06,49.61,142.22,54.08,162.76Z"/>
            <path class="cls-5" d="M53.68,162.39s-4.48-15.06-18.8-21C34.88,141.37,49.55,142.68,53.68,162.39Z"/>
            <path class="cls-6" d="M53.68,162.39S36,158,34.72,141.06C34.72,141.06,32.23,158.53,53.68,162.39Z"/>
            <g>
              <polygon class="cls-7" points="35.29 142.18 53.25 162.61 54.08 162.76 53.88 161.9 35.29 142.18"/>
              <g>
                <path class="cls-7" d="M50.71,159.3s-2.44,1-8.89-1.75"/>
                <path class="cls-7" d="M50.12,152.61s1.44,4.18.6,6.53"/>
                <path class="cls-7" d="M46.68,155.14s-2.32,1.53-9-1.21"/>
                <path class="cls-7" d="M45.67,146.56s1.58,5.23,1,8.09"/>
                <path class="cls-7" d="M35.38,149.51s4.14,2.47,8,1.89"/>
                <path class="cls-7" d="M41.33,143.35a11.37,11.37,0,0,1,1.75,7.09"/>
                <path class="cls-7" d="M37.15,141.57a6.36,6.36,0,0,1,1.5,4.44"/>
                <path class="cls-7" d="M34.63,146.15s4.82,1.92,4.93.89"/>
              </g>
            </g>
          </g>
        </g>
        <g>
          <path class="cls-3" d="M70.71,164.62c-.08,0-.11-.16-.06-.31,4-15.13,13.51-22.58,13.61-22.65s.15,0,.16.13a.52.52,0,0,1-.14.38c-.1.07-9.39,7.38-13.36,22.21,0,.15-.14.26-.21.24Z"/>
          <g>
            <path class="cls-4" d="M82.61,143.49s13.56,2.45,15.65-9.08C98.26,134.41,89.23,132.22,82.61,143.49Z"/>
            <path class="cls-5" d="M82.92,143.35s5.56-8,15.18-8.78C98.1,134.57,89.18,132.5,82.92,143.35Z"/>
            <path class="cls-6" d="M82.92,143.35s11.28.82,15.34-8.94C98.26,134.41,96.34,145.23,82.92,143.35Z"/>
            <g>
              <polygon class="cls-7" points="97.7 134.97 83.13 143.57 82.61 143.49 82.9 143.02 97.7 134.97"/>
              <g>
                <path class="cls-7" d="M85.27,142.1s1.24,1.1,5.6.69"/>
                <path class="cls-7" d="M86.92,138.26s-1.66,2.19-1.62,3.75"/>
                <path class="cls-7" d="M88.46,140.42s1.08,1.36,5.52,1"/>
                <path class="cls-7" d="M90.72,135.55s-1.94,2.78-2.18,4.58"/>
                <path class="cls-7" d="M96.23,139.28a8.82,8.82,0,0,1-5.1-.43"/>
                <path class="cls-7" d="M93.91,134.49a7,7,0,0,0-2.41,3.85"/>
                <path class="cls-7" d="M96.73,134.25A4,4,0,0,0,95,136.58"/>
                <path class="cls-7" d="M97.33,137.44s-3.22.2-3.09-.43"/>
              </g>
            </g>
          </g>
        </g>
        <path class="cls-3" d="M56.13,225.89a.8.8,0,0,0,.81-.57C63,205.46,93.55,200.07,93.85,200a.81.81,0,0,0-.26-1.59c-1.3.22-31.83,5.62-38.18,26.42a.8.8,0,0,0,.53,1A.65.65,0,0,0,56.13,225.89Z"/>
        <path class="cls-8" d="M78.33,318.52a3.37,3.37,0,0,0,1.69-.35,2.81,2.81,0,0,0,1.3-4c-48.16-81.18-7.09-158,8.38-187,19.87-37.2,2.41-62,1.66-63.06a3.42,3.42,0,0,0-4.45-.82,2.77,2.77,0,0,0-.91,4c.68,1,16.1,23.24-2.08,57.26-15.85,29.68-58,108.52-8.25,192.35A3.25,3.25,0,0,0,78.33,318.52Z"/>
        <path class="cls-9" d="M91.53,109S88.22,123.12,81,135,58.49,177.47,55.37,236.27c0,0-4,35.84,21.59,81.18,0,0-11.22-15.1-18.23-41.92-5.91-22.62-9.25-54,1.36-93.66A265.9,265.9,0,0,1,79.71,134s5-7.06,11.39-25.38Z"/>
        <g>
          <g>
            <path class="cls-10" d="M72.27,59.35S43.78,45.13,32.82,45.08a3.81,3.81,0,0,1-3.16-1.62C26.28,38.57,18.92,25.24,38,23.77c0,0,33.49,1.15,42.14,31.18Z"/>
            <path class="cls-11" d="M26.6,29.59s-2.67,3.58,3.46,13.86a3.36,3.36,0,0,0,2.68,1.25c4.31.41,19.19,2.71,40.69,14.32,0,0-7.55-9.67-24.67-14.89a10.28,10.28,0,0,0-2.27-.39C42.28,43.51,27.66,41.81,26.6,29.59Z"/>
          </g>
          <path class="cls-12" d="M115.58,85.24l8.57-12.91s23.9,1.17,24,1.28,9.45,11.15,9.45,11.15l-.18,3.29s-6.72,8.58-27.92,3.28S115.58,85.24,115.58,85.24Z"/>
          <path class="cls-12" d="M129,35.19c.55-.49,16.24-1.73,16.24-1.73,1.52,20.26-23.88,32.7-23.88,32.7l-3.52,7.36s-8.78-8.67-8.36-9.17S128.45,35.69,129,35.19Z"/>
          <path class="cls-13" d="M100.89,69.23s19.91-7.13,38.24-14.1,39.9-3.6,37.17,11-12,12.77-12,12.77-2.8,16-22.46,8.56-18-1.48-21.82-.9S96.18,74.51,98.84,71,100.89,69.23,100.89,69.23Z"/>
          <path class="cls-10" d="M116.23,63.66s8.69-12.8,18.31-15,9.88-12.1,10.7-15.18.33-20.94-13.39-17.51S108.43,32.79,97.4,61.37s10,10,10,10Z"/>
          <path class="cls-12" d="M107,48.89s7.8-21.35,2.08-28.82c0,0-3.94-16.48-17-12.62,0,0-18.6-2.82-19.36,21.23S83.1,68.29,83.1,68.29l21.27-5.77Z"/>
          <path class="cls-10" d="M26,76.42a117,117,0,0,0,15.63.32,146.92,146.92,0,0,0,26.28-3.2c6.46-1.49,11.67-3.46,14.15-6l.23-4.28S47.91,43,26.4,46.78,10.12,74.81,26,76.42Z"/>
          <path class="cls-11" d="M41.66,76.74a146.92,146.92,0,0,0,26.28-3.2l8.12-7.21S63,63,41.66,76.74Z"/>
          <path class="cls-13" d="M39.43,108.78s9.18,13,32.18,4.32a34.76,34.76,0,0,0,4.41-2C93.69,101.66,88,83.9,88,83.9L92.9,73.12l4.84-10.57L84.5,64.34s-35.75,6.4-49.78,20.23S39.43,108.78,39.43,108.78Z"/>
          <path class="cls-11" d="M76,111.11C93.69,101.66,88,83.9,88,83.9L92.9,73.12c-1.05.67-2.2,1.42-3.41,2.28C60.8,95.48,76,111.11,76,111.11Z"/>
          <path class="cls-10" d="M101,74.19s25.22,8,29.79,15.13S128.29,114.44,102,111.6c0,0-24.56,4-25.26-7.2s5.84-21.56,14.08-29.58S98.61,73.39,101,74.19Z"/>
          <path class="cls-14" d="M71.66,60.8c-.49,9.09,8.18,17,19.37,17.54S111.67,72.06,112.16,63,104,46,92.78,45.43,72.14,51.71,71.66,60.8Z"/>
          <path class="cls-15" d="M78.28,58.42c-.38,7.16,6.44,13.34,15.25,13.81s16.24-5,16.62-12.11-6.44-13.33-15.24-13.8S78.66,51.27,78.28,58.42Z"/>
          <path class="cls-16" d="M99.63,52c-.57,1.12.49,2.77,2.35,3.71s3.82.78,4.38-.33-.49-2.78-2.35-3.71S100.18,50.91,99.63,52Z"/>
          <path class="cls-17" d="M103.08,79c6.35-.66,12.4,3.61,17.6,6.71,3.66,2.18,9.56,5.51,9.37,10.43h0c-.3-5.12-7.92-7.9-11.76-9.92-5.14-2.7-9.42-5.82-15.2-7.07A.08.08,0,0,1,103.08,79Z"/>
          <path class="cls-17" d="M142.09,57.13c7.45-3.09,14-3.89,21.89-1.92,4.76,1.18,9.86,2.91,10.32,8.41,0,.11-.15.15-.16,0-.91-5.77-9.56-6.42-14.18-7.24-5.6-1-12.29-.33-17.79.95A.13.13,0,0,1,142.09,57.13Z"/>
          <path class="cls-17" d="M139.64,57.76h0A7.84,7.84,0,0,0,136.33,59s0,0,0,0A7.89,7.89,0,0,1,139.64,57.76Z"/>
          <g>
            <path class="cls-17" d="M130,62.54c.91-.54,1.85-1.06,2.78-1.58A20.66,20.66,0,0,1,130,62.63C130,62.65,129.94,62.57,130,62.54Z"/>
            <path class="cls-17" d="M133.82,60.3c-.34.22-.69.45-1,.66C133.12,60.72,133.47,60.51,133.82,60.3Z"/>
            <path class="cls-17" d="M134.88,59.77a7.49,7.49,0,0,0-1.06.53c.34-.21.68-.39,1-.62C134.89,59.63,134.94,59.74,134.88,59.77Z"/>
          </g>
          <path class="cls-17" d="M123.26,23.61c4.49-2.66,9.12-5.71,14.57-5a.11.11,0,0,1,0,.21c-4.72.11-9.63,4.31-13.62,6.59-4.87,2.78-7.79,6-11,10.52a.1.1,0,0,1-.16-.11C116,30.76,118.1,26.67,123.26,23.61Z"/>
          <path class="cls-17" d="M77.6,18.9a14.82,14.82,0,0,1,8.46-8.7s.08.07,0,.09c-9.19,4.27-8.53,18-9.7,26.26,0,.06-.11.09-.11,0C75.74,30,75.07,25.25,77.6,18.9Z"/>
          <path class="cls-17" d="M35.74,28.87c.44,0,.86-.06,1.3,0,0,0,0,0,0,.05-.44,0-.87.07-1.31.09C35.67,29,35.68,28.87,35.74,28.87Z"/>
          <path class="cls-17" d="M38,28.72c7.47-1.83,14-1.37,20.9,2.15,6.34,3.24,12,9.59,14.07,16.39a.15.15,0,0,1-.29.1C66.52,35.39,51.55,26.42,38,28.83,37.9,28.84,37.87,28.73,38,28.72Z"/>
          <path class="cls-17" d="M30.73,49.8C36,49.54,41.47,50.9,46.6,52,52.9,53.4,60.11,55,65.84,58c.06,0,0,.1,0,.08-8.32-4.13-18.48-4.35-27.52-5.56-8.21-1.1-21.5-.19-21.63,11.1,0,.22-.33.23-.39,0C13.94,55,23.63,50.15,30.73,49.8Z"/>
          <path class="cls-17" d="M33.56,91.3C35,88.18,37,87.1,39.43,85a24.28,24.28,0,0,1,7.09-4.68c.13,0,.23.14.1.21-4.39,2.44-6.78,5.16-9.71,9.11-3.6,4.84-2.82,9,1.39,13a.29.29,0,0,1-.31.47C32.51,101.22,31.26,96.32,33.56,91.3Z"/>
        </g>
      </g>
      <g>
        <path class="cls-4" d="M70.21,207.51s11.54-21.64,30-11.83C100.16,195.68,93.26,210.71,70.21,207.51Z"/>
        <path class="cls-5" d="M70.74,207.24s17.37,1.1,29-11.51C99.76,195.73,92.8,210.47,70.74,207.24Z"/>
        <path class="cls-6" d="M70.74,207.24s11.3-16.66,29.42-11.56C100.16,195.68,82.94,186.42,70.74,207.24Z"/>
        <g>
          <polygon class="cls-7" points="98.78 195.84 70.68 206.7 70.21 207.51 71.18 207.63 98.78 195.84"/>
          <g>
            <path class="cls-7" d="M75.09,205.33s-.16-2.94,5.21-8.57"/>
            <path class="cls-7" d="M82.27,207.27s-4.89-.09-7-1.87"/>
            <path class="cls-7" d="M81,202.73s-.72-3,4.66-8.84"/>
            <path class="cls-7" d="M90.26,205s-6.05-.36-8.81-2"/>
            <path class="cls-7" d="M91.12,193.13s-4.15,3.36-5,7.61"/>
            <path class="cls-7" d="M95.25,201.67a12.6,12.6,0,0,1-8-.89"/>
            <path class="cls-7" d="M98.7,198a7.11,7.11,0,0,1-5.19-.13"/>
            <path class="cls-7" d="M94.9,193.64s-3.83,4.28-2.81,4.79"/>
          </g>
        </g>
      </g>
    </g>
  </g>
</svg>
