<svg id="Layer_1" data-name="Layer 1" xmlns="http://www.w3.org/2000/svg" width="285.6" height="181.2" viewBox="0 0 285.6 181.2">
  <defs>
    <style>
      .cls-1 {
        opacity: 0.5;
      }

      .cls-2 {
        fill: #ff0;
      }

      .cls-3 {
        fill: #559515;
      }

      .cls-4 {
        fill: #41740e;
      }

      .cls-5 {
        fill: #4f1b74;
      }

      .cls-6 {
        fill: #6b2d97;
      }

      .cls-7 {
        fill: #330b4f;
      }

      .cls-8 {
        fill: #30530e;
      }

      .cls-9 {
        fill: #b89bcd;
      }
    </style>
  </defs>
  <g>
    <path class="cls-1" d="M142.48,181.2c-16.46,0-26.73-5.88-31.54-9.54a55,55,0,0,1-7.69-6.15,54.81,54.81,0,0,1-40.18,0A40.13,40.13,0,0,1,59,163.69l-.56-.28a8.36,8.36,0,0,1-1.46-1c-.77-.62-6.39-5.41-10.73-14.81a37.71,37.71,0,0,1-6.87.64,36.06,36.06,0,0,1-3.61-.18,38.09,38.09,0,0,0-4.1-.22c-8.53,0-13.58,3-13.62,3a8.28,8.28,0,0,1-12.86-7.29A96.43,96.43,0,0,1,12.7,113c4.44-10.2,10.43-18.4,17.77-24.44-2.77.43-4.4.71-4.46.72a8.16,8.16,0,0,1-1.39.12A8.28,8.28,0,0,1,17,78c.84-2,21.1-49.78,70-52.54,1.29-.07,2.56-.11,3.78-.11,10.46,0,17.84,2.64,23.05,6.38A32,32,0,0,0,112.05,20a8.27,8.27,0,0,1,.29-6.2,14.66,14.66,0,0,1,10.35-8.26,9.61,9.61,0,0,1,2.69-.39,14.27,14.27,0,0,1,7.09,2.31,8.26,8.26,0,0,1,4,5.95c.07.47.95,6.93-.75,17.31C146.07,21,159.5,15.88,175.52,15.88c19.67,0,36.33,7.85,37,8.18a8.29,8.29,0,0,1,4.82,7.36,8.19,8.19,0,0,1-2.08,5.6c13,.59,33.19,6.52,58.65,29.8a7.28,7.28,0,0,1,.67.69,11,11,0,0,0,2.64,2.13h0a8.29,8.29,0,0,1,7.8,5.52A9.74,9.74,0,0,1,283.72,84a11,11,0,0,1-1.25,1.48c1.12,1.85,1.82,4.53,1.49,8.41a8.27,8.27,0,0,1-3.65,6.18c-.61.4-14.19,9.26-39,10.42l0,.22c-1.28,21.16-13,36.27-32.51,41.94-5.45,6.27-12.93,11.84-22.29,16.58C170.79,177.17,156,181.2,142.48,181.2Z"/>
    <path class="cls-2" d="M137.3,176c-16.45,0-26.73-5.88-31.53-9.54a54.35,54.35,0,0,1-7.69-6.16,54.74,54.74,0,0,1-40.18,0,36.28,36.28,0,0,1-4.08-1.82l-.56-.28a8.2,8.2,0,0,1-1.47-.95c-.76-.63-6.38-5.41-10.72-14.81a37.71,37.71,0,0,1-6.87.64,33.31,33.31,0,0,1-3.61-.19,40.85,40.85,0,0,0-4.1-.22c-8.54,0-13.58,3-13.62,3A8.28,8.28,0,0,1,0,138.45a96.57,96.57,0,0,1,7.51-30.61C12,97.64,18,89.44,25.3,83.4c-2.78.43-4.4.71-4.46.72a8.14,8.14,0,0,1-1.39.11A8.28,8.28,0,0,1,11.8,72.8c.84-2,21.1-49.79,70-52.54,1.28-.08,2.55-.11,3.78-.11,10.45,0,17.84,2.63,23,6.38a32.17,32.17,0,0,0-1.71-11.68,8.27,8.27,0,0,1,.29-6.2A14.62,14.62,0,0,1,117.52.39,9.21,9.21,0,0,1,120.21,0a14.33,14.33,0,0,1,7.09,2.31,8.31,8.31,0,0,1,4,5.95c.06.47.94,6.92-.75,17.31,10.32-9.79,23.76-14.86,39.77-14.86,19.68,0,36.34,7.85,37,8.18a8.23,8.23,0,0,1,2.74,13c13,.59,33.18,6.52,58.65,29.8a7.17,7.17,0,0,1,.67.68,11.3,11.3,0,0,0,2.63,2.14h0a8.28,8.28,0,0,1,7.8,5.52,9.72,9.72,0,0,1-1.36,8.82,11.16,11.16,0,0,1-1.26,1.49c1.13,1.85,1.83,4.53,1.5,8.4a8.28,8.28,0,0,1-3.66,6.19c-.6.4-14.19,9.26-39,10.42l0,.22c-1.29,21.15-13,36.27-32.51,41.94-5.45,6.27-12.93,11.84-22.3,16.58C165.62,172,150.81,176,137.3,176Z"/>
    <g>
      <g>
        <path class="cls-3" d="M8.28,138.85S11.37,75.24,67,79.53s8.56,37.45.71,41.37-21.64,15.34-36.26,13.79S8.28,138.85,8.28,138.85Z"/>
        <path class="cls-4" d="M8.28,138.85S34,90.46,78.9,85.71l.71,2.85S44.9,86.18,8.28,138.85Z"/>
      </g>
      <g>
        <path class="cls-3" d="M192.21,43.86s25.32-17.84,71,23.89c0,0,4.63,5.35,8.91,5,0,0,2.14,6.06-25.68,3.92,0,0-35.31,9.28-63.49-4.64S192.21,43.86,192.21,43.86Z"/>
        <path class="cls-4" d="M272.1,72.75s-15.57,3.68-28.17-3.21-43.28-20.21-58.26-16.65l5.47-3.8s25.08,3,32.69,7.49A238.07,238.07,0,0,0,245,67.52C246.9,68.23,257,74.53,272.1,72.75Z"/>
      </g>
      <g>
        <path class="cls-3" d="M203.81,26.36S146.35-1.1,123.72,49.92s28.91,25.3,36.09,20.25S183.57,58.4,189.15,44.8,203.81,26.36,203.81,26.36Z"/>
        <path class="cls-4" d="M203.81,26.36S149,26,123.52,63.32l2.18,2S140.07,33.61,203.81,26.36Z"/>
      </g>
      <g>
        <path class="cls-3" d="M19.45,76S99,62.4,110.05,73.1c0,0,16.41-47.08-27.82-44.58S19.45,76,19.45,76Z"/>
        <path class="cls-4" d="M23,72.39s77.76-63.85,87,.71C110.05,73.1,102.2,16.75,23,72.39Z"/>
      </g>
      <g>
        <g>
          <g>
            <path class="cls-5" d="M57,150.86s-25.68-20.92-4.28-66.58,55.65-33.77,59.93-32.34,44.7,16.17,20,62.78S74.62,159.9,57,150.86Z"/>
            <path class="cls-6" d="M57,150.86s-25.68-20.92-4.28-66.58,55.65-33.77,59.93-32.34S87.46,41.48,62.73,88.09,57,150.86,57,150.86Z"/>
            <path class="cls-7" d="M57.62,151.16s24.37-.3,45.77-45.95,9.28-53.27,9.28-53.27,46.18,14.56,20,62.78C100.06,174.64,57.62,151.16,57.62,151.16Z"/>
            <path class="cls-7" d="M105.53,50.12s1.27,8.4,14,4.79C119.56,54.91,111.63,50.67,105.53,50.12Z"/>
          </g>
          <g>
            <path class="cls-3" d="M109.34,52.18s12.48-19.74,5.35-40.07c0,0,2.73-6,8.44-2.65,0,0,2.69,18.39-10.94,44.23Z"/>
            <path class="cls-8" d="M111.36,53.26s3.73-8.62,7.13-19.67c1.19-3.88,4.2-15.6,1.71-22.71,0,0-2.78-4.75,2.93-1.42,0,0,2.69,18.39-10.94,44.23Z"/>
          </g>
          <path class="cls-9" d="M71,62.72S52.43,80.63,48.62,104.89,54,97,58.13,88.4,82.55,54.32,71,62.72Z"/>
        </g>
        <g>
          <g>
            <path class="cls-5" d="M114.45,88.84s7.91-32.17,58.33-32.39,54.35,35.82,54.89,40.3,4.54,47.32-48.17,44.94S113.82,108.61,114.45,88.84Z"/>
            <path class="cls-6" d="M114.45,88.84s7.91-32.17,58.33-32.39,54.35,35.82,54.89,40.3,1.51-30.43-56-33.06C114.29,61.07,113.82,108.61,114.45,88.84Z"/>
            <path class="cls-7" d="M114.45,88.84s-1.1,37.51,58.5,46.58c56.24,8.55,54.18-43.15,54.72-38.67s4.54,47.32-48.17,44.94S113.82,108.61,114.45,88.84Z"/>
            <path class="cls-7" d="M226.26,89.52s-7,4.74,1.68,14.73C227.94,104.25,228.38,95.27,226.26,89.52Z"/>
          </g>
          <g>
            <path class="cls-3" d="M226,93.84s23.18,2.83,38.5-12.33c0,0,6.58-.09,6,6.49,0,0-15.46,10.31-44.65,9.06Z"/>
            <path class="cls-8" d="M225.92,96.13s9.39-.32,20.82-2c4-.59,15.9-2.89,21.26-8.19,0,0,3.11-4.54,2.54,2,0,0-15.46,10.31-44.65,9.06Z"/>
          </g>
          <path class="cls-9" d="M189.94,61.8s-16.22-6.07-32-1.36,6.37,1,12.75,1S198.38,66.39,189.94,61.8Z"/>
        </g>
        <g>
          <g>
            <path class="cls-5" d="M95,142.63S86,110.72,129.82,85.75s64.93,4.47,67.61,8.1,27.21,39-19.86,62.82S104.12,160.15,95,142.63Z"/>
            <path class="cls-6" d="M95,142.63S86,110.72,129.82,85.75s67.61,8.1,67.61,8.1-19.59-14.73-54.57-1C105.29,107.58,95,142.63,95,142.63Z"/>
            <path class="cls-7" d="M109.1,158.47s32.3,9.5,64-9.27c26.87-15.93,24.37-55.35,24.37-55.35s27.21,39-19.86,62.82S109.1,158.47,109.1,158.47Z"/>
            <path class="cls-7" d="M192.65,88.25s-3.81,7.6,8.7,12C201.35,100.25,197.32,92.22,192.65,88.25Z"/>
          </g>
          <path class="cls-9" d="M132.09,88s-16.35,5.71-25.5,19.43,5.52-3.32,10.44-7.38S141.51,86.1,132.09,88Z"/>
        </g>
      </g>
    </g>
  </g>
</svg>
