<svg id="Layer_1" data-name="Layer 1" xmlns="http://www.w3.org/2000/svg" width="374.05" height="169.99" viewBox="0 0 374.05 169.99">
  <defs>
    <style>
      .cls-1 {
        fill: #231f20;
        opacity: 0.5;
      }

      .cls-2 {
        fill: #ff0;
      }

      .cls-3 {
        fill: #726250;
      }

      .cls-4 {
        fill: #44362c;
      }

      .cls-5 {
        fill: #5e493b;
      }

      .cls-6 {
        fill: #fbfcfb;
      }

      .cls-7 {
        fill: #867b66;
      }

      .cls-8 {
        fill: #221f1f;
      }

      .cls-9 {
        fill: #d2d1d0;
      }

      .cls-10 {
        fill: #6e6454;
      }

      .cls-11 {
        fill: #a2947f;
      }
    </style>
  </defs>
  <g>
    <path class="cls-1" d="M194.81,170a26.65,26.65,0,0,1-6.3-.94L35.81,126.78l-13,1.26q-.36,0-.72,0a9,9,0,0,1-2.07-.24l-2.28-.53A14.6,14.6,0,0,1,6.51,113.22L5.42,17.36A11.37,11.37,0,0,1,14.86,6l2.58-.45A10,10,0,0,1,19,5.42l150.68,4.83a14,14,0,0,1,13.66,14.1v3.38a37.83,37.83,0,0,1,9.7,3.13c9.13,4.42,17.47,11.54,22.85,16.74a11.86,11.86,0,0,1,1.48,1.71l113.21,9.33a16.07,16.07,0,0,1,14.66,15.93V85.63L366,88a9,9,0,0,1,8,9v7.28a13.69,13.69,0,0,1-10.79,13.45l-24.05,5.36a15.13,15.13,0,0,1-11.44,14.41L202,169.2a26.76,26.76,0,0,1-6.43.79Z"/>
    <path class="cls-2" d="M189.39,164.55a26.06,26.06,0,0,1-6.3-.93L30.39,121.36l-12.95,1.26q-.36,0-.72,0a9.09,9.09,0,0,1-2.08-.24l-2.27-.53A14.61,14.61,0,0,1,1.09,107.79L0,11.94A11.34,11.34,0,0,1,9.44.58L12,.13A8.89,8.89,0,0,1,13.56,0L164.25,4.83a14,14,0,0,1,13.66,14.1V22.3a38.17,38.17,0,0,1,9.69,3.14c9.14,4.42,17.48,11.54,22.86,16.74a12.51,12.51,0,0,1,1.48,1.71l113.21,9.33a16.07,16.07,0,0,1,14.66,15.92V80.21l20.8,2.36a9,9,0,0,1,8,9v7.27a13.71,13.71,0,0,1-10.79,13.46l-24.06,5.36A15.1,15.1,0,0,1,322.35,132L196.54,163.77a26.28,26.28,0,0,1-6.43.8Z"/>
    <g>
      <path class="cls-3" d="M28.75,25.33l-2.92-5.22a2,2,0,0,1,0-2,2,2,0,0,1,1.79-1l130,3.61v7a1.88,1.88,0,0,1-.47.05L30.5,26.37A2.06,2.06,0,0,1,28.75,25.33Z"/>
      <path class="cls-4" d="M160.71,21.77a2,2,0,0,1,0,2l-1.69,3a1.88,1.88,0,0,1-.53.59V20.72l.51,0A2,2,0,0,1,160.71,21.77Z"/>
      <path class="cls-5" d="M140.78,31.07l27.3-.33V18.93a4.26,4.26,0,0,0-4.14-4.28L14,9.84l1.46,75.8,22.71-1.77a9.87,9.87,0,0,1-3.25-6.27c-.11-1-.17-2-.2-3a35.61,35.61,0,0,1,.91-8.9,7.28,7.28,0,0,1,4-5c.67-.31,1.36-.6,2.06-.85a22.23,22.23,0,0,1,6.61-1.25,34,34,0,0,1-4.06-4.5A34.63,34.63,0,0,1,39.33,45a4.22,4.22,0,0,1,2.19-5.23A21.91,21.91,0,0,1,46.3,38.2a21.68,21.68,0,0,1,5.91-.36,6.89,6.89,0,0,1,4.92-3c9.71-1.07,19.58-1.83,29.35-2.24,9.15-.38,18.44-.47,27.6-.27a32.78,32.78,0,0,1,11.65,2.39,2.72,2.72,0,0,1,.09-1.84,2.69,2.69,0,0,1,2.51-1.71Zm16.44-2.49L30.49,27.16a2.81,2.81,0,0,1-2.43-1.44L25.14,20.5a2.82,2.82,0,0,1,2.54-4.2L159,20a2.82,2.82,0,0,1,2.38,4.2l-1.69,3a2.85,2.85,0,0,1-1.45,1.25h0a2.81,2.81,0,0,1-1,.17Z"/>
      <path class="cls-3" d="M56.77,60.73,65,59.41c-.33-.24-.67-.47-1-.73-1.08-.86-2.13-1.77-3.13-2.7a56.38,56.38,0,0,1-8.84-10.55,6.77,6.77,0,0,1-.43-6.62,1.28,1.28,0,0,1,.11-.2,20.36,20.36,0,0,0-5.29.37,21.06,21.06,0,0,0-4.61,1.5,3.42,3.42,0,0,0-1.77,4.24,33.81,33.81,0,0,0,4.8,8.89,34.18,34.18,0,0,0,4.66,5A8.8,8.8,0,0,0,56.77,60.73Zm-3.1-3.88a.41.41,0,0,1-.33.45h-.06a.4.4,0,0,1-.39-.34C52,50.78,44.36,43,44.28,43a.4.4,0,0,1,0-.56.4.4,0,0,1,.56,0C45.17,42.72,52.76,50.4,53.67,56.85Z"/>
      <path class="cls-6" d="M61.45,55.4c1,.92,2,1.81,3.08,2.66a21.14,21.14,0,0,0,1.76,1.27h0A21.45,21.45,0,0,0,80.21,62.6l60.12-6.22a4.25,4.25,0,0,0,2.8-7c-.47-.56-1-1.11-1.47-1.66a62.55,62.55,0,0,0-10.19-8.94,31.45,31.45,0,0,0-17.4-5.62c-9.15-.2-18.42-.11-27.56.27-9.74.41-19.6,1.16-29.29,2.24a6.1,6.1,0,0,0-4.87,3.47A6,6,0,0,0,52.73,45,55.51,55.51,0,0,0,61.45,55.4Zm19.17,2.93a.4.4,0,0,1,.35-.44l56.92-5.57a.41.41,0,0,1,.43.36.39.39,0,0,1-.36.43L81.05,58.68h0A.39.39,0,0,1,80.62,58.33ZM58.84,39.59a.4.4,0,0,1,.32-.73c.11,0,10.5,4.69,16.67,17.88a.39.39,0,0,1-.19.52.33.33,0,0,1-.17,0,.39.39,0,0,1-.36-.23C69.08,44.17,59,39.63,58.84,39.59Z"/>
      <path class="cls-4" d="M14.62,112.31a4.79,4.79,0,0,1-3.7-4.62L9.83,11.82a1.55,1.55,0,0,1,1.3-1.55l2.08-.37,2,102.54Z"/>
      <path class="cls-4" d="M198.91,138.17h.32l.09,0a.42.42,0,0,0,.16,0,9.76,9.76,0,0,0,1.71-.22L324,110.57v6.8a5.3,5.3,0,0,1-4,5.14L194.14,154.24a16.1,16.1,0,0,1-3.84.49V136.46l6.24,1.44A10.57,10.57,0,0,0,198.91,138.17Z"/>
      <path class="cls-4" d="M189.51,154.72a16.32,16.32,0,0,1-3.8-.57L31.61,111.5V99.65l157.9,36.62Z"/>
      <polygon class="cls-4" points="30.82 111.44 16.77 112.81 15.98 112.63 15.66 95.95 30.82 99.47 30.82 111.44"/>
      <path class="cls-5" d="M16,86.51l182.94,36.68v14.19a9.6,9.6,0,0,1-2.21-.25L16,95.22Z"/>
      <path class="cls-6" d="M204.21,51.81a2.37,2.37,0,0,0-.57-2.56c-4.87-4.7-12.35-11.11-20.32-15a28.69,28.69,0,0,0-12.83-2.79l-29.7.36L128.34,32A2,2,0,0,0,127,35.32a31.29,31.29,0,0,1,5,2.82,64.05,64.05,0,0,1,10.31,9c.52.56,1,1.12,1.49,1.68A4.94,4.94,0,0,1,145,52.12l2.83,2.64a3.23,3.23,0,0,0,2.4.89l51.89-2.28A2.37,2.37,0,0,0,204.21,51.81Zm-56.45-2.5a.4.4,0,0,1-.3.47h-.09a.38.38,0,0,1-.38-.31c-2.91-12.74-13.57-14.93-13.68-14.95a.4.4,0,0,1-.31-.47.39.39,0,0,1,.46-.31C133.57,33.77,144.74,36,147.76,49.31Zm51.5.07a.39.39,0,0,1-.38.41l-47.59,2h0a.4.4,0,0,1-.4-.38.39.39,0,0,1,.38-.41l47.59-2A.41.41,0,0,1,199.26,49.38Z"/>
      <path class="cls-5" d="M199.72,137.34V123.2L358.8,92.38v6.44a3.94,3.94,0,0,1-3.1,3.87L201,137.15A9.47,9.47,0,0,1,199.72,137.34Z"/>
      <path class="cls-7" d="M330,87.94V69.14A6.18,6.18,0,0,0,324.34,63L295.7,60.66c-16.27.9-32.74,2.17-49,3.78-21.54,2.14-43.3,4.94-64.67,8.32a7.71,7.71,0,0,0-6.31,5.93,60.6,60.6,0,0,0-1.56,12.13,61.3,61.3,0,0,0,3,20.63,102,102,0,0,0,32.71.1L325.56,93.11A5.21,5.21,0,0,0,330,87.94ZM194.35,110.88a.4.4,0,0,1-.29.48l-.1,0a.4.4,0,0,1-.38-.3,59.82,59.82,0,0,1,0-28.22.4.4,0,0,1,.49-.28.4.4,0,0,1,.27.49A59.27,59.27,0,0,0,194.35,110.88ZM326.17,65.82a.4.4,0,0,1-.35.44L198.91,80.79h0a.4.4,0,0,1-.05-.79L325.73,65.47A.4.4,0,0,1,326.17,65.82Z"/>
      <path class="cls-7" d="M182,72a8.52,8.52,0,0,0-7,6.53A63.06,63.06,0,0,0,173.4,90.8a61.8,61.8,0,0,0,2.92,20.5l-1.93-.35-66.7-13a48,48,0,0,1-1.17-22.2,47.19,47.19,0,0,1,1.7-6.51,6.83,6.83,0,0,1,5.33-4.56c16.76-2.82,33.82-5.11,50.72-6.82,18.08-1.82,36.45-3,54.59-3.57l71.3,5.87c-14.49.88-29.09,2-43.5,3.45C225.11,65.79,203.33,68.59,182,72Z"/>
      <path class="cls-4" d="M18.46,86.2l20.63-1.61A10.24,10.24,0,0,0,43,86.23l131.26,25.49a102.71,102.71,0,0,0,19.59,1.89,102.55,102.55,0,0,0,16.2-1.28L325.69,93.9a6,6,0,0,0,5-4.84L356.58,92,199.32,122.46Z"/>
      <path class="cls-6" d="M164.19,57.11c15.86-1.6,31.94-2.72,47.89-3.34l-7.77-.64a3.14,3.14,0,0,1-2.2,1l-51.89,2.29h-.16a4.12,4.12,0,0,1-2.82-1.11l-2.4-2.23a5.19,5.19,0,0,1-.26.91,5,5,0,0,1-4.17,3.15L80.29,63.39a21.4,21.4,0,0,1-2.39.13A22,22,0,0,1,66,60.06L56.9,61.51a9,9,0,0,1-1.54.13,9.57,9.57,0,0,1-6.22-2.3A21.29,21.29,0,0,0,42,60.58a19.33,19.33,0,0,0-2,.82,6.5,6.5,0,0,0-3.58,4.43,35,35,0,0,0-.89,8.71c0,1,.09,2,.2,3a9,9,0,0,0,3.71,6.34l.07,0a9.22,9.22,0,0,0,3.64,1.56l63.7,12.37A47.94,47.94,0,0,1,107.47,69a7.61,7.61,0,0,1,6-5.09C130.19,61.12,147.27,58.82,164.19,57.11Zm-58.47,13.4a.41.41,0,0,1-.4.35h0L44.52,63.51a.39.39,0,0,1-.35-.44.41.41,0,0,1,.44-.35l60.76,7.35A.41.41,0,0,1,105.72,70.51Z"/>
      <path class="cls-8" d="M81,57.89l56.92-5.57a.41.41,0,0,1,.43.36.39.39,0,0,1-.36.43L81.05,58.68h0a.39.39,0,0,1-.39-.35A.4.4,0,0,1,81,57.89Z"/>
      <path class="cls-8" d="M58.64,39.07a.39.39,0,0,1,.52-.21c.11,0,10.5,4.69,16.67,17.88a.39.39,0,0,1-.19.52.33.33,0,0,1-.17,0,.39.39,0,0,1-.36-.23c-6-12.9-16.16-17.44-16.27-17.48A.39.39,0,0,1,58.64,39.07Z"/>
      <path class="cls-8" d="M198.88,49.79l-47.59,2h0a.4.4,0,0,1-.4-.38.39.39,0,0,1,.38-.41l47.59-2a.41.41,0,0,1,.41.38A.39.39,0,0,1,198.88,49.79Z"/>
      <path class="cls-8" d="M147.46,49.78h-.09a.38.38,0,0,1-.38-.31c-2.91-12.74-13.57-14.93-13.68-14.95a.4.4,0,0,1-.31-.47.39.39,0,0,1,.46-.31c.11,0,11.28,2.29,14.3,15.56A.4.4,0,0,1,147.46,49.78Z"/>
      <path class="cls-8" d="M53.34,57.3h-.06a.4.4,0,0,1-.39-.34C52,50.78,44.36,43,44.28,43a.4.4,0,0,1,0-.56.4.4,0,0,1,.56,0c.33.32,7.92,8,8.83,14.45A.41.41,0,0,1,53.34,57.3Z"/>
      <path class="cls-8" d="M325.82,66.26,198.91,80.79h0a.4.4,0,0,1-.05-.79L325.73,65.47a.4.4,0,0,1,.09.79Z"/>
      <path class="cls-8" d="M105.32,70.86h0L44.52,63.51a.39.39,0,0,1-.35-.44.41.41,0,0,1,.44-.35l60.76,7.35a.4.4,0,0,1-.05.79Z"/>
      <path class="cls-8" d="M324.75,110.4l31.13-6.94a4.71,4.71,0,0,0,3.71-4.64V91.55l-28.83-3.28c0-.11,0-.22,0-.33V69.14a7,7,0,0,0-6.37-6.91L204.82,52.37a1.43,1.43,0,0,0,.13-.28,3.13,3.13,0,0,0-.76-3.41c-4.91-4.74-12.46-11.21-20.52-15.1a29.61,29.61,0,0,0-13.19-2.87l-1.61,0V18.93A5.05,5.05,0,0,0,164,13.86L13.57,9,11,9.48a2.35,2.35,0,0,0-2,2.35l1.08,95.87a5.6,5.6,0,0,0,4.32,5.38l2.27.53h.07l14.4-1.41L185.5,154.91a17.54,17.54,0,0,0,4.38.62h.23a17.17,17.17,0,0,0,4.22-.52l125.81-31.73a6.09,6.09,0,0,0,4.61-5.91ZM190.3,136.46l6.24,1.44a10.57,10.57,0,0,0,2.37.27h.32l.09,0a.42.42,0,0,0,.16,0,9.76,9.76,0,0,0,1.71-.22L324,110.57v6.8a5.3,5.3,0,0,1-4,5.14L194.14,154.24a16.1,16.1,0,0,1-3.84.49ZM31.61,99.65l157.9,36.62v18.45a16.32,16.32,0,0,1-3.8-.57L31.61,111.5ZM16,95.22V86.51l182.94,36.68v14.19a9.6,9.6,0,0,1-2.21-.25Zm-.33.73,15.16,3.52v12l-14,1.37-.79-.18Zm-.48,16.49-.56-.13a4.79,4.79,0,0,1-3.7-4.62L9.83,11.82a1.55,1.55,0,0,1,1.3-1.55l2.08-.37Zm152.9-81.7-27.3.33-12.45.15a2.69,2.69,0,0,0-2.51,1.71,2.72,2.72,0,0,0-.09,1.84,32.78,32.78,0,0,0-11.65-2.39c-9.16-.2-18.45-.11-27.6.27-9.77.41-19.64,1.17-29.35,2.24a6.89,6.89,0,0,0-4.92,3,21.68,21.68,0,0,0-5.91.36,21.91,21.91,0,0,0-4.78,1.56A4.22,4.22,0,0,0,39.33,45a34.63,34.63,0,0,0,4.92,9.09,34,34,0,0,0,4.06,4.5,22.23,22.23,0,0,0-6.61,1.25c-.7.25-1.39.54-2.06.85a7.28,7.28,0,0,0-4,5,35.61,35.61,0,0,0-.91,8.9c0,1,.09,2,.2,3a9.87,9.87,0,0,0,3.25,6.27L15.46,85.64,14,9.84l149.94,4.81a4.26,4.26,0,0,1,4.14,4.28ZM65,59.41l-8.26,1.32a8.8,8.8,0,0,1-7.23-2.08,34.18,34.18,0,0,1-4.66-5,33.81,33.81,0,0,1-4.8-8.89,3.42,3.42,0,0,1,1.77-4.24A21.06,21.06,0,0,1,46.46,39a20.36,20.36,0,0,1,5.29-.37,1.28,1.28,0,0,0-.11.2,6.77,6.77,0,0,0,.43,6.62A56.38,56.38,0,0,0,60.91,56c1,.93,2.05,1.84,3.13,2.7C64.36,58.94,64.7,59.17,65,59.41Zm-.5-1.35c-1.06-.85-2.09-1.74-3.08-2.66A55.51,55.51,0,0,1,52.73,45a6,6,0,0,1-.38-5.85,6.1,6.1,0,0,1,4.87-3.47c9.69-1.08,19.55-1.83,29.29-2.24,9.14-.38,18.41-.47,27.56-.27a31.45,31.45,0,0,1,17.4,5.62,62.55,62.55,0,0,1,10.19,8.94c.51.55,1,1.1,1.47,1.66a4.25,4.25,0,0,1-2.8,7L80.21,62.6a21.45,21.45,0,0,1-13.92-3.27h0A21.14,21.14,0,0,1,64.53,58.06Zm139.68-6.25a2.37,2.37,0,0,1-2.14,1.56l-51.89,2.28a3.23,3.23,0,0,1-2.4-.89L145,52.12a4.94,4.94,0,0,0-1.22-3.25c-.47-.56-1-1.12-1.49-1.68a64.05,64.05,0,0,0-10.31-9,31.29,31.29,0,0,0-5-2.82A2,2,0,0,1,128.34,32l12.45-.15,29.7-.36a28.69,28.69,0,0,1,12.83,2.79c8,3.85,15.45,10.26,20.32,15A2.37,2.37,0,0,1,204.21,51.81Zm7.87,2c-16,.62-32,1.74-47.89,3.34-16.92,1.71-34,4-50.77,6.83a7.61,7.61,0,0,0-6,5.09,47.94,47.94,0,0,0-.64,28.79L43.13,85.45a9.22,9.22,0,0,1-3.64-1.56l-.07,0a9,9,0,0,1-3.71-6.34c-.11-1-.17-2-.2-3a35,35,0,0,1,.89-8.71A6.5,6.5,0,0,1,40,61.4a19.33,19.33,0,0,1,2-.82,21.29,21.29,0,0,1,7.17-1.24,9.57,9.57,0,0,0,6.22,2.3,9,9,0,0,0,1.54-.13L66,60.06A22,22,0,0,0,77.9,63.52a21.4,21.4,0,0,0,2.39-.13l60.12-6.22A5,5,0,0,0,144.58,54a5.19,5.19,0,0,0,.26-.91l2.4,2.23a4.12,4.12,0,0,0,2.82,1.11h.16l51.89-2.29a3.14,3.14,0,0,0,2.2-1Zm78.08,6.43c-14.49.88-29.09,2-43.5,3.45C225.11,65.79,203.33,68.59,182,72a8.52,8.52,0,0,0-7,6.53A63.06,63.06,0,0,0,173.4,90.8a61.8,61.8,0,0,0,2.92,20.5l-1.93-.35-66.7-13a48,48,0,0,1-1.17-22.2,47.19,47.19,0,0,1,1.7-6.51,6.83,6.83,0,0,1,5.33-4.56c16.76-2.82,33.82-5.11,50.72-6.82,18.08-1.82,36.45-3,54.59-3.57ZM330,87.94a5.21,5.21,0,0,1-4.42,5.17L209.9,111.55a102,102,0,0,1-32.71-.1,61.3,61.3,0,0,1-3-20.63,60.6,60.6,0,0,1,1.56-12.13,7.71,7.71,0,0,1,6.31-5.93c21.37-3.38,43.13-6.18,64.67-8.32,16.22-1.61,32.69-2.88,49-3.78L324.34,63A6.18,6.18,0,0,1,330,69.14ZM356.58,92,199.32,122.46,18.46,86.2l20.63-1.61A10.24,10.24,0,0,0,43,86.23l131.26,25.49a102.71,102.71,0,0,0,19.59,1.89,102.55,102.55,0,0,0,16.2-1.28L325.69,93.9a6,6,0,0,0,5-4.84ZM201,137.15a9.47,9.47,0,0,1-1.3.19V123.2L358.8,92.38v6.44a3.94,3.94,0,0,1-3.1,3.87Z"/>
      <path class="cls-8" d="M30.49,27.16l126.73,1.42h0a2.81,2.81,0,0,0,1-.17h0a2.85,2.85,0,0,0,1.45-1.25l1.69-3A2.82,2.82,0,0,0,159,20L27.68,16.3a2.82,2.82,0,0,0-2.54,4.2l2.92,5.22A2.81,2.81,0,0,0,30.49,27.16Zm128-6.44.51,0a2,2,0,0,1,1.71,3l-1.69,3a1.88,1.88,0,0,1-.53.59Zm-128,5.65a2.06,2.06,0,0,1-1.75-1l-2.92-5.22a2,2,0,0,1,0-2,2,2,0,0,1,1.79-1l130,3.61v7a1.88,1.88,0,0,1-.47.05Z"/>
      <path class="cls-8" d="M194.06,111.36l-.1,0a.4.4,0,0,1-.38-.3,59.82,59.82,0,0,1,0-28.22.4.4,0,0,1,.49-.28.4.4,0,0,1,.27.49,59.27,59.27,0,0,0,0,27.81A.4.4,0,0,1,194.06,111.36Z"/>
      <path class="cls-9" d="M61.45,55.4c1,.92,2,1.81,3.08,2.66a21.14,21.14,0,0,0,1.76,1.27h0A21.45,21.45,0,0,0,80.21,62.6l60.12-6.22a4.22,4.22,0,0,0,3.27-6.28L78.32,55.5S70.93,41.08,60.2,35.37l-3,.31a6.1,6.1,0,0,0-4.87,3.47A6,6,0,0,0,52.73,45,55.51,55.51,0,0,0,61.45,55.4Zm19.17,2.93a.4.4,0,0,1,.35-.44l56.92-5.57a.41.41,0,0,1,.43.36.39.39,0,0,1-.36.43L81.05,58.68h0A.39.39,0,0,1,80.62,58.33ZM58.84,39.59a.4.4,0,0,1,.32-.73c.11,0,10.5,4.69,16.67,17.88a.39.39,0,0,1-.19.52.33.33,0,0,1-.17,0,.39.39,0,0,1-.36-.23C69.08,44.17,59,39.63,58.84,39.59Z"/>
      <g>
        <path class="cls-10" d="M209.9,111.55,325.56,93.11A5.21,5.21,0,0,0,330,87.94V69.14a6.18,6.18,0,0,0-4.11-5.77L195.81,78.59l-18.73-2.77a7.85,7.85,0,0,0-1.32,2.87,60.6,60.6,0,0,0-1.56,12.13,61.3,61.3,0,0,0,3,20.63A102,102,0,0,0,209.9,111.55ZM198.47,80.44a.41.41,0,0,1,.35-.44L325.73,65.47a.4.4,0,0,1,.09.79L198.91,80.79h0A.41.41,0,0,1,198.47,80.44Zm-4.89,30.64a59.82,59.82,0,0,1,0-28.22.4.4,0,0,1,.49-.28.4.4,0,0,1,.27.49,59.27,59.27,0,0,0,0,27.81.4.4,0,0,1-.29.48l-.1,0A.4.4,0,0,1,193.58,111.08Z"/>
        <path class="cls-10" d="M106.52,75.79a47.19,47.19,0,0,1,1.7-6.51A6.79,6.79,0,0,1,110.63,66l65.59,9.7A8.73,8.73,0,0,0,175,78.51,63.06,63.06,0,0,0,173.4,90.8a61.8,61.8,0,0,0,2.92,20.5l-1.93-.35-66.7-13A48,48,0,0,1,106.52,75.79Z"/>
      </g>
      <path class="cls-9" d="M131.93,38.14a64.05,64.05,0,0,1,10.31,9c.52.56,1,1.12,1.49,1.68A4.94,4.94,0,0,1,145,52.12l2.83,2.64a3.23,3.23,0,0,0,2.4.89l51.89-2.28a2.4,2.4,0,0,0,1.57-4.12c-1.06-1-2.27-2.13-3.55-3.27l-50.57,3c-.17-8.27-8.56-14.07-14.31-17.07l-6.87.08A2,2,0,0,0,127,35.32,31.29,31.29,0,0,1,131.93,38.14Zm18.95,13.27a.39.39,0,0,1,.38-.41l47.59-2a.41.41,0,0,1,.41.38.39.39,0,0,1-.38.41l-47.59,2h0A.4.4,0,0,1,150.88,51.41ZM133,34.06a.39.39,0,0,1,.46-.31c.11,0,11.28,2.29,14.3,15.56a.4.4,0,0,1-.3.47h-.09a.38.38,0,0,1-.38-.31c-2.91-12.74-13.57-14.93-13.68-14.95A.4.4,0,0,1,133,34.06Z"/>
      <path class="cls-9" d="M35.51,74.54c0,1,.09,2,.2,3a9,9,0,0,0,3.71,6.34l.07,0a9.22,9.22,0,0,0,3.64,1.56l63.7,12.37a49.24,49.24,0,0,1-1.09-22.18c.13-.7.3-1.4.47-2.1h0c.11-.45.23-.9.34-1.35.18-.67.36-1.34.57-2h0c.12-.39.23-.78.36-1.16a7.61,7.61,0,0,1,6-5.09c16.77-2.82,33.85-5.12,50.77-6.83,15.86-1.6,31.94-2.72,47.89-3.34l-7.77-.64a3.14,3.14,0,0,1-2.2,1l-51.89,2.29h-.16a4.12,4.12,0,0,1-2.82-1.11l-2.4-2.23a5.19,5.19,0,0,1-.26.91,5,5,0,0,1-4.17,3.15L80.29,63.39a21.4,21.4,0,0,1-2.39.13A22,22,0,0,1,66,60.06L56.9,61.51a9,9,0,0,1-1.54.13,9.57,9.57,0,0,1-6.22-2.3A21.29,21.29,0,0,0,42,60.58a19.33,19.33,0,0,0-2,.82,6.1,6.1,0,0,0-1.75,1.3h0a5.65,5.65,0,0,0-.65.73l0,.06h0a6.24,6.24,0,0,0-1.11,2.34A35,35,0,0,0,35.51,74.54Zm68.75-4.66-4.67-.51,4.66.57h0l1.12.13a.4.4,0,0,1-.05.79h0l-1.08-.13h0L68,66.35h0L44.52,63.51a.35.35,0,0,1-.27-.16h0a.39.39,0,0,1-.08-.28.41.41,0,0,1,.44-.35L71.52,66,133,59.47l-25.87,5.1A6.77,6.77,0,0,0,104.26,69.88Z"/>
      <path class="cls-4" d="M38.14,16.59,27.68,16.3a2.82,2.82,0,0,0-2.54,4.2l2.92,5.22a2.81,2.81,0,0,0,2.43,1.44l15.75.18,7,9.3h0a7,7,0,0,0-1,1.19,21.68,21.68,0,0,0-5.91.36,21.91,21.91,0,0,0-4.78,1.56A4.22,4.22,0,0,0,39.33,45a34.63,34.63,0,0,0,4.92,9.09,34,34,0,0,0,4.06,4.5,22.23,22.23,0,0,0-6.61,1.25c-.7.25-1.39.54-2.06.85a7.28,7.28,0,0,0-4,5,35.61,35.61,0,0,0-.91,8.9c0,1,.09,2,.2,3a9.87,9.87,0,0,0,3.25,6.27L15.46,85.64,14,9.84l19.52.63Z"/>
      <g>
        <path class="cls-11" d="M290.16,60.2c-4.49.27-9,.58-13.48.9l-66.53-6.43c2.9-.12,5.81-.26,8.71-.34Z"/>
        <path class="cls-11" d="M325.82,66.26a.4.4,0,0,0-.09-.79l-1.77.2h0l-42.6-4.12c4.79-.32,9.57-.63,14.34-.89L324.34,63A6.18,6.18,0,0,1,330,69.14v18.8a5.19,5.19,0,0,1-1,3l-4.88-24.53Z"/>
      </g>
    </g>
  </g>
</svg>
