<svg xmlns="http://www.w3.org/2000/svg" xmlns:xlink="http://www.w3.org/1999/xlink" width="346" height="348" viewBox="0 0 346 348">
  <defs>
    <style>
      .cls-1 {
        fill: none;
      }

      .cls-2 {
        isolation: isolate;
      }

      .cls-13, .cls-3 {
        opacity: 0.5;
      }

      .cls-4 {
        clip-path: url(#clip-path);
      }

      .cls-5 {
        clip-path: url(#clip-path-2);
      }

      .cls-6 {
        fill: url(#linear-gradient);
      }

      .cls-7 {
        opacity: 0.2;
        mix-blend-mode: multiply;
        fill: url(#Áåçûìÿííûé_ãðàäèåíò_99);
      }

      .cls-8 {
        fill: #e4f9f5;
        opacity: 0.43;
      }

      .cls-10, .cls-11, .cls-9 {
        mix-blend-mode: soft-light;
      }

      .cls-9 {
        fill: url(#Áåçûìÿííûé_ãðàäèåíò_62);
      }

      .cls-10 {
        opacity: 0.37;
        fill: url(#Áåçûìÿííûé_ãðàäèåíò_62-2);
      }

      .cls-11 {
        opacity: 0.28;
        fill: url(#Áåçûìÿííûé_ãðàäèåíò_62-3);
      }

      .cls-12 {
        fill: url(#Áåçûìÿííûé_ãðàäèåíò_218);
      }

      .cls-13 {
        fill-rule: evenodd;
      }

      .cls-14 {
        fill: #ff0;
      }
    </style>
    <clipPath id="clip-path">
      <rect class="cls-1" x="9.65" y="9.71" width="319.96" height="319.96" rx="26.14"/>
    </clipPath>
    <clipPath id="clip-path-2">
      <rect class="cls-1" x="-401.44" y="1.73" width="992.93" height="491.34"/>
    </clipPath>
    <linearGradient id="linear-gradient" x1="168.54" y1="321.56" x2="168.54" y2="15.93" gradientUnits="userSpaceOnUse">
      <stop offset="0" stop-color="#c5f3ff"/>
      <stop offset="0.1" stop-color="#a7e7fa"/>
      <stop offset="0.34" stop-color="#69cfee"/>
      <stop offset="0.45" stop-color="#50c5ea"/>
      <stop offset="0.58" stop-color="#41b3df"/>
      <stop offset="0.85" stop-color="#1b86c2"/>
      <stop offset="1" stop-color="#0269af"/>
    </linearGradient>
    <linearGradient id="Áåçûìÿííûé_ãðàäèåíò_99" data-name="Áåçûìÿííûé ãðàäèåíò 99" x1="-401.67" y1="382.73" x2="642.98" y2="382.73" gradientUnits="userSpaceOnUse">
      <stop offset="0" stop-color="#5c3856"/>
      <stop offset="0.26" stop-color="#655378"/>
      <stop offset="0.57" stop-color="#6e6e99"/>
      <stop offset="0.83" stop-color="#737eae"/>
      <stop offset="1" stop-color="#7584b5"/>
    </linearGradient>
    <linearGradient id="Áåçûìÿííûé_ãðàäèåíò_62" data-name="Áåçûìÿííûé ãðàäèåíò 62" x1="712.41" y1="509.4" x2="712.41" y2="437.73" gradientTransform="translate(-474.23 -295.39) rotate(-11.7)" gradientUnits="userSpaceOnUse">
      <stop offset="0" stop-color="#e0ffce"/>
      <stop offset="1" stop-color="#6ed3f1"/>
    </linearGradient>
    <linearGradient id="Áåçûìÿííûé_ãðàäèåíò_62-2" x1="-4437.74" y1="3232.99" x2="-4437.74" y2="3150.79" gradientTransform="matrix(-0.42, 0.91, 0.91, 0.42, -4443.07, 2801.03)" xlink:href="#Áåçûìÿííûé_ãðàäèåíò_62"/>
    <linearGradient id="Áåçûìÿííûé_ãðàäèåíò_62-3" x1="-14.21" y1="109.69" x2="-14.21" y2="0.85" gradientTransform="matrix(1, 0, 0, 1, 0, 0)" xlink:href="#Áåçûìÿííûé_ãðàäèåíò_62"/>
    <linearGradient id="Áåçûìÿííûé_ãðàäèåíò_218" data-name="Áåçûìÿííûé ãðàäèåíò 218" x1="120.65" y1="547.77" x2="120.65" y2="332.38" gradientUnits="userSpaceOnUse">
      <stop offset="0.01" stop-color="#d1c27c"/>
      <stop offset="0.26" stop-color="#6ddbb3"/>
      <stop offset="0.6" stop-color="#00b6db"/>
      <stop offset="1" stop-color="#3baeec"/>
    </linearGradient>
  </defs>
  <g class="cls-2">
    <g id="Layer_1" data-name="Layer 1">
      <g>
        <path class="cls-3" d="M286,8.73H61.42A54.7,54.7,0,0,0,6.79,63.36V288a60,60,0,0,0,59.9,59.9H286a60,60,0,0,0,59.9-59.9V68.63A60,60,0,0,0,286,8.73ZM336.26,288A50.21,50.21,0,0,1,286,338.2H66.69A50.22,50.22,0,0,1,16.47,288V67A48.58,48.58,0,0,1,65,18.41H286a50.21,50.21,0,0,1,50.22,50.22Z"/>
        <g class="cls-4">
          <g id="_64" data-name="64">
            <g class="cls-5">
              <g>
                <rect class="cls-6" x="-14.7" y="0.85" width="366.48" height="352.79"/>
                <polygon class="cls-7" points="-401.67 410.07 65.58 410.07 -81.74 416.81 -111.49 423.7 249.89 401.31 100 395.27 245.62 388.38 257.93 388.38 406.13 356.5 2.23 356.5 110.21 363.4 -100.1 367.99 -23.28 360.81 -401.67 365.69 -401.67 332.38 642.98 332.38 642.43 370.29 337.87 378.04 423.26 385.22 324.17 382.93 274.87 394.41 605.91 423.42 -157.91 433.07 -118.83 419.69 -401.67 410.07"/>
                <g>
                  <path class="cls-8" d="M11.36,304.39a3.14,3.14,0,0,1-.81,2.46c-.76-.33-.51-.66-.51-.66s1.22-1.59.87-1.77S11.36,304.39,11.36,304.39Z"/>
                  <path class="cls-8" d="M328.59,229.55s-14.4-7.37-23.09,0c-7.38,7.2.19,10.28,5.16,10,7.68-.11,17.07-.9,17.07-.9S338.14,236.42,328.59,229.55Z"/>
                  <path class="cls-8" d="M106.66,188.77s-14.4-7.38-23.09,0c-7.39,7.2.19,10.27,5.16,10,7.67-.11,17.07-.9,17.07-.9S116.21,195.63,106.66,188.77Z"/>
                  <path class="cls-8" d="M419.33,355.81c.91-8,2-23.63-2.49-35.73a40.29,40.29,0,0,0-1.76-4.07c-.64-1.28-8.34-16.3-15-12.32-4.16,2.48-5.76,11.09-6.15,13.43-1-3.94-3.67-6.8-6.78-7.32-4.51-.76-7.3,3.83-7.42,4,0-.84.2-6.37-3-10.2s-8.29-4.33-12.48-1c-.83-6.59-4.65-11.82-9.38-13-5.59-1.43-11.45,3-13.33,10.62-5-7.52-12.89-9.06-17.93-4.62-5.41,4.78-5.06,14.32-5,14.87-3.49-6.25-9.48-9.24-15.08-7.57-5.11,1.52-9.14,6.69-10.45,13.39-2.93-3.79-7.17-4.51-10-2.11s-3.09,6.9-3.12,7.51a7.34,7.34,0,0,0-5.7.89c-3.26,2-4.41,5.87-4.64,6.71.71-11.27-6.56-12.06-10.85-8.9C262.05,313.07,252,293,240.92,310c-.33-.82-2.32-5.6-6.28-6.78-4.36-1.3-9.4,2.27-11.54,9-1.81-2.11-5.36-5.58-10.42-6.65-1-.2-10.26-2-14.14,4.81a17.41,17.41,0,0,0-1.79,5.73c-2.36,13.28-1.41,31.83-.86,40q.45,6.88.91,13.76,70.66-6.09,141.36-9.19,32.71-1.44,65.46-2.24Z"/>
                  <path class="cls-8" d="M288.25,376.2c.72-7.74,2.29-46.88-5.58-62.69a45.07,45.07,0,0,0-2.62-4.5c-.95-1.42-12.26-17.94-21.12-12.67-5.53,3.29-7.23,13.36-7.63,16.1a11.32,11.32,0,0,0-9.65-7.74c-6.18-.41-9.73,5.16-9.89,5.41,0-1-.07-7.36-4.62-11.44s-11.53-4.14-17,.08c-1.49-7.5-7-13.15-13.49-14.06-7.7-1.08-15.44,4.63-17.59,13.59-7.19-8.15-18.06-9.12-24.68-3.48-7.11,6.06-6.11,17-6,17.64-5.1-6.84-13.42-9.67-21-7.18-6.88,2.28-12.08,8.65-13.5,16.49-4.19-4.06-10-4.46-13.74-1.4s-3.83,8.27-3.84,9a11.75,11.75,0,0,0-7.72,1.62,14.15,14.15,0,0,0-6,8.2C82.93,326.07,73,325.91,67.3,330c4.09-8.73-10.65-30.85-24.86-10.09-.5-.92-3.47-6.21-8.93-7.17-6-1.06-12.68,3.57-15.23,11.55a26.61,26.61,0,0,0-14.56-6.6c-1.33-.14-14.1-1.28-19,7a18.6,18.6,0,0,0-2.13,6.79c-2.48,15.54-.17,36.82,1,46.16-.89,2.16-1.77,4.33-2.66,6.49,68-7.34,151.31-1.22,225.87-1.58,24.75-.12,42.08-.2,66.07.53C279.31,381.19,281.83,378.05,288.25,376.2Z"/>
                </g>
                <path class="cls-9" d="M287.83,67S313.09,46.09,339.92.66c3.64-6.17,7.31-12.79,10.95-19.87L338,.37s-7.16,1.76-13.47,10.73-7.81,21.54-7.81,21.54S301.47,54.7,287.83,67Z"/>
                <path class="cls-10" d="M237.08,164s34.34-32.51,59.82-69.41a37.59,37.59,0,0,1-3.64,11.74S321.59,69,348.64,23.91c0,0,.65,21.62-12.51,47.1,0,0,11.31-10.22,12.47-7.77s-13.64,26-13.64,26,3.49-3.55,4.1-2.42-6.52,10.73-6.52,10.73S356.27,69.42,358,69.63s-9.13,21.74-9.13,21.74a523.45,523.45,0,0,0,34.26-48.22s-26,44.83-53.36,76.9-58.28,45.33-59,44.12S277,150.72,277,150.72s-8.09,6-9.7,3.49,2.19-8.62,2.19-8.62S245.46,161.15,237.08,164Z"/>
                <path class="cls-11" d="M22.52.85S74.78,59.44,99.73,77.53c0,0-21.86-12.92-27.86-19.53,0,0,4.07,8.33,1.36,10.34s-15.48-6.61-15.48-6.61S79,95.34,63.56,98.49-6.67,58.86-6.67,58.86,17.9,83.27,17.13,89.59,5.52,87.87,5.52,87.87s14.32,12.92,28.63,21.82c0,0-69.26-18.66-105.24-50.54,0,0,7.35,14.36,16.64,24.12,0,0-27.47-20.67-40.63-38.77,0,0,13.93,6.9,19,10.77,0,0-38.88-40.92-52-54.42H-52.9S-21,39.91-4.54,50.53L-34.33.85Z"/>
                <rect class="cls-12" x="-401.67" y="332.38" width="1044.65" height="215.39"/>
              </g>
            </g>
          </g>
          <path class="cls-13" d="M148.33,179.67c-2.08,2.46-6,2.53-7.37,6-.23,1.46,1.52,1.38,1.38,2.76a3.75,3.75,0,0,1-3.19.17c-.3-4.14-4.21-4.1-8.27-5.08,2.38-2.59,6.47.89,8.64,0C141.19,180.55,144.07,179.21,148.33,179.67Z"/>
          <path class="cls-13" d="M280.69,184.66c-3.54,8.93-13.26,16.52-21.49,22-.16,3.68,2.61,5.09,5.16,6.67-2,3-6.09,3.35-10.44,3.35,1.46-14.91-19.23-6-29.13-12.39,7.43-1.37,13.9-4,23.66-2.33,2.62-.5.23-2.71,1.9-4.43,2.87-.05,2.41,2.48,5,2.64C262.76,193.63,273,190.77,280.69,184.66Z"/>
          <path class="cls-13" d="M236.13,117.09a41.28,41.28,0,0,1-9.77,2.21c-.48,1.57,1.93,1.94,1,3-2.16,1.45-2.6-1.34-4.06-2-3.5.86-6.76,2-10.66,2.39,3-2.35,6.77-3.78,10-5.93C227.13,116.9,231.87,117.3,236.13,117.09Z"/>
        </g>
        <path class="cls-14" d="M279.31.12H54.69A54.68,54.68,0,0,0,.06,54.75V279.37A60,60,0,0,0,60,339.27H279.31a60,60,0,0,0,59.9-59.9V60A60,60,0,0,0,279.31.12Zm50.22,279.25a50.22,50.22,0,0,1-50.22,50.22H60A50.21,50.21,0,0,1,9.74,279.37v-221A48.56,48.56,0,0,1,58.31,9.8h221A50.22,50.22,0,0,1,329.53,60Z"/>
      </g>
    </g>
  </g>
</svg>
