<svg id="Layer_1" data-name="Layer 1" xmlns="http://www.w3.org/2000/svg" width="171.27" height="317" viewBox="0 0 171.27 317">
  <defs>
    <style>
      .cls-1, .cls-10, .cls-11, .cls-12, .cls-13, .cls-2, .cls-3, .cls-4, .cls-5, .cls-6, .cls-7, .cls-8, .cls-9 {
        fill-rule: evenodd;
      }

      .cls-1 {
        opacity: 0.5;
      }

      .cls-2 {
        fill: #85401d;
      }

      .cls-3 {
        fill: #b66e32;
      }

      .cls-4 {
        fill: #c67b41;
      }

      .cls-5 {
        fill: #de8c50;
      }

      .cls-6 {
        fill: #9e572f;
      }

      .cls-7 {
        fill: #b36b47;
      }

      .cls-8 {
        fill: #b06137;
      }

      .cls-9 {
        fill: #323232;
      }

      .cls-10 {
        fill: #4b4b4d;
      }

      .cls-11 {
        fill: #5c5d60;
      }

      .cls-12 {
        fill: #77787b;
      }

      .cls-13 {
        fill: #ff0;
      }
    </style>
  </defs>
  <g>
    <path class="cls-1" d="M168.27,20.69C162.69,8.89,148,0,134.09,0a29.66,29.66,0,0,0-7,.81,35.26,35.26,0,0,0-17,9.41c-7,7.16-11,17.79-11.37,30.73a7.33,7.33,0,0,0,1.07,4c2.21,3.6,6.91,5.93,11.95,5.93A14.21,14.21,0,0,0,121.87,47,7.29,7.29,0,0,0,124,41.87a40.83,40.83,0,0,1,.58-7.49c1-4.59,4.81-9.48,10-9.48a8.59,8.59,0,0,1,1.23.09,12.84,12.84,0,0,1,9.1,6.23c1.31,2.48,2.29,7.14-4.26,19L18.67,282a25.9,25.9,0,0,0-2.28,2.18,7.17,7.17,0,0,0-1.09,1.54l-7,13.25c-.11.22-.22.44-.31.67-2.27,5.64.81,11.89,7.5,15.26A16.66,16.66,0,0,0,23.33,317a10.54,10.54,0,0,0,9-4.59,5.14,5.14,0,0,0,.38-.64l7-13.24a7.47,7.47,0,0,0,.66-1.78,27.81,27.81,0,0,0,.5-3.11l122-231.71C171.83,45,173.6,31.47,168.27,20.69ZM156.45,58.54,33.63,291.74h0a16.18,16.18,0,0,1-.43,3.39l-7,13.25c-1.34,2-4.7,1.54-7.38,0s-5-3.86-4.14-6.1l7-13.25a16.77,16.77,0,0,1,2.56-2.27l0,0C63.37,212.69,109,126,147.13,53.63c6.5-11.77,7.56-19.54,4.27-25.8a20,20,0,0,0-14.51-10c-9.54-1.36-17.48,6.09-19.38,15.09a45.75,45.75,0,0,0-.74,8.92c-3.17,3.11-9.18,1.85-10.7-.62.3-10,3-19.45,9.28-25.86a28.14,28.14,0,0,1,13.53-7.45c12.05-2.92,27.8,5.23,32.84,16C166.68,33.81,162.77,46.56,156.45,58.54Z"/>
    <g>
      <path class="cls-2" d="M149.18,58.54c6.32-12,10.23-24.73,5.27-34.69-5-10.75-20.8-18.9-32.84-16a28.14,28.14,0,0,0-13.53,7.45c-6.3,6.4-9,15.83-9.28,25.86,1.51,2.47,7.53,3.73,10.69.62a46.51,46.51,0,0,1,.75-8.92c1.9-9,9.84-16.45,19.38-15.09a20,20,0,0,1,14.5,10c3.3,6.26,2.24,14-4.26,25.8L9.47,301.23c-1.21,3.43,7.22,8,9.31,4.91C59.4,229,108.55,135.68,149.18,58.54Z"/>
      <path class="cls-3" d="M148.06,58c6.32-12,10.08-23.83,5.29-33.69-5.13-10.58-20.16-17.91-31.68-15.15-15.92,4-21.06,17.54-21.57,31.93a7.61,7.61,0,0,0,8.19.31c.1-9,1.28-16.44,10.19-22.33s21.1-1.11,26.32,7.52c4.21,7,2.67,15.91-3.82,27.68C100.35,131.36,51.35,224.4,10.73,301.54c-.61,2.31,5.58,5.69,7.08,3.73C58.44,228.13,107.44,135.09,148.06,58Z"/>
      <path class="cls-4" d="M147.5,57.66c6.33-12,9.49-22.72,4.7-32.58-5.12-10.58-17.63-17.29-29.15-14.53-15.86,3.94-20.37,17.24-20.74,31.53a7.37,7.37,0,0,0,5.36-.41c0-9.41.89-17.77,10-23.79,8.91-5.9,22.51-1.08,27.73,7.55,4.21,7,3.75,17.9-2.74,29.67C102,132.24,53,225.29,12.4,302.42c-.61,2.31,3.63,3.81,4.85,2.56L147.5,57.66Z"/>
      <path class="cls-5" d="M146.85,57.31c6.32-12,9.28-23.3,4.49-33.17-5.13-10.58-16.47-14.45-28-11.7C109.29,15.29,104.49,28.22,104,42.38a7.2,7.2,0,0,0,3.5-.62c0-9,1-17.83,9.25-23.28,8.91-5.9,24.9-2.18,30.12,6.44,4.21,6.94,3.31,18.95-3.18,30.72C125.89,89.39,70.1,196.72,12.6,304.47a8.3,8.3,0,0,0,3,1.31C72.32,197.74,129.08,91,146.85,57.31Z"/>
      <path class="cls-6" d="M12.28,304.23a7.25,7.25,0,0,0,.7.49c4.51-10.45,10.32-25.1,14.1-34.23l-4.57,8.68c-2.19,6.15-7.27,18.06-10.23,25.06Zm36.59-75.11-10.22,19.4c9.76-15.69,40.68-69.63,48.61-85.36,5.37-10.68,21.82-37,27-47.72-5.93,8.58-25.24,42.15-28.18,48-5.76,11.44-24,43.2-37.23,65.69Z"/>
      <path class="cls-7" d="M95.58,157.6c5.21-10.84,13.1-27.82,15.94-34.29-5.79,10.46-15,31.31-20.68,41.87-2.38,4.46-6.17,12.21-10.52,21.41l15.26-29Z"/>
      <path class="cls-7" d="M32.09,277.87c-3.88,4.63-5.93,2.46-5-3,.48-2.86,2.17-6.9,4-10.76A163.33,163.33,0,0,1,45.31,240c-3.65,6.45-10.78,18.09-14.19,26.07A32.26,32.26,0,0,0,28.39,275c-.38,4.24,2.2,3.94,3.7,2.84Z"/>
      <path class="cls-6" d="M41.38,249c-2.51,3.32-8.28,14.38-9.38,17-3.05,7.14-.71,7.87.11,7.61,2.89-.95,9.09-14.85,13.14-21.73C49.11,245.33,54.38,230.63,66,209c-12.42,19.13-15.76,31.72-20.11,39.33-5,8.72-10.12,20.75-13.05,23.21-.87.72-1.82-.54-.15-5.31.88-2.5,6-12.56,8.66-17.23Z"/>
      <path class="cls-7" d="M35.05,265.47c7.2-11.79,10.67-23.26,15.46-33.26,3.27-6.85,32.32-54.18,46.73-85.85-14.68,35.69-42.17,78.44-46,86.28-6.47,13.08-11.59,27.6-16.14,32.83Z"/>
      <path class="cls-7" d="M122.75,88.83c-7,14.54-20.27,39.77-26.81,51.49-1,1.85-3.73,6.71-6.87,12.45l-13.21,25.1c-.18.39-.35.75-.49,1.08,5.13-8.84,16.06-28.69,21.07-37.66,7.71-13.8,25.13-45.45,30-57.34,2-4.8,5.16-11.55,9.1-19.36L122.75,88.83Z"/>
      <path class="cls-7" d="M145.73,43.56a49.74,49.74,0,0,1-1.94,5c3.51-6.64,7.45-13.94,5.13-21.23a33.65,33.65,0,0,1-3.19,16.18Z"/>
      <path class="cls-6" d="M93.29,159.54c6.17-17.19,33.18-62.06,41.33-78.68,6.15-12.57,13.79-25.62,17.28-38.29a39.7,39.7,0,0,0,1.16-17.93c7.17,16.2-14.63,50.25-17.66,56.42-7.83,16-34.93,63.22-42.11,78.48Z"/>
      <path class="cls-3" d="M142.52,60.13C129.38,85.88,116,111.55,107,125.69c8.36-15.68,21.52-41.55,34.55-67,4.72-9.24,13.78-23.48,6.92-36.76,9,12.25-3,32.5-5.92,38.23Z"/>
      <path class="cls-3" d="M15.27,305.71c4-7.12,10.14-19.49,11.35-24.82-2.36,6-8.63,18-12.36,24.49a7,7,0,0,0,1,.33Z"/>
      <path class="cls-8" d="M107.91,41.56c0-9.68,1.22-17.76,10.35-24.07,7.88-5.45,20.11-1.38,26.21,5.47C137.7,12.6,123,12.37,117.37,16.27,108,22.77,106.9,31.77,107,42a8.45,8.45,0,0,0,.88-.39Z"/>
      <path class="cls-3" d="M109,22.79c1.52-4.34,5.82-6.3,9.66-8.84,5.35-3.54,12.75-2,18.45.74C144,18,147.26,24.87,148,31.67c.14-9.75-4.54-15-10.88-18.12-6-3-12.75-4-18.83,0-1.48,1-9.42,5.11-9.22,9.26Z"/>
      <path class="cls-7" d="M105,42.39c0-4-.1-10.88,2.28-17.66-3.33,4.89-3.16,11.78-3.12,16.89v.77a7.66,7.66,0,0,0,.83,0Z"/>
      <path class="cls-6" d="M101.7,41.87a74.73,74.73,0,0,1,6.21-24.63,26.61,26.61,0,0,0-1.68,2.16c-2.24,5.14-5.1,13.36-5.27,22.14.24.12.49.23.74.33Z"/>
      <path class="cls-8" d="M119.71,9.66c6.32-.41,14.42,1.24,18.41,3.19,6.83,3.33,12.68,9.07,13.61,13.64-.68-7.46-7-11.8-13.32-14.89-3.26-1.59-8.74-2.8-14-2.95a21.9,21.9,0,0,0-2.69.46c-.67.17-1.33.35-2,.55Z"/>
      <path class="cls-7" d="M105.62,25.76c4.26-9.24,11.19-14,17.42-15.43-10.17.9-15.3,7.85-17.42,15.43Z"/>
      <path class="cls-9" d="M19,308.39l7-13.25a16.87,16.87,0,0,0,.43-3.39,12.42,12.42,0,0,1-5.12-1.66A12.32,12.32,0,0,1,17,286.8a16.31,16.31,0,0,0-2.56,2.27l-7,13.25c-.91,2.24,1.37,4.74,4.14,6.1s6,2,7.38,0Z"/>
      <path class="cls-10" d="M18.47,307.29l6-11.31c-2.57-.2-6-2-8.39-4l-6.9,13.11A8.2,8.2,0,0,0,12,307.41c2.32,1.31,5.24,1.68,6.43-.12Z"/>
      <path class="cls-11" d="M18.52,293.77l-7,13.35a5.77,5.77,0,0,0,.55.29,8.12,8.12,0,0,0,3.66,1.11l6.8-12.92a18.85,18.85,0,0,1-4-1.83Z"/>
      <path class="cls-10" d="M24.94,295.25a12.28,12.28,0,0,0,.33-2.88,16.71,16.71,0,0,1-6.85-3.17l-2,2.26c2.25,1.74,6.26,3.87,8.49,3.79Z"/>
      <path class="cls-11" d="M23.73,292a18.48,18.48,0,0,1-3.34-1.51c-.31.62-1,1.64-1.45,2.61a20,20,0,0,0,4,1.81l.8-2.91Z"/>
      <path class="cls-12" d="M23.13,291.8c-.41-.16-.84-.34-1.26-.53-.32.89-1.06,2.56-1.15,2.78.54.25,1.07.48,1.59.66.27-1,.55-1.94.82-2.91Z"/>
      <path class="cls-12" d="M20.28,294.72l-7,13.28a8.17,8.17,0,0,0,1.69.46l6.88-13.08c-.52-.19-1.05-.41-1.58-.66Z"/>
    </g>
    <path class="cls-13" d="M161,20.69C155.42,8.89,140.75,0,126.82,0a29.53,29.53,0,0,0-7,.81,35.26,35.26,0,0,0-17,9.41C95.85,17.38,91.92,28,91.53,41a7.24,7.24,0,0,0,1.07,4c2.21,3.6,6.9,5.93,12,5.93a14.21,14.21,0,0,0,10-3.93,7.29,7.29,0,0,0,2.17-5.11,40.83,40.83,0,0,1,.58-7.49c1-4.59,4.81-9.48,10-9.48a8.59,8.59,0,0,1,1.23.09,12.86,12.86,0,0,1,9.1,6.23c1.31,2.48,2.29,7.14-4.26,19L11.4,282a24.57,24.57,0,0,0-2.28,2.18A7.17,7.17,0,0,0,8,285.68l-7,13.25c-.11.22-.22.44-.31.67-2.27,5.64.81,11.89,7.5,15.26A16.66,16.66,0,0,0,16.06,317a10.54,10.54,0,0,0,9-4.59,6.74,6.74,0,0,0,.38-.64l7-13.24a7.93,7.93,0,0,0,.66-1.78,27.81,27.81,0,0,0,.5-3.11l122-231.71C164.56,45,166.32,31.47,161,20.69ZM149.18,58.54,26.36,291.74h.05a16.87,16.87,0,0,1-.43,3.39l-7,13.25c-1.34,2-4.7,1.54-7.38,0s-5.05-3.86-4.14-6.1l7-13.25A16.31,16.31,0,0,1,17,286.8l0,0L139.86,53.63c6.5-11.77,7.56-19.54,4.26-25.8a20,20,0,0,0-14.5-10c-9.54-1.36-17.48,6.09-19.38,15.09a46.51,46.51,0,0,0-.75,8.92c-3.16,3.11-9.18,1.85-10.69-.62.3-10,3-19.45,9.28-25.86a28.14,28.14,0,0,1,13.53-7.45c12-2.92,27.8,5.23,32.84,16C159.41,33.81,155.5,46.56,149.18,58.54Z"/>
  </g>
</svg>
