<svg id="Layer_1" data-name="Layer 1" xmlns="http://www.w3.org/2000/svg" width="405.07" height="334.26" viewBox="0 0 405.07 334.26">
  <defs>
    <style>
      .cls-1 {
        fill: #050505;
        opacity: 0.5;
      }

      .cls-2 {
        fill: #ff0;
      }

      .cls-3 {
        fill: #342517;
      }

      .cls-4 {
        fill: #f3a097;
      }

      .cls-5 {
        fill: #f49fc3;
      }

      .cls-6 {
        fill: #654eea;
      }

      .cls-13, .cls-16, .cls-20, .cls-21, .cls-22, .cls-23, .cls-7 {
        fill: none;
      }

      .cls-7 {
        stroke: #1d1c1a;
      }

      .cls-13, .cls-16, .cls-19, .cls-20, .cls-21, .cls-22, .cls-23, .cls-24, .cls-7 {
        stroke-miterlimit: 10;
      }

      .cls-13, .cls-24, .cls-7 {
        stroke-width: 0.25px;
      }

      .cls-8 {
        fill: #f9d1c6;
      }

      .cls-9 {
        fill: #f05e63;
      }

      .cls-10 {
        fill: #d2414d;
      }

      .cls-11 {
        fill: #f2a396;
      }

      .cls-12 {
        fill: #3d2e17;
      }

      .cls-13 {
        stroke: #424127;
      }

      .cls-14 {
        fill: #ee5ba0;
      }

      .cls-15 {
        fill: #8eb856;
      }

      .cls-16, .cls-19 {
        stroke: #2b1daa;
      }

      .cls-16, .cls-19, .cls-20, .cls-21, .cls-22, .cls-23 {
        stroke-width: 0.5px;
      }

      .cls-17 {
        fill: #2723cc;
      }

      .cls-18 {
        fill: #eeb637;
      }

      .cls-19 {
        fill: #5d42ce;
      }

      .cls-20 {
        stroke: #ee5ba0;
      }

      .cls-21 {
        stroke: #d2414d;
      }

      .cls-22 {
        stroke: #7fa43f;
      }

      .cls-23 {
        stroke: #f2a396;
      }

      .cls-24, .cls-25 {
        fill: #fff;
      }

      .cls-24 {
        stroke: #3d2e17;
      }
    </style>
  </defs>
  <g>
    <path class="cls-1" d="M269.67,334.26a14,14,0,0,1-14-13.22,62.73,62.73,0,0,1,1-15,64.24,64.24,0,0,1,3.05-10.73,73,73,0,0,1,7.12-37.6,70,70,0,0,1-4.9-5.13,65.78,65.78,0,0,1-8.4-8.53c-.94-1.14-1.84-2.3-2.7-3.5A195.65,195.65,0,0,1,225.71,269c11.5,7.66,21.27,21.55,25,43.89a13.88,13.88,0,0,1,.19,2.32v5a14,14,0,0,1-14,14H197.5a14,14,0,0,1-11.84-6.52,30.69,30.69,0,0,0-5.49-6.4,50.49,50.49,0,0,1-7.06,1.18l-.38,0c-1.34.1-2.68.16-4,.16a43.72,43.72,0,0,1-11.4-1.48l-.12,0c-.33-.07-.66-.16-1-.25-1.25-.38-2.46-.81-3.61-1.28-4.52.5-8.92.82-13.14.94h-.84c-1.58.06-3.13.08-4.66.08a128.87,128.87,0,0,1-30.82-3.62,106.57,106.57,0,0,1-25.81-9.91c-64.51-35.11-80-131.65-61.89-204.68a209,209,0,0,1,17.46-46,14,14,0,0,1,1.74-2.59A40.66,40.66,0,0,1,49.33,42.83c2.88-1.26,8.45-3.35,13.73-3.35l.76,0a17.75,17.75,0,0,1,5.08.71A17.38,17.38,0,0,1,76,38.74l.72,0a24.83,24.83,0,0,1,14.53,5.16,24.3,24.3,0,0,1,8.45,12.54,14,14,0,0,1-.91,10.18c-1.22,2.47-2.32,4.71-3.3,6.75a35.63,35.63,0,0,1,15.79-4H112c6.67,0,12.57,2.36,16.62,6.65a21.26,21.26,0,0,1,5.46,12,27,27,0,0,1,5.15,6.39,26.06,26.06,0,0,1,3.32,17.45c-1.35,7.93-6,12.57-9.37,16l-1.47,1.48a65.66,65.66,0,0,0-4.81,5.93c-1.38,1.84-2.81,3.74-4.44,5.67-3.52,4.14-10.35,14.44-16.76,37.07a140.94,140.94,0,0,0-5.19,32.31,100.13,100.13,0,0,0,5.29,19.47c4.88,12.72,8,20.14,14.59,24.65a23.14,23.14,0,0,0,4.82,2.5c5.24-6.69,13.82-12.24,25.57-16.54,5-7.09,9.46-12.85,13.13-17.58,1.91-2.44,3.58-4.53,5.09-6.41,2.45-3.06,4.38-5.48,5.94-7.67a38.2,38.2,0,0,0,4.06-7.36c.55-1.3,1.58-4.43,2.31-6.68l1-3c0-.16.92-2.93.92-2.93,2-6.17,4.42-14.31,5.59-18.21,0-.27,0-.55,0-.83a42.45,42.45,0,0,1,1.51-10.49,100.66,100.66,0,0,1,6.3-35.86A22.61,22.61,0,0,1,194,121.1l-.92-.65c-7.13-5-10.72-13.93-14.33-24.16-.3-.86-.91-2.55-.94-2.62a43.26,43.26,0,0,1-11.21-16.29l-.74-.89c-.47-.6-.81-1-1.13-1.51l-.46-.66A23,23,0,0,1,162.86,72c-.11-.22-.28-.57-.39-.83a20.49,20.49,0,0,1-1.09-3c-.06-.23-.12-.47-.17-.68a17.83,17.83,0,0,1-.44-4.63c0-.11,0-.22,0-.34s-.15-.31-.21-.46a20.75,20.75,0,0,1-.81-2c0-.11-.07-.21-.11-.31a21.62,21.62,0,0,1-.77-3.2c0-.25-.09-.65-.12-.9a20.43,20.43,0,0,1-.12-2.5s0-1,0-1c0-.31.06-.63.1-.94a18.52,18.52,0,0,1,.61-3.12c0-.79,0-1.73,0-2.75,0-.25,0-.5,0-.77,0-.48,0-.86.09-1.21a39.2,39.2,0,0,1,.41-4.06l.11-.74c.08-.4.16-.82.25-1.23s.16-.74.26-1.14.22-.82.32-1.17c.18-.6.34-1.09.52-1.56s.27-.72.41-1.08c.28-.65.55-1.19.83-1.73s.46-.87.68-1.23a17.93,17.93,0,0,1,1.33-1.9,13.67,13.67,0,0,1,1.07-1.28,17.48,17.48,0,0,1,3.67-3c4.52-2.85,21-9.9,38.27-13.08,2-.36,3.93-.68,5.91-.93a90.67,90.67,0,0,1,11.59-.79c1.28,0,2.56,0,3.82.1q2.42.12,4.77.42A50.65,50.65,0,0,1,248,12.77a13.64,13.64,0,0,1,2.64,1.53,24.25,24.25,0,0,1,3,2.61c.22.23.45.48.67.73a24.29,24.29,0,0,1,1.82,2.3c.15.2.31.44.47.68a26,26,0,0,1,1.66,2.91c.11.25.32.71.42,1,.2.42.47,1.1.72,1.78.11.3.24.7.37,1.1.18.57.3,1,.41,1.4s.27,1.1.39,1.66a25.65,25.65,0,0,1,8.21,2c5.85,2.55,16,8.29,18.75,18.37a19,19,0,0,1,.58,7.29,37.78,37.78,0,0,1,2.63,11.4,35.51,35.51,0,0,1-.43,8.31,166.85,166.85,0,0,1,69.07,83.27,53.56,53.56,0,0,1,25.81,29.36,20.87,20.87,0,0,1,10,6.88c4.38,5.58,5.57,13,3.58,20.4a68,68,0,0,1,5.84,19.6c1.67,12.54-.79,21.94-3,30.22,0,.15-.07.29-.11.43-1.78,6.58-3.46,12.8-3.35,21a62.77,62.77,0,0,0,4.48,21.8A14,14,0,0,1,390,329.88l-119.79,4.37Z"/>
    <path class="cls-2" d="M261.27,325.86a14,14,0,0,1-14-13.22,62.73,62.73,0,0,1,1-15,64.24,64.24,0,0,1,3.05-10.73,73,73,0,0,1,7.12-37.6,70,70,0,0,1-4.9-5.13,65.78,65.78,0,0,1-8.4-8.53c-.94-1.14-1.84-2.3-2.7-3.5a195.65,195.65,0,0,1-25.17,28.51c11.5,7.66,21.27,21.55,25,43.89a13.88,13.88,0,0,1,.19,2.32v5a14,14,0,0,1-14,14H189.1a14,14,0,0,1-11.84-6.52,30.69,30.69,0,0,0-5.49-6.4,50.49,50.49,0,0,1-7.06,1.18l-.38,0c-1.34.1-2.68.16-4,.16a43.72,43.72,0,0,1-11.4-1.48l-.12,0c-.33-.07-.66-.16-1-.25-1.25-.38-2.46-.81-3.61-1.28-4.52.5-8.92.82-13.14.94h-.84c-1.58.06-3.13.08-4.66.08a128.87,128.87,0,0,1-30.82-3.62A106.57,106.57,0,0,1,69,298.78C4.44,263.67-11.08,167.13,7.06,94.1a209,209,0,0,1,17.46-46,14,14,0,0,1,1.74-2.59A40.66,40.66,0,0,1,40.93,34.43c2.88-1.26,8.45-3.35,13.73-3.35l.76,0a17.75,17.75,0,0,1,5.08.71,17.38,17.38,0,0,1,7.12-1.47l.72,0a24.83,24.83,0,0,1,14.53,5.16,24.3,24.3,0,0,1,8.45,12.54,14,14,0,0,1-.91,10.18C89.19,60.71,88.09,63,87.11,65a35.51,35.51,0,0,1,15.79-4h.69c6.67,0,12.57,2.36,16.62,6.65a21.26,21.26,0,0,1,5.46,12A27,27,0,0,1,130.82,86a26.06,26.06,0,0,1,3.32,17.45c-1.35,7.93-6,12.57-9.37,16l-1.47,1.48a65.66,65.66,0,0,0-4.81,5.93c-1.38,1.84-2.81,3.74-4.44,5.67-3.52,4.14-10.35,14.44-16.76,37.07a140.94,140.94,0,0,0-5.19,32.31,100.13,100.13,0,0,0,5.29,19.47c4.88,12.72,8,20.14,14.59,24.65a23.14,23.14,0,0,0,4.82,2.5c5.24-6.69,13.82-12.24,25.57-16.54,5-7.09,9.46-12.85,13.13-17.58,1.91-2.44,3.58-4.53,5.09-6.41,2.45-3.06,4.38-5.48,5.94-7.67a38.2,38.2,0,0,0,4.06-7.36c.55-1.3,1.58-4.43,2.31-6.68l1-3c0-.16.92-2.93.92-2.93,2-6.17,4.42-14.31,5.59-18.21,0-.27,0-.55,0-.83a42.45,42.45,0,0,1,1.51-10.49,100.66,100.66,0,0,1,6.3-35.86,22.61,22.61,0,0,1-2.61-2.25l-.92-.65c-7.13-5-10.72-13.93-14.33-24.16-.3-.86-.91-2.55-.94-2.62A43.26,43.26,0,0,1,158.16,69l-.74-.89c-.47-.6-.81-1-1.13-1.51l-.46-.66a23,23,0,0,1-1.37-2.35c-.11-.22-.28-.57-.39-.83a20.07,20.07,0,0,1-1.09-3c-.06-.23-.12-.47-.17-.68a17.83,17.83,0,0,1-.44-4.63c0-.11,0-.22,0-.34s-.15-.31-.21-.46a20.75,20.75,0,0,1-.81-2c0-.11-.07-.21-.11-.31a21.62,21.62,0,0,1-.77-3.2c0-.25-.09-.65-.12-.9a20.43,20.43,0,0,1-.12-2.5s0-1,0-1c0-.31.06-.63.1-.94a18.52,18.52,0,0,1,.61-3.12c0-.79,0-1.73,0-2.75,0-.25,0-.5,0-.77,0-.48.05-.86.09-1.21a39.2,39.2,0,0,1,.41-4.06l.11-.74c.08-.4.16-.82.25-1.23s.16-.74.26-1.14.22-.82.32-1.17c.18-.6.34-1.09.52-1.56s.27-.72.42-1.08c.27-.65.54-1.19.82-1.73s.46-.87.68-1.23a19,19,0,0,1,1.33-1.9,13.67,13.67,0,0,1,1.07-1.28,17.48,17.48,0,0,1,3.67-3c4.52-2.85,21-9.9,38.27-13.08,2-.36,3.93-.68,5.91-.93A90.67,90.67,0,0,1,216.69,0c1.28,0,2.56,0,3.82.1q2.42.12,4.77.42a50.65,50.65,0,0,1,14.29,3.85,13.64,13.64,0,0,1,2.64,1.53,24.25,24.25,0,0,1,3,2.61c.22.23.45.48.67.73a24.29,24.29,0,0,1,1.82,2.3c.15.2.31.44.47.68a26,26,0,0,1,1.66,2.91c.11.25.32.71.42,1,.2.42.47,1.1.72,1.78.11.3.24.7.37,1.1.18.58.3,1,.41,1.4s.27,1.1.39,1.66a25.65,25.65,0,0,1,8.21,2c5.85,2.55,16,8.29,18.75,18.37a19,19,0,0,1,.58,7.29,37.78,37.78,0,0,1,2.63,11.4,35.51,35.51,0,0,1-.43,8.31,166.93,166.93,0,0,1,69.08,83.27,53.59,53.59,0,0,1,25.8,29.36,20.87,20.87,0,0,1,10,6.88c4.38,5.58,5.57,13,3.58,20.4a68,68,0,0,1,5.84,19.6c1.67,12.54-.79,21.94-3,30.22,0,.15-.07.29-.11.43-1.78,6.58-3.46,12.8-3.35,21a62.77,62.77,0,0,0,4.48,21.8,14,14,0,0,1-12.53,19.06l-119.79,4.37Z"/>
    <g>
      <path class="cls-3" d="M238,60.51c-1.54,2.63-9.69,9.18-9.86,5.88a20,20,0,0,0-7.53-15c0-2.38-3.36-4.15-6.33-5.21h0c-.62-.23-1.24-.42-1.8-.59,2.58-.25,4.37-.28,5.07-.28,3.28.06,19.8,3.7,20.11,3.89a.1.1,0,0,1,.08,0l.34.44C240.37,52.92,239.36,58.16,238,60.51Z"/>
      <path class="cls-4" d="M217.54,85.89c-.4.77-7.19,13-18.89,13,.77-1.37,1.48-3.19,3.45-3.34s5.22-3,5.48-3.53A23.05,23.05,0,0,1,217.54,85.89Z"/>
      <path class="cls-5" d="M365.58,194.79a49.84,49.84,0,0,1-10.69,12.6,50.48,50.48,0,0,1-18.43,9.92,61.21,61.21,0,0,1-27,20.21,61.92,61.92,0,0,1-40,.9A54.87,54.87,0,0,1,256,226.74a54.1,54.1,0,0,1-11.34-24.61c4.17-7.34,7.65-13.75,8-14.42,4.82-8.88,8.65-16.49,11.37-22a77.55,77.55,0,0,1-22.12-2.82A75.14,75.14,0,0,1,231,158.93c-1-.45-2-.93-2.94-1.38a32.82,32.82,0,0,0,2.74-4.7,27,27,0,0,0,1.74-4.45,53,53,0,0,1-3-12.49v0a41.36,41.36,0,0,1,.56-12.62c4.42-21.9,25.84-33,34.55-47.41a152.3,152.3,0,0,1,42.64,32.43A154,154,0,0,1,339.77,163a40.63,40.63,0,0,1,18.31,13.61A40.16,40.16,0,0,1,365.58,194.79Z"/>
      <path class="cls-6" d="M203.21,311.86H189.1a45.5,45.5,0,0,0-14.81-14.39s.08,0,.11-.06c.36-.14.7-.31,1.06-.45,13.33-5.68,15.82-16.77,16.13-23.07a23.39,23.39,0,0,1,8.51,4.76,22.6,22.6,0,0,1,6,8C209.51,298.06,204.61,308.86,203.21,311.86Z"/>
      <path class="cls-6" d="M228.52,306.85v5H207.24c2.58-11.45,1.43-19.52-1.17-25.2a22.6,22.6,0,0,0-6-8,23.39,23.39,0,0,0-8.51-4.76,31.58,31.58,0,0,0-.11-4.28,14,14,0,0,1-.31-2.66C197.33,266.75,222.08,268.52,228.52,306.85Z"/>
      <path class="cls-7" d="M212.42,45.64h0c-9.55.84-29.66,4.17-41.61,16.24a5.41,5.41,0,0,0,.14.59c11.95-12,31.95-15.26,41.47-16.1h0c.65-.06,1.24-.11,1.8-.14C213.6,46,213,45.81,212.42,45.64Zm34.86,2,0,0a8.92,8.92,0,0,0-9.58,1.57l.34.44a8.86,8.86,0,0,1,9.24-1.28l0,0a4.94,4.94,0,0,0,.12-.67S247.31,47.68,247.28,47.66Z"/>
      <path class="cls-8" d="M247.19,47.63c0,.23-.06.45-.11.67l0,0a8.86,8.86,0,0,0-9.24,1.28c2.35,3.28,1.34,8.52-.06,10.87-1.54,2.63-9.69,9.18-9.85,5.88a20,20,0,0,0-7.54-15c0-2.38-3.36-4.15-6.32-5.21h0c-.56,0-1.15.08-1.79.14h0c-9.52.84-29.51,4.14-41.47,16.1.51,1.9,2.66,8.2,9.86,14.08a.71.71,0,0,1,.19.23,15.92,15.92,0,0,1,1.82,4c2.21,6,5.41,16.6,10.28,20,.81.59,1.65,1.15,2.46,1.71-5.54-5.35-.44-11.29,1.23-11.93a10.63,10.63,0,0,1,3.73-.56c2.15-5,8.06-7.76,15-8.23s8.56,2.52,7.16,3.13A25.18,25.18,0,0,0,217.34,86l0,0a24,24,0,0,1-5.11,6.65,25,25,0,0,1-13.8,6.17c0,1.69.31,4.22,1.7,4.78l.09,0c-3.77-1.36-4.72-1.42-4.83-1.2-.24.51,3.19,3.11,11.17,6.64a18.19,18.19,0,0,0,3.87,1.29c.81.14,2.4-.39,4.45-1.4A85.8,85.8,0,0,0,234.59,94.7a0,0,0,0,0,0,0c2.49-2.46,4.36-4.82,5-6.75A6.89,6.89,0,0,0,240,86.8c2.21-7.78.09-18.81-3.39-21.19,1,.33,8.94.11,12.74-4.29a8,8,0,0,0,2-5.37C251.39,51.52,249.6,48.86,247.19,47.63Z"/>
      <path class="cls-7" d="M221.5,37.18c16.68-3.52,25.31,9.72,25.76,10.45"/>
      <path class="cls-9" d="M247.28,47.66l0,0a8.92,8.92,0,0,0-9.58,1.57.1.1,0,0,0-.08,0c-.31-.19-16.83-3.83-20.11-3.89-.7,0-2.49,0-5.07.28h0c-9.55.84-29.66,4.17-41.61,16.24,0,0-8-6.89-2.52-9.32.19-.14-6.47-5.74-3.14-10.53,0-.11-1.23-12.6,3.14-15.32s42.92-19.6,65.63-9.54c6,4.39,4.9,13.94,4.9,13.94s5.71.64,5.12,7.14a3.87,3.87,0,0,1,0,.56C244,39.84,248.51,42.31,247.28,47.66Z"/>
      <path class="cls-10" d="M165,41.86a92.25,92.25,0,0,1,9.76-8.11,42.74,42.74,0,0,1,5.4-3.32,17.74,17.74,0,0,1,2.94-1.19,7.57,7.57,0,0,1,3.13-.35,7.65,7.65,0,0,0-3.11.4,19.07,19.07,0,0,0-2.9,1.25A41.78,41.78,0,0,0,174.86,34a92.82,92.82,0,0,0-9.55,8.27Z"/>
      <path class="cls-10" d="M168.08,52.38a71.86,71.86,0,0,1,7.59-7.32A35.91,35.91,0,0,1,180,42a12,12,0,0,1,4.89-1.87,11.93,11.93,0,0,0-4.82,2,34,34,0,0,0-4.19,3.15,72.18,72.18,0,0,0-7.38,7.46Z"/>
      <path class="cls-10" d="M238.53,31.37a50.62,50.62,0,0,0-6.45-2.56,52.12,52.12,0,0,0-6.76-1.67,38.33,38.33,0,0,0-6.94-.48A25.3,25.3,0,0,0,211.55,28a25.32,25.32,0,0,1,6.83-1.41,37.9,37.9,0,0,1,7,.35,51.74,51.74,0,0,1,13.39,4Z"/>
      <path class="cls-10" d="M243.92,39.51A49.13,49.13,0,0,0,237.47,37a50.58,50.58,0,0,0-6.76-1.68,37.39,37.39,0,0,0-6.93-.47,25.29,25.29,0,0,0-6.84,1.28,25.32,25.32,0,0,1,6.83-1.41,37.91,37.91,0,0,1,7,.36,50,50,0,0,1,6.83,1.56,51,51,0,0,1,6.57,2.46Z"/>
      <path class="cls-11" d="M243,52.83s6.24-.49,6.19,2.33-6.94,5.67-8.73,4.77"/>
      <path class="cls-11" d="M193.19,75.52a14.51,14.51,0,0,1-.34,6,18.56,18.56,0,0,1-2.5,5.49v0l0,0a.68.68,0,0,0,0,.86,2.45,2.45,0,0,0,.85.74,5.52,5.52,0,0,0,2.28.61,10.61,10.61,0,0,0,4.75-1,21.19,21.19,0,0,0,4.26-2.49,37.48,37.48,0,0,0,3.78-3.25,24.35,24.35,0,0,1-7.87,6.14,10.91,10.91,0,0,1-5,1,5.5,5.5,0,0,1-2.49-.68,3,3,0,0,1-1-.91,1.53,1.53,0,0,1-.23-.71,1,1,0,0,1,.3-.72l0,0a20.3,20.3,0,0,0,2.58-5.32A15.63,15.63,0,0,0,193.19,75.52Z"/>
      <path class="cls-12" d="M222.34,84.92a25.13,25.13,0,0,0-5.13,1.15l0,0a22.69,22.69,0,0,0-9.77,6c-.25.56-3.44,3.31-5.37,3.48s-2.64,1.93-3.39,3.27,1.51,4.9,1.51,4.9a7,7,0,0,1-4.93-1.17,0,0,0,0,0,0,0c-5.54-5.35-.44-11.29,1.24-11.93a10.83,10.83,0,0,1,3.72-.56c2.16-5,8.06-7.76,15-8.23S223.74,84.31,222.34,84.92Z"/>
      <path class="cls-13" d="M214.31,96.11a7.19,7.19,0,0,1-2.79,3.5,14.82,14.82,0,0,1-4.2,1.48h0"/>
      <path class="cls-5" d="M217.77,164.16c-8.34-6.72-20.89-2.74-23-2h0l-.28.11c-.62-2.72,1.28-9,1.4-9.86-.28-25.5,8.48-39.84,10.86-43.23a17.75,17.75,0,0,0,3.86,1.29c.82.14,2.41-.39,4.46-1.4a140.1,140.1,0,0,0,2.71,55.1Z"/>
      <path class="cls-7" d="M224.8,175c.81,1.26,1.82,2.77,1.82,2.77L230,179"/>
      <path class="cls-7" d="M224,172.73l-.25.76"/>
      <path class="cls-8" d="M223.74,174.41a162.55,162.55,0,0,1-9,22.09c-3,5.49-5.72,9.75-9.86,17.33a1,1,0,0,1-.14.23,154.21,154.21,0,0,1-11.42,15.37,163.57,163.57,0,0,1-25,23.91l.5.93a41.38,41.38,0,0,0-13.24,8.42c-4.9.93-9.49-2.88-9.43-3.27-2.83,7.84-19.1,8.06-21.14,4.9a1.28,1.28,0,0,1-.2-.67c1.54-10.56,17.22-17,26.4-19.91a.07.07,0,0,1,0-.06c6.15-8.82,11.53-15.82,15.31-20.69,9.24-11.82,13.5-16,17.42-25.26.81-1.9,1.9-5.18,3.86-11.34v0c.25-.79.5-1.6.78-2.47,2.75-8.62,4.9-15.76,6.36-20.75h0c2.07-.7,14.5-4.64,22.76,2a14.84,14.84,0,0,1,2.41,2.41,20.22,20.22,0,0,1,3.5,6.72Z"/>
      <path class="cls-7" d="M194.9,161.73c0,.14-.09.28-.12.42"/>
      <path class="cls-11" d="M186.41,189.77c.1,2.14.22,4.28.38,6.42s.34,4.28.69,6.39c-.43-2.1-.69-4.23-.94-6.36s-.45-4.28-.63-6.41Z"/>
      <path class="cls-14" d="M298.05,142.1c.34-.61.66-1.22.94-1.86a5.72,5.72,0,0,0,.35-1,1.45,1.45,0,0,0,0-.51.36.36,0,0,0-.35-.3,4.13,4.13,0,0,0-1.92.69l-.45.26-.23.13-.11.07-.07,0s-.07.05-.08,0a8.08,8.08,0,0,0,.52-.9,12,12,0,0,0,1.29-3.93,3.64,3.64,0,0,0-.26-2,2.65,2.65,0,0,0-1.53-1.25h0a10,10,0,0,0-2,.21,14.43,14.43,0,0,0-1.94.47,17.83,17.83,0,0,0-3.6,1.67h0a31.79,31.79,0,0,0-7.36,6.43,65.08,65.08,0,0,0-5.81,7.91c-1.74,2.78-3.4,5.62-4.92,8.52a54.08,54.08,0,0,0-3.88,9l-.05.16h-.17l-2.44.06v-.5l2.42,0-.22.17a54.4,54.4,0,0,1,4-9c1.55-2.91,3.24-5.73,5-8.5a64.17,64.17,0,0,1,5.89-7.91,32.23,32.23,0,0,1,7.46-6.42l0,0h.05l-.05,0a18.24,18.24,0,0,1,3.66-1.65,12.88,12.88,0,0,1,1.95-.47,8.93,8.93,0,0,1,2-.19h0a2.76,2.76,0,0,1,1.59,1.33,3.65,3.65,0,0,1,.25,2.06,11.63,11.63,0,0,1-1.33,3.94,10.19,10.19,0,0,1-.52.91c.21-.15.58-.34.86-.51a4.19,4.19,0,0,1,2-.68.4.4,0,0,1,.37.33,1.31,1.31,0,0,1,0,.52,6.76,6.76,0,0,1-.36,1C298.72,140.88,298.39,141.5,298.05,142.1Z"/>
      <path class="cls-14" d="M232.29,148.33a32.62,32.62,0,0,0,1-4.56,30.45,30.45,0,0,0,.23-4.68c-.07-3.12-.53-6.28-.13-9.43a22.34,22.34,0,0,1,3.07-8.89,32.33,32.33,0,0,1,6-7.2,32.22,32.22,0,0,0-5.94,7.27,22,22,0,0,0-2.92,8.85c-.35,3.12.14,6.24.26,9.39a30,30,0,0,1-.18,4.74,32,32,0,0,1-1,4.65Z"/>
      <path class="cls-10" d="M260,47.29a33.63,33.63,0,0,0-4.74,1.43,6.46,6.46,0,0,0-2.05,1.21,1.15,1.15,0,0,0-.39.92,1.47,1.47,0,0,0,.58.86,11,11,0,0,0,9.32,1h0a11.14,11.14,0,0,0,1.92-1.84,10,10,0,0,1-1.77,2h0a9,9,0,0,1-4.94.79,13.31,13.31,0,0,1-2.49-.46,6.5,6.5,0,0,1-2.3-1.13,1.9,1.9,0,0,1-.73-1.17,1.58,1.58,0,0,1,.53-1.29,6.25,6.25,0,0,1,2.24-1.23A24.06,24.06,0,0,1,260,47.29Z"/>
      <path class="cls-8" d="M264,165.67c-2.72,5.55-6.55,13.16-11.37,22-.36.67-3.84,7.08-8,14.42-3.11,5.43-6.58,11.34-9.43,15.79-7,10.84-20,27.89-44,46.59v0a12.21,12.21,0,0,0-.09,2.44,14,14,0,0,0,.31,2.66,31.58,31.58,0,0,1,.11,4.28c-.31,6.3-2.8,17.39-16.13,23.07-.36.14-.7.31-1.06.45,0,0-.08,0-.11.06h0a39.63,39.63,0,0,1-10.86,2.68h0a30.43,30.43,0,0,1-11.48-1h0a18.57,18.57,0,0,1-5.1-2.27c-.33-.22-.53-.39-.53-.48,22.63-9.07,18.26-27.66,16.83-27.27-4.62,4.34-14.75,7.12-16,4.15a42,42,0,0,1,8.12-10.56,41.36,41.36,0,0,1,13.24-8.43,41.36,41.36,0,0,1,11.23-2.71l0,0a101.37,101.37,0,0,0,14-17.58c2.94-4.62,4.36-7.73,7.64-14.06,1.23-2.38,2.38-4.48,3.39-6.38a1.42,1.42,0,0,0,.14-.23,161.46,161.46,0,0,0,9.94-17.5A221.26,221.26,0,0,0,224.8,175c2-4.82,4.14-10.17,6.19-16.1a75.14,75.14,0,0,0,10.92,3.92A77.55,77.55,0,0,0,264,165.67Z"/>
      <path class="cls-8" d="M179.64,251.58l-.23.22a1.46,1.46,0,0,1,.2-.22Z"/>
      <path class="cls-11" d="M243.16,192.41c.09.82.32,1.65.39,2.5a12.28,12.28,0,0,1,0,2.57,12.58,12.58,0,0,1-1.66,4.88,15.87,15.87,0,0,1-3.39,3.86,24.47,24.47,0,0,1-2.08,1.47c-.76.4-1.5.79-2.26,1.14.64-.54,1.33-1,2-1.54s1.28-1.06,1.85-1.66a18.73,18.73,0,0,0,1.64-1.81,16.05,16.05,0,0,0,1.41-2,14.78,14.78,0,0,0,1.75-4.5A29.58,29.58,0,0,0,243.16,192.41Z"/>
      <path class="cls-14" d="M324.69,158.08a61,61,0,0,1,7.81,1.67,29.59,29.59,0,0,1,7.4,3.09l-.27.42a29.12,29.12,0,0,0-7.2-3.27A62,62,0,0,0,324.69,158.08Z"/>
      <path class="cls-14" d="M336.24,217.17a76.38,76.38,0,0,0,5-10.18,37.37,37.37,0,0,0,2.81-11,37.26,37.26,0,0,1-2.58,11.08,76.66,76.66,0,0,1-4.84,10.35Z"/>
      <path class="cls-14" d="M283.82,100.52a45.35,45.35,0,0,1,4.34,9.47,44.57,44.57,0,0,1,2.13,10.22,36.66,36.66,0,0,1,.06,5.24,31.27,31.27,0,0,1-4.66,14.81,32.94,32.94,0,0,0,2.16-4.72,30,30,0,0,0,1.41-5,36,36,0,0,0,.54-10.31,47.63,47.63,0,0,0-2-10.15q-.76-2.47-1.76-4.88A40.33,40.33,0,0,0,283.82,100.52Z"/>
      <path class="cls-14" d="M295.92,115.73a21.64,21.64,0,0,1,.7,5.62A26.29,26.29,0,0,1,296,127a23,23,0,0,1-1.9,5.35,22.63,22.63,0,0,1-3.13,4.72,30.66,30.66,0,0,0,2.78-4.88c.41-.84.71-1.73,1-2.6s.55-1.78.72-2.7a27.31,27.31,0,0,0,.72-5.55A29.3,29.3,0,0,0,295.92,115.73Z"/>
      <path class="cls-7" d="M263.47,234.16c-.12-.14-.23-.25-.34-.39"/>
      <path class="cls-15" d="M293.87,283.3c-5.37-.76-4.11-7.05-4.11-7.05-.14-3.08-1.26-21-1.65-27a28.93,28.93,0,0,0,5.18-.08c-.48,6,3.1,24.11,3.36,25.28S299.22,284.06,293.87,283.3Z"/>
      <path class="cls-15" d="M289.76,276.25s-5-1.52-5.46-1.6-.11-20.36,0-25.93a22.52,22.52,0,0,0,3.84.56C288.5,255.27,289.62,273.17,289.76,276.25Z"/>
      <path class="cls-15" d="M374.82,210.08a20.47,20.47,0,0,1-6,6.25c-1.35.95-3.61,2.52-6.44,4.36-16.47,10.81-37.19,21.84-61.29,27.19a62,62,0,0,1-7.84,1.32,28.93,28.93,0,0,1-5.18.08,22.52,22.52,0,0,1-3.84-.56,23.51,23.51,0,0,1-4.06-1.29,26.71,26.71,0,0,1-3.3-1.65,52.13,52.13,0,0,1-13.44-11.62,51.22,51.22,0,0,0,6,4.26,61.92,61.92,0,0,0,40-.9,61.21,61.21,0,0,0,27-20.21,50.48,50.48,0,0,0,18.43-9.92,49.84,49.84,0,0,0,10.69-12.6c.79-.08,7.25-.84,10.11,2.8C377.85,200.34,377.76,205.35,374.82,210.08Z"/>
      <path class="cls-9" d="M379.47,256v0c2.13-7.87,4.09-15.26,2.77-25.09a54.46,54.46,0,0,0-7.42-20.75,20.47,20.47,0,0,1-6,6.25c-1.35.95-3.61,2.52-6.44,4.36-16.47,10.81-37.19,21.84-61.29,27.19a62,62,0,0,1-7.84,1.32c-.48,6,3.1,24.11,3.36,25.28s2.57,9.58-2.78,8.82-4.11-7.05-4.11-7.05-5-1.52-5.46-1.6-.11-20.36,0-25.93a23.51,23.51,0,0,1-4.06-1.29,26.71,26.71,0,0,1-3.3-1.65A59.34,59.34,0,0,0,265.65,289a49.55,49.55,0,0,0-3.58,11.26,48,48,0,0,0-.79,11.62l119.79-4.37a76,76,0,0,1-5.44-26.68C375.49,270.65,377.54,263.09,379.47,256Zm-61.18,40v0h0Z"/>
      <path class="cls-10" d="M367.54,272.05a25,25,0,0,1,1.85-1.72c.62-.58,1.23-1.16,1.81-1.77a38,38,0,0,0,5.89-8.16,45,45,0,0,0,2.15-4.55l.46.19a46,46,0,0,1-2.28,4.55,38.22,38.22,0,0,1-2.8,4.23,35.73,35.73,0,0,1-3.33,3.82c-.6.6-1.22,1.17-1.85,1.73A25.33,25.33,0,0,0,367.54,272.05Z"/>
      <path class="cls-10" d="M265.41,288.9a33.49,33.49,0,0,1,3.15-5.72,13.27,13.27,0,0,1,2.16-2.45,3.7,3.7,0,0,1,3-1.06,3.62,3.62,0,0,0-2.9,1.16,12.54,12.54,0,0,0-2,2.49,32.33,32.33,0,0,0-2.89,5.76Z"/>
      <path class="cls-10" d="M342.68,288.4a29.71,29.71,0,0,0,7.14-7.4,30.58,30.58,0,0,0,4.22-9.37l.17.08a39.25,39.25,0,0,1-7,8.34,32.63,32.63,0,0,1-4.39,3.26c-1.56.95-3.18,1.79-4.78,2.64l-9.69,5-9.65,5,0,0-.05,0,0,0a.29.29,0,0,1-.14,0v-.38l-.06,0,0,0,.1-.06,0,0a1.18,1.18,0,0,1,.19-.11h0a154,154,0,0,0,12.53-9.46,97.64,97.64,0,0,0,11.24-10.94,59.49,59.49,0,0,0,8.46-13.13A77.16,77.16,0,0,0,356,247.27l.39.15a97.78,97.78,0,0,1-25.39,30c-2.58,2.05-5.3,3.92-8.06,5.71s-5.67,3.38-8.61,4.86a103.18,103.18,0,0,1-18.41,7.07,103.22,103.22,0,0,0,18.33-7.24c2.92-1.5,5.76-3.16,8.55-4.91s5.45-3.67,8-5.72a97.53,97.53,0,0,0,25.2-30l.77-1.42-.38,1.57a76.94,76.94,0,0,1-5.18,14.88,56.8,56.8,0,0,1-8.52,13.24,97.56,97.56,0,0,1-11.32,10.95,152.1,152.1,0,0,1-12.6,9.45h0l-.1.05,0,0-.05,0,0,0a.29.29,0,0,1-.14,0v-.38l-.06,0,0,0,.1-.06,0,0c1.69-.93,3.26-1.7,4.9-2.54l4.86-2.47,9.7-5c1.6-.85,3.22-1.68,4.77-2.62a32.8,32.8,0,0,0,4.37-3.22,40.26,40.26,0,0,0,7-8.25l.34-.52-.17.6a30.61,30.61,0,0,1-4.32,9.37A29.66,29.66,0,0,1,342.68,288.4Z"/>
      <path class="cls-6" d="M146.23,296.38c0,.08.2.25.53.47a146.52,146.52,0,0,1-16.07,1.37h-.05a116.15,116.15,0,0,1-31.84-3.13,92.81,92.81,0,0,1-22.48-8.63c-60.87-33.12-70.31-127.34-55-189A194.54,194.54,0,0,1,37.62,54.54a26.89,26.89,0,0,1,9.63-7.3c2.94-1.29,9-3.28,10.25-1.4s-3.16,6.94-3.89,7.75a21.3,21.3,0,0,0,8.32,0,20.54,20.54,0,0,0,5.23-1.85c-1.65-2.54-2.18-5.29-1.09-6.58,1.54-1.79,5.82-.42,8.26,1.46A10.57,10.57,0,0,1,77.89,52C62.77,82.32,65.15,84.06,65.15,84.06c1,.75,2.57-1.21,10.52-3.87,6.28-2.07,8.66-2,10-.75A4.35,4.35,0,0,1,87,82.24c9.38-8,19.32-8.94,23-5,2.66,2.83,1.76,7.84,1.48,9.3-.84,1.23-1.82,2.85-1.45,3.19s1.54-.95,3.16-1c2.89-.11,5.13,3.7,5.57,4.45a12.14,12.14,0,0,1,1.54,8c-.7,4.12-3.41,6.22-7.08,10s-6.5,8.29-9.88,12.29c-11.32,13.33-18,36.68-19.55,42.31a155.31,155.31,0,0,0-5.77,37,114.08,114.08,0,0,0,6.28,23.66c5,13,9.21,24,19.76,31.19a40.77,40.77,0,0,0,20.47,6.72c2,3.16,18.31,2.94,21.14-4.9,0,.39,4.54,4.2,9.44,3.27A42.2,42.2,0,0,0,147,273.25c1.29,3,11.42.2,16-4.14C164.49,268.71,168.86,287.3,146.23,296.38Z"/>
      <path class="cls-16" d="M145.55,296.39c0,.08.19.25.53.47A146.85,146.85,0,0,1,130,298.24H130a116,116,0,0,1-31.83-3.14,92.8,92.8,0,0,1-22.49-8.62c-60.87-33.13-70.3-127.35-55-189a194.36,194.36,0,0,1,16.3-42.92,26.61,26.61,0,0,1,9.63-7.31c2.94-1.29,9-3.28,10.25-1.4s-3.17,6.94-3.89,7.75a21.24,21.24,0,0,0,8.31,0,20.66,20.66,0,0,0,5.24-1.84c-1.66-2.55-2.19-5.3-1.1-6.58,1.54-1.8,5.83-.42,8.26,1.45A10.5,10.5,0,0,1,77.2,52C62.08,82.33,64.46,84.07,64.46,84.07c1,.75,2.58-1.21,10.53-3.87,6.27-2.07,8.65-2,10-.75a4.3,4.3,0,0,1,1.32,2.8c9.38-8,19.32-8.93,23-5,2.66,2.83,1.77,7.84,1.49,9.3-.84,1.23-1.82,2.86-1.46,3.19s1.54-1,3.17-1c2.88-.11,5.12,3.7,5.57,4.45a12.2,12.2,0,0,1,1.54,8c-.7,4.12-3.42,6.22-7.09,10s-6.49,8.29-9.88,12.29c-11.31,13.33-18,36.68-19.54,42.31a154.8,154.8,0,0,0-5.77,37,113.32,113.32,0,0,0,6.27,23.66c5,13,9.21,24,19.77,31.19a40.74,40.74,0,0,0,20.47,6.72"/>
      <path class="cls-7" d="M147,296.82c-.09,0-.14,0-.23,0"/>
      <path class="cls-17" d="M54.07,53.79C51.89,59,50,64.33,48.25,69.7S45,80.54,43.73,86.05a165.82,165.82,0,0,0-2.91,16.71,104.41,104.41,0,0,0-.44,17,103.51,103.51,0,0,1,.2-17,164.42,164.42,0,0,1,2.66-16.8q1.82-8.31,4.3-16.46C49.2,64.05,51,58.69,53.15,53.4Z"/>
      <path class="cls-17" d="M67.57,52.05a108.19,108.19,0,0,0-6.83,11.29,126.77,126.77,0,0,0-5.63,12c-.87,2-1.6,4.11-2.38,6.17s-1.44,4.18-2,6.31a116,116,0,0,0-3,12.9,115.49,115.49,0,0,1,2.75-13c.54-2.15,1.26-4.24,1.91-6.36s1.43-4.19,2.27-6.24A128.94,128.94,0,0,1,60.08,63a110.46,110.46,0,0,1,6.68-11.52Z"/>
      <path class="cls-17" d="M65.6,84.3A156.52,156.52,0,0,0,47.8,150,169.34,169.34,0,0,0,48,167.13a165.42,165.42,0,0,0,2.07,17,158.86,158.86,0,0,0,9.58,32.93,158.41,158.41,0,0,1-9.82-32.89,162.86,162.86,0,0,1-2.2-17.05A170.36,170.36,0,0,1,47.3,150,157.42,157.42,0,0,1,64.71,83.84Z"/>
      <path class="cls-17" d="M87.38,82.56a92.48,92.48,0,0,0-8,12,117.13,117.13,0,0,0-6.37,13,115.48,115.48,0,0,0-4.77,13.65,124.39,124.39,0,0,0-3.11,14.15A122.43,122.43,0,0,1,68,121.11a115.13,115.13,0,0,1,4.55-13.78,116.53,116.53,0,0,1,6.17-13.15,93.81,93.81,0,0,1,7.87-12.26Z"/>
      <path class="cls-17" d="M110.4,90.12a88.21,88.21,0,0,0-9.34,10.51,99.07,99.07,0,0,0-7.76,11.79c-1.19,2-2.19,4.17-3.25,6.27l-1.41,3.25L88,123.56l-.6,1.66a83.43,83.43,0,0,0-3.78,13.63,81.91,81.91,0,0,1,3.54-13.71l.58-1.68.66-1.64,1.36-3.28c1-2.13,2-4.3,3.16-6.36a98.13,98.13,0,0,1,7.59-12,89.51,89.51,0,0,1,9.26-10.8Z"/>
      <path class="cls-17" d="M65.15,122a201.43,201.43,0,0,0-2.4,24.12,152.31,152.31,0,0,0,.8,24.17c.49,4,1,8,1.79,12s1.67,7.9,2.77,11.78c2.29,7.72,5.08,15.37,10.32,21.76l0-.08,3.51,3.7-3.67-3.55,0-.07c0,.06,0,0,0,0l-.06-.07-.13-.14-.25-.29-.49-.58c-.33-.39-.64-.79-.94-1.2-.61-.81-1.19-1.65-1.74-2.51a60.27,60.27,0,0,1-2.93-5.35,90.91,90.91,0,0,1-4.33-11.38,143,143,0,0,1-4.72-23.87,117.64,117.64,0,0,1-.8-12.16c-.08-4,0-8.11.23-12.16A163.89,163.89,0,0,1,65.15,122Z"/>
      <path class="cls-17" d="M51.46,188.91A125.42,125.42,0,0,0,66.4,211.34,123.94,123.94,0,0,0,85.75,230l-.62.78A124.1,124.1,0,0,1,66,211.66,126.79,126.79,0,0,1,51.46,188.91Z"/>
      <path class="cls-17" d="M61.34,213.47A80.86,80.86,0,0,0,91.08,243l-.51.86a81.29,81.29,0,0,1-29.23-30.34Z"/>
      <path class="cls-17" d="M76,242.33A40.7,40.7,0,0,0,87,250a40,40,0,0,0,12.81,3.63l-.12,1A40.74,40.74,0,0,1,76,242.33Z"/>
      <path class="cls-17" d="M61.34,218.8c1.91,4.69,4,9.29,6.22,13.84s4.55,9,7.1,13.4c1.23,2.2,2.6,4.32,3.93,6.46s2.8,4.21,4.35,6.2a54.33,54.33,0,0,0,10.34,10.85l-.6.8a55.29,55.29,0,0,1-10.35-11.21c-1.52-2-2.87-4.18-4.26-6.3s-2.64-4.33-3.85-6.56q-3.7-6.63-6.89-13.53C65.2,228.16,63.17,223.52,61.34,218.8Z"/>
      <path class="cls-17" d="M148.93,269.14c-5.62.47-11.17.62-16.76.69s-11.17,0-16.74-.33-11.14-.74-16.66-1.53a115.17,115.17,0,0,1-16.36-3.45,115.75,115.75,0,0,0,16.39,3.2c5.52.71,11.09,1,16.65,1.28s11.14.21,16.71.08,11.16-.39,16.64-.93Z"/>
      <path class="cls-17" d="M154.24,278.78a30.19,30.19,0,0,1-5.31,7.21,43.87,43.87,0,0,1-6.92,5.74c-1.29.77-2.54,1.62-3.89,2.28-.67.34-1.32.72-2,1L134,296a19.85,19.85,0,0,1-2.1.82l-2.13.77c-1.43.45-2.89.83-4.34,1.25l-.22-1c1.43-.37,2.88-.7,4.3-1.11l2.12-.69a19.31,19.31,0,0,0,2.09-.76l2.06-.84c.69-.28,1.34-.64,2-1,1.36-.61,2.61-1.41,3.91-2.14a43.86,43.86,0,0,0,7-5.5A30.12,30.12,0,0,0,154.24,278.78Z"/>
      <path class="cls-17" d="M133.63,281.83a19.78,19.78,0,0,1-4,4.2,30.66,30.66,0,0,1-4.82,3.22,39.61,39.61,0,0,1-10.93,3.84,59,59,0,0,1-11.57,1.13c-1.93-.05-3.87-.15-5.81-.24l-5.78-.66.15-1,5.71.78c1.91.13,3.83.27,5.74.36a57.84,57.84,0,0,0,11.46-.87A39.4,39.4,0,0,0,124.73,289a30,30,0,0,0,4.85-3.1A19.92,19.92,0,0,0,133.63,281.83Z"/>
      <path class="cls-17" d="M124.37,279.89a28.67,28.67,0,0,1-5.74,3.1,51.82,51.82,0,0,1-6.18,2.13,69.46,69.46,0,0,1-12.9,2.12c-1.09.06-2.18.15-3.27.2l-3.28,0H91.36l-1.63-.08-3.27-.15c-2.18-.16-4.35-.42-6.53-.63l-6.47-1,.18-1,6.41,1.12c2.16.25,4.31.55,6.46.75l3.25.22,1.62.11,1.63,0,3.25,0c1.09,0,2.17-.09,3.26-.13a68.18,68.18,0,0,0,12.86-1.86,51.53,51.53,0,0,0,6.2-2A28.56,28.56,0,0,0,124.37,279.89Z"/>
      <path class="cls-17" d="M71.51,249.35a77.78,77.78,0,0,1-11.33-7.72A82.28,82.28,0,0,1,42.11,221a79.28,79.28,0,0,1-6.21-12.22c1.05,2,2.1,4.05,3.26,6s2.32,3.91,3.6,5.8,2.57,3.74,3.94,5.55,2.83,3.55,4.33,5.25A98.25,98.25,0,0,0,60.67,241q2.56,2.25,5.29,4.31C67.75,246.76,69.62,248.06,71.51,249.35Z"/>
      <path class="cls-17" d="M66.34,237.6c-3.64-3.57-7.11-7.33-10.44-11.2s-6.5-7.88-9.58-12-6-8.31-8.69-12.62-5.34-8.71-7.72-13.22c1.38,2.14,2.73,4.31,4.14,6.43s2.78,4.27,4.22,6.37c2.87,4.2,5.78,8.38,8.85,12.44s6.16,8.1,9.37,12.06c1.59,2,3.22,3.94,4.87,5.88S64.67,235.67,66.34,237.6Z"/>
      <path class="cls-17" d="M53.39,217.1c-1.53-1.6-3-3.27-4.4-5s-2.76-3.46-4.08-5.24a125.48,125.48,0,0,1-7.21-11.15,121.86,121.86,0,0,1-5.86-11.92c-.85-2-1.66-4.1-2.41-6.18s-1.41-4.19-2-6.33c1.58,4.13,3.25,8.21,5.1,12.2s3.83,7.93,6,11.74,4.49,7.56,7,11.2S50.66,213.63,53.39,217.1Z"/>
      <path class="cls-7" d="M174.29,297.47h0l-.39-.23"/>
      <path class="cls-17" d="M204.61,278c3.59.39,6.38,2.66,8.47,5.22a28.28,28.28,0,0,1,4.56,8.78c.28.77.45,1.58.68,2.37s.48,1.58.6,2.4l.45,2.42c.15.81.3,1.61.37,2.43.16,1.64.42,3.26.49,4.9l.24,4.91-.36-4.9c-.11-1.63-.42-3.25-.62-4.87a21.3,21.3,0,0,0-.43-2.41l-.51-2.4c-.14-.81-.44-1.57-.65-2.36s-.43-1.57-.73-2.33a27.75,27.75,0,0,0-4.67-8.46,15.28,15.28,0,0,0-3.56-3.16A9.68,9.68,0,0,0,204.6,279Z"/>
      <path class="cls-17" d="M197.55,307.73a2.35,2.35,0,0,1,.13-.43l.12-.25.22-.46.44-.92c.28-.61.55-1.23.8-1.86a40.36,40.36,0,0,0,1.36-3.82,37.77,37.77,0,0,0,1.51-8,29,29,0,0,0-.46-8.1l-.44-2-.66-1.93c-.11-.32-.21-.65-.33-1l-.44-.92-.87-1.86.93,1.83.46.92c.14.31.25.63.37.95l.72,1.93.5,2a29.22,29.22,0,0,1,.72,8.18,38.24,38.24,0,0,1-1.29,8.15c-.36,1.32-.77,2.64-1.26,3.93-.24.65-.5,1.29-.76,1.92l-.42.95-.21.46-.09.22,0,.05Z"/>
      <path class="cls-18" d="M206.07,286.66c-.47-.9-.84-1.8-1.23-2.7s-.78-1.8-1.1-2.76a10.1,10.1,0,0,1,1.56,2.57A9.88,9.88,0,0,1,206.07,286.66Z"/>
      <path class="cls-19" d="M207.24,311.86h-4c1.4-3,6.3-13.8,2.86-25.2C208.67,292.34,209.82,300.41,207.24,311.86Z"/>
      <path class="cls-16" d="M203.69,311.86H189.58a45.59,45.59,0,0,0-14.82-14.39s.09,0,.12-.06c.36-.14.7-.31,1.06-.45,13.33-5.68,15.82-16.77,16.13-23.07a23.55,23.55,0,0,1,8.51,4.76,22.58,22.58,0,0,1,6,8C210,298.06,205.09,308.86,203.69,311.86Z"/>
      <path class="cls-16" d="M228.52,306.85v5H207.24c2.58-11.45,1.43-19.52-1.17-25.2a22.6,22.6,0,0,0-6-8,23.39,23.39,0,0,0-8.51-4.76,31.58,31.58,0,0,0-.11-4.28,14,14,0,0,1-.31-2.66C197.33,266.75,222.08,268.52,228.52,306.85Z"/>
      <path class="cls-8" d="M179.64,251.58l-.23.22a1.46,1.46,0,0,1,.2-.22Z"/>
      <path class="cls-11" d="M177.91,289.21a17.31,17.31,0,0,1-3.12,4,23.65,23.65,0,0,1-4,3.11,26.55,26.55,0,0,1-4.56,2.19c-.79.31-1.61.51-2.42.75s-1.64.36-2.47.52a45.84,45.84,0,0,0,4.75-1.63,29.42,29.42,0,0,0,4.44-2.26,25.77,25.77,0,0,0,4-3A22.72,22.72,0,0,0,177.91,289.21Z"/>
      <path class="cls-11" d="M170.58,287a21.54,21.54,0,0,1-3.85,4.82,29.62,29.62,0,0,1-4.91,3.79,32.16,32.16,0,0,1-5.58,2.68c-1,.4-2,.64-3,.95s-2,.45-3,.65a51,51,0,0,0,5.82-2,34.51,34.51,0,0,0,5.46-2.76,31.68,31.68,0,0,0,4.91-3.64A27.7,27.7,0,0,0,170.58,287Z"/>
      <path class="cls-14" d="M232.36,148.34c1.8-1,3.64-2,5.51-2.86s3.76-1.72,5.69-2.45a49.36,49.36,0,0,1,5.9-1.89,27,27,0,0,1,6.12-.87,26.71,26.71,0,0,0-6.09,1,50.91,50.91,0,0,0-5.84,2c-1.91.77-3.78,1.64-5.62,2.56s-3.66,1.89-5.41,3Z"/>
      <path class="cls-20" d="M365.58,194.79a49.84,49.84,0,0,1-10.69,12.6,50.48,50.48,0,0,1-18.43,9.92,61.21,61.21,0,0,1-27,20.21,61.92,61.92,0,0,1-40,.9A54.87,54.87,0,0,1,256,226.74a54.1,54.1,0,0,1-11.34-24.61c4.17-7.34,7.65-13.75,8-14.42,4.82-8.88,8.65-16.49,11.37-22a77.55,77.55,0,0,1-22.12-2.82A75.14,75.14,0,0,1,231,158.93c-1-.45-2-.93-2.94-1.38a32.82,32.82,0,0,0,2.74-4.7,27,27,0,0,0,1.74-4.45,53,53,0,0,1-3-12.49v0a41.36,41.36,0,0,1,.56-12.62c4.42-21.9,25.84-33,34.55-47.41a152.3,152.3,0,0,1,42.64,32.43A154,154,0,0,1,339.77,163a40.63,40.63,0,0,1,18.31,13.61A40.16,40.16,0,0,1,365.58,194.79Z"/>
      <path class="cls-9" d="M264.67,75.85c-8.71,14.42-30.13,25.51-34.55,47.41a41.36,41.36,0,0,0-.56,12.62v0a53,53,0,0,0,3,12.49,27,27,0,0,1-1.74,4.45,32.82,32.82,0,0,1-2.74,4.7c.92.45,1.9.93,2.94,1.38-2.05,5.93-4.15,11.28-6.19,16.1-.48-.7-.87-1.32-1-1.54l0-.12a20.53,20.53,0,0,0-3.53-6.77c-1.07-5-.42-35.08,1.87-46.51,1.71-8.4,8.82-19.21,12.72-25.31,0,0,0,0,0,0,2.5-2.46,4.37-4.81,5-6.75a6.63,6.63,0,0,0,.34-1.12c4.68-7.28,8.2-20.66,9.35-25.48a8,8,0,0,0,2-5.37c.06-4.43-1.74-7.09-4.14-8.32,0,0-.09,0-.12-.05a5.86,5.86,0,0,0,.14-.82,3.43,3.43,0,0,0,.06-.56v-.16a6.92,6.92,0,0,0-.28-2.24.18.18,0,0,1,0-.12c-.14-.36-.28-.7-.42-1s-.19-.34-.28-.51a3.68,3.68,0,0,0-.28-.45,1.35,1.35,0,0,1-.14-.22l-.5-.62-.17-.22c-.22-.28-.45-.5-.64-.73a4.72,4.72,0,0,1-.82-1v0a.64.64,0,0,1,0-.17,3.87,3.87,0,0,0,0-.56s0,0,.06,0a10.31,10.31,0,0,1,10.81-1.29c6.3,2.75,13.91,8.23,9.82,13.92a25.21,25.21,0,0,1,3.7,11.23A23.16,23.16,0,0,1,264.67,75.85Z"/>
      <path class="cls-9" d="M222.08,120.09c-2.29,11.43-2.94,41.47-1.87,46.51a16.55,16.55,0,0,0-2.44-2.44,140.1,140.1,0,0,1-2.71-55.1A86.23,86.23,0,0,0,234.8,94.78C230.9,100.88,223.79,111.69,222.08,120.09Z"/>
      <path class="cls-10" d="M220.6,166.6a45.75,45.75,0,0,1,.36-8.1,51.16,51.16,0,0,1,1.76-7.92,62,62,0,0,1,2.94-7.57c.57-1.22,1.19-2.43,1.83-3.62s1.35-2.33,2.07-3.48a81.41,81.41,0,0,0-6.36,14.82,55.36,55.36,0,0,0-1.86,7.83A58.47,58.47,0,0,0,220.6,166.6Z"/>
      <path class="cls-21" d="M222.08,120.09c-2.29,11.43-2.94,41.47-1.87,46.51a16.55,16.55,0,0,0-2.44-2.44,140.1,140.1,0,0,1-2.71-55.1A86.23,86.23,0,0,0,234.8,94.78C230.9,100.88,223.79,111.69,222.08,120.09Z"/>
      <path class="cls-21" d="M379.47,256v0c2.13-7.87,4.09-15.26,2.77-25.09a54.46,54.46,0,0,0-7.42-20.75,20.47,20.47,0,0,1-6,6.25c-1.35.95-3.61,2.52-6.44,4.36-16.47,10.81-37.19,21.84-61.29,27.19a62,62,0,0,1-7.84,1.32c-.48,6,3.1,24.11,3.36,25.28s2.57,9.58-2.78,8.82-4.11-7.05-4.11-7.05-5-1.52-5.46-1.6-.11-20.36,0-25.93a23.51,23.51,0,0,1-4.06-1.29,26.71,26.71,0,0,1-3.3-1.65A59.34,59.34,0,0,0,265.65,289a49.55,49.55,0,0,0-3.58,11.26,48,48,0,0,0-.79,11.62l119.79-4.37a76,76,0,0,1-5.44-26.68C375.49,270.65,377.54,263.09,379.47,256Zm-61.18,40v0h0Z"/>
      <path class="cls-12" d="M197.14,57.55s3-12.62,17.41-3.13C214.55,54.42,203.89,50.73,197.14,57.55Z"/>
      <path class="cls-12" d="M176.11,71.27s-3.69-9.23,10.1-10.91C186.21,60.36,177.5,63.63,176.11,71.27Z"/>
      <path class="cls-22" d="M374.82,210.08a20.47,20.47,0,0,1-6,6.25c-1.35.95-3.61,2.52-6.44,4.36-16.47,10.81-37.19,21.84-61.29,27.19a62,62,0,0,1-7.84,1.32,28.93,28.93,0,0,1-5.18.08,22.52,22.52,0,0,1-3.84-.56,23.51,23.51,0,0,1-4.06-1.29,26.71,26.71,0,0,1-3.3-1.65,52.13,52.13,0,0,1-13.44-11.62,51.22,51.22,0,0,0,6,4.26,61.92,61.92,0,0,0,40-.9,61.21,61.21,0,0,0,27-20.21,50.48,50.48,0,0,0,18.43-9.92,49.84,49.84,0,0,0,10.69-12.6c.79-.08,7.25-.84,10.11,2.8C377.85,200.34,377.76,205.35,374.82,210.08Z"/>
      <path class="cls-23" d="M249.41,61.32c-3.81,4.4-11.79,4.62-12.74,4.29,3.47,2.38,5.6,13.41,3.39,21.19a6.92,6.92,0,0,1-.34,1.12c-.67,1.93-2.54,4.29-5,6.75,0,0,0,0,0,0A86.23,86.23,0,0,1,214.92,109c-2,1-3.64,1.54-4.46,1.4a18.31,18.31,0,0,1-3.86-1.29c-3.22-1.46-11.17-6.64-11.17-6.64l0,0s-1.65-1.12-2.46-1.71c-4.88-3.45-8.07-14-10.28-20a15.92,15.92,0,0,0-1.82-4,.74.74,0,0,0-.2-.23c-7.19-5.88-9.35-12.18-9.85-14.08,12-12,32-15.26,41.47-16.1h0c.65-.06,1.24-.11,1.8-.14h0"/>
      <path class="cls-21" d="M247.4,47a5.39,5.39,0,0,1-.12.68l0,0A8.87,8.87,0,0,0,238,48.92c-.12.08-.23.19-.34.28a.1.1,0,0,0-.08,0c-.31-.19-16.83-3.83-20.11-3.89-.53,0-1.65,0-3.25.14h0c-.56,0-1.15.08-1.8.14h0c-9.52.84-29.52,4.14-41.47,16.1l-.14.14s-4.85-4.14-4.43-7.14v-.06a2.83,2.83,0,0,1,1.91-2.12c0-.06-.14-.23-.39-.51-1-1.06-3.9-4.2-3.64-7.45a4.62,4.62,0,0,1,.89-2.57l-.08-.59C165,40.91,165,40,165,39c0-.73,0-1.51,0-2.35.14-3.78.87-8.38,3.31-9.89,4.37-2.74,42.92-19.6,65.63-9.54,4.06,3,4.87,8.37,5,11.5V29c0,.56,0,1,0,1.37s-.06.73-.06.73A5.94,5.94,0,0,1,244,36.93V37c0,.17,0,.28,0,.45a6.48,6.48,0,0,1-.06.76v0a3.61,3.61,0,0,1,0,.53c.08.89,3.36,2.77,3.61,6.58v.17A5,5,0,0,1,247.4,47Z"/>
      <g>
        <ellipse class="cls-24" cx="186.45" cy="74.1" rx="5.9" ry="7.29" transform="translate(-13.82 61.94) rotate(-18.2)"/>
        <ellipse class="cls-12" cx="188.29" cy="72.98" rx="3.72" ry="4.72" transform="translate(-13.37 62.38) rotate(-18.18)"/>
        <circle class="cls-25" cx="184.75" cy="70.66" r="1.19"/>
      </g>
      <g>
        <ellipse class="cls-24" cx="207.32" cy="64.98" rx="5.9" ry="7.29" transform="translate(-9.92 68.01) rotate(-18.2)"/>
        <ellipse class="cls-12" cx="209.16" cy="63.86" rx="3.72" ry="4.72" transform="translate(-9.48 68.44) rotate(-18.18)"/>
        <circle class="cls-25" cx="205.62" cy="61.54" r="1.19"/>
      </g>
      <path class="cls-20" d="M217.77,164.16c-8.34-6.44-20.89-2.63-23-1.93h0l-.28.11c-.62-2.61,1.28-8.65,1.4-9.46-.28-24.47,8.48-38.23,10.86-41.48a18.4,18.4,0,0,0,3.86,1.24c.82.13,2.41-.38,4.46-1.35a128.25,128.25,0,0,0-1.18,29.77A130,130,0,0,0,217.77,164.16Z"/>
      <path class="cls-21" d="M264.67,75.85c-8.71,14.42-30.13,25.51-34.55,47.41a41.36,41.36,0,0,0-.56,12.62v0a53,53,0,0,0,3,12.49,27,27,0,0,1-1.74,4.45,32.82,32.82,0,0,1-2.74,4.7c.92.45,1.9.93,2.94,1.38-2.05,5.93-4.15,11.28-6.19,16.1-.48-.7-.87-1.32-1-1.54l0-.12a20.53,20.53,0,0,0-3.53-6.77c-1.07-5-.42-35.08,1.87-46.51,1.71-8.4,8.82-19.21,12.72-25.31,0,0,0,0,0,0,2.5-2.46,4.37-4.81,5-6.75a6.63,6.63,0,0,0,.34-1.12c4.68-7.28,8.2-20.66,9.35-25.48a8,8,0,0,0,2-5.37c.06-4.43-1.74-7.09-4.14-8.32,0,0-.09,0-.12-.05a5.86,5.86,0,0,0,.14-.82,3.43,3.43,0,0,0,.06-.56v-.16a6.92,6.92,0,0,0-.28-2.24.18.18,0,0,1,0-.12c-.14-.36-.28-.7-.42-1s-.19-.34-.28-.51a3.68,3.68,0,0,0-.28-.45,1.35,1.35,0,0,1-.14-.22l-.5-.62-.17-.22c-.22-.28-.45-.5-.64-.73a4.72,4.72,0,0,1-.82-1v0a.64.64,0,0,1,0-.17,3.87,3.87,0,0,0,0-.56s0,0,.06,0a10.31,10.31,0,0,1,10.81-1.29c6.3,2.75,13.91,8.23,9.82,13.92a25.21,25.21,0,0,1,3.7,11.23A23.16,23.16,0,0,1,264.67,75.85Z"/>
      <path class="cls-23" d="M223.23,175.12a161.84,161.84,0,0,1-9,22.1c-3,5.48-5.71,9.74-9.85,17.33a1.35,1.35,0,0,1-.14.22,154.76,154.76,0,0,1-11.43,15.37,163.55,163.55,0,0,1-25,23.91l.5.93a39.61,39.61,0,0,0-6.64,3.33,40.38,40.38,0,0,0-6.6,5.1c-4.9.92-9.49-2.89-9.44-3.28-2.83,7.84-19.09,8.06-21.14,4.9a1.38,1.38,0,0,1-.19-.67c1.54-10.56,17.22-17,26.4-19.91,0,0,0,0,0-.06,6.16-8.82,11.54-15.82,15.32-20.69,9.24-11.81,13.49-16,17.41-25.25.81-1.91,1.91-5.18,3.87-11.34v0c.25-.78.5-1.6.78-2.46,2.74-8.63,4.9-15.77,6.36-20.75h0c2.08-.7,14.51-4.65,22.77,2a15.69,15.69,0,0,1,2.41,2.41,20.51,20.51,0,0,1,3.5,6.72Z"/>
      <path class="cls-23" d="M264,165.67c-2.72,5.55-6.55,13.16-11.37,22-.36.67-3.84,7.08-8,14.42-3.11,5.43-6.58,11.34-9.43,15.79-7,10.84-20,27.89-44,46.59v0a12.21,12.21,0,0,0-.09,2.44,14,14,0,0,0,.31,2.66,31.58,31.58,0,0,1,.11,4.28c-.31,6.3-2.8,17.39-16.13,23.07-.36.14-.7.31-1.06.45,0,0-.08,0-.11.06h0a39.63,39.63,0,0,1-10.86,2.68h0a30.43,30.43,0,0,1-11.48-1h0a18.57,18.57,0,0,1-5.1-2.27c-.33-.22-.53-.39-.53-.48,22.63-9.07,18.26-27.66,16.83-27.27-4.62,4.34-14.75,7.12-16,4.15a42,42,0,0,1,8.12-10.56,41.36,41.36,0,0,1,13.24-8.43,41.36,41.36,0,0,1,11.23-2.71l0,0a101.37,101.37,0,0,0,14-17.58c2.94-4.62,4.36-7.73,7.64-14.06,1.23-2.38,2.38-4.48,3.39-6.38a1.42,1.42,0,0,0,.14-.23,161.46,161.46,0,0,0,9.94-17.5A221.26,221.26,0,0,0,224.8,175c2-4.82,4.14-10.17,6.19-16.1a75.14,75.14,0,0,0,10.92,3.92A77.55,77.55,0,0,0,264,165.67Z"/>
    </g>
  </g>
</svg>
