<svg xmlns="http://www.w3.org/2000/svg" xmlns:xlink="http://www.w3.org/1999/xlink" width="279.44" height="293.41" viewBox="0 0 279.44 293.41">
  <defs>
    <style>
      .cls-1 {
        fill: none;
      }

      .cls-2 {
        isolation: isolate;
      }

      .cls-10, .cls-3 {
        opacity: 0.5;
      }

      .cls-4 {
        fill: #ff0;
      }

      .cls-5 {
        fill: #fb8000;
      }

      .cls-6 {
        fill: #3fc416;
      }

      .cls-7 {
        fill: #e53963;
      }

      .cls-8 {
        opacity: 0.2;
        mix-blend-mode: screen;
      }

      .cls-9 {
        fill: url(#linear-gradient);
      }

      .cls-10 {
        mix-blend-mode: multiply;
      }

      .cls-11 {
        fill: url(#linear-gradient-2);
      }

      .cls-12 {
        fill: url(#linear-gradient-3);
      }

      .cls-13 {
        clip-path: url(#clip-path);
      }

      .cls-14 {
        clip-path: url(#clip-path-2);
      }
    </style>
    <linearGradient id="linear-gradient" x1="-6003.35" y1="-9104.92" x2="-5927.54" y2="-9104.92" gradientTransform="translate(19206.87 6640.01) rotate(-37.88) scale(1.86)" gradientUnits="userSpaceOnUse">
      <stop offset="0" stop-color="#ff0a3b"/>
      <stop offset="0.67" stop-color="#ff576b"/>
      <stop offset="1" stop-color="#ff7880"/>
    </linearGradient>
    <linearGradient id="linear-gradient-2" x1="-5947.65" y1="-9134.95" x2="-5946.82" y2="-9036.4" gradientTransform="translate(19206.87 6640.01) rotate(-37.88) scale(1.86)" gradientUnits="userSpaceOnUse">
      <stop offset="0" stop-color="#cc8122"/>
      <stop offset="0.32" stop-color="#9e5e16"/>
      <stop offset="0.78" stop-color="#612f06"/>
      <stop offset="1" stop-color="#491c00"/>
    </linearGradient>
    <linearGradient id="linear-gradient-3" x1="-6003.35" y1="-9093.55" x2="-5891.11" y2="-9093.55" xlink:href="#linear-gradient-2"/>
    <clipPath id="clip-path">
      <rect class="cls-1" x="791.6" y="11.99" width="399.27" height="399.27" rx="26.14"/>
    </clipPath>
    <clipPath id="clip-path-2">
      <rect class="cls-1" x="572.97" y="-69.03" width="679.16" height="679.16"/>
    </clipPath>
  </defs>
  <g class="cls-2">
    <g id="Layer_1" data-name="Layer 1">
      <g>
        <path class="cls-3" d="M263.63,293.41c-2.76,0-6.61-.14-11.43-.43l-.29,0c-37.31-3.12-39.31-31.46-40.5-48.4-1.3-18.31-2.56-22-14.12-23.05a10,10,0,0,1-1.1-.15A58.79,58.79,0,0,1,171,210.43l-5.76,4.47a12.18,12.18,0,0,1-19.34-12.3l2.09-9.32L50.53,181.5c0,.26.07.53.1.8,1.12,7.87-2.07,20.61-11.32,25.27a12.18,12.18,0,0,1-16.2-16.65,25,25,0,0,0,1.18-2.48l-1.81-.92c-4.45-2.2-14-6.94-15.53-17.69a12.2,12.2,0,0,1-.76-6.05L25,18.24A12.18,12.18,0,0,1,37,7.61a13.86,13.86,0,0,1,1.43.08l146.4,17.69a12.22,12.22,0,0,1,6.91,3.25c8.76,4.49,10.77,14.06,11.73,18.61.12.59.28,1.32.43,2a23.74,23.74,0,0,0,3-.54,12.62,12.62,0,0,1,2.78-.32,12.18,12.18,0,0,1,8.67,20.73c-5.19,5.26-12.59,6.05-16.54,6.05a27.24,27.24,0,0,1-10.28-1.92l-.49-.18-12.42,96.34,9.77.28a12.18,12.18,0,0,1,7.11,21.8l-.89.69a71.34,71.34,0,0,0,12.08,2.28c.34,0,.68.09,1,.16,29.79,5.87,31.34,30.69,32.36,47.11,1.17,18.66,2.65,23.18,14.62,24.67,4.64.52,8.43,1,11.14,1.52,11.73,2.05,13.84,8.56,13.55,13.66s-4.07,10.9-11.83,11.7c-1.05.1-2.3.15-3.95.15Z"/>
        <path class="cls-4" d="M257.54,285.8c-2.76,0-6.61-.14-11.43-.43l-.29,0c-37.31-3.12-39.31-31.46-40.5-48.4-1.3-18.32-2.56-22-14.12-23a10,10,0,0,1-1.1-.15A58.79,58.79,0,0,1,165,202.82l-5.76,4.47A12.18,12.18,0,0,1,139.85,195l2.09-9.32-97.5-11.78c0,.26.07.53.1.8,1.13,7.87-2.07,20.61-11.32,25.27A12.18,12.18,0,0,1,17,183.31a25,25,0,0,0,1.18-2.48l-1.81-.92c-4.45-2.2-14-6.94-15.53-17.69a12.2,12.2,0,0,1-.76-6.05L18.86,10.62A12.18,12.18,0,0,1,30.92,0a13.86,13.86,0,0,1,1.43.08l146.4,17.69A12.09,12.09,0,0,1,185.66,21c8.76,4.49,10.77,14.05,11.73,18.61.12.59.28,1.32.43,2a25.69,25.69,0,0,0,3-.54,12.18,12.18,0,0,1,11.45,20.41c-5.19,5.26-12.59,6.05-16.54,6.05a27.24,27.24,0,0,1-10.28-1.92l-.49-.19-12.42,96.35,9.77.27a12.18,12.18,0,0,1,7.11,21.81l-.89.69a71.34,71.34,0,0,0,12.08,2.28q.51.06,1,.15c29.79,5.87,31.34,30.7,32.36,47.12,1.17,18.66,2.65,23.17,14.62,24.66,4.64.53,8.43,1.05,11.14,1.52,11.73,2.06,13.84,8.57,13.55,13.67-.3,5.25-4.07,10.9-11.83,11.69a38.35,38.35,0,0,1-3.95.16Z"/>
        <g>
          <path class="cls-5" d="M13.55,156.89c-1,11.58,18,8.19,18.89,19.3.77,4.23-1.37,11.21-4.7,12.89,12.93-24-18.09-15.76-14.63-32.35A.24.24,0,0,1,13.55,156.89Z"/>
          <path class="cls-5" d="M175.69,30.82c17.11.74,1.07,28.42,27.93,22.12-2.69,2.72-9.73,3.12-13.73,1.32-10.57-3.54-2.68-21.09-14.15-23A.24.24,0,0,1,175.69,30.82Z"/>
          <path class="cls-6" d="M164.43,181.67c6.71,11.86,21.68,15.81,34.87,17.26,42,8.28,2.37,66.26,47.82,71.92,18.76,2.14,18.78,3.5-.28,2.36-52.4-4.38-7.49-67.15-54.54-71.44-11.44-2.1-24.44-8.8-28.74-19.76A.47.47,0,0,1,164.43,181.67Z"/>
          <polygon class="cls-7" points="177.29 29.86 158.53 175.4 12.18 157.72 30.94 12.18 177.29 29.86"/>
          <g class="cls-8">
            <path class="cls-9" d="M92.24,30.92C138.16,89,84.8,178,12.18,157.72L30.94,12.18l48.74,5.89A81.36,81.36,0,0,1,92.24,30.92Z"/>
          </g>
          <g class="cls-10">
            <path class="cls-11" d="M95.58,93.54c20.78,26.67,44.3,56.93,63.6,82.27l-.42.33c-41.07-51.36-88-111.45-127.87-163.58l.05-.38.38.05C51.15,37,74.64,66.85,95.58,93.54Z"/>
            <path class="cls-12" d="M177.29,29.86l-.26,2C103.08,37.71,38.1,88.05,14.25,158l-2.07-.25C28.64,89.46,107,28.75,177.29,29.86Z"/>
          </g>
          <polygon class="cls-7" points="151.73 197.66 157.15 173.52 181.98 174.23 151.73 197.66"/>
        </g>
      </g>
    </g>
  </g>
</svg>
