<svg id="Layer_1" data-name="Layer 1" xmlns="http://www.w3.org/2000/svg" width="483.73" height="332.08" viewBox="0 0 483.73 332.08">
  <defs>
    <style>
      .cls-1 {
        fill: #231f20;
        opacity: 0.5;
      }

      .cls-2 {
        fill: #fff800;
      }

      .cls-3 {
        fill: #64737b;
      }

      .cls-4 {
        fill: #5a6159;
      }

      .cls-5 {
        fill: #4a565d;
      }

      .cls-6 {
        fill: #97a0aa;
      }

      .cls-7 {
        fill: #897478;
      }

      .cls-8 {
        fill: #b4a063;
      }

      .cls-9 {
        fill: #fff;
      }

      .cls-10 {
        fill: #857d75;
      }

      .cls-11 {
        fill: #878680;
      }

      .cls-12 {
        fill: #e1c88c;
      }

      .cls-13 {
        fill: #3a454a;
      }

      .cls-14 {
        fill: #aca094;
      }
    </style>
  </defs>
  <g>
    <path class="cls-1" d="M275.83,332.08a36.21,36.21,0,0,1-6.33-.52,23.9,23.9,0,0,1-17.69-13c-.16-.17-.31-.34-.45-.52a13.73,13.73,0,0,1-2.36-3.89,14.71,14.71,0,0,1-5.86-9c-.08-.42-.15-.86-.21-1.29-.05-.28-.09-.57-.12-.86s0-.35,0-.53,0-.65-.05-1c0-.49,0-1,0-1.54s0-1,.08-1.42c.07-.69.18-1.38.32-2.07.1-.49.2-.94.33-1.38h0a16.48,16.48,0,0,1,1.9-6.65,15.56,15.56,0,0,1,.81-1.39c0-.46,0-.92,0-1.39,0,0,.09-1.71.11-2.07,0-1.32,0-2.64.08-3.93l0-1c.11-3.23.2-6.13.18-9a44.8,44.8,0,0,0-1.9-12.41c-2-2.72-4.74-6.69-5.41-12.16a103.54,103.54,0,0,1-.18-18.16l.11-2.4c.22-4.54.29-8.44.22-12l-.75-.21a48,48,0,0,0-11.32-1.61h-1.44c-9.9,0-17.42,1.67-22.35,5-.79.52-1.54,1.08-2.28,1.63-3.7,2.73-8.75,6.46-16.21,7-.65,0-1.31.07-1.95.07-8.15,0-14.4-3.48-18.93-6.52-2.59-1.73-4.92-3.55-7.16-5.31-2-1.57-3.89-3-5.77-4.31-.49-.32-1-.65-1.46-.95a20.41,20.41,0,0,1-2,.79c-.73.25-1.45.48-2.16.68l-.46.12c-.73.2-1.39.35-2,.48l-1.18.19a13.77,13.77,0,0,1-8.87,8,14.48,14.48,0,0,1-3.08.52c-1,2.32-2.12,4.49-3.17,6.53-1.16,2.26-2.25,4.39-3,6.41-1.81,4.6-2,11.3-.39,18.87a105.93,105.93,0,0,0,7.16,21.75,23.24,23.24,0,0,0,5,7.29c.44.44.94.88,1.44,1.34a31.46,31.46,0,0,1,7.27,8.64c5,2.91,10.53,7.6,11.83,15.77a11.72,11.72,0,0,1-2.15,8.83,12.87,12.87,0,0,1-7.66,4.89l-.93.32c-.6.34-1.24.65-1.91.95a20.11,20.11,0,0,1-2.35.92,40.22,40.22,0,0,1-12.26,2.39c-1.71.13-3.7.26-5.78.26a31.91,31.91,0,0,1-13.33-2.56c-1.77-.78-6.44-2.84-9.19-7.73a10.09,10.09,0,0,1-.52-1h0a14.51,14.51,0,0,1-.88-2.55,13.84,13.84,0,0,1-7.42-8A19.46,19.46,0,0,1,91.61,287c.13-.6.27-1.13.39-1.59-.51-1.27-1-2.6-1.53-4.11l-.21-.56s-.6-1.85-.77-2.4-.35-1.1-.51-1.65-.34-1.16-.5-1.73-.73-2.71-.87-3.27l-.78-3.16-.29-1.23c-.47-2-.93-4.12-1.38-6.19-.35-1.58-.7-3.16-1.06-4.73l-.67-2.87s-.55-2.19-.7-2.76l-.29-1.1L82,248l-.32-1.09-.84-2.61c-.17-.49-.35-1-.54-1.51l-.36-1c-.2-.53-.43-1.06-.65-1.59l-.35-.86c-.32-.72-.68-1.49-1.07-2.26-.47-.94-1.15-2-1.86-3.2-.09-.14-.18-.3-.28-.45a91.49,91.49,0,0,0-4.15,9.68c-.76,2.11-1.5,4.33-2.25,6.82l-.39,1.43c-.54,1.87-1.07,3.74-1.54,5.63-1,4.19-2,8.55-2.75,13-1.26,7.14-2.16,13.91.55,18.14.19.29.67.89,1.1,1.41a24.62,24.62,0,0,1,5.18,9l.05.17c.68.93,1.3,1.84,1.87,2.68a28.35,28.35,0,0,1,4.56,9.18c2,7.76-1.66,12.19-4,14.13a13.12,13.12,0,0,1-4.11,3.18,22.3,22.3,0,0,1-9.54,2.06h-.28c-1.26.05-2.51.09-3.75.09-1,0-2,0-2.93-.09a92.12,92.12,0,0,1-11.25-1.25c-5.35-1-12.34-3.5-15.94-9.79a16.68,16.68,0,0,1-1.1-1.92,15.4,15.4,0,0,1-1.07-3,12,12,0,0,1-.27-1.54,13,13,0,0,1-.14-1.44c0-.3,0-.62,0-.95a11.77,11.77,0,0,1-6.13-8.83A18.32,18.32,0,0,1,18.75,291l0-.22a10.74,10.74,0,0,1,.22-1.4c.08-.34.17-.7.27-1.05A13.64,13.64,0,0,1,20.83,285c.81-1.24,1.61-2.26,2.25-3.08l.72-.93c.21-2,.43-3.92.64-5.88.48-4.3.95-8.6,1.36-12.9a11.81,11.81,0,0,1-8.95-5.6c-.55-.91-1.09-1.89-1.6-2.91-.11-.22-.25-.5-.39-.8-.36-.78-.64-1.38-.9-2l-.39-.94c-.29-.72-.5-1.26-.71-1.81l-.65-1.81-.43-1.25c-.49-1.5-.92-3-1.27-4.56a12,12,0,0,1-2.78-5.58c-2.47-12.16.59-24.53,3.6-32.77a157.78,157.78,0,0,1,8.4-18.23c1.17-2.28,2.33-4.54,3.44-6.82l.13-.26c3.75-7.73,7.64-15.72,9.86-23.52,1.71-6,2.3-12.6,2.92-19.55l.13-1.37c-.07-1-.13-2-.2-3.05-.25-3.74-.5-7.61-.57-11.55,0-2.24,0-4.65.09-7.54,0-.17,0-.35,0-.52s0-.32,0-.41c.11-2.94.31-6.07.52-9.2l0-.73a89.65,89.65,0,0,1,2.09-16.17c1.85-7.45,4.83-13.51,8.85-18a27.74,27.74,0,0,1,6.57-5.19c3-1.81,6-3.53,8.88-5.19,2.57-1.46,5.14-2.92,7.67-4.45C77,46.28,83.94,41.76,90.78,37a41,41,0,0,1,13-9.07,32.73,32.73,0,0,1,3.74-1.23c.33-.09.64-.16,1-.22.81-.19,1.67-.37,2.55-.5a8.24,8.24,0,0,1,.85-.11,35,35,0,0,1,3.82-.27l.22,0a60,60,0,0,1,10.18-.86,66.31,66.31,0,0,1,9.72.73c1,0,2,.08,2.93.14.8.05,1.6.11,2.4.11a4.75,4.75,0,0,0,.87,0c.91-.18,2.05-.53,3.25-.89a42.39,42.39,0,0,1,8.48-1.88,20.13,20.13,0,0,1,2-.1c7,0,12.06,3.35,15.45,5.57.93.61,1.81,1.19,2.53,1.57A20.08,20.08,0,0,0,178.3,31l1.73.34q5.13,1,10.27,2l1.52.29c4.59.87,9.32,1.77,14.05,3a146.51,146.51,0,0,0,15-3.18l.79-.21c10.8-2.8,22-5.69,33.71-6.84,4.21-.41,8.09-.61,11.84-.61,2.34,0,4.64.08,6.84.24a120,120,0,0,1,18.19,3c7.78,1.79,15.56,3.79,23.07,5.72q5.43,1.39,10.85,2.76a68.19,68.19,0,0,0,10.37,1.73,25.92,25.92,0,0,1,4.14-14c3.93-6.2,9.54-10.17,15.89-11.29a19.21,19.21,0,0,1,5.27-.73,18.68,18.68,0,0,1,3.66.35,21.67,21.67,0,0,1,10.4,5.18,42.16,42.16,0,0,1,21.58-7.4c.51,0,1,0,1.55,0,.89,0,1.8,0,2.71.1a28.48,28.48,0,0,1,15.59-4.6c.66,0,1.33,0,2,.06a28.11,28.11,0,0,1,17.54,7.27,25.9,25.9,0,0,1,9.46,21.42,44.82,44.82,0,0,1,7.28.62c10.93,1.82,19.25,5.93,24.75,12.21,6.53,7.47,6,13.91,4.37,18-3.29,8.34-11.74,9.69-14.92,10.2-.35,0-.68.1-1,.17A23.85,23.85,0,0,0,461,79.85a15,15,0,0,1,6.86,8.49,18.26,18.26,0,0,1,.68,7.36,15.44,15.44,0,0,1,1.69,4.8,14.22,14.22,0,0,1,.12,3.91c0,.24,0,.48-.08.72a14.66,14.66,0,0,1-1.06,3.69c-.06.16-.26.6-.3.68a14.16,14.16,0,0,1-2.57,3.63c-.13.14-.36.37-.5.5a14.45,14.45,0,0,1-2.63,1.93c-.65.43-1.23.78-1.66,1l-.58.35a19,19,0,0,1-3.59,1.78,13.79,13.79,0,0,1-1,1.17c-.32.35-.63.65-.94.94l-.48.44-.47.41a12.39,12.39,0,0,1-1.25.93,16.59,16.59,0,0,1-2,1.2c-.34.17-.76.36-1.2.53a18.41,18.41,0,0,1-1.9.72l-.22.06c-.73.22-1.48.41-2.21.58l-1,.26a29.94,29.94,0,0,1-7.93,1.25l-.78,0A21.81,21.81,0,0,1,426,124.53c-.42,0-.84,0-1.26,0a17.8,17.8,0,0,1-4.4-.55,16,16,0,0,1-3.78-1.52l-.48-.27a13.47,13.47,0,0,1-1.71-1.21,8.84,8.84,0,0,1-.87-.73,5.93,5.93,0,0,1-.44-.43h-.81l-.83,0c-.7,0-1.4.08-2.09.12-.85.06-1.77.13-2.73.16a140,140,0,0,0-13.43,11.15l-1.77,1.7c-5.24,5-10.66,10.24-16.37,15.18-2.12,1.84-4.29,3.61-6.45,5.39-3.85,3.16-7.49,6.14-10.74,9.34a44.92,44.92,0,0,0-5.93,6.65,4.58,4.58,0,0,0-.74,1.49c-.08.43-.13.85-.19,1.27a31.89,31.89,0,0,1-.71,4,58.62,58.62,0,0,1-6.52,16.17c-1.06,1.76-2.18,3.33-3.18,4.71-.46.66-.94,1.32-1.39,2l-.4.58c-.27.39-.63.93-.88,1.32l0,.48a25.05,25.05,0,0,1-1.62,8.09,29.69,29.69,0,0,1-4.38,8,35.84,35.84,0,0,1-6.68,6.4c-.05.16-.1.32-.14.48s-.13.58-.2.88l-.21,1-.22.94c-.1.41-.2.82-.27,1.23s-.13.89-.18,1.33l-.12.89-.15,1.05c0,.29-.09.58-.12.88-.13,1.38-.21,2.78-.23,4.16a22.11,22.11,0,0,0,.15,3.59,29.7,29.7,0,0,1,.47,8.39,39.49,39.49,0,0,1-1.3,6.25,17.84,17.84,0,0,0-.66,3c.1,6,2,12.46,3.63,17.43a67.79,67.79,0,0,0,3,7.95,22,22,0,0,0,1.6,2.86c.24.35.51.68.77,1,.44.56.93,1.19,1.44,1.92a35.2,35.2,0,0,1,6.84,5c10.15,9.42,8.89,17.16,6,22a11.93,11.93,0,0,1-5.1,4.69,12.19,12.19,0,0,1-2.59,1.2c-6.61,2.21-14.6,4.51-23.05,4.51h-.62a37.43,37.43,0,0,1-10.41-1.23,15.59,15.59,0,0,1-7.56,4,25.45,25.45,0,0,1-10.48,2.33c-.79,0-1.57,0-2.35,0s-1.67,0-2.5.08C278.88,332,277.31,332.08,275.83,332.08Z"/>
    <path class="cls-2" d="M269,325.26a36.26,36.26,0,0,1-6.33-.53,23.94,23.94,0,0,1-17.69-13q-.24-.25-.45-.51a13.47,13.47,0,0,1-2.35-3.89,14.72,14.72,0,0,1-5.87-9c-.08-.43-.15-.86-.2-1.29a8.66,8.66,0,0,1-.12-.87c0-.17,0-.35,0-.53s0-.65-.06-1c0-.49,0-1,0-1.53s0-1,.09-1.43a18.51,18.51,0,0,1,.32-2.07,13.31,13.31,0,0,1,.32-1.38h0a16.85,16.85,0,0,1,1.9-6.65c.27-.52.55-1,.81-1.39q0-.69.06-1.38s.08-1.71.1-2.08c0-1.32,0-2.63.09-3.93l0-1c.11-3.23.21-6.12.18-9a44.5,44.5,0,0,0-1.9-12.42c-2-2.71-4.73-6.69-5.41-12.15a104.63,104.63,0,0,1-.18-18.17l.12-2.39c.21-4.55.28-8.44.21-12l-.75-.2a48,48,0,0,0-11.31-1.62h-1.45c-9.9,0-17.42,1.67-22.35,5-.78.52-1.53,1.08-2.28,1.63-3.69,2.72-8.75,6.45-16.2,7-.66,0-1.31.06-2,.06-8.15,0-14.4-3.48-18.93-6.52-2.59-1.73-4.91-3.55-7.15-5.3-2-1.57-3.9-3.06-5.78-4.31-.48-.33-1-.65-1.46-1a20.41,20.41,0,0,1-2,.79c-.73.26-1.44.48-2.16.68l-.46.13c-.73.19-1.38.34-2,.47l-1.19.19a13.7,13.7,0,0,1-11.95,8.48c-1,2.33-2.12,4.49-3.17,6.53-1.16,2.26-2.25,4.4-3,6.42-1.81,4.59-2,11.29-.38,18.87a105.8,105.8,0,0,0,7.15,21.74,23.13,23.13,0,0,0,5,7.29c.45.44.94.89,1.44,1.34a31.34,31.34,0,0,1,7.27,8.65c5,2.91,10.54,7.6,11.83,15.76a11.72,11.72,0,0,1-2.15,8.83,12.9,12.9,0,0,1-7.66,4.9l-.93.31a18.88,18.88,0,0,1-1.91.95,18.34,18.34,0,0,1-2.34.92,40,40,0,0,1-12.26,2.4c-1.71.12-3.71.25-5.78.25a32.08,32.08,0,0,1-13.34-2.55c-1.76-.78-6.44-2.85-9.19-7.74a11.2,11.2,0,0,1-.52-1h0a14.23,14.23,0,0,1-.88-2.55,13.83,13.83,0,0,1-7.41-8,19.34,19.34,0,0,1-.15-14.23c.12-.6.26-1.14.39-1.6-.52-1.26-1-2.6-1.54-4.11-.07-.18-.14-.37-.2-.56,0,0-.61-1.85-.78-2.4s-.34-1.1-.5-1.65-.35-1.16-.5-1.73-.74-2.71-.88-3.26L80,261.67l-.28-1.23c-.48-2.05-.94-4.12-1.39-6.19-.35-1.58-.69-3.15-1-4.73l-.68-2.87s-.54-2.19-.69-2.76l-.29-1.1-.47-1.66-.32-1.08c-.15-.51-.83-2.61-.83-2.61-.17-.5-.36-1-.55-1.52l-.36-1c-.2-.53-.43-1.06-.65-1.59l-.35-.85c-.32-.72-.68-1.5-1.06-2.27-.48-.94-1.15-2-1.87-3.19l-.27-.45a89.34,89.34,0,0,0-4.16,9.67c-.76,2.11-1.5,4.34-2.25,6.82l-.39,1.43c-.54,1.87-1.06,3.74-1.54,5.63-1,4.19-2,8.55-2.74,13-1.26,7.15-2.17,13.91.54,18.14.19.29.68.89,1.11,1.41a24.59,24.59,0,0,1,5.17,9c0,.05,0,.1.05.16.68.94,1.3,1.84,1.87,2.68a28.46,28.46,0,0,1,4.56,9.18c2,7.77-1.65,12.19-4,14.13A13.12,13.12,0,0,1,63.05,321,22.27,22.27,0,0,1,53.51,323h-.28c-1.25.05-2.5.09-3.75.09-1,0-2,0-2.93-.08a96.24,96.24,0,0,1-11.25-1.25C30,320.81,23,318.3,19.36,312a16.1,16.1,0,0,1-1.09-1.93,14,14,0,0,1-1.07-3,14.22,14.22,0,0,1-.28-1.54,12.55,12.55,0,0,1-.14-1.44c0-.3,0-.62,0-.95a11.76,11.76,0,0,1-6.13-8.82,18.38,18.38,0,0,1,1.27-10.19l0-.23a10.6,10.6,0,0,1,.23-1.39,10.12,10.12,0,0,1,.27-1.05A13.09,13.09,0,0,1,14,278.14c.81-1.25,1.61-2.27,2.26-3.09.22-.28.5-.63.71-.93q.32-2.94.65-5.88c.47-4.3.94-8.6,1.36-12.9a11.78,11.78,0,0,1-9-5.6c-.56-.9-1.1-1.89-1.61-2.9-.11-.22-.25-.51-.38-.8-.37-.78-.65-1.39-.91-2l-.39-.93c-.29-.73-.5-1.27-.7-1.81l-.66-1.82c0-.1-.42-1.25-.42-1.25-.5-1.5-.92-3-1.28-4.56A11.93,11.93,0,0,1,.9,228.09c-2.47-12.15.59-24.52,3.6-32.77a159.48,159.48,0,0,1,8.4-18.23c1.17-2.27,2.34-4.54,3.44-6.82l.13-.26c3.76-7.73,7.64-15.72,9.86-23.52,1.71-6,2.3-12.6,2.93-19.55l.12-1.37c-.06-1-.13-2-.2-3-.24-3.75-.5-7.62-.57-11.56,0-2.24,0-4.65.09-7.54,0-.17,0-.34,0-.52s0-.32,0-.41c.12-2.93.31-6.07.52-9.2l0-.73a88.59,88.59,0,0,1,2.1-16.16c1.85-7.46,4.82-13.52,8.84-18a27.62,27.62,0,0,1,6.57-5.18c3-1.82,6-3.53,8.89-5.19,2.56-1.46,5.13-2.93,7.66-4.46C70.19,39.45,77.11,34.93,84,30.15A40.86,40.86,0,0,1,97,21.07a31.94,31.94,0,0,1,3.73-1.23c.33-.09.64-.15,1-.21.81-.2,1.68-.37,2.55-.5l.85-.12a35,35,0,0,1,3.82-.27l.23,0a61,61,0,0,1,10.17-.86,67.72,67.72,0,0,1,9.72.73c1,0,2,.08,2.94.14.79.06,1.6.11,2.39.11a4.75,4.75,0,0,0,.87-.05c.91-.18,2.05-.52,3.25-.89A43.1,43.1,0,0,1,147,16a20.33,20.33,0,0,1,2-.1c6.94,0,12.06,3.35,15.44,5.57.93.61,1.82,1.19,2.53,1.57a20.72,20.72,0,0,0,4.5,1.15l1.74.33c3.41.68,6.84,1.35,10.26,2l1.52.29c4.59.87,9.32,1.77,14,3a142.08,142.08,0,0,0,15-3.18l.78-.21c10.8-2.8,22-5.69,33.72-6.84,4.2-.41,8.08-.61,11.84-.61,2.33,0,4.63.08,6.84.24a120.16,120.16,0,0,1,18.19,3c7.78,1.8,15.55,3.79,23.07,5.72,3.61.93,7.22,1.86,10.84,2.76a68.31,68.31,0,0,0,10.38,1.74,25.86,25.86,0,0,1,4.13-14c3.93-6.21,9.54-10.18,15.9-11.3a19.31,19.31,0,0,1,8.92-.38A21.59,21.59,0,0,1,369,11.94a42,42,0,0,1,21.58-7.4c.52,0,1,0,1.55,0,.9,0,1.8,0,2.72.1A28.53,28.53,0,0,1,410.46,0c.66,0,1.33,0,2,.07A28,28,0,0,1,430,7.34a25.23,25.23,0,0,1,5.68,6.51,25.59,25.59,0,0,1,3.78,14.9,45.86,45.86,0,0,1,7.28.62c10.93,1.82,19.25,5.93,24.75,12.22,6.53,7.46,6,13.91,4.37,18-3.28,8.33-11.73,9.68-14.91,10.19-.35.06-.69.1-1,.17A24.4,24.4,0,0,0,454.21,73a15,15,0,0,1,6.86,8.5,18,18,0,0,1,.68,7.35,15.54,15.54,0,0,1,1.69,4.8,14.64,14.64,0,0,1,.13,3.91c0,.24-.05.49-.09.73a14.76,14.76,0,0,1-1.05,3.69l-.31.67a14.12,14.12,0,0,1-2.56,3.63c-.13.14-.36.37-.5.5a13.75,13.75,0,0,1-2.64,1.93c-.64.44-1.22.78-1.66,1l-.57.34a19.63,19.63,0,0,1-3.59,1.78c-.31.41-.64.8-1,1.18s-.63.64-.94.93c-.15.15-.31.3-.48.44s-.31.28-.47.42a12.53,12.53,0,0,1-1.25.92,14.66,14.66,0,0,1-2,1.2,11.49,11.49,0,0,1-1.2.54c-.64.27-1.25.51-1.89.71l-.23.07c-.73.22-1.47.4-2.2.57l-1,.26a29.47,29.47,0,0,1-7.93,1.25h-.77a22.06,22.06,0,0,1-10.13-2.66c-.42,0-.84,0-1.26,0a17.92,17.92,0,0,1-4.4-.55,16.14,16.14,0,0,1-3.78-1.51l-.47-.27a14,14,0,0,1-1.72-1.21c-.3-.23-.59-.48-.87-.74l-.44-.42h-1.63c-.71,0-1.41.08-2.1.13-.85.06-1.77.12-2.73.16a137.08,137.08,0,0,0-13.42,11.14l-1.78,1.7c-5.24,5-10.65,10.24-16.37,15.18-2.12,1.84-4.28,3.62-6.45,5.39-3.85,3.16-7.48,6.14-10.73,9.34a45.07,45.07,0,0,0-5.94,6.66,4.6,4.6,0,0,0-.74,1.48c-.08.44-.13.86-.19,1.28a32.08,32.08,0,0,1-.71,4,58.51,58.51,0,0,1-6.52,16.18c-1.06,1.75-2.18,3.32-3.17,4.71-.47.65-.94,1.31-1.4,2l-.4.59c-.27.39-.63.92-.88,1.31l0,.48a24.78,24.78,0,0,1-1.61,8.1,29.79,29.79,0,0,1-4.38,7.95,36,36,0,0,1-6.69,6.41c-.05.15-.1.31-.14.47s-.13.58-.19.88l-.22,1-.22,1c-.09.41-.2.81-.27,1.22s-.13.89-.18,1.34L317,224l-.16,1c0,.3-.09.59-.12.88-.13,1.39-.2,2.78-.23,4.17a23.42,23.42,0,0,0,.15,3.59,29.28,29.28,0,0,1,.47,8.39,39.74,39.74,0,0,1-1.3,6.25,17.41,17.41,0,0,0-.65,3c.09,6,2,12.45,3.62,17.43a67,67,0,0,0,3,7.94,21.39,21.39,0,0,0,1.6,2.86c.24.35.51.68.78,1,.43.56.93,1.2,1.44,1.93a35.08,35.08,0,0,1,6.83,5c10.15,9.42,8.89,17.16,6.05,22a15.88,15.88,0,0,1-7.7,5.88c-6.61,2.22-14.6,4.51-23.05,4.51h-.62a37.36,37.36,0,0,1-10.4-1.23,15.64,15.64,0,0,1-7.56,4,25.53,25.53,0,0,1-10.49,2.33c-.79,0-1.56.05-2.34.06s-1.67,0-2.51.08C272.05,325.18,270.48,325.26,269,325.26Z"/>
    <g>
      <path class="cls-3" d="M462.92,49.08c-4.43-5.07-11.53-7.4-18.05-8.49s-13.76-.32-19.58,3.24a16.32,16.32,0,0,0-1.89-7.6c2.13-1,3.75-4,4.3-5.92A13.43,13.43,0,0,0,426,19.73a14.56,14.56,0,0,0-3.53-3.89c-2.68-2.8-6.88-4.17-10.7-4.42a17.15,17.15,0,0,0-13.54,5.07,28.89,28.89,0,0,0-7.09-.59c-9.46.4-18.5,6.1-24.26,13.47a18.24,18.24,0,0,1-3.59,3.95,16.19,16.19,0,0,0,.4-9.43c-.89-3.22-4-5.35-7.19-6a7.9,7.9,0,0,0-4.18.33c-3.73.43-6.79,3-8.85,6.27A13.93,13.93,0,0,0,343,39.39a16.33,16.33,0,0,0,4,4.51l-.36.19,0,0c-1.52,0-3.05,0-4.6,0-2.94,0-5.86,0-8.79-.13a83,83,0,0,1-16.7-2.33c-11.23-2.82-22.4-5.83-33.69-8.43a108.47,108.47,0,0,0-16.46-2.71,98.82,98.82,0,0,0-16.76.35c-11.13,1.08-21.93,3.93-32.75,6.73a141.86,141.86,0,0,1-18.58,3.75c-5.54-1.56-11.32-2.61-16.95-3.68q-5.19-1-10.37-2c-3.21-.64-6.45-1.05-9.34-2.58-4.39-2.33-8.13-6.28-13.6-5.76-3.61.34-7,1.9-10.57,2.6-3,.61-6.26,0-9.3,0h0a51.71,51.71,0,0,0-17,0,1,1,0,0,0-.49.23,22.08,22.08,0,0,0-9.36,1.49c-3.75,1.51-7,4.36-10,7.28q-10.76,7.56-22,14.41c-5.44,3.29-11.08,6.29-16.51,9.62a17.06,17.06,0,0,0-4,3.07c-3.27,3.65-5.14,8.58-6.27,13.14a84.39,84.39,0,0,0-1.83,14.91c-.37,5.56-.74,11.13-.64,16.7.1,5,.51,10,.81,15-.73,8-1.31,16.08-3.52,23.87-2.52,8.85-6.66,17.33-10.69,25.63-3.86,7.94-8.38,15.73-11.39,24s-4.89,18-3.14,26.59c.2,1,1.74,0,1.79-.67l0-.43c0,.15,0,.29,0,.43a39.39,39.39,0,0,0,1.85,9.48,44.93,44.93,0,0,0,4,9.18c.32.52,1.45,0,1.3-.54a65.19,65.19,0,0,1-2.14-9.94c-.17-1.89-.34-3.8-.45-5.72a32.64,32.64,0,0,0,1,5.2,26.92,26.92,0,0,0,1.68,4.76,36.61,36.61,0,0,1,2,4,.29.29,0,0,0,.23.18c.29.85.6,1.7.92,2.54s2,0,1.89-.85c-.73-3.88-1.81-7.67-2.3-11.59A60.84,60.84,0,0,1,24,219.71a56.77,56.77,0,0,1,1-6.9,2,2,0,0,0,0,.24c.73,3.5,2,6.93,2.93,10.39q.8,2.91,1.44,5.86A69.33,69.33,0,0,1,30.94,241a102.36,102.36,0,0,1-.51,14.11c-.69,7.39-1.57,14.77-2.35,22.15,0,.11-.07.22-.1.33-.9,2.64-2.92,4.45-4.41,6.74-.54.83-.33,1.36.18,1.71-1.1,1.39-2.47,4.94-1.83,6.56a.57.57,0,0,0,.26.6c1.57.81,3-.17,4.37-1a12.89,12.89,0,0,1,1.39-.82h0c.15.17.3.38.42.5l.14.11a4.41,4.41,0,0,0-.11.86c0,.79.79,1.42,1.25,2,1,1.23.35,3.44-.22,4.67-.8,1.75-1.86,3.75-.94,5.64a5,5,0,0,0,.57.93c1.29,2.68,5.37,4,8.31,4.56a81.77,81.77,0,0,0,9.88,1.08,53.1,53.1,0,0,0,5.5,0,12.82,12.82,0,0,0,5.23-.89,1.93,1.93,0,0,0,1-1.31v0a1.6,1.6,0,0,0,.79-.32c.86-.62.51-1.89.3-2.71a18.37,18.37,0,0,0-2.92-5.53,56.49,56.49,0,0,0-3.42-4.64,2.47,2.47,0,0,0,0-1.47c-.81-2.82-3.37-5-4.92-7.39-5.06-7.88-3.71-17.59-2.18-26.26A171.79,171.79,0,0,1,54,232.39a100,100,0,0,1,5.88-13.23c2.36-4.4,5.19-8.61,7-13.24,0-.08.05-.16.07-.22q1.83-3.15,3.84-6.2A97.93,97.93,0,0,1,81.2,187.14c.88-.95,1.81-1.89,2.77-2.8a65.35,65.35,0,0,1-1.83,6.28c-1.38,3.81-3.78,7.22-5.56,10.86a17.56,17.56,0,0,0-1.26,12.69c1.29,4,4,7.26,5.88,11C89.07,240.8,89.26,258.93,96,275c.2.62.41,1.24.59,1.87.7,2.43-.71,4.5-.86,6.8a.6.6,0,0,0-.18.22,8.09,8.09,0,0,0,0,6.4c.53,1.36,1.42,2.31,2.88,1.51a1.22,1.22,0,0,0,1-.8,2,2,0,0,1,.25-.66.92.92,0,0,1,.47-.24c2-.32,2.9,1.29,3.3,2.81.09.31.17.62.24.94,0,.9.06,1.81.12,2.71l-.06.3-.12.44a3.55,3.55,0,0,0,0,3.12,7.73,7.73,0,0,0,3.87,2.9c4.36,1.93,9,1.7,13.7,1.37a29.62,29.62,0,0,0,8.92-1.64l.46-.18a6.75,6.75,0,0,0,1.33-.51,6,6,0,0,0,1.95-1.16c1.08-.08,2.22-.72,3.28-.88.32-.05,1-.4.9-.81-.82-5.2-6.06-7.75-10.53-9.87a1.27,1.27,0,0,0,.38-1.13c-1-3.41-4.7-6-7.16-8.45a34.79,34.79,0,0,1-7.37-10.72,117.6,117.6,0,0,1-7.92-24.09c-1.66-8.08-2.15-17.5,1-25.35,2.63-6.67,7-12.69,8.52-19.72,2.25,1.31,4-.93,4.72-2.83a10.52,10.52,0,0,0,.3-1.1,9.66,9.66,0,0,0,1,2.69,1.87,1.87,0,0,0,2.26.72c1.2-.34,1.68-1.75,1.92-2.78.29-1.25.44-2.52.74-3.76.2-.78.47-1.74,1.38-2,1.18-.31,2.83.25,4,.33a15.13,15.13,0,0,0,6.05-1.06c1.84-.63,3.25-1.78,4.94-2.65l.1-.06c.89.26,1.78.56,2.65.91a32.66,32.66,0,0,1,5.76,3.27c4.48,3,8.46,6.62,12.94,9.62,4.19,2.81,8.53,4.92,13.77,4.56s8.79-3.95,13-6.72c8.68-5.79,20.11-7,30.28-6.86a59,59,0,0,1,14,2c3.15.82,6.82,2.06,8.33,5.1a10.53,10.53,0,0,1,.8,2c.27,5.55.16,11-.1,16.61-.28,6.14-.77,12.53,0,18.64.36,2.92,2.08,5.17,3.78,7.48l.6.81a55.67,55.67,0,0,1,3,17.57c0,3.15-.08,6.3-.18,9.45-.06,1.59-.14,3.25-.12,4.9-.06.87-.08,1.72-.13,2.51-.07,1.07,0,2.15-.06,3.23-.06,1.81-1.32,2.63-2.07,4.08a4.62,4.62,0,0,0-.54,3.23,9,9,0,0,0-.6,5.95,3.21,3.21,0,0,0,1.4,2.05.93.93,0,0,0,.61.27c1.95.1,3-2.16,3.95-3.5-.06.08,0,.06,0,0,.28.24.53.51.8.76a10.86,10.86,0,0,1-.77,2.06,7.76,7.76,0,0,0-.95,2.47c-.18,1.33-.21,4,1.6,4.14a.54.54,0,0,0,.18,0c1.3,4.91,5,8.28,10.37,9.25a31,31,0,0,0,8.11.16c1.79-.15,3.59-.09,5.38-.17,2-.08,5.64-.36,7.19-2.15a3.76,3.76,0,0,0,3.61-1.15c1.45-1.57.85-3.14-.42-4.57a55.26,55.26,0,0,0-4.86-4.94c-1-.89-2.06-1.73-3.1-2.58-.65-.54-1.29-1.15-2-1.68a1.23,1.23,0,0,0-.14-1.46c-.43-3-3.19-3.53-4.79-5.84a11.12,11.12,0,0,1-1.69-4.94c-.32-1.94-1-3.81-1.47-5.71a76.88,76.88,0,0,1-2.37-12.76,25.89,25.89,0,0,1,0-7c.18-1,.41-2,.65-3,.72-1.37,1.54-2.7,2.36-4.1a18.68,18.68,0,0,0,2.22-10.12c-.14-4.53-.51-9-.49-13.55,0-4.35.06-8.7.29-13a50.18,50.18,0,0,1,1.61-10.15,6.22,6.22,0,0,1,1.27.39c.83.34,1.65.71,2.45,1.11a22.24,22.24,0,0,1,1.1,3.32,35.89,35.89,0,0,1,.91,8.14c.16,6.1-1.13,12.22-.54,18.3.35,3.62,2.13,6.84,3.52,10.15a65.52,65.52,0,0,1,3.62,11.08c1.72,7.7,1.53,15.66,2.28,23.48a23.85,23.85,0,0,0-1.36,3.46,1.66,1.66,0,0,0,.18,1.2c-1,2.2-.21,5.57.75,7.41.31.59.79,1.34,1.48,1.36a1.36,1.36,0,0,0,1.16-.27c.78-.77,1.41-2.08,2.43-2.56l.16,0c.15.24,0,0,.1.24a6.23,6.23,0,0,1,.17.86,7.44,7.44,0,0,0,.71,2.35.71.71,0,0,0,.1.14,23,23,0,0,0-.56,3.58,14.7,14.7,0,0,0,.2,3.25,9.55,9.55,0,0,0,0,1.07,5.21,5.21,0,0,0,.63,2.5,7.36,7.36,0,0,0,1.69,1.22c2.84,1.89,6.63,1.92,10,2,6.84.09,13.59-1.8,20-3.95a1.16,1.16,0,0,0,.58-.46,1.14,1.14,0,0,0,.83-.37c1.59-2.71-2.19-6.22-4-7.89a21.16,21.16,0,0,0-7.58-4.71,1.18,1.18,0,0,0-.11-.75.63.63,0,0,0-.08-.36c-.83-1.43-2-2.65-2.9-4a31.46,31.46,0,0,1-2.48-4.37,75.7,75.7,0,0,1-3.55-9.34c-2.19-6.65-4.08-13.75-4.19-20.8-.06-3.72,1.63-7,2-10.65a19.37,19.37,0,0,0-.38-5.26,31.28,31.28,0,0,1-.3-5.64,60.33,60.33,0,0,1,3.65-20,23.87,23.87,0,0,0,7.37-6.14,19.17,19.17,0,0,0,2.69-5c.86-2.15.73-4.23,1-6.46s1.87-4.38,3.1-6.19c1.4-2.07,2.95-4,4.24-6.18a47.51,47.51,0,0,0,5.23-13.07c.38-1.5.46-3.07.74-4.59a15.53,15.53,0,0,1,2.36-5.56A52.13,52.13,0,0,1,343,148c5.54-5.46,11.84-10.14,17.73-15.23,6.11-5.29,11.87-10.89,17.71-16.49A162.88,162.88,0,0,1,396,101.93l.31,0a71.13,71.13,0,0,0,7.72-.27c1.38-.05,2.77,0,4.14,0,1.66.06,3.29.45,4.93.42,0,.18,0,.36,0,.54a4,4,0,0,0,3.14,3.49,7.81,7.81,0,0,0,3.72-.08,5.09,5.09,0,0,0,.93.13,5.72,5.72,0,0,1,3,1.11,10.48,10.48,0,0,0,5.71,1.65,19.28,19.28,0,0,0,5.77-1c1.67-.44,3.67-.71,5-1.9a5.49,5.49,0,0,0,.82-.77,5.82,5.82,0,0,0,.76-1.07,5.64,5.64,0,0,0,.83-1.62,22.51,22.51,0,0,0,2.92-1.22,6.26,6.26,0,0,0,2.4-1l.21-.13.3-.18A15.75,15.75,0,0,0,450.47,99a3.09,3.09,0,0,0,1.75-3.43c-.33-1.95-2.55-3.43-2.45-5.48l.1-.22a7.35,7.35,0,0,0,.34-5c-.54-1.73-2.41-2.53-4-3-.84-.21-1.69-.38-2.55-.56h0c-1.71-1.74-3.69-3.14-5.33-5-1.77-2-3.31-4.18-4.91-6.31-.61-.81-1.24-1.62-1.86-2.43a15,15,0,0,0,5.3,1.19,12.32,12.32,0,0,0,5.93-2.06c4.65-2.67,9-6.39,14.27-7.83,2.51-.69,7-.51,8.22-3.53C466.19,53.1,464.34,50.7,462.92,49.08ZM42.46,171.2c-.43,7.71-1.78,15.68-5.93,22.47-2,3.32-4.93,5.73-7.86,8.3-.21.19-.41.37-.6.56q.87-2.25,1.89-4.47c3.15-6.88,6.76-13.55,9.62-20.56,1.15-2.81,2.06-5.68,3-8.57C42.53,169.69,42.5,170.44,42.46,171.2ZM356.18,33.3A4,4,0,0,1,354.25,30c-.07-2,2-2.51,3.48-1.56,1.77,1.15,2.66,3.81,2.67,5.9A7.58,7.58,0,0,1,356.18,33.3Zm58.44-8.16a39,39,0,0,0-4.1-3.25,17.61,17.61,0,0,1,3.05,1.25,4.5,4.5,0,0,1,2,2.88C415.24,25.72,414.93,25.42,414.62,25.14Z"/>
      <path class="cls-4" d="M292,227.37c-.87,14.91,4.32,30.22-3.14,44.44.17,3,.32,5.95.6,8.91a23.85,23.85,0,0,0-1.36,3.46,1.66,1.66,0,0,0,.18,1.2c-1,2.2-.21,5.57.75,7.41.31.59.79,1.34,1.48,1.36a1.36,1.36,0,0,0,1.16-.27c.78-.77,1.41-2.08,2.43-2.56l.16,0c.15.24,0,0,.1.24a6.23,6.23,0,0,1,.17.86,7.44,7.44,0,0,0,.71,2.35.71.71,0,0,0,.1.14,23,23,0,0,0-.56,3.58,14.7,14.7,0,0,0,.2,3.25,9.55,9.55,0,0,0,0,1.07,5.21,5.21,0,0,0,.63,2.5,7.36,7.36,0,0,0,1.69,1.22c2.84,1.89,6.63,1.92,10,2,6.84.09,13.59-1.8,20-3.95a1.16,1.16,0,0,0,.58-.46,1.14,1.14,0,0,0,.83-.37c1.59-2.71-2.19-6.22-4-7.89a21.16,21.16,0,0,0-7.58-4.71,1.18,1.18,0,0,0-.11-.75.63.63,0,0,0-.08-.36c-.83-1.43-2-2.65-2.9-4a31.46,31.46,0,0,1-2.48-4.37,75.7,75.7,0,0,1-3.55-9.34c-2.19-6.65-4.08-13.75-4.19-20.8-.06-3.72,1.63-7,2-10.65a19.37,19.37,0,0,0-.38-5.26,31.28,31.28,0,0,1-.3-5.64,60.42,60.42,0,0,1,3.63-20,70.19,70.19,0,0,1-12.51,4.66C292.9,216,292,222.63,292,227.37Z"/>
      <g>
        <path class="cls-5" d="M258.29,258.66c-2.37-10-10.91-17.54-7.59-28,2.37-9,6.17-18,2.85-26.55-8.54-20.39-1-40.3-5.69-60.22-1.42-4.26-9,2.37-11.85,6.17-7.12,9-12.33,19.91-22.76,23.23-24.18,8.06-48.36-4.74-69.7-18.49-22.28-14.22-56.42-10.43-68.27,13.27-12.79,25.2-22.1,52-25.84,79.58A150.48,150.48,0,0,1,54,232.39a100,100,0,0,1,5.88-13.23c2.36-4.4,5.19-8.61,7-13.24,0-.08.05-.16.07-.22q1.83-3.15,3.84-6.2A97.93,97.93,0,0,1,81.2,187.14c.88-.95,1.81-1.89,2.77-2.8a65.35,65.35,0,0,1-1.83,6.28c-1.38,3.81-3.78,7.22-5.56,10.86a17.56,17.56,0,0,0-1.26,12.69c1.29,4,4,7.26,5.88,11,7.1,14.13,8,30.27,13,45.06.65-13.95-2.76-27.53-4.22-41.4-1.9-16.59,1.89-37.93,19.91-42.67,9.23-2.31,17.44.1,24.27,5.15a22.79,22.79,0,0,0,3.17-.88c1.84-.63,3.25-1.78,4.94-2.65l.1-.06c.89.26,1.78.56,2.65.91a32.66,32.66,0,0,1,5.76,3.27c4.48,3,8.46,6.62,12.94,9.62,4.19,2.81,8.53,4.92,13.77,4.56s8.79-3.95,13-6.72c8.68-5.79,20.11-7,30.28-6.86a59,59,0,0,1,14,2c3.15.82,6.82,2.06,8.33,5.1a10.53,10.53,0,0,1,.8,2c.27,5.55.16,11-.1,16.61-.28,6.14-.77,12.53,0,18.64.36,2.92,2.08,5.17,3.78,7.48l.6.81a55.67,55.67,0,0,1,3,17.57c0,3.15-.08,6.3-.18,9.45-.06,1.59-.14,3.25-.12,4.9-.06.87-.08,1.72-.13,2.51-.07,1.07,0,2.15-.06,3.23-.06,1.81-1.32,2.63-2.07,4.08a4.62,4.62,0,0,0-.54,3.23,8.45,8.45,0,0,0-.75,5c1.84-3.25,3.7-6.49,5.29-9.83C256.87,276.68,260.19,268.14,258.29,258.66Z"/>
        <path class="cls-5" d="M411,94.14c-.95-1-2.85-1-3.8-1.9a19.76,19.76,0,0,0-4.26-2.37c-7.11-2.84-14.7-3.31-21.34-7.11-5.69-2.84-6.64-10-10.9-14.7-2.85,8.54.95,17.07.47,25.61-.95,17.54-14.7,27.5-28.92,34.61-4.27,1.89-10.43-4.74-12.33.95-1.89,4.74.95,10,1.42,15.17,1.43,12.33-13.74,16.59-19.43,25.6-2.37,3.79-4.27,7.59-7.12,10.91-5.69,7.11-15.17,3.79-21.81,7.58-7.24,4.14-9,12-9,20.07.24-1.28.52-2.55.86-3.81a6.22,6.22,0,0,1,1.27.39c.83.34,1.65.71,2.45,1.11a22.24,22.24,0,0,1,1.1,3.32,35.89,35.89,0,0,1,.91,8.14c.16,6.1-1.13,12.22-.54,18.3.35,3.62,2.13,6.84,3.52,10.15a65.52,65.52,0,0,1,3.62,11.08,90.07,90.07,0,0,1,1.68,14.57c7.46-14.22,2.27-29.53,3.14-44.44,0-4.74.95-11.38,4.27-12.8a70.19,70.19,0,0,0,12.51-4.66.25.25,0,0,1,0-.07,23.87,23.87,0,0,0,7.37-6.14,19.17,19.17,0,0,0,2.69-5c.86-2.15.73-4.23,1-6.46s1.87-4.38,3.1-6.19c1.4-2.07,2.95-4,4.24-6.18a47.51,47.51,0,0,0,5.23-13.07c.38-1.5.46-3.07.74-4.59a15.53,15.53,0,0,1,2.36-5.56A52.13,52.13,0,0,1,343,148c5.54-5.46,11.84-10.14,17.73-15.23,6.11-5.29,11.87-10.89,17.71-16.49A162.88,162.88,0,0,1,396,101.93l.31,0a71.13,71.13,0,0,0,7.72-.27c1.38-.05,2.77,0,4.14,0,1.66.06,3.29.45,4.93.42,0,.18,0,.36,0,.54a3.79,3.79,0,0,0,1.88,3C416.23,101.32,415.67,97.28,411,94.14Z"/>
        <path class="cls-5" d="M54.89,74.7c8.54-7.58,20.39-9,28.92-17.07,8.15-8.55,13.5-19.55,22.36-27.29a20.74,20.74,0,0,0-4.93,1.29c-3.75,1.51-7,4.36-10,7.28q-10.76,7.56-22,14.41c-5.44,3.29-11.08,6.29-16.51,9.62a17.06,17.06,0,0,0-4,3.07c-3.27,3.65-5.14,8.58-6.27,13.14a84.39,84.39,0,0,0-1.83,14.91c-.21,3.13-.42,6.26-.54,9.39C42.51,92.53,46.12,82.22,54.89,74.7Z"/>
        <path class="cls-5" d="M33.08,276.68c5.69-19,1.9-37.93,2.37-56.42,0-13.75,12.8-23.71,16.6-37.46,4.74-18.49-3.32-35.56-7.59-52.63,0,10.91,1.42,21.34-4.74,31.3-14.78,22.74-28,48.81-23.57,74.34a41,41,0,0,0,3.58,8c.32.52,1.45,0,1.3-.54a65.19,65.19,0,0,1-2.14-9.94c-.17-1.89-.34-3.8-.45-5.72a32.64,32.64,0,0,0,1,5.2,26.92,26.92,0,0,0,1.68,4.76,36.61,36.61,0,0,1,2,4,.29.29,0,0,0,.23.18c.29.85.6,1.7.92,2.54s2,0,1.89-.85c-.73-3.88-1.81-7.67-2.3-11.59A60.84,60.84,0,0,1,24,219.71a56.77,56.77,0,0,1,1-6.9,2,2,0,0,0,0,.24c.73,3.5,2,6.93,2.93,10.39q.8,2.91,1.44,5.86A69.33,69.33,0,0,1,30.94,241a102.36,102.36,0,0,1-.51,14.11c-.69,7.39-1.57,14.77-2.35,22.15,0,.11-.07.22-.1.33-.9,2.64-2.92,4.45-4.41,6.74a1.59,1.59,0,0,0-.31.93C27.72,283.76,31.67,281.49,33.08,276.68ZM28.67,202c-.21.19-.41.37-.6.56q.87-2.25,1.89-4.47c3.15-6.88,6.76-13.55,9.62-20.56,1.15-2.81,2.06-5.68,3-8.57,0,.76,0,1.51-.09,2.27-.43,7.71-1.78,15.68-5.93,22.47C34.5,197,31.6,199.4,28.67,202Z"/>
      </g>
      <g>
        <path class="cls-6" d="M432.11,68.34c-3.51-4.25-8.35-7.72-10.78-12.77-4.25-8.82.14-19.75-5.32-28.06-6.19-9.43-19.74-11.09-29.85-8.73a22.1,22.1,0,0,0-9.26,4.86,11.4,11.4,0,0,0-2.74,2.76c-4.69,7.92,13,2.48,17.22,4.1,11.56,4.44,14,11.58,16,22.92,1,5.83,3.28,7,7.84,10.4,7.05,5.28,13.46,11.82,21.25,16-.18-.41-.34-.81-.48-1.23C434.76,75.12,434.59,71.35,432.11,68.34Z"/>
        <path class="cls-6" d="M336.9,48.31c-8-.1-16.28-.15-24.23-1.46-3.47-.57-7-.91-10.43-1.59-3.94-.78-7.68-2.73-11.5-4-3.6-1.18-7.12-2.55-10.65-4-3.78-1.49-8.39-1.69-12.4-2.09-7.19-.71-14.65-.07-21.81.76a199.1,199.1,0,0,0-21.67,3.89c-3.32.76-6.59,1.7-9.94,2.32-3.72.69-7.48,1-11.24,1.47-7.17.82-14.44,1-21.57,2.07s-13.88,3.35-20.62,5.59a63.43,63.43,0,0,1-24.7,2.93,49.86,49.86,0,0,1-11.54-2.32c-3.74-1.22-7.37-2.76-11.23-3.59-9.82-2.08-17.32,4.2-24.07,10.41q-4.35,4-8.65,8.08c-6.17,3.57-12.42,6.9-16.26,13.23-4.88,8-5.09,18-6.32,27.08-.83,6.19.79,12.26,2.42,18.17.71,2.58,6.79-.06,7.11-2.07,3-19,13.94-33.83,29.86-44.4,9.53-6.32,21.27-9.42,32.33-12.94,1.33-.43,2.65-.86,4-1.31.57,0,1.14.06,1.71.08a48.1,48.1,0,0,0-7.28,5.37,45.64,45.64,0,0,0-12.63,17.64c-2.13,5.69-4.33,17.48-1.38,23.21,4.48,8.68,17.76-11.86,24.42-10.83,7.19,1.12,13.34,5.23,20.86,5.17,7.26-.06,15.12-2.6,21.74-5.44,13.88-6,25.48-16.44,38.12-24.5,22.64-14.45,47.25-13.46,73-14,13-.27,27.78-1.7,38.35-10a3,3,0,0,0-.55-.66c3-.27,5.92-.59,8.9-.7C340.74,49.82,337.6,48.32,336.9,48.31Z"/>
        <path class="cls-6" d="M182.37,179.94c-5.3-.91-10.32-1.33-15.41-3.21-4.2-1.54-8.36-2.75-12.34-4.85-8.24-4.35-16.5-8.69-24.82-12.88-7.6-3.83-15.8-6.44-24.37-6.53-5.19-.05-10.7,1.56-15.52,3.33a38.07,38.07,0,0,0-5.36,2.45c-1.59.9-2.85,2.55-4.34,3.62-.17.13,1.12,1.23,1.45,1.12a23.37,23.37,0,0,0,5.6-2.34,15.18,15.18,0,0,1,9.43-2.37A66.09,66.09,0,0,1,109,160.17a87.37,87.37,0,0,1,10.86,3.7c3.6,1.4,7.45,2.12,11.11,3.35,8.09,2.73,15.7,6.59,23.88,9.1a106.71,106.71,0,0,0,15.09,3.35c2.26.35,4.53.64,6.8.91a25.93,25.93,0,0,0,6.75.35C183.64,180.89,182.64,180,182.37,179.94Z"/>
      </g>
      <path class="cls-7" d="M89.34,178.22s7.27-9.33,25.76-4.9A214.37,214.37,0,0,1,147,183.57a16.75,16.75,0,0,1-7.47,5.37c-4.54,1.45-8.72.73-11.06,1.45s-3.45.83-3.84,3.34.07,5.61-1.25,5.19a5.25,5.25,0,0,1-2.24-1.32,30.71,30.71,0,0,1-.85-4s-.8,4.81-2.13,5.41a3.85,3.85,0,0,1-2.77,0l-.63-3.51V191l-1-2.66-2.21-.42-.69,4.69-.32,3.32a1.51,1.51,0,0,1-2.19,1.27c-2-.71-3-8.22-3-8.22l-1.11-1.12s-.78-.46-.78,0v4.58L102.4,197l-2.75,1.59-1.89-1.89s-3.09-7.11-3.22-10-1.39-5.23-2.42-5.7S89.34,178.22,89.34,178.22Z"/>
      <path class="cls-8" d="M365.88,30.61a13,13,0,0,1-2.64,2.71,16.19,16.19,0,0,0,.4-9.43c-.89-3.22-4-5.35-7.19-6a7.9,7.9,0,0,0-4.18.33c-3.73.43-6.79,3-8.85,6.27A13.93,13.93,0,0,0,343,39.39a16.33,16.33,0,0,0,4,4.51l-.36.19,0,0h-.07a28.54,28.54,0,0,0,12.25,1.67c4.75,0,10,0,13.28-3.79.28-.36.54-.74.79-1.12A14.57,14.57,0,0,0,365.88,30.61Zm-9.7,2.69A4,4,0,0,1,354.25,30c-.07-2,2-2.51,3.48-1.56,1.77,1.15,2.66,3.81,2.67,5.9A7.58,7.58,0,0,1,356.18,33.3Z"/>
      <path class="cls-9" d="M380.85,48.15s3.71-2.81,6.8-2.12,7.23,5,7.23,5a30.71,30.71,0,0,1-3.44,1.42c-1.7.55-5.1-.28-6.48-1.23S380.85,48.15,380.85,48.15Z"/>
      <path class="cls-7" d="M334.66,82.92a81.27,81.27,0,0,1,10.59-18.11c6.85-8.69,10-11.75,14.88-11.8s7.74-.19,8.66-1.11,1.83,2.44,2.22,7.26-.59,18-6.36,21.75-10.92,2.48-14.15,2a29.41,29.41,0,0,0-9.43.61c-2.5.5-5.12,2.16-5.86,1.42A2.7,2.7,0,0,1,334.66,82.92Z"/>
      <path class="cls-7" d="M462.92,49.08c-4.43-5.07-11.53-7.4-18.05-8.49s-13.76-.32-19.58,3.24c0-.23,0-.46,0-.69-6.46,9.49-.21,18.86,6.92,25.38-.21-.29-.43-.57-.65-.86a15,15,0,0,0,5.3,1.19,12.32,12.32,0,0,0,5.93-2.06c4.65-2.67,9-6.39,14.27-7.83,2.51-.69,7-.51,8.22-3.53C466.19,53.1,464.34,50.7,462.92,49.08Z"/>
      <path class="cls-10" d="M452.22,95.57c-.33-1.95-2.55-3.43-2.45-5.48l.1-.22a7.35,7.35,0,0,0,.34-5c-.54-1.73-2.41-2.53-4-3-.84-.21-1.69-.38-2.55-.56h0l-.48-.47c-12.53,1.9-31.71-.44-26.05,16.55,0,1-.47,2.84-.95,2.84a12.28,12.28,0,0,0-2.91,3,4.08,4.08,0,0,0,3,2.88,7.81,7.81,0,0,0,3.72-.08,5.09,5.09,0,0,0,.93.13,5.72,5.72,0,0,1,3,1.11,10.48,10.48,0,0,0,5.71,1.65,19.28,19.28,0,0,0,5.77-1c1.67-.44,3.67-.71,5-1.9a5.49,5.49,0,0,0,.82-.77,5.82,5.82,0,0,0,.76-1.07,5.64,5.64,0,0,0,.83-1.62,22.51,22.51,0,0,0,2.92-1.22,6.26,6.26,0,0,0,2.4-1l.21-.13.3-.18A15.75,15.75,0,0,0,450.47,99,3.09,3.09,0,0,0,452.22,95.57Z"/>
      <path class="cls-11" d="M60.07,306.43a18.37,18.37,0,0,0-2.92-5.53,56.49,56.49,0,0,0-3.42-4.64,2.37,2.37,0,0,0,0-1.25l-.28.16c-7.78,3.5-17.47,3.18-25.15,7.13a4,4,0,0,0,.19,2.83,5,5,0,0,0,.57.93c1.29,2.68,5.37,4,8.31,4.56a81.77,81.77,0,0,0,9.88,1.08,53.1,53.1,0,0,0,5.5,0,12.82,12.82,0,0,0,5.23-.89,1.93,1.93,0,0,0,1-1.31v0a1.6,1.6,0,0,0,.79-.32C60.63,308.52,60.28,307.25,60.07,306.43Z"/>
      <path class="cls-11" d="M29.29,286.64a5.92,5.92,0,0,0-6-1.58,1,1,0,0,0,.49.94c-1.1,1.39-2.47,4.94-1.83,6.56a.57.57,0,0,0,.26.6c1.57.81,3-.17,4.37-1a12.89,12.89,0,0,1,1.39-.82h0c.15.17.3.38.42.5l.14.11a4.41,4.41,0,0,0-.11.86.88.88,0,0,0,0,.16C29.68,290.9,30.89,288.87,29.29,286.64Z"/>
      <path class="cls-11" d="M253.3,304a1.48,1.48,0,0,0,.82.33.54.54,0,0,0,.18,0c1.3,4.91,5,8.28,10.37,9.25a31,31,0,0,0,8.11.16c1.79-.15,3.59-.09,5.38-.17,2-.08,5.64-.36,7.19-2.15a3.76,3.76,0,0,0,3.61-1.15c1.45-1.57.85-3.14-.42-4.57a55.26,55.26,0,0,0-4.86-4.94c-1-.89-2.06-1.73-3.1-2.58-.65-.54-1.29-1.15-2-1.68a1.26,1.26,0,0,0-.06-1.36c-6.34,2.79-14.33,2.29-21.21,4.82A6.32,6.32,0,0,0,253.3,304Z"/>
      <path class="cls-11" d="M295.27,286.16a6.77,6.77,0,0,0-7-2.87,6.92,6.92,0,0,0-.25.89,1.66,1.66,0,0,0,.18,1.2c-1,2.2-.21,5.57.75,7.41.31.59.79,1.34,1.48,1.36a1.36,1.36,0,0,0,1.16-.27c.78-.77,1.41-2.08,2.43-2.56l.16,0c.15.24,0,0,.1.24a6.23,6.23,0,0,1,.17.86.59.59,0,0,0,0,.13C295.79,290.5,296.64,288.21,295.27,286.16Z"/>
      <path class="cls-11" d="M324.65,295.78a21.16,21.16,0,0,0-7.58-4.71c0-.1,0-.2,0-.3-5.6,3.87-11.71,7.14-19,5.82a6.86,6.86,0,0,0-3.18.08,11.84,11.84,0,0,0-.21,1.78,14.7,14.7,0,0,0,.2,3.25,9.55,9.55,0,0,0,0,1.07,5.21,5.21,0,0,0,.63,2.5,7.36,7.36,0,0,0,1.69,1.22c2.84,1.89,6.63,1.92,10,2,6.84.09,13.59-1.8,20-3.95a1.16,1.16,0,0,0,.58-.46,1.14,1.14,0,0,0,.83-.37C330.22,301,326.44,297.45,324.65,295.78Z"/>
      <path class="cls-11" d="M102.3,286.64a5.41,5.41,0,0,0-6.16-3.32l-.38.14a1.1,1.1,0,0,1,0,.18.6.6,0,0,0-.18.22,8.09,8.09,0,0,0,0,6.4c.53,1.36,1.42,2.31,2.88,1.51a1.22,1.22,0,0,0,1-.8,2,2,0,0,1,.25-.66.92.92,0,0,1,.47-.24,2.38,2.38,0,0,1,2.07.56A7.12,7.12,0,0,0,102.3,286.64Z"/>
      <path class="cls-11" d="M103.63,300.31l0,.08a7.73,7.73,0,0,0,3.87,2.9c4.36,1.93,9,1.7,13.7,1.37a29.62,29.62,0,0,0,8.92-1.64l.46-.18a6.75,6.75,0,0,0,1.33-.51,6,6,0,0,0,1.95-1.16c1.08-.08,2.22-.72,3.28-.88.32-.05,1-.4.9-.81-.82-5.2-6.06-7.75-10.53-9.87,0,0,0,0,0,0-4.18,2.07-10.29,1.54-14.85,2.75C108.39,293.41,105.71,296.71,103.63,300.31Z"/>
      <path class="cls-8" d="M423.66,36.08c2-1.13,3.51-4,4-5.77A13.43,13.43,0,0,0,426,19.73a14.56,14.56,0,0,0-3.53-3.89c-2.68-2.8-6.88-4.17-10.7-4.42a17.15,17.15,0,0,0-13.54,5.07l-.74-.14C407.72,20.84,418,26.51,423.66,36.08Zm-9-10.94a39,39,0,0,0-4.1-3.25,17.61,17.61,0,0,1,3.05,1.25,4.5,4.5,0,0,1,2,2.88C415.24,25.72,414.93,25.42,414.62,25.14Z"/>
      <path class="cls-12" d="M367.35,38.08a11.2,11.2,0,0,0-4.28-.08c-2.71.33-4.93.15-7.17-1.7a11.43,11.43,0,0,1-4-8.45c-.06-2.07.34-6.58,2.93-6.33.5.05-.88-1.23-1.22-1.32-4.76-1.27-7.73,6.3-6.49,10.82,2.15,7.89,9.2,10.4,15.74,9.74,1.35-.13,2.63-.37,4-.61.64-.11,1.71,0,2.24-.52C369.81,39,367.59,38.14,367.35,38.08Z"/>
      <path class="cls-12" d="M423.63,25.62a45,45,0,0,0-2.41-7.71,16.45,16.45,0,0,0-3.3-2.88l-.07,0a23,23,0,0,0-3.75-1.15.11.11,0,0,1-.13.09,23.91,23.91,0,0,0-6.38-.19,1.08,1.08,0,0,0-.24.18,1.61,1.61,0,0,0-.21.49c3.31-.18,6.53.6,8.63,3.3a6.65,6.65,0,0,1,1.45,1.64,19.65,19.65,0,0,1,1.85,5c.5,1.9.63,2.37,2.58,3a11.25,11.25,0,0,0,1.28.33c.16-.16.3-.32.45-.49a12.08,12.08,0,0,0,.28-1.48Z"/>
      <g>
        <path class="cls-13" d="M358.68,78c0,.92,1.7.3,1.78-.42a29.17,29.17,0,0,1,3.28-10,23.48,23.48,0,0,1,3.06-4.52c.47-.54,1.08-1.67.8-2.39a.84.84,0,0,0-.13-.33c-.15-.29-.24-.42-.26-.4a1.91,1.91,0,0,0-.38-.7,4,4,0,0,0-2-1,8.19,8.19,0,0,0-4,.14,19.72,19.72,0,0,0-8,4.28A35.15,35.15,0,0,0,342.42,76c-.13.31.61.31.75.12a44.92,44.92,0,0,1,10.66-9.58,27.61,27.61,0,0,1,5.05-2.71l-.5.59c-2.81,3.41-4.1,7.46-5.95,11.37-.43.91,1.36.57,1.69.06,1.72-2.64,3.86-5,5.8-7.54.4-.51.83-1,1.27-1.46-.07.16-.13.31-.19.43A24.58,24.58,0,0,0,358.68,78Z"/>
        <path class="cls-13" d="M432.69,90.84c-.91-.27-2.31,0-2.84-.85s-.81-2-1.46-2.81c-.09-.12-.47-.13-.54,0a5.25,5.25,0,0,0,1.41,5.71,14.56,14.56,0,0,0,2.47,1.31,7.44,7.44,0,0,1,2.49,2.24c1.14,1.3,3.2-.47,2.74-1.92A6.08,6.08,0,0,0,432.69,90.84Z"/>
        <path class="cls-13" d="M462.92,49.08c-4.43-5.07-11.53-7.4-18.05-8.49s-13.76-.32-19.58,3.24a16.32,16.32,0,0,0-1.89-7.6c2.13-1,3.75-4,4.3-5.92A13.43,13.43,0,0,0,426,19.73a14.56,14.56,0,0,0-3.53-3.89c-2.68-2.8-6.88-4.17-10.7-4.42a17.15,17.15,0,0,0-13.54,5.07,28.89,28.89,0,0,0-7.09-.59c-9.46.4-18.5,6.1-24.26,13.47a18.24,18.24,0,0,1-3.59,3.95,16.19,16.19,0,0,0,.4-9.43c-.89-3.22-4-5.35-7.19-6a7.9,7.9,0,0,0-4.18.33c-3.73.43-6.79,3-8.85,6.27A13.93,13.93,0,0,0,343,39.39a16.33,16.33,0,0,0,4,4.51l-.36.19,0,0c-1.52,0-3.05,0-4.6,0-2.94,0-5.86,0-8.79-.13a83,83,0,0,1-16.7-2.33c-11.23-2.82-22.4-5.83-33.69-8.43a108.47,108.47,0,0,0-16.46-2.71,98.82,98.82,0,0,0-16.76.35c-11.13,1.08-21.93,3.93-32.75,6.73a141.86,141.86,0,0,1-18.58,3.75c-5.54-1.56-11.32-2.61-16.95-3.68q-5.19-1-10.37-2c-3.21-.64-6.45-1.05-9.34-2.58-4.39-2.33-8.13-6.28-13.6-5.76-3.61.34-7,1.9-10.57,2.6-3,.61-6.26,0-9.3,0h0a51.71,51.71,0,0,0-17,0,1,1,0,0,0-.49.23,22.08,22.08,0,0,0-9.36,1.49c-3.75,1.51-7,4.36-10,7.28q-10.76,7.56-22,14.41c-5.44,3.29-11.08,6.29-16.51,9.62a17.06,17.06,0,0,0-4,3.07c-3.27,3.65-5.14,8.58-6.27,13.14a84.39,84.39,0,0,0-1.83,14.91c-.37,5.56-.74,11.13-.64,16.7.1,5,.51,10,.81,15-.73,8-1.31,16.08-3.52,23.87-2.52,8.85-6.66,17.33-10.69,25.63-3.86,7.94-8.38,15.73-11.39,24s-4.89,18-3.14,26.59c.2,1,1.74,0,1.79-.67l0-.43c0,.15,0,.29,0,.43a39.39,39.39,0,0,0,1.85,9.48,44.93,44.93,0,0,0,4,9.18c.32.52,1.45,0,1.3-.54a65.19,65.19,0,0,1-2.14-9.94c-.17-1.89-.34-3.8-.45-5.72a32.64,32.64,0,0,0,1,5.2,26.92,26.92,0,0,0,1.68,4.76,36.61,36.61,0,0,1,2,4,.29.29,0,0,0,.23.18c.29.85.6,1.7.92,2.54s2,0,1.89-.85c-.73-3.88-1.81-7.67-2.3-11.59A60.84,60.84,0,0,1,24,219.71a56.77,56.77,0,0,1,1-6.9,2,2,0,0,0,0,.24c.73,3.5,2,6.93,2.93,10.39q.8,2.91,1.44,5.86A69.33,69.33,0,0,1,30.94,241a102.36,102.36,0,0,1-.51,14.11c-.69,7.39-1.57,14.77-2.35,22.15,0,.11-.07.22-.1.33-.9,2.64-2.92,4.45-4.41,6.74-.54.83-.33,1.36.18,1.71-1.1,1.39-2.47,4.94-1.83,6.56a.57.57,0,0,0,.26.6c1.57.81,3-.17,4.37-1a12.89,12.89,0,0,1,1.39-.82h0c.15.17.3.38.42.5l.14.11a4.41,4.41,0,0,0-.11.86c0,.79.79,1.42,1.25,2,1,1.23.35,3.44-.22,4.67-.8,1.75-1.86,3.75-.94,5.64a5,5,0,0,0,.57.93c1.29,2.68,5.37,4,8.31,4.56a81.77,81.77,0,0,0,9.88,1.08,53.1,53.1,0,0,0,5.5,0,12.82,12.82,0,0,0,5.23-.89,1.93,1.93,0,0,0,1-1.31v0a1.6,1.6,0,0,0,.79-.32c.86-.62.51-1.89.3-2.71a18.37,18.37,0,0,0-2.92-5.53,56.49,56.49,0,0,0-3.42-4.64,2.47,2.47,0,0,0,0-1.47c-.81-2.82-3.37-5-4.92-7.39-5.06-7.88-3.71-17.59-2.18-26.26A171.79,171.79,0,0,1,54,232.39a100,100,0,0,1,5.88-13.23c2.36-4.4,5.19-8.61,7-13.24,0-.08.05-.16.07-.22q1.83-3.15,3.84-6.2A97.93,97.93,0,0,1,81.2,187.14c.88-.95,1.81-1.89,2.77-2.8a65.35,65.35,0,0,1-1.83,6.28c-1.38,3.81-3.78,7.22-5.56,10.86a17.56,17.56,0,0,0-1.26,12.69c1.29,4,4,7.26,5.88,11C89.07,240.8,89.26,258.93,96,275c.2.62.41,1.24.59,1.87.7,2.43-.71,4.5-.86,6.8a.6.6,0,0,0-.18.22,8.09,8.09,0,0,0,0,6.4c.53,1.36,1.42,2.31,2.88,1.51a1.22,1.22,0,0,0,1-.8,2,2,0,0,1,.25-.66.92.92,0,0,1,.47-.24c2-.32,2.9,1.29,3.3,2.81.09.31.17.62.24.94,0,.9.06,1.81.12,2.71l-.06.3-.12.44a3.55,3.55,0,0,0,0,3.12,7.73,7.73,0,0,0,3.87,2.9c4.36,1.93,9,1.7,13.7,1.37a29.62,29.62,0,0,0,8.92-1.64l.46-.18a6.75,6.75,0,0,0,1.33-.51,6,6,0,0,0,1.95-1.16c1.08-.08,2.22-.72,3.28-.88.32-.05,1-.4.9-.81-.82-5.2-6.06-7.75-10.53-9.87a1.27,1.27,0,0,0,.38-1.13c-1-3.41-4.7-6-7.16-8.45a34.79,34.79,0,0,1-7.37-10.72,117.6,117.6,0,0,1-7.92-24.09c-1.66-8.08-2.15-17.5,1-25.35,2.63-6.67,7-12.69,8.52-19.72,2.25,1.31,4-.93,4.72-2.83a10.52,10.52,0,0,0,.3-1.1,9.66,9.66,0,0,0,1,2.69,1.87,1.87,0,0,0,2.26.72c1.2-.34,1.68-1.75,1.92-2.78.29-1.25.44-2.52.74-3.76.2-.78.47-1.74,1.38-2,1.18-.31,2.83.25,4,.33a15.13,15.13,0,0,0,6.05-1.06c1.84-.63,3.25-1.78,4.94-2.65l.1-.06c.89.26,1.78.56,2.65.91a32.66,32.66,0,0,1,5.76,3.27c4.48,3,8.46,6.62,12.94,9.62,4.19,2.81,8.53,4.92,13.77,4.56s8.79-3.95,13-6.72c8.68-5.79,20.11-7,30.28-6.86a59,59,0,0,1,14,2c3.15.82,6.82,2.06,8.33,5.1a10.53,10.53,0,0,1,.8,2c.27,5.55.16,11-.1,16.61-.28,6.14-.77,12.53,0,18.64.36,2.92,2.08,5.17,3.78,7.48l.6.81a55.67,55.67,0,0,1,3,17.57c0,3.15-.08,6.3-.18,9.45-.06,1.59-.14,3.25-.12,4.9-.06.87-.08,1.72-.13,2.51-.07,1.07,0,2.15-.06,3.23-.06,1.81-1.32,2.63-2.07,4.08a4.62,4.62,0,0,0-.54,3.23,9,9,0,0,0-.6,5.95,3.21,3.21,0,0,0,1.4,2.05.93.93,0,0,0,.61.27c1.95.1,3-2.16,3.95-3.5-.06.08,0,.06,0,0,.28.24.53.51.8.76a10.86,10.86,0,0,1-.77,2.06,7.76,7.76,0,0,0-.95,2.47c-.18,1.33-.21,4,1.6,4.14a.54.54,0,0,0,.18,0c1.3,4.91,5,8.28,10.37,9.25a31,31,0,0,0,8.11.16c1.79-.15,3.59-.09,5.38-.17,2-.08,5.64-.36,7.19-2.15a3.76,3.76,0,0,0,3.61-1.15c1.45-1.57.85-3.14-.42-4.57a55.26,55.26,0,0,0-4.86-4.94c-1-.89-2.06-1.73-3.1-2.58-.65-.54-1.29-1.15-2-1.68a1.23,1.23,0,0,0-.14-1.46c-.43-3-3.19-3.53-4.79-5.84a11.12,11.12,0,0,1-1.69-4.94c-.32-1.94-1-3.81-1.47-5.71a76.88,76.88,0,0,1-2.37-12.76,25.89,25.89,0,0,1,0-7c.18-1,.41-2,.65-3,.72-1.37,1.54-2.7,2.36-4.1a18.68,18.68,0,0,0,2.22-10.12c-.14-4.53-.51-9-.49-13.55,0-4.35.06-8.7.29-13a50.18,50.18,0,0,1,1.61-10.15,6.22,6.22,0,0,1,1.27.39c.83.34,1.65.71,2.45,1.11a22.24,22.24,0,0,1,1.1,3.32,35.89,35.89,0,0,1,.91,8.14c.16,6.1-1.13,12.22-.54,18.3.35,3.62,2.13,6.84,3.52,10.15a65.52,65.52,0,0,1,3.62,11.08c1.72,7.7,1.53,15.66,2.28,23.48a23.85,23.85,0,0,0-1.36,3.46,1.66,1.66,0,0,0,.18,1.2c-1,2.2-.21,5.57.75,7.41.31.59.79,1.34,1.48,1.36a1.36,1.36,0,0,0,1.16-.27c.78-.77,1.41-2.08,2.43-2.56l.16,0c.15.24,0,0,.1.24a6.23,6.23,0,0,1,.17.86,7.44,7.44,0,0,0,.71,2.35.71.71,0,0,0,.1.14,23,23,0,0,0-.56,3.58,14.7,14.7,0,0,0,.2,3.25,9.55,9.55,0,0,0,0,1.07,5.21,5.21,0,0,0,.63,2.5,7.36,7.36,0,0,0,1.69,1.22c2.84,1.89,6.63,1.92,10,2,6.84.09,13.59-1.8,20-3.95a1.16,1.16,0,0,0,.58-.46,1.14,1.14,0,0,0,.83-.37c1.59-2.71-2.19-6.22-4-7.89a21.16,21.16,0,0,0-7.58-4.71,1.18,1.18,0,0,0-.11-.75.63.63,0,0,0-.08-.36c-.83-1.43-2-2.65-2.9-4a31.46,31.46,0,0,1-2.48-4.37,75.7,75.7,0,0,1-3.55-9.34c-2.19-6.65-4.08-13.75-4.19-20.8-.06-3.72,1.63-7,2-10.65a19.37,19.37,0,0,0-.38-5.26,31.28,31.28,0,0,1-.3-5.64,60.33,60.33,0,0,1,3.65-20,23.87,23.87,0,0,0,7.37-6.14,19.17,19.17,0,0,0,2.69-5c.86-2.15.73-4.23,1-6.46s1.87-4.38,3.1-6.19c1.4-2.07,2.95-4,4.24-6.18a47.51,47.51,0,0,0,5.23-13.07c.38-1.5.46-3.07.74-4.59a15.53,15.53,0,0,1,2.36-5.56A52.13,52.13,0,0,1,343,148c5.54-5.46,11.84-10.14,17.73-15.23,6.11-5.29,11.87-10.89,17.71-16.49A162.88,162.88,0,0,1,396,101.93l.31,0a71.13,71.13,0,0,0,7.72-.27c1.38-.05,2.77,0,4.14,0,1.66.06,3.29.45,4.93.42,0,.18,0,.36,0,.54a4,4,0,0,0,3.14,3.49,7.81,7.81,0,0,0,3.72-.08,5.09,5.09,0,0,0,.93.13,5.72,5.72,0,0,1,3,1.11,10.48,10.48,0,0,0,5.71,1.65,19.28,19.28,0,0,0,5.77-1c1.78-.47,3.94-.73,5.26-2.13.3-.32.19-.82-.27-.84a10.81,10.81,0,0,0-2.33.32c-1,.16-2,.18-3,.29a41.69,41.69,0,0,1-5.8.42,9.07,9.07,0,0,1-4.2-1.43,20.71,20.71,0,0,1,5.64-.69c3,.08,5.79.32,8.78-.37a25.32,25.32,0,0,0,8.29-3.28c.55-.35.71-1.41-.2-1.18-1.36.34-2.72.69-4.08,1-2.14-.11-4.31.5-6.45.63s-4.52-.59-6.75-.9c-2.51-.35-5.09.76-7.47,1.48a12.84,12.84,0,0,1-3.92.7c-2.29-.06-1.19-2.87-.76-4.19.59-1.77,0-3.38-.51-5.07-.81-2.47-.27-3.9,1.24-6a9.14,9.14,0,0,1,1.46-1.1c.34-.21-.22-.33-.37-.3-2.32.44-3.74,1.93-4.9,3.93s-.57,4.24-.51,6.33a11.65,11.65,0,0,1-.94,3.51,21.64,21.64,0,0,0-6.27-1.37c-2.92-.32-5.85-.14-8.78-.21a32.87,32.87,0,0,1-13.16-3,21.89,21.89,0,0,1-9.81-8.76c-2.45-4.26-3.34-9-4.13-13.8a22.93,22.93,0,0,1-.2-3.63c0-.91,0-1.82,0-2.73a.77.77,0,0,1,0-.15.86.86,0,0,0,0-.17,2.81,2.81,0,0,1,0-.29,18.43,18.43,0,0,0,.16-3c0-.5-.84-.13-1,.14A14.52,14.52,0,0,0,369.13,67c-1.91,6.76-4.67,15-12.67,16-2.43.31-4.59-.42-6.85-1.13a12.18,12.18,0,0,0-7-.32c-1.85.5-3.63,1.77-5.5,2.06-.89.14-.92-.8-.83-1.44.35-2.51,1.9-5,3.15-7.17a35.7,35.7,0,0,1,3.49-5.36c2.73-3.23,5.07-6.76,8-9.89,2.27-2.46,5.55-5.4,9.11-5.22,1.75.09,9.9,1.44,8.8-2.56-.18-.63-1.53-.16-1.57.4-.09,1.21-3,.54-3.86.43a16.43,16.43,0,0,0-3.83-.32c-3.64.41-6.93,3.07-9.43,5.56-2.92,2.92-5.18,6.4-7.67,9.65a64.61,64.61,0,0,0-3.83,5.47,44,44,0,0,0-3.69,7.23c-.49,1.28-1.32,3.82.3,4.63a4.82,4.82,0,0,0,2.91,0l.39-.07a18,18,0,0,0,2.68-.15,17.28,17.28,0,0,1,7.13.36c3.59,1.07,7.07,2.37,10.92,1.54,3.42-.73,6.29-3.29,8.43-5.93a16.41,16.41,0,0,0,2-3.4c0,.57.07,1.13.14,1.71a31.29,31.29,0,0,0,2.55,8.35A23.18,23.18,0,0,0,382.25,98,31,31,0,0,0,394,101.73a53,53,0,0,0-5.5,3.26q-3.15,2.24-6.09,4.7s0,0,0,0a7.2,7.2,0,0,0-2.5-2.34,26.57,26.57,0,0,1-3.47-3.06,55.26,55.26,0,0,1-4.9-5.58,60.54,60.54,0,0,1-6.93-13c-.11-.26-.9-.1-.82.2,1.48,5.69,3.37,11.38,6.88,16.16a53.67,53.67,0,0,0,4.66,5.66c1.19,1.24,3.26,3.52,5.23,3.62-3.64,3.22-7.05,6.72-10.61,10-8.4,7.73-17.55,14.61-25.88,22.38a79.87,79.87,0,0,0-10.44,11.47,20.92,20.92,0,0,0-3.22,6.35c-.73,2.47-.87,5-1.58,7.53a39.56,39.56,0,0,1-6.56,13.06,48.52,48.52,0,0,0-3.73,5.59,25.88,25.88,0,0,0-1.57,3.22c-.44,1.13-.48,2.35-.83,3.5-1.84,6.15-7.19,10.44-13.23,12.43-4.37,1.45-9.83,1.82-14-.41-1.52-.82-3.07-1.61-4.63-2.37a22.67,22.67,0,0,0-6.14-2.35,16.13,16.13,0,0,0-2.43-.24c.34-1,.69-2.05,1.06-3.07a.44.44,0,0,0,.19-.27c.16-1.34,2.34-.44,3.23-.15,1.28.43,2.49,1,3.72,1.57,1.58.69,3.86,2.35,5.66,2,.36-.06.93-.54.59-.91a13.75,13.75,0,0,0-3.26-2.15,30.5,30.5,0,0,0-5.18-2.33,8.49,8.49,0,0,0-4-.39l.84-2.32a12.38,12.38,0,0,1,4.54-3.38,66,66,0,0,1,7.14-2.44c5.14-1.76,9.41-5.63,13.42-9.14.53-.46-.14-.83-.61-.61-2.55,1.15-4.87,2.78-7.39,4a66,66,0,0,1-8.87,3.19,24.13,24.13,0,0,0-6.32,2.71,49.57,49.57,0,0,0,1.81-7.87,24,24,0,0,0-1.07-10.83c-.11-.35-1-.26-1,.1.72,3.51.26,7.37-.35,10.89a70.83,70.83,0,0,1-3.38,12c-1.24,3.46-2.61,6.89-3.76,10.38a50.52,50.52,0,0,0-2.36,12.34,183.91,183.91,0,0,0,0,25.5c.28,4,.08,7.77-2,11.39a28.08,28.08,0,0,0-2.38,4.5,13.25,13.25,0,0,0-.61,3.69,22.15,22.15,0,0,0-.18,5.14,69.67,69.67,0,0,0,2,12.92c.48,2.05,1.09,4.08,1.71,6.09.54,1.72.47,3.56,1.2,5.25.94,2.17,2.8,3.38,4.39,4.89a21.72,21.72,0,0,0-4.55,1.05c-3,.94-5.73,2.25-9,2.45a10.86,10.86,0,0,0-6,2.26,2.05,2.05,0,0,0-.27.25,7.72,7.72,0,0,1,.81-2.29,10.1,10.1,0,0,0,1.14-3.21,1.58,1.58,0,0,0,.13-1.11,4,4,0,0,0-1.43-2,6.68,6.68,0,0,0-2-1.41c-.71-.37-2.33-.71-2.56-1.6s1-1.94,1.48-2.51a7.64,7.64,0,0,0,1.59-3.64,1.49,1.49,0,0,0,.34-.62c.78-3.5.65-7.28.78-10.86s.2-7,0-10.57a47.61,47.61,0,0,0-1.08-8.59c1.25.33,2.25-1.25,2.2-2.35-.13-2.55-2.69-5.28-4.18-7.27-1.76-2.35-3.45-4.32-3.72-7.32-.54-6-.11-12.14.14-18.16.13-3.19.22-6.38.16-9.57-.08-4-.64-7.91-1-11.88-.26-2.83-.75-5.63-1.06-8.46a11.17,11.17,0,0,0-2.54-6.59c-.54-.57-2,.25-1.72,1a22.42,22.42,0,0,1,.9,8.15c0,.27,0,.54,0,.81-.55-1.2-1.1-2.39-1.58-3.61-1.4-3.57-1.44-7.39-1.4-11.18a53.7,53.7,0,0,1,1.77-13.4c1.13-4.15,3.39-8.28,3.72-12.6,0-.76-1.36-.35-1.56.12-1.69,3.92-3.52,7.81-5,11.79a45.51,45.51,0,0,0-2.43,12.42c0,.34-.06.68-.08,1-2-5.3-3.39-10.73-3.11-16.62a51,51,0,0,1,4-18.31c2.13-4.94,4.93-9.56,6.78-14.62.28-.77-1.14-.57-1.39-.08-2.64,5.15-6.05,9.89-8.64,15.06-2.69,5.35-3.82,11.24-4.37,17.09-.92,9.88,2.3,20,7.17,28.59,0,0,0,0,0,.06a35.38,35.38,0,0,0,2.07,6,51,51,0,0,0-8.16-2.15,66.22,66.22,0,0,0-16.7-.81,58.18,58.18,0,0,0-15.08,2.79,41.17,41.17,0,0,0-12.43,6.94,21.12,21.12,0,0,1-6.52,4,13.9,13.9,0,0,1-7.46.17c-5.05-1.16-9.65-4.92-13.68-7.9-3.72-2.76-7.5-5.9-11.93-7.54a23.25,23.25,0,0,0-9-1.46c-.23,0-.85.38-.37.52.95.27,1.89.52,2.83.77-.64.34-1.25.75-1.91,1a14.56,14.56,0,0,1-6.79,1c-2.69-.11-5.64-.7-7.14,2.07a10.91,10.91,0,0,0-1,3.19,17.32,17.32,0,0,0-.31,1.75c0,.27-.21,2.06-.67,1.63-1.74-1.63-.69-4.73-1.82-6.68a5.63,5.63,0,0,1,.82-1.5c2.38-3.08,8.23-2.45,11.68-3.29.54-.13.6-.75,0-.68-5.69.63-13.21.35-14.47,7.22-.24,1.3-.45,2.58-.81,3.85-.27,1-1.24,3.32-2.31,1.37-.76-1.4-.45-3.76-.6-5.31-.23-2.36-.51-4.75-1.91-6.75-1.61-2.28-5.38-3.62-8.06-2.3A4.28,4.28,0,0,0,103,186.7c-.56,2.16-.41,4.58-.81,6.79a7.17,7.17,0,0,1-.64,2.7c-1,1.55-2-.62-2.21-1a10.88,10.88,0,0,1-.56-2,68.76,68.76,0,0,0-1.54-6.94c-.82-2.56-2.08-6-4.29-8.06.34-.14.67-.27,1-.38a42.92,42.92,0,0,1,15.81-2.26c10.81.37,21.22,4.32,31.15,8a110,110,0,0,0,15.11,4.78c5.21,1.12,10.54,2.27,15.84,3a65.32,65.32,0,0,0,16.82-.11,83.09,83.09,0,0,0,15.47-3.9c.69-.23,1.45-1.47.22-1.34-11.78,1.27-24,2.23-35.61-.17-5.25-1.09-10.54-2.1-15.71-3.49s-10-3.47-14.9-5.26c-9.86-3.59-20.1-6.73-30.8-6.63a45,45,0,0,0-15.6,3c-4.79,1.81-8.72,5.44-12.16,9A82,82,0,0,0,68.79,197c-3.1,5.16-5.35,10.69-7.9,16.1A135.57,135.57,0,0,0,52.75,230a176.1,176.1,0,0,0-7.35,26.3c-1.79,8.3-3.62,17.29-1.5,25.66a23.4,23.4,0,0,0,5.27,9.78,22.48,22.48,0,0,1,1.95,2.51c.09.14.19.28.28.43-.33,1.11-.82,1.47-2.31,1.51-1.31,0-2.59,0-3.9.12-2.82.37-5.4,1.86-8.24,2.24-1.88.25-3.76.19-5.47,1l.09-.15a6.51,6.51,0,0,0,.87-3,5.54,5.54,0,0,0-.58-2.94,6.38,6.38,0,0,0-.87-1.19c-.35-.38,0-1.07.19-1.5.71-2-.43-4.21-2-5.42a7,7,0,0,0-3-1l-.35,0c.4-.48.8-1,1.21-1.44a17.35,17.35,0,0,0,3.32-5.76.8.8,0,0,0,.11-.25c0-.14.07-.28.11-.42a36,36,0,0,0,1.54-6.9c2.54-12.29,3.91-25.05,2-37.39-.41-2.68-1-5.34-1.66-8-1.1-4.38-2.66-8.66-3.57-13.07a5.1,5.1,0,0,1,1.21-5,51.87,51.87,0,0,1,4.49-4,30,30,0,0,0,6.91-9.26c3.62-7.26,4.75-15.44,5.11-23.35.41-9.07-.38-18.13-.87-27.17l-.9-16.85C44.51,119.73,44,113.88,44,108c0-5.56.44-11.13.78-16.69A62.25,62.25,0,0,1,47.1,76.46a24,24,0,0,1,4.35-8.33h0l.09-.08c.19-.18.39-.34.6-.51.45-.36.93-.69,1.41-1,3-2,6.18-3.82,9.28-5.69a246.14,246.14,0,0,0,21.74-14.6c-2.28,2.74-4.47,5.54-6.85,8.2-.37.41.73.43,1,.16,3.42-3.52,6.78-7.09,10.17-10.64s7.43-7.7,12.11-9.74c4.36-1.9,9.34-1.42,13.76-.36s8.69,3.46,13.3,4.26c.78.14,2.52-1,1.5-1.74-4-2.78-9.05-4.42-13.84-5.51-.43-.1-.85-.18-1.28-.26,5.85,0,11.72,1.25,17.31,2.52,3.09.7,6.15,1.5,9.23,2.24s6.47,1.57,9.74,1.18c.32,0,1.24-.59.64-.9-2.9-1.5-6.61-2-9.8-2.7l-6-1.43h.28c3.18,0,6.2-1.06,9.29-1.74a11.42,11.42,0,0,1,4.86-.23,15.12,15.12,0,0,1,4,1.8c2.31,1.35,4.41,3,6.81,4.19s5.44,1.61,8.2,2.15q5.17,1,10.35,2c4.32.8,8.7,1.6,13.09,2.22q-2.87.15-5.76,0c-4.73-.17-9.46-.37-14.2-.56a130.57,130.57,0,0,1-14.81-1.14c-.42-.07-1.17.43-.47.6a137.19,137.19,0,0,0,33.31,3.88c11.16-.1,22.18-2.93,33-5.67s21.71-4.93,32.86-5.31a83.92,83.92,0,0,1,17.07,1.12c5.7,1,11.32,2.52,16.91,3.94,9.81,2.48,19.57,5.67,29.55,7.49a73.52,73.52,0,0,0,13.6,1v0a12.45,12.45,0,0,0-1.89,5.75c-.55,4.33.31,8.67-.24,13-.06.47.93.3,1-.09.68-3.5.46-7.12.75-10.66a19.24,19.24,0,0,1,1.2-5.85,5.59,5.59,0,0,1,1.25-1.87,2.54,2.54,0,0,1,.36-.29c1.07,0,2.16,0,3.24-.09A13.19,13.19,0,0,0,338,52c-.46,4.42.24,8.61.62,13,0,.42,1.09.17,1.09-.22,0-3.43-.16-6.86,0-10.29a18.67,18.67,0,0,1,1-6A2.44,2.44,0,0,1,342,47c.9-.07,1.79-.15,2.68-.26a13.62,13.62,0,0,0-.5,1.89,32.7,32.7,0,0,0-.35,6.91c.05,1.6.47,3.4.11,5-.1.44.82.27.94,0,1-2.87.7-6.3,1-9.27A10.76,10.76,0,0,1,347,46.8a1.19,1.19,0,0,1,.49-.48l.71-.14a3.75,3.75,0,0,1,.61.08,15.84,15.84,0,0,0-.5,2.4,15.72,15.72,0,0,0,.33,7.13c.2.57,1.19,0,1.27-.39.52-2.56.27-5.2.91-7.75a9.24,9.24,0,0,1,.35-1.18,23.32,23.32,0,0,0,6,1.84,18.54,18.54,0,0,0,8.27-.58,11.16,11.16,0,0,0,4.31-2.63c1.21-1.12,3.07-2.43,3.79-3.91.13-.26-.05-.41-.3-.44a3.24,3.24,0,0,0-2,.55,20.93,20.93,0,0,1-4.55,1.44,27.29,27.29,0,0,1-6.94.93,18.37,18.37,0,0,1-12.32-5.45,10.71,10.71,0,0,1-3.23-9.82,13,13,0,0,1,4-7.19c-2.27,3.08-1.62,7-.59,10.37,0,.08.3.07.28,0-.71-3.61-.83-8.21,2.18-11,2.15-2,5.35-1.59,7.74-.59,5.91,2.47,5.44,8.83,3.83,14.08a5.77,5.77,0,0,1-1,.21c.18-3-1-7.23-4.63-7.18-2.24,0-3.29,2.23-3,4.15.41,3.31,4,4.54,6.94,4.63,3.77.12,6-3.14,8.15-5.75,6.33-7.83,16.43-12.9,26.45-12,9.45.82,17.66,6.86,23.34,14a23.66,23.66,0,0,1,4.95,9.57,5.47,5.47,0,0,0-1.18.73c-.8.66-2.24,2.33-1.92,3.42.08.28.6.11.69-.08a8.59,8.59,0,0,1,1.71-2.35c.17-.17.36-.33.54-.49l.3-.22.05,0a14.74,14.74,0,0,1,.16,1.63,1.12,1.12,0,0,0-.31.34,3.55,3.55,0,0,0-.73.56,7.41,7.41,0,0,0-1.72,2.56,4.6,4.6,0,0,0-.24.69,3.06,3.06,0,0,0-.21.29,3.47,3.47,0,0,0-.31,1.77,5.77,5.77,0,0,0,.34,1.77,3.74,3.74,0,0,0,.35.94v.16a2.9,2.9,0,0,0,.6,1.24,1,1,0,0,0,.25.34l.31.41v0a1.57,1.57,0,0,0,.46.72,17.3,17.3,0,0,0,2,2.95c.77,1.27,1.53,2.55,2.43,3.76L432,70.35c1.6,2.19,3.12,4.44,4.84,6.54a23.06,23.06,0,0,0,3.44,3.56c-.67-.27-1.32-.57-2-.82-.09,0-.58,0-.43.21,1.63,1.76,3.3,2.31,5.57,2.94s4.91,1.17,5.4,3.7c.38,1.92-.92,3.86-1.49,5.63a8.41,8.41,0,0,0,.34,4.71c.06.19.51.15.55,0,.26-1.31.12-2.66.38-4a4.7,4.7,0,0,1,.4-1.16,6.76,6.76,0,0,0,.76,2.13c.33.65.68,1.27,1,2,.47,1.18-.4,1.82-1,2.73-.27.39.07.72.48.63a3,3,0,0,0,2-3.51c-.33-1.95-2.55-3.43-2.45-5.48l.1-.22a7.35,7.35,0,0,0,.34-5c-.54-1.73-2.41-2.53-4-3-.84-.21-1.69-.38-2.55-.56h0c-1.71-1.74-3.69-3.14-5.33-5-1.77-2-3.31-4.18-4.91-6.31-.61-.81-1.24-1.62-1.86-2.43a15,15,0,0,0,5.3,1.19,12.32,12.32,0,0,0,5.93-2.06c4.65-2.67,9-6.39,14.27-7.83,2.51-.69,7-.51,8.22-3.53C466.19,53.1,464.34,50.7,462.92,49.08ZM292.11,288.8a6.45,6.45,0,0,0-1.69,2.58,15.39,15.39,0,0,1-.4-1.5,11.77,11.77,0,0,1-.43-4.17,5.19,5.19,0,0,1,4.13,2.06A6.16,6.16,0,0,0,292.11,288.8Zm2,2.39h0Zm27.79,4.75a22,22,0,0,1,3.46,3.42,9.8,9.8,0,0,1,2.13,3.28c-.83-1.44-2.79-2.81-3.76-3.69-1.8-1.62-3.8-3.56-6.12-4.41-.35-.12-1.66.4-1.13.84,1.69,1.38,3.53,2.62,5.31,3.9,1,.74,3.61,2.49,4.15,4.09-2.29.17-4.58,0-6.88,0-3,0-5.94.1-8.93.31a60,60,0,0,1-9.09-.18,5.07,5.07,0,0,1-3.21-1.14c-.07-1.43-.32-2.83-.42-4.25a13.86,13.86,0,0,1,1.58,0c2.07.07,4,.53,6.09.15,1.87-.34,3.74-1.67,5.47-2.44a22.33,22.33,0,0,0,5.83-3.6C318.25,293.43,320.16,294.57,321.92,295.94Zm-34.74-84.89c5.67,3.14,13.36,2.22,19.22-.12-1.2,2.17-1.66,4.88-2.18,7.15a69,69,0,0,0-1.61,11.34,45.65,45.65,0,0,0,.05,5.73,42.31,42.31,0,0,1,.54,5.95,32.52,32.52,0,0,1-1.36,5.63,25,25,0,0,0-.64,5c-.13,3.6.81,7.47,1.5,11a88.14,88.14,0,0,0,2.92,10.7,79,79,0,0,0,3.8,9.86c1.12,2.3,2.59,5.38,4.71,7.15-1.6.67-3.07,1.93-4.56,2.64-1,.49-2.05.9-3,1.46a7.15,7.15,0,0,1-4.21.88,13.17,13.17,0,0,0-4.87.29c.12-1.24.3-2.43.33-3.61a6,6,0,0,0-.08-1.9,9.08,9.08,0,0,0-.29-1.31c-.91-3-3.46-5.73-6.62-5.88l0-.13a2.15,2.15,0,0,0,1.5-1.58c.42-8.42.55-17-1.19-25.29a60.79,60.79,0,0,0-3.51-10.85c-1.55-3.74-3.56-7.15-4-11.23-.36-3.64.15-7.32.22-11,0-2.53,0-5.07-.22-7.59a28.85,28.85,0,0,0-1.19-6.9Zm-10.36,86.64c1,1,2.16,1.83,3.2,2.72,1.53,1.31,3.05,2.6,4.44,4a13.85,13.85,0,0,1,2.7,3.55c.18.4-.67.73-1.11.89-.28-2.11-2.49-4.07-3.84-5.45a36.65,36.65,0,0,0-3.76-3.28,14.62,14.62,0,0,0-3.59-2.42A10,10,0,0,1,276.82,297.69Zm-21.2,4.47a6.28,6.28,0,0,1,2.56-1c1.88-.48,3.75-.17,5.65-.42a27.55,27.55,0,0,0,5.51-1.5,31.86,31.86,0,0,1,4.91-1.36,9.08,9.08,0,0,0,1.38,2.24,28.61,28.61,0,0,0,2.66,3.58c1.7,1.83,3.81,3.45,5,5.69.55,1-.2,1.08-1.26,1.35a20.13,20.13,0,0,1-4.38.41c-3.73.11-7.52.66-11.23.32a12.83,12.83,0,0,1-11.12-8.16A1.69,1.69,0,0,1,255.62,302.16Zm-4.42-9.48a17.12,17.12,0,0,0-1.86,3.42,14.27,14.27,0,0,1-.22-2.33,6.71,6.71,0,0,1,.24-2A8.4,8.4,0,0,0,251.2,292.68Zm-151.41-7a4.33,4.33,0,0,0-2.64,3.46l-.12-.36a8.53,8.53,0,0,1-.38-4.28,3.74,3.74,0,0,1,3.47,1.11Zm29.89,15.29-1.17.34-.33,0c-2.59.26-5.13.55-7.73.6a30,30,0,0,1-9.28-.73,14.31,14.31,0,0,1-3.47-1.45c-1.11-.67-1.53-1.24-1.35-2.28a7,7,0,0,1,3.51-2.69,23.49,23.49,0,0,1,6.72-1.61c2.22-.22,5.2-.14,7.48-1.07a18.44,18.44,0,0,1,3.84,3.11,27.74,27.74,0,0,1,3.36,3.41C132.39,300,131,300.53,129.68,300.94Zm-3.18-10.76a1.12,1.12,0,0,0,.48-.13c1.68,1.12,3.35,2.31,5,3.53a10.77,10.77,0,0,1,4.2,5.56,11.92,11.92,0,0,0-1.55.34c-.11-1.38-1.56-2.76-2.85-3.79l-.6-.53a16.43,16.43,0,0,0-2.34-1.7,27.67,27.67,0,0,0-3.35-2.16A4.92,4.92,0,0,0,126.5,290.18ZM109.19,185a5,5,0,0,1,2.94,2.45,5.85,5.85,0,0,0-1.82,3.68c-.19.89-.36,1.77-.54,2.66-.21,1.05-1,3.16-1.8,1.29-1.07-2.37,0-8.22-3-9.31C105.65,184.37,107.62,184.5,109.19,185Zm-20.31-1.25a17,17,0,0,0,.3-2.26,6.75,6.75,0,0,1,.8.51,16.89,16.89,0,0,1,2.44,2.1c1.18,1.25,1.36,3.77,1.69,5.35.43,2.08,1.55,8.27,4.4,9.38a3.08,3.08,0,0,0,3.4-.19c1.74-1,2.15-3,2.32-4.79s.32-3.7.41-5.55a9.31,9.31,0,0,1,.51,1.49c.27,1.22.3,2.49.46,3.73s.45,3,1.7,3.85c1.55,1,3.2-1,3.7-2.15.8-1.89.41-4.75,1.71-6.46a13.24,13.24,0,0,1,.46,1.83,45.65,45.65,0,0,1,.4,6.08,7.56,7.56,0,0,0,.32,2.14c-2,7.91-6.8,14.68-9.65,22.27-1.43,3.81-1.6,7.78-1.76,11.77a57.17,57.17,0,0,0,1.07,12.65,120,120,0,0,0,8,24.92,39.9,39.9,0,0,0,6.75,10.47c2.15,2.51,5.13,4.75,6.9,7.6a13,13,0,0,0-1.55.77,10.52,10.52,0,0,1-3.76,1.1,30.48,30.48,0,0,0-7,1.17,17.7,17.7,0,0,0-6,3.11,9.26,9.26,0,0,0-.73.69,23.4,23.4,0,0,0-.25-3.7,9.7,9.7,0,0,0-1.57-4.9,20.1,20.1,0,0,0-2.93-3.19,4.29,4.29,0,0,0-3.8-.63c.27-.93.71-1.87.92-2.8a8.16,8.16,0,0,0,.09-2.83,10.15,10.15,0,0,0-.78-2.67c-2.16-8.63-4-17.34-5.91-26C90.05,240.25,88,231.79,84.41,224c-1.63-3.55-4-6.71-5.55-10.31a7.35,7.35,0,0,1,.28-6.72c.52-1,1.31-1.91,1.85-2.93s1.15-2.09,1.72-3.14a55.67,55.67,0,0,0,4.78-10.49A66,66,0,0,0,88.88,183.74ZM51.69,297.51a1.9,1.9,0,0,0,.35-.25h.25c1.31,1.78,2.73,3.48,3.93,5.34l-.54-.63a21.08,21.08,0,0,0-4.5-4.22A3.44,3.44,0,0,0,51.69,297.51ZM37.1,300.22c3-.37,5.76-2,8.83-2,.79,0,1.61.06,2.42,0A29.85,29.85,0,0,0,52.59,303c1,1.12,2.82,2.87,3.5,4.61-2.34,0-4.82.58-7.09.67a57.23,57.23,0,0,1-9.16-.4,19.74,19.74,0,0,1-6.41-1.6c-1.9-.92-2.36-2.25-3.19-3.93C31.67,300.28,34.4,300.54,37.1,300.22ZM26.24,286.88a4,4,0,0,1,1.68,1,6.11,6.11,0,0,0-1.26.59,27.46,27.46,0,0,0-3,2.47.14.14,0,0,0,0-.06,5.23,5.23,0,0,1,.23-1.47,17.67,17.67,0,0,1,1.22-2.87C25.5,286.68,25.93,286.78,26.24,286.88ZM42.46,171.2c-.43,7.71-1.78,15.68-5.93,22.47-2,3.32-4.93,5.73-7.86,8.3-.21.19-.41.37-.6.56q.87-2.25,1.89-4.47c3.15-6.88,6.76-13.55,9.62-20.56,1.15-2.81,2.06-5.68,3-8.57C42.53,169.69,42.5,170.44,42.46,171.2ZM40.61,168c-1.36,3.67-2.83,7.32-4.44,10.91-3.1,6.94-6.83,13.63-9.86,20.59a65.52,65.52,0,0,0-5.23,21.41A62.29,62.29,0,0,0,21,231.22c-.45-2.43-.67-4.87-.91-7.34a59,59,0,0,1-.14-9c.25-3.85,1.11-7.6,1.54-11.43.07-.6-1.14-.24-1.28.15l-.12.34a.53.53,0,0,0-.35.19c-1.59,3.19-2,6.92-2.72,10.34a45.34,45.34,0,0,0-1,9.84,46.93,46.93,0,0,0,.61,6.53,36,36,0,0,1-.79-3.93,54.73,54.73,0,0,1-.35-10.63c.09-1.63.33-3.24.46-4.86a15.56,15.56,0,0,1,.66-4.13c.11-.29-.58-.26-.69,0s-.15.31-.22.48a67.49,67.49,0,0,1,2.69-8.83c3.17-8.43,7.9-16.37,11.76-24.54s7.5-16.36,9.72-25a62.89,62.89,0,0,0,1.67-9.86l.27,5.11c.31,5.72.71,11.44.82,17.17A52.1,52.1,0,0,1,40.61,168ZM356.18,33.3A4,4,0,0,1,354.25,30c-.07-2,2-2.51,3.48-1.56,1.77,1.15,2.66,3.81,2.67,5.9A7.58,7.58,0,0,1,356.18,33.3Zm58.44-8.16a39,39,0,0,0-4.1-3.25,17.61,17.61,0,0,1,3.05,1.25,4.5,4.5,0,0,1,2,2.88C415.24,25.72,414.93,25.42,414.62,25.14Zm7.79,5.72a5.39,5.39,0,0,1-1.6,1.12c-.75-1-1.54-2-2.35-2.93a1,1,0,0,0,.1-.48,9,9,0,0,0-2.45-6.18c-1.67-1.69-5.65-3.6-7.95-2a33.55,33.55,0,0,0-9.44-3.77,17.2,17.2,0,0,1,14.11-4.4c.47,0,.92.14,1.37.23-3.52-.24-6.91,1.13-10.23,2.75-.31.16.1.29.29.22a17.12,17.12,0,0,1,11.19-1.09,15.45,15.45,0,0,1,5.08,2.54c.69.91,1.4,1.78,2,2.74l0,.07a11.63,11.63,0,0,1,.77,1.44,10.83,10.83,0,0,1,.84,5.43A7.91,7.91,0,0,1,422.41,30.86Zm2.24,26.56h0c-.08-.41-.17-.82-.28-1.23h0l.07.07a2.73,2.73,0,0,0,.3.93A1.63,1.63,0,0,0,424.65,57.42Zm39-2.13c-.29,1.14-2.33,1.25-3.2,1.4a28.88,28.88,0,0,0-5.95,1.38c-3.76,1.48-7.38,4-10.75,6.19a16.23,16.23,0,0,1-6.42,2.86,17.74,17.74,0,0,1-6.4-.57.56.56,0,0,0-.22,0c-.85-1.08-1.69-2.17-2.52-3.26s-1.54-2.1-2.29-3.17h0l.16,0a2,2,0,0,0,1.76-.86c2.49-.11,5,.32,7.44.28a37,37,0,0,0,5.24-.59c.42-.06.83-.66.19-.71-2.36-.21-4.61-1.33-6.87-2a29.13,29.13,0,0,0-4.68-.92l.68-.18a28.1,28.1,0,0,1,4.38-.68,99.62,99.62,0,0,1,12.34.11c.53,0,1.41-.72.52-.83-3.25-.37-6.21-1.82-9.47-2.26a30.53,30.53,0,0,0-5.41-.17,20.81,20.81,0,0,0-2.91.3l.3-.27a16.91,16.91,0,0,1,6.28-2.82A31,31,0,0,1,444,48a23.4,23.4,0,0,1,8.92,1.91c.4.18,1.85-.36,1.28-.82a23.53,23.53,0,0,0-18.87-4.64,18.53,18.53,0,0,0-7.56,3.17c-1.52,1.11-3.65,3.52-4.06,5.79a9.56,9.56,0,0,1-.16-2.2,24.14,24.14,0,0,1,.9-3.46h0l.08-.16a11.33,11.33,0,0,0,.66-2.7,25.31,25.31,0,0,1,20.11-3.33c5.7,1.3,11.45,4,15.51,8.24C462,51.07,464.15,53.32,463.64,55.29Z"/>
        <path class="cls-13" d="M380.13,45.64c.92-.62,1.65-1.42,2.63-2a8.26,8.26,0,0,1,4.15-.8,14,14,0,0,1,7.84,2.73c.29.19,1.18-.17.78-.49a15.46,15.46,0,0,0-9-3.67,7.65,7.65,0,0,0-7.42,3.79C378.66,46,379.73,45.9,380.13,45.64Z"/>
        <path class="cls-13" d="M377,47.51a9.46,9.46,0,0,0,3.85,1.19H381c2,1.14,3.15,3.07,5.13,4.29a5.52,5.52,0,0,0,3.42.59c1.64-.14,4-2.3,5.52-1.7a.51.51,0,0,0,.28,0,3.76,3.76,0,0,0,2.35-.26c.14-.07.15-.21,0-.27a14.49,14.49,0,0,1-4-2.13c-1.28-1.11-2.26-2.53-3.83-3.3a6.56,6.56,0,0,0-4.32-.55,14.85,14.85,0,0,0-3,1.27,9.61,9.61,0,0,1-5,.33C377.25,46.94,376.53,47.32,377,47.51Zm15.86,3.1c.22.16.44.31.66.44l-1,.32A2.57,2.57,0,0,0,392.81,50.61Zm-5.27-1.83.06-.05a3.24,3.24,0,0,1,.59-.08h.05a2.66,2.66,0,0,1,1.13.8.68.68,0,0,0,1,0,2.79,2.79,0,0,0,.43-.42l.63.48a1.6,1.6,0,0,0-.27.16,3.64,3.64,0,0,1-1.17.53,5.81,5.81,0,0,1-2.35-.53C387.41,49.36,387.27,49,387.54,48.78ZM383,48.31a3.45,3.45,0,0,0,.13.75,9.54,9.54,0,0,0-1.14-.49C382.34,48.5,382.68,48.41,383,48.31Z"/>
        <path class="cls-13" d="M419,45.84c.33-2.27.15-4.38,1.18-6.53.14-.29-.44-.27-.55-.08a9.73,9.73,0,0,0-1.22,6.67C418.43,46.12,418.94,46,419,45.84Z"/>
      </g>
      <path class="cls-9" d="M423.36,47.21c0-.15-.09-.2-.16-.19l-.12.11c0,.16-.09.19-.17.15s-.11.09-.16.15l-.15.22a3.81,3.81,0,0,0-.33,1.71l.21.1a3.68,3.68,0,0,0,.6-.82,2.72,2.72,0,0,0,.31-.88A1.27,1.27,0,0,0,423.36,47.21Z"/>
      <path class="cls-14" d="M441,83.64a67.43,67.43,0,0,1-7.11.1,21.48,21.48,0,0,0-7.28,1.73c2-.06,8.22,1.76,10.42,2.33,3.7,1,7.89.31,6.54-4.64C443.5,83.17,441.82,83.56,441,83.64Z"/>
    </g>
  </g>
</svg>
