<svg id="Layer_1" data-name="Layer 1" xmlns="http://www.w3.org/2000/svg" xmlns:xlink="http://www.w3.org/1999/xlink" width="269.03" height="234.88" viewBox="0 0 269.03 234.88">
  <defs>
    <style>
      .cls-1, .cls-10, .cls-11, .cls-12, .cls-13, .cls-14, .cls-15, .cls-16, .cls-17, .cls-18, .cls-19, .cls-2, .cls-20, .cls-21, .cls-22, .cls-23, .cls-24, .cls-25, .cls-26, .cls-27, .cls-28, .cls-29, .cls-30, .cls-6, .cls-7, .cls-8, .cls-9 {
        fill-rule: evenodd;
      }

      .cls-1 {
        opacity: 0.5;
      }

      .cls-2 {
        fill: #ff0;
      }

      .cls-3 {
        fill: #3a1b07;
      }

      .cls-3, .cls-5 {
        stroke: #1e0f03;
        stroke-width: 2px;
      }

      .cls-11, .cls-19, .cls-20, .cls-25, .cls-3, .cls-5, .cls-6, .cls-8, .cls-9 {
        stroke-miterlimit: 10;
      }

      .cls-4 {
        fill: #4c250f;
      }

      .cls-5 {
        fill: #2d1305;
      }

      .cls-6 {
        stroke: #301f18;
        fill: url(#linear-gradient);
      }

      .cls-7 {
        fill: #42251c;
      }

      .cls-8 {
        fill: #b2694a;
        stroke: #7c4633;
      }

      .cls-11, .cls-20, .cls-25, .cls-8, .cls-9 {
        stroke-width: 0.5px;
      }

      .cls-9 {
        fill: #ec916c;
        stroke: #ba694d;
      }

      .cls-10 {
        opacity: 0.31;
      }

      .cls-11 {
        stroke: #5e5a58;
        fill: url(#linear-gradient-2);
      }

      .cls-12 {
        fill: #2d251e;
      }

      .cls-13 {
        fill: #552d1d;
      }

      .cls-14 {
        fill: url(#linear-gradient-3);
      }

      .cls-15 {
        fill: url(#linear-gradient-4);
      }

      .cls-16 {
        fill: url(#linear-gradient-5);
      }

      .cls-17 {
        fill: url(#linear-gradient-6);
      }

      .cls-18 {
        fill: #23110a;
      }

      .cls-19 {
        fill: #302824;
        stroke: #351d13;
      }

      .cls-20 {
        fill: #302d2d;
      }

      .cls-20, .cls-25 {
        stroke: #282423;
      }

      .cls-21 {
        fill: url(#linear-gradient-7);
      }

      .cls-22 {
        fill: #776a66;
      }

      .cls-23 {
        fill: #323232;
      }

      .cls-24 {
        fill: #fdfdfb;
      }

      .cls-25 {
        fill: #4c4b4b;
      }

      .cls-26 {
        fill: #ecdbd2;
      }

      .cls-27 {
        fill: #f7efeb;
      }

      .cls-28 {
        fill: #3f251d;
        opacity: 0.47;
      }

      .cls-29 {
        fill: #9b6a59;
      }

      .cls-30 {
        fill: #bf9a8c;
        opacity: 0.42;
      }
    </style>
    <linearGradient id="linear-gradient" x1="199.44" y1="182.03" x2="298.43" y2="182.03" gradientTransform="translate(-27.47 -36.94) rotate(4.69)" gradientUnits="userSpaceOnUse">
      <stop offset="0.59" stop-color="#86491a"/>
      <stop offset="0.73" stop-color="#9b642f"/>
      <stop offset="0.9" stop-color="#b28046"/>
      <stop offset="1" stop-color="#ba8a4e"/>
    </linearGradient>
    <linearGradient id="linear-gradient-2" x1="122.2" y1="160.25" x2="194.9" y2="68.42" gradientTransform="translate(-27.47 -36.94) rotate(4.69)" gradientUnits="userSpaceOnUse">
      <stop offset="0.07" stop-color="#ded7cc"/>
      <stop offset="0.11" stop-color="#d8c7b0"/>
      <stop offset="0.18" stop-color="#ceaf86"/>
      <stop offset="0.24" stop-color="#c89d67"/>
      <stop offset="0.3" stop-color="#c39355"/>
      <stop offset="0.34" stop-color="#c28f4e"/>
      <stop offset="0.4" stop-color="#c28f4e"/>
    </linearGradient>
    <linearGradient id="linear-gradient-3" x1="135.84" y1="140.43" x2="233.84" y2="140.43" xlink:href="#linear-gradient"/>
    <linearGradient id="linear-gradient-4" x1="138.55" y1="136.02" x2="225.17" y2="136.02" xlink:href="#linear-gradient"/>
    <linearGradient id="linear-gradient-5" x1="149.77" y1="130.01" x2="216.99" y2="130.01" xlink:href="#linear-gradient"/>
    <linearGradient id="linear-gradient-6" x1="170.02" y1="125.99" x2="210.61" y2="125.99" xlink:href="#linear-gradient"/>
    <linearGradient id="linear-gradient-7" x1="104.98" y1="97.72" x2="243.37" y2="153.61" gradientTransform="translate(-27.47 -36.94) rotate(4.69)" gradientUnits="userSpaceOnUse">
      <stop offset="0.07" stop-color="#86491a"/>
      <stop offset="0.33" stop-color="#9b642f"/>
      <stop offset="0.66" stop-color="#b28046"/>
      <stop offset="0.86" stop-color="#ba8a4e"/>
    </linearGradient>
  </defs>
  <g>
    <path class="cls-1" d="M169.32,234.88a10.07,10.07,0,0,1-2.5-.31c-15.81-4-29.2-7.36-39.82-9.86-9.89-2.26-17.4-3.88-22.26-4.81-1.62-.29-3.39-.58-5.17-.84-8.19-.93-27.18-1.82-45.56-2.69-8.5-.4-17-.8-24.72-1.21l-.24,0c-4.68-.17-8.9-.37-12.89-.58a10.08,10.08,0,0,1-9.4-11.81c.92-5.27,1.76-10.9,2.65-17.74a10.09,10.09,0,0,1,10-8.78c.22,0,.45,0,.68,0,5.45.37,11,.55,16.43.55A245.75,245.75,0,0,0,80,172.91a63.23,63.23,0,0,1,7.17-.84c.15-.11.31-.21.47-.31a29.45,29.45,0,0,1,8.26-3.19,127.8,127.8,0,0,1-11.93-8.35A353.8,353.8,0,0,1,52.57,132.4c-8.44-8.58-13.37-15.15-17-22.68a66.51,66.51,0,0,1-5.67-18,72.94,72.94,0,0,1-1.65-9.11c-.27-2.24-.51-4.92-.74-7.51-.18-2-.36-4-.55-5.67a34.7,34.7,0,0,0-1.31-7.06c-.55-1.79-1.37-3.91-2.08-5.78L23,55.1c-.32-.86-.62-1.66-.88-2.4-1.59-.67-3-1.35-4-1.9-.73-.38-2.88-1.5-4.64-2.6a10.33,10.33,0,0,1-6.63-13c1.19-3.63,4-5.79,6.83-7.69A56.84,56.84,0,0,1,21.39,23c1.86-3.81,5.68-8,13.35-11.07A68.24,68.24,0,0,1,42.58,9.2c1.79-.51,3.68-1,5.62-1.42,1.4-.34,2.58-.58,3.63-.73a26,26,0,0,1,6.29-.74,29.93,29.93,0,0,1,4.5.34,28.3,28.3,0,0,1,7.9,2.18l.57.26A43,43,0,0,1,81.87,15.9c.53.41,1,.83,1.56,1.27A73.34,73.34,0,0,1,91,24.39l.16.18c1.19,1.32,2.21,2.55,3.12,3.78.22.29.44.58.65.88a30.4,30.4,0,0,1,4,6.62c.69,1.34,1.32,2.72,1.87,4.09a58.87,58.87,0,0,1,2.49,7.71c.27.18.65.43,1.15.73,1.1.68,2.54,1.51,4.18,2.47,2.76,1.6,6.2,3.6,9.69,5.79a190.82,190.82,0,0,1,19.84,14.47c6.29,5.15,14.55,12.3,20.57,17.81l.15.15c1.07,1,2,1.84,2.8,2.6a33.56,33.56,0,0,1,5.95,6.69c4.63,4.24,9.7,9.5,13,13.22s5.13,6.25,6,8.56a20,20,0,0,1,5.54,5.66l1.66,1.11a20.09,20.09,0,0,1,5.3,4.79,33.4,33.4,0,0,1,2.92,1.66c1.47.93,5.94,3.77,6.91,9.1a11.47,11.47,0,0,1,.18,1.84c2.7,1.86,5.37,3.69,8.08,5.53l.34.23c12.63,8.62,28.36,19.34,37.07,26.65,9.72,8.17,14.27,16.13,14.3,25a45.82,45.82,0,0,1-.19,6.61,10.09,10.09,0,0,1-16.22,7.17c-1.22-.94-2.61-2.18-4.53-3.9-2.57-2.3-6.08-5.44-10.36-8.86-2.65-2.05-5.49-4.15-8.7-6.44l-.9-.65c-4-2.74-9.73-6.73-16.36-11.41-2.92-.35-6.27-.72-11.52-1.21l-1.29-.11c-6.85-.63-16.24-1.49-24.08-3.61a90.48,90.48,0,0,1-11.2-4,49.36,49.36,0,0,0-7.09-2.54,24.87,24.87,0,0,0-5.6-.56,81.93,81.93,0,0,0-9.21.7c-1.18.13-2.36.28-3.53.42a17.85,17.85,0,0,1,3.85,3.3l2,.45c11.88,1.95,25.33,4.48,40,7.53a10.09,10.09,0,0,1,5,17.06c-.19.19-.42.44-.7.78s-.35.45-.52.69l-.15.22c-.25.39-.42.68-.55.93-.42.83-.82,1.66-1.22,2.49l-.37.82c-.26.58-.52,1.15-.76,1.73l-.4.94c-.23.57-.46,1.13-.68,1.7l-.36.91c-1,2.69-1.95,5.54-2.78,8.47-.44,1.56-.86,3.19-1.29,5l-.17.73a10.1,10.1,0,0,1-9.83,7.81Z"/>
    <path class="cls-2" d="M163,228.57a10.07,10.07,0,0,1-2.5-.31c-15.8-4-29.2-7.35-39.82-9.86-9.88-2.25-17.39-3.88-22.25-4.8-1.63-.3-3.4-.59-5.17-.85-8.19-.93-27.19-1.82-45.57-2.69-8.5-.4-17-.8-24.72-1.21h-.24c-4.68-.18-8.89-.37-12.89-.59a10.09,10.09,0,0,1-9.4-11.81c.92-5.26,1.76-10.9,2.65-17.73a10.09,10.09,0,0,1,10-8.79l.69,0c5.44.37,11,.56,16.42.56a245.76,245.76,0,0,0,43.43-3.9,63.42,63.42,0,0,1,7.18-.84l.46-.3a29.21,29.21,0,0,1,8.26-3.2,127.52,127.52,0,0,1-11.93-8.34,355.33,355.33,0,0,1-31.35-27.83c-8.44-8.58-13.36-15.15-17-22.68a66.79,66.79,0,0,1-5.67-18A75.49,75.49,0,0,1,22,76.31c-.27-2.23-.52-4.91-.75-7.51-.18-2-.36-4-.54-5.67a33.86,33.86,0,0,0-1.32-7.06c-.55-1.79-1.36-3.91-2.08-5.78l-.57-1.5c-.33-.86-.62-1.65-.89-2.4-1.58-.67-3-1.35-4-1.9-.73-.38-2.87-1.5-4.64-2.6a10.31,10.31,0,0,1-6.63-13c1.19-3.62,4-5.78,6.83-7.68a57.37,57.37,0,0,1,7.74-4.44c1.86-3.81,5.68-8,13.35-11.07A70.46,70.46,0,0,1,36.28,2.9c1.78-.52,3.67-1,5.61-1.43,1.4-.34,2.58-.58,3.63-.73A26.09,26.09,0,0,1,51.81,0a29.93,29.93,0,0,1,4.5.34,28.3,28.3,0,0,1,7.9,2.18l.57.26A43.06,43.06,0,0,1,75.56,9.59l1.57,1.27a74.25,74.25,0,0,1,7.55,7.22l.17.18C86,19.58,87.05,20.82,88,22c.22.29.43.58.64.88a30.65,30.65,0,0,1,4,6.62c.68,1.35,1.31,2.72,1.86,4.1A58.79,58.79,0,0,1,97,41.34c.28.18.65.43,1.15.74,1.1.67,2.54,1.5,4.18,2.46,2.76,1.6,6.2,3.6,9.69,5.79a191.06,191.06,0,0,1,19.85,14.48c6.29,5.14,14.54,12.29,20.56,17.8l.16.15c1.06,1,2,1.85,2.79,2.6a33.56,33.56,0,0,1,5.95,6.69c4.63,4.24,9.7,9.5,13,13.23s5.13,6.25,6,8.55a19.91,19.91,0,0,1,5.54,5.66c.59.38,1.14.75,1.66,1.11a20.09,20.09,0,0,1,5.3,4.79c1.08.55,2,1.1,2.93,1.66,1.46.93,5.94,3.77,6.9,9.1a11.58,11.58,0,0,1,.18,1.84l8.08,5.54.34.23c12.64,8.61,28.36,19.33,37.07,26.64,9.72,8.17,14.28,16.13,14.3,25a46,46,0,0,1-.19,6.62,10.09,10.09,0,0,1-16.22,7.17c-1.22-1-2.61-2.19-4.53-3.91-2.57-2.3-6.08-5.44-10.36-8.86-2.64-2-5.49-4.15-8.7-6.44l-.9-.64c-4-2.74-9.72-6.74-16.36-11.42-2.92-.34-6.26-.72-11.51-1.2l-1.3-.12c-6.85-.63-16.24-1.49-24.08-3.61a91.17,91.17,0,0,1-11.2-4,49.45,49.45,0,0,0-7.08-2.55,25,25,0,0,0-5.61-.55,82.12,82.12,0,0,0-9.21.69l-3.53.42a18.18,18.18,0,0,1,3.86,3.3l2,.45c11.88,2,25.33,4.49,40,7.53a10.09,10.09,0,0,1,5,17.06c-.19.19-.42.45-.7.79s-.35.45-.52.69l-.15.22a10.4,10.4,0,0,0-.55.92c-.42.83-.82,1.66-1.21,2.5l-.37.81c-.27.58-.52,1.16-.77,1.73l-.4.94c-.23.57-.46,1.13-.68,1.7l-.35.91c-1,2.69-2,5.54-2.79,8.47-.44,1.57-.86,3.2-1.28,5l-.18.73a10.07,10.07,0,0,1-9.83,7.81Z"/>
    <g>
      <g>
        <path class="cls-3" d="M171.88,193.41a20.51,20.51,0,0,1,3.82-5.22c-43.51-9-82.49-14.86-100.27-11.66A254.1,254.1,0,0,1,13.11,180c-.79,6.08-1.67,12.14-2.72,18.17,36,1.92,65.41.72,92.18,5.9,12.43,2.41,34.82,7.86,60.44,14.4A108.46,108.46,0,0,1,171.88,193.41Z"/>
        <path class="cls-4" d="M167.46,203.49a95.13,95.13,0,0,1,4.42-10.08,20.22,20.22,0,0,1,2.6-3.9c-25.4-5.88-47-10.78-51.19-11.5-10.36-1.79-39.41-3.45-47.5-1s-34.23,3.79-34.23,3.79c-12.15.18-21-.11-28.47-.7q-.46,3.57-1,7.13c32.45,4.66,51.92-3,85.9-4.43,37.5-1.64,61.61,10.27,61.61,10.27S159.42,198.92,167.46,203.49Z"/>
        <path class="cls-5" d="M164.61,212.24c-29.2-7-56-13.11-64-14.54-17.53-3.15-40.36-1.53-89.48-3.91-.23,1.43-.47,2.86-.72,4.28l13.11.7c25.2,1.35,59.75,2.6,71.53,4,9.19,1.11,50.37,11,68.05,15.27C163.56,216.12,164.06,214.17,164.61,212.24Z"/>
      </g>
      <g>
        <path class="cls-6" d="M158.68,133.18c22.84,15.2,55.74,39,68.83,47.88s21.57,17.58,24.91,20.15c-.95-3.85,4.31-10.6-10.54-23.08-8.4-7-23.93-17.63-36.6-26.27s-22.38-15.44-32.09-22.25C173.31,133,158.57,129.82,158.68,133.18Z"/>
        <path class="cls-7" d="M101.5,184.49a17.23,17.23,0,0,1,5.29.52,8,8,0,0,1,4.48,3.7,7.4,7.4,0,0,1,.29,4.57c-1.09-1.8-2.18-3.6-4.21-4.44s-5-.71-7.95-.58a35.71,35.71,0,0,0,1.31-3.45C100.84,184.22,100.52,184.46,101.5,184.49Z"/>
        <path class="cls-7" d="M120.9,174.43a11.79,11.79,0,0,1,4.43.53,7.58,7.58,0,0,1,3.55,3,13.18,13.18,0,0,1,1.43,4.35,7.49,7.49,0,0,0-3-3.38,15.74,15.74,0,0,0-5.45-1.15c-1.62-.12-2.54-.09-2.58-.62S120.06,175.52,120.9,174.43Z"/>
        <path class="cls-7" d="M59.4,182.41c-1.84-.67-3.68-1.34-5.39-.61s-3.3,2.86-4.07,4.38a5.6,5.6,0,0,0-.68,3.29,11.06,11.06,0,0,1,3.6-2.89,14.39,14.39,0,0,1,5-.63Z"/>
        <path class="cls-7" d="M86.4,178.19a17.85,17.85,0,0,1-6.59,1.64,49.53,49.53,0,0,1-7.88-1.11c-2.31-.38-3.88-.39-5,.1a4,4,0,0,0-2.21,2.49,7.56,7.56,0,0,0-.16,3l11.19-.29,7.3-2.57Z"/>
        <path class="cls-8" d="M110.6,156.24c-.87,1.42-.65,15.27-.37,16s-1.51.7.46.54,4.45-.49,6.31-.63,3.07-.09,4,.54a3.53,3.53,0,0,1,1.58,3.18,4.37,4.37,0,0,1-2.22,3.33,4.51,4.51,0,0,1-3.87-.27,13.91,13.91,0,0,0-4.43-1.78c-2-.27-4.72.11-7.44-.17a37.16,37.16,0,0,1-8.14-2.12l-7.47,1.55a6.45,6.45,0,0,1-2.92-.46c-.61-.4-.69-1.18.55-2a21.33,21.33,0,0,1,5.63-2,13.45,13.45,0,0,1,4.74-.28c1.76.16,4.13.51,6.5.86.88-1.17,3.91-14.74,4.79-15.91Z"/>
        <path class="cls-9" d="M121.42,155.26c-.38,2.55-.76,5.1-1.31,7.22a12.37,12.37,0,0,1-2.29,4.93,7.67,7.67,0,0,1-4,2.21,52.82,52.82,0,0,0-7.89,2.51,92.92,92.92,0,0,0-11.37,6c-3,1.9-4.38,3.13-4.81,3.88s0,1,2,1,5.51-.34,7.75-.27,3.21.51,3.61,1.75a3.63,3.63,0,0,1-1.35,4.2c-1.58.93-4.59.75-8,.05s-7.19-1.91-10.08-2.57a19.92,19.92,0,0,0-7-.54c-2,.22-7.51-.68-9.21-1s-5.59.53-7,.83-2.58,1.18-3.47,1.4-1.49-.24-1.4-1.38a5,5,0,0,1,2.89-3.88c2-.95,5.23-1,8.4-.92s6.31.35,8.72.14,4.12-.87,8.59-2.86,11.72-5.33,16.13-7.63,6-3.58,6.46-5.66-.16-4.94-.8-7.81Z"/>
        <path class="cls-10" d="M156.91,132.28c20.05,13.11,58.83,40.38,71.63,49.51a205.46,205.46,0,0,1,23.88,19.42c.23-2.79.46-5.59-.33-8.2s-2.6-5-16-14.22-45.19-31-70.1-47C166.93,134.7,156,129.39,156.91,132.28Z"/>
        <path class="cls-11" d="M23.5,25.26a13.66,13.66,0,0,1,3-5.75c1.54-1.68,3.73-3.05,7.75-4.59A68.29,68.29,0,0,1,49,11a19.67,19.67,0,0,1,13.59,2.72c4.8,2.81,10.49,7.9,14.36,12.11a39.54,39.54,0,0,1,7.49,10.91C86,40.15,87,43.58,87.85,45.83s1.68,3.32,6.41,6.49,13.42,8.45,22.88,15a208.16,208.16,0,0,1,30.52,25.51c10.86,11.05,22.37,25.27,27.42,34.91s-15.28.08-16.69,5.14c10.45,6.89,39.82,28.39,50.27,35.27-3.61-.44-7.23-.87-13.83-1.48s-16.2-1.4-23.68-3.42-12.84-5.28-18.63-6.63-12-.78-18.27,0-12.57,1.61-17.44,2.15-8.31.73-13-.8-10.67-4.76-20-12A346.81,346.81,0,0,1,53.45,119c-8.32-8.46-12.28-14.15-15.09-20A59.91,59.91,0,0,1,33,80c-.91-7.22-1.09-15.68-2-21.63S28.25,49,26.71,45a68.5,68.5,0,0,1-3.47-12.12A16.19,16.19,0,0,1,23.5,25.26Z"/>
        <path class="cls-12" d="M68.26,39.93a18.93,18.93,0,0,1,.84,7.43A12.2,12.2,0,0,1,66.71,54a9.42,9.42,0,0,1-5.46,3.19,11.53,11.53,0,0,1-5.87-.38,9.16,9.16,0,0,1-4-2.76A47.09,47.09,0,0,1,48,49.57a36,36,0,0,0,8.6-4,28.07,28.07,0,0,0,5.86-6.09c1.37-1.82,2.14-3,3.07-2.93S67.55,37.88,68.26,39.93Z"/>
        <path class="cls-13" d="M55.3,33a15.72,15.72,0,0,1,6.88-.73,13.16,13.16,0,0,1,7.68,3.4,14,14,0,0,1,3.4,7.67,15,15,0,0,1-.35,5.89c-.37,1.46-.79,2.46-.55,3s1.15.51,2.81.06a24.87,24.87,0,0,0,6.26-2.69,40.67,40.67,0,0,0,6-4.87,53.66,53.66,0,0,0-2.29-7.3A41.12,41.12,0,0,0,79.9,28.1a59.35,59.35,0,0,0-9.24-9.5A46.15,46.15,0,0,0,60.2,11.78a18.92,18.92,0,0,0-9.77-1.48,61.8,61.8,0,0,0-11.34,2.29,51.55,51.55,0,0,0-8.5,3.19,16.62,16.62,0,0,0-4.76,3.27,8.28,8.28,0,0,0-2.11,3.61,10.52,10.52,0,0,0-.13,3.53,77.19,77.19,0,0,0,2.83,14c1.46,4.21,3.68,7.75,5.21,8.89s2.38-.09,3.3-2.3,2-5.4,4.39-7.43,6.33-2.93,9.2-3.83S53.26,33.67,55.3,33Z"/>
        <path class="cls-10" d="M86.34,109.11c26.67,11.08,53.34,22.15,68.93,30.45s20.08,13.83,24.58,19.35c2.93-.4,15-.19,15.37-1.18s-23-14.15-25.17-15.72c8.21,4.64,28.52,19.69,36.73,24.33-7.59-9.46-12.76-18-20.35-27.47-12.9-6.79-28.26-13.94-44.54-18.84S106,112.12,86.34,109.11Z"/>
        <path class="cls-14" d="M97.13,109.32c9,4.26,18,8.52,28,12.52a289.62,289.62,0,0,0,32.06,10.74c11.07,3,22.22,5.21,28.18,6.17s6.72.65,7.17.05.59-1.49-2.16-3.24-8.39-4.35-20.83-7.76-31.69-7.66-44.77-13-20-11.72-26.92-18.12Q97.5,103,97.13,109.32Z"/>
        <path class="cls-15" d="M100.16,101.72c9.35,5.8,18.7,11.59,33.45,16.93s34.9,10.2,44.15,12,7.61.62,4.14-1.74-8.79-5.89-20.87-11.54S130.12,104,111.28,96.2Z"/>
        <path class="cls-16" d="M111.8,97.15c11.69,5.88,23.38,11.77,33.43,16.38a244.17,244.17,0,0,0,23.66,9.66c5.21,1.7,7.22,1.76,7.89,1.46s0-1-5.22-4.78S156.45,109,148.71,103.81s-13.35-8.62-19-12Z"/>
        <path class="cls-17" d="M132.33,94.61c10.54,6.59,21.08,13.19,27.4,17.24s8.39,5.54,9.66,6.26,1.73.68,1.73,0-.47-1.84-4.34-6.18a160.85,160.85,0,0,0-16.31-16,26.42,26.42,0,0,0-11.54-5.79Z"/>
        <g>
          <path class="cls-18" d="M110.08,115.13l1.65-.92s46.77,21.8,74.43,22.66l5.44-.1s2.52,1.71-.19,2.37c0,0-6.61.14-32.34-6.32C159.07,132.82,134,126.84,110.08,115.13Z"/>
          <path class="cls-18" d="M107.71,100.57s15.91,18.31,70.54,28.31l4.07.55a13.41,13.41,0,0,1,2.2,1.79s.93,1.06-11.33-1.61c0,0-33.43-6.42-61.41-20.93l-8-7.08Z"/>
          <path class="cls-18" d="M176,123.58s-28.33-7.28-43.65-19l.11,2.59s26.46,12.92,35.19,15.55C167.62,122.76,179.9,126.18,176,123.58Z"/>
          <path class="cls-18" d="M170.13,118.48l-31.41-20,2.37-1.81,30,21.11S171.83,119.16,170.13,118.48Z"/>
        </g>
        <path class="cls-19" d="M27.71,24.92c1.22-.92,2-2.65,4.37-3.2s6.38.06,9.5.08a22.35,22.35,0,0,1,8.28,1.77,13.55,13.55,0,0,1,4.86,3.29,8.41,8.41,0,0,1,2.43,4.37,5.82,5.82,0,0,1-1.67,4.47A12,12,0,0,1,50,39.51c-2.35.74-5.2.68-7.18,1.3a5,5,0,0,0-3.58,4,14.81,14.81,0,0,0,.5,7.57c.86,2.62,2.44,5,3,8.16a25.53,25.53,0,0,1-.61,10.55,22.37,22.37,0,0,1-3.78,8.22,16.06,16.06,0,0,1-4.94,3.94A67.07,67.07,0,0,1,32,75.11c-.45-3.79-.85-9.19-1.27-13.08A45,45,0,0,0,29,53.11c-.82-2.65-2-5.56-2.87-7.89s-1.47-4.07-1.94-5.69a14.78,14.78,0,0,1-.71-4.89,17.15,17.15,0,0,1,1.29-5.54A9.89,9.89,0,0,1,27.71,24.92Z"/>
        <path class="cls-20" d="M11.79,32.87a45.31,45.31,0,0,0,4.6,2.64,37,37,0,0,0,7.05,2.89,26.36,26.36,0,0,0,7.62,1,11,11,0,0,0,5.2-1.25,4.62,4.62,0,0,0,1.84-2.43,46.62,46.62,0,0,0-8.53-3.53,31.26,31.26,0,0,0-9.21-.91,70,70,0,0,0-8.72,1.08C11.34,32.33,11.05,32.34,11.79,32.87Z"/>
        <path class="cls-21" d="M88.55,47.32a9.09,9.09,0,0,1-3.4,5.14c-2.31,1.78-6.39,3.65-10,6.43s-6.66,6.44-7.92,10.33a12.92,12.92,0,0,0,.92,10.5,11.22,11.22,0,0,0,4.41,3.63c.17.2-2.14-.33-4.44-.85-.68.51-1.36,1-1.31,1.82A4.41,4.41,0,0,0,68.93,87a23.31,23.31,0,0,0,4.7,2.15,7,7,0,0,0-2.85,0c-.39.25.06.86.87,1.28a13,13,0,0,0,3.11.87c-1.37.36-2.74.72-3.41,1.72a3.76,3.76,0,0,0,.29,4,9.51,9.51,0,0,0,4.46,3.13,17.88,17.88,0,0,0,4.9.89c-1.09.18-2.17.35-2.23.68s.9.82,1.9,1.1a15.81,15.81,0,0,0,3.06.45c-.82,1.48-1.65,3,.52,4.54s7.32,3.28,11.52,4.68,7.42,2.5,10,2.75a8.09,8.09,0,0,0,5.74-1.26c1.13-.89,1.39-2.08.84-3.88a32.23,32.23,0,0,0-2.94-5.91c-1-1.67-1.63-2.6-2.26-3.52,4.06,2.88,8.11,5.76,12.19,7.59A29.48,29.48,0,0,0,130.15,111c2.61,0,3.74-.63,4-1.41s-.33-1.67-.93-2.56c1.32.68,2.64,1.36,3.71,1.18a2.35,2.35,0,0,0,1.87-2.35c0-1.12-.9-2.34-1.77-3.55,1.77,1.26,3.55,2.51,5.18,2.67s3.11-.75,3.14-1.75-1.39-2.09-2.81-3.18c2,1.07,3.92,2.13,5.21,2.15a1.7,1.7,0,0,0,1.75-2.1,8.76,8.76,0,0,0-2.05-3.47A22.24,22.24,0,0,0,152.23,98c1,0,1.18-.54-3.81-5.28S133.31,79,125.47,72.62a178.62,178.62,0,0,0-18.83-13.74c-5.45-3.43-10.79-6.36-13.79-8.21S89.2,48.07,88.55,47.32Z"/>
        <g>
          <path class="cls-22" d="M38.85,26.8a5.75,5.75,0,0,0,2.7,7.64,5.68,5.68,0,0,0,7.73-2.28A5.87,5.87,0,0,0,38.85,26.8Z"/>
          <path class="cls-23" d="M40.1,27.45a4.6,4.6,0,0,0,8.16,4.2,4.6,4.6,0,0,0-8.16-4.2Z"/>
          <path class="cls-24" d="M40.12,26.52A2.15,2.15,0,0,0,41,29.43a2.21,2.21,0,1,0-.84-2.91Z"/>
        </g>
        <path class="cls-25" d="M30.25,22.16a80.06,80.06,0,0,0-9.68,3.17A45.26,45.26,0,0,0,13,29.52c-1.83,1.24-2.77,2.06-2.91,2.47s.54.4,1.54.33a37.42,37.42,0,0,1,4.92-.1,91.36,91.36,0,0,1,10.3,1c3.81.61,7.52,1.52,11.24,2.43A8.26,8.26,0,0,0,35.47,32c-1.74-1.5-4.77-3.39-5.85-5.09S29.39,23.67,30.25,22.16Z"/>
        <path class="cls-26" d="M78,90.45a48.88,48.88,0,0,0,8.21,5,105.47,105.47,0,0,0,13.06,5.28c3.61,1.13,5.37,1.19,5.54.11s-1.27-3.31-.76-3.16,3,2.69,6,5.34a42.39,42.39,0,0,0,10.51,6.92,19.67,19.67,0,0,0,9.48,1.45c2.33-.28,3.46-1.06,3.49-1.87s-1.07-1.67-3.63-3.2-6.6-3.72-10.63-5.92l7.65,8.5-4.36-2.47A43.3,43.3,0,0,0,118,104c-.92-.33-.75.16-.57.6s.38.82-1.49-.58-5.78-4.61-9.84-7.36-8.24-5-12.44-7.32c.94,1.86,1.87,3.73,2.84,5.32s1.95,2.89,1.39,2.51-2.68-2.45-5.48-4.57-6.29-4.27-9.77-6.43c.37,1,.75,2.08,1.17,3.21a20.17,20.17,0,0,1,.86,2.41c0,.07-.63-1-1.32-1.63a1.88,1.88,0,0,0-1.86-.59c-.39.21-.36.8-.73.33s-1.12-2-2.25-2.6-2.61-.26-4.11.08A38.12,38.12,0,0,0,78,90.45Z"/>
        <path class="cls-18" d="M80.44,58.59a35.45,35.45,0,0,1,8.73,2.08c3.4,1.25,6.9,3.12,8.27,5.33s.63,4.74-.9,5.52-3.83-.22-6.05-2.1-4.35-4.62-6.61-6.49a26.08,26.08,0,0,0-7-3.88A6.68,6.68,0,0,1,80.44,58.59Z"/>
        <path class="cls-18" d="M100.37,70.33a25.84,25.84,0,0,1,8.08,2.86c3.3,1.79,6.78,4.51,8.23,7.07s.88,5-.47,5.58-3.49-.51-6.14-3.16-5.82-6.79-7.87-9-3-2.51-3.87-2.8C98.52,70.48,98.71,70.1,100.37,70.33Z"/>
        <path class="cls-18" d="M116.88,87a53.75,53.75,0,0,1,10.31,3.57c3,1.55,5.25,3.64,5.69,5.38s-.93,3.11-2.1,2.78-2.14-2.36-3.76-4.35a28.41,28.41,0,0,0-5.69-5.14A19.61,19.61,0,0,0,116.88,87Z"/>
        <path class="cls-18" d="M96.35,58.61a29.63,29.63,0,0,1,7.3,1.73c2.85,1.06,5.77,2.62,6.92,4.46s.52,4-.75,4.62-3.21-.19-5.06-1.75-3.64-3.87-5.53-5.44A22.24,22.24,0,0,0,93.35,59,5.53,5.53,0,0,1,96.35,58.61Z"/>
        <path class="cls-18" d="M113.46,69.63a26.1,26.1,0,0,1,8.08,2.86c3.3,1.79,6.78,4.52,8.23,7.08s.88,5-.47,5.58-3.48-.52-6.14-3.16-5.82-6.8-7.87-9-3-2.51-3.87-2.8C111.61,69.79,111.81,69.4,113.46,69.63Z"/>
        <path class="cls-18" d="M130,86.34a53.75,53.75,0,0,1,10.31,3.57c3,1.55,5.25,3.65,5.7,5.38s-.94,3.12-2.11,2.79-2.14-2.37-3.76-4.36a28.44,28.44,0,0,0-5.69-5.14A19.4,19.4,0,0,0,130,86.34Z"/>
        <path class="cls-18" d="M76.34,67.7a26.1,26.1,0,0,1,8.08,2.86c3.3,1.79,6.78,4.52,8.23,7.08s.88,5-.47,5.58S88.69,82.7,86,80.06s-5.83-6.8-7.87-9-3-2.51-3.87-2.8C74.49,67.86,74.68,67.47,76.34,67.7Z"/>
        <path class="cls-18" d="M95.8,81.76a53.08,53.08,0,0,1,10.31,3.57c3,1.55,5.25,3.64,5.7,5.38s-.94,3.11-2.11,2.78-2.14-2.37-3.75-4.35a28.45,28.45,0,0,0-5.7-5.14A19.4,19.4,0,0,0,95.8,81.76Z"/>
        <path class="cls-27" d="M51.89,63.15a8.11,8.11,0,0,1,8.69,4.49c1.89,3.86,1.67,10.38,2,17.46S63.68,99.81,68,106,80,116.87,88.25,119.8s16.85,4.06,23.42,9.38,11.06,14.8,9.78,20.1-8.31,6.42-16.92,3.81-18.81-9-28.55-16.63-19-16.71-25-25.27-8.55-16.66-8.89-23.74a39,39,0,0,1,3.43-17.31C47.36,66,49.05,63.69,51.89,63.15Z"/>
        <path class="cls-28" d="M72.82,52.55s6.92.09,14.62-7.83c0,0-3.67-13.33-7.6-16.35l-6.58,15a15.34,15.34,0,0,1-.59,6.76S71.77,52.54,72.82,52.55Z"/>
        <path class="cls-29" d="M23.51,24.2s-1-5.34,8.74-9.19c0,0,10.87-3.9,15.28-4.35,0,0,9.69-3.47,21.57,6.69L77.31,25l-9.13-7.21s-9.3-7.61-20.25-6.06C47.93,11.69,27.37,14.49,23.51,24.2Z"/>
        <path class="cls-30" d="M88.61,47.83a50,50,0,0,0,8.85,5.82s20.75,12,29,20l19.25,16.48s6.24,6,6.6,6.89c0,0,1.87,1.59-2.13.38,0,0-28.35-30.19-63.19-46.69C87,50.69,87.84,50.33,88.61,47.83Z"/>
      </g>
    </g>
  </g>
</svg>
