<svg id="Layer_1" data-name="Layer 1" xmlns="http://www.w3.org/2000/svg" width="325.03" height="431.01" viewBox="0 0 325.03 431.01">
  <defs>
    <style>
      .cls-1 {
        opacity: 0.5;
      }

      .cls-2 {
        fill: #ff0;
      }

      .cls-3 {
        fill: #e75f4f;
      }

      .cls-4 {
        fill: #ed715c;
      }

      .cls-5 {
        fill: #802f2e;
      }

      .cls-6 {
        fill: #93373b;
      }
    </style>
  </defs>
  <g>
    <path class="cls-1" d="M23.21,431A14.29,14.29,0,0,1,9,415.55l23.74-288A14.28,14.28,0,0,1,47,114.47h54.41c13.51-70,35.19-105.54,64.52-105.54.38,0,.77,0,1.15,0,32.71,1.14,48.55,43.85,57.61,75.89,2.59,9.15,5,19.08,7.28,29.63H287a14.28,14.28,0,0,1,14.24,13.11l23.74,288A14.29,14.29,0,0,1,310.75,431ZM191.7,114.47c-8.87-38.11-19.63-60.71-25.78-66.32-5.94,5.79-16.14,28.46-24.29,66.32Z"/>
    <path class="cls-2" d="M14.29,422.08A14.29,14.29,0,0,1,.05,406.62l23.74-288A14.28,14.28,0,0,1,38,105.54h54.4C105.94,35.49,127.63,0,157,0l1.15,0c32.72,1.14,48.55,43.86,57.62,75.89,2.59,9.15,5,19.08,7.27,29.63h55.09a14.28,14.28,0,0,1,14.23,13.11l23.74,288a14.27,14.27,0,0,1-14.23,15.46ZM182.77,105.54C173.9,67.44,163.14,44.83,157,39.22c-5.94,5.79-16.14,28.46-24.29,66.32Z"/>
    <g>
      <g>
        <path class="cls-3" d="M301.82,407.79H14.29q11.87-144,23.74-288H278.08Z"/>
        <path class="cls-4" d="M42.42,125.55H271S261,352.16,167.09,358.71,42.42,125.55,42.42,125.55Z"/>
        <path class="cls-4" d="M24.35,359.52l-3.61,42.55,275.53.81-4.52-37.63s-31.61,31.91-134.6,30.27S24.35,359.52,24.35,359.52Z"/>
      </g>
      <path class="cls-5" d="M209.54,141.92a5.33,5.33,0,0,1-6-4.21c-7.34-48.32-25.86-112.89-46.3-113.6-20.28-.75-37.82,64-44.58,112.92a5.32,5.32,0,0,1-6,4.28h0a5,5,0,0,1-4.75-5.45c4-29.21,19.83-122.74,55.76-121.55,17.53.61,32,22,44.34,65.5a524.12,524.12,0,0,1,12.25,56.58,5,5,0,0,1-4.68,5.54Z"/>
      <path class="cls-6" d="M108.87,106.63s9.82-49.39,22-69.64S156,12.76,166.46,18s22.7,24.85,29.47,46.63C201.66,83,203.39,91,203.39,91S191.53,51.41,178,33.93C167.19,20,155.62,12.76,139.7,29.63,125.2,45,108.87,106.63,108.87,106.63Z"/>
    </g>
  </g>
</svg>
