<svg id="Layer_1" data-name="Layer 1" xmlns="http://www.w3.org/2000/svg" width="343.71" height="430.37" viewBox="0 0 343.71 430.37">
  <defs>
    <style>
      .cls-1 {
        opacity: 0.5;
      }

      .cls-2 {
        fill: #ff0;
      }

      .cls-3 {
        fill: #382a1b;
      }

      .cls-4 {
        fill: #4c3622;
      }

      .cls-5 {
        fill: #a0a0a0;
      }

      .cls-6 {
        fill: #969595;
      }

      .cls-7 {
        fill: #b7b6b6;
      }
    </style>
  </defs>
  <g>
    <path class="cls-1" d="M323.75,430.37a15.64,15.64,0,0,1-12.47-6.12l-6.06-7.83a13.31,13.31,0,0,1-1-1.12l-4.5-5.82a11,11,0,0,1-.83-1.23l-.37-.47a13.31,13.31,0,0,1-1-1.12l-.92-1.18a12.75,12.75,0,0,1-.83-1.24l-.42-.54a10.17,10.17,0,0,1-1-1.1l-4.5-5.82a12.06,12.06,0,0,1-.83-1.23l-22.73-29.41a10.58,10.58,0,0,1-1-1.11l-4.5-5.82A12.41,12.41,0,0,1,260,358l-.36-.47a10.17,10.17,0,0,1-1-1.1l-.92-1.19a11.47,11.47,0,0,1-.85-1.25l-.4-.52a11.33,11.33,0,0,1-1-1.1l-4.5-5.83a12.62,12.62,0,0,1-.83-1.23L70,112.08a14.33,14.33,0,0,1-10.69-5.59L11.19,44.31a19.38,19.38,0,0,1,3.47-27.15l7.71-6a19.45,19.45,0,0,1,11.84-4,19.23,19.23,0,0,1,15.32,7.52L97.6,76.85a14.43,14.43,0,0,1,2.2,13.62L340.42,401.71a15.77,15.77,0,0,1-2.83,22.11l-.93.72c-.22.22-.46.43-.7.63a16.22,16.22,0,0,1-1.62,1.16l-.95.74a15.81,15.81,0,0,1-9.64,3.3Z"/>
    <path class="cls-2" d="M316.6,423.21a15.67,15.67,0,0,1-12.48-6.12l-6.05-7.83a9.48,9.48,0,0,1-1-1.11l-4.5-5.82a10.62,10.62,0,0,1-.83-1.23l-.37-.48a9.48,9.48,0,0,1-1-1.11l-.92-1.19a11,11,0,0,1-.83-1.23l-.42-.55a10.07,10.07,0,0,1-1-1.09l-4.5-5.83a9.14,9.14,0,0,1-.83-1.23L259.2,359a13.16,13.16,0,0,1-1-1.11l-4.5-5.83a12.29,12.29,0,0,1-.84-1.24l-.37-.47a12.71,12.71,0,0,1-1-1.1l-.92-1.19a11.38,11.38,0,0,1-.84-1.25l-.41-.53a11.38,11.38,0,0,1-1-1.1l-4.5-5.82a12.06,12.06,0,0,1-.83-1.23L62.79,104.93A14.34,14.34,0,0,1,52.1,99.34L4,37.16A19.39,19.39,0,0,1,7.51,10l7.71-6A19.47,19.47,0,0,1,27.05,0,19.24,19.24,0,0,1,42.38,7.52L90.45,69.7a14.35,14.35,0,0,1,2.9,10.67,15.28,15.28,0,0,1-.7,2.95L333.27,394.56a15.79,15.79,0,0,1-2.83,22.11l-.93.72c-.23.22-.46.43-.7.63a18.08,18.08,0,0,1-1.62,1.16l-1,.74a15.84,15.84,0,0,1-9.63,3.29Z"/>
    <g>
      <rect class="cls-3" x="-73.95" y="208.22" width="490.54" height="13.95" rx="3.02" transform="translate(105.85 482.36) rotate(-127.71)"/>
      <path class="cls-4" d="M21.46,21,321.53,409.18a7.34,7.34,0,0,1-4.55,1.55,7.75,7.75,0,0,1-5-2.22L20.79,31.89a7.72,7.72,0,0,1-2.16-6A7.12,7.12,0,0,1,21.46,21Z"/>
      <rect class="cls-5" x="305.77" y="386.92" width="7.36" height="14.05" transform="translate(187.05 879.71) rotate(-127.71)"/>
      <rect class="cls-5" x="295.95" y="374.22" width="7.36" height="14.05" transform="translate(181.27 851.47) rotate(-127.71)"/>
      <rect class="cls-5" x="303.81" y="380.6" width="1.5" height="14.05" transform="translate(184.17 865.65) rotate(-127.71)"/>
      <rect class="cls-5" x="266.9" y="336.65" width="7.36" height="14.05" transform="translate(164.18 767.94) rotate(-127.71)"/>
      <rect class="cls-5" x="257.08" y="323.94" width="7.36" height="14.05" transform="translate(158.41 739.7) rotate(-127.71)"/>
      <rect class="cls-5" x="264.94" y="330.32" width="1.5" height="14.05" transform="translate(161.31 753.88) rotate(-127.71)"/>
      <path class="cls-6" d="M3.08,38.7H85a5.53,5.53,0,0,1,5.53,5.53V58.74A5.53,5.53,0,0,1,85,64.27H3.08A2.1,2.1,0,0,1,1,62.18V40.79a2.1,2.1,0,0,1,2.1-2.1Z" transform="translate(32.98 119.16) rotate(-127.71)"/>
      <path class="cls-7" d="M73.07,86.92l-6.25,4.83A4.83,4.83,0,0,1,60,90.88L16.07,34a12.78,12.78,0,0,1,2.29-17.93h0Z"/>
    </g>
  </g>
</svg>
