<?xml version="1.0" encoding="utf-8"?>
<!-- Generator: Adobe Illustrator 25.2.0, SVG Export Plug-In . SVG Version: 6.00 Build 0)  -->
<svg version="1.1" id="Layer_1" xmlns="http://www.w3.org/2000/svg" xmlns:xlink="http://www.w3.org/1999/xlink" x="0px" y="0px"
	 viewBox="0 0 1600 900" style="enable-background:new 0 0 1600 900;" xml:space="preserve">
<style type="text/css">
	.st0{clip-path:url(#SVGID_2_);}
	.st1{opacity:0.24;}
	.st2{fill:#1E490A;}
	.st3{opacity:0.56;fill:#021C13;enable-background:new    ;}
	.st4{fill:#021C13;}
	.st5{fill:#022D14;}
	.st6{fill:#031C0F;}
	.st7{fill:#053819;}
</style>
<g>
	<g id="Layer_1_1_">
		<g>
			<defs>
				<rect id="SVGID_1_" width="1600" height="900"/>
			</defs>
			<clipPath id="SVGID_2_">
				<use xlink:href="#SVGID_1_"  style="overflow:visible;"/>
			</clipPath>
			<g class="st0">
				<g class="st1">
					<path class="st2" d="M1792.3,754.2h-1.1v127.9h-5v36.6h-2111V782h1.6c4-0.1,7.9-0.3,11.8-0.5c13.7-0.5,27.4-1.2,41-1.9l0,0
						l3.6-0.2l0,0c10.1-0.5,20.1-1.1,30.2-1.7c50.5-3,100.7-5.5,151.7-7l8.2-0.2h1.7l3.9-0.1l3.7-0.1c19.2-0.6,38.4-1.2,57.5-2.1
						c11-0.5,22-1.1,33-1.8c12.7-0.8,25.4-2.2,38.2-2.6c14.1-0.5,25.2-1.2,32.4-6.2c0.4-0.3,0.2-0.6-0.5-0.8
						c-27.6-6.8-65.6-6.6-97.5-7c-9.6-0.1-19.2-0.3-28.8-0.5c-16.6-0.4-33.1-0.7-49.8-0.7c-29.8,0.1-59.6,0.5-89.3,0
						c-26.7-0.5-56.9-1.2-80.5-6.3c-4-0.8-7.9-2-11.7-3.6c-2.9-1.2-2.6-1.2,0.5-2.3c3.9-1.2,7.9-2.2,11.9-2.9
						c15.6-3.1,34-4.3,51.3-5.3c16.1-0.9,32.5-1.4,48.5-2.5c24.8-1.7,49.4-4.2,74-6.3c28-2.4,56.2-4.9,84.8-6.3l0,0l6.8-0.3h0.1
						c2.6-0.1,5.2-0.2,7.9-0.3s5.5-0.2,8.3-0.3H30l4-0.1l3.7-0.1l4.6-0.1h0.5c1.9,0,3.8,0,5.7-0.1l0,0c1.8,0,3.5,0,5.3,0h0.8
						c39.6,0,79.1,1.7,118.7,0.8c7.7-0.2,15.5-0.5,23.1-0.9l0,0c4-0.2,7.9-0.5,11.8-0.9l1.1-0.1l0,0l2.8-0.3
						c2.2-0.2,4.4-0.5,6.5-0.7l3.1-0.4l0,0l0.9-0.1c3.9-0.5,7.8-1.1,11.6-1.8c1.1-0.2,0.9-0.8,0-1c-31.9-7.4-72.4-8.2-109.1-8.9
						c-22.7-0.4-44.8-1-67.2-2.5c-19.1-1.4-37.9-3-56.7-4.8l-4.1-0.4H-3l0,0l-1.5-0.1l-6.7-0.7l-1.4-0.1l0,0l-0.8-0.1l-3.3-0.3l0,0
						h-0.1l0,0H-17c-3.5-0.3-7.1-0.7-10.6-1.1c-6.5-0.7-13-1.4-19.5-2.1l-0.5,0l0,0h-0.4l0,0c-23.6-2.5-47.2-5.2-70.8-7.8l0,0
						l-4.3-0.5l0,0c-0.3,0-0.6-0.1-0.8-0.1l-12.3-1.3l-6.5-0.7l0,0l-3.1-0.3l-4.6-0.5c-0.8-0.1-1.7-0.2-2.5-0.3l-3.4-0.3l-2.9-0.3
						l0,0l-5.2-0.5l-1.3-0.1l-8.4-0.8l0,0c-7.6-0.8-15.3-1.5-23-2.2l0,0c-4.5-0.4-8.9-0.8-13.4-1.2l0,0c-5-0.5-10-0.9-15-1.3l-1-0.1
						h-0.3c-5.2-0.4-10.5-0.9-15.7-1.3c-17.1-1.3-34.2-2.5-51.5-3.4c-5.7-0.3-11.4-0.5-17.1-0.8c-3.9-0.2-7.9-0.3-11.8-0.4l-1.6-0.1
						v-7.6h1.6c3.9,0.1,7.9,0.1,11.8,0.3c45.9,1.3,92.9,6.4,138.1,9.4c9.9,0.7,19.8,1.5,29.7,2.5l0,0l3.8,0.4c9,0.9,17.9,2,26.8,3.1
						l0,0l3.7,0.4l2.2,0.3l0,0l3,0.4c3.1,0.4,6.2,0.8,9.2,1.1l0,0l1.6,0.2l0,0l5,0.6l1.1,0.1h0.1l2.2,0.3l3.8,0.5l0,0l4.8,0.6h0.3
						l1.4,0.2l4.9,0.6l0,0l4.4,0.5c6.5,0.7,13,1.5,19.5,2.1l7.6,0.7l0.7,0.1l0,0l4.2,0.4l0,0c2.8,0.2,5.7,0.5,8.5,0.7
						c1.9,0.2,3.7,0.3,5.6,0.4l0.9,0.1l4.1,0.3l0,0c0.3,0,0.5,0,0.8,0.1c60.9,4,120.4,6.9,181.7,8.9l0,0l3.9,0.1h0.3h1
						c1.1,0,2.3,0.1,3.4,0.1l1.5,0l2.8,0.1l2.3,0.1c1.3,0,2.6,0.1,3.9,0.2l2.4,0.1c1.9,0.1,3.9,0.2,5.8,0.3l0,0
						c3.4,0.1,6.9,0.3,10.3,0.5l0,0c2.7,0.1,5.3,0.3,8,0.4l0,0c9.1,0.5,18.2,1.1,27.2,1.7h0.1l9.4,0.7l0,0l2.4,0.2h0.2l2.2,0.2
						l3.9,0.3c1.2,0.1,2.5,0.2,3.7,0.3l2,0.2h0.1l2.9,0.2l3.8,0.3l0,0l4.9,0.4h0.5l0,0l2,0.2l6.1,0.5l1.4,0.1l0,0
						c28.5,2.2,56.9,4.6,85.3,6.6c21.9,1.5,43.8,2.8,65.8,3.6c86.9,3.1,173.9,0.2,260.8,3.4c18.5,0.7,36.9,1.2,55.2,1.7l0,0l6.9,0.2
						h-6.1l0,0c-9.7,0-19.4,0.2-29.2,0.4c-24.7,0.7-49.3,1.9-73.9,3c-24.2,1-48.7,2.1-73,1.7c-21.5-0.3-43.3-1.4-64.7,0
						c-3.2,0.2-6.3,0.5-9.4,0.9c-1.4,0.2-1.4,0.8-0.4,1.1c27,7.4,63.1,9,95.8,9.9c37.2,1,74.7,0.7,111.9,1.2c18,0.2,36,0.3,53.9,0.4
						c32.6,0.2,65.1,0.2,97.7,0c51-0.2,102-1.1,153-1.5c17.2-0.1,34.3,0.1,51.4,0.5c80.5,2,160.3,8.8,241.2,7.8
						c29.1-0.3,58.2-1.3,87.3-2.4c17-0.6,34-1.3,50.9-1.9c36.5-1.3,78.5-4.2,113.8,1.1c-14.3,8.1-46.4,8.1-63.1,15.4
						c-0.7,0.3-0.6,0.6,0.1,0.8l0.2,0.1c15,4.2,36.7,4.2,54.6,3.8c15.2-0.4,30.2-1.4,45-2.7l4.5-0.4c2.3-0.2,4.6-0.4,6.9-0.7
						l1.5-0.2l3.5-0.4l3.3-0.4l1.6-0.2l0,0c4.4-0.5,8.8-1,13.2-1.5c27.1-3.3,53.6-7.5,78.6-12.6c11.3-2.3,22.9-4.9,33.4-7.9
						c6.4-1.8,12.6-4,18.7-6.8l0.4-0.2c8-3.9,12.1-9,0-12.4h-0.2c-1.4-0.4-3-0.7-4.6-1l0,0c-4.7-0.9-9.5-1.5-14.3-1.8
						c-5.1-0.4-10.5-0.6-15.8-0.7h-1.6h-0.8c-5.7-0.1-11.4-0.1-16.7-0.1h-5.8c-24.7,0.1-49.2,1-73.8,1.9c-8.2,0.3-16.4,0.5-24.6,0.8
						l0,0c-1.2,0-2.3,0.1-3.5,0.1l0,0l-5.3,0.2l0,0l-19.2,0.5h-0.9h-0.2c-7.4,0.2-14.8,0.4-22.2,0.7h-0.7h-0.1
						c-6,0.2-12,0.4-18.1,0.6c-34,1.2-68.5,2.2-102.7,1.5l0,0c-7.9-0.2-15.8-0.4-23.7-0.8h-0.2l-2.3-0.1l0,0l-2.6-0.1h-0.2l-4.8-0.3
						h-0.3l0.3,0l2.2-0.4l0,0l3.4-0.6l0,0l4.3-0.7l0.6-0.1c19-3,38.6-5.2,58.5-7l0,0c8.1-0.7,16.2-1.4,24.3-2.1l0,0l9.4-0.7l0,0h0.4
						l0,0l5.3-0.4l8.2-0.6h0.2l4.7-0.3l4.2-0.3l5.4-0.4h0.2l0.8,0l8.2-0.6l0,0l3.3-0.2l0,0c31.5-2.3,62.8-4.8,92.9-8.8
						c16.5-2.2,32.4-4.8,47.7-7.8c19.5-3.8,38.1-8.1,56.1-13l5.2-1.4c6.3-1.7,12.5-3.4,18.7-5.2l0.4-0.1c7.4-1.1,10.2,2.3,17.7,1.3
						c2-0.3,8.8,4.9,10.8,4.6L1792.3,754.2L1792.3,754.2z"/>
				</g>
				<path class="st3" d="M2115.7,801.2c-1.6-0.5-1.9,2.7-3.9,2.1c-2.7-0.7-2.7-4.8-4.4-8.3c0.3,4.4-0.2,8.6-4,7.4
					c-0.4-0.1-1.8,7.7-5.9,5.5c-2.9-1.5-4.9-7.3-6-10.8c-1.4,13.8-12.4-2-14.7-6.5c0.6,5.3-0.7,11.3-2.3,16.1c-3.5-1.5-3.8-5-6-8.5
					c-3.2-5.4-9.1-8.8-12.1-12.5c2.7,5.4,5.5,18.5-1,21.8c-2.7,1.4-10-3.6-12.3-5.6c-0.2,0.8-0.5,1.4-0.6,2.3
					c-1.9,0.3-3.7-0.4-5.4-1.1c-0.1,1.3-0.9,2.3-1.1,3.5c-3.3-2.1-6.4-6.9-8.5-10.9c0.1,5.2-0.2,12.9-4.2,11.2s-6.3-7.2-9.3-11
					c-2.3-2.9-5.4-4.1-8.6-11.7c1.3,7-0.4,12.6-1,19.2c-3.1-1.1-4-6.4-5.4-8.2c1,2.5,0.5,5.9-0.5,8.5c-4.1-0.4-5.8-6.1-8-10
					c-0.7,2.2-1.5,4.4-2.8,5.6c-0.9-6-6-13.7-9.3-16c1.8,3.1-2,15.4-3.7,16.5c-3.7,2.2-5.7-7.9-8.5-12.8c2.9,8,0.6,20.7-2.8,25.5
					c-1-5.1-4.4-8.5-7.3-11.5c-1.4-1.5-7.7-5.7-7.7-8.5c-1.2,6.4-5.5,9.9-8.9,8.6c-4.4-1.7-5.5-9.6-5.9-15.3
					c-0.5,7.5-2.8,15.8-8.8,15.2c-5.6-0.5-9.1-10-10.4-16.5c-0.5,2.6-0.8,7.5-2.2,9.4c-4.3,5.8-9.2-1.5-11.2-7.6
					c1,4.3-0.1,8.8-2.8,12.3c0.2-9.2-3.1-16.7-3.1-27.2c-0.9,4.2-2.8,2.1-6.9,16c-1.2,0.3-0.4-6.8-2.7-7.8
					c-0.5,2.9-2.7,8.2-2.5,11.3c-3.1-0.8-2.3-5.3-2.7-6.4c-4.7,2.9-6.5,10.6-11.8,2.7c-0.2,1.1-3.8,5.5-3.8,6.4
					c-8.2-5.8-19.9-14.4-16.2-28.4c-2.2,3.1-6.4,8.8-5.3,20.1c-1.5,0.8-5.2-4.7-6.3-7.1c-2.3,3.1-3.4,12-8,13
					c-5.3,1.1-4.3-8.9-6.3-12.1c-2.1,10.5-5.8,18.1-8.3,17.7c-4.5-0.7-5.6-2.7-8.8-6.4c-3.8,13.6-8.2-2.7-8.2-9.8
					c-0.6,4.8-1.5,15.4-4.7,17.2c-4.2,2.4-12-6.1-16.3-7.9c-2.1-0.9-2.6,0.8-4.7,0.5c-8.6-0.9-8.4-7.7-8.3-17.4
					c-2.5,5.1-6,16.8-10.8,18.6c-4.6,1.7-6.3-6-10.1-5.2c-4.1,0.9-3.7,9.8-8.7,7.2c-2.8-1.4-4.3-8-6.9-8.8c-2.7-0.8-4.9,3.7-8.2,3
					c-1.5-7.4-6.2-18.7-11-22.7c-1.5,5.4-0.7,11.8-2.4,17c-2.1,6.2-6.6,9.2-9,1.5c-4.9,7.2-6.7,5.9-10-3.3c-0.9,2.5-1.9,5.2-3.3,7
					c-4.5-5-7.4-16.5-6.8-24.3c-3.8,11-9.4,35.3-20.5,18.7c-4-6-5.3-13-5.2-21c0-1.7-0.3-12.9,0.1-13.7c-4.9,8.8-6.4,24.9-8.1,35.5
					c-2.9-3.6-4.5-8.6-5.6-12.7c-0.4,3.5-0.1,7-0.4,10.5c-2.4,0.3-4.4-2.1-6.6-2s-4.3,3.2-6.4,2.1c-2.5-1.3-2.9-9.1-3.2-13
					c-0.5,6.8-3.9,22.2-8.6,22.5c-3,0.2-3.3-3.4-5.1-5.9c-4.9,6.3-5-1.6-5.1-7.3c-8,13.4-11.9-4.2-4.9-15.7
					c-4.2,4.8-19.4,21.5-19.3,22.7c-0.4-4.3,0.7-12.8-0.8-16.4c-0.4-0.9-7.2,12.2-7,15.5c-3.1-2.2-2.3-12.7-8.2-18.4
					c-0.3,11.7-7.4,17.3-12.3,6.8c-1.8,2.1-3.2,6.7-5.8,6.5c-4.1-0.4-4.8-10.8-5.2-14.8c-0.7,3.4-3.3,13.8-7.2,12.4
					c-1.3-0.5-6.4-14.2-5.8-17.8c-2.3,3-4.8,11-6.7,12.9c-2.1,2.3-3.3,1.1-5.2-3.7c0,2.7-0.9,9-3.6,9.2c-2.9,0.2-5.4-10.8-6-13.2
					c0.2,4.3,0.7,17.7-4.2,18.3c-3-5.8-8.9-11.1-13.9-8.5c0-3.1-1-6.1-2.9-8.6c-0.9,1-5.2,11-5.5,11c-5.3-0.7-5.5-7.9-7.8-10
					c-0.4,2.5-2.2,4.2-4.9,3.6c-1.5-3.7-3.1-9-7.1-10.7c-2.3,3.4-5.8,13-11.4,11.3c-3.4-1.1-5.9-8.7-4.4-11.3
					c-2.4,2-7.4,11.2-11.8,9.9c-1.2-0.4-6.3-8.1-9.9-7.7c3.4,1,3,7.4-0.5,7.7c-0.7,0-7-5.2-7.2-3.9c-0.4,3.2-2.2,5.7-4.4,5
					c0-0.6-0.6-6.7-0.6-6.7c-3.1,2.6-5.4,6.5-9.1,9.7c4.6-7.5-4.9-10.2-5.5-15.3c-2.3,11.2-7.7,22.8-15.2,13.7c-1.3,2-2.8,5.2-5,5.5
					c-0.4,0-3.9-14.2-5.3-15.6c-0.1,3.6-2,6.2-3.1,9.4c-3.2-3.9-6.4-9.5-6.2-19.3c-1.5,9.2-11,31.9-15.2,12.5
					c0.1,7.1-5.5,17.3-8.6,7.3c-2.1,5.3-6,3.2-6.6-2.3c-1.7,3.8-3.3,12-7.1,11.7c-2.1-7.9-0.4-16.3-5.5-23
					c-0.3,3.9-1.1,9.4-3.5,11.9c-5.1,5.3-21.6,0.7-18.6-6.1c-2.8,2.8-2.3,14-5.5,18.9c-6.3-1.3-7.8-16-13.3-16.8
					c-1.1-0.2-3.8,3.8-5,4.3c-4.6,1.7-4.1-1.1-4.6-7.3c-1.9,2.2-5,8.3-7.8,7.4c-5.5-2-1-12.6-1.4-17c-4.4,3.7-7.7,11.6-11.5,16.5
					c-4.7,6-5.3,4.1-8.6-1.9c-5.9-10.8-3.2,5.1-9.8,6.1c-3.6,0.5-5.1-5.4-6.2-8.8c-1.4,2.7-2.4,9.1-5.4,8.1
					c-2.8-0.9-3.4-7.9-3.8-10.9c-0.3,8.4-5.8,12.8-9.2,6.9c-2.9-5.1-3.1-14.4-3.6-20.8c-0.7,9.8-0.4,20.5-7.6,22.6
					c-7,2-9.3-9-12.3-15.4c-0.2,3.1-0.7,8.2-3.5,6.3c-0.2,1-3,9.1-4.5,7.3c-2.4-3-4.2-7.2-5.1-13.2c-0.3,6.4-0.9,15.1-4.5,18.5
					s-9-1.7-12.2-5c-2.1-2.2-7.1-15.6-4.5-18.6c-3.7,2.2-5.8,11.9-10.8,14.4c-3.7-9.2-4.4,12.2-8.7,13.9c-3.8,1.5-9.9-11.4-12-12.7
					c-0.3,3.9,0.4,9.8-2.3,12.4c-4.2,4.1-6.7-2.4-8-7.4c0.1,4.7-2.3,9-6,8.1c-0.9-0.2-9.3-8.8-9.3-9.4c0.1,1-0.1,2,0.1,3.1
					c-6,3.4-11.5-0.1-16.8-4c6.8,10.4-16.3,5.9-17.2,0.7c-1.9,1.5-3.2,6-5.8,7.8c-2.4-4-5-9.3-8.3-11.7c-0.6,3-2.3,5.8-4.4,6.8
					c0.2-0.1-7.6-14.7-8.2-16.1c-3.5,1.2-6,5-9.4,6.5c-4.8,2.1-4.7,0.7-5.5-7c-1.2,5.2-7.5,16.1-11.7,15.1s-2.7-11.6-2.6-16.2
					c-4.3,17.2-16.6,4.7-18.8-7.8c-0.3,1.1-0.1,14.3-1.4,13.3c-1.7-1.3-2.1-2.9-2.8-6.7c-0.2,15.9-5.7,10.4-9.6,1.2
					c-1.2,5.2-1.1,14-4.1,18.1c-5-4.2-6.8-16.4-9.2-23.5c-1.4,5.4-4.9,10.5-9.3,10.6c-1.7,0-2.3-4-1.6-4.2c-2.4,0.2-3.6,3-5,3.2
					c-3.4,0.4-4.5-6.6-4.6-9.1c-0.5,2.3-0.7,7.2-2.5,8.6s-6.5,0.6-8.6,0.4c-2.9-0.3-4-2.9-6.5-3.2c-0.8-0.1-4.5,3.3-6.8,1.4
					c-1.9-1.5-2.5-6.5-3.1-8.7c-1.6,2.6-3.9,5.6-6.6,7.1c-7.4,4.2-6-1.7-11.3-6.3c2,9.4-2,13.2-2.4,13.7c-4.9,6.5-8.6-3.1-10.8-11.2
					c0.5,3.8,1.7,11-0.2,13.6c-2.1,3-4.6,1.5-5-3.1c-2.1,6.2-7.5,5.4-8-2.4c-2.5,7.7-5.5,2.2-7.5-2.5c0.1,3.1-2.7,8.5-5.1,6.9
					s-1.2-9.1-1.3-11.9c-3.4,3.6-5,9.1-7.8,12.9c-4.4,6-3.9,2.4-6.4-2.7c-2.9,12.7-12.8-1.6-15-10.4c1,9.5-2.2,16.2-7.9,12.9
					c-4.6-2.7-6.8-10.3-11.3-2.3c-1.8-1.8-7.1-8.5-9-10.5c0.9,3.8,0.8,8.2-1.5,10.8c-1.6,1.9-6.1,1.5-8.3,3.1
					c-0.2,0.2-5.4-0.6-5.1-2.8c-4.2,2.5-6.9,2.3-8.8-2.4c-1.3,1.8-3.8,7.7-6,5.7c-2.5-2.4,0.3-12.3,0.2-15.6
					c-2.8,4.6-6.2,8.1-7.1,14.1c-2.3,0.8-12.9,0.3-11.4-4.6c-1.5,0.5-12.3,14.4-9.9,3.8c-3,6.7-4.7,13.2-11,8.8
					c-7-4.9-5.3-13.7-4.6-22.1c-1.3,6.3-3,16.1-6.7,20.7c-1.6,1.9-4,3.5-6.1,2.6c-1.8-0.7-3.3-3.5-3.5-5.5c-7,7.8-8.8-3.4-10.8-10.8
					c0.5,5.6-3.5,11.3-6.7,13c-5,2.5-4.6-1.8-8.4-5.1c-5.1,8.3-10.3,5.5-7.3-5.5c-3,0.9-6.5,6.5-7.8,10.2
					c-0.8-6-10.5-12.6-12.8-13.3c4.2,3.9,3,17.6-1.8,18.2c0.3-3.9-2.8-6.2-4.8-8.2c-1.9,5-1.9,10.9-7.2,10.4
					c-2.6-0.3-7.1-3.7-8.6-9.2c-0.2,24.1-22.5-2.4-28.8-6.2c0,3.5-1.1,7-3.2,9.8C585,764,576.5,758,573.8,756
					c2.7,4.2,3.3,9.5,1.5,14.2c-3.4,7.9-5.9,2.4-9-0.3c-0.9-0.8-6.7-3.5-11.1-3.2c-4-0.3-9.3,2.4-10.2,3.2c-2.8,2.6-5.1,8.2-8.2,0.3
					c-1.7-4.7-1.2-10,1.3-14.3c-2.6,2-10.3,8-12.8,15.4c-2-2.9-3-6.3-3-9.8c-5.8,3.8-26.3,30.3-26.5,6.2c-1.4,5.5-5.6,8.9-7.9,9.2
					c-4.8,0.6-4.8-5.4-6.6-10.4c-1.9,1.9-4.6,4.2-4.4,8.2c-4.5-0.6-5.6-14.3-1.7-18.2c-2,0.7-11,7.2-11.7,13.3
					c-1.2-3.7-4.4-9.3-7.1-10.2c2.7,11-2.1,13.8-6.8,5.5c-3.5,3.3-3.1,7.6-7.7,5.1c-3-1.6-6.6-7.4-6.2-13
					c-1.9,7.3-3.5,18.5-9.9,10.8c-0.2,2.1-1.6,4.8-3.2,5.5c-2,0.9-4.1-0.7-5.6-2.6c-3.4-4.5-4.9-14.4-6.1-20.7
					c0.7,8.4,2.2,17.2-4.2,22.1c-5.8,4.4-7.3-2.1-10.1-8.8c2.3,10.6-7.7-3.2-9.1-3.8c1.3,4.9-8.4,5.4-10.5,4.6
					c-0.9-6-4-9.5-6.5-14.1c-0.1,3.3,2.5,13.2,0.1,15.6c-2,2.1-4.3-3.9-5.5-5.7c-1.8,4.7-4.3,4.8-8.1,2.4c0.3,2.2-4.5,2.9-4.7,2.8
					c-2-1.5-6.1-1.2-7.6-3.1c-2.1-2.6-2.1-7.1-1.3-10.8c-1.8,2-6.6,8.7-8.3,10.5c-4.1-8-6.2-0.4-10.4,2.3c-5.2,3.3-8.2-3.4-7.3-12.9
					c-2,8.8-11.1,23.1-13.8,10.4c-2.3,5.2-1.9,8.7-5.9,2.7c-2.6-3.8-4-9.3-7.1-12.9c-0.1,2.8,1,10.3-1.2,11.9s-4.8-3.8-4.7-6.9
					c-1.9,4.7-4.6,10.2-6.9,2.5c-0.4,7.8-5.4,8.6-7.4,2.4c-0.4,4.6-2.7,6-4.6,3.1c-1.7-2.7-0.7-9.9-0.2-13.6c-2,8-5.4,17.7-9.9,11.2
					c-0.4-0.5-4-4.2-2.2-13.7c-4.8,4.6-3.6,10.5-10.4,6.3c-2.5-1.5-4.6-4.6-6.1-7.1c-0.6,2.2-1.1,7.2-2.9,8.7
					c-2.1,1.9-5.5-1.5-6.2-1.4c-2.2,0.3-3.3,3-6,3.2c-1.9,0.2-6.4,0.9-7.9-0.4s-1.9-6.3-2.3-8.6c-0.1,2.4-1.1,9.5-4.3,9.1
					c-1.3-0.2-2.4-2.9-4.6-3.2c0.6,0.2,0.1,4.2-1.4,4.2c-4.1,0-7.3-5.2-8.6-10.6c-2.2,7.1-3.9,19.3-8.4,23.5
					c-2.7-4-2.7-12.9-3.8-18.1c-3.6,9.2-8.7,14.7-8.8-1.2c-0.6,3.8-1,5.4-2.5,6.7c-1.2,1-1-12.2-1.3-13.3
					c-2,12.5-13.4,25.1-17.3,7.8c0.1,4.6,1.6,15.2-2.3,16.2s-9.7-10-10.7-15.1c-0.7,7.7-0.7,9.1-5,7c-3.1-1.5-5.4-5.3-8.6-6.5
					c-0.5,1.4-7.7,16-7.5,16.1c-2-1.1-3.5-3.8-4.1-6.8c-3.1,2.4-5.5,7.7-7.7,11.7c-2.5-1.7-3.6-6.2-5.4-7.8
					c-0.8,5.2-22.1,9.7-15.8-0.7c-4.8,3.9-10,7.4-15.4,4c0.1-1,0-2,0-3.1c0,0.6-7.8,9.2-8.6,9.4c-3.4,0.9-5.6-3.4-5.5-8.1
					c-1.3,5-3.5,11.5-7.4,7.4c-2.5-2.7-1.9-8.5-2.2-12.4c-1.9,1.3-7.5,14.1-11,12.7c-4-1.7-4.5-23-8-13.9c-4.7-2.5-6.6-12.2-10-14.4
					c2.4,3-2.1,16.3-4.1,18.6c-2.9,3.3-7.9,8.5-11.2,5s-3.8-12.1-4.1-18.5c-0.8,6-2.5,10.3-4.7,13.2c-1.4,1.8-3.9-6.3-4.1-7.3
					c-2.6,2-3.1-3.2-3.2-6.3c-2.8,6.4-4.9,17.4-11.3,15.4c-6.7-2.1-6.4-12.8-7-22.6c-0.5,6.4-0.7,15.7-3.3,20.8
					c-3.1,5.9-8.2,1.5-8.5-6.9c-0.3,3-0.9,10-3.5,10.9c-2.8,1-3.7-5.4-5-8.1c-1.1,3.4-2.4,9.3-5.7,8.8c-6-1-3.5-16.8-9-6.1
					c-3,6-3.5,8-7.9,1.9c-3.6-4.9-6.5-12.8-10.6-16.5c-0.4,4.4,3.8,15-1.3,17c-2.6,1-5.4-5.2-7.2-7.4c-0.4,6.2,0.1,9-4.2,7.3
					c-1.2-0.5-3.6-4.5-4.6-4.3c-5,0.9-6.4,15.5-12.2,16.8c-2.9-4.9-2.5-16.1-5-18.9c2.8,6.8-12.4,11.4-17.1,6.1
					c-2.2-2.6-3-8-3.2-11.9c-4.6,6.7-3.1,15.1-5,23c-3.5,0.3-5-7.9-6.6-11.7c-0.5,5.4-4.2,7.6-6.1,2.3c-2.9,10.1-8-0.2-7.9-7.3
					c-3.8,19.4-12.6-3.3-13.9-12.5c0.2,9.8-2.7,15.4-5.7,19.3c-1-3.2-2.7-5.8-2.8-9.4c-1.3,1.4-4.5,15.7-4.9,15.6
					c-2-0.3-3.3-3.5-4.6-5.5c-6.9,9.1-11.9-2.4-14-13.7c-0.6,5-9.3,7.8-5.1,15.3c-3.4-3.2-5.5-7.1-8.4-9.7c0,0-0.6,6-0.6,6.7
					c-2.1,0.6-3.7-1.9-4.1-5c-0.1-1.3-5.9,4-6.6,3.9c-3.2-0.3-3.6-6.6-0.5-7.7c-3.3-0.4-8,7.3-9.1,7.7c-4,1.3-8.6-7.9-10.8-9.9
					c1.4,2.6-0.9,10.3-4.1,11.3c-5.1,1.7-8.4-7.9-10.5-11.3c-3.6,1.7-5.1,7-6.5,10.7c-2.5,0.5-4.2-1.1-4.5-3.6
					c-2.1,2-2.4,9.3-7.2,10c-0.3,0-4.2-10-5-11c-1.7,2.5-2.7,5.5-2.7,8.6c-4.6-2.6-10.1,2.7-12.8,8.5c-4.5-0.6-4-14-3.8-18.3
					c-0.6,2.5-2.9,13.4-5.5,13.2c-2.5-0.2-3.3-6.4-3.3-9.2c-1.7,4.8-2.8,6-4.8,3.7c-1.7-2-4-9.9-6.1-12.9c0.6,3.6-4.1,17.3-5.3,17.8
					c-3.5,1.4-6-9-6.6-12.4c-0.4,4-1,14.4-4.8,14.8c-2.4,0.3-3.6-4.3-5.3-6.5c-4.6,10.4-11,4.9-11.3-6.8c-5.4,5.8-4.7,16.3-7.5,18.4
					c0.1-3.3-6.1-16.4-6.5-15.5c-1.4,3.6-0.3,12.1-0.7,16.4c0.1-1.2-13.9-17.9-17.7-22.7c6.4,11.5,2.8,29.1-4.5,15.7
					c-0.1,5.7-0.2,13.6-4.7,7.3c-1.6,2.4-2,6-4.7,5.9c-4.4-0.3-7.5-15.7-7.9-22.5c-0.2,4-0.6,11.7-2.9,13c-1.9,1.1-4-2-5.9-2.1
					s-3.9,2.3-6,2c-0.2-3.5,0-7-0.3-10.5c-1,4.1-2.5,9.1-5.2,12.7c-1.5-10.6-3-26.7-7.5-35.5c0.4,0.8,0.1,12,0.1,13.7
					c0.2,8-1,15-4.8,21c-10.2,16.6-15.4-7.7-18.9-18.7c0.5,7.8-2.1,19.3-6.3,24.3c-1.3-2.2-2.4-4.5-3.1-7c-3.1,9.2-4.7,10.5-9.2,3.3
					c-2.2,7.7-6.3,4.7-8.3-1.5c-1.6-5.2-0.8-11.6-2.2-17c-4.4,4-8.7,15.3-10.1,22.7c-3.1,0.7-5.1-3.8-7.6-3
					c-2.3,0.8-3.8,7.4-6.3,8.8c-4.6,2.5-4.2-6.3-8-7.2c-3.5-0.8-5,6.9-9.2,5.2c-4.4-1.8-7.6-13.5-10-18.6c0,9.6,0.2,16.5-7.7,17.4
					c-2,0.2-2.3-1.4-4.3-0.5c-3.9,1.7-11.1,10.3-15,7.9c-2.9-1.8-3.8-12.4-4.3-17.2c0,7.2-4.1,23.4-7.6,9.8c-2.9,3.7-4,5.7-8.1,6.4
					c-2.3,0.4-5.7-7.2-7.6-17.7c-1.9,3.2-1,13.2-5.8,12.1c-4.2-0.9-5.2-9.8-7.3-13c-1.1,2.4-4.4,7.9-5.8,7.1c1-11.2-2.8-17-4.9-20.1
					c3.3,14-7.4,22.7-14.9,28.4c0-1-3.4-5.3-3.5-6.4c-4.9,7.9-6.5,0.2-10.8-2.7c-0.4,1.1,0.3,5.6-2.5,6.4c0.2-3.1-1.9-8.4-2.3-11.3
					c-2.1,1-1.3,8.1-2.4,7.8c-3.7-13.9-5.5-11.8-6.3-16c0,10.5-3,17.9-2.8,27.2c-2.5-3.6-3.5-8-2.6-12.3c-1.9,6.1-6.4,13.3-10.3,7.6
					c-1.3-1.9-1.5-6.8-2-9.4c-1.2,6.5-4.4,16-9.6,16.5c-5.5,0.6-7.6-7.7-8.1-15.2c-0.4,5.8-1.3,13.6-5.4,15.3
					c-3.1,1.3-7.1-2.2-8.2-8.6c0,2.8-5.8,7-7.1,8.5c-2.7,3.1-5.8,6.4-6.7,11.5c-3.1-4.8-5.2-17.5-2.5-25.5c-2.6,4.9-4.5,15-7.8,12.8
					c-1.6-1.1-5.1-13.5-3.4-16.5c-3,2.4-7.7,10-8.5,16c-1.2-1.2-2-3.3-2.6-5.6c-2.1,3.8-3.6,9.5-7.4,10c-1-2.6-1.4-6-0.5-8.5
					c-1.2,1.8-2.1,7.1-4.9,8.2c-0.6-6.6-2.1-12.2-0.9-19.2c-3,7.6-5.8,8.8-7.9,11.7c-2.8,3.8-4.9,9.2-8.5,11s-3.9-6-3.8-11.2
					c-2,4-4.8,8.9-7.8,10.9c-0.1-1.1-0.9-2.2-1-3.5c-1.6,0.6-3.2,1.4-4.9,1.1c-0.1-1-0.4-1.5-0.6-2.3c-2.1,2-8.8,7-11.3,5.6
					c-6-3.3-3.5-16.4-1-21.8c-2.8,3.7-8.2,7.1-11.2,12.5c-2,3.6-2.2,7-5.5,8.5c-1.5-4.8-2.7-10.7-2.1-16.1
					c-2.1,4.5-12.2,20.4-13.5,6.5c-1.1,3.5-3,9.2-5.6,10.8c-3.8,2.3-5.1-5.6-5.5-5.5c-3.5,1.2-4-3-3.7-7.4c-1.5,3.5-1.5,7.6-4,8.3
					c-1.8,0.5-2.1-2.7-3.6-2.1c-0.9,0.3-1.8,3.2-3.2,6.9v9.7h3001.9v-9.7C2117.7,804.4,2116.7,801.5,2115.7,801.2z"/>
				<path class="st4" d="M2122.2,870.7c-1.6-1.4-1.9,6.9-3.9,5.6c-2.7-1.9-2.7-12.6-4.4-21.8c0.3,11.6-0.2,22.5-4,19.4
					c-0.4-0.3-1.8,20.2-5.9,14.3c-2.9-4-4.9-19.1-6-28.2c-1.4,36.2-12.4-5.3-14.7-17.1c0.6,13.9-0.7,29.4-2.3,42
					c-3.5-4-3.8-13-6-22.3c-3.2-14-9.1-23-12.1-32.7c2.7,14.1,5.5,48.4-1,57c-2.7,3.5-10-9.4-12.3-14.7c-0.2,2.1-0.5,3.6-0.6,6.1
					c-1.9,0.8-3.7-1.2-5.4-2.8c-0.1,3.4-0.9,6.1-1.1,9c-3.3-5.4-6.4-18.1-8.5-28.6c0.1,13.5-0.2,33.8-4.2,29.2s-6.3-18.8-9.3-28.7
					c-2.3-7.5-5.4-10.8-8.6-30.7c1.3,18.2-0.4,32.8-1,50.2c-3.1-2.8-4-16.8-5.4-21.4c1,6.6,0.5,15.5-0.5,22.2c-4.1-1.1-5.8-16-8-26
					c-0.7,5.8-1.5,11.5-2.8,14.5c-0.9-15.6-6-35.6-9.3-41.8c1.8,8-2,40.4-3.7,43.2c-3.7,5.8-5.7-20.5-8.5-33.4
					c2.9,20.9,0.6,54.2-2.8,66.6c-1-13.4-4.4-22.1-7.3-30.1c-1.4-3.9-7.7-14.9-7.7-22.2c-1.2,16.7-5.5,25.9-8.9,22.5
					c-4.4-4.5-5.5-25-5.9-40.1c-0.5,19.6-2.8,41.3-8.8,39.7c-5.6-1.4-9.1-26.2-10.4-43.1c-0.5,6.7-0.8,19.5-2.2,24.4
					c-4.3,15.1-9.2-3.9-11.2-19.8c0.8,11.5,0.1,22.8-2.8,32.2c0.2-24.1-3.1-43.6-3.1-71c-0.9,11-2.8,5.4-6.9,41.8
					c-1.2,0.9-0.4-17.7-2.7-20.3c-0.5,7.6-2.7,21.4-2.5,29.6c-3-2.1-2.3-13.9-2.7-16.7c-4.7,7.5-6.5,27.7-11.8,7.1
					c-0.2,2.8-3.8,14.3-3.8,16.8c-8.2-15.1-19.9-37.7-16.2-74.2c-2.2,8-6.4,23.1-5.3,52.4c-1.5,2-5.2-12.4-6.3-18.6
					c-2.3,8.2-3.4,31.4-8,33.9c-5.3,2.8-4.3-23.3-6.3-31.6c-2.1,27.6-5.8,47.4-8.3,46.3c-4.5-1.8-5.6-7-8.8-16.8
					c-3.8,35.5-8.2-7-8.2-25.7c-0.6,12.5-1.5,40.3-4.7,45c-4.2,6.4-12-16-16.3-20.5c-2.1-2.3-2.6,2-4.7,1.4
					c-8.6-2.3-8.4-20.2-8.3-45.4c-2.5,13.4-6,43.9-10.8,48.5c-4.6,4.5-6.3-15.6-10.1-13.5c-4.1,2.3-3.7,25.5-8.7,18.8
					c-2.8-3.6-4.3-21-6.9-23c-2.7-2.2-4.9,9.7-8.2,7.8c-1.5-19.3-6.2-48.9-11-59.2c-1.5,14.2-0.7,30.7-2.4,44.4
					c-2.1,16.3-6.6,24.1-9,4c-4.9,18.7-6.7,15.5-10-8.7c-0.9,6.5-1.9,13.4-3.3,18.2c-4.5-13.1-7.4-43-6.8-63.5
					c-3.8,28.9-9.4,92.2-20.5,48.9c-4-15.7-5.3-34.1-5.2-54.9c0-4.4-0.3-33.8,0.1-35.9c-4.9,23-6.4,65.1-8.1,92.8
					c-2.9-9.4-4.5-22.4-5.6-33c-0.4,9.1-0.1,18.3-0.4,27.3c-2.4,0.8-4.4-5.5-6.6-5.3s-4.3,8.4-6.4,5.4c-2.5-3.5-2.9-23.7-3.2-34
					c-0.5,17.8-3.9,58-8.6,58.8c-3,0.5-3.3-9-5.1-15.3c-4.9,16.4-5-4.2-5.1-19c-8,35-11.9-10.9-4.9-41
					c-4.2,12.5-19.4,56.2-19.3,59.3c-0.4-11.2,0.7-33.5-0.8-42.8c-0.4-2.4-7.2,31.8-7,40.4c-3.1-5.6-2.3-33.1-8.2-48.2
					c-0.3,30.6-7.4,45.1-12.3,17.9c-1.8,5.5-3.2,17.5-5.8,16.8c-4.1-1.1-4.8-28.1-5.2-38.6c-0.7,8.8-3.3,36.1-7.2,32.4
					c-1.3-1.2-6.4-37-5.8-46.5c-2.3,8-4.8,28.6-6.7,33.8c-2.1,6-3.3,2.8-5.2-9.7c0,7.1-0.9,23.4-3.6,23.9c-2.9,0.5-5.4-28.1-6-34.6
					c0.2,11.3,0.7,46.3-4.2,48c-3-15.1-8.9-29-13.9-22.1c-0.1-8.6-1.1-16.6-2.9-22.4c-0.9,2.6-5.2,28.8-5.5,28.7
					c-5.3-1.8-5.5-20.7-7.8-26c-0.4,6.5-2.2,10.8-4.9,9.4c-1.5-9.5-3.1-23.4-7.1-27.9c-2.3,8.9-5.8,34-11.4,29.4
					c-3.4-2.8-5.9-22.8-4.4-29.7c-2.4,5.3-7.4,29.3-11.8,25.9c-1.2-1-6.3-21.1-9.9-20c3.4,2.7,3,19.3-0.5,20
					c-0.7,0.2-7-13.5-7.2-10.2c-0.4,8.3-2.2,14.9-4.4,13.2c0-1.6-0.6-17.4-0.6-17.4c-3.1,6.8-5.4,17-9.1,25.5
					c4.6-19.6-4.9-26.7-5.5-39.9c-2.3,29.3-7.7,59.6-15.2,35.7c-1.3,5.3-2.8,13.7-5,14.5c-0.4,0.1-3.9-37.2-5.3-40.8
					c-0.1,9.4-2,16.2-3.1,24.6c-3.2-10.2-6.4-24.8-6.2-50.4c-1.5,24.1-11,83.3-15.2,32.7c0.1,18.5-5.5,45.3-8.6,19
					c-2.1,13.9-6,8.3-6.6-5.9c-1.7,9.9-3.3,31.4-7.1,30.5c-2.1-20.6-0.4-42.6-5.5-60c-0.3,10.2-1.1,24.5-3.5,31.1
					c-5.1,14-21.6,1.8-18.6-15.9c-2.8,7.3-2.3,36.5-5.5,49.4c-6.3-3.4-7.8-41.7-13.3-44c-1.1-0.5-3.8,10-5,11.3
					c-4.6,4.4-4.1-2.8-4.6-19.2c-1.9,5.8-5,21.8-7.8,19.3c-5.5-5.2-1-32.9-1.4-44.4c-4.4,9.6-7.7,30.2-11.5,43.1
					c-4.7,15.8-5.3,10.7-8.6-5c-5.9-28.1-3.2,13.3-9.8,15.9c-3.6,1.4-5.1-14.2-6.2-23c-1.4,7.2-2.4,23.8-5.4,21.2
					c-2.8-2.4-3.4-20.6-3.8-28.6c-0.3,22-5.8,33.5-9.2,18.1c-2.9-13.3-3.1-37.7-3.6-54.3c-0.7,25.6-0.4,53.6-7.6,59
					c-7,5.3-9.3-23.4-12.3-40.3c-0.2,8-0.7,21.5-3.5,16.4c-0.2,2.7-3,23.8-4.5,19c-2.4-7.8-4.2-18.9-5.1-34.6
					c-0.3,16.8-0.9,39.5-4.5,48.5s-9-4.4-12.2-13.1c-2.1-5.8-7.1-40.6-4.5-48.5c-3.7,5.8-5.8,31.2-10.8,37.6
					c-3.7-24-4.4,31.9-8.7,36.3c-3.8,3.8-9.9-29.8-12-33.1c-0.3,10.2,0.4,25.5-2.3,32.5c-4.2,10.8-6.7-6.3-8-19.4
					c0.1,12.3-2.3,23.4-6,21.2c-0.9-0.5-9.3-23-9.3-24.6c0.1,2.7-0.1,5.3,0.1,8c-6,8.9-11.5-0.2-16.8-10.4
					c6.8,27.2-16.3,15.4-17.2,1.8c-1.9,4-3.2,15.7-5.8,20.2c-2.4-10.5-5-24.2-8.3-30.5c-0.6,7.8-2.3,15-4.4,17.8
					c0.2-0.3-7.6-38.4-8.2-42c-3.5,3.3-5.9,13.2-9.4,17.1c-4.8,5.5-4.7,1.8-5.5-18.4c-1.2,13.5-7.5,42.1-11.7,39.5
					s-2.6-30.3-2.5-42.4c-4.3,45.1-16.6,12.3-18.8-20.5c-0.3,2.9-0.1,37.5-1.4,34.9c-1.7-3.4-2.1-7.6-2.8-17.6
					c-0.2,41.5-5.7,27.2-9.6,3.1c-1.2,13.5-1.1,36.6-4.1,47.2c-5-11-6.8-42.8-9.2-61.4c-1.4,14.2-4.9,27.6-9.3,27.7
					c-1.7,0.1-2.3-10.4-1.6-10.9c-2.4,0.6-3.6,7.8-5,8.3c-3.4,1.2-4.5-17.3-4.6-23.7c-0.5,5.9-0.7,18.8-2.5,22.5
					c-1.7,3.4-6.5,1.7-8.6,1.2c-2.9-0.8-4-7.7-6.5-8.5c-0.8-0.2-4.5,8.7-6.8,3.7c-1.9-4-2.5-16.9-3.1-22.7
					c-1.6,6.7-3.9,14.7-6.6,18.7c-7.4,10.9-6-4.5-11.3-16.6c2,24.7-2,34.4-2.4,35.7c-4.9,17.1-8.6-8.1-10.8-29.1
					c0.5,9.8,1.7,28.6-0.2,35.5c-2.1,7.8-4.6,3.9-5-8.1c-2.1,16.2-7.5,14.1-8-6.3c-2.5,20.1-5.5,5.7-7.5-6.5
					c0.1,8.2-2.7,22.3-5.1,18s-1.2-23.7-1.3-31.1c-3.4,9.3-5,23.8-7.8,33.7c-4.4,15.6-3.9,6.3-6.4-7.1c-2.9,33.1-12.8-4.2-15-27.3
					c1,24.8-2.2,42.3-7.9,33.8c-4.6-7-6.8-27-11.3-6c-1.8-4.7-7.1-22.3-9-27.4c0.9,9.9,0.8,21.4-1.5,28.3c-1.6,5-6.1,4-8.3,8.1
					c-0.2,0.4-5.4-1.6-5.1-7.2c-4.2,6.4-6.9,6-8.8-6.2c-1.3,4.6-3.8,20.2-6,14.8c-2.5-6.2,0.3-32.1,0.2-40.7
					c-2.8,11.9-6.2,21-7.1,36.8c-2.3,2-12.9,0.8-11.4-12.1c-1.5,1.4-12.3,37.5-9.9,9.9c-3,17.4-4.7,34.5-11,23
					c-7-12.7-5.3-35.8-4.6-57.7c-1.3,16.4-3,42.1-6.7,53.9c-1.6,5.1-4,9.1-6.1,6.8c-1.8-1.9-3.3-9-3.5-14.5c-7,20.3-8.8-9-10.8-28.1
					c0.5,14.6-3.5,29.7-6.7,33.9c-5,6.5-4.6-4.7-8.4-13.4c-5.1,21.7-10.3,14.5-7.3-14.3c-3,2.4-6.5,17.1-7.8,26.7
					c-0.8-15.8-10.5-33-12.8-34.7c4.2,10.2,3,46-1.8,47.6c0.3-10.3-2.8-16.3-4.8-21.3c-1.9,13-1.9,28.6-7.2,27.1
					c-2.6-0.7-7.1-9.8-8.6-24.1c-0.2,63.1-22.5-6.2-28.8-16.2c0,9.5-1.3,19.5-3.2,25.7c-2.7-19.3-11.2-35-13.9-40.3
					c2.5,9.7,3.4,25.1,1.5,37.2c-3.4,20.8-5.9,6.2-9-0.7c-0.9-2.1-6.7-9.1-11.1-8.4c-4-0.7-9.3,6.3-10.2,8.4
					c-2.8,6.9-5.1,21.5-8.2,0.7c-1.8-12-1-27.5,1.3-37.2c-2.6,5.3-10.3,21-12.8,40.3c-1.8-6.2-2.9-16.2-3-25.7
					c-5.8,10-26.3,79.2-26.5,16.2c-1.4,14.3-5.6,23.3-7.9,24.1c-4.8,1.5-4.8-14.1-6.6-27.1c-1.9,5.1-4.6,11.1-4.4,21.3
					c-4.5-1.6-5.6-37.5-1.7-47.6c-2,1.8-11,18.9-11.7,34.7c-1.2-9.6-4.4-24.3-7.1-26.7c2.7,28.8-2.1,36-6.8,14.3
					c-3.5,8.7-3.1,19.8-7.7,13.4c-3-4.2-6.6-19.3-6.2-33.9c-1.9,19.2-3.5,48.4-9.9,28.1c-0.2,5.5-1.6,12.5-3.2,14.5
					c-2,2.3-4.1-1.7-5.6-6.8c-3.4-11.8-4.9-37.5-6.1-53.9c0.7,22,2.2,45-4.2,57.7c-5.8,11.5-7.3-5.6-10.1-23
					c2.3,27.6-7.7-8.5-9.1-9.9c1.3,12.9-8.4,14.1-10.5,12.1c-0.9-15.8-4-24.9-6.5-36.8c-0.1,8.6,2.5,34.5,0.1,40.7
					c-2,5.4-4.3-10.3-5.5-14.8c-1.8,12.2-4.3,12.6-8.1,6.2c0.3,5.7-4.5,7.7-4.7,7.2c-2-4-6.1-3.1-7.6-8.1
					c-2.1-6.9-2.1-18.4-1.3-28.3c-1.8,5.1-6.6,22.8-8.3,27.4c-4.1-21-6.2-1-10.4,6c-5.2,8.5-8.2-9-7.3-33.8
					c-2,23.1-11.1,60.4-13.8,27.3c-2.3,13.5-1.9,22.7-5.9,7.1c-2.6-9.9-4-24.4-7.1-33.7c-0.1,7.4,1,26.9-1.2,31.1s-4.8-9.8-4.7-18
					c-1.9,12.2-4.6,26.5-6.9,6.5c-0.4,20.4-5.4,22.5-7.4,6.3c-0.4,11.9-2.7,15.8-4.6,8.1c-1.7-7-0.7-25.8-0.2-35.5
					c-2,21-5.4,46.2-9.9,29.1c-0.4-1.3-4-11-2.2-35.7c-4.8,12-3.6,27.5-10.4,16.6c-2.5-4-4.6-11.9-6.1-18.7
					c-0.6,5.8-1.1,18.7-2.9,22.7c-2.1,5-5.5-4-6.2-3.7c-2.2,0.8-3.3,7.7-6,8.5c-1.9,0.5-6.4,2.3-7.9-1.2c-1.6-3.7-1.9-16.5-2.3-22.5
					c-0.1,6.3-1.1,24.8-4.3,23.7c-1.3-0.5-2.4-7.7-4.6-8.3c0.6,0.5,0.1,10.9-1.4,10.9c-4.1-0.1-7.3-13.5-8.6-27.7
					c-2.2,18.6-3.9,50.4-8.4,61.4c-2.7-10.5-2.7-33.7-3.8-47.2c-3.6,24.1-8.7,38.4-8.8-3.1c-0.6,10-1,14.2-2.5,17.6
					c-1.2,2.6-1-31.9-1.3-34.9c-2,32.8-13.4,65.6-17.3,20.5c0.1,12.1,1.6,39.7-2.3,42.4s-9.7-26-10.7-39.5
					c-0.7,20.2-0.7,23.9-5,18.4c-3.1-3.9-5.4-13.8-8.6-17.1c-0.5,3.6-7.7,41.7-7.5,42c-2-2.8-3.5-10-4.1-17.8
					c-3,6.3-5.5,20-7.7,30.5c-2.5-4.5-3.6-16.2-5.4-20.2c-0.8,13.6-22.1,25.4-15.8-1.8c-4.8,10.3-10,19.3-15.4,10.4
					c0.1-2.7,0-5.4,0-8c0,1.7-7.8,24.1-8.6,24.6c-3.4,2.3-5.6-8.8-5.5-21.2c-1.4,13.2-3.6,30.2-7.5,19.5c-2.5-7-1.9-22.3-2.2-32.5
					c-1.9,3.3-7.5,36.9-11,33.1c-4-4.3-4.5-60.2-8-36.3c-4.7-6.4-6.6-31.7-10-37.6c2.4,7.9-2.1,42.7-4.1,48.5
					c-2.9,8.7-7.9,22.1-11.1,13.1S3,766,2.7,749.3C1.8,765,0.2,776.1-2,783.9c-1.4,4.8-3.9-16.3-4.1-19c-2.6,5.1-3-8.4-3.2-16.4
					c-2.8,16.8-4.9,45.5-11.3,40.3c-6.7-5.4-6.4-33.5-7-59c-0.5,16.6-0.7,41-3.3,54.3c-3.1,15.4-8.2,3.9-8.5-18.1
					c-0.3,8-0.9,26.2-3.5,28.6c-2.8,2.6-3.7-14-5-21.2c-1.1,8.8-2.4,24.4-5.7,23c-6-2.6-3.5-44-9-15.9c-3,15.6-3.5,20.8-7.9,5
					C-74,772.5-77,751.8-81,742.2c-0.4,11.5,3.8,39.2-1.3,44.4c-2.6,2.6-5.4-13.5-7.2-19.3c-0.4,16.3,0.1,23.6-4.2,19.2
					c-1.2-1.2-3.6-11.7-4.6-11.3c-5,2.3-6.4,40.6-12.2,44c-2.9-12.9-2.5-42.1-5.1-49.4c2.8,17.7-12.4,29.8-17.1,15.9
					c-2.2-6.7-3-20.9-3.2-31.1c-4.6,17.4-3.1,39.4-5.1,60c-3.5,0.9-5-20.6-6.6-30.5c-0.5,14.2-4.2,19.8-6.1,5.9
					c-2.9,26.3-8-0.5-7.9-19c-3.8,50.6-12.6-8.6-13.9-32.7c0.2,25.5-2.7,40.2-5.7,50.4c-1-8.3-2.7-15.2-2.8-24.6
					c-1.3,3.5-4.5,40.9-4.9,40.8c-2-0.8-3.3-9.2-4.6-14.5c-6.9,23.9-11.9-6.3-14-35.7c-0.6,13.2-9.3,20.3-5.1,39.9
					c-3.4-8.4-5.5-18.6-8.4-25.5c0,0-0.6,15.8-0.6,17.4c-2.1,1.7-3.7-4.9-4.1-13.2c-0.1-3.4-5.9,10.3-6.6,10.2
					c-3.2-0.7-3.6-17.3-0.5-20c-3.3-1.1-8,19-9.1,20c-4,3.4-8.6-20.6-10.8-25.9c1.4,6.9-0.9,26.9-4.1,29.7
					c-5.1,4.5-8.4-20.5-10.5-29.4c-3.6,4.5-5.1,18.3-6.5,27.9c-2.5,1.4-4.2-2.8-4.5-9.4c-2.1,5.4-2.4,24.3-7.2,26
					c-0.3,0.1-4.2-26.1-5-28.7c-1.7,5.8-2.6,13.8-2.7,22.4c-4.6-6.9-10.1,7.1-12.8,22.1c-4.5-1.7-4-36.6-3.8-48
					c-0.6,6.5-2.9,35.1-5.5,34.6c-2.5-0.5-3.3-16.8-3.3-23.9c-1.7,12.5-2.8,15.7-4.8,9.7c-1.7-5.2-4-25.8-6.1-33.8
					c0.6,9.5-4.1,45.2-5.3,46.5c-3.5,3.7-6-23.6-6.6-32.4c-0.4,10.5-1,37.5-4.8,38.6c-2.4,0.7-3.6-11.4-5.3-16.8
					c-4.6,27.2-11,12.7-11.3-17.9c-5.4,15.1-4.7,42.5-7.5,48.2c0.1-8.6-6.1-42.8-6.5-40.4c-1.4,9.3-0.3,31.6-0.7,42.8
					c0.1-3-13.9-46.8-17.7-59.3c6.4,30.1,2.8,76-4.5,41c-0.1,14.9-0.2,35.5-4.7,19c-1.6,6.3-2,15.8-4.7,15.3
					c-4.4-0.8-7.5-41-7.9-58.8c-0.2,10.4-0.6,30.6-2.9,34c-1.9,2.9-4-5.2-5.9-5.4s-3.9,6-6,5.3c-0.2-9,0-18.2-0.3-27.3
					c-1,10.7-2.5,23.7-5.2,33c-1.5-27.8-3-69.8-7.5-92.8c0.4,2.1,0.1,31.5,0.1,35.9c0.2,20.8-1,39.2-4.8,54.9
					c-10.2,43.3-15.4-20-18.9-48.9c0.5,20.5-2.1,50.4-6.3,63.5c-1.3-4.8-2.2-11.7-3.1-18.2c-3.1,24.2-4.7,27.4-9.2,8.7
					c-2.2,20.1-6.3,12.3-8.3-4c-1.6-13.7-0.8-30.3-2.2-44.4c-4.4,10.3-8.7,39.9-10.1,59.2c-3.1,1.9-5.1-10-7.6-7.8
					c-2.3,2-3.8,19.4-6.3,23c-4.6,6.7-4.2-16.5-8-18.8c-3.5-2-5,18-9.2,13.5c-4.4-4.6-7.6-35.1-10-48.5c0,25.2,0.2,43.1-7.7,45.4
					c-2,0.6-2.3-3.7-4.3-1.4c-3.9,4.5-11.1,26.9-15,20.5c-2.9-4.7-3.8-32.5-4.3-45c0,18.7-4.1,61.2-7.6,25.7
					c-2.9,9.7-4,14.9-8.1,16.8c-2.3,1-5.7-18.8-7.6-46.3c-1.9,8.3-1,34.4-5.8,31.6c-4.2-2.4-5.2-25.7-7.3-33.9
					c-1.1,6.2-4.4,20.5-5.8,18.6c1-29.4-2.8-44.4-4.9-52.4c3.3,36.6-7.4,59.2-14.9,74.2c0-2.5-3.4-14-3.5-16.8
					c-4.9,20.6-6.5,0.4-10.8-7.1c-0.4,2.8,0.3,14.5-2.5,16.7c0.2-8.2-1.9-22-2.3-29.6c-2.1,2.6-1.3,21.2-2.4,20.3
					c-3.7-36.4-5.5-30.8-6.3-41.8c0,27.4-3,46.9-2.8,71c-2.7-9.5-3.3-20.7-2.6-32.2c-1.9,15.8-6.4,34.9-10.3,19.8
					c-1.3-5-1.5-17.7-2-24.4c-1.2,16.9-4.4,41.7-9.6,43.1c-5.5,1.5-7.6-20.1-8.1-39.7c-0.4,15.1-1.3,35.6-5.4,40.1
					c-3.1,3.5-7.1-5.8-8.2-22.5c0,7.2-5.8,18.3-7.1,22.2c-2.7,8-5.8,16.7-6.7,30.1c-3.1-12.4-5.2-45.7-2.5-66.6
					c-2.6,12.8-4.5,39.2-7.8,33.4c-1.6-2.8-5.1-35.2-3.4-43.2c-3,6.2-7.7,26.2-8.5,41.8c-1.2-3-2-8.7-2.6-14.5
					c-2.1,10-3.6,24.9-7.4,26c-1-6.7-1.4-15.6-0.5-22.2c-1.2,4.6-2.1,18.7-4.9,21.4c-0.6-17.3-2.1-31.9-0.9-50.2
					c-3,19.9-5.8,23.1-7.9,30.7c-2.8,9.9-4.9,24-8.5,28.7s-3.9-15.7-3.8-29.2c-2,10.5-4.8,23.2-7.8,28.6c-0.1-3-0.9-5.7-1-9
					c-1.6,1.7-3.2,3.6-4.9,2.8c-0.1-2.5-0.4-4-0.6-6.1c-2.1,5.2-8.8,18.2-11.3,14.7c-6-8.6-3.5-42.9-1-57
					c-2.8,9.8-8.2,18.7-11.2,32.7c-2,9.3-2.2,18.4-5.5,22.3c-1.8-13.9-2.5-28-2.1-42c-2.1,11.8-12.2,53.3-13.5,17.1
					c-1.1,9.1-3,24.1-5.6,28.2c-3.8,5.9-5.1-14.6-5.5-14.3c-3.5,3.1-4-7.8-3.7-19.4c-1.5,9.3-1.5,19.9-4,21.8
					c-1.8,1.3-2.1-7-3.6-5.6c-0.9,0.8-1.8,8.3-3.2,18v25.4h3001.8v-25.3C2124.2,879,2123.2,871.5,2122.2,870.7z"/>
				<path class="st5" d="M84.3,803.2c-12.9,1.1-6.2-94.2,3.9-121.8C99.1,723.2,114.3,800.6,84.3,803.2z"/>
				<path class="st5" d="M95.5,810.7c0.5-1.9-63.2-141.6-69.3-149.7C49.6,685.3,117,796.5,96,808.9L95.5,810.7z"/>
				<path class="st5" d="M116.1,817.5C90.9,820.6,0.7,695.6-9.2,672C42,709,122,816.8,116.1,817.5z"/>
				<path class="st5" d="M112.8,818.2c4.7,0,9.4,0,14.1,0.1c12.1-21.8,4.3-85.4,0.6-137.5c-17.1,1.9-25.7,107.8-16.4,137.4
					L112.8,818.2z"/>
				<path class="st5" d="M112.8,818.2h4.2c-8.2-41.2-53-153.7-68.4-168.7c-3.9,9.5,40.1,135.8,51.8,168.8
					C104.5,818.2,108.7,818.2,112.8,818.2z"/>
				<path class="st5" d="M74.1,818.9c6.1-0.2,12.2-0.4,18.3-0.5c-24.7-17.8-71.9-44.3-128.3-70.8c0.3,4.3,0.6,8.5,0.9,12.7
					C8.3,783.3,47.3,804.4,74.1,818.9z"/>
				<path class="st5" d="M85.2,818.5c8.2-0.2,16.3-0.3,24.5-0.3C82,788.7,23,741.4-37.9,704c0.1,5.1,0.3,10.2,0.5,15.3
					C3,754.4,52.1,793.9,85.2,818.5z"/>
				<path class="st5" d="M13.7,804.3c18.7,7.2,30.4,10.8,43.3,15.2c8.7-0.4,17.4-0.7,26.1-0.9C44,799.5-15.6,771.7-22.1,770.8
					c-4-0.4-8-0.6-12-0.6c0.5,5.3,1,10.7,1.6,16.1C-21.2,790.7-6.3,796.6,13.7,804.3z"/>
				<path class="st5" d="M120.4,812.5c12.6,4.5,26.9-95.8,25.1-125.1C122,724.6,91.1,801.9,120.4,812.5z"/>
				<path class="st5" d="M144.6,818.7c10.1-22.7,60.2-124.3,65.6-130.3c-22.2,18.4-83.6,107.8-70.1,130.2L144.6,818.7z"/>
				<path class="st5" d="M149.2,818.8c33.3-21,88.9-104.1,92.1-123c-37.1,25.3-96.6,102.6-106.8,122.7
					C139.4,818.6,144.3,818.7,149.2,818.8z"/>
				<path class="st5" d="M112.8,818.2c2.8,0,5.6,0,8.4,0.1c8.4-30.1-4.5-149.8-21.8-155.9c-1.8,59.7-7.6,132.3,8.2,155.9
					L112.8,818.2z"/>
				<path class="st5" d="M133.2,818.5c13.1-36,51.8-143.4,47.9-153.3c-15.1,11.6-57.8,113-66,153.1
					C121.1,818.2,127.1,818.3,133.2,818.5z"/>
				<path class="st5" d="M164,819.2c53-24.8,108.3-44.5,165-58.8c-97,11.4-161.4,37.9-190.2,58.2C147.2,818.8,155.6,819,164,819.2z"
					/>
				<path class="st5" d="M162.5,819.2c46.2-26,112.4-67.8,149.1-95.9c-72.2,21.7-148.5,66.3-185.5,95.1
					C138.2,818.5,150.4,818.8,162.5,819.2z"/>
				<path class="st5" d="M185.4,819.7c7.9,0.1,15.7,0.2,23.5,0.3c6.6-1.7,13.5-3.5,20.7-5.5c-24.4-3.1-49.1-0.1-69.5,4.6
					C168.6,819.3,177,819.5,185.4,819.7z"/>
				<path class="st5" d="M101.8,818.3c3.7,0,7.3,0,11,0h4.7c3.7-18.5,7.6-53.5-10-76.3c0,0-24.2,45-11.6,66.9
					C98.1,812.6,100.1,815.7,101.8,818.3z"/>
				<path class="st5" d="M65.3,807.3c6.5,4.3,12.5,8,17.9,11.3c7.2-0.2,14.3-0.3,21.4-0.3c-15.1-25.1-49.8-71.1-108.5-95.1
					C-3.8,723.1,35.8,788,65.3,807.3z"/>
				<path class="st5" d="M106.7,818.2c0.9-1,1.2-0.9,1.2,0h4.8c6.5,0,13,0.1,19.5,0.2c27.8-33,73.9-107.5,47.1-83.2
					C146,765.6,107.3,817.5,106.7,818.2L106.7,818.2z"/>
				<path class="st5" d="M185.4,819.7l7.5,0.1c56.7-13.9,130-34.4,158.3-41.5c-94.5,7.2-160.3,26.9-196.4,40.7
					C165,819.2,175.2,819.5,185.4,819.7z"/>
				<path class="st5" d="M72.5,818.9c-13-3.3-54.6-10.8-96.5-9.7c21.6,3.6,41.7,7.4,59.5,11.2C47.8,819.9,60.1,819.3,72.5,818.9z"/>
				<path class="st5" d="M1489.2,805.1c16.4,1.5,7.9-125.3-4.9-162.1C1470.3,698.6,1450.9,801.6,1489.2,805.1z"/>
				<path class="st5" d="M1474.9,815.1c-0.6-2.5,80.5-188.4,88.4-199.1c-29.9,32.2-115.8,180.1-89,196.6L1474.9,815.1z"/>
				<path class="st5" d="M1448.6,824.1c32.2,4.1,147.1-162.2,159.7-193.6C1543,679.8,1441.2,823.2,1448.6,824.1z"/>
				<path class="st5" d="M1452.9,825c-6,0-12,0.1-18,0.2c-15.5-28.9-5.5-113.6-0.8-183c21.8,2.6,32.8,143.4,20.9,182.8L1452.9,825z"
					/>
				<path class="st5" d="M1452.9,825h-5.3c10.4-54.7,67.5-204.5,87.1-224.4c5,12.6-51.1,180.6-66,224.5
					C1463.4,825.1,1458.2,825,1452.9,825z"/>
				<path class="st5" d="M1502.2,825.9c-7.8-0.3-15.6-0.5-23.3-0.6c31.5-23.7,91.6-58.9,163.5-94.2c-0.4,5.6-0.8,11.3-1.2,16.9
					C1586.1,778.6,1536.3,806.6,1502.2,825.9z"/>
				<path class="st5" d="M1488,825.5c-10.4-0.3-20.8-0.4-31.2-0.4c35.3-39.2,110.5-102.2,188.1-152c-0.2,6.8-0.4,13.6-0.6,20.4
					C1592.8,740.2,1530.2,792.7,1488,825.5z"/>
				<path class="st5" d="M1579.1,806.5c-23.9,9.6-38.8,14.4-55.2,20.2c-11.1-0.5-22.2-0.9-33.3-1.2c49.9-25.4,125.9-62.3,134.2-63.6
					c5.1-0.6,10.2-0.8,15.3-0.7c-0.7,7.1-1.4,14.2-2.1,21.4C1623.7,788.5,1604.7,796.3,1579.1,806.5z"/>
				<path class="st5" d="M1443.1,817.4c-16.1,6-34.2-127.5-31.9-166.4C1441.1,700.5,1480.5,803.3,1443.1,817.4z"/>
				<path class="st5" d="M1412.4,825.7c-12.9-30.2-76.7-165.4-83.6-173.4c28.3,24.4,106.6,143.4,89.3,173.2L1412.4,825.7z"/>
				<path class="st5" d="M1406.5,825.8c-42.5-27.9-113.4-138.5-117.4-163.6c47.3,33.6,123.2,136.5,136.1,163.2
					C1419,825.5,1412.7,825.7,1406.5,825.8z"/>
				<path class="st5" d="M1452.9,825c-3.6,0-7.1,0-10.7,0.1c-10.7-40.1,5.7-199.2,27.8-207.4c2.2,79.4,9.7,176-10.4,207.4
					C1457.3,825,1455.1,825,1452.9,825z"/>
				<path class="st5" d="M1426.9,825.3c-16.7-47.8-66-190.8-61.1-204c19.3,15.4,73.7,150.3,84.1,203.7
					C1442.3,825.1,1434.6,825.2,1426.9,825.3z"/>
				<path class="st5" d="M1387.7,826.3c-45.6-22.5-118.3-53.8-210.4-78.2c123.7,15.2,205.7,50.4,242.4,77.4
					C1409,825.8,1398.3,826,1387.7,826.3z"/>
				<path class="st5" d="M1389.6,826.3c-58.9-34.6-143.3-90.2-190-127.5c92,28.9,189.3,88.2,236.4,126.5
					C1420.5,825.4,1405,825.9,1389.6,826.3z"/>
				<path class="st5" d="M1360.3,827c-10,0.2-20,0.3-30,0.4c-8.4-2.2-17.2-4.7-26.4-7.2c31-4.1,62.6-0.1,88.6,6.1
					C1381.8,826.5,1371,826.8,1360.3,827z"/>
				<path class="st5" d="M1466.9,825.1c-4.7-0.1-9.3-0.1-14-0.1c-2,0-4,0-6,0c-4.7-24.5-9.6-71.1,12.7-101.5c0,0,30.8,59.8,14.8,89
					C1471.6,817.6,1469.1,821.7,1466.9,825.1z"/>
				<path class="st5" d="M1513.3,810.5c-8.3,5.7-16,10.7-22.9,15c-9.1-0.2-18.2-0.4-27.3-0.5c19.3-33.4,63.5-94.6,138.3-126.6
					C1601.5,698.5,1551,784.8,1513.3,810.5z"/>
				<path class="st5" d="M1460.6,825.1c-1.2-1.4-1.6-1.2-1.6,0c-2.1,0-4.1,0-6.2,0c-8.3,0-16.6,0.1-24.9,0.3
					c-35.4-43.9-94.2-143-60.1-110.7C1410.5,755.1,1459.9,824.1,1460.6,825.1L1460.6,825.1z"/>
				<path class="st5" d="M1360.3,827l-9.5,0.1c-72.2-18.6-165.8-45.9-201.8-55.3c120.5,9.6,204.3,35.8,250.3,54.2
					C1386.3,826.4,1373.3,826.7,1360.3,827z"/>
				<path class="st5" d="M1504.3,826c16.5-4.5,69.6-14.3,123-12.9c-27.6,4.8-53.1,9.9-75.8,14.9C1535.7,827.2,1520,826.5,1504.3,826
					z"/>
				<path class="st6" d="M1562.7,662.5c0,0,43.2,90,65.9,146.4c11.4,28.4,19.3,51.7,24.6,67.7c-4,10-7.9,20-11.6,30
					c-8.1-13-31.6-45.9-57.9-82.8c-34-47.6-77.2-129.3-76.6-130.3s17.3,15.6,42.5,52.5s47.3,67.5,47.3,67.5s-7-15.5-20.1-40.2
					s-45.5-95.4-44.1-96.8s28.9,44.8,41.8,66.1s39.7,72.3,39.7,72.3s-10.8-29-18.7-49.8S1562.7,662.5,1562.7,662.5z"/>
				<path class="st6" d="M1640.8,908.8c-3,8.5-5.9,17-8.6,25.6c-1.3,4.3-2.6,8.6-3.8,12.9c-20.7-2.8-57.9-8.6-88.6-17.9
					c-45-13.7-144.2-39.8-144.2-43s60.7,2,107.5,18.1s88.4,27.9,88.4,27.9s-55.1-19.1-86.9-34.3s-97-43.1-96.4-44.3
					s71.2,20.5,106.6,36.8s101.5,39.4,101.5,39.4s-53.3-22.2-87.9-43.7s-121.2-70.4-121.2-70.4s81.8,29.5,129.2,57.2
					c19.8,11.6,49.5,27.3,76.9,41.3c-27-19.4-58.3-41.9-83-60c-55-40.4-108-94.2-106.6-96.2s24.7,16.2,54,38.9S1538,839,1538,839
					s-6.2-9.2-36.8-38.8s-60-63.9-57.5-64.8s42.1,38.4,76.2,68.5s65.8,57.4,65.8,57.4s-1.3-4-36-39.9s-83.6-101.2-82.4-102.2
					s48.2,45.4,95.4,95.3C1601.9,855.9,1630.8,896.5,1640.8,908.8z"/>
				<path class="st6" d="M47.6,662.5c0,0-43.2,90-65.9,146.4c-11.4,28.4-19.3,51.7-24.6,67.7c4,10,7.9,20,11.5,30
					c8.1-13,31.5-45.9,57.9-82.8c34-47.6,77.2-129.3,76.6-130.3S85.9,709,60.6,745.9s-47.3,67.5-47.3,67.5s7-15.5,20.1-40.2
					s45.6-95.4,44.1-96.8s-28.9,44.8-41.8,66.1S-4,814.8-4,814.8s10.8-29,18.7-49.8S47.6,662.5,47.6,662.5z"/>
				<path class="st6" d="M-30.5,908.8c3,8.5,5.9,17,8.5,25.6c1.3,4.3,2.6,8.6,3.9,12.9c20.7-2.8,58-8.6,88.6-17.9
					c45.1-13.7,144.2-39.8,144.2-43s-60.7,2-107.5,18.1s-88.4,27.9-88.4,27.9s55.1-19.1,86.9-34.3s97-43.1,96.5-44.3
					s-71.2,20.5-106.6,36.8S-6,930-6,930s53.3-22.2,87.9-43.7s121.2-70.4,121.2-70.4S121.3,845.4,74,873.1
					c-19.9,11.6-49.6,27.3-76.9,41.3c27-19.4,58.3-41.9,83-60c55-40.4,108-94.2,106.6-96.2s-24.8,16.2-54,38.9S72.2,839,72.2,839
					s6.2-9.2,36.8-38.8s60.1-63.9,57.5-64.8s-42,38.4-76.2,68.5s-65.8,57.4-65.8,57.4s1.3-4,36-39.9s83.6-101.2,82.5-102.3
					s-48.2,45.4-95.4,95.3C8.3,855.9-20.6,896.5-30.5,908.8z"/>
				<path class="st7" d="M826.3,785.3c0,0,11-7.5,32.1-9.3s-22.7-9.8-38.4,9.3C820.1,785.3,813,793.8,826.3,785.3z"/>
				<path class="st7" d="M796.6,786.3c0,0,32.1-23.9,50.9-30.3s-18-6.9-43.1,13C804.4,769.1,791.9,781,796.6,786.3z"/>
				<path class="st7" d="M787.2,786.3c0,0,21.3-38.8,31-43.6s-15.4-7.4-31,24.2C787.2,767,780.9,783.7,787.2,786.3z"/>
				<path class="st7" d="M775.8,786.3c0,0,8.2-35.6,16.1-40.9S762.1,751.3,775.8,786.3z"/>
				<path class="st7" d="M771.1,786.3c0,0,0.4-29.7-16.5-34.2S764.4,771.5,771.1,786.3z"/>
				<path class="st7" d="M765.6,786.3c0,0-10.6-34-36.4-34.8S749.6,764,765.6,786.3z"/>
				<path class="st7" d="M763.4,786.3c0,0-13.8-13.8-37.3-12.8S757.7,782.1,763.4,786.3z"/>
				<path class="st7" d="M1047.7,788.3c0,0,18.1-12.3,53-15.3s-37.4-16.2-63.3,15.3C1037.4,788.3,1025.7,802.3,1047.7,788.3z"/>
				<path class="st7" d="M998.6,790c0,0,52.9-39.4,83.9-49.9s-29.7-11.4-71,21.5C1011.5,761.6,990.9,781.3,998.6,790z"/>
				<path class="st7" d="M983.1,790c0,0,35.2-63.9,51.2-71.8c16-7.9-25.3-12.2-51.2,39.8C983.1,758.1,972.8,785.7,983.1,790z"/>
				<path class="st7" d="M964.4,790c0,0,13.6-58.7,26.5-67.4S941.8,732.2,964.4,790z"/>
				<path class="st7" d="M956.7,790c0,0,0.7-48.9-27.1-56.4S945.7,765.5,956.7,790z"/>
				<path class="st7" d="M947.6,790c0,0-17.4-56-60-57.3S921.1,753.3,947.6,790z"/>
				<path class="st7" d="M944,790c0,0-22.8-22.8-61.6-21S934.5,783,944,790z"/>
				<path class="st7" d="M678.5,785.4c0,0,11-7.5,32.1-9.3s-22.7-9.8-38.4,9.3C672.2,785.4,665.2,793.9,678.5,785.4z"/>
				<path class="st7" d="M648.7,786.5c0,0,32.1-23.9,50.9-30.3s-18-6.9-43.1,13C656.5,769.2,644,781.2,648.7,786.5z"/>
				<path class="st7" d="M639.3,786.5c0,0,21.3-38.8,31-43.5s-15.4-7.4-31,24.2C639.3,767.1,633,783.8,639.3,786.5z"/>
				<path class="st7" d="M628,786.5c0,0,8.2-35.6,16.1-40.9S614.2,751.4,628,786.5z"/>
				<path class="st7" d="M623.2,786.5c0,0,0.4-29.7-16.5-34.2S616.6,771.6,623.2,786.5z"/>
				<path class="st7" d="M617.8,786.5c0,0-10.6-34-36.4-34.8S601.7,764.2,617.8,786.5z"/>
				<path class="st7" d="M615.5,786.5c0,0-13.8-13.8-37.3-12.7S609.8,782.3,615.5,786.5z"/>
				<path class="st7" d="M492.9,800.6c0,0,20.7-14.1,60.7-17.6s-43-18.5-72.6,17.6C481.1,800.6,467.7,816.7,492.9,800.6z"/>
				<path class="st7" d="M436.6,802.6c0,0,60.7-45.2,96.3-57.2s-34.1-13.1-81.5,24.6C451.5,769.9,427.8,792.5,436.6,802.6z"/>
				<path class="st7" d="M418.9,802.6c0,0,40.4-73.3,58.7-82.4s-29.1-14.1-58.7,45.7C418.9,765.9,407,797.6,418.9,802.6z"/>
				<path class="st7" d="M397.4,802.6c0,0,15.5-67.3,30.4-77.3S371.5,736.3,397.4,802.6z"/>
				<path class="st7" d="M388.5,802.6c0,0,0.7-56.1-31.1-64.7S375.9,774.5,388.5,802.6z"/>
				<path class="st7" d="M378.1,802.6c0,0-20-64.2-68.9-65.8S347.8,760.4,378.1,802.6z"/>
				<path class="st7" d="M373.9,802.6c0,0-26.2-26.1-70.6-24.1S363.1,794.5,373.9,802.6z"/>
			</g>
		</g>
	</g>
</g>
</svg>
