<?xml version="1.0" encoding="utf-8"?>
<!-- Generator: Adobe Illustrator 26.0.3, SVG Export Plug-In . SVG Version: 6.00 Build 0)  -->
<svg version="1.1" id="Layer_1" xmlns="http://www.w3.org/2000/svg" xmlns:xlink="http://www.w3.org/1999/xlink" x="0px" y="0px"
	 viewBox="0 0 1367.5 1184.7" style="enable-background:new 0 0 1367.5 1184.7;" xml:space="preserve">
<style type="text/css">
	.st0{fill:url(#SVGID_1_);stroke:url(#SVGID_00000100379651127021189900000007587933375167925900_);stroke-miterlimit:22.93;}
	.st1{fill:url(#SVGID_00000046322749972631100680000008836859130849778060_);}
	.st2{fill:url(#SVGID_00000076564365506590230690000002585182841498357433_);}
	.st3{fill:url(#SVGID_00000098930079874211220810000006051516235669001131_);}
</style>
<g>
	<g id="Layer_1_00000155112926477446885650000018265317701718866332_">
		
			<linearGradient id="SVGID_1_" gradientUnits="userSpaceOnUse" x1="-3651.032" y1="674.3795" x2="-3805.782" y2="1230.3094" gradientTransform="matrix(-1 0 0 -1 -2585.3899 1184)">
			<stop  offset="7.000000e-02" style="stop-color:#195B4F"/>
			<stop  offset="0.21" style="stop-color:#2C7858"/>
			<stop  offset="0.46" style="stop-color:#4AA666"/>
			<stop  offset="0.68" style="stop-color:#60C770"/>
			<stop  offset="0.86" style="stop-color:#6DDC77"/>
			<stop  offset="0.98" style="stop-color:#72E379"/>
		</linearGradient>
		
			<linearGradient id="SVGID_00000063597383759570020110000016029257154245243008_" gradientUnits="userSpaceOnUse" x1="871.5388" y1="851.121" x2="1350.0387" y2="851.121" gradientTransform="matrix(1 0 0 -1 0 1184)">
			<stop  offset="0" style="stop-color:#72E379"/>
			<stop  offset="0.15" style="stop-color:#6FDE78"/>
			<stop  offset="0.33" style="stop-color:#66D073"/>
			<stop  offset="0.51" style="stop-color:#57B96C"/>
			<stop  offset="0.7" style="stop-color:#419962"/>
			<stop  offset="0.9" style="stop-color:#277055"/>
			<stop  offset="0.99" style="stop-color:#195B4F"/>
		</linearGradient>
		
			<path style="fill:url(#SVGID_1_);stroke:url(#SVGID_00000063597383759570020110000016029257154245243008_);stroke-miterlimit:22.93;" d="
			M995.2,491.2c5.6,0,319.5-8.3,319.5-8.3s56.9-11.3,25.1-81.1c-18.5-34.9-32-61.6-43.3-84.1c-11.6-23.2-42.9-58.5-63.9-78
			c-51.6-54-150.7-57.6-150.7-57.6l0,0c0,0-106.7-29.9-186.2,28.8c-8.9,6.5-13.2,10.1-16.6,16.2c-36.7,66.4,77.5,260.4,77.5,260.4
			L995.2,491.2z"/>
		
			<linearGradient id="SVGID_00000048500789754259107050000011988387281179637919_" gradientUnits="userSpaceOnUse" x1="23.0754" y1="914.4432" x2="1008.6976" y2="914.4432" gradientTransform="matrix(1 0 0 -1 0 1184)">
			<stop  offset="0.15" style="stop-color:#3E9360"/>
			<stop  offset="0.18" style="stop-color:#3E9360"/>
			<stop  offset="1" style="stop-color:#3E9360"/>
		</linearGradient>
		<path style="fill:url(#SVGID_00000048500789754259107050000011988387281179637919_);" d="M968.8,321.8c0,0-96.4-105.8-197.5-147.3
			C661,112.3,514.8-26.7,337.6,37.6C200.8,97.7,98.2,180.7,37.5,334.2C8,423.5,3.3,531.3,228.8,516.8l628.1,1.3
			C856.9,518.1,1102.6,494,968.8,321.8z"/>
		
			<linearGradient id="SVGID_00000014600520247448607560000007428343579499336354_" gradientUnits="userSpaceOnUse" x1="759.7649" y1="-40.9703" x2="742.4249" y2="847.1198" gradientTransform="matrix(1 0 0 -1 0 1184)">
			<stop  offset="0" style="stop-color:#907D61"/>
			<stop  offset="0.36" style="stop-color:#6D6B4D"/>
			<stop  offset="0.58" style="stop-color:#5E6345"/>
		</linearGradient>
		<path style="fill:url(#SVGID_00000014600520247448607560000007428343579499336354_);" d="M1169.5,484.8c-0.3,1.1-0.7,2.1-1,3.1
			c-5.6,16.2-14,23.1-20.3,29.6c-25.9,26.2-81.1,60.8-175.8,78.1c-3.1,0.6-15.3,1.8-22.4,4.3c0,0.3-0.4,3.8-0.4,3.8
			s-3.7,94-88.5,139.3c-16,8.3-30.1,15.8-42.6,22.6c-3.1,1.7-6,3.3-8.9,4.8c-5.2,2.9-10,5.6-14.6,8.1c-4,2.2-7.7,4.4-11.2,6.5
			c-24.7,14.3-39.9,24.6-50.7,33.6c-13.4,11.1-23.8,22.5-28,46.9c-1.6,10.5-2.2,21.1-1.8,31.8c0.1,2.8,0.2,5.7,0.4,8.7
			c0.5,7,0.9,14.7,1.1,23c0.1,1.9,0.1,4,0.1,6c0.2,8.1,0.2,16.7,0,25.7c-0.6,25.4-2.8,50.8-6.7,75.9c-2.3,14.9-5,29-8.1,42.1
			c-2.9,12.6-6.1,24.3-9.4,35.3c-6.6,21.6-14.6,42.8-23.9,63.3c-65.1,2.8-106.9,3.1-133.7,2.8c-7.5-0.1-14.6-0.3-21.3-0.5h-0.8
			c-9.5-0.2-18.1-0.6-25.9-0.9c-25.3-0.8-42-1.2-52.5,2.1c-0.2,0-0.3,0.1-0.5,0.1c0,0-0.1,0-0.1,0c-2.3,0.4-4.7,0.4-7.1,0.1h-0.1
			c-1.1-0.2-2-0.6-2.2-1.4c-0.6-2,3.9-3.8,8-11.5c3.8-7.2,7.7-14.1,8.4-17.7s1.6-7,2.7-10.6l0,0c0.3-1.1,0.6-2.1,1-3.1
			c0.1-0.3,0.2-0.7,0.4-1c4.1-11.8,9.2-23.3,15.2-34.2c13.2-23.7,20.1-58,29.7-112.4c0-0.1,0-0.2,0-0.3c1-5.8,2.1-11.9,3.2-18.3
			c0.5-3.1,1.1-6.4,1.7-9.8c1-5.6,1.9-11.6,2.9-17.9c0-0.1,0-0.1,0-0.2c0-0.2,0-0.3,0.1-0.5c0.4-2.8,0.9-5.8,1.3-8.8
			c0.2-1.4,0.4-2.8,0.6-4.3c1.4-9.9,2.7-20.5,4-31.8c1.2-10.1,2.2-20.6,3.2-31.8c0.2-2.4,0.5-4.8,0.7-7.3c0.5-24.4-0.5-48.9-3-73.2
			c-0.2-2.2-0.5-4.3-0.8-6.5c-0.5-4.5-1.2-8.8-1.9-13c-3.3-20.5-8.2-37.3-14.4-50c-23.4-47.5-39.9-96.6-39.9-96.6
			s-54.1,3.2-78.2,1.8c-0.4,0-0.9,0-1.3,0c-2.4-0.2-4.4-0.4-6-0.7c0,0,0,0-0.1,0c-1.2-0.1-2.5-0.5-3.6-1.1c-1.1-0.8-2.1-1.7-3.1-2.7
			c-1.3-1.2-2.4-2.5-3.4-3.9c-0.1-0.1-0.2-0.2-0.3-0.4c-3.7-4.9-7.9-12.4-11.2-23.2c-0.9-3.1-1.8-6.5-2.6-10.1
			c-2.7-12.6-4.1-28.5-2.9-48.5c-0.1-1-0.2-2-0.2-2.8l-0.9-11.8l21.1,7.8c0,0,5.1,42.1,24.8,55h0.1c2.6,1.7,5.6,2.9,8.7,3.4
			c10.2,1.8,20.6,0.6,30.2-3.3h0.1c21-8.4,37.2-28.9,33.5-55h23.4c-1,18.4-0.8,36.8,0.5,55.2c1.4,18.5,4.4,38.4,10.3,54.2
			c4.2,11.2,9.8,20.4,17.5,25.4c1.7,0.6,3.4,1.1,5.2,1.5h0.3c1.7,0.4,3.4,0.7,5.1,0.8c3.9,0.5,7.8-0.1,11.4-1.8
			c0.1,0,0.2-0.1,0.3-0.2c3-1.5,5.6-3.8,7.6-6.5c7.6-10.2,11.6-30.5,11-64.5c-0.1-3.1-0.1-6.1-0.2-8.9c0-1.3,0-2.5,0-3.7v-1.4
			c-0.4-20-0.6-32.2-0.8-39.5c0-0.1,0-0.2,0-0.3c0-2.7-0.1-4.8-0.1-6.3l-0.1-5l42.1,0.1c0,0-1.2,34.5-1,56.2c0,9.1,0.3,16,1,17.2
			c2.2,3.8,17.2,38.3,34.6-17.2c2-6.6,4.2-14.6,6.3-24c4.4-16.4,7-26.4,8.4-32.2l21.7,0.7c-3.2,18.9-8.1,37.4-14.7,55.4
			c-6.7,18.8-16.3,39.2-29.3,55.8c-7.2,13.3-12.1,29.5-14.9,46.1c-5.5,32.7-2.9,67,6.8,84.8c0.6,1.2,1.3,2.4,2.1,3.5
			c2.5,3.5,5.4,6.7,8.6,9.5c6.4,5.4,13.6,7.9,21.2,3.6c1.7-1,3.3-2.2,4.7-3.6c3.8-3.8,7-8.2,9.5-13c6.1-11.1,12.3-28,18.1-52.4
			c3.4-14.2,6.8-31,10-50.8c0.7-4.1,1.3-8.1,2-12v-0.1c4.6-28.9,8.2-52.6,10.8-71.3c5.4-37.9,7.1-55.6,7.1-55.6l32.5-0.5
			c0,0-3,26.5-6,56.2c-3.1,32-6.1,67.8-4.8,78.2c3,22.7,4.2,92.4,75.2,63c109-41.2,67.8-94.2,30.6-141.1
			c-20.9-26.3-40.6-50.6-31.8-69.8c3.6-8,35.4,34,66.4,69.9c28.1,32.5,55.4,60.1,60.3,40.7c3.8-15.1,7.2-28.6,10.2-40.5
			c9.6-38.5,14.7-59.9,14.7-59.9l26.4-0.9c0,0,1.2,37.5-4.2,47.6c8.5,0.8,79-7.1,110.2-27.4c15-9.7,32.4-21.7,45.9-32.4
			c8.7-6.9,15.7-13.2,19.3-17.8c1-1.2,1.8-2.6,2.3-4.1C1140.9,484.4,1162.4,485.2,1169.5,484.8z"/>
		
			<linearGradient id="SVGID_00000162326563343438688870000001203590497478752392_" gradientUnits="userSpaceOnUse" x1="715.1979" y1="544.9523" x2="465.2779" y2="1405.0823" gradientTransform="matrix(1 0 0 -1 0 1184)">
			<stop  offset="7.000000e-02" style="stop-color:#195B4F"/>
			<stop  offset="0.19" style="stop-color:#1F6552"/>
			<stop  offset="0.4" style="stop-color:#307F5A"/>
			<stop  offset="0.67" style="stop-color:#4CA967"/>
			<stop  offset="0.98" style="stop-color:#72E379"/>
		</linearGradient>
		<path style="fill:url(#SVGID_00000162326563343438688870000001203590497478752392_);" d="M1149,422.4L1149,422.4
			c-0.2,3.5-0.7,6.9-1.4,10.3v0c-1.3,6-3.5,11.9-6.3,17.4c-31.5,61.8-145.6,73-145.6,73l-47.5-0.1l-70.4-0.1l-34.5-0.1l-43.5-0.1
			l-57.5-0.1l-33.6-0.1l-49.6-0.1h-21.8h-13.3h-22.3l-26.7-0.1h-13.5l-61-0.1h-7.4l-57.5-0.1l0,0h-38.9h-0.1l-35.4-0.1h-1.1
			c-1.8,0.1-3.6,0.2-5.3,0.3h-0.2c-9.9,0.6-19.4,0.8-28.4,1c0,0-0.1,0-0.1,0c-1.5,0-2.9,0-4.3,0h-4.2c-76.3-0.5-120.1-18-143.2-44.5
			l0,0c-3.1-3.6-6-7.5-8.5-11.5v0c-1.9-3.1-3.6-6.2-5-9.5l0,0c-7-15.6-9.3-32.9-8.6-50.9v0c0.9-23.1,6.9-47.3,14.5-70.3
			c11.2-28.9,24.8-56.8,40.7-83.5c1.6-2.8,3.3-5.5,5-8.2c12.9-20.9,27.4-40.9,43.4-59.6c1.6-1.9,3.3-3.8,4.9-5.7
			c17.4-19.6,36.4-37.7,56.7-54.2c1.4-1.2,2.8-2.3,4.2-3.5c43.6-34.8,93.3-62.9,148.5-87.2c9.9-3.6,20-6.7,30.2-9.2
			c155.5-37.9,286.2,73.5,388.8,136.7c6.7,4.2,13.3,8.1,19.8,11.8c5.5,2.3,11,4.7,16.5,7.4c32.8,15.8,64.6,37.4,92.2,59
			c2.6,2,5.1,4,7.6,6l0,0c29.6,23.8,57.5,49.6,83.4,77.3c0.5,0.7,1,1.3,1.5,1.9v0C1140.6,365.2,1151,396.9,1149,422.4z"/>
	</g>
</g>
</svg>
