<svg id="Layer_1" data-name="Layer 1" xmlns="http://www.w3.org/2000/svg" xmlns:xlink="http://www.w3.org/1999/xlink" viewBox="0 0 1600 900"><defs><style>.cls-1{fill:none;}.cls-2{clip-path:url(#clip-path);}.cls-3{fill:url(#radial-gradient);}.cls-4{fill:#bfa47c;opacity:0.62;}</style><clipPath id="clip-path"><rect class="cls-1" width="1600" height="900"/></clipPath><radialGradient id="radial-gradient" cx="605.66" cy="213.79" r="756.19" gradientTransform="translate(28.23) scale(1.08 1)" gradientUnits="userSpaceOnUse"><stop offset="0.08" stop-color="#ffff7c"/><stop offset="0.56" stop-color="#ffea9d"/><stop offset="1" stop-color="#ffdab6"/></radialGradient></defs><g class="cls-2"><rect class="cls-3" x="-374.09" y="-214.87" width="2107.37" height="857.32"/><path class="cls-4" d="M-433.71,833.26V619.32c.23,0,.41.09.6.14a109.73,109.73,0,0,1,17.43,2.26c.85.2,1.69.4,2.49.63V601.12h10.73c.15-8,.23-16.46.16-22.8-4.58-1-8.12-2.49-9.27-4.35-1.67-2.62,1.76-5.41,7.08-7.33.46-.17.94-.34,1.43-.49V496.37c-25.56-.09-40.22-3.76-48-9.3h0a22.42,22.42,0,0,1-2.85-2.41h0c-48.93,1.35-67.55-1.7-71.21-9.9-5-5.64.1-14.31,7.9-26.39,15.14-19.66,40.26-25.58,60.67-26.77a291.55,291.55,0,0,1,53.46-39.85V240.6c20.43,7.62,40.84,15.5,61.26,23.49,76.15,29.73,152.15,60.67,227.65,84.12,236.94,73.57,494.68,72.35,731-3.48,46.77-15,94.39-33.09,143.16-28.89,52.34,4.48,99.15,34,148.2,53.64,68.07,27.24,139.06,35,210.4,29l.78-.06A626.76,626.76,0,0,0,1202,385.53c3.58-.81,7.14-1.63,10.72-2.49,65.07-15.58,129.45-40.59,191.17-70.69,1.68-.81,3.34-1.64,5-2.45,34.18-16.86,67.52-35.24,99.68-54.41l1-.58c.79-.46,1.57-.93,2.34-1.4,34.44-20.63,69.2-42.47,105.84-57.86,21.18-8.9,43-15.65,65.73-18.76,189.86-26,318.78,196.21,495.43,274.33h0c3.85,1.7,7.74,3.34,11.64,4.91a358,358,0,0,0,46.25,14.94c2.43.63,4.87,1.21,7.32,1.77h0c44.84,10.31,90.71,12.33,137.22,9.87,113.16-6,230.06-38.39,344.88-42.26q11.26-.37,22.5-.37"/><rect class="cls-1" x="-341.82" y="-58.59" width="5878.48" height="1102.22"/></g></svg>