<svg id="Layer_1" data-name="Layer 1" xmlns="http://www.w3.org/2000/svg" xmlns:xlink="http://www.w3.org/1999/xlink" viewBox="0 0 1600 900"><defs><style>.cls-1{fill:none;}.cls-2{clip-path:url(#clip-path);}.cls-3{fill:#54d358;}.cls-4{fill:#5edd60;}.cls-5{fill:#4cb64b;}.cls-6{fill:#62d56a;}.cls-7{fill:url(#linear-gradient);}.cls-8{fill:url(#linear-gradient-2);}.cls-9{fill:url(#linear-gradient-3);}.cls-10{fill:#52332c;}.cls-11{fill:#733e2f;}.cls-12{fill:#613e34;}.cls-13{fill:#733826;}.cls-14{fill:#8f4b2f;}.cls-15{fill:#3ac150;}</style><clipPath id="clip-path"><rect class="cls-1" width="1600" height="900"/></clipPath><linearGradient id="linear-gradient" x1="-2125.7" y1="2247.08" x2="3626.13" y2="-615.42" gradientUnits="userSpaceOnUse"><stop offset="0.04" stop-color="#578e38"/><stop offset="0.1" stop-color="#518b37"/><stop offset="0.73" stop-color="#186d2c"/></linearGradient><linearGradient id="linear-gradient-2" x1="-3186.18" y1="626.98" x2="2725.95" y2="626.98" gradientUnits="userSpaceOnUse"><stop offset="0.36" stop-color="#59ad47"/><stop offset="0.45" stop-color="#53a945"/><stop offset="0.57" stop-color="#419f40"/><stop offset="0.7" stop-color="#258e36"/><stop offset="0.73" stop-color="#1d8934"/></linearGradient><linearGradient id="linear-gradient-3" x1="-2634.74" y1="730.16" x2="1776.57" y2="730.16" gradientUnits="userSpaceOnUse"><stop offset="0.37" stop-color="#578e38"/><stop offset="0.73" stop-color="#578e38"/></linearGradient></defs><g class="cls-2"><path class="cls-3" d="M-34.74,396.54C-39.39,484.81-47.95,573-47.24,661.43c.71,89.5,11.45,178.48,15.87,267.8q0,5.19-.35,10.29h1693.6c0-49.27-.48-98.55-3.46-147.74-2.05-33.87-6.16-67.4-10-101.1s-6.82-67.24-8.84-101a1589.91,1589.91,0,0,1-.18-195.37Z"/><path class="cls-4" d="M310.16,381.66s-153.35-1-344.07-1.76q-.37,8.16-.81,16.31c-1.9,36.11-4.45,72.21-6.76,108.32,368.67-53,1066.88-104.38,1066.88-104.38h21.81Z"/><path class="cls-5" d="M-31.37,929.23q0,5.19-.35,10.29h1693.6c0-49.27-.48-98.55-3.46-147.74-1.8-29.72-5.18-59.17-8.58-88.7C1014.72,699.25,317.53,692-46.75,688-44.46,768.52-35.35,848.74-31.37,929.23Z"/><path class="cls-6" d="M1636.69,514.76c-171.91-7.29-360.86-17.73-568.7-32.05L1639.48,588Q1637.32,551.4,1636.69,514.76Z"/><path class="cls-6" d="M1648.42,690.68q-4.1-35.82-6.84-71.78l-40.07,9.86L1546,663.5l65.64,39.2c11.25,2.61,24.34,5.64,39.15,9Q1649.63,701.22,1648.42,690.68Z"/><path class="cls-7" d="M-47.24,661.43c.71,89.5,11.45,178.48,15.87,267.8q0,5.19-.35,10.29h1693.6c0-49.27-.48-98.55-3.46-147.74-1.82-30-5.24-59.64-8.66-89.41-51.15-.61-89.59-2.15-112.53-4.81C1028,638.42,604.36,637,272.47,635.94c-120.91-.4-226.78-.74-319.64-.67C-47.27,644-47.31,652.71-47.24,661.43Z"/><path class="cls-8" d="M1648.42,690.68q-5.75-50.35-8.84-101-1.63-27.23-2.42-54.51c-540.73,8.16-1160.61,11.18-1680-9.16-2.72,45.09-4.78,90.2-4.42,135.39.18,22.08,1,44.13,2.12,66.16,433.81-3,1115.89-1.68,1697.78.34C1651.29,715.52,1649.83,703.11,1648.42,690.68Z"/><line class="cls-1" x1="889.59" y1="665.2" x2="1561.85" y2="636.03"/><path class="cls-9" d="M1655.78,758.32c-265.75,2.33-463.84-8.65-523.6-11.85-342.65-18.33-686.69-25.73-1029.92-39.62-54-2.18-103-4-148.57-5.57q.89,23.49,2.37,47c743.51,6.62,1430.05,11.68,1699.78,10.66Z"/><path class="cls-10" d="M-33.32,366.41q-.41,9.79-.88,19.58H181.25V366.41Z"/><path class="cls-11" d="M-33.32,366.41c-.06,1.31-.11,2.61-.16,3.92H181.25v-3.92Z"/><path class="cls-12" d="M-33.48,370.33q-.26,5.87-.53,11.75H181.25V370.33Z"/><path class="cls-10" d="M-36.21,422.54q-.59,9.79-1.21,19.58H181.25V422.54Z"/><path class="cls-11" d="M-36.21,422.54l-.24,3.92h217.7v-3.92Z"/><path class="cls-12" d="M-36.45,426.46q-.34,5.87-.73,11.74H181.25V426.46Z"/><path class="cls-10" d="M-39.8,478.67q-.64,9.78-1.28,19.58H181.25V478.67Z"/><path class="cls-11" d="M-39.8,478.67c-.09,1.3-.17,2.61-.26,3.91H181.25v-3.91Z"/><path class="cls-12" d="M-40.06,482.58q-.37,5.88-.77,11.75H181.25V482.58Z"/><rect class="cls-13" x="148.83" y="350.76" width="25.28" height="162.51"/><rect class="cls-14" x="151.64" y="354.68" width="19.66" height="158.59"/><rect class="cls-10" x="178.32" y="366.41" width="370.33" height="19.58"/><rect class="cls-11" x="178.32" y="366.41" width="370.33" height="3.92"/><rect class="cls-12" x="178.32" y="370.33" width="370.33" height="11.75"/><rect class="cls-10" x="178.32" y="422.54" width="370.33" height="19.58"/><rect class="cls-11" x="178.32" y="422.54" width="370.33" height="3.92"/><rect class="cls-12" x="178.32" y="426.46" width="370.33" height="11.75"/><rect class="cls-10" x="178.32" y="478.67" width="370.33" height="19.58"/><rect class="cls-11" x="178.32" y="478.67" width="370.33" height="3.92"/><rect class="cls-12" x="178.32" y="482.58" width="370.33" height="11.75"/><rect class="cls-13" x="516.23" y="350.76" width="25.28" height="162.51"/><rect class="cls-14" x="519.04" y="354.68" width="19.66" height="158.59"/><rect class="cls-10" x="541.45" y="366.41" width="370.33" height="19.58"/><rect class="cls-11" x="541.45" y="366.41" width="370.33" height="3.92"/><rect class="cls-12" x="541.45" y="370.33" width="370.33" height="11.75"/><rect class="cls-10" x="541.45" y="422.54" width="370.33" height="19.58"/><rect class="cls-11" x="541.45" y="422.54" width="370.33" height="3.92"/><rect class="cls-12" x="541.45" y="426.46" width="370.33" height="11.75"/><rect class="cls-10" x="541.45" y="478.67" width="370.33" height="19.58"/><rect class="cls-11" x="541.45" y="478.67" width="370.33" height="3.92"/><rect class="cls-12" x="541.45" y="482.58" width="370.33" height="11.75"/><rect class="cls-13" x="879.36" y="350.76" width="25.28" height="162.51"/><rect class="cls-14" x="882.17" y="354.68" width="19.66" height="158.59"/><rect class="cls-10" x="911.57" y="366.41" width="382.61" height="19.58"/><rect class="cls-11" x="911.57" y="366.41" width="382.61" height="3.92"/><rect class="cls-12" x="911.57" y="370.33" width="382.61" height="11.75"/><rect class="cls-10" x="911.57" y="422.54" width="382.61" height="19.58"/><rect class="cls-11" x="911.57" y="422.54" width="382.61" height="3.92"/><rect class="cls-12" x="911.57" y="426.46" width="382.61" height="11.75"/><rect class="cls-10" x="911.57" y="478.67" width="382.61" height="19.58"/><rect class="cls-11" x="911.57" y="478.67" width="382.61" height="3.92"/><rect class="cls-12" x="911.57" y="482.58" width="382.61" height="11.75"/><rect class="cls-13" x="1260.69" y="350.76" width="26.12" height="162.51"/><rect class="cls-14" x="1263.6" y="354.68" width="20.31" height="158.59"/><path class="cls-10" d="M1641.54,366.41h-353.6V386h352C1640.4,379.45,1641,372.93,1641.54,366.41Z"/><path class="cls-11" d="M1641.54,366.41h-353.6v3.92h353.25C1641.31,369,1641.43,367.72,1641.54,366.41Z"/><path class="cls-12" d="M1641.19,370.33H1287.94v11.75h352.3Q1640.69,376.2,1641.19,370.33Z"/><path class="cls-10" d="M1637.9,422.54h-350v19.58h349.24Q1637.48,432.32,1637.9,422.54Z"/><path class="cls-11" d="M1637.9,422.54h-350v3.92h349.79C1637.78,425.15,1637.84,423.84,1637.9,422.54Z"/><path class="cls-12" d="M1637.73,426.46H1287.94V438.2H1637.3Q1637.48,432.34,1637.73,426.46Z"/><path class="cls-10" d="M1636.52,478.67H1287.94v19.58h348.57Q1636.45,488.46,1636.52,478.67Z"/><path class="cls-11" d="M1636.52,478.67H1287.94v3.91H1636.5C1636.5,481.28,1636.51,480,1636.52,478.67Z"/><path class="cls-12" d="M1636.5,482.58H1287.94v11.75H1636.5C1636.48,490.41,1636.48,486.5,1636.5,482.58Z"/><path class="cls-15" d="M362.56,515.39s2.82-1.93,8.26-2.4-5.84-2.53-9.88,2.4C360.94,515.39,359.13,517.58,362.56,515.39Z"/><path class="cls-15" d="M354.89,515.66s8.27-6.15,13.11-7.79-4.64-1.78-11.09,3.35C356.91,511.22,353.68,514.29,354.89,515.66Z"/><path class="cls-15" d="M352.47,515.66s5.49-10,8-11.21-4-1.92-8,6.22C352.47,510.67,350.86,515,352.47,515.66Z"/><path class="cls-15" d="M349.55,515.66s2.11-9.16,4.13-10.53S346,506.63,349.55,515.66Z"/><path class="cls-15" d="M348.34,515.66s.1-7.63-4.24-8.81S346.62,511.83,348.34,515.66Z"/><path class="cls-15" d="M346.92,515.66s-2.72-8.75-9.37-8.95S342.79,509.92,346.92,515.66Z"/><path class="cls-15" d="M346.35,515.66a13.44,13.44,0,0,0-9.61-3.28C330.69,512.65,344.87,514.57,346.35,515.66Z"/><path class="cls-15" d="M170.32,515.39s2.82-1.93,8.26-2.4-5.84-2.53-9.88,2.4C168.7,515.39,166.89,517.58,170.32,515.39Z"/><path class="cls-15" d="M162.65,515.66s8.27-6.15,13.11-7.79-4.64-1.78-11.09,3.35C164.67,511.22,161.44,514.29,162.65,515.66Z"/><path class="cls-15" d="M160.23,515.66s5.49-10,8-11.21-4-1.92-8,6.22C160.23,510.67,158.62,515,160.23,515.66Z"/><path class="cls-15" d="M157.31,515.66s2.11-9.16,4.13-10.53S153.78,506.63,157.31,515.66Z"/><path class="cls-15" d="M156.1,515.66s.1-7.63-4.24-8.81S154.38,511.83,156.1,515.66Z"/><path class="cls-15" d="M154.68,515.66s-2.72-8.75-9.37-8.95S150.55,509.92,154.68,515.66Z"/><path class="cls-15" d="M154.11,515.66a13.44,13.44,0,0,0-9.61-3.28C138.45,512.65,152.63,514.57,154.11,515.66Z"/><path class="cls-15" d="M544.33,514.43s3.85-2.62,11.29-3.27-8-3.45-13.5,3.27C542.12,514.43,539.65,517.42,544.33,514.43Z"/><path class="cls-15" d="M533.86,514.81s11.29-8.41,17.9-10.65-6.33-2.43-15.14,4.58C536.62,508.74,532.21,512.94,533.86,514.81Z"/><path class="cls-15" d="M530.56,514.81s7.5-13.64,10.91-15.32-5.4-2.61-10.91,8.5C530.56,508,528.36,513.87,530.56,514.81Z"/><path class="cls-15" d="M526.57,514.81s2.89-12.51,5.64-14.38S521.75,502.48,526.57,514.81Z"/><path class="cls-15" d="M524.91,514.81s.14-10.43-5.78-12S522.57,509.58,524.91,514.81Z"/><path class="cls-15" d="M523,514.81s-3.72-11.95-12.81-12.23S517.34,507,523,514.81Z"/><path class="cls-15" d="M522.21,514.81a18.36,18.36,0,0,0-13.13-4.49C500.82,510.7,520.19,513.31,522.21,514.81Z"/><path class="cls-15" d="M910,515.75s3.85-2.62,11.29-3.27-8-3.45-13.5,3.27C907.76,515.75,905.29,518.74,910,515.75Z"/><path class="cls-15" d="M899.5,516.13s11.29-8.41,17.9-10.65-6.33-2.43-15.14,4.58C902.26,510.06,897.85,514.26,899.5,516.13Z"/><path class="cls-15" d="M896.2,516.13s7.5-13.64,10.91-15.32-5.4-2.61-10.91,8.5C896.2,509.31,894,515.19,896.2,516.13Z"/><path class="cls-15" d="M892.21,516.13s2.89-12.51,5.64-14.38S887.39,503.8,892.21,516.13Z"/><path class="cls-15" d="M890.55,516.13s.14-10.43-5.78-12S888.21,510.9,890.55,516.13Z"/><path class="cls-15" d="M888.63,516.13s-3.72-11.95-12.81-12.23S883,508.28,888.63,516.13Z"/><path class="cls-15" d="M887.85,516.13a18.36,18.36,0,0,0-13.13-4.49C866.46,512,885.83,514.63,887.85,516.13Z"/><path class="cls-15" d="M1288,515.75s3.85-2.62,11.29-3.27-8-3.45-13.5,3.27C1285.76,515.75,1283.29,518.74,1288,515.75Z"/><path class="cls-15" d="M1277.5,516.13s11.29-8.41,17.9-10.65-6.33-2.43-15.14,4.58C1280.26,510.06,1275.85,514.26,1277.5,516.13Z"/><path class="cls-15" d="M1274.2,516.13s7.5-13.64,10.91-15.32-5.4-2.61-10.91,8.5C1274.2,509.31,1272,515.19,1274.2,516.13Z"/><path class="cls-15" d="M1270.21,516.13s2.89-12.51,5.64-14.38S1265.39,503.8,1270.21,516.13Z"/><path class="cls-15" d="M1268.55,516.13s.14-10.43-5.78-12S1266.21,510.9,1268.55,516.13Z"/><path class="cls-15" d="M1266.63,516.13s-3.72-11.95-12.81-12.23S1261,508.28,1266.63,516.13Z"/><path class="cls-15" d="M1265.85,516.13a18.36,18.36,0,0,0-13.13-4.49C1244.46,512,1263.83,514.63,1265.85,516.13Z"/></g></svg>