<svg id="Layer_1" data-name="Layer 1" xmlns="http://www.w3.org/2000/svg" xmlns:xlink="http://www.w3.org/1999/xlink" viewBox="0 0 1600 900"><defs><style>.cls-1{fill:none;}.cls-2{clip-path:url(#clip-path);}.cls-3{fill:url(#linear-gradient);}.cls-4{fill:url(#linear-gradient-2);}.cls-5{fill:url(#linear-gradient-3);}.cls-6{fill:url(#linear-gradient-4);}.cls-7{fill:#809aaa;}.cls-8{fill:url(#linear-gradient-5);}</style><clipPath id="clip-path"><rect class="cls-1" width="1600" height="900"/></clipPath><linearGradient id="linear-gradient" x1="798.77" y1="916.64" x2="795.05" y2="-280.25" gradientUnits="userSpaceOnUse"><stop offset="0.46" stop-color="#c8e8ed"/><stop offset="0.46" stop-color="#c0e5ee"/><stop offset="0.46" stop-color="#aaddf3"/><stop offset="0.46" stop-color="#87d0f9"/><stop offset="0.99" stop-color="#87d0f9"/></linearGradient><linearGradient id="linear-gradient-2" x1="778.36" y1="-1055.96" x2="850.13" y2="3266.89" gradientUnits="userSpaceOnUse"><stop offset="0.2" stop-color="#72cddf"/><stop offset="0.31" stop-color="#76cedf"/><stop offset="0.4" stop-color="#81d0de"/><stop offset="0.47" stop-color="#8dd3dd"/></linearGradient><linearGradient id="linear-gradient-3" x1="-1259.93" y1="1291.95" x2="1178.82" y2="78.27" gradientUnits="userSpaceOnUse"><stop offset="0.01" stop-color="#36a572"/><stop offset="0.28" stop-color="#49ae7c"/><stop offset="0.78" stop-color="#74c492"/></linearGradient><linearGradient id="linear-gradient-4" x1="1214.5" y1="467.71" x2="3408.19" y2="-90.87" gradientUnits="userSpaceOnUse"><stop offset="0" stop-color="#65c2a3"/><stop offset="0.23" stop-color="#62c1a1"/><stop offset="0.42" stop-color="#57be9c"/><stop offset="0.6" stop-color="#46b992"/><stop offset="0.77" stop-color="#2db285"/><stop offset="0.78" stop-color="#2bb184"/></linearGradient><linearGradient id="linear-gradient-5" x1="1318.22" y1="372.69" x2="1387.57" y2="182.04" gradientUnits="userSpaceOnUse"><stop offset="0.1" stop-color="#1daead"/><stop offset="0.2" stop-color="#35b6b5"/><stop offset="0.34" stop-color="#50bfbe"/><stop offset="0.49" stop-color="#63c5c5"/><stop offset="0.63" stop-color="#6ec9c9"/><stop offset="0.79" stop-color="#72caca"/></linearGradient></defs><g class="cls-2"><path class="cls-3" d="M1650.32-20.45q0-7.87.77-15.55H-62.47c1.87,4.64,3.71,9.28,5.56,13.89,1.5,3.73,2.88,7.51,4.11,11.35a189.83,189.83,0,0,1,6.28,26.3C-42.7,38.11-39.45,61-37.77,83.85c1.37,18.63,1.26,37.33,1.09,56-.17,19.45-.46,38.9.54,58.33,1.13,21.93,3.17,43.76,3.8,65.73,1.08,37.78.26,75.58-1.45,113.33h1674.4c2.44-30.42,6.42-60.6,9.52-91,3.44-33.72,4.6-67.65,4.63-101.54C1654.82,116.32,1650.37,48,1650.32-20.45Z"/><path class="cls-4" d="M1547.72,311.49C1214.57,331.35,936,198.61,911.73,186.7,710.43,88.07,672.19-3,459.22-55.28,236.47-110,83.64-58.14,41.33-42.29A615.56,615.56,0,0,0-46.56-1.16C-48.3-3.39-50.11-5.69-51.95-8a193.6,193.6,0,0,1,5.43,23.55C-42.7,38.11-39.45,61-37.77,83.85c1.37,18.63,1.26,37.33,1.09,56-.17,19.45-.46,38.9.54,58.33,1.13,21.93,3.17,43.76,3.8,65.73,1.24,43.25,0,86.53-2.25,129.72l1673.68,5.52q.38-6.15.79-12.3c2-28.83,5.57-57.41,8.71-86.09A994.45,994.45,0,0,1,1547.72,311.49Z"/><path class="cls-5" d="M-34.65,395c515,4.1,1017.22,7.9,1375.2,8.27a1113.54,1113.54,0,0,0-847.69-40.68c-89.29-69.27-167.53-92.23-223-100.25-127.56-18.46-193,5.39-301.95,13.14C-31.33,315.29-32.58,355.16-34.65,395Z"/><path class="cls-6" d="M1639.88,386.85c1.24-18.06,3.11-36,5.11-54a652.11,652.11,0,0,0-286.23,73.44q146.71-2.47,280.17-4.22Q1639.37,394.47,1639.88,386.85Z"/><path class="cls-7" d="M1301.33,329.19a17.08,17.08,0,0,0,4.25,10.52c6.66,7.59,17.79,7.35,19,7.31l-.36-16.84,6.86.25v9.33a16.82,16.82,0,0,0,8.73-.94,13.75,13.75,0,0,0,7.83-7.88l2.86.06q-.87,2.29-1.73,4.59a12.25,12.25,0,0,0,7.85,1,10.71,10.71,0,0,0,7.18-5.3h2.13s-1.39,10.63-18.12,7.09c-3,3.72-10.17,7.69-16.75,5.7.38,11.56,2.59,56.81,2.59,56.81h-7.73q-.66-24.81-1.34-49.62c-1.92-.06-11.07-.56-18.37-7.12a22.21,22.21,0,0,1-7.52-15.32Z"/><path class="cls-8" d="M1292.24,305.18s59.18-19.27,94.89,0c30.33,18.81-.81,26.83-21.23,26.08-31.52-.28-70.12-2.35-70.12-2.35S1253,323.12,1292.24,305.18Z"/></g></svg>