<svg id="Layer_1" data-name="Layer 1" xmlns="http://www.w3.org/2000/svg" viewBox="0 0 202 394"><defs><style>.cls-1{opacity:0.3;}.cls-2{fill:#5e961b;}.cls-3{fill:#488019;}.cls-4{fill:#ff7db8;}.cls-5{fill:#f93a91;}.cls-6{fill:#b31b64;}.cls-7{fill:#ff4d9e;}.cls-8{fill:#ff59a5;}.cls-9{fill:#7db03f;}.cls-10{fill:#6da32c;}.cls-11{fill:#cc6900;}.cls-12{fill:#ba5700;}.cls-13{fill:#e38017;}</style></defs><ellipse class="cls-1" cx="81.24" cy="365.99" rx="51.68" ry="10.13"/><path class="cls-2" d="M107.48,213.18c-.26-9.45-2.63-18.58-4.2-27.85-1.88-11-2.19-22.25-2.52-33.41a1.6,1.6,0,0,0-2.69-1.12,85,85,0,0,0-20.76,43.79A83.63,83.63,0,0,0,77.1,219c1.23,8.81,4.33,17.22,5.68,26a107.05,107.05,0,0,1,1.14,11.58c.16,3.73.45,8.18-1,11.69a.66.66,0,0,0,0,.48l-.29.2a1.62,1.62,0,0,0,1.63,2.8c5.71-2.62,9.16-8.74,11.7-14.18,2.78-6,4.76-12.24,7.12-18.36A66.55,66.55,0,0,0,107.48,213.18Z"/><path class="cls-2" d="M89.87,265.58c-1.77-.68-3.57-1.25-5.39-1.76,3-11.08-3.51-23.55-10.94-31.42C63.89,222.21,51,216.14,38.73,209.72c-7.4-3.88-14.73-8-21.13-13.4a2.11,2.11,0,0,0-3.55,1.47c-1.62,14.82,3.27,29.78,12.41,41.42,8.75,11.14,21.25,19,34.71,23.24,9.07,2.82,18.55,4.23,27.74,6.61C91.2,269.66,92,266.4,89.87,265.58Z"/><path class="cls-3" d="M81.73,266.26a1.66,1.66,0,0,0,1.49,2v.21l-.12.1c-.2.15-.1.57.18.45l.4-.17C83.05,268,82.4,267.12,81.73,266.26Z"/><path class="cls-3" d="M107.48,213.46c-.26-9.45-2.63-18.58-4.2-27.85-1.88-11-2.19-22.25-2.52-33.41a1.66,1.66,0,0,0-.93-1.4,141.16,141.16,0,0,0-5.28,21.83c-2.35,16.61-1.52,33.42-1.24,50.13a210.38,210.38,0,0,1-.73,25.48c-.42,3.94-.85,7.95-1.44,11.94,1.51-2.13,3.08-4.2,4.68-6.24l3.56-4.55c1.23-3.31,2.39-6.64,3.66-9.93A66.55,66.55,0,0,0,107.48,213.46Z"/><path class="cls-3" d="M80.87,264.68a88.45,88.45,0,0,0-9.13-9c-19.15-16.57-49.32-29.88-57.64-55.17-.87,14,4,28,12.61,39S48,258.54,61.42,262.73c7.21,2.24,14.67,3.59,22,5.25C82.64,266.85,81.79,265.75,80.87,264.68Z"/><path class="cls-3" d="M87.09,270c2.77-13.2-.59-27.18-4.78-39.73-4.25-12.72-10.07-25-16.1-37-6.73-13.34-13.36-26.74-18.06-41s-7.83-29-7.29-43.92C41.38,94.37,45,80.2,52.78,68.36A50,50,0,0,1,66.67,54a34.78,34.78,0,0,1,20.62-5.83c13.15.41,26.09,6.13,36.17,14.4a68.66,68.66,0,0,1,21.19,29.84,72.68,72.68,0,0,1,3.74,20.2c.46,7.87.7,15.7,2,23.5A126.68,126.68,0,0,0,165.15,178q1.32,2.34,2.73,4.6c1,1.58,2.22,3,3.26,4.5.62.91,2.12.05,1.49-.86-1.07-1.57-1.9-3.33-2.9-4.95s-2-3.28-2.9-4.95q-2.73-4.94-5-10.1a126,126,0,0,1-7.28-21.64,127.69,127.69,0,0,1-3.27-22.69c-.43-7.83-.5-15.71-2.3-23.38a69.53,69.53,0,0,0-18-32.33A68.45,68.45,0,0,0,98.9,47.42c-7.68-1.91-15.83-2.45-23.52-.3A41.91,41.91,0,0,0,58.05,57.34C47.74,67.11,41.33,80.76,38.37,94.5c-3.17,14.72-2.75,30.05.25,44.76,3.18,15.63,9.66,30.66,16.62,44.94C61.16,196.33,68,208,73.45,220.32,79,233,83.61,246.28,84.6,260.16a81.71,81.71,0,0,1,.11,9.52,1.22,1.22,0,0,0,2.38.32Z"/><path class="cls-4" d="M97.84,41.81a26.18,26.18,0,0,1,4.82-7.2q3.63-4.27,7.3-8.55c3.75-4.39,7.09-9.09,13.57-7.86,5.49,1,10.85,4.52,15,8.1s8.3,8.23,9.93,13.73c1.69,5.72-2.26,12.95-4,18.42C140.68,71,131.4,71.53,126.72,72.31a23.57,23.57,0,0,1-15.47-3C102.38,64.3,93.75,52.39,97.84,41.81Z"/><path class="cls-5" d="M165.5,55.46c-5.4-8.62-15.1-16.92-26.43-16.56a11,11,0,0,0-7,2.4c-2.44,2.23-2,5.24-2,8.16a35.73,35.73,0,0,1-1.72,10.69c-1.06,3.31-2.84,6.35-3.87,9.67-.12.38.26.63.6.56l1.24,4.43a1.43,1.43,0,0,0-1.09.89c-2.56,5.51-.54,11.23,2.73,16.1s7.62,9.11,13.66,10.63c11.65,2.94,23-3.74,27.62-13.71C174.26,78,171.67,65.32,165.5,55.46Z"/><path class="cls-5" d="M120.73,74.82,122,70.38c.34.07.72-.18.6-.56-.88-2.85-2.35-5.45-3.38-8.25a36,36,0,0,1-2.12-9.87c-.19-2.7.55-5.81-.59-8.36a7.63,7.63,0,0,0-5.13-4c-4.92-1.38-10.68.14-15.09,2.28A35.79,35.79,0,0,0,83.84,52.15c-7.09,9.17-10.92,21.89-7.43,33,3.25,10.37,13,18.8,25,17.89,7.07-.53,12.29-4.18,16.35-9.46s6.9-11.7,4-17.89A1.42,1.42,0,0,0,120.73,74.82Z"/><path class="cls-6" d="M137.41,74.76c-.46-2.6-2.23-5.34-5.13-5.41a5.59,5.59,0,0,0-3.54,1.17,9.42,9.42,0,0,0-.49-4.5c-.86-2.28-3.06-4.77-5.74-4.47s-3.35,3.26-3.41,5.53a18.34,18.34,0,0,0,.3,3.87,6.06,6.06,0,0,0-2.29-1,3.68,3.68,0,0,0-4.37,2.84c-1.38,5.31,3.36,11.24,7.4,14a.27.27,0,0,0,.34,0,20.27,20.27,0,0,0,7.25,14.65c.69.58,2.14.28,2-.84q-.72-6.63-2-13.18C133.47,86,138.53,81.1,137.41,74.76Z"/><path class="cls-4" d="M113.23,90.07A33.88,33.88,0,0,0,109,93.3a25.34,25.34,0,0,1-4.92,2.9,32.51,32.51,0,0,1-11.71,2.58c-.07,0-.09.11,0,.12a22.23,22.23,0,0,0,12.17-.8c3.51-1.2,8.24-3.28,9.95-6.8A.91.91,0,0,0,113.23,90.07Z"/><path class="cls-4" d="M110.81,84.89c-3.53,1.1-6.81,3.24-10.1,4.92-.2.1,0,.38.14.34,3.66-.68,7.67-1.79,10.56-4.23A.62.62,0,0,0,110.81,84.89Z"/><path class="cls-4" d="M110.5,79.5a33.28,33.28,0,0,1-3.6.56A8.37,8.37,0,0,1,102.75,79a.53.53,0,0,0-.54.92c2.29,1.43,6.18,2.42,8.58.7C111.19,80.27,111.12,79.43,110.5,79.5Z"/><path class="cls-4" d="M106,72.27c-1.12-1.12-2.66-1.71-4-2.62a22.4,22.4,0,0,1-3.6-3.21A25.11,25.11,0,0,1,93,57.5a.35.35,0,0,0-.67.19A20.41,20.41,0,0,0,96.57,67.8c2,2.46,5.37,5.86,8.71,6.08A1,1,0,0,0,106,72.27Z"/><path class="cls-4" d="M110.41,67.3c-.54-1.16-2-2-2.88-2.9A14.09,14.09,0,0,1,105,60.77c-.3-.6-1.21-.18-1,.44A13.56,13.56,0,0,0,106,65.82c.86,1.19,2.1,2.65,3.65,2.77C110.38,68.65,110.66,67.84,110.41,67.3Z"/><path class="cls-4" d="M148.78,49.34a1.08,1.08,0,0,0-1.95-.25c-.84,1.39-.93,3.1-1.39,4.64a28,28,0,0,1-2.21,5.44c-1.86,3.35-4.52,5.77-7.29,8.35-.4.37,0,1.17.56,1,3.67-1.47,6.58-4.51,8.77-7.74C147.2,57.89,150,52.88,148.78,49.34Z"/><path class="cls-4" d="M157.36,76.43c-2.39-.92-5.37-.67-7.9-1.1s-5.27-1-7.89-1.51a.47.47,0,0,0-.36.86,28.17,28.17,0,0,0,8,3.13c2.49.56,5.67,1.38,8.17.63A1.05,1.05,0,0,0,157.36,76.43Z"/><path class="cls-4" d="M150.08,91.11C148.89,90,147,89.78,145.61,89a34.9,34.9,0,0,1-4.34-3c-.49-.37-1,.33-.75.76A9.91,9.91,0,0,0,144.44,91c1.45.88,3.61,2,5.31,1.35A.74.74,0,0,0,150.08,91.11Z"/><path class="cls-4" d="M142.83,96.75c-1.6-.87-3.2-1.21-4.55-2.55a9.38,9.38,0,0,1-2.51-4.86c-.11-.63-1.08-.46-1.09.14a8.27,8.27,0,0,0,2.32,6c1.37,1.49,3.55,2.94,5.65,2.59A.72.72,0,0,0,142.83,96.75Z"/><path class="cls-4" d="M119.62,76.26c-2,.53-.85,3.68,1.14,2.69C122.25,78.21,121.22,75.83,119.62,76.26Z"/><path class="cls-4" d="M123.23,82.39a.89.89,0,0,0-.53-.4,2.68,2.68,0,0,0-.64-.06.92.92,0,0,0-.63.26.91.91,0,0,0-.27.64.9.9,0,0,0,.9.9,2.68,2.68,0,0,0,.64-.06.92.92,0,0,0,.46-.31.85.85,0,0,0,.18-.53A1,1,0,0,0,123.23,82.39Z"/><path class="cls-4" d="M126.66,80.45a.85.85,0,0,0-.61-.26,2.53,2.53,0,0,0-.48.08l-.27.1a1.16,1.16,0,0,0-.82.82,1.18,1.18,0,0,0,.3,1.13,1.15,1.15,0,0,0,1.14.3,1,1,0,0,0,.51-.3,1.12,1.12,0,0,0,.31-.51c0-.09.06-.18.1-.27a2.53,2.53,0,0,0,.07-.48A.82.82,0,0,0,126.66,80.45Z"/><path class="cls-4" d="M130.48,75.94a1.13,1.13,0,0,0,0,2.25A1.13,1.13,0,0,0,130.48,75.94Z"/><path class="cls-4" d="M123.84,75.36a.82.82,0,0,0,0,1.64A.82.82,0,0,0,123.84,75.36Z"/><path class="cls-4" d="M123.84,70.2a1.11,1.11,0,0,0,0,2.21A1.11,1.11,0,0,0,123.84,70.2Z"/><path class="cls-4" d="M129.15,79.65a1,1,0,0,0,0,1.93A1,1,0,0,0,129.15,79.65Z"/><path class="cls-4" d="M118.85,75.28a2.17,2.17,0,0,0-.23-.3,1.28,1.28,0,0,0-.85-.33l-.58,0a1.13,1.13,0,1,0,0,2.25l.58,0a1.3,1.3,0,0,0,.74-.26,1.54,1.54,0,0,0,.34-.38A.88.88,0,0,0,118.85,75.28Z"/><path class="cls-4" d="M129,99.69A19.24,19.24,0,0,1,131.76,94l4.47-7c2.3-3.58,4.27-7.34,9.11-7.08,4.1.21,8.36,2.21,11.76,4.4s6.87,5.17,8.6,9c1.8,4-.35,9.67-1,13.82-1.56,9.52-8.27,10.84-11.61,11.87a17.33,17.33,0,0,1-11.56-.62C134.52,115.63,127,107.81,129,99.69Z"/><path class="cls-7" d="M179.64,102.9c-4.79-5.74-12.69-10.82-20.91-9.44a8.11,8.11,0,0,0-4.9,2.45c-1.55,1.88-.91,4-.62,6.15a26.57,26.57,0,0,1-.19,8c-.44,2.52-1.44,4.91-1.86,7.43,0,.29.25.43.5.35l1.34,3.11a1,1,0,0,0-.71.75c-1.31,4.27.73,8.24,3.6,11.47s6.45,5.87,11,6.38c8.78,1,16.36-5,18.77-12.74C188.26,118.43,185.12,109.47,179.64,102.9Z"/><path class="cls-7" d="M148.94,121.46l.46-3.35c.26,0,.51-.2.39-.47-.93-2-2.27-3.73-3.29-5.67a26.14,26.14,0,0,1-2.53-7c-.41-2-.18-4.28-1.26-6a5.58,5.58,0,0,0-4.14-2.37c-3.72-.52-7.77,1.16-10.77,3.16a26.33,26.33,0,0,0-8,8.88c-4.25,7.39-5.78,17-2.13,24.8,3.4,7.23,11.37,12.4,20,10.54,5.1-1.09,8.54-4.27,11-8.52s3.86-9.22,1.15-13.44A1.06,1.06,0,0,0,148.94,121.46Z"/><path class="cls-6" d="M161.09,119.77c-.59-1.86-2.16-3.68-4.28-3.44a4.07,4.07,0,0,0-2.46,1.21,7,7,0,0,0-.81-3.24c-.85-1.57-2.7-3.17-4.62-2.68S146.8,114.33,147,116a12.83,12.83,0,0,0,.61,2.79,4.47,4.47,0,0,0-1.77-.52,2.7,2.7,0,0,0-2.9,2.51c-.49,4,3.56,7.85,6.78,9.45a.2.2,0,0,0,.24-.05,14.92,14.92,0,0,0,6.75,10c.56.35,1.59,0,1.39-.81q-1.19-4.77-2.76-9.41C159.33,128.31,162.54,124.27,161.09,119.77Z"/><path class="cls-4" d="M145,133.33a24.9,24.9,0,0,0-2.76,2.77,18.85,18.85,0,0,1-3.3,2.61,24,24,0,0,1-8.28,3,0,0,0,0,0,0,.09,16.37,16.37,0,0,0,8.79-1.8c2.43-1.23,5.68-3.21,6.58-6A.67.67,0,0,0,145,133.33Z"/><path class="cls-4" d="M142.72,129.79c-2.47,1.16-4.65,3-6.87,4.6-.14.09,0,.28.13.23,2.6-.86,5.41-2.07,7.28-4.14C143.56,130.14,143.11,129.61,142.72,129.79Z"/><path class="cls-4" d="M142,125.9a25.32,25.32,0,0,1-2.57.77,6.31,6.31,0,0,1-3.13-.4.39.39,0,0,0-.3.73c1.81.81,4.74,1.14,6.32-.35C142.53,126.39,142.4,125.78,142,125.9Z"/><path class="cls-4" d="M137.91,121.09a18.94,18.94,0,0,0-3.14-1.52,17.09,17.09,0,0,1-3-2,18.58,18.58,0,0,1-4.81-6,.26.26,0,0,0-.47.2,15,15,0,0,0,4.1,7c1.69,1.59,4.49,3.74,7,3.56A.69.69,0,0,0,137.91,121.09Z"/><path class="cls-4" d="M140.67,117c-.51-.8-1.65-1.25-2.39-1.83a10.5,10.5,0,0,1-2.22-2.39c-.27-.41-.9,0-.72.42a9.94,9.94,0,0,0,2,3.15c.75.79,1.8,1.73,2.94,1.66A.63.63,0,0,0,140.67,117Z"/><path class="cls-4" d="M166.84,100.11a.79.79,0,0,0-1.44,0,14.7,14.7,0,0,0-.56,3.52,20,20,0,0,1-1.06,4.18,25.28,25.28,0,0,1-4.48,6.81c-.25.31.13.86.5.64a14.83,14.83,0,0,0,5.62-6.51C166.54,106.49,168.07,102.57,166.84,100.11Z"/><path class="cls-4" d="M175.79,119c-1.83-.43-4,.05-5.86,0s-3.94-.19-5.9-.32a.35.35,0,0,0-.18.67,20.52,20.52,0,0,0,6.13,1.48c1.87.16,4.27.45,6-.35A.78.78,0,0,0,175.79,119Z"/><path class="cls-4" d="M172,130.41c-1-.71-2.35-.66-3.47-1.09a26.72,26.72,0,0,1-3.46-1.75c-.39-.23-.66.32-.47.62a7.28,7.28,0,0,0,3.28,2.7c1.14.5,2.83,1.13,4,.45A.55.55,0,0,0,172,130.41Z"/><path class="cls-4" d="M167.23,135.25c-1.25-.48-2.45-.56-3.57-1.41a6.8,6.8,0,0,1-2.31-3.29c-.14-.45-.84-.23-.78.21a6.09,6.09,0,0,0,2.29,4.14c1.14.95,2.87,1.79,4.37,1.32A.53.53,0,0,0,167.23,135.25Z"/><path class="cls-4" d="M148.28,122.63c-1.41.59-.26,2.77,1.09,1.85C150.39,123.79,149.4,122.15,148.28,122.63Z"/><path class="cls-4" d="M151.51,126.74a.59.59,0,0,0-.42-.24,1.85,1.85,0,0,0-.47,0,.72.72,0,0,0-.44.26.67.67,0,0,0-.13.49.65.65,0,0,0,.26.44.67.67,0,0,0,.49.13,1.72,1.72,0,0,0,.46-.11.66.66,0,0,0,.3-.27.59.59,0,0,0,.08-.41A.67.67,0,0,0,151.51,126.74Z"/><path class="cls-4" d="M153.82,125a.58.58,0,0,0-.47-.12,1.33,1.33,0,0,0-.34.1l-.19.1a.82.82,0,0,0-.34.27.88.88,0,0,0-.17.41.86.86,0,0,0,1.19.9.92.92,0,0,0,.35-.27A.86.86,0,0,0,154,126l.05-.2a1.45,1.45,0,0,0,0-.36A.6.6,0,0,0,153.82,125Z"/><path class="cls-4" d="M156.16,121.31a.83.83,0,0,0,.22,1.64A.83.83,0,0,0,156.16,121.31Z"/><path class="cls-4" d="M151.26,121.55a.61.61,0,0,0,.16,1.2A.61.61,0,0,0,151.26,121.55Z"/><path class="cls-4" d="M150.74,117.79a.81.81,0,0,0,.22,1.61A.81.81,0,0,0,150.74,117.79Z"/><path class="cls-4" d="M155.56,124.15a.71.71,0,0,0,.19,1.4A.71.71,0,0,0,155.56,124.15Z"/><path class="cls-4" d="M147.62,122c-.07-.06-.13-.14-.2-.19a.9.9,0,0,0-.66-.16l-.42,0a.82.82,0,0,0-.71.93.84.84,0,0,0,.93.71l.42-.08a1,1,0,0,0,.52-.26,1.18,1.18,0,0,0,.21-.32A.63.63,0,0,0,147.62,122Z"/><path class="cls-4" d="M53,27.85a19.05,19.05,0,0,1,2.79-5.73c1.48-2.32,3-4.64,4.47-7,2.29-3.57,4.26-7.33,9.11-7.08,4.1.21,8.35,2.21,11.76,4.41s6.87,5.17,8.6,9-.36,9.66-1,13.81c-1.57,9.52-8.28,10.85-11.61,11.88a17.36,17.36,0,0,1-11.57-.63C58.51,43.79,51,36,53,27.85Z"/><path class="cls-8" d="M103.63,31.06c-4.79-5.75-12.69-10.83-20.91-9.44a8.06,8.06,0,0,0-4.9,2.45c-1.55,1.87-.9,4-.62,6.14a26.24,26.24,0,0,1-.19,8c-.44,2.53-1.44,4.92-1.86,7.44a.35.35,0,0,0,.5.34L77,49.06a1.06,1.06,0,0,0-.7.76C75,54.09,77,58.05,79.88,61.28s6.46,5.88,11,6.39c8.79,1,16.37-5,18.77-12.75C112.26,46.58,109.11,37.63,103.63,31.06Z"/><path class="cls-8" d="M72.94,49.62l.46-3.36c.25,0,.51-.2.38-.47-.92-2-2.26-3.73-3.29-5.67a26.91,26.91,0,0,1-2.53-7c-.4-1.95-.17-4.29-1.26-6a5.61,5.61,0,0,0-4.13-2.37c-3.72-.52-7.77,1.17-10.77,3.17a26.24,26.24,0,0,0-8,8.88c-4.26,7.39-5.79,17-2.14,24.79C45.07,68.81,53,74,61.7,72.12c5.09-1.09,8.54-4.27,11-8.53s3.86-9.21,1.15-13.44A1.07,1.07,0,0,0,72.94,49.62Z"/><path class="cls-6" d="M85.09,47.92c-.6-1.85-2.16-3.67-4.28-3.44a4.2,4.2,0,0,0-2.47,1.21,6.8,6.8,0,0,0-.8-3.23c-.86-1.58-2.7-3.17-4.63-2.69S70.8,42.48,71,44.14a14.22,14.22,0,0,0,.61,2.8,4.42,4.42,0,0,0-1.77-.52,2.7,2.7,0,0,0-2.9,2.5c-.48,4,3.57,7.86,6.78,9.46a.21.21,0,0,0,.25-.06,14.85,14.85,0,0,0,6.74,9.95c.56.36,1.59,0,1.39-.81q-1.18-4.75-2.76-9.41C83.33,56.46,86.53,52.42,85.09,47.92Z"/><path class="cls-4" d="M69,61.48a25.08,25.08,0,0,0-2.77,2.78,18.73,18.73,0,0,1-3.29,2.6,23.85,23.85,0,0,1-8.28,3s-.06.09,0,.09a16.23,16.23,0,0,0,8.78-1.8C65.87,67,69.11,65,70,62.26A.67.67,0,0,0,69,61.48Z"/><path class="cls-4" d="M66.71,58c-2.46,1.15-4.64,3-6.87,4.59-.13.1,0,.28.14.23,2.6-.86,5.41-2.06,7.27-4.13C67.56,58.3,67.11,57.76,66.71,58Z"/><path class="cls-4" d="M65.94,54.05a22.22,22.22,0,0,1-2.56.77,6.24,6.24,0,0,1-3.14-.39.39.39,0,0,0-.3.72c1.81.82,4.74,1.15,6.32-.35C66.53,54.55,66.39,53.94,65.94,54.05Z"/><path class="cls-4" d="M61.91,49.24a20.67,20.67,0,0,0-3.14-1.52,15.85,15.85,0,0,1-3-2,18.34,18.34,0,0,1-4.81-6,.26.26,0,0,0-.47.21,14.94,14.94,0,0,0,4.09,6.94c1.7,1.6,4.5,3.74,6.95,3.57A.7.7,0,0,0,61.91,49.24Z"/><path class="cls-4" d="M64.67,45.17c-.52-.79-1.66-1.24-2.39-1.83A10.09,10.09,0,0,1,60.06,41c-.28-.4-.9,0-.72.43a10,10,0,0,0,2,3.15c.75.78,1.79,1.72,2.93,1.66A.64.64,0,0,0,64.67,45.17Z"/><path class="cls-4" d="M90.84,28.26a.79.79,0,0,0-1.44,0,14.29,14.29,0,0,0-.56,3.52A20,20,0,0,1,87.77,36a25.48,25.48,0,0,1-4.48,6.82c-.25.3.13.85.51.64a14.93,14.93,0,0,0,5.61-6.51C90.54,34.65,92.06,30.72,90.84,28.26Z"/><path class="cls-4" d="M99.79,47.14c-1.83-.42-4,.06-5.87,0S90,47,88,46.82a.35.35,0,0,0-.18.66A20.29,20.29,0,0,0,94,49c1.87.16,4.28.45,6-.35A.78.78,0,0,0,99.79,47.14Z"/><path class="cls-4" d="M95.94,58.57c-1-.71-2.35-.67-3.46-1.1A25.5,25.5,0,0,1,89,55.72c-.4-.22-.66.33-.48.63a7.34,7.34,0,0,0,3.28,2.7c1.15.49,2.84,1.12,4,.45A.55.55,0,0,0,95.94,58.57Z"/><path class="cls-4" d="M91.22,63.4c-1.25-.47-2.45-.56-3.56-1.4a6.89,6.89,0,0,1-2.32-3.3c-.14-.44-.83-.22-.78.22a6.09,6.09,0,0,0,2.29,4.13c1.15,1,2.88,1.79,4.38,1.33A.54.54,0,0,0,91.22,63.4Z"/><path class="cls-4" d="M72.27,50.78c-1.41.59-.25,2.77,1.1,1.85C74.38,51.94,73.4,50.31,72.27,50.78Z"/><path class="cls-4" d="M75.51,54.89a.72.72,0,0,0-.42-.24,2,2,0,0,0-.48,0,.63.63,0,0,0-.43.26.64.64,0,0,0-.13.49.68.68,0,0,0,.25.43.63.63,0,0,0,.49.13,1.89,1.89,0,0,0,.47-.11.68.68,0,0,0,.38-.67A.85.85,0,0,0,75.51,54.89Z"/><path class="cls-4" d="M77.82,53.13a.61.61,0,0,0-.47-.12,2,2,0,0,0-.35.1l-.18.1a.85.85,0,0,0-.35.27,1.05,1.05,0,0,0-.17.41.86.86,0,0,0,1.19.9.87.87,0,0,0,.52-.67c0-.07,0-.14,0-.21a1.45,1.45,0,0,0,0-.36A.65.65,0,0,0,77.82,53.13Z"/><path class="cls-4" d="M80.16,49.47a.83.83,0,0,0,.22,1.64A.83.83,0,0,0,80.16,49.47Z"/><path class="cls-4" d="M75.25,49.71a.6.6,0,0,0,.17,1.19A.6.6,0,0,0,75.25,49.71Z"/><path class="cls-4" d="M74.74,45.94A.82.82,0,0,0,75,47.56.82.82,0,0,0,74.74,45.94Z"/><path class="cls-4" d="M79.56,52.3a.71.71,0,0,0,.19,1.41A.71.71,0,0,0,79.56,52.3Z"/><path class="cls-4" d="M71.61,50.15a1.8,1.8,0,0,0-.19-.2,1,1,0,0,0-.66-.16l-.43,0a.84.84,0,0,0-.71.94.83.83,0,0,0,.94.7l.42-.08a1,1,0,0,0,.52-.26,1.27,1.27,0,0,0,.2-.31A.61.61,0,0,0,71.61,50.15Z"/><path class="cls-4" d="M153.58,136.11a16,16,0,0,1,3.72-3.84l5.38-4.38c2.77-2.25,5.32-4.74,9.11-3.27,3.22,1.24,6.09,3.94,8.23,6.58s4.13,5.92,4.51,9.44-2.81,7.61-4.44,10.74c-3.73,7.19-9.43,6.49-12.36,6.44a14.51,14.51,0,0,1-9.06-3.52C153.84,150.27,149.92,142.08,153.58,136.11Z"/><path class="cls-5" d="M193.14,151.89c-2.32-5.83-7.29-11.94-14.2-13a6.81,6.81,0,0,0-4.56.67c-1.72,1.09-1.76,3-2.09,4.74a21.93,21.93,0,0,1-2.23,6.3c-1,1.89-2.43,3.54-3.42,5.44-.12.22.09.41.3.41l.26,2.83a.89.89,0,0,0-.76.41c-2.16,3.06-1.57,6.76-.12,10.08s3.61,6.38,7.11,8c6.75,3.07,14.36.27,18.29-5.26C196,166.52,195.8,158.56,193.14,151.89Z"/><path class="cls-5" d="M163.82,158.68l1.24-2.56a.29.29,0,0,0,.43-.27c-.22-1.82-.83-3.56-1.14-5.38a22.45,22.45,0,0,1-.19-6.23c.18-1.66,1-3.46.57-5.14a4.72,4.72,0,0,0-2.68-3c-2.83-1.39-6.5-1.1-9.41-.29a22.16,22.16,0,0,0-8.7,5c-5.32,4.79-9.06,12.09-8.18,19.22.83,6.66,5.84,12.86,13.23,13.64,4.35.46,7.92-1.18,11-3.93s5.49-6.34,4.43-10.42A.9.9,0,0,0,163.82,158.68Z"/><path class="cls-6" d="M174,160.5c0-1.63-.76-3.49-2.51-3.86a3.52,3.52,0,0,0-2.28.32,5.81,5.81,0,0,0,.2-2.79c-.27-1.48-1.33-3.23-3-3.35s-2.39,1.61-2.68,3a11.56,11.56,0,0,0-.25,2.39,3.66,3.66,0,0,0-1.28-.88,2.27,2.27,0,0,0-3,1.24c-1.43,3.08.79,7.2,2.94,9.31a.17.17,0,0,0,.21,0,12.5,12.5,0,0,0,2.78,9.7c.36.43,1.27.41,1.32-.29.2-2.73.28-5.48.25-8.22C170.32,166.85,173.93,164.47,174,160.5Z"/><path class="cls-4" d="M157.58,167.11a21.8,21.8,0,0,0-2.93,1.49,15.66,15.66,0,0,1-3.31,1.22,20.24,20.24,0,0,1-7.4.27s-.06,0,0,.07a13.63,13.63,0,0,0,7.47.86c2.27-.34,5.37-1.08,6.8-3A.56.56,0,0,0,157.58,167.11Z"/><path class="cls-4" d="M156.69,163.7a41.18,41.18,0,0,0-6.68,1.87c-.14,0-.08.22,0,.22a14.11,14.11,0,0,0,6.88-1.4A.38.38,0,0,0,156.69,163.7Z"/><path class="cls-4" d="M157.09,160.39a18.84,18.84,0,0,1-2.25-.06,5.18,5.18,0,0,1-2.4-1.13.33.33,0,0,0-.42.5c1.23,1.12,3.48,2.15,5.13,1.37C157.43,160.94,157.48,160.42,157.09,160.39Z"/><path class="cls-4" d="M155.13,155.5a17.62,17.62,0,0,0-2.11-2,13,13,0,0,1-1.83-2.35,15.44,15.44,0,0,1-2.28-6,.22.22,0,0,0-.43,0,12.57,12.57,0,0,0,1.45,6.61c.94,1.71,2.61,4.15,4.61,4.65A.59.59,0,0,0,155.13,155.5Z"/><path class="cls-4" d="M158.39,153c-.2-.77-1-1.43-1.43-2.08a8.94,8.94,0,0,1-1.15-2.49c-.11-.4-.71-.24-.68.15a8.2,8.2,0,0,0,.76,3c.39.82,1,1.84,1.9,2.09C158.22,153.79,158.48,153.33,158.39,153Z"/><path class="cls-4" d="M183.67,146.32a.66.66,0,0,0-1.15-.37,11.58,11.58,0,0,0-1.36,2.67,16.8,16.8,0,0,1-1.95,3,20.85,20.85,0,0,1-5.35,4.26c-.28.19-.12.72.24.65a12.54,12.54,0,0,0,6.18-3.73C181.76,151.34,184,148.6,183.67,146.32Z"/><path class="cls-4" d="M185.88,163.72c-1.35-.82-3.19-1-4.68-1.54s-3.09-1.18-4.62-1.8a.29.29,0,0,0-.31.49,17.25,17.25,0,0,0,4.5,2.78c1.45.61,3.29,1.47,4.89,1.29A.65.65,0,0,0,185.88,163.72Z"/><path class="cls-4" d="M179.83,171.82c-.59-.82-1.7-1.14-2.48-1.78a21.72,21.72,0,0,1-2.3-2.3c-.25-.28-.61.09-.54.38a6.14,6.14,0,0,0,1.91,3c.78.69,2,1.64,3.08,1.4A.45.45,0,0,0,179.83,171.82Z"/><path class="cls-4" d="M174.81,174.45a10.43,10.43,0,0,1-2.48-2.06,5.8,5.8,0,0,1-1-3.23c0-.39-.6-.4-.67,0a5.12,5.12,0,0,0,.74,3.9,4.26,4.26,0,0,0,3.15,2.19C174.94,175.23,175.08,174.67,174.81,174.45Z"/><path class="cls-4" d="M163,159.43a.91.91,0,1,0,.39,1.77C164.37,160.91,164,159.35,163,159.43Z"/><path class="cls-4" d="M164.5,163.56a.57.57,0,0,0-.28-.31,1.51,1.51,0,0,0-.38-.1.51.51,0,0,0-.41.09.54.54,0,0,0-.24.35.67.67,0,0,0,.09.42.61.61,0,0,0,.36.23,1.81,1.81,0,0,0,.4,0,.59.59,0,0,0,.31-.14.6.6,0,0,0,.17-.3A.65.65,0,0,0,164.5,163.56Z"/><path class="cls-4" d="M166.8,162.76a.48.48,0,0,0-.34-.22,1.08,1.08,0,0,0-.31,0l-.17,0a.65.65,0,0,0-.35.13.73.73,0,0,0-.24.28.72.72,0,0,0,.06.72.74.74,0,0,0,.66.31.71.71,0,0,0,.34-.13.6.6,0,0,0,.24-.28l.09-.15a1.42,1.42,0,0,0,.1-.29A.49.49,0,0,0,166.8,162.76Z"/><path class="cls-4" d="M169.62,160.44a.7.7,0,0,0-.25,1.37A.7.7,0,0,0,169.62,160.44Z"/><path class="cls-4" d="M165.65,159.36a.5.5,0,0,0-.19,1A.5.5,0,0,0,165.65,159.36Z"/><path class="cls-4" d="M166.22,156.22a.69.69,0,0,0-.25,1.35A.69.69,0,0,0,166.22,156.22Z"/><path class="cls-4" d="M168.4,162.55a.59.59,0,0,0-.21,1.17A.59.59,0,0,0,168.4,162.55Z"/><path class="cls-4" d="M162.63,158.76a1.39,1.39,0,0,0-.11-.21.77.77,0,0,0-.48-.3l-.35-.09a.7.7,0,0,0-.25,1.37l.36,0a.8.8,0,0,0,.48-.07,1.18,1.18,0,0,0,.25-.19A.53.53,0,0,0,162.63,158.76Z"/><path class="cls-4" d="M162.46,175.79a9.71,9.71,0,0,1,2.31-2.39l3.35-2.72c1.72-1.41,3.3-3,5.67-2a13.3,13.3,0,0,1,5.11,4.09,11.65,11.65,0,0,1,2.81,5.88c.24,2.27-1.75,4.73-2.76,6.68-2.33,4.47-5.87,4-7.69,4a9.16,9.16,0,0,1-5.64-2.19C162.62,184.59,160.18,179.5,162.46,175.79Z"/><path class="cls-5" d="M187.07,185.6c-1.45-3.62-4.54-7.43-8.84-8.07a4.24,4.24,0,0,0-2.83.42c-1.08.68-1.1,1.84-1.31,2.94a13.66,13.66,0,0,1-1.38,3.92c-.63,1.18-1.51,2.21-2.13,3.39-.07.14,0,.25.19.25l.16,1.76a.55.55,0,0,0-.47.26c-1.35,1.91-1,4.2-.08,6.27a9.14,9.14,0,0,0,4.42,5,9.35,9.35,0,0,0,11.38-3.28C188.82,194.71,188.72,189.75,187.07,185.6Z"/><path class="cls-5" d="M168.83,189.83l.77-1.59c.12,0,.29,0,.27-.17-.14-1.14-.52-2.22-.71-3.35a13.58,13.58,0,0,1-.12-3.87c.11-1,.6-2.16.35-3.2a2.91,2.91,0,0,0-1.67-1.85,8.65,8.65,0,0,0-5.85-.18,13.73,13.73,0,0,0-5.41,3.11c-3.31,3-5.64,7.51-5.09,12a9.52,9.52,0,0,0,8.23,8.48,8.55,8.55,0,0,0,6.83-2.44c1.86-1.68,3.41-3.95,2.75-6.48A.55.55,0,0,0,168.83,189.83Z"/><path class="cls-6" d="M175.13,191a2.27,2.27,0,0,0-1.57-2.4,2.11,2.11,0,0,0-1.41.2,3.63,3.63,0,0,0,.12-1.74c-.17-.92-.82-2-1.86-2.08s-1.49,1-1.67,1.85a7.61,7.61,0,0,0-.15,1.49,2.4,2.4,0,0,0-.79-.55,1.42,1.42,0,0,0-1.85.77c-.89,1.92.5,4.48,1.83,5.8a.12.12,0,0,0,.13,0,7.8,7.8,0,0,0,1.73,6c.22.27.79.25.82-.18.13-1.7.18-3.41.16-5.11C172.87,194.91,175.12,193.43,175.13,191Z"/><path class="cls-4" d="M164.94,195.07a13,13,0,0,0-1.82.93,10,10,0,0,1-2.06.76,12.71,12.71,0,0,1-4.6.17s0,0,0,0a8.4,8.4,0,0,0,4.65.53c1.4-.21,3.33-.67,4.22-1.88A.35.35,0,0,0,164.94,195.07Z"/><path class="cls-4" d="M164.39,193a25.46,25.46,0,0,0-4.16,1.16c-.08,0,0,.14,0,.14a8.74,8.74,0,0,0,4.28-.87A.24.24,0,0,0,164.39,193Z"/><path class="cls-4" d="M164.64,190.89a13.09,13.09,0,0,1-1.4,0,3.23,3.23,0,0,1-1.49-.71c-.2-.16-.46.14-.27.31.77.7,2.17,1.34,3.2.86C164.85,191.23,164.88,190.91,164.64,190.89Z"/><path class="cls-4" d="M163.42,187.85a11.14,11.14,0,0,0-1.31-1.26,8.44,8.44,0,0,1-1.14-1.46,9.63,9.63,0,0,1-1.42-3.75.14.14,0,0,0-.27,0,7.88,7.88,0,0,0,.91,4.12c.58,1.06,1.62,2.58,2.87,2.89A.36.36,0,0,0,163.42,187.85Z"/><path class="cls-4" d="M165.45,186.28c-.13-.48-.62-.89-.89-1.29a5.31,5.31,0,0,1-.71-1.55c-.07-.25-.45-.15-.43.09a5.36,5.36,0,0,0,.47,1.89c.25.51.61,1.14,1.19,1.3C165.34,186.79,165.51,186.5,165.45,186.28Z"/><path class="cls-4" d="M181.18,182.14a.42.42,0,0,0-.72-.23,7.23,7.23,0,0,0-.85,1.66,11.11,11.11,0,0,1-1.21,1.9,13,13,0,0,1-3.33,2.65c-.17.11-.07.45.15.4a7.73,7.73,0,0,0,3.84-2.32C180,185.26,181.38,183.56,181.18,182.14Z"/><path class="cls-4" d="M182.55,193a16.54,16.54,0,0,0-2.91-1c-1-.35-1.92-.73-2.87-1.11a.18.18,0,0,0-.2.3,10.64,10.64,0,0,0,2.8,1.73,6.72,6.72,0,0,0,3,.8A.4.4,0,0,0,182.55,193Z"/><path class="cls-4" d="M178.79,198c-.37-.51-1.06-.71-1.55-1.1a16.08,16.08,0,0,1-1.43-1.43c-.16-.18-.38.05-.33.23a3.82,3.82,0,0,0,1.18,1.87c.49.43,1.23,1,1.92.88A.29.29,0,0,0,178.79,198Z"/><path class="cls-4" d="M175.66,199.64a6.73,6.73,0,0,1-1.54-1.28,3.6,3.6,0,0,1-.61-2c0-.25-.38-.25-.42,0a3.14,3.14,0,0,0,.46,2.42,2.63,2.63,0,0,0,1.95,1.37A.28.28,0,0,0,175.66,199.64Z"/><path class="cls-4" d="M168.31,190.3a.56.56,0,1,0,.24,1.09C169.17,191.22,168.94,190.25,168.31,190.3Z"/><path class="cls-4" d="M169.25,192.86a.39.39,0,0,0-.17-.19.94.94,0,0,0-.24-.06.34.34,0,0,0-.26,0,.35.35,0,0,0-.14.22.34.34,0,0,0,.05.26.36.36,0,0,0,.23.15.93.93,0,0,0,.24,0,.31.31,0,0,0,.19-.09.29.29,0,0,0,.11-.18A.55.55,0,0,0,169.25,192.86Z"/><path class="cls-4" d="M170.68,192.36a.32.32,0,0,0-.21-.13.62.62,0,0,0-.19,0l-.11,0a.58.58,0,0,0-.22.08.61.61,0,0,0-.15.17.46.46,0,0,0,.45.65.49.49,0,0,0,.21-.08.43.43,0,0,0,.15-.18l.06-.09a1,1,0,0,0,.06-.18A.37.37,0,0,0,170.68,192.36Z"/><path class="cls-4" d="M172.43,190.93a.43.43,0,0,0-.15.85A.43.43,0,0,0,172.43,190.93Z"/><path class="cls-4" d="M170,190.25a.31.31,0,0,0-.11.62A.31.31,0,0,0,170,190.25Z"/><path class="cls-4" d="M170.32,188.3a.42.42,0,0,0-.15.83A.42.42,0,0,0,170.32,188.3Z"/><path class="cls-4" d="M171.67,192.23a.37.37,0,0,0-.13.73A.37.37,0,0,0,171.67,192.23Z"/><path class="cls-4" d="M168.09,189.88s0-.09-.07-.13a.46.46,0,0,0-.3-.19l-.22-.05a.42.42,0,0,0-.5.35.44.44,0,0,0,.35.5l.22,0a.45.45,0,0,0,.3,0,.88.88,0,0,0,.15-.12A.35.35,0,0,0,168.09,189.88Z"/><path class="cls-2" d="M146,210.08c1.19-9.88,1.45-19.85,2.81-29.72a1.39,1.39,0,0,0-1.83-1.51c-15.6,3.74-27,16.25-34.36,29.91C104.8,223.27,101.26,239.69,93,254a53.84,53.84,0,0,1-9.17,12.15c-2.24.47-4.46,1-6.67,1.56-1.56.43-1.1,2.69.29,2.95l0,.2-.14.08c-.21.12-.18.55.12.48a15.26,15.26,0,0,0,3.05-1.05,117.62,117.62,0,0,0,23.54-6,73.2,73.2,0,0,0,21.33-11.6,51.17,51.17,0,0,0,14.58-18.49C143.37,226.65,145,218.33,146,210.08Z"/><path class="cls-3" d="M148.76,180.64a1.31,1.31,0,0,0-.4-1.18,68.55,68.55,0,0,0-11,17.77c-3.5,7.72-6.47,15.68-10.29,23.27a122.76,122.76,0,0,1-14.53,22.56c-6,7.35-13.13,13.41-20,19.87q-3.48,3.26-6.56,6.75a126.34,126.34,0,0,0,18-5.07A73.18,73.18,0,0,0,125.25,253a51.21,51.21,0,0,0,14.58-18.5c3.49-7.59,5.12-15.91,6.12-24.16C147.14,200.48,147.39,190.51,148.76,180.64Z"/><path class="cls-2" d="M68.74,267.8C66.84,266.3,44.49,253.19,37,250a93.44,93.44,0,0,0-25.38-6.78c-2-.25-2.22,2.48-.92,3.38,8.62,5.95,17.41,11.81,27.17,15.74s20.05,4.15,29.9,7.25C68.67,269.84,69.58,268.46,68.74,267.8Z"/><path class="cls-2" d="M140.79,204.21c-1.8,9.91-3.62,19.65-9.34,28.17a61.25,61.25,0,0,1-8.82,10.14c-3.28,3.13-7,5.78-10.2,9a1.32,1.32,0,0,0,1.59,2.06c4.22-2.16,8-5.5,11.29-8.84A59.31,59.31,0,0,0,134,233.83c5.55-9,6.76-19.18,7.16-29.58A.16.16,0,0,0,140.79,204.21Z"/><path class="cls-2" d="M103.21,206.15c-1.12-6.32-2.67-12.56-3.41-19-.73-6.23-1.09-12.56-1.54-18.81,0-.16-.25-.21-.28,0a61.34,61.34,0,0,0-1.11,19.26c.57,6.52,1.57,13.11,4,19.18A1.19,1.19,0,0,0,103.21,206.15Z"/><path class="cls-2" d="M43.25,246.9c-2.62-2.7-6.28-4.22-9.1-6.74a37.3,37.3,0,0,1-6.64-8.07c-4-6.36-6.84-13.41-10.51-19.93a.17.17,0,0,0-.3.13c2.49,7.46,5.27,15.12,9.41,21.87A34,34,0,0,0,33,242.41c2.75,2.35,6,4.81,9.56,5.73A.75.75,0,0,0,43.25,246.9Z"/><path class="cls-2" d="M62.8,257a60.9,60.9,0,0,1-8-3.83c-.47-.3-.9.44-.44.74a24.49,24.49,0,0,0,8.17,3.8C62.9,257.75,63.22,257.15,62.8,257Z"/><path class="cls-2" d="M65.35,193.81c-2.93-6.52-5.68-13.11-8.74-19.56s-5.94-13-8.45-19.66a150.82,150.82,0,0,1-6-19.75,99.8,99.8,0,0,1-1.8-10.46c-.4-3.37-.37-6.82-1-10.14a.12.12,0,0,0-.23,0c-.75,3.3-.46,6.79-.21,10.14s.71,6.83,1.31,10.21a123.17,123.17,0,0,0,5.66,20.64c2.42,6.66,5.26,13.14,8.33,19.52,3.2,6.64,7.09,12.91,10.87,19.22C65.17,194.16,65.43,194,65.35,193.81Z"/><path class="cls-2" d="M84.47,240.56a115.86,115.86,0,0,0-6.71-20.36,109.46,109.46,0,0,0-10.25-19.53.19.19,0,0,0-.32.19c3,6.56,6.31,13,9.13,19.61s5.26,13.44,7.76,20.2A.2.2,0,0,0,84.47,240.56Z"/><path class="cls-2" d="M39.43,96.54a21.9,21.9,0,0,0-1.08,10.73c.06.31.5.21.53-.07.28-3.55.5-7.07.95-10.61C39.86,96.35,39.5,96.33,39.43,96.54Z"/><path class="cls-9" d="M137.11,186.29c-6.05,2.22-11.18,7.57-15.11,12.52a79.45,79.45,0,0,0-10.13,17.52c-2.92,6.62-5.32,13.44-8,20.15a165.68,165.68,0,0,1-10.31,20.76c0,.06.05.12.1.08,5.1-5,8.68-11.34,12-17.61s6.3-13,9.46-19.44c2.94-6.05,6.07-11.86,9.59-17.6a69.13,69.13,0,0,1,5.74-8.08c2.22-2.67,4.78-5,7.08-7.54C137.82,186.74,137.57,186.13,137.11,186.29Z"/><path class="cls-9" d="M95.62,157.06C88.47,166,83,176,80.44,187.24c-2.46,10.69-2.86,23.47,3,33.19a.76.76,0,0,0,1.39-.58,110.7,110.7,0,0,1-1.53-15.95A74.18,74.18,0,0,1,85,187.69c2.35-10.48,6.61-20.55,11-30.29C96.2,157.13,95.84,156.78,95.62,157.06Z"/><path class="cls-9" d="M39.93,257.37c-3.61-3.57-9.09-5.66-13.7-7.64-2.28-1-4.56-2-6.9-2.83a26,26,0,0,0-7.2-1.94s0,0,0,0c1.69,1.64,3.92,2.67,6,3.83,2.29,1.32,4.68,2.48,7,3.7s4.49,2.25,6.72,3.39a27.24,27.24,0,0,0,7.27,2.93A.89.89,0,0,0,39.93,257.37Z"/><path class="cls-9" d="M78.44,243.43C77,238,72.05,233.14,67.86,229.59a87.07,87.07,0,0,0-16-10.21c-12-6.3-24-12-34.63-20.68-.13-.1-.37,0-.25.2,7.5,10.5,20.05,16.19,31.05,22.22a132.07,132.07,0,0,1,16,9.92,78.91,78.91,0,0,1,7.16,5.84c2.33,2.22,4.22,4.76,6.62,6.87A.33.33,0,0,0,78.44,243.43Z"/><path class="cls-9" d="M83.93,223.49c0-.08-.17,0-.15.07,1.49,4.79,2.48,9.75,4.15,14.48.09.25.5.22.49-.07C88.24,232.84,86.3,228,83.93,223.49Z"/><path class="cls-10" d="M140.89,182.58a3.54,3.54,0,0,0-1.6,1.13,2,2,0,0,0-.73,1.51.17.17,0,0,0,.2.11c.5-.17.79-.64,1.17-1s.95-.65,1.4-1S141.3,182.45,140.89,182.58Z"/><path class="cls-11" d="M45.73,365.28h68.66a4.11,4.11,0,0,0,4-3.37l17.64-95.49a.63.63,0,0,0-.62-.75H26.36a.64.64,0,0,0-.63.74L41.85,362A3.94,3.94,0,0,0,45.73,365.28Z"/><path class="cls-12" d="M117.68,265.67l-14.51,77.44a19.82,19.82,0,0,1-16.7,16l-41.2,5.8a.21.21,0,0,0,0,.41h69.09a4.11,4.11,0,0,0,4-3.37l17.64-95.49a.63.63,0,0,0-.62-.75Z"/><path class="cls-13" d="M53.72,348.63q-.82-4.29-1.63-8.58-1.64-8.76-3.22-17.52-3.16-17.53-6.35-35c-.59-3.2-1.3-6.37-2.16-9.5a42.37,42.37,0,0,0-1.88-4.88c-.53-1.26-.81-2.67-2.08-3.36a1,1,0,0,0-1.14.15,3.91,3.91,0,0,0-.94,2.75c-.14,1.61-.37,3.21-.42,4.84a59.32,59.32,0,0,0,.5,8.63c.78,6.15,1.64,12.29,2.49,18.42,1.63,11.78,3.69,23.52,5.67,35.25.56,3.33,1.13,6.67,1.71,10q.43,2.59.9,5.17a7.58,7.58,0,0,0,3.07,5.48c1.89,1.4,4.67.23,5.79-1.52C55.93,356,54.33,351.83,53.72,348.63Z"/><path class="cls-11" d="M128.33,274.1c0-.37-.57-.61-.77-.21-1.51,3-2.17,6.32-2.93,9.53s-1.46,6.42-2.13,9.64c-1.4,6.68-2.73,13.37-4.06,20.06s-2.69,13.38-4,20.09l-1.86,9.71a44.86,44.86,0,0,0-1.2,10.25c0,1.19,1.88,1.94,2.44.67,2.69-6.06,3.34-13.07,4.59-19.54,1.29-6.71,2.51-13.43,3.75-20.15s2.5-13.43,3.68-20.16c.57-3.26,1.11-6.52,1.6-9.79S128.64,277.45,128.33,274.1Z"/></svg>