<?xml version="1.0" encoding="utf-8"?>
<!-- Generator: Adobe Illustrator 25.2.0, SVG Export Plug-In . SVG Version: 6.00 Build 0)  -->
<svg version="1.1" id="Layer_1" xmlns="http://www.w3.org/2000/svg" xmlns:xlink="http://www.w3.org/1999/xlink" x="0px" y="0px"
	 viewBox="0 0 400 357" style="enable-background:new 0 0 400 357;" xml:space="preserve">
<style type="text/css">
	.st0{fill:url(#SVGID_1_);}
	.st1{fill:#423E3F;}
	.st2{fill:#664C46;}
	.st3{fill:#754E33;}
	.st4{fill:url(#SVGID_2_);}
	.st5{fill:url(#SVGID_3_);}
	.st6{fill:url(#SVGID_4_);}
	.st7{fill:url(#SVGID_5_);}
	.st8{fill:url(#SVGID_6_);}
	.st9{fill:url(#SVGID_7_);}
	.st10{fill:url(#SVGID_8_);}
	.st11{fill:url(#SVGID_9_);}
	.st12{fill:url(#SVGID_10_);}
</style>
<linearGradient id="SVGID_1_" gradientUnits="userSpaceOnUse" x1="179.7818" y1="-1.45" x2="175.2617" y2="229.75" gradientTransform="matrix(1 0 0 -1 0 358)">
	<stop  offset="1.000000e-02" style="stop-color:#434141"/>
	<stop  offset="0.78" style="stop-color:#423E3F"/>
</linearGradient>
<path class="st0" d="M256.6,345c0.2-0.5-1.2-1.3-2.4-3.3c-0.8-1.4-1.3-2.9-1.6-4.4c-1-4.6-5-10.3-6.4-12.4
	c-4.2-6.6-6.2-16.5-9.4-32.9c-1.9-9.3-3.2-18.8-4.1-28.2c-0.2-16.4,1.7-28.7,5.7-35.9c4.3-7.8,8.2-16,11.4-24.3c0,0,23.5,1.2,25.5,0
	s7.7-7.1,6.7-22.3l0.3-3.6l-6,2c0,0-1.9,13.6-9.6,14.7c-9.2,1.5-19.8-5.1-18.3-14.7h-6.7c0,0,2.1,28-8.1,33.9
	c-7.6,2.3-12.1-1.4-11.7-17.7l0.3-16.4h-12.1c0,0,0.7,17.4,0,18.5s-6,11.8-11.7-10.4c-4.8-15.6-2.1-8.1-2.1-8.1l-6.5,0.2
	c0,0,2.9,17.2,12.6,28c6.4,10.4,6.5,27.7,1.7,33.8c-5.2,6.1-13.9,9.5-20.7-26.8c-4.5-24.1-5.7-35-5.7-35l-9.3-0.1
	c0,0,3.8,28.7,3.1,33.8c-0.9,5.7-1.2,23.2-21.5,15.8c-10.6-1.8-31.7-8.3-40.5-27.7c-3.3-16.5-2.6-22.8-2.6-22.8l-7.6-0.2
	c0,0,0.2,9.5,1.7,12.1c-4.8,0.4-9.5-0.8-13.5-3.4c-7.8-5-11-13.4-11.8-15.9l-6.1-0.3c1.4,4.4,3.4,8.7,6.1,12.4
	c6,8.3,14.3,12.9,20.4,14c1.2,0.2,6,1,6,1.2c0,0.1-0.3,0.1-0.3,0.1s1.6,24.9,25.8,36.3c21.7,9.9,31.2,15,36.7,19s9.3,8.2,8.4,22
	c-0.9,11-0.3,22,1.6,32.8c2.1,12.3,6.2,24.2,11.9,35.4c18.6,0.7,30.6,0.8,38.3,0.7c15.4-0.2,24.2-1.1,28.8,0.2
	C253.6,344.9,256.3,345.7,256.6,345z"/>
<path class="st1" d="M232.4,260.2c-5.9,4.2-10.9,9.6-14.6,15.8c-16.5,27.7-5.3,64-4,68l43.5,1c-3.1-5.2-5.9-10.7-8.4-16.2
	C237.5,303.4,233.6,278.7,232.4,260.2z"/>
<path class="st2" d="M182.2,207.9c0,0,8.1,36.6,14.4,36.4C190,248,177.8,237.8,182.2,207.9z"/>
<path class="st3" d="M227.3,304.3c-4.4,1.2-7.4-0.4-5.3-5.2c1.1-3,6.6-11.1,10.3-8.1c3.3,4,1.8,12,0.7,16.6c-2.8,6.1-12,18-15,5.2
	c-1.6-6.5-0.4-16-0.2-22.7l-0.1,11.4c-0.1,4.5,0.3,21.5,8.1,14.9c2.8-2.3,5-6,6.5-8.9c0.9-3.5,2.9-14.8-1.4-16.3
	c-3.6-0.1-7.2,5.2-8.6,8.2C220.2,303.8,223.1,305.2,227.3,304.3L227.3,304.3z"/>
<linearGradient id="SVGID_2_" gradientUnits="userSpaceOnUse" x1="61.15" y1="287.4967" x2="352.84" y2="287.4967" gradientTransform="matrix(1 0 0 -1 0 358)">
	<stop  offset="0.22" style="stop-color:#118465"/>
	<stop  offset="0.53" style="stop-color:#118366"/>
</linearGradient>
<path class="st4" d="M61.2,97.9C63,82.1,68,58.2,82.8,38.8c40.1-52.6,116.8-28.1,141.4-20.3c60.6,19.4,99.9,65.9,119.1,93l9.5,8.7
	c-50.1,10.6-101.1,15.6-152.3,14.8c-44.6-0.7-88.9-5.8-132.5-15.1L61.2,97.9z"/>
<linearGradient id="SVGID_3_" gradientUnits="userSpaceOnUse" x1="167.8291" y1="162.9704" x2="288.3191" y2="459.4904" gradientTransform="matrix(1 0 0 -1 0 358)">
	<stop  offset="0.22" style="stop-color:#0C6762"/>
	<stop  offset="0.32" style="stop-color:#0D6E62"/>
	<stop  offset="0.46" style="stop-color:#128163"/>
	<stop  offset="0.53" style="stop-color:#148C64"/>
</linearGradient>
<path class="st5" d="M61.7,97c1.9-15.2,6.7-38.2,21.4-56.9C122.8-10.6,198.7,13,223,20.6c60,18.7,98.8,63.4,117.9,89.5l9.5,8.4
	c-49.6,10.2-100.1,15-150.7,14.3c-44.1-0.7-88-5.5-131.2-14.5L61.7,97z"/>
<linearGradient id="SVGID_4_" gradientUnits="userSpaceOnUse" x1="302.05" y1="217.4855" x2="398.052" y2="217.4855" gradientTransform="matrix(1 0 0 -1 0 358)">
	<stop  offset="0.22" style="stop-color:#118063"/>
	<stop  offset="0.29" style="stop-color:#128463"/>
	<stop  offset="0.53" style="stop-color:#148C64"/>
</linearGradient>
<path class="st6" d="M309.5,105.8c0,0,55.5-14.8,80.1,30.2c16,34.9,18.9,46.2-80.1,39.8C292.8,120,309.5,105.8,309.5,105.8z"/>
<linearGradient id="SVGID_5_" gradientUnits="userSpaceOnUse" x1="397.9936" y1="281.1074" x2="281.3136" y2="120.8674" gradientTransform="matrix(1 0 0 -1 0 358)">
	<stop  offset="0.25" style="stop-color:#148A64"/>
	<stop  offset="0.69" style="stop-color:#0D7968"/>
</linearGradient>
<path class="st7" d="M310.9,107.2c0,0,53.9-15,77.8,30.7c15.6,35.4,18.3,46.9-77.8,40.5C294.7,121.6,310.9,107.2,310.9,107.2z"/>
<linearGradient id="SVGID_6_" gradientUnits="userSpaceOnUse" x1="4.9062" y1="227.364" x2="118.4969" y2="227.364" gradientTransform="matrix(1 0 0 -1 0 358)">
	<stop  offset="0.25" style="stop-color:#0E7062"/>
	<stop  offset="0.66" style="stop-color:#0E7363"/>
</linearGradient>
<path class="st8" d="M73.3,169.9c-1.7,0-50.2-4-50.2-4s-30.1-7.2-12.8-25c4.5-2.6,8.3-6.3,10.9-10.8c3.5-5.8,2.5-8.7,4.7-14
	c7-17,30.3-22.8,30.3-22.8l0,0c0,0,31.7-7.5,55.2,7.2c2.6,1.6,3.9,2.5,4.9,4c10.9,16.6-23,65.3-23,65.3L73.3,169.9z"/>
<linearGradient id="SVGID_7_" gradientUnits="userSpaceOnUse" x1="-14.5651" y1="145.5148" x2="155.9149" y2="306.9748" gradientTransform="matrix(1 0 0 -1 0 358)">
	<stop  offset="0.18" style="stop-color:#0E6C5C"/>
	<stop  offset="0.52" style="stop-color:#0F7B60"/>
	<stop  offset="0.85" style="stop-color:#0F8462"/>
</linearGradient>
<path class="st9" d="M72.9,171c-1.6,0-48.5-4-48.5-4s-29.1-7.2-12.4-25.1c4.4-2.6,8-6.4,10.6-10.8c3.3-5.8,2.4-8.7,4.6-14.1
	c6.7-17,29.3-22.8,29.3-22.8l0,0c0,0,30.6-7.5,53.3,7.2c2.5,1.6,3.8,2.5,4.8,4.1C125,122.2,92.3,171,92.3,171H72.9z"/>
<linearGradient id="SVGID_8_" gradientUnits="userSpaceOnUse" x1="86.3705" y1="214.7098" x2="83.9105" y2="340.5898" gradientTransform="matrix(1 0 0 -1 0 358)">
	<stop  offset="0.18" style="stop-color:#0D895F"/>
	<stop  offset="0.57" style="stop-color:#0C8A5E"/>
</linearGradient>
<path class="st10" d="M62.5,89.5c0,0,4.5-12.1,35-5.9c28.3,7.5,6.7,26.6-17.5,22.5S58.5,93.7,62.5,89.5z"/>
<linearGradient id="SVGID_9_" gradientUnits="userSpaceOnUse" x1="64.4567" y1="246.0937" x2="346.7762" y2="246.0937" gradientTransform="matrix(1 0 0 -1 0 358)">
	<stop  offset="0.1" style="stop-color:#0F7367"/>
	<stop  offset="0.68" style="stop-color:#128464"/>
</linearGradient>
<path class="st11" d="M75.9,125c0,0,27.6-26.6,56.6-37c31.6-15.7,73.5-50.6,124.2-34.4c39.2,15.1,68.6,36,86,74.6
	c8.5,22.4,9.8,49.6-54.8,45.9l-179.9,0.3C107.9,174.4,37.6,168.3,75.9,125z"/>
<linearGradient id="SVGID_10_" gradientUnits="userSpaceOnUse" x1="179.1166" y1="145.6187" x2="261.2066" y2="339.2787" gradientTransform="matrix(1 0 0 -1 0 358)">
	<stop  offset="0.13" style="stop-color:#0B6561"/>
	<stop  offset="0.45" style="stop-color:#127B6A"/>
	<stop  offset="0.68" style="stop-color:#188F72"/>
</linearGradient>
<path class="st12" d="M73.2,128.9c0,0,27.9-27,57.2-37.7c32-15.9,74.3-51.4,125.7-35c39.6,15.4,69.4,36.6,87,75.8
	c8.6,22.8,9.9,50.4-55.4,46.7l-182,0.3C105.7,179.1,34.5,173,73.2,128.9z"/>
<path class="st2" d="M282.4,180c0,0,0.9,15.8-5.2,21.9c-1.8,2.1-3.2,2.1-5.4,2.1c0,0,6-2.4,7.5-10.5c0.9-4.7,1.4-9.4,1.6-14.1h1.5
	L282.4,180z"/>
<path class="st2" d="M222.3,179.4c-0.2,2.8-0.4,12.4-0.3,14.3c0.4,8.2,0.9,17.6,5.2,20c1,0.5,2.1,0.7,3.3,0.5l1.6-0.2
	c-2,3.1-3.8,3.3-4.4,3.4c-3.6,0.2-7.8-5.5-8.8-14.7c-0.7-4.4-0.9-8.8-0.7-13.2c0.2-3.7,0.8-9.9,0.8-9.9L222.3,179.4L222.3,179.4z"/>
</svg>
