<?xml version="1.0" encoding="utf-8"?>
<!-- Generator: Adobe Illustrator 25.2.0, SVG Export Plug-In . SVG Version: 6.00 Build 0)  -->
<svg version="1.1" id="Layer_1" xmlns="http://www.w3.org/2000/svg" xmlns:xlink="http://www.w3.org/1999/xlink" x="0px" y="0px"
	 viewBox="0 0 1600 900" style="enable-background:new 0 0 1600 900;" xml:space="preserve">
<style type="text/css">
	.st0{fill:#408993;}
	.st1{clip-path:url(#SVGID_2_);}
</style>
<path class="st0" d="M829.6,207.9c0,0-3.4,22.2,9.5,4.4c5.8-17.3,20.9-53.6,27.5-62.6C857.9,160.9,829.9,205.5,829.6,207.9z"/>
<path class="st0" d="M591.2,242.2c0,0-6.2,15.5,5.4,4.7c6.8-11.6,23-35.3,28.9-40.7C617.9,212.8,591.8,240.5,591.2,242.2z"/>
<path class="st0" d="M573.2,315.1c0,0-6.2,15.5,5.4,4.7c6.8-11.6,23-35.3,28.9-40.7C599.9,285.7,573.8,313.4,573.2,315.1z"/>
<path class="st0" d="M682.6,266.6c0,0-2.3,12,6.4,2.4c3.9-9.3,13.9-28.9,18.4-33.7C701.5,241.3,682.8,265.3,682.6,266.6z"/>
<path class="st0" d="M722.9,191.7c0,0-2.3,12,6.4,2.4c3.9-9.4,13.9-28.9,18.4-33.7C741.8,166.4,723,190.4,722.9,191.7z"/>
<path class="st0" d="M508.2,302.8c0,0-2.3,12,6.4,2.4c3.9-9.3,13.9-28.9,18.4-33.7C527.2,277.4,508.4,301.5,508.2,302.8z"/>
<path class="st0" d="M841.9,280.6c0,0-2.3,12,6.4,2.4c3.9-9.4,13.9-28.9,18.4-33.7C860.8,255.2,842,279.3,841.9,280.6z"/>
<path class="st0" d="M901,191.7c0,0-2.3,12,6.4,2.4c3.9-9.4,13.9-28.9,18.4-33.7C920,166.4,901.2,190.4,901,191.7z"/>
<path class="st0" d="M979.5,266.6c0,0-2.3,12,6.4,2.4c3.9-9.3,13.9-28.9,18.4-33.7C998.5,241.3,979.7,265.3,979.5,266.6z"/>
<g>
	<defs>
		<rect id="SVGID_1_" width="1600" height="900"/>
	</defs>
	<clipPath id="SVGID_2_">
		<use xlink:href="#SVGID_1_"  style="overflow:visible;"/>
	</clipPath>
	<g class="st1">
		<path class="st0" d="M130.5,718.7c0,0-3,19.5,8.4,3.9c5.1-15.2,18.2-47,24.1-54.9C155.4,677.5,130.8,716.6,130.5,718.7z"/>
		<path class="st0" d="M104,800c0,0-3,19.5,8.4,3.9c5.1-15.2,18.3-47,24.1-54.9C128.8,758.7,104.2,797.9,104,800z"/>
		<path class="st0" d="M192.5,767.6c0,0-3,19.5,8.4,3.9c5.1-15.2,18.3-47,24.1-54.9C217.4,726.3,192.8,765.5,192.5,767.6z"/>
		<path class="st0" d="M102.4,660.4c0,0-3,19.5,8.4,3.9c5.1-15.2,18.2-47,24.1-54.9C127.3,619.1,102.7,658.3,102.4,660.4z"/>
		<path class="st0" d="M75.9,741.7c0,0-3,19.5,8.4,3.9c5.1-15.2,18.3-47,24.1-54.9C100.7,700.4,76.1,739.6,75.9,741.7z"/>
		<path class="st0" d="M233.9,822c0,0-3,19.5,8.4,3.9c5.1-15.2,18.2-47,24.1-54.9C258.8,780.7,234.2,819.8,233.9,822z"/>
		<path class="st0" d="M16.8,763.1c0,0-3,19.5,8.4,3.9c5.1-15.2,18.2-47,24.1-55C41.6,721.8,17,761,16.8,763.1z"/>
		<path class="st0" d="M1094.1,330.2c0,0-3,19.5,8.4,3.9c5.1-15.2,18.2-47,24.1-54.9C1119,288.9,1094.4,328,1094.1,330.2z"/>
		<path class="st0" d="M1075.8,266.5c0,0-3,19.5,8.4,3.9c5.1-15.2,18.2-47.1,24.1-54.9C1100.6,225.2,1076,264.3,1075.8,266.5z"/>
		<path class="st0" d="M1016.4,235.1c0,0-3,19.5,8.4,3.9c5.1-15.2,18.2-47.1,24.1-54.9C1041.2,193.9,1016.6,233,1016.4,235.1z"/>
		<path class="st0" d="M1171.1,245.5c0,0-3,19.5,8.4,3.9c5.1-15.2,18.2-47.1,24.1-54.9C1195.9,204.2,1171.3,243.4,1171.1,245.5z"/>
		<path class="st0" d="M1275.2,56.5c0,0-3,19.5,8.4,3.9c5.1-15.2,18.2-47,24.1-54.9C1300,15.2,1275.4,54.3,1275.2,56.5z"/>
		<path class="st0" d="M1110.2,405.9c0,0-3,19.5,8.4,3.9c5.1-15.2,18.2-47,24.1-54.9C1135.1,364.6,1110.5,403.8,1110.2,405.9z"/>
		<path class="st0" d="M1312.7,270.1c0,0-2.5,16.4,7,3.2c4.3-12.8,15.3-39.5,20.2-46.2C1333.6,235.4,1312.9,268.3,1312.7,270.1z"/>
		<path class="st0" d="M1215.2,246.1c0,0-3,19.5,8.4,3.9c5.1-15.2,18.2-47,24.1-54.9C1240,204.9,1215.4,244,1215.2,246.1z"/>
		<path class="st0" d="M1375.2,278.8c0,0-3,19.5,8.4,3.9c5.1-15.2,18.3-47.1,24.1-54.9C1400,237.5,1375.4,276.7,1375.2,278.8z"/>
		<path class="st0" d="M1177.4,612.3c0,0-3,19.5,8.4,3.9c5.1-15.2,18.2-47,24.1-54.9C1202.2,571,1177.7,610.1,1177.4,612.3z"/>
		<path class="st0" d="M348.9,468.2c0,0-3,19.5,8.4,3.9c5.1-15.2,18.3-47,24.1-54.9C373.7,426.9,349.1,466.1,348.9,468.2z"/>
		<path class="st0" d="M410.7,370.5c0,0-3,19.5,8.4,3.9c5.1-15.2,18.2-47,24.1-54.9C435.5,329.3,410.9,368.4,410.7,370.5z"/>
		<path class="st0" d="M482.4,270.1c0,0-3,19.5,8.4,3.9c5.1-15.2,18.2-47.1,24.1-54.9C507.2,228.8,482.7,268,482.4,270.1z"/>
		<path class="st0" d="M1296.4,216.4c0,0-3,19.5,8.4,3.9c5.1-15.2,18.2-47,24.1-54.9C1321.3,175.2,1296.7,214.3,1296.4,216.4z"/>
		<path class="st0" d="M365,543.9c0,0-3,19.5,8.4,3.9c5.1-15.2,18.2-47,24.1-54.9C389.8,502.6,365.2,541.8,365,543.9z"/>
		<path class="st0" d="M426.2,481.3c0,0-3,19.5,8.4,3.9c5.1-15.2,18.2-47,24.1-54.9C451,440,426.4,479.2,426.2,481.3z"/>
		<path class="st0" d="M277.6,366.7c0,0-3,19.5,8.4,3.9c5.1-15.2,18.3-47,24.1-54.9C302.4,325.4,277.8,364.5,277.6,366.7z"/>
		<path class="st0" d="M339.3,271.5c0,0-2.3,14.7,6.3,2.9c3.8-11.5,13.8-35.5,18.2-41.5C358,240.3,339.5,269.8,339.3,271.5z"/>
		<path class="st0" d="M421.5,269c0,0-3,19.5,8.4,3.9c5.1-15.2,18.2-47.1,24.1-54.9C446.3,227.7,421.7,266.9,421.5,269z"/>
		<path class="st0" d="M293.7,442.4c0,0-3,19.5,8.4,3.9c5.1-15.2,18.2-47,24.1-54.9C318.5,401.1,294,440.3,293.7,442.4z"/>
		<path class="st0" d="M260.3,660.4c0,0-3,19.5,8.4,3.9c5.1-15.2,18.3-47,24.1-54.9C285.1,619.1,260.6,658.3,260.3,660.4z"/>
		<path class="st0" d="M354.9,379.8c0,0-3,19.5,8.4,3.9c5.1-15.2,18.2-47,24.1-54.9C379.7,338.5,355.1,377.6,354.9,379.8z"/>
		<path class="st0" d="M322.1,562.8c0,0-3,19.5,8.4,3.9c5.1-15.2,18.2-47,24.1-54.9C346.9,521.5,322.4,560.7,322.1,562.8z"/>
		<path class="st0" d="M276.4,736.2c0,0-3,19.5,8.4,3.9c5.1-15.2,18.2-47,24.1-54.9C301.3,694.9,276.7,734,276.4,736.2z"/>
		<path class="st0" d="M337.6,673.5c0,0-3,19.5,8.4,3.9c5.1-15.2,18.2-47,24.1-54.9C362.4,632.3,337.9,671.4,337.6,673.5z"/>
		<path class="st0" d="M205.2,634.7c0,0-3,19.5,8.4,3.9c5.1-15.2,18.2-47,24.1-54.9C230,593.4,205.4,632.5,205.2,634.7z"/>
		<path class="st0" d="M304.1,912.2c0,0-3,19.5,8.4,3.9c5.1-15.2,18.2-47,24.1-54.9C328.9,870.9,304.3,910,304.1,912.2z"/>
		<path class="st0" d="M260.9,877.6c0,0-3,19.5,8.4,3.9c5.1-15.2,18.2-47,24.1-54.9C285.7,836.3,261.1,875.5,260.9,877.6z"/>
		<path class="st0" d="M377.6,802.1c0,0-3,19.5,8.4,3.9c5.1-15.2,18.3-47,24.1-54.9C402.4,760.8,377.9,800,377.6,802.1z"/>
		<path class="st0" d="M389.1,703.5c0,0-3,19.5,8.4,3.9c5.1-15.2,18.3-47,24.1-54.9C414,662.2,389.4,701.3,389.1,703.5z"/>
		<path class="st0" d="M461.1,748.1c0,0-3,19.5,8.4,3.9c5.1-15.2,18.3-47,24.1-54.9C486,706.8,461.4,746,461.1,748.1z"/>
		<path class="st0" d="M388,880.7c0,0-3,19.5,8.4,3.9c5.1-15.2,18.2-47,24.1-54.9C412.8,839.5,388.2,878.6,388,880.7z"/>
		<path class="st0" d="M453.5,816.7c0,0-3,19.5,8.4,3.9c5.1-15.2,18.2-47,24.1-54.9C478.3,775.4,453.7,814.5,453.5,816.7z"/>
		<path class="st0" d="M266.3,572c0,0-3,19.5,8.4,3.9c5.1-15.2,18.2-47,24.1-54.9C291.1,530.7,266.6,569.9,266.3,572z"/>
		<path class="st0" d="M316.7,779.2c0,0-3,19.5,8.4,3.9c5.1-15.2,18.2-47,24.1-54.9C341.5,737.9,316.9,777.1,316.7,779.2z"/>
		<path class="st0" d="M470,384.2c0,0-3,19.5,8.4,3.9c5.1-15.2,18.2-47,24.1-54.9C494.8,342.9,470.2,382,470,384.2z"/>
		<path class="st0" d="M493.8,458.4c0,0-3,19.5,8.4,3.9c5.1-15.2,18.3-47,24.1-54.9C518.7,417.2,494.1,456.3,493.8,458.4z"/>
		<path class="st0" d="M89.7,496.3c0,0-3,19.5,8.4,3.9c5.1-15.2,18.3-47,24.1-54.9C114.5,455,89.9,494.1,89.7,496.3z"/>
		<path class="st0" d="M151.5,398.6c0,0-3,19.5,8.4,3.9c5.1-15.2,18.2-47,24.1-54.9C176.3,357.3,151.7,396.5,151.5,398.6z"/>
		<path class="st0" d="M105.8,572c0,0-3,19.5,8.4,3.9c5.1-15.2,18.2-47,24.1-54.9C130.6,530.7,106,569.9,105.8,572z"/>
		<path class="st0" d="M167,509.4c0,0-3,19.5,8.4,3.9c5.1-15.2,18.2-47,24.1-54.9C191.8,468.1,167.2,507.2,167,509.4z"/>
		<path class="st0" d="M164.8,597.9c0,0-3,19.5,8.4,3.9c5.1-15.2,18.2-47,24.1-54.9C189.6,556.7,165.1,595.8,164.8,597.9z"/>
		<path class="st0" d="M18.4,394.7c0,0-3,19.5,8.4,3.9c5.1-15.2,18.3-47,24.1-54.9C43.2,353.5,18.6,392.6,18.4,394.7z"/>
		<path class="st0" d="M34.5,470.5c0,0-3,19.5,8.4,3.9c5.1-15.2,18.2-47,24.1-54.9C59.3,429.2,34.8,468.4,34.5,470.5z"/>
		<path class="st0" d="M95.7,407.9c0,0-3,19.5,8.4,3.9c5.1-15.2,18.2-47,24.1-54.9C120.5,366.6,95.9,405.7,95.7,407.9z"/>
		<path class="st0" d="M62.9,590.8c0,0-3,19.5,8.4,3.9c5.1-15.2,18.2-47,24.1-54.9C87.7,549.6,63.2,588.7,62.9,590.8z"/>
		<path class="st0" d="M37,672.9c0,0-3,19.5,8.4,3.9c5.1-15.2,18.2-47,24.1-54.9C61.8,631.7,37.2,670.8,37,672.9z"/>
		<path class="st0" d="M7.1,600.1c0,0-3,19.5,8.4,3.9c5.1-15.2,18.2-47,24.1-54.9C32,558.8,7.4,598,7.1,600.1z"/>
		<path class="st0" d="M210.8,412.2c0,0-3,19.5,8.4,3.9c5.1-15.2,18.2-47,24.1-54.9C235.6,371,211,410.1,210.8,412.2z"/>
		<path class="st0" d="M234.6,486.5c0,0-3,19.5,8.4,3.9c5.1-15.2,18.3-47,24.1-54.9C259.5,445.2,234.9,484.4,234.6,486.5z"/>
		<path class="st0" d="M100.3,286.7c0,0-3,19.5,8.4,3.9c5.1-15.2,18.2-47,24.1-54.9C125.1,245.4,100.5,284.6,100.3,286.7z"/>
		<path class="st0" d="M149.9,322.3c0,0-2.1,13.3,5.7,2.6c3.4-10.4,12.4-32.1,16.4-37.5C166.8,294.1,150,320.8,149.9,322.3z"/>
		<path class="st0" d="M72.2,228.4c0,0-3,19.5,8.4,3.9c5.1-15.2,18.2-47.1,24.1-54.9C97,187.1,72.5,226.3,72.2,228.4z"/>
		<path class="st0" d="M45.7,309.7c0,0-3,19.5,8.4,3.9c5.1-15.2,18.3-47,24.1-54.9C70.5,268.4,45.9,307.6,45.7,309.7z"/>
		<path class="st0" d="M318.6,36.2c0,0-3,19.5,8.4,3.9c5.1-15.2,18.3-47,24.1-54.9C343.5-5.1,318.9,34.1,318.6,36.2z"/>
		<path class="st0" d="M353.7,115.1c0,0-3,19.5,8.4,3.9c5.1-15.2,18.2-47,24.1-54.9C378.6,73.8,354,113,353.7,115.1z"/>
		<path class="st0" d="M276.4,12.6c0,0-3,19.5,8.4,3.9c5.1-15.2,18.2-47,24.1-54.9C301.3-28.7,276.7,10.4,276.4,12.6z"/>
		<path class="st0" d="M230.1,228.4c0,0-3,19.5,8.4,3.9c5.1-15.2,18.3-47.1,24.1-54.9C254.9,187.1,230.3,226.3,230.1,228.4z"/>
		<path class="st0" d="M294.8,132.6c0,0-2.5,15.9,6.8,3.1c4.1-12.4,14.9-38.4,19.7-44.8C315.1,98.9,295,130.9,294.8,132.6z"/>
		<path class="st0" d="M246.2,304.2c0,0-3,19.5,8.4,3.9c5.1-15.2,18.3-47,24.1-54.9C271,262.9,246.4,302,246.2,304.2z"/>
		<path class="st0" d="M307.4,241.5c0,0-3,19.5,8.4,3.9c5.1-15.2,18.2-47,24.1-54.9C332.2,200.3,307.6,239.4,307.4,241.5z"/>
		<path class="st0" d="M174.9,202.6c0,0-3,19.5,8.4,3.9c5.1-15.2,18.2-47,24.1-54.9C199.7,161.4,175.2,200.5,174.9,202.6z"/>
		<path class="st0" d="M236.1,140c0,0-3,19.5,8.4,3.9c5.1-15.2,18.2-47,24.1-54.9C260.9,98.7,236.3,137.9,236.1,140z"/>
		<path class="st0" d="M59.4,64.3c0,0-3,19.5,8.4,3.9c5.1-15.2,18.3-47.1,24.1-54.9C84.3,23,59.7,62.1,59.4,64.3z"/>
		<path class="st0" d="M75.6,140c0,0-3,19.5,8.4,3.9c5.1-15.2,18.3-47,24.1-54.9C100.4,98.7,75.8,137.9,75.6,140z"/>
		<path class="st0" d="M136.7,77.4c0,0-3,19.5,8.4,3.9c5.1-15.2,18.2-47,24.1-54.9C161.6,36.1,137,75.2,136.7,77.4z"/>
		<path class="st0" d="M134.6,165.9c0,0-3,19.5,8.4,3.9c5.1-15.2,18.2-47,24.1-54.9C159.4,124.7,134.8,163.8,134.6,165.9z"/>
		<path class="st0" d="M4.3,38.5c0,0-3,19.5,8.4,3.9c5.1-15.2,18.2-47.1,24.1-54.9C29.1-2.8,4.5,36.4,4.3,38.5z"/>
		<path class="st0" d="M32.7,158.9c0,0-3,19.5,8.4,3.9c5.1-15.2,18.2-47.1,24.1-54.9C57.5,117.6,32.9,156.7,32.7,158.9z"/>
		<path class="st0" d="M6.8,240.9c0,0-3,19.5,8.4,3.9c5.1-15.2,18.2-47,24.1-54.9C31.6,199.7,7,238.8,6.8,240.9z"/>
		<path class="st0" d="M-23.1,168.1c0,0-3,19.5,8.4,3.9c5.1-15.2,18.2-47,24.1-54.9C1.7,126.8-22.9,166-23.1,168.1z"/>
		<path class="st0" d="M204.4,54.5c0,0-3,19.5,8.4,3.9c5.1-15.2,18.3-47,24.1-54.9C229.2,13.2,204.6,52.4,204.4,54.5z"/>
		<path class="st0" d="M1529.7,764.8c0,0-3,19.5,8.4,3.9c5.1-15.2,18.3-47,24.1-54.9C1554.5,723.5,1529.9,762.7,1529.7,764.8z"/>
		<path class="st0" d="M1591.5,667.2c0,0-3,19.5,8.4,3.9c5.1-15.2,18.2-47,24.1-54.9C1616.3,625.9,1591.7,665,1591.5,667.2z"/>
		<path class="st0" d="M1545.8,840.6c0,0-3,19.5,8.4,3.9c5.1-15.2,18.2-47,24.1-54.9C1570.6,799.3,1546,838.4,1545.8,840.6z"/>
		<path class="st0" d="M1458.4,663.3c0,0-3,19.5,8.4,3.9c5.1-15.2,18.3-47,24.1-54.9C1483.2,622,1458.6,661.2,1458.4,663.3z"/>
		<path class="st0" d="M1520.2,565.7c0,0-3,19.5,8.4,3.9c5.1-15.2,18.2-47,24.1-54.9C1545,524.4,1520.4,563.5,1520.2,565.7z"/>
		<path class="st0" d="M1474.5,739c0,0-3,19.5,8.4,3.9c5.1-15.2,18.2-47,24.1-54.9C1499.3,697.8,1474.8,736.9,1474.5,739z"/>
		<path class="st0" d="M1535.7,676.4c0,0-3,19.5,8.4,3.9c5.1-15.2,18.2-47,24.1-54.9C1560.5,635.1,1535.9,674.3,1535.7,676.4z"/>
		<path class="st0" d="M1502.9,859.4c0,0-3,19.5,8.4,3.9c5.1-15.2,18.2-47,24.1-54.9C1527.7,818.1,1503.2,857.3,1502.9,859.4z"/>
		<path class="st0" d="M1447.1,868.7c0,0-3,19.5,8.4,3.9c5.1-15.2,18.2-47,24.1-54.9C1472,827.4,1447.4,866.5,1447.1,868.7z"/>
		<path class="st0" d="M1270.5,792.9c0,0-3,19.5,8.4,3.9c5.1-15.2,18.3-47,24.1-54.9C1295.3,751.6,1270.7,790.8,1270.5,792.9z"/>
		<path class="st0" d="M1210,875c0,0-3,19.5,8.4,3.9c5.1-15.2,18.3-47,24.1-54.9C1234.8,833.7,1210.2,872.9,1210,875z"/>
		<path class="st0" d="M1332.3,695.2c0,0-3,19.5,8.4,3.9c5.1-15.2,18.2-47,24.1-54.9C1357.1,654,1332.5,693.1,1332.3,695.2z"/>
		<path class="st0" d="M1286.6,868.7c0,0-3,19.5,8.4,3.9c5.1-15.2,18.2-47,24.1-54.9C1311.4,827.4,1286.8,866.5,1286.6,868.7z"/>
		<path class="st0" d="M1347.8,806c0,0-3,19.5,8.4,3.9c5.1-15.2,18.2-47,24.1-54.9C1372.6,764.7,1348,803.9,1347.8,806z"/>
		<path class="st0" d="M1199.2,691.4c0,0-3,19.5,8.4,3.9c5.1-15.2,18.3-47,24.1-54.9C1224,650.1,1199.4,689.3,1199.2,691.4z"/>
		<path class="st0" d="M1215.3,767.1c0,0-3,19.5,8.4,3.9c5.1-15.2,18.2-47,24.1-54.9C1240.1,725.8,1215.6,765,1215.3,767.1z"/>
		<path class="st0" d="M1276.5,704.5c0,0-3,19.5,8.4,3.9c5.1-15.2,18.2-47,24.1-54.9C1301.3,663.2,1276.7,702.4,1276.5,704.5z"/>
		<path class="st0" d="M1391.6,708.9c0,0-3,19.5,8.4,3.9c5.1-15.2,18.2-47,24.1-54.9C1416.4,667.6,1391.8,706.8,1391.6,708.9z"/>
		<path class="st0" d="M1415.4,783.2c0,0-3,19.5,8.4,3.9c5.1-15.2,18.3-47,24.1-54.9C1440.2,741.9,1415.7,781,1415.4,783.2z"/>
		<path class="st0" d="M1381.6,877.1c0,0-3,19.5,8.4,3.9c5.1-15.2,18.3-47,24.1-54.9C1406.4,835.9,1381.9,875,1381.6,877.1z"/>
		<path class="st0" d="M1281.1,583.4c0,0-3,19.5,8.4,3.9c5.1-15.2,18.2-47,24.1-54.9C1305.9,542.1,1281.3,581.2,1281.1,583.4z"/>
		<path class="st0" d="M1330.8,615.8c0,0-3,19.5,8.4,3.9c5.1-15.2,18.2-47,24.1-54.9C1355.6,574.5,1331,613.7,1330.8,615.8z"/>
		<path class="st0" d="M1253,525c0,0-3,19.5,8.4,3.9c5.1-15.2,18.2-47,24.1-54.9C1277.8,483.8,1253.3,522.9,1253,525z"/>
		<path class="st0" d="M1226.4,606.3c0,0-3,19.5,8.4,3.9c5.1-15.2,18.3-47,24.1-54.9C1251.3,565,1226.7,604.2,1226.4,606.3z"/>
		<path class="st0" d="M1499.4,332.8c0,0-3,19.5,8.4,3.9c5.1-15.2,18.3-47,24.1-54.9C1524.3,291.5,1499.7,330.7,1499.4,332.8z"/>
		<path class="st0" d="M1544.8,332.8c0,0-3,19.5,8.4,3.9c5.1-15.2,18.3-47,24.1-54.9C1569.6,291.5,1545,330.7,1544.8,332.8z"/>
		<path class="st0" d="M1534.5,411.8c0,0-3,19.5,8.4,3.9c5.1-15.2,18.2-47,24.1-54.9C1559.4,370.5,1534.8,409.6,1534.5,411.8z"/>
		<path class="st0" d="M1457.2,309.2c0,0-3,19.5,8.4,3.9c5.1-15.2,18.2-47,24.1-54.9C1482.1,267.9,1457.5,307.1,1457.2,309.2z"/>
		<path class="st0" d="M1410.9,525.1c0,0-3,19.5,8.4,3.9c5.1-15.2,18.3-47,24.1-54.9C1435.7,483.8,1411.1,522.9,1410.9,525.1z"/>
		<path class="st0" d="M1472.7,427.4c0,0-3,19.5,8.4,3.9c5.1-15.2,18.2-47,24.1-54.9C1497.5,386.1,1472.9,425.3,1472.7,427.4z"/>
		<path class="st0" d="M1427,600.8c0,0-3,19.5,8.4,3.9c5.1-15.2,18.2-47,24.1-54.9C1451.8,559.5,1427.2,598.7,1427,600.8z"/>
		<path class="st0" d="M1488.2,538.2c0,0-3,19.5,8.4,3.9c5.1-15.2,18.2-47,24.1-54.9C1513,496.9,1488.4,536,1488.2,538.2z"/>
		<path class="st0" d="M1355.7,499.3c0,0-3,19.5,8.4,3.9c5.1-15.2,18.2-47,24.1-54.9C1380.5,458,1356,497.2,1355.7,499.3z"/>
		<path class="st0" d="M1416.9,436.6c0,0-3,19.5,8.4,3.9c5.1-15.2,18.2-47,24.1-54.9C1441.7,395.4,1417.1,434.5,1416.9,436.6z"/>
		<path class="st0" d="M1240.2,347c0,0-2.7,17.1,7.3,3.4c4.4-13.4,16-41.2,21.1-48.2C1262,310.8,1240.4,345.1,1240.2,347z"/>
		<path class="st0" d="M1256.4,436.6c0,0-3,19.5,8.4,3.9c5.1-15.2,18.2-47,24.1-54.9C1281.2,395.4,1256.6,434.5,1256.4,436.6z"/>
		<path class="st0" d="M1311.1,361c0,0-3,19.5,8.4,3.9c5.1-15.2,18.2-47,24.1-54.9C1335.9,319.8,1311.3,358.9,1311.1,361z"/>
		<path class="st0" d="M1315.4,462.6c0,0-3,19.5,8.4,3.9c5.1-15.2,18.2-47,24.1-54.9C1340.2,421.3,1315.6,460.5,1315.4,462.6z"/>
		<path class="st0" d="M1185.1,335.1c0,0-3,19.5,8.4,3.9c5.1-15.2,18.2-47,24.1-54.9C1209.9,293.9,1185.3,333,1185.1,335.1z"/>
		<path class="st0" d="M1213.5,455.5c0,0-3,19.5,8.4,3.9c5.1-15.2,18.2-47,24.1-54.9C1238.3,414.2,1213.7,453.4,1213.5,455.5z"/>
		<path class="st0" d="M1187.6,537.6c0,0-3,19.5,8.4,3.9c5.1-15.2,18.2-47,24.1-54.9C1212.4,496.3,1187.8,535.5,1187.6,537.6z"/>
		<path class="st0" d="M1157.7,464.7c0,0-3,19.5,8.4,3.9c5.1-15.2,18.2-47,24.1-54.9C1182.5,423.5,1157.9,462.6,1157.7,464.7z"/>
		<path class="st0" d="M1385.2,351.1c0,0-3,19.5,8.4,3.9c5.1-15.2,18.3-47,24.1-54.9C1410,309.9,1385.4,349,1385.2,351.1z"/>
		<path class="st0" d="M1276.8,128.3c0,0-2.5,16,6.8,3.2c4.2-12.5,14.9-38.5,19.7-44.9C1297.1,94.5,1277,126.5,1276.8,128.3z"/>
		<path class="st0" d="M1143.8,122.6c0,0-3,19.5,8.4,3.9c5.1-15.2,18.3-47,24.1-54.9C1168.6,81.3,1144,120.5,1143.8,122.6z"/>
		<path class="st0" d="M1205.6,24.9c0,0-3,19.5,8.4,3.9c5.1-15.2,18.2-47,24.1-54.9C1230.4-16.3,1205.8,22.8,1205.6,24.9z"/>
		<path class="st0" d="M1148,199.4c0,0-3,19.5,8.4,3.9c5.1-15.2,18.2-47.1,24.1-54.9C1172.8,158.1,1148.2,197.3,1148,199.4z"/>
		<path class="st0" d="M1221.1,135.7c0,0-3,19.5,8.4,3.9c5.1-15.2,18.2-47,24.1-54.9C1245.9,94.4,1221.3,133.6,1221.1,135.7z"/>
		<path class="st0" d="M1017.6,154.5c0,0-3,19.5,8.4,3.9c5.1-15.2,18.2-47,24.1-54.9C1042.5,113.3,1017.9,152.4,1017.6,154.5z"/>
		<path class="st0" d="M884.6,150.7c0,0-3,19.5,8.4,3.9c5.1-15.2,18.3-47.1,24.1-54.9C909.4,109.4,884.8,148.5,884.6,150.7z"/>
		<path class="st0" d="M961.8,163.8c0,0-3,19.5,8.4,3.9c5.1-15.2,18.2-47,24.1-54.9C986.7,122.5,962.1,161.6,961.8,163.8z"/>
		<path class="st0" d="M1076.9,168.2c0,0-3,19.5,8.4,3.9c5.1-15.2,18.2-47.1,24.1-54.9C1101.7,126.9,1077.2,166,1076.9,168.2z"/>
		<path class="st0" d="M966.5,42.7c0,0-3,19.5,8.4,3.9c5.1-15.2,18.2-47,24.1-54.9C991.3,1.4,966.7,40.5,966.5,42.7z"/>
		<path class="st0" d="M1016.1,75.1c0,0-3,19.5,8.4,3.9c5.1-15.2,18.2-47,24.1-54.9C1041,33.8,1016.4,72.9,1016.1,75.1z"/>
		<path class="st0" d="M911.8,65.6c0,0-3,19.5,8.4,3.9c5.1-15.2,18.3-47,24.1-54.9C936.6,24.3,912,63.5,911.8,65.6z"/>
		<path class="st0" d="M860.6,130.4c0,0-2,13.1,5.6,2.6c3.4-10.2,12.3-31.6,16.2-36.9C877.2,102.7,860.7,129,860.6,130.4z"/>
		<path class="st0" d="M727.6,123.3c0,0-3,19.5,8.4,3.9c5.1-15.2,18.3-47,24.1-54.9C752.4,82,727.8,121.2,727.6,123.3z"/>
		<path class="st0" d="M802.7,114.8c0,0-3,19.5,8.4,3.9c5.1-15.2,18.2-47,24.1-54.9C827.5,73.5,803,112.7,802.7,114.8z"/>
		<path class="st0" d="M809.5,15.3c0,0-3,19.5,8.4,3.9c5.1-15.2,18.2-47,24.1-54.9C834.3-26,809.7,13.2,809.5,15.3z"/>
		<path class="st0" d="M859.2,47.7c0,0-3,19.5,8.4,3.9c5.1-15.2,18.2-47,24.1-54.9C884,6.4,859.4,45.6,859.2,47.7z"/>
		<path class="st0" d="M754.8,38.2c0,0-3,19.5,8.4,3.9c5.1-15.2,18.3-47,24.1-54.9C779.7-3,755.1,36.1,754.8,38.2z"/>
		<path class="st0" d="M695.8,28.2c0,0-3,19.5,8.4,3.9c5.1-15.2,18.3-47,24.1-54.9C720.6-13.1,696,26,695.8,28.2z"/>
		<path class="st0" d="M1112.4,60.1c0,0-3,19.5,8.4,3.9c5.1-15.2,18.3-47.1,24.1-55C1137.2,18.8,1112.6,58,1112.4,60.1z"/>
		<path class="st0" d="M1361.1,81.3c0,0-3,19.5,8.4,3.9c5.1-15.2,18.2-47,24.1-54.9C1386,40,1361.4,79.2,1361.1,81.3z"/>
		<path class="st0" d="M1511.2,109.3c0,0-3,19.5,8.4,3.9c5.1-15.2,18.3-47,24.1-54.9C1536.1,68,1511.5,107.1,1511.2,109.3z"/>
		<path class="st0" d="M1491.8,184.9c0,0-3,19.5,8.4,3.9c5.1-15.2,18.3-47.1,24.1-54.9C1516.6,143.6,1492,182.7,1491.8,184.9z"/>
		<path class="st0" d="M1442.4,156.2c0,0-3,19.5,8.4,3.9c5.1-15.2,18.2-47.1,24.1-54.9C1467.2,114.9,1442.6,154,1442.4,156.2z"/>
		<path class="st0" d="M1411.8,75.5c0,0-3,19.5,8.4,3.9c5.1-15.2,18.2-47,24.1-54.9C1436.6,34.2,1412,73.4,1411.8,75.5z"/>
		<path class="st0" d="M1563.1,64.5c0,0-3,19.5,8.4,3.9c5.1-15.2,18.3-47,24.1-54.9C1587.9,23.2,1563.3,62.3,1563.1,64.5z"/>
		<path class="st0" d="M1486.5,52.3c0,0-3,19.5,8.4,3.9c5.1-15.2,18.2-47.1,24.1-54.9C1511.3,11,1486.8,50.2,1486.5,52.3z"/>
		<path class="st0" d="M1436.8,244.3c0,0-3,19.5,8.4,3.9c5.1-15.2,18.3-47.1,24.1-54.9C1461.6,203,1437,242.1,1436.8,244.3z"/>
		<path class="st0" d="M1375.1,173.6c0,0-2.2,14.3,6.1,2.8c3.7-11.2,13.4-34.5,17.7-40.3C1393.3,143.4,1375.2,172.1,1375.1,173.6z"
			/>
		<path class="st0" d="M1558,236.7c0,0-3,19.5,8.4,3.9c5.1-15.2,18.3-47.1,24.1-54.9C1582.8,195.4,1558.2,234.6,1558,236.7z"/>
		<path class="st0" d="M1534.2,182.7c0,0-3,19.5,8.4,3.9c5.1-15.2,18.3-47.1,24.1-54.9C1559.1,141.4,1534.5,180.6,1534.2,182.7z"/>
		<path class="st0" d="M1338.1,35.2c0,0-3,19.5,8.4,3.9c5.1-15.2,18.2-47,24.1-54.9C1362.9-6,1338.3,33.1,1338.1,35.2z"/>
		<path class="st0" d="M687.2,135.1c0,0-3,19.5,8.4,3.9c5.1-15.2,18.2-47,24.1-54.9C712,93.8,687.4,133,687.2,135.1z"/>
		<path class="st0" d="M448,152.8c0,0-3,19.5,8.4,3.9c5.1-15.2,18.2-47,24.1-54.9C472.9,111.5,448.3,150.7,448,152.8z"/>
		<path class="st0" d="M497.7,185.2c0,0-3,19.5,8.4,3.9c5.1-15.2,18.2-47,24.1-54.9C522.5,143.9,498,183.1,497.7,185.2z"/>
		<path class="st0" d="M420,94.5c0,0-3,19.5,8.4,3.9c5.1-15.2,18.2-47,24.1-54.9C444.8,53.2,420.2,92.4,420,94.5z"/>
		<path class="st0" d="M393.4,175.8c0,0-3,19.5,8.4,3.9c5.1-15.2,18.3-47.1,24.1-54.9C418.2,134.5,393.6,173.6,393.4,175.8z"/>
		<path class="st0" d="M1516.4,402.3c0,0-3,19.5,8.4,3.9c5.1-15.2,18.3-47,24.1-54.9C1541.2,361,1516.6,400.1,1516.4,402.3z"/>
		<path class="st0" d="M1551.5,481.2c0,0-3,19.5,8.4,3.9c5.1-15.2,18.2-47,24.1-54.9C1576.3,439.9,1551.7,479.1,1551.5,481.2z"/>
		<path class="st0" d="M1474.2,378.6c0,0-3,19.5,8.4,3.9c5.1-15.2,18.2-47,24.1-54.9C1499,337.4,1474.4,376.5,1474.2,378.6z"/>
		<path class="st0" d="M577.8,94.5c0,0-3,19.5,8.4,3.9c5.1-15.2,18.3-47,24.1-54.9C602.7,53.2,578.1,92.4,577.8,94.5z"/>
		<path class="st0" d="M639.6-3.2c0,0-3,19.5,8.4,3.9c5.1-15.2,18.2-47,24.1-54.9C664.5-44.4,639.9-5.3,639.6-3.2z"/>
		<path class="st0" d="M594,170.2c0,0-3,19.5,8.4,3.9c5.1-15.2,18.2-47.1,24.1-54.9C618.8,129,594.2,168.1,594,170.2z"/>
		<path class="st0" d="M655.1,107.6c0,0-3,19.5,8.4,3.9c5.1-15.2,18.2-47,24.1-54.9C680,66.3,655.4,105.5,655.1,107.6z"/>
		<path class="st0" d="M522.7,68.7c0,0-3,19.5,8.4,3.9c5.1-15.2,18.2-47,24.1-54.9C547.5,27.5,522.9,66.6,522.7,68.7z"/>
		<path class="st0" d="M583.8,6.1c0,0-3,19.5,8.4,3.9c5.1-15.2,18.2-47,24.1-54.9C608.7-35.2,584.1,4,583.8,6.1z"/>
		<path class="st0" d="M1257.2,430.3c0,0-3,19.5,8.4,3.9c5.1-15.2,18.3-47,24.1-54.9C1282,389.1,1257.4,428.2,1257.2,430.3z"/>
		<path class="st0" d="M423.3,6.1c0,0-3,19.5,8.4,3.9c5.1-15.2,18.3-47,24.1-55C448.1-35.2,423.6,4,423.3,6.1z"/>
		<path class="st0" d="M1334.5,443.5c0,0-3,19.5,8.4,3.9c5.1-15.2,18.2-47,24.1-54.9C1359.3,402.2,1334.7,441.3,1334.5,443.5z"/>
		<path class="st0" d="M482.3,32c0,0-3,19.5,8.4,3.9c5.1-15.2,18.2-47,24.1-54.9C507.1-9.3,482.6,29.9,482.3,32z"/>
		<path class="st0" d="M380.4,24.9c0,0-3,19.5,8.4,3.9c5.1-15.2,18.2-47,24.1-54.9C405.3-16.3,380.7,22.8,380.4,24.9z"/>
		<path class="st0" d="M1402.2,420.6c0,0-3,19.5,8.4,3.9c5.1-15.2,18.3-47,24.1-54.9C1427,379.3,1402.4,418.5,1402.2,420.6z"/>
		<path class="st0" d="M551.2,354.5c0,0-3,19.5,8.4,3.9c5.1-15.2,18.2-47,24.1-54.9C576,313.2,551.5,352.3,551.2,354.5z"/>
		<path class="st0" d="M850.7,462.9c0,0-3,19.5,8.4,3.9c5.1-15.2,18.2-47,24.1-54.9C875.5,421.6,850.9,460.7,850.7,462.9z"/>
		<path class="st0" d="M771.1,865.4c0,0-3,19.5,8.4,3.9c5.1-15.2,18.3-47,24.1-54.9C795.9,824.2,771.3,863.3,771.1,865.4z"/>
		<path class="st0" d="M723.9,474.1c0,0-2,12.1,5.4,2.4c3.3-9.5,11.8-29.2,15.6-34.2C739.9,448.4,724.1,472.7,723.9,474.1z"/>
		<path class="st0" d="M444.7,592.9c0,0-2,12.1,5.4,2.4c3.3-9.5,11.8-29.3,15.6-34.2C460.8,567.2,444.9,591.6,444.7,592.9z"/>
		<path class="st0" d="M458.5,670.3c0,0-2,12.1,5.4,2.4c3.3-9.5,11.8-29.3,15.6-34.2C474.5,644.6,458.6,669,458.5,670.3z"/>
		<path class="st0" d="M1021.9,876.6c0,0-2,12.1,5.4,2.4c3.3-9.5,11.8-29.3,15.6-34.2C1037.9,851,1022,875.3,1021.9,876.6z"/>
		<path class="st0" d="M1124.8,880.7c0,0-2,12.1,5.4,2.4c3.3-9.5,11.8-29.3,15.6-34.2C1140.8,855,1124.9,879.3,1124.8,880.7z"/>
		<path class="st0" d="M445.4,878.2c0,0-2,12.1,5.4,2.4c3.3-9.5,11.8-29.3,15.6-34.2C461.5,852.6,445.6,876.9,445.4,878.2z"/>
		<path class="st0" d="M157.8,874.8c0,0-1.9,12.1,5.4,2.4c3.3-9.5,11.8-29.3,15.6-34.2C173.8,849.2,157.9,873.5,157.8,874.8z"/>
		<path class="st0" d="M25.9,860.9c0,0-1.9,12.1,5.4,2.4c3.3-9.5,11.8-29.3,15.6-34.2C42,835.3,26.1,859.6,25.9,860.9z"/>
	</g>
</g>
</svg>
