<svg id="Layer_1" data-name="Layer 1" xmlns="http://www.w3.org/2000/svg" xmlns:xlink="http://www.w3.org/1999/xlink" viewBox="0 0 1030 836"><defs><style>.cls-1{fill:none;}.cls-2{clip-path:url(#clip-path);}.cls-3{fill:#408993;}.cls-4{fill:url(#linear-gradient);}.cls-5{fill:url(#linear-gradient-2);}.cls-6{fill:#754d32;}.cls-7{fill:url(#linear-gradient-3);}.cls-8{fill:url(#linear-gradient-4);}.cls-9{fill:#3beaa2;}.cls-10{fill:url(#linear-gradient-5);}.cls-11{fill:url(#linear-gradient-6);}.cls-12{fill:url(#linear-gradient-7);}.cls-13{fill:url(#linear-gradient-8);}.cls-14{fill:url(#linear-gradient-9);}.cls-15{fill:#ce856b;}</style><clipPath id="clip-path"><rect class="cls-1" x="-1700" width="1600" height="900"/></clipPath><linearGradient id="linear-gradient" x1="452.95" y1="856.61" x2="442.1" y2="301.13" gradientUnits="userSpaceOnUse"><stop offset="0" stop-color="#37221d"/><stop offset="0.01" stop-color="#36211d"/><stop offset="0.21" stop-color="#321e1a"/><stop offset="0.76" stop-color="#2b1816"/></linearGradient><linearGradient id="linear-gradient-2" x1="527.71" y1="720.98" x2="650.59" y2="720.98" gradientUnits="userSpaceOnUse"><stop offset="0.03" stop-color="#36211d"/><stop offset="0.76" stop-color="#452a25"/></linearGradient><linearGradient id="linear-gradient-3" x1="152.97" y1="169.59" x2="893.11" y2="169.59" gradientUnits="userSpaceOnUse"><stop offset="0.22" stop-color="#094111"/><stop offset="0.49" stop-color="#0a4612"/></linearGradient><linearGradient id="linear-gradient-4" x1="426.35" y1="475.59" x2="721.05" y2="-249.62" gradientUnits="userSpaceOnUse"><stop offset="0.22" stop-color="#082e0c"/><stop offset="0.29" stop-color="#09330e"/><stop offset="0.38" stop-color="#0a4014"/><stop offset="0.47" stop-color="#0d571e"/><stop offset="0.49" stop-color="#0e5e21"/></linearGradient><linearGradient id="linear-gradient-5" x1="1003.28" y1="180.63" x2="718.17" y2="572.15" gradientUnits="userSpaceOnUse"><stop offset="0.3" stop-color="#0b4912"/><stop offset="0.67" stop-color="#0a4712"/></linearGradient><linearGradient id="linear-gradient-6" x1="10.26" y1="312.42" x2="298.48" y2="312.42" gradientUnits="userSpaceOnUse"><stop offset="0.23" stop-color="#094111"/><stop offset="0.75" stop-color="#0a4411"/><stop offset="0.91" stop-color="#0b4712"/></linearGradient><linearGradient id="linear-gradient-7" x1="62.54" y1="422.47" x2="266.45" y2="229.36" gradientUnits="userSpaceOnUse"><stop offset="0.23" stop-color="#09350e"/><stop offset="0.55" stop-color="#09380f"/><stop offset="0.75" stop-color="#074014"/><stop offset="0.88" stop-color="#064b19"/></linearGradient><linearGradient id="linear-gradient-8" x1="454.74" y1="506.76" x2="620.46" y2="115.84" gradientUnits="userSpaceOnUse"><stop offset="0.07" stop-color="#0a4411"/><stop offset="0.67" stop-color="#0b4912"/></linearGradient><linearGradient id="linear-gradient-9" x1="453.32" y1="513.75" x2="653.87" y2="40.65" gradientUnits="userSpaceOnUse"><stop offset="0.07" stop-color="#082d0c"/><stop offset="0.32" stop-color="#08300d"/><stop offset="0.52" stop-color="#093a0f"/><stop offset="0.68" stop-color="#0b4912"/></linearGradient></defs><g class="cls-2"><path class="cls-3" d="M-13,777.93s-3,19.52,8.37,3.86c5.07-15.23,18.25-47,24.09-54.93C11.79,736.66-12.79,775.81-13,777.93Z"/><path class="cls-3" d="M-17.72,565.65s-3,19.52,8.37,3.86c5.07-15.23,18.25-47,24.09-54.93C7.1,524.38-17.48,563.53-17.72,565.65Z"/><path class="cls-3" d="M69.52,168.66s-3,19.51,8.37,3.86C83,157.29,96.15,125.47,102,117.58,94.34,127.38,69.76,166.54,69.52,168.66Z"/><path class="cls-3" d="M27.32,145.05s-3,19.51,8.38,3.86C40.77,133.68,54,101.86,59.78,94,52.14,103.77,27.56,142.92,27.32,145.05Z"/></g><path class="cls-4" d="M648.79,821.7c.44-1.22-3-3.15-6-7.76a30.08,30.08,0,0,1-4-10.5C636.15,792.38,626,779,622.67,774.08c-10.63-15.69-15.64-39.22-24-78.25a627.87,627.87,0,0,1-10.49-67.08c-.6-38.93,4.34-68.28,14.51-85.21a474.58,474.58,0,0,0,29-57.78s59.72,2.94,64.84,0,19.62-16.91,17.06-53l.85-8.69-16-1.26c.69,19.73-10,36.58-23.7,40.81-18.22,5.61-44.58-10.09-48.39-39.3l-13.61-1a124.58,124.58,0,0,1-21.91,86c-19.23,5.52-30.59-3.21-29.72-42.15l.88-38.93-29.41-5.89c2.53,6.78,10.91,31.54-1.18,49.84-2,3-5.66,8.45-10.32,8.41-5.38-.06-12.28-7-19.4-33-6.17-18.74-7.45-23.47-7.21-23.55s2,4.29,2,4.3-.75-1.6-3.18-7l-14.62,1a149.31,149.31,0,0,0,33.1,72.92c16.17,24.59,16.61,65.73,4.37,80.28C503,590,480.7,598.07,463.66,511.77c-5.65-28.61.31-50.68-14.42-83.06-1.36-3-2.57-5.38-3.38-6.93l-20.67,2.52c11.6,37.45,10.53,66.92,8.31,84.46-3.08,24.46-9.75,32.59-15.48,37.17-14.31,11.42-33.52,8-38.7,6.93a121.23,121.23,0,0,1-99.46-64.72c-3.89-15.33-7.34-31.77-10.07-49.25q-1.37-8.7-2.39-17.11l-18.66.51c.58,5,1.36,10.21,2.37,15.7,1.08,5.89,2.33,11.43,3.65,16.58a57.63,57.63,0,0,1-19.41-1.82,67.07,67.07,0,0,1-14.89-6.34c-19.43-11.54-29.3-40.1-30.2-42.78H174.13a92.25,92.25,0,0,0,16.54,33.72c14.44,18.45,35.63,30.53,51.86,33.28,3.09.52,15.32,2.3,15.27,2.85,0,.16-.85.16-.85.16s3.93,59.2,65.55,86.29c55.07,23.59,79.1,35.63,93.09,45.16s23.6,19.57,21.41,52.18a292.93,292.93,0,0,0,3.93,78,277.46,277.46,0,0,0,30.16,84c47.31,1.7,77.7,1.87,97.19,1.66,39.07-.41,61.32-2.61,73,.5C641.35,821.51,648.21,823.33,648.79,821.7Z"/><path class="cls-5" d="M587.4,620.27a125.37,125.37,0,0,0-37.1,37.64c-41.83,65.7-13.37,152.1-10.13,161.48l110.42,2.29a394.57,394.57,0,0,1-21.24-38.5C600.34,723,590.49,664.11,587.4,620.27Z"/><path class="cls-6" d="M574.61,724.92c-10.14,2.48-18.76-.07-13.51-12.07a45.64,45.64,0,0,1,6.56-10.71c3.94-4.64,12.29-13.39,18.89-9.28,8.91,7.46,5.08,29.71,2.41,39.73a85.86,85.86,0,0,1-7.42,11.86c-9.43,12.75-24.29,23.58-30.11,1.39-2.34-8.92-2.69-18.21-2.26-27.36s.78-18.25,1.26-27.37c.11,13.66-1,27.39-.06,41,.81,7.73,3.4,28.73,15,24.48,10.07-4.17,17.1-16,22-24.46a80.47,80.47,0,0,0,3.13-24.4c-.36-7.62-3-18.93-12.82-13-7,4.22-12.35,11.07-15.84,18.4-5.47,11.56,3.12,13.66,12.79,11.75Z"/><path class="cls-7" d="M153,234.63c4.75-37.53,17.27-94.17,54.91-140.45C309.56-30.82,504.3,27.35,566.6,46c153.79,46.09,253.47,156.6,302.29,220.92l24.22,20.64a1849,1849,0,0,1-386.47,35.25A1850.12,1850.12,0,0,1,170.34,287Z"/><path class="cls-8" d="M154.34,232.53c4.7-36.12,17.08-90.65,54.33-135.2C309.29-23,502,33,563.64,51,715.82,95.34,814.46,201.72,862.77,263.64l24,19.87a1878.69,1878.69,0,0,1-382.42,33.93,1880.26,1880.26,0,0,1-332.79-34.51Z"/><path class="cls-9" d="M783.1,253.52s140.82-35,203.25,71.66C1027,408,1034.26,434.85,783.1,419.83,740.64,287.24,783.1,253.52,783.1,253.52Z"/><path class="cls-10" d="M786.76,256.62S923.53,221,984.17,329.47c39.48,84.18,46.53,111.48-197.41,96.21C745.51,290.9,786.76,256.62,786.76,256.62Z"/><path class="cls-11" d="M183.74,405.61c-4.25,0-127.35-9.38-127.35-9.38S-20,379,23.84,336.78a74.88,74.88,0,0,0,27.74-25.61c8.73-13.83,6.4-20.62,12-33.35,17.66-40.33,76.88-54.06,76.88-54.07h0S220.75,206,280.52,240.88c6.66,3.89,9.94,6,12.48,9.63,27.64,39.52-58.32,155.1-58.32,155.1Z"/><path class="cls-12" d="M182.71,408.32c-4.1,0-123-9.41-123-9.41s-73.81-17.27-31.44-59.63a73.38,73.38,0,0,0,26.79-25.69c8.44-13.88,6.18-20.68,11.57-33.46,17.06-40.45,74.26-54.22,74.26-54.23h0s77.58-17.85,135.31,17.18c6.43,3.91,9.6,6,12.05,9.66,26.7,39.64-56.33,155.58-56.33,155.58Z"/><path class="cls-13" d="M190.32,298.92s70.07-63.21,143.52-88c80.23-37.18,186.45-120.22,315.28-81.8,99.44,35.95,174,85.52,218.09,177.24,21.47,53.3,24.86,117.75-139,109.07l-456.53.79S93.14,401.8,190.32,298.92Z"/><path class="cls-14" d="M183.63,308.4s70.88-64.26,145.19-89.46C410,181.14,517.43,96.72,647.75,135.78c100.6,36.54,176,86.94,220.63,180.18,21.72,54.18,25.15,119.7-140.61,110.88l-461.83.8S85.32,413,183.63,308.4Z"/><path class="cls-15" d="M714.48,429.71s2.19,37.51-13.18,52.09c-4.58,5.1-8.21,5-13.69,5.1,0,0,15.29-5.74,19.1-24.85a204.49,204.49,0,0,0,4-33.52h3.78Z"/><path class="cls-15" d="M562,428.18c-.61,6.58-.91,29.44-.67,33.89,1.06,19.5,2.26,41.71,13.29,47.44a13.41,13.41,0,0,0,8.27,1.2l4.17-.54c-5.13,7.27-9.72,7.89-11.2,8-9.11.49-19.77-13.1-22.38-35a152.61,152.61,0,0,1-1.83-31.46c.42-8.73,1.94-23.52,1.94-23.52H562Z"/></svg>