<svg id="Layer_1" data-name="Layer 1" xmlns="http://www.w3.org/2000/svg" viewBox="0 0 1819 354"><defs><style>.cls-1{fill:#0c261a;}</style></defs><path class="cls-1" d="M1785.43,125.82l6.57-15.68s-50.79,2.51-79.63,27.59-21.32,22.57-24.45,15.05c38.24-71.48,97.51-79.63,97.51-85.28-61.11-3.13-88.11,24.46-113.19,78.23-11.29-70.37,37-95.16,28.22-96.41s-11.29,1.88-32.36,21.95-10.28,75.86-15.92,61.44.62-58.94,12.54-83.39-10-24.45-28.21-7.52-6.28,59.56-1.89,90.29,2.51,17.55-20.69-30.73c-42-47-80.89-38.87-73.36-25.7s57.68,40.75,79,71.47c15.68,30.1-.63,18.19-31.35-7.52-57.68-40.13-104.08-10-106.59,0s0,0,62.07,3.76,75.87,52,75.87,52-11.28.63-104.08,4.39c-8.15-15.05,17.55-30.72,17.55-30.72s-8.77-8.78-31.35,30.72c-16.3-25.7,3.77-45.77,3.77-45.77-30.73,4.39-13.17,45.77-13.17,45.77l-45.15.63s16.31-47.65-3.13-41.69c-18.72,5.73-4.88,39.66-3.83,42.16-1.07-2.51-15.33-34.81-39.43-31.19-25.09,3.76,32.6,30.09,32.6,30.09l-128.54,4.39,22-17.55s-8.78-5.65-33.23,16.3c-10.66-23.2,33.86-49.54,7.52-43.27s-14.42,43.27-14.42,43.27-6.27-19.44-44.52-32.61,35.74,34.49,35.74,34.49l-122.89,5s34.48-6.9,33.23-20.07c-.86-9-21.21,2-33.89,9.83,8.39-6,18.11-14.85,11.94-19.86-10-8.15-27.74,21.88-27.74,21.88L687,221.91l-654.1,20.5c0,1.15,0,2.3,0,3.45q.06,37.26-.29,74.52l1752.77-8.67V197.3s-46.1-4.39-78.7-16.93C1721.15,119.55,1785.43,125.82,1785.43,125.82Z"/></svg>