<?xml version="1.0" encoding="utf-8"?>
<!-- Generator: Adobe Illustrator 25.2.0, SVG Export Plug-In . SVG Version: 6.00 Build 0)  -->
<svg version="1.1" id="Layer_1" xmlns="http://www.w3.org/2000/svg" xmlns:xlink="http://www.w3.org/1999/xlink" x="0px" y="0px"
	 viewBox="0 0 1600 900" style="enable-background:new 0 0 1600 900;" xml:space="preserve">
<style type="text/css">
	.st0{clip-path:url(#SVGID_2_);}
	.st1{fill:url(#SVGID_3_);}
	.st2{fill:url(#SVGID_4_);}
	.st3{fill:url(#SVGID_5_);}
	.st4{fill:url(#SVGID_6_);}
	.st5{fill:url(#SVGID_7_);}
	.st6{fill:url(#SVGID_8_);}
	.st7{fill:#0E4724;}
	.st8{fill:url(#SVGID_9_);}
	.st9{fill:url(#SVGID_10_);}
	.st10{fill:url(#SVGID_11_);}
	.st11{fill:none;}
</style>
<g>
	<defs>
		<rect id="SVGID_1_" width="1600" height="900"/>
	</defs>
	<clipPath id="SVGID_2_">
		<use xlink:href="#SVGID_1_"  style="overflow:visible;"/>
	</clipPath>
	<g class="st0">
		
			<linearGradient id="SVGID_3_" gradientUnits="userSpaceOnUse" x1="-743.56" y1="200.6083" x2="1856.8198" y2="200.6083" gradientTransform="matrix(1 0 0 -1 0 900)">
			<stop  offset="3.000000e-02" style="stop-color:#048E3C"/>
			<stop  offset="0.15" style="stop-color:#0C6630"/>
			<stop  offset="0.92" style="stop-color:#0A5628"/>
		</linearGradient>
		<path class="st1" d="M1731.9,523.4c-1.2,1.8-2.6,3.5-4.1,5.1c-7.8,8.2-19.1,9.5-29.6,11c-7.9,1.1-15.8,2.2-23.8,2.9
			c-24.3,2.2-48.7,1.5-72.9-0.9c-8-0.8-14.7-2.8-20.7-7.4l-375.5,10.2l-85.6-2.2c0,0-8.6-40.7-29.5-34.5s25.2,35.2,25.2,35.2
			l-17.2,2.1c0,0-18-32.8-23.7-26.4s18.7,24.3,18.7,24.3l-56.1,0.7l-15.1-4.3l-33.8,1.4c-18.7-40.7-53.9-39.2-53.9-39.2
			c14,6.8,24.1,19.7,27.3,35c-29.5-29.3-48.9-24.3-48.9-24.3c25.9,6.4,38.8,28.5,38.8,28.5h-71.2c0,0,12.9,0,18.7-19.2
			s-23.7,19.2-23.7,19.2s-10.8,0-13.7,0c33.8-52.8-2.9-41.4-8.6,2.9c-117.9,2.1-347.1,30.9-347.1,30.9c7.2-9.8,35.9-20.1,35.9-20.1
			c-31.6-2.1-48.2,17.1-48.2,17.1l-27.3,3.1c4.3-23.4,60.4-40.9,60.4-40.9c-42.4-5-77.6,40.9-77.6,40.9c-1.4-16.2,28-47.5,28-47.5
			c-25.2,6.2-40.2,47.5-40.2,47.5h-8.6c0-21.9,23.4-43,23.4-43s-23.4-8.6-33,43c-3.9-32.6-64.4-39.5-40-31.5s27.3,27.7,27.3,27.7
			s1.4,5-7.9,3.8c-23-38.3-67.6-25.9-56.1-25.2s21.6,0,47.4,25.2c-35.9-16.2-67.6,3.4-49.6,0s45.8,9.1,45.8,9.1L239,597.9
			c0,0,52.6-25,31-23.3c-13.5,1-25.3,9.9-32.2,16.4c3.5-5,6.2-10.5,7.9-16.4c5-16.9-14.4-10.9-19.4,22.6
			c-35.9,0-156.9,15.6-301.8,36.3c-0.2,76,2.6,152,2.7,228c0,11.9,0,23.8-0.1,35.8l1929.8-4.1v-381L1731.9,523.4z"/>
		
			<linearGradient id="SVGID_4_" gradientUnits="userSpaceOnUse" x1="506.2007" y1="70.8999" x2="592.0407" y2="471.6599" gradientTransform="matrix(1 0 0 -1 0 900)">
			<stop  offset="0.25" style="stop-color:#54A853"/>
			<stop  offset="0.26" style="stop-color:#60AF58"/>
			<stop  offset="0.29" style="stop-color:#71B95F"/>
			<stop  offset="0.33" style="stop-color:#7CC164"/>
			<stop  offset="0.38" style="stop-color:#83C567"/>
			<stop  offset="0.51" style="stop-color:#85C668"/>
		</linearGradient>
		<path class="st2" d="M320.4,755.8c0,0,16.9-53.7,87.5-47.6c39.9-32.2,110.5-47,144.3-0.5c32.2-14.9,70.6-1.9,82.9,9.2
			c64.5-8.8,95.2,6.6,95.2,6.6L320.4,755.8z"/>
		
			<linearGradient id="SVGID_5_" gradientUnits="userSpaceOnUse" x1="1957.9099" y1="323.5526" x2="-432.7698" y2="263.2025" gradientTransform="matrix(1 0 0 -1 0 900)">
			<stop  offset="2.000000e-02" style="stop-color:#2E7F4B"/>
			<stop  offset="0.53" style="stop-color:#174C2C"/>
		</linearGradient>
		<path class="st3" d="M377.9,711.8L1879.9,483l-11.2,154.2L377.9,711.8z"/>
		
			<linearGradient id="SVGID_6_" gradientUnits="userSpaceOnUse" x1="-712.87" y1="115.9651" x2="1879.86" y2="115.9651" gradientTransform="matrix(1 0 0 -1 0 900)">
			<stop  offset="0.15" style="stop-color:#067232"/>
			<stop  offset="0.92" style="stop-color:#0F6D35"/>
		</linearGradient>
		<path class="st4" d="M-73.1,827c0.1,11.5,0.2,23,0.2,34.6c0,9.5,0,18.9,0,28.3l1941.5-14.2l11.2-197.6L-73.1,827z"/>
		
			<linearGradient id="SVGID_7_" gradientUnits="userSpaceOnUse" x1="1512.5505" y1="104.5115" x2="-36.7695" y2="18.1114" gradientTransform="matrix(1 0 0 -1 0 900)">
			<stop  offset="2.000000e-02" style="stop-color:#315834"/>
			<stop  offset="0.89" style="stop-color:#315835"/>
		</linearGradient>
		<path class="st5" d="M32.2,842.5c0,0,1227.1-112.3,1406.1-93.3C1240.4,930,22.4,922,22.4,922L32.2,842.5z"/>
		
			<linearGradient id="SVGID_8_" gradientUnits="userSpaceOnUse" x1="2007.4401" y1="262.3273" x2="-837.7097" y2="103.6571" gradientTransform="matrix(1 0 0 -1 0 900)">
			<stop  offset="2.000000e-02" style="stop-color:#2A344D"/>
			<stop  offset="0.89" style="stop-color:#1E283A"/>
		</linearGradient>
		<path class="st6" d="M-74.7,730.7c0.5,26.4,1,52.8,1.3,79.2l1941.9-152.8l5.2-53.2C1771.5,576.7,657.7,667.2-74.7,730.7z"/>
		<path class="st7" d="M1011.8,883.7c0,0,528.7-156.8,936.4-123.2c-67.5,127.1-79.6,134-79.6,134L1011.8,883.7z"/>
		
			<linearGradient id="SVGID_9_" gradientUnits="userSpaceOnUse" x1="2009.1593" y1="97.0435" x2="-818.1709" y2="-60.6268" gradientTransform="matrix(1 0 0 -1 0 900)">
			<stop  offset="2.000000e-02" style="stop-color:#074B21"/>
			<stop  offset="0.89" style="stop-color:#074B21"/>
		</linearGradient>
		<path class="st8" d="M1820.3,716.2c-59.4,14.7-119.6,25.8-180.2,33.5c-84.1,10.4-311.7,29.3-617.3,43.4
			c-4.8-7.4,31.5-34.2,9.5-28.6s-16.6,28.6-16.6,28.6c-22.4-32.5-44.5-22.7-44.5-22.7c27.7,6.5,30.5,25.8,30.5,25.8l-49.8,6.7
			c-0.6,0.9-1.2,1.8-2,2.6c-5.2,5-13,5.8-19.2,2.1c-1.6,0-3.2,0-4.7,0c-4.3,0.1-8.6-0.3-12.8-1.2l-51.7,2.8
			c-14.6,3.7-29.7,5.2-44.8,4.4h-0.2c-21.5,1.2-66.7,3.4-141.4,6.3c-69,2.5-138.1,0.8-206.8-5c-2.5-4.3,14.7-15.8,14.7-15.8
			c-16.5-0.7-27.4,15.1-27.4,15.1c-4.8-7.9,21.8-24.4,21.8-24.4c-19.3-1.5-29.4,20.8-29.4,20.8s4.8-23-13.4-23.9s5.7,25.3,5.7,25.3
			l-82.2-2.3c0,0,29.6-15.6,12.5-19.9s-20,19.9-20,19.9s-1.9-18.5-26.3-23s19.6,23,19.6,23s-384.8,10.2-404,12.6
			c-2.5,0.3-7.1,0.7-13.2,1.2c0.1,12.7,0.2,25.4,0.3,38.1c0,14.6,0,29.2-0.1,43.8l1936.1,16.8l9.4-220.6
			C1861.8,704.8,1843.4,710.3,1820.3,716.2z"/>
		
			<linearGradient id="SVGID_10_" gradientUnits="userSpaceOnUse" x1="213.3324" y1="84.2754" x2="781.1824" y2="379.2253" gradientTransform="matrix(1 0 0 -1 0 900)">
			<stop  offset="0.25" style="stop-color:#036B46"/>
			<stop  offset="0.47" style="stop-color:#065B3D"/>
			<stop  offset="0.73" style="stop-color:#084F37"/>
			<stop  offset="1" style="stop-color:#094B35"/>
		</linearGradient>
		<path class="st9" d="M280.9,700.6c0,0,16.9-53.7,87.5-47.6c39.9-32.2,110.5-47,144.3-0.5c32.2-14.9,70.6-1.9,82.9,9.2
			c64.5-8.8,95.2,6.6,95.2,6.6L280.9,700.6z"/>
		
			<linearGradient id="SVGID_11_" gradientUnits="userSpaceOnUse" x1="42.3091" y1="26.7102" x2="138.7191" y2="495.1102" gradientTransform="matrix(1 0 0 -1 0 900)">
			<stop  offset="0.25" style="stop-color:#036B46"/>
			<stop  offset="0.47" style="stop-color:#065B3D"/>
			<stop  offset="0.73" style="stop-color:#084F37"/>
			<stop  offset="1" style="stop-color:#094B35"/>
		</linearGradient>
		<path class="st10" d="M-74.9,717.7c0.2,10.6,0.4,21.2,0.5,31.8l296.4-24.9c0,0-33.8-19.1-60.3-12.3c-1.5-12.3-17.6-20.1-52.9-2.4
			C86.8,677.5-32.3,676-51.4,725.4C-60.7,720.2-67.3,717.4-74.9,717.7z"/>
		<rect class="st11" width="1600" height="900"/>
	</g>
</g>
</svg>
