<svg id="Layer_1" data-name="Layer 1" xmlns="http://www.w3.org/2000/svg" xmlns:xlink="http://www.w3.org/1999/xlink" viewBox="0 0 1600 900"><defs><style>.cls-1{fill:none;}.cls-2{clip-path:url(#clip-path);}.cls-3{fill:url(#linear-gradient);}.cls-4{fill:url(#linear-gradient-2);}.cls-5{fill:url(#linear-gradient-3);}.cls-6{fill:url(#linear-gradient-4);}.cls-7{fill:url(#linear-gradient-5);}.cls-8{fill:url(#linear-gradient-6);}.cls-9{fill:url(#linear-gradient-7);}.cls-10{fill:url(#linear-gradient-8);}.cls-11{fill:url(#linear-gradient-9);}.cls-12{fill:url(#linear-gradient-10);}.cls-13{fill:url(#linear-gradient-11);}.cls-14{fill:url(#linear-gradient-12);}.cls-15{fill:url(#linear-gradient-13);}.cls-16{fill:url(#linear-gradient-14);}.cls-17{fill:url(#linear-gradient-15);}</style><clipPath id="clip-path"><rect class="cls-1" width="1600" height="900"/></clipPath><linearGradient id="linear-gradient" x1="266.57" y1="1427.41" x2="1349.02" y2="-272.94" gradientUnits="userSpaceOnUse"><stop offset="0.37" stop-color="#3d5175"/><stop offset="0.53" stop-color="#39547e"/><stop offset="0.72" stop-color="#375682"/></linearGradient><linearGradient id="linear-gradient-2" x1="-29.69" y1="725.77" x2="1023.32" y2="211.95" gradientUnits="userSpaceOnUse"><stop offset="0.02" stop-color="#1f5972"/><stop offset="0.24" stop-color="#235c76"/><stop offset="0.48" stop-color="#306580"/><stop offset="0.72" stop-color="#467392"/><stop offset="0.87" stop-color="#577fa0"/></linearGradient><linearGradient id="linear-gradient-3" x1="916.88" y1="500.74" x2="1483.69" y2="500.74" xlink:href="#linear-gradient-2"/><linearGradient id="linear-gradient-4" x1="1582.15" y1="-210.1" x2="1582.15" y2="-215.51" gradientUnits="userSpaceOnUse"><stop offset="0.03" stop-color="#2b748e"/><stop offset="0.27" stop-color="#2f7590"/><stop offset="0.54" stop-color="#3c7895"/><stop offset="0.82" stop-color="#527e9e"/><stop offset="0.87" stop-color="#577fa0"/></linearGradient><linearGradient id="linear-gradient-5" x1="-451.66" y1="1205.94" x2="675" y2="136.95" gradientUnits="userSpaceOnUse"><stop offset="0.03" stop-color="#084e6d"/><stop offset="0.19" stop-color="#0b5070"/><stop offset="0.32" stop-color="#165479"/><stop offset="0.42" stop-color="#225a84"/><stop offset="0.59" stop-color="#3a7ba0"/><stop offset="0.68" stop-color="#4387aa"/></linearGradient><linearGradient id="linear-gradient-6" x1="1081.09" y1="198.9" x2="1191.19" y2="-58.46" gradientUnits="userSpaceOnUse"><stop offset="0.07" stop-color="#2e5c92"/><stop offset="0.2" stop-color="#315f94"/><stop offset="0.3" stop-color="#3a6799"/><stop offset="0.38" stop-color="#4974a2"/><stop offset="0.46" stop-color="#5f88ae"/><stop offset="0.52" stop-color="#7ba1be"/><stop offset="0.54" stop-color="#81a6c1"/></linearGradient><linearGradient id="linear-gradient-7" x1="1341.64" y1="351.68" x2="1444.67" y2="155.47" gradientUnits="userSpaceOnUse"><stop offset="0.07" stop-color="#365281"/><stop offset="0.22" stop-color="#446693"/><stop offset="0.41" stop-color="#5077a2"/><stop offset="0.55" stop-color="#547da7"/></linearGradient><linearGradient id="linear-gradient-8" x1="772.79" y1="344.65" x2="951.63" y2="4.07" gradientUnits="userSpaceOnUse"><stop offset="0.07" stop-color="#3e5e8b"/><stop offset="0.16" stop-color="#51739a"/><stop offset="0.31" stop-color="#6b8fb0"/><stop offset="0.44" stop-color="#7ba0bc"/><stop offset="0.54" stop-color="#81a6c1"/></linearGradient><linearGradient id="linear-gradient-9" x1="649.82" y1="380.04" x2="812.15" y2="70.9" xlink:href="#linear-gradient-7"/><linearGradient id="linear-gradient-10" x1="902.33" y1="251.71" x2="985.28" y2="-108.86" gradientUnits="userSpaceOnUse"><stop offset="0.18" stop-color="#28568e"/><stop offset="0.67" stop-color="#6a92b4"/><stop offset="0.84" stop-color="#81a6c1"/></linearGradient><linearGradient id="linear-gradient-11" x1="189.76" y1="318.44" x2="660.48" y2="-287.04" gradientUnits="userSpaceOnUse"><stop offset="0.24" stop-color="#2d5b91"/><stop offset="0.29" stop-color="#346195"/><stop offset="0.36" stop-color="#48709f"/><stop offset="0.44" stop-color="#6889b0"/><stop offset="0.54" stop-color="#95adc8"/><stop offset="0.64" stop-color="#cfd9e6"/><stop offset="0.71" stop-color="#fff"/></linearGradient><linearGradient id="linear-gradient-12" x1="-2.62" y1="229.84" x2="909.76" y2="-355.74" gradientUnits="userSpaceOnUse"><stop offset="0.24" stop-color="#2d5b91"/><stop offset="0.3" stop-color="#325f94"/><stop offset="0.36" stop-color="#416b9c"/><stop offset="0.43" stop-color="#5a7ea9"/><stop offset="0.51" stop-color="#7c99bb"/><stop offset="0.59" stop-color="#a9bcd2"/><stop offset="0.67" stop-color="#dee5ee"/><stop offset="0.71" stop-color="#fff"/></linearGradient><linearGradient id="linear-gradient-13" x1="1412.63" y1="159.19" x2="1506.94" y2="-199.66" gradientUnits="userSpaceOnUse"><stop offset="0.2" stop-color="#3e5e8b"/><stop offset="0.29" stop-color="#476893"/><stop offset="0.45" stop-color="#6183a7"/><stop offset="0.61" stop-color="#81a6c1"/></linearGradient><linearGradient id="linear-gradient-14" x1="659.94" y1="86.62" x2="762.97" y2="-109.59" gradientUnits="userSpaceOnUse"><stop offset="0.24" stop-color="#2d5b91"/><stop offset="0.3" stop-color="#406a9b"/><stop offset="0.42" stop-color="#7291b5"/><stop offset="0.59" stop-color="#c2cfdf"/><stop offset="0.71" stop-color="#fff"/></linearGradient><linearGradient id="linear-gradient-15" x1="697.37" y1="127.59" x2="881.8" y2="-344.89" gradientUnits="userSpaceOnUse"><stop offset="0.15" stop-color="#28568e"/><stop offset="0.45" stop-color="#557fa8"/><stop offset="0.7" stop-color="#759bba"/><stop offset="0.84" stop-color="#81a6c1"/></linearGradient></defs><g class="cls-2"><path class="cls-3" d="M-90.45-28.47c2.13,15.55,4.11,31.13,6,46.71,4.83,39.17,8.1,78.52,10.29,117.92,4.43,80,4.44,160.2,3.22,240.3-1.22,79.71-3.74,159.4-4.53,239.12-.81,82,2.43,163.95,2.56,246q0,24.18-.12,48.35H1879.86V-28.47Z"/><path class="cls-4" d="M-70.91,376.46c-1.22,79.71-3.74,159.4-4.53,239.12-.24,24.07-.12,48.14.16,72.2L1514.17,584.41s-279.26-206.68-504.73-79.24S705.55,613,633.66,485.57c-124.17-309.51-199.33-281-232-251.61-55.55,49-88.22,78.42-212.39,3.27C42.52,106.53-30.22,106.16-74.1,136.76-69.7,216.57-69.69,296.56-70.91,376.46Z"/><path class="cls-5" d="M917,550.85S1144.6,332.08,1483.69,541C898.14,548,917,550.85,917,550.85Z"/><path class="cls-6" d="M1320.86,566.92s124.17-163.38,165-194.42,78.42-27.78,96.39-9.81c18,16.34,31,39.22,88.23-67s118.8-151.95,173-50.65V549Z"/><path class="cls-7" d="M-70.91,376.46c-1.22,79.71-3.74,159.4-4.53,239.12-.68,69.36,1.52,138.67,2.3,208L598,768.87c-180,6.58-258.61-105.76-328.71-212.43-46.46-76-192.6-216.24-339.56-271.3C-70.16,315.58-70.45,346-70.91,376.46Z"/><path class="cls-8" d="M998.93,131.17s99.08-36.44,185.88-12.68c86.8,24.82,36,53.34-36.88,52.28,0,0-29.84,3.23-99.65,0S952.26,148.59,998.93,131.17Z"/><path class="cls-9" d="M1276,306.81a301.63,301.63,0,0,1,83.71-10.14c52,.9,102.44,14.89,98.66,22.6-2.9,5.89-38.09,9.68-58.35,9.68-101.18,0-38.35,1-101.18,0-14.11-.21-31.75-1.76-37.4-6.4C1256.18,318.28,1262.51,311.92,1276,306.81Z"/><path class="cls-10" d="M707.1,299.79a301.63,301.63,0,0,1,83.71-10.14c52,.9,102.44,14.89,98.65,22.59-2.89,5.9-38.08,9.69-58.35,9.69-101.17,0-38.34,1-101.17,0-14.11-.21-31.76-1.77-37.4-6.4C687.33,311.26,693.66,304.9,707.1,299.79Z"/><path class="cls-11" d="M607.62,290.44a301.39,301.39,0,0,1,83.72-10.14c52,.89,102.43,14.89,98.65,22.59-2.89,5.9-38.08,9.69-58.35,9.69-101.17,0-38.35.95-101.17,0-14.11-.21-31.76-1.77-37.41-6.4C587.86,301.91,594.19,295.54,607.62,290.44Z"/><path class="cls-12" d="M788.2,131.77s130-49.53,244-17.22c113.92,33.73,47.21,72.5-48.41,71.06,0,0-39.17,4.38-130.81,0S726.94,155.46,788.2,131.77Z"/><path class="cls-13" d="M237.34,133.71a211,211,0,0,1,83.71-15c52,1.33,102.44,22.05,98.65,33.47-2.89,8.73-38.08,14.35-58.35,14.35-101.17,0-38.34,1.41-101.17,0-14.11-.32-31.76-2.62-37.4-9.49C217.57,150.7,223.9,141.27,237.34,133.71Z"/><path class="cls-14" d="M150.13,34.78A294,294,0,0,1,268.41,13.22c73.43,1.91,144.74,31.66,139.4,48C403.72,73.8,354,81.87,325.36,81.87c-143,0-54.18,2-143,0-19.94-.46-44.88-3.77-52.86-13.62C122.2,59.17,131.14,45.64,150.13,34.78Z"/><path class="cls-15" d="M1335.84,39.09A247.32,247.32,0,0,1,1439,19.5c64,1.73,126.18,28.76,121.53,43.64-3.57,11.39-46.92,18.72-71.88,18.72-124.63,0-47.24,1.84-124.63,0-17.39-.42-39.13-3.42-46.08-12.37C1311.5,61.24,1319.29,49,1335.84,39.09Z"/><path class="cls-16" d="M594.25,41.76A300.84,300.84,0,0,1,678,31.62c52,.89,102.44,14.88,98.66,22.59-2.9,5.89-38.09,9.69-58.35,9.69-101.18,0-38.35.95-101.18,0-14.11-.22-31.75-1.77-37.4-6.41C574.48,53.22,580.81,46.86,594.25,41.76Z"/><path class="cls-17" d="M618.25,25A356.16,356.16,0,0,1,731.12,9.23c70.06,1.39,138.11,23.14,133,35.12-3.9,9.16-51.35,15.06-78.67,15.06-136.41,0-51.71,1.48-136.41,0-19-.33-42.82-2.75-50.44-9.95C591.59,42.82,600.13,32.93,618.25,25Z"/></g></svg>