<svg id="Layer_1" data-name="Layer 1" xmlns="http://www.w3.org/2000/svg" viewBox="0 0 521.43 457.14"><defs><style>.cls-1{fill:#ff0;}</style></defs><path class="cls-1" d="M506.62,10.25H14.81a6,6,0,0,0-6,6.07l.68,59.45a6,6,0,0,0,6,5.93H366.58v78.08a189,189,0,0,0-19.15-13.63c-16.06-9.88-30.66-14.88-43.41-14.88-12.23,0-26,4.66-41,13.86a148.71,148.71,0,0,0-34.62,29.76c-16.17-20.07-31.57-35-45.84-44.42-16.09-10.61-32.89-16-49.94-16-27.65,0-52.34,11.51-73.36,34.2s-31.5,49.83-31.5,81c0,28.13,10.23,58.7,30.39,90.82C80.87,357.29,115,395.93,165.4,442.1a6,6,0,0,0,4,1.57h48.93A6,6,0,0,0,222.15,433c-31.88-25.72-62.69-65.39-81.1-89.09-3.64-4.68-6.78-8.72-9.35-11.91-18.69-23.2-28.17-46.31-28.17-68.7,0-19.72,5.58-36.52,16.58-50,10.87-13.25,24.34-19.7,41.2-19.7,18.46,0,32.1,6.5,41.61,19.86a154.71,154.71,0,0,0-9,20.47c-3.41,9.39-5.27,15.44-5.86,19.06a6,6,0,0,0,2.58,6l59.8,40a6.06,6.06,0,0,0,3.33,1,5.92,5.92,0,0,0,1.56-.21,6,6,0,0,0,3.83-3.15c16.11-32.85,29.71-55.21,40.4-66.45,12.75-13.28,27.76-19.74,45.9-19.74a130.14,130.14,0,0,1,19.8,1.53l1.3.21V440.89a6,6,0,0,0,6,6h63.25a6,6,0,0,0,6-6V81.7h64.79a6,6,0,0,0,6-6V16.25A6,6,0,0,0,506.62,10.25Zm0,65.45H435.83V440.89H372.58V207.26c-2.1-.49-4.23-.9-6.37-1.23a136.77,136.77,0,0,0-20.74-1.6q-29.49,0-50.22,21.59-16.74,17.6-41.46,68L194,254q.78-4.8,5.58-18a141.75,141.75,0,0,1,10.36-22.79Q194,187.65,161.31,187.64q-27.92,0-45.84,21.9T97.53,263.3q0,35.83,29.5,72.47c15.41,19.11,52.55,70.58,91.35,101.9H169.45c-50.51-46.22-83.88-84.19-106.2-120.32q-29.51-47-29.5-87.67,0-44.64,29.9-76.92t69-32.28q23.92,0,46.64,15t49,49a144.58,144.58,0,0,1,37.87-34.19q21.12-13,37.87-13,17.53,0,40.26,14a197.46,197.46,0,0,1,27.92,21.16c.13.12.25.27.38.41V75.7H15.49l-.68-59.45H506.62Z"/></svg>