<svg id="Layer_1" data-name="Layer 1" xmlns="http://www.w3.org/2000/svg" viewBox="0 0 521.43 457.14"><defs><style>.cls-1{fill:#8d8e8d;}</style></defs><path class="cls-1" d="M324.75,16.25H14.81l.68,59.45H372.58v97.13c-.13-.14-.25-.29-.38-.41a197.46,197.46,0,0,0-27.92-21.16q-22.72-14-40.26-14-16.74,0-37.87,13a144.58,144.58,0,0,0-37.87,34.19q-26.31-34-49-49t-46.64-15q-39.08,0-69,32.28t-29.9,76.92q0,40.67,29.5,87.67c22.32,36.13,55.69,74.1,106.2,120.32h48.93c-38.8-31.32-75.94-82.79-91.35-101.9q-29.5-36.61-29.5-72.47,0-31.86,17.94-53.76t45.84-21.9q32.69,0,48.63,25.58A141.75,141.75,0,0,0,199.58,236q-4.79,13.2-5.58,18l59.79,40q24.71-50.37,41.46-68,20.72-21.6,50.22-21.59a136.77,136.77,0,0,1,20.74,1.6c2.14.33,4.27.74,6.37,1.23V440.89h63.25V75.7h70.79V16.25Z"/></svg>