<svg id="Layer_1" data-name="Layer 1" xmlns="http://www.w3.org/2000/svg" viewBox="0 0 470 560"><defs><style>.cls-1{fill:#fff;}</style></defs><path class="cls-1" d="M443.18,54.73l-198.71,0a6,6,0,0,0-6,6.24L240,97c-12.17-41.44-48.9-71.63-92.19-71.63C94.56,25.41,51.29,71,51.29,127c0,35.28,17.13,67.54,45.21,86.06-3.89,3.79-7.6,7.47-11.21,11.12l-.9.91c-13.86,14-28.19,28.43-40.78,43.89-16.77,20.58-24.9,48.23-22.32,75.85a109.19,109.19,0,0,0,4.51,22.43,100.43,100.43,0,0,0,28.51,43.88C67.29,423,83.68,432.32,103,439a200.48,200.48,0,0,0,31.66,8,196.63,196.63,0,0,0,32.84,2.92c4.42,0,8.81-.18,13.1-.53l53,82.45a6,6,0,0,0,5,2.76l62.64-.16a6,6,0,0,0,5.07-9.18l-59.89-95.92A65.78,65.78,0,1,0,152,385.73c-15.94-3-32.47-6.83-44.91-16.58-11.11-8.7-17.38-21.86-16.78-35.19.84-18.57,14.37-33.4,26.06-44.25,1.52-1.41,3-2.81,4.57-4.2l4.09-3.76s36.33-33.78,58.26-54.13l5-4.66h120.9l.31,263.74a6,6,0,0,0,6,6h60.75a6,6,0,0,0,6-6v-362l60.95,0a6,6,0,0,0,6-6v-58A6,6,0,0,0,443.18,54.73Zm-199,69.4a6,6,0,0,0,2.65.61h62.21l0,30.93H240.33a106.34,106.34,0,0,0,3.9-28.67C244.23,126,244.22,125.08,244.19,124.13Zm199-5.37-66.95,0v368H315.48L315.16,217H185.92l-6.75,6.26c-21.93,20.35-58.27,54.14-58.27,54.14-2.87,2.65-5.77,5.29-8.65,7.95-13.85,12.86-27.08,28.59-28,48.38-.71,15.63,6.86,30.62,19.07,40.19,13.75,10.76,31.46,14.73,48.13,17.86q4.53.86,9.05,1.36a59.73,59.73,0,1,1,77.25,33.61l63.51,101.72-62.62.16-55-85.52a175.3,175.3,0,0,1-48-2,193.28,193.28,0,0,1-30.7-7.74c-17-5.86-33.29-14.48-46.64-26.63a94.45,94.45,0,0,1-26.83-41.24,102.72,102.72,0,0,1-4.25-21.19c-2.38-25.45,4.77-51.59,21-71.5,12.67-15.56,27.16-30.12,41.28-44.36Q97.8,220.06,106.3,212c-29.11-15.89-49-48-49-85,0-52.79,40.5-95.59,90.47-95.59s90.47,42.8,90.47,95.59a99.92,99.92,0,0,1-6.15,34.67h83l0-42.93h-68.2l-2.37-58,198.71,0Z"/><path class="cls-1" d="M146.05,99.69c-13.2,0-23.9,12.23-23.9,27.31s10.7,27.32,23.9,27.32S170,142.09,170,127,159.25,99.69,146.05,99.69Zm0,48.63c-9.87,0-17.9-9.56-17.9-21.32s8-21.31,17.9-21.31S164,115.25,164,127,155.92,148.32,146.05,148.32Z"/><path class="cls-1" d="M216,383.05a11.95,11.95,0,1,0-11.95-11.94A11.95,11.95,0,0,0,216,383.05Zm0-17.89a5.95,5.95,0,1,1-5.95,5.95A6,6,0,0,1,216,365.16Z"/></svg>