<svg id="Layer_1" data-name="Layer 1" xmlns="http://www.w3.org/2000/svg" viewBox="0 0 470 560"><defs><style>.cls-1{fill:#8d8e8d;}</style></defs><path class="cls-1" d="M244.47,60.71l2.37,58H315l0,42.93h-83A99.92,99.92,0,0,0,238.23,127c0-52.79-40.5-95.59-90.47-95.59S57.29,74.21,57.29,127c0,37,19.9,69.07,49,85q-8.49,8.1-16.75,16.45c-14.12,14.24-28.61,28.8-41.28,44.36-16.23,19.91-23.38,46.05-21,71.5a102.72,102.72,0,0,0,4.25,21.19A94.45,94.45,0,0,0,58.35,406.7C71.7,418.85,88,427.47,105,433.33a193.28,193.28,0,0,0,30.7,7.74,175.3,175.3,0,0,0,48,2l55,85.52,62.62-.16L237.78,426.71a59.8,59.8,0,1,0-77.25-33.61q-4.51-.51-9.05-1.35c-16.67-3.14-34.38-7.11-48.13-17.87-12.21-9.57-19.78-24.56-19.07-40.19.89-19.79,14.12-35.52,28-48.38,2.88-2.66,5.78-5.3,8.65-7.95,0,0,36.34-33.79,58.27-54.14l6.75-6.26H315.16l.32,269.73h60.75v-368l66.95,0v-58ZM216,359.16a11.95,11.95,0,1,1-11.95,11.95A11.95,11.95,0,0,1,216,359.16Zm-70-204.84c-13.2,0-23.9-12.23-23.9-27.32s10.7-27.31,23.9-27.31S170,111.92,170,127,159.25,154.32,146.05,154.32Z"/></svg>