<svg id="Layer_1" data-name="Layer 1" xmlns="http://www.w3.org/2000/svg" viewBox="0 0 470 560"><defs><style>.cls-1{fill:none;stroke:#fff;stroke-miterlimit:10;stroke-width:2px;stroke-dasharray:15 15;}.cls-2{fill:#fff;}</style></defs><path class="cls-1" d="M311,190.22s-77.19.63-165-.58c-73-1-73.5-75.49-46-113C124.71,43,189.81,38.19,209.4,101.85,237.18,192.15,84.92,217.58,58,316.64c-20.07,73.87,78,118,145.13,96.49,25.24-8.09,44.72-17.81,48.92-36.94,3.76-17.14-.26-35.85-27.6-43.52-18.82-5.28-36.13,16.08-37.18,35.46-6.44,29.95,52.79,109.69,75.81,139.27"/><polygon class="cls-2" points="253.49 511.21 272 518.64 269.19 498.9 253.49 511.21"/></svg>