<svg xmlns="http://www.w3.org/2000/svg" xmlns:xlink="http://www.w3.org/1999/xlink" viewBox="0 0 364.35 700.12"><defs><style>.cls-1{fill:none;}.cls-2{isolation:isolate;}.cls-14,.cls-3{fill:#9d9d9d;}.cls-3{opacity:0.3;mix-blend-mode:multiply;}.cls-4{fill:#bf8a52;}.cls-5{fill:url(#linear-gradient);}.cls-6{fill:url(#linear-gradient-2);}.cls-7{clip-path:url(#clip-path);}.cls-8{opacity:0.4;mix-blend-mode:screen;}.cls-9{opacity:0;}.cls-10{fill:#171717;opacity:0.09;}.cls-11{fill:#5c5c5c;opacity:0.18;}.cls-12{fill:#747474;opacity:0.27;}.cls-13{fill:#8b8b8b;opacity:0.36;}.cls-14{opacity:0.45;}.cls-15{fill:#adadad;opacity:0.55;}.cls-16{fill:#bdbdbd;opacity:0.64;}.cls-17{fill:#cecece;opacity:0.73;}.cls-18{fill:#dfdfdf;opacity:0.82;}.cls-19{fill:#efefef;opacity:0.91;}.cls-20{fill:#fff;}</style><linearGradient id="linear-gradient" x1="101.6" y1="348.55" x2="117.34" y2="348.55" gradientUnits="userSpaceOnUse"><stop offset="0" stop-color="#ce9e68"/><stop offset="0.51" stop-color="#cea266"/><stop offset="1" stop-color="#cd9f6c"/></linearGradient><linearGradient id="linear-gradient-2" x1="256.4" y1="348.55" x2="272.14" y2="348.55" xlink:href="#linear-gradient"/><clipPath id="clip-path"><path class="cls-1" d="M113.76,30.68l3.58,17.59L107.49,657l-5.89,9.4H72.1L90.61,30.83Zm169.37.15L260,30.68,256.4,48.27,266.26,657l5.88,9.4h29.51Z"/></clipPath></defs><g class="cls-2"><g id="Layer_1" data-name="Layer 1"><g id="_3" data-name="3"><path class="cls-3" d="M279.89,52l-7.68,119.66a1.12,1.12,0,0,1-1.11,1H138.24a1.11,1.11,0,0,1-1.09-.9l-25-127.67a1.11,1.11,0,0,0-2.19.06l-8.32,56.51a1.34,1.34,0,0,0,0,.28L151.1,562.58a1.09,1.09,0,0,1-.19.74L81.1,667a1.11,1.11,0,0,0,.92,1.73H105a1.12,1.12,0,0,0,.89-.45L124,643.46a1.12,1.12,0,0,1,.9-.46H279.56a1.11,1.11,0,0,1,1.1,1.25l-2.26,24a1.11,1.11,0,0,0,1.11,1.24H305a1.11,1.11,0,0,0,1.09-.87l22.86-105.42a1.27,1.27,0,0,0,0-.34L282.11,52A1.11,1.11,0,0,0,279.89,52Zm-5.12,580H136.56a1.11,1.11,0,0,1-.92-1.73l12.79-19.06a1.12,1.12,0,0,1,.93-.49H274.77a1.12,1.12,0,0,1,1.12,1.11V630.9A1.12,1.12,0,0,1,274.77,632Zm0-31.85H158a1.12,1.12,0,0,1-.92-1.74l10.17-15.17a1.11,1.11,0,0,1,.93-.49H274.77a1.12,1.12,0,0,1,1.12,1.11V599A1.12,1.12,0,0,1,274.77,600.16Zm-106-128H271a1.11,1.11,0,0,1,1.11,1.11V574.54a1.11,1.11,0,0,1-1.11,1.11H174.27a1.1,1.1,0,0,1-1-1.52l4.37-10.89a1.07,1.07,0,0,0,.07-.53l-10-89.31A1.11,1.11,0,0,1,168.78,472.17Zm-10-74.45L145.22,258.44a1.12,1.12,0,0,1,1.11-1.22H271.09a1.11,1.11,0,0,1,1.11,1l8.54,139.27a1.11,1.11,0,0,1-1.11,1.18H159.9A1.12,1.12,0,0,1,158.79,397.72Z"/><polygon class="cls-4" points="90.61 30.83 113.76 30.68 101.61 666.42 72.1 666.42 90.61 30.83"/><polygon class="cls-5" points="113.76 30.68 117.34 48.27 107.49 657.02 101.61 666.42 113.76 30.68"/><polygon class="cls-4" points="283.13 30.83 259.99 30.68 272.14 666.42 301.65 666.42 283.13 30.83"/><polygon class="cls-6" points="259.99 30.68 256.4 48.27 266.26 657.02 272.14 666.42 259.99 30.68"/><g class="cls-7"><g class="cls-8"><rect class="cls-9" x="263.68" y="30.62" width="4.76" height="635.86" transform="matrix(1, -0.02, 0.02, 1, -6.61, 5.15)"/><rect class="cls-10" x="263.85" y="30.62" width="4.42" height="635.86" transform="translate(-6.61 5.15) rotate(-1.09)"/><rect class="cls-11" x="264.02" y="30.62" width="4.08" height="635.86" transform="translate(-6.61 5.15) rotate(-1.09)"/><rect class="cls-12" x="264.2" y="30.62" width="3.74" height="635.86" transform="translate(-6.61 5.15) rotate(-1.09)"/><rect class="cls-13" x="264.37" y="30.62" width="3.39" height="635.86" transform="translate(-6.61 5.15) rotate(-1.09)"/><rect class="cls-14" x="264.54" y="30.62" width="3.05" height="635.86" transform="translate(-6.61 5.15) rotate(-1.09)"/><rect class="cls-15" x="264.71" y="30.62" width="2.71" height="635.86" transform="translate(-6.61 5.15) rotate(-1.09)"/><rect class="cls-16" x="264.88" y="30.62" width="2.37" height="635.86" transform="translate(-6.61 5.15) rotate(-1.09)"/><rect class="cls-17" x="265.05" y="30.62" width="2.03" height="635.86" transform="translate(-6.61 5.15) rotate(-1.09)"/><rect class="cls-18" x="265.22" y="30.62" width="1.69" height="635.86" transform="matrix(1, -0.02, 0.02, 1, -6.61, 5.15)"/><rect class="cls-19" x="265.39" y="30.62" width="1.34" height="635.86" transform="translate(-6.61 5.15) rotate(-1.09)"/><rect class="cls-20" x="265.56" y="30.62" width="1" height="635.86" transform="translate(-6.61 5.15) rotate(-1.09)"/></g><g class="cls-8"><rect class="cls-9" x="-210.25" y="346.17" width="635.86" height="4.76" transform="translate(-242.86 449.55) rotate(-88.91)"/><rect class="cls-10" x="-210.25" y="346.34" width="635.86" height="4.42" transform="translate(-242.86 449.55) rotate(-88.91)"/><rect class="cls-11" x="-210.25" y="346.51" width="635.86" height="4.08" transform="matrix(0.02, -1, 1, 0.02, -242.86, 449.55)"/><rect class="cls-12" x="-210.25" y="346.68" width="635.86" height="3.74" transform="translate(-242.86 449.55) rotate(-88.91)"/><rect class="cls-13" x="-210.25" y="346.85" width="635.86" height="3.39" transform="translate(-242.86 449.55) rotate(-88.91)"/><rect class="cls-14" x="-210.25" y="347.02" width="635.86" height="3.05" transform="translate(-242.86 449.55) rotate(-88.91)"/><rect class="cls-15" x="-210.25" y="347.19" width="635.86" height="2.71" transform="translate(-242.86 449.55) rotate(-88.91)"/><rect class="cls-16" x="-210.25" y="347.37" width="635.86" height="2.37" transform="matrix(0.02, -1, 1, 0.02, -242.86, 449.55)"/><rect class="cls-17" x="-210.25" y="347.54" width="635.86" height="2.03" transform="matrix(0.02, -1, 1, 0.02, -242.86, 449.55)"/><rect class="cls-18" x="-210.25" y="347.71" width="635.86" height="1.69" transform="translate(-242.86 449.55) rotate(-88.91)"/><rect class="cls-19" x="-210.25" y="347.88" width="635.86" height="1.34" transform="translate(-242.86 449.55) rotate(-88.91)"/><rect class="cls-20" x="-210.25" y="348.05" width="635.86" height="1" transform="translate(-242.86 449.55) rotate(-88.91)"/></g><g class="cls-8"><rect class="cls-9" x="290.01" y="30.7" width="4.76" height="635.86" transform="translate(-10.03 8.66) rotate(-1.67)"/><rect class="cls-10" x="290.18" y="30.7" width="4.42" height="635.86" transform="translate(-10.03 8.66) rotate(-1.67)"/><rect class="cls-11" x="290.35" y="30.7" width="4.08" height="635.86" transform="translate(-10.03 8.66) rotate(-1.67)"/><rect class="cls-12" x="290.52" y="30.7" width="3.74" height="635.86" transform="translate(-10.03 8.66) rotate(-1.67)"/><rect class="cls-13" x="290.69" y="30.7" width="3.39" height="635.86" transform="translate(-10.03 8.66) rotate(-1.67)"/><rect class="cls-14" x="290.86" y="30.7" width="3.05" height="635.86" transform="translate(-10.03 8.66) rotate(-1.67)"/><rect class="cls-15" x="291.03" y="30.7" width="2.71" height="635.86" transform="translate(-10.03 8.66) rotate(-1.67)"/><rect class="cls-16" x="291.2" y="30.7" width="2.37" height="635.86" transform="translate(-10.03 8.66) rotate(-1.67)"/><rect class="cls-17" x="291.38" y="30.7" width="2.03" height="635.86" transform="translate(-10.03 8.66) rotate(-1.67)"/><rect class="cls-18" x="291.55" y="30.7" width="1.69" height="635.86" transform="translate(-10.03 8.66) rotate(-1.67)"/><rect class="cls-19" x="291.72" y="30.7" width="1.34" height="635.86" transform="translate(-10.03 8.66) rotate(-1.67)"/><rect class="cls-20" x="291.89" y="30.7" width="1" height="635.86" transform="translate(-10.03 8.66) rotate(-1.67)"/></g><g class="cls-8"><rect class="cls-9" x="-236.58" y="346.25" width="635.86" height="4.76" transform="matrix(0.03, -1, 1, 0.03, -269.5, 419.8)"/><rect class="cls-10" x="-236.58" y="346.42" width="635.86" height="4.42" transform="translate(-269.5 419.8) rotate(-88.33)"/><rect class="cls-11" x="-236.58" y="346.59" width="635.86" height="4.08" transform="translate(-269.5 419.8) rotate(-88.33)"/><rect class="cls-12" x="-236.58" y="346.76" width="635.86" height="3.74" transform="translate(-269.5 419.8) rotate(-88.33)"/><rect class="cls-13" x="-236.58" y="346.93" width="635.86" height="3.39" transform="translate(-269.5 419.8) rotate(-88.33)"/><rect class="cls-14" x="-236.58" y="347.1" width="635.86" height="3.05" transform="translate(-269.5 419.8) rotate(-88.33)"/><rect class="cls-15" x="-236.58" y="347.27" width="635.86" height="2.71" transform="translate(-269.5 419.8) rotate(-88.33)"/><rect class="cls-16" x="-236.58" y="347.44" width="635.86" height="2.37" transform="translate(-269.5 419.8) rotate(-88.33)"/><rect class="cls-17" x="-236.58" y="347.62" width="635.86" height="2.03" transform="translate(-269.5 419.8) rotate(-88.33)"/><rect class="cls-18" x="-236.58" y="347.79" width="635.86" height="1.69" transform="translate(-269.5 419.8) rotate(-88.33)"/><rect class="cls-19" x="-236.58" y="347.96" width="635.86" height="1.34" transform="translate(-269.5 419.8) rotate(-88.33)"/><rect class="cls-20" x="-236.58" y="348.13" width="635.86" height="1" transform="translate(-269.5 419.8) rotate(-88.33)"/></g></g><rect class="cls-4" x="108.31" y="421.02" width="157.5" height="18.97" rx="2.95"/><rect class="cls-4" x="110.89" y="300.86" width="152.35" height="18.97" rx="2.91"/><rect class="cls-4" x="113.08" y="188.4" width="147.97" height="17.85" rx="2.13"/><rect class="cls-4" x="115.18" y="84.16" width="143.76" height="16.72" rx="1.89"/><rect class="cls-4" x="105.86" y="550.14" width="162.41" height="22.83" rx="2.79"/><g class="cls-8"><rect class="cls-9" x="115.22" y="84.28" width="143.73" height="4.76"/><rect class="cls-10" x="115.22" y="84.45" width="143.73" height="4.42"/><rect class="cls-11" x="115.22" y="84.62" width="143.73" height="4.08"/><rect class="cls-12" x="115.22" y="84.79" width="143.73" height="3.74"/><rect class="cls-13" x="115.22" y="84.97" width="143.73" height="3.4"/><rect class="cls-14" x="115.22" y="85.14" width="143.73" height="3.05"/><rect class="cls-15" x="115.22" y="85.31" width="143.73" height="2.71"/><rect class="cls-16" x="115.22" y="85.48" width="143.73" height="2.37"/><rect class="cls-17" x="115.22" y="85.65" width="143.73" height="2.03"/><rect class="cls-18" x="115.22" y="85.82" width="143.73" height="1.69"/><rect class="cls-19" x="115.22" y="85.99" width="143.73" height="1.34"/><rect class="cls-20" x="115.22" y="86.16" width="143.73" height="1"/></g><g class="cls-8"><rect class="cls-9" x="112.49" y="188.51" width="148.56" height="4.76"/><rect class="cls-10" x="112.49" y="188.68" width="148.56" height="4.42"/><rect class="cls-11" x="112.49" y="188.85" width="148.56" height="4.08"/><rect class="cls-12" x="112.49" y="189.02" width="148.56" height="3.74"/><rect class="cls-13" x="112.49" y="189.2" width="148.56" height="3.39"/><rect class="cls-14" x="112.49" y="189.37" width="148.56" height="3.05"/><rect class="cls-15" x="112.49" y="189.54" width="148.56" height="2.71"/><rect class="cls-16" x="112.49" y="189.71" width="148.56" height="2.37"/><rect class="cls-17" x="112.49" y="189.88" width="148.56" height="2.03"/><rect class="cls-18" x="112.49" y="190.05" width="148.56" height="1.69"/><rect class="cls-19" x="112.49" y="190.22" width="148.56" height="1.34"/><rect class="cls-20" x="112.49" y="190.39" width="148.56" height="1"/></g><g class="cls-8"><rect class="cls-9" x="110.89" y="301.39" width="152.35" height="4.76"/><rect class="cls-10" x="110.89" y="301.56" width="152.35" height="4.42"/><rect class="cls-11" x="110.89" y="301.73" width="152.35" height="4.08"/><rect class="cls-12" x="110.89" y="301.9" width="152.35" height="3.74"/><rect class="cls-13" x="110.89" y="302.07" width="152.35" height="3.39"/><rect class="cls-14" x="110.89" y="302.24" width="152.35" height="3.05"/><rect class="cls-15" x="110.89" y="302.42" width="152.35" height="2.71"/><rect class="cls-16" x="110.89" y="302.59" width="152.35" height="2.37"/><rect class="cls-17" x="110.89" y="302.76" width="152.35" height="2.03"/><rect class="cls-18" x="110.89" y="302.93" width="152.35" height="1.69"/><rect class="cls-19" x="110.89" y="303.1" width="152.35" height="1.34"/><rect class="cls-20" x="110.89" y="303.27" width="152.35" height="1"/></g><g class="cls-8"><rect class="cls-9" x="108.31" y="421.58" width="157.5" height="4.76"/><rect class="cls-10" x="108.31" y="421.75" width="157.5" height="4.42"/><rect class="cls-11" x="108.31" y="421.93" width="157.5" height="4.08"/><rect class="cls-12" x="108.31" y="422.1" width="157.5" height="3.74"/><rect class="cls-13" x="108.31" y="422.27" width="157.5" height="3.4"/><rect class="cls-14" x="108.31" y="422.44" width="157.5" height="3.05"/><rect class="cls-15" x="108.31" y="422.61" width="157.5" height="2.71"/><rect class="cls-16" x="108.31" y="422.78" width="157.5" height="2.37"/><rect class="cls-17" x="108.31" y="422.95" width="157.5" height="2.03"/><rect class="cls-18" x="108.31" y="423.12" width="157.5" height="1.69"/><rect class="cls-19" x="108.31" y="423.29" width="157.5" height="1.34"/><rect class="cls-20" x="108.31" y="423.46" width="157.5" height="1"/></g><g class="cls-8"><rect class="cls-9" x="105.86" y="550.55" width="162.41" height="4.76"/><rect class="cls-10" x="105.86" y="550.72" width="162.41" height="4.42"/><rect class="cls-11" x="105.86" y="550.89" width="162.41" height="4.08"/><rect class="cls-12" x="105.86" y="551.06" width="162.41" height="3.74"/><rect class="cls-13" x="105.86" y="551.23" width="162.41" height="3.39"/><rect class="cls-14" x="105.86" y="551.4" width="162.41" height="3.05"/><rect class="cls-15" x="105.86" y="551.57" width="162.41" height="2.71"/><rect class="cls-16" x="105.86" y="551.74" width="162.41" height="2.37"/><rect class="cls-17" x="105.86" y="551.91" width="162.41" height="2.03"/><rect class="cls-18" x="105.86" y="552.09" width="162.41" height="1.69"/><rect class="cls-19" x="105.86" y="552.26" width="162.41" height="1.34"/><rect class="cls-20" x="105.86" y="552.43" width="162.41" height="1"/></g></g></g></g></svg>