<svg id="Layer_1" data-name="Layer 1" xmlns="http://www.w3.org/2000/svg" viewBox="0 0 346 133"><defs><style>.cls-1{fill:#f73737;}.cls-2{fill:#191919;}</style></defs><path class="cls-1" d="M88.58,41.05l.9-1.22H150.6L155,48.66l-.9,1.22H142.86l.26,57.18-.9.65-10.25-3,.25-13.4A23.89,23.89,0,0,1,120,94.69c-6.9,0-13.15-3-18.5-9.67-4-5.1-5.35-9.41-5.35-13,0-8.51,6.38-15.6,19.79-15.6a66.72,66.72,0,0,1,16.24,2.38v-9H93Zm23.34,27.66a10.29,10.29,0,0,0-5.55,9.09c0,3.54,3.29,6.83,10,6.83a22.43,22.43,0,0,0,5.86-.77ZM127.45,81.6c3.74-2.45,4.9-4.83,4.9-7.86V67.35a44.33,44.33,0,0,0-9.67-1,31.37,31.37,0,0,0-5.15.39Z"/><path class="cls-2" d="M135.77,15.91l8.83,8.83-8.83,8.83-8.83-8.83Z"/><path class="cls-2" d="M148.53,41.05l.91-1.22H208l4.39,8.83-.91,1.22H198.17l.07,18.5-1,1.36h-7.41c-17,0-22.57,5.8-22.57,12.76,0,6.58,4.45,10.9,10.77,10.9a18.84,18.84,0,0,0,11-3.16,9.71,9.71,0,0,1-1.87-5.93c0-5.35,4.06-8.45,9.15-8.45,6.26,0,10.51,5.42,10.51,11,0,3.8-2.06,7.15-5.67,10.12,5.61,5.28,9,9.73,9,15.79,0,5.35-3.29,10.25-8.26,13.41h-.45l-10.83-8.64c5.55-3.48,8.9-7.22,9-11.21a9.19,9.19,0,0,0-3-6.71,27.46,27.46,0,0,1-12.63,3.1c-7.55,0-13.73-3.16-18.7-7.74-4.51-4.26-9-10.44-9-18,0-8.31,4.64-17.21,22.5-17.21h6.51c1.74,0,2.32-.71,2.32-2.45V49.88H152.92Z"/><path class="cls-2" d="M205.91,41.05l.9-1.22H253l4.38,8.83-.9,1.22H241.69a42.2,42.2,0,0,1,.71,7.93c0,12.9-5.8,19.41-14.06,24,5.36,5.81,13.8,11,23.79,15.8l-5,11h-1c-13.15-9.8-23.46-20.18-29.59-31.53-1.55-2.77-2.45-5.28-2.45-6.64a6.91,6.91,0,0,1,1.1-3.61c1.09-1.74,3.09-2.7,6.06-2.7s6,.06,8,.25c1.42-1.87,2.39-4.77,2.39-9.54a19.6,19.6,0,0,0-.52-4.9H210.29Z"/></svg>