<svg id="Layer_1" data-name="Layer 1" xmlns="http://www.w3.org/2000/svg" viewBox="0 0 346 133"><defs><style>.cls-1{fill:#191919;}.cls-2{fill:#f73737;}</style></defs><path class="cls-1" d="M141.41,41.05l.9-1.23h60.92l4.39,8.84-.9,1.22H195.5l.26,57.18-.91.65-10.25-3,.33-30.56c-3-.25-5.29-.32-8.32-.32a36.73,36.73,0,0,0-9.41,1,62.53,62.53,0,0,1,.58,7.09c0,2.19-.26,3.87-1.81,5.16a6,6,0,0,1-3.8,1.42c-2.26,0-5.16-1.87-8.83-5.68s-5.42-7.15-5.42-9.86c0-1.68,1-10.25,17.92-10.25a139.58,139.58,0,0,1,19,1.55V49.88H145.8Z"/><path class="cls-1" d="M159.46,105.55h.78c9.28,12.12,17,17.93,24.17,17.93,5.35,0,10.57-3.49,10.57-8,0-1.09-.9-2.51-3.61-2.51s-5.93,1.48-9,3.74h-.84l-5.35-9c4.06-2.9,7.93-4.38,11.09-4.38,4.64,0,8.83,2.51,12.19,8.89a18,18,0,0,1,2.32,8.38c0,6.52-5.61,11.93-13.93,11.93-9.73,0-19.92-7.67-31.52-23.4Z"/><path class="cls-1" d="M201.17,41.05l.9-1.23H262l4.39,8.84-.9,1.22H254.23l.26,57.18-.91.65-10.25-3,.26-17.28A16.74,16.74,0,0,1,234.76,90c-4.13,0-8.38-1.54-12.57-4.51-7.74-5.54-10.83-10.38-10.83-24.17,0-4.13.06-8,.19-11.48h-6Zm21.66,13.09-.26.06c-.06,2.32-.06,5-.06,7.74,0,11.73.39,18.37,7.22,18.37,3,0,6.32-1.23,9.74-3.8Zm3.74-4.07,16.18,21.79.33.07a14.21,14.21,0,0,0,.64-4.64V49.88H226.77Z"/><path class="cls-2" d="M113,41.05l.9-1.23h29.59l4.39,8.84-.9,1.22H135.74l.26,57.18-.91.65-10.25-3,.26-13.28a26.46,26.46,0,0,1-11.67,2.77c-5,0-9.8-2-15-7-4.65-4.58-7.35-9.41-7.35-14.7a11.38,11.38,0,0,1,1.61-5.67C86,61.29,79.65,55.55,79.65,48.27c0-8.7,7-13.8,14.51-13.8,4.32,0,9.36,2,11.07,5.5,6.13,12.64-3.78,19.46-10.21,20.75l-2-1.59c7.63-3.26,10.55-11,5.39-13.67-4.13-2.11-8.93,2.58-8.82,8.35.08,4.19,3.48,6.39,9.09,6.39,2.77,0,7.35-1,13.86-2.07l5.87,9.48-.52.71c-14.63,1.87-16.76,7.73-16.76,10.63,0,2.52,2.45,4.71,6.9,4.71a22.56,22.56,0,0,0,9.54-2.38c4.25-2.07,7.41-4.71,7.41-10.13V49.88h-7.6Z"/></svg>