<svg id="Layer_1" data-name="Layer 1" xmlns="http://www.w3.org/2000/svg" viewBox="0 0 346 133"><defs><style>.cls-1{fill:#f73737;}.cls-2{fill:#191919;}</style></defs><path class="cls-1" d="M74.4,41.09l.9-1.22h61.12l4.38,8.83-.9,1.22H128.68l.26,57.18-.91.65-10.25-3L118,91.37a23.83,23.83,0,0,1-12.18,3.36c-6.9,0-13.15-3-18.5-9.67-4-5.1-5.35-9.42-5.35-13,0-8.51,6.38-15.6,19.79-15.6A66.72,66.72,0,0,1,118,58.88v-9H78.78Zm43.77,26.69a43.72,43.72,0,0,0-9.67-1c-10.51,0-16,5.16-16,11.34,0,3.49,2.84,6.13,9.48,6.13a20.2,20.2,0,0,0,12.83-4.51c2.13-1.74,3.35-3.42,3.35-6.39Z"/><path class="cls-2" d="M134.35,41.09l.9-1.22h10.38c-.64-13.16-5-20.31-13.86-20.31-5.48,0-9,3.54-9,8.51a12.85,12.85,0,0,0,3.68,8.57l-1,1.48-9.73-4.25a17.81,17.81,0,0,1-4.26-11.35c0-7.54,6.06-12.7,14.83-12.7,7.61,0,15,4,21.66,13.09a51.62,51.62,0,0,1,7.67,17H164l4.38,8.83-.9,1.22H156.27l.26,57.18-.9.65-10.38-3,.25-54.8h-6.76Z"/><path class="cls-2" d="M161.94,41.09l.91-1.22h76.78L244,48.7l-.9,1.22H231.89l.26,57.18-.9.65-10.38-3,.25-54.8h-10.7V71.2c0,16.18-9.86,18.76-15.79,18.76a21.73,21.73,0,0,1-14.57-5.74c-4.26-3.87-7.54-8.45-7.54-20.18,0-3.67,0-8.12.13-14.12h-6.32Zm21.79,8.83c-.13,6.19-.13,11.74-.13,16.18,0,10.7,2.33,14.38,6.58,14.38,4.84,0,9.67-3.74,9.67-14.7V49.92Z"/><path class="cls-2" d="M237.56,41.09l.91-1.22h28.75l4.38,8.83-.9,1.22H259.48l.26,57.18-.9.65-10.38-3,.26-54.8H242Z"/></svg>