<svg id="Layer_1" data-name="Layer 1" xmlns="http://www.w3.org/2000/svg" viewBox="0 0 346 133"><defs><style>.cls-1{fill:#191919;}.cls-2{fill:#f73737;}</style></defs><path class="cls-1" d="M60.15,41.06l.9-1.23h73.11l4.38,8.83-.9,1.23H126.42l.26,57.18-.9.65-10.25-3,.26-13.67A19.73,19.73,0,0,1,103.47,95c-5.73,0-11.92-2-18-8.64-4.19-4.52-6.57-8.77-6.57-14.25a11,11,0,0,1,.64-4H71.24L66.79,59l1-1.22L110,58l-.06,9-.71.78h-8.64c-6.9,0-10.63,4.06-10.63,9.6,0,5,3.93,7.22,8,7.22a20.15,20.15,0,0,0,13.6-5.09c2.58-2.26,4.19-5.29,4.19-9.93V49.89H64.54Z"/><path class="cls-1" d="M132.1,41.06l.9-1.23h12.18c-3.16-3.8-4.9-7.22-4.9-11.15,0-8.77,7.29-18.24,22.31-18.24,13,0,27.2,6.89,43.19,22.69l-2.71,4.25h-.83c-10.51-9.8-21.34-16.11-32.88-16.11C158.08,21.27,151,28,151,35.71a9,9,0,0,0,.9,4.12h9.86l4.38,8.83-.9,1.23H154l.26,57.18-.9.65-10.38-3,.26-54.8h-6.77Z"/><path class="cls-2" d="M159.69,41.06l.9-1.23h58.67l4.38,8.83-.9,1.23H211.13L211.26,65l-1.09,1.36h-9.09a99.34,99.34,0,0,0-11,.51c-3,.39-5.16,1.29-6.51,2.84a5.24,5.24,0,0,0-1.42,3.16c0,1.42,1.35,2,3,2,5.22,0,11.41-2.07,16.89-2.07,7.22,0,9.54,3.1,12.25,8.06a19.32,19.32,0,0,1,2.57,9.41c0,7-6.31,15.35-17.85,15.35-12.06,0-24.05-8.51-34.23-25.4l.06-.78,4.51-3.09c7.48,12.44,15.35,18.05,24.37,18.05,9.35,0,14.57-6.32,14.57-9.8,0-.58-.52-1-2.64-1-3.23,0-12.64,2.32-17,2.32-3.16,0-6.19-2.06-10.32-6.83-3.48-4.13-5.54-8-5.54-11.74,0-9.41,8.57-11.15,20-11.15h7.74V49.89H164.07Z"/><path class="cls-2" d="M203.46,108.88l8.7,8.7-8.7,8.7-8.7-8.7Z"/><path class="cls-1" d="M33.19,41.06l.9-1.23H46.28c-3.16-3.8-4.9-7.22-4.9-11.15,0-8.77,7.28-18.24,22.3-18.24,13,0,27.21,6.89,43.2,22.69l-2.71,4.25h-.84C92.82,27.58,82,21.27,70.45,21.27c-11.28,0-18.37,6.76-18.37,14.44a9.15,9.15,0,0,0,.9,4.12h9.87l4.38,8.83-.9,1.23H55.11l.26,57.18-.9.65-10.38-3,.25-54.8H37.58Z"/><path class="cls-1" d="M217.78,41.06l.91-1.23h62.14l4.39,8.83-.91,1.23H273.1l.25,57.18-.9.65-10.25-3,.26-15a18.9,18.9,0,0,1-10.38,2.71c-12.76,0-22.24-9.22-28.62-27.07l.71-1.23c9.21-2.06,15.47-4.64,15.47-9.86A7,7,0,0,0,238,49.89H222.17Zm44.81,8.83H246c2,3.74,3.67,7.41,3.67,11.47,0,6.26-5.41,10-14.5,12.12,1.35,5.29,5.6,8.19,12.63,8.19a18.34,18.34,0,0,0,11.48-3.93c2.12-1.74,3.35-4.06,3.35-7.67Z"/><path class="cls-1" d="M278.77,41.06l.9-1.23h28.75l4.39,8.83-.9,1.23H300.69l.26,57.18-.91.65-10.38-3,.26-54.8h-6.77Z"/></svg>