<svg id="Layer_1" data-name="Layer 1" xmlns="http://www.w3.org/2000/svg" viewBox="0 0 346 133"><defs><style>.cls-1{fill:#f73737;}.cls-2{fill:#191919;}</style></defs><path class="cls-1" d="M123.36,41l.9-1.23H151.6L156,48.64l-.9,1.22H143.86l.26,57.18-.9.65-10.25-3,.25-15.28a21.24,21.24,0,0,1-12.12,3.61c-11,0-21.46-8.31-27.91-24.62l.64-1.55c12.83-4.77,21.47-8.06,21.47-16.18,0-3-2.38-5.67-6.25-5.67-5.35,0-7.93,3.8-7.93,7.28,0,2.39,1.68,4.64,4.9,6.77l-1,2.39-7.6-2.71c-4.13-3.68-6.13-7.54-6.13-11.61,0-5.67,4.51-11.54,13.28-11.54,5.09,0,9.67,3.1,13.6,8.26s5.42,9.47,5.42,13.28c0,9.92-7.35,13.92-18.31,18.18,1.61,4.64,5.16,6.83,11.09,6.83a20.46,20.46,0,0,0,11.54-3.8c3.67-2.52,5.41-5.16,5.41-10.9V49.86h-5.61Z"/><path class="cls-2" d="M137.87,41.09c-6-7.34-12.12-11.54-18-11.54-4.26,0-9.15,2.07-14.44,5l-.58-.32L98.8,24.53c4.58-2.84,9.8-4.9,14-4.9,6.06,0,12,3,20.37,9.92l.33-.25a78.36,78.36,0,0,0-2.26-9.09c-1.68-4.84-4.71-6.9-11.6-6.9A41.59,41.59,0,0,0,110,14.53l-.58-.32L106.15,3A49.68,49.68,0,0,1,116.53,1.9c8.76,0,12.57,3.67,17.21,11.92,3.67,6.52,5.74,13.74,7.86,26.63l-.45.64Z"/><path class="cls-2" d="M149.53,41l.91-1.23H222.7l4.39,8.84-.91,1.22H215l.26,57.18-.91.65-10.25-3,.2-36.16c-10.32,2.9-13,7-15.6,16h-.91l-8.57-5.87c1-4.57,2.58-8.44,4.77-11.09a10.47,10.47,0,0,0-4.58-1c-6.32,0-11.73,5.8-11.73,13.22,0,8.38,6.51,13.6,19,17.73l-3.16,10.12-.84.32c-13.15-6.83-25.4-21-25.4-34.49,0-10.7,7.16-16.76,15.67-16.82,5.93,0,9.54,2.38,15.27,6.76,3.81-2.57,8.9-4.64,16.12-5.8v-7.8H153.92Z"/><path class="cls-2" d="M220.64,41l.9-1.23h10.38c-.64-13.15-5-20.3-13.86-20.3-5.48,0-9,3.54-9,8.51a12.85,12.85,0,0,0,3.68,8.57l-1,1.48-9.74-4.25a17.85,17.85,0,0,1-4.25-11.35c0-7.54,6.06-12.7,14.83-12.7,7.6,0,15,4,21.66,13.09A51.66,51.66,0,0,1,242,39.8h8.32l4.38,8.84-.9,1.22H242.56l.26,57.18-.91.65-10.37-3,.25-54.8H225Z"/></svg>