<svg id="Layer_1" data-name="Layer 1" xmlns="http://www.w3.org/2000/svg" viewBox="0 0 346 133"><defs><style>.cls-1{fill:#f73737;}.cls-2{fill:#191919;}</style></defs><path class="cls-1" d="M52.9,41l.9-1.23h58.47l4.39,8.9-.91,1.16H102.6l.07,17.47-1,1.35H94.29C78.81,68.69,72.43,74,72.43,83.2c0,7.8,6.45,14,13,14a14,14,0,0,0,3.23-.33l.13-.25c-4-3.29-6.39-7.16-6.39-12.12,0-6.13,5.1-11.67,12.64-11.67,4.77,0,8.64,2.32,11.86,5.93A17.07,17.07,0,0,1,111.5,89.9c0,10.57-9.86,16.18-20.11,16.18a31.47,31.47,0,0,1-21.6-9.15c-5.87-5.8-9.22-12.31-9.22-19.79,0-8.45,5-18,22.95-18h6.12c1.75,0,2.33-.71,2.33-2.45V49.87H57.28ZM99.64,81.33c-3.42,0-6.9,3-6.9,7.8a7.89,7.89,0,0,0,2.64,6.38c5.16-2.26,8.06-6,8.06-10.06C103.44,83.65,102.54,81.33,99.64,81.33Z"/><path class="cls-2" d="M110.21,41l.9-1.23h11.15c-4.7-12.76-7.67-20.5-17-20.5a44.57,44.57,0,0,0-12.51,1.81h-.26L87.58,9a49.83,49.83,0,0,1,13.35-1.81c13,0,17.72,10.19,28.17,32.62h10.76l4.39,8.83-.9,1.23H132.13l.26,57.18-.91.64-10.38-3,.26-54.79h-6.77Z"/><path class="cls-2" d="M137.8,41l.9-1.23H211l4.38,8.83-.9,1.23H203.23l.26,57.18-.9.64-10.25-3,.19-36.17c-10.31,2.9-13,7-15.6,16.06H176l-8.57-5.87c1-4.58,2.57-8.45,4.77-11.09a10.47,10.47,0,0,0-4.58-1c-6.32,0-11.73,5.8-11.73,13.21,0,8.39,6.51,13.61,19,17.73l-3.15,10.12-.84.33c-13.15-6.84-25.4-21-25.4-34.49,0-10.7,7.15-16.76,15.66-16.83,5.93,0,9.54,2.39,15.28,6.77,3.8-2.58,8.9-4.64,16.12-5.8v-7.8H142.18Z"/><path class="cls-2" d="M208.91,41l.9-1.23h78.91l4.38,8.83-.9,1.23H259.13V65.34l.19.13a18.1,18.1,0,0,1,10.32-3.74,15.21,15.21,0,0,1,11.86,5.54,19.22,19.22,0,0,1,5.41,13.35c0,6.51-3.16,14-8.06,20.43H278l-9.6-7.41c5.54-6.9,9.67-14,9.67-19,0-2.38-1-3.48-3.23-3.48-4.64,0-10.31,4.19-15.53,10.25l.13,25.66-.91.64-10-3,.32-14.51-.13-.06a16.9,16.9,0,0,1-10.57,3.35c-6.83,0-11.22-3.35-15.79-8.06-3.36-3.86-5.81-8.51-5.81-13.15,0-9.41,7.55-15.47,17.6-15.47a48.19,48.19,0,0,1,14.64,2.51V49.87H213.29Zm40,26.23a31.82,31.82,0,0,0-6.26-.58c-10.76,0-15.73,5.48-15.73,11.8,0,3.48,2.58,5.16,6.9,5.16,5,0,10.12-2.45,15.09-7.61Z"/></svg>