<svg id="Layer_1" data-name="Layer 1" xmlns="http://www.w3.org/2000/svg" viewBox="0 0 346 133"><defs><style>.cls-1{fill:#191919;}.cls-2{fill:#f73737;}</style></defs><path class="cls-1" d="M143.09,41.05l.9-1.22h11.16c-4.71-12.76-7.68-20.5-17-20.5a45,45,0,0,0-12.51,1.8h-.26L120.46,9a49.83,49.83,0,0,1,13.35-1.8c13,0,17.73,10.19,28.17,32.62h10.77l4.38,8.83-.9,1.23H165l.26,57.18-.91.64-10.37-3,.25-54.79h-6.77Z"/><path class="cls-1" d="M170.68,41.05l.9-1.22H232.7l4.38,8.83-.9,1.23H225l.26,57.18-.9.64-10.25-3,.26-13.41a24,24,0,0,1-12.19,3.35c-6.9,0-13.15-3-18.5-9.67-4-5.09-5.35-9.41-5.35-13,0-8.51,6.38-15.6,19.79-15.6a66.45,66.45,0,0,1,16.25,2.39v-9H175.07ZM194,68.71a10.31,10.31,0,0,0-5.55,9.09c0,3.55,3.29,6.83,10,6.83a22,22,0,0,0,5.86-.77ZM209.56,81.6c3.73-2.45,4.9-4.83,4.9-7.86V67.36a43.79,43.79,0,0,0-9.67-1,31.46,31.46,0,0,0-5.16.38Z"/><path class="cls-1" d="M230.64,41.05l.9-1.22h10.38c-.65-13.15-5-20.31-13.86-20.31-5.48,0-9,3.55-9,8.51a12.86,12.86,0,0,0,3.67,8.58l-1,1.48-9.73-4.26a17.79,17.79,0,0,1-4.26-11.34c0-7.54,6.06-12.7,14.83-12.7,7.61,0,15,4,21.66,13.09a51.16,51.16,0,0,1,7.67,17h8.32l4.38,8.83-.9,1.23H252.55l.26,57.18-.9.64-10.38-3,.26-54.79H235Z"/><path class="cls-2" d="M114.65,41.08l.91-1.23h29.59l4.38,8.83-.9,1.23H137.41l.26,57.18-.9.64-10.25-3,.25-13.28a26.41,26.41,0,0,1-11.66,2.77c-5,0-9.8-2-15-7-4.64-4.58-7.35-9.41-7.35-14.7a11.38,11.38,0,0,1,1.61-5.67c-6.7-5.61-13.08-11.35-13.08-18.63,0-8.71,7-13.8,14.5-13.8,4.32,0,9.36,2,11.07,5.5,6.13,12.64-3.78,19.46-10.21,20.75l-2-1.59c7.63-3.26,10.56-11,5.39-13.67-4.13-2.11-8.93,2.58-8.82,8.35.09,4.19,3.48,6.38,9.09,6.38,2.78,0,7.35-1,13.86-2.06l5.87,9.48-.52.71c-14.63,1.86-16.76,7.73-16.76,10.63,0,2.52,2.45,4.71,6.9,4.71a22.39,22.39,0,0,0,9.54-2.39c4.26-2.06,7.42-4.7,7.42-10.12V49.91H119Z"/></svg>