<svg id="Layer_1" data-name="Layer 1" xmlns="http://www.w3.org/2000/svg" viewBox="0 0 346 133"><defs><style>.cls-1{fill:#f73737;}.cls-2{fill:#191919;}</style></defs><path class="cls-1" d="M97.15,41.05l.9-1.22h58.59L161,48.67l-.9,1.22h-13.3l.07,18.52-1,1.36h-7.42c-17,0-22.58,5.8-22.58,12.77,0,6.59,4.45,10.91,10.77,10.91a18.85,18.85,0,0,0,11-3.16,9.76,9.76,0,0,1-1.87-5.94c0-5.36,4.07-8.45,9.16-8.45,6.26,0,10.52,5.42,10.52,11,0,3.81-2.06,7.16-5.68,10.13,5.62,5.29,9,9.75,9,15.81,0,5.36-3.29,10.26-8.26,13.42h-.46l-10.84-8.64c5.55-3.49,8.91-7.23,9-11.23a9.19,9.19,0,0,0-3-6.71,27.51,27.51,0,0,1-12.65,3.1c-7.55,0-13.74-3.17-18.71-7.75-4.52-4.26-9-10.45-9-18,0-8.33,4.64-17.23,22.52-17.23h6.51c1.75,0,2.33-.71,2.33-2.45V49.89H101.54Z"/><path class="cls-2" d="M154.58,41.05l.9-1.22h28.78l4.39,8.84-.91,1.22H176.52l.25,57.24-.9.64-10.39-3,.26-54.85H159Z"/><path class="cls-2" d="M152.51,10.08l.52.19c3.16,9.42,7.81,13.94,13.81,13.94,5.68,0,10.26-4.45,13.1-14.2l.71-.12,6.64,6.25C185.23,27.82,178,34.6,169.35,34.6c-9.22,0-16.13-7-20.64-21ZM166.9.27l7.42,7.42-7.42,7.36-7.35-7.36Z"/><path class="cls-2" d="M182.2,41.05l.9-1.22h61.36l4.39,8.84-.9,1.22H236.72l.26,57.24-.9.64-10.26-3,.19-35h-5.23c-9.93,0-14.45,1.16-17.29,3.29A9.55,9.55,0,0,0,199.42,81c0,6.65,5.36,10.52,16.85,16.85L211.62,108l-1,.2C199.94,100.42,190,86.61,190,75c0-6.9,3.49-16,21.17-16,5.42,0,10.52.13,14.9.26V49.89H186.58Z"/></svg>