<svg id="Layer_1" data-name="Layer 1" xmlns="http://www.w3.org/2000/svg" viewBox="0 0 346 133"><defs><style>.cls-1{fill:#f73737;}.cls-2{fill:#191919;}</style></defs><path class="cls-1" d="M51.31,41.06l.9-1.23h58.66l4.39,8.83-.91,1.23h-11.6L102.88,65l-1.1,1.36H92.69a99.58,99.58,0,0,0-11,.51c-3,.39-5.15,1.29-6.51,2.84a5.28,5.28,0,0,0-1.41,3.16c0,1.42,1.35,2,3,2,5.22,0,11.41-2.06,16.89-2.06,7.22,0,9.54,3.09,12.24,8a19.25,19.25,0,0,1,2.58,9.42c0,7-6.32,15.34-17.85,15.34-12.06,0-24-8.51-34.24-25.4l.07-.77L61,76.32c7.48,12.44,15.34,18.05,24.37,18.05,9.35,0,14.57-6.32,14.57-9.8,0-.58-.52-1-2.64-1-3.23,0-12.64,2.32-17,2.32C77.16,85.86,74.13,83.8,70,79c-3.48-4.13-5.54-8-5.54-11.73,0-9.42,8.57-11.16,20-11.16h7.74V49.89H55.69Z"/><path class="cls-2" d="M107.59,10.05l.51.19c3.22,9.41,7.8,13.93,13.73,13.93,5.61,0,10.12-4.45,13-14.19l.7-.12,6.71,6.31c-2.06,11.67-9.28,18.44-17.92,18.44-9.22,0-16.12-7-20.63-20.95Zm1.22,31,.9-1.23h28.76l4.38,8.83-.9,1.23H130.73l.26,57.18-.91.65-10.37-3,.25-54.8h-6.77Z"/><path class="cls-2" d="M136.4,41.06l.9-1.23h78.91l4.39,8.83-.91,1.23H186.62V65.36l.2.13a18.1,18.1,0,0,1,10.31-3.74A15.2,15.2,0,0,1,209,67.3c3.74,4.06-4.45,3.86-6.7,3.86-4.64,0-10.32,4.19-15.54,10.25l.13,25.66-.9.65-10-3,.33-14.5-.13-.07a16.94,16.94,0,0,1-10.57,3.35c-6.84,0-11.22-3.35-15.8-8C146.46,81.61,144,77,144,72.32c0-9.41,7.54-15.47,17.6-15.47a47.83,47.83,0,0,1,14.63,2.52V49.89H140.79Zm40,26.24a31,31,0,0,0-6.25-.58c-10.77,0-15.73,5.48-15.73,11.79,0,3.48,2.58,5.16,6.9,5.16,5,0,10.12-2.45,15.08-7.61Z"/><path class="cls-2" d="M187.74,41.06l.91-1.23h56.6l4.38,8.9-.9,1.16H237.12l.07,18.57-1,1.35h-7.41c-15.47,0-22.56,4.45-22.56,13,0,5.35,4,9.67,11.34,9.67,6.77,0,14.12-3.16,21.21-10.7l7.09,9.74-.19,1c-6.25,7-14.31,10.38-22,10.38-8.31,0-14.89-3.42-20.37-8.71C198,88.57,195.09,83,195.09,77.29c0-8.45,4.58-17.41,22.57-17.41h6.51c1.74,0,2.32-.71,2.32-2.45V49.89H192.13Z"/><path class="cls-2" d="M243.18,41.06l.91-1.23h46.22l4.38,8.83-.9,1.23H279a41.39,41.39,0,0,1,.71,7.93c0,12.89-5.8,19.4-14.05,24,5.35,5.8,13.8,11,23.79,15.8l-5,11h-1C270.33,98.76,260,88.38,253.89,77c-1.55-2.77-2.45-5.29-2.45-6.64a6.89,6.89,0,0,1,1.09-3.61c1.1-1.74,3.1-2.71,6.06-2.71s6,.07,8,.26C268,62.46,269,59.56,269,54.79a20,20,0,0,0-.51-4.9H247.57Z"/></svg>