<svg id="Layer_1" data-name="Layer 1" xmlns="http://www.w3.org/2000/svg" viewBox="0 0 346 133"><defs><style>.cls-1{fill:#f73737;}.cls-2{fill:#191919;}</style></defs><path class="cls-1" d="M63,41.05l.9-1.23h78.91l4.38,8.84-.9,1.22H113.24V65.35l.19.13a18.13,18.13,0,0,1,10.32-3.74,15.2,15.2,0,0,1,11.86,5.55A19.18,19.18,0,0,1,141,80.63c0,6.51-3.15,14-8.05,20.44h-.91l-9.6-7.42c5.54-6.89,9.67-14.05,9.67-19,0-2.39-1-3.49-3.23-3.49-4.64,0-10.31,4.2-15.53,10.26l.13,25.65-.91.65-10-3,.32-14.5-.12-.07a17,17,0,0,1-10.58,3.35c-6.83,0-11.21-3.35-15.79-8-3.35-3.87-5.8-8.51-5.8-13.15,0-9.42,7.54-15.48,17.6-15.48a47.93,47.93,0,0,1,14.63,2.52V49.88H67.4Zm40,26.24a31,31,0,0,0-6.25-.58C86,66.71,81,72.19,81,78.5c0,3.49,2.57,5.16,6.89,5.16,5,0,10.13-2.45,15.09-7.61Z"/><path class="cls-2" d="M140.77,41.05l.9-1.23h65.82l4.38,8.84-.9,1.22H199.75l.26,57.18-.9.65-10.25-3,.32-22.95H168.42c0,8.32-.25,9.41-2.38,11a5.71,5.71,0,0,1-3.29,1.16c-2.13,0-5.29-1.74-9.41-5.61-3.61-3.48-5.74-7-5.74-10.25,0-2.9,1.55-5.67,10.25-7.54V49.88h-12.7Zm27.46,29.78h20.89V49.88H168.23Z"/><path class="cls-2" d="M205.43,41.05l.9-1.23H278.6L283,48.66l-.9,1.22H270.86l.26,57.18-.9.65-10.25-3,.19-36.16c-10.32,2.9-13,7-15.6,16h-.9l-8.58-5.87c1-4.58,2.58-8.44,4.77-11.09a10.43,10.43,0,0,0-4.58-1c-6.31,0-11.73,5.8-11.73,13.22,0,8.38,6.51,13.6,19,17.73l-3.16,10.12-.84.32c-13.15-6.83-25.4-21-25.4-34.49,0-10.7,7.16-16.76,15.67-16.83,5.93,0,9.54,2.39,15.28,6.77,3.8-2.58,8.89-4.64,16.11-5.8v-7.8H209.81Z"/></svg>