<svg id="Layer_1" data-name="Layer 1" xmlns="http://www.w3.org/2000/svg" viewBox="0 0 346 133"><defs><style>.cls-1{fill:#191919;}.cls-2{fill:#f73737;}</style></defs><path class="cls-1" d="M47.07,41.07,48,39.84H60.16c-3.16-3.8-4.9-7.22-4.9-11.15,0-8.77,7.29-18.24,22.31-18.24,13,0,27.2,6.89,43.19,22.69l-2.71,4.25h-.84c-10.5-9.8-21.33-16.11-32.87-16.11C73.05,21.28,66,28.05,66,35.72a9,9,0,0,0,.91,4.12h9.86l4.38,8.84-.9,1.22H69l.26,57.18-.9.65L58,104.7l.26-54.8H51.46Z"/><path class="cls-2" d="M72.52,41.07l.91-1.23h67.85l4.41,8.88-.9,1.24H133.5l.26,57.54-.91.64-10.31-3L122.93,79l-.33-.26L93.29,104.41,86.15,95v-.71L117,69l-.06-.39s-14.64-4.2-18.38-2.67c-3.27,1.33-6.52,8.86-6.52,8.86L81.87,68.47a22.81,22.81,0,0,1,19.84-11.31A118.84,118.84,0,0,1,122.8,59.3V50H76.93Z"/><path class="cls-1" d="M183.4,41.28l.9-1.23h33.33L222,48.88l-.91,1.23H209.9l.26,57.18-.91.65L199,105l.33-23.21a131.14,131.14,0,0,0-19.15,1.1c-1.81,6.7-4.45,10.31-7.8,10.31-2.65,0-5.74-1.87-9.22-5.54-3-3.1-4.77-6.13-4.77-8.9,0-4,4-6.38,11.93-7.61.38-2,.58-5.28.58-12.89,0-9.35-1.49-13.67-6.19-13.67a6.44,6.44,0,0,0-6.13,6.58c0,4.06,2.77,7,7.42,9.41l-1.42,2.77a70.83,70.83,0,0,1-10.38-3c-4.71-3.48-7.29-8.06-7.29-12.7,0-6,4.84-11.67,12.38-11.67,4.32,0,8.9,1.81,13.6,5.93,5.68,4.9,8.64,9.35,8.64,20.82q0,4.26-.19,8.51c6.12,0,11.67.07,17.79.46V50.11H187.79Z"/><path class="cls-1" d="M173.86,105.78h.77c9.29,12.12,17,17.92,24.18,17.92,5.35,0,10.57-3.48,10.57-8,0-1.1-.9-2.51-3.61-2.51s-5.93,1.48-9,3.73H196l-5.35-9c4.06-2.9,7.93-4.38,11.09-4.38,4.64,0,8.83,2.51,12.18,8.89a17.89,17.89,0,0,1,2.33,8.38c0,6.51-5.61,11.93-13.93,11.93-9.73,0-19.92-7.67-31.52-23.4Z"/><path class="cls-1" d="M215.57,41.28l.9-1.23h78.07l4.39,8.83L298,50.11H286.81l.25,57.18-.9.65-10.25-3,.26-34.62H262.82c3.42,5.87,4.71,9.61,4.71,14.18,0,6.71-5.41,13.8-15.15,13.8-11.86,0-22.69-10.44-32.3-34.3l5.93-3c6.84,17.28,14.12,25.14,22.44,25.14a10.23,10.23,0,0,0,10.31-9.67c0-3.67-3.61-5.8-11.34-6.83l-4.06-9.22.9-1.1h31.91V50.11H220Z"/></svg>