<svg id="Layer_1" data-name="Layer 1" xmlns="http://www.w3.org/2000/svg" viewBox="0 0 346 133"><defs><style>.cls-1{fill:#f73737;}.cls-2{fill:#191919;}</style></defs><path class="cls-1" d="M80,41.07l.9-1.22h72.27l4.38,8.83-.9,1.22H145.44l.26,57.19-.9.64-10.25-3,.19-36.17c-10.32,2.9-13,7-15.6,16.05h-.9l-8.58-5.86c1-4.58,2.58-8.45,4.77-11.09a10.43,10.43,0,0,0-4.58-1c-6.31,0-11.73,5.8-11.73,13.21,0,8.38,6.51,13.6,19,17.73L114,107.73l-.84.32c-13.15-6.83-25.4-21-25.4-34.49,0-10.7,7.16-16.76,15.67-16.82,5.93,0,9.54,2.38,15.28,6.77,3.8-2.58,8.89-4.64,16.11-5.81V49.9H84.39Z"/><path class="cls-2" d="M138.35,15.93l8.83,8.83-8.83,8.83-8.83-8.83Z"/><path class="cls-2" d="M151.11,41.07l.91-1.22h64.53l4.38,8.83L220,49.9H208.81l.26,57.19-.9.64-10.38-3,.26-54.8H179.22c.58,6.64.77,12.25.77,17,0,10.18-1.09,16-3.41,20-1.81,2.64-3.81,3.54-5.8,3.54s-4.84-1.8-8.13-5.35c-2.9-3.16-4.9-6.25-4.9-8.89a5.71,5.71,0,0,1,1.36-3.81c1.42-1.67,4.77-2.45,10-3.09a63.39,63.39,0,0,0,.46-8.7A84.83,84.83,0,0,0,169,49.9H155.5Z"/><path class="cls-2" d="M215.9,123.63l.07.71c-3,5-7,7-11.54,7-7.74,0-17.09-8.45-17.09-16.05,0-6.9,6.19-11.61,13.67-11.61,9.67,0,19,6.84,34.55,22.57l-3,4.38h-.77c-10.76-11.73-19.6-18.37-25.91-18.37-5.87,0-9.87,3.74-9.87,7.28a3.54,3.54,0,0,0,3.74,3.55c3,0,5.87-1.87,8.38-6.26Z"/><path class="cls-2" d="M214.48,41.07l.91-1.22h46.22L266,48.68l-.9,1.22H250.26a41.39,41.39,0,0,1,.71,7.93c0,12.9-5.8,19.41-14.05,24,5.35,5.8,13.79,11,23.79,15.79l-5,11h-1c-13.16-9.8-23.47-20.18-29.59-31.53-1.55-2.77-2.45-5.28-2.45-6.64a6.89,6.89,0,0,1,1.09-3.61c1.1-1.74,3.1-2.7,6.06-2.7s6,.06,8,.25c1.41-1.86,2.38-4.77,2.38-9.54a20.09,20.09,0,0,0-.51-4.9H218.87Z"/></svg>