<svg id="Layer_1" data-name="Layer 1" xmlns="http://www.w3.org/2000/svg" viewBox="0 0 346 133"><defs><style>.cls-1{fill:#f73737;}.cls-2{fill:#191919;}</style></defs><path class="cls-1" d="M113.92,41.05l.9-1.23h67.82L187,48.66l-.9,1.22H174.9l.26,57.18-.9.65-10.25-3,.25-12.57a21.46,21.46,0,0,1-10.18,2.77c-5.87,0-11.67-2.64-17.54-9.34-3-3.29-4.7-7-4.7-10.51a12.56,12.56,0,0,1,1.55-5.93c-7.42-5.55-10.51-9.54-10.51-15.67a13.63,13.63,0,0,1,.64-3.61H118.3Zm50.28,8.83H145.57c-9.54,0-12,5.09-12,8.7a5.56,5.56,0,0,0,4.51,5.48,52.91,52.91,0,0,1,11.61-4.9l7.47,9.55-.38.58c-10.19,2.77-14.51,6.57-14.51,11.21,0,3.35,2.58,4.32,6.45,4.39a20.31,20.31,0,0,0,8.19-2.13c4.77-2.26,7.28-5.61,7.28-10.64Z"/><path class="cls-2" d="M180.57,41.05l.91-1.23H227.7l4.38,8.84-.9,1.22H216.35a41.39,41.39,0,0,1,.71,7.93c0,12.89-5.8,19.4-14.05,24,5.35,5.8,13.8,11,23.79,15.8l-5,11h-1C207.72,98.75,197.4,88.37,191.28,77c-1.55-2.77-2.45-5.28-2.45-6.64a6.89,6.89,0,0,1,1.09-3.61C191,65,193,64.06,196,64.06s6,.07,8,.26c1.41-1.87,2.38-4.77,2.38-9.54a20,20,0,0,0-.51-4.9H185Z"/></svg>