<svg id="Layer_1" data-name="Layer 1" xmlns="http://www.w3.org/2000/svg" viewBox="0 0 346 133"><defs><style>.cls-1{fill:#191919;}.cls-2{fill:#f73737;}</style></defs><path class="cls-1" d="M81.75,41.05l.9-1.22h64.53l4.38,8.83-.9,1.23H139.45l.25,57.18-.9.64-10.38-3,.26-54.79H109.85c.59,6.64.78,12.24.78,17,0,10.19-1.1,16-3.42,20-1.8,2.64-3.8,3.55-5.8,3.55s-4.84-1.81-8.12-5.35c-2.9-3.16-4.9-6.26-4.9-8.9a5.72,5.72,0,0,1,1.35-3.8c1.42-1.68,4.77-2.45,10.06-3.1a65,65,0,0,0,.45-8.7,82.75,82.75,0,0,0-.65-10.7H86.13Z"/><path class="cls-1" d="M145.12,41.05l.9-1.22h28.75l4.39,8.83-.91,1.23H167l.25,57.18-.9.64-10.38-3,.26-54.79H149.5Z"/><path class="cls-2" d="M172.71,41.05l.9-1.22h58.67l4.38,8.83-.9,1.23H224.15L224.28,65l-1.09,1.36H214.1a97,97,0,0,0-11,.51c-3,.39-5.16,1.29-6.51,2.84a5.22,5.22,0,0,0-1.42,3.16c0,1.41,1.35,2,3,2,5.22,0,11.41-2.06,16.89-2.06,7.22,0,9.54,3.1,12.25,8.06A19.21,19.21,0,0,1,230,90.24c0,7-6.32,15.35-17.86,15.35-12.06,0-24-8.51-34.23-25.4l.06-.78,4.51-3.09c7.48,12.44,15.35,18.05,24.37,18.05,9.35,0,14.57-6.32,14.57-9.8,0-.58-.51-1-2.64-1-3.22,0-12.64,2.32-17,2.32-3.16,0-6.19-2.06-10.31-6.83-3.49-4.13-5.55-8-5.55-11.74,0-9.41,8.58-11.15,20-11.15h7.73V49.89H177.09Z"/><path class="cls-2" d="M216.48,108.87l8.71,8.71-8.71,8.7-8.7-8.7Z"/><path class="cls-1" d="M230.21,41.05l.91-1.22H241.5c-.65-13.15-5-20.31-13.86-20.31-5.48,0-9,3.55-9,8.51a12.88,12.88,0,0,0,3.68,8.58l-1,1.48-9.73-4.26a17.79,17.79,0,0,1-4.26-11.34c0-7.54,6.06-12.7,14.83-12.7,7.61,0,15,4,21.66,13.08a51.3,51.3,0,0,1,7.67,17h8.32l4.38,8.83-.9,1.23H252.13l.26,57.18-.9.64-10.38-3,.26-54.79H234.6Z"/></svg>