<svg id="Layer_1" data-name="Layer 1" xmlns="http://www.w3.org/2000/svg" viewBox="0 0 346 133"><defs><style>.cls-1{fill:#191919;}.cls-2{fill:#f73737;}</style></defs><path class="cls-1" d="M156.44,41.16l.93-1.25h67.5L229.36,49l-.92,1.26H216.93l.27,58.64-.93.66-10.51-3L206.09,83H184.8c0,8.52-.26,9.65-2.44,11.24A5.86,5.86,0,0,1,179,95.38c-2.19,0-5.43-1.79-9.66-5.76-3.7-3.57-5.88-7.14-5.88-10.51,0-3,1.59-5.82,10.51-7.73V50.22h-13ZM184.6,71.71H206V50.22H184.6Z"/><path class="cls-1" d="M222.75,41.16l.93-1.25h29.48l4.5,9.05-.93,1.26h-11.5l.26,58.64-.92.66-10.65-3.1.27-56.2h-6.94Z"/><path class="cls-2" d="M167.11,39.82H126a1.11,1.11,0,0,0-1,1.58l3.76,7.88a1.11,1.11,0,0,0,1,.63h11.5V63a1.08,1.08,0,0,1-.37.83c-1.23,1-3.33,3.57-7.6,4.39a56.13,56.13,0,0,1-13.67.29c7.75-7.28,2.29-20.6-2.46-24.88-2.38-2.68-7.17-5.49-14.89-5.47-8,0-12.09,5.67-12,12.48.08,5.31,4.34,11.55,10.89,16.4-8.21,4.25-12,10.9-12.62,15.29C87.45,90,90.82,107.62,114,107.62a26.42,26.42,0,0,0,6.51-.77l.44.68a1.74,1.74,0,0,1,.1.19l6.5,16.34a1.13,1.13,0,0,0,.64.63l10,3.71a1.09,1.09,0,0,0,1.38-1.48l-11.09-24.44A12.07,12.07,0,0,0,132,95.42c0-1.73-.57-13.15-11-13.15-6.1-.1-8.35,5.66-8.35,7.29a18.87,18.87,0,0,0,2,6.82,16.14,16.14,0,0,1-5.68,1c-6.73,0-8.74-4.22-8.55-9.22.16-4.26,4.19-9.36,12.3-14.89,8.78,3.33,17.39,4.27,22.08,4a23.81,23.81,0,0,0,6-1,.34.34,0,0,1,.45.33v29a.12.12,0,0,0,.08.11l8.55,2.93a1.1,1.1,0,0,0,1.45-1V50.15l15.81,0a1.1,1.1,0,0,0,1.1-1.1v-8.1A1.11,1.11,0,0,0,167.11,39.82Zm-57.66,8.55c5.28,0,6.33,3.44,6.33,5.9,0,2.12-2.15,6.27-9,10-3.93-2.56-6.35-5.85-6.28-9C100.61,50.77,104.17,48.37,109.45,48.37Z"/></svg>