<svg id="Layer_1" data-name="Layer 1" xmlns="http://www.w3.org/2000/svg" viewBox="0 0 346 133"><defs><style>.cls-1{fill:#f73737;}.cls-2{fill:#191919;}</style></defs><path class="cls-1" d="M95.77,41.05l.9-1.23h78.07l4.38,8.84-.9,1.22H167l.26,57.18-.9.65-10.25-3,.26-34.62H143c3.42,5.87,4.71,9.61,4.71,14.19,0,6.7-5.42,13.79-15.15,13.79-11.86,0-22.69-10.44-32.3-34.29l5.93-3C113.05,78.12,120.33,86,128.65,86A10.23,10.23,0,0,0,139,76.31c0-3.67-3.61-5.8-11.34-6.83l-4.07-9.22.91-1.1h31.91V49.88H100.15Z"/><path class="cls-2" d="M172.68,41.05l.9-1.23h72.27l4.38,8.84-.9,1.22H238.11l.26,57.18-.9.65-10.25-3,.19-36.16c-10.31,2.9-13,7-15.6,16h-.9l-8.58-5.87c1-4.58,2.58-8.44,4.77-11.09a10.39,10.39,0,0,0-4.57-1c-6.32,0-11.74,5.8-11.74,13.22,0,8.38,6.51,13.6,19,17.73l-3.16,10.12-.84.32c-13.15-6.83-25.4-21-25.4-34.49,0-10.7,7.16-16.76,15.67-16.83,5.93,0,9.54,2.39,15.28,6.77,3.8-2.58,8.89-4.64,16.11-5.8v-7.8H177.06Z"/></svg>