<svg id="Layer_1" data-name="Layer 1" xmlns="http://www.w3.org/2000/svg" viewBox="0 0 346 133"><defs><style>.cls-1{fill:#191919;}.cls-2{fill:#f73737;}</style></defs><path class="cls-1" d="M118.69,41.08l.92-1.26h10.67C129.62,26.3,125.18,19,116,19c-5.63,0-9.21,3.65-9.21,8.75a13.17,13.17,0,0,0,3.78,8.8l-1,1.53-10-4.37A18.3,18.3,0,0,1,95.24,22c0-7.75,6.23-13,15.23-13,7.82,0,15.44,4.11,22.26,13.45a52.89,52.89,0,0,1,7.88,17.42h8.54l4.51,9.07-.93,1.26H141.21l.26,58.75-.93.66-10.66-3.11.27-56.3h-7Z"/><path class="cls-1" d="M217.18,15.24l9.07,9.08-9.07,9.07-9.08-9.07Z"/><path class="cls-1" d="M230.29,41.08l.93-1.26h60.27l4.5,9.07-.92,1.26H283.15l.13,15.5L282.15,67h-9.34a99.86,99.86,0,0,0-11.26.53c-3,.4-5.3,1.32-6.69,2.91a5.46,5.46,0,0,0-1.45,3.25c0,1.46,1.39,2,3.11,2,5.36,0,11.72-2.12,17.35-2.12,7.42,0,9.8,3.18,12.59,8.28a19.83,19.83,0,0,1,2.65,9.67c0,7.22-6.49,15.76-18.35,15.76-12.39,0-24.71-8.74-35.17-26.09l.07-.8,4.63-3.18c7.69,12.79,15.77,18.55,25,18.55,9.6,0,15-6.49,15-10.07,0-.59-.53-1.06-2.72-1.06-3.31,0-13,2.39-17.48,2.39-3.25,0-6.36-2.12-10.6-7-3.58-4.24-5.7-8.22-5.7-12.06,0-9.67,8.81-11.46,20.53-11.46h7.95V50.15H234.79Z"/><path class="cls-2" d="M88.68,40.75l4.16,8.69a1.16,1.16,0,0,0,1,.67h6.17a1.16,1.16,0,0,1,1.16,1.16l.17,16.05a1.12,1.12,0,0,1-.46.94c-.78.57-2.87,1.46-8.28,1.55-8.08.15-27.27-5.63-27.32-14.9C65.33,47.41,71,46,74.18,46s6.69,3.84,6.69,7.55-2,8.13-10.25,13.32c-5.93,3.75-14.87,7.2-19.39,8.83a1.86,1.86,0,0,0-.65,3.09l5.92,5.7a2.08,2.08,0,0,0,2.42.36c4.44-2.29,18.67-9.82,22.53-14.08,5.48-6.06,6.15-12.8,5.24-20A18.32,18.32,0,0,0,68.51,36.49c-13.47-.05-14,10.1-14,13.28,0,6.3,5.1,16.26,20.25,23.18a72.28,72.28,0,0,0,11.83,3.9A1.16,1.16,0,0,1,87,78.94L67.55,92.43a1.92,1.92,0,0,0,0,3.13l7.31,5.31a1.16,1.16,0,0,0,1.39,0L98.57,83.72a1.17,1.17,0,0,1,1.88.93v20.53a1.16,1.16,0,0,0,.82,1.12l9.36,2.85a1.16,1.16,0,0,0,1.5-1.12V51.27a1.17,1.17,0,0,1,1.17-1.16l12.28,0a1.22,1.22,0,0,0,1.06-1.84l-4.39-7.92a1.18,1.18,0,0,0-1-.61L89.35,39.7Z"/><path class="cls-1" d="M236.91,48.89l-4.5-9.07H148L147,41.08l4.51,9.07H168.1a47.13,47.13,0,0,1,.33,5.3c0,4.9-.8,7.88-2,10.13-2.25-.13-3.64-.2-5.23-.2-2.65,0-4.31.47-5.37,1.53a6.47,6.47,0,0,0-1.78,4.37,10.09,10.09,0,0,0,1.05,3.91c13.51,30.33,37.94,36.06,58.2,29l.18-9.86c-14,9.21-39.21,2.24-43.94-12,5.9-5.16,9.67-12.38,9.67-22.52a87.13,87.13,0,0,0-.53-9.6h34.84v8.48a40.08,40.08,0,0,0-13.44-2.45c-10.4,0-16.3,6.09-16.3,14.83,0,5.7,3,10.93,8.15,15.77,5.3,4.43,10.33,6.55,15.1,6.55a13.39,13.39,0,0,0,6.49-1.52l-.26,14.7,10.53,3,.93-.66-.27-58.75H236ZM213.67,73.53A8,8,0,0,1,210,80.82a13.63,13.63,0,0,1-8.08,2.65c-4.9,0-7.55-2.52-7.55-6.56,0-6.49,7.08-10.86,14.37-10.86a28,28,0,0,1,5,.33Z"/></svg>