<svg id="Layer_1" data-name="Layer 1" xmlns="http://www.w3.org/2000/svg" viewBox="0 0 346 133"><defs><style>.cls-1{fill:#f73737;}.cls-2{fill:#191919;}</style></defs><path class="cls-1" d="M97.06,41.06l.9-1.23h61.5l4.39,8.84-.91,1.22H147l.12,14.76c7.16,7.09,10,11.87,10,18.63,0,10.83-10.32,20.7-24.5,20.7-14.44,0-28-13.86-28-26,0-10.76,7.8-17.85,24-17.85h5.22c1.81,0,2.58-.39,2.58-2.45l-.06-7.74H101.44Zm46.67,28.82h-5.22c-9.8,0-15.21,1.41-19,4.7a11.53,11.53,0,0,0-3.61,8.51c0,7.41,5.22,10.9,11.67,10.9C138.12,94,147,86.12,147,77.55A10.41,10.41,0,0,0,143.73,69.88Z"/><path class="cls-2" d="M144.63,15.92l8.84,8.83-8.84,8.83-8.83-8.83Z"/><path class="cls-2" d="M157.4,41.06l.9-1.23H217l4.38,8.84-.9,1.22H208.84L209,65l-1.09,1.35h-9.09a96.85,96.85,0,0,0-11,.52c-3,.38-5.16,1.28-6.51,2.83a5.24,5.24,0,0,0-1.42,3.16c0,1.42,1.35,2,3,2,5.22,0,11.41-2.06,16.89-2.06,7.22,0,9.54,3.09,12.25,8a19.25,19.25,0,0,1,2.58,9.42c0,7-6.32,15.34-17.86,15.34-12.06,0-24-8.51-34.23-25.4l.06-.77,4.51-3.1c7.48,12.44,15.35,18.05,24.37,18.05,9.35,0,14.57-6.32,14.57-9.8,0-.58-.51-1-2.64-1-3.23,0-12.64,2.32-17,2.32-3.16,0-6.19-2.06-10.32-6.83-3.48-4.13-5.54-8-5.54-11.73,0-9.42,8.57-11.16,20-11.16h7.74V49.89H161.78Z"/><path class="cls-2" d="M214.9,41.06l.91-1.23h10.37c-.64-13.15-5-20.3-13.86-20.3-5.48,0-9,3.54-9,8.51A12.85,12.85,0,0,0,207,36.61l-1,1.48-9.73-4.25a17.81,17.81,0,0,1-4.26-11.35c0-7.54,6.06-12.7,14.83-12.7,7.61,0,15,4,21.66,13.09a51.25,51.25,0,0,1,7.67,17h8.32l4.38,8.84-.9,1.22H236.82l.26,57.18-.9.65-10.38-3,.26-54.8h-6.77Z"/></svg>