<svg id="Layer_1" data-name="Layer 1" xmlns="http://www.w3.org/2000/svg" viewBox="0 0 346 133"><defs><style>.cls-1{fill:#f73737;}.cls-2{fill:#191919;}</style></defs><path class="cls-1" d="M93.9,41.05l.9-1.22h67.82L167,48.66l-.9,1.22H154.88l.26,57.18-.9.65-10.25-3,.26-12.57a21.49,21.49,0,0,1-10.19,2.77c-5.86,0-11.67-2.64-17.53-9.34-3-3.29-4.71-7-4.71-10.51a12.68,12.68,0,0,1,1.55-5.93c-7.42-5.55-10.51-9.54-10.51-15.67a13.7,13.7,0,0,1,.64-3.61H98.28Zm50.28,8.83H125.55c-9.54,0-12,5.1-12,8.71a5.57,5.57,0,0,0,4.51,5.48,52.16,52.16,0,0,1,11.61-4.9l7.48,9.54-.39.58c-10.19,2.77-14.51,6.57-14.51,11.21,0,3.36,2.58,4.32,6.45,4.39a20.28,20.28,0,0,0,8.19-2.13c4.77-2.26,7.28-5.61,7.28-10.64Z"/><path class="cls-2" d="M160.56,41.05l.9-1.22h58.67l4.38,8.83-.9,1.22H212L212.13,65,211,66.32H202a96.85,96.85,0,0,0-11,.52c-3,.38-5.16,1.29-6.51,2.83a5.27,5.27,0,0,0-1.42,3.16c0,1.42,1.35,2,3,2,5.22,0,11.41-2.06,16.89-2.06,7.22,0,9.54,3.09,12.25,8.06a19.3,19.3,0,0,1,2.57,9.41c0,7-6.31,15.34-17.85,15.34-12.06,0-24-8.51-34.23-25.4l.06-.77,4.51-3.1c7.48,12.45,15.35,18,24.37,18,9.35,0,14.57-6.31,14.57-9.79,0-.58-.52-1-2.64-1-3.23,0-12.64,2.32-17,2.32-3.16,0-6.19-2.06-10.32-6.83-3.48-4.12-5.54-8-5.54-11.73,0-9.41,8.57-11.15,20-11.15h7.74V49.88H164.94Z"/><path class="cls-2" d="M204.33,108.87l8.7,8.7-8.7,8.71-8.7-8.71Z"/><path class="cls-2" d="M218.06,41.05l.9-1.22h10.38c-.64-13.16-5-20.31-13.86-20.31-5.48,0-9,3.54-9,8.51a12.85,12.85,0,0,0,3.68,8.57l-1,1.49-9.73-4.26a17.81,17.81,0,0,1-4.26-11.35c0-7.54,6.06-12.7,14.83-12.7,7.61,0,15,4,21.66,13.09a51.62,51.62,0,0,1,7.67,17h8.32l4.38,8.83-.9,1.22H240l.26,57.18-.9.65-10.38-3,.25-54.8h-6.76Z"/></svg>