<svg id="Layer_1" data-name="Layer 1" xmlns="http://www.w3.org/2000/svg" viewBox="0 0 346 133"><defs><style>.cls-1{fill:#f73737;}.cls-2{fill:#191919;}</style></defs><path class="cls-1" d="M35.72,41.05l.9-1.23h61.5l4.39,8.83-.91,1.23h-16l.12,14.76c7.16,7.09,10,11.86,10,18.63,0,10.83-10.32,20.7-24.5,20.7-14.44,0-28-13.86-28-26,0-10.76,7.8-17.85,24-17.85h5.22c1.81,0,2.58-.39,2.58-2.45L75,49.88H40.1ZM82.39,69.86H77.17c-9.8,0-15.21,1.42-19,4.71a11.51,11.51,0,0,0-3.61,8.51C54.54,90.49,59.76,94,66.21,94c10.57,0,19.41-7.86,19.41-16.43A10.45,10.45,0,0,0,82.39,69.86Z"/><path class="cls-2" d="M82.26,41.11c-5-13.54-7.8-21.79-17.47-21.79a44.92,44.92,0,0,0-12.5,1.81H52L47.13,9A49.81,49.81,0,0,1,60.47,7.2c13.15,0,17.8,10.38,28.5,33.27l-.45.64Z"/><path class="cls-2" d="M96.06,41.05l.9-1.23h78.91l4.38,8.83-.9,1.23H146.28V65.35l.19.13a18.13,18.13,0,0,1,10.32-3.74,15.2,15.2,0,0,1,11.86,5.55,19.18,19.18,0,0,1,5.41,13.34c0,6.51-3.16,14-8.05,20.44h-.91l-9.6-7.42c5.54-6.9,9.67-14.05,9.67-19,0-2.38-1-3.48-3.23-3.48-4.64,0-10.31,4.19-15.53,10.25l.13,25.66-.91.65-10-3,.32-14.5-.13-.07a16.9,16.9,0,0,1-10.57,3.35c-6.83,0-11.21-3.35-15.79-8.06-3.35-3.86-5.8-8.5-5.8-13.15,0-9.41,7.54-15.47,17.6-15.47a47.93,47.93,0,0,1,14.63,2.52V49.88H100.44Zm40,26.24a31,31,0,0,0-6.25-.58c-10.77,0-15.73,5.47-15.73,11.79,0,3.48,2.57,5.16,6.89,5.16,5,0,10.12-2.45,15.09-7.61Z"/><path class="cls-2" d="M140,41.11c-5-13.54-7.8-21.79-17.47-21.79A45,45,0,0,0,110,21.13h-.25L104.88,9A49.75,49.75,0,0,1,118.22,7.2c13.15,0,17.79,10.38,28.49,33.27l-.45.64Z"/><path class="cls-2" d="M173.81,41.05l.9-1.23h58.53l4.39,8.83-.9,1.23H223.45l.06,18.5-1,1.36h-7.41c-17,0-22.56,5.8-22.56,12.76,0,6.58,4.44,10.89,10.76,10.89a18.89,18.89,0,0,0,11-3.15,9.76,9.76,0,0,1-1.87-5.94c0-5.35,4.06-8.44,9.16-8.44,6.25,0,10.5,5.41,10.5,11,0,3.81-2.06,7.16-5.67,10.12,5.61,5.29,9,9.74,9,15.8,0,5.35-3.29,10.25-8.26,13.41h-.45l-10.83-8.64c5.55-3.48,8.9-7.22,9-11.22a9.18,9.18,0,0,0-3-6.7,27.44,27.44,0,0,1-12.63,3.09c-7.54,0-13.73-3.16-18.7-7.73-4.51-4.26-9-10.45-9-18,0-8.32,4.64-17.21,22.5-17.21h6.51c1.74,0,2.32-.71,2.32-2.45V49.88H178.19Z"/><path class="cls-2" d="M231.18,41.05l.9-1.23h28.76l4.38,8.83-.9,1.23H253.1l.26,57.18-.9.65-10.38-3,.25-54.8h-6.77Z"/><path class="cls-2" d="M258.77,41.05l.91-1.23H305.9l4.38,8.83-.9,1.23H294.55a41.39,41.39,0,0,1,.71,7.93c0,12.89-5.8,19.4-14.05,24,5.35,5.8,13.79,11,23.79,15.79l-5,11h-1C285.91,98.75,275.6,88.37,269.47,77c-1.54-2.77-2.45-5.29-2.45-6.64a6.91,6.91,0,0,1,1.1-3.61c1.1-1.74,3.09-2.71,6.06-2.71s6,.07,8,.26c1.42-1.87,2.39-4.77,2.39-9.54a19.55,19.55,0,0,0-.52-4.9H263.16Z"/></svg>