<svg id="Layer_1" data-name="Layer 1" xmlns="http://www.w3.org/2000/svg" viewBox="0 0 346 133"><defs><style>.cls-1{fill:#f73737;}.cls-2{fill:#191919;}</style></defs><path class="cls-1" d="M92.06,41.05l.9-1.22h81.17l4.38,8.83-.9,1.22H143.89V64.71l.2.13a20.07,20.07,0,0,1,11-3.8c4.83,0,8.63,2,11.86,5.61A19.18,19.18,0,0,1,172.32,80c0,6.9-3.09,14.63-8.06,21.08h-.9l-9.6-7.41c5.61-6.9,9.67-14.38,9.67-19.6,0-2.39-1-3.55-3.23-3.55-4.64,0-11,4.32-16.24,10.38l.13,26.18-.91.64-10.25-3,.26-17.28A14.6,14.6,0,0,1,125,90.05c-4,0-7.73-1.55-11.92-4.52-7.74-5.54-10.83-10.38-10.83-24.17,0-4.13.06-8,.19-11.48h-6Zm21.47,20.89c0,11.6.39,18.37,7,18.37,4.9,0,8.57-3.16,12.76-8V49.88h-19.6C113.59,53.24,113.53,57.36,113.53,61.94Z"/><path class="cls-2" d="M172.07,41.05l.9-1.22H193a19.62,19.62,0,0,1,6.44-1.16,25.66,25.66,0,0,1,8.06,1.16h42l4.39,8.83-.9,1.22H241.82l.26,57.19-.91.64-10.38-3,.26-54.8h-14a18.87,18.87,0,0,1,4.71,12.7c0,7.74-6.38,15.09-16.25,21.21,3.55,4.84,9.93,9.42,17.86,13.61l-4.32,11.21h-.71c-6.38-3.41-13.28-10-21.21-21.66a31.77,31.77,0,0,1-8.38,1.81c-1.74,0-4.32-1.68-7.48-6C179.8,80.7,179,79,179,77.8c0-2.77,2.9-5.48,8.51-5.48a26.78,26.78,0,0,1,10.18,2.38A12.87,12.87,0,0,0,202,72.25c-9.6-6.38-16.5-12.76-16.5-19.66a15.18,15.18,0,0,1,.26-2.71h-9.35Zm33.39,7.48c-5.74,0-9.35,3.74-9.35,8.57s4.77,8.32,11.28,10c3.23-3.29,5.42-6.84,5.42-11.22C212.81,51.24,209.84,48.53,205.46,48.53Z"/><path class="cls-2" d="M230.11,39.83l.07-.26c-6.06-5.35-10.83-10.9-10.83-17.47,0-7.09,5.41-12.64,14.12-12.64a18.29,18.29,0,0,1,8.89,2.45,61.56,61.56,0,0,1,4.9,8.9l-.77,1A16.19,16.19,0,0,0,239,19.71c-5.94,0-9.22,3.55-9.22,8.58,0,4.25,3.16,9.22,7,11.54Z"/><path class="cls-2" d="M120.36,94.1l8.7,8.7-8.7,8.71-8.7-8.71Z"/></svg>