<svg id="Layer_1" data-name="Layer 1" xmlns="http://www.w3.org/2000/svg" viewBox="0 0 346 133"><defs><style>.cls-1{fill:#f73737;}.cls-2{fill:#191919;}</style></defs><path class="cls-1" d="M85.1,41.05l.9-1.23h33.33l4.39,8.83-.91,1.23H111.6l.25,57.18-.9.65-10.25-3L101,81.53a131.08,131.08,0,0,0-19.14,1.1c-1.81,6.7-4.45,10.31-7.8,10.31-2.65,0-5.74-1.87-9.22-5.54-3-3.1-4.77-6.13-4.77-8.9,0-4,4-6.38,11.92-7.6.39-2,.58-5.29.58-12.9,0-9.35-1.48-13.66-6.19-13.66a6.43,6.43,0,0,0-6.12,6.57c0,4.06,2.77,7,7.41,9.41L66.28,63.1a72,72,0,0,1-10.38-3c-4.71-3.48-7.29-8.06-7.29-12.7,0-6,4.84-11.67,12.38-11.67,4.32,0,8.9,1.81,13.6,5.93,5.67,4.9,8.64,9.35,8.64,20.82q0,4.26-.19,8.51c6.12,0,11.67.07,17.79.46V49.88H89.48Z"/><path class="cls-2" d="M103.47,41.11c-5-13.54-7.8-21.79-17.47-21.79a44.92,44.92,0,0,0-12.5,1.81h-.26L68.34,9A49.81,49.81,0,0,1,81.68,7.2c13.15,0,17.8,10.38,28.5,33.27l-.45.64Z"/><path class="cls-2" d="M202.36,41.05l.91-1.23h62.14l4.39,8.83-.91,1.23H257.68l.25,57.18-.9.65-10.25-3,.26-15a18.9,18.9,0,0,1-10.38,2.71c-12.76,0-22.24-9.22-28.62-27.07l.71-1.23c9.22-2.06,15.47-4.64,15.47-9.86a7,7,0,0,0-1.61-4.45H206.75Zm44.81,8.83H230.54c2,3.74,3.67,7.41,3.67,11.47,0,6.26-5.41,10-14.5,12.12,1.35,5.29,5.6,8.19,12.63,8.19a18.34,18.34,0,0,0,11.48-3.93c2.12-1.74,3.35-4.06,3.35-7.67Z"/><path class="cls-2" d="M263.35,41.05l.9-1.23H293l4.39,8.83-.9,1.23H285.27l.26,57.18-.91.65-10.38-3,.26-54.8h-6.77Z"/><path class="cls-2" d="M117.35,41.05l.9-1.23h12.18c-3.16-3.8-4.9-7.22-4.9-11.15,0-8.77,7.29-18.24,22.31-18.24,13,0,27.2,6.89,43.19,22.69l-2.71,4.25h-.83c-10.51-9.8-21.34-16.11-32.88-16.11-11.28,0-18.38,6.77-18.38,14.44a9,9,0,0,0,.91,4.12H147l4.38,8.83-.9,1.23H139.26l.26,57.18-.9.65-10.38-3,.26-54.8h-6.77Z"/><path class="cls-2" d="M144.45,41.05l.9-1.23H204l4.39,8.83-.9,1.23H195.89L196,65l-1.1,1.36h-9.09a99.58,99.58,0,0,0-11,.51c-3,.39-5.15,1.29-6.51,2.84A5.28,5.28,0,0,0,167,72.83c0,1.42,1.35,2,3,2,5.22,0,11.41-2.06,16.89-2.06,7.22,0,9.54,3.09,12.24,8a19.25,19.25,0,0,1,2.58,9.42c0,7-6.31,15.34-17.85,15.34-12.06,0-24.05-8.51-34.24-25.4l.07-.77,4.51-3.1c7.48,12.44,15.34,18,24.37,18,9.35,0,14.57-6.32,14.57-9.8,0-.58-.52-1-2.64-1-3.23,0-12.64,2.32-17,2.32-3.16,0-6.19-2.06-10.32-6.83-3.48-4.13-5.54-8-5.54-11.73,0-9.42,8.57-11.16,20-11.16h7.74V49.88H148.83Z"/><path class="cls-2" d="M188.22,108.87l8.7,8.7-8.7,8.7-8.7-8.7Z"/></svg>