<svg id="Layer_1" data-name="Layer 1" xmlns="http://www.w3.org/2000/svg" viewBox="0 0 346 133"><defs><style>.cls-1{fill:#f73737;}.cls-2{fill:#191919;}</style></defs><path class="cls-1" d="M94.58,41.09l.9-1.22h57.37l4.39,8.83-.9,1.22H144.86l.06,16.38-1.16,1.29c-3.93-.2-7.28-.2-11.21-.2a66.48,66.48,0,0,0-9.74.58c-5.93.91-9.8,4.06-9.8,7.8a7.4,7.4,0,0,0,1.68,5.16,28.44,28.44,0,0,1,18.37-6.77c7.35,0,12.25,3.1,15.35,8.9a21.83,21.83,0,0,1,2.83,9.86c0,6.06-3.93,10.57-11.86,14.18l-8.64-9.21c8.51-4.13,13.15-7.74,13.15-10.77,0-1-1.35-2.26-5.54-2.26-7.87,0-19.86,5.29-19.86,14.7,0,9.74,13,14.7,34.36,16.57L148,126.57l-.52.07c-22.24-5.48-39.39-16.63-39.39-32.17A16.4,16.4,0,0,1,110.56,86c-5-5.29-8-10.12-8-15.54,0-5.86,4.51-11.73,13.34-12.63a170.54,170.54,0,0,1,18.31-.58V49.92H99Z"/><path class="cls-2" d="M150.79,41.09l.9-1.22h28.76l4.38,8.83-.9,1.22H172.71L173,107.1l-.9.65-10.38-3,.25-54.8h-6.77Z"/><path class="cls-2" d="M218.8,41.09l.91-1.22H247l4.38,8.83-.9,1.22H239.3l.26,57.18-.9.65-10.25-3,.26-15.28a21.26,21.26,0,0,1-12.12,3.61c-11,0-21.47-8.31-27.92-24.62l.65-1.55c12.83-4.77,21.47-8.06,21.47-16.18,0-3-2.39-5.67-6.26-5.67-5.35,0-7.93,3.8-7.93,7.28,0,2.39,1.68,4.64,4.9,6.77l-1,2.39-7.61-2.71c-4.13-3.68-6.13-7.54-6.13-11.61,0-5.67,4.52-11.53,13.28-11.53,5.1,0,9.67,3.09,13.61,8.25s5.41,9.47,5.41,13.28c0,9.92-7.35,13.92-18.31,18.18,1.61,4.64,5.16,6.83,11.09,6.83a20.43,20.43,0,0,0,11.54-3.8c3.68-2.52,5.42-5.16,5.42-10.9V49.92h-5.61Z"/></svg>