<svg id="Layer_1" data-name="Layer 1" xmlns="http://www.w3.org/2000/svg" viewBox="0 0 346 133"><defs><style>.cls-1{fill:#f73737;}.cls-2{fill:#191919;}</style></defs><path class="cls-1" d="M97.41,41.09l.91-1.22h60.92l4.38,8.83-.9,1.22H151.5l.26,57.18-.9.65-10.25-3,.32-30.55c-3-.26-5.29-.33-8.32-.33a37.19,37.19,0,0,0-9.41,1,60.58,60.58,0,0,1,.58,7.09c0,2.19-.26,3.87-1.81,5.16a5.92,5.92,0,0,1-3.8,1.42c-2.26,0-5.16-1.87-8.83-5.68s-5.42-7.15-5.42-9.86c0-1.67,1-10.25,17.93-10.25a139.57,139.57,0,0,1,19,1.55V49.92H101.8Z"/><path class="cls-2" d="M157.17,41.09l.91-1.22h58.53L221,48.7l-.91,1.22H206.81l.07,18.5-1,1.36H198.5c-17,0-22.57,5.8-22.57,12.76,0,6.58,4.45,10.9,10.77,10.9a18.84,18.84,0,0,0,11-3.16,9.71,9.71,0,0,1-1.87-5.93c0-5.35,4.06-8.45,9.15-8.45,6.26,0,10.51,5.42,10.51,11,0,3.8-2.06,7.15-5.67,10.12,5.61,5.28,9,9.73,9,15.79,0,5.35-3.28,10.25-8.25,13.41h-.45l-10.83-8.64c5.54-3.48,8.9-7.22,9-11.21a9.23,9.23,0,0,0-3-6.71,27.44,27.44,0,0,1-12.63,3.09c-7.55,0-13.74-3.15-18.7-7.73-4.51-4.26-9-10.44-9-18,0-8.31,4.65-17.21,22.5-17.21h6.51c1.75,0,2.33-.71,2.33-2.45V49.92H161.56Z"/><path class="cls-2" d="M214.55,41.09l.9-1.22h10.38c-.64-13.16-5-20.31-13.86-20.31-5.48,0-9,3.54-9,8.51a12.84,12.84,0,0,0,3.67,8.57l-1,1.48L196,33.87a17.85,17.85,0,0,1-4.25-11.35c0-7.54,6.06-12.7,14.82-12.7,7.61,0,15,4,21.67,13.09a51.62,51.62,0,0,1,7.67,17h8.31l4.39,8.83-.91,1.22H236.47l.26,57.18-.91.65-10.38-3,.26-54.8h-6.77Z"/></svg>