<svg id="Layer_1" data-name="Layer 1" xmlns="http://www.w3.org/2000/svg" viewBox="0 0 346 133"><defs><style>.cls-1{fill:#f73737;}.cls-2{fill:#191919;}</style></defs><path class="cls-1" d="M64.6,41.09l.9-1.22h61.12L131,48.7l-.9,1.22H118.88l.26,57.18-.9.65-10.25-3,.25-13.41a23.8,23.8,0,0,1-12.18,3.36c-6.9,0-13.15-3-18.5-9.67-4-5.1-5.35-9.42-5.35-13,0-8.51,6.38-15.6,19.79-15.6a66.72,66.72,0,0,1,16.24,2.38v-9H69ZM87.94,68.75a10.29,10.29,0,0,0-5.55,9.09c0,3.54,3.29,6.83,10,6.83a22.45,22.45,0,0,0,5.87-.77Zm15.53,12.89c3.74-2.45,4.9-4.84,4.9-7.87V67.39a44.33,44.33,0,0,0-9.67-1,31.58,31.58,0,0,0-5.16.39Z"/><path class="cls-2" d="M124.55,41.09l.91-1.22h78.9l4.39,8.83-.91,1.22H174.77V65.39l.2.13a18.1,18.1,0,0,1,10.31-3.74,15.19,15.19,0,0,1,11.86,5.55,19.19,19.19,0,0,1,5.42,13.34c0,6.51-3.16,14-8.06,20.44h-.9L184,93.7c5.55-6.9,9.67-14.06,9.67-19,0-2.39-1-3.48-3.22-3.48-4.64,0-10.32,4.19-15.54,10.25L175,107.1l-.9.65-10-3,.32-14.5-.13-.07a16.91,16.91,0,0,1-10.57,3.36c-6.84,0-11.22-3.36-15.8-8.06-3.35-3.87-5.8-8.51-5.8-13.15,0-9.42,7.54-15.48,17.6-15.48a47.83,47.83,0,0,1,14.63,2.52V49.92H128.94Zm40,26.24a31,31,0,0,0-6.25-.58c-10.77,0-15.73,5.48-15.73,11.8,0,3.48,2.58,5.15,6.9,5.15,5,0,10.12-2.45,15.08-7.6Z"/><path class="cls-2" d="M202.3,41.09l.9-1.22h46.23l4.38,8.83-.9,1.22H238.08a42.2,42.2,0,0,1,.71,7.93c0,12.9-5.8,19.41-14.06,24,5.36,5.81,13.8,11,23.79,15.8l-5,11h-1c-13.15-9.8-23.46-20.18-29.59-31.53-1.55-2.77-2.45-5.28-2.45-6.64a6.91,6.91,0,0,1,1.1-3.61c1.09-1.74,3.09-2.71,6.06-2.71s6,.07,8,.26c1.42-1.87,2.39-4.77,2.39-9.54a19.6,19.6,0,0,0-.52-4.9H206.68Z"/><path class="cls-2" d="M247.36,41.09l.9-1.22h10.38c-.64-13.16-5-20.31-13.86-20.31-5.48,0-9,3.54-9,8.51a12.85,12.85,0,0,0,3.68,8.57l-1,1.48-9.73-4.25a17.81,17.81,0,0,1-4.26-11.35c0-7.54,6.06-12.7,14.83-12.7,7.61,0,15,4,21.66,13.09a51.62,51.62,0,0,1,7.67,17H277l4.38,8.83-.9,1.22H269.28l.26,57.18-.9.65-10.38-3,.25-54.8h-6.76Z"/></svg>