<svg id="Layer_1" data-name="Layer 1" xmlns="http://www.w3.org/2000/svg" viewBox="0 0 350 133"><defs><style>.cls-1{fill:#191919;}.cls-2{fill:#f73737;}</style></defs><path class="cls-1" d="M.6,41.05l.9-1.22H13.68c-3.16-3.8-4.9-7.28-4.9-11.28C8.78,18.69,17.81,9,35.46,9c17.92,0,35.39,7.8,54,24l-2.77,4.38H85.8C72.59,26.94,59.12,20,44.88,20c-19.34,0-25.4,9.34-25.4,15.79a9.1,9.1,0,0,0,.9,4.06h9.86l4.39,8.83-.91,1.22H22.51l.26,57.17-.9.65-10.38-3,.26-54.79H5Z"/><path class="cls-2" d="M28.18,41.05l.9-1.22h80.83l4.38,8.83-.9,1.22H91.92V55.1a22.12,22.12,0,0,1,8.13,6.38,23.47,23.47,0,0,1,5.21,15c0,14-13.66,30.74-34.6,30.74-6.51,0-12.77-2.06-19.6-8.44C47.32,95.32,44,91,44,85.85a10.14,10.14,0,0,1,1.29-5.1c-4-4.12-7.41-9.08-7.41-15,0-9,8.31-11.73,16-11.73a44.05,44.05,0,0,1,8.18.78l5,10.76-.39.64a50,50,0,0,0-9.54-1c-5.16,0-9.86,1.81-9.86,5.87,0,2.25,1.35,3.8,3.22,5,4.06-2.06,9.35-2.9,14.12-2.9,1.28,0,2.45.07,3,.13l5.09,9.73-.26.71a36.89,36.89,0,0,0-3.74-.19c-7.93,0-14.11,2.64-14.11,7.09,0,4.12,5.41,5.93,11.15,5.93a32.34,32.34,0,0,0,20-7c-7.22-7.92-12.83-16-12.83-22.81A12.83,12.83,0,0,1,81.09,55V49.88H32.56ZM90.25,85.27h.06c4.45-4.9,7-10.57,7-14.76,0-3.87-1.48-6.58-5.22-6.58-5,0-8.57,5.09-8.57,10.06C83.48,78.24,86.19,82.17,90.25,85.27Z"/><path class="cls-1" d="M107.84,41.05l.9-1.22h59.88L173,48.66l-.9,1.22H160.89l.25,57.17-.9.65-10.25-3,.26-17.27A16.83,16.83,0,0,1,141.42,90c-4.12,0-8.38-1.55-12.57-4.52C121.12,80,118,75.15,118,61.36c0-4.13.06-8,.19-11.48h-6Zm42.54,8.83H129.5c-.13,3.35-.2,7.48-.2,12.06,0,11.6.39,18.23,7.1,18.23,3.15,0,6.44-1.35,10-4.12a10.49,10.49,0,0,0,4-8.57Z"/><path class="cls-1" d="M166.56,41.05l.9-1.22h78.89l4.38,8.83-.9,1.22H216.76V65.35l.2.13a18.08,18.08,0,0,1,10.31-3.74,15.24,15.24,0,0,1,11.86,5.54,19.2,19.2,0,0,1,5.41,13.35c0,6.51-3.16,14-8.06,20.43h-.9L226,93.64c5.54-6.89,9.67-14,9.67-19,0-2.38-1-3.48-3.23-3.48-4.64,0-10.31,4.19-15.53,10.25l.13,25.65-.9.65-10-3,.32-14.5-.13-.07a16.91,16.91,0,0,1-10.57,3.36c-6.83,0-11.21-3.36-15.79-8.06-3.35-3.87-5.8-8.51-5.8-13.15,0-9.41,7.54-15.47,17.6-15.47a47.93,47.93,0,0,1,14.63,2.52V49.88H170.94Zm40,26.23a31.89,31.89,0,0,0-6.26-.58c-10.76,0-15.72,5.48-15.72,11.8,0,3.48,2.58,5.15,6.89,5.15,5,0,10.12-2.44,15.09-7.6Z"/><path class="cls-1" d="M244.29,41.05l.9-1.22h72.25l4.38,8.83-.9,1.22H309.7l.26,57.17-.9.65-10.25-3L299,68.57c-10.31,2.9-13,7-15.59,16.05h-.91l-8.57-5.86c1-4.58,2.58-8.45,4.77-11.09a10.42,10.42,0,0,0-4.57-1c-6.32,0-11.74,5.8-11.74,13.21,0,8.38,6.52,13.6,19,17.73l-3.16,10.12-.84.32c-13.15-6.83-25.39-21-25.39-34.48,0-10.7,7.15-16.76,15.66-16.83,5.93,0,9.54,2.39,15.28,6.77,3.8-2.58,8.89-4.64,16.11-5.8v-7.8h-50.4Z"/><path class="cls-1" d="M315.37,41.05l.91-1.22h10.37c-.64-13.15-5-20.3-13.86-20.3-5.47,0-9,3.54-9,8.5a12.86,12.86,0,0,0,3.67,8.58l-1,1.48-9.73-4.26a17.81,17.81,0,0,1-4.25-11.34c0-7.54,6.06-12.7,14.82-12.7,7.61,0,15,4,21.66,13.09a51.56,51.56,0,0,1,7.67,17H345l4.38,8.83-.9,1.22H337.29l.25,57.17-.9.65-10.38-3,.26-54.79h-6.76Z"/></svg>