<svg id="Layer_1" data-name="Layer 1" xmlns="http://www.w3.org/2000/svg" viewBox="0 0 346 133"><defs><style>.cls-1{fill:#f73737;}.cls-2{fill:#191919;}</style></defs><path class="cls-1" d="M55.84,39.35l.9-1.23H129L133.33,47l-.9,1.22H121.22l.26,57.14-.9.65-10.24-3,.19-36.14c-10.31,2.9-13,7-15.59,16H94L85.47,77c1-4.57,2.58-8.44,4.77-11.08a10.47,10.47,0,0,0-4.58-1c-6.31,0-11.72,5.8-11.72,13.21,0,8.37,6.51,13.59,19,17.71L89.79,106l-.84.32C75.81,99.45,63.57,85.34,63.57,71.81c0-10.69,7.15-16.75,15.65-16.81,5.93,0,9.54,2.38,15.27,6.76,3.8-2.57,8.89-4.63,16.1-5.79v-7.8H60.22Z"/><path class="cls-2" d="M126.89,39.35l.9-1.23h58.63L190.8,47l-.91,1.22H178.3l.13,15.08-1.1,1.35h-9.08a99.16,99.16,0,0,0-10.95.51c-3,.39-5.16,1.29-6.51,2.84a5.28,5.28,0,0,0-1.42,3.16c0,1.41,1.36,2,3,2,5.22,0,11.4-2.06,16.88-2.06,7.22,0,9.53,3.09,12.24,8a19.24,19.24,0,0,1,2.58,9.41c0,7-6.32,15.33-17.85,15.33-12,0-24-8.5-34.2-25.38l.06-.77,4.51-3.1c7.47,12.44,15.33,18,24.35,18,9.34,0,14.56-6.31,14.56-9.79,0-.58-.52-1-2.64-1-3.22,0-12.63,2.32-17,2.32-3.16,0-6.18-2.06-10.31-6.83-3.47-4.12-5.54-8-5.54-11.72,0-9.41,8.57-11.15,20-11.15h7.73V48.17H131.27Z"/><path class="cls-2" d="M170.63,107.12l8.7,8.69-8.7,8.7-8.69-8.7Z"/><path class="cls-2" d="M184.35,39.35l.91-1.23h78.85L268.49,47l-.91,1.22h-33V63.63l.19.13A18.08,18.08,0,0,1,245,60a15.17,15.17,0,0,1,11.85,5.54A19.14,19.14,0,0,1,262.3,78.9c0,6.51-3.16,14-8.05,20.42h-.9l-9.6-7.41c5.54-6.89,9.66-14,9.66-19,0-2.38-1-3.48-3.22-3.48-4.64,0-10.31,4.19-15.52,10.24l.12,25.64-.9.65-10-3,.32-14.49-.13-.07a16.9,16.9,0,0,1-10.56,3.35c-6.83,0-11.21-3.35-15.79-8-3.35-3.86-5.79-8.5-5.79-13.14,0-9.41,7.53-15.46,17.58-15.46a47.82,47.82,0,0,1,14.63,2.51V48.17H188.73Zm39.94,26.22a30.87,30.87,0,0,0-6.24-.58c-10.76,0-15.72,5.47-15.72,11.78,0,3.48,2.57,5.16,6.89,5.16,5,0,10.11-2.45,15.07-7.6Z"/><path class="cls-2" d="M256.15,39.34l.9-1.22h10.37c-.56-11.19-6.74-17.55-15.33-20.49-8.37-2.86-21,1-21.38,9.84-.12,3.17,1.34,5.75,3.79,8.46l-1.08,1.59-9.73-4.25c-2.57-3.49-4.22-7.09-4.12-10.83C220,6.37,239.38,7.49,248.48,9.87a41.66,41.66,0,0,1,23.68,15.77,41.11,41.11,0,0,1,5.31,12.48h8.31L290.16,47l-.9,1.22H278.05l.26,57.14-.9.64-10.37-3,.25-54.76h-6.76Z"/></svg>