<svg id="Layer_1" data-name="Layer 1" xmlns="http://www.w3.org/2000/svg" viewBox="0 0 346 133"><defs><style>.cls-1{fill:#191919;}.cls-2{fill:#f73737;}</style></defs><path class="cls-1" d="M79.3,41l.9-1.23h78.91l4.38,8.83-.9,1.23H129.52V65.34l.19.13A18.1,18.1,0,0,1,140,61.73a15.21,15.21,0,0,1,11.86,5.54,19.22,19.22,0,0,1,5.41,13.35c0,6.51-3.16,14-8.06,20.43h-.9l-9.6-7.41c5.54-6.9,9.67-14,9.67-19,0-2.38-1-3.48-3.23-3.48-4.64,0-10.31,4.19-15.53,10.25l.13,25.66-.91.64-10-3,.32-14.51-.13-.06a16.9,16.9,0,0,1-10.57,3.35c-6.83,0-11.22-3.35-15.79-8.06-3.36-3.86-5.81-8.51-5.81-13.15,0-9.41,7.55-15.47,17.6-15.47a48.19,48.19,0,0,1,14.64,2.51V49.87H83.68Zm40,26.23a31.82,31.82,0,0,0-6.26-.58c-10.76,0-15.73,5.48-15.73,11.8,0,3.48,2.58,5.16,6.9,5.16,5,0,10.12-2.45,15.09-7.61Z"/><path class="cls-1" d="M157,41l.91-1.23H169.1c-4.71-12.76-7.67-20.5-17-20.5a44.68,44.68,0,0,0-12.51,1.81h-.25L134.42,9a49.81,49.81,0,0,1,13.34-1.81c13,0,17.73,10.19,28.17,32.62H186.7l4.38,8.83-.9,1.23H179l.26,57.18-.9.64-10.38-3,.26-54.79h-6.77Z"/><path class="cls-2" d="M184.64,41l.9-1.23h76.78l4.38,8.83-.9,1.23H254.58l.26,57.18-.9.64-10.38-3,.26-54.79h-10.7V71.14c0,16.18-9.87,18.76-15.8,18.76a21.7,21.7,0,0,1-14.57-5.74c-4.25-3.86-7.54-8.44-7.54-20.17,0-3.68,0-8.13.13-14.12H189Zm21.79,8.83c-.13,6.19-.13,11.73-.13,16.18,0,10.7,2.32,14.38,6.57,14.38,4.84,0,9.67-3.74,9.67-14.7V49.87Z"/></svg>