<svg id="Layer_1" data-name="Layer 1" xmlns="http://www.w3.org/2000/svg" viewBox="0 0 346 133"><defs><style>.cls-1{fill:#f73737;}.cls-2{fill:#191919;}</style></defs><path class="cls-1" d="M82,39.87l4.54,9.49,43.2,0V56l-30.85,0s-8.51.93-9.17,9.26c-.47,6,3.78,12.6,9.92,15.17,4.56,1.9,11.72,2.88,12,6.51.29,3.82-1.09,5.07-5.63,5.07s-4.54-3.07-8.79-3.07S90,91.37,90,94.51c.07,5.47,3.6,10.12,9.84,10.64a17.82,17.82,0,0,0,6.77-1.07s1.53,7.39,5.86,10.67,12,5.31,12,5.31l3.9-11.24s-6.07,1.33-10.54-1.46-5.16-6.08-5.16-6.08,8.51-1.81,8.93-9.63c.46-8.43-3.25-14.38-8.37-17.4-6.24-3.69-12.29-2-12.56-5.07-.32-3.57,4.6-3.14,4.6-3.14l24.43,0v37.27L141,107.22V49.5l16.56.09V39.68Z"/><path class="cls-2" d="M144.68,40.9l.9-1.22h28.57l4.36,8.78-.9,1.21H166.46l.26,56.83-.9.64-10.31-3,.25-54.46H149Z"/><path class="cls-2" d="M171.2,40.9l.9-1.22h60.54L237,48.46l-.9,1.21H225l.26,56.83-.9.64-10.18-2.94.32-30.37c-3-.26-5.26-.32-8.27-.32a36.74,36.74,0,0,0-9.35,1,61.32,61.32,0,0,1,.57,7c0,2.17-.25,3.84-1.79,5.12a5.91,5.91,0,0,1-3.78,1.41c-2.24,0-5.13-1.86-8.78-5.64s-5.38-7.11-5.38-9.8c0-1.67,1-10.19,17.81-10.19A139.41,139.41,0,0,1,214.38,64V49.67H175.56Z"/><path class="cls-2" d="M230.21,40.9l.9-1.22h10.31c-.64-13.07-4.93-20.18-13.77-20.18-5.45,0-8.91,3.52-8.91,8.46a12.79,12.79,0,0,0,3.65,8.52l-1,1.47-9.67-4.23a17.7,17.7,0,0,1-4.23-11.27c0-7.5,6-12.63,14.74-12.63,7.56,0,14.92,4,21.52,13a51.06,51.06,0,0,1,7.63,16.85h8.26L264,48.46l-.9,1.21H252l.26,56.83-.9.64-10.31-3,.25-54.46h-6.72Z"/></svg>