<svg id="Layer_1" data-name="Layer 1" xmlns="http://www.w3.org/2000/svg" viewBox="0 0 346 133"><defs><style>.cls-1{fill:#f73737;}.cls-2{fill:#191919;}</style></defs><path class="cls-1" d="M104.34,41.05l.91-1.23h60.92l4.38,8.84-.9,1.22H158.43l.26,57.18-.9.65-10.25-3,.32-30.56c-3-.25-5.29-.32-8.32-.32a36.73,36.73,0,0,0-9.41,1,60.26,60.26,0,0,1,.58,7.09c0,2.19-.26,3.87-1.81,5.16a5.9,5.9,0,0,1-3.8,1.42c-2.26,0-5.16-1.87-8.83-5.68s-5.42-7.15-5.42-9.86c0-1.68,1-10.25,17.93-10.25a139.57,139.57,0,0,1,19,1.55V49.88H108.73Z"/><path class="cls-2" d="M164.1,41.05l.91-1.23h72.26l4.39,8.84-.91,1.22H229.54l.26,57.18-.91.65-10.25-3,.2-36.16c-10.32,2.9-13,7-15.61,16h-.9l-8.57-5.87c1-4.58,2.58-8.44,4.77-11.09a10.47,10.47,0,0,0-4.58-1c-6.32,0-11.73,5.8-11.73,13.22,0,8.38,6.51,13.6,19,17.73l-3.16,10.12-.84.32c-13.15-6.83-25.4-21-25.4-34.49,0-10.7,7.16-16.76,15.66-16.83,5.94,0,9.55,2.39,15.28,6.77,3.81-2.58,8.9-4.64,16.12-5.8v-7.8H168.49Z"/></svg>