<svg id="Layer_1" data-name="Layer 1" xmlns="http://www.w3.org/2000/svg" viewBox="0 0 346 133"><defs><style>.cls-1{fill:#f73737;}.cls-2{fill:#191919;}</style></defs><path class="cls-1" d="M56.41,41.05l.9-1.23h64.54l4.38,8.84-.9,1.22H114.11l.26,57.18-.9.65-10.38-3,.25-54.8H84.52c.58,6.64.77,12.25.77,17,0,10.18-1.09,16-3.41,20-1.81,2.65-3.81,3.55-5.81,3.55s-4.83-1.8-8.12-5.35c-2.9-3.16-4.9-6.25-4.9-8.9a5.7,5.7,0,0,1,1.36-3.8c1.41-1.68,4.77-2.45,10-3.09a63.56,63.56,0,0,0,.45-8.71,84.67,84.67,0,0,0-.64-10.7H60.8Z"/><path class="cls-2" d="M119.78,41.05l.91-1.23h65.82l4.38,8.84-.9,1.22H178.77l.26,57.18-.9.65-10.26-3,.33-22.95H147.44c0,8.32-.26,9.41-2.39,11a5.68,5.68,0,0,1-3.28,1.16c-2.13,0-5.29-1.74-9.42-5.61-3.61-3.48-5.73-7-5.73-10.25,0-2.9,1.54-5.67,10.25-7.54V49.88h-12.7Zm27.47,29.78h20.88V49.88H147.25Z"/><path class="cls-2" d="M184.44,41.05l.91-1.23h72.26L262,48.66l-.91,1.22H249.88l.25,57.18-.9.65-10.25-3,.19-36.16c-10.31,2.9-13,7-15.6,16h-.9l-8.57-5.87a25.87,25.87,0,0,1,4.77-11.09,10.47,10.47,0,0,0-4.58-1c-6.32,0-11.73,5.8-11.73,13.22,0,8.38,6.51,13.6,19,17.73l-3.16,10.12-.84.32c-13.15-6.83-25.4-21-25.4-34.49,0-10.7,7.15-16.76,15.66-16.83,5.94,0,9.55,2.39,15.28,6.77,3.81-2.58,8.9-4.64,16.12-5.8v-7.8H188.83Z"/><path class="cls-2" d="M255.55,41.05l.9-1.23H285.2l4.39,8.84-.9,1.22H277.47l.26,57.18-.91.65-10.38-3,.26-54.8h-6.77Z"/></svg>