<svg id="Layer_1" data-name="Layer 1" xmlns="http://www.w3.org/2000/svg" viewBox="0 0 346 133"><defs><style>.cls-1{fill:#191919;}.cls-2{fill:#f73737;}</style></defs><path class="cls-1" d="M165.82,41.06l.9-1.23h58.66l4.39,8.83-.91,1.23h-11.6L217.39,65l-1.1,1.36H207.2a99.46,99.46,0,0,0-11,.51c-3,.39-5.15,1.29-6.51,2.84a5.3,5.3,0,0,0-1.42,3.16c0,1.42,1.36,2,3,2,5.23,0,11.41-2.07,16.89-2.07,7.22,0,9.55,3.1,12.25,8.06a19.25,19.25,0,0,1,2.58,9.42c0,7-6.32,15.34-17.86,15.34-12,0-24-8.51-34.23-25.4l.07-.78,4.51-3.09c7.48,12.44,15.34,18.05,24.37,18.05,9.35,0,14.57-6.32,14.57-9.8,0-.58-.52-1-2.65-1-3.22,0-12.63,2.32-17,2.32-3.16,0-6.19-2.06-10.32-6.83C181,74.9,179,71,179,67.3c0-9.42,8.57-11.16,20-11.16h7.74V49.89H170.2Z"/><path class="cls-1" d="M209.59,108.88l8.7,8.7-8.7,8.7-8.7-8.7Z"/><path class="cls-1" d="M223.32,41.06l.9-1.23H234.6c-.64-13.15-5-20.3-13.86-20.3-5.48,0-9,3.54-9,8.51a12.84,12.84,0,0,0,3.67,8.57l-1,1.48-9.74-4.25a17.85,17.85,0,0,1-4.25-11.35c0-7.54,6.06-12.7,14.83-12.7,7.6,0,15,4,21.66,13.09a51.56,51.56,0,0,1,7.67,17H253l4.39,8.83-.9,1.23H245.24l.26,57.18-.91.65-10.38-3,.26-54.8H227.7Z"/><path class="cls-2" d="M150,85s11.18,6.58,13.88,11.25c2.24,3.86-4.5,7.44-4.5,7.44s2.42-4.33-.17-6.75a111.82,111.82,0,0,0-11.76-8.82"/><path class="cls-2" d="M151,77.35a21.76,21.76,0,0,1-3.2,6.34q-7.05-5.5-7-11.65a10.23,10.23,0,0,1,2.3-6.66,6.93,6.93,0,0,1,5.51-2.81,3.42,3.42,0,0,1,2.94,1.72,9.74,9.74,0,0,1,1.16,5.32A23.21,23.21,0,0,1,151,77.35M132.24,60.1A13.4,13.4,0,0,0,129,68.89Q129,79,145.11,87.51a28.89,28.89,0,0,1-10.82,7.63,32.64,32.64,0,0,1-13.12,3.15q-4.48,0-6.15-1.22a4.08,4.08,0,0,1-1.66-3.52q0-3.19,3.33-5.12,4-2.31,11.9-2.31l-5-11.39h-1.79a24.89,24.89,0,0,0-5.44.64,13.06,13.06,0,0,0-4,1.41,13.59,13.59,0,0,1-2.81-2.31,5.2,5.2,0,0,1,.64-7.94A9.33,9.33,0,0,1,115.83,65V54.72s-2.13-.09-3.5-.09q-6.4,0-10.24,3.2a9.93,9.93,0,0,0-3.84,7.94Q98.25,69,102,74a27.22,27.22,0,0,0,5.76,6.15,10.18,10.18,0,0,0-4.09,8.19q0,6.4,8.06,12.68t16.52,6.27q12,0,22.92-9.37c7.85-6.75,10.09-14.78,11.78-23.61,2-10.6-13.28-30.85-30.67-14.17"/><polygon class="cls-2" points="108.87 64.69 115.83 64.77 115.83 49.09 108.87 49.09 108.87 64.69"/><polygon class="cls-2" points="89.55 39.84 88.64 41.07 93.03 49.9 175.51 49.9 175.51 39.84 89.55 39.84"/></svg>