<svg id="Layer_1" data-name="Layer 1" xmlns="http://www.w3.org/2000/svg" viewBox="0 0 346 133"><defs><style>.cls-1{fill:#f73737;}.cls-2{fill:#191919;}</style></defs><path class="cls-1" d="M69.4,41.05l.9-1.23h72.27L147,48.66l-.91,1.22H134.84l.25,57.18-.9.65-10.25-3,.19-36.16c-10.31,2.9-13,7-15.6,16h-.9l-8.57-5.87a25.87,25.87,0,0,1,4.77-11.09,10.47,10.47,0,0,0-4.58-1c-6.32,0-11.73,5.8-11.73,13.22,0,8.38,6.51,13.6,19,17.73l-3.15,10.12-.84.32c-13.15-6.83-25.4-21-25.4-34.49,0-10.7,7.15-16.76,15.66-16.83,5.93,0,9.54,2.39,15.28,6.77,3.81-2.58,8.9-4.64,16.12-5.8v-7.8H73.79Z"/><path class="cls-2" d="M140.51,41.05l.9-1.23h58.67l4.38,8.84-.9,1.22H192L192.08,65,191,66.32H181.9a96.85,96.85,0,0,0-11,.52c-3,.38-5.16,1.28-6.51,2.83A5.24,5.24,0,0,0,163,72.83c0,1.42,1.35,2,3,2,5.22,0,11.41-2.06,16.89-2.06,7.22,0,9.54,3.09,12.25,8a19.36,19.36,0,0,1,2.58,9.42c0,7-6.32,15.34-17.86,15.34-12.06,0-24.05-8.51-34.23-25.4l.06-.77,4.51-3.1c7.48,12.44,15.35,18,24.37,18,9.35,0,14.57-6.31,14.57-9.8,0-.58-.51-1-2.64-1-3.23,0-12.64,2.32-17,2.32-3.16,0-6.19-2.06-10.32-6.83-3.48-4.13-5.54-8-5.54-11.73,0-9.42,8.57-11.16,20-11.16h7.74V49.88H144.89Z"/><path class="cls-2" d="M174.29,103.81c1.48-.13,2.9-.19,4.38-.19a28.91,28.91,0,0,1,17.09,5.67c5.22,3.74,12.76,11,19.92,18l-2.52,4.06h-.77c-10.57-10.31-17.54-16.89-27.79-16.89a33.79,33.79,0,0,0-5.67.39l-.51-.39Z"/><path class="cls-2" d="M198,41.05l.91-1.23h58.66L262,48.66l-.9,1.22h-11.6L249.59,65l-1.1,1.35H239.4a96.85,96.85,0,0,0-11,.52c-3,.38-5.16,1.28-6.51,2.83a5.3,5.3,0,0,0-1.42,3.16c0,1.42,1.36,2,3,2,5.22,0,11.41-2.06,16.89-2.06,7.22,0,9.54,3.09,12.25,8a19.25,19.25,0,0,1,2.58,9.42c0,7-6.32,15.34-17.86,15.34-12.05,0-24-8.51-34.23-25.4l.06-.77,4.52-3.1c7.48,12.44,15.34,18,24.37,18,9.34,0,14.57-6.31,14.57-9.8,0-.58-.52-1-2.65-1-3.22,0-12.63,2.32-17,2.32-3.16,0-6.19-2.06-10.31-6.83-3.48-4.13-5.55-8-5.55-11.73,0-9.42,8.58-11.16,20-11.16h7.73V49.88H202.4Z"/><path class="cls-2" d="M256.94,123.6l.06.71c-3,5-7,7-11.54,7-7.74,0-17.08-8.45-17.08-16.06,0-6.89,6.19-11.6,13.66-11.6,9.67,0,19,6.83,34.56,22.56l-3,4.39h-.78c-10.76-11.74-19.59-18.38-25.91-18.38-5.87,0-9.86,3.74-9.86,7.29a3.53,3.53,0,0,0,3.73,3.54c3,0,5.87-1.86,8.39-6.25Z"/></svg>