<svg id="Layer_1" data-name="Layer 1" xmlns="http://www.w3.org/2000/svg" viewBox="0 0 346 133"><defs><style>.cls-1{fill:#f73737;}.cls-2{fill:#191919;}</style></defs><path class="cls-1" d="M22.21,41.05l.91-1.23H83l4.39,8.83-.9,1.23H75.27l.26,57.18-.91.65-10.25-3,.26-17.28A16.83,16.83,0,0,1,55.8,90c-4.13,0-8.38-1.55-12.57-4.51C35.49,80,32.4,75.15,32.4,61.35c0-4.12.06-8,.19-11.47h-6ZM43.87,54.13l-.25.07c-.07,2.32-.07,5-.07,7.73,0,11.74.39,18.38,7.22,18.38,3,0,6.32-1.23,9.74-3.81Zm3.74-4.06L63.79,71.86l.33.07a14.24,14.24,0,0,0,.64-4.65V49.88h-17Z"/><path class="cls-2" d="M80.94,41.05l.9-1.23h56.61l4.38,8.9-.9,1.16H130.32l.07,18.56-1,1.36H122c-15.48,0-22.57,4.45-22.57,13,0,5.35,4,9.67,11.35,9.67,6.77,0,14.12-3.16,21.21-10.7l7.09,9.73-.19,1c-6.26,7-14.31,10.37-22.05,10.37-8.32,0-14.89-3.41-20.37-8.7-5.29-5.67-8.19-11.22-8.19-17,0-8.45,4.58-17.41,22.56-17.41h6.52c1.74,0,2.32-.71,2.32-2.45V49.88H85.33Z"/><path class="cls-2" d="M136.38,41.05l.91-1.23h78.9l4.39,8.83-.91,1.23H186.6V65.35l.2.13a18.1,18.1,0,0,1,10.31-3.74A15.18,15.18,0,0,1,209,67.28a19.23,19.23,0,0,1,5.42,13.35c0,6.51-3.16,14-8.06,20.44h-.9l-9.61-7.42c5.55-6.9,9.67-14.05,9.67-19,0-2.38-1-3.48-3.22-3.48-4.64,0-10.32,4.19-15.54,10.25l.13,25.66-.9.65-10-3,.32-14.51-.13-.06a16.9,16.9,0,0,1-10.57,3.35c-6.84,0-11.22-3.35-15.8-8.06C146.44,81.6,144,77,144,72.31c0-9.41,7.54-15.47,17.6-15.47a47.83,47.83,0,0,1,14.63,2.52V49.88H140.77Zm40,26.23a31.71,31.71,0,0,0-6.25-.58c-10.77,0-15.73,5.48-15.73,11.8,0,3.48,2.58,5.16,6.9,5.16,5,0,10.12-2.45,15.08-7.61Z"/><path class="cls-2" d="M214.13,41.05l.9-1.23h11.15c-4.7-12.76-7.67-20.5-17-20.5a44.93,44.93,0,0,0-12.51,1.81h-.26L191.5,9A49.83,49.83,0,0,1,204.85,7.2c13,0,17.72,10.19,28.17,32.62h10.76l4.39,8.83-.9,1.23H236.05l.26,57.18-.91.65-10.38-3,.26-54.8h-6.77Z"/><path class="cls-2" d="M241.72,41.05l.9-1.23H319.4l4.39,8.83-.91,1.23H311.67l.26,57.18-.91.65-10.38-3,.26-54.8H290.2V71.15c0,16.18-9.86,18.76-15.79,18.76a21.66,21.66,0,0,1-14.57-5.74c-4.26-3.86-7.55-8.44-7.55-20.17,0-3.68,0-8.13.13-14.12h-6.31Zm21.79,8.83c-.13,6.19-.13,11.73-.13,16.18,0,10.7,2.32,14.38,6.58,14.38,4.83,0,9.67-3.74,9.67-14.7V49.88Z"/></svg>