<svg id="Layer_1" data-name="Layer 1" xmlns="http://www.w3.org/2000/svg" viewBox="0 0 346 133"><defs><style>.cls-1{fill:#f73737;}.cls-2{fill:#191919;}</style></defs><path class="cls-1" d="M83.81,41.09l.9-1.22h27.34l4.38,8.83-.9,1.22H104.31l.26,57.18-.9.65-10.25-3,.25-15.28a21.24,21.24,0,0,1-12.12,3.61c-11,0-21.46-8.31-27.91-24.62l.64-1.55c12.83-4.77,21.47-8.06,21.47-16.18,0-3-2.38-5.67-6.25-5.67-5.35,0-7.93,3.8-7.93,7.28,0,2.39,1.68,4.64,4.9,6.77l-1,2.39-7.61-2.71c-4.12-3.68-6.12-7.54-6.12-11.61,0-5.67,4.51-11.53,13.28-11.53,5.09,0,9.67,3.09,13.6,8.25s5.42,9.47,5.42,13.28c0,9.92-7.35,13.92-18.31,18.18,1.61,4.64,5.16,6.83,11.09,6.83a20.46,20.46,0,0,0,11.54-3.8c3.67-2.52,5.41-5.16,5.41-10.9V49.92H88.19Z"/><path class="cls-2" d="M110,41.09l.91-1.22h46.22l4.38,8.83-.9,1.22H145.76a41.39,41.39,0,0,1,.71,7.93c0,12.89-5.8,19.41-14.05,24,5.35,5.81,13.79,11,23.79,15.8l-5,11h-1c-13.16-9.8-23.47-20.18-29.59-31.53-1.55-2.77-2.45-5.28-2.45-6.64a6.89,6.89,0,0,1,1.09-3.61c1.1-1.74,3.1-2.71,6.06-2.71s6,.07,8,.26c1.41-1.87,2.38-4.77,2.38-9.54a19.55,19.55,0,0,0-.52-4.9H114.37Z"/><path class="cls-2" d="M155.05,41.09l.9-1.22h65.82l4.38,8.83-.9,1.22H214l.26,57.18-.9.65-10.25-3,.32-23H182.7c0,8.32-.26,9.42-2.38,11A5.64,5.64,0,0,1,177,94c-2.13,0-5.29-1.74-9.41-5.61-3.61-3.48-5.74-7-5.74-10.25,0-2.9,1.55-5.67,10.25-7.54V49.92h-12.7Zm27.46,29.78H203.4v-21H182.51Z"/><path class="cls-2" d="M219.71,41.09l.9-1.22h69.24l4.38,8.83-.9,1.22H282.11l.26,57.18-.9.65-10.26-3,.33-22.3a76.64,76.64,0,0,1-8.64.45,36.66,36.66,0,0,1-15.09-3.48c-1.87,2.71-5,5-7.28,6.7,5.09,5.22,12.89,10.12,22.76,14.83l-4.84,10.77h-1c-10.76-8.19-20.05-17-26.36-26.56-3.29-5-4.77-8.84-4.77-11.42,0-3.61,2.19-6.76,6.57-6.76a53.32,53.32,0,0,1,5.42.38,32.4,32.4,0,0,0,1-8.51,46.1,46.1,0,0,0-.83-9H224.09Zm28.81,8.83A73.64,73.64,0,0,1,249.88,64a51.59,51.59,0,0,1-.33,6.64,56.66,56.66,0,0,0,10.38,1,47.52,47.52,0,0,0,11.54-1.23V49.92Z"/></svg>