<svg id="Layer_1" data-name="Layer 1" xmlns="http://www.w3.org/2000/svg" viewBox="0 0 346 133"><defs><style>.cls-1{fill:#f73737;}.cls-2{fill:#191919;}</style></defs><path class="cls-1" d="M95.14,41.06l.9-1.22h58.67l4.38,8.83-.9,1.22h-11.6L146.71,65l-1.09,1.35h-9.09a96.85,96.85,0,0,0-11,.52c-3,.39-5.16,1.29-6.51,2.84a5.28,5.28,0,0,0-1.42,3.15c0,1.42,1.35,2,3,2,5.22,0,11.41-2.06,16.89-2.06,7.22,0,9.54,3.09,12.25,8.06a19.21,19.21,0,0,1,2.58,9.41c0,7-6.32,15.34-17.86,15.34-12,0-24-8.51-34.23-25.4l.06-.77,4.52-3.09c7.47,12.44,15.34,18,24.36,18,9.35,0,14.57-6.32,14.57-9.8,0-.58-.51-1-2.64-1-3.22,0-12.63,2.32-17,2.32C121,85.87,118,83.8,113.84,79c-3.48-4.12-5.55-8-5.55-11.73,0-9.41,8.58-11.15,20-11.15H136V49.89H99.53Z"/><path class="cls-2" d="M69,41.06l.9-1.22H82.11C79,36,77.22,32.62,77.22,28.69c0-8.77,7.28-18.25,22.3-18.25,13,0,27.21,6.9,43.19,22.69L140,37.39h-.84c-10.51-9.8-21.34-16.12-32.88-16.12C95,21.27,87.92,28,87.92,35.71a9.06,9.06,0,0,0,.9,4.13h9.86l4.39,8.83-.91,1.22H91l.25,57.19-.9.64-10.38-3,.26-54.8H73.41Z"/><path class="cls-2" d="M156,49.89l-4.39-8.83.9-1.22h61.12L218,48.67l-.9,1.22M201.86,86.66s-4.89,3.59-6.58,4.69a22,22,0,0,1-12.19,3.35c-6.9,0-13.15-3-18.5-9.67-4-5.09-5.35-9.41-5.35-13,0-8.51,6.38-15.6,19.79-15.6a59.67,59.67,0,0,1,16.25,2.39,14.65,14.65,0,0,1,5.49,3.49c2.51,2.34-2,6.32-1.54,13.23A29.32,29.32,0,0,0,201.86,86.66ZM175,68.72a10.3,10.3,0,0,0-5.55,9.09c0,3.54,3.29,6.83,10,6.83a22.38,22.38,0,0,0,5.86-.77ZM190.5,81.61c3.74-2.45,4.9-4.83,4.9-7.86V67.37a43.69,43.69,0,0,0-9.67-1,31.37,31.37,0,0,0-5.15.39Z"/><path class="cls-2" d="M183,41.06l.9-1.22H245l4.38,8.83-.9,1.22H237.26l.26,57.19-.9.64-10.25-3,.25-13.41a23.89,23.89,0,0,1-12.18,3.35c-6.9,0-13.15-3-18.5-9.67-4-5.09-5.35-9.41-5.35-13,0-8.51,6.38-15.6,19.79-15.6a66.31,66.31,0,0,1,16.24,2.39v-9H187.36Zm23.34,27.66a10.3,10.3,0,0,0-5.55,9.09c0,3.54,3.29,6.83,10,6.83a22.45,22.45,0,0,0,5.87-.77Zm15.53,12.89c3.74-2.45,4.9-4.83,4.9-7.86V67.37a43.69,43.69,0,0,0-9.67-1,31.58,31.58,0,0,0-5.16.39Z"/><path class="cls-2" d="M242.93,41.06l.91-1.22h28.75L277,48.67l-.9,1.22H264.85l.26,57.19-.9.64-10.38-3,.26-54.8h-6.77Z"/></svg>