<svg id="Layer_1" data-name="Layer 1" xmlns="http://www.w3.org/2000/svg" viewBox="0 0 346 133"><defs><style>.cls-1{fill:#f73737;}.cls-2{fill:#191919;}</style></defs><path class="cls-1" d="M89.81,41.05l.9-1.23H124l4.38,8.83-.9,1.23H116.3l.26,57.18-.9.64-10.25-3,.32-23.21a131.32,131.32,0,0,0-19.15,1.1c-1.8,6.7-4.45,10.31-7.8,10.31-2.64,0-5.74-1.87-9.22-5.54-3-3.1-4.77-6.13-4.77-8.9,0-4,4-6.38,11.93-7.61.39-2,.58-5.28.58-12.89,0-9.35-1.48-13.67-6.19-13.67A6.43,6.43,0,0,0,65,50.91c0,4.06,2.77,7,7.41,9.41L71,63.09a70.83,70.83,0,0,1-10.38-3c-4.7-3.48-7.28-8.06-7.28-12.7,0-6,4.83-11.67,12.38-11.67,4.31,0,8.89,1.8,13.6,5.93C85,46.59,87.94,51,87.94,62.51q0,4.26-.2,8.51c6.13,0,11.67.07,17.8.45V49.88H94.19Z"/><path class="cls-2" d="M122,41.05l.91-1.23H134c-4.71-12.76-7.67-20.5-17-20.5a44.68,44.68,0,0,0-12.51,1.81h-.25L99.35,9A49.81,49.81,0,0,1,112.69,7.2c13,0,17.73,10.19,28.17,32.62h10.77L156,48.65l-.9,1.23H143.89l.26,57.18-.9.64-10.38-3,.26-54.79h-6.77Z"/><path class="cls-2" d="M149.57,41.05l.9-1.23h78.07l4.38,8.83-.9,1.23H220.8l.26,57.18-.9.64-10.25-3,.26-34.62H196.82c3.42,5.87,4.71,9.61,4.71,14.18,0,6.71-5.42,13.8-15.15,13.8-11.87,0-22.7-10.45-32.3-34.3l5.93-3C166.84,78.11,174.13,86,182.44,86a10.24,10.24,0,0,0,10.32-9.67c0-3.68-3.61-5.8-11.35-6.83l-4.06-9.22.9-1.1h31.92V49.88H154Z"/><path class="cls-2" d="M226.48,41.05l.9-1.23H288.3l4.38,8.83-.9,1.23H280.56l.26,57.18-.9.64-10.25-3L270,74.18c-3-.26-5.29-.32-8.32-.32a36.73,36.73,0,0,0-9.41,1,60.26,60.26,0,0,1,.58,7.09c0,2.19-.26,3.87-1.8,5.15a5.94,5.94,0,0,1-3.81,1.42c-2.25,0-5.15-1.87-8.83-5.67S233,75.66,233,73c0-1.68,1-10.25,17.92-10.25a139.63,139.63,0,0,1,19,1.54V49.88H230.86Z"/></svg>