<svg id="Layer_1" data-name="Layer 1" xmlns="http://www.w3.org/2000/svg" viewBox="0 0 346 133"><defs><style>.cls-1{fill:#f73737;}.cls-2{fill:#191919;}</style></defs><path class="cls-1" d="M68.11,41.05,69,39.82h69.23l4.39,8.84-.91,1.22H130.52l.25,57.18-.9.65-10.25-3,.32-22.3a76.33,76.33,0,0,1-8.63.45,36.63,36.63,0,0,1-15.09-3.48c-1.87,2.7-5,5-7.28,6.7,5.09,5.22,12.89,10.12,22.75,14.83l-4.83,10.76h-1c-10.77-8.18-20-17-26.37-26.56-3.28-5-4.77-8.83-4.77-11.41,0-3.61,2.19-6.77,6.58-6.77a53,53,0,0,1,5.41.39,32,32,0,0,0,1-8.51,45.28,45.28,0,0,0-.84-9H72.5Zm28.82,8.83a73.57,73.57,0,0,1,1.35,14A51.53,51.53,0,0,1,98,70.57a56.62,56.62,0,0,0,10.38,1,48,48,0,0,0,11.54-1.23V49.88Z"/><path class="cls-2" d="M136.19,41.05l.9-1.23h58.67l4.38,8.84-.9,1.22H187.63L187.76,65l-1.09,1.35h-9.09a96.85,96.85,0,0,0-11,.52c-3,.38-5.16,1.28-6.51,2.83a5.24,5.24,0,0,0-1.42,3.16c0,1.42,1.35,2,3,2,5.22,0,11.41-2.06,16.89-2.06,7.22,0,9.54,3.09,12.25,8a19.25,19.25,0,0,1,2.58,9.42c0,7-6.32,15.34-17.86,15.34-12.06,0-24.05-8.51-34.23-25.4l.06-.77,4.51-3.1c7.48,12.44,15.35,18,24.37,18,9.35,0,14.57-6.31,14.57-9.8,0-.58-.51-1-2.64-1-3.22,0-12.64,2.32-17,2.32-3.16,0-6.19-2.06-10.32-6.83-3.48-4.13-5.54-8-5.54-11.73,0-9.42,8.57-11.16,20-11.16h7.73V49.88H140.57Z"/><path class="cls-2" d="M180,108.87l8.71,8.7-8.71,8.7-8.7-8.7Z"/><path class="cls-2" d="M193.69,41.05l.91-1.23h78.9l4.39,8.84L277,49.88H243.91V65.35l.2.13a18.1,18.1,0,0,1,10.31-3.74,15.19,15.19,0,0,1,11.86,5.55,19.19,19.19,0,0,1,5.42,13.34c0,6.51-3.16,14-8.06,20.44h-.9l-9.61-7.42c5.55-6.89,9.67-14.05,9.67-19,0-2.39-1-3.49-3.22-3.49-4.64,0-10.32,4.2-15.54,10.26l.13,25.65-.9.65-10-3,.32-14.5-.13-.07a16.9,16.9,0,0,1-10.57,3.35c-6.84,0-11.22-3.35-15.8-8-3.35-3.87-5.8-8.51-5.8-13.15,0-9.42,7.54-15.48,17.6-15.48a47.83,47.83,0,0,1,14.63,2.52V49.88H198.08Zm40,26.24a31,31,0,0,0-6.25-.58c-10.77,0-15.73,5.48-15.73,11.79,0,3.49,2.58,5.16,6.9,5.16,5,0,10.12-2.45,15.08-7.61Z"/></svg>