<svg id="Layer_1" data-name="Layer 1" xmlns="http://www.w3.org/2000/svg" viewBox="0 0 346 133"><defs><style>.cls-1{fill:#f73737;}.cls-2{fill:#191919;}</style></defs><path class="cls-1" d="M94.22,41.05l.9-1.23h81.17l4.38,8.84-.9,1.22H146.05V64.71l.2.13a20.09,20.09,0,0,1,11-3.81c4.83,0,8.63,2,11.86,5.61A19.2,19.2,0,0,1,174.48,80c0,6.89-3.09,14.63-8.06,21.08h-.9l-9.6-7.42c5.6-6.89,9.67-14.37,9.67-19.59,0-2.39-1-3.55-3.23-3.55-4.64,0-11,4.32-16.24,10.38l.13,26.17-.91.65-10.25-3,.26-17.28A14.53,14.53,0,0,1,127.16,90c-4,0-7.73-1.54-11.92-4.51C107.5,80,104.41,75.15,104.41,61.36c0-4.13.06-8,.19-11.48h-6Zm21.47,20.89c0,11.6.39,18.37,7,18.37,4.9,0,8.57-3.16,12.76-8V49.88h-19.6C115.75,53.23,115.69,57.36,115.69,61.94Z"/><path class="cls-2" d="M158,123.6l.06.71c-3,5-7,7-11.54,7-7.73,0-17.08-8.45-17.08-16.06,0-6.89,6.19-11.6,13.67-11.6,9.67,0,19,6.83,34.55,22.56l-3,4.39h-.77c-10.77-11.74-19.6-18.38-25.92-18.38-5.86,0-9.86,3.74-9.86,7.29a3.54,3.54,0,0,0,3.74,3.54c3,0,5.86-1.86,8.38-6.25Z"/><path class="cls-2" d="M174.22,41.05l.91-1.23h72.26l4.39,8.84-.9,1.22H239.66l.26,57.18-.91.65-10.25-3,.2-36.16c-10.32,2.9-13,7-15.6,16h-.91l-8.57-5.87c1-4.58,2.58-8.44,4.77-11.09a10.43,10.43,0,0,0-4.58-1c-6.31,0-11.73,5.8-11.73,13.22,0,8.38,6.51,13.6,19,17.73l-3.16,10.12-.84.32c-13.15-6.83-25.4-21-25.4-34.49,0-10.7,7.16-16.76,15.67-16.83,5.93,0,9.54,2.39,15.27,6.77,3.81-2.58,8.9-4.64,16.12-5.8v-7.8H178.61Z"/></svg>