<svg id="Layer_1" data-name="Layer 1" xmlns="http://www.w3.org/2000/svg" viewBox="0 0 346 133"><defs><style>.cls-1{fill:#f73737;}.cls-2{fill:#191919;}</style></defs><path class="cls-1" d="M44.55,41.05l.9-1.22h61.12L111,48.66l-.9,1.23H98.83l.26,57.18-.9.64-10.25-3,.25-13.41A23.89,23.89,0,0,1,76,94.69c-6.9,0-13.15-3-18.5-9.67-4-5.09-5.35-9.41-5.35-13,0-8.51,6.38-15.6,19.79-15.6a66.31,66.31,0,0,1,16.24,2.39v-9H48.93ZM67.89,68.71a10.31,10.31,0,0,0-5.55,9.09c0,3.55,3.29,6.83,10,6.83a22,22,0,0,0,5.86-.77ZM83.42,81.6c3.74-2.45,4.9-4.83,4.9-7.86V67.36a43.72,43.72,0,0,0-9.67-1,31.42,31.42,0,0,0-5.15.38Z"/><path class="cls-2" d="M104.5,41.05l.91-1.22h64.53l4.38,8.83-.9,1.23H162.2l.26,57.18-.9.64-10.38-3,.26-54.79H132.61c.58,6.64.78,12.24.78,17,0,10.19-1.1,16-3.42,20-1.81,2.64-3.8,3.55-5.8,3.55s-4.84-1.81-8.13-5.35c-2.9-3.16-4.9-6.26-4.9-8.9a5.73,5.73,0,0,1,1.36-3.8c1.42-1.68,4.77-2.45,10-3.1a63.39,63.39,0,0,0,.46-8.7,84.56,84.56,0,0,0-.65-10.7H108.89Z"/><path class="cls-2" d="M167.87,41.05l.91-1.22h10.38c-.65-13.15-5-20.31-13.86-20.31-5.48,0-9,3.55-9,8.51A12.86,12.86,0,0,0,160,36.61l-1,1.48-9.73-4.26a17.79,17.79,0,0,1-4.26-11.34c0-7.54,6.06-12.7,14.83-12.7,7.61,0,15,4,21.66,13.08a51.3,51.3,0,0,1,7.67,17h8.32l4.38,8.83-.9,1.23H189.79l.26,57.18-.9.64-10.38-3L179,49.89h-6.77Z"/><path class="cls-2" d="M195.47,41.05l.9-1.22h73.1l4.39,8.83-.9,1.23H261.74l.26,57.18-.91.64-10.25-3,.26-13.67A19.75,19.75,0,0,1,238.79,95c-5.74,0-11.93-2-18-8.64-4.19-4.51-6.58-8.76-6.58-14.24a10.76,10.76,0,0,1,.65-4h-8.26L202.11,59l1-1.22,42.16.6V67l-.7.77h-8.64c-6.9,0-10.64,4.06-10.64,9.61,0,5,3.93,7.22,8,7.22a20.2,20.2,0,0,0,13.61-5.09c2.58-2.26,4.19-5.29,4.19-9.93V49.89H199.85Z"/><path class="cls-2" d="M267.41,41.05l.9-1.22h28.76l4.38,8.83-.9,1.23H289.33l.26,57.18-.9.64-10.38-3,.25-54.79H271.8Z"/></svg>