<svg id="Layer_1" data-name="Layer 1" xmlns="http://www.w3.org/2000/svg" viewBox="0 0 346 133"><defs><style>.cls-1{fill:#f73737;}.cls-2{fill:#191919;}</style></defs><path class="cls-1" d="M48.74,41.05l.9-1.23H111l4.38,8.84-.9,1.22H103.21l.26,57.18-.9.65-10.25-3,.19-35H87.29C77.36,69.74,72.85,70.9,70,73A9.57,9.57,0,0,0,66,81c0,6.64,5.35,10.51,16.83,16.83L78.14,108l-1,.19c-10.7-7.8-20.63-21.6-20.63-33.2,0-6.9,3.48-16,21.15-16,5.41,0,10.5.13,14.89.26V49.88H53.12Z"/><path class="cls-2" d="M108.89,41.05l.9-1.23H156l4.39,8.84-.91,1.22H144.67a42.2,42.2,0,0,1,.71,7.93c0,12.89-5.81,19.4-14.06,24,5.35,5.8,13.8,11,23.79,15.8l-5,11h-1C136,98.75,125.71,88.37,119.59,77c-1.55-2.77-2.45-5.28-2.45-6.64a6.91,6.91,0,0,1,1.1-3.61c1.09-1.74,3.09-2.71,6.06-2.71s6,.07,8,.26c1.42-1.87,2.38-4.77,2.38-9.54a19.56,19.56,0,0,0-.51-4.9H113.27Z"/><path class="cls-2" d="M154,41.05l.9-1.23H216l4.38,8.84-.9,1.22H208.23l.26,57.18-.9.65-10.25-3,.25-13.41a23.8,23.8,0,0,1-12.18,3.36c-6.9,0-13.15-3-18.5-9.67-4-5.1-5.35-9.42-5.35-13,0-8.51,6.38-15.6,19.79-15.6a66.72,66.72,0,0,1,16.24,2.38v-9H158.33Zm23.34,27.66a10.29,10.29,0,0,0-5.55,9.08c0,3.55,3.29,6.84,10,6.84a22,22,0,0,0,5.86-.78ZM192.82,81.6c3.74-2.45,4.9-4.84,4.9-7.87V67.35a44.33,44.33,0,0,0-9.67-1,31.37,31.37,0,0,0-5.15.39Z"/><path class="cls-2" d="M215.32,123.6l.07.71c-3,5-7,7-11.54,7-7.74,0-17.09-8.45-17.09-16.06,0-6.89,6.19-11.6,13.67-11.6,9.67,0,19,6.83,34.55,22.56l-3,4.39h-.77c-10.76-11.74-19.6-18.38-25.91-18.38-5.87,0-9.87,3.74-9.87,7.29a3.54,3.54,0,0,0,3.74,3.54c3,0,5.87-1.86,8.38-6.25Z"/><path class="cls-2" d="M213.9,41.05l.91-1.23h78.07l4.38,8.84-.9,1.22H285.14l.26,57.18-.9.65-10.26-3,.26-34.62H261.16c3.41,5.87,4.7,9.61,4.7,14.19,0,6.7-5.41,13.79-15.15,13.79-11.86,0-22.69-10.44-32.29-34.29l5.93-3C231.18,78.12,238.47,86,246.78,86a10.24,10.24,0,0,0,10.32-9.67c0-3.67-3.61-5.8-11.35-6.83l-4.06-9.22.9-1.1H274.5V49.88H218.29Z"/><path class="cls-2" d="M246.88,102.53l8.7,8.7-8.7,8.7-8.7-8.7Z"/></svg>