<svg id="Layer_1" data-name="Layer 1" xmlns="http://www.w3.org/2000/svg" viewBox="0 0 346 133"><defs><style>.cls-1{fill:#f73737;}.cls-2{fill:#191919;}</style></defs><path class="cls-1" d="M91.55,41.06l.9-1.22h20a19.62,19.62,0,0,1,6.44-1.16A25.66,25.66,0,0,1,127,39.84h42l4.39,8.83-.9,1.22H161.3l.26,57.19-.91.64-10.37-3,.25-54.8h-14a18.87,18.87,0,0,1,4.71,12.7c0,7.74-6.38,15.09-16.25,21.21,3.55,4.84,9.93,9.42,17.86,13.61l-4.32,11.21h-.71c-6.38-3.41-13.28-10-21.21-21.66a31.77,31.77,0,0,1-8.38,1.81c-1.74,0-4.32-1.68-7.48-6-1.48-2.06-2.25-3.8-2.25-5,0-2.77,2.9-5.48,8.51-5.48a26.78,26.78,0,0,1,10.18,2.38,12.87,12.87,0,0,0,4.32-2.45C111.92,65.88,105,59.5,105,52.6a15.18,15.18,0,0,1,.26-2.71H95.93Zm33.39,7.48c-5.74,0-9.35,3.74-9.35,8.57s4.77,8.32,11.28,10c3.23-3.29,5.42-6.84,5.42-11.22C132.29,51.25,129.32,48.54,124.94,48.54Z"/><path class="cls-2" d="M154.21,15.92,163,24.75l-8.83,8.83-8.83-8.83Z"/><path class="cls-2" d="M254.45,48.54l-4.38-8.83h-82.2l-.9,1.22,4.39,8.83h16.11a44.81,44.81,0,0,1,.32,5.16c0,4.77-.77,7.67-1.93,9.87-2.19-.13-3.55-.2-5.09-.2-2.58,0-4.19.45-5.22,1.48a6.3,6.3,0,0,0-1.75,4.26,9.92,9.92,0,0,0,1,3.8c13.14,29.53,36.92,35.1,56.64,28.22l.17-9.6c-13.66,9-38.16,2.18-42.76-11.72,5.74-5,9.41-12,9.41-21.92a87.77,87.77,0,0,0-.51-9.35H231.7V58a39,39,0,0,0-13.09-2.39c-10.12,0-15.86,5.93-15.86,14.44,0,5.55,2.9,10.64,7.93,15.35,5.16,4.31,10.06,6.38,14.7,6.38a13,13,0,0,0,6.32-1.49l-.26,14.32,10.25,3,.9-.64-.26-57.19h11.22Zm-22.62,24a7.71,7.71,0,0,1-3.61,7.09,13.21,13.21,0,0,1-7.87,2.58c-4.77,0-7.35-2.45-7.35-6.38,0-6.32,6.9-10.57,14-10.57a27.38,27.38,0,0,1,4.84.32Z"/></svg>