<svg id="Layer_1" data-name="Layer 1" xmlns="http://www.w3.org/2000/svg" viewBox="0 0 346 133"><defs><style>.cls-1{fill:#f73737;}.cls-2{fill:#191919;}</style></defs><path class="cls-1" d="M53.06,41l.9-1.22h56.6l4.39,8.9-.9,1.16H102.44l.07,18.56-1,1.36H94.13c-15.48,0-22.57,4.44-22.57,13,0,5.35,4,9.67,11.35,9.67,6.77,0,14.12-3.16,21.21-10.7l7.09,9.73-.19,1c-6.26,7-14.32,10.38-22,10.38-8.32,0-14.89-3.41-20.37-8.7-5.29-5.67-8.19-11.22-8.19-17,0-8.44,4.58-17.4,22.56-17.4h6.51c1.74,0,2.32-.71,2.32-2.45V49.88H57.44Z"/><path class="cls-2" d="M108.5,41l.9-1.22h11.16c-4.71-12.77-7.68-20.5-17-20.5A45,45,0,0,0,91,21.12h-.26L85.87,9A49.83,49.83,0,0,1,99.22,7.2c13,0,17.73,10.18,28.17,32.62h10.77l4.38,8.83-.9,1.23H130.42l.26,57.18-.9.64-10.38-3,.25-54.79h-6.77Z"/><path class="cls-2" d="M136.09,41l.91-1.22h78.9l4.39,8.83-.91,1.23H186.31V65.35l.2.13a18.1,18.1,0,0,1,10.31-3.74,15.18,15.18,0,0,1,11.86,5.54,19.21,19.21,0,0,1,5.42,13.35c0,6.51-3.16,14-8.06,20.43h-.9l-9.61-7.41c5.55-6.9,9.67-14.05,9.67-19,0-2.38-1-3.48-3.22-3.48-4.64,0-10.32,4.19-15.54,10.25l.13,25.66-.9.64-10-3L176,90.23l-.13-.06a16.9,16.9,0,0,1-10.57,3.35c-6.84,0-11.22-3.35-15.8-8.06-3.35-3.87-5.8-8.51-5.8-13.15,0-9.41,7.54-15.47,17.6-15.47a47.78,47.78,0,0,1,14.63,2.51V49.88H140.48Zm40,26.24a31.71,31.71,0,0,0-6.25-.58c-10.77,0-15.73,5.48-15.73,11.8,0,3.48,2.58,5.16,6.9,5.16,5,0,10.12-2.45,15.08-7.61Z"/><path class="cls-2" d="M213.84,41l.9-1.22H261l4.39,8.83-.9,1.23H249.62a42.06,42.06,0,0,1,.71,7.93c0,12.89-5.8,19.4-14.06,24,5.35,5.8,13.8,11,23.79,15.79l-5,11h-1C241,98.74,230.67,88.36,224.54,77c-1.55-2.78-2.45-5.29-2.45-6.64a6.86,6.86,0,0,1,1.1-3.61c1.09-1.74,3.09-2.71,6.06-2.71s6,.06,8,.26c1.42-1.87,2.39-4.77,2.39-9.54a19.5,19.5,0,0,0-.52-4.9H218.22Z"/><path class="cls-2" d="M258.9,41l.9-1.22h10.38c-.64-13.15-5-20.31-13.86-20.31-5.48,0-9,3.55-9,8.51A12.88,12.88,0,0,0,251,36.6l-1,1.48-9.73-4.26a17.79,17.79,0,0,1-4.26-11.34c0-7.54,6.06-12.7,14.83-12.7,7.6,0,15,4,21.66,13.08a51.71,51.71,0,0,1,7.67,17h8.32l4.38,8.83-.9,1.23H280.82l.26,57.18-.9.64-10.38-3,.25-54.79h-6.76Z"/></svg>