<svg id="Layer_1" data-name="Layer 1" xmlns="http://www.w3.org/2000/svg" viewBox="0 0 346 133"><defs><style>.cls-1{fill:#f73737;}.cls-2{fill:#191919;}</style></defs><path class="cls-1" d="M45.6,41.05l.9-1.23H105l4.38,8.9-.9,1.16H95.3l.07,17.47-1,1.36H87c-15.47,0-21.85,5.35-21.85,14.5,0,7.8,6.45,14,13,14a14.56,14.56,0,0,0,3.23-.32l.12-.26c-4-3.29-6.38-7.16-6.38-12.12,0-6.12,5.1-11.67,12.64-11.67,4.77,0,8.64,2.32,11.86,5.93a17.09,17.09,0,0,1,4.58,11.15c0,10.58-9.87,16.19-20.12,16.19a31.48,31.48,0,0,1-21.59-9.16c-5.87-5.8-9.22-12.31-9.22-19.79,0-8.44,5-18.05,22.95-18.05h6.12c1.74,0,2.32-.71,2.32-2.45V49.88H50ZM92.34,81.34c-3.42,0-6.9,3-6.9,7.8a7.89,7.89,0,0,0,2.64,6.38c5.16-2.25,8.06-6,8.06-10C96.14,83.66,95.24,81.34,92.34,81.34Z"/><path class="cls-2" d="M102.91,41.05l.9-1.23h78.91l4.38,8.84-.9,1.22H153.13V65.35l.19.13a18.1,18.1,0,0,1,10.32-3.74,15.22,15.22,0,0,1,11.86,5.55c3.74,4.06-4.45,3.86-6.71,3.86-4.64,0-10.31,4.2-15.53,10.26l.12,25.65-.9.65-10-3,.32-14.5-.13-.07a16.9,16.9,0,0,1-10.57,3.35c-6.83,0-11.22-3.35-15.79-8C113,81.6,110.51,77,110.51,72.32c0-9.42,7.55-15.48,17.6-15.48a47.93,47.93,0,0,1,14.64,2.52V49.88H107.29Zm40,26.24a31.07,31.07,0,0,0-6.26-.58c-10.76,0-15.73,5.48-15.73,11.79,0,3.49,2.58,5.16,6.9,5.16,5,0,10.12-2.45,15.09-7.61Z"/><path class="cls-2" d="M156.45,41.05l.9-1.23h78.91l4.38,8.84-.9,1.22H206.67V65.35l.19.13a18.13,18.13,0,0,1,10.32-3.74A15.2,15.2,0,0,1,229,67.29a19.18,19.18,0,0,1,5.41,13.34c0,6.51-3.15,14-8,20.44h-.91l-9.6-7.42c5.54-6.89,9.67-14.05,9.67-19,0-2.39-1-3.49-3.23-3.49-4.64,0-10.31,4.2-15.53,10.26l.13,25.65-.91.65-10-3,.32-14.5-.12-.07a17,17,0,0,1-10.58,3.35c-6.83,0-11.21-3.35-15.79-8-3.35-3.87-5.8-8.51-5.8-13.15,0-9.42,7.54-15.48,17.6-15.48a47.93,47.93,0,0,1,14.63,2.52V49.88H160.83Zm40,26.24a31,31,0,0,0-6.25-.58c-10.77,0-15.73,5.48-15.73,11.79,0,3.49,2.57,5.16,6.89,5.16,5,0,10.12-2.45,15.09-7.61Z"/><path class="cls-2" d="M234.2,41.05l.9-1.23H296l4.38,8.84-.9,1.22H288.28l.26,57.18-.9.65-10.25-3,.32-30.56c-3-.25-5.29-.32-8.32-.32a36.73,36.73,0,0,0-9.41,1,60.26,60.26,0,0,1,.58,7.09c0,2.19-.26,3.87-1.8,5.16A5.94,5.94,0,0,1,255,88.5c-2.25,0-5.15-1.87-8.83-5.68s-5.41-7.15-5.41-9.86c0-1.68,1-10.25,17.92-10.25a139.82,139.82,0,0,1,19,1.55V49.88H238.58Z"/></svg>