<svg id="Layer_1" data-name="Layer 1" xmlns="http://www.w3.org/2000/svg" viewBox="0 0 346 133"><defs><style>.cls-1{fill:#f73737;}.cls-2{fill:#191919;}</style></defs><path class="cls-1" d="M186.64,48.66l-4.38-8.84h-82.2l-.9,1.23,4.38,8.83h16.12A47,47,0,0,1,120,55c0,4.77-.77,7.67-1.93,9.86-2.2-.13-3.55-.19-5.1-.19-2.57,0-4.19.45-5.22,1.48A6.32,6.32,0,0,0,106,70.45a10.08,10.08,0,0,0,1,3.8c13.15,29.53,36.93,35.1,56.65,28.21l.17-9.59c-13.67,9-38.16,2.18-42.76-11.72,5.73-5,9.41-12.06,9.41-21.92a85.16,85.16,0,0,0-.52-9.35h33.91v8.25a39.14,39.14,0,0,0-13.08-2.38c-10.13,0-15.86,5.93-15.86,14.44,0,5.54,2.9,10.64,7.93,15.34,5.15,4.32,10,6.38,14.7,6.38a13.05,13.05,0,0,0,6.31-1.48l-.25,14.31,10.25,3,.9-.65-.26-57.18h11.22ZM164,72.64a7.72,7.72,0,0,1-3.61,7.09,13.2,13.2,0,0,1-7.86,2.58c-4.77,0-7.35-2.45-7.35-6.38,0-6.32,6.9-10.58,14-10.58a26.46,26.46,0,0,1,4.83.33Z"/><path class="cls-2" d="M180.25,41.2l.9-1.22h61.31l4.38,8.83-.9,1.22H234.72l.26,57.18-.9.65-10.25-3,.19-35H218.8c-9.93,0-14.44,1.16-17.28,3.29a9.55,9.55,0,0,0-4.06,7.93c0,6.64,5.35,10.5,16.83,16.82l-4.65,10.19-1,.19c-10.7-7.8-20.63-21.6-20.63-33.2,0-6.9,3.48-16,21.14-16,5.42,0,10.51.13,14.9.26V50H184.63Z"/></svg>