<svg id="Layer_1" data-name="Layer 1" xmlns="http://www.w3.org/2000/svg" viewBox="0 0 346 133"><defs><style>.cls-1{fill:#191919;}.cls-2{fill:#f73737;}</style></defs><path class="cls-1" d="M60.41,41l.9-1.22h78.91l4.38,8.83-.9,1.22H110.63V65.34l.19.13a18.13,18.13,0,0,1,10.32-3.74A15.2,15.2,0,0,1,133,67.28a19.18,19.18,0,0,1,5.41,13.34c0,6.51-3.16,14-8,20.44h-.91l-9.6-7.41c5.54-6.9,9.67-14.06,9.67-19,0-2.39-1-3.48-3.23-3.48-4.64,0-10.31,4.19-15.53,10.25l.13,25.65-.91.65-10-3,.32-14.5-.13-.07a16.91,16.91,0,0,1-10.57,3.36c-6.83,0-11.21-3.36-15.79-8.06C70.47,81.59,68,77,68,72.31c0-9.42,7.54-15.48,17.6-15.48a47.93,47.93,0,0,1,14.63,2.52V49.87H64.79Zm40,26.24a31,31,0,0,0-6.25-.58c-10.77,0-15.73,5.48-15.73,11.8,0,3.48,2.57,5.15,6.89,5.15,5,0,10.12-2.45,15.09-7.6Z"/><path class="cls-2" d="M138.16,41l.9-1.22h58.47l4.38,8.89-.9,1.16H187.86l.06,17.47-1,1.36h-7.42c-15.47,0-21.85,5.35-21.85,14.5,0,7.8,6.45,14,13,14a13.85,13.85,0,0,0,3.22-.32l.13-.26c-4-3.29-6.38-7.16-6.38-12.12,0-6.12,5.09-11.67,12.64-11.67,4.77,0,8.64,2.32,11.86,5.93a17.12,17.12,0,0,1,4.58,11.16c0,10.57-9.87,16.18-20.12,16.18a31.48,31.48,0,0,1-21.59-9.16c-5.87-5.8-9.22-12.31-9.22-19.79,0-8.44,5-18,22.95-18h6.12c1.74,0,2.32-.71,2.32-2.45V49.87H142.54Zm46.73,40.29c-3.41,0-6.89,3-6.89,7.8a7.87,7.87,0,0,0,2.64,6.38c5.16-2.25,8.06-6,8.06-10.05C188.7,83.65,187.8,81.33,184.89,81.33Z"/><path class="cls-2" d="M181.74,108.86l8.7,8.7-8.7,8.71L173,117.56Z"/><path class="cls-1" d="M195.47,41l.9-1.22h28.75l4.38,8.83-.9,1.22H217.39l.25,57.18-.9.65-10.38-3,.26-54.8h-6.77Z"/><path class="cls-1" d="M223.06,41l.9-1.22H263.8l.07-.26C257.81,34.21,253,28.66,253,22.09c0-7.09,5.41-12.64,14.11-12.64a18.3,18.3,0,0,1,8.9,2.45,61.56,61.56,0,0,1,4.9,8.9l-.77,1a16.3,16.3,0,0,0-7.55-2.06c-5.93,0-9.22,3.55-9.22,8.58,0,4.25,3.16,9.21,7,11.54h10.77l4.38,8.83-.9,1.22H272.83L273,64.7l-1.1,1.35H259.42c-7,0-12.51.58-15.15,1.94-2.07,1.29-2.9,2.7-2.9,4.12s.9,2.13,2.83,2.13c3.61,0,12.7-3.09,18.25-3.09,5.15,0,8.12,2.7,11.21,7.54,2.52,4,3.55,7.09,3.55,10.25,0,6.51-6.38,13.09-16.83,15.66l-.06.26c4.64,4.32,12.25,5.8,21.15,5.87l-4.07,12h-.9c-9.48,0-17.34-4.9-22.69-17.14a30.66,30.66,0,0,1-5.61.45,9.9,9.9,0,0,1-8.7-4.52c-1.81-2.51-2.9-5-2.9-7.22,0-1.87,1-4.64,7.54-4.64a15.63,15.63,0,0,1,11.67,4.9c7.48-2.38,12.63-7.93,12.63-11.86,0-.9-.45-1.29-1.8-1.29-2.84,0-12.19,3.42-18,3.42-5.22,0-8.25-3.16-12.25-7.67-2.77-3.49-4.77-7.22-4.77-10.71,0-9.34,8.51-10.63,19.66-10.63h11v-6H227.44Z"/></svg>