<svg id="Layer_1" data-name="Layer 1" xmlns="http://www.w3.org/2000/svg" viewBox="0 0 346 133"><defs><style>.cls-1{fill:#f73737;}.cls-2{fill:#191919;}</style></defs><path class="cls-1" d="M91.93,41l.91-1.22h46.22l4.38,8.83-.9,1.22H127.71a41.39,41.39,0,0,1,.71,7.93c0,12.9-5.8,19.41-14,24,5.35,5.81,13.79,11,23.79,15.8l-5,11h-1c-13.15-9.8-23.46-20.18-29.59-31.53-1.54-2.77-2.45-5.28-2.45-6.64a6.91,6.91,0,0,1,1.1-3.61c1.1-1.74,3.1-2.7,6.06-2.7s6,.06,8,.25c1.42-1.87,2.39-4.77,2.39-9.54a19.6,19.6,0,0,0-.52-4.9H96.32Z"/><path class="cls-2" d="M137,41l.9-1.22h11.15c-4.71-12.77-7.67-20.5-17-20.5a45.07,45.07,0,0,0-12.51,1.8h-.25L114.37,9a49.81,49.81,0,0,1,13.34-1.8c13,0,17.73,10.18,28.17,32.62h10.77L171,48.65l-.9,1.22H158.91l.26,57.19-.9.64-10.38-3,.26-54.8h-6.77Z"/><path class="cls-2" d="M164.59,41l.9-1.22h56.6l4.39,8.89-.91,1.16H214L214,68.44l-1,1.35h-7.42c-15.47,0-22.56,4.45-22.56,13,0,5.35,4,9.67,11.35,9.67,6.76,0,14.11-3.16,21.2-10.71l7.1,9.74-.2,1c-6.25,7-14.31,10.38-22,10.38-8.32,0-14.9-3.42-20.38-8.7-5.28-5.68-8.18-11.22-8.18-17,0-8.44,4.57-17.4,22.56-17.4H201c1.74,0,2.32-.71,2.32-2.45V49.87H169Z"/><path class="cls-2" d="M220,41l.9-1.22h10.38c-.64-13.15-5-20.31-13.86-20.31-5.48,0-9,3.55-9,8.51a12.82,12.82,0,0,0,3.67,8.57l-1,1.49-9.74-4.26a17.85,17.85,0,0,1-4.25-11.35c0-7.54,6.06-12.69,14.82-12.69,7.61,0,15,4,21.67,13.08a51.71,51.71,0,0,1,7.67,17h8.31l4.39,8.83-.91,1.22H242l.25,57.19-.9.64-10.38-3,.26-54.8h-6.77Z"/></svg>