<svg id="Layer_1" data-name="Layer 1" xmlns="http://www.w3.org/2000/svg" viewBox="0 0 346 133"><defs><style>.cls-1{fill:#f73737;}.cls-2{fill:#191919;}</style></defs><path class="cls-1" d="M52.5,41.06l.91-1.23h78.06l4.39,8.84-.9,1.22H123.74l.26,57.18-.91.65-10.25-3,.26-34.62H99.76c3.41,5.87,4.7,9.61,4.7,14.19,0,6.7-5.41,13.79-15.15,13.79C77.45,98.11,66.62,87.67,57,63.82l5.93-3C69.78,78.13,77.07,86,85.38,86A10.23,10.23,0,0,0,95.7,76.32c0-3.67-3.61-5.8-11.35-6.83l-4.06-9.22.9-1.1H113.1V49.89H56.89Z"/><path class="cls-2" d="M128.4,41.06l.9-1.23h72.27L206,48.67l-.9,1.22H193.83l.26,57.18-.9.65-10.25-3,.19-36.16c-10.31,2.9-13,7-15.6,16h-.9l-8.58-5.87c1-4.57,2.58-8.44,4.77-11.09a10.39,10.39,0,0,0-4.57-1c-6.32,0-11.74,5.8-11.74,13.22,0,8.38,6.51,13.6,19,17.73l-3.16,10.12-.84.32c-13.15-6.83-25.4-21-25.4-34.49,0-10.7,7.16-16.76,15.67-16.83,5.93,0,9.54,2.39,15.28,6.77,3.8-2.57,8.89-4.64,16.11-5.8v-7.8H132.78Z"/><path class="cls-2" d="M185.71,41.12c-5-13.53-7.8-21.79-17.47-21.79a45,45,0,0,0-12.51,1.81h-.26L150.57,9a49.83,49.83,0,0,1,13.35-1.81c13.15,0,17.79,10.38,28.49,33.27l-.45.64Z"/><path class="cls-2" d="M199.5,41.06l.91-1.23h61.11l4.38,8.84-.9,1.22H253.79l.25,57.18-.9.65-10.25-3,.26-13.41A23.86,23.86,0,0,1,231,94.7c-6.89,0-13.15-3-18.5-9.67-4-5.1-5.35-9.42-5.35-13,0-8.51,6.38-15.6,19.79-15.6a66.79,66.79,0,0,1,16.25,2.38v-9H203.89Zm23.34,27.66a10.3,10.3,0,0,0-5.54,9.09c0,3.54,3.28,6.83,10,6.83a22.45,22.45,0,0,0,5.87-.77Zm15.54,12.89c3.74-2.45,4.9-4.84,4.9-7.87V67.36a44.33,44.33,0,0,0-9.67-1,31.4,31.4,0,0,0-5.16.39Z"/><path class="cls-2" d="M259.46,41.06l.9-1.23h10.38c-.64-13.15-5-20.3-13.86-20.3-5.48,0-9,3.54-9,8.51a12.84,12.84,0,0,0,3.67,8.57l-1,1.48-9.74-4.25a17.85,17.85,0,0,1-4.25-11.35c0-7.54,6.06-12.7,14.82-12.7,7.61,0,15,4,21.67,13.09a51.66,51.66,0,0,1,7.67,17h8.31l4.39,8.84-.91,1.22H281.38l.25,57.18-.9.65-10.38-3,.26-54.8h-6.77Z"/></svg>