<svg id="Layer_1" data-name="Layer 1" xmlns="http://www.w3.org/2000/svg" viewBox="0 0 346 133"><defs><style>.cls-1{fill:#f73737;}.cls-2{fill:#191919;}</style></defs><path class="cls-1" d="M76.24,41.05l.9-1.22h73.1l4.39,8.83-.91,1.22H142.51l.26,57.18-.91.65-10.25-3,.26-13.66A19.77,19.77,0,0,1,119.56,95c-5.74,0-11.93-2-18-8.64-4.19-4.51-6.58-8.77-6.58-14.25a10.71,10.71,0,0,1,.65-4H87.32L82.88,59l1-1.23,42.2.06,0,9.1-.71.77h-8.63c-6.9,0-10.64,4.06-10.64,9.61,0,5,3.93,7.22,8,7.22a20.2,20.2,0,0,0,13.61-5.1c2.57-2.25,4.19-5.28,4.19-9.93V49.88H80.62Z"/><path class="cls-2" d="M148.18,41.05l.9-1.22h28.75l4.39,8.83-.9,1.22H170.1l.26,57.18-.91.65-10.37-3,.25-54.8h-6.77Z"/><path class="cls-2" d="M175.77,41.05l.9-1.22h61.12l4.38,8.83-.9,1.22H230.05l.26,57.18-.9.65-10.25-3,.26-13.41a23.86,23.86,0,0,1-12.19,3.36c-6.9,0-13.15-3-18.5-9.67-4-5.1-5.35-9.42-5.35-13,0-8.51,6.38-15.6,19.79-15.6a66.85,66.85,0,0,1,16.25,2.38v-9H180.16Zm23.34,27.66a10.29,10.29,0,0,0-5.55,9.09c0,3.54,3.29,6.83,10,6.83a22.38,22.38,0,0,0,5.86-.77ZM214.65,81.6c3.73-2.45,4.89-4.84,4.89-7.87V67.35a44.26,44.26,0,0,0-9.67-1,31.37,31.37,0,0,0-5.15.39Z"/><path class="cls-2" d="M235.73,41.05l.9-1.22H247c-.65-13.16-5-20.31-13.86-20.31-5.48,0-9,3.54-9,8.51a12.84,12.84,0,0,0,3.67,8.57l-1,1.48-9.73-4.25a17.81,17.81,0,0,1-4.26-11.35c0-7.54,6.06-12.7,14.83-12.7,7.61,0,15,4,21.66,13.09a51.21,51.21,0,0,1,7.67,17h8.32l4.38,8.83-.9,1.22H257.64l.26,57.18-.9.65-10.38-3,.26-54.8h-6.77Z"/></svg>