<svg id="Layer_1" data-name="Layer 1" xmlns="http://www.w3.org/2000/svg" viewBox="0 0 346 133"><defs><style>.cls-1{fill:#f73737;}.cls-2{fill:#191919;}</style></defs><path class="cls-1" d="M52.72,41.05l.91-1.23h73.1l4.39,8.84-.91,1.22H119l.25,57.18-.9.65-10.25-3,.26-13.66A19.77,19.77,0,0,1,96.05,95c-5.74,0-11.93-2-18-8.64-4.19-4.51-6.58-8.77-6.58-14.25a11,11,0,0,1,.64-4H63.81L59.36,59l1-1.23,42.23.27L102.49,67l-.71.78H93.15c-6.9,0-10.64,4.06-10.64,9.6,0,5,3.93,7.22,8,7.22a20.15,20.15,0,0,0,13.6-5.09c2.58-2.26,4.19-5.29,4.19-9.93V49.88H57.11Z"/><path class="cls-2" d="M124.67,41.05l.9-1.23h59.89l4.39,8.84-.91,1.22H177.73l.13,29.34a49.93,49.93,0,0,1-9.15,7.27c-2.85,1.83-5.54,3.55-10.45,3.55-4.13,0-8.38-1.54-12.57-4.51C138,80,134.86,75.15,134.86,61.36c0-4.13.06-8,.19-11.48h-6Zm42.55,8.83H146.33c-.13,3.35-.19,7.48-.19,12.06,0,11.6.38,18.24,7.09,18.24,3.16,0,6.44-1.35,10-4.13a10.52,10.52,0,0,0,4-8.57Z"/><path class="cls-2" d="M157,41.05l.91-1.23h59.88l4.39,8.84-.9,1.22H210.05l.26,57.18-.91.65-10.25-3,.26-17.28A16.74,16.74,0,0,1,190.58,90c-4.13,0-8.38-1.54-12.57-4.51-7.74-5.54-10.83-10.38-10.83-24.17,0-4.13.06-8,.19-11.48h-6Zm42.55,8.83H178.65c-.13,3.35-.19,7.48-.19,12.06,0,11.6.39,18.24,7.09,18.24,3.16,0,6.45-1.35,10-4.13a10.49,10.49,0,0,0,4-8.57Z"/><path class="cls-2" d="M215.72,41.05l.9-1.23h72.27l4.39,8.84-.91,1.22H281.16l.25,57.18-.9.65-10.25-3,.19-36.16c-10.31,2.9-13,7-15.6,16H254l-8.57-5.87a25.87,25.87,0,0,1,4.77-11.09,10.47,10.47,0,0,0-4.58-1c-6.32,0-11.73,5.8-11.73,13.22,0,8.38,6.51,13.6,19,17.73l-3.15,10.12-.84.32c-13.15-6.83-25.4-21-25.4-34.49,0-10.7,7.15-16.76,15.66-16.83,5.93,0,9.54,2.39,15.28,6.77,3.81-2.58,8.9-4.64,16.12-5.8v-7.8H220.11Z"/></svg>