<svg id="Layer_1" data-name="Layer 1" xmlns="http://www.w3.org/2000/svg" viewBox="0 0 346 133"><defs><style>.cls-1{fill:#f73737;}.cls-2{fill:#191919;}</style></defs><path class="cls-1" d="M65.78,41l.9-1.22h69.13l4.38,8.82-.9,1.22h-11.2l.26,57.09-.91.64-10.23-3,.32-22.27a76.16,76.16,0,0,1-8.62.45,36.48,36.48,0,0,1-15.06-3.47c-1.87,2.7-5,5-7.28,6.69,5.09,5.22,12.88,10.11,22.72,14.81l-4.82,10.74h-1c-10.75-8.17-20-16.92-26.32-26.51-3.29-5-4.77-8.82-4.77-11.4,0-3.6,2.19-6.75,6.57-6.75a52.94,52.94,0,0,1,5.4.38,31.84,31.84,0,0,0,1-8.49,45.1,45.1,0,0,0-.84-9H70.16Zm28.77,8.82a73.34,73.34,0,0,1,1.36,14,51.42,51.42,0,0,1-.33,6.63,56.55,56.55,0,0,0,10.37,1,48,48,0,0,0,11.52-1.22V49.86Z"/><path class="cls-2" d="M169.44,41l.91-1.22h77.94l4.38,8.82-.9,1.22h-11.2l.26,57.09-.91.64-10.23-3L230,70.07H216.62c3.42,5.86,4.7,9.59,4.7,14.16,0,6.69-5.4,13.77-15.12,13.77C194.35,98,183.54,87.58,174,63.76l5.92-3c6.82,17.25,14.1,25.1,22.4,25.1a10.21,10.21,0,0,0,10.3-9.65c0-3.67-3.61-5.79-11.33-6.82l-4.05-9.21.9-1.09H230V49.86H173.82Z"/><path class="cls-2" d="M136.89,49.86,132.51,41l.9-1.22h61l4.38,8.82-.9,1.22M185,84s-6.4,5.79-8.91,7.26a23.74,23.74,0,0,1-12.17,3.34c-6.88,0-13.13-3-18.47-9.65-4-5.09-5.34-9.4-5.34-12.94,0-8.5,6.37-15.58,19.76-15.58a59.47,59.47,0,0,1,16.22,2.39,9.64,9.64,0,0,1,3.78,2s-.06,2.86.36,9.77S185,84,185,84ZM155.81,68.65a10.3,10.3,0,0,0-5.53,9.08c0,3.54,3.28,6.82,10,6.82a22.38,22.38,0,0,0,5.86-.77Zm15.51,12.88c3.74-2.45,4.9-4.83,4.9-7.86V67.3a44.23,44.23,0,0,0-9.66-1,31.37,31.37,0,0,0-5.15.39Z"/><path class="cls-2" d="M246.23,41l.9-1.22H257.5c-.65-13.13-5-20.28-13.84-20.28-5.47,0-8.95,3.54-8.95,8.5a12.8,12.8,0,0,0,3.67,8.56l-1,1.48-9.71-4.25a17.73,17.73,0,0,1-4.25-11.33c0-7.53,6.05-12.68,14.8-12.68,7.6,0,15,4,21.63,13.07a51.53,51.53,0,0,1,7.66,16.93h8.3l4.38,8.82-.9,1.22h-11.2l.25,57.09-.9.64-10.36-3,.26-54.71h-6.76Z"/><path class="cls-2" d="M203.13,101.6l8.68,8.69L203.13,119l-8.69-8.69Z"/></svg>