<svg id="Layer_1" data-name="Layer 1" xmlns="http://www.w3.org/2000/svg" viewBox="0 0 346 133"><defs><style>.cls-1{fill:#f73737;}.cls-2{fill:#191919;}</style></defs><path class="cls-1" d="M55.32,41.05l.9-1.23h78.07l4.38,8.84-.9,1.22H126.55l.26,57.18-.9.65-10.25-3,.25-34.62H102.57c3.42,5.87,4.71,9.61,4.71,14.19,0,6.7-5.42,13.79-15.15,13.79-11.87,0-22.7-10.44-32.3-34.29l5.93-3C72.59,78.12,79.88,86,88.19,86a10.24,10.24,0,0,0,10.32-9.67c0-3.67-3.61-5.8-11.35-6.83L83.1,60.26l.9-1.1h31.91V49.88H59.7Z"/><path class="cls-2" d="M132.22,41.05l.91-1.23h28.75l4.38,8.84-.9,1.22H154.14l.26,57.18-.9.65-10.38-3,.26-54.8h-6.77Z"/><path class="cls-2" d="M159.82,41.05l.9-1.23h65.82l4.38,8.84-.9,1.22H218.8l.26,57.18-.9.65-10.25-3,.32-22.95H187.47c0,8.32-.26,9.41-2.38,11a5.71,5.71,0,0,1-3.29,1.16c-2.13,0-5.29-1.74-9.41-5.61-3.61-3.48-5.74-7-5.74-10.25,0-2.9,1.55-5.67,10.25-7.54V49.88H164.2Zm27.46,29.78h20.89V49.88H187.28Z"/><path class="cls-2" d="M182.77,105.55h.77c9.28,12.12,17,17.93,24.18,17.93,5.35,0,10.57-3.49,10.57-8,0-1.09-.9-2.51-3.61-2.51s-5.93,1.48-9,3.74h-.84l-5.35-9c4.06-2.9,7.93-4.38,11.09-4.38,4.64,0,8.83,2.51,12.18,8.89a18,18,0,0,1,2.32,8.38c0,6.52-5.61,11.93-13.92,11.93-9.74,0-19.92-7.67-31.53-23.4Z"/><path class="cls-2" d="M224.48,41.05l.9-1.23H286.3l4.38,8.84-.9,1.22H278.56l.26,57.18-.9.65-10.25-3L268,74.18c-3-.25-5.28-.32-8.31-.32a36.77,36.77,0,0,0-9.42,1,60.26,60.26,0,0,1,.58,7.09c0,2.19-.25,3.87-1.8,5.16a5.94,5.94,0,0,1-3.81,1.42c-2.25,0-5.15-1.87-8.83-5.68S231,75.67,231,73c0-1.68,1-10.25,17.92-10.25a139.82,139.82,0,0,1,19,1.55V49.88H228.86Z"/></svg>