<svg id="Layer_1" data-name="Layer 1" xmlns="http://www.w3.org/2000/svg" viewBox="0 0 346 133"><defs><style>.cls-1{fill:#f73737;}.cls-2{fill:#191919;}</style></defs><path class="cls-1" d="M58,41l.88-1.2h64.74l4.31,8.68L127,49.71H116l.25,56.24-.88.63-10.09-2.92.32-22.57H85.19c0,8.18-.26,9.26-2.35,10.78A5.58,5.58,0,0,1,79.61,93c-2.1,0-5.2-1.71-9.26-5.51-3.55-3.43-5.64-6.85-5.64-10.08,0-2.86,1.52-5.58,10.08-7.42V49.71H62.3ZM85,70.31h20.54V49.71H85Z"/><path class="cls-2" d="M121.58,41l.89-1.2h134.1l4.31,8.68L260,49.71H249l.25,56.24-.89.63-10.08-2.92.26-14.07a12.91,12.91,0,0,1-6.22,1.46c-4.56,0-9.38-2-14.45-6.28-5-4.63-7.8-9.64-7.8-15.09,0-8.37,5.64-14.2,15.6-14.2a38.64,38.64,0,0,1,12.87,2.34V49.71H205.15a87.26,87.26,0,0,1,.5,9.19c0,9.7-3.61,16.61-9.25,21.56,7,12.91,23.71,17.06,42.22,10.07V100l-.32.58c-37.48,9.11-46.91-12.4-54.65-25-4.18.69-8.37,4-12.55,8.87l.12,21.5-.88.63-9.83-2.92.32-14.26-.13-.06a16.69,16.69,0,0,1-10.4,3.29c-6.72,0-11-3.29-15.53-7.92-3.3-3.81-5.71-8.37-5.71-12.94,0-9.25,7.42-15.21,17.31-15.21A47,47,0,0,1,160.76,59V49.71H125.89Zm39.31,25.81a30.78,30.78,0,0,0-6.15-.57c-10.59,0-15.47,5.39-15.47,11.6,0,3.42,2.54,5.07,6.78,5.07,4.89,0,10-2.41,14.84-7.48ZM171,69l.19.13a16,16,0,0,1,10.21-3.55,9.42,9.42,0,0,1,1.9.19c.95-1,2.66-1.46,5.14-1.46,1.52,0,2.85.06,5,.19,1.14-2.15,1.9-5,1.9-9.7a45.4,45.4,0,0,0-.32-5.07H171Zm67.65-3.74a27.22,27.22,0,0,0-4.75-.31c-7,0-13.76,4.18-13.76,10.39,0,3.87,2.54,6.28,7.23,6.28a12.92,12.92,0,0,0,7.73-2.54,7.58,7.58,0,0,0,3.55-7Z"/><path class="cls-2" d="M254.54,41l.89-1.2h10.2c-.63-12.94-4.88-20-13.63-20-5.39,0-8.81,3.49-8.81,8.37a12.65,12.65,0,0,0,3.61,8.44l-1,1.46-9.57-4.19a17.51,17.51,0,0,1-4.19-11.16c0-7.42,6-12.49,14.59-12.49,7.48,0,14.77,3.93,21.3,12.87a50.32,50.32,0,0,1,7.54,16.68h8.18L288,48.5l-.88,1.21h-11l.26,56.24-.89.63-10.21-3,.26-53.89h-6.66Z"/></svg>