<svg id="Layer_1" data-name="Layer 1" xmlns="http://www.w3.org/2000/svg" viewBox="0 0 346 133"><defs><style>.cls-1{fill:#f73737;}.cls-2{fill:#191919;}</style></defs><path class="cls-1" d="M96.12,41.05,97,39.82H158l4.38,8.84-.9,1.22H150.21l.26,57.18-.9.65-10.25-3,.32-30.56c-3-.25-5.29-.32-8.32-.32a36.73,36.73,0,0,0-9.41,1,60.26,60.26,0,0,1,.58,7.09c0,2.19-.26,3.87-1.8,5.16a5.94,5.94,0,0,1-3.81,1.42c-2.25,0-5.16-1.87-8.83-5.68s-5.42-7.15-5.42-9.86c0-1.68,1-10.25,17.93-10.25a139.57,139.57,0,0,1,19,1.55V49.88H100.51Z"/><path class="cls-2" d="M155.88,41.05l.91-1.23h28.75l4.38,8.84-.9,1.22H177.8l.26,57.18-.9.65-10.38-3,.26-54.8h-6.77Z"/><path class="cls-2" d="M183.48,41.05l.9-1.23h61.11l4.39,8.84L249,49.88H237.76l.25,57.18-.9.65-10.25-3,.26-13.41a23.85,23.85,0,0,1-12.18,3.36c-6.9,0-13.16-3-18.51-9.67-4-5.1-5.35-9.42-5.35-13,0-8.51,6.39-15.6,19.79-15.6a66.79,66.79,0,0,1,16.25,2.38v-9H187.86Zm43.77,26.69a43.72,43.72,0,0,0-9.67-1c-10.51,0-16,5.15-16,11.34,0,3.48,2.84,6.13,9.48,6.13a20.15,20.15,0,0,0,12.83-4.52c2.12-1.74,3.35-3.41,3.35-6.38Z"/></svg>