<svg id="Layer_1" data-name="Layer 1" xmlns="http://www.w3.org/2000/svg" viewBox="0 0 346 133"><defs><style>.cls-1{fill:#191919;}.cls-2{fill:#f73737;}</style></defs><path class="cls-1" d="M66.18,41.05l.9-1.22H127l4.38,8.83-.9,1.23H119.23l.26,57.18-.9.64-10.25-3,.26-17.28a16.83,16.83,0,0,1-8.83,2.58c-4.13,0-8.38-1.55-12.58-4.51C79.46,80,76.36,75.16,76.36,61.36c0-4.12.07-8,.2-11.47h-6Zm42.55,8.84H87.84c-.13,3.35-.19,7.47-.19,12,0,11.61.38,18.25,7.09,18.25,3.16,0,6.44-1.36,10-4.13a10.52,10.52,0,0,0,4-8.57Z"/><path class="cls-1" d="M124.91,41.05l.9-1.22h64.53l4.39,8.83-.91,1.23H182.61l.25,57.18-.9.64-10.38-3,.26-54.79H153c.58,6.64.77,12.24.77,17,0,10.19-1.1,16-3.42,20-1.8,2.64-3.8,3.55-5.8,3.55s-4.83-1.81-8.12-5.35c-2.9-3.16-4.9-6.26-4.9-8.9a5.72,5.72,0,0,1,1.35-3.8c1.42-1.68,4.77-2.45,10.06-3.1a63.42,63.42,0,0,0,.45-8.7,84.56,84.56,0,0,0-.64-10.7H129.29Z"/><path class="cls-2" d="M188.28,41.05l.9-1.22h58.67l4.38,8.83-.9,1.23H239.72L239.85,65l-1.09,1.36h-9.09a97,97,0,0,0-11,.51c-3,.39-5.16,1.29-6.51,2.84a5.22,5.22,0,0,0-1.42,3.16c0,1.41,1.35,2,3,2,5.22,0,11.41-2.06,16.89-2.06,7.22,0,9.54,3.1,12.25,8.06a19.3,19.3,0,0,1,2.57,9.41c0,7-6.31,15.35-17.85,15.35-12.06,0-24-8.51-34.23-25.4l.06-.78L198,76.32c7.48,12.44,15.35,18.05,24.37,18.05,9.35,0,14.57-6.32,14.57-9.8,0-.58-.51-1-2.64-1-3.23,0-12.64,2.32-17,2.32-3.16,0-6.19-2.06-10.32-6.83-3.48-4.13-5.54-8-5.54-11.74,0-9.41,8.57-11.15,20-11.15h7.74V49.89H192.66Z"/><path class="cls-2" d="M232.05,108.87l8.7,8.71-8.7,8.7-8.7-8.7Z"/><path class="cls-1" d="M245.78,41.05l.91-1.22h10.37c-.64-13.15-5-20.31-13.86-20.31-5.48,0-9,3.55-9,8.51a12.88,12.88,0,0,0,3.68,8.58l-1,1.48-9.73-4.26A17.79,17.79,0,0,1,223,22.49C223,15,229,9.79,237.79,9.79c7.61,0,15,4,21.66,13.08a51.3,51.3,0,0,1,7.67,17h8.32l4.38,8.83-.9,1.23H267.7l.26,57.18-.9.64-10.38-3,.26-54.79h-6.77Z"/></svg>