<svg id="Layer_1" data-name="Layer 1" xmlns="http://www.w3.org/2000/svg" viewBox="0 0 346 133"><defs><style>.cls-1{fill:#f73737;}.cls-2{fill:#191919;}</style></defs><path class="cls-1" d="M90.26,41l.9-1.22h61.5L157,48.65l-.9,1.23h-16l.13,14.76c7.16,7.09,10,11.86,10,18.63C150.28,94.1,140,104,125.78,104c-14.44,0-28-13.86-28-26,0-10.77,7.8-17.86,24-17.86H127c1.81,0,2.58-.39,2.58-2.45l-.06-7.73H94.64Zm46.67,28.82h-5.22c-9.8,0-15.21,1.42-19,4.71a11.51,11.51,0,0,0-3.61,8.51c0,7.41,5.22,10.89,11.67,10.89,10.57,0,19.4-7.86,19.4-16.44A10.43,10.43,0,0,0,136.93,69.86Z"/><path class="cls-2" d="M136.8,41.11c-5-13.54-7.8-21.79-17.47-21.79a44.94,44.94,0,0,0-12.5,1.8h-.26L101.67,9A49.81,49.81,0,0,1,115,7.2c13.15,0,17.8,10.38,28.5,33.26l-.45.65Z"/><path class="cls-2" d="M150.6,41l.9-1.22h72.27l4.38,8.83-.9,1.23H216l.26,57.18-.9.64-10.25-3,.19-36.17c-10.31,2.9-13,7-15.6,16.05h-.9l-8.58-5.86c1-4.58,2.58-8.45,4.77-11.09a10.39,10.39,0,0,0-4.57-1c-6.32,0-11.74,5.8-11.74,13.21,0,8.38,6.51,13.61,19,17.73l-3.16,10.12-.84.32c-13.15-6.83-25.4-21-25.4-34.48,0-10.71,7.16-16.77,15.67-16.83,5.93,0,9.54,2.38,15.28,6.77,3.8-2.58,8.89-4.64,16.11-5.8v-7.8H155Z"/><path class="cls-2" d="M221.7,41l.91-1.22h28.75l4.38,8.83-.9,1.23H243.62l.26,57.18-.9.64-10.38-3,.26-54.79h-6.77Z"/></svg>