<svg id="Layer_1" data-name="Layer 1" xmlns="http://www.w3.org/2000/svg" viewBox="0 0 346 133"><defs><style>.cls-1{fill:#f73737;}.cls-2{fill:#191919;}</style></defs><path class="cls-1" d="M70.43,41.05l.91-1.23h62.14l4.39,8.84L137,49.88H125.75l.25,57.18-.9.65-10.25-3,.26-14.95a18.9,18.9,0,0,1-10.38,2.7c-12.76,0-22.24-9.22-28.62-27.07l.71-1.23c9.21-2.06,15.47-4.64,15.47-9.86a7,7,0,0,0-1.61-4.45H74.82Zm44.81,8.83H98.61c2,3.74,3.67,7.41,3.67,11.48,0,6.25-5.42,10-14.5,12.12,1.35,5.28,5.6,8.18,12.63,8.18a18.34,18.34,0,0,0,11.48-3.93c2.12-1.74,3.35-4.06,3.35-7.67Z"/><path class="cls-2" d="M89.71,105.55h.77c9.29,12.12,17,17.93,24.18,17.93,5.35,0,10.57-3.49,10.57-8,0-1.09-.9-2.51-3.61-2.51s-5.93,1.48-9,3.74h-.84l-5.35-9c4.06-2.9,7.93-4.38,11.09-4.38,4.64,0,8.83,2.51,12.18,8.89a18,18,0,0,1,2.32,8.38c0,6.52-5.6,11.93-13.92,11.93-9.74,0-19.92-7.67-31.53-23.4Z"/><path class="cls-2" d="M131.42,41.05l.9-1.23h61.12l4.38,8.84-.9,1.22H185.7l.26,57.18-.9.65-10.25-3,.25-13.41a23.8,23.8,0,0,1-12.18,3.36c-6.9,0-13.15-3-18.5-9.67-4-5.1-5.35-9.42-5.35-13,0-8.51,6.38-15.6,19.79-15.6a66.72,66.72,0,0,1,16.24,2.38v-9H135.8Zm43.77,26.69a43.72,43.72,0,0,0-9.67-1c-10.51,0-16,5.15-16,11.34,0,3.48,2.84,6.13,9.48,6.13a20.15,20.15,0,0,0,12.83-4.52c2.13-1.74,3.35-3.41,3.35-6.38Z"/><path class="cls-2" d="M191.37,41.05l.91-1.23h78.9l4.39,8.84-.91,1.22H241.59V65.35l.2.13a18.1,18.1,0,0,1,10.31-3.74A15.19,15.19,0,0,1,264,67.29a19.19,19.19,0,0,1,5.42,13.34c0,6.51-3.16,14-8.06,20.44h-.9l-9.61-7.42c5.55-6.89,9.67-14.05,9.67-19,0-2.39-1-3.49-3.22-3.49-4.64,0-10.32,4.2-15.54,10.26l.13,25.65-.9.65-10-3,.32-14.5-.13-.07a16.9,16.9,0,0,1-10.57,3.35c-6.84,0-11.22-3.35-15.8-8C201.43,81.6,199,77,199,72.32c0-9.42,7.54-15.48,17.6-15.48a47.83,47.83,0,0,1,14.63,2.52V49.88H195.76Zm40,26.24a31,31,0,0,0-6.25-.58c-10.77,0-15.73,5.48-15.73,11.79,0,3.49,2.58,5.16,6.9,5.16,5,0,10.12-2.45,15.08-7.61Z"/></svg>