<svg id="Layer_1" data-name="Layer 1" xmlns="http://www.w3.org/2000/svg" viewBox="0 0 346 133"><defs><style>.cls-1{fill:#191919;}.cls-2{fill:#f73737;}</style></defs><path class="cls-1" d="M79.49,41.09l.9-1.22h69.24L154,48.7l-.9,1.22H141.89l.26,57.18-.9.65-10.25-3,.32-22.3a76.39,76.39,0,0,1-8.64.45,36.62,36.62,0,0,1-15.08-3.48c-1.87,2.71-5,5-7.29,6.7,5.1,5.22,12.9,10.12,22.76,14.83l-4.83,10.77h-1c-10.77-8.19-20-17-26.37-26.56-3.29-5-4.77-8.84-4.77-11.42,0-3.61,2.19-6.76,6.58-6.76a52.93,52.93,0,0,1,5.41.38,31.94,31.94,0,0,0,1-8.51,45.28,45.28,0,0,0-.84-9H83.87Zm28.82,8.83A74.41,74.41,0,0,1,109.66,64a51.71,51.71,0,0,1-.32,6.64,56.57,56.57,0,0,0,10.38,1,47.58,47.58,0,0,0,11.54-1.23V49.92Z"/><path class="cls-1" d="M147.57,41.09l.9-1.22h10.38c-.65-13.16-5-20.31-13.86-20.31-5.48,0-9,3.54-9,8.51a12.84,12.84,0,0,0,3.67,8.57l-1,1.48L129,33.87a17.85,17.85,0,0,1-4.25-11.35c0-7.54,6.06-12.7,14.82-12.7,7.61,0,15,4,21.66,13.09a51.43,51.43,0,0,1,7.68,17h8.31l4.39,8.83-.91,1.22H169.49l.25,57.18-.9.65-10.38-3,.26-54.8H152Z"/><path class="cls-2" d="M175.16,41.09l.9-1.22h58.47l4.39,8.89L238,49.92H224.86l.07,17.47-1,1.36h-7.41c-15.47,0-21.86,5.35-21.86,14.5,0,7.8,6.45,14,13,14a13.9,13.9,0,0,0,3.22-.32l.13-.26c-4-3.29-6.38-7.16-6.38-12.12,0-6.12,5.09-11.67,12.63-11.67,4.77,0,8.64,2.32,11.86,5.93A17.12,17.12,0,0,1,233.76,90c0,10.57-9.86,16.18-20.11,16.18A31.49,31.49,0,0,1,192.05,97c-5.87-5.8-9.22-12.31-9.22-19.79,0-8.44,5-18,22.95-18h6.13c1.74,0,2.32-.71,2.32-2.45V49.92H179.54ZM221.9,81.38c-3.42,0-6.9,3-6.9,7.8a7.9,7.9,0,0,0,2.64,6.38c5.16-2.25,8.06-6,8.06-10C225.7,83.7,224.8,81.38,221.9,81.38Z"/><path class="cls-1" d="M232.47,41.09l.9-1.22h10.38c-.64-13.16-5-20.31-13.86-20.31-5.48,0-9,3.54-9,8.51a12.85,12.85,0,0,0,3.68,8.57l-1,1.48-9.74-4.25a17.85,17.85,0,0,1-4.25-11.35c0-7.54,6.06-12.7,14.83-12.7,7.6,0,15,4,21.66,13.09a51.62,51.62,0,0,1,7.67,17h8.32l4.38,8.83-.9,1.22H254.39l.26,57.18-.91.65-10.37-3,.25-54.8h-6.77Z"/><path class="cls-2" d="M218.74,108.91l8.7,8.7-8.7,8.71-8.7-8.71Z"/></svg>