<svg id="Layer_1" data-name="Layer 1" xmlns="http://www.w3.org/2000/svg" viewBox="0 0 346 133"><defs><style>.cls-1{fill:#191919;}.cls-2{fill:#f73737;}</style></defs><path class="cls-1" d="M166.5,41.12l.93-1.25H230.3l4.5,9.05-.93,1.26h-11.5l.26,58.64-.92.66-10.52-3,.2-35.9H206c-10.18,0-14.81,1.19-17.72,3.38a9.79,9.79,0,0,0-4.17,8.13c0,6.81,5.49,10.77,17.26,17.25l-4.76,10.45-1,.2c-11-8-21.16-22.15-21.16-34,0-7.08,3.57-16.4,21.69-16.4,5.55,0,10.77.14,15.27.27V50.18H171Z"/><path class="cls-1" d="M141.21,41.1l.93-1.26h12.49c-3.24-3.9-5-7.4-5-11.43,0-9,7.47-18.71,22.87-18.71,13.36,0,27.9,7.07,44.3,23.27L214,37.33h-.86c-10.77-10-21.88-16.53-33.71-16.53-11.57,0-18.85,7-18.85,14.81a9.27,9.27,0,0,0,.93,4.23h10.11l4.5,9.06-.93,1.26h-11.5L164,108.8l-.93.66-10.64-3.11.26-56.19h-6.94Z"/><path class="cls-1" d="M33.57,41.1l.93-1.26H47c-3.24-3.9-5-7.4-5-11.43,0-9,7.47-18.71,22.87-18.71,13.36,0,27.9,7.07,44.3,23.27l-2.78,4.36h-.86C94.73,27.28,83.62,20.8,71.79,20.8c-11.57,0-18.85,7-18.85,14.81a9.27,9.27,0,0,0,.93,4.23H64l4.49,9.06-.92,1.26H56.05l.27,58.64-.93.66-10.64-3.11L45,50.16H38.07Z"/><path class="cls-2" d="M151.12,39.87H110a1.09,1.09,0,0,0-1,1.57l3.75,7.88a1.09,1.09,0,0,0,1,.63h11.5V63.07a1.11,1.11,0,0,1-.37.84c-1.22,1-3.33,3.57-7.6,4.38a56.49,56.49,0,0,1-13.67.3c7.75-7.29,2.29-20.6-2.46-24.88C98.76,41,94,38.21,86.25,38.23c-8,0-12.1,5.67-12,12.49.08,5.3,4.34,11.54,10.89,16.4-8.2,4.25-12,10.9-12.61,15.29C71.45,90,74.82,107.66,98,107.66a26.6,26.6,0,0,0,6.52-.76c.2.32.36.56.44.68a.66.66,0,0,1,.09.19l6.5,16.34a1.12,1.12,0,0,0,.64.62l10,3.72a1.11,1.11,0,0,0,1.39-1.49l-11.1-24.44a12.09,12.09,0,0,0,3.55-7c0-1.73-.58-13.16-11-13.16-6.1-.1-8.35,5.67-8.35,7.3s.87,4.25,2,6.82a16.29,16.29,0,0,1-5.68,1c-6.72,0-8.74-4.23-8.55-9.22.17-4.27,4.2-9.37,12.3-14.9,8.79,3.33,17.39,4.27,22.08,4a23.92,23.92,0,0,0,6-1,.34.34,0,0,1,.45.33v29a.11.11,0,0,0,.08.11l8.55,2.93a1.1,1.1,0,0,0,1.46-1V50.19l15.8,0a1.1,1.1,0,0,0,1.1-1.1V41A1.1,1.1,0,0,0,151.12,39.87ZM93.45,48.41c5.28,0,6.34,3.45,6.34,5.9,0,2.12-2.16,6.28-9,10-3.92-2.55-6.35-5.85-6.28-9C84.61,50.81,88.17,48.41,93.45,48.41Z"/><path class="cls-1" d="M226.94,41.12l.93-1.25h80.06l4.5,9.05-.93,1.26H300l.26,58.64-.92.66-10.52-3,.27-35.5H275.4c3.51,6,4.83,9.85,4.83,14.55,0,6.87-5.55,14.14-15.54,14.14-12.16,0-23.27-10.71-33.12-35.17l6.08-3c7,17.72,14.48,25.78,23,25.78,6.35,0,10.58-5.29,10.58-9.91,0-3.77-3.7-6-11.64-7l-4.16-9.45.92-1.13h32.73V50.18H231.44Z"/></svg>