<svg id="Layer_1" data-name="Layer 1" xmlns="http://www.w3.org/2000/svg" viewBox="0 0 500 470"><defs><style>.cls-1{fill:#fff;}</style></defs><path class="cls-1" d="M373.08,216.42V78.35l-142.82-.16,1.19,138.23Zm-6-132.08V210.42H237.4L236.31,84.2Z"/><path class="cls-1" d="M487.53,11.4a6,6,0,0,0-4.25-1.76H16.72a6,6,0,0,0-6,6L11,78.15a6,6,0,0,0,6,6H164.21V214.6l-3.34.15c-14.38.91-35.69,5.61-47.05,12.55l-1.25.64-.24.13c-40.7,23.42-47.22,61.68-39.74,89.67,8.3,31.07,37,62.41,82.54,62.41h1.71l2.77-.1c26.32-1.65,47.28-14.61,60.62-37.5,10.37-17.8,13.2-36.17,14.13-42.21.09-.55.15-1,.19-1.2a5.56,5.56,0,0,0,.11-1l.42-14.63,132,.85v170a6,6,0,0,0,6,6l60.94-.08a6,6,0,0,0,6-6V84.38l43.1-.26a6,6,0,0,0,6-6l.2-62.48A6,6,0,0,0,487.53,11.4Zm-4.45,66.72-49.06.3h0V454.28l-60.94.08v-176l-143.83-.92-.58,20.5c-1,5.13-7.67,72.22-69.43,76.08l-2.5.09c-77.86,1.39-114.32-98.93-41.42-140.87l1.45-.74c10.71-6.64,31.39-11,44.48-11.79l9-.39V78.12H17l-.28-62.48H483.28Z"/><path class="cls-1" d="M158.69,308.19c5.58-3.66,7.14-10.69,12.39-25.4,0,0-16.41,0-27.46,10C135.52,300.11,149.74,314.05,158.69,308.19Zm-11-11c4.39-4,9.95-6.07,14.55-7.18-2.77,8-4.23,11.44-6.8,13.13a2.58,2.58,0,0,1-1.49.42c-2.41,0-5.56-2.29-6.49-4.71C147,297.81,147.27,297.56,147.65,297.22Z"/></svg>