<svg id="Layer_1" data-name="Layer 1" xmlns="http://www.w3.org/2000/svg" viewBox="0 0 535 455"><defs><style>.cls-1{fill:#8d8e8d;}</style></defs><path class="cls-1" d="M231.45,19.76l.4,62.42H340.34V243c-22.37-5.68-46.72-13.49-65.49-22.23C246.46,207.67,232,204,214.14,193c8.39-8.95,11.69-21.53,13.22-33.39a140.72,140.72,0,0,0-.54-40.88,105.84,105.84,0,0,0-6.57-23.28c-6.33-15.25-16.55-28.55-28.08-40.24-14.78-15-32.42-27.8-52.6-34.33A91.11,91.11,0,0,0,122.08,17,84.48,84.48,0,0,0,85.8,20.49C67.43,26.56,51.39,38.71,39.69,54,29.46,67.46,22.16,83.66,20.07,100.58c-2.47,20.1,3.14,40.64,14.59,57.25a89,89,0,0,0,11,13.06,134.07,134.07,0,0,0,24.67,18.76c9.51,5.72,19.42,10.72,29.37,15.62-11.58,9.47-41.57,31.57-70.49,46.82,5.64,12.81,31.56,51.55,31.56,51.55,32.51-20,98.29-57.86,115.47-70l63.6,35.23L55.76,393.27l51,44.57L311.15,294.43l29.19,9.19V437.88l62.52.75V82.18H515.5V19.76Zm-57.86,121a49.7,49.7,0,0,1-12.26,20.55,58.53,58.53,0,0,1-8.24,6.82c-1.65,1.14-3.34,2.22-5.08,3.21-.82.47-4.75,3.25-5.56,2.91,0,0-88.62-35.78-51.63-85.33,8.07-10.81,21.71-16.54,35-16.78,12.94-.23,25.65,5.26,34.89,14.34C174.88,100.39,179.43,122,173.59,140.76ZM214.13,193Z"/></svg>