<svg id="Layer_1" data-name="Layer 1" xmlns="http://www.w3.org/2000/svg" viewBox="0 0 360 525"><defs><style>.cls-1{fill:#fff;}</style></defs><path class="cls-1" d="M350,16a6,6,0,0,0-6-5.91h-329a6,6,0,0,0-6,6V79a6,6,0,0,0,6,6H213v34.1H127c-24.57,0-43.46,5-56.14,14.77C57.74,144,51.07,159.28,51.07,179.16c0,12.26,5,27.74,15.41,47.32,8.86,16.78,18.41,31,28.45,42.39-22.78,24.21-34.32,49.88-34.32,76.37,0,36.23,19.53,69.37,58,98.47,41.16,31.79,97.81,55,173.21,71.07a5.81,5.81,0,0,0,1.24.13,6,6,0,0,0,6-5.86l.78-33.27a6,6,0,0,0-4.63-6c-63.89-14.9-91.22-28.2-114.6-44.85s-34.84-36.78-34.84-61.43c0-19.94,10.29-37.62,31.46-54,21.34-16.55,46.45-24.94,74.62-24.94A17.85,17.85,0,0,1,264.15,289c3.64,3.23,4.48,6,4.8,8,3.79,23.67-28.45,50.74-42.22,62.3l-1.41,1.19a6,6,0,0,0-.91,8.22l35.36,46.49a6,6,0,0,0,4.31,2.35l.47,0a6,6,0,0,0,4.14-1.66c5.21-5,51.09-50,57.7-96,2-14.05-1.71-30.67-10.23-45.61-10.46-18.35-27.54-33.17-49.39-42.88-12.39-6.56-29.77-9.75-53.1-9.75-14.28,0-30.24,2.63-47.44,7.81-15.15,4.57-26.62,9-34.91,13.38-5.26-4.37-7.83-11.19-7.83-20.75,0-11.76,4-27.39,38.82-27.39h117a6,6,0,0,0,6-6L285.63,85h59.29a6,6,0,0,0,6-6.09ZM279.65,79l-.31,109.69h-117q-44.82,0-44.82,33.39,0,19.88,13.51,27.82,11.92-7.16,37-14.71t45.7-7.55q33.39,0,50.48,9.15c46.51,20.58,59.51,59.87,56.3,82.24-5.63,39.15-42.09,79.28-55.9,92.49L229.18,365c13.95-11.74,50.16-41.11,45.7-69-.58-3.65-2.26-7.55-6.76-11.52a23.75,23.75,0,0,0-16.29-6q-44.54,0-78.3,26.2t-33.78,58.78q0,39.72,37.36,66.32c24.9,17.73,53.12,31,116.72,45.81L293,508.91C218.32,493,162,469.66,122.26,439q-55.65-42.1-55.65-93.72,0-39.71,36.57-76.25-16.7-17.48-31.4-45.31T57.07,179.16q0-54,70-54h92V79H15.08V16.09H344L344.92,79Z"/></svg>