<svg id="Layer_1" data-name="Layer 1" xmlns="http://www.w3.org/2000/svg" xmlns:xlink="http://www.w3.org/1999/xlink" viewBox="0 0 1600 900"><defs><style>.cls-1{fill:none;}.cls-2{clip-path:url(#clip-path);}.cls-3{fill:url(#radial-gradient);}.cls-4{fill:#d7eef4;}.cls-14,.cls-4,.cls-5,.cls-6,.cls-7{fill-rule:evenodd;}.cls-5{fill:#fac417;}.cls-6{fill:#ffec00;}.cls-7,.cls-9{fill:#fff;}.cls-8{fill:#bae4f4;}.cls-10{fill:#7d92ea;}.cls-11{fill:#f7f1bc;}.cls-12{fill:#889dd3;}.cls-13{fill:#ddc4b6;}.cls-14{fill:#f0f6f7;}</style><clipPath id="clip-path"><rect class="cls-1" width="1600" height="900"/></clipPath><radialGradient id="radial-gradient" cx="800" cy="450" fx="756.5320709492287" fy="692.5762850184254" r="873.91" gradientUnits="userSpaceOnUse"><stop offset="0.05" stop-color="#309fc1"/><stop offset="0.15" stop-color="#46abcd"/><stop offset="0.3" stop-color="#63bbdc"/><stop offset="0.46" stop-color="#78c6e7"/><stop offset="0.61" stop-color="#85cdee"/><stop offset="0.75" stop-color="#89cff0"/></radialGradient></defs><g class="cls-2"><rect class="cls-3" width="1600" height="900"/><path class="cls-4" d="M1526,151.37h0a5.25,5.25,0,0,1-1.92,7.16l-87.17,44.28,81.93-53.35a5.17,5.17,0,0,1,7.16,1.91m20.52,76.6h0a5.25,5.25,0,0,1-5.23,5.24L1443.62,228l97.63-5.23A5.15,5.15,0,0,1,1546.48,228ZM1526,304.57h0a5.25,5.25,0,0,1-7.16,1.92l-81.93-53.35L1524,297.42A5.16,5.16,0,0,1,1526,304.57Zm-56.08,56.08h0a5.25,5.25,0,0,1-7.15-1.92l-44.28-87.17,53.35,81.93A5.16,5.16,0,0,1,1469.88,360.65Zm-76.6,20.52h0a5.24,5.24,0,0,1-5.23-5.23l5.23-97.63,5.24,97.63A5.16,5.16,0,0,1,1393.28,381.17Zm-76.6-20.52h0a5.26,5.26,0,0,1-1.91-7.16l53.35-81.93-44.28,87.17A5.16,5.16,0,0,1,1316.68,360.65Zm-56.07-56.08h0a5.25,5.25,0,0,1,1.92-7.15l87.16-44.28-81.93,53.35A5.15,5.15,0,0,1,1260.61,304.57ZM1240.08,228h0a5.25,5.25,0,0,1,5.24-5.23L1343,228l-97.63,5.24A5.16,5.16,0,0,1,1240.08,228Zm20.53-76.6h0a5.25,5.25,0,0,1,7.15-1.91l81.93,53.35-87.16-44.28A5.16,5.16,0,0,1,1260.61,151.37Zm56.07-56.07h0a5.25,5.25,0,0,1,7.16,1.92l44.28,87.16-53.35-81.93A5.16,5.16,0,0,1,1316.68,95.3Zm76.6-20.53h0a5.26,5.26,0,0,1,5.24,5.24l-5.24,97.63L1388.05,80A5.15,5.15,0,0,1,1393.28,74.77Zm76.6,20.53h0a5.25,5.25,0,0,1,1.92,7.15l-53.35,81.93,44.28-87.16A5.16,5.16,0,0,1,1469.88,95.3Z"/><polygon class="cls-5" points="1397.32 202.28 1398.94 221.13 1411.3 206.82 1401.54 223.03 1419.95 218.72 1402.53 226.09 1419.95 233.43 1401.52 229.15 1411.3 245.32 1398.91 231.03 1397.32 249.87 1395.69 231.02 1383.33 245.32 1393.09 229.12 1374.69 233.43 1392.11 226.05 1374.69 218.72 1393.12 223 1383.33 206.82 1395.73 221.11 1397.32 202.28"/><polygon class="cls-5" points="1483.43 751.46 1485.06 770.3 1497.42 756 1487.66 772.21 1506.07 767.9 1488.64 775.27 1506.07 782.6 1487.64 778.33 1497.42 794.5 1485.03 780.21 1483.43 799.04 1481.81 780.2 1469.45 794.5 1479.21 778.29 1460.8 782.6 1478.23 775.23 1460.8 767.9 1479.23 772.17 1469.45 756 1481.84 770.29 1483.43 751.46"/><polygon class="cls-6" points="367.94 487.63 390.93 509.85 419.65 500.4 405.63 529.13 423.49 553.53 392.99 549.23 374.14 573.6 369.91 543.66 339.81 532.87 366.98 519.59 367.94 487.63"/><path class="cls-7" d="M395.78,348.14c.87,5.33,4,7.82,8.54,8.54-5.33.88-7.82,4-8.54,8.54-.88-5.33-4-7.82-8.54-8.54,5.33-.87,7.82-4,8.54-8.54"/><path class="cls-7" d="M488.32,65.86c1.16,7,5.3,10.34,11.29,11.29-7,1.16-10.33,5.29-11.29,11.29C487.17,81.4,483,78.1,477,77.15c7-1.16,10.33-5.29,11.28-11.29"/><path class="cls-7" d="M982.44,300.22c1.16,7,5.29,10.33,11.29,11.28-7,1.16-10.34,5.3-11.29,11.29-1.15-7-5.29-10.34-11.28-11.29,7-1.15,10.33-5.29,11.28-11.28"/><path class="cls-7" d="M1142.84,72.54c3.19,19.43,14.6,28.51,31.13,31.14-19.42,3.19-28.5,14.6-31.13,31.13-3.19-19.43-14.6-28.51-31.13-31.13,19.43-3.19,28.51-14.6,31.13-31.14"/><path class="cls-7" d="M54.91,828.62c1.1,6.7,5,9.83,10.73,10.74-6.7,1.1-9.83,5-10.73,10.73-1.1-6.7-5-9.83-10.74-10.73,6.7-1.1,9.83-5,10.74-10.74"/><path class="cls-7" d="M73.16,853.34a2.95,2.95,0,0,1,0,5.89,2.95,2.95,0,1,1,0-5.89"/><path class="cls-7" d="M168.27,652.65a2.95,2.95,0,1,1,0,5.89,2.95,2.95,0,0,1,0-5.89"/><path class="cls-7" d="M93.27,718.17a4.27,4.27,0,0,0,3.89,3.89,4.29,4.29,0,0,0-3.89,3.9,4.3,4.3,0,0,0-3.89-3.9,4.27,4.27,0,0,0,3.89-3.89"/><path class="cls-7" d="M143.82,645.14c1.1,6.7,5,9.83,10.74,10.73-6.7,1.1-9.83,5-10.74,10.74-1.1-6.7-5-9.83-10.74-10.74,6.7-1.1,9.83-5,10.74-10.73"/><circle class="cls-8" cx="235.61" cy="440.68" r="34.59"/><circle class="cls-9" cx="333.02" cy="740.68" r="48"/><circle class="cls-10" cx="1246.44" cy="797.15" r="48"/><circle class="cls-11" cx="1439.85" cy="545.15" r="61.41"/><circle class="cls-12" cx="1151.85" cy="583.97" r="17.65"/><circle class="cls-13" cx="460.79" cy="200.68" r="17.65"/><path class="cls-14" d="M162.44,95.1h0a1.35,1.35,0,0,1,2,0l6.35,8.34-8.34-6.35a1.35,1.35,0,0,1,0-2M148.07,120h0a1.36,1.36,0,0,1,1.73-1l9.66,4.05-10.39-1.33A1.35,1.35,0,0,1,148.07,120Zm0,28.74h0a1.36,1.36,0,0,1,1-1.73l10.39-1.33-9.67,4.05A1.35,1.35,0,0,1,148.07,148.73Zm14.37,24.89h0a1.36,1.36,0,0,1,0-2l8.34-6.34-6.35,8.34A1.36,1.36,0,0,1,162.44,173.62ZM187.33,188h0a1.36,1.36,0,0,1-1-1.73l4-9.66L189.05,187A1.35,1.35,0,0,1,187.33,188Zm28.74,0h0a1.36,1.36,0,0,1-1.73-1L213,176.6l4.05,9.66A1.36,1.36,0,0,1,216.07,188ZM241,173.62h0a1.35,1.35,0,0,1-2,0l-6.34-8.34,8.33,6.35A1.35,1.35,0,0,1,241,173.62Zm14.38-24.89h0a1.36,1.36,0,0,1-1.73,1l-9.67-4,10.4,1.33A1.35,1.35,0,0,1,255.33,148.73Zm0-28.74h0a1.36,1.36,0,0,1-1,1.73l-10.4,1.33,9.67-4A1.35,1.35,0,0,1,255.33,120ZM241,95.1h0a1.37,1.37,0,0,1,0,2l-8.34,6.34L239,95.1A1.36,1.36,0,0,1,241,95.1ZM216.07,80.73h0a1.36,1.36,0,0,1,1,1.73l-4,9.66,1.32-10.39A1.36,1.36,0,0,1,216.07,80.73Zm-28.74,0h0a1.36,1.36,0,0,1,1.73,1l1.32,10.39-4-9.66A1.36,1.36,0,0,1,187.33,80.73Z"/><path class="cls-14" d="M283.78,216.44h0a4,4,0,0,1-5.63,0l-25.57-31.2,31.2,25.57a3.86,3.86,0,0,1,0,5.63m30.05-52h0a4,4,0,0,1-4.88,2.82L271.21,153l39.8,6.55A3.87,3.87,0,0,1,313.83,164.4Zm0-60.09h0a4,4,0,0,1-2.82,4.88l-39.8,6.54L309,101.5A3.87,3.87,0,0,1,313.83,104.31Zm-30.05-52h0a4,4,0,0,1,0,5.63l-31.2,25.56,25.57-31.2A3.87,3.87,0,0,1,283.78,52.28Zm-52-30h0a4,4,0,0,1,2.82,4.88L220.32,64.85l6.54-39.8A3.87,3.87,0,0,1,231.74,22.23Zm-60.09,0h0a4,4,0,0,1,4.88,2.82l6.54,39.8L168.84,27.11A3.87,3.87,0,0,1,171.65,22.23Zm-52,30.05h0a4,4,0,0,1,5.64,0l25.56,31.2-31.2-25.57A3.87,3.87,0,0,1,119.61,52.28Zm-30,52h0a4,4,0,0,1,4.88-2.82l37.74,14.24-39.81-6.55A3.86,3.86,0,0,1,89.57,104.32Zm0,60.09h0a4,4,0,0,1,2.82-4.88l39.8-6.54L94.45,167.22A3.87,3.87,0,0,1,89.57,164.41Zm30,52h0a4,4,0,0,1,0-5.63l31.2-25.56-25.56,31.2A3.88,3.88,0,0,1,119.61,216.44Zm52,30.05h0a4,4,0,0,1-2.81-4.88l14.23-37.74-6.54,39.8A3.86,3.86,0,0,1,171.65,246.49Zm60.09,0h0a4,4,0,0,1-4.87-2.82l-6.55-39.8,14.24,37.74A3.87,3.87,0,0,1,231.74,246.49Z"/><path class="cls-14" d="M289.84,134.36h0a2.42,2.42,0,0,1-2.42,2.41l-31.09-2.41,31.09-2.42a2.37,2.37,0,0,1,2.42,2.42M278,178.43h0a2.42,2.42,0,0,1-3.3.88L249,161.67l28.13,13.46A2.36,2.36,0,0,1,278,178.43Zm-32.26,32.26h0a2.42,2.42,0,0,1-3.3-.88L229,181.67l17.64,25.72A2.36,2.36,0,0,1,245.77,210.69ZM201.7,222.5h0a2.43,2.43,0,0,1-2.42-2.42L201.7,189l2.41,31.09A2.35,2.35,0,0,1,201.7,222.5Zm-44.07-11.81h0a2.43,2.43,0,0,1-.89-3.3l17.64-25.72-13.45,28.14A2.36,2.36,0,0,1,157.63,210.69Zm-32.26-32.26h0a2.42,2.42,0,0,1,.88-3.3l28.14-13.46-25.72,17.64A2.36,2.36,0,0,1,125.37,178.43Zm-11.81-44.07h0a2.43,2.43,0,0,1,2.42-2.42l31.09,2.42L116,136.78A2.37,2.37,0,0,1,113.56,134.36Zm11.81-44.07h0a2.42,2.42,0,0,1,3.3-.88l25.72,17.64L126.25,93.59A2.35,2.35,0,0,1,125.37,90.29ZM157.63,58h0a2.42,2.42,0,0,1,3.3.88l13.45,28.14L156.74,61.33A2.36,2.36,0,0,1,157.63,58ZM201.7,46.22h0a2.42,2.42,0,0,1,2.41,2.42L201.7,79.73l-2.42-31.09A2.37,2.37,0,0,1,201.7,46.22ZM245.77,58h0a2.43,2.43,0,0,1,.88,3.3L229,87.05l13.46-28.14A2.36,2.36,0,0,1,245.77,58ZM278,90.29h0a2.43,2.43,0,0,1-.89,3.3L249,107.05l25.72-17.64A2.36,2.36,0,0,1,278,90.29Z"/></g></svg>