<svg id="Layer_1" data-name="Layer 1" xmlns="http://www.w3.org/2000/svg" viewBox="0 0 520 480"><defs><style>.cls-1{fill:#8d8e8d;}</style></defs><path class="cls-1" d="M503.25,14.43H16.88l-.15,62.39,139,0s-3.95,75.91-8.89,97.88c0,0-52.58-33.08-89.6,21.23,0,0-39.47,66.05,18.27,112.51,0,0,35.54,27.59,77,0l72,150.25,75.36,6.86L201.35,267.51h159.8v193l61.76,0V76.82l80.36,0ZM117,259c-13.87,1.57-14.38-20.48-9-29.92s18,13.67,18,13.67C126.84,256.6,117,259,117,259ZM361.15,205.6H202.83S212.38,185.15,218,76.85l143.18,0Z"/></svg>