<svg id="Layer_1" data-name="Layer 1" xmlns="http://www.w3.org/2000/svg" viewBox="0 0 465 435"><defs><style>.cls-1{fill:#ff0;}</style></defs><path class="cls-1" d="M329.46,282.36q8.66-10.1,18-35.72T356.87,203q0-20.19-6.49-30t-16.59-9.74q-18,0-31,15.88t-13,37.52Q289.77,251.33,329.46,282.36ZM307.4,183c7.54-9.2,16.17-13.68,26.39-13.68,4.7,0,8.38,2.25,11.6,7.07,3.64,5.46,5.48,14.42,5.48,26.62,0,11.25-3,25.25-9,41.59-4.69,12.81-9.21,22.58-13.49,29.17-21.64-18.23-32.6-37.4-32.6-57.05C295.77,203.58,299.58,192.55,307.4,183Z"/><path class="cls-1" d="M447.31,15.65a6,6,0,0,0-4.25-1.77H21.94a6,6,0,0,0-6,6V79.34a6,6,0,0,0,6,6h83v29.57C90.54,117.85,78.14,123.58,68,132c-15.79,13.17-23.8,29.77-23.8,49.34,0,13.49,7.23,29.76,22.07,49.71,9.7,13.34,19.08,23.87,28,31.4-13.1,12.75-19.73,28.15-19.73,45.88,0,25.89,16.07,51.52,47.77,76.17,31.24,24.3,63.8,36.62,96.76,36.62,46.49,0,91.26-18.25,133.07-54.24a191.78,191.78,0,0,0,16.65-16.19c3.57,3,6.76,5.78,9.5,8.35,11.57,10.79,0,32-.12,32.24a6,6,0,0,0,8,8.23c1.06-.56,25.94-13.94,31.22-32.34A24.37,24.37,0,0,0,415,347.59C410.54,340,402.34,331,390.56,321c15.52-26.65,23.27-55.65,29.93-90.55,4.8-25.17-5.89-58.11-27.23-83.91-20.74-25.07-47.62-38.88-75.68-38.88-27.13,0-54,12.6-79.94,37.44-.16.16-.31.32-.46.49-13.13,15.75-19.79,33.72-19.79,53.4,0,20.45,8.14,40.21,24.2,58.73,14.42,16.64,35.66,32.72,63.2,47.86-13.07,13.76-31.16,25.8-53.88,35.86-25.81,11.42-49.87,17.21-71.53,17.21-19.27,0-27.54-3.1-31.1-5.7-4.72-3.45-6.91-8.21-6.91-15,0-9.81,5.15-17.55,15.77-23.67,13.91-8.08,35.47-12.18,64.09-12.18a6,6,0,0,0,5.49-8.41l-28.14-64.21a6,6,0,0,0-5.49-3.59H183a148.43,148.43,0,0,0-32,3.75c-9.21,2.05-16.19,4.28-21.17,6.75a65,65,0,0,1-11.61-9.89c-4.76-5.56-7.18-10.79-7.18-15.54,0-8.69,3.25-15.39,9.91-20.48,7-5.32,11.21-7.09,22.64-7.09h.4a6,6,0,0,0,6-6v-92H442.88a6,6,0,0,0,6-6l.18-59.46A6,6,0,0,0,447.31,15.65Zm-4.43,63.69H144v40h0v58.06h-.4c-12.52,0-18.11,2.08-26.28,8.32s-12.27,14.68-12.27,25.25q0,9.39,8.66,19.48a75.93,75.93,0,0,0,15.88,13q6.48-4.32,22.72-7.93A141.88,141.88,0,0,1,183,231.85h10.1l28.14,64.21q-44.74,0-67.11,13-18.76,10.83-18.75,28.86,0,13,9.38,19.85t34.63,6.85q33.9,0,74-17.72t61-43.05Q223.4,256.11,223.39,199q0-27.49,18.4-49.56c98-94,184.21,20.15,172.81,79.89-6.35,33.27-14.13,64.53-31.83,93,11.59,9.49,21.88,19.49,27,28.32,13.12,22.67-26.38,43.62-26.38,43.62s14.2-25.36-1-39.56c-4.21-3.93-9.1-8.09-14.28-12.28a180.68,180.68,0,0,1-19.88,20q-61.34,52.8-129.16,52.79-47.61,0-93.07-35.36T80.53,308.33q0-27.4,23.09-46.18-15.15-10.81-32.47-34.63-20.93-28.14-20.92-46.18,0-26.68,21.64-44.73Q87.6,123.5,111,119.93V79.34h-89V19.88H443.06Z"/></svg>