<svg id="Layer_1" data-name="Layer 1" xmlns="http://www.w3.org/2000/svg" viewBox="0 0 465 435"><defs><style>.cls-1{fill:#8d8e8d;}</style></defs><path class="cls-1" d="M371.88,79.34h71l.18-59.46H21.94V79.34h89v40.59q-23.34,3.58-39.09,16.68-21.65,18-21.64,44.73,0,18,20.92,46.18,17.32,23.8,32.47,34.63-23.1,18.78-23.09,46.18,0,36.09,45.46,71.43t93.07,35.36q67.82,0,129.16-52.79a180.68,180.68,0,0,0,19.88-20c5.18,4.19,10.07,8.35,14.28,12.28,15.21,14.2,1,39.56,1,39.56s39.5-20.95,26.38-43.62c-5.12-8.83-15.41-18.83-27-28.32,17.7-28.46,25.48-59.72,31.83-93,11.4-59.74-74.82-173.85-172.81-79.89Q223.4,171.46,223.39,199q0,57.17,90.92,104.89-20.94,25.34-61,43.05t-74,17.72q-25.26,0-34.63-6.85t-9.38-19.85q0-18,18.75-28.86,22.37-13,67.11-13l-28.14-64.21H183a141.88,141.88,0,0,0-30.67,3.61q-16.23,3.61-22.72,7.93a75.93,75.93,0,0,1-15.88-13q-8.66-10.08-8.66-19.48,0-15.85,12.27-25.25c8.17-6.24,13.76-8.32,26.28-8.32h.4V119.29h0V79.34ZM289.77,216.7q0-21.64,13-37.52t31-15.88q10.09,0,16.59,9.74t6.49,30q0,18-9.38,43.65t-18,35.72Q289.77,251.34,289.77,216.7Z"/></svg>