<svg id="Layer_1" data-name="Layer 1" xmlns="http://www.w3.org/2000/svg" viewBox="0 0 635.18 652.35"><defs><style>.cls-1{opacity:0.3;}.cls-2{fill:#fcc172;}.cls-3{fill:#7b4232;}.cls-4{fill:#864e41;}.cls-5{fill:#663124;}.cls-6{fill:#98604f;}.cls-7{fill:#889138;}.cls-8{fill:#5c7835;}.cls-9{fill:#a3a84c;}.cls-10{fill:#b98d68;}.cls-11{fill:#7dac45;}.cls-12{fill:#96be61;}.cls-13{fill:#539242;}.cls-14{fill:#bfda7e;}.cls-15{fill:#2c773b;}.cls-16{fill:#f3752f;}.cls-17{fill:#f58d46;}.cls-18{fill:#f05b22;}.cls-19{fill:#85a43d;}.cls-20{fill:#77903b;}.cls-21{fill:#fab061;}.cls-22{fill:#f6f4c0;}.cls-23{fill:#fcfae1;}.cls-24{fill:#e1dd95;}.cls-25{fill:#fcb63b;}.cls-26{fill:#ffcc6a;}.cls-27{fill:#ee9d20;}.cls-28{fill:#7f4829;}.cls-29{fill:#cb3d2d;}.cls-30{fill:#e55245;}.cls-31{fill:#b52b26;}.cls-32{fill:#f27360;}.cls-33{fill:#e9d99a;}.cls-34,.cls-36{fill:#f39c56;}.cls-34{stroke:#db854b;stroke-miterlimit:10;stroke-width:6px;}.cls-35{fill:#da7d35;}</style></defs><ellipse class="cls-1" cx="323.33" cy="534.81" rx="228.07" ry="61.32"/><path class="cls-2" d="M285.54,179.55c10.85-21.35,39.94-45.81,63.92-51.1,26.68-5.88,45.92,8.21,63.5,28.44s26.21,46.47,33,72.33c8.25,31.3,13.1,69.68,17.14,101.8,8.55-5.35,15.52,3.56,26.28-10.82,1.83-32.89-2.58-70-8.2-102.23s-21.53-64.7-42.83-89.52c-34-39.64-79.13-42.06-125.46-24-44.23,17.25-74.27,60.5-87.18,106.19s-11.13,94.1-8.26,141.49c16.6,4.9,34.17,5.62,48.72,6.84a680.09,680.09,0,0,1,4-120.12C272.69,218.49,276.23,197.85,285.54,179.55Z"/><path class="cls-3" d="M297.64,282.76a68.58,68.58,0,0,1,20.7,1.45A67.53,67.53,0,0,1,352.09,295c10.78,4.65,20.68,10.9,30.68,17q10.56,6.43,21.61,11.77a246.06,246.06,0,0,0,38.46,10.5q5.87.47,11.75.67a92.25,92.25,0,0,1,20.18,2.26A61.1,61.1,0,0,0,473,310.76a43.19,43.19,0,0,0,17.1-59,32.07,32.07,0,0,0-32-50.25c1.43-4.2-.54-9-3.75-12s-7.48-4.73-11.66-6.21a228.19,228.19,0,0,0-32.17-8.83c-13.7-2.7-28.25-4.08-41.34.79S345,192.77,346,206.69a40.56,40.56,0,0,0-28.86,55.47A42.17,42.17,0,0,0,297.64,282.76Z"/><path class="cls-4" d="M335.91,217.93a31.38,31.38,0,0,0-14.16,29.47c.45,4,2,8.22,5.5,10.12,3.32,1.8,7.39,1,11,0,5.45-1.47,10.88-3.26,15.67-6.25s8.92-7.27,10.86-12.57a20,20,0,0,0-25.07-25.83Z"/><path class="cls-4" d="M416.68,229c-1.58-4.77-4.15-9.46-8.39-12.15-6.67-4.24-15.34-2.46-23-.54-3.92,1-8.13,2.15-10.69,5.28s-2.9,7.88-2.58,12.1a66.18,66.18,0,0,0,5.1,20.95c1.65,3.88,4,7.88,7.91,9.43,4.07,1.61,8.66.11,12.7-1.59,8.15-3.41,16.61-8.34,19.58-16.66C419.23,240.43,418.49,234.41,416.68,229Z"/><path class="cls-4" d="M445.52,288.65c1.87-9-4.38-18.28-12.8-21.86s-18.27-2.27-26.65,1.4c-4.68,2.06-9.4,5.28-10.71,10.22a17.08,17.08,0,0,0,.36,8.36,50.37,50.37,0,0,0,7.54,16.81c2.37,3.41,5.42,6.68,9.44,7.72,5.05,1.29,10.23-1.22,14.77-3.77C435.32,303.13,443.68,297.45,445.52,288.65Z"/><path class="cls-4" d="M477.22,290.6A31.13,31.13,0,0,0,486,277.84a21.83,21.83,0,0,0-.17-15.34,12.91,12.91,0,0,0-6.38-7.08c-3.23-1.42-6.93-1-10.41-.5A39.2,39.2,0,0,0,459,257.31a13.67,13.67,0,0,0-7.42,6.95c-1.2,2.93-1,6.24-.38,9.35A42.06,42.06,0,0,0,457.49,289c1.72,2.56,3.89,5,6.83,6C468.85,296.42,473.68,293.78,477.22,290.6Z"/><path class="cls-4" d="M454.45,246.39A89.5,89.5,0,0,0,472,238.94c3.42-1.9,6.9-4.23,8.54-7.79,2.2-4.76.39-10.67-3.28-14.4s-8.85-5.62-14-6.61a52.41,52.41,0,0,0-21.67.42c-4.13,1-8.54,2.78-10.32,6.63-1.87,4.05-.16,8.73,1.14,13a70.27,70.27,0,0,0,3.16,9.55c1.43,3,3.66,5.85,6.74,7.17C446.11,248.52,450.49,247.61,454.45,246.39Z"/><path class="cls-4" d="M363.86,207.92c2.13,1.64,5.09,1.51,7.76,1.19A96.64,96.64,0,0,0,393.16,204c4.41-1.61,9.13-4,10.75-8.38,1.77-4.81-1.09-10.38-5.37-13.2s-9.61-3.48-14.74-3.69a35.91,35.91,0,0,0-11.56,1,15.51,15.51,0,0,0-9.19,6.7c-2.14,3.69-2.15,8.19-2.1,12.45C361,202.13,361.25,205.9,363.86,207.92Z"/><path class="cls-5" d="M343.13,266a2.64,2.64,0,0,0-1.7-2.08c-2.06-.68-4.95-.4-5.91,1.86l0,.1a2.13,2.13,0,0,0-.64.35,1.91,1.91,0,0,0-.63,2.31c1.45,2.82,6,1.65,7.85-.06A2.75,2.75,0,0,0,343.13,266Z"/><path class="cls-5" d="M355.27,260.66h0v0Z"/><path class="cls-5" d="M438.85,308.47c.13-.53-.37-.86-.82-.91a2,2,0,0,0-.49-.13,2.64,2.64,0,0,0-1.2.25,1.64,1.64,0,0,0-.89,2.12c.15.46.51.64.91.84a1.71,1.71,0,0,0,2-.54,6.55,6.55,0,0,0,.41-.66C438.9,309.11,438.79,308.72,438.85,308.47Z"/><path class="cls-5" d="M427.78,250.15a10.81,10.81,0,0,0,.34-3.74,2.54,2.54,0,0,0-1.28-1.86,1.11,1.11,0,0,0-.57-.26,2.62,2.62,0,0,0-.54-.12,2.85,2.85,0,0,0-3.14,2.31,10.61,10.61,0,0,0,.11,3.89,2.53,2.53,0,0,0,2.87,2,2.7,2.7,0,0,0,2-1.5h0v0A1.9,1.9,0,0,0,427.78,250.15Z"/><path class="cls-5" d="M437.71,252.52a1.54,1.54,0,0,0-1.63-.86,3,3,0,0,0-1.88,1c.24-.25-.09,0-.26.14l-.09,0a2,2,0,0,0-.29.17.9.9,0,0,0-.52,1.44l.08.09c-.05-.19,0-.13.14.17a2.05,2.05,0,0,0,.72.51,3.21,3.21,0,0,0,1.62.21A2.29,2.29,0,0,0,437.71,252.52Z"/><path class="cls-5" d="M414.89,201.16a.62.62,0,0,0,0-.13.48.48,0,0,0,0-.12h0a2.36,2.36,0,0,0-.55-1.26A2.82,2.82,0,0,0,411,199c-1.28.34-1.93,2.42-2.58,3.39-1.48,2.21.69,4.47,3.05,3.69A5.36,5.36,0,0,0,414.89,201.16Z"/><path class="cls-5" d="M421.86,211.28a2.6,2.6,0,0,0-1.7-1.38,3.29,3.29,0,0,0-2.81.44,1.59,1.59,0,0,0-.51,1.89,3.17,3.17,0,0,0,2.23,1.51,3,3,0,0,0,2.58-.87A1.55,1.55,0,0,0,421.86,211.28Z"/><path class="cls-5" d="M428.46,199.32a3.71,3.71,0,0,0-2.38,3.22,1,1,0,0,0,1.14,1.07,7.51,7.51,0,0,0,.82-.19,5.22,5.22,0,0,0,1-.56,3.31,3.31,0,0,0,1.38-2.11C430.76,199.6,429.33,199,428.46,199.32Z"/><path class="cls-6" d="M395.05,219.65c-6.43-2.66-15.05,3.7-16.62,9.91a2.72,2.72,0,0,0-.07.71,9.86,9.86,0,0,0,0,3.38c.79,4.5,5.66,2.81,8.33,1.52,3.39-1.63,7.18-3.83,9.72-6.66S398.94,221.25,395.05,219.65Z"/><path class="cls-6" d="M406.53,224a2.19,2.19,0,0,0-2.52-1.79,2.49,2.49,0,0,0-1.8,1.27l0,0a1.76,1.76,0,0,0-.08,1.32c0,.11,0,.22,0,.33a1.64,1.64,0,0,0,1.86,1.33l.62-.07A2.2,2.2,0,0,0,406.53,224Z"/><path class="cls-6" d="M400.86,231.94a.9.9,0,0,0-1-1,1.81,1.81,0,0,1-.51.08,1.24,1.24,0,0,0-.95,2.2,1.69,1.69,0,0,0,2.14-.09A1.08,1.08,0,0,0,400.86,231.94Z"/><path class="cls-6" d="M395.16,239.41a1.64,1.64,0,0,0-1.47-1.82,1.77,1.77,0,0,0-1.94,1.43l-.21.83a3.2,3.2,0,0,0,.14,1.26,1.46,1.46,0,0,0,1.28,1.21,1.58,1.58,0,0,0,1.59-.89c.14-.25.28-.49.41-.74A3.25,3.25,0,0,0,395.16,239.41Z"/><path class="cls-6" d="M350.64,219.34a7.28,7.28,0,0,0-5.48-3.61c-3.55-.67-9.85,2.64-9.21,6.77-1.9,1.58-3,3.58-.33,5.45,1.73,1.19,4.46.41,6.3-.07a22.8,22.8,0,0,0,6.59-2.51C350.34,224.2,351.92,221.51,350.64,219.34Z"/><path class="cls-6" d="M335.77,231.08a4.19,4.19,0,0,0-2.34.45,4.56,4.56,0,0,0-1.8,1.79c-.54.92.37,2.05,1.3,2.14a4.28,4.28,0,0,0,4.19-2.14C337.69,232.36,336.73,231.17,335.77,231.08Z"/><path class="cls-6" d="M352.18,228.62a1.08,1.08,0,0,0-1.89-.45,3.21,3.21,0,0,0-.71,2.15c0,1,1.62,1.29,2.1.5A3.22,3.22,0,0,0,352.18,228.62Z"/><path class="cls-6" d="M385.06,184.5c-5.32-2.22-12.4-1.14-16.14,3.5a2.73,2.73,0,0,0-.45.79,4.39,4.39,0,0,0-.64.79,3.83,3.83,0,0,0,1.92,5.59c5.44,1.76,12.17-2,16-5.63C387.42,188,387.32,185.45,385.06,184.5Z"/><path class="cls-6" d="M392.31,189.45l-.17-.07a.63.63,0,0,0-1.09.3c-.2,1.14,1,1.67,1.94,1.32S393.31,189,392.31,189.45Z"/><path class="cls-6" d="M421.7,274.14a14.43,14.43,0,0,0-3.35-.71,3.84,3.84,0,0,0-2.92-.16c-.33.09-.66.2-1,.31a14.12,14.12,0,0,0-11,10.62c-.49,1.9,1.32,3.31,3,3.5a2.42,2.42,0,0,0,2.7,1.37c5.61-1.53,10.44-5.79,13.89-10.34A3,3,0,0,0,421.7,274.14Z"/><path class="cls-6" d="M460,218.17a23.19,23.19,0,0,0-24.72.51,3.21,3.21,0,0,0,.8,5.58c.51.17,1,.29,1.55.42a6.32,6.32,0,0,0,2,2.31c2.77,1.88,7.08,1,10.12.54A19.66,19.66,0,0,0,460,223.22C461.43,222,461.92,219.32,460,218.17Z"/><path class="cls-6" d="M478,261.16c-1.42-1.93-4.42-1.75-6.5-1.6-2.42.18-6,.45-8,2a5.81,5.81,0,0,0-1.84,2.23c-3.54,2.11-2.54,5.55-.6,8.52,3,4.56,8.7,6.38,12.72,1.92C476.63,271.1,481.05,265.25,478,261.16Z"/><path class="cls-6" d="M445.18,232.32a3.17,3.17,0,0,0-.6-.16,2,2,0,0,0-1,.13c-.51.3-.53.31-.07.05l-.33.2a.45.45,0,0,0-.19.14,2.19,2.19,0,0,0-.72.86,1.48,1.48,0,0,0-.1.27,1.93,1.93,0,0,0-.54,1.41,2.29,2.29,0,0,0,1.33,1.85l.07,0a2.26,2.26,0,0,0,2.25-.31,3.84,3.84,0,0,0,1.09-1.52A2.27,2.27,0,0,0,445.18,232.32Z"/><path class="cls-6" d="M469.78,219.34a2.7,2.7,0,0,0-1.63-1.56,1.37,1.37,0,0,0-1.8,1.75,2.68,2.68,0,0,0,1.58,1.61A1.41,1.41,0,0,0,469.78,219.34Z"/><path class="cls-7" d="M417.33,138.54c3.47,8.29,14.84,27.55,10.07,36.3-8.25-18.57-9.69-43.25-10.16-63.36a241.4,241.4,0,0,1,7.49-65.77c-.82,3.18,10.11,19.14,11.67,23.1A149.28,149.28,0,0,1,444.27,96a152.9,152.9,0,0,1,.05,56.5,147.3,147.3,0,0,1-7.45,26.05c-2.9,7.51-1.57,16.7-10.28,12.88-16.06-7.05-27.71-26.81-33.18-42.55-6.48-18.69-7.29-38.91-5.85-58.63C402.09,102.66,410,120.94,417.33,138.54Z"/><path class="cls-7" d="M490.85,25.81c0,29.16.06,58.6-6.36,87S464.55,169,441.83,187.3A250.51,250.51,0,0,1,490.85,25.81Z"/><path class="cls-7" d="M544.64,80.87c-9.81,22.82-19.75,45.89-34.67,65.76s-35.51,36.52-59.8,41.75C465,141.58,500.14,101.61,544.64,80.87Z"/><path class="cls-7" d="M449.5,190.63a8.74,8.74,0,0,1,2.49-2.58,238,238,0,0,1,100.22-45.74A124.44,124.44,0,0,1,492,198.55c-12.19,5.31-27.05,8.39-38.26,1.22C450.63,197.78,447.76,193.9,449.5,190.63Z"/><path class="cls-7" d="M430.87,181.57a17.82,17.82,0,0,0,13.73,15,18.84,18.84,0,0,0,19-7.77,20,20,0,0,0,.7-20.62,21.28,21.28,0,0,0-17.95-10.44c-6.2-.07-12.94,3.33-14.56,9.32Z"/><path class="cls-7" d="M445.1,183.07a53.38,53.38,0,0,1-25.91,43.58c-.38.22-.87.44-1.24.2s-.38-.79-.33-1.23a76.82,76.82,0,0,1,7.53-25.7,41.69,41.69,0,0,1,7-10.52c2.34-2.48,5.68-2.6,5.87-7.12Z"/><path class="cls-7" d="M385.43,197.57c9.53,2.06,19.48,3,29,1s18.7-7.23,23.91-15.47C420,177,398.19,183,385.43,197.57Z"/><path class="cls-7" d="M477.55,230.78a40.26,40.26,0,0,0-30.17-40.51c-2.57,8.95.66,18.89,6.73,25.95S468.74,227.79,477.55,230.78Z"/><path class="cls-7" d="M377.18,155.86a49.74,49.74,0,0,0,38.29,26.65A72.83,72.83,0,0,0,377.18,155.86Z"/><path class="cls-7" d="M468.73,200.49c3,6.88,10.14,11.32,17.55,12.44s15-.69,21.9-3.54A71.25,71.25,0,0,0,468.73,200.49Z"/><path class="cls-8" d="M445.08,156.74c1.56-8.89,3.16-19.61.68-28.46a.52.52,0,0,0-1,0c-1.75,8.49-1.33,17.46-2.74,26.06a127.48,127.48,0,0,1-3.61,15.31c-1.17,4-3.1,7.84-3.22,12a1,1,0,0,0,1.82.7C442.38,176,443.69,164.69,445.08,156.74Z"/><path class="cls-8" d="M476.59,138c-4.52,9.27-9.66,18.36-14.79,27.31s-11.5,17.25-16,26.42c-.55,1.12,1.08,1.75,1.79,1,6.42-7.14,11.11-16.25,15.78-24.6a303.1,303.1,0,0,0,14.19-29.73C477.79,137.7,476.86,137.39,476.59,138Z"/><path class="cls-8" d="M460.51,197.42c-16.87-3.79-33.35-7.53-47.74-17.77-.52-.36-1.14.38-.62.79,13.68,10.72,30.45,19.48,48.36,18.4C461.41,198.79,461.28,197.6,460.51,197.42Z"/><path class="cls-8" d="M497.51,158.5c-8.1,7.5-15.73,15.25-24.78,21.65-9.54,6.73-19.73,11.22-30.27,16-1.29.6-.77,2.77.69,2.38,10.8-2.85,21-8.72,30.23-14.93,9.47-6.4,18.81-14.69,24.9-24.43C498.58,158.72,498,158.06,497.51,158.5Z"/><path class="cls-8" d="M438.63,190.14c-6.57-4.6-8.71-10.91-11.07-18.25-2.9-9-5.52-18.23-7.81-27.44-.14-.54-1-.44-.91.13,2,10.19,4.32,20.19,7.27,30.14,1.9,6.36,4.36,15,11.51,17.11C438.63,192.14,439.64,190.85,438.63,190.14Z"/><path class="cls-8" d="M475.77,198.76a82.72,82.72,0,0,1-21.29-2.84.44.44,0,0,0-.35.81,37.83,37.83,0,0,0,21.63,4.48C477.19,201.08,477.24,198.78,475.77,198.76Z"/><path class="cls-8" d="M484.47,192.88a36.61,36.61,0,0,0-12.26,2.53.55.55,0,0,0,.15,1.05,36.72,36.72,0,0,0,12.49-.91A1.35,1.35,0,1,0,484.47,192.88Z"/><path class="cls-8" d="M485.69,186.11a9.12,9.12,0,0,0-4.21,2.07.84.84,0,0,0,.67,1.49,9.26,9.26,0,0,0,4.48-1.46A1.19,1.19,0,0,0,485.69,186.11Z"/><path class="cls-8" d="M501.35,183.59c-2.06.68-4.52,1.45-5.93,3.23a.79.79,0,0,0,.56,1.26c2.29.14,4.48-1.1,6.41-2.18A1.27,1.27,0,1,0,501.35,183.59Z"/><path class="cls-8" d="M418.38,158.35c-.68-2.17-1.23-4.69-3.14-6.11a.57.57,0,0,0-.83.22c-.92,1.86-.45,4.07-.1,6a26.66,26.66,0,0,0,2.55,7.64c.52,1,2.54,1,2.54-.36A24.54,24.54,0,0,0,418.38,158.35Z"/><path class="cls-8" d="M420.08,176.11c-.65-.43-1.23-1-1.86-1.42a18.64,18.64,0,0,0-1.85-1.47.82.82,0,0,0-1.1.16,3,3,0,0,0,.08,3.22,4.44,4.44,0,0,0,3.54,2.25C420.36,179,421.47,177,420.08,176.11Z"/><path class="cls-8" d="M439.73,124.08a.8.8,0,0,0-1.34-.14c-2,3-1.62,7.31-1.61,10.74,0,1.65,2.7,1.47,2.94,0C440.21,131.42,441.22,127.16,439.73,124.08Z"/><path class="cls-8" d="M431.16,154.57c-.18-1.28-.2-2.58-.37-3.87-.15-1.12,0-2.56-.64-3.54a1.09,1.09,0,0,0-1.62-.38c-1.14.88-1.46,2.6-1.49,4a8.45,8.45,0,0,0,1.35,4.58C429.15,156.59,431.41,156.25,431.16,154.57Z"/><path class="cls-8" d="M433.6,168.07c-.13-1.2-.34-2.37-.58-3.55-.12-.59-1.11-.64-1.15,0-.07,1.28-.11,2.52-.06,3.8C431.85,169.42,433.72,169.2,433.6,168.07Z"/><path class="cls-8" d="M466.12,140.37a1.23,1.23,0,0,0-2.22-.35c-1.74,1.77-2.72,4-3.8,6.27a55.57,55.57,0,0,0-3.54,8.78,2,2,0,0,0,3.4,1.82C463.15,152.7,466.94,145.83,466.12,140.37Z"/><path class="cls-8" d="M452.85,168.92c0-.48-.62-.55-.93-.35a13.91,13.91,0,0,0-3.49,3.48c-1.17,1.49-2.33,3-1.72,4.91.3.94,1.48,1.09,2.26.84,1.72-.56,2.28-2.38,2.86-3.93A13,13,0,0,0,452.85,168.92Z"/><path class="cls-8" d="M471.16,121.82c0-.56-.89-.59-1.07-.12a21.89,21.89,0,0,0-1.36,4.82c-.22,1.32,1.86,1.51,2.09.25A21.09,21.09,0,0,0,471.16,121.82Z"/><path class="cls-8" d="M482.84,162.71a29.71,29.71,0,0,0-5.19,4,33.47,33.47,0,0,0-3.86,4.71.55.55,0,0,0,.68.83,47.75,47.75,0,0,0,5.49-2.76,27,27,0,0,0,5.39-4.49C486.87,163.46,484.34,161.79,482.84,162.71Z"/><path class="cls-8" d="M494.56,153.28a13,13,0,0,0-.94,1.39,4.58,4.58,0,0,0-.46,1.44.37.37,0,0,0,.52.37,5.14,5.14,0,0,0,1.25-.88,13.34,13.34,0,0,0,1.06-1.3C496.7,153.37,495.21,152.37,494.56,153.28Z"/><path class="cls-8" d="M487.8,152.13c0-.33,0-.67,0-1a8.06,8.06,0,0,1-.13-1.38c.16-1-1.36-1.11-1.59-.18a2.82,2.82,0,0,1-.4.69,9.44,9.44,0,0,0-.56,1.21,6.41,6.41,0,0,0-.43,2.33,1.34,1.34,0,0,0,2.55.62A7.92,7.92,0,0,0,487.8,152.13Z"/><path class="cls-8" d="M507.73,137.73a18,18,0,0,0-5.19,5.87c-.57.91.44,1.74,1.3,1.2a18,18,0,0,0,6-5.15A1.43,1.43,0,0,0,507.73,137.73Z"/><path class="cls-8" d="M460.17,212.45a31.64,31.64,0,0,0-3-3.15,14,14,0,0,1-1.41-1.75,20.19,20.19,0,0,1-1.53-2.08.57.57,0,0,0-1,0,5.73,5.73,0,0,0-.69,2.64,7.1,7.1,0,0,0,1,3.25,6.09,6.09,0,0,0,5.68,3.19A1.33,1.33,0,0,0,460.17,212.45Z"/><path class="cls-8" d="M467.82,219a2.74,2.74,0,0,0-.78-.58c-.34-.1-.57-.44-.8-.69-.46-.48-1.34.14-.86.65.18.2.6.51.65.79a3.06,3.06,0,0,0,.6,1C467.28,221.06,468.82,219.77,467.82,219Z"/><path class="cls-8" d="M434.5,201.22c-.46.65-1,1.22-1.47,1.85s-.87,1.31-1.3,2c-.67,1,.88,1.8,1.47.78l1.16-2c.39-.67.61-1.43,1-2.11C435.62,201.18,434.8,200.79,434.5,201.22Z"/><path class="cls-8" d="M426.93,213.88a.45.45,0,1,0-.13.9A.45.45,0,1,0,426.93,213.88Z"/><path class="cls-8" d="M411.26,193.85a11.54,11.54,0,0,0-3.52.08,12.62,12.62,0,0,0-1.73.35,4.63,4.63,0,0,1-1.55.51.51.51,0,0,0-.27,1c.51.21.93.81,1.45,1.07a5.28,5.28,0,0,0,2.09.55,5.44,5.44,0,0,0,4.15-1.34A1.23,1.23,0,0,0,411.26,193.85Z"/><path class="cls-8" d="M420.11,189.76a5.37,5.37,0,0,0-2,.91,3.51,3.51,0,0,0-.72.86,4.28,4.28,0,0,1-.43.72.5.5,0,0,0,.53.85,2.9,2.9,0,0,1,.66,0,5.36,5.36,0,0,0,1-.12,4.34,4.34,0,0,0,2.11-1.33C422,190.89,421.09,189.5,420.11,189.76Z"/><path class="cls-9" d="M392.66,108c-2.13.19-2.55,3-2.83,4.64a13.45,13.45,0,0,0,1.56,7.93,1.92,1.92,0,0,0,3.58-.51C395.28,117.85,396.8,107.63,392.66,108Z"/><path class="cls-9" d="M395.24,132.87a.54.54,0,0,0-1,.28c.09,1.91-.51,4.58,1.57,5.63a.76.76,0,0,0,.9-.24C398,136.64,396.09,134.54,395.24,132.87Z"/><path class="cls-9" d="M403.11,127.9a3.78,3.78,0,0,0-1.23-1.79l-.78-.64a1.86,1.86,0,0,0-.35-.22s-.4-.17-.41-.18c-.49-.5-1.5-.07-1.17.67.06.13,0,.54.1.76s.23.72.35,1.07a4,4,0,0,0,1.41,1.9,1.41,1.41,0,0,0,1.66,0A1.32,1.32,0,0,0,403.11,127.9Z"/><path class="cls-9" d="M427.06,77.94c0-.62-.73-7-2.81-5.84-2.5,1.43-2.5,4.72-2.72,7.35a42.21,42.21,0,0,0,.7,12.18,2,2,0,0,0,3.88,0A47,47,0,0,0,427.06,77.94Z"/><path class="cls-9" d="M425.74,108.08a4.49,4.49,0,0,0-.72-1.8,8.4,8.4,0,0,1-1.09-1.67c-.17-.57-1.17-.41-1.2.17a6.63,6.63,0,0,1-.56,1.62,5.1,5.1,0,0,0-.32,1.73c0,1.36.57,3.27,2.32,3C425.7,110.93,425.92,109.32,425.74,108.08Z"/><path class="cls-9" d="M431,88.77c-.61-.38-1.67,0-1.5.85.21,1.12.52,2.21.75,3.33a13.7,13.7,0,0,0,1.16,3.9,1.71,1.71,0,0,0,3.19-.46C435.4,93.51,433.46,90.28,431,88.77Z"/><path class="cls-9" d="M482.82,53.17a1.46,1.46,0,0,0-2.33-.87c-3.66,3-5.37,8.75-6.05,13.27-.31,2.08,2.77,3.28,3.93,1.5C480.82,63.31,483.62,57.81,482.82,53.17Z"/><path class="cls-9" d="M483.11,75.57c-.13-.77-.7-1.09-1-1.74a.61.61,0,0,0-1.1,0c-.17.35-.65.65-.91,1a12.08,12.08,0,0,0-1,1.9,27.49,27.49,0,0,0-1.64,4.83c-.51,2,2.27,2.34,3.32,1.26a8.36,8.36,0,0,0,2.33-4.52A8,8,0,0,0,483.11,75.57Z"/><path class="cls-9" d="M467.71,88.44a.57.57,0,0,0-.91-.33c-2.21,2.14-4.12,5-4.28,8.21a1.83,1.83,0,0,0,3.26,1.24A12.63,12.63,0,0,0,467.71,88.44Z"/><path class="cls-9" d="M504.91,113.5c-1.86,1.28-3.55,2.67-5.3,4.1-.73.6-3.86,2.74-2.76,4,1.25,1.45,4.09-.19,5.33-.9a14.24,14.24,0,0,0,5.21-4.9A1.71,1.71,0,0,0,504.91,113.5Z"/><path class="cls-9" d="M520.78,102.62a4.64,4.64,0,0,0-2.58,1.12q-.51.47-1,1a6.61,6.61,0,0,0-.62,1,.78.78,0,0,0,.76,1.23,8.07,8.07,0,0,0,1.3-.13l1.2-.43a4.45,4.45,0,0,0,2.17-1.77A1.27,1.27,0,0,0,520.78,102.62Z"/><path class="cls-9" d="M515.14,118.5a7.69,7.69,0,0,0-1,.8c-.3.32-.59.63-.91.92s0,1.18.55.88a9.15,9.15,0,0,1,1.14-.54,6.69,6.69,0,0,0,1.28-.77C517.15,119.2,516,117.83,515.14,118.5Z"/><path class="cls-9" d="M511.53,165.56a42.6,42.6,0,0,0-4.8,2.8c-1.77,1.24-2.93,3.12-4.62,4.42a.52.52,0,0,0,.55.88c1.63-.92,3.56-1.4,5.28-2.18a24.37,24.37,0,0,0,5-3.61A1.37,1.37,0,0,0,511.53,165.56Z"/><path class="cls-9" d="M529.23,156a6.68,6.68,0,0,0-3.44,1.09,17.29,17.29,0,0,0-2.79,1.3,1.63,1.63,0,0,0,0,2.64c2.23,1.43,7,.55,8-2A2.17,2.17,0,0,0,529.23,156Z"/><path class="cls-9" d="M400.51,172.34c-1.87-2.24-5.18-4.39-8.17-4.56-.79-.05-1.64.71-1.22,1.54,1.33,2.65,4.64,4.73,7.41,5.52C400,175.24,401.69,173.74,400.51,172.34Z"/><path class="cls-10" d="M226.14,127.51a.91.91,0,0,0,.55-.25.62.62,0,0,0-.05-.76A1.68,1.68,0,0,0,226,126a17.28,17.28,0,0,0-6.83-2.09c-2.39,0-5,1.15-5.83,3.39a14,14,0,0,0,6.38,1.1A42.6,42.6,0,0,0,226.14,127.51Z"/><path class="cls-10" d="M222.29,113.7a2.59,2.59,0,0,0,.59-1.62,1.92,1.92,0,0,0-1.57-1.4,10.64,10.64,0,0,1-2.18-.51,10.68,10.68,0,0,0,1.32,15.27A15.31,15.31,0,0,1,222.29,113.7Z"/><path class="cls-11" d="M189.81,193.5c2.49-13.22,1-27,4-40.11s12.51-26.46,26-27.12c7.68-.38,15.09,3.58,20.41,9.14S249,148,252,155.05c8,18.68,13.22,38.58,23.2,56.27,7.46,13.21,17.37,24.85,26.13,37.23s16.53,26,18.79,41-1.91,31.69-13.64,41.31c-10.06,8.26-23.91,10.19-36.93,9.85s-26-2.62-39-1.41c-12.29,1.14-24.06,5.37-36.16,7.83s-25.29,3-36.17-2.87c-16.76-9-23-31-19.45-49.66s14.67-34.93,25.53-50.54S186.29,212.2,189.81,193.5Z"/><path class="cls-12" d="M296.73,310.06c-8.4,8.8-21.89,10.83-33.92,9s-23.29-6.87-34.95-10.31c-16-4.73-34.42-7.31-44.79-20.42-8.5-10.76-8.85-26.72-2.33-38.79s19-20.26,32.39-23.33,27.5-1.39,40.55,2.82c23,7.42,44.48,24.5,50.06,48C306.45,288.47,304.82,301.58,296.73,310.06Z"/><path class="cls-12" d="M223.29,135.59c5.19.93,9.14,5.11,12.28,9.35a86.34,86.34,0,0,1,16.87,52.7c-.08,4.29-.67,9-3.77,11.93s-8,3.32-12,2-7.44-4.18-10.61-7c-8.56-7.74-16.55-16.53-20.88-27.23s-4.48-23.61,1.94-33.19C210.67,138.7,216.94,134.46,223.29,135.59Z"/><path class="cls-13" d="M157.64,315.8c1.72.21,2.77,2,3.8,3.23a25,25,0,0,1,3.06,4.75c1.16,2.19-1.84,4.14-3.63,2.72a12.75,12.75,0,0,1-4.27-5.88C156.19,319.48,155.14,315.48,157.64,315.8Z"/><path class="cls-13" d="M170.9,329a7.4,7.4,0,0,1,6.19,1.85,1.66,1.66,0,0,1-1.19,3,7.4,7.4,0,0,1-5.64-3.23A1,1,0,0,1,170.9,329Z"/><path class="cls-13" d="M184.89,336.52a3.16,3.16,0,0,1,1.31-1c.47-.13,1,0,1.46-.14s1.26.47.83,1c-.3.35-.26.9-.52,1.29a3,3,0,0,1-1.35.95C185.46,339.2,183.91,337.55,184.89,336.52Z"/><path class="cls-13" d="M160.81,334.88a8.72,8.72,0,0,1,2.52.63,5.53,5.53,0,0,1,1.24.84c.34.29.61.72,1,1a.7.7,0,0,1-.5,1.26,3.18,3.18,0,0,0-.74.17,5.39,5.39,0,0,1-1.39,0,6.25,6.25,0,0,1-2.79-1,1.63,1.63,0,0,1-1-1.59A1.5,1.5,0,0,1,160.81,334.88Z"/><path class="cls-13" d="M148.63,290.13a1,1,0,0,1,1.31.17c2.26,2.42,1.7,6.92.71,9.75-.7,2-3.63,1.34-4-.51C146,296.67,146.05,292.13,148.63,290.13Z"/><path class="cls-13" d="M158,300.14a.72.72,0,0,1,1.36-.18,3.21,3.21,0,0,0,.85,1.12c.34.35.55.83.91,1.19,1,1-.7,2.65-1.75,1.71a3.36,3.36,0,0,1-1.37-3.84Z"/><path class="cls-13" d="M211.8,328.11a9.72,9.72,0,0,1,10.08.66,1,1,0,0,1,0,1.51,9.51,9.51,0,0,1-9.54,1.27C211.2,331,210.3,329,211.8,328.11Z"/><path class="cls-13" d="M196.14,327.92a11.32,11.32,0,0,1,5,2.07c.88.63,2.78,2.23,1.54,3.38-.91.84-2.38.45-3.45.21a10.41,10.41,0,0,1-4.48-2.17A1.94,1.94,0,0,1,196.14,327.92Z"/><path class="cls-13" d="M159.37,279.58a1.34,1.34,0,0,1,1.75-.7l.13.05a1.26,1.26,0,0,1,.81,1.22,10.55,10.55,0,0,1,.41,4.08c-.14,2-3.35,1.94-3.53,0A10,10,0,0,1,159.37,279.58Z"/><path class="cls-13" d="M181,307.49c2.72.23,5.82,1.84,6.85,4.44a.58.58,0,0,1-.31.8c-2.85,1-6.05-.39-8.15-2.38C178.12,309.15,179.59,307.37,181,307.49Z"/><path class="cls-13" d="M297.2,324.39a24.92,24.92,0,0,1,3.64-3.62c1.2-1,2.2-2.5,3.82-2.82a1.34,1.34,0,0,1,1.27.5l.33.33a.67.67,0,0,1,.15,1.22,7.36,7.36,0,0,1-1.89,4.26,7.67,7.67,0,0,1-6.06,2.86A1.74,1.74,0,0,1,297.2,324.39Z"/><path class="cls-13" d="M284.81,326.07a3,3,0,0,1,2.19,0l.12,0,.15,0a.88.88,0,0,1,.28,0l.29.11a.74.74,0,0,1,.88.84,2,2,0,0,1-1.06,2.13c-1.19.74-3.2.52-3.71-1A1.64,1.64,0,0,1,284.81,326.07Z"/><path class="cls-13" d="M305.19,307.53c.27-.77,1.42-.39,1.38.36s0,1.42-.14,2.12c-.2,1.37-2.24.86-1.91-.49C304.69,308.85,305,308.19,305.19,307.53Z"/><path class="cls-13" d="M250.1,326.19a13.22,13.22,0,0,1,6.53,1.15c1.78.71,4.38,1.91,5.09,3.81a.77.77,0,0,1-.4,1c-1.63.58-3.33-.07-5-.4a23.48,23.48,0,0,1-6.61-2.09C248.27,328.89,248,326.39,250.1,326.19Z"/><path class="cls-13" d="M263.91,218.3a17.45,17.45,0,0,1,5.46,2.09c1.43.81,3.19,1.85,3.87,3.42a1.08,1.08,0,0,1-.84,1.51c-1.55.39-3.18-.33-4.65-.77a14.62,14.62,0,0,1-5.16-2.93C261.25,220.49,261.89,217.89,263.91,218.3Z"/><path class="cls-13" d="M252.22,218.35a2.19,2.19,0,0,1,1.16-1.06,5.33,5.33,0,0,1,2.39-.06,1.11,1.11,0,0,1,.81,1.74,8.85,8.85,0,0,1-1.27,1.39,2.08,2.08,0,0,1-3.07-.65A1.78,1.78,0,0,1,252.22,218.35Z"/><path class="cls-13" d="M259.73,205.08a1.27,1.27,0,0,1,1.88.5c.53,1.27-.06,2.79-.47,4-.49,1.47-2.84.78-2.69-.69C258.58,207.59,258.7,206,259.73,205.08Z"/><path class="cls-14" d="M244.39,252.86a12,12,0,0,1-4-2.88,4.53,4.53,0,0,1-.82-4.6c.85-1.8,3-2.46,5-2.87,7.26-1.49,15-2,21.94.4s13.11,8.42,14,15.78a3.1,3.1,0,0,1-.77,2.89,3.33,3.33,0,0,1-2.23.41A82,82,0,0,1,244.39,252.86Z"/><path class="cls-14" d="M236.65,156.92A36.36,36.36,0,0,1,243.83,177c.06,1.33-.15,3-1.38,3.47a3.26,3.26,0,0,1-2.9-.73,26.66,26.66,0,0,1-11.61-21.9,5.13,5.13,0,0,1,.84-3.27,3.77,3.77,0,0,1,4.37-.77A9.12,9.12,0,0,1,236.65,156.92Z"/><path class="cls-14" d="M287.61,265a1.9,1.9,0,0,1,3-1.22c2.94,2.39,2.92,6.56.9,9.52-.92,1.34-3.51.73-3.62-.94C287.77,270,287.25,267.42,287.61,265Z"/><path class="cls-14" d="M298.58,279.37a25.66,25.66,0,0,1,1.08,2.47,1.16,1.16,0,0,1-2.15.87,25.66,25.66,0,0,1-.87-2.83C296.34,278.71,298.11,278.42,298.58,279.37Z"/><path class="cls-14" d="M244.4,235.45a9.21,9.21,0,0,1,7.31.29,1,1,0,0,1,.06,1.9,9.06,9.06,0,0,1-7.28.49A1.44,1.44,0,0,1,244.4,235.45Z"/><path class="cls-14" d="M240.12,185.84c.17-.6.79-1.06,1-1.63a.49.49,0,0,1,.93.23c0,.66.39,1.33.31,2a7.74,7.74,0,0,1-.45,1.9c-.47,1.21-2.25.64-2.21-.56A7.94,7.94,0,0,1,240.12,185.84Z"/><path class="cls-14" d="M225.58,145.1a3.72,3.72,0,0,1,2,.14c.48.17.86.51,1.35.67,1.1.36.7,2.18-.47,1.93-.33-.07-1,.48-1.3.69a3.49,3.49,0,0,1-2.69.78,1.6,1.6,0,0,1-1.34-1.23C222.76,146.43,224.16,145.42,225.58,145.1Z"/><path class="cls-13" d="M130,186.05c1.84-13.09,5.84-26.38,14.63-36.25,9.25-10.37,22.72-15.84,36-20.07s27-7.71,38.63-15.29c-11.45,19.61-13.58,44.2-27.87,61.84-8,9.81-19,16.58-30.22,22.39S138.27,209.6,128,217C128.3,206.64,128.58,196.28,130,186.05Z"/><path class="cls-15" d="M160.14,159c15.05-15.14,34.56-28.06,53.17-38.39.62-.35,1.22.62.66,1.06-17.07,13.48-36.17,23.41-51.86,38.78a114.56,114.56,0,0,0-17.75,22.45c-5.73,9.48-7.85,19.47-10.41,30.07-.16.65-1.07.26-1.09-.28C132.07,192.6,146.72,172.5,160.14,159Z"/><path class="cls-16" d="M342.93,337c16.71-24.71,21.44-58.21,8.38-85-11.24-23.09-35.35-39.45-61-41.12-14.95-1-29.9,2.74-43.77,8.4-10.25,4.19-20.2,9.56-28.11,17.31-23.94,23.46-27.31,63-12.27,92.32,10.59,20.68,30.12,36,52.31,42.52C288.47,380.17,326.18,361.78,342.93,337Z"/><path class="cls-17" d="M252.78,244.37c-2-1.55-4-3.25-6-4.78-3.89-2.91-9.79-6-14.82-4.44-5.6,1.72-10.59,8.39-13.54,13.09-6.82,10.86-18.09,31-4.56,41.48,5.61,4.34,11.49,5.62,16.86,10.65l18.65,17.47c7,6.59,14.84,13.54,24.45,14.42,7.51.69,15-2.61,20.68-7.55s9.86-11.39,13.56-18c9.21-16.38,21.93-40.13,19.41-59.61-.46-6.44-7.05-16.72-14.7-15.06-3.33.73-7.34,3.91-10.53,5.32L288,243.7c-9.26,4.11-19.84,8.26-29.19,4.35A27.7,27.7,0,0,1,252.78,244.37Z"/><path class="cls-18" d="M257.88,232.62a8.81,8.81,0,0,1-2-.6,3.19,3.19,0,0,0-2.78,0c-2.75,1.73,5.95,7.26,7.36,8a25.94,25.94,0,0,0,30.88-4.76c1.43-1.48,3.78-2.26,4.92-3.9.75-1.09.64-2.88-.55-3.45-1.87-.89-4.05,1.81-5.91.92-.9-.43-1.24-1.5-1.76-2.35-1.76-2.87-5.68-3.31-9-3.42a34.7,34.7,0,0,0-9.28.56,12,12,0,0,0-7.55,5c-.94,1.55-1.7,3.63-3.49,3.94A2.91,2.91,0,0,1,257.88,232.62Z"/><path class="cls-19" d="M277,227.78c.11-3.53-1.56-5.88-5.35-7.36a2.15,2.15,0,0,0-2.93,1.53,11.55,11.55,0,0,0,1.15,6.92c-4.18.91-8.74,3.27-9.16,7.19a17,17,0,0,0-1.25,1.8,13.42,13.42,0,0,0,1.54.41c1.32,2.66,6.3,1.52,9.78,0,.86,3.64,2.69,8.07,6.08,6.87,4-1.4,4.32-6.07,3.52-9.93,4.24-.51,9.4-2.3,9.24-6.53C289.45,223.55,281.75,225.76,277,227.78Z"/><path class="cls-20" d="M276.76,231c-.69.27-1.2.83-1.79,1.06a2.05,2.05,0,0,1-1.49-.17,1.76,1.76,0,0,0-1.73.16,2.62,2.62,0,0,0-.59.65l0,.07a1.68,1.68,0,0,0,.06,1.73c2,2.73,7.42,2.57,8.21-1.18A2,2,0,0,0,276.76,231Z"/><path class="cls-20" d="M273.08,222.42c-.41-.42-1,.29-.62.7a9.8,9.8,0,0,1,1.77,3.27.69.69,0,0,0,1.3-.46A8.61,8.61,0,0,0,273.08,222.42Z"/><path class="cls-20" d="M282.82,229.77a1.82,1.82,0,0,0-1.09.53,1.08,1.08,0,0,0,.06,1.52,1.26,1.26,0,0,0,.81.38,1.31,1.31,0,0,0,1.46-1A1.18,1.18,0,0,0,282.82,229.77Z"/><path class="cls-20" d="M277.09,238.43a.81.81,0,0,0-1-.05,1.67,1.67,0,0,0-.72,1.33c0,.45.05,1,.59,1.08A1.4,1.4,0,0,0,277.09,238.43Z"/><path class="cls-20" d="M277.77,241.32a1.47,1.47,0,0,0-1.46-.29,1.89,1.89,0,0,0-1,.9.56.56,0,0,0,0,.56,3.39,3.39,0,0,0,.48.63,1.63,1.63,0,0,0,1.14.38A1.28,1.28,0,0,0,277.77,241.32Z"/><path class="cls-20" d="M266.83,235.44c-.53.22-1,.56-1.55.75a.51.51,0,0,0-.09.93,2,2,0,0,0,2.37-.08,1,1,0,0,0,.39-1A.86.86,0,0,0,266.83,235.44Z"/><path class="cls-21" d="M245,251.45c-.94-2.87-3.35-5-6-6.55-2.29-1.32-5-2.25-7.56-1.64-2.83.68-4.92,3.07-6.42,5.56A29.49,29.49,0,0,0,220.94,261a13,13,0,0,0,.51,5.94,6.26,6.26,0,0,0,4.16,4c2.31.55,4.65-.62,6.74-1.75,3.49-1.89,7.05-3.84,9.68-6.81S246.22,255.22,245,251.45Z"/><path class="cls-21" d="M270.54,252.66c-4-.15-8-.27-11.94-.22-2.81,0-6.66,2.29-4.56,5.6,1.6,2.53,5.77,3.2,8.51,3.75s5.95.36,8-1.49a5.09,5.09,0,0,0,3.09-4.88C273.7,253.62,272.1,252.71,270.54,252.66Z"/><path class="cls-21" d="M285.84,249.8a3.65,3.65,0,0,0-2.33-.77,3.86,3.86,0,0,0-1.39.27c-1.48.53-3,2.29-2.33,3.94a2.26,2.26,0,0,0,1.8,1.59,3.39,3.39,0,0,0,1.41-.15l.45-.1.52-.13c.14,0,.94-.2.21-.06a2.87,2.87,0,0,0,2.2-1.51A2.54,2.54,0,0,0,285.84,249.8Z"/><path class="cls-16" d="M258.8,304.9a3.53,3.53,0,0,0-2.25,2.79,4.48,4.48,0,0,0,1.15,3.44,14.85,14.85,0,0,0,2.72,2.71,5.5,5.5,0,0,0,3.55,2c1.33.19,3.08-.73,3.21-2.22C267.57,309.3,263.68,303.55,258.8,304.9Z"/><path class="cls-16" d="M277.9,311.72a7.12,7.12,0,0,1,.41,2,2.78,2.78,0,0,1-2.51,2.84,2.46,2.46,0,0,1-2.69-2.38,4.34,4.34,0,0,1,.68-2.21,3.06,3.06,0,0,1,.49-.72,2.3,2.3,0,0,1,2.63-.59,1.84,1.84,0,0,1,.85.77h0c0,.05.05.11.08.17Z"/><path class="cls-16" d="M249.47,300.72a2.27,2.27,0,0,0-2.21.2,3.16,3.16,0,0,0-1.31,2.17,5.44,5.44,0,0,0-.16,1.6,1.83,1.83,0,0,0,2.89,1.4,6.09,6.09,0,0,0,1.1-1.17,3.17,3.17,0,0,0,.9-2.35A2.24,2.24,0,0,0,249.47,300.72Z"/><path class="cls-16" d="M305.36,279.62a3,3,0,0,0-3.67-.17,10.59,10.59,0,0,0-4.17,5.79,2.53,2.53,0,0,0,1.12,2.95,2.57,2.57,0,0,0,3.26,1.45,7.94,7.94,0,0,0,4.15-3.9,8.26,8.26,0,0,0,.78-2.42,3.55,3.55,0,0,0-.36-2.54A6.76,6.76,0,0,0,305.36,279.62Z"/><path class="cls-16" d="M296.47,277.67a7.49,7.49,0,0,0-.89.71,3.24,3.24,0,0,0-.62,1.21,1.35,1.35,0,0,0,.73,1.54,2.26,2.26,0,0,0,3-2.41A1.38,1.38,0,0,0,296.47,277.67Z"/><path class="cls-16" d="M311.92,244.52a4.58,4.58,0,0,1-2.59,5.14c-1.5.77-3.45,1.64-5.1.76a1.89,1.89,0,0,1-.49-3l0,0a4.36,4.36,0,0,1,.4-.35,5,5,0,0,1,2.16-4.31C308.06,241.56,311.32,242.2,311.92,244.52Z"/><path class="cls-16" d="M319.66,248.2a3.39,3.39,0,0,0-.5-.34c.22.13.24.14.09,0a1.39,1.39,0,0,0-1.94.18l-.1.1c.3-.24.23-.17-.21.2a3,3,0,0,0-.64.81,2.75,2.75,0,0,0,.11,3,2.28,2.28,0,0,0,1.41.93,2.25,2.25,0,0,0,2.12-.77,3.76,3.76,0,0,0,.69-1.42,2.59,2.59,0,0,0-.37-1.93A2.79,2.79,0,0,0,319.66,248.2Z"/><path class="cls-16" d="M232.35,285.66c-.55-.67-.95-1.43-1.56-2.06-1.48-1.54-4.43.1-4.16,2.13a4.31,4.31,0,0,0,.74,2,5.24,5.24,0,0,0,1.2,1.24l0,0a3.39,3.39,0,0,0,.53.38,2.58,2.58,0,0,0,3.23-3.68Z"/><path class="cls-16" d="M241.88,283.62l.05,0Z"/><path class="cls-16" d="M243,284.82a9.4,9.4,0,0,0-.79-1c.13.11-.25-.14-.36-.22a1,1,0,0,0-.9-.14,2.48,2.48,0,0,0-1.36,2.74,2.68,2.68,0,0,0,1.29,2.12,2.36,2.36,0,0,0,2,.2,1.55,1.55,0,0,0,1-1.11A3.24,3.24,0,0,0,243,284.82Z"/><path class="cls-16" d="M268.23,271.12a1.44,1.44,0,0,0-.88,2.43,3.91,3.91,0,0,0,4,.88,1.16,1.16,0,0,0,.62-1.68A3.82,3.82,0,0,0,268.23,271.12Z"/><path class="cls-17" d="M309.4,228.25a2.56,2.56,0,0,1-2.58.76c-2.06-.5-3.49-3.29-1.88-5a2.38,2.38,0,0,1,2.75-.62,2.47,2.47,0,0,1,1.16,1.23A2.38,2.38,0,0,1,309.4,228.25Z"/><path class="cls-17" d="M322.29,227a1.54,1.54,0,0,0-2-.05c-1.24,1.44,1.13,4.05,2.48,2.52A1.75,1.75,0,0,0,322.29,227Z"/><path class="cls-10" d="M85.74,189.64A2.29,2.29,0,0,1,89.48,191c.45,2.56-.58,5.15-.18,7.78s2,5,2.23,7.78a1.06,1.06,0,0,1-1.11,1.16C83.08,207.73,80.26,193.57,85.74,189.64Z"/><path class="cls-11" d="M92.29,346.83c.88-19.76,3.94-40.75.8-60.28-3-18.4-14.26-34.7-17-53.14-1.29-8.82-.14-18.81,6.37-24.9,7.46-7,19.56-6.41,28.77-2,16,7.69,27,24.81,39.5,36.91a276.18,276.18,0,0,0,47.49,36.79c11.16,6.83,22.89,12.93,32.8,21.48,20.34,17.55,30.43,50.26,5,68.2-11.84,8.33-24.53,8.28-37.59,12.37-12.28,3.84-21.56,18.21-30.29,27-9.15,9.18-20.93,17.4-33.85,16.51-14.32-1-25.53-12.88-32.52-25.42C92.51,383.75,91.44,365.83,92.29,346.83Z"/><path class="cls-22" d="M121.19,220.72a352.83,352.83,0,0,0,58.73,51.85c20.81,14.6,43.78,27.48,58.66,48.1,4.73,6.55,8.64,14.23,8.24,22.3-.37,7.64-4.69,14.74-10.57,19.64s-13.19,7.79-20.63,9.59c-8.8,2.12-18.19,2.92-25.92,7.62C176,388.13,171,406.41,157.41,414.77c-14.32,8.78-34.25,3-45.41-9.52s-15-30.1-15.33-46.89S99,324.83,98.86,308a153.56,153.56,0,0,0-9-50.75c-3.39-9.42-7.78-18.87-7.53-28.88.12-4.9,1.51-14.89,8.06-14.4a6.72,6.72,0,0,1,5.07,3,8.87,8.87,0,0,1,3.65-8C107.08,203.43,116.45,215.49,121.19,220.72Z"/><path class="cls-23" d="M93.9,233.85c-1.32-4.4-2.48-9.57.27-13.25,2.42-3.24,7.17-4,11-2.81,9.48,2.85,17.17,14.15,24.12,20.74q13.68,13,28,25.24Q176.9,280.54,197.62,296c12,9,26.39,16.61,33.53,30.47,4.35,8.42,4.87,19.55-1.3,26.75-4.61,5.37-12.08,7.58-19.16,7.42S196.76,358.19,190,356c-21.88-7.22-44.91-15.2-59.82-32.76-9.11-10.72-14.36-24.12-19.16-37.35Q101.73,260.11,93.9,233.85Z"/><path class="cls-24" d="M145.93,361.46c-2.47-4.77-4.31-10-4.23-15.37s2.3-10.88,6.66-14a13,13,0,0,1,9.25-2.23c-1.8-3.29-3.6-6.56-5.46-9.72-6.67-11.37-13.32-22.75-20.08-34.07-13.81-23.13-29.27-46.13-40.21-70.8-.48-1.08,1.14-2.15,1.86-1.16,15.23,20.48,27.05,43.83,39.67,66q9.78,17.16,19.73,34.23c3.25,5.61,6.86,11.22,10.34,16.91,1.66-6.42,10-9.86,16.56-8.07,7,1.89,12.18,7.78,16.26,13.79a26.53,26.53,0,0,1,4.48,9.3c.7,3.39.08,7.23-2.35,9.7-4.29,4.35-11.43,2.61-17.61,3.32.38.75.76,1.49,1.12,2.22A46.11,46.11,0,0,1,186.69,375a1.39,1.39,0,0,1-2.6.81c-2.32-4-4.09-8.38-6.22-12.5-.5-1-1.05-1.91-1.61-2.86a9.5,9.5,0,0,0-1.41.81c-3.87,2.68-5.33,8-9.34,10.48-3.53,2.18-8.3,1.51-11.78-.74S147.85,365.14,145.93,361.46Z"/><path class="cls-23" d="M116.58,332.54c-1.06-3.23,1.71-5.82,4.88-5.09,4.67,1.06,9.47,3.42,11.44,8a2.33,2.33,0,0,1,.16,1.07,3.29,3.29,0,0,1,.21,2.92l-.51,1a3.83,3.83,0,0,1-3.73,2.35A15.1,15.1,0,0,1,116.58,332.54Z"/><path class="cls-23" d="M124.31,350a3.63,3.63,0,0,1,2.74-.22l.88.38a7.91,7.91,0,0,1,2.07,1.05,2.41,2.41,0,0,1,1,2.21,2.64,2.64,0,0,1-1.5,2,8.53,8.53,0,0,1-2.28.6,4.37,4.37,0,0,1-3.59-.47A3.26,3.26,0,0,1,124.31,350Z"/><path class="cls-23" d="M112.65,345.52a2.35,2.35,0,0,1,.54-3,1.9,1.9,0,0,1,2.68.2,2.35,2.35,0,0,1-.15,3A1.79,1.79,0,0,1,112.65,345.52Z"/><path class="cls-23" d="M146.42,392.88c1.16-1.87,3.93-2.88,5.89-1.74.67-.09,1.34-.17,2-.32,2.65-.61,4.92,2.86,3,5A8.74,8.74,0,0,1,148,398.3C145.57,397.56,145.25,394.75,146.42,392.88Z"/><path class="cls-23" d="M132.09,391.49a2.9,2.9,0,0,1,.54-2.05,3.12,3.12,0,0,1,2.6-1.22,3.82,3.82,0,0,1,2.74,1.3,3.19,3.19,0,0,1,.44,3.1,2.33,2.33,0,0,1-3.43,1.13A2.67,2.67,0,0,1,132.09,391.49Z"/><path class="cls-23" d="M139.84,406.29c.35-.82,1.22-1,2-1.22a4.44,4.44,0,0,1,2.88.43,1.6,1.6,0,0,1,1,1.72,1.77,1.77,0,0,1-1.46,1.52c-.49,0-1,.07-1.47.08a4.1,4.1,0,0,1-1.82-.61C140.4,407.89,139.5,407.07,139.84,406.29Z"/><path class="cls-10" d="M175.91,335.35c1.79-1.09,3.47.1,4.05,1.72,3.37,1,5.95,5,7,8a3.28,3.28,0,0,1-4.06,4.24C178.59,347.84,169.39,339.32,175.91,335.35Z"/><path class="cls-10" d="M157.27,355.49c-1.92-2.71-5.82-11.28-.92-13.15,3.32-1.27,6,1.08,7.21,4.05,2.95,1.52,5.33,6.58,5,9.43a4.9,4.9,0,0,1-5,4.22C160.72,359.79,158.8,357.67,157.27,355.49Z"/><path class="cls-25" d="M520.1,365c-13.44,18.71-30.67,34.47-51.15,45-40.79,21-94.57,18.16-129-12.2a11.11,11.11,0,0,1-3.47-4.39,6.26,6.26,0,0,1,0-4.12,9.67,9.67,0,0,1,3.86-4.92c3-1.95,6.58-2.52,10.05-3.2,39-7.74,71.85-34.51,96.87-65.41s43.69-66.38,65.82-99.42c3.42-5.09,7.65-10.6,13.75-11.31,8.31-1,14.55,7.37,17.84,15.07,11,25.82,10.34,55.4,3.7,82.67A180,180,0,0,1,520.1,365Z"/><path class="cls-25" d="M515.56,217.64c5.13-4.71,5.05-12.77,3.84-19.63a96.84,96.84,0,0,0-8.54-26c2.95-3,6-6.11,9.91-7.72s8.89-1.35,11.75,1.76c1.89,2.06,2.53,5,2.92,7.73a66.12,66.12,0,0,1-8.89,43.16Z"/><path class="cls-26" d="M386.37,374.31c-11.68,5.62-47,9-32.84,13.94,20.62,5.41,41.6,3.77,61.58-3.68s44-23.49,58.16-39.4c54.25-60.86,68.88-133.77,49.22-132.4-6.61-2.82-35.08,61.93-57,89.83S418.37,358.93,386.37,374.31Z"/><path class="cls-26" d="M511.46,171.79A14.8,14.8,0,0,0,532,163.94a17,17,0,0,0-20.57,7.85Z"/><path class="cls-27" d="M529.27,208.15a7.25,7.25,0,0,1-2.22.78,6.7,6.7,0,0,1-2.81.17c-.4-.11-.88.34-.52.7s.71.81,1.12,1.18a4.22,4.22,0,0,0,2,.63,5.07,5.07,0,0,0,4.06-1.55C532.15,208.85,530.62,207.31,529.27,208.15Z"/><path class="cls-27" d="M528.8,273.74c4-12.39,7.16-25.51,8.2-38.48.59-7.36,1.78-22.53-7.42-25.35-.23-.08-.57.1-.49.39,1.11,4.17,3.23,7.77,3.89,12.14.83,5.45.12,11.32-.34,16.78-1,12.31-3,24-7,35.67-8.23,23.8-21.19,46-38.93,63.93-.19.2.09.5.28.32C506,321,520.77,298.89,528.8,273.74Z"/><path class="cls-27" d="M481.67,344a.05.05,0,1,0,0,.1C481.69,344.09,481.74,344,481.67,344Z"/><path class="cls-27" d="M437.92,381.05c-7.33,4.06-14,7.85-22.14,10.14a149.37,149.37,0,0,1-22.23,4.67,86.65,86.65,0,0,1-24.23-.51c-8-1.28-15.87-5.09-23.89-5.75a1.47,1.47,0,0,0-1,2.65c6.12,4.5,15.37,5.43,22.73,6.16a137.24,137.24,0,0,0,25,0c16-1.32,33.21-7.23,46.35-16.57C439,381.55,438.42,380.78,437.92,381.05Z"/><path class="cls-27" d="M474.46,355.57c-9.57,8.21-19.7,15.93-29.77,23.52-.35.26.09.69.42.48A170.29,170.29,0,0,0,474.83,356C475.1,355.74,474.73,355.33,474.46,355.57Z"/><path class="cls-27" d="M375.66,397.52l-3-.36A2.62,2.62,0,0,1,375.66,397.52Z"/><path class="cls-27" d="M520.1,365c-13.44,18.71-30.67,34.47-51.15,45-40.79,21-94.57,18.16-129-12.2a11.11,11.11,0,0,1-3.47-4.39,6.26,6.26,0,0,1,0-4.12,257.09,257.09,0,0,0,36.12,7.79,2.86,2.86,0,0,0-1.15,1,4.46,4.46,0,0,0,.12,4.57,11.07,11.07,0,0,0,3.42,3.32c28.95,20.3,74.69,9.12,103.06-6.77C494,390.34,507.63,378.35,520.1,365Z"/><path class="cls-28" d="M343.86,389.84c.58-2.15,1.31-4.9.05-6.89-.83-1.3-2.79-2-4-.94a7.37,7.37,0,0,0-3.79,2.92c-2.15,3-1.48,7-.68,10.35.55,2.32,4.22,3.6,5.62,1.22A26.42,26.42,0,0,0,343.86,389.84Z"/><path class="cls-27" d="M429.73,408.64a3.16,3.16,0,0,0-2.94-3.34c-.68,0-1.37,0-2.05,0a7.24,7.24,0,0,0-3.29.56,2.88,2.88,0,0,0,.25,5.33,6.43,6.43,0,0,0,3,.31l1.5-.08c.22,0,.36,0,.23,0l.3,0h.2l.16,0h0A3.12,3.12,0,0,0,429.73,408.64Z"/><path class="cls-27" d="M413.84,408a2.81,2.81,0,0,0-2-.93c-1.4.05-3,1-2.73,2.64a2.15,2.15,0,0,0,2.79,1.53,3.17,3.17,0,0,0,2-1.55A1.37,1.37,0,0,0,413.84,408Z"/><path class="cls-27" d="M441.52,405a3.81,3.81,0,0,0-2.65-2.61,7.75,7.75,0,0,0-2.81-.92,1.74,1.74,0,0,0-1.87,1.48c-.35,2.71,3.59,5.8,6.05,4.42A2.18,2.18,0,0,0,441.52,405Z"/><path class="cls-27" d="M471.66,391c-2.57-.44-5.43.45-6.67,2.86a1.61,1.61,0,0,0-.18.69c-.36.26-.7.52-1,.77a3.14,3.14,0,0,0,2.69,5.43,12.82,12.82,0,0,0,7.54-4.87C475.6,393.76,473.91,391.37,471.66,391Z"/><path class="cls-27" d="M457.64,394.53a1.21,1.21,0,0,0-1.29-.64,3.76,3.76,0,0,0-3,2.26,2.08,2.08,0,0,0,.8,2.46,2.3,2.3,0,0,0,3.08-.48A3.52,3.52,0,0,0,457.64,394.53Z"/><path class="cls-27" d="M483.81,381.18a1.46,1.46,0,0,0-1.28-1.11,4.43,4.43,0,0,0-3.08.58c-.45.29-1.56,1.21-1,1.83a2.92,2.92,0,0,0,2.36.83,4.83,4.83,0,0,0,2.55-.85A1.31,1.31,0,0,0,483.81,381.18Z"/><path class="cls-27" d="M472.34,374.43c.11-.34-.22-.74-.58-.54h0a2.1,2.1,0,0,0-1.75.2c-.89.4-1.74,1-1.77,2.07a1.52,1.52,0,0,0,1.41,1.59,2.51,2.51,0,0,0,2.41-1.57A1.85,1.85,0,0,0,472.34,374.43Z"/><path class="cls-27" d="M511.51,363.8a2.31,2.31,0,0,0-2.94-1,6.5,6.5,0,0,0-3.08,2.6,6.29,6.29,0,0,1-.75.8,8.57,8.57,0,0,0-2.74,1.89c-2.62,2.44.15,6.07,3.3,4.91C508.65,371.76,513.33,367.73,511.51,363.8Z"/><path class="cls-27" d="M516.32,353.85a3.79,3.79,0,0,0-3,.34,4,4,0,0,0-2,3,1.64,1.64,0,0,0,.74,1.53,1.9,1.9,0,0,0,2.17-.07l.06,0,.31-.15a5.08,5.08,0,0,0,1.08-.72c.09-.07.59-.55.72-.68a5.42,5.42,0,0,0,.71-.8A1.57,1.57,0,0,0,516.32,353.85Z"/><path class="cls-27" d="M516.39,357l0,.05C516.44,357,516.44,357,516.39,357Z"/><path class="cls-25" d="M449.1,358c-2.21-2.51-5.81,0-7.71,1.66a3.2,3.2,0,0,0-.41,4.6,3.51,3.51,0,0,0,4.81.39l0,0C447.82,363.43,451.35,360.57,449.1,358Z"/><path class="cls-25" d="M454.06,356.31A2.78,2.78,0,0,0,454,355c-.27-1.08-2-1.41-2.4-.22a3.35,3.35,0,0,0-.16,1.6,1.3,1.3,0,0,0,1.19,1A1.32,1.32,0,0,0,454.06,356.31Z"/><path class="cls-25" d="M435.22,365.62a2,2,0,0,1,0-1.48.63.63,0,0,0-1-.66c-1.66,1.07-3.62,3.34-1.54,5a1.69,1.69,0,0,0,2.27-.36A2.45,2.45,0,0,0,435.22,365.62Z"/><path class="cls-29" d="M426.74,417.43c-9.57,8.62-20.48,13.9-32.13,11.25-6.26-1.43-11.8-6.25-18.21-5.77-7.49.57-12.8,5.22-20.75,4.8-5.69-.3-9-1.42-13.56-4.9-11-8.41-20.27-19.88-27.61-31.52-16.93-26.84-25-61.62-21-93.19,2.05-15.9,12.12-31.74,27.55-36.08,11.81-3.31,24.34.45,35.95,4.41,6.59,2.25,13.43,4.61,20.37,3.89,5.81-.6,11.15-3.31,16.56-5.5,26.21-10.66,58.8-8.74,73.33,18.75,14.86,28.12,5.57,61.75-8.35,88.25C452.48,384.09,441.1,404.51,426.74,417.43Z"/><path class="cls-30" d="M460.48,326.2c-4.35,17-12.62,31.84-30.7,36.23-9.61,2.34-19.72,1.59-29.45-.21-30.38-5.62-61.87-20.92-74.7-50.7-2-4.62-3.32-9.64-2.79-14.63s3.17-9.94,7.58-12.34c5.37-2.93,12-1.62,17.91-.21,13.85,3.26,28.12,6.65,42.17,4.37,9.86-1.6,19.05-5.93,28.68-8.6s20.49-3.53,29.14,1.47c7.18,4.14,11.82,11.89,13.51,20S462.54,318.17,460.48,326.2Z"/><path class="cls-31" d="M363.28,272.35c7.42,2.14,14.42-.05,21.8.89a3.08,3.08,0,0,1,2.09,1.36c3-1.62,5.8-3.19,9.3-1.93a.58.58,0,0,1,.33.86c-3.07,4.83-9.63,8.23-15,9.68-7.25,2-15-2.18-21.19-5.35C357.2,276.13,360,271.39,363.28,272.35Z"/><path class="cls-32" d="M423.34,286.43c5.29-1.79,10.77-4.09,16.07-1.31,3.37,1.76,3.7,5.32,2.86,8.71a11.36,11.36,0,0,1,.05,6.75c-1.5,5.68-8,8.49-13.34,8.17-5.1-.3-14-5.38-15.13-10.83C412.45,291,417.65,288.37,423.34,286.43Z"/><path class="cls-32" d="M447.27,299.82a.75.75,0,0,0,.07-.12,2.73,2.73,0,0,1,.39-.71,3.06,3.06,0,0,1,2.37-1.39,3.77,3.77,0,0,1,3.66,3.31,4,4,0,0,1-.6,3.1,3.73,3.73,0,0,1-4.18,1.52C446.54,304.84,445.94,301.75,447.27,299.82Z"/><path class="cls-3" d="M379.47,242.25a4,4,0,0,1,4.4-1.42,2.33,2.33,0,0,1,1.39.66c.11.14.21.28.31.43a3.83,3.83,0,0,1,.41,4.51c-5.33,10.16-7.44,18.25-5.86,29.7a1.08,1.08,0,0,1-2,.67C372.4,266.61,372.72,251.79,379.47,242.25Z"/><path class="cls-29" d="M331.37,289.69A950.61,950.61,0,0,1,220.63,365c17.52,15.67,40.77,25.59,64.25,24.45s46.68-14.29,57.36-35.23S349.06,305.18,331.37,289.69Z"/><path class="cls-22" d="M328.88,288.81a7.68,7.68,0,0,0-3.42,1q-59.77,29.07-118.09,61c7.89,11.12,18.08,20.73,30.12,27.13s26,9.5,39.5,7.87c19.8-2.38,37.77-15,48.07-32.09s13.15-38.18,9.32-57.75C333.76,292.77,332.15,288.9,328.88,288.81Z"/><path class="cls-33" d="M254.73,335.6c-.38,3.71,2.74,7,6.22,8.33a18.52,18.52,0,0,0,12.27-.12,43.48,43.48,0,0,0,11-5.91c4.8-3.31,9.7-7.41,10.89-13.12.49-2.33.21-5-1.44-6.72a7.12,7.12,0,0,0-5.73-1.88,21.39,21.39,0,0,0-6,1.69c-7.47,2.93-15,5.89-21.63,10.42C257.7,330.08,255.06,332.45,254.73,335.6Z"/><path class="cls-3" d="M285.93,325.33c-.67-2.08-2.51-2.85-4.51-3-3.68-.22-9.17,1.33-11.37,4.73a7.26,7.26,0,0,0-.95.9c-2.16,2.43-.84,5.73,2.13,6.54,4.87,1.35,10.43-1.43,13.7-4.91A4.37,4.37,0,0,0,285.93,325.33Z"/><path class="cls-23" d="M256.6,348.85c-4.28-1.44-8.35-3.57-12.79-4.42s-9.55-.13-12.51,3.28c-3.29,3.78-2.82,9.8-.06,14s7.31,6.81,11.91,8.78c7.34,3.14,15.4,4.95,23.35,4.12s15.75-4.53,20.63-10.86c1.94-2.53,3.42-6,2-8.85a7.3,7.3,0,0,0-5.4-3.66,27.8,27.8,0,0,0-6.76,0A53,53,0,0,1,256.6,348.85Z"/><path class="cls-23" d="M307.13,336.84A20.17,20.17,0,0,0,294.86,351c-.35,1.56-.42,3.43.75,4.53a4.58,4.58,0,0,0,3.07,1A17.53,17.53,0,0,0,315,346.09a10.11,10.11,0,0,0,.91-5.12,5.61,5.61,0,0,0-2.71-4.28C311.37,335.7,309.09,336.1,307.13,336.84Z"/><path class="cls-31" d="M328.26,363.81a5.88,5.88,0,0,0-6.23,1.38,10,10,0,0,0-3.33,4.3c-.58,1.75,1.15,3,2.65,3,1.85.08,3.55-.93,5.16-1.71A5.32,5.32,0,0,0,329.7,366,2.46,2.46,0,0,0,328.26,363.81Z"/><path class="cls-31" d="M332.32,357.84a3.43,3.43,0,0,0-1.16,2.11c-.18.67.7.94,1.12.53a3.19,3.19,0,0,0,1.25-1.85A.78.78,0,0,0,332.32,357.84Z"/><path class="cls-34" d="M236.56,548.31C185,538.07,144.26,512.12,113.28,474s-45.67-86.54-40.5-133.41c161.12,24.15,326.42,19.15,488.22-1,4.63-.58,6.29,89.71-54.59,150.58-30.27,30.27-83.66,54.45-128.65,60.41C331,556.74,283.24,557.58,236.56,548.31Z"/><path class="cls-2" d="M573.39,322.78c2,11.16-10.58,19.71-21.75,25.06-68.27,32.67-145.5,49.84-223,51.45s-155-12.2-226.72-38.45c-10.19-3.73-20.47-7.83-28.51-14.53a33.74,33.74,0,0,1-11.87-26.23c0-14.24,13.71-19.87,33.36-20.87-.52,7.45-.52,7.45-1,14.9a677.92,677.92,0,0,0,448.68-1.05q.45-4.21.88-8.43C556.12,306.82,571.39,311.41,573.39,322.78Z"/><path class="cls-2" d="M364.45,93.66c-16.65.06-34,4-51.54,10.81-44.23,17.25-74.27,60.5-87.18,106.19s-11.13,94.1-8.26,141.49c16.6,4.9,34.17,5.62,48.72,6.84a680.09,680.09,0,0,1,4-120.12c2.49-20.38,6-41,15.34-59.32,10.85-21.35,39.94-45.81,63.92-51.1a53.69,53.69,0,0,1,16-1.18A203,203,0,0,1,364.45,93.66Z"/><path class="cls-35" d="M276.09,549.23C204.3,525.94,157.35,459.85,164,381.59c.39-4.62-7.34-2.07-7.46,1.61A178.38,178.38,0,0,0,272,555.68C275.48,557,280.52,550.66,276.09,549.23Z"/><path class="cls-35" d="M305.83,549A206.5,206.5,0,0,1,265,398.83c.56-4.54-7.37-2-7.46,1.61-1.38,55.44,9.59,110.06,41.63,153.26C301.51,556.87,308.21,552.13,305.83,549Z"/><path class="cls-35" d="M354.75,549.23c69.18-26,114.45-93.79,112.12-167.64-.15-4.64,7.34-2.07,7.46,1.61,2.4,76.25-46.39,143-117.76,169.76C353.12,554.26,350.39,550.86,354.75,549.23Z"/><path class="cls-35" d="M325,549c32.64-42.68,50.64-97.93,44.09-151.26-.56-4.54,3.76-.94,4.21,2.68A211.14,211.14,0,0,1,331.68,553.7C329.28,556.84,322.63,552.13,325,549Z"/><path class="cls-36" d="M263.16,346.78c-15.81,4.43-30.67-5.72-46.55-5.15-2.23.08-4.41,4.13-1.4,4,16.37-.59,31.22,9.65,47.68,5C265.2,350,266.25,345.92,263.16,346.78Z"/><path class="cls-36" d="M265.66,317.79a52.25,52.25,0,0,1-47.54-27.38c-1.11-2-5.15.72-4,2.8a55.2,55.2,0,0,0,50.14,28.6C266.49,321.75,268.67,317.7,265.66,317.79Z"/><path class="cls-36" d="M266.93,282.07a68.16,68.16,0,0,1-44.36-46.35c-.69-2.45-5-.23-4.39,1.94A71,71,0,0,0,264.49,286C266.59,286.64,269.57,282.94,266.93,282.07Z"/><path class="cls-36" d="M271.18,234.75a74,74,0,0,1-28.68-59.12c0-2.79-4.46-1.25-4.48,1a76.93,76.93,0,0,0,29.84,61.63C269.63,239.6,273.2,236.32,271.18,234.75Z"/><path class="cls-36" d="M285.34,182.25a65.32,65.32,0,0,1-4.11-58.2c1.14-2.79-3.42-2.13-4.26-.06a68.57,68.57,0,0,0,4.37,61.06C282.52,187.07,286.54,184.3,285.34,182.25Z"/><path class="cls-36" d="M336.7,96.41a60.91,60.91,0,0,0-27.58,55.68c.23,2.79,4.66,1.23,4.48-1a56.1,56.1,0,0,1,25.12-51.83C341.27,97.62,339.23,94.76,336.7,96.41Z"/><path class="cls-36" d="M380.41,92.93a47.81,47.81,0,0,0-28.29,35c-.53,2.64,4.05,1.15,4.47-1a41.78,41.78,0,0,1,24.7-30.54C383.8,95.37,383.36,91.66,380.41,92.93Z"/><path class="cls-36" d="M124.94,373.52c-22.36-10.39-33.75-34.32-27.13-58.26.81-2.93-3.65-2.25-4.26-.06C86.61,340.29,97.87,366,121.61,377,123.64,377.93,127.15,374.55,124.94,373.52Z"/><path class="cls-36" d="M181.39,387.76c-21.75-10.81-34.22-32.63-32.32-56.9.21-2.76-4.31-1.23-4.48,1-2,25.14,10.86,48.17,33.48,59.41C180.07,392.23,183.59,388.85,181.39,387.76Z"/><path class="cls-36" d="M247.55,405c-17-15-37.59-35.06-29.44-60.11.94-2.88-3.55-2.21-4.25-.06-8.64,26.55,12.19,47.53,30.37,63.64C245.89,409.93,249.47,406.68,247.55,405Z"/><path class="cls-36" d="M307.47,401.69c-22.43-7.73-36-28.87-33.88-52.49.24-2.75-4.28-1.23-4.48,1A52.79,52.79,0,0,0,305,405.56C307.12,406.28,310.11,402.59,307.47,401.69Z"/><path class="cls-36" d="M365.6,400.29a50.33,50.33,0,0,1-26.8-47.6c.17-2.77-4.34-1.23-4.47,1a53,53,0,0,0,27.94,50.1C364.26,404.81,367.78,401.45,365.6,400.29Z"/><path class="cls-36" d="M439.77,400.47a61.79,61.79,0,0,1-39.23-54.76c-.11-2.79-4.56-1.24-4.47,1a64.59,64.59,0,0,0,41.27,57.66C439.4,405.14,442.38,401.48,439.77,400.47Z"/><path class="cls-36" d="M496.27,381.57a52,52,0,0,1-36.43-43.76c-.29-2.45-4.66-.29-4.4,1.93a54.65,54.65,0,0,0,38.39,45.71C495.94,386.09,498.92,382.38,496.27,381.57Z"/><path class="cls-36" d="M552.52,361a47.75,47.75,0,0,1-36-37.8c-.46-2.46-4.81-.27-4.4,1.94a50.48,50.48,0,0,0,38,39.74C552.22,365.43,555.2,361.68,552.52,361Z"/><path class="cls-35" d="M552.75,371.4C523.6,397.5,485.7,409,447.65,414.31c-42.28,5.94-85.77,6.16-128.4,6.87s-85.89,1.93-128-4.55c-40.6-6.24-78.11-23.67-115-41-2-.95-5.53,2.43-3.32,3.47,37.32,17.53,74.86,34.62,115.85,41.39,43.39,7.16,88.53,5.37,132.33,4.64,44.07-.74,88.87-1.31,132.52-7.85,37.17-5.56,73.79-18.5,102.12-43.87C558.17,371.28,554.75,369.61,552.75,371.4Z"/><path class="cls-35" d="M542.79,438.71c-73.42,30.68-153.87,34.1-232.39,34.72-77.09.6-161.57-.67-224.23-52.14-1.72-1.42-5.3,1.84-3.32,3.47C146,476.66,231.28,478,309,477.45c79.3-.55,160.56-4.24,234.68-35.22C546.2,441.18,545.76,437.47,542.79,438.71Z"/><path class="cls-35" d="M451.75,522.57c-54,5.11-108.65,2.09-162.75-.11-27.06-1.1-54.08-2.76-81-5.71-25.13-2.75-51-6.63-72-21.74-1.83-1.32-5.39,2-3.33,3.46,18.29,13.16,40.14,17.89,62.09,20.87,28.61,3.89,57.54,5.56,86.37,6.86,56.19,2.54,113.14,5.7,169.25.39C452.54,526.38,454.72,522.29,451.75,522.57Z"/></svg>