<svg xmlns="http://www.w3.org/2000/svg" xmlns:xlink="http://www.w3.org/1999/xlink" width="341" height="276" viewBox="0 0 341 276">
  <defs>
    <style>
      .cls-1 {
        fill: none;
      }

      .cls-2 {
        isolation: isolate;
      }

      .cls-3 {
        fill: #2d6633;
      }

      .cls-4 {
        fill: #3d8841;
      }

      .cls-5 {
        fill: #318942;
      }

      .cls-6 {
        fill: #36ac4a;
      }

      .cls-7 {
        fill: #ea965f;
      }

      .cls-10, .cls-8 {
        mix-blend-mode: multiply;
      }

      .cls-10, .cls-11, .cls-8 {
        opacity: 0.1;
      }

      .cls-10, .cls-9 {
        fill: #221f1f;
      }

      .cls-11 {
        mix-blend-mode: screen;
      }

      .cls-12 {
        fill: #fff;
      }

      .cls-13 {
        clip-path: url(#clip-path);
      }

      .cls-14 {
        opacity: 0.26;
      }
    </style>
    <clipPath id="clip-path">
      <rect class="cls-1" x="-1700" y="-624" width="1600" height="900"/>
    </clipPath>
  </defs>
  <g class="cls-2">
    <g id="Layer_1" data-name="Layer 1">
      <g>
        <g>
          <g>
            <path class="cls-3" d="M27.9,92.27a68.43,68.43,0,0,1,8,.84,121.5,121.5,0,0,1,20.67,5.08,133.7,133.7,0,0,1,13.16,5.33,124,124,0,0,1,13.83,7.64c2.36,1.39,4.56,3.11,6.88,4.69,2.19,1.78,4.54,3.4,6.64,5.36a117.53,117.53,0,0,1,12.31,12.24c1.91,2.19,3.64,4.54,5.46,6.79,1.63,2.39,3.35,4.7,4.89,7.11A165.23,165.23,0,0,1,128,162c1.19,2.45,2.4,4.84,3.5,7.22s2,4.8,3,7.08,1.76,4.62,2.61,6.82,1.61,4.36,2.22,6.47,1.31,4.09,2,6,1,3.76,1.54,5.48c.95,3.45,1.81,6.46,2.37,9,1.18,5,1.95,7.9,1.95,7.9l.47-.07s-.22-2.95-.76-8.13a89.67,89.67,0,0,0-1.35-9.29A117,117,0,0,0,143,188.49c-.51-2.18-1.14-4.43-1.9-6.73s-1.4-4.72-2.29-7.13-1.86-4.89-2.87-7.4-2.31-5-3.5-7.52a138.27,138.27,0,0,0-8.95-14.87c-1.68-2.43-3.55-4.77-5.34-7.16-2-2.26-3.84-4.61-5.9-6.79a123.07,123.07,0,0,0-13.05-12.22c-2.23-1.94-4.69-3.54-7-5.29-2.44-1.55-4.74-3.23-7.2-4.59a118.24,118.24,0,0,0-14.37-7.33,133.28,133.28,0,0,0-13.57-4.87,123.36,123.36,0,0,0-21.07-4.28,71.61,71.61,0,0,0-8.15-.52Z"/>
            <path class="cls-4" d="M86.6,112.15S78.36,88.81,21.79,85.86,86.6,112.15,86.6,112.15Z"/>
          </g>
          <g>
            <path class="cls-3" d="M125.16,65.72a43.18,43.18,0,0,1,6.2,2.7,60.1,60.1,0,0,1,6.55,4.16l1.88,1.35,1.85,1.61a50.54,50.54,0,0,1,3.88,3.57l3.85,4.24c1.25,1.52,2.35,3.26,3.59,5,.58.87,1.26,1.69,1.8,2.63s1,1.9,1.55,2.87a62.26,62.26,0,0,1,3.05,6c1.6,4.29,3.55,8.6,4.44,13.36.53,2.34,1.22,4.66,1.63,7s.57,4.84.86,7.27c.79,4.82.54,9.75.59,14.55a108.76,108.76,0,0,1-.78,14.1q-.24,3.44-.46,6.75c-.09,2.21-.62,4.33-.84,6.43-.61,4.17-1.14,8.14-1.59,11.81s-1.26,7-1.76,9.95-1.06,5.54-1.4,7.69c-.75,4.28-1.1,6.77-1.1,6.77l.46.13s.88-2.33,2.27-6.46c.72-2.06,1.54-4.59,2.44-7.49l1.46-4.64a34.33,34.33,0,0,0,1.39-5.2c.79-3.66,1.61-7.66,2.42-11.89,1-4.2,1.28-8.77,1.69-13.47A93.29,93.29,0,0,0,171.4,142c-.28-5-.26-10-1.3-15q-.58-3.73-1.16-7.47c-.52-2.45-1.32-4.85-2-7.24-1.1-4.87-3.28-9.3-5.1-13.66a62.71,62.71,0,0,0-3.39-6.09l-1.71-2.91c-.59-.94-1.33-1.76-2-2.63-1.37-1.69-2.58-3.42-4-4.92l-4.17-4.17a52.34,52.34,0,0,0-4.14-3.46l-2-1.56-2-1.28a60.84,60.84,0,0,0-6.86-3.9,42.66,42.66,0,0,0-6.43-2.44Z"/>
            <path class="cls-4" d="M159.32,94.45s1.07-20.72-41.82-41.09S159.32,94.45,159.32,94.45Z"/>
          </g>
          <g>
            <path class="cls-5" d="M55.9,85a42.56,42.56,0,0,1,6.75-.34,57.87,57.87,0,0,1,7.72.81l2.29.37,2.37.62A49.73,49.73,0,0,1,80.09,88L85.42,90c1.81.81,3.56,1.88,5.42,2.84.91.52,1.89,1,2.78,1.55l2.67,1.89a64.8,64.8,0,0,1,5.4,4c3.34,3.14,7,6.13,9.91,10,1.52,1.86,3.17,3.63,4.61,5.59l4,6.13c2.86,4,4.82,8.48,7,12.76a108.89,108.89,0,0,1,5.58,13l2.59,6.24c.9,2,1.37,4.16,2.11,6.14,1.31,4,2.6,7.79,3.82,11.28s2,6.81,2.86,9.69,1.51,5.44,2.16,7.52c1.24,4.17,2,6.55,2,6.55l.48-.09s-.25-2.47-.85-6.79c-.27-2.17-.66-4.8-1.15-7.8q-.34-2.26-.75-4.8a35.2,35.2,0,0,0-1.07-5.27c-.92-3.64-2-7.58-3.12-11.73-1-4.22-2.76-8.42-4.48-12.81a92.69,92.69,0,0,0-6.19-13.16c-2.45-4.32-4.68-8.85-7.82-12.84L119,113.73c-1.55-2-3.33-3.75-5-5.62-3.15-3.86-7.08-6.86-10.64-10a64.58,64.58,0,0,0-5.75-4l-2.83-1.84c-.94-.58-2-1-2.94-1.48-2-.9-3.83-1.91-5.73-2.64L80.6,86.36a52.44,52.44,0,0,0-5.26-1.26l-2.45-.51-2.35-.26a58.89,58.89,0,0,0-7.89-.45,44.08,44.08,0,0,0-6.84.67Z"/>
            <path class="cls-6" d="M92.16,91.92s-.66-28.66-34.81-20C4.4,85.41,92.16,91.92,92.16,91.92Z"/>
          </g>
          <g>
            <path class="cls-3" d="M157.22,27.73a77.56,77.56,0,0,1,4.62,6.54c1.32,2.18,3,4.78,4.65,7.94q1.23,2.35,2.63,5,1.23,2.73,2.59,5.71c.95,2,1.74,4.1,2.56,6.3s1.76,4.45,2.49,6.84c1.38,4.8,3.14,9.76,4.15,15.12.54,2.67,1.31,5.33,1.7,8.1s.78,5.57,1.18,8.4a67.56,67.56,0,0,1,.77,8.56q.23,4.32.47,8.66c-.11,5.78-.34,11.57-.67,17.24-.78,5.64-1.35,11.21-2.12,16.56-1,5.32-2.12,10.44-2.94,15.35-1,4.88-2.44,9.37-3.5,13.59-.59,2.09-1.09,4.13-1.56,6.06s-1.2,3.68-1.73,5.37c-1.17,3.34-2.16,6.28-2.93,8.72-1.6,4.86-2.44,7.69-2.44,7.69l.44.2s1.34-2.6,3.56-7.24c1.14-2.31,2.46-5.14,3.94-8.42a81.55,81.55,0,0,0,4.35-11.25c1.32-4.22,3.08-8.71,4.35-13.63s2.21-10.22,3.39-15.65c.68-5.51,1.17-11.24,1.7-17,.12-5.83.12-11.76,0-17.67-.26-3-.51-5.9-.76-8.83a70.14,70.14,0,0,0-1.05-8.72c-.5-2.86-1-5.71-1.47-8.52s-1.34-5.5-2-8.19a148.71,148.71,0,0,0-4.72-15.22c-.84-2.39-1.91-4.61-2.81-6.82s-1.8-4.32-2.85-6.26l-2.85-5.66-2.86-4.94c-1.77-3.11-3.59-5.66-5-7.8a80,80,0,0,0-4.93-6.4Z"/>
            <path class="cls-4" d="M181.17,86.86S211,64.71,176.25,35.08C122.38-10.85,181.17,86.86,181.17,86.86Z"/>
          </g>
          <g>
            <path class="cls-3" d="M111.75,82.35a7.91,7.91,0,0,1,1.31.68,20.47,20.47,0,0,1,3.27,2.68l2,2.23,2.16,2.87a65,65,0,0,1,4.38,7.4c1.54,2.75,2.81,5.94,4.25,9.26s2.65,7,3.88,10.71,2.47,7.65,3.41,11.71,2.16,8.09,2.94,12.26,1.68,8.28,2.4,12.38l2,12.05c.86,3.87,1.27,7.7,2,11.26s1.3,7,1.95,10.08,1.12,6,1.59,8.54.92,4.77,1.34,6.59c.79,3.65,1.33,5.73,1.33,5.73l.5-.05s0-2.14-.06-5.88c0-1.87-.1-4.14-.25-6.74s-.22-5.54-.46-8.73-.68-6.63-1.13-10.28-.91-7.48-1.64-11.42l-2.52-12.1c-1-4.1-2.09-8.24-3.13-12.38s-2.38-8.23-3.53-12.27-2.71-7.92-4-11.72c-1.44-3.75-2.94-7.34-4.47-10.69s-3.14-6.45-4.88-9.18a67.44,67.44,0,0,0-4.92-7.28l-2.39-2.8-2.24-2.18a21.75,21.75,0,0,0-3.56-2.57,8.46,8.46,0,0,0-1.44-.64Z"/>
            <path class="cls-4" d="M134.68,115.23s3.41-15.4-26.21-36.06S134.68,115.23,134.68,115.23Z"/>
          </g>
          <g>
            <path class="cls-3" d="M75.64,142.4a69,69,0,0,1,11.84,2.91,85.42,85.42,0,0,1,11.43,4.81c2,1,4,2.25,6,3.5a56,56,0,0,1,5.68,4.29l2.67,2.35c.84.83,1.59,1.75,2.37,2.6a47,47,0,0,1,4.22,5.31,51.33,51.33,0,0,1,3.61,5.2c.55.85,1.15,1.65,1.62,2.48l1.28,2.46c.78,1.59,1.74,3,2.28,4.34s1.08,2.54,1.54,3.52c.88,2,1.47,3.09,1.47,3.09l.47-.09s-.05-1.24-.3-3.43c-.11-1.1-.28-2.44-.51-4a39.85,39.85,0,0,0-1.43-5c-.31-.91-.62-1.86-.95-2.84s-1-1.88-1.44-2.87a29.32,29.32,0,0,0-3.64-5.9l-2.32-2.84a27.66,27.66,0,0,0-2.69-2.61c-1-.85-1.85-1.73-2.82-2.55L113,154.89a62.21,62.21,0,0,0-6.34-4.1c-2.19-1.16-4.36-2.27-6.52-3.18a65.37,65.37,0,0,0-6.35-2.35c-2-.68-4-1.15-5.81-1.59a61.41,61.41,0,0,0-12.26-1.75Z"/>
            <path class="cls-4" d="M102.79,148.86s-7.93-12.76-41.85-7.12S102.79,148.86,102.79,148.86Z"/>
          </g>
          <g>
            <path class="cls-5" d="M144.89,112.49a68.56,68.56,0,0,1,6.34,10.41A82.67,82.67,0,0,1,156,134.36c.69,2.15,1.26,4.42,1.8,6.71a57.24,57.24,0,0,1,1,7.05l.24,3.55c0,1.18-.1,2.35-.15,3.51a47.12,47.12,0,0,1-.74,6.74,52.9,52.9,0,0,1-1.1,6.24c-.21,1-.34,2-.6,2.89s-.56,1.8-.82,2.65c-.57,1.69-.87,3.35-1.44,4.7s-1,2.56-1.38,3.58c-.76,2-1.14,3.23-1.14,3.23l.41.26s.83-.92,2.19-2.65c.7-.85,1.52-1.92,2.43-3.17a38.41,38.41,0,0,0,2.51-4.55c.42-.87.86-1.76,1.32-2.69s.66-2,1-3a30,30,0,0,0,1.57-6.76c.12-1.2.23-2.42.35-3.66a27.71,27.71,0,0,0-.07-3.75c-.07-1.25-.09-2.52-.2-3.79l-.57-3.77a61.89,61.89,0,0,0-1.61-7.37c-.74-2.37-1.5-4.69-2.39-6.86a63.44,63.44,0,0,0-2.85-6.13c-1-1.92-2-3.64-3-5.23a61.35,61.35,0,0,0-7.47-9.88Z"/>
            <path class="cls-6" d="M157.74,136.88s17.58-26.57-19.09-40.32C81.8,75.25,157.74,136.88,157.74,136.88Z"/>
          </g>
          <g>
            <path class="cls-3" d="M282.64,119.33a11.19,11.19,0,0,0-1.43-.65,23.67,23.67,0,0,0-4.23-1.3,40.8,40.8,0,0,0-6.83-.94l-4.25,0c-1.49,0-3,.36-4.68.54a29.22,29.22,0,0,0-5,1,38.23,38.23,0,0,0-5.26,1.56l-5.4,2.13c-1.8.82-3.54,1.85-5.36,2.79-3.74,1.77-7.06,4.42-10.68,6.78s-6.72,5.47-10.13,8.22c-3.22,2.94-6.26,6.07-9.36,9.07s-5.62,6.39-8.32,9.46a93.32,93.32,0,0,0-7,9.46c-2.1,3.09-4,6-5.8,8.78s-3,5.47-4.31,7.78-2.34,4.35-3.18,6.06c-1.73,3.37-2.63,5.34-2.63,5.34l.41.24s1.38-1.68,3.66-4.7,5.39-7.41,9.23-12.57c2-2.52,4.14-5.26,6.36-8.19,1.13-1.45,2.25-3,3.38-4.53s2.49-3,3.76-4.53c2.54-3.07,5-6.43,7.77-9.56s5.66-6.27,8.64-9.31c3.19-2.79,6.21-5.83,9.51-8.39,3.39-2.41,6.53-5.15,10.06-7,1.72-1,3.37-2.06,5.07-2.93l5.11-2.29a33.62,33.62,0,0,1,5-1.79,27.6,27.6,0,0,1,4.78-1.28c1.57-.26,3.06-.66,4.5-.77l4.11-.28a40.14,40.14,0,0,1,6.68.54,24.4,24.4,0,0,1,4.19,1,13.44,13.44,0,0,1,1.43.56Z"/>
            <path class="cls-4" d="M262.9,117.81s11.16-10.06,42.18,4.78S262.9,117.81,262.9,117.81Z"/>
          </g>
          <g>
            <path class="cls-3" d="M262.74,82.85A52.52,52.52,0,0,0,256,84.53a77.54,77.54,0,0,0-7.48,2.87,98.48,98.48,0,0,0-9.28,4.72c-3.16,2.13-6.8,4.18-10.12,7.06-1.67,1.41-3.55,2.71-5.17,4.35l-5,5a59.26,59.26,0,0,0-4.77,5.52c-1.51,2-3.27,3.76-4.62,5.89l-4.17,6.36c-.69,1.08-1.44,2.12-2.07,3.23l-1.76,3.41A106.42,106.42,0,0,0,195,146.7a99.27,99.27,0,0,0-4.92,14q-.9,3.48-1.76,6.84a48.76,48.76,0,0,0-1.45,6.59c-.64,4.34-1.2,8.45-1.68,12.24a74.7,74.7,0,0,0-.71,10.38c-.1,3.1-.16,5.8-.15,8,0,4.44,0,7,0,7l.48,0s.49-2.5,1.19-6.86c.38-2.18.78-4.82,1.19-7.85.22-1.52.45-3.13.69-4.82s.75-3.44,1.09-5.29c.79-3.67,1.61-7.65,2.43-11.85s2.27-8.49,3.46-13c.94-4.6,2.76-9.05,4.33-13.69a102.68,102.68,0,0,1,5.74-13.66l1.59-3.38c.58-1.1,1.27-2.13,1.9-3.19l3.83-6.33c1.23-2.12,2.88-3.92,4.28-5.87a55.16,55.16,0,0,1,4.45-5.53l4.7-5c1.53-1.65,3.3-3,4.87-4.43,3.1-3,6.56-5.14,9.56-7.39a95.24,95.24,0,0,1,8.9-5.06c2.69-1.44,5.21-2.33,7.23-3.19a54.43,54.43,0,0,1,6.6-2Z"/>
            <path class="cls-4" d="M229.76,101.35s-7.08-28.24,28.7-28.95C313.92,71.3,229.76,101.35,229.76,101.35Z"/>
          </g>
          <g>
            <path class="cls-5" d="M227.17,82.33a49.25,49.25,0,0,0-5.35,3c-1.58,1.15-3.59,2.43-5.65,4.23a84.75,84.75,0,0,0-6.74,6.22,83.89,83.89,0,0,0-6.89,8.41c-1.08,1.59-2.36,3.14-3.34,4.92l-3.06,5.41a51.62,51.62,0,0,0-2.73,5.82c-.81,2-1.88,4-2.51,6.1l-2,6.4c-.32,1.07-.71,2.14-1,3.23l-.68,3.31A94.92,94.92,0,0,0,185,152.69a89.08,89.08,0,0,0-.84,13c.05,2.12.1,4.19.15,6.23a42.57,42.57,0,0,0,.35,5.93c.5,3.84,1,7.45,1.5,10.78a65.58,65.58,0,0,0,1.88,9c.66,2.65,1.26,4.95,1.79,6.83,1,3.77,1.68,5.9,1.68,5.9l.42-.1s-.19-2.24-.64-6.1c-.2-1.94-.49-4.28-.86-6.95-.18-1.33-.37-2.75-.57-4.25s-.19-3.09-.34-4.74c-.21-3.3-.47-6.87-.78-10.63s-.1-7.75-.18-11.85c-.29-4.12.18-8.34.4-12.65a90.71,90.71,0,0,1,1.6-12.95l.54-3.25c.23-1.07.57-2.1.85-3.16.58-2.1,1.16-4.2,1.73-6.28s1.51-4,2.23-6a49.32,49.32,0,0,1,2.45-5.76c.94-1.82,1.87-3.62,2.79-5.37s2.08-3.31,3.06-4.93a83.27,83.27,0,0,1,6.34-8.55,86.16,86.16,0,0,1,6.33-6.42c2-1.87,3.87-3.22,5.38-4.43a49.33,49.33,0,0,1,5.12-3.26Z"/>
            <path class="cls-6" d="M199.64,109.08s-2.11-15.32,28.47-33.16S199.64,109.08,199.64,109.08Z"/>
          </g>
        </g>
        <g>
          <rect class="cls-7" x="99.81" y="173.22" width="120.1" height="16.71" transform="translate(319.72 363.16) rotate(180)"/>
          <g>
            <path class="cls-7" d="M103.37,184.31h113c6.31,27-.1,57.12-18.18,78.3H121.54C103.47,241.43,97.06,211.28,103.37,184.31Z"/>
            <g class="cls-8">
              <path class="cls-9" d="M135.33,256.37h49.06c8.83,0,18.75-3.19,24.59-9.87-3.73,6.94-6,8.36-10.8,16.11H121.54c-4.81-7.75-7.07-9.17-10.79-16.11C116.59,253.18,126.5,256.37,135.33,256.37Z"/>
            </g>
            <path class="cls-10" d="M101,203.56a77.07,77.07,0,0,1,1.18-13.9H217.58a77.07,77.07,0,0,1,1.18,13.9Z"/>
          </g>
          <g class="cls-11">
            <path class="cls-12" d="M219.91,176.42c-11.88,2-34.31,3.27-60,3.27s-48.16-1.32-60.05-3.27v-3.2h120.1Z"/>
          </g>
        </g>
      </g>
    </g>
  </g>
</svg>
