<svg xmlns="http://www.w3.org/2000/svg" width="316" height="250" viewBox="0 0 316 250">
  <defs>
    <style>
      .cls-1 {
        isolation: isolate;
      }

      .cls-2 {
        fill: #2d6633;
      }

      .cls-3 {
        fill: #3d8841;
      }

      .cls-4 {
        fill: #318942;
      }

      .cls-5 {
        fill: #36ac4a;
      }

      .cls-6 {
        fill: #ea965f;
      }

      .cls-7, .cls-9 {
        mix-blend-mode: multiply;
      }

      .cls-10, .cls-7, .cls-9 {
        opacity: 0.1;
      }

      .cls-8, .cls-9 {
        fill: #221f1f;
      }

      .cls-10 {
        mix-blend-mode: screen;
      }

      .cls-11 {
        fill: #fff;
      }
    </style>
  </defs>
  <g class="cls-1">
    <g id="Layer_1" data-name="Layer 1">
      <g>
        <g>
          <g>
            <path class="cls-2" d="M53.15,78.38a61.71,61.71,0,0,1,7.05.74,105.27,105.27,0,0,1,18.11,4.45,115.22,115.22,0,0,1,11.52,4.67A109.48,109.48,0,0,1,102,94.93c2.06,1.22,4,2.73,6,4.11,1.91,1.56,4,3,5.82,4.69a104,104,0,0,1,10.78,10.73c1.67,1.91,3.19,4,4.78,5.94,1.43,2.1,2.94,4.13,4.29,6.24a145.86,145.86,0,0,1,7.22,12.8c1,2.15,2.1,4.24,3.06,6.33s1.75,4.2,2.65,6.2,1.55,4.05,2.29,6,1.41,3.82,1.95,5.67,1.14,3.59,1.7,5.26.93,3.29,1.36,4.8c.83,3,1.58,5.66,2.07,7.87,1,4.4,1.71,6.92,1.71,6.92l.41-.06s-.19-2.59-.67-7.12a73.49,73.49,0,0,0-1.18-8.14,101.33,101.33,0,0,0-2.2-10.46q-.66-2.88-1.66-5.9c-.65-2-1.23-4.13-2-6.25s-1.63-4.28-2.51-6.48-2-4.35-3.07-6.58a119.82,119.82,0,0,0-7.84-13c-1.47-2.13-3.11-4.17-4.67-6.27-1.73-2-3.37-4-5.18-5.94a105.77,105.77,0,0,0-11.43-10.71c-2-1.7-4.11-3.1-6.12-4.63-2.13-1.36-4.15-2.84-6.3-4a104,104,0,0,0-12.59-6.42,115.16,115.16,0,0,0-11.89-4.26,107,107,0,0,0-18.46-3.76A61.51,61.51,0,0,0,53.15,78Z"/>
            <path class="cls-3" d="M104.58,95.79s-7.22-20.44-56.78-23S104.58,95.79,104.58,95.79Z"/>
          </g>
          <g>
            <path class="cls-2" d="M138.36,55.12a37.48,37.48,0,0,1,5.43,2.37,50.61,50.61,0,0,1,5.74,3.64l1.65,1.18,1.62,1.41c1.07,1,2.33,1.92,3.39,3.13l3.38,3.71c1.1,1.34,2.06,2.86,3.14,4.34.52.76,1.11,1.49,1.58,2.3s.9,1.67,1.35,2.52A55,55,0,0,1,168.32,85c1.4,3.76,3.11,7.54,3.89,11.7.46,2,1.07,4.09,1.43,6.18l.75,6.37c.7,4.22.47,8.54.52,12.74a92.92,92.92,0,0,1-.69,12.36c-.13,2-.26,4-.39,5.91s-.55,3.79-.74,5.63c-.53,3.66-1,7.13-1.4,10.35s-1.1,6.11-1.54,8.71-.93,4.86-1.23,6.74c-.65,3.76-1,5.93-1,5.93l.41.12s.76-2,2-5.66c.63-1.81,1.35-4,2.14-6.57l1.28-4a32,32,0,0,0,1.22-4.56c.69-3.21,1.4-6.71,2.12-10.42a79.9,79.9,0,0,0,1.48-11.8,82.63,82.63,0,0,0,.28-12.73c-.25-4.35-.23-8.77-1.14-13.12q-.51-3.28-1-6.54c-.45-2.16-1.15-4.25-1.71-6.35-1-4.26-2.88-8.15-4.47-12a55.81,55.81,0,0,0-3-5.33q-.75-1.29-1.5-2.55c-.51-.83-1.17-1.55-1.74-2.31-1.19-1.48-2.25-3-3.46-4.31l-3.64-3.65a46,46,0,0,0-3.64-3l-1.72-1.36-1.74-1.12a53.23,53.23,0,0,0-6-3.43,37.37,37.37,0,0,0-5.64-2.13Z"/>
            <path class="cls-3" d="M168.28,80.29s.94-18.15-36.63-36S168.28,80.29,168.28,80.29Z"/>
          </g>
          <g>
            <path class="cls-4" d="M77.68,72a38.56,38.56,0,0,1,5.92-.29,51.94,51.94,0,0,1,6.76.71l2,.32,2.08.54c1.41.43,2.94.68,4.43,1.29l4.68,1.83c1.58.7,3.11,1.64,4.74,2.48.8.46,1.65.84,2.44,1.36l2.33,1.66a55,55,0,0,1,4.74,3.5c2.92,2.75,6.13,5.37,8.68,8.75,1.33,1.64,2.78,3.18,4,4.9l3.51,5.37c2.5,3.47,4.22,7.43,6.13,11.18A94.75,94.75,0,0,1,145,127l2.27,5.47c.79,1.77,1.2,3.64,1.85,5.38,1.15,3.51,2.28,6.83,3.35,9.88s1.74,6,2.5,8.49,1.33,4.77,1.9,6.59c1.08,3.65,1.78,5.73,1.78,5.73l.41-.07s-.22-2.17-.74-6c-.24-1.89-.58-4.19-1-6.83q-.31-2-.66-4.2a31.31,31.31,0,0,0-.94-4.62c-.81-3.19-1.73-6.64-2.74-10.28a80,80,0,0,0-3.92-11.22,81.16,81.16,0,0,0-5.42-11.53c-2.15-3.78-4.1-7.75-6.86-11.24-1.27-1.81-2.55-3.61-3.82-5.41s-2.92-3.29-4.36-4.92c-2.76-3.39-6.2-6-9.32-8.73a57.75,57.75,0,0,0-5-3.46l-2.48-1.61c-.83-.51-1.74-.86-2.59-1.29-1.72-.8-3.35-1.68-5-2.32L99.32,73.2a46.34,46.34,0,0,0-4.61-1.1l-2.14-.45-2.07-.23A51.45,51.45,0,0,0,83.6,71a37.8,37.8,0,0,0-6,.59Z"/>
            <path class="cls-5" d="M109.45,78.07S108.87,53,79,60.57C32.57,72.37,109.45,78.07,109.45,78.07Z"/>
          </g>
          <g>
            <path class="cls-2" d="M166.44,21.84a66.47,66.47,0,0,1,4.06,5.73c1.15,1.91,2.64,4.19,4.07,7l2.3,4.39,2.27,5c.83,1.72,1.52,3.59,2.24,5.52s1.55,3.89,2.18,6c1.22,4.2,2.75,8.55,3.64,13.25.48,2.33,1.15,4.66,1.49,7.09s.68,4.88,1,7.36a60.23,60.23,0,0,1,.68,7.5c.13,2.52.27,5.06.41,7.59-.1,5.06-.3,10.13-.58,15.1-.69,4.94-1.19,9.82-1.87,14.51-.89,4.66-1.85,9.14-2.57,13.45s-2.14,8.2-3.07,11.9c-.51,1.83-.95,3.61-1.37,5.31s-1,3.22-1.51,4.7c-1,2.93-1.9,5.51-2.57,7.65-1.4,4.26-2.13,6.73-2.13,6.73l.38.18s1.18-2.28,3.12-6.35c1-2,2.16-4.5,3.45-7.37a73.48,73.48,0,0,0,3.82-9.86c1.15-3.7,2.69-7.63,3.8-11.94s1.94-8.95,3-13.71c.6-4.83,1-9.85,1.5-14.93.1-5.11.1-10.31,0-15.48l-.66-7.74a60.44,60.44,0,0,0-.92-7.63c-.44-2.51-.86-5-1.29-7.47s-1.17-4.82-1.73-7.17a128.9,128.9,0,0,0-4.14-13.33c-.73-2.1-1.68-4-2.46-6s-1.58-3.78-2.5-5.49L178,38.34,175.47,34c-1.55-2.73-3.14-5-4.39-6.84a67,67,0,0,0-4.31-5.6Z"/>
            <path class="cls-3" d="M187.43,73.64s26.13-19.4-4.31-45.36C135.92-12,187.43,73.64,187.43,73.64Z"/>
          </g>
          <g>
            <path class="cls-2" d="M126.61,69.69a7.34,7.34,0,0,1,1.15.59,18.88,18.88,0,0,1,2.86,2.35l1.8,2,1.89,2.51a56.65,56.65,0,0,1,3.84,6.48c1.35,2.41,2.46,5.21,3.72,8.11s2.32,6.1,3.4,9.39,2.16,6.7,3,10.26,1.89,7.09,2.57,10.74,1.48,7.25,2.11,10.84,1.18,7.14,1.75,10.56c.76,3.39,1.11,6.74,1.75,9.87s1.14,6.09,1.71,8.83,1,5.25,1.39,7.48.81,4.18,1.18,5.77c.68,3.2,1.16,5,1.16,5l.44,0s0-1.88-.06-5.15c0-1.64-.08-3.63-.21-5.9s-.19-4.86-.41-7.66-.59-5.81-1-9-.8-6.56-1.44-10-1.46-7-2.21-10.6-1.83-7.21-2.75-10.84-2.08-7.21-3.08-10.76-2.38-6.93-3.5-10.26-2.56-6.43-3.9-9.37-2.76-5.65-4.28-8a59.68,59.68,0,0,0-4.32-6.38L133.1,74l-2-1.91A19.17,19.17,0,0,0,128,69.83a7.3,7.3,0,0,0-1.27-.56Z"/>
            <path class="cls-3" d="M146.7,98.5s3-13.5-23-31.6S146.7,98.5,146.7,98.5Z"/>
          </g>
          <g>
            <path class="cls-2" d="M95,122.29a60.64,60.64,0,0,1,10.38,2.56,74.74,74.74,0,0,1,10,4.21c1.76.91,3.51,2,5.26,3.07a48.5,48.5,0,0,1,5,3.76l2.33,2.06c.74.73,1.39,1.52,2.08,2.28a40.66,40.66,0,0,1,3.7,4.64,48,48,0,0,1,3.16,4.56c.48.75,1,1.44,1.41,2.17l1.13,2.15c.68,1.4,1.53,2.62,2,3.81s.94,2.23,1.35,3.08c.77,1.72,1.29,2.71,1.29,2.71l.41-.08s-.05-1.09-.27-3c-.09-1-.24-2.14-.45-3.48a31.69,31.69,0,0,0-1.25-4.37c-.26-.8-.54-1.63-.83-2.49s-.83-1.65-1.26-2.51a25.53,25.53,0,0,0-3.19-5.17l-2-2.49a24.24,24.24,0,0,0-2.35-2.29c-.83-.74-1.62-1.52-2.47-2.24l-2.68-2a54.06,54.06,0,0,0-5.55-3.59c-1.92-1-3.83-2-5.72-2.79a56.71,56.71,0,0,0-5.55-2c-1.79-.6-3.52-1-5.1-1.4A53.46,53.46,0,0,0,95,121.88Z"/>
            <path class="cls-3" d="M118.76,128s-6.94-11.18-36.66-6.24S118.76,128,118.76,128Z"/>
          </g>
          <g>
            <path class="cls-4" d="M155.64,96.09a60.71,60.71,0,0,1,5.56,9.12,73.94,73.94,0,0,1,4.15,10.05c.61,1.88,1.1,3.87,1.57,5.87a51.09,51.09,0,0,1,.89,6.18l.2,3.11c0,1-.08,2.06-.13,3.07a41.59,41.59,0,0,1-.64,5.91,48.72,48.72,0,0,1-1,5.46c-.18.87-.3,1.73-.52,2.54l-.72,2.32c-.5,1.48-.76,2.93-1.26,4.11s-.9,2.25-1.22,3.14c-.66,1.76-1,2.83-1,2.83l.35.23s.74-.8,1.92-2.32c.62-.75,1.33-1.68,2.14-2.78a33.59,33.59,0,0,0,2.19-4l1.16-2.35c.34-.84.57-1.75.88-2.67a25.61,25.61,0,0,0,1.37-5.92c.1-1.05.21-2.12.31-3.2a24,24,0,0,0-.06-3.28c-.07-1.11-.08-2.22-.18-3.33l-.5-3.3a53,53,0,0,0-1.41-6.46c-.65-2.07-1.32-4.1-2.09-6s-1.57-3.73-2.5-5.37-1.78-3.19-2.64-4.58A53.37,53.37,0,0,0,156,95.82Z"/>
            <path class="cls-5" d="M166.9,117.46s15.4-23.28-16.72-35.32C100.37,63.47,166.9,117.46,166.9,117.46Z"/>
          </g>
          <g>
            <path class="cls-2" d="M276.32,102.08a10.92,10.92,0,0,0-1.25-.57,22,22,0,0,0-3.71-1.13,35.11,35.11,0,0,0-6-.82l-3.72,0c-1.31,0-2.67.31-4.1.47a26.39,26.39,0,0,0-4.39.91,33,33,0,0,0-4.61,1.37l-4.73,1.86c-1.58.72-3.1,1.62-4.7,2.45-3.27,1.55-6.18,3.88-9.35,5.94s-5.89,4.79-8.88,7.2c-2.82,2.58-5.48,5.32-8.19,7.94s-4.93,5.6-7.29,8.3a79.39,79.39,0,0,0-6.13,8.28c-1.84,2.71-3.54,5.3-5.08,7.7s-2.64,4.79-3.78,6.81-2.05,3.81-2.78,5.31c-1.52,3-2.31,4.68-2.31,4.68l.36.21s1.21-1.48,3.21-4.12,4.72-6.49,8.08-11c1.76-2.21,3.63-4.61,5.58-7.18,1-1.27,2-2.6,3-4s2.18-2.61,3.29-4c2.23-2.7,4.37-5.63,6.81-8.38s5-5.5,7.57-8.16c2.8-2.44,5.44-5.11,8.33-7.35s5.72-4.51,8.81-6.12c1.51-.87,3-1.81,4.45-2.57l4.47-2a31,31,0,0,1,4.37-1.56,23.5,23.5,0,0,1,4.19-1.12c1.37-.23,2.68-.58,3.94-.68l3.61-.24a34.42,34.42,0,0,1,5.85.47,22.44,22.44,0,0,1,3.67.9,11.94,11.94,0,0,1,1.25.49Z"/>
            <path class="cls-3" d="M259,100.75s9.78-8.81,37,4.2S259,100.75,259,100.75Z"/>
          </g>
          <g>
            <path class="cls-2" d="M258.89,70.12A47.26,47.26,0,0,0,253,71.6a67.87,67.87,0,0,0-6.55,2.52,70.76,70.76,0,0,0-17,10.32c-1.46,1.23-3.11,2.36-4.52,3.8l-4.39,4.36a54.36,54.36,0,0,0-4.19,4.83c-1.32,1.71-2.86,3.3-4,5.16s-2.44,3.71-3.66,5.58c-.6.94-1.26,1.85-1.81,2.83l-1.55,3a94.31,94.31,0,0,0-5.73,12.08,89.69,89.69,0,0,0-4.32,12.22l-1.53,6a41,41,0,0,0-1.27,5.77c-.56,3.81-1,7.41-1.47,10.73a64.56,64.56,0,0,0-.63,9.09c-.09,2.71-.13,5.08-.13,7,0,3.89,0,6.1,0,6.1l.42,0s.43-2.19,1-6c.33-1.91.68-4.22,1.05-6.88l.6-4.22c.19-1.49.66-3,1-4.63.7-3.22,1.41-6.7,2.13-10.39s2-7.44,3-11.39c.83-4,2.42-7.92,3.8-12a89.56,89.56,0,0,1,5-12l1.39-3c.5-1,1.11-1.87,1.66-2.8,1.12-1.86,2.25-3.71,3.36-5.54s2.52-3.44,3.75-5.15a48.8,48.8,0,0,1,3.9-4.84c1.39-1.5,2.77-3,4.12-4.4s2.89-2.6,4.26-3.89A82.66,82.66,0,0,1,239,79.49a84.53,84.53,0,0,1,7.8-4.43,66.71,66.71,0,0,1,6.34-2.79A45.79,45.79,0,0,1,259,70.54Z"/>
            <path class="cls-3" d="M230,86.34S223.79,61.6,255.13,61C303.73,60,230,86.34,230,86.34Z"/>
          </g>
          <g>
            <path class="cls-4" d="M227.72,69.68A41.42,41.42,0,0,0,223,72.34c-1.38,1-3.15,2.13-4.95,3.71a77.11,77.11,0,0,0-5.91,5.44,75.89,75.89,0,0,0-6,7.37c-1,1.4-2.07,2.76-2.93,4.31l-2.68,4.75a46.69,46.69,0,0,0-2.39,5.1c-.71,1.76-1.64,3.48-2.2,5.34s-1.17,3.73-1.77,5.6c-.28.94-.62,1.88-.86,2.83l-.59,2.9a82.25,82.25,0,0,0-2,11.62A78,78,0,0,0,190,142.7c0,1.85.09,3.67.13,5.46a37,37,0,0,0,.31,5.2c.43,3.36.88,6.52,1.32,9.44a56.61,56.61,0,0,0,1.64,7.86c.58,2.32,1.1,4.34,1.57,6,.9,3.3,1.47,5.17,1.47,5.17l.36-.09s-.16-2-.55-5.34c-.17-1.7-.43-3.75-.76-6.09-.15-1.17-.32-2.41-.5-3.72s-.16-2.72-.3-4.16c-.18-2.89-.4-6-.68-9.31s-.09-6.79-.15-10.39a92,92,0,0,1,.35-11.07,79.79,79.79,0,0,1,1.4-11.35l.47-2.84c.2-.94.5-1.85.74-2.77q.76-2.77,1.52-5.5c.48-1.84,1.32-3.52,1.95-5.26a44.79,44.79,0,0,1,2.15-5.05l2.44-4.71c.79-1.55,1.83-2.9,2.68-4.31a73.24,73.24,0,0,1,5.56-7.49,74.53,74.53,0,0,1,5.55-5.63,60.3,60.3,0,0,1,4.71-3.88A39.58,39.58,0,0,1,227.89,70Z"/>
            <path class="cls-5" d="M203.61,93.11s-1.85-13.43,24.94-29S203.61,93.11,203.61,93.11Z"/>
          </g>
        </g>
        <g>
          <rect class="cls-6" x="116.15" y="149.3" width="105.22" height="14.64" transform="translate(337.52 313.24) rotate(180)"/>
          <g>
            <path class="cls-6" d="M119.27,159h99c5.53,23.63-.08,50-15.92,68.6H135.19C119.35,209.05,113.74,182.64,119.27,159Z"/>
            <g class="cls-7">
              <path class="cls-8" d="M147.27,222.15h43c7.74,0,16.42-2.8,21.54-8.65-3.26,6.07-5.24,7.32-9.46,14.11H135.19c-4.22-6.79-6.19-8-9.46-14.11C130.85,219.35,139.53,222.15,147.27,222.15Z"/>
            </g>
            <path class="cls-9" d="M117.16,175.88a67.58,67.58,0,0,1,1-12.18H219.33a67.58,67.58,0,0,1,1,12.18Z"/>
          </g>
          <g class="cls-10">
            <path class="cls-11" d="M221.37,152.1C211,153.81,191.31,155,168.76,155s-42.2-1.16-52.61-2.87v-2.8H221.37Z"/>
          </g>
        </g>
      </g>
    </g>
  </g>
</svg>
