<svg id="Layer_1" data-name="Layer 1" xmlns="http://www.w3.org/2000/svg" viewBox="0 0 455 465"><defs><style>.cls-1{fill:#fff;}</style></defs><path class="cls-1" d="M166,159.62q12.44-19.6,12.44-44.5,0-20.36-10.18-29t-29-8.67q-21.88,0-36.2,15.84T88.73,131q0,33.94,46.76,60.33A104.91,104.91,0,0,0,166,159.62ZM94.73,131c0-13.17,4.18-24.19,12.78-33.69,8.43-9.32,18.82-13.86,31.75-13.86,11,0,19.5,2.44,25.14,7.24,5.36,4.57,8.08,12.8,8.08,24.47,0,15.37-3.87,29.25-11.51,41.28a100.35,100.35,0,0,1-25.77,27.79C108.34,168.29,94.73,150.4,94.73,131Z"/><path class="cls-1" d="M439.9,19.71A6,6,0,0,0,435.65,18H238.85a6,6,0,0,0-6,6.07l.71,59.5a6,6,0,0,0,6,5.93h60.37V237c-17.3,17.25-40.58,33.84-69.23,49.32-33.64,18-60.34,27.19-79.37,27.19-28.42,0-31.71-12.11-31.71-21.22a29.48,29.48,0,0,1,.7-5.65c40-19.09,70.69-40.51,91.27-63.66,20-22.21,30.21-45.95,30.21-70.56,0-31.14-14-62.25-41.54-92.5-27.72-30.4-57.38-45.82-88.15-45.82-27.61,0-51.2,9.08-70.11,27S13.35,82,13.35,109.27c0,20.14,7.9,38.81,23.48,55.5,13.56,14.53,33.84,30,60.38,46.14a209.78,209.78,0,0,1-49,23.81c-29.65,9.84-34.87,14.43-34.87,20.43,0,3.41,1.54,7.81,20.95,30.37a510.77,510.77,0,0,0,43.29,44.36A190.33,190.33,0,0,0,134.13,365c21.62,8.82,40.06,13.28,54.8,13.28,20.27,0,42.93-5.5,67.35-16.35a267.25,267.25,0,0,0,43.65-24.42V444.91a6,6,0,0,0,6,6h59.42a6,6,0,0,0,6-6V89.45h64.23a6,6,0,0,0,6-6l.07-59.5A6,6,0,0,0,439.9,19.71Zm-4.32,63.74H365.35V444.91H305.93V325.73a256.46,256.46,0,0,1-52.09,30.73q-35.64,15.84-64.91,15.83-21,0-52.53-12.84a183.31,183.31,0,0,1-54.78-34,501.54,501.54,0,0,1-42.77-43.83q-19.51-22.68-19.5-26.46,0-4.53,30.76-14.74a216.56,216.56,0,0,0,58.23-29.85q-45.25-26.44-67.12-49.88T19.35,109.27q0-38.52,26.77-63.85t66-25.33q43.74,0,83.72,43.86t40,88.46q0,34.78-28.66,66.54-30.93,34.78-92,63.51a42.21,42.21,0,0,0-1.51,9.82q0,27.23,37.71,27.22,30.15,0,82.2-27.9Q279,267,305.93,239.46v-156H239.56L238.85,24h196.8Z"/></svg>