<svg id="Layer_1" data-name="Layer 1" xmlns="http://www.w3.org/2000/svg" viewBox="0 0 455 465"><defs><style>.cls-1{fill:#8d8e8d;}</style></defs><path class="cls-1" d="M238.85,24l.71,59.5h66.37v156Q279,267,233.53,291.6q-52,27.91-82.2,27.9-37.73,0-37.71-27.22a42.21,42.21,0,0,1,1.51-9.82q61.08-28.74,92-63.51,28.65-31.74,28.66-66.54,0-44.61-40-88.46T112.11,20.09q-39.23,0-66,25.33T19.35,109.27q0,28,21.87,51.41t67.12,49.88a216.56,216.56,0,0,1-58.23,29.85q-30.76,10.22-30.76,14.74,0,3.78,19.5,26.46a501.54,501.54,0,0,0,42.77,43.83,183.31,183.31,0,0,0,54.78,34q31.51,12.85,52.53,12.85,29.28,0,64.91-15.84a256.46,256.46,0,0,0,52.09-30.73V444.91h59.42V83.45h70.23l.07-59.5ZM88.73,131q0-21.87,14.33-37.71t36.2-15.84q18.84,0,29,8.67t10.18,29q0,24.88-12.44,44.5a104.91,104.91,0,0,1-30.55,31.67Q88.72,164.9,88.73,131Z"/></svg>