<svg xmlns="http://www.w3.org/2000/svg" xmlns:xlink="http://www.w3.org/1999/xlink" width="253" height="262" viewBox="0 0 253 262">
  <defs>
    <style>
      .cls-1 {
        fill: none;
      }

      .cls-2 {
        isolation: isolate;
      }

      .cls-3 {
        fill: #020202;
      }

      .cls-18, .cls-20, .cls-25, .cls-3 {
        opacity: 0.5;
      }

      .cls-4 {
        fill: #fff;
      }

      .cls-5 {
        fill: #95e4fc;
      }

      .cls-6 {
        clip-path: url(#clip-path);
      }

      .cls-7 {
        fill: #79b9d3;
      }

      .cls-8 {
        fill: #087016;
      }

      .cls-10, .cls-8 {
        opacity: 0.9;
      }

      .cls-9 {
        fill: url(#linear-gradient);
      }

      .cls-11 {
        fill: #099616;
      }

      .cls-12 {
        fill: url(#linear-gradient-2);
      }

      .cls-13 {
        fill: #36d4ff;
      }

      .cls-14, .cls-17, .cls-22 {
        opacity: 0.4;
      }

      .cls-14, .cls-24, .cls-25, .cls-26, .cls-27, .cls-32, .cls-33, .cls-47, .cls-51 {
        mix-blend-mode: multiply;
      }

      .cls-15 {
        fill: url(#linear-gradient-3);
      }

      .cls-16 {
        fill: url(#linear-gradient-4);
      }

      .cls-17 {
        fill: #ffffd7;
      }

      .cls-17, .cls-52, .cls-57 {
        mix-blend-mode: screen;
      }

      .cls-19 {
        fill: #fff8d2;
        opacity: 0.3;
        mix-blend-mode: overlay;
      }

      .cls-20, .cls-21 {
        fill: #fefcf7;
      }

      .cls-21 {
        opacity: 0.46;
      }

      .cls-22 {
        fill: url(#radial-gradient);
      }

      .cls-23 {
        clip-path: url(#clip-path-2);
      }

      .cls-24, .cls-26, .cls-27 {
        opacity: 0.8;
      }

      .cls-24 {
        fill: url(#radial-gradient-2);
      }

      .cls-26 {
        fill: url(#linear-gradient-5);
      }

      .cls-27 {
        fill: url(#linear-gradient-6);
      }

      .cls-28 {
        fill: url(#radial-gradient-3);
      }

      .cls-29 {
        fill: #563822;
      }

      .cls-30 {
        fill: url(#radial-gradient-4);
      }

      .cls-31 {
        fill: url(#radial-gradient-5);
      }

      .cls-32, .cls-33 {
        opacity: 0.6;
      }

      .cls-32 {
        fill: url(#radial-gradient-6);
      }

      .cls-34 {
        fill: url(#radial-gradient-7);
      }

      .cls-35 {
        fill: url(#linear-gradient-7);
      }

      .cls-36 {
        fill: url(#linear-gradient-8);
      }

      .cls-37 {
        fill: url(#linear-gradient-9);
      }

      .cls-38 {
        fill: url(#linear-gradient-10);
      }

      .cls-39 {
        opacity: 0.7;
      }

      .cls-40 {
        fill: url(#linear-gradient-11);
      }

      .cls-41 {
        fill: url(#linear-gradient-12);
      }

      .cls-42 {
        fill: url(#linear-gradient-13);
      }

      .cls-43 {
        fill: url(#linear-gradient-14);
      }

      .cls-44 {
        fill: url(#linear-gradient-15);
      }

      .cls-45 {
        fill: url(#linear-gradient-16);
      }

      .cls-46 {
        fill: #11b734;
      }

      .cls-47, .cls-57 {
        opacity: 0.2;
      }

      .cls-48 {
        fill: url(#radial-gradient-8);
      }

      .cls-49 {
        fill: #17e239;
      }

      .cls-50 {
        fill: url(#radial-gradient-9);
      }

      .cls-51, .cls-52 {
        opacity: 0.1;
      }

      .cls-53 {
        fill: url(#radial-gradient-10);
      }

      .cls-54 {
        fill: url(#radial-gradient-11);
      }

      .cls-55 {
        fill: url(#radial-gradient-12);
      }

      .cls-56 {
        fill: url(#radial-gradient-13);
      }

      .cls-58 {
        fill: url(#radial-gradient-14);
      }

      .cls-59 {
        fill: url(#radial-gradient-15);
      }

      .cls-60 {
        fill: url(#radial-gradient-16);
      }

      .cls-61 {
        fill: url(#radial-gradient-17);
      }
    </style>
    <clipPath id="clip-path">
      <path class="cls-1" d="M222.27,247.31H19.67A9.64,9.64,0,0,1,10,237.67V25.89A15.84,15.84,0,0,1,25.88,10.05H222.27a15.84,15.84,0,0,1,15.84,15.84V231.47A15.84,15.84,0,0,1,222.27,247.31Z"/>
    </clipPath>
    <linearGradient id="linear-gradient" x1="155.4" y1="2.23" x2="149.41" y2="125.56" gradientUnits="userSpaceOnUse">
      <stop offset="0" stop-color="#71cd37"/>
      <stop offset="0.56" stop-color="#3a9640"/>
      <stop offset="0.8" stop-color="#035c56"/>
    </linearGradient>
    <linearGradient id="linear-gradient-2" x1="88.72" y1="35.55" x2="88.72" y2="118.15" xlink:href="#linear-gradient"/>
    <linearGradient id="linear-gradient-3" x1="-1.4" y1="222.48" x2="87.31" y2="224.45" gradientUnits="userSpaceOnUse">
      <stop offset="0" stop-color="#18779e"/>
      <stop offset="0.24" stop-color="#85e0d9"/>
      <stop offset="0.53" stop-color="#d0f3f0"/>
      <stop offset="0.59" stop-color="#cbf0ee"/>
      <stop offset="0.66" stop-color="#bee7e8"/>
      <stop offset="0.74" stop-color="#a7d7de"/>
      <stop offset="0.81" stop-color="#87c2d0"/>
      <stop offset="0.89" stop-color="#5ea6bd"/>
      <stop offset="0.97" stop-color="#2d85a7"/>
      <stop offset="1" stop-color="#18779e"/>
    </linearGradient>
    <linearGradient id="linear-gradient-4" x1="-4.82" y1="120.26" x2="298.53" y2="127.02" xlink:href="#linear-gradient-3"/>
    <radialGradient id="radial-gradient" cx="2588.71" cy="-714.15" r="80.48" gradientTransform="matrix(0.6, -0.01, 0.02, 0.41, -1524.25, 451.43)" gradientUnits="userSpaceOnUse">
      <stop offset="0" stop-color="#d0f3f0"/>
      <stop offset="0.03" stop-color="#c2efec"/>
      <stop offset="0.12" stop-color="#a1e7e2"/>
      <stop offset="0.19" stop-color="#8ce2db"/>
      <stop offset="0.24" stop-color="#85e0d9"/>
      <stop offset="1" stop-color="#18779e"/>
    </radialGradient>
    <clipPath id="clip-path-2">
      <rect class="cls-1" x="2.18" y="114.03" width="241.39" height="22.06"/>
    </clipPath>
    <radialGradient id="radial-gradient-2" cx="2419.63" cy="-646.26" r="443.67" gradientTransform="translate(-1397.83 481.7) scale(0.6 0.41)" gradientUnits="userSpaceOnUse">
      <stop offset="0" stop-color="#d0f3f0"/>
      <stop offset="0.09" stop-color="#beefeb"/>
      <stop offset="0.32" stop-color="#95e4de"/>
      <stop offset="0.44" stop-color="#85e0d9"/>
      <stop offset="1" stop-color="#18779e"/>
    </radialGradient>
    <linearGradient id="linear-gradient-5" x1="122.16" y1="130.85" x2="122.86" y2="124.73" gradientTransform="matrix(1, 0, 0, 1, 0, 0)" xlink:href="#radial-gradient-2"/>
    <linearGradient id="linear-gradient-6" x1="252.8" y1="139.21" x2="253.35" y2="134.45" gradientTransform="matrix(1, 0, 0, 1, 0, 0)" xlink:href="#radial-gradient-2"/>
    <radialGradient id="radial-gradient-3" cx="2519.24" cy="-834.17" fx="2603.127032181887" r="203.91" gradientTransform="translate(-1482.06 481.7) scale(0.62 0.41)" gradientUnits="userSpaceOnUse">
      <stop offset="0" stop-color="#e3ca96"/>
      <stop offset="0.03" stop-color="#e0c58c"/>
      <stop offset="0.07" stop-color="#d9b671"/>
      <stop offset="0.13" stop-color="#cd9f45"/>
      <stop offset="0.14" stop-color="#c99737"/>
      <stop offset="0.32" stop-color="#a76a28"/>
      <stop offset="0.42" stop-color="#af7325"/>
      <stop offset="0.59" stop-color="#c38c1c"/>
      <stop offset="1" stop-color="#a76a28"/>
    </radialGradient>
    <radialGradient id="radial-gradient-4" cx="2519.24" cy="-834.16" fx="2603.127063451008" r="203.91" gradientTransform="translate(-1482.06 481.7) scale(0.62 0.41)" gradientUnits="userSpaceOnUse">
      <stop offset="0" stop-color="#e3ca96"/>
      <stop offset="0.03" stop-color="#e0c58c"/>
      <stop offset="0.07" stop-color="#d9b671"/>
      <stop offset="0.13" stop-color="#cd9f45"/>
      <stop offset="0.14" stop-color="#c99737"/>
      <stop offset="0.3" stop-color="#ab6f2a"/>
      <stop offset="0.32" stop-color="#a76a28"/>
      <stop offset="0.59" stop-color="#c38c1c"/>
      <stop offset="1" stop-color="#a76a28"/>
    </radialGradient>
    <radialGradient id="radial-gradient-5" cx="2391.06" cy="-844.08" fx="2405.4229802996642" r="34.92" xlink:href="#radial-gradient-4"/>
    <radialGradient id="radial-gradient-6" cx="2519.69" cy="-839.68" fx="2519.693655430383" r="13.2" xlink:href="#radial-gradient-4"/>
    <radialGradient id="radial-gradient-7" cx="2519.24" cy="-834.17" fx="2603.1286322912065" r="203.91" xlink:href="#radial-gradient-4"/>
    <linearGradient id="linear-gradient-7" x1="115.22" y1="122.05" x2="114.95" y2="131.41" gradientUnits="userSpaceOnUse">
      <stop offset="0" stop-color="#e3ca96"/>
      <stop offset="0.07" stop-color="#dbbb7a"/>
      <stop offset="0.15" stop-color="#d5ae62"/>
      <stop offset="0.25" stop-color="#cfa44f"/>
      <stop offset="0.36" stop-color="#cc9c41"/>
      <stop offset="0.49" stop-color="#ca9839"/>
      <stop offset="0.76" stop-color="#c99737"/>
    </linearGradient>
    <linearGradient id="linear-gradient-8" x1="63.72" y1="122.2" x2="63.45" y2="131.49" xlink:href="#linear-gradient-7"/>
    <linearGradient id="linear-gradient-9" x1="-3591.3" y1="-235.5" x2="-3591.58" y2="-226.2" gradientTransform="matrix(-0.98, -0.19, -0.19, 0.98, -3460.39, -335.64)" xlink:href="#linear-gradient-7"/>
    <linearGradient id="linear-gradient-10" x1="-3575.64" y1="-234.15" x2="-3575.91" y2="-224.76" gradientTransform="matrix(-0.98, -0.19, -0.19, 0.98, -3460.39, -335.64)" gradientUnits="userSpaceOnUse">
      <stop offset="0" stop-color="#e3ca96"/>
      <stop offset="0.1" stop-color="#e0c58c"/>
      <stop offset="0.28" stop-color="#d9b671"/>
      <stop offset="0.5" stop-color="#cd9f45"/>
      <stop offset="0.57" stop-color="#c99737"/>
    </linearGradient>
    <linearGradient id="linear-gradient-11" x1="-3540.42" y1="-227.47" x2="-3540.69" y2="-218.09" gradientTransform="matrix(-0.98, -0.19, -0.19, 0.98, -3460.39, -335.64)" gradientUnits="userSpaceOnUse">
      <stop offset="0" stop-color="#e3ca96"/>
      <stop offset="0.03" stop-color="#dfc388"/>
      <stop offset="0.12" stop-color="#d7b36b"/>
      <stop offset="0.21" stop-color="#d1a754"/>
      <stop offset="0.31" stop-color="#cc9e44"/>
      <stop offset="0.42" stop-color="#ca993a"/>
      <stop offset="0.57" stop-color="#c99737"/>
    </linearGradient>
    <linearGradient id="linear-gradient-12" x1="-3525.26" y1="-224.14" x2="-3525.5" y2="-215.83" xlink:href="#linear-gradient-11"/>
    <linearGradient id="linear-gradient-13" x1="-3625.17" y1="-243.69" x2="-3625.45" y2="-234.3" xlink:href="#linear-gradient-10"/>
    <linearGradient id="linear-gradient-14" x1="-4700.86" y1="-394.72" x2="-4701.14" y2="-385.16" gradientTransform="matrix(-0.55, -0.16, -0.28, 0.96, -2618.75, -261.07)" xlink:href="#linear-gradient-10"/>
    <linearGradient id="linear-gradient-15" x1="121.15" y1="122.16" x2="120.87" y2="131.52" xlink:href="#linear-gradient-7"/>
    <linearGradient id="linear-gradient-16" x1="-3942.77" y1="121.59" x2="-3943.1" y2="132.95" gradientTransform="matrix(-1, 0, 0, 1, -3861.35, 0)" xlink:href="#linear-gradient-7"/>
    <radialGradient id="radial-gradient-8" cx="2698.74" cy="-902.69" fx="2676.484530783543" fy="-851.4813446290535" r="329.94" gradientTransform="translate(-1503.93 481.7) scale(0.6 0.41)" gradientUnits="userSpaceOnUse">
      <stop offset="0.33" stop-color="#f6fb7f"/>
      <stop offset="0.39" stop-color="#eaef79"/>
      <stop offset="0.5" stop-color="#c9cd68"/>
      <stop offset="0.65" stop-color="#95984d"/>
      <stop offset="0.82" stop-color="#4d4f28"/>
      <stop offset="1"/>
    </radialGradient>
    <radialGradient id="radial-gradient-9" cx="2698.77" cy="-902.68" fx="2676.5167131539797" fy="-851.4832810062283" r="329.9" gradientTransform="translate(-1503.93 481.7) scale(0.6 0.41)" gradientUnits="userSpaceOnUse">
      <stop offset="0.13" stop-color="#a6cd3a"/>
      <stop offset="0.32" stop-color="#8cb83b"/>
      <stop offset="0.64" stop-color="#59903c"/>
      <stop offset="1" stop-color="#14422f"/>
    </radialGradient>
    <radialGradient id="radial-gradient-10" cx="2689.82" cy="-935.68" fx="2689.8215207978155" fy="-935.681975134702" r="2.32" xlink:href="#radial-gradient-8"/>
    <radialGradient id="radial-gradient-11" cx="2642.68" cy="-1003.67" fx="2642.684849094947" fy="-1003.6683797491341" r="113.23" xlink:href="#radial-gradient-8"/>
    <radialGradient id="radial-gradient-12" cx="2734.69" cy="-983.94" r="77.38" gradientTransform="translate(-1503.93 481.7) scale(0.6 0.41)" gradientUnits="userSpaceOnUse">
      <stop offset="0.55" stop-color="#f6fb7f"/>
      <stop offset="0.59" stop-color="#eaef79"/>
      <stop offset="0.66" stop-color="#c9cd68"/>
      <stop offset="0.76" stop-color="#95984d"/>
      <stop offset="0.88" stop-color="#4d4f28"/>
      <stop offset="1"/>
    </radialGradient>
    <radialGradient id="radial-gradient-13" cx="2843.57" cy="-961.61" r="86.04" xlink:href="#radial-gradient-12"/>
    <radialGradient id="radial-gradient-14" cx="2680.47" cy="-865.55" r="76.44" xlink:href="#radial-gradient-12"/>
    <radialGradient id="radial-gradient-15" cx="2680.48" cy="-865.28" r="76.74" xlink:href="#radial-gradient-12"/>
    <radialGradient id="radial-gradient-16" cx="2767.93" cy="-963.05" r="69.38" gradientTransform="matrix(0.6, 0.01, -0.01, 0.41, -1491.67, 496.25)" xlink:href="#radial-gradient-12"/>
    <radialGradient id="radial-gradient-17" cx="2767.92" cy="-961.35" r="71.37" gradientTransform="matrix(0.6, 0.01, -0.01, 0.41, -1491.67, 496.25)" xlink:href="#radial-gradient-12"/>
  </defs>
  <g class="cls-2">
    <g id="Layer_1" data-name="Layer 1">
      <g>
        <rect class="cls-3" x="0.68" y="9.66" width="256.5" height="247.52" rx="21.53" transform="translate(262.35 4.5) rotate(90)"/>
        <rect class="cls-4" x="-4.18" y="4.81" width="256.5" height="247.52" rx="21.53" transform="translate(252.65 4.5) rotate(90)"/>
        <rect class="cls-5" x="10.04" y="10.05" width="228.07" height="237.04" rx="13.53"/>
        <g class="cls-6">
          <g>
            <g>
              <path class="cls-5" d="M-11.9-4.52V110.15c2.73.41,5.45.77,8.19,1.06,36.57,3.15,72.77,2.1,109,.52,37-1.57,72.39-16.25,109.35-20.45,17.52-2.1,35.05-1,52.57-2.62a153.37,153.37,0,0,0,23.24-4V-4.52Z"/>
              <g>
                <path class="cls-7" d="M244,67.66v-3.9a23.26,23.26,0,0,1-5.5-5.4c-8.67-11.79-12.32-1.57-14.6,5.51-2.4,7.44-5.48,2.11-10-12.59C210.33,40,203,40.54,199.25,58.36c-1.9,9.09-4.42,13.23-7.87,13.86.4.09.8.46,1.15,1.19.13-1.69,1.73-2.3,2.18-.56.92-1.66,2.39-.36,2,3a2,2,0,0,1,2.81-1.19c-.1-4.68,2.67-3.41,2.76-.62.75-1.09,2.38-.7,2.69,2.52.09-.91,1-1.79,2.14,0-.71-3.62,1.15-5.93,2.79-3.65-.36-1-.13-3.56,1.26-2.81-.82-2.93.8-4.89,1.77-3.09.93-3,3.55-.59,2.11,2.91.83-.31,1.44.41,1.69,1.84-.05-1.23,1.23-3.59,2.23-.9,0-2.9,2.18-2.69,2.06,1.46,0,0,1.34-.81,1.27,1,2.46-1.82,2,3.92,2,3.92s.82-.53,1.16,1.67c0-.67,1.09-2.12,1.79-.74-.13-1.66.74-4.77,2.12-2.35-.45-3.64,1.93-4,1.7-1.29,1.12-1.45,1.57,2.07,1.57,2.07s.73-1.19,1.15-.45c-.08-2.23,1.43-3.5,2.37-2.48-.39-2.19,2.14-3.8,3.14-1.33.07-1.57,1.52-2.84,2.35-1.25-.05-1.56,1.34-4.28,2.28-1.58A5.08,5.08,0,0,1,244,67.66Z"/>
                <path class="cls-7" d="M46.38,71.33c.74-1.79,1.84-1.83,2.46-1-.92-6.17,3.57-6.13,3.19,2.13,1.88-2.77,2.13,1.42.43,5a1.28,1.28,0,0,1,2.1.25,1.81,1.81,0,0,1,1.38-.32c-1.21-2.92,1.26-6.34,2.67-3,0,0,2-2.65,1.86,2.71,1.24-1.54,2.39.37,2.12,2.6.86-2.78,2.33-.19,2.32,1.38.79-1.66,2.27-.52,2.39,1,.92-2.55,3.5-1.17,3.17,1.06.91-1.11,2.46,0,2.44,2.27.39-.78,1.17.35,1.17.35s.34-3.56,1.5-2.2c-.31-2.69,2.08-2.54,1.74,1.14,1.31-2.54,2.26.48,2.19,2.16.65-1.44,1.74-.09,1.8.58.27-2.22,1.11-1.76,1.11-1.76s-.61-5.7,1.9-4.1c-.12-1.79,1.24-1.1,1.24-1.1-.24-4.13,2-4.54,2-1.64.92-2.77,2.27-.52,2.26.71.21-1.45.79-2.22,1.63-2a4.62,4.62,0,0,1-.36-3.05C86.24,76.4,80.31,75.64,70.6,71,58.2,65,55,58.56,42.73,64.58a13.56,13.56,0,0,1,1,4.87C45.05,67,46.51,68.51,46.38,71.33Z"/>
                <path class="cls-7" d="M93.49,74.53c.91-1.88,2.58-.07,1.86,2.93,1.36-.87,1.67,1.7,1.34,2.7,1.57-2.43,3.5-.28,2.89,3.4,1-1.88,2-1.09,2.14-.19.21-3.24,1.83-3.77,2.6-2.75,0-2.79,2.75-4.31,2.78.38a1.87,1.87,0,0,1,2.85.94c-.5-3.35.93-4.78,1.89-3.2.4-1.78,2-1.31,2.2.37.83-1.94,2-1.55,2.88-.23a.64.64,0,0,1,.18.06c-2.7-3.62-.74-6.71,1.2-6.34-1.21-2.93,1.26-6.34,2.67-3,0,0,2-2.65,1.86,2.71,1.24-1.55,2.39.37,2.12,2.6.86-2.78,2.33-.19,2.32,1.37.79-1.65,2.27-.51,2.39,1,.92-2.55,3.5-1.17,3.17,1.06.91-1.1,2.46,0,2.44,2.27.4-.78,1.17.35,1.17.35s.34-3.56,1.5-2.2c-.31-2.69,2.08-2.54,1.74,1.14,1.3-2.54,2.26.48,2.19,2.16.65-1.44,1.74-.09,1.8.58.28-2.23,1.11-1.76,1.11-1.76s-.61-5.71,1.9-4.1c-.12-1.79,1.24-1.1,1.24-1.1-.24-4.13,2-4.54,2-1.63.92-2.78,2.26-.53,2.26.7.2-1.45.78-2.22,1.62-2-1.53-3.37,1-6,2-3.09.91-1.88,2.59-.07,1.86,2.93,1.36-.87,1.67,1.7,1.34,2.7,1.57-2.43,3.5-.28,2.89,3.4,1.05-1.88,2-1.09,2.14-.19.21-3.24,1.83-3.77,2.6-2.75,0-2.79,2.75-4.31,2.79.38a1.87,1.87,0,0,1,2.84.94c-.5-3.35.93-4.78,1.89-3.2.4-1.78,2-1.31,2.2.37,1.38-3.22,3.75,0,3.93,3.19.72-1.55,1.62-.76,1.61.92.4-1.11,1-1.21,1.43-.76-.4-2.09.33-3.06,1-2.53.69-1,1.66-.14,1.29,2.2.37-.48,1-.44,1.44.63-.05-1.67.82-2.54,1.59-1,.05-2.06,1-4.17,2-4.65-3.94.22-9-3.74-15.67-10-10-9.44-16-3.94-27.83,4.72s-16.88,6.29-26-3.15-13.23-3.93-21,3.93A31.83,31.83,0,0,1,93,73.68,2.68,2.68,0,0,1,93.49,74.53Z"/>
              </g>
              <g>
                <g>
                  <path class="cls-8" d="M244,67.66a5.08,5.08,0,0,0-.06,1.88c-.94-2.7-2.33,0-2.28,1.58-.83-1.59-2.28-.32-2.35,1.25-1-2.47-3.53-.86-3.14,1.33-.94-1-2.45.25-2.37,2.48-.42-.74-1.15.45-1.15.45s-.45-3.52-1.57-2.07c.23-2.7-2.15-2.35-1.7,1.29-1.38-2.42-2.25.69-2.12,2.35-.7-1.38-1.75.07-1.79.74-.34-2.2-1.16-1.67-1.16-1.67s.44-5.74-2-3.92c.07-1.8-1.27-1-1.27-1,.12-4.15-2.09-4.36-2.06-1.46-1-2.69-2.28-.33-2.23.9-.25-1.43-.86-2.15-1.69-1.84,1.44-3.5-1.18-5.91-2.11-2.91-1-1.8-2.59.16-1.77,3.09-1.39-.75-1.62,1.84-1.26,2.81-1.64-2.28-3.5,0-2.79,3.65-1.1-1.79-2-.91-2.14,0-.31-3.22-1.94-3.61-2.69-2.52-.09-2.79-2.86-4.06-2.76.62a2,2,0,0,0-2.81,1.19c.4-3.4-1.07-4.7-2-3-.45-1.74-2.05-1.13-2.18.56-1.47-3.09-3.75.28-3.83,3.53-.77-1.49-1.64-.62-1.59,1-.42-1.07-1.07-1.11-1.44-.63.37-2.34-.6-3.2-1.29-2.2-.68-.53-1.41.44-1,2.53-.39-.45-1-.35-1.43.76,0-1.68-.89-2.47-1.61-.92-.18-3.24-2.55-6.41-3.93-3.19-.19-1.68-1.8-2.15-2.2-.37-1-1.58-2.39-.15-1.89,3.2a1.87,1.87,0,0,0-2.84-.94c0-4.69-2.77-3.17-2.79-.38-.77-1-2.39-.49-2.6,2.75-.12-.9-1.09-1.69-2.14.19.61-3.68-1.32-5.83-2.89-3.4.33-1,0-3.57-1.34-2.7.73-3-1-4.81-1.86-2.93-1-2.92-3.56-.28-2,3.09-.84-.24-1.42.53-1.62,2,0-1.23-1.34-3.48-2.26-.7-.05-2.91-2.26-2.5-2,1.63,0,0-1.36-.69-1.24,1.1-2.51-1.61-1.9,4.1-1.9,4.1s-.83-.47-1.11,1.76c-.06-.67-1.15-2-1.8-.58.07-1.68-.89-4.7-2.19-2.16.34-3.68-2.05-3.83-1.74-1.14-1.16-1.36-1.5,2.2-1.5,2.2s-.77-1.13-1.17-.35c0-2.23-1.53-3.37-2.44-2.27.33-2.23-2.25-3.61-3.17-1.06-.12-1.56-1.6-2.7-2.39-1,0-1.56-1.46-4.15-2.32-1.37.27-2.23-.88-4.15-2.12-2.6C123,67,121,69.63,121,69.63c-1.41-3.37-3.88,0-2.67,3-1.94-.37-3.9,2.72-1.2,6.34a.64.64,0,0,0-.18-.06c-.85-1.32-2-1.71-2.88.23-.19-1.68-1.8-2.15-2.2-.37-1-1.58-2.39-.15-1.89,3.2A1.87,1.87,0,0,0,107.1,81c0-4.69-2.76-3.17-2.78-.38-.77-1-2.39-.49-2.6,2.75-.12-.9-1.09-1.69-2.14.19.61-3.68-1.32-5.83-2.89-3.4.33-1,0-3.57-1.34-2.7.72-3-.95-4.81-1.86-2.93-1-2.92-3.56-.28-2,3.09-.84-.24-1.42.53-1.63,2,0-1.23-1.34-3.48-2.26-.71,0-2.9-2.25-2.49-2,1.64,0,0-1.36-.69-1.24,1.1-2.51-1.6-1.9,4.1-1.9,4.1s-.84-.46-1.11,1.76c-.06-.67-1.15-2-1.8-.58.07-1.68-.88-4.7-2.19-2.16.34-3.68-2-3.83-1.74-1.14-1.16-1.36-1.5,2.2-1.5,2.2s-.78-1.13-1.17-.35c0-2.23-1.53-3.38-2.44-2.27.33-2.23-2.25-3.61-3.17-1.06-.12-1.56-1.6-2.7-2.39-1,0-1.57-1.46-4.16-2.32-1.38.27-2.23-.88-4.14-2.12-2.6.16-5.36-1.86-2.71-1.86-2.71-1.41-3.37-3.88,0-2.67,3a1.81,1.81,0,0,0-1.38.32,1.28,1.28,0,0,0-2.1-.25c1.7-3.55,1.45-7.74-.43-5,.38-8.26-4.11-8.3-3.19-2.13-.62-.84-1.72-.8-2.46,1,.13-2.82-1.33-4.34-2.65-1.88-.08-5.48-3.87-11.29-6.4-6.15-.2-2.87-2.89-4-3.68-1.07-1.51-2.85-4-.73-3.41,5-.35-1.94-2.6-3-4.72-2.16.25-7.9-4.44-5.89-4.66-1.19-1.23-1.87-4-1.3-4.57,4.1-.15-1.53-1.72-3.07-3.61-.11,1.26-6.07-1.84-10.08-4.64-6.3.62-1.62.27-6-2.08-4.82,1.42-4.9-1.27-8.3-2.94-5.31-.91-3.05-2.85-2.88-3.78-1v5.34c.05.15.1.3.16.45l-.16,0V77.44c1.17.07,2.59,2,1.35,8.08,0,0,2.91-1.31,2.72,2.83,0,0,1.93-3.9,3.5-2.17-.64-12.56,6.4-8.21,5.28-2.88.72-1.41,3.18-.13,1.95,2.91,0,0,2.1-.47,1.48,3.6,0,0,2.23-3.28,3.58-1.78-.15-8.71,6.33-6.51,5.43-1.15,0,0,3.35-3.89,4.36.4,0,0,1.57-7.91,4.28-2.44,0,0-.92-6.36,1.26-6.07-.41-10.25,7.36-5.23,5.56.57,1.41-2.08,4.12.94,1.87,4.79.71-1.23,3.78-1.19,3.34,3.48,1-2.14,4.08-2.85,3.56,1.23,1.63-.75,2.56-.59,3,.09-1.83,1.12-2.47,5-2.67,6.92.57.26,1.15.54,1.72.83,0,.1-.07.21-.11.31l.51-.12c.95.47,1.9.95,2.86,1.47a2.57,2.57,0,0,1,.22-2.21l.09,0,1.53-.36.16,0a.64.64,0,0,1,0-.07l.62-.14.39-.09.51-.12.43-.1.55-.13L59,95l.59-.13.45-.1.51-.12.59-.14.43-.09.14,0c.08-4.86-1.8-8.11-3.66-7,.7-2.39,3.28-2.71,3.41-.86.14-1,1.56-1.2,1.61,1.36,0,0,.86-2.22,1.17.36,0,0,.07-2.23.78-.88,0,0-.5-3.47,1.25-3.55,2.2-.08,1.53,4.37,1.53,4.37.32-.77,1.55-.53,1.21,2,.14-1.11,1.11-1.54,1.11-.2.78-1.44,3.16.94,2.3,3.72.65-.77,1.3-.54,1.55.69.8-3.11,3.11-.62,2.52,1.27,1-1,1.8,1.48.76,2.8.78-.65,2.27-.52,2.26,1.27,1.5-2.65,2.72-.29,2.72-.29,0-1.23.92-3.11,1.89-2,0-4.13,2.27-1.86,2.27-1.86-.25-1,.21-2.78,1.57-2.76a3.48,3.48,0,0,1,0-4.13c.92-1.43,3.82-.61,3.29,1.84.46-.89,2.4-.74,1.6,4.27,0,0,1.68-1,1.67,1.47,0,0,1-2.43,2-1.52-.68-7.38,3.58-5.3,3-2.07.39-.89,1.88-.31,1.22,1.58,0,0,1.23-.43,1,2,0,0,1.24-2.1,2.08-1.3-.3-5.14,3.58-4.3,3.17-1.07,0,0,1.89-2.53,2.59-.06,0,0,.74-4.79,2.47-1.75,0,0-.06-.34-.12-.82q2.23,1.05,4.49,2.26c-.31-1.35-.06-2.33.8-2.59l-.05.12.08-.12a2.23,2.23,0,0,1,1.17,0c0-.12,0-.24-.07-.35.5.17,1,.82.88,2.26.52-1.33,2.34-2,2.13.48,3-1.79,2,2.45,1.36,4.67l2-.73.11,0,.94-.34h0l.37-.14.23-.07.3-.11.25-.09.32-.11a2.34,2.34,0,0,1,.24-.09l.35-.12.26-.09.3-.11.34-.12.26-.09.08,0c-.08-3.49-1.81-5.37-3-3.08-.37-2-1.48-1.14-1.48-1.14,1.11-2,.3-6.8-1.39-5.16.91-2.21.67-4.67-.38-2.9a7.11,7.11,0,0,0-.47-3,1.16,1.16,0,0,1,1.34,1.18c.14-1,1.56-1.21,1.61,1.36,0,0,.86-2.22,1.17.35,0,0,.07-2.23.78-.87,0,0-.5-3.47,1.25-3.55,2.2-.08,1.53,4.37,1.53,4.37.32-.77,1.55-.53,1.22,2,.13-1.11,1.1-1.54,1.1-.2.78-1.44,3.16.94,2.3,3.72.66-.77,1.3-.54,1.55.69.8-3.11,3.11-.62,2.52,1.27,1-1,1.8,1.48.76,2.8.78-.65,2.27-.52,2.26,1.27,1.5-2.66,2.72-.29,2.72-.29,0-1.23.92-3.11,1.89-2-.05-4.13,2.27-1.86,2.27-1.86-.25-1,.21-2.79,1.57-2.76a3.48,3.48,0,0,1,0-4.13c.92-1.44,3.82-.61,3.29,1.84.46-.89,2.4-.74,1.6,4.26,0,0,1.68-1,1.67,1.48,0,0,1.05-2.44,2-1.52-.68-7.38,3.58-5.3,3.05-2.08.39-.88,1.88-.3,1.22,1.59,0,0,1.23-.43,1,2,0,0,1.24-2.1,2.08-1.3-.3-5.14,3.58-4.3,3.17-1.07,0,0,1.89-2.53,2.59-.07,0,0,.74-4.78,2.47-1.74,0,0-.69-3.69.6-3.67-.48-6,4.23-3.62,3.3-.06.79-1.32,2.46.26,1.22,2.7a1,1,0,0,1,1.89.37c-.27.13-.54.49-.67,1.34-1.25-2.19-2.92-.15-2.89,3.34l.08,0,.25.07.35.09.31.08.26.06.34.1.25.06.33.09.25.06.3.08.23.07.37.09h0l.95.26.11,0,2.07.56c-.51-1.46-1.18-3.83-.61-4.74a2.44,2.44,0,0,1,0,.26c3-1.79,2,2.45,1.36,4.67l2-.73.11,0,.94-.34h0l.37-.13.23-.08.3-.11.25-.09.32-.12.24-.08.35-.12.26-.1.3-.1.35-.12.25-.09.08,0c-.08-3.49-1.81-5.37-3-3.08-.17-1-.51-1.25-.81-1.32.25-1.69,1.62-1.58,2-1-1.31-2.32.32-4,1.14-2.8-1-3.47,3.6-6.29,3.3-.23,1.29-.13.71,3.62.71,3.62,1.63-3.19,2.51,1.53,2.51,1.53.63-2.53,2.59-.16,2.59-.16-.5-3.19,3.35-4.37,3.2.78.82-.86,2.12,1.13,2.12,1.13-.35-2.43.9-2.11.9-2.11-.72-1.82.75-2.54,1.17-1.69-.63-3.17,3.56-5.62,3.11,1.81.94-1,2.06,1.35,2.06,1.35-.09-2.45,1.62-1.62,1.62-1.62-.95-4.93,1-5.25,1.47-4.4-.6-2.4,2.28-3.48,3.23-2.12a3.46,3.46,0,0,1,.15,4.12c1.35-.14,1.87,1.59,1.64,2.62,0,0,2.25-2.47,2.33,1.66.93-1.22,1.9.58,1.94,1.81,0,0,1.15-2.47,2.73.05-.06-1.78,1.42-2,2.22-1.46-1.08-1.23-.39-3.76.67-2.86-.64-1.83,1.6-4.52,2.48-1.49.22-1.25.85-1.54,1.53-.83-.94-2.69,1.37-5.28,2.19-3.91,0-1.34.94-1,1.11.11-.41-2.53.81-2.88,1.16-2.13,0,0-.8-4.39,1.4-4.51,1.74-.07,1.35,3.44,1.35,3.44.66-1.41.8.81.8.81.24-2.59,1.16-.45,1.16-.45a3.47,3.47,0,0,1,.29-1.64ZM120.53,82.21a3,3,0,0,1,.37-.66,6.59,6.59,0,0,0,.11.91A.65.65,0,0,0,120.53,82.21Z"/>
                  <path class="cls-9" d="M183.76,88.63c.21-2.45-1.6-1.81-2.13-.48.14-2.79-1.67-2.6-2.06-1.82,1.24-2.44-.43-4-1.22-2.7.93-3.56-3.78-6-3.3.06-1.29,0-.6,3.67-.6,3.67-1.73-3-2.47,1.74-2.47,1.74-.7-2.46-2.59.07-2.59.07.41-3.23-3.47-4.07-3.17,1.07-.84-.8-2.08,1.3-2.08,1.3.27-2.45-1-2-1-2,.66-1.89-.83-2.47-1.22-1.59.53-3.22-3.73-5.3-3.05,2.08-1-.92-2,1.52-2,1.52,0-2.45-1.67-1.48-1.67-1.48.8-5-1.14-5.15-1.6-4.26.53-2.45-2.37-3.28-3.29-1.84a3.48,3.48,0,0,0,0,4.13c-1.36,0-1.82,1.75-1.57,2.76,0,0-2.32-2.27-2.27,1.86-1-1.13-1.88.75-1.89,2,0,0-1.22-2.37-2.72.29,0-1.79-1.48-1.92-2.26-1.27,1-1.32.28-3.79-.76-2.8.59-1.89-1.72-4.38-2.52-1.27-.25-1.23-.89-1.46-1.55-.69.86-2.78-1.52-5.16-2.3-3.72,0-1.34-1-.91-1.1.2.33-2.56-.9-2.8-1.22-2,0,0,.67-4.45-1.53-4.37-1.75.08-1.25,3.55-1.25,3.55-.71-1.36-.78.87-.78.87-.31-2.57-1.17-.35-1.17-.35,0-2.57-1.47-2.37-1.61-1.36-.18-2.46-4.71-1.09-3.32,4-.84-.13-1.11,1.32-.85,2.21-1.16-1.58-1.88,0-1.18,3.11-1.81-.44-2.43.71-2,2.56,2.11,1.14,4.23,2.38,6.36,3.76,1.45.75,1.94,1.18,2.86,1.19-1.37.56-.5,1.58,1.93.79-1.12,1.57.19,1.17,1,.6.57,2.43,1.21,1.77,1.21.44,1.89,1.62,2.43.54,2.28.12,1.26,1.69,3.93,1.15,3.93,1.15s-1.18,1.57,2.47.29c-.15,1.59,1.17.27,1.31,0,1,1.61,3,1.14,2.09-.13,2.32,1.29,3.64.56,4,.07,1.4,1.53,2.42.54,2.42.54,1.21,1,4.6-.7,6.32-1,9.27-1.51,14-2.36,14.77-2.93-.54,1.16,1.06.18,1.6-.64.57,1.93.92.93,1-.4,1.5,1.61,1.36-.32,1.36-.32,1.75.28,1.41-.64,1.41-.64s2.48-.38,9.63-2.94l.69-.25C185.8,91.08,186.78,86.84,183.76,88.63Z"/>
                </g>
                <g class="cls-10">
                  <path class="cls-11" d="M48.76,88.84c.52-4.08-2.58-3.37-3.56-1.23.44-4.67-2.63-4.71-3.34-3.48,2.25-3.85-.46-6.87-1.87-4.79,1.8-5.8-6-10.82-5.56-.57-2.18-.29-1.26,6.07-1.26,6.07-2.71-5.47-4.28,2.44-4.28,2.44-1-4.29-4.36-.4-4.36-.4.9-5.36-5.58-7.56-5.43,1.15-1.35-1.5-3.58,1.78-3.58,1.78.62-4.07-1.48-3.6-1.48-3.6,1.23-3-1.23-4.32-1.95-2.91,1.12-5.33-5.92-9.68-5.28,2.88-1.57-1.73-3.5,2.17-3.5,2.17C3.5,84.21.59,85.52.59,85.52c1.24-6-.18-8-1.35-8.08v27.1c15.47-.69,23.34-1.17,24.68-2-1,1.85,1.78.53,2.75-.76.83,3.37,1.48,1.76,1.74-.47,2.41,3,2.32-.25,2.32-.25,2.92.82,2.42-.81,2.42-.81s4.19-.14,16.41-3L50.73,97C52,93.38,54,86.43,48.76,88.84Z"/>
                </g>
                <path class="cls-12" d="M121.4,93.4c.21-2.45-1.61-1.81-2.13-.48.14-2.79-1.67-2.6-2.06-1.82,1.24-2.43-.43-4-1.22-2.7.93-3.55-3.78-6-3.3.06-1.29,0-.6,3.67-.6,3.67-1.73-3-2.47,1.75-2.47,1.75-.7-2.47-2.59.06-2.59.06.41-3.23-3.47-4.07-3.17,1.07-.84-.8-2.08,1.3-2.08,1.3.27-2.45-1-2-1-2,.66-1.89-.83-2.47-1.22-1.58.53-3.23-3.73-5.31-3,2.07-1-.91-2,1.52-2,1.52,0-2.45-1.67-1.47-1.67-1.47.8-5-1.14-5.16-1.6-4.27.53-2.45-2.37-3.27-3.29-1.84a3.48,3.48,0,0,0,0,4.13c-1.36,0-1.82,1.75-1.57,2.76,0,0-2.32-2.27-2.27,1.86-1-1.13-1.89.75-1.89,2,0,0-1.22-2.36-2.72.29,0-1.79-1.48-1.92-2.26-1.27,1-1.32.28-3.79-.76-2.8.59-1.89-1.72-4.38-2.52-1.27-.25-1.23-.9-1.46-1.55-.69.86-2.78-1.52-5.16-2.3-3.72,0-1.34-1-.91-1.11.2.34-2.56-.89-2.8-1.21-2,0,0,.67-4.45-1.53-4.37-1.75.08-1.25,3.55-1.25,3.55-.71-1.35-.78.88-.78.88-.31-2.58-1.17-.36-1.17-.36-.05-2.56-1.47-2.37-1.61-1.36-.18-2.46-4.71-1.08-3.32,4-.84-.13-1.11,1.32-.85,2.21-1.16-1.57-1.88,0-1.18,3.11-1.81-.44-2.43.71-2,2.56,2.11,1.14,4.23,2.38,6.36,3.76,1.45.75,1.94,1.18,2.86,1.19-1.37.57-.5,1.58,1.93.79-1.12,1.57.19,1.17,1,.6.57,2.43,1.2,1.78,1.21.44,1.89,1.62,2.42.54,2.28.12,1.25,1.69,3.93,1.15,3.93,1.15s-1.18,1.57,2.47.29c-.15,1.59,1.16.27,1.31,0,1,1.61,3,1.14,2.09-.13,2.32,1.3,3.64.56,4,.07,1.4,1.53,2.42.54,2.42.54,1.21,1,4.6-.7,6.32-1,9.27-1.52,14-2.37,14.76-2.94-.54,1.16,1.07.19,1.61-.64.57,1.93.92.93,1-.4,1.5,1.61,1.36-.32,1.36-.32,1.75.28,1.41-.64,1.41-.64s2.48-.38,9.63-2.94l.69-.25C123.44,95.85,124.42,91.61,121.4,93.4Z"/>
                <path class="cls-11" d="M244,94.19v-1l-.1,0,.1,0v-17a3.47,3.47,0,0,0-.29,1.64s-.92-2.14-1.16.45c0,0-.14-2.22-.8-.81,0,0,.39-3.51-1.35-3.44-2.2.12-1.4,4.51-1.4,4.51-.35-.75-1.57-.4-1.16,2.13-.17-1.1-1.15-1.45-1.11-.11-.82-1.37-3.13,1.22-2.19,3.91-.68-.71-1.31-.42-1.53.83-.88-3-3.12-.34-2.48,1.49-1.06-.9-1.75,1.63-.67,2.86-.8-.58-2.28-.32-2.22,1.46-1.58-2.52-2.73-.05-2.73-.05,0-1.23-1-3-1.94-1.81-.08-4.13-2.33-1.66-2.33-1.66.23-1-.29-2.76-1.64-2.62a3.46,3.46,0,0,0-.15-4.12c-1-1.36-3.83-.28-3.23,2.12-.48-.85-2.42-.53-1.47,4.4,0,0-1.71-.83-1.62,1.62,0,0-1.12-2.34-2.06-1.35.45-7.43-3.74-5-3.11-1.81-.42-.85-1.89-.13-1.17,1.69,0,0-1.25-.32-.9,2.11,0,0-1.3-2-2.12-1.13.15-5.15-3.7-4-3.2-.78,0,0-2-2.37-2.59.16,0,0-.88-4.72-2.51-1.53,0,0,.58-3.75-.71-3.62.3-6.06-4.33-3.24-3.3.23-.82-1.25-2.45.48-1.14,2.8-.41-.74-2.23-.77-2,2-.56-1.29-2.4-1.77-2.12.66-3.07-1.52-2,2.63-1.21,4.79l.69.19c7.21,1.93,9.7,2.09,9.7,2.09s-.31,1,1.43.53c0,0-.08,1.93,1.36.19.15,1.33.52,2.29,1,.31.56.78,2.19,1.62,1.62.5.79.51,5.52.94,14.84,1.66,1.72.13,5.16,1.56,6.33.43,0,0,1.05.9,2.41-.75.4.46,1.73,1.07,4-.42-.83,1.34,1.17,1.64,2.09,0,.15.24,1.5,1.44,1.3-.13,3.68,1,2.47-.51,2.47-.51s2.68.31,3.88-1.49c-.13.43.44,1.46,2.28-.32,0,1.33.7,1.94,1.19-.55.8.51,2.12.79.95-.68A4.26,4.26,0,0,0,244,94.19Z"/>
              </g>
            </g>
            <rect class="cls-13" x="1.56" y="118.3" width="241.81" height="141.04"/>
            <g class="cls-14">
              <path class="cls-15" d="M15.27,221.35q-7.42-.32-13.71-.64v3.67"/>
              <path class="cls-16" d="M1.56,124.67c15.55-2.34,50.36-4.82,97.32-6.37H1.56Z"/>
            </g>
            <g>
              <path class="cls-17" d="M56.17,126s6.4.56,4.77,1.44,6.47.15,10.84-.2a40.7,40.7,0,0,1,9.4.56c2.46.24-2.69-.8-12.36.13s-10.89,1.17-10,.1C60.24,126.33,47.74,126,56.17,126Z"/>
              <path class="cls-17" d="M93.64,126.74s3.31,0,8.32,0,5.5-.57,11.92-.35,6.91.55,9.13.44.12.45-4.2.23-6.29-.12-9.62-.12-5.68.45-9.14.34S89.56,127.19,93.64,126.74Z"/>
              <path class="cls-17" d="M133.3,127.26a7.07,7.07,0,0,1,3.51-.36,8.82,8.82,0,0,0,3.78.19,17.84,17.84,0,0,1,4.76-.07c2.8.18-.56.27-2,.25s-2.4.92-4.63.75-2.8-.72-5.32-.35S129.24,127.47,133.3,127.26Z"/>
              <path class="cls-17" d="M187.68,129.37c-.68,0-1.09,0-2.21.08a14.39,14.39,0,0,1-3.37-.12,10.79,10.79,0,0,0-3.11.16c-3.62.08-2.12.37.12.2a26.62,26.62,0,0,1,4.73.2,23.64,23.64,0,0,0,3.84-.34Z"/>
            </g>
            <g class="cls-18">
              <path class="cls-4" d="M49.64,132.37l-.78.12c-.5.09-1.24.22-2.17.43-.46.1-1,.22-1.5.38a13.22,13.22,0,0,0-1.65.6,3,3,0,0,0-1.36,1,.6.6,0,0,0-.08.16,1.13,1.13,0,0,0,0,.18v0h0v.18l0,0,0,.07a1.62,1.62,0,0,0,.7.55,6.5,6.5,0,0,0,1.06.42c.38.13.78.23,1.2.34.83.2,1.72.37,2.64.53,1.84.32,3.82.57,5.87.83l3.13.39c1,.14,2.13.28,3.21.5.54.11,1.07.23,1.61.39a5.21,5.21,0,0,1,.8.3,2.05,2.05,0,0,1,.4.23.61.61,0,0,1,.25.47.53.53,0,0,1-.13.27l-.11.1-.11.08a2.49,2.49,0,0,1-.46.19,5.66,5.66,0,0,1-.86.21c-.58.1-1.13.15-1.67.22-1.09.14-2.18.28-3.21.49a11.94,11.94,0,0,0-1.46.39c-.44.16-.81.38-.87.59a.41.41,0,0,0,.1.36,1,1,0,0,0,.17.19l.05.05,0,0h0l0,0,.12.08a2.77,2.77,0,0,0,.57.26,7.16,7.16,0,0,0,.7.22c1,.27,2,.46,3,.64,2,.36,4,.66,5.84,1a51.24,51.24,0,0,1,5.22,1,6.13,6.13,0,0,1,1.13.43.91.91,0,0,1,.43.39.34.34,0,0,1,0,.28.55.55,0,0,1-.18.22,2,2,0,0,1-.47.27l-.43.22c-.29.15-.56.29-.81.44a5.24,5.24,0,0,0-.67.47,1,1,0,0,0-.34.51.55.55,0,0,0,.25.47,2.78,2.78,0,0,0,.54.35,18.9,18.9,0,0,0,2,.76l.72.23-.74-.2-.88-.27a11,11,0,0,1-1.15-.42,3.61,3.61,0,0,1-.6-.35,1.23,1.23,0,0,1-.25-.26.62.62,0,0,1-.09-.32,1.05,1.05,0,0,1,.36-.62,4.53,4.53,0,0,1,.67-.51c.25-.17.52-.32.8-.48l.43-.24A2,2,0,0,0,71,148c.1-.09.12-.16.09-.23a.66.66,0,0,0-.29-.23,5.78,5.78,0,0,0-1-.35c-.76-.2-1.6-.36-2.47-.5s-1.77-.29-2.7-.42c-1.87-.28-3.86-.54-5.9-.88-1-.18-2-.37-3.09-.64a6.86,6.86,0,0,1-.77-.24,3.35,3.35,0,0,1-.78-.35.85.85,0,0,1-.16-.11h0l0,0,0,0-.07-.07a2.26,2.26,0,0,1-.25-.28.84.84,0,0,1-.16-.72,1.15,1.15,0,0,1,.54-.63,3.86,3.86,0,0,1,.76-.38,13.4,13.4,0,0,1,1.62-.44c1.1-.22,2.21-.37,3.3-.51.55-.07,1.11-.12,1.61-.21a4.39,4.39,0,0,0,.71-.16.84.84,0,0,0,.25-.11c.06,0,.06-.05.05,0s0,0,0,0a1.57,1.57,0,0,0-.23-.13,6.82,6.82,0,0,0-.65-.25c-.47-.14-1-.26-1.5-.36-1-.21-2.08-.36-3.13-.51l-3.11-.42c-2-.28-4-.57-5.89-.92-.93-.17-1.83-.36-2.68-.59-.43-.12-.85-.24-1.24-.38a6.73,6.73,0,0,1-1.13-.48,2,2,0,0,1-.83-.72l-.05-.12,0-.06v-.18h0v-.09a1.8,1.8,0,0,1,.06-.22.78.78,0,0,1,.11-.2,3.47,3.47,0,0,1,1.58-1.09,15.83,15.83,0,0,1,1.74-.56c.56-.14,1.07-.25,1.54-.34,1-.18,1.7-.27,2.21-.34Z"/>
              <path class="cls-4" d="M82.25,143.81l-.18,0-.49.13-.74.23c-.28.1-.59.21-.91.34l-.49.23-.25.12-.25.14a8.22,8.22,0,0,0-1,.63l-.41.38-.17.21a1.57,1.57,0,0,0-.17.21l-.15.22,0,.06,0,0h0s0,0,0,0h0l-.06.13c0,.08-.08.17-.11.25l0,.21a1.21,1.21,0,0,0,.2.87,3,3,0,0,0,.76.75,8.34,8.34,0,0,0,1,.59l.52.23.51.21.94.32c.28.1.53.17.74.23l.66.19-.18,0-.53-.05c-.22,0-.51-.06-.81-.13l-.5-.09-.54-.13-.58-.17-.6-.21c-.19-.08-.4-.16-.6-.26a5,5,0,0,1-.6-.33,3.26,3.26,0,0,1-1-.89l-.17-.27c0-.1-.07-.2-.1-.3a1,1,0,0,1,0-.3,1.08,1.08,0,0,1,0-.31L76,147a1.92,1.92,0,0,1,.12-.25l.06-.13v0l0,0h0l0,0,0-.06.19-.25a3.15,3.15,0,0,1,.43-.47c.16-.15.33-.28.5-.42a6.76,6.76,0,0,1,1.14-.64c.19-.09.39-.17.58-.24l.57-.18a9.55,9.55,0,0,1,1.84-.38l.53-.05Z"/>
              <path class="cls-4" d="M217.83,164.34s1.32.09,3.27.4c.48.07,1,.16,1.55.27s1.13.23,1.72.37,1.2.31,1.8.5a16.63,16.63,0,0,1,1.78.67,5.25,5.25,0,0,1,1.53,1,1.26,1.26,0,0,1,.36.75,1.13,1.13,0,0,1-.26.76,3.62,3.62,0,0,1-1.35.94,10.8,10.8,0,0,1-1.44.55,22.12,22.12,0,0,1-2.27.56l-.65.12-.23,0,.82-.27c.52-.18,1.25-.43,2.09-.76.42-.18.86-.37,1.28-.6a3.16,3.16,0,0,0,1-.82.69.69,0,0,0-.13-1,4.27,4.27,0,0,0-1.3-.82,14.15,14.15,0,0,0-1.65-.65c-.57-.18-1.14-.37-1.7-.53l-1.65-.44-1.49-.37-2.26-.53Z"/>
              <path class="cls-4" d="M231.85,172a.24.24,0,0,1,0,.1,1.42,1.42,0,0,1-.09.28,1.89,1.89,0,0,1-.24.42l-.2.25c-.07.08-.18.16-.27.25l-.15.13-.18.12a2.49,2.49,0,0,1-.38.25l-.44.25c-.15.08-.32.14-.49.22a10.32,10.32,0,0,1-1.07.38,3.83,3.83,0,0,1-.58.16l-.59.14c-.4.09-.81.14-1.21.21a4.12,4.12,0,0,1-.59.07l-.59.06-.56.05h-.55l-1,0c-.31,0-.59,0-.84,0l-.65,0-.56,0s.21,0,.56-.08l.63-.08.81-.09,1-.12.52-.06.54-.09c.36-.06.74-.1,1.12-.17s.76-.13,1.13-.21l.55-.13.55-.13.52-.15c.18-.05.34-.11.5-.17s.33-.1.47-.16l.44-.19a3.54,3.54,0,0,0,.39-.19l.19-.09.16-.1a6,6,0,0,0,.56-.38,3.22,3.22,0,0,0,.37-.35,2.49,2.49,0,0,0,.2-.24A.44.44,0,0,0,231.85,172Z"/>
              <g class="cls-18">
                <path class="cls-4" d="M182.27,181.09l-1.81.22-4.77.59c-2,.26-4.25.57-6.68,1-1.21.2-2.45.42-3.7.68-.62.13-1.24.27-1.84.43a15.07,15.07,0,0,0-1.72.57,3.2,3.2,0,0,0-.67.37c-.18.14-.23.26-.21.37a1.78,1.78,0,0,0,.91.94,16.34,16.34,0,0,0,3.29,1.18l.87.25a6,6,0,0,1,.86.32,1,1,0,0,1,.43.35.33.33,0,0,1,0,.32.66.66,0,0,1-.21.2,3.34,3.34,0,0,1-.86.34c-.56.16-1.09.26-1.6.39l-1.47.34-1.33.35a7.31,7.31,0,0,0-1.1.4.83.83,0,0,0-.33.25c-.05.08,0,.17.08.26a3,3,0,0,0,.75.35c.52.18,1,.28,1.24.36l.46.11-.47-.08c-.31-.06-.76-.13-1.31-.27a3.29,3.29,0,0,1-.86-.36l-.1-.08a.44.44,0,0,1-.08-.11.29.29,0,0,1,0-.24,1,1,0,0,1,.4-.37,13.41,13.41,0,0,1,2.46-.9l1.45-.4c.5-.14,1-.26,1.54-.42a2.21,2.21,0,0,0,.63-.26s.05,0,0,0v0s0,0,0,0l-.13-.07a6.36,6.36,0,0,0-.74-.25l-.86-.23c-.58-.16-1.18-.32-1.78-.51a9.3,9.3,0,0,1-1.76-.72,3.48,3.48,0,0,1-.76-.54,1.93,1.93,0,0,1-.29-.35.69.69,0,0,1-.1-.19l-.05-.11,0-.08a.63.63,0,0,1,.05-.5,1.12,1.12,0,0,1,.34-.38,3.54,3.54,0,0,1,.87-.49,13.79,13.79,0,0,1,1.88-.62c.63-.16,1.27-.3,1.91-.44,1.28-.26,2.55-.45,3.78-.63s2.43-.33,3.56-.46,2.22-.23,3.21-.32c2-.19,3.66-.3,4.82-.37Z"/>
              </g>
              <g class="cls-18">
                <path class="cls-4" d="M169.66,163.93l-1.57.24-4.15.65c-1.7.28-3.7.61-5.8,1-1,.2-2.13.43-3.21.68a18,18,0,0,0-3.06,1,2.85,2.85,0,0,0-.56.34c-.14.12-.17.21-.15.29a1.52,1.52,0,0,0,.83.78,14.39,14.39,0,0,0,2.93,1l.77.2a4.81,4.81,0,0,1,.78.27.88.88,0,0,1,.41.31.29.29,0,0,1,0,.3.66.66,0,0,1-.18.19,3.19,3.19,0,0,1-.75.33c-.5.15-.95.25-1.39.37l-1.28.33c-.4.11-.79.22-1.14.34a5.39,5.39,0,0,0-.95.37.69.69,0,0,0-.27.22c0,.07,0,.14.08.21a2.45,2.45,0,0,0,.66.29c.47.15.85.23,1.11.29l.4.09-.41-.06c-.27,0-.67-.09-1.16-.2a2.92,2.92,0,0,1-.79-.29l-.09-.07-.08-.1a.28.28,0,0,1,0-.22.83.83,0,0,1,.33-.34,10.51,10.51,0,0,1,2.12-.85l1.25-.39c.43-.14.9-.26,1.32-.41a2.22,2.22,0,0,0,.53-.24l0,0s0,0,0,0a.42.42,0,0,0-.13-.07,10,10,0,0,0-1.42-.38c-.52-.13-1.06-.25-1.6-.4a9,9,0,0,1-1.59-.6,3.13,3.13,0,0,1-.71-.47,1.93,1.93,0,0,1-.27-.3,1.26,1.26,0,0,1-.11-.17l0-.09,0-.07a.57.57,0,0,1,0-.46,1.09,1.09,0,0,1,.28-.36,3.87,3.87,0,0,1,.75-.46,12.17,12.17,0,0,1,1.63-.58c.55-.16,1.1-.31,1.66-.43,1.1-.26,2.21-.46,3.29-.65s2.11-.34,3.1-.48,1.93-.25,2.8-.35c1.74-.21,3.2-.34,4.22-.43Z"/>
              </g>
              <g class="cls-18">
                <path class="cls-4" d="M189.48,199.88l.61.08a8.58,8.58,0,0,1,1.54.4,2.13,2.13,0,0,1,.89.56.68.68,0,0,1,.18.53.92.92,0,0,1-.32.49,3.23,3.23,0,0,1-1.08.63c-.2.09-.41.16-.61.23l-.63.19-.63.16-.64.15c-.42.09-.85.16-1.25.23s-.81.12-1.18.17-.74.09-1.07.12c-.66.07-1.22.11-1.61.13l-.61,0,.58-.14.66-.16.86-.19,2.15-.47c.39-.08.79-.18,1.19-.28.21,0,.41-.1.61-.15l.6-.16a4.91,4.91,0,0,0,.58-.17l.56-.19a3.43,3.43,0,0,0,.9-.45.75.75,0,0,0,.21-.24.31.31,0,0,0,0-.24,1.61,1.61,0,0,0-.59-.48,9.89,9.89,0,0,0-1.32-.57Z"/>
              </g>
              <g class="cls-18">
                <path class="cls-4" d="M188.48,206.83l-1.37.28c-.44.09-1,.19-1.59.29l-2.07.34c-.76.12-1.59.24-2.47.35s-1.81.22-2.78.33c-.48.06-1,.1-1.47.14l-1.52.13-.77.06-.78,0-1.56.08c-1,0-2.07.06-3.08.12s-2,.12-2.92.25a6.69,6.69,0,0,0-.67.11,2.15,2.15,0,0,0-.52.16c-.06,0,0,0,0,0s0,0,0,0a2.18,2.18,0,0,0,.5.19,11.4,11.4,0,0,0,1.19.25c.4.07.79.1,1.2.19a3.06,3.06,0,0,1,.59.17l.14.08.13.1a.46.46,0,0,1,.07.14.33.33,0,0,1,0,.14.69.69,0,0,1-.32.37,2.3,2.3,0,0,1-.4.23,9.76,9.76,0,0,1-1.46.55c-.41.13-.75.21-1,.27l-.35.09s.47-.16,1.25-.47a10.86,10.86,0,0,0,1.33-.62,2.57,2.57,0,0,0,.32-.22.4.4,0,0,0,.17-.23c.05-.1-.29-.22-.63-.26s-.77-.08-1.19-.13a12.79,12.79,0,0,1-1.31-.22,3.42,3.42,0,0,1-.7-.24.8.8,0,0,1-.19-.13.39.39,0,0,1-.14-.23.23.23,0,0,1,0-.14.35.35,0,0,1,.07-.12.87.87,0,0,1,.2-.15,3,3,0,0,1,.75-.27l.73-.14c1-.15,2-.24,3-.31s2.08-.09,3.1-.14l1.54-.07.77,0,.76-.05c1-.08,2-.12,3-.21s1.9-.16,2.78-.25l2.48-.24,2.1-.22,1.62-.19Z"/>
              </g>
              <g class="cls-18">
                <path class="cls-4" d="M168,214.46a.23.23,0,0,1,.08.09.23.23,0,0,1,.07.11.45.45,0,0,1,.08.17.65.65,0,0,1,0,.21.76.76,0,0,1,0,.26,1.43,1.43,0,0,1-.25.6c-.09.09-.17.2-.27.31l-.36.29-.09.07-.11.07-.22.13a3.67,3.67,0,0,1-.48.26,9.9,9.9,0,0,1-1.09.42l-.58.18a5.84,5.84,0,0,1-.6.15c-.4.09-.8.2-1.21.25l-1.19.18c-.39,0-.77.08-1.13.11s-.69.06-1,.07l-1.52,0h-.57l.55-.12,1.46-.25,1-.17,1.07-.19,1.13-.22c.39-.07.77-.17,1.15-.25.19-.05.39-.08.57-.14l.54-.16c.38-.09.7-.23,1-.34a3.07,3.07,0,0,0,.45-.2l.22-.09.11-.05.09-.06.36-.22.28-.23a1.79,1.79,0,0,0,.36-.47.74.74,0,0,0,.08-.22.46.46,0,0,0,0-.19,1.06,1.06,0,0,0,0-.28A.26.26,0,0,0,168,214.46Z"/>
              </g>
              <g class="cls-18">
                <path class="cls-4" d="M147,194.16l-5.43,1-2.62.48c-.92.18-1.89.36-2.89.57s-2,.44-3,.73c-.5.14-1,.29-1.44.46a5.34,5.34,0,0,0-.63.29.78.78,0,0,0-.35.3.07.07,0,0,0,0,.08.45.45,0,0,0,.14.13c.14.09.41.19.64.3.47.22.93.45,1.37.7a4.59,4.59,0,0,1,1.18.91.79.79,0,0,1,.2.69.75.75,0,0,1-.21.35,1.59,1.59,0,0,1-.33.25,5.82,5.82,0,0,1-1.51.5c-.5.11-1,.19-1.46.26-1,.13-1.87.22-2.71.29-1.67.14-3.07.21-4,.26l-1.54.08,1.52-.18c1-.11,2.35-.26,4-.47.83-.11,1.72-.23,2.64-.39.46-.08.93-.17,1.38-.28a4.72,4.72,0,0,0,1.24-.45c.33-.21.36-.38.14-.66a3.83,3.83,0,0,0-1-.73c-.41-.23-.86-.44-1.31-.64l-.35-.15a3,3,0,0,1-.4-.2,1.1,1.1,0,0,1-.36-.32.5.5,0,0,1-.07-.47,1.38,1.38,0,0,1,.62-.62,5.77,5.77,0,0,1,.76-.35,12.84,12.84,0,0,1,1.56-.5c1.05-.29,2.09-.52,3.11-.71s2-.37,3-.51,1.84-.27,2.66-.37C144.77,194.32,147,194.16,147,194.16Z"/>
              </g>
              <path class="cls-4" d="M143.73,146.49l.59,0c.38,0,1,.07,1.66.14,1.43.13,3.47.3,5.91.58,1.22.13,2.54.28,3.94.46s2.86.38,4.36.61,3.07.48,4.64.78,3.16.63,4.71,1.06a16.06,16.06,0,0,1,2.27.8,3.83,3.83,0,0,1,1,.64,1,1,0,0,1,.31.51.61.61,0,0,1,0,.3,1,1,0,0,1-.14.27l-.1.12-.12.1a1.44,1.44,0,0,1-.25.18l-.24.15-.23.13a9.36,9.36,0,0,0-.84.53,1.67,1.67,0,0,0-.57.55c0,.08,0,.12,0,.17a.69.69,0,0,0,.27.18,5.43,5.43,0,0,0,1,.3l1,.23,2.09.39c1.37.25,2.66.5,3.84.75,2.37.5,4.3,1,5.64,1.37.67.18,1.18.34,1.54.44l.54.17-.56-.13-1.58-.37c-1.37-.31-3.34-.71-5.72-1.14-1.19-.21-2.49-.42-3.86-.64l-2.12-.35-1.11-.22a6.36,6.36,0,0,1-1.13-.35,1.41,1.41,0,0,1-.55-.37.67.67,0,0,1-.13-.3.56.56,0,0,1,.05-.29,2.41,2.41,0,0,1,.74-.78c.29-.21.59-.4.9-.59l.23-.13.21-.13a1.25,1.25,0,0,0,.17-.12l.07-.06,0-.06s0-.08.07-.11v-.06s0,0,0-.05-.08-.16-.16-.25a3.06,3.06,0,0,0-.79-.48,15,15,0,0,0-2.12-.73c-1.49-.42-3.05-.76-4.59-1.06s-3.09-.58-4.59-.83l-4.32-.68-3.89-.57-5.85-.81Z"/>
              <path class="cls-4" d="M107.67,134.23l1.2,0c.76,0,1.85.09,3.15.23.65.07,1.36.15,2.09.29q.56.09,1.14.24c.19.05.39.11.58.18a2.47,2.47,0,0,1,.58.3,1,1,0,0,1,.25.25.46.46,0,0,1,0,.36,1,1,0,0,1-.46.51,5.37,5.37,0,0,1-1.19.5l-1.19.35a6.53,6.53,0,0,0-1.06.39.85.85,0,0,0-.17.1s0,0,0,0,0-.06,0,0l.18.08a9.33,9.33,0,0,0,1.13.28l2.41.47a40.66,40.66,0,0,1,4.23,1,21.87,21.87,0,0,1,2.8,1c.32.14.56.27.73.35l.25.13-.28-.1-.79-.27c-.68-.23-1.67-.52-2.89-.81l-2-.42c-.71-.14-1.47-.26-2.26-.4s-1.61-.25-2.45-.42a8.37,8.37,0,0,1-1.29-.32,2.3,2.3,0,0,1-.37-.16.67.67,0,0,1-.18-.16.39.39,0,0,1-.12-.25.7.7,0,0,1,0-.14.6.6,0,0,1,.06-.11l.15-.15a2.36,2.36,0,0,1,.32-.2,9.1,9.1,0,0,1,1.23-.44c.41-.13.83-.23,1.19-.34a4.86,4.86,0,0,0,1-.39.48.48,0,0,0,.22-.19s0,0,0,0l-.08-.09a3.23,3.23,0,0,0-.87-.38c-.34-.1-.69-.19-1-.27-.69-.15-1.37-.27-2-.38-1.26-.21-2.33-.35-3.07-.45Z"/>
              <g class="cls-18">
                <path class="cls-4" d="M156.92,229.71s-1.7.17-4.67.55c-1.48.2-3.28.45-5.31.82-1,.18-2.08.4-3.17.68-.55.14-1.1.3-1.63.49a7.37,7.37,0,0,0-.75.33,1.46,1.46,0,0,0-.52.44c-.2.3.27.63.8.86a10.86,10.86,0,0,0,1.8.58c1.29.32,2.68.57,4.12.79s2.94.46,4.45.76c.38.07.76.16,1.14.25a9.85,9.85,0,0,1,1.14.34l.29.13a1,1,0,0,1,.3.22.34.34,0,0,1,0,.46,1.14,1.14,0,0,1-.36.23,5.84,5.84,0,0,1-1.27.28c-1.64.21-3.29.28-5,.36s-3.35.1-5.06.14c-3.4.06-6.85.1-10.3.14s-6.91,0-10.31.07-6.72.17-9.92.4c-1.6.12-3.17.28-4.68.48-.75.1-1.5.22-2.2.37a6.12,6.12,0,0,0-1.87.62c-.1.07-.19.14-.2.21a.2.2,0,0,0,0,.21,1.94,1.94,0,0,0,.67.43,13.34,13.34,0,0,0,1.85.6c1.29.33,2.59.57,3.84.79s2.46.39,3.61.56,2.25.31,3.28.44c2.07.26,3.88.47,5.37.63l4.7.49-1.24-.09-3.48-.28c-1.5-.14-3.32-.3-5.4-.52s-4.43-.49-7-.89c-1.27-.21-2.58-.44-3.92-.76a14.73,14.73,0,0,1-2-.62l-.24-.11-.23-.13c-.08,0-.15-.1-.23-.15a1.19,1.19,0,0,1-.2-.19.53.53,0,0,1-.12-.51,1,1,0,0,1,.37-.43,7,7,0,0,1,2.12-.75c.74-.17,1.5-.3,2.27-.41,1.54-.23,3.13-.38,4.74-.51,3.24-.26,6.59-.39,10-.45s6.85-.08,10.3-.12,6.91,0,10.3-.09c1.7,0,3.38-.06,5-.12s3.3-.13,4.84-.33a5.62,5.62,0,0,0,1-.21s0,0,.07,0h0s0,0,0,0,0,0,0,0l-.11-.07a.93.93,0,0,0-.2-.1,8.94,8.94,0,0,0-1-.31l-1.09-.25c-1.47-.32-2.94-.56-4.39-.8s-2.84-.52-4.17-.86a12.34,12.34,0,0,1-1.89-.64,3,3,0,0,1-.8-.51l-.09-.08-.06-.09a.52.52,0,0,1-.09-.2.81.81,0,0,1,0-.22.56.56,0,0,1,.08-.2,1.8,1.8,0,0,1,.69-.56,5.08,5.08,0,0,1,.83-.36,15.52,15.52,0,0,1,1.7-.49c1.13-.26,2.22-.46,3.24-.62,2.06-.33,3.87-.55,5.36-.71s2.67-.27,3.47-.34Z"/>
                <path class="cls-4" d="M173.75,230.87s-2.32.17-6.36.56c-2,.2-4.47.45-7.25.84-1.39.2-2.86.42-4.36.77-.37.09-.74.18-1.1.3a3.21,3.21,0,0,0-1,.42c-.12.09-.17.18-.14.25a.74.74,0,0,0,.29.25,5.27,5.27,0,0,0,1.08.39,47.7,47.7,0,0,0,5.25.9c1.85.27,3.75.57,5.7.93,1,.19,2,.39,2.93.63.49.13,1,.26,1.46.42q.36.12.72.27a3.29,3.29,0,0,1,.69.37,1,1,0,0,1,.3.29.42.42,0,0,1,.05.42.66.66,0,0,1-.3.34l-.18.12-.2.09a8.11,8.11,0,0,1-1.59.42c-1.07.2-2.15.31-3.25.41-4.37.36-8.91.43-13.5.48s-9.26.1-13.92.2c-2.33.05-4.66.1-7,.25-.57,0-1.14.09-1.68.16a3.83,3.83,0,0,0-.72.14l-.06,0a.11.11,0,0,0,0,0,.2.2,0,0,0,0-.11s0,0,0,0l.12.06a5.2,5.2,0,0,0,.72.21l.8.17c.54.1,1.1.2,1.65.28,2.23.35,4.47.62,6.68.88l3.31.39c1.1.13,2.19.28,3.26.46a32.15,32.15,0,0,1,3.16.66,9.85,9.85,0,0,1,1.5.52,3.11,3.11,0,0,1,.68.4.79.79,0,0,1,.34.68,1,1,0,0,1-.45.61,3.06,3.06,0,0,1-.69.37,10.79,10.79,0,0,1-1.46.47c-1,.26-2,.44-3,.6-2,.31-3.91.51-5.79.68s-3.69.29-5.44.39c-3.49.21-6.7.3-9.55.35s-5.32.07-7.36.07-3.65,0-4.74,0l-1.68,0h1.68l4.73,0c2,0,4.52-.08,7.36-.18s6-.23,9.52-.46c1.73-.12,3.54-.26,5.4-.44s3.78-.4,5.71-.73c1-.16,1.94-.35,2.87-.6a10.36,10.36,0,0,0,1.33-.44,3,3,0,0,0,.54-.3c.14-.1.24-.22.24-.31s0-.2-.18-.31a2.54,2.54,0,0,0-.52-.3,9.85,9.85,0,0,0-1.36-.47c-1-.25-2-.45-3.06-.62s-2.13-.32-3.22-.45l-3.31-.37c-2.22-.26-4.47-.53-6.72-.87-.57-.09-1.13-.18-1.7-.29l-.85-.17a6.11,6.11,0,0,1-.87-.26,1.28,1.28,0,0,1-.24-.11.59.59,0,0,1-.27-.24.31.31,0,0,1,0-.25.46.46,0,0,1,.15-.18,1.11,1.11,0,0,1,.3-.14,6.11,6.11,0,0,1,.94-.2c.59-.08,1.18-.13,1.76-.17,2.34-.16,4.68-.21,7-.27,4.67-.09,9.34-.12,13.93-.16s9.11-.09,13.43-.44c1.07-.09,2.13-.2,3.14-.38s2.25-.51,1.59-.84A4.61,4.61,0,0,0,170,238c-.45-.16-.92-.29-1.39-.41-.94-.25-1.91-.46-2.86-.65-1.92-.38-3.81-.69-5.65-1a49,49,0,0,1-5.3-1,5.94,5.94,0,0,1-1.2-.45.92.92,0,0,1-.45-.44.77.77,0,0,1,0-.15.88.88,0,0,1,0-.15,1.47,1.47,0,0,1,.1-.13.58.58,0,0,1,.12-.1,2.16,2.16,0,0,1,.54-.29c.19-.08.38-.14.57-.2.38-.12.77-.21,1.16-.3,1.54-.33,3-.53,4.43-.71,2.8-.35,5.26-.57,7.29-.74s3.62-.27,4.71-.34Z"/>
              </g>
            </g>
            <g class="cls-18">
              <path class="cls-19" d="M243.37,154.15c-26.48-.37-78.86-.74-50.91,2.68,20.59,2.53,42.31,4.15,50.91,4.94Z"/>
              <path class="cls-19" d="M243.37,160.37c-5.21.24-15.11.21-22.66-.17-16.23-.81,19.43,2,21,9.4,1.81,8.38-29.45,7.76-14.42,10.62s24.64,1.64,3,4.09c-17.86,2-6.63,2.65,13.05,2.35Z"/>
              <path class="cls-19" d="M1.56,141.4c3.23-.2,7.34-.4,12.47-.61,35.64-1.46,18.84-2.71,6-2.63-5.79,0-13.81-.08-18.48-.41Z"/>
              <path class="cls-19" d="M1.56,136.27c1.82-.22,4.35-.47,7.75-.74,13.12-1,4.18-1.47-7.75-1.65Z"/>
              <path class="cls-19" d="M9.31,143.71c-2.73-.05-5.37-.12-7.75-.2v2.54a38,38,0,0,1,4.74-.3C19.61,145.46,26.49,144,9.31,143.71Z"/>
            </g>
            <g>
              <g>
                <path class="cls-20" d="M201.86,133c0,.26-4,.38-8.88.28s-8.85-.38-8.83-.64,4-.38,8.87-.28S201.87,132.72,201.86,133Z"/>
                <path class="cls-21" d="M179.62,132.37c0,.18-.54.31-1.2.3s-1.17-.17-1.16-.34.54-.31,1.19-.3S179.63,132.2,179.62,132.37Z"/>
                <path class="cls-21" d="M207.78,133.17a4.29,4.29,0,0,1-2,.21,4.25,4.25,0,0,1-2-.29,4.14,4.14,0,0,1,2-.21C206.91,132.9,207.79,133,207.78,133.17Z"/>
                <path class="cls-21" d="M214.46,134c0,.09-.52.16-1.16.15s-1.14-.1-1.14-.2.52-.17,1.16-.15S214.46,133.92,214.46,134Z"/>
                <path class="cls-21" d="M170.39,133.18c0,.14-.49.24-1.07.23s-1.06-.14-1-.27.48-.24,1.07-.23S170.39,133,170.39,133.18Z"/>
              </g>
              <g>
                <path class="cls-20" d="M181.74,139.79c0,.25-4,.38-8.88.28s-8.84-.39-8.83-.65,4-.38,8.87-.28S181.75,139.53,181.74,139.79Z"/>
                <path class="cls-22" d="M51.46,129.76c0,.16-8.9.67-21.69,1-23.3.69-24.62.31-24.63.15s10.35-.56,23.14-.89S51.45,129.6,51.46,129.76Z"/>
                <path class="cls-20" d="M195.49,136c0,.25-6,.39-13.41.3s-13.39-.36-13.38-.62,6-.39,13.4-.3S195.5,135.72,195.49,136Z"/>
                <path class="cls-20" d="M160.2,133.53c0,.22-3.29.32-7.34.24s-7.32-.33-7.31-.54,3.3-.31,7.34-.23S160.21,133.32,160.2,133.53Z"/>
                <path class="cls-21" d="M159.5,139.19c0,.17-.54.31-1.19.29s-1.17-.16-1.17-.34.55-.31,1.2-.3S159.51,139,159.5,139.19Z"/>
                <path class="cls-21" d="M218,148.15c0,.17-1,.3-2.23.27s-2.21-.19-2.2-.36,1-.3,2.23-.28S218.05,148,218,148.15Z"/>
                <path class="cls-21" d="M234.87,140.18c0,.18-1,.3-2.23.28s-2.21-.19-2.2-.37,1-.3,2.23-.28S234.87,140,234.87,140.18Z"/>
                <path class="cls-21" d="M187.66,140c0,.14-.89.23-2,.21s-2-.15-2-.29a4.14,4.14,0,0,1,2-.21C186.79,139.71,187.67,139.84,187.66,140Z"/>
                <path class="cls-21" d="M194.34,140.83c0,.1-.52.17-1.16.15s-1.14-.1-1.14-.2.53-.17,1.16-.15S194.34,140.73,194.34,140.83Z"/>
                <path class="cls-21" d="M150.27,140c0,.14-.49.24-1.07.23s-1-.13-1-.27.49-.24,1.07-.23S150.27,139.86,150.27,140Z"/>
                <path class="cls-21" d="M52.85,168.11c0,.14-.49.25-1.07.23s-1.05-.13-1.05-.27.49-.24,1.07-.22S52.85,168,52.85,168.11Z"/>
                <path class="cls-21" d="M98.37,200.29c0,.13-.48.24-1.07.22s-1-.13-1-.27.48-.23,1.07-.22S98.38,200.15,98.37,200.29Z"/>
                <path class="cls-21" d="M46.54,200.29c0,.13-.49.24-1.07.22s-1-.13-1-.27.49-.23,1.07-.22S46.54,200.15,46.54,200.29Z"/>
                <path class="cls-21" d="M31.5,215.83c0,.14-.49.24-1.07.23s-1.06-.13-1.05-.27.49-.24,1.07-.23S31.5,215.7,31.5,215.83Z"/>
                <path class="cls-21" d="M74.12,201.48c0,.26-1,.46-2.08.44s-2-.26-2-.53.94-.46,2.07-.44S74.13,201.21,74.12,201.48Z"/>
                <path class="cls-21" d="M240.24,199.37c0,.27-.94.47-2.08.44s-2-.25-2-.52.94-.47,2.08-.44S240.25,199.11,240.24,199.37Z"/>
                <path class="cls-21" d="M214.09,197.53c0,.27-.94.47-2.07.45s-2-.26-2-.53.94-.46,2.07-.44S214.11,197.27,214.09,197.53Z"/>
                <path class="cls-21" d="M22.08,216.23c0,.26-.94.46-2.07.44s-2.05-.26-2-.53,1-.46,2.08-.44S22.09,216,22.08,216.23Z"/>
                <path class="cls-21" d="M233.43,230.85c0,.13-.49.24-1.07.22s-1.06-.13-1.05-.27.49-.24,1.07-.22S233.43,230.71,233.43,230.85Z"/>
                <path class="cls-21" d="M224,231.24c0,.27-.94.46-2.07.44s-2.05-.26-2-.53.95-.46,2.08-.44S224,231,224,231.24Z"/>
              </g>
            </g>
            <g class="cls-23">
              <g>
                <path class="cls-24" d="M258.81,129.92l4.51-7.76-16.62-4.49v13.26h1.6C260.61,130.94,258.81,129.92,258.81,129.92Z"/>
                <g class="cls-25">
                  <path class="cls-26" d="M243.7,116.86l-3.8-1-97.3-4.5L2.07,118.93v8.88a51.81,51.81,0,0,1,7.4-.88c2.77,0,5.64-.05,8.37-.31,2.51-.24,5.16-.51,7.64-.79a27.77,27.77,0,0,1,7,.42,27.72,27.72,0,0,0,5.61.55c1.41-.11,2.13-.72,3.47-.7s2.48.6,3.74.7,2.78,0,4.09.1c2.48.07,5-.11,7.49-.11,5.15,0,9.58-.3,14.67-.14,2.37.08,4.41.64,6.81.68s4.61-.3,7-.4c5.77-.26,11.66.92,17.3.15,9.74-1.32,19.12-.14,28.91-.15,5.1,0,10.17-.51,15.25.25,3.35.51,3.2.84,8.2.15a48.68,48.68,0,0,1,6.45-.4c7.44,0,14.82.13,22.21.13,3.27,0,6.56.19,9.75.47,1.82.16,4.2.35,6.43.35,3.34,0,6.2.55,9.61.54,2.67,0,5.37-.09,8,0,2.84.1,5.65.55,8.55.55,3.09,0,6.17-.37,9.25-.28,1.59.05,3.14.88,8.21,1.37h.2Z"/>
                  <path class="cls-27" d="M246.7,117.67v12.15a12.15,12.15,0,0,1,2.2-.17c4.19,0,7.47-1,11.16-1.88l3.26-5.61Z"/>
                </g>
              </g>
            </g>
            <g>
              <g>
                <g>
                  <path class="cls-28" d="M244.13,119.57,119.24,106.64,11.09,109.9l-13.48,5v11.58c3.59,0,9.15-.27,17.46-1.1,10.76-1.08,10.42.41,41.67.61s27.93.21,51.47,0c23.28-.2,27.88.82,46.56.21s36.15,1.83,56.68,1.83c14.05,0,26.09.67,32.68.77Z"/>
                  <path class="cls-29" d="M209.31,128.22l-.12-.16a3.32,3.32,0,0,1-.27-.43q-.07-.13-.15-.3a1.62,1.62,0,0,1-.13-.33l-.12-.36c0-.13-.05-.26-.08-.39s0-.25-.07-.38,0-.25,0-.37v-.35a1.55,1.55,0,0,1,0-.31c.05-.38.1-.64.1-.64s0,.26,0,.64a1.6,1.6,0,0,0,0,.31c0,.11,0,.23,0,.35l0,.36c0,.13,0,.25.07.38s0,.26.07.38.07.24.11.36a3.38,3.38,0,0,0,.11.34l.12.29c.09.19.15.34.21.44Z"/>
                  <path class="cls-29" d="M192.23,126.72l.08-.17c.05-.1.11-.26.18-.44a2.11,2.11,0,0,0,.1-.3,1.91,1.91,0,0,0,.1-.34q0-.16.09-.36a2.38,2.38,0,0,0,.06-.37c0-.13,0-.26.07-.38s0-.25,0-.37,0-.23,0-.34a1.6,1.6,0,0,0,0-.31c0-.38,0-.64,0-.64s.05.26.1.64c0,.1,0,.2,0,.31s0,.23,0,.35,0,.24,0,.37,0,.25-.05.38,0,.25-.08.38-.07.24-.1.36a2,2,0,0,1-.12.34l-.12.3-.24.43Z"/>
                  <path class="cls-29" d="M190.66,126.73l.12-.16c.08-.1.16-.25.28-.42l.17-.29a3.24,3.24,0,0,0,.17-.32l.17-.35c.06-.12.09-.24.14-.36l.15-.37c0-.12.07-.24.1-.36s.07-.23.1-.34a1.84,1.84,0,0,0,.07-.3c.07-.38.13-.63.13-.63s0,.25,0,.63a1.76,1.76,0,0,1,0,.31c0,.11,0,.23-.08.35s-.06.24-.09.36-.09.25-.14.37-.09.25-.15.37l-.19.35a2.07,2.07,0,0,1-.19.32l-.19.29a4.24,4.24,0,0,1-.34.4A1.13,1.13,0,0,1,190.66,126.73Z"/>
                  <path class="cls-29" d="M171.75,125.85a1.37,1.37,0,0,0,0-.17c0-.11,0-.27.06-.46s0-.2,0-.31,0-.23,0-.34,0-.25,0-.37,0-.25,0-.38,0-.25,0-.38-.06-.24-.08-.36-.05-.23-.07-.34-.07-.21-.09-.3c-.12-.37-.19-.63-.19-.63l.27.62a2.09,2.09,0,0,1,.11.3c0,.11.07.22.1.34l.09.36c0,.13,0,.26.05.38s0,.26,0,.39v.37a1.87,1.87,0,0,1,0,.34,2.61,2.61,0,0,1,0,.31,4,4,0,0,1-.11.46A1.78,1.78,0,0,1,171.75,125.85Z"/>
                  <path class="cls-29" d="M173.39,125.78l0-.17a3.49,3.49,0,0,0,.06-.46c0-.1,0-.2,0-.31s0-.22,0-.34,0-.24,0-.37a2.65,2.65,0,0,0-.05-.38c0-.12,0-.25,0-.37s-.05-.25-.08-.37,0-.23-.07-.34a2.13,2.13,0,0,0-.09-.3c-.12-.37-.19-.62-.19-.62s.12.24.27.61a2.08,2.08,0,0,1,.12.3l.09.34.09.37.06.38c0,.13,0,.25,0,.38v.37a1.88,1.88,0,0,1,0,.34c0,.11,0,.22,0,.31a3.68,3.68,0,0,1-.12.46A1,1,0,0,1,173.39,125.78Z"/>
                  <path class="cls-29" d="M161.38,125.85a1.63,1.63,0,0,1-.09-.16c0-.11-.1-.27-.17-.45s0-.2-.07-.31a1.86,1.86,0,0,1-.07-.34c0-.12,0-.25,0-.37s0-.26,0-.39,0-.25,0-.38,0-.25.05-.37,0-.23,0-.34.06-.21.08-.31c.11-.37.2-.62.2-.62s0,.25-.11.63a2.84,2.84,0,0,0-.06.31l0,.34c0,.12,0,.24,0,.37s0,.25,0,.37a2.41,2.41,0,0,0,0,.38l0,.37a1.86,1.86,0,0,0,0,.34c0,.11,0,.21.05.31s.07.34.11.45A1,1,0,0,0,161.38,125.85Z"/>
                  <path class="cls-29" d="M149.23,125.25s0-.06,0-.17,0-.27.05-.46,0-.41,0-.65v-.36c0-.12,0-.25,0-.38s0-.25,0-.37,0-.25,0-.36l0-.35c0-.1,0-.21-.05-.3-.07-.38-.1-.63-.1-.63s.08.25.18.62a2.81,2.81,0,0,1,.08.31c0,.1,0,.22.05.34l.06.36,0,.38c0,.13,0,.25,0,.38s0,.25,0,.37,0,.23,0,.34,0,.21,0,.31-.08.34-.11.45Z"/>
                  <path class="cls-29" d="M148.41,124.57l0-.17c0-.11,0-.27,0-.46s0-.41,0-.65v-.36c0-.13,0-.25,0-.38s0-.25,0-.37,0-.25,0-.37,0-.23,0-.34a2.34,2.34,0,0,0,0-.3c-.06-.38-.09-.63-.09-.63s.08.25.18.62c0,.1,0,.2.07.3l.06.35c0,.11,0,.24.05.36l0,.38c0,.13,0,.25,0,.38s0,.25,0,.36,0,.24,0,.35,0,.21,0,.3-.07.35-.1.46A1,1,0,0,1,148.41,124.57Z"/>
                  <path class="cls-29" d="M73.35,125.26l0-.17c0-.11,0-.27.07-.46s0-.41,0-.65,0-.24,0-.36,0-.25,0-.38v-.37c0-.13,0-.25,0-.37s0-.23,0-.34,0-.21,0-.3c-.05-.38-.07-.63-.07-.63s.07.25.16.62c0,.1,0,.2.06.31s0,.22,0,.34,0,.24,0,.36,0,.26,0,.38,0,.26,0,.38l0,.37a1.86,1.86,0,0,1,0,.34l-.06.31a4,4,0,0,1-.12.45A1,1,0,0,1,73.35,125.26Z"/>
                  <path class="cls-29" d="M72.56,124.56a.83.83,0,0,0,0-.17c0-.11,0-.27.07-.46a6,6,0,0,0,0-.64c0-.12,0-.24,0-.37s0-.25,0-.37v-.38l0-.36c0-.12,0-.23,0-.34a1.55,1.55,0,0,0,0-.31c0-.38-.06-.63-.06-.63s.07.25.15.63a2.27,2.27,0,0,1,.06.3c0,.11,0,.22,0,.34l0,.37c0,.12,0,.25,0,.38v.38l0,.36a3.07,3.07,0,0,1,0,.34c0,.11,0,.21,0,.31s-.09.34-.13.45A1,1,0,0,1,72.56,124.56Z"/>
                  <path class="cls-29" d="M11.13,124.84a1,1,0,0,1-.06-.17,4.66,4.66,0,0,1-.13-.45c0-.09,0-.19,0-.3s0-.23-.05-.34,0-.25,0-.37,0-.25,0-.38,0-.25,0-.38,0-.25,0-.36,0-.24,0-.35a2.27,2.27,0,0,1,.06-.3l.15-.63s0,.26-.06.63c0,.1,0,.2,0,.31s0,.22,0,.34l0,.36v.38c0,.13,0,.25,0,.38s0,.24,0,.36a5.94,5.94,0,0,0,0,.65c0,.18,0,.34.07.45Z"/>
                  <path class="cls-29" d="M11.92,124.15a1.78,1.78,0,0,1-.07-.17c0-.11-.08-.27-.12-.45s0-.2-.05-.31a1.86,1.86,0,0,1,0-.34l0-.37c0-.12,0-.25,0-.38s0-.25,0-.37,0-.25,0-.37,0-.23,0-.34a2.84,2.84,0,0,1,.06-.31c.08-.37.15-.62.15-.62s0,.25-.07.63a2.53,2.53,0,0,0,0,.3c0,.11,0,.23,0,.34l0,.37v.37c0,.13,0,.26,0,.38s0,.25,0,.36,0,.46.05.65,0,.35.07.46S11.92,124.15,11.92,124.15Z"/>
                  <path class="cls-29" d="M135.75,125.18l-.05-.17a4,4,0,0,1-.1-.45,2.91,2.91,0,0,1,0-.31,1.87,1.87,0,0,1,0-.34c0-.12,0-.24,0-.37s0-.25,0-.38,0-.25,0-.38l.06-.36c0-.12,0-.23,0-.34s.06-.21.08-.31c.1-.37.18-.62.18-.62s0,.26-.1.63c0,.1,0,.2,0,.31s0,.22,0,.34,0,.24,0,.36,0,.25,0,.38,0,.25,0,.37v.36c0,.24,0,.46,0,.65s0,.35,0,.46S135.75,125.18,135.75,125.18Z"/>
                  <path class="cls-29" d="M136.67,125l0-.17a4.28,4.28,0,0,1-.1-.46c0-.09,0-.2-.05-.3s0-.23,0-.35,0-.24,0-.36,0-.26,0-.38l0-.38.06-.37c0-.12,0-.23.05-.34a2.63,2.63,0,0,1,.08-.3c.1-.37.18-.62.18-.62s0,.25-.1.63c0,.09,0,.19-.05.3l0,.34c0,.12,0,.24,0,.37s0,.24,0,.37,0,.25,0,.38v.36c0,.24,0,.46,0,.65s0,.35.05.45S136.67,125,136.67,125Z"/>
                  <path class="cls-29" d="M125.57,124.94s0-.06.07-.17.09-.26.17-.44.14-.4.2-.64.06-.23.1-.35,0-.25.08-.38,0-.25.08-.37l.06-.36c0-.12,0-.23,0-.34a1.77,1.77,0,0,0,0-.3c0-.38.08-.64.08-.64s0,.26,0,.64c0,.09,0,.2,0,.3s0,.23,0,.35,0,.24,0,.36,0,.25-.07.38l-.09.37c0,.12-.08.25-.12.36a2,2,0,0,1-.12.34l-.12.29c-.09.18-.16.33-.23.44A1.63,1.63,0,0,1,125.57,124.94Z"/>
                  <path class="cls-29" d="M124.31,124.63l.07-.17c.05-.11.1-.26.17-.45s.14-.39.2-.63.06-.23.1-.36.05-.25.08-.37l.09-.37c0-.12,0-.25,0-.36l.06-.34c0-.11,0-.21,0-.31,0-.37.08-.63.08-.63s0,.26,0,.64c0,.09,0,.19,0,.3s0,.23,0,.34,0,.24,0,.37,0,.25-.08.38,0,.25-.09.37-.08.24-.11.36a2.53,2.53,0,0,1-.12.33l-.13.3a4.11,4.11,0,0,1-.22.43Z"/>
                  <path class="cls-29" d="M111.89,124.62a1.11,1.11,0,0,1,0-.18A2.93,2.93,0,0,1,112,124l.09-.3a2.79,2.79,0,0,1,.12-.34l.15-.35c0-.12.11-.24.17-.36s.12-.24.19-.36l.2-.34c.07-.11.14-.21.2-.32a3.17,3.17,0,0,1,.21-.27c.25-.34.44-.56.44-.56s-.14.23-.37.58c-.05.09-.12.18-.17.28l-.18.32-.2.34-.18.36-.18.36-.15.35c-.11.22-.18.44-.26.62s-.12.34-.14.45A.82.82,0,0,0,111.89,124.62Z"/>
                  <path class="cls-29" d="M69.3,125.12a.7.7,0,0,1-.06-.16c0-.11-.07-.27-.12-.46s0-.19-.05-.3,0-.23,0-.34,0-.25,0-.37,0-.25,0-.38,0-.25,0-.38,0-.25,0-.36,0-.24,0-.35,0-.21.07-.3c.09-.38.16-.63.16-.63s0,.26-.07.64a1.36,1.36,0,0,0,0,.3l0,.34,0,.36c0,.13,0,.25,0,.38s0,.25,0,.38l0,.36c0,.24,0,.46,0,.65s0,.34.06.45Z"/>
                  <path class="cls-29" d="M106.11,124.72a1,1,0,0,1-.06-.17,4.28,4.28,0,0,1-.1-.46,2.72,2.72,0,0,1,0-.3,2,2,0,0,1,0-.35c0-.12,0-.24,0-.36s0-.26,0-.38,0-.26,0-.38L106,122c0-.12,0-.23.05-.34s.06-.21.08-.3c.1-.37.18-.62.18-.62s0,.25-.1.63c0,.09,0,.19,0,.3l0,.34c0,.12,0,.24,0,.36s0,.26,0,.38,0,.25,0,.38v.36c0,.24,0,.46,0,.65s0,.34,0,.45Z"/>
                  <path class="cls-29" d="M105,124.51l0-.17a3.71,3.71,0,0,1-.11-.45c0-.1,0-.2,0-.31s0-.22,0-.34,0-.24,0-.37,0-.25,0-.38l0-.38c0-.12,0-.24,0-.36l.06-.34c0-.11,0-.21.07-.3.1-.38.18-.63.18-.63s0,.26-.09.63a2.87,2.87,0,0,0,0,.31c0,.1,0,.22,0,.34s0,.24,0,.36,0,.25,0,.38,0,.25,0,.37,0,.25,0,.37,0,.45,0,.64,0,.35,0,.46S105,124.51,105,124.51Z"/>
                  <path class="cls-29" d="M51.82,125s0-.06,0-.17,0-.27,0-.46,0-.41,0-.64,0-.24,0-.37,0-.25,0-.37,0-.25,0-.38,0-.24,0-.36,0-.23,0-.34a2.87,2.87,0,0,0,0-.31c-.06-.37-.09-.63-.09-.63s.08.25.18.63c0,.09,0,.19.07.3l.06.34c0,.12,0,.24.05.36l0,.38c0,.13,0,.26,0,.38s0,.25,0,.37,0,.23,0,.34,0,.21,0,.31-.08.34-.11.45Z"/>
                  <path class="cls-29" d="M17.71,124.55s0-.07,0-.18a3.82,3.82,0,0,0,.05-.45c0-.19,0-.41,0-.65v-.36c0-.13,0-.25,0-.38s0-.25,0-.38,0-.24,0-.36,0-.23,0-.34a2.34,2.34,0,0,0-.05-.3c-.06-.38-.09-.63-.09-.63s.08.24.18.62a2.21,2.21,0,0,1,.07.3l.06.34c0,.12,0,.24.05.37l0,.38c0,.12,0,.25,0,.38s0,.24,0,.36a2,2,0,0,1,0,.35c0,.1,0,.21,0,.3a4,4,0,0,1-.11.46Z"/>
                  <path class="cls-29" d="M52.94,124.82s0-.07,0-.17,0-.27,0-.46,0-.41,0-.65v-.36c0-.13,0-.25,0-.38s0-.25,0-.37,0-.25,0-.37,0-.23,0-.34a1.34,1.34,0,0,0-.05-.3c-.06-.38-.09-.63-.09-.63s.08.25.18.62c0,.1.06.2.08.3s0,.23.05.35,0,.24,0,.36l0,.38c0,.13,0,.25,0,.38s0,.25,0,.36a2,2,0,0,1,0,.35c0,.11,0,.21,0,.3a4,4,0,0,1-.11.46A.69.69,0,0,1,52.94,124.82Z"/>
                  <path class="cls-29" d="M37.24,125.18a1.16,1.16,0,0,1-.08-.19c0-.12-.1-.3-.16-.51s0-.22-.08-.34-.05-.25-.06-.38,0-.28,0-.42,0-.28,0-.42,0-.29,0-.43,0-.28,0-.41,0-.26,0-.39a3.4,3.4,0,0,1,.07-.34c.1-.42.18-.7.18-.7s0,.28-.09.71a3.07,3.07,0,0,0,0,.34c0,.12,0,.25,0,.38l0,.41c0,.14,0,.28,0,.43s0,.28,0,.42l0,.41c0,.13,0,.26,0,.38s0,.24,0,.34.07.39.11.51S37.24,125.18,37.24,125.18Z"/>
                  <path class="cls-29" d="M35.75,124.91l-.08-.19c-.05-.12-.1-.3-.16-.51s0-.22-.07-.34a2.32,2.32,0,0,1-.07-.38c0-.14,0-.27,0-.42s0-.28,0-.42v-.43c0-.14,0-.28,0-.41s0-.26,0-.38.05-.24.07-.35c.1-.42.18-.7.18-.7s0,.29-.09.71c0,.11,0,.22,0,.34s0,.25,0,.39l0,.41c0,.14,0,.28,0,.42s0,.28,0,.42,0,.28,0,.41a2.33,2.33,0,0,0,0,.38,2.75,2.75,0,0,0,.05.34c0,.22.06.39.1.52Z"/>
                  <path class="cls-29" d="M22.88,125l-.08-.18c0-.13-.1-.3-.16-.51s0-.22-.07-.34a2.28,2.28,0,0,1-.06-.39c0-.13,0-.27-.05-.41s0-.28,0-.42v-.43c0-.14,0-.28,0-.41s0-.27.05-.39a3.4,3.4,0,0,1,.07-.34l.17-.7s0,.28-.09.71a3.18,3.18,0,0,0,0,.34c0,.12,0,.25,0,.38l0,.41v.42a3.05,3.05,0,0,0,0,.43l0,.41c0,.13,0,.26,0,.38s0,.24.05.34.07.39.1.51Z"/>
                  <path class="cls-29" d="M21.61,124.64a.91.91,0,0,1-.05-.2,3.67,3.67,0,0,1-.08-.51c0-.11,0-.22,0-.35a1.61,1.61,0,0,1,0-.38c0-.14,0-.28,0-.42s0-.28.05-.42,0-.29.07-.42.08-.28.11-.41.07-.26.1-.38.09-.23.13-.34c.16-.41.28-.68.28-.68s-.07.28-.2.7c0,.1-.07.21-.1.33s-.05.25-.08.38l-.09.41c0,.14,0,.28-.07.42s-.05.28-.06.42l0,.41c0,.13,0,.26,0,.38s0,.24,0,.35,0,.39,0,.51A.91.91,0,0,0,21.61,124.64Z"/>
                  <path class="cls-29" d="M88,125.13,88,125c0-.11,0-.26-.08-.45l0-.31a1.9,1.9,0,0,1,0-.34v-.37c0-.13,0-.25,0-.38s0-.25,0-.38,0-.24.07-.36,0-.23.07-.34.06-.21.09-.3c.12-.37.21-.62.21-.62s0,.25-.12.63c0,.09-.05.19-.07.3s0,.22,0,.34l-.06.36,0,.38c0,.12,0,.25,0,.37s0,.25,0,.37,0,.45,0,.64,0,.35,0,.46S88,125.13,88,125.13Z"/>
                  <path class="cls-29" d="M86.93,124.91l-.05-.17c0-.11-.06-.27-.09-.46s0-.2,0-.31,0-.22,0-.34,0-.24,0-.37,0-.25,0-.38,0-.25,0-.37,0-.25.07-.37,0-.23.07-.34.06-.2.09-.3c.11-.37.2-.62.2-.62s0,.26-.12.63a2.65,2.65,0,0,0-.06.3c0,.11,0,.23,0,.34l-.06.37,0,.37c0,.13,0,.25,0,.38v.36c0,.24,0,.46,0,.65s0,.34,0,.45S86.93,124.91,86.93,124.91Z"/>
                  <path class="cls-29" d="M188.17,126.11s0-.23,0-.56c0-.17,0-.37,0-.58s0-.44,0-.67l0-.66c0-.21,0-.41,0-.58,0-.33.06-.56.06-.56s0,.23,0,.56c0,.17,0,.37,0,.58v.66c0,.23,0,.46,0,.67s0,.41,0,.58C188.2,125.88,188.17,126.11,188.17,126.11Z"/>
                  <g class="cls-25">
                    <path class="cls-30" d="M244.13,119.57,119.24,106.64,11.09,109.9l-13.48,5v11.58c1,0,2.18,0,3.52-.08.55-1.52,1.44-3.11,2.76-3.37,2.6-.51,2,2.86,2.45,1s3.52-3.27,3.83,0c.06.64.09,1.23.12,1.77l3.26-.29c0-.18,0-.37,0-.56,0-2.87,3.16-4.21,3.08.26l2.1-.15,0-.32c.14-2.62,2.09-2.65,1.88.25,1.17,0,2.29,0,3.48,0,.15-3.7,3.85-3.26,4.44-1.59s.46,1.53,1.23,0a1.79,1.79,0,0,1,3.37.51c0,.43.07,1,.16,1.5,1.48.07,3.15.14,5,.2a4.94,4.94,0,0,1-.15-1.6c.27-2,2.91-1.84,5.21-.51s1.84.41.15-1,1.23-.61,2.45.71,1.54,1.23,2.46-.51,3.06-.41,2.29,3.07c0,0,0,.09,0,.14l2.68,0a3.61,3.61,0,0,0,.26-1.5c-.16-3.07,2.6-3.07,5.36-1.23s2.14,1.64,2.91,0,3.06-1.12,3.67.31,1.06,1.22,1.07-.21,1.81-2.43,1.84,2.74l6.63,0c.37-3.32,1.7-5,3.18-2.88s.92,1,.61-.41.31-.4,2.45.72,2,1,1.22-.1,2.76-1,2.92,1.32c0,.5,0,1,0,1.38h4.17c0-.15,0-.3-.07-.46-.61-3.37,2-3.67,4.14-2.24s1.84.41.61-.62.31-.71,1.38.31.92.61,1.38-.41.3,1.84,1.68.72,1.69-2.35,2.3-.62.31,1.43,1.23,0,1.07-.41,1.37,3.21l3.36,0c0-.1,0-.21,0-.32,0-3.06.77-5,1.84-3.16s1.07,1.53.92-.31,1.69.1,1.23,1.84a15.68,15.68,0,0,0-.43,1.92h2a13.15,13.15,0,0,1,.6-1.82c1.07-2.55,3.37-2.65,4-1.63s-.31,2.76.61,1,2-1.63,2-.1.61.71.76-.41,3.07.92,2.61-.31,2-.51,0,2.76c-.12.2-.22.38-.3.55l4.12.07c.9-1.54,1.28-4.47,2.31-3.28,1.22,1.43,1.37,1.54,1.22.21s.61,0,2.3.41c1.53.37,1.67,1.42,1.45,2.83,1.89.05,3.76.08,5.7.1a5,5,0,0,1-.26-2.93c.31-1.33,1.84-1.84,3.68-.62s2,1.64,1.22.11,3.19-.74,2.78,3.44l3.24-.06a4.6,4.6,0,0,0,.11-.83c.15-3.57,1.53-3.27,1.69-2s.91.41,2.91-.41.15,1.33,2.6.61c1.92-.56,1.49.88,1.73,2.46,1.3,0,2.61,0,3.91,0-.54-3.18.64-3.27.8-2.57s1.53-.31,3.36-1,1.84.3,2.15,2c.08.46.19,1.07.36,1.72,9.95.36,19.9,1.18,30.53,1.55,2-2.82,3.77-3.38,5.78.16,1.59,0,3.21,0,4.84,0-.39-3.7,3.06-1.63,8-1.83,3.09-.13,3.62.71,3.75,2,8.9.21,16.29.56,21,.63Z"/>
                  </g>
                  <g class="cls-25">
                    <path class="cls-31" d="M13.69,115.62s-8.36.25-16.08.52v10.39l2,0A7.27,7.27,0,0,1,1.13,123c1.84-1.94,4.6-1.43,4.75-.72s.92,0,2.3-.71,2.14-.62,2.3,1.53a8.48,8.48,0,0,0,.67,2.72l1-.09a2.36,2.36,0,0,0,0-.28c.31-2.56.16-3.07,2-4.19s3.37-.2,3.53,1.12,1.22,0,1.22-1.43S13.69,115.62,13.69,115.62Z"/>
                  </g>
                  <path class="cls-32" d="M73.43,123.38c-.61-5.92-1.07-1-1.53.21s-.92,1.53-1.84,1.33-1.07-3.17-1.22-1.64a8.5,8.5,0,0,0,.45,2.84l4,0A11.09,11.09,0,0,0,73.43,123.38Z"/>
                  <g class="cls-33">
                    <path class="cls-34" d="M244.13,119.57l-52.35-5.42c-.45,6.08-1.37,12-2.08,12.1-1.38.1-1.07-4.09-1.84-1.33s-2.3,1.84-4.75.81-5.51.31-7.5-.2-2.3-2.66-2.3-1a6.24,6.24,0,0,1-.35,1.93c12.32.54,24.71,1.64,38.49,1.64,14.05,0,26.09.67,32.68.77Z"/>
                  </g>
                </g>
                <path class="cls-29" d="M226.55,127.89l-.07-.15a2.13,2.13,0,0,1-.15-.4q0-.12-.06-.27a1.57,1.57,0,0,1-.05-.3l0-.33c0-.11,0-.22,0-.34l0-.34.06-.32c0-.1.05-.2.07-.3a1.69,1.69,0,0,1,.1-.27l.22-.54s-.05.22-.14.55a2.13,2.13,0,0,0-.07.27c0,.1,0,.2,0,.3l-.06.32c0,.11,0,.23,0,.34s0,.22,0,.33,0,.22,0,.32a2.77,2.77,0,0,0,0,.3q0,.15,0,.27a2.87,2.87,0,0,0,.1.4A1.47,1.47,0,0,0,226.55,127.89Z"/>
                <path class="cls-29" d="M227.48,128.08s0-.22,0-.56c0-.17,0-.37,0-.58s0-.44,0-.66,0-.45,0-.66,0-.41,0-.58a5.6,5.6,0,0,1,.06-.57s0,.23,0,.57c0,.17,0,.37,0,.58s0,.43,0,.66l0,.66c0,.21,0,.41,0,.58A5.15,5.15,0,0,1,227.48,128.08Z"/>
                <path class="cls-29" d="M233.44,127.74s0-.22,0-.56c0-.17,0-.37,0-.58v-.66c0-.23,0-.45,0-.66s0-.41,0-.58c0-.34,0-.57,0-.57s0,.23,0,.57c0,.17,0,.37,0,.58s0,.43,0,.66,0,.45,0,.66,0,.41,0,.58Z"/>
              </g>
              <g>
                <path class="cls-35" d="M115.44,123.22a16.45,16.45,0,0,0-1.43,2.45c-.16.32,1.5.37,1.63.12a5.74,5.74,0,0,0,.65-2.51c0-.33-.68-.3-.85-.06Z"/>
                <g class="cls-18">
                  <path class="cls-36" d="M63.36,123.32a16.45,16.45,0,0,0-1.43,2.45c-.16.32,3.11.42,3.23.17.42-.84,0-1.64-1-2.56-.29-.27-.68-.3-.85-.06Z"/>
                </g>
                <path class="cls-37" d="M109,123.13a14.17,14.17,0,0,1,.69,2.59c.07.34-1.57.17-1.63-.09a5.62,5.62,0,0,1,.08-2.54c.12-.33.75-.21.86,0Z"/>
                <path class="cls-38" d="M93.32,124.12a4.42,4.42,0,0,1,1.61,1.51c.07.34-3.77.53-3.82.27-.09-.47-.52-2.15.12-2.51C91.61,123.17,92.51,123.58,93.32,124.12Z"/>
                <g class="cls-39">
                  <path class="cls-40" d="M57.48,123.91c.81.54,1.55,1.21,1.61,1.52s-3.77.53-3.82.27c-.09-.47-.53-2.15.12-2.52C55.77,123,56.66,123.38,57.48,123.91Z"/>
                </g>
                <g class="cls-39">
                  <path class="cls-41" d="M42,123.85c.72.48,1.38,1.07,1.43,1.34s-3.34.47-3.39.24c-.08-.42-.46-1.91.11-2.23C40.49,123,41.28,123.37,42,123.85Z"/>
                </g>
                <path class="cls-42" d="M143.77,124.25c.81.54,1.55,1.21,1.61,1.52s-3.77.53-3.82.27c-.09-.47-.52-2.15.12-2.52C142.06,123.31,143,123.72,143.77,124.25Z"/>
                <path class="cls-43" d="M77.7,124.11a2.81,2.81,0,0,1,.57,1.45c0,.33-2.37.58-2.34.33.07-.46.24-2.09.72-2.45C76.93,123.22,77.36,123.6,77.7,124.11Z"/>
                <path class="cls-44" d="M121.14,124a9.06,9.06,0,0,1-1.29,1.66c-.21.23,1.62.36,1.76.21.66-.73.92-1.54.42-2a.84.84,0,0,0-.89.08Z"/>
                <g class="cls-18">
                  <path class="cls-45" d="M81.15,124.17a8.24,8.24,0,0,1,2.14,1.73c.21.23-2.46.3-2.61.14-.65-.72-1.26-2-.76-2.38.18-.15.41,0,1.23.51Z"/>
                </g>
              </g>
            </g>
            <g>
              <g>
                <g>
                  <path class="cls-4" d="M40.44,120.07Z"/>
                  <path d="M40.36,120.15l-.15-.06,0,0h0c-.08,0-.08-.07-.06-.12l0-.07h.11l.09,0h0l.17.08Z"/>
                </g>
                <g>
                  <path class="cls-4" d="M190,121.58Z"/>
                  <path d="M189.89,121.66l-.15-.07,0,0h0c-.08,0-.08-.07-.05-.12l0-.07h.11a.13.13,0,0,1,.09,0h0l.16.09Z"/>
                </g>
                <g>
                  <path class="cls-4" d="M124.68,119.84Z"/>
                  <path d="M124.64,119.94l-.11,0h0c-.09,0-.14,0-.12-.12v-.09h.14l.17,0,0,.09h0Z"/>
                </g>
                <path class="cls-46" d="M243,125.26v-.82a2.47,2.47,0,0,1-.64-.55,5.08,5.08,0,0,0,.64.22V83.93c-40.5-.27-81.77.88-137,2.1-25.07.56-49.29-1.36-74.36-.17-10.7.5-19.86.45-30.07.48v35.32c1-.15,2-.36,3.25-.63,6.77-1.55,3-.57,0,.54s2,.12,6.19-1.27-.35.27-1.09,1-.74.52,2.84-.73,1.2.19-1.48,1,1.05.4,4.79-.65,1.05,0,0,.82.16.4,3.74-.85,1.8.09,2.58,1.72.13-1.13.57-1.74,0,1.22,3.33,1.71,0-.31-1.23-1.73,1.07,1.11,5.57,1.59-.3-.2-1.67-1.62,1.36,1,5.87,1.39.3,0-2.42-1.42,3.31.39,4.06,1,.59-.82-1.37-1.41,1.95.08,3.63,1.6.43-.92-.49-2,2.12.7,3.34,2.12,1.34-.83-.78-1.83l-.36-.17h0a36.61,36.61,0,0,0,4.74,1.87c2,.5.29-.41-1.68-1.62s3.77.89,5,2.41.29-1-1.53-2,.91.71,3.45,0,0,.1-.13,1.22.15-.1,2.83-1.25.29-.3-.13,1.13.74-.42,2.82-1.55.61.19,1.08,1.62c0,0,0,.27.44-.48s1.07-1.78,1.18-1.1,1.13,1.49,2.74,2-.91-.34-.93-1.63-.4.21,2.32,1.07.09-.14,0-1.09,2.11.94,2.73,2,.48-1.1-.63-2,1.6.26,1.92,1.41,1.29-.62.08-1.7,1.71.6,2.52,1.68.69-.62,0-1.43,1.41.47,1.83,1.62.8.13.18-1.09.49-.41,1.11.81.7-.08-.12-1.36,2,.8,2,2,1.4-.21,1.08-1.57-.39.48,2.19-.49-.39.34-1,1.3.4-.35,2.49-.84.8.34,2.63,1.61.6.27.57-1.29.22.81,3.13,1.61-.1-.21-.93-1.7,0,.41,2.92,1.21.21.27-.81-1,2.81.66,3,1.75,1.09-.42-.54-2,1.22,1,3.43,1.61-.31-.41-1.43-1.56,1.42,1.15,3.72,1.13S93,121.78,92,120.63c0,0-.4-.61.66.06a7.52,7.52,0,0,0,3,1.1c1,.16.44-.17.44-.17-1.1-.33-3.14-2.43-1-1s5.12,1.53,3.72,1.13a4.08,4.08,0,0,1-2.13-1.48,23.53,23.53,0,0,0,3.12,1.34,1.17,1.17,0,0,1-.22-1.36c2.58,1.61-1,3.58,1.24,2.44s.39-3.48,1.76-2.47.49,2.14,1.37,1.32-.94-2.65.42-1.74,5.89,2.1,5,1.6-4.84-2.42-2.28-2,4.71,3.44,4.09,2.22a4.77,4.77,0,0,0-1.38-1.73c3.31.59,5.16,3.74,4.84,2.52a4.9,4.9,0,0,0-1.84-2.24c4.68,1.7,10.22,1,7.67.86a10,10,0,0,1-3.84-.89c7.13.26,7.08,2,6.77,1.23s-1.9-1.26-1.9-1.26c2.86.59,3.78,1.76,3.47.89s-4.15-1.35-.92-.91,4.08,1.91,3.47.89c-.38-.61-2.31-1-2.85-1.16h0l1.56.25c4.21.63,5.14,2.41,5,1.7a2.58,2.58,0,0,0-1.07-1.27c2,1.11,5.42,1.44,3.61.84s-2.12-1.06-2.12-1.06c2.5,1.21,9.26,1.82,7.6,1.27a13.22,13.22,0,0,0-2.64-.64c2.47-.38,6.17.77,4.73.12s-5.33-.42-3-.75,4.66.84,4.5.33-4.06-1-.68-.66,3.34,2.73,3.48,1.61-1.92-2.14-.17-1.28,1.46,2.19,1.82,1.31-1.46-1.67.28-.92,3.25,1.36,2.34.75-2.68-1.51-.26-.64,2.53,2,2.72,1.34-2.43-2-1.22-1.36a9.1,9.1,0,0,0,3.19.65c6.87-1.34,3-.48,0,.54s2,.18,6.26-1.08-.36.26-1.15,1-.78.49,2.88-.65,1.19.24-1.55,1,1,.43,4.83-.5,1.05,0,0,.82.13.41,3.79-.73,1.79.14,2.46,1.79.21-1.12.69-1.72-.06,1.23,3.21,1.81,0-.3-1.11-1.76,1,1.15,5.46,1.76-.29-.21-1.56-1.67,1.29,1.05,5.77,1.57.3,0-2.33-1.49,3.28.49,4,1.12.64-.8-1.28-1.46,1.95.15,3.52,1.72.5-.91-.35-2.06,2.07.77,3.19,2.23,1.39-.79-.65-1.86l-.35-.18h0a36.56,36.56,0,0,0,4.61,2c1.92.55.32-.4-1.57-1.68s3.7,1,4.82,2.57.36-1-1.39-2.07.86.73,3.45.08,0,.1-.22,1.22.16-.1,2.91-1.16.32-.3-.2,1.12.77-.39,2.92-1.47.59.22,1,1.66c0,0,0,.28.48-.46s1.18-1.75,1.25-1.06,1,1.52,2.6,2-.88-.36-.82-1.65-.41.19,2.25,1.14.1-.13.05-1.09,2,1,2.6,2,.55-1.08-.5-2,1.58.31,1.83,1.47,1.33-.58.18-1.69,1.67.65,2.42,1.76.73-.6.07-1.43,1.37.51,1.71,1.67.8.16.26-1.08.52-.4,1.06.84.7-.05,0-1.36,1.95.86,1.89,2.09,1.41-.18,1.18-1.54-.42.46,2.22-.43-.41.33-1.06,1.27.42-.33,2.54-.76.78.36,2.51,1.7.59.28.67-1.28.16.82,3,1.7-.09-.2-.82-1.72,0,.41,2.84,1.3.19.27-.75-1,2.77.74,2.91,1.83,1.12-.38-.4-2,1.15,1,3.32,1.72-.28-.42-1.32-1.6C239.56,123.2,241.11,124.72,243,125.26Z"/>
              </g>
              <g class="cls-47">
                <g>
                  <path class="cls-48" d="M1.56,101.43v3.83c.94-.07,1.76-.13,2.4-.21,9.83-1.18,20-.7,29.7-2.09A274.38,274.38,0,0,1,1.56,101.43Z"/>
                  <path class="cls-49" d="M158.17,88.57a62.25,62.25,0,0,1-9.74-1.13c6-1.39,13.41,0,19.69-.38,8.08-.54,15.32-1.3,23.48-1.55,13.69-.41,28.06,1.11,41-.34-3.37,1.1-7.29,1.14-10.33,1.81,3.35.31,6.86-.39,10.24-.18-.6.15-1.25.42-1.9.57.82-.05,1.71.08,2.5,0a5.34,5.34,0,0,1-3.61,1.19c4.54,0,9,.46,13.53.59V83.93c-40.5-.27-81.77.88-137,2.1-25.07.56-49.29-1.36-74.36-.17-10.7.5-19.86.45-30.07.48V96.56H4.45l3.6-.92C15.81,93.36,25.18,96,32.64,94c-3.11-2.07-10-1.78-14.17-1.69,3.58-1.62,8.59-.91,12.57-1.48-4.53-.64-9.35-1.19-14-1.37,5.53-1.83,14.63-1.78,21.26-1.78s13.25-.63,19.88-.24c-1.08.11-2.27.47-3.33.62,12.11.54,22.84.54,32.23.54A10.08,10.08,0,0,1,85.5,88c9.19-.41,20.22-1.55,29.19-.91-.57.07-2.17.45-3.12.56,3.14,0,6.36-.14,9.49,0a7.86,7.86,0,0,1-2.18.87,245.6,245.6,0,0,1,26.3,1.06,14.92,14.92,0,0,1-1.54.47q13.13,0,26.26,0c-4.82-.13-9.81-.44-14.23-.66A22.46,22.46,0,0,1,158.17,88.57Z"/>
                  <path class="cls-50" d="M243,101.83a37.62,37.62,0,0,1-5.94.86c1.69,0,3.73-.1,5.94-.19Z"/>
                </g>
              </g>
              <g class="cls-51">
                <path class="cls-49" d="M3.38,105.11C7.13,103.47,13,104,17.19,103c-1,0-2.06-.3-3.12-.33,2.87-1.47,6.68-1.26,10-1.73C18,99.34,9,100.44,1.56,100.55v7.88c8.85-.55,19-1.13,26.74-2.9C20.11,105.14,11.39,106.39,3.38,105.11Z"/>
                <path class="cls-49" d="M51.27,90.47c6.32,0,12.9-.72,19.23-.92-12.43,0-24.54-.34-36.83-2.37,3.18-.84,6.66-.63,10-1.05-.74-.21-1.53-.4-2.32-.58q-4.83.09-9.7.31c-10.7.5-19.86.45-30.07.48V99.92c15.1-2.29,32.2,1.08,46.52-2.72-6.68-1.6-16.08,0-23.3-1,3.21-.53,6.66-.09,9.95-.29-9-2.1-20-1.21-28.87-3.64,9.26.09,18.81-1.46,28.16-1.74C39.74,90.37,45.53,90.47,51.27,90.47Z"/>
              </g>
              <g class="cls-52">
                <path class="cls-53" d="M119,97.77h-4C116.41,97.82,117.76,97.82,119,97.77Z"/>
                <path class="cls-54" d="M116.09,96.19c-1.51-1.34-5.59-1.33-8.19-1.48,4.64-.47,9.28-1,13.86-1.64-3.66-.79-8.71,0-12.61,0-5.88.12-11.77.07-17.66.07H72.26a15.69,15.69,0,0,0,1.86-.31,18,18,0,0,1-5.77-1.23l-4,.31c-5,0-11.13-.64-15.73.29,5.2,1.56,12,1,17.59,2.12a28.74,28.74,0,0,0-5.74.6c7.48.35,14.75.48,22.23,1.23a81,81,0,0,0-9.83,1c8.37-.35,16.92.6,25.34.59H115a33.89,33.89,0,0,1-8.16-1.15A69.18,69.18,0,0,1,116.09,96.19Z"/>
              </g>
              <g class="cls-52">
                <path class="cls-55" d="M126.56,94.45h2.51C128.24,94.42,127.4,94.42,126.56,94.45Z"/>
              </g>
              <g class="cls-52">
                <path class="cls-56" d="M193.54,104.2h1.94C194.83,104.19,194.18,104.19,193.54,104.2Z"/>
                <path class="cls-49" d="M243,104.69v-.15c-5.4.19-13,.85-17.54-.9,4-.4,7.35-.45,10.67-1.9-4.3,0-8.63.31-13,.32l1.35-.61a151.88,151.88,0,0,1-29,2.75c6.43.08,13.27,1,19.64,1.29-1.05.22-2.39.71-3.6.88C222.29,106.19,232.37,105.82,243,104.69Z"/>
              </g>
              <path class="cls-1" d="M41.2,117.05c-2.56-.09-5.13-.08-7.71,0C36.05,117.1,38.63,117.05,41.2,117.05Z"/>
              <g class="cls-57">
                <path class="cls-58" d="M85.53,109.3c1.36,0,2.92,0,4.54-.06C88.51,109.23,87,109.23,85.53,109.3Z"/>
                <path class="cls-59" d="M90.07,109.24c1.08,0,2.17,0,3.25,0C92.24,109.22,91.14,109.22,90.07,109.24Z"/>
              </g>
              <g class="cls-57">
                <path class="cls-60" d="M165.85,110.78c1.24,0,2.66,0,4.14,0C168.57,110.76,167.17,110.73,165.85,110.78Z"/>
                <path class="cls-61" d="M170,110.79c1,0,2,0,3,0C172,110.8,171,110.79,170,110.79Z"/>
              </g>
            </g>
          </g>
        </g>
      </g>
    </g>
  </g>
</svg>
