<svg xmlns="http://www.w3.org/2000/svg" width="307.41" height="137.84" viewBox="0 0 307.41 137.84">
  <defs>
    <style>
      .cls-1 {
        isolation: isolate;
      }

      .cls-13, .cls-2 {
        opacity: 0.5;
      }

      .cls-3 {
        fill: #fff;
      }

      .cls-4 {
        fill: #fcf8f7;
      }

      .cls-13, .cls-14, .cls-4 {
        mix-blend-mode: overlay;
      }

      .cls-5 {
        fill: #d48d59;
        stroke: #8c552f;
      }

      .cls-10, .cls-5 {
        stroke-miterlimit: 10;
      }

      .cls-6 {
        fill: #e0a363;
      }

      .cls-7 {
        fill: #f0b974;
      }

      .cls-10, .cls-8 {
        fill: #ffc483;
      }

      .cls-9 {
        fill: #e0ae76;
        opacity: 0.59;
      }

      .cls-12, .cls-9 {
        mix-blend-mode: multiply;
      }

      .cls-10 {
        stroke: #9e6c3b;
      }

      .cls-11 {
        fill: #d4804a;
      }

      .cls-12 {
        fill: #e8bf91;
      }

      .cls-12, .cls-14 {
        opacity: 0.4;
      }

      .cls-13, .cls-14 {
        fill: #ffbdae;
      }
    </style>
  </defs>
  <g class="cls-1">
    <g id="Layer_1" data-name="Layer 1">
      <g>
        <path class="cls-2" d="M94.43,137.84c-.83,0-1.67,0-2.57-.05s-1.59-.07-2.39-.13c-1.75-.12-3.52-.3-5.27-.55l-.56-.08c-.75-.12-1.56-.25-2.39-.4h0c-1-.18-2-.39-2.93-.61h-.06c-1-.22-1.92-.46-2.86-.72h0c-1-.26-1.91-.54-2.85-.84h0c-2.3-.73-4.53-1.56-6.62-2.46h0c-.92-.39-1.86-.83-2.88-1.32l-.14-.07c-1.69-.82-3.43-1.75-5.12-2.75l-.08,0c-.85-.5-1.71-1-2.58-1.6l-.07,0c-.83-.54-1.67-1.12-2.5-1.7l0,0c-1.36-1-2.68-2-3.91-3l-.07-.06q-1.12-.91-2.37-2c-.33-.29-.66-.58-1-.89s-.51-.47-.74-.69c-.59-.56-1.17-1.12-1.74-1.7a75.26,75.26,0,0,1-5.12-5.84,72.93,72.93,0,0,1-6-8.85l0-.06a73.16,73.16,0,0,1-5.05-10.85l-.07-.18c-.08-.22-.17-.44-.24-.67s-.25-.68-.36-1c-.29-.84-.52-1.57-.74-2.27,0,0-14.36-47.61-14.36-47.61A9.91,9.91,0,0,1,3.2,29.11V13.46a9.91,9.91,0,0,1,9.89-9.89H37.21c.44-.09.87-.19,1.33-.27a5.94,5.94,0,0,1,1.05-.1,5.74,5.74,0,0,1,2,.37H59.69c.43-.09.87-.19,1.32-.27a5.94,5.94,0,0,1,1.05-.1,5.7,5.7,0,0,1,2,.37H82.16c.43-.09.87-.19,1.32-.27a6,6,0,0,1,1-.1,5.75,5.75,0,0,1,2,.37h18.07c.43-.09.87-.19,1.32-.27A6.14,6.14,0,0,1,107,3.2a5.74,5.74,0,0,1,2,.37H127.1c.43-.09.87-.19,1.32-.27a6.14,6.14,0,0,1,1.06-.1,5.74,5.74,0,0,1,2,.37h18.07c.44-.09.87-.19,1.33-.27a5.94,5.94,0,0,1,1-.1,5.74,5.74,0,0,1,2,.37h18.08c.43-.09.87-.19,1.32-.27a5.94,5.94,0,0,1,1-.1,5.7,5.7,0,0,1,2,.37h18.08c.43-.09.87-.19,1.32-.27a6.05,6.05,0,0,1,1.06-.1,5.74,5.74,0,0,1,2,.37H217c.43-.09.87-.19,1.32-.27a6.14,6.14,0,0,1,1.06-.1,5.74,5.74,0,0,1,2,.37h18.07c.44-.09.87-.19,1.33-.27a5.94,5.94,0,0,1,1.05-.1,5.74,5.74,0,0,1,2,.37h18.07c.44-.09.88-.19,1.33-.27a5.94,5.94,0,0,1,1.05-.1,5.7,5.7,0,0,1,2,.37h18.08c.43-.09.87-.19,1.32-.27a5.94,5.94,0,0,1,1-.1,5.7,5.7,0,0,1,2,.37h8.72a9.91,9.91,0,0,1,9.89,9.89V29.11A9.91,9.91,0,0,1,300,38.7L285.62,86.26c-.21.71-.45,1.45-.75,2.34l-.34,1c-.09.26-.18.5-.27.74l-.07.17A74.33,74.33,0,0,1,281,98l0,.05q-.68,1.35-1.44,2.7a1,1,0,0,1-.08.14,1.46,1.46,0,0,1-.09.16c-.47.83-.95,1.65-1.45,2.45a.86.86,0,0,1-.1.16l-.1.17c-.51.81-1,1.61-1.56,2.39l-.11.16-.09.12c-.59.86-1.18,1.68-1.76,2.46l-.08.1a73.37,73.37,0,0,1-4.93,5.85c-1.36,1.45-2.8,2.87-4.28,4.21l-.16.14-1.48,1.3c-1.33,1.13-2.68,2.2-4,3.18h0c-.76.56-1.57,1.13-2.41,1.7l0,0c-.79.53-1.61,1.06-2.45,1.58s-1.51.92-2.17,1.3c-.87.49-1.77,1-2.76,1.49l-.11,0a72.51,72.51,0,0,1-8.47,3.69l-.39.13c-.62.22-1.23.43-1.85.63l-.78.25-.25.08-1.34.4-.65.18-.61.17-1.09.29c-1.24.31-2.55.59-4,.88l-.57.1c-1.24.23-2.36.4-3.47.55h-.07c-2.27.3-4.57.5-6.82.58-1,0-1.86.05-2.68.05Z"/>
        <path class="cls-3" d="M91.22,134.64c-.82,0-1.66,0-2.56,0s-1.59-.07-2.4-.13c-1.74-.12-3.51-.3-5.26-.55l-.56-.08c-.75-.12-1.56-.25-2.39-.4h0c-1-.18-2-.39-2.94-.61h0c-1-.22-1.93-.46-2.86-.72h0c-1-.26-1.91-.54-2.85-.84h0c-2.3-.73-4.53-1.56-6.62-2.46h0c-.92-.4-1.86-.83-2.88-1.32l-.14-.07c-1.69-.82-3.43-1.75-5.12-2.75l-.08,0c-.85-.5-1.72-1-2.58-1.6l-.07,0c-.83-.55-1.67-1.12-2.5-1.7l0,0c-1.36-1-2.68-2-3.91-3l-.07-.06c-.75-.61-1.54-1.29-2.38-2l-1-.89-.73-.69c-.59-.56-1.17-1.12-1.74-1.7A73,73,0,0,1,28.3,98.16l0-.06a72.16,72.16,0,0,1-5.05-10.85l-.07-.18c-.08-.22-.17-.44-.25-.67l-.35-1c-.29-.84-.53-1.57-.74-2.27,0,0-14.36-47.61-14.36-47.61A9.92,9.92,0,0,1,0,25.91V10.26A9.91,9.91,0,0,1,9.89.37H34c.44-.09.87-.19,1.32-.27A5.29,5.29,0,0,1,36.39,0a5.74,5.74,0,0,1,2,.37H56.48c.44-.09.88-.19,1.33-.27a5.13,5.13,0,0,1,1-.1,5.7,5.7,0,0,1,2,.37H79c.43-.09.87-.19,1.32-.27a5.13,5.13,0,0,1,1-.1,5.7,5.7,0,0,1,2,.37h18.08c.43-.09.87-.19,1.32-.27a5.29,5.29,0,0,1,1.06-.1,5.74,5.74,0,0,1,2,.37H123.9c.43-.09.87-.19,1.32-.27a5.29,5.29,0,0,1,1.06-.1,5.74,5.74,0,0,1,2,.37h18.07c.44-.09.87-.19,1.33-.27a5.13,5.13,0,0,1,1.05-.1,5.74,5.74,0,0,1,2,.37h18.07c.44-.09.88-.19,1.33-.27a5.13,5.13,0,0,1,1.05-.1,5.7,5.7,0,0,1,2,.37h18.08c.43-.09.87-.19,1.32-.27a5.13,5.13,0,0,1,1.05-.1,5.7,5.7,0,0,1,2,.37h18.08c.43-.09.87-.19,1.32-.27a5.22,5.22,0,0,1,1.06-.1,5.74,5.74,0,0,1,2,.37h18.07c.43-.09.87-.19,1.32-.27a5.29,5.29,0,0,1,1.06-.1,5.74,5.74,0,0,1,2,.37h18.07c.44-.09.87-.19,1.33-.27a5.13,5.13,0,0,1,1.05-.1,5.74,5.74,0,0,1,2,.37h18.08c.43-.09.87-.19,1.32-.27a5.13,5.13,0,0,1,1.05-.1,5.7,5.7,0,0,1,2,.37h8.72a9.91,9.91,0,0,1,9.89,9.89V25.91a9.91,9.91,0,0,1-7.44,9.59L282.42,83.06c-.21.71-.45,1.45-.76,2.34-.1.32-.22.65-.33,1l-.28.74-.06.17a73.13,73.13,0,0,1-3.25,7.48l0,0c-.46.89-.94,1.8-1.44,2.69a1.09,1.09,0,0,1-.08.15.85.85,0,0,1-.09.15c-.47.84-.95,1.66-1.45,2.46a.86.86,0,0,1-.1.16l-.1.17c-.51.8-1,1.61-1.56,2.39l-.11.16-.09.12c-.59.86-1.18,1.68-1.76,2.46a.39.39,0,0,0-.08.1,73.37,73.37,0,0,1-4.93,5.85c-1.36,1.45-2.8,2.87-4.28,4.21l-.16.14c-.49.44-1,.87-1.48,1.29-1.33,1.14-2.68,2.21-4,3.18h0c-.76.56-1.57,1.13-2.41,1.7l0,0c-.79.53-1.61,1.06-2.45,1.58s-1.51.92-2.18,1.3c-.86.49-1.76,1-2.75,1.49l-.11.05a70.81,70.81,0,0,1-8.47,3.68l-.4.14c-.61.22-1.22.43-1.84.63l-.78.25-.25.08-1.34.4-.65.18-.61.16-1.09.29c-1.24.32-2.56.6-4,.89l-.57.1c-1.24.23-2.37.4-3.47.55h-.07c-2.27.3-4.57.49-6.82.58-1,0-1.87,0-2.68,0Z"/>
        <path class="cls-4" d="M292.32,5.49h-8.17a.64.64,0,0,0-.68-.36c-.58.11-1.14.24-1.69.36h-20.1a.64.64,0,0,0-.69-.36c-.58.11-1.13.24-1.68.36h-20.1a.65.65,0,0,0-.69-.36c-.58.11-1.13.24-1.69.36h-20.1a.64.64,0,0,0-.68-.36c-.58.11-1.13.24-1.69.36h-20.1a.64.64,0,0,0-.68-.36c-.58.11-1.14.24-1.69.36h-20.1a.64.64,0,0,0-.68-.36c-.58.11-1.14.24-1.69.36h-20.1a.64.64,0,0,0-.69-.36c-.58.11-1.13.24-1.68.36h-20.1a.65.65,0,0,0-.69-.36c-.58.11-1.13.24-1.69.36h-20.1a.64.64,0,0,0-.68-.36c-.58.11-1.13.24-1.69.36H81.9a.64.64,0,0,0-.68-.36c-.58.11-1.14.24-1.69.36H59.43a.64.64,0,0,0-.68-.36c-.58.11-1.14.24-1.69.36H37a.64.64,0,0,0-.69-.36c-.58.11-1.13.24-1.68.36H11.89a6.77,6.77,0,0,0-6.77,6.77V23.92a6.76,6.76,0,0,0,6.21,6.73l1,3.22h0l1,3.33L26.69,81.58c.32,1.06.67,2.11,1,3.15l.1.25A66.56,66.56,0,0,0,32.7,95.53l0,.08a67.34,67.34,0,0,0,5.55,8.23h0a67.78,67.78,0,0,0,7.23,7.81l.45.4c.83.76,1.68,1.49,2.55,2.2h0q1.78,1.47,3.67,2.8h0c.77.55,1.56,1.09,2.35,1.6h0c.79.52,1.6,1,2.42,1.51h0c.74.44,1.49.86,2.25,1.27h0c.85.46,1.71.9,2.59,1.32l.08,0c.89.43,1.79.84,2.69,1.23h0c1.07.46,2.16.89,3.26,1.3h0c1,.35,1.94.68,2.92,1h0c.88.28,1.76.54,2.65.78h0c.88.24,1.76.46,2.66.67h0c.91.2,1.82.39,2.73.56h0c.76.14,1.51.27,2.28.38h0l.17,0a68.42,68.42,0,0,0,7.47.68c.78,0,1.57.05,2.36.05H213c.83,0,1.66,0,2.49-.05h0q3.19-.12,6.32-.54h0c1.15-.15,2.3-.34,3.43-.55l.27,0c1.3-.24,2.58-.51,3.85-.83h0c.73-.18,1.46-.38,2.19-.59.49-.14,1-.3,1.46-.45l.74-.23c.57-.18,1.14-.38,1.7-.58l.38-.13c1.81-.66,3.58-1.38,5.32-2.18h0q1.31-.6,2.58-1.26l.07,0c.86-.45,1.72-.91,2.56-1.38h0c.69-.39,1.36-.79,2-1.2h0c.77-.48,1.54-1,2.29-1.49h0c.76-.51,1.51-1,2.25-1.58h0c1.28-.94,2.52-1.93,3.72-3h0a67.34,67.34,0,0,0,10.12-10.74h0c.58-.77,1.14-1.56,1.69-2.35l.06-.08.07-.11c.51-.75,1-1.51,1.49-2.29l.08-.11.07-.12c.48-.78,1-1.57,1.4-2.37l.06-.11a.3.3,0,0,0,0-.08c.48-.85,1-1.72,1.39-2.6h0a65.86,65.86,0,0,0,3.22-7.5l.09-.24c.37-1,.72-2.07,1-3.13l3.53-11.7,0-.12h0l2.54-8.42.45-1.48h0l1.32-4.37h0l.43-1.45,2.34-7.76h0l.86-2.83,3.86-12.8a6.76,6.76,0,0,0,6.21-6.73V12.26A6.77,6.77,0,0,0,292.32,5.49Z"/>
        <g>
          <path class="cls-5" d="M152.1,9h-136a8.36,8.36,0,0,0-8,10.78l18.64,61.8a67.41,67.41,0,0,0,64.53,47.94H213a67.41,67.41,0,0,0,64.53-47.94l18.64-61.8a8.36,8.36,0,0,0-8-10.78Z"/>
          <path class="cls-6" d="M294.06,24a19.66,19.66,0,0,0-17.09.49,33.09,33.09,0,0,0-3.26,2A15.58,15.58,0,0,0,272,27.77c-3.12,2.79-8,6.06-13.45,5.75a14.93,14.93,0,0,1-5.94-1.67c-.65-.37-3.56-2.74-4.8-3.75s-1.51-1.23-1.75-1.4a27.36,27.36,0,0,0-4.72-2.7,19.68,19.68,0,0,0-17.1.49c-2,1-3.9,2.29-5.77,3.51-4.57,3-8.89,5.8-13.88,5.52a14.93,14.93,0,0,1-5.94-1.67c-.65-.37-3.56-2.74-4.8-3.75s-1.51-1.24-1.75-1.4a27.07,27.07,0,0,0-4.73-2.7,19.66,19.66,0,0,0-17.09.49,27.24,27.24,0,0,0-5.41,4,28.5,28.5,0,0,1-3.54,2.83c-3.6,2.29-6.89,3.31-10.07,3.14a14.84,14.84,0,0,1-5.94-1.67c-.66-.37-3.56-2.74-4.8-3.76s-1.52-1.23-1.75-1.4A27.65,27.65,0,0,0,134,25a19.69,19.69,0,0,0-17.09.48c-2,1-3.91,2.3-5.77,3.51-4.57,3-8.89,5.8-13.88,5.53a14.84,14.84,0,0,1-5.94-1.67c-.66-.37-3.56-2.74-4.8-3.76s-1.52-1.23-1.75-1.4A27.65,27.65,0,0,0,80.06,25,19.69,19.69,0,0,0,63,25.43a37.41,37.41,0,0,0-3.26,2A17,17,0,0,0,58,28.71c-3.13,2.79-8,6.06-13.45,5.76a14.93,14.93,0,0,1-5.94-1.67c-.65-.37-3.56-2.74-4.8-3.76s-1.51-1.23-1.75-1.4A27.65,27.65,0,0,0,27.31,25a19.69,19.69,0,0,0-17.09.48l-.4.22,1.51,5c.42-.24.84-.48,1.26-.69a14.4,14.4,0,0,1,12.68-.34,22.32,22.32,0,0,1,3.82,2.19c.16.11.86.68,1.48,1.19a50,50,0,0,0,5.66,4.32,20,20,0,0,0,8,2.24c5.7.32,11.62-2.12,17.13-7.05l0,0A34.32,34.32,0,0,1,65.33,30,14.4,14.4,0,0,1,78,29.62a22,22,0,0,1,3.83,2.19c.16.11.86.68,1.47,1.19A50.62,50.62,0,0,0,89,37.32a20,20,0,0,0,8,2.24c6.67.38,12.13-3.2,17-6.35,1.84-1.2,3.58-2.33,5.34-3.25A14.4,14.4,0,0,1,132,29.62a22,22,0,0,1,3.83,2.19c.16.11.86.68,1.47,1.19a50.62,50.62,0,0,0,5.67,4.32,20,20,0,0,0,8,2.24c.34,0,.67,0,1,0,3.94,0,7.9-1.3,12.08-4a33.21,33.21,0,0,0,4.2-3.32A22.89,22.89,0,0,1,172.63,29a14.4,14.4,0,0,1,12.68-.34,23.49,23.49,0,0,1,3.83,2.19l1.47,1.19a51.66,51.66,0,0,0,5.66,4.33,20.16,20.16,0,0,0,8,2.23c6.66.38,12.13-3.19,17-6.34,1.84-1.2,3.58-2.34,5.35-3.26a14.4,14.4,0,0,1,12.68-.34,23.08,23.08,0,0,1,3.83,2.19l1.47,1.19a51.66,51.66,0,0,0,5.66,4.33,20.16,20.16,0,0,0,8,2.23c5.7.33,11.62-2.12,17.13-7a.1.1,0,0,1,.05,0,35.18,35.18,0,0,1,3.9-2.52A14.4,14.4,0,0,1,292,28.67c.43.19.85.4,1.28.63l1.49-5Z"/>
          <path class="cls-7" d="M277,33.86a33.09,33.09,0,0,0-3.26,2A15.58,15.58,0,0,0,272,37.14c-3.12,2.79-8,6-13.45,5.75a15.08,15.08,0,0,1-5.94-1.66c-.65-.38-3.56-2.75-4.8-3.76s-1.51-1.23-1.75-1.4a27.65,27.65,0,0,0-4.72-2.7,19.68,19.68,0,0,0-17.1.49c-2,1-3.9,2.29-5.77,3.51-4.57,3-8.89,5.8-13.88,5.52a15.08,15.08,0,0,1-5.94-1.66c-.65-.38-3.56-2.75-4.8-3.76s-1.51-1.23-1.75-1.4a27.72,27.72,0,0,0-4.73-2.7,19.66,19.66,0,0,0-17.09.49,27.24,27.24,0,0,0-5.41,4,28.5,28.5,0,0,1-3.54,2.83c-3.6,2.29-6.9,3.31-10.07,3.14a14.84,14.84,0,0,1-5.94-1.67c-.66-.37-3.56-2.74-4.8-3.76S139,37.18,138.75,37A27.65,27.65,0,0,0,134,34.32a19.66,19.66,0,0,0-17.09.49c-2,1-3.91,2.29-5.77,3.5-4.57,3-8.89,5.8-13.88,5.53a14.84,14.84,0,0,1-5.94-1.67c-.66-.37-3.56-2.74-4.8-3.76S85,37.18,84.79,37a27.65,27.65,0,0,0-4.73-2.69A19.66,19.66,0,0,0,63,34.81a35.19,35.19,0,0,0-3.26,2A18.62,18.62,0,0,0,58,38.08c-3.13,2.8-8,6.06-13.45,5.76a14.93,14.93,0,0,1-5.94-1.67c-.65-.37-3.56-2.74-4.8-3.76S32.28,37.18,32,37a27.65,27.65,0,0,0-4.73-2.69,19.74,19.74,0,0,0-15-.45l1.48,4.9A14.45,14.45,0,0,1,25.27,39a22.32,22.32,0,0,1,3.82,2.19c.16.11.86.68,1.47,1.18a50,50,0,0,0,5.67,4.33,20,20,0,0,0,8,2.24c5.7.32,11.62-2.12,17.13-7l0,0a34.32,34.32,0,0,1,3.91-2.51A14.4,14.4,0,0,1,78,39a22,22,0,0,1,3.83,2.19c.16.11.86.68,1.47,1.18A50,50,0,0,0,89,46.69a20,20,0,0,0,8,2.24c6.67.38,12.13-3.2,17-6.35,1.84-1.2,3.58-2.33,5.34-3.25A14.4,14.4,0,0,1,132,39a22,22,0,0,1,3.83,2.19c.16.11.86.68,1.47,1.19a50.62,50.62,0,0,0,5.67,4.32,20,20,0,0,0,8,2.24l1,0c4,0,7.91-1.3,12.09-4a33.21,33.21,0,0,0,4.2-3.32,22.89,22.89,0,0,1,4.39-3.31A14.4,14.4,0,0,1,185.31,38a23,23,0,0,1,3.82,2.19l1.47,1.19a51.32,51.32,0,0,0,5.67,4.33,20,20,0,0,0,8,2.23c6.66.38,12.13-3.19,17-6.34,1.84-1.2,3.58-2.34,5.35-3.26A14.4,14.4,0,0,1,239.27,38a23.08,23.08,0,0,1,3.83,2.19l1.46,1.19a51.32,51.32,0,0,0,5.67,4.33,20,20,0,0,0,8,2.23c5.7.32,11.62-2.12,17.13-7l0,0a35.53,35.53,0,0,1,3.91-2.52,14.3,14.3,0,0,1,11.46-.81l1.47-4.88A19.55,19.55,0,0,0,277,33.86Z"/>
          <path class="cls-6" d="M277,43.23a33.09,33.09,0,0,0-3.26,2A15.58,15.58,0,0,0,272,46.51c-3.12,2.79-8,6.05-13.45,5.75a15.08,15.08,0,0,1-5.94-1.66c-.65-.38-3.56-2.75-4.8-3.76s-1.51-1.23-1.75-1.4a27.65,27.65,0,0,0-4.72-2.7,19.68,19.68,0,0,0-17.1.49c-2,1-3.9,2.29-5.77,3.51-4.57,3-8.88,5.79-13.88,5.52a15.08,15.08,0,0,1-5.94-1.66c-.65-.38-3.56-2.75-4.8-3.76s-1.51-1.23-1.75-1.4a27.72,27.72,0,0,0-4.73-2.7,19.66,19.66,0,0,0-17.09.49,26.89,26.89,0,0,0-5.41,4,28.4,28.4,0,0,1-3.54,2.82c-3.6,2.29-6.9,3.31-10.07,3.14a14.84,14.84,0,0,1-5.94-1.67c-.66-.37-3.56-2.75-4.81-3.76s-1.5-1.23-1.74-1.4A27.65,27.65,0,0,0,134,43.69a19.66,19.66,0,0,0-17.09.49c-2,1-3.91,2.29-5.77,3.5-4.57,3-8.89,5.8-13.88,5.53a14.84,14.84,0,0,1-5.94-1.67c-.66-.37-3.57-2.75-4.81-3.76s-1.51-1.23-1.74-1.4a27.65,27.65,0,0,0-4.73-2.69A19.66,19.66,0,0,0,63,44.18a35.19,35.19,0,0,0-3.26,2A18.62,18.62,0,0,0,58,47.45c-3.13,2.8-8,6.06-13.45,5.76a14.93,14.93,0,0,1-5.94-1.67c-.66-.37-3.56-2.75-4.8-3.76s-1.51-1.23-1.75-1.4a27.65,27.65,0,0,0-4.73-2.69,19.84,19.84,0,0,0-12.42-1.23l1.48,4.88a14.68,14.68,0,0,1,8.9,1,22.32,22.32,0,0,1,3.82,2.19c.16.11.86.68,1.47,1.18a50,50,0,0,0,5.67,4.33,20,20,0,0,0,8,2.24c5.7.32,11.62-2.12,17.13-7l0,0a34.32,34.32,0,0,1,3.91-2.51A14.4,14.4,0,0,1,78,48.36a22,22,0,0,1,3.83,2.19c.16.11.85.68,1.47,1.18A50,50,0,0,0,89,56.06a20,20,0,0,0,8,2.24c6.67.38,12.13-3.2,17-6.35,1.84-1.2,3.58-2.33,5.34-3.25A14.4,14.4,0,0,1,132,48.36a22,22,0,0,1,3.83,2.19c.16.11.85.68,1.47,1.18a50,50,0,0,0,5.67,4.33,20,20,0,0,0,8,2.24l1,0c4,0,7.91-1.3,12.09-3.95a33.21,33.21,0,0,0,4.2-3.32,22.89,22.89,0,0,1,4.39-3.31,14.4,14.4,0,0,1,12.68-.34,23.49,23.49,0,0,1,3.83,2.19l1.47,1.19a51.66,51.66,0,0,0,5.66,4.33,20,20,0,0,0,8,2.23c6.66.38,12.13-3.19,17-6.34,1.84-1.2,3.58-2.34,5.35-3.26a14.4,14.4,0,0,1,12.68-.34,23.08,23.08,0,0,1,3.83,2.19l1.47,1.19a51.66,51.66,0,0,0,5.66,4.33,20,20,0,0,0,8,2.23c5.7.32,11.62-2.11,17.13-7l0,0a35.53,35.53,0,0,1,3.91-2.52,14.17,14.17,0,0,1,8.83-1.47l1.48-4.9A19.41,19.41,0,0,0,277,43.23Z"/>
          <path class="cls-7" d="M277,52.6a33.09,33.09,0,0,0-3.26,2A15.58,15.58,0,0,0,272,55.88c-3.12,2.79-8,6.06-13.45,5.75A15.08,15.08,0,0,1,252.59,60c-.65-.38-3.56-2.75-4.8-3.76S246.28,55,246,54.81a28,28,0,0,0-4.72-2.7,19.68,19.68,0,0,0-17.1.49c-2,1-3.9,2.29-5.77,3.51-4.57,3-8.88,5.79-13.88,5.52A15.08,15.08,0,0,1,198.63,60c-.65-.38-3.56-2.75-4.8-3.76s-1.51-1.23-1.75-1.4a27.72,27.72,0,0,0-4.73-2.7,19.66,19.66,0,0,0-17.09.49,26.89,26.89,0,0,0-5.41,4,28.4,28.4,0,0,1-3.54,2.82c-3.6,2.29-6.9,3.31-10.07,3.14a14.84,14.84,0,0,1-5.94-1.67c-.66-.37-3.56-2.74-4.8-3.76s-1.52-1.23-1.75-1.39a27.07,27.07,0,0,0-4.73-2.7,19.66,19.66,0,0,0-17.09.49c-2,1-3.91,2.29-5.77,3.5-4.57,3-8.89,5.8-13.88,5.53a14.84,14.84,0,0,1-5.94-1.67c-.66-.37-3.56-2.74-4.8-3.76S85,55.92,84.79,55.76a27.07,27.07,0,0,0-4.73-2.7A19.66,19.66,0,0,0,63,53.55a35.19,35.19,0,0,0-3.26,2A18.62,18.62,0,0,0,58,56.82c-3.12,2.8-8,6.06-13.45,5.76a14.93,14.93,0,0,1-5.94-1.67c-.65-.37-3.56-2.74-4.8-3.76S32.28,55.92,32,55.76a27.07,27.07,0,0,0-4.73-2.7,20.08,20.08,0,0,0-9.72-1.65l1.52,5a15.06,15.06,0,0,1,6.16,1.3,23,23,0,0,1,3.82,2.19c.16.12.86.68,1.48,1.19a50,50,0,0,0,5.66,4.32,20,20,0,0,0,8,2.24c5.7.32,11.62-2.12,17.13-7l0-.05a34.32,34.32,0,0,1,3.91-2.51A14.4,14.4,0,0,1,78,57.73a22.69,22.69,0,0,1,3.83,2.19c.16.12.86.68,1.47,1.19A50.62,50.62,0,0,0,89,65.43a20,20,0,0,0,8,2.24c6.66.38,12.13-3.2,17-6.34,1.84-1.21,3.58-2.34,5.34-3.26A14.4,14.4,0,0,1,132,57.73a22.69,22.69,0,0,1,3.83,2.19c.16.12.86.68,1.47,1.19a50.62,50.62,0,0,0,5.67,4.32,20,20,0,0,0,8,2.24l1,0c4,0,7.91-1.3,12.09-4a33.21,33.21,0,0,0,4.2-3.32,22.89,22.89,0,0,1,4.39-3.31,14.36,14.36,0,0,1,12.68-.33A22.7,22.7,0,0,1,189.14,59l1.47,1.19a50.27,50.27,0,0,0,5.66,4.33,20.18,20.18,0,0,0,8,2.24c6.65.37,12.13-3.2,17-6.35,1.84-1.2,3.58-2.34,5.35-3.26a14.36,14.36,0,0,1,12.68-.33A22.32,22.32,0,0,1,243.1,59l1.47,1.19a50.27,50.27,0,0,0,5.66,4.33,20.18,20.18,0,0,0,8,2.24c5.7.32,11.62-2.12,17.13-7.05l.05,0a35.18,35.18,0,0,1,3.9-2.52,14.4,14.4,0,0,1,6.06-1.63l1.52-5.06A19.31,19.31,0,0,0,277,52.6Z"/>
          <path class="cls-6" d="M277,62a33.09,33.09,0,0,0-3.26,2A15.58,15.58,0,0,0,272,65.25c-3.12,2.79-8,6-13.45,5.75a15.08,15.08,0,0,1-5.94-1.66c-.65-.38-3.56-2.75-4.8-3.76s-1.51-1.23-1.75-1.4a28,28,0,0,0-4.72-2.7,19.71,19.71,0,0,0-17.1.49c-2,1-3.9,2.29-5.77,3.51-4.57,3-8.89,5.8-13.88,5.52a15.08,15.08,0,0,1-5.94-1.66c-.65-.38-3.56-2.75-4.8-3.76s-1.51-1.23-1.75-1.4a27.72,27.72,0,0,0-4.73-2.7,19.69,19.69,0,0,0-17.09.49,26.89,26.89,0,0,0-5.41,4,28.4,28.4,0,0,1-3.54,2.82c-3.6,2.29-6.89,3.31-10.07,3.14a14.84,14.84,0,0,1-5.94-1.67c-.66-.37-3.56-2.74-4.8-3.76s-1.52-1.23-1.75-1.39a27.07,27.07,0,0,0-4.73-2.7,19.66,19.66,0,0,0-17.09.49c-2,1-3.91,2.29-5.77,3.5-4.57,3-8.89,5.8-13.88,5.53a14.84,14.84,0,0,1-5.94-1.67c-.66-.37-3.56-2.74-4.8-3.76S85,65.29,84.79,65.13a27.07,27.07,0,0,0-4.73-2.7A19.66,19.66,0,0,0,63,62.92a35.19,35.19,0,0,0-3.26,2A18.62,18.62,0,0,0,58,66.19C54.86,69,50,72.25,44.53,72a14.93,14.93,0,0,1-5.94-1.67c-.65-.37-3.56-2.74-4.8-3.76S32.28,65.29,32,65.13a27.07,27.07,0,0,0-4.73-2.7,20.1,20.1,0,0,0-6.9-1.67L22,66.07a15.9,15.9,0,0,1,3.25,1,23,23,0,0,1,3.82,2.19c.16.12.86.68,1.47,1.19a50.62,50.62,0,0,0,5.67,4.32,20,20,0,0,0,8,2.24c5.7.32,11.62-2.12,17.13-7l0,0a34.32,34.32,0,0,1,3.91-2.51A14.4,14.4,0,0,1,78,67.1a22.69,22.69,0,0,1,3.83,2.19c.16.12.86.68,1.47,1.19A50.62,50.62,0,0,0,89,74.8,20,20,0,0,0,97,77c6.66.38,12.13-3.2,17-6.34,1.84-1.21,3.58-2.34,5.34-3.26A14.4,14.4,0,0,1,132,67.1a22.69,22.69,0,0,1,3.83,2.19c.16.12.86.68,1.47,1.19a50.62,50.62,0,0,0,5.67,4.32A20,20,0,0,0,151,77l1,0c4,0,7.91-1.3,12.09-3.95a32.33,32.33,0,0,0,4.2-3.32,22.89,22.89,0,0,1,4.39-3.31,14.36,14.36,0,0,1,12.68-.33,22.24,22.24,0,0,1,3.82,2.18l1.47,1.19a50,50,0,0,0,5.67,4.33,20.18,20.18,0,0,0,8,2.24c6.65.37,12.13-3.2,17-6.35,1.84-1.2,3.58-2.33,5.35-3.26a14.36,14.36,0,0,1,12.68-.33,22.32,22.32,0,0,1,3.83,2.18l1.46,1.19a50,50,0,0,0,5.67,4.33,20.18,20.18,0,0,0,8,2.24c5.7.31,11.62-2.12,17.13-7l.05,0a35.18,35.18,0,0,1,3.9-2.52,14.47,14.47,0,0,1,3.1-1.19l1.64-5.44A19.29,19.29,0,0,0,277,62Z"/>
          <path class="cls-7" d="M281.08,69.76A19.05,19.05,0,0,0,277,71.34a33.09,33.09,0,0,0-3.26,2A15.58,15.58,0,0,0,272,74.62c-3.12,2.79-8,6-13.45,5.75a15.08,15.08,0,0,1-5.94-1.66c-.65-.38-3.56-2.75-4.8-3.76s-1.51-1.23-1.75-1.4a27.65,27.65,0,0,0-4.72-2.7,19.71,19.71,0,0,0-17.1.49c-2,1-3.9,2.29-5.77,3.51-4.57,3-8.89,5.8-13.88,5.52a15.08,15.08,0,0,1-5.94-1.66c-.65-.38-3.56-2.75-4.8-3.76s-1.51-1.23-1.75-1.4a27.72,27.72,0,0,0-4.73-2.7,19.69,19.69,0,0,0-17.09.49,26.89,26.89,0,0,0-5.41,4,27.5,27.5,0,0,1-3.54,2.82c-3.6,2.29-6.9,3.32-10.07,3.14a14.84,14.84,0,0,1-5.94-1.67c-.66-.37-3.56-2.74-4.8-3.76s-1.52-1.23-1.75-1.39A27.07,27.07,0,0,0,134,71.8a19.66,19.66,0,0,0-17.09.49c-2,1-3.91,2.29-5.77,3.5-4.57,3-8.89,5.8-13.88,5.53a14.84,14.84,0,0,1-5.94-1.67c-.66-.37-3.56-2.74-4.8-3.76S85,74.66,84.79,74.5a27.07,27.07,0,0,0-4.73-2.7A19.66,19.66,0,0,0,63,72.29a35.19,35.19,0,0,0-3.26,2A18.62,18.62,0,0,0,58,75.56c-3.13,2.8-8,6.06-13.45,5.76a14.93,14.93,0,0,1-5.94-1.67c-.65-.37-3.56-2.74-4.8-3.76S32.28,74.66,32,74.5a27.07,27.07,0,0,0-4.73-2.7,19.75,19.75,0,0,0-3.95-1.27l1.77,5.89.14,0a23,23,0,0,1,3.82,2.19c.16.12.86.68,1.47,1.19a50.62,50.62,0,0,0,5.67,4.32,20,20,0,0,0,8,2.24c5.7.32,11.62-2.12,17.13-7l0-.05a34.32,34.32,0,0,1,3.91-2.51A14.4,14.4,0,0,1,78,76.47a22.69,22.69,0,0,1,3.83,2.19c.16.12.86.68,1.47,1.19A50.62,50.62,0,0,0,89,84.17a20,20,0,0,0,8,2.24c6.67.38,12.13-3.2,17-6.34,1.84-1.21,3.58-2.34,5.34-3.26A14.4,14.4,0,0,1,132,76.47a22.69,22.69,0,0,1,3.83,2.19c.16.12.86.68,1.47,1.19a50.62,50.62,0,0,0,5.67,4.32,20,20,0,0,0,8,2.24l1,0c4,0,7.91-1.3,12.09-4a33.16,33.16,0,0,0,4.2-3.31,22.55,22.55,0,0,1,4.39-3.32,14.36,14.36,0,0,1,12.68-.33,22.11,22.11,0,0,1,3.83,2.19c.15.11.85.68,1.47,1.18a50.27,50.27,0,0,0,5.66,4.33,20.18,20.18,0,0,0,8,2.24c6.66.37,12.13-3.2,17-6.35,1.84-1.2,3.58-2.33,5.35-3.26a14.36,14.36,0,0,1,12.68-.33,22.32,22.32,0,0,1,3.83,2.18l1.47,1.19a50.27,50.27,0,0,0,5.66,4.33,20.18,20.18,0,0,0,8,2.24c5.7.31,11.62-2.12,17.13-7l0,0a35.72,35.72,0,0,1,3.8-2.46Z"/>
          <path class="cls-6" d="M277.52,81.58l.4-1.33-.95.46a35.11,35.11,0,0,0-3.26,2A15.58,15.58,0,0,0,272,84c-3.12,2.79-8,6.06-13.45,5.75a15.08,15.08,0,0,1-5.94-1.66c-.65-.38-3.56-2.75-4.8-3.76s-1.51-1.23-1.75-1.4a27.65,27.65,0,0,0-4.72-2.7,19.71,19.71,0,0,0-17.1.49c-2,1-3.9,2.29-5.77,3.51-4.57,3-8.88,5.79-13.88,5.52a15.08,15.08,0,0,1-5.94-1.66c-.65-.38-3.56-2.75-4.8-3.76s-1.51-1.23-1.75-1.4a27.72,27.72,0,0,0-4.73-2.7,19.69,19.69,0,0,0-17.09.49,26.89,26.89,0,0,0-5.41,4,27.5,27.5,0,0,1-3.54,2.82c-3.6,2.29-6.9,3.31-10.07,3.14A14.84,14.84,0,0,1,145.3,89c-.66-.37-3.56-2.74-4.8-3.75S139,84,138.75,83.87a27.07,27.07,0,0,0-4.73-2.7,19.66,19.66,0,0,0-17.09.49c-2,1-3.91,2.29-5.77,3.5-4.57,3-8.89,5.8-13.88,5.53A14.84,14.84,0,0,1,91.34,89c-.66-.37-3.56-2.74-4.8-3.75S85,84,84.79,83.87a27.07,27.07,0,0,0-4.73-2.7A19.66,19.66,0,0,0,63,81.66a35.19,35.19,0,0,0-3.26,2A18.62,18.62,0,0,0,58,84.93c-3.12,2.8-8,6.06-13.45,5.76A14.93,14.93,0,0,1,38.59,89c-.65-.37-3.56-2.74-4.8-3.75S32.28,84,32,83.87a27.07,27.07,0,0,0-4.73-2.7l-.85-.35.23.76c.66,2.18,1.43,4.3,2.29,6.37l.11.08,1.48,1.19a52,52,0,0,0,5.66,4.33,20.16,20.16,0,0,0,8,2.23c5.7.32,11.62-2.12,17.13-7l0,0a34.32,34.32,0,0,1,3.91-2.51A14.4,14.4,0,0,1,78,85.84,22.69,22.69,0,0,1,81.84,88l1.47,1.19A52.76,52.76,0,0,0,89,93.55a20.16,20.16,0,0,0,8,2.23c6.67.38,12.13-3.2,17-6.34,1.84-1.21,3.58-2.34,5.34-3.26A14.4,14.4,0,0,1,132,85.84,22.69,22.69,0,0,1,135.8,88l1.47,1.19a52.76,52.76,0,0,0,5.67,4.33,20.16,20.16,0,0,0,8,2.23l1,0c4,0,7.91-1.3,12.09-4a33.16,33.16,0,0,0,4.2-3.31,22.55,22.55,0,0,1,4.39-3.32,14.43,14.43,0,0,1,12.68-.33,22.11,22.11,0,0,1,3.83,2.19c.15.11.85.68,1.47,1.19a51,51,0,0,0,5.66,4.32,20.18,20.18,0,0,0,8,2.24c6.65.37,12.13-3.2,17-6.35,1.84-1.2,3.58-2.33,5.35-3.26a14.43,14.43,0,0,1,12.68-.33,21.74,21.74,0,0,1,3.83,2.19c.15.11.85.68,1.47,1.18a50.27,50.27,0,0,0,5.66,4.33,20.22,20.22,0,0,0,8,2.24c5.66.31,11.53-2.09,17-6.94A66.73,66.73,0,0,0,277.52,81.58Z"/>
          <path class="cls-7" d="M273.17,92.45a11,11,0,0,0-1.19.91c-3.12,2.79-8,6-13.45,5.75a15.08,15.08,0,0,1-5.94-1.66c-.65-.38-3.56-2.75-4.8-3.76s-1.51-1.23-1.75-1.4a27.29,27.29,0,0,0-4.72-2.69,19.68,19.68,0,0,0-17.1.48c-2,1-3.9,2.29-5.77,3.51-4.57,3-8.89,5.8-13.88,5.52a15.08,15.08,0,0,1-5.94-1.66c-.65-.38-3.56-2.75-4.8-3.76s-1.51-1.23-1.75-1.4a27,27,0,0,0-4.73-2.69,19.66,19.66,0,0,0-17.09.48,26.89,26.89,0,0,0-5.41,4,27.5,27.5,0,0,1-3.54,2.82c-3.6,2.29-6.89,3.32-10.07,3.14a14.84,14.84,0,0,1-5.94-1.67c-.66-.37-3.56-2.74-4.8-3.75s-1.52-1.24-1.75-1.4a27.07,27.07,0,0,0-4.73-2.7,19.66,19.66,0,0,0-17.09.49c-2,1-3.91,2.29-5.77,3.5-4.57,3-8.89,5.8-13.88,5.53a14.84,14.84,0,0,1-5.94-1.67c-.66-.37-3.56-2.74-4.8-3.75S85,93.4,84.79,93.24a27.07,27.07,0,0,0-4.73-2.7A19.66,19.66,0,0,0,63,91a35.19,35.19,0,0,0-3.26,2A18.62,18.62,0,0,0,58,94.3c-3.12,2.8-8,6.06-13.45,5.76a14.93,14.93,0,0,1-5.94-1.67c-.65-.37-3.56-2.74-4.8-3.75S32.28,93.4,32,93.24s-.61-.42-.91-.61a67.14,67.14,0,0,0,7.16,11.21,19.7,19.7,0,0,0,6,1.31c5.7.32,11.62-2.12,17.13-7l0,0a34.32,34.32,0,0,1,3.91-2.51A14.4,14.4,0,0,1,78,95.21a22.69,22.69,0,0,1,3.83,2.19l1.47,1.19A52.76,52.76,0,0,0,89,102.92a20.16,20.16,0,0,0,8,2.23c6.66.38,12.13-3.2,17-6.34,1.84-1.2,3.58-2.34,5.34-3.26A14.4,14.4,0,0,1,132,95.21a22.69,22.69,0,0,1,3.83,2.19l1.47,1.19a52.76,52.76,0,0,0,5.67,4.33,20.16,20.16,0,0,0,8,2.23l1,0c4,0,7.91-1.3,12.09-4a33.16,33.16,0,0,0,4.2-3.31,22.55,22.55,0,0,1,4.39-3.32,14.43,14.43,0,0,1,12.68-.33,22.11,22.11,0,0,1,3.83,2.19c.15.11.85.68,1.47,1.18a50.27,50.27,0,0,0,5.66,4.33,20.18,20.18,0,0,0,8,2.24c6.65.37,12.13-3.2,17-6.35,1.84-1.2,3.58-2.33,5.35-3.26a14.43,14.43,0,0,1,12.68-.33,21.74,21.74,0,0,1,3.83,2.19c.15.11.85.68,1.47,1.18a50.27,50.27,0,0,0,5.66,4.33,20.18,20.18,0,0,0,8,2.24,19.73,19.73,0,0,0,8.56-1.53A67.35,67.35,0,0,0,273.17,92.45Z"/>
          <path class="cls-6" d="M262.19,108.17a13.46,13.46,0,0,1-3.66.31,15.08,15.08,0,0,1-5.94-1.66c-.65-.38-3.56-2.75-4.8-3.76s-1.51-1.23-1.75-1.4A27.57,27.57,0,0,0,241.32,99a19.68,19.68,0,0,0-17.1.48c-2,1-3.9,2.3-5.77,3.51-4.57,3-8.89,5.8-13.88,5.52a15.08,15.08,0,0,1-5.94-1.66c-.65-.38-3.56-2.74-4.8-3.76s-1.51-1.23-1.75-1.4A27.65,27.65,0,0,0,187.35,99a19.66,19.66,0,0,0-17.09.48,26.89,26.89,0,0,0-5.41,4,28.5,28.5,0,0,1-3.54,2.83c-3.6,2.28-6.9,3.31-10.07,3.13a14.84,14.84,0,0,1-5.94-1.67c-.66-.37-3.56-2.74-4.8-3.75s-1.52-1.24-1.75-1.4a27.07,27.07,0,0,0-4.73-2.7,19.66,19.66,0,0,0-17.09.49c-2,1-3.91,2.29-5.77,3.5-4.57,3-8.89,5.8-13.88,5.53a14.84,14.84,0,0,1-5.94-1.67c-.66-.37-3.56-2.74-4.8-3.75s-1.52-1.24-1.75-1.4a27.07,27.07,0,0,0-4.73-2.7A19.66,19.66,0,0,0,63,100.4a35.19,35.19,0,0,0-3.26,2A16.81,16.81,0,0,0,58,103.68c-3.13,2.79-8,6-13.45,5.75a12.42,12.42,0,0,1-1.48-.17,66.15,66.15,0,0,0,5.47,5,26.62,26.62,0,0,0,12.86-6.77l0,0a35.78,35.78,0,0,1,3.91-2.51A14.4,14.4,0,0,1,78,104.58a22.69,22.69,0,0,1,3.83,2.19L83.31,108A52.76,52.76,0,0,0,89,112.29a20.16,20.16,0,0,0,8,2.23c6.67.38,12.13-3.2,17-6.34,1.84-1.2,3.58-2.34,5.34-3.26a14.4,14.4,0,0,1,12.68-.34,22.69,22.69,0,0,1,3.83,2.19l1.47,1.19a52.76,52.76,0,0,0,5.67,4.33,20.16,20.16,0,0,0,8,2.23l1,0c4,0,7.91-1.3,12.09-4a33.16,33.16,0,0,0,4.2-3.31,22.55,22.55,0,0,1,4.39-3.32,14.43,14.43,0,0,1,12.68-.33,22.11,22.11,0,0,1,3.83,2.19c.15.11.85.68,1.47,1.19a51,51,0,0,0,5.66,4.32,20.18,20.18,0,0,0,8,2.24c6.66.37,12.13-3.2,17-6.35,1.84-1.2,3.58-2.33,5.35-3.26a14.43,14.43,0,0,1,12.68-.33,21.74,21.74,0,0,1,3.83,2.19c.15.11.85.68,1.47,1.18a50.27,50.27,0,0,0,5.66,4.33,20.77,20.77,0,0,0,6.46,2.08A68.2,68.2,0,0,0,262.19,108.17Z"/>
          <path class="cls-7" d="M252.59,116.19c-.65-.38-3.56-2.75-4.8-3.76s-1.51-1.23-1.75-1.4a27.57,27.57,0,0,0-4.72-2.69,19.68,19.68,0,0,0-17.1.48c-2,1-3.9,2.3-5.77,3.51-4.57,3-8.88,5.79-13.88,5.52a15.08,15.08,0,0,1-5.94-1.66c-.65-.38-3.56-2.74-4.8-3.76s-1.51-1.23-1.75-1.4a27.65,27.65,0,0,0-4.73-2.69,19.66,19.66,0,0,0-17.09.48,26.89,26.89,0,0,0-5.41,4,28.5,28.5,0,0,1-3.54,2.83c-3.6,2.28-6.9,3.3-10.07,3.13a14.84,14.84,0,0,1-5.94-1.67c-.66-.37-3.56-2.74-4.81-3.76s-1.5-1.23-1.74-1.39a27.07,27.07,0,0,0-4.73-2.7,19.66,19.66,0,0,0-17.09.49c-2,1-3.91,2.29-5.77,3.51-4.57,3-8.89,5.79-13.88,5.52a14.84,14.84,0,0,1-5.94-1.67c-.66-.37-3.57-2.74-4.81-3.76S85,112.14,84.79,112a27.07,27.07,0,0,0-4.73-2.7,19.66,19.66,0,0,0-17.09.49,35.19,35.19,0,0,0-3.26,2A16.81,16.81,0,0,0,58,113.05a26.79,26.79,0,0,1-5.79,4q2.34,1.67,4.82,3.13a34.18,34.18,0,0,0,4.37-3.33s0,0,0,0a34.09,34.09,0,0,1,3.91-2.52A14.4,14.4,0,0,1,78,114a22.69,22.69,0,0,1,3.83,2.19l1.47,1.18A52,52,0,0,0,89,121.66a20.16,20.16,0,0,0,8,2.23c6.66.38,12.13-3.19,17-6.34,1.84-1.2,3.58-2.34,5.34-3.26A14.4,14.4,0,0,1,132,114a22.69,22.69,0,0,1,3.83,2.19l1.47,1.18a52,52,0,0,0,5.67,4.34,20.16,20.16,0,0,0,8,2.23l1,0c4,0,7.91-1.3,12.09-4a33.16,33.16,0,0,0,4.2-3.31,22.55,22.55,0,0,1,4.39-3.32,14.43,14.43,0,0,1,12.68-.33,22.11,22.11,0,0,1,3.83,2.19c.15.11.85.68,1.47,1.19a51,51,0,0,0,5.66,4.32,20,20,0,0,0,8,2.24c6.65.37,12.13-3.2,17-6.35,1.84-1.2,3.58-2.33,5.35-3.26a14.43,14.43,0,0,1,12.68-.33,21.74,21.74,0,0,1,3.83,2.19c.15.11.85.68,1.47,1.18,1.66,1.36,2.9,2.36,3.84,3.08q2.34-1.45,4.56-3.09Z"/>
          <path class="cls-6" d="M246,120.4a28,28,0,0,0-4.72-2.69,19.71,19.71,0,0,0-17.1.48c-2,1-3.9,2.3-5.77,3.51-4.57,3-8.88,5.8-13.88,5.52a15.08,15.08,0,0,1-5.94-1.66c-.65-.38-3.56-2.74-4.8-3.76s-1.51-1.23-1.75-1.4a27.65,27.65,0,0,0-4.73-2.69,19.69,19.69,0,0,0-17.09.48,26.89,26.89,0,0,0-5.41,4,28.5,28.5,0,0,1-3.54,2.83c-3.6,2.28-6.9,3.3-10.07,3.13a14.84,14.84,0,0,1-5.94-1.67c-.66-.37-3.56-2.74-4.8-3.75s-1.52-1.24-1.75-1.4a27.07,27.07,0,0,0-4.73-2.7,19.66,19.66,0,0,0-17.09.49c-2,1-3.91,2.29-5.77,3.51-4.57,3-8.89,5.8-13.88,5.52a14.84,14.84,0,0,1-5.94-1.67c-.66-.37-3.56-2.74-4.8-3.75s-1.52-1.24-1.75-1.4a27.07,27.07,0,0,0-4.73-2.7,19.66,19.66,0,0,0-17.09.49,35.19,35.19,0,0,0-3.26,2l-.45.32q2.63,1.41,5.37,2.6l.7-.39A14.4,14.4,0,0,1,78,123.32a22.69,22.69,0,0,1,3.83,2.19l1.47,1.19c1.37,1.11,2.44,2,3.3,2.65,1.53.11,3.07.17,4.61.17H109.8c1.44-.84,2.82-1.74,4.15-2.6,1.84-1.2,3.58-2.34,5.34-3.26a14.4,14.4,0,0,1,12.68-.34,22.69,22.69,0,0,1,3.83,2.19l1.47,1.19c1.49,1.21,2.63,2.13,3.52,2.82h23l.29-.18a33.16,33.16,0,0,0,4.2-3.31,22.55,22.55,0,0,1,4.39-3.32,14.43,14.43,0,0,1,12.68-.33,22.11,22.11,0,0,1,3.83,2.19c.15.11.85.68,1.47,1.19,2.31,1.88,3.8,3.08,4.78,3.76H213c.84,0,1.68,0,2.51-.05,2-1.07,3.93-2.31,5.74-3.5s3.58-2.33,5.35-3.26a14.43,14.43,0,0,1,12.68-.33,19.93,19.93,0,0,1,1.9,1q2.67-1.23,5.21-2.68Z"/>
          <path class="cls-7" d="M134,128a19.66,19.66,0,0,0-17.09.49c-.61.32-1.21.66-1.81,1h21.77A25.43,25.43,0,0,0,134,128Z"/>
          <path class="cls-7" d="M80.06,128a20,20,0,0,0-9.25-1.67,67.47,67.47,0,0,0,10.91,2.49C81.17,128.54,80.61,128.26,80.06,128Z"/>
          <path class="cls-7" d="M191.71,129.52a26.78,26.78,0,0,0-4.35-2.44,19.68,19.68,0,0,0-17.1.48,19.94,19.94,0,0,0-3,2Z"/>
          <path class="cls-7" d="M224.22,127.56c-.81.43-1.61.89-2.4,1.37a66.39,66.39,0,0,0,14-3.4A19.51,19.51,0,0,0,224.22,127.56Z"/>
          <polygon class="cls-8" points="149.55 9 149.55 129.52 152.1 129.52 154.66 129.52 154.66 9 152.1 9 149.55 9"/>
          <path class="cls-8" d="M274.13,9,254.91,80.65A100.33,100.33,0,0,1,241.7,110c-4.56,6.91-8.73,12.83-12.32,17.51a66.46,66.46,0,0,0,8.34-2.69q3.83-5.32,8.23-12A105.49,105.49,0,0,0,259.84,82L279.41,9Z"/>
          <path class="cls-8" d="M236.32,9c0,.47-.11,1-.17,1.45-2.69,21.71-7.7,62.13-12.34,75.92-4.7,14-13.12,28.14-25.69,43.15h6.6c11.51-14.31,19.37-28,23.93-41.52,4.8-14.29,9.85-55,12.56-76.92.09-.72.17-1.41.26-2.08Z"/>
          <path class="cls-8" d="M198,9c0,.54,0,1.08-.07,1.64-.9,21.86-2.58,62.56-6.06,76.69-3.32,13.46-9.91,27.31-20,42.19H178c9.4-14.32,15.61-27.79,18.86-41,3.61-14.63,5.3-55.66,6.21-77.7,0-.63.05-1.25.07-1.85Z"/>
          <path class="cls-8" d="M44.37,80.57A105.6,105.6,0,0,0,58.25,111.4q5.24,7.93,9.64,13.95a67.9,67.9,0,0,0,8.27,2.46c-3.88-4.91-8.52-11.44-13.65-19.22A100.33,100.33,0,0,1,49.3,79.25L30.46,9H25.18Z"/>
          <path class="cls-8" d="M63,9.68c2.71,21.89,7.76,62.64,12.56,76.92,4.71,14,12.93,28.1,25.06,42.92h6.65C94,114,85.24,99.41,80.39,85c-4.63-13.8-9.64-54.21-12.33-75.93V9H62.92C63,9.23,63,9.45,63,9.68Z"/>
          <path class="cls-8" d="M101.17,9.46c.91,22,2.6,63.06,6.21,77.69,3.36,13.61,9.85,27.53,19.78,42.37h6.18c-10.69-15.41-17.58-29.71-21-43.59-3.49-14.13-5.16-54.82-6.06-76.68V9h-5.11Z"/>
          <path class="cls-6" d="M143.54,31.49c-1.07-.84-2.33-1.87-3-2.45-1.11-.9-1.52-1.23-1.75-1.4A27.65,27.65,0,0,0,134,25a19.69,19.69,0,0,0-17.09.48c-2,1-3.91,2.3-5.77,3.51-4.57,3-8.89,5.8-13.88,5.53a14.84,14.84,0,0,1-5.94-1.67c-.66-.37-3.56-2.74-4.8-3.76s-1.52-1.23-1.75-1.4A27.65,27.65,0,0,0,80.06,25a20.25,20.25,0,0,0-5-1.46,13.73,13.73,0,0,0,0,1.81c.09.42.2.84.33,1.25a6.87,6.87,0,0,1,.32,2.26,15.47,15.47,0,0,1,2.31.81,22,22,0,0,1,3.83,2.19c.16.11.86.68,1.47,1.19A50.62,50.62,0,0,0,89,37.32a20,20,0,0,0,8,2.24c6.67.38,12.13-3.2,17-6.35,1.84-1.2,3.58-2.33,5.34-3.25A14.4,14.4,0,0,1,132,29.62a22,22,0,0,1,3.83,2.19c.16.11.86.68,1.47,1.19a51.11,51.11,0,0,0,5.64,4.3A42.8,42.8,0,0,1,143.54,31.49Z"/>
          <path class="cls-6" d="M229.12,26c-.09-.51-.18-1-.29-1.52a9.12,9.12,0,0,1-.21-1.61,19.36,19.36,0,0,0-4.4,1.65c-2,1-3.9,2.29-5.77,3.51-4.57,3-8.89,5.8-13.88,5.52a14.93,14.93,0,0,1-5.94-1.67c-.65-.37-3.56-2.74-4.8-3.75s-1.51-1.24-1.75-1.4a27.07,27.07,0,0,0-4.73-2.7,19.66,19.66,0,0,0-17.09.49,27.24,27.24,0,0,0-5.41,4,28.5,28.5,0,0,1-3.54,2.83,23.18,23.18,0,0,1-2.38,1.34.17.17,0,0,0,0,.07c-.22,1.32-.46,2.64-.72,3.95.34-1.73,0,.3,0,.61s.07.9.08,1.17A27.16,27.16,0,0,0,164,35.64a33.21,33.21,0,0,0,4.2-3.32A22.89,22.89,0,0,1,172.63,29a14.4,14.4,0,0,1,12.68-.34,23.49,23.49,0,0,1,3.83,2.19l1.47,1.19a51.66,51.66,0,0,0,5.66,4.33,20.16,20.16,0,0,0,8,2.23c6.66.38,12.13-3.19,17-6.34,1.84-1.2,3.58-2.34,5.35-3.26a13.92,13.92,0,0,1,2.71-1.08C229.24,27.27,229.19,26.62,229.12,26Z"/>
          <path class="cls-6" d="M294.06,24a19.66,19.66,0,0,0-17.09.49,33.09,33.09,0,0,0-3.26,2A15.58,15.58,0,0,0,272,27.77c-3.12,2.79-8,6.06-13.45,5.75a14.93,14.93,0,0,1-5.94-1.67c-.65-.37-3.56-2.74-4.8-3.75s-1.51-1.23-1.75-1.4c-.49-.35-1-.67-1.49-1,.1.91.18,1.82.25,2.73a6.17,6.17,0,0,1-.65,3.26l.42.34a51.66,51.66,0,0,0,5.66,4.33,20.16,20.16,0,0,0,8,2.23c5.7.33,11.62-2.12,17.13-7a.1.1,0,0,1,.05,0,35.18,35.18,0,0,1,3.9-2.52A14.4,14.4,0,0,1,292,28.67c.43.19.85.4,1.28.63l1.49-5Z"/>
          <path class="cls-6" d="M59.79,27.38l-.08.05A17,17,0,0,0,58,28.71c-3.13,2.79-8,6.06-13.45,5.76a14.93,14.93,0,0,1-5.94-1.67c-.65-.37-3.56-2.74-4.8-3.76s-1.51-1.23-1.75-1.4A27.65,27.65,0,0,0,27.31,25a19.69,19.69,0,0,0-17.09.48l-.4.22,1.51,5c.42-.24.84-.48,1.26-.69a14.4,14.4,0,0,1,12.68-.34,22.32,22.32,0,0,1,3.82,2.19c.16.11.86.68,1.48,1.19a50,50,0,0,0,5.66,4.32,20,20,0,0,0,8,2.24c5.69.32,11.61-2.12,17.11-7a8,8,0,0,1-.88-1.87A17.6,17.6,0,0,1,59.79,27.38Z"/>
          <path class="cls-7" d="M12.3,33.87l1.48,4.9A14.45,14.45,0,0,1,25.27,39a21.61,21.61,0,0,1,2.18,1.13,7.81,7.81,0,0,1,1.9-4.79c-.68-.37-1.36-.71-2-1A19.74,19.74,0,0,0,12.3,33.87Z"/>
          <path class="cls-7" d="M259.59,46c.19-1,.39-2.1.61-3.13a13.27,13.27,0,0,1-1.67,0,15.08,15.08,0,0,1-5.94-1.66c-.65-.38-3.56-2.75-4.8-3.76s-1.51-1.23-1.75-1.4a27.65,27.65,0,0,0-4.72-2.7,19.68,19.68,0,0,0-17.1.49c-2,1-3.9,2.29-5.77,3.51a46.41,46.41,0,0,1-7.81,4.42c0,.12,0,.24-.07.35-.44,1.78-.81,3.57-1.16,5.37,4.43-1,8.31-3.57,11.83-5.87,1.84-1.2,3.58-2.34,5.35-3.26A14.4,14.4,0,0,1,239.27,38a23.08,23.08,0,0,1,3.83,2.19l1.46,1.19a51.32,51.32,0,0,0,5.67,4.33,20,20,0,0,0,8,2.23c.4,0,.8,0,1.2,0A10.4,10.4,0,0,1,259.59,46Z"/>
          <path class="cls-7" d="M277,33.86l-.15.08a8.27,8.27,0,0,1,.74,5.49c.58-.38,1.2-.75,1.77-1a14.3,14.3,0,0,1,11.46-.81l1.47-4.88A19.55,19.55,0,0,0,277,33.86Z"/>
          <path class="cls-7" d="M190.19,34.85a27.55,27.55,0,0,0-2.84-1.48,19.66,19.66,0,0,0-17.09.49,27.24,27.24,0,0,0-5.41,4,28.5,28.5,0,0,1-3.54,2.83c-3.6,2.29-6.9,3.31-10.07,3.14a14.84,14.84,0,0,1-5.94-1.67c-.66-.37-3.56-2.74-4.8-3.76S139,37.18,138.75,37A27.65,27.65,0,0,0,134,34.32a19.66,19.66,0,0,0-17.09.49c-1.35.7-2.68,1.51-4,2.34a8.14,8.14,0,0,1,.42,5.8l.57-.37c1.84-1.2,3.58-2.33,5.34-3.25A14.4,14.4,0,0,1,132,39a22,22,0,0,1,3.83,2.19c.16.11.86.68,1.47,1.19a50.62,50.62,0,0,0,5.67,4.32,20,20,0,0,0,8,2.24l1,0c4,0,7.91-1.3,12.09-4a33.21,33.21,0,0,0,4.2-3.32,22.89,22.89,0,0,1,4.39-3.31A14.4,14.4,0,0,1,185.31,38a21.66,21.66,0,0,1,2.78,1.5A7.38,7.38,0,0,1,190.19,34.85Z"/>
          <path class="cls-7" d="M97.38,43.84h-.1a14.84,14.84,0,0,1-5.94-1.67c-.66-.37-3.56-2.74-4.8-3.76S85,37.18,84.79,37a27.65,27.65,0,0,0-4.73-2.69A19.66,19.66,0,0,0,63,34.81a35.19,35.19,0,0,0-3.26,2A18.62,18.62,0,0,0,58,38.08c-2.87,2.57-7.21,5.52-12.12,5.75a7.71,7.71,0,0,1,.52,5.09c5-.31,10.17-2.72,15-7l0,0a34.32,34.32,0,0,1,3.91-2.51A14.4,14.4,0,0,1,78,39a22,22,0,0,1,3.83,2.19c.16.11.86.68,1.47,1.18A50,50,0,0,0,89,46.69a20,20,0,0,0,8,2.24l.78,0A29.47,29.47,0,0,1,97.38,43.84Z"/>
          <path class="cls-6" d="M62,44.73c-.84.5-1.65,1-2.26,1.44A18.62,18.62,0,0,0,58,47.45c-3.13,2.8-8,6.06-13.45,5.76a14.93,14.93,0,0,1-5.94-1.67c-.66-.37-3.56-2.75-4.8-3.76s-1.51-1.23-1.75-1.4a27.65,27.65,0,0,0-4.73-2.69,19.84,19.84,0,0,0-12.42-1.23l1.48,4.88a14.68,14.68,0,0,1,8.9,1,22.32,22.32,0,0,1,3.82,2.19c.16.11.86.68,1.47,1.18a50,50,0,0,0,5.67,4.33,20,20,0,0,0,8,2.24c5.7.32,11.62-2.12,17.13-7l0,0c.41-.31,1.63-1.17,2.85-1.91l-.15-.19A9.25,9.25,0,0,1,62,44.73Z"/>
          <path class="cls-6" d="M144.23,50.77c-1.16-.88-2.86-2.27-3.74-3-1.1-.9-1.5-1.23-1.74-1.4A27.65,27.65,0,0,0,134,43.69a19.66,19.66,0,0,0-17.09.49c-2,1-3.91,2.29-5.77,3.5-4.57,3-8.89,5.8-13.88,5.53a14.84,14.84,0,0,1-5.94-1.67c-.66-.37-3.57-2.75-4.81-3.76s-1.51-1.23-1.74-1.4a27.65,27.65,0,0,0-4.73-2.69l-.81-.33a22,22,0,0,1,1.89,3,8.43,8.43,0,0,1,1,4.42l1.2,1A50,50,0,0,0,89,56.06a20,20,0,0,0,8,2.24c6.67.38,12.13-3.2,17-6.35,1.84-1.2,3.58-2.33,5.34-3.25A14.4,14.4,0,0,1,132,48.36a22,22,0,0,1,3.83,2.19c.16.11.85.68,1.47,1.18a50,50,0,0,0,5.67,4.33c.26.14.52.26.79.38A13,13,0,0,1,144.23,50.77Z"/>
          <path class="cls-6" d="M277,43.23a33.09,33.09,0,0,0-3.26,2A15.58,15.58,0,0,0,272,46.51c-3.12,2.79-8,6.05-13.45,5.75a15.08,15.08,0,0,1-5.94-1.66c-.65-.38-3.56-2.75-4.8-3.76s-1.51-1.23-1.75-1.4a27.05,27.05,0,0,0-4.61-2.64c0,1.88-.05,3.76-.16,5.64.61.35,1.22.74,1.83,1.16l1.47,1.19a51.66,51.66,0,0,0,5.66,4.33,20,20,0,0,0,8,2.23c5.7.32,11.62-2.11,17.13-7l0,0a35.53,35.53,0,0,1,3.91-2.52,14.17,14.17,0,0,1,8.83-1.47l1.48-4.9A19.41,19.41,0,0,0,277,43.23Z"/>
          <path class="cls-6" d="M226,42.43c-.59.24-1.17.5-1.74.8-2,1-3.9,2.29-5.77,3.51-4.57,3-8.88,5.79-13.88,5.52a15.08,15.08,0,0,1-5.94-1.66c-.65-.38-3.56-2.75-4.8-3.76s-1.51-1.23-1.75-1.4a27.72,27.72,0,0,0-4.73-2.7,19.66,19.66,0,0,0-17.09.49,26.89,26.89,0,0,0-5.41,4,28.4,28.4,0,0,1-3.54,2.82c-.5.32-1,.61-1.48.88a7.56,7.56,0,0,1-.56,4.84c.08.32.18.63.27,1a28.7,28.7,0,0,0,4.5-2.36,33.21,33.21,0,0,0,4.2-3.32,22.89,22.89,0,0,1,4.39-3.31,14.4,14.4,0,0,1,12.68-.34,23.49,23.49,0,0,1,3.83,2.19l1.47,1.19a51.66,51.66,0,0,0,5.66,4.33,20,20,0,0,0,8,2.23c6.66.38,12.13-3.19,17-6.34,1.58-1,3.08-2,4.59-2.84C225.94,46.26,226,44.35,226,42.43Z"/>
          <path class="cls-7" d="M32,55.76a27.07,27.07,0,0,0-4.73-2.7,20.08,20.08,0,0,0-9.72-1.65l1.52,5a15.06,15.06,0,0,1,6.16,1.3,23,23,0,0,1,3.82,2.19c.16.12.86.68,1.48,1.19l1.58,1.28a9.94,9.94,0,0,1,.22-1.45,7.27,7.27,0,0,1,2-3.35l-.53-.44C32.69,56.25,32.28,55.92,32,55.76Z"/>
          <path class="cls-7" d="M98.8,65.35c-.17-.91-.31-1.84-.44-2.77a9.73,9.73,0,0,1-1.08,0,14.84,14.84,0,0,1-5.94-1.67c-.66-.37-3.56-2.74-4.8-3.76S85,55.92,84.79,55.76a27.07,27.07,0,0,0-4.73-2.7A19.66,19.66,0,0,0,63,53.55a35.19,35.19,0,0,0-3.26,2A18.62,18.62,0,0,0,58,56.82a23.18,23.18,0,0,1-9,5.24,27.12,27.12,0,0,1,1.27,4,7.78,7.78,0,0,1,.17.92,28.08,28.08,0,0,0,11-6.33l0-.05a34.32,34.32,0,0,1,3.91-2.51A14.4,14.4,0,0,1,78,57.73a22.69,22.69,0,0,1,3.83,2.19c.16.12.86.68,1.47,1.19A50.62,50.62,0,0,0,89,65.43a20,20,0,0,0,8,2.24,16.81,16.81,0,0,0,2.25,0C99.09,66.88,98.93,66.12,98.8,65.35Z"/>
          <path class="cls-7" d="M253.38,60.34l-.79-.37c-.65-.38-3.56-2.75-4.8-3.76S246.28,55,246,54.81a28,28,0,0,0-4.72-2.7,19.68,19.68,0,0,0-17.1.49c-2,1-3.9,2.29-5.77,3.51-4.57,3-8.88,5.79-13.88,5.52l-.33,0c-.15,1.69-.23,3.39-.28,5.1l.33,0c6.65.37,12.13-3.2,17-6.35,1.84-1.2,3.58-2.34,5.35-3.26a14.36,14.36,0,0,1,12.68-.33A22.32,22.32,0,0,1,243.1,59l1.47,1.19a50.27,50.27,0,0,0,5.66,4.33c.65.33,1.32.63,2,.9A38.56,38.56,0,0,1,253.38,60.34Z"/>
          <path class="cls-7" d="M277,52.6a33.09,33.09,0,0,0-3.26,2A15.58,15.58,0,0,0,272,55.88c-.34.3-.71.61-1.09.92a6.13,6.13,0,0,1-1,5,11.4,11.4,0,0,0-1.49,2.69,31.36,31.36,0,0,0,7-4.8l.05,0a35.18,35.18,0,0,1,3.9-2.52,14.4,14.4,0,0,1,6.06-1.63l1.52-5.06A19.31,19.31,0,0,0,277,52.6Z"/>
          <path class="cls-7" d="M189.14,59c.14-1.47.31-2.95.52-4.42a5.66,5.66,0,0,1,.3-1.11,24.83,24.83,0,0,0-2.61-1.34,19.66,19.66,0,0,0-17.09.49,26.89,26.89,0,0,0-5.41,4,28.4,28.4,0,0,1-3.54,2.82c-3.6,2.29-6.9,3.31-10.07,3.14a14.84,14.84,0,0,1-5.94-1.67c-.66-.37-3.56-2.74-4.8-3.76s-1.52-1.23-1.75-1.39a27.07,27.07,0,0,0-4.73-2.7,19.66,19.66,0,0,0-17.09.49c-1.35.7-2.66,1.5-4,2.33a7.75,7.75,0,0,1,.46,2.43,24.45,24.45,0,0,0,.31,3.15,1.37,1.37,0,0,1,.2-.13c1.84-1.21,3.58-2.34,5.34-3.26A14.4,14.4,0,0,1,132,57.73a22.69,22.69,0,0,1,3.83,2.19c.16.12.86.68,1.47,1.19a50.62,50.62,0,0,0,5.67,4.32,20,20,0,0,0,8,2.24l1,0c4,0,7.91-1.3,12.09-4a33.21,33.21,0,0,0,4.2-3.32,22.89,22.89,0,0,1,4.39-3.31,14.36,14.36,0,0,1,12.68-.33A22.7,22.7,0,0,1,189.14,59Z"/>
          <path class="cls-6" d="M63,62.92a35.19,35.19,0,0,0-3.26,2A18.62,18.62,0,0,0,58,66.19C54.86,69,50,72.25,44.53,72a14.93,14.93,0,0,1-5.94-1.67c-.65-.37-3.56-2.74-4.8-3.76S32.28,65.29,32,65.13a27.07,27.07,0,0,0-4.73-2.7,20.1,20.1,0,0,0-6.9-1.67L22,66.07a15.9,15.9,0,0,1,3.25,1,23,23,0,0,1,3.82,2.19c.16.12.86.68,1.47,1.19a50.62,50.62,0,0,0,5.67,4.32,20,20,0,0,0,8,2.24c5.7.32,11.62-2.12,17.13-7l0,0a36.66,36.66,0,0,1,3.84-2.48c-.36-1.73-.68-3.47-.87-5.22C63.91,62.46,63.43,62.67,63,62.92Z"/>
          <path class="cls-6" d="M144.59,69.79c-1.13-.85-3.12-2.47-4.09-3.27s-1.52-1.23-1.75-1.39a27.07,27.07,0,0,0-4.73-2.7,19.66,19.66,0,0,0-17.09.49c-2,1-3.91,2.29-5.77,3.5-4.57,3-8.89,5.8-13.88,5.53a14.84,14.84,0,0,1-5.94-1.67c-.66-.37-3.56-2.74-4.8-3.76S85,65.29,84.79,65.13a27.07,27.07,0,0,0-4.73-2.7l0,0c.15.76.33,1.58.55,2.6.3,1.35.62,2.69.92,4l.36.24c.16.12.86.68,1.47,1.19A50.62,50.62,0,0,0,89,74.8,20,20,0,0,0,97,77c6.66.38,12.13-3.2,17-6.34,1.84-1.21,3.58-2.34,5.34-3.26A14.4,14.4,0,0,1,132,67.1a22.69,22.69,0,0,1,3.83,2.19c.16.12.86.68,1.47,1.19a50.62,50.62,0,0,0,5.67,4.32c.48.25,1,.47,1.46.68C144.45,73.58,144.52,71.69,144.59,69.79Z"/>
          <path class="cls-6" d="M224.7,67.56a20.32,20.32,0,0,0,.53-4.36c0-.16,0-1.05-.06-1.69-.32.14-.63.3-.95.46-2,1-3.9,2.29-5.77,3.51-4.57,3-8.89,5.8-13.88,5.52a15.08,15.08,0,0,1-5.94-1.66c-.65-.38-3.56-2.75-4.8-3.76s-1.51-1.23-1.75-1.4a27.72,27.72,0,0,0-4.73-2.7,19.69,19.69,0,0,0-17.09.49,26.89,26.89,0,0,0-5.41,4,28.4,28.4,0,0,1-3.54,2.82c-.42.27-.84.52-1.25.75-.07,1.93-.15,3.85-.2,5.78A29.85,29.85,0,0,0,164,73.12a32.33,32.33,0,0,0,4.2-3.32,22.89,22.89,0,0,1,4.39-3.31,14.36,14.36,0,0,1,12.68-.33,22.24,22.24,0,0,1,3.82,2.18l1.47,1.19a50,50,0,0,0,5.67,4.33,20.18,20.18,0,0,0,8,2.24c6.65.37,12.13-3.2,17-6.35C222.43,69,223.57,68.24,224.7,67.56Z"/>
          <path class="cls-6" d="M277,62a33.09,33.09,0,0,0-3.26,2A15.58,15.58,0,0,0,272,65.25c-3.12,2.79-8,6-13.45,5.75a15.08,15.08,0,0,1-5.94-1.66c-.65-.38-3.56-2.75-4.8-3.76s-1.51-1.23-1.75-1.4a28,28,0,0,0-4.72-2.7l-.72-.29a35.34,35.34,0,0,1-.18,5.53,23.89,23.89,0,0,1,2.68,1.62l1.46,1.19a50,50,0,0,0,5.67,4.33,20.18,20.18,0,0,0,8,2.24c5.7.31,11.62-2.12,17.13-7l.05,0a35.18,35.18,0,0,1,3.9-2.52,14.47,14.47,0,0,1,3.1-1.19l1.64-5.44A19.29,19.29,0,0,0,277,62Z"/>
          <path class="cls-7" d="M38.79,79.75l-.2-.1c-.65-.37-3.56-2.74-4.8-3.76S32.28,74.66,32,74.5a27.07,27.07,0,0,0-4.73-2.7,19.75,19.75,0,0,0-3.95-1.27l1.77,5.89.14,0a23,23,0,0,1,3.82,2.19c.16.12.86.68,1.47,1.19a50.62,50.62,0,0,0,5.67,4.32A20,20,0,0,0,39,85.36a24.23,24.23,0,0,1-.55-3A5.68,5.68,0,0,1,38.79,79.75Z"/>
          <path class="cls-7" d="M100.9,81a12.83,12.83,0,0,1-3.62.33,14.84,14.84,0,0,1-5.94-1.67c-.66-.37-3.56-2.74-4.8-3.76S85,74.66,84.79,74.5a27.07,27.07,0,0,0-4.73-2.7A19.66,19.66,0,0,0,63,72.29a35.19,35.19,0,0,0-3.26,2A18.62,18.62,0,0,0,58,75.56,28,28,0,0,1,53,79.13a10.83,10.83,0,0,1,.9,3.2c-.29-2.51.07-.14.23.43s.27.88.41,1.32a31.59,31.59,0,0,0,6.81-4.71l0-.05a34.32,34.32,0,0,1,3.91-2.51A14.4,14.4,0,0,1,78,76.47a22.69,22.69,0,0,1,3.83,2.19c.16.12.86.68,1.47,1.19A50.62,50.62,0,0,0,89,84.17a20,20,0,0,0,8,2.24,17.7,17.7,0,0,0,5.34-.53A41.24,41.24,0,0,1,100.9,81Z"/>
          <path class="cls-7" d="M188,76.94a16.55,16.55,0,0,1,2.6-4.39,25.4,25.4,0,0,0-3.2-1.7,19.69,19.69,0,0,0-17.09.49,26.89,26.89,0,0,0-5.41,4,27.5,27.5,0,0,1-3.54,2.82c-3.6,2.29-6.9,3.32-10.07,3.14a14.84,14.84,0,0,1-5.94-1.67c-.66-.37-3.56-2.74-4.8-3.76s-1.52-1.23-1.75-1.39A27.07,27.07,0,0,0,134,71.8a19.66,19.66,0,0,0-17.09.49c-.64.33-1.27.69-1.89,1.06a7.34,7.34,0,0,1,.68,1.61,7.65,7.65,0,0,1,.25,2.49c0,.22.09.43.15.64l.15.48c1-.64,2-1.24,3-1.76A14.4,14.4,0,0,1,132,76.47a22.69,22.69,0,0,1,3.83,2.19c.16.12.86.68,1.47,1.19a50.62,50.62,0,0,0,5.67,4.32,20,20,0,0,0,8,2.24l1,0c4,0,7.91-1.3,12.09-4a33.16,33.16,0,0,0,4.2-3.31,22.55,22.55,0,0,1,4.39-3.32,14.36,14.36,0,0,1,12.68-.33A20.58,20.58,0,0,1,188,76.94Z"/>
          <path class="cls-7" d="M247.79,75c-1.1-.9-1.51-1.23-1.75-1.4a27.65,27.65,0,0,0-4.72-2.7,19.71,19.71,0,0,0-17.1.49c-2,1-3.9,2.29-5.77,3.51-4,2.64-7.88,5.13-12.17,5.48-.26,1.75-.62,3.45-1,5.16,6.22,0,11.39-3.38,16-6.37,1.84-1.2,3.58-2.33,5.35-3.26a14.36,14.36,0,0,1,12.68-.33,22.32,22.32,0,0,1,3.83,2.18l1.47,1.19c2.21,1.81,3.67,3,4.65,3.68q.54-2.82,1-5.64Z"/>
          <path class="cls-7" d="M281.08,69.76A19.05,19.05,0,0,0,277,71.34a33.09,33.09,0,0,0-3.26,2A15.58,15.58,0,0,0,272,74.62,25.81,25.81,0,0,1,265.47,79c0,.32-.06.64-.11,1-.28,1.61-.57,3.21-.87,4.82a28.19,28.19,0,0,0,10.89-6.32l0,0a35.72,35.72,0,0,1,3.8-2.46Z"/>
          <path class="cls-6" d="M142.11,86.58l-1.61-1.31c-1.11-.91-1.52-1.24-1.75-1.4a27.07,27.07,0,0,0-4.73-2.7,19.66,19.66,0,0,0-17.09.49c-2,1-3.91,2.29-5.77,3.5-4.57,3-8.89,5.8-13.88,5.53A14.84,14.84,0,0,1,91.34,89c-.66-.37-3.56-2.74-4.8-3.75S85,84,84.79,83.87L84,83.32c1,2.59,2.08,5.18,3,7.8a6,6,0,0,1,.31,1.3A14.62,14.62,0,0,0,89,93.55a20.16,20.16,0,0,0,8,2.23c6.67.38,12.13-3.2,17-6.34,1.84-1.21,3.58-2.34,5.34-3.26A14.4,14.4,0,0,1,132,85.84,22.69,22.69,0,0,1,135.8,88l1.47,1.19a52.76,52.76,0,0,0,5.67,4.33l.65.31C143.15,91.42,142.68,89,142.11,86.58Z"/>
          <path class="cls-6" d="M219.76,83.37l-1.31.85c-4.57,3-8.88,5.79-13.88,5.52a15.08,15.08,0,0,1-5.94-1.66c-.65-.38-3.56-2.75-4.8-3.76s-1.51-1.23-1.75-1.4a27.72,27.72,0,0,0-4.73-2.7,19.69,19.69,0,0,0-17.09.49,26.89,26.89,0,0,0-5.41,4,27.5,27.5,0,0,1-3.54,2.82,23.77,23.77,0,0,1-2.93,1.6c.32,1.72.62,3.44.94,5.16A28.43,28.43,0,0,0,164,91.86a33.16,33.16,0,0,0,4.2-3.31,22.55,22.55,0,0,1,4.39-3.32,14.43,14.43,0,0,1,12.68-.33,22.11,22.11,0,0,1,3.83,2.19c.15.11.85.68,1.47,1.19a51,51,0,0,0,5.66,4.32,20.18,20.18,0,0,0,8,2.24c5.13.29,9.56-1.77,13.53-4.18C218.44,88.23,219.1,85.8,219.76,83.37Z"/>
          <path class="cls-6" d="M277.52,81.58l.4-1.33-.95.46a35.11,35.11,0,0,0-3.26,2A15.58,15.58,0,0,0,272,84c-3.12,2.79-8,6.06-13.45,5.75a15.08,15.08,0,0,1-5.94-1.66c-.65-.38-3.56-2.75-4.8-3.76s-1.51-1.23-1.75-1.4a27.65,27.65,0,0,0-4.72-2.7A20.43,20.43,0,0,0,237,78.87c-.43,1.65-.87,3.29-1.31,4.94a15.72,15.72,0,0,1,3.61,1.09,21.74,21.74,0,0,1,3.83,2.19c.15.11.85.68,1.47,1.18a50.27,50.27,0,0,0,5.66,4.33,20.22,20.22,0,0,0,8,2.24c5.66.31,11.53-2.09,17-6.94A66.73,66.73,0,0,0,277.52,81.58Z"/>
          <path class="cls-6" d="M63,81.66a35.19,35.19,0,0,0-3.26,2A18.62,18.62,0,0,0,58,84.93c-3.12,2.8-8,6.06-13.45,5.76A14.93,14.93,0,0,1,38.59,89c-.65-.37-3.56-2.74-4.8-3.75S32.28,84,32,83.87a27.07,27.07,0,0,0-4.73-2.7l-.85-.35.23.76c.66,2.18,1.43,4.3,2.29,6.37l.11.08,1.48,1.19a52,52,0,0,0,5.66,4.33,20.16,20.16,0,0,0,8,2.23c5.7.32,11.62-2.12,17.13-7l0,0a34.32,34.32,0,0,1,3.91-2.51,14.66,14.66,0,0,1,2.78-1.11q-1-2.35-1.94-4.73A18.92,18.92,0,0,0,63,81.66Z"/>
          <path class="cls-7" d="M44.53,100.06a14.93,14.93,0,0,1-5.94-1.67c-.65-.37-3.56-2.74-4.8-3.75S32.28,93.4,32,93.24s-.61-.42-.91-.61a67.14,67.14,0,0,0,7.16,11.21,19.7,19.7,0,0,0,6,1.31,18.27,18.27,0,0,0,3.68-.18c-.88-1.6-1.72-3.23-2.48-4.9C45.14,100.08,44.84,100.08,44.53,100.06Z"/>
          <path class="cls-7" d="M105.09,98.18a15.52,15.52,0,0,1-7.81,1.88,14.84,14.84,0,0,1-5.94-1.67c-.66-.37-3.56-2.74-4.8-3.75S85,93.4,84.79,93.24a27.07,27.07,0,0,0-4.73-2.7A19.66,19.66,0,0,0,63,91a35.19,35.19,0,0,0-3.26,2l-.46.32c0,.09.07.17.11.26v0c.26.46.47,1,.72,1.43.43.82.87,1.63,1.32,2.44l.23.41a32.75,32.75,0,0,1,3.69-2.36A14.4,14.4,0,0,1,78,95.21a22.69,22.69,0,0,1,3.83,2.19l1.47,1.19A52.76,52.76,0,0,0,89,102.92a19,19,0,0,0,17.79.1C106.2,101.41,105.6,99.8,105.09,98.18Z"/>
          <path class="cls-7" d="M185.9,89a19.58,19.58,0,0,0-15.64,1,26.89,26.89,0,0,0-5.41,4,27.5,27.5,0,0,1-3.54,2.82c-3.6,2.29-6.89,3.32-10.07,3.14a14.84,14.84,0,0,1-5.94-1.67c-.66-.37-3.56-2.74-4.8-3.75s-1.52-1.24-1.75-1.4a27.07,27.07,0,0,0-4.73-2.7,19.71,19.71,0,0,0-14.85-.5c0,.12,0,.24,0,.37,0,.35.17,1.31.11,1.08.06.27.12.55.19.82.25.93.54,1.84.85,2.75a14.43,14.43,0,0,1,11.64.15,22.69,22.69,0,0,1,3.83,2.19l1.47,1.19a52.76,52.76,0,0,0,5.67,4.33,20.16,20.16,0,0,0,8,2.23l1,0c4,0,7.91-1.3,12.09-4a33.16,33.16,0,0,0,4.2-3.31,22.55,22.55,0,0,1,4.39-3.32A14.29,14.29,0,0,1,184,93.76C184.59,92.17,185.22,90.59,185.9,89Z"/>
          <path class="cls-7" d="M273.17,92.45a11,11,0,0,0-1.19.91c-2.7,2.41-6.7,5.17-11.26,5.68a31.92,31.92,0,0,1-2.16,5.17,19.8,19.8,0,0,0,8.26-1.54A66.71,66.71,0,0,0,273.17,92.45Z"/>
          <path class="cls-7" d="M244.57,97.64l0,0c.21-.37.42-.75.61-1.13a7.87,7.87,0,0,0,.72-1.74c.15-.8.23-1,.22-.67a9.08,9.08,0,0,0,0-1.38c0-.13,0-.26,0-.38l-.1-.08a27.29,27.29,0,0,0-4.72-2.69,19.68,19.68,0,0,0-17.1.48c-2,1-3.9,2.29-5.77,3.51-4.57,3-8.89,5.8-13.88,5.52A14.73,14.73,0,0,1,199,97.6c-.64,1.59-1.22,3.19-1.79,4.81a20.31,20.31,0,0,0,7.12,1.8c6.65.37,12.13-3.2,17-6.35,1.84-1.2,3.58-2.33,5.35-3.26a14.43,14.43,0,0,1,12.68-.33,21.74,21.74,0,0,1,3.83,2.19C243.25,96.57,244,97.14,244.57,97.64Z"/>
          <path class="cls-6" d="M80.06,99.91A19.66,19.66,0,0,0,63,100.4a35.19,35.19,0,0,0-3.26,2A16.81,16.81,0,0,0,58,103.68c-3.13,2.79-8,6-13.45,5.75a12.42,12.42,0,0,1-1.48-.17,66.15,66.15,0,0,0,5.47,5,26.62,26.62,0,0,0,12.86-6.77l0,0a35.78,35.78,0,0,1,3.91-2.51A14.4,14.4,0,0,1,78,104.58q.84.38,1.68.84a7.83,7.83,0,0,1,.71-5.35Z"/>
          <path class="cls-6" d="M141.84,105.86a5.47,5.47,0,0,1-.23-1l-1.11-.9c-1.11-.91-1.52-1.24-1.75-1.4a27.07,27.07,0,0,0-4.73-2.7,19.66,19.66,0,0,0-17.09.49c-2,1-3.91,2.29-5.77,3.5-3.61,2.36-7.07,4.61-10.83,5.31.82,1.16,1.65,2.3,2.49,3.44a5.66,5.66,0,0,1,.59,1c3.9-1.19,7.36-3.44,10.54-5.51,1.84-1.2,3.58-2.34,5.34-3.26a14.4,14.4,0,0,1,12.68-.34,22.69,22.69,0,0,1,3.83,2.19l1.47,1.19a52.76,52.76,0,0,0,5.67,4.33l.39.18A38,38,0,0,0,141.84,105.86Z"/>
          <path class="cls-6" d="M204.48,113.58a7.76,7.76,0,0,1,.63-1.35c.72-1.26,1.36-2.56,2-3.87a12.29,12.29,0,0,1-2.51.12,15.08,15.08,0,0,1-5.94-1.66c-.65-.38-3.56-2.74-4.8-3.76s-1.51-1.23-1.75-1.4A27.65,27.65,0,0,0,187.35,99a19.66,19.66,0,0,0-17.09.48,26.89,26.89,0,0,0-5.41,4,28.5,28.5,0,0,1-3.54,2.83,24.3,24.3,0,0,1-3.06,1.65c.3,1.74.52,3.49.69,5.24a28.19,28.19,0,0,0,5.1-2.59,33.16,33.16,0,0,0,4.2-3.31,22.55,22.55,0,0,1,4.39-3.32,14.43,14.43,0,0,1,12.68-.33,22.11,22.11,0,0,1,3.83,2.19c.15.11.85.68,1.47,1.19a51,51,0,0,0,5.66,4.32,20.18,20.18,0,0,0,8,2.24Z"/>
          <path class="cls-6" d="M262.19,108.17a13.46,13.46,0,0,1-3.66.31,15.08,15.08,0,0,1-5.94-1.66c-.65-.38-3.56-2.75-4.8-3.76s-1.51-1.23-1.75-1.4A27.57,27.57,0,0,0,241.32,99,20,20,0,0,0,233,97.26q-.71,2.63-1.57,5.19a14.71,14.71,0,0,1,7.88,1.19,21.74,21.74,0,0,1,3.83,2.19c.15.11.85.68,1.47,1.18a50.27,50.27,0,0,0,5.66,4.33,20.77,20.77,0,0,0,6.46,2.08A68.2,68.2,0,0,0,262.19,108.17Z"/>
          <path class="cls-7" d="M52.19,117.05q2.34,1.67,4.81,3.13l.14-.09c-1-1.39-2-2.76-2.85-4.23A23.76,23.76,0,0,1,52.19,117.05Z"/>
          <path class="cls-7" d="M111.67,112.94l-.51.34c-4.57,3-8.89,5.79-13.88,5.52a14.84,14.84,0,0,1-5.94-1.67c-.66-.37-3.57-2.74-4.81-3.76S85,112.14,84.79,112a27.07,27.07,0,0,0-4.73-2.7,19.87,19.87,0,0,0-12.43-1.22c1,1.61,2.07,3.1,3.14,4.64A14.77,14.77,0,0,1,78,114a22.69,22.69,0,0,1,3.83,2.19l1.47,1.18A52,52,0,0,0,89,121.66a20.16,20.16,0,0,0,8,2.23c6.49.37,11.86-3,16.59-6.1A24.57,24.57,0,0,1,111.67,112.94Z"/>
          <path class="cls-7" d="M175.74,112.15c1.26-1.85,2.54-3.68,3.79-5.52a19.32,19.32,0,0,0-9.27,2.19,26.89,26.89,0,0,0-5.41,4,28.5,28.5,0,0,1-3.54,2.83c-3.6,2.28-6.9,3.3-10.07,3.13a14.84,14.84,0,0,1-5.94-1.67c-.66-.37-3.56-2.74-4.81-3.76s-1.5-1.23-1.74-1.39a27.07,27.07,0,0,0-4.73-2.7,20.26,20.26,0,0,0-7.73-1.71,15.47,15.47,0,0,0,2.23,5.32A15.76,15.76,0,0,1,132,114a22.69,22.69,0,0,1,3.83,2.19l1.47,1.18a52,52,0,0,0,5.67,4.34,20.16,20.16,0,0,0,8,2.23l1,0c4,0,7.91-1.3,12.09-4a33.16,33.16,0,0,0,4.2-3.31,22.55,22.55,0,0,1,4.39-3.32A14.55,14.55,0,0,1,175.74,112.15Z"/>
          <path class="cls-7" d="M233.84,111.72c1-1.58,1.94-3.18,2.89-4.78a19.47,19.47,0,0,0-12.51,1.88c-2,1-3.9,2.3-5.77,3.51-4.57,3-8.88,5.79-13.88,5.52a15.08,15.08,0,0,1-5.94-1.66c-.61-.35-3.2-2.46-4.55-3.55-.94,1.42-1.91,2.82-2.88,4.23a43.12,43.12,0,0,0,5.07,3.84,20,20,0,0,0,8,2.24c6.65.37,12.13-3.2,17-6.35,1.84-1.2,3.58-2.33,5.35-3.26A14.22,14.22,0,0,1,233.84,111.72Z"/>
          <path class="cls-7" d="M252.59,116.19c-.34-.2-1.31-1-2.33-1.76q-1.31,2.2-2.66,4.4l.81.63q2.34-1.45,4.56-3.09Z"/>
          <path class="cls-6" d="M94.33,129.52a18.53,18.53,0,0,1-.54-2,15.24,15.24,0,0,1-2.45-1c-.66-.37-3.56-2.74-4.8-3.75s-1.52-1.24-1.75-1.4a27.07,27.07,0,0,0-4.73-2.7,19.66,19.66,0,0,0-17.09.49,35.19,35.19,0,0,0-3.26,2l-.45.32q2.63,1.41,5.37,2.6l.7-.39A14.4,14.4,0,0,1,78,123.32a22.69,22.69,0,0,1,3.83,2.19l1.47,1.19c1.37,1.11,2.44,2,3.3,2.65,1.53.11,3.07.17,4.61.17Z"/>
          <path class="cls-6" d="M192.08,120.4a27.65,27.65,0,0,0-4.73-2.69,19.69,19.69,0,0,0-17.09.48,26.89,26.89,0,0,0-5.41,4,28.5,28.5,0,0,1-3.54,2.83,26.37,26.37,0,0,1-2.32,1.31,25.44,25.44,0,0,1,.42,3.17h4.34l.29-.18a33.16,33.16,0,0,0,4.2-3.31,22.55,22.55,0,0,1,4.39-3.32,14.43,14.43,0,0,1,12.68-.33,22.11,22.11,0,0,1,3.83,2.19c.15.11.85.68,1.47,1.19,1.17.95,2.13,1.73,2.93,2.36,1-1.4,1.9-2.83,2.85-4.25-.94-.75-1.95-1.57-2.56-2.07C192.73,120.9,192.32,120.57,192.08,120.4Z"/>
          <path class="cls-6" d="M246,120.4a28,28,0,0,0-4.72-2.69,19.71,19.71,0,0,0-17.1.48c-2,1-3.9,2.3-5.77,3.51-1.44.94-2.85,1.86-4.27,2.68a5.55,5.55,0,0,1-1,2.45c-.67.89-1.33,1.79-2,2.69H213c.83,0,1.66,0,2.49-.05,2-1.07,3.94-2.31,5.76-3.5s3.58-2.33,5.35-3.26a14.43,14.43,0,0,1,12.68-.33,19.93,19.93,0,0,1,1.9,1q2.67-1.23,5.21-2.68Z"/>
          <path class="cls-6" d="M143.54,128.39a6.6,6.6,0,0,1-.2-3.35c-1-.81-2.17-1.75-2.84-2.29-1.11-.91-1.52-1.24-1.75-1.4a27.07,27.07,0,0,0-4.73-2.7,19.66,19.66,0,0,0-17.09.49c-2,1-3.91,2.29-5.77,3.51-.84.55-1.68,1.09-2.51,1.61a11.47,11.47,0,0,1,.33,1.65c-.22-1.85-.08-1.14.1-.49a5.16,5.16,0,0,0,.29.55c.54,1,1.11,1.88,1.7,2.79,1-.61,1.94-1.23,2.88-1.84,1.84-1.2,3.58-2.34,5.34-3.26a14.4,14.4,0,0,1,12.68-.34,22.69,22.69,0,0,1,3.83,2.19l1.47,1.19c1.49,1.21,2.63,2.13,3.52,2.82h3.05C143.7,129.2,143.65,128.71,143.54,128.39Z"/>
          <path class="cls-9" d="M238.11,46c.32,9.76-2.66,19.55-7.43,28-4.86,8.62-11.73,15.12-19.9,20.55-27.68,18.39-62.93,21.69-95.31,20.34-16.91-.7-33.57-2.32-49.32-8.91A123.87,123.87,0,0,1,47,95.84a3.21,3.21,0,0,0-4.31,4.61A64.74,64.74,0,0,0,94.4,126.31H211.75A65,65,0,0,0,274,79.65l18-60.16A8.12,8.12,0,0,0,284.2,9H22a8.13,8.13,0,0,0-7.72,10.49l3.91,13.12a8.82,8.82,0,0,0,8.44,6.29"/>
          <path class="cls-7" d="M81.09,128.51c0,.08.08.17.13.25l.5.08Z"/>
          <path class="cls-7" d="M115.12,129.52h21.77A25.43,25.43,0,0,0,134,128a19.66,19.66,0,0,0-17.09.49C116.32,128.83,115.72,129.17,115.12,129.52Z"/>
          <rect class="cls-8" x="5.12" y="5.49" width="293.97" height="25.19" rx="7.45"/>
          <rect class="cls-8" x="5.12" y="5.49" width="293.97" height="25.19" rx="7.45"/>
          <rect class="cls-10" x="5.12" y="5.49" width="293.97" height="25.19" rx="7.45"/>
          <path class="cls-11" d="M12.59,30.92a.64.64,0,0,1-.64-.65c0-.2.63-20.71,24.32-25.14a.64.64,0,1,1,.24,1.26c-22.65,4.23-23.27,23.1-23.29,23.9A.63.63,0,0,1,12.59,30.92Z"/>
          <path class="cls-11" d="M6.1,9.93a8.61,8.61,0,0,0-.78,2.13A31.07,31.07,0,0,1,18.76,6.39a.65.65,0,0,0,.51-.75.94.94,0,0,0-.06-.15H16.84A32.93,32.93,0,0,0,6.1,9.93Z"/>
          <path class="cls-11" d="M35.06,30.92a.64.64,0,0,1-.64-.65c0-.2.63-20.71,24.33-25.14A.64.64,0,0,1,59,6.39c-22.65,4.23-23.27,23.1-23.29,23.9A.63.63,0,0,1,35.06,30.92Z"/>
          <path class="cls-11" d="M57.53,30.92a.65.65,0,0,1-.64-.65c0-.2.63-20.71,24.33-25.14a.64.64,0,0,1,.23,1.26C58.77,10.63,58.17,30.1,58.17,30.29A.64.64,0,0,1,57.53,30.92Z"/>
          <path class="cls-11" d="M80,30.92a.65.65,0,0,1-.64-.65c0-.2.63-20.71,24.33-25.14a.64.64,0,0,1,.23,1.26c-22.65,4.23-23.27,23.1-23.28,23.9A.64.64,0,0,1,80,30.92Z"/>
          <path class="cls-11" d="M102.47,30.92a.64.64,0,0,1-.63-.65c0-.2.63-20.71,24.32-25.14a.64.64,0,0,1,.24,1.26c-22.65,4.23-23.27,23.1-23.29,23.9A.64.64,0,0,1,102.47,30.92Z"/>
          <path class="cls-11" d="M125,30.92a.64.64,0,0,1-.64-.65c0-.2.63-20.71,24.32-25.14a.64.64,0,0,1,.24,1.26c-22.65,4.23-23.27,23.1-23.29,23.9A.63.63,0,0,1,125,30.92Z"/>
          <path class="cls-11" d="M147.42,30.92a.64.64,0,0,1-.64-.65c0-.2.63-20.71,24.33-25.14a.64.64,0,0,1,.23,1.26c-22.65,4.23-23.27,23.1-23.28,23.9A.65.65,0,0,1,147.42,30.92Z"/>
          <path class="cls-11" d="M169.89,30.92a.65.65,0,0,1-.64-.65c0-.2.63-20.71,24.33-25.14a.64.64,0,0,1,.23,1.26c-22.68,4.24-23.28,23.71-23.28,23.9A.64.64,0,0,1,169.89,30.92Z"/>
          <path class="cls-11" d="M192.36,30.92a.65.65,0,0,1-.64-.65c0-.2.64-20.71,24.33-25.14a.64.64,0,0,1,.23,1.26C193.63,10.62,193,29.49,193,30.29A.64.64,0,0,1,192.36,30.92Z"/>
          <path class="cls-11" d="M214.83,30.92a.64.64,0,0,1-.63-.65c0-.2.63-20.71,24.32-25.14a.64.64,0,0,1,.24,1.26c-22.65,4.23-23.27,23.1-23.29,23.9A.64.64,0,0,1,214.83,30.92Z"/>
          <path class="cls-11" d="M237.31,30.92a.64.64,0,0,1-.64-.65c0-.2.63-20.71,24.32-25.14a.65.65,0,0,1,.75.51.65.65,0,0,1-.51.75c-22.65,4.23-23.27,23.1-23.29,23.9A.63.63,0,0,1,237.31,30.92Z"/>
          <path class="cls-11" d="M259.78,30.92a.64.64,0,0,1-.64-.65c0-.2.63-20.71,24.33-25.14a.64.64,0,0,1,.23,1.26C261,10.63,260.42,30.1,260.42,30.29A.64.64,0,0,1,259.78,30.92Z"/>
          <path class="cls-11" d="M297.61,9.11a10.35,10.35,0,0,0-.84-1,27,27,0,0,0-15.16,22.18.64.64,0,0,0,.15.41h1a.74.74,0,0,0,.15-.39A25.59,25.59,0,0,1,297.61,9.11Z"/>
          <path class="cls-12" d="M299.09,22.31V14.83a8.66,8.66,0,0,1-8.66,7.42H14.31a9.22,9.22,0,0,1-9.19-7.91v8a8.33,8.33,0,0,0,3,6.38H296.13A8.33,8.33,0,0,0,299.09,22.31Z"/>
          <path class="cls-13" d="M49.07,85.19c-4.74-12.69-9.16-26.54-9-40.28l-.55.26c-9.12,4.76-7.1,18.64-5.11,26.76,3,12.16,9.5,22.62,18.42,31.36a43.79,43.79,0,0,0,7.59,5.94A153.59,153.59,0,0,1,49.07,85.19Z"/>
          <path class="cls-13" d="M73.13,51.55,71.9,51c-9.41-4.35-19-10.48-29.23-7.13-.39,13.55,3.92,27.21,8.56,39.76a149,149,0,0,0,13.7,28.09c9.68,4.65,20.77,6,31.73,6.09h1C82.13,99.3,76,75.19,73.13,51.55Z"/>
          <path class="cls-13" d="M114.54,95a100.26,100.26,0,0,1-6.7-27.16c-3.72-1.89-7.5-3.67-11.29-5.43L75.86,52.81c2.92,23.32,9.28,47.1,25.13,64.94a73,73,0,0,0,19.45-2.6c1.45-.43,3-.93,4.43-1.51A98.19,98.19,0,0,1,114.54,95Z"/>
          <path class="cls-13" d="M116.66,93.4a94.81,94.81,0,0,0,10.6,19.2,20.14,20.14,0,0,0,5.58-3.81c5.33-5.36,5.5-12.65,2.57-19.15-3.52-7.79-12-13-19.09-17.19-1.88-1.12-3.79-2.18-5.72-3.21A97.52,97.52,0,0,0,116.66,93.4Z"/>
          <path class="cls-14" d="M249.51,10.28h-225c-4.62,0-4.63,4.67,0,4.67h225C254.12,15,254.13,10.28,249.51,10.28Z"/>
        </g>
      </g>
    </g>
  </g>
</svg>
