<svg id="Layer_1" data-name="Layer 1" xmlns="http://www.w3.org/2000/svg" width="198.78" height="163.4" viewBox="0 0 198.78 163.4">
  <defs>
    <style>
      .cls-1 {
        opacity: 0.5;
      }

      .cls-2 {
        fill: #fff;
      }

      .cls-3 {
        fill: #f9fdfe;
      }

      .cls-4 {
        fill: #8dc1d8;
      }

      .cls-5 {
        fill: #6ab8df;
      }

      .cls-6 {
        fill: #b8eef4;
      }

      .cls-7 {
        fill: #327ea8;
      }

      .cls-8 {
        fill: #0f4b7d;
      }

      .cls-9 {
        fill: #01213d;
      }

      .cls-10 {
        fill: #4591af;
      }

      .cls-11 {
        fill: #529ecf;
      }

      .cls-12 {
        fill: #99cadd;
      }

      .cls-13 {
        fill: #a2d8ea;
      }

      .cls-14 {
        fill: #d4f2ff;
      }

      .cls-15 {
        fill: #286fa1;
      }

      .cls-16 {
        fill: #307cb5;
      }

      .cls-17 {
        fill: #004c60;
      }

      .cls-18 {
        fill: #78c7f9;
      }

      .cls-19 {
        fill: #5cafdf;
      }

      .cls-20 {
        fill: #d3e9ef;
      }

      .cls-21 {
        fill: none;
        stroke: #014656;
        stroke-miterlimit: 10;
      }
    </style>
  </defs>
  <g>
    <path class="cls-1" d="M101.89,163.4a8,8,0,0,1-6.26-3L6.74,48.66a8,8,0,0,1-.1-9.82L23.1,17.21A8,8,0,0,1,26,14.84L45.09,5.78A7.83,7.83,0,0,1,48.52,5H155.19a8,8,0,0,1,3.43.77l19.12,9.06a8,8,0,0,1,2.94,2.38l16.47,21.63a8,8,0,0,1-.11,9.82L108.15,160.38A8,8,0,0,1,101.89,163.4Z"/>
    <path class="cls-2" d="M96.89,158.4a8,8,0,0,1-6.26-3L1.74,43.66a8,8,0,0,1-.1-9.82L18.1,12.21A8,8,0,0,1,21,9.84L40.09.78A7.83,7.83,0,0,1,43.52,0H150.19a8,8,0,0,1,3.43.77l19.12,9.06a8,8,0,0,1,2.94,2.38l16.47,21.63a8,8,0,0,1-.11,9.82L103.15,155.38A8,8,0,0,1,96.89,158.4Z"/>
    <g>
      <polygon class="cls-3" points="150.19 38.68 169.32 17.06 150.19 8 124.57 17.06 150.19 38.68"/>
      <line class="cls-4" x1="69.21" y1="17.06" x2="96.89" y2="8"/>
      <polygon class="cls-5" points="150.19 8 96.89 8 124.57 17.06 150.19 8"/>
      <polygon class="cls-6" points="96.99 38.68 96.99 38.68 124.57 17.06 96.89 8 69.21 17.06 96.99 38.68"/>
      <polygon class="cls-7" points="185.78 38.68 150.19 38.68 169.32 17.06 185.78 38.68"/>
      <polygon class="cls-8" points="43.52 38.68 69.21 17.06 43.52 8 24.47 17.06 43.52 38.68"/>
      <polyline class="cls-9" points="8 38.68 24.47 17.06 43.52 38.68 8 38.68"/>
      <polygon class="cls-5" points="43.52 8 96.89 8 69.21 17.06 43.52 8"/>
      <polygon class="cls-10" points="43.52 38.68 62.32 38.68 69.21 17.06 43.52 38.68"/>
      <polygon class="cls-11" points="69.21 17.06 62.32 38.68 96.99 38.68 69.21 17.06"/>
      <polygon class="cls-12" points="96.99 38.68 131.49 38.68 124.57 17.06 96.99 38.68"/>
      <polygon class="cls-13" points="124.57 17.06 131.49 38.68 150.19 38.68 124.57 17.06"/>
      <polygon class="cls-14" points="185.78 38.68 150.19 38.68 112.29 118.12 185.78 38.68"/>
      <polygon class="cls-15" points="112.29 118.12 96.89 150.4 185.78 38.68 112.29 118.12"/>
      <polygon class="cls-16" points="81.47 118.12 43.52 38.68 8 38.68 81.47 118.12 81.47 118.12"/>
      <polygon class="cls-17" points="81.47 118.12 8 38.68 96.89 150.4 81.47 118.12 81.47 118.12"/>
      <polygon class="cls-11" points="112.29 118.12 150.19 38.68 131.49 38.68 112.29 118.12 112.29 118.12"/>
      <polygon class="cls-5" points="81.47 118.12 43.52 38.68 62.29 38.68 81.47 118.12 81.47 118.12"/>
      <polygon class="cls-18" points="112.29 118.12 96.99 38.68 81.47 118.12 96.89 150.4 112.29 118.12 112.29 118.12"/>
      <polygon class="cls-19" points="131.49 38.68 96.99 38.68 96.99 38.68 96.99 38.68 112.29 118.12 131.49 38.68"/>
      <polygon class="cls-20" points="62.29 38.68 96.99 38.68 96.99 38.68 96.99 38.68 81.49 118.12 62.29 38.68"/>
      <path class="cls-21" d="M169.32,17.06,150.19,8H43.52L24.47,17.06,8,38.68,96.89,150.4,185.78,38.68ZM81.47,118.12"/>
    </g>
  </g>
</svg>
