<svg id="Layer_1" data-name="Layer 1" xmlns="http://www.w3.org/2000/svg" width="182.02" height="241.37" viewBox="0 0 182.02 241.37">
  <defs>
    <style>
      .cls-1 {
        opacity: 0.5;
      }

      .cls-2 {
        fill: #fff;
      }

      .cls-3 {
        fill: #e75f4f;
      }

      .cls-4 {
        fill: #ed715c;
      }

      .cls-5 {
        fill: #802f2e;
      }

      .cls-6 {
        fill: #93373b;
      }
    </style>
  </defs>
  <g>
    <path class="cls-1" d="M13,241.37a8,8,0,0,1-8-8.66L18.32,71.45a8,8,0,0,1,8-7.35H56.76C64.33,24.88,76.47,5,92.9,5h.64c18.32.64,27.19,24.56,32.26,42.5,1.46,5.13,2.82,10.69,4.08,16.59h30.85a8,8,0,0,1,8,7.35L182,232.71a8,8,0,0,1-8,8.66ZM107.36,64.1c-5-21.33-11-34-14.44-37.14-3.33,3.25-9,15.94-13.61,37.14Z"/>
    <path class="cls-2" d="M8,236.37a8,8,0,0,1-8-8.66L13.32,66.45a8,8,0,0,1,8-7.35H51.76C59.33,19.88,71.47,0,87.9,0h.64c18.32.64,27.19,24.56,32.26,42.5,1.46,5.13,2.82,10.69,4.08,16.59h30.85a8,8,0,0,1,8,7.35L177,227.71a8,8,0,0,1-8,8.66ZM102.36,59.1c-5-21.33-11-34-14.44-37.14-3.33,3.25-9,15.94-13.61,37.14Z"/>
    <g>
      <g>
        <path class="cls-3" d="M169,228.37H8Q14.65,147.75,21.3,67.1H155.73Z"/>
        <path class="cls-4" d="M23.75,70.31h128s-5.56,126.91-58.18,130.57S23.75,70.31,23.75,70.31Z"/>
        <path class="cls-4" d="M13.64,201.34l-2,23.82,154.31.46-2.53-21.07S145.68,222.41,88,221.5,13.64,201.34,13.64,201.34Z"/>
      </g>
      <path class="cls-5" d="M117.35,79.48A3,3,0,0,1,114,77.12C109.86,50.06,99.49,13.9,88,13.5s-21.18,35.86-25,63.24a3,3,0,0,1-3.34,2.39h0a2.8,2.8,0,0,1-2.66-3C59.31,59.72,68.15,7.34,88.28,8c9.82.34,17.94,12.34,24.83,36.68A296.25,296.25,0,0,1,120,76.38a2.8,2.8,0,0,1-2.62,3.1Z"/>
      <path class="cls-6" d="M61,59.72s5.5-27.66,12.33-39,14-13.57,19.92-10.65S105.93,24,109.73,36.18C112.93,46.49,113.9,51,113.9,51s-6.64-22.17-14.23-32c-6-7.8-12.52-11.85-21.44-2.41C70.12,25.2,61,59.72,61,59.72Z"/>
    </g>
  </g>
</svg>
