<svg id="Layer_1" data-name="Layer 1" xmlns="http://www.w3.org/2000/svg" width="185.03" height="208.94" viewBox="0 0 185.03 208.94">
  <defs>
    <style>
      .cls-1 {
        opacity: 0.5;
      }

      .cls-2, .cls-32 {
        fill: #fff;
      }

      .cls-3, .cls-9 {
        fill: #da9571;
      }

      .cls-3, .cls-4 {
        stroke: #a06060;
        stroke-width: 0.25px;
      }

      .cls-3, .cls-32, .cls-4 {
        stroke-miterlimit: 10;
      }

      .cls-4, .cls-8 {
        fill: #aa6b50;
      }

      .cls-5 {
        fill: #e75a29;
      }

      .cls-6 {
        fill: #c94427;
      }

      .cls-7 {
        fill: #b41e2d;
      }

      .cls-10 {
        fill: #b26f48;
      }

      .cls-11 {
        fill: #e8b894;
      }

      .cls-12 {
        fill: #0c0a0a;
      }

      .cls-13 {
        fill: #0a0808;
      }

      .cls-14 {
        fill: #d28a88;
      }

      .cls-15 {
        fill: #c37777;
      }

      .cls-16 {
        fill: #e2b08e;
      }

      .cls-17 {
        fill: #ce8a60;
      }

      .cls-18 {
        fill: #38120d;
      }

      .cls-19 {
        fill: #d9a581;
      }

      .cls-20 {
        fill: #683b11;
      }

      .cls-21 {
        fill: #d81315;
      }

      .cls-22 {
        fill: #ef643d;
      }

      .cls-23 {
        fill: #b02f40;
      }

      .cls-24 {
        fill: #a1162a;
      }

      .cls-25 {
        fill: #6d081b;
      }

      .cls-26 {
        fill: #9d9fa2;
      }

      .cls-27 {
        fill: #c7c9ca;
      }

      .cls-28 {
        fill: #ba906c;
      }

      .cls-29 {
        fill: #b8ab91;
      }

      .cls-30 {
        fill: #918079;
      }

      .cls-31 {
        fill: #d12f47;
      }

      .cls-32 {
        stroke: #3d2d16;
        stroke-width: 0.1px;
      }

      .cls-33 {
        fill: #3d2d16;
      }
    </style>
  </defs>
  <g>
    <path class="cls-1" d="M161.57,208.94a9.3,9.3,0,0,1-6-2.22,9.26,9.26,0,0,1-6,2.22H72.74a9.25,9.25,0,0,1-9.15-10.76,76.77,76.77,0,0,1,4.72-17.49l-.07-.27c-5,2.44-13.75,5-29.6,6.43v12.82a9.27,9.27,0,0,1-9.27,9.27H23a9.27,9.27,0,0,1-9.27-9.27V186.09a13.74,13.74,0,0,1-6.08-8.45c-1.78-6.59-.23-17.49,4.52-22.22a12.37,12.37,0,0,1,1.56-1.32V65.88a10.17,10.17,0,0,1-2.44-6L8.35,56.82a9.28,9.28,0,0,1-2.13-9.17L17.33,12.29a9.26,9.26,0,0,1,8.84-6.5h0A9.28,9.28,0,0,1,35,12.29l11.1,35.36A9.26,9.26,0,0,1,44,56.82l-2.91,3.06a10.17,10.17,0,0,1-2.44,6v83.06a8.89,8.89,0,0,1,1.1,1.41L44,149a185,185,0,0,1,4.68-18.88l.31-1.07c.62-2.19,1.18-5,1.76-7.87A111.33,111.33,0,0,1,56.22,101a18.94,18.94,0,0,1,1.09-2.23l.35-.58c.31-.49.62-1,1-1.41l.43-.57c.35-.44.72-.88,1.12-1.31.1-.11.19-.22.3-.33.49-.51,1-1,1.53-1.49l.36-.31c.45-.39.85-.72,1.26-1l.49-.38c.43-.33.86-.64,1.3-1l.38-.26c.52-.36,1.09-.73,1.68-1.08l.29-.18c.46-.28.93-.55,1.41-.82l.24-.14.26-.14a92.64,92.64,0,0,1,17-6.93,10.68,10.68,0,0,1,3-1.91l-.12-.34c-.25-.15-.49-.32-.74-.49-3.07-2.2-4.34-5.34-5.36-7.87-.21-.51-.42-1-.66-1.54-2.58-5.43-1.48-9.55-.27-11.9l-.09-.34a27.27,27.27,0,0,1-9-9,9.13,9.13,0,0,1-.71-1.21,28.79,28.79,0,0,1-3.34-9.83c0-.09,0-.18,0-.27s0-.21,0-.32,0-.5-.07-.75l0-.38c0-.28,0-.58,0-.88v-.28a16.88,16.88,0,0,1,.11-2.37c0-.11,0-.31,0-.42s.08-.52.14-.82.07-.33.11-.47a9.29,9.29,0,0,1,.27-1c0-.12.11-.33.19-.54a10.36,10.36,0,0,1,.45-1.05c.09-.18.19-.39.28-.55l.08-.13a10.63,10.63,0,0,1,1.46-2A10.43,10.43,0,0,1,75.55,22a9.3,9.3,0,0,1,1.08-.42,11,11,0,0,1,1.84-.45,7.15,7.15,0,0,1,.9-.11c.31,0,.68,0,1.07,0h.31l.62,0c.38,0,.79.07,1.21.13l.46.07c.4.06.87.16,1.36.28l.35.09,1,.25,1.2.37.38.13,1.1.37,1.85.67,1.3.47.85.3.37.12.8-.51c.52-.34,1-.63,1.42-.91l.11-.07q.84-.51,1.77-1l.13-.07c.78-.41,1.54-.77,2.32-1.1a12.82,12.82,0,0,1,1.75-.58l.5-.13c.38-.08.75-.15,1.13-.2l.48-.07c.35,0,.72-.07,1.1-.09l.3,0h1.68l.9.06.43,0,.92.1.27,0,1.13.17.26,0,.91.17,1.24.26.24.06c.37.08.73.17,1.1.27L115,21l1.09.31,1.17.35,1.14.36,1,.32c1.21.41,2.43.84,3.65,1.3l1.19-.56,1.57-.71c.51-.22,1-.45,1.58-.67l.14-.06,1.6-.62.47-.17c.63-.23,1.28-.46,2-.68a15.36,15.36,0,0,1,2.36-.58l.52-.08a14.11,14.11,0,0,1,2.11-.16H137l.54,0a13.2,13.2,0,0,1,2.09.31l.55.13a12.5,12.5,0,0,1,2.56,1l.45.24a13,13,0,0,1,2.23,1.59l.12.11a13.21,13.21,0,0,1,1.58,1.73l.33.44a14,14,0,0,1,1.11,1.87l.21.44a14.24,14.24,0,0,1,.59,1.51,3.59,3.59,0,0,1,.12.35,16.59,16.59,0,0,1,.46,1.88c0,.06,0,.2.06.34a16.92,16.92,0,0,1,.21,1.85,19.9,19.9,0,0,1-2.69,11.28c-1.54,2.57-3.76,6-5.65,8.61a52.6,52.6,0,0,1-3.32,4.34c1.05,2.36,1.82,6.27-.57,11.29-.23.5-.44,1-.65,1.54-1,2.53-2.29,5.67-5.36,7.87l-.74.49c-.14.41-.27.8-.41,1.16a9.93,9.93,0,0,1,4.08-.87,9.71,9.71,0,0,1,7.55,3.54c.24.15.48.32.71.49l.39.12h0a19.63,19.63,0,0,1,5.87,3.41,11.39,11.39,0,0,1,3.26,3.5c12.56,10.25,16.57,26.79,17.85,36,1.81,13.13,2.61,15.88,8.08,31.39,6.11,17.35,6.43,41.18,6.44,42.18a9.27,9.27,0,0,1-9.27,9.37Z"/>
    <path class="cls-2" d="M155.77,203.15a9.27,9.27,0,0,1-6-2.22,9.3,9.3,0,0,1-6,2.22H66.94a9.28,9.28,0,0,1-9.15-10.77,77.56,77.56,0,0,1,4.72-17.48l-.06-.28c-5,2.44-13.75,5-29.6,6.43v12.83a9.28,9.28,0,0,1-9.28,9.27H17.18a9.27,9.27,0,0,1-9.27-9.27V180.3a13.77,13.77,0,0,1-6.09-8.46C0,165.26,1.6,154.36,6.35,149.62a12.63,12.63,0,0,1,1.56-1.32V60.09a10.13,10.13,0,0,1-2.44-6L2.55,51A9.26,9.26,0,0,1,.43,41.86L11.53,6.49A9.28,9.28,0,0,1,20.38,0h0a9.26,9.26,0,0,1,8.84,6.49L40.33,41.86A9.27,9.27,0,0,1,38.2,51l-2.91,3.07a10.26,10.26,0,0,1-2.44,6v83.06a9.29,9.29,0,0,1,1.1,1.4l4.22-1.33a181.63,181.63,0,0,1,4.67-18.88l.31-1.08c.63-2.19,1.18-5,1.77-7.86a111.33,111.33,0,0,1,5.51-20.17A16.28,16.28,0,0,1,51.52,93a6,6,0,0,1,.35-.58c.3-.5.62-1,1-1.42l.42-.56c.35-.44.73-.88,1.12-1.32l.3-.32c.49-.52,1-1,1.54-1.5l.36-.31c.44-.38.84-.71,1.26-1l.48-.38c.44-.32.87-.64,1.31-.94l.38-.27c.52-.35,1.09-.72,1.67-1.08l.29-.17,1.41-.83.24-.14.26-.14a93.25,93.25,0,0,1,17-6.92,11.09,11.09,0,0,1,3-1.92c0-.11-.07-.22-.11-.34a8.6,8.6,0,0,1-.74-.49C80,70.14,78.69,67,77.67,64.47c-.21-.52-.42-1-.65-1.54-2.58-5.43-1.49-9.55-.28-11.91,0-.11-.06-.22-.08-.33a27.32,27.32,0,0,1-9-9,9.6,9.6,0,0,1-.71-1.21,28.66,28.66,0,0,1-3.33-9.83,2,2,0,0,1,0-.26c0-.09,0-.22,0-.32,0-.26-.06-.51-.08-.75l0-.38c0-.28,0-.59,0-.88,0,0,0-.16,0-.29a18.39,18.39,0,0,1,.11-2.36c0-.11,0-.31.06-.42s.08-.53.14-.82l.1-.48c.09-.36.18-.68.27-1,0-.13.11-.34.19-.54a10.78,10.78,0,0,1,.46-1.05c.08-.18.19-.39.28-.55l.07-.13a10.68,10.68,0,0,1,1.47-2,10.12,10.12,0,0,1,3.23-2.3c.32-.15.74-.31,1.09-.43a11.76,11.76,0,0,1,1.84-.45c.25,0,.57-.08.9-.11s.68,0,1.06,0H75l.62,0c.38,0,.78.07,1.2.13l.47.07c.39.06.87.16,1.36.27l.35.09,1,.26,1.21.37.37.12,1.1.38c.62.21,1.24.44,1.85.67l1.3.47.86.3.36.12.8-.52L89.19,17l.11-.06q.84-.53,1.77-1l.12-.07c.79-.42,1.55-.78,2.32-1.1a13.29,13.29,0,0,1,1.75-.59l.5-.12c.38-.08.75-.15,1.14-.21l.47-.06c.36,0,.72-.08,1.1-.1h2l.9.06.43,0,.92.1.26,0c.35,0,.74.1,1.14.17l.25,0,.91.17,1.24.26.24.05,1.11.27,1.37.36,1.09.31,1.17.35,1.13.36,1,.33c1.21.4,2.43.84,3.65,1.3l1.19-.56c.37-.18,1.56-.71,1.56-.71l1.59-.68.13-.05c.56-.23,1.08-.43,1.61-.62l.46-.18,2-.68a18.93,18.93,0,0,1,2.36-.58l.52-.08a15.63,15.63,0,0,1,2.11-.15h.42a5.32,5.32,0,0,1,.54,0,13.32,13.32,0,0,1,2.09.3l.54.13a13.76,13.76,0,0,1,2.56,1l.45.25a12.7,12.7,0,0,1,2.24,1.59l.12.11a13.05,13.05,0,0,1,1.57,1.72q.18.23.33.45A14,14,0,0,1,142.75,21c.06.12.15.31.2.43a15.26,15.26,0,0,1,.6,1.51l.12.35c.19.65.34,1.26.46,1.89,0,.06,0,.2.06.34.11.68.17,1.27.21,1.85a20,20,0,0,1-2.7,11.28c-1.54,2.56-3.76,5.94-5.65,8.6a52.54,52.54,0,0,1-3.31,4.34c1,2.37,1.82,6.28-.57,11.3-.24.49-.45,1-.65,1.54-1,2.52-2.29,5.67-5.37,7.86a8.6,8.6,0,0,1-.74.49c-.13.41-.27.8-.41,1.17a10,10,0,0,1,4.08-.88,9.73,9.73,0,0,1,7.55,3.54c.25.16.49.32.72.49l.38.13h0a19.51,19.51,0,0,1,5.87,3.4,11.66,11.66,0,0,1,3.27,3.5c12.55,10.26,16.56,26.79,17.84,36,1.81,13.13,2.62,15.88,8.08,31.39,6.12,17.34,6.44,41.17,6.45,42.18a9.27,9.27,0,0,1-9.27,9.37Z"/>
    <g>
      <path class="cls-3" d="M160,193.88h8.44c-1-2.67-1.15-7-1.44-12.82l-13-4.38c2.28,5.9,4.55,10.41,5.51,12.93A11.84,11.84,0,0,1,160,193.88Z"/>
      <path class="cls-4" d="M26.14,149.54s-11.2,4.62-10.82,6.25S26.57,158.24,26.14,149.54Z"/>
      <path class="cls-3" d="M123.67,85.77c-10.14-1.45-10.58-14.37-10.58-14.37l-3.1-.57c-.06-1.35-.08-2.21-.08-2.21l-6,1.1-6-1.1s0,.86-.08,2.21l-3.1.57s-.44,12.92-10.58,14.37.67,15.82.67,15.82l11.43,4.91c-.15,4-.24,6.67-.24,6.67l7.88-3.39,7.89,3.39s-.1-2.72-.24-6.67L123,101.59S133.8,87.22,123.67,85.77Z"/>
      <path class="cls-5" d="M61.87,163.68c4.27-4.28,6.16-14.1,6.8-20.17a62.34,62.34,0,0,1,3.48-14.43s3.21,3.81,2.77,12.7-2.32,15-1.61,15.88.54,15.79.54,15.79-4.36,4.85-6.91,20.43h76.79c-1.79-7.72-4.62-14-9.27-17.55a25.9,25.9,0,0,0,0-23.1l2.37-27.66,6.62,27.18s5.45,30.8,10.18,37.77c.87,1.29,1.57,2.4,2.14,3.36H170c0-.33-.28-23.2-5.92-39.2s-6.63-19.49-8.52-33.2S147,90.92,131.62,86.35s-13.49-3.85-13.49-3.85L105.58,102,88.31,82.63S63,88.71,59,98.69s-4.91,20-7,27.12c-1.79,6.28-5.3,18.1-5.31,24.42L16.43,159.8,19,172.62S55.5,171.72,61.87,163.68Z"/>
      <path class="cls-6" d="M74.92,141.78c-.45,8.89-2.32,15-1.61,15.88s.54,15.79.54,15.79-4.36,4.85-6.91,20.43H77.71c1.51-5.09,3.57-9.09,5.49-11.1,5-5.25,8.33-5.69,18.85-8.32s4.16-18.41-5-18.19-24.1-.88-9.21-7.89,31.56-32.21,20.82-22.13-18,4.39-26.73-4.16c-7.86-7.67-9.55,4.59-9.82,7.2l.08-.21S75.36,132.89,74.92,141.78Z"/>
      <path class="cls-6" d="M80.14,179.06s44.91,3.72,50.17-.44-3.94-5.7-13.58-5.7S80.14,179.06,80.14,179.06Z"/>
      <path class="cls-6" d="M79.7,156.49s44.92-6.79,50.17-2.63-3.94,5.7-13.58,5.7S79.7,156.49,79.7,156.49Z"/>
      <path class="cls-7" d="M127.83,83.26S118.07,119.78,73,132.91c0,0-3.89,4.21.08,6.44,0,0-5,4.39.16,7.62-.55,1.59-3.86,4.1-.52,6.94,1.85,1.57,39.77-22.41,56.12-42.9,16-20,9.25-22.84,9.25-22.84s-3.47-3.22-5.45-2.1c0,0-.57-2.81-2.69-1.31C130,84.76,130.1,80.63,127.83,83.26Z"/>
      <path class="cls-7" d="M134.46,153.23s-57.51,5-61.15,4.43-3,14.86-.58,18.16,58.88,2.33,62.19.86,6.43-18.37-.46-23.45"/>
      <path class="cls-8" d="M94.43,74.84s2.66,5.52,8.65,6.18,10-3.76,10.53-5.41L112.84,72,95,70.89Z"/>
      <g>
        <g>
          <g>
            <path class="cls-9" d="M120.76,53.74s5.62-.22,3,5.21c-1.06,2.21-1.79,4.95-3,5.84s-3.61.78-3.79.41,2-11,2-11.46S120.76,53.74,120.76,53.74Z"/>
            <path class="cls-10" d="M120.18,58.59a2.46,2.46,0,0,1-.31,1.78c-.53.72-.85,1.62-.53,1.52a3.3,3.3,0,0,0,2.23-1.65c.75-1.34.84-2.5.35-3.21S119.92,56.67,120.18,58.59Z"/>
          </g>
          <g>
            <path class="cls-9" d="M88.43,53.74s-5.62-.22-3,5.21c1.06,2.21,1.79,4.95,3,5.84s3.61.78,3.79.41-2-11-2-11.46S88.43,53.74,88.43,53.74Z"/>
            <path class="cls-10" d="M89,58.59a2.46,2.46,0,0,0,.31,1.78c.53.72.84,1.62.53,1.52a3.3,3.3,0,0,1-2.23-1.65c-.76-1.34-.85-2.5-.35-3.21S89.27,56.67,89,58.59Z"/>
          </g>
        </g>
        <path class="cls-11" d="M120.72,38.86c-.06-1.6-12.4-2.19-15.39-1.48-3-.71-16.8-.12-16.86,1.48A105.37,105.37,0,0,0,89,51.71c.54,4.81,3.15,19.09,4.67,20.47,5.92,5.35,6.42,6.94,10.27,6.91.14,0,1.27,0,1.41,0,3.85,0,4.35-1.56,10.27-6.91,1.52-1.38,4.12-15.66,4.67-20.47A105.37,105.37,0,0,0,120.72,38.86Z"/>
        <path class="cls-12" d="M93.63,54.33s2.49-1.62,4.66-1.1,4,1.67,4.29,1.1.41-1.5,0-1.82-1.74.12-3.47-.39-2.69-.73-3.48,0S93.63,54.33,93.63,54.33Z"/>
        <path class="cls-13" d="M98.16,56.35a1,1,0,0,0,1.09-.87.67.67,0,0,0-.17-.44,3.26,3.26,0,0,0-2,.17.63.63,0,0,0-.06.27,1,1,0,0,0,1.1.87Z"/>
        <g>
          <path class="cls-14" d="M108.77,69.62h-8.18l-1.12.09a5.72,5.72,0,0,0,2,1.67,7.23,7.23,0,0,0,2.51.43h0s.3,0,.74,0,.74,0,.74,0h0a7.19,7.19,0,0,0,2.51-.43,5.72,5.72,0,0,0,2-1.67Z"/>
          <path class="cls-15" d="M108.86,69c-.88-.36-2.42-.83-3.56-1.16a.73.73,0,0,0-.71-.2.75.75,0,0,0-.71.2c-1.13.33-2.67.8-3.55,1.16-1.5.62-.93.61-.93.61h10.39S110.35,69.62,108.86,69Z"/>
        </g>
        <path class="cls-12" d="M115.34,54.33s-2.49-1.62-4.67-1.1-4,1.67-4.28,1.1-.42-1.5,0-1.82,1.74.12,3.46-.39,2.7-.73,3.48,0S115.34,54.33,115.34,54.33Z"/>
        <path class="cls-13" d="M110.81,56.35a1,1,0,0,1-1.09-.87.72.72,0,0,1,.16-.44,3.29,3.29,0,0,1,2,.17.81.81,0,0,1,0,.27,1,1,0,0,1-1.1.87Z"/>
        <path class="cls-12" d="M115,66.26c-2-.5-2.22.75-2.22.75,1.22-.79,2.2.47,1.51,1.24s-1.61.58-3.56-1.72-3.4-2.18-3.4-2.18a5.25,5.25,0,0,0-2.82.94l0,.09a.62.62,0,0,1,0-.09,5.25,5.25,0,0,0-2.82-.94s-1.45-.12-3.4,2.18S95.33,69,94.64,68.25s.3-2,1.52-1.24c0,0-.25-1.25-2.22-.75s-1.82,3.82-.29,4.81,4.37-.91,5.82-1.47c1.24-.48,4.08-1.08,5-1.38.9.3,3.74.9,5,1.38,1.45.56,4.29,2.46,5.83,1.47S116.92,66.76,115,66.26Z"/>
        <path class="cls-16" d="M108.07,61.64c-.55-.9-1-.17-1-.17s-.31-1.59-.68-3.27-.23-2.88-.48-4.05c-.2-.95-1-.59-1.27-.42-.28-.17-1.06-.53-1.26.42-.25,1.17-.1,2.36-.48,4.05s-.68,3.27-.68,3.27-.5-.73-1,.17a6.15,6.15,0,0,0-.41,2.18c.09.82.58.85,1.08.87s1-.31,1.39.15a2.18,2.18,0,0,0,1.16.61h0l.24,0,.24,0h0a2.18,2.18,0,0,0,1.16-.61c.42-.46.89-.14,1.39-.15s1,0,1.08-.87A6.4,6.4,0,0,0,108.07,61.64Z"/>
        <path class="cls-11" d="M107.9,61.64c-.52-.9-1-.17-1-.17s-.29-1.59-.65-3.27-.21-2.88-.45-4.05c-.19-.95-.93-.59-1.21-.42-.27-.17-1-.53-1.2.42-.24,1.17-.1,2.36-.46,4.05s-.64,3.27-.64,3.27-.48-.73-1,.17a6.56,6.56,0,0,0-.39,2.18c.09.82.55.85,1,.87s.93-.31,1.32.15a2.08,2.08,0,0,0,1.11.61h0l.22,0,.23,0h0a2,2,0,0,0,1.11-.61c.4-.46.85-.14,1.33-.15s.94,0,1-.87A6.48,6.48,0,0,0,107.9,61.64Z"/>
        <g>
          <path class="cls-17" d="M105.8,54.15c.24,1.17.09,2.36.45,4.05s.65,3.27.65,3.27l.09-.11c-.07-.39-.34-1.74-.65-3.16-.38-1.69-.23-2.88-.48-4.05C105.75,53.65,105.7,53.67,105.8,54.15Z"/>
          <path class="cls-17" d="M102.29,61.47s.29-1.59.64-3.27.22-2.88.46-4.05c.09-.48,0-.5-.06,0-.25,1.17-.1,2.36-.48,4.05-.32,1.42-.58,2.77-.66,3.16Z"/>
          <path class="cls-17" d="M100.89,63.82a6.56,6.56,0,0,1,.39-2.18c.18-.3.35-.42.49-.44-.18,0-.41,0-.65.44a6.15,6.15,0,0,0-.41,2.18c.09.82.58.85,1.08.87h.1C101.42,64.67,101,64.62,100.89,63.82Z"/>
          <path class="cls-17" d="M108.07,61.64c-.24-.39-.47-.47-.66-.44.15,0,.32.14.49.44a6.48,6.48,0,0,1,.4,2.18c-.09.8-.54.85-1,.86h.1c.5,0,1,0,1.08-.87A6.4,6.4,0,0,0,108.07,61.64Z"/>
          <path class="cls-17" d="M105.94,64.84a2,2,0,0,1-1.11.61h0l-.23,0,.24,0h0a2.18,2.18,0,0,0,1.16-.61.69.69,0,0,1,.51-.25A.7.7,0,0,0,105.94,64.84Z"/>
          <path class="cls-17" d="M104.35,65.45a2.08,2.08,0,0,1-1.11-.61.68.68,0,0,0-.57-.25.69.69,0,0,1,.51.25,2.18,2.18,0,0,0,1.16.61h0l.24,0-.22,0Z"/>
        </g>
        <path class="cls-17" d="M108.48,63.57c-.09.82-.58.85-1.08.87s-1-.3-1.39.15a2.18,2.18,0,0,1-1.16.61h0l-.24,0-.24,0h0a2.18,2.18,0,0,1-1.16-.61c-.42-.45-.89-.13-1.39-.15s-1,0-1.08-.87a.34.34,0,0,1,0-.1,2,2,0,0,0,0,.35c.09.82.58.85,1.08.87s1-.31,1.39.15a2.18,2.18,0,0,0,1.16.61h0l.24,0,.24,0h0a2.18,2.18,0,0,0,1.16-.61c.42-.46.89-.14,1.39-.15s1,0,1.08-.87c0-.11,0-.23,0-.35C108.49,63.5,108.48,63.54,108.48,63.57Z"/>
        <path class="cls-10" d="M102.68,63.43s.18-2.23.51-3.93c.3-1.5.57-3.51,0-4.69a23.42,23.42,0,0,1-.37,3.39c-.37,1.68-.68,3.27-.68,3.27a.61.61,0,0,0-.53-.27,3.46,3.46,0,0,1,.84,1.53Z"/>
        <path class="cls-10" d="M106.54,63.43s-.18-2.23-.52-3.93c-.29-1.5-.56-3.51,0-4.69a26.64,26.64,0,0,0,.37,3.39c.38,1.68.68,3.27.68,3.27a.61.61,0,0,1,.53-.27,3.56,3.56,0,0,0-.83,1.53Z"/>
        <path class="cls-18" d="M102.51,63.87a.73.73,0,0,0-1,.3.42.42,0,0,0,.12.42h0c.5,0,1-.27,1.39.13a1.92,1.92,0,0,0,.22.18A3.47,3.47,0,0,0,102.51,63.87Z"/>
        <path class="cls-18" d="M106.67,63.66a.72.72,0,0,1,1,.3.4.4,0,0,1-.12.41h0c-.5,0-1-.27-1.39.13l-.22.18A3.34,3.34,0,0,1,106.67,63.66Z"/>
        <path class="cls-19" d="M104.81,71.75a7.13,7.13,0,0,0-6.69,4.66c2.14,2,3.22,2.7,5.77,2.68.14,0,1.27,0,1.41,0,2.67,0,3.72-.73,6.09-3A7.14,7.14,0,0,0,104.81,71.75Z"/>
        <path class="cls-20" d="M98.18,55.92a.65.65,0,0,1-.65-.57s0,0,0,.08a.66.66,0,0,0,.66.65.65.65,0,0,0,.65-.65.19.19,0,0,0,0-.08A.65.65,0,0,1,98.18,55.92Z"/>
        <path class="cls-2" d="M98.64,55.34a.16.16,0,0,1-.16.16.16.16,0,0,1-.15-.16.15.15,0,0,1,.15-.15A.16.16,0,0,1,98.64,55.34Z"/>
        <path class="cls-20" d="M111,56a.65.65,0,0,1-.65-.57s0,0,0,.08a.66.66,0,0,0,.66.65.65.65,0,0,0,.65-.65.19.19,0,0,0,0-.08A.65.65,0,0,1,111,56Z"/>
        <path class="cls-2" d="M111.41,55.42a.16.16,0,0,1-.16.16.16.16,0,0,1-.15-.16.15.15,0,0,1,.15-.15A.16.16,0,0,1,111.41,55.42Z"/>
        <path class="cls-21" d="M105.38,51.67a.79.79,0,1,1-1.57,0c0-.48.35-6.47.78-6.47S105.38,51.19,105.38,51.67Z"/>
        <path class="cls-12" d="M124.24,44.74c.07-4.55-22.43-11-39.19-1.86,0,0-.29,7.84,3.58,10.9l1.7,6s.92-8.16,1-10.39c.06-.15.26-1.68.38-1.94,1.2-2.53,4-5.36,7.53-5.59,15.24-.95,17,1.49,18.06,5.82a116.22,116.22,0,0,1,1.75,11.92l1.32-4.64C121.64,53.09,124.17,48.64,124.24,44.74Z"/>
        <g>
          <path class="cls-6" d="M85.31,44.55s18.61-2,24.24-1.23,14,3.22,14.92,3.28,6.61-8.23,9.29-12.69,1.82-12.93-5.13-10.69-10.25,5.07-12,4.35S101.5,21.44,97.1,23.29,90.52,28.14,87,27.91,75,23,73.24,24.85,73.16,40.5,85.31,44.55Z"/>
          <path class="cls-22" d="M111.55,25.66C106.75,24,100,22.08,97.1,23.29a35.74,35.74,0,0,0-5.43,3.12C96.51,28.2,105.75,26.82,111.55,25.66Z"/>
          <path class="cls-22" d="M135.14,28c-.21-3.37-2.17-6.15-6.51-4.75-5.17,1.66-8.31,3.65-10.31,4.27-5.08,2.85-14.47,3.19-22.37,3.05-3.33-.05-7.58-1.5-11.4-3.16-4-1.24-9.84-4.07-11.31-2.53-.54.56-.76,2.19-.48,4.3,4.1-3.53,6.88.67,18.75,4.85,13.54,4.76,36.35-4.75,39.68-6.29A4.15,4.15,0,0,1,135.14,28Z"/>
          <path class="cls-23" d="M125.11,45.24,125,45c0-.1-.05-.22-.09-.35s-.09-.28-.14-.44a2.41,2.41,0,0,1-.08-.25,2.77,2.77,0,0,1-.1-.26s0-.09,0-.13l.23-.24c.33-.34.68-.73,1-1.14s.73-.86,1.1-1.33.56-.75.84-1.14l.08.13.42.7.15.27.11.2.1.16.09,0a1.42,1.42,0,0,0,0-.19,4.57,4.57,0,0,0-.1-.53c0-.12-.05-.25-.09-.38l-.13-.44-.17-.49h0l.92-1.31,1.09-1.56L131,35.1c.1.16.19.31.28.44l.37.56.25.36a.73.73,0,0,0,.09.12l.09,0s0,0,0-.15S132,36.14,132,36s0-.2-.06-.31-.07-.23-.1-.35-.16-.53-.27-.83c0,0,0-.07,0-.11l.74-1.11.84-1.29c.26-.41.49-.78.7-1.1l.54-.86.46-.74-.09-.06-.52.7c-.33.45-.81,1.09-1.39,1.85L131.84,33l-.51.67-.08.1a2.44,2.44,0,0,0-.1-.24c-.14-.34-.3-.69-.48-1-.1-.18-.19-.36-.3-.53s-.21-.35-.32-.53c-.21-.36-.43-.72-.65-1.08l-.65-1.09-.2-.34c0-.07,0-.13.07-.2.25-.61.48-1.2.68-1.74.41-1.09.73-2,.94-2.65s.32-1,.32-1l-.1,0s-.13.36-.39,1l-.47,1.13q-.27.64-.63,1.44c-.22.5-.46,1-.73,1.59l-.12-.21-.61-1c-.2-.3-.38-.59-.55-.86s-.33-.51-.48-.72l-.36-.56-.33-.48-.08.05.93,1.89c.29.57.61,1.23,1,1.94l.3.61c-.2.42-.4.85-.62,1.29-.32.64-.67,1.3-1,2s-.63,1.18-1,1.77l-.36-.49-1-1.24c-.32-.41-.64-.8-1-1.18-.18-.23-.37-.45-.55-.67.12-.29.23-.58.34-.86.2-.53.38-1,.54-1.49.33-.93.59-1.71.76-2.25s.25-.87.25-.87l-.09,0s-.11.31-.33.84l-.39.95c-.15.37-.33.78-.52,1.23l-.65,1.44c-.09.19-.19.39-.28.59-.29-.33-.55-.65-.81-.94s-.49-.57-.7-.8l-.56-.62-.48-.53-.08.07s.15.21.43.57l.48.67.63.86.74,1,.12.18c-.08.17-.16.34-.25.51-.27.55-.55,1.12-.84,1.69s-.6,1.15-.91,1.71c-.16.29-.31.57-.48.85l-.18.31c-.09-.11-.19-.21-.28-.31-.41-.46-.83-.9-1.24-1.33l-1.19-1.2,0,0s0-.05,0-.08c.08-.22.15-.43.21-.64.13-.43.25-.83.35-1.2.05-.19.1-.37.14-.54l.12-.48c.07-.31.13-.58.17-.8s.08-.39.1-.51l0-.18-.1,0,0,.17c0,.12-.08.29-.15.5s-.07.22-.11.35-.09.27-.14.41-.11.31-.17.47-.12.34-.18.52c-.13.36-.29.74-.45,1.15-.06.16-.13.32-.2.48l-.65-.61c-.69-.64-1.27-1.16-1.69-1.52l-.66-.55-.06.07.6.61.68.71.87.93.72.8a3.35,3.35,0,0,1-.15.35c-.2.43-.39.88-.62,1.33l-.32.68-.36.67-.17.34-.09.17-.1.16-.38.64-.14-.19-.93-1.22-.92-1.16-.2-.25a.29.29,0,0,0,0-.09c.11-.39.2-.77.28-1.14s.16-.7.22-1,.1-.62.15-.88.07-.49.09-.67c0-.38.07-.59.07-.59l-.1,0s0,.21-.14.57-.23.89-.42,1.5c-.1.31-.2.64-.32,1s-.18.54-.28.82c-.37-.45-.72-.87-1-1.24l-.68-.79-.54-.61-.47-.53-.07.07.41.57.46.65c.18.26.38.55.61.86l.7,1,.4.58c-.1.28-.21.56-.33.85s-.32.78-.49,1.16c-.09.2-.18.39-.28.58s-.19.37-.28.56l-.59,1.07-.19.38-.14-.33a2.39,2.39,0,0,1-.13-.28c0-.09-.09-.18-.14-.27l-.3-.55-.64-1.1L107,35.9l-.33-.54c-.15-.22-.29-.45-.43-.66.08-.34.16-.66.22-1s.15-.72.21-1a18.75,18.75,0,0,0,.27-2.18h-.09s0,.21-.13.58-.22.9-.4,1.53c-.09.31-.19.65-.31,1,0,.16-.11.33-.17.51-.17-.25-.34-.5-.51-.72L105,33l-.3-.39c-.19-.26-.38-.48-.54-.69l-.42-.51-.29-.33-.1-.11-.08.06.09.13.23.35c.11.16.22.35.36.56s.29.47.45.74l.26.42.26.46c.18.31.36.64.56,1l.09.18-.41,1c-.08.2-.16.4-.25.59s-.17.4-.26.59-.19.39-.28.58l-.3.56c-.11.18-.21.36-.31.54l-.15.27-.21-.42c-.17-.32-.36-.65-.56-1s-.4-.67-.59-1l-.58-1-.33-.59q.21-.54.39-1.05c.13-.38.26-.74.36-1.08s.2-.64.28-.91.15-.51.2-.71c.1-.4.15-.63.15-.63l-.09,0s-.08.22-.23.59-.36.92-.64,1.56l-.46,1-.31.64c-.15-.24-.29-.48-.42-.71s-.34-.56-.49-.82l-.41-.68-.32-.53-.29-.46-.08.05s.07.18.21.49l.25.57c.1.21.2.46.32.73l.39.86.43,1,.09.18-.53,1c-.22.4-.44.8-.67,1.19l-.36.59-.26.4-.46-.79c-.2-.33-.4-.67-.59-1l-.58-1c-.19-.34-.38-.66-.57-1l-.07-.11,0-.08c.17-.41.32-.79.45-1.15a23.46,23.46,0,0,0,.75-2.44l-.1,0s-.08.24-.25.65c-.08.21-.18.46-.3.74l-.43.94c-.13.28-.28.57-.43.88l-.19-.31-.48-.81q-.23-.39-.42-.69l-.32-.53-.28-.46-.09.05.22.49.25.57c.09.22.2.46.32.73l.39.87q.14.31.3.66l-.46.84-.36.62c-.13.2-.25.41-.38.62l-.41.63-.2.31-.22.31c-.1.15-.21.3-.32.44-.11-.26-.23-.53-.36-.8l-.53-1.15-.51-1.15c-.17-.38-.34-.76-.51-1.12h0c.16-.32.3-.63.43-.92s.3-.71.41-1,.21-.57.28-.79a7.33,7.33,0,0,0,.19-.71l-.09,0s-.08.25-.27.68c-.09.21-.2.46-.34.75s-.31.61-.5.95c-.1.19-.22.39-.34.59-.08-.19-.17-.36-.25-.54L90.87,32c-.14-.28-.26-.55-.37-.78s-.21-.44-.3-.6L90,30.1l-.09,0s.06.2.18.55c.06.18.13.39.22.64l.27.82c.2.56.42,1.21.66,1.91-.23.36-.47.73-.74,1.1-.13.2-.29.39-.44.59l-.47.6c-.16.2-.32.4-.5.6l-.25.29-.27.29c-.12.13-.24.26-.37.38-.19-.41-.4-.84-.62-1.26s-.51-1-.76-1.48c-.12-.25-.25-.49-.37-.74l.1-.12c.07-.1.15-.19.22-.28l.21-.29c.28-.37.54-.74.78-1.1s.45-.71.63-1a17.59,17.59,0,0,0,.84-1.6c.18-.4.27-.63.27-.63l-.09,0s-.11.22-.34.59l-.41.66c-.16.25-.35.52-.57.82s-.45.62-.71.95c-.13.17-.27.33-.41.5l-.44.51c-.08.09-.15.18-.23.26l-.16.18-.8-1.56c-.24-.46-.47-.91-.7-1.33L84,29.73a1.14,1.14,0,0,0-.1-.19l0-.06.51-.68c.15-.2.28-.38.38-.53l.32-.47L85,27.74s-.13.16-.38.42l-.44.47-.54.57c-.09-.17-.17-.33-.25-.47q-.25-.45-.42-.78c-.24-.42-.37-.67-.37-.67l-.09,0,.9,2.1-.51.52-.8.77c-.27.27-.56.54-.86.81l-.91.81c-.15.13-.31.27-.47.39l-.05,0c-.06-.13-.13-.27-.19-.41l-.77-1.67c-.24-.51-.47-1-.7-1.47.2-.19.38-.39.56-.58s.36-.39.51-.59l.23-.28.21-.27a2,2,0,0,0,.18-.25c.06-.08.12-.15.17-.23l.13-.2a1.4,1.4,0,0,1,.12-.18l.15-.26,0-.09-.08-.05-.06.08-.19.21-.31.33-.42.4-.24.23c-.08.08-.18.15-.27.23s-.37.33-.58.5l-.45.36-.41-.85c-.2-.43-.39-.82-.56-1.17s-.32-.66-.45-.91l-.38-.79-.09,0,1.54,4-.17.13-.34.25c-.23.16-.46.32-.7.47l-.68.44a7.16,7.16,0,0,0-.59.47c-.12.09-.23.19-.33.28l-.09-.21c-.12-.3-.25-.59-.37-.87s-.23-.53-.33-.78-.21-.46-.29-.65-.16-.37-.23-.51l-.19-.43-.1,0,.13.46c0,.15.09.33.14.54s.13.43.2.69l.23.81c.08.29.17.59.26.91,0,.15.09.31.14.47l-.12.12a3.19,3.19,0,0,0-.32.33,1.69,1.69,0,0,0-.2.23l-.07.08,0,.09.11,0,.29-.08a4.39,4.39,0,0,0,.45-.14c.08.29.17.59.26.88s.2.67.29,1,.18.65.29,1,.23.6.35.88a2.72,2.72,0,0,1,.11.25h0l-.35.24-.12.09,0,.1.15,0,.18,0,.24-.05h0l.09.19a12.18,12.18,0,0,0,.64,1.11l.2.31.08.1L77,38v-.13c0-.09,0-.21,0-.37a11.64,11.64,0,0,0-.21-1.26,1,1,0,0,1,0-.17l.19-.08c.13-.06.28-.11.42-.19l.44-.22.46-.27a10.48,10.48,0,0,0,.93-.65c.17-.14.34-.28.5-.43l.09.22c.23.59.45,1.19.67,1.78s.43,1.17.65,1.72c0,0,0,.07,0,.11l-.38.28-.47.33c-.14.11-.29.21-.43.3l-.38.28-.35.23c-.11.08-.2.15-.3.21l-.41.29-.15.11,0,.09.18,0,.5-.13.75-.25.46-.18.5-.22.52-.26.3-.16c.08.2.17.4.26.59.22.5.44,1,.64,1.41s.39.82.56,1.17c0,.1.09.2.14.29l-.1.09-.14.11-.42.35-.14.12,0,.09.18-.06.51-.19.26-.11.11.22c.12.25.22.45.29.58l.11.21.1,0a2.32,2.32,0,0,1,0-.23c0-.15-.07-.37-.13-.65a1.57,1.57,0,0,0-.06-.28l.14-.06.23-.11.23-.13.51-.28c.34-.21.72-.44,1.09-.71l.29-.21.29-.22.57-.48c.27-.25.54-.51.8-.79,0,.09.09.19.14.28s.21.42.31.62l.29.58c.19.37.38.71.53,1l.43.77a1.74,1.74,0,0,0,.1.19l0,0-.24.27-.36.38-.12.14.06.08.16-.08.47-.24.28-.16,0,.07.09,0a.45.45,0,0,0,0-.11l.3-.19.42-.29.22-.16.22-.18.23-.19.23-.2c.16-.14.32-.28.48-.44s.32-.32.48-.49.32-.35.47-.53.29-.36.42-.55l.35.72c.14.28.28.54.4.77s.24.43.33.59.17.29.23.37a.63.63,0,0,0,.09.13l.09,0s0-.05,0-.15,0-.25-.06-.44-.07-.41-.12-.67-.12-.54-.2-.85-.18-.64-.29-1c0-.14-.09-.29-.14-.44l.61-1,.2-.33c.06-.11.12-.22.19-.33s.25-.45.37-.67.23-.45.34-.66l.32-.66c.07-.17.15-.33.22-.49.1.24.21.47.32.71s.33.7.49,1.06.32.71.47,1.06.3.7.46,1l.17.32c-.07.09-.13.19-.2.29-.24.35-.46.7-.67,1-.1.17-.21.33-.31.48l-.15.23-.14.22c-.19.29-.36.56-.52.79s-.15.23-.22.33l-.18.29-.26.4-.09.14.07.07.15-.09.39-.28a6.61,6.61,0,0,0,.58-.48,8.51,8.51,0,0,0,.7-.67c.13-.13.25-.26.38-.41s.26-.29.38-.45a10.44,10.44,0,0,0,.66-.9l0,0,.25.38c.15.25.31.47.45.67a3.15,3.15,0,0,0,.19.27l.17.23.25.33.09.11.09,0s0-.05,0-.14-.05-.23-.09-.4-.09-.38-.16-.61-.16-.49-.26-.77-.21-.58-.35-.89a.69.69,0,0,0-.05-.13l.19-.37c.11-.21.22-.42.32-.63l.16-.31.16-.32c.21-.42.4-.85.59-1.27.09-.19.17-.38.25-.57l0,.09c.17.35.33.71.49,1.06s.32.72.47,1.07.31.7.47,1A8.84,8.84,0,0,0,103,40l0,.08a2.4,2.4,0,0,0-.11.23c-.18.32-.35.62-.5.91l-.11.2-.11.2L102,42l-.19.32c0,.1-.1.2-.15.28l-.21.39-.07.15.07.06.13-.09.36-.28.52-.48c.1-.09.19-.2.3-.31l.16-.17a1.46,1.46,0,0,1,.16-.19c.1-.13.22-.26.33-.41l.19-.26.33.48.19.27.17.23c.1.14.19.25.25.32l.09.12.09,0a.72.72,0,0,0,0-.14,4,4,0,0,0-.09-.4,5.73,5.73,0,0,0-.16-.62c-.07-.23-.15-.48-.26-.76a2,2,0,0,0-.08-.22c.09-.15.18-.3.26-.45l.28-.57.26-.6c.16-.41.32-.82.47-1.23.08-.21.16-.42.23-.63s.14-.41.2-.62.11-.36.17-.53l.07.13c.09.18.18.37.28.55s.19.37.28.56c.17.38.35.76.5,1.14.08.19.15.38.23.56s.16.37.23.55l.24.52.12.25c0,.08.07.17.11.25l0,0-.08.17-.12.22c-.14.28-.28.54-.4.77s-.11.22-.17.32l-.14.28c-.09.17-.16.3-.2.39l-.07.15.08.06.12-.09.35-.29c.14-.13.32-.29.5-.48s.36-.38.55-.62l.36.75c.06.11.11.22.16.32l.13.28.21.38.08.14.09,0v-.15c0-.11,0-.25,0-.44s0-.42-.08-.68-.11-.55-.18-.86a4.84,4.84,0,0,0-.14-.51.83.83,0,0,0,.08-.12,9.12,9.12,0,0,0,.6-1,11,11,0,0,0,.51-1.16c.08-.21.16-.41.23-.61s.08-.21.11-.31l.11-.31q.23-.61.42-1.23l.12-.41.76,1.11.84,1.26.33.51c-.11.16-.2.33-.3.49-.23.41-.47.8-.68,1.18l-.31.55c-.1.18-.21.35-.3.52l-.27.47-.24.44c-.16.26-.29.5-.4.7s-.19.36-.24.47a1.19,1.19,0,0,0-.08.17l.07.06.15-.12.38-.36c.17-.16.37-.35.59-.58s.45-.5.7-.8l.38-.47c.13-.17.25-.35.38-.53a11.39,11.39,0,0,0,.76-1.18v0l.26.43.38.61c.26.4.51.78.77,1.14l.36.52-.08.13-.3.47-.25.41-.36.56-.12.21.08.06.18-.16.5-.45.71-.72.29.42.29.4c.19.25.34.48.47.66l.32.42.11.15.09,0a1.35,1.35,0,0,0-.05-.18c0-.11-.08-.29-.15-.5a3.79,3.79,0,0,0-.12-.36,4.3,4.3,0,0,0-.16-.41c-.12-.3-.25-.63-.42-1a2.12,2.12,0,0,0-.11-.21c.12-.13.23-.27.34-.41s.32-.4.48-.61.33-.43.49-.67.17-.23.25-.35.17-.24.25-.37.33-.5.49-.77.31-.54.46-.82c.07-.12.13-.24.19-.36a.64.64,0,0,1,.1.13c.19.24.37.49.55.74l.53.76.92,1.37c-.13.22-.27.43-.4.63l-.25.38-.24.37-.23.35-.22.34c-.15.21-.29.42-.42.62l-.37.54-.31.46-.45.65-.15.23.07.07.21-.19c.14-.12.34-.29.59-.53s.54-.52.86-.87c.17-.17.34-.36.52-.56s.35-.41.54-.64l.29-.34c.09-.12.19-.24.28-.37a3.76,3.76,0,0,0,.25-.31l.45.65.83,1.25.34.53c-.12.16-.23.32-.33.47l-.31.45-.26.38c-.16.23-.28.42-.36.55l-.12.19.07.07.18-.15c.12-.09.29-.24.5-.42s.47-.42.74-.69l.26-.26a1.74,1.74,0,0,1,.11.18,2.39,2.39,0,0,1,.13.21l.24.39.33.55.12.19.09,0ZM79,33.46l-.46.34-.85.68-.76.6-.35.27h0c-.08-.28-.17-.58-.28-.89s-.25-.61-.39-.93l-.42-.95c-.12-.3-.24-.6-.37-.9q.27-.12.54-.27c.22-.13.44-.27.66-.43l.33-.26.31-.29.32-.29.32-.3.29-.27,1.43,3.65A3.55,3.55,0,0,0,79,33.46Zm2.3,2.37c-.27-.57-.54-1.15-.8-1.73-.07-.16-.15-.32-.22-.49l.24-.24.44-.45c.3-.3.58-.6.86-.9s.55-.6.8-.9l.72-.86.33-.42,0,.05c.53,1.24,1.21,2.83,1.92,4.47l0,0-.51.51c-.18.16-.35.33-.54.49a13.52,13.52,0,0,1-1.11.92l-.29.22-.28.21-.28.2-.28.2-.27.21h0C81.73,36.87,81.49,36.36,81.25,35.83Zm5,3.78-.54.47-.51.45-.25.22-.25.2-.46.4-.43.35-.2.17L83.5,42l0-.13c-.1-.38-.23-.8-.37-1.26s-.3-1-.49-1.47c-.08-.26-.18-.51-.28-.78l.24-.16.28-.21.29-.22.27-.23.28-.24L84,37l.54-.52L85,36l.51-.55.32-.36c.07.14.13.29.19.43.22.51.43,1,.63,1.53s.4,1,.61,1.49a1,1,0,0,1,.07.15Zm3.88,2.77-.32.37,0,0v-.05c0-.24-.12-.53-.21-.86s-.21-.7-.34-1.1-.29-.82-.46-1.27c-.08-.24-.18-.48-.28-.73l.08-.09a3.88,3.88,0,0,1,.26-.31c.09-.1.17-.21.25-.31l.26-.32.24-.31c.17-.21.32-.43.47-.65s.3-.43.45-.65.28-.43.4-.64l.19-.32.18-.32.1-.17q.11.34.24.69c.13.39.27.79.42,1.19s.27.8.4,1.2.25.78.39,1.15l.09.23-.3.37c-.16.18-.31.37-.46.55l-.44.52-.42.5-.79.91-.18.21Zm35.69-7.63c.36-.69.69-1.39,1-2.07s.64-1.38.92-2.05c.14-.31.27-.62.4-.92l.49,1c.19.38.36.76.53,1.14s.34.75.52,1.1.36.68.54,1l.35.6-1,1.26-1.17,1.5-.67.83c-.11-.24-.23-.48-.36-.74s-.45-.82-.71-1.24c-.13-.21-.27-.42-.42-.62s-.3-.42-.45-.63l-.06-.07Zm-7.93,3c-.31.52-.62,1-.9,1.5l-.21.35-.21.34c-.07.11-.14.22-.2.33l-.2.32-.07.12-.08-.15c-.22-.39-.45-.79-.72-1.19s-.55-.81-.86-1.21l-.15-.2.18-.38c.21-.47.44-.93.64-1.41.1-.24.21-.47.31-.71l.29-.71c.2-.47.36-1,.52-1.4a.32.32,0,0,0,0-.09c.32.36.65.73,1,1.13l1.14,1.38.41.51C118.54,36.81,118.23,37.3,117.94,37.78Zm3.47.42-.6-.72c-.21-.24-.4-.49-.61-.72l-.33-.39.09-.17.21-.44.44-.89c.28-.59.56-1.19.83-1.78s.51-1.18.74-1.75l.09-.22.31.45c.28.4.57.81.86,1.24l.86,1.29.54.86-.25.41-.29.49-.31.48c-.19.32-.4.63-.6.95l-.59.92-.62,1-.2-.27C121.8,38.68,121.6,38.44,121.41,38.2Zm2.38,3.6a2.79,2.79,0,0,0-.18-.34l-.19-.35c-.19-.34-.4-.68-.62-1l.29-.42c.2-.29.4-.59.59-.9s.39-.63.57-1,.37-.65.55-1l.27-.51.27-.51.16.28c.13.22.26.42.38.63l.75,1.18.62.95c-.39.46-.75.91-1.11,1.36s-.71.93-1,1.36l-.47.64q-.19.29-.39.54l-.12-.26C124,42.25,123.91,42,123.79,41.8Z"/>
        </g>
      </g>
      <path class="cls-6" d="M57.57,129.32c2.28-16.67,7.86-32.23,10.55-39.07-4.21,2.34-7.78,5.18-9.09,8.44-4,10-4.91,20-7,27.12-1.79,6.28-5.3,18.1-5.31,24.42L16.43,159.8l1.39,7C55.3,164.94,54.62,150.76,57.57,129.32Z"/>
      <path class="cls-5" d="M136.83,125.57l6.62,27.18s5.45,30.8,10.18,37.77c.87,1.29,1.57,2.4,2.14,3.36H163c-3.15-7.6-6.62-16.71-8.32-23.59-3.5-14.24-14-44.91-16.87-46.23-.9-.41-1.16,1.16-1.11,3.51Z"/>
      <g>
        <path class="cls-6" d="M153.63,190.52c.87,1.29,1.57,2.4,2.14,3.36h5.8a274.89,274.89,0,0,1-12.63-35.42c-2.63-10.08-4.39-28-9.64-32.65-1.35-1.18-2.08-1-2.42,0l6.57,27S148.9,183.55,153.63,190.52Z"/>
        <path class="cls-6" d="M136.64,127.78l.13-1.6A8.27,8.27,0,0,0,136.64,127.78Z"/>
      </g>
      <path class="cls-24" d="M97.41,156.27c-7.8.6-15,1.1-19.52,1.32l-.31,0h-.52l-.37,0H73.46l-.15,0c-3.53-.55-3.07,13.93-.8,17.83h0a2.7,2.7,0,0,0,.22.33.28.28,0,0,0,.09.1l.06.05L73,176l.1.06.06,0,.14.06.06,0,.18.07.05,0,.22.08h0l.28.08h0c2.63.74,8.65,1.17,15.94,1.39,2.86-1.22,6.41-2,12-3.4C112.41,171.87,106.39,156.51,97.41,156.27Z"/>
      <path class="cls-24" d="M87.67,127.31a92.43,92.43,0,0,1-10,4.1l-.29.1c-1.15.39-2.32.77-3.52,1.13h0l-.88.27s-3.89,4.21.08,6.44c0,0-5,4.39.16,7.62-.55,1.59-3.86,4.1-.52,6.94.11.1.37.09.76,0h0l.34-.09.1,0,.29-.1.13,0,.42-.17.16-.07.33-.15.21-.09.45-.22.26-.12.37-.19.28-.14.4-.21.38-.2.39-.21h0c6.49-3.52,17.93-11,29-19.89C112.31,125.46,94.11,132.41,87.67,127.31Z"/>
      <path class="cls-25" d="M103.44,122.2s-26.2,14.23-31.32,16.42a4,4,0,0,0,1,.73S93.68,132.51,103.44,122.2Z"/>
      <path class="cls-25" d="M73.25,147a2.18,2.18,0,0,1-.09.23c5-2.09,33-14.38,47-32.07,0,0-15.43,15.25-48.37,30.58A6.17,6.17,0,0,0,73.25,147Z"/>
      <path class="cls-25" d="M132.72,86c-1.47,4.1-9.09,23.72-25.57,37,8.85-4.31,26.39-26,27.54-37A2.53,2.53,0,0,0,132.72,86Z"/>
      <path class="cls-25" d="M130,84.76a5.86,5.86,0,0,0-.2-1.67A71.94,71.94,0,0,1,114.33,113c4.73-3.33,14.91-20,16.69-28.69A2.12,2.12,0,0,0,130,84.76Z"/>
      <path class="cls-25" d="M127.17,177.48a18.92,18.92,0,0,0-6-.51c-10,.37-38.51-1-43.23-3.14s-3.47-4.15,5.87-4.88,21.51-3.26,16.37-2.57-21.88-.21-25-.27c-1.79,0-3.37-1.45-4.39-2.64-.26,4.57.54,10.45,2,12.35C74.67,178.45,110.83,178.37,127.17,177.48Z"/>
      <path class="cls-25" d="M82.13,161.89a28.08,28.08,0,0,0,6.25.41c10.38-.15,39.88,1.07,44.76,2.58s3.56,2.86-6.12,3.27S82.07,172.46,87.4,172s45.31-1.94,48.51-1.87a6.24,6.24,0,0,1,2,.39,29.14,29.14,0,0,0,.65-6.93l-.05-.06C136.51,161.76,99.06,161.45,82.13,161.89Z"/>
      <path class="cls-25" d="M135.56,159.61c1.86,2.2,1.35,10-1,12.16-1.89,1.75-35.89,3.94-38.85,6.22,16.92.25,37.27-.45,39.22-1.31,3-1.32,5.79-15.1,1.33-21.56C135.43,156.15,134.27,158.09,135.56,159.61Z"/>
      <g>
        <g>
          <polygon class="cls-26" points="31.48 44.63 20.38 56.31 9.27 44.63 20.38 9.27 31.48 44.63"/>
          <polygon class="cls-27" points="20.18 9.91 9.27 44.63 20.18 56.1 20.18 9.91"/>
        </g>
        <rect class="cls-28" x="17.18" y="52.14" width="6.4" height="141.74"/>
        <rect class="cls-29" x="17.18" y="52.14" width="2.3" height="141.74"/>
        <rect class="cls-30" x="21.27" y="52.14" width="2.3" height="141.74"/>
        <path class="cls-29" d="M26,53.49c0,1.1-2.53,2-5.65,2s-5.66-.89-5.66-2,2.53-2,5.66-2S26,52.39,26,53.49Z"/>
        <path class="cls-30" d="M20.38,54.55c-2.67,0-4.9-.65-5.5-1.53a.86.86,0,0,0-.16.47c0,1.1,2.53,2,5.66,2s5.65-.89,5.65-2a.86.86,0,0,0-.16-.47C25.28,53.9,23.05,54.55,20.38,54.55Z"/>
      </g>
      <path class="cls-7" d="M86.54,82.84s.83-2.56,3.13-.26S105.46,101,105.46,101l12.63-19.56s2.56-.76,1.43,1.85-13.72,21.33-13.72,21.33Z"/>
      <path class="cls-31" d="M89.67,83.75c2.3,2.29,15.79,18.39,15.79,18.39l12.63-19.56s1.2-.35,1.59.25c.68-2.09-1.59-1.42-1.59-1.42L105.46,101S92,84.88,89.67,82.58s-3.13.26-3.13.26l.4.46C87.39,82.76,88.25,82.33,89.67,83.75Z"/>
      <path class="cls-3" d="M26.16,155.4c-1-2.77-10.87-1.6-13.27.79s-4.44,15.16.53,16.46C20,174.36,33.56,175.74,26.16,155.4Z"/>
      <g>
        <path class="cls-3" d="M27.33,158.85s-7-.9-11.32.73"/>
        <path class="cls-3" d="M28.39,163.47a101.85,101.85,0,0,1-11.85.89"/>
        <path class="cls-3" d="M27.86,168.42a73.75,73.75,0,0,1-11.85.46"/>
      </g>
      <g>
        <ellipse class="cls-32" cx="110.53" cy="56.69" rx="2.25" ry="2.72"/>
        <ellipse class="cls-33" cx="110.44" cy="56.64" rx="1.47" ry="1.87"/>
        <ellipse class="cls-2" cx="110.19" cy="55.14" rx="0.36" ry="0.45"/>
        <g>
          <ellipse class="cls-32" cx="98.33" cy="56.35" rx="2.25" ry="2.72"/>
          <ellipse class="cls-33" cx="98.31" cy="56.23" rx="1.47" ry="1.87"/>
          <ellipse class="cls-2" cx="97.98" cy="54.8" rx="0.36" ry="0.45"/>
        </g>
      </g>
    </g>
  </g>
</svg>
