<svg id="Layer_1" data-name="Layer 1" xmlns="http://www.w3.org/2000/svg" width="273.39" height="215.28" viewBox="0 0 273.39 215.28">
  <defs>
    <style>
      .cls-1 {
        opacity: 0.5;
      }

      .cls-2 {
        fill: #fff;
      }

      .cls-3 {
        fill: #bfbfbf;
      }

      .cls-4 {
        fill: #9c9c9c;
      }

      .cls-5 {
        fill: #515151;
      }

      .cls-6 {
        fill: #37363b;
      }

      .cls-7 {
        fill: #1e1d22;
      }

      .cls-8 {
        fill: #e2e2e2;
      }

      .cls-9 {
        fill: #bfbbbb;
      }

      .cls-10 {
        fill: #676565;
      }

      .cls-11 {
        fill: #c5c6c4;
      }

      .cls-12 {
        fill: #323232;
      }

      .cls-13 {
        fill: #703100;
      }

      .cls-14 {
        fill: #542000;
      }

      .cls-15 {
        opacity: 0.3;
      }

      .cls-16 {
        fill: #231103;
      }

      .cls-17 {
        fill: #383838;
      }

      .cls-18 {
        fill: #6d0004;
      }

      .cls-19 {
        fill: #370002;
      }

      .cls-20 {
        fill: #ff7676;
      }

      .cls-21 {
        fill: #e55757;
      }

      .cls-22 {
        fill: #bf2028;
      }

      .cls-23 {
        fill: #ff999a;
      }

      .cls-24 {
        fill: #ea7572;
      }
    </style>
  </defs>
  <g>
    <path class="cls-1" d="M140.62,215.28c.74,0,1.48,0,2.19-.05h.08l1.45-.09.28,0a39.31,39.31,0,0,0,5.72-.81l.35-.08a4.58,4.58,0,0,0,.49-.15c6.54-1.77,8.18-5.39,8.38-8.13a14.93,14.93,0,0,0-1.4-7.37A20.85,20.85,0,0,1,157,195c-.94-4.4-2.25-16.7,0-24.66.64-2.26,1.15-4.16,1.56-5.74A55.1,55.1,0,0,0,174.37,167c1.58,0,3.17-.08,4.75-.23a67.74,67.74,0,0,0,3,12.4c.38,1,.76,2.07,1.14,3.08,2,5.26,3.54,9.41,2.93,14.68l-.05.35c0,.26-.07.52-.11.79l-.08.41c0,.26-.11.54-.17.82l-.09.37c-.11.46-.22.86-.33,1.23l-.07.25a4,4,0,0,0,2.22,4.82l.23.11c.38.17.79.34,1.2.49a27,27,0,0,0,9,1.56h.5l.65,0h.25l.3,0,.63,0a3.71,3.71,0,0,0,.48-.05l.6,0,1-.1.74-.11.83-.14.45-.09c1.69,1.28,5.2,2.62,12.8,3.13h.14l.7,0h.19l1,0h.2c.48,0,1,0,1.48,0s1,0,1.5,0h.15c.41,0,.79,0,1.17-.06l.51,0,1-.08.76-.07.35,0c.5-.06,1-.13,1.49-.21l.25,0,.79-.14.42-.08.74-.15,1-.25.41-.11.11,0,.68-.2.24-.07.37-.12.29-.1a23.42,23.42,0,0,0,2.86-1.22,2.5,2.5,0,0,0,.35-.21l.06,0a4.33,4.33,0,0,0,.37-.27c5.32-4.4,4.42-15.94.86-24.56-3-7.38-5.52-16.72-5.83-19.56.4-.57,1-1.42,1.55-2.1a117.06,117.06,0,0,0,11.41-17.82,54.1,54.1,0,0,0,5.06,9,10.74,10.74,0,0,1-1.09,2.51l-.28.45c-2.26,3.64-6.48,10.42-1.93,21,.78,1.83,1.51,3.36,2.14,4.7,2.44,5.15,2.94,6.22,1.08,10.37l-.37.82a4.05,4.05,0,0,0,5.76,5.14l.78-.46a14.48,14.48,0,0,0,5.56-6.3,4.06,4.06,0,0,0,1.89-1.5l.44-.66a18.89,18.89,0,0,0,2.61-6.68,3.43,3.43,0,0,0,.56,0,4,4,0,0,0,2.69-7.06l-1-.87a12.27,12.27,0,0,1-.67-4.74c0-.81-.06-8-2-13.65-1.47-4.19-3.73-7.22-6.35-8.63-.41-1.1-1-2.35-1.63-3.78-4.06-8.39-4.64-14.89-5.25-21.76-.14-1.59-.27-3.07-.45-4.6l0-.23v-.13a64.35,64.35,0,0,0-11.31-38.45c-8.48-12.27-20.71-20.41-34.44-22.91a59.21,59.21,0,0,0-10.73-.93c-10,0-21.37,2.16-33.88,6.43A55.81,55.81,0,0,1,158,54.5c-.36-.66-.72-1.35-1.08-2.06-3.16-6.09-7.08-13.67-15-16.32l0,0a47.79,47.79,0,0,0-14.5-2.52,31.38,31.38,0,0,0-4.81.35c-.07-.25-.16-.5-.24-.77-1-2.95-3.09-9.11-11-9.11a20,20,0,0,0-8.94,2c-1.19-.31-2.38-.58-3.56-.79-3-4.54-6.57-7.45-11-8.87l-.89-.29a4.11,4.11,0,0,0-1.24-.19,4,4,0,0,0-3.27,1.66,4,4,0,0,0-.56,1.08A18.07,18.07,0,0,0,75.55,20l-.88.35A4,4,0,0,0,72.11,24a16,16,0,0,0-3.67,2.37l-.69.58a4.06,4.06,0,0,0-1.39,3.59,35.5,35.5,0,0,0-6.76,4.62A83.72,83.72,0,0,0,49,47c-3.25,4.11-6.31,8-9.81,10.74a10.4,10.4,0,0,1-6.27,2.55,8,8,0,0,1-6.38-3.7C23.31,52,23,45.36,23.67,35.44c.12-1.78.26-3.37.39-4.91.69-8,1.19-13.69-4.11-20.81C15,3.05,9.12,2.53,7.44,2.53,3.33,2.53.2,5,0,8.38A8.39,8.39,0,0,0,2.7,14.56,7,7,0,0,0,1.53,20,6.25,6.25,0,0,0,6.47,24.8c-.42,2.75-1.56,6.89-2.14,9-5.37,19.51-2,38.38,9.44,53.12a37.44,37.44,0,0,0,29.64,14.74c1.07,0,2.13,0,3.18-.14-.35,1.12-.69,2.22-1,3.16-.59,1.88-1.83,5.79.42,8.86,1.4,1.92,3.72,2.89,6.87,2.89h.47A30.69,30.69,0,0,0,63.5,114c1.21-.45,2.47-.92,3.67-1.27a1.53,1.53,0,0,1,.47,0A23.49,23.49,0,0,1,73.08,114a58.24,58.24,0,0,0,12.53,2.81l.3,0a63.38,63.38,0,0,0,3.37,9.79,75.12,75.12,0,0,0,20,26.69,64.19,64.19,0,0,1,1.91,14c0,8.41.43,10.91,1.15,15.05.13.74.27,1.53.41,2.42.3,1.82.67,3.42,1,4.83.72,3.14,1.07,4.85.49,6.34a10.7,10.7,0,0,0-.73,6.42,2.81,2.81,0,0,0,.08.31l.07.22a6.9,6.9,0,0,0,.62,1.46,7.88,7.88,0,0,0,2.52,2.66l.19.12a8.13,8.13,0,0,0,.86.48l.26.12c.26.12.54.24.83.34l.32.12c.27.09.56.17.85.25l.31.08c.4.1.78.18,1.17.25l1,.14,0,0c0,.15.09.31.14.45a6,6,0,0,0,.51,1.12c1.07,1.85,3.2,3,6.89,3.81l.36.07a43,43,0,0,0,4.55.64l.76.07.67,0h.19c.5,0,1,.06,1.5.09h.38c.63,0,1.25,0,1.85,0Z"/>
    <path class="cls-2" d="M143.14,212.75c.75,0,1.49,0,2.2-.05h.08l1.45-.09.28,0a39.31,39.31,0,0,0,5.72-.81l.34-.08a4.13,4.13,0,0,0,.5-.15c6.54-1.77,8.17-5.38,8.38-8.13a14.93,14.93,0,0,0-1.4-7.37,19.76,19.76,0,0,1-1.18-3.58c-.94-4.39-2.25-16.7,0-24.65.63-2.27,1.15-4.17,1.56-5.75a55.1,55.1,0,0,0,15.86,2.38c1.58,0,3.16-.08,4.75-.23a67.74,67.74,0,0,0,3,12.4c.38,1,.76,2.08,1.14,3.08,2,5.26,3.54,9.42,2.93,14.68l-.05.35c0,.26-.07.52-.12.79,0,.1-.07.41-.07.41-.05.27-.11.54-.17.82l-.09.37c-.11.46-.22.86-.33,1.23l-.07.25a4,4,0,0,0,2.22,4.83l.23.1c.38.17.79.34,1.2.49a27,27,0,0,0,9,1.56l.35,0h.14l.66,0h.25l.3,0,.63,0a3.91,3.91,0,0,0,.48-.05l.59,0,1-.1.74-.11.82-.14a3.4,3.4,0,0,0,.46-.09c1.69,1.28,5.2,2.62,12.79,3.13h.15l.7,0h.18l1,0h.21c.48,0,1,0,1.48,0l1.5,0h.15c.41,0,.78,0,1.16-.06l.52,0,1-.07.76-.08.35,0c.5-.06,1-.13,1.49-.21l.24,0,.8-.14.42-.09.73-.15,1-.24.41-.12.11,0,.68-.2.24-.07.37-.12.29-.1a22.61,22.61,0,0,0,2.85-1.22,3.07,3.07,0,0,0,.36-.2l.05,0a2.51,2.51,0,0,0,.37-.27c5.33-4.4,4.42-15.94.87-24.56-3-7.38-5.52-16.71-5.84-19.55.41-.58,1.05-1.43,1.56-2.11a117.06,117.06,0,0,0,11.41-17.82,54.79,54.79,0,0,0,5.05,9,10.28,10.28,0,0,1-1.08,2.51l-.28.45c-2.27,3.64-6.48,10.42-1.93,21,.78,1.83,1.5,3.36,2.14,4.71,2.44,5.14,2.94,6.21,1.08,10.36l-.37.82a4,4,0,0,0,5.76,5.14l.78-.46a14.42,14.42,0,0,0,5.56-6.3,4.06,4.06,0,0,0,1.89-1.5l.44-.65a19,19,0,0,0,2.6-6.69,3.6,3.6,0,0,0,.56,0,4,4,0,0,0,2.7-7.06l-1-.87a12.12,12.12,0,0,1-.68-4.74c0-.8-.05-8-2-13.65-1.47-4.19-3.74-7.22-6.35-8.63-.41-1.1-.95-2.35-1.64-3.77-4.05-8.4-4.63-14.89-5.24-21.77-.14-1.59-.27-3.07-.45-4.6l0-.23v-.13a64.39,64.39,0,0,0-11.31-38.44C234.86,63,222.63,54.83,208.9,52.32a59.21,59.21,0,0,0-10.73-.93c-10,0-21.37,2.16-33.88,6.43a56.73,56.73,0,0,1-3.8-5.84q-.54-1-1.08-2.07c-3.16-6.09-7.08-13.67-15-16.32l0,0a47.79,47.79,0,0,0-14.5-2.52,31.27,31.27,0,0,0-4.81.36c-.07-.26-.16-.51-.25-.77-1-3-3.08-9.12-11-9.12a20,20,0,0,0-8.94,2c-1.19-.31-2.38-.58-3.56-.79-3-4.54-6.57-7.45-11-8.87l-.89-.29a4,4,0,0,0-1.23-.19,4.08,4.08,0,0,0-3.28,1.66,3.94,3.94,0,0,0-.55,1.08,18.3,18.3,0,0,0-6.26,1.32l-.88.35a4,4,0,0,0-2.56,3.65A16,16,0,0,0,71,23.84l-.69.58A4,4,0,0,0,68.89,28a35.5,35.5,0,0,0-6.76,4.62A84.42,84.42,0,0,0,51.54,44.44c-3.24,4.12-6.3,8-9.8,10.74a10.4,10.4,0,0,1-6.27,2.55A8,8,0,0,1,29.09,54c-3.25-4.56-3.52-11.2-2.89-21.12.12-1.77.26-3.37.39-4.91.69-7.95,1.19-13.69-4.11-20.81C17.51.52,11.65,0,10,0,5.86,0,2.73,2.46,2.54,5.85A8.39,8.39,0,0,0,5.23,12a7,7,0,0,0-1.17,5.42A6.24,6.24,0,0,0,9,22.27c-.42,2.75-1.56,6.9-2.14,9-5.37,19.51-2,38.38,9.44,53.12A37.44,37.44,0,0,0,45.94,99.13c1.07,0,2.13,0,3.18-.14-.35,1.12-.69,2.22-1,3.16-.59,1.88-1.83,5.79.42,8.86,1.4,1.92,3.72,2.89,6.87,2.89h.47A30.93,30.93,0,0,0,66,111.44c1.21-.45,2.47-.92,3.67-1.27a1.86,1.86,0,0,1,.47,0,23.61,23.61,0,0,1,5.44,1.32,58.24,58.24,0,0,0,12.53,2.81l.29,0a64.51,64.51,0,0,0,3.38,9.79,75.12,75.12,0,0,0,20,26.69,64.19,64.19,0,0,1,1.91,14c0,8.42.43,10.91,1.15,15.05.13.74.26,1.53.41,2.43.3,1.81.67,3.41,1,4.82.73,3.14,1.08,4.85.5,6.34a10.7,10.7,0,0,0-.73,6.42c0,.11,0,.21.08.32a1.91,1.91,0,0,1,.06.21,7.47,7.47,0,0,0,.63,1.46,7.76,7.76,0,0,0,2.51,2.66l.2.12a8.13,8.13,0,0,0,.86.48l.26.13c.26.11.54.23.83.33l.31.12.86.25.31.08c.4.1.78.18,1.17.25l1,.14,0,0a4,4,0,0,0,.14.46,7,7,0,0,0,.5,1.11c1.08,1.86,3.21,3,6.9,3.81l.36.07a45.6,45.6,0,0,0,4.55.65l.76.06.67.06h.19l1.5.08h.38c.63,0,1.25,0,1.85,0Z"/>
    <g>
      <g>
        <path class="cls-3" d="M246,125s4.61,16.62,11.39,24.16c1.4.77,2.23-.41-.9-6.9-5.37-11.13-5.15-19.57-6.09-27.75C247.51,118.5,246,125,246,125Z"/>
        <path class="cls-4" d="M246,125s4.61,16.62,11.39,24.16c.76.42,1.36.26,1.23-1-5.63-6.1-10.26-21.28-10.55-29.34A43.9,43.9,0,0,0,246,125Z"/>
        <path class="cls-5" d="M258,149.69h0a1.69,1.69,0,0,1-.79-.24l-.08-.06c-6.74-7.51-11.4-24.12-11.44-24.29l0-.07V125c.07-.27,1.59-6.62,4.45-10.59l.43-.6.08.74c.18,1.48.3,2.94.44,4.49.62,6.93,1.25,14.1,5.63,23.16,1.87,3.87,2.54,6.28,2,7.15A.8.8,0,0,1,258,149.69Zm-.47-.73a1,1,0,0,0,.47.15h0a.22.22,0,0,0,.21-.11c.16-.24.47-1.44-2-6.59-4.42-9.15-5.06-16.38-5.68-23.36-.11-1.27-.22-2.49-.35-3.71a36.89,36.89,0,0,0-3.9,9.68C246.61,126.21,251.12,141.79,257.54,149Z"/>
      </g>
      <g>
        <path class="cls-6" d="M257.74,147.79c-1.18.49-.9,3.32-2.94,6.65S249,163,252.88,172s6.52,11.12,3.2,18.54c3.45-2.05,6.52-7.16,4.09-16.11,1.79,2.55,2.43,9,2.43,9s4.35-6.4.77-13.56c2.68,3.58,4.47,4.35,4.47,4.35s-1.79-1.53-1.79-7.67a42,42,0,0,0-1.79-12.21C262.67,149.72,260,146.87,257.74,147.79Z"/>
        <path class="cls-7" d="M262.22,164.54a31.37,31.37,0,0,0-.77,8.44c-1.15-1.53-2.59-4.78-3.74-6.31.38,2.68.67,6.69-.1,9.38-1.92-5.37-5.75-10.74-3.07-16.88,1.47-3.66,3.28-7.33,3.1-11.33-1.07.61-.85,3.37-2.84,6.6S249,163,252.88,172s6.52,11.12,3.2,18.54c3.45-2.05,6.52-7.16,4.09-16.11,1.79,2.55,2.43,9,2.43,9s4.35-6.4.77-13.56c2.68,3.58,4.47,4.35,4.47,4.35a2.72,2.72,0,0,1-.49-.67C264.8,171.54,263.93,167.4,262.22,164.54Z"/>
        <path d="M255.44,191.21l.37-.83c2.63-5.85,1.46-8.32-1.11-13.75-.63-1.31-1.33-2.81-2.08-4.56-3.73-8.68-.49-13.88,1.65-17.32l.28-.46a16,16,0,0,0,1.78-4.37c.34-1.22.59-2.1,1.3-2.4a2.5,2.5,0,0,1,1-.19c2.15,0,4.48,2.68,5.93,6.82a42.49,42.49,0,0,1,1.81,12.31c0,5.88,1.67,7.44,1.69,7.45l1.32,1.18-1.62-.69a11.23,11.23,0,0,1-3.34-2.89,14.8,14.8,0,0,1-1.55,12l-.45.66-.08-.79A36.09,36.09,0,0,0,261,177c1.55,9.17-3.2,12.82-4.81,13.78Zm3.16-43.31a1.93,1.93,0,0,0-.75.15c-.45.19-.67,1-1,2a16.86,16.86,0,0,1-1.85,4.52l-.29.47c-2.07,3.33-5.21,8.38-1.61,16.78.75,1.74,1.46,3.23,2.08,4.55,2.43,5.14,3.72,7.85,1.51,13.32,2.08-1.6,5.7-5.89,3.16-15.25l-.43-1.59,1,1.35c1.43,2.05,2.13,6.37,2.37,8.23a13.8,13.8,0,0,0,.33-12.54l.49-.3a19.33,19.33,0,0,0,3.26,3.52,16.08,16.08,0,0,1-1.1-6.67A42,42,0,0,0,264,154.34C262.64,150.49,260.47,147.9,258.6,147.9Z"/>
      </g>
      <g>
        <path class="cls-3" d="M185.1,156.23s.64,10.74,3.58,18.92S195,189.6,192,199.58c5.11,2.3,13.81,2.43,19.69-.9,1.67-12.66-1.79-20-5.24-26s-6.52-19.18-6.52-19.18Z"/>
        <path class="cls-8" d="M185.87,159.94c-.2-.79-.49-1.67-.68-2.61.25,2.94,1.12,11.22,3.49,17.82,2.95,8.19,6.27,14.45,3.33,24.43a16.84,16.84,0,0,0,2,.74C200.38,187.9,189.53,178.27,185.87,159.94Z"/>
        <path class="cls-4" d="M206.46,172.72c-3.45-6-6.52-19.18-6.52-19.18l-5.18.94c1.67,8.52,2.93,17.29,6.46,25.41,3.14,7,3.42,16.82-3.79,21.14,4.68.61,10.16,0,14.27-2.35C213.37,186,209.91,178.73,206.46,172.72Z"/>
        <path class="cls-5" d="M200.84,201.54h0a22.29,22.29,0,0,1-9-1.7l-.23-.1.07-.24c2.55-8.63.35-14.47-2.2-21.23-.37-1-.74-2-1.12-3-2.92-8.13-3.59-18.9-3.59-19l0-.26,15.36-2.78.06.27c0,.13,3.1,13.2,6.49,19.1S213.66,186,212,198.72l0,.14-.13.07A22.73,22.73,0,0,1,200.84,201.54Zm-8.48-2.12a24.09,24.09,0,0,0,19.08-.92c1.6-12.46-1.86-19.76-5.23-25.63-3.16-5.51-6-17.09-6.49-19l-14.31,2.6c.12,1.67.9,11.23,3.55,18.59.37,1,.74,2,1.11,3C192.63,184.86,194.84,190.74,192.36,199.42Z"/>
      </g>
      <path class="cls-5" d="M186.85,167.85l-.4-.41a7.42,7.42,0,0,1,3.8-1.86,5.64,5.64,0,0,1,3.26.4S189.23,165.52,186.85,167.85Z"/>
      <path class="cls-5" d="M189.06,169.56a8.21,8.21,0,0,0,6-1.19,2.42,2.42,0,0,1-1.35,1.34,5.9,5.9,0,0,1-2.45.55A4,4,0,0,1,189.06,169.56Z"/>
      <path class="cls-5" d="M190.78,174.12a15.88,15.88,0,0,1-2.66-.22l.09-.56a14.16,14.16,0,0,0,9.08-1.37A10.22,10.22,0,0,1,190.78,174.12Z"/>
      <g>
        <polygon points="200.76 201.55 201.71 200.85 201.96 201 202.6 201.49 200.76 201.55"/>
        <g>
          <path class="cls-2" d="M205.69,194.72c-3.58.83-4,6.47-4,6.47l.05,0a22.14,22.14,0,0,0,9.76-2.46C211.5,198.67,209.24,193.9,205.69,194.72Z"/>
          <path class="cls-9" d="M206.77,194.64c.5,1.26,1,2.63.2,3.66a6.18,6.18,0,0,1-5.23,2.74c0,.1,0,.15,0,.15l.05,0a22.14,22.14,0,0,0,9.76-2.46C211.5,198.68,209.69,194.86,206.77,194.64Z"/>
          <path class="cls-10" d="M201.69,201.52l-.08-.06.17-.23-.19.22-.16-.12v-.16c0-.24.44-5.86,4.19-6.73a3.77,3.77,0,0,1,.88-.1c3.24,0,5.21,4.13,5.29,4.3l.12.25-.24.13a22.26,22.26,0,0,1-9.89,2.5Zm4.82-6.61a3.2,3.2,0,0,0-.75.09c-2.89.67-3.58,4.81-3.72,5.93a21.75,21.75,0,0,0,9.12-2.28C210.7,197.78,209,194.91,206.51,194.91Z"/>
        </g>
        <g>
          <path class="cls-2" d="M196,193.38a4.61,4.61,0,0,0-3,1.5,28.82,28.82,0,0,1-1,4.7,22.7,22.7,0,0,0,9.66,1.66l.06-.05C201.41,200.12,200.07,193.37,196,193.38Z"/>
          <path class="cls-9" d="M198.37,194.28c.8,4.79-2.49,5.94-6.11,5.4a23,23,0,0,0,9.41,1.56l.06-.05C201.48,200.36,200.62,196.15,198.37,194.28Z"/>
          <path class="cls-10" d="M200.84,201.54h0a22.29,22.29,0,0,1-9-1.7l-.23-.1.07-.24a27.94,27.94,0,0,0,1-4.65v-.11l.08-.07a4.8,4.8,0,0,1,3.22-1.58c3.91,0,5.39,5.72,5.88,7.6.05.18.09.32.11.42l.06.19-.27.2-.11,0Zm-8.48-2.12a22.17,22.17,0,0,0,8.48,1.54h.53l0-.12c-.47-1.78-1.87-7.18-5.33-7.18a4.25,4.25,0,0,0-2.75,1.36A28.9,28.9,0,0,1,192.36,199.42Z"/>
        </g>
      </g>
      <g>
        <path class="cls-3" d="M114.71,144.78s3.39,10.43,3.39,19.95a72,72,0,0,0,1.5,16.77c1,5.87,2.78,9.51,1.24,13.44s-.45,6.22,4,7a8.72,8.72,0,0,0,9.25-3.73c1.76-2.58-3.8-28.2-3.8-28.2L128.61,155Z"/>
        <path class="cls-8" d="M122.27,186.26c-2.3-8.82-1.62-17.88-2.38-26.71-.33-4.92-2.35-9.56-4.36-14.17l-.82-.6s3.39,10.43,3.39,19.95a72,72,0,0,0,1.5,16.77c1,5.87,2.78,9.51,1.24,13.44-.85,2.19-1.16,3.21-.25,4.4A15.61,15.61,0,0,0,122.27,186.26Z"/>
        <path class="cls-4" d="M130.34,170,128.61,155,122,150.09c.09.34.17.68.23,1,2.41,9.4,2.76,20.79,4.5,30.82,3,17-2.79,17.83-6.1,17.65.63,1.18,2,2,4.3,2.35a8.72,8.72,0,0,0,9.25-3.73C135.9,195.62,130.34,170,130.34,170Z"/>
        <path class="cls-5" d="M126.85,202.39h0a11.61,11.61,0,0,1-2-.18c-2.32-.39-3.78-1.19-4.48-2.42s-.62-2.83.21-4.95c1.06-2.72.45-5.37-.32-8.72-.32-1.35-.67-2.88-1-4.57-.15-.91-.28-1.71-.41-2.46-.71-4.05-1.09-6.29-1.09-14.36,0-9.37-3.34-19.75-3.38-19.86l-.27-.84,14.72,10.76L130.63,170c.56,2.6,5.53,25.78,3.75,28.4A8.78,8.78,0,0,1,126.85,202.39Zm-11.62-56.86c.79,2.66,3.15,11.28,3.15,19.2s.39,10.24,1.08,14.26c.13.75.27,1.55.42,2.47.28,1.67.63,3.19.94,4.53.79,3.45,1.42,6.17.29,9.06-.76,1.95-.84,3.4-.24,4.46s1.94,1.77,4.07,2.13a11.67,11.67,0,0,0,1.91.17,8.24,8.24,0,0,0,7.06-3.77c1.38-2-2.31-20.89-3.85-28l-1.72-14.95Z"/>
      </g>
      <path class="cls-5" d="M122.68,183.16a7,7,0,0,1-3.09-.71l.25-.52a7.08,7.08,0,0,0,5.86,0,3.59,3.59,0,0,1-2.31,1.2C123.17,183.15,122.93,183.16,122.68,183.16Z"/>
      <path class="cls-5" d="M119,176.74l-.5-.29a5.7,5.7,0,0,1,3.75-2.62,4.62,4.62,0,0,1,3.08.44S120.94,173.52,119,176.74Z"/>
      <path class="cls-5" d="M119.55,180.36l-.37-.44a6.19,6.19,0,0,1,3.39-1.13,5.39,5.39,0,0,1,2.79.66S121.34,178.87,119.55,180.36Z"/>
      <g>
        <path class="cls-2" d="M125.83,196.25a6.56,6.56,0,0,0-5.48,2.74c.45,1.52,1.91,2.49,4.54,2.94a9.13,9.13,0,0,0,6.7-1.18C131,199.47,129.11,196.41,125.83,196.25Z"/>
        <path class="cls-9" d="M128.78,197.3c.43,2.32-4.18,4.8-8.41,1.67l0,0c.45,1.52,1.91,2.49,4.54,2.94a9.13,9.13,0,0,0,6.7-1.18A9.5,9.5,0,0,0,128.78,197.3Z"/>
        <path class="cls-10" d="M126.85,202.39h0a11.61,11.61,0,0,1-2-.18c-2.72-.46-4.28-1.49-4.78-3.13l0-.14.09-.12a6.84,6.84,0,0,1,5.73-2.85c3.42.16,5.34,3.3,6,4.65l.11.23-.21.14A8.81,8.81,0,0,1,126.85,202.39Zm-6.18-3.34c.48,1.34,1.87,2.18,4.27,2.59a8.91,8.91,0,0,0,6.28-1c-.71-1.35-2.46-4-5.4-4.1A6.26,6.26,0,0,0,120.67,199.05Z"/>
      </g>
      <g>
        <path class="cls-11" d="M91.24,104.7s.51,30,34.78,51a149.14,149.14,0,0,0,30.44,0s18.18,9.31,38.13.84c-.33,3.62-.85,7.31,3.17,12.39s11.39,16.43,12.41,21c.89,3.45-1.41,9.85-.9,11.38s17.65,4.86,27.11,0c2.94-2.43,2.94-11.51-.38-19.57s-6.65-20.07-6.14-22.37,19.44-21.36,20.46-45.91-15.09-52-42.2-56.94-62.37,13-71.61,18.64S91.24,104.7,91.24,104.7Z"/>
        <g>
          <path class="cls-8" d="M207.23,178.22C202.8,171.55,197,165.5,197,160.11c0-11.49,5.12-31.12,11.56-46.83-5.79,10.5-10,20.57-11.18,25.94-1,6-2.92,17.39-2.79,17.34-.33,3.62-.85,7.31,3.17,12.39s11.39,16.43,12.41,21c.89,3.45-1.41,9.85-.9,11.38.1.3.82.66,2,1C214.79,191.21,213.18,187.19,207.23,178.22Z"/>
          <path class="cls-8" d="M136.51,75.22c-1.41.85-3.45,2.13-5.89,3.69,3.17.31,6.21,2.45,8.45.85C164,61,201.31,53.3,221.17,62.11c1.27.57,2.68.82,4,1.27a46.58,46.58,0,0,0-17.07-6.8C181,51.62,145.75,69.63,136.51,75.22Z"/>
        </g>
        <g>
          <path class="cls-4" d="M161.7,138.45c-.77,5.76-6.9,8.83-11.89,10-10,2.3-22.64.76-28.77-9.21-3.43,8.23-13.91.36-16.68-2.5a80.09,80.09,0,0,0,21.66,19,149.14,149.14,0,0,0,30.44,0s18,9.19,37.76,1c.89-8.62,3.48-16.89,5.85-25.16C190.86,142.67,173.59,148.81,161.7,138.45Z"/>
          <path class="cls-4" d="M118.52,109.1s16.58,5.44,20.8-3.38c1.15-2.69,1.28-7.93,2.43-10.23,5.71-9.27,13.72-18.21,12.06-29a151.06,151.06,0,0,0-17.3,8.7c-9.24,5.58-45.27,29.48-45.27,29.48a41.12,41.12,0,0,0,1.41,8.59C100.6,115.24,108.94,114.54,118.52,109.1Z"/>
          <path class="cls-4" d="M250.32,113.52C251.09,95,242.1,74.81,226,63.9c18,14.58,21.46,64.87-5.51,96.17,2.72,9.69,6.94,18.48,8.75,28.64.93,5.56-1.63,10.13-2.86,15.1a26.29,26.29,0,0,0,10-2.44c2.94-2.43,2.94-11.51-.38-19.57s-6.65-20.07-6.14-22.37S249.3,138.07,250.32,113.52Z"/>
        </g>
        <path class="cls-5" d="M223.28,204.2c-6.88,0-13.88-1.54-14.28-2.74-.24-.71,0-2.19.39-4.05.45-2.41,1-5.4.5-7.35-1-4.47-8.09-15.55-12.35-20.93-3.92-4.95-3.61-8.6-3.28-12.12a45.4,45.4,0,0,1-17.36,3.39A50.07,50.07,0,0,1,156.41,156a155,155,0,0,1-15.79.79h0A125,125,0,0,1,126,156h-.06l-.06,0c-17.76-10.87-26.31-24.22-30.35-33.5C91.13,112.39,91,104.78,91,104.7v-.15l.13-.09c.36-.24,36.14-24,45.28-29.49,11.17-6.75,38.47-19.53,61.81-19.53a55.76,55.76,0,0,1,10,.86c12.67,2.31,24,9.85,31.84,21.24a60.24,60.24,0,0,1,10.6,36c-.81,19.51-12.94,35.64-18.11,42.53a21,21,0,0,0-2.36,3.43c-.48,2.19,2.83,14.23,6.13,22.2s3.44,17.31.3,19.9l0,0C232.37,203.75,227,204.2,223.28,204.2Zm-28.36-48.09-.09.9c-.31,3.43-.64,7,3.16,11.76,4.29,5.42,11.45,16.62,12.46,21.16.53,2.06,0,5.12-.5,7.58a12.27,12.27,0,0,0-.4,3.77c.28.7,6.36,2.34,13.73,2.34,3.68,0,8.91-.43,12.94-2.49,2.61-2.21,3-10.87-.49-19.22-3.1-7.51-6.71-20-6.15-22.55.12-.52.88-1.55,2.46-3.65,5.14-6.84,17.19-22.88,18-42.21,1-23.88-14.43-51.6-42-56.64a55.57,55.57,0,0,0-9.9-.85C175,56,147.78,68.74,136.66,75.46c-8.84,5.35-42.7,27.78-45.13,29.39a52.09,52.09,0,0,0,4.53,17.4c4,9.19,12.47,22.41,30.06,33.19a125.17,125.17,0,0,0,14.5.78,153.11,153.11,0,0,0,15.81-.79h.08l.08,0a49.25,49.25,0,0,0,20.31,4.37,44.59,44.59,0,0,0,17.57-3.54Z"/>
      </g>
      <path class="cls-5" d="M194.63,159.76l-.57,0a109.69,109.69,0,0,1,7.64-33.4,61.64,61.64,0,0,1,6.86-13A111.33,111.33,0,0,0,194.63,159.76Z"/>
      <path class="cls-5" d="M197,164.85a3.93,3.93,0,0,1,1.42-2.66,8.7,8.7,0,0,1,4.58-2,15,15,0,0,1,4.23.8C199.51,159.33,197.1,164.62,197,164.85Z"/>
      <path class="cls-5" d="M199.62,165.91a6.77,6.77,0,0,1,1.44-1.75,13.73,13.73,0,0,1,3.81-1.53,5.92,5.92,0,0,1,3.43.21A13.31,13.31,0,0,0,199.62,165.91Z"/>
      <path class="cls-5" d="M203.45,169.5c-.44,0-.9,0-1.36-.06a9,9,0,0,1-2.57-1.14,13.77,13.77,0,0,0,9.56-.57,5.55,5.55,0,0,1-2.84,1.5A14.59,14.59,0,0,1,203.45,169.5Z"/>
      <g>
        <path d="M208.94,201.22q0-.16,0-.36l.58,0,0,.32Z"/>
        <g>
          <path class="cls-2" d="M226.35,197c-3.36.38-6,6.87-6,6.87a38,38,0,0,0,13.15-1.3h0S229.7,196.57,226.35,197Z"/>
          <path class="cls-9" d="M227.15,197c1,1,2.12,2.46,1.31,4.24-.68,1.47-5.06,2.4-8,2.1a4.68,4.68,0,0,0-.08.51,38,38,0,0,0,13.15-1.3S230.29,197.49,227.15,197Z"/>
          <path class="cls-10" d="M223.28,204.2h0c-.95,0-1.93,0-2.91-.09l-.4,0,.15-.37c.11-.27,2.73-6.65,6.19-7.05s7.32,5.46,7.47,5.7l.21.32-.36.11A34.23,34.23,0,0,1,223.28,204.2Zm-2.47-.64c.83,0,1.66.06,2.47.06a34.42,34.42,0,0,0,9.8-1.25c-.84-1.21-4-5.44-6.7-5.13C224,197.51,221.8,201.3,220.81,203.56Z"/>
        </g>
        <g>
          <path class="cls-2" d="M220.39,203.83s-2.23-7.9-5.55-8-5.64,5-5.64,5h0l0,.32a1.18,1.18,0,0,0,0,.2C209.54,202.18,214.44,203.49,220.39,203.83Z"/>
          <path class="cls-9" d="M220.39,203.83s-2-7.11-5.06-7.94a3.52,3.52,0,0,1,.53,4.54c-1,1.36-4,1.43-6.55,1C209.8,202.25,214.59,203.49,220.39,203.83Z"/>
          <path class="cls-10" d="M220.68,204.13l-.31,0c-5.69-.32-11-1.56-11.37-2.65,0-.07,0-.16-.06-.24l0-.34c0-.27,2.37-5.36,5.8-5.36h.14c3.55.14,5.83,8.23,5.83,8.31Zm-11.19-3.23,0,.25s0,.08,0,.13c.23.56,4.45,1.85,10.45,2.24-.73-2.36-2.76-7.33-5.17-7.43h-.12C211.87,196.09,209.77,200.33,209.49,200.9Z"/>
        </g>
      </g>
      <g>
        <path class="cls-3" d="M161.55,138.5l-39.94.53s2.3,11.8,3.84,19.47,2.11,19.66,3.45,24.74,3.45,12.41,3.45,14.07c-2.49,2.72-3.83,6.65-2.78,8.47s9.59,2.88,15.64,2.59,12.27-1.44,12.56-5.27-1.53-5.25-2.49-9.72-2.53-17.59,0-26.73,3.09-12.27,3.09-12.27S163.85,151.29,161.55,138.5Z"/>
        <path class="cls-8" d="M135.16,197.76c-.38-.62-2.9-7.5-4.53-17.4-2.14-13-2.08-23.4-8.68-39.59.7,3.57,2.32,11.85,3.5,17.73,1.53,7.67,2.11,19.66,3.45,24.74s3.45,12.41,3.45,14.07c-2.41,2.63-3.74,6.4-2.86,8.29A18.79,18.79,0,0,1,135.16,197.76Z"/>
        <path class="cls-4" d="M161.55,138.5s-.87,7.88-5.1,1.08c.94,6.23-1.68,13.75-4.56,20.18-3.71,8.3-5.09,14.65-3.91,23.4,1.7,12.61,2.26,16.57-2.77,25.21,5.26-.46,12.31-1.91,12.56-5.27.29-3.84-1.53-5.25-2.49-9.72s-2.53-17.59,0-26.73,3.09-12.27,3.09-12.27S163.85,151.29,161.55,138.5Z"/>
        <path class="cls-5" d="M143.18,208.7c-5.58,0-12.79-.94-13.86-2.77s.16-5.87,2.74-8.72c-.06-1.42-1.35-6.16-2.48-10.35-.34-1.23-.67-2.44-1-3.54a99,99,0,0,1-1.71-11.88c-.49-4.51-1-9.18-1.74-12.89-1.52-7.58-3.82-19.35-3.84-19.47a61.11,61.11,0,0,1,2.16,8c.72,3.66,1.56,7.92,2.24,11.33.75,3.73,1.26,8.41,1.76,12.94a96.83,96.83,0,0,0,1.69,11.79c.29,1.1.62,2.31.95,3.54,1.24,4.56,2.51,9.27,2.51,10.6v.12l-.07.08c-2.44,2.65-3.72,6.45-2.75,8.13s9.26,2.74,15.37,2.44c7.94-.37,12.07-2.06,12.29-5a10.38,10.38,0,0,0-1.08-5.29,25.76,25.76,0,0,1-1.41-4.34c-.84-3.93-2.64-17.3,0-26.87,2.52-9,3.09-12.21,3.09-12.24l0-.14.13-.07s5.51-3.22,3.28-15.62c0,0,1.19,4.93,1.09,6.85-.34,6.52-3.32,8.78-4,9.21-.13.68-.82,4.11-3.07,12.16-2.46,8.76-1.08,21.7,0,26.6a23.2,23.2,0,0,0,1.38,4.24,11.23,11.23,0,0,1,1.12,5.56c-.25,3.28-4.57,5.14-12.84,5.54C144.58,208.69,143.89,208.7,143.18,208.7Z"/>
      </g>
      <path class="cls-5" d="M158.69,154.41l-.57-.06a35.43,35.43,0,0,0-1.67-14.77,16,16,0,0,1,2,5.91A35.29,35.29,0,0,1,158.69,154.41Z"/>
      <g>
        <g>
          <path class="cls-2" d="M144.49,200.94c-4.08.48-5.47,7.32-5.47,7.32a51.8,51.8,0,0,0,6.19.11,39.51,39.51,0,0,0,6.68-.81S148.56,200.46,144.49,200.94Z"/>
          <path class="cls-9" d="M146.2,201.17c1.37,2.05,2.26,4.17.16,5.57s-4.76,1.18-7.33,1.49v0a51.8,51.8,0,0,0,6.19.11,39.51,39.51,0,0,0,6.68-.81S149.45,202.37,146.2,201.17Z"/>
          <path class="cls-10" d="M143.14,208.71h0c-1.35,0-2.74-.06-4.14-.17l-.31,0,.05-.31c0-.07,1.43-7.05,5.71-7.56s7.57,6.5,7.7,6.78l.16.33-.35.08a39.37,39.37,0,0,1-6.74.82C144.56,208.69,143.86,208.71,143.14,208.71Zm-3.76-.71c1.27.08,2.54.13,3.76.13h0c.71,0,1.4,0,2.05,0a38.83,38.83,0,0,0,6.28-.73c-.7-1.36-3.61-6.53-6.95-6.13S139.71,206.66,139.38,208Z"/>
        </g>
        <g>
          <path class="cls-2" d="M129.57,205.78c.72,1.25,4.93,2.13,9.45,2.48,0,0-1.53-8.12-4.8-8.62-1.33-.24-3.85,1.72-5,3.9A3.69,3.69,0,0,0,129.57,205.78Z"/>
          <path class="cls-9" d="M134.55,199.72c.95,1.41,2.19,3.64,1.19,5.29-1.36,1.92-5.92.63-6.45,0a2.67,2.67,0,0,0,.28.78c.72,1.25,4.93,2.13,9.45,2.48C139,208.26,137.59,200.68,134.55,199.72Z"/>
          <path class="cls-10" d="M139.37,208.57l-.37,0c-2-.15-8.62-.79-9.68-2.61a4,4,0,0,1-.36-2.42l0-.1c1.16-2.27,3.8-4.31,5.28-4,3.49.53,5,8.77,5,8.85Zm-9.84-4.95a3.38,3.38,0,0,0,.29,2c.58,1,4.11,1.91,8.85,2.3-.51-2.42-2.1-7.65-4.49-8l-.19,0C132.84,199.91,130.6,201.56,129.53,203.62Z"/>
        </g>
      </g>
      <path class="cls-5" d="M130,178.22a3.28,3.28,0,0,1,1.86-1.93,8.78,8.78,0,0,1,3.84-.68,10.13,10.13,0,0,1,2.82,1.1C132.83,174.93,130,178.19,130,178.22Z"/>
      <path class="cls-5" d="M135.84,185.33a9.62,9.62,0,0,1-3.55-.65,9,9,0,0,1-2.36-2.19c4.72,4.47,11.56.95,11.62.91a5.5,5.5,0,0,1-2.79,1.58A13.05,13.05,0,0,1,135.84,185.33Z"/>
      <path class="cls-5" d="M133.66,181.79a4.83,4.83,0,0,1-1.75-.78,9.48,9.48,0,0,0,6.49-1.11,2.89,2.89,0,0,1-1.56,1.34,9.77,9.77,0,0,1-3,.55Z"/>
      <g>
        <g>
          <path class="cls-3" d="M121.78,37.67A20.31,20.31,0,0,0,120.65,32c-1.18-3.49-2.46-6.15-6.87-6.15s-8.2,1.64-9.74,3.79C107.11,32,121.78,37.67,121.78,37.67Z"/>
          <path class="cls-4" d="M120.65,32c-1.1-3.26-2.3-5.8-6.05-6.12,1.52,2.89,2.24,6.68.92,9.25,3.43,1.42,6.26,2.51,6.26,2.51A20.31,20.31,0,0,0,120.65,32Z"/>
          <path class="cls-5" d="M122.09,38.12l-.42-.16c-.6-.23-14.74-5.69-17.82-8l-.24-.19.18-.24c1.67-2.34,5.69-3.92,10-3.92,4.63,0,6,2.88,7.16,6.36a20.2,20.2,0,0,1,1.15,5.74Zm-17.62-8.51c3.13,2.16,14.57,6.66,17,7.6a21.94,21.94,0,0,0-1.09-5.08c-1.14-3.37-2.35-6-6.58-6C109.82,26.18,106.14,27.55,104.47,29.61Z"/>
        </g>
        <g>
          <path class="cls-11" d="M55.43,93.21s-1.92,6.35-3.15,10.25-1.16,6.22,3.49,6.08,8.48-2.32,12.72-3.55,10.32,3,20.06,3.93,23.28,2.15,32.31-16.51S122.09,37,122.09,37A49.7,49.7,0,0,0,98.6,26.75C95.32,20.9,91.83,19,89,18c1.85,2.57,3.9,6.26,3.9,6.26s-4.62-6.16-13.18-2.77c2,.51,8.34,3.9,8.34,3.9s-8.08-3.49-14.24,1.74a68.74,68.74,0,0,1,8.62.92A34.84,34.84,0,0,0,65,35.91c-7.85,6.84-13,16.82-20.57,22.7s-14.77,3.69-18.87-2-4.38-13.27-3.69-23.93S24.18,16.77,19,9.79,7,3.71,6.89,6.1s3.82,4.58,4,5.74c-1.5,1.92-2.94,3.08-2.6,4.72s2.53,1.85,4.58,1.3c1.37,2.12.21,7.11-1.84,14.56s-6.91,29.25,8.68,49.3C29.22,93.91,44.35,97.11,55.43,93.21Z"/>
          <path class="cls-8" d="M90.45,27.62c-2-3.75-3.66-4.74-6.92-6.2,1.54-.21,2.84-.33,4.29-.45a12.09,12.09,0,0,0-8.14.55c2,.51,8.34,3.9,8.34,3.9s-8.08-3.49-14.24,1.74a68.74,68.74,0,0,1,8.62.92A34.84,34.84,0,0,0,65,35.91c-7.85,6.84-13,16.82-20.57,22.7s-14.77,3.69-18.87-2-4.38-13.27-3.69-23.93c.66-10.35,2.22-15.55-2.42-22.21L19,9.79C14.33,3.54,8.41,3.61,7.14,5.41c1.93-1.06,5.34.68,7.27,2.06A15.28,15.28,0,0,1,20.83,18.3c1.28,13.72-4.68,25,2,38,2.46,4.93,8.31,9,14.56,7.76,9.27-1.84,14.1-7.06,19-14C63.78,39.35,73,30.53,87.63,29.21c-2-2.05-5-2.48-7.5-3.3A22,22,0,0,1,90.45,27.62Z"/>
          <path class="cls-4" d="M89,62c-1,7.39-6.53,12.72-12.27,11.91s-9.55-7.44-8.51-14.83S74.71,46.39,80.46,47.2,90,54.64,89,62Z"/>
          <path class="cls-4" d="M97.68,104.28a77.65,77.65,0,0,1-17.57-1c-3.2-.46-6.09-1.3-9.31-.91-6.27.78-13.53,7.33-19.11,5.21.31,1.31,1.48,2,4.08,1.92,4.65-.13,8.48-2.32,12.72-3.55s10.32,3,20.06,3.93c7.87.74,18.2,1.68,26.64-7.8-2.18-3.06-4-6.26-4.16-10.38C109.68,102.41,100.35,104.11,97.68,104.28Z"/>
          <g>
            <path class="cls-4" d="M55.32,93.57c6-2.94,11.89-5.69,17.13-9.8C71.22,82.54,70,80.9,69.58,80.9a42,42,0,0,1-35.33,4.65C22,81.44,13,67.36,10.1,55.05c-.44-2.09-.91-4.12-1.4-6.12a51.89,51.89,0,0,0,11,32.79c9.48,12.19,24.61,15.39,35.69,11.49Z"/>
            <path class="cls-4" d="M16.25,14a7.48,7.48,0,0,1-7.75,1,2.4,2.4,0,0,0-.18,1.5c.21,1,1.08,1.45,2.18,1.55C13.21,18,16.25,17,16.25,14Z"/>
            <path class="cls-4" d="M96.55,27.36s21.9,7,12,20.31c4.7-2.09,9.9-2.35,14.76-3.54-.65-4.38-1.22-7.14-1.22-7.14A49.7,49.7,0,0,0,98.6,26.75c-3.09-5.51-6.36-7.55-9.13-8.55C93.31,21,94.71,23.47,96.55,27.36Z"/>
          </g>
          <path class="cls-5" d="M95.76,110.67c-2.58,0-5.05-.24-7.24-.44a55.56,55.56,0,0,1-11.7-2.65,24.8,24.8,0,0,0-6.65-1.51,5.74,5.74,0,0,0-1.6.21c-1.34.39-2.68.89-4,1.37a27,27,0,0,1-8.83,2.2c-2,.06-3.31-.34-4-1.23-.91-1.24-.45-3.26.18-5.25,1-3.17,2.47-8,3-9.68a28.82,28.82,0,0,1-9,1.39h0A33.41,33.41,0,0,1,19.5,81.91C8.84,68.2,5.74,50.6,10.76,32.34c1.83-6.64,3.14-11.93,2-14.12a8.09,8.09,0,0,1-1.78.22c-1.63,0-2.71-.66-3-1.82-.3-1.44.61-2.52,1.76-3.87l.8-1a6.9,6.9,0,0,0-1.32-1.45C8,9.16,6.49,7.7,6.58,6.08c.07-1.2,1.46-2,3.39-2,1.2,0,5.42.4,9.26,5.56,4.39,5.88,4,10.46,3.33,18-.14,1.57-.28,3.19-.39,5-.7,10.83-.33,18.19,3.63,23.73,2.49,3.48,5.92,5.4,9.67,5.4a14.26,14.26,0,0,0,8.76-3.41c3.88-3,7.09-7.11,10.49-11.43A81.45,81.45,0,0,1,64.79,35.68,35.49,35.49,0,0,1,80.47,28.1a48.36,48.36,0,0,0-6.67-.63l-.9,0,.69-.59A12.54,12.54,0,0,1,82,24a17.51,17.51,0,0,1,3.17.3,41.16,41.16,0,0,0-5.54-2.45l-.91-.24.88-.35a13.86,13.86,0,0,1,5.09-1,11,11,0,0,1,6.83,2.34c-.76-1.28-1.8-3-2.78-4.32l-.54-.76.89.29c2.51.81,6.25,2.59,9.73,8.72,13.5,1.82,23.4,10.22,23.5,10.3l.08.07,0,.1c.08.38,7.71,38.07-1.26,56.61C113.71,108.89,103.1,110.67,95.76,110.67Zm-25.59-5.21A25.14,25.14,0,0,1,77,107a53.8,53.8,0,0,0,11.58,2.62c2.17.21,4.63.44,7.18.44,7.78,0,17.63-1.91,24.82-16.78,8.64-17.87,1.67-53.89,1.23-56.11-1-.8-10.5-8.44-23.25-10.11l-.15,0-.08-.13c-3-5.35-6.18-7.33-8.57-8.26,1.68,2.46,3.35,5.46,3.37,5.5l-.52.33a10.49,10.49,0,0,0-8-3.66,12.54,12.54,0,0,0-4,.7c1.25.47,3.08,1.35,4.62,2.13A16.82,16.82,0,0,1,88,25.42s-1.53-.31-3.55-.63A16.11,16.11,0,0,0,82,24.58a12.12,12.12,0,0,0-7.3,2.27c2.72.1,7.56.89,7.78.93l2.27.37-2.29.24a34.83,34.83,0,0,0-17.24,7.75,81.6,81.6,0,0,0-10,11.18c-3.42,4.35-6.65,8.45-10.59,11.53a14.84,14.84,0,0,1-9.14,3.54A12.46,12.46,0,0,1,25.3,56.74c-4.06-5.69-4.45-13.16-3.75-24.13.12-1.82.26-3.44.4-5,.64-7.44,1-11.93-3.21-17.62C15.06,5,11.1,4.66,10,4.66c-1.56,0-2.73.61-2.78,1.46C7.12,7.45,8.54,8.8,9.68,9.88c.81.76,1.45,1.37,1.54,1.91l0,.14-.09.1c-.31.4-.62.77-.91,1.12-1.09,1.27-1.87,2.19-1.63,3.35S10.2,17.82,11,17.82a7.35,7.35,0,0,0,1.85-.26l.22,0,.12.18c1.48,2.29.18,7.59-1.81,14.82-5,18.06-1.9,35.47,8.63,49a32.82,32.82,0,0,0,26,12.94h0a28.24,28.24,0,0,0,9.39-1.55l.57-.2-.18.58c0,.06-1.93,6.4-3.14,10.25-.79,2.48-.87,3.89-.27,4.7s1.64,1,3.45,1a27.1,27.1,0,0,0,8.63-2.16c1.3-.49,2.64-1,4-1.39A6.54,6.54,0,0,1,70.17,105.46Z"/>
        </g>
        <g>
          <path class="cls-12" d="M70.35,58.07l18,4.56s1.14-9.88-6-12C75.91,48.77,71.29,55.2,70.35,58.07Z"/>
          <path class="cls-2" d="M87.53,65c-1.64,6-6.92,9.81-11.79,8.48s-7.49-7.27-5.85-13.28,6.92-9.81,11.79-8.48S89.17,59,87.53,65Z"/>
          <path class="cls-2" d="M69.73,60.91c-1.27,5.77,1.33,11.33,6,12.6s9.46-2,11.42-7.32C82.81,69.76,71.74,70.87,69.73,60.91Z"/>
          <g>
            <path class="cls-13" d="M84.26,64.71c-.72,3.66-3.5,6.16-6.2,5.57s-4.31-4-3.58-7.68S78,56.45,80.68,57,85,61.06,84.26,64.71Z"/>
            <path class="cls-14" d="M77.64,66a7.58,7.58,0,0,1-3.25-2.85c-.47,3.45,1.1,6.59,3.67,7.14s5.41-1.85,6.17-5.44A6.65,6.65,0,0,1,77.64,66Z"/>
            <path class="cls-12" d="M83,65.89c-.5,2.52-2.34,4.25-4.11,3.87S76.07,67,76.57,64.51s2.34-4.26,4.1-3.88S83.47,63.37,83,65.89Z"/>
            <path class="cls-2" d="M82,63.07a1.84,1.84,0,0,1-2.34,1.23,2,2,0,0,1-1.28-2.39,1.84,1.84,0,0,1,2.34-1.23A2,2,0,0,1,82,63.07Z"/>
            <g class="cls-15">
              <path class="cls-2" d="M78.38,67.74a.85.85,0,0,1-1.08.56.89.89,0,0,1-.59-1.1.85.85,0,0,1,1.08-.56A.9.9,0,0,1,78.38,67.74Z"/>
            </g>
            <path class="cls-16" d="M77.61,70.51c-2.65-.84-4.17-4.35-3.45-8,.76-3.83,3.72-6.45,6.59-5.83s4.58,4.28,3.83,8.08S80.86,71.23,78,70.61Zm3.33-13.06a1.92,1.92,0,0,0-.32-.09c-2.52-.54-5.14,1.84-5.82,5.31s.78,6.74,3.32,7.28,5.14-1.83,5.82-5.3C84.6,61.35,83.28,58.19,80.94,57.45Z"/>
          </g>
          <path class="cls-12" d="M77.72,74.09a8,8,0,0,1-2.06-.28,8.61,8.61,0,0,1-5.56-5.06,12.88,12.88,0,0,1-.5-8.61c1.41-5.19,5.66-9,10.1-9a8,8,0,0,1,2.06.28,8.62,8.62,0,0,1,5.57,5.06,13,13,0,0,1,.5,8.61C86.41,70.31,82.16,74.09,77.72,74.09Zm2-22.3c-4.17,0-8.17,3.58-9.51,8.52a12.28,12.28,0,0,0,.47,8.19,8,8,0,0,0,5.16,4.72,7.18,7.18,0,0,0,1.9.25c4.17,0,8.17-3.58,9.51-8.52a12.28,12.28,0,0,0-.47-8.19A8,8,0,0,0,81.6,52,7.18,7.18,0,0,0,79.7,51.79Z"/>
        </g>
        <path class="cls-5" d="M85.81,50.31c-5.26-6-11.11-1.11-11.36-.9a5.33,5.33,0,0,1,2.71-2.15,7.81,7.81,0,0,1,6.06.25C84.24,48,85.81,50.31,85.81,50.31Z"/>
        <g>
          <path class="cls-17" d="M91.12,45.21s-4.82-6.05-14.57-5C79.32,35.57,86.81,35,91.12,45.21Z"/>
          <path class="cls-12" d="M92.25,47.12,90.88,45.4a16.1,16.1,0,0,0-12.13-5,19.68,19.68,0,0,0-2.16.12l-.62.06.32-.53A6.65,6.65,0,0,1,82,36.69c3.73,0,7.16,3.06,9.4,8.4Zm-13.5-7.36a17.34,17.34,0,0,1,11.38,4.05C88,39.65,85.11,37.3,82,37.3a6,6,0,0,0-4.84,2.52Q78,39.76,78.75,39.76Z"/>
        </g>
        <path class="cls-5" d="M51.69,94.53l-.12-.6c.13,0,12.88-2.63,20.45-10.77l.45.42C64.77,91.87,51.82,94.5,51.69,94.53Z"/>
        <path class="cls-5" d="M74.74,85.87C73.6,85,72.44,84,71.48,83.09a8.12,8.12,0,0,1-1.85-2.68s4.58,4.77,7.58,6.37A7.63,7.63,0,0,1,74.74,85.87Z"/>
        <g>
          <path class="cls-18" d="M72.22,83.39c-3.91,4.21-9.15,6.93-13.36,8.6-1.17,3.4-4.09,12.12-3.43,12.29.82.2,8.61-5.44,13.12-10.67a50.84,50.84,0,0,0,6.09-8.2Z"/>
          <path class="cls-19" d="M72.22,83.39a31.79,31.79,0,0,1-7.55,5.83,16.85,16.85,0,0,0-1.15,9.36,50.34,50.34,0,0,0,5-5,50.84,50.84,0,0,0,6.09-8.2Z"/>
          <g>
            <path class="cls-20" d="M68.55,93.61c.63-.72,1.2-1.4,1.72-2a10.58,10.58,0,0,0-8.33.88c-4.7,2.87-6.51,11.83-6.51,11.83C56.25,104.48,64,98.84,68.55,93.61Z"/>
            <path class="cls-21" d="M65.54,91.19c.53,3.86-2.36,6.21-5.12,8.58-1.39.83-2.84,2.45-4.48,2.51-.35,1.19-.51,2-.51,2,.82.2,8.61-5.44,13.12-10.67.63-.72,1.2-1.4,1.72-2A12.11,12.11,0,0,0,65.54,91.19Z"/>
            <path class="cls-22" d="M55.48,104.59h-.13l-.28-.07.06-.29c.07-.37,1.89-9.12,6.65-12a9.71,9.71,0,0,1,5.15-1.4,12.77,12.77,0,0,1,3.42.48l.45.13-.3.36c-.56.7-1.12,1.37-1.71,2C64.35,99,56.67,104.59,55.48,104.59ZM66.93,91.41a9.17,9.17,0,0,0-4.83,1.3c-3.92,2.4-5.81,9.26-6.26,11.15,1.74-.81,8.31-5.61,12.48-10.45.48-.55.94-1.1,1.4-1.66A11.76,11.76,0,0,0,66.93,91.41Z"/>
          </g>
          <path class="cls-5" d="M55.48,104.59h-.13a.44.44,0,0,1-.25-.2c-.12-.23-.5-.93,3.47-12.49l0-.14.13,0C62.59,90.18,68,87.47,72,83.18l.2-.21L75,85.33l-.11.22a51.27,51.27,0,0,1-6.13,8.26C64.35,99,56.67,104.59,55.48,104.59ZM59.1,92.22c-2.54,7.44-3.45,10.89-3.47,11.72C57,103.48,64,98.47,68.32,93.41a55.91,55.91,0,0,0,5.93-7.93l-2-1.66A37.88,37.88,0,0,1,59.1,92.22Z"/>
        </g>
        <path class="cls-5" d="M12.38,18.3l-.16-.6A10.77,10.77,0,0,0,15.9,16,5.8,5.8,0,0,1,12.38,18.3Z"/>
        <path class="cls-5" d="M18.11,35.21a7.12,7.12,0,0,1-4-1.36s3.9,1.9,7.55,0l.26.56A8.83,8.83,0,0,1,18.11,35.21Z"/>
        <path class="cls-5" d="M14.51,47.79c.14.05,3.5,1.14,7.1-2.31l.43.44C17.74,49.72,14.51,47.79,14.51,47.79Z"/>
        <path class="cls-5" d="M18.92,63.78s4.64-1.12,6.57-7l.59.19C24,63.2,18.92,63.78,18.92,63.78Z"/>
        <path class="cls-5" d="M33.05,74.24c0-.07,2.18-6.71-.76-12.41l.54-.28C35.9,67.48,33.05,74.24,33.05,74.24Z"/>
        <path class="cls-5" d="M51.33,74.58c0-.1.72-10.16-8-15l.29-.54C52.7,64.07,51.33,74.58,51.33,74.58Z"/>
        <path class="cls-5" d="M64.93,56.62a14.23,14.23,0,0,0-11.61-7.14l0-.61A13.48,13.48,0,0,1,64.93,56.62Z"/>
        <g>
          <path class="cls-3" d="M156.65,54c-3.18-6-6.57-14-13.64-16.31-20-6.36-27.08,2-33.54,6.57-6.77.51-9.43,6.76-9.43,6.76l11.79,46.64c10.94,15.43,23,10.08,25.54,4.54s2.15-8.51,9.43-8.92,9.13-4.21,11-12.11,6.46-9.64,7-12.81S159.83,60,156.65,54Z"/>
          <path class="cls-8" d="M143,37.72c-20-6.36-27.08,2-33.54,6.57a11.26,11.26,0,0,0-8.5,5.15c1.2-.63,5.42-4.46,4.84-.11,5.62-5,9.67-8.15,15.66-10.14,8.81-2.92,21.54-1.47,26.67,5,4.92,6.16,9.23,16.27,16.19,21.86-1.32-3.14-5.19-7.36-7.68-12C153.47,48.08,150.08,40.08,143,37.72Z"/>
          <path class="cls-4" d="M157.38,76.73c-1.59,5.26-2.27,13.4-9.78,14.12-2.55.74-5.7.75-7.46,2.76-2.46,2-3.46,6-4.93,7.8a9.83,9.83,0,0,1-10.1,3.36c-3.91-1.2-7.42-4.15-10-7.21-1.54-1.81-4.43-5.82-4.43-5.82.16,4.12.72,8,4.54,10.38l.16-.18c9.88,10,19.73,5.24,22,.29,2.56-5.54,2.15-8.51,9.43-8.92s9.13-4.21,11-12.11c1.63-7,5.42-9.15,6.64-11.76A15.84,15.84,0,0,0,157.38,76.73Z"/>
          <path class="cls-5" d="M127.51,108.13c-3.08,0-7.9-1.13-13-6.63a24.53,24.53,0,0,1-2.43-4c6.64,9.37,13.19,10.26,16.5,10a10.43,10.43,0,0,0,8.51-5.37c.46-1,.84-1.94,1.17-2.77,1.48-3.73,2.38-6,8.52-6.33,6.91-.39,8.81-3.82,10.7-11.87a20.87,20.87,0,0,1,4.87-9.31,8,8,0,0,0,2.1-3.48c.29-1.85-1.64-4.57-3.89-7.71a61.33,61.33,0,0,1-4.18-6.46c-.37-.68-.74-1.39-1.11-2.12-2.91-5.62-6.21-12-12.36-14-17.53-5.57-25,.18-31,4.8-.79.61-1.54,1.19-2.29,1.73l-.07.05h-.08c-6.51.5-9.15,6.52-9.18,6.58a7.5,7.5,0,0,1,2.18-4A11,11,0,0,1,109.36,44c.72-.52,1.44-1.08,2.21-1.67,6.1-4.7,13.69-10.56,31.53-4.89,6.39,2.13,9.75,8.62,12.71,14.34.38.72.74,1.43,1.11,2.11a60.56,60.56,0,0,0,4.15,6.39c2.32,3.26,4.32,6.07,4,8.16-.22,1.36-1.1,2.43-2.22,3.78a19.9,19.9,0,0,0-4.75,9.06c-1.92,8.21-4,11.93-11.26,12.34-5.75.33-6.5,2.21-8,6-.33.83-.71,1.78-1.18,2.8a11.05,11.05,0,0,1-9,5.72C128.29,108.11,127.92,108.13,127.51,108.13Z"/>
        </g>
        <path class="cls-5" d="M105.81,49.33a10.72,10.72,0,0,1,2.41-4.15,18.35,18.35,0,0,1,2.14-1.93l.37.49A21.75,21.75,0,0,0,105.81,49.33Z"/>
        <g>
          <path class="cls-23" d="M143,44.25c-5.75-3.69-16.14-2.19-24.2,4.93s-14,24.6-14,24.6l2.7-6.63S110.81,72.8,113,85s6.46,15,11,16.61,10.16.93,11.39-3.92,3.38-7.15,9.84-7.77c6.77-.61,7.8-3.69,8.92-7.38S157,70.91,158.73,68C153.54,63.47,148.75,47.94,143,44.25Z"/>
          <path class="cls-24" d="M117.06,87.36c-.93-11.57-2.22-14.47,1.47-24.73,3.28-8.61,14.94-16.58,22.73-13.3,6.7,2.76,12.69,15.3,17.15,18.38-5.07-4.89-9.78-19.84-15.4-23.46s-16.14-2.19-24.2,4.93-14,24.6-14,24.6l2.7-6.63S110.81,72.8,113,85s6.46,15,11,16.61c4.26,1.55,9.53,1,11.14-3.15C131,107,118.09,100.12,117.06,87.36Z"/>
          <path class="cls-5" d="M128.29,102.71a13.12,13.12,0,0,1-4.46-.81c-4.43-1.61-9-4.24-11.17-16.85-1.78-10-4.39-15.66-5.21-17.26-1.51,3.49-2.38,6-2.4,6.09a22.1,22.1,0,0,1,1.67-5.95c2.47-5.79,6.78-14.48,11.88-19,7.76-6.85,18.32-9,24.57-5,3.16,2,6,7.5,8.75,12.78,2.4,4.6,4.66,8.95,7,11l.19.17-.14.22c-1.26,2.07-2.54,6.84-3.56,10.66-.38,1.43-.74,2.78-1.05,3.8-1.1,3.58-2.13,7-9.19,7.6-6.6.63-8.46,3.13-9.58,7.54a6.1,6.1,0,0,1-3.11,4A9.1,9.1,0,0,1,128.29,102.71ZM107.76,67.07c.4.71,3.5,6.5,5.5,17.88,2.17,12.28,6.51,14.82,10.78,16.37a10.49,10.49,0,0,0,8.17-.09A5.45,5.45,0,0,0,135,97.62c1.19-4.68,3.15-7.34,10.11-8,6.65-.61,7.58-3.65,8.66-7.17.31-1,.67-2.35,1.05-3.78,1-3.73,2.23-8.35,3.5-10.6-2.38-2.19-4.61-6.48-7-11-2.72-5.22-5.52-10.61-8.54-12.55-6-3.87-16.27-1.77-23.83,4.9C114.3,53.56,110.26,61.39,107.76,67.07Z"/>
        </g>
        <g>
          <path class="cls-3" d="M66.41,71,75,76.25l9.38-1.4C77.13,69.82,66.41,71,66.41,71Z"/>
          <path class="cls-5" d="M84.79,75.1c-7.11-4.9-18.46-4.06-18.57-4a11.71,11.71,0,0,1,4.62-.6,32.72,32.72,0,0,1,11.69,2.66A10,10,0,0,1,84.79,75.1Z"/>
        </g>
      </g>
    </g>
  </g>
</svg>
