<svg xmlns="http://www.w3.org/2000/svg" width="183.83" height="329.03" viewBox="0 0 183.83 329.03">
  <defs>
    <style>
      .cls-1 {
        isolation: isolate;
      }

      .cls-2 {
        opacity: 0.3;
      }

      .cls-3 {
        fill: #fff;
      }

      .cls-4 {
        opacity: 0.11;
      }

      .cls-5 {
        fill: #f9dad2;
        stroke: #755339;
      }

      .cls-11, .cls-12, .cls-13, .cls-14, .cls-17, .cls-20, .cls-23, .cls-24, .cls-5, .cls-7, .cls-8 {
        stroke-miterlimit: 10;
      }

      .cls-11, .cls-13, .cls-14, .cls-5 {
        stroke-width: 0.75px;
      }

      .cls-6 {
        fill: #342517;
      }

      .cls-7 {
        fill: #fff4c7;
        stroke: #bfa75a;
      }

      .cls-8 {
        fill: #2c4249;
        stroke: #151f21;
      }

      .cls-9 {
        opacity: 0.58;
      }

      .cls-10 {
        fill: #d6b965;
      }

      .cls-11, .cls-12, .cls-21 {
        fill: #fbd0b4;
      }

      .cls-11, .cls-12, .cls-20 {
        stroke: #5b3c2d;
      }

      .cls-13 {
        fill: #a52f6d;
      }

      .cls-13, .cls-14 {
        stroke: #591e36;
      }

      .cls-14, .cls-15 {
        fill: #d1307d;
      }

      .cls-16 {
        fill: #591e36;
      }

      .cls-17, .cls-18 {
        fill: #c2e8f8;
      }

      .cls-17 {
        stroke: #3d6670;
      }

      .cls-19 {
        fill: #3d6670;
      }

      .cls-20 {
        fill: #c98f6f;
      }

      .cls-22 {
        fill: #5b3c2d;
      }

      .cls-23, .cls-24, .cls-25 {
        fill: #ff831d;
      }

      .cls-23 {
        stroke: #db6719;
      }

      .cls-24 {
        stroke: #a54a05;
      }

      .cls-26 {
        fill: #c95a0e;
      }

      .cls-27 {
        fill: #d89e7d;
      }

      .cls-28 {
        fill: #dda78a;
      }

      .cls-29 {
        fill: #f4e2d9;
      }

      .cls-30 {
        fill: #512e1b;
      }

      .cls-31 {
        fill: #683804;
        mix-blend-mode: multiply;
      }

      .cls-32 {
        fill: #fefefe;
      }

      .cls-33 {
        fill: #470e0e;
      }

      .cls-34 {
        fill: #eef6e8;
      }

      .cls-35 {
        fill: #c64a1e;
      }
    </style>
  </defs>
  <g class="cls-1">
    <g id="Layer_1" data-name="Layer 1">
      <g>
        <path class="cls-2" d="M88.92,329c-61.18,0-61.18-9.87-61.18-13.59,0-7.1,10-9.52,17.36-10.71.06-.19.11-.38.17-.57A20.44,20.44,0,0,1,38,291.64c-1.18-7.89-2.16-18.4-2.91-31.3-3.82-.35-6.84-3-7-6.27l-.59-16.62a9.44,9.44,0,0,1-3-3.85l-.07-.16c-.53-1-.82-2.15-2.19-8.49-.44-2.06-.9-4.2-1.16-5.19a14.93,14.93,0,0,1-.42-4.33A6.21,6.21,0,0,1,19.18,213L18,209.44C2.33,197.77,4.67,169.8,5,166.51c0-.12,0-.24,0-.35,6.28-37.39,32.51-51.78,44.09-56.39A19.74,19.74,0,0,1,44,97.58c-4.93-2.39-8.89-7-9.11-13.33a13.48,13.48,0,0,1,2.6-8.77c-3.32-7.68-8.16-19.16-1-28.92C40.38,41.38,46.8,37.68,56,35.37a16.74,16.74,0,0,1-.07-3c.41-6.22,4.27-10.69,9.91-11.82a10.81,10.81,0,0,1,.33-1.62,4.93,4.93,0,0,1,.31-.94c1.84-4.91,7-7.92,14-8.2A13.8,13.8,0,0,1,92,3.9,19.23,19.23,0,0,1,100.43,6a18,18,0,0,1,7.73-1.83A15.25,15.25,0,0,1,119.42,9a18.52,18.52,0,0,1,3.42-.34c4.11,0,11.32,1.54,13.72,11.81a11,11,0,0,1,4.77,3.33C143.44,26.4,144,29.71,143,33.9a8.53,8.53,0,0,1,1.47,2.18c2,4.24-.24,8.82-2.38,12.33a4.59,4.59,0,0,1-.35.51,8.66,8.66,0,0,1-1.53,7.86,10.27,10.27,0,0,1-4.19,3c.27,8.83-4.19,16.45-4.88,17.58a1.17,1.17,0,0,1-.08.13,15.34,15.34,0,0,1,.91,4.82A15,15,0,0,1,123.76,96a24.4,24.4,0,0,1-.09,2.45c9,5.16,15.91,14.21,23.11,23.7,8.63,11.37,17.55,23.12,28.48,24.74,4.11.61,7.16,2.82,8.17,5.9.66,2,2.43,7.45-14.48,19.44a8.77,8.77,0,0,1-5.08,1.56,9.32,9.32,0,0,1-1.66-.15c4,10.5,4.7,19.2,2,26.43l2.44,6.86a5.42,5.42,0,0,1-.05,3.81,33,33,0,0,1,.11,18,4.71,4.71,0,0,1-.27.71,42.14,42.14,0,0,1-2.46,4.61l-.19.35a6.2,6.2,0,0,1-1.13,1.47,10.81,10.81,0,0,1-3.39,2.73c.2,4.14.55,8.5,1,13a5.84,5.84,0,0,1-2,4.92,8.54,8.54,0,0,1-5.68,2.16l-5.27.08a364.67,364.67,0,0,1-12,35.32,21,21,0,0,1-3.68,5.94l5.23,1.6a8.41,8.41,0,0,1,1.48.62,12.52,12.52,0,0,1,5.48,5.51c4.16,1.9,6.27,4.48,6.27,7.7C150.11,319.16,150.11,329,88.92,329Zm.24-29.25a21.49,21.49,0,0,1-1.65,2.08h1.26a6.35,6.35,0,0,1,.93-1.48Z"/>
        <path class="cls-3" d="M84.23,325.13C23,325.13,23,315.26,23,311.54c0-7.1,10-9.52,17.37-10.71.05-.19.11-.38.16-.57a20.41,20.41,0,0,1-7.28-12.52c-1.18-7.89-2.16-18.4-2.91-31.3-3.82-.35-6.84-3-7-6.27l-.6-16.62a9.51,9.51,0,0,1-3-3.85l-.07-.17c-.53-1-.82-2.14-2.19-8.48-.45-2.07-.91-4.2-1.17-5.19a15.42,15.42,0,0,1-.41-4.33,6.1,6.1,0,0,1-1.53-2.45l-1.15-3.54C-2.36,193.87,0,165.9.32,162.61c0-.12,0-.24,0-.35,6.28-37.39,32.51-51.78,44.09-56.39a19.83,19.83,0,0,1-5.11-12.19c-4.94-2.39-8.89-7.05-9.11-13.33a13.43,13.43,0,0,1,2.6-8.77c-3.32-7.68-8.16-19.16-1-28.92,3.82-5.18,10.23-8.88,19.47-11.19a15.87,15.87,0,0,1-.07-3c.41-6.23,4.27-10.69,9.91-11.82A10.81,10.81,0,0,1,61.51,15a5.24,5.24,0,0,1,.3-.95c1.84-4.9,7-7.91,14-8.19A13.8,13.8,0,0,1,87.35,0a19.23,19.23,0,0,1,8.39,2.07A17.93,17.93,0,0,1,103.46.24a15.26,15.26,0,0,1,11.27,4.85,18.33,18.33,0,0,1,3.41-.34c4.11,0,11.33,1.54,13.73,11.81a11.16,11.16,0,0,1,4.77,3.33c2.1,2.61,2.65,5.92,1.65,10.11a8.49,8.49,0,0,1,1.46,2.18c2,4.24-.24,8.81-2.37,12.33-.11.17-.22.34-.35.51a8.66,8.66,0,0,1-1.54,7.86,10.17,10.17,0,0,1-4.18,3c.27,8.83-4.19,16.45-4.88,17.58l-.08.13a15,15,0,0,1-7.29,18.53c0,.85,0,1.66-.08,2.45,9,5.16,15.9,14.21,23.11,23.7,8.63,11.37,17.55,23.12,28.48,24.74,4.11.61,7.16,2.82,8.17,5.9.66,2,2.43,7.45-14.48,19.44a8.77,8.77,0,0,1-5.08,1.56,9.32,9.32,0,0,1-1.66-.15c4,10.49,4.69,19.2,2,26.43l2.44,6.86a5.48,5.48,0,0,1,0,3.81,33.11,33.11,0,0,1,.11,18,6.15,6.15,0,0,1-.28.71,40.48,40.48,0,0,1-2.46,4.61c-.06.13-.12.24-.18.35a6.45,6.45,0,0,1-1.14,1.47,10.59,10.59,0,0,1-3.39,2.73c.21,4.14.56,8.5,1,13a5.85,5.85,0,0,1-2,4.92,8.54,8.54,0,0,1-5.68,2.16l-5.27.08a359.09,359.09,0,0,1-12,35.32,20.53,20.53,0,0,1-3.68,5.94l5.23,1.6a8.1,8.1,0,0,1,1.48.62,12.47,12.47,0,0,1,5.48,5.51c4.17,1.9,6.28,4.48,6.28,7.7C145.42,315.26,145.42,325.13,84.23,325.13Z"/>
        <g>
          <ellipse class="cls-4" cx="84.23" cy="311.54" rx="53.36" ry="7.08"/>
          <g>
            <path class="cls-5" d="M94.61,292.94l-.24,1c-.58,2.51-2,8.93-2,10.85.05,2.41,14.32,3,14.32,3l6.8.56s10.8-2.78-5.44-11.76S94.61,292.94,94.61,292.94Z"/>
            <path class="cls-6" d="M129.46,303.81s-18.81-5.81-20.11-6-17.93,2.38-17.93,2.38L89.57,307v4.49l42.61,1.34S134.24,306.34,129.46,303.81Z"/>
          </g>
          <g>
            <path class="cls-5" d="M50,296.19s-2.61,7.54-3,10.78,21.92,0,21.92,0v-9.13Z"/>
            <path class="cls-6" d="M45.11,306.63s14.88-15.56,27.54,0c0,0,3,5.94-2.24,6.35C64.57,313.45,36.92,315.89,45.11,306.63Z"/>
          </g>
          <g>
            <g>
              <path class="cls-7" d="M85.37,213c-.15,19.66,0,52.1,2.17,71.72.84,7.63,8.39,13.53,17.59,13.82h0c8.14.25,15.51-4,18.08-10.4,6.59-16.39,17.54-48.23,18.93-72.68.46-8.11-6.82-15.1-16.55-15.9l-20.07-1.64C94.77,197,85.44,204,85.37,213Z"/>
              <g>
                <path class="cls-7" d="M36.68,212.23c.32,20.11,1.31,54.24,4.37,74.71,1.16,7.73,9.16,13.48,18.54,13.34l2.54,0c7.61-.11,14.35-4.11,16.93-10.05,5.65-13,15.25-36.52,20-56.53.57-2.42,9.69,0,11.91-6.86.74-2.3,1.8-5.74,2.91-9.43,2.78-9.33-5.38-18.45-16.93-18.92l-41-1.64C45.36,196.38,36.54,203.44,36.68,212.23Z"/>
                <path class="cls-8" d="M113.4,234.88c-4.14,1.86-10.06,3.38-14.69,1.53"/>
              </g>
            </g>
            <g>
              <line class="cls-8" x1="61.37" y1="207.92" x2="55.86" y2="206.91"/>
              <line class="cls-8" x1="137.27" y1="206.4" x2="133.29" y2="207.41"/>
            </g>
          </g>
          <g class="cls-9">
            <path class="cls-10" d="M90.81,249.19a150.5,150.5,0,0,1-6.68,21.56A83.57,83.57,0,0,1,79.22,281a38.58,38.58,0,0,1-7,9.22,17.62,17.62,0,0,1-5,3.38,12.42,12.42,0,0,1-6.23.93l-1.57-.33c-.51-.12-1-.29-1.43-.44a14.69,14.69,0,0,1-1.4-.51,11.78,11.78,0,0,1-1.37-.59,21.08,21.08,0,0,1-5-3.32,19.72,19.72,0,0,1-6-10.22,23.65,23.65,0,0,1,.22-11.47l.3.06a28.43,28.43,0,0,0,.25,5.54,26.57,26.57,0,0,0,1.26,5.28,19.08,19.08,0,0,0,5.89,8.54,20.66,20.66,0,0,0,4.4,2.77c.39.21.8.38,1.2.55a11,11,0,0,0,1.24.49c.41.14.84.33,1.24.43l1.18.28a9.38,9.38,0,0,0,4.79-.46,14.8,14.8,0,0,0,4.4-2.71A36.54,36.54,0,0,0,77.55,280a84.65,84.65,0,0,0,5.21-9.84,150.4,150.4,0,0,0,7.76-21Z"/>
          </g>
          <g class="cls-9">
            <path class="cls-10" d="M86.7,235.14a113,113,0,0,1-4.08,14.52,59,59,0,0,1-6.77,13.67,24.86,24.86,0,0,1-2.52,3.05,17.9,17.9,0,0,1-1.5,1.38A13.34,13.34,0,0,1,70.09,269a8.85,8.85,0,0,1-4.2,1.25,11.26,11.26,0,0,1-2.07-.1c-.65-.06-1.3-.13-1.94-.25a21.9,21.9,0,0,1-7.44-2.62,13.64,13.64,0,0,1-3.12-2.48,8.49,8.49,0,0,1-2-3.38l.28-.11a10.08,10.08,0,0,0,2.63,2.46,15.38,15.38,0,0,0,3.15,1.62,25.74,25.74,0,0,0,6.91,1.53,17.75,17.75,0,0,0,1.79.15,12.53,12.53,0,0,0,1.68.06,6.91,6.91,0,0,0,2.95-.76,15.74,15.74,0,0,0,5.23-4.44,57.28,57.28,0,0,0,7.28-12.77,123.51,123.51,0,0,0,5.18-14Z"/>
          </g>
          <g class="cls-9">
            <path class="cls-10" d="M90.56,268.66A59.37,59.37,0,0,0,93,279a28.92,28.92,0,0,0,4.66,9.18,11.2,11.2,0,0,0,3.72,3,10.88,10.88,0,0,0,4.39,1.08c3.13.16,6.47-1,9.89-2.22l.16.25a26.11,26.11,0,0,1-2.07,1.84,17.94,17.94,0,0,1-2.37,1.5,13.56,13.56,0,0,1-5.58,1.63,9.91,9.91,0,0,1-5.89-1.5,14.81,14.81,0,0,1-4.16-4.15,30.89,30.89,0,0,1-4.2-10.23,54.24,54.24,0,0,1-1.29-10.74Z"/>
          </g>
          <g class="cls-9">
            <path class="cls-10" d="M129.64,243.33a168.3,168.3,0,0,1-5.16,18.74,93,93,0,0,1-3.65,9.08,33.62,33.62,0,0,1-5.34,8.46,9,9,0,0,1-4.75,2.9,5.78,5.78,0,0,1-3.11-.32,15.18,15.18,0,0,1-2.41-1.25,21.22,21.22,0,0,1-6.81-7.69A40.94,40.94,0,0,1,94.8,264a44.93,44.93,0,0,1-1.5-9.7l.29-.05c2,6.17,4.15,12.23,7.41,17.51a29.68,29.68,0,0,0,2.67,3.71,17.49,17.49,0,0,0,3.22,3.05,12.51,12.51,0,0,0,1.81,1.1,3,3,0,0,0,1.64.29,6.57,6.57,0,0,0,3.45-2,31.71,31.71,0,0,0,5.3-7.64,93.23,93.23,0,0,0,4-8.74,187.52,187.52,0,0,0,6.27-18.28Z"/>
          </g>
          <g>
            <path class="cls-11" d="M142.78,206.91s4.29,15.77,3.06,19.83,1.84,7.13,3.68,1.53c0,0,.61,4.07,4.89-5.09a27.58,27.58,0,0,0-3.06-21.36"/>
            <path class="cls-12" d="M144,205.38s-4.36,14.69-2.79,16.5,4-2.26,5.23-6.84"/>
            <path class="cls-12" d="M150.74,217.59a30.43,30.43,0,0,1-1.22,11.19"/>
            <path class="cls-12" d="M153.8,217.59c.42.8.76,5.52-1.84,10.17"/>
          </g>
          <path class="cls-13" d="M97.48,109.74s-11.68,28.07,14.61,68.55c0,0,13,30.75,31.3,29.63l11-3-14.94-42.1s-1.94-10.55-4.65-20.47C130.24,125.5,111,110.76,97.48,109.74Z"/>
          <path class="cls-14" d="M100.54,110.18a56.7,56.7,0,0,0-31.83-3c-3,.9-18.36,0-28.77,11.19l3,6.41c-11.26,17.89-19.59,64.09-5.51,75.29s56.41,9.87,76,9.87c25.56,0,57.54-7.12,28.16-54.94,7.12-1.27-12.22-21.12-19.59-29"/>
          <g>
            <path class="cls-15" d="M36.27,151s7.35,21.87,60.6,1.52"/>
            <path class="cls-16" d="M36.27,151a14.16,14.16,0,0,0,5.47,5.83l1.76,1a18,18,0,0,0,1.86.8,23.3,23.3,0,0,0,3.86,1.19,50.9,50.9,0,0,0,16.11.62,108.66,108.66,0,0,0,16-3.1l3.93-1.08,2-.54c.65-.2,1.29-.44,1.93-.65l7.76-2.54-7.64,2.89c-.64.24-1.27.48-1.92.7l-2,.59-3.91,1.19a103.83,103.83,0,0,1-16,3.29c-5.43.43-11,.55-16.33-.81a23.25,23.25,0,0,1-3.9-1.32c-.62-.29-1.28-.5-1.87-.85l-1.77-1.06A14.37,14.37,0,0,1,36.27,151Z"/>
          </g>
          <path class="cls-14" d="M66.26,139.76s-.34,4-10.4,4.57"/>
          <path class="cls-17" d="M33.21,156.54c6.73,1.53,6.73,1,8,8.65"/>
          <g>
            <path class="cls-18" d="M129.1,147.37s9.9,3.13,12.4,8.44"/>
            <path class="cls-19" d="M129.1,147.37a21.51,21.51,0,0,1,3.68,1.15,23.28,23.28,0,0,1,3.47,1.71,16.16,16.16,0,0,1,3.09,2.37,8.6,8.6,0,0,1,2.16,3.21A12.48,12.48,0,0,0,139,153a25.1,25.1,0,0,0-3.09-2.15c-1.07-.67-2.2-1.25-3.32-1.84S130.26,147.92,129.1,147.37Z"/>
          </g>
          <path class="cls-20" d="M95.76,107.82c-.07,2.72,1.17,10.8-3.17,13.62,0,0,2,2.54,1.83,3.56-2.41-1-6.12-4.07-6.73-4.58a25.52,25.52,0,0,1-9.1-2.07c-13.64-7-12.59-8-10.9-13.9,1.83-6.33,8.31-10.91,16.06-10S95.92,101.31,95.76,107.82Z"/>
          <path class="cls-14" d="M152,194.36s-8.7,11.64-4.18,53.91L31.24,250l-2.38-66.15"/>
          <g>
            <path class="cls-11" d="M25,202.56s-1.75,8.64-.89,11.91c.72,2.72,2.45,11.62,2.94,12.56s.89,2.81,2.68,1.06c0,0,.83,3.72,4.38.69,0,0,2.41,4.72,4.41.22,0,0,2,2.87,4-1.17,0,0,.58-7.79.4-12.85a48.65,48.65,0,0,0,2.45,4.26s8.37,6.41,3.51-2.58a21.3,21.3,0,0,0-.69-5.55c-.83-3.72-7.13-8.18-7.13-8.18l-2.52-3.35"/>
            <g>
              <line class="cls-21" x1="38.48" y1="229" x2="37.75" y2="216.55"/>
              <path class="cls-22" d="M38.43,229q-.41-3.1-.72-6.21a29.26,29.26,0,0,1-.28-3.1,15.86,15.86,0,0,1,.27-3.14h.1a16.62,16.62,0,0,1,.63,3.09,29.48,29.48,0,0,1,.08,3.12q0,3.12,0,6.24Z"/>
            </g>
            <g>
              <line class="cls-21" x1="34.03" y1="229.23" x2="33.34" y2="216.33"/>
              <path class="cls-22" d="M34,229.24c-.26-2.15-.49-4.29-.69-6.44a28.94,28.94,0,0,1-.28-3.22,17.06,17.06,0,0,1,.28-3.25h.1a17,17,0,0,1,.62,3.21,29,29,0,0,1,.07,3.23q0,3.23,0,6.47Z"/>
            </g>
            <g>
              <line class="cls-21" x1="30.04" y1="228.62" x2="28.86" y2="217.01"/>
              <path class="cls-22" d="M30,228.63c-.34-1.92-.65-3.85-.94-5.77a23.59,23.59,0,0,1-.39-2.89,14.63,14.63,0,0,1,.15-2.95h.1a13.84,13.84,0,0,1,.74,2.86,23.58,23.58,0,0,1,.2,2.91q.16,2.91.24,5.84Z"/>
            </g>
          </g>
          <g>
            <path class="cls-14" d="M52.19,110.25s-36.73,9.16-44.08,52.91c0,0-3.06,30,12.11,38.62l19-5.55,2-31a99.72,99.72,0,0,1,13.72-17.82c3.07-3,6.92-3.82,10-14"/>
            <polyline class="cls-14" points="20.22 201.78 22.04 207.38 42.26 201.83 39.22 196.23"/>
          </g>
          <g>
            <g>
              <path class="cls-23" d="M91.64,102.19s27.46,38,36.63,72.61c0,0,7.12-4.33,7.24-2.3,0,0,9.45-7.12,8.17-1.52,0,0,11.67-14.67,15.5-7.59,0,0,18-12.81,10-14-28.28-4.19-39.19-50.83-64.4-52.6Z"/>
              <path class="cls-23" d="M103.61,97.84c29.68,16.26,43.66,61,55.57,65.55"/>
              <path class="cls-23" d="M144.41,170.11c-9.13-12-29.67-62.35-44.52-71.54"/>
              <path class="cls-23" d="M135.51,172.5c-9.53-18.34-30.25-69.19-39.64-72"/>
            </g>
            <g>
              <path class="cls-24" d="M61.54,34.75c-3.48-.31-4.11-12.94,3.43-11.82,3.36-.34,4.94-1.34,4-3.27-.64-4.83,1.94-7.3,7.87-7.31,2,.28,3.69.05,4.77-1.6,2-4.18,5.42-5.9,11.69-2.27a5.23,5.23,0,0,0,5,0c4.45-2.71,8.37-2.32,11.58,2.25,1.29,2,3,2.57,5.41,1.05,5.67-1.76,7.89,1.44,9,6.29.08,2.19.74,3.91,3.19,4.15,3.33.45,4.19,3,3,7.16-1.16,2-1.31,3.41.35,3.86,2.87.92,2.23,4-.42,8.38-1.84,1.74-2.34,3.16-1.17,4.19.86,2.82-.1,4.26-2.61,4.55C100.84,25.32,85.3,43.67,61.54,34.75Z"/>
              <g>
                <line class="cls-25" x1="94.63" y1="35.58" x2="62.97" y2="22.97"/>
                <path class="cls-26" d="M94.63,35.58c-2.79-.67-5.51-1.52-8.2-2.43s-5.35-1.92-8-2.95-5.25-2.15-7.83-3.35S65.46,24.41,63,23c2.79.67,5.51,1.51,8.21,2.43s5.35,1.91,8,3S84.42,30.5,87,31.7,92.15,34.14,94.63,35.58Z"/>
              </g>
              <g>
                <polyline class="cls-25" points="69.18 16.24 95.87 35.02 76.84 12.35"/>
                <path class="cls-26" d="M69.18,16.24c2.36,1.37,4.66,2.83,7,4.28S80.72,23.47,83,25q6.8,4.51,13.45,9.23l-1.33,1.45c-1.56-1.9-3.16-3.78-4.7-5.71s-3.11-3.83-4.63-5.78c-3.06-3.87-6.07-7.78-8.94-11.82,3.48,3.52,6.81,7.17,10.1,10.85,1.65,1.84,3.26,3.7,4.88,5.56s3.21,3.75,4.81,5.63l5.09,6-6.42-4.5c-4.45-3.13-8.87-6.3-13.24-9.55q-3.27-2.45-6.5-4.94C73.42,19.67,71.27,18,69.18,16.24Z"/>
              </g>
              <g>
                <polyline class="cls-25" points="97.63 8.71 97.63 35.02 110.11 12.35"/>
                <path class="cls-26" d="M97.63,8.71c.41,4.39.63,8.78.78,13.16s.2,8.77.22,13.16l-1.88-.49c2.1-3.77,4.22-7.52,6.44-11.23s4.48-7.38,6.93-11c-1.72,4-3.62,7.86-5.57,11.71s-4,7.66-6,11.45L96.61,39l0-3.94c0-4.39.06-8.77.21-13.16S97.21,13.1,97.63,8.71Z"/>
              </g>
              <g>
                <path class="cls-25" d="M123.52,18.12c-.75.13-24,16.91-24,16.91l28.36-11.34"/>
                <path class="cls-26" d="M123.52,18.12c-2,1.43-3.86,3-5.8,4.5L111.9,27.1c-3.89,3-7.84,5.86-11.79,8.73l-1-1.73,7.1-2.8c2.39-.89,4.76-1.82,7.16-2.68s4.79-1.72,7.19-2.56,4.83-1.64,7.28-2.37c-2.28,1.15-4.59,2.22-6.9,3.3s-4.65,2.09-7,3.1-4.69,2-7,3L99.9,36l-7.81,3.17,6.85-4.9c4-2.85,8-5.66,12.07-8.37,2-1.37,4.09-2.7,6.16-4S121.3,19.19,123.52,18.12Z"/>
              </g>
              <g>
                <path class="cls-25" d="M128.64,30.39c-.45.25-28.75,6.08-28.75,6.08l31.16-2.2"/>
                <path class="cls-26" d="M128.64,30.39c-2.32.8-4.7,1.41-7.07,2s-4.75,1.23-7.13,1.79-4.77,1.12-7.16,1.66-4.79,1-7.19,1.55l-.27-2c5.2-.37,10.39-.69,15.6-.9,2.6-.12,5.2-.2,7.81-.26s5.21-.09,7.82,0c-2.58.42-5.16.73-7.75,1s-5.18.59-7.77.84c-5.18.52-10.37.94-15.57,1.3l-.27-2c2.4-.47,4.8-1,7.21-1.42s4.81-.92,7.22-1.33,4.83-.83,7.25-1.23Z"/>
              </g>
              <g>
                <path class="cls-25" d="M127.89,45.17s-8.28-6.35-21.86-8"/>
                <path class="cls-26" d="M127.89,45.17c-3.64-1.61-7.16-3.06-10.79-4.36-1.81-.63-3.62-1.28-5.47-1.85s-3.71-1.12-5.6-1.81a25.32,25.32,0,0,1,6,.29,32.4,32.4,0,0,1,5.79,1.49,31.8,31.8,0,0,1,5.41,2.55A20.22,20.22,0,0,1,127.89,45.17Z"/>
              </g>
            </g>
            <path class="cls-24" d="M49.82,75.22s3.28-27.43,29.68-25,24,10.9,27.48,23.42,12.45-3.06,12.45-3.06S142,35,81.3,35,36.6,60.18,41.61,72.75C46.08,84,49.82,75.22,49.82,75.22Z"/>
            <g>
              <path class="cls-12" d="M119.43,78.55a8.92,8.92,0,0,1-8.49,9.2c-4.11.09-4.76-2.72-4.91-7.43s3.06-8.61,7.16-8.7S119.32,74.61,119.43,78.55Z"/>
              <path class="cls-27" d="M109.59,78.45c.49.53,1.32.94,1.31,1.61,0,.46-.4.83-.71,1.21a2.12,2.12,0,0,0-.52,1.81,1.63,1.63,0,0,0,1.59,1.14,2.63,2.63,0,0,0,1.06-.33,6.34,6.34,0,0,0,3.52-4.81,3.84,3.84,0,0,0-1-3.15C112.54,73.69,107.06,75.74,109.59,78.45Z"/>
            </g>
            <g>
              <path class="cls-12" d="M38.05,80.17A9.1,9.1,0,0,0,47.11,89c4.11-.09,4.58-2.92,4.43-7.64s-3.6-8.45-7.7-8.36S37.91,76.23,38.05,80.17Z"/>
              <path class="cls-27" d="M47.87,79.62c-.45.55-1.26,1-1.21,1.67,0,.46.46.81.79,1.17a2.15,2.15,0,0,1,.63,1.79,1.58,1.58,0,0,1-1.51,1.21,2.7,2.7,0,0,1-1.08-.28,6.46,6.46,0,0,1-3.82-4.64,3.78,3.78,0,0,1,.83-3.2C44.62,75,50.22,76.8,47.87,79.62Z"/>
            </g>
            <path class="cls-11" d="M91.29,109.87a1.94,1.94,0,0,0-.41.32c-1.6,2.1-2.79,4.07-10.33,4.74-3.77.34-10-1.15-11.5-4.05-.39-.74-3.51-1.23-4.1-1.38-26.13-6.89-16.09-23.88-15.38-31.92,0,0,0,0,0-.09C51.87,51.79,68.36,49.8,79.5,49.55c8.82-.21,20.86.74,25.43,15.08,1.42,4.44,1.68,7.67,3.15,12.45q.18.56.36,1.14C118,107.64,100.79,103,91.29,109.87Z"/>
            <path class="cls-28" d="M108.61,80.41c-5.88-18.84-7.09-21.75-10.7-23.66-5.58-3-9-2.08-27.77-.33C51.73,58.15,49.46,79.16,49.27,81c2.73-25.68,25.86-30,37.19-30.29,9-.2,17,5.39,19.36,18.41A76.57,76.57,0,0,0,108.61,80.41Z"/>
            <g>
              <path class="cls-28" d="M99.89,72c.11,3.43-2.69,5-6.2,5s-6.4-1.15-6.51-4.59S89.8,65.07,93.31,65,99.78,68.59,99.89,72Z"/>
              <g>
                <path class="cls-29" d="M99.52,74.79c.11,3.44-2.33,4.91-5.81,5s-6.33-1.16-6.44-4.59,2.43-5.7,5.9-5.78S99.41,71.36,99.52,74.79Z"/>
                <path class="cls-30" d="M99.57,74.79a6.09,6.09,0,0,1-.31,2.27A4.15,4.15,0,0,1,97.87,79a6.83,6.83,0,0,1-4.5,1.25,7.82,7.82,0,0,1-4.44-1.38A4.51,4.51,0,0,1,87.49,77a5.82,5.82,0,0,1-.43-2.29,6.09,6.09,0,0,1,.43-2.33,5.1,5.1,0,0,1,1.42-2,6.87,6.87,0,0,1,4.52-1.54,6.31,6.31,0,0,1,4.43,1.68A6,6,0,0,1,99.57,74.79Zm-.1,0a4.62,4.62,0,0,0-2-3.71,7.19,7.19,0,0,0-4-1.13,6.44,6.44,0,0,0-3.94,1.17,5.05,5.05,0,0,0-2,3.61,4.64,4.64,0,0,0,.28,2.15,3.53,3.53,0,0,0,1.38,1.63,7.55,7.55,0,0,0,4.22.83,9.45,9.45,0,0,0,4.17-.86A3.85,3.85,0,0,0,99,77,4.45,4.45,0,0,0,99.47,74.79Z"/>
              </g>
            </g>
            <path class="cls-28" d="M69.17,74.47c.11,3.43-2.39,3.61-5.9,3.69s-6.39-1.15-6.5-4.58,2.61-7.42,6.12-7.5S69.07,71,69.17,74.47Z"/>
            <g>
              <g>
                <path class="cls-29" d="M69.5,75.77c.11,3.43-2.63,5-6.14,5.1s-6.4-1.16-6.51-4.59a6.36,6.36,0,0,1,6.3-6.38A6,6,0,0,1,69.5,75.77Z"/>
                <path class="cls-30" d="M69.55,75.77a5.4,5.4,0,0,1-.39,2.34A4.52,4.52,0,0,1,67.65,80,7.2,7.2,0,0,1,63,81.3a7.84,7.84,0,0,1-4.58-1.48A4.37,4.37,0,0,1,57,77.87a6.31,6.31,0,0,1,1.77-6.75,6.89,6.89,0,0,1,4.63-1.75,6,6,0,0,1,4.51,1.95A7,7,0,0,1,69.55,75.77Zm-.1,0a5.22,5.22,0,0,0-2-3.94,6.58,6.58,0,0,0-4-1.39,6.25,6.25,0,0,0-6.27,5.09,4,4,0,0,0,1.52,4,7.47,7.47,0,0,0,4.36.91,10.11,10.11,0,0,0,4.34-.9A4,4,0,0,0,68.94,78,4.17,4.17,0,0,0,69.45,75.77Z"/>
              </g>
              <g>
                <ellipse class="cls-31" cx="63.99" cy="75.39" rx="3.66" ry="4.2" transform="translate(-11.76 138.96) rotate(-89.68)"/>
                <ellipse class="cls-31" cx="63.99" cy="75.39" rx="2.68" ry="3.08" transform="translate(-11.76 138.96) rotate(-89.68)"/>
                <ellipse class="cls-32" cx="66.63" cy="72.65" rx="0.8" ry="0.88" transform="translate(-7.28 137.87) rotate(-88.9)"/>
              </g>
              <g>
                <ellipse class="cls-31" cx="92.86" cy="74.9" rx="3.66" ry="4.2" transform="translate(17.44 167.34) rotate(-89.68)"/>
                <ellipse class="cls-31" cx="92.86" cy="74.9" rx="2.68" ry="3.08" transform="translate(17.44 167.34) rotate(-89.68)"/>
                <ellipse class="cls-32" cx="95.5" cy="72.16" rx="0.8" ry="0.88" transform="translate(21.52 166.26) rotate(-88.9)"/>
              </g>
            </g>
            <path class="cls-6" d="M87.8,62.33c-.31.1.75-1.15,1.73-2.26a4.55,4.55,0,0,1,4.4-1.29A10.51,10.51,0,0,1,101.51,65c0,.11-.12.2-.22.12C99.79,64,94.25,60.23,87.8,62.33Z"/>
            <path class="cls-6" d="M68.25,63.69c.31.09-.83-1.12-1.87-2.18a4.63,4.63,0,0,0-4.48-1.09A10.23,10.23,0,0,0,54.73,67c0,.11.13.2.22.11C56.38,65.87,61.68,61.88,68.25,63.69Z"/>
            <g>
              <path class="cls-28" d="M94.05,90.71a45.54,45.54,0,0,0-6,10.23,4.18,4.18,0,0,1-.63,1.1c-2.64,3.32-10.88,4.28-15.45.4A8.59,8.59,0,0,1,70.56,101s-2.21-6.25-5.69-9.93c0,0,0,0,0,0a49.8,49.8,0,0,0,5.07,2.11c2.85,1,4.69.7,8.82.87a28.84,28.84,0,0,0,12.77-2.15C93.74,90.88,93.91,90.8,94.05,90.71Z"/>
              <path class="cls-33" d="M94.05,90.71c-.27.24-4.47,4.15-6.11,8.58a4,4,0,0,1-.62,1.1c-2.65,3.31-10.88,4.28-15.45.4a8.71,8.71,0,0,1-1.37-1.47,35.79,35.79,0,0,0-5.63-8.27h0a22.58,22.58,0,0,0,4.6,2.69A20.49,20.49,0,0,0,79.68,95.5a33.84,33.84,0,0,0,10.73-2.81A23.51,23.51,0,0,0,94.05,90.71Z"/>
              <path class="cls-34" d="M90.41,92.69C87,98.78,78,99.87,72.37,97.17c-2.1-1-2.2-2.19-2.91-3.44A20.49,20.49,0,0,0,79.68,95.5,33.84,33.84,0,0,0,90.41,92.69Z"/>
              <path class="cls-35" d="M87.32,100.39c-2.65,3.31-10.88,4.28-15.45.4a5.55,5.55,0,0,1,4.9-1.63,2.78,2.78,0,0,1,2.5,2h0s.3-2.31,4-2.58C85.51,98.42,86.66,99.3,87.32,100.39Z"/>
            </g>
            <path class="cls-6" d="M78.85,89.18s-1.24,5.83,5.72,5.1,6.84-2.34,8-1-2.82,14,7.25,13.55S108.1,94.2,108.1,94.2s-2-1.33-2,1.34-6.59,5.53-7,2.6S98.24,79.86,78.85,89.18Z"/>
            <path class="cls-6" d="M79.55,89.18s1.24,5.83-5.72,5.1-6.83-2.34-8-1,2.83,14-7.25,13.55S50.3,94.2,50.3,94.2s2-1.33,2,1.34,6.59,5.53,7,2.6S60.17,79.86,79.55,89.18Z"/>
            <g>
              <path class="cls-21" d="M71.87,81.2c-2.19,1.54-1.55,4,.75,5.38s2.93,2.7,7.17,2.6C84.3,89.07,83,88.4,85.35,87c4.79-2.79.18-6.15.18-6.15"/>
              <path class="cls-22" d="M71.87,81.2a3.29,3.29,0,0,0-1.06,1.37,2.34,2.34,0,0,0,0,1.65,4.83,4.83,0,0,0,2.35,2.37,14.58,14.58,0,0,0,3,1.74,9.7,9.7,0,0,0,3.37.41,12.77,12.77,0,0,0,3.32-.43,2,2,0,0,0,.6-.39c.2-.18.44-.4.68-.6.5-.4,1.09-.69,1.53-1a2.76,2.76,0,0,0,1.58-2.55,5.12,5.12,0,0,0-1.69-2.9,5.41,5.41,0,0,1,1.36,1.17,3.62,3.62,0,0,1,.88,1.65,2.79,2.79,0,0,1-.33,1.93,4.63,4.63,0,0,1-1.3,1.41,17.11,17.11,0,0,0-1.42,1c-.21.18-.4.37-.63.59a2.87,2.87,0,0,1-.88.58,10.9,10.9,0,0,1-3.7.39A9.51,9.51,0,0,1,75.88,89a14.86,14.86,0,0,1-3-2,5,5,0,0,1-2.35-2.75,2.71,2.71,0,0,1,.15-1.82A3.18,3.18,0,0,1,71.87,81.2Z"/>
            </g>
            <path class="cls-23" d="M92.74,50.59s0,2.92-13.57,3.09S59.24,57.08,54,65.14L49.82,75.22a5.17,5.17,0,0,0-5-2.26c-3.33.49-9.65-15.34,6.76-26.13C63.3,39.12,79.42,41.28,93.4,35.58,93.4,35.58,96.58,44.79,92.74,50.59Z"/>
            <path class="cls-23" d="M92.47,51.12s3.55-3.2,2.16-10.21c0,0,23.47,3.77,19.7,30.12,0,0-5.16.32-7,3.57C107.38,74.6,104.19,57.2,92.47,51.12Z"/>
            <g>
              <path class="cls-25" d="M92.47,36.53c-10.58,13-25.75,5.88-37.19,13"/>
              <path class="cls-26" d="M92.47,36.53a19.51,19.51,0,0,1-7.58,6.85,29.45,29.45,0,0,1-10,2.76c-3.39.4-6.75.53-10,.9a31,31,0,0,0-9.62,2.48,21.54,21.54,0,0,1,9.37-4c3.37-.7,6.75-.92,10-1.34A36.9,36.9,0,0,0,84.24,42,26.44,26.44,0,0,0,92.47,36.53Z"/>
            </g>
            <path class="cls-26" d="M92.47,37.9a10.6,10.6,0,0,1-2,7,13,13,0,0,1-1.21,1.46,17,17,0,0,1-1.41,1.27,4.15,4.15,0,0,1-.77.55l-.81.5a10.59,10.59,0,0,1-1.67.87A21.27,21.27,0,0,1,81,50.73c-.6.17-1.22.19-1.82.3s-1.21.18-1.82.21c-1.22,0-2.44,0-3.65,0s-2.4-.3-3.58-.53c1.2-.21,2.38-.33,3.56-.45s2.32-.39,3.48-.53a30.53,30.53,0,0,0,6.56-2,15.61,15.61,0,0,0,5.46-3.79A14.25,14.25,0,0,0,92.47,37.9Z"/>
            <path class="cls-26" d="M95.87,43a16.46,16.46,0,0,1,6.18,3.62,24.34,24.34,0,0,1,4.6,5.61A26.31,26.31,0,0,1,109.36,59a28.23,28.23,0,0,1,.64,3.54,32.84,32.84,0,0,1,.12,3.57c-.42-1.13-.71-2.26-1.08-3.37l-.57-1.64-.27-.82c-.1-.27-.22-.54-.33-.81-.22-.53-.44-1.06-.64-1.59s-.49-1-.73-1.55a31.93,31.93,0,0,0-1.57-3,37.79,37.79,0,0,0-4-5.53A31.76,31.76,0,0,0,95.87,43Z"/>
            <path class="cls-26" d="M94.9,39.16a22.21,22.21,0,0,1,7.18.21,25.57,25.57,0,0,1,6.9,2.29,19.28,19.28,0,0,1,5.76,4.55A15.06,15.06,0,0,1,118,52.68a27.26,27.26,0,0,0-4.34-5.4,3.84,3.84,0,0,0-.64-.56l-.65-.53a9.58,9.58,0,0,0-1.36-1c-.48-.3-.92-.65-1.41-.93l-1.49-.81a39.57,39.57,0,0,0-6.35-2.56A69.89,69.89,0,0,0,94.9,39.16Z"/>
            <path class="cls-26" d="M55.28,54.55a28.29,28.29,0,0,0-4,3.66,16.42,16.42,0,0,0-2.79,4.33,15.6,15.6,0,0,0-1.31,5l-.09.65c0,.22,0,.45,0,.67l0,1.35c0,.9.1,1.81.07,2.77a19.57,19.57,0,0,1-1-2.64,13.55,13.55,0,0,1-.44-2.84,12.06,12.06,0,0,1,1-5.75,12.4,12.4,0,0,1,3.54-4.64A12.11,12.11,0,0,1,55.28,54.55Z"/>
          </g>
        </g>
      </g>
    </g>
  </g>
</svg>
