<svg id="Layer_1" data-name="Layer 1" xmlns="http://www.w3.org/2000/svg" width="198.23" height="195.11" viewBox="0 0 198.23 195.11">
  <defs>
    <style>
      .cls-1 {
        opacity: 0.5;
      }

      .cls-2 {
        fill: #fff;
      }

      .cls-3 {
        fill: #f12701;
      }

      .cls-4 {
        fill: #ffaa96;
      }

      .cls-5 {
        opacity: 0.6;
      }

      .cls-6 {
        fill: #b80901;
      }

      .cls-7 {
        fill: #d41600;
      }

      .cls-8 {
        fill: #ff4516;
      }

      .cls-9 {
        opacity: 0.7;
      }

      .cls-10 {
        opacity: 0.4;
      }

      .cls-11 {
        fill: #e51800;
      }

      .cls-12 {
        fill: #ff612c;
      }

      .cls-13 {
        fill: #ff472b;
      }

      .cls-14 {
        fill: #ffb3a1;
      }

      .cls-15 {
        fill: #de1900;
      }

      .cls-16 {
        fill: #ff6e6a;
      }
    </style>
  </defs>
  <g>
    <path class="cls-1" d="M162.59,195.11h-1.08c-.79,0-1.65-.07-2.55-.14h-.05c-.45,0-.92-.07-1.41-.13l-1.62-.18.89-8-1,7.94-1.68-.23-.17,0-1.83-.29h0c-11.75-2-28-6.56-48.25-13.65-2.1.82-5.24,2-9.09,3.34l-1.81.61L91,185l-1.69.55-2,.63-1.85.57-2,.6-2.12.61-1.92.53-1.84.5-.48.13-1.63.41-.36.1-2.39.58-2.13.49-2,.43-.32.06-1.73.35-.54.11L64,192h0c-.66.12-1.33.24-2,.34l-.51.09-1.8.27-.28,0c-.71.11-1.39.2-2.06.28l-.52.06-1.65.19-.46,0-2,.18-.39,0-1.71.12-.52,0-2,.08h-.18l-1.7,0h-.66l-1.86,0h-.17c-.67,0-1.33-.06-2-.11l-.55,0c-.51,0-1-.1-1.6-.16l-.35,0c-.68-.08-1.32-.17-2-.27l-.4-.07L35,192.78l-.51-.11c-.61-.14-1.24-.29-1.85-.45l-.33-.1c-.52-.15-1-.31-1.57-.48l-.48-.17c-.64-.22-1.25-.45-1.84-.7a8.14,8.14,0,0,1-2.17-1.35l-.83-.76-.83-.81-.29-.3L30,182l-5.79,5.51-.43-.44-.78-.86-.79-.93-.79-.95-.73-.94-.75-1-.76-1.05-.7-1-.73-1.11-.7-1.1L16.43,177c-.17-.28-.66-1.13-.66-1.13l-.63-1.15c-.17-.29-.33-.6-.49-.91l-.14-.27c-.16-.3-.32-.62-.47-.94l-.13-.25c-.15-.3-.31-.64-.46-1l-.1-.22c-.14-.3-.29-.63-.43-1l-.1-.22c-.14-.33-.28-.65-.41-1,0,0-.08-.2-.1-.25-.13-.31-.26-.63-.38-.94l-.12-.34c-.09-.23-.2-.55-.32-.87l-.2-.59c-.08-.23-.3-1-.31-1l-.27-.91-.09-.33-.24-.93-.1-.45c-.06-.24-.12-.52-.17-.8l-.08-.41c-.06-.34-.11-.61-.15-.87,0,0-.08-.58-.09-.6,0-.29-.06-.51-.09-.72s0-.61,0-.62l-.05-.69c0-.23,0-.42,0-.62v-.15c0-.22,0-.43,0-.64,0-.05,0-.69,0-.69h.08l0-.1h0v-.05c-.21-.44-.4-.87-.59-1.3L8.93,154c-.23-.56-.44-1.08-.64-1.6l-.15-.4c-.22-.6-.43-1.19-.62-1.78,0-.05-.06-.18-.07-.22-.15-.49-.32-1-.48-1.6l-.11-.4c-.15-.58-.31-1.18-.45-1.78l0-.16c-.13-.58-.25-1.13-.36-1.69L6,144c-.12-.61-.22-1.22-.31-1.82a1.13,1.13,0,0,1,0-.18c-.08-.53-.16-1.11-.23-1.68l7.92-1.1-7.93,1,0-.13c-.07-.61-.13-1.22-.18-1.82,0,0,0-.09,0-.1,0-.59-.08-1.18-.11-1.77v-.1c0-.62,0-1.22,0-1.82a40.93,40.93,0,0,1,.28-5.22c.07-.59.16-1.15.25-1.7l0-.12c.1-.54.2-1,.31-1.48l0-.12c.12-.5.25-1,.4-1.41,0-.06,0-.19,0-.19s.09-.26.14-.38.18-.5.27-.72l.21-.51,0-.29c0-.74-.1-1.47-.12-2.19l0-.71c0-.39,0-.75,0-1.11V116c0-.3,0-1.07,0-1.07l0-.48c0-.38,0-.75.08-1.11l0-.44,0-.41c0-.34.07-.68.12-1l.07-.52c0-.35.1-.66.15-1s.17-.93.2-1.08l.28-1.24c.05-.21.11-.41.16-.61l.15-.51c.13-.46.28-.92.44-1.36.07-.16.11-.28.16-.4.12-.29.22-.56.34-.81,0-.1.25-.52.29-.62l.3-.59.23-.39.08-.12c.06-.7.15-1.43.26-2.15l.07-.4c.13-.77.28-1.49.45-2.19,0,0,0-.13.06-.24.17-.69.36-1.37.56-2a1.72,1.72,0,0,0,.07-.21c.21-.67.45-1.35.73-2.07l.08-.21c.28-.7.56-1.37.87-2l.09-.19c.32-.69.71-1.48,1.12-2.24l0-.07a50.78,50.78,0,0,1,8.79-11.65l.08-.08c1.07-1.07,2.16-2.08,3.26-3,0,0,.1-.25.11-.29h0c.19-.51.43-1.1.7-1.74a.51.51,0,0,1,0-.1c.27-.66.59-1.37.95-2.14l0-.08c.36-.76.77-1.59,1.22-2.45a.25.25,0,0,1,0-.07c.72-1.38,1.5-2.77,2.34-4.13L20.56,41.42a8,8,0,0,1-.67-5.93s.07-.24.09-.32.15-.48.16-.49A23.91,23.91,0,0,1,23.71,28a19.34,19.34,0,0,1,15.65-7.82,22.88,22.88,0,0,1,3.56.29l.56.09.87.17.76.18.14,0,.57.15c.47.13,1,.28,1.51.45l.26.09.29-.47.31-.55a19.19,19.19,0,0,1,6.68-7.5,16.07,16.07,0,0,1,15.67-.52,15.16,15.16,0,0,1,2.95,2,31.8,31.8,0,0,1,1.87-2.71l.26-.32A18.09,18.09,0,0,1,89.11,5h.31A15.65,15.65,0,0,1,99.94,9.32l0,0c.45.39.9.81,1.35,1.23a10.39,10.39,0,0,0,2.11,1.67l.18.09.4-.21a12.6,12.6,0,0,0,1.89-1.55c.42-.4.84-.79,1.27-1.16l.09-.08A15.62,15.62,0,0,1,117.8,5h.31a18.1,18.1,0,0,1,13.46,6.48,4.12,4.12,0,0,1,.33.4c.69.88,1.29,1.83,1.83,2.66a17.06,17.06,0,0,1,1.9-1.41c.34-.21.67-.4,1-.57a16.28,16.28,0,0,1,7.41-1.81,16.1,16.1,0,0,1,8.29,2.31,19,19,0,0,1,6.68,7.5l.47.8.14.22.26-.09c.53-.17,1-.32,1.54-.46l.53-.14.14,0,.81-.19.85-.16.52-.09a23.2,23.2,0,0,1,3.57-.29A19.31,19.31,0,0,1,183.5,28a23.94,23.94,0,0,1,3.56,6.67v0c.08.23.13.41.17.54l0,0,.1.35a8.16,8.16,0,0,1-.7,5.84L174.91,63.14a60.54,60.54,0,0,1,5.08,11,17.43,17.43,0,0,1,2.24,4.13v0c.12.29.23.61.34.93l0,.15c.11.32.22.66.32,1v0c.09.34.19.7.28,1.07l0,.18c.09.36.18.76.27,1.18a51,51,0,0,1,.9,6.85l.76.92c.19.23.58.73.59.73l1,1.27.15.19c.56.76,1.1,1.54,1.61,2.31l.05.09c.28.42.57.87.85,1.34l0,0c.29.47.58,1,.86,1.47l.09.17c.26.46.52,1,.79,1.47l0,.1c.29.57.56,1.13.83,1.71l.07.16c.25.53.49,1.08.72,1.64l.1.23c.26.62.5,1.25.75,1.91l.05.14c.22.61.43,1.23.64,1.86l.11.33c.23.7.45,1.41.65,2.15l0,.11c.2.69.38,1.4.56,2.12l.1.4c.24,1,.47,2.07.68,3.17.11.55.21,1.12.31,1.7l.08.49c.26,1.56.47,3.16.65,4.76l.2,2.06c.06.69.11,1.38.15,2.08a58.75,58.75,0,0,1-1.89,22.18c-.18.58-.37,1.15-.56,1.7l-.09.26a34.33,34.33,0,0,1-5.84,10.46c-1.47,8.8-8.07,20.35-13.08,26.29l-.15.17a22.26,22.26,0,0,1-7.65,6.22l-.6.23-.33.11-.32.09-.33.08-.44.1-.59.1H166c-.36.05-.81.11-1.38.15h-.14l-.81,0h-1.08Z"/>
    <path class="cls-2" d="M157.59,190.11h-1.08c-.79,0-1.65-.07-2.55-.14h-.05c-.45,0-.92-.07-1.41-.13l-1.62-.18.89-8-1,7.94-1.68-.23-.17,0-1.83-.29h0c-11.75-2-28-6.56-48.25-13.65-2.1.82-5.24,2-9.09,3.34l-1.81.61L86,180l-1.69.55-2,.63-1.85.57-2,.6-2.12.61-1.92.53-1.84.5-.48.13-1.63.41-.36.1-2.39.58-2.13.49-2,.43-.32.06-1.73.35-.54.11L59,187h0c-.66.12-1.33.24-2,.34l-.51.09-1.8.27-.28,0c-.71.11-1.39.2-2.06.28l-.52.06-1.65.19-.46,0-2,.18-.39,0-1.71.12-.52,0-2,.08h-.18l-1.7,0h-.66l-1.86,0h-.17c-.67,0-1.33-.06-2-.11l-.55,0c-.51,0-1-.1-1.6-.16l-.35,0c-.68-.08-1.32-.17-2-.27l-.4-.07L30,187.78l-.51-.11c-.61-.14-1.24-.29-1.85-.45l-.33-.1c-.52-.15-1-.31-1.57-.48l-.48-.17c-.64-.22-1.25-.45-1.84-.7a8.14,8.14,0,0,1-2.17-1.35l-.83-.76-.83-.81-.29-.3L25,177l-5.79,5.51-.43-.44-.78-.86-.79-.93-.79-.95-.73-.94-.75-1-.76-1.05-.7-1-.73-1.11-.7-1.1L11.43,172c-.17-.28-.66-1.13-.66-1.13l-.63-1.15c-.17-.29-.33-.6-.49-.91l-.14-.27c-.16-.3-.32-.62-.47-.94l-.13-.25c-.15-.3-.31-.64-.46-1l-.1-.22c-.14-.3-.29-.63-.43-1l-.1-.22c-.14-.33-.28-.65-.41-1,0,0-.08-.2-.1-.25-.13-.31-.26-.63-.38-.94l-.12-.34c-.09-.23-.2-.55-.32-.87l-.2-.59c-.08-.23-.3-1-.31-1l-.27-.91-.09-.33-.24-.93-.1-.45c-.06-.24-.12-.52-.17-.8L5,156.19c-.06-.34-.11-.61-.15-.87,0,0-.08-.58-.09-.6,0-.29-.06-.51-.09-.72s0-.61,0-.62l-.05-.69c0-.23,0-.42,0-.62v-.15c0-.22,0-.43,0-.64,0-.05,0-.69,0-.69h.08l0-.1h0v-.05c-.21-.44-.4-.87-.59-1.3L3.93,149c-.23-.56-.44-1.08-.64-1.6l-.15-.4c-.22-.6-.43-1.19-.62-1.78,0-.05-.06-.18-.07-.22-.15-.49-.32-1-.48-1.6l-.11-.4c-.15-.58-.31-1.18-.45-1.78l0-.16c-.13-.58-.25-1.13-.36-1.69L1,139c-.12-.61-.22-1.22-.31-1.82a1.13,1.13,0,0,1,0-.18c-.08-.53-.16-1.11-.23-1.68l7.92-1.1-7.93,1,0-.13c-.07-.61-.13-1.22-.18-1.82,0,0,0-.09,0-.1,0-.59-.08-1.18-.11-1.77v-.1c0-.62,0-1.22,0-1.82a40.93,40.93,0,0,1,.28-5.22c.07-.59.16-1.15.25-1.7l0-.12c.1-.54.2-1,.31-1.48l0-.12c.12-.5.25-1,.4-1.41,0-.06.05-.19.05-.19s.09-.26.14-.38.18-.5.27-.72l.21-.51,0-.29c-.05-.74-.1-1.47-.12-2.19l0-.71c0-.39,0-.75,0-1.11V111c0-.3.05-1.07.05-1.07l0-.48c0-.38,0-.75.08-1.11l0-.44,0-.41c0-.34.07-.68.12-1l.07-.52c0-.35.1-.66.15-1s.17-.93.2-1.08l.28-1.24c0-.21.11-.41.16-.61l.15-.51c.13-.46.28-.92.44-1.36.07-.16.11-.28.16-.4.12-.29.22-.56.34-.81,0-.1.25-.52.29-.62l.3-.59.23-.39L5,97.28c.06-.7.15-1.43.26-2.15l.07-.4c.13-.77.28-1.49.45-2.19,0,0,0-.13.06-.24.17-.69.36-1.37.56-2a1.72,1.72,0,0,0,.07-.21c.21-.67.45-1.35.73-2.07l.08-.21c.28-.7.56-1.37.87-2l.09-.19c.32-.69.71-1.48,1.12-2.24l0-.07a50.78,50.78,0,0,1,8.79-11.65l.08-.08c1.07-1.07,2.16-2.08,3.26-3,0,0,.1-.25.11-.29h0c.19-.51.43-1.1.7-1.74a.51.51,0,0,1,0-.1c.27-.66.59-1.37.95-2.14l0-.08c.36-.76.77-1.59,1.22-2.45a.25.25,0,0,1,0-.07c.72-1.38,1.5-2.77,2.34-4.13L15.56,36.42a8,8,0,0,1-.67-5.93s.07-.24.09-.32.15-.48.16-.49A23.91,23.91,0,0,1,18.71,23a19.34,19.34,0,0,1,15.65-7.82,22.88,22.88,0,0,1,3.56.29l.56.09.87.17.76.18.14,0,.57.15c.47.13,1,.28,1.51.45l.26.09.29-.47.31-.55a19.19,19.19,0,0,1,6.68-7.5,16.07,16.07,0,0,1,15.67-.52,15.16,15.16,0,0,1,2.95,2,31.8,31.8,0,0,1,1.87-2.71l.26-.32A18.09,18.09,0,0,1,84.11,0h.31A15.65,15.65,0,0,1,94.94,4.32l0,0c.45.39.9.81,1.35,1.23a10.39,10.39,0,0,0,2.11,1.67l.18.09.4-.21a12.6,12.6,0,0,0,1.89-1.55c.42-.4.84-.79,1.27-1.16l.09-.08A15.62,15.62,0,0,1,112.8,0h.31a18.1,18.1,0,0,1,13.46,6.48,4.12,4.12,0,0,1,.33.4c.69.88,1.29,1.83,1.83,2.66a17.06,17.06,0,0,1,1.9-1.41c.34-.21.67-.4,1-.57a16.28,16.28,0,0,1,7.41-1.81,16.1,16.1,0,0,1,8.29,2.31,19,19,0,0,1,6.68,7.5l.47.8.14.22.26-.09c.53-.17,1-.32,1.54-.46l.53-.14.14,0,.81-.19.85-.16.52-.09a23.2,23.2,0,0,1,3.57-.29A19.31,19.31,0,0,1,178.5,23a23.94,23.94,0,0,1,3.56,6.67v0c.08.23.13.41.17.54l0,0,.1.35a8.16,8.16,0,0,1-.7,5.84L169.91,58.14a60.54,60.54,0,0,1,5.08,11,17.43,17.43,0,0,1,2.24,4.13v0c.12.29.23.61.34.93l0,.15c.11.32.22.66.32,1v0c.09.34.19.7.28,1.07l0,.18c.09.36.18.76.27,1.18a51,51,0,0,1,.9,6.85l.76.92c.19.23.58.73.59.73l1,1.27.15.19c.56.76,1.1,1.54,1.61,2.31l.05.09c.28.42.57.87.85,1.34l0,0c.29.47.58,1,.86,1.47l.09.17c.26.46.52,1,.79,1.47l0,.1c.29.57.56,1.13.83,1.71l.07.16c.25.53.49,1.08.72,1.64l.1.23c.26.62.5,1.25.75,1.91l.05.14c.22.61.43,1.23.64,1.86l.11.33c.23.7.45,1.41.65,2.15l0,.11c.2.69.38,1.4.56,2.12l.1.4c.24,1,.47,2.07.68,3.17.11.55.21,1.12.31,1.7l.08.49c.26,1.56.47,3.16.65,4.76l.2,2.06c.06.69.11,1.38.15,2.08a58.75,58.75,0,0,1-1.89,22.18c-.18.58-.37,1.15-.56,1.7l-.09.26a34.33,34.33,0,0,1-5.84,10.46c-1.47,8.8-8.07,20.35-13.08,26.29l-.15.17a22.26,22.26,0,0,1-7.65,6.22l-.6.23-.33.11-.32.09-.33.08-.44.1-.59.1H161c-.36.05-.81.11-1.38.15h-.14l-.81,0h-1.08Z"/>
    <g>
      <path class="cls-3" d="M185,122.5c-1.43-22-9.38-29.84-13.37-34.64-.38-12.73-3.73-14.6-3.73-14.6s-11-43.74-69.26-43.74S28.36,73.26,28.36,73.26c-5.76,4.4-15.5,14.6-15.5,26.87-2.78,2.42-3.7,10.54-2.68,19.28C6.87,123.1,7,138.77,12.86,149c-2.06,8.06,7.1,23.64,13.68,29.41,22.24,9.36,72.07-11.53,72.07-11.53,52.23,18.49,61.85,15,61.85,15,6.31-2.77,16.57-21.45,16.4-28.83C181.73,148.51,186.39,138.77,185,122.5Z"/>
      <g>
        <path class="cls-4" d="M102.42,161.16c16.44,9.31,47.66,15.37,61.78,17.76a33.17,33.17,0,0,0,2.19-2.57c-13-2.16-46-8.34-62.55-17.7Z"/>
        <path class="cls-4" d="M126.61,147.06l-1,2.71C142.41,156,164,159.39,175,160.84c.36-1,.68-1.89.95-2.78C165.29,156.67,143.47,153.28,126.61,147.06Z"/>
      </g>
      <g class="cls-5">
        <path class="cls-6" d="M110.67,108.79l-1.06,0c-.69,0-1.7,0-3,0s-2.83,0-4.61-.09-3.78-.09-6-.3-4.56-.48-7.07-.79l-3.87-.51c-1.31-.21-2.63-.5-4-.75s-2.73-.55-4.12-.84-2.8-.55-4.2-1c-2.8-.79-5.65-1.57-8.46-2.48l-4.17-1.55-2.07-.78-1-.4c-.34-.14-.67-.31-1-.46-1.33-.61-2.65-1.24-3.94-1.86l-1.93-.93L48.37,95c-1.21-.71-2.41-1.4-3.56-2.1s-2.19-1.55-3.24-2.3L40,89.5c-.49-.41-1-.82-1.41-1.22-.9-.82-1.81-1.56-2.6-2.37l-2.2-2.38a11.3,11.3,0,0,1-.94-1.18c-.3-.39-.58-.77-.85-1.14a17.82,17.82,0,0,1-1.4-2.15l-.56-1c-.18-.31-.31-.64-.45-.93a16,16,0,0,1-1.06-2.84,8.85,8.85,0,0,1-.21-1,2,2,0,0,1,.12.24l.4.67a21.14,21.14,0,0,0,1.72,2.36c.2.24.39.5.63.76l.75.77a23.33,23.33,0,0,0,1.73,1.69c.67.55,1.29,1.21,2.07,1.79l2.41,1.83c.86.62,1.81,1.19,2.75,1.82l1.45.94L44,87c1.07.57,2.12,1.22,3.25,1.8s2.32,1.12,3.51,1.69c.6.28,1.2.58,1.8.87l1.88.77c1.27.51,2.54,1,3.82,1.59.32.13.64.28,1,.4l1,.35,2,.7,4,1.44c1.33.49,2.72.86,4.07,1.29s2.71.85,4,1.27c2.67.86,5.39,1.47,8,2.23l3.81,1.08,3.69.9c2.39.59,4.66,1.18,6.75,1.75,1,.31,2.08.5,3,.74l2.75.66c1.73.42,3.23.83,4.47,1.15s2.2.62,2.86.8Z"/>
      </g>
      <g class="cls-5">
        <path class="cls-7" d="M115.36,92.8c-17.22.92-39.69-1.73-51-16.38C59.45,70,57.52,62.06,57.87,54.05A96,96,0,0,1,60,37.81C34.62,50.49,28.36,73.26,28.36,73.26a45.79,45.79,0,0,0-12,13.85C33,99.33,63.25,118.47,66.07,119.41c3.91,1.28,69.65-20,84.72-31.55A253.56,253.56,0,0,1,115.36,92.8Z"/>
      </g>
      <path class="cls-8" d="M12.86,100.13c-2.26,2-3.3,7.73-3,14.52,25.95,1.33,74.4,2.41,100.86-5.86C35,100.1,28.36,73.26,28.36,73.26L17.17,85.76A28.2,28.2,0,0,0,12.86,100.13Z"/>
      <g class="cls-9">
        <path class="cls-4" d="M98.51,111.12l4.52-1.44C67.11,107.11,43.77,97,34.14,90.14,28,85.8,24.84,81.64,23.26,79l-2,2.27C26.53,89.69,44,107.21,98.51,111.12Z"/>
      </g>
      <g class="cls-10">
        <path class="cls-7" d="M28.36,109.68l38.19,5.07-26.89-8.3c-26.9-8.29-14-30.13-14-30.13l-8.45,9.44a28.2,28.2,0,0,0-4.31,14.37c-1.12,1-1.94,2.9-2.46,5.41Z"/>
      </g>
      <g class="cls-5">
        <path class="cls-6" d="M104.94,107.64l-1,.26c-.67.17-1.65.43-2.9.72s-2.77.66-4.52,1c-.88.18-1.81.4-2.79.59l-3.14.5c-2.18.34-4.56.7-7.09,1s-5.19.47-8,.68c-.69,0-1.39.12-2.09.14l-2.13.05-4.33.09-2.19,0c-.73,0-1.47,0-2.2-.06l-4.44-.18c-.74,0-1.48,0-2.22-.12l-2.21-.2-4.38-.44c-1.45-.15-2.88-.41-4.3-.62s-2.81-.4-4.17-.71c-2.73-.58-5.36-1.09-7.81-1.81-1.23-.36-2.44-.64-3.58-1l-3.29-1.1c-1.05-.34-2-.76-3-1.13s-1.84-.73-2.66-1.11-1.6-.7-2.29-1l-1.91-1c-.58-.29-1.07-.6-1.51-.85s-.8-.47-1.09-.66c-.58-.37-.88-.59-.88-.59l1,.37c.64.24,1.61.54,2.82.94l2,.61,2.4.66c.84.25,1.76.46,2.73.68s2,.52,3,.72l3.32.69c1.14.25,2.35.43,3.57.65,2.43.49,5,.79,7.72,1.21s5.47.64,8.3.94l4.28.33,2.16.19c.72.06,1.44.06,2.16.1l4.33.2,2.16.11,2.14,0,4.24.07,2.09,0c.69,0,1.37,0,2,0,2.72-.06,5.35-.08,7.86-.09s4.84-.21,7-.28l3.14-.09c1,0,2-.11,2.85-.17,1.78-.12,3.34-.18,4.63-.24s2.3-.08,3-.11Z"/>
      </g>
      <g>
        <path class="cls-11" d="M10.18,119.41c-1.28,1.43-2,4.66-2.16,8.67,25.09-1.3,82.44-5.81,96.92-20.44-61.29,9.93-92.08-7.51-92.08-7.51L11,103.26C9.73,107,9.43,113,10.18,119.41Z"/>
        <g class="cls-9">
          <path class="cls-4" d="M10.5,105.12a28.46,28.46,0,0,0-.48,2.93c9.31,3.09,27.84,7.7,55.71,7.7,6.36,0,13.22-.24,20.56-.79l6.54-3.37C53.64,114.55,21.48,108.77,10.5,105.12Z"/>
        </g>
        <g class="cls-5">
          <path class="cls-7" d="M47.82,118.59C20.92,120,21.4,103.71,21.4,103.71a57.07,57.07,0,0,1-8.54-3.58L11,103.26C9.73,107,9.43,113,10.18,119.41A6.55,6.55,0,0,0,9,121.72C23.48,122.11,45.28,122.08,47.82,118.59Z"/>
        </g>
      </g>
      <g class="cls-5">
        <path class="cls-6" d="M167.87,73.26l-1.23,1.45c-.82.94-2,2.34-3.6,4-.79.86-1.68,1.8-2.69,2.77s-2.09,2.05-3.33,3.11a81.57,81.57,0,0,1-8.63,6.78A105.53,105.53,0,0,1,137.15,98c-4.13,2-8.58,4-13.23,5.84s-9.48,3.59-14.42,5.27c-2.47.84-5,1.69-7.46,2.5l-1.89.62-.47.15-.11,0-.25.07-.24.07-1,.26-3.82,1-3.82,1c-1.27.34-2.54.69-3.85,1l-7.74,1.78c-2.56.59-5.13,1-7.65,1.52-1.26.23-2.51.49-3.77.7l-3.73.57c-2.48.36-4.9.77-7.3,1l-3.55.39c-1.16.13-2.32.26-3.46.32-2.3.14-4.51.35-6.67.42s-4.24.13-6.24.14-3.92,0-5.75-.08-3.55-.19-5.17-.33-3.13-.26-4.53-.48-2.67-.36-3.82-.59-2.17-.39-3-.63-1.63-.39-2.23-.57a17.62,17.62,0,0,1-1.81-.58s.65.12,1.88.26,3,.27,5.33.38,5.09.07,8.28,0c1.6,0,3.3-.17,5.08-.26l5.62-.43c2-.19,4-.45,6.08-.68s4.27-.59,6.49-.89,4.5-.74,6.83-1.11,4.7-.85,7.1-1.32l3.64-.71c1.23-.24,2.45-.54,3.68-.8l3.72-.84c1.24-.27,2.51-.52,3.75-.85l7.52-1.86c1.26-.29,2.54-.64,3.81-1l3.82-1,3.82-1,1-.25.23-.06-.06,0,.06,0,.11,0,.47-.15,1.88-.6,7.46-2.37,7.32-2.37c2.41-.78,4.76-1.6,7.09-2.38,4.63-1.62,9.06-3.27,13.19-5s7.9-3.57,11.31-5.45c.85-.48,1.66-1,2.47-1.45l1.19-.71,1.13-.73,2.2-1.4,2-1.41c.64-.46,1.29-.89,1.88-1.34l1.72-1.31c1.12-.81,2.11-1.61,3-2.34,1.8-1.43,3.2-2.61,4.15-3.41Z"/>
      </g>
      <path class="cls-3" d="M98.61,109.68c-61.85,17.74-88.43,9.73-88.43,9.73l-1.75,4.47c-1.17,6.42,0,17.34,4.43,25.11-1,3.89.64,9.54,3.32,15H46.62L176.86,97.24s0-1.06-.05-2.73a67.29,67.29,0,0,0-5.21-6.65c-.38-12.73-3.73-14.6-3.73-14.6C149.4,92,136,97.7,98.61,109.68Z"/>
      <g class="cls-5">
        <path class="cls-7" d="M8.43,123.88c-1.17,6.42,0,17.34,4.43,25.11-.7,2.77-.08,6.42,1.3,10.27C33.94,151,66.21,137.5,92.23,126.62,11.28,150.5,8.43,123.88,8.43,123.88Z"/>
        <path class="cls-7" d="M156.86,97.24c-11,8.4,7.51.66,7.51.66l9.1-7.83-1.87-2.21c-.38-12.73-3.73-14.6-3.73-14.6-1.48,1.51-2.93,2.92-4.36,4.27h0S167.89,88.83,156.86,97.24Z"/>
      </g>
      <g class="cls-5">
        <path class="cls-7" d="M150.79,148.57c5.94,4,8.47,7.49,7.51,18.3s-11.93,13.94-11.93,13.94c11.2,2.09,14.09,1,14.09,1,6.31-2.77,16.57-21.45,16.4-28.83a19.94,19.94,0,0,0,1.8-1.93A103.17,103.17,0,0,0,150.79,148.57Z"/>
      </g>
      <g>
        <g>
          <path class="cls-11" d="M185,122.5c-.18-2.7-.45-5.18-.8-7.47-20.74,2.72-57.46,27.41-37.5,32.51,25.84,6.61,30.19,5.47,30.19,5.47C181.73,148.51,186.39,138.77,185,122.5Z"/>
          <g class="cls-9">
            <path class="cls-4" d="M183.4,141.74c-7.19,0-18.06-.83-28.61-5.4L153.64,139a73.94,73.94,0,0,0,28.72,5.67C182.73,143.74,183.08,142.77,183.4,141.74Z"/>
          </g>
          <g class="cls-5">
            <path class="cls-7" d="M185,122.5c-.18-2.7-.45-5.18-.8-7.47a38.16,38.16,0,0,0-3.95.73c.05.66.1,1.33.15,2,1.43,16.27-3.24,26-8.11,30.5,0,0-4.35,1.14-30.19-5.46-.41-.11-.79-.23-1.15-.35.05,2.25,1.77,4.05,5.75,5.07,25.84,6.61,30.19,5.47,30.19,5.47C181.73,148.51,186.39,138.77,185,122.5Z"/>
          </g>
        </g>
        <g class="cls-5">
          <path class="cls-7" d="M176.86,153c4.87-4.5,9.53-14.24,8.11-30.51-.18-2.7-.45-5.18-.8-7.47-.32,0-.64.08-1,.14l-16.85,21.61s6.68-2,10.08,5.35a10.07,10.07,0,0,1-1.39,10.94A7.74,7.74,0,0,0,176.86,153Z"/>
        </g>
      </g>
      <g class="cls-5">
        <path class="cls-6" d="M171.6,87.86l-.3.39c-.21.25-.53.61-.94,1.1-.87.92-2.14,2.28-3.92,3.85-.86.82-1.88,1.63-3,2.55l-1.73,1.41c-.6.48-1.26.93-1.92,1.42-1.34,1-2.73,2-4.27,3.08s-3.18,2.06-4.89,3.17c-.84.57-1.74,1.08-2.65,1.62l-2.78,1.64-2.89,1.67c-1,.57-2,1.07-3,1.62l-6.36,3.29c-2.18,1.09-4.46,2.08-6.76,3.16-4.58,2.19-9.45,4.11-14.38,6.1l-3.72,1.5-3.78,1.36-7.62,2.71c-1.28.44-2.55.91-3.83,1.32L89,132l-7.66,2.36-3.79,1.16c-1.26.4-2.53.7-3.78,1l-7.44,2-7.21,1.86c-1.17.31-2.34.58-3.5.83l-3.44.75c-4.52,1-8.8,1.88-12.76,2.69s-7.61,1.38-10.84,1.94-6.06,1-8.39,1.33-4.16.61-5.4.79l-1.92.26,1.85-.58c1.21-.37,3-.93,5.23-1.59s5-1.49,8.14-2.36l5-1.42,2.72-.74,2.83-.85c3.85-1.16,8-2.4,12.44-3.67,2.2-.66,4.5-1.23,6.79-2l7.06-2.18c4.78-1.48,9.77-2.88,14.75-4.58l7.54-2.45L91,125.37c1.26-.41,2.51-.88,3.77-1.32l7.54-2.63,3.76-1.3,3.69-1.4,7.3-2.75,1.8-.67c.59-.23,1.18-.48,1.76-.72l3.49-1.43c2.31-1,4.6-1.86,6.81-2.79l6.43-2.86c1-.47,2.09-.89,3.09-1.38l2.95-1.43,2.87-1.37c.93-.45,1.87-.87,2.74-1.35,1.76-.93,3.44-1.84,5.06-2.68s3.09-1.74,4.51-2.54c.7-.41,1.39-.78,2-1.18l1.85-1.17c1.19-.75,2.31-1.42,3.25-2.1s1.84-1.24,2.55-1.79,1.36-1,1.84-1.4l1.11-.92Z"/>
      </g>
      <g class="cls-5">
        <path class="cls-6" d="M98.61,166.87l1-.5c.65-.3,1.6-.8,2.81-1.36,2.42-1.18,5.88-2.82,10-4.74l14.18-6.53,8-3.67c2.7-1.27,5.45-2.54,8.18-3.86s5.46-2.61,8.12-3.93,5.28-2.64,7.8-3.94,4.92-2.59,7.2-3.84,4.4-2.47,6.35-3.63c1-.56,1.9-1.15,2.79-1.69l1.29-.79,1.2-.77,2.17-1.42,1.83-1.25c1.11-.75,1.94-1.39,2.53-1.81l.91-.64-.68.88-.83,1.05a15.73,15.73,0,0,1-1.17,1.38l-1.51,1.67c-.55.61-1.2,1.2-1.87,1.88s-1.41,1.35-2.2,2-1.63,1.46-2.53,2.19a114.76,114.76,0,0,1-13,9.19c-1.23.76-2.5,1.52-3.8,2.26l-1.95,1.12-2,1.08c-2.67,1.46-5.44,2.82-8.22,4.17-1.39.66-2.8,1.29-4.19,1.93s-2.81,1.22-4.2,1.82-2.79,1.17-4.17,1.7-2.75,1.09-4.11,1.58c-2.7,1-5.34,1.92-7.85,2.75s-4.9,1.55-7.12,2.18-4.27,1.18-6.09,1.62-3.42.8-4.74,1.09-2.37.46-3.08.6Z"/>
      </g>
      <g>
        <path class="cls-8" d="M171.6,87.86S142.65,121.74,12.86,149c-2.06,8.06,7.1,23.64,13.68,29.41,16,6.72,46.17-2.16,61.93-7.7l10.14-3.83S160.48,147.3,185,122.5C183.54,100.47,175.59,92.66,171.6,87.86Z"/>
        <g>
          <path class="cls-4" d="M176.49,94c-.67-1-1.33-1.86-2-2.67-4.48,11.32-25.29,22.41-76.25,41.34-41.49,15.41-71.92,21.05-85.18,23,.21.91.47,1.85.79,2.8,13.64-2,44.11-7.71,85.39-23C149.22,116.85,170.49,105.74,176.49,94Z"/>
          <path class="cls-4" d="M105.4,158.46c21.25-7.2,63.15-25.42,78.9-42.53-.18-1.26-.38-2.47-.61-3.62-13.53,16.87-58.25,36.32-79.25,43.43-44.73,16.37-71.83,17.52-82.92,17,.81,1.09,1.62,2.11,2.43,3l2,0C39.29,175.79,65.19,173.18,105.4,158.46Z"/>
        </g>
      </g>
      <g class="cls-5">
        <path class="cls-7" d="M26.54,178.4c16,6.72,46.17-2.16,61.93-7.7l10.14-3.83s9.27-2.93,22-8c-7.84,3-48.27,13.93-72.84,11.57-25-2.4-25.94-23.42-25.94-23.42l-9.14,2.51C11.23,157.76,20.12,172.77,26.54,178.4Z"/>
        <path class="cls-7" d="M154.72,143.44h0a154.15,154.15,0,0,0,24-15.35c2.22-1.92,4.3-3.85,6.22-5.73-1.07-16.15-5.65-24.63-9.58-29.89C175.38,92.48,185.25,124.09,154.72,143.44Z"/>
      </g>
      <path class="cls-12" d="M14.68,150.15l1.85-.51,5.23-1.41,18.66-5,12.45-3.37c2.22-.57,4.47-1.22,6.78-1.87s4.68-1.29,7.08-1.95c4.81-1.31,9.72-2.87,14.76-4.26,2.51-.72,5-1.55,7.53-2.32l3.79-1.19,1.9-.59,1-.3.23-.07.08,0,.12,0,.47-.17,3.77-1.32,1.89-.65c.62-.23,1.22-.47,1.83-.71,2.42-1,4.86-1.84,7.25-2.89s4.79-2,7.11-3.06l3.48-1.54,3.41-1.59,3.34-1.58,3.26-1.59,3.2-1.54,3.1-1.56,3-1.52,2.91-1.51q2.88-1.45,5.52-2.86c1.77-.92,3.46-1.83,5.06-2.69s3.14-1.66,4.56-2.44l7.38-4,6.42-3.56-1.54,1.14c-1,.73-2.5,1.82-4.43,3.15s-4.25,2.94-7,4.71-5.81,3.79-9.24,5.87c-1.7,1-3.49,2.13-5.35,3.23s-3.8,2.22-5.8,3.34l-3.05,1.72-3.15,1.71c-1.06.58-2.13,1.16-3.22,1.73L127,118.72l-3.39,1.71-3.48,1.66c-1.17.55-2.33,1.14-3.53,1.67l-3.62,1.59c-2.4,1.09-4.92,2.06-7.42,3.06-.63.24-1.26.5-1.88.73l-1.89.67L98,131.14l-.48.16-.28.1-.24.07-1,.29-1.92.58-3.83,1.16c-2.56.76-5.09,1.58-7.63,2.27s-5.06,1.37-7.56,2-5,1.33-7.39,1.9c-4.87,1.18-9.57,2.31-14.06,3.28s-8.72,1.89-12.66,2.65c-7.85,1.56-14.43,2.69-19,3.43S14.68,150.15,14.68,150.15Z"/>
      <path class="cls-12" d="M10.4,123.88s.65.09,1.86.2,3,.23,5.26.3l1.79.07h2c1.36,0,2.84,0,4.41,0s3.25-.11,5-.19,3.62-.22,5.55-.35c3.86-.31,8-.78,12.42-1.38,2.2-.25,4.43-.68,6.73-1s4.63-.83,7-1.28c1.18-.24,2.38-.44,3.58-.71l3.61-.83,3.65-.84c1.23-.29,2.44-.63,3.67-.94l3.7-1,1.86-.48,1.84-.55,7.39-2.2L106.47,108c4.84-1.58,9.63-3.09,14.2-4.69,2.29-.78,4.51-1.64,6.71-2.4s4.31-1.6,6.33-2.48a110.18,110.18,0,0,0,11.22-5.31,102.17,102.17,0,0,0,8.94-5.56c1.3-.89,2.5-1.75,3.62-2.54s2.14-1.53,3-2.2l4.29-3.09,1.53-1.09L165,79.91c-.9.82-2.21,2-3.91,3.57s-3.74,3.38-6.21,5.39c-.61.52-1.25,1-1.93,1.55s-1.35,1.07-2.07,1.61c-1.45,1.06-3,2.16-4.67,3.21l-1.25.81-1.32.78c-.89.51-1.78,1.08-2.72,1.57L138,99.91c-1,.51-2,1-3,1.46-2,1-4.17,1.87-6.33,2.84-1.09.46-2.2.9-3.32,1.34s-2.25.91-3.4,1.33c-4.58,1.72-9.32,3.47-14.19,5.09S98,115.2,93,116.77L85.46,119l-1.88.54-1.89.47-3.77.94c-1.26.3-2.5.64-3.75.9l-3.74.75-3.69.74c-1.23.24-2.45.41-3.67.62-2.42.38-4.8.82-7.15,1s-4.64.59-6.89.74c-4.49.42-8.74.6-12.67.65s-7.53-.06-10.71-.28c-1.59-.11-3.07-.2-4.44-.37l-2-.22-1.79-.24c-1.14-.15-2.14-.32-3-.48s-1.62-.32-2.21-.44C11,124.07,10.4,123.88,10.4,123.88Z"/>
      <path class="cls-12" d="M19.47,85.12l.27.28c.16.18.45.43.75.76.66.64,1.58,1.54,2.69,2.56.27.26.58.51.88.78s.59.56.93.82c.65.56,1.32,1.15,2,1.72s1.46,1.16,2.21,1.76S30.8,95,31.57,95.55s1.61,1.11,2.39,1.67,1.6,1,2.37,1.58,1.56,1,2.28,1.43,1.44.87,2.08,1.29,1.23.82,1.78,1.12,1,.64,1.39.89.69.48.9.62l.31.24h-.38c-.25,0-.63,0-1.09,0s-1-.06-1.69-.13a16.31,16.31,0,0,1-2.15-.38,23.93,23.93,0,0,1-2.51-.65c-.87-.3-1.78-.63-2.72-1s-1.84-.89-2.78-1.39S29.94,99.65,29,99.05s-1.73-1.31-2.5-2a24.27,24.27,0,0,1-2.19-2.24,22.84,22.84,0,0,1-1.79-2.31,21.3,21.3,0,0,1-1.36-2.24,19,19,0,0,1-.92-2c-.25-.61-.39-1.18-.53-1.63A9.12,9.12,0,0,1,19.47,85.12Z"/>
      <path class="cls-12" d="M171.62,165l-.34.12c-.23.07-.56.19-1,.29a24.56,24.56,0,0,1-3.51.64,32.73,32.73,0,0,1-5,.17c-.92,0-1.86-.11-2.81-.23s-1.92-.29-2.88-.46-1.91-.44-2.84-.71c-.46-.14-.92-.29-1.37-.45s-.89-.29-1.32-.49c-.85-.38-1.67-.73-2.42-1.14s-1.45-.83-2.07-1.24-1.15-.87-1.62-1.25a12.26,12.26,0,0,1-1.14-1.11c-.3-.31-.52-.59-.67-.76l-.22-.28.36.07c.22.06.57.11,1,.23s.89.26,1.47.36l1.87.45c.68.15,1.43.3,2.19.48s1.59.32,2.42.52l5.26,1.09c3.59.74,7.22,1.51,10,2.26,1.38.36,2.54.72,3.35,1,.41.13.74.25,1,.33Z"/>
      <g>
        <g>
          <path class="cls-13" d="M157.4,24.09c-2.4,1.22-5.07,1.34-7.22-.42-3-2.42-3.6-6.74-7-8.75a8.1,8.1,0,0,0-7.91-.26c-2.38,1.22-3.77,4.22-6.72,4.28-4.34.07-5.83-4.34-8-7.19A10.11,10.11,0,0,0,112.94,8c-2.78-.06-4.63,1.57-6.53,3.38-2.3,2.19-4.54,3.77-7.8,4.19-3.26-.42-5.5-2-7.81-4.19C88.91,9.57,87.06,7.94,84.28,8a10.1,10.1,0,0,0-7.61,3.75c-2.23,2.85-3.71,7.26-8,7.19-3-.06-4.34-3.06-6.73-4.28a8.09,8.09,0,0,0-7.9.26c-3.35,2-4,6.33-7,8.75-2.16,1.76-4.82,1.64-7.23.42C26.09,19.53,22.6,32.62,22.6,32.62L57,96.27l14.82,13.44,26.77,0,26.77,0L140.2,96.27l34.42-63.65S171.13,19.53,157.4,24.09Z"/>
          <path class="cls-14" d="M152.65,72.56a3.69,3.69,0,0,1-1.1-.63A12.51,12.51,0,0,1,149,68.41c-1.09-1.89-2.32-4-4.62-5.41a10.26,10.26,0,0,0-10-.33,13.05,13.05,0,0,0-2.94,2.26c-1.15,1.09-1.9,1.76-2.84,1.78-2,0-3.11-1.51-4.71-4-.5-.78-1-1.59-1.59-2.33A12.36,12.36,0,0,0,113,55.77h-.19c-3.7,0-6.11,2.3-7.88,4-2,1.9-3.77,3.18-6.31,3.57-2.54-.39-4.31-1.67-6.32-3.57-1.76-1.68-4.17-4-7.87-4h-.19A12.34,12.34,0,0,0,75,60.35c-.58.74-1.09,1.55-1.59,2.33-1.61,2.52-2.69,4.06-4.72,4-.93,0-1.69-.69-2.84-1.78a13.22,13.22,0,0,0-2.93-2.26,10.26,10.26,0,0,0-10,.33,13.72,13.72,0,0,0-4.63,5.41,12.49,12.49,0,0,1-2.58,3.52,3.69,3.69,0,0,1-1.1.63l.73,2,1,1.91a7.9,7.9,0,0,0,2.08-1.24A16.1,16.1,0,0,0,52,70.57c1-1.64,1.76-3.06,3.1-3.86a6,6,0,0,1,5.81-.19,9.42,9.42,0,0,1,1.93,1.55c1.37,1.3,3.08,2.91,5.74,3h.15c4.44,0,6.66-3.48,8.28-6,.47-.73.91-1.42,1.36-2a8,8,0,0,1,5.95-2.91c1.86,0,3.2,1.07,5,2.78,2.29,2.17,5,4.25,9,4.77l.27,0,.27,0c4.07-.52,6.74-2.6,9-4.77,1.8-1.71,3.1-2.83,5-2.78A8,8,0,0,1,118.84,63a23.1,23.1,0,0,1,1.36,2c1.64,2.57,3.9,6.13,8.44,6,2.66,0,4.37-1.66,5.74-3a9.16,9.16,0,0,1,1.93-1.55,6,6,0,0,1,5.81.19c1.33.8,2.15,2.22,3.1,3.86a16.1,16.1,0,0,0,3.59,4.7,7.9,7.9,0,0,0,2.08,1.24l1-1.91Z"/>
          <path class="cls-14" d="M156.72,40.71l-.3.12a4.29,4.29,0,0,1-4.87-.16A12.51,12.51,0,0,1,149,37.15c-1.09-1.89-2.32-4-4.62-5.41a10.26,10.26,0,0,0-10-.33,12.8,12.8,0,0,0-2.94,2.27c-1.15,1.08-1.9,1.75-2.84,1.77-2,0-3.11-1.51-4.71-4-.5-.78-1-1.58-1.59-2.33A12.36,12.36,0,0,0,113,24.51h-.19c-3.7,0-6.11,2.3-7.88,4-2,1.9-3.77,3.18-6.31,3.57-2.54-.39-4.31-1.67-6.32-3.57-1.76-1.68-4.17-4-7.87-4h-.19A12.34,12.34,0,0,0,75,29.09c-.58.75-1.09,1.55-1.59,2.33-1.61,2.52-2.69,4.07-4.72,4-.93,0-1.69-.69-2.84-1.77a13,13,0,0,0-2.93-2.27,10.26,10.26,0,0,0-10,.33,13.72,13.72,0,0,0-4.63,5.41,12.49,12.49,0,0,1-2.58,3.52,4.29,4.29,0,0,1-4.87.16l-.31-.12c-5-1.67-9.42-1.4-13.09.79l1,1.9,1.12,1.85c2.52-1.53,5.7-1.7,9.44-.49a9.83,9.83,0,0,0,4.35,1.08A7.91,7.91,0,0,0,48.41,44,16.27,16.27,0,0,0,52,39.31c1-1.64,1.76-3.06,3.1-3.86a6,6,0,0,1,5.81-.19,9.42,9.42,0,0,1,1.93,1.55c1.37,1.3,3.08,2.91,5.74,3h.15c4.44,0,6.66-3.47,8.28-6,.47-.73.91-1.42,1.36-2a8,8,0,0,1,5.95-2.91c1.86-.05,3.2,1.07,5,2.78,2.29,2.17,5,4.25,9,4.77l.27,0,.27,0c4.07-.52,6.74-2.6,9-4.77,1.8-1.71,3.1-2.83,5-2.78a8,8,0,0,1,5.94,2.91,23.1,23.1,0,0,1,1.36,2c1.64,2.57,3.9,6.12,8.44,6,2.66-.05,4.37-1.66,5.74-3a9.16,9.16,0,0,1,1.93-1.55,6,6,0,0,1,5.81.19c1.33.8,2.15,2.22,3.1,3.86A16.27,16.27,0,0,0,148.81,44c2.61,2.14,6,2.41,9.42.74,3.74-1.21,6.91-1,9.43.49l1.13-1.84,1-1.91C166.15,39.31,161.74,39,156.72,40.71Z"/>
          <g>
            <g>
              <g>
                <g class="cls-5">
                  <path class="cls-15" d="M50.67,18.63c-1.07,1.79-2,3.7-3.63,5-2.16,1.76-4.82,1.64-7.23.42A18.48,18.48,0,0,0,36,23.23C41.46,35.47,68.73,96.77,77,109.71l9.86,0L85.74,107C76.72,85.05,57.62,36.39,50.67,18.63Z"/>
                </g>
                <g class="cls-5">
                  <path class="cls-15" d="M76.74,11.66l-.07.09c-2.23,2.85-3.71,7.26-8,7.19-3-.06-4.34-3.06-6.73-4.28l-.22-.1,29.85,95.13h.14l4.72-.82Z"/>
                </g>
                <g class="cls-5">
                  <path class="cls-15" d="M22.6,32.62,57,96.27l5.14,4.66L25.08,27.8A15.52,15.52,0,0,0,22.6,32.62Z"/>
                </g>
              </g>
              <g class="cls-5">
                <path class="cls-15" d="M48.12,22.59A8.48,8.48,0,0,1,47,23.67,5.76,5.76,0,0,1,42.77,25l37.95,83.9Z"/>
                <path class="cls-15" d="M73.64,16.18a6,6,0,0,1-5,2.76L92.73,104Z"/>
              </g>
            </g>
            <g>
              <g class="cls-5">
                <path class="cls-15" d="M146.55,18.63c1.07,1.79,2,3.7,3.63,5,2.15,1.76,4.82,1.64,7.22.42a18.72,18.72,0,0,1,3.78-.86c-5.42,12.24-32.69,73.54-40.93,86.48l-9.86,0,1.09-2.65C120.5,85.05,139.59,36.39,146.55,18.63Z"/>
              </g>
              <g class="cls-5">
                <path class="cls-15" d="M120.47,11.66l.08.09c2.22,2.85,3.71,7.26,8,7.19,3-.06,4.34-3.06,6.72-4.28l.23-.1-29.86,95.13h-.13l-4.72-.82Z"/>
              </g>
              <g>
                <g class="cls-5">
                  <path class="cls-15" d="M89.68,10.35l6.7,98.52h2.23V15.57c-3.26-.42-5.5-2-7.81-4.19C90.43,11,90.06,10.68,89.68,10.35Z"/>
                </g>
                <g class="cls-5">
                  <path class="cls-15" d="M106.41,11.38c-2.3,2.19-4.54,3.77-7.8,4.19v93.3h2.23l6.69-98.52C107.16,10.68,106.79,11,106.41,11.38Z"/>
                </g>
              </g>
              <g class="cls-5">
                <path class="cls-15" d="M174.62,32.62,140.2,96.27l-5.14,4.66L172.14,27.8A15.52,15.52,0,0,1,174.62,32.62Z"/>
              </g>
            </g>
            <g class="cls-5">
              <path class="cls-15" d="M149.09,22.59a8.56,8.56,0,0,0,1.09,1.08,5.75,5.75,0,0,0,4.26,1.3l-37.95,83.9Z"/>
              <path class="cls-15" d="M123.58,16.18a6,6,0,0,0,5,2.76L104.49,104Z"/>
              <g>
                <path class="cls-15" d="M98.61,100.13V15.57a11.29,11.29,0,0,1-4-1.28Z"/>
                <path class="cls-15" d="M98.61,15.57v84.56l4-85.84A11.29,11.29,0,0,1,98.61,15.57Z"/>
              </g>
            </g>
          </g>
          <g class="cls-5">
            <path class="cls-15" d="M54.7,92,57,96.27l14.82,13.44,26.77,0,26.77,0L140.2,96.27,144.11,89c-15.76,6.18-29.82,11.09-45.5,11.09C82.6,100.13,64.16,95.09,54.7,92Z"/>
          </g>
        </g>
        <g class="cls-9">
          <path class="cls-16" d="M32,29.52s.56.8,1.48,2.24,2.2,3.49,3.66,6c3,5,6.57,11.83,10,18.78s6.47,14,8.56,19.44c1.07,2.7,1.89,5,2.44,6.6s.84,2.54.84,2.54-.56-.8-1.48-2.23-2.21-3.49-3.66-6c-3-5-6.58-11.83-9.95-18.78s-6.46-14-8.56-19.45c-1.07-2.7-1.89-5-2.44-6.59S32,29.52,32,29.52Z"/>
        </g>
        <g class="cls-9">
          <path class="cls-16" d="M56.48,18.21s.15.19.41.57.65.92,1.1,1.63c.91,1.42,2.14,3.48,3.47,6s2.76,5.49,4.15,8.72c.35.81.69,1.64,1,2.48s.69,1.68,1,2.55c.67,1.72,1.28,3.48,1.91,5.25s1.18,3.55,1.7,5.32c.27.88.53,1.76.76,2.64s.49,1.73.7,2.58c.88,3.41,1.57,6.64,2.05,9.44s.76,5.18.9,6.86c.07.84.09,1.52.12,2s0,.7,0,.7-.15-.19-.41-.57-.65-.92-1.1-1.63c-.92-1.42-2.16-3.47-3.49-6S68,61.24,66.66,58c-.36-.8-.68-1.63-1-2.47s-.69-1.69-1-2.55c-.67-1.72-1.28-3.49-1.9-5.26S61.55,44.17,61,42.4c-.27-.88-.52-1.76-.76-2.63s-.49-1.74-.69-2.59c-.89-3.41-1.57-6.64-2-9.44s-.76-5.18-.91-6.86c-.07-.84-.09-1.51-.12-2S56.48,18.21,56.48,18.21Z"/>
        </g>
        <g class="cls-9">
          <path class="cls-16" d="M83.6,12.45s.21.64.51,1.77.73,2.74,1.15,4.69c.89,3.9,1.8,9.13,2.48,14.39S88.87,43.85,89,47.84c.08,2,.09,3.66.07,4.83s0,1.85,0,1.85-.21-.64-.51-1.77-.73-2.75-1.15-4.7c-.9-3.89-1.8-9.12-2.48-14.38s-1.12-10.55-1.25-14.55c-.09-2-.09-3.66-.08-4.83S83.6,12.45,83.6,12.45Z"/>
          <path class="cls-16" d="M113.63,12.45s0,1.05-.09,2.88-.22,4.44-.46,7.56c-.11,1.57-.23,3.26-.41,5.05s-.32,3.67-.54,5.61-.4,4-.66,6-.51,4.11-.76,6.18-.58,4.13-.86,6.16-.62,4-.91,6-.62,3.79-.92,5.56-.61,3.44-.91,5c-.57,3.08-1.12,5.64-1.52,7.43s-.65,2.8-.65,2.8,0-1,.08-2.88.21-4.44.45-7.57c.12-1.56.24-3.25.41-5s.33-3.67.55-5.61.39-4,.66-6,.51-4.11.76-6.18.58-4.13.86-6.16.62-4,.91-6,.62-3.79.93-5.56.61-3.44.9-5C112,19.6,112.57,17,113,15.25S113.63,12.45,113.63,12.45Z"/>
          <path class="cls-16" d="M140.91,20.13s-.16.75-.49,2.05-.83,3.14-1.5,5.32c-.33,1.1-.69,2.28-1.11,3.52s-.83,2.55-1.3,3.89c-.94,2.69-2,5.54-3.09,8.37-.56,1.41-1.12,2.83-1.69,4.21s-1.15,2.74-1.71,4-1.14,2.56-1.68,3.75-1.07,2.31-1.57,3.34c-1,2.06-1.88,3.75-2.51,4.93s-1,1.84-1,1.84.16-.76.5-2,.82-3.14,1.49-5.33c.33-1.09.69-2.27,1.11-3.51s.83-2.55,1.31-3.9,1-2.73,1.48-4.13,1.07-2.82,1.61-4.24c1.11-2.82,2.27-5.63,3.4-8.24.56-1.31,1.14-2.56,1.68-3.75s1.08-2.31,1.57-3.34c1-2.06,1.88-3.75,2.51-4.93S140.91,20.13,140.91,20.13Z"/>
          <path class="cls-16" d="M163.41,30.59s-.32.94-.93,2.58-1.51,4-2.65,6.72c-.57,1.38-1.19,2.88-1.88,4.44s-1.38,3.23-2.16,4.93-1.54,3.46-2.39,5.22l-2.54,5.37c-.88,1.78-1.76,3.56-2.62,5.32s-1.77,3.46-2.62,5.12-1.7,3.25-2.51,4.75-1.59,2.93-2.32,4.23c-1.45,2.61-2.72,4.75-3.62,6.25s-1.45,2.34-1.45,2.34.32-1,.93-2.59,1.51-4,2.65-6.72c.57-1.38,1.19-2.88,1.87-4.44s1.39-3.23,2.17-4.93,1.54-3.46,2.39-5.22l2.54-5.37,2.63-5.32c.85-1.75,1.76-3.45,2.61-5.11s1.71-3.25,2.51-4.76,1.59-2.92,2.32-4.23c1.45-2.61,2.72-4.75,3.62-6.25S163.41,30.59,163.41,30.59Z"/>
        </g>
      </g>
      <path class="cls-4" d="M169.78,76.24C152.43,96.93,120.69,107.59,92.05,116c-49.78,13.46-74.46,11.43-83.85,9.5-.1.92-.17,1.91-.19,2.95a84.1,84.1,0,0,0,16.53,1.4c14.13,0,36-2.34,68.29-11.08,28.41-8.31,59.81-18.85,77.9-39.19A21.52,21.52,0,0,0,169.78,76.24Z"/>
    </g>
  </g>
</svg>
