<svg id="Layer_1" data-name="Layer 1" xmlns="http://www.w3.org/2000/svg" width="189.73" height="195.84" viewBox="0 0 189.73 195.84">
  <defs>
    <style>
      .cls-1 {
        fill: #353535;
        opacity: 0.5;
      }

      .cls-2 {
        fill: #fff;
      }

      .cls-3 {
        fill: #7d4828;
      }

      .cls-4 {
        fill: #190c0e;
      }

      .cls-5 {
        fill: #5c3223;
      }

      .cls-6 {
        fill: #7b6046;
      }

      .cls-7 {
        fill: #a17153;
      }

      .cls-8 {
        fill: #5b3320;
      }

      .cls-9 {
        fill: #653d1f;
      }

      .cls-10 {
        fill: #6c311d;
      }
    </style>
  </defs>
  <g>
    <path class="cls-1" d="M100.22,195.84a5.39,5.39,0,0,1-5-3.39l-.06-.15c-3.48-9.42-4.14-19-4.77-28.16A138,138,0,0,0,88.49,147c-.83-4.27-1.9-8.27-2.94-12.14a110.81,110.81,0,0,1-3.64-17.21c-11.74,14.8-26.11,29.5-43.59,44.6a5.37,5.37,0,0,1-8.27-1,4.83,4.83,0,0,1-.46-.87,5.53,5.53,0,0,1,.62-5.32,5.3,5.3,0,0,1,.42-.52c3.07-3.29,6.34-6.6,9.5-9.8,7.48-7.56,15.21-15.39,21-23.76,1.68-2.41,3.28-4.88,4.83-7.28s3-4.6,4.58-6.91c-3.86.38-7.72.5-11.53.61-3.54.11-6.88.21-10.17.51a98.32,98.32,0,0,0-15.6,3.16c-6.21,1.6-12.64,3.26-19.37,3.55l-.31,0a5.34,5.34,0,0,1-4.16-2,5.47,5.47,0,0,1-1.2-4.72,5.41,5.41,0,0,1,4.66-4.22l.16,0c6.1-.52,11.85-2.61,17.93-4.82,3-1.08,6-2.19,9.2-3.13C26.64,92.52,15.87,88.64,6,83.44a5.17,5.17,0,0,1-1.51-1.2,5.67,5.67,0,0,1-.89-1.41,5.22,5.22,0,0,1-.48-2.24,5.57,5.57,0,0,1,1.49-3.78,5.42,5.42,0,0,1,6-1.25c5.7,2.29,12.08,3.52,18.84,4.81,3.69.71,7.51,1.44,11.21,2.37C48.86,82.8,56.92,84.68,65,85.38a13,13,0,0,1-.61-2.44,5.47,5.47,0,0,1,7.49-5.86,15.6,15.6,0,0,1,3.21-2.67c.29-.19.74-.54,1.18-.88s.81-.64,1.27-1l-.23-.42c-.08-.17-.16-.33-.23-.5a5.48,5.48,0,0,1,5.08-7.51,5.64,5.64,0,0,1,1.73.28,13.12,13.12,0,0,1,2.22,1c.6-8.12,0-16.36-.72-24.73-.35-3.84-.47-7.8-.59-11.63-.2-6.83-.4-13.28-1.78-19.26a5.36,5.36,0,0,1,1-4.56A5.5,5.5,0,0,1,88.27,3.1h.21l.41,0A5.13,5.13,0,0,1,92.48,5l.13.15a5,5,0,0,1,.92,1.64c3.52,10.46,5.71,22,6.78,35.73,1.43-3,3-5.84,4.56-8.64,3.12-5.61,6.06-10.91,7.56-16.8a5.39,5.39,0,0,1,5.26-4.18,5.53,5.53,0,0,1,4.43,2.24A5.29,5.29,0,0,1,123,19.8c-1.36,6.51-4,12.5-6.49,18.29A96.38,96.38,0,0,0,111,53c-.82,3.21-1.45,6.49-2.11,10-.72,3.73-1.45,7.52-2.43,11.27,2.75-1.32,5.5-2.53,8.21-3.72,2.41-1.06,4.89-2.15,7.33-3.3,9.05-4.32,18-10.74,26.64-16.94,3.67-2.63,7.47-5.36,11.18-7.85a5.49,5.49,0,0,1,3.17-1A5.46,5.46,0,0,1,166.51,51c-17.77,15-34.61,26.88-51.12,36.14a109.1,109.1,0,0,1,16.25,6.25c3.69,1.65,7.5,3.36,11.66,4.87a143.73,143.73,0,0,0,16.54,4.54c9,2.08,18.31,4.24,27,9.13a5.38,5.38,0,0,1,2.71,6,5.53,5.53,0,0,1-1,2.14,5.38,5.38,0,0,1-7,2.07c-8.4-4-17.39-5.69-26.9-7.45-3-.55-6.07-1.13-9.14-1.78A56.09,56.09,0,0,1,135,109.36l-1-.41-1-.41-.15-.05-3-1.31c-1.28-.57-2.58-1.14-3.88-1.69,3.71,4.72,6.81,9.81,7.29,15.4a27.71,27.71,0,0,1-1.87,12.63c.78,2,1.69,4.09,2.76,6.43l.09.21a5.44,5.44,0,0,1-1.52,6.19l-.09.07a5.41,5.41,0,0,1-3.5,1.29,5.33,5.33,0,0,1-3.13-1l-.2-.15c-2-1.56-4.18-3.16-6.65-4.87h-.38c-7.63,0-15.4-5.28-20.21-9.52l1,3.73a7.92,7.92,0,0,1,.25.91l.14.5c.06.22.11.45.17.67s.05.22.08.33.2.75.27,1c.14.51.27,1,.38,1.52a58.63,58.63,0,0,1,1.75,10.74c.15,3,.22,6.06.3,9,.24,9.77.48,19,3.13,28l.06.22a5.38,5.38,0,0,1-1,4.62,5.44,5.44,0,0,1-2,1.58A5.54,5.54,0,0,1,100.22,195.84Z"/>
    <path class="cls-2" d="M97.12,192.74a5.39,5.39,0,0,1-5-3.39L92,189.2c-3.48-9.42-4.14-18.95-4.77-28.16a138,138,0,0,0-1.88-17.1c-.83-4.27-1.9-8.27-2.94-12.14a110.81,110.81,0,0,1-3.64-17.21c-11.74,14.8-26.11,29.5-43.59,44.6a5.37,5.37,0,0,1-8.27-1,4.83,4.83,0,0,1-.46-.87,5.53,5.53,0,0,1,.62-5.32,5.3,5.3,0,0,1,.42-.52c3.07-3.29,6.34-6.6,9.5-9.8,7.48-7.56,15.21-15.39,21-23.76,1.68-2.41,3.28-4.88,4.83-7.28s3-4.6,4.58-6.91c-3.86.38-7.72.5-11.53.61-3.54.11-6.88.21-10.17.51A98.32,98.32,0,0,0,30.19,108c-6.21,1.6-12.64,3.26-19.37,3.55h-.31a5.33,5.33,0,0,1-4.16-2,5.47,5.47,0,0,1-1.2-4.72,5.41,5.41,0,0,1,4.66-4.22l.16,0c6.1-.52,11.85-2.61,17.93-4.82,3-1.08,6-2.19,9.2-3.13C23.54,89.42,12.77,85.54,2.88,80.34a5.17,5.17,0,0,1-1.51-1.2,5.67,5.67,0,0,1-.89-1.41A5.22,5.22,0,0,1,0,75.49a5.57,5.57,0,0,1,1.49-3.78,5.37,5.37,0,0,1,6-1.25c5.7,2.29,12.08,3.52,18.84,4.81,3.69.71,7.51,1.44,11.21,2.37,8.18,2.06,16.24,3.94,24.34,4.64a13,13,0,0,1-.61-2.44A5.47,5.47,0,0,1,68.8,74,15.6,15.6,0,0,1,72,71.31c.29-.19.74-.54,1.18-.88s.81-.64,1.27-1L74.23,69c-.08-.17-.16-.33-.23-.5A5.48,5.48,0,0,1,79.08,61a5.64,5.64,0,0,1,1.73.28,13.12,13.12,0,0,1,2.22.95c.6-8.12,0-16.36-.72-24.73-.35-3.85-.47-7.8-.59-11.63-.2-6.83-.4-13.28-1.78-19.26a5.36,5.36,0,0,1,1-4.56A5.5,5.5,0,0,1,85.17,0h.21l.41,0a5.13,5.13,0,0,1,3.59,1.85l.13.15a5,5,0,0,1,.92,1.64c3.52,10.46,5.71,22,6.78,35.73,1.43-3,3-5.84,4.56-8.64,3.12-5.61,6.06-10.91,7.56-16.8a5.39,5.39,0,0,1,5.26-4.18A5.53,5.53,0,0,1,119,12a5.29,5.29,0,0,1,.91,4.69c-1.36,6.51-4,12.5-6.49,18.29a96.38,96.38,0,0,0-5.57,14.92c-.82,3.21-1.45,6.49-2.11,10-.72,3.73-1.45,7.52-2.43,11.27,2.75-1.32,5.5-2.53,8.21-3.72,2.41-1.06,4.89-2.15,7.33-3.3,9-4.32,18-10.74,26.64-16.94,3.67-2.63,7.47-5.36,11.18-7.85a5.49,5.49,0,0,1,3.17-1,5.46,5.46,0,0,1,3.55,9.61c-17.77,15-34.61,26.88-51.12,36.14a109.1,109.1,0,0,1,16.25,6.25c3.69,1.65,7.5,3.36,11.66,4.87a143.18,143.18,0,0,0,16.54,4.54c9,2.08,18.31,4.24,27,9.13a5.38,5.38,0,0,1,2.71,6,5.53,5.53,0,0,1-1,2.14,5.38,5.38,0,0,1-7,2.07c-8.4-4-17.39-5.69-26.9-7.45-3-.55-6.07-1.13-9.14-1.78a56.09,56.09,0,0,1-10.58-3.51l-1-.41-1-.41-.15,0-3-1.31c-1.28-.57-2.58-1.14-3.88-1.69,3.71,4.72,6.81,9.81,7.29,15.4a27.71,27.71,0,0,1-1.87,12.63c.78,2,1.69,4.09,2.76,6.43l.09.21a5.44,5.44,0,0,1-1.52,6.19l-.09.07a5.41,5.41,0,0,1-3.5,1.29,5.33,5.33,0,0,1-3.13-1l-.2-.15c-2-1.56-4.18-3.16-6.65-4.87h-.38c-7.63,0-15.4-5.29-20.21-9.52l1,3.73a7.92,7.92,0,0,1,.25.91l.14.5c.06.22.11.45.17.67s0,.22.08.33.2.75.27,1c.14.51.27,1,.38,1.52a58.63,58.63,0,0,1,1.75,10.74c.15,3,.22,6.06.3,9,.24,9.77.48,19,3.13,28l.06.22a5.38,5.38,0,0,1-1,4.62,5.44,5.44,0,0,1-2,1.58A5.54,5.54,0,0,1,97.12,192.74Z"/>
    <g>
      <path d="M95.05,91.68a4.88,4.88,0,0,1,.53-.15.3.3,0,0,1,0-.16c1.49-4.38.14-7.55-3.31-10.24-1.66-1.3-3.81-1.77-5.48-3a34.87,34.87,0,0,1-4.56-4c1.88,2.92,3.45,6,5.82,8.6C90.68,85.56,93.38,88.13,95.05,91.68Zm1.67-5.35c0,.39,0,.71,0,1a.13.13,0,0,1,.16,0c16.54-.34,26.46,7.22,41.53,12.7,14.25,5.17,29.49,5.84,42.88,13.35.34.17,0,.65-.31.47h0c.26.18.11.66-.23.5-11.8-5.66-24.5-6.93-37.19-9.62a52,52,0,0,1-9.69-3.24,38.24,38.24,0,0,0,4.2,1.39c14.39,3.8,29,4.39,42.62,10.81-13.35-7.35-28.29-8-42.41-13.1s-25.64-13-41.39-12.72c-.05,0-.08,0-.13,0a10,10,0,0,1-.55,3.48,11.86,11.86,0,0,1,8.43,1.1c9.93-1.49,18.25,4.38,27.16,8.23-8.89-3.82-18.33-8.48-26.2-7.75a37.5,37.5,0,0,1,10.83,9.81c3.52,4.13,8.08,9.83,8.58,15.54.27,3.32-.2,8.65-2.41,11.84l0,.06c1.09,3,2.35,5.93,3.69,8.86a.3.3,0,0,1-.08.32l0,0,0,0a.24.24,0,0,1-.33,0c-2.73-2.14-5.55-4.15-8.4-6.08l0,0c-7.62,1.37-17.92-6.77-21.9-11.37a36.05,36.05,0,0,1-7.19-12.49c-1.75,7,.83,16.11,3.12,24.86-2.46-8.6-6.12-17.19-3.48-25.81a.05.05,0,0,1,.06,0,16.29,16.29,0,0,1,0-8.57,10.74,10.74,0,0,1-3,0,.14.14,0,0,1,0,.11c-2.81,15.56,3.14,28.12,6,42.88s1.11,29.63,6.26,44c-4.19-14.46-2.47-29-4-43.8a38.09,38.09,0,0,0-.67-4.15,55.81,55.81,0,0,1,1.63,9.87c.63,12.92-.06,25.66,3.63,38.24.08.33-.41.4-.55.11,0,0,0,0,0,.09.14.33-.37.56-.5.23C91.55,173,93.35,157.82,90.47,143c-3-15.64-8.93-26.85-6-43a.33.33,0,0,1,.12-.16,6.17,6.17,0,0,1-1-.21s0,0,0,0C69,120.56,51,138.79,31.68,155.42a.22.22,0,0,1-.38,0l0,0a.36.36,0,0,1,0-.37c10.25-11,22.38-21.76,31-34.14,5.87-8.42,10.31-16.83,17.57-24.33a4.05,4.05,0,0,1-.44-.52l0,0c-10.8,3.88-22.82,2.69-34.1,3.72-11.85,1.06-23,6.19-34.77,6.7a.16.16,0,0,1-.2-.13c-.21-.12-.21-.48.06-.51,11.93-1,22.16-7.24,33.75-9.55,11.1-2.18,22.49-.89,33.5-4,0,0,0,0,.08,0-.18-.5-.39-1-.56-1.48-10.53,3.45-21.28.62-31.81-1.6-14-2.9-27.44-6.79-40.09-13.43,0-.06-.07-.09-.07-.14l0,0s0,0,0-.08c0-.2.11-.4.35-.3,9.64,3.88,20.7,4.89,30.8,7.43,13.1,3.29,25.65,6.1,39.18,4.71,0-.11-.12-.2-.17-.31l0,0c-3.92-1.42-8.23-3.52-8.88-8a.3.3,0,0,1,.46-.29,8.66,8.66,0,0,1,1.58,1.26c1.51,1.48,2.4,2.52,4.34,3-.26-.38-.51-.67-.73-1-1.95-2.46.65-5.08,2.7-6.38,1.77-1.1,4-3.58,6.27-3.54a.29.29,0,0,1,.21.13c.25.29.52.55.83.85-.17-2-1.07-3-2.28-4.74a16.71,16.71,0,0,1-1-1.76.3.3,0,0,1,.35-.4c4.34,1.37,5.74,6,6.53,10a.09.09,0,0,1,0,.08.72.72,0,0,0,.25.19c3.51-13.09,2.74-26,1.56-39.4C86.52,26.73,87.3,15.57,85,5.49a.26.26,0,0,1,.35-.3s0,0,.08,0l0,0,.1.11c4.57,13.54,6.31,27.48,7,41.68C93,57.77,94.12,68.86,89,78.68l1.4.76a0,0,0,0,1,0-.06C95.14,69,95.67,57.54,99.61,46.9c4.1-11.08,11.82-20.17,14.75-31.76,0-.3.4-.24.51,0s.13.14.07.25c-2.33,11.52-9.18,21.74-12.08,33.3-2.8,11-3.54,23-9,33l0,0c.2.18.26.38.44.53,8.47-5.92,17.56-9.1,26.8-13.46,13.49-6.44,26.23-17,38.6-25.24a.23.23,0,0,1,.37,0,.26.26,0,0,1,0,.41C140.58,60.38,119.75,75.29,96.72,86.33Zm28.73,52c-1.18-2.56-2.28-5.14-3.26-7.77a6,6,0,0,1-.83.91,8.21,8.21,0,0,1-3.14,1.68C120.66,134.83,123.07,136.54,125.45,138.33ZM121,131c4-3.24,3.66-13,2.1-17a39.27,39.27,0,0,0-7.12-11c-5.38-7-18.45-18.22-25.54-6.39-5.29,8.82-.45,18,5.53,24.86C100.53,126.84,113.74,137,121,131ZM36.26,150.61c8.69-7.72,17.06-15.75,25-24.29A248.36,248.36,0,0,0,83,99.26,8.51,8.51,0,0,1,80.26,97c-8.47,8.73-13.24,19-20.71,28.36C52.5,134.2,44.21,142.37,36.26,150.61ZM96.49,85.83c21-10.13,40.19-23.43,58.2-38.19-9.47,6.57-18.87,13.39-28.76,19.11-10.34,6-21.32,9-31.28,15.92A8.7,8.7,0,0,1,96.49,85.83ZM88.18,99.29a11.23,11.23,0,0,1,.48-1.15C80,96.61,78.79,86.46,72.58,81.76A39.81,39.81,0,0,1,77,88.48c.93,1.87,1.06,4,2.1,5.89C81.13,98,83.91,99.88,88.18,99.29Zm.73-1.67a11.39,11.39,0,0,1,1.72-2.52c-3.33-2.14-5.46-5.24-8-8.21C79.67,83.6,76.65,80.4,73.86,77a4.16,4.16,0,0,0-1.12,1.1,4.8,4.8,0,0,0-.54,2.72C79.11,85.23,79.84,96.16,88.91,97.62Zm2.08-3,0,0c.15-.18.27-.34.45-.54l.11-.1c-6.65-5-9.21-13.39-15.73-18.27l-.08-.09-.88.61c-.2.12-.35.24-.55.36,2.37,3,4.94,5.73,7.48,8.54C84.76,88.45,87.23,92.22,91,94.64Zm1-1a12.24,12.24,0,0,1,2.5-1.73c-1.81-3.88-4.86-6.4-7.57-9.57C84.5,79.48,83,76,80.79,72.9c0,0,0-.08,0-.11-1.61.11-3.25,1.66-4.49,2.57C82.78,80.29,85.28,88.71,92,93.66Zm-12.88,1.8a13.37,13.37,0,0,1-1.25-2.7.31.31,0,0,1-.14.07c-11,3-22.37,1.74-33.5,4-8.81,1.74-16.71,5.67-25.22,8,8.73-1.67,17.3-4.81,26.2-5.62C56.46,98.07,68.37,99.32,79.14,95.46Zm11.74-15.8a14.05,14.05,0,0,1,2.47,1.66c5.49-10,6.16-21.93,9-32.85,2.21-8.66,6.67-16.68,9.71-25-3.59,8-8.74,15.25-11.88,23.65C96.2,57.75,95.7,69.18,91,79.59ZM77,90.27s0-.08,0-.11a19.4,19.4,0,0,0-1.15-2.29C65,89,54.46,87.67,43.9,85.12c-10.88-2.57-22.64-4-33.42-7.5A143.43,143.43,0,0,0,38,87C50.06,89.87,64.67,94.34,77,90.27ZM88.44,78.33a.14.14,0,0,1,.1.06c6-11.51,3.88-26.66,2.94-39a145.74,145.74,0,0,0-4.91-28.61c1.71,11.15,1.34,23.07,2.16,34.17.77,10.85.5,21.43-2.34,31.94A22.56,22.56,0,0,0,88.44,78.33Zm-13.54,8c-.55-.88-1.1-1.77-1.64-2.57a6.38,6.38,0,0,1-3.34-1.27c-1-.84-1.75-1.82-2.72-2.65C68.18,83.26,71.64,85.08,74.9,86.31Zm7.81-12.58a27.47,27.47,0,0,0,2.27,2c-.7-3.41-1.92-7.14-5.22-8.65.67,1.08,1.55,2,2.22,3.07A6.71,6.71,0,0,1,82.71,73.73Z"/>
      <path class="cls-3" d="M93.33,143c1.48,14.81-.24,29.34,4,43.8-5.15-14.35-3.39-29.25-6.26-44S82.23,115.52,85,100a.14.14,0,0,0,0-.11,10.74,10.74,0,0,0,3,0,16.29,16.29,0,0,0,0,8.57.05.05,0,0,0-.06,0c-2.64,8.62,1,17.21,3.48,25.81a3.62,3.62,0,0,1,.17.61c.06.25.13.44.19.69s.18.75.29,1.11c.19.74.4,1.47.56,2.18A38.09,38.09,0,0,1,93.33,143Z"/>
      <path class="cls-3" d="M180.67,113.68c-13.61-6.42-28.23-7-42.62-10.81a38.24,38.24,0,0,1-4.2-1.39l-2.07-.84c-8.91-3.85-17.23-9.72-27.16-8.23a11.86,11.86,0,0,0-8.43-1.1,10,10,0,0,0,.55-3.48c.05,0,.08,0,.13,0,15.75-.26,27.24,7.56,41.39,12.72S167.32,106.33,180.67,113.68Z"/>
      <path class="cls-4" d="M122.19,130.56c1,2.63,2.08,5.21,3.26,7.77-2.38-1.79-4.79-3.5-7.23-5.18a8.21,8.21,0,0,0,3.14-1.68A6,6,0,0,0,122.19,130.56Z"/>
      <path class="cls-5" d="M123.09,114.07c1.56,4,1.87,13.73-2.1,17-7.25,5.93-20.46-4.2-25-9.5-6-6.9-10.82-16-5.53-24.86,7.09-11.83,20.16-.62,25.54,6.39A39.27,39.27,0,0,1,123.09,114.07Z"/>
      <path class="cls-6" d="M61.21,126.32c-7.89,8.54-16.26,16.57-25,24.29,8-8.24,16.24-16.41,23.29-25.29C67,116,71.79,105.69,80.26,97A8.51,8.51,0,0,0,83,99.26,248.36,248.36,0,0,1,61.21,126.32Z"/>
      <path class="cls-6" d="M154.69,47.64c-18,14.76-37.2,28.06-58.2,38.19a8.7,8.7,0,0,0-1.84-3.16c10-6.93,20.94-10,31.28-15.92C135.82,61,145.22,54.21,154.69,47.64Z"/>
      <path class="cls-7" d="M88.66,98.14a11.23,11.23,0,0,0-.48,1.15c-4.27.59-7.05-1.26-9.07-4.92-1-1.87-1.17-4-2.1-5.89a39.81,39.81,0,0,0-4.43-6.72C78.79,86.46,80,96.61,88.66,98.14Z"/>
      <path class="cls-7" d="M95.58,91.53a4.88,4.88,0,0,0-.53.15c-1.67-3.55-4.37-6.12-7-9-2.37-2.55-3.94-5.68-5.82-8.6a34.87,34.87,0,0,0,4.56,4c1.67,1.19,3.82,1.66,5.48,3,3.45,2.69,4.8,5.86,3.31,10.24A.3.3,0,0,0,95.58,91.53Z"/>
      <path class="cls-4" d="M90.63,95.1a11.39,11.39,0,0,0-1.72,2.52c-9.07-1.46-9.8-12.39-16.71-16.84a4.8,4.8,0,0,1,.54-2.72A4.16,4.16,0,0,1,73.86,77c2.79,3.44,5.81,6.64,8.72,9.93C85.17,89.86,87.3,93,90.63,95.1Z"/>
      <path class="cls-8" d="M91,94.67l0,0c-3.76-2.42-6.23-6.19-9.17-9.46-2.54-2.81-5.11-5.58-7.48-8.54.2-.12.35-.24.55-.36l.88-.61.08.09c6.52,4.88,9.08,13.3,15.73,18.27l-.11.1C91.29,94.33,91.17,94.49,91,94.67Z"/>
      <path class="cls-4" d="M94.52,91.93A12.24,12.24,0,0,0,92,93.66c-6.74-5-9.24-13.37-15.76-18.3,1.24-.91,2.88-2.46,4.49-2.57,0,0,0,.08,0,.11C83,76,84.5,79.48,87,82.36,89.66,85.53,92.71,88.05,94.52,91.93Z"/>
      <path class="cls-9" d="M77.89,92.76a13.37,13.37,0,0,0,1.25,2.7c-10.77,3.86-22.68,2.61-33.91,3.65-8.9.81-17.47,4-26.2,5.62,8.51-2.28,16.41-6.21,25.22-8,11.13-2.21,22.47-.93,33.5-4A.31.31,0,0,0,77.89,92.76Z"/>
      <path class="cls-9" d="M93.35,81.32a14.05,14.05,0,0,0-2.47-1.66l.09-.07c4.73-10.41,5.23-21.84,9.16-32.48,3.14-8.4,8.29-15.61,11.88-23.65-3,8.33-7.5,16.35-9.71,25C99.51,59.39,98.84,71.32,93.35,81.32Z"/>
      <path class="cls-10" d="M76.93,90.16s0,.08,0,.11c-12.3,4.07-26.91-.4-39-3.26a143.43,143.43,0,0,1-27.5-9.39C21.26,81.08,33,82.55,43.9,85.12,54.46,87.67,65,89,75.78,87.87A19.4,19.4,0,0,1,76.93,90.16Z"/>
      <path class="cls-10" d="M88.54,78.39a.14.14,0,0,0-.1-.06,22.56,22.56,0,0,1-2-1.46c2.84-10.51,3.11-21.09,2.34-31.94-.82-11.1-.45-23-2.16-34.17a145.74,145.74,0,0,1,4.91,28.61C92.42,51.73,94.5,66.88,88.54,78.39Z"/>
      <path class="cls-4" d="M73.26,83.74c.54.8,1.09,1.69,1.64,2.57-3.26-1.23-6.72-3-7.7-6.49,1,.83,1.7,1.81,2.72,2.65A6.38,6.38,0,0,0,73.26,83.74Z"/>
      <path class="cls-4" d="M85,75.75a27.47,27.47,0,0,1-2.27-2A6.71,6.71,0,0,0,82,70.17c-.67-1.08-1.55-2-2.22-3.07C83.06,68.61,84.28,72.34,85,75.75Z"/>
    </g>
  </g>
</svg>
