<svg xmlns="http://www.w3.org/2000/svg" width="140.59" height="283.7" viewBox="0 0 140.59 283.7">
  <defs>
    <style>
      .cls-1 {
        isolation: isolate;
      }

      .cls-2 {
        opacity: 0.5;
      }

      .cls-3 {
        fill: #fff;
      }

      .cls-4 {
        fill: #f47e20;
      }

      .cls-5 {
        fill: #bb5d27;
      }

      .cls-6 {
        fill: #7fd1e9;
      }

      .cls-7 {
        fill: #dad9d8;
      }

      .cls-7, .cls-8 {
        mix-blend-mode: multiply;
      }

      .cls-8 {
        fill: #c7e7f9;
      }

      .cls-9 {
        fill: #575756;
      }

      .cls-10, .cls-9 {
        mix-blend-mode: screen;
      }

      .cls-10 {
        fill: #3c3c3b;
      }
    </style>
  </defs>
  <g class="cls-1">
    <g id="Layer_1" data-name="Layer 1">
      <g>
        <path class="cls-2" d="M73.25,283.69h-.49a15.42,15.42,0,0,1-10.47-4.18c-2.68-1.1-5.33-3.53-6.67-8.58a22.56,22.56,0,0,1-10.15-17.37c-.22-3.78-.11-7.77,3.78-11.48.26-.4,1.44-2.42,3.35-8.74,4.47-14.81,2.28-30.75,1.22-34.08a11.31,11.31,0,0,1,.92-11.69,19.32,19.32,0,0,0-.06-2.24c-.33-4.21-4.72-7.43-5.56-8-10.28-5.45-17.48-10.89-22-16.63-7.11-9-8.45-17.74-9.34-23.52-.29-1.91-.69-4.53-1.11-5.16-7.33-6.54-12.16-21.46-10.3-31.88,1-5.43,3.8-9.75,7.9-12.17-.19-2.92-1.77-8.51-2.77-12.08-.58-2-1.24-4.37-1.82-6.69A27.45,27.45,0,0,1,15.47,44c4.24-4.82,9.77-7.7,15.3-8,2.15-2.08,5.85-7,8.19-10.17C45.75,16.75,51.6,8.9,58.91,6.9a25.72,25.72,0,0,1,6.78-1,20.81,20.81,0,0,1,7.58,1.38A20.81,20.81,0,0,1,80.85,6a25.72,25.72,0,0,1,6.78,1c7.3,2,13.15,9.84,19.93,18.92,2.37,3.17,6.06,8.11,8.2,10.17,5.54.29,11.07,3.16,15.3,8a27.48,27.48,0,0,1,5.82,25.22c-.58,2.28-1.24,4.63-1.82,6.69-1,3.57-2.58,9.16-2.78,12.08,4.11,2.42,6.94,6.74,7.91,12.17,1.86,10.42-3,25.34-10.34,31.93a24.93,24.93,0,0,0-1.08,5.11c-.88,5.79-2.22,14.52-9.33,23.52-4.55,5.75-11.77,11.2-22.07,16.66-.75.51-5.18,3.68-5.51,8a15.71,15.71,0,0,0-.06,2.25,11.33,11.33,0,0,1,.91,11.68c-1,3.34-3.25,19.27,1.23,34.08,1.91,6.33,3.09,8.34,3.34,8.74,3.89,3.77,4,7.73,3.79,11.48a22.52,22.52,0,0,1-10.16,17.37c-1.33,5.06-4,7.49-6.67,8.58a15.39,15.39,0,0,1-10.5,4.18Z"/>
        <path class="cls-3" d="M67.29,277.74H66.8a15.41,15.41,0,0,1-10.46-4.18C53.65,272.47,51,270,49.67,265a22.52,22.52,0,0,1-10.15-17.36c-.22-3.78-.11-7.77,3.78-11.48.26-.4,1.44-2.42,3.35-8.74,4.47-14.81,2.28-30.75,1.22-34.08a11.31,11.31,0,0,1,.92-11.69,19.29,19.29,0,0,0-.06-2.24c-.33-4.22-4.72-7.43-5.56-8-10.28-5.45-17.48-10.89-22-16.63-7.12-9-8.45-17.74-9.34-23.52-.29-1.92-.69-4.53-1.11-5.16C3.37,119.53-1.46,104.61.4,94.19c1-5.44,3.8-9.75,7.9-12.17-.2-2.92-1.77-8.51-2.77-12.08-.58-2-1.24-4.37-1.82-6.69A27.44,27.44,0,0,1,9.52,38c4.23-4.82,9.76-7.7,15.3-8C27,28,30.67,23,33,19.88,39.8,10.8,45.65,3,53,1A25.7,25.7,0,0,1,59.73,0a20.82,20.82,0,0,1,7.59,1.38A20.81,20.81,0,0,1,74.9,0a25.72,25.72,0,0,1,6.78,1c7.3,2,13.15,9.84,19.93,18.92C104,23,107.67,28,109.8,30c5.54.29,11.08,3.16,15.31,8a27.48,27.48,0,0,1,5.82,25.22c-.58,2.28-1.24,4.62-1.82,6.69-1,3.57-2.58,9.16-2.78,12.08,4.1,2.42,6.94,6.73,7.9,12.17,1.86,10.42-3,25.34-10.33,31.93a24.93,24.93,0,0,0-1.08,5.11c-.88,5.78-2.22,14.52-9.33,23.52-4.55,5.74-11.77,11.19-22.07,16.65-.76.51-5.18,3.69-5.51,8a15.71,15.71,0,0,0-.06,2.25,11.33,11.33,0,0,1,.91,11.68c-1.05,3.34-3.25,19.27,1.23,34.08,1.91,6.33,3.08,8.34,3.34,8.74,3.89,3.77,4,7.73,3.79,11.48A22.6,22.6,0,0,1,85,265c-1.34,5.06-4,7.49-6.67,8.58a15.39,15.39,0,0,1-10.5,4.18Z"/>
        <g>
          <path class="cls-4" d="M120.62,90.12c-8-3.16-2.38-16.71.79-29.27s-6.63-21.75-13.35-21-20.67-27.2-29-29.47S67.32,13,67.32,13s-3.46-4.84-11.77-2.57-22.25,30.26-29,29.47-16.52,8.4-13.35,21S22,87,14,90.12,10.76,113,17.28,118.8s1.49,17.1,11.57,29.86C33.16,154.1,40.79,159,48.13,162.9h0s9.6,5.63,10.39,15.72-3.27,7.52-1.68,10.68,4.64,22.94-.8,40.94-7.12,10-6.72,16.81,6.23,10.48,8.11,10.88,1.09,6.42,3,6.62,3,3.66,6.92,3.36c4,.3,5-3.16,6.92-3.36s1.09-6.23,3-6.62,7.71-4.06,8.1-10.88-1.28,1.18-6.72-16.81-2.37-37.78-.79-40.94-2.47-.59-1.68-10.68S86.5,162.9,86.5,162.9h0c7.34-3.87,15-8.8,19.28-14.24,10.09-12.76,5-24,11.57-29.86S128.62,93.28,120.62,90.12Z"/>
          <path class="cls-5" d="M66.8,268.23A6.44,6.44,0,0,1,62.22,266a3.85,3.85,0,0,0-1.86-1.2c-1.16-.12-1.45-1.76-1.74-3.5-.24-1.39-.51-3-1.25-3.12A12.83,12.83,0,0,1,49,247.07c-.17-2.94,0-3.27.86-4s2.79-2.66,5.88-12.87c5.5-18.21,2.28-37.78.81-40.72-.69-1.38-.4-1.85.19-2.56.72-.87,1.92-2.34,1.46-8.23-.77-9.81-10.15-15.43-10.24-15.49-9.14-4.81-15.66-9.63-19.36-14.31-5.55-7-6.58-13.69-7.4-19.05-.7-4.58-1.25-8.19-4.14-10.77C12.2,114.65,8.51,103,9.77,95.86c.55-3.08,2-5.16,4.14-6,6.4-2.52,3.67-12.22.78-22.48-.6-2.11-1.21-4.3-1.75-6.44a18,18,0,0,1,3.74-16.61c2.89-3.29,6.69-5.1,9.93-4.72s8.75-6.93,14-14S51.33,11.27,55.47,10.13c7.2-2,10.91,1.37,11.85,2.4.93-1,4.64-4.37,11.84-2.4,4.15,1.14,9.58,8.41,14.83,15.45s10.75,14.4,14,14,7,1.43,9.94,4.72a18.07,18.07,0,0,1,3.73,16.61c-.53,2.14-1.15,4.33-1.75,6.44-2.89,10.26-5.62,20,.78,22.48,2.16.86,3.59,2.94,4.14,6,1.27,7.1-2.42,18.79-7.31,23.16-2.88,2.58-3.44,6.19-4.14,10.77-.82,5.36-1.84,12-7.39,19.05-3.7,4.68-10.22,9.5-19.38,14.32-.37.22-9.46,5.72-10.23,15.48-.46,5.89.75,7.36,1.47,8.23.58.71.88,1.18.18,2.56-1.47,2.94-4.69,22.51.81,40.72,3.09,10.21,5,12,5.88,12.87s1,1.11.86,4a12.84,12.84,0,0,1-8.34,11.15c-.74.15-1,1.73-1.25,3.12-.3,1.74-.58,3.38-1.75,3.5a3.87,3.87,0,0,0-1.85,1.2,6.34,6.34,0,0,1-5.13,2.17Zm.49-.61a5.79,5.79,0,0,0,4.73-2,4,4,0,0,1,2.19-1.35c.72-.08,1-1.64,1.22-3,.29-1.66.58-3.37,1.71-3.61,1.56-.32,7.48-3.81,7.88-10.6.16-2.78,0-2.95-.68-3.58-1-1-2.9-2.76-6-13.13C72.76,212,76,192.15,77.53,189.17c.56-1.11.37-1.33-.11-1.92-.78-.95-2.08-2.52-1.6-8.65.8-10.13,10.44-15.9,10.53-16,9.1-4.79,15.55-9.55,19.2-14.16C111,141.57,112,135,112.82,129.7c.69-4.51,1.29-8.4,4.33-11.12,4.77-4.27,8.37-15.68,7.13-22.62-.52-2.91-1.79-4.78-3.77-5.56-6.9-2.73-4.1-12.67-1.14-23.2.6-2.11,1.21-4.29,1.75-6.42a17.51,17.51,0,0,0-3.61-16.08c-2.76-3.15-6.37-4.88-9.42-4.52-3.63.43-8.94-6.7-14.57-14.25C88.32,19,83,11.79,79,10.71,71,8.52,67.7,13,67.56,13.16l-.24.34-.24-.34c-.14-.19-3.46-4.64-11.45-2.45-4,1.08-9.32,8.27-14.51,15.22-5.64,7.55-11,14.68-14.58,14.25-3.05-.36-6.66,1.37-9.42,4.52a17.5,17.5,0,0,0-3.6,16.08c.53,2.13,1.15,4.31,1.74,6.42,3,10.53,5.77,20.47-1.13,23.2-2,.78-3.25,2.65-3.77,5.56-1.24,6.94,2.35,18.35,7.12,22.62,3,2.72,3.64,6.61,4.33,11.12.81,5.29,1.82,11.87,7.27,18.78,3.65,4.61,10.11,9.37,19.19,14.15.41.25,9.75,5.89,10.54,16,.48,6.13-.82,7.7-1.59,8.65-.49.59-.67.81-.12,1.92,1.49,3,4.78,22.79-.77,41.15-3.13,10.37-5,12.16-6,13.13-.66.63-.83.8-.67,3.58.39,6.79,6.31,10.28,7.87,10.6,1.13.24,1.43,1.95,1.71,3.61.24,1.38.51,2.94,1.23,3a4.08,4.08,0,0,1,2.19,1.35C63.73,266.63,65,267.8,67.29,267.62Z"/>
          <ellipse class="cls-6" cx="67.32" cy="88.64" rx="44.89" ry="66.96"/>
          <path class="cls-7" d="M68.6,21.68H68c24.5.51,44.25,30.29,44.25,67S92.46,155.07,68,155.58h.64c24.8,0,44.9-30,44.9-66.95S93.4,21.68,68.6,21.68Z"/>
          <path class="cls-8" d="M67.32,21.68h-.47c24.57.37,44.42,30.2,44.42,67s-19.85,66.57-44.42,67h.47c24.79,0,44.89-30,44.89-66.95S92.11,21.68,67.32,21.68Z"/>
          <path class="cls-7" d="M22.42,88.64c0-36.51,19.6-66.2,44-66.94l-.94,0c-24.8,0-44.89,30-44.89,67s20.09,67,44.89,67h.94C42,154.83,22.42,125.15,22.42,88.64Z"/>
          <path class="cls-8" d="M24.5,89.53c0-37,20.1-67,44.89-67a31.13,31.13,0,0,1,11.39,2.18,31.41,31.41,0,0,0-13.46-3.07c-24.8,0-44.9,30-44.9,67,0,31.11,14.23,57.26,33.51,64.78C37.71,144.89,24.5,119.51,24.5,89.53Z"/>
          <path class="cls-9" d="M84.85,27,25.06,66a98.72,98.72,0,0,0-.65,42.4l81.75-53.34C101.3,42.58,93.83,32.67,84.85,27Z"/>
          <path class="cls-9" d="M33.85,133.26l78.16-51a94.9,94.9,0,0,0-3-18.46L26.79,117.46A75.42,75.42,0,0,0,33.85,133.26Z"/>
          <path class="cls-10" d="M66.53,13s-3-2.91-8.57-2.31-11.64,7.86-10.49,7.75,6-5.64,13.86-5.34C66.5,13.32,67.53,14,66.53,13Z"/>
          <path class="cls-10" d="M26.61,40.65s-4-1.16-9.07,4.18-3.93,16-2.33,20.17-1.64-11.53,4.45-18C25.26,41.08,28.27,41.16,26.61,40.65Z"/>
          <path class="cls-10" d="M59.8,216.18c0-.5,2.13,11.93-.1,18.06s-6.25,8.7-5.21,13.1,6.45,10,5.16,9.94-7.19-2.2-8.48-5.61-2.12-6.33-.29-8S59.65,229.73,59.8,216.18Z"/>
          <path class="cls-10" d="M16.26,89.61a8.61,8.61,0,0,1-2.38,1.49c-1.43.59-3.3,3.62-3.4,7s.84,11,4.18,16.14c2.51,3.87,4.67,4.77,5.61,7.2s1.81,8.45,2,9a90.17,90.17,0,0,0-.6-11.52c-.49-2.72-7.07-8-7.86-15C12.44,92.05,17.93,88.62,16.26,89.61Z"/>
          <path class="cls-10" d="M45.36,149.45s9.65,9.67,22,9.44,18-8.1,18-8.1S68.94,163.64,45.36,149.45Z"/>
        </g>
      </g>
    </g>
  </g>
</svg>
