<svg id="Layer_1" data-name="Layer 1" xmlns="http://www.w3.org/2000/svg" width="238.12" height="131.23" viewBox="0 0 238.12 131.23">
  <defs>
    <style>
      .cls-1 {
        opacity: 0.5;
      }

      .cls-2 {
        fill: #fff;
      }

      .cls-3 {
        fill: #7a8886;
      }

      .cls-4 {
        fill: #becfd2;
      }

      .cls-5 {
        fill: #b4bbb6;
      }

      .cls-6 {
        fill: #cadbde;
      }

      .cls-7 {
        fill: #9b9b95;
      }

      .cls-8 {
        fill: #f59b18;
      }

      .cls-9 {
        fill: #e77d0e;
      }

      .cls-10 {
        fill: #5eb52c;
      }

      .cls-11 {
        fill: #5f991e;
      }

      .cls-12 {
        fill: #fbe5ba;
      }

      .cls-13 {
        fill: #f4d29a;
      }

      .cls-14 {
        fill: #f5ba18;
      }

      .cls-15 {
        fill: #f5cf18;
      }
    </style>
  </defs>
  <g>
    <path class="cls-1" d="M122.28,131.23C62,131.23,14,111.65,7.26,84.55A28.38,28.38,0,0,1,5,73.46C5,64.27,9.54,50.82,31.4,38.87c14.26-7.8,33.13-13.44,54.8-16.41.28-.62.54-1.23.78-1.79,2.09-5,6.67-7.72,10.71-10.14,1.09-.66,2.12-1.27,3-1.88.71-.47,1.29-.83,1.82-1.12a12.48,12.48,0,0,1,6.55-1.77h1.38a15.76,15.76,0,0,0,3.45-.45A17.23,17.23,0,0,1,117.52,5c10.73,0,22.09,9.29,25.78,14.26.53.7,1,1.38,1.41,2,22.48,2.06,42.67,7,58.64,14.22,18.26,8.31,29.46,19.15,32.46,31.39a28.29,28.29,0,0,1,2.31,11.08c0,15.52-13,29.51-36.46,39.39C180.33,126.29,152.14,131.23,122.28,131.23Z"/>
    <path class="cls-2" d="M117.33,126.28C57.07,126.28,9,106.7,2.31,79.59A28.34,28.34,0,0,1,0,68.5c0-9.18,4.59-22.64,26.44-34.59C40.7,26.11,59.58,20.47,81.25,17.5c.27-.61.54-1.22.77-1.79,2.09-5,6.67-7.72,10.71-10.14,1.09-.65,2.12-1.27,3-1.88.71-.47,1.29-.83,1.81-1.12A12.58,12.58,0,0,1,104.11.8l.79,0h.6a15.63,15.63,0,0,0,3.44-.45A17.33,17.33,0,0,1,112.57,0c10.72,0,22.08,9.28,25.78,14.25.53.71,1,1.38,1.4,2,22.48,2.07,42.67,7,58.64,14.23,18.26,8.31,29.46,19.14,32.47,31.38A28.33,28.33,0,0,1,233.16,73c0,15.51-12.95,29.5-36.46,39.39C175.37,121.34,147.18,126.28,117.33,126.28Z"/>
    <ellipse class="cls-3" cx="117.33" cy="72.98" rx="107.91" ry="45.37"/>
    <ellipse class="cls-4" cx="115.84" cy="68.5" rx="107.91" ry="45.37"/>
    <g>
      <ellipse class="cls-5" cx="117.33" cy="68.05" rx="79.85" ry="32.98"/>
      <ellipse class="cls-6" cx="116.88" cy="69.4" rx="73.73" ry="30.45"/>
    </g>
    <g>
      <path class="cls-7" d="M59.57,57.75S42.26,60.44,42,74.47,62,92.68,70.91,92.38,79.27,104,102.25,104s28.66-4.48,32.84-11.34,1.79-6.57,1.79-6.57S152.26,93,169.94,77.9,59.57,57.75,59.57,57.75Z"/>
      <g>
        <g>
          <g>
            <path class="cls-8" d="M104,69.91c-1.53,2.3-2.28,5.28-4.57,8.08a15.48,15.48,0,0,1-4.39,3.68c-6.15,3.58-22.16,5.93-30.78-1.9s-7.27-6.72-9-13.43,0-14.9,0-14.9,2.36-4.81,3.8-8.27S65.84,37.46,70,34.66c.46-.31.87-.56,1.21-.75,2.82-1.6,2.74,0,9.21-1.38C87.66,31,98.52,39,101.77,43.39s2.13,5.15,4.26,9.74S106.24,66.56,104,69.91Z"/>
            <path class="cls-9" d="M100.45,77a15.57,15.57,0,0,1-4.39,3.55C89.91,84,73.9,86.31,65.27,78.75s-7.27-6.5-8.95-13,0-14.39,0-14.39,2.36-4.64,3.8-8S66.85,37.87,71,35.16c.46-.3.86-.54,1.21-.73-1.58,1.7-15.81,17.62-6.92,34.79C73.34,84.81,94.57,79,100.45,77Z"/>
          </g>
          <g>
            <g>
              <path class="cls-10" d="M85.79,35.75c0,.88-1.32,1.6-3,1.6s-2.7-.59-2.93-1.35a.66.66,0,0,1,0-.25c0-.88,1.86-1.21,3.5-1.21,1.35,0,2.12.23,2.33.8A.8.8,0,0,1,85.79,35.75Z"/>
              <path class="cls-11" d="M85.79,35.75c0,.88-1.32,1.6-3,1.6s-2.7-.59-2.93-1.35a5.2,5.2,0,0,0,4.25.41c1-.31,1.41-.69,1.54-1.07A.8.8,0,0,1,85.79,35.75Z"/>
            </g>
            <g>
              <path class="cls-10" d="M83.3,39.72c0,.89-1.23,1.62-2.75,1.62S78,40.75,77.82,40a.75.75,0,0,1,0-.26c0-.89,1.74-1.22,3.26-1.22,1.25,0,2,.23,2.18.81A.88.88,0,0,1,83.3,39.72Z"/>
              <path class="cls-11" d="M83.3,39.72c0,.89-1.23,1.62-2.75,1.62S78,40.75,77.82,40a4.5,4.5,0,0,0,4,.41c.9-.31,1.32-.7,1.45-1.08A.88.88,0,0,1,83.3,39.72Z"/>
            </g>
            <g>
              <path class="cls-10" d="M77.3,36.21c0,.57-.71,1.1-1.69,1.17s-1.65-.26-1.82-.75a.45.45,0,0,1,0-.16c-.05-.57,1.06-.87,2-.94.8-.06,1.28.06,1.43.42A.44.44,0,0,1,77.3,36.21Z"/>
              <path class="cls-11" d="M77.3,36.21c0,.57-.71,1.1-1.69,1.17s-1.65-.26-1.82-.75a2.92,2.92,0,0,0,2.57.08c.56-.24.81-.5.87-.76A.44.44,0,0,1,77.3,36.21Z"/>
            </g>
            <g>
              <g>
                <path class="cls-12" d="M66.66,47.42c-1.56-.1-2.39-.85-2.39-1.53a1,1,0,0,1,.55-.85C66,44.33,66,43.91,66.36,42.9a2.45,2.45,0,0,1,1.53-1.3,3.56,3.56,0,0,1,3,1.27s0,0,0,0a4.59,4.59,0,0,1,.85,1.51C72.07,45.48,68.93,47.57,66.66,47.42Z"/>
                <path class="cls-13" d="M66.66,47.42c-1.56-.1-2.39-.85-2.39-1.53a3.74,3.74,0,0,0,3.28.78c2.88-.44,3.55-2.13,3.55-2.13a2.17,2.17,0,0,0-.21-1.65,4.59,4.59,0,0,1,.85,1.51C72.07,45.48,68.93,47.57,66.66,47.42Z"/>
              </g>
              <g>
                <path class="cls-12" d="M76.7,41.41a.16.16,0,0,1,0,.09c-.06.62-.88,1.1-1.87,1.1a1.83,1.83,0,0,1-1.85-1,.69.69,0,0,1,0-.2c0-.66.84-1.19,1.88-1.19S76.7,40.75,76.7,41.41Z"/>
                <path class="cls-13" d="M75.2,42a3.88,3.88,0,0,0,1.48-.47c-.06.62-.88,1.1-1.87,1.1a1.83,1.83,0,0,1-1.85-1A3,3,0,0,0,75.2,42Z"/>
                <path class="cls-13" d="M77,40.87l-.08-.25A.73.73,0,0,1,77,40.87Z"/>
              </g>
              <g>
                <path class="cls-12" d="M65.54,42a.31.31,0,0,1,0,.09c-.06.62-.89,1.1-1.88,1.1a1.83,1.83,0,0,1-1.85-1,1.38,1.38,0,0,1,0-.2c0-.66.84-1.2,1.88-1.2S65.54,41.31,65.54,42Z"/>
                <path class="cls-13" d="M64,42.53a4,4,0,0,0,1.49-.47c-.06.62-.89,1.1-1.88,1.1a1.83,1.83,0,0,1-1.85-1A3,3,0,0,0,64,42.53Z"/>
                <path class="cls-13" d="M65.86,41.43l-.09-.25A.7.7,0,0,1,65.86,41.43Z"/>
              </g>
              <g>
                <path class="cls-12" d="M72.65,38a1.33,1.33,0,0,1-.32,1c-1.27,1.75-2.2.15-2.2.15-2.24.26-3.29-.26-3.62-.59a.17.17,0,0,1,0-.21c.17-.33,1.21-.73,1.21-.73h.16C70.44,36.51,72.5,36.94,72.65,38Z"/>
                <path class="cls-13" d="M72.65,38a1.33,1.33,0,0,1-.32,1c-1.27,1.75-2.2.15-2.2.15-2.24.26-3.29-.26-3.62-.59a.17.17,0,0,1,0-.21,7.64,7.64,0,0,0,2.18.21c1.84-.08,2,.36,2,.36S71.8,39.83,72.65,38Z"/>
              </g>
            </g>
            <g>
              <g>
                <path class="cls-12" d="M91.89,40.72c1.51-.41,2.18-1.31,2-2a1,1,0,0,0-.72-.72c-1.32-.46-1.33-.89-1.92-1.79a2.52,2.52,0,0,0-1.77-1,3.59,3.59,0,0,0-2.67,1.83,0,0,0,0,1,0,0,4.55,4.55,0,0,0-.53,1.65C86.21,39.88,89.69,41.31,91.89,40.72Z"/>
                <path class="cls-13" d="M91.89,40.72c1.51-.41,2.18-1.31,2-2a3.76,3.76,0,0,1-3.07,1.42C88,40.29,87,38.77,87,38.77a2.17,2.17,0,0,1-.12-1.66,4.55,4.55,0,0,0-.53,1.65C86.21,39.88,89.69,41.31,91.89,40.72Z"/>
              </g>
              <g>
                <path class="cls-12" d="M84.7,41.67a.31.31,0,0,0,0,.09c.07.62.89,1.1,1.88,1.1a1.83,1.83,0,0,0,1.85-1,.69.69,0,0,0,0-.2c0-.66-.84-1.19-1.88-1.19S84.7,41,84.7,41.67Z"/>
                <path class="cls-13" d="M86.2,42.23a3.83,3.83,0,0,1-1.49-.47c.07.62.89,1.1,1.88,1.1a1.83,1.83,0,0,0,1.85-1A3,3,0,0,1,86.2,42.23Z"/>
                <path class="cls-13" d="M84.38,41.14l.09-.26A.93.93,0,0,0,84.38,41.14Z"/>
              </g>
              <g>
                <path class="cls-12" d="M95.15,41.56a.31.31,0,0,0,0,.09c.07.62.89,1.1,1.88,1.1a1.83,1.83,0,0,0,1.85-1,1.38,1.38,0,0,0,0-.2c0-.66-.84-1.2-1.88-1.2S95.15,40.9,95.15,41.56Z"/>
                <path class="cls-13" d="M96.65,42.12a4,4,0,0,1-1.49-.47c.07.62.89,1.1,1.88,1.1a1.83,1.83,0,0,0,1.85-1A3,3,0,0,1,96.65,42.12Z"/>
                <path class="cls-13" d="M94.83,41l.09-.25A.7.7,0,0,0,94.83,41Z"/>
              </g>
              <g>
                <path class="cls-12" d="M90.13,44.12a1.32,1.32,0,0,0,.32,1c1.27,1.75,2.2.16,2.2.16,2.24.25,3.29-.27,3.62-.6a.15.15,0,0,0,0-.2c-.17-.33-1.21-.74-1.21-.74h-.16C92.34,42.59,90.28,43,90.13,44.12Z"/>
                <path class="cls-13" d="M90.13,44.12a1.32,1.32,0,0,0,.32,1c1.27,1.75,2.2.16,2.2.16,2.24.25,3.29-.27,3.62-.6a.15.15,0,0,0,0-.2,7.73,7.73,0,0,1-2.18.2c-1.84-.08-2,.37-2,.37S91,45.92,90.13,44.12Z"/>
              </g>
            </g>
          </g>
        </g>
        <g>
          <g>
            <path class="cls-8" d="M177.89,67.23c-1.54,2.29-2.28,5.27-4.57,8.08A15.79,15.79,0,0,1,168.93,79c-6.15,3.57-22.16,5.92-30.79-1.91s-7.27-6.72-8.95-13.43,0-14.89,0-14.89,2.36-4.81,3.8-8.28,6.73-5.7,10.86-8.51c.46-.3.87-.56,1.21-.75,2.81-1.59,2.74,0,9.21-1.38,7.27-1.56,18.13,6.5,21.37,10.86s2.14,5.15,4.27,9.74S180.12,63.88,177.89,67.23Z"/>
            <path class="cls-9" d="M174.33,74.34a15.58,15.58,0,0,1-4.39,3.56c-6.15,3.45-22.16,5.72-30.79-1.84s-7.27-6.5-9-13,0-14.39,0-14.39,2.36-4.65,3.81-8,6.72-5.52,10.86-8.23c.46-.29.86-.54,1.21-.72-1.58,1.69-15.81,17.61-6.92,34.78C147.22,82.13,168.44,76.32,174.33,74.34Z"/>
          </g>
          <g>
            <g>
              <path class="cls-10" d="M159.67,33.06c0,.88-1.32,1.6-2.95,1.6s-2.71-.58-2.93-1.34a.75.75,0,0,1,0-.26c0-.87,1.86-1.2,3.5-1.2,1.34,0,2.12.23,2.33.8A.74.74,0,0,1,159.67,33.06Z"/>
              <path class="cls-11" d="M159.67,33.06c0,.88-1.32,1.6-2.95,1.6s-2.71-.58-2.93-1.34a5.24,5.24,0,0,0,4.25.4c1-.3,1.4-.68,1.54-1.06A.74.74,0,0,1,159.67,33.06Z"/>
            </g>
            <g>
              <path class="cls-10" d="M157.18,37c0,.89-1.23,1.62-2.76,1.62-1.38,0-2.51-.59-2.73-1.36a1.09,1.09,0,0,1,0-.26c0-.88,1.74-1.22,3.26-1.22,1.25,0,2,.24,2.17.81A.91.91,0,0,1,157.18,37Z"/>
              <path class="cls-11" d="M157.18,37c0,.89-1.23,1.62-2.76,1.62-1.38,0-2.51-.59-2.73-1.36a4.53,4.53,0,0,0,4,.41c.9-.31,1.31-.69,1.44-1.08A.91.91,0,0,1,157.18,37Z"/>
            </g>
            <g>
              <path class="cls-10" d="M151.18,33.53c0,.57-.71,1.09-1.69,1.16s-1.65-.26-1.82-.75a.62.62,0,0,1,0-.16c0-.57,1.07-.86,2.05-.93.8-.06,1.28,0,1.43.42A.53.53,0,0,1,151.18,33.53Z"/>
              <path class="cls-11" d="M151.18,33.53c0,.57-.71,1.09-1.69,1.16s-1.65-.26-1.82-.75a2.9,2.9,0,0,0,2.56.09c.57-.24.82-.51.88-.76A.53.53,0,0,1,151.18,33.53Z"/>
            </g>
            <g>
              <g>
                <path class="cls-12" d="M140.54,44.73c-1.56-.1-2.4-.85-2.4-1.53a1,1,0,0,1,.56-.85c1.21-.71,1.13-1.13,1.54-2.13a2.49,2.49,0,0,1,1.53-1.31,3.56,3.56,0,0,1,3,1.27l0,0a4.4,4.4,0,0,1,.85,1.51C146,42.79,142.81,44.89,140.54,44.73Z"/>
                <path class="cls-13" d="M140.54,44.73c-1.56-.1-2.4-.85-2.4-1.53a3.81,3.81,0,0,0,3.29.79c2.88-.45,3.55-2.14,3.55-2.14a2.14,2.14,0,0,0-.21-1.64,4.4,4.4,0,0,1,.85,1.51C146,42.79,142.81,44.89,140.54,44.73Z"/>
              </g>
              <g>
                <path class="cls-12" d="M150.58,38.72a.15.15,0,0,1,0,.09c-.06.62-.88,1.1-1.87,1.1a1.86,1.86,0,0,1-1.86-1,1.36,1.36,0,0,1,0-.2c0-.66.84-1.19,1.88-1.19S150.58,38.06,150.58,38.72Z"/>
                <path class="cls-13" d="M149.08,39.28a3.55,3.55,0,0,0,1.48-.47c-.06.62-.88,1.1-1.87,1.1a1.86,1.86,0,0,1-1.86-1A3,3,0,0,0,149.08,39.28Z"/>
                <path class="cls-13" d="M150.89,38.19l-.09-.26A.55.55,0,0,1,150.89,38.19Z"/>
              </g>
              <g>
                <path class="cls-12" d="M139.42,39.28a.28.28,0,0,1,0,.09c-.07.62-.89,1.1-1.88,1.1a1.83,1.83,0,0,1-1.85-1,.69.69,0,0,1,0-.2c0-.66.84-1.19,1.88-1.19S139.42,38.62,139.42,39.28Z"/>
                <path class="cls-13" d="M137.92,39.84a3.67,3.67,0,0,0,1.49-.47c-.07.62-.89,1.1-1.88,1.1a1.83,1.83,0,0,1-1.85-1A2.92,2.92,0,0,0,137.92,39.84Z"/>
                <path class="cls-13" d="M139.74,38.75l-.09-.26A.93.93,0,0,1,139.74,38.75Z"/>
              </g>
              <g>
                <path class="cls-12" d="M146.53,35.35a1.32,1.32,0,0,1-.32,1c-1.27,1.76-2.21.16-2.21.16-2.23.25-3.28-.27-3.61-.6a.17.17,0,0,1,0-.2c.18-.33,1.22-.74,1.22-.74h.15C144.32,33.82,146.38,34.26,146.53,35.35Z"/>
                <path class="cls-13" d="M146.53,35.35a1.32,1.32,0,0,1-.32,1c-1.27,1.76-2.21.16-2.21.16-2.23.25-3.28-.27-3.61-.6a.17.17,0,0,1,0-.2,7.86,7.86,0,0,0,2.19.2c1.84-.08,2,.37,2,.37S145.68,37.15,146.53,35.35Z"/>
              </g>
            </g>
            <g>
              <g>
                <path class="cls-12" d="M165.77,38c1.51-.41,2.18-1.31,2-2a1,1,0,0,0-.72-.72c-1.32-.46-1.33-.88-1.92-1.79a2.52,2.52,0,0,0-1.77-1,3.6,3.6,0,0,0-2.67,1.84v0a4.61,4.61,0,0,0-.53,1.65C160.09,37.19,163.57,38.63,165.77,38Z"/>
                <path class="cls-13" d="M165.77,38c1.51-.41,2.18-1.31,2-2a3.76,3.76,0,0,1-3.07,1.42c-2.91.13-3.9-1.39-3.9-1.39a2.17,2.17,0,0,1-.12-1.66,4.61,4.61,0,0,0-.53,1.65C160.09,37.19,163.57,38.63,165.77,38Z"/>
              </g>
              <g>
                <path class="cls-12" d="M158.58,39a.25.25,0,0,0,0,.09c.07.62.89,1.1,1.88,1.1a1.84,1.84,0,0,0,1.85-1,.76.76,0,0,0,0-.21c0-.66-.84-1.19-1.88-1.19S158.58,38.32,158.58,39Z"/>
                <path class="cls-13" d="M160.08,39.54a3.67,3.67,0,0,1-1.49-.47c.07.62.89,1.1,1.88,1.1a1.84,1.84,0,0,0,1.85-1A3,3,0,0,1,160.08,39.54Z"/>
                <path class="cls-13" d="M158.26,38.45l.09-.25A.83.83,0,0,0,158.26,38.45Z"/>
              </g>
              <g>
                <path class="cls-12" d="M169,38.87a.28.28,0,0,0,0,.09c.06.62.89,1.1,1.88,1.1a1.84,1.84,0,0,0,1.85-1,1.38,1.38,0,0,0,0-.2c0-.66-.84-1.19-1.88-1.19S169,38.21,169,38.87Z"/>
                <path class="cls-13" d="M170.53,39.43A3.77,3.77,0,0,1,169,39c.06.62.89,1.1,1.88,1.1a1.84,1.84,0,0,0,1.85-1A2.93,2.93,0,0,1,170.53,39.43Z"/>
                <path class="cls-13" d="M168.71,38.34l.09-.26A.55.55,0,0,0,168.71,38.34Z"/>
              </g>
              <g>
                <path class="cls-12" d="M164,41.43a1.3,1.3,0,0,0,.32,1c1.26,1.75,2.2.15,2.2.15,2.24.25,3.29-.27,3.62-.6a.15.15,0,0,0,0-.2c-.17-.33-1.21-.74-1.21-.74h-.16C166.22,39.91,164.16,40.34,164,41.43Z"/>
                <path class="cls-13" d="M164,41.43a1.3,1.3,0,0,0,.32,1c1.26,1.75,2.2.15,2.2.15,2.24.25,3.29-.27,3.62-.6a.15.15,0,0,0,0-.2A7.77,7.77,0,0,1,168,42c-1.84-.07-2,.37-2,.37S164.86,43.23,164,41.43Z"/>
              </g>
            </g>
          </g>
        </g>
        <g>
          <g>
            <path class="cls-14" d="M134.23,45.51c-1.53,2.3-2.28,5.28-4.56,8.08a15.77,15.77,0,0,1-4.39,3.68c-6.16,3.58-22.17,5.93-30.79-1.9s-7.27-6.73-9-13.44,0-14.89,0-14.89,2.36-4.81,3.81-8.27,6.72-5.71,10.86-8.51c.45-.31.86-.56,1.2-.75,2.82-1.6,2.74,0,9.21-1.38C117.88,6.56,128.74,14.62,132,19s2.13,5.16,4.26,9.75S136.47,42.16,134.23,45.51Z"/>
            <path class="cls-8" d="M130.67,52.63a15.51,15.51,0,0,1-4.38,3.55c-6.16,3.46-22.17,5.73-30.79-1.84s-7.27-6.49-9-13,0-14.39,0-14.39,2.36-4.64,3.81-8,6.72-5.52,10.85-8.22c.46-.3.87-.54,1.21-.73-1.57,1.69-15.81,17.62-6.91,34.79C103.56,60.41,124.79,54.6,130.67,52.63Z"/>
          </g>
          <g>
            <g>
              <path class="cls-10" d="M116,11.35c0,.87-1.32,1.6-3,1.6-1.48,0-2.7-.59-2.93-1.35a.66.66,0,0,1,0-.25c0-.88,1.87-1.21,3.5-1.21,1.35,0,2.12.23,2.34.8A.91.91,0,0,1,116,11.35Z"/>
              <path class="cls-11" d="M116,11.35c0,.87-1.32,1.6-3,1.6-1.48,0-2.7-.59-2.93-1.35a5.2,5.2,0,0,0,4.25.41c1-.31,1.41-.69,1.55-1.07A.91.91,0,0,1,116,11.35Z"/>
            </g>
            <g>
              <path class="cls-10" d="M113.52,15.32c0,.88-1.23,1.61-2.75,1.61s-2.52-.59-2.73-1.36a.66.66,0,0,1,0-.25c0-.89,1.74-1.22,3.26-1.22,1.26,0,2,.23,2.18.81A.86.86,0,0,1,113.52,15.32Z"/>
              <path class="cls-11" d="M113.52,15.32c0,.88-1.23,1.61-2.75,1.61s-2.52-.59-2.73-1.36a4.49,4.49,0,0,0,4,.41c.9-.3,1.31-.69,1.44-1.07A.86.86,0,0,1,113.52,15.32Z"/>
            </g>
            <g>
              <path class="cls-10" d="M107.53,11.81c0,.57-.72,1.1-1.7,1.17a1.78,1.78,0,0,1-1.82-.75.47.47,0,0,1,0-.17c0-.56,1.06-.86,2-.93.81-.06,1.28.06,1.44.42A.66.66,0,0,1,107.53,11.81Z"/>
              <path class="cls-11" d="M107.53,11.81c0,.57-.72,1.1-1.7,1.17a1.78,1.78,0,0,1-1.82-.75,2.92,2.92,0,0,0,2.57.08c.56-.24.81-.51.88-.76A.66.66,0,0,1,107.53,11.81Z"/>
            </g>
            <g>
              <g>
                <path class="cls-12" d="M96.89,23c-1.56-.1-2.4-.85-2.4-1.54a1,1,0,0,1,.56-.85c1.2-.71,1.13-1.13,1.53-2.13a2.48,2.48,0,0,1,1.54-1.3,3.6,3.6,0,0,1,3,1.26,0,0,0,0,0,0,0A4.59,4.59,0,0,1,102,20C102.29,21.08,99.16,23.17,96.89,23Z"/>
                <path class="cls-13" d="M96.89,23c-1.56-.1-2.4-.85-2.4-1.54a3.72,3.72,0,0,0,3.28.79c2.88-.44,3.56-2.13,3.56-2.13a2.2,2.2,0,0,0-.22-1.65A4.59,4.59,0,0,1,102,20C102.29,21.08,99.16,23.17,96.89,23Z"/>
              </g>
              <g>
                <path class="cls-12" d="M106.92,17a.22.22,0,0,1,0,.08c-.07.63-.89,1.11-1.88,1.11a1.83,1.83,0,0,1-1.85-1,1.38,1.38,0,0,1,0-.2c0-.66.84-1.2,1.88-1.2S106.92,16.35,106.92,17Z"/>
                <path class="cls-13" d="M105.42,17.56a3.67,3.67,0,0,0,1.49-.47c-.07.63-.89,1.11-1.88,1.11a1.83,1.83,0,0,1-1.85-1A3,3,0,0,0,105.42,17.56Z"/>
                <path class="cls-13" d="M107.24,16.47l-.09-.25A.7.7,0,0,1,107.24,16.47Z"/>
              </g>
              <g>
                <path class="cls-12" d="M95.76,17.57a.22.22,0,0,1,0,.08c-.06.63-.89,1.11-1.88,1.11a1.84,1.84,0,0,1-1.85-1,1.5,1.5,0,0,1,0-.2c0-.66.83-1.2,1.87-1.2S95.76,16.91,95.76,17.57Z"/>
                <path class="cls-13" d="M94.27,18.12a3.55,3.55,0,0,0,1.48-.47c-.06.63-.89,1.11-1.88,1.11a1.84,1.84,0,0,1-1.85-1A3,3,0,0,0,94.27,18.12Z"/>
                <path class="cls-13" d="M96.08,17,96,16.78A.55.55,0,0,1,96.08,17Z"/>
              </g>
              <g>
                <path class="cls-12" d="M102.87,13.63a1.29,1.29,0,0,1-.31,1c-1.27,1.75-2.21.15-2.21.15-2.23.25-3.29-.27-3.62-.6a.15.15,0,0,1,0-.2c.18-.33,1.22-.73,1.22-.73h.15C100.67,12.11,102.72,12.54,102.87,13.63Z"/>
                <path class="cls-13" d="M102.87,13.63a1.29,1.29,0,0,1-.31,1c-1.27,1.75-2.21.15-2.21.15-2.23.25-3.29-.27-3.62-.6a.15.15,0,0,1,0-.2,7.41,7.41,0,0,0,2.18.2c1.84-.07,2,.37,2,.37S102,15.43,102.87,13.63Z"/>
              </g>
            </g>
            <g>
              <g>
                <path class="cls-12" d="M122.11,16.31c1.51-.4,2.19-1.3,2-2a1,1,0,0,0-.71-.73c-1.33-.46-1.33-.88-1.93-1.78a2.46,2.46,0,0,0-1.76-1,3.61,3.61,0,0,0-2.68,1.83s0,0,0,0a4.35,4.35,0,0,0-.54,1.65C116.43,15.48,119.92,16.91,122.11,16.31Z"/>
                <path class="cls-13" d="M122.11,16.31c1.51-.4,2.19-1.3,2-2a3.78,3.78,0,0,1-3.07,1.42c-2.91.13-3.9-1.39-3.9-1.39a2.15,2.15,0,0,1-.11-1.66,4.35,4.35,0,0,0-.54,1.65C116.43,15.48,119.92,16.91,122.11,16.31Z"/>
              </g>
              <g>
                <path class="cls-12" d="M114.92,17.27a.16.16,0,0,0,0,.09c.06.62.89,1.1,1.88,1.1a1.84,1.84,0,0,0,1.85-1,1.36,1.36,0,0,0,0-.2c0-.66-.83-1.2-1.87-1.2S114.92,16.61,114.92,17.27Z"/>
                <path class="cls-13" d="M116.42,17.82a3.74,3.74,0,0,1-1.48-.46c.06.62.89,1.1,1.88,1.1a1.84,1.84,0,0,0,1.85-1A3,3,0,0,1,116.42,17.82Z"/>
                <path class="cls-13" d="M114.61,16.73l.09-.25A.55.55,0,0,0,114.61,16.73Z"/>
              </g>
              <g>
                <path class="cls-12" d="M125.37,17.15a.13.13,0,0,0,0,.09c.06.63.88,1.11,1.87,1.11a1.83,1.83,0,0,0,1.85-1,.76.76,0,0,0,0-.21c0-.65-.84-1.19-1.88-1.19S125.37,16.5,125.37,17.15Z"/>
                <path class="cls-13" d="M126.87,17.71a3.55,3.55,0,0,1-1.48-.47c.06.63.88,1.11,1.87,1.11a1.83,1.83,0,0,0,1.85-1A3,3,0,0,1,126.87,17.71Z"/>
                <path class="cls-13" d="M125.06,16.62l.08-.25A.73.73,0,0,0,125.06,16.62Z"/>
              </g>
              <g>
                <path class="cls-12" d="M120.35,19.71a1.34,1.34,0,0,0,.32,1c1.27,1.75,2.21.15,2.21.15,2.23.26,3.28-.26,3.61-.59a.16.16,0,0,0,0-.21c-.18-.33-1.22-.73-1.22-.73h-.15C122.56,18.19,120.5,18.62,120.35,19.71Z"/>
                <path class="cls-13" d="M120.35,19.71a1.34,1.34,0,0,0,.32,1c1.27,1.75,2.21.15,2.21.15,2.23.26,3.28-.26,3.61-.59a.16.16,0,0,0,0-.21,7.74,7.74,0,0,1-2.18.21c-1.84-.08-2,.36-2,.36S121.2,21.51,120.35,19.71Z"/>
              </g>
            </g>
          </g>
        </g>
        <g>
          <g>
            <path class="cls-14" d="M138.94,88.05c-1.54,2.29-2.29,5.28-4.57,8.08A15.79,15.79,0,0,1,130,99.81c-6.15,3.58-22.16,5.92-30.79-1.91s-7.27-6.72-9-13.43,0-14.89,0-14.89,2.36-4.81,3.81-8.27,6.72-5.71,10.86-8.52c.46-.3.86-.56,1.2-.75,2.82-1.59,2.74,0,9.21-1.38,7.27-1.56,18.13,6.5,21.38,10.86s2.13,5.15,4.26,9.74S141.17,84.7,138.94,88.05Z"/>
            <path class="cls-8" d="M135.38,95.16A15.73,15.73,0,0,1,131,98.72c-6.16,3.45-22.17,5.72-30.79-1.84s-7.27-6.5-9-13,0-14.39,0-14.39,2.36-4.65,3.81-8,6.72-5.52,10.86-8.23c.45-.29.86-.54,1.2-.72-1.57,1.69-15.81,17.61-6.91,34.79C108.27,103,129.49,97.14,135.38,95.16Z"/>
          </g>
          <g>
            <g>
              <path class="cls-10" d="M120.72,53.88c0,.88-1.32,1.6-3,1.6-1.48,0-2.7-.58-2.93-1.34a1.09,1.09,0,0,1,0-.26c0-.87,1.87-1.2,3.51-1.2,1.34,0,2.11.23,2.33.8A.84.84,0,0,1,120.72,53.88Z"/>
              <path class="cls-11" d="M120.72,53.88c0,.88-1.32,1.6-3,1.6-1.48,0-2.7-.58-2.93-1.34a5.25,5.25,0,0,0,4.25.4c1-.3,1.41-.68,1.55-1.06A.84.84,0,0,1,120.72,53.88Z"/>
            </g>
            <g>
              <path class="cls-10" d="M118.22,57.85c0,.89-1.23,1.62-2.75,1.62s-2.52-.59-2.73-1.36a1.09,1.09,0,0,1,0-.26c0-.88,1.74-1.21,3.27-1.21,1.25,0,2,.23,2.17.8A.91.91,0,0,1,118.22,57.85Z"/>
              <path class="cls-11" d="M118.22,57.85c0,.89-1.23,1.62-2.75,1.62s-2.52-.59-2.73-1.36a4.52,4.52,0,0,0,4,.41c.9-.31,1.31-.69,1.44-1.08A.91.91,0,0,1,118.22,57.85Z"/>
            </g>
            <g>
              <path class="cls-10" d="M112.23,54.35c0,.57-.72,1.09-1.7,1.16a1.75,1.75,0,0,1-1.82-.75.65.65,0,0,1,0-.16c0-.57,1.06-.86,2-.93.81-.06,1.28,0,1.44.42A.66.66,0,0,1,112.23,54.35Z"/>
              <path class="cls-11" d="M112.23,54.35c0,.57-.72,1.09-1.7,1.16a1.75,1.75,0,0,1-1.82-.75,2.92,2.92,0,0,0,2.57.09c.56-.24.81-.51.88-.76A.66.66,0,0,1,112.23,54.35Z"/>
            </g>
            <g>
              <g>
                <path class="cls-12" d="M101.59,65.55c-1.56-.1-2.4-.85-2.4-1.53a1,1,0,0,1,.56-.85c1.2-.71,1.13-1.13,1.53-2.13a2.52,2.52,0,0,1,1.54-1.31,3.57,3.57,0,0,1,3,1.27v0a4.4,4.4,0,0,1,.85,1.51C107,63.61,103.86,65.71,101.59,65.55Z"/>
                <path class="cls-13" d="M101.59,65.55c-1.56-.1-2.4-.85-2.4-1.53a3.79,3.79,0,0,0,3.29.79c2.88-.45,3.55-2.13,3.55-2.13a2.2,2.2,0,0,0-.22-1.65,4.4,4.4,0,0,1,.85,1.51C107,63.61,103.86,65.71,101.59,65.55Z"/>
              </g>
              <g>
                <path class="cls-12" d="M111.62,59.54a.25.25,0,0,1,0,.09c-.06.62-.89,1.1-1.88,1.1a1.84,1.84,0,0,1-1.85-1,1.2,1.2,0,0,1,0-.2c0-.66.84-1.19,1.88-1.19S111.62,58.88,111.62,59.54Z"/>
                <path class="cls-13" d="M110.13,60.1a3.61,3.61,0,0,0,1.48-.47c-.06.62-.89,1.1-1.88,1.1a1.84,1.84,0,0,1-1.85-1A3,3,0,0,0,110.13,60.1Z"/>
                <path class="cls-13" d="M111.94,59l-.09-.25A.46.46,0,0,1,111.94,59Z"/>
              </g>
              <g>
                <path class="cls-12" d="M100.47,60.1a.15.15,0,0,1,0,.09c-.06.62-.89,1.1-1.87,1.1a1.86,1.86,0,0,1-1.86-1,1.36,1.36,0,0,1,0-.2c0-.66.84-1.19,1.88-1.19S100.47,59.44,100.47,60.1Z"/>
                <path class="cls-13" d="M99,60.66a3.55,3.55,0,0,0,1.48-.47c-.06.62-.89,1.1-1.87,1.1a1.86,1.86,0,0,1-1.86-1A3,3,0,0,0,99,60.66Z"/>
                <path class="cls-13" d="M100.78,59.57l-.09-.26A.55.55,0,0,1,100.78,59.57Z"/>
              </g>
              <g>
                <path class="cls-12" d="M107.58,56.17a1.32,1.32,0,0,1-.32,1c-1.27,1.76-2.21.16-2.21.16-2.23.25-3.29-.27-3.61-.6a.14.14,0,0,1,0-.2c.18-.33,1.22-.74,1.22-.74h.15C105.37,54.64,107.42,55.08,107.58,56.17Z"/>
                <path class="cls-13" d="M107.58,56.17a1.32,1.32,0,0,1-.32,1c-1.27,1.76-2.21.16-2.21.16-2.23.25-3.29-.27-3.61-.6a.14.14,0,0,1,0-.2,7.82,7.82,0,0,0,2.18.2c1.84-.08,2,.37,2,.37S106.73,58,107.58,56.17Z"/>
              </g>
            </g>
            <g>
              <g>
                <path class="cls-12" d="M126.81,58.85c1.51-.41,2.19-1.31,2.05-2a1,1,0,0,0-.71-.72c-1.33-.46-1.33-.88-1.93-1.79a2.46,2.46,0,0,0-1.76-1,3.55,3.55,0,0,0-2.67,1.83v0a4.65,4.65,0,0,0-.54,1.65C121.13,58,124.62,59.45,126.81,58.85Z"/>
                <path class="cls-13" d="M126.81,58.85c1.51-.41,2.19-1.31,2.05-2a3.74,3.74,0,0,1-3.06,1.42c-2.92.14-3.91-1.39-3.91-1.39a2.2,2.2,0,0,1-.11-1.66,4.65,4.65,0,0,0-.54,1.65C121.13,58,124.62,59.45,126.81,58.85Z"/>
              </g>
              <g>
                <path class="cls-12" d="M119.63,59.8a.25.25,0,0,0,0,.09c.06.62.89,1.11,1.88,1.11a1.86,1.86,0,0,0,1.85-1,1.49,1.49,0,0,0,0-.21c0-.66-.83-1.19-1.87-1.19S119.63,59.14,119.63,59.8Z"/>
                <path class="cls-13" d="M121.12,60.36a3.61,3.61,0,0,1-1.48-.47c.06.62.89,1.11,1.88,1.11a1.86,1.86,0,0,0,1.85-1A3,3,0,0,1,121.12,60.36Z"/>
                <path class="cls-13" d="M119.31,59.27l.09-.25A.5.5,0,0,0,119.31,59.27Z"/>
              </g>
              <g>
                <path class="cls-12" d="M130.07,59.69a.15.15,0,0,0,0,.09c.06.62.88,1.1,1.87,1.1a1.86,1.86,0,0,0,1.86-1,1.36,1.36,0,0,0,0-.2c0-.66-.84-1.19-1.88-1.19S130.07,59,130.07,59.69Z"/>
                <path class="cls-13" d="M131.57,60.25a3.71,3.71,0,0,1-1.48-.47c.06.62.88,1.1,1.87,1.1a1.86,1.86,0,0,0,1.86-1A3,3,0,0,1,131.57,60.25Z"/>
                <path class="cls-13" d="M129.76,59.16l.09-.26A.55.55,0,0,0,129.76,59.16Z"/>
              </g>
              <g>
                <path class="cls-12" d="M125.05,62.25a1.34,1.34,0,0,0,.32,1c1.27,1.75,2.21.15,2.21.15,2.23.25,3.28-.27,3.61-.6a.14.14,0,0,0,0-.2c-.18-.33-1.22-.74-1.22-.74h-.15C127.26,60.73,125.21,61.16,125.05,62.25Z"/>
                <path class="cls-13" d="M125.05,62.25a1.34,1.34,0,0,0,.32,1c1.27,1.75,2.21.15,2.21.15,2.23.25,3.28-.27,3.61-.6a.14.14,0,0,0,0-.2,7.82,7.82,0,0,1-2.18.2c-1.84-.07-2,.37-2,.37S125.9,64.05,125.05,62.25Z"/>
              </g>
            </g>
          </g>
        </g>
        <path class="cls-15" d="M125.61,26.49s4.7,6.71,2.69,12.53S125.61,26.49,125.61,26.49Z"/>
        <path class="cls-15" d="M133,67.9s4.7,6.72,2.69,12.54S133,67.9,133,67.9Z"/>
      </g>
    </g>
  </g>
</svg>
