<svg xmlns="http://www.w3.org/2000/svg" xmlns:xlink="http://www.w3.org/1999/xlink" width="85.83" height="234.3" viewBox="0 0 85.83 234.3">
  <defs>
    <style>
      .cls-1 {
        fill: none;
      }

      .cls-2 {
        isolation: isolate;
      }

      .cls-3 {
        fill: #2d2c2c;
        opacity: 0.3;
      }

      .cls-4 {
        fill: #fff;
      }

      .cls-5 {
        fill: #bf8a52;
      }

      .cls-6 {
        fill: url(#linear-gradient);
      }

      .cls-7 {
        fill: url(#linear-gradient-2);
      }

      .cls-8 {
        clip-path: url(#clip-path);
      }

      .cls-9 {
        opacity: 0.4;
        mix-blend-mode: screen;
      }

      .cls-10 {
        opacity: 0;
      }

      .cls-11 {
        fill: #171717;
        opacity: 0.09;
      }

      .cls-12 {
        fill: #5c5c5c;
        opacity: 0.18;
      }

      .cls-13 {
        fill: #747474;
        opacity: 0.27;
      }

      .cls-14 {
        fill: #8b8b8b;
        opacity: 0.36;
      }

      .cls-15 {
        fill: #9d9d9d;
        opacity: 0.45;
      }

      .cls-16 {
        fill: #adadad;
        opacity: 0.55;
      }

      .cls-17 {
        fill: #bdbdbd;
        opacity: 0.64;
      }

      .cls-18 {
        fill: #cecece;
        opacity: 0.73;
      }

      .cls-19 {
        fill: #dfdfdf;
        opacity: 0.82;
      }

      .cls-20 {
        fill: #efefef;
        opacity: 0.91;
      }
    </style>
    <linearGradient id="linear-gradient" x1="15.82" y1="115.4" x2="20.51" y2="115.4" gradientUnits="userSpaceOnUse">
      <stop offset="0" stop-color="#ce9e68"/>
      <stop offset="0.51" stop-color="#cea266"/>
      <stop offset="1" stop-color="#cd9f6c"/>
    </linearGradient>
    <linearGradient id="linear-gradient-2" x1="61.88" y1="115.4" x2="66.57" y2="115.4" xlink:href="#linear-gradient"/>
    <clipPath id="clip-path">
      <path class="cls-1" d="M19.44,6.36l1.07,6L17.58,221.21l-1.76,3.23H7.05l5.5-218Zm50.4,0L63,6.36l-1.07,6,2.94,208.82,1.75,3.23h8.78Z"/>
    </clipPath>
  </defs>
  <g class="cls-2">
    <g id="Layer_1" data-name="Layer 1">
      <g>
        <path class="cls-3" d="M78.08,234.3a5.12,5.12,0,0,1-.56,0H70.08l-.78,0a6.32,6.32,0,0,1-6.33-6l-.28-.52a6.25,6.25,0,0,1-.77-2.93l-.32-22.58H27.67l-.32,22.58a6.32,6.32,0,0,1-.77,2.94l-.28.51a6.34,6.34,0,0,1-6.33,6l-.77,0H11.75a5.25,5.25,0,0,1-.56,0l-1.62-.05a6.35,6.35,0,0,1-6.13-6.5L9,9.72a6.33,6.33,0,0,1,6.34-6.17l.78,0,5.53,0a5.44,5.44,0,0,1,.57,0l1.08,0h.34A6.47,6.47,0,0,1,29.92,10l-.05,3,.32,1.78A5.91,5.91,0,0,1,30.28,16l-.08,5.89H59.07L59,16a5.91,5.91,0,0,1,.09-1.19L59.4,13l0-3a6.32,6.32,0,0,1,6.18-6.44h.19v0H66l.94,0h.14a5.44,5.44,0,0,1,.57,0l5.53,0,.73,0a6.42,6.42,0,0,1,4.38,1.73,6.34,6.34,0,0,1,2,4.44l5.51,218a6.35,6.35,0,0,1-6.13,6.5ZM61.32,181.71,61,156.6H28.31L28,181.71Zm-.63-44.29-.31-22H28.89l-.31,22ZM60.11,96.2l-.27-19.78H29.43L29.16,96.2Zm-.54-38.58-.24-17.34H29.94L29.7,57.62Z"/>
        <path class="cls-4" d="M74.64,230.8a5.12,5.12,0,0,1-.56,0H66.64l-.78,0a6.34,6.34,0,0,1-6.33-6l-.28-.52a6.28,6.28,0,0,1-.77-2.93l-.32-22.58H24.23l-.32,22.58a6.25,6.25,0,0,1-.77,2.93l-.28.52a6.34,6.34,0,0,1-6.33,6l-.77,0H8.31a5.25,5.25,0,0,1-.56,0l-1.62-.06A6.33,6.33,0,0,1,0,224.25l5.51-218A6.33,6.33,0,0,1,11.85.05l.78,0,5.53,0a5.44,5.44,0,0,1,.57,0l1.08,0h.34a6.46,6.46,0,0,1,6.33,6.44l-.05,3,.32,1.78a5.91,5.91,0,0,1,.09,1.19l-.08,5.88H55.63l-.08-5.88a5.91,5.91,0,0,1,.09-1.19L56,9.51l-.05-3A6.34,6.34,0,0,1,62.09,0h.19v0h.3l.94,0h.14a5.44,5.44,0,0,1,.57,0l5.53,0,.73,0a6.36,6.36,0,0,1,6.39,6.17l5.51,218a6.33,6.33,0,0,1-6.13,6.49ZM57.88,178.21l-.36-25.11H24.87l-.35,25.11Zm-.63-44.29-.31-22H25.45l-.31,22ZM56.67,92.7,56.4,72.92H26L25.72,92.7Zm-.54-38.58-.24-17.35H26.5l-.24,17.35Z"/>
        <g>
          <g>
            <g>
              <g>
                <polygon class="cls-5" points="12.55 6.41 19.44 6.36 15.82 224.44 7.04 224.44 12.55 6.41"/>
                <polygon class="cls-6" points="19.44 6.36 20.51 12.39 17.57 221.22 15.82 224.44 19.44 6.36"/>
              </g>
              <g>
                <polygon class="cls-5" points="69.84 6.41 62.95 6.36 66.57 224.44 75.34 224.44 69.84 6.41"/>
                <polygon class="cls-7" points="62.95 6.36 61.88 12.39 64.81 221.22 66.57 224.44 62.95 6.36"/>
              </g>
            </g>
            <g class="cls-8">
              <g>
                <g class="cls-9">
                  <g>
                    <polygon class="cls-10" points="63.66 6.34 67.27 224.43 65.86 224.46 62.24 6.37 63.66 6.34"/>
                    <polygon class="cls-11" points="63.61 6.34 67.22 224.43 65.91 224.46 62.29 6.37 63.61 6.34"/>
                    <polygon class="cls-12" points="63.56 6.34 67.17 224.43 65.96 224.45 62.34 6.37 63.56 6.34"/>
                    <polygon class="cls-13" points="63.51 6.34 67.12 224.43 66.01 224.45 62.4 6.37 63.51 6.34"/>
                    <polygon class="cls-14" points="63.45 6.34 67.07 224.43 66.06 224.45 62.45 6.37 63.45 6.34"/>
                    <polygon class="cls-15" points="63.41 6.35 67.02 224.43 66.11 224.45 62.5 6.37 63.41 6.35"/>
                    <polygon class="cls-16" points="63.35 6.35 66.97 224.43 66.16 224.45 62.55 6.37 63.35 6.35"/>
                    <polygon class="cls-17" points="63.3 6.35 66.92 224.43 66.21 224.45 62.6 6.36 63.3 6.35"/>
                    <polygon class="cls-18" points="63.25 6.35 66.87 224.43 66.26 224.45 62.65 6.36 63.25 6.35"/>
                    <polygon class="cls-19" points="63.2 6.35 66.82 224.44 66.31 224.45 62.7 6.36 63.2 6.35"/>
                    <polygon class="cls-20" points="63.15 6.35 66.77 224.44 66.37 224.44 62.75 6.36 63.15 6.35"/>
                    <polygon class="cls-4" points="63.1 6.35 66.72 224.44 66.42 224.44 62.8 6.36 63.1 6.35"/>
                  </g>
                </g>
                <g class="cls-9">
                  <g>
                    <polygon class="cls-10" points="15.12 224.43 18.73 6.34 20.15 6.37 16.53 224.46 15.12 224.43"/>
                    <polygon class="cls-11" points="15.17 224.43 18.78 6.34 20.1 6.37 16.48 224.46 15.17 224.43"/>
                    <polygon class="cls-12" points="15.22 224.43 18.83 6.34 20.05 6.37 16.43 224.45 15.22 224.43"/>
                    <polygon class="cls-13" points="15.27 224.43 18.88 6.34 20 6.37 16.38 224.45 15.27 224.43"/>
                    <polygon class="cls-14" points="15.32 224.43 18.93 6.34 19.95 6.37 16.33 224.45 15.32 224.43"/>
                    <polygon class="cls-15" points="15.37 224.43 18.99 6.35 19.89 6.37 16.28 224.45 15.37 224.43"/>
                    <polygon class="cls-16" points="15.42 224.43 19.04 6.35 19.84 6.37 16.23 224.45 15.42 224.43"/>
                    <polygon class="cls-17" points="15.47 224.43 19.09 6.35 19.79 6.36 16.18 224.45 15.47 224.43"/>
                    <polygon class="cls-18" points="15.52 224.43 19.14 6.35 19.74 6.36 16.13 224.45 15.52 224.43"/>
                    <polygon class="cls-19" points="15.57 224.44 19.19 6.35 19.69 6.36 16.08 224.45 15.57 224.44"/>
                    <polygon class="cls-20" points="15.63 224.44 19.24 6.35 19.64 6.36 16.02 224.44 15.63 224.44"/>
                    <polygon class="cls-4" points="15.68 224.44 19.29 6.35 19.59 6.36 15.97 224.44 15.68 224.44"/>
                  </g>
                </g>
              </g>
              <g>
                <g class="cls-9">
                  <g>
                    <polygon class="cls-10" points="74.64 224.46 69.13 6.43 70.55 6.39 76.05 224.42 74.64 224.46"/>
                    <polygon class="cls-11" points="74.69 224.46 69.18 6.43 70.49 6.39 76 224.42 74.69 224.46"/>
                    <polygon class="cls-12" points="74.74 224.46 69.23 6.43 70.44 6.39 75.95 224.42 74.74 224.46"/>
                    <polygon class="cls-13" points="74.79 224.46 69.28 6.43 70.39 6.39 75.9 224.42 74.79 224.46"/>
                    <polygon class="cls-14" points="74.84 224.46 69.33 6.43 70.34 6.39 75.85 224.42 74.84 224.46"/>
                    <polygon class="cls-15" points="74.89 224.46 69.38 6.43 70.29 6.39 75.8 224.43 74.89 224.46"/>
                    <polygon class="cls-16" points="74.94 224.45 69.43 6.42 70.24 6.4 75.75 224.43 74.94 224.45"/>
                    <polygon class="cls-17" points="74.99 224.45 69.48 6.42 70.19 6.4 75.7 224.43 74.99 224.45"/>
                    <polygon class="cls-18" points="75.04 224.45 69.53 6.42 70.14 6.4 75.65 224.43 75.04 224.45"/>
                    <polygon class="cls-19" points="75.09 224.45 69.59 6.42 70.09 6.4 75.6 224.43 75.09 224.45"/>
                    <polygon class="cls-20" points="75.15 224.45 69.64 6.42 70.04 6.4 75.55 224.43 75.15 224.45"/>
                    <polygon class="cls-4" points="75.2 224.44 69.69 6.42 69.99 6.41 75.5 224.44 75.2 224.44"/>
                  </g>
                </g>
                <g class="cls-9">
                  <g>
                    <polygon class="cls-10" points="6.34 224.42 11.85 6.39 13.26 6.43 7.75 224.46 6.34 224.42"/>
                    <polygon class="cls-11" points="6.39 224.42 11.9 6.39 13.21 6.43 7.7 224.46 6.39 224.42"/>
                    <polygon class="cls-12" points="6.44 224.42 11.95 6.39 13.16 6.43 7.65 224.46 6.44 224.42"/>
                    <polygon class="cls-13" points="6.49 224.42 12 6.39 13.11 6.43 7.6 224.46 6.49 224.42"/>
                    <polygon class="cls-14" points="6.54 224.42 12.05 6.39 13.06 6.43 7.55 224.46 6.54 224.42"/>
                    <polygon class="cls-15" points="6.59 224.43 12.1 6.39 13.01 6.43 7.5 224.46 6.59 224.43"/>
                    <polygon class="cls-16" points="6.64 224.43 12.15 6.4 12.96 6.42 7.45 224.45 6.64 224.43"/>
                    <polygon class="cls-17" points="6.69 224.43 12.2 6.4 12.91 6.42 7.4 224.45 6.69 224.43"/>
                    <polygon class="cls-18" points="6.74 224.43 12.25 6.4 12.86 6.42 7.35 224.45 6.74 224.43"/>
                    <polygon class="cls-19" points="6.79 224.43 12.3 6.4 12.8 6.42 7.3 224.45 6.79 224.43"/>
                    <polygon class="cls-20" points="6.84 224.43 12.35 6.4 12.75 6.42 7.25 224.45 6.84 224.43"/>
                    <polygon class="cls-4" points="6.9 224.44 12.4 6.41 12.7 6.42 7.19 224.44 6.9 224.44"/>
                  </g>
                </g>
              </g>
            </g>
          </g>
          <g>
            <g>
              <path class="cls-5" d="M18.7,146.77H63.81a1,1,0,0,0,.87-1v-4.48a1,1,0,0,0-.87-1H18.7a1,1,0,0,0-.88,1v4.48A1,1,0,0,0,18.7,146.77Z"/>
              <path class="cls-5" d="M19.45,105.55h43.6a.94.94,0,0,0,.87-1V100a.94.94,0,0,0-.87-1H19.45a.94.94,0,0,0-.86,1v4.51A.94.94,0,0,0,19.45,105.55Z"/>
              <path class="cls-5" d="M19.87,66.59H62.63a.69.69,0,0,0,.64-.73V61.19a.69.69,0,0,0-.64-.73H19.87a.69.69,0,0,0-.63.73v4.67A.69.69,0,0,0,19.87,66.59Z"/>
              <path class="cls-5" d="M20.43,30.44H62.08a.61.61,0,0,0,.56-.65V25.35a.61.61,0,0,0-.56-.65H20.43a.61.61,0,0,0-.56.65v4.44A.61.61,0,0,0,20.43,30.44Z"/>
              <path class="cls-5" d="M17.92,192.38H64.58a.89.89,0,0,0,.83-.95v-5.92a.9.9,0,0,0-.83-1H17.92a.9.9,0,0,0-.83,1v5.92A.89.89,0,0,0,17.92,192.38Z"/>
            </g>
            <g>
              <g class="cls-9">
                <g>
                  <rect class="cls-10" x="19.88" y="24.75" width="42.76" height="1.63"/>
                  <rect class="cls-11" x="19.88" y="24.8" width="42.76" height="1.52"/>
                  <rect class="cls-12" x="19.88" y="24.86" width="42.76" height="1.4"/>
                  <rect class="cls-13" x="19.88" y="24.92" width="42.76" height="1.28"/>
                  <rect class="cls-14" x="19.88" y="24.98" width="42.76" height="1.16"/>
                  <rect class="cls-15" x="19.88" y="25.04" width="42.76" height="1.05"/>
                  <rect class="cls-16" x="19.88" y="25.1" width="42.76" height="0.93"/>
                  <rect class="cls-17" x="19.88" y="25.16" width="42.76" height="0.81"/>
                  <rect class="cls-18" x="19.88" y="25.21" width="42.76" height="0.7"/>
                  <rect class="cls-19" x="19.88" y="25.27" width="42.76" height="0.58"/>
                  <rect class="cls-20" x="19.88" y="25.33" width="42.76" height="0.46"/>
                  <rect class="cls-4" x="19.88" y="25.39" width="42.76" height="0.34"/>
                </g>
              </g>
              <g class="cls-9">
                <g>
                  <rect class="cls-10" x="19.06" y="60.5" width="44.2" height="1.63"/>
                  <rect class="cls-11" x="19.06" y="60.56" width="44.2" height="1.52"/>
                  <rect class="cls-12" x="19.06" y="60.62" width="44.2" height="1.4"/>
                  <rect class="cls-13" x="19.06" y="60.68" width="44.2" height="1.28"/>
                  <rect class="cls-14" x="19.06" y="60.73" width="44.2" height="1.16"/>
                  <rect class="cls-15" x="19.06" y="60.79" width="44.2" height="1.05"/>
                  <rect class="cls-16" x="19.06" y="60.85" width="44.2" height="0.93"/>
                  <rect class="cls-17" x="19.06" y="60.91" width="44.2" height="0.81"/>
                  <rect class="cls-18" x="19.06" y="60.97" width="44.2" height="0.7"/>
                  <rect class="cls-19" x="19.06" y="61.03" width="44.2" height="0.58"/>
                  <rect class="cls-20" x="19.06" y="61.09" width="44.2" height="0.46"/>
                  <rect class="cls-4" x="19.06" y="61.14" width="44.2" height="0.34"/>
                </g>
              </g>
              <g class="cls-9">
                <g>
                  <rect class="cls-10" x="18.59" y="99.22" width="45.33" height="1.63"/>
                  <rect class="cls-11" x="18.59" y="99.28" width="45.33" height="1.52"/>
                  <rect class="cls-12" x="18.59" y="99.34" width="45.33" height="1.4"/>
                  <rect class="cls-13" x="18.59" y="99.4" width="45.33" height="1.28"/>
                  <rect class="cls-14" x="18.59" y="99.46" width="45.33" height="1.16"/>
                  <rect class="cls-15" x="18.59" y="99.51" width="45.33" height="1.05"/>
                  <rect class="cls-16" x="18.59" y="99.57" width="45.33" height="0.93"/>
                  <rect class="cls-17" x="18.59" y="99.63" width="45.33" height="0.81"/>
                  <rect class="cls-18" x="18.59" y="99.69" width="45.33" height="0.7"/>
                  <rect class="cls-19" x="18.59" y="99.75" width="45.33" height="0.58"/>
                  <rect class="cls-20" x="18.59" y="99.81" width="45.33" height="0.46"/>
                  <rect class="cls-4" x="18.59" y="99.87" width="45.33" height="0.34"/>
                </g>
              </g>
              <g class="cls-9">
                <g>
                  <rect class="cls-10" x="17.82" y="140.45" width="46.86" height="1.63"/>
                  <rect class="cls-11" x="17.82" y="140.51" width="46.86" height="1.52"/>
                  <rect class="cls-12" x="17.82" y="140.57" width="46.86" height="1.4"/>
                  <rect class="cls-13" x="17.82" y="140.63" width="46.86" height="1.28"/>
                  <rect class="cls-14" x="17.82" y="140.69" width="46.86" height="1.16"/>
                  <rect class="cls-15" x="17.82" y="140.74" width="46.86" height="1.05"/>
                  <rect class="cls-16" x="17.82" y="140.8" width="46.86" height="0.93"/>
                  <rect class="cls-17" x="17.82" y="140.86" width="46.86" height="0.81"/>
                  <rect class="cls-18" x="17.82" y="140.92" width="46.86" height="0.7"/>
                  <rect class="cls-19" x="17.82" y="140.98" width="46.86" height="0.58"/>
                  <rect class="cls-20" x="17.82" y="141.04" width="46.86" height="0.46"/>
                  <rect class="cls-4" x="17.82" y="141.1" width="46.86" height="0.34"/>
                </g>
              </g>
              <g class="cls-9">
                <g>
                  <rect class="cls-10" x="17.09" y="184.69" width="48.32" height="1.63"/>
                  <rect class="cls-11" x="17.09" y="184.75" width="48.32" height="1.52"/>
                  <rect class="cls-12" x="17.09" y="184.81" width="48.32" height="1.4"/>
                  <rect class="cls-13" x="17.09" y="184.87" width="48.32" height="1.28"/>
                  <rect class="cls-14" x="17.09" y="184.92" width="48.32" height="1.16"/>
                  <rect class="cls-15" x="17.09" y="184.98" width="48.32" height="1.05"/>
                  <rect class="cls-16" x="17.09" y="185.04" width="48.32" height="0.93"/>
                  <rect class="cls-17" x="17.09" y="185.1" width="48.32" height="0.81"/>
                  <rect class="cls-18" x="17.09" y="185.16" width="48.32" height="0.7"/>
                  <rect class="cls-19" x="17.09" y="185.22" width="48.32" height="0.58"/>
                  <rect class="cls-20" x="17.09" y="185.28" width="48.32" height="0.46"/>
                  <rect class="cls-4" x="17.09" y="185.34" width="48.32" height="0.34"/>
                </g>
              </g>
            </g>
          </g>
        </g>
      </g>
    </g>
  </g>
</svg>
