<svg id="Layer_1" data-name="Layer 1" xmlns="http://www.w3.org/2000/svg" width="222.76" height="213.93" viewBox="0 0 222.76 213.93">
  <defs>
    <style>
      .cls-1 {
        fill: #353535;
        opacity: 0.5;
      }

      .cls-2 {
        fill: #fff;
      }

      .cls-3 {
        fill: #c8ba7f;
        stroke: #785f3e;
      }

      .cls-10, .cls-13, .cls-16, .cls-17, .cls-3, .cls-5, .cls-6, .cls-8 {
        stroke-linecap: round;
        stroke-linejoin: round;
      }

      .cls-4 {
        fill: #b39761;
      }

      .cls-5 {
        fill: #f58c6d;
        stroke: #d76c4f;
      }

      .cls-6 {
        fill: #f37e5b;
        stroke: #984225;
      }

      .cls-7 {
        fill: #f79e77;
      }

      .cls-8 {
        fill: #e9ddab;
        stroke: #927951;
      }

      .cls-9 {
        fill: #f6efd2;
      }

      .cls-10 {
        fill: #d86c27;
        stroke: #993120;
      }

      .cls-11 {
        fill: #fbb345;
      }

      .cls-12 {
        fill: #fde349;
      }

      .cls-13 {
        fill: #dcad80;
        stroke: #a46938;
      }

      .cls-14 {
        fill: #fcc99e;
      }

      .cls-15 {
        fill: #ffdfb4;
      }

      .cls-16 {
        fill: #9a663a;
      }

      .cls-16, .cls-17 {
        stroke: #5b2b1a;
      }

      .cls-17 {
        fill: #834229;
      }

      .cls-18 {
        fill: #aa5834;
      }

      .cls-19 {
        fill: #d68d51;
      }
    </style>
  </defs>
  <g>
    <path class="cls-1" d="M23.5,213.93c-8.36,0-13.94-1.51-17.07-4.62-2-2-2.78-4.83-2.33-8.43-.35-7.44,6-21.23,13.27-28.41,5.17-5.07,13.85-13,14.22-13.29a6.65,6.65,0,0,1,3.72-1.69c2-2.35,4-4.66,5.36-6.5-6.53-8-9.47-20.53-10.07-23.38a6.63,6.63,0,0,1,3-7l.41-.26c-4.43-16.75-4.23-18.71-4.12-19.8.1-.91.35-3.39,4.16-8-4.25-13.12-5.6-34.1-3.85-60.16L29,32a6.63,6.63,0,0,1-4.42-6.57c.1-2.06.28-5,.61-9.86.11-1.69.24-3.51.38-5.47A6.64,6.64,0,0,1,32.21,4h173.4a6.64,6.64,0,0,1,6.63,6.39c.21,6.07.32,11.42.32,15.93a6.63,6.63,0,0,1-4,6.07,72.66,72.66,0,0,1-13.69,4.16c-2.49,34.91-7.34,52.69-10.13,60.4a14.45,14.45,0,0,1,3,5.47c1.19,4.63-1.28,13.39-7.35,26a12.53,12.53,0,0,1,2.15,6.36c0,3.48-3.72,13.55-6.64,20.17,4.32,3.74,9.1,7.48,13.77,10.8a6.72,6.72,0,0,1,1.48-.17,6.62,6.62,0,0,1,4.89,2.15c3.83,4.19,11.61,6.43,16.26,7.78,3.51,1,5.63,1.62,7.33,3.13a9.22,9.22,0,0,1,3,8.52,9.7,9.7,0,0,1-.25,4.3c-1.17,4.24-4.87,7.85-11,10.74A47,47,0,0,1,191,207h0a54.36,54.36,0,0,1-22.26-5.19c-14.07-6.33-18.05-6.77-26-7.63l-2.17-.24c-9.61-1.09-18.45-2.68-21-10.12l-.15-.52a16.53,16.53,0,0,1-.38-5.12c-.64-5.08.23-15.21,3.64-20.84.56-2.06,1.2-4.08,1.81-6.06.28-.89.55-1.76.81-2.62-6.25-5-11.77-13.78-16.53-26.32-6.82,15.67-14.76,26.53-24,32.85a40.39,40.39,0,0,1,1.89,16.14c.49,3.93-.78,7.37-3.55,9.41a24.42,24.42,0,0,1-2.72,1.62c-2.49,1.36-7.11,3.87-8.86,7.08C68.7,194.7,60,207.33,41,211.91A79.66,79.66,0,0,1,23.5,213.93Z"/>
    <path class="cls-2" d="M19.52,210c-8.36,0-13.94-1.51-17.07-4.62-2-2-2.78-4.83-2.33-8.43-.35-7.44,6-21.23,13.27-28.41,5.17-5.07,13.85-13,14.22-13.29a6.65,6.65,0,0,1,3.72-1.69c2.05-2.35,4-4.66,5.36-6.5-6.53-8-9.47-20.53-10.07-23.38a6.63,6.63,0,0,1,3-7l.41-.26c-4.43-16.75-4.23-18.71-4.12-19.8.1-.91.35-3.39,4.16-8-4.25-13.12-5.6-34.1-3.85-60.16L25,28.06a6.63,6.63,0,0,1-4.42-6.57c.1-2.06.28-5,.61-9.86.11-1.69.24-3.51.38-5.47A6.64,6.64,0,0,1,28.23,0h173.4a6.64,6.64,0,0,1,6.63,6.39c.21,6.07.32,11.42.32,15.93a6.63,6.63,0,0,1-4,6.07,72.66,72.66,0,0,1-13.69,4.16c-2.49,34.91-7.34,52.69-10.13,60.4a14.45,14.45,0,0,1,3,5.47c1.19,4.63-1.28,13.39-7.35,26a12.53,12.53,0,0,1,2.15,6.36c.05,3.48-3.72,13.55-6.64,20.17,4.32,3.74,9.1,7.48,13.77,10.8a6.72,6.72,0,0,1,1.48-.17,6.62,6.62,0,0,1,4.89,2.15c3.83,4.19,11.61,6.43,16.26,7.78,3.51,1,5.63,1.62,7.33,3.13a9.21,9.21,0,0,1,3,8.52,9.7,9.7,0,0,1-.25,4.3c-1.17,4.24-4.87,7.85-11,10.74A47,47,0,0,1,187,203.06h0a54.36,54.36,0,0,1-22.26-5.19c-14.07-6.33-18-6.77-26-7.63l-2.17-.24c-9.61-1.09-18.45-2.68-21-10.12l-.15-.52a16.53,16.53,0,0,1-.38-5.12c-.64-5.08.23-15.21,3.64-20.84.56-2.06,1.2-4.08,1.81-6.06.28-.89.55-1.76.81-2.62-6.25-5-11.77-13.78-16.53-26.32-6.82,15.67-14.76,26.53-24,32.85a40.39,40.39,0,0,1,1.89,16.14c.49,3.93-.78,7.37-3.55,9.41a24.42,24.42,0,0,1-2.72,1.62c-2.49,1.36-7.11,3.87-8.86,7.08-2.85,5.22-11.52,17.85-30.52,22.43A79.66,79.66,0,0,1,19.52,210Z"/>
    <g>
      <g>
        <path class="cls-3" d="M140.4,92.6c-.06,1.91-.12,3.82-.19,5.73h0q-.14,3.49-.33,7-.27,4.78-.65,9.5h0c-.23,2.77-.48,5.51-.77,8.22q-.41,3.69-.88,7.28s0,0,0,0q-.44,3.21-.94,6.33t-1.11,6.22a12.55,12.55,0,0,1-6.46-1.13c-10.12-4.62-18.14-22.26-23.7-44-.12-.45-.23-.92-.35-1.38-.87-3.51-1.69-7.12-2.43-10.8q-.78-3.83-1.47-7.72c0-.16,0-.33-.08-.49L100.79,76c0-.14-.05-.29-.08-.43s0-.18,0-.27a2.07,2.07,0,0,0,0-.22l-.36-2.24-.09-.59a.52.52,0,0,1,0-.11c-.24-1.52-.46-3-.68-4.55h0c-.06-.42-.11-.83-.17-1.25h0c-.19-1.39-.37-2.78-.55-4.17l-.12-1q-.21-1.66-.39-3.33c0-.3-.07-.61-.1-.91-.1-.93-.2-1.86-.29-2.79h0c-.31-3.14-.57-6.25-.78-9.31h0c-.22-3-.37-6-.49-8.86-.06-1.77-.11-3.51-.14-5.22,0-.32,0-.64,0-1,0-1.61,0-3.2,0-4.75A141.29,141.29,0,0,1,97.59,6.63h39.33q.09.88.18,1.86c.52,5.42,1.14,12.6,1.72,21,0,.52.07,1,.1,1.56q.2,2.82.37,5.81c.25,4.25.49,8.73.68,13.39h0c.19,4.45.35,9.05.45,13.75.05,1.93.08,3.87.11,5.83h0C140.63,77.27,140.61,84.92,140.4,92.6Z"/>
        <path class="cls-4" d="M100.54,75.3c5.64,16.61,17.67,58.51,40.14,54.77S113,47.36,113,47.36Z"/>
      </g>
      <path class="cls-5" d="M72.06,145.53c-.43,4.67,3.2,16,1.14,20.74s-11.14,7.59-13,10-7.74,11.12-10.1,14-12.32,6.22-16.78,6.46-17.44-9.7-16.88-14.85S43.81,152.46,45,145.42,72.82,137.25,72.06,145.53Z"/>
      <g>
        <path class="cls-6" d="M155,143c3.5,6.51,31.95,31.09,50.26,37.17,8.43,8-14.12,14.28-28.19,10.44s-18.7-12.92-28.93-13.28-22.2,1.75-24.23-8,4.29-21,5.87-31a169.36,169.36,0,0,0,1.52-23.87"/>
        <path class="cls-7" d="M150.33,139.79c5.07,3.79,10.2,12.63,25.11,23.83s26.13,15.22,27.9,16.56c4.91,3.7-14.94,10-28.76,3.46-9.74-4.61-19.67-14.48-27.87-14.55-13.69-.14-19.4-4-12-22.49C140.33,132.45,148.17,138.17,150.33,139.79Z"/>
      </g>
      <path class="cls-7" d="M63.54,151.46C61.11,157,44.37,185.17,42.1,188.14s-8.25,6.61-11.68,7.66-11.8-10-11.83-14.69,27-29.28,28.38-34.22S65.68,146.62,63.54,151.46Z"/>
      <path class="cls-8" d="M185.56,6.63c-.17,6-.41,11.61-.7,16.88-.07,1.19-.14,2.36-.21,3.52-3.21,51.89-11.72,67.55-11.72,67.55s3.77,2.85,4.45,5.48c1.34,5.26-8.72,25.23-8.72,25.23s3.27,3.28,3.3,5.62-5,16.12-8.14,21.72l-.39.67c-2.39.62-7.94-.32-14.45-4.66a48.78,48.78,0,0,1-10-9.06c-.69-.8-1.37-1.64-2.05-2.53l-.28-.37-.55-.74a46.7,46.7,0,0,1-3.9-6.66h0c-.41-.82-.81-1.67-1.22-2.56h0c-6.34-13.93-13.12-37.38-17.25-62.08-.2-1.23-.4-2.46-.59-3.69h0l-.39-2.58h0q-.58-4-1.08-8c-.28-2.4-.54-4.8-.77-7.18,0-.59-.1-1.16-.16-1.75h0c0-.33,0-.65-.08-1-.06-.66-.11-1.31-.16-2h0l0-.42h0l-.06-.83h0v-.06a.08.08,0,0,1,0,0V37h0c-.08-1.1-.15-2.19-.21-3.28h0c0-.87-.1-1.73-.13-2.59,0-.34,0-.69-.05-1,0-1-.07-1.94-.1-2.9s0-1.64,0-2.45c0-.24,0-.47,0-.7,0-.72,0-1.44,0-2.15v-.75c0-.57,0-1.13,0-1.7,0-.22,0-.44,0-.65v-.08q.1-6.06.15-12.1Z"/>
      <path class="cls-9" d="M134.12,36.86c16.19.17,42.42-2.26,47.72-5.09,0,12-3.35,45.83-8.09,52.06C157.84,83.08,139.84,53.74,134.12,36.86Z"/>
      <path class="cls-9" d="M128.08,41c2.69,22.88,28.92,49.49,32.27,52.79S158,113.55,158,113.55l9.8,8.43s9.1-16.1,8.37-22.2C162.58,87.83,140.46,72.49,128.08,41Z"/>
      <path class="cls-9" d="M120.38,51.39c2.85,25,17.79,57.44,35.16,74,.62,3.45-3.92,20.76-3.74,22s7.82,4.43,10.46,3.76,9.6-18.38,8-22.13S144.05,111.71,120.38,51.39Z"/>
      <path class="cls-8" d="M117.31,6.63q-1.26,7.35-2.78,14.51c-.1.51-.21,1-.32,1.51,0,.21-.09.41-.13.61l-.36,1.63c-.19.88-.39,1.75-.59,2.62h0l-.6,2.6c-.08.35-.17.7-.25,1.05s-.2.86-.31,1.29h0c-.24,1-.5,2-.75,3.05-.17.7-.35,1.39-.52,2.07h0c-.07.28-.15.56-.22.84h0c-.21.82-.42,1.64-.64,2.45l-.36,1.36-.39,1.44q-1.35,5-2.8,9.79c-.07.25-.15.49-.22.74-.16.53-.33,1.06-.49,1.6-.07.24-.15.48-.22.72-.27.89-.55,1.76-.83,2.64-.2.64-.4,1.27-.61,1.9-.47,1.47-1,2.93-1.44,4.37-.21.64-.43,1.28-.64,1.91s-.51,1.47-.76,2.2c-.08.21-.15.41-.22.62h0c-.24.66-.47,1.32-.7,2l0,.06c0,.13-.1.26-.14.39l-.72,2c0,.13-.09.26-.14.39l-.73,2c0,.12-.09.25-.14.37q-1.3,3.46-2.64,6.8c-.94,2.36-1.9,4.68-2.87,6.94-.11.25-.21.5-.33.75q-.5,1.18-1,2.34c-.14.34-.29.67-.44,1h0q-2.76,6.18-5.6,11.77h0c-.15.31-.3.61-.46.91-.49,1-1,1.92-1.49,2.86l-.27.51c-2.72,5.1-5.45,9.74-8.16,13.88-.26.38-.51.77-.76,1.15-.73,1.08-1.45,2.12-2.17,3.13q-2.39,3.34-4.71,6.11l-.65.76h0l-.08.09h0c-.89,1-1.77,2-2.65,2.89l-.68.69a34.31,34.31,0,0,1-7,5.53h0a12.17,12.17,0,0,1-7.57,1.92,7.84,7.84,0,0,1-1.65-.42l-.09,0h0a10.2,10.2,0,0,1-1.41-.69h0c-.12-.07-.24-.14-.35-.22l-.25-.16c-8-5.56-11.84-23.55-11.84-23.55l4.56-2.85s-5.42-20-5.19-22.14,5.19-7.17,5.19-7.17c-4.75-11-7.19-33.08-4.47-66.53q.38-4.62.89-9.54c0-.34.07-.69.1-1q.31-2.91.58-6.37Z"/>
      <path class="cls-10" d="M122.23,6.63q-.74,7-1.54,13.58c-.4,3.38-.83,6.67-1.26,9.89-.06.38-.11.77-.16,1.14q-.76,5.61-1.59,10.9h0c-.54,3.49-1.09,6.87-1.67,10.16q-1.1,6.41-2.3,12.33c-2.15,10.7-4.48,20.23-7,28.67-.45,1.55-.91,3-1.38,4.52-9.44,29.88-21,45.16-33.2,50.73l-.17.08,0,0c-1.06.5-4,.88-7.49,1l-1,0c-2.06,0-4.3-.05-6.5-.24-3.82-.34-7.52-1-10-2.3l-.09-.05c-.2-.1-.4-.21-.58-.32a7.66,7.66,0,0,1-.78-.54h0a10.54,10.54,0,0,0,1.35.22l.26,0A13,13,0,0,0,54.05,145a24.5,24.5,0,0,0,6.77-5.23q1.38-1.45,2.78-3.24a86,86,0,0,0,10-17.12c8.18-17.82,16.15-45,23-83.44.31-1.7.61-3.43.92-5.18l.15-1h0c.27-1.61.55-3.24.82-4.89q1.44-8.79,2.81-18.29Z"/>
      <g>
        <path class="cls-11" d="M108.37,36.3a2.5,2.5,0,0,0,.38-.41,3.52,3.52,0,0,1-.18.4,2.92,2.92,0,0,0,.62-1,5.71,5.71,0,0,0,.27-2.51,3.15,3.15,0,0,0-.28-1,1.3,1.3,0,0,0-.7-.72.58.58,0,0,0-.14,0,.87.87,0,0,0-.77.27,2.62,2.62,0,0,0-.49.67,5.73,5.73,0,0,0-.54,1.52,5.58,5.58,0,0,0-.12,1.63c.06.53.21,1.13.7,1.34a.31.31,0,0,0,.13,0h.28c0-.13-.25,1.17-.13.62h0l0-.14a1.36,1.36,0,0,0,0-.18v0h0v-.39h0v0c0,.14,0,.28,0,.43h0v.08a1.22,1.22,0,0,1,0,.22v.05h0c.09-.41-.19.91.19-.91h-.06l-.13,0h-.07l0,0-.1-.06a1.23,1.23,0,0,1-.43-1,3.45,3.45,0,0,1,.12-1.08,2.17,2.17,0,0,1,.38-.84c.15-.2.41-.38.68-.14a1.26,1.26,0,0,1,.18,1.09,1.9,1.9,0,0,1-.35.82.49.49,0,0,1-.25.16s0,0,.06.12a.54.54,0,0,1,0,.28s0,.06,0,.09l0,0h0l-.34,0h0c-.06-.36.45,3.18.24,1.68h0c.14-2.9,0-.8.07-1.45h0l0,0,0,.05,0,.1a.27.27,0,0,0,.11.19h0c0,.47.05-1.06,0,1.06h0c-.25-1.71-.06-.47-.11-.86h.32l.1.06c.29.14.79-.1,1.13-.69a2.43,2.43,0,0,1-.23.25A1.87,1.87,0,0,1,108.37,36.3Z"/>
        <path class="cls-11" d="M109.59,38A6.46,6.46,0,0,0,110.4,37a6.59,6.59,0,0,1-.47.86,8.1,8.1,0,0,0,1.3-2.31,15.8,15.8,0,0,0,.88-5.91,9.54,9.54,0,0,0-.48-2.67,4.88,4.88,0,0,0-.6-1.21,2.52,2.52,0,0,0-1-.91,1.79,1.79,0,0,0-.35-.11,2.12,2.12,0,0,0-2,.6,6.37,6.37,0,0,0-1.26,1.7A15.09,15.09,0,0,0,105,31a14.81,14.81,0,0,0-.3,4.2,7,7,0,0,0,.45,2,2.79,2.79,0,0,0,1.3,1.54,3.66,3.66,0,0,0,.35.12h.33c.15,0,.22-.05.2-.1s-.09-.12-.22-.17l-.07,0s-.11,0-.12,0l-.14-.06a2.29,2.29,0,0,1-.31-.16,2.67,2.67,0,0,1-1.1-1.47A6.72,6.72,0,0,1,105,35a13.46,13.46,0,0,1,.33-3.65,11.58,11.58,0,0,1,1.23-3.26,4.14,4.14,0,0,1,1.07-1.24,1.49,1.49,0,0,1,1.56-.2,2,2,0,0,1,.71.57,3.37,3.37,0,0,1,.44.84,5.89,5.89,0,0,1,.32,1.84,11.16,11.16,0,0,1-.41,3.41c-.15.53-.37,1-.59,1.55a9.26,9.26,0,0,1-1,2.19,4,4,0,0,1-.71.76l-.17.12-.08.07h-.19v0a1.37,1.37,0,0,0-.13.2c-.17.12-.17.25,0,.38a.77.77,0,0,0,.21.17l.08,0h.18l.25,0a2.23,2.23,0,0,0,1.25-.53,5.32,5.32,0,0,0,1.25-1.55l-.14.2c-.08.12-.2.28-.32.43a4.92,4.92,0,0,1-.35.39Z"/>
        <path class="cls-11" d="M111,40a9,9,0,0,0,1.4-1.75,8.06,8.06,0,0,1-.39.71,6.74,6.74,0,0,1-.46.68,11,11,0,0,0,2.13-3.83,20.05,20.05,0,0,0,.88-4.82,16.79,16.79,0,0,0-.24-4,10.72,10.72,0,0,0-1.08-3.19,6.81,6.81,0,0,0-1-1.36,4,4,0,0,0-1.47-1,3.57,3.57,0,0,0-.46-.16,3.49,3.49,0,0,0-1.4,0,3.88,3.88,0,0,0-1.23.47,7.09,7.09,0,0,0-1.83,1.66,15.16,15.16,0,0,0-2.51,4.94,19.62,19.62,0,0,0-.74,3.29,16.09,16.09,0,0,0-.15,3.69,9.36,9.36,0,0,0,.93,3.54,4.81,4.81,0,0,0,2.38,2.29,3.81,3.81,0,0,0,.58.18l.13,0h0l.26,0c.32,0,.49,0,.45-.09a1.62,1.62,0,0,0-.56-.2l-.1,0,0,0-.25-.1a2.73,2.73,0,0,1-.54-.23c-1.9-1-2.69-3.35-2.79-5.63a19.15,19.15,0,0,1,.84-6.33A15.34,15.34,0,0,1,106.06,24a6.51,6.51,0,0,1,1.71-1.64,3,3,0,0,1,.54-.27l.29-.12.31-.06a1.1,1.1,0,0,1,.31,0h.33l.32.05.16,0,.16,0a3.52,3.52,0,0,1,1.17.69,4.38,4.38,0,0,1,.81,1.07,7.8,7.8,0,0,1,.82,2.51,15.25,15.25,0,0,1-.18,5.5,24.45,24.45,0,0,1-.88,2.95A13.52,13.52,0,0,1,109.75,39a5.38,5.38,0,0,1-1.44,1.22l-.33.16-.15.08h0l-.08,0a3,3,0,0,0-.49.21c-.17.12-.17.25,0,.38a1.85,1.85,0,0,0,.54.16l.2,0c-.17,0-.08,0-.06,0h.49a4.34,4.34,0,0,0,2.07-.8,7.41,7.41,0,0,0,2.14-2.5l-.23.34a5,5,0,0,1-.54.71,4.74,4.74,0,0,1-.59.64Z"/>
        <path class="cls-11" d="M112.41,42a11.3,11.3,0,0,0,2-2.46l-.27.51c-.1.17-.21.32-.32.48a7.11,7.11,0,0,1-.67.93,13.89,13.89,0,0,0,3-5.39,23.48,23.48,0,0,0,1-6.62,16.48,16.48,0,0,0-.72-5,9.48,9.48,0,0,0-1.85-3.32,7.93,7.93,0,0,0-1.34-1.23c-.26-.18-.55-.34-.84-.51a9,9,0,0,0-1-.39l-.54-.19a11.67,11.67,0,0,0-1.64-.13,6.18,6.18,0,0,0-1.44.24,7.47,7.47,0,0,0-2.31,1.2,12.37,12.37,0,0,0-3.76,5.34,22.2,22.2,0,0,0-1.28,4.45c-.07.42-.16.82-.2,1.27l-.14,1.33a19.7,19.7,0,0,0,0,2.77,11.43,11.43,0,0,0,1.49,5.15,7,7,0,0,0,3.56,3,7.78,7.78,0,0,0,.82.22l.18,0-.1,0,.41,0c.5,0,.77,0,.7,0a3.69,3.69,0,0,0-.9-.25l-.1,0h0l0,0-.35-.11A5.57,5.57,0,0,1,105,43a6.7,6.7,0,0,1-3.26-3,11.49,11.49,0,0,1-1.22-5,21.9,21.9,0,0,1,.4-5,23.58,23.58,0,0,1,1.22-4.11,15.58,15.58,0,0,1,1.64-3,10.28,10.28,0,0,1,1.87-2,6.73,6.73,0,0,1,2.17-1.18,4.27,4.27,0,0,1,.64-.15l.34-.06.37,0a7.21,7.21,0,0,1,1.51.17,7.9,7.9,0,0,1,1.44.66,5.9,5.9,0,0,1,1.09.95,7.49,7.49,0,0,1,1.43,2.39,12,12,0,0,1,.72,3,19.27,19.27,0,0,1,0,3.57,26.1,26.1,0,0,1-.88,4.33,20.82,20.82,0,0,1-1.41,3.75c-.16.28-.3.58-.47.85s-.34.52-.5.78l-.56.68c-.18.23-.39.41-.57.6a7.69,7.69,0,0,1-2.3,1.48l-.5.17-.22.08,0,0h.2l-.14,0c-.36.09-.66.15-.86.22s-.17.25,0,.38a2.94,2.94,0,0,0,.88.15l.31,0-.23,0h.67a6.36,6.36,0,0,0,2.9-1,9.74,9.74,0,0,0,3.07-3.47l-.32.49a8.07,8.07,0,0,1-.76,1,5.28,5.28,0,0,1-.42.5l-.41.39Z"/>
      </g>
      <path class="cls-11" d="M94,80.43c-.76,5.72,9.47,5.86,10.93,4.6S112.28,61,116.34,43.17c-3.48,14.24-9.08,77.87-38.83,100.62,7.26-7.19,13.26-17.56,12.42-23.37,0,0-3.79-3.71-9.4.06-6.59,13.6-16.18,24.42-23.77,25.89,17.75-10.52,32.7-60.08,41.5-107.8C100.77,40,96.26,63.47,94,80.43Z"/>
      <g>
        <path class="cls-12" d="M90.58,108.26a2.81,2.81,0,0,0,.44-.35,3.75,3.75,0,0,1-.24.36,2.94,2.94,0,0,0,.77-.89,5.77,5.77,0,0,0,.67-2.44,3.11,3.11,0,0,0-.12-1,1.28,1.28,0,0,0-.57-.82.58.58,0,0,0-.14,0,.89.89,0,0,0-.8.14,2.5,2.5,0,0,0-.59.58,6,6,0,0,0-1.16,3,1.53,1.53,0,0,0,.48,1.43.67.67,0,0,0,.12.06h0l.13,0,.06,0h.06c0-.13-.44,1.11-.23.59h0a1.21,1.21,0,0,0,.05-.14l0-.17v0h0l.08-.39h0v0l-.09.42h0v0s0,0,0,.05a.82.82,0,0,1-.06.22v0h0a9,9,0,1,1,.33-.87h-.06l-.12,0-.06,0h0l0,0-.09-.07a1.22,1.22,0,0,1-.26-1.07,3.86,3.86,0,0,1,.28-1.05A2.65,2.65,0,0,1,90,105c.19-.17.47-.31.69,0a1.25,1.25,0,0,1,0,1.1,1.79,1.79,0,0,1-.47.75.48.48,0,0,1-.28.12c-.05,0,0,0,0,.13a.64.64,0,0,1,0,.28l0,.08,0,0h0l-.34,0h0c0-.37-.06,3.21,0,1.7h0c.6-2.85.16-.79.3-1.42h0l0,0,0,0a.14.14,0,0,0,0,.09.24.24,0,0,0,.07.21h0c-.1.46.22-1-.22,1h0v0h0c0-1.73,0-.48,0-.86h0l.16,0h.12a.36.36,0,0,0,.09.08c.26.18.79,0,1.23-.5a2.13,2.13,0,0,1-.28.2A1.42,1.42,0,0,1,90.58,108.26Z"/>
        <path class="cls-12" d="M91.51,110.15a8.4,8.4,0,0,0,1-.92,6.24,6.24,0,0,1-.6.78,8,8,0,0,0,1.64-2.08,15.51,15.51,0,0,0,1.82-5.69,9.45,9.45,0,0,0,0-2.71,4.5,4.5,0,0,0-.4-1.29A2.5,2.5,0,0,0,94,97.17a2.06,2.06,0,0,0-.33-.17,2.14,2.14,0,0,0-2.05.28,6.29,6.29,0,0,0-1.52,1.48,14.79,14.79,0,0,0-2,3.69,14.51,14.51,0,0,0-1,4.1,7.29,7.29,0,0,0,.11,2.09,2.76,2.76,0,0,0,1,1.72,2.19,2.19,0,0,0,.33.18l.08,0,.13,0H89c.15,0,.22,0,.22-.08s-.08-.13-.19-.19l-.07,0-.12,0-.13-.09a2.43,2.43,0,0,1-.28-.2,2.74,2.74,0,0,1-.84-1.63,6.44,6.44,0,0,1,0-1.86,13.32,13.32,0,0,1,.9-3.55,11.2,11.2,0,0,1,1.74-3,4.1,4.1,0,0,1,1.26-1.06A1.49,1.49,0,0,1,93,98.9a2,2,0,0,1,.62.68,3.66,3.66,0,0,1,.3.9,6.51,6.51,0,0,1,0,1.87,11.27,11.27,0,0,1-1,3.3c-.23.5-.51.9-.82,1.44a9.94,9.94,0,0,1-1.39,2,3.59,3.59,0,0,1-.82.64l-.19.1-.09,0h0l-.15,0h0l0,0a1.43,1.43,0,0,0-.15.18c-.19.09-.21.22-.09.37a.65.65,0,0,0,.18.2l.07.05.13,0,0,0,.24.06a2.25,2.25,0,0,0,1.32-.32,5.14,5.14,0,0,0,1.48-1.33l-.17.18c-.1.1-.24.24-.38.36a4.56,4.56,0,0,1-.41.33Z"/>
        <path class="cls-12" d="M92.56,112.3a9.07,9.07,0,0,0,1.67-1.5,6.22,6.22,0,0,1-.51.64,5.3,5.3,0,0,1-.56.6,10.88,10.88,0,0,0,2.72-3.45A19.43,19.43,0,0,0,97.52,104a16.51,16.51,0,0,0,.4-4,11,11,0,0,0-.55-3.32,6.39,6.39,0,0,0-.72-1.49,3.87,3.87,0,0,0-1.29-1.25,3,3,0,0,0-.43-.24,3.49,3.49,0,0,0-1.37-.27,3.85,3.85,0,0,0-1.29.26A7.18,7.18,0,0,0,90.2,95a15.15,15.15,0,0,0-3.27,4.48,19.33,19.33,0,0,0-1.26,3.12,16.25,16.25,0,0,0-.73,3.62,9,9,0,0,0,.35,3.65,4.81,4.81,0,0,0,2,2.64,5.5,5.5,0,0,0,.55.27l.13.05h0l.25.06c.32.06.49,0,.46,0a1.79,1.79,0,0,0-.52-.29l-.09,0,0,0-.22-.14a2.72,2.72,0,0,1-.5-.31c-1.73-1.26-2.12-3.74-1.85-6A18.92,18.92,0,0,1,87.28,100a14.94,14.94,0,0,1,3-4.25,6.22,6.22,0,0,1,1.94-1.35,3.58,3.58,0,0,1,.58-.19,2.84,2.84,0,0,1,.31-.06l.31,0a1.15,1.15,0,0,1,.32,0l.32,0,.31.1.16,0,.14.08a3.42,3.42,0,0,1,1,.87,4.63,4.63,0,0,1,.63,1.18,7.91,7.91,0,0,1,.4,2.61,15.56,15.56,0,0,1-1,5.41,23.74,23.74,0,0,1-1.35,2.76,13.62,13.62,0,0,1-2.83,3.89,5.56,5.56,0,0,1-1.61,1l-.36.1-.16,0h0l-.08,0a3,3,0,0,0-.52.13c-.19.09-.21.22-.09.37a2.18,2.18,0,0,0,.51.25l.19,0c-.16,0-.08,0-.06,0h.09l.4.07a4.23,4.23,0,0,0,2.16-.46,7.4,7.4,0,0,0,2.52-2.12l-.28.3a6.59,6.59,0,0,1-.65.62,5.32,5.32,0,0,1-.68.53Z"/>
        <path class="cls-12" d="M93.65,114.53A11.27,11.27,0,0,0,96,112.42c-.11.16-.23.31-.35.46s-.26.28-.39.43a6.88,6.88,0,0,1-.81.81,14,14,0,0,0,3.8-4.85,23.55,23.55,0,0,0,2-6.37,16.17,16.17,0,0,0,.08-5A9.23,9.23,0,0,0,99.1,94.3,7.18,7.18,0,0,0,98,92.87a9.46,9.46,0,0,0-.74-.64,10.16,10.16,0,0,0-.92-.55l-.51-.26a11,11,0,0,0-1.6-.4,5.91,5.91,0,0,0-1.46,0,7.26,7.26,0,0,0-2.47.81,12.58,12.58,0,0,0-4.57,4.67,22.72,22.72,0,0,0-2,4.19c-.13.41-.29.78-.41,1.22L83,103.21a20.44,20.44,0,0,0-.44,2.73,11.57,11.57,0,0,0,.65,5.33,6.93,6.93,0,0,0,3,3.49,8.22,8.22,0,0,0,.77.35l.18.07-.09-.05.39.11c.49.11.76.12.7.05a4.12,4.12,0,0,0-.85-.38l-.09,0,0,0h.09l0,0-.33-.17a5.82,5.82,0,0,1-.72-.4,6.67,6.67,0,0,1-2.72-3.53,11.36,11.36,0,0,1-.41-5.09,21.3,21.3,0,0,1,1.19-4.87,23.26,23.26,0,0,1,1.87-3.87,15.17,15.17,0,0,1,2.1-2.71,10,10,0,0,1,2.16-1.66,6.7,6.7,0,0,1,2.32-.82,4.8,4.8,0,0,1,.67,0h.34l.37,0a9.14,9.14,0,0,1,1.46.41,7.92,7.92,0,0,1,1.31.89,5.65,5.65,0,0,1,.93,1.11,7.6,7.6,0,0,1,1,2.59A11.65,11.65,0,0,1,99,99.79a18.42,18.42,0,0,1-.55,3.52,26.3,26.3,0,0,1-1.56,4.14,20.82,20.82,0,0,1-2,3.47c-.2.26-.39.53-.6.76l-.62.69-.66.59a7.27,7.27,0,0,1-.67.5,8,8,0,0,1-2.5,1.1l-.52.09-.23,0h.16l-.14,0c-.37,0-.67.05-.88.08s-.21.22-.09.37a3.52,3.52,0,0,0,.85.29l.31.07h-.25l.12,0,.55.08a6.38,6.38,0,0,0,3-.56,9.68,9.68,0,0,0,3.58-2.93l-.4.43a8.44,8.44,0,0,1-.9.88c-.18.14-.33.31-.51.43l-.46.32Z"/>
      </g>
      <g>
        <path class="cls-11" d="M102.6,70.7a2.1,2.1,0,0,0,.4-.39,2.4,2.4,0,0,1-.2.39,2.91,2.91,0,0,0,.68-1,5.62,5.62,0,0,0,.43-2.49,3,3,0,0,0-.21-1,1.3,1.3,0,0,0-.65-.76l-.14,0a.89.89,0,0,0-.79.22,2.44,2.44,0,0,0-.53.63,5.72,5.72,0,0,0-.64,1.48,5.62,5.62,0,0,0-.22,1.63,1.53,1.53,0,0,0,.6,1.38l.14,0h0l.12,0h.13c0-.13-.33,1.15-.17.6h0a.93.93,0,0,0,0-.13.69.69,0,0,0,0-.18v0h0l0-.39h0v0c0,.14,0,.28-.05.42h0v.08a.68.68,0,0,1,0,.21v0h0c.11-.39-.26.9.25-.89h-.06l-.14,0h-.06l0,0-.1-.06a1.26,1.26,0,0,1-.36-1,3.62,3.62,0,0,1,.19-1.06,2.35,2.35,0,0,1,.43-.82c.17-.19.44-.35.68-.09a1.25,1.25,0,0,1,.12,1.1,1.81,1.81,0,0,1-.4.79.51.51,0,0,1-.26.15s0,0,0,.12a1,1,0,0,1,0,.28l0,.09v0h-.38c0-.37.25,3.2.13,1.68h0c.32-2.89.09-.8.16-1.45h0l0,0,0,.05a.18.18,0,0,0,0,.09.26.26,0,0,0,.09.2h0c0,.47.12-1-.12,1.06h0c-.14-1.72,0-.47,0-.86h.28s0,0,0,0h0a.31.31,0,0,0,.09.07c.28.15.8,0,1.18-.62a2,2,0,0,1-.26.23A1.4,1.4,0,0,1,102.6,70.7Z"/>
        <path class="cls-11" d="M103.7,72.5a7.08,7.08,0,0,0,.88-1,8.16,8.16,0,0,1-.52.83,8.25,8.25,0,0,0,1.44-2.22,15.65,15.65,0,0,0,1.26-5.84,9.33,9.33,0,0,0-.3-2.7,4.67,4.67,0,0,0-.52-1.25,2.5,2.5,0,0,0-1-1,2,2,0,0,0-.34-.14,2.12,2.12,0,0,0-2,.47,6.46,6.46,0,0,0-1.38,1.62,15.51,15.51,0,0,0-1.63,3.87A14.74,14.74,0,0,0,99,69.34a7.14,7.14,0,0,0,.31,2.06,2.86,2.86,0,0,0,1.2,1.62,1.7,1.7,0,0,0,.35.14l.07,0,.14,0h.11c.15,0,.22,0,.21-.1s-.09-.12-.21-.17l-.07,0-.12,0-.14-.08a3.18,3.18,0,0,1-.3-.17,2.7,2.7,0,0,1-1-1.54,6.79,6.79,0,0,1-.22-1.85,12.85,12.85,0,0,1,.56-3.62,11.38,11.38,0,0,1,1.44-3.18,4.14,4.14,0,0,1,1.15-1.17,1.5,1.5,0,0,1,1.57-.1,2,2,0,0,1,.67.62,3.09,3.09,0,0,1,.39.87,6.51,6.51,0,0,1,.2,1.86,11.28,11.28,0,0,1-.64,3.37c-.18.52-.43,1-.68,1.51a9.67,9.67,0,0,1-1.19,2.11,3.89,3.89,0,0,1-.76.72l-.18.11-.09.06h-.16s0,0,0,0l0,0a1.56,1.56,0,0,0-.14.19c-.18.11-.19.24,0,.38a.9.9,0,0,0,.2.18l.08,0h.18l.24,0a2.19,2.19,0,0,0,1.29-.44,5.26,5.26,0,0,0,1.35-1.47l-.16.19a3.86,3.86,0,0,1-.35.41,3.07,3.07,0,0,1-.37.36Z"/>
        <path class="cls-11" d="M105,74.54a9.24,9.24,0,0,0,1.51-1.66,6.2,6.2,0,0,1-.44.69,5.34,5.34,0,0,1-.5.65,10.82,10.82,0,0,0,2.38-3.69,19.66,19.66,0,0,0,1.19-4.75,17.21,17.21,0,0,0,0-4,10.87,10.87,0,0,0-.87-3.26,6.42,6.42,0,0,0-.86-1.41A3.84,3.84,0,0,0,106,56a3.57,3.57,0,0,0-.45-.19,3.34,3.34,0,0,0-1.4-.14,3.73,3.73,0,0,0-1.25.39A7.06,7.06,0,0,0,101,57.58a15.28,15.28,0,0,0-2.82,4.77,20.74,20.74,0,0,0-1,3.23,17,17,0,0,0-.38,3.68,9.23,9.23,0,0,0,.7,3.59,4.8,4.8,0,0,0,2.22,2.45,5.79,5.79,0,0,0,.57.21l.13,0h0l.26,0c.31,0,.49,0,.45,0a1.62,1.62,0,0,0-.54-.24l-.1,0,0,0-.23-.11a3.31,3.31,0,0,1-.53-.27c-1.84-1.09-2.47-3.52-2.42-5.8a19.13,19.13,0,0,1,1.25-6.26,15.16,15.16,0,0,1,2.57-4.52,6.33,6.33,0,0,1,1.81-1.53,3.15,3.15,0,0,1,.56-.24c.1,0,.19-.07.29-.09l.32,0a1.13,1.13,0,0,1,.32,0l.32,0,.32.07a.76.76,0,0,0,.16,0l.15.07a3.39,3.39,0,0,1,1.13.77,4.27,4.27,0,0,1,.73,1.11,7.74,7.74,0,0,1,.66,2.56,15.33,15.33,0,0,1-.54,5.48,23,23,0,0,1-1.07,2.88,13.93,13.93,0,0,1-2.45,4.15,5.58,5.58,0,0,1-1.52,1.12l-.34.14-.15.06h0s0,0,0,0l0,0-.08,0a3.77,3.77,0,0,0-.51.17c-.18.12-.19.25,0,.39a1.91,1.91,0,0,0,.54.19l.19,0c-.16,0-.08,0-.06,0h.09l.4,0a4.38,4.38,0,0,0,2.11-.66,7.45,7.45,0,0,0,2.31-2.36l-.25.33a8.1,8.1,0,0,1-.59.67,4.86,4.86,0,0,1-.63.6Z"/>
        <path class="cls-11" d="M106.26,76.65a11.41,11.41,0,0,0,2.16-2.32l-.3.49c-.11.16-.23.31-.35.46a6.32,6.32,0,0,1-.73.88A13.91,13.91,0,0,0,110.36,71a23.45,23.45,0,0,0,1.41-6.54,16,16,0,0,0-.4-5A9.31,9.31,0,0,0,109.75,56a8.16,8.16,0,0,0-1.26-1.31,8.85,8.85,0,0,0-.81-.57,8.49,8.49,0,0,0-1-.45l-.53-.22a12.11,12.11,0,0,0-1.63-.24,6.12,6.12,0,0,0-1.46.15,7.47,7.47,0,0,0-2.38,1,12.47,12.47,0,0,0-4.1,5.09,21.8,21.8,0,0,0-1.56,4.35c-.1.42-.22.81-.29,1.26l-.23,1.32a20.87,20.87,0,0,0-.17,2.76,11.33,11.33,0,0,0,1.15,5.23,6.43,6.43,0,0,0,4.16,3.46l.18.06-.09,0,.4.07c.49.07.76,0,.7,0a3.93,3.93,0,0,0-.88-.3l-.1,0,0,0h.09l0,0-.34-.13a6.87,6.87,0,0,1-.75-.33,6.71,6.71,0,0,1-3-3.25,11.47,11.47,0,0,1-.9-5,21.65,21.65,0,0,1,.72-5,23.48,23.48,0,0,1,1.49-4A16,16,0,0,1,98.89,57a10.09,10.09,0,0,1,2-1.86,6.66,6.66,0,0,1,2.24-1,4.19,4.19,0,0,1,.65-.11l.34,0h.37a7.79,7.79,0,0,1,1.49.27,8.83,8.83,0,0,1,1.4.75,6.22,6.22,0,0,1,1,1,7.67,7.67,0,0,1,1.27,2.48,11.84,11.84,0,0,1,.52,3A18.34,18.34,0,0,1,110,65a25.41,25.41,0,0,1-1.15,4.26,20.06,20.06,0,0,1-1.65,3.65c-.18.28-.34.56-.52.81l-.56.75-.6.65a7.92,7.92,0,0,1-.61.56A7.65,7.65,0,0,1,102.5,77l-.5.14-.23.06h0s.06,0,.1,0h.09l-.13,0c-.37.06-.67.11-.88.16s-.19.24,0,.39a3.76,3.76,0,0,0,.87.2l.32,0-.23,0h.1l.56,0a6.58,6.58,0,0,0,3-.84A9.78,9.78,0,0,0,108.74,74l-.35.47a8.12,8.12,0,0,1-.82,1c-.16.16-.3.35-.46.48l-.43.36Z"/>
      </g>
      <g>
        <path class="cls-11" d="M74.32,138.85a2.78,2.78,0,0,0,.5-.23,2.8,2.8,0,0,1-.31.28,2.79,2.79,0,0,0,.93-.66,5.16,5.16,0,0,0,1.14-2.06,2.71,2.71,0,0,0,.08-.93,1.11,1.11,0,0,0-.41-.84.47.47,0,0,0-.12-.07.94.94,0,0,0-.82,0,2.8,2.8,0,0,0-.69.41,5.52,5.52,0,0,0-1,1.13,4.57,4.57,0,0,0-.68,1.36,1.28,1.28,0,0,0,.18,1.36l.12.07h0l.12.05.06,0h0l-.34.49h0l.08-.11.07-.15a0,0,0,0,1,0,0h0l.15-.32h0s0,0,0,0-.12.24-.17.36h0v0a.17.17,0,0,1,0,.05l-.1.18,0,0h0l.5-.71h-.05l-.12-.06-.06,0h0l0,0-.07-.07a1,1,0,0,1-.05-1,3.16,3.16,0,0,1,.49-.88,2.27,2.27,0,0,1,.65-.6c.21-.12.52-.19.68.1a1.09,1.09,0,0,1-.21,1,1.76,1.76,0,0,1-.61.59.64.64,0,0,1-.29.06s0,0,0,.11a.59.59,0,0,1-.1.24l0,.07,0,0h0l-.33-.09h0c.07-.34-.68,2.86-.36,1.5h0c1.14-2.43.31-.67.57-1.21h-.07l-.06,0a.13.13,0,0,0-.06.07.19.19,0,0,0,0,.2h0c-.18.39.42-.89-.41.89h0c.36-1.53.11-.42.2-.76h0l.15.05.08,0h0v0l.07.08c.23.2.78.16,1.31-.23a2.78,2.78,0,0,1-.31.13A1.94,1.94,0,0,1,74.32,138.85Z"/>
        <path class="cls-11" d="M74.86,140.71a7.6,7.6,0,0,0,1.14-.65,8.86,8.86,0,0,1-.75.59,8.29,8.29,0,0,0,2-1.56,13.85,13.85,0,0,0,2.89-4.77,8,8,0,0,0,.49-2.43,3.7,3.7,0,0,0-.14-1.23,2.27,2.27,0,0,0-.67-1.11,2,2,0,0,0-.28-.21,2.3,2.3,0,0,0-2.06-.12,6.67,6.67,0,0,0-1.79,1.06A13.57,13.57,0,0,0,73,133.23a13,13,0,0,0-1.76,3.49,6.11,6.11,0,0,0-.29,1.89,2.42,2.42,0,0,0,.68,1.72,1.48,1.48,0,0,0,.3.21l.06.05.12,0,.12,0c.14,0,.22,0,.22,0s0-.13-.15-.21,0,0-.06,0-.1,0-.1-.07l-.11-.1a1.73,1.73,0,0,1-.24-.23,2.28,2.28,0,0,1-.51-1.6,5.62,5.62,0,0,1,.32-1.67,11.6,11.6,0,0,1,1.58-3,10.67,10.67,0,0,1,2.3-2.39,4.15,4.15,0,0,1,1.44-.72,1.58,1.58,0,0,1,1.52.32,1.8,1.8,0,0,1,.47.72,2.79,2.79,0,0,1,.12.86,5.23,5.23,0,0,1-.34,1.67,9.84,9.84,0,0,1-1.58,2.78c-.33.41-.68.71-1.09,1.14a9.84,9.84,0,0,1-1.75,1.53,3.84,3.84,0,0,1-.93.43l-.21.05-.1,0h0l-.15,0h0l0,0a1.07,1.07,0,0,0-.19.13c-.2.05-.25.16-.16.32a1,1,0,0,0,.14.21l.06.06.12.05,0,0,.22.1a2.46,2.46,0,0,0,1.36-.05,5.59,5.59,0,0,0,1.71-.93l-.2.13c-.12.08-.29.17-.45.26s-.33.16-.46.22Z"/>
        <path class="cls-11" d="M75.48,142.83a10,10,0,0,0,1.92-1.05,6,6,0,0,1-.62.48,6.77,6.77,0,0,1-.66.43,10.46,10.46,0,0,0,3.33-2.59A17.23,17.23,0,0,0,82,136.26a14.11,14.11,0,0,0,1.17-3.48,8.87,8.87,0,0,0,.1-3.07,5.24,5.24,0,0,0-.41-1.46,3.58,3.58,0,0,0-1-1.35c-.11-.11-.25-.19-.37-.29a4,4,0,0,0-1.3-.49,4.41,4.41,0,0,0-1.31,0,7.55,7.55,0,0,0-2.3.84,14.89,14.89,0,0,0-4.08,3.42A18.37,18.37,0,0,0,70.6,133a14,14,0,0,0-1.42,3.11,7.64,7.64,0,0,0-.37,3.32,4.25,4.25,0,0,0,1.42,2.71,4.36,4.36,0,0,0,.49.34l.11.07h0l.24.09c.29.11.47.14.45.08a1.58,1.58,0,0,0-.46-.35l-.08-.06,0,0-.19-.16a2.92,2.92,0,0,1-.43-.37C68.9,140.28,69,138,69.7,136a16.81,16.81,0,0,1,3-5.15,14.93,14.93,0,0,1,3.77-3.27,6.84,6.84,0,0,1,2.17-.86,3.93,3.93,0,0,1,.6-.06h.31l.31,0a1.08,1.08,0,0,1,.31.07l.31.11.28.14.15.07.12.1a3,3,0,0,1,.86,1,3.51,3.51,0,0,1,.38,1.16,6.34,6.34,0,0,1-.1,2.41,13.26,13.26,0,0,1-2.1,4.64,21.26,21.26,0,0,1-1.85,2.23,13.51,13.51,0,0,1-3.54,3,6,6,0,0,1-1.77.58l-.37,0-.17,0h-.1a2.85,2.85,0,0,0-.53,0c-.21,0-.25.16-.16.32a2,2,0,0,0,.45.31l.18.08c-.16,0-.08,0-.06,0l.08,0,.38.13a4.69,4.69,0,0,0,2.21,0,7.69,7.69,0,0,0,2.89-1.45l-.34.22a8.15,8.15,0,0,1-.76.44,4.56,4.56,0,0,1-.77.35Z"/>
        <path class="cls-11" d="M76.11,145a12.33,12.33,0,0,0,2.75-1.46l-.44.35-.46.31a9.41,9.41,0,0,1-1,.58,13.74,13.74,0,0,0,4.67-3.66,20.61,20.61,0,0,0,3.24-5.34A13.59,13.59,0,0,0,86,131.31a7.75,7.75,0,0,0-.57-3.42,6.85,6.85,0,0,0-.83-1.48c-.17-.23-.39-.47-.6-.7a7.31,7.31,0,0,0-.8-.65l-.45-.34a12.38,12.38,0,0,0-1.48-.63,7.14,7.14,0,0,0-1.44-.25,8,8,0,0,0-2.59.28,12.57,12.57,0,0,0-5.38,3.37,19.84,19.84,0,0,0-2.75,3.39c-.22.34-.44.65-.64,1l-.6,1.09a17,17,0,0,0-1,2.37,9.44,9.44,0,0,0-.4,4.87,6.16,6.16,0,0,0,2.29,3.66c.24.18.49.32.7.45l.15.09-.08-.05.37.16c.45.19.72.25.67.18a4.41,4.41,0,0,0-.75-.5l-.09-.05,0,0h0l0,0h0l0,0-.29-.21a5.26,5.26,0,0,1-.63-.48,6,6,0,0,1-2-3.64,9.67,9.67,0,0,1,.59-4.62,18.41,18.41,0,0,1,2.13-4.15,21,21,0,0,1,2.58-3.13,15.55,15.55,0,0,1,2.59-2.05,10.42,10.42,0,0,1,2.44-1.1,7.44,7.44,0,0,1,2.45-.32,5.38,5.38,0,0,1,.66.08l.34.06.35.09a8.64,8.64,0,0,1,1.35.63,7.91,7.91,0,0,1,1.12,1,5.37,5.37,0,0,1,.69,1.16,6.65,6.65,0,0,1,.51,2.5,10,10,0,0,1-.38,2.79A15.84,15.84,0,0,1,83,135.84a23.74,23.74,0,0,1-2.33,3.42A19.61,19.61,0,0,1,78.06,142c-.24.19-.48.4-.73.57l-.75.51-.76.41c-.25.13-.5.22-.75.33a8.27,8.27,0,0,1-2.66.53h-.79l.09,0,.14,0h0l-.14,0-.89-.08c-.2.05-.25.16-.15.32a3.61,3.61,0,0,0,.77.41l.29.11-.23,0-.08,0h0l.06,0,.11,0,.53.17a7.07,7.07,0,0,0,3.08,0,10,10,0,0,0,4.08-2l-.46.32a9.86,9.86,0,0,1-1.07.62c-.2.1-.38.22-.57.3l-.52.2Z"/>
      </g>
      <path class="cls-9" d="M37.28,47.36C35.85,44.7,37,74.59,42,77.58S72.4,61.31,80.66,49.87c-21.61,34.33-44.4,44.64-46.18,47S45.09,96.65,54,91c2.79.47,3.33,12.84,3.33,12.84S85.17,83.36,94,35.36a257.93,257.93,0,0,1-52.53-5.3C45.65,50.15,47,64.38,68.92,42.34,50.67,66.19,42.25,56.6,37.28,47.36Z"/>
      <path class="cls-9" d="M35.31,122.43c19-9.77,36.85-23.49,48-44.29C81.26,99.51,63.23,132.3,54,137.28S33,125.46,35.31,122.43Z"/>
      <path class="cls-13" d="M202,22.32A79.29,79.29,0,0,1,184.65,27c-5.42,1-11.52,1.75-18.1,2.37l-2,.19c-8,.71-16.68,1.18-25.66,1.44-3.16.08-6.35.15-9.58.18s-6.7.05-10.07,0h-4.75l-1.6,0h-.82l-1.42,0H110l-1.48,0h0l-.66,0L105.46,31H105L103.24,31l-.52,0-2-.06-.51,0-2.73-.1-1.06,0c-1.08,0-2.16-.09-3.23-.15q-5-.22-9.91-.53c-13.06-.83-25.24-2-35.39-3.6l-4.05-.66c-4-.68-7.54-1.42-10.67-2.21C31,23,29,22.42,27.25,21.8c.1-2.22.31-5.53.6-9.72.11-1.68.24-3.5.38-5.45h173.4C201.84,12.45,202,17.72,202,22.32Z"/>
      <path class="cls-14" d="M198.84,18.28c-3.12,2-7.92,3.71-14,5.23a177,177,0,0,1-18,3.36l-2,.27c-8,1-16.76,1.83-26,2.33-3.14.17-6.33.32-9.55.42s-6.54.18-9.84.21l-2.32,0H110l-4.25-.06h-.51l-1.79,0h0l-.53,0-2-.05-.52,0-2.74-.1h0l-1.23,0c-1,0-2.06-.08-3.09-.13q-5-.24-9.89-.61a253.3,253.3,0,0,1-35.4-4.85c-1.4-.31-2.76-.64-4.09-1-3.41-.86-6.59-1.81-9.49-2.85q.31-2.84.63-6.05c.24-2.4.49-5,.74-7.66H198.58C198.94,13,199.06,17.07,198.84,18.28Z"/>
      <path class="cls-15" d="M139.17,6.63q-1,.93-2.07,1.86c-2.27,2-4.71,3.91-7.18,5.72a92,92,0,0,1-9.23,6,47.41,47.41,0,0,1-4.32,2.18l-.74.31c-.41.16-.8.31-1.18.44l-.37.12c-.34.12-.68.21-1,.29s-.63.15-.92.2c-.63.1-1.42.21-2.34.31-1.16.14-2.54.27-4.1.4l-.68.05h0l-2.37.17-.67.05-3.52.19L96.41,25q-1.29.06-2.64.09c-3.12.1-6.45.15-9.85.14C70.84,25.18,56.62,24.15,48.3,21a19.29,19.29,0,0,1-4.07-2.06,7.55,7.55,0,0,1-2.68-3c0-.13-.11-.28-.16-.45a39.62,39.62,0,0,1-.87-8.86Z"/>
      <g>
        <path class="cls-16" d="M75.22,171.45c-1.8,1.32-10,4.59-13.47,10.88S50.41,197.89,35.5,201.48c-9.49,2.29-24.6,2.89-28.37-.86-2-2,2.09-12.55,5.72-15.62s16,9.17,29.08,1.49S74.74,164,75.58,166.11,76.46,170.54,75.22,171.45Z"/>
        <path class="cls-17" d="M32.07,160.11c-3.17,5.24-5.22,9-1.68,9.38s8-2.07,8-2.07-1.81,5.27,1.09,8.31c6.22,6.52,32.35-17.3,34.16-24.36,2.43,4.27,3.39,15.27,1.94,16.89s-11.79,5.52-15.14,11.66-11.06,15.19-25.62,18.7c-9.26,2.23-24,2.82-27.69-.84C5.22,195.87,10,181.11,18,173.22,23.17,168.19,32.07,160.11,32.07,160.11Z"/>
        <path class="cls-18" d="M27.93,165.27c-.28,3-.81,7.4,8.66,3.77-2.66,8.82,5.15,11.49,13.4,6.29,5.57-3.5,18.4-14.1,22.17-19.27-5,9.21-19.49,20.25-26.63,27.77s-33,11.57-34.9,8.58C9.3,190.32,13,175.46,27.93,165.27Z"/>
        <path class="cls-19" d="M10.38,200.41c-2.43-.4-1.27,1.47,5.51,2.15s24.85-2.13,30.77-7.54C32.33,200.67,20.24,202,10.38,200.41Z"/>
      </g>
      <g>
        <path class="cls-16" d="M211.28,182.82c1.89,1.67,1.16,5.71-6.7,9.42-9.09,4.29-20.83,6.91-37.1-.42s-20.43-7.32-30.15-8.42-14.38-2.55-15.42-5.65a12.49,12.49,0,0,1,0-4.7s13.5-5,30.66,4.5,22.5,12.35,36,9.73S211.28,182.82,211.28,182.82Z"/>
        <path class="cls-17" d="M124.85,156.2c5.22,5.23,14.43,8.37,26.36,9.84s15.91,5,22.81,8.55,17.8.7,13.19-6.33c7.33,8,22.19,9.71,24.07,11.38s1.16,5.71-6.7,9.42c-9.09,4.29-20.83,6.91-37.1-.42s-20.43-7.32-30.15-8.41-14.38-2.56-15.42-5.66S121.93,159.76,124.85,156.2Z"/>
        <path class="cls-18" d="M132,162.76C138.58,171,149.75,169,160.63,175s16.76,9.56,23.16,10.88c9.14,1.89,27.49-.14,26.79-5.44-.33-1.39-14.58-3.14-21.62-9.49,1,4.47-7.66,9-17.93,3-9.85-5.78-14-6.07-22.68-7.19S135,164,132,162.76Z"/>
        <path class="cls-19" d="M169.94,190.63c11.13,5.34,30.57,4.92,40.66-5C198.51,197.64,180.62,198.16,169.94,190.63Z"/>
      </g>
    </g>
  </g>
</svg>
