<svg xmlns="http://www.w3.org/2000/svg" xmlns:xlink="http://www.w3.org/1999/xlink" width="213.77" height="222.34" viewBox="0 0 213.77 222.34">
  <defs>
    <style>
      .cls-1 {
        isolation: isolate;
      }

      .cls-2 {
        opacity: 0.5;
      }

      .cls-20, .cls-3 {
        fill: #fff;
      }

      .cls-4 {
        fill: #cae1e5;
      }

      .cls-16, .cls-18, .cls-5 {
        mix-blend-mode: multiply;
      }

      .cls-5 {
        fill: url(#linear-gradient);
      }

      .cls-6 {
        fill: #b55e23;
      }

      .cls-7 {
        fill: url(#linear-gradient-2);
      }

      .cls-8 {
        fill: #db9556;
      }

      .cls-9 {
        fill: #ed8037;
      }

      .cls-10 {
        fill: url(#linear-gradient-3);
      }

      .cls-11 {
        fill: #d87430;
      }

      .cls-12 {
        fill: url(#linear-gradient-4);
      }

      .cls-13 {
        fill: url(#linear-gradient-5);
      }

      .cls-14 {
        fill: #aae8f9;
      }

      .cls-15 {
        fill: #cff6ff;
      }

      .cls-16 {
        fill: url(#linear-gradient-6);
      }

      .cls-17 {
        fill: url(#linear-gradient-7);
      }

      .cls-18 {
        fill: url(#linear-gradient-8);
      }

      .cls-19 {
        fill: #41c3d8;
      }

      .cls-20 {
        opacity: 0.35;
        mix-blend-mode: lighten;
      }
    </style>
    <linearGradient id="linear-gradient" x1="102.08" y1="32.22" x2="106.35" y2="32.22" gradientUnits="userSpaceOnUse">
      <stop offset="0.01" stop-color="#aae8f9"/>
      <stop offset="0.35" stop-color="#ade9fa"/>
      <stop offset="0.65" stop-color="#b8edfb"/>
      <stop offset="0.93" stop-color="#caf4fe"/>
      <stop offset="1" stop-color="#cff6ff"/>
    </linearGradient>
    <linearGradient id="linear-gradient-2" x1="104.65" y1="57.94" x2="104.65" y2="33.04" gradientUnits="userSpaceOnUse">
      <stop offset="0" stop-color="#efb378"/>
      <stop offset="0.02" stop-color="#f0b376"/>
      <stop offset="0.31" stop-color="#f8b565"/>
      <stop offset="0.63" stop-color="#fdb75a"/>
      <stop offset="0.99" stop-color="#ffb757"/>
    </linearGradient>
    <linearGradient id="linear-gradient-3" x1="6.92" y1="121.13" x2="47.51" y2="121.13" gradientUnits="userSpaceOnUse">
      <stop offset="0" stop-color="#cff6ff"/>
      <stop offset="0.07" stop-color="#caf4fe"/>
      <stop offset="0.35" stop-color="#b8edfb"/>
      <stop offset="0.65" stop-color="#ade9fa"/>
      <stop offset="0.99" stop-color="#aae8f9"/>
    </linearGradient>
    <linearGradient id="linear-gradient-4" x1="121.49" y1="77.64" x2="121.49" y2="38.93" xlink:href="#linear-gradient"/>
    <linearGradient id="linear-gradient-5" x1="161.64" y1="121.14" x2="202.51" y2="121.14" xlink:href="#linear-gradient"/>
    <linearGradient id="linear-gradient-6" x1="105.65" y1="58.26" x2="125.02" y2="58.26" xlink:href="#linear-gradient"/>
    <linearGradient id="linear-gradient-7" x1="87.81" y1="77.64" x2="87.81" y2="38.91" xlink:href="#linear-gradient"/>
    <linearGradient id="linear-gradient-8" x1="93.53" y1="76.51" x2="93.53" y2="38.91" xlink:href="#linear-gradient"/>
  </defs>
  <g class="cls-1">
    <g id="Layer_1" data-name="Layer 1">
      <g>
        <path class="cls-2" d="M212,113.89l-7.8-10a8.3,8.3,0,0,0-3.84-2.77c-17.65-21.2-27.92-32.18-33.17-35.48-8.34-5.27-15.06-9.86-18.8-12.48l.15-1.4a6.93,6.93,0,0,0-3.21-6.61l-12.28-7.73a7,7,0,0,0-3.69-1.06h-1.52c-4.52-3.6-7.77-5.34-10.68-5.73a13.33,13.33,0,0,0-4-6.54c-.28-.24-.57-.48-.81-.66l-.37-.3c0-.38,0-.81,0-1.23l2.74-.81a8.13,8.13,0,0,0,7.72,7.33h.33a8.08,8.08,0,0,0,8.08-7.8c.4-9.58-5.57-15.79-15.56-16.21H115l-1.36,0c-5.81,0-10.34,1.59-13.45,4.72-.18.18-.36.37-.5.53-4.16,4.63-4,10.44-3.89,14.21v.41a14.36,14.36,0,0,0,2.1,7.07,31.44,31.44,0,0,0-7.93,5H88.6a7,7,0,0,0-3.3.83l-.4.23L72.61,45.1a6.94,6.94,0,0,0-3.2,6.61l.15,1.4c-3.74,2.62-10.46,7.21-18.81,12.48-5.25,3.31-15.47,14.24-33,35.31a8.41,8.41,0,0,0-3.53,2.56l-8,9.83a8.35,8.35,0,0,0-1,1.44,8.49,8.49,0,0,0-.76,5.7A7,7,0,0,0,7,124.79l.2.17.2.17L36,148.67a8.33,8.33,0,0,0,11.3-.7l6.11-6.4.34,71.07a6.94,6.94,0,0,0,6,6.84c.53.07,12.95,1.75,17.37,2.06,5.55.4,18.38.63,28.17.75h.56l2,0h2.05a5.85,5.85,0,0,0,.73,0l2.48,0c6.54-.11,18.27-.36,23.35-.72,5.52-.4,21.48-2.3,22.15-2.38a6.94,6.94,0,0,0,6.11-6.89l0-70.71,5.53,6.05a8.31,8.31,0,0,0,11.31.94l29.08-22.89A8.43,8.43,0,0,0,212,113.89Z"/>
        <path class="cls-3" d="M207.68,109.55l-7.8-10A8.3,8.3,0,0,0,196,96.74c-17.66-21.2-27.92-32.18-33.17-35.48-8.35-5.27-15.06-9.87-18.81-12.48l.15-1.4a6.91,6.91,0,0,0-3.2-6.62L128.72,33A6.93,6.93,0,0,0,125,32h-1.52c-4.52-3.6-7.77-5.34-10.69-5.74a13.26,13.26,0,0,0-4-6.53c-.28-.24-.57-.48-.82-.66l-.36-.3c0-.38,0-.81,0-1.23l2.74-.81A8.13,8.13,0,0,0,118.05,24h.33a8.08,8.08,0,0,0,8.08-7.8C126.86,6.67,120.89.46,110.9,0h-.25l-1.36,0C103.48,0,99,1.59,95.84,4.72a6,6,0,0,0-.5.53c-4.16,4.63-4,10.44-3.89,14.21v.41a14.51,14.51,0,0,0,2.11,7.07,31.16,31.16,0,0,0-7.93,5H84.27a7,7,0,0,0-3.3.83c-.14.07-.27.15-.4.23L68.28,40.76a6.93,6.93,0,0,0-3.2,6.62l.15,1.4C61.49,51.39,54.77,56,46.42,61.25,41.17,64.57,31,75.49,13.4,96.57a8.26,8.26,0,0,0-3.53,2.56L1.9,109A7.88,7.88,0,0,0,1,110.4a8.48,8.48,0,0,0-.76,5.7,6.93,6.93,0,0,0,2.47,4.35l.2.18.2.17,28.61,23.54a8.33,8.33,0,0,0,11.3-.7l6.11-6.41.34,71.08a6.94,6.94,0,0,0,6,6.84c.52.07,12.95,1.74,17.37,2.06,5.54.4,18.38.63,28.17.75h.56l2,0h2.05a5.85,5.85,0,0,0,.73,0l2.48,0c6.54-.11,18.27-.36,23.35-.72,5.51-.4,21.47-2.3,22.15-2.39a6.92,6.92,0,0,0,6.11-6.88l-.05-70.71,5.54,6.05a8.34,8.34,0,0,0,11.31.94l29.08-22.89A8.45,8.45,0,0,0,207.68,109.55Z"/>
        <g>
          <g>
            <path class="cls-4" d="M119.54,16a1.16,1.16,0,1,1-2.32-.09c.21-5.35-3-6.33-6.46-6.51l-.25,0c-4-.17-6.69.51-8.17,2a5.47,5.47,0,0,0-.53.66c-1.26,1.87-1.19,4.61-1.12,7.27v.35c.06,2.24,1.73,3.93,3.12,5l.4.32a6.37,6.37,0,0,1,2.13,4.73v8.67a1.16,1.16,0,1,1-2.32,0V29.65a3.88,3.88,0,0,0-1.58-3.12l-.37-.28a8.91,8.91,0,0,1-3.7-6.56v-.35c-.09-3.24-.19-6.89,2.11-9.46l.23-.24c2-2,5.16-2.88,9.79-2.68h.1C116.76,7.22,119.77,10.26,119.54,16Z"/>
            <path class="cls-5" d="M106.35,29.65v8.67a1.16,1.16,0,1,1-2.32,0V29.65a3.88,3.88,0,0,0-1.58-3.12l-.37-.28a21.06,21.06,0,0,0,2.14-1.33A6.37,6.37,0,0,1,106.35,29.65Z"/>
            <polygon class="cls-6" points="84.26 38.91 125.03 38.91 119.06 83.35 100 90.91 84.26 38.91"/>
            <path class="cls-7" d="M111.66,33.09a52.4,52.4,0,0,0-7.22.23,50.52,50.52,0,0,0-7.09-.23c-4.1.22-15,11.19-15,11.19l7.51,13.66s4.62-6.1,14.4-5.19v.16a.49.49,0,0,0,0-.12l.19,0,.19,0v0c10-.91,14.68,5.19,14.68,5.19L127,44.28S115.84,33.31,111.66,33.09Z"/>
            <path class="cls-8" d="M119.31,56.43s-4.7-6.1-14.68-5.19v0l-.19,0-.19,0v.12a.92.92,0,0,1,0-.16c-9.78-.91-14.4,5.19-14.4,5.19l-7-12.68-.54.53,7.51,13.66s4.62-6.1,14.4-5.19v.16a.49.49,0,0,0,0-.12l.19,0,.19,0v0c10-.91,14.68,5.19,14.68,5.19L127,44.28l-.55-.53Z"/>
            <path class="cls-9" d="M105.54,79.48v131.6h-1.79l-2.7,0c-7.38-.09-21.88-.31-27.76-.74-4.25-.3-16.94-2-16.94-2l-.43-89.06a1.19,1.19,0,0,0-2.21-.61l-7,8.24-8.27,9.68S12.46,118.06,7.2,115.17l-.15-.08.06-.07c.22-.25.57-.65,1-1.2,1.69-2,4.89-5.94,8.83-10.7,10.74-13,27-32.1,33.15-36,12.5-7.89,21.39-14.29,22.43-15l.1-.07L72,46.63l12.29-7.72c.15.43,2.77,7.06,6.3,14.9C94,61.4,98.28,70.13,102,75.44c.56.8,1.11,1.52,1.64,2.15.24.28.47.55.71.79s.2.22.29.3C105,79,105.26,79.25,105.54,79.48Z"/>
            <path class="cls-10" d="M47.1,129.27,38,138.85a1.39,1.39,0,0,1-1.9.12L7.46,115.45a1.69,1.69,0,0,1-.26-.28,1.19,1.19,0,0,1-.09-.15,1.5,1.5,0,0,1,0-1.44,1,1,0,0,1,.14-.22l8-9.87a1.38,1.38,0,0,1,1.72-.37,1.28,1.28,0,0,1,.25.15l16.62,13.31,12.83,10.27.29.23A1.5,1.5,0,0,1,47.1,129.27Z"/>
            <path class="cls-9" d="M202.25,115.09c-1.16.61-3.55,2.15-6.51,4.13-9.48,6.36-24.84,17.31-24.84,17.31l-8.54-10-6.77-7.93a1.2,1.2,0,0,0-2.22.61l0,55.05v33.67s-16.41,2-21.83,2.35c-4.87.35-16.37.59-23,.71l-3.09.05-.88,0h-.91V79.48a8.18,8.18,0,0,0,.85-.76.1.1,0,0,0,.05,0c.33-.33.66-.69,1-1.09,7.7-9.13,19.07-37.76,19.39-38.68l12.28,7.72L136.64,52l.1.07c1,.75,9.93,7.15,22.44,15,6.23,3.93,22.65,23.34,33.39,36.29C197.56,109.45,201.32,114.07,202.25,115.09Z"/>
            <path class="cls-11" d="M106.85,86.6S118.25,72.05,122.59,75s13.57,9,13.57,9l.58-31.83-13.28-5-12.7,23.85-7.39,9.29Z"/>
            <path class="cls-12" d="M137.32,46.63l-.08.79-.5,4.66L134,77.64l-14.88-12-.15-.12-13.35,12c7.65-9.08,18.93-37.41,19.37-38.66C125,38.91,137.32,46.63,137.32,46.63Z"/>
            <path class="cls-13" d="M202,115.88l-4.78,3.76-24.3,19.13a1.39,1.39,0,0,1-1.9-.16L162,128.83a1.49,1.49,0,0,1,.19-2.18l.14-.11,16.72-12.8,13.37-10.25.12-.08a1.39,1.39,0,0,1,1.83.35l7.8,10A1.49,1.49,0,0,1,202,115.88Z"/>
            <path class="cls-14" d="M108.63,211l-3.09.05a3.75,3.75,0,0,1-.88,0h-.91c-.72,0-1.63,0-2.7-.05.39-17.08,2.06-98.37.07-127.3-.39-5.59-.91-9.22-1.6-10.06l2.06,1.23.43.54,2.35,2.94.21.27,0,.07c.33.56.64,1.13.94,1.7a22.75,22.75,0,0,1,2.9,9.18c0,.27,0,.54,0,.8Z"/>
            <path class="cls-11" d="M108.44,89.6l-2.9-2.33-4.42-3.54c-4.39-3.52-8.69-6.93-10.78-8.55-5.21-4-16.28,12.76-16.28,12.76s-1.53-35.37-1.51-35.86l18,1.73C94,61.4,98.28,70.13,102,75.44l2.35,2.94.21.27,0,.07c.33.56.64,1.13.94,1.7A22.75,22.75,0,0,1,108.44,89.6Z"/>
            <polygon class="cls-15" points="105.87 77.22 119 65.56 134.02 77.64 119.06 64.21 105.87 77.22"/>
            <path class="cls-16" d="M125,38.93c-.15.72-4.21,19.62-5.87,26.74l-.15-.12-13.35,12C113.3,68.51,124.58,40.18,125,38.93Z"/>
            <path class="cls-11" d="M162.22,126.65l-6.63-8a1.2,1.2,0,0,0-2.22.61l0,55.05c-2.4-20-6.37-52.1-8.12-62-2.61-14.77-8.47-30.22,1.3-16.79C151.72,102.49,161.53,127.17,162.22,126.65Z"/>
            <path class="cls-17" d="M103.65,77.59l-1.59-1.43L90.9,66.1l-.61-.55-15,12.09L72.55,52.08l-.49-4.66L72,46.63l12.29-7.72c.3.88,10.87,27.5,18.53,37.6C103.08,76.9,103.37,77.25,103.65,77.59Z"/>
            <path class="cls-15" d="M75.27,77.64l15-12.09,13.36,12L90.23,64.13S78,74.11,75.27,77.64Z"/>
            <path class="cls-18" d="M102.79,76.51l-.73-.35L90.9,66.1,84.26,38.91C84.56,39.79,95.13,66.41,102.79,76.51Z"/>
            <ellipse class="cls-19" cx="105.33" cy="96.67" rx="2.17" ry="2.24"/>
            <ellipse class="cls-19" cx="105.33" cy="195.52" rx="2.17" ry="2.24"/>
            <ellipse class="cls-19" cx="105.22" cy="170.67" rx="2.17" ry="2.24"/>
            <ellipse class="cls-19" cx="105.22" cy="145.82" rx="2.17" ry="2.24"/>
            <ellipse class="cls-19" cx="105.22" cy="120.29" rx="2.17" ry="2.24"/>
            <path class="cls-19" d="M17.81,111.23A2.18,2.18,0,1,1,15.63,109,2.21,2.21,0,0,1,17.81,111.23Z"/>
            <path class="cls-20" d="M110.76,9.36l-9,2.64-1.32-2.12.23-.24c2-2,5.16-2.88,9.79-2.68Z"/>
            <ellipse class="cls-19" cx="193.82" cy="110.89" rx="2.17" ry="2.24"/>
          </g>
          <path class="cls-11" d="M52.23,119.77l9.49-16.38s-2.23,49-5.21,68.87l-.18-51.75S57.07,114,52.23,119.77Z"/>
        </g>
      </g>
    </g>
  </g>
</svg>
