<svg id="Layer_1" data-name="Layer 1" xmlns="http://www.w3.org/2000/svg" width="283.42" height="228.51" viewBox="0 0 283.42 228.51">
  <defs>
    <style>
      .cls-1 {
        opacity: 0.5;
      }

      .cls-2, .cls-6, .cls-9 {
        fill: #fff;
      }

      .cls-3 {
        fill: #efbe67;
      }

      .cls-4 {
        fill: #c98f32;
      }

      .cls-5 {
        fill: #4c4c4c;
      }

      .cls-6 {
        opacity: 0.72;
      }

      .cls-7 {
        fill: #b933cc;
      }

      .cls-8 {
        fill: #e230a2;
      }

      .cls-9 {
        opacity: 0.61;
      }

      .cls-10 {
        fill: #db19c0;
      }

      .cls-11 {
        fill: blue;
      }
    </style>
  </defs>
  <g>
    <path class="cls-1" d="M278.62,9.85A15.68,15.68,0,0,0,267.4,5a19,19,0,0,0-10.25,3.28A38.24,38.24,0,0,0,253.7,11a6.57,6.57,0,0,0-2.49,1.45l-3.08,2.88a6.19,6.19,0,0,0-1.23,1.57c-7.76,6.82-19.47,17.34-29.77,26.9-5.82,5.41-10.44,9.82-13.72,13.1-4.37,4.36-6.69,6.79-7.27,9.43C175.85,86,149.76,111.52,135.35,127a6.49,6.49,0,0,0-1.68,5.32L131,135.27c-5.55,6.06-10.79,11.78-16.85,16.65a8,8,0,0,0-3,5.81,6.17,6.17,0,0,0,0,.86c-4.71,3.35-10.14,6.49-13.11,8.21a6.53,6.53,0,0,0-3,3.75c-1,3.39-1.82,6.42-2.58,9.36-.71,2.73-1.45,5.56-2.4,8.76-1.72-.06-3.78-.1-6-.1-27.87,0-32.29,6.49-33.75,8.62a9.71,9.71,0,0,0-.79,9.44,3.82,3.82,0,0,0,.69,1.14c.42.49,4.13,4.6,13.25,8.84l-1.89.37c-4.06.75-33.86,2.52-47.82,2.52-1.86,0-3.36,0-4.43-.09H9a4,4,0,0,0-.31,8c.15,0,14.88,1.12,30.25,1.12,25.77,0,33-3,36.19-5.19,2.74-1.91,4-4.15,3.77-6.64-.42-4.46-5.33-6.65-11-9.19-3.23-1.43-6.83-3-8.89-4.81,3.45-2.35,16.3-5.82,32.38-5.82h0l.21.21a6.52,6.52,0,0,0,6.49,1.62c3.85-1.17,7.09-2,10.23-2.83,2.94-.77,6-1.56,9.38-2.59a6.54,6.54,0,0,0,3.74-3c1.84-3.18,4.89-8.45,8.17-13.06l.51,0a8,8,0,0,0,6.24-3c4.88-6.08,10.57-11.3,16.6-16.82l3-2.72a7.43,7.43,0,0,0,.94.07,6.52,6.52,0,0,0,4.45-1.76c15.63-14.62,41-40.53,60.48-60.67,2.82-.43,6.55-3.66,28.78-27.95,10.26-10.12,20.59-20.7,27.64-28.31A6.52,6.52,0,0,0,280,31.14C287.11,20.27,281.4,12.63,278.62,9.85Z"/>
    <path class="cls-2" d="M273.62,4.85A15.68,15.68,0,0,0,262.4,0a19,19,0,0,0-10.25,3.28A38.24,38.24,0,0,0,248.7,6a6.57,6.57,0,0,0-2.49,1.45l-3.08,2.88a6.19,6.19,0,0,0-1.23,1.57c-7.76,6.82-19.47,17.34-29.77,26.9-5.82,5.41-10.44,9.82-13.72,13.1-4.37,4.36-6.69,6.79-7.27,9.43C170.85,81,144.76,106.52,130.35,122a6.49,6.49,0,0,0-1.68,5.32L126,130.27c-5.55,6.06-10.79,11.78-16.85,16.65a8,8,0,0,0-3,5.81,6.17,6.17,0,0,0,0,.86C101.38,156.94,96,160.08,93,161.8a6.53,6.53,0,0,0-3,3.75c-1,3.39-1.82,6.42-2.58,9.36-.71,2.73-1.45,5.56-2.4,8.76-1.72-.06-3.78-.1-6-.1-27.87,0-32.29,6.49-33.75,8.62a9.71,9.71,0,0,0-.79,9.44,3.82,3.82,0,0,0,.69,1.14c.42.49,4.13,4.6,13.25,8.84l-1.89.37c-4.06.75-33.86,2.52-47.82,2.52-1.86,0-3.36,0-4.43-.09H4a4,4,0,0,0-.31,8c.15,0,14.88,1.12,30.25,1.12,25.77,0,33-3,36.19-5.19,2.74-1.91,4-4.15,3.77-6.64-.42-4.46-5.33-6.65-11-9.19-3.23-1.43-6.83-3-8.89-4.81,3.45-2.35,16.3-5.82,32.38-5.82h0l.21.21a6.52,6.52,0,0,0,6.49,1.62c3.85-1.17,7.09-2,10.23-2.83,2.94-.77,6-1.56,9.38-2.59a6.54,6.54,0,0,0,3.74-3c1.84-3.18,4.89-8.45,8.17-13.06l.51,0a8,8,0,0,0,6.24-3c4.88-6.08,10.57-11.3,16.6-16.82l3-2.72a7.43,7.43,0,0,0,.94.07,6.52,6.52,0,0,0,4.45-1.76c15.63-14.62,41-40.53,60.48-60.67,2.82-.43,6.55-3.66,28.78-27.95,10.26-10.12,20.59-20.7,27.64-28.31A6.52,6.52,0,0,0,275,26.14C282.11,15.27,276.4,7.63,273.62,4.85Z"/>
    <g>
      <g>
        <path class="cls-3" d="M91.23,187.47c7.66-2.33,12.82-3.36,19.62-5.42,3.34-5.77,8.85-15.16,14.1-20.42l-8.3-8.3c-5.26,5.25-14.65,10.77-20.41,14.1-2.06,6.8-3.09,12-5.42,19.62Z"/>
        <path class="cls-4" d="M122.47,159.15c-5.78,5.9-14.15,17.17-17.3,24,1.09-.29,2.2-.59,3.33-.91,3.81-6.81,9.66-16.08,15.26-21.82Z"/>
        <rect class="cls-5" x="88.24" y="180.31" width="19.02" height="0.45" transform="translate(-99.05 122.06) rotate(-45.02)"/>
        <polygon class="cls-5" points="104.15 172.08 103.77 174.51 106.2 174.13 104.15 172.08"/>
        <path class="cls-6" d="M115.24,157.72A128.84,128.84,0,0,1,96.49,170c-.31,1.17-.59,2.3-.87,3.43,5.85-2.6,14.78-8.86,21-14.26Z"/>
      </g>
      <path class="cls-7" d="M139.92,125c-9,9-16.8,19.05-26.74,27a1.4,1.4,0,0,0-.18,2.15l11.18,11.17a1.41,1.41,0,0,0,2.15-.17c8-9.95,17.93-17.64,27-26.75Z"/>
      <path class="cls-8" d="M245.78,47.67a1.28,1.28,0,0,0-.06-1.91c-.52-.51-12.64-12.64-13.18-13.18a1.26,1.26,0,0,0-1.89,0c-.66.61-68.62,65-95.54,93.91l16.8,16.8C181,116,245.17,48.4,245.78,47.67Z"/>
      <path class="cls-9" d="M148.85,125a2.31,2.31,0,0,1-3.25-3.25C160.65,104.46,207.16,60,221.48,47c1.92-1.75,5,.87,2.93,2.93S151,123.21,148.85,125Z"/>
      <g>
        <path class="cls-10" d="M197.51,62.84c-.32-2.61,54.76-51.87,58.19-54.1s8.69-3.93,13.32.71,2.92,9.46.5,13.14c-2.31,3.51-51.76,58.57-54,58.3Z"/>
        <path class="cls-9" d="M209.19,65.07c-1.28.84-4.95-3-4-4.15,7.55-8.53,33.27-31.44,42-38.86,1.07-.91,3.67,1.39,2.44,2.65S210.47,64.22,209.19,65.07Z"/>
        <path class="cls-3" d="M247.57,15.11l15.66,15.66,2.86-3.09L250.65,12.24Z"/>
        <path class="cls-9" d="M250.87,18.41l2.35,2.35,3-3-2.32-2.32C253,16.31,252,17.3,250.87,18.41Z"/>
        <path class="cls-3" d="M268.49,26.65,266.8,25C254.2,37,234.16,57,222.33,69.43L224,71.12C236.77,59.31,256.68,39.39,268.49,26.65Z"/>
        <path class="cls-9" d="M265.7,27.64l-.41-.42c-11.48,11.11-29.82,29.4-40.69,40.7l.41.41C225.71,67.68,264.91,28.48,265.7,27.64Z"/>
      </g>
    </g>
    <path class="cls-11" d="M4,218.4s53.2,4.07,63.84-3.36c8.55-6-11.52-8.64-17.52-15.36s19.2-12.48,39.6-11.76c0,0-48-3.6-41.76,12.24,0,0,4,4.65,14.82,9.09,9,3.69-.9,5.76-5.76,6.66S14.2,219,4,218.4Z"/>
  </g>
</svg>
