<?xml version="1.0" encoding="utf-8"?>
<!-- Generator: Adobe Illustrator 25.2.0, SVG Export Plug-In . SVG Version: 6.00 Build 0)  -->
<svg version="1.1" id="Layer_1" xmlns="http://www.w3.org/2000/svg" xmlns:xlink="http://www.w3.org/1999/xlink" x="0px" y="0px"
	 viewBox="0 0 222.8 213.9" style="enable-background:new 0 0 222.8 213.9;" xml:space="preserve">
<style type="text/css">
	.st0{opacity:0.5;fill:#353535;enable-background:new    ;}
	.st1{fill:#FFFFFF;}
	.st2{fill:#C8BA7F;stroke:#785F3E;stroke-linecap:round;stroke-linejoin:round;}
	.st3{fill:#B39761;}
	.st4{fill:#F58C6D;stroke:#D76C4F;stroke-linecap:round;stroke-linejoin:round;}
	.st5{fill:#F37E5B;stroke:#984225;stroke-linecap:round;stroke-linejoin:round;}
	.st6{fill:#F79E77;}
	.st7{fill:#E9DDAB;stroke:#927951;stroke-linecap:round;stroke-linejoin:round;}
	.st8{fill:#F6EFD2;}
	.st9{fill:#D86C27;stroke:#993120;stroke-linecap:round;stroke-linejoin:round;}
	.st10{fill:#FBB345;}
	.st11{fill:#FDE349;}
	.st12{fill:#DCAD80;stroke:#A46938;stroke-linecap:round;stroke-linejoin:round;}
	.st13{fill:#FCC99E;}
	.st14{fill:#FFDFB4;}
	.st15{fill:#9A663A;stroke:#5B2B1A;stroke-linecap:round;stroke-linejoin:round;}
	.st16{fill:#834229;stroke:#5B2B1A;stroke-linecap:round;stroke-linejoin:round;}
	.st17{fill:#AA5834;}
	.st18{fill:#D68D51;}
</style>
<g>
	<path class="st0" d="M23.5,213.9c-8.4,0-13.9-1.5-17.1-4.6c-2-2-2.8-4.8-2.3-8.4c-0.3-7.4,6-21.2,13.3-28.4
		c5.2-5.1,13.9-13,14.2-13.3c1-0.9,2.3-1.5,3.7-1.7c2-2.4,4-4.7,5.4-6.5c-6.5-8-9.5-20.5-10.1-23.4c-0.6-2.7,0.6-5.5,3-7l0.4-0.3
		c-4.4-16.8-4.2-18.7-4.1-19.8c0.1-0.9,0.4-3.4,4.2-8c-4.2-13.1-5.6-34.1-3.9-60.2L29,32c-2.8-1-4.6-3.6-4.4-6.6
		c0.1-2.1,0.3-5,0.6-9.9c0.1-1.7,0.2-3.5,0.4-5.5C25.9,6.6,28.7,4,32.2,4h173.4c3.6,0,6.5,2.8,6.6,6.4c0.2,6.1,0.3,11.4,0.3,15.9
		c0,2.6-1.6,5-4,6.1c-4.4,1.8-9,3.2-13.7,4.2c-2.5,34.9-7.3,52.7-10.1,60.4c1.4,1.6,2.4,3.4,3,5.5c1.2,4.6-1.3,13.4-7.4,26
		c1.3,1.9,2,4.1,2.1,6.4c0,3.5-3.7,13.6-6.6,20.2c4.3,3.7,9.1,7.5,13.8,10.8c0.5-0.1,1-0.2,1.5-0.2c1.9,0,3.6,0.8,4.9,2.1
		c3.8,4.2,11.6,6.4,16.3,7.8c3.5,1,5.6,1.6,7.3,3.1c2.4,2.1,3.6,5.4,3,8.5c0.2,1.4,0.2,2.9-0.2,4.3c-1.2,4.2-4.9,7.9-11,10.7
		c-6.3,3.1-13.3,4.8-20.4,4.8l0,0c-7.7-0.1-15.3-1.9-22.3-5.2c-14.1-6.3-18.1-6.8-26-7.6l-2.2-0.2c-9.6-1.1-18.4-2.7-21-10.1
		l-0.2-0.5c-0.4-1.7-0.5-3.4-0.4-5.1c-0.6-5.1,0.2-15.2,3.6-20.8c0.6-2.1,1.2-4.1,1.8-6.1c0.3-0.9,0.6-1.8,0.8-2.6
		c-6.2-5-11.8-13.8-16.5-26.3c-6.8,15.7-14.8,26.5-24,32.8c1.7,5.2,2.4,10.7,1.9,16.1c0.5,3.9-0.8,7.4-3.6,9.4
		c-0.9,0.6-1.8,1.1-2.7,1.6c-2.5,1.4-7.1,3.9-8.9,7.1c-2.8,5.3-11.5,17.9-30.5,22.5C35.3,213.2,29.4,213.9,23.5,213.9z"/>
	<path class="st1" d="M19.5,210c-8.4,0-13.9-1.5-17.1-4.6c-2-2-2.8-4.8-2.3-8.4c-0.3-7.4,6-21.2,13.3-28.4
		c5.2-5.1,13.9-13,14.2-13.3c1-0.9,2.3-1.5,3.7-1.7c2.1-2.4,4-4.7,5.4-6.5c-6.5-8-9.5-20.5-10.1-23.4c-0.6-2.7,0.6-5.5,3-7l0.4-0.3
		c-4.4-16.8-4.2-18.7-4.1-19.8c0.1-0.9,0.4-3.4,4.2-8c-4.2-13.1-5.6-34.1-3.9-60.2L25,28.1c-2.8-1-4.6-3.6-4.4-6.6
		c0.1-2.1,0.3-5,0.6-9.9c0.1-1.7,0.2-3.5,0.4-5.5C21.8,2.7,24.7,0,28.2,0h173.4c3.6,0,6.5,2.8,6.6,6.4c0.2,6.1,0.3,11.4,0.3,15.9
		c0,2.6-1.6,5-4,6.1c-4.4,1.8-9,3.2-13.7,4.2c-2.5,34.9-7.3,52.7-10.1,60.4c1.4,1.6,2.4,3.4,3,5.5c1.2,4.6-1.3,13.4-7.4,26
		c1.3,1.9,2,4.1,2.1,6.4c0.1,3.5-3.7,13.6-6.6,20.2c4.3,3.7,9.1,7.5,13.8,10.8c0.5-0.1,1-0.2,1.5-0.2c1.9,0,3.6,0.8,4.9,2.1
		c3.8,4.2,11.6,6.4,16.3,7.8c3.5,1,5.6,1.6,7.3,3.1c2.4,2.1,3.6,5.4,3,8.5c0.2,1.4,0.2,2.9-0.2,4.3c-1.2,4.2-4.9,7.9-11,10.7
		c-6.3,3.1-13.3,4.8-20.4,4.9l0,0c-7.7-0.1-15.3-1.9-22.3-5.2c-14.1-6.3-18-6.8-26-7.6l-2.2-0.2c-9.6-1.1-18.4-2.7-21-10.1l-0.2-0.5
		c-0.4-1.7-0.5-3.4-0.4-5.1c-0.6-5.1,0.2-15.2,3.6-20.8c0.6-2.1,1.2-4.1,1.8-6.1c0.3-0.9,0.6-1.8,0.8-2.6
		c-6.2-5-11.8-13.8-16.5-26.3c-6.8,15.7-14.8,26.5-24,32.8c1.7,5.2,2.4,10.7,1.9,16.1c0.5,3.9-0.8,7.4-3.6,9.4
		c-0.9,0.6-1.8,1.1-2.7,1.6c-2.5,1.4-7.1,3.9-8.9,7.1c-2.8,5.2-11.5,17.9-30.5,22.4C31.3,209.3,25.4,210,19.5,210z"/>
	<g>
		<g>
			<path class="st2" d="M140.4,92.6c-0.1,1.9-0.1,3.8-0.2,5.7l0,0c-0.1,2.3-0.2,4.7-0.3,7c-0.2,3.2-0.4,6.4-0.6,9.5l0,0
				c-0.2,2.8-0.5,5.5-0.8,8.2c-0.3,2.5-0.6,4.9-0.9,7.3c-0.5,3.6,0,0,0,0c-0.3,2.1-0.6,4.2-0.9,6.3s-0.7,4.2-1.1,6.2
				c-2.2,0.2-4.4-0.2-6.5-1.1c-10.1-4.6-18.1-22.3-23.7-44c-0.1-0.4-0.2-0.9-0.3-1.4c-0.9-3.5-1.7-7.1-2.4-10.8
				c-0.5-2.6-1-5.1-1.5-7.7c0-0.2,0-0.3-0.1-0.5l-0.2-1.4c0-0.1-0.1-0.3-0.1-0.4s0-0.2,0-0.3c0-0.1,0-0.1,0-0.2l-0.4-2.2l-0.1-0.6
				c0,0,0-0.1,0-0.1c-0.2-1.5-0.5-3-0.7-4.6l0,0c-0.1-0.4-0.1-0.8-0.2-1.2l0,0c-0.2-1.4-0.4-2.8-0.6-4.2l-0.1-1
				c-0.1-1.1-0.3-2.2-0.4-3.3c0-0.3-0.1-0.6-0.1-0.9c-0.1-0.9-0.2-1.9-0.3-2.8l0,0c-0.3-3.1-0.6-6.2-0.8-9.3l0,0
				c-0.2-3-0.4-6-0.5-8.9c-0.1-1.8-0.1-3.5-0.1-5.2c0-0.3,0-0.6,0-1c0-1.6,0-3.2,0-4.8c-0.1-6.1,0.3-12.3,1-18.4h39.3
				c0.1,0.6,0.1,1.2,0.2,1.9c0.5,5.4,1.1,12.6,1.7,21c0,0.5,0.1,1,0.1,1.6c0.1,1.9,0.3,3.8,0.4,5.8c0.2,4.2,0.5,8.7,0.7,13.4l0,0
				c0.2,4.5,0.4,9,0.4,13.8c0.1,1.9,0.1,3.9,0.1,5.8l0,0C140.6,77.3,140.6,84.9,140.4,92.6z"/>
			<path class="st3" d="M100.5,75.3c5.6,16.6,17.7,58.5,40.1,54.8S113,47.4,113,47.4L100.5,75.3z"/>
		</g>
		<path class="st4" d="M72.1,145.5c-0.4,4.7,3.2,16,1.1,20.7s-11.1,7.6-13,10s-7.7,11.1-10.1,14s-12.3,6.2-16.8,6.5
			s-17.4-9.7-16.9-14.9s27.4-29.4,28.6-36.5S72.8,137.2,72.1,145.5z"/>
		<g>
			<path class="st5" d="M155,143c3.5,6.5,31.9,31.1,50.3,37.2c8.4,8-14.1,14.3-28.2,10.4s-18.7-12.9-28.9-13.3s-22.2,1.8-24.2-8
				s4.3-21,5.9-31c1.1-7.9,1.6-15.9,1.5-23.9"/>
			<path class="st6" d="M150.3,139.8c5.1,3.8,10.2,12.6,25.1,23.8s26.1,15.2,27.9,16.6c4.9,3.7-14.9,10-28.8,3.5
				c-9.7-4.6-19.7-14.5-27.9-14.6c-13.7-0.1-19.4-4-12-22.5C140.3,132.4,148.2,138.2,150.3,139.8z"/>
		</g>
		<path class="st6" d="M63.5,151.5c-2.4,5.5-19.2,33.7-21.4,36.7s-8.2,6.6-11.7,7.7s-11.8-10-11.8-14.7s27-29.3,28.4-34.2
			S65.7,146.6,63.5,151.5z"/>
		<path class="st7" d="M185.6,6.6c-0.2,6-0.4,11.6-0.7,16.9c-0.1,1.2-0.1,2.4-0.2,3.5c-3.2,51.9-11.7,67.6-11.7,67.6
			s3.8,2.8,4.4,5.5c1.3,5.3-8.7,25.2-8.7,25.2s3.3,3.3,3.3,5.6s-5,16.1-8.1,21.7l-0.4,0.7c-2.4,0.6-7.9-0.3-14.4-4.7
			c-3.7-2.5-7.1-5.6-10-9.1c-0.7-0.8-1.4-1.6-2.1-2.5l-0.3-0.4l-0.6-0.7c-1.5-2.1-2.8-4.3-3.9-6.7l0,0c-0.4-0.8-0.8-1.7-1.2-2.6l0,0
			c-6.3-13.9-13.1-37.4-17.2-62.1c-0.2-1.2-0.4-2.5-0.6-3.7l0,0l-0.4-2.6l0,0c-0.4-2.7-0.7-5.3-1.1-8c-0.3-2.4-0.5-4.8-0.8-7.2
			c0-0.6-0.1-1.2-0.2-1.8l0,0c0-0.3,0-0.7-0.1-1c-0.1-0.7-0.1-1.3-0.2-2l0,0V38l0,0l-0.1-0.8l0,0v-0.1l0,0V37l0,0
			c-0.1-1.1-0.2-2.2-0.2-3.3l0,0c0-0.9-0.1-1.7-0.1-2.6c0-0.3,0-0.7-0.1-1c0-1-0.1-1.9-0.1-2.9s0-1.6,0-2.5c0-0.2,0-0.5,0-0.7
			c0-0.7,0-1.4,0-2.1v-0.8c0-0.6,0-1.1,0-1.7c0-0.2,0-0.4,0-0.6v-0.1c0.1-4,0.1-8.1,0.2-12.1L185.6,6.6z"/>
		<path class="st8" d="M134.1,36.9c16.2,0.2,42.4-2.3,47.7-5.1c0,12-3.4,45.8-8.1,52.1C157.8,83.1,139.8,53.7,134.1,36.9z"/>
		<path class="st8" d="M128.1,41c2.7,22.9,28.9,49.5,32.3,52.8s-2.4,19.8-2.4,19.8l9.8,8.4c0,0,9.1-16.1,8.4-22.2
			C162.6,87.8,140.5,72.5,128.1,41z"/>
		<path class="st8" d="M120.4,51.4c2.8,25,17.8,57.4,35.2,74c0.6,3.4-3.9,20.8-3.7,22s7.8,4.4,10.5,3.8s9.6-18.4,8-22.1
			S144.1,111.7,120.4,51.4z"/>
		<path class="st7" d="M117.3,6.6c-0.8,4.9-1.8,9.7-2.8,14.5c-0.1,0.5-0.2,1-0.3,1.5c0,0.2-0.1,0.4-0.1,0.6l-0.4,1.6
			c-0.2,0.9-0.4,1.8-0.6,2.6l0,0l-0.6,2.6c-0.1,0.4-0.2,0.7-0.2,1s-0.2,0.9-0.3,1.3l0,0c-0.2,1-0.5,2-0.8,3
			c-0.2,0.7-0.3,1.4-0.5,2.1l0,0c-0.1,0.3-0.2,0.6-0.2,0.8l0,0c-0.2,0.8-0.4,1.6-0.6,2.5l-0.4,1.4l-0.4,1.4
			c-0.9,3.3-1.8,6.6-2.8,9.8c-0.1,0.2-0.2,0.5-0.2,0.7c-0.2,0.5-0.3,1.1-0.5,1.6c-0.1,0.2-0.2,0.5-0.2,0.7c-0.3,0.9-0.6,1.8-0.8,2.6
			c-0.2,0.6-0.4,1.3-0.6,1.9c-0.5,1.5-1,2.9-1.4,4.4c-0.2,0.6-0.4,1.3-0.6,1.9s-0.5,1.5-0.8,2.2c-0.1,0.2-0.2,0.4-0.2,0.6l0,0
			c-0.2,0.7-0.5,1.3-0.7,2v0.1c0,0.1-0.1,0.3-0.1,0.4l-0.7,2c0,0.1-0.1,0.3-0.1,0.4l-0.7,2c0,0.1-0.1,0.2-0.1,0.4
			c-0.9,2.3-1.7,4.6-2.6,6.8c-0.9,2.4-1.9,4.7-2.9,6.9c-0.1,0.2-0.2,0.5-0.3,0.8c-0.3,0.8-0.7,1.6-1,2.3c-0.1,0.3-0.3,0.7-0.4,1l0,0
			c-1.8,4.1-3.7,8-5.6,11.8l0,0c-0.2,0.3-0.3,0.6-0.5,0.9c-0.5,1-1,1.9-1.5,2.9l-0.3,0.5c-2.7,5.1-5.4,9.7-8.2,13.9
			c-0.3,0.4-0.5,0.8-0.8,1.2c-0.7,1.1-1.4,2.1-2.2,3.1c-1.6,2.2-3.2,4.3-4.7,6.1l-0.7,0.8l0,0l-0.1,0.1l0,0c-0.9,1-1.8,2-2.7,2.9
			l-0.7,0.7c-2.1,2.1-4.4,4-7,5.5l0,0c-2.2,1.5-4.9,2.1-7.6,1.9c-0.6-0.1-1.1-0.2-1.7-0.4H47l0,0c-0.5-0.2-1-0.4-1.4-0.7l0,0
			c-0.1-0.1-0.2-0.1-0.3-0.2l-0.2-0.2c-8-5.6-11.8-23.6-11.8-23.6l4.6-2.8c0,0-5.4-20-5.2-22.1s5.2-7.2,5.2-7.2
			c-4.8-11-7.2-33.1-4.5-66.5c0.3-3.1,0.5-6.3,0.9-9.5c0-0.3,0.1-0.7,0.1-1c0.2-1.9,0.4-4.1,0.6-6.4L117.3,6.6z"/>
		<path class="st9" d="M122.2,6.6c-0.5,4.7-1,9.2-1.5,13.6c-0.4,3.4-0.8,6.7-1.3,9.9c-0.1,0.4-0.1,0.8-0.2,1.1
			c-0.5,3.7-1,7.4-1.6,10.9l0,0c-0.5,3.5-1.1,6.9-1.7,10.2c-0.7,4.3-1.5,8.4-2.3,12.3c-2.2,10.7-4.5,20.2-7,28.7
			c-0.4,1.6-0.9,3-1.4,4.5c-9.4,29.9-21,45.2-33.2,50.7l-0.2,0.1l0,0c-1.1,0.5-4,0.9-7.5,1h-1c-2.1,0-4.3-0.1-6.5-0.2
			c-3.8-0.3-7.5-1-10-2.3l-0.1-0.1c-0.2-0.1-0.4-0.2-0.6-0.3c-0.3-0.2-0.5-0.3-0.8-0.5l0,0c0.4,0.1,0.9,0.2,1.3,0.2h0.3
			c2.4,0.2,4.8-0.3,6.9-1.4c2.5-1.3,4.8-3.1,6.8-5.2c0.9-1,1.8-2,2.8-3.2c4-5.3,7.3-11,10-17.1c8.2-17.8,16.2-45,23-83.4
			c0.3-1.7,0.6-3.4,0.9-5.2l0.2-1l0,0c0.3-1.6,0.6-3.2,0.8-4.9c1-5.9,1.9-12,2.8-18.3L122.2,6.6z"/>
		<g>
			<path class="st10" d="M108.4,36.3c0.1-0.1,0.3-0.3,0.4-0.4c-0.1,0.1-0.1,0.3-0.2,0.4c0.3-0.3,0.5-0.6,0.6-1
				c0.3-0.8,0.4-1.7,0.3-2.5c0-0.3-0.1-0.7-0.3-1c-0.1-0.3-0.4-0.6-0.7-0.7c0,0-0.1,0-0.1,0c-0.3,0-0.6,0.1-0.8,0.3
				c-0.2,0.2-0.4,0.4-0.5,0.7c-0.3,0.5-0.4,1-0.5,1.5c-0.1,0.5-0.2,1.1-0.1,1.6c0.1,0.5,0.2,1.1,0.7,1.3c0,0,0.1,0,0.1,0h0.3
				c0-0.1-0.2,1.2-0.1,0.6l0,0V37c0-0.1,0-0.1,0-0.2l0,0l0,0v-0.4l0,0l0,0c0,0.1,0,0.3,0,0.4l0,0v0.1c0,0.1,0,0.1,0,0.2v0l0,0
				c0.1-0.4-0.2,0.9,0.2-0.9h-0.1h-0.1h-0.1l0,0l-0.1-0.1c-0.3-0.2-0.4-0.6-0.4-1c0-0.4,0-0.7,0.1-1.1c0.1-0.3,0.2-0.6,0.4-0.8
				c0.2-0.2,0.4-0.4,0.7-0.1c0.2,0.3,0.3,0.7,0.2,1.1c0,0.3-0.2,0.6-0.3,0.8c-0.1,0.1-0.2,0.1-0.2,0.2c0,0,0,0,0.1,0.1
				c0,0.1,0,0.2,0,0.3c0,0,0,0.1,0,0.1l0,0l0,0h-0.3l0,0c-0.1-0.4,0.4,3.2,0.2,1.7l0,0c0.1-2.9,0-0.8,0.1-1.5l0,0l0,0v0v0.1
				c0,0.1,0,0.1,0.1,0.2l0,0c0,0.5,0.1-1.1,0,1.1l0,0c-0.2-1.7-0.1-0.5-0.1-0.9h0.3l0.1,0.1c0.3,0.1,0.8-0.1,1.1-0.7
				c-0.1,0.1-0.1,0.2-0.2,0.2C108.7,36.2,108.6,36.3,108.4,36.3z"/>
			<path class="st10" d="M109.6,38c0.3-0.3,0.6-0.6,0.8-1c-0.1,0.3-0.3,0.6-0.5,0.9c0.6-0.7,1-1.5,1.3-2.3c0.7-1.9,1-3.9,0.9-5.9
				c0-0.9-0.2-1.8-0.5-2.7c-0.1-0.4-0.3-0.8-0.6-1.2c-0.2-0.4-0.6-0.7-1-0.9c-0.1,0-0.2-0.1-0.3-0.1c-0.7-0.2-1.5,0.1-2,0.6
				c-0.5,0.5-0.9,1.1-1.3,1.7c-0.7,1.2-1.1,2.6-1.4,4c-0.3,1.4-0.4,2.8-0.3,4.2c0.1,0.7,0.2,1.4,0.4,2c0.2,0.7,0.7,1.2,1.3,1.5
				c0.1,0,0.2,0.1,0.3,0.1h0.3c0.2,0,0.2,0,0.2-0.1s-0.1-0.1-0.2-0.2H107c0,0-0.1,0-0.1,0l-0.1-0.1c-0.1,0-0.2-0.1-0.3-0.2
				c-0.5-0.3-0.9-0.9-1.1-1.5c-0.2-0.6-0.3-1.3-0.4-1.9c-0.1-1.2,0.1-2.5,0.3-3.6c0.2-1.1,0.7-2.2,1.2-3.3c0.3-0.5,0.6-0.9,1.1-1.2
				c0.4-0.4,1-0.4,1.6-0.2c0.3,0.1,0.5,0.3,0.7,0.6c0.2,0.3,0.3,0.5,0.4,0.8c0.2,0.6,0.3,1.2,0.3,1.8c0,1.2-0.1,2.3-0.4,3.4
				c-0.2,0.5-0.4,1-0.6,1.5c-0.2,0.8-0.6,1.5-1,2.2c-0.2,0.3-0.4,0.5-0.7,0.8l-0.2,0.1l-0.1,0.1h-0.2l0,0c0,0.1-0.1,0.1-0.1,0.2
				c-0.2,0.1-0.2,0.2,0,0.4c0.1,0.1,0.1,0.1,0.2,0.2h0.1h0.2h0.2c0.5,0,0.9-0.2,1.2-0.5c0.5-0.4,0.9-1,1.2-1.5l-0.1,0.2
				c-0.1,0.1-0.2,0.3-0.3,0.4c-0.1,0.1-0.2,0.3-0.3,0.4L109.6,38z"/>
			<path class="st10" d="M111,40c0.5-0.5,1-1.1,1.4-1.8c-0.1,0.2-0.2,0.5-0.4,0.7c-0.1,0.2-0.3,0.5-0.5,0.7c1-1.1,1.7-2.4,2.1-3.8
				c0.5-1.6,0.8-3.2,0.9-4.8c0.1-1.3,0-2.7-0.2-4c-0.2-1.1-0.6-2.2-1.1-3.2c-0.3-0.5-0.6-0.9-1-1.4c-0.4-0.4-0.9-0.8-1.5-1
				c-0.1-0.1-0.3-0.1-0.5-0.2c-0.5-0.1-0.9-0.1-1.4,0c-0.4,0.1-0.8,0.2-1.2,0.5c-0.7,0.4-1.3,1-1.8,1.7c-1.1,1.5-2,3.2-2.5,4.9
				c-0.3,1.1-0.6,2.2-0.7,3.3c-0.2,1.2-0.2,2.5-0.2,3.7c0.1,1.2,0.4,2.4,0.9,3.5c0.5,1,1.3,1.8,2.4,2.3c0.2,0.1,0.4,0.1,0.6,0.2h0.1
				l0,0h0.3c0.3,0,0.5,0,0.4-0.1c-0.2-0.1-0.4-0.2-0.6-0.2h-0.1l0,0l-0.2-0.1c-0.2-0.1-0.4-0.1-0.5-0.2c-1.9-1-2.7-3.3-2.8-5.6
				c-0.1-2.1,0.2-4.3,0.8-6.3c0.5-1.7,1.3-3.3,2.3-4.8c0.5-0.6,1-1.2,1.7-1.6c0.2-0.1,0.4-0.2,0.5-0.3l0.3-0.1l0.3-0.1
				c0.1,0,0.2,0,0.3,0h0.3l0.3,0h0.2h0.2c0.4,0.2,0.8,0.4,1.2,0.7c0.3,0.3,0.6,0.7,0.8,1.1c0.4,0.8,0.7,1.6,0.8,2.5
				c0.3,1.8,0.2,3.7-0.2,5.5c-0.2,1-0.5,2-0.9,3c-0.5,1.6-1.2,3-2.2,4.3c-0.4,0.5-0.9,0.9-1.4,1.2l-0.3,0.2l-0.2,0.1l0,0h-0.1
				c-0.2,0.1-0.3,0.1-0.5,0.2c-0.2,0.1-0.2,0.2,0,0.4c0.2,0.1,0.4,0.1,0.5,0.2h0.2c-0.2,0-0.1,0-0.1,0h0.5c0.7-0.1,1.5-0.4,2.1-0.8
				c0.9-0.7,1.6-1.5,2.1-2.5l-0.2,0.3c-0.2,0.3-0.3,0.5-0.5,0.7c-0.2,0.2-0.4,0.4-0.6,0.6L111,40z"/>
			<path class="st10" d="M112.4,42c0.8-0.7,1.5-1.6,2-2.5l-0.3,0.5c-0.1,0.2-0.2,0.3-0.3,0.5c-0.2,0.3-0.4,0.6-0.7,0.9
				c1.4-1.5,2.4-3.4,3-5.4c0.6-2.1,1-4.4,1-6.6c0-1.7-0.2-3.4-0.7-5c-0.4-1.2-1-2.3-1.8-3.3c-0.4-0.5-0.8-0.9-1.3-1.2
				c-0.3-0.2-0.6-0.3-0.8-0.5c-0.3-0.1-0.7-0.3-1-0.4l-0.5-0.2c-0.5-0.1-1.1-0.1-1.6-0.1c-0.5,0-1,0.1-1.4,0.2
				c-0.8,0.3-1.6,0.7-2.3,1.2c-1.7,1.4-3,3.3-3.8,5.3c-0.6,1.4-1,2.9-1.3,4.5c-0.1,0.4-0.2,0.8-0.2,1.3l-0.1,1.3
				c-0.1,0.9-0.1,1.8,0,2.8c0.1,1.8,0.6,3.6,1.5,5.2c0.8,1.4,2.1,2.4,3.6,3c0.3,0.1,0.5,0.2,0.8,0.2h0.2H106h0.4c0.5,0,0.8,0,0.7,0
				c-0.3-0.1-0.6-0.2-0.9-0.2h-0.1l0,0l0,0l-0.3-0.1c-0.3-0.1-0.5-0.2-0.8-0.3c-1.4-0.6-2.5-1.7-3.3-3c-0.8-1.6-1.2-3.3-1.2-5
				c-0.1-1.7,0.1-3.4,0.4-5c0.3-1.4,0.7-2.8,1.2-4.1c0.4-1.1,1-2.1,1.6-3c0.5-0.7,1.2-1.4,1.9-2c0.6-0.5,1.4-0.9,2.2-1.2
				c0.2-0.1,0.4-0.1,0.6-0.1l0.3-0.1h0.4c0.5,0,1,0.1,1.5,0.2c0.5,0.2,1,0.4,1.4,0.7c0.4,0.3,0.8,0.6,1.1,1c0.6,0.7,1.1,1.5,1.4,2.4
				c0.4,1,0.6,2,0.7,3c0.1,1.2,0.1,2.4,0,3.6c-0.2,1.5-0.5,2.9-0.9,4.3c-0.3,1.3-0.8,2.5-1.4,3.8c-0.2,0.3-0.3,0.6-0.5,0.8
				s-0.3,0.5-0.5,0.8l-0.6,0.7c-0.2,0.2-0.4,0.4-0.6,0.6c-0.7,0.6-1.5,1.1-2.3,1.5l-0.5,0.2l-0.2,0.1l0,0h0.2H108
				c-0.4,0.1-0.7,0.2-0.9,0.2s-0.2,0.2,0,0.4c0.3,0.1,0.6,0.1,0.9,0.2h0.3h-0.2h0.7c1-0.1,2-0.4,2.9-1c1.3-0.9,2.3-2.1,3.1-3.5
				l-0.3,0.5c-0.2,0.4-0.5,0.7-0.8,1c-0.1,0.2-0.3,0.3-0.4,0.5l-0.4,0.4L112.4,42z"/>
		</g>
		<path class="st10" d="M94,80.4c-0.8,5.7,9.5,5.9,10.9,4.6s7.3-24,11.4-41.9c-3.5,14.2-9.1,77.9-38.8,100.6
			c7.3-7.2,13.3-17.6,12.4-23.4c0,0-3.8-3.7-9.4,0.1c-6.6,13.6-16.2,24.4-23.8,25.9c17.8-10.5,32.7-60.1,41.5-107.8
			C100.8,40,96.3,63.5,94,80.4z"/>
		<g>
			<path class="st11" d="M91.5,110.2c0.4-0.3,0.7-0.6,1-0.9c-0.2,0.3-0.4,0.5-0.6,0.8c0.7-0.6,1.2-1.3,1.6-2.1
				c1-1.8,1.6-3.7,1.8-5.7c0.1-0.9,0.1-1.8,0-2.7c-0.1-0.4-0.2-0.9-0.4-1.3c-0.2-0.4-0.5-0.8-1-1.1c-0.1-0.1-0.2-0.1-0.3-0.2
				c-0.7-0.3-1.5-0.2-2.1,0.3c-0.6,0.4-1.1,0.9-1.5,1.5c-0.8,1.1-1.5,2.4-2,3.7c-0.5,1.3-0.9,2.7-1,4.1c-0.1,0.7,0,1.4,0.1,2.1
				c0.1,0.7,0.5,1.3,1,1.7c0.1,0.1,0.2,0.1,0.3,0.2h0.1h0.1H89c0.2,0,0.2,0,0.2-0.1s-0.1-0.1-0.2-0.2H89h-0.1l-0.1-0.1
				c-0.1-0.1-0.2-0.1-0.3-0.2c-0.5-0.4-0.8-1-0.8-1.6c-0.1-0.6-0.1-1.2,0-1.9c0.1-1.2,0.4-2.4,0.9-3.6c0.4-1.1,1-2.1,1.7-3
				c0.3-0.4,0.8-0.8,1.3-1.1c0.5-0.3,1-0.3,1.5,0c0.3,0.2,0.5,0.4,0.6,0.7c0.1,0.3,0.2,0.6,0.3,0.9c0.1,0.6,0.1,1.2,0,1.9
				c-0.2,1.1-0.5,2.3-1,3.3c-0.2,0.5-0.5,0.9-0.8,1.4c-0.4,0.7-0.8,1.4-1.4,2c-0.2,0.3-0.5,0.5-0.8,0.6l-0.2,0.1h-0.1l0,0h-0.2l0,0
				l0,0c-0.1,0.1-0.1,0.1-0.2,0.2c-0.2,0.1-0.2,0.2-0.1,0.4c0,0.1,0.1,0.1,0.2,0.2l0.1,0.1h0.1l0,0l0.2,0.1c0.5,0,0.9-0.1,1.3-0.3
				c0.6-0.3,1.1-0.8,1.5-1.3l-0.2,0.2c-0.1,0.1-0.2,0.2-0.4,0.4c-0.1,0.1-0.3,0.2-0.4,0.3L91.5,110.2z"/>
			<path class="st11" d="M92.6,112.3c0.6-0.4,1.2-0.9,1.7-1.5c-0.2,0.2-0.3,0.4-0.5,0.6c-0.2,0.2-0.4,0.4-0.6,0.6
				c1.1-1,2.1-2.1,2.7-3.4c0.7-1.5,1.3-3,1.6-4.6c0.3-1.3,0.4-2.7,0.4-4c0-1.1-0.2-2.2-0.6-3.3c-0.2-0.5-0.4-1-0.7-1.5
				c-0.3-0.5-0.8-0.9-1.3-1.2c-0.1-0.1-0.3-0.2-0.4-0.2c-0.4-0.2-0.9-0.3-1.4-0.3c-0.4,0-0.9,0.1-1.3,0.3c-0.8,0.3-1.5,0.8-2.1,1.3
				c-1.4,1.3-2.5,2.8-3.3,4.5c-0.5,1-0.9,2-1.3,3.1c-0.4,1.2-0.6,2.4-0.7,3.6c-0.1,1.2,0,2.5,0.3,3.7c0.3,1.1,1,2,2,2.6
				c0.2,0.1,0.4,0.2,0.6,0.3l0.1,0.1l0,0l0.2,0.1c0.3,0.1,0.5,0,0.5,0c-0.2-0.1-0.3-0.2-0.5-0.3h-0.1l0,0l-0.2-0.1
				c-0.2-0.1-0.3-0.2-0.5-0.3c-1.7-1.3-2.1-3.7-1.8-6c0.2-2.1,0.8-4.2,1.8-6.2c0.7-1.6,1.8-3,3-4.2c0.6-0.6,1.2-1,1.9-1.3
				c0.2-0.1,0.4-0.1,0.6-0.2c0.1,0,0.2,0,0.3-0.1h0.3c0.1,0,0.2,0,0.3,0h0.3l0.3,0.1h0.2l0.1,0.1c0.4,0.2,0.7,0.5,1,0.9
				c0.3,0.4,0.5,0.8,0.6,1.2c0.3,0.8,0.4,1.7,0.4,2.6c0,1.8-0.3,3.7-1,5.4c-0.4,0.9-0.8,1.9-1.3,2.8c-0.7,1.5-1.7,2.8-2.8,3.9
				c-0.5,0.4-1,0.8-1.6,1l-0.4,0.1h-0.2l0,0h-0.1c-0.2,0-0.4,0.1-0.5,0.1c-0.2,0.1-0.2,0.2-0.1,0.4c0.2,0.1,0.3,0.2,0.5,0.2h0.2
				c-0.2,0-0.1,0-0.1,0h0.1l0.4,0.1c0.7,0,1.5-0.1,2.2-0.5c1-0.5,1.8-1.2,2.5-2.1l-0.3,0.3c-0.2,0.2-0.4,0.4-0.7,0.6
				c-0.2,0.2-0.4,0.4-0.7,0.5L92.6,112.3z"/>
			<path class="st11" d="M93.7,114.5c0.9-0.6,1.7-1.3,2.3-2.1c-0.1,0.2-0.2,0.3-0.3,0.5s-0.3,0.3-0.4,0.4c-0.2,0.3-0.5,0.6-0.8,0.8
				c1.6-1.3,2.9-3,3.8-4.8c1-2,1.6-4.2,2-6.4c0.3-1.7,0.3-3.3,0.1-5c-0.2-1.3-0.6-2.5-1.2-3.6c-0.3-0.5-0.7-1-1.1-1.4
				c-0.2-0.2-0.5-0.4-0.7-0.6c-0.3-0.2-0.6-0.4-0.9-0.6l-0.5-0.3c-0.5-0.2-1.1-0.3-1.6-0.4c-0.5-0.1-1-0.1-1.5,0
				c-0.9,0.1-1.7,0.4-2.5,0.8c-1.9,1.1-3.5,2.7-4.6,4.7c-0.8,1.3-1.5,2.7-2,4.2c-0.1,0.4-0.3,0.8-0.4,1.2l-0.3,1.3
				c-0.2,0.9-0.4,1.8-0.4,2.7c-0.2,1.8,0,3.6,0.7,5.3c0.6,1.5,1.6,2.7,3,3.5c0.3,0.1,0.5,0.2,0.8,0.3l0.2,0.1l-0.1-0.1l0.4,0.1
				c0.5,0.1,0.8,0.1,0.7,0.1c-0.3-0.2-0.6-0.3-0.8-0.4h-0.1l0,0h0.1l0,0l-0.3-0.2c-0.2-0.1-0.5-0.2-0.7-0.4
				c-1.3-0.8-2.2-2.1-2.7-3.5c-0.5-1.6-0.7-3.4-0.4-5.1c0.2-1.7,0.6-3.3,1.2-4.9c0.5-1.3,1.1-2.6,1.9-3.9c0.6-1,1.3-1.9,2.1-2.7
				c0.6-0.6,1.4-1.2,2.2-1.7c0.7-0.4,1.5-0.7,2.3-0.8c0.2,0,0.4,0,0.7,0h0.3h0.4c0.5,0.1,1,0.2,1.5,0.4c0.5,0.3,0.9,0.6,1.3,0.9
				c0.4,0.3,0.7,0.7,0.9,1.1c0.5,0.8,0.8,1.7,1,2.6c0.2,1,0.2,2,0.2,3c-0.1,1.2-0.3,2.4-0.6,3.5c-0.4,1.4-0.9,2.8-1.6,4.1
				c-0.6,1.2-1.2,2.4-2,3.5c-0.2,0.3-0.4,0.5-0.6,0.8l-0.6,0.7L93,113c-0.2,0.2-0.4,0.3-0.7,0.5c-0.8,0.5-1.6,0.9-2.5,1.1l-0.5,0.1
				h-0.2h0.2h-0.1c-0.4,0-0.7,0.1-0.9,0.1s-0.2,0.2-0.1,0.4c0.3,0.1,0.6,0.2,0.8,0.3l0.3,0.1h-0.2h0.1l0.6,0.1c1,0.1,2.1-0.1,3-0.6
				c1.4-0.7,2.6-1.7,3.6-2.9l-0.4,0.4c-0.3,0.3-0.6,0.6-0.9,0.9c-0.2,0.1-0.3,0.3-0.5,0.4l-0.5,0.3L93.7,114.5z"/>
		</g>
		<g>
			<path class="st10" d="M102.6,70.7c0.2-0.1,0.3-0.2,0.4-0.4c-0.1,0.1-0.1,0.3-0.2,0.4c0.3-0.3,0.5-0.6,0.7-1
				c0.3-0.8,0.5-1.6,0.4-2.5c0-0.3-0.1-0.7-0.2-1c-0.1-0.3-0.3-0.6-0.7-0.8h-0.1c-0.3-0.1-0.6,0-0.8,0.2c-0.2,0.2-0.4,0.4-0.5,0.6
				c-0.3,0.5-0.5,1-0.6,1.5c-0.2,0.5-0.2,1.1-0.2,1.6c-0.1,0.5,0.2,1.1,0.6,1.4h0.1l0,0h0.1h0.1c0-0.1-0.3,1.2-0.2,0.6l0,0
				c0,0,0-0.1,0-0.1c0-0.1,0-0.1,0-0.2l0,0l0,0v-0.4l0,0l0,0c0,0.1,0,0.3-0.1,0.4l0,0v0.1c0,0.1,0,0.1,0,0.2l0,0l0,0
				c0.1-0.4-0.3,0.9,0.2-0.9h-0.1h-0.1h-0.1l0,0l-0.1-0.1c-0.3-0.3-0.4-0.6-0.4-1c0-0.4,0.1-0.7,0.2-1.1c0.1-0.3,0.2-0.6,0.4-0.8
				c0.2-0.2,0.4-0.3,0.7-0.1c0.2,0.3,0.3,0.7,0.1,1.1c-0.1,0.3-0.2,0.6-0.4,0.8c-0.1,0.1-0.2,0.1-0.3,0.2c0,0,0,0,0,0.1
				c0,0.1,0,0.2,0,0.3V70l0,0h-0.4c0-0.4,0.2,3.2,0.1,1.7l0,0c0.3-2.9,0.1-0.8,0.2-1.4l0,0l0,0v0.1c0,0,0,0.1,0,0.1
				c0,0.1,0,0.1,0.1,0.2l0,0c0,0.5,0.1-1-0.1,1.1l0,0c-0.1-1.7,0-0.5,0-0.9h0.3l0,0l0,0c0,0,0.1,0.1,0.1,0.1c0.3,0.2,0.8,0,1.2-0.6
				c-0.1,0.1-0.2,0.2-0.3,0.2C102.9,70.6,102.7,70.6,102.6,70.7z"/>
			<path class="st10" d="M103.7,72.5c0.3-0.3,0.6-0.6,0.9-1c-0.2,0.3-0.3,0.6-0.5,0.8c0.6-0.7,1.1-1.4,1.4-2.2
				c0.8-1.8,1.2-3.8,1.3-5.8c0-0.9-0.1-1.8-0.3-2.7c-0.1-0.4-0.3-0.9-0.5-1.2c-0.2-0.4-0.6-0.8-1-1c-0.1-0.1-0.2-0.1-0.3-0.1
				c-0.7-0.2-1.5,0-2,0.5c-0.5,0.5-1,1-1.4,1.6c-0.7,1.2-1.3,2.5-1.6,3.9c-0.4,1.4-0.6,2.8-0.6,4.2c0,0.7,0.1,1.4,0.3,2.1
				c0.2,0.7,0.6,1.2,1.2,1.6c0.1,0.1,0.2,0.1,0.3,0.1h0.1h0.1h0.1c0.2,0,0.2,0,0.2-0.1s-0.1-0.1-0.2-0.2h-0.1H101l-0.1-0.1
				c-0.1-0.1-0.2-0.1-0.3-0.2c-0.5-0.4-0.9-0.9-1-1.5c-0.2-0.6-0.2-1.2-0.2-1.8c0-1.2,0.2-2.4,0.6-3.6c0.3-1.1,0.8-2.2,1.4-3.2
				c0.3-0.5,0.7-0.9,1.2-1.2c0.5-0.3,1.1-0.4,1.6-0.1c0.3,0.2,0.5,0.4,0.7,0.6c0.2,0.3,0.3,0.6,0.4,0.9c0.2,0.6,0.2,1.2,0.2,1.9
				c0,1.1-0.3,2.3-0.6,3.4c-0.2,0.5-0.4,1-0.7,1.5c-0.3,0.8-0.7,1.5-1.2,2.1c-0.2,0.3-0.5,0.5-0.8,0.7l-0.2,0.1l-0.1,0.1h-0.2l0,0
				l0,0c-0.1,0.1-0.1,0.1-0.1,0.2c-0.2,0.1-0.2,0.2,0,0.4c0.1,0.1,0.1,0.1,0.2,0.2h0.1h0.2h0.2c0.5,0,0.9-0.2,1.3-0.4
				c0.5-0.4,1-0.9,1.3-1.5l-0.2,0.2c-0.1,0.1-0.2,0.3-0.3,0.4c-0.1,0.1-0.2,0.3-0.4,0.4L103.7,72.5z"/>
			<path class="st10" d="M105,74.5c0.6-0.5,1.1-1,1.5-1.7c-0.1,0.2-0.3,0.5-0.4,0.7c-0.1,0.2-0.3,0.4-0.5,0.7c1-1.1,1.8-2.3,2.4-3.7
				c0.6-1.5,1-3.1,1.2-4.8c0.2-1.3,0.2-2.7,0-4c-0.1-1.1-0.4-2.2-0.9-3.3c-0.2-0.5-0.5-1-0.9-1.4c-0.4-0.5-0.9-0.9-1.4-1.1
				c-0.1-0.1-0.3-0.1-0.4-0.2c-0.5-0.1-0.9-0.2-1.4-0.1c-0.4,0.1-0.9,0.2-1.2,0.4c-0.7,0.4-1.4,0.9-1.9,1.5c-1.2,1.4-2.2,3-2.8,4.8
				c-0.4,1-0.8,2.1-1,3.2c-0.3,1.2-0.4,2.4-0.4,3.7c0,1.2,0.2,2.5,0.7,3.6c0.4,1.1,1.2,1.9,2.2,2.4c0.2,0.1,0.4,0.2,0.6,0.2h0.1l0,0
				h0.3c0.3,0,0.5,0,0.4,0c-0.2-0.1-0.3-0.2-0.5-0.2h-0.1l0,0l-0.2-0.1c-0.2-0.1-0.4-0.2-0.5-0.3c-1.8-1.1-2.5-3.5-2.4-5.8
				c0.1-2.1,0.5-4.3,1.2-6.3c0.6-1.6,1.5-3.2,2.6-4.5c0.5-0.6,1.1-1.1,1.8-1.5c0.2-0.1,0.4-0.2,0.6-0.2c0.1,0,0.2-0.1,0.3-0.1h0.3
				c0.1,0,0.2,0,0.3,0h0.3l0.3,0.1c0.1,0,0.1,0,0.2,0l0.2,0.1c0.4,0.2,0.8,0.4,1.1,0.8c0.3,0.3,0.5,0.7,0.7,1.1
				c0.4,0.8,0.6,1.7,0.7,2.6c0.2,1.8,0,3.7-0.5,5.5c-0.3,1-0.6,1.9-1.1,2.9c-0.6,1.5-1.4,2.9-2.4,4.2c-0.4,0.5-1,0.8-1.5,1.1
				l-0.3,0.1l-0.2,0.1l0,0l0,0l0,0h-0.1c-0.2,0-0.3,0.1-0.5,0.2c-0.2,0.1-0.2,0.2,0,0.4c0.2,0.1,0.4,0.2,0.5,0.2h0.2
				c-0.2,0-0.1,0-0.1,0h0.1h0.4c0.7,0,1.5-0.3,2.1-0.7c0.9-0.6,1.7-1.4,2.3-2.4l-0.2,0.3c-0.2,0.2-0.4,0.5-0.6,0.7
				c-0.2,0.2-0.4,0.4-0.6,0.6L105,74.5z"/>
			<path class="st10" d="M106.3,76.7c0.8-0.7,1.6-1.4,2.2-2.3l-0.3,0.5c-0.1,0.2-0.2,0.3-0.3,0.5c-0.2,0.3-0.5,0.6-0.7,0.9
				c1.5-1.5,2.6-3.2,3.3-5.2c0.8-2.1,1.3-4.3,1.4-6.5c0.1-1.7,0-3.4-0.4-5c-0.3-1.3-0.8-2.4-1.6-3.5c-0.4-0.5-0.8-0.9-1.3-1.3
				c-0.3-0.2-0.5-0.4-0.8-0.6c-0.3-0.2-0.7-0.3-1-0.5l-0.5-0.2c-0.5-0.1-1.1-0.2-1.6-0.2c-0.5,0-1,0-1.5,0.2c-0.8,0.2-1.7,0.5-2.4,1
				c-1.8,1.3-3.2,3.1-4.1,5.1c-0.7,1.4-1.2,2.8-1.6,4.3c-0.1,0.4-0.2,0.8-0.3,1.3l-0.2,1.3c-0.1,0.9-0.2,1.8-0.2,2.8
				c0,1.8,0.4,3.6,1.2,5.2c0.8,1.7,2.3,3,4.2,3.5l0.2,0.1h-0.1l0.4,0.1c0.5,0.1,0.8,0,0.7,0c-0.3-0.1-0.6-0.2-0.9-0.3h-0.1l0,0h0.1
				l0,0l-0.3-0.1c-0.3-0.1-0.5-0.2-0.8-0.3c-1.3-0.7-2.4-1.9-3-3.2c-0.7-1.6-1-3.3-0.9-5c0-1.7,0.3-3.4,0.7-5c0.4-1.4,0.9-2.7,1.5-4
				c0.5-1,1-2,1.7-2.9c0.6-0.7,1.3-1.3,2-1.9c0.7-0.5,1.4-0.8,2.2-1c0.2-0.1,0.4-0.1,0.7-0.1h0.3h0.4c0.5,0,1,0.1,1.5,0.3
				c0.5,0.2,1,0.5,1.4,0.8c0.4,0.3,0.7,0.6,1,1c0.6,0.7,1,1.6,1.3,2.5c0.3,1,0.5,2,0.5,3c0.1,1.2,0,2.3-0.2,3.5
				c-0.3,1.5-0.6,2.9-1.2,4.3c-0.4,1.3-1,2.5-1.7,3.7c-0.2,0.3-0.3,0.6-0.5,0.8l-0.6,0.8l-0.6,0.7c-0.2,0.2-0.4,0.4-0.6,0.6
				c-0.7,0.6-1.5,1-2.4,1.3l-0.5,0.1l-0.2,0.1l0,0c0,0,0.1,0,0.1,0h0.1h-0.1c-0.4,0.1-0.7,0.1-0.9,0.2s-0.2,0.2,0,0.4
				c0.3,0.1,0.6,0.2,0.9,0.2h0.3h-0.2h0.1h0.6c1.1,0,2.1-0.3,3-0.8c1.3-0.8,2.4-1.8,3.2-3.1l-0.3,0.5c-0.2,0.4-0.5,0.7-0.8,1
				c-0.2,0.2-0.3,0.3-0.5,0.5l-0.4,0.4L106.3,76.7z"/>
		</g>
		<g>
			<path class="st10" d="M74.3,138.9c0.2-0.1,0.3-0.1,0.5-0.2c-0.1,0.1-0.2,0.2-0.3,0.3c0.4-0.2,0.7-0.4,0.9-0.7
				c0.5-0.6,0.9-1.3,1.1-2.1c0.1-0.3,0.1-0.6,0.1-0.9c0-0.3-0.2-0.6-0.4-0.8c0,0-0.1-0.1-0.1-0.1c-0.3-0.1-0.6-0.1-0.8,0
				c-0.2,0.1-0.5,0.2-0.7,0.4c-0.4,0.3-0.7,0.7-1,1.1c-0.3,0.4-0.5,0.9-0.7,1.4c-0.2,0.4-0.1,1,0.2,1.4l0.1,0.1l0,0l0.1,0.1h0.1l0,0
				l-0.3,0.5l0,0l0.1-0.1l0.1-0.1l0,0l0,0l0.2-0.3l0,0l0,0c0,0-0.1,0.2-0.2,0.4l0,0l0,0c0,0,0,0,0,0.1l-0.1,0.2l0,0l0,0l0.5-0.7
				h-0.1l-0.1-0.1h-0.1l0,0l0,0l-0.1-0.1c-0.2-0.3-0.2-0.7-0.1-1c0.1-0.3,0.3-0.6,0.5-0.9c0.2-0.2,0.4-0.4,0.7-0.6
				c0.2-0.1,0.5-0.2,0.7,0.1c0.1,0.3,0,0.7-0.2,1c-0.2,0.2-0.4,0.4-0.6,0.6c-0.1,0-0.2,0.1-0.3,0.1c0,0,0,0,0,0.1
				c0,0.1,0,0.2-0.1,0.2v0.1l0,0l0,0l-0.3-0.1l0,0c0.1-0.3-0.7,2.9-0.4,1.5l0,0c1.1-2.4,0.3-0.7,0.6-1.2h-0.1h-0.1c0,0,0,0-0.1,0.1
				c0,0.1,0,0.1,0,0.2l0,0c-0.2,0.4,0.4-0.9-0.4,0.9l0,0c0.4-1.5,0.1-0.4,0.2-0.8l0,0l0.2,0.1h0.1l0,0l0,0l0.1,0.1
				c0.2,0.2,0.8,0.2,1.3-0.2c-0.1,0-0.2,0.1-0.3,0.1C74.5,138.8,74.4,138.8,74.3,138.9z"/>
			<path class="st10" d="M74.9,140.7c0.4-0.2,0.8-0.4,1.1-0.6c-0.2,0.2-0.5,0.4-0.8,0.6c0.7-0.4,1.4-0.9,2-1.6
				c1.3-1.4,2.3-3,2.9-4.8c0.3-0.8,0.5-1.6,0.5-2.4c0-0.4,0-0.8-0.1-1.2c-0.1-0.4-0.3-0.8-0.7-1.1c-0.1-0.1-0.2-0.1-0.3-0.2
				c-0.6-0.4-1.4-0.4-2.1-0.1c-0.6,0.3-1.3,0.6-1.8,1.1c-1,0.8-1.9,1.8-2.7,2.9c-0.8,1.1-1.4,2.2-1.8,3.5c-0.2,0.6-0.3,1.2-0.3,1.9
				c0,0.6,0.2,1.3,0.7,1.7c0.1,0.1,0.2,0.2,0.3,0.2l0.1,0.1h0.1h0.1c0.1,0,0.2,0,0.2,0s0-0.1-0.2-0.2s0,0-0.1,0s-0.1,0-0.1-0.1
				l-0.1-0.1c-0.1-0.1-0.2-0.1-0.2-0.2c-0.4-0.4-0.5-1-0.5-1.6c0-0.6,0.1-1.1,0.3-1.7c0.4-1.1,0.9-2.1,1.6-3
				c0.6-0.9,1.4-1.7,2.3-2.4c0.4-0.3,0.9-0.6,1.4-0.7c0.5-0.2,1.1,0,1.5,0.3c0.2,0.2,0.4,0.4,0.5,0.7c0.1,0.3,0.1,0.6,0.1,0.9
				c0,0.6-0.1,1.1-0.3,1.7c-0.4,1-0.9,1.9-1.6,2.8c-0.3,0.4-0.7,0.7-1.1,1.1c-0.5,0.6-1.1,1.1-1.8,1.5c-0.3,0.2-0.6,0.3-0.9,0.4
				l-0.2,0.1H73l0,0h-0.2l0,0l0,0c-0.1,0-0.1,0.1-0.2,0.1c-0.2,0.1-0.2,0.2-0.2,0.3c0,0.1,0.1,0.1,0.1,0.2l0.1,0.1l0.1,0.1l0,0
				l0.2,0.1c0.4,0.1,0.9,0.1,1.4-0.1c0.6-0.2,1.2-0.5,1.7-0.9l-0.2,0.1c-0.1,0.1-0.3,0.2-0.4,0.3s-0.3,0.2-0.5,0.2L74.9,140.7z"/>
			<path class="st10" d="M75.5,142.8c0.7-0.3,1.3-0.6,1.9-1.1c-0.2,0.2-0.4,0.3-0.6,0.5c-0.2,0.2-0.4,0.3-0.7,0.4
				c1.3-0.6,2.4-1.5,3.3-2.6c1-1.2,1.9-2.5,2.6-3.8c0.5-1.1,0.9-2.3,1.2-3.5c0.2-1,0.2-2,0.1-3.1c-0.1-0.5-0.2-1-0.4-1.5
				c-0.2-0.5-0.6-1-1-1.3c-0.1-0.1-0.2-0.2-0.4-0.3c-0.4-0.2-0.8-0.4-1.3-0.5c-0.4-0.1-0.9-0.1-1.3,0c-0.8,0.2-1.6,0.4-2.3,0.8
				c-1.6,0.9-2.9,2-4.1,3.4c-0.7,0.8-1.3,1.7-1.9,2.6c-0.6,1-1.1,2-1.4,3.1c-0.4,1.1-0.5,2.2-0.4,3.3c0.1,1,0.6,2,1.4,2.7
				c0.2,0.1,0.3,0.2,0.5,0.3l0.1,0.1l0,0l0.2,0.1c0.3,0.1,0.5,0.1,0.4,0.1c-0.1-0.1-0.3-0.3-0.5-0.4l-0.1-0.1l0,0l-0.2-0.2
				c-0.2-0.1-0.3-0.2-0.4-0.4c-1.5-1.5-1.4-3.8-0.7-5.8c0.7-1.9,1.7-3.6,3-5.1c1.1-1.3,2.3-2.4,3.8-3.3c0.7-0.4,1.4-0.7,2.2-0.9
				c0.2,0,0.4-0.1,0.6-0.1h0.3h0.3c0.1,0,0.2,0,0.3,0.1l0.3,0.1l0.3,0.1l0.2,0.1l0.1,0.1c0.4,0.3,0.7,0.6,0.9,1
				c0.2,0.4,0.3,0.8,0.4,1.2c0.1,0.8,0.1,1.6-0.1,2.4c-0.4,1.7-1.1,3.2-2.1,4.6c-0.6,0.8-1.2,1.5-1.8,2.2c-1,1.2-2.2,2.2-3.5,3
				c-0.6,0.3-1.2,0.5-1.8,0.6h-0.4h-0.2h-0.1c-0.2,0-0.4,0-0.5,0c-0.2,0-0.2,0.2-0.2,0.3c0.1,0.1,0.3,0.2,0.4,0.3l0.2,0.1
				c-0.2,0-0.1,0-0.1,0h0.1l0.4,0.1c0.7,0.2,1.5,0.2,2.2,0c1.1-0.3,2-0.8,2.9-1.4l-0.3,0.2c-0.2,0.2-0.5,0.3-0.8,0.4
				c-0.2,0.1-0.5,0.3-0.8,0.4L75.5,142.8z"/>
			<path class="st10" d="M76.1,145c1-0.4,1.9-0.9,2.8-1.5l-0.4,0.4l-0.5,0.3c-0.3,0.2-0.7,0.4-1,0.6c1.8-0.9,3.4-2.1,4.7-3.7
				c1.3-1.6,2.4-3.4,3.2-5.3c0.6-1.4,1-2.9,1.1-4.5c0.1-1.2-0.1-2.3-0.6-3.4c-0.2-0.5-0.5-1-0.8-1.5c-0.2-0.2-0.4-0.5-0.6-0.7
				c-0.3-0.2-0.5-0.5-0.8-0.7l-0.4-0.3c-0.5-0.2-1-0.5-1.5-0.6c-0.5-0.1-1-0.2-1.4-0.2c-0.9,0-1.7,0-2.6,0.3
				c-2.1,0.6-3.9,1.8-5.4,3.4c-1,1-2,2.2-2.8,3.4c-0.2,0.3-0.4,0.6-0.6,1l-0.6,1.1c-0.4,0.8-0.7,1.6-1,2.4c-0.6,1.6-0.7,3.2-0.4,4.9
				c0.3,1.5,1.1,2.8,2.3,3.7c0.2,0.2,0.5,0.3,0.7,0.4l0.2,0.1l-0.1-0.1l0.4,0.2c0.4,0.2,0.7,0.2,0.7,0.2c-0.2-0.2-0.5-0.4-0.8-0.5
				l-0.1-0.1l0,0l0,0l0,0l0,0l0,0l-0.3-0.2c-0.2-0.1-0.4-0.3-0.6-0.5c-1.1-0.9-1.8-2.2-2-3.6c-0.2-1.6,0-3.2,0.6-4.6
				c0.5-1.5,1.2-2.9,2.1-4.1c0.8-1.1,1.6-2.2,2.6-3.1c0.8-0.8,1.7-1.5,2.6-2.1c0.8-0.5,1.6-0.8,2.4-1.1c0.8-0.2,1.6-0.4,2.4-0.3
				c0.2,0,0.4,0,0.7,0.1l0.3,0.1l0.3,0.1c0.5,0.2,0.9,0.4,1.3,0.6c0.4,0.3,0.8,0.6,1.1,1c0.3,0.4,0.5,0.7,0.7,1.2
				c0.3,0.8,0.5,1.6,0.5,2.5c0,0.9-0.1,1.9-0.4,2.8c-0.3,1.1-0.7,2.1-1.2,3.1c-0.7,1.2-1.5,2.3-2.3,3.4c-0.8,1-1.7,1.9-2.6,2.7
				c-0.2,0.2-0.5,0.4-0.7,0.6l-0.8,0.5l-0.8,0.4c-0.2,0.1-0.5,0.2-0.8,0.3c-0.9,0.3-1.8,0.5-2.7,0.5h-0.8h0.1h0.1l0,0h-0.1l-0.9-0.1
				c-0.2,0.1-0.2,0.2-0.2,0.3c0.2,0.2,0.5,0.3,0.8,0.4l0.3,0.1h-0.2h-0.1l0,0h0.1h0.1l0.5,0.2c1,0.2,2.1,0.2,3.1,0
				c1.5-0.3,2.9-1,4.1-2l-0.5,0.3c-0.3,0.2-0.7,0.4-1.1,0.6c-0.2,0.1-0.4,0.2-0.6,0.3l-0.5,0.2L76.1,145z"/>
		</g>
		<path class="st8" d="M37.3,47.4C35.8,44.7,37,74.6,42,77.6s30.4-16.3,38.7-27.7c-21.6,34.3-44.4,44.6-46.2,47S45.1,96.7,54,91
			c2.8,0.5,3.3,12.8,3.3,12.8S85.2,83.4,94,35.4c-17.6,0-35.2-1.7-52.5-5.3c4.2,20.1,5.5,34.3,27.4,12.3
			C50.7,66.2,42.2,56.6,37.3,47.4z"/>
		<path class="st8" d="M35.3,122.4c19-9.8,36.9-23.5,48-44.3c-2,21.4-20.1,54.2-29.3,59.1S33,125.5,35.3,122.4z"/>
		<path class="st12" d="M202,22.3c-5.6,2.2-11.4,3.8-17.4,4.7c-5.4,1-11.5,1.8-18.1,2.4l-2,0.2c-8,0.7-16.7,1.2-25.7,1.4
			c-3.2,0.1-6.4,0.1-9.6,0.2s-6.7,0-10.1,0h-4.8h-1.6h-0.8h-1.4H110h-1.5l0,0h-0.7l-2.4-0.2H105h-1.8h-0.5l-2-0.1h-0.5l-2.7-0.1
			h-1.1c-1.1,0-2.2-0.1-3.2-0.1c-3.3-0.1-6.6-0.3-9.9-0.5c-13.1-0.8-25.2-2-35.4-3.6l-4-0.7c-4-0.7-7.5-1.4-10.7-2.2
			C31,23,29,22.4,27.2,21.8c0.1-2.2,0.3-5.5,0.6-9.7c0.1-1.7,0.2-3.5,0.4-5.4h173.4C201.8,12.4,202,17.7,202,22.3z"/>
		<path class="st13" d="M198.8,18.3c-3.1,2-7.9,3.7-14,5.2c-5.9,1.4-11.9,2.6-18,3.4l-2,0.3c-8,1-16.8,1.8-26,2.3
			c-3.1,0.2-6.3,0.3-9.6,0.4s-6.5,0.2-9.8,0.2h-2.3H110l-4.2-0.1h-0.5h-1.8l0,0h-0.5l-2,0h-0.5l-2.7-0.1l0,0h-1.2
			c-1,0-2.1-0.1-3.1-0.1c-3.3-0.2-6.6-0.4-9.9-0.6c-11.9-0.8-23.7-2.4-35.4-4.9c-1.4-0.3-2.8-0.6-4.1-1c-3.4-0.9-6.6-1.8-9.5-2.9
			c0.2-1.9,0.4-3.9,0.6-6.1c0.2-2.4,0.5-5,0.7-7.7h162.7C198.9,13,199.1,17.1,198.8,18.3z"/>
		<path class="st14" d="M139.2,6.6c-0.7,0.6-1.4,1.2-2.1,1.9c-2.3,2-4.7,3.9-7.2,5.7c-3,2.2-6,4.2-9.2,6c-1.4,0.8-2.8,1.5-4.3,2.2
			l-0.7,0.3c-0.4,0.2-0.8,0.3-1.2,0.4l-0.4,0.1c-0.3,0.1-0.7,0.2-1,0.3s-0.6,0.1-0.9,0.2c-0.6,0.1-1.4,0.2-2.3,0.3
			c-1.2,0.1-2.5,0.3-4.1,0.4l-0.7,0l0,0l-2.4,0.2l-0.7,0l-3.5,0.2L96.4,25c-0.9,0-1.7,0.1-2.6,0.1c-3.1,0.1-6.4,0.1-9.8,0.1
			c-13.1,0-27.3-1.1-35.6-4.2c-1.4-0.5-2.8-1.2-4.1-2.1c-1.1-0.7-2.1-1.8-2.7-3c0-0.1-0.1-0.3-0.2-0.4c-0.6-2.9-0.9-5.9-0.9-8.9
			L139.2,6.6z"/>
		<g>
			<path class="st15" d="M75.2,171.4c-1.8,1.3-10,4.6-13.5,10.9s-11.3,15.6-26.2,19.1c-9.5,2.3-24.6,2.9-28.4-0.9
				c-2-2,2.1-12.6,5.7-15.6s16,9.2,29.1,1.5s32.8-22.5,33.7-20.4S76.5,170.5,75.2,171.4z"/>
			<path class="st16" d="M32.1,160.1c-3.2,5.2-5.2,9-1.7,9.4s8-2.1,8-2.1s-1.8,5.3,1.1,8.3c6.2,6.5,32.4-17.3,34.2-24.4
				c2.4,4.3,3.4,15.3,1.9,16.9s-11.8,5.5-15.1,11.7s-11.1,15.2-25.6,18.7c-9.3,2.2-24,2.8-27.7-0.8c-1.9-1.9,2.9-16.7,10.9-24.6
				C23.2,168.2,32.1,160.1,32.1,160.1z"/>
			<path class="st17" d="M27.9,165.3c-0.3,3-0.8,7.4,8.7,3.8c-2.7,8.8,5.2,11.5,13.4,6.3c5.6-3.5,18.4-14.1,22.2-19.3
				c-5,9.2-19.5,20.2-26.6,27.8s-33,11.6-34.9,8.6C9.3,190.3,13,175.5,27.9,165.3z"/>
			<path class="st18" d="M10.4,200.4c-2.4-0.4-1.3,1.5,5.5,2.1s24.9-2.1,30.8-7.5C32.3,200.7,20.2,202,10.4,200.4z"/>
		</g>
		<g>
			<path class="st15" d="M211.3,182.8c1.9,1.7,1.2,5.7-6.7,9.4c-9.1,4.3-20.8,6.9-37.1-0.4s-20.4-7.3-30.1-8.4s-14.4-2.6-15.4-5.6
				c-0.3-1.6-0.3-3.1,0-4.7c0,0,13.5-5,30.7,4.5s22.5,12.4,36,9.7S211.3,182.8,211.3,182.8z"/>
			<path class="st16" d="M124.8,156.2c5.2,5.2,14.4,8.4,26.4,9.8s15.9,5,22.8,8.6s17.8,0.7,13.2-6.3c7.3,8,22.2,9.7,24.1,11.4
				s1.2,5.7-6.7,9.4c-9.1,4.3-20.8,6.9-37.1-0.4s-20.4-7.3-30.1-8.4s-14.4-2.6-15.4-5.7S121.9,159.8,124.8,156.2z"/>
			<path class="st17" d="M132,162.8c6.6,8.2,17.8,6.2,28.6,12.2s16.8,9.6,23.2,10.9c9.1,1.9,27.5-0.1,26.8-5.4
				c-0.3-1.4-14.6-3.1-21.6-9.5c1,4.5-7.7,9-17.9,3c-9.9-5.8-14-6.1-22.7-7.2S135,164,132,162.8z"/>
			<path class="st18" d="M169.9,190.6c11.1,5.3,30.6,4.9,40.7-5C198.5,197.6,180.6,198.2,169.9,190.6z"/>
		</g>
	</g>
</g>
</svg>
