<svg id="Layer_1" data-name="Layer 1" xmlns="http://www.w3.org/2000/svg" xmlns:xlink="http://www.w3.org/1999/xlink" width="213.27" height="186.2" viewBox="0 0 213.27 186.2">
  <defs>
    <style>
      .cls-1, .cls-10, .cls-11, .cls-12, .cls-13, .cls-14, .cls-15, .cls-16, .cls-17, .cls-18, .cls-19, .cls-2, .cls-20, .cls-21, .cls-22, .cls-23, .cls-24, .cls-25, .cls-26, .cls-27, .cls-28, .cls-29, .cls-30, .cls-6, .cls-7, .cls-8, .cls-9 {
        fill-rule: evenodd;
      }

      .cls-1 {
        opacity: 0.5;
      }

      .cls-2 {
        fill: #fff;
      }

      .cls-3 {
        fill: #3a1b07;
      }

      .cls-3, .cls-5 {
        stroke: #1e0f03;
        stroke-width: 2px;
      }

      .cls-11, .cls-19, .cls-20, .cls-25, .cls-3, .cls-5, .cls-6, .cls-8, .cls-9 {
        stroke-miterlimit: 10;
      }

      .cls-4 {
        fill: #4c250f;
      }

      .cls-5 {
        fill: #2d1305;
      }

      .cls-6 {
        stroke: #301f18;
        fill: url(#linear-gradient);
      }

      .cls-7 {
        fill: #42251c;
      }

      .cls-8 {
        fill: #b2694a;
        stroke: #7c4633;
      }

      .cls-11, .cls-20, .cls-25, .cls-8, .cls-9 {
        stroke-width: 0.5px;
      }

      .cls-9 {
        fill: #ec916c;
        stroke: #ba694d;
      }

      .cls-10 {
        opacity: 0.31;
      }

      .cls-11 {
        stroke: #5e5a58;
        fill: url(#linear-gradient-2);
      }

      .cls-12 {
        fill: #2d251e;
      }

      .cls-13 {
        fill: #552d1d;
      }

      .cls-14 {
        fill: url(#linear-gradient-3);
      }

      .cls-15 {
        fill: url(#linear-gradient-4);
      }

      .cls-16 {
        fill: url(#linear-gradient-5);
      }

      .cls-17 {
        fill: url(#linear-gradient-6);
      }

      .cls-18 {
        fill: #23110a;
      }

      .cls-19 {
        fill: #302824;
        stroke: #351d13;
      }

      .cls-20 {
        fill: #302d2d;
      }

      .cls-20, .cls-25 {
        stroke: #282423;
      }

      .cls-21 {
        fill: url(#linear-gradient-7);
      }

      .cls-22 {
        fill: #776a66;
      }

      .cls-23 {
        fill: #323232;
      }

      .cls-24 {
        fill: #fdfdfb;
      }

      .cls-25 {
        fill: #4c4b4b;
      }

      .cls-26 {
        fill: #ecdbd2;
      }

      .cls-27 {
        fill: #f7efeb;
      }

      .cls-28 {
        fill: #3f251d;
        opacity: 0.47;
      }

      .cls-29 {
        fill: #9b6a59;
      }

      .cls-30 {
        fill: #bf9a8c;
        opacity: 0.42;
      }
    </style>
    <linearGradient id="linear-gradient" x1="120.17" y1="71.44" x2="198.64" y2="71.44" gradientTransform="translate(10.07 46.44) rotate(4.69)" gradientUnits="userSpaceOnUse">
      <stop offset="0.59" stop-color="#86491a"/>
      <stop offset="0.73" stop-color="#9b642f"/>
      <stop offset="0.9" stop-color="#b28046"/>
      <stop offset="1" stop-color="#ba8a4e"/>
    </linearGradient>
    <linearGradient id="linear-gradient-2" x1="58.94" y1="54.18" x2="116.57" y2="-18.62" gradientTransform="translate(10.07 46.44) rotate(4.69)" gradientUnits="userSpaceOnUse">
      <stop offset="0.07" stop-color="#ded7cc"/>
      <stop offset="0.11" stop-color="#d8c7b0"/>
      <stop offset="0.18" stop-color="#ceaf86"/>
      <stop offset="0.24" stop-color="#c89d67"/>
      <stop offset="0.3" stop-color="#c39355"/>
      <stop offset="0.34" stop-color="#c28f4e"/>
      <stop offset="0.4" stop-color="#c28f4e"/>
    </linearGradient>
    <linearGradient id="linear-gradient-3" x1="69.75" y1="38.46" x2="147.44" y2="38.46" xlink:href="#linear-gradient"/>
    <linearGradient id="linear-gradient-4" x1="71.9" y1="34.97" x2="140.57" y2="34.97" xlink:href="#linear-gradient"/>
    <linearGradient id="linear-gradient-5" x1="80.8" y1="30.2" x2="134.08" y2="30.2" xlink:href="#linear-gradient"/>
    <linearGradient id="linear-gradient-6" x1="96.85" y1="27.02" x2="129.03" y2="27.02" xlink:href="#linear-gradient"/>
    <linearGradient id="linear-gradient-7" x1="45.29" y1="4.6" x2="154.99" y2="48.91" gradientTransform="translate(10.07 46.44) rotate(4.69)" gradientUnits="userSpaceOnUse">
      <stop offset="0.07" stop-color="#86491a"/>
      <stop offset="0.33" stop-color="#9b642f"/>
      <stop offset="0.66" stop-color="#b28046"/>
      <stop offset="0.86" stop-color="#ba8a4e"/>
    </linearGradient>
  </defs>
  <g>
    <path class="cls-1" d="M134.22,186.2a7.9,7.9,0,0,1-2-.25c-12.53-3.2-23.14-5.83-31.56-7.81-7.84-1.79-13.79-3.08-17.64-3.81-1.29-.24-2.7-.47-4.1-.67-6.5-.74-21.56-1.45-36.12-2.13-6.74-.32-13.52-.64-19.6-1H23c-3.71-.14-7-.29-10.22-.46a8,8,0,0,1-7.45-9.36c.72-4.18,1.39-8.64,2.1-14.06a8,8,0,0,1,7.92-7l.55,0c4.32.29,8.7.44,13,.44a194.45,194.45,0,0,0,34.43-3.09,48.81,48.81,0,0,1,5.69-.66l.36-.25A23.65,23.65,0,0,1,76,133.63,100,100,0,0,1,66.53,127,282.34,282.34,0,0,1,41.67,105C35,98.15,31.08,93,28.21,87a53,53,0,0,1-4.5-14.26,59.15,59.15,0,0,1-1.3-7.22c-.22-1.78-.41-3.9-.6-6-.14-1.59-.28-3.16-.43-4.5a26.81,26.81,0,0,0-1-5.59c-.44-1.42-1.08-3.1-1.65-4.58l-.45-1.19c-.26-.68-.49-1.31-.71-1.91-1.25-.52-2.34-1.06-3.19-1.5-.58-.3-2.28-1.19-3.68-2.06A8.18,8.18,0,0,1,5.41,27.87c.94-2.87,3.19-4.58,5.41-6.09A46.34,46.34,0,0,1,17,18.26c1.47-3,4.5-6.35,10.58-8.77A53.23,53.23,0,0,1,33.76,7.3c1.41-.41,2.91-.79,4.45-1.13,1.11-.27,2-.46,2.87-.58a20.66,20.66,0,0,1,5-.59,24,24,0,0,1,3.57.27A22.24,22.24,0,0,1,55.9,7l.45.2a33.87,33.87,0,0,1,8.55,5.41c.42.32.83.65,1.24,1a58.35,58.35,0,0,1,6,5.72l.13.15c.94,1,1.75,2,2.48,3l.51.7a24.3,24.3,0,0,1,3.19,5.25c.54,1.07,1,2.16,1.48,3.24a48.3,48.3,0,0,1,2,6.11l.91.58c.87.54,2,1.2,3.31,2,2.19,1.27,4.92,2.85,7.68,4.59a150.31,150.31,0,0,1,15.74,11.48c5,4.07,11.53,9.74,16.3,14.11l.12.12c.85.77,1.59,1.46,2.22,2.06a26.44,26.44,0,0,1,4.71,5.3c3.67,3.36,7.7,7.54,10.32,10.49s4.07,5,4.79,6.78a15.93,15.93,0,0,1,4.39,4.48l1.32.89a16,16,0,0,1,4.2,3.79c.85.44,1.62.87,2.32,1.32,1.16.74,4.7,3,5.47,7.21a8.11,8.11,0,0,1,.14,1.46l6.41,4.39.27.18c10,6.83,22.48,15.33,29.38,21.13,7.71,6.47,11.32,12.78,11.34,19.83a36,36,0,0,1-.15,5.24,8,8,0,0,1-12.86,5.69c-1-.75-2.07-1.74-3.59-3.1-2-1.82-4.82-4.31-8.21-7-2.1-1.62-4.36-3.3-6.9-5.11l-.72-.51c-3.19-2.17-7.7-5.34-13-9.05-2.32-.27-5-.57-9.13-.95l-1-.1c-5.44-.5-12.88-1.18-19.1-2.86a73.3,73.3,0,0,1-8.88-3.16,37.91,37.91,0,0,0-5.61-2,19.41,19.41,0,0,0-4.45-.44,65,65,0,0,0-7.3.55l-2.79.33a14.39,14.39,0,0,1,3,2.62l1.61.35c9.42,1.55,20.08,3.56,31.69,6a8,8,0,0,1,4,13.53,8.27,8.27,0,0,0-.55.62c-.14.18-.28.36-.41.55l-.12.17c-.2.31-.33.54-.43.73-.34.66-.66,1.32-1,2l-.29.65c-.21.46-.41.92-.61,1.37l-.31.75c-.19.45-.37.89-.55,1.34l-.28.72c-.8,2.14-1.55,4.4-2.2,6.72-.35,1.24-.69,2.53-1,4L142,180a8,8,0,0,1-7.8,6.19Z"/>
    <path class="cls-2" d="M129.22,181.2a7.9,7.9,0,0,1-2-.25c-12.53-3.2-23.14-5.83-31.56-7.81-7.84-1.79-13.79-3.08-17.64-3.81-1.29-.24-2.7-.47-4.1-.67-6.5-.74-21.56-1.45-36.12-2.13-6.74-.32-13.52-.64-19.6-1H18c-3.71-.14-7-.29-10.22-.46a8,8,0,0,1-7.45-9.36c.72-4.18,1.39-8.64,2.1-14.06a8,8,0,0,1,7.92-7l.55,0c4.32.29,8.7.44,13,.44a194.45,194.45,0,0,0,34.43-3.09,48.81,48.81,0,0,1,5.69-.66l.36-.25A23.65,23.65,0,0,1,71,128.63,100,100,0,0,1,61.53,122,282.34,282.34,0,0,1,36.67,100C30,93.15,26.08,88,23.21,82a53,53,0,0,1-4.5-14.26,59.15,59.15,0,0,1-1.3-7.22c-.22-1.78-.41-3.9-.6-6-.14-1.59-.28-3.16-.43-4.5a26.81,26.81,0,0,0-1-5.59c-.44-1.42-1.08-3.1-1.65-4.58l-.45-1.19c-.26-.68-.49-1.31-.71-1.91-1.25-.52-2.34-1.06-3.19-1.5-.58-.3-2.28-1.19-3.68-2.06A8.18,8.18,0,0,1,.41,22.87C1.35,20,3.6,18.29,5.82,16.78A46.34,46.34,0,0,1,12,13.26c1.47-3,4.5-6.35,10.58-8.77A53.23,53.23,0,0,1,28.76,2.3c1.41-.41,2.91-.79,4.45-1.13,1.11-.27,2-.46,2.87-.58a20.66,20.66,0,0,1,5-.59,24,24,0,0,1,3.57.27A22.24,22.24,0,0,1,50.9,2l.45.2A33.87,33.87,0,0,1,59.9,7.61c.42.32.83.65,1.24,1a58.35,58.35,0,0,1,6,5.72l.13.15c.94,1,1.75,2,2.48,3l.51.7a24.3,24.3,0,0,1,3.19,5.25c.54,1.07,1,2.16,1.48,3.24a48.3,48.3,0,0,1,2,6.11l.91.58c.87.54,2,1.2,3.31,2,2.19,1.27,4.92,2.85,7.68,4.59a150.31,150.31,0,0,1,15.74,11.48c5,4.07,11.53,9.74,16.3,14.11l.12.12c.85.77,1.59,1.46,2.22,2.06a26.44,26.44,0,0,1,4.71,5.3c3.67,3.36,7.7,7.54,10.32,10.49s4.07,5,4.79,6.78a15.93,15.93,0,0,1,4.39,4.48l1.32.89a16,16,0,0,1,4.2,3.79c.85.44,1.62.87,2.32,1.32,1.16.74,4.7,3,5.47,7.21a8.11,8.11,0,0,1,.14,1.46l6.41,4.39.27.18c10,6.83,22.48,15.33,29.38,21.13,7.71,6.47,11.32,12.78,11.34,19.83a36,36,0,0,1-.15,5.24,8,8,0,0,1-12.86,5.69c-1-.75-2.07-1.74-3.59-3.1-2-1.82-4.82-4.31-8.21-7-2.1-1.62-4.36-3.3-6.9-5.11l-.72-.51c-3.19-2.17-7.7-5.34-13-9.05-2.32-.27-5-.57-9.13-.95l-1-.1c-5.44-.5-12.88-1.18-19.1-2.86a73.3,73.3,0,0,1-8.88-3.16,37.91,37.91,0,0,0-5.61-2,19.41,19.41,0,0,0-4.45-.44,65,65,0,0,0-7.3.55l-2.79.33a14.39,14.39,0,0,1,3,2.62l1.61.35c9.42,1.55,20.08,3.56,31.69,6a8,8,0,0,1,4,13.53,8.27,8.27,0,0,0-.55.62c-.14.18-.28.36-.41.55l-.12.17c-.2.31-.33.54-.43.73-.34.66-.66,1.32-1,2l-.29.65c-.21.46-.41.92-.61,1.37l-.31.75c-.19.45-.37.89-.55,1.34l-.28.72c-.8,2.14-1.55,4.4-2.2,6.72-.35,1.24-.69,2.53-1,4L137,175a8,8,0,0,1-7.8,6.19Z"/>
    <g>
      <g>
        <path class="cls-3" d="M136.26,153.32a16.09,16.09,0,0,1,3-4.14c-34.5-7.16-65.4-11.78-79.49-9.24a201.32,201.32,0,0,1-49.41,2.76c-.63,4.82-1.32,9.62-2.15,14.4,28.52,1.53,51.85.57,73.07,4.68,9.85,1.91,27.6,6.23,47.91,11.42A85.86,85.86,0,0,1,136.26,153.32Z"/>
        <path class="cls-4" d="M132.75,161.32a75.25,75.25,0,0,1,3.51-8,15.54,15.54,0,0,1,2.06-3.09c-20.14-4.66-37.29-8.54-40.59-9.11-8.21-1.42-31.23-2.74-37.65-.76s-27.13,3-27.13,3c-9.63.14-16.64-.09-22.57-.55q-.37,2.82-.78,5.64c25.73,3.7,41.16-2.33,68.1-3.51,29.73-1.29,48.84,8.14,48.84,8.14S126.38,157.69,132.75,161.32Z"/>
        <path class="cls-5" d="M130.49,168.25c-23.15-5.58-44.41-10.39-50.73-11.53-13.9-2.49-32-1.21-70.94-3.09q-.27,1.69-.57,3.39l10.4.55c20,1.08,47.36,2.06,56.7,3.19,7.28.89,39.93,8.71,54,12.11C129.66,171.32,130.06,169.78,130.49,168.25Z"/>
      </g>
      <g>
        <path class="cls-6" d="M125.79,105.58c18.11,12,44.19,30.91,54.57,38s17.1,13.94,19.75,16c-.76-3.06,3.41-8.41-8.36-18.3-6.66-5.59-19-14-29-20.82S145,108.14,137.3,102.75C137.39,105.41,125.7,102.92,125.79,105.58Z"/>
        <path class="cls-7" d="M80.47,146.25a13.86,13.86,0,0,1,4.19.41,6.28,6.28,0,0,1,3.54,2.94,5.78,5.78,0,0,1,.24,3.62c-.87-1.43-1.73-2.85-3.34-3.52s-3.95-.56-6.3-.46a26.35,26.35,0,0,0,1-2.73C79.94,146,79.68,146.23,80.47,146.25Z"/>
        <path class="cls-7" d="M95.84,138.28a9.27,9.27,0,0,1,3.52.42,6,6,0,0,1,2.81,2.36,10.62,10.62,0,0,1,1.14,3.45,6.06,6.06,0,0,0-2.4-2.68,12.29,12.29,0,0,0-4.33-.91c-1.28-.09-2-.08-2-.5S95.17,139.14,95.84,138.28Z"/>
        <path class="cls-7" d="M47.09,144.6c-1.46-.53-2.92-1.06-4.28-.48a7.93,7.93,0,0,0-3.22,3.47,4.47,4.47,0,0,0-.54,2.61,8.79,8.79,0,0,1,2.85-2.29,11.36,11.36,0,0,1,4-.5Z"/>
        <path class="cls-7" d="M68.49,141.26a14.12,14.12,0,0,1-5.22,1.3,38.89,38.89,0,0,1-6.25-.88,7.32,7.32,0,0,0-4,.08,3.18,3.18,0,0,0-1.76,2,5.9,5.9,0,0,0-.12,2.4L60,145.9l5.78-2Z"/>
        <path class="cls-8" d="M87.68,123.85c-.7,1.13-.52,12.11-.3,12.68s-1.19.56.37.43,3.53-.38,5-.5a5,5,0,0,1,3.21.43,2.79,2.79,0,0,1,1.25,2.52,3.44,3.44,0,0,1-1.76,2.64,3.57,3.57,0,0,1-3.06-.21,11.18,11.18,0,0,0-3.52-1.42c-1.56-.21-3.73.09-5.9-.13a29.37,29.37,0,0,1-6.45-1.68l-5.92,1.23a5.21,5.21,0,0,1-2.32-.37c-.48-.32-.54-.93.44-1.56a17.32,17.32,0,0,1,4.47-1.58,10.64,10.64,0,0,1,3.75-.21c1.4.12,3.27.4,5.15.67.7-.92,3.1-11.68,3.8-12.6Z"/>
        <path class="cls-9" d="M96.25,123.08a53.76,53.76,0,0,1-1,5.73,9.71,9.71,0,0,1-1.81,3.9,6.08,6.08,0,0,1-3.2,1.76,42,42,0,0,0-6.25,2,72.16,72.16,0,0,0-9,4.74c-2.41,1.5-3.47,2.48-3.81,3.07s0,.82,1.62.8,4.37-.26,6.14-.21,2.55.41,2.87,1.39a2.9,2.9,0,0,1-1.07,3.33c-1.26.73-3.64.59-6.33,0s-5.7-1.52-8-2a15.93,15.93,0,0,0-5.5-.43,38.47,38.47,0,0,1-7.3-.81c-1.35-.27-4.43.42-5.54.66s-2,.94-2.75,1.11-1.18-.19-1.1-1.09a3.89,3.89,0,0,1,2.28-3.08c1.59-.75,4.15-.81,6.67-.73a68.84,68.84,0,0,0,6.91.11c1.91-.16,3.26-.69,6.8-2.27s9.29-4.22,12.79-6,4.75-2.84,5.13-4.48-.13-3.92-.64-6.19Z"/>
        <path class="cls-10" d="M124.39,104.86c15.89,10.39,46.64,32,56.78,39.25a163.43,163.43,0,0,1,18.94,15.4,17.5,17.5,0,0,0-.27-6.51c-.63-2.07-2.06-4-12.65-11.27s-35.82-24.61-55.57-37.24C132.34,106.78,123.67,102.57,124.39,104.86Z"/>
        <path class="cls-11" d="M18.63,20A10.74,10.74,0,0,1,21,15.47c1.23-1.34,3-2.42,6.15-3.65A54.68,54.68,0,0,1,38.85,8.74,15.61,15.61,0,0,1,49.62,10.9,56.91,56.91,0,0,1,61,20.5a31.62,31.62,0,0,1,5.93,8.65c1.22,2.67,2,5.4,2.71,7.18S71,39,74.73,41.48s10.64,6.69,18.13,11.91a164.58,164.58,0,0,1,24.2,20.21c8.61,8.76,17.73,20,21.73,27.68s-12.11.07-13.23,4.08c8.28,5.45,31.57,22.5,39.85,28-2.86-.34-5.73-.69-11-1.17s-12.84-1.11-18.77-2.71-10.18-4.19-14.77-5.25-9.52-.62-14.48-.05-10,1.28-13.83,1.71-6.58.58-10.31-.63-8.46-3.78-15.86-9.52A273,273,0,0,1,42.38,94.35c-6.6-6.71-9.74-11.22-12-15.84a47.25,47.25,0,0,1-4.26-15.08c-.73-5.72-.87-12.43-1.63-17.14s-2.12-7.43-3.35-10.64A54.51,54.51,0,0,1,18.43,26,12.73,12.73,0,0,1,18.63,20Z"/>
        <path class="cls-12" d="M54.12,31.66a15.23,15.23,0,0,1,.66,5.88,9.71,9.71,0,0,1-1.9,5.28,7.4,7.4,0,0,1-4.33,2.53,9.18,9.18,0,0,1-4.65-.3,7.29,7.29,0,0,1-3.14-2.18,37.31,37.31,0,0,1-2.69-3.57,29.21,29.21,0,0,0,6.81-3.21,22.65,22.65,0,0,0,4.65-4.83c1.09-1.45,1.7-2.38,2.43-2.33S53.55,30,54.12,31.66Z"/>
        <path class="cls-13" d="M43.84,26.18a12.42,12.42,0,0,1,5.45-.58,10.42,10.42,0,0,1,6.09,2.69,11,11,0,0,1,2.69,6.08A11.75,11.75,0,0,1,57.8,39c-.3,1.16-.63,2-.44,2.36s.91.4,2.23.05a20,20,0,0,0,5-2.14,32.77,32.77,0,0,0,4.77-3.86,43.52,43.52,0,0,0-1.82-5.78,32.77,32.77,0,0,0-4.16-7.4A47,47,0,0,0,56,14.75a36.69,36.69,0,0,0-8.3-5.41A15,15,0,0,0,40,8.16,48.93,48.93,0,0,0,31,10a40.71,40.71,0,0,0-6.74,2.53,13.23,13.23,0,0,0-3.77,2.59A6.69,6.69,0,0,0,18.8,18a8.54,8.54,0,0,0-.1,2.8A59.51,59.51,0,0,0,21,31.84c1.15,3.34,2.91,6.14,4.13,7.05s1.88-.07,2.61-1.82,1.54-4.28,3.48-5.89,5-2.32,7.3-3S42.22,26.69,43.84,26.18Z"/>
        <path class="cls-10" d="M68.44,86.5c21.15,8.78,42.29,17.55,54.65,24.13s15.92,11,19.48,15.35c2.32-.32,11.89-.15,12.19-.94s-18.23-11.22-19.95-12.46c6.5,3.67,22.6,15.6,29.11,19.28-6-7.5-10.11-14.27-16.13-21.77a202.4,202.4,0,0,0-35.3-14.94C99.59,91.27,84,88.88,68.44,86.5Z"/>
        <path class="cls-14" d="M77,86.66c7.13,3.38,14.27,6.75,22.2,9.93a232.87,232.87,0,0,0,25.41,8.52c8.78,2.36,17.62,4.12,22.34,4.88s5.32.52,5.68.05.47-1.19-1.71-2.57-6.65-3.45-16.51-6.16S109.29,95.24,98.92,91,83.06,81.74,77.58,76.66Q77.28,81.67,77,86.66Z"/>
        <path class="cls-15" d="M79.4,80.64c7.41,4.59,14.82,9.19,26.52,13.42a284.78,284.78,0,0,0,35,9.54c7.34,1.45,6,.49,3.28-1.38a108.47,108.47,0,0,0-16.54-9.14c-9.57-4.48-24.51-10.65-39.44-16.82Z"/>
        <path class="cls-16" d="M88.63,77c9.27,4.67,18.53,9.33,26.5,13a192.34,192.34,0,0,0,18.76,7.65c4.13,1.35,5.72,1.4,6.25,1.17s0-.76-4.14-3.8-12-8.6-18.11-12.73-10.59-6.83-15-9.53Z"/>
        <path class="cls-17" d="M104.9,75c8.36,5.23,16.72,10.46,21.72,13.67s6.65,4.39,7.66,5,1.38.54,1.37,0-.37-1.46-3.43-4.9a127.76,127.76,0,0,0-12.94-12.66,20.92,20.92,0,0,0-9.15-4.59Z"/>
        <g>
          <path class="cls-18" d="M87.26,91.27l1.31-.73s37.08,17.28,59,18l4.31-.07s2,1.35-.16,1.87c0,0-5.23.12-25.63-5A211.75,211.75,0,0,1,87.26,91.27Z"/>
          <path class="cls-18" d="M85.39,79.72S98,94.24,141.3,102.17l3.23.44s1.76,1.21,1.74,1.41c0,0,.75.85-9-1.27,0,0-26.5-5.1-48.68-16.6l-6.36-5.61Z"/>
          <path class="cls-18" d="M139.5,98s-22.46-5.77-34.6-15l.08,2s21,10.24,27.9,12.33C132.88,97.32,142.62,100,139.5,98Z"/>
          <path class="cls-18" d="M134.87,93.93,110,78l1.88-1.43L135.6,93.35S136.21,94.46,134.87,93.93Z"/>
        </g>
        <path class="cls-19" d="M22,19.76c1-.73,1.58-2.1,3.47-2.54s5.06.05,7.54.06a17.75,17.75,0,0,1,6.55,1.4,10.63,10.63,0,0,1,3.86,2.61,6.79,6.79,0,0,1,1.93,3.46A4.65,4.65,0,0,1,44,28.3a9.52,9.52,0,0,1-4.34,3c-1.87.59-4.12.54-5.69,1a4,4,0,0,0-2.84,3.2,11.74,11.74,0,0,0,.39,6c.69,2.07,1.94,4,2.42,6.47a20.41,20.41,0,0,1-.48,8.36,17.74,17.74,0,0,1-3,6.52A12.73,12.73,0,0,1,26.53,66a50.93,50.93,0,0,1-1.18-6.48c-.36-3-.68-7.28-1-10.37A35.21,35.21,0,0,0,23,42.1c-.65-2.1-1.57-4.41-2.27-6.25s-1.17-3.23-1.54-4.52a11.6,11.6,0,0,1-.57-3.87,13.68,13.68,0,0,1,1-4.39A7.84,7.84,0,0,1,22,19.76Z"/>
        <path class="cls-20" d="M9.35,26.06A34.58,34.58,0,0,0,13,28.15a29.18,29.18,0,0,0,5.58,2.29,20.46,20.46,0,0,0,6,.76,8.68,8.68,0,0,0,4.12-1,3.6,3.6,0,0,0,1.46-1.92,37.25,37.25,0,0,0-6.76-2.81,24.72,24.72,0,0,0-7.3-.71,55,55,0,0,0-6.92.85C9,25.63,8.76,25.64,9.35,26.06Z"/>
        <path class="cls-21" d="M70.2,37.51a7.22,7.22,0,0,1-2.7,4.08c-1.83,1.41-5.06,2.89-7.9,5.09a18.15,18.15,0,0,0-6.28,8.19,10.24,10.24,0,0,0,.73,8.33,9,9,0,0,0,3.49,2.88A18.88,18.88,0,0,1,54,65.4c-.53.41-1.07.82-1,1.45A3.44,3.44,0,0,0,54.65,69a18.1,18.1,0,0,0,3.72,1.7,5.62,5.62,0,0,0-2.26,0c-.31.2,0,.68.69,1a10,10,0,0,0,2.47.69,4.45,4.45,0,0,0-2.71,1.36A3,3,0,0,0,56.79,77a7.54,7.54,0,0,0,3.53,2.49,14.28,14.28,0,0,0,3.89.7c-.86.14-1.72.28-1.77.55s.72.64,1.51.86a11.69,11.69,0,0,0,2.43.36c-.65,1.17-1.31,2.34.41,3.6s5.8,2.6,9.13,3.71a40.8,40.8,0,0,0,8,2.18,6.43,6.43,0,0,0,4.55-1c.89-.72,1.11-1.65.66-3.09a25.47,25.47,0,0,0-2.32-4.68c-.8-1.33-1.3-2.06-1.79-2.79a59.7,59.7,0,0,0,9.66,6,23.45,23.45,0,0,0,8.54,2.1c2.07,0,3-.5,3.18-1.12s-.27-1.32-.74-2a5.34,5.34,0,0,0,2.94.93A1.84,1.84,0,0,0,110,83.94a5.83,5.83,0,0,0-1.4-2.82c1.4,1,2.81,2,4.1,2.12s2.47-.59,2.49-1.39-1.1-1.66-2.22-2.52c1.55.84,3.1,1.69,4.13,1.71a1.35,1.35,0,0,0,1.38-1.67,6.85,6.85,0,0,0-1.62-2.75,17.85,17.85,0,0,0,3.79,1c.8,0,.93-.43-3-4.19s-12-10.82-18.2-15.9a143.12,143.12,0,0,0-14.92-10.9c-4.32-2.71-8.55-5-10.93-6.5A11.73,11.73,0,0,1,70.2,37.51Z"/>
        <g>
          <path class="cls-22" d="M30.8,21.25a4.65,4.65,0,0,0,8.27,4.24,4.55,4.55,0,0,0-2.14-6A4.49,4.49,0,0,0,30.8,21.25Z"/>
          <path class="cls-23" d="M31.79,21.76a3.64,3.64,0,0,0,6.47,3.33,3.57,3.57,0,0,0-1.67-4.74A3.52,3.52,0,0,0,31.79,21.76Z"/>
          <path class="cls-24" d="M31.81,21a1.64,1.64,0,1,0,2.25-.81A1.68,1.68,0,0,0,31.81,21Z"/>
        </g>
        <path class="cls-25" d="M24,17.57a62.59,62.59,0,0,0-7.67,2.51,35.91,35.91,0,0,0-6,3.32,7.32,7.32,0,0,0-2.3,2c-.11.33.43.32,1.21.26a32.7,32.7,0,0,1,3.9-.08,71.41,71.41,0,0,1,8.18.82c3,.49,6,1.21,8.9,1.93a6.48,6.48,0,0,0-2.08-2.95c-1.38-1.19-3.78-2.69-4.64-4S23.3,18.76,24,17.57Z"/>
        <path class="cls-26" d="M61.86,71.7a38.75,38.75,0,0,0,6.52,4,82.5,82.5,0,0,0,10.35,4.18c2.86.9,4.26,1,4.39.09s-1-2.63-.61-2.51,2.34,2.13,4.8,4.24a33.39,33.39,0,0,0,8.34,5.48,15.57,15.57,0,0,0,7.51,1.15c1.84-.22,2.74-.83,2.76-1.48s-.84-1.32-2.87-2.53-5.23-3-8.43-4.7l6.06,6.74-3.45-2a36.07,36.07,0,0,0-3.65-1.92c-.73-.26-.6.13-.46.48s.3.65-1.17-.46-4.59-3.66-7.8-5.83-6.54-4-9.87-5.81c.74,1.48,1.48,3,2.25,4.22s1.55,2.29,1.1,2-2.12-2-4.34-3.62-5-3.39-7.75-5.1c.3.82.6,1.65.93,2.54a15.77,15.77,0,0,1,.68,1.92s-.5-.8-1-1.3A1.52,1.52,0,0,0,64.63,71c-.3.17-.29.64-.58.26a6.33,6.33,0,0,0-1.78-2.06c-.89-.47-2.07-.2-3.26.07A33.73,33.73,0,0,0,61.86,71.7Z"/>
        <path class="cls-18" d="M63.77,46.45a27.84,27.84,0,0,1,6.92,1.64c2.69,1,5.46,2.48,6.55,4.23s.5,3.76-.71,4.37-3-.17-4.79-1.66-3.45-3.66-5.25-5.15a20.77,20.77,0,0,0-5.57-3.07A5.25,5.25,0,0,1,63.77,46.45Z"/>
        <path class="cls-18" d="M79.57,55.75A20.4,20.4,0,0,1,86,58c2.62,1.42,5.38,3.58,6.53,5.61s.7,3.92-.38,4.42-2.76-.41-4.86-2.5S82.64,60.16,81,58.4s-2.35-2-3.07-2.22C78.1,55.88,78.25,55.57,79.57,55.75Z"/>
        <path class="cls-18" d="M92.65,69a42.67,42.67,0,0,1,8.18,2.83c2.35,1.23,4.16,2.89,4.51,4.26s-.74,2.47-1.67,2.21-1.69-1.88-3-3.45a23,23,0,0,0-4.52-4.08A15.4,15.4,0,0,0,92.65,69Z"/>
        <path class="cls-18" d="M76.38,46.46a23.24,23.24,0,0,1,5.79,1.38c2.25.83,4.57,2.07,5.48,3.53A2.6,2.6,0,0,1,87.06,55c-1,.51-2.54-.15-4-1.39s-2.89-3.06-4.39-4.3A17.09,17.09,0,0,0,74,46.77,4.34,4.34,0,0,1,76.38,46.46Z"/>
        <path class="cls-18" d="M90,55.2a20.4,20.4,0,0,1,6.4,2.27c2.62,1.41,5.37,3.58,6.53,5.6s.69,3.93-.38,4.43-2.76-.41-4.86-2.51S93,59.61,91.4,57.85s-2.35-2-3.07-2.22C88.48,55.32,88.63,55,90,55.2Z"/>
        <path class="cls-18" d="M103,68.45a42.67,42.67,0,0,1,8.18,2.83c2.35,1.23,4.16,2.89,4.51,4.26S115,78,114.05,77.75s-1.69-1.88-3-3.45a22.37,22.37,0,0,0-4.51-4.08A15,15,0,0,0,103,68.45Z"/>
        <path class="cls-18" d="M60.52,53.67a20.4,20.4,0,0,1,6.4,2.27c2.62,1.41,5.38,3.58,6.53,5.6s.7,3.93-.38,4.43-2.76-.41-4.86-2.51S63.59,58.08,62,56.32s-2.35-2-3.07-2.22C59.05,53.79,59.2,53.49,60.52,53.67Z"/>
        <path class="cls-18" d="M75.94,64.81a42.67,42.67,0,0,1,8.18,2.83c2.36,1.23,4.16,2.89,4.51,4.27s-.74,2.47-1.66,2.21-1.7-1.88-3-3.46a22.93,22.93,0,0,0-4.52-4.07A15.3,15.3,0,0,0,75.94,64.81Z"/>
        <path class="cls-27" d="M41.13,50.06A6.45,6.45,0,0,1,48,53.62c1.49,3.06,1.32,8.23,1.56,13.84s.89,11.67,4.3,16.56S63.45,92.65,70,95s13.36,3.22,18.57,7.43,8.76,11.74,7.75,15.94-6.59,5.09-13.42,3S68,114.27,60.23,108.18s-15.08-13.25-19.8-20-6.78-13.21-7-18.83A30.78,30.78,0,0,1,36.1,55.6C37.55,52.29,38.88,50.49,41.13,50.06Z"/>
        <path class="cls-28" d="M57.73,41.66s5.49.07,11.59-6.21c0,0-2.91-10.57-6-13L58.07,34.37a12.1,12.1,0,0,1-.46,5.36S56.89,41.65,57.73,41.66Z"/>
        <path class="cls-29" d="M18.64,19.18S17.83,15,25.57,11.9c0,0,8.61-3.1,12.11-3.45,0,0,7.68-2.75,17.1,5.3l6.5,6-7.23-5.72S46.68,8,38,9.26C38,9.26,21.7,11.49,18.64,19.18Z"/>
        <path class="cls-30" d="M70.24,37.92a39.89,39.89,0,0,0,7,4.61s16.45,9.53,23,15.84l15.26,13.07s4.94,4.79,5.23,5.46c0,0,1.48,1.26-1.69.3,0,0-22.47-23.94-50.09-37C68.93,40.18,69.63,39.9,70.24,37.92Z"/>
      </g>
    </g>
  </g>
</svg>
