<svg id="Layer_1" data-name="Layer 1" xmlns="http://www.w3.org/2000/svg" width="228.89" height="180.28" viewBox="0 0 228.89 180.28">
  <defs>
    <style>
      .cls-1, .cls-10, .cls-11, .cls-12, .cls-13, .cls-14, .cls-15, .cls-2, .cls-3, .cls-4, .cls-5, .cls-6, .cls-7, .cls-8, .cls-9 {
        fill-rule: evenodd;
      }

      .cls-1 {
        opacity: 0.5;
      }

      .cls-2 {
        fill: #fff;
      }

      .cls-3 {
        fill: #604c33;
      }

      .cls-4 {
        fill: #705d45;
      }

      .cls-5 {
        fill: #db8204;
      }

      .cls-6 {
        fill: #eca33d;
      }

      .cls-7 {
        fill: #4a341d;
      }

      .cls-8 {
        fill: #f6bd64;
      }

      .cls-10 {
        fill: #896130;
      }

      .cls-11 {
        fill: #57442c;
      }

      .cls-12 {
        fill: #ed8a12;
      }

      .cls-13 {
        fill: #c96601;
      }

      .cls-14 {
        fill: #333;
      }

      .cls-15 {
        fill: #1a1a1a;
      }
    </style>
  </defs>
  <g>
    <path class="cls-1" d="M66.52,180.28c-1,0-2,0-3-.06C35,179.05,14.37,168.28,6.94,150.69c-.21-.52-.42-1-.6-1.52l-.18-.48c-.13-.37-.26-.73-.38-1.1q-.11-.3-.18-.57c-.12-.39-.22-.76-.32-1.13l-.15-.57c-.11-.47-.2-.92-.28-1.38,0-.14-.06-.27-.08-.39-.09-.58-.17-1.19-.22-1.81l0-.51c0-.47,0-.92,0-1.37,0-.21,0-.45,0-.69s0-.41,0-.62a4.36,4.36,0,0,1,0-.52,24.64,24.64,0,0,1,.35-2.69c1.21-6.23,6.29-21,27.43-29.86a221.21,221.21,0,0,1,2.92-27.16C37.42,66,36.52,59,35.57,51.67a91.65,91.65,0,0,1-1.06-14.22c0-2.38.17-4.45.33-6.21A12.15,12.15,0,0,1,35.55,25a9.14,9.14,0,0,0,.06-1.29,11.1,11.1,0,0,1-.84-4.1,2.26,2.26,0,0,0,0-.26,11.13,11.13,0,0,1,5-11.26c3.53-2.5,9-3.63,12.56-3.63a13.84,13.84,0,0,1,1.87.11c6.21.76,18.3,6.71,26.25,20l.13.21a24,24,0,0,1,3,11.13,7.61,7.61,0,0,1,.07,1,30.6,30.6,0,0,1-2,10.88,103.24,103.24,0,0,1-5,10.86c-2.54,5-5.17,10.11-6.69,15.93a160.46,160.46,0,0,0-3.78,20.71l2.18-.48c.71-.15,1.42-.3,2.16-.44A114.77,114.77,0,0,1,124,96.68c3.71,1,7.47,2.3,11.16,3.72,9.45,3.63,15,8.71,18.47,14.31a7.1,7.1,0,0,1,1-2.64c.35-.54.72-1.09,1.11-1.62.25-.33.53-.68.81-1l.32-.4c.37-.44.75-.86,1.14-1.28A24.6,24.6,0,0,1,175.17,100c.42,0,.92,0,1.43,0,10.56,0,22.88,5.69,33.81,15.61,10.52,9.55,17.38,21,18.35,30.52,0,0,0,.12,0,.15,0,.35.07.74.09,1.13,0,.09,0,.5,0,.5,0,.27,0,.54,0,.8,0,.46,0,.94,0,1.4-1,14.61-17.29,23.33-43.48,23.33h0a134.67,134.67,0,0,1-15.58-1c-26.35-3.11-34.83-18.33-37.92-29-.05.22-.11.45-.17.68C126,165.75,93.37,180.28,66.52,180.28Zm95.62-40.37c4,3.22,13.74,5.3,24.92,5.3a62.6,62.6,0,0,0,15.57-1.65l0-.13c-.52-1.13-1.18-2.35-1.94-3.64l6.11-3.74-6.16,3.65-.46-.77-.43-.67-.46-.71c-.59-.91-1.23-1.82-1.9-2.72l-.15-.22-.58-.76-.61-.78-.63-.8-.57-.68c-.57-.67-1.1-1.28-1.65-1.88l-.19-.21-.72-.77-.73-.75-.75-.74-.84-.8-.56-.51c-.4-.36-.79-.7-1.18-1l-.86-.71-.8-.62-.77-.57-.46-.34-.81-.54-.78-.51,0,0c-.45-.28-.85-.52-1.25-.74l-.18-.1-.52-.28-.27-.13-.81-.39-.46-.21-.31-.13-.49-.2-.23-.08-.51-.19-.22-.07c-.57-.19-1.14-.34-1.7-.47l-.2,0-.46-.09-.28,0-.43-.06-.24,0-.44,0-.28,0-.4,0h-.8a11.92,11.92,0,0,0-1.58.17l-.18,0-.46.1-.29.07-.38.11-.23.07-.43.14-.28.11-.39.15-.22.1-.49.22a16.42,16.42,0,0,0-3.08,2,7.19,7.19,0,0,1-8.21.53,52.54,52.54,0,0,1,1.82,7.9C159.61,135.2,161.38,139,162.14,139.91ZM86.8,136.85c-1,0-2,0-3.1.09-4,.2-6.41,2.6-9,6.12A73.84,73.84,0,0,0,94,137.63,29.74,29.74,0,0,0,86.8,136.85Z"/>
    <path class="cls-2" d="M62.05,175.81c-1,0-2,0-3-.06-28.53-1.18-49.16-11.94-56.58-29.54-.22-.51-.42-1-.61-1.52l-.18-.48c-.13-.36-.26-.73-.38-1.1l-.18-.57c-.12-.38-.22-.75-.32-1.13l-.15-.57c-.11-.46-.2-.92-.28-1.38,0-.14,0-.26-.07-.39-.1-.57-.17-1.18-.23-1.8l0-.51c0-.47,0-.92,0-1.38,0-.21,0-.45,0-.69s0-.4,0-.62,0-.35.05-.52a22.66,22.66,0,0,1,.36-2.69c1.21-6.23,6.28-21,27.42-29.86a221.06,221.06,0,0,1,2.92-27.15C33,61.51,32,54.56,31.09,47.2A94.43,94.43,0,0,1,30,33c0-2.37.17-4.45.34-6.2a12.19,12.19,0,0,1,.7-6.23,7.71,7.71,0,0,0,.06-1.29,11,11,0,0,1-.83-4.1,2.09,2.09,0,0,1,0-.25A11.12,11.12,0,0,1,35.23,3.64C38.76,1.14,44.21,0,47.79,0a16,16,0,0,1,1.88.11c6.2.76,18.29,6.71,26.25,20l.13.21a24.16,24.16,0,0,1,3,11.13,6.24,6.24,0,0,1,.07,1,30.55,30.55,0,0,1-2,10.87,104.34,104.34,0,0,1-5,10.87c-2.54,5-5.17,10.11-6.68,15.92a160.68,160.68,0,0,0-3.79,20.71l2.18-.48,2.16-.44a115,115,0,0,1,53.6,2.36c3.71,1,7.46,2.29,11.15,3.71,9.45,3.63,15,8.72,18.47,14.31a7.16,7.16,0,0,1,1-2.64c.35-.54.72-1.08,1.12-1.61.24-.34.52-.69.8-1l.33-.4c.36-.43.75-.86,1.14-1.27a24.48,24.48,0,0,1,17.13-7.72c.43,0,.93,0,1.43,0,10.56,0,22.89,5.69,33.81,15.61,10.52,9.55,17.38,21,18.35,30.53,0,0,0,.11,0,.15,0,.34.06.73.08,1.12,0,.09,0,.5,0,.5,0,.27,0,.54,0,.81,0,.46,0,.93,0,1.39-1,14.61-17.29,23.34-43.48,23.34h0a134.44,134.44,0,0,1-15.57-1c-26.36-3.11-34.83-18.33-37.92-29-.06.22-.11.45-.17.68C121.48,161.28,88.89,175.81,62.05,175.81Zm95.61-40.37c4,3.22,13.74,5.29,24.92,5.29a62.7,62.7,0,0,0,15.58-1.65l-.06-.13a39,39,0,0,0-1.94-3.64l6.12-3.74-6.17,3.65-.46-.76-.43-.68-.46-.71c-.59-.9-1.23-1.82-1.89-2.72l-.16-.21-.57-.76-.62-.79-.63-.79-.57-.68c-.56-.68-1.1-1.29-1.65-1.89l-.19-.21-.72-.76-.73-.76-.75-.74-.84-.8-.55-.5c-.41-.37-.79-.7-1.18-1l-.87-.72-.8-.62-.77-.57-.46-.33-.81-.55-.78-.5,0,0-1.26-.74-.17-.09-.53-.28-.27-.14-.81-.39-.46-.2-.31-.14-.49-.19-.23-.09-.51-.18-.22-.07a16,16,0,0,0-1.7-.47l-.19,0-.47-.08-.28,0-.42-.06-.25,0-.43,0-.29,0-.4,0h-.8a12.11,12.11,0,0,0-1.58.17l-.18,0-.45.1-.29.07-.39.11-.23.07-.42.14-.28.11-.4.15-.22.1-.48.22a16.81,16.81,0,0,0-3.09,2,7.15,7.15,0,0,1-8.21.53,54,54,0,0,1,1.83,7.91C155.13,130.72,156.9,134.55,157.66,135.44Zm-75.34-3.07c-.95,0-2,0-3.1.09-4,.2-6.4,2.6-9,6.13a74.2,74.2,0,0,0,19.33-5.44A29.74,29.74,0,0,0,82.32,132.37Z"/>
    <g>
      <path class="cls-3" d="M49.44,118.31c24.83-12.37,57.73-8.88,71.21-2.43,8.51,4.08,10.83,5.36,12.12,13.82s4.58,27.79,33.38,31.19,50.16-3,51.06-15.78c1.51-21.3-44.16-59.81-61-33.65,24-19.24,52,24.54,50,30.93s-40.8,8.79-53.21-1.51c-2.56-2.12-4.85-8.46-5.78-14.26-1.49-9.32-4.44-18.37-19.11-24-38.37-14.74-67.34-4.33-77.86-1.3-4.38,3.45-3.9,7.69-3.67,8S49.44,118.37,49.44,118.31Z"/>
      <path class="cls-4" d="M48.8,109.93c24.84-12.38,59.75-9,73.23-2.55,8.51,4.08,14.64,6.39,15.92,14.85s.24,27.79,29,31.19,46.15-.31,47-13.13c.63-8.93-4.16-15.75-14.39-24.68-14.36-12.54-33.61-19.5-43.45-4.15,9.35-10.92,23.56-6.64,32.19-.79,13.25,9,23.06,21.88,19.52,32-2.23,6.3-43.14,9.48-55.55-.82-2.55-2.12-6.11-8.69-7-14.49-1.49-9.32-2.54-19.06-17.21-24.7-38.37-14.74-67.34-4.33-77.86-1.3-4.38,3.45-3.9,7.69-3.67,8A5.34,5.34,0,0,0,48.8,109.93Z"/>
      <path class="cls-5" d="M160.62,108.63c21.17-10.38,43.83,22.24,45.58,31.9C207.51,133.89,184.86,95.07,160.62,108.63Z"/>
      <path class="cls-5" d="M49.44,118.31c24.83-12.37,57.73-8.88,71.21-2.43,8.51,4.08,10.83,5.36,12.12,13.82s4.58,27.79,33.38,31.19,50.16-3,51.06-15.78a16.29,16.29,0,0,0-.17-3.66c-1.21,12.62-22.46,18.85-51,15.48-28.8-3.4-32.1-22.73-33.38-31.19S129,116,120.51,111.92C107,105.47,75.82,101.12,49.4,113c0,0-1.89-4.46-2.65-6.74a5.43,5.43,0,0,0-.17,3.08C46.8,109.68,49.44,118.37,49.44,118.31Z"/>
      <path class="cls-5" d="M69.82,23.86c.82,1.23,3.87,7.84.52,16.84-3.17,8.49-9.12,16.6-12,27.48-4,15.42-5.47,33.83-5.87,47.4,0,.71-.26,7.67-.27,8.35,4.8.91,24.34-5.14,30.92-4.74.43,0,17.54,2.15,21.11,4.34,5.84,3.6-.83,9.17-.43,10-7.72-8.08-16.89-8.68-25-8.27-12.31.64-15.92,13.65-19.17,14.59-5.62,1.61-22.23.2-23.57-7-2-11-2.08-36.07,1.73-57.76,3.67-20.9-.86-28.34-.65-42,.15-9.59,2-13.33.55-16.6A8.13,8.13,0,0,1,37.39,14a4.1,4.1,0,0,1,2-4.52A16.85,16.85,0,0,1,48.8,7.22C52.83,7.71,63.06,12.51,69.82,23.86Z"/>
      <path class="cls-6" d="M59.45,140c-5.92,1.49-22,.07-23.29-7-1.07-5.76-1.59-15.43-1.29-26.45.54-6.21,1.27-12,1.7-16.11,1.68-15.89,5.49-24.67,3-50.58-1.19-12.4,4-18.65-1.22-23.53A14,14,0,0,0,45.6,19c7.11.16,15.86-6.29,21.72,8.6,4,10.1-5.19,20.4-7.75,26.25s-7.18,20.88-10,41.63C46.79,115.91,46.13,140.79,59.45,140Z"/>
      <path class="cls-7" d="M41.72,68c2.19-22.63-1.51-27.2-1.7-30.41-.72-12.42,5.16-16.43.95-21.31,0,0,2.7,2.65,5.81,2.75,5.7.16,15.25.22,17.93,11.25,2.26,9.34-6.66,17.52-9,27.36C50.58,78.66,50.6,64.77,50,68Z"/>
      <path class="cls-8" d="M59.45,140c-5.92,1.49-22,.07-23.29-7-1.07-5.76-1.59-15.43-1.29-26.45.54-6.21,1.27-12,1.7-16.11.89-8.5,2.38-15,3.21-23,1.1-10.64,6-41.94.11-50.79A7.71,7.71,0,0,0,45.6,19c7.11.16,7-12.64,12.62,2.34,4.23,11.17.34,32.24-3.82,48.78a233.24,233.24,0,0,0-4.83,25.36C46.79,115.91,46.13,140.79,59.45,140Z"/>
      <path class="cls-3" d="M71.92,32.43a23.43,23.43,0,0,1-1.54,8.34c-3.17,8.49-9.11,16.6-11.95,27.48-4,15.54-5.49,34.13-5.87,47.73,0,.6,0,7.37,0,7.94,3.36-2,8.47-14,32.91-12.77,2.37.12,41.28,2.18,34.79,26.66C115.36,156.43,84,169.6,59.34,168.59c-26.12-1.08-44.21-10.79-50.28-25.16-1.59-3.78-2.39-7.1-1.59-11.2C8.68,126,13.91,113.14,34.84,106c-.11,5.17,0,11.79.18,16-4.79,2.7-9.47,6.67-8.53,10.9A8.47,8.47,0,0,0,28.86,137c5,5.87,23.84,10.16,32.71,9.66,27.8-1.55,42.37-12.91,41.39-14.34-1.84-7.2-13.72-9.28-20-9.26-18.28,0-18.2,11.05-23.49,13.7-4.24,2.12-6.8-2.73-7.36-4-1.61-3.68-1.21-8-1.26-9.61a240.77,240.77,0,0,1,1.2-27.76c2-19.31,5.13-29.6,8.4-37.71C64.28,48.21,70.13,44.91,71.92,32.43Z"/>
      <path class="cls-5" d="M120.17,127.45a17.31,17.31,0,0,1,.12,10.36C115.36,156.43,84,169.6,59.34,168.59c-26.12-1.08-44.21-10.79-50.28-25.16a19.42,19.42,0,0,1-1.88-8.93c2.62,22.22,34,28.86,51.77,29.59,24.67,1,56-12.16,61-30.78A19,19,0,0,0,120.17,127.45Z"/>
      <path class="cls-5" d="M35.21,125c-4.39,3.1-8,6.25-7.55,9.5a4.9,4.9,0,0,0,1.25,2.53,11,11,0,0,1-3.39-6c-1-5.86,5.58-9.89,9.39-11.49C35,121.51,35.08,123.33,35.21,125Z"/>
      <path class="cls-6" d="M50.62,105.85c-1.4,1.7-4.25,2.86-7.53,2.86-3.75,0-6.94-1.52-8-3.63.49,2.6,3.84,4.61,7.9,4.61,3.65,0,6.73-1.63,7.67-3.84Zm3.52,31.42a9.1,9.1,0,0,1-6,2.77c.82.12,1.64.22,2.45.29a6.12,6.12,0,0,0,3.5-3.06Zm-15.54-.68,0,0s0-.09-.07-.13,0,.06,0,.09Zm13-3.08c-.93,2.21-4,3.84-7.66,3.84s-6.81-1.67-7.7-3.93a4.05,4.05,0,0,1-.12-.5l0-.06c1.16,2,4.29,3.51,8,3.51,3.28,0,6.12-1.16,7.52-2.86Zm-1-5.29c-1.37,1.7-4.15,2.86-7.35,2.86-3.66,0-6.76-1.51-7.85-3.61v.08c.54,2.55,3.78,4.51,7.7,4.51,3.57,0,6.57-1.63,7.49-3.84Zm-.68-5.59c-1.35,1.7-4.08,2.86-7.23,2.86-3.57,0-6.61-1.49-7.69-3.57v.13c.59,2.5,3.75,4.41,7.55,4.41,3.51,0,6.47-1.62,7.37-3.83Zm-.21-5.6c-1.35,1.7-4.08,2.87-7.24,2.87-3.55,0-6.56-1.48-7.67-3.53v.16c.63,2.47,3.76,4.34,7.53,4.34,3.51,0,6.46-1.62,7.37-3.84Zm.89-5.59c-1.4,1.7-4.25,2.86-7.53,2.86-3.75,0-6.94-1.52-8-3.63.49,2.6,3.84,4.61,7.9,4.61,3.65,0,6.73-1.62,7.67-3.84Zm6-95.06c-1.55,1.7-4.71,2.86-8.35,2.86a16.83,16.83,0,0,1-2.9-.25,12.48,12.48,0,0,1-5-1.45c1.52,1.6,4.4,2.68,7.71,2.68,4.06,0,7.47-1.63,8.51-3.84Zm2,5.59c-1.55,1.7-4.71,2.86-8.35,2.86-4.17,0-7.71-1.52-8.93-3.63.54,2.6,4.26,4.61,8.77,4.61,4.06,0,7.47-1.62,8.51-3.84Zm1.09,5.59c-1.55,1.7-4.71,2.87-8.35,2.87-4.17,0-7.71-1.53-8.93-3.64.54,2.6,4.26,4.61,8.77,4.61,4.06,0,7.47-1.62,8.51-3.84Zm.32,5.6C58.54,34.86,55.38,36,51.74,36c-4.17,0-7.71-1.53-8.93-3.64C43.35,35,47.07,37,51.58,37c4.06,0,7.47-1.62,8.51-3.83ZM60,38.75c-1.56,1.7-4.72,2.86-8.36,2.86-4.17,0-7.71-1.52-8.93-3.63.54,2.59,4.26,4.6,8.77,4.6,4.06,0,7.48-1.62,8.52-3.83Zm-.64,5.59C57.77,46,54.61,47.2,51,47.2c-4.17,0-7.71-1.52-8.93-3.63.54,2.6,4.26,4.61,8.77,4.61,4.06,0,7.47-1.63,8.52-3.84Zm-.95,5.59c-1.51,1.7-4.58,2.86-8.12,2.86-4,0-7.48-1.52-8.67-3.63.52,2.6,4.14,4.61,8.52,4.61,3.94,0,7.26-1.63,8.27-3.84Zm-1,5.59c-1.47,1.7-4.47,2.87-7.92,2.87-4,0-7.3-1.53-8.46-3.64.51,2.6,4,4.61,8.31,4.61,3.85,0,7.08-1.62,8.07-3.84Zm-1.19,5.59C54.74,62.81,51.85,64,48.51,64c-3.82,0-7.06-1.53-8.18-3.64.49,2.6,3.9,4.61,8,4.61,3.71,0,6.84-1.62,7.79-3.84Zm-.86,5.6c-1.41,1.7-4.27,2.86-7.58,2.86-3.52,0-6.53-1.32-7.83-3.2l0,.33c.94,2.22,4,3.84,7.72,3.84s6.77-1.62,7.72-3.83Zm-.45,5.59c-1.43,1.7-4.33,2.86-7.67,2.86-3.57,0-6.63-1.32-7.94-3.21,0,.1,0,.19,0,.29.93,2.25,4.08,3.9,7.84,3.9s6.85-1.63,7.81-3.84ZM53.7,77.89c-1.4,1.7-4.25,2.86-7.54,2.86-3.48,0-6.47-1.31-7.77-3.18l0,.3c.92,2.22,4,3.86,7.67,3.86s6.74-1.63,7.68-3.84Zm-.87,5.59c-1.39,1.7-4.2,2.87-7.45,2.87-3.59,0-6.64-1.42-7.84-3.4l0,.18c.74,2.39,3.91,4.19,7.72,4.19,3.61,0,6.66-1.62,7.59-3.84Zm-.74,5.59c-1.38,1.7-4.18,2.87-7.42,2.87-3.64,0-6.74-1.48-7.87-3.53l0,.09c.61,2.5,3.85,4.41,7.75,4.41,3.6,0,6.64-1.62,7.56-3.84Zm-.77,5.6C50,96.37,47.19,97.53,44,97.53c-3.65,0-6.74-1.52-7.82-3.62h0c.49,2.59,3.74,4.58,7.68,4.58,3.56,0,6.55-1.62,7.46-3.83Zm-7.86,8.45c-3.67,0-6.78-1.48-7.91-3.55v.09c.59,2.51,3.85,4.44,7.78,4.44,3.61,0,6.66-1.63,7.59-3.84C49.52,102,46.71,103.12,43.46,103.12Z"/>
      <path class="cls-9" d="M40.35,18.73c-.22.4-1.12,1.48-1.9,2.84a6.42,6.42,0,0,0-1,4.05,7.41,7.41,0,0,1,1.1-3.24,9.08,9.08,0,0,0-.38,4c.12-4.06,2.71-6.78,3.48-8.08C41.33,18.47,40.67,18.57,40.35,18.73Z"/>
      <g>
        <path class="cls-10" d="M69.87,23.93c-2.06-2.65-7.44-7.21-11.64-7.56S46.71,19.49,44,19.16c-3.3-.4-4.71.66-6.19-2.61a8.13,8.13,0,0,1-.34-2.48,4.08,4.08,0,0,1,2-4.52,16.83,16.83,0,0,1,9.42-2.26C52.87,7.78,63.1,12.58,69.87,23.93Z"/>
        <path class="cls-3" d="M69.87,23.93c-1.73-2.23-5.81-5.8-9.56-7.09-5.4-7.54-7.46-6.63-8.84-6.33-.86.18-2.94-.49-3.58,1-.5,1.14-1.21,3.08-2.19,3.32-2.15.53-1.21,3.12-.64,4,.22.33-.71.37-1.09.33-2.93-.35-4.37.44-5.69-1.66a2.9,2.9,0,0,1,0-1.65c.6-2.48-.13-2.94.42-4.44.45-1.21,1.94-2.34,3.41-3.14a17.13,17.13,0,0,1,6.76-1C52.87,7.78,63.1,12.58,69.87,23.93Z"/>
        <path class="cls-7" d="M43.56,7.83a15.63,15.63,0,0,1,5.28-.54,21.4,21.4,0,0,1,7.43,2.94c-6.65-2.4-10.91-.23-12.6,2.92-1.25,2.31-3.43,2.72-3.56,1A7.2,7.2,0,0,1,43.56,7.83Z"/>
        <path class="cls-11" d="M68.51,22.4c-2.54-2.58-6.81-5.74-10.28-6C54,16,46.71,19.49,44,19.16c-3.3-.4-4.71.66-6.19-2.61a3.46,3.46,0,0,1-.27-1.32A5.77,5.77,0,0,0,38.18,17c.35.49.22-.39,1.14-.49,2.23-.25,4.51.23,5.22,1.41s2.71-.07,5.42-.63S60.12,11.58,68.51,22.4Z"/>
        <path class="cls-12" d="M49.16,12c-2.15.94-1.72,2.41-3.1,3.2C48.6,15.41,49.57,13.41,49.16,12Z"/>
        <path class="cls-13" d="M49.16,12c-1.69.74-1.79,1.81-2.42,2.61a2.57,2.57,0,0,0,2.49-2.26A2,2,0,0,0,49.16,12Z"/>
        <path class="cls-14" d="M48.11,12.65a4.12,4.12,0,0,0-.91,1.22,2.9,2.9,0,0,0,.64,1,2.88,2.88,0,0,0,.38-.22A7,7,0,0,1,48.11,12.65Z"/>
        <path class="cls-15" d="M48.11,12.65a4.12,4.12,0,0,0-.91,1.22,2.65,2.65,0,0,0,.29.59,2.52,2.52,0,0,0,.64-.3A7.75,7.75,0,0,1,48.11,12.65Z"/>
        <path class="cls-9" d="M40.12,16.68c-.32,0-.57.15-.57.32s.27.31.58.3.58-.15.57-.32S40.44,16.67,40.12,16.68Z"/>
        <path class="cls-9" d="M42.14,16.76c.32,0,.56.2.55.37s-.29.28-.6.25-.57-.2-.55-.37S41.82,16.72,42.14,16.76Z"/>
      </g>
      <path class="cls-4" d="M52.59,123.92c3.36-2,8.47-14,32.91-12.77,1.4.07,15.54.82,25.55,6.46,6.94,3.91,7.1,12.09-.49,19.74-8.47,8.53-27.44,21.47-52.06,19.52C21.22,153.93.55,128.22,19.13,114.33A55.53,55.53,0,0,1,34.84,106c-.05,2.22-.06,4.72-.05,7.18-14.43,4.93-15.51,18.15-3.16,26.12,7.2,4.64,22.28,7.77,29.94,7.34,19.37-1.08,32.32-7,38.09-10.89,2.49-1.69,9.37-3.89,8.17-9.65-1.52-7.29-18.8-9.28-25.06-9.26-8.8,0-13.23,2.28-16.23,4.66a32.89,32.89,0,0,0-7.69,8.72C55.85,135.31,51.32,130.72,52.59,123.92Z"/>
    </g>
  </g>
</svg>
