<svg id="Layer_1" data-name="Layer 1" xmlns="http://www.w3.org/2000/svg" width="191.4" height="197.85" viewBox="0 0 191.4 197.85">
  <defs>
    <style>
      .cls-1, .cls-14 {
        opacity: 0.5;
      }

      .cls-2 {
        fill: #fff;
      }

      .cls-3 {
        fill: #e58361;
      }

      .cls-19, .cls-20, .cls-21, .cls-3, .cls-4 {
        stroke: #9b372d;
      }

      .cls-11, .cls-19, .cls-20, .cls-21, .cls-3, .cls-4 {
        stroke-miterlimit: 10;
      }

      .cls-4 {
        fill: #a35e40;
      }

      .cls-5 {
        fill: #d88866;
      }

      .cls-13, .cls-16, .cls-17, .cls-18, .cls-5, .cls-6, .cls-7, .cls-8, .cls-9 {
        fill-rule: evenodd;
      }

      .cls-6 {
        fill: #e29a76;
      }

      .cls-7 {
        fill: #f2aa86;
      }

      .cls-8 {
        fill: #d87556;
        opacity: 0.31;
      }

      .cls-9 {
        fill: #ffc7c0;
      }

      .cls-10 {
        fill: #6b3632;
      }

      .cls-11 {
        fill: none;
        stroke: #a35e40;
        stroke-width: 2px;
      }

      .cls-12, .cls-14, .cls-16 {
        fill: #f5916a;
      }

      .cls-13 {
        fill: #f9b690;
      }

      .cls-15 {
        fill: #ffc7ab;
      }

      .cls-16 {
        opacity: 0.43;
      }

      .cls-17 {
        fill: #d67254;
      }

      .cls-18 {
        fill: #ffd4cc;
      }

      .cls-19 {
        fill: #ff7d50;
      }

      .cls-20 {
        fill: #f45c4d;
      }

      .cls-21 {
        fill: #f26f51;
      }

      .cls-22 {
        fill: #9b372d;
      }

      .cls-23 {
        opacity: 0.42;
      }
    </style>
  </defs>
  <g>
    <path class="cls-1" d="M132.35,197.85a19.33,19.33,0,0,1-8.59-2.21h-.26c-.31,0-.66,0-1,0-7.11,0-13.24-3.28-20.34-7.09L99,186.88c-1.75-.92-3.15-1.63-4.52-2.29a55.78,55.78,0,0,0-7.16-2.78,84.55,84.55,0,0,0-11-2.6l-2.57-.41c-1-.14-2-.3-3-.47s-2-.34-3-.54c-5.24-1-12.79-2.9-18.1-7.64a4.55,4.55,0,0,1-.4-.35c-.36-.34-.69-.66-1-1-8.67-9.22-3.32-19.06-.44-24.34l.75-1.38c-11.83,2.28-20.73,3.4-27,3.4-3.18,0-11.62,0-15.18-6.12a9.92,9.92,0,0,1-1.17-6.91A11.69,11.69,0,0,1,5,130.89l0-.8a8.08,8.08,0,0,1,.1-1.9L11,12.6A8,8,0,0,1,19,5l.67,0H174.81a8,8,0,0,1,8,7.94l.46,71.4a7.14,7.14,0,0,1,0,.8c-.38,4.75-4.2,9.14-13,15a185.37,185.37,0,0,1-26.56,14.2,32.35,32.35,0,0,1-11.86,7.93l.84.87.67.67.74.71,1.09,1,.8.71.8.68.86.72c.32.26.61.5.91.73l1.27,1,.92.71,1,.76,1,.71,1,.75,1,.72,1,.67,2.1,1.44,1.33.88,2.06,1.35.61.39.55,0a4,4,0,0,0,.49,0l1.43-.1,1.36-.08,1.25,0h1.72l.76,0,.48,0,.78.08.34,0a8.6,8.6,0,0,1,4.09,1.07,9.17,9.17,0,0,1,1.4.93c.16.13.35.29.52.45h.07l.66.1.24,0a8.54,8.54,0,0,1,3.19,1c.2.11.4.22.59.35a10.09,10.09,0,0,1,2.1,1.59l.33,0,.63.14.12,0,.59.16c.29.09.53.16.74.24l.76.32c.25.11.49.23.71.35a10.6,10.6,0,0,1,1.5,1,8.31,8.31,0,0,1,.63.57,9.16,9.16,0,0,1,.77.83,6.5,6.5,0,0,1,.51.69l.24.07.68.25c.25.1.49.21.73.33l.09.05a5.35,5.35,0,0,1,.65.35,8.75,8.75,0,0,1,1.21.84c.25.2.46.39.66.58a11,11,0,0,1,.9,1,9,9,0,0,1,.56.8c.19.31.36.59.5.88s.25.54.36.82a8.58,8.58,0,0,1,.31.9s0,.1,0,.15c.2.18.4.38.59.58l.33.38a10.81,10.81,0,0,1,.78,1.06c.08.12.16.24.22.35a10.7,10.7,0,0,1,.82,1.75s.1.31.14.42a10.87,10.87,0,0,1,.33,1.42l0,.36a11.07,11.07,0,0,1,.08,1.48c0,.17,0,.36,0,.52a12.87,12.87,0,0,1-.21,1.62s-.06.25-.07.32a12,12,0,0,1-.35,1.23c0,.13-.09.25-.13.38-.13.36-.29.74-.47,1.12a2.65,2.65,0,0,1-.11.26c-.19.38-.39.77-.62,1.18-.13.23-.27.48-.43.74s-.16.26-.25.41c-.31.46-.6.87-.92,1.27a8.1,8.1,0,0,1-2.59,2.1,11.65,11.65,0,0,1-1.17.54q-.39.2-.81.36l-.4.15-.66.24-.41.12-.68.19-.38.09-.65.15-.46.08-.62.11-.75.11-.21.35a16.3,16.3,0,0,1-1.22,1.68c-.06.08-.14.16-.21.24a17.27,17.27,0,0,1-1.28,1.3l-.2.18a17.66,17.66,0,0,1-1.44,1.15l-.09.06c-.2.16-.41.31-.62.46l-.38.26c-.24.16-.51.33-.79.49l-.31.18a18.38,18.38,0,0,1-2.32,1.12l-.4.15c-.24.09-.52.19-.81.28l-.07,0a12.26,12.26,0,0,1-6.12,3.62,14.09,14.09,0,0,1-8,4,18,18,0,0,1-10.11,3.44,21.55,21.55,0,0,1-10.88,3Z"/>
    <path class="cls-2" d="M127.35,192.85a19.33,19.33,0,0,1-8.59-2.21h-.26c-.31,0-.66,0-1,0-7.11,0-13.24-3.28-20.34-7.09L94,181.88c-1.75-.92-3.15-1.63-4.52-2.29a55.78,55.78,0,0,0-7.16-2.78,84.55,84.55,0,0,0-11-2.6l-2.57-.41c-1-.14-2-.3-3-.47s-2-.34-3-.54c-5.24-1-12.79-2.9-18.1-7.64a4.55,4.55,0,0,1-.4-.35c-.36-.34-.69-.66-1-1-8.67-9.22-3.32-19.06-.44-24.34l.75-1.38c-11.83,2.28-20.73,3.4-27,3.4-3.18,0-11.62,0-15.18-6.12a9.92,9.92,0,0,1-1.17-6.91A11.69,11.69,0,0,1,0,125.89l0-.8a8.08,8.08,0,0,1,.1-1.9L6,7.6A8,8,0,0,1,14,0l.67,0H169.81a8,8,0,0,1,8,7.94l.46,71.4a7.14,7.14,0,0,1,0,.8c-.38,4.75-4.2,9.14-13,15a185.37,185.37,0,0,1-26.56,14.2,32.35,32.35,0,0,1-11.86,7.93l.84.87.67.67.74.71,1.09,1,.8.71.8.68.86.72c.32.26.61.5.91.73l1.27,1,.92.71,1,.76,1,.71,1,.75,1,.72,1,.67,2.1,1.44,1.33.88,2.06,1.35.61.39.55,0a4,4,0,0,0,.49,0l1.43-.1,1.36-.08,1.25,0h1.72l.76,0,.48,0,.78.08.34,0a8.6,8.6,0,0,1,4.09,1.07,9.17,9.17,0,0,1,1.4.93c.16.13.35.29.52.45h.07l.66.1.24,0a8.54,8.54,0,0,1,3.19,1c.2.11.4.22.59.35a10.09,10.09,0,0,1,2.1,1.59l.33,0,.63.14.12,0,.59.16c.29.09.53.16.74.24l.76.32c.25.11.49.23.71.35a10.6,10.6,0,0,1,1.5,1,8.31,8.31,0,0,1,.63.57,9.16,9.16,0,0,1,.77.83,6.5,6.5,0,0,1,.51.69l.24.07.68.25c.25.1.49.21.73.33l.09.05a5.35,5.35,0,0,1,.65.35,8.75,8.75,0,0,1,1.21.84c.25.2.46.39.66.58a11,11,0,0,1,.9,1,9,9,0,0,1,.56.8c.19.31.36.59.5.88s.25.54.36.82a8.58,8.58,0,0,1,.31.9s0,.1,0,.15c.2.18.4.38.59.58l.33.38a10.81,10.81,0,0,1,.78,1.06c.08.12.16.24.22.35a10.7,10.7,0,0,1,.82,1.75s.1.31.14.42a10.87,10.87,0,0,1,.33,1.42l0,.36a11.07,11.07,0,0,1,.08,1.48c0,.17,0,.36,0,.52a12.87,12.87,0,0,1-.21,1.62s-.06.25-.07.32a12,12,0,0,1-.35,1.23c0,.13-.09.25-.13.38-.13.36-.29.74-.47,1.12a2.65,2.65,0,0,1-.11.26c-.19.38-.39.77-.62,1.18-.13.23-.27.48-.43.74s-.16.26-.25.41c-.31.46-.6.87-.92,1.27a8.1,8.1,0,0,1-2.59,2.1,11.65,11.65,0,0,1-1.17.54q-.39.2-.81.36l-.4.15-.66.24-.41.12-.68.19-.38.09-.65.15-.46.08-.62.11-.75.11-.21.35a16.3,16.3,0,0,1-1.22,1.68c-.06.08-.14.16-.21.24a17.27,17.27,0,0,1-1.28,1.3l-.2.18a17.66,17.66,0,0,1-1.44,1.15l-.09.06c-.2.16-.41.31-.62.46l-.38.26c-.24.16-.51.33-.79.49l-.31.18a18.38,18.38,0,0,1-2.32,1.12l-.4.15c-.24.09-.52.19-.81.28l-.07,0a12.26,12.26,0,0,1-6.12,3.62,14.09,14.09,0,0,1-8,4,18,18,0,0,1-10.11,3.44,21.55,21.55,0,0,1-10.88,3Z"/>
    <g>
      <path class="cls-3" d="M148.08,8l-5.25,69.63s-1.76,8.35,27.44,1.76L169.81,8Z"/>
      <path class="cls-3" d="M14.65,8,14,8,8,126.32s-1.15,13,33,3.1L38.83,8Z"/>
      <path class="cls-4" d="M104.69,77.87S22.64,106.5,22.07,109c-.09.36,1.5.19,5.22-.67,29.76-6.92-12,14.56-13.81,15.51s-28.06,20.58,53.4.9S183.24,75.34,166,78.32c-21.25,3.67-38,2.5-.39-15.21C176,58.17,155.7,54.22,104.69,77.87Z"/>
      <g>
        <path class="cls-5" d="M152.84,145.13s6,5.71,13.73,5.08,9.11.23,8.84,3S163.56,156,163.56,156s-11.55-2-11.65-2.84S152.84,145.13,152.84,145.13Z"/>
        <path class="cls-5" d="M147.13,141.7s6.14,5.55,13.85,4.71,9.11,0,8.91,2.79-11.78,3.05-11.78,3.05-11.59-1.67-11.71-2.53S147.13,141.7,147.13,141.7Z"/>
        <path class="cls-6" d="M139.79,138.22s7.42,5.67,15.15,5,9.11.22,8.84,3S151.93,149,151.93,149s-11.55-2-11.65-2.84S139.79,138.22,139.79,138.22Z"/>
        <path class="cls-6" d="M134.8,135.68s6,5.71,13.72,5.08,9.11.22,8.85,3-11.85,2.73-11.85,2.73-11.55-2-11.65-2.84S134.8,135.68,134.8,135.68Z"/>
        <path class="cls-5" d="M139.79,138.31s7.43,5.67,15.15,5,9.11.22,8.84,3-11.85,2.73-11.85,2.73-11.55-2-11.64-2.84S139.79,138.31,139.79,138.31Z"/>
        <path class="cls-5" d="M134.8,135.77s6,5.7,13.73,5.07,9.11.23,8.84,3-11.85,2.73-11.85,2.73-11.55-2-11.65-2.85S134.8,135.77,134.8,135.77Z"/>
        <path class="cls-7" d="M121,14s-9.7,87-5,101.18,45.1,35.15,45.1,35.15,9.27,5,10.52,4.4,10.14-.89,5.5,6.12-50.15-4.44-50.43-5.22-33-20-33.31-21.36-4.79-117-4.79-117S115.51,8,121,14Z"/>
        <path class="cls-8" d="M108.2,12.41s-9.56,79.13-8.72,94.07c.94,16.46,16,29.9,35.55,41,7.74,4.37,23,12.24,31.76,11.74,1.13-.07,8.32-.67,8.35-1,1.52-.48,4,.2,1.45,3.37-11.16,5.7-53.81-5.33-53.29-5.9s-31.14-17.8-31.42-19.12-4.8-117-4.8-117S102.73,6.44,108.2,12.41Z"/>
        <path class="cls-9" d="M174.14,153l-1.29.1a1,1,0,0,1-1-.75,2.28,2.28,0,0,0-.93-1.2.17.17,0,0,1,.09-.31l2.23-.14a.86.86,0,0,1,.44.1,2,2,0,0,1,1.08,1.33A.72.72,0,0,1,174.14,153Z"/>
        <path class="cls-9" d="M176,158.18l-2,.15a1.54,1.54,0,0,1-1.57-1.14,3.41,3.41,0,0,0-1.47-1.81.26.26,0,0,1,.14-.47l3.56-.22a1.29,1.29,0,0,1,.69.15,3,3,0,0,1,1.71,2A1.09,1.09,0,0,1,176,158.18Z"/>
        <path class="cls-9" d="M169,148.87l-1.29.1a1,1,0,0,1-1-.75,2.26,2.26,0,0,0-.93-1.19.17.17,0,0,1,.09-.31l2.23-.14a.85.85,0,0,1,.44.09,2,2,0,0,1,1.08,1.33A.71.71,0,0,1,169,148.87Z"/>
        <path class="cls-9" d="M162.73,145.6l-1.29.1a1,1,0,0,1-1-.75,2.23,2.23,0,0,0-.92-1.19.18.18,0,0,1,.08-.32l2.24-.14a.8.8,0,0,1,.43.1,2,2,0,0,1,1.08,1.33A.71.71,0,0,1,162.73,145.6Z"/>
        <path class="cls-9" d="M156.54,142.51l-1,.08a.73.73,0,0,1-.73-.57,1.76,1.76,0,0,0-.7-.89.13.13,0,0,1,.07-.23l1.67-.11a.64.64,0,0,1,.33.07,1.56,1.56,0,0,1,.81,1A.53.53,0,0,1,156.54,142.51Z"/>
        <path class="cls-10" d="M169.36,150.05a1.64,1.64,0,0,1-1,.38c-.36.06-.72.09-1.08.12l-2.12.11a16.75,16.75,0,0,1-2.12.07,9.07,9.07,0,0,1-2.12-.43v-.1a7,7,0,0,1,2.12-.47,10.79,10.79,0,0,1,2.13.13l2.12.19c.35,0,.7.07,1.05.08a1.63,1.63,0,0,0,1-.13Z"/>
        <path class="cls-10" d="M164.13,146.2a12.11,12.11,0,0,1-2.54.4c-.87,0-1.72,0-2.55,0s-1.67.12-2.5.08a16.14,16.14,0,0,1-2.55-.24v-.1a8.31,8.31,0,0,1,2.52-.66,11.06,11.06,0,0,1,2.57.12,22.49,22.49,0,0,0,5,.28Z"/>
        <path class="cls-10" d="M157.41,143.18a10.32,10.32,0,0,1-2.13.43c-.73.06-1.45.06-2.17.06s-1.41.09-2.1,0a14.94,14.94,0,0,1-2.12-.29l0-.1a5.42,5.42,0,0,1,2.13-.61,9.23,9.23,0,0,1,2.17.18,16.13,16.13,0,0,0,4.22.22Z"/>
        <path class="cls-11" d="M88.59,18.34c0-.71,0-1.1,0-1.1s1.07-.36,2.82-.9c5-3.44,13.19-7.9,16.83-3.93h0c5.59-.76,10.72-.67,12.78,1.59,0,0-9.7,87-5,101.18,2.61,7.9,16.35,17.92,28,25.25a15.63,15.63,0,0,0,4.58.33,24.1,24.1,0,0,1,6.89.06l.47,0a.64.64,0,0,1,.33.07,1.55,1.55,0,0,1,.75.82,2.22,2.22,0,0,1,.43,1.42,17.05,17.05,0,0,1,4.38.21h.09a.8.8,0,0,1,.43.1l.27.17a2,2,0,0,1,1.25,2c0,.17,0,.36,0,.55,5.23-.33,6.26.61,6.09,3a1.22,1.22,0,0,1-.45.83c5.2-.17,6.2.8,6,3.21,0,.5-.46.91-1.1,1.25,2.61.17,5.71,1.41,3.13,5.78a6.76,6.76,0,0,1-.85,1.31c-.26.13-.55.26-.84.37a14.19,14.19,0,0,1-5.48,1.11c-15.92,1.34-47.42-6.89-47-7.38s-31.14-17.8-31.42-19.12-4.8-117-4.8-117S87.64,19.06,88.59,18.34Z"/>
      </g>
      <path class="cls-12" d="M151.53,173.21c3.69,1.28,5.66-1.07,6.1-2.87,0,0,3.49.52,6.63-3.13,1.39-.07.18.61,1.46,0a10.08,10.08,0,0,1-7.76,4.41c-.32,1-1.27,3.61-6.09,3.24A2.87,2.87,0,0,0,151.53,173.21Z"/>
      <g>
        <path class="cls-13" d="M97.47,12.79,49.81,30,56,96.14c.86,19.48-1.31,36.69-3.83,42.58-3,7.11-9.54,13.55-2.44,20.24,5.55,5.21,16.38,6.26,22.93,7.36a79.2,79.2,0,0,1,20.26,6.06c11.44,5.49,18.9,11.35,26.71,10.13l1-.19c4.94,3.88,11.07,3,15.9-.7,5.3,1.11,9.06-3,9-3,6.31-.16,6.45-3.8,6.47-3.86,4.38.24,5.75-2.09,6.09-3.2,3.49-.18,7.19-2.52,8.17-5.29a4,4,0,0,0-2.84-5.31,21.56,21.56,0,0,0-3.57-.42c-5.2-.46-13.39-4.18-18.36-5.17-6.17-1.23-17.13-9.18-21.64-12.32-9.47-6.6-11.69-8.55-19.43-13.84C85.56,124.85,93.59,37.54,97.47,12.79Z"/>
        <path class="cls-14" d="M52.19,138.72c2.51-5.89,4.69-23.1,3.83-42.59L49.85,30l3.84-1.38,6,64.3c.86,19.48-1.31,36.69-3.83,42.59-3,7.1-9.54,13.54-2.44,20.23C59,160.9,69.79,162,76.34,163.05a79.37,79.37,0,0,1,20.27,6.06c11.43,5.49,18.89,11.35,26.71,10.13l1-.19c4.94,3.88,7.4,5.19,12.24,1.46,5.3,1.11,9-3.21,9-3.16.85.8,5.2-.54,6.45-2.34-.15.8-1,3.5-6.44,3.64,0-.05-3.71,4.08-9,3-4.84,3.74-11,4.58-15.9.71l-1,.19c-7.82,1.21-15.28-4.64-26.71-10.13a79.37,79.37,0,0,0-20.27-6.06c-6.55-1.1-17.38-2.15-22.92-7.36C42.64,152.27,49.16,145.83,52.19,138.72Z"/>
        <path class="cls-15" d="M160.26,163.85a21.33,21.33,0,0,0-3.56-.42c-5.2-.46-13.39-4.18-18.36-5.17-6.17-1.23-17.13-9.18-21.64-12.32-9.47-6.6-11.69-8.55-19.43-13.84-14.82-4.39-6.8-91.7-2.91-116.45L50.54,31.43l-.18-1.89L98,12.38c-3.89,24.75-11.92,112.06,2.91,116.45,7.74,5.29,10,7.24,19.43,13.84,4.51,3.14,15.46,11.09,21.64,12.32,5,1,13.16,4.71,18.35,5.17a20.38,20.38,0,0,1,3.57.43,4,4,0,0,1,2.85,5.3,8.23,8.23,0,0,1-4.09,4.15,5.43,5.43,0,0,0,.42-.88A4,4,0,0,0,160.26,163.85Z"/>
        <path class="cls-11" d="M52.14,138.72c2.52-5.89,4.69-23.1,3.83-42.58L49.81,30l.57-.21,0-.2L98,12.38c-3.89,24.75-11.92,112.06,2.91,116.45,7.74,5.29,10,7.24,19.43,13.84,4.51,3.14,15.46,11.09,21.64,12.32,5,1,13.16,4.71,18.35,5.17a20.38,20.38,0,0,1,3.57.43,4,4,0,0,1,2.85,5.3,7.47,7.47,0,0,1-2.86,3.42,10.72,10.72,0,0,1-5.87,2.28c-.34,1.11-1.71,3.44-6.09,3.2,0,.06-.16,3.7-6.47,3.86,0-.05-3.72,4.08-9,3-4.83,3.73-11,4.58-15.9.7l-1,.19c-7.81,1.22-15.27-4.64-26.71-10.13a79.2,79.2,0,0,0-20.26-6.06c-6.55-1.1-17.38-2.15-22.93-7.36C42.6,152.27,49.11,145.83,52.14,138.72Z"/>
        <path class="cls-16" d="M58.6,30.16c1.43,11.86,7.23,62.56,5.64,93,.9.49,1.78,1,2.64,1.57.27-3.5.5-7,.66-10.53,1.34-28.83.68-77.52-.33-87.17l-8.61,3.1Zm3.32,109.21c-.37,1.63-.58,4.22,1.41,5.57,3,2.07,8.24,1.09,12.82,5.38-.92-3.06-8.55-5.46-10.71-7A3.24,3.24,0,0,1,64,140.14C64.36,136.77,62.43,137.18,61.92,139.37Z"/>
        <path class="cls-17" d="M135.23,177.79c-.6-.27-3.15-.54-3.7-.74-.94-.33-4.57-1.52-4.57-1.52s2,1,3,1.52a14.62,14.62,0,0,0,3.17,1.26c.54.2,1.1.4,1.64.64a2,2,0,0,1,1.12,1,3.23,3.23,0,0,1-.08,2.14c2-1.37,1.32-3.52-.54-4.34Zm9.54,1.52a2.74,2.74,0,0,0,1.06-2.29c0-1.59-.74-2.61-3.09-2.72-3.64.09-6.12-.62-7.49-2.1,0,0-.08,1,1.25,1.46a16.07,16.07,0,0,0,5.69,1.34h0c3.39.16,2.58,4.08,2.58,4.09a.54.54,0,0,0,0,.22Zm6.89-3.5c.08-.87.14-4.25-3.33-4.41h0c-.42,0-.84-.05-1.25-.1l-1.2-.18a20.4,20.4,0,0,1-4.68-1.68,7.88,7.88,0,0,1-1.05-.69s1.13.32,1.43.45a17.9,17.9,0,0,0,3.81.77c.36.07,1.24.16,1.63.2s1,0,1.41,0h0c3.08.14,4.51,3,3.24,5.67Zm3-9.61a37.33,37.33,0,0,1-6.66-.94,7.2,7.2,0,0,1-2.46-1.07l0,0h0a1.88,1.88,0,0,0,1,1.24,22.53,22.53,0,0,0,8,2.06c3.21.25,3,4.24,2.92,5.3a4.43,4.43,0,0,0-.16-5.45A3.79,3.79,0,0,0,154.63,166.2Z"/>
        <path class="cls-18" d="M164.64,162.34a8.48,8.48,0,0,0-3.08,2.95,1.11,1.11,0,0,1-.93.49c-1.26,0-4.12-.22-5-1.29s2-2.81,3.2-3.44a1.82,1.82,0,0,1,1-.2,20.42,20.42,0,0,1,4.75,1A.28.28,0,0,1,164.64,162.34Z"/>
        <path class="cls-18" d="M155.72,168.52a3.5,3.5,0,0,0-2.14,1.42.74.74,0,0,1-.84.3l-1.16-.37a.79.79,0,0,1-.26-1.33,4.24,4.24,0,0,1,2-1,1.69,1.69,0,0,1,.89.07l1.5.52A.2.2,0,0,1,155.72,168.52Z"/>
        <path class="cls-18" d="M150,172.63a3.56,3.56,0,0,0-2.15,1.42.74.74,0,0,1-.84.31l-1.15-.38a.78.78,0,0,1-.26-1.32,4.24,4.24,0,0,1,2-1,1.65,1.65,0,0,1,.88.07l1.51.52A.19.19,0,0,1,150,172.63Z"/>
        <path class="cls-18" d="M143.39,176.15a3.54,3.54,0,0,0-2.14,1.42.75.75,0,0,1-.84.31l-1.16-.38a.78.78,0,0,1-.26-1.32,4.24,4.24,0,0,1,2-1,1.7,1.7,0,0,1,.89.07l1.5.52A.19.19,0,0,1,143.39,176.15Z"/>
        <path class="cls-18" d="M135.18,179.24a3.53,3.53,0,0,0-2.15,1.42.75.75,0,0,1-.84.31l-1.15-.38a.78.78,0,0,1-.27-1.32,4.29,4.29,0,0,1,2-1,1.69,1.69,0,0,1,.89.07l1.5.52A.19.19,0,0,1,135.18,179.24Z"/>
      </g>
      <path class="cls-19" d="M20.74,8l1.33,101C43,99.65,165.37,54.32,168.22,60.7L166.42,8Z"/>
      <path class="cls-20" d="M69,8,64.69,91.74c8.7-4.06,19.72,4.17,40.94-6.71L101.18,8Z"/>
      <path class="cls-21" d="M78.78,8l-4.9,95.83c9.49-3.57,21.25,4.2,41-6.71L109.67,8Z"/>
      <path class="cls-21" d="M103.29,8l-4,78c34.34,7.8,30.66-5.63,40.94-6.71L136.12,8Z"/>
      <path class="cls-19" d="M97.42,8,92.19,110.31c16.81-1.71,28.22,6.3,40.94-6.7L127.6,8Z"/>
      <g>
        <path class="cls-22" d="M36.19,107.05c-6.6,5.11-13.86,9.18-21.12,13.23-1.2.67-2.41,1.33-3.6,2-.6.34-1.19.69-1.76,1.06a5.5,5.5,0,0,0-1.55,1.28l-.13,0A5,5,0,0,1,9.38,123c.53-.46,1.07-.89,1.63-1.3,3.37-2.45,7-4.59,10.54-6.72s7.35-4.17,10.9-6.09c1.22-.66,2.44-1.31,3.68-2l.06.13Z"/>
        <path class="cls-22" d="M21.94,102.56a40.66,40.66,0,0,1,7.45-4.66c3.46-1.77,7-3.35,10.63-4.78a155.75,155.75,0,0,1,25-7.81l.05.13C52.29,90,39.49,94.45,27.14,100c-.74.35-1.88.89-2.61,1.26a24.52,24.52,0,0,0-2.5,1.43l-.09-.11Z"/>
        <path class="cls-22" d="M65.05,83.42a3.25,3.25,0,0,1,2.17-2,7.81,7.81,0,0,1,7.47,1.45c.09.09.18.16.27.26l0,.14c-.83-.18-1.65-.37-2.49-.51a16.53,16.53,0,0,0-5-.21,7.16,7.16,0,0,0-1.21.31,2.77,2.77,0,0,0-1,.63l-.12-.08Z"/>
        <path class="cls-22" d="M74.2,96.32c-.08-1.52,2.55-2.25,3.74-2.42a18.71,18.71,0,0,1,5.64.08,27.2,27.2,0,0,1,4.79,1.16,21.67,21.67,0,0,1,4.5,2l0,.14c-3.1-.72-6.32-1.5-9.47-1.93a35.83,35.83,0,0,0-3.59-.4,10.38,10.38,0,0,0-4.7.53,1.26,1.26,0,0,0-.74.79Z"/>
        <path class="cls-22" d="M92.68,103.88a39.93,39.93,0,0,1,13-1.58c8.06.22,14.67,1.57,22.33-1.94,1.56-.66,3.06-1.48,4.59-2.31l.09.12c-6,4.66-11.82,6.37-19.35,5.93-3.45-.17-6.87-.57-10.31-.67A56.21,56.21,0,0,0,92.7,104l0-.14Z"/>
        <path class="cls-22" d="M140,71.11c-1.7,1-3.08,1.75-4.65,2.73A37.25,37.25,0,0,1,131.6,76l-.12-.08a13.29,13.29,0,0,1,1.17-1.54,3.94,3.94,0,0,1,.44-.47A9.75,9.75,0,0,1,138.74,71a6.26,6.26,0,0,1,1.3,0v.14Z"/>
        <path class="cls-22" d="M139.14,60.62c6.43-4.6,19.15-9.82,27.06-7.93a6.63,6.63,0,0,1,1.8.76l-.05.13a10.38,10.38,0,0,0-3.68-.46,34.34,34.34,0,0,0-7.4,1.21,103.25,103.25,0,0,0-10.71,3.54c-2.34.91-4.67,1.86-7,2.88l-.06-.13Z"/>
        <path class="cls-22" d="M146.26,73.79c4.46-1,8.85-1.55,13.32-2.28,1.46-.21,3-.46,4.51-.56,2-.17,4.59-.09,6,1.62l-.08.11a5.29,5.29,0,0,0-1.34-.63,9.79,9.79,0,0,0-4.44,0c-2,.34-4,.77-5.95,1.07a70.69,70.69,0,0,1-12.07.79v-.15Z"/>
      </g>
      <g class="cls-23">
        <path class="cls-22" d="M36.26,109.79C29.66,114.9,22.4,119,15.14,123c-1.2.67-2.41,1.33-3.6,2-.6.34-1.18.69-1.76,1.06a5.46,5.46,0,0,0-1.54,1.28l-.14,0a5,5,0,0,1,1.35-1.61c.53-.46,1.07-.89,1.63-1.3,3.37-2.45,7-4.59,10.54-6.72s7.35-4.17,10.9-6.1l3.68-1.94.06.13Z"/>
        <path class="cls-22" d="M22,105.3a41,41,0,0,1,7.45-4.66c3.47-1.77,7-3.35,10.63-4.78a154.75,154.75,0,0,1,25-7.81l0,.13c-12.75,4.53-25.55,9-37.9,14.54-.74.35-1.88.89-2.61,1.26a24.52,24.52,0,0,0-2.5,1.43L22,105.3Z"/>
        <path class="cls-22" d="M65.12,86.16a3.25,3.25,0,0,1,2.17-2,7.8,7.8,0,0,1,7.47,1.45c.09.09.18.16.27.26L75,86c-.83-.18-1.65-.37-2.48-.51a16.6,16.6,0,0,0-5-.21,7.16,7.16,0,0,0-1.21.31,2.77,2.77,0,0,0-1,.63l-.12-.08Z"/>
        <path class="cls-22" d="M74.27,99.06c-.08-1.52,2.55-2.25,3.74-2.42a18.71,18.71,0,0,1,5.64.08,27.2,27.2,0,0,1,4.79,1.16A22,22,0,0,1,93,99.93l0,.14c-3.1-.72-6.32-1.5-9.46-1.93-1.15-.18-2.44-.34-3.6-.4a10.38,10.38,0,0,0-4.7.53,1.26,1.26,0,0,0-.74.79Z"/>
        <path class="cls-22" d="M92.75,106.62a39.93,39.93,0,0,1,13-1.58c8.06.22,14.67,1.57,22.33-1.94,1.56-.66,3.06-1.48,4.59-2.31l.09.12c-6,4.66-11.82,6.37-19.35,5.93-3.45-.17-6.87-.57-10.31-.67a56.21,56.21,0,0,0-10.29.59l0-.14Z"/>
        <path class="cls-22" d="M140.1,73.85c-1.7,1-3.08,1.74-4.65,2.73a37.25,37.25,0,0,1-3.78,2.2l-.12-.08a13.29,13.29,0,0,1,1.17-1.54,5,5,0,0,1,.44-.47,9.75,9.75,0,0,1,5.65-2.94,6.26,6.26,0,0,1,1.3,0v.14Z"/>
        <path class="cls-22" d="M139.21,63.36c6.43-4.6,19.16-9.82,27.06-7.93a6.63,6.63,0,0,1,1.8.76l0,.13a10.38,10.38,0,0,0-3.68-.46,34.44,34.44,0,0,0-7.4,1.21,103.25,103.25,0,0,0-10.71,3.54c-2.34.91-4.67,1.86-7,2.88l-.06-.13Z"/>
        <path class="cls-22" d="M146.33,76.53c4.46-1,8.85-1.55,13.32-2.28,1.46-.21,3-.46,4.51-.56,2-.17,4.59-.09,6.05,1.62l-.08.11a5.29,5.29,0,0,0-1.34-.63,9.79,9.79,0,0,0-4.44,0c-2,.34-4,.77-5.95,1.07a70.69,70.69,0,0,1-12.07.79v-.15Z"/>
      </g>
    </g>
  </g>
</svg>
