<svg xmlns="http://www.w3.org/2000/svg" xmlns:xlink="http://www.w3.org/1999/xlink" width="174.91" height="237.79" viewBox="0 0 174.91 237.79">
  <defs>
    <style>
      .cls-1 {
        isolation: isolate;
      }

      .cls-2, .cls-4 {
        opacity: 0.5;
      }

      .cls-3 {
        fill: #fff;
      }

      .cls-4 {
        fill: #60833a;
        mix-blend-mode: multiply;
      }

      .cls-5 {
        fill: url(#New_Gradient_Swatch_copy_25);
      }

      .cls-6 {
        fill: #b1aeaf;
      }

      .cls-7 {
        fill: #8e8e8e;
      }

      .cls-8 {
        fill: #4f4f4f;
      }

      .cls-9 {
        fill: #ffbbbe;
      }

      .cls-10 {
        fill: #f99398;
      }

      .cls-11 {
        fill: #eaeaea;
      }

      .cls-12 {
        fill: #d0cecf;
      }

      .cls-13 {
        fill: #353535;
      }

      .cls-14 {
        fill: #d1d1d1;
      }

      .cls-15 {
        fill: #320507;
      }

      .cls-16 {
        fill: #494949;
      }

      .cls-17 {
        fill: #ad6f44;
      }

      .cls-18 {
        fill: #ffe9eb;
      }

      .cls-19 {
        fill: #bf2c2c;
      }

      .cls-20 {
        fill: #edd8c3;
      }

      .cls-21 {
        fill: #d8b99e;
      }

      .cls-22 {
        fill: #ddd;
      }

      .cls-23 {
        fill: #bfbfbf;
      }

      .cls-24 {
        fill: #b21414;
      }

      .cls-25 {
        fill: #7f0000;
      }

      .cls-26 {
        fill: #fca7a7;
      }

      .cls-27 {
        fill: #f5eae9;
      }

      .cls-28 {
        fill: #ef7a7a;
      }

      .cls-29 {
        fill: #d83a3a;
      }

      .cls-30 {
        fill: #7f7f7f;
      }

      .cls-31 {
        fill: #f95858;
      }

      .cls-32 {
        fill: #ffaeae;
      }

      .cls-33 {
        fill: #ea3434;
      }
    </style>
    <linearGradient id="New_Gradient_Swatch_copy_25" data-name="New Gradient Swatch copy 25" x1="64.34" y1="129.62" x2="59.56" y2="210.37" gradientUnits="userSpaceOnUse">
      <stop offset="0.02" stop-color="#749a23"/>
      <stop offset="0.18" stop-color="#749a23"/>
      <stop offset="0.19" stop-color="#719924"/>
      <stop offset="0.27" stop-color="#53932a"/>
      <stop offset="0.34" stop-color="#418e2f"/>
      <stop offset="0.39" stop-color="#3a8d30"/>
      <stop offset="0.41" stop-color="#328b32"/>
      <stop offset="0.48" stop-color="#178438"/>
      <stop offset="0.54" stop-color="#06803c"/>
      <stop offset="0.59" stop-color="#007f3d"/>
      <stop offset="0.69" stop-color="#006a2a"/>
      <stop offset="0.78" stop-color="#005416"/>
      <stop offset="0.86" stop-color="#005022"/>
      <stop offset="1" stop-color="#004740"/>
    </linearGradient>
  </defs>
  <g class="cls-1">
    <g id="Layer_1" data-name="Layer 1">
      <g>
        <path class="cls-2" d="M46.11,237.79a14.61,14.61,0,0,1-7.06-1.61c-4-.53-8.6-1.89-11.28-5.87a11.63,11.63,0,0,1-1.29-9.84,17.62,17.62,0,0,1,3.28-11.34c3.17-4.31,7.83-6.48,12.17-7.77a21.63,21.63,0,0,1-4.27-13.74c.51-8.09,4.67-17.46,11.51-26,.61-3.57,1.37-7.1,2.3-10.54-7.7-5.36-15.14-13.46-18.17-17.15q-.19-.16-.39-.36c-5.34-4.84-9.8-12.2-12.46-18.54-4.44-1.76-8.35-3.9-11.67-8.64S4.21,95.72,5.48,91.13a10.9,10.9,0,0,1,4-5.92,15.93,15.93,0,0,1,.71-2,11.24,11.24,0,0,1,7.64-6.77,12.26,12.26,0,0,1,2.84-.34h.17a12.25,12.25,0,0,1,6.53-1.81h.44a12.57,12.57,0,0,1,9.11,4.16,12.6,12.6,0,0,1,2.74.52,12.13,12.13,0,0,1,7.82,7.61,19.2,19.2,0,0,1,.75,9.09,22.89,22.89,0,0,1,1.31-2,55.26,55.26,0,0,1,7-24.34,57.09,57.09,0,0,1-14.59-14.3c-7.85-11.4-12.41-23.83-13.44-29-.1-.51-.23-1.1-.36-1.73C26.64,17.67,24.84,9.4,32.06,6a10.06,10.06,0,0,1,4.35-1,15.76,15.76,0,0,1,5.88,1.42c1.62.62,4,1.51,7.67,2.63C60.77,12.31,71.1,21.11,79,33.81a75.4,75.4,0,0,1,6.8,14.63c.81-.09,1.64-.14,2.5-.18h.46a25.07,25.07,0,0,1,2.74.21c.1-.37.2-.74.29-1.09,1.49-5.44,2.67-9.74,3.78-12.47,2.52-6.2,6.18-9.16,8.8-10.54l.1-.06a4.39,4.39,0,0,1,.44-.21,19.37,19.37,0,0,1,6.47-2,16.32,16.32,0,0,1,2-.12,16.74,16.74,0,0,1,10.43,3.68c.48,0,1-.05,1.42-.05,3.89,0,11.13,1.37,15.93,10.54a99.42,99.42,0,0,1,6,14.63c.78,2.27,1.57,4.59,2.47,6.82a28.24,28.24,0,0,0,3,5.37c1.6,2.41,3.59,5.4,3,9.55a9.31,9.31,0,0,1-2.32,4.92,11.75,11.75,0,0,1,2.5.34,11.27,11.27,0,0,1,7.62,6.75,16.62,16.62,0,0,1,.71,2,10.87,10.87,0,0,1,4,5.93c1.27,4.59,0,10.57-3.3,15.25s-7.23,6.87-11.67,8.64c-.15.36-.31.72-.47,1.09a14.11,14.11,0,0,1,8.14-2.81,10.81,10.81,0,0,1,8,3.49,11.38,11.38,0,0,1,2.35,3.66c3.88,4.48,4.35,11.32,3.45,16.61-.1,9.19-6.09,18.29-12.26,26.84-4.66,6.46-7,13.56-8.75,18.74a28.49,28.49,0,0,1-4.16,8.73A13,13,0,0,1,138.61,198c-.4,0-.82,0-1.25,0a11,11,0,0,1-4.27-1.18c-5-1.17-7.86-5.69-9.35-8l-.16-.25c-.22-.34-.44-.69-.65-1l-.18-.29c-1,.54-2.27,1.4-3.3,2.1l-.23.29c-.1.13-.21.26-.32.38a36.73,36.73,0,0,1-26.58,13.42c0,.08,0,.16,0,.24-.34,6-3.21,10.29-8.06,15.65a56.26,56.26,0,0,1-24.58,15.79C54.07,236.9,49.64,237.79,46.11,237.79ZM125.65,76.26a56.41,56.41,0,0,1,2.39,8.1,11.65,11.65,0,0,1,5.83-4l.44-.12c-.94-.27-1.89-.59-2.83-1A31.24,31.24,0,0,1,125.65,76.26Z"/>
        <path class="cls-3" d="M41.11,232.79a14.61,14.61,0,0,1-7.06-1.61c-4-.53-8.6-1.89-11.28-5.87a11.63,11.63,0,0,1-1.29-9.84,17.62,17.62,0,0,1,3.28-11.34c3.17-4.31,7.83-6.48,12.17-7.77a21.63,21.63,0,0,1-4.27-13.74c.51-8.09,4.67-17.46,11.51-26,.61-3.57,1.37-7.1,2.3-10.54-7.7-5.36-15.14-13.46-18.17-17.15q-.19-.16-.39-.36c-5.34-4.84-9.8-12.2-12.46-18.54-4.44-1.76-8.35-3.9-11.67-8.64S-.79,90.72.48,86.13a10.9,10.9,0,0,1,4-5.92,15.93,15.93,0,0,1,.71-2,11.24,11.24,0,0,1,7.64-6.77,12.26,12.26,0,0,1,2.84-.34h.17a12.25,12.25,0,0,1,6.53-1.81h.44a12.57,12.57,0,0,1,9.11,4.16,12.6,12.6,0,0,1,2.74.52,12.13,12.13,0,0,1,7.82,7.61,19.2,19.2,0,0,1,.75,9.09,22.89,22.89,0,0,1,1.31-2,55.26,55.26,0,0,1,7-24.34,57.09,57.09,0,0,1-14.59-14.3c-7.85-11.4-12.41-23.83-13.44-29-.1-.51-.23-1.1-.36-1.73C21.64,12.67,19.84,4.4,27.06,1a10.06,10.06,0,0,1,4.35-1,15.76,15.76,0,0,1,5.88,1.42c1.62.62,4,1.51,7.67,2.63C55.77,7.31,66.1,16.11,74,28.81a75.4,75.4,0,0,1,6.8,14.63c.81-.09,1.64-.14,2.5-.18h.46a25.07,25.07,0,0,1,2.74.21c.1-.37.2-.74.29-1.09,1.49-5.44,2.67-9.74,3.78-12.47,2.52-6.2,6.18-9.16,8.8-10.54l.1-.06a4.39,4.39,0,0,1,.44-.21,19.37,19.37,0,0,1,6.47-2,16.32,16.32,0,0,1,2-.12,16.74,16.74,0,0,1,10.43,3.68c.48,0,1-.05,1.42-.05,3.89,0,11.13,1.37,15.93,10.54a99.42,99.42,0,0,1,6,14.63c.78,2.27,1.57,4.59,2.47,6.82a28.24,28.24,0,0,0,3,5.37c1.6,2.41,3.59,5.4,3,9.55a9.31,9.31,0,0,1-2.32,4.92,11.75,11.75,0,0,1,2.5.34,11.27,11.27,0,0,1,7.62,6.75,16.62,16.62,0,0,1,.71,2,10.87,10.87,0,0,1,4,5.93c1.27,4.59,0,10.57-3.3,15.25s-7.23,6.87-11.67,8.64c-.15.36-.31.72-.47,1.09a14.11,14.11,0,0,1,8.14-2.81,10.81,10.81,0,0,1,8,3.49,11.38,11.38,0,0,1,2.35,3.66c3.88,4.48,4.35,11.32,3.45,16.61-.1,9.19-6.09,18.29-12.26,26.84-4.66,6.46-7,13.56-8.75,18.74a28.49,28.49,0,0,1-4.16,8.73A13,13,0,0,1,133.61,193c-.4,0-.82,0-1.25,0a11,11,0,0,1-4.27-1.18c-5-1.17-7.86-5.69-9.35-8l-.16-.25c-.22-.34-.44-.69-.65-1l-.18-.29c-1,.54-2.27,1.4-3.3,2.1l-.23.29c-.1.13-.21.26-.32.38a36.73,36.73,0,0,1-26.58,13.42c0,.08,0,.16,0,.24-.34,6-3.21,10.29-8.06,15.65a56.26,56.26,0,0,1-24.58,15.79C49.07,231.9,44.64,232.79,41.11,232.79ZM120.65,71.26a56.41,56.41,0,0,1,2.39,8.1,11.65,11.65,0,0,1,5.83-4l.44-.12c-.94-.27-1.89-.59-2.83-1A31.24,31.24,0,0,1,120.65,71.26Z"/>
        <g>
          <path class="cls-4" d="M66.61,170.64c-1.53,0-3.56,0-5.59.15-3.94.17-7.48.63-8.39,1.58-.11.12-.08.22.13.32,3.84,1.75,11.57,1.27,16.82,1,1.9-.08,12.64-.25,12-1.83S69.69,170.57,66.61,170.64Z"/>
          <path class="cls-4" d="M130.23,164.45c-1.3-1.23-9.15-.72-11.68-.63-1.07,0-3.56,0-5.61.2l-1.72.07c-1.1,0-4.63.69-2.74,1.3,2.09.68,5.54.66,8.1.69,2.76,0,5.5-.1,8.2-.32a24.58,24.58,0,0,0,4.79-.63C130.07,165,130.51,164.72,130.23,164.45Z"/>
          <path class="cls-5" d="M52.62,192.94c.8-1.7,6-2.63,5.83-.05.66-3.41,4.94.09,5.5,1.85,1.77-2,5.79-3.11,8.11-1.34-1-1.3-1.25-3.9.45-4.69-1.11.58-3,1.12-3.29-.43-2.37,2.6-7,1.4-5.83-2.43-1.37-.49-1.15-1.8-.25-2.67-1.8.57-5.84,2.34-6.77-.21a5.32,5.32,0,0,1-2,2.06c.2,0,.39-.06.59-.11a3.81,3.81,0,0,1,.77-.22,6.77,6.77,0,0,1-.77.22c-1.75.74-2.71,2.84-1.17,3.7-1.71-.17-4.66.71-4.72,2.36C50.29,190.92,51.28,191.55,52.62,192.94Z"/>
          <path d="M67.36,95.69l-.39,0a5.94,5.94,0,0,1-4.59-3.34,12.68,12.68,0,0,1-1.4-7.2c.44-5.49,3.84-9.75,7.62-9.44A6,6,0,0,1,73.19,79a12.68,12.68,0,0,1,1.4,7.2C74.16,91.54,71,95.69,67.36,95.69ZM68.21,76c-3.44,0-6.46,4-6.88,9.13a12.38,12.38,0,0,0,1.35,7A5.63,5.63,0,0,0,67,95.32c3.58.29,6.81-3.82,7.24-9.11a12.41,12.41,0,0,0-1.35-7,5.64,5.64,0,0,0-4.32-3.16Z"/>
          <path d="M67.54,91.37h-.22c-2.15-.17-3.68-2.86-3.43-6s2.2-5.54,4.36-5.36a3.41,3.41,0,0,1,2.64,1.91A7.28,7.28,0,0,1,71.68,86C71.43,89,69.62,91.37,67.54,91.37Zm.48-11c-1.89,0-3.55,2.22-3.78,5.05S65.4,90.85,67.35,91s3.74-2.11,4-5a6.93,6.93,0,0,0-.75-3.88,3.07,3.07,0,0,0-2.36-1.73Z"/>
          <path d="M72.63,76.26a5.19,5.19,0,0,0-3.73-1.93,5.81,5.81,0,0,0-3.83,1.19l-.23-.26A6,6,0,0,1,68.91,74a5.47,5.47,0,0,1,4,2.08Z"/>
          <path class="cls-6" d="M103.23,26.6c-1.16.61-3.34,2.19-5,6.39s-4.36,15.55-7,23.81c.83.4,6.79,3.8,8.11,3.25,4.84-2,9-5.56,13.19-10.91C112.35,40.14,103.23,26.6,103.23,26.6Z"/>
          <path class="cls-7" d="M96.79,37.26c-.21,2-.27,8.29,1.93,8.48,2.62.1,4.43-10.35,7.09-13.85,2.62,4.76,6.6,12,6.67,17.25-3.55,4.54-8.55,9.56-13.11,10.66-2.43.59-6.67-2.72-7.92-3.32C92.8,50.75,95.13,43.5,96.79,37.26Z"/>
          <path class="cls-8" d="M98.92,60.29h0c-1.55,0-5.31-2-7.11-3L91.1,57,91,56.9l.05-.15c1.21-3.76,2.39-8.08,3.54-12.26,1.36-5,2.54-9.28,3.47-11.57,1.62-4,3.68-5.71,5.13-6.48l.14-.07.09.13c.09.13,9.15,13.69,9.28,22.64v.06l0,0c-4.32,5.52-8.53,9-13.26,11A1.12,1.12,0,0,1,98.92,60.29Zm-7.53-3.58L92,57c1.65.87,5.49,2.91,7,2.91h0a.9.9,0,0,0,.31,0C103.88,58,108,54.52,112.3,49.08c-.15-8.37-8.19-20.82-9.13-22.25-1.38.78-3.3,2.48-4.82,6.22-.92,2.28-2.15,6.77-3.46,11.54C93.76,48.71,92.59,53,91.39,56.71Z"/>
          <path class="cls-9" d="M109,44.12c-1.72,3.69-6.69,8.22-11.56,10.91,2.79-3.64,8.16-13.09,8.38-18.92C106.75,38.17,109,44.12,109,44.12Z"/>
          <path class="cls-10" d="M105.8,36.11c.28.6.67,1.54,1.08,2.57-.54,4.66-3,8.48-5.64,12,3.61-1.81,5.63-5,7-8.65l.78,2.07c-1.72,3.69-6.69,8.22-11.56,10.91C100.21,51.39,105.58,41.94,105.8,36.11Z"/>
          <path class="cls-8" d="M97.3,54.93c2.72-3.56,8.13-13,8.35-18.83l0-.63.27.57c.94,2,3.16,8,3.18,8l0,.07,0,.07c-1.65,3.55-6.54,8.17-11.61,11l-.67.36Zm8.61-18.2c-.52,5.58-5.17,14-7.91,17.79,4.76-2.79,9.22-7.07,10.81-10.41C108.58,43.5,106.88,39,105.91,36.73Z"/>
          <path class="cls-6" d="M102.55,27.2a10.93,10.93,0,0,1,4.81-2c2.73-.32,6,.48,8.77,4.36,3.45-1.28,9-2,12.83,5.37s5.37,14,8.08,20.7c2.5,6.22,5.75,8.61,5.44,10.67s-6.45,2.84-13.09.31-13-9.44-16.87-14.93c-5.33-7.62-8.15-19.32-8.15-19.32Z"/>
          <path class="cls-11" d="M107.36,25.24c2.73-.32,6,.48,8.77,4.36,3.45-1.28,9-2,12.83,5.37s5.37,14,8.08,20.7a34.9,34.9,0,0,0,3.54,6.54c-6.75-8.43-7.08-15.79-13.09-27.25-3.27-5.37-7.07-5.11-9.42-4.47a69.41,69.41,0,0,1,5.56,9.31c-2.7-2.09-7.34-9.73-11.62-12.42-2.83-1.77-6.06-1.35-9.5-.34A16.7,16.7,0,0,1,107.36,25.24Z"/>
          <path class="cls-7" d="M142.49,66.19a.76.76,0,0,1,0,.15c-.31,2.07-6.45,2.84-13.09.31s-13-9.44-16.87-14.93c-4.5-6.44-7.21-15.78-8-18.53C112.63,50.33,127.18,67.65,142.49,66.19Z"/>
          <path class="cls-8" d="M122.09,37.64s-3-4.3-6.33-8.79l-.24.2C118.88,33.53,122.09,37.64,122.09,37.64Z"/>
          <path class="cls-8" d="M140.47,68.06a5,5,0,0,0,1.29-.53,1.67,1.67,0,0,0,.87-1.16c.16-1.1-.58-2.23-1.72-3.93a36.64,36.64,0,0,1-3.73-6.83c-1-2.4-1.79-4.83-2.6-7.19a91.91,91.91,0,0,0-5.49-13.52c-3.69-7.06-9-6.9-12.9-5.49-3-4.08-6.45-4.61-8.85-4.34a11.65,11.65,0,0,0-5,1.86l.17.27a11.28,11.28,0,0,1,4.83-1.8c2.34-.27,5.74.25,8.63,4.3l.07.1.11,0c3.76-1.4,9-1.62,12.64,5.29a93.11,93.11,0,0,1,5.47,13.48c.8,2.36,1.64,4.8,2.6,7.2a36.27,36.27,0,0,0,3.77,6.89c1.08,1.64,1.8,2.72,1.66,3.69a1.42,1.42,0,0,1-.73.94c-1.9,1.19-7,1.23-12.16-.76-8.11-3.1-14.91-12.16-16.8-14.87a48.91,48.91,0,0,1-4.86-9.22,82.61,82.61,0,0,1-3.41-10,58.74,58.74,0,0,0,3.14,10.16,50.29,50.29,0,0,0,4.89,9.26c1.9,2.72,8.75,11.85,16.94,15C133.85,68.53,138.05,68.72,140.47,68.06Z"/>
          <path class="cls-6" d="M70.53,63.94c-6.49-.7-19.35-7.55-26.9-18.52S32.18,23,31.47,19.46,29,9.13,30.56,8.38s2.65.66,12,3.5,18,10.88,24.52,21.27,9.67,25.6,9.91,27C76,62.06,72.46,64.29,70.53,63.94Z"/>
          <path class="cls-7" d="M74.76,62.46l.37-.28.14-.1c.12-.1.25-.2.36-.31a.39.39,0,0,0,.1-.08A6.26,6.26,0,0,0,77,60.17c-.21-1.28-2.83-13.82-8.12-23.89,1.6,4.91,1.61,11.8-.74,14.52-3.76-5.46-7.26-11.21-11-17.06-4.61-7.44-9.92-13.81-18.06-17.35-2.48-1.06-5.85-2.66-7.27-5.49-.44,4,3.32,7.06,5.14,10.39A123.82,123.82,0,0,0,60.45,51.7C51,48.38,38.4,33.51,32.31,22.56A91.47,91.47,0,0,0,43.63,45.42c7.55,11,20.41,17.82,26.9,18.52a5.77,5.77,0,0,0,3.57-1h0c.18-.1.35-.22.52-.33Z"/>
          <path class="cls-11" d="M31.35,9.66c1-.71,6.75,2.55,10.11,3.6,13.67,4.25,18.21,12.58,26,21.18a8.17,8.17,0,0,0,1.23,1.45c-.51-.94-1-1.86-1.58-2.74C60.62,22.76,52,14.71,42.59,11.88s-10.44-4.25-12-3.5.2,7.54.91,11.08c.12.58.33,1.4.62,2.38C32.15,17.77,30.32,10.7,31.35,9.66Z"/>
          <path class="cls-8" d="M34.74,15.53A5.69,5.69,0,0,1,32.14,12a6.78,6.78,0,0,0,2.78,3.28Z"/>
          <path class="cls-9" d="M34.72,15.33c6.9,3.27,11.86,7.52,17.43,17.34S63,55.06,73.92,61.35c-5,.62-14.6-2.66-23.8-12.3S34.42,24.77,34.72,15.33Z"/>
          <path class="cls-10" d="M52.15,32.67C46.67,23,41.79,18.75,35.08,15.5c10.41,9,17.08,22.33,23.18,34.52C46.76,44,40.44,32.75,35.3,21.43c1.79,8.91,7.42,19.87,14.82,27.62C59.32,58.69,69,62,73.92,61.35,63,55.06,57.73,42.5,52.15,32.67Z"/>
          <path class="cls-8" d="M72.69,61.6c-5,0-13.95-3.26-22.7-12.43-9.11-9.55-15.76-24.1-15.45-33.85v-.27l.24.12c6.45,3,11.62,7,17.52,17.42.9,1.6,1.79,3.24,2.72,5C59.68,46.19,64.94,56,74,61.19l.46.27-.53.06A9.85,9.85,0,0,1,72.69,61.6Zm-37.8-46c-.18,9.66,6.38,23.92,15.35,33.32C58.92,58,67.76,61.24,72.69,61.24c.23,0,.45,0,.67,0-8.87-5.34-14-15-18.64-23.48-.93-1.74-1.82-3.38-2.72-5C46.23,22.59,41.15,18.62,34.89,15.6Z"/>
          <path class="cls-8" d="M71,64.16a3.28,3.28,0,0,1-.46,0c-6.44-.7-19.42-7.56-27-18.6-7.43-10.8-11.42-22.2-12.18-26-.11-.55-.25-1.19-.4-1.86-1-4.77-1.78-8.77-.42-9.41,1-.47,1.77-.16,4,.7,1.65.63,4.14,1.58,8.13,2.79,9,2.7,17.71,10.28,24.62,21.34S77.17,60,77.19,60.14v.06l0,0C76.21,62,73.09,64.16,71,64.16ZM31.41,8.36a1.71,1.71,0,0,0-.78.18c-1.21.57-.11,5.65.62,9,.15.68.28,1.32.39,1.87.77,3.81,4.73,15.14,12.13,25.9,7.54,11,20.4,17.75,26.78,18.45a2.73,2.73,0,0,0,.41,0c1.94,0,4.92-2,5.87-3.66-.21-1.09-3.28-16.35-9.87-26.9-6.87-11-15.54-18.52-24.42-21.2-4-1.2-6.5-2.16-8.16-2.79A9.93,9.93,0,0,0,31.41,8.36Z"/>
          <path class="cls-6" d="M108.18,65.24c-6.85-9-17.63-10.12-23.73-9.84-6.29.28-16.9.76-23.77,9.81C54,74,52.11,86.65,52.66,94.47c4.87,1.45,30.86,1.21,31.76,1.2v0s26.83.27,31.79-1.2C116.75,86.69,114.85,74,108.18,65.24Z"/>
          <path class="cls-12" d="M74,82.14c-.71,6.63-4.93,11.62-9.42,11.14S57,87,57.7,80.4s5.47-16.3,10-15.82S74.68,75.51,74,82.14Z"/>
          <path class="cls-13" d="M70.31,72.93a5.27,5.27,0,0,0-3.52-1.49,4.06,4.06,0,0,0-3.25,1.33,3.57,3.57,0,0,1,3.25-1.68A4.52,4.52,0,0,1,70.31,72.93Z"/>
          <path d="M72.86,83.23c-.6,5.54-4.27,9.69-8.21,9.27S58,87.25,58.6,81.71s4.26-9.69,8.2-9.26S73.45,77.7,72.86,83.23Z"/>
          <path class="cls-3" d="M72.41,83.58c-.57,5.32-4,9.32-7.74,8.92s-6.24-5-5.67-10.36,4-9.32,7.74-8.92S73,78.25,72.41,83.58Z"/>
          <path class="cls-14" d="M59.14,81.18c-.06.32-.1.63-.14,1-.57,5.33,2,10,5.67,10.36s7.17-3.6,7.74-8.92c0-.38.06-.74.07-1.11C68.59,86.09,61.65,85.6,59.14,81.18Z"/>
          <path class="cls-15" d="M69.36,83.89c-.33,3-2.31,5.32-4.42,5.1s-3.57-2.88-3.24-5.92S64,77.74,66.12,78,69.68,80.85,69.36,83.89Z"/>
          <path d="M68.05,84.26c-.22,2-1.52,3.5-2.91,3.35S62.8,85.72,63,83.72s1.52-3.5,2.91-3.35S68.26,82.26,68.05,84.26Z"/>
          <path class="cls-3" d="M67,81.82a1.51,1.51,0,0,1-3,0,1.51,1.51,0,0,1,3,0Z"/>
          <path class="cls-3" d="M67.59,85.77a.56.56,0,0,1-.57.56.56.56,0,1,1,0-1.12A.56.56,0,0,1,67.59,85.77Z"/>
          <path d="M65.23,89.18l-.31,0c-2.21-.23-3.73-3-3.4-6.11s2.4-5.49,4.62-5.26,3.73,3,3.39,6.12C69.22,86.86,67.33,89.18,65.23,89.18Zm.6-11.05c-1.92,0-3.66,2.18-4,5-.31,2.94,1.07,5.5,3.09,5.72s3.91-2,4.22-4.94-1.07-5.51-3.08-5.72Z"/>
          <path d="M65.18,92.7l-.53,0a6.07,6.07,0,0,1-4.57-3.43,12.31,12.31,0,0,1-1.26-7.13C59.37,77,62.62,73,66.23,73l.53,0a6.06,6.06,0,0,1,4.57,3.42,12.27,12.27,0,0,1,1.25,7.14C72,88.7,68.78,92.7,65.18,92.7Zm1-19.33c-3.43,0-6.52,3.86-7.05,8.79a11.94,11.94,0,0,0,1.21,6.92,5.69,5.69,0,0,0,4.3,3.24,4,4,0,0,0,.49,0c3.43,0,6.52-3.86,7-8.79A12,12,0,0,0,71,76.63a5.74,5.74,0,0,0-4.3-3.24Z"/>
          <path class="cls-12" d="M93.11,82.14c.71,6.63,4.92,11.62,9.41,11.14s7.56-6.25,6.85-12.88-5.05-16.3-9.54-15.82S92.4,75.51,93.11,82.14Z"/>
          <path class="cls-13" d="M96.76,72.93a5.34,5.34,0,0,1,3.53-1.49,4.05,4.05,0,0,1,3.24,1.33,3.57,3.57,0,0,0-3.25-1.68A4.52,4.52,0,0,0,96.76,72.93Z"/>
          <path d="M94.22,83.23c.59,5.54,4.26,9.69,8.2,9.27s6.65-5.25,6-10.79-4.26-9.69-8.2-9.26S93.62,77.7,94.22,83.23Z"/>
          <path class="cls-3" d="M94.66,83.58c.57,5.32,4,9.32,7.74,8.92s6.24-5,5.67-10.36-4-9.32-7.73-8.92S94.09,78.25,94.66,83.58Z"/>
          <path class="cls-14" d="M107.93,81.18c.06.32.11.63.14,1,.57,5.33-2,10-5.67,10.36s-7.17-3.6-7.74-8.92c0-.38-.06-.74-.07-1.11C98.48,86.09,105.42,85.6,107.93,81.18Z"/>
          <path class="cls-15" d="M97.72,83.89c.32,3,2.3,5.32,4.41,5.1s3.57-2.88,3.24-5.92-2.3-5.33-4.42-5.1S97.39,80.85,97.72,83.89Z"/>
          <path d="M99,84.26c.21,2,1.51,3.5,2.9,3.35s2.35-1.89,2.13-3.89-1.51-3.5-2.9-3.35S98.81,82.26,99,84.26Z"/>
          <path class="cls-3" d="M99.64,81.82a1.51,1.51,0,0,0,3,0,1.51,1.51,0,0,0-3,0Z"/>
          <path class="cls-3" d="M102.78,85.33a.56.56,0,0,0,.57.56.56.56,0,1,0,0-1.12A.56.56,0,0,0,102.78,85.33Z"/>
          <path d="M97.54,83.91c-.34-3.14,1.19-5.88,3.4-6.12s4.28,2.16,4.61,5.26-1.19,5.88-3.4,6.11l-.31,0C99.75,89.18,97.86,86.86,97.54,83.91ZM101,78.15c-2,.21-3.39,2.78-3.08,5.72s2.2,5.15,4.23,4.94,3.39-2.78,3.08-5.72c-.3-2.78-2-5-4-5Z"/>
          <path d="M94.49,83.6a12.27,12.27,0,0,1,1.25-7.14A6.07,6.07,0,0,1,100.32,73a4.53,4.53,0,0,1,.52,0c3.61,0,6.86,4,7.41,9.11A12.24,12.24,0,0,1,107,89.25a6.07,6.07,0,0,1-4.57,3.43l-.53,0C98.29,92.7,95,88.7,94.49,83.6Zm5.86-10.21a5.75,5.75,0,0,0-4.3,3.24,12,12,0,0,0-1.21,6.93c.53,4.93,3.63,8.79,7,8.79a3.91,3.91,0,0,0,.49,0,5.69,5.69,0,0,0,4.3-3.24,11.86,11.86,0,0,0,1.22-6.92c-.53-4.93-3.63-8.79-7.06-8.79Z"/>
          <path class="cls-7" d="M108.18,65.24A23.58,23.58,0,0,0,99,58c9.08,7.53,13.66,20.38,10.65,37.33a36.69,36.69,0,0,0,6.56-.78C116.75,86.69,114.85,74,108.18,65.24Z"/>
          <path class="cls-8" d="M89.42,95.91h0c-3,0-5,0-5,0h-.15v0c-.56,0-2.35,0-4.83,0-8.48,0-23.24-.16-26.82-1.22l-.11,0v-.13c-.59-8.57,1.67-21,8.07-29.41C67.48,56,78.1,55.5,84.44,55.21c.54,0,1.09,0,1.63,0,5.49,0,15.67,1.29,22.23,9.94,6.4,8.43,8.66,20.84,8.06,29.4v.14l-.11,0C112.66,95.75,97.9,95.91,89.42,95.91Zm-4.84-.39c.52,0,2.34,0,4.84,0,8.38,0,22.91-.15,26.64-1.18.56-8.48-1.69-20.69-8-29-6.48-8.55-16.57-9.83-22-9.83-.54,0-1.08,0-1.62,0-6.29.28-16.83.75-23.65,9.75-6.3,8.3-8.55,20.52-8,29,3.74,1,18.26,1.18,26.64,1.18,2.82,0,4.75,0,5,0h.16Z"/>
          <path class="cls-16" d="M62.38,69.27c1.35-4.49,5.45-5.17,7.05-4,.62.58.49,2,.33,2.82C68.3,66,65.3,66.58,62.38,69.27Z"/>
          <path d="M62,69.84l.19-.62c1-3.42,3.58-4.64,5.45-4.64a3.26,3.26,0,0,1,1.88.53c.78.73.5,2.47.39,3l-.08.4-.24-.33A2.71,2.71,0,0,0,67.31,67a7.65,7.65,0,0,0-4.81,2.4Zm5.64-4.9a5.42,5.42,0,0,0-4.9,3.76,7.51,7.51,0,0,1,4.55-2,3.08,3.08,0,0,1,2.34,1,2.91,2.91,0,0,0-.34-2.27A2.9,2.9,0,0,0,67.66,64.94Z"/>
          <path class="cls-16" d="M105.11,69.27c-1.34-4.49-5.44-5.17-7-4-.62.58-.48,2-.33,2.82C99.2,66,102.19,66.58,105.11,69.27Z"/>
          <path d="M105,69.41a7.63,7.63,0,0,0-4.81-2.4,2.71,2.71,0,0,0-2.3,1.16l-.24.33-.08-.4c-.1-.52-.39-2.26.4-3a3.23,3.23,0,0,1,1.87-.53c1.87,0,4.43,1.22,5.45,4.64l.19.62Zm-6.81-4a3,3,0,0,0-.34,2.27,3.08,3.08,0,0,1,2.34-1,7.49,7.49,0,0,1,4.55,2,5.41,5.41,0,0,0-4.9-3.76A2.93,2.93,0,0,0,98.18,65.38Z"/>
          <path class="cls-17" d="M75.35,122.81a8.23,8.23,0,0,1-2-4.34,9.84,9.84,0,0,0,2.29,4.11Z"/>
          <path class="cls-17" d="M91.58,122.82l-.22-.26A8.16,8.16,0,0,0,94,118.38,7.06,7.06,0,0,1,91.58,122.82Z"/>
          <path class="cls-6" d="M83.63,51.44a15.55,15.55,0,0,1,13,6.77c2.48,3.85.79,7.74-.84,8.76-.67,2.21-1.52,5.93-6.82,8-2.21,1.55-4.2,3.9-4.42,5.4a11.9,11.9,0,0,0-4.12-4.82c-2.65-.09-6-1.86-7.17-7.13a7,7,0,0,1-2.92-9.5C72.33,54.44,76.21,51.7,83.63,51.44Z"/>
          <path class="cls-7" d="M96.58,58.21a14.06,14.06,0,0,0-3.84-3.93,15.1,15.1,0,0,1,3,7.78c-.71-1.77-2.48-2.84-3.89-3.54C93,62.06,95.43,66,92.6,69.14a8.07,8.07,0,0,0-3.19-6c2.11,9.85-3.61,10.12-5,13.69-1.9-3.19-5.35-3.32-6.35-9.8-.66,2.13-1.13,3.68-.77,5.45C74.12,70,74.19,63.12,75.6,59.22c-2.83.71-3.18,3.54-4.24,5.67-.51-1.18-1.25-2.28-1.82-3.42a7,7,0,0,0,3.67,6.91c1.2,5.27,4.52,7,7.17,7.13a11.9,11.9,0,0,1,4.12,4.82c.22-1.5,2.21-3.85,4.42-5.4,5.3-2,6.15-5.75,6.82-8C97.37,66,99.06,62.06,96.58,58.21Z"/>
          <path class="cls-8" d="M73.18,69a10.71,10.71,0,0,1,1.14-7.43,11.78,11.78,0,0,0-.8,7.35Z"/>
          <path class="cls-8" d="M80.46,75.77a5.61,5.61,0,0,1-2.22-5.06,6.09,6.09,0,0,0,2.43,4.78Z"/>
          <path class="cls-8" d="M88.61,75.38l-.23-.27A7.71,7.71,0,0,0,90.67,66,7.56,7.56,0,0,1,88.61,75.38Z"/>
          <path class="cls-8" d="M95.79,67.42l-.35-.08c.89-3.75-1.91-6.88-1.94-6.91S96.72,63.49,95.79,67.42Z"/>
          <path class="cls-8" d="M84.6,80.88l-.26-.46a12,12,0,0,0-4-4.74c-1.4-.06-5.78-.77-7.27-7.18a7.21,7.21,0,0,1-2.93-9.7c2.25-4.89,6.54-7.29,13.49-7.54a15.79,15.79,0,0,1,13.11,6.85,7.51,7.51,0,0,1,1.11,5.74,5.39,5.39,0,0,1-2,3.23l-.08.27c-.68,2.3-1.7,5.77-6.8,7.74-2.23,1.56-4.13,3.87-4.34,5.27Zm-1-29.27c-6.79.25-11,2.58-13.17,7.34a6.87,6.87,0,0,0,2.85,9.28l.07,0,0,.07c1.43,6.32,5.72,7,7,7h0l0,0a11.85,11.85,0,0,1,4,4.49,12.09,12.09,0,0,1,4.39-5.06l0,0c5-1.91,6-5.29,6.61-7.52l.12-.4,0,0a4.93,4.93,0,0,0,1.85-3,7.16,7.16,0,0,0-1.06-5.47A15.46,15.46,0,0,0,83.62,51.61Z"/>
          <g>
            <path class="cls-6" d="M18.5,87.85c-.38-4.07-1.28-10.58,4-10.41,5.86.18,5.44,8.69,4.58,12.13C25.59,89.22,18.5,87.85,18.5,87.85Z"/>
            <path class="cls-7" d="M20.91,77.64c-3.48,1.12-2.75,6.62-2.41,10.21l4.56.9C23.06,82.18,18.78,80.24,20.91,77.64Z"/>
            <path class="cls-9" d="M24.79,81.71A1.92,1.92,0,0,1,23,83.78a2,2,0,0,1-2.14-1.73,2,2,0,0,1,3.93-.34Z"/>
            <path class="cls-18" d="M24.64,82a1.81,1.81,0,0,0-3.55-.69A2,2,0,0,1,24.64,82Z"/>
            <path class="cls-10" d="M21,81.16a2,2,0,0,0-.15.89,2,2,0,0,0,3.93.07A2.29,2.29,0,0,1,21,81.16Z"/>
            <path class="cls-19" d="M23,84a2.14,2.14,0,0,1-2.34-1.9,2.1,2.1,0,0,1,2-2.26A2.14,2.14,0,0,1,25,81.7,2.1,2.1,0,0,1,23,84Zm-.35-3.8A1.75,1.75,0,0,0,21.05,82,1.78,1.78,0,0,0,23,83.6a1.76,1.76,0,0,0,1.62-1.87A1.78,1.78,0,0,0,22.67,80.16Z"/>
            <path class="cls-11" d="M22.83,77.46c4,1.78,4.19,7.44,3.1,11.86l1.17.25C27.94,86.19,28.36,77.94,22.83,77.46Z"/>
            <path class="cls-8" d="M27.24,89.79l-.18,0c-1.49-.34-8.53-1.7-8.6-1.72l-.14,0-.07-.75c-.28-2.94-.67-7,1.14-8.88a3.92,3.92,0,0,1,3.14-1.12A4.57,4.57,0,0,1,26.14,79c2.11,2.67,1.84,7.8,1.15,10.61ZM18.67,87.7c1,.19,6.62,1.28,8.29,1.65.65-2.76.86-7.61-1.12-10.11a4.22,4.22,0,0,0-3.32-1.62,3.52,3.52,0,0,0-2.85,1c-1.7,1.79-1.32,5.73-1,8.6Z"/>
            <path class="cls-6" d="M20.77,87.85c-.14-5.44-2.69-9.32-6-8.5S11.31,87.85,13.2,91C14.48,92.33,20.77,87.85,20.77,87.85Z"/>
            <path class="cls-7" d="M14.7,79.37c-3.29.88-3.38,8.5-1.5,11.59.67.72,2.74-.18,4.54-1.19C15.41,87,12.6,82.16,14.7,79.37Z"/>
            <path class="cls-9" d="M17.54,83.46a1.91,1.91,0,0,1-1.61,2.2,2,2,0,0,1-2.28-1.55,1.91,1.91,0,0,1,1.62-2.2A2,2,0,0,1,17.54,83.46Z"/>
            <path class="cls-18" d="M17.42,83.79a1.82,1.82,0,0,0-3.61-.42A2,2,0,0,1,17.42,83.79Z"/>
            <path class="cls-10" d="M13.73,83.21a1.82,1.82,0,0,0-.08.9,2,2,0,0,0,2.28,1.55,1.92,1.92,0,0,0,1.64-1.79A2.28,2.28,0,0,1,13.73,83.21Z"/>
            <path class="cls-19" d="M16,85.85a2.16,2.16,0,0,1-2.49-1.71,2.09,2.09,0,0,1,1.76-2.41,2.15,2.15,0,0,1,2.5,1.7A2.11,2.11,0,0,1,16,85.85Zm-.66-3.76a1.74,1.74,0,0,0-1.46,2,1.78,1.78,0,0,0,2.06,1.4,1.74,1.74,0,0,0,1.46-2A1.78,1.78,0,0,0,15.3,82.09Z"/>
            <path class="cls-11" d="M15.28,79.26c3.36,1.33,4.23,5.39,4.88,9,.38-.25.61-.42.61-.42C20.63,82.71,18.35,79,15.28,79.26Z"/>
            <path class="cls-8" d="M14,91.41h0a1.18,1.18,0,0,1-.89-.33l0,0c-1.45-2.38-1.71-7-.54-9.72a3.42,3.42,0,0,1,2.2-2.16,4.22,4.22,0,0,1,.93-.11c2.95,0,5.19,3.69,5.33,8.79v.09l-.08.06C20.69,88.14,16.08,91.41,14,91.41Zm-.59-.56A.78.78,0,0,0,14,91c1.86,0,6-2.84,6.63-3.28-.16-4.84-2.23-8.34-4.95-8.34a3.46,3.46,0,0,0-.84.11,3,3,0,0,0-1.94,1.94C11.75,84,12,88.59,13.36,90.85Z"/>
            <path class="cls-6" d="M57.27,142.71c-7.85-2.74-19.1-14.49-23.07-19.52-5.35-4.39-10.26-13-12.39-19.52-5.63-2.06-8.67-3.2-11.32-7s-3.15-9-.82-10.12,4.53,1.6,5.28,3.52c1.61-2.33,7-5.94,11.82-2.1.24-2.7,1.23-7.5,5.49-6.22s3.7,9.86-.14,15.41A80.4,80.4,0,0,1,45.36,111c6.62,2,21.24,6.07,26.32,12.38C67.2,128.35,57.27,142.71,57.27,142.71Z"/>
            <path class="cls-11" d="M14.32,92.8a9.3,9.3,0,0,1,4-4.52,7.66,7.66,0,0,1,10.14,2c-2.14-4.06-6.71-4.83-10.36-3A6.25,6.25,0,0,0,14.32,92.8Z"/>
            <path class="cls-7" d="M39.68,125.7a14.52,14.52,0,0,0,8.7-.73c-11.35-1.46-18.53-10.6-23.83-19.75a13.06,13.06,0,0,0,5.3-1.82C19,103.07,9.8,96,9.26,86.83c-1.85,1.5-1.25,6.32,1.23,9.86,2.65,3.78,5.69,4.92,11.32,7,2.13,6.54,7,15.13,12.39,19.52,4,5,15.22,16.78,23.07,19.52,0,0,5.82-8.41,10.55-14.57C57.84,135.7,48.11,132.6,39.68,125.7Z"/>
            <path class="cls-9" d="M13.16,90.4a1.92,1.92,0,0,1-1.61,2.2A2,2,0,0,1,9.27,91a1.92,1.92,0,0,1,1.61-2.2A2,2,0,0,1,13.16,90.4Z"/>
            <path class="cls-18" d="M13,90.72a1.88,1.88,0,0,0-2.16-1.88,1.89,1.89,0,0,0-1.45,1.47A2,2,0,0,1,13,90.72Z"/>
            <path class="cls-10" d="M9.35,90.14a1.83,1.83,0,0,0-.08.9,2,2,0,0,0,2.28,1.56,1.94,1.94,0,0,0,1.64-1.8C12.22,92.24,9.65,91.55,9.35,90.14Z"/>
            <path class="cls-19" d="M11.58,92.78a2.16,2.16,0,0,1-2.49-1.71,2.1,2.1,0,0,1,1.76-2.41,2.16,2.16,0,0,1,2.5,1.71A2.1,2.1,0,0,1,11.58,92.78ZM10.92,89a1.73,1.73,0,0,0-1.46,2,1.78,1.78,0,0,0,2.06,1.41,1.72,1.72,0,0,0,1.45-2A1.77,1.77,0,0,0,10.92,89Z"/>
            <path class="cls-9" d="M27,94.44a4,4,0,0,1-4.26,3.71,3.75,3.75,0,1,1,0-7.43A4,4,0,0,1,27,94.44Z"/>
            <path class="cls-18" d="M26.87,94.19a3.87,3.87,0,0,0-4.12-3.47,4.34,4.34,0,0,0-3.82,2.1C22.08,90.72,25.1,90.82,26.87,94.19Z"/>
            <path class="cls-10" d="M23.23,96.28c-2,0-4.71-1.45-4.11-3.76a3.33,3.33,0,0,0-.62,1.92,4,4,0,0,0,4.25,3.71A4,4,0,0,0,27,94.44a3.82,3.82,0,0,0-.07-.68C26.75,95.07,25.76,96.29,23.23,96.28Z"/>
            <path class="cls-19" d="M22.75,98.34a3.93,3.93,0,1,1,0-7.8,3.93,3.93,0,1,1,0,7.8Zm0-7.44a3.57,3.57,0,1,0,0,7.07,3.57,3.57,0,1,0,0-7.07Z"/>
            <path class="cls-9" d="M32.8,86a2,2,0,1,1-2-1.9A1.94,1.94,0,0,1,32.8,86Z"/>
            <path class="cls-18" d="M32.62,86.26a1.85,1.85,0,0,0-1.8-2.2,1.89,1.89,0,0,0-1.68,1.2A2,2,0,0,1,32.62,86.26Z"/>
            <path class="cls-10" d="M29.08,85.09a1.85,1.85,0,0,0-.23.87,2,2,0,0,0,3.9.41A2.27,2.27,0,0,1,29.08,85.09Z"/>
            <path class="cls-19" d="M30.82,88.05A2.09,2.09,0,1,1,33,86,2.12,2.12,0,0,1,30.82,88.05Zm0-3.81A1.73,1.73,0,1,0,32.61,86,1.75,1.75,0,0,0,30.82,84.24Z"/>
            <path class="cls-8" d="M33.54,122.87l.24-.28c2.52,2,6.87,2.49,6.92,2.5S36.15,124.92,33.54,122.87Z"/>
            <path class="cls-8" d="M46.81,115.92a15.09,15.09,0,0,0-2.09-5.45l.31-.2A12,12,0,0,1,46.81,115.92Z"/>
            <path class="cls-8" d="M21.37,103.7l.1-.35a15.44,15.44,0,0,0,3.63.53A8.87,8.87,0,0,1,21.37,103.7Z"/>
            <path class="cls-8" d="M30.42,98.62a9,9,0,0,0,1.8-1.93l.32.2A5.32,5.32,0,0,1,30.42,98.62Z"/>
            <path class="cls-8" d="M28.44,90.24a10.42,10.42,0,0,0-2.39-2.54l.22-.3A7.54,7.54,0,0,1,28.44,90.24Z"/>
            <path class="cls-8" d="M14.32,92.8a5,5,0,0,1,.89-3.35l.29.25A6,6,0,0,0,14.32,92.8Z"/>
            <path class="cls-8" d="M57.35,142.93l-.14-.05c-8-2.77-19.21-14.58-23.15-19.56-5.41-4.45-10.32-13.16-12.4-19.51-5.56-2-8.63-3.17-11.32-7-1.88-2.67-2.78-6.25-2.15-8.53a2.71,2.71,0,0,1,1.4-1.85,2.76,2.76,0,0,1,1.19-.27c1.93,0,3.52,2,4.22,3.58a9.65,9.65,0,0,1,7.14-3.6,7.45,7.45,0,0,1,4.48,1.52c.26-2.49,1.18-6.26,4.31-6.26a4.66,4.66,0,0,1,1.38.22,4.05,4.05,0,0,1,2.61,2.7c1.24,3.38.14,8.87-2.55,12.84a80.29,80.29,0,0,1,13.11,13.75l.7.2c6.73,2,20.72,6.1,25.65,12.22l.09.11-.1.12c-4.42,4.87-14.29,19.13-14.39,19.27ZM10.78,86.5a2.23,2.23,0,0,0-2.22,1.86C8,90.54,8.83,94,10.65,96.59c2.64,3.77,5.69,4.89,11.23,6.91l.08,0,0,.08c2.05,6.32,7,15,12.33,19.44l0,0c3.88,4.91,15,16.57,22.85,19.41,1-1.39,10-14.33,14.23-19.08-4.93-6-18.71-10-25.36-12l-.83-.24,0-.06A79.09,79.09,0,0,0,32,97.32l-.14-.1.1-.14c2.65-3.83,3.8-9.39,2.6-12.66A3.64,3.64,0,0,0,32.2,82a4.32,4.32,0,0,0-1.27-.21c-3,0-3.76,3.93-4,6.27l0,.34-.28-.22a7.16,7.16,0,0,0-4.51-1.64,9.36,9.36,0,0,0-7,3.7l-.2.3-.13-.33C14.22,88.74,12.64,86.5,10.78,86.5Z"/>
          </g>
          <g>
            <path class="cls-6" d="M145,89.26c.38-4.07,1.28-10.58-4-10.42-5.86.19-5.43,8.69-4.58,12.14C137.9,90.63,145,89.26,145,89.26Z"/>
            <path class="cls-7" d="M142.58,79.05c3.48,1.12,2.75,6.61,2.41,10.21l-4.56.89C140.43,83.59,144.71,81.64,142.58,79.05Z"/>
            <path class="cls-9" d="M138.7,83.12a1.92,1.92,0,0,0,1.79,2.06,2,2,0,0,0,2.14-1.73,2,2,0,0,0-3.93-.33Z"/>
            <path class="cls-18" d="M138.85,83.43a1.86,1.86,0,0,1,2-2,1.88,1.88,0,0,1,1.57,1.34A2,2,0,0,0,138.85,83.43Z"/>
            <path class="cls-10" d="M142.48,82.56a1.8,1.8,0,0,1,.15.89,2,2,0,0,1-3.92.07C139.79,84.88,142.29,84,142.48,82.56Z"/>
            <path class="cls-19" d="M138.51,83.1a2.16,2.16,0,1,1,2,2.27A2.11,2.11,0,0,1,138.51,83.1Zm.38,0A1.74,1.74,0,0,0,140.51,85a1.78,1.78,0,0,0,1.93-1.56,1.74,1.74,0,0,0-1.62-1.87A1.76,1.76,0,0,0,138.89,83.13Z"/>
            <path class="cls-11" d="M140.66,78.87c-4,1.77-4.19,7.43-3.1,11.86l-1.17.25C135.55,87.6,135.13,79.34,140.66,78.87Z"/>
            <path class="cls-8" d="M136.2,91c-.69-2.8-1-7.94,1.15-10.6A4.57,4.57,0,0,1,141,78.66a4,4,0,0,1,3.14,1.12c1.81,1.92,1.42,6,1.14,8.89l-.07.74-.14,0c-.07,0-7.11,1.37-8.6,1.72l-.18,0Zm8.66-2.39c.28-2.87.66-6.8-1-8.6A3.51,3.51,0,0,0,141,79a4.19,4.19,0,0,0-3.33,1.61c-2,2.51-1.76,7.35-1.12,10.12,1.67-.37,7.33-1.47,8.29-1.66Z"/>
            <path class="cls-6" d="M142.72,89.26c.15-5.44,2.69-9.33,6-8.51s3.43,8.51,1.54,11.62C149,93.74,142.72,89.26,142.72,89.26Z"/>
            <path class="cls-7" d="M148.8,80.77c3.29.89,3.37,8.5,1.49,11.6-.67.72-2.73-.18-4.54-1.2C148.08,88.36,150.89,83.56,148.8,80.77Z"/>
            <path class="cls-9" d="M146,84.87a1.92,1.92,0,0,0,1.61,2.2,2,2,0,0,0,2.28-1.56,1.92,1.92,0,0,0-1.61-2.2A2,2,0,0,0,146,84.87Z"/>
            <path class="cls-18" d="M146.07,85.19a1.82,1.82,0,0,1,3.61-.41A2,2,0,0,0,146.07,85.19Z"/>
            <path class="cls-10" d="M149.76,84.61a1.83,1.83,0,0,1,.08.9,2,2,0,0,1-2.28,1.56,1.93,1.93,0,0,1-1.64-1.8C146.89,86.71,149.46,86,149.76,84.61Z"/>
            <path class="cls-19" d="M145.76,84.84a2.16,2.16,0,0,1,2.5-1.71A2.1,2.1,0,0,1,150,85.54a2.16,2.16,0,0,1-2.49,1.71A2.1,2.1,0,0,1,145.76,84.84Zm.38.06a1.72,1.72,0,0,0,1.45,2,1.78,1.78,0,0,0,2.06-1.41,1.73,1.73,0,0,0-1.46-2A1.77,1.77,0,0,0,146.14,84.9Z"/>
            <path class="cls-11" d="M148.21,80.66c-3.36,1.33-4.23,5.4-4.87,9l-.62-.42C142.86,84.11,145.14,80.36,148.21,80.66Z"/>
            <path class="cls-8" d="M142.61,89.4l-.08-.05v-.1c.14-5.09,2.38-8.79,5.34-8.79a3.69,3.69,0,0,1,.92.12,3.4,3.4,0,0,1,2.2,2.15c1.17,2.71.91,7.35-.54,9.73l0,0a1.18,1.18,0,0,1-.89.32h0C147.42,92.81,142.81,89.54,142.61,89.4Zm8-6.53a3,3,0,0,0-1.94-1.94,3.42,3.42,0,0,0-.83-.1c-2.73,0-4.8,3.5-5,8.34.62.43,4.76,3.27,6.62,3.27a.86.86,0,0,0,.6-.18A12.34,12.34,0,0,0,150.64,82.87Z"/>
            <path class="cls-6" d="M106.22,144.11c7.85-2.74,19.1-14.49,23.07-19.52,5.35-4.38,10.27-13,12.39-19.52,5.63-2,8.67-3.2,11.32-7s3.15-9,.82-10.12-4.52,1.6-5.28,3.52c-1.61-2.33-6.95-6-11.82-2.11-.24-2.69-1.23-7.49-5.49-6.21s-3.7,9.86.15,15.4a79.7,79.7,0,0,0-13.24,13.87c-6.62,2-21.25,6.06-26.33,12.37C96.29,129.76,106.22,144.11,106.22,144.11Z"/>
            <path class="cls-11" d="M149.17,94.21a9.3,9.3,0,0,0-4-4.53,7.69,7.69,0,0,0-10.15,2c2.14-4.06,6.71-4.83,10.36-3A6.22,6.22,0,0,1,149.17,94.21Z"/>
            <path class="cls-7" d="M123.81,127.11a14.52,14.52,0,0,1-8.7-.73c11.35-1.47,18.54-10.61,23.83-19.75a13,13,0,0,1-5.29-1.83c10.83-.33,20-7.44,20.58-16.56,1.85,1.49,1.25,6.32-1.23,9.86-2.65,3.77-5.69,4.92-11.32,7-2.12,6.54-7,15.14-12.39,19.52-4,5-15.22,16.78-23.07,19.52,0,0-5.81-8.4-10.55-14.56C105.65,137.1,115.38,134,123.81,127.11Z"/>
            <path class="cls-9" d="M150.33,91.8a1.91,1.91,0,0,0,1.61,2.2,2,2,0,0,0,2.28-1.55,1.91,1.91,0,0,0-1.61-2.2A2,2,0,0,0,150.33,91.8Z"/>
            <path class="cls-18" d="M150.45,92.13a1.88,1.88,0,0,1,2.16-1.88,1.85,1.85,0,0,1,1.45,1.46A2,2,0,0,0,150.45,92.13Z"/>
            <path class="cls-10" d="M154.15,91.55a1.93,1.93,0,0,1,.07.9A2,2,0,0,1,151.94,94a1.91,1.91,0,0,1-1.63-1.79C151.27,93.64,153.84,93,154.15,91.55Z"/>
            <path class="cls-19" d="M150.15,91.77a2.15,2.15,0,0,1,2.49-1.7,2.1,2.1,0,0,1,1.77,2.41,2.16,2.16,0,0,1-2.5,1.7A2.09,2.09,0,0,1,150.15,91.77Zm.37.06a1.72,1.72,0,0,0,1.45,2,1.78,1.78,0,0,0,2.06-1.4,1.72,1.72,0,0,0-1.45-2A1.78,1.78,0,0,0,150.52,91.83Z"/>
            <path class="cls-9" d="M136.48,95.84a4.3,4.3,0,1,0,4.26-3.71A4,4,0,0,0,136.48,95.84Z"/>
            <path class="cls-18" d="M136.62,95.59a3.86,3.86,0,0,1,4.12-3.46,4.33,4.33,0,0,1,3.83,2.1C141.42,92.13,138.39,92.23,136.62,95.59Z"/>
            <path class="cls-10" d="M140.27,97.68c2,0,4.7-1.45,4.11-3.76a3.42,3.42,0,0,1,.61,1.92,4.29,4.29,0,0,1-8.51,0,3.08,3.08,0,0,1,.08-.68C136.74,96.47,137.74,97.69,140.27,97.68Z"/>
            <path class="cls-19" d="M136.29,95.84a4.48,4.48,0,1,1,4.45,3.9A4.21,4.21,0,0,1,136.29,95.84Zm.38,0a4.11,4.11,0,1,0,4.07-3.53A3.84,3.84,0,0,0,136.67,95.84Z"/>
            <path class="cls-9" d="M130.7,87.37a2,2,0,1,0,2-1.91A1.94,1.94,0,0,0,130.7,87.37Z"/>
            <path class="cls-18" d="M130.87,87.67a1.86,1.86,0,0,1,1.8-2.21,1.89,1.89,0,0,1,1.68,1.21A2,2,0,0,0,130.87,87.67Z"/>
            <path class="cls-10" d="M134.41,86.5a1.82,1.82,0,0,1,.23.87,2,2,0,0,1-3.9.4A2.27,2.27,0,0,0,134.41,86.5Z"/>
            <path class="cls-19" d="M130.51,87.37a2.16,2.16,0,1,1,2.16,2.09A2.13,2.13,0,0,1,130.51,87.37Zm.38,0a1.78,1.78,0,1,0,1.78-1.72A1.75,1.75,0,0,0,130.89,87.37Z"/>
            <path class="cls-8" d="M130,124.28l-.24-.29c-2.52,2-6.87,2.5-6.91,2.5S127.34,126.32,130,124.28Z"/>
            <path class="cls-8" d="M116.68,117.32a15.09,15.09,0,0,1,2.09-5.45l-.31-.19A11.91,11.91,0,0,0,116.68,117.32Z"/>
            <path class="cls-8" d="M142.12,105.11l-.1-.35a16,16,0,0,1-3.63.53A8.87,8.87,0,0,0,142.12,105.11Z"/>
            <path class="cls-8" d="M133.07,100a8.58,8.58,0,0,1-1.8-1.92l-.32.19A5.29,5.29,0,0,0,133.07,100Z"/>
            <path class="cls-8" d="M135.05,91.64a10.61,10.61,0,0,1,2.39-2.54l-.22-.3A7.61,7.61,0,0,0,135.05,91.64Z"/>
            <path class="cls-8" d="M149.17,94.21a5,5,0,0,0-.89-3.35l-.28.24A6,6,0,0,1,149.17,94.21Z"/>
            <path class="cls-8" d="M106.06,144.22c-.1-.15-10-14.41-14.39-19.28l-.1-.11.1-.12c4.92-6.12,18.92-10.23,25.64-12.21l.71-.21a79.43,79.43,0,0,1,13.1-13.74c-2.69-4-3.78-9.46-2.55-12.85a4.07,4.07,0,0,1,2.61-2.7,5.08,5.08,0,0,1,1.39-.22c3.13,0,4,3.78,4.3,6.26a7.53,7.53,0,0,1,4.48-1.51,9.6,9.6,0,0,1,7.14,3.59c.71-1.54,2.29-3.58,4.23-3.58a2.59,2.59,0,0,1,2.58,2.13c.63,2.27-.27,5.86-2.14,8.53-2.7,3.85-5.77,5-11.32,7-2.09,6.35-7,15.06-12.41,19.51-3.93,5-15.2,16.79-23.15,19.57l-.13,0Zm42.66-52.66-.13.33-.21-.29a9.37,9.37,0,0,0-7-3.71,7.17,7.17,0,0,0-4.51,1.65l-.28.22,0-.35c-.2-2.34-1-6.26-4-6.26a4.65,4.65,0,0,0-1.28.2,3.68,3.68,0,0,0-2.36,2.47c-1.2,3.27-.05,8.83,2.6,12.66l.1.14-.14.11a79.09,79.09,0,0,0-13.2,13.82l0,0-.84.25c-6.64,2-20.42,6-25.36,12,4.26,4.74,13.27,17.69,14.23,19.07,7.87-2.84,19-14.49,22.85-19.41l0,0c5.38-4.42,10.28-13.13,12.33-19.44l0-.09.09,0c5.53-2,8.58-3.13,11.22-6.91,1.82-2.59,2.7-6,2.1-8.23a2.42,2.42,0,0,0-1.2-1.62,2.52,2.52,0,0,0-1-.23C150.85,87.91,149.27,90.15,148.72,91.56Z"/>
          </g>
          <g>
            <path class="cls-6" d="M64,125c-3.45,5.61-9.56,17.91-12.12,35.17-7.44,8.67-10.71,17.34-11.07,23s3.81,14.24,17.26,15.39c-4,2.39-11,3.81-16.06,5s-8.59,2.66-10.67,5.49-1.86,6.41-1.5,7.08c-.67,2.48-3.16,6.46,7.23,7.23,1.24,1.62,5.13,2.27,15-1a47.92,47.92,0,0,0,21.06-13.51c4.49-5,5.79-7.49,6-10.62a46.19,46.19,0,0,0,0-8.2c5.2.53,19.36,2.06,29.65-11.71,4.52-3.1,7.76-5.22,10.89-4.63s4.32,3.21,5.79,5.51,3.68,6,6.42,4.38,18-62.52,18-62.52c-3.59-.49-8.19,2-11.6,7.92s-5.66,13.67-7,17.74c-2.79-3.71-10-14.89-21.83-3.92-1.65-7-4.34-15.07-6.46-17.79S64,125,64,125Z"/>
            <path class="cls-7" d="M60.93,181.32c-8.48-5.1-9.36-13.12-9.21-21-.67.79-1.31,1.59-1.92,2.38C48.93,170,52.8,178.79,60.93,181.32Z"/>
            <path class="cls-7" d="M126.58,166.84c-2,1.37-5.19,0-6.84-4.42a70,70,0,0,0-4.61-11c1.6,11.86-13.77,25.44-18.73,28.27-13.1,7.79-30.84,5.37-35.31,2.07,2.34,3.3,3.54,5,6,6.37,2.12,1.42,5,2.13,5.31,3.19,3.54,7.79-3.19,18.14-10.27,22.39-1.41,1.06-17.08,9.87-23.1,8.8-2-.39-.31-6,4.17-9.27-5.33,1.93-9,6.75-11.16,5-1.94-1.66.57-5.92,5.83-9.8-3.91.27-6.27,3.16-7.71,2.83a7.94,7.94,0,0,0-.33,4.85c-.67,2.48-3.16,6.46,7.23,7.23,1.24,1.62,5.13,2.27,15-1a47.92,47.92,0,0,0,21.06-13.51c4.49-5,5.79-7.49,6-10.62a46.19,46.19,0,0,0,0-8.2c5.2.53,19.36,2.06,29.65-11.71,4.52-3.1,7.76-5.22,10.89-4.63s4.32,3.21,5.79,5.51,3.68,6,6.42,4.38c2-1.18,11-35.23,15.44-52.57-2.8,3.32-7.41,6.32-9.88,10.69C131.89,151.49,128.79,166.18,126.58,166.84Z"/>
            <path class="cls-8" d="M107.92,145.33a7.87,7.87,0,0,1,1.73-3l.24.26A11.3,11.3,0,0,0,107.92,145.33Z"/>
            <path class="cls-8" d="M107.94,179.64l-.28-.22a43.71,43.71,0,0,0,3.28-4.85,37.93,37.93,0,0,0,3.48-7.73,27.26,27.26,0,0,1-3.21,8A42.57,42.57,0,0,1,107.94,179.64Z"/>
            <path class="cls-8" d="M59.43,198.72a23,23,0,0,1-2.47-.13l0-.35a27.28,27.28,0,0,0,11.06-1.3A22.86,22.86,0,0,1,59.43,198.72Z"/>
            <path class="cls-8" d="M36.93,223.37c-2.75-4.46,6.29-10.18,6.29-10.18s-8.56,5.82-6,10Z"/>
            <path class="cls-8" d="M29.91,216.47l-.34-.11c1.66-5,8.32-8,8.32-8S31.52,211.57,29.91,216.47Z"/>
            <path class="cls-8" d="M128,169a102.13,102.13,0,0,1,1.35-14.14,82,82,0,0,1,2.13-9.42l.34.1a80.45,80.45,0,0,0-2.09,9.18C128.45,162.07,128,168.88,128,169Z"/>
            <path class="cls-8" d="M80,190.23a31.86,31.86,0,0,1-13.46-4.95,35,35,0,0,0,13.5,4.6Z"/>
            <path class="cls-8" d="M52.85,171.49a26.68,26.68,0,0,1-1-12.29l.35.05a26.07,26.07,0,0,0,1.12,12.5,18.18,18.18,0,0,0,7.61,9.57A17.23,17.23,0,0,1,52.85,171.49Z"/>
            <path class="cls-8" d="M41.11,224.79c-2,0-3.4-.45-4.12-1.34-4.13-.32-6.61-1.17-7.58-2.61-.87-1.29-.37-2.82,0-4.05.08-.25.16-.49.22-.73a9,9,0,0,1,1.55-7.2c1.92-2.61,5.14-4.27,10.77-5.55l1.54-.35c4.65-1,10.38-2.33,14-4.31-14-1.43-17.16-10.75-16.86-15.54.42-6.85,4.56-15.47,11.07-23.07,2.75-18.42,9.4-30.74,12.14-35.18l0-.08H64c.16,0,16.51-1.21,27.93-1.21,10.19,0,10.94,1,11.19,1.27,2.19,2.81,4.85,11,6.42,17.57,3.31-3,6.56-4.55,9.65-4.55,5.81,0,9.71,5.28,11.8,8.12l.22.3c.14-.42.28-.89.44-1.38,1.38-4.34,3.47-10.91,6.46-16.07s7-8.07,10.86-8.07a6.84,6.84,0,0,1,.91.06l.2,0L150,121c-.62,2.49-15.27,61-18.05,62.64a2.87,2.87,0,0,1-1.44.41c-2.12,0-3.82-2.66-5-4.6l-.16-.25c-.2-.3-.38-.6-.57-.91-1.27-2.07-2.47-4-5.12-4.53a5.8,5.8,0,0,0-1-.09c-2.67,0-5.45,1.76-9.69,4.68-6,8-14.2,12.09-24.35,12.09a50.81,50.81,0,0,1-5.22-.31,51,51,0,0,1,0,8c-.19,3.31-1.65,5.91-6,10.73a48.44,48.44,0,0,1-21.14,13.56C47.47,224,43.74,224.79,41.11,224.79Zm23-99.67c-2.75,4.49-9.33,16.74-12,35v.05l0,0c-6.48,7.56-10.6,16.12-11,22.91-.3,4.73,2.9,14,17.1,15.21l.54.05-.47.28c-3.61,2.17-9.69,3.53-14.57,4.62l-1.54.35c-5.54,1.27-8.7,2.89-10.56,5.42A8.68,8.68,0,0,0,30,216l0,.07,0,.06c-.07.26-.16.53-.25.81-.39,1.22-.84,2.6-.06,3.75.9,1.35,3.32,2.15,7.38,2.45h.08l0,.07c1.5,2,6.68,1.64,14.85-1a47.88,47.88,0,0,0,21-13.46c4.3-4.74,5.74-7.3,5.92-10.51A46.86,46.86,0,0,0,79,190l0-.23.32,0a49,49,0,0,0,5.32.32c10,0,18.14-4,24.08-12l0,0c4.32-3,7.14-4.76,9.92-4.76a6.72,6.72,0,0,1,1.1.1c2.8.53,4.1,2.65,5.35,4.7l.56.9.16.25c1.2,1.87,2.83,4.44,4.76,4.44a2.51,2.51,0,0,0,1.26-.37c2.11-1.23,12.56-41.12,17.84-62.22-.22,0-.44,0-.67,0-3.75,0-7.69,2.95-10.55,7.89-3,5.12-5,11.67-6.43,16l-.55,1.71-.11.32-.2-.27-.43-.58c-2-2.79-5.87-8-11.51-8-3.07,0-6.31,1.56-9.63,4.65l-.22.21-.07-.3c-1.56-6.57-4.24-14.92-6.43-17.72-.41-.52-2.63-1.14-10.91-1.14C81,123.92,65.44,125,64.11,125.12Z"/>
            <path class="cls-20" d="M108.7,155.16c-1.06-13.69-5.43-23.49-7.43-28.44l-18-2.46v0h-.11v0l-18,2.46c-2,4.95-6.37,14.75-7.43,28.44a31.31,31.31,0,0,0,6.27,20.65c3.4,4.6,11.31,9.2,19.24,9.2A24.75,24.75,0,0,0,102,176.37C107.11,170.67,109.28,162.56,108.7,155.16Z"/>
            <path class="cls-21" d="M108.7,155.16c-1.06-13.69-5.43-23.49-7.43-28.44L88.53,125c11.07,12.51,17.8,31.89,4.07,44.35-10.6,9.38-27,9.09-34.13-5.61a32.83,32.83,0,0,0,5.59,12.1c3.4,4.6,11.31,9.2,19.24,9.2A24.75,24.75,0,0,0,102,176.37C107.11,170.67,109.28,162.56,108.7,155.16Z"/>
            <path class="cls-17" d="M83.3,185.19c-8.13,0-16.06-4.78-19.38-9.27a31.49,31.49,0,0,1-6.31-20.78,87.46,87.46,0,0,1,7-27.33l.48-1.16,0-.09L83,124.1v0h.23l.24,0v.06l17.92,2.46,0,.09.48,1.16a87.46,87.46,0,0,1,7,27.33c.62,8-1.92,16-6.79,21.35A25.07,25.07,0,0,1,83.3,185.19Zm-18-58.31c-.13.34-.28.69-.43,1.07A86.93,86.93,0,0,0,58,155.17a31.19,31.19,0,0,0,6.24,20.54c3.28,4.42,11.08,9.13,19.1,9.13a24.72,24.72,0,0,0,18.53-8.59c4.81-5.31,7.31-13.19,6.7-21.08a87.22,87.22,0,0,0-7-27.22l-.44-1.07-17.9-2.45h0Z"/>
            <path class="cls-20" d="M101.33,116.13c-2.92-1.32-9.27-1.42-18.09-.71-8.81-.71-15.17-.61-18.08.71s-6.28,10.71-1.42,16.2a13.89,13.89,0,0,1,1.18-3.9c0,2.13.83,9.21,7.62,11.68a7.18,7.18,0,0,1-.74-4.42c1.24,2,1.59,3.49,4.73,5.49s6.49,4.95,6.71,5c.47-.18,3.63-3,6.72-5s3.49-3.46,4.73-5.49a7.18,7.18,0,0,1-.74,4.42c6.79-2.47,7.58-9.55,7.62-11.68a13.89,13.89,0,0,1,1.18,3.9C107.61,126.84,104.25,117.46,101.33,116.13Z"/>
            <path class="cls-21" d="M101.33,116.13a16.43,16.43,0,0,0-5.53-1.06c2.51,3.12,6.53,6,5.65,10.35a5.88,5.88,0,0,0-3.9-2.83c3.54,4.25,1.42,9.56-1.41,13.1-.14-3-.54-4.56-2.13-6-1.41,5.31-3.72,9.92-10.59,13.1-5.19-3-9.79-5.25-13.13-12.75a15.79,15.79,0,0,0-.7,5.67c-3.54-2.48-3.19-6.73-3.54-10.62-2.13.71-1.77,3.18-2.84,4.6a33.66,33.66,0,0,1-1.73-6.7,11.2,11.2,0,0,0,2.26,9.36,13.89,13.89,0,0,1,1.18-3.9c0,2.13.83,9.21,7.62,11.68a7.18,7.18,0,0,1-.74-4.42c1.24,2,1.59,3.49,4.73,5.49s6.49,4.95,6.71,5c.47-.18,3.63-3,6.72-5s3.49-3.46,4.73-5.49a7.18,7.18,0,0,1-.74,4.42c6.79-2.47,7.58-9.55,7.62-11.68a13.89,13.89,0,0,1,1.18,3.9C107.61,126.84,104.25,117.46,101.33,116.13Z"/>
            <path class="cls-17" d="M83.27,146.34h0c-.11,0-.27-.13-1.36-1-1.29-1-3.43-2.74-5.42-4a10.48,10.48,0,0,1-4.18-4.48c-.1-.19-.21-.38-.32-.57a6.48,6.48,0,0,0,.75,3.74l.27.44-.48-.18c-6.4-2.34-7.51-8.7-7.7-11.14a18.14,18.14,0,0,0-.86,3.22l-.07.35-.24-.27c-2.22-2.51-3-6.22-2.18-10.17.64-3,2.15-5.61,3.66-6.3,1.72-.78,4.61-1.16,8.84-1.16,2.61,0,5.66.14,9.33.43,3.64-.29,6.69-.43,9.3-.43,4.23,0,7.12.38,8.84,1.16,1.51.69,3,3.28,3.66,6.3.84,4,0,7.66-2.18,10.17l-.24.27-.07-.35a18.14,18.14,0,0,0-.86-3.22c-.19,2.44-1.3,8.8-7.7,11.14l-.48.18.27-.44a6.48,6.48,0,0,0,.75-3.74c-.11.19-.22.38-.32.57a10.48,10.48,0,0,1-4.18,4.48,61.1,61.1,0,0,0-5.16,3.81,12.46,12.46,0,0,1-1.58,1.19ZM71.66,135.12l.29.48c.23.38.43.73.62,1.08A10.06,10.06,0,0,0,76.63,141a64.21,64.21,0,0,1,5.45,4c.51.4,1,.79,1.16.9.22-.13.79-.58,1.43-1.09A60.14,60.14,0,0,1,89.86,141a10.06,10.06,0,0,0,4.06-4.35c.19-.35.39-.7.62-1.08l.29-.48,0,.56a8.26,8.26,0,0,1-.52,4.09c6.53-2.69,7-9.9,7.05-11.34v-.6l.31.51a13,13,0,0,1,1.13,3.59,11.29,11.29,0,0,0,1.86-9.59c-.61-2.87-2.06-5.42-3.45-6-1.68-.76-4.52-1.13-8.7-1.13-2.6,0-5.64.14-9.3.43-3.69-.29-6.73-.43-9.33-.43-4.18,0-7,.37-8.7,1.13-1.39.63-2.84,3.18-3.45,6a11.29,11.29,0,0,0,1.86,9.59,13,13,0,0,1,1.13-3.59l.31-.51v.6c0,1.44.52,8.65,7,11.34a8.26,8.26,0,0,1-.52-4.09Z"/>
            <path class="cls-22" d="M150.77,120.58c-2.65-.11-6,1-8.91,7.73s-8.91,28.86-10.68,39.12-2.18,17.11,2,17.41,5.66-2.13,7.73-8.32,4.66-13.69,9.85-20.89,11-15.69,10.74-22.86c1-4.69.24-9.88-2.48-11.54C158.56,118,155.9,116,150.77,120.58Z"/>
            <path class="cls-23" d="M160,122.32c-.18-.15-1-1-1.17-1.09a23.85,23.85,0,0,1-3.08,12.25C158.66,129.83,160.47,125.42,160,122.32Z"/>
            <path class="cls-23" d="M150.07,130.93c1.8-3.67,5.45-9,1.86-11.48-.44.32-.91.7-1.4,1.13C153.46,120.94,151.12,126.4,150.07,130.93Z"/>
            <path class="cls-23" d="M148.71,153.17c-4.92,6.28-9.48,18-12.84,16.75-3.19-.77-3.06-8.68-2.4-14.16-1.09,4.47-2,8.6-2.52,11.67-1.77,10.27-2.19,17.11,2,17.41s5.67-2.13,7.73-8.32,4.66-13.69,9.85-20.89c4.59-6.35,9.65-13.72,10.59-20.29C158.71,141.64,152.66,148.12,148.71,153.17Z"/>
            <path class="cls-8" d="M158.3,138.19a19.8,19.8,0,0,0,2.91-6l.34.08A16.28,16.28,0,0,1,158.3,138.19Z"/>
            <path class="cls-8" d="M155.72,133.48c0-.07,3.69-7.09,2.8-12.76l.35-.06C159.78,126.45,155.72,133.48,155.72,133.48Z"/>
            <path class="cls-8" d="M150.07,130.93a73,73,0,0,0,1.67-8.35,1.84,1.84,0,0,0-.37-1.41,2.17,2.17,0,0,0-1.6-.4h-.11v-.35h.11a2.44,2.44,0,0,1,1.85.5,2.16,2.16,0,0,1,.48,1.68C152,124.69,150.07,130.93,150.07,130.93Z"/>
            <path class="cls-8" d="M156.78,137.06a6.46,6.46,0,0,0-3.24-3.86,5.59,5.59,0,0,0-2.31-.48,7.58,7.58,0,0,0-3,.62,8.25,8.25,0,0,0-3.45,2.8A6.73,6.73,0,0,1,148,133a8.12,8.12,0,0,1,3.19-.65,5.75,5.75,0,0,1,2.37.48A6,6,0,0,1,156.78,137.06Z"/>
            <path class="cls-8" d="M133.61,185h0l-.67,0a3,3,0,0,1-2.24-1.15c-1.88-2.4-1.33-8.32.07-16.46,1.85-10.7,7.84-32.66,10.69-39.16,2.32-5.27,5.17-7.84,8.72-7.84h.29c2-1.78,3.77-2.69,5.24-2.69,1.7,0,2.91,1.27,3.25,3.42,2.84,1.81,3.41,7.21,2.49,11.65.25,7.05-5.18,15.21-10.77,22.95-5,6.87-7.47,13.78-9.83,20.84C138.86,182.54,137.41,185,133.61,185Zm16.57-64.29c-3.4,0-6.14,2.5-8.39,7.64-2.85,6.48-8.83,28.39-10.67,39.07-1.2,7-2.05,13.75-.14,16.18a2.6,2.6,0,0,0,2,1c4.07.29,5.51-2.07,7.55-8.2,2.37-7.09,4.9-14,9.88-20.93,5.56-7.71,11-15.81,10.71-22.75v-.05c.91-4.36.37-9.66-2.4-11.35l-.07,0v-.08c-.14-1-.7-3.2-2.91-3.2-1.37,0-3.12.92-5.06,2.66l-.05,0h-.42Z"/>
            <path class="cls-9" d="M149.06,150.09c-1.53,3.89-4.23,6.47-6,5.76s-2-4.44-.5-8.33,4.23-6.47,6-5.76S150.59,146.2,149.06,150.09Z"/>
            <path class="cls-10" d="M141.85,149.65c-.72,3-.3,5.62,1.17,6.2,1.81.71,4.51-1.87,6-5.76a11.16,11.16,0,0,0,.78-6.65C149.86,149.58,144.1,155.25,141.85,149.65Z"/>
            <path class="cls-18" d="M149.77,143.22a2.23,2.23,0,0,0-1.22-1.46c-1.8-.71-4.51,1.87-6,5.76a20.17,20.17,0,0,0-.5,2C144.13,145.6,146.67,140.91,149.77,143.22Z"/>
            <path class="cls-24" d="M143.66,156.14a1.82,1.82,0,0,1-.7-.13c-1.93-.75-2.19-4.51-.61-8.56,1.37-3.47,3.71-6,5.57-6a2.07,2.07,0,0,1,.7.13c1.93.76,2.19,4.52.6,8.56C147.86,153.62,145.52,156.14,143.66,156.14Zm4.26-14.32c-1.72,0-3.93,2.42-5.24,5.76-1.49,3.8-1.31,7.43.41,8.1a1.52,1.52,0,0,0,.57.11c1.72,0,3.92-2.43,5.24-5.77,1.49-3.79,1.3-7.43-.41-8.1A1.56,1.56,0,0,0,147.92,141.82Z"/>
            <path class="cls-9" d="M148.26,130.11c-.78,2-2.31,3.26-3.41,2.83s-1.35-2.4-.57-4.4,2.31-3.26,3.41-2.83S149,128.11,148.26,130.11Z"/>
            <path class="cls-18" d="M148.51,126.62a1.55,1.55,0,0,0-.82-.91c-1.1-.43-2.62.84-3.41,2.83-.06.15-.18,1-.23,1.18C145.52,127.07,146.69,125.45,148.51,126.62Z"/>
            <path class="cls-10" d="M144,129.3c-.45,1.71-.14,3.26.82,3.64s2.63-.84,3.41-2.83a6,6,0,0,0,.45-2.47C146.38,133.2,144,131.3,144,129.3Z"/>
            <path class="cls-24" d="M145.31,133.2a1.3,1.3,0,0,1-.52-.1,2,2,0,0,1-1.1-1.75,5.86,5.86,0,0,1,.43-2.87c.7-1.79,2-3,3.12-3a1.25,1.25,0,0,1,.51.1,2,2,0,0,1,1.11,1.75,6,6,0,0,1-.43,2.87C147.73,132,146.44,133.2,145.31,133.2Zm1.93-7.4c-1,0-2.16,1.18-2.79,2.81a5.49,5.49,0,0,0-.41,2.69,1.67,1.67,0,0,0,.88,1.47,1,1,0,0,0,.39.07c1,0,2.15-1.17,2.79-2.8a5.79,5.79,0,0,0,.41-2.7,1.71,1.71,0,0,0-.88-1.47A1.34,1.34,0,0,0,147.24,125.8Z"/>
            <path class="cls-9" d="M156.75,126.5c-.45,1.7-1.58,2.87-2.52,2.62s-1.33-1.83-.87-3.53,1.59-2.88,2.53-2.63S157.21,124.8,156.75,126.5Z"/>
            <path class="cls-10" d="M153.36,125.59c-.46,1.7-.07,3.28.87,3.53s2.07-.92,2.52-2.62a5.38,5.38,0,0,0,.17-.93C155.59,128.37,153.4,128.28,153.36,125.59Z"/>
            <path class="cls-18" d="M156.86,124.25a1.57,1.57,0,0,0-1-1.29c-.91-.24-2.22,1.08-2.5,3C154.56,123.67,155.61,122.59,156.86,124.25Z"/>
            <path class="cls-24" d="M154.49,129.33a1.1,1.1,0,0,1-.31,0,1.69,1.69,0,0,1-1.08-1.35,4.94,4.94,0,0,1,.09-2.4c.43-1.62,1.46-2.79,2.44-2.79a1,1,0,0,1,.3,0c1,.28,1.48,1.93,1,3.75C156.49,128.16,155.47,129.33,154.49,129.33Zm1.14-6.23c-.81,0-1.71,1.09-2.1,2.53a4.75,4.75,0,0,0-.09,2.23,1.35,1.35,0,0,0,.84,1.09.71.71,0,0,0,.21,0c.81,0,1.71-1.09,2.09-2.53s.09-3.1-.74-3.32A.76.76,0,0,0,155.63,123.1Z"/>
            <path class="cls-9" d="M160.16,132.85c-.3,1.13-1,1.9-1.67,1.74s-.88-1.22-.57-2.34,1.05-1.91,1.67-1.74S160.46,131.72,160.16,132.85Z"/>
            <path class="cls-18" d="M160.05,131.18c-.12-.35-.19-.6-.46-.67-.62-.17-1.37.61-1.67,1.74,0,.05.1.21.08.27C158.52,131.54,159.28,130.37,160.05,131.18Z"/>
            <path class="cls-10" d="M157.83,132.81c-.15,1,.11,1.79.66,1.94s1.37-.61,1.67-1.74a3.14,3.14,0,0,0,.06-1.51C159.93,133.42,158.53,134.51,157.83,132.81Z"/>
            <path class="cls-24" d="M158.66,134.79a.83.83,0,0,1-.22,0,1.19,1.19,0,0,1-.76-.94,3.46,3.46,0,0,1,.06-1.62c.3-1.1,1-1.89,1.67-1.89a.78.78,0,0,1,.22,0,1.14,1.14,0,0,1,.76.94,3.18,3.18,0,0,1-.06,1.61C160,134,159.34,134.79,158.66,134.79Zm.75-4.13c-.49,0-1.08.72-1.32,1.63a3,3,0,0,0-.06,1.44.85.85,0,0,0,.51.69c.51.13,1.18-.62,1.45-1.62a3,3,0,0,0,.06-1.44c-.09-.38-.27-.62-.51-.68Z"/>
          </g>
          <g>
            <path class="cls-20" d="M112.16,90.27c-4.68-2.36-9.9-1.28-15.08,1.13a17.8,17.8,0,0,0-13.52-5.9A19.36,19.36,0,0,0,70,91.4C64.87,89,59.65,87.91,55,90.27a12.41,12.41,0,0,0-6.37,13,5.49,5.49,0,0,1,2.12-2c-.68,2.77-.59,6.51,2,8.92a7.27,7.27,0,0,1,.73-3.17c.79,2.52,3.76,8.08,11.82,12.05a36.62,36.62,0,0,0,9.59,3c1.89,2.33,4.73,3.28,8.59,3.28a11.87,11.87,0,0,0,8.83-3.3,37.24,37.24,0,0,0,9.58-3c8.06-4,11-9.53,11.81-12.05a7.23,7.23,0,0,1,.74,3.17c2.58-2.41,2.68-6.15,2-8.92a5.43,5.43,0,0,1,2.12,2A12.4,12.4,0,0,0,112.16,90.27Z"/>
            <path class="cls-3" d="M68.39,92.26c-.22.64-1,2-.69,3.25,9.37-12.21,23.49-11.4,31.68-.31a17.2,17.2,0,0,0-.83-3.31,19,19,0,0,1,4.61-2.57,59,59,0,0,0-6.08,2.08,17.8,17.8,0,0,0-13.52-5.9A19.36,19.36,0,0,0,70,91.4C65.12,89.11,60.17,88,55.66,90,59.9,89.47,63.68,89.41,68.39,92.26Z"/>
            <path class="cls-21" d="M112.16,90.27a13.25,13.25,0,0,0-8.22-1.11c5.71.72,11.16,4.06,12.64,10-1.76-.62-2.64-2.16-4.39-2.78,1.75,2.78,3.22,5.55,2.63,8.94-1.17-1.85-2.92-2.78-4.39-4.32,1.08,9.1-7.6,17-15.42,18.65.24-2,0-4.35-.64-4.23-2.3,5.13-7.58,6.65-10.92,6.79a11.41,11.41,0,0,1-10.56-6.39,10.42,10.42,0,0,0-.43,3.8c-8.15-1.8-16.46-8-18.81-17.38a11.68,11.68,0,0,0-1.46,4.62c-1.1-2.13-.77-5.93.4-8.7a29.26,29.26,0,0,0-3.38,2.49,18.79,18.79,0,0,1,5-10,12.43,12.43,0,0,0-5.63,12.55,5.49,5.49,0,0,1,2.12-2c-.68,2.77-.59,6.51,2,8.92a7.27,7.27,0,0,1,.73-3.17c.79,2.52,3.76,8.08,11.82,12.05a36.62,36.62,0,0,0,9.59,3c2.25,2.75,5.43,3.28,8.59,3.28a12,12,0,0,0,8.83-3.3,37.24,37.24,0,0,0,9.58-3c8.06-4,11-9.53,11.81-12.05a7.23,7.23,0,0,1,.74,3.17c2.58-2.41,2.68-6.15,2-8.92a5.43,5.43,0,0,1,2.12,2A12.4,12.4,0,0,0,112.16,90.27Z"/>
            <path class="cls-17" d="M83.45,125.45c-4.07,0-6.84-1-8.69-3.29a37.28,37.28,0,0,1-9.57-3c-8.4-4.14-11.09-9.89-11.77-11.75a8.68,8.68,0,0,0-.53,2.73l0,.37-.28-.26c-3-2.76-2.49-7-2.13-8.68a4.9,4.9,0,0,0-1.7,1.74l-.23.48-.1-.52A12.23,12.23,0,0,1,60.65,88.79,22.44,22.44,0,0,1,70,91.2a19.56,19.56,0,0,1,13.56-5.87A17.81,17.81,0,0,1,97.12,91.2a22.51,22.51,0,0,1,9.35-2.41,12.24,12.24,0,0,1,12.23,14.48l-.11.52-.23-.48a4.79,4.79,0,0,0-1.69-1.74c.35,1.73.83,5.92-2.14,8.68l-.28.26,0-.37a8.74,8.74,0,0,0-.52-2.73c-.68,1.86-3.37,7.61-11.77,11.75a37.87,37.87,0,0,1-9.57,3A12.07,12.07,0,0,1,83.45,125.45ZM53.51,106.56l.11.36c.38,1.21,2.72,7.5,11.73,12a37.44,37.44,0,0,0,9.54,3H75l0,0c1.78,2.19,4.47,3.21,8.45,3.21a11.7,11.7,0,0,0,8.71-3.25l0,0h.06a38,38,0,0,0,9.53-3c9-4.45,11.34-10.74,11.72-12l.11-.36.21.31a6.88,6.88,0,0,1,.74,2.87c2.77-2.89,2-7.21,1.67-8.49l-.1-.39.37.21a6.21,6.21,0,0,1,1.93,1.67,11.89,11.89,0,0,0-12-13.62,22.33,22.33,0,0,0-9.31,2.43l-.12.06L97,91.52c-4-4-8.08-5.86-13.39-5.86a19.21,19.21,0,0,0-13.39,5.86l-.09.09L70,91.55a22.29,22.29,0,0,0-9.31-2.43,11.9,11.9,0,0,0-12,13.62,6.24,6.24,0,0,1,1.94-1.67l.36-.21-.09.39c-.32,1.28-1.11,5.6,1.67,8.49a6.92,6.92,0,0,1,.73-2.87Z"/>
            <path class="cls-25" d="M83.65,98.94c-1.28,0-15.06-.58-16.5-.58,2.81,7,8.73,17.11,16.5,17.11,7.45,0,13.69-10.08,16.5-17.11C98.7,98.36,84.92,98.89,83.65,98.94Z"/>
            <path class="cls-15" d="M73.14,109.06c2.88,3.64,6.44,6.41,10.51,6.41,3.78,0,7.24-2.6,10.11-6.07C88.13,104.48,79.5,104.79,73.14,109.06Z"/>
            <path class="cls-26" d="M76.23,112.33a11.41,11.41,0,0,0,7.42,3.14c2.7,0,5.25-1.33,7.53-3.37C86.91,109,79.14,109.43,76.23,112.33Z"/>
            <path class="cls-27" d="M88.45,110.89c-4.41-1.54-10-.74-12.22,1.44.23.2.47.39.7.57C80,110.35,84.75,110.52,88.45,110.89Z"/>
            <path class="cls-28" d="M88.66,110.81c-1.81,3.61-6.6,4.46-10.31,3.07a10.13,10.13,0,0,0,5.3,1.59c2.7,0,5.25-1.33,7.53-3.37A10.5,10.5,0,0,0,88.66,110.81Z"/>
            <path class="cls-29" d="M83.65,115.58v-.26A11.27,11.27,0,0,0,91,112.15a13.32,13.32,0,0,0-7.34-2c-3,0-5.78.9-7.25,2.27a11.26,11.26,0,0,0,7.26,2.93v.26a11.44,11.44,0,0,1-7.51-3.13l-.13-.11.12-.12c1.51-1.51,4.32-2.41,7.51-2.41A13.24,13.24,0,0,1,91.26,112l.16.11-.15.13C88.74,114.48,86.17,115.58,83.65,115.58Z"/>
            <path class="cls-17" d="M83.65,115.62h0c-9.05,0-15-13.16-16.64-17.2l-.08-.21h.22c1.52,0,16.35.57,16.5.58s15-.58,16.5-.58h.22l-.09.21C97.11,106.36,90.85,115.62,83.65,115.62ZM67.37,98.52c1.71,4.22,7.56,16.8,16.28,16.8h0c7,0,13.11-9,16.28-16.8-2.36,0-16.13.57-16.28.57S69.73,98.56,67.37,98.52Z"/>
            <path class="cls-3" d="M78.5,99.42a40.83,40.83,0,0,0,2.86,9.07c.34.25,3.94.5,4.65,0s3-6.29,2.89-8.3C86,99.42,78.77,98.86,78.5,99.42Z"/>
            <path class="cls-14" d="M88.9,100.19c-.53-.14-1.19-.27-1.93-.39-.08,2.41-.69,7.49-1.6,7.49s-1.08-3.4-1.34-5.21c-.32,2-1.28,5.16-3.12,5.49a3.59,3.59,0,0,0,.45.92c.34.25,3.94.5,4.65,0S89,102.2,88.9,100.19Z"/>
            <path class="cls-30" d="M83.76,108.75H83.5c.25-1.88.57-7.16.07-8.42l.23-.1C84.37,101.65,84,107.16,83.76,108.75Z"/>
            <path class="cls-30" d="M84,108.93h0a8.91,8.91,0,0,1-2.75-.31c-.44-.33-2.54-6.43-2.92-9.17v0l0-.05c0-.11.15-.31,1.77-.31a45.8,45.8,0,0,1,8.8,1l.1,0v.11c.13,2-2.19,7.9-3,8.44A4.66,4.66,0,0,1,84,108.93Zm-5.37-9.45a41.94,41.94,0,0,0,2.79,8.89,9.67,9.67,0,0,0,2.58.25h0a4.3,4.3,0,0,0,1.9-.26c.59-.41,2.88-5.93,2.83-8a46.07,46.07,0,0,0-8.62-1A4.48,4.48,0,0,0,78.66,99.48Z"/>
            <path class="cls-20" d="M66.22,97.23c1.31,4.18,9.46,9.24,17.53,3,8.68,6,16.69,1.2,18.37-3,0,0-13.84-4.7-18.4-4.7S66.22,97.23,66.22,97.23Z"/>
            <path class="cls-21" d="M84.09,95.51c-.88,2.77-3.51,4.31-5.85,4.93-3.95.83-8.83.17-11.06-3.55l-1,.34c1.31,4.18,9.46,9.24,17.53,3,8.68,6,16.69,1.2,18.37-3l-.78-.26C96.4,101.11,88.13,101.19,84.09,95.51Z"/>
            <path class="cls-17" d="M75.83,103.31a11.41,11.41,0,0,1-3.64-.6c-2.94-1-5.4-3.17-6.11-5.43l.28-.1c.57,1.81,2.62,4.13,5.92,5.24,2.18.74,6.57,1.41,11.39-2.31l.08-.06.08.06c3.86,2.67,8.09,3.47,11.93,2.24,2.9-.93,5.34-3,6.23-5.18l.27.12c-.92,2.3-3.44,4.4-6.41,5.35-3.9,1.25-8.19.46-12.09-2.22A12.89,12.89,0,0,1,75.83,103.31Z"/>
            <path class="cls-17" d="M83.88,100.27l-.25-.06a23.21,23.21,0,0,0,.28-5.64h.26A22.85,22.85,0,0,1,83.88,100.27Z"/>
            <path class="cls-17" d="M104.47,99.57a11.8,11.8,0,0,0-2.53-2.16,9.63,9.63,0,0,0-3.19-1,6.7,6.7,0,0,1,3.39.59A7.47,7.47,0,0,1,104.47,99.57Z"/>
            <path class="cls-17" d="M63.79,99.57A7.47,7.47,0,0,1,66.12,97a6.71,6.71,0,0,1,3.39-.59,9.63,9.63,0,0,0-3.19,1A11.8,11.8,0,0,0,63.79,99.57Z"/>
            <path class="cls-31" d="M89.85,88.85c.1-2-3.26-3.39-5.8-3.29-2.28,0-5.9,1.24-5.8,3.29s4.08,5.72,5.8,5.72C86.09,94.57,89.75,90.91,89.85,88.85Z"/>
            <path class="cls-32" d="M89.84,88.66c-.11-1.94-3.33-3.19-5.79-3.1-2.14,0-5.45,1.09-5.77,2.91C81.46,86,87.12,85.56,89.84,88.66Z"/>
            <path class="cls-33" d="M78.27,89c.27,2.09,4.1,5.57,5.78,5.57,2,0,5.57-3.53,5.79-5.61C86.74,92.56,81.69,92.32,78.27,89Z"/>
            <path class="cls-24" d="M84.05,94.72c-1.8,0-5.84-3.68-6-5.86a2.12,2.12,0,0,1,.6-1.51c1.1-1.21,3.58-1.94,5.34-1.94h.28a7.24,7.24,0,0,1,5.05,1.86,2.2,2.2,0,0,1,.63,1.6C89.89,91.05,86.17,94.72,84.05,94.72Zm.27-9h-.26c-1.72,0-4.1.69-5.15,1.85a1.76,1.76,0,0,0-.51,1.27c.09,2,4,5.58,5.65,5.58,1.92,0,5.56-3.6,5.66-5.58a1.9,1.9,0,0,0-.56-1.37A7,7,0,0,0,84.32,85.71Z"/>
            <path class="cls-17" d="M68.58,93.36a15.56,15.56,0,0,1,1.77-2.51l.24.25C69.93,91.72,68.59,93.35,68.58,93.36Z"/>
            <path class="cls-17" d="M98.55,93.36s-1.36-1.65-2-2.27l.24-.24A15.16,15.16,0,0,1,98.55,93.36Z"/>
          </g>
        </g>
      </g>
    </g>
  </g>
</svg>
