<svg id="Layer_1" data-name="Layer 1" xmlns="http://www.w3.org/2000/svg" width="178.9" height="245.08" viewBox="0 0 178.9 245.08">
  <defs>
    <style>
      .cls-1 {
        opacity: 0.5;
      }

      .cls-2 {
        fill: #fff;
      }

      .cls-3 {
        fill: #f5ac4e;
      }

      .cls-4 {
        fill: #ef8245;
      }

      .cls-5 {
        fill: #fed952;
      }

      .cls-6 {
        fill: #a35020;
      }

      .cls-7 {
        fill: #ffd953;
      }
    </style>
  </defs>
  <g>
    <path class="cls-1" d="M106,245.08l-2.58,0c-9.49-.12-17.17-.87-19.6-1.13-1,.06-2,.09-3.19.09-17.85,0-51.91-7-66.3-33.06-15.9-28.85-11-63,10.83-76,3.12-1.87,6.25-3.59,9.27-5.26,13.65-7.52,24.44-13.46,28.13-27.58.2-.77.38-1.52.53-2.25-.16-.15-.32-.3-.47-.46-5-5.09-4.08-9.69-3.11-12,.09-.2.18-.4.28-.6a8.75,8.75,0,0,1-.34-1.06,9.93,9.93,0,0,1-.31-3.2,52.42,52.42,0,0,1-6.83-11.69C51,67.5,45,62.77,40.2,59s-9.73-7.69-12.94-12c-7.13-9.62-2.68-17.34-.44-20.21a23.11,23.11,0,0,1,18.71-9.41c7.22,0,13.57,3.09,17,4.75l1.23.59A13.19,13.19,0,0,1,68,25.84c.64-10.51,5.53-14.38,7.29-15.44a8,8,0,0,1,3-1.07A34.31,34.31,0,0,1,82.92,9a23.67,23.67,0,0,1,18,7.55,29.34,29.34,0,0,1,6,10.39C124.72,7.57,134.28,5,140.17,5c6.52,0,11.88,3.73,14.81,10.27,3.09,5.5,9.44,26.08-34.75,65.65a47.07,47.07,0,0,1,10.45,2.9,82.93,82.93,0,0,1,13.38,7.28c6,4,8.37,6.8,8.9,10.26.23,1.45.71,6.49-2.52,10.26a9.76,9.76,0,0,1-7.52,3.42,10.93,10.93,0,0,1-2.63-.32,25.22,25.22,0,0,1,1.14,4.29,8.05,8.05,0,0,1,.1,1.7,13.75,13.75,0,0,1-2.12,7l3.08,3.3c4.24,4.56,9.22,9.92,13.94,15.17,2.73,3,5.24,5.88,7.45,8.45,1.86,2.18,3.47,4.11,4.93,5.91.8,1,1.54,1.93,2.25,2.86,1.22,1.58,2.23,2.95,3.06,4.17a28.41,28.41,0,0,1,4.72,18.15,43.47,43.47,0,0,1-1.57,9.2c-4.22,15.3-15.64,30-24.92,38.7-5.64,5.28-14.43,8.66-26.88,10.33-.94.13-1.88.24-2.83.34-2.25.25-4.62.44-7.07.57l-1.37.07c-1.8.09-3.65.14-5.51.17Z"/>
    <path class="cls-2" d="M101,240.08l-2.58,0c-9.49-.12-17.17-.87-19.6-1.13-1,.06-2,.09-3.19.09-17.85,0-51.91-7-66.3-33.06-15.9-28.85-11-63,10.83-76,3.12-1.87,6.25-3.59,9.27-5.26,13.65-7.52,24.44-13.46,28.13-27.58.2-.77.38-1.52.53-2.25-.16-.15-.32-.3-.47-.46-5-5.09-4.08-9.69-3.11-12,.09-.2.18-.4.28-.6a8.75,8.75,0,0,1-.34-1.06,9.93,9.93,0,0,1-.31-3.2,52.42,52.42,0,0,1-6.83-11.69C46,62.5,40,57.77,35.2,54s-9.73-7.69-12.94-12c-7.13-9.62-2.68-17.34-.44-20.21a23.11,23.11,0,0,1,18.71-9.41c7.22,0,13.57,3.09,17,4.75l1.23.59A13.19,13.19,0,0,1,63,20.84c.64-10.51,5.53-14.38,7.29-15.44a8,8,0,0,1,3-1.07A34.31,34.31,0,0,1,77.92,4a23.67,23.67,0,0,1,18,7.55,29.34,29.34,0,0,1,6,10.39C119.72,2.57,129.28,0,135.17,0c6.52,0,11.88,3.73,14.81,10.27,3.09,5.5,9.44,26.08-34.75,65.65a47.07,47.07,0,0,1,10.45,2.9,82.93,82.93,0,0,1,13.38,7.28c6,4,8.37,6.8,8.9,10.26.23,1.45.71,6.49-2.52,10.26a9.76,9.76,0,0,1-7.52,3.42,10.93,10.93,0,0,1-2.63-.32,25.22,25.22,0,0,1,1.14,4.29,8.05,8.05,0,0,1,.1,1.7,13.75,13.75,0,0,1-2.12,7l3.08,3.3c4.24,4.56,9.22,9.92,13.94,15.17,2.73,3,5.24,5.88,7.45,8.45,1.86,2.18,3.47,4.11,4.93,5.91.8,1,1.54,1.93,2.25,2.86,1.22,1.58,2.23,2.95,3.06,4.17a28.41,28.41,0,0,1,4.72,18.15,43.47,43.47,0,0,1-1.57,9.2c-4.22,15.3-15.64,30-24.92,38.7-5.64,5.28-14.43,8.66-26.88,10.33-.94.13-1.88.24-2.83.34-2.25.25-4.62.44-7.07.57l-1.37.07c-1.8.09-3.65.14-5.51.17Z"/>
    <g>
      <path class="cls-3" d="M79,230.9s48,5.76,62.88-8.16,31.2-40.32,20.64-55.68-44.16-49-51.36-58.08-17.76-24-8.64-32.64S151,33.62,142.85,13.94s-37,14.88-46.56,26.88c0,0,2.64-31.92-21.84-28.56,0,0-4.8,2.88-3.12,16.08s2.16,17.52-2.16,15.36S59.81,26.9,55.49,25s-18-10.32-27.36,1.68,21.36,23,26.64,36.24S70.85,78,65.33,99.14s-23.76,27.36-41,37.68-22.08,39.6-7.92,65.28S67.73,231.86,79,230.9Z"/>
      <path class="cls-4" d="M162.53,167.06C152,151.7,118.37,118.1,111.17,109S92.89,84.4,102.53,76.34c52.8-44.16,40.32-62.4,40.32-62.4s-20,12.71-41.52,41.76c-4.8,6.48-11.73,26.77-10.45,30.52,5,14.56,27.73,47.72,39.73,85.16C142.91,209.75,78.36,231,79,230.9c0,0,48,5.76,62.88-8.16S173.09,182.42,162.53,167.06Z"/>
      <path class="cls-5" d="M48.29,163.94s6.72-6.48,13.2-9.36,11.76-13,6-14.4-12,1-15.36,1.44-12.72-.24-15.6-1-14.88-.48-21.6,12.72-1.2,25.2,5,36.48,18,31.92,37.92,32.4,13.44-3.6,9.36-8.88-22.08-14.64-23-25.2S42.53,168.5,48.29,163.94Z"/>
      <path class="cls-6" d="M65.78,81.86s-7.32-2.76-1.2-7.08c0,0,.72-1.32,4.8,2.28s21.72,5.76,23,5.76,2.88-5.16,6.84,0c0,0,14.28-.48,23.28,3.36s17.28,9.84,17.52,11.4.12,5.76-3.72,4.08-14.64-13-26.28-12.6c0,0,16.56,14.88,18.48,26.28,0,0-.36,7.56-5.28.84s-6.48-17.52-22.68-25.8c0,0-1.08,6.6-9.6,6.48s-23-3.36-27.6-8,2.16-4.92,2.88-4.68,10.08,7.8,20,7.2,10-2.16,10.08-2.64-1.8-1-5.4-.48S69.14,85,65.78,81.86Z"/>
      <path class="cls-7" d="M41.33,30.26S59.57,61,70.13,64.82c0,0,16.8,20.64-.48,5.76S38,40.34,36.53,34.58,41.33,30.26,41.33,30.26Z"/>
      <path class="cls-7" d="M83.45,29.42s4.68-10.44-.36-10.8-5.4,10.44-5.4,15.48,2.88,28.8,2.52,32.76a19.4,19.4,0,0,0,.36,6.48,37.78,37.78,0,0,0,2.16-20.52C80.57,42,83.45,29.42,83.45,29.42Z"/>
      <path class="cls-7" d="M91.19,65.78c-2.33.38-6.12,1.62-1.44-5.58s27.06-36.54,35-40.5,6.12,5,2.52,6.48-19,14.49-24.18,20.52C99.33,51.07,92.88,65.5,91.19,65.78Z"/>
    </g>
  </g>
</svg>
