<svg xmlns="http://www.w3.org/2000/svg" xmlns:xlink="http://www.w3.org/1999/xlink" width="316.56" height="253.99" viewBox="0 0 316.56 253.99">
  <defs>
    <style>
      .cls-1 {
        isolation: isolate;
      }

      .cls-2 {
        opacity: 0.5;
      }

      .cls-3 {
        fill: #fff;
      }

      .cls-4 {
        fill: url(#linear-gradient);
      }

      .cls-5 {
        fill: #888f9c;
      }

      .cls-6 {
        fill: #9aa2b0;
      }

      .cls-7 {
        fill: #c3cbd9;
      }

      .cls-8 {
        fill: #a3abba;
      }

      .cls-9 {
        fill: #aab3c2;
      }

      .cls-10 {
        fill: #7c838f;
      }

      .cls-11 {
        fill: #9da3aa;
      }

      .cls-12 {
        fill: #b6bfcf;
      }

      .cls-13 {
        fill: #e8e8e8;
      }

      .cls-13, .cls-16, .cls-19 {
        mix-blend-mode: multiply;
      }

      .cls-14 {
        fill: #818894;
      }

      .cls-15 {
        fill: #cbd7e8;
      }

      .cls-17, .cls-19 {
        fill: #c9c9c9;
      }

      .cls-18 {
        fill: #8e97a5;
      }

      .cls-20 {
        fill: url(#linear-gradient-2);
      }

      .cls-21 {
        fill: #7f8a91;
      }

      .cls-21, .cls-23 {
        mix-blend-mode: screen;
      }

      .cls-22 {
        fill: #edf7ff;
      }

      .cls-24 {
        fill: #333;
      }

      .cls-25 {
        fill: #dbedfc;
      }

      .cls-26 {
        fill: #9fd3fc;
      }

      .cls-27 {
        fill: #8dccfc;
      }

      .cls-28 {
        fill: #ccd945;
      }

      .cls-29 {
        fill: #a7b339;
      }

      .cls-30 {
        fill: #b1bd3c;
      }

      .cls-31 {
        fill: #81c6fc;
      }
    </style>
    <linearGradient id="linear-gradient" x1="155.78" y1="125.99" x2="155.78" y2="249.57" gradientUnits="userSpaceOnUse">
      <stop offset="0" stop-color="#b4edfc"/>
      <stop offset="1" stop-color="#0094ef"/>
    </linearGradient>
    <linearGradient id="linear-gradient-2" x1="158.92" y1="8.77" x2="158.92" y2="204.93" gradientUnits="userSpaceOnUse">
      <stop offset="0" stop-color="#6ce3ff"/>
      <stop offset="1" stop-color="#0094ef"/>
    </linearGradient>
  </defs>
  <g class="cls-1">
    <g id="Layer_1" data-name="Layer 1">
      <g>
        <path class="cls-2" d="M219.1,254c-5.72,0-11.85-.24-18.23-.71a180.5,180.5,0,0,1-42.6-7.92l-2.57-.76c-5.26-1.54-8.67-2.33-12.68-2.33a44.24,44.24,0,0,0-11.13,1.66l-2.82.76c-3.46,1-7.78,2.14-13.07,3.15a109.12,109.12,0,0,1-20.61,2c-1.76,0-3.56,0-5.33-.13a105.22,105.22,0,0,1-25.88-4.42c-5.09-1.6-17-5.36-16.32-15.31.14-2,1.26-8.5,10-10.21a55.14,55.14,0,0,1,5.68-.67l1.77-.15a10.17,10.17,0,0,0-7.4-2.78,50.09,50.09,0,0,0-7.45.84,65.89,65.89,0,0,1-10.74,1.11,30.91,30.91,0,0,1-21.2-8,38.35,38.35,0,0,1-3.92-3.95,34.08,34.08,0,0,1-3.57-5A42.66,42.66,0,0,1,8,194.59,46.82,46.82,0,0,1,5,181a44.38,44.38,0,0,1,.28-7.15,56,56,0,0,1,3.9-15.33c.15-.35.3-.71.47-1.08l.18-.4,3.55-16.25A10.57,10.57,0,0,1,15,137.05l8.87-13a10,10,0,0,1,8.25-4.34,9.7,9.7,0,0,1,1.51.12l12.44,1.81a10.17,10.17,0,0,1,7,4.24l.38.55,9.66-11.11a10,10,0,0,1,5.37-3.2l1-8.6-.15-19.67-3-10.42a9.87,9.87,0,0,1-.2-4.64c0-.07,6.51-31.16,6.51-31.16a9.91,9.91,0,0,1,1.19-3L82.59,20a10,10,0,0,1,3.7-3.59l8-4.6a9.92,9.92,0,0,1,4.73-1.26h1.37l7-3.12a10,10,0,0,1,9.15.55l5.78,3.41,8.12-3.85a10.07,10.07,0,0,1,4.29-1h11.93a10.6,10.6,0,0,1,1.61.13,13.05,13.05,0,0,1,2.58-.26,16.34,16.34,0,0,1,8,2.41l.2.12a20.48,20.48,0,0,1,2.94-.81,17.29,17.29,0,0,1,3.26-.31,16.46,16.46,0,0,1,5.68,1,15.36,15.36,0,0,1,2,.87l.92.26.18-.13A12.63,12.63,0,0,1,180,7.45a10,10,0,0,1,4.19-.92,10.2,10.2,0,0,1,2.19.24l8.32,1.86a10,10,0,0,1,4.21-1.91l7.84-1.53A9.52,9.52,0,0,1,208.61,5a10,10,0,0,1,8.16,4.21l.92,1.3H219a10,10,0,0,1,4.54,1.1l9.6,4.89a10,10,0,0,1,5.12,6.36l2,7.67,6.47,12a9.83,9.83,0,0,1,1.18,4l1.59,19.79a11,11,0,0,1,0,1.62l-.95,11.54,3.22,3.11a10,10,0,0,1,3.05,7.19v11.1l4.77,5.81a10,10,0,0,1,2,4.25l4,18.61,13.26,9.46a9.46,9.46,0,0,1,1.07-.06,10.12,10.12,0,0,1,3.77.74l4.56,1.86a10,10,0,0,1,5.91,6.76l3.75,14.5a11.82,11.82,0,0,1-.22,6.93l1.56.65c7.45,3.12,16.71,7,17.24,16.26.47,8.47-6.93,13.68-14.46,17.48a12.11,12.11,0,0,1,1.94,4.36c2,8.61-5.61,16.24-11.53,21.22a115.67,115.67,0,0,1-22.39,14.49,84.9,84.9,0,0,1-23.4,7.61A153.64,153.64,0,0,1,219.11,254Z"/>
        <path class="cls-3" d="M214.1,249c-5.72,0-11.85-.24-18.23-.71a180.5,180.5,0,0,1-42.6-7.92l-2.57-.76c-5.26-1.54-8.67-2.33-12.68-2.33a44.24,44.24,0,0,0-11.13,1.66l-2.82.76c-3.46,1-7.78,2.14-13.07,3.15a109.12,109.12,0,0,1-20.61,2c-1.76,0-3.56,0-5.33-.13a105.22,105.22,0,0,1-25.88-4.42c-5.09-1.6-17-5.36-16.32-15.31.14-2,1.26-8.5,10-10.21a55.14,55.14,0,0,1,5.68-.67l1.77-.15a10.17,10.17,0,0,0-7.4-2.78,50.09,50.09,0,0,0-7.45.84,65.89,65.89,0,0,1-10.74,1.11,30.91,30.91,0,0,1-21.2-8,38.35,38.35,0,0,1-3.92-3.95,34.08,34.08,0,0,1-3.57-5A42.66,42.66,0,0,1,3,189.59,46.82,46.82,0,0,1,0,176a44.38,44.38,0,0,1,.28-7.15,56,56,0,0,1,3.9-15.33c.15-.35.3-.71.47-1.08l.18-.4,3.55-16.25A10.57,10.57,0,0,1,10,132.05l8.87-13a10,10,0,0,1,8.25-4.34,9.7,9.7,0,0,1,1.51.12l12.44,1.81a10.17,10.17,0,0,1,7,4.24l.38.55,9.66-11.11a10,10,0,0,1,5.37-3.2l1-8.6-.15-19.67-3-10.42a9.87,9.87,0,0,1-.2-4.64c0-.07,6.51-31.16,6.51-31.16a9.91,9.91,0,0,1,1.19-3L77.59,15a10,10,0,0,1,3.7-3.59l8-4.6a9.92,9.92,0,0,1,4.73-1.26h1.37l7-3.12a10,10,0,0,1,9.15.55l5.78,3.41,8.12-3.85a10.07,10.07,0,0,1,4.29-1h11.93a10.6,10.6,0,0,1,1.61.13,13.05,13.05,0,0,1,2.58-.26,16.34,16.34,0,0,1,8,2.41l.2.12a20.48,20.48,0,0,1,2.94-.81,17.29,17.29,0,0,1,3.26-.31,16.46,16.46,0,0,1,5.68,1,15.36,15.36,0,0,1,2,.87l.92.26.18-.13A12.63,12.63,0,0,1,175,2.45a10,10,0,0,1,4.19-.92,10.2,10.2,0,0,1,2.19.24l8.32,1.86a10,10,0,0,1,4.21-1.91L201.7.19A9.52,9.52,0,0,1,203.61,0a10,10,0,0,1,8.16,4.21l.92,1.3H214a10,10,0,0,1,4.54,1.1l9.6,4.89a10,10,0,0,1,5.12,6.36l2,7.67,6.47,12a9.83,9.83,0,0,1,1.18,4l1.59,19.79a11,11,0,0,1,0,1.62l-.95,11.54,3.22,3.11a10,10,0,0,1,3.05,7.19V95.8l4.77,5.81a10,10,0,0,1,2,4.25l4,18.61,13.26,9.46a9.46,9.46,0,0,1,1.07-.06,10.12,10.12,0,0,1,3.77.74l4.56,1.86a10,10,0,0,1,5.91,6.76l3.75,14.5a11.82,11.82,0,0,1-.22,6.93l1.56.65c7.45,3.12,16.71,7,17.24,16.26.47,8.47-6.93,13.68-14.46,17.48a12.11,12.11,0,0,1,1.94,4.36c2,8.61-5.61,16.24-11.53,21.22a115.67,115.67,0,0,1-22.39,14.49,84.9,84.9,0,0,1-23.4,7.61A153.64,153.64,0,0,1,214.11,249Z"/>
        <g>
          <path class="cls-4" d="M272.25,201.16c.18,1.47,4.16,1.41,8.23,1.59s8.25.57,8.8,2.94-2.81,6.73-8.24,11.3a106.28,106.28,0,0,1-20.37,13.17,75.89,75.89,0,0,1-20.78,6.74c-10.11,1.86-24,2.84-43.28,1.41-22.36-1.66-33.89-5.62-43.09-8.31s-16.09-4.13-29.14-.75c-3.67.95-8.76,2.53-15.24,3.76a98.92,98.92,0,0,1-23.6,1.67,94.64,94.64,0,0,1-23.35-4c-5.89-1.85-9.43-3.9-9.35-5.09.09-1.37,5-1.36,10.06-1.92S73.2,222,74,218.38c.49-2.34-1-5.09-2.71-7.35a33.22,33.22,0,0,0-4.1-4.43c-7.82-7-15.55-5.74-23.34-4.49s-15.63,2.5-23.68-4.57a28,28,0,0,1-2.93-2.94,24,24,0,0,1-2.53-3.55,30.66,30.66,0,0,1-2.34-5A36.8,36.8,0,0,1,10,175.34a35.12,35.12,0,0,1,.24-5.45,45.88,45.88,0,0,1,3.2-12.58l.38-.89c.13-.29.26-.59.4-.89l.06-.11a1.17,1.17,0,0,1,0-.11l0-.05s0,0,0,0a15.83,15.83,0,0,1,.76-1.4c.28-.45.59-.89.92-1.32,6.54-8.6,22.53-12.8,40.9-14.79s39.13-1.78,55.23-1.54c17.89.26,35.8,2.43,53.7,4s35.78,2.67,53.62.71a63.7,63.7,0,0,1,12.55.51c8.4,1,21,3.34,38,9a44.47,44.47,0,0,1,5,2,20.73,20.73,0,0,1,6.23,4.21,7.67,7.67,0,0,1,1.2,1.94,10.81,10.81,0,0,1,.43,1.1c.09.18.15.31.19.41a2.13,2.13,0,0,1,.09.21c.32,1.07-.52,2.3-1.45,3.53s-2,2.47-2,3.57c-.16,2.66,5.18,4.85,10.61,7.13s10.94,4.62,11.11,7.6c.2,3.57-7.25,7.31-14.69,10.65S272,199.11,272.25,201.16Z"/>
          <path class="cls-5" d="M246.87,108l-3.55-4.28-3.56-4.27h.07V84.7l-3.33-3.22-3.33-3.22.69-8.11.68-8.11-5.48-20.82-5.48-20.81L218.78,18,214,15.51h-6.46l-2-2.75-2-2.76-3.91.76-3.92.77-2.84,2.6-2.83,2.6-.69-1.53-.68-1.53-4.8-1.07-4.8-1.07-.65,1.29-.65,1.29h0c-.58-.13-1,.12-1.68.47a10.25,10.25,0,0,1-3.26,1.05,9.68,9.68,0,0,1-4.88-.5,19.26,19.26,0,0,0-5.09-1.2,17.87,17.87,0,0,0-6,.45,15.45,15.45,0,0,1-5.68.4H151l-.42,0-.4,0-.14,0h-.13l-.25,0-.25,0-.13,0-.12,0-.36-.06-.35-.05-.22,0-.22,0-.22,0-.21,0-.31-.06-.3,0-.19,0-.19,0-.18,0-.18,0-.26,0-.26,0-.66-.07c-.21,0-.41,0-.59,0h-.28l-.12,0h-.13l-.16,0-.16,0-.07,0a.19.19,0,0,0-.08,0s0,0-.08,0l-.07,0-.07,0-.06,0-.07,0-.07,0-.62-1.38-.62-1.37H129.82l-6.46,3.06-6.46,3.06-5.1-3-5.09-3-.1-.05-.09-.06-3,1.32-3,1.31-1.48.66-1.48.65,0,0,0,0H94.19l-.13.07-.12.07L91.67,17l-2.27,1.3-1.61.92-1.6.92h0l-4.4,7.34-4.4,7.35,0,.2,0,.21-.65,3.09L76,41.39,73.44,53.54,70.9,65.67l8.63-10.14,8.63-10.14L79.53,55.55,70.9,65.72l1.68,5.86,1.68,5.87.08,10.82.08,10.81-1.27,11.33-1.28,11.33v11.4l2.48.8,2.48.8,2.85-4.47,2.84-4.48h0V126l2.83-2.66,2.82-2.66.15-1.24.15-1.23h0l8-6.75,7.94-6.74,2.59,2.7,2.58,2.71.9.94.91,1,1,1,1,1-.35-2.14-.36-2.14-.27-1.6-.27-1.61,1.21,0,1.21,0,6,.09,6,.09.11,1.72.1,1.71,0-.75,0-.74.06-.73.06-.74,2.73,3,2.74,3c.1,1.42.21,2.85.33,4.27s.23,2.86.34,4.29l.09,1.07.09,1.07.27,3.23c.09,1.07.19,2.15.28,3.22.06.71.12,1.4.18,2.09s.12,1.37.19,2c0,.2,0,.41,0,.61l.06.6c0,.32.06.65.1,1l.09.95c0,.13,0,.25,0,.38s0,.25,0,.38q.09.9.18,1.77c.06.59.12,1.16.19,1.72,0,.26,0,.52.08.77l.09.75v.06c0,.21.05.43.08.64s0,.43.07.64a3.11,3.11,0,0,0,0,.32l0,.32a1,1,0,0,1,0,.16,1,1,0,0,1,0,.17l.09.72c0,.23.05.47.08.7,0,0,0,.05,0,.07s0,.05,0,.07c0,.2,0,.41.07.61s0,.39.07.59,0,.23.05.34,0,.23,0,.35c.07.54.14,1.07.2,1.58s.13,1,.2,1.48.1.75.14,1.11.1.7.15,1l22.88.43,22.88.42q.19-2.91.39-5.76c.12-1.9.24-3.78.35-5.63.06-1,.12-2,.18-3s.11-2,.17-3h0l6.38-3.5,6.37-3.51,7.65-3.8,7.64-3.8,2.43.6,2.42.6,2.76.69,2.77.69.14,0,.14,0,1.17.3,1.17.29,2.11.52,2.12.53,2.18-1.83,2.18-1.84.36-.31.37-.3,3.13.61,3.13.61,2.25,1.84,2.25,1.83h3.72l1.75,1.25,1.74,1.24L249.3,119.3Z"/>
          <polygon class="cls-6" points="92.78 32.67 92.73 33.39 92.68 34.11 92.46 37.34 92.24 40.58 92.24 40.59 92.23 40.61 92.23 40.68 92.23 40.75 91.69 48.53 91.16 56.32 90.69 63.24 90.21 70.15 90.69 82.8 91.16 95.45 90.52 100.84 89.88 106.23 89.17 112.19 88.46 118.16 88.46 118.16 88.46 118.16 88.31 119.39 88.16 120.63 85.33 123.29 82.5 125.95 82.52 125.87 82.52 125.8 82.53 125.79 82.53 125.79 82.53 125.79 82.53 125.79 82.73 124.13 82.93 122.48 82.93 122.47 82.93 122.47 83.49 117.98 84.04 113.48 84.16 112.51 84.28 111.54 84.28 111.54 84.28 111.54 85.23 103.74 86.19 95.94 85.19 84.72 84.19 73.49 86.18 59.45 88.16 45.4 88.16 45.4 88.16 45.39 90.47 39.03 92.78 32.67"/>
          <polygon class="cls-7" points="95.81 40.61 94.34 40.67 92.87 40.72 92.75 40.73 92.64 40.73 92.43 40.74 92.23 40.75 92.17 40.75 92.11 40.76 84.04 41.07 75.98 41.39 76.62 38.3 77.27 35.21 77.31 35 77.36 34.8 81.76 27.45 86.16 20.1 86.18 20.1 86.19 20.09 87.79 19.17 89.4 18.25 91.16 24.4 92.92 30.55 93.28 31.79 93.63 33.03 94.72 36.82 95.81 40.61"/>
          <polygon class="cls-7" points="96.87 15.51 95.25 24.27 93.63 33.03 92.94 36.77 92.25 40.51 92.25 40.56 92.23 40.61 92.22 40.55 92.2 40.49 89.2 30.29 86.19 20.09 87.79 19.17 89.4 18.25 91.67 16.95 93.94 15.65 94.07 15.58 94.19 15.51 95.53 15.51 96.87 15.51"/>
          <polygon class="cls-8" points="84.19 73.49 85.19 84.72 86.19 95.95 80.31 97.51 74.42 99.08 74.34 88.27 74.26 77.45 79.23 75.47 84.19 73.49"/>
          <polygon class="cls-9" points="94.96 41.46 93.8 41.1 92.64 40.73 92.44 40.67 92.23 40.61 92.17 40.68 92.11 40.76 81.51 53.22 70.9 65.68 73.44 53.53 75.98 41.39 76.62 38.3 77.27 35.21 84.73 37.85 92.2 40.49 92.22 40.49 92.24 40.5 92.25 40.51 92.25 40.51 92.56 40.62 92.87 40.72 93.92 41.09 94.96 41.46"/>
          <polygon class="cls-9" points="107.21 77.45 99.19 66.89 91.16 56.32 91.69 48.54 92.23 40.75 92.23 40.68 92.23 40.61 92.24 40.56 92.24 40.5 92.58 35.53 92.92 30.55 93.43 23.1 93.94 15.65 94.07 15.58 94.19 15.51 95.85 15.51 97.52 15.51 97.56 15.49 97.61 15.47 99.09 14.82 100.57 14.16 103.89 45.81 107.21 77.45"/>
          <polygon class="cls-9" points="116.9 17.66 113.16 31.95 109.43 46.25 107.97 28.89 106.52 11.54 106.52 11.53 106.52 11.53 106.61 11.59 106.71 11.64 111.8 14.65 116.9 17.66"/>
          <polygon class="cls-6" points="82.93 122.47 82.93 123.81 82.93 125.15 82.73 125.47 82.53 125.79 82.53 125.79 82.53 125.79 82.53 125.79 82.52 125.8 79.68 130.27 76.83 134.74 74.35 133.94 71.88 133.14 71.88 127.44 71.88 121.73 74.55 121.91 77.23 122.09 80.08 122.28 82.93 122.47"/>
          <polygon class="cls-9" points="74.26 77.45 79.23 75.47 84.19 73.49 88.15 57.12 92.11 40.76 81.5 53.23 70.9 65.72 72.58 71.58 74.26 77.45"/>
          <polygon class="cls-8" points="74.42 99.08 73.15 110.41 71.88 121.73 77.4 122.1 82.93 122.47 84.56 109.21 86.19 95.95 80.31 97.51 74.42 99.08"/>
          <polygon class="cls-9" points="104.35 104.67 96.41 111.41 88.46 118.16 88.46 118.16 88.46 118.16 89.17 112.19 89.88 106.23 90.52 100.84 91.16 95.45 93.85 96.78 96.53 98.11 98.01 98.84 99.5 99.58 101.93 102.12 104.35 104.67"/>
          <polygon class="cls-9" points="113.33 114.07 112.33 113.02 111.33 111.97 110.42 111.02 109.52 110.08 106.94 107.37 104.35 104.67 101.93 102.12 99.5 99.58 100.52 96.64 101.55 93.7 103.55 87.94 105.56 82.18 106.38 79.82 107.21 77.45 108.57 85.58 109.93 93.7 110.03 94.35 110.14 95 111.11 100.79 112.08 106.58 112.35 108.19 112.62 109.79 112.97 111.93 113.33 114.07"/>
          <polygon class="cls-10" points="79.07 66.28 78.1 71.33 77.12 76.38 78.64 81.91 80.16 87.45 79.61 81.53 79.07 75.6 79.07 70.94 79.07 66.28"/>
          <polygon class="cls-7" points="79.49 75.44 79.28 70.86 79.07 66.28 78.74 71.07 78.41 75.87 79.28 81.66 80.16 87.45 79.82 81.44 79.49 75.44"/>
          <polygon class="cls-8" points="84.19 73.49 82.61 85.5 81.03 97.52 82.65 104.53 84.28 111.54 85.23 103.75 86.19 95.95 85.19 84.72 84.19 73.49"/>
          <polygon class="cls-9" points="91.16 56.32 90.69 63.24 90.21 70.15 98.71 73.8 107.21 77.45 99.19 66.89 91.16 56.32"/>
          <polygon class="cls-9" points="90.21 70.15 90.69 82.8 91.16 95.45 95.33 97.52 99.5 99.58 103.35 88.52 107.21 77.45 98.71 73.8 90.21 70.15"/>
          <polygon class="cls-11" points="97.61 15.47 94.92 28.11 92.23 40.75 84.75 37.98 77.27 35.21 81.73 27.65 86.19 20.09 90.19 17.8 94.19 15.51 95.9 15.49 97.61 15.47"/>
          <polygon class="cls-9" points="106.52 11.53 102.06 13.5 97.61 15.47 94.92 28.11 92.23 40.75 100.06 34.4 107.9 28.06 107.21 19.8 106.52 11.53"/>
          <polygon class="cls-9" points="107.9 28.06 105.2 30.25 102.49 32.44 104.85 54.95 107.21 77.45 108.32 61.85 109.43 46.25 108.66 37.16 107.9 28.06"/>
          <polygon class="cls-7" points="106.52 11.53 102.06 13.5 97.61 15.47 94.92 28.11 92.23 40.75 104.56 29.2 116.9 17.66 116.9 17.66 116.9 17.66 111.71 14.59 106.52 11.53"/>
          <polygon class="cls-12" points="201.27 86.29 198.71 108.58 196.15 130.88 192.74 133.81 189.32 136.74 186.36 137.83 183.4 138.91 183.4 138.91 183.4 138.91 183.4 138.91 183.4 138.91 178.34 141.19 173.27 143.46 176.53 116.78 179.78 90.1 180.51 89.97 181.24 89.84 183.14 89.5 185.05 89.17 186.07 88.98 187.1 88.8 194.19 87.55 201.27 86.29"/>
          <polygon class="cls-13" points="116.24 98.24 116.57 100.4 116.9 102.56 115.7 104.59 114.5 106.61 113.56 108.2 112.62 109.79 111.97 110.88 111.33 111.97 110.71 113.02 110.09 114.07 109.8 112.07 109.52 110.08 108.36 101.89 107.19 93.7 106.38 87.94 105.56 82.18 105.3 80.37 105.04 78.56 105.13 77.58 105.21 76.59 105.27 75.79 105.34 74.99 105.69 70.67 106.04 66.36 106.89 56.09 107.73 45.81 108.39 43.78 109.05 41.75 112.97 29.7 116.9 17.65 114.45 39.24 112.01 60.82 111.7 63.55 111.4 66.28 112.94 76.43 114.47 86.58 115.36 92.41 116.24 98.24"/>
          <polygon class="cls-12" points="122.78 44.49 116.1 45.37 109.43 46.25 109.07 51.29 108.71 56.32 117.15 67.82 125.59 79.31 124.18 61.9 122.78 44.49"/>
          <polygon class="cls-7" points="141.76 11.53 132.27 28.01 122.78 44.49 124.78 77.36 126.79 110.23 128.38 81.38 129.96 52.53 135.86 32.03 141.76 11.53"/>
          <polygon class="cls-9" points="141.76 11.53 134.91 30.99 128.06 50.44 127.54 75.84 127.03 101.25 126.81 104.02 126.58 106.81 126.74 106.98 126.91 107.16 126.89 107.95 126.87 108.74 126.94 108.01 127 107.27 131.6 109.41 136.19 111.54 136.09 82.53 135.98 53.52 140.04 35.13 144.11 16.74 142.93 14.13 141.76 11.53"/>
          <polygon class="cls-12" points="108.71 56.32 107.96 66.89 107.21 77.45 108.65 86.29 110.09 95.12 115.67 84.26 121.25 73.39 114.98 64.86 108.71 56.32"/>
          <polygon class="cls-12" points="187.1 30.96 183.44 24.31 179.78 17.66 181.59 55.09 183.4 92.52 192.34 89.4 201.28 86.29 197.76 58.63 194.25 30.96 190.67 30.96 187.1 30.96"/>
          <polygon class="cls-7" points="188.74 13.68 183.94 12.61 179.14 11.53 178.49 12.82 177.83 14.11 182.46 22.54 187.1 30.96 190.67 30.96 194.25 30.96 192.18 23.85 190.11 16.74 189.42 15.21 188.74 13.68"/>
          <polygon class="cls-9" points="187.1 30.96 187.1 61.09 187.1 91.23 185.25 114.56 183.4 137.88 183.4 137.75 183.39 137.62 182.31 113.73 181.24 89.84 179.53 51.98 177.83 14.11 178.49 12.82 179.14 11.53 183.12 21.25 187.1 30.96"/>
          <polygon class="cls-7" points="129.81 11.53 123.36 14.59 116.9 17.66 113.16 31.95 109.43 46.25 116.1 45.37 122.78 44.49 132.27 28.01 141.76 11.53 135.79 11.53 129.81 11.53"/>
          <polygon class="cls-12" points="126.58 106.8 120.54 106.71 114.5 106.61 113.29 106.6 112.08 106.58 112.02 106.58 111.95 106.58 111.02 100.85 110.09 95.12 110.11 95.06 110.14 95 110.48 94.35 110.82 93.7 112.65 90.14 114.47 86.58 117.86 79.99 121.25 73.39 123.04 75.84 124.84 78.29 125.45 88.27 126.06 98.24 126.32 102.52 126.58 106.8"/>
          <g>
            <g>
              <polygon class="cls-7" points="51.06 155.28 32.72 155.28 14.38 155.28 14.39 155.25 14.4 155.21 16.29 146.54 18.19 137.88 18.21 137.79 18.23 137.7 22.66 131.23 27.1 124.75 27.14 124.76 27.19 124.77 27.74 124.85 28.29 124.93 33.89 125.75 39.5 126.56 39.66 126.58 39.82 126.6 39.93 126.76 40.04 126.92 43.63 132.16 47.22 137.4 47.92 138.43 48.63 139.45 48.66 139.5 48.69 139.55 49.86 147.3 51.02 155.05 51.04 155.16 51.06 155.28"/>
              <polygon class="cls-6" points="30.65 138.63 34.18 135.53 37.72 132.43 38.13 133.36 38.54 134.3 38.77 134.82 38.99 135.34 41.38 140.75 43.76 146.16 44.38 150.72 45.01 155.28 39.12 155.28 33.23 155.28 31.94 146.96 30.65 138.63"/>
              <path class="cls-14" d="M51,155.05l-.27.11-.29.12H44.89c-.18-1.23-.39-2.88-.59-4.54s-.39-3.31-.54-4.58c-.07-.66-.13-1.21-.18-1.6s-.06-.61-.06-.61l1.85-3.27,1.85-3.28.7,1,.7,1,0,.05,0,.06,1.17,7.74Z"/>
              <polygon class="cls-5" points="48.63 139.46 46.22 142.86 43.81 146.26 43.79 146.21 43.77 146.16 41.36 140.93 38.95 135.7 38.72 135.2 38.49 134.7 38.99 130.63 39.5 126.56 39.66 126.58 39.82 126.61 39.93 126.76 40.04 126.92 43.63 132.16 47.22 137.4 47.92 138.43 48.63 139.46"/>
              <polygon class="cls-7" points="30.65 138.63 24.42 138.25 18.19 137.88 18.21 137.79 18.23 137.7 22.66 131.23 27.1 124.75 27.14 124.76 27.19 124.77 27.74 124.85 28.29 124.93 29.47 131.78 30.65 138.63"/>
              <polygon class="cls-9" points="40.04 126.92 39.49 131.31 38.95 135.7 38.94 135.78 38.93 135.85 34.79 137.24 30.65 138.63 28.92 131.7 27.19 124.77 33.34 125.66 39.5 126.56 39.66 126.58 39.82 126.61 39.93 126.76 40.04 126.92"/>
              <polygon class="cls-12" points="33.8 155.28 24.09 155.28 14.38 155.28 14.39 155.25 14.4 155.21 22.52 146.92 30.65 138.63 32.23 146.96 33.8 155.28"/>
            </g>
            <polygon class="cls-6" points="43.47 145.57 40.5 145.57 37.53 145.57 40.31 150.44 43.08 155.3 48.45 155.3 53.83 155.3 48.65 150.44 43.47 145.57"/>
            <polygon class="cls-6" points="108.25 143.32 105.43 149.31 102.61 155.3 95.65 155.3 88.69 155.3 94.9 141.6 101.12 127.9 104.69 135.61 108.25 143.32"/>
            <polygon class="cls-9" points="127.01 129.28 124 142.29 121 155.3 110.53 155.3 100.06 155.3 101.07 149.38 102.09 143.46 101.6 135.68 101.12 127.9 102.42 118.67 103.72 109.44 113.34 112.28 122.96 115.12 124.98 122.2 127.01 129.28"/>
            <polygon class="cls-6" points="155.72 155.3 137.4 155.3 119.08 155.3 120.93 137.61 122.78 119.91 131.54 114.09 140.29 108.28 142.02 111.07 143.75 113.87 143.79 113.93 143.83 113.99 149.11 125.75 154.4 137.52 155.06 146.41 155.72 155.3"/>
            <polygon class="cls-12" points="143.75 113.87 133.27 116.89 122.78 119.91 113.67 115.36 104.55 110.82 104.14 103.73 103.72 96.64 107.4 96.64 111.07 96.64 113.02 98.87 114.97 101.11 115 101.14 115.03 101.18 125.47 101.18 135.9 101.18 139.83 107.52 143.75 113.87"/>
            <polygon class="cls-12" points="103.38 96.64 102.25 112.27 101.12 127.9 97.86 135.06 94.6 142.22 87.91 142.77 81.22 143.32 77.52 135.88 73.82 128.45 80.03 120.6 86.24 112.75 92.84 104.69 99.45 96.64 101.41 96.64 103.38 96.64"/>
            <polygon class="cls-10" points="110.51 103.52 107.53 107.17 104.55 110.82 102.84 119.36 101.12 127.9 101.6 117.98 102.09 108.06 105.12 105.21 108.16 102.35 109.34 102.93 110.51 103.52"/>
            <polygon class="cls-9" points="114.97 101.11 108.53 104.59 102.09 108.06 100.78 102.35 99.48 96.64 105.27 96.64 111.07 96.64 113.02 98.87 114.97 101.11"/>
            <polygon class="cls-5" points="154.74 142.15 136.91 148.72 119.08 155.3 131.46 134.65 143.83 113.99 149.11 125.75 154.4 137.51 154.4 137.52 154.4 137.52 154.57 139.83 154.74 142.15"/>
            <polygon class="cls-14" points="155.72 155.3 137.4 155.3 119.08 155.3 136.74 146.41 154.4 137.51 154.4 137.52 154.4 137.52 155.06 146.41 155.72 155.3"/>
            <polygon class="cls-9" points="73.82 128.45 87.47 128.17 101.12 127.9 94.9 141.6 88.69 155.3 83.24 155.3 77.78 155.3 75.8 141.88 73.82 128.45"/>
            <polygon class="cls-12" points="102.09 143.46 103.32 127.14 104.55 110.82 102.84 119.36 101.12 127.9 101.6 135.68 102.09 143.46"/>
            <polygon class="cls-10" points="65.63 116.92 63.47 125.78 61.31 134.65 63.08 140.53 64.84 146.41 64.48 140.07 64.13 133.73 67.67 129.24 71.21 124.75 68.42 120.84 65.63 116.92"/>
            <polygon class="cls-12" points="45.55 140.02 53.43 137.33 61.31 134.65 63.47 125.78 65.63 116.92 55.59 128.47 45.55 140.02"/>
            <polygon class="cls-9" points="61.31 134.65 53.43 137.33 45.55 140.02 49.69 147.66 53.83 155.3 58.36 155.3 62.9 155.3 63.87 150.85 64.84 146.41 63.08 140.53 61.31 134.65"/>
            <polygon class="cls-12" points="71.21 124.75 67.67 129.24 64.13 133.73 68.97 131.09 73.82 128.45 72.52 126.6 71.21 124.75"/>
            <polygon class="cls-6" points="73.82 128.45 75.8 141.88 77.78 155.3 71.31 150.85 64.84 146.41 64.48 140.07 64.13 133.73 68.97 131.09 73.82 128.45"/>
            <polygon class="cls-5" points="64.84 146.41 63.87 150.85 62.9 155.3 70.34 155.3 77.78 155.3 71.31 150.85 64.84 146.41"/>
            <polygon class="cls-10" points="64.84 146.41 63.87 150.85 62.9 155.3 64.79 155.3 66.69 155.3 65.76 150.85 64.84 146.41"/>
            <polygon class="cls-12" points="33.93 140.02 35.73 142.79 37.53 145.57 40.5 145.57 43.47 145.57 44.51 142.79 45.55 140.02 39.74 140.02 33.93 140.02"/>
            <polygon class="cls-7" points="33.93 140.02 31.28 147.66 28.64 155.3 33.09 150.44 37.53 145.57 35.73 142.79 33.93 140.02"/>
            <polygon class="cls-10" points="45.55 140.02 44.51 142.79 43.47 145.57 48.65 150.44 53.83 155.3 49.69 147.66 45.55 140.02"/>
            <polygon class="cls-9" points="37.53 145.57 40.31 150.44 43.08 155.3 35.86 155.3 28.64 155.3 33.09 150.44 37.53 145.57 37.53 145.57 37.53 145.57"/>
            <polygon class="cls-10" points="53.54 137.29 54.37 135.51 55.19 133.73 54.96 135.31 54.73 136.89 55.78 146.09 56.82 155.3 55.18 146.3 53.54 137.29"/>
            <polygon class="cls-15" points="103.72 108.48 102.42 118.19 101.12 127.9 102.84 119.36 104.55 110.82 107.53 107.17 110.51 103.52 107.12 106 103.72 108.48"/>
            <polygon class="cls-15" points="55.19 133.73 55.19 135.23 55.19 136.73 56.01 146.02 56.82 155.3 55.69 146.12 54.55 136.94 54.87 135.33 55.19 133.73"/>
          </g>
          <g class="cls-16">
            <polygon class="cls-17" points="154.74 142.15 154.74 142.15 154.74 142.15 154.57 139.83 154.4 137.52 149.11 125.75 143.83 113.99 143.79 113.93 143.75 113.87 139.83 107.52 135.9 101.18 125.47 101.18 115.03 101.18 115 101.14 114.97 101.11 113.02 98.87 111.07 96.64 107.4 96.64 103.72 96.64 103.55 96.64 103.38 96.64 101.43 96.64 99.48 96.64 99.46 96.64 99.45 96.64 92.84 104.69 86.24 112.75 80.03 120.6 73.82 128.45 72.52 126.6 71.21 124.75 67.67 129.24 64.13 133.73 64.48 140.07 64.84 146.41 71.31 150.85 77.78 155.3 83.24 155.3 88.69 155.3 94.79 141.86 100.89 128.41 101 128.16 101.12 127.9 101.12 127.9 101.12 127.9 94.9 141.6 88.69 155.3 94.38 155.3 100.06 155.3 101.34 155.3 102.61 155.3 110.85 155.3 119.08 155.3 120.04 155.3 121 155.3 138.36 155.3 155.72 155.3 155.23 148.72 154.74 142.15"/>
            <polygon class="cls-17" points="71.21 124.75 68.42 120.84 65.63 116.92 56.56 127.36 47.49 137.79 47.35 137.6 47.22 137.4 46.86 136.87 46.49 136.34 43.27 131.63 40.04 126.92 39.93 126.76 39.82 126.61 39.82 126.61 39.82 126.61 39.82 126.6 39.82 126.6 39.74 126.59 39.67 126.58 39.59 126.57 39.5 126.56 33.48 125.68 27.47 124.81 27.41 124.8 27.34 124.79 27.27 124.78 27.19 124.77 27.14 124.76 27.1 124.75 22.66 131.23 18.23 137.7 18.21 137.76 18.2 137.82 18.19 137.85 18.19 137.88 18.19 137.88 18.19 137.88 18.19 137.88 18.19 137.88 16.29 146.54 14.4 155.21 14.39 155.25 14.38 155.28 21.51 155.28 28.65 155.28 28.64 155.29 28.64 155.3 35.86 155.3 43.08 155.3 43.08 155.3 43.08 155.3 48.45 155.3 53.83 155.3 58.36 155.3 62.9 155.3 64.79 155.3 66.69 155.3 72.23 155.3 77.78 155.3 71.31 150.85 64.84 146.41 64.48 140.07 64.13 133.73 67.67 129.24 71.21 124.75"/>
          </g>
          <polygon class="cls-8" points="120.39 44.81 124.26 40.01 128.12 35.21 125.45 39.85 122.78 44.49 123.26 52.42 123.75 60.35 122.07 52.58 120.39 44.81"/>
          <polygon class="cls-15" points="128.12 35.21 125.45 39.85 122.78 44.49 123.26 52.42 123.75 60.35 123.59 52.79 123.43 45.23 125.78 40.22 128.12 35.21"/>
          <polygon class="cls-7" points="207.53 15.51 205.57 12.76 203.61 10 199.7 10.77 195.78 11.53 192.94 14.13 190.11 16.74 192.56 23.85 195.01 30.96 202.52 30.1 210.04 29.23 208.78 22.37 207.53 15.51"/>
          <polygon class="cls-12" points="210.04 29.23 202.52 30.1 195.01 30.96 198.14 58.63 201.28 86.29 198.71 108.58 196.15 130.88 203.8 127.07 211.44 123.27 213.38 102.96 215.33 82.65 212.68 55.94 210.04 29.23"/>
          <polygon class="cls-9" points="190.11 16.74 194.79 23.59 199.48 30.45 200.38 58.37 201.28 86.29 197.76 58.63 194.25 30.96 192.18 23.85 190.11 16.74"/>
          <polygon class="cls-5" points="197.67 30.96 193.89 23.85 190.11 16.74 192.18 23.85 194.25 30.96 197.76 58.63 201.28 86.29 199.47 58.63 197.67 30.96"/>
          <polygon class="cls-7" points="223.58 20.41 218.78 17.96 213.99 15.51 210.76 15.51 207.53 15.51 208.78 22.37 210.04 29.23 215.4 30.89 220.77 32.55 223.34 30.89 225.9 29.23 224.74 24.82 223.58 20.41"/>
          <polygon class="cls-12" points="220.77 32.55 215.4 30.89 210.04 29.23 212.68 55.94 215.33 82.65 213.38 102.96 211.44 123.27 215.73 127.07 220.01 130.88 221.66 106.16 223.3 81.44 222.03 57 220.77 32.55"/>
          <polygon class="cls-12" points="225.9 29.23 223.34 30.89 220.77 32.55 222.03 57 223.3 81.44 221.66 106.16 220.01 130.88 224.44 130.88 228.87 130.88 231.71 96.46 234.54 62.04 230.22 45.64 225.9 29.23"/>
          <polygon class="cls-7" points="233.17 78.26 232.49 86.72 231.81 95.17 233.42 98.65 235.03 102.13 237.43 100.76 239.82 99.39 239.82 92.04 239.82 84.69 236.5 81.48 233.17 78.26"/>
          <polygon class="cls-9" points="235.03 102.13 233.42 98.65 231.81 95.17 230.5 111.14 229.18 127.12 232.95 131.4 236.72 135.69 235.87 118.91 235.03 102.13"/>
          <polygon class="cls-9" points="235.03 102.13 235.2 105.45 235.36 108.77 241.12 108.37 246.87 107.96 243.35 103.67 239.82 99.39 235.03 102.13"/>
          <polygon class="cls-9" points="246.87 107.96 241.12 108.37 235.36 108.77 235.96 120.63 236.56 132.47 244.15 131.56 251.73 130.65 249.3 119.3 246.87 107.96"/>
          <polygon class="cls-18" points="210.04 29.23 204.76 29.84 199.48 30.45 200.38 58.37 201.28 86.29 201.28 109.9 201.27 133.51 206.36 128.39 211.44 123.27 213.38 102.96 215.33 82.65 212.68 55.94 210.04 29.23"/>
          <polygon class="cls-6" points="220.77 32.55 221.71 50.77 222.66 68.99 224.28 49.11 225.9 29.23 223.34 30.89 220.77 32.55"/>
          <polygon class="cls-7" points="232.95 42.25 229.43 35.74 225.9 29.23 224.63 44.79 223.36 60.35 225.56 62.46 227.76 64.57 231.15 63.3 234.54 62.04 233.75 52.14 232.95 42.25"/>
          <polygon class="cls-5" points="229.63 55.91 228.7 60.24 227.76 64.57 228.7 73.61 229.63 82.65 229.41 73.35 229.18 64.04 229.41 59.97 229.63 55.91"/>
          <polygon class="cls-15" points="229.63 55.91 229.41 59.97 229.18 64.04 229.41 73.14 229.63 82.24 229.75 73.01 229.88 63.78 229.75 59.84 229.63 55.91"/>
          <polygon class="cls-6" points="222.66 68.99 223.01 74.52 223.36 80.05 221.37 104.41 219.38 128.76 221.37 129.25 223.36 129.75 223.77 104.9 224.19 80.05 223.42 74.52 222.66 68.99"/>
          <polygon class="cls-5" points="210.04 29.23 208.78 22.37 207.53 15.51 209.79 22.68 212.06 29.86 211.82 37.4 211.59 44.94 210.81 37.09 210.04 29.23"/>
          <polygon class="cls-9" points="207.53 15.51 210.2 22.81 212.88 30.11 212.24 37.53 211.59 44.94 211.82 37.59 212.06 30.23 209.79 22.87 207.53 15.51"/>
          <g>
            <polygon class="cls-9" points="283.3 160.31 227.69 160.31 172.08 160.31 173.27 157.83 174.46 155.35 174.46 151.94 174.46 148.52 178.03 143.72 181.6 138.91 184.97 137.68 188.34 136.44 190.82 133.95 193.3 131.47 194.25 131 195.21 130.52 199.45 128.41 203.7 126.3 204.93 125.68 206.17 125.07 208.46 123.93 210.74 122.79 213.2 123.4 215.65 124.02 218.45 124.71 221.25 125.41 221.39 125.44 221.54 125.48 222.72 125.77 223.9 126.07 226.04 126.6 228.19 127.13 230.39 125.28 232.6 123.42 232.97 123.11 233.34 122.79 236.51 123.42 239.68 124.03 241.96 125.89 244.24 127.75 246.13 127.75 248.01 127.75 249.78 129.01 251.54 130.27 262.17 137.85 272.79 145.42 273.88 144.65 274.97 143.88 277.25 144.8 279.53 145.73 281.41 153.02 283.3 160.31"/>
            <polygon class="cls-12" points="228.19 127.13 227.1 143.72 226.01 160.31 219.35 160.31 212.69 160.31 211.39 151.56 210.1 142.81 219.14 134.97 228.19 127.13"/>
            <polygon class="cls-7" points="210.74 122.79 202.02 127.13 193.29 131.47 190.82 133.95 188.34 136.44 190.11 137.94 191.88 139.44 200.99 141.13 210.1 142.81 219.14 134.97 228.19 127.14 219.46 124.97 210.74 122.79"/>
            <polygon class="cls-7" points="239.68 124.03 236.51 123.42 233.34 122.79 230.76 124.97 228.19 127.14 231.16 130.73 234.13 134.32 239.19 131.03 244.24 127.75 241.96 125.89 239.68 124.03"/>
            <polygon class="cls-7" points="248.01 127.75 246.13 127.75 244.24 127.75 246.71 133.98 249.18 140.21 260.98 142.82 272.79 145.42 260.4 136.59 248.01 127.75"/>
            <polygon class="cls-7" points="274.97 143.87 273.88 144.65 272.79 145.42 273.94 147.71 275.08 150 277.31 147.87 279.53 145.73 277.25 144.8 274.97 143.87"/>
            <polygon class="cls-9" points="234.13 134.32 231.16 130.73 228.19 127.14 227.1 143.72 226.01 160.31 231.88 160.31 237.75 160.31 235.94 147.31 234.13 134.32"/>
            <polygon class="cls-12" points="244.24 127.75 241 144.03 237.75 160.31 243.46 150.26 249.18 140.21 246.71 133.98 244.24 127.75"/>
            <polygon class="cls-12" points="279.53 145.73 277.31 147.87 275.08 150 275.34 155.16 275.59 160.31 279.44 160.31 283.3 160.31 281.41 153.02 279.53 145.73"/>
            <polygon class="cls-6" points="275.08 150 273.94 147.71 272.79 145.42 272.35 148.09 271.91 150.76 273.75 155.53 275.59 160.31 275.34 155.16 275.08 150"/>
            <polygon class="cls-12" points="273.32 150.49 273.06 147.96 272.79 145.42 260.98 142.82 249.18 140.21 251.63 150.26 254.08 160.31 264.84 160.31 275.59 160.31 274.45 155.4 273.32 150.49"/>
            <polygon class="cls-7" points="188.34 136.44 184.97 137.68 181.6 138.91 178.03 143.72 174.46 148.52 179.48 148.11 184.5 147.7 188.19 143.57 191.88 139.44 190.11 137.94 188.34 136.44"/>
            <polygon class="cls-9" points="210.1 142.81 200.99 141.13 191.88 139.44 188.19 143.57 184.5 147.7 184.9 154 185.3 160.31 199 160.31 212.69 160.31 211.39 151.56 210.1 142.81"/>
            <polygon class="cls-15" points="275.08 150 273.94 147.71 272.79 145.42 273.41 147.71 274.04 150 274.81 155.16 275.59 160.31 275.34 155.16 275.08 150"/>
            <polygon class="cls-6" points="251.61 136.59 252.1 138.78 252.6 140.96 252.35 146.58 252.1 152.2 253.21 146.77 254.31 141.34 252.96 138.97 251.61 136.59"/>
            <polygon class="cls-15" points="251.61 136.59 252.61 138.9 253.6 141.21 252.85 146.71 252.1 152.2 253.5 146.83 254.89 141.47 253.25 139.03 251.61 136.59"/>
            <polygon class="cls-6" points="234.13 134.32 234.88 139.72 235.64 145.12 235.92 139.04 236.21 132.97 236.98 130.76 237.75 128.56 235.94 131.44 234.13 134.32"/>
            <polygon class="cls-15" points="237.75 128.56 235.73 131.18 233.71 133.81 234.68 139.47 235.64 145.12 235.16 139.51 234.68 133.9 236.21 131.23 237.75 128.56"/>
            <polygon class="cls-6" points="191.88 139.44 190.11 137.94 188.34 136.44 192.19 138.33 196.05 140.22 194.24 150.26 192.44 160.31 192.16 149.88 191.88 139.44"/>
          </g>
          <polygon class="cls-19" points="279.53 145.73 277.73 145 275.93 144.26 275.45 144.07 274.97 143.87 274.24 144.39 273.51 144.91 273.15 145.17 272.79 145.42 263.14 138.54 253.49 131.66 250.75 129.71 248.01 127.75 246.13 127.75 244.24 127.75 243.59 127.22 242.94 126.69 241.31 125.36 239.68 124.03 236.51 123.42 233.34 122.79 233.29 122.84 233.24 122.88 232.92 123.15 232.6 123.42 230.39 125.28 228.19 127.13 226.04 126.6 223.9 126.07 222.72 125.77 221.54 125.48 221.39 125.44 221.25 125.41 218.45 124.71 215.65 124.02 213.65 123.52 211.65 123.02 211.19 122.91 210.74 122.79 207.28 124.51 203.83 126.23 203.76 126.26 203.7 126.3 203.67 126.31 203.65 126.32 198.54 128.86 193.44 131.4 193.37 131.44 193.3 131.47 193.29 131.47 193.29 131.47 193.29 131.47 193.29 131.47 192.85 131.91 192.41 132.35 190.38 134.39 188.34 136.44 184.97 137.68 181.6 138.91 178.03 143.72 174.46 148.52 174.46 151.94 174.46 155.35 173.27 157.83 172.08 160.31 178.69 160.31 185.3 160.31 199 160.31 212.69 160.31 219.35 160.31 226.01 160.31 231.88 160.31 237.75 160.31 245.92 160.31 254.08 160.31 264.84 160.31 275.59 160.31 279.44 160.31 283.3 160.31 281.41 153.02 279.53 145.73"/>
          <g>
            <path class="cls-20" d="M188.61,175.09l-.19,0-.19,0-1.13.14-1.13.13h-.11l-.1,0a2.38,2.38,0,0,0-.37.06.91.91,0,0,0-.34.17,1.3,1.3,0,0,0-.36.49,3.4,3.4,0,0,0-.24.68q-5.76.39-11.79.55t-12.34,0h-.24l-.92,0-.93,0c-4.8-.11-9.5-.35-14.07-.68s-9-.78-13.36-1.3a1.08,1.08,0,0,0-.08-.19l-.09-.19a2.46,2.46,0,0,0-.17-.27l-.18-.26a3.82,3.82,0,0,0-.51-.48l-.54-.4c.17-1.58.34-3.18.51-4.79s.33-3.23.49-4.86q.63-6.4,1.22-13t1.11-13.45q.38-4.87.72-9.86t.65-10.06q1-17,1.55-33t.65-30.84h0c.13,0,.2-9.39,1.25-19.35s3.06-20.47,7.09-22.63c1.78-.95,3.31.05,5.13,1s3.93,1.95,6.86.92a15.6,15.6,0,0,1,2.53-.8,6.87,6.87,0,0,1,3.67.27,7.77,7.77,0,0,1,1.32.64,7.37,7.37,0,0,0,1.55.68,10.42,10.42,0,0,0,1.84.39,11.28,11.28,0,0,0,3.42-.12,9.5,9.5,0,0,0,3.68-1.51c.8-.54,1.3-1,1.87-.9,2.18.27,4.38,7.84,6,20.92S185.06,65,185,87.21c0,11-.33,17.36-.54,23.19s-.33,11.13,0,20.11q.16,4.56.42,8.84t.57,8.27c.19,2.27.38,4.46.59,6.58s.42,4.15.64,6.11c.32,2.81.65,5.46,1,7.93S188.29,173,188.61,175.09Z"/>
            <path class="cls-21" d="M144,17.69a9.62,9.62,0,0,0-1.56,4.1,47.43,47.43,0,0,0-.66,6.19c-.19,3.29-.21,6.36-.16,8.6a20.55,20.55,0,0,0,.23,3.65,23.48,23.48,0,0,0,.07-2.6c0-1.65.15-4,.49-6.75a63.34,63.34,0,0,1,1.18-6.65,9.13,9.13,0,0,1,.8-2.58,25.78,25.78,0,0,1-.45,3.05,49.61,49.61,0,0,0-.07,14.66,13.84,13.84,0,0,0,.6,2.85c.05,0-.08-.88-.18-2.33a40.56,40.56,0,0,1,0-5.84,39.9,39.9,0,0,1,.68-4.79c.28-1.28.57-2.11.75-2.07s.3,1.55.33,3a29.06,29.06,0,0,0,.07,2.93,22.47,22.47,0,0,0,.19-2.56c.08-1.57.19-3.75.36-6.15a30.36,30.36,0,0,1,.57-3.61,4.51,4.51,0,0,0,0-2.45,2.91,2.91,0,0,0-.71-1.1,1.63,1.63,0,0,0-1-.48,1.42,1.42,0,0,0-1,.32A3.57,3.57,0,0,0,144,17.69Z"/>
            <path class="cls-21" d="M149.13,17.3a18.27,18.27,0,0,1-.79,4.37,41.38,41.38,0,0,0-.87,8c-.25,5.13-.46,14.5-.53,22.58s0,14.86.21,14.86a10.72,10.72,0,0,0,.16-2.45c.07-1.9.2-5.16.47-10.6,0,0,.13-2.53.45-6.85s.81-10.41,1.54-17.54c.25-2.39.45-4.21.63-5.42s.37-1.84.56-1.83.48,1.09.66,2.55.31,3.26.37,4.7a43.15,43.15,0,0,1-.12,5.79c-.14,1.82-.37,3.73-.59,6.34-.25,2.82-.45,6-.55,8.54s-.1,4.33.07,4.38.52-1.58.93-4,.85-5.65,1.21-8.78c.6-5.19.88-9.67,1-12.86s.17-5.07.24-5.07.14,4.42.14,9.86,0,11.9-.06,16c-.06,12.87-.09,20.34,0,24.6s.12,5.3.29,5.33.72-2.45,1.16-6.24.87-8.88,1.06-14.07c.17-4.35.11-7.28.06-10.69s-.09-7.29.1-13.56c.08-2.79.21-5.95.34-8.42a26.39,26.39,0,0,1,.37-4.24,23.52,23.52,0,0,1,.19,4c0,2.57.05,6.22.05,10.59,0,15.53-.05,27.49-.08,35.57s0,12.28.16,12.29a18.16,18.16,0,0,0,.41-3.52c.14-2,.28-4.4.38-6.1.13-2.19.28-5,.38-8.46s.19-7.63.18-12.5c0-2.41,0-3.57-.06-5.86s-.1-5.7-.18-12.6c-.05-4.74-.07-7.63-.06-9.35s.06-2.24.14-2.26a11.36,11.36,0,0,1,.6,3.34c.23,2,.46,4.74.59,7.48.18,3.77.13,6.93.06,9.14a28.5,28.5,0,0,0-.06,3.51,16.53,16.53,0,0,0,.64-3.74c.26-2.34.53-5.58.63-9.18.11-3.79,0-6.94-.11-9.15a24.81,24.81,0,0,1-.13-3.5,13.55,13.55,0,0,1,.66,3.41,81.92,81.92,0,0,1,.61,8.32c.07,2.85,0,5.18-.13,6.8a15.37,15.37,0,0,0-.11,2.56,12.89,12.89,0,0,0,.85-3.73,58.44,58.44,0,0,0,.66-9.06,24.87,24.87,0,0,0-.59-5.84c-.37-1.78-.9-4-1.55-8.66a8,8,0,0,0-.19-1,2.15,2.15,0,0,0-.52-1c-.37-.33-.75-.17-1.2.16a11,11,0,0,1-1.66,1.16,3.51,3.51,0,0,1-2,.21c-.86-.09-2-.31-3.43-.61a10.53,10.53,0,0,0-1.93-.3,1.35,1.35,0,0,0-1.24.7,3.19,3.19,0,0,0-.38,1C149.17,16.83,149.15,17.13,149.13,17.3Z"/>
            <path class="cls-21" d="M164.13,15.85c.23-.2.46,0,.74.23a1.39,1.39,0,0,0,1.08.42,1.29,1.29,0,0,0,.8-.52,1.27,1.27,0,0,1,.71-.53c.48-.08.93.33,1.29.84a8.75,8.75,0,0,1,.77,1.4c.93,2,1,6.23.71,10.47s-.79,8.48-1,10.49c-.08.64-.19,3.61-.35,9.05s-.39,13.35-.68,23.91c-.18,6.22-.28,10.93-.39,14.09s-.19,4.77-.33,4.77a11.9,11.9,0,0,1-.37-3c-.11-1.76-.21-4-.26-6-.15-5.28,0-8.61.21-11.83s.46-6.31.5-11.11c0-4.57-.14-6.94-.32-9.36s-.36-4.92-.31-9.75c0-4.46.34-8.38.59-11.21s.45-4.55.28-4.62-.36.74-.63,1.93-.56,2.79-.8,4.4a60.51,60.51,0,0,0-.62,10.59c.08,3.24.32,6.47.38,10.51a133.31,133.31,0,0,1-.52,14,42.81,42.81,0,0,1-.75,5.65s0-1.18.11-3.28.19-5.12.21-8.85c0-4.46-.08-6.73-.18-8.86s-.19-4.12-.14-8c.07-5.17.32-7.84.44-9.65a12.09,12.09,0,0,0-.28-4.46,46.89,46.89,0,0,1-1-5.26c-.16-1.36-.2-2.54-.25-4.1a11.2,11.2,0,0,1,0-1.23A1.85,1.85,0,0,1,164.13,15.85Z"/>
            <path class="cls-21" d="M171.67,18.61a50.12,50.12,0,0,0,0,5.5c.05,3.45.08,8.29-.1,13.88-.15,4.67-.39,7.72-.64,10.54s-.54,5.44-.79,9.24A209.54,209.54,0,0,0,170,82.43c.33,6.18.83,9.89.87,9.88s-.13-2.52-.15-6.69.09-10,.71-16.64c.21-2.28.49-4.73.76-6.61s.55-3.18.75-3.15.32,2.51.35,5a29.32,29.32,0,0,0,.2,4.92,12.47,12.47,0,0,0,.54-3.45c.19-2.13.37-5,.41-8.15a83.09,83.09,0,0,0-.32-8.94c-.24-2.9-.6-6.11-1-10.84-.53-5.9-.84-10.69-1-14A44.52,44.52,0,0,0,171.67,18.61Z"/>
            <path class="cls-21" d="M173.1,15.58c.48-.31,1.28.64,2.11,2.23a32.92,32.92,0,0,1,2.33,6.08,35.36,35.36,0,0,1,1.22,10.23c0,3.5-.38,7.32-.59,12.18-.37,8.64-.13,15.79.12,20.8s.51,7.88.2,7.94-.57-1.29-.92-3.32-.7-4.76-.9-7.49a62.71,62.71,0,0,1,.2-12.1,92.84,92.84,0,0,0,.67-11.9,89,89,0,0,0-1.25-13.48c-.61-3.5-1.26-5.7-1.53-5.63s-.27,1.62-.27,3.48.07,4,.11,5.22c.14,4.28.44,7.86.69,10.37a35.23,35.23,0,0,1,.34,4,15.07,15.07,0,0,1-.72-3.09c-.36-2-.79-4.67-1.18-7.72-.26-2-.79-6.24-1.07-10.06S172.35,16.06,173.1,15.58Z"/>
            <path class="cls-21" d="M180.63,40.23c.33,4.68.51,8.83.6,12.07s.11,5.58.12,6.66a114.8,114.8,0,0,0,1.42,16.9,72.77,72.77,0,0,1,.72,15.79c-.13,2.39-.33,4.67-.52,6.36a9.3,9.3,0,0,1-.51,2.74c-.14,0-.14-1.53-.15-4.19s-.05-6.48-.25-11.1c-.16-3.64-.37-6.51-.54-8.47s-.31-3-.33-3,.23,1.84.39,4.8a80.26,80.26,0,0,1-.23,11.55,68.21,68.21,0,0,1-1.12,7.39c-.41,1.9-.78,3.08-.95,3s-.05-1.46.11-4,.36-6.09.37-10.55c0-1.49,0-2.57-.06-4.07s-.13-3.38-.26-6.48c-.24-6-.41-10.47-.53-13.88s-.18-5.71-.18-7.34c0-4.85.19-9.73.44-13.4S179.74,35,180,35c.08,0,.16.23.26,1S180.48,38.05,180.63,40.23Z"/>
            <path class="cls-21" d="M175.4,67.92c.24-.07.67,1.38,1.11,3.45s.89,4.79,1.19,7.23A84.09,84.09,0,0,1,178,94.74c-.34,4.25-.88,7-1,6.93s.13-1.16.28-3.18a53.71,53.71,0,0,0,0-8.42c-.26-3.19-.75-5.82-1.19-8.7a68.87,68.87,0,0,1-.87-10.15,24,24,0,0,1,.07-2.73C175.28,68,175.35,67.94,175.4,67.92Z"/>
            <path class="cls-21" d="M161.67,50.78a71.64,71.64,0,0,0-.47,10.68c.09,2.89.31,5,.39,5.67.85,7.82,1.21,15.11,1.4,20.45s.21,8.71.35,8.69a8,8,0,0,0,0-1.85c0-1.59,0-4.53-.12-9.88,0-3.76-.12-7.52-.17-11.28S163,65.75,162.94,62c0-5.14,0-9-.08-11.61s-.12-3.92-.32-4-.36.89-.53,1.89S161.71,50.43,161.67,50.78Z"/>
            <path class="cls-21" d="M140,40.5c-.11,0-.22.64-.51,4.45s-.75,10.76-1.55,23.37c-.41,6.3-.7,11-.91,15.09s-.32,7.78-.36,12.07c0,.35-.05,4.68,0,8.93s.19,8.43.56,8.47.5-1.6.73-3.38.41-3.7.46-4.27a108.62,108.62,0,0,0,.49-12.86c-.07-3.66-.24-7.16-.17-11.92a90.3,90.3,0,0,1,.78-11.2,118.07,118.07,0,0,0,.89-13.06c.08-3.67.07-7.58,0-10.58S140.2,40.51,140,40.5Z"/>
            <path class="cls-21" d="M131.88,172.56c0-1.68,0-3.75,0-6.15s.17-5.12.4-8.08c.31-4.09.76-7.93,1.18-10.74a22,22,0,0,1,.89-4.56,23.49,23.49,0,0,1-.19,3.7c-.17,2.29-.37,5.47-.39,9.09a121.14,121.14,0,0,0,.73,13.7,27.61,27.61,0,0,0,.93,5.55,35.31,35.31,0,0,0-.16-3.68,88,88,0,0,1,.08-9.5,83.39,83.39,0,0,1,1.12-9.4c.43-2.38.83-3.83,1-3.79a21.93,21.93,0,0,1-.24,3.32,72.24,72.24,0,0,0-.26,8.42,67,67,0,0,0,1.18,10.73c.57,2.83,1.19,4.64,1.56,4.56s.37-.9.47-2.1.15-2.76.19-4.23c.07-2.32,0-3.72,0-5a28.37,28.37,0,0,1,0-3.88,32.81,32.81,0,0,1,.91-5.46c.36-1.4.71-2.25.83-2.19a7.45,7.45,0,0,1-.13,2.42,51.57,51.57,0,0,0-.36,5.49,46.91,46.91,0,0,0,1.19,10.85c.65,2.81,1.4,4.55,1.71,4.44s.18-.78.18-2.19,0-3.53.24-6.38c.18-2.28.46-4.47.73-6.08s.53-2.65.68-2.62a9,9,0,0,1,.1,2.61c0,1.63,0,4,.23,6.75.13,1.65.32,4,.66,6s.84,3.66,1.58,3.87c.46.13,1-.34,1.4-1a11.43,11.43,0,0,0,1.09-2.39,14.3,14.3,0,0,0,.53-5.94c-.17-2.11-.56-4.48-.78-7.51a67.38,67.38,0,0,1,.06-10.18c.23-2.59.56-4.2.69-4.19s.45,2.88.73,6.8.6,8.91.85,13.1a62.66,62.66,0,0,0,.64,6.91c.36,2,.93,3.66,1.93,4.43a2.25,2.25,0,0,0,1.29.49,2.28,2.28,0,0,0,.7-.09c1.15-.38,2-1.79,2.54-3.3a24,24,0,0,0,1-3.82,20.77,20.77,0,0,0,.41-4.47c0-2-.17-4.71-.57-8.85-.43-4.33-.84-7.41-1.11-9.44s-.38-3-.22-3.08.9,1.14,1.63,3.3a39,39,0,0,1,1.86,8.7c.25,2.66.18,4.79.21,7.05a39.17,39.17,0,0,0,.78,7.84,16.06,16.06,0,0,0,1.15,3.91c.31.61.55.69.68.71.53.07,1.05-.77,1.5-1.88a25.12,25.12,0,0,0,1.07-3.53,24.8,24.8,0,0,0,.58-6.21c0-1.63-.17-2.7,0-2.75s.4.55.67,1.52A28.55,28.55,0,0,1,171,168a45.91,45.91,0,0,1,.34,5.33,6,6,0,0,0,.74,3.24,3.58,3.58,0,0,0,.75.81c.29.21.59.3.83.11s.48-1.12.43-2.85-.25-4.37-.51-8.22-.39-6-.43-7.24,0-1.56.1-1.59.42.57.72,1.57a31.61,31.61,0,0,1,.85,3.83,36.53,36.53,0,0,1,.36,7.06,9.28,9.28,0,0,0,.72,4.68,5.69,5.69,0,0,0,1.19,1.56c.45.37.89.53,1.22.28s.43-.52.53-2a77.13,77.13,0,0,0-.28-8.91c-.24-3.52-.5-6.15-.66-7.93s-.23-2.68-.09-2.75.55.75,1,2.14a34.72,34.72,0,0,1,1.18,5.51,49.18,49.18,0,0,1,.27,8.09c0,2.11,0,3.64.81,4.69a2.45,2.45,0,0,0,1,.81.89.89,0,0,0,1-.15,3.41,3.41,0,0,0,.5-2.35c0-1.22-.15-2.89-.33-5-.4-4.61-.64-7.46-.76-9.17a8.33,8.33,0,0,1-.07-2.3,16.77,16.77,0,0,1,.63,2.79c.37,1.77.91,4.26,1.69,7.1.27,1,.53,1.85.77,2.62s.46,1.44.64,2l-1.2,2.77-1.2,2.77-2.41.7-2.41.71h-9.05l-4.85.61-4.86.62H148.82l-1.16-1.45-1.17-1.45-3.57.28-3.57.29-3-1-3-1Z"/>
            <path class="cls-21" d="M143.15,41.23a24.42,24.42,0,0,0-.22,3.92c-.05,2-.06,4.07-.06,4.38,0,4.6,0,9.41.16,13.07a38.25,38.25,0,0,0,.42,6.17,33.39,33.39,0,0,0,.3-5.75c.06-3.4.05-7.89-.07-12.2-.05-2-.13-4.42-.23-6.31A17.19,17.19,0,0,0,143.15,41.23Z"/>
            <path class="cls-22" d="M190.88,167.3a6.47,6.47,0,0,1-.54,1.83,7.52,7.52,0,0,0-.58,1.81c-.09.64-.06,1.38-.09,2.06a2.92,2.92,0,0,1-.43,1.71,1.11,1.11,0,0,1-.29.25,1.4,1.4,0,0,1-.34.13l-.19,0-.19,0-1.13.14-1.13.13h-.11l-.1,0a2.38,2.38,0,0,0-.37.06.91.91,0,0,0-.34.17,1.3,1.3,0,0,0-.36.49,3.4,3.4,0,0,0-.24.68c-.06.22-.11.44-.16.67s-.1.45-.16.66l0,.08a.29.29,0,0,1,0,.09,2.17,2.17,0,0,1-.65,1,.46.46,0,0,1-.74-.12,3.7,3.7,0,0,1-.18-.4,1.11,1.11,0,0,0-.19-.36c-.17-.17-.36-.12-.54,0a3.32,3.32,0,0,0-.5.6,3.53,3.53,0,0,1-2.24,1.5,5.19,5.19,0,0,1-2.53-.19c-.82-.24-1.64-.6-2.46-.88a6.09,6.09,0,0,0-2.47-.41,7.32,7.32,0,0,0-3.33,1.4,27,27,0,0,1-3.27,2,4.39,4.39,0,0,1-1.72.42,2.55,2.55,0,0,1-1.66-.58c-.14-.11-.28-.25-.42-.37a1.32,1.32,0,0,0-.45-.27c-.6-.21-1.08.29-1.52,1s-.87,1.62-1.35,2.23a1.9,1.9,0,0,1-2.25.68,3.32,3.32,0,0,1-1.8-2.26c-.09-.33-.16-.68-.24-1a3.31,3.31,0,0,0-.35-.9,1,1,0,0,0-.92-.51,1.79,1.79,0,0,0-1,.44,12.18,12.18,0,0,0-.88.88,3.63,3.63,0,0,1-.9.78,1.14,1.14,0,0,1-1,.08,1.32,1.32,0,0,1-.75-1,3.33,3.33,0,0,1-.07-1c0-.35.05-.7.05-1a2.84,2.84,0,0,0-.18-1c-.11-.29-.28-.49-.5-.48a.46.46,0,0,0-.26.11l-.25.21c-.89.72-1.85.42-2.84,0a5.17,5.17,0,0,0-3-.76,9.78,9.78,0,0,0-1.6.71,1.56,1.56,0,0,1-1.55,0l-.33-.25a.72.72,0,0,0-.35-.13.57.57,0,0,0-.37.18,3.76,3.76,0,0,0-.34.35,2.33,2.33,0,0,1-2.36.74,3.44,3.44,0,0,1-2.08-2c-.05-.11-.1-.23-.14-.34s-.1-.24-.14-.36c-.1-.29-.2-.59-.31-.88s-.2-.58-.32-.85a1.08,1.08,0,0,0-.08-.19l-.09-.19a2.46,2.46,0,0,0-.17-.27l-.18-.26a3.82,3.82,0,0,0-.51-.48l-.54-.4a3,3,0,0,1-.62-.56,2,2,0,0,1-.41-.85,3.67,3.67,0,0,1,0-1.24c0-.43.13-.86.19-1.27a11.22,11.22,0,0,0,.1-2.09,11.51,11.51,0,0,0-.3-2.05.59.59,0,0,0,.74,0,3.13,3.13,0,0,0,.7-.74l.09-.13.08-.12a2.37,2.37,0,0,1,.23-.3,2.16,2.16,0,0,1,.25-.27,1.18,1.18,0,0,1,.61-.34.56.56,0,0,1,.55.27,1.57,1.57,0,0,1,.22,1,2.27,2.27,0,0,1-.31,1,1.82,1.82,0,0,1-.62.59,3.4,3.4,0,0,1-.71.31,1.94,1.94,0,0,0,.37,1,.79.79,0,0,0,.71.34l-.48.56-.47.57a.56.56,0,0,0,.28.57.84.84,0,0,0,.58.09l2.46-.48,2.46-.48.24.26.25.26.84.38.84.39a1.65,1.65,0,0,0-.49,1.39,2.48,2.48,0,0,0,.49,1.56,1.26,1.26,0,0,0,1,.45,2.27,2.27,0,0,0,1.12-.38c.35-.22.68-.5,1-.75a4.13,4.13,0,0,1,1.06-.62c-.08.56-.15,1.12-.22,1.68s-.15,1.12-.22,1.68a13.13,13.13,0,0,1,2-1,3.47,3.47,0,0,1,2.06-.17,3,3,0,0,1,.87.37,3.47,3.47,0,0,1,.79.66c.21.21.4.45.59.68a3.16,3.16,0,0,0,.63.59,1,1,0,0,0,.72.16.88.88,0,0,0,.61-.52,2.2,2.2,0,0,0,.2-.83,7.06,7.06,0,0,0,0-.92,14.36,14.36,0,0,1,.05-2,4,4,0,0,1,.53-1.66.9.9,0,0,1,1.14-.37,1.24,1.24,0,0,1,.65,1.26,3.12,3.12,0,0,1-.15.75,4.36,4.36,0,0,0-.2.73,2.39,2.39,0,0,0,.4,1.75,1.3,1.3,0,0,0,1.2.65,2.1,2.1,0,0,0,1.16-.74,9.07,9.07,0,0,0,1-1.4,2,2,0,0,1,.34-.48c.12-.13.26-.2.4-.13.33.13.36.72.38,1.33s0,1.24.35,1.47a1,1,0,0,1,1.57-.28,2.48,2.48,0,0,1,.87,2.1s0,0,0,0l0,0,.13,0a.23.23,0,0,0,.11,0c.25-.14.45-.71.68-1.26s.47-1.05.82-1.06a.59.59,0,0,1,.36.16c.11.09.21.2.32.3.58.49,1.28.26,1.81-.35a3.52,3.52,0,0,0,.74-2.64,7.09,7.09,0,0,0-.14-.78,4.89,4.89,0,0,1-.1-.78,2.83,2.83,0,0,1,.25-1.32,1.36,1.36,0,0,1,.73-.76.86.86,0,0,1,.86.22,2,2,0,0,1,.57,1,5.46,5.46,0,0,1,.1,1.07,10,10,0,0,0,.05,1.1,3,3,0,0,0,.92,1.94,1.23,1.23,0,0,0,1.52.2,4,4,0,0,0,.33-.24,1,1,0,0,1,.35-.17c.29-.05.54.15.78.43s.46.65.69.94a1,1,0,0,0,.87.39c.29,0,.52-.28.54-.74a5.56,5.56,0,0,0,.19.7,1.48,1.48,0,0,0,.32.55.42.42,0,0,0,.46.12.53.53,0,0,0,.32-.46.76.76,0,0,0,0-.26,2.28,2.28,0,0,0,0-.26l-.27-2.07c-.08-.69-.17-1.38-.26-2.07.09-.27.27-.3.45-.22a1.35,1.35,0,0,1,.5.53,2.08,2.08,0,0,0,.46.61c.17.14.34.17.49,0a1,1,0,0,0,0-1c-.15-.36-.38-.74-.51-1.11a2.08,2.08,0,0,1,.07-1.39,1.22,1.22,0,0,1,.77-.81,1,1,0,0,1,.89.35,3,3,0,0,1,.66,1.1c.12.35.22.74.35,1.09a1.39,1.39,0,0,0,.53.76,1.15,1.15,0,0,0,.9-.08c.3-.1.59-.17.83.1a1.73,1.73,0,0,1,.32.74,4.73,4.73,0,0,0,.25.85,1.21,1.21,0,0,0,.64.61,7.69,7.69,0,0,0,.79.21,1.5,1.5,0,0,1,.75.44,1.46,1.46,0,0,1,.36,1,4.73,4.73,0,0,0,.86-2.38,5.82,5.82,0,0,0-.3-2.71,1.93,1.93,0,0,0,1.17.21.84.84,0,0,0,.56-.4,4,4,0,0,0,.21-2.27,25.13,25.13,0,0,1,0-4.23c.06-.61.15-1.27.25-1.84a4.7,4.7,0,0,1,.33-1.21.28.28,0,0,1,.06-.08,0,0,0,0,1,0,0h0c.11,0,.2.38.27.9s.12,1.19.16,1.81a9.87,9.87,0,0,1,1.28.3,3.38,3.38,0,0,1,1.21.7,3.86,3.86,0,0,1,.93,1.44A4.21,4.21,0,0,1,190.88,167.3Z"/>
            <g class="cls-23">
              <path class="cls-24" d="M155.17,154.37a48.84,48.84,0,0,0,.06,6.94c.17,2.35.44,4.7.67,6.92s.48,4.34.83,6.49a50.2,50.2,0,0,0,1.4,6.31.1.1,0,0,0,.11.08s.08,0,.08-.12c-.19-2.16-.46-4.31-.76-6.46s-.61-4.29-.85-6.45-.41-4.59-.56-6.9-.33-4.62-.64-6.87c0-.13-.1-.18-.18-.16a.24.24,0,0,0-.16.22Z"/>
            </g>
            <g class="cls-23">
              <path class="cls-24" d="M158.6,156.88a31,31,0,0,0,0,3.2c0,1.08.11,2.16.12,3.22s0,2.28,0,3.42-.06,2.29-.12,3.42c-.1,2.2-.31,4.38-.54,6.55s-.47,4.34-.66,6.52c0,.07,0,.11.07.12a.11.11,0,0,0,.11-.09,44.12,44.12,0,0,0,1.21-6.46c.26-2.2.41-4.43.51-6.64s.21-4.41.18-6.7a31.75,31.75,0,0,0-.67-6.6c0-.07-.06-.09-.1-.08s-.08.05-.08.12Z"/>
            </g>
            <g class="cls-23">
              <path class="cls-24" d="M167.16,156.63c.15,1,.31,2,.44,3a26.91,26.91,0,0,1,.25,3c0,1,0,1.9,0,2.85s-.06,1.89-.12,2.84c-.13,2.15-.39,4.25-.69,6.34s-.62,4.18-.86,6.3a.19.19,0,0,0,.07.16s.09,0,.12,0a34.11,34.11,0,0,0,1.44-6.44c.3-2.24.45-4.52.55-6.72.07-1.65.24-3.8.18-5.9a12,12,0,0,0-1.16-5.54.08.08,0,0,0-.14,0,.19.19,0,0,0-.06.17Z"/>
            </g>
            <path class="cls-25" d="M141.83,125.18c.12-3.51.31-6.6.54-9.41s.51-5.31.81-7.64c.36-2.85.77-5.55,1.15-7.54s.74-3.24,1-3.19.19,2.49.27,5.15.4,5.58,1.64,6.63a1.87,1.87,0,0,0,1.74.35,3.56,3.56,0,0,0,1.63-1,9.25,9.25,0,0,0,1.73-4.65c.25-1.61.29-2.92.52-2.91s.47,2.18.68,4.36.46,4.37.89,4.43.64-1.5,1-3.09.83-3.25,1.58-3.42,1.36,1,1.9,2.15a22.54,22.54,0,0,1,1,2.78,20,20,0,0,1,.74,4.26,63.78,63.78,0,0,1-.18,11.21c-.13,1.52-.35,4.05-.68,6.21s-.77,3.94-1.34,4-1-1.54-1.44-3.11-.87-3.13-1.37-3-.68,1.47-.88,2.85-.37,2.74-.69,2.77c-.48.05-.93-2.94-1.39-5.94s-1-6-1.53-6-1,3.15-1.41,6.3-.9,6.31-1.62,6.36-1.09-2.17-1.59-4.38-1-4.43-1.67-4.41-1.28,2.73-1.73,5.42-.78,5.36-1.08,5.3-.31-1.54-.33-3.62S141.75,127.53,141.83,125.18Z"/>
            <path class="cls-25" d="M139.47,115.58a49.91,49.91,0,0,1,1.28-10c.52-2.61.82-4.67,0-6.74a7.16,7.16,0,0,0-.47-1c-.23-.38-.5-.7-.78-.64-.81.19-1.17,3.47-1.4,6.7s-.31,6.42-.56,6.42-.32-1.85-.44-3.69-.26-3.69-.45-3.7-.44,1.83-.65,4.7-.38,6.76-.44,10.85c-.08,5.16,0,9.83.22,13.22s.44,5.47.63,5.47.39-3.64.64-7.3.61-7.33,1.3-7.41c.28,0,.52.5.74,1s.43,1,.61,1,.17-1.18.05-2.8S139.44,117.87,139.47,115.58Z"/>
            <path class="cls-25" d="M164.86,107.19c-.52,0-1.06,1.5-1.52,3.79a68.83,68.83,0,0,0-1.06,8.48,87.7,87.7,0,0,0,.2,14.16c.36,3.63.87,5.89,1.1,5.85s.1-1.83.2-4.82a68.48,68.48,0,0,1,1.42-11.93c.08-.37.41-2,.81-3.43s.87-2.83,1.21-2.73c.65.19.54,5.5.43,10.8s-.24,10.6.36,10.76c.43.11,1-2.36,1.62-4.84s1.35-5,2.11-4.86,1.1,2.34,1.48,4.57.73,4.45,1.34,4.5,1.37-2.69,1.94-5.42,1-5.46,1.27-5.38.07,1.48,0,3.82a71.93,71.93,0,0,0,.39,9.25c.08.72.23,2.06.43,3.23s.45,2.16.73,2.15.66-1.56.92-3.59.46-4.56.57-6.48c.15-2.82.15-5.16.15-6.82s0-2.61.19-2.66.62,1.68,1,3.43.7,3.49.91,3.44.17-1.75,0-4.66-.37-7-.55-11.94c-.17-4.64-.25-8.43-.32-11.07s-.17-4.12-.37-4.14-.62,3.06-1,6.15-.75,6.19-1.15,6.16-.51-2.44-.72-4.88-.48-4.91-1.09-5-1.26,2.28-1.89,4.69-1.24,4.84-1.8,4.72-1-4.31-1.13-8.44-.22-8.24-.51-8.26-.62,4.1-1,8.23-.88,8.26-1.48,8.27c-.38,0-.72-1.7-1.05-3.39s-.63-3.36-1-3.31-.4,1.38-.53,2.73-.3,2.7-.68,2.79-.62-.89-.93-1.87S165.28,107.2,164.86,107.19Z"/>
            <g class="cls-23">
              <path class="cls-24" d="M171.06,156.51c.28,1.92.56,3.83.78,5.74s.39,3.85.45,5.81,0,3.68-.12,5.51-.2,3.65-.18,5.49a.12.12,0,0,0,.08.13.12.12,0,0,0,.11-.09,26,26,0,0,0,.79-5.65c.08-1.95,0-3.92-.05-5.78s-.24-3.82-.49-5.71a41.94,41.94,0,0,0-1.12-5.55c0-.1-.1-.14-.16-.11a.18.18,0,0,0-.09.21Z"/>
            </g>
            <g class="cls-23">
              <path class="cls-24" d="M176.05,157.16a65.17,65.17,0,0,1,.75,8.8c.1,2.94.11,5.89.3,8.85a.17.17,0,0,0,.09.13.1.1,0,0,0,.1-.09,42.2,42.2,0,0,0,.31-5.14c0-1.72-.07-3.45-.16-5.17-.06-1.17-.07-2.57-.22-3.91a8.49,8.49,0,0,0-1-3.58.06.06,0,0,0-.1,0,.19.19,0,0,0,0,.13Z"/>
            </g>
            <g class="cls-23">
              <path class="cls-24" d="M181.86,161.71c.07,1.4.13,2.8.14,4.19s0,2.79-.12,4.19-.31,2.77-.49,4.15-.37,2.76-.45,4.15a.11.11,0,0,0,.07.12.07.07,0,0,0,.1,0,36.85,36.85,0,0,0,1-16.8c0-.1-.09-.14-.15-.13a.15.15,0,0,0-.12.18Z"/>
            </g>
            <g class="cls-23">
              <path class="cls-24" d="M149,160.27a35.87,35.87,0,0,0,.2,9.52,70.82,70.82,0,0,0,2,9.23c0,.08.07.1.11.08s.08-.07.07-.15c-.18-1.5-.42-3-.66-4.47s-.49-3-.69-4.46-.37-3.23-.49-4.85-.21-3.24-.33-4.87a.12.12,0,0,0-.09-.12s-.08,0-.09.09Z"/>
            </g>
            <g class="cls-23">
              <path class="cls-24" d="M143.9,158.55a23.58,23.58,0,0,0-.32,4.79c0,1.65.18,3.29.33,4.82s.29,3,.51,4.51a20.77,20.77,0,0,0,1,4.31.11.11,0,0,0,.1.06.12.12,0,0,0,.08-.1,11.76,11.76,0,0,0-.25-3.89c-.26-1.33-.6-2.66-.76-3.87a47.22,47.22,0,0,1-.32-5.29c0-1.76,0-3.52-.15-5.29,0-.1-.06-.16-.12-.17s-.12,0-.14.12Z"/>
            </g>
            <g class="cls-23">
              <path class="cls-24" d="M140,175.79c-.19-1.69-.47-3.33-.72-5s-.49-3.31-.61-5-.16-3.18-.17-4.78,0-3.2.08-4.79c0-.07,0-.11-.08-.11s-.09,0-.1.08a54.66,54.66,0,0,0-.41,10,33.56,33.56,0,0,0,1.8,9.7c0,.09.09.09.13.06a.2.2,0,0,0,.08-.17Z"/>
            </g>
            <g class="cls-23">
              <path class="cls-24" d="M135.81,172.3a56.18,56.18,0,0,1-.82-8.47c-.08-2.81,0-5.63.15-8.56a.09.09,0,0,0-.07-.11.09.09,0,0,0-.09.08,45.61,45.61,0,0,0-.86,8.71,23.92,23.92,0,0,0,1.43,8.49c0,.1.11.12.17.08a.19.19,0,0,0,.09-.22Z"/>
            </g>
            <g class="cls-23">
              <path class="cls-24" d="M144.72,177a26.81,26.81,0,0,0-.63-2.93,29.23,29.23,0,0,1-.65-2.95c-.18-1.17-.34-2.35-.48-3.53s-.25-2.38-.33-3.56c0-.08,0-.12-.1-.12s-.08,0-.09.12c0,1.24,0,2.46,0,3.67a34.68,34.68,0,0,0,.36,3.65c.14.94.29,2.06.54,3.11a6.06,6.06,0,0,0,1.21,2.66.08.08,0,0,0,.11,0,.18.18,0,0,0,.05-.14Z"/>
            </g>
            <g class="cls-23">
              <path class="cls-24" d="M150.22,178.69a5.83,5.83,0,0,1-1-2.93c-.2-1.27-.29-2.59-.37-3.34-.13-1.11-.23-2.23-.33-3.35l-.27-3.36c0-.08-.06-.13-.1-.13s-.1,0-.1.13c0,1.35-.06,2.7,0,4a38.78,38.78,0,0,0,.28,4c.1.75.22,1.85.45,2.88a4.59,4.59,0,0,0,1.09,2.43.17.17,0,0,0,.15,0,.24.24,0,0,0,.14-.09l.05-.07.06-.07a.17.17,0,0,0,0-.12.31.31,0,0,0-.05-.1Z"/>
            </g>
            <g class="cls-23">
              <path class="cls-24" d="M156.32,178.61c-.24-2.27-.47-4.54-.72-6.81s-.52-4.53-.82-6.78c0-.08-.06-.1-.11-.09s-.09,0-.09.13c0,2.16,0,4.6.17,7a23.12,23.12,0,0,0,1.27,6.72c0,.12.13.13.19.09a.26.26,0,0,0,.11-.25Z"/>
            </g>
            <g class="cls-23">
              <path class="cls-24" d="M158.12,178.4a21.54,21.54,0,0,0,.26-3.71c0-1.27-.07-2.54-.08-3.75,0-1.39,0-2.76-.09-4.14s-.11-2.74-.2-4.12c0-.08,0-.11-.09-.11s-.08,0-.09.11c-.07,1.38-.12,2.75-.15,4.12s0,2.75,0,4.14c0,1.21,0,2.48,0,3.75a22.37,22.37,0,0,0,.31,3.71.09.09,0,0,0,.09.08s.08,0,.09-.08Z"/>
            </g>
            <g class="cls-23">
              <path class="cls-24" d="M158.48,181c.68-.13,1.12-1,1.43-2a24.39,24.39,0,0,0,.58-2.88,33,33,0,0,0,.39-4.19c.05-1.4,0-2.81,0-4.23,0-.09-.05-.14-.1-.14s-.1,0-.11.14c-.1,1.13-.2,2.26-.31,3.38s-.24,2.26-.38,3.38-.28,2.19-.52,3.33a9.17,9.17,0,0,1-1.09,3,.18.18,0,0,0,0,.14.1.1,0,0,0,.11.06Z"/>
            </g>
            <g class="cls-23">
              <path class="cls-24" d="M165.5,177.82a4.59,4.59,0,0,0,.92-2.23,16,16,0,0,0,.16-2.59c0-1.34,0-2.65-.14-3.95a39.26,39.26,0,0,0-.52-3.9c0-.07-.06-.09-.1-.08s-.09.05-.09.12c.05,2,.24,4.18.28,6.32a20.2,20.2,0,0,1-.67,6.18.11.11,0,0,0,0,.14.08.08,0,0,0,.12,0Z"/>
            </g>
            <g class="cls-23">
              <path class="cls-24" d="M187.8,169.38c-.27-.89-.6-1.74-.92-2.6a26.9,26.9,0,0,1-.9-2.62c-.26-.93-.49-1.88-.7-2.84s-.41-1.93-.57-2.9c0-.06-.06-.09-.1-.08a.1.1,0,0,0-.08.11,27.14,27.14,0,0,0,.7,6,13.42,13.42,0,0,0,2.3,5.16.14.14,0,0,0,.2,0,.2.2,0,0,0,.07-.24Z"/>
            </g>
            <path class="cls-21" d="M145.17,78.69c-.58,8.35-.69,15.83-.63,22s.31,11,.46,14.13c.52,11,.7,19,.81,24.33s.13,7.83.35,7.84.58-4,.82-9.62.44-13.06.51-19.91c.11-11.08-.11-22.16-.45-30.47s-.81-13.84-1.21-13.83c-.08,0-.16.21-.27,1S145.33,76.36,145.17,78.69Z"/>
            <path class="cls-21" d="M154.3,87.66c-.74,6.62-1.06,12.55-1.18,17.52s-.05,9,0,11.75c.09,4.26.3,12.18.54,19s.53,12.62.78,12.61.2-2.07.24-6.7.1-11.8.26-22c.21-12.64.47-22.51.62-29.22s.16-10.29-.12-10.33-.38,1.17-.6,2.69S154.44,86.36,154.3,87.66Z"/>
            <path class="cls-21" d="M164.59,81.86c-.23,0,0,3.24.36,8.91s.85,13.81,1.14,23.79c.41,14,.23,25.06,0,32.62s-.46,11.64-.2,11.67,1.22-5.29,1.89-13.86a261.06,261.06,0,0,0,.44-33.34c-.42-8-1.22-15.49-2-21S164.83,81.8,164.59,81.86Z"/>
            <path class="cls-21" d="M173.06,84.49c-.25,0-.29,4.75-.22,11.42s.23,15.29.39,23.13.32,16.35.5,22.89.41,11.12.66,11.12.53-4.15.72-10.51.28-14.94.11-23.77-.59-17.45-1-23.81S173.3,84.47,173.06,84.49Z"/>
          </g>
          <path class="cls-22" d="M130.48,178.73c-.23.14,0,.1.21,0s.48-.36.31-.61a1.72,1.72,0,0,0-.57-.52,2.88,2.88,0,0,1-.63-.42,1.92,1.92,0,0,0-1.18-.5c-.42,0-.86,0-1.29-.06a3.11,3.11,0,0,1-1.68-.7,3,3,0,0,1-1-1.75,6.82,6.82,0,0,1-.06-1.43,5.65,5.65,0,0,0-.09-1.43,2.66,2.66,0,0,0-.74-1.35,2.38,2.38,0,0,0-1.19-.65,3.24,3.24,0,0,0-1.28,0,9.72,9.72,0,0,0-1.27.38l-.18.08a.83.83,0,0,0-.16.12.87.87,0,0,0-.13.8,3,3,0,0,0,.37.85,1.27,1.27,0,0,0-.88.87,2,2,0,0,0,0,1.46,2,2,0,0,0,1.67,1.07,2.91,2.91,0,0,1,1.89.84,3.52,3.52,0,0,1,.31.5c.09.18.18.36.28.53a3,3,0,0,0,1.09,1,6.34,6.34,0,0,0,1.33.5l.62.15.61.14,1.51.35,1.51.34a1.09,1.09,0,0,0,.25,0,.44.44,0,0,0,.25-.06.47.47,0,0,0,.17-.25.41.41,0,0,0,0-.31Z"/>
          <path class="cls-22" d="M141.16,182.05a1.82,1.82,0,0,0-.52-.91,1.54,1.54,0,0,0-.83-.4,1.77,1.77,0,0,0-.87.15,2.88,2.88,0,0,0-.79.53,2.35,2.35,0,0,0-.61.85,1.46,1.46,0,0,0-.07,1,1,1,0,0,0,.63.66,2.4,2.4,0,0,0,.88.11,2.92,2.92,0,0,1-.25.5,1.73,1.73,0,0,0-.22.5,1.41,1.41,0,0,0,.25,1.17,1.85,1.85,0,0,0,.91.68A2.66,2.66,0,0,0,141,187a3.07,3.07,0,0,0,1.28-.63,7.79,7.79,0,0,1,.65-.52.69.69,0,0,1,.69-.08,1.94,1.94,0,0,1,.46.41.64.64,0,0,0,.49.26.62.62,0,0,0,.33-.19,2.91,2.91,0,0,1,.31-.3.7.7,0,0,1,.57-.13.84.84,0,0,1,.51.37,1.27,1.27,0,0,1,.21.72,1.43,1.43,0,0,1-.17.75,2.26,2.26,0,0,0,1.37-.22,1.66,1.66,0,0,0,.86-1.2,2.1,2.1,0,0,0-.29-1.44,2.23,2.23,0,0,0-1-.91,3.75,3.75,0,0,0-1.18-.27,9.78,9.78,0,0,1-1.2-.13,2.49,2.49,0,0,1-1.14-.56,2.07,2.07,0,0,1-.7-1.21,1.12,1.12,0,0,0-.85-.13,1.35,1.35,0,0,0-.77.5Z"/>
          <path class="cls-22" d="M156.43,189.24a.57.57,0,0,1-.38.39.58.58,0,0,1-.51-.08,1.34,1.34,0,0,1-.38-.46,3.6,3.6,0,0,1-.25-.6,4.11,4.11,0,0,0-.25-.61.57.57,0,0,0-.4-.32.58.58,0,0,0-.19,0,.87.87,0,0,0-.18.11,1.71,1.71,0,0,0-.46.53,2.26,2.26,0,0,0-.25.73l-.06.31a.35.35,0,0,1-.14.22.24.24,0,0,1-.23,0l-.23-.09a.63.63,0,0,0-.66.32,1.47,1.47,0,0,0-.23.93,1.63,1.63,0,0,0,.36.86,1.45,1.45,0,0,0,.66.48,1.94,1.94,0,0,0,.75.1,6.31,6.31,0,0,0,.76-.09,6.59,6.59,0,0,1,.76-.1,1.89,1.89,0,0,1,.75.1,3,3,0,0,1,.73.41c.23.16.46.34.7.48a1.5,1.5,0,0,0,.79.22.87.87,0,0,0,.7-.35,4.21,4.21,0,0,0,.38-.66c.11-.22.24-.42.44-.47s.57.23.82.56.5.68.82.65.56-.45.77-.85.43-.78.77-.72a.64.64,0,0,1,.31.17c.09.08.18.18.28.26a1.24,1.24,0,0,0,1,.26,4.19,4.19,0,0,0,1-.3,4,4,0,0,0,.62-.31,1.41,1.41,0,0,0,.48-.54,1.82,1.82,0,0,0,0-1.53,2.28,2.28,0,0,0-1-1.13,1.74,1.74,0,0,0-.83-.19,1.22,1.22,0,0,0-.78.34,2,2,0,0,0-.3.35,3.58,3.58,0,0,1-.28.37,1.55,1.55,0,0,1-1.06.54,1.45,1.45,0,0,1-1.09-.42l-.31-.33a1.35,1.35,0,0,0-.33-.26.84.84,0,0,0-.83.1c-.28.16-.56.39-.83.54a1.8,1.8,0,0,1-1.1.26,2,2,0,0,1-1.07-.42Z"/>
          <path class="cls-22" d="M193.64,177.6a13.17,13.17,0,0,1-1.3,1.29,10.82,10.82,0,0,1-1.41,1.06,2.23,2.23,0,0,0,1.71.93,4.56,4.56,0,0,0,2-.38,2.26,2.26,0,0,0,.35-.17.9.9,0,0,0,.28-.3,1.79,1.79,0,0,0,.13-.39,2.34,2.34,0,0,1,.13-.4.77.77,0,0,1,.5-.41,1.26,1.26,0,0,1,.64,0,5.87,5.87,0,0,1,.89.31,9.32,9.32,0,0,0,.88.33,2.42,2.42,0,0,0,.92.11,1.55,1.55,0,0,0,.86-.36,1.81,1.81,0,0,0,.53-1,1.62,1.62,0,0,0-.12-1.13l-.12-.22a.61.61,0,0,1-.06-.24.48.48,0,0,1,.09-.27c.06-.09.13-.16.18-.23a1.62,1.62,0,0,0,.31-1,2.45,2.45,0,0,0-.18-1,3.13,3.13,0,0,0-.51-.83,6.7,6.7,0,0,0-.67-.64,3.88,3.88,0,0,1-.46-.45,1.29,1.29,0,0,1-.29-.61,3,3,0,0,1,.12-1.06,1.93,1.93,0,0,0,0-1,1.41,1.41,0,0,0-.18-.29c-.07-.08-.16-.15-.23-.22a11,11,0,0,0-1.15-.92,4.76,4.76,0,0,0-1.24-.61,2.61,2.61,0,0,0-1.33,0,2.22,2.22,0,0,0-1.18.73.73.73,0,0,0-.08-.54.57.57,0,0,0-.79-.29,1.14,1.14,0,0,0-.39.3,2.71,2.71,0,0,0-.58,1.91,2.56,2.56,0,0,0,.73,1.8,2.52,2.52,0,0,0,1.39.53,3.88,3.88,0,0,1,1.44.4,2.2,2.2,0,0,1,.65.64,2.45,2.45,0,0,1,.34.95,2.26,2.26,0,0,1-.16,1,1.08,1.08,0,0,1-.61.63,1.12,1.12,0,0,1-.48,0,2.7,2.7,0,0,0-.49,0,.87.87,0,0,0-.48.15.67.67,0,0,0-.28.46Z"/>
          <path class="cls-22" d="M175.13,185.54a2.45,2.45,0,0,1,.72-1.16,1.61,1.61,0,0,1,1.09-.44,3.76,3.76,0,0,1,.66.1,1.54,1.54,0,0,0,1.42-.26c.24-.16.48-.34.73-.48a3.23,3.23,0,0,1,1.85-.34,9.74,9.74,0,0,1,1.9.4c0-.19,0-.38.07-.56s.05-.37.07-.56a1.16,1.16,0,0,1,1,.2,1.19,1.19,0,0,1,.46,1,1.15,1.15,0,0,1-.6,1,2.48,2.48,0,0,1-1.08.31,26.69,26.69,0,0,0-4.13.66,28.46,28.46,0,0,0-4.05,1.3,6.56,6.56,0,0,1-.62.23,2.21,2.21,0,0,1-.62.13,2.56,2.56,0,0,1-.62-.06c-.21,0-.42-.08-.63-.1A6.22,6.22,0,0,0,171,187a5.89,5.89,0,0,1-1.77.14,10.86,10.86,0,0,1-2.38-.78,3,3,0,0,0-2.31-.13,2.06,2.06,0,0,1,.56-1,2.57,2.57,0,0,1,.89-.56,5.82,5.82,0,0,1,3.64.07,13.44,13.44,0,0,0,3.71.71c.28,0,.57,0,.85-.05a3.38,3.38,0,0,1,.84,0Z"/>
          <path class="cls-22" d="M192,158.05a4.89,4.89,0,0,1,.19-1.91,3.94,3.94,0,0,1,.86-1.56,1.07,1.07,0,0,1,.16-.14.27.27,0,0,1,.17-.06.29.29,0,0,1,.27.18.67.67,0,0,1,.11.4,1.15,1.15,0,0,1-.08.41,1.75,1.75,0,0,1-.2.35c-.21.3-.56.68-.87,1.08a2.69,2.69,0,0,0-.61,1.25Z"/>
          <path class="cls-22" d="M189.63,159.81a6.54,6.54,0,0,1-.5-2.32,6.7,6.7,0,0,1,.33-2.37,2.81,2.81,0,0,1,.22-.53,1.4,1.4,0,0,1,.31-.43.79.79,0,0,1,.43-.21.53.53,0,0,1,.43.12,1,1,0,0,1,.31.7,2,2,0,0,1-.11.87,3.49,3.49,0,0,1-.37.72c-.14.23-.29.45-.41.69a6.17,6.17,0,0,0-.47,1.33,4.71,4.71,0,0,0-.17,1.43Z"/>
          <path class="cls-22" d="M190.38,163.07a5.4,5.4,0,0,1,0-1.39,4.84,4.84,0,0,1,.41-1.27,1.79,1.79,0,0,1,.42-.55.51.51,0,0,1,.52-.12.73.73,0,0,1,.37.46,1.82,1.82,0,0,1,.07.7,2.31,2.31,0,0,1-.17.6,1.52,1.52,0,0,1-.33.47,3.06,3.06,0,0,1-.74.46,1.21,1.21,0,0,0-.59.64Z"/>
          <path class="cls-22" d="M124.45,167.22c0-.07,0-.15-.08-.23s-.05-.15-.07-.23l-.18-.55-.21-.55a4.84,4.84,0,0,0-.87-1.34,3.41,3.41,0,0,0-1.18-.85l-.32-.14a.72.72,0,0,1-.28-.24,1,1,0,0,1-.09-.91,1,1,0,0,1,.55-.64.88.88,0,0,1,.73.15,2,2,0,0,1,.58.67,6.44,6.44,0,0,1,.38.89c.1.31.2.62.31.92.18.47.41.93.57,1.41a3.11,3.11,0,0,1,.18,1.48Z"/>
          <path class="cls-22" d="M126.24,162.4a6.13,6.13,0,0,0-.5-1.44,5.74,5.74,0,0,0-.79-1.21c-.24-.26-.5-.5-.75-.74a6.05,6.05,0,0,1-.71-.8,3,3,0,0,1-.46-1.09,2.15,2.15,0,0,1,.07-1.18,1.19,1.19,0,0,1,.83-.74,1.22,1.22,0,0,1,1,.22,2.53,2.53,0,0,1,.74,1,6,6,0,0,1,.44,1.28,12,12,0,0,1,.34,2.39,6.42,6.42,0,0,1-.24,2.34Z"/>
          <path class="cls-22" d="M126.19,170a5.76,5.76,0,0,0-.11-.93,5.11,5.11,0,0,0-.25-.87c-.1-.25-.21-.49-.31-.74a2.6,2.6,0,0,1-.18-.79,1.32,1.32,0,0,1,.2-.79c.13-.21.32-.34.52-.26a.67.67,0,0,1,.36.42,2.22,2.22,0,0,1,.13.68,12.19,12.19,0,0,1,0,1.7,4.32,4.32,0,0,1-.39,1.58Z"/>
          <g>
            <polygon class="cls-7" points="266.07 181.82 248.93 181.82 231.79 181.82 231.8 181.79 231.81 181.75 232.08 180.49 232.35 179.22 233.85 172.19 235.35 165.15 235.37 165.06 235.38 164.98 239.35 159.05 243.31 153.12 243.49 152.85 243.68 152.57 243.68 152.57 243.68 152.57 243.72 152.57 243.76 152.58 244.13 152.64 244.51 152.7 244.65 152.72 244.79 152.74 250.03 153.52 255.27 154.3 255.35 154.31 255.43 154.32 255.5 154.33 255.56 154.34 255.57 154.34 255.57 154.34 255.67 154.5 255.77 154.65 255.77 154.65 255.77 154.65 259.13 159.67 262.48 164.69 262.48 164.69 262.48 164.69 262.48 164.69 262.48 164.69 262.54 164.78 262.6 164.87 263.2 165.76 263.8 166.65 263.8 166.66 263.8 166.66 263.83 166.71 263.86 166.75 264.77 172.98 265.69 179.2 265.86 180.4 266.04 181.6 266.05 181.71 266.07 181.82"/>
            <polygon class="cls-6" points="260.41 181.82 254.91 181.82 249.41 181.82 249.32 181.22 249.22 180.62 248.11 173.24 247 165.87 247 165.87 247 165.87 247 165.87 247 165.87 247 165.87 247 165.87 250.3 162.9 253.6 159.93 253.99 160.82 254.37 161.71 254.37 161.72 254.37 161.72 254.58 162.21 254.79 162.71 254.79 162.72 254.8 162.72 257 167.85 259.21 172.98 259.23 173.03 259.25 173.08 259.66 176.18 260.07 179.27 260.24 180.54 260.41 181.82"/>
            <path class="cls-14" d="M266,181.6l-.26.11-.27.11h-5.2c-.05-.36-.11-.76-.16-1.19s-.12-.88-.17-1.35c-.13-1.05-.27-2.18-.39-3.26s-.24-2.1-.34-2.94h0c-.07-.64-.13-1.17-.17-1.53S259,171,259,171l1.73-3.13,1.73-3.14.06.09.06.09.6.89.59.89h0l0,0,0,.05.91,6.23.92,6.22.17,1.2Z"/>
            <polygon class="cls-5" points="263.8 166.66 261.55 169.92 259.3 173.18 259.28 173.13 259.26 173.08 257 168.07 254.75 163.06 254.54 162.58 254.32 162.1 254.8 158.2 255.27 154.3 255.42 154.32 255.57 154.34 255.67 154.5 255.77 154.65 259.13 159.67 262.48 164.69 263.14 165.67 263.8 166.66"/>
            <polygon class="cls-7" points="247 165.87 241.17 165.51 235.35 165.14 235.37 165.06 235.39 164.98 239.53 158.78 243.68 152.57 243.72 152.58 243.76 152.58 244.28 152.66 244.79 152.74 245.89 159.3 247 165.87"/>
            <polygon class="cls-9" points="255.77 154.65 255.26 158.86 254.75 163.06 254.75 163.13 254.74 163.21 250.87 164.54 247 165.87 245.38 159.23 243.76 152.59 249.52 153.44 255.27 154.3 255.42 154.32 255.57 154.34 255.67 154.5 255.77 154.65"/>
            <polygon class="cls-12" points="249.94 181.82 240.87 181.82 231.79 181.82 231.8 181.79 231.81 181.75 233.2 180.3 234.58 178.85 240.79 172.36 247 165.87 247 165.87 247 165.87 247 165.87 247 165.87 248.37 173.29 249.73 180.71 249.84 181.27 249.94 181.82"/>
          </g>
          <path class="cls-26" d="M268.68,182.07h-39.5V182l.31-1.46.31-1.46c.4-.09.82-.16,1.25-.24l1.33-.19a36.84,36.84,0,0,1,4.67-.26,33.69,33.69,0,0,1,4.9.38,25.66,25.66,0,0,1,4.23,1c1.12.36,2.05.7,3.07.92l.29.06.29.06a13.59,13.59,0,0,0,1.52.14,15.19,15.19,0,0,0,1.83-.09,22.75,22.75,0,0,0,4-.8,33.8,33.8,0,0,1,4.48-.9h.11l1.09-.11,1.2-.08c.6,0,1.29-.05,2,0a19.26,19.26,0,0,1,2.16.15l.2,1.38.2,1.39,0,.13Z"/>
          <g>
            <polygon class="cls-7" points="51.37 186.75 40.81 186.75 30.25 186.75 30.26 186.73 30.26 186.71 30.43 185.93 30.59 185.15 31.52 180.81 32.44 176.48 32.45 176.43 32.46 176.38 34.91 172.72 37.35 169.07 37.46 168.9 37.57 168.73 37.57 168.73 37.57 168.73 37.6 168.74 37.63 168.74 37.85 168.78 38.08 168.81 38.17 168.82 38.26 168.84 41.48 169.32 44.71 169.8 44.76 169.81 44.81 169.81 44.85 169.82 44.9 169.82 44.9 169.82 44.9 169.82 44.96 169.92 45.02 170.01 45.02 170.01 45.02 170.01 47.09 173.11 49.16 176.2 49.16 176.2 49.16 176.2 49.16 176.2 49.16 176.2 49.19 176.25 49.23 176.31 49.6 176.86 49.97 177.41 49.97 177.41 49.97 177.41 49.99 177.44 50.01 177.47 50.57 181.3 51.13 185.14 51.24 185.88 51.35 186.61 51.36 186.68 51.37 186.75"/>
            <polygon class="cls-6" points="47.88 186.75 44.49 186.75 41.1 186.75 41.05 186.38 40.99 186.01 40.3 181.47 39.62 176.93 39.62 176.92 39.62 176.92 39.62 176.92 39.62 176.92 39.62 176.92 39.62 176.92 41.65 175.09 43.69 173.26 43.92 173.81 44.16 174.37 44.16 174.37 44.16 174.37 44.29 174.67 44.42 174.98 44.42 174.98 44.42 174.98 45.78 178.14 47.14 181.3 47.15 181.34 47.17 181.37 47.42 183.27 47.67 185.18 47.78 185.97 47.88 186.75"/>
            <path class="cls-14" d="M51.35,186.61l-.16.07-.17.07h-3.2c0-.22-.07-.47-.1-.73s-.07-.54-.11-.83c-.08-.65-.16-1.35-.24-2s-.15-1.29-.2-1.81h0c-.05-.4-.08-.72-.11-1s0-.36,0-.36l1.07-1.93,1.07-1.93,0,.05,0,.06.37.55.37.55h0l0,0v0l.57,3.83.56,3.84.11.73Z"/>
            <polygon class="cls-5" points="49.97 177.41 48.58 179.42 47.2 181.43 47.18 181.4 47.17 181.37 45.78 178.28 44.4 175.2 44.26 174.9 44.13 174.6 44.42 172.2 44.71 169.8 44.8 169.81 44.9 169.82 44.96 169.92 45.02 170.01 47.09 173.11 49.16 176.2 49.56 176.81 49.97 177.41"/>
            <polygon class="cls-7" points="39.62 176.92 36.03 176.7 32.44 176.48 32.45 176.43 32.46 176.38 35.02 172.55 37.57 168.73 37.6 168.74 37.62 168.74 37.94 168.79 38.26 168.84 38.94 172.88 39.62 176.92"/>
            <polygon class="cls-9" points="45.02 170.01 44.71 172.6 44.4 175.2 44.39 175.24 44.39 175.29 42 176.1 39.62 176.92 38.62 172.83 37.63 168.74 41.17 169.27 44.71 169.8 44.8 169.81 44.9 169.82 44.96 169.92 45.02 170.01"/>
            <polygon class="cls-12" points="41.43 186.75 35.84 186.75 30.25 186.75 30.26 186.73 30.26 186.71 31.11 185.82 31.97 184.92 35.79 180.92 39.62 176.93 39.62 176.92 39.62 176.92 39.62 176.92 39.62 176.92 40.46 181.5 41.3 186.07 41.37 186.41 41.43 186.75"/>
          </g>
          <path class="cls-27" d="M53,186.9H28.64v-.05l.2-.89.19-.9c.24-.06.5-.1.77-.15l.81-.12a24.16,24.16,0,0,1,2.88-.16,21.93,21.93,0,0,1,3,.23,16.29,16.29,0,0,1,2.61.62A18.7,18.7,0,0,0,41,186l.17,0,.19,0a6.52,6.52,0,0,0,.93.09,9.17,9.17,0,0,0,1.13,0,16.07,16.07,0,0,0,2.45-.49,18.46,18.46,0,0,1,2.76-.56h.07l.67-.07.74-.05c.37,0,.8,0,1.24,0a11.72,11.72,0,0,1,1.33.09l.13.85.12.85v.08Z"/>
          <g>
            <path class="cls-28" d="M41.47,176.86a12.87,12.87,0,0,0,.92,1.15,9.59,9.59,0,0,1,.89,1.18,9.13,9.13,0,0,1,.67,1.37,9.28,9.28,0,0,1,.42,1.48,10,10,0,0,1,.17,1.8c0,.61,0,1.21,0,1.83a14.35,14.35,0,0,0,0,1.47,2.2,2.2,0,0,0,.54,1.3.63.63,0,0,0,.56.19.74.74,0,0,0,.49-.32,2.58,2.58,0,0,0,.26-1.63c-.07-.58-.23-1.16-.34-1.68s-.21-1.29-.31-1.94a17.59,17.59,0,0,0-.37-1.92,10.35,10.35,0,0,0-1.22-2.78,5.17,5.17,0,0,0-2.17-2,.43.43,0,0,0-.46.08.32.32,0,0,0-.06.44Z"/>
            <path class="cls-29" d="M50,170.93a6.25,6.25,0,0,0-1.32,1.63c-.37.63-.69,1.3-1,1.89a22,22,0,0,0-.88,2.06,21.76,21.76,0,0,0-.67,2.12c-.19.71-.35,1.43-.49,2.15s-.24,1.45-.31,2.18a14,14,0,0,0-.15,2,2.33,2.33,0,0,0,.62,1.75.65.65,0,0,0,.34.14.42.42,0,0,0,.33-.14,2.35,2.35,0,0,0,.4-1.55c0-.56-.12-1.16-.13-1.68a19.59,19.59,0,0,1,.08-2.17,17.51,17.51,0,0,1,.35-2.15c.16-.68.36-1.35.58-2a20,20,0,0,1,.79-1.93,15.89,15.89,0,0,1,1.08-1.87,14.3,14.3,0,0,0,1-1.87.47.47,0,0,0-.12-.56.43.43,0,0,0-.56,0Z"/>
            <path class="cls-30" d="M49.49,180.48a8.79,8.79,0,0,0-2.75,2.9,11.35,11.35,0,0,0-1.44,3.8.71.71,0,0,0,.51.81.59.59,0,0,0,.77-.46,15.84,15.84,0,0,1,1.31-3.5,28,28,0,0,1,2-3.2.23.23,0,0,0,0-.3.25.25,0,0,0-.31-.05Z"/>
          </g>
          <g>
            <path class="cls-28" d="M53.16,168.48A17.26,17.26,0,0,0,54.35,170a11.82,11.82,0,0,1,1.16,1.53,11.36,11.36,0,0,1,.87,1.79,10.42,10.42,0,0,1,.54,1.91,13.48,13.48,0,0,1,.23,2.36c0,.78,0,1.56,0,2.36a17.43,17.43,0,0,0,0,1.92,2.89,2.89,0,0,0,.71,1.69.75.75,0,0,0,.71.24.91.91,0,0,0,.64-.42,3.22,3.22,0,0,0,.34-2.11c-.08-.75-.3-1.51-.43-2.19-.17-.83-.28-1.67-.41-2.52a20.66,20.66,0,0,0-.48-2.49,13.37,13.37,0,0,0-1.59-3.61,6.61,6.61,0,0,0-2.81-2.63.59.59,0,0,0-.61.1.42.42,0,0,0-.07.58Z"/>
            <path class="cls-29" d="M62.39,166.08a6.09,6.09,0,0,0-1.32,1.63c-.38.63-.69,1.29-1,1.89s-.62,1.36-.88,2.05-.48,1.41-.67,2.13-.35,1.42-.48,2.15-.25,1.45-.32,2.17a14.31,14.31,0,0,0-.15,2,2.34,2.34,0,0,0,.61,1.74.64.64,0,0,0,.35.14.36.36,0,0,0,.33-.14,2.31,2.31,0,0,0,.4-1.54c0-.56-.12-1.16-.13-1.68a19.59,19.59,0,0,1,.08-2.17,15.79,15.79,0,0,1,.35-2.15c.16-.68.36-1.35.58-2a19.05,19.05,0,0,1,.79-1.93A15.89,15.89,0,0,1,62,168.48a14.3,14.3,0,0,0,1-1.87.45.45,0,0,0-.12-.56.42.42,0,0,0-.56,0Z"/>
            <path class="cls-30" d="M61.91,175.63a8.69,8.69,0,0,0-2.75,2.9,11.38,11.38,0,0,0-1.44,3.79.7.7,0,0,0,.51.81.57.57,0,0,0,.77-.45,16.11,16.11,0,0,1,1.31-3.51A27.87,27.87,0,0,1,62.26,176a.24.24,0,0,0,0-.31.26.26,0,0,0-.31,0Z"/>
          </g>
          <g>
            <polygon class="cls-7" points="62.23 187.97 54.55 187.97 46.88 187.97 46.88 187.96 46.89 187.94 47.01 187.37 47.13 186.81 47.8 183.66 48.47 180.5 48.48 180.47 48.49 180.43 50.26 177.77 52.04 175.12 52.12 175 52.2 174.87 52.2 174.87 52.2 174.87 52.22 174.87 52.24 174.88 52.41 174.9 52.57 174.93 52.64 174.94 52.7 174.95 55.05 175.3 57.39 175.65 57.43 175.65 57.46 175.66 57.49 175.66 57.52 175.66 57.52 175.66 57.52 175.66 57.57 175.74 57.62 175.8 57.62 175.8 57.62 175.8 59.12 178.05 60.62 180.3 60.62 180.3 60.62 180.3 60.62 180.3 60.62 180.3 60.65 180.34 60.67 180.38 60.94 180.78 61.21 181.18 61.21 181.18 61.21 181.18 61.23 181.2 61.24 181.22 61.65 184.01 62.06 186.8 62.13 187.33 62.21 187.87 62.22 187.92 62.23 187.97"/>
            <polygon class="cls-6" points="59.7 187.97 57.23 187.97 54.77 187.97 54.73 187.7 54.69 187.43 54.19 184.13 53.69 180.83 53.69 180.83 53.69 180.83 53.69 180.83 53.69 180.83 53.69 180.83 53.69 180.83 55.17 179.5 56.64 178.17 56.82 178.56 56.99 178.97 56.99 178.97 56.99 178.97 57.09 179.19 57.18 179.41 57.18 179.41 57.18 179.41 58.17 181.71 59.16 184.01 59.17 184.03 59.18 184.06 59.36 185.44 59.54 186.83 59.62 187.4 59.7 187.97"/>
            <path class="cls-14" d="M62.21,187.87l-.11,0L62,188H59.65c0-.16,0-.34-.07-.53s0-.4-.08-.61c-.06-.47-.12-1-.17-1.46s-.11-.94-.15-1.31h0c0-.29-.06-.53-.08-.69l0-.26.78-1.41.77-1.4,0,0,0,0,.27.4.27.4h0v0l0,0,.41,2.79.41,2.79.08.53Z"/>
            <polygon class="cls-5" points="61.21 181.18 60.2 182.64 59.2 184.1 59.19 184.08 59.18 184.06 58.17 181.81 57.16 179.57 57.06 179.35 56.97 179.14 57.18 177.39 57.39 175.65 57.46 175.66 57.53 175.66 57.57 175.74 57.62 175.8 59.12 178.05 60.62 180.3 60.92 180.74 61.21 181.18"/>
            <polygon class="cls-7" points="53.69 180.83 51.08 180.66 48.47 180.5 48.48 180.47 48.49 180.43 50.34 177.65 52.2 174.87 52.22 174.88 52.24 174.88 52.47 174.91 52.7 174.95 53.19 177.89 53.69 180.83"/>
            <polygon class="cls-9" points="57.62 175.8 57.39 177.69 57.16 179.57 57.16 179.6 57.15 179.63 55.42 180.23 53.69 180.83 52.96 177.85 52.24 174.88 54.81 175.26 57.39 175.65 57.46 175.66 57.53 175.66 57.57 175.74 57.62 175.8"/>
            <polygon class="cls-12" points="55.01 187.97 50.94 187.97 46.88 187.97 46.88 187.96 46.89 187.94 47.51 187.29 48.13 186.64 50.91 183.74 53.69 180.83 53.69 180.83 53.69 180.83 53.69 180.83 53.69 180.83 54.3 184.15 54.91 187.47 54.96 187.72 55.01 187.97"/>
          </g>
          <path class="cls-27" d="M63.4,188.08H45.71v0l.14-.65.14-.65.56-.11.59-.08a15.67,15.67,0,0,1,2.09-.12,16.3,16.3,0,0,1,2.2.17,11.61,11.61,0,0,1,1.89.44c.5.16.92.32,1.37.42l.13,0,.14,0a6.62,6.62,0,0,0,.68.06,4.82,4.82,0,0,0,.82,0,12.2,12.2,0,0,0,1.78-.35,13.64,13.64,0,0,1,2-.41h0l.49,0,.54,0a8.68,8.68,0,0,1,.9,0,6.24,6.24,0,0,1,1,.07l.09.62.09.61v.12Z"/>
          <g>
            <path class="cls-28" d="M255.84,170.4a12.41,12.41,0,0,0,.91,1.15,9.25,9.25,0,0,1,.89,1.17,8,8,0,0,1,.67,1.38,7.29,7.29,0,0,1,.42,1.47,10.17,10.17,0,0,1,.17,1.81c0,.6,0,1.21,0,1.82a14.53,14.53,0,0,0,0,1.48,2.21,2.21,0,0,0,.55,1.3.61.61,0,0,0,.55.18.69.69,0,0,0,.49-.32,2.49,2.49,0,0,0,.26-1.62c-.06-.58-.23-1.17-.33-1.69s-.22-1.29-.32-1.93a15.65,15.65,0,0,0-.37-1.93,10.43,10.43,0,0,0-1.22-2.77,5.24,5.24,0,0,0-2.16-2,.49.49,0,0,0-.47.08.32.32,0,0,0,0,.45Z"/>
            <path class="cls-29" d="M264.33,164.46A6.56,6.56,0,0,0,263,166.1c-.37.62-.69,1.29-1,1.89a21.8,21.8,0,0,0-.88,2c-.26.7-.48,1.41-.67,2.13s-.35,1.42-.48,2.14-.24,1.46-.32,2.18a16,16,0,0,0-.15,2,2.32,2.32,0,0,0,.62,1.75.61.61,0,0,0,.34.14.39.39,0,0,0,.34-.14,2.38,2.38,0,0,0,.39-1.54c0-.57-.11-1.16-.12-1.68a19.77,19.77,0,0,1,.07-2.18,16.08,16.08,0,0,1,.36-2.15,20.66,20.66,0,0,1,.58-2,19,19,0,0,1,.78-1.93,17.43,17.43,0,0,1,1.08-1.87,12.39,12.39,0,0,0,1-1.88.44.44,0,0,0-.12-.55.43.43,0,0,0-.56,0Z"/>
            <path class="cls-30" d="M263.85,174a8.82,8.82,0,0,0-2.75,2.91,11.14,11.14,0,0,0-1.43,3.79.69.69,0,0,0,.5.81.6.6,0,0,0,.78-.45,16.09,16.09,0,0,1,1.3-3.51,30,30,0,0,1,1.95-3.19.24.24,0,0,0,0-.31.26.26,0,0,0-.31-.05Z"/>
          </g>
          <path class="cls-26" d="M257.66,182.69a19.4,19.4,0,0,1,2,0,20.25,20.25,0,0,1,2,.25v-2.23c-.46,0-.9-.07-1.35-.14s-.89-.14-1.34-.24c0,.34.07.68.1,1s.07.68.1,1a1.47,1.47,0,0,1,.72-.24c.25,0,.52,0,.75,0,.44,0,.74-.52.81-1a1,1,0,0,0-.59-1.17,5.49,5.49,0,0,0-1.12-.2,10.52,10.52,0,0,0-1.13,0c0,.37.08.73.11,1.1l.12,1.1.83-.18.84-.18c.17,0,.46-.15.74-.23a1,1,0,0,1,.72,0c.49.31.95,0,1.16-.51a1.11,1.11,0,0,0-.31-1.42,3,3,0,0,0-2.2-.22c-.78.17-1.57.46-2.23.6-.47.1-.65.66-.59,1.18s.35,1,.81,1h.91a4,4,0,0,1,.89.15c0-.37.08-.74.11-1.1l.12-1.1c-.4,0-.8.06-1.19.13a2.68,2.68,0,0,0-1.13.46,1.35,1.35,0,0,0-.39,1.13,1,1,0,0,0,.59.92c.52.11,1,.21,1.56.29s1.05.13,1.58.16.81-.48.8-1a1.17,1.17,0,0,0-.8-1.21,20.25,20.25,0,0,0-2-.25c-.67-.05-1.34-.06-2-.05s-.81.59-.81,1.15.27,1.11.81,1.09Z"/>
          <path class="cls-27" d="M43.79,189.45a10.65,10.65,0,0,0,1.14-.32,9.63,9.63,0,0,0,1.12-.44.29.29,0,0,0,.15-.28.25.25,0,0,0-.15-.26l-.36-.09a2.22,2.22,0,0,0-.37,0l-.45.05c-.19,0-.37,0-.41-.06s0,.16-.05.24,0,.15,0,.23a1.05,1.05,0,0,0,.53-.41,1.11,1.11,0,0,1,.53-.43l.23,0a.65.65,0,0,0,.23-.06,2.29,2.29,0,0,0,.31-.18.77.77,0,0,1,.32-.13c.14,0,.2-.15.21-.29s-.07-.27-.21-.27c-.38,0-.78-.08-1.16-.08a1.42,1.42,0,0,0-1.09.41.37.37,0,0,0-.06.4c.06.12.16.19.27.08a1.28,1.28,0,0,1,1-.35c.35,0,.71.1,1.05.1v-.56a2.31,2.31,0,0,0-.63.2,2.72,2.72,0,0,1-.62.23l-.21.07a.76.76,0,0,0-.19.12,2.2,2.2,0,0,0-.28.38.56.56,0,0,1-.34.27.21.21,0,0,0-.14.2.49.49,0,0,0,0,.27.35.35,0,0,0,.21.16,1.1,1.1,0,0,0,.26,0c.22,0,.44,0,.66,0a2.12,2.12,0,0,1,.65.09v-.54a11.86,11.86,0,0,1-2.26.76c-.14,0-.17.18-.15.31s.13.26.26.23Z"/>
          <path class="cls-27" d="M44.79,188.31a.93.93,0,0,1,.57.1,1.6,1.6,0,0,0,.56.18V188a.88.88,0,0,1-.54-.29c-.19-.16-.36-.36-.49-.47l0,.25,0,.25a.43.43,0,0,1,.28.08l.27.16.44.23.43.26,0-.25a2.46,2.46,0,0,1,0-.26.54.54,0,0,1-.33-.13l-.33-.23-.33-.19-.32-.19-.09.25a2.58,2.58,0,0,1-.08.26l.36.14.36.15c.12,0,.21,0,.24-.16a.32.32,0,0,0-.08-.35,4.6,4.6,0,0,0-.53-.33c-.25-.13-.49-.25-.5-.21s.25,0,.51-.11l.53-.17a4.46,4.46,0,0,1,1,0c.26,0,.45-.19.54-.83a.49.49,0,0,0,0-.24c0-.08-.09-.12-.17-.11a1.46,1.46,0,0,0-.34.1l-.33.12a1.81,1.81,0,0,1-.51.08h-.51a2.42,2.42,0,0,0-.7.14,3.25,3.25,0,0,0-.67.34.26.26,0,0,0-.07.35c0,.12.16.21.29.13a2.38,2.38,0,0,1,.76-.32,3.36,3.36,0,0,1,.79-.08,2.78,2.78,0,0,0,.65-.13,3.58,3.58,0,0,1,.64-.18,4740493810818.89,4740493810818.89,0,0,0-.2-.36c0,.28-.12.38-.24.42a1.8,1.8,0,0,1-.45,0h-.31a2,2,0,0,0-.31.07,3.63,3.63,0,0,1-.51.15,3.74,3.74,0,0,1-.52.09,1.25,1.25,0,0,0-.19,0,.41.41,0,0,0-.17.13c-.28.37,0,.68.4.91s.88.4,1,.5a2.58,2.58,0,0,0,.08-.26,2.41,2.41,0,0,0,.08-.25l-.35-.15-.36-.14c-.11-.05-.21.05-.25.17a.29.29,0,0,0,.08.34c.23.13.51.36.8.54a1.22,1.22,0,0,0,.84.26c.09,0,.14-.12.15-.23a.3.3,0,0,0-.1-.28c-.21-.13-.53-.38-.85-.56a1.1,1.1,0,0,0-.89-.22.26.26,0,0,0-.15.23.4.4,0,0,0,.1.28c.19.16.38.37.59.55a1,1,0,0,0,.66.29c.13,0,.2-.14.2-.27s-.07-.28-.2-.29a.92.92,0,0,1-.36-.13,2.16,2.16,0,0,0-.34-.17.83.83,0,0,0-.27,0l-.27.05c-.13,0-.17.17-.14.31s.12.25.25.23Z"/>
          <path class="cls-31" d="M283.3,160.31l-.91.14-.91.14c-2.38.37-3.61.55-4.31.65s-.87.13-1.13.19l-.88.23-.8.22c.06-.38.12-.79.19-1.21s.14-.88.21-1.34c0-.22.07-.42.1-.62l.09-.58c2,.41,3.94.9,5.43,1.31S282.94,160.19,283.3,160.31Z"/>
          <path class="cls-31" d="M22.75,152.58c-.15.23-.31.48-.48.76s-.35.59-.54.94l-.34.65c-.1.21-.21.41-.3.61-.17.38-.32.72-.45,1s-.25.6-.34.85l-2.61.6-2.62.61-.87-.7c-.27-.22-.52-.43-.74-.63l.38-.89c.13-.29.26-.59.4-.89l.06-.11a1.17,1.17,0,0,1,0-.11,10,10,0,0,1,.85-.78,8.5,8.5,0,0,1,1.21-.83,7.78,7.78,0,0,1,1.48-.66,7.11,7.11,0,0,1,1.25-.29,12.83,12.83,0,0,1,1.65-.16C21.39,152.56,22.05,152.56,22.75,152.58Z"/>
        </g>
      </g>
    </g>
  </g>
</svg>
