<svg id="Layer_1" data-name="Layer 1" xmlns="http://www.w3.org/2000/svg" width="230.22" height="292.32" viewBox="0 0 230.22 292.32">
  <defs>
    <style>
      .cls-1, .cls-10, .cls-11, .cls-12, .cls-13, .cls-15, .cls-16, .cls-17, .cls-18, .cls-19, .cls-2, .cls-20, .cls-21, .cls-22, .cls-24, .cls-25, .cls-26, .cls-27, .cls-28, .cls-29, .cls-3, .cls-30, .cls-31, .cls-32, .cls-33, .cls-34, .cls-35, .cls-36, .cls-37, .cls-38, .cls-4, .cls-5, .cls-6, .cls-7, .cls-8, .cls-9 {
        fill-rule: evenodd;
      }

      .cls-1 {
        opacity: 0.5;
      }

      .cls-2 {
        fill: #fff;
      }

      .cls-3 {
        fill: #21110e;
      }

      .cls-4 {
        fill: #ff6a14;
      }

      .cls-5 {
        fill: #eb4600;
      }

      .cls-6 {
        fill: #f54f08;
      }

      .cls-7 {
        fill: #d64000;
      }

      .cls-8 {
        fill: #e02d00;
      }

      .cls-9 {
        fill: #b3560e;
      }

      .cls-10 {
        fill: #b5580d;
      }

      .cls-11 {
        fill: #a63200;
      }

      .cls-12 {
        fill: #b3580d;
      }

      .cls-13 {
        fill: #ba5d11;
      }

      .cls-14, .cls-16 {
        fill: #c26112;
      }

      .cls-15 {
        fill: #852d08;
      }

      .cls-17 {
        fill: #d46e1a;
      }

      .cls-18 {
        fill: #c76414;
      }

      .cls-19 {
        fill: #a14310;
      }

      .cls-20 {
        fill: #993d0c;
      }

      .cls-21 {
        fill: #ab3000;
      }

      .cls-22 {
        fill: #913109;
      }

      .cls-23 {
        fill: #9e240b;
      }

      .cls-24 {
        fill: #331c17;
      }

      .cls-25 {
        fill: #241512;
      }

      .cls-26 {
        fill: #ba5b0d;
      }

      .cls-27 {
        fill: #331d18;
      }

      .cls-28 {
        fill: #941600;
      }

      .cls-29 {
        fill: #590900;
      }

      .cls-30 {
        fill: #bd3b07;
      }

      .cls-31 {
        fill: #d96b11;
      }

      .cls-32 {
        fill: #c42100;
      }

      .cls-33 {
        fill: #54190a;
      }

      .cls-34 {
        fill: #6b4913;
      }

      .cls-35 {
        fill: #8f3a15;
      }

      .cls-36 {
        fill: #994500;
      }

      .cls-37 {
        fill: #ad4b05;
      }

      .cls-38 {
        fill: #942c00;
      }
    </style>
  </defs>
  <g>
    <path class="cls-1" d="M98.49,292.32c-7,0-51.38-6.85-70.47-13.24a9.15,9.15,0,0,1-1.52,1.41,7.22,7.22,0,0,1-7.3,3.37,7.11,7.11,0,0,1-3.25.78,7.37,7.37,0,0,1-4.47-1.53A8.46,8.46,0,0,1,7,280.44a8.24,8.24,0,0,1-2-5.73c-2.49-14.76-1.58-20,.64-23,1.88-2.92,4.52-7,6.57-10.28a7.61,7.61,0,0,1-.07-2.24,8.46,8.46,0,0,1,3.54-5.78,6.59,6.59,0,0,1,1.84-3.11,6.53,6.53,0,0,1,2.59-6.15,6.45,6.45,0,0,1,2.32-4c2.9-7.31,6.69-16.59,9.7-23,.51-1.15,1-2.23,1.61-3.31a23.36,23.36,0,0,1,3.32-5.29l.21-.23a17.8,17.8,0,0,1,2.33-2.47c2.63-2.76,5.53-5.85,6.3-8.08.28-.8,1.23-4.66,2.15-8.4,3.86-15.67,7.93-31.58,11.59-39.84,0-1.53,0-4.26,0-8,.09-9.25,6.08-12.34,9.67-14.19,3.05-1.57,4.14-2.25,4.7-4.8L83.2,60.86c-.26-1.62-.46-3.14-.57-4.54-.68-8,4.28-14.57,8.21-18.46a6.7,6.7,0,0,1,1.88-4A10.85,10.85,0,0,1,96.94,26,15.16,15.16,0,0,1,107.4,15.68c.84-2.57,2.93-4.58,6.22-6a5.26,5.26,0,0,1,1.15-.35l.54-.11a5.66,5.66,0,0,1,.63-2.67,5.57,5.57,0,0,1,6.65-2.79c1.81.56,7.31,2.27,8.3,7.36a7.74,7.74,0,0,1-1.3,5.93,15.07,15.07,0,0,1,7.2,9.22,10.79,10.79,0,0,1,3.79,7,6.71,6.71,0,0,1,2.6,5.3,1.48,1.48,0,0,1,0,.21c3.74,4,8,10.16,7.34,17.56-.09,1.09-.23,2.26-.41,3.48l9.4,42.61c.56,2.55,1.65,3.23,4.71,4.8,3.58,1.85,9.57,4.94,9.66,14.19,0,3.62,0,6.29,0,7.84,3.71,8.12,7.86,24.32,11.8,40.31.92,3.74,1.87,7.6,2.15,8.4.77,2.23,3.67,5.32,6.3,8.08a19.1,19.1,0,0,1,2.33,2.47l.21.22A24.09,24.09,0,0,1,200,194c.57,1.08,1.1,2.16,1.61,3.29,3,6.43,6.8,15.71,9.7,23a6.39,6.39,0,0,1,2.32,4,6.61,6.61,0,0,1,2.22,2.92,6.5,6.5,0,0,1,.37,3.23,6.57,6.57,0,0,1,1.84,3.12,8.52,8.52,0,0,1,3.36,4.81,7.46,7.46,0,0,1,.16,2.78c.23.47.43,1,.63,1.49,2,3.15,4.24,6.66,5.89,9.21,2.22,3,3.13,8.28.64,23.05a8.26,8.26,0,0,1-2,5.73,8.39,8.39,0,0,1-4.51,2.66,7.32,7.32,0,0,1-4.47,1.54h0a7.11,7.11,0,0,1-3.25-.78,7.23,7.23,0,0,1-7.33-3.41l-.31-.24-16.36,3c-20.72,4.65-48,8.72-53.54,8.72a9.18,9.18,0,0,1-1.47-.1c-.56-.09-3.12-.39-12.94-.54a4.89,4.89,0,0,1-.54,0c-7.07,0-19.31.17-22.08.61A9.09,9.09,0,0,1,98.49,292.32ZM75.93,180.57a40.8,40.8,0,0,0-4.42,9.68,66,66,0,0,1-10.17,22.06c2.52-.66,5.53-1.39,8.21-2-.06-1-.1-2.18-.1-3.47,0-3,1.42-7,7.6-10v-9.6A20.37,20.37,0,0,0,75.93,180.57Zm90,29.61c1.87.44,3.89.93,5.8,1.41a64.64,64.64,0,0,1-9.51-21.07c-.59-2.49-2.38-6.27-5.11-10.86l-.06.06a21.15,21.15,0,0,0-1.42,7.46v8.31c5.11,1.84,8.37,4.45,9.72,7.79a5.4,5.4,0,0,1,.31.88,9,9,0,0,1,.37,2.56C166,208,166,209.17,165.93,210.18Z"/>
    <path class="cls-2" d="M95,288.82c-7,0-51.39-6.86-70.48-13.25A8.32,8.32,0,0,1,23,277a7.21,7.21,0,0,1-7.3,3.38A7.23,7.23,0,0,1,8,279.6a8.49,8.49,0,0,1-4.51-2.66,8.21,8.21,0,0,1-2-5.73c-2.5-14.77-1.59-20,.63-23,1.89-2.92,4.52-7.06,6.58-10.29a7.54,7.54,0,0,1-.07-2.23,8.42,8.42,0,0,1,3.54-5.78A6.62,6.62,0,0,1,14,226.74a6.4,6.4,0,0,1,.37-3.23,6.49,6.49,0,0,1,2.21-2.91,6.24,6.24,0,0,1,.71-2.09,6.45,6.45,0,0,1,1.61-1.94c2.9-7.32,6.69-16.59,9.7-23,.51-1.14,1-2.23,1.61-3.3a23.79,23.79,0,0,1,3.33-5.3l.21-.23a17.57,17.57,0,0,1,2.33-2.46c2.63-2.77,5.52-5.85,6.29-8.08.28-.81,1.23-4.67,2.15-8.4,3.87-15.67,7.94-31.58,11.6-39.85,0-1.52,0-4.26,0-8,.09-9.25,6.08-12.34,9.66-14.18,3.06-1.58,4.14-2.25,4.71-4.8L79.7,57.35c-.27-1.61-.46-3.13-.58-4.53-.67-8,4.29-14.58,8.21-18.47a6.72,6.72,0,0,1,1.88-4,10.88,10.88,0,0,1,4.23-7.89A15.13,15.13,0,0,1,103.9,12.18c.84-2.57,2.93-4.59,6.22-6a5.69,5.69,0,0,1,1.15-.36l.54-.1A5.6,5.6,0,0,1,117.42,0a5.62,5.62,0,0,1,1.66.25c1.81.57,7.31,2.28,8.3,7.36a7.74,7.74,0,0,1-1.3,5.93,15.11,15.11,0,0,1,7.21,9.22,10.86,10.86,0,0,1,3.79,7,6.69,6.69,0,0,1,2.59,5.3v.2c3.74,4,8,10.17,7.34,17.57-.1,1.09-.23,2.25-.41,3.48L156,98.91c.57,2.55,1.65,3.22,4.71,4.8,3.58,1.84,9.58,4.93,9.66,14.18,0,3.62,0,6.3,0,7.85,3.71,8.12,7.85,24.32,11.79,40.31.93,3.73,1.88,7.59,2.16,8.39.77,2.24,3.66,5.32,6.29,8.09A17.58,17.58,0,0,1,193,185l.21.23a23.79,23.79,0,0,1,3.33,5.3c.57,1.07,1.09,2.15,1.6,3.29,3,6.43,6.8,15.71,9.71,23a6.57,6.57,0,0,1,2.32,4,6.5,6.5,0,0,1,2.21,2.91,6.4,6.4,0,0,1,.37,3.23,6.66,6.66,0,0,1,1.84,3.12,8.56,8.56,0,0,1,3.37,4.82,7.64,7.64,0,0,1,.16,2.77c.22.48.43,1,.62,1.49,2,3.15,4.25,6.66,5.9,9.21,2.22,3,3.13,8.29.63,23.06a8.26,8.26,0,0,1-2,5.73,8.49,8.49,0,0,1-4.51,2.66,7.32,7.32,0,0,1-4.47,1.53h0a7.15,7.15,0,0,1-3.26-.78,6.3,6.3,0,0,1-1.15.1,7.4,7.4,0,0,1-6.18-3.51l-.31-.24c-3.48.65-9.42,1.75-16.35,3-20.72,4.65-48,8.72-53.54,8.72a9.31,9.31,0,0,1-1.48-.1c-.55-.09-3.12-.38-12.93-.53a4.89,4.89,0,0,1-.54,0c-7.07,0-19.31.16-22.08.6A9.18,9.18,0,0,1,95,288.82ZM72.43,177.06A41.11,41.11,0,0,0,68,186.74a65.83,65.83,0,0,1-10.17,22.07c2.53-.67,5.54-1.4,8.21-2-.06-1-.09-2.17-.09-3.47,0-3,1.42-7,7.6-10v-9.59A20.7,20.7,0,0,0,72.43,177.06Zm90,29.62c1.86.44,3.89.93,5.8,1.41A64.4,64.4,0,0,1,158.72,187c-.59-2.48-2.39-6.27-5.12-10.86l-.06.06a21.09,21.09,0,0,0-1.41,7.47V192c5.11,1.84,8.37,4.45,9.72,7.79a5.26,5.26,0,0,1,.3.87,9,9,0,0,1,.38,2.56C162.53,204.51,162.49,205.66,162.43,206.68Z"/>
    <g>
      <path class="cls-3" d="M135.36,49.08l5.12,5.51,10,45.52c2.41,10.92,14.13,6.53,14.23,17.83.06,5.85,0,9.23,0,9.23H114v.06H61.76s-.06-3.38,0-9.23c.1-11.3,11.82-6.91,14.23-17.83L86,54.65l5.12-5.51,22,6.8Z"/>
      <path class="cls-4" d="M83.92,195.87s-12.37,2-12.37,7.44a30.37,30.37,0,0,0,.71,7.78s-14.84,3.39-17.31,4.4-3.89,6.43-3.89,6.43-30.38,10.49-34.62,16.59-4.24,21.65,2.83,28.42,72.06,16.92,76.3,16.25,23-.68,23-.68v0c5.52.08,12.07.25,14.37.61,4.24.68,69.24-9.47,76.3-16.24s7.07-22.33,2.83-28.43-34.62-16.58-34.62-16.58-1.41-5.41-3.89-6.43-17.31-4.4-17.31-4.4a30.37,30.37,0,0,0,.71-7.78c0-5.41-12.37-7.44-12.37-7.44l-30.53,7Z"/>
      <path class="cls-5" d="M108.71,255.42s40.5,12.9,53.77,14.69,17.38-2.33,16.84-4.66-8.42-9.32-4.3-9.5,15.77,6.81,17.2,5.56-.17-7.17,1.62-5.56,4.3,6.28,5.19,5-2.61-16.14-2.61-16.14l9.64,3.56-.41,22.46s-53,9.91-65.9,11.7S91,266.17,108.71,255.42Z"/>
      <path class="cls-6" d="M83.86,218.47q22.42,19,21.67,3.66a17.34,17.34,0,0,1-13.44-4.3q-16.68-16-16-14.16-4.71-1-3.88,7.42-57.3,27.19-54.54,37Q15.19,270.37,45,271.41a31.42,31.42,0,0,1-4.66-20.07q6.86,24.69,31.18,25.8-7.35-17.86,5.37-13.62,26.84,17.12,49.55,17.36-40.29-17.62-43.51-34.39Q80,227.23,83.86,218.47Z"/>
      <path class="cls-7" d="M50.47,254.34s-2-7-.18-10.75-14.52-1.79-14.52-1.79S72,214,72.69,216.53s2.87,8.6,4.48,7.17a8.64,8.64,0,0,0,2.15-4.13L82,230.16s-2.5,13.07-2.86,18.27,4.12,12.18,4.12,12.18-9-6.81-16.13-9.5S50.47,254.34,50.47,254.34Z"/>
      <path class="cls-8" d="M82,230.16Q77.38,207.9,96.7,228,80.2,215.58,82,230.16Z"/>
      <path class="cls-9" d="M59.09,239.67q12.14,10,31.79,5.78,3.54-19.17-11.75-17.19-11.53-.82-16.58-9.15c-17.33-7.19-22.44-4.13-20.7,1.74-2.82,9.28-3.2,11.53,1,11.76A42.19,42.19,0,0,1,59.09,239.67Z"/>
      <path class="cls-10" d="M65.7,140.34s.35,14.35,6.56,23.91,6.89,15.84,6.89,19.43V201s13.46,11.06,17.94,14.05c1.89,1.26,6,1.83,10.11,2.06v0s2.23.12,5.29.12h.3c3.26,0,5.68-.12,5.68-.12v0c4.11-.23,8.21-.8,10.1-2.06,4.49-3,17.94-14.05,17.94-14.05V183.67c0-3.58.69-9.86,6.9-19.42S160,140.34,160,140.34c3.45-26.9-22.42-26.3-30.7-26.3s-6.89-14.94-6.89-14.94H103.3S104.68,114,96.4,114,62.25,113.44,65.7,140.34Z"/>
      <path class="cls-11" d="M115.56,166.77q-.51,10.08,25.4,6.26,7.86-.69,11.37-11.78c.54.81,1.13,1.68,1.73,2.6a50.07,50.07,0,0,0-3.79,6.6c-3.43,7.27-20.59,7.4-31,4.73-5.75-1.49-5.76-9-4.79-21.27Z"/>
      <path class="cls-12" d="M110.89,165.44q.49,8.85-25.38,5.5-7.86-.62-11.36-10.34c-.55.71-1.13,1.48-1.73,2.28a44.06,44.06,0,0,1,3.79,5.79c3.42,6.39,20.57,6.5,30.92,4.16,5.75-1.31,5.76-7.87,4.78-18.67Z"/>
      <path class="cls-13" d="M80.75,127l-3,32s-13,17-15.24,26.49A61,61,0,0,1,53,206c-2.63,3.9-21.08,23.57-24.86,27.59q6.6,14.37-5.28,18.8.45,19.38-3.92,20.42c-1,2.41-2.39,2.69-4.13.81-1.39,2.29-2.8,2.53-4.23.7q-3.77-.13-3.42-3.42-2.83-16.45-.4-19.52,9.94-15.33,12.14-19.2s14.76-39,18.8-43.41,8.58-8.58,10-12.75,10.24-44.84,15.56-51.37,9.09-7.63,13.2-8.36,4.48-.72,4.48-.72Z"/>
      <path class="cls-11" d="M21.2,235.75l2.33,1.75a14.92,14.92,0,0,1,0,6.78,14.58,14.58,0,0,1-3.61,6l-.16,2.37-1.08,19.15-.9-16.9-2.42,0-.57,18.74s-2.19-18.93-1.58-19,0,.91-.82,1-1.27,18.8-1.83,18.75.9-19.6.23-21.48-2.86-.53-3.24-.73,3.31-1.95,4-1.23l.73.73,6.82-2s5.11-4.51,4.71-6.13S21.2,235.75,21.2,235.75Z"/>
      <path class="cls-11" d="M17.68,235.82c4.3-2.75,12.87,6.17,2.23,14.47.14,4.43,2.28,15.29-4.22,14.23-2.08.13-4.74-5.62-4.1-11.88C9.08,249.43,7.65,251,7.65,251,11.55,244.82,17.68,235.82,17.68,235.82Z"/>
      <path class="cls-13" d="M146,127.27l3,32s13,17.06,15.24,26.5a60.68,60.68,0,0,0,9.58,20.53c2.63,3.91,21.08,23.58,24.86,27.59q-6.6,14.39,5.28,18.81-.45,19.38,3.92,20.41c1,2.42,2.39,2.69,4.13.82,1.39,2.29,2.8,2.53,4.23.7q3.77-.13,3.42-3.42,2.83-16.46.4-19.52-9.94-15.33-12.15-19.2S193.09,193.39,189.05,189s-8.58-8.58-10-12.75-10.24-44.84-15.56-51.38-9.09-7.62-13.2-8.35-4.48-.72-4.48-.72Z"/>
      <ellipse class="cls-14" cx="111.03" cy="131.95" rx="41.23" ry="15.44"/>
      <path class="cls-11" d="M110.92,167q.51,10.08-25.4,6.26-7.86-.69-11.37-11.78c-.54.81-1.13,1.68-1.73,2.6a50.07,50.07,0,0,1,3.79,6.6c3.43,7.27,20.59,7.41,31,4.73,5.75-1.48,5.76-9,4.79-21.27Z"/>
      <path class="cls-15" d="M76.75,172.35c-.75-4.37-2.11-14.24-3.11-32.9.19,11.74-.15,17.2-1.38,24.8C74.92,169,76.62,172,76.75,172.35Z"/>
      <path class="cls-8" d="M80.22,246.69q1.19,19.68,52.68,36.38Q81.84,262.69,85.56,246.3Z"/>
      <path class="cls-16" d="M112.49,217.27Zm6-.15c4.11-.23,8.21-.8,10.1-2.06.94-.63,2.27-1.6,3.78-2.75a34.54,34.54,0,0,0,.2-13.8c-2.17-11.25-9.9-19.57-19.11-19.57s-16.83,8.2-19.06,19.32a34.42,34.42,0,0,0-.65,6.66,33.59,33.59,0,0,0,1.08,8.52c.89.65,1.66,1.21,2.27,1.62,1.89,1.26,6,1.83,10.11,2.06v0s2.23.12,5.29.12h.3c3.26,0,5.68-.12,5.68-.12Z"/>
      <path class="cls-16" d="M17.58,234.36c4.15-2.59,11.83,7.42,1.54,15.22,1,9.19.92,13.79-3.73,13.1-2,.12-3.37-5.88-3.09-11.08-2.44-3-5.57-.23-5.57-.23C10.5,245.54,17.58,234.36,17.58,234.36Z"/>
      <path class="cls-17" d="M13.65,257.7l.49,3.22a4,4,0,0,0,2.78.49c1.44-.35,1.7-.67,1.7-.67l-.36-3.51S15.35,256,13.65,257.7Z"/>
      <path class="cls-18" d="M26.1,229.16s21.33-27.24,22.22-34.77-8.41-8-8.41-8-2.85,2-6.18,9.47-14.85,36.31-14.85,36.31S22.89,236.38,26.1,229.16Z"/>
      <path class="cls-15" d="M15.23,238.19c-1.41-2.72,7.33-3.21,10.51-2.9s3.87,2.47,3.87,2.47a2,2,0,0,0,.7-2c-.36-1.16-1-3.1-9.13-2.8S13.46,237.44,15.23,238.19Z"/>
      <path class="cls-19" d="M18.77,232.52a1,1,0,1,0-1.19-1A1.12,1.12,0,0,0,18.77,232.52Z"/>
      <path class="cls-19" d="M21.13,232.07a1.24,1.24,0,1,0-1.38-1.24A1.32,1.32,0,0,0,21.13,232.07Z"/>
      <path class="cls-19" d="M24,232a1.24,1.24,0,1,0-1.38-1.23A1.31,1.31,0,0,0,24,232Z"/>
      <path class="cls-19" d="M26.81,232.18A1.24,1.24,0,1,0,25.43,231,1.31,1.31,0,0,0,26.81,232.18Z"/>
      <path class="cls-19" d="M29.32,233.12a1.24,1.24,0,1,0-1.38-1.23A1.31,1.31,0,0,0,29.32,233.12Z"/>
      <path class="cls-20" d="M21.16,225a1.26,1.26,0,0,1,.81.76l0-.07a1.4,1.4,0,0,1,1.8-.68,1.29,1.29,0,0,1,.92,1.63,1.4,1.4,0,0,1-1.81.68,1.44,1.44,0,0,1-.94-.95h0a1.18,1.18,0,0,1-1.54.56,1.11,1.11,0,0,1-.8-1.37,1.19,1.19,0,0,1,1.54-.56Zm10.35,3.81a1.56,1.56,0,0,0-1.36.14,1.23,1.23,0,0,0,.14-.25,1.31,1.31,0,0,0-.92-1.63,1.4,1.4,0,0,0-1.81.68,1.31,1.31,0,0,0,.92,1.63,1.56,1.56,0,0,0,1.36-.14,1.23,1.23,0,0,0-.14.25,1.31,1.31,0,0,0,.92,1.63,1.4,1.4,0,0,0,1.81-.68,1.31,1.31,0,0,0-.92-1.63Zm-4.84-2.92a1.39,1.39,0,0,0-1.81.68,1.29,1.29,0,0,0,.92,1.63,1.4,1.4,0,0,0,1.8-.68A1.29,1.29,0,0,0,26.67,225.86Z"/>
      <path class="cls-20" d="M23.84,220.83a1.28,1.28,0,0,1,.7.86.25.25,0,0,1,0-.07,1.4,1.4,0,0,1,1.88-.44,1.3,1.3,0,0,1,.7,1.73,1.42,1.42,0,0,1-1.88.45,1.47,1.47,0,0,1-.82-1.07h0a1.2,1.2,0,0,1-1.61.36,1.1,1.1,0,0,1-.61-1.47,1.19,1.19,0,0,1,1.6-.35Zm9.77,5.11a1.57,1.57,0,0,0-1.37,0,.91.91,0,0,0,.17-.23,1.31,1.31,0,0,0-.7-1.74,1.42,1.42,0,0,0-1.88.45,1.3,1.3,0,0,0,.7,1.73,1.57,1.57,0,0,0,1.37,0,.91.91,0,0,0-.17.23,1.3,1.3,0,0,0,.7,1.74,1.41,1.41,0,0,0,1.88-.44,1.31,1.31,0,0,0-.7-1.74Zm-4.43-3.52a1.41,1.41,0,0,0-1.88.44,1.3,1.3,0,0,0,.7,1.73,1.4,1.4,0,0,0,1.88-.44A1.29,1.29,0,0,0,29.18,222.42Z"/>
      <path class="cls-21" d="M87.93,71.68l51.77-.45a3,3,0,0,1,3.1,3.11l-1,9.38a3.23,3.23,0,0,1-3.1,3.1H88.83a3.23,3.23,0,0,1-3.11-3.1l-.89-8.94A3,3,0,0,1,87.93,71.68Z"/>
      <path class="cls-22" d="M108.12,174.05a1.55,1.55,0,0,1-.47-1.56l-.1.08a2.75,2.75,0,0,1-3.39-.22,1.77,1.77,0,0,1,.22-2.82,2.75,2.75,0,0,1,3.38.23,1.76,1.76,0,0,1,.5,1.9h0a2.34,2.34,0,0,1,2.87.22,1.58,1.58,0,0,1,.52,1.29,2.53,2.53,0,0,1,1.58-.54,2,2,0,1,1-2.3,2,2.64,2.64,0,0,1,0-.29,2.34,2.34,0,0,1-2.83-.25Zm10.6-.05a1.55,1.55,0,0,0,.47-1.56l.1.08a2.77,2.77,0,0,0,3.39-.23,1.76,1.76,0,0,0-.22-2.81,2.74,2.74,0,0,0-3.38.22,1.77,1.77,0,0,0-.5,1.91h0a2.34,2.34,0,0,0-2.87.22,1.51,1.51,0,0,0,.14,2.4,2.34,2.34,0,0,0,2.87-.22Zm14.66-16.49a2.05,2.05,0,0,0-1.1-1.74,3.07,3.07,0,0,0,.53,0,2.17,2.17,0,0,0,2.28-2.07,2.25,2.25,0,0,0-2.35-2.07,2.16,2.16,0,0,0-2.28,2.07,2.07,2.07,0,0,0,1.1,1.75,2.26,2.26,0,0,0-.53-.06,2.16,2.16,0,0,0-2.27,2.08,2,2,0,0,0,.65,1.42,2.69,2.69,0,0,0-2.45.63,1.77,1.77,0,0,0,.21,2.82,2.46,2.46,0,0,0,.45.25,2.71,2.71,0,0,0-2.17.68,1.77,1.77,0,0,0,.21,2.82,2.74,2.74,0,0,0,3.38-.22,1.77,1.77,0,0,0-.21-2.82,2.46,2.46,0,0,0-.45-.25,2.71,2.71,0,0,0,2.17-.68,1.76,1.76,0,0,0,0-2.64,2.44,2.44,0,0,0,.55.06,2.16,2.16,0,0,0,2.27-2.08Zm2.05-8c0-2.72-4.67-2.72-4.62,0a2.24,2.24,0,0,0,2.35,2.07,2.15,2.15,0,0,0,2.27-2.07Zm-9.31,19.75a2.74,2.74,0,0,1-3.38.22,1.76,1.76,0,0,1-.21-2.81,2.74,2.74,0,0,1,3.38-.22,1.76,1.76,0,0,1,.21,2.81ZM93.46,157.57a2.07,2.07,0,0,1,1.1-1.75,2.33,2.33,0,0,1-.53.06,2.16,2.16,0,0,1-2.28-2.08,2.26,2.26,0,0,1,2.35-2.07,2.17,2.17,0,0,1,2.28,2.08,2.08,2.08,0,0,1-1.1,1.75,2.26,2.26,0,0,1,.53-.06,2.16,2.16,0,0,1,2.27,2.07,2,2,0,0,1-.65,1.42,2.72,2.72,0,0,1,2.45.64,1.76,1.76,0,0,1-.21,2.81,2,2,0,0,1-.45.26,2.71,2.71,0,0,1,2.17.68,1.77,1.77,0,0,1-.21,2.82A2.75,2.75,0,0,1,97.8,166a1.77,1.77,0,0,1,.21-2.82,2.51,2.51,0,0,1,.45-.26,2.67,2.67,0,0,1-2.17-.68,1.75,1.75,0,0,1,0-2.63,3.31,3.31,0,0,1-.55,0,2.16,2.16,0,0,1-2.27-2.07Zm-2-8c0-2.73,4.67-2.72,4.62,0a2.25,2.25,0,0,1-2.35,2.07,2.16,2.16,0,0,1-2.27-2.07Zm9.31,19.75a2.74,2.74,0,0,0,3.38.22,1.77,1.77,0,0,0,.21-2.82,2.77,2.77,0,0,0-3.38-.22A1.77,1.77,0,0,0,100.72,169.32Z"/>
      <path class="cls-22" d="M91.59,145.71a2.34,2.34,0,0,1,1.94-2.62A2.24,2.24,0,0,1,96.09,145a2.33,2.33,0,0,1-1.93,2.63A2.25,2.25,0,0,1,91.59,145.71Z"/>
      <path class="cls-22" d="M92.91,137.16a2,2,0,0,0,1,1.49l-.13,0a2.32,2.32,0,0,0-1.93,2.62,2.24,2.24,0,0,0,2.57,1.92,2.33,2.33,0,0,0,1.93-2.62,2.26,2.26,0,0,0-1.34-1.77h0a2,2,0,0,0,1.61-2.24,1.92,1.92,0,0,0-2.16-1.67A2,2,0,0,0,92.91,137.16Z"/>
      <path class="cls-22" d="M95.37,129.91a1.79,1.79,0,0,0,.84,1.44h-.13a2.11,2.11,0,0,0-2,2.22,2,2,0,0,0,2.17,1.94,2.1,2.1,0,0,0,2-2.21,2.05,2.05,0,0,0-1.07-1.71h0a1.79,1.79,0,0,0,1.64-1.9A1.73,1.73,0,0,0,97,128,1.79,1.79,0,0,0,95.37,129.91Z"/>
      <path class="cls-22" d="M132.06,130a1.83,1.83,0,0,1-.81,1.47h.12a2.13,2.13,0,0,1,2,2.19,2,2,0,0,1-2.14,2,2.14,2.14,0,0,1-2-2.19,2.1,2.1,0,0,1,1-1.75h0a1.81,1.81,0,0,1-1.7-1.88,1.74,1.74,0,0,1,1.79-1.74A1.81,1.81,0,0,1,132.06,130Z"/>
      <path class="cls-23" d="M114.06,193.32c-7,0-13.45-6.49-18.29-18.26-4.76-11.57-7.38-26.9-7.38-43.17S91,100.3,95.77,88.73C100.61,77,107.1,70.47,114.06,70.47S127.51,77,132.35,88.73c4.75,11.57,7.37,26.9,7.37,43.16s-2.62,31.6-7.37,43.17C127.51,186.83,121,193.32,114.06,193.32Zm0-121.43c-6.34,0-12.37,6.18-17,17.38-4.69,11.4-7.27,26.54-7.27,42.62s2.58,31.22,7.27,42.63c4.61,11.2,10.64,17.37,17,17.37s12.37-6.17,17-17.37c4.69-11.41,7.27-26.54,7.27-42.63s-2.58-31.22-7.27-42.62C126.43,78.07,120.4,71.89,114.06,71.89Z"/>
      <path class="cls-24" d="M139.74,67.29l.17,27.49s.11,16-4.94,26.41c-4.89,10.06-19.8,27-20.75,28.09v.13s-16-17.75-21.17-28.14-5.28-26.41-5.28-26.41l-.18-27.5,27.8,1.75Z"/>
      <path class="cls-25" d="M115.3,35.31H94.8s-10.89,7.62-10.09,17,5,21.43,5,21.43l22.38,1.31v.11l1-.06,1,.06v-.11l22.38-1.31s4.21-12,5-21.43-10.09-17-10.09-17Z"/>
      <path class="cls-26" d="M108.58,44.3l4.93,2.61,5.24-2.61c8.7-4.33,17.8,7.75,17.8,17.22V81.19c0,9.47-8,17.22-17.8,17.22H108.58c-9.79,0-17.8-7.75-17.8-17.22V61.52C90.78,52.05,100,39.75,108.58,44.3Z"/>
      <path class="cls-16" d="M109.58,44.3l3.78,2.61,4-2.61c6.7-4.33,13.69,7.75,13.69,17.22V81.19c0,9.47-6.16,17.22-13.69,17.22h-7.82c-7.54,0-13.7-7.75-13.7-17.22V61.52C95.88,52.05,103,39.75,109.58,44.3Z"/>
      <path class="cls-13" d="M113.3,105.24c6,0,10.8-3.23,10.8-7.18s-4.85-7.18-10.8-7.18-10.79,3.22-10.79,7.18S107.36,105.24,113.3,105.24Z"/>
      <path class="cls-25" d="M100,25.86H126.4A5.16,5.16,0,0,1,131.55,31v5.15H94.8V31A5.16,5.16,0,0,1,100,25.86Z"/>
      <path class="cls-25" d="M107.88,17.25h10.88a9.47,9.47,0,0,1,9.45,9.45v9.45H98.43V26.7A9.47,9.47,0,0,1,107.88,17.25Z"/>
      <path class="cls-27" d="M125.8,27.09a4.78,4.78,0,0,1,2.74,4.3v4.76H98.45V31.39a4.78,4.78,0,0,1,3-4.41,8.77,8.77,0,0,1,8.73-8.3h6.92A8.76,8.76,0,0,1,125.8,27.09Z"/>
      <path class="cls-21" d="M111.62,86.53l-5.17-.2q-1-3.31,2.58-4.62c1.1-3.09,3.64-5.58,4.18-5.55s3.07,2.5,4.16,5.53Q121,83,120,86.32l-5.17.2h-1.57v0C111.85,86.52,111.32,86.52,111.62,86.53Z"/>
      <path class="cls-28" d="M107,83a3.26,3.26,0,0,0-.54,3.36H120a3.58,3.58,0,0,0-.36-3.15q.3,1.5-3.57.93a4.64,4.64,0,0,1-5.6.11C108.48,84.43,107.34,84,107,83Z"/>
      <path class="cls-29" d="M107.44,86.39l4.18.14C110.43,84.58,109,84.54,107.44,86.39Z"/>
      <path class="cls-24" d="M113.29,98.41h0a3.75,3.75,0,0,1,3.74,3.73v5a3.75,3.75,0,0,1-3.74,3.74h0a3.75,3.75,0,0,1-3.73-3.74v-5A3.74,3.74,0,0,1,113.29,98.41Z"/>
      <path class="cls-29" d="M119,86.38l-4.17.14Q116.57,83.6,119,86.38Z"/>
      <path class="cls-11" d="M113.35,94.3h-5.19a2.67,2.67,0,0,1-2.54-1.77l-.12.08a4.13,4.13,0,0,0,1.67,3,4.44,4.44,0,0,0,.75.46,4.53,4.53,0,0,0,1.88.41H117a4.34,4.34,0,0,0,1.84-.4,3.92,3.92,0,0,0,.79-.47,4.13,4.13,0,0,0,1.66-2.91l-.14-.1a2.67,2.67,0,0,1-2.51,1.7Z"/>
      <path class="cls-30" d="M113,83.87c1.31,0,2.37-.38,2.37-.85s-1.06-.84-2.37-.84-2.36.38-2.36.84S111.72,83.87,113,83.87Z"/>
      <path class="cls-30" d="M115,82c.31,0,.56-.18.56-.41s-.25-.4-.56-.4-.56.18-.56.4S114.68,82,115,82Z"/>
      <path class="cls-31" d="M113.35,93.41h-5.19a3.25,3.25,0,0,1-2.54-.88l-.12,0c.09.61.73,1.15,1.67,1.5a7.35,7.35,0,0,0,.75.23,8.52,8.52,0,0,0,1.88.21H117a8.15,8.15,0,0,0,1.84-.21,5.65,5.65,0,0,0,.79-.23c.92-.35,1.55-.87,1.66-1.46l-.14,0a3.29,3.29,0,0,1-2.51.85Z"/>
      <path class="cls-3" d="M100.37,98.53a3,3,0,0,1-4.22,0,2.88,2.88,0,0,1-.41-4.1c4.65-5.1,3.41-8.39,14.33-8.27a3.33,3.33,0,0,1,3,2.07,3.32,3.32,0,0,1,3-2.08c10.92-.12,9.69,3.17,14.33,8.27a2.88,2.88,0,0,1-.41,4.1,3,3,0,0,1-4.21,0c-2.91-3.19-1.54-6.59-10.13-6.5a2.7,2.7,0,0,1-2.58-1.61A2.7,2.7,0,0,1,110.49,92C101.91,91.94,103.27,95.34,100.37,98.53Z"/>
      <path class="cls-32" d="M111.74,61.57c-.2-3.44,1.5-13.07,1.69-13s1.89,9.54,1.69,13C114.46,63.78,112.4,63.53,111.74,61.57Z"/>
      <path class="cls-11" d="M115.27,66.48a45.8,45.8,0,0,1,17.63,2.28C131.88,80.58,114.42,79.68,115.27,66.48Z"/>
      <path class="cls-11" d="M111.59,66.48A45.75,45.75,0,0,0,94,68.76C95,80.58,112.44,79.68,111.59,66.48Z"/>
      <path class="cls-3" d="M131.43,67.47a1.68,1.68,0,1,1-.34,3.35,4.2,4.2,0,0,1-3.44-2.09c-.15-.2-.29-.39-.31-.4a25.39,25.39,0,0,0-5.44.31,34,34,0,0,1-3.83.31,2.8,2.8,0,0,1-1.84-.58,2.66,2.66,0,0,1-.93-2.17,1.74,1.74,0,0,1,3.36-.62c.74,0,1.76-.16,2.84-.29A25.41,25.41,0,0,1,128,65a3.56,3.56,0,0,1,2.5,1.77A1.29,1.29,0,0,0,131.43,67.47Z"/>
      <path class="cls-33" d="M128.07,73.52s2.52.21,2.55.24c-2.22.08-2.16.55-3,2.06-1.92,2-9.4,1.74-9.21-2.47a5.29,5.29,0,0,0,.54,0C119.42,76.41,126.66,77.36,128.07,73.52Z"/>
      <path class="cls-33" d="M98.43,73.53s-2.53.21-2.55.24c2.21.08,2.16.55,3,2.06,1.92,2,9.4,1.74,9.21-2.47a3.38,3.38,0,0,1-.54,0C107.08,76.42,99.84,77.37,98.43,73.53Z"/>
      <path class="cls-34" d="M94,33.93H133a1.12,1.12,0,0,1,1.11,1.12h0A1.11,1.11,0,0,1,133,36.16H94a1.11,1.11,0,0,1-1.11-1.11h0A1.12,1.12,0,0,1,94,33.93Z"/>
      <path class="cls-25" d="M110.74,17.69h5.88Q112.44,14,120,12q4.92-4-2.54-6.36,5,3.78-5.09,5.72Q106.81,13.7,110.74,17.69Z"/>
      <path class="cls-22" d="M135.62,146a2.32,2.32,0,0,0-1.93-2.62,2.25,2.25,0,0,0-2.57,1.92,2.32,2.32,0,0,0,1.93,2.62A2.24,2.24,0,0,0,135.62,146Z"/>
      <path class="cls-22" d="M134.32,137.51a2,2,0,0,1-1.06,1.49l.14,0a2.32,2.32,0,0,1,1.93,2.62,2.24,2.24,0,0,1-2.57,1.92,2.32,2.32,0,0,1-1.93-2.62,2.26,2.26,0,0,1,1.34-1.77h0a2,2,0,0,1-1.61-2.25,1.91,1.91,0,0,1,2.16-1.66A2,2,0,0,1,134.32,137.51Z"/>
      <path class="cls-35" d="M111.85,192.86a2.54,2.54,0,0,0,1.62,1.73l-.17,0a3,3,0,0,0-2,3.71,2.92,2.92,0,0,0,3.64,2,3,3,0,0,0,2-3.71,2.92,2.92,0,0,0-2-2h0a2.56,2.56,0,0,0,1.67-3.18,2.47,2.47,0,0,0-3.07-1.75A2.56,2.56,0,0,0,111.85,192.86Z"/>
      <path class="cls-15" d="M113.58,214.21c.69,0,1.25-1.4,1.25-3.13s-.56-3.14-1.25-3.14-1.26,1.41-1.26,3.14S112.89,214.21,113.58,214.21Z"/>
      <path class="cls-36" d="M52.54,167.16s-1.79,5.55.9,10,9.14.18,9.14.18L56,188.84s.36-4.48-1.26-6.54S48.42,180,48.42,180Z"/>
      <path class="cls-37" d="M44.75,221.37s3.13.67,4.65,1.14a31.05,31.05,0,0,1,10.31,5.85c4.12,3.58,8.06,9,11.11,10.39s20.69,1.65,20.69,1.65l-.63,5s-21.36,1.4-27.57-2.87-13.1-10.46-15.79-10.82-5.91-.71-6.18-1.43,1.34-2.15,1.34-2.15l-.59-3,2-.75S42.68,222.44,44.75,221.37Z"/>
      <path class="cls-9" d="M167.63,239.94q-12.13,10-31.79,5.78-3.54-19.17,11.75-17.19,11.53-.83,16.58-9.15c17.33-7.19,22.44-4.13,20.7,1.74,2.82,9.28,3.2,11.53-1,11.76A42.19,42.19,0,0,0,167.63,239.94Z"/>
      <path class="cls-11" d="M205.52,236l-2.33,1.75a14.91,14.91,0,0,0,0,6.78,14.67,14.67,0,0,0,3.61,6l.16,2.37,1.08,19.15.9-16.9,2.42,0,.57,18.74s2.19-18.93,1.58-19,0,.91.81,1,1.28,18.79,1.84,18.75-.9-19.6-.23-21.48,2.86-.53,3.24-.73-3.31-2-4-1.23l-.73.73-6.82-2s-5.11-4.51-4.71-6.13S205.52,236,205.52,236Z"/>
      <path class="cls-11" d="M209,236.09c-4.29-2.76-12.86,6.17-2.22,14.47-.15,4.43-2.28,15.29,4.22,14.23,2.08.13,4.74-5.63,4.09-11.88,2.52-3.22,3.95-1.61,3.95-1.61C215.17,245.09,209,236.09,209,236.09Z"/>
      <path class="cls-16" d="M209.14,234.63c-4.15-2.59-11.83,7.42-1.54,15.22-1,9.19-.92,13.79,3.73,13.1,2,.12,3.36-5.88,3.09-11.08,2.44-3,5.57-.23,5.57-.23C216.22,245.81,209.14,234.63,209.14,234.63Z"/>
      <path class="cls-17" d="M213.07,258l-.49,3.22a4,4,0,0,1-2.78.49c-1.44-.35-1.7-.67-1.7-.67l.36-3.51S211.37,256.31,213.07,258Z"/>
      <path class="cls-18" d="M200.62,229.42s-21.33-27.23-22.22-34.76,8.41-8,8.41-8,2.85,2,6.18,9.48,14.85,36.31,14.85,36.31S203.83,236.65,200.62,229.42Z"/>
      <path class="cls-15" d="M211.49,238.46c1.41-2.72-7.33-3.21-10.51-2.9s-3.87,2.47-3.87,2.47a2,2,0,0,1-.7-2c.36-1.16,1.05-3.1,9.13-2.81S213.26,237.71,211.49,238.46Z"/>
      <path class="cls-19" d="M208,232.78a1,1,0,1,0-1.18-1A1.12,1.12,0,0,0,208,232.78Z"/>
      <path class="cls-19" d="M205.59,232.33a1.24,1.24,0,1,0-1.38-1.23A1.31,1.31,0,0,0,205.59,232.33Z"/>
      <path class="cls-19" d="M202.73,232.22a1.24,1.24,0,1,0-1.38-1.23A1.31,1.31,0,0,0,202.73,232.22Z"/>
      <path class="cls-19" d="M199.91,232.45a1.24,1.24,0,1,0-1.38-1.23A1.32,1.32,0,0,0,199.91,232.45Z"/>
      <path class="cls-19" d="M197.4,233.39a1.24,1.24,0,1,0-1.38-1.23A1.31,1.31,0,0,0,197.4,233.39Z"/>
      <path class="cls-20" d="M205.55,225.23a1.3,1.3,0,0,0-.8.77l0-.07a1.39,1.39,0,0,0-1.8-.68,1.29,1.29,0,0,0-.92,1.63,1.41,1.41,0,0,0,1.81.68,1.46,1.46,0,0,0,.94-.95h0a1.2,1.2,0,0,0,1.55.56,1.12,1.12,0,0,0,.8-1.38,1.22,1.22,0,0,0-1.55-.56Zm-10.34,3.82a1.56,1.56,0,0,1,1.36.14,1.08,1.08,0,0,1-.14-.26,1.31,1.31,0,0,1,.92-1.63,1.42,1.42,0,0,1,1.81.69,1.31,1.31,0,0,1-.92,1.63,1.56,1.56,0,0,1-1.36-.14,1.23,1.23,0,0,1,.14.25,1.31,1.31,0,0,1-.92,1.63,1.41,1.41,0,0,1-1.81-.68,1.31,1.31,0,0,1,.92-1.63Zm4.84-2.93a1.41,1.41,0,0,1,1.81.69,1.3,1.3,0,0,1-.92,1.63,1.4,1.4,0,0,1-1.8-.69A1.3,1.3,0,0,1,200.05,226.12Z"/>
      <path class="cls-20" d="M202.88,221.1a1.24,1.24,0,0,0-.7.86.16.16,0,0,0,0-.07,1.4,1.4,0,0,0-1.88-.44,1.3,1.3,0,0,0-.7,1.73,1.41,1.41,0,0,0,1.88.44,1.44,1.44,0,0,0,.82-1.06h0a1.2,1.2,0,0,0,1.61.36,1.11,1.11,0,0,0,.61-1.47,1.19,1.19,0,0,0-1.6-.35Zm-9.77,5.11a1.57,1.57,0,0,1,1.37,0,.91.91,0,0,1-.17-.23,1.3,1.3,0,0,1,.7-1.74,1.42,1.42,0,0,1,1.88.45,1.3,1.3,0,0,1-.7,1.73,1.57,1.57,0,0,1-1.37,0,.91.91,0,0,1,.17.23,1.31,1.31,0,0,1-.7,1.74,1.41,1.41,0,0,1-1.88-.45,1.3,1.3,0,0,1,.7-1.73Zm4.43-3.53a1.42,1.42,0,0,1,1.88.45,1.3,1.3,0,0,1-.7,1.73,1.4,1.4,0,0,1-1.88-.44A1.31,1.31,0,0,1,197.54,222.68Z"/>
      <path class="cls-36" d="M174.18,167.43s1.79,5.55-.9,10-9.14.18-9.14.18l6.63,11.47s-.36-4.48,1.26-6.54,6.27-2.33,6.27-2.33Z"/>
      <path class="cls-37" d="M182,221.64s-3.13.67-4.66,1.14a31.14,31.14,0,0,0-10.3,5.85c-4.12,3.58-8.06,9-11.11,10.39s-20.69,1.65-20.69,1.65l.63,5.05s21.36,1.4,27.57-2.87,13.1-10.46,15.79-10.82,5.91-.71,6.18-1.43-1.35-2.15-1.35-2.15l.59-2.95-2-.75S184,222.71,182,221.64Z"/>
      <path class="cls-15" d="M149.73,172.1c.75-4.38,2.11-14.24,3.11-32.9-.19,11.74.15,17.2,1.38,24.8C151.56,168.74,149.86,171.77,149.73,172.1Z"/>
      <path class="cls-6" d="M98.41,234.81s17.93,18.28,26.89,19.71,0-11.83-2.51-19,16.48-11.47,16.48-11.47,11.11,1.07,16.13-1.8,7.87-9.61,7.87-9.61L156.21,211l.51-8.94s-3.47-2.19-5.8.14-21.32,17.21-26.34,18.46-14,4.66-14.88,8.42,8.71,11.15,4.54,10.42S98.41,234.81,98.41,234.81Z"/>
      <path class="cls-6" d="M175.29,264.74s-32.79-8.07-38.71-12.19-10.21-16.31-9.67-17.92,3.4-2.15,3.4-2.15S147.52,234.09,152,235s32.43,7,36,7.88-8.43-2-7.17,1.26,6.27,8.24,9,11.47-11.29-5.2-20.25-6.63S175.29,264.74,175.29,264.74Z"/>
      <path class="cls-8" d="M130.31,232.48s27.08,4.14,46.6,8.24,20.78,17.92,20.78,17.92-1.79-10.39-6.09-14.87S141.06,228.88,130.31,232.48Z"/>
      <path class="cls-8" d="M103.79,230.69s2.06.62,2.42-1.08a6.86,6.86,0,0,1,4.57-5.29c3.31-1.34,12.18,5.29,15.86,6.73a41.91,41.91,0,0,0,7.66,2l3.36-1.36s-13.17-3.29-15.68-5.53-7.26-4.57-9.59-4.66-5.35-.07-6.36,2.51-2.66,4.71-5.38,4.39-7.14-3.62-7.14-3.62S97.51,230.33,103.79,230.69Z"/>
      <path class="cls-15" d="M143.63,163.39c1.17,0,1.66,1.41,1.11,3.14s-1.94,3.13-3.1,3.13-1.66-1.4-1.11-3.13S142.47,163.39,143.63,163.39Z"/>
      <path class="cls-15" d="M80.83,163.39c-1.16,0-1.66,1.41-1.11,3.14s1.94,3.13,3.1,3.13,1.66-1.4,1.11-3.13S82,163.39,80.83,163.39Z"/>
      <path class="cls-17" d="M67.42,124.84c1.45.42,2,3,1.21,5.65S66,135,64.57,134.61s-2-3-1.21-5.66S66,124.41,67.42,124.84Z"/>
      <path class="cls-17" d="M157.44,122.28c-1.46.43-2,3-1.22,5.66s2.6,4.54,4.06,4.11,2-3,1.21-5.65S158.89,121.86,157.44,122.28Z"/>
      <path class="cls-3" d="M100,104c-2.67,5.23-1.74,8.42-.58,11.06,1.39,3.19,3.14,5.59-.67,9.81,1.36-3.31,1.66-4.8.52-7.72-.15-.38-.32-.79-.52-1.23-2.73-4.52-2.41-8,1.25-11.92Zm9.55,3.1c-4.65,2.87-5.22,5.57-1.77,9.78l-.06-.07c5.75,10.32-9.87,7.8.7,20.34h0c-2.14-4-4.09-7-1-11.08a9.62,9.62,0,0,0,1.58-1.28c.14-.16.3-.35.49-.6,2.22-2.87,1.21-4.78-.18-6.63C107.23,114.84,104.33,112.29,109.56,107.09Z"/>
      <path class="cls-24" d="M65.87,117.87A6.55,6.55,0,0,1,69,111.93c2.12-1.36,5-1.94,7.82-2.64h0c6.59-2,5.37-6.52,3.59-12.48v0c-1-4.21-.62-5.34.72-9.42h0c-.45,3.5-1,5.65.19,9C87.73,114.75,74,107.71,68,114A8.72,8.72,0,0,0,65.87,117.87Z"/>
      <path class="cls-24" d="M161.4,118.48a6.55,6.55,0,0,0-3.11-5.94c-2.12-1.36-5-1.94-7.82-2.65h0c-6.59-2.05-5.38-6.53-3.59-12.48h0c1.05-4.2.62-5.33-.72-9.41h0c.45,3.49,1,5.64-.19,9-6.44,18.3,7.33,11.27,13.33,17.55A8.86,8.86,0,0,1,161.4,118.48Z"/>
      <path class="cls-3" d="M127,104.06c2.66,5.23,1.74,8.42.58,11.07-1.4,3.19-3.14,5.58.67,9.81-1.36-3.31-1.66-4.8-.53-7.72.15-.38.33-.79.53-1.23,2.73-4.52,2.41-8-1.25-11.93Zm-9.55,3.11c4.64,2.86,5.21,5.56,1.76,9.78l.07-.08c-5.76,10.33,9.86,7.81-.71,20.35h0c2.15-4.05,4.09-7,1-11.08a9.13,9.13,0,0,1-1.58-1.29c-.15-.16-.3-.35-.49-.59-2.22-2.87-1.22-4.79.18-6.63C119.74,114.92,122.63,112.36,117.41,107.17Z"/>
      <path class="cls-3" d="M102.88,33.48c-1.88-1.62-1.23-2.61-.41-3.43,1-1,2.21-1.74-.47-3.05,1,1,1.17,1.49.37,2.4l-.37.38c-1.93,1.4-1.7,2.5.88,3.7Zm6.73-1c-3.28-.89-3.68-1.73-1.25-3l0,0c4.05-3.2-6.95-2.42.49-6.31h0c-1.51,1.26-2.88,2.18-.73,3.44a7.4,7.4,0,0,1,1.11.4l.34.18c1.57.89.86,1.49-.12,2.06C108,30.11,105.92,30.91,109.61,32.52Z"/>
      <path class="cls-3" d="M124.19,33.46c2-1.63,1.34-2.62.45-3.44-1.08-1-2.42-1.73.51-3-1.05,1-1.28,1.49-.4,2.39.11.12.25.25.4.39,2.11,1.4,1.86,2.5-1,3.7Zm-7.36-1c3.58-.89,4-1.72,1.36-3l0,0c-4.44-3.21,7.6-2.42-.55-6.32h0c1.66,1.26,3.16,2.19.81,3.44a10.27,10.27,0,0,0-1.22.4l-.38.19c-1.71.89-.93,1.48.14,2.06C118.62,30.09,120.86,30.88,116.83,32.49Z"/>
      <path class="cls-38" d="M43,220.79l9,2.73S45.72,223.85,43,220.79Z"/>
      <path class="cls-38" d="M49.06,226.05l-8-2.67S46.28,226.88,49.06,226.05Z"/>
      <path class="cls-38" d="M46.8,228.46l-6.66-1.53S43.79,229.36,46.8,228.46Z"/>
      <path class="cls-38" d="M45,231.43,39.71,230S43.57,232.07,45,231.43Z"/>
      <path class="cls-17" d="M49.59,218.53l-2,2.41L43,219.73s.75-2.55,2-2.63S49.59,218.53,49.59,218.53Z"/>
      <path class="cls-38" d="M184.45,221.21l-8.54,1.39S181.6,223.85,184.45,221.21Z"/>
      <path class="cls-38" d="M178.26,225.54l7.62-1.49S180.69,226.76,178.26,225.54Z"/>
      <path class="cls-38" d="M180,228.25l6.27-.55S182.62,229.58,180,228.25Z"/>
      <path class="cls-38" d="M181.21,231.44l5-.67S182.46,232.29,181.21,231.44Z"/>
      <path class="cls-17" d="M178.79,218l1.46,2.67,4.35-.53s-.35-2.64-1.43-2.89S178.79,218,178.79,218Z"/>
      <path class="cls-36" d="M76.21,234.33s2.6-3.15,5.44-2a9.47,9.47,0,0,1,4.19,3.45l-.6-4.21L76,230.55Z"/>
      <path class="cls-3" d="M95.89,70.85A1.74,1.74,0,0,1,94,69.34a1.7,1.7,0,0,1,1.58-1.83,1.3,1.3,0,0,0,.91-.67A3.6,3.6,0,0,1,99,65.06a25.34,25.34,0,0,1,6.48.26c1,.13,2,.24,2.77.29a1.76,1.76,0,0,1,1.67-1.09,1.73,1.73,0,0,1,1.73,1.71,2.65,2.65,0,0,1-.92,2.16,2.82,2.82,0,0,1-1.87.59,31.47,31.47,0,0,1-3.81-.31,24.09,24.09,0,0,0-5.38-.3s-.14.18-.29.38A4.19,4.19,0,0,1,95.89,70.85Z"/>
    </g>
  </g>
</svg>
