<svg id="Layer_1" data-name="Layer 1" xmlns="http://www.w3.org/2000/svg" xmlns:xlink="http://www.w3.org/1999/xlink" width="141.6" height="210.3" viewBox="0 0 141.6 210.3">
  <defs>
    <style>
      .cls-1 {
        fill: none;
      }

      .cls-2 {
        opacity: 0.5;
      }

      .cls-3 {
        fill: #fff;
      }

      .cls-4 {
        fill: #efe800;
        stroke: #938c00;
      }

      .cls-14, .cls-4, .cls-8 {
        stroke-miterlimit: 10;
        stroke-width: 2px;
      }

      .cls-5 {
        fill: #fffef3;
      }

      .cls-6 {
        fill: #ff0;
      }

      .cls-7 {
        fill: #e7242b;
      }

      .cls-11, .cls-8 {
        fill: #ed152e;
      }

      .cls-8 {
        stroke: #700;
      }

      .cls-9 {
        clip-path: url(#clip-path);
      }

      .cls-10 {
        opacity: 0.43;
      }

      .cls-12 {
        opacity: 0.12;
      }

      .cls-13 {
        opacity: 0.21;
      }

      .cls-14 {
        fill: #bbefff;
        stroke: #008e87;
      }

      .cls-15 {
        fill: #f4bf3b;
        opacity: 0.96;
        isolation: isolate;
      }

      .cls-16 {
        opacity: 0.49;
      }

      .cls-17 {
        opacity: 0.29;
      }

      .cls-18 {
        clip-path: url(#clip-path-3);
      }

      .cls-19 {
        opacity: 0.65;
      }

      .cls-20 {
        fill: #ddbd58;
      }

      .cls-21 {
        fill: #dda758;
      }

      .cls-22 {
        opacity: 0.46;
      }

      .cls-23 {
        fill: #ffdd4d;
      }

      .cls-24 {
        fill: #ffa64d;
      }
    </style>
    <clipPath id="clip-path">
      <path class="cls-1" d="M53.81,112.83l3.86-.19L52.83,13a3.8,3.8,0,0,0-3.56-3.6H49.1L13.36,10l.06,3.86,34-.49a1.65,1.65,0,0,1,1.68,1.59Z"/>
    </clipPath>
    <clipPath id="clip-path-3">
      <path class="cls-1" d="M49.53,170h0v6.81a6.25,6.25,0,0,0,4.25,6,35.75,35.75,0,0,0,10.41,1.4,29.1,29.1,0,0,0,8.46-.91,7.38,7.38,0,0,0,5.26-7.11v-6.13h0c0-7.26,1.26-33.31,7.07-64.45C90.1,78.19,96.72,64.34,96.72,64.34h-66s6.61,13.85,11.74,41.26C48.26,136.71,49.53,162.75,49.53,170Z"/>
    </clipPath>
  </defs>
  <g>
    <path class="cls-2" d="M44.3,210.3A4.64,4.64,0,0,1,39.85,207l-1-3.47c-1.22-4.24-1-10.78,3.5-15.31.33-.33.63-.61.9-.85v0A431.29,431.29,0,0,0,36,112.62c-5.59-30-15.4-45.43-15.5-45.58l-4.87-7.42a4.62,4.62,0,0,1,3.86-7.16H47L45.8,28.63l-31.32.45a4.62,4.62,0,0,1-4.62-4.55L9.63,11.07a4.63,4.63,0,0,1,4.56-4.7l40.56-.59h.8A13.25,13.25,0,0,1,68,18.18l1.66,34.28H81.35a30.86,30.86,0,1,1,29.39,40.27c-1,0-1.94,0-2.91-.14a188.24,188.24,0,0,0-4.85,20,430.22,430.22,0,0,0-7.27,74.69c.28.25.58.53.9.86,4.53,4.53,4.72,11.07,3.5,15.3l-1,3.48a4.63,4.63,0,0,1-4.45,3.34Z"/>
    <path class="cls-3" d="M38.52,204.52a4.64,4.64,0,0,1-4.45-3.34l-1-3.47c-1.22-4.24-1-10.78,3.5-15.31.33-.33.63-.61.9-.85v0a431.29,431.29,0,0,0-7.26-74.69c-5.59-30-15.4-45.43-15.5-45.58L9.84,53.84a4.62,4.62,0,0,1,3.86-7.16H41.17L40,22.85,8.7,23.3a4.62,4.62,0,0,1-4.62-4.55L3.85,5.29A4.63,4.63,0,0,1,8.41.59L49,0h.8A13.25,13.25,0,0,1,62.24,12.4L63.9,46.68H75.57A30.86,30.86,0,1,1,105,87c-1,0-1.94,0-2.91-.14a188.24,188.24,0,0,0-4.85,20,430.22,430.22,0,0,0-7.27,74.69c.28.25.58.53.9.86,4.53,4.53,4.72,11.07,3.5,15.3l-1,3.48a4.63,4.63,0,0,1-4.45,3.34Z"/>
    <g>
      <g>
        <circle class="cls-4" cx="104.96" cy="56.09" r="21.43"/>
        <circle class="cls-5" cx="104.96" cy="56.09" r="19.77" transform="translate(32.78 150.71) rotate(-80.78)"/>
        <g>
          <path class="cls-6" d="M105,53.76a29.55,29.55,0,0,1-.78-9c.25-5.47-.84-6.91,1.88-6.82a11.25,11.25,0,0,1,5.63,1.62c1.4.79,2.81,1.76,1.53,3.35s-5.51,8.73-6.41,9.85S105.36,54.8,105,53.76Z"/>
          <path class="cls-6" d="M102.51,57.67s-12.44,4.1-13.1,5.66,1.25,4.44,2.69,5.57S95,71,95.7,70.37,104.51,57,102.51,57.67Z"/>
          <path class="cls-6" d="M107.73,56.33a.78.78,0,0,1-.25-1.32,8.81,8.81,0,0,1,1.72-1.09c2.6-1.25,9.88-4.47,11-4.13s2.1.13,2.53,3.38.41,4.44-1,4.34-8.41-.53-10.25-.62A13.88,13.88,0,0,1,107.73,56.33Z"/>
          <path class="cls-6" d="M95.38,41.72s1.47,2.29,3.07,5.1,3.78,6.63,4.5,7,1.19-.43,1.06-1.9-.56-12.39-1-12.92-2.37-.68-3.87,0S95.6,41,95.38,41.72Z"/>
          <path class="cls-6" d="M87.72,52.89s-1.41,3.62-.5,6.19.94,3.69,2.66,2.88,11-4.82,12.29-4.91.62-1.47-.35-1.57S89,52.36,87.72,52.89Z"/>
          <path class="cls-6" d="M104.48,58.45s-.25-1-1.25.1S97.38,69.62,97,70.37s.82,2.63,2.73,2.94,4.94,1.31,5.44.25S104.45,59.76,104.48,58.45Z"/>
          <path class="cls-6" d="M94.38,42.47s-5.16,3.07-6,6.41-1.09,3.22,2.25,3.78,9.44,1.54,10.85,2-1.53-4.69-3-6.94S95.41,42.6,94.38,42.47Z"/>
          <path class="cls-6" d="M107.2,56.86s7,.62,9.73,1,5.87-.38,5.5,2.59-1.12,2.75-1.66,4-2.72,4.87-3.59,4.75-4.88-5.26-6.63-7.13S106,56.73,107.2,56.86Z"/>
          <path class="cls-6" d="M107.08,54.42a.5.5,0,0,1-.5-.78c1.22-1.66,4.87-6.6,5.66-7.82.93-1.47,2.15-4.16,3.62-3.38a10.66,10.66,0,0,1,3.82,4.1c1,1.78,1,1.81-.41,2.84s-9.22,3.48-10.6,4.32A5.28,5.28,0,0,1,107.08,54.42Z"/>
          <path class="cls-6" d="M106.14,57.67s-.63-.81-.66,1.82.66,5.91.53,7.22a27,27,0,0,0,.32,5.82,2.18,2.18,0,0,0,2.87,1.62c1.69-.53,7.76-2.84,7.23-3.94S107,59.08,106.14,57.67Z"/>
        </g>
      </g>
      <path class="cls-7" d="M104.83,56.1H22.6s10.81,16.45,16.87,49a439.8,439.8,0,0,1,7.43,76.55h0c-.1,5.49-1.46,5.23-3.67,7.4s-1.1,6-1.1,6H85.27s1.1-3.82-1.1-6-3.57-1.91-3.67-7.4h0a439.8,439.8,0,0,1,7.43-76.55C94,72.55,104.83,56.1,104.83,56.1Z"/>
      <g>
        <g>
          <g>
            <path id="SVGID" class="cls-8" d="M53.81,112.83l3.86-.19L52.83,13a3.8,3.8,0,0,0-3.56-3.6H49.1L13.36,10l.06,3.86,34-.49a1.65,1.65,0,0,1,1.68,1.59Z"/>
            <g class="cls-9">
              <g class="cls-10">
                <path class="cls-11" d="M56.53,113.87l3.89.75L55.66,10.27a3.82,3.82,0,0,0-3.57-3.6h-.16L10.6,6.8,10.18,11l39.05-.29a2.69,2.69,0,0,1,2.27,2Z"/>
              </g>
            </g>
            <g class="cls-9">
              <g class="cls-12">
                <path class="cls-3" d="M51.15,115.49,55,115.3,50.17,15.69c-.12-1.95-.12-3.57-2-3.7l-43,.23.07,3.86,38.89.42a1.66,1.66,0,0,1,1.69,1.59Z"/>
              </g>
            </g>
          </g>
          <g class="cls-13">
            <path class="cls-3" d="M43,12.35c-3.41.94-8,.26-12.2.45C26,13,19.94,14.1,15.34,12.73c-.68-.19-.81-1.33,0-1.45,7-1,20.14-.88,27.86-.33C44.89,11.08,43.3,12.25,43,12.35Z"/>
          </g>
          <g class="cls-13">
            <path class="cls-3" d="M51.73,21.1c1.3,3.47,1,7.69,1.23,11.32.23,3.93,1.24,9.12.62,13-.13.75-1.52.36-1.85-.26-1.46-2.62-.78-6.68-1-9.66-.49-6.2-1.27-9.51-.85-14C50.11,18.9,51.73,21.1,51.73,21.1Z"/>
          </g>
        </g>
        <g>
          <path class="cls-14" d="M104.83,56.1H22.6s10.81,16.45,16.87,49a439.8,439.8,0,0,1,7.43,76.55h0c-.1,5.49-1.46,5.23-3.67,7.4s-1.1,6-1.1,6H85.27s1.1-3.82-1.1-6-3.57-1.91-3.67-7.4h0a439.8,439.8,0,0,1,7.43-76.55C94,72.55,104.83,56.1,104.83,56.1Z"/>
          <path class="cls-15" d="M49.53,170h0v6.81a6.25,6.25,0,0,0,4.25,6,35.75,35.75,0,0,0,10.41,1.4,29.1,29.1,0,0,0,8.46-.91,7.38,7.38,0,0,0,5.26-7.11v-6.13h0c0-7.26,1.26-33.31,7.07-64.45C90.1,78.19,96.72,64.34,96.72,64.34h-66s6.61,13.85,11.74,41.26C48.26,136.71,49.53,162.75,49.53,170Z"/>
          <g class="cls-16">
            <path class="cls-3" d="M26,58.28c5.65.71,11.29.68,17,.87,2.82.1,5.64.36,8.49.42,3.09.07,6.23,1,9.18-.16a.4.4,0,0,0,0-.78c-5.87-1.68-13-1.23-19.13-1.42-3.21-.1-6.43,0-9.64.09-2.11.07-4.08-.32-6,.59-.19.06-.06.35.13.39Z"/>
          </g>
          <g class="cls-16">
            <path class="cls-3" d="M71.87,59c5.13.68,10.22.94,15.38,1.14,3.63.13,9.73,1.65,12.78-.81a.48.48,0,0,0-.1-.75c-1.29-.71-2-.52-3.57-.45-2.49.09-5.09-.26-7.59-.36A95.87,95.87,0,0,0,72,58.15c-.48.06-.68.81-.13.87Z"/>
          </g>
          <g class="cls-16">
            <path class="cls-3" d="M73.5,190.75c-3.83-.29-7.63-.42-11.49-.39a41.4,41.4,0,0,1-6.29-.23c-2.33-.32-4.35-1.72-6.49-2.59-2.75-1.14-4,3.4-1.23,4.47,8.37,3.25,17.16,2.31,25.69.07.75-.2.52-1.27-.19-1.33Z"/>
          </g>
          <g class="cls-16">
            <path class="cls-3" d="M78.43,191.79a2.13,2.13,0,0,1,.42,0l-.88-.23c.17.1.13.07-.13-.1a2.35,2.35,0,0,0,1,.59,2.56,2.56,0,0,0,1.62.06,2,2,0,0,0,.48-3.63,2.62,2.62,0,0,0-2.1-.29,4.91,4.91,0,0,0-1.24.65,1.56,1.56,0,0,0,.85,2.92Z"/>
          </g>
          <g class="cls-17">
            <path class="cls-3" d="M69.64,189.13c-2.66.13-5.29-1-7.89-1.56-2.82-.65-5.22-2-7.88-3-3.89-1.49-6.16,4.54-2.75,6.55,5,3,14,2.7,19-.22a1,1,0,0,0-.48-1.75Z"/>
          </g>
          <g class="cls-17">
            <path class="cls-3" d="M68.47,59.38c6.19,1.23,14.3,2.69,20.37.39a.51.51,0,0,0,0-1c-3-1.16-6.26-1-9.41-1.16-3.63-.17-7.39-.49-11,.19a.81.81,0,0,0,0,1.56Z"/>
          </g>
          <path class="cls-3" d="M78.82,59.57c5.77.62,13,2.83,18.45,0,.46-.23.17-.78-.22-.84-2.76-.36-5.62,0-8.41,0-3.3,0-6.52,0-9.82.29-.36,0-.33.49,0,.55Z"/>
          <path class="cls-3" d="M58.41,190.52c-.45-.06-.87-.49-1.29-.65-.62-.26-1.24-.52-1.85-.74a9.78,9.78,0,0,1-1.69-.82c-.49-.26-.52-.64-.94-1a1.54,1.54,0,0,0-2.37.29c-1.1,2,1.2,3.4,2.82,4a9.3,9.3,0,0,0,3,.42c.77,0,1.52-.36,2.23-.39s.75-.94.13-1Z"/>
          <g>
            <g class="cls-18">
              <g class="cls-19">
                <path class="cls-20" d="M66.46,184.26l.1.1c-.82,2-1.66,4-2.47,6.1,3.31-2.28,4.93-2.89,5.64-6.59,1.17-5.9.07-14.79-.19-20.66-.58-12.13.06-24.2.16-36.3,0-5.93,2.11-28.8,3.25-34.19,1.33-6.39,2-12.94,2.82-19.39a44,44,0,0,0,.48-9.25C76,60.77,75,57.59,74.79,54.29c-.26-5.36-4.28-9.83-9.82-9.83-5.16,0-41.17,8.72-40.91,14.08.17,3.24,4.41,5.41,5.06,8.59.52,2.6,6.69,35.39,6.17,42.23-.49,6.43,7,13.85,6.84,20.28-.29,13,4.7,26.14,6.65,39.15.84,5.58-4.18,10.7-2.82,15.7.68,2.53,9,4.51,11.38,5.87a8.1,8.1,0,0,0,3.67,1c4.73,0-3.7.2,1.39.07a4.82,4.82,0,0,0,4.06-7.14Z"/>
              </g>
            </g>
            <g class="cls-18">
              <g class="cls-19">
                <path class="cls-21" d="M62.6,181l.1.1-1.46,6.42c2.88-2.79-6.23-91.44-6-96.92.26-6.52-1.45-14-1.71-20.56a46.6,46.6,0,0,0-1-9.22c-.81-3.21-2.37-6.19-3.08-9.4-1.14-5.23-5.84-9-11.32-8.08C33,44.13-1.11,58.67,0,63.89c.68,3.14,5.25,4.6,6.39,7.65.94,2.47,12.42,33.8,13,40.65.58,6.42,9.18,12.52,10.09,18.87,1.88,12.88,8.92,25,13,37.53,1.75,5.36-2.33,11.23-.19,16,1.07,2.37,9.66,2.95,12.19,3.93a7.88,7.88,0,0,0,3.8.35c4.67-.78-3.6.78,1.36-.16A4.82,4.82,0,0,0,62.6,181Z"/>
              </g>
            </g>
            <g class="cls-18">
              <g class="cls-22">
                <path class="cls-23" d="M109.24,46.73C104.57,43.52,97.6,47,95,50.36c-3.4,4.45-7.72,22.9-8.3,24.52a119.31,119.31,0,0,0-4.18,14.18c-2.44,10-3.12,17.22-6,29.58-.94,4-1.79,17.16-2.6,22.06-.78,4.67-.91,15.05-1.36,19.78-.39,4.42.49,22.77.94,26.86.68,6,7.33,10,13.85,10,5.55,0,5.19-4.93,4.41-10.93-.36-2.89-1.52-6-4.38-7.3-.91-.42-1.78-.81-2.72-1.17-7.24-2,.74.82.39.56L88.61,182c1.85,3,.65,4,.88.88a29.53,29.53,0,0,1,.94-4,67.08,67.08,0,0,0,1.3-11,157.93,157.93,0,0,1,2-19.17c1.26-7.3,3.11-14.34,3.6-21.76.49-7.11.58-14.11,1.65-21.15,1-6.88,1.72-13.76,3.18-20.57,1-4.47,2.4-8.75,3.08-13.3.59-4,1.11-8,2.08-11.87.42-1.75.75-3.57,1.17-5.32.23-1,1.23-1.36,2.14-2.72,1.2-1.85.19-4.19-1.43-5.32Z"/>
              </g>
            </g>
            <g class="cls-18">
              <g class="cls-22">
                <path class="cls-24" d="M111.84,46.73c-4.67-3.21-11.65.26-14.21,3.63-3.41,4.45-7.72,22.9-8.3,24.52a119.36,119.36,0,0,0-4.19,14.18c-2.43,10-3.11,17.22-6,29.58-.94,4-1.78,17.16-2.59,22.06-.78,4.67-.91,15.05-1.37,19.78-.39,4.42.49,22.77.94,26.86.69,6,7.33,10,13.85,10,5.55,0,5.19-4.93,4.42-10.93-.36-2.89-1.53-6-4.38-7.3-.91-.42-1.79-.81-2.73-1.17-7.23-2,.75.82.39.56L91.21,182c1.85,3,.65,4,.87.88a29.53,29.53,0,0,1,.94-4,66,66,0,0,0,1.3-11,160,160,0,0,1,2-19.17c1.27-7.3,3.12-14.34,3.61-21.76.48-7.11.58-14.11,1.65-21.15,1-6.88,1.72-13.76,3.18-20.57,1-4.47,2.4-8.75,3.08-13.3A117.78,117.78,0,0,1,110,60.09c.42-1.75.74-3.57,1.16-5.32.23-1,1.24-1.36,2.14-2.72,1.24-1.85.2-4.19-1.42-5.32Z"/>
              </g>
            </g>
          </g>
          <path class="cls-3" d="M85.27,74.49c-3.89,6.43-4.83,15.61-6.65,22.74A159.11,159.11,0,0,0,74.86,116c-1.14,8.4-2,16.8-2.56,25.27-.49,6.55-1.11,13.33-.43,19.88.2,2,3.31,2.05,3.15,0-1.17-14.56,1.07-29.81,2.82-44.27A168.82,168.82,0,0,1,81.38,98c1.07-4.61,1.72-9.34,2.76-14,.68-3,1.78-6.36,1.49-9.44-.07-.19-.26-.26-.36-.1Z"/>
        </g>
      </g>
    </g>
  </g>
</svg>
