<svg id="Layer_1" data-name="Layer 1" xmlns="http://www.w3.org/2000/svg" width="225.25" height="150.02" viewBox="0 0 225.25 150.02">
  <defs>
    <style>
      .cls-1 {
        opacity: 0.5;
      }

      .cls-10, .cls-2, .cls-7, .cls-9 {
        fill: #fff;
      }

      .cls-3 {
        fill: #f9f9f9;
      }

      .cls-4 {
        fill: #892c2c;
      }

      .cls-5 {
        fill: #9e3838;
      }

      .cls-6 {
        fill: #f98282;
      }

      .cls-7 {
        opacity: 0.23;
      }

      .cls-8 {
        fill: #dd4747;
        stroke: #933;
        stroke-miterlimit: 10;
      }

      .cls-9 {
        opacity: 0.42;
      }

      .cls-10 {
        opacity: 0.37;
      }

      .cls-11 {
        opacity: 0.45;
      }

      .cls-12 {
        fill: #420606;
        opacity: 0.25;
      }

      .cls-13 {
        fill: #3785a0;
      }
    </style>
  </defs>
  <g>
    <path class="cls-1" d="M120.92,150a38.33,38.33,0,0,1-9.25-1.12c-11-2.72-16.11-8.93-21.56-15.51a81,81,0,0,0-14.75-14.58c-16.29,16.49-24.74,21.33-32.65,23.47a50.11,50.11,0,0,1-12.93,2c-6.33,0-11.62-1.81-15.73-5.39-9.85-8.56-8.5-23.52-6.15-31A35.34,35.34,0,0,1,18.84,91.71C20.67,90,22.47,88.49,24.32,87l.24-.18c.53-.41,1.08-.83,1.65-1.25a83.6,83.6,0,0,1,8.42-5.5c.59-.34,1.25-.71,1.94-1.08s1.2-.64,1.82-1a78.32,78.32,0,0,1,7.72-3.38c.73-.27,1.48-.55,2.29-.83S50,73.31,50.84,73s1.62-.51,2.49-.75,1.77-.5,2.68-.72C68.71,33.78,104.3,6.84,142.44,6.84A77,77,0,0,1,156,8a18.63,18.63,0,0,1,8-1.83,16.08,16.08,0,0,1,5.21.85,15.49,15.49,0,0,1,2.61,1.17,18.24,18.24,0,0,1,7.39,8.09c17.79,9.83,32.23,26.86,39.93,47.24a95.65,95.65,0,0,1-1.29,70.86,8.26,8.26,0,0,1-7.64,5.1,8.08,8.08,0,0,1-1.2-.09c-3.2.17-6.43.26-9.62.26a180,180,0,0,1-35.52-3.55l-2.19-.45a77.6,77.6,0,0,1-19.75,9.94C135.7,147.69,128.71,150,120.92,150Z"/>
    <path class="cls-2" d="M114.71,143.81a38.33,38.33,0,0,1-9.25-1.12c-10.95-2.72-16.11-8.93-21.57-15.51A80.58,80.58,0,0,0,69.15,112.6c-16.29,16.49-24.74,21.33-32.65,23.47a50.18,50.18,0,0,1-12.93,2c-6.33,0-11.62-1.81-15.73-5.39-9.85-8.56-8.5-23.52-6.16-31a35.44,35.44,0,0,1,11-16.21c1.83-1.69,3.63-3.22,5.48-4.69l.24-.18c.53-.41,1.08-.83,1.65-1.25a83.6,83.6,0,0,1,8.42-5.5c.59-.35,1.25-.71,1.94-1.08s1.2-.64,1.82-1a78.32,78.32,0,0,1,7.72-3.38c.73-.27,1.48-.55,2.29-.83s1.56-.54,2.44-.81,1.62-.51,2.49-.75,1.77-.5,2.68-.72C62.5,27.57,98.09.63,136.23.63a77,77,0,0,1,13.54,1.2A18.63,18.63,0,0,1,157.72,0a16.08,16.08,0,0,1,5.21.85A15.49,15.49,0,0,1,165.54,2a18.24,18.24,0,0,1,7.39,8.09c17.79,9.83,32.23,26.86,39.93,47.24a95.65,95.65,0,0,1-1.29,70.86,8.24,8.24,0,0,1-5,4.67,8.11,8.11,0,0,1-3.81.34c-3.2.17-6.43.26-9.62.26a180,180,0,0,1-35.52-3.55l-2.19-.45a77.6,77.6,0,0,1-19.75,9.94C129.49,141.48,122.5,143.81,114.71,143.81Z"/>
    <path class="cls-3" d="M165.89,15.86c0-1.94-1.77-5-4.46-6.6a7.4,7.4,0,0,0-1.25-.57,9.5,9.5,0,0,0-8.86,1.93l-.24-.06h0c-38-8.6-82.4,17.15-94.84,62.16-2.48.49-4.81,1.06-6.92,1.67L47,75.08c-.77.24-1.5.48-2.19.73s-1.44.52-2.09.77a69.53,69.53,0,0,0-6.91,3c-.56.29-1.1.57-1.63.86s-1.18.65-1.76,1a78.13,78.13,0,0,0-7.65,5c-.57.42-1.12.85-1.65,1.26-2,1.55-3.64,3-5.07,4.37h0A27.6,27.6,0,0,0,9.52,104.7c-1.85,5.94-2.7,16.82,3.69,22.41s16.54,2.83,21.07,1.6c5.67-1.53,13.47-5,33.72-26.38h0c24,15.19,23.24,29,39.38,33,9.37,2.33,17.42-.36,25.59-3.11a69.21,69.21,0,0,0,20.52-11c1.85.44,3.73.87,5.67,1.26a171.12,171.12,0,0,0,43.89,3.11h0c0-.14-.07-.27-.1-.4l.89.52C222.37,81.06,201.16,33.28,165.89,15.86Z"/>
    <g>
      <g>
        <path class="cls-4" d="M203.15,124.9h0a171.79,171.79,0,0,1-43.88-3.09,171.28,171.28,0,0,1-32.4-9.94,50.34,50.34,0,0,1,15.85-15.95,37,37,0,0,1,18.6-5.71C180.18,89.72,198.17,103.94,203.15,124.9Z"/>
        <path class="cls-4" d="M203.15,124.9h0a99.94,99.94,0,0,0-33.93-8.35,97.42,97.42,0,0,0-19.21.67c-3.86-7.69-6.4-15.14-7.29-21.3a37,37,0,0,1,18.6-5.71C180.18,89.72,198.17,103.94,203.15,124.9Z"/>
        <path class="cls-5" d="M84.18,83.78c-3.63,4.33-9.11,10.67-16.12,18-20.24,21.31-28,24.72-33.72,26.25-4.53,1.22-14.68,4-21.07-1.59S7.73,110.1,9.59,104.19c4.13-13.18,19.63-22.33,39-23.72Z"/>
        <path class="cls-6" d="M203.93,125q-5.73-3.39-12.23-6.91c-7.41-4-15.59-8.06-24.5-12a358.14,358.14,0,0,0-36.84-14,355,355,0,0,0-74.78-15h0l-.45-.05c10.55-47.66,56.73-75.36,96-66.52h0l1.42.34a63.06,63.06,0,0,1,7.19,2.24C198.66,27.66,223.5,78.11,203.93,125Z"/>
        <path class="cls-7" d="M151.14,10.55c-9.87.46-47.46,3.74-70.65,33.94A81.46,81.46,0,0,0,66.55,72.93a79,79,0,0,1-11,4.19h0l-.45-.05C65.67,29.41,111.85,1.71,151.14,10.55Z"/>
        <path class="cls-8" d="M167.44,106.62c-4.75,6.17-15.83,18.75-34.41,24.94-8.17,2.73-16.22,5.41-25.59,3.09-16.14-4-15.41-17.73-39.38-32.83-12.68-8-21.43-10.13-24.39-10.71a61.22,61.22,0,0,0-25.51.56c1.42-1.32,3.11-2.81,5.07-4.35.53-.41,1.08-.83,1.65-1.25a75.23,75.23,0,0,1,7.65-5c.57-.34,1.16-.66,1.76-1s1.07-.57,1.63-.85a68.42,68.42,0,0,1,6.9-3c.66-.25,1.36-.51,2.09-.76s1.43-.49,2.2-.73,1.49-.47,2.27-.69a83.41,83.41,0,0,1,18.78-3.12c7.81-.37,18.66.64,51.54,13.54,7,2.73,14.79,6,23.3,9.94l.88.41c1.77.82,3.58,1.67,5.41,2.56.28.13.57.26.85.41l4.14,2,.83.41,4.62,2.34.81.41C162.8,104.14,165.11,105.36,167.44,106.62Z"/>
        <path class="cls-6" d="M203.93,125a352.12,352.12,0,0,0-36.73-18.92,86.38,86.38,0,0,0-7.44-93C198.66,27.66,223.5,78.11,203.93,125Z"/>
        <path class="cls-9" d="M161.45,17.84c0-.58-.92-.45-.9.13a4.14,4.14,0,0,0,.23,1c.11.36.37.67.45,1,.12.57,1,.45.9-.13C162,19.18,161.48,18.62,161.45,17.84Z"/>
        <path class="cls-9" d="M164.08,23.13a7.92,7.92,0,0,1-.33-.8c-.21-.54-1.05-.19-.84.35.1.27.21.54.33.8C163.5,24,164.34,23.65,164.08,23.13Z"/>
        <path class="cls-9" d="M166,27.15a5.14,5.14,0,0,1-.41-1.37c0-.59-.94-.46-.9.12a3.92,3.92,0,0,0,.34,1.2c.06.16.11.33.17.49s.18.29.17.42c0,.58.85.7.9.11A2.21,2.21,0,0,0,166,27.15Z"/>
        <path class="cls-9" d="M168,31.65c0-.1-.07-.21-.09-.31a1.36,1.36,0,0,0-.18-.59,1.4,1.4,0,0,1-.21-.5c-.08-.27-.31-.39-.29-.7,0-.58-.88-.7-.91-.11a1.51,1.51,0,0,0,.35,1.09c.14.54.39,1,.53,1.54a.49.49,0,0,0,.4.39l.13,0C168.27,32.58,168.42,31.89,168,31.65Z"/>
        <path class="cls-9" d="M170,35.73a5.45,5.45,0,0,0-.41-.57c-.07-.07-.34-.26-.32-.37.11-.57-.8-.68-.9-.11a.92.92,0,0,0,.27.79c.23.27.44.53.64.81A.45.45,0,0,0,170,35.73Z"/>
        <path class="cls-9" d="M171.37,40a4.36,4.36,0,0,1-.37-.75,1.53,1.53,0,0,1-.21-.79c0-.58-.91-.45-.9.13a2,2,0,0,0,.26,1,4.94,4.94,0,0,0,.5,1C171.05,41,171.77,40.46,171.37,40Z"/>
        <path class="cls-9" d="M172.6,43.78a1.31,1.31,0,0,1-.29-.87c0-.58-.91-.7-.9-.11a2.61,2.61,0,0,0,.09.88,1.39,1.39,0,0,0,.16.35s.26.3.26.36c0,.58.85.69.9.11A1,1,0,0,0,172.6,43.78Z"/>
        <path class="cls-9" d="M173.67,47.41c-.12-.57-1-.45-.9.12s.54,1.09.51,1.64.88.69.9.11A6.83,6.83,0,0,0,173.67,47.41Z"/>
        <path class="cls-9" d="M174.91,53.76a7.13,7.13,0,0,1,0-1.13c0-.58-.91-.7-.91-.11,0,.4,0,.8,0,1.2s.17.76.2,1.15c0,.59.94.46.89-.12C175.06,54.41,175,54.09,174.91,53.76Z"/>
        <path class="cls-9" d="M174.41,58.23l0,1.92c0,.59.91.46.9-.12l0-1.92C175.29,57.53,174.4,57.65,174.41,58.23Z"/>
        <path class="cls-9" d="M175.56,63.76c.27-.29.12-.87-.35-.76l-.13,0a.47.47,0,0,0-.39.39c-.1.49,0,1,0,1.46a12.26,12.26,0,0,0-.1,1.36c0,.58.9.45.9-.13a11.45,11.45,0,0,1,.13-1.3C175.6,64.46,175.54,64.11,175.56,63.76Z"/>
        <path class="cls-9" d="M174.77,69.32c0,.51-.22,1.05-.26,1.57a3.5,3.5,0,0,1-.08.65,1.51,1.51,0,0,0-.09.63c0,.58.93.45.89-.13,0-.17.13-.36.16-.53s0-.47.05-.7a13.24,13.24,0,0,0,.23-1.38C175.66,68.85,174.76,68.73,174.77,69.32Z"/>
        <path class="cls-9" d="M174.54,74.72c0,.15-.14.37-.16.53s0,.58-.06.88a8.38,8.38,0,0,0-.21,1.48c0,.59.92.46.9-.12a5.27,5.27,0,0,1,.16-.77c0-.24.07-.48.1-.72a6.19,6.19,0,0,1,0-.75,1.8,1.8,0,0,0,.14-.65C175.42,74,174.52,74.14,174.54,74.72Z"/>
        <path class="cls-9" d="M173.91,80.16l-.12,0a.49.49,0,0,0-.39.4c-.09.47-.26.92-.39,1.38a3.19,3.19,0,0,1-.46,1.11.45.45,0,0,0,.71.55,3.46,3.46,0,0,0,.59-1.31c.12-.45.27-.89.38-1.35C174.56,80.7,174.41,80,173.91,80.16Z"/>
        <path class="cls-9" d="M172.38,86.22a2.67,2.67,0,0,0-.15.48c0,.06,0,.12,0,.19a1,1,0,0,0-.38.73,2.68,2.68,0,0,1-.11.63,1.2,1.2,0,0,0-.13.62c0,.58.95.45.9-.13,0-.11.14-.33.17-.46s0-.51.11-.66.26-.2.31-.43.06-.41.14-.63C173.42,86,172.58,85.67,172.38,86.22Z"/>
        <path class="cls-9" d="M170.46,91.59a3.47,3.47,0,0,0-.56,1.22,2.75,2.75,0,0,1-.36,1.2c-.38.44.34,1,.72.56a2.34,2.34,0,0,0,.44-1,3.34,3.34,0,0,1,.47-1.37C171.5,91.67,170.79,91.11,170.46,91.59Z"/>
        <path class="cls-9" d="M168.76,96.42l-.13,0a.47.47,0,0,0-.39.4c-.11.74-.69,1.42-.63,2.18,0,.58.95.45.9-.13,0-.29.25-.66.35-.93a7.08,7.08,0,0,0,.22-.75C169.4,97,169.25,96.31,168.76,96.42Z"/>
        <path class="cls-9" d="M166.41,101.86a4.79,4.79,0,0,1-.55,1.34c-.38.45.34,1,.72.56a5.41,5.41,0,0,0,.67-1.56A.45.45,0,0,0,166.41,101.86Z"/>
        <path class="cls-9" d="M166.37,20.1a4,4,0,0,1-.91-1.85c-.12-.57-1-.45-.9.13a4.86,4.86,0,0,0,1.09,2.27C166.05,21.08,166.77,20.53,166.37,20.1Z"/>
        <path class="cls-9" d="M168,23.28a1.69,1.69,0,0,1-.24-.57c-.07-.14-.34-.39-.34-.53,0-.58-.87-.7-.9-.11a1.35,1.35,0,0,0,.33.89c.18.28.2.62.43.87C167.71,24.25,168.43,23.7,168,23.28Z"/>
        <path class="cls-9" d="M169.94,26.85c-.1-.41-.4-.74-.5-1.14-.14-.56-1-.45-.9.12a9.5,9.5,0,0,0,.46,1c.08.21.09.44.17.64s.21.32.21.44c0,.58.88.7.9.11A4.08,4.08,0,0,0,169.94,26.85Z"/>
        <path class="cls-9" d="M172.72,31.46a6.36,6.36,0,0,1-.81-1.95c0-.59-.92-.46-.9.12a7.06,7.06,0,0,0,.87,2.18C172.09,32.35,172.93,32,172.72,31.46Z"/>
        <path class="cls-9" d="M174,34.75a2.45,2.45,0,0,0-.12-.31c-.07-.13-.16-.26-.24-.4.13-.3,0-.72-.44-.63l-.14,0a.46.46,0,0,0-.39.51c.07.45.41.78.51,1.22a.48.48,0,0,0,.39.39l.14,0C174.25,35.67,174.4,35,174,34.75Z"/>
        <path class="cls-9" d="M175.19,38.73a2.54,2.54,0,0,0-.15-.49c-.06-.13-.27-.35-.26-.5.05-.58-.85-.7-.9-.11a1.62,1.62,0,0,0,.32.95,2.48,2.48,0,0,1,.15.58,3.11,3.11,0,0,1,.21.7c0,.58.88.69.9.11A5.4,5.4,0,0,0,175.19,38.73Z"/>
        <path class="cls-9" d="M177,44.51a3.81,3.81,0,0,1-.32-1.64c0-.58-.91-.45-.9.13a4.26,4.26,0,0,0,.39,1.86C176.38,45.38,177.22,45,177,44.51Z"/>
        <path class="cls-9" d="M177.8,47.41a.46.46,0,0,0-.84-.35,4.08,4.08,0,0,0,0,1.84c0,.58.94.46.9-.13A3.14,3.14,0,0,1,177.8,47.41Z"/>
        <path class="cls-9" d="M179,53.5c-.16-.16-.16-.5-.22-.72a8.13,8.13,0,0,1-.21-1c-.06-.58-1-.45-.89.13.05.42.18.82.27,1.24a1.61,1.61,0,0,0,.33.88C178.66,54.47,179.38,53.93,179,53.5Z"/>
        <path class="cls-9" d="M179.6,56.43c0-.58-.92-.45-.9.12a4.86,4.86,0,0,0,.16.94,3.8,3.8,0,0,1,.19.86c0,.58.88.7.9.11S179.62,57.12,179.6,56.43Z"/>
        <path class="cls-9" d="M178.65,62.64l0,1.6c0,.58.91.45.9-.12l0-1.6C179.54,61.93,178.64,62.06,178.65,62.64Z"/>
        <path class="cls-9" d="M178.59,68.09l0,1.76c0,.58.91.45.9-.13l0-1.76C179.47,67.38,178.58,67.51,178.59,68.09Z"/>
        <path class="cls-9" d="M178.7,72.33a4.23,4.23,0,0,0-.18,1.66c0,.67-.1,1.32-.11,2s.88.69.9.11.13-1.08.13-1.62a5.11,5.11,0,0,1,.1-1.79C179.73,72.13,178.89,71.78,178.7,72.33Z"/>
        <path class="cls-9" d="M177.5,78.83a2.65,2.65,0,0,1-.12.37,2.91,2.91,0,0,0,0,.59c0,.45-.13.88-.14,1.33s.88.7.9.11.14-.89.14-1.34a2,2,0,0,1,.06-.64,1.39,1.39,0,0,0,.08-.54C178.36,78.13,177.46,78.25,177.5,78.83Z"/>
        <path class="cls-9" d="M177,84c-.08.51-.35,1-.47,1.46s-.35.94-.44,1.44.8.68.9.11c.18-1,.75-1.9.91-2.9C177.94,83.54,177,83.43,177,84Z"/>
        <path class="cls-9" d="M175.3,90.45c0,.3-.09.6-.16.9A1.41,1.41,0,0,1,175,92c-.39.44.33,1,.71.56a1.83,1.83,0,0,0,.34-.88c.07-.37.15-.74.21-1.11A.46.46,0,0,0,175.3,90.45Z"/>
        <path class="cls-9" d="M173.57,95.54a4.89,4.89,0,0,0-.54,1.32,3.17,3.17,0,0,0-.31,1.28c.06.58,1,.45.9-.13,0-.3.21-.66.29-.94a3.11,3.11,0,0,1,.38-1C174.61,95.61,173.9,95.06,173.57,95.54Z"/>
        <path class="cls-9" d="M171.77,100.88c-.45.15-.6.66-.69,1.08a9,9,0,0,0-.34,1.7c0,.58.89.69.9.11a7.14,7.14,0,0,1,.28-1.36c0-.15.06-.65.2-.69C172.68,101.54,172.32,100.7,171.77,100.88Z"/>
        <path class="cls-9" d="M169.75,105.54a1.92,1.92,0,0,0-.4,1.3c0,.59.91.46.9-.12a1,1,0,0,1,.21-.63A.45.45,0,0,0,169.75,105.54Z"/>
        <path class="cls-10" d="M160.54,103A60.76,60.76,0,0,1,142.86,119c-4.27,2.56-13.63,8.15-24.54,8.35a31.56,31.56,0,0,1-4.42-.23c-6.92-.85-10.46-3.73-16.87-9-2.87-2.36-6.45-5.27-11.2-8.73C70.69,98.43,56.39,88,39.19,86.36a51.84,51.84,0,0,0-16,1c.53-.41,1.08-.83,1.65-1.25a52.72,52.72,0,0,1,14.41-.62c17.43,1.7,31.83,12.18,47.07,23.26,4.77,3.48,8.36,6.41,11.24,8.76,6.49,5.3,9.75,8,16.41,8.78,12.44,1.53,23.62-5.14,28.38-8a59.54,59.54,0,0,0,17.34-15.69Z"/>
        <g class="cls-11">
          <path class="cls-2" d="M155.11,100.21A58.48,58.48,0,0,1,135.7,115c-4.88,2.29-11.32,5.3-18.91,5.43a27,27,0,0,1-4-.19c-7.58-.9-11.57-4.46-17.62-9.87A150.36,150.36,0,0,0,76.63,95.86c-9-6-16.78-11.1-27.95-13.53a60.45,60.45,0,0,0-16.15-1.26c.57-.34,1.16-.66,1.76-1a60.66,60.66,0,0,1,14.58,1.36C60.2,83.91,68.05,89.1,77.14,95.1a149.32,149.32,0,0,1,18.65,14.62c6.13,5.47,9.83,8.78,17.13,9.64,9.09,1.07,16.78-2.53,22.41-5.17A57.87,57.87,0,0,0,154.28,99.8Z"/>
        </g>
        <g class="cls-11">
          <path class="cls-2" d="M150.14,97.78a65.83,65.83,0,0,1-8.12,7.46c-5.41,4.18-11.53,8.93-20.26,9.42-.33,0-.65,0-1,0a29.54,29.54,0,0,1-8.47-1.16c-9.6-2.61-15.63-7.87-22-13.44-1.81-1.57-3.67-3.2-5.66-4.79-5.52-4.47-18.45-14.93-34.31-18.13a50.89,50.89,0,0,0-7.51-1c.66-.25,1.36-.51,2.09-.76a52.46,52.46,0,0,1,5.6.82c16.07,3.25,29.13,13.81,34.7,18.31,2,1.61,3.87,3.24,5.69,4.82,6.29,5.5,12.25,10.69,21.65,13.24a27.78,27.78,0,0,0,9.16,1.1c8.44-.48,14.45-5.12,19.76-9.23a62.92,62.92,0,0,0,7.82-7.15C149.57,97.5,149.86,97.63,150.14,97.78Z"/>
        </g>
        <path class="cls-10" d="M143.88,94.81c-8.35,8.8-16.78,13.34-25.16,13.49h0c-9.75.17-16.61-5.53-24.57-12.14C87.22,90.4,79.38,83.88,67.78,79.4a74.06,74.06,0,0,0-20.67-4.67c.73-.23,1.49-.47,2.27-.69A74.14,74.14,0,0,1,68.1,78.56c11.74,4.54,19.65,11.1,26.63,16.9,8.13,6.76,14.55,12.1,24,11.93h0c8-.14,16.19-4.51,24.29-13Z"/>
        <path class="cls-12" d="M203.93,125q-5.73-3.39-12.23-6.91c1.46-4,19.28-54.41-9.34-87.95a66.9,66.9,0,0,0-22.6-17C198.66,27.66,223.5,78.11,203.93,125Z"/>
      </g>
      <path class="cls-13" d="M165.71,16.87c-1.17,1.9-6.63.11-8.49-.5a27.93,27.93,0,0,1-4.63-1.86c-1.22-.68-2.13-1.49-2.08-2.39.14-2.08,5.49-4.89,9.74-3.44a7.47,7.47,0,0,1,1.25.57C164.78,11.12,166.69,15.3,165.71,16.87Z"/>
      <path class="cls-12" d="M161.5,9.25A9.18,9.18,0,0,0,159,9.08c-1.37.08-4.16.23-5.61,2.45a5.18,5.18,0,0,0-.81,3c-1.22-.68-2.13-1.49-2.08-2.39.14-2.08,5.49-4.89,9.74-3.44A7.47,7.47,0,0,1,161.5,9.25Z"/>
    </g>
  </g>
</svg>
