<svg id="Layer_1" data-name="Layer 1" xmlns="http://www.w3.org/2000/svg" width="182.15" height="156.07" viewBox="0 0 182.15 156.07">
  <defs>
    <style>
      .cls-1 {
        opacity: 0.5;
      }

      .cls-2 {
        fill: #fff;
      }

      .cls-3 {
        fill: #9b0000;
      }

      .cls-4 {
        fill: #ebb386;
      }

      .cls-5 {
        fill: #edd8bf;
      }

      .cls-6 {
        fill: red;
      }

      .cls-7 {
        fill: #ff8989;
      }
    </style>
  </defs>
  <g>
    <path class="cls-1" d="M162.49,156.07a8,8,0,0,1-3.78-.95l-17.94-10a13.05,13.05,0,0,1-4,.65,11.77,11.77,0,0,1-4.87-1,11.61,11.61,0,0,1-2.61-1.61,11.43,11.43,0,0,1-3.54-1,11.6,11.6,0,0,1-2.76-1.74,12,12,0,0,1-2.55-.82,11.32,11.32,0,0,1-3-1.92,11.59,11.59,0,0,1-2.7-.84c-4-1.79-6.59-5.57-7.37-10.5a103,103,0,0,1-11-7.25,26.46,26.46,0,0,1-2.88-2.73,25.48,25.48,0,0,1-2.87,2.73,102.15,102.15,0,0,1-11,7.24c-1,6.71-5,9.46-7.35,10.5a11.81,11.81,0,0,1-2.69.84,11.38,11.38,0,0,1-3,1.93,11.86,11.86,0,0,1-2.51.81,11.22,11.22,0,0,1-2.72,1.74,12,12,0,0,1-2.48.79c-.38.08-.76.14-1.14.19a12.44,12.44,0,0,1-2.48,1.55l-.2.09a11.69,11.69,0,0,1-4.9,1.05,13.33,13.33,0,0,1-4-.64l-17.77,9.9a8,8,0,0,1-3.87,1,7.85,7.85,0,0,1-2.78-.5l-.27-.1A22.77,22.77,0,0,1,13,148.91C9.78,145,5.73,138,5,126.54l0-.22a8,8,0,0,1,5.41-8l.19-.06c1.08-.37,9.9-3.4,19.91-7.14a12.33,12.33,0,0,1,6.25-6.83l.21-.1a11.35,11.35,0,0,1,3.54-1,11.32,11.32,0,0,1,2.6-1.61,12.09,12.09,0,0,1,2.47-.79h0A11.58,11.58,0,0,1,48.37,99a11.46,11.46,0,0,1,2.74-.85,11.73,11.73,0,0,1,3-1.92,11.22,11.22,0,0,1,2.4-.78,10.57,10.57,0,0,1,1.24-.18l.78-.07H59a13.51,13.51,0,0,1,2.06.17l.47.09c.36.07.73.16,1.12.27,1.35-1.79,2-4.56,2.82-11.2.56-4.68.83-8.14,1-10.66.28-3.56.48-6.19,1.34-8.57a18.33,18.33,0,0,1,1.47-6.68c.42-1,.92-2,1.39-3a44.64,44.64,0,0,0,3.06-7.44c.87-2.95,1.54-5.81,2.07-8.11.36-1.54.66-2.85,1-4,.1-.36.2-.69.3-1,.55-1.85,1.37-4.6,2.71-14.47-.43-8.21,1.85-11.22,2.62-12.24l.2-.27A8,8,0,0,1,88.93,5h0a7.92,7.92,0,0,1,4.6,1.49A7.92,7.92,0,0,1,98.17,5h0a8,8,0,0,1,6.35,3.16l.21.28c.76,1,3,4,2.62,12.23,1.34,9.88,2.15,12.63,2.7,14.46.12.41.21.73.3,1.06.32,1.13.63,2.5,1,4,.53,2.29,1.2,5.15,2.07,8.12a44.06,44.06,0,0,0,3,7.41c.5,1,1,2,1.4,3a18.51,18.51,0,0,1,1.48,6.66c.85,2.38,1,5,1.33,8.58.2,2.52.47,6,1,10.66.76,6.3,1.42,9.11,2.62,10.9a13.21,13.21,0,0,1,3.82-.58,11.78,11.78,0,0,1,4.88,1A11.61,11.61,0,0,1,136,97.81a11.69,11.69,0,0,1,2.77.85,12.1,12.1,0,0,1,2.79,1.77,11.32,11.32,0,0,1,2.39.78,11.6,11.6,0,0,1,2.64,1.65,11.73,11.73,0,0,1,3.69,1,12.41,12.41,0,0,1,6.54,7.29c9.95,3.72,18.7,6.72,19.78,7.09l.18.06a7.94,7.94,0,0,1,5.41,8v.21c-.74,11.47-4.78,18.5-8,22.38a22.77,22.77,0,0,1-8.52,6.55l-.31.12A8,8,0,0,1,162.49,156.07Z"/>
    <path class="cls-2" d="M157.53,151.1a8,8,0,0,1-3.79-.95l-17.94-10a13.34,13.34,0,0,1-4,.64,11.77,11.77,0,0,1-4.87-1,11,11,0,0,1-2.6-1.61,11.41,11.41,0,0,1-3.55-1,11.8,11.8,0,0,1-2.76-1.74,12.2,12.2,0,0,1-2.55-.81,11.79,11.79,0,0,1-3-1.93,11.74,11.74,0,0,1-2.7-.84c-4-1.79-6.59-5.57-7.37-10.5a104.1,104.1,0,0,1-11-7.25,26.46,26.46,0,0,1-2.88-2.73,25.48,25.48,0,0,1-2.87,2.73,102.82,102.82,0,0,1-11,7.24c-1,6.71-5,9.46-7.36,10.5a12.19,12.19,0,0,1-2.69.85,11.61,11.61,0,0,1-3,1.92,11.31,11.31,0,0,1-2.51.81,11.17,11.17,0,0,1-2.71,1.74A11.66,11.66,0,0,1,54,138a11.29,11.29,0,0,1-1.14.19,11.59,11.59,0,0,1-2.48,1.55l-.2.09a11.69,11.69,0,0,1-4.9,1.05,13.33,13.33,0,0,1-4-.64l-17.77,9.9a8,8,0,0,1-6.65.5l-.26-.1a22.61,22.61,0,0,1-8.54-6.56C4.81,140.06.76,133,0,121.57v-.21a8,8,0,0,1,5.4-8l.2-.06c1.07-.37,9.9-3.4,19.9-7.14a12.33,12.33,0,0,1,6.25-6.83l.21-.1a11.43,11.43,0,0,1,3.54-1,11.68,11.68,0,0,1,2.6-1.61,12.29,12.29,0,0,1,2.47-.79h0a11.58,11.58,0,0,1,2.79-1.77,11.46,11.46,0,0,1,2.74-.85,11.71,11.71,0,0,1,5.37-2.7,10.41,10.41,0,0,1,1.25-.18c.18,0,.44,0,.77-.07H54a13.49,13.49,0,0,1,2,.17l.47.09c.36.07.74.16,1.12.27,1.36-1.79,2-4.56,2.82-11.2.56-4.68.83-8.14,1-10.66.28-3.56.49-6.19,1.34-8.57a18.46,18.46,0,0,1,1.47-6.67c.43-1,.92-2,1.39-3a45.47,45.47,0,0,0,3.07-7.44c.86-2.95,1.53-5.81,2.06-8.11.36-1.53.67-2.85,1-4,.1-.36.2-.69.31-1.05.54-1.84,1.36-4.6,2.7-14.46-.43-8.21,1.85-11.23,2.62-12.24l.2-.28A8,8,0,0,1,84,0h0a8,8,0,0,1,4.6,1.49A8,8,0,0,1,93.2,0h0a7.94,7.94,0,0,1,6.34,3.16l.21.28c.77,1,3,4,2.62,12.24,1.34,9.87,2.16,12.62,2.7,14.46.12.4.22.73.3,1.05.32,1.13.64,2.5,1,3.95.53,2.29,1.2,5.15,2.07,8.12a45.41,45.41,0,0,0,3,7.42c.5,1,1,2,1.4,3a18.3,18.3,0,0,1,1.48,6.66c.85,2.38,1,5,1.33,8.58.2,2.52.47,6,1,10.66.75,6.3,1.41,9.12,2.61,10.9a13.21,13.21,0,0,1,3.82-.58,11.78,11.78,0,0,1,4.88,1,11.66,11.66,0,0,1,3,1.91,11.75,11.75,0,0,1,2.76.85,11.89,11.89,0,0,1,2.79,1.77,11.72,11.72,0,0,1,2.39.78,11.57,11.57,0,0,1,2.65,1.66,11.53,11.53,0,0,1,3.69,1,12.43,12.43,0,0,1,6.53,7.29c9.95,3.72,18.7,6.72,19.78,7.09l.18.06a8,8,0,0,1,5.41,8v.2c-.73,11.47-4.78,18.5-8,22.38a22.77,22.77,0,0,1-8.52,6.55l-.31.12A7.9,7.9,0,0,1,157.53,151.1Z"/>
    <g>
      <g>
        <g>
          <path class="cls-3" d="M64.56,108.73c3.19,7.06,3,14.07-.53,15.64s-8.88-2.89-12.07-10-3-14.07.53-15.64S61.37,101.66,64.56,108.73Z"/>
          <path d="M62.52,125c-3.59,0-8-4.29-10.8-10.43a23.32,23.32,0,0,1-2.26-10c.1-3.06,1.14-5.19,2.92-6A3.83,3.83,0,0,1,54,98.19c3.59,0,8,4.29,10.8,10.43a23.26,23.26,0,0,1,2.26,10c-.1,3.06-1.14,5.18-2.92,6A4,4,0,0,1,62.52,125ZM54,98.72a3.3,3.3,0,0,0-1.41.29c-3.34,1.5-3.51,8.37-.39,15.29,2.64,5.86,7,10.12,10.32,10.12a3.4,3.4,0,0,0,1.4-.29c3.35-1.51,3.52-8.37.4-15.29C61.67,103,57.33,98.72,54,98.72Z"/>
        </g>
        <g>
          <path class="cls-3" d="M47.44,116.63c3.18,7.07,3,14.07-.53,15.64s-8.88-2.89-12.07-10-3-14.07.52-15.64S44.25,109.56,47.44,116.63Z"/>
          <path d="M45.4,132.85c-3.59,0-8-4.29-10.8-10.43a23.32,23.32,0,0,1-2.26-10c.1-3.06,1.14-5.19,2.92-6a3.94,3.94,0,0,1,1.61-.34c3.59,0,8,4.29,10.81,10.43a23.32,23.32,0,0,1,2.26,10c-.11,3.06-1.14,5.19-2.92,6A4,4,0,0,1,45.4,132.85Zm-8.53-26.23a3.44,3.44,0,0,0-1.4.29c-3.34,1.51-3.52,8.37-.39,15.29,2.64,5.87,7,10.12,10.32,10.12a3.44,3.44,0,0,0,1.4-.29c3.34-1.51,3.52-8.37.4-15.29C44.55,110.88,40.21,106.62,36.87,106.62Z"/>
        </g>
        <g>
          <path class="cls-3" d="M53.56,114.06c3.19,7.07,2.95,14.07-.53,15.64s-8.88-2.89-12.07-10-3-14.07.53-15.64S50.37,107,53.56,114.06Z"/>
          <path d="M51.53,130.28c-3.6,0-8-4.29-10.81-10.43a23.29,23.29,0,0,1-2.26-10c.1-3.06,1.14-5.19,2.92-6a4,4,0,0,1,1.62-.33c3.59,0,8,4.28,10.8,10.42a23.32,23.32,0,0,1,2.26,10c-.1,3.06-1.14,5.19-2.92,6A3.78,3.78,0,0,1,51.53,130.28ZM43,104.05a3.44,3.44,0,0,0-1.4.29c-1.59.72-2.52,2.68-2.61,5.53a22.88,22.88,0,0,0,2.21,9.77c2.65,5.86,7,10.11,10.33,10.11a3.44,3.44,0,0,0,1.4-.29c1.58-.71,2.51-2.68,2.61-5.53a22.83,22.83,0,0,0-2.22-9.76C50.68,108.31,46.34,104.05,43,104.05Z"/>
        </g>
        <g>
          <path class="cls-3" d="M58.9,111.49c3.18,7.07,3,14.08-.53,15.64s-8.89-2.89-12.07-10-3-14.07.52-15.64S55.71,104.42,58.9,111.49Z"/>
          <path d="M56.86,127.71c-3.59,0-8-4.29-10.8-10.43a23.26,23.26,0,0,1-2.26-10c.1-3.06,1.14-5.18,2.92-6a3.93,3.93,0,0,1,1.61-.33c3.59,0,8,4.28,10.81,10.42a23.47,23.47,0,0,1,2.26,10c-.11,3.07-1.14,5.19-2.92,6A3.83,3.83,0,0,1,56.86,127.71Zm-8.53-26.23a3.44,3.44,0,0,0-1.4.29c-3.34,1.51-3.52,8.37-.39,15.3,2.64,5.86,7,10.12,10.32,10.12a3.29,3.29,0,0,0,1.4-.3c1.59-.71,2.51-2.67,2.61-5.52a22.82,22.82,0,0,0-2.21-9.77C56,105.74,51.67,101.48,48.33,101.48Z"/>
        </g>
        <g>
          <path class="cls-4" d="M8.23,121s40.3-13.69,50.31-20.41c7-4.68,8.63-8,10.07-20.09s1-15.93,2.31-18.24c.26-.46-.26-2.63.92-5.4s3.29-6.23,4.79-11.32S79,35.92,79.7,33.37s1.89-5.18,4.06-23.09c0,0,4.08-1.12,4.74,4,.33,2.77-.2,6.72-.13,8.17s-.1,6.26-.23,7.31a18.74,18.74,0,0,0,.2,3.85,49.12,49.12,0,0,1,0,8.66c-.27,1.22.13,3.65,0,6.08-.15,2.2-.41,3.38-.32,4.06.14,1.11.79,6.36-.16,9.27,0,0,.88,1.05.66,5.53s-.09,9.13-.09,10.62,0,10.07-.15,13.57c-.26,5.93-2.77,12.32-7.71,16.33s-20,12.32-20,12.32L19.64,142.87S9.37,138.91,8.23,121Z"/>
          <path d="M19.66,143.15l-.11,0a14.78,14.78,0,0,1-5.39-4.29c-2.5-3-5.6-8.46-6.2-17.76v-.2l.19-.06c.4-.14,40.38-13.77,50.25-20.39,6.94-4.65,8.52-7.81,10-19.9.58-4.84.86-8.39,1.06-11,.31-3.94.46-5.92,1.28-7.36a3.07,3.07,0,0,0,.06-.81,11.1,11.1,0,0,1,.85-4.56c.35-.81.78-1.7,1.24-2.63a52.92,52.92,0,0,0,3.53-8.67c.94-3.18,1.63-6.16,2.19-8.56.33-1.44.62-2.68.89-3.64.08-.29.16-.59.26-.9.74-2.52,1.87-6.31,3.79-22.16l0-.17.17-.05a4.54,4.54,0,0,1,1-.11c1.32,0,3.6.56,4.08,4.35a33.86,33.86,0,0,1,0,5.87c-.06,1-.11,1.81-.09,2.32.07,1.5-.1,6.29-.23,7.35a11.91,11.91,0,0,0,.09,2.67c0,.34.07.71.11,1.13a48.15,48.15,0,0,1,0,8.74,12.55,12.55,0,0,0,0,2.62,32.36,32.36,0,0,1,0,3.42c-.07.95-.16,1.71-.23,2.31a8.89,8.89,0,0,0-.1,1.7c.24,1.88.71,6.5-.13,9.26.24.4.82,1.79.63,5.58-.17,3.54-.12,7.15-.1,9.3,0,.56,0,1,0,1.31v.06c0,3.75,0,10.5-.16,13.52C88.21,98,85.29,104.21,80.7,108c-4.9,4-19.84,12.25-20,12.34ZM8.5,121.23c.62,9,3.63,14.37,6.06,17.26a15.18,15.18,0,0,0,5.06,4.08l40.83-22.74c.15-.09,15-8.34,19.92-12.29,4.48-3.64,7.32-9.68,7.61-16.14.13-3,.15-9.75.15-13.5v-.06c0-.31,0-.75,0-1.3,0-2.16-.08-5.78.1-9.33.21-4.26-.6-5.35-.6-5.36l-.09-.11,0-.13c.86-2.64.39-7.28.14-9.15a8.66,8.66,0,0,1,.11-1.82c.07-.61.15-1.36.22-2.3A29,29,0,0,0,88,45a12.56,12.56,0,0,1,0-2.75c.35-1.59.14-6.8,0-8.58,0-.42-.08-.79-.11-1.13a11.71,11.71,0,0,1-.09-2.78c.13-1,.29-5.83.23-7.27,0-.53,0-1.39.09-2.38a34.76,34.76,0,0,0,0-5.77c-.41-3.21-2.16-3.88-3.56-3.88a5,5,0,0,0-.68.05c-1.91,15.74-3,19.54-3.79,22-.09.32-.18.61-.26.9-.26,1-.54,2.18-.88,3.62-.56,2.4-1.25,5.39-2.19,8.59a53.11,53.11,0,0,1-3.57,8.75c-.46.93-.88,1.81-1.23,2.61a10.57,10.57,0,0,0-.8,4.36,2.45,2.45,0,0,1-.13,1.06c-.76,1.33-.91,3.28-1.22,7.14-.2,2.6-.47,6.15-1.05,11-1.46,12.14-3.17,15.55-10.19,20.27C49.12,107.27,11.53,120.19,8.5,121.23Z"/>
        </g>
        <path class="cls-5" d="M11.18,132.63a34.25,34.25,0,0,1-2.54-11.31c3.65-1.25,40.63-14,50.12-20.36,7.06-4.74,8.79-8.17,10.25-20.37.58-4.85.85-8.41,1.06-11,.3-3.84.45-5.78,1.19-7.08a2.47,2.47,0,0,0,.15-1.13,10.61,10.61,0,0,1,.79-4.31c.35-.8.77-1.67,1.23-2.6A53.34,53.34,0,0,0,77,45.69c.93-3.2,1.63-6.2,2.19-8.6.33-1.43.62-2.67.88-3.62l.26-.89a78.58,78.58,0,0,0,2.51-12.46A66.35,66.35,0,0,1,84,12.56c.56-2.17,1.16-2.3,1.36-1.93.78,1.44.44,14.56.37,15.08-.1.86-.08,3.75,0,4.17.15,1.77,0,11,.06,12.12s-.48,4.85-.61,6.91A63.69,63.69,0,0,1,83.7,58,24.17,24.17,0,0,0,83,63.78c-.17,3.56-.09,10.69-.09,10.69,0,6.48,0,11.27-.15,13.5-.29,6.43-3.11,12.42-7.56,16C70.29,108,55.4,116.2,55.25,116.29s-23.7,13.09-31.53,17.57C21,135.42,14.15,139.45,11.18,132.63Z"/>
        <path d="M77.08,67a19.57,19.57,0,0,1,.62-2.24,13.61,13.61,0,0,1,.9-2.17l.15-.26c0-.08.1-.16.14-.24s.18-.33.27-.5c.16-.34.32-.69.46-1a13,13,0,0,0,.69-2.17,5.35,5.35,0,0,0,.11-.55,2.7,2.7,0,0,0,0-.28l0-.29.16-1.15L81,53.85l.67-4.59c.46-3.06.93-6.11,1.41-9.17.12-.76.25-1.52.38-2.28.06-.39.12-.77.2-1.15l0-.16,0-.14.06-.27.12-.57c.3-1.51.58-3,.86-4.55l0-.14.13,0h0a1.54,1.54,0,0,1,.33-.1l.34-.05a3,3,0,0,1,.67,0,2.32,2.32,0,0,1,1.19.62,3.4,3.4,0,0,1,.75,1.07,6,6,0,0,1,.39,1.2.25.25,0,0,1-.19.32.27.27,0,0,1-.32-.2h0a5.9,5.9,0,0,0-.36-1.1,2.91,2.91,0,0,0-.63-.91,1.78,1.78,0,0,0-.93-.48,1.56,1.56,0,0,0-.53,0l-.27,0a1.53,1.53,0,0,0-.25.06h0l.16-.19c-.26,1.52-.53,3-.82,4.56l-.11.58-.07.29,0,.14,0,.13c-.07.37-.13.75-.19,1.13l-.36,2.29q-.72,4.58-1.41,9.16l-.71,4.58-.35,2.29L81,57.36l0,.29c0,.1,0,.2,0,.3l-.12.58a14.69,14.69,0,0,1-.74,2.24c-.15.36-.31.72-.49,1.07-.09.17-.18.35-.28.52l-.15.26c0,.08-.1.16-.14.24-.19.32-.35.67-.51,1l-.47,1.05c-.3.71-.6,1.42-.91,2.13,0,0,0,0,0,0S77.08,67.05,77.08,67Z"/>
        <path d="M88.11,23.14a9.32,9.32,0,0,0-.16-1.9,5.88,5.88,0,0,0-.6-1.77,2.82,2.82,0,0,0-1.27-1.24,3.06,3.06,0,0,0-1.78-.15h0l.21-.21c-.39,1.94-.77,3.87-1.14,5.81-.18,1-.36,1.95-.53,2.92-.08.48-.16,1-.23,1.45s-.11,1-.18,1.47c-.24,2-.53,3.92-.85,5.88-.16,1-.33,2-.53,2.93s-.4,1.94-.67,2.91c-.06.23-.14.48-.21.71s-.13.47-.18.7c-.12.47-.21,1-.3,1.44-.18,1-.34,1.94-.53,2.92a32.11,32.11,0,0,1-1.61,5.75,28.9,28.9,0,0,1-1.22,2.72c-.23.45-.46.89-.71,1.32a3.71,3.71,0,0,0-.25.64,5,5,0,0,0-.15.69,23.34,23.34,0,0,0-.13,2.92,14.77,14.77,0,0,1-.25,3s0,0,0,0a0,0,0,0,1,0,0,20.74,20.74,0,0,0,0-3c0-.49,0-1-.06-1.49a11,11,0,0,1,.07-1.51,4.37,4.37,0,0,1,.44-1.5c.24-.43.47-.86.69-1.3.43-.88.83-1.77,1.18-2.69a32.33,32.33,0,0,0,1.55-5.67c.18-1,.33-1.94.5-2.91.09-.49.18-1,.3-1.47,0-.25.12-.49.19-.73s.14-.48.2-.71c.5-1.89.85-3.84,1.18-5.78s.6-3.9.84-5.86c.07-.49.11-1,.18-1.47s.16-1,.25-1.48q.26-1.45.54-2.91c.38-1.95.78-3.88,1.2-5.82l0-.18.17,0h0a3.66,3.66,0,0,1,2.09.19,3.15,3.15,0,0,1,.88.61,4,4,0,0,1,.63.85,6.49,6.49,0,0,1,.66,1.93,9.78,9.78,0,0,1,.16,2,.26.26,0,0,1-.26.26.25.25,0,0,1-.26-.27h0Z"/>
        <path d="M71.23,62.1c.12,1,.18,2.09.2,3.13,0,.53,0,1,0,1.58s-.06,1-.12,1.57c0,.26-.07.52-.09.77a6.17,6.17,0,0,0,0,.75,11.27,11.27,0,0,0,.13,1.52c.15,1,.4,2,.64,3,0,0,0,0,0,0l0,0a20.34,20.34,0,0,1-1-3,10.37,10.37,0,0,1-.23-1.58q0-.39,0-.81c0-.26,0-.52.07-.77.08-1,.09-2.06.08-3.09,0-.51,0-1,0-1.54s-.06-1-.09-1.55h0a.26.26,0,0,1,.25-.28A.26.26,0,0,1,71.23,62.1Z"/>
        <path d="M88.07,61.78a7.91,7.91,0,0,1-.64,1.1,8.39,8.39,0,0,1-.78,1,6.38,6.38,0,0,1-2,1.49s0,0,0,0a0,0,0,0,1,0,0,6.44,6.44,0,0,0,1.78-1.63,8.26,8.26,0,0,0,.65-1,8.06,8.06,0,0,0,.5-1.08h0a.27.27,0,1,1,.5.18Z"/>
        <path d="M88.14,62.24c-.19.6-.41,1.18-.64,1.75s-.5,1.14-.79,1.69a14.23,14.23,0,0,1-1,1.58,6.79,6.79,0,0,1-1.26,1.36h0a.06.06,0,0,1,0,0,7.09,7.09,0,0,0,1.15-1.41,13.86,13.86,0,0,0,.85-1.62c.25-.56.47-1.13.67-1.7s.37-1.17.51-1.75h0a.25.25,0,0,1,.31-.2.27.27,0,0,1,.2.32Z"/>
        <path d="M86.18,52.28c.3,0,.6-.09.89-.15L87.5,52a1.21,1.21,0,0,0,.36-.16.26.26,0,0,1,.37,0,.27.27,0,0,1,0,.38l-.07,0h0a2.08,2.08,0,0,1-.51.1H87.1c-.31,0-.62,0-.92-.08a0,0,0,0,1,0,0S86.16,52.28,86.18,52.28Z"/>
        <path d="M86.63,42.56a8,8,0,0,0,.84-.11,2.59,2.59,0,0,0,.4-.09.94.94,0,0,0,.3-.14.28.28,0,0,1,.39,0,.27.27,0,0,1,0,.38.24.24,0,0,1-.09.06l0,0a.81.81,0,0,1-.27.08l-.24,0-.45,0a8.46,8.46,0,0,1-.86-.12s0,0,0,0S86.61,42.56,86.63,42.56Z"/>
        <path d="M76,68.64c-.07.45-.14.9-.18,1.34a5,5,0,0,0,0,1.28,7.41,7.41,0,0,0,.35,1.26,13.1,13.1,0,0,1,.46,1.29s0,0,0,0,0,0,0,0a9,9,0,0,1-.77-1.16,4.37,4.37,0,0,1-.48-1.34,3.47,3.47,0,0,1,.08-1.44,4.6,4.6,0,0,1,.52-1.3,0,0,0,0,1,.06,0,.05.05,0,0,1,0,0Z"/>
        <g>
          <path class="cls-6" d="M84,8.39s2.81,3.77-.88,8.12C83.08,16.51,82.47,10.36,84,8.39Z"/>
          <path d="M82.88,17.15l-.06-.61c0-.26-.61-6.28.93-8.31L84,8l.21.28s2.89,4-.89,8.45ZM84,8.88c-.9,1.71-.77,5.43-.67,6.94A6.13,6.13,0,0,0,84,8.88Z"/>
        </g>
        <g>
          <path class="cls-6" d="M84.35,16.07a9.17,9.17,0,0,1-1.49,8.87S82.16,18.84,84.35,16.07Z"/>
          <path d="M82.67,25.58,82.6,25c0-.25-.69-6.24,1.55-9.06l.28-.36.17.42a9.54,9.54,0,0,1-1.54,9.14Zm1.6-8.92c-1.38,2.21-1.3,6.05-1.2,7.58A9,9,0,0,0,84.27,16.66Z"/>
        </g>
        <g>
          <path class="cls-6" d="M85.06,28.54a5.85,5.85,0,0,1,1,4.13A10.4,10.4,0,0,1,84,36.75S83.74,30.82,85.06,28.54Z"/>
          <path d="M83.72,37.43l0-.67c0-.25-.21-6,1.13-8.35l.2-.35.24.33a6,6,0,0,1,1,4.33,10.48,10.48,0,0,1-2.12,4.2Zm1.36-8.35c-.8,1.87-.88,5.37-.87,6.9a9.32,9.32,0,0,0,1.55-3.36A5.4,5.4,0,0,0,85.08,29.08Z"/>
        </g>
        <g>
          <g>
            <path class="cls-6" d="M48.66,125.43a6,6,0,0,1-1.52,4.08,1.34,1.34,0,0,1-.41.24,1.3,1.3,0,0,1-.45-.05c-2.84-1.12-5.9-4.37-7.89-8.8-2.25-5-2.5-10-.92-12.73.05-.08.08-.13.16-.16s.8-.22,2.91.83l.05,0c.25-.16.49-.33.75-.48a10,10,0,0,0-2.68-1.61h0l-.22-.08h0a4.27,4.27,0,0,0-3.15,0c-3.48,1.57-3.72,8.58-.53,15.64s8.59,11.53,12.07,10a4.43,4.43,0,0,0,1.7-1.65,9.52,9.52,0,0,0,1.06-5.24Z"/>
            <path d="M45.31,132.89h0c-3.59,0-8-4.29-10.8-10.43a23.26,23.26,0,0,1-2.26-10c.1-3.06,1.14-5.18,2.92-6a4.56,4.56,0,0,1,3.34,0l.24.09.51.19,0,0a10.64,10.64,0,0,1,2.26,1.44l.3.24-.33.19-.42.28-.32.2-.12.08-.19-.09a6.18,6.18,0,0,0-2.48-.86.62.62,0,0,0-.2,0l-.05.06c-1.56,2.74-1.19,7.76.94,12.48,1.9,4.21,4.87,7.53,7.75,8.67a1.14,1.14,0,0,0,.26,0h0a1,1,0,0,0,.3-.19,5.8,5.8,0,0,0,1.42-3.88v-.25h1.42v.25a9.68,9.68,0,0,1-1.09,5.37v0a4.48,4.48,0,0,1-1.81,1.74A3.83,3.83,0,0,1,45.31,132.89Zm-8.53-26.23a3.44,3.44,0,0,0-1.4.29c-1.58.72-2.51,2.68-2.6,5.53A22.7,22.7,0,0,0,35,122.25c2.64,5.86,7,10.12,10.32,10.12h0a3.26,3.26,0,0,0,1.4-.3,4,4,0,0,0,1.58-1.53,9.19,9.19,0,0,0,1-4.84H48.9a5.91,5.91,0,0,1-1.6,4,1.18,1.18,0,0,1-.51.29l-.15,0a1.52,1.52,0,0,1-.45-.07c-3-1.18-6.09-4.61-8-8.94-2.23-4.94-2.59-10-.91-13a.64.64,0,0,1,.29-.27.94.94,0,0,1,.41-.07,6.78,6.78,0,0,1,2.64.87,1.88,1.88,0,0,1,.18-.12l.12-.09A9.65,9.65,0,0,0,38.56,107l-.17-.06,0,0A5.11,5.11,0,0,0,36.78,106.66Z"/>
          </g>
          <path class="cls-7" d="M45.31,131.31c-2.46,0-6.58-3.33-9.36-9.5-3.08-6.83-2.54-12.81-.13-13.89a1.4,1.4,0,0,1,.36-.13c-1.67,3.25-1.29,8.56,1,13.65,2.09,4.64,5.31,8.19,8.61,9.49a2.4,2.4,0,0,0,.59.13l-.11.05a2.19,2.19,0,0,1-1,.2Z"/>
          <g>
            <path class="cls-6" d="M54.74,124.43a4.5,4.5,0,0,1-1.28,2.44,1,1,0,0,1-.4.24,1.13,1.13,0,0,1-.46,0c-2.84-1.12-5.89-4.38-7.89-8.8-2.24-5-2.5-10-.92-12.74a.38.38,0,0,1,.16-.15c.16-.07.8-.23,2.91.83l.06,0,.74-.47A10,10,0,0,0,45,104.14h0l-.22-.08h0a4.22,4.22,0,0,0-3.15,0c-3.48,1.57-3.72,8.57-.53,15.64s8.6,11.53,12.07,10a4.41,4.41,0,0,0,1.7-1.64,8.85,8.85,0,0,0,1-3.61Z"/>
            <path d="M51.64,130.26h0c-3.6,0-8-4.29-10.81-10.43a23.29,23.29,0,0,1-2.26-10c.1-3.06,1.14-5.19,2.92-6a4.46,4.46,0,0,1,3.34,0l.24.09.44.16h0a10.92,10.92,0,0,1,2.34,1.48l.29.24-.32.19-.43.27-.31.21-.13.07-.19-.09a6.26,6.26,0,0,0-2.48-.85.41.41,0,0,0-.2,0l-.05.06c-1.56,2.74-1.19,7.76.94,12.48,1.9,4.21,4.87,7.53,7.75,8.66a1.09,1.09,0,0,0,.26,0h0s.11,0,.3-.18a4.27,4.27,0,0,0,1.18-2.31l.05-.2h1.64l0,.29a9.19,9.19,0,0,1-1.07,3.71l0,0a4.49,4.49,0,0,1-1.81,1.74A3.94,3.94,0,0,1,51.64,130.26ZM43.11,104a3.37,3.37,0,0,0-1.4.29c-3.34,1.51-3.52,8.37-.4,15.29,2.65,5.87,7,10.12,10.33,10.12h0a3.44,3.44,0,0,0,1.4-.29,4,4,0,0,0,1.58-1.54,8.68,8.68,0,0,0,1-3.21H55a4.62,4.62,0,0,1-1.32,2.39,1.39,1.39,0,0,1-.52.29H53a1.33,1.33,0,0,1-.45-.07c-3-1.18-6.09-4.6-8-8.94-2.23-4.94-2.58-10-.91-13a.7.7,0,0,1,.29-.27,1.21,1.21,0,0,1,.41-.07,7,7,0,0,1,2.64.87l.18-.12.12-.08a9.29,9.29,0,0,0-2.32-1.34l-.17-.07h-.05A4.91,4.91,0,0,0,43.11,104Z"/>
          </g>
          <path class="cls-7" d="M51.64,128.68c-2.47,0-6.59-3.33-9.37-9.5-3.08-6.84-2.54-12.81-.13-13.9a2.17,2.17,0,0,1,.36-.12c-1.67,3.25-1.29,8.56,1,13.65,2.09,4.64,5.31,8.19,8.61,9.49a2,2,0,0,0,.59.12l-.11.06a2.32,2.32,0,0,1-1,.2Z"/>
          <g>
            <path class="cls-6" d="M54.84,100.06a.18.18,0,0,0-.08.13Z"/>
            <path d="M54.49,101.15v-1a.43.43,0,0,1,.18-.33L55.79,99Zm.45-1,.06.08a.09.09,0,0,0,0-.08Z"/>
          </g>
          <g>
            <path class="cls-6" d="M60,121.57a4.86,4.86,0,0,1-1.35,2.76.73.73,0,0,1-.86.19c-2.84-1.12-5.89-4.37-7.89-8.8-2.24-5-2.49-10-.92-12.73a.35.35,0,0,1,.16-.16c.16-.07.81-.22,2.91.83l.06,0c.25-.16.49-.33.74-.48a10,10,0,0,0-2.68-1.61h0l-.22-.08h0a4.27,4.27,0,0,0-3.15,0c-3.48,1.57-3.72,8.58-.53,15.64s8.6,11.53,12.08,10A4.38,4.38,0,0,0,60,125.49a8.69,8.69,0,0,0,1.06-3.92Z"/>
            <path d="M56.82,127.71h0c-3.6,0-8-4.29-10.81-10.43a23.26,23.26,0,0,1-2.26-10c.11-3.06,1.14-5.18,2.92-6a4.59,4.59,0,0,1,3.35,0l.23.09.41.15h0A11.35,11.35,0,0,1,53,103l.29.24-.32.19-.43.27-.31.21-.13.08-.19-.1a6.26,6.26,0,0,0-2.48-.85.62.62,0,0,0-.2,0l-.05.06c-1.56,2.74-1.19,7.76.94,12.48,1.9,4.21,4.87,7.53,7.75,8.67a1.23,1.23,0,0,0,.26,0h0a1,1,0,0,0,.3-.19,4.55,4.55,0,0,0,1.25-2.6l0-.21h1.59v.27a9.07,9.07,0,0,1-1.09,4l0,0a4.36,4.36,0,0,1-1.81,1.74A3.78,3.78,0,0,1,56.82,127.71Zm-8.53-26.23a3.4,3.4,0,0,0-1.4.29c-3.34,1.51-3.52,8.37-.4,15.3,2.65,5.86,7,10.11,10.33,10.12h0a3.29,3.29,0,0,0,1.4-.3,4,4,0,0,0,1.58-1.53,8.77,8.77,0,0,0,1-3.53H60.2a4.87,4.87,0,0,1-1.39,2.7,1.2,1.2,0,0,1-.52.29l-.15,0a1.63,1.63,0,0,1-.45-.07c-3-1.18-6.09-4.61-8-8.94-2.23-4.94-2.58-10-.91-13a.64.64,0,0,1,.29-.27,1,1,0,0,1,.41-.07,6.89,6.89,0,0,1,2.64.86l.18-.11.12-.09a9.29,9.29,0,0,0-2.32-1.34l-.18-.07h-.05A4.83,4.83,0,0,0,48.29,101.48Z"/>
          </g>
          <path class="cls-7" d="M56.82,126.13c-2.47,0-6.59-3.33-9.37-9.5-3.08-6.83-2.54-12.81-.13-13.89a1.74,1.74,0,0,1,.36-.13c-1.67,3.25-1.29,8.56,1,13.65,2.09,4.64,5.31,8.19,8.61,9.49a2.4,2.4,0,0,0,.59.13l-.11.05a2.17,2.17,0,0,1-1,.2Z"/>
          <g>
            <path class="cls-6" d="M66.73,116.62c-.22.12-.53.26-.84.41,0,2-.67,3.83-1.54,4.53a1.15,1.15,0,0,1-.41.24,1.1,1.1,0,0,1-.45,0c-2.84-1.12-5.9-4.38-7.89-8.81-2.25-5-2.5-10-.92-12.73a.45.45,0,0,1,.2-.16c.07,0,.76-.22,2.87.83l0,0c.25-.16.49-.33.75-.48a10,10,0,0,0-2.68-1.61h0l-.22-.08h0a4.22,4.22,0,0,0-3.15,0c-3.48,1.57-3.72,8.57-.53,15.64s8.59,11.53,12.07,10a4.36,4.36,0,0,0,1.7-1.65A10.05,10.05,0,0,0,66.73,116.62Z"/>
            <path d="M62.52,125h0c-3.59,0-8-4.29-10.8-10.43a23.32,23.32,0,0,1-2.26-10c.1-3.06,1.14-5.19,2.92-6a4.46,4.46,0,0,1,3.34,0l.24.08.48.19h0a10.54,10.54,0,0,1,2.29,1.46l.3.24-.33.19c-.14.08-.28.18-.42.27l-.32.2-.12.08-.15-.07,0,0a6.21,6.21,0,0,0-2.5-.85.3.3,0,0,0-.14,0,.22.22,0,0,0-.09.07c-1.56,2.74-1.19,7.76.94,12.48,1.9,4.21,4.87,7.53,7.75,8.66a1.14,1.14,0,0,0,.26,0h0s.11,0,.3-.18c.82-.66,1.4-2.4,1.44-4.34v-.16l.25-.12.73-.35.35-.18,0,.39a10.37,10.37,0,0,1-1,6.25v0a4.55,4.55,0,0,1-1.81,1.74A4,4,0,0,1,62.52,125ZM54,98.72a3.28,3.28,0,0,0-1.4.29c-3.34,1.5-3.51,8.37-.39,15.29,2.64,5.86,7,10.12,10.32,10.12h0a3.4,3.4,0,0,0,1.4-.29,4.08,4.08,0,0,0,1.58-1.54,9.42,9.42,0,0,0,1-5.56l-.35.17c-.07,2-.71,3.83-1.64,4.57a1.44,1.44,0,0,1-.51.29h-.15a1.64,1.64,0,0,1-.46-.07c-3-1.18-6.08-4.61-8-8.94-2.23-4.94-2.59-10-.91-13a.71.71,0,0,1,.3-.26.81.81,0,0,1,.38-.07,6.55,6.55,0,0,1,2.66.86l.18-.12.12-.08a9,9,0,0,0-2.32-1.34L55.6,99h0A4.83,4.83,0,0,0,54,98.72Z"/>
          </g>
          <path class="cls-7" d="M62.52,123.36c-2.46,0-6.58-3.32-9.36-9.49C50.08,107,50.62,101.06,53,100a1.91,1.91,0,0,1,.36-.13c-1.67,3.26-1.29,8.56,1,13.66,2.09,4.64,5.31,8.18,8.61,9.48a2.4,2.4,0,0,0,.59.13l-.11.06a2.33,2.33,0,0,1-1,.19Z"/>
        </g>
      </g>
      <g>
        <g>
          <path class="cls-3" d="M112.63,108.73c-3.19,7.06-3,14.07.52,15.64s8.89-2.89,12.08-10,3-14.07-.53-15.64S115.81,101.66,112.63,108.73Z"/>
          <path d="M114.66,125h0a3.94,3.94,0,0,1-1.61-.34c-1.78-.81-2.82-2.93-2.92-6a23.26,23.26,0,0,1,2.26-10c2.77-6.14,7.21-10.43,10.8-10.43a3.83,3.83,0,0,1,1.62.34c1.78.8,2.81,2.93,2.92,6a23.47,23.47,0,0,1-2.26,10C122.7,120.66,118.25,125,114.66,125Zm8.53-26.23c-3.34,0-7.68,4.25-10.32,10.12-3.13,6.92-3,13.78.39,15.29a3.44,3.44,0,0,0,1.4.29c3.34,0,7.68-4.26,10.33-10.12a22.82,22.82,0,0,0,2.21-9.77c-.1-2.84-1-4.81-2.61-5.52A3.28,3.28,0,0,0,123.19,98.72Z"/>
        </g>
        <g>
          <path class="cls-3" d="M129.75,116.63c-3.19,7.07-3,14.07.53,15.64s8.88-2.89,12.07-10,3-14.07-.53-15.64S132.94,109.56,129.75,116.63Z"/>
          <path d="M131.78,132.85h0a3.94,3.94,0,0,1-1.61-.34c-1.78-.8-2.82-2.93-2.92-6a23.32,23.32,0,0,1,2.26-10c2.77-6.14,7.21-10.43,10.8-10.43a4,4,0,0,1,1.62.34c1.78.8,2.82,2.93,2.92,6a23.32,23.32,0,0,1-2.26,10C139.82,128.56,135.38,132.85,131.78,132.85Zm8.53-26.23c-3.33,0-7.68,4.26-10.32,10.12-3.12,6.92-3,13.78.39,15.29a3.44,3.44,0,0,0,1.4.29c3.34,0,7.68-4.25,10.33-10.12a22.81,22.81,0,0,0,2.21-9.76c-.09-2.85-1-4.81-2.61-5.53A3.44,3.44,0,0,0,140.31,106.62Z"/>
        </g>
        <g>
          <path class="cls-3" d="M123.62,114.06c-3.18,7.07-3,14.07.53,15.64s8.89-2.89,12.07-10,3-14.07-.52-15.64S126.81,107,123.62,114.06Z"/>
          <path d="M125.66,130.28h0a3.83,3.83,0,0,1-1.62-.34c-1.78-.8-2.81-2.93-2.92-6a23.47,23.47,0,0,1,2.26-10c2.77-6.14,7.22-10.42,10.81-10.42a4,4,0,0,1,1.62.33c1.77.8,2.81,2.93,2.91,6a23.14,23.14,0,0,1-2.26,10C133.7,126,129.25,130.28,125.66,130.28Zm8.53-26.23c-3.34,0-7.68,4.26-10.32,10.12-3.13,6.93-3,13.78.39,15.29a3.44,3.44,0,0,0,1.4.29c3.34,0,7.68-4.25,10.32-10.11,3.13-6.93,3-13.79-.39-15.3A3.44,3.44,0,0,0,134.19,104.05Z"/>
        </g>
        <g>
          <path class="cls-3" d="M118.29,111.49c-3.19,7.07-3,14.08.53,15.64s8.88-2.89,12.07-10,3-14.07-.53-15.64S121.48,104.42,118.29,111.49Z"/>
          <path d="M120.33,127.71h0a3.83,3.83,0,0,1-1.62-.34c-1.78-.8-2.82-2.92-2.92-6a23.32,23.32,0,0,1,2.26-10c2.77-6.14,7.21-10.42,10.8-10.42a4,4,0,0,1,1.62.33c1.78.81,2.82,2.93,2.92,6a23.26,23.26,0,0,1-2.26,10C128.36,123.42,123.92,127.71,120.33,127.71Zm8.52-26.23c-3.33,0-7.68,4.26-10.32,10.12-3.12,6.93-3,13.79.4,15.29a3.23,3.23,0,0,0,1.4.3c3.33,0,7.67-4.26,10.32-10.12a22.7,22.7,0,0,0,2.21-9.77c-.09-2.85-1-4.81-2.61-5.53A3.37,3.37,0,0,0,128.85,101.48Z"/>
        </g>
        <g>
          <path class="cls-4" d="M169,121s-40.3-13.69-50.31-20.41c-7-4.68-8.63-8-10.08-20.09s-1-15.93-2.3-18.24c-.27-.46.26-2.63-.92-5.4s-3.3-6.23-4.79-11.32-2.37-9.66-3.07-12.21-1.89-5.18-4.07-23.09c0,0-4.08-1.12-4.74,4-.33,2.77.2,6.72.14,8.17s.09,6.26.23,7.31a19.49,19.49,0,0,1-.2,3.85,48.18,48.18,0,0,0,0,8.66c.26,1.22-.13,3.65,0,6.08a40.4,40.4,0,0,1,.33,4.06c-.14,1.11-.79,6.36.15,9.27,0,0-.87,1.05-.65,5.53s.08,9.13.08,10.62,0,10.07.16,13.57c.26,5.93,2.76,12.32,7.7,16.33s20,12.32,20,12.32l40.94,22.81S167.82,138.91,169,121Z"/>
          <path d="M157.53,143.15l-.11-.05-40.94-22.81c-.15-.09-15.09-8.36-20-12.34C91.89,104.21,89,98,88.68,91.42c-.13-3-.15-9.76-.15-13.52v-.06c0-.31,0-.75,0-1.31,0-2.15.08-5.76-.1-9.3-.18-3.79.4-5.18.64-5.58-.84-2.76-.37-7.38-.13-9.26a8.31,8.31,0,0,0-.11-1.7c-.07-.61-.15-1.36-.22-2.31a30,30,0,0,1,0-3.42,12,12,0,0,0,0-2.62,48.15,48.15,0,0,1,0-8.74c0-.42.07-.79.1-1.13a11.35,11.35,0,0,0,.09-2.67c-.13-1.06-.3-5.85-.23-7.35,0-.51,0-1.35-.09-2.32a36,36,0,0,1,0-5.87c.49-3.79,2.77-4.35,4.09-4.35a4.28,4.28,0,0,1,1,.11l.18.05,0,.17c1.92,15.85,3,19.64,3.79,22.16.09.31.18.61.26.9.26,1,.55,2.2.89,3.64.55,2.4,1.25,5.38,2.18,8.56a52,52,0,0,0,3.54,8.67c.46.94.89,1.82,1.24,2.63a11.27,11.27,0,0,1,.85,4.56,3.2,3.2,0,0,0,0,.81c.82,1.44,1,3.42,1.29,7.36.2,2.59.47,6.14,1,11,1.45,12.09,3,15.25,10,19.9,9.87,6.62,49.85,20.25,50.26,20.39l.19.06,0,.2c-.59,9.3-3.69,14.8-6.19,17.76a14.86,14.86,0,0,1-5.39,4.29Zm-65-132.71c-1.4,0-3.15.67-3.56,3.89a34.65,34.65,0,0,0,0,5.76c.06,1,.11,1.85.09,2.38-.07,1.44.1,6.25.23,7.27a12.35,12.35,0,0,1-.09,2.79c0,.33-.07.7-.11,1.12a49.2,49.2,0,0,0,0,8.58A11.87,11.87,0,0,1,89.15,45a31.26,31.26,0,0,0,0,3.36c.07.94.16,1.69.23,2.29a8.6,8.6,0,0,1,.1,1.83c-.24,1.87-.71,6.51.14,9.15l0,.13-.09.12S88.76,63,89,67.21c.17,3.55.13,7.17.1,9.33,0,.55,0,1,0,1.3v.06c0,6.48,0,11.27.15,13.5.29,6.46,3.13,12.5,7.61,16.14,4.86,3.95,19.76,12.2,19.91,12.29l40.83,22.74a15.19,15.19,0,0,0,5.09-4.11c2.42-2.89,5.42-8.22,6-17.23-3-1-40.61-14-50.18-20.38-7-4.72-8.74-8.13-10.19-20.27-.58-4.86-.86-8.41-1.06-11-.3-3.86-.45-5.81-1.21-7.14a2.45,2.45,0,0,1-.13-1.06A10.62,10.62,0,0,0,105.1,57c-.34-.8-.77-1.68-1.22-2.61a52.25,52.25,0,0,1-3.57-8.75c-.94-3.2-1.64-6.19-2.2-8.59-.33-1.44-.62-2.67-.88-3.62-.08-.29-.16-.58-.26-.9-.74-2.51-1.87-6.31-3.78-22A5,5,0,0,0,92.51,10.44Z"/>
        </g>
        <path class="cls-5" d="M166,132.63a34.48,34.48,0,0,0,2.55-11.31c-3.65-1.25-40.63-14-50.12-20.36-7.07-4.74-8.79-8.17-10.25-20.37-.58-4.85-.86-8.41-1.06-11-.3-3.84-.45-5.78-1.2-7.08a2.5,2.5,0,0,1-.14-1.13,10.49,10.49,0,0,0-.8-4.31c-.34-.8-.77-1.67-1.22-2.6a53.34,53.34,0,0,1-3.58-8.77c-.94-3.2-1.63-6.2-2.19-8.6-.34-1.43-.62-2.67-.88-3.62l-.26-.89a79.28,79.28,0,0,1-2.52-12.46,67.76,67.76,0,0,0-1.1-7.56c-.56-2.17-1.16-2.3-1.36-1.93-.79,1.44-.44,14.56-.38,15.08a39.83,39.83,0,0,1,.05,4.17c-.16,1.77.13,11,.08,12.12s.33,4.85.47,6.91A62.3,62.3,0,0,0,93.49,58a24.89,24.89,0,0,1,.75,5.79c.17,3.56.09,10.69.09,10.69,0,6.48,0,11.27.15,13.5.28,6.43,3.11,12.42,7.56,16,4.85,3.95,19.74,12.19,19.89,12.28,0,0,23.7,13.09,31.54,17.57C156.2,135.42,163,139.45,166,132.63Z"/>
        <path d="M100.05,67.05c-.32-.71-.62-1.42-.92-2.13-.15-.35-.3-.7-.46-1.05s-.33-.69-.51-1L98,62.62l-.16-.26c-.09-.17-.19-.34-.28-.52-.17-.35-.33-.71-.49-1.07a15.84,15.84,0,0,1-.73-2.24c0-.19-.09-.39-.12-.58s0-.2,0-.3l0-.29L96,56.22l-.34-2.29-.71-4.58q-.69-4.59-1.41-9.16l-.37-2.29c-.06-.38-.12-.76-.19-1.13l0-.13,0-.14-.06-.29-.12-.58c-.29-1.52-.56-3-.82-4.56l.16.19h0l-.24-.06-.27,0a1.64,1.64,0,0,0-.54,0,1.85,1.85,0,0,0-.93.48,3.06,3.06,0,0,0-.62.91,5.25,5.25,0,0,0-.36,1.1.28.28,0,0,1-.32.2.27.27,0,0,1-.2-.32h0a6,6,0,0,1,.4-1.2,3.54,3.54,0,0,1,.74-1.07,2.39,2.39,0,0,1,1.2-.62,3,3,0,0,1,.67,0l.33.05a1.46,1.46,0,0,1,.34.1h0l.14,0,0,.14c.29,1.52.57,3,.87,4.55l.12.57.06.27,0,.14,0,.16c.07.38.14.76.2,1.15.13.76.25,1.52.37,2.28.49,3.06.95,6.11,1.42,9.17l.67,4.59.32,2.29.16,1.15,0,.29,0,.28c0,.18.07.37.11.55a15.19,15.19,0,0,0,.69,2.17c.15.35.3.7.47,1,.08.17.17.33.26.5l.14.24a2.26,2.26,0,0,1,.16.26,14.6,14.6,0,0,1,.9,2.17,19.57,19.57,0,0,1,.62,2.24s0,0,0,0S100.05,67.07,100.05,67.05Z"/>
        <path d="M88.55,23.16a9.79,9.79,0,0,1,.17-2,6.22,6.22,0,0,1,.66-1.93,3.67,3.67,0,0,1,.63-.85,3,3,0,0,1,.88-.61A3.64,3.64,0,0,1,93,17.56h0l.17,0,0,.18c.42,1.94.81,3.87,1.19,5.82.19,1,.38,1.94.55,2.91.09.49.17,1,.24,1.48s.12,1,.18,1.47q.38,2.94.85,5.86c.32,1.94.67,3.89,1.18,5.78.06.23.13.46.2.71s.13.48.19.73q.17.73.3,1.47c.17,1,.32,1.95.5,2.91a32.33,32.33,0,0,0,1.55,5.67,29.22,29.22,0,0,0,1.18,2.69c.22.44.45.87.69,1.3a4.6,4.6,0,0,1,.44,1.5,11,11,0,0,1,.06,1.51c0,.5,0,1-.06,1.49a24.18,24.18,0,0,0,0,3,0,0,0,0,1,0,0s0,0,0,0a14.78,14.78,0,0,1-.26-3,21.6,21.6,0,0,0-.12-2.92,5,5,0,0,0-.16-.69,3,3,0,0,0-.25-.64c-.24-.43-.48-.87-.71-1.32a28.83,28.83,0,0,1-1.21-2.72A33,33,0,0,1,98,47c-.19-1-.35-2-.52-2.92q-.14-.73-.3-1.44c-.06-.23-.12-.47-.19-.7s-.14-.48-.21-.71c-.27-1-.47-1.94-.67-2.91s-.36-1.95-.53-2.93q-.48-2.94-.85-5.88c-.06-.49-.11-1-.17-1.47s-.15-1-.23-1.45c-.17-1-.35-2-.53-2.92-.37-1.94-.76-3.87-1.15-5.81l.22.21h0a3.07,3.07,0,0,0-1.78.15,2.75,2.75,0,0,0-1.26,1.24,5.89,5.89,0,0,0-.61,1.77,9.31,9.31,0,0,0-.15,1.9h0a.26.26,0,0,1-.26.27.27.27,0,0,1-.27-.26Z"/>
        <path d="M106.48,62.15c0,.51-.06,1-.08,1.55s0,1-.05,1.54c0,1,0,2.06.09,3.09,0,.25,0,.51.06.77a5.47,5.47,0,0,1,0,.81,9.26,9.26,0,0,1-.23,1.58,20.34,20.34,0,0,1-1,3s0,0,0,0,0,0,0,0c.24-1,.49-2,.65-3A11.24,11.24,0,0,0,106,69.9a6.19,6.19,0,0,0,0-.75c0-.25-.07-.51-.09-.77-.06-.52-.1-1-.12-1.57s0-1,0-1.58a27.4,27.4,0,0,1,.2-3.13.26.26,0,0,1,.29-.23.28.28,0,0,1,.24.28Z"/>
        <path d="M89.61,61.59a8,8,0,0,0,.49,1.08,8.34,8.34,0,0,0,.66,1,6.27,6.27,0,0,0,1.77,1.63s0,0,0,0a0,0,0,0,1,0,0,6.34,6.34,0,0,1-2-1.49,6.71,6.71,0,0,1-.78-1,7.91,7.91,0,0,1-.64-1.1.26.26,0,0,1,.13-.35.27.27,0,0,1,.35.13v0Z"/>
        <path d="M89.55,62.1c.15.58.33,1.17.52,1.75s.42,1.14.67,1.7a12.49,12.49,0,0,0,.85,1.62,6.46,6.46,0,0,0,1.15,1.41,0,0,0,0,1,0,0h0a6.51,6.51,0,0,1-1.26-1.36,12.88,12.88,0,0,1-1-1.58c-.29-.55-.55-1.12-.79-1.69s-.45-1.15-.65-1.75a.27.27,0,0,1,.18-.33.26.26,0,0,1,.33.17v0Z"/>
        <path d="M91,52.35c-.31,0-.61.07-.92.08h-.48a2.15,2.15,0,0,1-.52-.1h0a.26.26,0,0,1-.16-.34.26.26,0,0,1,.34-.16l.07,0a1.27,1.27,0,0,0,.35.16l.43.11q.45.09.9.15s0,0,0,0A0,0,0,0,1,91,52.35Z"/>
        <path d="M90.56,42.63a7.74,7.74,0,0,1-.86.12l-.44,0-.24,0a.81.81,0,0,1-.27-.08l0,0a.27.27,0,1,1,.23-.49.16.16,0,0,1,.08.06,1,1,0,0,0,.31.14,2.35,2.35,0,0,0,.4.09,7.4,7.4,0,0,0,.84.11s0,0,0,0A0,0,0,0,1,90.56,42.63Z"/>
        <path d="M101.25,68.61a4.34,4.34,0,0,1,.53,1.3,3.65,3.65,0,0,1,.08,1.44,4.37,4.37,0,0,1-.48,1.34,10.14,10.14,0,0,1-.77,1.16s0,0-.06,0a0,0,0,0,1,0,0c.13-.45.31-.87.46-1.29a7.45,7.45,0,0,0,.36-1.26,5,5,0,0,0,0-1.28c0-.44-.11-.89-.18-1.34h0s0,0,0,0S101.25,68.6,101.25,68.61Z"/>
        <g>
          <path class="cls-6" d="M93.23,8.39s-2.81,3.77.88,8.12C94.11,16.51,94.72,10.36,93.23,8.39Z"/>
          <path d="M94.31,17.15l-.41-.47C90.13,12.23,93,8.27,93,8.23L93.23,8l.21.28c1.53,2,1,8.05.93,8.31ZM93.23,8.88a6.13,6.13,0,0,0,.67,6.94C94,14.31,94.13,10.59,93.23,8.88Z"/>
        </g>
        <g>
          <path class="cls-6" d="M92.83,16.07a8.41,8.41,0,0,0,1.5,8.87S95,18.84,92.83,16.07Z"/>
          <path d="M94.52,25.59l-.4-.48A8.74,8.74,0,0,1,92.6,16l.18-.36.26.32c2.24,2.82,1.58,8.81,1.55,9.06Zm-1.63-9a8.12,8.12,0,0,0,1.23,7.63C94.22,22.69,94.3,18.82,92.89,16.61Z"/>
        </g>
        <g>
          <path class="cls-6" d="M92.13,28.54a5.83,5.83,0,0,0-1,4.13,10.35,10.35,0,0,0,2.07,4.08S93.45,30.82,92.13,28.54Z"/>
          <path d="M93.47,37.43,93,36.92a10.34,10.34,0,0,1-2.12-4.2,6,6,0,0,1,1-4.33l.24-.33.2.35c1.34,2.32,1.14,8.1,1.13,8.35ZM92.1,29.08a5.4,5.4,0,0,0-.68,3.54A9.32,9.32,0,0,0,93,36C93,34.45,92.9,31,92.1,29.08Z"/>
        </g>
        <g>
          <g>
            <path class="cls-6" d="M128.5,125.08a6,6,0,0,0,1.51,4.08,1.09,1.09,0,0,0,.41.23,1.07,1.07,0,0,0,.45,0c2.85-1.12,5.9-4.38,7.9-8.8,2.24-5,2.49-10,.91-12.73-.05-.08-.08-.13-.16-.16s-.8-.22-2.9.83l-.06,0c-.25-.16-.49-.33-.74-.48a9.83,9.83,0,0,1,2.68-1.61h0l.22-.07h0a4.27,4.27,0,0,1,3.15,0c3.48,1.57,3.71,8.58.52,15.64s-8.59,11.53-12.07,10a4.48,4.48,0,0,1-1.7-1.64,9.61,9.61,0,0,1-1.06-5.24Z"/>
            <path d="M131.84,132.54a3.83,3.83,0,0,1-1.62-.34,4.48,4.48,0,0,1-1.81-1.74v0a9.76,9.76,0,0,1-1.09-5.37v-.25h1.42l0,.25a5.75,5.75,0,0,0,1.42,3.88.82.82,0,0,0,.3.19h0a1.23,1.23,0,0,0,.26,0c2.88-1.14,5.85-4.46,7.75-8.67,2.13-4.72,2.5-9.74.92-12.49a.13.13,0,0,0,0,0,.44.44,0,0,0-.2,0,6.28,6.28,0,0,0-2.49.85.05.05,0,0,1,0,0l-.15.08-.12-.08-.31-.21-.43-.27-.32-.19.29-.24a11.23,11.23,0,0,1,2.18-1.4l0,0,.61-.23.23-.09a4.56,4.56,0,0,1,3.36,0c1.77.81,2.81,2.93,2.91,6a23.11,23.11,0,0,1-2.26,10C139.88,128.25,135.43,132.54,131.84,132.54Zm-3-2.35a4,4,0,0,0,1.58,1.53,3.28,3.28,0,0,0,1.4.29c3.34,0,7.68-4.25,10.32-10.11,3.13-6.93,3-13.79-.39-15.3a4,4,0,0,0-3,0h0l-.19.07a9.65,9.65,0,0,0-2.32,1.34.57.57,0,0,0,.13.08l.18.12a6.84,6.84,0,0,1,2.64-.86,1,1,0,0,1,.41.07.55.55,0,0,1,.27.25c1.69,3,1.34,8-.89,13-2,4.33-5,7.75-8,8.94a1.63,1.63,0,0,1-.45.07l-.16,0a1.37,1.37,0,0,1-.51-.29,6,6,0,0,1-1.6-4h-.42A9.1,9.1,0,0,0,128.86,130.19Z"/>
          </g>
          <path class="cls-7" d="M131.84,131c2.46,0,6.58-3.33,9.36-9.5,3.09-6.83,2.55-12.81.14-13.9a2.53,2.53,0,0,0-.36-.12c1.67,3.25,1.28,8.56-1,13.65-2.1,4.64-5.32,8.19-8.61,9.49a2.4,2.4,0,0,1-.59.13l.1,0a2.22,2.22,0,0,0,1,.2Z"/>
          <g>
            <path class="cls-6" d="M122.41,124.07a4.56,4.56,0,0,0,1.28,2.45,1,1,0,0,0,.41.24,1.1,1.1,0,0,0,.45,0c2.85-1.12,5.9-4.38,7.89-8.81,2.25-5,2.5-10,.92-12.73a.29.29,0,0,0-.16-.15c-.15-.07-.8-.23-2.91.82l0,0-.75-.48a10,10,0,0,1,2.69-1.61h0l.23-.08h0a4.25,4.25,0,0,1,3.16,0c3.47,1.57,3.71,8.57.52,15.64s-8.59,11.53-12.07,10a4.48,4.48,0,0,1-1.7-1.64,8.84,8.84,0,0,1-1-3.62Z"/>
            <path d="M125.52,129.91a4,4,0,0,1-1.62-.34,4.55,4.55,0,0,1-1.81-1.74v0a9.13,9.13,0,0,1-1.07-3.72l0-.28h1.63l0,.2a4.34,4.34,0,0,0,1.19,2.31c.18.14.26.18.29.18h0a1.23,1.23,0,0,0,.26,0c2.88-1.13,5.85-4.45,7.74-8.66,2.13-4.72,2.51-9.74.93-12.5,0,0,0,0,0,0a.51.51,0,0,0-.21,0,6.26,6.26,0,0,0-2.48.85l-.19.09-.12-.08-.32-.2-.42-.27-.32-.19.29-.24a10.59,10.59,0,0,1,2.25-1.44l0,0,.52-.2.23-.08.1,0h0a4.44,4.44,0,0,1,3.24.07c1.78.8,2.82,2.93,2.92,6a23.32,23.32,0,0,1-2.26,10C133.55,125.62,129.11,129.91,125.52,129.91Zm-3-2.36a3.94,3.94,0,0,0,1.58,1.54,3.44,3.44,0,0,0,1.4.29c3.34,0,7.68-4.26,10.32-10.12,3.13-6.92,2.95-13.78-.39-15.29a4,4,0,0,0-3,0h0s0,0,0,0l-.17.06a9.33,9.33,0,0,0-2.32,1.34l.12.08.19.12a6.74,6.74,0,0,1,2.63-.87,1.22,1.22,0,0,1,.42.07.57.57,0,0,1,.27.26c1.69,2.95,1.33,8-.89,13-2,4.33-5,7.76-8,8.94a1.33,1.33,0,0,1-.45.07H124a1.3,1.3,0,0,1-.51-.29,4.59,4.59,0,0,1-1.32-2.39h-.65A8.5,8.5,0,0,0,122.54,127.55Z"/>
          </g>
          <path class="cls-7" d="M125.52,128.33c2.46,0,6.58-3.33,9.36-9.5,3.09-6.84,2.55-12.81.13-13.9a3,3,0,0,0-.36-.13c1.68,3.26,1.29,8.57-1,13.66-2.09,4.64-5.31,8.18-8.61,9.48a2,2,0,0,1-.59.13l.11.06a2.37,2.37,0,0,0,1,.2Z"/>
          <g>
            <path class="cls-6" d="M122.31,99.71a.18.18,0,0,1,.08.13Z"/>
            <path d="M122.66,100.79l-1.3-2.13,1.11.84a.42.42,0,0,1,.18.34Zm-.44-1h-.09a.12.12,0,0,0,0,.08Z"/>
          </g>
          <g>
            <path class="cls-6" d="M117.17,121.22a4.8,4.8,0,0,0,1.34,2.76.78.78,0,0,0,.86.19c2.84-1.12,5.9-4.38,7.89-8.8,2.25-5,2.5-10,.92-12.73-.05-.08-.08-.13-.16-.16s-.8-.22-2.91.83l0,0c-.25-.15-.49-.32-.75-.47a10,10,0,0,1,2.69-1.61h0l.22-.08h0a4.27,4.27,0,0,1,3.15,0c3.48,1.57,3.72,8.58.53,15.64s-8.59,11.53-12.07,10a4.41,4.41,0,0,1-1.7-1.64,9,9,0,0,1-1.06-3.92Z"/>
            <path d="M120.34,127.36a3.83,3.83,0,0,1-1.62-.34,4.48,4.48,0,0,1-1.81-1.74v0a9.11,9.11,0,0,1-1.09-4l0-.27h1.59l0,.21a4.61,4.61,0,0,0,1.26,2.6.94.94,0,0,0,.29.19h0a1.25,1.25,0,0,0,.27,0c2.88-1.14,5.84-4.46,7.74-8.67,2.13-4.72,2.5-9.74.93-12.49l0,0a.51.51,0,0,0-.21,0,6.26,6.26,0,0,0-2.48.85l-.19.1-.12-.08-.32-.21-.42-.27-.32-.19.29-.24a10.87,10.87,0,0,1,2.38-1.5h0l.38-.14.23-.09a4.53,4.53,0,0,1,3.35,0c1.78.81,2.82,2.93,2.92,6a23.26,23.26,0,0,1-2.26,10C128.37,123.07,123.93,127.36,120.34,127.36Zm-3-2.35a4,4,0,0,0,1.58,1.53,3.28,3.28,0,0,0,1.4.29c3.34,0,7.68-4.25,10.32-10.12,3.12-6.92,3-13.78-.39-15.29a4,4,0,0,0-3,0l-.22.08a9.65,9.65,0,0,0-2.32,1.34l.12.08.19.12a6.92,6.92,0,0,1,2.63-.87,1,1,0,0,1,.42.08.55.55,0,0,1,.27.25c1.69,3,1.33,8.05-.9,13-2,4.33-5,7.75-8,8.94a1.64,1.64,0,0,1-.46.07h0l-.15,0a1.3,1.3,0,0,1-.51-.29,4.88,4.88,0,0,1-1.4-2.7h-.6A8.51,8.51,0,0,0,117.36,125Z"/>
          </g>
          <path class="cls-7" d="M120.34,125.78c2.46,0,6.58-3.33,9.36-9.5,3.08-6.83,2.55-12.81.13-13.9a1.9,1.9,0,0,0-.36-.12c1.67,3.25,1.29,8.56-1,13.65-2.09,4.64-5.31,8.19-8.61,9.49a2.4,2.4,0,0,1-.59.13l.11,0a2.37,2.37,0,0,0,1,.2Z"/>
          <g>
            <path class="cls-6" d="M110.42,116.27c.23.12.53.26.84.4,0,2.06.67,3.84,1.54,4.54a1.15,1.15,0,0,0,.41.24,1.57,1.57,0,0,0,.45,0c2.85-1.12,5.9-4.38,7.9-8.81,2.24-5,2.49-10,.91-12.73a.48.48,0,0,0-.19-.16c-.08,0-.77-.22-2.87.83l-.06,0c-.25-.16-.49-.33-.74-.48a9.83,9.83,0,0,1,2.68-1.61h0l.22-.08h0a4.17,4.17,0,0,1,3.15,0c3.48,1.57,3.71,8.57.52,15.64s-8.59,11.53-12.07,10a4.43,4.43,0,0,1-1.7-1.65A10.13,10.13,0,0,1,110.42,116.27Z"/>
            <path d="M114.63,124.59a4,4,0,0,1-1.62-.33,4.55,4.55,0,0,1-1.81-1.74v0a10.38,10.38,0,0,1-1-6.25l0-.39.35.18.72.34.26.13v.16c0,1.94.62,3.68,1.44,4.33a.94.94,0,0,0,.29.19h0a1.23,1.23,0,0,0,.26,0c2.88-1.13,5.85-4.45,7.75-8.66,2.13-4.72,2.5-9.75.92-12.5,0,0,0,0-.07-.06H122a6.18,6.18,0,0,0-2.51.85l-.19.09-.12-.08-.31-.2c-.14-.09-.28-.19-.43-.27l-.32-.2.29-.23a10.17,10.17,0,0,1,2.38-1.5h0l.38-.15.23-.08a4.51,4.51,0,0,1,3.36,0c1.78.8,2.81,2.92,2.91,6a23.17,23.17,0,0,1-2.26,10C122.67,120.31,118.22,124.59,114.63,124.59Zm-3-2.35a4.15,4.15,0,0,0,1.58,1.54,3.44,3.44,0,0,0,1.4.29c3.34,0,7.68-4.26,10.32-10.12a22.69,22.69,0,0,0,2.22-9.77c-.1-2.85-1-4.81-2.61-5.52a4,4,0,0,0-3,0l-.08,0-.14.06a9,9,0,0,0-2.32,1.34l.13.08.18.12a6.55,6.55,0,0,1,2.66-.86.85.85,0,0,1,.38.07.77.77,0,0,1,.28.24c1.69,3,1.34,8-.89,13-2,4.33-5,7.76-8,8.94a1.63,1.63,0,0,1-.45.07h-.16a1.37,1.37,0,0,1-.51-.29c-.93-.75-1.56-2.53-1.63-4.58l-.36-.16A9.57,9.57,0,0,0,111.65,122.24Z"/>
          </g>
          <path class="cls-7" d="M114.63,123c2.46,0,6.58-3.33,9.36-9.49,3.09-6.84,2.55-12.81.14-13.9a2.6,2.6,0,0,0-.36-.13c1.67,3.25,1.28,8.56-1,13.65-2.1,4.65-5.31,8.19-8.62,9.49a2.22,2.22,0,0,1-.58.13l.1,0a2.22,2.22,0,0,0,1,.2Z"/>
        </g>
      </g>
    </g>
  </g>
</svg>
