<svg xmlns="http://www.w3.org/2000/svg" xmlns:xlink="http://www.w3.org/1999/xlink" width="233" height="234" viewBox="0 0 233 234">
  <defs>
    <style>
      .cls-1 {
        fill: none;
      }

      .cls-2 {
        isolation: isolate;
      }

      .cls-11, .cls-3, .cls-31 {
        opacity: 0.5;
      }

      .cls-4 {
        clip-path: url(#clip-path);
      }

      .cls-5 {
        clip-path: url(#clip-path-2);
      }

      .cls-6 {
        fill: url(#linear-gradient);
      }

      .cls-7 {
        fill: url(#linear-gradient-2);
      }

      .cls-8 {
        opacity: 0.3;
      }

      .cls-9 {
        fill: #90c856;
      }

      .cls-11, .cls-12, .cls-31, .cls-34, .cls-35, .cls-37, .cls-39, .cls-40, .cls-42, .cls-44, .cls-46, .cls-48, .cls-50, .cls-52, .cls-56, .cls-57, .cls-9 {
        mix-blend-mode: multiply;
      }

      .cls-10 {
        fill: #258f45;
      }

      .cls-11, .cls-12 {
        fill: #60833a;
      }

      .cls-12, .cls-33 {
        opacity: 0.18;
      }

      .cls-13 {
        fill: url(#linear-gradient-3);
      }

      .cls-14 {
        fill: url(#linear-gradient-4);
      }

      .cls-15 {
        fill: url(#linear-gradient-5);
      }

      .cls-16 {
        fill: url(#linear-gradient-6);
      }

      .cls-17 {
        fill: url(#linear-gradient-7);
      }

      .cls-18 {
        fill: url(#linear-gradient-8);
      }

      .cls-19 {
        fill: url(#linear-gradient-9);
      }

      .cls-20 {
        fill: url(#linear-gradient-10);
      }

      .cls-21 {
        fill: url(#linear-gradient-11);
      }

      .cls-22 {
        fill: url(#linear-gradient-12);
      }

      .cls-23 {
        fill: #1b542a;
      }

      .cls-24 {
        fill: #fde4d6;
      }

      .cls-25, .cls-33, .cls-49, .cls-51 {
        fill: #fff;
      }

      .cls-26 {
        fill: #2e7138;
      }

      .cls-27 {
        fill: #e5be53;
      }

      .cls-28 {
        fill: #e2a550;
      }

      .cls-29 {
        fill: #f2ad1c;
      }

      .cls-29, .cls-36 {
        stroke: #e77f24;
      }

      .cls-29, .cls-36, .cls-41, .cls-45, .cls-53 {
        stroke-width: 0.15px;
      }

      .cls-30 {
        fill: #ed9b21;
      }

      .cls-32, .cls-35, .cls-38, .cls-40, .cls-47, .cls-52 {
        fill: #facc0b;
      }

      .cls-33, .cls-49, .cls-51, .cls-55 {
        mix-blend-mode: overlay;
      }

      .cls-34 {
        opacity: 0.67;
      }

      .cls-35, .cls-48, .cls-56 {
        opacity: 0.29;
      }

      .cls-36 {
        fill: #f5b719;
      }

      .cls-37 {
        opacity: 0.4;
      }

      .cls-38 {
        opacity: 0.74;
      }

      .cls-39 {
        opacity: 0.48;
      }

      .cls-40, .cls-57 {
        opacity: 0.53;
      }

      .cls-41 {
        fill: #62a444;
        stroke: #567a42;
      }

      .cls-41, .cls-45 {
        stroke-linecap: round;
        stroke-linejoin: round;
      }

      .cls-42 {
        opacity: 0.28;
      }

      .cls-43 {
        fill: #009b5d;
      }

      .cls-44 {
        opacity: 0.66;
      }

      .cls-45, .cls-46 {
        fill: #fddf19;
      }

      .cls-45 {
        stroke: #f1961f;
      }

      .cls-47 {
        opacity: 0.69;
      }

      .cls-49 {
        opacity: 0.21;
      }

      .cls-50 {
        opacity: 0.37;
      }

      .cls-51 {
        opacity: 0.26;
      }

      .cls-52 {
        opacity: 0.47;
      }

      .cls-53 {
        fill: #d64d15;
        stroke: #b23819;
      }

      .cls-54, .cls-56, .cls-57 {
        fill: #b23819;
      }

      .cls-55 {
        fill: #fbc549;
        opacity: 0.58;
      }

      .cls-58 {
        fill: #226031;
      }

      .cls-59 {
        fill: url(#linear-gradient-13);
      }

      .cls-60 {
        fill: url(#linear-gradient-14);
      }

      .cls-61 {
        fill: url(#linear-gradient-15);
      }

      .cls-62 {
        fill: #52332c;
      }

      .cls-63 {
        fill: #733e2f;
      }

      .cls-64 {
        fill: #613e34;
      }

      .cls-65 {
        fill: #733826;
      }

      .cls-66 {
        fill: #a15536;
      }

      .cls-67 {
        fill: #a85938;
      }

      .cls-68 {
        fill: #8f4b2f;
      }
    </style>
    <clipPath id="clip-path">
      <rect class="cls-1" x="6.85" y="6.72" width="214.78" height="214.78" rx="26.14"/>
    </clipPath>
    <clipPath id="clip-path-2">
      <rect class="cls-1" x="2.34" y="4.96" width="222.64" height="220.09"/>
    </clipPath>
    <linearGradient id="linear-gradient" x1="-37.66" y1="378.88" x2="189.47" y2="-18.69" gradientUnits="userSpaceOnUse">
      <stop offset="0.2" stop-color="#c9e9f2"/>
      <stop offset="0.33" stop-color="#b8e4f3"/>
      <stop offset="0.66" stop-color="#93d9f5"/>
      <stop offset="0.83" stop-color="#85d5f6"/>
    </linearGradient>
    <linearGradient id="linear-gradient-2" x1="-204.76" y1="183.09" x2="349.4" y2="183.09" gradientUnits="userSpaceOnUse">
      <stop offset="0.39" stop-color="#62bb54"/>
      <stop offset="0.49" stop-color="#68bd53"/>
      <stop offset="0.62" stop-color="#7ac14e"/>
      <stop offset="0.73" stop-color="#90c749"/>
    </linearGradient>
    <linearGradient id="linear-gradient-3" x1="33" y1="230.21" x2="47.06" y2="230.21" gradientUnits="userSpaceOnUse">
      <stop offset="0" stop-color="#0c512e"/>
      <stop offset="0.54" stop-color="#0c512e"/>
      <stop offset="0.77" stop-color="#0c512e"/>
    </linearGradient>
    <linearGradient id="linear-gradient-4" x1="8.35" y1="228.96" x2="48.51" y2="228.96" xlink:href="#linear-gradient-3"/>
    <linearGradient id="linear-gradient-5" x1="45.19" y1="232.9" x2="60.44" y2="232.9" xlink:href="#linear-gradient-3"/>
    <linearGradient id="linear-gradient-6" x1="15.6" y1="230.12" x2="57.88" y2="230.12" xlink:href="#linear-gradient-3"/>
    <linearGradient id="linear-gradient-7" x1="49.55" y1="230.51" x2="59.52" y2="230.51" xlink:href="#linear-gradient-3"/>
    <linearGradient id="linear-gradient-8" x1="63.02" y1="230.16" x2="78.98" y2="230.16" xlink:href="#linear-gradient-3"/>
    <linearGradient id="linear-gradient-9" x1="62.62" y1="231.21" x2="91.18" y2="231.21" xlink:href="#linear-gradient-3"/>
    <linearGradient id="linear-gradient-10" x1="35.58" y1="229.34" x2="57.88" y2="229.34" xlink:href="#linear-gradient-3"/>
    <linearGradient id="linear-gradient-11" x1="55.57" y1="229.31" x2="66.73" y2="229.31" xlink:href="#linear-gradient-3"/>
    <linearGradient id="linear-gradient-12" x1="53.71" y1="239.88" x2="119.69" y2="239.88" xlink:href="#linear-gradient-3"/>
    <linearGradient id="linear-gradient-13" x1="59.59" y1="219.15" x2="75.21" y2="219.15" xlink:href="#linear-gradient-3"/>
    <linearGradient id="linear-gradient-14" x1="56.47" y1="214.64" x2="73.53" y2="214.64" xlink:href="#linear-gradient-3"/>
    <linearGradient id="linear-gradient-15" x1="41.81" y1="217.89" x2="56.35" y2="217.89" xlink:href="#linear-gradient-3"/>
  </defs>
  <g class="cls-2">
    <g id="Layer_1" data-name="Layer 1">
      <g>
        <path class="cls-3" d="M192.38,6.06H41.6A36.71,36.71,0,0,0,4.93,42.73V193.51a40.26,40.26,0,0,0,40.21,40.21H192.38a40.26,40.26,0,0,0,40.21-40.21V46.27A40.26,40.26,0,0,0,192.38,6.06Zm33.71,187.45a33.71,33.71,0,0,1-33.71,33.71H45.14a33.71,33.71,0,0,1-33.71-33.71V45.16A32.61,32.61,0,0,1,44,12.56H192.38a33.71,33.71,0,0,1,33.71,33.71Z"/>
        <g class="cls-4">
          <g class="cls-5">
            <g>
              <rect class="cls-6" x="3.36" y="2.66" width="221.36" height="221.36"/>
              <path class="cls-7" d="M-204.76,116.92s235.39-5.4,313.2-5.4c64.8,0,132.84-13,132.84-13L349.4,267.61H-197Z"/>
              <g class="cls-8">
                <path class="cls-9" d="M-218.54,288.46H372.77c-2.88-6.63-5.78-14-6.89-19.08-2.63-12-3.87-25-5.11-37.24a96.59,96.59,0,0,1-.47-11.41c.12-7.89,1.15-15.81.34-23.67-1.09-10.5-1.84-21-2.35-31.57-.22-4.45-.38-8.89-.52-13.34-152.43-1.82-264.2-2.81-271.84-1.76-3.72,1-7.48,1.93-11.29,2.85a418.13,418.13,0,0,1-49.11,9c-36.48,4.46-76.9,4.51-112.19,10.14,21.38,1.15,43.25.59,64.68-.09,15-.48,30-.8,44.92-1.26,11.61-.37,23.25-.77,34.91-.81,8.62,0,20.78-.23,28.18,1.6,5.91,1.47,3.83,3.77-.1,5.46-6.36,2.73-15.74,4.7-24.62,6.36-11.82,2.22-24.36,4-37.19,5.48C12,190.48-.72,191.59-13.55,191.91c-8.48.2-18.75.21-25.84-1.63-.39-.11-.48-.26-.14-.39,7.9-3.17,23.09-3.17,29.84-6.67-16.66-2.28-36.54-1-53.82-.47-21.72.71-43.59,1.65-65.41,1.88-31.24.33-62.12-1.55-93.12-2.73C-220.75,217.42-219.4,252.94-218.54,288.46Z"/>
              </g>
              <path class="cls-10" d="M-178.21,174.32c-6.09,1-12.4,1.79-18.57,2.56-8.42,1.05-16.87,1.84-25.35,2.44,1,29.23,2.16,58.46,3,87.7l585.45,4.16q-.25-.94-.45-1.8c-2.63-12-3.87-25-5.11-37.24a96.59,96.59,0,0,1-.47-11.41c.12-7.89,1.15-15.81.34-23.67-1.09-10.5-1.84-21-2.35-31.57-.34-7-.57-13.94-.73-20.91-82-.59-160.2-1.14-230-1.6l-11.89-.08c-164-1.07-278.62-1.64-280.65-1.05-7,2-14.64,4.06-20.57,7.35-1.36.75-3.59,2-3.39,3.32.35,2.4,5,4.18,7.59,5.36,5.52,2.49,15.43,6.11,12.76,11.65C-170,172.37-174.19,173.63-178.21,174.32Z"/>
              <path class="cls-11" d="M43.79,146.35c-.88-.83-6.18-.49-7.9-.43-.72,0-2.38,0-3.77.13l-1.17.06c-.74,0-3.12.46-1.85.87a21.6,21.6,0,0,0,5.47.46c1.86,0,3.73-.07,5.54-.21a16.32,16.32,0,0,0,3.22-.42C43.68,146.69,44,146.54,43.79,146.35Z"/>
              <path class="cls-12" d="M-.93,140.34s-148,17.82-104.36,26.42S17.92,178,57.15,180.07s142.31-2.15,136.71-2.86-44.78-6.57-74.49-4.21-135.86,1-157.29-6.24-8.24-14,27.17-14,154,3.9,142.34,3.63-27.39-5.13-74.44-7.79S-.93,140.34-.93,140.34Z"/>
              <g>
                <path class="cls-13" d="M42.84,259.54C38.16,261,32,214.83,33.16,200.85,41,220.11,53.73,256.13,42.84,259.54Z"/>
                <path class="cls-14" d="M47.68,262.34c0-.93-36.31-63.35-39.33-66.77,10.89,9.94,46,58.38,39.33,65.84Z"/>
                <path class="cls-15" d="M57.36,267.94c-6.66,3.32-16.94-67.66-9.68-70.19C54.94,227.06,65.83,263.71,57.36,267.94Z"/>
                <path class="cls-16" d="M51.91,269.17s-37-75.19-36.3-80.74c8.69,7.47,47.19,82.29,41.75,83.22S51.91,269.17,51.91,269.17Z"/>
                <path class="cls-17" d="M57.07,261.39c5.08,1.27,1.2-47.88-2.13-61.78C49.63,219.15,45.24,258.42,57.07,261.39Z"/>
                <path class="cls-18" d="M66.32,264.88C66,264,77.34,199.09,79,195.43,72.16,206.29,56.55,257.34,66,264Z"/>
                <path class="cls-19" d="M62.84,265.62c10.57,1.75,29-57.84,28.33-68.86C78.09,213.65,60.4,265.21,62.84,265.62Z"/>
                <path class="cls-20" d="M56.07,267.68c7.94,2.91-12.3-74.77-20.49-76.76C41,223.31,46,264,56.07,267.68Z"/>
                <path class="cls-21" d="M61.8,269.21s7.08-77.45,4.27-82.83c-5.62,8.2-14.34,85.47-8.65,85.82S61.8,269.21,61.8,269.21Z"/>
                <path class="cls-22" d="M53.71,274.89c1.07,0,4.86,0,5.92,0,10.69-8.4,44.74-47.66,60.06-70C87.84,225,56.83,263.76,53.71,274.89Z"/>
              </g>
              <g>
                <path class="cls-23" d="M155.26,246.18h1.58c.5-10.31.29-20.64,0-31,0-.66-1-1.09-1-.27C156.11,225.37,155.8,235.78,155.26,246.18Z"/>
                <g>
                  <g>
                    <path class="cls-24" d="M154.39,191.27a16.07,16.07,0,0,0,1,4.21c.38,1.21,1.06,2.76,2.11,3.13a.23.23,0,0,0,.14.19,3.86,3.86,0,0,0,2.35-.36,17.46,17.46,0,0,0,3-1,9.19,9.19,0,0,0,4.21-4.15c.34-.75.33-2-.67-1.89s-1.23-.14-2,.27a4.1,4.1,0,0,0-.52-2.35c-.68-.87-1.88-.81-2.8-1.35-.5-.31-1,.58-1.57.37s-1.09-1.21-1.66-1.12-1.16.56-1.91.48c-.27,0-1.36,0-1.59.24C153.85,188.62,154.36,190.41,154.39,191.27Z"/>
                    <path class="cls-24" d="M140.64,195.63a2.15,2.15,0,0,0,1.17,1.65c2.19,1.43,4.94,1.71,7.41,1.95,1.5.14,5.78,1.27,5.48-2a16.38,16.38,0,0,0-1.07-3.74,28.08,28.08,0,0,0-1.4-3.65c-.44-1.24-1.17-2.79-1.75-1.77-.84-.67-2-1.45-2.92-.75a1.74,1.74,0,0,0-.67,1.88c0,.17.66,2-.27,1.48a2.73,2.73,0,0,0-.81-.38c-.45-.07-1.36-.29-1.63.33a1.8,1.8,0,0,0-.2.87c0,.25.13,1.23-.33,1.19l-.7-.12c-.49-.09-1.16.1-1.16.79a3,3,0,0,0,.61,1.47C141.8,195,140.63,194.83,140.64,195.63Z"/>
                    <path class="cls-25" d="M155.81,190.55c.12-.85,1.15-.23,1.24.35.19,1.22.31,2.48.56,3.69,0,.14.09.49.15.87.17-1.08.45-2.16.62-3.18,0-.3.41,0,.37.22a13.15,13.15,0,0,0,0,3.54,52,52,0,0,1,2.16-4.88c.25-.56,1,.21.74.71l-1.18,2.73a15.18,15.18,0,0,0,1.27-1.76c.38-.61,1.21.28.9.84a23.75,23.75,0,0,1-1.69,2.46l.08,0a9.45,9.45,0,0,0,2.48-1.66c.39-.36,1,.5.6.88a10.09,10.09,0,0,1-2.11,1.61,6.81,6.81,0,0,1-2.4,1.07l-.23.27a.41.41,0,0,1-.52,0h0a.47.47,0,0,1-.5.17.53.53,0,0,1-.18,0,.36.36,0,0,1-.52-.11A10.85,10.85,0,0,1,155.81,190.55Z"/>
                    <path class="cls-25" d="M146,196.59a29.36,29.36,0,0,0,4.36.91,19.91,19.91,0,0,1-4-3.52c-.22-.26-.06-.72.26-.46a43.39,43.39,0,0,0,3.7,2.48,12.06,12.06,0,0,0,2.36,1,11.8,11.8,0,0,0-1.25-1.39c-1-1-2.43-1.47-3.32-2.61-.17-.22-.18-.79.19-.76,1.16.08,2.26,1.18,3.22,1.9a9.16,9.16,0,0,1,1.19,1.14,12.83,12.83,0,0,0-1.06-2c-.38-.57-.85-2.29-1.54-2.4-.14,0-.29-.4-.09-.45.8-.19,1.61,1.39,2,2a16.23,16.23,0,0,1,2.82,5.41.58.58,0,0,1-.53.78.32.32,0,0,1-.38.24l-.26,0a.3.3,0,0,1-.23.06A31.61,31.61,0,0,1,146,197C145.84,196.93,145.77,196.53,146,196.59Z"/>
                    <path class="cls-26" d="M150.66,204.62a3.38,3.38,0,0,0,.24.74c-.11,0-.22,0-.22.2v.23a.32.32,0,0,0,0,.14c0,.2,0,.39,0,.57,0,1.34.28,2.68.45,4a13.51,13.51,0,0,0,.86,4c.79,1.68,2.08,3,3.72,2.91s4.16-.55,4.54-3.11c.4-2.72.1-5.48.57-8.18l.15-.27c.05.05.12.05.14-.05s.06-.25.1-.37-.16-.47-.29-.31l-.06.07s0,0-.05,0a.14.14,0,0,0,0,.06,7.89,7.89,0,0,0-1.18,2c-.11-.57-.24-1.15-.38-1.72-.07-.28-.34-.53-.53-.25a4.26,4.26,0,0,0-.51,1.72c-.06.42.05,1.1-.24.63a9.71,9.71,0,0,1-.53-1,7.57,7.57,0,0,0-1.89-2.77c-.17-.14-.38,0-.39.29a10,10,0,0,0,.37,2.33,10.49,10.49,0,0,1,.1,1.85,19.28,19.28,0,0,1-1.9-3.09c-.17-.39-.65-.43-.59.14a10.88,10.88,0,0,0,.45,2c-.84-1-1.54-2.21-2.42-3.12C150.92,204.05,150.59,204.22,150.66,204.62Z"/>
                    <path class="cls-27" d="M153,202a5.16,5.16,0,0,0,4.08,1.17,4.47,4.47,0,0,0,3.08-1.22,3.71,3.71,0,0,0,.4-.3,2.63,2.63,0,0,0,.34-3.12,7.51,7.51,0,0,0-1.39-2,3.08,3.08,0,0,0-2.21-.74c-.86,0-1.6-.57-2.44-.18a3.07,3.07,0,0,1-1.2.38,2.23,2.23,0,0,0-.85.07C150.42,197.13,151.26,200.55,153,202Z"/>
                    <path class="cls-24" d="M159.74,201.68a5.22,5.22,0,0,0,2.6,4.09c1.48.95,3.32,1.95,5.07,1.81,1-.08,1.28-.73,1-1.55a9.08,9.08,0,0,0,1.64.14,2.87,2.87,0,0,0,1.33-.17c.68-.39.52-1.13.31-1.85-.16-.55-.93-1.43-.28-1.9.28-.21.64-.33.83-.66.3-.51-.55-1.33-1-1.76a1.52,1.52,0,0,0,.35-1.86c-.39-.82-1.51-.9-2.21-.86a23.66,23.66,0,0,0-4,.34,16,16,0,0,0-1.81.45,4.06,4.06,0,0,1-1.76.42c-.11,0-.08.14,0,.21A2.85,2.85,0,0,0,159.74,201.68Z"/>
                    <path class="cls-24" d="M152.14,212.76c.72.65,1.53-.4,2.14-.69.91-.42,1.55.94,2.34.58a1.55,1.55,0,0,0,.72-.69c.1-.2.19-.41.29-.62.32-.59.88-.14,1.1.29s.71,1.29,1.38,1c.4-.16.67-.59,1.06-.73.8-.29,1.17.24,1.88.31a.8.8,0,0,0,1-.64c.36-1.43-1.17-3.69-1.75-4.77a12.2,12.2,0,0,0-2.15-3,10.85,10.85,0,0,0-1.31-1.23c-1.19-1.06-2.76-1.88-4-1.13a7.13,7.13,0,0,0-3,5.2C151.52,208.51,150.65,211.36,152.14,212.76Z"/>
                    <path class="cls-24" d="M141.66,201.55a3.83,3.83,0,0,0,.78,1.14c.54.51,0,1.08-.23,1.66-.85,2.27.88,2.62,2,2.5.34,0,1.76-.32,1.67.57a5.65,5.65,0,0,0-.1,1.48c.17.78.56,1.21,1.15,1.14.39,0,.74-.43,1.11-.63.64-.34.31.75.31,1.24s.21,1.6.74,1.58c.83,0,1.21-1.48,1.49-2.42.47-1.62,1.06-3.18,1.44-4.84.26-1.16,1.07-2.55.89-3.8a1.57,1.57,0,0,0-1.31-1.33l-.36-.06a7.77,7.77,0,0,0-1.51-.38,21.39,21.39,0,0,0-2.26-.41c-1.2-.17-2.42-.12-3.6-.38-.59-.12-1.5-.36-2,.41A2.47,2.47,0,0,0,141.66,201.55Z"/>
                    <path class="cls-25" d="M145.13,199.76c2.17.64,4.53-.08,6.75.23.33,0,.56.54.54.92a.7.7,0,0,1,.4.5,4.43,4.43,0,0,1-.3,2.36,13.58,13.58,0,0,0-.52,1.48c-.06.25-.27.45-.34.68s-.47.06-.49-.2,0-.42,0-.6a10.52,10.52,0,0,1-1.78,2.65c-.26.32-.64-.26-.58-.55a19.62,19.62,0,0,1,1.44-3.48c.14-.37.26-.8.39-1.21a24.81,24.81,0,0,0-3.31,3c-.17.2-.47-.24-.3-.44a15.11,15.11,0,0,1,2.37-2.59.15.15,0,0,0,.06,0l-1.44.18a11.08,11.08,0,0,0-1.81.12c-.25.07-.51-.43-.23-.54a10,10,0,0,0,1.64-.89l.16-.08a9.19,9.19,0,0,1-2.65-.49C144.7,200.58,144.55,199.59,145.13,199.76Z"/>
                    <path class="cls-25" d="M153.4,204.65c-.17.13-.44-.17-.31-.37.38-.61,2-2.89,3.21-3,.2-.11.51.05.67.31a.55.55,0,0,1,.09.14h0c.9,0,1.83,1.13,2.45,1.74a17.08,17.08,0,0,1,1.53,1.65,10.82,10.82,0,0,1,.89,1.92c0,.1-.06.19-.13.12a8.25,8.25,0,0,1-.72-1,14.86,14.86,0,0,0-1.5-1.57c-.39-.38-.81-.75-1.21-1.09a3.85,3.85,0,0,0-.34-.26c.23.38.46.78.69,1.1a16,16,0,0,1,1.94,3.2c.1.24-.18.4-.3.18a30.3,30.3,0,0,0-3.08-4.25,9.61,9.61,0,0,0,.05,1,10.92,10.92,0,0,0,1.32,4.38c.23.31-.06.73-.35.46a7.7,7.7,0,0,1-1.52-3.44c-.16-.57-.33-1.2-.46-1.84a7.47,7.47,0,0,0-.46,1.67,15.08,15.08,0,0,0-.23,3.91c.08.47-.37.58-.59.24-.63-.93-.54-2.63-.53-3.74a6.88,6.88,0,0,1,.19-1.64c-.08.12-.16.23-.24.37a6.13,6.13,0,0,0-.63,1.69c-.1.47-.39,1.05-.45,1.51,0,.27-.33.1-.39,0-.43-1,.07-2.41.48-3.38A.24.24,0,0,1,153.4,204.65Z"/>
                    <path class="cls-25" d="M160.49,201.54a3,3,0,0,1,.84-2.08,4.2,4.2,0,0,1,2.39-1c.53-.11,1-.26,1.58-.34s1,.33,1.46.14a.09.09,0,0,1,.1.12.8.8,0,0,1-.49.54h0a2.66,2.66,0,0,1,.28,0c.48,0,.93,1.05.37,1.17-.78.17-1.56.3-2.33.43.57.14,1.14.3,1.71.43.19,0,.31.51.05.5-1.11-.08-2.56-.53-3.65-.23a2.18,2.18,0,0,1-.71.1,2.64,2.64,0,0,0,.35.23c.71.38,1.47.61,2.17,1,.51.26.39,1.24-.21,1s-1.47-.59-2.19-.93a5.28,5.28,0,0,1-.86-.47c0,.13,0,.25.07.39a6.83,6.83,0,0,0,1,1.1c.68.54,1.46,1.42,2.33,1.31.22,0,.36.43.1.48-.87.19-1.79-.48-2.51-1a5.63,5.63,0,0,1-2.08-2.31C160.1,201.73,160.27,201.52,160.49,201.54Z"/>
                  </g>
                  <path class="cls-28" d="M159.39,198c.48.07.59,1.06,0,1S158.81,198,159.39,198Z"/>
                  <path class="cls-28" d="M158.5,196.49c.61.09.76,1.37,0,1.26S157.74,196.37,158.5,196.49Z"/>
                  <path class="cls-28" d="M156.55,195.83c.36.06.44.8,0,.74S156.11,195.76,156.55,195.83Z"/>
                  <path class="cls-28" d="M154.81,195.54c.62.09.76,1.37,0,1.27S154.05,195.43,154.81,195.54Z"/>
                  <path class="cls-28" d="M152.56,196.28a.5.5,0,0,1,.48-.1.9.9,0,0,1,.55.81v.06a.5.5,0,0,1-.44.54h0C152.62,197.58,152.11,196.75,152.56,196.28Z"/>
                  <path class="cls-28" d="M155.61,198.61a.67.67,0,0,1,.32.15c-.08-.11-.05-.31.1-.28s.23.4,0,.37l0,0c.36.44.33,1.37-.38,1.27S154.71,198.48,155.61,198.61Z"/>
                  <path class="cls-28" d="M153,198.48c-.07-.46.12-.9.67-.83.74.12,1,1.54.25,1.69a.42.42,0,0,1-.5.29A.79.79,0,0,1,153,198.48Z"/>
                  <path class="cls-28" d="M157.91,199.55c.2,0,.24.44,0,.4S157.67,199.51,157.91,199.55Z"/>
                  <path class="cls-28" d="M157.28,197.48c.34.05.61.53.61.9a.51.51,0,0,1-.61.56c-.35-.05-.62-.53-.62-.9A.51.51,0,0,1,157.28,197.48Z"/>
                  <path class="cls-28" d="M159.2,200.45c.34.05.42.77,0,.71S158.76,200.39,159.2,200.45Z"/>
                  <path class="cls-28" d="M160.45,197.4c.51.08.64,1.14,0,1S159.83,197.32,160.45,197.4Z"/>
                  <path class="cls-28" d="M159.74,196.42c.19,0,.23.4,0,.37S159.53,196.39,159.74,196.42Z"/>
                  <path class="cls-28" d="M151.64,197.92c.73.1.9,1.61,0,1.48C150.92,199.3,150.75,197.79,151.64,197.92Z"/>
                  <path class="cls-28" d="M157.35,195l0,0a.87.87,0,0,1,.24.23.66.66,0,0,1,.11.24s0,0,0,0,0,0,0,.07a1.5,1.5,0,0,1,0,.3s0,0,0,0h0a.47.47,0,0,1-.13.25.31.31,0,0,1-.35.07.76.76,0,0,1-.59-.62C156.59,195.12,157,194.73,157.35,195Z"/>
                </g>
              </g>
              <g>
                <g>
                  <path class="cls-29" d="M112.27,179.4s5.26-4.28,6.64-4.91,3-2.57,1-4.43-7.16-.88-8.59,4.8S111.55,179.72,112.27,179.4Z"/>
                  <path class="cls-30" d="M111.41,179.07a.05.05,0,0,0,.06,0c1-3.69,4.6-7.08,4.58-7.1s-3.7,3.37-4.68,7.08a0,0,0,0,0,0,.06Z"/>
                  <g class="cls-31">
                    <path class="cls-32" d="M111.35,174.86a9,9,0,0,1,1.23-2.83,8.22,8.22,0,0,0-.74,3.36c.21,1.59.79.11,1,.75s2-.16,3.21-1a27.19,27.19,0,0,1,4.53-2.14,3.68,3.68,0,0,1-1.66,1.48c-1.38.63-6.64,4.91-6.64,4.91C111.55,179.72,109.92,180.54,111.35,174.86Z"/>
                  </g>
                  <path class="cls-33" d="M120.41,171.82c-.29,1-1.65,1.64-2.46,2.05-2.46,1.28-2.66,1.32-2,.7s-1.54,1.27-1.57.79,1.67-1.82,1.67-1.82-1.47,1.3-1.4.72a2.79,2.79,0,0,1,.65-1.28c.11-.11-.68,1-.85.8s.68-1.39.68-1.39-1.43,1.87-1.53,1.52.71-2,.27-1.31-.92,1.76-.85,1-.24-.45-.41-.32-.48-.92,2-2.89a4.55,4.55,0,0,1,3.26-1,3.2,3.2,0,0,1,2.41,1.39A1.54,1.54,0,0,1,120.41,171.82Z"/>
                </g>
                <g>
                  <path class="cls-29" d="M110.48,179.3s3.73-11.83-3.89-11.21c-2.24.52-2.91,4.08-.2,8.94C108.69,180.17,110.48,180.6,110.48,179.3Z"/>
                  <path class="cls-30" d="M109.07,179.92a.08.08,0,0,0,.08,0c.46-3.45-1.51-7.91-1.54-7.89s1.86,4.53,1.41,7.87c0,0,0,.06,0,.07Z"/>
                  <g class="cls-31">
                    <path class="cls-32" d="M108.09,175.26c1.57-1.32,1,2.44,2.5.24,1-1.46.51-4,.06-5.53,1.76,3.21-.17,9.33-.17,9.33,0,1.3-1.79.87-4.09-2.27a13.3,13.3,0,0,1-1.74-5C105.34,174.22,107,176.16,108.09,175.26Z"/>
                  </g>
                  <path class="cls-33" d="M111,173s-.08-4.34-3.21-4.65c-1.36-.06-4.16.9-2,5.21.65,1.44.68.06.61-.29s.21.46.48.73.2.17.14-.48-.07-.45.4.28.56,1.27.41.23-.1-.82.22-.2.33,2,.29.62-.06-2.24.11-1.56.48,1.9.48.91,0-1.59.27-.91.72,1.94.72,1.07,0-1.4.13-.89.65,2.17.54.79-.17-1.38,0-.83S111.06,173.57,111,173Z"/>
                </g>
                <g>
                  <path class="cls-29" d="M108.48,179.25s-5.87-9.56-12.88-6.25c-3,1.86-.42,5.93,4.7,6.2a30.78,30.78,0,0,1,7.17,1.55S108.79,179.15,108.48,179.25Z"/>
                  <path class="cls-30" d="M108.05,180a16.71,16.71,0,0,0-9-4.51,17.33,17.33,0,0,1,8.94,4.66A.19.19,0,0,0,108.05,180Z"/>
                  <path class="cls-33" d="M104,174.84a7.66,7.66,0,0,0-8-1.69c-1.74.9-2.15,4.55,3.81,5,1.74.17.79-.07-.44-.32s-.61-.37.27-.26.44,0,0-.14-1.43.1-2.18-.49,1.16,0,1.74,0,.51,0-.24-.56-.47-.24.62,0,.95,0,.17-.41-.3-.35.88,0,3.27,1,1.94.34-2.18-1-1-.69.82-.13-.2-.55-.69-.13.34,0,.65-.38-.1-.69-.17-.24,1.15.28,1.16.14,0-.41S103,174.53,104,174.84Z"/>
                </g>
                <g>
                  <path class="cls-29" d="M113.91,179.6s4.8-1.8,7.92-1,6.13-.35,5.53-3-6.5-3-10.13-.77-4.86,3.46-4.5,4.33A.86.86,0,0,0,113.91,179.6Z"/>
                  <path class="cls-30" d="M113,179.42l0,0c3.25-4.24,9.08-4.44,9.08-4.47s-5.88.14-9.17,4.41a0,0,0,0,0,0,.07Z"/>
                  <g class="cls-31">
                    <path class="cls-32" d="M117.23,174.76a9.93,9.93,0,0,1,1.07-.57,12.55,12.55,0,0,0-3.08,3c-.82,1.28,1.34.22,7.47.57,2.56.14,4,.4,4.7-1.09-.38,1.84-2.93,2.54-5.56,1.88-3.12-.77-7.92,1-7.92,1a.86.86,0,0,1-1.18-.51C112.37,178.22,113.6,177,117.23,174.76Z"/>
                  </g>
                  <path class="cls-33" d="M126.34,174.53a3.86,3.86,0,0,0-1.2-.63,8.09,8.09,0,0,0-2.81-.29,9,9,0,0,0-2.31.33c-2.21.8-.44.38.42.38s-.69.14-1.16.45,1-.07,1.77-.07-.68.11-1.23.35.17.07,1.09,0-2,.51-2.76.9,2-.35,2.59-.25-.78.21-.65.41,1,.14,1.74.22-2.18.1-2.15.34.44.24,1.71.28,2.45.37,3.92.37c.83,0,1.81-.29,1.85-1.29A1.92,1.92,0,0,0,126.34,174.53Z"/>
                </g>
                <g>
                  <path class="cls-29" d="M127,185.18s3-.39,2.74-2.45-2.11-4.17-7.9-4.73-7.7,1.05-7.42,1.91a2.13,2.13,0,0,0,1.62,1.4C116.46,181.35,126.16,184.44,127,185.18Z"/>
                  <path class="cls-30" d="M124.82,179.87s-.29-.11-.52-.21a13,13,0,0,0-9.89-.06s0,0,0,.08a0,0,0,0,0,.07,0C119.68,177.53,124.82,179.9,124.82,179.87Z"/>
                  <g class="cls-34">
                    <path class="cls-35" d="M118,178a3.55,3.55,0,0,0-1.29.5c-.57.41.29.41,1.08.37a2.38,2.38,0,0,0-1.21.32c-.34.37-.21.34,1,.44s-.75.21-.88.31a9.51,9.51,0,0,1,3.95.62c2.18.93,2.83,1.3,4.47,2.07,1.1.5,2.18,1.6,3.34,2.15a5.11,5.11,0,0,1-1.46.44c-.79-.74-10.49-3.83-11-3.87a2.13,2.13,0,0,1-1.62-1.4C114.17,179.27,115.13,178.24,118,178Z"/>
                  </g>
                  <path class="cls-33" d="M128.51,180.73a9,9,0,0,0-5-2.17c-2.38-.38,1.71.55,2.25,1s-1.23-.48-1.83-.48.78.38,1.25.79-1.33-.34-1.12-.14,1.6,1,.65.7-2.63-1-1.71-.45.88.54-.21.37-.26.28.28.59-1.16-.65-1.43-.42,1.52.57,4,2.17C129.09,184.93,130.87,183.55,128.51,180.73Z"/>
                </g>
                <g>
                  <path class="cls-36" d="M123.12,188.44a18.33,18.33,0,0,1,3.12,1.75c1,.84,3.23.93,3.23-1.7s-4.2-6.19-8.6-7.54-5.52-.35-5.52.16a2.22,2.22,0,0,0,1.13,1.91C117.5,183.79,123.12,188.44,123.12,188.44Z"/>
                  <path class="cls-30" d="M124.83,185.51s-4.7-4.6-9.34-4.17l-.14,0c.16,0,0,.11,0,.1C120,181,124.83,185.53,124.83,185.51Z"/>
                  <g class="cls-37">
                    <path class="cls-32" d="M120.64,180.88a6.75,6.75,0,0,0-1,0c-1.94.17-2.25-.25-.76.6s1.85.7.32.49-1.71-.69-.45.55,1.88,1.83,2.87,2.86c.63.65,2,2.49,3.08,3.82-.83-.45-1.59-.79-1.59-.79s-5.62-4.65-6.64-5.42a2.22,2.22,0,0,1-1.13-1.91C115.35,180.6,116.44,179.65,120.64,180.88Z"/>
                  </g>
                  <path class="cls-38" d="M126.61,184.76a4.53,4.53,0,0,1,2.72,3.61c.17,2.58-2.62,3-5.82-1.25-3-3.37,1.9.46,2.31.57s-1.87-1.63-1.09-1.18,1.06.69.65.18-.55-.8,0-.41,1.16.75.48-.18-.1-.69.64-.13.28-.35-.67-1.18.75.18,1.36.66S127.12,185,126.61,184.76Z"/>
                </g>
                <g>
                  <path class="cls-36" d="M107.78,180.7s-6.64-2.69-13.09-.58c-4,1.5-3.63,3.21-3.37,4.56s1.94,3.14,8.79-.06a50.65,50.65,0,0,1,8.29-2.69Z"/>
                  <path class="cls-30" d="M108.39,181.18s-6.74-2.11-11.41,1c.46-.29,4-2.75,11.5-.87C108.53,181.25,108.39,181.18,108.39,181.18Z"/>
                  <g class="cls-39">
                    <path class="cls-32" d="M104,180.63a20.76,20.76,0,0,0-4.64.34c2.9-1,5.39-.42,3.83-1.1a14.39,14.39,0,0,0-4-.53,22.9,22.9,0,0,1,8.62,1.36l.62,1.23a50.65,50.65,0,0,0-8.29,2.69c-3.63,1.7-5.82,2-7.11,1.68a23.29,23.29,0,0,0,4.63-2.54C100.32,182.15,105.2,180.87,104,180.63Z"/>
                  </g>
                  <path class="cls-33" d="M98.92,179.73s-6.13.39-7,2.82.76,4.07,4.57,1.62,1.87-2,.85-1.68.89-.69,1.47-.84-1.09.08-1.4.21,2.12-.86,2.35-.86-1.26.21-2.25.55-.57-.34.18-.61-.42-.39-.93-.21S98,179.76,98.92,179.73Z"/>
                </g>
                <path class="cls-40" d="M114,177s-.9.88-1.23.29-.13-.73-.53-.47-.54.26-.62-.2-.28-.63-.46-.19-.51.83-.74.41-.4.39-.77.32-.66-1-.66-.7,0,1.14-.56.72-.8-.36-.75.11-.49,0-.81-.21.32.31.38.91-.82-.34-.63.12,0,.67-.52.44.43.5,0,.52-.29.06-.08.25-.41.44-1.07.49.61.11.59.27-.8.35-1,.35,1.05.14,1.5.32.9.18.26.51,0,.44.18.65a25.67,25.67,0,0,0,3.83.18l5.14-1.24a2,2,0,0,1,1.71-.61c1.11.12-.38-.14-1,0s-.67-.18-.26-.25.3-.31-.31-.23-1.2.12-.41-.19.39-.31,0-.26-.41-.18-.25-.22.51-.55.1-.42-1,.5-.41.13.21-.47-.41-.32S114.16,177.39,114,177Z"/>
                <g>
                  <path class="cls-41" d="M124.25,244.21a.82.82,0,0,0,.81-.67,31.45,31.45,0,0,0,.15-9.47,59.4,59.4,0,0,0-4.79-16.16c-.87-2-1.86-4-2.81-5.9a85.61,85.61,0,0,1-4-8.79c-2-5.34-2.48-11.18-1.41-15.61a.85.85,0,0,0-.61-1,.82.82,0,0,0-1,.61c-1.15,4.74-.6,10.94,1.47,16.58a88.1,88.1,0,0,0,4,9c1,1.9,1.93,3.87,2.79,5.84a57.89,57.89,0,0,1,4.66,15.71,29.71,29.71,0,0,1-.14,9,.84.84,0,0,0,.66,1Z"/>
                  <g class="cls-42">
                    <path class="cls-43" d="M110.64,187.21a.82.82,0,0,1,1-.61.85.85,0,0,1,.61,1c-1.07,4.43-.54,10.27,1.41,15.61a85.61,85.61,0,0,0,4,8.79c1,1.91,1.94,3.9,2.81,5.9a59.4,59.4,0,0,1,4.79,16.16,31.45,31.45,0,0,1-.15,9.47.82.82,0,0,1-.81.67h-.14a1.43,1.43,0,0,1-.22-.08c3.88-5.1-2-22.38-4.41-26.69-2.45-4.48-6.14-12.68-7.23-15.29-.36-.87-.73-1.22-1.07-1.3A28.77,28.77,0,0,1,110.64,187.21Z"/>
                  </g>
                </g>
                <g class="cls-44">
                  <path class="cls-35" d="M104.35,178.84c1.85-.08-.45-1.77-2.23-2.61,2.08.81,4.22,2.06,3.86.81a7.68,7.68,0,0,0-2-2.74,20,20,0,0,1,4.55,4.95c.31-.1-1,1.5-1,1.5a30.78,30.78,0,0,0-7.17-1.55,8.2,8.2,0,0,1-4-1.22,11.5,11.5,0,0,0,2.78.41C101.27,178.53,101.86,178.93,104.35,178.84Z"/>
                </g>
                <g>
                  <path class="cls-45" d="M108.32,179.6a1,1,0,1,0-1.75.78,1,1,0,0,0,1.28.55A1,1,0,0,0,108.32,179.6Z"/>
                  <path class="cls-46" d="M107,179.76c.9-.75,1.58,1.1,1.08-.45a1,1,0,0,1,.2.29,1,1,0,0,1-.47,1.33,1,1,0,0,1-1.28-.55l0-.1C106.81,180.57,106.55,180.17,107,179.76Z"/>
                </g>
                <g>
                  <path class="cls-45" d="M110.65,178.72a1,1,0,1,0-1,1A1,1,0,0,0,110.65,178.72Z"/>
                  <path class="cls-46" d="M109.43,178.32c1.12-.3.95,1.66,1.16.05a1,1,0,0,1,.06.35,1,1,0,0,1-1,1,1,1,0,0,1-.92-1,.49.49,0,0,0,0-.12C108.88,179,108.81,178.47,109.43,178.32Z"/>
                </g>
                <g>
                  <path class="cls-45" d="M109.7,179.3a1,1,0,1,0-1,1A1,1,0,0,0,109.7,179.3Z"/>
                  <path class="cls-46" d="M108.48,178.9c1.12-.29,1,1.67,1.16,0a1,1,0,0,1,.06.35,1,1,0,1,1-1.92,0,.43.43,0,0,1,0-.11C107.92,179.54,107.86,179.06,108.48,178.9Z"/>
                </g>
                <g>
                  <path class="cls-45" d="M109.54,181a1,1,0,0,0-.56-1.29,1,1,0,0,0-.67,1.92A1,1,0,0,0,109.54,181Z"/>
                  <path class="cls-46" d="M108.5,180.17c1.16.08.4,1.9,1.09.43a1.1,1.1,0,0,1,0,.35,1,1,0,0,1-1.23.63,1,1,0,0,1-.57-1.27s0-.07,0-.11C107.78,180.61,107.87,180.14,108.5,180.17Z"/>
                </g>
                <g>
                  <path class="cls-45" d="M108.75,181.91a1.08,1.08,0,0,0-1.18-1,1.23,1.23,0,1,0,1.18,1Z"/>
                  <path class="cls-46" d="M107.47,181.73c1-.61,1.37,1.69,1.14-.22a1.57,1.57,0,0,1,.14.4,1.11,1.11,0,0,1-.68,1.37,1.09,1.09,0,0,1-1.18-1c0-.05,0-.09,0-.14C107.1,182.59,106.91,182.07,107.47,181.73Z"/>
                </g>
                <g>
                  <path class="cls-45" d="M112.47,179.05a1,1,0,1,0-1.8-.64,1,1,0,0,0,.57,1.28A1,1,0,0,0,112.47,179.05Z"/>
                  <path class="cls-46" d="M111.43,178.28c1.16.08.41,1.89,1.1.42a1.07,1.07,0,0,1-.06.35,1,1,0,0,1-1.23.64,1,1,0,0,1-.57-1.28l0-.11C110.72,178.72,110.8,178.24,111.43,178.28Z"/>
                </g>
                <g>
                  <path class="cls-45" d="M111.28,179.87a1,1,0,0,0-.57-1.27,1,1,0,0,0-1.24.64,1,1,0,0,0,.57,1.28A1,1,0,0,0,111.28,179.87Z"/>
                  <path class="cls-46" d="M110.24,179.11c1.15.07.41,1.89,1.1.42a1,1,0,0,1-.06.34,1,1,0,0,1-1.24.65,1,1,0,0,1-.57-1.28l.06-.11C109.53,179.55,109.61,179.07,110.24,179.11Z"/>
                </g>
                <g>
                  <path class="cls-45" d="M111,181.36a1,1,0,0,0-.56-1.28,1,1,0,0,0-1.24.64,1,1,0,0,0,.57,1.28A1,1,0,0,0,111,181.36Z"/>
                  <path class="cls-46" d="M110,180.6c1.15.06.4,1.88,1.09.41a1.12,1.12,0,0,1-.06.35,1,1,0,0,1-1.23.64,1,1,0,0,1-.57-1.28l0-.1C109.25,181,109.33,180.55,110,180.6Z"/>
                </g>
                <g>
                  <path class="cls-45" d="M110.31,182.27a1,1,0,1,0-1.9.33,1,1,0,0,0,1.13.88A1,1,0,0,0,110.31,182.27Z"/>
                  <path class="cls-46" d="M109,182.1c1.06-.54,1.29,1.52,1.17-.18a1,1,0,0,1,.13.35,1,1,0,0,1-.77,1.21,1,1,0,0,1-1.13-.88.45.45,0,0,1,0-.11C108.6,182.86,108.43,182.39,109,182.1Z"/>
                </g>
                <g>
                  <path class="cls-45" d="M109.44,183a1,1,0,0,0-1.13-.89,1.08,1.08,0,1,0,1.13.89Z"/>
                  <path class="cls-46" d="M108.15,182.86c1-.53,1.28,1.53,1.16-.17a1.21,1.21,0,0,1,.13.35,1,1,0,0,1-.77,1.22,1,1,0,0,1-1.13-.89s0-.08,0-.12C107.73,183.63,107.57,183.16,108.15,182.86Z"/>
                </g>
                <g>
                  <path class="cls-45" d="M113.91,179.68a1,1,0,0,0-.57-1.29,1,1,0,0,0-.67,1.92A1,1,0,0,0,113.91,179.68Z"/>
                  <path class="cls-46" d="M112.87,178.91c1.16.06.39,1.88,1.09.41a1.56,1.56,0,0,1,0,.36,1,1,0,0,1-1.24.63,1,1,0,0,1-.56-1.28s0-.06,0-.1C112.15,179.34,112.23,178.87,112.87,178.91Z"/>
                </g>
                <g>
                  <path class="cls-45" d="M115.1,180.77a1,1,0,0,0-.57-1.28,1,1,0,0,0-1.23.64,1,1,0,0,0,.56,1.28A1,1,0,0,0,115.1,180.77Z"/>
                  <path class="cls-46" d="M114.06,180c1.16.07.4,1.88,1.09.41a1.34,1.34,0,0,1-.05.35,1,1,0,0,1-1.24.64,1,1,0,0,1-.56-1.28l0-.09C113.34,180.44,113.43,180,114.06,180Z"/>
                </g>
                <g>
                  <path class="cls-45" d="M115.64,182.11a1,1,0,0,0-.56-1.27,1,1,0,1,0,.56,1.27Z"/>
                  <path class="cls-46" d="M114.6,181.34c1.17.08.41,1.9,1.1.42a1,1,0,0,1-.06.35,1,1,0,0,1-1.24.65,1,1,0,0,1-.56-1.29.41.41,0,0,1,0-.09C113.89,181.78,114,181.31,114.6,181.34Z"/>
                </g>
                <g>
                  <path class="cls-45" d="M113.94,181.6a1,1,0,0,0-.57-1.28,1,1,0,1,0,.57,1.28Z"/>
                  <path class="cls-46" d="M112.9,180.83c1.16.08.4,1.89,1.09.42a1.06,1.06,0,0,1,0,.35,1,1,0,0,1-1.24.64,1,1,0,0,1-.56-1.28.42.42,0,0,1,0-.1C112.18,181.27,112.26,180.8,112.9,180.83Z"/>
                </g>
                <g>
                  <path class="cls-45" d="M112.74,180.39a1,1,0,1,0-1.23.65A1,1,0,0,0,112.74,180.39Z"/>
                  <path class="cls-46" d="M111.7,179.63c1.17.07.41,1.88,1.1.41a1,1,0,0,1-.06.35,1,1,0,0,1-1.23.65,1,1,0,0,1-.57-1.29.93.93,0,0,0,0-.1C111,180.06,111.07,179.58,111.7,179.63Z"/>
                </g>
                <g>
                  <path class="cls-45" d="M113.46,183.05a1,1,0,0,0-.57-1.28,1,1,0,0,0-1.23.64,1,1,0,1,0,1.8.64Z"/>
                  <path class="cls-46" d="M112.42,182.28c1.16.07.4,1.88,1.1.42a1.12,1.12,0,0,1-.06.35,1,1,0,1,1-1.8-.64.51.51,0,0,1,0-.1C111.7,182.71,111.78,182.24,112.42,182.28Z"/>
                </g>
                <g>
                  <path class="cls-45" d="M112.24,181.84a1,1,0,0,0-.57-1.27,1,1,0,0,0-1.24.63,1,1,0,1,0,1.81.64Z"/>
                  <path class="cls-46" d="M111.2,181.08c1.15.06.4,1.88,1.09.41a1.1,1.1,0,0,1-.05.35,1,1,0,1,1-1.81-.64.47.47,0,0,1,0-.1C110.47,181.51,110.56,181,111.2,181.08Z"/>
                </g>
                <g>
                  <path class="cls-45" d="M111.71,183.13a1,1,0,0,0-.56-1.28,1,1,0,0,0-1.23.64,1,1,0,1,0,1.79.64Z"/>
                  <path class="cls-46" d="M110.68,182.35c1.16.08.39,1.89,1.09.42a1.13,1.13,0,0,1-.06.36,1,1,0,1,1-1.79-.64.3.3,0,0,1,0-.1C110,182.79,110,182.32,110.68,182.35Z"/>
                </g>
                <g>
                  <path class="cls-45" d="M111.86,184.13a1,1,0,0,0-.57-1.28,1,1,0,0,0-1.22.64,1,1,0,0,0,.56,1.28A1,1,0,0,0,111.86,184.13Z"/>
                  <path class="cls-46" d="M110.83,183.37c1.16.06.4,1.88,1.1.41a.91.91,0,0,1-.07.35,1,1,0,0,1-1.23.64,1,1,0,0,1-.56-1.28,1,1,0,0,1,0-.1C110.11,183.8,110.2,183.32,110.83,183.37Z"/>
                </g>
                <g>
                  <path class="cls-36" d="M107.58,183.33s.15-1.45-2.15-1.56a13.54,13.54,0,0,0-8.49,3.06c-3,2.31-4.49,6-2,7.27s3.54-.19,6.3-3.71,5.68-5.32,6.09-5.22Z"/>
                  <g class="cls-34">
                    <path class="cls-35" d="M102,186.75c1-1.78,2.87-3,2-3.34a3,3,0,0,0-1.77.46c.94-.57,1.75-1.11.78-1.59a1.83,1.83,0,0,0-.6-.15,10.74,10.74,0,0,1,3.05-.36c2.3.11,2.15,1.56,2.15,1.56l-.3-.16c-.41-.1-3.33,1.7-6.09,5.22-1.64,2.09-2.69,3.45-3.79,3.94A21.05,21.05,0,0,0,102,186.75Z"/>
                  </g>
                  <path class="cls-47" d="M101.69,186.34s-3,6.61-6.45,5.75c-1.6-.61-2.49-4.92,4.85-8.61.13-.07-1.3,1-1.34,1.24s.65-.85,1.13-.61-.65,1.2-.65,1.2.75-.83.62-.34-1,1-.14.48,1-.56.58.14-.07.47.71-.32-.13.83-.38,1.31.31.14.62-.41,0,.27-.24.79S101.41,186.65,101.69,186.34Z"/>
                  <path class="cls-30" d="M107.31,182.53c-.21,0-3.78-1.19-8.64,4.38.23-.45,4.73-5.15,8.71-4.3A.14.14,0,0,1,107.31,182.53Z"/>
                </g>
                <g>
                  <path class="cls-36" d="M124.3,189.11s3.74,5.48.46,6.87-5.93-3.62-7-5.31-4.4-6.52-4.91-6.78,0-1.1.1-1.3c.72-1,2.12-.47,3.09-.12a15.92,15.92,0,0,1,3.87,2.09,20.84,20.84,0,0,1,2,1.65A12.89,12.89,0,0,1,124.3,189.11Z"/>
                  <path class="cls-30" d="M120.7,189.47s-3.87-6.1-7.44-6.91c0,0,0,0-.05,0a.06.06,0,0,0,0,.07c3.52.81,7.4,6.81,7.42,6.81Z"/>
                  <g class="cls-37">
                    <path class="cls-32" d="M113,182.59a1.68,1.68,0,0,1,2-.48c.4.1.77.24,1.11.36a13.81,13.81,0,0,1,2.21,1,5.41,5.41,0,0,0-1.27-.29c-1-.08-.75.07-.21.68s.24.52-.31.25.58.52,1.23,1.41-1.29-1.2-2.42-1.55-.72-.11-.2.83a17.61,17.61,0,0,0,1.94,3.23c.45.46,1.9,4.33,4,7a18.69,18.69,0,0,1-3.2-4.37c-1-1.71-4.4-6.52-4.91-6.78S112.86,182.79,113,182.59Z"/>
                  </g>
                  <path class="cls-38" d="M123.64,189.13s2.69,3.06,2.18,5.2-3.41,3.37-7.46-4.14c-1.27-2.27.44-1.23.71-.85s.72.58.1-.29.17-.31.65.08.3.07.17-.24.1-.25.78.35,1.23,1.88.69.58-1.44-2.38-.82-1.9.65.59.23-.13-.54-.93.45,0,1.2,1.14.89.52S122.48,187.61,123.64,189.13Z"/>
                </g>
                <g>
                  <path class="cls-36" d="M108.71,183.64s-.26-1.09-1.43-.47a16.72,16.72,0,0,0-7.37,9.6c-1.74,5.94.82,7.4,2.45,7.4s3.53-.22,3.53-5.58S108.71,184.15,108.71,183.64Z"/>
                  <path class="cls-30" d="M103.72,191.73s.06,0,.06,0c.84-6.1,4.34-8.62,4.37-8.65s0,0,0-.06,0,0-.07,0-3.57,2.56-4.42,8.71a0,0,0,0,0,0,.06Z"/>
                  <g class="cls-48">
                    <path class="cls-32" d="M105.67,189.78c.45-1.86,1.57-4.75.75-4.54a1.3,1.3,0,0,0-.79.68c.08-.13-.1-.44-.2-.52a1.53,1.53,0,0,0-1.18.13,11.36,11.36,0,0,1,3-2.36c1.17-.62,1.43.47,1.43.47,0,.51-2.82,5.58-2.82,11,0,5.12-1.72,5.55-3.3,5.57C105,198.32,105.33,191.2,105.67,189.78Z"/>
                  </g>
                  <path class="cls-49" d="M102.61,188.37a12.89,12.89,0,0,0-2.7,6.54c-.27,3.65,2,5.86,3.45,3.38s1.53-6.34,1.91-8.51-.55.41-.62.89,0-1.3-.17-.89-.54,2.07-.51,1.25-.11-1.45-.31-.84-.3-.2,0-1.37-.79.42-.82.82a4,4,0,0,1,.17-1c.17-.48-.72.35-.72.72S102.44,188.72,102.61,188.37Z"/>
                </g>
                <g>
                  <path class="cls-36" d="M111.21,185s-.66-2.06-1.84-2.11-1.89,1.44-2.56,4.07-1.68,6.46-1.68,8.37,1.12,5.74,3.52,5.74,2.92-3.78,2.87-6.41-.61-6.56-.57-7.49A14.75,14.75,0,0,0,111.21,185Z"/>
                  <path class="cls-30" d="M108.78,188.39s.63-5.43.64-5.47,0,0,0-.06-.06,0-.06,0-.57,5.49-.54,5.49Z"/>
                  <g class="cls-48">
                    <path class="cls-32" d="M109.37,182.92c1.18.05,1.84,2.11,1.84,2.11a14.75,14.75,0,0,1-.26,2.17,18.37,18.37,0,0,0,.13,1.89c-.15-.83-.35-1.84-.57-2.89-.54-2.65-1.43-1-1.46,0s0-.18-.41-1.21-1.41,1.37-2.29,3.82c.16-.66.32-1.29.46-1.86C107.48,184.36,108.19,182.86,109.37,182.92Z"/>
                  </g>
                  <path class="cls-49" d="M110.75,193.27s1.12,6.25-1.37,6.95-3.88-2.35-3.43-6.48,2-5,2.38-3.65.34-.48.38.1.1.15.3-.64.52.34.62,1.69.27,0,.31-.94S110.37,191.53,110.75,193.27Z"/>
                </g>
                <g>
                  <path class="cls-36" d="M112.89,183.39c-.52-.46-1.13-.73-1.62-.09-.7.91-.48,2.86-.32,3.9.31,1.91,2.21,13.53,7.17,12.81,0,0,2.65-1.14,1.22-6.25-1-3.75-3.11-6.55-5.58-9.44A6.6,6.6,0,0,0,112.89,183.39Z"/>
                  <g class="cls-50">
                    <path class="cls-32" d="M111.27,183.3c.49-.64,1.1-.37,1.62.09a6.6,6.6,0,0,1,.87.93c.9,1.05,1.75,2.1,2.52,3.19a10,10,0,0,0-2.31-2.12c-1.11-.52.67,3.41,1,5.17s-1.43-4-2.4-4.34-.87,4.62.54,9.24A39.53,39.53,0,0,1,111,187.2C110.79,186.16,110.57,184.21,111.27,183.3Z"/>
                  </g>
                  <path class="cls-51" d="M117.71,191s3.47,6.19.61,8.44c-1.94,1.1-5.08-2.69-5.76-8.17-.38-2.58.1-1.68.65-.76s-.11-1.26-.11-1.51.31.28,1,1.27a16.46,16.46,0,0,1,1.43,2.8c.17.48-.95-3.17-.95-3.9s1.39,2,1.84,2.55-.41-1.27-.52-1.89.38,0,.55.35.14.13,0-.22.23-.17.69.41S117.37,189.92,117.71,191Z"/>
                  <path class="cls-30" d="M115.35,192.05h0s-1.67-7.12-3.76-9.07c0,0,0,0-.07,0a.06.06,0,0,0,0,.08c2.06,1.93,3.8,9,3.82,9Z"/>
                </g>
                <path class="cls-52" d="M115.08,182.25c.12.12-.44-.43-.78.06s.47.63,0,.63-1-.4-.81.11.12.68-.28.53-.55-.82.2-1.33A1.27,1.27,0,0,1,115.08,182.25Z"/>
                <path class="cls-52" d="M112.63,183.17s-.68-.1-.76.18-.07-.35-.36,0-.53.2-.54.46S111.29,182.31,112.63,183.17Z"/>
                <path class="cls-52" d="M107.1,183.07a1,1,0,0,0-.85-1,1.28,1.28,0,0,1,1.23,1c.13,0,.75,0,.75.41-.1.11-.48-.41-1-.1S107.34,183.07,107.1,183.07Z"/>
              </g>
              <g>
                <g>
                  <path class="cls-53" d="M149.33,165.79s-5.22-4.25-6.58-4.86-3-2.56-1-4.4,7.1-.87,8.52,4.76S150,166.1,149.33,165.79Z"/>
                  <path class="cls-30" d="M150.18,165.46s-.05,0-.05,0c-1-3.66-4.57-7-4.55-7s3.67,3.32,4.65,7c0,0,0,.06,0,.06Z"/>
                  <g class="cls-31">
                    <path class="cls-54" d="M150.25,161.29a8.91,8.91,0,0,0-1.23-2.8,7.9,7.9,0,0,1,.73,3.32c-.19,1.58-.77.11-1,.76s-2-.17-3.18-1a27.1,27.1,0,0,0-4.49-2.13,3.64,3.64,0,0,0,1.64,1.48c1.36.61,6.58,4.86,6.58,4.86C150,166.1,151.66,166.92,150.25,161.29Z"/>
                  </g>
                  <path class="cls-55" d="M141.26,158.28c.29,1,1.64,1.62,2.44,2,2.44,1.27,2.64,1.3,2,.69s1.52,1.26,1.56.78-1.66-1.81-1.66-1.81,1.45,1.3,1.38.72a2.65,2.65,0,0,0-.64-1.26c-.1-.1.67.95.84.79s-.68-1.37-.68-1.37,1.43,1.84,1.53,1.5-.71-2-.27-1.3.91,1.74.84,1,.24-.44.41-.31.47-.92-2-2.86a4.41,4.41,0,0,0-3.23-1,3.07,3.07,0,0,0-2.38,1.37A1.46,1.46,0,0,0,141.26,158.28Z"/>
                </g>
                <g>
                  <path class="cls-53" d="M151.11,165.69s-3.7-11.72,3.85-11.1c2.22.5,2.89,4,.2,8.85C152.88,166.56,151.11,167,151.11,165.69Z"/>
                  <path class="cls-30" d="M152.5,166.3s-.07,0-.07,0c-.46-3.42,1.49-7.84,1.51-7.82s-1.83,4.48-1.39,7.8c0,0,0,0-.05.06Z"/>
                  <g class="cls-31">
                    <path class="cls-54" d="M153.47,161.68c-1.55-1.3-.94,2.43-2.47.24-1-1.44-.51-3.95-.07-5.47-1.74,3.17.18,9.24.18,9.24,0,1.28,1.77.87,4-2.25a13.18,13.18,0,0,0,1.72-4.93C156.19,160.65,154.55,162.58,153.47,161.68Z"/>
                  </g>
                  <path class="cls-55" d="M150.56,159.43s.07-4.3,3.18-4.61c1.35-.06,4.13.89,2,5.15-.64,1.43-.67.07-.61-.27s-.2.44-.46.72-.21.17-.14-.48.07-.44-.41.28-.54,1.26-.4.23.1-.81-.2-.21-.34,1.95-.3.62.06-2.21-.11-1.53-.47,1.88-.47.89,0-1.57-.27-.89-.71,1.91-.71,1,0-1.39-.14-.88-.64,2.15-.54.78.17-1.36,0-.82S150.54,160,150.56,159.43Z"/>
                </g>
                <g>
                  <path class="cls-53" d="M153.08,165.64s5.83-9.47,12.77-6.19c2.94,1.84.41,5.88-4.66,6.13a31,31,0,0,0-7.09,1.54S152.78,165.54,153.08,165.64Z"/>
                  <path class="cls-30" d="M153.52,166.36a16.54,16.54,0,0,1,8.88-4.48,17.18,17.18,0,0,0-8.86,4.63A.33.33,0,0,1,153.52,166.36Z"/>
                  <path class="cls-55" d="M157.56,161.27a7.58,7.58,0,0,1,7.94-1.67c1.72.89,2.12,4.51-3.79,4.94-1.72.18-.77-.06.44-.3s.61-.37-.27-.28-.44,0,0-.13,1.42.1,2.16-.48-1.15,0-1.72,0-.51,0,.24-.55.47-.24-.61,0-.95,0-.17-.41.3-.34-.88,0-3.24,1-1.93.34,2.17-1,1-.68-.81-.14.2-.55.68-.13-.34,0-.64-.38.11-.68.17-.24-1.15.27-1.15.14,0-.41S158.5,161,157.56,161.27Z"/>
                </g>
                <g>
                  <path class="cls-53" d="M147.71,166s-4.76-1.79-7.85-1-6.08-.36-5.47-3,6.43-3,10-.76,4.81,3.42,4.46,4.29A.85.85,0,0,1,147.71,166Z"/>
                  <path class="cls-30" d="M148.63,165.8h0c-3.23-4.21-9-4.41-9-4.44s5.82.13,9.08,4.37c0,0,0,.05,0,.06Z"/>
                  <g class="cls-31">
                    <path class="cls-54" d="M144.42,161.19a9.86,9.86,0,0,0-1.07-.56,12,12,0,0,1,3.06,3c.82,1.26-1.32.21-7.4.55-2.54.14-3.95.4-4.66-1.08.38,1.83,2.9,2.52,5.51,1.87,3.09-.77,7.85,1,7.85,1a.85.85,0,0,0,1.17-.51C149.23,164.61,148,163.39,144.42,161.19Z"/>
                  </g>
                  <path class="cls-55" d="M135.39,161a4.24,4.24,0,0,1,1.19-.62,8,8,0,0,1,2.79-.29,8.72,8.72,0,0,1,2.28.33c2.19.79.44.38-.41.38s.68.14,1.15.45-1-.08-1.75-.08.67.11,1.21.35-.17.06-1.08,0,2,.51,2.73.89-2-.34-2.56-.24.77.21.64.41-1,.14-1.72.2,2.16.1,2.13.34-.45.24-1.69.28-2.43.37-3.89.37c-.82,0-1.8-.3-1.83-1.28A1.87,1.87,0,0,1,135.39,161Z"/>
                </g>
                <g>
                  <path class="cls-53" d="M134.79,171.52s-3-.39-2.72-2.42,2.1-4.15,7.84-4.7,7.62,1,7.35,1.89a2.13,2.13,0,0,1-1.62,1.39C145.18,167.72,135.57,170.77,134.79,171.52Z"/>
                  <path class="cls-30" d="M136.9,166.26a2.41,2.41,0,0,1,.51-.2,12.83,12.83,0,0,1,9.8-.07.05.05,0,0,1,0,.07s0,0-.06,0C142,163.93,136.9,166.29,136.9,166.26Z"/>
                  <path class="cls-56" d="M143.69,164.36a4.06,4.06,0,0,1,1.27.49c.57.42-.28.41-1.06.37a2.51,2.51,0,0,1,1.2.32c.33.37.2.34-1,.44s.75.21.88.31a9,9,0,0,0-3.91.61c-2.17.92-2.81,1.3-4.44,2-1.08.5-2.15,1.59-3.3,2.13a5.18,5.18,0,0,0,1.45.44c.78-.75,10.39-3.8,10.85-3.84a2.13,2.13,0,0,0,1.62-1.39C147.45,165.66,146.5,164.64,143.69,164.36Z"/>
                  <path class="cls-55" d="M133.24,167.11a8.78,8.78,0,0,1,5-2.16c2.37-.37-1.69.55-2.23,1s1.22-.48,1.83-.48-.77.38-1.25.79,1.32-.34,1.12-.14-1.59,1-.64.68,2.59-1,1.68-.45-.88.55.2.38.27.28-.27.58,1.15-.65,1.42-.41-1.51.57-4,2.16C132.66,171.27,130.91,169.9,133.24,167.11Z"/>
                </g>
                <g>
                  <path class="cls-53" d="M138.57,174.74a18.15,18.15,0,0,0-3.08,1.75c-1,.81-3.2.92-3.2-1.69s4.16-6.14,8.51-7.47,5.48-.36,5.48.15a2.21,2.21,0,0,1-1.12,1.9C144.15,170.14,138.57,174.74,138.57,174.74Z"/>
                  <path class="cls-30" d="M136.88,171.85s4.66-4.57,9.26-4.13l.14,0c-.15,0,0,.11,0,.11C141.69,167.42,136.89,171.86,136.88,171.85Z"/>
                  <g class="cls-37">
                    <path class="cls-54" d="M141.05,167.26a8,8,0,0,1,1,0c1.93.18,2.23-.23.74.62s-1.82.68-.3.48,1.69-.69.44.55-1.86,1.8-2.84,2.82c-.62.65-1.94,2.47-3.06,3.79.83-.45,1.57-.79,1.57-.79s5.58-4.6,6.59-5.36a2.21,2.21,0,0,0,1.12-1.9C146.28,167,145.2,166,141.05,167.26Z"/>
                  </g>
                  <path class="cls-55" d="M135.13,171.1a4.49,4.49,0,0,0-2.7,3.58c-.18,2.56,2.59,3,5.77-1.24,3-3.34-1.89.45-2.29.56s1.85-1.61,1.08-1.16-1.05.68-.64.16.53-.78,0-.4-1.15.75-.47-.17.1-.69-.65-.14-.26-.35.68-1.16-.74.17-1.35.65S134.62,171.34,135.13,171.1Z"/>
                </g>
                <g>
                  <path class="cls-53" d="M153.77,167.07s6.59-2.66,13-.56c4,1.48,3.6,3.18,3.35,4.5s-1.93,3.12-8.72,0a49.55,49.55,0,0,0-8.2-2.66Z"/>
                  <path class="cls-30" d="M153.19,167.55s6.66-2.09,11.29.95c-.45-.27-3.92-2.71-11.4-.85C153,167.62,153.19,167.55,153.19,167.55Z"/>
                  <g class="cls-39">
                    <path class="cls-54" d="M157.52,167a21,21,0,0,1,4.6.34c-2.87-1-5.34-.41-3.78-1.08a14,14,0,0,1,4-.53,22.55,22.55,0,0,0-8.55,1.34l-.6,1.23a49.55,49.55,0,0,1,8.2,2.66c3.62,1.68,5.78,2,7,1.67a24.15,24.15,0,0,1-4.58-2.52C161.17,168.5,156.34,167.24,157.52,167Z"/>
                  </g>
                  <path class="cls-55" d="M162.56,166.11s6.08.38,7,2.81-.75,4-4.53,1.6-1.86-2-.85-1.68-.87-.68-1.45-.82,1.08.07,1.39.21-2.1-.85-2.33-.85,1.24.2,2.22.54.58-.34-.17-.61.41-.38.92-.2S163.47,166.15,162.56,166.11Z"/>
                </g>
                <path class="cls-57" d="M147.62,163.41s.89.87,1.21.28.13-.71.54-.46.53.26.61-.2.27-.62.45-.18.51.82.74.41.4.38.76.31.65-1,.65-.7-.05,1.13.56.72.79-.36.73.1.49,0,.82-.2-.33.31-.38.89.81-.33.63.14,0,.66.51.43-.43.48.05.51.28,0,.07.25.41.44,1.07.49-.61.1-.59.26.79.36,1,.36-1,.13-1.49.3-.89.18-.25.51,0,.43-.18.64a24,24,0,0,1-3.8.18l-5.09-1.23a2,2,0,0,0-1.7-.61c-1.09.13.38-.13,1,0s.66-.18.26-.26-.31-.31.3-.23,1.19.12.41-.18-.38-.3,0-.26.4-.18.25-.23-.51-.54-.1-.4,1,.48.4.12-.2-.46.4-.31S147.46,163.8,147.62,163.41Z"/>
                <g>
                  <path class="cls-41" d="M137.46,230a.82.82,0,0,1-.8-.68,31.1,31.1,0,0,1-.15-9.37,59.24,59.24,0,0,1,4.74-16c.87-2,1.86-4,2.8-5.86a90.7,90.7,0,0,0,3.93-8.7c1.93-5.29,2.45-11.08,1.39-15.47a.82.82,0,0,1,.6-1,.79.79,0,0,1,1,.6c1.14,4.7.6,10.84-1.45,16.43a86.41,86.41,0,0,1-4,8.86c-.94,1.89-1.9,3.84-2.75,5.79a57.06,57.06,0,0,0-4.62,15.56,29.49,29.49,0,0,0,.14,8.88.82.82,0,0,1-.65.95Z"/>
                  <g class="cls-42">
                    <path class="cls-43" d="M150.94,173.53a.79.79,0,0,0-1-.6.82.82,0,0,0-.6,1c1.06,4.39.54,10.18-1.39,15.47a90.7,90.7,0,0,1-3.93,8.7c-.94,1.9-1.93,3.87-2.8,5.86a59.24,59.24,0,0,0-4.74,16,31.1,31.1,0,0,0,.15,9.37.82.82,0,0,0,.8.68h.15l.21-.08c-3.85-5,2-22.17,4.37-26.45,2.43-4.43,6.08-12.55,7.16-15.14.36-.86.73-1.2,1.06-1.3A28.43,28.43,0,0,0,150.94,173.53Z"/>
                  </g>
                </g>
                <g class="cls-44">
                  <path class="cls-56" d="M157.18,165.23c-1.83-.08.44-1.75,2.21-2.58-2.06.8-4.18,2-3.82.81a7.31,7.31,0,0,1,2-2.73,19.8,19.8,0,0,0-4.52,4.91c-.3-.1,1,1.48,1,1.48a31,31,0,0,1,7.09-1.54,8,8,0,0,0,4-1.2,11.16,11.16,0,0,1-2.75.41C160.22,164.93,159.66,165.33,157.18,165.23Z"/>
                </g>
                <g>
                  <path class="cls-45" d="M153.25,166a1,1,0,0,1,1.26-.53,1,1,0,1,1-1.26.53Z"/>
                  <path class="cls-46" d="M154.51,166.15c-.88-.75-1.56,1.09-1.07-.45a.91.91,0,0,0-.19.29.95.95,0,1,0,1.73.77.76.76,0,0,1,0-.11C154.74,167,155,166.56,154.51,166.15Z"/>
                </g>
                <g>
                  <path class="cls-45" d="M150.94,165.12a.95.95,0,1,1,1.89-.05,1,1,0,0,1-.92,1A1,1,0,0,1,150.94,165.12Z"/>
                  <path class="cls-46" d="M152.15,164.72c-1.11-.31-1,1.65-1.16.05a.81.81,0,0,0-.05.35,1,1,0,0,0,1,1,1,1,0,0,0,.92-1,.6.6,0,0,0,0-.12C152.69,165.34,152.76,164.88,152.15,164.72Z"/>
                </g>
                <g>
                  <path class="cls-45" d="M151.88,165.69a.95.95,0,1,1,1,1A1,1,0,0,1,151.88,165.69Z"/>
                  <path class="cls-46" d="M153.1,165.3c-1.12-.3-.95,1.65-1.17,0a1.27,1.27,0,0,0-.05.34,1,1,0,0,0,1,1,1,1,0,0,0,.92-1s0-.08,0-.11C153.64,165.92,153.7,165.45,153.1,165.3Z"/>
                </g>
                <g>
                  <path class="cls-45" d="M152,167.32a.95.95,0,1,1,1.78-.64,1,1,0,0,1-.56,1.27A1,1,0,0,1,152,167.32Z"/>
                  <path class="cls-46" d="M153.07,166.56c-1.15.07-.4,1.87-1.09.41a1.07,1.07,0,0,0,.06.35,1,1,0,0,0,1.22.63,1,1,0,0,0,.56-1.27.41.41,0,0,0,0-.09C153.77,167,153.7,166.53,153.07,166.56Z"/>
                </g>
                <g>
                  <path class="cls-45" d="M152.81,168.27a1.08,1.08,0,0,1,1.17-1,1.21,1.21,0,0,1-.49,2.31A1.09,1.09,0,0,1,152.81,168.27Z"/>
                  <path class="cls-46" d="M154.1,168.1c-1-.6-1.37,1.67-1.14-.21a1.26,1.26,0,0,0-.15.38,1.09,1.09,0,0,0,.68,1.36,1.07,1.07,0,0,0,1.17-1s0-.08,0-.13C154.46,169,154.65,168.43,154.1,168.1Z"/>
                </g>
                <g>
                  <path class="cls-45" d="M149.13,165.44a1,1,0,0,1,.57-1.26,1,1,0,0,1,1.22.63,1,1,0,1,1-1.79.63Z"/>
                  <path class="cls-46" d="M150.16,164.68c-1.15.07-.4,1.88-1.08.42a1,1,0,0,0,0,.34,1,1,0,1,0,1.79-.63.47.47,0,0,0,0-.1C150.87,165.12,150.79,164.65,150.16,164.68Z"/>
                </g>
                <g>
                  <path class="cls-45" d="M150.32,166.26a.95.95,0,1,1,1.78-.63,1,1,0,0,1-.56,1.26A1,1,0,0,1,150.32,166.26Z"/>
                  <path class="cls-46" d="M151.35,165.5c-1.15.07-.41,1.87-1.09.41a1,1,0,0,0,.06.35,1,1,0,0,0,1.22.63,1,1,0,0,0,.56-1.26,1,1,0,0,0,0-.1C152.06,165.93,152,165.46,151.35,165.5Z"/>
                </g>
                <g>
                  <path class="cls-45" d="M150.58,167.73a1,1,0,0,1,.57-1.27,1,1,0,1,1-.57,1.27Z"/>
                  <path class="cls-46" d="M151.61,167c-1.15.07-.4,1.87-1.08.41a1.41,1.41,0,0,0,.05.35,1,1,0,0,0,1.22.63,1,1,0,0,0,.57-1.26.37.37,0,0,0-.05-.11C152.33,167.4,152.24,166.93,151.61,167Z"/>
                </g>
                <g>
                  <path class="cls-45" d="M151.28,168.63a1,1,0,0,1,1.12-.88,1.07,1.07,0,0,1-.36,2.09A1,1,0,0,1,151.28,168.63Z"/>
                  <path class="cls-46" d="M152.56,168.46c-1-.53-1.28,1.51-1.15-.18a1.05,1.05,0,0,0-.13.35,1,1,0,0,0,.76,1.21,1,1,0,0,0,1.12-.88.49.49,0,0,0,0-.12C153,169.22,153.13,168.74,152.56,168.46Z"/>
                </g>
                <g>
                  <path class="cls-45" d="M152.14,169.39a1,1,0,1,1,.76,1.21A1,1,0,0,1,152.14,169.39Z"/>
                  <path class="cls-46" d="M153.42,169.22c-1-.52-1.27,1.52-1.16-.17a1.25,1.25,0,0,0-.12.34,1,1,0,0,0,.76,1.21,1,1,0,0,0,1.12-.87.49.49,0,0,0,0-.12C153.83,170,154,169.51,153.42,169.22Z"/>
                </g>
                <g>
                  <path class="cls-45" d="M147.72,166.06a1,1,0,0,1,.56-1.27,1,1,0,0,1,1.22.63,1,1,0,0,1-.56,1.27A1,1,0,0,1,147.72,166.06Z"/>
                  <path class="cls-46" d="M148.74,165.3c-1.15.06-.4,1.86-1.08.41a.89.89,0,0,0,.06.35,1,1,0,0,0,1.22.63,1,1,0,0,0,.56-1.27.93.93,0,0,0-.05-.1C149.45,165.73,149.37,165.26,148.74,165.3Z"/>
                </g>
                <g>
                  <path class="cls-45" d="M146.53,167.15a1,1,0,0,1,.57-1.26,1,1,0,0,1,1.22.63,1,1,0,1,1-1.79.63Z"/>
                  <path class="cls-46" d="M147.56,166.38c-1.15.08-.4,1.88-1.09.42a1.43,1.43,0,0,0,.06.35,1,1,0,1,0,1.79-.63.54.54,0,0,1,0-.11C148.27,166.82,148.19,166.35,147.56,166.38Z"/>
                </g>
                <g>
                  <path class="cls-45" d="M146,168.48a.95.95,0,1,1,1.22.63A1,1,0,0,1,146,168.48Z"/>
                  <path class="cls-46" d="M147,167.72c-1.15.07-.4,1.87-1.08.41a.86.86,0,0,0,.06.35,1,1,0,0,0,1.22.63,1,1,0,0,0,.56-1.27l-.05-.09C147.73,168.15,147.65,167.68,147,167.72Z"/>
                </g>
                <g>
                  <path class="cls-45" d="M147.68,168a1,1,0,1,1,1.23.63A1,1,0,0,1,147.68,168Z"/>
                  <path class="cls-46" d="M148.71,167.21c-1.15.06-.4,1.87-1.09.41a1.07,1.07,0,0,0,.06.35,1,1,0,0,0,1.23.63,1,1,0,0,0,.56-1.27.93.93,0,0,1-.05-.1C149.42,167.64,149.34,167.17,148.71,167.21Z"/>
                </g>
                <g>
                  <path class="cls-45" d="M148.86,166.77a1,1,0,1,1,1.79-.63,1,1,0,0,1-.56,1.27A1,1,0,0,1,148.86,166.77Z"/>
                  <path class="cls-46" d="M149.9,166c-1.16.07-.41,1.88-1.09.42a1.33,1.33,0,0,0,.05.34,1,1,0,0,0,1.23.64,1,1,0,0,0,.56-1.27.93.93,0,0,0-.05-.1C150.6,166.45,150.52,166,149.9,166Z"/>
                </g>
                <g>
                  <path class="cls-45" d="M148.16,169.4a.95.95,0,1,1,1.22.63A1,1,0,0,1,148.16,169.4Z"/>
                  <path class="cls-46" d="M149.18,168.64c-1.15.07-.39,1.87-1.08.42a.84.84,0,0,0,.06.34,1,1,0,0,0,1.22.63,1,1,0,0,0,.56-1.27.36.36,0,0,1,0-.09C149.9,169.07,149.81,168.6,149.18,168.64Z"/>
                </g>
                <g>
                  <path class="cls-45" d="M149.37,168.2a1,1,0,0,1,.56-1.26,1,1,0,0,1,1.22.63.95.95,0,1,1-1.78.63Z"/>
                  <path class="cls-46" d="M150.4,167.45c-1.15.06-.4,1.87-1.08.41a1,1,0,0,0,.05.34.95.95,0,1,0,1.78-.63l0-.1C151.11,167.88,151,167.41,150.4,167.45Z"/>
                </g>
                <g>
                  <path class="cls-45" d="M149.89,169.47a.95.95,0,1,1,1.78-.63,1,1,0,0,1-.56,1.27A1,1,0,0,1,149.89,169.47Z"/>
                  <path class="cls-46" d="M150.91,168.72c-1.15.07-.4,1.87-1.08.41a.79.79,0,0,0,.06.34,1,1,0,0,0,1.22.64,1,1,0,0,0,.56-1.27.93.93,0,0,0,0-.1C151.62,169.15,151.54,168.68,150.91,168.72Z"/>
                </g>
                <g>
                  <path class="cls-45" d="M149.74,170.47a.95.95,0,1,1,1.21.64A1,1,0,0,1,149.74,170.47Z"/>
                  <path class="cls-46" d="M150.76,169.71c-1.15.07-.4,1.87-1.09.42a.83.83,0,0,0,.07.34,1,1,0,0,0,1.21.64,1,1,0,0,0,.57-1.27.93.93,0,0,0-.05-.1C151.47,170.15,151.39,169.67,150.76,169.71Z"/>
                </g>
                <g>
                  <path class="cls-53" d="M154,169.69s-.15-1.44,2.13-1.55a13.35,13.35,0,0,1,8.41,3c3,2.29,4.45,6,2,7.21s-3.49-.2-6.23-3.69-5.62-5.27-6-5.16Z"/>
                  <g class="cls-34">
                    <path class="cls-56" d="M159.55,173.08c-1-1.78-2.84-3-2-3.32a2.92,2.92,0,0,1,1.74.45c-.93-.55-1.73-1.1-.76-1.57a1.56,1.56,0,0,1,.59-.15,10.51,10.51,0,0,0-3-.35c-2.28.11-2.13,1.55-2.13,1.55l.3-.16c.41-.11,3.29,1.69,6,5.16,1.63,2.08,2.67,3.42,3.76,3.92A21.25,21.25,0,0,1,159.55,173.08Z"/>
                  </g>
                  <path class="cls-55" d="M159.82,172.66s3,6.56,6.39,5.7c1.59-.61,2.47-4.88-4.8-8.53-.13-.07,1.28,1,1.32,1.23s-.64-.85-1.12-.61.64,1.2.64,1.2-.74-.82-.61-.35,1,1,.14.48-1-.55-.57.14.07.47-.71-.31.13.82.37,1.3-.31.13-.61-.42,0,.27.24.79S160.09,173,159.82,172.66Z"/>
                  <path class="cls-30" d="M154.24,168.9c.21,0,3.76-1.18,8.57,4.33-.24-.45-4.69-5.1-8.63-4.26A.1.1,0,0,0,154.24,168.9Z"/>
                </g>
                <g>
                  <path class="cls-53" d="M137.41,175.41s-3.7,5.43-.46,6.81,5.88-3.59,6.89-5.27,4.36-6.45,4.87-6.71,0-1.09-.1-1.29c-.71-1-2.1-.47-3.06-.12a15.66,15.66,0,0,0-3.84,2.07,20.38,20.38,0,0,0-2,1.64A12.17,12.17,0,0,0,137.41,175.41Z"/>
                  <path class="cls-30" d="M141,175.76s3.83-6,7.36-6.84c0,0,.06,0,.06,0a0,0,0,0,1,0,.06c-3.48.81-7.34,6.76-7.34,6.76Z"/>
                  <g class="cls-37">
                    <path class="cls-54" d="M148.61,169a1.68,1.68,0,0,0-2-.48c-.39.1-.76.25-1.09.36a15.11,15.11,0,0,0-2.2,1,5.83,5.83,0,0,1,1.27-.29c1-.07.74.07.2.68s-.23.51.31.24-.58.51-1.21,1.4,1.28-1.19,2.39-1.53.71-.11.2.82a16.75,16.75,0,0,1-1.92,3.2c-.45.46-1.89,4.3-3.92,6.91a18.22,18.22,0,0,0,3.17-4.33c1-1.69,4.36-6.45,4.87-6.71S148.74,169.15,148.61,169Z"/>
                  </g>
                  <path class="cls-55" d="M138.07,175.43s-2.67,3-2.16,5.15,3.38,3.34,7.4-4.09c1.24-2.25-.45-1.23-.72-.85s-.7.57-.1-.28-.17-.31-.64.07-.3.07-.17-.24-.1-.24-.77.34-1.22,1.88-.68.58,1.42-2.35.81-1.87-.64.58-.24-.14.54-.92-.43,0-1.19,1.12-.89.5S139.22,173.93,138.07,175.43Z"/>
                </g>
                <g>
                  <path class="cls-53" d="M152.86,170s.26-1.07,1.42-.46a16.54,16.54,0,0,1,7.3,9.52c1.72,5.88-.81,7.31-2.43,7.31s-3.5-.2-3.5-5.52S152.86,170.5,152.86,170Z"/>
                  <path class="cls-30" d="M157.8,178s-.05,0-.05,0c-.84-6-4.31-8.54-4.34-8.56a.07.07,0,0,1,0-.07.05.05,0,0,1,.08,0s3.54,2.54,4.38,8.64a0,0,0,0,1,0,.05Z"/>
                  <g class="cls-48">
                    <path class="cls-54" d="M155.87,176.08c-.44-1.84-1.55-4.71-.75-4.51a1.27,1.27,0,0,1,.79.68c-.08-.13.1-.43.2-.51a1.52,1.52,0,0,1,1.16.12,10.92,10.92,0,0,0-3-2.33c-1.16-.61-1.42.46-1.42.46,0,.51,2.79,5.52,2.79,10.85,0,5.07,1.71,5.49,3.27,5.52C156.58,184.53,156.2,177.47,155.87,176.08Z"/>
                  </g>
                  <path class="cls-55" d="M158.91,174.68a12.8,12.8,0,0,1,2.67,6.48c.27,3.62-2,5.8-3.41,3.34s-1.52-6.28-1.89-8.42.54.41.6.88,0-1.29.17-.88.54,2,.51,1.22.1-1.43.31-.81.3-.21,0-1.37.77.41.81.82a3.8,3.8,0,0,0-.17-.95c-.18-.48.71.34.71.71S159.08,175,158.91,174.68Z"/>
                </g>
                <g>
                  <path class="cls-53" d="M150.38,171.37s.66-2.05,1.82-2.1,1.88,1.43,2.54,4,1.67,6.4,1.67,8.29-1.11,5.68-3.5,5.68-2.88-3.73-2.83-6.34.61-6.5.55-7.42A15.87,15.87,0,0,1,150.38,171.37Z"/>
                  <path class="cls-30" d="M152.79,174.69s-.63-5.38-.64-5.41,0-.05,0-.06a.06.06,0,0,1,.06,0s.56,5.43.53,5.43Z"/>
                  <g class="cls-48">
                    <path class="cls-54" d="M152.2,169.27c-1.16,0-1.82,2.1-1.82,2.1a15.87,15.87,0,0,0,.25,2.15,17.11,17.11,0,0,1-.12,1.87c.16-.83.34-1.82.56-2.86.54-2.63,1.42-1,1.46,0s0-.17.4-1.19,1.39,1.36,2.27,3.78c-.16-.65-.32-1.27-.46-1.84C154.08,170.7,153.37,169.22,152.2,169.27Z"/>
                  </g>
                  <path class="cls-55" d="M150.84,179.52s-1.12,6.21,1.35,6.89,3.84-2.32,3.41-6.41-2-4.95-2.36-3.61-.34-.48-.38.1-.1.13-.3-.65-.51.34-.61,1.67-.27,0-.3-.92S151.21,177.82,150.84,179.52Z"/>
                </g>
                <g>
                  <path class="cls-53" d="M148.71,169.74c.52-.46,1.13-.73,1.62-.09.69.9.47,2.84.3,3.87-.3,1.89-2.17,13.41-7.09,12.69,0,0-2.63-1.13-1.22-6.19,1-3.72,3.09-6.49,5.54-9.36A6.89,6.89,0,0,1,148.71,169.74Z"/>
                  <g class="cls-50">
                    <path class="cls-54" d="M150.33,169.65c-.49-.64-1.1-.37-1.62.09a6.89,6.89,0,0,0-.85.92c-.9,1.05-1.74,2.08-2.5,3.15a9.86,9.86,0,0,1,2.29-2.08c1.11-.51-.67,3.37-1,5.11s1.41-3.93,2.37-4.3.88,4.58-.53,9.16a39,39,0,0,0,2.15-8.18C150.8,172.49,151,170.55,150.33,169.65Z"/>
                  </g>
                  <path class="cls-55" d="M144,177.27s-3.45,6.14-.61,8.36c1.93,1.09,5-2.66,5.71-8.09.37-2.55-.1-1.67-.64-.75s.1-1.26.1-1.5-.31.28-.95,1.27a16.58,16.58,0,0,0-1.42,2.76c-.17.48,1-3.14,1-3.86s-1.39,2-1.82,2.53.4-1.27.5-1.88-.37,0-.54.34-.13.14,0-.2-.24-.17-.68.41S144.28,176.21,144,177.27Z"/>
                  <path class="cls-30" d="M146.28,178.33h0s1.66-7.06,3.73-9c0,0,.06,0,.07,0a0,0,0,0,1,0,.07c-2.05,1.92-3.76,8.92-3.78,8.92Z"/>
                </g>
                <path class="cls-52" d="M146.55,168.61c-.12.12.43-.41.77.06s-.47.62,0,.62,1-.39.8.11-.13.67.28.54.54-.82-.2-1.33A1.27,1.27,0,0,0,146.55,168.61Z"/>
                <path class="cls-52" d="M149,169.53s.67-.11.74.17.07-.34.37,0,.53.2.53.46S150.3,168.67,149,169.53Z"/>
                <path class="cls-52" d="M154.45,169.42a1,1,0,0,1,.85-1,1.29,1.29,0,0,0-1.22,1c-.14,0-.74,0-.74.4.1.11.47-.4.94-.1S154.22,169.42,154.45,169.42Z"/>
              </g>
              <g>
                <path class="cls-23" d="M70.35,214.52h1.38c.43-9,.24-17.93,0-26.9,0-.57-.88-1-.86-.23C71.09,196.44,70.82,205.48,70.35,214.52Z"/>
                <g>
                  <g>
                    <path class="cls-24" d="M69.59,166.82a14.48,14.48,0,0,0,.88,3.66c.33,1.05.92,2.39,1.83,2.71a.21.21,0,0,0,.13.17,3.33,3.33,0,0,0,2-.32,14.81,14.81,0,0,0,2.59-.85,7.94,7.94,0,0,0,3.66-3.61c.3-.65.29-1.72-.58-1.65s-1.07-.11-1.74.24a3.53,3.53,0,0,0-.45-2c-.59-.76-1.63-.7-2.43-1.17-.44-.27-.9.5-1.37.32s-.94-1.05-1.44-1-1,.49-1.66.43c-.23,0-1.18,0-1.38.2C69.13,164.51,69.57,166.07,69.59,166.82Z"/>
                    <path class="cls-24" d="M57.65,170.61a1.86,1.86,0,0,0,1,1.43c1.9,1.24,4.29,1.48,6.43,1.69,1.31.13,5,1.1,4.76-1.72a13.9,13.9,0,0,0-.92-3.25,26.28,26.28,0,0,0-1.22-3.17c-.39-1.07-1-2.42-1.53-1.54-.72-.58-1.74-1.26-2.53-.64a1.5,1.5,0,0,0-.58,1.63c0,.14.57,1.72-.24,1.28a2.5,2.5,0,0,0-.7-.33c-.39-.06-1.18-.25-1.42.29a1.56,1.56,0,0,0-.17.75c0,.22.11,1.07-.29,1l-.61-.11a.77.77,0,0,0-1,.69,2.53,2.53,0,0,0,.53,1.28C58.65,170,57.64,169.91,57.65,170.61Z"/>
                    <path class="cls-25" d="M70.83,166.19c.11-.74,1-.2,1.07.3.17,1.06.28,2.16.49,3.21,0,.12.08.43.14.75.14-.93.38-1.87.53-2.75,0-.27.36,0,.32.18a11.78,11.78,0,0,0,0,3.08,45.81,45.81,0,0,1,1.87-4.24c.22-.48.83.18.65.61l-1,2.38A14.61,14.61,0,0,0,76,168.18c.33-.53,1.05.24.77.73a19.76,19.76,0,0,1-1.47,2.14l.08,0a8.18,8.18,0,0,0,2.15-1.44c.34-.32.85.43.52.76a9.13,9.13,0,0,1-1.83,1.41,6,6,0,0,1-2.09.92l-.19.24a.38.38,0,0,1-.46,0h0a.43.43,0,0,1-.44.14l-.15,0a.32.32,0,0,1-.46-.09A9.44,9.44,0,0,1,70.83,166.19Z"/>
                    <path class="cls-25" d="M62.32,171.44a24.51,24.51,0,0,0,3.79.78,16.71,16.71,0,0,1-3.45-3.05c-.19-.22,0-.62.22-.4,1,.81,2.14,1.46,3.22,2.15a10.64,10.64,0,0,0,2.05.9,11.36,11.36,0,0,0-1.08-1.21c-.91-.83-2.12-1.27-2.88-2.26-.15-.2-.16-.69.16-.67,1,.07,2,1,2.79,1.66a8,8,0,0,1,1,1,12.07,12.07,0,0,0-.92-1.71c-.33-.5-.74-2-1.34-2.09-.12,0-.25-.35-.08-.39.7-.16,1.4,1.21,1.75,1.72a13.87,13.87,0,0,1,2.45,4.7.5.5,0,0,1-.45.68.29.29,0,0,1-.34.21l-.22,0a.3.3,0,0,1-.2.05,27,27,0,0,1-6.51-1.67C62.17,171.73,62.11,171.39,62.32,171.44Z"/>
                    <path class="cls-26" d="M66.36,178.42a3.19,3.19,0,0,0,.2.64c-.09,0-.19,0-.19.17v.2a.53.53,0,0,0,0,.12c0,.18,0,.34,0,.5,0,1.16.24,2.32.39,3.45a12.13,12.13,0,0,0,.75,3.44c.69,1.46,1.81,2.62,3.23,2.52s3.61-.47,3.94-2.7.1-4.76.5-7.11l.13-.23s.1,0,.12,0l.09-.32c0-.16-.14-.41-.26-.27l0,.06s0,0,0,0,0,0,0,.05a6.93,6.93,0,0,0-1,1.78c-.1-.5-.21-1-.33-1.49-.06-.25-.29-.46-.46-.22a3.69,3.69,0,0,0-.44,1.49c-.06.37,0,1-.21.54s-.32-.57-.47-.87a6.41,6.41,0,0,0-1.64-2.41c-.15-.11-.32,0-.33.25a8.52,8.52,0,0,0,.32,2,9.66,9.66,0,0,1,.09,1.61A16.65,16.65,0,0,1,69,179c-.15-.33-.56-.37-.51.13a9,9,0,0,0,.39,1.74c-.72-.85-1.34-1.92-2.1-2.71C66.58,177.92,66.29,178.06,66.36,178.42Z"/>
                    <path class="cls-27" d="M68.37,176.11a4.51,4.51,0,0,0,3.55,1,3.87,3.87,0,0,0,2.67-1.06,3.53,3.53,0,0,0,.35-.26,2.28,2.28,0,0,0,.29-2.71A6.36,6.36,0,0,0,74,171.35a2.67,2.67,0,0,0-1.92-.64c-.74,0-1.38-.5-2.11-.16a2.63,2.63,0,0,1-1,.33,1.87,1.87,0,0,0-.74.07C66.15,171.91,66.87,174.87,68.37,176.11Z"/>
                    <path class="cls-24" d="M74.24,175.86a4.53,4.53,0,0,0,2.26,3.56A7.74,7.74,0,0,0,80.91,181c.89-.08,1.11-.64.83-1.35a7.56,7.56,0,0,0,1.42.12,2.53,2.53,0,0,0,1.16-.14c.59-.35.45-1,.27-1.61s-.81-1.24-.25-1.65c.25-.19.56-.29.73-.58.26-.45-.48-1.15-.86-1.53a1.32,1.32,0,0,0,.3-1.61c-.34-.71-1.31-.79-1.92-.75a20.5,20.5,0,0,0-3.5.3,10.29,10.29,0,0,0-1.57.39,3.62,3.62,0,0,1-1.54.36c-.09,0-.06.13,0,.18A2.48,2.48,0,0,0,74.24,175.86Z"/>
                    <path class="cls-24" d="M67.64,185.48c.62.57,1.33-.34,1.86-.6.79-.36,1.35.83,2,.51a1.4,1.4,0,0,0,.63-.6c.09-.18.16-.36.25-.53.28-.52.76-.13,1,.24s.61,1.13,1.2.88c.34-.14.58-.51.92-.64.69-.25,1,.21,1.62.28a.7.7,0,0,0,.88-.56c.32-1.25-1-3.21-1.52-4.15a10.76,10.76,0,0,0-1.86-2.58,9.52,9.52,0,0,0-1.14-1.07c-1-.92-2.4-1.64-3.48-1a6.18,6.18,0,0,0-2.64,4.51C67.11,181.79,66.34,184.27,67.64,185.48Z"/>
                    <path class="cls-24" d="M58.54,175.75a3.38,3.38,0,0,0,.67,1c.47.44,0,.94-.2,1.44-.73,2,.77,2.28,1.77,2.17.29,0,1.53-.28,1.45.5a4.58,4.58,0,0,0-.09,1.28c.15.68.49,1.06,1,1,.34,0,.65-.37,1-.54.55-.3.26.65.26,1.07S64.56,185,65,185c.72,0,1-1.29,1.29-2.11.41-1.4.92-2.76,1.25-4.2.23-1,.93-2.22.78-3.3a1.38,1.38,0,0,0-1.14-1.16l-.32,0a5.85,5.85,0,0,0-1.31-.33,18.26,18.26,0,0,0-2-.35c-1-.15-2.1-.11-3.13-.33-.51-.11-1.3-.32-1.72.35A2.15,2.15,0,0,0,58.54,175.75Z"/>
                    <path class="cls-25" d="M61.55,174.19c1.89.56,3.93-.07,5.86.2.29,0,.49.47.48.8a.62.62,0,0,1,.34.44,3.81,3.81,0,0,1-.26,2.05,10.16,10.16,0,0,0-.45,1.28c-.06.22-.24.39-.3.59s-.41,0-.42-.17,0-.36,0-.53a9.17,9.17,0,0,1-1.55,2.31c-.23.27-.55-.22-.5-.48a16.29,16.29,0,0,1,1.25-3c.12-.32.23-.69.34-1.06a22.46,22.46,0,0,0-2.88,2.59c-.15.17-.41-.21-.26-.39a13.06,13.06,0,0,1,2.06-2.25l0,0-1.25.15a12,12,0,0,0-1.57.11c-.22.06-.44-.38-.2-.46a9.39,9.39,0,0,0,1.42-.78l.14-.07a7.86,7.86,0,0,1-2.3-.43C61.18,174.91,61.05,174,61.55,174.19Z"/>
                    <path class="cls-25" d="M68.74,178.44c-.16.11-.39-.15-.28-.32.34-.53,1.78-2.51,2.79-2.6.17-.1.44,0,.59.26a.57.57,0,0,1,.08.13h0c.78.05,1.59,1,2.13,1.51a14,14,0,0,1,1.33,1.44,9.26,9.26,0,0,1,.77,1.66c0,.09-.05.17-.11.11a7.23,7.23,0,0,1-.63-.9,11.94,11.94,0,0,0-1.3-1.36c-.34-.33-.7-.65-1-1-.1-.09-.2-.15-.29-.22a9.65,9.65,0,0,0,.6,1,14.38,14.38,0,0,1,1.68,2.78c.09.22-.15.35-.26.16a26,26,0,0,0-2.68-3.69c0,.31,0,.61,0,.85a9.32,9.32,0,0,0,1.15,3.81c.19.27-.06.64-.31.4a6.68,6.68,0,0,1-1.32-3c-.14-.49-.29-1-.4-1.6a6.34,6.34,0,0,0-.4,1.45,13.44,13.44,0,0,0-.2,3.41c.07.4-.32.49-.52.2a6.33,6.33,0,0,1-.45-3.25,5.63,5.63,0,0,1,.17-1.42,2.57,2.57,0,0,0-.22.32,5,5,0,0,0-.54,1.47,13,13,0,0,0-.39,1.31c0,.24-.29.08-.34,0-.38-.83.06-2.09.42-2.93Z"/>
                    <path class="cls-25" d="M74.9,175.74a2.59,2.59,0,0,1,.72-1.81,3.75,3.75,0,0,1,2.08-.88c.46-.1.9-.23,1.37-.3s.92.28,1.27.12a.09.09,0,0,1,.09.11.7.7,0,0,1-.43.46h0l.25,0c.41-.05.8.91.32,1-.68.16-1.36.26-2,.37.5.13,1,.27,1.49.38.16,0,.27.45,0,.43a10.6,10.6,0,0,0-3.17-.19,2.65,2.65,0,0,1-.62.09l.31.19c.62.33,1.27.53,1.89.85.43.22.33,1.08-.19.82s-1.28-.51-1.9-.81a4.6,4.6,0,0,1-.75-.4c0,.11,0,.21.06.33a5.55,5.55,0,0,0,.86.95c.58.48,1.26,1.24,2,1.15.2,0,.32.37.09.42-.75.16-1.55-.42-2.17-.85a4.91,4.91,0,0,1-1.82-2C74.55,175.9,74.7,175.72,74.9,175.74Z"/>
                  </g>
                  <path class="cls-28" d="M73.94,172.69c.41.06.51.92,0,.84S73.43,172.62,73.94,172.69Z"/>
                  <path class="cls-28" d="M73.16,171.35c.54.08.66,1.19,0,1.09S72.5,171.25,73.16,171.35Z"/>
                  <path class="cls-28" d="M71.47,170.78c.31.05.38.69,0,.64S71.09,170.72,71.47,170.78Z"/>
                  <path class="cls-28" d="M70,170.53c.53.08.66,1.19,0,1.1S69.3,170.43,70,170.53Z"/>
                  <path class="cls-28" d="M68,171.17a.39.39,0,0,1,.41-.08.76.76,0,0,1,.48.69v.05a.44.44,0,0,1-.38.48h0A.73.73,0,0,1,68,171.17Z"/>
                  <path class="cls-28" d="M70.65,173.19a.66.66,0,0,1,.28.13c-.06-.09,0-.27.09-.24s.2.35,0,.32l0,0c.32.39.3,1.2-.32,1.11S69.88,173.08,70.65,173.19Z"/>
                  <path class="cls-28" d="M68.42,173.08c-.06-.4.11-.79.58-.72.65.1.85,1.34.22,1.46a.36.36,0,0,1-.43.26A.69.69,0,0,1,68.42,173.08Z"/>
                  <path class="cls-28" d="M72.65,174c.17,0,.21.38,0,.35S72.45,174,72.65,174Z"/>
                  <path class="cls-28" d="M72.1,172.21c.3,0,.53.46.54.78a.45.45,0,0,1-.54.49c-.3,0-.53-.46-.53-.78A.44.44,0,0,1,72.1,172.21Z"/>
                  <path class="cls-28" d="M73.77,174.79c.3,0,.37.67,0,.62S73.39,174.74,73.77,174.79Z"/>
                  <path class="cls-28" d="M74.86,172.14c.44.07.55,1,0,.91S74.32,172.07,74.86,172.14Z"/>
                  <path class="cls-28" d="M74.25,171.29c.16,0,.19.35,0,.32S74.06,171.27,74.25,171.29Z"/>
                  <path class="cls-28" d="M67.21,172.59c.63.09.78,1.4,0,1.29S66.44,172.48,67.21,172.59Z"/>
                  <path class="cls-28" d="M72.17,170l0,0a.7.7,0,0,1,.21.21.59.59,0,0,1,.1.21v0a.2.2,0,0,1,0,.07,1.13,1.13,0,0,1,0,.26h0a.43.43,0,0,1-.12.22.28.28,0,0,1-.31.06.66.66,0,0,1-.51-.54C71.51,170.16,71.84,169.82,72.17,170Z"/>
                </g>
              </g>
              <g>
                <path class="cls-23" d="M38.51,226.15h1.58c.5-10.31.29-20.64,0-31,0-.65-1-1.09-1-.26C39.36,205.33,39.05,215.75,38.51,226.15Z"/>
                <g>
                  <g>
                    <path class="cls-24" d="M37.64,171.24a16.17,16.17,0,0,0,1,4.21c.38,1.21,1.06,2.76,2.11,3.13a.23.23,0,0,0,.14.19,3.8,3.8,0,0,0,2.35-.37,17.72,17.72,0,0,0,3-1,9.19,9.19,0,0,0,4.21-4.15c.34-.75.33-2-.67-1.9s-1.24-.13-2,.28a4.07,4.07,0,0,0-.51-2.35c-.68-.87-1.88-.81-2.8-1.35-.5-.31-1,.58-1.58.37s-1.08-1.21-1.65-1.13-1.16.56-1.91.49c-.27,0-1.37,0-1.59.23C37.1,168.59,37.61,170.37,37.64,171.24Z"/>
                    <path class="cls-24" d="M23.89,175.6a2.15,2.15,0,0,0,1.17,1.65c2.18,1.43,4.94,1.7,7.4,1.95,1.51.14,5.79,1.26,5.48-2a15.87,15.87,0,0,0-1.06-3.74,27.54,27.54,0,0,0-1.4-3.65c-.44-1.24-1.17-2.79-1.76-1.77-.83-.67-2-1.45-2.91-.75a1.74,1.74,0,0,0-.67,1.88c0,.17.66,2-.27,1.48a2.73,2.73,0,0,0-.81-.38c-.45-.07-1.36-.29-1.64.33a1.75,1.75,0,0,0-.19.86c0,.26.13,1.24-.34,1.2l-.69-.12c-.5-.09-1.17.1-1.16.79a2.92,2.92,0,0,0,.61,1.47C25,174.93,23.88,174.8,23.89,175.6Z"/>
                    <path class="cls-25" d="M39.06,170.52c.12-.85,1.15-.23,1.23.35.2,1.22.32,2.47.57,3.69,0,.14.08.49.15.86.17-1.08.45-2.15.62-3.17,0-.3.41,0,.37.22A13.07,13.07,0,0,0,42,176a51.8,51.8,0,0,1,2.16-4.87c.25-.56.95.2.74.7-.39.91-.79,1.83-1.19,2.74A14.93,14.93,0,0,0,45,172.81c.38-.61,1.21.28.9.84a23.83,23.83,0,0,1-1.7,2.46l.09,0a9.62,9.62,0,0,0,2.48-1.66c.39-.37,1,.5.6.87a10.14,10.14,0,0,1-2.11,1.62,6.69,6.69,0,0,1-2.4,1.06l-.23.28a.42.42,0,0,1-.52,0h0a.52.52,0,0,1-.51.17l-.17,0a.37.37,0,0,1-.52-.11A10.8,10.8,0,0,1,39.06,170.52Z"/>
                    <path class="cls-25" d="M29.26,176.56a28.24,28.24,0,0,0,4.37.9,19,19,0,0,1-4-3.51c-.23-.26-.06-.72.25-.46,1.18.93,2.46,1.68,3.71,2.48A11.45,11.45,0,0,0,36,177a11.71,11.71,0,0,0-1.25-1.38c-1-1-2.44-1.47-3.32-2.61-.17-.23-.18-.79.19-.76,1.16.08,2.25,1.18,3.22,1.9A10.6,10.6,0,0,1,36,175.27a14.18,14.18,0,0,0-1.06-2c-.38-.57-.85-2.29-1.54-2.41-.14,0-.29-.39-.09-.44.8-.19,1.61,1.39,2,2a16.24,16.24,0,0,1,2.82,5.41.57.57,0,0,1-.52.79.33.33,0,0,1-.38.24l-.26,0a.33.33,0,0,1-.23,0,30.87,30.87,0,0,1-7.5-1.92C29.09,176.89,29,176.5,29.26,176.56Z"/>
                    <path class="cls-26" d="M33.91,184.59a4,4,0,0,0,.23.74c-.1,0-.21,0-.21.19s0,.16,0,.24a.59.59,0,0,0,0,.14c0,.2,0,.39,0,.57,0,1.34.28,2.68.45,4a13.58,13.58,0,0,0,.86,4c.79,1.68,2.08,3,3.72,2.91s4.16-.55,4.54-3.12.1-5.47.57-8.18a2.43,2.43,0,0,1,.15-.26c.05.05.11.05.13-.05s.07-.25.11-.37-.17-.47-.3-.31a.23.23,0,0,1,0,.07s0,0,0,0a.11.11,0,0,0,0,.06,7.89,7.89,0,0,0-1.18,2c-.12-.57-.24-1.15-.38-1.72-.07-.28-.34-.53-.53-.25a4.26,4.26,0,0,0-.51,1.72c-.06.42,0,1.1-.24.62a9.56,9.56,0,0,1-.53-1,7.49,7.49,0,0,0-1.89-2.77c-.17-.14-.38,0-.39.28a10,10,0,0,0,.37,2.33,11.66,11.66,0,0,1,.1,1.86,18.59,18.59,0,0,1-1.9-3.09c-.17-.39-.66-.43-.59.14a10.88,10.88,0,0,0,.45,2c-.84-1-1.55-2.22-2.42-3.12C34.17,184,33.84,184.19,33.91,184.59Z"/>
                    <path class="cls-27" d="M36.23,181.94a5.16,5.16,0,0,0,4.08,1.17,4.43,4.43,0,0,0,3.07-1.22,4,4,0,0,0,.41-.3,2.63,2.63,0,0,0,.34-3.12,7.17,7.17,0,0,0-1.4-2,3.05,3.05,0,0,0-2.21-.74c-.85,0-1.59-.57-2.43-.18a2.89,2.89,0,0,1-1.2.37A2.22,2.22,0,0,0,36,176C33.67,177.1,34.5,180.51,36.23,181.94Z"/>
                    <path class="cls-24" d="M43,181.64a5.19,5.19,0,0,0,2.6,4.1c1.48.95,3.32,1.95,5.07,1.81,1-.09,1.28-.73,1-1.55a9,9,0,0,0,1.64.14,3,3,0,0,0,1.33-.17c.68-.4.52-1.13.31-1.85-.17-.55-.93-1.43-.28-1.9.28-.21.64-.33.83-.66.3-.52-.55-1.33-1-1.76a1.53,1.53,0,0,0,.35-1.86c-.39-.82-1.51-.9-2.21-.86a23.86,23.86,0,0,0-4,.34,13.93,13.93,0,0,0-1.8.45,4.26,4.26,0,0,1-1.77.42c-.1,0-.07.14,0,.21A2.85,2.85,0,0,0,43,181.64Z"/>
                    <path class="cls-24" d="M35.39,192.72c.72.66,1.53-.39,2.14-.69.91-.42,1.55.95,2.33.59a1.62,1.62,0,0,0,.73-.69c.1-.21.19-.42.29-.62.32-.59.87-.14,1.1.29s.71,1.29,1.38,1c.4-.16.67-.59,1.06-.73.8-.3,1.17.24,1.88.31a.79.79,0,0,0,1-.64c.37-1.44-1.16-3.69-1.75-4.77a11.91,11.91,0,0,0-2.14-3,10.85,10.85,0,0,0-1.31-1.23c-1.19-1.06-2.76-1.88-4-1.13a7.13,7.13,0,0,0-3,5.19C34.77,188.48,33.9,191.33,35.39,192.72Z"/>
                    <path class="cls-24" d="M24.91,181.52a4.15,4.15,0,0,0,.77,1.14c.54.51,0,1.08-.23,1.66-.84,2.27.89,2.62,2,2.5.34,0,1.76-.32,1.67.57a5.65,5.65,0,0,0-.1,1.48c.17.78.56,1.21,1.15,1.14.39,0,.74-.43,1.11-.63.64-.35.31.75.31,1.24s.21,1.6.74,1.58c.83,0,1.21-1.48,1.48-2.42.48-1.62,1.06-3.18,1.45-4.85.26-1.15,1.07-2.55.89-3.79a1.57,1.57,0,0,0-1.31-1.33l-.36-.06a6.69,6.69,0,0,0-1.51-.38,21.86,21.86,0,0,0-2.26-.41c-1.2-.17-2.42-.12-3.6-.38-.59-.12-1.5-.36-2,.4A2.49,2.49,0,0,0,24.91,181.52Z"/>
                    <path class="cls-25" d="M28.38,179.73c2.17.64,4.53-.08,6.75.22.33,0,.56.55.54.93a.73.73,0,0,1,.4.5,4.45,4.45,0,0,1-.3,2.36,13.58,13.58,0,0,0-.52,1.48c-.06.24-.27.44-.35.68s-.46.06-.48-.2,0-.42,0-.61a10.76,10.76,0,0,1-1.78,2.66c-.26.31-.64-.26-.58-.56a19.52,19.52,0,0,1,1.44-3.47c.14-.37.26-.8.39-1.22a25.61,25.61,0,0,0-3.31,3c-.17.2-.47-.24-.3-.45a15,15,0,0,1,2.37-2.58l.06,0-1.44.17a12.24,12.24,0,0,0-1.81.13c-.25.07-.51-.43-.23-.54a10,10,0,0,0,1.63-.89l.17-.08a9.13,9.13,0,0,1-2.65-.49C28,180.55,27.8,179.56,28.38,179.73Z"/>
                    <path class="cls-25" d="M36.65,184.62c-.18.13-.44-.18-.31-.37.38-.61,2-2.89,3.2-3,.2-.11.52.05.68.31a.42.42,0,0,1,.09.14h0c.9,0,1.83,1.13,2.45,1.73a17.09,17.09,0,0,1,1.52,1.66,10.19,10.19,0,0,1,.9,1.92c0,.1-.06.19-.13.11a8.52,8.52,0,0,1-.73-1,12.33,12.33,0,0,0-1.49-1.57c-.39-.39-.81-.75-1.21-1.1l-.34-.25c.23.38.45.77.69,1.1a15.75,15.75,0,0,1,1.93,3.19c.11.25-.17.41-.29.18a30.06,30.06,0,0,0-3.09-4.24,9.2,9.2,0,0,0,.06,1,10.92,10.92,0,0,0,1.32,4.39c.23.31-.06.73-.35.46A7.64,7.64,0,0,1,40,185.81c-.16-.57-.33-1.2-.46-1.85a8.15,8.15,0,0,0-.47,1.68,15.53,15.53,0,0,0-.22,3.91c.07.46-.37.57-.6.24-.62-.93-.54-2.64-.52-3.74a6.88,6.88,0,0,1,.19-1.64,4,4,0,0,0-.24.37,6.13,6.13,0,0,0-.63,1.69c-.1.46-.4,1.05-.45,1.51,0,.27-.33.09-.39,0-.43-1,.07-2.41.48-3.37Z"/>
                    <path class="cls-25" d="M43.74,181.51a3,3,0,0,1,.84-2.08,4.2,4.2,0,0,1,2.38-1c.54-.11,1-.26,1.58-.34s1.06.32,1.47.14a.09.09,0,0,1,.1.12.8.8,0,0,1-.49.54h0l.29,0c.47,0,.93,1.05.37,1.16-.78.18-1.56.31-2.34.43.58.14,1.15.31,1.72.44.19,0,.31.51,0,.49-1.11-.07-2.56-.52-3.65-.22a2.22,2.22,0,0,1-.71.1,2.64,2.64,0,0,0,.35.23c.71.38,1.46.61,2.17,1,.5.26.39,1.24-.21,1s-1.47-.59-2.19-.93a5.28,5.28,0,0,1-.86-.47c0,.13,0,.25.07.38a6.07,6.07,0,0,0,1,1.1c.68.55,1.46,1.43,2.32,1.32.22,0,.36.43.11.48a3.68,3.68,0,0,1-2.51-1A5.63,5.63,0,0,1,43.48,182C43.34,181.7,43.52,181.48,43.74,181.51Z"/>
                  </g>
                  <path class="cls-28" d="M42.64,178c.48.07.59,1.06,0,1S42.06,177.91,42.64,178Z"/>
                  <path class="cls-28" d="M41.74,176.46c.62.08.76,1.37,0,1.26S41,176.34,41.74,176.46Z"/>
                  <path class="cls-28" d="M39.8,175.8c.35,0,.44.8,0,.74S39.36,175.73,39.8,175.8Z"/>
                  <path class="cls-28" d="M38.06,175.51c.61.09.76,1.37,0,1.27S37.3,175.4,38.06,175.51Z"/>
                  <path class="cls-28" d="M35.81,176.25a.49.49,0,0,1,.48-.1.9.9,0,0,1,.55.8V177a.51.51,0,0,1-.44.55h0C35.86,177.54,35.36,176.72,35.81,176.25Z"/>
                  <path class="cls-28" d="M38.86,178.58a.53.53,0,0,1,.31.15c-.07-.11,0-.31.11-.29s.22.41,0,.38l0,0c.36.44.33,1.37-.38,1.27S38,178.44,38.86,178.58Z"/>
                  <path class="cls-28" d="M36.28,178.44c-.06-.45.13-.9.68-.82.74.12,1,1.54.25,1.69a.43.43,0,0,1-.5.29A.81.81,0,0,1,36.28,178.44Z"/>
                  <path class="cls-28" d="M41.16,179.52c.2,0,.24.43,0,.4S40.92,179.48,41.16,179.52Z"/>
                  <path class="cls-28" d="M40.52,177.45c.35.05.61.53.62.89a.51.51,0,0,1-.62.57c-.34,0-.61-.53-.61-.9A.51.51,0,0,1,40.52,177.45Z"/>
                  <path class="cls-28" d="M42.45,180.41c.34.05.42.78,0,.72S42,180.35,42.45,180.41Z"/>
                  <path class="cls-28" d="M43.7,177.36c.51.08.63,1.14,0,1.06S43.08,177.29,43.7,177.36Z"/>
                  <path class="cls-28" d="M43,176.39c.19,0,.23.4,0,.37S42.78,176.36,43,176.39Z"/>
                  <path class="cls-28" d="M34.89,177.89c.73.1.9,1.61,0,1.48C34.17,179.27,34,177.76,34.89,177.89Z"/>
                  <path class="cls-28" d="M40.6,175l0,0a.76.76,0,0,1,.23.24.5.5,0,0,1,.12.24s0,0,0,0,0,.06,0,.08a1.41,1.41,0,0,1,0,.29s0,0,0,0h0a.47.47,0,0,1-.13.25.33.33,0,0,1-.36.07.76.76,0,0,1-.58-.62C39.84,175.09,40.22,174.7,40.6,175Z"/>
                </g>
              </g>
              <g>
                <g>
                  <path class="cls-23" d="M177.77,230.75c.21,1.86.39,3.84.63,5.8h1.49c-.3-1.6-.64-3.18-.83-4.71q-.88-6.84-1.26-13.74c-.47-8.43-.78-16.88-.57-25.33,0-.6-.7-.28-.71.19-.25,8.49-.41,17,.16,25.44Q177.1,224.6,177.77,230.75Z"/>
                  <g>
                    <path class="cls-26" d="M184.41,212c-.39.07-.75.46-1.13.62,0-.06.05-.12.07-.17s0-.38-.15-.37a4.7,4.7,0,0,0-3,1.9,2,2,0,0,0,.05-.42c0-.2-.2-.11-.26,0-.32.6-.8,1-1.11,1.64s-.59,1.32-.87,2a8.55,8.55,0,0,0-.52,1.83.85.85,0,0,0,0,.4c0,.05,0,.11,0,.16h0c-.09,0-.17.14-.08.19l.06.05,0,0c0,.14,0,.28,0,.41a.21.21,0,0,0,.18.23,4.63,4.63,0,0,0,4.45-1.89,12.18,12.18,0,0,0,1.49-3,14.94,14.94,0,0,0,1.05-3.3C184.67,212.13,184.59,212,184.41,212Z"/>
                    <path class="cls-58" d="M183,213.8c-.74.81-1.44,1.67-2.18,2.47a21.63,21.63,0,0,0-3.24,4.21l.08,0a4.63,4.63,0,0,0,4.45-1.89,12.18,12.18,0,0,0,1.49-3,14.94,14.94,0,0,0,1.05-3.3.25.25,0,0,0,0-.15A10.84,10.84,0,0,1,183,213.8Z"/>
                  </g>
                  <g>
                    <path class="cls-26" d="M168.21,204.14a14.71,14.71,0,0,0,1.72,2.89,11.14,11.14,0,0,0,2.08,2.48,4.42,4.42,0,0,0,4.72.55.24.24,0,0,0,.13-.27c-.05-.13-.09-.26-.13-.39a.05.05,0,0,0,0,0l.05-.07c.08-.08,0-.22-.11-.16l0,0a.59.59,0,0,1-.06-.16.82.82,0,0,0,0-.4,8,8,0,0,0-.9-1.62c-.4-.57-.81-1.16-1.26-1.69s-1-.78-1.43-1.27c-.08-.08-.29-.11-.25.09s.09.26.13.4a4.29,4.29,0,0,0-3.28-1c-.17,0-.15.29-.06.4a1.71,1.71,0,0,0,.11.14c-.41,0-.83-.31-1.23-.26C168.2,203.8,168.15,204,168.21,204.14Z"/>
                    <path class="cls-58" d="M170.13,205.09c.89.57,1.74,1.21,2.64,1.76a19.37,19.37,0,0,1,4,3.16l-.07.05a4.42,4.42,0,0,1-4.72-.55,11.14,11.14,0,0,1-2.08-2.48,14.71,14.71,0,0,1-1.72-2.89.44.44,0,0,1,0-.15A10.19,10.19,0,0,0,170.13,205.09Z"/>
                  </g>
                </g>
                <g>
                  <g>
                    <path class="cls-24" d="M178.22,173.23c-.17-.17-.95-.18-1.15-.17-.54.05-.89-.28-1.38-.35s-.81.66-1.2.81-.77-.48-1.14-.27c-.67.4-1.54.35-2,1a3,3,0,0,0-.37,1.7c-.56-.29-.83-.14-1.45-.2s-.73.84-.48,1.38a6.59,6.59,0,0,0,3,3,13,13,0,0,0,2.16.71,2.74,2.74,0,0,0,1.7.26A.16.16,0,0,0,176,181c.76-.27,1.25-1.39,1.52-2.27a11.44,11.44,0,0,0,.73-3C178.3,175,178.67,173.72,178.22,173.23Z"/>
                    <path class="cls-24" d="M187,178.23a2.1,2.1,0,0,0,.44-1.06c0-.5-.48-.64-.83-.58l-.51.08c-.34,0-.24-.67-.24-.85a1.4,1.4,0,0,0-.15-.64c-.19-.44-.86-.28-1.18-.23a1.83,1.83,0,0,0-.58.28c-.67.36-.23-.95-.2-1.07a1.25,1.25,0,0,0-.49-1.37c-.64-.51-1.51.06-2.1.55-.42-.74-1,.38-1.27,1.28a18.86,18.86,0,0,0-1,2.63,12.15,12.15,0,0,0-.77,2.71c-.22,2.35,2.88,1.54,4,1.44a11.92,11.92,0,0,0,5.35-1.41,1.57,1.57,0,0,0,.84-1.2C188.25,178.22,187.4,178.31,187,178.23Z"/>
                    <path class="cls-25" d="M177.26,175.12c-.1-.62-.83-.17-.9.25-.13.88-.22,1.8-.41,2.66,0,.11-.06.36-.11.64-.12-.79-.32-1.56-.44-2.31,0-.21-.3,0-.27.17a9.49,9.49,0,0,1,0,2.55,37.07,37.07,0,0,0-1.56-3.53c-.18-.4-.7.15-.54.52.28.66.58,1.32.86,2a12,12,0,0,1-.93-1.28c-.27-.44-.87.21-.64.61a16,16,0,0,0,1.22,1.78l-.06,0a6.61,6.61,0,0,1-1.79-1.2c-.28-.26-.71.36-.44.64a7.35,7.35,0,0,0,1.53,1.16,4.76,4.76,0,0,0,1.74.77,1.56,1.56,0,0,0,.16.2.3.3,0,0,0,.38,0h0a.37.37,0,0,0,.37.12l.13,0a.27.27,0,0,0,.38-.08A7.86,7.86,0,0,0,177.26,175.12Z"/>
                    <path class="cls-25" d="M184.35,179.49a21.48,21.48,0,0,1-3.17.65,13.91,13.91,0,0,0,2.88-2.54c.16-.19,0-.52-.19-.33a31.86,31.86,0,0,1-2.67,1.79,8.58,8.58,0,0,1-1.71.74,7.75,7.75,0,0,1,.9-1c.75-.69,1.76-1.06,2.4-1.9.12-.15.13-.57-.13-.54-.84.06-1.64.85-2.33,1.37a7.53,7.53,0,0,0-.87.82,10.71,10.71,0,0,1,.77-1.42c.27-.42.61-1.66,1.11-1.74.11,0,.22-.29.07-.33-.58-.13-1.17,1-1.46,1.43a11.79,11.79,0,0,0-2,3.92.41.41,0,0,0,.37.57.24.24,0,0,0,.28.17l.19,0a.18.18,0,0,0,.16,0,23.06,23.06,0,0,0,5.43-1.39C184.47,179.73,184.52,179.44,184.35,179.49Z"/>
                    <path class="cls-26" d="M180.63,185c-.64.66-1.15,1.55-1.75,2.26a6.94,6.94,0,0,0,.32-1.45c.05-.41-.3-.39-.42-.11A13.63,13.63,0,0,1,177.4,188a7.54,7.54,0,0,1,.08-1.34,7.19,7.19,0,0,0,.26-1.69c0-.17-.16-.3-.28-.2a5.36,5.36,0,0,0-1.37,2c-.12.25-.24.5-.38.73s-.13-.15-.18-.46a3,3,0,0,0-.36-1.23c-.15-.21-.34,0-.39.17-.1.41-.19.83-.27,1.25a5.66,5.66,0,0,0-.85-1.48l0,0s0,0,0,0l0,0c-.09-.12-.25.1-.21.23s.05.17.07.26.07.07.1,0l.11.19c.34,2,.13,3.95.42,5.92s2.13,2.17,3.28,2.25,2.12-.89,2.69-2.1a9.73,9.73,0,0,0,.62-2.87c.12-.94.29-1.9.33-2.87,0-.13,0-.27,0-.41a.3.3,0,0,0,0-.1V186c0-.13-.08-.15-.16-.12a2,2,0,0,0,.17-.54C181,185,180.79,184.88,180.63,185Z"/>
                    <path class="cls-27" d="M179.44,179.08a1.57,1.57,0,0,0-.61-.06,2,2,0,0,1-.87-.28c-.61-.27-1.15.11-1.77.14a2.18,2.18,0,0,0-1.59.53,5,5,0,0,0-1,1.46,1.9,1.9,0,0,0,.25,2.26,1.84,1.84,0,0,0,.29.21,3.22,3.22,0,0,0,2.22.89,3.73,3.73,0,0,0,3-.86C180.55,182.35,181.16,179.88,179.44,179.08Z"/>
                    <path class="cls-24" d="M173,180.9c0-.06.08-.18,0-.16a2.87,2.87,0,0,1-1.27-.31,11.91,11.91,0,0,0-1.31-.32,16.85,16.85,0,0,0-2.92-.25c-.51,0-1.32,0-1.6.62a1.13,1.13,0,0,0,.25,1.35c-.31.32-.93.9-.72,1.27s.41.33.61.48c.47.35-.08,1-.2,1.38s-.28,1,.21,1.34a2.47,2.47,0,0,0,1,.12,8,8,0,0,0,1.19-.1c-.23.6,0,1.06.69,1.12a6.46,6.46,0,0,0,3.67-1.31,3.79,3.79,0,0,0,1.88-3A2,2,0,0,0,173,180.9Z"/>
                    <path class="cls-24" d="M180.15,186.78A5.13,5.13,0,0,0,178,183c-.9-.55-2,0-2.91.81-.34.26-.64.6-1,.89a9.1,9.1,0,0,0-1.54,2.16c-.43.77-1.53,2.42-1.27,3.45a.58.58,0,0,0,.73.47c.51-.06.78-.44,1.36-.23.28.1.48.41.76.53.49.21.78-.33,1-.73s.57-.64.8-.21l.21.45a1.07,1.07,0,0,0,.52.49c.57.27,1-.72,1.7-.42.43.21,1,1,1.53.5C181,190.17,180.36,188.11,180.15,186.78Z"/>
                    <path class="cls-24" d="M187.31,181.24c-.35-.56-1-.38-1.43-.29-.86.19-1.74.15-2.62.27-.54.08-1.08.16-1.63.29a5.07,5.07,0,0,0-1.08.29l-.27,0a1.13,1.13,0,0,0-.94,1c-.14.91.45,1.93.64,2.75.28,1.21.7,2.33,1.05,3.51.19.68.46,1.74,1.07,1.75.38,0,.54-.7.53-1.14s-.23-1.15.23-.9c.26.15.52.43.8.46.43.05.71-.26.83-.83a4.32,4.32,0,0,0-.07-1.07c-.06-.64,1-.43,1.2-.4.84.08,2.09-.18,1.49-1.82-.17-.42-.56-.83-.17-1.2a2.73,2.73,0,0,0,.55-.83A1.8,1.8,0,0,0,187.31,181.24Z"/>
                    <path class="cls-25" d="M185,181.78c-1.57.47-3.27-.06-4.88.16-.24,0-.4.4-.4.67a.51.51,0,0,0-.28.37,3.2,3.2,0,0,0,.21,1.7,8,8,0,0,1,.38,1.07c.05.18.2.33.25.49s.34,0,.35-.14a3.08,3.08,0,0,0,0-.43,8.61,8.61,0,0,0,1.29,1.92c.2.22.46-.19.42-.41a14.12,14.12,0,0,0-1-2.51c-.1-.28-.19-.57-.29-.89a17.42,17.42,0,0,1,2.4,2.16c.13.14.35-.17.21-.32a10.2,10.2,0,0,0-1.71-1.87l0,0,1,.13a9.6,9.6,0,0,1,1.31.08c.19.06.37-.31.17-.38a6.79,6.79,0,0,1-1.18-.65l-.12-.05a6.52,6.52,0,0,0,1.91-.36C185.29,182.37,185.4,181.66,185,181.78Z"/>
                    <path class="cls-25" d="M179,185.31c.12.11.32-.12.23-.26-.28-.44-1.49-2.09-2.32-2.16a.42.42,0,0,0-.5.21l-.06.11h0c-.65,0-1.32.82-1.77,1.26a11.43,11.43,0,0,0-1.1,1.2,6.64,6.64,0,0,0-.64,1.38c0,.08,0,.14.09.09a6.53,6.53,0,0,0,.52-.74,8.39,8.39,0,0,1,1.08-1.14c.29-.28.59-.54.88-.79a2,2,0,0,1,.24-.19c-.17.28-.33.56-.5.8a12.47,12.47,0,0,0-1.4,2.31c-.07.18.12.3.22.14a22,22,0,0,1,2.23-3.08c0,.26,0,.51,0,.72a8.07,8.07,0,0,1-1,3.17c-.18.22,0,.52.25.33a5.59,5.59,0,0,0,1.1-2.49c.11-.41.24-.87.33-1.34a5.42,5.42,0,0,1,.34,1.21,11.25,11.25,0,0,1,.16,2.84c-.06.33.27.41.43.17a5.36,5.36,0,0,0,.39-2.71,6.45,6.45,0,0,0-.15-1.18l.18.26a4.31,4.31,0,0,1,.45,1.23,10,10,0,0,1,.33,1.1c0,.19.23.07.28,0a3.48,3.48,0,0,0-.35-2.45Z"/>
                    <path class="cls-25" d="M173.86,183.07a2.15,2.15,0,0,0-.6-1.51,3.09,3.09,0,0,0-1.72-.74c-.39-.07-.76-.18-1.15-.24s-.76.24-1,.1a.07.07,0,0,0-.08.09.61.61,0,0,0,.36.39h0l-.22,0c-.34,0-.66.76-.26.85.57.13,1.13.21,1.7.31l-1.25.31c-.14,0-.22.37,0,.36a8.49,8.49,0,0,1,2.65-.16,2.26,2.26,0,0,0,.51.08,1.75,1.75,0,0,1-.25.16c-.51.27-1.06.44-1.58.7-.36.18-.28.9.16.69s1.06-.43,1.59-.67a5.66,5.66,0,0,0,.62-.34,2.16,2.16,0,0,0,0,.27,4.24,4.24,0,0,1-.72.8c-.48.39-1.05,1-1.68.95-.16,0-.26.31-.07.35a2.66,2.66,0,0,0,1.81-.71,4,4,0,0,0,1.5-1.66C174.16,183.21,174,183.05,173.86,183.07Z"/>
                  </g>
                  <path class="cls-28" d="M174.66,180.53c-.34.05-.42.77,0,.71S175.09,180.47,174.66,180.53Z"/>
                  <path class="cls-28" d="M175.31,179.41c-.44.06-.55,1,0,.91S175.86,179.33,175.31,179.41Z"/>
                  <path class="cls-28" d="M176.72,178.93c-.26,0-.32.58,0,.54S177,178.89,176.72,178.93Z"/>
                  <path class="cls-28" d="M178,178.73c-.45.06-.56,1,0,.91S178.53,178.65,178,178.73Z"/>
                  <path class="cls-28" d="M179.6,179.26a.3.3,0,0,0-.34-.06.63.63,0,0,0-.4.58v0a.37.37,0,0,0,.32.4h0A.6.6,0,0,0,179.6,179.26Z"/>
                  <path class="cls-28" d="M177.4,180.94a.48.48,0,0,0-.22.12c0-.09,0-.22-.09-.21s-.16.29,0,.27h0c-.27.32-.24,1,.27.92S178.05,180.85,177.4,180.94Z"/>
                  <path class="cls-28" d="M179.27,180.85c0-.32-.1-.65-.49-.59-.54.08-.7,1.11-.18,1.21a.31.31,0,0,0,.36.22A.58.58,0,0,0,179.27,180.85Z"/>
                  <path class="cls-28" d="M175.73,181.63c-.13,0-.17.31,0,.29S175.91,181.6,175.73,181.63Z"/>
                  <path class="cls-28" d="M176.2,180.13c-.25,0-.44.38-.45.65a.37.37,0,0,0,.44.41.68.68,0,0,0,.45-.65A.37.37,0,0,0,176.2,180.13Z"/>
                  <path class="cls-28" d="M174.81,182.27c-.25,0-.31.56,0,.52S175.11,182.23,174.81,182.27Z"/>
                  <path class="cls-28" d="M173.9,180.07c-.37.06-.46.83,0,.76S174.35,180,173.9,180.07Z"/>
                  <path class="cls-28" d="M174.41,179.37c-.13,0-.16.28,0,.26S174.56,179.35,174.41,179.37Z"/>
                  <path class="cls-28" d="M180.27,180.45c-.52.08-.64,1.16,0,1.07S180.91,180.35,180.27,180.45Z"/>
                  <path class="cls-28" d="M176.14,178.32l0,0a.73.73,0,0,0-.18.17.53.53,0,0,0-.08.17,0,0,0,0,0,0,0s0,0,0,.06a1.34,1.34,0,0,0,0,.2v0h0a.35.35,0,0,0,.1.18.24.24,0,0,0,.25.05.56.56,0,0,0,.43-.45C176.69,178.42,176.42,178.14,176.14,178.32Z"/>
                </g>
              </g>
              <g>
                <path class="cls-59" d="M59.59,225.86s16-3,15.61-11.37S59.59,225.86,59.59,225.86Z"/>
                <path class="cls-60" d="M56.47,229.23s8.92-20.84,15.61-26.14-11.6-5.74-15.61,16.07Z"/>
                <path class="cls-61" d="M55.8,226.42s4.5-16.21-12.27-17C36,209,55.8,226.42,55.8,226.42Z"/>
              </g>
            </g>
            <g>
              <g>
                <g>
                  <rect class="cls-62" x="57.19" y="120.91" width="70.41" height="2.84"/>
                  <rect class="cls-63" x="57.19" y="120.91" width="70.41" height="0.57"/>
                  <rect class="cls-64" x="57.19" y="121.48" width="70.41" height="1.7"/>
                  <rect class="cls-62" x="57.19" y="129.36" width="70.41" height="2.84"/>
                  <rect class="cls-63" x="57.19" y="129.36" width="70.41" height="0.57"/>
                  <rect class="cls-64" x="57.19" y="129.93" width="70.41" height="1.7"/>
                  <rect class="cls-62" x="58.18" y="137.79" width="69.41" height="2.88"/>
                  <rect class="cls-63" x="58.18" y="137.79" width="69.41" height="0.58"/>
                  <rect class="cls-64" x="58.18" y="138.37" width="69.41" height="1.73"/>
                  <rect class="cls-65" x="101.59" y="118.95" width="3.85" height="23.93"/>
                  <polygon class="cls-66" points="105.01 119.53 101.59 142.89 101.59 118.95 105.44 118.95 105.01 119.53"/>
                  <polygon class="cls-67" points="102.02 142.89 101.59 142.89 101.59 118.95 102.02 119.53 102.02 142.89"/>
                  <rect class="cls-68" x="102.02" y="119.53" width="2.99" height="23.36"/>
                  <rect class="cls-65" x="77.13" y="118.76" width="3.85" height="23.93"/>
                  <polygon class="cls-66" points="80.55 119.33 77.13 142.69 77.13 118.76 80.97 118.76 80.55 119.33"/>
                  <polygon class="cls-67" points="77.56 142.69 77.13 142.69 77.13 118.76 77.56 119.33 77.56 142.69"/>
                  <rect class="cls-68" x="77.56" y="119.33" width="2.99" height="23.36"/>
                  <rect class="cls-65" x="123.25" y="118.95" width="3.85" height="23.93"/>
                  <polygon class="cls-66" points="126.67 119.53 123.25 142.89 123.25 118.95 127.1 118.95 126.67 119.53"/>
                  <polygon class="cls-67" points="123.68 142.89 123.25 142.89 123.25 118.95 123.68 119.53 123.68 142.89"/>
                  <rect class="cls-68" x="123.68" y="119.53" width="2.99" height="23.36"/>
                </g>
                <g>
                  <rect class="cls-62" x="1.84" y="120.74" width="56.34" height="2.98"/>
                  <rect class="cls-63" x="1.84" y="120.74" width="56.34" height="0.6"/>
                  <rect class="cls-64" x="1.84" y="121.34" width="56.34" height="1.79"/>
                  <rect class="cls-62" x="1.84" y="129.28" width="56.34" height="2.98"/>
                  <rect class="cls-63" x="1.84" y="129.28" width="56.34" height="0.6"/>
                  <rect class="cls-64" x="1.84" y="129.88" width="56.34" height="1.79"/>
                  <rect class="cls-62" x="1.84" y="137.82" width="56.34" height="2.98"/>
                  <rect class="cls-63" x="1.84" y="137.82" width="56.34" height="0.6"/>
                  <rect class="cls-64" x="1.84" y="138.42" width="56.34" height="1.79"/>
                  <rect class="cls-65" x="2.57" y="118.36" width="3.85" height="24.72"/>
                  <polygon class="cls-66" points="5.98 118.96 2.56 143.09 2.56 118.36 6.41 118.36 5.98 118.96"/>
                  <polygon class="cls-67" points="2.99 143.09 2.56 143.09 2.56 118.36 2.99 118.96 2.99 143.09"/>
                  <rect class="cls-68" x="2.99" y="118.96" width="2.99" height="24.13"/>
                  <rect class="cls-65" x="28.2" y="118.36" width="3.85" height="24.72"/>
                  <polygon class="cls-66" points="31.62 118.96 28.2 143.09 28.2 118.36 32.05 118.36 31.62 118.96"/>
                  <polygon class="cls-67" points="28.63 143.09 28.2 143.09 28.2 118.36 28.63 118.96 28.63 143.09"/>
                  <rect class="cls-68" x="28.63" y="118.96" width="2.99" height="24.13"/>
                  <rect class="cls-65" x="53.84" y="118.36" width="3.85" height="24.72"/>
                  <polygon class="cls-66" points="57.26 118.96 53.84 143.09 53.84 118.36 57.69 118.36 57.26 118.96"/>
                  <polygon class="cls-67" points="54.27 143.09 53.84 143.09 53.84 118.36 54.27 118.96 54.27 143.09"/>
                  <rect class="cls-68" x="54.27" y="118.96" width="2.99" height="24.13"/>
                </g>
              </g>
              <g>
                <g>
                  <rect class="cls-62" x="178.15" y="120.91" width="47.21" height="2.84"/>
                  <rect class="cls-63" x="178.15" y="120.91" width="49" height="0.57"/>
                  <rect class="cls-64" x="178.15" y="121.48" width="48.62" height="1.7"/>
                  <rect class="cls-62" x="178.15" y="129.36" width="48.19" height="2.84"/>
                  <rect class="cls-63" x="178.15" y="129.36" width="48.02" height="0.57"/>
                  <rect class="cls-64" x="178.15" y="129.93" width="47" height="1.7"/>
                  <rect class="cls-62" x="179.14" y="137.79" width="47.37" height="2.88"/>
                  <rect class="cls-63" x="179.14" y="137.79" width="47.03" height="0.58"/>
                  <rect class="cls-64" x="179.14" y="138.37" width="46.69" height="1.73"/>
                  <rect class="cls-65" x="222.55" y="118.95" width="3.85" height="23.93"/>
                  <polygon class="cls-66" points="225.97 119.53 222.55 142.89 222.55 118.95 226.4 118.95 225.97 119.53"/>
                  <polygon class="cls-67" points="222.98 142.89 222.55 142.89 222.55 118.95 222.98 119.53 222.98 142.89"/>
                  <rect class="cls-68" x="222.98" y="119.53" width="2.99" height="23.36"/>
                  <rect class="cls-65" x="198.09" y="118.76" width="3.85" height="23.93"/>
                  <polygon class="cls-66" points="201.51 119.33 198.09 142.69 198.09 118.76 201.94 118.76 201.51 119.33"/>
                  <polygon class="cls-67" points="198.52 142.69 198.09 142.69 198.09 118.76 198.52 119.33 198.52 142.69"/>
                  <rect class="cls-68" x="198.52" y="119.33" width="2.99" height="23.36"/>
                </g>
                <g>
                  <rect class="cls-62" x="122.8" y="120.74" width="56.34" height="2.98"/>
                  <rect class="cls-63" x="122.8" y="120.74" width="56.34" height="0.6"/>
                  <rect class="cls-64" x="122.8" y="121.34" width="56.34" height="1.79"/>
                  <rect class="cls-62" x="122.8" y="129.28" width="56.34" height="2.98"/>
                  <rect class="cls-63" x="122.8" y="129.28" width="56.34" height="0.6"/>
                  <rect class="cls-64" x="122.8" y="129.88" width="56.34" height="1.79"/>
                  <rect class="cls-62" x="122.8" y="137.82" width="56.34" height="2.98"/>
                  <rect class="cls-63" x="122.8" y="137.82" width="56.34" height="0.6"/>
                  <rect class="cls-64" x="122.8" y="138.42" width="56.34" height="1.79"/>
                  <rect class="cls-65" x="123.53" y="118.36" width="3.85" height="24.72"/>
                  <polygon class="cls-66" points="126.94 118.96 123.53 143.09 123.53 118.36 127.37 118.36 126.94 118.96"/>
                  <polygon class="cls-67" points="123.95 143.09 123.53 143.09 123.53 118.36 123.95 118.96 123.95 143.09"/>
                  <rect class="cls-68" x="123.95" y="118.96" width="2.99" height="24.13"/>
                  <rect class="cls-65" x="149.16" y="118.36" width="3.85" height="24.72"/>
                  <polygon class="cls-66" points="152.58 118.96 149.16 143.09 149.16 118.36 153.01 118.36 152.58 118.96"/>
                  <polygon class="cls-67" points="149.59 143.09 149.16 143.09 149.16 118.36 149.59 118.96 149.59 143.09"/>
                  <rect class="cls-68" x="149.59" y="118.96" width="2.99" height="24.13"/>
                  <rect class="cls-65" x="174.8" y="118.36" width="3.85" height="24.72"/>
                  <polygon class="cls-66" points="178.22 118.96 174.8 143.09 174.8 118.36 178.65 118.36 178.22 118.96"/>
                  <polygon class="cls-67" points="175.23 143.09 174.8 143.09 174.8 118.36 175.23 118.96 175.23 143.09"/>
                  <rect class="cls-68" x="175.23" y="118.96" width="2.99" height="24.13"/>
                </g>
              </g>
            </g>
          </g>
        </g>
        <path class="cls-25" d="M187.86.28H37.08A36.71,36.71,0,0,0,.41,37V187.73a40.26,40.26,0,0,0,40.21,40.21H187.86a40.26,40.26,0,0,0,40.21-40.21V40.49A40.26,40.26,0,0,0,187.86.28Zm33.71,187.45a33.71,33.71,0,0,1-33.71,33.71H40.62A33.71,33.71,0,0,1,6.91,187.73V39.38a32.59,32.59,0,0,1,32.6-32.6H187.86a33.71,33.71,0,0,1,33.71,33.71Z"/>
      </g>
    </g>
  </g>
</svg>
