<svg id="Layer_1" data-name="Layer 1" xmlns="http://www.w3.org/2000/svg" width="220.21" height="251.14" viewBox="0 0 220.21 251.14">
  <defs>
    <style>
      .cls-1 {
        opacity: 0.5;
      }

      .cls-2 {
        fill: #fffefd;
      }

      .cls-3 {
        fill: #efad1b;
      }

      .cls-3, .cls-4, .cls-5 {
        stroke: #e8880a;
      }

      .cls-3, .cls-4, .cls-5, .cls-7 {
        stroke-miterlimit: 10;
      }

      .cls-4, .cls-8 {
        fill: #ff8500;
      }

      .cls-5 {
        fill: #fc0;
      }

      .cls-6 {
        fill: #ffeb00;
      }

      .cls-7 {
        stroke: #b76706;
      }

      .cls-9 {
        fill: #cf7100;
      }

      .cls-10 {
        fill: #ffa400;
      }

      .cls-11 {
        fill: #ffc400;
      }
    </style>
  </defs>
  <g>
    <path class="cls-1" d="M216.37,248.65c-4.35,3.65-11.67,3.94-18.2-3.62-.07-.07-.65-.8-1-1.22l-.18-.22L79.65,100.47a14.42,14.42,0,0,0-3,2,22.59,22.59,0,0,0-2.23,2.17A39.66,39.66,0,0,0,70.49,110a49.8,49.8,0,0,0-3.65,7.59,6.82,6.82,0,0,1-1.9,2.67,6.41,6.41,0,0,1-10.22-2.93c-.53-1.58-1.13-3.47-1.65-5.54-.63.1-1.29.19-2,.25-6.76.58-12.6-1.21-16.91-5.2-7.57-7-9.78-17.39-11.56-25.73-.2-.9-.39-1.8-.58-2.67-2.49-11-5.58-22.08-13.55-26.18a6.47,6.47,0,0,1-3.47-5A6.47,6.47,0,0,1,11.34,40c7.42-.18,14,5,17.29,8.12A49.07,49.07,0,0,1,33.87,54a45.64,45.64,0,0,0-6.95-21c-.36-.54-.7-1.06-1-1.43a6.44,6.44,0,0,1,.81-9,6.58,6.58,0,0,1,9.18.75A26.59,26.59,0,0,0,40,26.93a47.15,47.15,0,0,0,13.52,7c1,.34,2.08.66,3.15.93a49,49,0,0,1-5-6.25c-2.52-3.75-6.52-11.13-5.09-18.45a6.49,6.49,0,0,1,8.21-5,6.48,6.48,0,0,1,4.37,4.25C61.89,18.07,72.31,23,82.74,27.3l2.52,1c7.92,3.16,17.78,7.1,23.41,15.74,3.21,4.92,4,11,2.28,17.54-.08.31-.18.62-.29.93l0,.07c-.08.3-.17.59-.27.89,1.95.86,3.73,1.78,5.22,2.58A6.39,6.39,0,0,1,119,71a6.54,6.54,0,0,1-2.26,5.59h0a6.47,6.47,0,0,1-3,1.41,49.44,49.44,0,0,0-8.06,2.33,39.71,39.71,0,0,0-6,3,23.37,23.37,0,0,0-2.36,1.71,14.34,14.34,0,0,0-2.83,3.14L215.61,228.42c5.7,6.6,6.17,15.37,1.06,20ZM42.72,69.72c2.07,4.28,4.35,8.41,7.38,11.57,1.6,1.66,3.94,3.57,6,3.23a5.38,5.38,0,0,0,2.59-1c.25-.22.44-.39.64-.55l.19-.15A6.43,6.43,0,0,1,59.62,77l-4.31-5.1c-2-2.43-4-4.72-6.19-6.12a4,4,0,0,0-1.75-.72l-.07.07a3.93,3.93,0,0,0-1,1.26,6.58,6.58,0,0,1-1.69,2.19A6.4,6.4,0,0,1,42.72,69.72Zm38.74-5.41a5.32,5.32,0,0,0,1.48-2.43c.69-2-.8-4.61-2.16-6.46C78.18,51.9,74.5,49,70.64,46.2a6.34,6.34,0,0,1-1.38,1.6,6.55,6.55,0,0,1-2.45,1.28,3,3,0,0,0-1.09.56c-.48.4-.43.68-.38.92.51,2.53,2.51,5.06,4.88,7.87L75,64.06a6.35,6.35,0,0,1,2.63-.3,6.44,6.44,0,0,1,3.1,1.18L81,64.7Z"/>
    <path class="cls-2" d="M211.37,243.65c-4.35,3.65-11.67,3.94-18.2-3.62-.07-.07-.65-.8-1-1.22l-.18-.22L74.65,95.47a14.42,14.42,0,0,0-3,2,22.59,22.59,0,0,0-2.23,2.17A39.66,39.66,0,0,0,65.49,105a49.8,49.8,0,0,0-3.65,7.59,6.82,6.82,0,0,1-1.9,2.67,6.41,6.41,0,0,1-10.22-2.93c-.53-1.58-1.13-3.47-1.65-5.54-.63.1-1.29.19-2,.25-6.76.58-12.6-1.21-16.91-5.2-7.57-7-9.78-17.39-11.56-25.73-.2-.9-.39-1.8-.58-2.67-2.49-11-5.58-22.08-13.55-26.18a6.47,6.47,0,0,1-3.47-5A6.47,6.47,0,0,1,6.34,35c7.42-.18,14,5,17.29,8.12A49.07,49.07,0,0,1,28.87,49a45.64,45.64,0,0,0-6.95-21c-.36-.54-.7-1.06-1-1.43a6.44,6.44,0,0,1,.81-9,6.58,6.58,0,0,1,9.18.75A26.59,26.59,0,0,0,35,21.93,47.15,47.15,0,0,0,48.56,29c1,.34,2.08.66,3.15.93a49,49,0,0,1-5-6.25c-2.52-3.75-6.52-11.13-5.09-18.45A6.49,6.49,0,0,1,49.82.26a6.48,6.48,0,0,1,4.37,4.25C56.89,13.07,67.31,18,77.74,22.3l2.52,1c7.92,3.16,17.78,7.1,23.41,15.74,3.21,4.92,4,11,2.28,17.54-.08.31-.18.62-.29.93l0,.07c-.08.3-.17.59-.27.89,1.95.86,3.73,1.78,5.22,2.58A6.39,6.39,0,0,1,114,66a6.54,6.54,0,0,1-2.26,5.59h0a6.47,6.47,0,0,1-3,1.41,49.44,49.44,0,0,0-8.06,2.33,39.71,39.71,0,0,0-6,3,23.37,23.37,0,0,0-2.36,1.71,14.34,14.34,0,0,0-2.83,3.14L210.61,223.42c5.7,6.6,6.17,15.37,1.06,20ZM37.72,64.72c2.07,4.28,4.35,8.41,7.38,11.57,1.6,1.66,3.94,3.57,6,3.23a5.38,5.38,0,0,0,2.59-1c.25-.22.44-.39.64-.55l.19-.15A6.43,6.43,0,0,1,54.62,72l-4.31-5.1c-2-2.43-4-4.72-6.19-6.12a4,4,0,0,0-1.75-.72l-.07.07a3.93,3.93,0,0,0-1,1.26,6.58,6.58,0,0,1-1.69,2.19A6.4,6.4,0,0,1,37.72,64.72Zm38.74-5.41a5.32,5.32,0,0,0,1.48-2.43c.69-2-.8-4.61-2.16-6.46C73.18,46.9,69.5,44,65.64,41.2a6.34,6.34,0,0,1-1.38,1.6,6.55,6.55,0,0,1-2.45,1.28,3,3,0,0,0-1.09.56c-.48.4-.43.68-.38.92.51,2.53,2.51,5.06,4.88,7.87L70,59.06a6.35,6.35,0,0,1,2.63-.3,6.44,6.44,0,0,1,3.1,1.18L76,59.7Z"/>
    <g>
      <path class="cls-3" d="M77.75,78.15,206.19,226.79c3.39,3.93,4.11,8.94,1.61,11.19s-6.15,1.13-9.54-2.8c-.09-.1-.94-1.18-1-1.28L72.87,82.24c-1.71-2.1-2-4.68-.58-5.76S76,76.18,77.75,78.15Z"/>
      <g>
        <g>
          <path class="cls-4" d="M23.67,71.27C20.91,58.89,16.36,45.4,6.77,40.76c0,0,13.35-.44,24.06,23,9,19.8,17.49,24.9,26.84,19.49,5.23-5.65,13.47-5.57,13.47-5.57l8.2,9.58c-14.46-.7-23.17,22.27-23.17,22.27A48.14,48.14,0,0,1,53.55,98a33.18,33.18,0,0,1-6.8,1.72C29.57,102.19,26.43,83.65,23.67,71.27Z"/>
          <path class="cls-5" d="M7.24,40.77c2.42.18,14.05,2.11,23.59,23,9,19.8,17.49,24.9,26.84,19.49A18.28,18.28,0,0,1,67.6,78.1l3.32,3S60.7,91.93,50.84,92.91c-4.69.48-8.84-.52-12.29-3.64C27.22,79,28.45,63.59,18.14,48.85A22.6,22.6,0,0,0,7.24,40.77Z"/>
          <path class="cls-6" d="M70.92,81.07a46.42,46.42,0,0,1-4.3,4.23A49.54,49.54,0,0,1,61.83,89a33.88,33.88,0,0,1-5.34,3,19.71,19.71,0,0,1-6,1.61,17.94,17.94,0,0,1-6.23-.38,14.74,14.74,0,0,1-5.65-2.82,30.61,30.61,0,0,1-7.57-9.7,82.26,82.26,0,0,1-4.43-11.33c-1.24-3.83-2.5-7.61-4.06-11.27-.78-1.83-1.66-3.62-2.61-5.36-.48-.87-1-1.73-1.52-2.57a26.31,26.31,0,0,0-1.68-2.44,20.78,20.78,0,0,0-4.29-4.08,26.69,26.69,0,0,0-5.24-2.89A22.66,22.66,0,0,1,17.41,47.2a48.32,48.32,0,0,1,6.38,10.36,112.63,112.63,0,0,1,4.38,11.3,84.28,84.28,0,0,0,4.42,11.07,29.31,29.31,0,0,0,7.07,9.23,13.1,13.1,0,0,0,5,2.62,17.45,17.45,0,0,0,5.73.51A19.34,19.34,0,0,0,56.07,91a33.67,33.67,0,0,0,5.31-2.64A57.75,57.75,0,0,0,70.92,81.07Z"/>
          <path class="cls-7" d="M23.8,71.17C22.09,63.61,19.94,56,15.9,49.33a25.35,25.35,0,0,0-6.24-7A4.59,4.59,0,0,0,6.79,41l.55,0c7.9.62,14.31,7.79,18.41,13.87,6.38,9.48,9.28,24,20.39,29.53a11.57,11.57,0,0,0,9.81,0c2.8-1.19,4.7-3.59,7.56-4.84A20.3,20.3,0,0,1,71,77.92c.65,0,2.33,2.59,2.77,3.1l4.62,5.4.58.68c.52.61.17,0-.24,0a13.83,13.83,0,0,0-3.84.56,19.43,19.43,0,0,0-7.69,4.64c-4,3.66-7,8.48-9.38,13.31-.61,1.22-1.17,2.46-1.68,3.73a1.34,1.34,0,0,1-.07.18c.37-1-.67-3-.94-3.93A43.29,43.29,0,0,1,53.7,98c0-.08-.07-.2-.17-.16-8.68,3.06-17.33,2.67-22.77-5.48-4.11-6.19-5.38-14-7-21.17-.06-.27-.31,0-.27.2C25.44,80,27,90.22,33.81,96.52c3.3,3.06,7.73,3.93,12.09,3.55a28.83,28.83,0,0,0,3.91-.69c1-.22,1.91-.52,2.85-.82,1.13-.36,1,1.35,1,1.87A51.63,51.63,0,0,0,56,109.66c.06.18.22.11.27,0,3.63-9.48,11.53-22.4,23-22.13.19,0,.2-.28.11-.39q-3.25-3.78-6.49-7.58c-.25-.29-1.36-2-1.78-2a21.21,21.21,0,0,0-4.82.67,18.53,18.53,0,0,0-8.06,4.25A11.35,11.35,0,0,1,52.47,85c-4.55.75-8.55-2-11.56-5.07-4.65-4.84-7.62-11.2-10.41-17.21A51.59,51.59,0,0,0,19.63,46.93c-3.22-3.06-8.13-6.5-12.84-6.39-.19,0-.23.34-.07.42,10.79,5.55,14.35,19.5,16.81,30.41C23.59,71.64,23.85,71.37,23.8,71.17Z"/>
          <path class="cls-7" d="M42.8,99.26c3,1.24,7.22-.08,10-1.2A40.52,40.52,0,0,0,63.06,92c2.17-1.72,4.12-3.73,6.36-5.36a12.49,12.49,0,0,1,7.3-2.38c.19,0,.27.24,0,.24a12.41,12.41,0,0,0-7.72,2.8c-2.39,1.87-4.53,4-7,5.84C57.38,96.6,51.44,100,45.39,99.88a7.62,7.62,0,0,1-2.72-.41c-.2-.08,0-.28.13-.21Z"/>
        </g>
        <g>
          <path class="cls-4" d="M75.56,27.49C63.82,22.69,51.29,15.94,48.33,5.7c0,0-2.68,13.09,18.66,27.59C85,45.52,88.58,54.73,81.67,63c-6.45,4.21-7.76,12.34-7.76,12.34L82,85.07C83.72,70.7,107.83,66,107.83,66A47.89,47.89,0,0,0,96.9,61.46a33.39,33.39,0,0,0,2.85-6.41C105.05,38.52,87.3,32.3,75.56,27.49Z"/>
          <path class="cls-5" d="M48.27,6.16C48,8.58,48,20.37,67,33.29,85,45.52,88.58,54.73,81.67,63A18.34,18.34,0,0,0,74.89,72l2.37,3.77s12.42-8.24,15.06-17.79c1.25-4.55,1-8.81-1.53-12.74-8.17-12.89-23.6-14.27-36.4-26.92A22.65,22.65,0,0,1,48.27,6.16Z"/>
          <path class="cls-6" d="M77.26,75.72a45.72,45.72,0,0,0,4.9-3.53,50.85,50.85,0,0,0,4.48-4.09,32.65,32.65,0,0,0,3.82-4.76,19.93,19.93,0,0,0,2.6-5.61,18,18,0,0,0,.67-6.21,14.93,14.93,0,0,0-1.82-6,30.72,30.72,0,0,0-8.29-9.1,81.21,81.21,0,0,0-10.43-6.27c-3.56-1.87-7.07-3.76-10.42-5.91a59.28,59.28,0,0,1-4.84-3.48c-.78-.61-1.54-1.26-2.28-1.92a27.68,27.68,0,0,1-2.12-2.07,21.34,21.34,0,0,1-3.3-4.91,26.71,26.71,0,0,1-2-5.66,22.55,22.55,0,0,0,4.62,11.11,47.89,47.89,0,0,0,9.14,8,118.33,118.33,0,0,0,10.39,6.22,82.69,82.69,0,0,1,10.17,6.22,29.31,29.31,0,0,1,7.91,8.52,13.16,13.16,0,0,1,1.74,5.38,17.17,17.17,0,0,1-.47,5.74,19.08,19.08,0,0,1-2.25,5.36A32.63,32.63,0,0,1,86,67.54,57.11,57.11,0,0,1,77.26,75.72Z"/>
          <path class="cls-7" d="M75.44,27.61c-7.17-3-14.28-6.36-20.2-11.47a25.56,25.56,0,0,1-5.9-7.34,4.64,4.64,0,0,1-.8-3.05,5,5,0,0,0-.07.54c-.71,7.9,5.28,15.43,10.58,20.49C67.31,34.66,81.16,40,84.72,51.86a11.59,11.59,0,0,1-1.67,9.66c-1.65,2.57-4.33,4-6,6.64a20.36,20.36,0,0,0-2.85,7.07c-.13.63,2.16,2.74,2.59,3.25l4.54,5.46.57.7c.52.61,0,.15,0-.25a13.3,13.3,0,0,1,1.2-3.69,19.21,19.21,0,0,1,5.87-6.8c4.27-3.34,9.53-5.45,14.69-7,1.31-.39,2.63-.74,4-1l.18,0c-1,.21-2.83-1.16-3.72-1.59a43,43,0,0,0-7.22-2.64c-.07,0-.18-.11-.13-.2,4.48-8,5.56-16.63-1.57-23.36-5.4-5.1-12.94-7.67-19.69-10.43-.26-.1,0-.31.24-.24,8.18,3.34,18,6.6,23.06,14.37,2.46,3.78,2.57,8.28,1.46,12.52A29.17,29.17,0,0,1,98.87,58c-.38.91-.84,1.79-1.3,2.67-.54,1,1.18,1.16,1.68,1.32a52.06,52.06,0,0,1,8.7,3.87c.17.09.07.24-.08.27-10,2-24,7.59-25.68,19,0,.19-.32.15-.41,0L75.4,77.45c-.24-.29-1.77-1.68-1.7-2.1a21.14,21.14,0,0,1,1.47-4.63,18.52,18.52,0,0,1,5.55-7.23,11.32,11.32,0,0,0,3.5-5.29c1.51-4.37-.48-8.76-3-12.25-4-5.4-9.75-9.4-15.21-13.16A51.59,51.59,0,0,1,52.25,19.42c-2.47-3.69-5-9.11-4.13-13.74,0-.18.36-.17.42,0,3.65,11.58,16.81,17.43,27.14,21.69C75.94,27.48,75.63,27.69,75.44,27.61Z"/>
          <path class="cls-7" d="M100.21,51c.61,2.73-.81,6-2,8.37a37.38,37.38,0,0,1-6.87,9c-2.2,2.18-4.68,4-7,6a12.92,12.92,0,0,0-4.6,7.65c0,.15-.36.1-.33-.06a12.23,12.23,0,0,1,3.09-6.28c1.88-2,4.19-3.55,6.25-5.34,4.8-4.17,9.81-9.79,11-16.25A7.85,7.85,0,0,0,99.88,51c0-.17.29-.16.33,0Z"/>
        </g>
      </g>
      <g>
        <path class="cls-5" d="M72.94,82.56,54.49,60.7c-1.64-2-5.55-6.44-10-7.63-5.79-1.55-8.77,4.86-8.77,4.86,1.91-22.53-9.44-36.21-9.44-36.21s11.57,13.49,34.1,15.41c0,0-6.82,1.85-6.27,7.82.43,4.58,4.2,9.2,5.83,11.14L78.39,78Z"/>
        <path class="cls-8" d="M54.11,45c.43,4.58,4.2,9.2,5.83,11.14L78.39,78l-2.73,2.3L26.28,21.72s11.57,13.49,34.1,15.41C60.38,37.13,53.56,39,54.11,45Z"/>
        <path class="cls-6" d="M75.66,80.26l-.52-.68c-.35-.44-.85-1.09-1.49-1.92-1.3-1.65-3.15-4-5.41-6.79-1.12-1.4-2.34-2.92-3.64-4.51s-2.67-3.28-4.11-5-2.9-3.53-4.41-5.33-3-3.64-4.59-5.47l-4.62-5.45c-1.52-1.8-3-3.55-4.51-5.25S39.47,36.52,38.12,35s-2.63-3-3.83-4.35c-2.37-2.69-4.38-4.92-5.78-6.47l-1.65-1.79-.58-.64.53.68c.34.45.85,1.1,1.49,1.92,1.29,1.65,3.15,4,5.4,6.8l3.65,4.51c1.3,1.59,2.67,3.27,4.1,5s2.9,3.52,4.42,5.32l4.59,5.48c1.55,1.82,3.09,3.65,4.62,5.44s3.05,3.55,4.51,5.25,2.89,3.34,4.24,4.89,2.63,3,3.82,4.36C70,74.06,72,76.28,73.44,77.83l1.64,1.8Z"/>
        <path class="cls-7" d="M72.75,82.65l-11-13-6.32-7.49c-2.29-2.72-4.61-5.47-7.65-7.39s-6.31-2.53-9.16-.18A10.14,10.14,0,0,0,35.94,58c-.09.18-.47.08-.46-.12,1-11.76-1.45-24.12-8-34.09a23.07,23.07,0,0,0-1.41-2c-.19-.23.23-.34.37-.17a32.24,32.24,0,0,0,5.12,4.57,53.28,53.28,0,0,0,15.31,8A58.86,58.86,0,0,0,60.41,37c.2,0,.29.27.07.33-4,1.11-6.82,4.54-6,8.77s3.6,7.55,6.24,10.68L74.13,72.6l4.45,5.27c0,.07.07.15,0,.21l-5.45,4.6c-.16.14-.58-.06-.38-.23l4-3.39,1-.84c.21-.18.39-.5.44-.17,0-.15-.34-.41-.44-.52L70.5,68.92l-8.77-10.4c-2.66-3.16-5.49-6.3-7-10.21-1.13-2.89-1.33-6.07.87-8.5A10.24,10.24,0,0,1,60.29,37l.06.33c-11.83-1-23.7-5.55-32.5-13.71a22.49,22.49,0,0,1-1.75-1.77l.37-.17a32.83,32.83,0,0,1,3.76,6A54.2,54.2,0,0,1,35.57,44.5,59.51,59.51,0,0,1,36,58l-.45-.12c1.4-3,4.42-5.48,7.83-5.16,4.7.45,8.56,4.62,11.42,8q6.69,7.9,13.36,15.84l5,5.94C73.31,82.7,72.89,82.82,72.75,82.65Z"/>
      </g>
      <g>
        <path class="cls-9" d="M68.59,68.25c1.47,1.61,1,2.85,0,3.68S66.35,73,65,71.27c-1.53-2-1.4-5.28-1.4-5.28S66.9,66.41,68.59,68.25Z"/>
        <path class="cls-10" d="M67,70.74c-.3.18-1,.6-2.09-.78a7.38,7.38,0,0,1-1.2-3.77A7.49,7.49,0,0,1,67.22,68a2.29,2.29,0,0,1,.72,1.49,1.48,1.48,0,0,1-.61,1A2.62,2.62,0,0,1,67,70.74Z"/>
        <path class="cls-11" d="M65.71,69c-.16.09-.4.23-1-.57a5.27,5.27,0,0,1-.85-2.08,5.16,5.16,0,0,1,1.91,1.18,1.67,1.67,0,0,1,.52.88.92.92,0,0,1-.32.43Z"/>
        <g>
          <path class="cls-9" d="M65.72,72.37c2.17.09,2.74,1.28,2.63,2.57s-.87,2.36-3,2.09c-2.47-.3-4.72-2.75-4.72-2.75S63.23,72.26,65.72,72.37Z"/>
          <path class="cls-10" d="M66.09,76a2.5,2.5,0,0,1-1.5.17,7.46,7.46,0,0,1-3.51-1.81l.12-.08a7.36,7.36,0,0,1,3.64-1.13,2.28,2.28,0,0,1,1.57.54,1.47,1.47,0,0,1,.28,1.14A1.31,1.31,0,0,1,66.09,76Z"/>
          <path class="cls-11" d="M64.3,75.14a1.73,1.73,0,0,1-1,.07,5.18,5.18,0,0,1-2.07-.87,5.33,5.33,0,0,1,2.19-.51,1.67,1.67,0,0,1,1,.26.8.8,0,0,1,.07.53C64.48,74.78,64.43,75.06,64.3,75.14Z"/>
          <path class="cls-9" d="M69.55,69.13c-.27,2.16.81,2.92,2.1,3s2.47-.46,2.57-2.63c.11-2.49-1.93-5.12-1.93-5.12S69.86,66.66,69.55,69.13Z"/>
          <path class="cls-10" d="M72.75,70.3a1.73,1.73,0,0,1-1,.17A1.5,1.5,0,0,1,70.69,70a2.29,2.29,0,0,1-.27-1.63,7.47,7.47,0,0,1,1.82-3.52,7.42,7.42,0,0,1,1.21,3.77c0,.87-.28,1.44-.7,1.68Z"/>
          <path class="cls-11" d="M72.43,68.31a.87.87,0,0,1-.5.06c-.3,0-.46-.1-.51-.17a1.53,1.53,0,0,1-.09-1,5.26,5.26,0,0,1,.87-2.07,4.94,4.94,0,0,1,.51,2.18C72.68,68,72.52,68.26,72.43,68.31Z"/>
        </g>
        <g>
          <g>
            <path class="cls-9" d="M66.35,77c2.15-.34,3,.71,3.1,2s-.38,2.49-2.55,2.66c-2.49.19-5.18-1.75-5.18-1.75S63.89,77.43,66.35,77Z"/>
            <path class="cls-10" d="M67.28,80.64a2.93,2.93,0,0,1-1.23.32,7.31,7.31,0,0,1-3.8-1.08,10.32,10.32,0,0,1,1.68-1.25A5.1,5.1,0,0,1,65.7,78a2.34,2.34,0,0,1,1.65.21,1.53,1.53,0,0,1,.5,1.07C68,80.14,67.58,80.47,67.28,80.64Z"/>
            <path class="cls-11" d="M65.58,80.11a2,2,0,0,1-.88.22,5.42,5.42,0,0,1-2.21-.44,6.65,6.65,0,0,1,.56-.36A4.47,4.47,0,0,1,64.54,79a1.64,1.64,0,0,1,1,0,.88.88,0,0,1,.18.51C65.79,80,65.67,80.06,65.58,80.11Z"/>
          </g>
          <g>
            <path class="cls-9" d="M74.05,70.54c-.7,2.06.21,3,1.45,3.38s2.51,0,3-2.07c.61-2.42-.86-5.4-.86-5.4S74.84,68.17,74.05,70.54Z"/>
            <path class="cls-10" d="M77.17,72.29a1.47,1.47,0,0,1-1.18,0,1.49,1.49,0,0,1-1-.67A2.3,2.3,0,0,1,75.09,70a7.33,7.33,0,0,1,2.48-3.08A7.26,7.26,0,0,1,78,70.86a2.29,2.29,0,0,1-.83,1.43Z"/>
            <path class="cls-11" d="M77.12,70.32a.81.81,0,0,1-.53,0c-.29-.08-.43-.19-.46-.26a1.56,1.56,0,0,1,.11-1,5.1,5.1,0,0,1,1.27-1.86,5.14,5.14,0,0,1,.06,2.24C77.42,70,77.22,70.27,77.12,70.32Z"/>
          </g>
        </g>
        <path class="cls-7" d="M68.54,68.36c.93,1.11,1.23,2.39.06,3.46a2.33,2.33,0,0,1-1.78.6c-2-.18-2.79-3.15-3-4.74a10.14,10.14,0,0,1-.1-1.56c0-.12,0-.13-.07,0l.45.08a8.56,8.56,0,0,1,4.46,2.17c.1.09.18-.14.11-.21a8.88,8.88,0,0,0-5-2.29s-.09.07-.09.12c-.08,2.34.6,6,3.27,6.68,1.07.27,2.14-.7,2.62-1.54.59-1-.11-2.18-.77-3C68.56,68,68.47,68.27,68.54,68.36Z"/>
        <g>
          <path class="cls-7" d="M65.71,72.49c1.26.11,2.37.54,2.56,1.93a2.16,2.16,0,0,1-1.76,2.49c-1.8.39-3.71-.86-5-1.94a9.22,9.22,0,0,1-.79-.74c-.1-.11-.13.21,0,.12l.43-.3a8.38,8.38,0,0,1,4.59-1.56c.12,0,.14-.25,0-.25a8.81,8.81,0,0,0-5.17,1.93.16.16,0,0,0,0,.21C62,75.91,65,78.11,67.17,77a2.57,2.57,0,0,0,1.27-2.6c-.06-1.49-1.43-2-2.71-2.13C65.61,72.23,65.59,72.48,65.71,72.49Z"/>
          <path class="cls-7" d="M69.46,69.12c-.1,1.26.1,2.44,1.36,3a2.47,2.47,0,0,0,3-.76c1.26-2.25,0-5.19-1.46-7,0,0-.08,0-.11,0a8.77,8.77,0,0,0-2.78,4.81c0,.16.15.17.18,0a8.22,8.22,0,0,1,2.06-4c.2-.23.42-.45.64-.66-.11.1.35.66.45.81,1,1.63,1.8,3.73,1,5.62A2.14,2.14,0,0,1,71.39,72c-1.49-.19-1.87-1.55-1.75-2.86C69.65,69,69.48,69,69.46,69.12Z"/>
        </g>
        <g>
          <path class="cls-7" d="M66.37,77.16c1.25-.14,2.4,0,2.88,1.36.56,1.53-.43,2.65-1.86,3s-3.27-.34-4.63-1.06a10.23,10.23,0,0,1-.94-.57c-.12-.08-.1.22,0,.08l.35-.36a8.42,8.42,0,0,1,4.18-2.43c.1,0,.1-.27,0-.24a8.81,8.81,0,0,0-4.68,2.93.16.16,0,0,0,0,.21c1.66,1.18,5.43,2.91,7.2,1a2.73,2.73,0,0,0,.43-3c-.46-1.25-1.84-1.35-3-1.22C66.23,76.93,66.24,77.17,66.37,77.16Z"/>
          <path class="cls-7" d="M74,70.5c-.36,1.23-.38,2.42.76,3.22A2.42,2.42,0,0,0,78,73.34c1.56-1.8.69-5.08-.23-7a.07.07,0,0,0-.1,0A8.75,8.75,0,0,0,74,70.5c0,.13.1.23.16.08A8.25,8.25,0,0,1,77.07,67c.19-.14.6-.35.55-.46.16.33.29.68.42,1,.63,1.77.93,3.92-.17,5.57a2.14,2.14,0,0,1-2.6.57c-1.41-.48-1.51-1.87-1.14-3.14C74.17,70.45,74,70.34,74,70.5Z"/>
        </g>
        <path class="cls-10" d="M76.75,72.41c2.39,2.49.89,5.14-1.6,7.24s-5.34,3.13-7.4.36c-2.37-3.17-.56-9.79-.56-9.79S74,69.55,76.75,72.41Z"/>
        <path class="cls-9" d="M77,72.72c1.55,3.84-5.77,7.26-7.79,4.44-1.78-2.47-1.15-6.11-1.15-6.11a51.77,51.77,0,0,1,6-.2,19.69,19.69,0,0,0-6.86-.63s-1.81,6.62.56,9.79c2.06,2.77,4.92,1.74,7.4-.36S79,75.12,77,72.72Z"/>
        <path class="cls-7" d="M76.7,72.51C79.82,76,75.38,80.25,72,81.38c-4.58,1.53-5.53-4.53-5.3-7.64a20.48,20.48,0,0,1,.55-3.3c0-.23-.1-.09.11-.11.38,0,.76,0,1.14,0,2.77-.06,6.12.22,8.22,2.23.1.1.18-.13.1-.2-2.39-2.3-6.46-2.5-9.6-2.21a.1.1,0,0,0-.09.08c-.94,3.51-1.73,10.62,3.14,11.6,2.54.51,5.31-2,6.71-3.86a4.11,4.11,0,0,0-.16-5.61C76.71,72.2,76.62,72.43,76.7,72.51Z"/>
        <path class="cls-11" d="M69.89,71.43s3.39-.37,5.25.83c2,1.31,1.3,3.51-.54,4.19s-.42-1.2-.48-2.31S71.39,71.65,69.89,71.43Z"/>
        <g>
          <path class="cls-10" d="M82,76.62a1.57,1.57,0,0,1-.13,2.22,43.28,43.28,0,0,0-8.23,7.48,1.51,1.51,0,0,1-2.18-.13L71.19,86a1.77,1.77,0,0,1-.34-2.36,45.77,45.77,0,0,1,8.69-7.88,1.68,1.68,0,0,1,2.25.62A3,3,0,0,1,82,76.62Z"/>
          <path class="cls-9" d="M82,76.62a.35.35,0,0,0,0-.08c-1.93,3.07-10.26,9-9.06,6.32,1.29-2.83,7.25-7.23,7.25-7.23a.75.75,0,0,0-.16-.11,1.18,1.18,0,0,0-.43.19,45.77,45.77,0,0,0-8.69,7.88A1.77,1.77,0,0,0,71.19,86l.26.24a1.51,1.51,0,0,0,2.18.13,43.11,43.11,0,0,1,6.14-5.71c.73-.58,1.33-1.24,2.09-1.77A1.57,1.57,0,0,0,82,76.62Z"/>
          <path class="cls-7" d="M81.89,76.68c1.06,2.17-4.06,5.06-5,6-.73.67-4.21,5.11-5.31,3.42-1.87-2.87,2-5.15,3.22-6.26C75.58,79,80,74,81.91,76.73c.18.24.28,0,.16-.23a2.37,2.37,0,0,0-2-1.21c-.72-.06-1.39.8-1.86,1.14-1.05.78-2.05,1.62-3,2.48a48.16,48.16,0,0,0-4.41,4.51,1.82,1.82,0,0,0,0,2.08c.83,1.08,1,1.48,2.07,1.47a1.61,1.61,0,0,0,1-.48c1-1.21,2.13-2.35,3.28-3.45,1.51-1.45,3.58-2.45,5-4,.58-.67.71-1.28.13-2.46C82,76.28,81.79,76.48,81.89,76.68Z"/>
        </g>
      </g>
    </g>
  </g>
</svg>
