<svg id="Layer_1" data-name="Layer 1" xmlns="http://www.w3.org/2000/svg" xmlns:xlink="http://www.w3.org/1999/xlink" width="199.38" height="161.12" viewBox="0 0 199.38 161.12">
  <defs>
    <style>
      .cls-1 {
        mask: url(#mask);
        filter: url(#luminosity-noclip-2);
      }

      .cls-2 {
        mix-blend-mode: multiply;
        fill: url(#linear-gradient);
      }

      .cls-3 {
        opacity: 0.5;
      }

      .cls-4 {
        fill: #fff;
      }

      .cls-5 {
        fill: #f5ba5e;
      }

      .cls-6 {
        fill: #e5894c;
      }

      .cls-7 {
        fill: #af621e;
      }

      .cls-8 {
        fill: #ba522a;
        opacity: 0.78;
      }

      .cls-9 {
        fill: #ad4b1f;
      }

      .cls-10, .cls-21 {
        fill: #fee3c5;
      }

      .cls-11 {
        fill: url(#linear-gradient-2);
      }

      .cls-12 {
        fill: #eaaa63;
        opacity: 0.7;
      }

      .cls-13 {
        fill: #e8a66b;
      }

      .cls-14 {
        fill: #f4c287;
      }

      .cls-15 {
        fill: #f2bb7e;
      }

      .cls-16 {
        mask: url(#mask-2);
      }

      .cls-17 {
        fill: url(#linear-gradient-3);
      }

      .cls-18 {
        fill: #d37039;
      }

      .cls-19 {
        fill: #eaaf75;
      }

      .cls-20 {
        fill: #eaa549;
      }

      .cls-21 {
        opacity: 0.37;
      }

      .cls-22 {
        fill: #c17744;
        opacity: 0.56;
      }

      .cls-23 {
        fill: #c98857;
        opacity: 0.41;
      }

      .cls-24 {
        fill: #ffeddc;
        opacity: 0.72;
      }

      .cls-25 {
        filter: url(#luminosity-noclip);
      }
    </style>
    <filter id="luminosity-noclip" x="38.25" y="-5607.92" width="62.48" height="32766" filterUnits="userSpaceOnUse" color-interpolation-filters="sRGB">
      <feFlood flood-color="#fff" result="bg"/>
      <feBlend in="SourceGraphic" in2="bg"/>
    </filter>
    <mask id="mask" x="38.25" y="-5607.92" width="62.48" height="32766" maskUnits="userSpaceOnUse">
      <g class="cls-25"/>
    </mask>
    <linearGradient id="linear-gradient" x1="-968.82" y1="-3766.65" x2="-875.24" y2="-3789.43" gradientTransform="matrix(0.54, -0.84, 0.84, 0.54, 3752.58, 1369.63)" gradientUnits="userSpaceOnUse">
      <stop offset="0.01" stop-color="#fff"/>
      <stop offset="0.52" stop-color="#fff"/>
      <stop offset="1" stop-color="gray"/>
    </linearGradient>
    <linearGradient id="linear-gradient-2" x1="-966.06" y1="-3748.6" x2="-867.03" y2="-3779.18" gradientTransform="matrix(0.54, -0.84, 0.84, 0.54, 3752.58, 1369.63)" gradientUnits="userSpaceOnUse">
      <stop offset="0.27" stop-color="#f9bf78"/>
      <stop offset="0.53" stop-color="#f9cd90"/>
      <stop offset="0.94" stop-color="#f9d3a0"/>
    </linearGradient>
    <filter id="luminosity-noclip-2" x="38.25" y="35.41" width="62.48" height="105.23" filterUnits="userSpaceOnUse" color-interpolation-filters="sRGB">
      <feFlood flood-color="#fff" result="bg"/>
      <feBlend in="SourceGraphic" in2="bg"/>
    </filter>
    <mask id="mask-2" x="38.25" y="35.41" width="62.48" height="105.23" maskUnits="userSpaceOnUse">
      <g class="cls-1">
        <path class="cls-2" d="M96.89,42.77a53.87,53.87,0,0,1,2.82,10.78c2.36,14.64.45,30.86-3.73,44.92-4.63,15.65-11.78,27.59-1,42.17a98.77,98.77,0,0,1-14.7-1.5c-2.85-.5-5.43-1.09-7.75-1.72-9.36-2.55-14.4-5.64-14.4-5.64-1.21-.66-2.38-1.36-3.5-2-1.48-.9-2.9-1.82-4.24-2.73a72.46,72.46,0,0,1-12.13-10.19,112.33,112.33,0,0,1,14.8-21.09c9.58-10.92,19-20.1,26.3-32.7A41.18,41.18,0,0,0,85,48.35c.56-3.17-1.59-10-1.47-12.94A40.1,40.1,0,0,1,96.89,42.77Z"/>
      </g>
    </mask>
    <linearGradient id="linear-gradient-3" x1="-968.82" y1="-3766.65" x2="-875.24" y2="-3789.43" gradientTransform="matrix(0.54, -0.84, 0.84, 0.54, 3752.58, 1369.63)" gradientUnits="userSpaceOnUse">
      <stop offset="0.01" stop-color="#d9705e"/>
      <stop offset="0.52" stop-color="#f4925d"/>
      <stop offset="1" stop-color="#f4925d"/>
    </linearGradient>
  </defs>
  <g>
    <path class="cls-3" d="M178.81,161.12a36.38,36.38,0,0,1-7.36-.76,38.74,38.74,0,0,1-8.5-3.05l-1.51-.69a49.45,49.45,0,0,0-11.05-3,68.63,68.63,0,0,0-10.84-.81h-1.46c-1.11,0-2.29.07-3.59.16l-.86.07c-.93.07-1.86.15-2.78.26l-.46.06c-.79.09-1.59.19-2.38.3s-1.77.26-2.68.41a128,128,0,0,1-21.4,1.84c-1.14,0-2.26,0-3.36-.05-1.42,0-2.82-.11-4.32-.21s-2.73-.21-4-.34l-.35,0c-1.2-.12-2.38-.27-3.53-.43l-.42-.06c-1.16-.17-2.3-.35-3.41-.55l-.1,0c-.66-.11-1.28-.23-1.88-.35l-.67-.13-2.12-.46-.26-.06c-1.25-.29-2.44-.58-3.57-.89-.93-.25-1.78-.5-2.61-.75l-.12,0-1.32-.41-.16-.05c-.57-.19-1.18-.39-1.76-.6l-.86-.3-1.66-.62-1.2-.48L66.1,149a52.8,52.8,0,0,1-6.56-3.13l-.21-.12c-1.16-.64-2.27-1.29-3.36-1.93l-.26-.16c-1-.6-1.89-1.16-2.76-1.73l-.83-.55L51,140.66l-1.38-1a83,83,0,0,1-10.06-8.29l-.14-.13q-1.1-1.08-2.1-2.13c-9.49-10-15-21.89-16-34.34a48.9,48.9,0,0,1-.14-5.44v-.1c0-.51,0-1,.06-1.48l0-.23c0-.43.06-.84.09-1.24l0-.38c0-.31.16-1.42.16-1.42l0-.15L21,83.84c-.09-.08-.37-.39-.43-.46L20.24,83c-.13-.14-.28-.33-.43-.53l-.32-.42c-.09-.12-.17-.25-.26-.38l0-.06a13.16,13.16,0,0,1-.94-1.56l0,0q-.18-.34-.33-.69c-.07-.14-.16-.33-.24-.51s-.11-.25-.16-.38L17.34,78c-.08-.23-.15-.46-.22-.68l.63-.21V77l-.65.2c-.08-.25-.15-.5-.22-.74a19.78,19.78,0,0,1-.43-2.29s0-.29-.05-.42,0-.43,0-.64,0-.51,0-.75v-.64l-.06-.07a18.38,18.38,0,0,1-2.08-3.68c-.06-.13-.13-.32-.19-.47-.19-.5-.35-1-.48-1.42l-.12-.44c-.14-.51-.24-1-.32-1.4L13,63.68c-.06-.41-.12-.86-.16-1.3,0-.11,0-.25,0-.39,0-.42,0-.85,0-1.26,0-.1,0-.37,0-.4l-.12-.15c-.13-.18-.3-.43-.47-.7s-.46-.7-.67-1.07c-.13-.22-.24-.44-.35-.66l2-1.06,0-.12-2.1,1.07c-.21-.41-.42-.83-.6-1.25l-.23-.57c-.18-.47-.34-.87-.47-1.28-.07-.18-.12-.37-.18-.56l0-.19c-.1-.31-.19-.63-.27-.93s-.12-.48-.17-.73l0-.12-.14-.65c-.07-.35-.13-.69-.18-1a17.69,17.69,0,0,1-2.89-9.9c0-.16,0-.32,0-.48s0-.27,0-.42l0-.44L6,38.66c0-.12,0-.32.07-.5,0,0,.1-.57.13-.71l.14-.61.17-.61c0-.1.08-.24.12-.34A9.36,9.36,0,0,1,11,30.74a13.07,13.07,0,0,1,1.89-.86l.64-.22q.57-.18,1.17-.33l.71-.16L16.47,29l.68-.07c.32,0,.69-.06,1.07-.07l.47,0H19q.57,0,1.14,0l.51,0,.93.08.49.06.88.13.37.06c.39.07.75.14,1.1.22l.17,0a36.34,36.34,0,0,1,4.35,1.25,20.72,20.72,0,0,1,3.79-.36,20.43,20.43,0,0,1,4.65.54l.24.05.35.09.76.21.46.14.43.15c.64.22,1.23.46,1.79.7l.77-.16.21,0,1.33-.18h.19c.39,0,.85-.07,1.3-.07h.32c.4,0,.79,0,1.17,0l.19,0c.36,0,.77.07,1.18.12l.13,0c.43.07.85.15,1.25.24s.89.21,1.28.33c.64.2,1.28.43,1.9.69l.5-.16.74-.2c.25-.07.55-.14.84-.19l.67-.12.89-.12.61,0,.89,0,.56,0a14.31,14.31,0,0,1,2,.2l.42.08c.29.06.57.12.85.2l.57.16.57.19.13,0,.55.21.48.21.89-.35C66.52,23,74.66,15.05,88.91,9.8A70.26,70.26,0,0,1,98.5,7.05c.27-.06.53-.13.8-.21a21.17,21.17,0,0,1,4.09-.79c1.5-.13,2.76-.18,4-.18a35.3,35.3,0,0,1,5,.35,37.6,37.6,0,0,1,10.24,2.62A80.29,80.29,0,0,1,143.12,22.3a85.18,85.18,0,0,1,12.31,13.41C157.34,38.28,159.15,41,161,44a221.28,221.28,0,0,0,13.27,19.62,68,68,0,0,0,9.25,10.27,9.88,9.88,0,0,1,.81.78c4,4.33,4.64,12.26,1.93,23.59a15.14,15.14,0,0,0,2.62,2c4,2.17,8.75,6.91,9.63,13.53s-2,12.93-8.49,19a19.77,19.77,0,0,1,5.49,3.78l.17.17a14.83,14.83,0,0,1,1.29,1.54q.17.21.3.42a12.57,12.57,0,0,1,2,5.37,8.24,8.24,0,0,1,.07,1c.12,2.57-.52,6.67-4.62,10.61-3.7,3.59-9.22,5.49-15.93,5.49Z"/>
    <path class="cls-4" d="M172.94,155.25a35.75,35.75,0,0,1-7.36-.76,38.32,38.32,0,0,1-8.49-3.05l-1.51-.69a50.15,50.15,0,0,0-11.06-3,68.41,68.41,0,0,0-10.84-.82h-1.45c-1.12,0-2.3.08-3.59.16l-.86.07c-.93.07-1.86.16-2.79.26l-.46.06-2.38.3c-.86.13-1.76.26-2.67.42a129.24,129.24,0,0,1-21.41,1.83c-1.14,0-2.26,0-3.36,0-1.41-.05-2.82-.11-4.31-.21s-2.73-.22-4-.35l-.35,0c-1.2-.13-2.39-.28-3.54-.44l-.42-.06c-1.16-.16-2.3-.35-3.4-.54l-.11,0L76.7,148l-.66-.13-2.13-.46-.26-.06c-1.24-.28-2.44-.58-3.57-.88-.93-.26-1.78-.51-2.6-.76l-.13,0L66,145.28l-.15-.05-1.76-.59-.87-.31-1.66-.62-1.2-.47-.16-.07a55.23,55.23,0,0,1-6.55-3.12l-.22-.13c-1.15-.64-2.27-1.28-3.35-1.93l-.27-.15c-1-.61-1.89-1.17-2.76-1.74l-.83-.54-1.15-.77-1.38-1a83.8,83.8,0,0,1-10.06-8.29l-.14-.13q-1.1-1.06-2.1-2.13c-9.48-10-15-21.89-16-34.33a48.94,48.94,0,0,1-.15-5.44V83.4c0-.5,0-1,.07-1.47v-.24c0-.43.06-.83.1-1.23l0-.38c0-.32.16-1.43.16-1.43l0-.15c-.11-.1-.47-.45-.53-.52l-.42-.46-.33-.38-.43-.54c-.11-.13-.21-.27-.31-.41s-.18-.26-.26-.39l0,0a12,12,0,0,1-.93-1.57l0-.05q-.18-.34-.33-.69c-.07-.13-.16-.32-.24-.51l-.15-.37a4.44,4.44,0,0,1-.17-.48c-.08-.23-.16-.45-.23-.68l.63-.2v-.12l-.66.21q-.12-.37-.21-.75a16.29,16.29,0,0,1-.43-2.29s0-.28-.05-.41,0-.43,0-.64,0-.51,0-.75,0-.43,0-.64l-.06-.08A18.32,18.32,0,0,1,8.3,62.05c-.05-.13-.13-.32-.18-.47-.2-.5-.35-1-.49-1.41l-.12-.45c-.13-.5-.24-.95-.32-1.4,0-.17-.06-.34-.08-.5C7,57.41,7,57,7,56.51c0-.11,0-.25,0-.39,0-.42,0-.84,0-1.26v-.4l-.11-.14a7.29,7.29,0,0,1-.47-.71c-.24-.34-.47-.7-.68-1.06l-.35-.67,2-1.06s0-.08,0-.12l-2.1,1.07c-.21-.41-.41-.82-.6-1.25-.07-.16-.15-.36-.23-.57-.18-.46-.33-.87-.47-1.28-.06-.18-.12-.37-.17-.55l-.06-.2q-.15-.47-.27-.93c-.06-.23-.11-.48-.17-.73l0-.12c-.07-.26-.11-.46-.15-.65-.07-.35-.13-.69-.18-1A17.69,17.69,0,0,1,0,34.58c0-.15,0-.32,0-.47s0-.27,0-.42l0-.45c0-.16,0-.3.05-.45s0-.31.07-.5c0,0,.1-.56.13-.7L.48,31c0-.06.17-.6.17-.6s.08-.25.11-.35a9.43,9.43,0,0,1,4.37-5.15A16.39,16.39,0,0,1,7,24l.64-.21c.38-.13.77-.24,1.17-.34l.72-.15c.35-.07.7-.13,1-.17l.68-.08L12.35,23h.73l1.15,0,.5,0c.34,0,.64.05.94.09l.49.06c.29,0,.59.08.88.13l.36.06,1.11.21.17,0A37,37,0,0,1,23,24.89a19.72,19.72,0,0,1,3.79-.36,21,21,0,0,1,4.64.53l.24.06.35.09c.26.06.51.13.76.21l.46.14.44.15c.63.22,1.23.45,1.78.69l.77-.16.22,0q.68-.12,1.32-.18L38,26c.4,0,.85-.06,1.3-.07h.32c.4,0,.79,0,1.18,0H41c.36,0,.78.07,1.19.13l.12,0c.44.06.85.14,1.25.23s.89.22,1.28.33a19,19,0,0,1,1.91.7l.49-.16L48,27l.83-.19.67-.11c.33-.06.61-.09.89-.12l.62-.05.88,0,.56,0a14.15,14.15,0,0,1,2,.2l.42.08c.3.06.58.13.85.2l.57.16.58.2.13,0,.55.22.47.2.9-.34C60.65,17.13,68.8,9.18,83,3.93a70.67,70.67,0,0,1,9.59-2.75c.27-.05.54-.13.8-.2a22.21,22.21,0,0,1,4.09-.8c1.5-.12,2.77-.18,4-.18a35.2,35.2,0,0,1,5,.35A37.88,37.88,0,0,1,116.76,3a80.56,80.56,0,0,1,20.49,13.46,84.67,84.67,0,0,1,12.31,13.41c1.91,2.57,3.73,5.27,5.55,8.24A217.69,217.69,0,0,0,168.38,57.7,68.45,68.45,0,0,0,177.62,68a8.45,8.45,0,0,1,.81.77c4,4.34,4.65,12.27,1.93,23.59a15,15,0,0,0,2.62,2c4,2.17,8.76,6.9,9.64,13.53s-2,12.92-8.5,19a19.43,19.43,0,0,1,5.49,3.79l.17.17a14.89,14.89,0,0,1,1.3,1.53l.3.42a12.6,12.6,0,0,1,2,5.37c0,.34.07.67.08,1,.11,2.57-.53,6.66-4.62,10.61-3.71,3.58-9.22,5.48-15.94,5.48Z"/>
    <g>
      <path class="cls-5" d="M67.81,35.6a4.18,4.18,0,0,1-.29-2.05c.18-3,2.06-6.4,3.63-8.91C73.48,21,77,17.29,81.23,16,85.8,14.63,90.54,13.63,95,12.2c5.33-1.69,10.91-2.12,15.95-.28a35.21,35.21,0,0,1,9.12,4.6c2.15,1.67,4.4,4.81,7.18,5.27-.16.22,5.41,4.8,6.44,6.26a55,55,0,0,0,4.94,6.44c2.13,2.3,4.64,4.35,6,7.34,1.59,3.4,2.87,6.91,5,10.15,2.89,4.47,5.32,9,8.47,13.25,3.5,4.78,7.29,9.38,10.7,14.27,3,4.34-1.44,8.94-.09,14.18a24.48,24.48,0,0,0,2.69,5.73c1.62,2.72,5,3.69,6.48,6.3,4,7.17-7.35,15.83-12.38,18.64-3.21,1.79-8.83,3.38-11.23,6-9-4.9-15.09-14.15-21.61-21.71-6.08-7-10.76-15.29-14.86-23.62-3.59-7.29-7.91-14.06-11.67-21.26C101,53.74,91,43.06,79.88,39.79c-2.3-.68-4.66-1.12-7-1.7S68.57,37.29,67.81,35.6Z"/>
      <path class="cls-6" d="M71.19,36.56C74,27.48,82.53,22.94,91.48,22c13.23-1.37,24.86,7.18,33.71,16.06,9.37,9.4,19.13,21,25.41,32.69,6.53,12.12,13.49,25.12,9.15,39.29-1.45,4.72-4.61,9.61-7.62,13.53-4.08,5.32-5.36,9.35-12.3,5.76-4.93-2.55-8.51-6.55-12.2-10.56-4.88-5.32-9.79-10.44-14-16.32-4.76-6.61-9.32-13.43-14.44-19.78C94.42,76.8,89.59,71.44,85.7,64.93s-7.76-12.06-10.12-19.2a41.28,41.28,0,0,0-1.8-5C73.37,39.86,71.84,36.84,71.19,36.56Z"/>
      <path class="cls-7" d="M74.87,36.58a2.52,2.52,0,0,1,1-1.67,16.71,16.71,0,0,1,5.72-3.24c3-1,6.85-2.22,10-1.63,7.77,1.45,14.52,5.78,20.39,11,8.47,7.48,13.33,18.25,18.59,28,2.93,5.4,6.67,10,10.37,15,3.14,4.16,8,8,10.34,12.64,4.32,8.69,1.5,19.07-3.89,26.48-7.52-2.33-13.3-8-18-14.12-12.45-16-20.82-34.81-32-51.7-4.61-7-10.41-13.68-17.8-17.8C78,38.49,74.86,38,74.87,36.58Z"/>
      <g>
        <path class="cls-8" d="M100,43.24A52,52,0,0,1,99,38c-.5-2-.18-3.94-.26-6-.13-3.68-.65-8.18,1-11.59,1-2.18,5-6.53,5.81-1.82.31,1.64-.89,4.1-1.3,5.68a35,35,0,0,0-.69,7.23c-.18,3.26-.45,6.46-.43,9.7,0,1.05,1.08,4.68-.56,4.71C101.19,45.92,100.43,44.73,100,43.24Z"/>
        <path class="cls-8" d="M107,51.26c-.18-4,3.06-9.12,5-12.54,2-3.61,4.21-8.24,7.06-11.32,1.4-1.51,5.86-2.35,7.07.25,1,2.11-5,8.37-6.24,10.14-2,2.88-4.08,5.84-6.13,8.72-.85,1.18-1.73,2.36-2.47,3.62-.41.71-.89,2.67-1.62,3.09C108.68,53.74,107,52.32,107,51.26Z"/>
        <path class="cls-8" d="M115.05,61.49c1.11-1.38,3.19-2.05,4.67-3,2.27-1.44,4.44-2.88,6.79-4.19a32,32,0,0,1,15.79-4.06c1.52,0,3-.3,3.74,1.11s-.42,3.63-1.64,4.46c-1.66,1.14-4.29,1.08-6.2,1.56-3.4.86-7.1,1.29-10.43,2.42C126.76,60.13,114.34,66.24,115.05,61.49Z"/>
        <path class="cls-8" d="M129.5,84.13c3.32,3.69,8.58,3.78,13.16,3.55s8.69.36,13-1.23c2.92-1.08,7.93-4.17,4.42-7.46-3.06-2.87-4.52-.13-7.11,1a30,30,0,0,1-9.11,2.26,56.51,56.51,0,0,1-9.65-.21c-1.47-.1-5-.86-5.63.76A6.31,6.31,0,0,0,129.5,84.13Z"/>
      </g>
      <path class="cls-9" d="M87.34,37.76c14.36,1.17,25.3,16,31.64,27.18,5.58,9.86,14.24,17.48,19.86,27.29,2.83,4.93,7,18.93-3.64,17.17-4.48-.74-8.12-5-11.24-8-8.34-7.9-13.88-17-21.19-25.72A70,70,0,0,1,90.9,56.6c-1.61-4-7.38-14.76-3.53-18.73C87.9,38.27,87.91,37.92,87.34,37.76Z"/>
      <path class="cls-10" d="M142,35.45c1.79,2.4,3.47,4.91,5.07,7.53a231.34,231.34,0,0,0,13.84,20.45,75.73,75.73,0,0,0,10.59,11.68s2.89,3.14-.76,16.87c0,0-1.74,4.84,7.55,10.5,0,0,12.15,6.13-1.23,18.12A29,29,0,0,1,167,126.36a66.55,66.55,0,0,1-10.22,2.41l-.43-.4c3-2.24,5.93-4.52,8.76-6.91,3.5-3,8.36-6.71,9.94-11.26,1.27-3.67-1.23-5.82-3.5-8.54-3.29-3.94-5.4-6.68-4.78-12.08.32-2.87,2.24-6.28,1-9.08-1-2.22-4.11-3.8-5.9-5.46-8.27-7.69-12.05-20.29-17.34-30.15-7.17-13.36-20.61-25.27-34.69-31.13-9-3.76-19.67.74-28,4.44-3.42,1.51-7.38,2.33-9.4,5.81-1.92,3.29-1.76,7.26-3.55,10.66l-.72-.08c-1.08-.13-.13-4.64,0-5.26,1.48-9,10.5-13.74,18.24-16.59a61.27,61.27,0,0,1,8.29-2.38,32,32,0,0,1,3.71-.83,29.88,29.88,0,0,1,6.94.12A29.13,29.13,0,0,1,113,11.56a72.12,72.12,0,0,1,18.09,11.93A75.93,75.93,0,0,1,142,35.45Z"/>
      <path class="cls-11" d="M96.89,42.77a56,56,0,0,1,11.77,13.17c13.08,15.49,26.65,43.2,26.65,43.2a59.81,59.81,0,0,0,3.41,6.35c13,20.94,35.36,27.86,35.36,27.86a29,29,0,0,1,6.19,2.1,8.43,8.43,0,0,1,3.32,2.59h0a3,3,0,0,1,.51,1.32v0c.15,1.07-.34,2.27-1.73,3.62-3.44,3.32-10.5,3.22-14.84,2.3-3-.64-5.4-1.92-8.16-3.14a59,59,0,0,0-13.32-3.65,79,79,0,0,0-14-.93,83.3,83.3,0,0,0-8.53.59,0,0,0,0,0,0,0q-2.79.3-5.6.78A116.78,116.78,0,0,1,95,140.64c-.88,0-1.76-.07-2.61-.11-22-1.19-34.24-8.75-34.24-8.75a80.78,80.78,0,0,1-19.87-14.94C28.51,106.56,25.4,96.18,24.76,88.2A35.89,35.89,0,0,1,26.22,74l-.32-.11c-.43-.15-.84-.31-1.21-.47-6.66-3-4.65-9.88-4.35-10.8a.66.66,0,0,1,0-.11l-.59-.44C14.07,57.49,17,50.87,17,50.87a.26.26,0,0,1-.13-.06,5.55,5.55,0,0,1-2.32-1.73c-2.06-2.47-2.52-6.43-2.62-7.73,0-.29,0-.44,0-.44-3.65-4.11-2.31-7.8-2.31-7.8,3.78-2.07,10.63.69,12.46,1.5l.46.21a10.69,10.69,0,0,1,7-.58,13.9,13.9,0,0,1,4.67,2.12,3.36,3.36,0,0,1,.46.34c4.49-2.45,8-1.14,9.9.13a8.6,8.6,0,0,1,1.69,1.43l.23-.16c4.84-3.68,7.94-1.9,9.36-.5a5.8,5.8,0,0,1,.94,1.18l.16-.09a39.37,39.37,0,0,1,11.17-4.1,31.51,31.51,0,0,1,15.46.82A40.1,40.1,0,0,1,96.89,42.77Z"/>
      <path class="cls-12" d="M174.08,133.35c2.62.59,7.83,2.12,9.51,4.69h0a3,3,0,0,1,.51,1.32v0c.15,1.07-.34,2.27-1.73,3.62-3.44,3.32-10.5,3.22-14.84,2.3-3-.64-5.4-1.92-8.16-3.14a59,59,0,0,0-13.32-3.65,79,79,0,0,0-14-.93A93.29,93.29,0,0,0,117.9,139,116.78,116.78,0,0,1,95,140.64c-.88,0-1.76-.07-2.61-.11,3.14-.7,6.33-1.68,7.39-1.92,4.53-1.05,9.21-1.26,13.62-2.37,7.65-1.94,14.69-8.92,18-15.91a24.54,24.54,0,0,0,2.13-6.23c.41-2.23-.19-5.58.91-7.52,1-1.79,2.63-1.81,4.31-1.09C151.69,126.43,174.08,133.35,174.08,133.35Z"/>
      <path class="cls-13" d="M22.08,34.61A19.34,19.34,0,0,1,12,41.35c0-.29,0-.44,0-.44a12.15,12.15,0,0,1-1-1.4,7.58,7.58,0,0,1-1.26-6.4c3.06-1.67,8.15-.18,10.94.87C21.21,34.23,21.74,34.45,22.08,34.61Z"/>
      <path class="cls-5" d="M68.07,34.59C68.93,51.2,56.14,70,56.14,70,40.26,87.53,29.22,88.69,24.76,88.2a40,40,0,0,1,.34-9.51A27.89,27.89,0,0,1,26.22,74l-.32-.11c-.43-.15-.84-.31-1.21-.47C44.31,62.25,53.08,44.31,55.8,37.6l.23.23c.12.15.22.25.31.37a6.25,6.25,0,0,1,.4.58l.16-.09,1.61-.82A37.7,37.7,0,0,1,68.07,34.59Z"/>
      <path class="cls-14" d="M55.28,37.14a6.25,6.25,0,0,1,1.46,1.64l.16-.09A55.78,55.78,0,0,1,36.65,67.56,55.87,55.87,0,0,1,25.9,73.87c-.43-.15-.84-.31-1.21-.47a5.07,5.07,0,0,1-.7-.35,3.68,3.68,0,0,1-.64-.37,4.83,4.83,0,0,1-.78-.59.49.49,0,0,1-.19-.16,4.06,4.06,0,0,1-.52-.49,5.47,5.47,0,0,1-.72-.9,3.34,3.34,0,0,1-.37-.6.76.76,0,0,1-.11-.24c-.1-.17-.18-.35-.26-.52A7.79,7.79,0,0,1,20,67.53l-.1-.63a10.66,10.66,0,0,1,0-1.59,6.47,6.47,0,0,1,.07-.65,8.08,8.08,0,0,1,.23-1.33c0-.11.05-.21.08-.32a3.19,3.19,0,0,1,.12-.41.66.66,0,0,1,0-.11l-.59-.44c2.67-1.79,5.08-3.56,7.26-5.3,9.8-7.84,14.9-15,17.49-19.92a8.6,8.6,0,0,1,1.69,1.43l.23-.16C50.75,34.83,53.68,35.87,55.28,37.14Z"/>
      <path class="cls-15" d="M44.89,37.09a7.81,7.81,0,0,1,1.32,1.17l.23-.16c-5.61,14.62-19.26,21.75-26.1,24.5a.66.66,0,0,1,0-.11,10.58,10.58,0,0,1-2.42-2.32c-3.15-4.32-.91-9.3-.91-9.3a.26.26,0,0,1-.13-.06,5.55,5.55,0,0,1-2.32-1.73c3.16-3.42,6.65-7.38,7-8s4.4-4,7.89-6.86a13.9,13.9,0,0,1,4.67,2.12,3.36,3.36,0,0,1,.46.34C39.42,34.09,43.05,35.75,44.89,37.09Z"/>
      <g class="cls-16">
        <path class="cls-17" d="M96.89,42.77a53.87,53.87,0,0,1,2.82,10.78c2.36,14.64.45,30.86-3.73,44.92-4.63,15.65-11.78,27.59-1,42.17a98.77,98.77,0,0,1-14.7-1.5c-2.85-.5-5.43-1.09-7.75-1.72-9.36-2.55-14.4-5.64-14.4-5.64-1.21-.66-2.38-1.36-3.5-2-1.48-.9-2.9-1.82-4.24-2.73a72.46,72.46,0,0,1-12.13-10.19,112.33,112.33,0,0,1,14.8-21.09c9.58-10.92,19-20.1,26.3-32.7A41.18,41.18,0,0,0,85,48.35c.56-3.17-1.59-10-1.47-12.94A40.1,40.1,0,0,1,96.89,42.77Z"/>
      </g>
      <path class="cls-18" d="M92.62,81.8c-.77,6.54-4.32,13.17-7.13,19-4.65,9.7-5.95,20.64-5.92,31.36,0,2,.48,4.47.7,7-2.85-.5-5.43-1.09-7.75-1.72-9.36-2.55-14.4-5.64-14.4-5.64-1.21-.66-2.38-1.36-3.5-2-1.48-.9-2.9-1.82-4.24-2.73-.07-5,7.46-14.73,9.29-17.62,5.92-9.34,13.18-17.34,19.59-26.33a60.93,60.93,0,0,0,4.48-7.91c1.25-2.46,3.5-8.8,6.36-4.14A18.31,18.31,0,0,1,92.62,81.8Z"/>
      <path class="cls-19" d="M34.16,36.36C27.44,46.51,20.64,49.77,16.9,50.81a5.8,5.8,0,0,1-2.55-2c-1.86-2.48-2.3-6.18-2.39-7.43a19.34,19.34,0,0,0,10.12-6.74l.46.21a11.34,11.34,0,0,1,9.84.49A13.05,13.05,0,0,1,34.16,36.36Z"/>
      <path class="cls-20" d="M58.51,37.87s1.07,8.13-11.86,26c0,0-8.21,10.95-21.55,14.87A27.89,27.89,0,0,1,26.22,74l-.32-.11a56.35,56.35,0,0,0,31-35.18Z"/>
      <path class="cls-18" d="M56.74,38.78l.16-.09a56.35,56.35,0,0,1-31,35.18,8.92,8.92,0,0,1-4.64-3.15c4-.94,24.22-6.9,34-33.58A6.25,6.25,0,0,1,56.74,38.78Z"/>
      <path class="cls-18" d="M46.21,38.26l.23-.16c-5.61,14.62-19.26,21.75-26.1,24.5a.66.66,0,0,1,0-.11,10.58,10.58,0,0,1-2.42-2.32c3.65-1.09,16.9-6.08,27-23.08A7.81,7.81,0,0,1,46.21,38.26Z"/>
      <path class="cls-7" d="M34.16,36.36C27.44,46.51,20.64,49.77,16.9,50.81a5.8,5.8,0,0,1-2.55-2,29.91,29.91,0,0,0,18-13.47A13.05,13.05,0,0,1,34.16,36.36Z"/>
      <path class="cls-7" d="M22.08,34.61A19.34,19.34,0,0,1,12,41.35c0-.29,0-.44,0-.44a12.15,12.15,0,0,1-1-1.4A28.85,28.85,0,0,0,20.56,34C21.21,34.23,21.74,34.45,22.08,34.61Z"/>
      <path class="cls-21" d="M96.89,42.77a56,56,0,0,1,11.77,13.17c13.08,15.49,26.65,43.2,26.65,43.2,11.93,25.92,38.77,34.21,38.77,34.21,2.62.59,7.83,2.12,9.51,4.69a35.53,35.53,0,0,0-4.61-2c-7.14-.89-15.45-4.82-15.45-4.82-8.36-3.32-21.84-15.2-21.84-15.2-6.06-5-12.75-17.89-12.75-17.89-5.73-10.9-19.6-30.49-19.6-30.49A71.19,71.19,0,0,0,85,45.55c-12.68-7.31-30.32-.77-30.32-.77C50.54,40.5,44.2,42.86,44.2,42.86c-3.45-5.61-13-2.51-13-2.51A11.74,11.74,0,0,0,20.1,36.83c-4.25-3.57-10.48-3.72-10.48-3.72,3.78-2.07,10.63.69,12.46,1.5l.46.21a10.69,10.69,0,0,1,7-.58,13.9,13.9,0,0,1,4.67,2.12,3.36,3.36,0,0,1,.46.34c4.49-2.45,8-1.14,9.9.13a8.6,8.6,0,0,1,1.69,1.43l.23-.16c4.84-3.68,7.94-1.9,9.36-.5a5.8,5.8,0,0,1,.94,1.18l.16-.09a39.37,39.37,0,0,1,11.17-4.1,31.51,31.51,0,0,1,15.46.82A40.1,40.1,0,0,1,96.89,42.77Z"/>
      <path class="cls-5" d="M82.08,95.9c-6.63,13.42-9.36,27-9.56,41.52-9.36-2.55-14.4-5.64-14.4-5.64-1.21-.66-2.38-1.36-3.5-2,.64-5,3.93-11.32,5.8-14.53,5.84-10,13.22-18.75,19.45-28.37,1.46-2.25,3.14-4.35,4.56-6.64a22.57,22.57,0,0,0,1.8-3.49c.4-1,.31-4,1.87-3a3,3,0,0,1,1,1.8,11.54,11.54,0,0,1-.54,5.64,64.92,64.92,0,0,1-5.3,12.41C82.87,94.38,82.46,95.13,82.08,95.9Z"/>
      <path class="cls-22" d="M184.1,139.39c.15,1.07-.34,2.27-1.73,3.62-3.44,3.32-10.5,3.22-14.84,2.3-3-.64-5.4-1.92-8.16-3.14a59,59,0,0,0-13.32-3.65,79,79,0,0,0-14-.93A93.29,93.29,0,0,0,117.9,139,116.78,116.78,0,0,1,95,140.64c-23.59-.69-36.85-8.86-36.85-8.86a80.78,80.78,0,0,1-19.87-14.94C28.51,106.56,25.4,96.18,24.76,88.2A35.89,35.89,0,0,1,26.22,74l-.32-.11a55.87,55.87,0,0,0,10.75-6.31c.1.06-.1,3.91-.1,4.16a48.9,48.9,0,0,0,1.56,10.61A46.18,46.18,0,0,0,44,96c12.58,19.47,37,30.05,59,34.09,4.34.79,8.08,1.67,12.52,1.47,5.71-.25,11.45-.39,17.17-.1,11.18.58,22.42,3,32.16,8.63C170.64,143.44,179.26,145.53,184.1,139.39Z"/>
      <path class="cls-23" d="M15.75,39.84s-.66,5,6.82,8.41A9.51,9.51,0,0,0,27,56.75a12.48,12.48,0,0,0,2.4,1.19s-1.11,6.45,7.22,9.62A55.87,55.87,0,0,1,25.9,73.87c-.43-.15-.84-.31-1.21-.47a5.07,5.07,0,0,1-.7-.35,3.68,3.68,0,0,1-.64-.37,4.83,4.83,0,0,1-.78-.59.49.49,0,0,1-.19-.16,4.06,4.06,0,0,1-.52-.49,5.47,5.47,0,0,1-.72-.9,3.34,3.34,0,0,1-.37-.6.76.76,0,0,1-.11-.24c-.1-.17-.18-.35-.26-.52A7.79,7.79,0,0,1,20,67.53l-.1-.63a10.66,10.66,0,0,1,0-1.59,6.47,6.47,0,0,1,.07-.65,8.08,8.08,0,0,1,.23-1.33c0-.11.05-.21.08-.32a3.19,3.19,0,0,1,.12-.41.66.66,0,0,1,0-.11l-.59-.44C14.07,57.49,17,50.87,17,50.87a.26.26,0,0,1-.13-.06,5.55,5.55,0,0,1-2.32-1.73c-2.06-2.47-2.52-6.43-2.62-7.73,0-.29,0-.44,0-.44-3.65-4.11-2.31-7.8-2.31-7.8S11.7,38.64,15.75,39.84Z"/>
      <path class="cls-24" d="M59.23,50.67a4.41,4.41,0,0,1-.06-.55c-.1-2.29,1.86-4.74,3.11-6.49,2.61-3.65,6.49-7.27,11.29-7.34,4.61-.07,7.21,1.12,11.33,2.78,1.46.58,8,3,5.52,5.45-1.16,1.16-4.08-.13-5.4-.55-2.9-.93-5.85-1.58-8.93-.7-3.93,1.13-6.93,4.29-10.25,6.67C64.1,51.18,59.82,53.53,59.23,50.67Z"/>
      <path class="cls-7" d="M183.59,138h0a3,3,0,0,1,.51,1.32v0c.15,1.07-.34,2.27-1.73,3.62-3.44,3.32-10.5,3.22-14.84,2.3-3-.64-5.4-1.92-8.16-3.14a59,59,0,0,0-13.32-3.65,79,79,0,0,0-14-.93,83.3,83.3,0,0,0-8.53.59,29,29,0,0,0,3.15-1.62c5.76-3.41,10.88-2,17.14-2.09,5.84-.11,11.57,1.76,17,3.65,4.24,1.47,9.34,2.39,13.75.84,2.07-.74,3.85-2.38,5.68-3.51A8.43,8.43,0,0,1,183.59,138Z"/>
      <path class="cls-24" d="M44.11,46.15c-.28-.95,1.83-3.59,2.14-4.22.8-1.65,1.74-3.23,3.5-4,.93-.39,3.55,0,3.08,1.6-.24.78-1.33.69-1.93,1a11.14,11.14,0,0,0-2.5,2.75c-.84,1-1.92,2.87-3.34,3.1C44.47,46.56,44.19,46.43,44.11,46.15Z"/>
      <path class="cls-24" d="M32.17,41.85a10.92,10.92,0,0,1,2.47-2.92,8.19,8.19,0,0,1,3.46-2.15c1.08-.24,3.22.22,2.51,1.75s-3.37,1-4.49,1.82c-.78.59-2.27,2.91-3.4,2.78C32.08,43.05,32,42.35,32.17,41.85Z"/>
      <path class="cls-24" d="M21.82,38.69a.9.9,0,0,1-.07-.37c0-.59,1.22-1.82,1.68-2.15a4.61,4.61,0,0,1,3.42-1c1.2.28,1.21,1.4.32,2s-2.23.73-3.18,1.16C23.42,38.59,22.15,39.38,21.82,38.69Z"/>
      <path class="cls-24" d="M14.07,34.62c.92.19,2.72.05,1.92-1.16A2.13,2.13,0,0,0,13.56,33C12.18,33.61,12.93,34.39,14.07,34.62Z"/>
    </g>
  </g>
</svg>
