<svg id="Layer_1" data-name="Layer 1" xmlns="http://www.w3.org/2000/svg" width="176.4" height="278.48" viewBox="0 0 176.4 278.48">
  <defs>
    <style>
      .cls-1 {
        opacity: 0.5;
      }

      .cls-2 {
        fill: #fff;
      }

      .cls-3 {
        fill: #512c1e;
      }

      .cls-4 {
        fill: #cac9c7;
      }

      .cls-5 {
        fill: #eabc95;
      }

      .cls-6 {
        fill: #f49398;
      }

      .cls-7 {
        fill: #341c0e;
      }

      .cls-8 {
        fill: #654324;
      }

      .cls-9 {
        fill: #33302e;
      }

      .cls-10 {
        fill: #341d0f;
      }

      .cls-11 {
        fill: #949393;
      }

      .cls-12 {
        fill: #351d0e;
      }

      .cls-13 {
        fill: #983341;
      }

      .cls-14 {
        fill: #361d0e;
      }

      .cls-15 {
        fill: #323131;
      }

      .cls-16 {
        fill: #c7a17b;
      }

      .cls-17 {
        fill: #c19c78;
      }

      .cls-18 {
        fill: #363330;
      }

      .cls-19 {
        fill: #3d3d3c;
      }

      .cls-20 {
        fill: #351810;
      }

      .cls-21 {
        fill: #432712;
      }

      .cls-22 {
        fill: #41403f;
      }

      .cls-23 {
        fill: #402613;
      }

      .cls-24 {
        fill: #484646;
      }

      .cls-25 {
        fill: #36190f;
      }

      .cls-26 {
        fill: #4d3123;
      }

      .cls-27 {
        fill: #381e11;
      }

      .cls-28 {
        fill: #674528;
      }

      .cls-29 {
        fill: #424142;
      }

      .cls-30 {
        fill: #381a11;
      }

      .cls-31 {
        fill: #553022;
      }

      .cls-32 {
        fill: #3a3939;
      }

      .cls-33 {
        fill: #3b1d14;
      }

      .cls-34 {
        fill: #624831;
      }

      .cls-35 {
        fill: #573f31;
      }

      .cls-36 {
        fill: #583c25;
      }

      .cls-37 {
        fill: #464544;
      }

      .cls-38 {
        fill: #373636;
      }

      .cls-39 {
        fill: #504f4f;
      }

      .cls-40 {
        fill: #3d2211;
      }

      .cls-41 {
        fill: #4c3525;
      }

      .cls-42 {
        fill: #5a3d25;
      }

      .cls-43 {
        fill: #4c2f1f;
      }

      .cls-44 {
        fill: #4a2d16;
      }

      .cls-45 {
        fill: #442215;
      }

      .cls-46 {
        fill: #3d2017;
      }

      .cls-47 {
        fill: #341910;
      }

      .cls-48 {
        fill: #575656;
      }

      .cls-49 {
        fill: #4f3119;
      }

      .cls-50 {
        fill: #5e4128;
      }

      .cls-51 {
        fill: #4d4b4b;
      }

      .cls-52 {
        fill: #414141;
      }

      .cls-53 {
        fill: #4d4c4d;
      }

      .cls-54 {
        fill: #3f2219;
      }

      .cls-55 {
        fill: #53392a;
      }

      .cls-56 {
        fill: #503525;
      }

      .cls-57 {
        fill: #56371c;
      }

      .cls-58 {
        fill: #523628;
      }

      .cls-59 {
        fill: #371e0e;
      }

      .cls-60 {
        fill: #4a4848;
      }

      .cls-61 {
        fill: #593c26;
      }

      .cls-62 {
        fill: #545454;
      }

      .cls-63 {
        fill: #6e342f;
      }

      .cls-64 {
        fill: #543829;
      }

      .cls-65 {
        fill: #614033;
      }

      .cls-66 {
        fill: #4d3829;
      }

      .cls-67 {
        fill: #301610;
      }

      .cls-68 {
        fill: #2a180c;
      }

      .cls-69 {
        fill: #55361d;
      }

      .cls-70 {
        fill: #301b0e;
      }

      .cls-71 {
        fill: #555454;
      }

      .cls-72 {
        fill: #4b3019;
      }

      .cls-73 {
        fill: #6e6d6e;
      }

      .cls-74 {
        fill: #674931;
      }

      .cls-75 {
        fill: #351e10;
      }

      .cls-76 {
        fill: #523527;
      }

      .cls-77 {
        fill: #341c0f;
      }

      .cls-78 {
        fill: #442712;
      }

      .cls-79 {
        fill: #9d9d9d;
      }

      .cls-80 {
        fill: #311d0f;
      }

      .cls-81 {
        fill: #b2b0b0;
      }

      .cls-82 {
        fill: #393838;
      }

      .cls-83 {
        fill: #b0adac;
      }

      .cls-84 {
        fill: #462626;
      }

      .cls-85 {
        fill: #2f1c0e;
      }

      .cls-86 {
        fill: #361717;
      }

      .cls-87 {
        fill: #321e0f;
      }

      .cls-88 {
        fill: #3f2713;
      }

      .cls-89 {
        fill: #614c3e;
      }

      .cls-90 {
        fill: #481f14;
      }

      .cls-91 {
        fill: #412121;
      }

      .cls-92 {
        fill: #5e4133;
      }

      .cls-93 {
        fill: #5a3c2d;
      }

      .cls-94 {
        fill: #593d2e;
      }

      .cls-95 {
        fill: #533635;
      }

      .cls-96 {
        fill: #705038;
      }

      .cls-97 {
        fill: #3f2615;
      }

      .cls-98 {
        fill: #47301f;
      }

      .cls-99 {
        fill: #56392b;
      }

      .cls-100 {
        fill: #543736;
      }

      .cls-101 {
        fill: #513534;
      }

      .cls-102 {
        fill: #280e0e;
      }

      .cls-103 {
        fill: #593c2e;
      }

      .cls-104 {
        fill: #321b0f;
      }

      .cls-105 {
        fill: #2e1a0e;
      }

      .cls-106 {
        fill: #4b3520;
      }

      .cls-107 {
        fill: #533736;
      }

      .cls-108 {
        fill: #2c190d;
      }

      .cls-109 {
        fill: #361716;
      }

      .cls-110 {
        fill: #805737;
      }

      .cls-111 {
        fill: #5d422d;
      }

      .cls-112 {
        fill: #c59f7a;
      }

      .cls-113 {
        fill: #4e2f16;
      }

      .cls-114 {
        fill: #472a14;
      }

      .cls-115 {
        fill: #503117;
      }

      .cls-116 {
        fill: #503017;
      }

      .cls-117 {
        fill: #3d2311;
      }

      .cls-118 {
        fill: #513218;
      }

      .cls-119 {
        fill: #412511;
      }

      .cls-120 {
        fill: #4f2f16;
      }

      .cls-121 {
        fill: #3a200f;
      }

      .cls-122 {
        fill: #482a14;
      }

      .cls-123 {
        fill: #4e2f17;
      }

      .cls-124 {
        fill: #3b200f;
      }

      .cls-125 {
        fill: #58381c;
      }

      .cls-126 {
        fill: #55361b;
      }

      .cls-127 {
        fill: #53341a;
      }

      .cls-128 {
        fill: #4d2e15;
      }

      .cls-129 {
        fill: #845c3e;
      }

      .cls-130 {
        fill: #845d3e;
      }

      .cls-131 {
        fill: #845c3d;
      }

      .cls-132 {
        fill: #825b3c;
      }

      .cls-133 {
        fill: #5c3d2e;
      }

      .cls-134 {
        fill: #3a2011;
      }

      .cls-135 {
        fill: #3b2011;
      }

      .cls-136 {
        fill: #472514;
      }

      .cls-137 {
        fill: #492816;
      }

      .cls-138 {
        fill: #371e0f;
      }

      .cls-139 {
        fill: #c7a17c;
      }

      .cls-140 {
        fill: #a17c5a;
      }

      .cls-141 {
        fill: #a07b59;
      }

      .cls-142 {
        fill: #4c4a4a;
      }

      .cls-143 {
        fill: #704f38;
      }

      .cls-144 {
        fill: #382111;
      }

      .cls-145 {
        fill: #d2d0cf;
      }

      .cls-146 {
        fill: #3f2613;
      }

      .cls-147 {
        fill: #adabab;
      }

      .cls-148 {
        fill: #815d42;
      }

      .cls-149 {
        fill: #805c41;
      }

      .cls-150 {
        fill: #7e5a3f;
      }

      .cls-151 {
        fill: #78543a;
      }

      .cls-152 {
        fill: #805637;
      }

      .cls-153 {
        fill: #280f0e;
      }

      .cls-154 {
        fill: #392619;
      }

      .cls-155 {
        fill: #331c0f;
      }

      .cls-156 {
        fill: #a27e5a;
      }

      .cls-157 {
        fill: #403c39;
      }

      .cls-158 {
        fill: #7c5537;
      }

      .cls-159 {
        fill: #3f2121;
      }

      .cls-160 {
        fill: #3d1e1c;
      }

      .cls-161 {
        fill: #402322;
      }

      .cls-162 {
        fill: #413c39;
      }

      .cls-163 {
        fill: #4f4e4e;
      }

      .cls-164 {
        fill: #514e4c;
      }

      .cls-165 {
        fill: #605a51;
      }

      .cls-166 {
        fill: #361714;
      }

      .cls-167 {
        fill: #2a0f0f;
      }

      .cls-168 {
        fill: #3c1b18;
      }

      .cls-169 {
        fill: #dbdbdb;
      }

      .cls-170 {
        fill: #dfdfdf;
      }

      .cls-171 {
        fill: #e2e2e2;
      }

      .cls-172 {
        fill: #58392d;
      }

      .cls-173 {
        fill: #6c483b;
      }

      .cls-174 {
        fill: #0c0d17;
      }

      .cls-175 {
        fill: #240e0e;
      }

      .cls-176 {
        fill: #402218;
      }

      .cls-177 {
        fill: #432b22;
      }

      .cls-178 {
        fill: #44281d;
      }

      .cls-179 {
        fill: #3c1915;
      }

      .cls-180 {
        fill: #46271a;
      }

      .cls-181 {
        fill: #1d1613;
      }

      .cls-182 {
        fill: #1c1712;
      }

      .cls-183 {
        fill: #2a2623;
      }

      .cls-184 {
        fill: #222120;
      }

      .cls-185 {
        fill: #0b0b0b;
      }

      .cls-186 {
        fill: #141412;
      }

      .cls-187 {
        fill: #2a2420;
      }

      .cls-188 {
        fill: #2f2c2a;
      }

      .cls-189 {
        fill: #110f0f;
      }

      .cls-190 {
        fill: #36302b;
      }

      .cls-191 {
        fill: #35312e;
      }

      .cls-192 {
        fill: #421e19;
      }

      .cls-193 {
        fill: #211d1b;
      }

      .cls-194 {
        fill: #342d28;
      }

      .cls-195 {
        fill: #281d15;
      }

      .cls-196 {
        fill: #24211e;
      }

      .cls-197 {
        fill: #0e0e0d;
      }

      .cls-198 {
        fill: #171717;
      }

      .cls-199 {
        fill: #3c1d15;
      }

      .cls-200 {
        fill: #4b2a1c;
      }

      .cls-201 {
        fill: #442519;
      }

      .cls-202 {
        fill: #321812;
      }

      .cls-203 {
        fill: #0e0e0e;
      }

      .cls-204 {
        fill: #2f1612;
      }

      .cls-205 {
        fill: #502f20;
      }

      .cls-206 {
        fill: #4f2e1f;
      }

      .cls-207 {
        fill: #23201d;
      }

      .cls-208 {
        fill: #745036;
      }

      .cls-209 {
        fill: #422012;
      }

      .cls-210 {
        fill: #3a1f11;
      }

      .cls-211 {
        fill: #391d10;
      }

      .cls-212 {
        fill: #3d2111;
      }

      .cls-213 {
        fill: #4c2617;
      }

      .cls-214 {
        fill: #401f12;
      }

      .cls-215 {
        fill: #939292;
      }

      .cls-216 {
        fill: #271110;
      }

      .cls-217 {
        fill: #181818;
      }

      .cls-218 {
        fill: #0c0c0c;
      }

      .cls-219 {
        fill: #1e0d0e;
      }

      .cls-220 {
        fill: #333;
      }

      .cls-221 {
        fill: #4e4e4f;
      }

      .cls-222 {
        fill: #464646;
      }

      .cls-223 {
        fill: #23211f;
      }

      .cls-224 {
        fill: #2e2925;
      }

      .cls-225 {
        fill: #3b1e15;
      }

      .cls-226 {
        fill: #646565;
      }

      .cls-227 {
        fill: #292929;
      }

      .cls-228 {
        fill: #373737;
      }

      .cls-229 {
        fill: #2e2d2d;
      }

      .cls-230 {
        fill: #1c1b1b;
      }

      .cls-231 {
        fill: #323232;
      }

      .cls-232 {
        fill: #1e1412;
      }

      .cls-233 {
        fill: #f9f8f8;
      }

      .cls-234 {
        fill: #191311;
      }

      .cls-235 {
        fill: #83807e;
      }

      .cls-236 {
        fill: #211612;
      }

      .cls-237 {
        fill: #f6f6f6;
      }

      .cls-238 {
        fill: #0f0a09;
      }

      .cls-239 {
        fill: #431d11;
      }
    </style>
  </defs>
  <g>
    <path class="cls-1" d="M175.76,126.19a8,8,0,0,0-2.19-3.15,8.72,8.72,0,0,0-3.52-5.14c-.08-.5-.19-1-.31-1.5a8.24,8.24,0,0,0-.41-1.68l0,.11h0a11.1,11.1,0,0,0-1.61-3.47,10,10,0,0,0-.79-1.21,8.66,8.66,0,0,0-3.58-3.54,7.3,7.3,0,0,0-1-.5,7.89,7.89,0,0,0-3.11-.63,8.06,8.06,0,0,0-7.76,5.74,10,10,0,0,0-.17,5,1.81,1.81,0,0,1-1.5,2,26.37,26.37,0,0,0-7.8-5.16,27.7,27.7,0,0,0-11.23-2.53,22.91,22.91,0,0,0-11.76,3.23c-7.31,4.29-13.86,6.85-20.56,8-.64-.81-1.29-1.56-1.87-2.25-.73-.85-1.43-1.67-2-2.42.29,0,.58,0,.88,0s.52,0,.81,0H98.4c.25,0,.57,0,.94,0a8.59,8.59,0,0,0,3-.56,9.13,9.13,0,0,0,5.26-3,9.66,9.66,0,0,0,2.93-4l-2.56-1v-.07l2.6,1a16.19,16.19,0,0,0,.38-11.6,16.41,16.41,0,0,0-6.31-9.58l-.5-.4c-.5-.42-1.1-.9-1.8-1.39a12.43,12.43,0,0,0-.78-1C100.24,83,99,80.26,98,77.89a26.84,26.84,0,0,0-4.66-7.56,12.84,12.84,0,0,0-2.61-2.73,8.08,8.08,0,0,0-.68-.64,38.07,38.07,0,0,0,4.25-4.7,28.73,28.73,0,0,0,4.41-6.41,9.61,9.61,0,0,0,.71-1.22c6.49-13.56,7.65-27.37,3.43-41.05A13.62,13.62,0,0,0,99,7.07a8,8,0,0,0-13.36,6.18,62.7,62.7,0,0,1-.87,14.58A33.53,33.53,0,0,1,77,43.92a8,8,0,0,0-7.9-6.71A7.3,7.3,0,0,0,68,37.3l-1.25.18a14.63,14.63,0,0,0-3.66.94,56,56,0,0,1,9.75-17.78A8,8,0,0,0,62.44,8.85c-13.87,8.22-23,20.86-27.81,38.58a10.05,10.05,0,0,0-.73.73,13,13,0,0,0-3.17,3.61,8.36,8.36,0,0,0-.72,8,11.56,11.56,0,0,0-.36,1.7l-.09.55a17.13,17.13,0,0,0-.15,3.15l-.14.21-.78,1.23a10.79,10.79,0,0,0-1.84,2,26.82,26.82,0,0,0-5.12,8c-.55,1.27-1,2.52-1.51,3.73a31.47,31.47,0,0,1-3.61,7.42L14.2,90.38l-1.54,1.33-.33.22A12.16,12.16,0,0,0,8.74,95a9.22,9.22,0,0,0-2.25,3.8A10.41,10.41,0,0,0,5.73,101,7.94,7.94,0,0,0,5,104.32v1a7.87,7.87,0,0,0,.58,3,9,9,0,0,0,.38,1.3,9.78,9.78,0,0,0,2,4,11.2,11.2,0,0,0,3.54,3.44,10.42,10.42,0,0,0,4.86,1.94l.3,0a16.41,16.41,0,0,0,2.62.24,11.36,11.36,0,0,0,3.57-.56,10.92,10.92,0,0,0,5.38-2.57l.26-.18c.25-.11.54-.25.87-.43a13.37,13.37,0,0,0,2.38-.93,10.36,10.36,0,0,0,.5,1,11,11,0,0,0,1.45,2.39,9.49,9.49,0,0,0,1.76,2,8.87,8.87,0,0,0,.91.93,10.28,10.28,0,0,0,3.39,2.66A8.24,8.24,0,0,0,42,126a9.53,9.53,0,0,0,1.12,1.16,7.53,7.53,0,0,1-.91.61,8,8,0,0,0,1.67,14.53c-.16.23-.33.45-.5.66l-1,.77a8,8,0,0,0,3.94,14.36,26.08,26.08,0,0,0,2.82.16,16.38,16.38,0,0,0,8.06-1.95l.4-.18q.07.79.12,1.59a14.88,14.88,0,0,0-.32,4.06,92.34,92.34,0,0,0,0,9.43,13.62,13.62,0,0,0,.26,3.57,14.47,14.47,0,0,0,.45,3.63,100,100,0,0,0,3.92,18.53c.91,3,1.94,6,2.93,8.83a116.08,116.08,0,0,1,3.77,12.11c2.47,10.66,3.16,19.15,2.14,26.93a22.75,22.75,0,0,0-6.33,6.65,47.9,47.9,0,0,0-4,8.12l-.17.42a8.84,8.84,0,0,0,7.36,12.54c1.85.22,3.84.43,5.89.52,1.07,0,2.19.06,3.32.06,2.58,0,5.32-.11,8.46-.35a9.22,9.22,0,0,0,6,4.23,54,54,0,0,0,8.7,1.15,8.11,8.11,0,0,0,2.42.37h1.72a8.06,8.06,0,0,0,2.42-.37A85.29,85.29,0,0,0,116,277a9.26,9.26,0,0,0,8-9c0-.54,0-1.07,0-1.59a9.75,9.75,0,0,0,6.24,2.69c.26,0,.68.08,1.12.14a22.64,22.64,0,0,0,3.56.32h.55a23,23,0,0,0,3.39.25,21.07,21.07,0,0,0,3.37-.26h.23a18.35,18.35,0,0,0,3.65-.42c.24-.05.48-.1.73-.13a9.63,9.63,0,0,0,8.52-9.85,23.86,23.86,0,0,0-1.59-8.86,13.88,13.88,0,0,0-2.26-4.3c.48-3.38.65-6.65.82-9.83.16-3,.31-5.82.71-8.53,1.43-9.87,3.63-17.74,6.92-24.77a86.87,86.87,0,0,0,8.19-35.66,76.43,76.43,0,0,0-3-22.33c.18-.08.36-.15.53-.24a8.06,8.06,0,0,0,1.95-1,14.57,14.57,0,0,0,5.89-6,11.52,11.52,0,0,0,1.53-2.88,9.52,9.52,0,0,0,.64-1.89A9.68,9.68,0,0,0,175.76,126.19ZM95.07,222.11l0-1.28a11.6,11.6,0,0,0-.45-3.59c-.15-1.06-.36-2-.55-2.89a18.91,18.91,0,0,1-.39-2.17,13.46,13.46,0,0,0-.28-3.22l-.08-3.22c.66.14,1.32.26,2,.34a10.19,10.19,0,0,1,1.38,2.18c.1,8.38.07,18.09-1.62,27.37,0-.36,0-.72,0-1.09l.08-2.33A41.53,41.53,0,0,0,95.07,222.11Zm28.18,29.29a15,15,0,0,0-1.48,4.37,20.61,20.61,0,0,0-2.67-4.12c-1.27-1.53-1.18-2.17-1.09-2.8,0-.21,0-.42.06-.64l.12-2c.09-1.59.19-3.18.26-4.76.32-6.51,1.08-13.34,4.53-19.22a29.87,29.87,0,0,0,4.3-15l.61-.13c.23.78.46,1.49.66,2.1a61,61,0,0,1,2.57,25.42c-.14,1.42-.36,2.89-.59,4.44-.21,1.39-.42,2.81-.59,4.27A19.84,19.84,0,0,0,123.25,251.4Z"/>
    <path class="cls-2" d="M170.76,121.19a8,8,0,0,0-2.19-3.15,8.72,8.72,0,0,0-3.52-5.14c-.08-.5-.19-1-.31-1.5a8.24,8.24,0,0,0-.41-1.68l0,.11h0a11.1,11.1,0,0,0-1.61-3.47,10,10,0,0,0-.79-1.21,8.66,8.66,0,0,0-3.58-3.54,7.3,7.3,0,0,0-1-.5,7.89,7.89,0,0,0-3.11-.63,8.06,8.06,0,0,0-7.76,5.74,10,10,0,0,0-.17,5,1.81,1.81,0,0,1-1.5,2,26.37,26.37,0,0,0-7.8-5.16,27.7,27.7,0,0,0-11.23-2.53,22.91,22.91,0,0,0-11.76,3.23c-7.31,4.29-13.86,6.85-20.56,8-.64-.81-1.29-1.56-1.87-2.25-.73-.85-1.43-1.67-2-2.42.29,0,.58,0,.88,0s.52,0,.81,0H93.4c.25,0,.57,0,.94,0a8.59,8.59,0,0,0,3-.56,9.13,9.13,0,0,0,5.26-3,9.66,9.66,0,0,0,2.93-4l-2.56-1v-.07l2.6,1a16.19,16.19,0,0,0,.38-11.6,16.41,16.41,0,0,0-6.31-9.58l-.5-.4c-.5-.42-1.1-.9-1.8-1.39a12.43,12.43,0,0,0-.78-1C95.24,78,94,75.26,93,72.89a26.84,26.84,0,0,0-4.66-7.56,12.84,12.84,0,0,0-2.61-2.73,8.08,8.08,0,0,0-.68-.64,38.07,38.07,0,0,0,4.25-4.7,28.73,28.73,0,0,0,4.41-6.41,9.61,9.61,0,0,0,.71-1.22c6.49-13.56,7.65-27.37,3.43-41.05A13.62,13.62,0,0,0,94,2.07,8,8,0,0,0,80.62,8.25a62.7,62.7,0,0,1-.87,14.58A33.53,33.53,0,0,1,72,38.92a8,8,0,0,0-7.9-6.71A7.3,7.3,0,0,0,63,32.3l-1.25.18a14.63,14.63,0,0,0-3.66.94,56,56,0,0,1,9.75-17.78A8,8,0,0,0,57.44,3.85c-13.87,8.22-23,20.86-27.81,38.58a10.05,10.05,0,0,0-.73.73,13,13,0,0,0-3.17,3.61,8.36,8.36,0,0,0-.72,8,11.56,11.56,0,0,0-.36,1.7l-.09.55a17.13,17.13,0,0,0-.15,3.15l-.14.21-.78,1.23a10.79,10.79,0,0,0-1.84,2,26.82,26.82,0,0,0-5.12,8c-.55,1.27-1,2.52-1.51,3.73a31.47,31.47,0,0,1-3.61,7.42L9.2,85.38,7.66,86.71l-.33.22A12.16,12.16,0,0,0,3.74,90a9.22,9.22,0,0,0-2.25,3.8A10.41,10.41,0,0,0,.73,96,7.94,7.94,0,0,0,0,99.32v1a7.87,7.87,0,0,0,.58,3,9,9,0,0,0,.38,1.3,9.78,9.78,0,0,0,2,4,11.2,11.2,0,0,0,3.54,3.44,10.42,10.42,0,0,0,4.86,1.94l.3,0a16.41,16.41,0,0,0,2.62.24,11.36,11.36,0,0,0,3.57-.56,10.92,10.92,0,0,0,5.38-2.57l.26-.18c.25-.11.54-.25.87-.43a13.37,13.37,0,0,0,2.38-.93,10.36,10.36,0,0,0,.5,1,11,11,0,0,0,1.45,2.39,9.49,9.49,0,0,0,1.76,2,8.87,8.87,0,0,0,.91.93,10.28,10.28,0,0,0,3.39,2.66A8.24,8.24,0,0,0,37,121a9.53,9.53,0,0,0,1.12,1.16,7.53,7.53,0,0,1-.91.61,8,8,0,0,0,1.67,14.53c-.16.23-.33.45-.5.66l-1,.77a8,8,0,0,0,3.94,14.36,26.08,26.08,0,0,0,2.82.16,16.38,16.38,0,0,0,8.06-1.95l.4-.18q.07.79.12,1.59a14.88,14.88,0,0,0-.32,4.06,92.34,92.34,0,0,0,0,9.43,13.62,13.62,0,0,0,.26,3.57,14.47,14.47,0,0,0,.45,3.63,100,100,0,0,0,3.92,18.53c.91,3,1.94,6,2.93,8.83a116.08,116.08,0,0,1,3.77,12.11c2.47,10.66,3.16,19.15,2.14,26.93a22.75,22.75,0,0,0-6.33,6.65,47.9,47.9,0,0,0-4,8.12l-.17.42a8.84,8.84,0,0,0,7.36,12.54c1.85.22,3.84.43,5.89.52,1.07,0,2.19.06,3.32.06,2.58,0,5.32-.11,8.46-.35a9.22,9.22,0,0,0,6,4.23,54,54,0,0,0,8.7,1.15,8.11,8.11,0,0,0,2.42.37h1.72a8.06,8.06,0,0,0,2.42-.37A85.29,85.29,0,0,0,111,272a9.26,9.26,0,0,0,8-9c0-.54,0-1.07,0-1.59a9.75,9.75,0,0,0,6.24,2.69c.26,0,.68.08,1.12.14a22.64,22.64,0,0,0,3.56.32h.55a23,23,0,0,0,3.39.25,21.07,21.07,0,0,0,3.37-.26h.23a18.35,18.35,0,0,0,3.65-.42c.24-.05.48-.1.73-.13a9.63,9.63,0,0,0,8.52-9.85,23.86,23.86,0,0,0-1.59-8.86,13.88,13.88,0,0,0-2.26-4.3c.48-3.38.65-6.65.82-9.83.16-3,.31-5.82.71-8.53,1.43-9.87,3.63-17.74,6.92-24.77a86.87,86.87,0,0,0,8.19-35.66,76.43,76.43,0,0,0-3-22.33c.18-.08.36-.15.53-.24a8.06,8.06,0,0,0,1.95-1,14.57,14.57,0,0,0,5.89-6,11.52,11.52,0,0,0,1.53-2.88,9.52,9.52,0,0,0,.64-1.89A9.68,9.68,0,0,0,170.76,121.19ZM90.07,217.11l0-1.28a11.6,11.6,0,0,0-.45-3.59c-.15-1.06-.36-2-.55-2.89a18.91,18.91,0,0,1-.39-2.17,13.46,13.46,0,0,0-.28-3.22l-.08-3.22c.66.14,1.32.26,2,.34a10.19,10.19,0,0,1,1.38,2.18c.1,8.38.07,18.09-1.62,27.37,0-.36,0-.72,0-1.09l.08-2.33A41.53,41.53,0,0,0,90.07,217.11Zm28.18,29.29a15,15,0,0,0-1.48,4.37,20.61,20.61,0,0,0-2.67-4.12c-1.27-1.53-1.18-2.17-1.09-2.8,0-.21,0-.42.06-.64l.12-2c.09-1.59.19-3.18.26-4.76.32-6.51,1.08-13.34,4.53-19.22a29.87,29.87,0,0,0,4.3-15l.61-.13c.23.78.46,1.49.66,2.1a61,61,0,0,1,2.57,25.42c-.14,1.42-.36,2.89-.59,4.44-.21,1.39-.42,2.81-.59,4.27A19.84,19.84,0,0,0,118.25,246.4Z"/>
    <g>
      <path class="cls-3" d="M8.67,102.11c-.61-.43,0-1.34-.67-1.75v-1c.41-.06.28-.44.39-.67.64,0,.6.52.75.91a3.84,3.84,0,0,1,.12,2.07A.8.8,0,0,1,8.67,102.11Z"/>
      <path class="cls-4" d="M97.57,265.48a.82.82,0,0,1,0-.27,1.1,1.1,0,0,1,1.76,0,1.27,1.27,0,0,1,0,.28Z"/>
      <path class="cls-5" d="M54.48,47.26l.75,1.09a10.86,10.86,0,0,1,.68,2.28c1.06-2.78,2-5.61,3.91-7.91.8-.94,1.58-2,3.07-1.67.34.5.07,1-.13,1.4-.37.58-.18,1.25-.33,1.87l0,.08-.06.09c-.59.52-.44,1.27-.61,1.93a45.71,45.71,0,0,0,0,5.49,13.75,13.75,0,0,0,.46,2c.74.77,2,1.2,1.72,2.63C63.28,58,61.93,58.5,60.58,59c-.88.4-1.83.59-2.74.92a2.29,2.29,0,0,1-.89.26,8,8,0,0,0-2,.25,6.67,6.67,0,0,0-1.31.35,8.06,8.06,0,0,0-3.36,1.82c-1,.88-1.86,1.82-2.77,2.75a5.71,5.71,0,0,0-1,1.55c-.49.31-.56,1.89-1.6.53a10.56,10.56,0,0,1-.12-2.38,5.12,5.12,0,0,1,.06-.78,2.68,2.68,0,0,1,.11-.49A21,21,0,0,1,46.48,60c-.32-.44-.59.15-.89.05A10.66,10.66,0,0,0,43,61a8.32,8.32,0,0,0-2.59,1.84A1,1,0,0,1,40,63a.74.74,0,0,1-.5-.49,2.08,2.08,0,0,1,.29-1.4c.25-.47.49-1,.73-1.44s.45-.8.7-1.18a10.68,10.68,0,0,1,1.47-1.81,8.51,8.51,0,0,1,1.16-1,28.78,28.78,0,0,1-6.83,3,7.45,7.45,0,0,1-2,.74,10.18,10.18,0,0,0-1.45.23.78.78,0,0,1-.43-.2c-.37-1,.29-1.62.86-2.22a24.84,24.84,0,0,1,5.79-5c.33-.18.76-.28.83-.75,0,0,0-.1-.09-.13a.39.39,0,0,0-.16-.07,48.54,48.54,0,0,1-6.92.35c-.67-.26-.43-.68-.14-1.06a12.21,12.21,0,0,1,1.06-1.1c.37-.28.74-.58,1.14-.83s.69-.53,1.09-.72a5.41,5.41,0,0,1,.95-.51A8.11,8.11,0,0,0,38.3,47l.44-.18c.87-.3,1.79-.38,2.67-.64a12.76,12.76,0,0,1,4.69.24c1,.22,2.12.39,3.17.58.23,0,.18-.34.14-.12s0,.08-.13.09a1.23,1.23,0,0,1-.93-.31,16.38,16.38,0,0,0-7.4-3,.5.5,0,0,1-.28-.46c1.68-1.44,3.67-.84,5.56-.84.4,0,.77.21,1.17.25.63.1,1.14.52,1.76.64a7.62,7.62,0,0,1,2.66,1.28c.45.2.69.65,1,1,.21-.06.3,0,.26.23A11.21,11.21,0,0,1,54.48,47.26Z"/>
      <path class="cls-6" d="M95,103.48c.09.15,0,.23-.13.25a33,33,0,0,1-4.87,0,16.73,16.73,0,0,1-3.23-1.06,9.37,9.37,0,0,1-1.63-1c-.47-.26-.81-.69-1.29-.94a3.06,3.06,0,0,1-1.44-1.57,8.63,8.63,0,0,1-1.16-1.4c-.26-.36-.55-.72-.78-1.1s-.46-1-.73-1.43a11.11,11.11,0,0,1-1.27-2.56c-.38-.67-.43-1.46-.77-2.14a15.19,15.19,0,0,1-.42-3.21V86.21a13.22,13.22,0,0,0-.38-3.06A7.83,7.83,0,0,1,76.63,82c-.18-1.6.85-3.43,2-3.6s2.25.88,2.65,2.66c.31,1.34.31,2.73.56,4.08a8.92,8.92,0,0,0,7.85,7.5,18.08,18.08,0,0,1,6.71,2,3.42,3.42,0,0,1,1.77,1.56c.71,1.55.37,3.1,0,4.65a8.23,8.23,0,0,1-1,1.62l0,0A3.4,3.4,0,0,1,95,103.48Z"/>
      <path class="cls-7" d="M63.69,56.55c.16-1.26-.91-1.7-1.6-2.4-.13-.36,0-.41.34-.33.74.72,1.46.32,2.2,0,12.82-5.74,20.13-15.78,23-29.35A69.26,69.26,0,0,0,88.61,8a5.94,5.94,0,0,1,1.6,2.93c3.74,12.15,2.44,23.88-3,35.25a3,3,0,0,1-.33.39c-.32.1-.46-.1-.56-.36-.07-1.36,1-2.32,1.25-3.56a28.29,28.29,0,0,0,1.27-3.36,70.58,70.58,0,0,0,1.87-8.39c.25-3.23.89-6.45.33-9.71A46.66,46.66,0,0,0,89.69,13c.52,11.43-3.44,26.07-14,35.21A39.44,39.44,0,0,1,67,54c-.45.21-1.14.3-1.21.85s.68.65,1.07.94,1,.7,1.57,1.06a21.53,21.53,0,0,1,3.05,2.51,1.41,1.41,0,0,0,2.11.18c1.59-1,3-2.35,4.48-3.48a25.34,25.34,0,0,0,2.17-2.1c1-.69,1.41-2,2.66-2.31.25.1.43.23.28.54a38.68,38.68,0,0,1-9.3,8.52c-.82.57-1.36,1-.48,1.91a.69.69,0,0,1,.15.31,4.67,4.67,0,0,0,4.07,3.76c0,.32-.18.43-.43.51-1-.15-1.49.09-1.07,1.26.61,1.72.56,3.63,1.58,5.24a.68.68,0,0,1-.11.93.6.6,0,0,0-.42.79,11.29,11.29,0,0,1-.34,5.36c-.25,1.11.59,2.25-.26,3.26-.62.48-.36,1.17-.35,1.76a87.09,87.09,0,0,0,5,27.28c1.27,3.72,4.41,6.38,6.68,9.53,1.77,2.44,3.81,2.6,6.53,2.15a68.76,68.76,0,0,0,23.72-9.09c5-3,10.45-2.6,15.7-.28a17.89,17.89,0,0,1,6.15,4.29c.08.37-.14.48-.44.53a6.15,6.15,0,0,1-2.46-1.51A18.23,18.23,0,0,0,123.64,115a14,14,0,0,0-5.9,2.23A62.1,62.1,0,0,1,93.5,126c-.74,0-1.43.3-2.17.31a3.2,3.2,0,0,1-1.4-.23c-5.05-4.69-9.42-9.8-11.22-16.74-2.14-8.24-3.95-16.51-3.67-25.1,0-1.27.38-2.5.35-3.76.18-5.24,0-10.41-2.14-15.35a16.36,16.36,0,0,0-7.43-8,2.74,2.74,0,0,0-1.65-.35A.69.69,0,0,1,63.69,56.55Z"/>
      <path class="cls-8" d="M77.56,74.43c-1.58-2.38-1.47-5.25-2.42-7.84.86-.26,1.41.31,2.07.36a2.52,2.52,0,0,1,1.19.53,10.25,10.25,0,0,1,1.79,1.35A10.45,10.45,0,0,1,82,70.66a25.15,25.15,0,0,1,4.06,7.07,66.19,66.19,0,0,0,3.74,7.49c.47.6.8,1.32,1.53,1.69a.37.37,0,0,1,.06.29,31.35,31.35,0,0,0,3.32,2.65,8.56,8.56,0,0,1,2.35,2.7c.27.45.72,1-.12,1.43a3.2,3.2,0,0,1-2.08-.89c-1.25-1-2.77-1-4.22-1.24a6.58,6.58,0,0,1-1.26-.15,15.25,15.25,0,0,1-4.21-1.8,1.67,1.67,0,0,1-.55-.54A19.68,19.68,0,0,1,83,85.88c-.37-1.06-.25-2.22-.57-3.29-.1-.57-.25-1.13-.4-1.69a10.31,10.31,0,0,0-3.78-5.54A1.26,1.26,0,0,1,77.56,74.43Z"/>
      <path class="cls-7" d="M132.68,241.65c.22-3.78,1-7.49,1.4-11.25a69.55,69.55,0,0,0-2.93-28.69c-.41-1.25-.8-2.51-1.09-3.79a25.18,25.18,0,0,1-.49-3.23,8.86,8.86,0,0,1,.44-3.37,37.58,37.58,0,0,1-12.82,3.51c-.28,0-.57,0-.86,0-3,0-3.17.09-2.52,2.94a20.71,20.71,0,0,1-2.73,15.37c-4.19,7.14-5.23,14.89-5.62,22.88-.1,2.23-.25,4.46-.38,6.69a35.43,35.43,0,0,0-.11,4.12c0,.41.23,1-.49,1.09a1.52,1.52,0,0,1-.47-1.24,114.25,114.25,0,0,1,1.77-24.14c.77-4,3-7.29,4.71-10.85a23.31,23.31,0,0,0,2-14.56,26.43,26.43,0,0,1,.1-9.59,107.11,107.11,0,0,1,3.63-14.87c1.08-3.2,1.06-6.54,1.54-9.82a2.69,2.69,0,0,1,.38-1.47c1.34-.1,1.24,1,1.25,1.73a31.73,31.73,0,0,1-1,8c-.46,1.78-1.07,3.51-1.54,5.28a99.06,99.06,0,0,0-2.65,11.77,5.79,5.79,0,0,1-.16.83c-.77,4.35-.21,5.12,4.1,4.55,5.52-.73,10.76-2.37,15.21-5.93a17.43,17.43,0,0,0,6.08-10.32,37.57,37.57,0,0,0,.16-14.18,5,5,0,0,1-.17-1.15c0-.44.14-.8.65-.82a.89.89,0,0,1,.88.69,11.32,11.32,0,0,1,.61,3c.44,5.69.59,11.35-1.72,16.78a17.37,17.37,0,0,1-6.5,8.06,5.18,5.18,0,0,0-2.58,5.37,22.53,22.53,0,0,0,1.13,5.21c3.3,9.07,4.12,18.47,3.62,28-.24,4.52-1.25,9-1.75,13.5a1.71,1.71,0,0,1-.73,1.31C132.17,242.85,132.59,242.2,132.68,241.65Z"/>
      <path class="cls-9" d="M104.41,247.89c.75-1,.23-2.1.39-3.15.09-.66-.22-1.38.28-2-.48,3.47.6,6.28,2.87,9a15.11,15.11,0,0,1,3.13,10.8c-.06,1-.36,1.4-1.36,1.57a72.73,72.73,0,0,1-10.41,1.06H97.55a50.73,50.73,0,0,1-9.35-1.06c-.87-.19-1.1-.5-1-1.36A21.78,21.78,0,0,1,89,256.26c-1.89.14-2-.9-1.84-2.33a11.1,11.1,0,0,1,5.58-8.73c.33.1.67-.06,1,0a17.38,17.38,0,0,0,3.71.65,3.12,3.12,0,0,1,1.14.52c.32.5.05,1.09.23,1.61,1,.89,2,.44,3.08.3a8.24,8.24,0,0,1,2.07-.62A.78.78,0,0,1,104.41,247.89Z"/>
      <path class="cls-10" d="M141.69,121.37l.67.44c.48.14.73.54,1,.88a37.36,37.36,0,0,1,5,7.41c.18.39.43.76.62,1.15a1.35,1.35,0,0,1-.07.82,69.54,69.54,0,0,1,6.35,30,78.6,78.6,0,0,1-7.45,32.39,95.6,95.6,0,0,0-7.59,27c-.93,6.37-.64,12.83-1.65,19.19-.15.9-.28,1.81-.41,2.72a.55.55,0,0,1-.74,0,1.26,1.26,0,0,1-.22-.5,3,3,0,0,1,0-1.12c.26-2.79.8-5.56.81-8.37a103.25,103.25,0,0,1,4.75-29.29,105,105,0,0,1,4.82-12.33,74.32,74.32,0,0,0,6.21-35.61c-.75-11-3.74-21.34-10.1-30.53-.88-1.26-2.15-2.26-2.59-3.81C141.2,121.56,141.29,121.3,141.69,121.37Z"/>
      <path class="cls-11" d="M148.87,131.41a1.48,1.48,0,0,1-.73-1,.86.86,0,0,1,.93-.29,23.82,23.82,0,0,0,8.22.2c-.86,0-2,.19-3.21.13a3.94,3.94,0,0,1-2.12-.58c-.63-.43-1.24-.92-1.2-1.77s.74-1.12,1.37-1.39a18,18,0,0,0,4.41-2.65c-1.66.26-3.23.84-4.9,1-.77.07-1.58.17-2-.57s.24-1.39.74-1.9a38.21,38.21,0,0,0,2.7-3.12,8.91,8.91,0,0,0,1.94-6.27,5,5,0,0,0-.19-1.55c.32-.76-.86-1.7.28-2.36.19.48.85.7.72,1.35.49.49.33,1.36,1,1.75v.39c-.18,1.22.4,2.4.18,3.62-.16.92-.35,1.83-.59,2.73a9.24,9.24,0,0,0-.91,2.6l0,0a1.83,1.83,0,0,0,1.73,0,.36.36,0,0,1,0-.32,6.21,6.21,0,0,0,1.83-.85.69.69,0,0,1,.93-.1.74.74,0,0,1,.12.94,10.38,10.38,0,0,1-1,2,16.42,16.42,0,0,1-2.27,3.22l-.35.34c-.37.59-1.13.66-1.55,1.16.61,1.14,1.51.46,2.32.36a13.61,13.61,0,0,0,3.21-1.07c.53-.17.86-.9,1.57-.52.42.78-.29,1.21-.55,1.78-.66,1.54-2.25,2.2-3.25,3.42l-.12.11H158a18.85,18.85,0,0,0-2.8.49A12.82,12.82,0,0,1,148.87,131.41Z"/>
      <path class="cls-12" d="M37.62,47.59l-1,.45a.31.31,0,0,1,0-.46C40.2,32.1,47.43,19.08,61.52,10.73,54.17,20.2,49,30.52,48.41,42.75c-.64.28-.78-.25-1-.62a2.34,2.34,0,0,1-.14-.83,17.4,17.4,0,0,0,.27-2.7,42.92,42.92,0,0,1,1.79-7.75c.32-.9.54-1.83.94-2.7a84.79,84.79,0,0,1,5.31-10.88c.38-.63.78-1.24,1.16-1.87.09-.14.31-.36.28-.4-.12-.2-.19,0-.26.1A47.24,47.24,0,0,0,47.54,25,68.16,68.16,0,0,0,38,46.09C37.69,46.56,37.88,47.12,37.62,47.59Z"/>
      <path class="cls-13" d="M84.79,89.27l.43.43a12,12,0,0,0,4,1.8,8.9,8.9,0,0,0,1.55.08c1.46.46,3,.43,4.4,1.26l1.7,1a1.91,1.91,0,0,1,1.33,2,.94.94,0,0,1-.26.44c-2.1-2-4.84-2.54-7.53-3-6.2-1.12-9-4.16-9.32-10.51a5.9,5.9,0,0,0-.74-3c-.93-1.44-2.08-1.37-2.83.16a3.48,3.48,0,0,0-.3,2.81,7.53,7.53,0,0,1,.32,3.56.28.28,0,0,1-.39,0c-.1-.48,0-1-.53-1.35L76.52,84a32.61,32.61,0,0,1,.28-6.55,16.46,16.46,0,0,0-.21-2.7c-.09-1.33.57-.43,1-.32.24.26.49.51.74.77a11,11,0,0,1,3.91,5.6c0,.6.48,1.08.38,1.7.34,1.06.21,2.19.58,3.24C83.33,87.09,84.3,88.07,84.79,89.27Z"/>
      <path class="cls-14" d="M34.89,59l2-.77c.39-.19.71-.21.83.32-.48,1-1.48,1.55-2.24,2.31-4.43,4.4-6.44,9.6-5.39,15.86a13,13,0,0,1,.09,1.54A67.57,67.57,0,0,0,33.7,92.07c.28.81.5,1.64.72,2.47a5.14,5.14,0,0,1,.28,1,3.33,3.33,0,0,1-.89,2.11c-.32,0-.45-.18-.48-.48a6.27,6.27,0,0,0-.16-2.07c-.37-3.09-1.88-5.85-2.56-8.84-.1-.45-.18-.9-.27-1.34a4.82,4.82,0,0,1-.93-1.51c-.75-1.51-.21-3.35-1.25-4.79.52-1.86,0-3.71,0-5.57a15,15,0,0,1,.72-4.67c.07-.41.37-.74.43-1.16,1.82-2.5,3.15-5.37,5.46-7.53A1,1,0,0,1,34.89,59Z"/>
      <path class="cls-15" d="M141.3,247.91a15.73,15.73,0,0,1,1.17,6.18c0,1.14-.37,1.85-1.56,2a15.21,15.21,0,0,1-4,.43,23.54,23.54,0,0,1-5.93,0c-1.72.22-3.38-.29-5.07-.4-1.05-.06-1.67-.58-1.51-1.86a10.63,10.63,0,0,1,1.07-4.33c.35-.1.51.11.62.38.17,1.06-.36,2-.5,3s.11,1.67,1.25,1.75,2.34.79,2.86-.87c.26-.88.39-1.79.7-2.65a10.72,10.72,0,0,1,.66-1.77c.46-.81.84-2.14,1.91-1.82s.28,1.51.27,2.32-.27,1.69-.33,2.55c-.21,2.7-.08,2.84,2.57,2.83a6.94,6.94,0,0,0,2.36-.16,12.47,12.47,0,0,0,3.4-.85c.66-1,.37-2,.14-3a9.39,9.39,0,0,1-.63-3.35C140.81,248.07,141,247.86,141.3,247.91Z"/>
      <path class="cls-16" d="M41,50.73c.84.88,0,1.17-.55,1.47a25.17,25.17,0,0,0-6.41,5.35,2.87,2.87,0,0,0-.93,1.78c-.92-.08-.35-.79-.5-1.19a11.92,11.92,0,0,1,.7-1.92c.13-.51.6-.79.84-1.22.24-.92,1-1.37,1.68-1.88C37.26,51.61,39.14,51.15,41,50.73Z"/>
      <path class="cls-17" d="M62.86,41c-3.3,1.24-4.31,4.3-5.57,7.12-.48,1.07-.63,2.3-1.1,3.38-.33.79-.47.12-.59-.21.5-1-.72-2.34.61-3.18-.67-1.22.06-2.41.58-3.21,1.4-2.19,3.15-4.17,6-4.5A.47.47,0,0,1,62.86,41Z"/>
      <path class="cls-18" d="M125.83,250.33l-.4-.38a11.85,11.85,0,0,1,5.46-5.9,3.21,3.21,0,0,0,1.79-2.4c.17.47-.15,1,.36,1.43a1.71,1.71,0,0,1,1.06.39,3.37,3.37,0,0,0,2.3.05,2.44,2.44,0,0,1,1.14-.09h.63c1.11,1.45,2.64,2.6,3.13,4.49l-.33.35c-1.15-.19-1.27-1.35-1.85-2-.82-1-1.59-1.75-3-1.16a3.07,3.07,0,0,1-2.36,0,2.89,2.89,0,0,0-3,.5,13.48,13.48,0,0,0-3.6,3.62C126.78,249.61,126.66,250.37,125.83,250.33Z"/>
      <path class="cls-19" d="M155.08,109.3c-.58.83.25,1.62,0,2.44.28.7-.15,1.38,0,2.08a9.47,9.47,0,0,1-4.81,6.9,13.13,13.13,0,0,1-7.29,2l-.64-1c1.23-.2,2.5-.32,3.7-.63,5.73-1.5,8.47-5.21,8.3-11.14a1.83,1.83,0,0,1,0-1.45A.84.84,0,0,1,155.08,109.3Z"/>
      <path class="cls-20" d="M17.62,87.88c3-3.9,4.34-8.6,6.26-13A17.89,17.89,0,0,1,28,68.64a.24.24,0,0,1,.42,0,2.11,2.11,0,0,1-.66,1.69A30.45,30.45,0,0,0,23.3,79a33.15,33.15,0,0,1-3.91,8c-.38.56-.7,1.19-1.42,1.42C17.68,88.33,17.47,88.23,17.62,87.88Z"/>
      <path class="cls-20" d="M89.66,85.53c-2.48-3.77-3.77-8.14-6-12-.56-1-1.26-1.87-1.9-2.8-.08-.32,0-.46.35-.35a18.36,18.36,0,0,1,3.59,5.72,96.18,96.18,0,0,0,4.36,9C90.16,85.48,90,85.57,89.66,85.53Z"/>
      <path class="cls-21" d="M41,50.73l-5.17,2.39c.43-.85.59-1.49-.78-1.32a12.23,12.23,0,0,1-2.18,0c-.41,0-.84-.13-.42-.71.38-.2.5.21.75.31Z"/>
      <path class="cls-22" d="M158.86,123.38c.21-1,1-1.72,1-2.9-1,.27-1.63,1.24-2.68.89.82-.55,1.64-1.12,2.47-1.66.27-.18.58-.46.92-.17a.71.71,0,0,1,.17.79c-.43,1.27-.65,2.66-1.82,3.56A.33.33,0,0,1,158.86,123.38Z"/>
      <path class="cls-23" d="M86.52,46.19l.36.38a20.26,20.26,0,0,1-3.75,5.58l-.37-.4c.15-1.89,1.88-2.9,2.55-4.51C85.52,46.76,85.81,46.18,86.52,46.19Z"/>
      <path class="cls-24" d="M148.87,131.41a28.43,28.43,0,0,0,6.49,1c.35-.1.75-.3.77.35-2.48.66-4.83-.16-7.21-.65C148.45,131.89,148.85,131.64,148.87,131.41Z"/>
      <path class="cls-25" d="M98,95.81c0-.87-.73-1.35-1.14-2,.21-1.9-1.26-2.74-2.38-3.81,0-.32,0-.5.41-.36a8.46,8.46,0,0,1,3.42,5.45C98.39,95.4,98.64,95.79,98,95.81Z"/>
      <path class="cls-26" d="M98,95.81l.31-.72a8.17,8.17,0,0,1-.11,6.29c-.33,0-.49-.08-.33-.44a8.83,8.83,0,0,0,.06-4.73C98,96.08,98,95.94,98,95.81Z"/>
      <path class="cls-27" d="M12.48,93.12,14.87,91c.31-.13.43.06.52.3-.74,1.29.89.55,1,1.14a.62.62,0,0,1-.13.47c-1,.78-2.19.63-3.33.76C12.62,93.61,12.4,93.47,12.48,93.12Z"/>
      <path class="cls-28" d="M61.67,52.24a14.1,14.1,0,0,1,0-6.1c.41.28.07.8.35,1.12v3.81C61.75,51.4,62.12,52,61.67,52.24Z"/>
      <path class="cls-29" d="M160.59,127.51a6.34,6.34,0,0,1-3.35,1.15c-.41.06-.92.45-1.09-.31l4-1.15C160.52,127,160.63,127.18,160.59,127.51Z"/>
      <path class="cls-30" d="M15.23,91.34l-.36-.3,2.75-3.16.35.41A4.06,4.06,0,0,1,15.23,91.34Z"/>
      <path class="cls-31" d="M89.67,103.63a16.92,16.92,0,0,1,5.17.1c-.19.62-.69.34-1.08.36a6.56,6.56,0,0,0-2.72,0c-.52,0-1.08.16-1.36-.49Z"/>
      <path class="cls-32" d="M158.23,132c.64-1.49,2.33-2,3.08-3.41a.23.23,0,0,1,.39,0C161.1,130.34,159.66,131.18,158.23,132Z"/>
      <path class="cls-33" d="M94.89,89.64l-.41.36c-1-1-2.53-1.35-3.09-2.8A16.28,16.28,0,0,1,94.89,89.64Z"/>
      <path class="cls-34" d="M62.86,41l-.06-.6,1.34-.2-1.29,2.71c-.23-.07-.25-.31-.37-.47Z"/>
      <path class="cls-35" d="M89.67,103.63v0c-1.27.6-2.16-.28-3.14-.79a.27.27,0,0,1,0-.44C87.6,102.8,88.8,102.81,89.67,103.63Z"/>
      <path class="cls-36" d="M56.21,48.12c-.53,1,0,2.21-.61,3.18.16-1-1-1.87-.37-2.95Z"/>
      <path class="cls-18" d="M130.94,256.54h5.93A15,15,0,0,1,130.94,256.54Z"/>
      <path class="cls-37" d="M158.86,123.38l.07.51c-.43,1.1-.72,2.32-2.1,2.67A14.32,14.32,0,0,1,158.86,123.38Z"/>
      <path class="cls-38" d="M156.78,116.48c.3-1.23-.68-2.46,0-3.69a8.93,8.93,0,0,1,.31,4.44C156.47,117.21,156.69,116.82,156.78,116.48Z"/>
      <path class="cls-39" d="M156.15,128.35c.29.36.71.25,1.09.31a2.82,2.82,0,0,1-2.16.27c-.7-.06-1-.42-.31-1,.15-.17.28-.16.41,0C155.35,128.47,155.84,128.19,156.15,128.35Z"/>
      <path class="cls-40" d="M141.69,121.37l-.38.39a1.7,1.7,0,0,1-1.74-1.74l.39-.38A4.78,4.78,0,0,1,141.69,121.37Z"/>
      <path class="cls-41" d="M77.54,87.27c.2,1.12,0,2.29.43,3.37.12.34.31.71-.32.74a6.21,6.21,0,0,1-.47-2.62C77.19,88.23,76.68,87.59,77.54,87.27Z"/>
      <path class="cls-24" d="M156.78,116.48l.33.75a5.68,5.68,0,0,1-.66,2.42c-.31,0-.53,0-.35-.39Z"/>
      <path class="cls-42" d="M51.77,44.8l-2.46-1.31a.69.69,0,0,1,.36-.31,5,5,0,0,1,2.46,1.31A.53.53,0,0,1,51.77,44.8Z"/>
      <path class="cls-43" d="M78.57,92.79a9.29,9.29,0,0,1,1.34,2.43c0,.17-.07.35-.29.39a5.45,5.45,0,0,1-1.32-2.84C78.4,92.66,78.49,92.66,78.57,92.79Z"/>
      <path class="cls-44" d="M33.24,51.37l-.75-.31a4.53,4.53,0,0,1,2-2c.19.12.19.25,0,.39C34.25,50.17,33.21,50.41,33.24,51.37Z"/>
      <path class="cls-45" d="M9.71,95.48a4,4,0,0,1,1.72-1.68c.52.12.52.12.21.83-.67.51-.87,1.64-2,1.55A.62.62,0,0,1,9.71,95.48Z"/>
      <path class="cls-46" d="M80.06,69l-1.8-1.35c0-.21.22-.24.36-.34a3.71,3.71,0,0,1,1.73,1.35C80.48,68.94,80.38,69,80.06,69Z"/>
      <path class="cls-47" d="M80.06,69l.29-.34a4.56,4.56,0,0,1,1.73,1.73l-.35.35Z"/>
      <path class="cls-48" d="M162,126.22a2.44,2.44,0,0,1,.7-1.38c.69,0,.45.44.39.8s0,.71-.35.93a.58.58,0,0,1-.7.09.29.29,0,0,1-.12-.28C161.94,126.28,162,126.22,162,126.22Z"/>
      <path class="cls-49" d="M32.91,58c.07.46-.35,1,.24,1.36l.36.08c.17.09.38.1.45.33-1.73.6-1.73.6-1.45-1.78A.28.28,0,0,1,32.91,58Z"/>
      <path class="cls-50" d="M61.67,52.24c.1-.4,0-.87.38-1.17l.38,2.75-.34.33C61.45,53.63,61.77,52.88,61.67,52.24Z"/>
      <path class="cls-51" d="M156.1,119.26l.35.39a6.75,6.75,0,0,1-1,2.09C154.87,120.7,155.86,120.07,156.1,119.26Z"/>
      <path class="cls-52" d="M162,126.59l.74,0a4,4,0,0,1-1,2.07l-.39,0c.17-.6.72-1.05.69-1.74-.09-.06-.12-.13-.09-.19S162,126.59,162,126.59Z"/>
      <path class="cls-53" d="M156.13,132.72c-.18-.29-.48-.3-.77-.35.84-.29,1.67-.71,2.59-.24A3.29,3.29,0,0,1,156.13,132.72Z"/>
      <path class="cls-54" d="M89.66,85.53l.37-.42a5.8,5.8,0,0,1,1.3,1.8C90.2,87.13,90.23,86,89.66,85.53Z"/>
      <path class="cls-55" d="M8.75,99.76c-.09-.38,0-.83-.36-1.11a3.06,3.06,0,0,1,.6-1.8.73.73,0,0,1,.55.55C9.44,98.24,9.79,99.23,8.75,99.76Z"/>
      <path class="cls-56" d="M95,103.48l2.28-1.07C96.73,103.28,96.22,104.15,95,103.48Z"/>
      <path class="cls-57" d="M62,47.26c-.39-.29-.25-.74-.35-1.12.18-.58-.42-1.51.73-1.65C62,45.37,62.24,46.34,62,47.26Z"/>
      <path class="cls-58" d="M81.31,97.61a2.3,2.3,0,0,1,1.07,1.55c-.83,0-1-.68-1.35-1.19S81,97.58,81.31,97.61Z"/>
      <path class="cls-59" d="M49.67,43.18l-.36.31-1.68-.43a.63.63,0,0,1-.23-.61.59.59,0,0,1,.27-.35l.74.65Z"/>
      <path class="cls-60" d="M162,126.59v.29c-.59,0-.91.5-1.41.63l-.41-.31a3.4,3.4,0,0,1,1.82-1Z"/>
      <path class="cls-61" d="M32.91,58h-.4c.14-.62,0-1.35.78-1.69h0A2.17,2.17,0,0,1,32.91,58Z"/>
      <path class="cls-62" d="M155.18,128l-.41,0a2.9,2.9,0,0,1,1.71-1C156.45,127.74,155.9,128,155.18,128Z"/>
      <path class="cls-63" d="M77.54,87.27c-.47.41-.21,1-.36,1.49a4.57,4.57,0,0,1-.21-2.2.53.53,0,0,1,.3-.35l.26,0C77.53,86.58,77.54,86.92,77.54,87.27Z"/>
      <path class="cls-64" d="M86.58,102.36l0,.44a3.38,3.38,0,0,1-1.76-1c0-.21.22-.24.37-.31Z"/>
      <path class="cls-65" d="M78.57,92.79h-.14l-.13,0c-.56-.3-.46-.92-.65-1.39l.32-.74A4.52,4.52,0,0,1,78.57,92.79Z"/>
      <path class="cls-66" d="M11.45,94.45c0-.22.39-.45,0-.65l1.05-.68.35.36c.13.5-.27.7-.53,1S11.73,94.77,11.45,94.45Z"/>
      <path class="cls-67" d="M28.31,68.64H28a3,3,0,0,1,1.34-1.4c.42.22.08.48,0,.72C29.05,68.24,29,68.92,28.31,68.64Z"/>
      <path class="cls-68" d="M91,104.08a3.27,3.27,0,0,1,2.72,0Z"/>
      <path class="cls-69" d="M54.48,47.26c-.79-.19-1.07-.84-1.35-1.49C54.08,45.81,54.42,46.41,54.48,47.26Z"/>
      <path class="cls-70" d="M79.62,95.61l.29-.39.73,1.35a.53.53,0,0,1-.3.35C79.85,96.62,79.8,96.08,79.62,95.61Z"/>
      <path class="cls-68" d="M9.31,97.24,9,96.85c.09-.54.11-1.11.72-1.37l0,.76C10.05,96.77,9.83,97.07,9.31,97.24Z"/>
      <path class="cls-71" d="M156.8,112.4c-1-.18-.79-1.1-1-1.75C156.54,111,156.57,111.76,156.8,112.4Z"/>
      <path class="cls-59" d="M36.58,47.58l0,.46a1.8,1.8,0,0,1-1,.65.28.28,0,0,1-.1-.27c0-.09.05-.14.08-.14A1.07,1.07,0,0,1,36.58,47.58Z"/>
      <path class="cls-72" d="M34,59.74l-.45-.33L34.89,59c.08.24.39.52-.11.67Z"/>
      <path class="cls-59" d="M35.55,48.28l0,.41-1,.75v-.39C34.72,48.58,35,48.21,35.55,48.28Z"/>
      <path class="cls-34" d="M62.48,42.45l.37.47a2.67,2.67,0,0,1-.42,1.4A1.92,1.92,0,0,1,62.48,42.45Z"/>
      <path class="cls-68" d="M80.34,96.92l.3-.35.67,1L81,98C80.55,97.79,80.63,97.24,80.34,96.92Z"/>
      <path class="cls-30" d="M78.62,67.28l-.36.34L77.21,67l.36-.3Z"/>
      <path class="cls-62" d="M157.17,121.69c-.57.55-1.15.66-1.73,0C156,121.84,156.59,121.33,157.17,121.69Z"/>
      <path class="cls-73" d="M163.09,125.64c-.07-.29-.05-.64-.39-.8.13-.3.19-.64.58-.79A1.67,1.67,0,0,1,163.09,125.64Z"/>
      <path class="cls-74" d="M33.27,56.26h0a1,1,0,0,1,.9-1.27A1.54,1.54,0,0,1,33.27,56.26Z"/>
      <path class="cls-75" d="M85.15,101.45l-.37.31c-.44-.23-.9-.44-1-1C84.44,100.64,84.74,101.14,85.15,101.45Z"/>
      <path class="cls-76" d="M97.87,100.94l.33.44c-.19.48-.35,1-1,1.06A2.17,2.17,0,0,1,97.87,100.94Z"/>
      <path class="cls-77" d="M77.27,86.21l-.3.35-.36-1.72C77.55,85,77.15,85.71,77.27,86.21Z"/>
      <path class="cls-78" d="M51.77,44.8l.36-.31c.45.21.87.44.74,1Z"/>
      <path class="cls-79" d="M154.41,108.59l0,1.45a2,2,0,0,1-.18-1.52.16.16,0,0,1,.12,0A.38.38,0,0,1,154.41,108.59Z"/>
      <path class="cls-6" d="M9.31,97.24l.43-1,1.71-1.79.69-.25c1.77-.94,3.79-.69,5.65-1.21,1-.28,2-.47,3-.82A5,5,0,0,0,24.12,89a20.46,20.46,0,0,1,2.31-4.42c.35-.54.78-1.05,1.51-1s1,.77,1.25,1.46c.61,2,.07,4.11.17,6.17,0,.27,0,.55,0,.82,0,.45-.21.87-.19,1.32-.13.85-.36,1.68-.5,2.53-.1.59-.43,1.11-.55,1.69a15.15,15.15,0,0,1-.82,1.84,1.75,1.75,0,0,1-.91,1.28c-.76.62-1.75.82-2.53,1.4l0,0a3.59,3.59,0,0,0-2.41,1l-.37,0a6.18,6.18,0,0,0-1.63.75,11.53,11.53,0,0,1-1.33.85,14.63,14.63,0,0,1-1.94,1.16l-.11.07-.11-.07a9.39,9.39,0,0,1-2.7.13,9.78,9.78,0,0,1-1.89-.57,10.31,10.31,0,0,1-2.13-2c-.09-.56-.55-1-.25-1.66-.08-.66-.17-1.33-.25-2C8.93,98.92,9.12,98.08,9.31,97.24Z"/>
      <path class="cls-7" d="M93.48,245.5l-.72-.3c3.24-3.75,4.26-8.41,5.11-13.07,1.75-9.58,1.88-19.27,1.76-29,0-3-1.69-5.13-3.32-7.35a5.77,5.77,0,0,0-4.44-2.6,21.89,21.89,0,0,1-10.25-4.09c-.93-.64-.94-.12-1,.54-.26.93.12,1.9-.23,2.82l-.09,5.1a9.71,9.71,0,0,0,0,3.09l.1,4.4c.34.69,0,1.46.26,2.15.05,2.34.9,4.55,1.11,6.87.35.54,0,1.2.27,1.75l.09,2a58.48,58.48,0,0,1,0,8.78l-.11,3c-.25.71.06,1.48-.23,2.19l-.11,1.94c-.26.57.08,1.21-.25,1.76l-.08,1.34c-.29.55.08,1.2-.27,1.75l-.7,5.48c-.5.11-.76-.14-.88-.6.22-3.81.93-7.57,1.25-11.37a31.41,31.41,0,0,1,.3-3.75,5,5,0,0,0,.19-2.06,68,68,0,0,0-1.37-16.54,17.42,17.42,0,0,1-.36-4.44,5,5,0,0,0-.2-2.1,46.92,46.92,0,0,1-.14-5.56c.1-1,0-2,.14-3a6.19,6.19,0,0,0,.26-2.18,7,7,0,0,0-2.65-6.71c-5.72-5.17-9.25-11.93-12.4-18.85-1.58-3.47-3.1-7-3.3-11.15-.27,1,.92,2-.58,2.42a8.68,8.68,0,0,1-.07-1.61c-.28-1.09.61-2.09.21-3.18-.14-5.31-1.33-10.49-1.82-15.75a1.21,1.21,0,0,1-.54-.89c0-.42.2-.71.64-.76a.8.8,0,0,1,.51.21c1.1,2.16.8,4.58,1.27,6.87.87,4.27.8,8.67,1.74,12.93,1.88,8.55,6,16.08,10.78,23.27,4.82,6.71,10.94,11.47,19.45,12.79a93.62,93.62,0,0,1-9.84-25,76.15,76.15,0,0,1-2.19-12.89c-.06-.61-.23-1.44.62-1.54s1.08.73,1.13,1.43a92.37,92.37,0,0,0,4.22,20.36c2.18,7,5.13,13.74,9.68,19.49a27.59,27.59,0,0,1,6,13.49,53,53,0,0,1,.26,11,256.86,256.86,0,0,1-3.24,26c-.13.77-.14,1.62-.88,2.16-.34,0-.71.06-.94-.29a4.4,4.4,0,0,1,.1-2,236.89,236.89,0,0,0,3.08-23.73,81.89,81.89,0,0,0,0-13.45,107.43,107.43,0,0,1-2.56,29.59,27.24,27.24,0,0,1-2.66,6.89A3.79,3.79,0,0,1,93.48,245.5Z"/>
      <path class="cls-11" d="M58.9,136.16l-.31.68c-.06.25-.15.48-.47.49-.69-.3-.39-1-.65-1.51,0-.22-.12-.44-.18-.66-.24-.81-.43-2-1.3-2-.71,0-.58,1.18-.81,1.85a16.07,16.07,0,0,1-4,6.85,9.22,9.22,0,0,1-3.08,2.17c-1.33.35-2.61,1.41-4,.3.09-.62.56-.88,1-1.12A8.66,8.66,0,0,0,50.07,140a17.21,17.21,0,0,0,3.65-10.72c0-.8-.35-2,.64-2.27s1.14.93,1.65,1.51c.23.26.43.55.68.79.61.58,1.09.47,1.1-.39,0-3.31.38-6.65-.7-9.9-.35-1-.79-1.37-1.88-.84a7.56,7.56,0,0,1-4.67.84c-1.09-.18-1.8-.08-1.87,1.24,0,.39-.08,1-.79.8a6.67,6.67,0,0,1,0-2.48c-.36.57.37,1.44-.53,1.85-.43-1.11.64-2.57-.78-3.45,1.49-.46,3-.27,4.56-.52a10.76,10.76,0,0,0,2.24-.47,13.71,13.71,0,0,0,3.09-1.36c.51-.2.93-.69,1.56-.49a10.71,10.71,0,0,0,1.2,1.76,6.43,6.43,0,0,1,.85,2.32,6.88,6.88,0,0,0,.22,1.42,11.11,11.11,0,0,0,.43,1.6,2.29,2.29,0,0,1,.18,1,4.21,4.21,0,0,0,.21,2,27.36,27.36,0,0,1-1,9.94A3.51,3.51,0,0,1,58.9,136.16Z"/>
      <path class="cls-9" d="M79.69,243.76l.66.35c3.68,4.12,4.29,9,3.77,14.29-.12,1.2-1.09,1.07-1.8,1.14A99.29,99.29,0,0,1,69,260c-1.78-.07-3.54-.26-5.29-.46-.94-.11-1.34-.47-.9-1.54a42.23,42.23,0,0,1,3.49-7.23c1.69-2.6,3.76-4.74,6.84-5.67a2.78,2.78,0,0,1,1,.07,5.28,5.28,0,0,0,4.64-.89A4.59,4.59,0,0,1,79.69,243.76Z"/>
      <path class="cls-80" d="M73.77,245.49a.74.74,0,0,1-.67-.37c2.37-11.49,1.06-22.81-1.56-34.08-1.69-7.33-4.68-14.24-6.82-21.43a88.7,88.7,0,0,1-3.7-17.8c-.09-.55-.45-1.15.29-1.54.64.45.65,1.19.84,1.85a122.18,122.18,0,0,0,6.58,25.63,109.88,109.88,0,0,1,6.69,30.15,73.43,73.43,0,0,1-.5,14.07C74.77,243.19,74.78,244.52,73.77,245.49Z"/>
      <path class="cls-81" d="M45.35,116.21h.06c-1.27.2-2-.65-2.86-1.36l-.45-.41a3.31,3.31,0,0,1-.91-1.44,1.42,1.42,0,0,0-.64-.82,5.41,5.41,0,0,1-1.62-.74.89.89,0,0,1-.12-.45.68.68,0,0,1,.23-.41,1.77,1.77,0,0,1,1.42.19,6.89,6.89,0,0,1,1.14.52c2.41,3.19,5.75,3.57,9.3,2.84,5.61-1.15,9.4-4.77,12.35-9.46.55-.88.78-2.09,2-2.39.75.35.64,1,.55,1.63a10,10,0,0,1-1,1.75c-1.41,2.32-3.36,4.25-4.81,6.55a1.94,1.94,0,0,1-.85.85c-.94.44-1.75,1.1-2.65,1.61A16.73,16.73,0,0,1,53,116.18a20.28,20.28,0,0,1-3,.55A7.87,7.87,0,0,1,45.35,116.21Z"/>
      <path class="cls-82" d="M45.21,143.46l-1,.69c-.29.12-.38,0-.37-.29,4.22-4.47,5.06-9.89,4.68-16.06-2.2,1.94-4.46,2-7.21,1.83,3.75-2.2,5.75-5.2,6-9.24a1.39,1.39,0,0,0,.27-1.11c0-.32,0-.64,0-1.46.64,1.37.2,2.34.4,3.24.67,2.26-.78,3.9-1.66,5.7-.23.46-.71.75-1,1.37a3.2,3.2,0,0,0,1.66-.76c1.48-1,2.25-.71,2.63,1a13.69,13.69,0,0,1,.1,4.47,22.41,22.41,0,0,1-2.46,8.37C46.78,142.13,46.31,143.11,45.21,143.46Z"/>
      <path class="cls-32" d="M58.26,137.2l.33-.36.34.85c-.44.6-.86,1.21-1.32,1.79-.24.3-.54.72-1,.46s-.13-.72,0-1c1.06-2,.5-3.73-.63-5.65-1,3.37-2,6.57-4.64,8.82a.46.46,0,0,1-.27-.32A20.78,20.78,0,0,0,55.6,132a5.24,5.24,0,0,1,2.08,3.86C58.05,136.21,57.26,137.1,58.26,137.2Z"/>
      <path class="cls-83" d="M39,110.66l0,.41c-.8.22-1.24-.44-1.83-.72a1.65,1.65,0,0,1-.92-.93,9.14,9.14,0,0,0-.89-1.31,8.78,8.78,0,0,1-.63-1.22c-.25-.48-.52-1-.73-1.45a2.37,2.37,0,0,1-.45-1.61,1.14,1.14,0,0,1,.24-.41c.73-.07.79.56,1,1A13.21,13.21,0,0,0,38,109a7.82,7.82,0,0,1,1,1.25A.46.46,0,0,1,39,110.66Z"/>
      <path class="cls-19" d="M43.84,143.86l.37.29c1.45.92,2.71-.17,4-.39.37-.18.42,0,.38.33-1.89,1.15-4,1.29-6.47,1Z"/>
      <path class="cls-84" d="M33.84,103.46l-.08.38c-.15.23,0,.68-.51.65a27.76,27.76,0,0,1-.08-7.17.27.27,0,0,1,.26-.18l.35.45A15.66,15.66,0,0,1,33.84,103.46Z"/>
      <path class="cls-85" d="M60.72,156.6v1.7c1,1.78.32,3.72.51,5.58a6.59,6.59,0,0,1-.29,2.12.37.37,0,0,1-.5.19,83.62,83.62,0,0,1,0-9.63C60.54,156.41,60.65,156.42,60.72,156.6Z"/>
      <path class="cls-86" d="M45.35,116.21a22.11,22.11,0,0,0,4.94.31c.41,0,.93-.47,1.1.33a14.5,14.5,0,0,1-4.83.09C46.07,116.85,45.4,117,45.35,116.21Z"/>
      <path class="cls-87" d="M82.1,226.61v-8.78A34,34,0,0,1,82.1,226.61Z"/>
      <path class="cls-88" d="M60.71,166.17l0-2.06c.61,0,.73.54.75,1a18.55,18.55,0,0,1-.11,5.26c-.48.4-.21,1-.35,1.46a8.3,8.3,0,0,1-.34-3.13A4.47,4.47,0,0,1,60.71,166.17Z"/>
      <path class="cls-89" d="M29.7,83.45a1.72,1.72,0,0,1,.64,1.49c-.7,1.42,0,3-.59,4.47-.63-.52-.26-1.31-.51-1.93C29.74,86.18,28.68,84.69,29.7,83.45Z"/>
      <path class="cls-24" d="M48.64,144.09l-.38-.33,2.88-2,.27.32A6,6,0,0,1,48.64,144.09Z"/>
      <path class="cls-90" d="M29.43,87.64c.43.53.11,1.2.32,1.77a9.26,9.26,0,0,1-.35,3.43c-.3-.16-.14-.52-.32-.74l0-.72C29.41,90.15,28.89,88.85,29.43,87.64Z"/>
      <path class="cls-91" d="M42.55,114.85l2.86,1.36C43.88,117,43.15,116.05,42.55,114.85Z"/>
      <path class="cls-92" d="M23.85,102.1c.43-1.2,1.62-1,2.53-1.4C25.9,101.82,24.86,101.94,23.85,102.1Z"/>
      <path class="cls-93" d="M21.46,103.08a1.73,1.73,0,0,1,2.41-1A5.2,5.2,0,0,1,21.46,103.08Z"/>
      <path class="cls-94" d="M28.39,95.9A8,8,0,0,1,29,93.39c.33.14.15.52.33.74a5.69,5.69,0,0,1-.61,2.46C28.4,96.44,28.57,96.1,28.39,95.9Z"/>
      <path class="cls-68" d="M13.21,105.84l2.76,0c-1.1.72-2.29.43-3.46.26C12.51,105.52,12.87,105.72,13.21,105.84Z"/>
      <path class="cls-95" d="M37.17,110.35c.76-.17,1.2.51,1.83.72a2.83,2.83,0,0,1,0,.29.24.24,0,0,1,.07.27q0,.12-.09.12A2.52,2.52,0,0,1,37.17,110.35Z"/>
      <path class="cls-96" d="M60.72,156.6a.78.78,0,0,0-.3,0,8,8,0,0,1,.33-3.12C61.5,154.5,60.53,155.55,60.72,156.6Z"/>
      <path class="cls-97" d="M9.41,103.39l2,1.83c.08.28,0,.42-.3.29a3.22,3.22,0,0,1-1.76-1.7C9.21,103.66,9.22,103.52,9.41,103.39Z"/>
      <path class="cls-98" d="M16.19,105.89c.32-.84,1.17-1,1.83-1.33a.6.6,0,0,1,.36.3A3,3,0,0,1,16.19,105.89Z"/>
      <path class="cls-99" d="M27.29,99.42A2.33,2.33,0,0,1,28,97.6c.09-.17.19-.17.29,0A1.65,1.65,0,0,1,27.29,99.42Z"/>
      <path class="cls-87" d="M80.27,200.67a3.86,3.86,0,0,1,0-3.09Z"/>
      <path class="cls-100" d="M39,111.75l0-.39a4.11,4.11,0,0,1,1.74.69c0,.22-.22.25-.36.33A1.89,1.89,0,0,1,39,111.75Z"/>
      <path class="cls-101" d="M34.11,105.53c.56.29.63.85.76,1.38a.33.33,0,0,1-.52.06,2.79,2.79,0,0,1-.51-1.44C33.93,105.42,34,105.43,34.11,105.53Z"/>
      <path class="cls-102" d="M34.11,105.53l-.13,0-.14,0-.59-1,.51-.65Z"/>
      <path class="cls-103" d="M11.13,105.51l.3-.29,1.78.62-.7.31A1.81,1.81,0,0,1,11.13,105.51Z"/>
      <path class="cls-87" d="M80.37,192.48c.07-.94-.28-1.92.23-2.82A8.38,8.38,0,0,1,80.37,192.48Z"/>
      <path class="cls-102" d="M41.33,112.78c.19.59.76,1,.77,1.66-1.06.11-.74-.84-1-1.32S41.08,112.76,41.33,112.78Z"/>
      <path class="cls-104" d="M9.41,103.39l0,.42a2,2,0,0,1-.7-1.7l.33-.36C9.16,102.29,9.53,102.78,9.41,103.39Z"/>
      <path class="cls-68" d="M19.37,103.81a1.86,1.86,0,0,1,1.72-.68c-.43.58-1.17.64-1.72,1-.11-.08-.14-.15-.11-.23S19.33,103.81,19.37,103.81Z"/>
      <path class="cls-105" d="M28.28,97.59h-.14l-.15,0,.4-1.7.29.69C28.77,97,28.46,97.27,28.28,97.59Z"/>
      <path class="cls-106" d="M60.71,166.17l0,2.51a5.54,5.54,0,0,1-.24-2.49Z"/>
      <path class="cls-107" d="M34.35,107l.52-.06.65,1a.58.58,0,0,1-.32.35A3.27,3.27,0,0,1,34.35,107Z"/>
      <path class="cls-68" d="M19.37,103.81v.35l-1,.7-.36-.3Z"/>
      <path class="cls-2" d="M33.43,97.14l-.26.18v-2.2C33.63,95.74,33.42,96.46,33.43,97.14Z"/>
      <path class="cls-108" d="M29.29,94.13,29,93.39l.12-1.29c.11.25.21.5.32.74Z"/>
      <path class="cls-87" d="M80.63,207.22c-.52-.67-.21-1.43-.26-2.15A5.42,5.42,0,0,1,80.63,207.22Z"/>
      <path class="cls-87" d="M81.76,231.84c0-.74-.27-1.51.23-2.19A5.27,5.27,0,0,1,81.76,231.84Z"/>
      <path class="cls-109" d="M35.2,108.31l.32-.35c.26.48.91.76.73,1.46A2,2,0,0,1,35.2,108.31Z"/>
      <path class="cls-87" d="M82,215.84c-.48-.53-.22-1.16-.27-1.75A3.09,3.09,0,0,1,82,215.84Z"/>
      <path class="cls-87" d="M81.4,235.54c0-.59-.21-1.22.25-1.76A3.41,3.41,0,0,1,81.4,235.54Z"/>
      <path class="cls-87" d="M81.05,238.63c0-.59-.21-1.23.27-1.75A3.11,3.11,0,0,1,81.05,238.63Z"/>
      <path class="cls-102" d="M41.33,112.78l-.26.34-.67-.74.36-.33A.61.61,0,0,1,41.33,112.78Z"/>
      <path class="cls-110" d="M29.76,78.29c-.83-4.74-.52-9.3,2-13.53a17.38,17.38,0,0,1,5.8-6.13A14.5,14.5,0,0,1,42,56.77c.58.83-.56,1-.61,1.59-.31.44-.54.93-.81,1.4,0,.49-.69.81-.41,1.39l-.49,1.32c-.27.87-.15,1.87-.88,2.59a2,2,0,0,1-.85,0c-3.68-.42-4.83.17-6.65,3.46-.14.18.26.18.05.1-1.18-.41,4.3-3.33,6.58-3.5.7.1,1.21,0,1.35-.87A2.26,2.26,0,0,1,40,62.8a.26.26,0,0,1,.27,0,12.44,12.44,0,0,1,2.83-1.88,8.82,8.82,0,0,1,2.76-1,.47.47,0,0,1,.44.11c.05,1.39-1.25,2.4-1.07,3.83a.35.35,0,0,1-.07.31,6.45,6.45,0,0,0,0,4.21c.76-.32.78-1.07,1.23-1.44a9.12,9.12,0,0,1,1-1.58,20.42,20.42,0,0,1,2.87-2.86,10.17,10.17,0,0,1,3.61-1.93,3.74,3.74,0,0,1,1.2-.21A12.08,12.08,0,0,1,57,60l.58-.33a6.73,6.73,0,0,0,3.11-.81,6.94,6.94,0,0,0,3.47-2.26c.47-1.31,1.15-.24,1.55,0a17.12,17.12,0,0,1,8.84,10.6c1.42,4.32,1.51,8.74,1.3,13.2-1-.19-.68-1-.6-1.51.23-1.51,0-3,.12-4,.07,5.12-.44,10.74-.4,16.37a5.06,5.06,0,0,1-.54,2.15,34.32,34.32,0,0,1-6.49,9.25c-.49.53-1.19,1.73-2.06.25-.21-.56-.64-1-.85-1.58a3.38,3.38,0,0,1-.18-.44,2.38,2.38,0,0,0-1.23-1.54,3,3,0,0,1-1.17-1.16c-1.15-1.65-3.17-2-4.63-3.23C57.16,93,55.38,93.11,54,92.58a6.55,6.55,0,0,1-1.46-.24,4.82,4.82,0,0,0-1.84-.61c-.64-.19-1.3-.25-2-.39a8.35,8.35,0,0,0-1-.17c-.52,0-1,0-1.56,0H43.79a3.34,3.34,0,0,0-1.84.27c-.32.14-.7-.09-1,.19-.61.15-1.24,0-1.84.16-.91,0-1.78.33-2.69.27-1.17-.45-.61-1.12-.19-1.74,1.27-1.9,2.65-3.72,4.05-5.52.14-.18,0,.07.1-.14s-.17-.09-.26-.14A1.29,1.29,0,0,1,38.85,84a1.37,1.37,0,0,1-.09-.49,3.59,3.59,0,0,1,1.6-1.77,2.75,2.75,0,0,0,1.42-1.33,6.51,6.51,0,0,0,.43-1.29,5.47,5.47,0,0,0,.16-3.7,4.23,4.23,0,0,0-.85-2.09,6.91,6.91,0,0,0-2.36-2.07c-.63-.12-1-.78-1.72-.75-.5,0-1,0-1.71,0,.79,0,1.38,0,2,0,.29.11.41.29.23.59a4.33,4.33,0,0,1-2.63.32,1.82,1.82,0,0,0-2.21.75c-.46.59-.94,1.16-1.42,1.74a3.61,3.61,0,0,0-.86,1.75c-.06.22-.12.44-.19.66-.23.6-.08,1.29-.44,1.85A.34.34,0,0,1,29.76,78.29Z"/>
      <path class="cls-111" d="M47.94,38.63a6.83,6.83,0,0,1-.32,2.77c-.68.52-1.43.09-2.14.12a7,7,0,0,0-3.72,1c-.2.45-1.28-.08-1,.9a.84.84,0,0,0,.27.08c.29.23.89.1.83.73a9.7,9.7,0,0,1-.73,2.08,1.64,1.64,0,0,1-.92.26,3,3,0,0,0-1.89.72h0c-.75,0-1-.35-.73-1.05A63.42,63.42,0,0,1,48.15,23.46a45.31,45.31,0,0,1,8.56-8.88c.42-.34.9-.61,1.79-1.2A6.84,6.84,0,0,1,57,15.56a12.59,12.59,0,0,0-1.33,1.59c-1.59,2.23-3.49,4.22-5.06,6.47a29.68,29.68,0,0,0-2.48,3.9c.91.15,1.92-.1,2.52.74l-.95,2.47c-3.18-.54-4.53,1.29-5.28,4a26,26,0,0,0-1.23,3.68C44.84,38.47,46.44,37.71,47.94,38.63Z"/>
      <path class="cls-112" d="M41.74,44.17,41,43.5a11.82,11.82,0,0,1,8.31,3.7,5.9,5.9,0,0,1-3.17-.32,6,6,0,0,0-2-1A4.51,4.51,0,0,1,41.74,44.17Z"/>
      <path class="cls-113" d="M42.05,57l-4.44,1.68-.72-.36c2.69-.87,5.2-2.16,7.92-3.17l-2,1.82A.58.58,0,0,1,42.05,57Z"/>
      <path class="cls-114" d="M40.77,43.42c-.22.36-.49.45-.79.11a.35.35,0,0,1,.11-.56c.44-.21.91-.38,1.37-.57,2-.84,4.11-1.22,6.15,0l0,.63C45.32,42.84,43,42.39,40.77,43.42Z"/>
      <path class="cls-114" d="M44.53,45.59c.57.4,1.57.27,1.65,1.29a22.9,22.9,0,0,0-5-.27c-.43.06-1,.48-1.1-.37l1.05-.05C42.06,45,43.38,45.8,44.53,45.59Z"/>
      <path class="cls-114" d="M46.61,66.94,45.4,69.22c-1.17-1.87-1.23-3.78-.21-5v.68a5.17,5.17,0,0,0,0,2.76c.78.09.62-.79,1.08-1C46.57,66.51,46.74,66.58,46.61,66.94Z"/>
      <path class="cls-115" d="M64.14,56.57c-.48,1.7-2,2-3.37,2.43-.39.22-.42,0-.41-.32,1.19-.6,2.51-1,3.33-2.13Z"/>
      <path class="cls-116" d="M53.86,60.75l-3.51,2c-.15-.09-.35-.12-.39-.34a8,8,0,0,1,3.53-2C53.62,60.52,53.83,60.54,53.86,60.75Z"/>
      <path class="cls-117" d="M40,62.8c-.38,1.12-.23,2.66-2.06,2.65-.08-.56.52-.33.69-.6.73-.63-.13-1.92,1-2.38Z"/>
      <path class="cls-118" d="M45.26,63.86c-.67-.81.11-1.42.3-2.11s.64-1,.65-1.7a.46.46,0,0,1,.71,0Z"/>
      <path class="cls-119" d="M50,62.4l.39.34a16.08,16.08,0,0,0-2.73,2.8c-.32.06-.48,0-.36-.38A10.13,10.13,0,0,1,50,62.4Z"/>
      <path class="cls-120" d="M43.17,61.08c-1,.51-1.72,1.45-2.87,1.69.41-1.21,1.51-1.54,2.5-2C43,60.84,43.15,60.86,43.17,61.08Z"/>
      <path class="cls-121" d="M60.36,58.68l.41.32a3.54,3.54,0,0,1-3.21.64Z"/>
      <path class="cls-122" d="M43.17,61.08l-.37-.33a6.89,6.89,0,0,1,2.76-1,.65.65,0,0,1,.36.31Z"/>
      <path class="cls-123" d="M40.05,46.24c.26.42.71.31,1.1.37l-2.82.68C38.5,46.29,39.4,46.48,40.05,46.24Z"/>
      <path class="cls-124" d="M57,60c-.47.59-1.23.36-1.81.63-.24-.07-.38-.2-.3-.47C55.58,60.13,56.23,59.43,57,60Z"/>
      <path class="cls-125" d="M47.26,65.16l.36.38c-.34.46-.67.93-1,1.4l-.35-.36A3,3,0,0,1,47.26,65.16Z"/>
      <path class="cls-126" d="M42.05,57l.76,0L41.44,58.7c-.21,0-.24-.25-.34-.39Z"/>
      <path class="cls-110" d="M45.18,67.61a2.55,2.55,0,0,1,0-2.76C45.19,65.77,45.18,66.69,45.18,67.61Z"/>
      <path class="cls-59" d="M45.92,60l-.36-.31a4.4,4.4,0,0,1,1.28-.33c.74,0,.14.39.08.62l-.71,0Z"/>
      <path class="cls-124" d="M54.87,60.13l.3.47-1.31.15-.37-.33Z"/>
      <path class="cls-127" d="M40.14,61.15c-.64-.64.16-1,.29-1.48a.19.19,0,0,1,.34,0A2.79,2.79,0,0,1,40.14,61.15Z"/>
      <path class="cls-128" d="M40.77,59.69l-.34,0,.67-1.36.34.39C41.26,59.05,41.18,59.49,40.77,59.69Z"/>
      <path class="cls-123" d="M37.61,46.23a1.1,1.1,0,0,0,.73,1.05.73.73,0,0,1-.72.31C37.44,47.14,37,46.68,37.61,46.23Z"/>
      <path class="cls-110" d="M98.52,246.52c1.3-7,2.39-14,3.07-21,.76-8,1.68-16.09-1.17-24a18.39,18.39,0,0,0-3-5.55c-6.67-8.12-10.33-17.62-12.9-27.64A76.63,76.63,0,0,1,82,154c0-.43,0-1.12-.58-1s-.29.72-.25,1.13a110.73,110.73,0,0,0,2.17,13.18c-.9.06-1.3-.63-1.74-1.21a41.38,41.38,0,0,1-8.3-20.33c-.91-7.17-1-14.42-2-21.59a41.1,41.1,0,0,0-5-15.63,3.9,3.9,0,0,1-.72-1.73c.42-1.58,1.69-2.55,2.68-3.71a36.48,36.48,0,0,0,5-7.33c.25-.49.39-1.31,1.06-1.16s.52.94.54,1.5a51.92,51.92,0,0,0,2.86,14.43A27.08,27.08,0,0,0,90,125.85l1.34,0a12.3,12.3,0,0,1,3.9,1.31c-.51-.59-1.86-.33-1.79-1.64a64.64,64.64,0,0,0,24.08-8.65c1.27-.64,2.58-.3,3.88-.12,7.48,1,14.16,3.8,19.55,9.26,3.37,3.41,5.22,7.65,6.48,12.18a81.52,81.52,0,0,1,3.31,23.28c-.07,4.7.16,9.4-.48,14.1-.81,5.84-2.9,11.18-5.32,16.49-3.94,8.66-5.79,17.88-6.6,27.33a115.88,115.88,0,0,0-.53,17.87,21.29,21.29,0,0,1-.29,4.77l0,1c-.34.67-1.11.51-1.61.86-.73-.07-1.48.21-2.18-.17l-.7-.67c1.24-8.2,2.58-16.39,2-24.74A81.24,81.24,0,0,0,131,198.59a14.39,14.39,0,0,1-.58-2.5c-.4-2.84.06-5.14,2.86-6.89,4.67-2.91,6.81-7.61,7.69-12.87a37.89,37.89,0,0,0-.27-14c-.09-.42,0-1-.71-.83-.06,0,0,.41-.05.62a17.55,17.55,0,0,1-7.36,9.37,30.65,30.65,0,0,1-14,5.17c-.68-.12-1.41.42-2-.16.64-2.52,1.4-5,1.9-7.58a27.56,27.56,0,0,0,.55-6.09c0-.58,0-1.16-.64-1.45-.57,2.1-1.31,4.15-1.71,6.27a48,48,0,0,1-10,21.3c-2.5,3.14-1.76,5.31.09,7.75a13,13,0,0,0,2.76,2.82c2,1.39,2.3,3.28,1.94,5.46a21.74,21.74,0,0,1-3.19,8.5c-5.45,8.29-5.57,17.38-4.46,26.73.31,2.54.89,5.07.41,7.65l-2.07.75a5,5,0,0,1-3.77-.38Z"/>
      <path class="cls-96" d="M137.55,242.06c.16-4.24-.55-8.46-.37-12.7.53-12.26,2-24.35,6.57-35.86,1.34-3.35,3.23-6.45,4.26-9.94a52.23,52.23,0,0,0,2.26-14c.07-4,.23-7.94,0-11.88-.57-8.63-1.84-17.14-5.4-25.14-2.83-6.34-8-10.18-14.15-12.84a37.47,37.47,0,0,0-13.14-2.83c4.73-3.2,9.77-3.12,14.92-1.31a24.07,24.07,0,0,1,7.1,4.43,7.19,7.19,0,0,0,1.74,1.74c7.15,8.44,10.86,18.37,12.42,29.17,2.22,15.41-.4,30.08-7,44.14A89.69,89.69,0,0,0,140,218.24a104.57,104.57,0,0,0-1.48,16.39A29.33,29.33,0,0,1,137.55,242.06Z"/>
      <path class="cls-111" d="M89.23,39.64l-1.31,3.15c-2.26-1.11-2.23-1.09-3.91,1.26a19,19,0,0,1-4.38,4.79c-.91.63-1.12,1.25-.36,2.26.64.85,1.55,1.75,1.08,3a6.74,6.74,0,0,1-2.09,2.06c-.87-.6-.65-1.65-1-2.46-.69-1.6-1.07-1.67-2.4-.63-2,1.59-3.82,3.61-6.54,4.12l-4-2.45c8.48-3.86,15.24-9.4,19.52-17.63a50.2,50.2,0,0,0,5.43-25.8,1.05,1.05,0,0,1,.7,1.11,9.2,9.2,0,0,0,.21,3.35c.4,2.79,0,5.56,0,8.34,0,.58-.21,1.24.4,1.8.8-1.6-.33-3.48.85-4.93.6,1.18.26,2.46.28,3.68a29.08,29.08,0,0,1-.64,6.38c-.5-.25-.37-1.25-1.12-1.11s-.66,1-.79,1.56a15.24,15.24,0,0,1-.85,3.3C87.39,36.72,87.56,38.3,89.23,39.64Z"/>
      <path class="cls-96" d="M90,125.85c-3.78-1.24-6.36-4-8.54-7.11-4-5.7-5.79-12.22-6.67-19-.21-1.6-.36-3.18-.45-4.86-2,4.57-5.44,8-8.49,11.76a10.44,10.44,0,0,1-3.13,3.25.8.8,0,0,1-.69-.12c.51-1.56,1.8-2.59,2.59-4a14.86,14.86,0,0,0,1-1.65c.15-.55-.22-1.18.25-1.69.3.48.43,1.18,1.22.31a37.3,37.3,0,0,0,7-10.08,2.68,2.68,0,0,0,.28-1.16c-.19-3.55.35-7.08.36-10.63,0-2.34.61-4.64.45-7,.56,2.13-.18,4.36.55,6.46a45.83,45.83,0,0,0-.28,8.91,88.52,88.52,0,0,0,5.06,24.25c1.4,3.79,4.35,6.69,6.94,9.74C88.33,124.14,89.2,125,90,125.85Z"/>
      <path class="cls-129" d="M80.35,54.15a7,7,0,0,0-1.76-3.28c-.63-.61-.73-1.12,0-1.67a24.76,24.76,0,0,0,6.5-7.61c.44-.75,1-.65,1.58-.19a12.76,12.76,0,0,1,1.25,1.39c-.47,1.13-.93,2.27-1.4,3.4C85.27,48,84,49.9,82.76,51.75A13.69,13.69,0,0,1,80.35,54.15Z"/>
      <path class="cls-130" d="M68.32,57.24A30.91,30.91,0,0,0,75.39,52c.7-.71,1.06-.27,1.49.22,1,1.13,1,2.59,1.38,4a39.77,39.77,0,0,1-5,4c-.72.51-1.17.45-1.7-.2A20.66,20.66,0,0,0,68.32,57.24Z"/>
      <path class="cls-131" d="M89.23,39.64c-2.19-1-2.37-1.54-1.7-3.75.49-1.63.86-3.3,1.31-4.94.19-.69-.1-1.7,1.22-1.63s.83,1.1,1,1.77A48.75,48.75,0,0,1,89.23,39.64Z"/>
      <path class="cls-132" d="M91.42,21c0,1.6,0,3.2,0,4.8,0,.65-.14,1.13-.95,1.08s-.82-.51-.78-1.07a36.72,36.72,0,0,1,.24-5.12c.43-2.14-.51-4.29-.23-6.47.07-.6-.24-1.27.32-1.78A31.46,31.46,0,0,1,91.42,21Z"/>
      <path class="cls-133" d="M93.47,125.55c.53,1,1.88.93,2.51,2.07a18,18,0,0,1-4.62-1.74Z"/>
      <path class="cls-134" d="M82.08,80.7a20,20,0,0,0-3.78-5.5c.83-.46.91.44,1.25.76a10.11,10.11,0,0,1,2.84,4.76C82.28,80.87,82.18,80.88,82.08,80.7Z"/>
      <path class="cls-135" d="M89,91.69a6.37,6.37,0,0,1-3.76-2c1.5.23,2.64,1.34,4.11,1.67A.68.68,0,0,1,89,91.69Z"/>
      <path class="cls-136" d="M95.16,92.84l-4.49-1.12c-.1-.07-.14-.14-.11-.21s.07-.1.11-.1C92.21,91.75,93.91,91.6,95.16,92.84Z"/>
      <path class="cls-137" d="M83.05,85.89a9.61,9.61,0,0,1-.58-3.48c.09-.13.18-.14.27,0,.6,1.09.21,2.37.7,3.47C83.31,86.07,83.18,86.07,83.05,85.89Z"/>
      <path class="cls-138" d="M83.05,85.89h.39c.09,1.27,1.38,2.07,1.35,3.39A5.89,5.89,0,0,1,83.05,85.89Z"/>
      <path class="cls-68" d="M82.74,82.41h-.27c-.09-.58-.51-1.08-.39-1.71l.31,0C82.51,81.28,82.62,81.85,82.74,82.41Z"/>
      <path class="cls-68" d="M90.67,91.41a1.6,1.6,0,0,1,0,.31l-1.69,0,.35-.32Z"/>
      <path class="cls-139" d="M118.61,176.24c7.43-1.17,14.08-3.8,18.76-10.08.94-1.26,1.69-2.69,2.52-4l.09.93c.8,6.3.19,12.33-3.37,17.81-3.9,6-9.63,8.75-16.58,9.24a37.63,37.63,0,0,1-5,0c-.69,0-1.63,0-1.34-1.2l.09-.61a58.74,58.74,0,0,0,3.07-10.12C117.05,177.16,117.3,176.21,118.61,176.24Z"/>
      <path class="cls-96" d="M104.11,247.86c.15-3.28-.85-6.43-1.12-9.67a58.84,58.84,0,0,1,.22-13.33,30.88,30.88,0,0,1,4.3-11.09c1.89-3.26,3.45-6.72,3.51-10.64a3.26,3.26,0,0,0-1.48-2.89,14.86,14.86,0,0,1-4.5-5.12,4.67,4.67,0,0,1,.26-5.18,100.51,100.51,0,0,0,6.39-9.55c2.53-4.5,3.54-9.5,4.82-14.42a14.58,14.58,0,0,1,1.77-4.59c0,5.73-1.51,11.16-3,16.63s-3,11.19-2.49,17.06c.14,1.7.51,3.39.68,5.09a21.09,21.09,0,0,1-2.28,11.3c-.79,1.65-1.49,3.35-2.43,4.93-2.49,4.14-3,8.82-3.54,13.49a159.16,159.16,0,0,0-.76,18Z"/>
      <path class="cls-140" d="M113.71,188.88c.11.42.29.73.79.76,5.75.29,11.37-.11,16.32-3.47,5.18-3.53,7.74-8.68,8.8-14.73.5-2.8.22-5.6.36-8.39,1.39,8.8,1.46,17.37-5.46,24.21-3.91,3.86-9.07,5.4-14.34,6.52a31.34,31.34,0,0,1-5.47.4c-1.09,0-1.43-.38-1.33-1.4C113.5,191.48,113.19,190.15,113.71,188.88Z"/>
      <path class="cls-141" d="M118.61,176.24c-1.21.4-1.18,1.5-1.39,2.46-.74,3.34-1.48,6.67-3.42,9.57a66,66,0,0,1,2.67-11.77C117.19,176.51,117.86,176,118.61,176.24Z"/>
      <path class="cls-142" d="M98.63,253.49c-2.83,2.82-3.74,6.12-4.13,9.62-.1.92-.15,1.34-1.27,1.06a30.47,30.47,0,0,0-3.72-.44c-1.23-.15-1.82-.73-1.53-2.07a18.47,18.47,0,0,1,7.88-11.82,2.68,2.68,0,0,1,2.84-.43,6,6,0,0,0,4.66-.4c.69-.28,1.36-.5,2,.28,3,3.7,5.26,7.61,5,12.6,0,1.05-.28,1.46-1.4,1.62a66.68,66.68,0,0,1-9.68,1c-1,0-1.38-.35-1.38-1.39a53.54,53.54,0,0,1,.62-7.49C98.6,255,98.58,254.38,98.63,253.49Z"/>
      <path class="cls-143" d="M93.48,245.5c3.6-4.41,4.57-9.79,5.44-15.16a131.31,131.31,0,0,0,1.41-22.77,25.35,25.35,0,0,1,.09-2.75,12.27,12.27,0,0,1,.93,4.41c.5,9.18-.56,18.24-2,27.28q-.7,4.49-1.45,9a3.86,3.86,0,0,1-.34.75A8.25,8.25,0,0,1,93.48,245.5Z"/>
      <path class="cls-142" d="M87.88,254.1a10.74,10.74,0,0,1,3.91-7.4,1.48,1.48,0,0,1,1.59-.26,11.17,11.17,0,0,0,3.32.78c.35,0,.74,0,.79.47s-.32.57-.62.73A6.84,6.84,0,0,0,95,249.6c-.11.11-.39.26-.42.23-1.58-1.57-1.64.56-2.06,1A24.67,24.67,0,0,0,90,254.7c-.38.6-.83,1-1.55.72S88.05,254.55,87.88,254.1Z"/>
      <path class="cls-144" d="M98.27,248.23a14,14,0,0,0,3.77.38C100.73,249,99.41,249.51,98.27,248.23Z"/>
      <path class="cls-145" d="M143,122.76c1.14-.69,2.49-.61,3.72-1,4.13-1.23,7-3.68,8.08-8,.27-.17-.06-.9.63-.66.41,3.82-1.68,6.51-4.09,9.07-.6.63-1.9,1.19-1.5,2.06.5,1.09,1.79.32,2.67.16,1.72-.3,3.4-.85,5.21-1.32.05,1-.62,1.29-1.13,1.64a21.09,21.09,0,0,1-4.67,2.53c-1.24.45-1.1,1.12-.26,1.88a3.54,3.54,0,0,0,2.53.86c1.32,0,2.64,0,4,0-1.61,1.27-4,1.36-10.06.39A49.28,49.28,0,0,0,143,122.76Z"/>
      <path class="cls-146" d="M136.13,243.75l1.4-.69v.37c-.25.4-.66.33-1,.34A.22.22,0,0,1,136.13,243.75Z"/>
      <path class="cls-147" d="M155.43,113.15l-.63.66c.11-.69.21-1.38.32-2.07C155.61,112.12,155.42,112.66,155.43,113.15Z"/>
      <path class="cls-148" d="M47.94,38.63c-1.59.07-3.19-.17-4.73.48-.7.3-.8-.14-.63-.69a31.6,31.6,0,0,1,3.1-7.37c.88-1.38,2.62-.79,4-.32C49.11,33.36,48.52,36,47.94,38.63Z"/>
      <path class="cls-149" d="M50.65,28.26a4.73,4.73,0,0,0-3.52.16,57.82,57.82,0,0,1,8.41-11.49c.34-.07.51,0,.38.39C54.09,20.93,52.12,24.48,50.65,28.26Z"/>
      <path class="cls-150" d="M47.61,42.43a21.13,21.13,0,0,0-6.15,0c1.83-1.71,4-1.49,6.16-1,0,.23,0,.46.05.7S47.63,42.32,47.61,42.43Z"/>
      <path class="cls-151" d="M55.92,17.32l-.38-.39A3,3,0,0,1,57,15.56,4.93,4.93,0,0,1,55.92,17.32Z"/>
      <path class="cls-8" d="M28.31,68.64,29.36,68a19.36,19.36,0,0,0-.37,9c.2.85-.67,1.31-.67,2.06l-.1.21a6.69,6.69,0,0,0-1.77,2.34A7.84,7.84,0,0,0,25.2,84c-.39.87-.69,1.76-1.06,2.64a17.71,17.71,0,0,1-.75,1.73c-.67.88-1.53,1.58-2.18,2.47a2.87,2.87,0,0,1-.82.5c-.6.2-1.18.45-1.76.71-.78.18-1.49.75-2.36.43l-2.13.23c.06-.71,1-.67,1.09-1.33l2.74-3a33.68,33.68,0,0,0,4.91-9.39,29,29,0,0,1,4.87-9.21A6.19,6.19,0,0,0,28.31,68.64Z"/>
      <path class="cls-2" d="M33.84,103.46c-.63-1.95-.22-3.91-.06-5.87l.63-2.08c-.06-.35-.07-.71.37-.79s.7.29.85.66A13.86,13.86,0,0,0,37.42,99a21.25,21.25,0,0,0,2.27,2.28,10,10,0,0,0,4,2.14,2.52,2.52,0,0,1,2.13,2.46,14.47,14.47,0,0,0,.5,2.26,2.11,2.11,0,0,1,.08,1.06c-1.23,1.69-3,1.35-4.65,1.1a10.25,10.25,0,0,1-2.84-1.14c-.24,0-.5-.58-.74,0a.7.7,0,0,1-.22.31C35.92,107.91,34.91,105.67,33.84,103.46Z"/>
      <path class="cls-152" d="M29.76,78.29h.3a.33.33,0,0,1,.43,0,7.86,7.86,0,0,1,.63,1.76,3.17,3.17,0,0,0,.59,1.19A6,6,0,0,0,33.9,83.1a.79.79,0,0,1,.1.45c-.21.57-.65.4-.94.4a29.18,29.18,0,0,1,6.75.39c.71.62,0,1-.28,1.35-1.19,1.54-2.28,3.14-3.34,4.77a4.24,4.24,0,0,0-.68,1.73c-.35.93,0,2.19-1.34,2.63C32.23,89.44,30.4,84,29.76,78.29Z"/>
      <path class="cls-13" d="M20.35,91.08c.16-.31.46-.36.77-.42a18.16,18.16,0,0,1,2-2.13A7.59,7.59,0,0,0,24,86.68c.32-1,.73-1.91,1.1-2.86a7.19,7.19,0,0,1,1.37-2.48A4.42,4.42,0,0,1,28.32,79h0c.33-.12.63-.29.72.29.19,1.4.44,2.8.66,4.19-.11,1.4.22,2.82-.28,4.19-.2,1.24.22,2.53-.31,3.74-.18-2.16.19-4.35-.41-6.49-.13-.44-.16-1-.72-1.06s-.82.33-1,.74A28.76,28.76,0,0,0,24.65,89a5.87,5.87,0,0,1-4.08,3.8c-2.74,1-5.62,1-8.43,1.43l.69-.72,3.44-.76a8.32,8.32,0,0,1,2.2-.81C19.11,91.68,19.7,91.3,20.35,91.08Z"/>
      <path class="cls-153" d="M34.17,94.82c.93-.7.36-1.95,1-2.76.28-.35.72-.12,1.06-.29a8.66,8.66,0,0,1,3.08-.36c-.11.94-1,.82-1.55,1.09-1.89.5-2,.68-1.55,2.59.28,1.36,1.22,2.43,1.52,3.76a.65.65,0,0,1-.49.53,9.6,9.6,0,0,1-2-3.9c-.07-.23.05-.63-.38-.61s-.28.44-.44.64Z"/>
      <path class="cls-142" d="M125.83,250.33a15.18,15.18,0,0,1,4.91-5.38c.4-.24.84-.64,1.22-.6a45.51,45.51,0,0,0,5.95.2c1.11,0,1.9,1.81,2.57,3a7.76,7.76,0,0,0,.49.68c.24,1.15.47,2.29.71,3.44a7.41,7.41,0,0,1,0,3.44,11.6,11.6,0,0,1-3.78.7c-.77.43-1.66-.12-2.42.33-3.49-.1-3.12.73-3.06-3.25a45.41,45.41,0,0,1,.7-5.09c-1.95,1.74-2.24,3.82-2.82,5.79-.22.76.1,1.93-1,2.14a8.56,8.56,0,0,1-4.17-.56c-.41-.12-.32-.64-.21-1.06C125.26,252.88,125.53,251.6,125.83,250.33Z"/>
      <path class="cls-18" d="M141.66,255.14c0-1.15,0-2.29,0-3.44A3.89,3.89,0,0,1,141.66,255.14Z"/>
      <path class="cls-18" d="M135.46,256.17c.73-.63,1.61-.22,2.42-.33C137.14,256.49,136.26,256.05,135.46,256.17Z"/>
      <path class="cls-154" d="M136.13,243.75l.37,0a2.53,2.53,0,0,1-2.76,0Z"/>
      <path class="cls-155" d="M18.67,92l-2.4.68v-.28a6.81,6.81,0,0,1,2.41-.73c.1.07.13.15.1.22S18.71,92,18.67,92Z"/>
      <path class="cls-139" d="M62.13,109.72l.65-.07c1.4,2.15,2,4.62,2.73,7a98.3,98.3,0,0,1,4.15,19.85,76,76,0,0,1,.48,10.12c-.31,8.22,2.57,15.4,7.25,22a55.12,55.12,0,0,0,6.07,6.79c1.67,1.66,1.62,2.47-.31,3.82-2.2,1.55-4.51,2.76-7.37,1.95a6.94,6.94,0,0,1-2.65-1.52C67,170.83,62.22,161.5,61.3,150.54c-.4-4.8-1.29-9.55-2-14.32.42-2.21,1.23-4.32,1.49-6.59a22.54,22.54,0,0,0-.09-6.25c0-.45-.24-.9,0-1.35l-.35-.64c.18-.59-.35-1.1-.2-1.69-.39-.41-.2-1-.5-1.46l-.74-2.43c-.66-.37-.53-1.11-.77-1.68-.27-.74.46-.91.76-1.33a1.46,1.46,0,0,0,.81-.79C60.61,111.33,61,110.09,62.13,109.72Z"/>
      <path class="cls-156" d="M73.13,179.64c2,.71,3.94,2,6.23,1,.43-.17.87-.29,1.28-.48,4.28-2,4.41-2.61,1.15-5.82a40.39,40.39,0,0,1-11.57-20.5,25,25,0,0,1-.57-5.79,100.07,100.07,0,0,0-5.5-34.21c-.47-1.4-1.31-2.69-1.37-4.23a14.94,14.94,0,0,1,3.09-3.06c2,3.83,4,7.66,5,12a91.53,91.53,0,0,1,1.61,11.32c.69,7.53.61,15.17,2.75,22.51a35.69,35.69,0,0,0,8.18,14.87A93.58,93.58,0,0,0,89.69,185c1.26,2.55,2.66,5,4.18,7.88C84.69,191.61,78.14,186.84,73.13,179.64Z"/>
      <path class="cls-96" d="M61.37,170.35c-.55-1.39-.2-2.84-.32-4.26-.06-.67.2-1.39-.32-2,0-1.94,0-3.88,0-5.81.62-.73.07-1.68.47-2.53a69.18,69.18,0,0,0,13.44,27.15,16,16,0,0,0,3.5,3.51,3.94,3.94,0,0,1,1.87,4.2,14.06,14.06,0,0,0,0,1.72,1.56,1.56,0,0,0-.26.45,15.44,15.44,0,0,0-.1,4.75l.07,5.9c.33.53-.09,1.2.3,1.73-.19,2.81.59,5.5,1,8.23a73.53,73.53,0,0,1,.69,13.09c-.38.53,0,1.19-.29,1.73a117.51,117.51,0,0,1-1.74,15.53c0,.41-.23.69-.69.7-1.31.52-1.37-.29-1.23-1.2.21-1.36.57-2.7.72-4.07.82-7.38.05-14.66-1.22-21.93s-2.26-14.63-3-22a5.33,5.33,0,0,0-1.71-3.6c-5.66-5.37-9-12.08-10.85-19.58A3.45,3.45,0,0,1,61.37,170.35Z"/>
      <path class="cls-157" d="M61,123.15a22,22,0,0,1-1.64,13.07l-.43-.06a30.52,30.52,0,0,0,1.77-12.31C60.57,123.53,60.34,123.15,61,123.15Z"/>
      <path class="cls-158" d="M79.62,197.55a8.39,8.39,0,0,1,0-5.15,3.41,3.41,0,0,1,0,2Z"/>
      <path class="cls-87" d="M79.71,194.45c0-.68,0-1.37,0-2l.31-.05C79.91,193.05,80.25,193.81,79.71,194.45Z"/>
      <path class="cls-87" d="M81.43,228.23c0-.59-.2-1.22.29-1.73C81.65,227.09,81.94,227.72,81.43,228.23Z"/>
      <path class="cls-87" d="M80,205.18c-.49-.51-.27-1.14-.3-1.73C80.22,204,79.93,204.59,80,205.18Z"/>
      <path class="cls-145" d="M45.21,143.46c3.43-4.28,4.35-9.25,4.06-14.55,0-.67,0-1.53-.69-1.85s-1,.61-1.46.92a4.92,4.92,0,0,1-3.17.85A12.38,12.38,0,0,0,48,121.06c.71-.78-.24-2.2.72-2.62.72-.33,1.77.17,2.68.15a7.63,7.63,0,0,0,4.23-1.19c.71-.49,1.17-.55,1.54.4,1.53,3.86,1.25,7.88,1,11.88-.06.91-.6,1.13-1.39.41a34.15,34.15,0,0,1-2.48-3.17,48.87,48.87,0,0,1-.49,5.93c-1,4.46-2.95,8.31-7.28,10.45C46.16,143.49,45.73,144.11,45.21,143.46Z"/>
      <path class="cls-159" d="M53.14,115.92l3.41-1.51a.32.32,0,0,1,.05.48,6.11,6.11,0,0,1-3,1.39C53.26,116.41,53.11,116.28,53.14,115.92Z"/>
      <path class="cls-160" d="M56.6,114.89l-.05-.48c.75-.58,1.31-1.46,2.37-1.61.15.61-.64.78-.61,1.33a.32.32,0,0,1-.47.09Z"/>
      <path class="cls-161" d="M53.14,115.92l.47.36a5.37,5.37,0,0,1-2.22.57c-.29-.37-.72-.25-1.1-.33Z"/>
      <path class="cls-162" d="M57.84,114.22l.47-.09c.46.47.34,1.15.62,1.68C58,115.69,58.07,114.84,57.84,114.22Z"/>
      <path class="cls-163" d="M61,123.15l-.3.7c-.34-.62-.54-1.23,0-1.82Z"/>
      <path class="cls-73" d="M58.26,137.2c-.17.27-.35.91-.62.11a4.57,4.57,0,0,1,0-1.47C58.15,136.17,57.73,136.89,58.26,137.2Z"/>
      <path class="cls-164" d="M60.3,119.67c-.18.58.7,1.12.07,1.72a2.73,2.73,0,0,1-.32-1.73C60.14,119.52,60.22,119.53,60.3,119.67Z"/>
      <path class="cls-165" d="M60.3,119.67h-.25c-.52-.37-.35-.92-.38-1.42C60.16,118.6,60.07,119.2,60.3,119.67Z"/>
      <path class="cls-110" d="M61.76,172.07c1.33,3,2.25,6.09,3.77,9,2.19,4.18,4.63,8.14,8.41,11.13,1,.75.79,2.08.87,3.18.42,5.11,1.28,10.16,1.88,15.25.65,5.65,2,11.17,2.37,16.9.31,5.4.37,10.71-.88,16-.22.92.15,1,.82,1a4.73,4.73,0,0,1-5.23,1,57.72,57.72,0,0,0,1.34-15,103.38,103.38,0,0,0-4.2-24.6c-2.42-8.16-5.9-16-7.57-24.39A71.8,71.8,0,0,1,61.76,172.07Z"/>
      <path class="cls-142" d="M73.45,251c-1.8,1.52-2.35,3.61-2.71,5.71-.46,2.59-.69,2.87-3.27,2.5-.34,0-.66-.2-1-.25-3.25-.54-3.25-.54-1.77-3.57s2.9-6.12,5.78-8.16a4,4,0,0,1,3.66-.85,5.37,5.37,0,0,0,4.6-.81c1.06-.72,1.68-.32,2.36.68,2.37,3.49,2.47,7.41,2.34,11.39,0,.66-.35.86-1,.94a70.9,70.9,0,0,1-7.83.68c-1.06,0-1.23-.5-1.22-1.38C73.48,255.62,73.45,253.32,73.45,251Z"/>
      <path class="cls-2" d="M62.77,98a2.07,2.07,0,0,0,1,1,21.72,21.72,0,0,1,1.37,1.79.78.78,0,0,0,0,.22c0,.48.59.94,0,1.43-1.86,2.8-3.48,5.77-6.09,8-3.33,2.88-7.1,4.65-11.57,4.38-2.52-.16-4.89-.8-6.08-3.42a.73.73,0,0,1,.36-.26,2,2,0,0,1,.88,0l.42.11a2.8,2.8,0,0,0,1.67-.07,3.55,3.55,0,0,0,1-.4c.48-.31.82-.86,1.48-.88a1.52,1.52,0,0,1,.59.31,2.81,2.81,0,0,0,1.54.76,4.54,4.54,0,0,0,2.48,0,3.61,3.61,0,0,0,1.82-.8A13.87,13.87,0,0,1,55.4,109,4.26,4.26,0,0,0,57,107.8c.32-.32.56-.7.86-1a3.28,3.28,0,0,0,1.05-1.08,2.4,2.4,0,0,1,.34-.55c.56-.15.67-.7,1-1.09a12.05,12.05,0,0,0,.72-1.38c.17-.33.09-.76.49-1-.54.19-.32.7-.55,1a10.77,10.77,0,0,1-.64,1.27c-.31.37-.37.94-.93,1.09a12.41,12.41,0,0,1-7.74,4.88,8.65,8.65,0,0,1-4.34-.58,1.43,1.43,0,0,1-.46-.27,3.5,3.5,0,0,1-.72-1.41,5.75,5.75,0,0,1-.33-3.15c.84-1,2.12-.82,3.14-1.32a12.11,12.11,0,0,0,8.71-7.78c.89-.48,1.54.2,2.2.54A19.27,19.27,0,0,1,62.77,98Z"/>
      <path class="cls-166" d="M62.13,109.72c-.75.81-1.21,1.94-2.4,2.29,1.31-2.35,3.24-4.27,4.72-6.51.34-.09.5,0,.41.39Z"/>
      <path class="cls-167" d="M65.18,102.42c.28-.48-.48-.94,0-1.43.57.3.63.9.8,1.43l-.09,2c-.31,0-.49,0-.36-.39C65.36,103.53,65.72,102.89,65.18,102.42Z"/>
      <path class="cls-168" d="M65.49,104.08l.36.39-1,1.42-.41-.39Z"/>
      <path class="cls-169" d="M39,110.66a1.5,1.5,0,0,0-.06-.29.65.65,0,0,1,.46-.49,1.06,1.06,0,0,1,1.11.73.68.68,0,0,1-.15.43Z"/>
      <path class="cls-170" d="M40.39,111v-.4c.72-.24,1.27-.16,1.34.76h-.15l-.15,0C41,111.42,40.64,111.44,40.39,111Z"/>
      <path class="cls-171" d="M39.37,110l-.4.4-1-.92,0-.53c.5-.12.81.23,1.16.47A.56.56,0,0,1,39.37,110Z"/>
      <path class="cls-172" d="M37.65,92.1c.57-.21,1.23-.2,1.68-.69s1.16.11,1.74,0c.43.58.37,1.31.61,2a4.75,4.75,0,0,0,4.11,3.14,5.44,5.44,0,0,0,4.76-2.84A2.3,2.3,0,0,0,50.61,92a.41.41,0,0,1,.24-.38,2,2,0,0,1,1.61.49l1.73,0c.26.7,1.25.48,1.5,1.19a6.88,6.88,0,0,1-3,5.69c-3.32,2.47-6.82,3.75-10.75,1.24A9.6,9.6,0,0,1,37.4,94C37.25,93.37,37.07,92.68,37.65,92.1Z"/>
      <path class="cls-2" d="M56.88,75.53l.06-.49A11.08,11.08,0,0,1,59.7,72.6a11,11,0,0,1,2.18-.67,10.3,10.3,0,0,1,2.35.17,4.82,4.82,0,0,1,1.29.29.2.2,0,0,0,.27.07,19,19,0,0,1,1.79,1.43.23.23,0,0,0,.07.26,3.2,3.2,0,0,1,.93,1,7.26,7.26,0,0,1,.89,2.18c0,.32.19.62.19,1V79a4.56,4.56,0,0,1-.18,1.22,6.3,6.3,0,0,1-.7,1.82,6.87,6.87,0,0,1-2.49,2.56,6.9,6.9,0,0,0-1.11.58,2.34,2.34,0,0,1-1.51.32c-1.14-.09-2.34.28-3.41-.38a3.38,3.38,0,0,1-1.29-.8,4.05,4.05,0,0,1-1.62-1.48,6,6,0,0,1-1-1.75,5.79,5.79,0,0,1-.3-3.65A4,4,0,0,1,56.88,75.53Z"/>
      <path class="cls-2" d="M33.84,83.15a1,1,0,0,0-.29-.07,6.16,6.16,0,0,1-2-2,4.63,4.63,0,0,1-.66-1.36,6.74,6.74,0,0,1-.29-4,10.7,10.7,0,0,1,.81-2l1.45-1.73a4.13,4.13,0,0,1,2.12-1l3-.07c.53-.3.94.09,1.39.24a6.09,6.09,0,0,1,2.37,2.16,4.48,4.48,0,0,1,.78,2.14,5,5,0,0,1-.11,3.59A8.36,8.36,0,0,1,42,80.32a8.13,8.13,0,0,1-1.27,1.76c-.91,0-1,1-1.7,1.35a3.62,3.62,0,0,1-1.73.47C36.06,83.89,34.8,84.16,33.84,83.15Z"/>
      <path class="cls-173" d="M50.72,91.76a1.23,1.23,0,0,1,.45,1.6A6,6,0,0,1,45,96.87a5.18,5.18,0,0,1-3.88-5.48c.23-.39.46,0,.69,0a2.22,2.22,0,0,1,1.82-.51h2.5c.61-.07,1.26.17,1.86-.16a.7.7,0,0,1,.71.31C49.29,91.42,50.19,91.06,50.72,91.76Z"/>
      <path class="cls-174" d="M69.21,68.7c-2.47-1.35-4.85-2.88-8.08-2.38a3.26,3.26,0,0,1,3.24-1.74C66.88,64.76,68.17,66.61,69.21,68.7Z"/>
      <path class="cls-174" d="M38.66,64.85l-.69.6a10.49,10.49,0,0,0-7.2,4.32C31.16,65.58,34.34,63.67,38.66,64.85Z"/>
      <path class="cls-175" d="M55.48,93.15c-.53-.22-1.25-.21-1.29-1,.89.32,1.77.67,2.67,1A1.41,1.41,0,0,1,58,94.8c.22.41-.28.57-.31.89-1.2,4.4-4.43,6.59-8.53,7.83a.38.38,0,0,1-.58-.26c.37-.85,1.22-1,1.94-1.26a11.4,11.4,0,0,0,5.31-4.41C57.13,95.59,57.05,94.87,55.48,93.15Z"/>
      <path class="cls-176" d="M36.25,91.77c-.28.37-.68.31-1.06.29A25.12,25.12,0,0,1,40,84.5a.73.73,0,0,1,.34-.31l.83-.56.21.17c-1.62,2.25-3.25,4.49-4.85,6.75C36.32,90.9,35.59,91.17,36.25,91.77Z"/>
      <path class="cls-177" d="M40.38,84.19,40,84.5c-2.75.18-5.46-.35-8.28-.39.58-.72,1.84.27,2.08-1a12.4,12.4,0,0,0,3.79.37c.4.28.94-.12,1.32.26S39.89,84.1,40.38,84.19Z"/>
      <path class="cls-178" d="M60,84.9l3.83.35a1.34,1.34,0,0,0,1.4-.18.29.29,0,0,1,.34.17c0,.21.74.64,0,.61-2.42-.1-4.81.57-7.28.29.35-.84,1.35-.35,1.73-1-.12,0-.16-.1-.13-.16S60,84.9,60,84.9Z"/>
      <path class="cls-179" d="M57.68,95.69c.1-.3.2-.59.31-.89,1.75.81,3.67,1.37,4.78,3.15-1.39-.09-2.12-1.44-3.37-1.8C58.83,96,58.38,95.38,57.68,95.69Z"/>
      <path class="cls-180" d="M57.6,89.7a21.88,21.88,0,0,1-.9-5.21,8,8,0,0,1,1.23,4.16C57.63,88.94,57.94,89.42,57.6,89.7Z"/>
      <path class="cls-181" d="M42.16,79.33c0-1.27.65-2.53,0-3.8.15-.2.24-.52.61-.32a5.17,5.17,0,0,1-.27,4.13C42.38,79.51,42.26,79.5,42.16,79.33Z"/>
      <path class="cls-182" d="M56.29,77.38a10,10,0,0,0,.31,4c.2.36,0,.4-.29.36a6.72,6.72,0,0,1-.4-4.77C56.27,76.87,56.44,77,56.29,77.38Z"/>
      <path class="cls-183" d="M66.17,84.47l2.41-2.41c.1-.14.21-.13.31,0-.26,1.36-1.32,2-2.36,2.72C66.4,84.7,66.19,84.7,66.17,84.47Z"/>
      <path class="cls-184" d="M59.76,72.82c-1.08.57-1.64,1.79-2.82,2.22a4.19,4.19,0,0,1,2.43-2.53C59.53,72.57,59.73,72.59,59.76,72.82Z"/>
      <path class="cls-185" d="M30.81,75.56c0,1.47-.33,3,.32,4.37.16.37,0,.45-.34.38a4.8,4.8,0,0,1-.44-2,3.77,3.77,0,0,1,0-2.13l.1-.67C30.6,75.41,30.71,75.42,30.81,75.56Z"/>
      <path class="cls-186" d="M41.45,73.46l-2.13-2a.28.28,0,0,1,0-.44,4.68,4.68,0,0,1,2.42,2.07C41.93,73.47,41.75,73.52,41.45,73.46Z"/>
      <path class="cls-187" d="M41.45,73.46l.32-.35a3.71,3.71,0,0,1,1,2.1l-.61.32C42.16,74.76,41.65,74.16,41.45,73.46Z"/>
      <path class="cls-188" d="M35,71.07a5.49,5.49,0,0,1-2.12,1A1.45,1.45,0,0,1,35,71.07Z"/>
      <path class="cls-189" d="M59.76,72.82l-.39-.31a4.44,4.44,0,0,1,2.05-.7c.15.1.36.11.42.32Z"/>
      <path class="cls-190" d="M67.58,73.89c-.75-.29-1.58-.47-1.79-1.43C66.66,72.59,67.41,72.88,67.58,73.89Z"/>
      <path class="cls-191" d="M69.29,77.31l-.94-2.13c.07-.16.1-.36.33-.37a4.18,4.18,0,0,1,.93,1.81C69.42,76.81,69.58,77.16,69.29,77.31Z"/>
      <path class="cls-185" d="M61.84,72.13l-.42-.32a8.07,8.07,0,0,1,2.73,0,.33.33,0,0,1,0,.55Z"/>
      <path class="cls-192" d="M65.17,100.77A2.12,2.12,0,0,1,63.8,99,1.85,1.85,0,0,1,65.17,100.77Z"/>
      <path class="cls-193" d="M57.57,82.78,59,84.16a.49.49,0,0,1-.3.31,3.27,3.27,0,0,1-1.41-1.32C57.08,82.78,57.27,82.73,57.57,82.78Z"/>
      <path class="cls-194" d="M56.29,77.38l-.38-.45c.1-.62.14-1.28,1-1.4A3.71,3.71,0,0,1,56.29,77.38Z"/>
      <path class="cls-195" d="M69.39,79v-.71c.18-.22,0-.58.32-.74a2.5,2.5,0,0,1,0,2.52C69.33,79.78,69.63,79.31,69.39,79Z"/>
      <path class="cls-187" d="M68.89,82.07h-.31l.69-1.79c.21,0,.23.27.35.4A1.47,1.47,0,0,1,68.89,82.07Z"/>
      <path class="cls-196" d="M57.57,82.78l-.32.37c-.32-.48-.63-1-.94-1.45l.29-.36Z"/>
      <path class="cls-197" d="M39.35,71l0,.44L37.93,71c-.1-.12-.2-.25-.31-.37v-.18A2.8,2.8,0,0,1,39.35,71Z"/>
      <path class="cls-198" d="M40.68,82.08a4.3,4.3,0,0,1,1-1.78c.22,0,.24.22.3.38A2.16,2.16,0,0,1,40.68,82.08Z"/>
      <path class="cls-199" d="M46.23,91l-2.74,0q-.18-.11-.12-.21c0-.07.08-.11.12-.11l2.74,0c.12.06.16.12.12.19S46.27,91,46.23,91Z"/>
      <path class="cls-185" d="M30.81,75.56l-.34,0c.23-.62.17-1.38.92-1.72A3,3,0,0,1,30.81,75.56Z"/>
      <path class="cls-200" d="M43.49,90.72c0,.11,0,.21,0,.32l-1.73.35C42,90.27,42.88,90.85,43.49,90.72Z"/>
      <path class="cls-201" d="M57.6,89.7c0-.37-.06-.79.33-1V91q-.15.24-.3,0Z"/>
      <path class="cls-185" d="M37.63,70.45a1.09,1.09,0,0,1,0,.18H35.18A4.53,4.53,0,0,1,37.63,70.45Z"/>
      <path class="cls-202" d="M50.72,91.76c-.66-.34-1.5-.14-2.07-.73a3.55,3.55,0,0,1,2.07.38c.11.06.15.12.11.18s-.08.09-.12.09Z"/>
      <path class="cls-14" d="M30.37,76.21c0,.71,0,1.42,0,2.13l-.29,0C30.17,77.59,29.85,76.84,30.37,76.21Z"/>
      <path class="cls-185" d="M58.66,84.47l.3-.31,1,.74a.74.74,0,0,0,0,.26C59.45,85.16,59.08,84.76,58.66,84.47Z"/>
      <path class="cls-203" d="M64.15,72.37v-.55a1.59,1.59,0,0,1,1.37.57Z"/>
      <path class="cls-204" d="M50.71,91.68a2.44,2.44,0,0,0,0-.27c.68,0,1.39-.15,1.74.67Z"/>
      <path class="cls-185" d="M42,80.68l-.3-.38a1.27,1.27,0,0,1,.43-1h.33A2,2,0,0,1,42,80.68Z"/>
      <path class="cls-185" d="M66.17,84.47l.36.32-1,.45-.38-.09v-.24Z"/>
      <path class="cls-203" d="M69.71,77.54l-.32.74-.1-1c.11-.23.22-.46.32-.69C69.65,76.93,69.68,77.23,69.71,77.54Z"/>
      <path class="cls-205" d="M46.23,91v-.28l1.71,0C47.45,91.29,46.81,91,46.23,91Z"/>
      <path class="cls-206" d="M57.63,91h.3v1.34h-.3Z"/>
      <path class="cls-185" d="M69.62,80.67l-.35-.4L69.39,79c.34.29.23.7.3,1.07C69.67,80.26,69.64,80.47,69.62,80.67Z"/>
      <path class="cls-207" d="M39,83.78c-.45,0-1,.19-1.32-.26.44-.16.88-.39,1.35-.09Z"/>
      <path class="cls-198" d="M68.68,74.81l-.33.37c-.24-.34-.47-.69-.7-1C68.19,74.07,68.46,74.4,68.68,74.81Z"/>
      <path class="cls-208" d="M44.53,45.59c-1.07.65-2.34.12-3.43.6,0-.74-.28-1.57.64-2C42.73,44.51,43.46,45.38,44.53,45.59Z"/>
      <path class="cls-209" d="M23.16,88.64a6.89,6.89,0,0,1-2,2c.24-1.17,1.24-1.69,2-2.38.09.08.13.16.09.24S23.19,88.64,23.16,88.64Z"/>
      <path class="cls-210" d="M28.32,79l-1.77,2.41c-.1.14-.21.14-.31,0C26.55,80.26,27,79.26,28.32,79Z"/>
      <path class="cls-211" d="M25.19,83.81l-1,3.08c-.3.08-.47,0-.33-.33l1.05-2.75C25,83.65,25.09,83.65,25.19,83.81Z"/>
      <path class="cls-212" d="M25.19,83.81h-.31a4,4,0,0,1,1.36-2.42h.31Z"/>
      <path class="cls-213" d="M23.83,86.56l.33.33a4.44,4.44,0,0,1-1,1.75v-.36A3.72,3.72,0,0,1,23.83,86.56Z"/>
      <path class="cls-214" d="M18.67,92c0-.11,0-.22,0-.33a1.8,1.8,0,0,1,1.67-.63A4.54,4.54,0,0,1,18.67,92Z"/>
      <path class="cls-215" d="M39.37,110l-.4-.37c-.12-.31-.55-.53-.31-1a30.12,30.12,0,0,0,3,1.12c1.62.42,3.25.61,4.58-.79a.44.44,0,0,1,.66,0l.06-.07c.45.4.76.83.28,1.41l-1.35.72a8.44,8.44,0,0,1-3.08.33l-1.07,0a2.06,2.06,0,0,0-1.34-.76Z"/>
      <path class="cls-216" d="M48.65,103.12l.5.4c-1,.64-2.17.62-3.24,1-.5.38.11,1.07-.41,1.44a1.87,1.87,0,0,0-1.66-2.07,9.55,9.55,0,0,1-4.56-2.47.72.72,0,0,1,.44-.28,2.27,2.27,0,0,1,1.44.45c2.14,1.17,4.3,2.18,6.84,1.4A.81.81,0,0,1,48.65,103.12Z"/>
      <path class="cls-217" d="M36.19,104.7c.59-1.08-2.18-2.28.45-3.45C36,102.5,36.63,103.62,36.19,104.7Z"/>
      <path class="cls-218" d="M45.5,106c.27-.44-.32-1.13.41-1.44a8.15,8.15,0,0,0,.37,3.36c.17.38,0,.43-.33.38A4.67,4.67,0,0,1,45.5,106Z"/>
      <path class="cls-219" d="M39.71,101.39l-.43,0a6.16,6.16,0,0,1-2-2l.36-.4C38.63,99.51,39.61,100.07,39.71,101.39Z"/>
      <path class="cls-220" d="M37.71,107.78a3,3,0,0,1-1.32-2.92A8.28,8.28,0,0,1,37.71,107.78Z"/>
      <path class="cls-221" d="M38.66,108.64c.14.3.45.56.31,1l-1-.68c0-.24-.43-.43-.14-.68C38.4,107.76,38.27,108.73,38.66,108.64Z"/>
      <path class="cls-222" d="M46,108.26l.33-.38.62,1.1h-.66Z"/>
      <path class="cls-223" d="M31.76,81.05l1.79,2c-1.19.06-1.51-1-2.14-1.66C31.28,81.05,31.44,81,31.76,81.05Z"/>
      <path class="cls-224" d="M31.76,81.05l-.35.37a2,2,0,0,1-.62-1.11l.34-.38Z"/>
      <path class="cls-225" d="M39.71,101.39,37.62,99a12.24,12.24,0,0,1-1.8-3.81c-.53-2.48-.59-2.47,1.83-3.07.06,5.45,4.1,8.55,8.35,9.16,3.75.53,8.55-3.63,9.26-7.46a4.21,4.21,0,0,1,.23-.65c2,.91,2.2,1.15,1.42,3.2A10.62,10.62,0,0,1,51.5,102a27.15,27.15,0,0,1-2.85,1.11c-2.48,1.26-4.74.38-7-.73C41,102.07,40.5,101.45,39.71,101.39Z"/>
      <path class="cls-11" d="M47.24,110.32c-.1-.47-.19-.94-.28-1.4,4.45,1.58,8,0,11.26-3,.37-.35.76-.67,1.14-1a.35.35,0,0,1,0,.52c.31.19.21.35,0,.52a16.72,16.72,0,0,0-1.35,1c.32.57.06.86-.48,1-.83.19-1.21,1-1.91,1.36a4.38,4.38,0,0,1-1.74,1,9.29,9.29,0,0,1-1.94.85,25,25,0,0,1-2.74,0c-.59-.25-1.11-.64-1.72-.83h-.1Z"/>
      <path class="cls-222" d="M60.67,102.76c-.21-1.84-.21-1.84,1.92-1.07-.7.26-1.32.45-1.56,1.07A.23.23,0,0,1,60.67,102.76Z"/>
      <path class="cls-203" d="M49,111l3.09.1v.19a5.62,5.62,0,0,1-3.07,0c-.1-.06-.13-.12-.1-.18S49,111,49,111Z"/>
      <path class="cls-226" d="M42.81,111.37c1-.61,2-.22,3.08-.33-.23.37-.61.38-1,.39a3.13,3.13,0,0,1-2.09-.06Z"/>
      <path class="cls-227" d="M55.56,109.3c.45-.71.94-1.37,1.91-1.36C56.91,108.51,56.51,109.29,55.56,109.3Z"/>
      <path class="cls-15" d="M52.08,111.31a.31.31,0,0,1,0-.19c.43-.6,1.11-.61,1.73-.77C53.5,111.14,52.75,111.15,52.08,111.31Z"/>
      <path class="cls-228" d="M60.67,102.76H61a1.9,1.9,0,0,1-.65,1.42.6.6,0,0,1-.3-.36C60.22,103.43,60.29,103,60.67,102.76Z"/>
      <path class="cls-229" d="M49,111a.44.44,0,0,1,0,.28,2.42,2.42,0,0,1-1.59-.94A1.65,1.65,0,0,1,49,111Z"/>
      <path class="cls-215" d="M42.82,111.37l2.09.06A1.7,1.7,0,0,1,42.82,111.37Z"/>
      <path class="cls-230" d="M60.08,103.82l.3.36a1.46,1.46,0,0,1-1.06,1.2l0-.52Z"/>
      <path class="cls-231" d="M58,106.94c.3-.54.59-1.11,1.35-1C59,106.41,58.77,107.06,58,106.94Z"/>
      <path class="cls-232" d="M66.72,76.28c1.12,2.28,1,4.1-.48,5.52a4.3,4.3,0,0,1-4.78.8,4.25,4.25,0,0,1-2.12-5.23c.75-2.16,2.78-3.09,5.48-2.49.08.31-.12.46-.36.58-.91.29-1.93.08-2.79.69a3.14,3.14,0,0,0-1.33,3.73,3.19,3.19,0,0,0,3.42,2,3.29,3.29,0,0,0,2.69-3.29,7.86,7.86,0,0,0-.2-1.18C66.24,77,66.14,76.48,66.72,76.28Z"/>
      <path class="cls-233" d="M66.72,76.28l-.26,1.27a1.21,1.21,0,0,1-1.56.93,1.6,1.6,0,0,1-1.4-1.32,1.34,1.34,0,0,1,.89-1.77,3.24,3.24,0,0,1,1.42,0A1.47,1.47,0,0,0,66.72,76.28Z"/>
      <path class="cls-234" d="M65.19,84.91a1.92,1.92,0,0,1,0,.24c-.41.56-.87.5-1.36.1Z"/>
      <path class="cls-235" d="M65.81,75.43l-1.33.09c-.09-.11-.11-.19,0-.23a.25.25,0,0,1,.16-.05l.23-.36C65.27,74.84,65.48,75.24,65.81,75.43Z"/>
      <path class="cls-236" d="M40.42,78.43a3.53,3.53,0,0,1-4,2.94A4,4,0,0,1,33.23,77c.38-2.85,2.4-4.15,5.43-3.51.1.31-.09.47-.33.6-.59.23-1.24.15-1.84.35a3,3,0,0,0-2.16,3,2.7,2.7,0,0,0,2,2.73c1.45.41,2.37-.37,3.11-1.52.26-.4.24-1.25,1.12-.89A1.34,1.34,0,0,1,40.42,78.43Z"/>
      <path class="cls-237" d="M38.39,73.85c.22,0,.38-.12.27-.38.8.32,1.52.7,1.39,1.75a.71.71,0,0,1,0,.78,1.48,1.48,0,0,1-1.83.82,1.41,1.41,0,0,1-1.09-1.35A1.56,1.56,0,0,1,38.39,73.85Z"/>
      <path class="cls-238" d="M40,75.79l.06-.57c.62,1,1.17,2,.37,3.21l-.05-.83A1.48,1.48,0,0,1,40,75.79Z"/>
      <path class="cls-239" d="M64.59,75.24a2.33,2.33,0,0,0-.11.28,1.32,1.32,0,0,0-.3,2.18c.73.78,1.55.45,2.28-.15a3,3,0,0,1-1.06,4.14,3.38,3.38,0,0,1-4.51-.28,3.34,3.34,0,0,1-.66-4.48A4.08,4.08,0,0,1,64.59,75.24Z"/>
      <path class="cls-239" d="M40,75.79c.13.61.25,1.21.38,1.81-.15.3-.3.6-.44.9a3.25,3.25,0,0,1-3.68,2.16,3.49,3.49,0,0,1-2.4-3.56,3.57,3.57,0,0,1,3-3.26,13.37,13.37,0,0,1,1.55,0c-.84.68-1.39,1.5-.5,2.42S39.4,76.48,40,75.79Z"/>
    </g>
  </g>
</svg>
