<svg id="Layer_1" data-name="Layer 1" xmlns="http://www.w3.org/2000/svg" width="342.07" height="216.52" viewBox="0 0 342.07 216.52">
  <defs>
    <style>
      .cls-1 {
        opacity: 0.5;
      }

      .cls-2 {
        fill: #fff;
      }

      .cls-3 {
        fill: #4f2857;
      }

      .cls-10, .cls-3 {
        stroke: #431e4c;
        stroke-width: 0.5px;
      }

      .cls-10, .cls-16, .cls-3, .cls-4, .cls-9 {
        stroke-miterlimit: 10;
      }

      .cls-4, .cls-7 {
        fill: #ccc;
      }

      .cls-4 {
        stroke: #989898;
      }

      .cls-16, .cls-4 {
        stroke-width: 0.25px;
      }

      .cls-5 {
        fill: #805c39;
      }

      .cls-6 {
        fill: #e8e8e8;
      }

      .cls-8 {
        fill: #589400;
      }

      .cls-9 {
        fill: #ffd888;
        stroke: #d6a651;
      }

      .cls-10, .cls-16 {
        fill: #63326c;
      }

      .cls-11 {
        fill: #9eb4ca;
      }

      .cls-12 {
        fill: #7e96ad;
      }

      .cls-13 {
        fill: #bb85c4;
      }

      .cls-14 {
        fill: #c28649;
      }

      .cls-15 {
        fill: #fff8b6;
      }

      .cls-16 {
        stroke: #4d2656;
      }

      .cls-17 {
        fill: #467500;
      }

      .cls-18 {
        fill: #f29a8d;
      }
    </style>
  </defs>
  <g>
    <path class="cls-1" d="M29.28,216.52a8,8,0,0,1-8-8V204.1c-3.92-6-5.74-13.54-4.69-19.81a18.5,18.5,0,0,1,4.68-9.72v-8.46c0-.14,0-.27,0-.4v-3.36c0-.14,0-.27,0-.4V147.64c0-.14,0-.27,0-.4v-3.36c0-.14,0-.27,0-.4V129.17c0-.14,0-.27,0-.4v-3.36c0-.14,0-.27,0-.4V110.7c0-.14,0-.27,0-.4v-3.37c0-.13,0-.26,0-.39V96.07H13a8,8,0,0,1-8-8v-4.2a8,8,0,0,1,4.53-7.21L52.67,55.93v-13a8,8,0,0,1,8-8H96.38l31.38-15.08a8,8,0,0,1,3.46-.79h25.71V13a8,8,0,0,1,8-8h15.56a8,8,0,0,1,8,8v6.05h30.16a8,8,0,0,1,3.58.85l30.08,15h36.12a8,8,0,0,1,8,8V57L336,76.71a8,8,0,0,1,4.21,9c-.08.32-.17.63-.28.94v1.42a8,8,0,0,1-8,8h-7.78v8.15c.17.43.33.87.47,1.31a23.43,23.43,0,0,1,17.46,22.37,22.3,22.3,0,0,1-2.2,9.71,22.78,22.78,0,0,1,.47,15.9c-2.51,7.09-8.44,12.31-16.2,14.59v40.42a8,8,0,0,1-8,8Z"/>
    <path class="cls-2" d="M24.28,211.52a8,8,0,0,1-8-8V199.1c-3.92-6-5.74-13.54-4.69-19.81a18.5,18.5,0,0,1,4.68-9.72v-8.46c0-.14,0-.27,0-.4v-3.36c0-.14,0-.27,0-.4V142.64c0-.14,0-.27,0-.4v-3.36c0-.14,0-.27,0-.4V124.17c0-.14,0-.27,0-.4v-3.36c0-.14,0-.27,0-.4V105.7c0-.14,0-.27,0-.4v-3.37c0-.13,0-.26,0-.39V91.07H8a8,8,0,0,1-8-8v-4.2a8,8,0,0,1,4.53-7.21L47.67,50.93v-13a8,8,0,0,1,8-8H91.38l31.38-15.08a8,8,0,0,1,3.46-.79h25.71V8a8,8,0,0,1,8-8h15.56a8,8,0,0,1,8,8v6.05h30.16a8,8,0,0,1,3.58.85l30.08,15h36.12a8,8,0,0,1,8,8V52L331,71.71a8,8,0,0,1,4.21,9c-.08.32-.17.63-.28.94v1.42a8,8,0,0,1-8,8h-7.78v8.15c.17.43.33.87.47,1.31a23.43,23.43,0,0,1,17.46,22.37,22.3,22.3,0,0,1-2.2,9.71,22.78,22.78,0,0,1,.47,15.9c-2.51,7.09-8.44,12.31-16.2,14.59v40.42a8,8,0,0,1-8,8Z"/>
    <g>
      <g>
        <rect class="cls-3" x="55.67" y="37.92" width="55.27" height="25.33"/>
        <rect class="cls-3" x="228.17" y="37.92" width="55.27" height="25.33"/>
        <g>
          <rect class="cls-4" x="161.25" y="10.58" width="12.92" height="30.64"/>
          <rect class="cls-5" x="159.93" y="8" width="15.56" height="6.41"/>
        </g>
        <g>
          <rect class="cls-6" x="24.28" y="178.93" width="286.86" height="6.12"/>
          <rect class="cls-6" x="24.28" y="190.74" width="286.86" height="6.12"/>
          <rect class="cls-7" x="24.28" y="184.7" width="286.86" height="6.12"/>
        </g>
        <path class="cls-8" d="M104.62,196.76c5.44-4.32,9-18-4.58-18s-10,13.68-4.58,18Z"/>
        <rect class="cls-9" x="24.28" y="78.77" width="286.86" height="100.15"/>
        <polygon class="cls-10" points="126.22 22.05 213.65 22.05 327.41 78.87 8 78.87 126.22 22.05"/>
        <g>
          <g>
            <path class="cls-5" d="M255.56,104.69H250a17.67,17.67,0,0,0-17.59,17.71v47h40.79v-47A17.67,17.67,0,0,0,255.56,104.69Z"/>
            <path class="cls-11" d="M270.14,169.44H235.36V122.35A14.65,14.65,0,0,1,250,107.71h5.51a14.64,14.64,0,0,1,14.63,14.64Z"/>
            <path class="cls-12" d="M241.41,124.94A14.64,14.64,0,0,1,256,110.3h5.51a15.68,15.68,0,0,1,2.59.24,14.57,14.57,0,0,0-8.63-2.83H250a14.65,14.65,0,0,0-14.64,14.64v47.09h6Z"/>
            <rect class="cls-5" x="250.61" y="107.71" width="4.61" height="61.72"/>
            <rect class="cls-5" x="233.11" y="120.62" width="39.61" height="1.66"/>
          </g>
          <rect class="cls-5" x="232.36" y="166" width="40.78" height="3.44"/>
        </g>
        <g>
          <g>
            <path class="cls-5" d="M85.46,104.69H79.85A17.67,17.67,0,0,0,62.26,122.4v47H103v-47A17.66,17.66,0,0,0,85.46,104.69Z"/>
            <path class="cls-11" d="M100,169.44H65.26V122.35A14.64,14.64,0,0,1,79.9,107.71h5.51A14.64,14.64,0,0,1,100,122.35Z"/>
            <path class="cls-12" d="M71.31,124.94A14.64,14.64,0,0,1,85.94,110.3h5.51a15.56,15.56,0,0,1,2.58.24,14.54,14.54,0,0,0-8.62-2.83H79.9a14.64,14.64,0,0,0-14.64,14.64v47.09h6Z"/>
            <rect class="cls-5" x="80.51" y="107.71" width="4.61" height="61.72"/>
            <rect class="cls-5" x="63.01" y="120.62" width="39.61" height="1.66"/>
          </g>
          <rect class="cls-5" x="62.26" y="166" width="40.78" height="3.44"/>
        </g>
        <rect class="cls-8" x="24.28" y="196.57" width="286.86" height="6.95"/>
        <rect class="cls-13" x="8" y="78.87" width="128.72" height="4.2"/>
        <rect class="cls-13" x="198.2" y="78.87" width="128.72" height="4.2"/>
        <g>
          <path class="cls-2" d="M203.11,83.07H132.29s-4.54-37.55,35.41-37.55S203.11,83.07,203.11,83.07Z"/>
          <path class="cls-13" d="M132.29,83.07s.24-37.55,35.41-37.55,35.41,37.55,35.41,37.55h7.57S211.55,38,167.74,38s-43,45.09-43,45.09Z"/>
        </g>
        <rect class="cls-2" x="132.29" y="83.03" width="12.21" height="113.54"/>
        <rect class="cls-2" x="190.89" y="83.03" width="12.21" height="113.54"/>
        <rect class="cls-2" x="207.8" y="83.03" width="12.21" height="113.54"/>
        <rect class="cls-2" x="115.93" y="83.03" width="12.21" height="113.54"/>
        <rect class="cls-5" x="149.99" y="104.65" width="35.44" height="74.28"/>
        <rect class="cls-14" x="156.02" y="110.16" width="23.38" height="63.07"/>
        <rect class="cls-15" x="24.27" y="87.23" width="24.3" height="14.31"/>
        <rect class="cls-15" x="24.27" y="105.7" width="24.3" height="14.31"/>
        <rect class="cls-15" x="24.27" y="124.17" width="24.3" height="14.31"/>
        <rect class="cls-15" x="24.27" y="142.64" width="24.3" height="14.31"/>
        <rect class="cls-15" x="24.27" y="161.11" width="24.3" height="14.31"/>
        <rect class="cls-15" x="286.84" y="87.23" width="24.3" height="14.31"/>
        <rect class="cls-15" x="286.84" y="105.7" width="24.3" height="14.31"/>
        <rect class="cls-15" x="286.84" y="124.17" width="24.3" height="14.31"/>
        <rect class="cls-15" x="286.84" y="142.64" width="24.3" height="14.31"/>
        <rect class="cls-15" x="286.84" y="161.11" width="24.3" height="14.31"/>
        <g>
          <g>
            <path class="cls-5" d="M170.51,53.08H164.9a17.66,17.66,0,0,0-17.58,17.71v6.75H188.1V70.79A17.67,17.67,0,0,0,170.51,53.08Z"/>
            <path class="cls-11" d="M185.1,77.54H150.32v-6.8A14.64,14.64,0,0,1,165,56.1h5.51A14.64,14.64,0,0,1,185.1,70.74Z"/>
            <path class="cls-12" d="M156.36,73.33A14.64,14.64,0,0,1,171,58.69h5.52a14.65,14.65,0,0,1,2.58.25,14.51,14.51,0,0,0-8.63-2.84H165a14.64,14.64,0,0,0-14.63,14.64v6.8h6Z"/>
            <rect class="cls-5" x="165.57" y="56.1" width="4.61" height="21.43"/>
          </g>
          <rect class="cls-5" x="147.32" y="74.1" width="40.78" height="3.44"/>
        </g>
        <path class="cls-8" d="M41.27,199.18c8.55-6.78,14.14-28.27-7.19-28.27s-15.74,21.49-7.19,28.27Z"/>
        <path class="cls-8" d="M69.88,199.18c6.82-5.42,6.79-22.57-10.24-22.57S42.57,193.76,49.4,199.18Z"/>
        <g>
          <rect class="cls-5" x="294.8" y="136.19" width="3.38" height="46.55"/>
          <rect class="cls-5" x="286" y="129.83" width="3.38" height="37.66" transform="translate(-36.06 155.88) rotate(-28.61)"/>
          <polygon class="cls-16" points="307.3 174.99 285.73 174.99 289.97 196.57 303.05 196.57 307.3 174.99"/>
          <rect class="cls-13" x="285.73" y="174.99" width="21.57" height="4.38"/>
          <ellipse class="cls-8" cx="306.37" cy="138.29" rx="17.42" ry="22.71" transform="translate(74.07 381.24) rotate(-70.58)"/>
          <ellipse class="cls-8" cx="282.67" cy="125.79" rx="23.72" ry="18.87" transform="translate(-26.44 138.95) rotate(-26.43)"/>
          <ellipse class="cls-8" cx="297.73" cy="105.8" rx="14.69" ry="11.75"/>
          <ellipse class="cls-8" cx="313.04" cy="122.9" rx="16.03" ry="15.26"/>
        </g>
      </g>
      <g>
        <path class="cls-17" d="M306.2,105.63s.31,3.27-1.52,5.1-5.09,1.53-5.09,1.53-.31-3.27,1.52-5.1S306.2,105.63,306.2,105.63Z"/>
        <circle class="cls-18" cx="297.33" cy="116.75" r="5.57"/>
      </g>
      <g>
        <path class="cls-17" d="M288.06,119.5s.31,3.27-1.52,5.1-5.09,1.53-5.09,1.53-.31-3.27,1.52-5.1S288.06,119.5,288.06,119.5Z"/>
        <circle class="cls-18" cx="279.19" cy="130.62" r="5.57"/>
      </g>
      <g>
        <path class="cls-17" d="M314.51,125.77s.31,3.27-1.52,5.1-5.09,1.53-5.09,1.53-.31-3.26,1.52-5.1S314.51,125.77,314.51,125.77Z"/>
        <circle class="cls-18" cx="305.64" cy="136.89" r="5.57"/>
      </g>
    </g>
  </g>
</svg>
