<svg id="Layer_1" data-name="Layer 1" xmlns="http://www.w3.org/2000/svg" xmlns:xlink="http://www.w3.org/1999/xlink" width="253" height="255" viewBox="0 0 253 255">
  <defs>
    <style>
      .cls-1, .cls-11, .cls-13, .cls-15, .cls-17, .cls-18, .cls-2, .cls-35, .cls-8 {
        fill: none;
      }

      .cls-2 {
        clip-rule: evenodd;
      }

      .cls-3 {
        opacity: 0.5;
      }

      .cls-4 {
        clip-path: url(#clip-path);
      }

      .cls-5 {
        fill: url(#linear-gradient);
      }

      .cls-6 {
        fill: #9dc2d4;
      }

      .cls-10, .cls-38, .cls-39, .cls-6, .cls-7 {
        fill-rule: evenodd;
      }

      .cls-7 {
        fill: #a1c96d;
      }

      .cls-8 {
        stroke: #75bfa8;
      }

      .cls-11, .cls-13, .cls-15, .cls-17, .cls-18, .cls-8 {
        stroke-miterlimit: 22.93;
        stroke-width: 0px;
      }

      .cls-9 {
        clip-path: url(#clip-path-2);
      }

      .cls-10 {
        fill: #5c6163;
      }

      .cls-11 {
        stroke: #52646e;
      }

      .cls-12 {
        fill: #818f96;
      }

      .cls-13 {
        stroke: #818f96;
      }

      .cls-14 {
        fill: #73828a;
      }

      .cls-15 {
        stroke: #73828a;
      }

      .cls-16 {
        fill: #63747d;
      }

      .cls-17 {
        stroke: #63747d;
      }

      .cls-18 {
        stroke: #677e89;
      }

      .cls-19 {
        opacity: 0.63;
      }

      .cls-20 {
        fill: #3d8723;
      }

      .cls-21 {
        fill: #000b19;
        opacity: 0.3;
      }

      .cls-22 {
        fill: #091e28;
      }

      .cls-23, .cls-38 {
        fill: #0c2635;
      }

      .cls-24, .cls-39 {
        fill: #f0f2f8;
      }

      .cls-25 {
        fill: #a6b3c6;
      }

      .cls-26 {
        fill: #56595b;
      }

      .cls-27 {
        fill: #225ec4;
      }

      .cls-28 {
        fill: #6c8094;
      }

      .cls-29 {
        fill: #153b4f;
      }

      .cls-30 {
        fill: #231f20;
      }

      .cls-30, .cls-36 {
        opacity: 0.1;
      }

      .cls-31 {
        fill: #ee252c;
      }

      .cls-32, .cls-33 {
        fill: #fff;
      }

      .cls-33 {
        opacity: 0.4;
      }

      .cls-34 {
        fill: #647a7a;
      }

      .cls-35 {
        stroke: #404041;
        stroke-linejoin: round;
        stroke-width: 0.65px;
      }

      .cls-36 {
        fill: #0c1b24;
      }

      .cls-37 {
        fill: #a6a8ab;
      }

      .cls-40 {
        fill: #ccc;
      }
    </style>
    <clipPath id="clip-path">
      <rect class="cls-1" x="7.02" y="7.33" width="234.04" height="234.04" rx="26.14"/>
    </clipPath>
    <linearGradient id="linear-gradient" x1="-124.54" y1="570.56" x2="365.49" y2="-287.2" gradientUnits="userSpaceOnUse">
      <stop offset="0.2" stop-color="#c5f7fd"/>
      <stop offset="0.34" stop-color="#b3f0fd"/>
      <stop offset="0.66" stop-color="#8ee1fd"/>
      <stop offset="0.83" stop-color="#80dbfd"/>
    </linearGradient>
    <clipPath id="clip-path-2">
      <polygon class="cls-2" points="611.43 285.36 -209.27 285.36 -209.27 125.01 611.43 125.01 611.43 285.36 611.43 285.36"/>
    </clipPath>
  </defs>
  <g>
    <path class="cls-3" d="M209.19,6.61H44.88a40,40,0,0,0-39.95,40v164.3a43.86,43.86,0,0,0,43.81,43.82H209.19A43.86,43.86,0,0,0,253,210.87V50.43A43.86,43.86,0,0,0,209.19,6.61Zm36.73,204.26a36.74,36.74,0,0,1-36.73,36.74H48.74A36.74,36.74,0,0,1,12,210.87V49.22A35.53,35.53,0,0,1,47.53,13.69H209.19a36.74,36.74,0,0,1,36.73,36.74Z"/>
    <g class="cls-4">
      <g>
        <rect class="cls-5" x="-221.83" y="-135" width="849.17" height="265.31"/>
        <g>
          <path class="cls-6" d="M9,47.23V34.92H7.33V45.8l-.65-.58V63.44H3.21v47.7l-5.36,7.22h-4.4L-35.62,98.62V81.13l-22,12.77v8.16h-4.16v2.66h3.24v.72H-59v.48h.52v1H-65v3.28h-1.34v-5.1h1.72v-.82h-1.72v-5.1h1.72v-.83h-1.72v-5.1h1.72v-.82h-1.72v-5.1h1.72v-.82h-1.72v-5.1h1.72v-.83h-1.72v-5.1h1.72v-.82h-1.72V69.94h1.67l.1-12.68H-82.92l-6.24,4.45h-31.36v8.23H-119v4.68h-1.43v.82H-119v5.1h-1.43v.83H-119v5.1h-1.43v.82H-119v5.1h-1.43v.82H-119v5.1h-1.43v.83H-119v5.1h-1.43v.82H-119v5.1h-1.43V111H-119v5.1h-1.43v.82H-119V122h-1.43v.83H-119v1.76h-1.31v-.19h-.41v-2.64h.41v-.43h-.41v-2.64h.41v-.43h-.41v-2.64h.41v-.42h-.41v-2.65h.41v-.42h-.41v-2.34h.09v-3.4h-4v-3.31h-32.54v3.31h-4v3.4h.09v2.34h-.41v.42h.41v2.65h-.41v.42h.41v2.64h-.41v.43h.41v2.64h-.41v.43h.41v1.09h-3.86v-2.12h.3v-.36h-.3v-2h.06v-2.86h-2.92v-2.78h-23.9v2.78h-2.92v2.86h.06v2h-.3v.36h.3V123h-.3v.36h.3v2.22h-.3v.36h.3v2.22h-.3v.36h.3v2.22h-.3v.36h.3v2.22h-.3v.36h.3v2.22h-.3v.36h.3v2.22h-.3v.36h.3V141h-.3v.36h.3v2.22h-.3V144h.3v2.22h-.3v.36h.3v2.22h-.3v.36h.3v2.22h-.3v.36h.3v2.22h-.3v.36h.3v2.49h-1.87v2.73h1.87v1.7h-1.87v2.74h78.22v-2.15h53.58v-1.95h2.88v3.37h24.36l-.91,4.92H-.8L-2,161.63H.08v-1.49H3.21v4.13H47.64l-.09-.6H91.33v-1.74h2v1H196.85v1h7.55c-.09.18-.19.36-.27.54h99.7C298,152.72,280,143.93,258.24,142.91v-.11h.24v-.44h-.24v-2.7h.24v-.43h-.24v-2.7h.24v-.44h-.24V133.4h.24V133h-.24v-2.7h.24v-.43h-.24v-2.7h.24v-.44h-.24V124h.24v-.44h-.24v-2.7h.24v-.43h-.24v-2.7h.24v-.43h-.24v-2.7h.24v-.44h-.24v-2.69h.24V111h-.24v-2.39h.05v-3.47H256v-3.38H239V98.4H220.11V102h-.59v-.17H200.6v3.38h-2.32v3.47h.05V111h-.24v.44h.24v2.69h-.24v.44h.24v2.7h-.24v.43h.24v2.7h-.24v.43h.24v1.89h-3.66v-12L173.89,98.7v24h-2.12v-12.5h-34.1v-2.82H101.73V98.09H50.82v9.36H39.88l-3.6-26.37c-2.66-10.77-8.49-16.27-16.79-17.64H18l0-8.25L9,47.23Zm-44.59,54.83ZM-65,151.62v-5.1h-1.34v5.1Zm0-5.93V140.6h-1.34v5.09Zm0-5.92v-5.1h-1.34v5.1Zm0-5.92v-5.1h-1.34v5.1Zm0-5.92v-5.1h-1.34v5.1Zm0-5.93v-5.1h-1.34V122Zm0-5.92V111h-1.34v5.1ZM42.3,125.19v-2.42H42l-.29-2.13h.94v6.91l-.32-2.36Zm.32-7.88H41.23l-.89-6.54h2.28v6.54ZM7.68,24.51h.93V34.92H7.68V24.51Z"/>
          <path class="cls-6" d="M455.82,37.62V25.31h-1.64V36.19l-.65-.58V53.83h-3.47v47.7l-5.36,7.22h-4.4L411.23,89V71.52l-22,12.77v8.16H385.1v2.66h3.24v.72h-.52v.48h.52v1h-6.5v3.28H380.5v-5.1h1.72v-.82H380.5v-5.1h1.72V88.7H380.5V83.6h1.72v-.82H380.5v-5.1h1.72v-.82H380.5v-5.1h1.72v-.83H380.5v-5.1h1.72V65H380.5V60.33h1.67l.1-12.68H363.93l-6.24,4.45H326.33v8.23h1.48V65h-1.43v.82h1.43v5.1h-1.43v.83h1.43v5.1h-1.43v.82h1.43v5.1h-1.43v.82h1.43v5.1h-1.43v.83h1.43v5.1h-1.43v.82h1.43v5.1h-1.43v.82h1.43v5.1h-1.43v.83h1.43v5.09h-1.43v.83h1.43V115H326.5v-.19h-.41v-2.64h.41v-.43h-.41v-2.64h.41v-.43h-.41V106h.41v-.42h-.41v-2.65h.41v-.42h-.41v-2.34h.09v-3.4h-4V93.47H289.66v3.31h-4v3.4h.09v2.34h-.41v.42h.41v2.65h-.41V106h.41v2.64h-.41v.43h.41v2.64h-.41v.43h.41v1.09h-3.86v-2.12h.3v-.36h-.3v-2H282v-2.86h-2.92v-2.78h-23.9v2.78h-2.92v2.86h.07v2H252v.36h.31v2.22H252v.36h.31v2.22H252v.36h.31v2.22H252v.36h.31v2.22H252v.36h.31v2.22H252V124h.31v2.22H252v.36h.31v2.22H252v.36h.31v2.22H252v.36h.31V134H252v.36h.31v2.22H252v.36h.31v2.22H252v.36h.31v2.22H252v.36h.31v2.22H252v.36h.31v2.49h-1.88v2.73h1.88v1.7h-1.88v2.74h78.22v-2.15h53.58v-1.95h2.88v3.37h24.37l-.92,4.92h37.5L444.84,152h2.09v-1.49h3.13v4.13h44.43l-.09-.6h43.78v-1.74h2v1H643.7v1h7.55c-.09.18-.19.36-.27.54h99.7c-5.81-11.75-23.79-20.54-45.59-21.56v-.11h.24v-.44h-.24v-2.7h.24v-.43h-.24v-2.7h.24v-.43h-.24v-2.7h.24v-.44h-.24v-2.69h.24v-.44h-.24v-2.7h.24v-.43h-.24v-2.7h.24V114h-.24v-2.69h.24v-.44h-.24v-2.7h.24v-.43h-.24V105h.24v-.44h-.24v-2.69h.24v-.44h-.24V99h0V95.56h-2.31V92.18H685.89V88.79H667v3.56h-.59v-.17H647.45v3.38h-2.32V99h0v2.39h-.24v.44h.24v2.69h-.24V105h.24v2.7h-.24v.43h.24v2.7h-.24v.44h.24v1.88h-3.66v-12L620.74,89.09v24h-2.12V100.65h-34.1V97.82H548.58V88.48H497.67v9.36H486.73l-3.6-26.37c-2.66-10.77-8.49-16.27-16.79-17.64h-1.45V45.58l-9.08-8ZM411.23,92.45ZM381.84,142v-5.1H380.5V142Zm0-5.93V131H380.5v5.09Zm0-5.92v-5.1H380.5v5.1Zm0-5.92v-5.1H380.5v5.1Zm0-5.92v-5.1H380.5v5.1Zm0-5.93V107.3H380.5v5.09Zm0-5.92v-5.1H380.5v5.1Zm107.31,9.11v-2.42h-.33l-.29-2.13h.94v6.91l-.32-2.36Zm.32-7.88h-1.39l-.89-6.54h2.28v6.54ZM454.53,14.9h.93V25.31h-.93V14.9Z"/>
          <polygon class="cls-7" points="611.43 285.36 -209.27 285.36 -209.27 125.01 611.43 125.01 611.43 285.36 611.43 285.36"/>
          <polygon class="cls-8" points="611.43 285.36 -209.27 285.36 -209.27 125.01 611.43 125.01 611.43 285.36 611.43 285.36"/>
          <g class="cls-9">
            <path class="cls-10" d="M-284.14,143.74c266.15-2.21,751.62,26.08,812.7,151.52H118.73c-54.06-136-250-132.38-403.22-141.17,0-1.11.29-1.41.29-2.52v-1.23l-.39,0-.1-5.63.55,0v-1Z"/>
            <path class="cls-11" d="M-284.14,143.74c266.15-2.21,751.62,26.08,812.7,151.52H118.73c-54.06-136-250-132.38-403.22-141.17,0-1.11.29-1.41.29-2.52v-1.23l-.39,0-.1-5.63.55,0v-1Z"/>
          </g>
          <path class="cls-12" d="M246.33,215.7A416.59,416.59,0,0,1,303,242.28H289a427.58,427.58,0,0,0-54.91-25.68l12.28-.9Z"/>
          <path class="cls-13" d="M246.33,215.7A416.59,416.59,0,0,1,303,242.28H289a427.58,427.58,0,0,0-54.91-25.68l12.28-.9Z"/>
          <path class="cls-14" d="M184.73,195.24c16,4.58,31.52,9.5,46.31,14.78H216.41c-13.75-4.89-28.1-9.48-42.87-13.78l11.17-.77,0-.23Z"/>
          <path class="cls-15" d="M184.73,195.24c16,4.58,31.52,9.5,46.31,14.78H216.41c-13.75-4.89-28.1-9.48-42.87-13.78l11.17-.77,0-.23Z"/>
          <path class="cls-16" d="M122.81,179.7c15.09,3.33,30,6.9,44.53,10.75H152.72c-14.45-3.84-29.22-7.42-44.17-10.75Z"/>
          <path class="cls-17" d="M122.81,179.7c15.09,3.33,30,6.9,44.53,10.75H152.72c-14.45-3.84-29.22-7.42-44.17-10.75Z"/>
          <polygon class="cls-10" points="-156.69 144.54 611.25 144.54 611.25 164.34 -156.69 144.54 -156.69 144.54"/>
          <polygon class="cls-18" points="-156.69 144.54 611.25 144.54 611.25 164.34 -156.69 144.54 -156.69 144.54"/>
        </g>
        <g class="cls-19">
          <path class="cls-20" d="M16.58,215.31s3.39-2.95,9.91-3.68-7-3.86-11.84,3.68C14.65,215.31,12.48,218.66,16.58,215.31Z"/>
          <path class="cls-20" d="M7.4,215.72s9.91-9.42,15.71-11.93-5.56-2.73-13.29,5.13C9.82,208.92,6,213.63,7.4,215.72Z"/>
          <path class="cls-20" d="M4.5,215.72s6.58-15.29,9.57-17.17-4.74-2.93-9.57,9.53C4.5,208.08,2.57,214.68,4.5,215.72Z"/>
          <path class="cls-20" d="M1,215.72s2.53-14,5-16.12S-3.23,201.9,1,215.72Z"/>
        </g>
        <g class="cls-19">
          <path class="cls-20" d="M213.16,163.19a9.71,9.71,0,0,1,5-1.85c3.29-.37-3.53-2-6,1.85C212.19,163.19,211.09,164.88,213.16,163.19Z"/>
          <path class="cls-20" d="M208.53,163.4s5-4.75,7.92-6-2.8-1.37-6.7,2.59C209.75,160,207.8,162.35,208.53,163.4Z"/>
          <path class="cls-20" d="M207.07,163.4s3.32-7.71,4.83-8.66-2.39-1.48-4.83,4.81C207.07,159.55,206.1,162.87,207.07,163.4Z"/>
          <path class="cls-20" d="M205.3,163.4s1.28-7.07,2.5-8.13S203.17,156.43,205.3,163.4Z"/>
          <path class="cls-20" d="M204.57,163.4s.06-5.89-2.56-6.8S203.54,160.44,204.57,163.4Z"/>
          <path class="cls-20" d="M203.72,163.4s-1.64-6.75-5.67-6.91S201.22,159,203.72,163.4Z"/>
          <path class="cls-20" d="M203.37,163.4a7.29,7.29,0,0,0-5.8-2.53C193.91,161.08,202.48,162.56,203.37,163.4Z"/>
        </g>
        <g class="cls-19">
          <path class="cls-20" d="M101.61,142.38a8.29,8.29,0,0,1,4.24-1.57c2.79-.31-3-1.65-5.06,1.57C100.79,142.38,99.86,143.82,101.61,142.38Z"/>
          <path class="cls-20" d="M97.69,142.56s4.23-4,6.71-5.1-2.37-1.16-5.68,2.19C98.72,139.65,97.07,141.67,97.69,142.56Z"/>
          <path class="cls-20" d="M96.45,142.56s2.81-6.53,4.09-7.34-2-1.25-4.09,4.08C96.45,139.3,95.62,142.12,96.45,142.56Z"/>
          <path class="cls-20" d="M95,142.56s1.09-6,2.12-6.89S93.14,136.65,95,142.56Z"/>
          <path class="cls-20" d="M94.33,142.56s0-5-2.17-5.76S93.45,140.06,94.33,142.56Z"/>
          <path class="cls-20" d="M93.61,142.56s-1.4-5.72-4.81-5.86S91.49,138.8,93.61,142.56Z"/>
          <path class="cls-20" d="M93.31,142.56a6.2,6.2,0,0,0-4.92-2.15C85.29,140.59,92.56,141.85,93.31,142.56Z"/>
        </g>
        <path class="cls-21" d="M55.14,194.75c-.27,0-.61.26,1.16.74,9.5,2.55,35.05,8.52,44.79,10.7,11.85,2.66,20.33,2.91,30.12,2.91s41.09-2.21,45.53-3-6.35-4.63-18-5.73-63.14-8.67-63.14-8.67S56.67,194.56,55.14,194.75Z"/>
        <g>
          <path class="cls-22" d="M55.05,182.86,67,188.59l26.61,3.54,20.07,1,31.27-1.56-9.11-23.49L59.2,170.19s-3.25,2.48-4,5.51A21.24,21.24,0,0,0,55.05,182.86Z"/>
          <g>
            <path class="cls-23" d="M115.18,190.41c0,8-2.84,14.42-6.34,14.42s-6.35-6.46-6.35-14.42S105.34,176,108.84,176,115.18,182.44,115.18,190.41Z"/>
            <polygon class="cls-23" points="108.84 175.98 100.87 175.98 100.72 205.19 108.84 204.83 108.84 175.98"/>
            <path class="cls-23" d="M107.31,190.58c0,8.07-3,14.61-6.59,14.61s-6.59-6.54-6.59-14.61,3-14.6,6.59-14.6S107.31,182.52,107.31,190.58Z"/>
            <path class="cls-24" d="M105.15,190.58c0,6.18-2.18,11.19-4.86,11.19s-4.86-5-4.86-11.19,2.18-11.18,4.86-11.18S105.15,184.41,105.15,190.58Z"/>
            <path class="cls-24" d="M104.46,190.58c0,5.56-1.91,10.07-4.27,10.07s-4.28-4.51-4.28-10.07,1.92-10.06,4.28-10.06S104.46,185,104.46,190.58Z"/>
            <polygon class="cls-24" points="99.6 179.76 100.46 188.87 96.07 185.56 95.73 187.49 100.29 190.96 96.61 197.15 97.17 198.84 101 192.48 102.5 200.29 103.3 198.88 101.89 190.94 104.98 188.69 104.72 186.41 101.72 188.71 100.87 179.64 99.6 179.76"/>
            <path class="cls-25" d="M102.41,190.58c0,1.79-.63,3.24-1.41,3.24s-1.4-1.45-1.4-3.24.63-3.23,1.4-3.23S102.41,188.8,102.41,190.58Z"/>
            <path class="cls-24" d="M102.21,190.58c0,.86-.3,1.55-.67,1.55s-.67-.69-.67-1.55.3-1.54.67-1.54S102.21,189.73,102.21,190.58Z"/>
          </g>
          <g>
            <path class="cls-23" d="M69.49,184.45c0,6-1.94,10.91-4.34,10.91s-4.35-4.88-4.35-10.91,2-10.91,4.35-10.91S69.49,178.42,69.49,184.45Z"/>
            <polygon class="cls-23" points="65.15 173.54 59.69 173.54 59.59 195.63 65.15 195.36 65.15 173.54"/>
            <path class="cls-23" d="M64.1,184.58c0,6.1-2,11-4.51,11s-4.52-4.95-4.52-11,2-11,4.52-11S64.1,178.48,64.1,184.58Z"/>
            <path class="cls-24" d="M62.62,184.58c0,4.68-1.49,8.46-3.33,8.46S56,189.26,56,184.58s1.49-8.45,3.32-8.45S62.62,179.91,62.62,184.58Z"/>
            <path class="cls-24" d="M62.15,184.58c0,4.21-1.31,7.62-2.93,7.62s-2.93-3.41-2.93-7.62S57.6,177,59.22,177,62.15,180.38,62.15,184.58Z"/>
            <polygon class="cls-24" points="58.82 176.39 59.41 183.28 56.4 180.79 56.17 182.25 59.29 184.87 56.77 189.55 57.16 190.83 59.78 186.02 60.8 191.92 61.36 190.86 60.39 184.85 62.5 183.15 62.33 181.43 60.27 183.17 59.69 176.31 58.82 176.39"/>
            <path class="cls-25" d="M60.74,184.58c0,1.36-.43,2.45-1,2.45s-1-1.09-1-2.45.43-2.44,1-2.44S60.74,183.23,60.74,184.58Z"/>
            <path class="cls-24" d="M60.61,184.58c0,.65-.21,1.17-.46,1.17s-.46-.52-.46-1.17.2-1.16.46-1.16S60.61,183.94,60.61,184.58Z"/>
          </g>
          <g>
            <ellipse class="cls-23" cx="164.15" cy="188.5" rx="6.95" ry="13.17"/>
            <polygon class="cls-23" points="164.15 175.33 155.42 175.33 155.25 201.99 164.15 201.66 164.15 175.33"/>
            <path class="cls-23" d="M162.47,188.66c0,7.36-3.23,13.33-7.22,13.33S148,196,148,188.66s3.24-13.33,7.22-13.33S162.47,181.3,162.47,188.66Z"/>
            <path class="cls-26" d="M160.11,188.66c0,5.64-2.39,10.21-5.32,10.21s-5.32-4.57-5.32-10.21,2.38-10.21,5.32-10.21S160.11,183,160.11,188.66Z"/>
            <path class="cls-26" d="M159.36,188.66c0,5.07-2.1,9.19-4.69,9.19s-4.68-4.12-4.68-9.19,2.1-9.19,4.68-9.19S159.36,183.59,159.36,188.66Z"/>
            <polygon class="cls-26" points="154.03 178.78 154.97 187.09 150.16 184.08 149.79 185.84 154.79 189 150.75 194.66 151.37 196.2 155.56 190.39 157.2 197.51 158.08 196.23 156.54 188.99 159.92 186.93 159.64 184.85 156.34 186.95 155.42 178.67 154.03 178.78"/>
            <path class="cls-25" d="M157.11,188.66c0,1.63-.69,3-1.54,3s-1.54-1.32-1.54-3,.69-2.95,1.54-2.95S157.11,187,157.11,188.66Z"/>
            <path class="cls-24" d="M156.88,188.66c0,.78-.32,1.41-.73,1.41s-.73-.63-.73-1.41.32-1.41.73-1.41S156.88,187.88,156.88,188.66Z"/>
          </g>
          <path class="cls-27" d="M55.05,182.86l0-2.55s.95-8,4.17-8.52c3.92-.6,5.28,4.28,5.84,8s1.27,9,3.28,9.26c4.33.66,9.3,1.33,13.82,1.75s11.44,1.34,11.44,1.34a8.79,8.79,0,0,1-.88-3.7c-.12-2.43-1.29-16.48,7.65-17.26,6.88-.59,9,8.93,9.92,13s2,8.19,3.38,8.94,8,.81,13.56.52,40-1.65,43.54-2.08,6.75-1.66,7.76-5.74,2.51-9.61,1.38-11.62S175,156.45,175,156.45l1.1-2.39s-3.32-2.18-4.51-3c-3.74-2.73-17.16-7.79-20.51-9.51-6.8-3.49-7.88-4.13-17.48-4.55a257.24,257.24,0,0,0-28.86.34c-9.36.64-20.19,5.33-25.33,10s-13.24,15.26-13.24,15.26-5.31,1.93-7.5,3.9-2.69,2.92-3.24,5.1C54,177.36,54.21,179.78,55.05,182.86Z"/>
          <path class="cls-28" d="M67.2,162.35s29.74-9,36.17-10.75c6.28-1.67,7.95-2.87,5.31-5.33-5.4-5-8.53-6.4-14.76-5.2-5,1-10.73,3.38-14.41,6.76C74.71,152.23,67.2,162.35,67.2,162.35Z"/>
          <path class="cls-23" d="M108.68,146.27c-4.2-3.9-7-5.6-11-5.6a20.43,20.43,0,0,0-3.76.4c-5,1-10.73,3.38-14.41,6.76-4.8,4.4-12.31,14.52-12.31,14.52s29.74-9,36.17-10.75C109.65,149.93,111.32,148.73,108.68,146.27Zm.2,2s-.13.39-1.28.92a29.2,29.2,0,0,1-4.49,1.47C98,152,77.58,158.15,69.88,160.49c2.52-3.27,7.07-9,10.31-11.92s8.59-5.48,13.92-6.51a19,19,0,0,1,3.57-.39c3.47,0,6,1.3,10.31,5.33C109,147.89,108.88,148.23,108.88,148.24Z"/>
          <path class="cls-29" d="M67.2,162.35s29.74-9,36.17-10.75c6.28-1.67,7.95-2.87,5.31-5.33-10.08-.41-15.94,1.15-21.87,3.39C72.13,155.19,67.2,162.35,67.2,162.35Z"/>
          <path class="cls-30" d="M64.25,169.52l-.84-1.84s28.59-7.22,39-9.78c10.67-2.64,15.07-4.51,24.71-4.88,9.29-.35,21.83-.41,29.33-.13,10.23.38,19.74,1.17,19.74,1.17l-1.1,2.39s-9.8-.92-19.56-1.31-29.79-.42-36.2.59-53.64,12.59-53.64,12.59l.57,5.26Z"/>
          <g>
            <path class="cls-31" d="M140,159.9l6.62-4.64a227.05,227.05,0,0,0-25.34.72c-5.1.53-7.82,4-10.82,7.93C118.28,161.14,140,159.9,140,159.9Z"/>
            <path class="cls-31" d="M161.24,155.67l5.81,4.59a85.93,85.93,0,0,1,9.33,1.69l-1.34-5.5s-1.1,0-3.8-.24C166.32,155.84,161.24,155.67,161.24,155.67Z"/>
            <path class="cls-31" d="M140,159.9s8.85-.37,15.45-.24c6.22.12,11.58.6,11.58.6l-5.81-4.59s-2.64-.18-6.45-.29-8.15-.12-8.15-.12Z"/>
          </g>
          <polygon class="cls-32" points="145.7 166.01 164.2 166.01 163.19 161.24 144.92 160.91 145.7 166.01"/>
          <path class="cls-33" d="M80.05,184.71c5.4,0,12.78,1.09,11.27,1.88s-10.07.59-14.21.49-12-.66-8.79-1.26A63.21,63.21,0,0,1,80.05,184.71Z"/>
          <path class="cls-34" d="M171.63,151s-7.43-.48-17.5-.86c-11.28-.42-21.79-.59-29.32-.5-6.45-4.95-14.33-12.72-20-12.36,0,0,14.65-1.06,22.92-.76,7.7.28,12.48.73,15.11,1C150.16,138.41,158.53,143.38,171.63,151Z"/>
          <path class="cls-28" d="M142.81,137.57c-2.63-.3-7.41-.75-15.11-1-1,0-2.15-.06-3.33-.06-8.35,0-19.59.82-19.59.82h.38c5.67,0,13.35,7.53,19.65,12.37,1.27,0,2.62,0,4,0,7.05,0,15.9.18,25.28.53,10.07.38,17.5.86,17.5.86C158.53,143.38,150.16,138.41,142.81,137.57Zm-14,11.06-3.7,0c-1.24-1-2.51-2-3.85-3.1-3.53-2.89-7.13-5.84-10.53-7.62,4-.21,9.2-.44,13.6-.44,1.22,0,2.33,0,3.3,0,5.85.21,10.91.56,15,1,6.44.73,13.92,4.87,24.8,11.2-3.16-.17-7.87-.41-13.33-.61C145.15,148.82,136.15,148.63,128.85,148.63Z"/>
          <path class="cls-33" d="M140,159.9l4.79,6.62a1,1,0,0,0,.79.41h18.64a1,1,0,0,0,.93-.69l1.88-6-3.86,1-18.11-.33Z"/>
          <path class="cls-30" d="M163.19,161.24l3.86-1a89,89,0,0,0-11.58-1,138.49,138.49,0,0,0-15.45.68l4.9,1Z"/>
          <g>
            <path class="cls-23" d="M113.57,193.69a6.89,6.89,0,0,1-1.68-3.5S125,189.75,125.7,189a27.81,27.81,0,0,1,4.85-4.13c1.19-.77,3.88-1.21,7-1.34s34.71-1.2,37.47-1.08,2.26,5.3,2.26,6.18-3,2.7-5.67,3.09c-7.43,1.08-30.13,2-35.9,2.26S113.57,193.69,113.57,193.69Z"/>
            <path class="cls-29" d="M66.72,187.35s6.38.8,12.36,1.25,13.67.44,13.67.44.56,2.23.66,2.48a1.15,1.15,0,0,0,.76.62l0,.88s-11.1-1.78-15.13-2.26c-9.17-1.08-10.83-.31-11.42-.92A6.57,6.57,0,0,1,66.72,187.35Z"/>
          </g>
          <g>
            <path class="cls-35" d="M105,172.57s3.31-5.26,5.71-9"/>
            <path class="cls-35" d="M124.81,149.66,128,153l-1.13,2.56s.53,12.1.87,15.41c.25,2.38.76,4.41,4.39,4.41,14.55,0,37.09-.23,41.84-.57,2.28-.16,2.45-1.71,2.32-4.22S174,156.24,174,156.24l.62-2.41-3-2.81"/>
            <polyline class="cls-35" points="102.36 141.65 103.08 151.68 101 158.23 100.72 160.9 96.97 172.34"/>
            <path class="cls-35" d="M69,190.11l-1.46-2.76v-1.53s-1.5-11.87-1.7-15a29.49,29.49,0,0,0-.38-3.66l1.72-4.81"/>
            <path class="cls-35" d="M88.54,142.59l-6.2,15.18-1.55,5.53.06,2.73a99.33,99.33,0,0,0-.94,11.06c.12,3.14.46,7.72.08,8.73a2.39,2.39,0,0,1-.91,1.28s-.26.44.2,1.94.54,1.81.54,1.81"/>
          </g>
          <path class="cls-33" d="M175,156.45l-4.79-.31s1.53,8.66,2.15,10.79c1.78,6.08,5.48,2.26,6.9,5.78C177.71,167.53,175,156.45,175,156.45Z"/>
          <path class="cls-36" d="M172.49,173.58c-.16-2.39-2.24-17.44-2.24-17.44a415.27,415.27,0,0,0-43.42-.56s.71,14.87,1.32,17.63,4.32,2.42,4,5.1-1.42,8.25-2.59,10a12.53,12.53,0,0,1-9.77,4.83c-4.91,0-6.12,0-6.12,0l1.2.61c4,.13,16.09.5,20.88.29,5.77-.25,28.47-1.18,35.9-2.26a10.91,10.91,0,0,0,2.46-.7c2.6-1.51,3-9.29,3-12.75C177.05,175.82,172.65,176,172.49,173.58Z"/>
          <path class="cls-36" d="M122,175.28c-1-5.37-1.88-10.5-4.47-12.15-2.25-1.44-12.1.3-15.8,1.15-1.68.37-34.33,9.42-34.33,9.42a33,33,0,0,1,1,4.34c.26,1.39.55,3.48.74,4.92.13,1,.55,1.61,1,1.58l19.2,0c.79-.05,1.51-1,1.87-2.48.4-1.66.92-5,1.5-6.8,1.38-4.39,4-6.9,6.65-7.58,5.08-1.33,10.43,1.1,14.49,10.52.36.85.67,1.67.93,2.45.38,1.1,1.71,7.6,2.75,7.56s5.73-3.62,5.6-7.32C123.08,179.18,122.65,178.67,122,175.28Z"/>
          <path class="cls-37" d="M156.58,157.1a1.16,1.16,0,1,1-1.44-1A1.24,1.24,0,0,1,156.58,157.1Z"/>
          <path class="cls-33" d="M157.54,174.17c13.85.06,18.71.05,21.67.63,3.87.76-10.68,1.59-21.31,1.65-18.06.12-29,.34-32.86-1C120.75,174,145.38,174.12,157.54,174.17Z"/>
          <path class="cls-33" d="M127.07,153c9.29-.35,49.07,1,49.07,1l-4.51-3s-17.46-.93-22-1c-6.24-.12-25.2-.84-30.33,0-3.47.59-22.3,5.74-28.5,7.37-5.66,1.49-20.94,5.76-29.2,8.64-3.9,1.36-5.07,2.75-5.07,2.75s5.23-2.29,6.86-1.1c0,0,28.59-7.22,39-9.78C113,155.26,117.43,153.39,127.07,153Z"/>
          <g>
            <polygon class="cls-38" points="100.36 158.4 95.31 159.68 95.57 158.66 100.62 157.38 100.36 158.4"/>
            <polygon class="cls-39" points="100.33 158.24 95.27 159.52 95.53 158.5 100.59 157.22 100.33 158.24"/>
          </g>
          <g>
            <polygon class="cls-38" points="80.06 163.51 75.52 164.67 75.77 163.69 80.31 162.54 80.06 163.51"/>
            <polygon class="cls-39" points="80.03 163.36 75.48 164.51 75.73 163.53 80.28 162.38 80.03 163.36"/>
          </g>
          <path class="cls-40" d="M68.41,158a1,1,0,0,0-.92-1.31c-1.86.05-4.95.2-5.64.68s-2.37,1.83-1.24,2.66S66,161.45,66,161.45l1.57,1.69a1,1,0,0,0,1.19-.57c.29-.78-1.27-2.17-1.27-2.17Z"/>
          <path class="cls-30" d="M68.19,157.9a.7.7,0,0,0-.07-.67.72.72,0,0,0-.6-.32c-1.67,0-4.76.09-5.48.6s-2.36,1.7-1.24,2.53S66,161.45,66,161.45l1.57,1.69a1,1,0,0,0,1.19-.57c-1-.76-1.85-1.51-1.85-1.51Z"/>
          <path class="cls-29" d="M66.55,160.92l1.38-3.12a.49.49,0,0,0,0-.47.52.52,0,0,0-.42-.23c-1.48,0-4.64.11-5.52.74-1.18.84-1.85,1.91,0,2.31C64.1,160.62,66.55,160.92,66.55,160.92Z"/>
          <path class="cls-29" d="M171.63,151s-7.43-.48-17.5-.86c-11.28-.42-21.79-.59-29.32-.5-7.33-6.12-14.54-11.13-20-12.37C111.78,136.87,150.2,138.51,171.63,151Z"/>
        </g>
      </g>
    </g>
    <path class="cls-32" d="M204.26.31H40a40,40,0,0,0-40,40v164.3a43.86,43.86,0,0,0,43.81,43.82H204.26a43.86,43.86,0,0,0,43.81-43.82V44.13A43.86,43.86,0,0,0,204.26.31ZM241,204.57a36.74,36.74,0,0,1-36.74,36.74H43.81A36.74,36.74,0,0,1,7.08,204.57V42.92A35.53,35.53,0,0,1,42.61,7.39H204.26A36.74,36.74,0,0,1,241,44.13Z"/>
  </g>
</svg>
