<svg id="Layer_1" data-name="Layer 1" xmlns="http://www.w3.org/2000/svg" width="262.01" height="143.93" viewBox="0 0 262.01 143.93">
  <defs>
    <style>
      .cls-1 {
        opacity: 0.5;
      }

      .cls-2 {
        fill: #fff;
      }

      .cls-3 {
        fill: #09152b;
      }

      .cls-4 {
        fill: #dbdbdb;
      }

      .cls-5 {
        fill: #f1ac31;
      }

      .cls-6 {
        fill: #fbdd91;
      }

      .cls-7 {
        fill: #e2a225;
      }

      .cls-8 {
        fill: #f5c674;
      }

      .cls-9 {
        fill: #fde2a1;
      }

      .cls-10 {
        fill: #fbde95;
      }

      .cls-11 {
        fill: #ffecbf;
      }

      .cls-12 {
        fill: #c28b2c;
      }

      .cls-13 {
        fill: #9c722a;
      }

      .cls-14 {
        fill: #0b8040;
      }

      .cls-15 {
        fill: #0c8743;
      }

      .cls-16 {
        fill: #069046;
      }

      .cls-17, .cls-18, .cls-19, .cls-20 {
        fill: none;
      }

      .cls-17, .cls-19 {
        stroke: #204f26;
      }

      .cls-17 {
        stroke-width: 2.09px;
      }

      .cls-18, .cls-20 {
        stroke: #000;
      }

      .cls-18 {
        stroke-width: 0.11px;
      }

      .cls-19 {
        stroke-width: 1.36px;
      }

      .cls-20 {
        stroke-width: 0.07px;
      }
    </style>
  </defs>
  <g>
    <path class="cls-1" d="M133.31,143.93c-33.14,0-64.4-4.09-88-11.53-33.64-10.59-40.7-24.35-40.7-34s7.06-23.45,40.7-34a222.75,222.75,0,0,1,29.33-6.86c3.18-2.57,6.18-5,7.88-6.55,9.12-8.16,48.2-43.46,48.59-43.82a7.4,7.4,0,0,1,3.2-1.69l.15,0A22.21,22.21,0,0,1,140,4.6c5.91,0,14.77,2.32,35.71,19.51,10,8.2,20.81,20,32.19,35.21L209.24,61c4.26,1,8.31,2.16,12.08,3.34C255,74.91,262,88.68,262,98.36,262,128.28,197.27,143.93,133.31,143.93Z"/>
    <path class="cls-2" d="M128.7,139.33c-33.14,0-64.39-4.09-88-11.53C7.06,117.21,0,103.45,0,93.76s7.06-23.45,40.69-34A221,221,0,0,1,70,52.86c3.18-2.57,6.18-5,7.88-6.55C87,38.15,126.11,2.85,126.5,2.49A7.36,7.36,0,0,1,129.69.8l.16,0A22.21,22.21,0,0,1,135.36,0c5.91,0,14.77,2.32,35.71,19.51,10,8.2,20.81,20,32.18,35.21l1.38,1.66c4.26,1,8.32,2.16,12.09,3.34,33.63,10.59,40.69,24.36,40.69,34C257.41,123.68,192.66,139.33,128.7,139.33Z"/>
    <g>
      <path class="cls-3" d="M250,93.76c0,21.1-54.32,38.2-121.34,38.2-32.18,0-63-4-85.8-11.18s-35.53-16.89-35.53-27,12.78-19.85,35.53-27,53.62-11.19,85.8-11.19,63.05,4,85.8,11.19S250,83.63,250,93.76Z"/>
      <ellipse class="cls-2" cx="128.75" cy="90.39" rx="34.01" ry="115.84" transform="translate(38.18 219.02) rotate(-89.92)"/>
      <path class="cls-4" d="M131.44,8S92.06,43.53,82.82,51.79,33,90.6,33.8,95.27s0,14.74,44.6,16.89,70.31.36,65.49,3.24-6,7.18,5.23,6.11,8.43-3.24,16.07-1.08,10.85-2.88,7.23-5.75,11.65-3.23,27.32-6.11,20.5-12.94,18.09-18.33-26.93-44.91-51.44-65S135.86,6.88,131.44,8Z"/>
      <path class="cls-5" d="M126.15,13.58s-80.78,73.29-89,77.57c-10,5.17,10.75,14.18,47.54,18.62,37,4.47,100.36,4.13,121.62-6.48,14.3-7.13,11.9-10.9,10.64-14.35-1.69-4.63-10.13-5.83-20.48-19.23C178.4,46.34,139.26-.3,126.15,13.58Z"/>
      <path class="cls-6" d="M129.35,10.43S47.51,84.9,39,89.28s3.41,13.14,41.77,18.26,93.78,2.19,117.65-5.12S222.27,90,203.51,66.65,143-3.45,129.35,10.43Z"/>
      <path class="cls-7" d="M93.83,102.6c-5.65-.38-43.9-11.23-47.24-8.39s21.16,9.17,31.3,10.72,46.8,3.74,51.15,4.64-21.88,2.07-35.21-.13-44.92-4.38-52.89-12.77,2.9-7.62,13.62-4.91,37.68,8.26,41.3,9.29S110.78,103.38,93.83,102.6Z"/>
      <path class="cls-7" d="M60,77.87c-10.69,2.94-16.32,8.45-9.1,5.5s14.45-3.45,24.56-1.92S153.37,99,170.56,99.51s20.95-2.18,19.94-2.18-12.42,3.2-48.69-3.84S87,81.43,72.31,77.87A31.55,31.55,0,0,0,60,77.87Z"/>
      <path class="cls-5" d="M41.81,95.12c-1.74-5.17,2.32-7.23,24.92.51s86.36,12.91,115.34,8.26,34-11.73,34.65-13.74-9.43,17.16-71.11,14.42S53,88.51,48.48,88.51s-13,1.25-13,4.18c0,2.21,6.14,6.88,7.68,6.07C43.67,98.51,42.13,96.31,41.81,95.12Z"/>
      <path class="cls-5" d="M45.51,84.41s8.76-9.17,19.19-9.69,106.36,33.82,130.41,20.14c15.56-8.85,19.57-10.63,20.41-10.75.07,0,.08.06.1.09a.17.17,0,0,1,0,.14l-.23.2c-.31.13-16.07,10.57-26.09,13.5-9.14,2.68-41.28-1.68-53.67-4.79S74.3,78.12,61.6,77.83c-7-.16-19.34,10.21-17.47,7.73C44.3,85.33,45.1,84.87,45.51,84.41Z"/>
      <path class="cls-8" d="M151.49,14.58s-9.78,6.91-25.5,9.72,5.24,1.3,15.72-3.89,10.59-5.6,10.59-5.6Z"/>
      <path class="cls-8" d="M100.58,37.21s2.67,2.72,16.92,5.43,19.3,5,19.3,5-31.51-5.88-37.18-10C99.62,37.66,99.43,37.49,100.58,37.21Z"/>
      <path class="cls-8" d="M96.86,40.17s29,14.88,32.72,16.87a46.85,46.85,0,0,0,6.77,3s-4.57-.72-13.92-5.82S99.45,43,97.93,42.24,94.07,41.48,96.86,40.17Z"/>
      <path class="cls-8" d="M93.19,44s17.94,13.24,22,15.83,3.94,4.77,1.59,1.79-12.11-7.27-15.49-9.85-10-7.07-10-7.07S91.5,44.2,93.19,44Z"/>
      <path class="cls-9" d="M151.35,19c-19.26,6.94-15.16,9.49-31.55,11.68s-2,11.68,13.11,11.68,22.13,4.75,9,6.94S121,47.07,127.17,51.45s25.41,12.78,13.94,14.24S119,52.18,122.66,59.12s4.92,14.6-5.32,9.13S99.71,51.09,89.06,55.1,66.93,69,76.35,71.9s68.85,22.27,84.43,22.63,0-18.62,9.83-17.89,4.51-18.25,9.84-20.08-1.64-13.87-11.88-24.09S160.37,17.5,151.35,19Z"/>
      <path class="cls-10" d="M181.78,45c2.32,12.39,6.38,5.16,1.74,13.42s0,12.65-5.5,16-5.8,4.39-7.25,11.88-7,10.07-2,10.07,21.16,1,31.88-6.2,15.07-4.65,6.95-16.52S184.1,45.81,181.78,45Z"/>
      <path class="cls-9" d="M177.58,101.83C132.5,94.53,88.65,83.58,67.75,83.21S35,86.13,68.57,92s62.29,10.58,73.77,11S189.47,103.29,177.58,101.83Z"/>
      <path class="cls-9" d="M47.25,96c2.87,3.65,2.87,3.29,17.63,6.57s58.19,7.67,76.23,6.57,9.83-1.82-6.56-2.19S69.8,100.37,58.32,96,43.16,93.44,47.25,96Z"/>
      <path class="cls-10" d="M151.93,28c-37.09.51-7,10.32,4.06,10.32s18,12.39-3.48,12.91,18.55,5.16,8.7,13.42,8.69,13.94-19.71,11.88-44.63-4.13-22,2.06,22.6,13.94,31.87,11.88-2.89-4.13,7-7.74,1.16-12.4,7.53-13.94S163,52.26,169.32,48.13s-2.32-9.81-8.69-13.94S171.06,25.93,151.93,28Z"/>
      <path class="cls-11" d="M191.11,77.74c-9.43.73-6.56,1.09-2.46,2.55s2.87,6.57,7,1.1S194.79,78.1,191.11,77.74Z"/>
      <path class="cls-11" d="M185,58.75c0,1.46-2.05,9.5,2.87,4.38S192.34,54,185,58.75Z"/>
      <path class="cls-11" d="M84.14,61.31s5.33,3.28,3.28,5.48.82,2.92.82,2.92-4.51-4.39-8.2-3.29S75.12,55.1,84.14,61.31Z"/>
      <path class="cls-11" d="M96.43,73.72c0,2.92,8.2,4.38,8.2,4.38s-2.87-2.55-.41-4-1.23-1.83-4.1-1.1S97.25,70.44,96.43,73.72Z"/>
      <path class="cls-11" d="M123.89,81c-2.46,4.75,2.46,4.75,5.74,4.75s3.69-1.1,4.1-2.92-5.33-2.92-5.74-.37S126.35,80.29,123.89,81Z"/>
      <path class="cls-11" d="M151.76,88c11.07.36,16.81-4,12.71-.37s-11.89,1.83-11.89,1.83,8.61,4,1.64,2.56S146.43,88.32,151.76,88Z"/>
      <path class="cls-11" d="M162,37.94c-.41,7.31,6.56,8.4,6.56,8.4s-5.33-1.46-3.28-2.19,2.87-4.75.82-5.11S164.88,34.29,162,37.94Z"/>
      <path class="cls-11" d="M150.94,52.91s5.33,4.38-.82,5.11-5.73-1.09-2.87,2.92,2.05,4.75,4.51,1.83,3.28-1.1,4.1-3.65S159.55,52.55,150.94,52.91Z"/>
      <path class="cls-11" d="M123.07,35c-2.87,1.46-.41,5.11,2.05,5.48s3.69,1.46,3.69-1.1S128.81,33.2,123.07,35Z"/>
      <path class="cls-7" d="M148.46,24.13c-1.74,2.32-1.74,4.38.58,2.58S151.64,23.61,148.46,24.13Z"/>
      <path class="cls-7" d="M115.13,29.29c-2.9,1-.58,1.81-2.61,3.1s2,2.58,2.32,1.29S118.61,29,115.13,29.29Z"/>
      <path class="cls-7" d="M121.22,29.55c-1.16,2.06,1.15,3.09,2.6.77S120.35,26.45,121.22,29.55Z"/>
      <path class="cls-7" d="M164.11,53.81c-.87,4.13,3.47,4.13,3.47,4.13s.29.78.29-1.29S164.11,53.81,164.11,53.81Z"/>
      <path class="cls-7" d="M181.78,91.5c-3.47,3.62,1.45,5.17,1.74,3.87s-1.16-2.84.29-3.35S184.1,90.47,181.78,91.5Z"/>
      <path class="cls-7" d="M98.9,64.4c.29,2.32-1.74,3.35,1.74,2.32s3.48-1.81,3.48-1.81S100.06,65.69,98.9,64.4Z"/>
      <path class="cls-7" d="M70.21,70.59a7.51,7.51,0,0,0,3.19.78c1.74,0-2.32,1.8,1.16,2.58s4.92,1.55,4.06,0S76.3,71.37,76,70.33s-2.61-1.8-3.19-.77S69.63,68.53,70.21,70.59Z"/>
      <path class="cls-12" d="M162.22,72.92c-9.74.77-8.15,1.29-7.15,2.06s-.2,2.58,1.59,1.55.39-1.29,1.79-1a12.48,12.48,0,0,0,1.79.26S165.2,74.72,162.22,72.92Z"/>
      <path class="cls-7" d="M195.69,71.62c-4.34.78-4.05,2.33-1.45,2.33s2,1.55,2.61,0S198,71.11,195.69,71.62Z"/>
      <path class="cls-7" d="M204.68,82.73c-4.64.51-4.64,4.38-3.19,4.13s0-1.3,2.9-2.59S206.13,83.24,204.68,82.73Z"/>
      <path class="cls-12" d="M132.52,73.43c-2.61.52.29,0,.87,1.29s.58,2.84,2.31,1.55.87-.26,1.74-1.81,2-2.58.87-2.84-3.47-.77-3.47,1.3S134.55,72.92,132.52,73.43Z"/>
      <path class="cls-13" d="M143.36,37.4c-.82.73-.61,3.65.62,2.73S144.18,37.58,143.36,37.4Z"/>
      <path class="cls-13" d="M133.32,52.73c0,2.74.61,3.29.61,1.64S134.75,52.91,133.32,52.73Z"/>
      <path class="cls-13" d="M98.07,57.29c-1.43.19-.41,5.11.82,3.47s2.26-2,1.23-2.19A2.71,2.71,0,0,1,98.07,57.29Z"/>
      <path class="cls-13" d="M175.53,67.88c-1.84,2-2.87,2.92-1.43,2.37S176.76,69,175.53,67.88Z"/>
      <path class="cls-13" d="M170.61,82.67c0,1.82,0,4.56,1.85,1.46S171.43,82.85,170.61,82.67Z"/>
      <path class="cls-13" d="M163.65,32.29c-1.64,0-2.05.91,0,1.09s3.28-1.09,2-1.09Z"/>
      <path class="cls-14" d="M160.53,114.27s2.07,4-6,4.87a95.84,95.84,0,0,1-10.39.76s-.88-5.22,5.64-7S156.23,115.46,160.53,114.27Z"/>
      <path class="cls-15" d="M159.83,114.46s1.84,3.61-5.35,4.35a86.29,86.29,0,0,1-9.25.67s-.78-4.65,5-6.19S156,115.52,159.83,114.46Z"/>
      <path class="cls-16" d="M158.84,115.54c-.21.69-.81,1-3.72,2.15s-4.78-.2-8,.65.63-.19.69-1.27a4.08,4.08,0,0,1,5.32-2.86C156.43,115.28,156.9,116.14,158.84,115.54Z"/>
      <path class="cls-17" d="M160.51,114.3a20,20,0,0,1-5.35,1.93c-2.7.47-11,3.68-11,3.68"/>
      <path class="cls-18" d="M144.28,117.78a4.71,4.71,0,0,1,1.64.11,17.91,17.91,0,0,0,3.14.12s-.75,1.39-.3,1.32.27.21.27.21"/>
      <path class="cls-18" d="M144.77,116.65s3-.16,4,.3a6.24,6.24,0,0,0,2.24.47s-.32,1.21.06,1.54-.44.57-.44.57"/>
      <path class="cls-18" d="M153.25,116.79s-3.95-1.82-5.61-1.53a5.68,5.68,0,0,1-2.1.14"/>
      <path class="cls-18" d="M153.43,116.88s-.3.93-.14,1.13-.67,1.14-.67,1.14l.16.24"/>
      <path class="cls-18" d="M146.92,114.2s1.84,0,2.68-.17a7.71,7.71,0,0,1,3.76.7c.79.54,2.32,1.41,2.32,1.41s1.2,1,1,1.48.47,1.09.47,1.09"/>
      <path class="cls-14" d="M161.91,115.33s-1.21,2.92,3.49,3.52a47.33,47.33,0,0,0,6.06.55,4.7,4.7,0,0,0-3.29-5C164.36,113.13,164.42,116.19,161.91,115.33Z"/>
      <path class="cls-15" d="M162.32,115.47s-1.07,2.6,3.11,3.14a41.2,41.2,0,0,0,5.4.48,4.18,4.18,0,0,0-2.93-4.47C164.51,113.51,164.56,116.24,162.32,115.47Z"/>
      <path class="cls-16" d="M162.89,116.25c.13.5.47.75,2.18,1.55s2.78-.15,4.65.47-.36-.14-.4-.92-1.19-2.83-3.1-2.06S164,116.68,162.89,116.25Z"/>
      <path class="cls-19" d="M161.92,115.35a10.41,10.41,0,0,0,3.12,1.4,54.45,54.45,0,0,1,6.43,2.65"/>
      <path class="cls-20" d="M171.38,117.87a2.09,2.09,0,0,0-.95.07,8,8,0,0,1-1.83.09s.43,1,.17,1-.15.16-.15.16"/>
      <path class="cls-20" d="M171.1,117.05a6.28,6.28,0,0,0-2.34.22,3,3,0,0,1-1.31.33s.19.88,0,1.11.25.42.25.42"/>
      <path class="cls-20" d="M166.16,117.15s2.29-1.31,3.27-1.11a2.66,2.66,0,0,0,1.22.11"/>
      <path class="cls-20" d="M166.05,117.22s.17.67.08.81.39.83.39.83l-.09.16"/>
      <path class="cls-20" d="M169.85,115.28a14.91,14.91,0,0,1-1.57-.12,3.78,3.78,0,0,0-2.19.5c-.46.39-1.35,1-1.35,1s-.7.7-.59,1.07-.27.78-.27.78"/>
    </g>
  </g>
</svg>
