<svg id="Layer_1" data-name="Layer 1" xmlns="http://www.w3.org/2000/svg" width="175.29" height="244.13" viewBox="0 0 175.29 244.13">
  <defs>
    <style>
      .cls-1 {
        opacity: 0.5;
      }

      .cls-2 {
        fill: #fff;
      }

      .cls-3 {
        fill: #9a6634;
      }

      .cls-4 {
        fill: #caaf99;
      }

      .cls-5 {
        fill: #4b2917;
      }

      .cls-6 {
        fill: #243a1a;
      }

      .cls-7 {
        fill: #cb7a35;
      }

      .cls-8 {
        fill: #589241;
      }

      .cls-9 {
        fill: #925c2a;
      }

      .cls-10 {
        fill: #20130a;
      }

      .cls-11 {
        fill: #6b3019;
      }

      .cls-12 {
        fill: #935d2b;
      }

      .cls-13 {
        fill: #935c2a;
      }

      .cls-14 {
        fill: #f5b576;
      }

      .cls-15 {
        fill: #21140a;
      }

      .cls-16 {
        fill: #935e2b;
      }

      .cls-17 {
        fill: #23160c;
      }

      .cls-18 {
        fill: #301110;
      }

      .cls-19 {
        fill: #22150b;
      }

      .cls-20 {
        fill: #9f6a39;
      }

      .cls-21 {
        fill: #25170d;
      }

      .cls-22 {
        fill: #323130;
      }

      .cls-23 {
        fill: #653f17;
      }

      .cls-24 {
        fill: #9e6732;
      }

      .cls-25 {
        fill: #353432;
      }

      .cls-26 {
        fill: #663f18;
      }

      .cls-27 {
        fill: #9d652e;
      }

      .cls-28 {
        fill: #725622;
      }

      .cls-29 {
        fill: #2b1b10;
      }

      .cls-30 {
        fill: #9a6430;
      }

      .cls-31 {
        fill: #a36f3e;
      }

      .cls-32 {
        fill: #9d6937;
      }

      .cls-33 {
        fill: #a2734a;
      }

      .cls-34 {
        fill: #a06e3e;
      }

      .cls-35 {
        fill: #a6764b;
      }

      .cls-36 {
        fill: #9d6635;
      }

      .cls-37 {
        fill: #725522;
      }

      .cls-38 {
        fill: #9b6229;
      }

      .cls-39 {
        fill: #a37144;
      }

      .cls-40 {
        fill: #9c6735;
      }

      .cls-41 {
        fill: #af7b4b;
      }

      .cls-42 {
        fill: #a57143;
      }

      .cls-43 {
        fill: #ab7444;
      }

      .cls-44 {
        fill: #ac7b4d;
      }

      .cls-45 {
        fill: #935d2c;
      }

      .cls-46 {
        fill: #3a1211;
      }

      .cls-47 {
        fill: #a87547;
      }

      .cls-48 {
        fill: #a87241;
      }

      .cls-49 {
        fill: #a26d3e;
      }

      .cls-50 {
        fill: #a26e3d;
      }

      .cls-51 {
        fill: #6d5948;
      }

      .cls-52 {
        fill: #59493a;
      }

      .cls-53 {
        fill: #506c39;
      }

      .cls-54 {
        fill: #9b6432;
      }

      .cls-55 {
        fill: #cbc8c5;
      }

      .cls-56 {
        fill: #526e3b;
      }

      .cls-57 {
        fill: #a87546;
      }

      .cls-58 {
        fill: #45652f;
      }

      .cls-59 {
        fill: #a27044;
      }

      .cls-60 {
        fill: #a87140;
      }

      .cls-61 {
        fill: #a97445;
      }

      .cls-62 {
        fill: #ad7646;
      }

      .cls-63 {
        fill: #a4764c;
      }

      .cls-64 {
        fill: #a37042;
      }

      .cls-65 {
        fill: #4b3624;
      }

      .cls-66 {
        fill: #9f6a38;
      }

      .cls-67 {
        fill: #cb7935;
      }

      .cls-68 {
        fill: #6a2f19;
      }

      .cls-69 {
        fill: #6e431e;
      }

      .cls-70 {
        fill: #efaf71;
      }

      .cls-71 {
        fill: #f2b274;
      }

      .cls-72 {
        fill: #f0b272;
      }

      .cls-73 {
        fill: #d49457;
      }

      .cls-74 {
        fill: #e8a768;
      }

      .cls-75 {
        fill: #dc9c5d;
      }

      .cls-76 {
        fill: #dd995b;
      }

      .cls-77 {
        fill: #da9657;
      }

      .cls-78 {
        fill: #d18848;
      }

      .cls-79 {
        fill: #dc9b5e;
      }

      .cls-80 {
        fill: #f5b577;
      }

      .cls-81 {
        fill: #381212;
      }

      .cls-82 {
        fill: #f7f2f3;
      }

      .cls-83 {
        fill: #491212;
      }

      .cls-84 {
        fill: #f4b576;
      }

      .cls-85 {
        fill: #f4b475;
      }

      .cls-86 {
        fill: #d99257;
      }

      .cls-87 {
        fill: #e7a162;
      }

      .cls-88 {
        fill: #e1a46b;
      }

      .cls-89 {
        fill: #d89c65;
      }

      .cls-90 {
        fill: #e5a66a;
      }

      .cls-91 {
        fill: #cb7a36;
      }

      .cls-92 {
        fill: #9c642f;
      }

      .cls-93 {
        fill: #9c6530;
      }

      .cls-94 {
        fill: #e7a566;
      }

      .cls-95 {
        fill: #e8b262;
      }

      .cls-96 {
        fill: #aa6b2a;
      }

      .cls-97 {
        fill: #9b6430;
      }

      .cls-98 {
        fill: #a46a32;
      }

      .cls-99 {
        fill: #b32726;
      }

      .cls-100 {
        fill: #e35a59;
      }

      .cls-101 {
        fill: #791416;
      }

      .cls-102 {
        fill: #fbd780;
      }

      .cls-103 {
        fill: #f8a71a;
      }

      .cls-104 {
        fill: #50534e;
      }

      .cls-105 {
        fill: #7c5a24;
      }

      .cls-106 {
        fill: #e89623;
      }

      .cls-107 {
        fill: #fbd680;
      }

      .cls-108 {
        fill: #795823;
      }

      .cls-109 {
        fill: #4e514d;
      }

      .cls-110 {
        fill: #9d6532;
      }

      .cls-111 {
        fill: #e8a263;
      }

      .cls-112 {
        fill: #dfa063;
      }

      .cls-113 {
        fill: #9b632f;
      }

      .cls-114 {
        fill: #9b6531;
      }

      .cls-115 {
        fill: #de8a4c;
      }

      .cls-116 {
        fill: #4b2221;
      }

      .cls-117 {
        fill: #dd894c;
      }

      .cls-118 {
        fill: #501412;
      }

      .cls-119 {
        fill: #4c1312;
      }

      .cls-120 {
        fill: #5d1b14;
      }

      .cls-121 {
        fill: #551412;
      }

      .cls-122 {
        fill: #5c332d;
      }

      .cls-123 {
        fill: #5d322b;
      }

      .cls-124 {
        fill: #5d3530;
      }

      .cls-125 {
        fill: #522926;
      }

      .cls-126 {
        fill: #5d352f;
      }

      .cls-127 {
        fill: #603730;
      }

      .cls-128 {
        fill: #5d3632;
      }

      .cls-129 {
        fill: #bb7233;
      }

      .cls-130 {
        fill: #a46e36;
      }

      .cls-131 {
        fill: #926327;
      }

      .cls-132 {
        fill: #f5ce7c;
      }

      .cls-133 {
        fill: #311313;
      }

      .cls-134 {
        fill: #351515;
      }

      .cls-135 {
        fill: #f9f8f8;
      }

      .cls-136 {
        fill: #e9e2e2;
      }

      .cls-137 {
        fill: #e8e0e0;
      }
    </style>
  </defs>
  <g>
    <path class="cls-1" d="M102.26,244.13a9.74,9.74,0,0,1-8.79-5.72,17.47,17.47,0,0,1-1.57-7.47,47.35,47.35,0,0,1,4.15-20.74c1.43-3.36,3-6.74,4.51-10.07a28,28,0,0,1,1.44-4.49l.37-1,.47-1.26a45,45,0,0,1-18.41,9.32,27.14,27.14,0,0,1-6.88.9c-5.77,0-11.5-1.94-17-5.77a97.4,97.4,0,0,1-9.39-7.54,1.75,1.75,0,0,0-1.34-.59,5.18,5.18,0,0,0-1.13.16l-.16,0a16.55,16.55,0,0,0-4,1.49c-1.87,1.07-2.13,2-2.23,2.59a3.62,3.62,0,0,0,.51.66c.09.1.38.36.59.55l0,0,.32.19,2,1.22.14.08a16.84,16.84,0,0,0,3.94,1.78,22.22,22.22,0,0,1,7.49,3.81,9.25,9.25,0,0,1,1.45,14,12.34,12.34,0,0,1-9.55,4.59,14,14,0,0,1-6.61-1.75l-.13-.07a29.59,29.59,0,0,1-6.1-4.5,50.29,50.29,0,0,1-4.68-4.78,30,30,0,0,1-7.38-12.82,17.33,17.33,0,0,1,4.19-16.78,29.17,29.17,0,0,1,20.91-9.56h.36a22.78,22.78,0,0,1,12.33,4c1.85,1.19,3.47,2.45,5,3.68.77.6,1.55,1.21,2.34,1.79a.71.71,0,0,1,.14.1,19,19,0,0,0,4.28,2.46,9.59,9.59,0,0,0,3.27.58,9.27,9.27,0,0,0,2.1-.24l.17,0a23.48,23.48,0,0,0,9.13-4.05c3.55-2.62,4.67-5.86,3.51-10.18l0-.11c-.09-.3-.17-.6-.24-.91,0-.07,0-.14,0-.2s-.1,0-.17-.06A81.78,81.78,0,0,1,81.4,160a36.69,36.69,0,0,0-3.16,4.66,9.35,9.35,0,0,1-8.4,5.18,10,10,0,0,1-1.54-.13l-6-.75c-3.24-.39-6.59-.8-9.92-1.26-4.76-.66-9.57-1.38-14.22-2.08l-5-.75L32,165l-1.71.3a9.45,9.45,0,0,1-.23,1.23,9,9,0,0,1-5.68,6.05,10.28,10.28,0,0,1-4.42,1.1c-2.59,0-6.13-1.06-8.26-6.11l-.3-.66a19.1,19.1,0,0,1-3.56-7.4,12.27,12.27,0,0,1-1.34-1.62,9.36,9.36,0,0,1-1.3-2.15A8,8,0,0,1,4,151.44V149.5a8,8,0,0,1,1.25-4.3c.12-.22.24-.45.38-.67a11,11,0,0,1,1.34-4,12.62,12.62,0,0,1,.39-2,.56.56,0,0,1,0-.12A12.71,12.71,0,0,1,16,129.82l.66-.17a12.88,12.88,0,0,1,4.72-.08A23.65,23.65,0,0,1,24,128.7a18.23,18.23,0,0,1-1.26-6.79,11.79,11.79,0,0,1,1.53-6c0-.09-.05-.19-.08-.29a8,8,0,0,1-4.65-5.36,12.49,12.49,0,0,1-.39-3.21,8.34,8.34,0,0,1-.81-8.75c.16-.39.33-.77.49-1.15a8.92,8.92,0,0,1,.66-7.41s0,.07-.06.14l.06-.14a22.25,22.25,0,0,1,7.65-9.08,42.26,42.26,0,0,1,17-7,50.94,50.94,0,0,1,9.45-.91A42,42,0,0,1,71.86,76.8,37,37,0,0,1,78,80.45c0-.6,0-1.94,0-1.94-.08-5.45-.42-11.25-1.12-18.82-.09-.93-.17-1.86-.26-2.8a17.78,17.78,0,0,1-5.29-3.77,11.85,11.85,0,0,1-3.35-9.86l.06-.4c-2.86-3-5.56-5.88-8.19-8.88-5.27-6-9.36-11.06-12.85-15.91a9.21,9.21,0,0,1-2.15-5.2A8,8,0,0,1,51.34,4.4a18.33,18.33,0,0,1,3.36-.28l1.31,0,.87,0a2.23,2.23,0,0,0,.47,0,14.58,14.58,0,0,1,2-.14c4,0,7.49,1.82,10.24,5.42a184.8,184.8,0,0,0,14,15.91,13,13,0,0,1,4.71-.86,14.72,14.72,0,0,1,2.85.28,10.11,10.11,0,0,1,5.54,2.93A11.88,11.88,0,0,1,102,31.37a11,11,0,0,1,2.39,4.89,10.72,10.72,0,0,1,2.86,7.64,10.24,10.24,0,0,1-.53,3c2.23,1.87,4.48,3.68,6.65,5.41L115.53,54c1.88,1.53,3.66,3,5.47,4.25,1.06.75,2.11,1.51,3.17,2.28,2,1.45,3.9,2.82,5.83,4.1l.46.3q2.06,1.37,4.1,2.74a8.5,8.5,0,0,1,1.42.94,9.13,9.13,0,0,1,1.17.81L139.4,71a8.58,8.58,0,0,1,2.44,1.52c2.48,1.49,4.58,2.79,6.55,4.06s4.18,2.53,6.44,3.82l.72.41c3.72,2.12,8.61,4.84,13.65,7.21a9.62,9.62,0,0,1,6.06,9.76c0,1.54,0,3.11,0,4.78v2.22a8.1,8.1,0,0,1-4.72,7.37,5.49,5.49,0,0,1-.51.21,8.41,8.41,0,0,1-2.23.51q-.36,0-.72,0a8,8,0,0,1-3.09-.62c-3.22-1.35-6.17-2.93-9-4.46l-1.59-.85a345.57,345.57,0,0,1-50.18-32.49l.3.94c1.68,5.27,3.21,9.5,4.83,13.29a16.65,16.65,0,0,1,.8,9.35,8,8,0,0,1-3.23,5.3,8.21,8.21,0,0,1-4.88,3.86,16.25,16.25,0,0,0-1.66,7.83,35.28,35.28,0,0,0,1,7,15.23,15.23,0,0,1,2.35-4.25l.22-.27a9.51,9.51,0,0,1,14.28-.69,3,3,0,0,1,.25.25A21.67,21.67,0,0,1,121.9,124a91,91,0,0,1,4.33,12.61,45.18,45.18,0,0,1,3.28-4.18,23.09,23.09,0,0,1,8.29-6,14.12,14.12,0,0,1,5.39-1.14c5.95,0,10.51,4.19,11.37,10.43.35,2.54,1.38,10.09-3.34,16.86a9.15,9.15,0,0,1-1.15,1.62,45.24,45.24,0,0,1-2.84,3.87s-.74,1-.77,1l-.59.78-1.18,1.59-1.08,1.41a10.07,10.07,0,0,1-1.29,1.69,9.39,9.39,0,0,1-1.12,1.53,9.94,9.94,0,0,1-.78,1c-.18.25-.36.48-.55.71a10,10,0,0,1-1,1.25c-.69.95-1.42,1.88-2.19,2.77a9.6,9.6,0,0,1-1.22,1.48,11,11,0,0,1-1.17,1.46,9.68,9.68,0,0,1-1.14,1.26,15.9,15.9,0,0,1-1.12,1.2c1.3,3.47,1.37,8.09-1,11.52a8.56,8.56,0,0,1-.7.89A11.81,11.81,0,0,1,128.7,192a8.17,8.17,0,0,1-1.92,1.56h0c-1.93,4-4,7.9-6,11.48-.1.7-.22,1.35-.33,1.92a12.78,12.78,0,0,0-.23,1.36A69.93,69.93,0,0,1,116,230.85a28.48,28.48,0,0,1-4.46,8.44,13.61,13.61,0,0,1-4.87,3.84l-.14.06A10.52,10.52,0,0,1,102.26,244.13Zm-58.2-98.68a30.63,30.63,0,0,0,5.49.5,29.41,29.41,0,0,0,3.26-.18c-.23-.43-.43-.86-.62-1.29a22.27,22.27,0,0,1-4.49-1.67,20.65,20.65,0,0,1-6,1h-.43c.09.31.16.61.22.9l1.27.42A7.15,7.15,0,0,1,44.06,145.45Z"/>
    <path class="cls-2" d="M98.26,240.13a9.74,9.74,0,0,1-8.79-5.72,17.47,17.47,0,0,1-1.57-7.47,47.35,47.35,0,0,1,4.15-20.74c1.43-3.36,3-6.74,4.51-10.07A28,28,0,0,1,98,191.64l.37-1,.47-1.26a45,45,0,0,1-18.41,9.32,27.14,27.14,0,0,1-6.88.9c-5.77,0-11.5-1.94-17-5.77a97.4,97.4,0,0,1-9.39-7.54,1.75,1.75,0,0,0-1.34-.59,5.18,5.18,0,0,0-1.13.16l-.16,0a16.55,16.55,0,0,0-4,1.49c-1.87,1.07-2.13,2-2.23,2.59a3.62,3.62,0,0,0,.51.66c.09.1.38.36.59.55l0,0,.32.19,2,1.22.14.08a16.84,16.84,0,0,0,3.94,1.78,22.22,22.22,0,0,1,7.49,3.81,9.25,9.25,0,0,1,1.45,14,12.34,12.34,0,0,1-9.55,4.59,14,14,0,0,1-6.61-1.75l-.13-.07a29.59,29.59,0,0,1-6.1-4.5,50.29,50.29,0,0,1-4.68-4.78,30,30,0,0,1-7.38-12.82,17.33,17.33,0,0,1,4.19-16.78,29.17,29.17,0,0,1,20.91-9.56h.36a22.78,22.78,0,0,1,12.33,4c1.85,1.19,3.47,2.45,5,3.68.77.6,1.55,1.21,2.34,1.79a.71.71,0,0,1,.14.1,19,19,0,0,0,4.28,2.46,9.59,9.59,0,0,0,3.27.58,9.27,9.27,0,0,0,2.1-.24l.17,0a23.48,23.48,0,0,0,9.13-4.05c3.55-2.62,4.67-5.86,3.51-10.18l0-.11c-.09-.3-.17-.6-.24-.91,0-.07,0-.14,0-.2s-.1,0-.17-.06A81.78,81.78,0,0,1,77.4,156a36.69,36.69,0,0,0-3.16,4.66,9.35,9.35,0,0,1-8.4,5.18,10,10,0,0,1-1.54-.13l-6-.75c-3.24-.39-6.59-.8-9.92-1.26-4.76-.66-9.57-1.38-14.22-2.08l-5-.75L28,161l-1.71.3a9.45,9.45,0,0,1-.23,1.23,9,9,0,0,1-5.68,6.05,10.28,10.28,0,0,1-4.42,1.1c-2.59,0-6.13-1.06-8.26-6.11l-.3-.66a19.1,19.1,0,0,1-3.56-7.4,12.27,12.27,0,0,1-1.34-1.62,9.36,9.36,0,0,1-1.3-2.15A8,8,0,0,1,0,147.44V145.5a8,8,0,0,1,1.25-4.3c.12-.22.24-.45.38-.67a11,11,0,0,1,1.34-4,12.62,12.62,0,0,1,.39-2,.56.56,0,0,1,0-.12A12.71,12.71,0,0,1,12,125.82l.66-.17a12.88,12.88,0,0,1,4.72-.08A23.65,23.65,0,0,1,20,124.7a18.23,18.23,0,0,1-1.26-6.79,11.79,11.79,0,0,1,1.53-6c0-.09-.05-.19-.08-.29a8,8,0,0,1-4.65-5.36,12.49,12.49,0,0,1-.39-3.21,8.34,8.34,0,0,1-.81-8.75c.16-.39.33-.77.49-1.15a8.92,8.92,0,0,1,.66-7.41s0,.07-.06.14l.06-.14a22.25,22.25,0,0,1,7.65-9.08,42.26,42.26,0,0,1,17-7,50.94,50.94,0,0,1,9.45-.91A42,42,0,0,1,67.86,72.8,37,37,0,0,1,74,76.45c0-.6,0-1.94,0-1.94-.08-5.45-.42-11.25-1.12-18.82-.09-.93-.17-1.86-.26-2.8a17.78,17.78,0,0,1-5.29-3.77,11.85,11.85,0,0,1-3.35-9.86l.06-.4c-2.86-3-5.56-5.88-8.19-8.88-5.27-6-9.36-11.06-12.85-15.91a9.21,9.21,0,0,1-2.15-5.2A8,8,0,0,1,47.34.4,18.33,18.33,0,0,1,50.7.12L52,.14l.87,0a2.23,2.23,0,0,0,.47,0,14.58,14.58,0,0,1,2-.14c4,0,7.49,1.82,10.24,5.42a184.8,184.8,0,0,0,14,15.91,13,13,0,0,1,4.71-.86,14.72,14.72,0,0,1,2.85.28,10.11,10.11,0,0,1,5.54,2.93A11.88,11.88,0,0,1,98,27.37a11,11,0,0,1,2.39,4.89,10.72,10.72,0,0,1,2.86,7.64,10.24,10.24,0,0,1-.53,3c2.23,1.87,4.48,3.68,6.65,5.41L111.53,50c1.88,1.53,3.66,3,5.47,4.25,1.06.75,2.11,1.51,3.17,2.28,2,1.45,3.9,2.82,5.83,4.1l.46.3q2.05,1.36,4.1,2.74a8.5,8.5,0,0,1,1.42.94,9.13,9.13,0,0,1,1.17.81L135.4,67a8.58,8.58,0,0,1,2.44,1.52c2.48,1.49,4.58,2.79,6.55,4.06s4.18,2.53,6.44,3.82l.72.41c3.72,2.12,8.61,4.84,13.65,7.21a9.62,9.62,0,0,1,6.06,9.76c0,1.54,0,3.11,0,4.78v2.22a8.1,8.1,0,0,1-4.72,7.37,5.49,5.49,0,0,1-.51.21,8.41,8.41,0,0,1-2.23.51q-.36,0-.72,0a8,8,0,0,1-3.09-.62c-3.22-1.35-6.17-2.93-9-4.46l-1.59-.85A345.57,345.57,0,0,1,99.16,70.49l.3.94c1.68,5.27,3.21,9.5,4.83,13.29a16.65,16.65,0,0,1,.8,9.35,8,8,0,0,1-3.23,5.3A8.21,8.21,0,0,1,97,103.23a16.25,16.25,0,0,0-1.66,7.83,35.28,35.28,0,0,0,1,7,15.23,15.23,0,0,1,2.35-4.25l.22-.27a9.51,9.51,0,0,1,14.28-.69,3,3,0,0,1,.25.25A21.67,21.67,0,0,1,117.9,120a91,91,0,0,1,4.33,12.61,45.18,45.18,0,0,1,3.28-4.18,23.09,23.09,0,0,1,8.29-6,14.12,14.12,0,0,1,5.39-1.14c5.95,0,10.51,4.19,11.37,10.43.35,2.54,1.38,10.09-3.34,16.86a9.15,9.15,0,0,1-1.15,1.62,45.24,45.24,0,0,1-2.84,3.87s-.74,1-.77,1l-.59.78-1.18,1.59-1.08,1.41a10.07,10.07,0,0,1-1.29,1.69,9.39,9.39,0,0,1-1.12,1.53,9.94,9.94,0,0,1-.78,1c-.18.25-.36.48-.55.71a10,10,0,0,1-1,1.25c-.69.95-1.42,1.88-2.19,2.77a9.6,9.6,0,0,1-1.22,1.48,11,11,0,0,1-1.17,1.46,9.68,9.68,0,0,1-1.14,1.26,15.9,15.9,0,0,1-1.12,1.2c1.3,3.47,1.37,8.09-1,11.52a8.56,8.56,0,0,1-.7.89A11.81,11.81,0,0,1,124.7,188a8.17,8.17,0,0,1-1.92,1.56h0c-1.93,4-4,7.9-6,11.48-.1.7-.22,1.35-.33,1.92a12.78,12.78,0,0,0-.23,1.36A69.93,69.93,0,0,1,112,226.85a28.48,28.48,0,0,1-4.46,8.44,13.61,13.61,0,0,1-4.87,3.84l-.14.06A10.52,10.52,0,0,1,98.26,240.13Zm-58.2-98.68a30.63,30.63,0,0,0,5.49.5,29.41,29.41,0,0,0,3.26-.18c-.23-.43-.43-.86-.62-1.29a22.27,22.27,0,0,1-4.49-1.67,20.65,20.65,0,0,1-6,1h-.43c.09.31.16.61.22.9l1.27.42A7.15,7.15,0,0,1,40.06,141.45Z"/>
    <g>
      <path class="cls-3" d="M8.18,145.48a2,2,0,0,1,.48-1c.21,0,.28.09.32.26a5.82,5.82,0,0,0,.23,3.88.7.7,0,0,1-.05.32.18.18,0,0,1-.23.09l0,0c-.51-.38-.38-1.13-.89-1.51v-.21C8.27,146.66,8,146,8.18,145.48Z"/>
      <path class="cls-4" d="M8.18,145.48c0,.58.23,1.2-.18,1.75V145.5A.37.37,0,0,1,8.18,145.48Z"/>
      <path class="cls-5" d="M115.52,156.7l-.08-.43a9.45,9.45,0,0,0-.84-2.85c-1.52-4.31-3-8.65-4.6-12.92,0-.13,0-.29-.25-.34A70.33,70.33,0,0,1,106.23,153a1.27,1.27,0,0,0,.3,1.5,64.86,64.86,0,0,1,6.54,9c2.52,4,4.62,8.15,7,12.16a3.13,3.13,0,0,1,.5,2c0,.35,0,.79-.61.53-.34-.15-.22.14-.21.27s0,.43,0,.65c0,.57-.16,1-.78.36a2.35,2.35,0,0,0-.56-.31c-.33-.48-.1-1,0-1.44a4.69,4.69,0,0,0-.53-3.71c-3.57-6.2-7.73-12-11.71-17.92-.25-.38-.47-1-1.15-.52s-.34.94,0,1.44a144.69,144.69,0,0,1,11.06,18.3,4.33,4.33,0,0,1,.37,3.41,128.55,128.55,0,0,1-6.38,16c0,.1-.07.21-.18.25.52-.37.35-1.35,1.25-1.38a.75.75,0,0,1-.1.9c-.9,1.39-1.47,3-2.33,4.35-.35.39-.48.91-.81,1.31a.51.51,0,0,1-.45,0c-.46-.54-.61-.16-.76.26s0,.73-.46.76a.79.79,0,0,1-.75-.67c-.17-.8-1.18-.92-1.31-1.72h0c1.22-3.54,2.53-7,3.89-10.55s2.7-6.85,3.69-10.4c.15-.52.17-1.05.35-1.56a1.12,1.12,0,0,0-.44-1.24c-2.34-2.17-4.39-4.62-6.65-6.87-1.78-1.77-3.6-3.5-5.26-5.38a27.18,27.18,0,0,0-6.74-5.43,80.44,80.44,0,0,1-10.26-7.56c-1.54-1.28-3.11-2.53-4.54-3.93a1.28,1.28,0,0,0-1.58-.16A8,8,0,0,0,74.54,147a39.51,39.51,0,0,0-7.27,9.25c-.84,1.4-.92,1.38-2.58,1.18-2.06-.25-4.11-.47-6.16-.73-2.58-.31-5.15-.66-7.73-1-2.22-.31-4.44-.63-6.66-.91s-4.36-.64-6.55-.94c-2.6-.36-5.19-.82-7.79-1.16-.45-.27-.57-.78-.88-1.15a2.54,2.54,0,0,1-.16-.28c-.72-1.44-.64-1.58.95-1.73a.52.52,0,0,0,.35-.14c0-.42-.38-.69-.56-1.06s-.68-.75-.29-1.23.87-.17,1.29-.06c.76.21,1.5.46,2.23.74a14.13,14.13,0,0,0,2.27.86,31.26,31.26,0,0,0,8.17,2.92,41.62,41.62,0,0,0,10.54,1.23c7.21-.1,12.33-5.17,12.35-12.39a8.37,8.37,0,0,0,0-1,18.77,18.77,0,0,1-2.69,5.32,13.27,13.27,0,0,1-2.77,2.83c-.3.23-.6.54-1,.39-.3-.67.35-.86.65-1.18a19.22,19.22,0,0,0,5.17-8.51c.43-1.72.52-3.52,1-5.23a12.3,12.3,0,0,0,.52-2.07,1.66,1.66,0,0,1,.81-.67,24.37,24.37,0,0,0,9.28-9,19.48,19.48,0,0,0,2.63-9.53c0-.18,0-.36,0-.54a8.89,8.89,0,0,1,1.28-5.49,12.35,12.35,0,0,0,1-11.07A10.81,10.81,0,0,0,81,93c-.18-.31-.54-.63-.17-1a33.55,33.55,0,0,0,1.18-8.57c.1-2.43.18-4.87.14-7.31q-.12-6.93-.58-13.84c-.23-3.45-.58-6.9-.86-10.35a36.74,36.74,0,0,1-.38-4.57.65.65,0,0,1,.83-.42h0A2.72,2.72,0,0,0,83,46.55c.75-.1,1.17.45,1.61.89a6.94,6.94,0,0,1,1.48,1.67c.19,5.57,1.52,10.93,2.94,16.26A204,204,0,0,0,95.5,85c.36.94.74,1.87,1.16,2.77a6,6,0,0,1,.47,3c0,.48-.18.82-.72.48s-.65,0-.71.45c-.08.64.08,1.38-.57,1.85a.54.54,0,0,1-.28-.19c-.66-.88-.91-.88-1.56,0-.51.69-1,1.36-1.5,2.09-.16.27-.31.6-.74.39a1.06,1.06,0,0,1,.2-1,18.05,18.05,0,0,1,2.88-4A3.05,3.05,0,0,0,95,88a20.77,20.77,0,0,0-1.77-5.07,95.76,95.76,0,0,1-5.65-18.38c-.83-3.71-1.47-7.46-2.19-11.21a12.12,12.12,0,0,0-.16,4.16c.62,6.18,1.71,12.29,2.62,18.43A49.21,49.21,0,0,1,88.6,86c-.22,3.8-.48,7.59-1,11.36a62.56,62.56,0,0,1-1.14,8.16c0,.15.22,0,.08,0s-.07,0-.06-.09a13.75,13.75,0,0,1,1.3-4c.67-1.43,1.39-2.84,2.11-4.24.21-.4.37-.89,1-.89.32.47,0,.81-.23,1.17a35.37,35.37,0,0,0-3.6,11.24,19.56,19.56,0,0,0,.22,5.45,44.87,44.87,0,0,0,3,11.33c.29.71.86,1.33.76,2.18-.68.38-.78-.3-1-.61a51.3,51.3,0,0,1-4.55-9.94,12,12,0,0,1-.62-3.3A23.49,23.49,0,0,0,90,128.62a38.78,38.78,0,0,0,2.62,3,1.89,1.89,0,0,0,1.06.68c1.08,1.2,1.85,2.62,2.85,3.88a63.57,63.57,0,0,0,4.71,5c.37.37.57.3.74-.2a12.8,12.8,0,0,0,.32-2.55c.48-3.58.49-7.2.7-10.81a25.44,25.44,0,0,1,1.33-7.23c0-.14.12-.26.18-.39,1-2.08,2-2.28,3.57-.61a16.39,16.39,0,0,1,2.84,5.14,106.09,106.09,0,0,1,4.41,14.1,1.22,1.22,0,0,1,0,1c-.73.1-.64-.55-.74-.92-.57-2.07-1.15-4.15-1.8-6.19a57.9,57.9,0,0,0-4.51-11.14,8.85,8.85,0,0,0-1.18-1.67c-.24-.27-.51-.56-.91-.36a1.59,1.59,0,0,0-.94,1.35.7.7,0,0,0,.56.8,3.79,3.79,0,0,1,2.38,2.31,56.93,56.93,0,0,1,3.59,10.46c1.54,5.41,2.87,10.89,5,16.11a17.41,17.41,0,0,0,.93,1.95c.27.48.11-.22.27-.14.44-.16.43.19.5.45a4.06,4.06,0,0,0,.53,1.47c.23.62-.15,1.1-.38,1.62-.07.16-.29.37-.39.31-.83-.54-.69.22-.82.59-.29.82-.47.89-1.22.41A2.76,2.76,0,0,0,115.52,156.7Z"/>
      <path class="cls-6" d="M85.94,49c-1-.69-1.63-1.84-2.77-2.39-1.58-4-4.71-6.39-8.39-8.22a1,1,0,0,1-.5-.39C70,33.64,65.8,29.28,61.79,24.71c-4.37-5-8.6-10.07-12.47-15.45-.22-.31-.53-.57-.57-1,1.61-.21,3.21,0,4.82-.09.46,0,.67.34.88.68a33.38,33.38,0,0,0,4.61,5.65c4,4.14,8.33,8,12.7,11.73A68.55,68.55,0,0,1,79,33.56a4,4,0,0,1-.16,1.69c0,.35-.13.7-.15,1.06-.13,2,.5,3.13,2.65,1.71.28-.18.64-.46,1-.14s.12.6,0,.91c-.18.73-.5,1.52.18,2.11s1.43.11,2.14-.07c.54-.14,1.15-.72,1.6-.25s-.26.94-.45,1.4c-.46,1.15-.09,1.72,1.14,1.77.94,0,1.81-.47,2.76-.31,2,1.45,3.7,3.16,5.55,4.74q7.45,6.34,15.16,12.38Q125.49,72.31,141.33,83C148,87.49,154.78,91.9,161.7,96c1,.63,1.65,1.26,1.45,2.52-.13.77.08,1.57-.1,2.35-3.43-1.44-6.68-3.25-10-5a336.66,336.66,0,0,1-57.53-38.6c-2.92-2.43-5.75-5-8.65-7.42-.1-.09-.33-.81-.59-.07C85.76,49.75,86.26,49.19,85.94,49Z"/>
      <path class="cls-7" d="M132.26,155.31a.07.07,0,0,1,0,.09h0c-.2.22-.59.29-.54.7a.23.23,0,0,1-.11.16c-.25.2-.53.38-.59.73l-.2.14a2.85,2.85,0,0,0-.7,1.05h0c-.26.21-.55.38-.61.75a.09.09,0,0,1-.06.12,1.34,1.34,0,0,0-.58.72,32,32,0,0,1-2.66,3.37,1.49,1.49,0,0,0-.58.71l-.5.59a2.91,2.91,0,0,0-1,1.26v0a7.78,7.78,0,0,0-.68.59,10.28,10.28,0,0,1-2.95,2.43c-1.18.55-1.57.43-2.08-.73a4.5,4.5,0,0,1-.41-1.65c.69-1.54,1.14-3.17,1.67-4.76a151,151,0,0,1,7.35-18.33,40.87,40.87,0,0,1,6.23-9.86c1-1.05,2-2.12,3.51-2.24.37.41,0,.66-.22.91a84.75,84.75,0,0,0-6.91,11,7,7,0,0,0-.64,1.42,6.37,6.37,0,0,1,1-1.87,3.37,3.37,0,0,0,.71-1,12,12,0,0,0,.79-1.21c1.62-2.62,3.31-5.2,5-7.79a3.51,3.51,0,0,0,.47-.79c.19-.41.37-.82.88-.93a3.83,3.83,0,0,1,2.36.26c.46.51,0,.85-.25,1.21a149,149,0,0,0-7.19,13.12c-.13.29-.25.58-.36.88a37.1,37.1,0,0,1,2-4.07,3.31,3.31,0,0,0,.85-1.27c.22-.31.22-.72.47-1a1.26,1.26,0,0,0,.44-1,1.74,1.74,0,0,1,.57-.95,1.76,1.76,0,0,0,.67-1,22.26,22.26,0,0,1,3.37-5.59,3.62,3.62,0,0,1,1.64,2.39c0,.13-.07.4.23.21a2.81,2.81,0,0,1-.23,2.72c-2.36,3.71-4.87,7.31-7.38,10.92q3.3-4.68,6.46-9.44c.2-.31.27-.88.9-.66a2.11,2.11,0,0,1,.23,1.08,12.78,12.78,0,0,1-2.17,5.73c-.16.27-.45.45-.49.8a39.12,39.12,0,0,1-2.88,4c-.28.25-.62.46-.73.85s-.55.51-.66.89-.54.49-.65.87-.55.49-.65.87a4.5,4.5,0,0,0-.86,1.08c-.3.19-.33.54-.5.82h0C132.6,154.75,132.31,154.93,132.26,155.31Z"/>
      <path class="cls-5" d="M74.55,88.4l.21.26c0,.4-.35.42-.62.44-6,.61-7.53,6-7,10.36.07.53.13,1.06.21,1.6,0,.24,0,.54-.2.68s-.53-.13-.69-.33c-.84-1.08-1.67-2.16-2.58-3.18a27.67,27.67,0,0,0-8.76-7c-2.72-1.29-5.53-1.8-8.4-.47a7.54,7.54,0,0,0-4.26,4.71c-1,3.17-.64,6.31,0,9.46.12.58.64,1.4.12,1.7s-1.06-.52-1.49-.95a16,16,0,0,0-3.29-2.57c-4.17-2.37-6.76-.72-8.49,3.27a7.45,7.45,0,0,0-.43,1.88,2.27,2.27,0,0,1-.45,1.3c-.28,0-.37-.16-.43-.38a19.79,19.79,0,0,1-.13-7.93c-.3.49-.83,1-1.19,1.63-.12.21-.29.48-.57.37s-.3-.48-.25-.76A8.68,8.68,0,0,1,27,99.7,10.61,10.61,0,0,1,30,96c.29-.2.55-.49,1-.33.25.48-.15.74-.41,1a26.12,26.12,0,0,0-2.5,2.86c.16-.07.25-.3.46-.42s.58-.37.89-.15.16.53.11.8a5.94,5.94,0,0,0-.1,2.1A8.1,8.1,0,0,1,34.21,100a14.28,14.28,0,0,1,5.19.64,15.5,15.5,0,0,1,.13-3.12c1.63-8.45,9.72-11.05,16.1-8.4a22.66,22.66,0,0,1,6,3.94c1.61,1.4,1.71,1.35,2.42-.57a10.26,10.26,0,0,1,5.12-5.3c1.86-1,1.28-1.1.09-2A33.35,33.35,0,0,0,53,78.79c-8.81-1-16.83,1.32-24.35,5.76-.25.15-.5.28-.75.41a26.64,26.64,0,0,1,13.79-3.29,9.86,9.86,0,0,1,2.22.4c.36.1.9.21.84.67s-.59.46-1,.53-1,0-1.5.11a29.41,29.41,0,0,0-16.84,9.06c-.24.25-.43.61-.88.48-.3-.51.13-.83.35-1.14a20.34,20.34,0,0,1,12.46-8.53,31.76,31.76,0,0,1,4-.65,28.08,28.08,0,0,0-9.79,2.71,49.26,49.26,0,0,0-7.49,4.39c-.35.25-.75.79-1.21.43s0-.88.15-1.27a14,14,0,0,1,4.62-5.39,35.58,35.58,0,0,1,13.13-5.59,37.59,37.59,0,0,1,12.24-.69A33,33,0,0,1,64.65,80.4,26.72,26.72,0,0,1,74.06,88C74.2,88.21,74.3,88.39,74.55,88.4Z"/>
      <path class="cls-8" d="M163.05,100.91c0-1.22.31-2.61-.17-3.6s-1.94-1.36-3-2A543.94,543.94,0,0,1,114.69,64.2q-8.67-6.6-17-13.65c-2.67-2.27-5.39-4.49-7.91-6.92.19-.62.61-.67,1.13-.44,4.32,4,8.87,7.69,13.46,11.35,2.65,2.11,5.25,4.32,8,6.27,3.07,2.17,6.07,4.45,9.21,6.52,1.53,1,3.07,2,4.59,3.06.11.07.15.22.22.34a5,5,0,0,0,.82.45l.47.41c.25,0,.36.41.68.28L132,74.4a4.51,4.51,0,0,0,.81.44c2.43,1.46,4.86,2.94,7.23,4.47s5,3,7.54,4.46c4.75,2.7,9.56,5.33,14.52,7.65a1.67,1.67,0,0,1,1.16,1.83c-.09,2.51,0,5,0,7.53,0,0,0,.09,0,.1A.45.45,0,0,1,163.05,100.91Z"/>
      <path class="cls-9" d="M28.46,109.53A11.3,11.3,0,0,1,30.32,104c1.88-2.67,4.65-2.81,7.3-1.37a13.33,13.33,0,0,1,2.64,1.82c.76.7,1.43,1.51,2.24,2.18a29.57,29.57,0,0,1-.89-8,9.44,9.44,0,0,1,2.25-6.13,8.61,8.61,0,0,1,9-2.42,20.42,20.42,0,0,1,8.4,5,56.54,56.54,0,0,1,5.9,6.47c-.1-.74-.23-1.48-.3-2.22-.29-3.22.12-6.24,2.61-8.61A7.65,7.65,0,0,1,74,88.85c.28,0,.59.07.8-.19.86.33,1.8.34,2.66.7a11.79,11.79,0,0,1,3.3,2.47.17.17,0,0,1,.1.2s0,0,0,0c3.24,4.59,2.68,10.75-.4,15.07a2.36,2.36,0,0,0-.49,1.58,25,25,0,0,1-1,8.88c-2,5.84-5.93,9.92-11.11,13l-.83.48c-.06.21-.17.34-.41.25A51.57,51.57,0,0,1,61.63,133c-.42-.2-.64-.48-.42-1a22.89,22.89,0,0,0,7-2.91c5.36-3.59,9.25-8.24,10.38-14.79a13.9,13.9,0,0,0,.22-5.34,3.18,3.18,0,0,1,.72-2.61c2.78-4,3.33-8.25,1.06-12.69A7.07,7.07,0,0,0,77.4,90.5a6.62,6.62,0,0,0-9.46,5.89,19.58,19.58,0,0,0,.63,6.51,2.68,2.68,0,0,1,.13.74.73.73,0,0,1-.47.77c-.33.12-.55-.1-.72-.33-.53-.73-1-1.47-1.57-2.19a33.82,33.82,0,0,0-10.3-9.63,9.48,9.48,0,0,0-8-1.07A6.87,6.87,0,0,0,43,96.49c-.78,3.5-.15,6.91.78,10.29,0,.1.07.2.09.31.11.53.6,1.18-.05,1.57s-1-.35-1.45-.76a7.29,7.29,0,0,0-1.76-1.83c-.51-.34-.88-.84-1.39-1.19a10.73,10.73,0,0,0-3.65-2,3.44,3.44,0,0,0-3.64.89c-2.43,2.4-3,5.91-1.5,9.44.37.86.8,1.68,1.24,2.5a6.07,6.07,0,0,0,.65,1c.26.32.49.66.75,1a41.25,41.25,0,0,0,2.85,3.22c.31.32.63.64.54,1.11-.19,1,0,2-.23,3a14.15,14.15,0,0,0,.27,4.59,1.2,1.2,0,0,0,1.23,1.18,1.24,1.24,0,0,0,.27,0c3.14-.28,5.92-1.13,7.28-4.4a27.06,27.06,0,0,1,2.2-4.07c1.77-2.85,4.54-3.89,7.71-4.25,1.46-.16,2.93-.23,4.39-.42,2.71-.35,4.53-2,6.12-4,.34-.44.35-.76-.19-1a1.77,1.77,0,0,1-.53-.36c-.22-.2-.46-.39-.25-.73a.65.65,0,0,1,.74-.31,1.8,1.8,0,0,1,.51.17,7.14,7.14,0,0,0,3,.93c.46,0,.87.26.8.81a.65.65,0,0,1-.74.56.48.48,0,0,1-.17,0c-1.29-.37-1.92.43-2.54,1.3a1,1,0,0,1-.2.26c-2,1.46-2.76,3.6-3.25,5.92a8.08,8.08,0,0,1-1.46,3.09c-.21.28-.34.77-.88.57a1.41,1.41,0,0,1-.12-1.17,21.26,21.26,0,0,0,1.57-3.83,3.9,3.9,0,0,0,.16-1.4,15.78,15.78,0,0,1-4.73.91c-1.31.16-2.63.27-3.94.48a6.76,6.76,0,0,0-5.11,3.7c-.49.92-.94,1.86-1.38,2.8-.21.41-.41.83-.65,1.22-.41.66-.16.92.53.9a32.44,32.44,0,0,0,6.07-.25,1.69,1.69,0,0,1,1.44.08c.21.33.06.58-.17.82a7.18,7.18,0,0,1-3.39.61c-1.5,0-3,0-4.68,0a8.14,8.14,0,0,0,2.77,1.55A16.53,16.53,0,0,0,53,132.27a2,2,0,0,1,1.2.4c.19.24.35.49.1.78-3.48-.4-6.87-1.06-9.53-3.6-.43-.4-.64-.07-.91.1a12.26,12.26,0,0,1-6.5,1.9,1.51,1.51,0,0,1-1.69-1.27,12.56,12.56,0,0,1-.46-2.85c0-.55-.21-.7-.75-.78-4.87-.81-7.73-4.17-7.73-9,0-2.13,1-3.16,3.15-3.27a17,17,0,0,0-1.15-2.71,1.59,1.59,0,0,0-.2-1C28.39,110.45,28,110,28.46,109.53Z"/>
      <path class="cls-10" d="M29.72,152.59a8.15,8.15,0,0,1,3.15.28c5.42.82,10.84,1.67,16.28,2.35,4.8.6,9.6,1.27,14.4,1.89a13.62,13.62,0,0,1,1.91.22c.68.18,1-.24,1.36-.77a44.73,44.73,0,0,1,4.5-6.52c1.55-1.77,3.05-3.63,5.3-4.62a1.6,1.6,0,0,1,2,.33c5.45,4.85,11.06,9.49,17.48,13a16.81,16.81,0,0,1,4.1,3.93c1.94,2.16,4.11,4.1,6.07,6.24s3.74,3.95,5.68,5.86a1.59,1.59,0,0,1,.41,1.66c-.93,4.21-2.65,8.15-4.16,12.17-1.19,3.18-2.52,6.31-3.48,9.57-.09.27-.15.47-.46.48a23,23,0,0,1,1.65-5.3c1.74-4.77,3.66-9.47,5.33-14.27.79-2.28.77-3.92-1.23-5.73-3.42-3.1-6.49-6.59-9.71-9.91,0,0-.13,0-.31-.1a42,42,0,0,1,.43,4.33c0,5.79-1.61,10.95-6.05,15A37,37,0,0,1,78.42,191c-6.43,1.66-12.08-.06-17.35-3.71a86.83,86.83,0,0,1-8.55-6.87,10.12,10.12,0,0,0-9.8-2.28,24.19,24.19,0,0,0-6.11,2.28c-3.34,1.87-5.69,4.58-6.3,8.48a8.39,8.39,0,0,0,2.5,7.15c.53.59,1.14,1.09,1.71,1.63a.35.35,0,0,1-.06.46,1,1,0,0,1-.88-.29c-2.57-2.22-4.21-4.91-4.09-8.41a10.5,10.5,0,0,1,3.07-6.72c3.09-3.46,7.25-4.72,11.6-5.57,4-.8,7,1.1,9.9,3.6a62.46,62.46,0,0,0,10.44,7.74,18.39,18.39,0,0,0,14.24,1.67,37,37,0,0,0,13.79-6.84,17.79,17.79,0,0,0,7-12.53,24.63,24.63,0,0,0-.16-6.53,4.67,4.67,0,0,0-1.58-3,17.35,17.35,0,0,0-2.32-2.07c.23.76.45,1.34.64,1.92,1.45,4.56,1.63,9.08-.34,13.56a17.57,17.57,0,0,1-5.87,7.16,33.14,33.14,0,0,1-13,5.73c-5.41,1.13-10.3-.19-14.83-3.17-2.31-1.52-4.41-3.33-6.63-5-2.54-1.85-5.16-3.52-8.36-4a11.23,11.23,0,0,0-3.52,0c-.72.09-1.39.35-2.09.49A9.26,9.26,0,0,0,38,177.05a19.68,19.68,0,0,0-7.72,5.68,9,9,0,0,0-1.66,7.73,19.09,19.09,0,0,0,4.55,8.3c.36.51.88,1,.45,1.69A22.14,22.14,0,0,1,28,191a9.44,9.44,0,0,1,2.24-9.3A21.05,21.05,0,0,1,45.5,174.6a14.66,14.66,0,0,1,8.22,2.76c2.45,1.57,4.64,3.48,7,5.19a27,27,0,0,0,6.22,3.55,17.56,17.56,0,0,0,10,.7,31.28,31.28,0,0,0,12.27-5.44c6.23-4.6,8.52-11.22,6.51-18.7-.07-.24-.14-.48-.2-.72a7.89,7.89,0,0,0-3.84-5.32,92.43,92.43,0,0,1-13.2-10.31,1.68,1.68,0,0,0-2.27-.23,16.86,16.86,0,0,0-4.41,4,46.06,46.06,0,0,0-4.7,6.81,1.38,1.38,0,0,1-1.6.83c-5.36-.69-10.74-1.28-16.1-2-6.7-.93-13.39-2-20.09-3C29.34,152.48,29.5,152.48,29.72,152.59Z"/>
      <path class="cls-11" d="M59.46,147.87a9.07,9.07,0,0,0,3.41-3,15.9,15.9,0,0,0,2.87-5.61,6.67,6.67,0,0,1,.31-.78h.3c0,1,.07,1.95,0,2.91-.45,5.06-2.9,8.73-7.65,10.73a12.5,12.5,0,0,1-4.27.9,43.17,43.17,0,0,1-17.88-3.3,2.92,2.92,0,0,1-1.62-1c.93-.29,1.67.55,2.57.44a.38.38,0,0,1,.44,0,3.42,3.42,0,0,0,1.85.46A37.69,37.69,0,0,0,58.35,148C58.7,147.88,59.05,147.58,59.46,147.87Z"/>
      <path class="cls-10" d="M28.46,109.53a3.29,3.29,0,0,0,.23,1.49c.08.21.17.41-.18.43a18.91,18.91,0,0,1-1-9.28c-.89.93-1.15,2.09-2,3.11a7.6,7.6,0,0,1,.42-4,23.55,23.55,0,0,1,1.77-3.51c-2,1.76-3.24,4.13-4.53,6.45a6.7,6.7,0,0,1,.37-3.67,19.27,19.27,0,0,1,7.15-9.93c.51-.39,1-.76,1.56-1.14,0-.07.13-.15,0-.23s-.18,0-.26,0a26.72,26.72,0,0,0-8.32,6.84c-.52.59-1,1.21-1.52,1.81-.18.21-.35.57-.67.37s0-.54,0-.77A25.15,25.15,0,0,1,28,87.94c.18-.16.37-.3.6-.48-.37-.3-.55-.06-.72.05-1.31.87-2.6,1.77-3.93,2.62-.45.28-1,1-1.47.51s0-1.09.25-1.59a14.26,14.26,0,0,1,4.93-5.84A34.17,34.17,0,0,1,41.53,77.5c7.84-1.48,15.56-1,22.88,2.52A24.81,24.81,0,0,1,74.55,88.4c-.33.39-.48.06-.65-.17-4.67-6.08-11-9.33-18.43-10.53a38.65,38.65,0,0,0-24.72,4.09,16.43,16.43,0,0,0-7.08,6.36,4.46,4.46,0,0,0-.74,2.08,53,53,0,0,1,9.3-5.51c3.29-1.34,6.64-2.5,10.26-2.32l.06.3c-.77.11-1.54.24-2.31.32a20.56,20.56,0,0,0-15.6,9.61,1,1,0,0,0-.07.31.76.76,0,0,1,0,.15c-.38.93-1,1.72-1.42,2.68,3.6-4.29,7.82-7.61,13.38-8.91.37-.09.85-.32,1,.2s-.33.6-.64.75a31.72,31.72,0,0,0-6.81,4.28,17.65,17.65,0,0,0-5.87,9,14.36,14.36,0,0,1,6-6.11c.47-.23,1.22-.76,1.53.3a.84.84,0,0,1-.75.48,10.35,10.35,0,0,0-4.91,7.34c.8-.7,1.16-1.77,2.14-2.46a20.46,20.46,0,0,0-.43,5.29A9.26,9.26,0,0,0,28.46,109.53Z"/>
      <path class="cls-10" d="M85.94,49c.35.18.09.63.38.83.71,8.27,3,16.17,5.51,24,1.51,4.74,3.15,9.43,5.1,14a9.07,9.07,0,0,1,.25,5c-.7-.33-.35-1.28-1.15-1.41a9.77,9.77,0,0,1-.88,3.39c-.14.28-.19.84-.66.67s-.09-.56,0-.85a1.6,1.6,0,0,0,0-.21c.06-.5.26-1.12-.24-1.39s-.74.42-1,.74c-3.78,5.28-6.32,11.09-6,17.66.6,11.58,5.45,21.3,13.77,29.31a1.75,1.75,0,0,0,.33.28,1.14,1.14,0,0,0,.3.09c.23-3,.78-6,.83-9a44.81,44.81,0,0,1,1-10.46,7.33,7.33,0,0,1,1.39-3,1.58,1.58,0,0,1,2.66-.14,13.49,13.49,0,0,1,2.85,4.51c2.64,5.94,4.22,12.23,5.77,18.51.92,3.72,1.77,7.46,2.43,11.23.36.39.58.79.15,1.27-.23.11-.36.11-.41-.22a4.82,4.82,0,0,0-.41-1.72,1.87,1.87,0,0,1-.49-1.16c-.73-3.21-1.26-6.45-2.29-9.59-.18-.54-.49-1.15,0-1.73a36.28,36.28,0,0,0-1.45-5.92A78.41,78.41,0,0,0,110,123a12.88,12.88,0,0,0-2.84-4.26,1,1,0,0,0-1.56,0c-1.38,1.38-1.69,3.21-2,5a77.06,77.06,0,0,0-.69,9.6,71.66,71.66,0,0,1-.83,7.87c0,.23.1.57-.2.66s-.49-.25-.68-.43a45.35,45.35,0,0,1-7.48-8.82,2.08,2.08,0,0,0-.27-.32c-.58-.25-.76-.82-1-1.3-.41-.71-.82-1.41-1.28-2.09-.23-.33-.58-.67-.26-1.14a11.24,11.24,0,0,0-1.09-2.78A54.33,54.33,0,0,1,87,113.34c-.65-5.27.87-10,2.91-14.71a13.66,13.66,0,0,0,1-2.24.44.44,0,0,1,.22-.43,23.37,23.37,0,0,0,2-2.66c.84-1.08,1.31-1.07,2.06.11.43-.53.22-1.17.29-1.76,0-.33-.19-.78.19-1s.61.24.89.44l.35.22A6.46,6.46,0,0,0,96.49,88a187.28,187.28,0,0,1-6.7-19.25,121,121,0,0,1-3.08-12.59A32.15,32.15,0,0,1,85.94,49Z"/>
      <path class="cls-8" d="M78.83,33.5C77,31.72,75.19,30,73.39,28.15c-2.76-2.77-5.93-5.07-8.73-7.79-3.75-3.63-7.75-7-10.53-11.56a1.06,1.06,0,0,0-1.08-.5l-4.3,0c1.91-.35,3.85.07,5.75-.21,2.12-.31,3.42.55,4.71,2.23a191,191,0,0,0,15.1,17.06c1.62,1.66,3.18,3.4,5,4.91a.89.89,0,0,1-.35,1.2Z"/>
      <path class="cls-12" d="M118.86,154.11c.17-.45-.22-.83-.15-1.27,1,.57.85-.57,1.23-1,.54.49.24,1.23.67,1.68.52,0,.19-.55.44-.75h0c.32-.28.27-.72.43-1.06,2.67-6.38,5.34-12.76,10-18a14.9,14.9,0,0,1,5.44-3.95c3-1.25,5.27-.17,5.7,3,.56,4.07.4,8.11-2.27,11.6-.05.09-.1.09-.15,0,.16-.94.91-1.59,1.22-2.46a17.53,17.53,0,0,0,.9-3.36c-.24-.33.12-.77-.2-1.08L137,145c-.66,1-1.32,2-2,2.92-.15.21-.24.54-.7.41a3.85,3.85,0,0,1,.87-1.52c2.38-3.35,4.69-6.75,6.88-10.22a2.49,2.49,0,0,0,.33-2.52,19.26,19.26,0,0,1-.71-2.23c-.24-.61-.56-.66-1-.35a40.11,40.11,0,0,0-3.19,5.59c-.31.31-.38.79-.72,1.09a1.64,1.64,0,0,0-.58.86,1.59,1.59,0,0,1-.5,1.08c-.12.28,0,.65-.36.85-.37.37-.41,1-.87,1.29l-2.31,4.89a9.7,9.7,0,0,1,1.48-4.08c.65-1.35,1.38-2.67,2.1-4s1.43-2.64,2.19-3.94,1.56-2.56,2.34-3.85c-.24-.33.45-.85-.19-1.09a1.27,1.27,0,0,0-1.63.3,3.23,3.23,0,0,1-.75.57c-.47.09-.35.63-.64.85s-.49.48-.59.82c-1.77,2.44-3.35,5-4.91,7.58a8.83,8.83,0,0,1-.7,1.13c-.32.37-.38.91-.74,1.25l-1.34,2.51-.3-.18a69.56,69.56,0,0,1,8.34-13.75c-.07-.19.13-.65-.41-.35a14.91,14.91,0,0,0-4.05,3,36.82,36.82,0,0,0-5.32,7.66,77.53,77.53,0,0,0-6.4,15.72c-.33,1.17-.8,2.3-1.09,3.49a1.38,1.38,0,0,1-.15.4c-.15.3-.33.63-.71.52s-.3-.53-.21-.82c.37-1.17.71-2.34,1.06-3.51.27-.89.82-1.75.47-2.84-.21,1.06-1,1.68-1.42,2.57a.64.64,0,0,1-.56.45c-.39,0-.22-.45-.39-.6a1.87,1.87,0,0,1-.61,1.72c-.54,0-.31-.61-.58-.82.18.33.21.73.41,1.06.58,2.14.9,4.33,1.4,6.48a1.28,1.28,0,0,1-.12.94c.55,3,1.25,3.25,3.61,1.41.61-.48,1.16-1.06,1.73-1.59a.15.15,0,0,1,.07.17s0,.08-.06.08a8,8,0,0,1-2.8,2.43c-1.36.77-2.17.51-2.56-1-.64-2.52-1.16-5.08-1.73-7.61l-.81-3.53c.71-.57.81.49,1.39.47a7.93,7.93,0,0,0,.55-2c.47.1.38.61.76.83A4,4,0,0,0,118.86,154.11Z"/>
      <path class="cls-13" d="M104.19,198.69c1,.42,1.38,1.44,2,2.44a12.68,12.68,0,0,1,.39-1.3c.12-.28.28-.67.65-.58s.17.48.23.74.27.19.4,0a1.49,1.49,0,0,1,.68-1.31.29.29,0,0,1,.4,0v0c0,1.83-.69,3.58-.75,5.41a62.23,62.23,0,0,1-3.74,20,20.81,20.81,0,0,1-3.19,6.17,5.43,5.43,0,0,1-2,1.59,1.78,1.78,0,0,1-2.65-1,10.42,10.42,0,0,1-.76-4.31,39.68,39.68,0,0,1,3.51-17.23Q101.7,204,104.19,198.69Z"/>
      <path class="cls-13" d="M78.83,33.5l.44-1.24a9.45,9.45,0,0,1,1.22-2,5.06,5.06,0,0,1,5.15-1.64c1.39.27,1.78,1,1.89,3a3.2,3.2,0,0,1,4.32.91c1.11,1.32.8,2.73-.14,4.19a3.47,3.47,0,0,1,2.29.53,2.76,2.76,0,0,1-.14,4.69,26.48,26.48,0,0,1-3,1.27,2,2,0,0,0-1.13.44c-.81.13-1.62.3-2.43.38s-1.5.1-1.91-.65,0-1.31.36-1.9c.14-.25.3-.49.49-.81-.7-.07-1.17.39-1.73.52-.79.19-1.61.62-2.33-.08s-.38-1.52-.18-2.32c.07-.27.29-.51.14-.9-.56.3-1.08.65-1.65.9-1.19.52-2,0-2.14-1.34A24.74,24.74,0,0,1,78.83,33.5Z"/>
      <path class="cls-14" d="M28.71,140.19l0,0a13.16,13.16,0,0,1,1,3.69.51.51,0,0,1-.25.57c-.8-.16-1-.93-1.49-1.44a12.05,12.05,0,0,0-1.49-1.54c-.53-.41-.93-.44-1.25.27s-.53,1.48-.81,2.21a5,5,0,0,1-3.34,3.46c-1.19-.49-1.44-1.08-.85-2.11a12.79,12.79,0,0,0,1.15-3.09c.2-.87.13-1.78.37-2.65A4.6,4.6,0,0,1,24,136.27c1.77-.17,2.52,1.25,3.51,2.28a3.54,3.54,0,0,1,.36.53C28.2,139.43,28.4,139.85,28.71,140.19Z"/>
      <path class="cls-15" d="M118.46,179.11c.78-.89.59.3,1,.43.35-.66,0-1.33,0-2,.46-.1.63.3.95.49a2.69,2.69,0,0,0-.35-2.14c-3.79-6.52-7.22-13.26-11.87-19.25a13,13,0,0,0-1.52-1.79,1.66,1.66,0,0,1-.5-2.13,70.92,70.92,0,0,0,3.23-11.32,12.61,12.61,0,0,0,.11-1.5c0-.22,0-.48.28-.52s.3.23.37.43c.41,1.15.83,2.29,1.23,3.44q2.11,6,4.2,12.05c.1.28.6.68-.06.94q-2.46-6.9-4.94-13.81c-.16-.47-.33-.94-.55-1.56-.45,1.86-.8,3.59-1.29,5.27-.69,2.37-1.49,4.7-2.25,7.05-.1.32-.28.6.06,1,3.39,3.51,5.88,7.66,8.35,11.82,1.87,3.13,3.64,6.32,5.44,9.49.81,1.43.89,3.76.18,4.79-.4-.36,0-.91-.39-1.33-.33,1.24-.27,2.59-1.3,3.73-.26-1,.28-1.78.07-2.74L115.63,186c-.21,0-.27-.12-.3-.29a33.57,33.57,0,0,1,2-4.46C117.69,180.53,117.76,179.65,118.46,179.11Z"/>
      <path class="cls-16" d="M33.62,200.45a2.06,2.06,0,0,0-.63-1.53c.1-.67.15-.74.92-.5.45.14.54,0,.57-.36,0-.13,0-.27,0-.41,1,.63,2.07,1.27,3.11,1.89a25.28,25.28,0,0,0,5.86,2.63,14.4,14.4,0,0,1,4.86,2.46c1.12.87,1.16,1.39.23,2.49-1.62,1.93-3.77,2.27-6.28.93a21.88,21.88,0,0,1-4.56-3.39A41,41,0,0,1,33.62,200.45Z"/>
      <path class="cls-17" d="M80.8,92.07l-.08-.24c1.39-5.74,1.3-11.6,1.21-17.44-.09-6.49-.56-13-1.15-19.43-.23-2.43-.45-4.85-.69-7.28,0-.35-.26-.83.46-.59.28,3,.59,6.1.85,9.15.18,2.2.3,4.41.45,6.62.25,3.6.3,7.21.5,10.81a104.15,104.15,0,0,1-.25,12,30,30,0,0,1-.86,5.8C81.17,91.72,81.21,92.05,80.8,92.07Z"/>
      <path class="cls-13" d="M80.55,47.09c-.54-.1-.33.37-.45.59-.08-.62-.48-.82-1.06-1A12.06,12.06,0,0,1,73,43.52a3.83,3.83,0,0,1-1.13-3.22c.21-1.56.83-2.15,2.44-2.3,2.24.48,3.85,2,5.46,3.43a21.4,21.4,0,0,1,2.58,2.72,3.46,3.46,0,0,1,.85,2.46C82.45,47.62,81.44,47,80.55,47.09Z"/>
      <path class="cls-7" d="M9.08,148.94v-.23c-.38-2.36,1.14-3.8,3.54-3.31a12.9,12.9,0,0,1,6.61,3.32,2,2,0,0,1,.73,1,.59.59,0,0,1-.09.32c-.53.35-1,.07-1.48-.14a5.82,5.82,0,0,0-1.15-.48,2.44,2.44,0,0,1-1-.5,3.94,3.94,0,0,0-1.49-.74,10.11,10.11,0,0,0-1.95-.56c-1.55-.35-1.9,0-1.55,1.54-.09.54.38,1.29-.56,1.51a.09.09,0,0,1-.12,0h0C10.16,150,9.47,149.61,9.08,148.94Z"/>
      <path class="cls-18" d="M61.23,132.13l.4.89c.52,1.34,1.25,2.62,1.11,4.15A5.58,5.58,0,0,1,62,139.6a2.66,2.66,0,0,1-4.3.76c-.07-.21.06-.3.23-.36a.75.75,0,0,1,.42.05c1.84,1.06,3.34-.58,3.58-2.39a5.17,5.17,0,0,0-.44-3c-.47-.93-.8-1.91-1.19-2.88a7.25,7.25,0,0,1-.49-1.95c0-1.71-.48-3.41,0-5.13.05-.19.07-.47-.16-.57a.52.52,0,0,0-.58.18,7.89,7.89,0,0,1-1.91,1.38c-1.79.87-2.19,2.51-2.33,4.27a14.9,14.9,0,0,0,2,8.29,2.91,2.91,0,0,1,.55,1.26c0,.18-.13.32-.35.24-1.41-1.5-1.94-3.43-2.54-5.32-.1-.3-.17-.62-.25-.93l-.19-.66c-.59-1-.2-2.08-.3-3.12a1.09,1.09,0,0,1,.28-.73l.22-.65c-.25-1.55.75-2.51,1.81-3.23.82-.56,1.7-1,2.47-1.66a2,2,0,0,1,1.17-.49c.45,0,.87,0,.84.66l0,1.25a.74.74,0,0,1,.15.61,16.91,16.91,0,0,0,.36,4.81C61,130.87,61.51,131.46,61.23,132.13Z"/>
      <path class="cls-19" d="M59.46,147.87a36.08,36.08,0,0,1-12.32,2.41,41.12,41.12,0,0,1-8.58-.67c-.29-.06-.59,0-.63-.43a38.08,38.08,0,0,0,20.77-1.57,2.64,2.64,0,0,0,1-.75c3-3.13,5.4-6.56,5.83-11.08a34.52,34.52,0,0,1,1-4.48l.41-.25a.34.34,0,0,1,.12.46A43.12,43.12,0,0,0,65.65,138c-.68,3.35-2.66,6-4.89,8.51C60.34,146.94,59.89,147.4,59.46,147.87Z"/>
      <path class="cls-20" d="M29.55,144c0-1.33-.75-2.47-.88-3.76A7.35,7.35,0,0,1,29.94,144a4.69,4.69,0,0,0,2.82,3.59.14.14,0,0,1,.06.17c0,.05,0,.08-.06.08a15.11,15.11,0,0,1-2.89-.73c-.21,0-.41-.19-.58,0s.05.39.16.56l.88,1.34c.33.51.28.8-.41.75H29.7c-1.34,0-1.34,0-.76,1.2a5,5,0,0,1,.18.5l-.15.07a1.91,1.91,0,0,1-1-2c.46-.39,1-.12,1.63-.33-.31-.73-.81-1.33-1.16-2-.13-.25-.35-.53-.18-.8s.57-.14.88-.11.65.27,1,.2c-.13-.47-.59-.61-.86-.93s.11-.54.15-.82S29.75,144.26,29.55,144Z"/>
      <path class="cls-21" d="M115.44,185.79l.19.21c-2.09,4.3-4.37,8.51-6.65,12.72l-.41,0,2.56-5.14a7.49,7.49,0,0,1,1.19-2.69c.77-1.48,1.67-2.9,2.41-4.41C114.87,186.15,115,185.73,115.44,185.79Z"/>
      <path class="cls-22" d="M16.78,158.16l.91,1.18c.94,1.23.94,1.23-.51,1.87s-1.48.65-2.1-.82c-.28-.65-.58-1.29-.88-1.94a.73.73,0,0,1,.43-.36,1.12,1.12,0,0,1,.26-.08,4.55,4.55,0,0,0,.66-.17,2.64,2.64,0,0,1,.82-.19C16.69,157.67,16.69,158,16.78,158.16Z"/>
      <path class="cls-23" d="M14.68,158.25l-.48.2c-1.9-1.9-2.53-4.37-3-6.9-.1-.23-.12-.44.2-.5a.9.9,0,0,1,.42.5,39.77,39.77,0,0,0,1.2,4C13.42,156.56,14.27,157.26,14.68,158.25Z"/>
      <path class="cls-24" d="M16.17,133.49l1.95.61c.17.1.39,0,.56.11a20.77,20.77,0,0,1,2.67,1.89c.14.13.27.27.42.4.31.3.76.52.71,1.06a.47.47,0,0,1-.36.26c-.81-.21-1.21-1-1.83-1.42A12.42,12.42,0,0,0,16,134.05a.51.51,0,0,1-.32-.27C15.72,133.46,16,133.6,16.17,133.49Z"/>
      <path class="cls-25" d="M24.8,132a3,3,0,0,0,.52-.08c1-.41,1.49-.09,1.74,1,.16.77,0,1-.68,1.16-.31.07-.62.18-.92.27s-.43-.33-.57-.57a1.47,1.47,0,0,1-.08-.28c0-.14,0-.29-.06-.43s-.11-.47-.12-.71A.48.48,0,0,1,24.8,132Z"/>
      <path class="cls-26" d="M24.8,132v.39a.93.93,0,0,1-.56.29,17.56,17.56,0,0,0-4.95,1.58,1.31,1.31,0,0,1-.73.1c-.18,0-.36,0-.45-.22A14.78,14.78,0,0,1,24.8,132Z"/>
      <path class="cls-27" d="M17.21,149.17c.94.07,1.61,1,2.62.85a.2.2,0,0,1,.26,0h0c0,.39-.34.39-.61.43a1.51,1.51,0,0,0-1.38,1.64,1.69,1.69,0,0,0,.17.58c.05.13.13.24.08.39a.26.26,0,0,1-.28,0,.51.51,0,0,0-.56.23.79.79,0,0,1-.4-.51,3.23,3.23,0,0,1,.17-1.41A2.59,2.59,0,0,0,17.21,149.17Z"/>
      <path class="cls-28" d="M17.27,152.83c.2.09.19.29.24.47a37.73,37.73,0,0,0-.73,4.86l-.45-.41a1,1,0,0,1-.19-.8c.18-1.12.35-2.24.62-3.35A1.09,1.09,0,0,1,17.27,152.83Z"/>
      <path class="cls-29" d="M32.76,147.87v-.25l4.73,1.57c-.94.32-1.69-.43-2.57-.44A3.61,3.61,0,0,1,32.76,147.87Z"/>
      <path class="cls-30" d="M10.36,139.88a1.79,1.79,0,0,0,.56-1.86,4.06,4.06,0,0,1,.14-1.34c.2,0,.29.12.36.27a8.4,8.4,0,0,1,.12,1.22c.2.38.48.16.73.09a1.31,1.31,0,0,1,1.11.07.34.34,0,0,1,0,.29,25.5,25.5,0,0,0-2.86,1.56C10.4,140.16,10.26,140.1,10.36,139.88Z"/>
      <path class="cls-31" d="M11.25,136.92l-.19-.24a4.78,4.78,0,0,1,3.2-3.2c.14.06.28.12.25.32a8.13,8.13,0,0,0-3,3.07A.26.26,0,0,1,11.25,136.92Z"/>
      <path class="cls-32" d="M27.83,139.24a11.3,11.3,0,0,0-1.75-2,2.42,2.42,0,0,0-1.93-.78c-.06-.26.13-.34.32-.41h.14c1.65.43,2.57,1.68,3.44,3C28.13,139.22,28,139.27,27.83,139.24Z"/>
      <path class="cls-33" d="M29.72,152.59l-.38.2L27,153a.26.26,0,0,1,0-.28,1.19,1.19,0,0,1,1-.38,1.13,1.13,0,0,0,1.11-.79l0-.05A1.51,1.51,0,0,1,29.72,152.59Z"/>
      <path class="cls-34" d="M27,152.82V153l-3.45.62a.37.37,0,0,1,0-.35A3.7,3.7,0,0,1,27,152.82Z"/>
      <path class="cls-35" d="M18.07,153.07l.25,0a5.32,5.32,0,0,1,3.36.3.26.26,0,0,1,.11.32A9.22,9.22,0,0,1,18.07,153.07Z"/>
      <path class="cls-36" d="M9.52,143.59l0-1.53a.2.2,0,0,1,.26,0c.16.95,1.14.68,1.65,1.1-.38.64-1,.66-1.66.75C9.62,143.88,9.49,143.8,9.52,143.59Z"/>
      <path class="cls-37" d="M25.06,133.66c.23.17.09.55.4.67L24.61,136h-.05a.33.33,0,0,1-.45,0A4.66,4.66,0,0,1,25.06,133.66Z"/>
      <path class="cls-38" d="M11.44,151.11l-.24.44c-.17-.28-.2-.64-.49-.85.58-.5.18-1.17.3-1.75,0-.3.11-.3.31-.15C11.55,149.56,12,150.31,11.44,151.11Z"/>
      <path class="cls-39" d="M9.73,142.06H9.54a3,3,0,0,1,.82-2.18l.2.23c.19.38-.17.62-.24.93s-.12.57-.23.84S9.91,142.12,9.73,142.06Z"/>
      <path class="cls-40" d="M9.08,148.94c.57.51,1.25.91,1.5,1.7A4.43,4.43,0,0,1,8.89,149Z"/>
      <path class="cls-41" d="M9.52,143.59l.23.21c0,.55-.29.88-.88.85l-.21-.22A1.57,1.57,0,0,1,9.52,143.59Z"/>
      <path class="cls-42" d="M133.31,153.68c.06-.53.47-.8.85-1.08.07-.1.13-.1.19,0l-1,1.33a.14.14,0,0,1-.08-.19A.11.11,0,0,1,133.31,153.68Z"/>
      <path class="cls-43" d="M124,165.72a1.28,1.28,0,0,1,1-1.26A4,4,0,0,1,124,165.72Z"/>
      <path class="cls-44" d="M27.83,139.24l.22-.24a1.81,1.81,0,0,1,.66,1.19C28.22,140.06,28.05,139.62,27.83,139.24Z"/>
      <path class="cls-30" d="M14.51,133.69l-.25-.21a4.73,4.73,0,0,1,1.91,0l-.45.18A.91.91,0,0,1,14.51,133.69Z"/>
      <path class="cls-45" d="M21.79,153.65v-.17a1.28,1.28,0,0,1,1.7,0,.76.76,0,0,0,0,.15A4.11,4.11,0,0,1,21.79,153.65Z"/>
      <path class="cls-46" d="M58,140.11l-.25.25a1.45,1.45,0,0,1-.66-.66l.25-.25C57.78,139.42,58,139.65,58,140.11Z"/>
      <path class="cls-47" d="M136.11,150a.92.92,0,0,1,.81-.86l-.8,1.09c-.07-.05-.09-.1-.07-.15S136.09,150,136.11,150Z"/>
      <path class="cls-48" d="M130.07,158.19a1,1,0,0,1,.7-1.05A1.84,1.84,0,0,1,130.07,158.19Z"/>
      <path class="cls-49" d="M134.35,152.61h-.19a1.09,1.09,0,0,1,.66-.87c.06-.1.11-.1.17,0Z"/>
      <path class="cls-50" d="M136.11,150v.23l-.65.85c-.07,0-.09-.1-.07-.14s0-.07.06-.07A1.06,1.06,0,0,1,136.11,150Z"/>
      <path class="cls-50" d="M131.67,156.11c-.3-.6.22-.58.54-.7Z"/>
      <path class="cls-51" d="M121.47,151.77c0,.41.06.85-.43,1.06A1.73,1.73,0,0,1,121.47,151.77Z"/>
      <path class="cls-52" d="M121.05,152.82c-.15.25.35.87-.44.75Z"/>
      <path class="cls-53" d="M127.22,71.18a.72.72,0,0,1-.82-.45C126.81,70.63,127,70.9,127.22,71.18Z"/>
      <path class="cls-54" d="M135.46,150.89v.21l-.47.65h-.17A1,1,0,0,1,135.46,150.89Z"/>
      <path class="cls-55" d="M32.09,89.26c.21-.27.51-.31.93-.46a1,1,0,0,1-.7.67Z"/>
      <path class="cls-56" d="M132.82,74.84a.71.71,0,0,1-.81-.44C132.41,74.29,132.62,74.56,132.82,74.84Z"/>
      <path class="cls-57" d="M131,157a.6.6,0,0,1,.44-.72h.15A1.52,1.52,0,0,1,131,157Z"/>
      <path class="cls-58" d="M128.37,71.87c-.4.32-.51,0-.68-.28C128,71.43,128.15,71.76,128.37,71.87Z"/>
      <path class="cls-59" d="M140.21,144.41h.15a1.68,1.68,0,0,1-.56.76A.68.68,0,0,1,140.21,144.41Z"/>
      <path class="cls-60" d="M129.46,159a.61.61,0,0,1,.46-.73l.15,0A1.78,1.78,0,0,1,129.46,159Z"/>
      <path class="cls-61" d="M128.82,159.79a.6.6,0,0,1,.45-.71h.13A1.52,1.52,0,0,1,128.82,159.79Z"/>
      <path class="cls-62" d="M125.58,163.87a.61.61,0,0,1,.47-.7h.11A1.55,1.55,0,0,1,125.58,163.87Z"/>
      <path class="cls-63" d="M123.42,166.42v-.25a.67.67,0,0,1,.62-.43A1.35,1.35,0,0,1,123.42,166.42Z"/>
      <path class="cls-64" d="M133.31,153.68l0,.26-.46.6A.8.8,0,0,1,133.31,153.68Z"/>
      <path class="cls-65" d="M28.51,111.45l.18-.43c.24.3.32.6,0,.9Z"/>
      <path class="cls-66" d="M132.26,155.31a.62.62,0,0,1,.45-.75l.16,0A1.78,1.78,0,0,1,132.26,155.31Z"/>
      <path class="cls-14" d="M8.87,144.65l.88-.85,1.71-.66.12-.12a7.43,7.43,0,0,1,5.23,1.29,6.42,6.42,0,0,1,.93.72,9.75,9.75,0,0,1,2.33,2.38,3.09,3.09,0,0,1,.59,1.24c.07.6,0,1.16-.82,1.15a12.07,12.07,0,0,0-7.94-4.24,2.38,2.38,0,0,0-2.66,2.07,2.58,2.58,0,0,0,0,.62c0,.19,0,.36-.16.46A4.07,4.07,0,0,1,8.87,144.65Z"/>
      <path class="cls-11" d="M91.12,96l-.22.43a1,1,0,0,0-.49.54,64.43,64.43,0,0,0-4.06,8.9c.15-1.35.3-2.7.47-4,.27-2.3.64-4.59.82-6.89.29-3.78.73-7.54.67-11.33a79.14,79.14,0,0,0-1.17-10.41c-.54-3.69-1.2-7.37-1.64-11.09a49,49,0,0,1-.63-7.56,3.89,3.89,0,0,1,.7-2.34c.43,2.37.84,4.55,1.22,6.74A138.42,138.42,0,0,0,90,73a71.16,71.16,0,0,0,4.39,11.74,13,13,0,0,1,1,3.72A2.71,2.71,0,0,1,94.52,91,15,15,0,0,0,91.12,96Z"/>
      <path class="cls-67" d="M103.38,155a6.34,6.34,0,0,1-7.49,1.19,44.6,44.6,0,0,1-9.84-6.46,58.51,58.51,0,0,1-9.46-9.61,12.38,12.38,0,0,1-2.29-4.93,6.18,6.18,0,0,1,.16-3.61c.48-.27.53.22.68.43A63.78,63.78,0,0,0,93.86,149.3a35,35,0,0,0,10,4.21C104.21,154.17,103.65,154.52,103.38,155Z"/>
      <path class="cls-11" d="M115.44,185.79l-3.51,6.36c-.26.47-.53.92-.8,1.39-.64.44-.81,1.23-1.43,1.73.62-1.51,1.23-3,1.87-4.52,1.66-3.89,3.26-7.79,4.55-11.81a4.46,4.46,0,0,0-.27-3.59,139.87,139.87,0,0,0-11.44-18.76c-.81-1.13.44-1,.7-1.46.4-.67.71-.06.92.25q3.3,4.81,6.58,9.66,3,4.49,5.76,9.18a4.38,4.38,0,0,1,.43,3.11,6.44,6.44,0,0,0-.34,1.78C117.63,181.42,116.48,183.58,115.44,185.79Z"/>
      <path class="cls-68" d="M115.22,139.69c.08,1.69.94,3.19,1.24,4.83.47,2.56,1.21,5.07,1.58,7.65-.07.3.09.63-.18,1a22,22,0,0,1-2.22-4.86c-1.89-5.21-3.18-10.6-4.72-15.91a44.93,44.93,0,0,0-3.16-8.76c-.51-.94-1.07-1.79-2.29-1.85-.38,0-.53-.28-.58-.65a2.28,2.28,0,0,1,1.34-2.23c.42-.14.63.15.88.42a23.1,23.1,0,0,1,3.78,7,98.33,98.33,0,0,1,3.93,12.34A1.74,1.74,0,0,0,115.22,139.69Z"/>
      <path class="cls-9" d="M103.38,155c.08-.52.63-.92.41-1.52a.65.65,0,0,1,0-.71,6.06,6.06,0,0,0-.65-5.64,48.55,48.55,0,0,0-4.8-6.33,73.67,73.67,0,0,0-6.13-6.6,38.34,38.34,0,0,0-7.82-6,14.44,14.44,0,0,0-2-.92,5.3,5.3,0,0,0-7.07,3.22c-.15.35-.19.77-.55,1a10.18,10.18,0,0,0-.42,3.68,7,7,0,0,1,3.66-8.9c2.06-.89,4.07-.33,6,.57a29,29,0,0,1,6.87,4.74,81.45,81.45,0,0,1,12.91,14.59,7,7,0,0,1,.26,8.23A1.39,1.39,0,0,1,103.38,155Z"/>
      <path class="cls-68" d="M90.9,127.84l2.58,4.53c-.4.39-.57-.06-.76-.25-4-3.94-6.94-8.54-7.77-14.21-.22-1.46-.72-3,0-4.58a32.93,32.93,0,0,0,4.3,11.74A12.41,12.41,0,0,0,90.9,127.84Z"/>
      <path class="cls-69" d="M107.89,200c0,.17.14.47-.16.48s-.24-.28-.24-.48Z"/>
      <path class="cls-14" d="M118.07,166.35c-.5-2.49-1-5-1.51-7.48.07-.17.28-.12.39-.24l.75-2.21.25,1.27c.59-1.51,1.78-2.41,2-3.9a3.15,3.15,0,0,1,.2,2.53c-.59,1.71-1.1,3.45-1.7,5.34.79-.25.72-.83.85-1.24a123.5,123.5,0,0,1,4.11-12c2.22-5.11,4.63-10.11,8.38-14.33a15,15,0,0,1,5.54-4c.07.63-.4.79-.57,1.12-2.42.75-3.82,2.67-5.18,4.6a72.74,72.74,0,0,0-7.28,14c-2.15,5.11-4,10.33-5.71,15.61C118.48,165.78,118.49,166.2,118.07,166.35Z"/>
      <path class="cls-70" d="M131.36,140.31a53,53,0,0,1,5-7.72c.07-.1.14-.1.21,0-1.33,2.44-3,4.68-4.41,7-.19.31-.38.61-.58.91C131.38,140.57,131.26,140.54,131.36,140.31Z"/>
      <path class="cls-71" d="M137.63,131.07c.48-.63.78-1.45,1.85-1.31,1.3.17,1.45.43.73,1.53A7.72,7.72,0,0,0,137.63,131.07Z"/>
      <path class="cls-72" d="M140.62,131.5c.19-.25.26-.6.63-.79a5.22,5.22,0,0,1,1.13,3.37c0,.07,0,.16-.07.2s-.16,0-.18-.12A6.72,6.72,0,0,0,140.62,131.5Z"/>
      <path class="cls-73" d="M134.4,142.26c.29-.43.34-1,.87-1.29C135.09,141.47,135.06,142.08,134.4,142.26Z"/>
      <path class="cls-74" d="M131.36,140.31l.21.23a3.15,3.15,0,0,1-.83,1.11.14.14,0,0,1-.07-.16c0-.06,0-.09.05-.09Z"/>
      <path class="cls-75" d="M130.72,141.4l0,.25a1.26,1.26,0,0,1-.69,1A3.23,3.23,0,0,1,130.72,141.4Z"/>
      <path class="cls-76" d="M135.63,140.12l.5-1.08C136.39,139.6,136.05,139.88,135.63,140.12Z"/>
      <path class="cls-77" d="M136.71,138.18c.16-.42.25-.88.72-1.09C137.31,137.53,137.22,138,136.71,138.18Z"/>
      <path class="cls-78" d="M142.13,137.51c.05-.09.13-.36.2-.09a4.58,4.58,0,0,1,0,1.17C142,138.28,142.2,137.87,142.13,137.51Z"/>
      <path class="cls-79" d="M136.56,132.58h-.21a1.14,1.14,0,0,1,.64-.67A.71.71,0,0,1,136.56,132.58Z"/>
      <path class="cls-11" d="M31,95.72a.77.77,0,0,1,.64-.42,2.55,2.55,0,0,1,1.25-1,8.85,8.85,0,0,0-5.25,2.48c-.34.32-.66.67-1,1s-.47.57-.79.29,0-.61.12-.88A20.91,20.91,0,0,1,30,92.49a35.72,35.72,0,0,1,8.64-5.56c.36-.18.76-.21,1.15-.43a2.38,2.38,0,0,1-.86.22c-5,.27-9.07,2.55-12.61,5.93-.34.32-.71.61-1.07.91a.44.44,0,0,1-.59,0c-.24-.19-.19-.43,0-.66h0a31,31,0,0,1,5.78-5.06A29.5,29.5,0,0,1,42.3,83.07c.76-.14,1.58.11,2.49-.43a16.52,16.52,0,0,0-9.13-.22,36.91,36.91,0,0,0-8.53,3.1,11,11,0,0,1,3.07-2.16,39.34,39.34,0,0,1,14-4.79,34.11,34.11,0,0,1,18.65,2.61,36.28,36.28,0,0,1,7.27,4.31c1.06.8,1,.9-.11,1.51-2.28,1.21-4.38,2.61-5.51,5.06A11.71,11.71,0,0,0,64,93.57c-.27,1-.7,1.13-1.51.54s-1.57-1.24-2.34-1.87a15,15,0,0,0-7.73-3.73c-6.12-.69-11.22,2.34-12.59,8.94a7.86,7.86,0,0,0,0,3.48,5.18,5.18,0,0,1-1.72-.36,10.64,10.64,0,0,0-7.22.62,5.56,5.56,0,0,0-.72.47c-.3.23-.55.73-1,.54s-.07-.66-.13-1a11.53,11.53,0,0,1,.28-2.14c-.89.07-1.2.94-2,1.39C28.2,98.42,29.84,97.24,31,95.72Z"/>
      <path class="cls-80" d="M60.78,130.42a13.23,13.23,0,0,1-.24-5.6,13.26,13.26,0,0,0,2.72-6.77,1.34,1.34,0,0,1,.49-1,14.08,14.08,0,0,0,3.13-3.36.89.89,0,0,1,1.09-.43,3.07,3.07,0,0,0,.85.13c.28,0,.72.17.72-.36s-.35-.42-.63-.41a6.32,6.32,0,0,1-3.23-1c-.26-.14-.58-.44-.82,0s.27.52.48.66c1.19.79,1.18.76.31,1.92a9.51,9.51,0,0,1-7.71,4,33.4,33.4,0,0,0-4.78.6,8.21,8.21,0,0,0-5.89,4.4,29.38,29.38,0,0,0-1.77,3.44c-1.3,3.17-4,4.11-7,4.47-2,.24-2.14,0-2.46-2a23.75,23.75,0,0,1,.09-6.63,1.41,1.41,0,0,0-.48-1.39,20.68,20.68,0,0,1-2.87-3.33c-.12-.21,0-.26.18-.29a1.47,1.47,0,0,1,.63.41,9.11,9.11,0,0,0,2.8,1.81c.47.2,1,.26,1.45.47a4.8,4.8,0,0,0,4.17-.48c.41-.23.83-.48,1.19.08a4.62,4.62,0,0,0,.55.9c-.88-1.3-.85-1.54.42-2.68.18-.16.18-.28,0-.43-.07-1,.27-1.9.2-2.87a16.24,16.24,0,0,0-2.22-6.56c0-.22-.11-.47.26-.47.45.28.6,1.25,1.26.86s0-1-.16-1.42a25.56,25.56,0,0,1-1.12-8.78c.46-5.93,5.23-9.17,10.93-7.32,3.54,1.16,6.29,3.5,8.87,6.09a42.71,42.71,0,0,1,5.32,6.6c.17.25.25.82.73.59s.19-.68.09-1a17.15,17.15,0,0,1-.49-8.08,6.63,6.63,0,0,1,5.86-5.51c2.86-.46,5,.87,6.62,3.12a11.77,11.77,0,0,1-.6,13.84c-.85.79-1.72.4-2.67,0a20.21,20.21,0,0,1-.7,8.18,23.68,23.68,0,0,1-9.94,13.47A17,17,0,0,1,62,130.41C61.6,130.52,61.19,130.77,60.78,130.42Z"/>
      <path class="cls-7" d="M60.78,130.42A16,16,0,0,0,67.72,127a23,23,0,0,0,9-15.54,18.06,18.06,0,0,0-.1-5.54,3,3,0,0,0,3.1.67c-.91,1.09-.52,2.33-.5,3.57a19.85,19.85,0,0,1-2.75,11,23.78,23.78,0,0,1-13.26,10.66,4.4,4.4,0,0,1-2,.36Z"/>
      <path class="cls-81" d="M60.57,123.57a.74.74,0,0,0-1-.44.61.61,0,0,0-.21.11c-1.26.74-2.42,1.64-3.65,2.43a3.88,3.88,0,0,0-1.48,2.62,39.41,39.41,0,0,1-7.67.43c-1.35-.05-1.37-.07-.71-1.21l.81-1.38A2.45,2.45,0,0,0,49,125.9a28.46,28.46,0,0,0,4.23-2.72,1.19,1.19,0,0,0,.6-1.26c-.11-.65.37-1.19.89-1,1,.29,1.26-.42,1.72-.9.28-.31.41-.76.82-1,1.72-.25,3.48-.23,5.21-1.1A12.1,12.1,0,0,1,60.57,123.57Z"/>
      <path class="cls-82" d="M57.28,119a6.45,6.45,0,0,1-1.37,2c-.28.34-.5.65-.84.06-.18-.32-.44-.23-.59,0s-.8.34-.39.8.14.75-.2,1a25.55,25.55,0,0,1-5.48,3.54,1.25,1.25,0,0,1-1.7-.37,29.68,29.68,0,0,1,1.58-3.26,7,7,0,0,1,5.49-3.45C55,119.32,56.11,119.15,57.28,119Z"/>
      <path class="cls-83" d="M30.59,117a1.27,1.27,0,0,1,1.15.59,22.25,22.25,0,0,0,3.15,3.63,1.32,1.32,0,0,1,.46,1.24,7.08,7.08,0,0,1-.46,2.57.7.7,0,0,1-.71,0c-2.62-1.14-4.62-2.83-5.22-5.79a2.23,2.23,0,0,1,.52-1.9C29.75,117.07,30.1,116.79,30.59,117Z"/>
      <path class="cls-84" d="M31.51,116a12.68,12.68,0,0,1-2.22-6.84,7.85,7.85,0,0,1,2.82-5.92,3.39,3.39,0,0,1,3.23-.67,9.69,9.69,0,0,1,4.1,2.26c0,.33-.21.36-.44.42a11.86,11.86,0,0,0-3.31-.59,4.46,4.46,0,0,0-2.47.78A5.77,5.77,0,0,0,30.79,110a3,3,0,0,0,0,1.7,5.33,5.33,0,0,1,.1.79c.07,1.15.77,2.11.94,3.22C31.79,115.86,31.72,116,31.51,116Z"/>
      <path class="cls-14" d="M30.59,117a1.85,1.85,0,0,0-1.34,2.31c.37,2.22,1.84,3.63,3.61,4.8a6.21,6.21,0,0,0,2,.92.92.92,0,0,1,.16,1.09c-.21.35-.59,0-.89,0a8,8,0,0,1-6.78-8.56,2.16,2.16,0,0,1,2.42-2.23c.62.11.85.59,1.13,1S30.74,116.85,30.59,117Z"/>
      <path class="cls-67" d="M54,129.57c0,1.07,0,2.15,0,3.22-1.08-.21-2.16-.39-3.23-.65A14.73,14.73,0,0,1,46,130c-.24-.16-.57-.3-.45-.64s.49,0,.73,0c1.47,0,2.93,0,4.4,0-.25.66-.83.41-1.29.46a5.06,5.06,0,0,1-1.55-.13c1.42.19,2.79.64,4.21.84.82.12,1.59.31,1.75-.86C53.78,129.59,53.93,129.57,54,129.57Z"/>
      <path class="cls-85" d="M54,129.57c-.42,1.48-.43,1.52-2,1.27a21.26,21.26,0,0,1-4.79-1.19c1.26-.23,2.37.13,3.42-.27a15.7,15.7,0,0,0,3.41-.44Z"/>
      <path class="cls-86" d="M42.42,107.61c-.16.08-.17.23-.16.38l-.13.08a4.14,4.14,0,0,1-1.69-1.87c0-.18.14-.26.29-.33A6.82,6.82,0,0,1,42.42,107.61Z"/>
      <path class="cls-87" d="M40.73,105.87l-.25.22A1.56,1.56,0,0,1,39,105a.5.5,0,0,0,.45-.22Z"/>
      <path class="cls-88" d="M32.93,117.51l-.17.21-.65-.85c-.13-.2,0-.26.16-.3a.75.75,0,0,1,.4.19C32.82,117,33.17,117.14,32.93,117.51Z"/>
      <path class="cls-89" d="M32.28,116.64l-.17.23-.6-.91.19-.22a.31.31,0,0,1,.28,0C32.16,116,32.52,116.23,32.28,116.64Z"/>
      <path class="cls-5" d="M34.48,198.06l.42.9c-.49.06-.76-.3-1.12-.39s-.74-.26-.79.35a14.56,14.56,0,0,1-2.66-3.58,13.79,13.79,0,0,1-2.25-6.62,9.08,9.08,0,0,1,1.93-6.1,19.92,19.92,0,0,1,8-5.87,7.93,7.93,0,0,1,3.33-1.08c0,.54-.51.52-.84.66-1.5.64-3,1.29-4.47,2A19.58,19.58,0,0,1,45.24,176a13.63,13.63,0,0,1,9.07,3.63c4.16,3.72,8.56,7.11,14,8.75a17.57,17.57,0,0,0,9.24.36,27.58,27.58,0,0,0,11.06-5,38.48,38.48,0,0,0,4-3.89c-5.6,5.26-12.11,8.49-19.92,8.56a20.14,20.14,0,0,1-11.11-3.59,45.42,45.42,0,0,1-5.76-4.49c-3.22-2.88-6.87-4.8-11.32-4.82a1.13,1.13,0,0,1-1-.28,9.77,9.77,0,0,1,5.56.41c3.18,1,5.74,3,8.33,5,2.79,2.13,5.51,4.32,8.81,5.68a18.78,18.78,0,0,0,12.88.44,32.91,32.91,0,0,0,10.31-4.93,17,17,0,0,0,7.34-12,22.21,22.21,0,0,0-1.52-10.28c-.08-.22-.3-.42-.14-.77a2.43,2.43,0,0,1,1.25.67,6.59,6.59,0,0,0,.92.91c2.27,1.59,2.55,4,2.67,6.47a23.89,23.89,0,0,1-1,7.84c-1.2,4.14-3.9,7.11-7.23,9.6a37.83,37.83,0,0,1-12.9,6.15A19.1,19.1,0,0,1,63.11,188a79.34,79.34,0,0,1-9.35-7.17,15.61,15.61,0,0,0-4.51-3.05A10.6,10.6,0,0,0,43,177.6a20.52,20.52,0,0,0-8.35,3.49c-2.92,2.31-5.14,5.2-4.91,9.19A9.78,9.78,0,0,0,34.48,198.06Z"/>
      <path class="cls-68" d="M43.52,175.22c5.2-.23,9.35,2,13.09,5.41s8,6.24,13.18,7.21A20.28,20.28,0,0,0,79.92,187a29,29,0,0,0,12.74-7.64c.14-.14.23-.36.61-.31a20,20,0,0,1-5.15,5.39,27.2,27.2,0,0,1-12.21,4.91A18,18,0,0,1,66.18,188c-4.69-2-8.62-5-12.37-8.36A13.31,13.31,0,0,0,43,176.44c-2.67.29-5.06,1.42-7.59,2.17a39.78,39.78,0,0,1,6-2.94A6.25,6.25,0,0,1,43.52,175.22Z"/>
      <path class="cls-5" d="M24.57,92.94c0,.53.11.78.66.33a44.15,44.15,0,0,1,4.85-3.86,19.42,19.42,0,0,1,8.75-2.93c.5,0,1-.37,1.63-.09C34.54,89,29.27,92.23,26,97.92,28.09,96,30.21,94,33.5,94c-.52.72-1.28.87-1.83,1.31-.13-.66-.55-.41-.91-.28a10.64,10.64,0,0,0-4.63,3.7c-.85,1-1.54,2.21-2.43,3.53a17.06,17.06,0,0,1,5.1-9.32,32.92,32.92,0,0,1,8.62-5.81c-6.25,1-10.72,4.74-14.67,9.36A8,8,0,0,1,24.57,92.94Z"/>
      <path class="cls-90" d="M117,158.63a.41.41,0,0,1-.39.24c-.07-.38-.33-.71-.22-1.15C116.78,157.89,116.56,158.46,117,158.63Z"/>
      <path class="cls-80" d="M103.83,200.87c.69-.1.27,1,1,.82.21-.2-.1-.61.15-.9.45.1.61.57,1,.81s.46.43.76.33.06-.5.14-.74a4.89,4.89,0,0,0,.09-.53,3,3,0,0,1,.8,2.72,95.26,95.26,0,0,1-.92,9.83,54.58,54.58,0,0,1-4.26,14c-.2.42-.45.82-.68,1.22a.74.74,0,0,1-.34.29c.46-2.1,1.31-4.1,1.58-6.23l-.29-.08c-.36,1.24-.71,2.48-1.08,3.72s-.75,2.24-1,3.38a2.71,2.71,0,0,1-2.52,2c1.21-4,2.73-7.79,3.12-11.89a118.17,118.17,0,0,1-3.61,11.66,2.7,2.7,0,0,1-.8-2.53c.9-3.61,1.77-7.23,2.64-10.85.07-.32.37-.66,0-1s-.22-.88-.1-1.31C100.8,210.7,102.21,205.75,103.83,200.87Z"/>
      <path class="cls-7" d="M103.83,200.87a49.89,49.89,0,0,1-1.82,6.81c-.8,2.85-1.62,5.7-2.41,8.55a3.64,3.64,0,0,0-.06.74,2.16,2.16,0,0,0-.47,1.17q-1.21,4.86-2.45,9.75c-.49-.12-.32-.47-.32-.71a38.34,38.34,0,0,1,3.6-17.88c1.22-2.46,2.25-5,3.37-7.53A1.89,1.89,0,0,1,103.83,200.87Z"/>
      <path class="cls-14" d="M84.87,29.18c1.88.35,2.55,1.44,1.52,2.88A22.41,22.41,0,0,1,80.6,38a3.48,3.48,0,0,1-.69.29c-.59-.08-.42-.53-.31-.82,1-2.73,2-5.46,4.09-7.57A2.12,2.12,0,0,1,84.87,29.18Z"/>
      <path class="cls-14" d="M92.84,37.37a2.25,2.25,0,0,1,1.75,2.05,2.15,2.15,0,0,1-1.41,2.19,22.15,22.15,0,0,1-5.5,1.74,1.77,1.77,0,0,1-1.55-.16.6.6,0,0,1,.14-.61c1.73-2,3.45-4.09,6-5.11A1.3,1.3,0,0,1,92.84,37.37Z"/>
      <path class="cls-14" d="M90.69,32.4c1.42,1.23,1.58,2.78.15,4a18.48,18.48,0,0,1-7.68,4.34c-.47-.22-.27-.53-.06-.77a69.73,69.73,0,0,1,6.4-7C89.82,32.7,90.14,32.29,90.69,32.4Z"/>
      <path class="cls-7" d="M90.69,32.4c-3,2.2-5.09,5.21-7.55,7.9-.15.16-.07.32,0,.48-1.12-.2-.69-1.05-.56-1.61a9.82,9.82,0,0,1,1.88-3.59,11,11,0,0,1,3.69-3.53A1.87,1.87,0,0,1,90.69,32.4Z"/>
      <path class="cls-7" d="M84.87,29.18c-2.88,2.17-4,5.41-5.12,8.6a.38.38,0,0,0,.16.47c-.55.41-.65-.08-.82-.42a4.36,4.36,0,0,1,0-3,10.69,10.69,0,0,1,1.72-4A4.23,4.23,0,0,1,84.87,29.18Z"/>
      <path class="cls-91" d="M92.84,37.37a18.2,18.2,0,0,0-6.71,5.82c-.55-.28-.26-.74-.09-1a10.22,10.22,0,0,1,6.34-5A.41.41,0,0,1,92.84,37.37Z"/>
      <path class="cls-7" d="M29.74,144.84c.07.35-.29.42-.42.64-.49.14-.72-.19-1-.51-.46-.87-1.34-1.37-2-2.25-.21.66-.85,1-1,1.61a2.65,2.65,0,0,1-.11.3,4.8,4.8,0,0,1-2.93,2.88c-.42.15-.95.45-1.24-.24a5.42,5.42,0,0,0,3.1-3.7,16.9,16.9,0,0,1,1-2.46c.24-.63.66-.32,1-.08a12.84,12.84,0,0,1,3.07,3.38A1.3,1.3,0,0,1,29.74,144.84Z"/>
      <path class="cls-92" d="M21.14,147.27a3.5,3.5,0,0,0,3.48-1.86c.2-.33.27-.74.61-1,.26.29.15.6,0,.91a3.88,3.88,0,0,1-4.9,2.34,1.46,1.46,0,0,1-.37-.33,1.43,1.43,0,0,1-.15-.27c-.2-.46-.21-1-.38-1.43a1.47,1.47,0,0,1-.13-.42.36.36,0,0,1,.11-.25,1.77,1.77,0,0,0,1.22-1.4c.22-.52.17-1.17.68-1.56.19,0,.33.06.23.29a8,8,0,0,1-1,3C20,146.35,20,146.65,21.14,147.27Z"/>
      <path class="cls-93" d="M21.58,142.3l-.21-.24c-.55-.92-1.55-1.38-2.24-2.15a.35.35,0,0,1,.07-.28c.47-.21.82.09,1.17.32.57.38,1,.42,1-.42a1.91,1.91,0,0,1,.11-.41c.2-.48.24-1,.7-1.37l.24-.23c.3-.79.65-1.54,1.69-1.5h.42l-.41.41c-1.66,1-2.16,2.71-2.34,4.53C21.76,141.41,21.88,141.89,21.58,142.3Z"/>
      <path class="cls-94" d="M29.74,144.84a.59.59,0,0,1-.41-.43c.18-.09.19-.27.22-.44C29.8,144.22,29.73,144.54,29.74,144.84Z"/>
      <path class="cls-14" d="M34.12,199.45c.48.17.48.6.73.85.51-.29.39-.89.68-1.35,1,.58,2,1.17,3,1.73a23.54,23.54,0,0,0,5,2.09,14.46,14.46,0,0,1,4.29,2.17c1,.75,1,.93.25,1.93-1.16,1.44-3,1.78-5.06.84a23.08,23.08,0,0,1-6-4.57c-.75-.71-1.41-1.51-2.14-2.25A2,2,0,0,1,34.12,199.45Z"/>
      <path class="cls-14" d="M72.85,39.51c.5-1,1.37-.74,2.14-.52a8.64,8.64,0,0,1,3.07,1.93,25.15,25.15,0,0,1,3.76,3.82,2.63,2.63,0,0,1,.67,1.44.78.78,0,0,1-.9.06,22.39,22.39,0,0,1-8.66-6.43A.47.47,0,0,1,72.85,39.51Z"/>
      <path class="cls-7" d="M72.85,39.51a43.09,43.09,0,0,0,4.78,4.28,13,13,0,0,0,4.86,2.39c-.39.74-1.1.51-1.62.39a17.34,17.34,0,0,1-7-3A3.16,3.16,0,0,1,72.85,39.51Z"/>
      <path class="cls-95" d="M17.21,149.17c1,.6.66,1.39.3,2.18-.93-.51-2-.65-2.94-1.14a2.15,2.15,0,0,1,.23-1.89c.65-.25,1.07.28,1.59.48A1.41,1.41,0,0,0,17.21,149.17Z"/>
      <path class="cls-96" d="M11.21,148.74,11,149c-.45-1.25-.2-1.77,1-1.7a5.56,5.56,0,0,1,2.89.82l-.06.14c-.1.26-.22.49-.55.28a3.34,3.34,0,0,0-1.78-.56C11.84,147.86,11.3,147.91,11.21,148.74Z"/>
      <path class="cls-97" d="M20.06,147.23l.22.23c1,1.13.95,2.15-.22,2.57h-.23v-.22c1.27-.79.26-1.58,0-2.36C19.76,147.21,19.87,147.17,20.06,147.23Z"/>
      <path class="cls-98" d="M16.39,148.8l-1.47-.46c-.12-.07-.13-.15,0-.25v0A1.93,1.93,0,0,1,16.39,148.8Z"/>
      <path class="cls-99" d="M58,140.11l-.66-.66a15.56,15.56,0,0,1-2.81-9.71,6.08,6.08,0,0,1,1.34-3.56c.32-.39.65-.79,1.25-.7a1.18,1.18,0,0,1-.12.92,9.32,9.32,0,0,0,.47,6.45c.13.34.19-.14.32-.1.58.19.5.74.59,1.16a22.21,22.21,0,0,0,1.21,4.23c.19.41.34,1,.92.91s.66-.6.83-1a4.25,4.25,0,0,0,0-2.75c-.21-.72-.49-1.42-.74-2.13-.16-.46-.42-.94,0-1.42.65,1.82,1.92,3.44,1.75,5.53a4.56,4.56,0,0,1-.55,1.94C61,140.47,59.78,141.31,58,140.11Z"/>
      <path class="cls-100" d="M60.53,131.72c.07,1.46,1,2.67,1.21,4.09a4.65,4.65,0,0,1-.45,3c-.19.36-.4.66-.88.65s-.67-.33-.86-.69A19.82,19.82,0,0,1,58,133.36c0-.21,0-.43-.2-.59a1.22,1.22,0,0,1-.38-.86,18.68,18.68,0,0,1-.07-5.12,3.17,3.17,0,0,1,1.2-2.2c.31-.25.61-.53,1-.3s.31.58.28.95a16.17,16.17,0,0,0,.28,4.55Z"/>
      <path class="cls-101" d="M60.11,129.79a12.25,12.25,0,0,1-.43-4.42c0-.33.2-.77-.25-1s-.81.19-1.06.53a4.6,4.6,0,0,0-.84,2.71,27.3,27.3,0,0,0,.23,5.11c0,.31,0,.62-.07.93-1.31-2.67-2.06-5.37-.6-8.22.65-.54,1.29-1.09,2-1.61.24-.18.54-.41.87-.25s.24.52.18.77C59.7,126.19,60.1,128,60.11,129.79Z"/>
      <path class="cls-7" d="M20.06,150c1.21-.76.52-1.68.22-2.57,2.51.62,4.53-.63,4.95-3h0c0-.72.74-1,1.07-1.47.11-.18.32,0,.44.09.29.3.67.52.79,1a9,9,0,0,1-3.17,5,12.85,12.85,0,0,1-2.29,1.66,13,13,0,0,0,4.66-.89c.41-.16.81-.5,1.29-.15a4.41,4.41,0,0,0,1.07,2c.32.63,0,.89-.57,1s-1.08-.06-1.56.26a7.23,7.23,0,0,0-3.46.66h-1.7L18.32,153c-.53-.27-.82-.62-.46-1.24a2.25,2.25,0,0,0,.24-.8c.07-.7.34-1,1.09-.77A.77.77,0,0,0,20.06,150Z"/>
      <path class="cls-84" d="M28,149.58a24.32,24.32,0,0,1-4.3,1.23,6.91,6.91,0,0,1-2-.06C24.2,149,26.42,147,27.38,144c.61,0,.78.5,1.07.86l.87.61c.78.16,1.14.74,1.57,1.57l-2.68-.7,1.94,3.23Z"/>
      <path class="cls-102" d="M14.7,150.25a3.32,3.32,0,0,1,2.81,1.1l-.24,1.48a39.16,39.16,0,0,0-.94,4.92c-.21.25-.53.24-.81.32-.6-.08-.69-.57-.78-1a19.59,19.59,0,0,1-.51-5.81C14.35,150.9,14.37,150.5,14.7,150.25Z"/>
      <path class="cls-103" d="M14.68,158.25a6.57,6.57,0,0,1-2.16-3.32,12.69,12.69,0,0,1-.88-3.37c-.21-.54.14-.83.54-1,.67-.26,1.33-.74,2.1-.28a26.29,26.29,0,0,0,.66,7.4.44.44,0,0,1-.08.49Z"/>
      <path class="cls-104" d="M15.94,158.44c.43,0,2,1.42,1.85,1.82-.2.56-.91.54-1.36.83-.27.17-.53.19-.68-.2s-.39-.83-.56-1.26C14.85,158.8,15.05,158.49,15.94,158.44Z"/>
      <path class="cls-105" d="M14.86,158.19a25.64,25.64,0,0,1-.81-7,2.08,2.08,0,0,1,.16-.92l.17,0c.32.29.17.63.11,1a22.7,22.7,0,0,0,.58,6c.09.34.09.72.45.93C15.33,158.26,15.09,158.19,14.86,158.19Z"/>
      <path class="cls-106" d="M14.21,150.23c-.58.16-1.16.3-1.73.49-.41.13-.81.31-.84.84-.07-.15-.14-.3-.2-.45l-.23-2.37c-.24-1,.22-1.26,1.1-1.09s1.75-.18,2.17.86c.31.63,0,1.18-.22,1.75Z"/>
      <path class="cls-14" d="M22.21,137.75l-.45,1.49c-.65.34-1-.26-1.37-.53a11.05,11.05,0,0,0-6.58-2.2,3.54,3.54,0,0,0-2.11.63c-.19,0-.34,0-.27-.27a5,5,0,0,1,3.08-3.18l1.21,0C18.32,134.33,20.3,136,22.21,137.75Z"/>
      <path class="cls-103" d="M18.57,134.32a15,15,0,0,1,6.24-2c.05.2.11.41.16.62a30.62,30.62,0,0,1-3.63,3.29A23.3,23.3,0,0,1,18.57,134.32Z"/>
      <path class="cls-107" d="M24.14,136c-.78.27-1.14,1-1.69,1.5l-.85-.85A6,6,0,0,1,25,133.49a.53.53,0,0,0,.08.17C25.09,134.58,24.41,135.22,24.14,136Z"/>
      <path class="cls-108" d="M25,133.49a12.63,12.63,0,0,0-3.38,3.18.4.4,0,0,1-.26-.41A14.05,14.05,0,0,1,25,133Z"/>
      <path class="cls-109" d="M25.42,132.84c-.17-.6.16-.67.55-.69.68,0,.56.55.65.9.17.66-.48.68-.8.68C25.11,133.74,25.63,133.06,25.42,132.84Z"/>
      <path class="cls-14" d="M19.2,139.86l1.71,1.2a1,1,0,0,1,.46,1l-.48,1.68c-.46.37-.73-.06-1-.27a13.84,13.84,0,0,0-7.4-2.62,17.47,17.47,0,0,0-2,.27.49.49,0,0,1-.3-.14l.4-.87a4.45,4.45,0,0,1,2.82-1.54A6.56,6.56,0,0,1,19.2,139.86Z"/>
      <path class="cls-7" d="M11.63,137.08c.29-.83,1-.79,1.68-.84a11.22,11.22,0,0,1,7.73,2.6c.22.17.39.43.72.4-.35.41.09,1.24-.47,1.39s-.95-.41-1.4-.69a3.38,3.38,0,0,0-.69-.26,11.52,11.52,0,0,0-5.82-1.29,2.53,2.53,0,0,0-1.41.26c-.33.18-.69.32-.72-.29C11.49,138,11.13,137.39,11.63,137.08Z"/>
      <path class="cls-110" d="M13.38,138.39c1.6-.51,3.07.14,4.55.59.44.13,1,.17,1.27.7v.18a11.42,11.42,0,0,0-5.82-1.29Z"/>
      <path class="cls-111" d="M11.63,137.08c-.26.39,0,.92-.38,1.28v-1.44l.18,0Z"/>
      <path class="cls-7" d="M10.38,141c2.47-.92,4.76-.07,7,.72a22.85,22.85,0,0,1,3.47,2c-.29.66-.44,1.49-1.48,1.32a3.18,3.18,0,0,1-1.61-.28c-1.51-.71-2.93-1.68-4.68-1.74a3.68,3.68,0,0,0-1.68.09h0a1,1,0,0,0-.43,0c-1,.34-1.31-.18-1.3-1.08l.21-.22C10.15,141.59,10,141.12,10.38,141Z"/>
      <path class="cls-112" d="M10.38,141l-.44.85c0-.3-.09-.64.22-.86Z"/>
      <path class="cls-113" d="M11.44,143.14a5.66,5.66,0,0,1,4,.24,20.78,20.78,0,0,1,2.44,1.25.2.2,0,0,1,.08.21c-.15.1-.1.22,0,.33s-.1.23-.25.11A9.09,9.09,0,0,0,11.44,143.14Z"/>
      <path class="cls-114" d="M17.71,145.28l.19-.16c.38-.23.57.12.8.29a.37.37,0,0,0,.53,0,.28.28,0,0,0,.09-.1l.12-.07.19.22c.19.49-.12,1.13.43,1.52v.21l-.22.22Z"/>
      <path class="cls-80" d="M74.72,131.49a5.66,5.66,0,0,1,8-4.39A26.15,26.15,0,0,1,90.16,132a85.55,85.55,0,0,1,12.38,13.69,6.78,6.78,0,0,1,1.25,7.8c-.36.32-.72.15-1.1,0a45.1,45.1,0,0,1-15-8.05,67.18,67.18,0,0,1-12.6-13A1.47,1.47,0,0,1,74.72,131.49Z"/>
      <path class="cls-83" d="M77,103.52a11.3,11.3,0,0,0-.08-1.17,1.17,1.17,0,0,0-.89-1,1,1,0,0,0-1.2.49c-.53.72-1,1.49-1.54,2.2-.39.51-.87.61-1.11-.12-.91-2.7-1.59-5.44-.92-8.32.39-1.68,1.24-3.05,3-3.46a4.68,4.68,0,0,1,4.82,1.67c1.69,2,1.9,4.26,1.5,6.69a14.84,14.84,0,0,1-1.27,4.31c-.31.63-.63,1.47-1.52,1.24s-.79-1.09-.86-1.8a6.26,6.26,0,0,1,0-.75Z"/>
      <path class="cls-115" d="M48.72,95.15a5.68,5.68,0,0,1,4.59-1.23c4.54.74,7.46,3.86,8.29,8.57a12.07,12.07,0,0,1,.27,3.79A7.11,7.11,0,0,1,57,112.1a6.64,6.64,0,0,1-5.28-.22c.31-.29.66-.18,1-.12,4.34.68,7.21-3,7.33-6.3A10.23,10.23,0,0,0,56.51,97,7.15,7.15,0,0,0,50,95.12C49.56,95.2,49.14,95.43,48.72,95.15Z"/>
      <path class="cls-116" d="M48.72,95.15c6-2.22,11.17,3.3,11.6,8.56A8.09,8.09,0,0,1,59,109.43a6.2,6.2,0,0,1-6.4,2.56l-.85-.11A10.17,10.17,0,0,1,45,103.67C44.4,100.07,45.46,97.11,48.72,95.15Z"/>
      <path class="cls-117" d="M42.26,108c1.82,2.84,3,5.81,2.06,9.27,0,.08.07.19.11.28-.6.69-1.36,1.29-1.38,2.33-.31-.5-.6-.2-.94,0a4.65,4.65,0,0,1-4.41.45.79.79,0,0,1,.61-.29,5.4,5.4,0,0,0,5.15-4.84,9.54,9.54,0,0,0-1-5.91c-.18-.37-.47-.73-.28-1.2Z"/>
      <path class="cls-118" d="M49.58,117.39c0,.53-.12.83-.58.8a1,1,0,0,1-1-1c0-.4.09-.77.53-.75A1,1,0,0,1,49.58,117.39Z"/>
      <path class="cls-119" d="M46,119.86c0,.45-.16.7-.56.69a1,1,0,0,1-1.06-.93v-.05a.5.5,0,0,1,.38-.62.52.52,0,0,1,.17,0A1.05,1.05,0,0,1,46,119.86Z"/>
      <path class="cls-120" d="M46.71,116.82a1.94,1.94,0,0,1,1.7-1.72c.88-.13,1.68.55,2.15,1.83-.79-.39-1-1.4-2-1.43S47.34,116.36,46.71,116.82Z"/>
      <path class="cls-121" d="M43.05,119.87c-.25-1.19.46-1.82,1.38-2.33.17,0,.38-.07.5,0s0,.26-.09.32c-.65.31-1.4.56-1.46,1.41s.61,1.25,1,1.82c0,0,0,.13-.07.3A3.33,3.33,0,0,1,43.05,119.87Z"/>
      <path class="cls-122" d="M36.21,119.84a6,6,0,0,1-2.77-1.92.32.32,0,0,1,.3-.28,12.65,12.65,0,0,1,2.56,1.93A.33.33,0,0,1,36.21,119.84Z"/>
      <path class="cls-123" d="M36.21,119.84l0-.3a4.53,4.53,0,0,1,2.42.18c.41.47-.11.41-.3.54l-.67.06Z"/>
      <path class="cls-124" d="M33.63,117.7l-.19.22-.51-.41-.39-.64c-.11-.21,0-.28.19-.33A1.13,1.13,0,0,1,33.63,117.7Z"/>
      <path class="cls-125" d="M38.37,120.26l.42-.36a1,1,0,0,1,.71-.44c3-.86,3.73-3.76,3.67-5.79a9.34,9.34,0,0,0-3.07-6.86,5.53,5.53,0,0,0-6.2-1.33,1.2,1.2,0,0,1-.62.11c-.17,0-.31-.13-.29-.34,1.94-1.44,4-1.12,6-.24l1.49,1.08c.57.66,1.13,1.33,1.69,2a11.92,11.92,0,0,1,1.68,5.15c.18,3.17-1.31,6.25-4.31,6.93A3.09,3.09,0,0,1,38.37,120.26Z"/>
      <path class="cls-126" d="M33,105.25l.25.21a.76.76,0,0,1-.27.67,6.76,6.76,0,0,0-1.86,5.59c-.07.32,0,.75-.47.81l-.06-.75a5.11,5.11,0,0,1,0-1.91A5.63,5.63,0,0,1,33,105.25Z"/>
      <path class="cls-127" d="M30.64,112.53c.28-.25.14-.59.2-.89a.37.37,0,0,1,.38.32,30.89,30.89,0,0,0,1,3.5.45.45,0,0,1-.33.36l-.18-.08A11.64,11.64,0,0,1,30.64,112.53Z"/>
      <path class="cls-127" d="M30.58,109.87v1.9A2.94,2.94,0,0,1,30.58,109.87Z"/>
      <path class="cls-128" d="M31.88,115.82l.21-.26a.84.84,0,0,1,.69,1,.44.44,0,0,1,0,.1l-.22.23-.26-.23Z"/>
      <path class="cls-92" d="M28.45,144.87,27.38,144c-.95-1.24-1.12-1.21-2.16.42,0-.31,0-.6.24-.88a2,2,0,0,0,.76-1.58C26.78,143.24,28.07,143.66,28.45,144.87Z"/>
      <path class="cls-129" d="M20.06,147c-.84-.31-.46-1-.43-1.52C20,145.94,19.83,146.53,20.06,147Z"/>
      <path class="cls-130" d="M17.9,144.83c0-.07,0-.13,0-.2a3.43,3.43,0,0,1,1.5.44.64.64,0,0,0,0,.2l0,0C18.76,145.63,18.36,145.13,17.9,144.83Z"/>
      <path class="cls-131" d="M14.26,150.26c.08-.58.15-1.16.22-1.75l.41-.42,0,.25c0,.65-.35,1.25-.22,1.91l-.21.91C14.4,150.87,14.58,150.5,14.26,150.26Z"/>
      <path class="cls-132" d="M17.9,144.83l1.51.46c0,.59-.05,1.11-.77.4a8.52,8.52,0,0,0-.74-.57C17.76,145,17.68,144.93,17.9,144.83Z"/>
      <path class="cls-82" d="M59.92,104.66c0,3.64-2,6.38-5.19,6.92a6.77,6.77,0,0,1-5.68-1.73,9.65,9.65,0,0,1-3.57-9.57,6.14,6.14,0,0,1,9-4.49A10,10,0,0,1,59.92,104.66Z"/>
      <path class="cls-82" d="M32.76,116.64l-.67-1.08a15.32,15.32,0,0,1-1.25-3.92,7.07,7.07,0,0,1,2.4-6.18,5.47,5.47,0,0,1,6.81.94,9.2,9.2,0,0,1,3,9.69,4.87,4.87,0,0,1-4.3,3.81,10.89,10.89,0,0,1-2.54-.36,14.52,14.52,0,0,1-2.62-1.84Z"/>
      <path class="cls-133" d="M52.25,104.16a3.42,3.42,0,0,1,3.48-3.56,4,4,0,0,1,3.41,4.24,3.44,3.44,0,0,1-3.45,3.51A3.91,3.91,0,0,1,52.25,104.16Z"/>
      <path class="cls-134" d="M42.78,113.06c0,1.83-.91,3.15-2.19,3.42a3,3,0,0,1-3.32-2.1,4.15,4.15,0,0,1-.33-2.2c.26-1.65,1.17-2.71,2.46-2.83a3.17,3.17,0,0,1,3,2.27A10,10,0,0,1,42.78,113.06Z"/>
      <path class="cls-83" d="M52.79,104.29c0-1.89,1-3.14,2.57-3.16a3.1,3.1,0,0,1,3.23,3v.14a3.8,3.8,0,0,1-.22,1.89A2.79,2.79,0,0,1,55,107.79,3.43,3.43,0,0,1,52.79,105C52.77,104.79,52.79,104.54,52.79,104.29Z"/>
      <path class="cls-83" d="M39.61,109.75a2.23,2.23,0,0,1,1.8,1,3.86,3.86,0,0,1,.53,4.28,2.26,2.26,0,0,1-3.1.76,2.1,2.1,0,0,1-.61-.54,3.9,3.9,0,0,1-.33-4.59A2.24,2.24,0,0,1,39.61,109.75Z"/>
      <path class="cls-135" d="M58,103.29a.84.84,0,0,1-.78.91h-.1a.91.91,0,0,1-.08-1.82.88.88,0,0,1,1,.77Z"/>
      <path class="cls-136" d="M57.45,105.53c-.13.2-.23.39-.44.34s-.34-.18-.29-.37.17-.35.38-.28S57.34,105.43,57.45,105.53Z"/>
      <path class="cls-135" d="M41.63,111.71c-.05.53-.29.86-.8.84a.75.75,0,0,1-.75-.76v-.09a.75.75,0,0,1,.63-.85h.11C41.37,110.83,41.59,111.24,41.63,111.71Z"/>
      <path class="cls-137" d="M41.11,114.08c-.18,0-.32-.15-.26-.35s.19-.28.25-.27a.34.34,0,0,1,.28.37A.27.27,0,0,1,41.11,114.08Z"/>
    </g>
  </g>
</svg>
