<?xml version="1.0" encoding="utf-8"?>
<!-- Generator: Adobe Illustrator 25.2.3, SVG Export Plug-In . SVG Version: 6.00 Build 0)  -->
<svg version="1.1" id="Layer_1" xmlns="http://www.w3.org/2000/svg" xmlns:xlink="http://www.w3.org/1999/xlink" x="0px" y="0px"
	 viewBox="0 0 113.5 214" style="enable-background:new 0 0 113.5 214;" xml:space="preserve">
<style type="text/css">
	.st0{opacity:0.5;enable-background:new    ;}
	.st1{fill:#FFFFFF;}
	.st2{fill:#E5A21A;stroke:#A06804;stroke-miterlimit:10;}
	.st3{fill:#C1C1C1;}
	.st4{fill:#E5E5E5;}
	.st5{fill:#F9F9F9;}
	.st6{fill:#FFB91D;}
	.st7{fill:#E5A21A;}
	.st8{fill:#A36707;stroke:#6B4809;stroke-miterlimit:10;}
	.st9{fill:#FCD89A;}
	.st10{opacity:0.4;fill:#FFFFFF;enable-background:new    ;}
	.st11{fill:#BDBDBD;}
	.st12{fill:#212121;}
	.st13{fill:#F5F5F5;}
	.st14{fill:#D32F2F;}
</style>
<g>
	<path class="st0" d="M113.3,103.9c-0.4-1.5-1.2-2.9-2.2-4.1c-2.2-11.4-8-21.8-16.7-29.6c-1.9-3.5-3.3-7.3-4.1-11.2
		c0-0.2-0.1-0.4-0.1-0.6c-0.5-3.1-1.5-12.1-2.4-20.9c-1.1-10.5-2.2-20.4-2.8-24l-0.1-0.4c0-0.3-0.1-0.5-0.2-0.7c0,0,0,0,0-0.1
		c-0.1-0.4-0.2-0.7-0.3-0.9C84,10.5,83.6,9.7,83.1,9C80.4,5.4,77,5,64.7,5c-1.6,0-3.1,0-4.4,0c-2.2,0-4.4,0-6.3,0h-3.2
		c-1.3,0-2.8,0-4.1,0h-0.1c-7.5,0.1-11.5,0.4-14.2,4c-1.7,2.3-1.8,2.4-4.6,28.6c-0.9,8.5-2.1,19.2-2.5,21.3
		c-0.9,4.7-2.6,9.1-5.2,13.1c-0.4,0.6-0.9,1.1-1.3,1.7C0,94.3,0.4,126,19.8,146.1c2.7,4.3,4.5,9,5.5,14c0.4,2.1,1.6,12.7,2.5,21.3
		c2.9,26.2,2.9,26.3,4.6,28.6c2.3,3.1,5.9,3.5,8,3.7c2.5,0.2,4.9,0.3,7.4,0.3h13h3.9c3,0,5.5,0,7.4-0.1c0.6,0,1.1,0,1.3-0.1
		c0.7,0,1.3-0.1,1.8-0.1c1.8-0.1,5.4-0.5,7.8-3.7c1.7-2.2,1.7-2.5,5.4-30c1.1-8.1,2.3-17.3,2.7-19.3c0.9-4.7,2.5-9.2,4.6-13.6
		c6.8-6.5,11.8-14.7,14.3-23.7c1.1-0.9,2-2,2.6-3.3C113.9,117,113.6,105,113.3,103.9z"/>
	<path class="st1" d="M108.3,98.9c-0.4-1.5-1.2-2.9-2.2-4.1c-2.2-11.4-8-21.8-16.7-29.6c-1.9-3.5-3.3-7.3-4.1-11.2
		c0-0.2-0.1-0.4-0.1-0.6c-0.5-3.1-1.5-12.1-2.4-20.9c-1.1-10.5-2.2-20.4-2.8-24l-0.1-0.4c0-0.3-0.1-0.5-0.2-0.7c0,0,0,0,0-0.1
		c-0.1-0.4-0.2-0.7-0.3-0.9C79,5.5,78.6,4.7,78.1,4C75.4,0.4,72,0,59.7,0c-1.6,0-3.1,0-4.4,0c-2.2,0-4.4,0-6.3,0h-3.2
		c-1.3,0-2.8,0-4.1,0h-0.1c-7.5,0.1-11.5,0.4-14.2,4c-1.7,2.3-1.8,2.4-4.6,28.6c-0.9,8.5-2.1,19.2-2.5,21.3
		c-0.9,4.7-2.6,9.1-5.2,13.1c-0.4,0.6-0.9,1.1-1.3,1.7C-5,89.3-4.6,121,14.8,141.1c2.7,4.3,4.5,9,5.5,14c0.4,2.1,1.6,12.7,2.5,21.3
		c2.9,26.2,2.9,26.3,4.6,28.6c2.4,3.1,5.9,3.5,8,3.7c2.5,0.2,4.9,0.3,7.4,0.3h13h3.9c3,0,5.5,0,7.4-0.1c0.6,0,1.1,0,1.3-0.1
		c0.7,0,1.3-0.1,1.8-0.1c1.8-0.1,5.4-0.5,7.8-3.7c1.7-2.2,1.7-2.5,5.4-30c1.1-8.1,2.3-17.3,2.7-19.3c0.9-4.7,2.5-9.2,4.6-13.6
		c6.8-6.5,11.8-14.7,14.3-23.7c1.1-0.9,2-2,2.6-3.3C108.9,112,108.6,100,108.3,98.9z"/>
	<g>
		<path class="st2" d="M99,104.3c0,24.9-21,45.1-45.9,45.1c-24.9,0-45-20.2-45-45s20.2-45,45-45C77.9,59.3,99,79.4,99,104.3z"/>
		<circle class="st3" cx="52.8" cy="104.6" r="38.8"/>
		<circle class="st4" cx="52.8" cy="102.4" r="33.8"/>
		<circle class="st5" cx="53.2" cy="99.8" r="28.2"/>
		<path class="st2" d="M85,73.1c0,0-5.4-6.3-7.7-17.7C76.2,50,72.5,9.9,71.7,8.8S55.5,8,52.8,8.1s-18.2-0.3-19,0.7
			S29.2,50,28.1,55.5c-2.3,11.3-7.6,17.7-7.6,17.7L37,64.5l19-5.1L85,73.1z"/>
		<path class="st2" d="M85,135.9c-3.2,5.6-5.5,11.8-6.7,18.2c-1.1,5.5-5.8,45-6.6,46.2s-16.1,0.8-18.9,0.7s-18.2,0.3-19-0.7
			s-4.6-41.2-5.7-46.7c-1.2-6.5-3.8-12.7-7.6-18.2l29.9,21.2l2.5-5.9L85,135.9z"/>
		<path class="st6" d="M63.5,9.9c-0.9-0.2-21.8-0.1-24,0s-3.7,1.4-4.3,3.9s-2,27.2-3.4,36.6s-5.2,15-11.9,23.4s-11,18.8-10.8,33.3
			s12.3,25.6,12.3,25.6c-7.5-7.7-11.1-18.4-9.7-29c2.1-18.3,15-37.8,38.1-39.8c13.5-1.3,26.7,4.2,35.2,14.7c0,0-8.9-13-23-16.9
			S48.6,30.9,51.7,22.6S63.5,9.9,63.5,9.9z"/>
		<path class="st6" d="M63.5,199.7c-0.9,0.2-21.8,0.1-24,0s-3.7-1.4-4.3-3.9s-2-27.2-3.4-36.6s-4.5-16.3-11.3-24.7
			S8.9,117,9.1,102.5s12.3-25.6,12.3-25.6c-7.5,7.7-11.1,18.4-9.7,29c2.1,18.3,15,37.8,38.1,39.8C63.2,147,76.4,141.5,85,131
			c0,0-8.9,13-23,16.9S48.6,178.7,51.7,187S63.5,199.7,63.5,199.7z"/>
		<path class="st7" d="M33.8,200.2c0.6,0.3,2.4,0.8,9.7,0.8s22,0,24.3-0.2s3.5-0.2,3.8-0.6s4.8-40.7,6.2-49.1s7.1-15.2,7.1-15.2
			s12.7-10,13.1-31.5c0.3-12.7-5-24.8-14.5-33.2c0,0-4-4.7-6.2-15.4s-4.9-46-5.7-47S41.8,8,41.8,8S65,8.2,65.6,9.8
			s3.8,48.7,6.4,54.1s8.8,8.8,8.8,8.8s14.4,11.6,14.3,31.4S78.7,134.9,74,142.9s-7.4,50.4-8,53.7s-1.9,3.5-5.1,3.9
			S33.8,200.2,33.8,200.2z"/>
		<path class="st8" d="M96.6,95.9c0,0,3.8,4.5,3.9,5s-0.1,10.4-0.3,10.9c-1.3,1.1-2.6,2.1-4,3L96.6,95.9z"/>
		<path class="st9" d="M40.9,10.8c-1.2,0-3.4,1.1-4.3,5.2s-1.2,26.9-2.2,34.1s-3.2,10.7-3.2,10.7s6.8-2.7,8.6-7.5s1.9-23.1,2.5-30.5
			s4-11.5,5.9-11.9H40.9z"/>
		<path class="st9" d="M29.5,143.8c0,0,4.4,3.7,4.8,11.8s2.2,36.2,3,38.3c0.7,2.4,2.8,4.1,5.3,4.1c3.1,0.2,7.8,0,7.8,0
			s-6.3-1.2-7.5-7.1s-1.1-35.6-2.3-40.2S29.5,143.8,29.5,143.8z"/>
		<path class="st10" d="M15.3,94.8l53-25.7c0,0,7.9,1.9,15.3,12l-68.1,34.1C15.5,115.2,12.2,102.7,15.3,94.8z"/>
		<path class="st10" d="M18.3,122.3l70.1-33.1c0.9,2.2,1.6,4.4,2.2,6.7l-66.7,34.6C23.9,130.5,18.5,124.6,18.3,122.3z"/>
		<path class="st10" d="M34.3,138.7l57.1-30.3c-1,11.7-7.4,22.2-17.2,28.6C57.5,147.9,40.6,143,34.3,138.7z"/>
		<g>
			<path class="st11" d="M52.8,105.7c-1.7,0-3-1.3-3-3s1.3-3,3-3s3,1.3,3,3S54.4,105.7,52.8,105.7z"/>
			<path class="st12" d="M52.8,121.7c-10.5,0-19.1-8.5-19.1-19.1c0-10.5,8.5-19.1,19.1-19.1c10.5,0,19.1,8.5,19.1,19.1c0,0,0,0,0,0
				C71.8,113.2,63.3,121.7,52.8,121.7z M52.8,83.7c-10.5,0-19,8.5-19,19s8.5,19,19,19s19-8.5,19-19l0,0
				C71.8,92.2,63.3,83.7,52.8,83.7C52.8,83.7,52.8,83.7,52.8,83.7L52.8,83.7z"/>
			<g>
				<g>
					<path class="st12" d="M52.8,72.1c-0.5,0-0.9-0.4-0.9-0.8s0.4-0.8,0.8-0.8c0.5,0,0.9,0.4,0.9,0.8l0,0
						C53.6,71.7,53.2,72.1,52.8,72.1z"/>
					<path class="st12" d="M37.5,76.2c-0.4,0.2-0.9,0.1-1.1-0.4c-0.2-0.4-0.1-0.9,0.3-1.1c0.4-0.3,0.9-0.1,1.2,0.3
						C38,75.3,37.9,75.9,37.5,76.2C37.5,76.1,37.5,76.1,37.5,76.2z"/>
					<path class="st12" d="M26.3,87.4c-0.3,0.4-0.8,0.5-1.2,0.3c-0.4-0.2-0.5-0.7-0.3-1.1c0.2-0.4,0.7-0.6,1.1-0.4
						C26.4,86.4,26.5,86.9,26.3,87.4C26.3,87.3,26.3,87.3,26.3,87.4z"/>
					<path class="st12" d="M22.2,102.7c0,0.5-0.4,0.8-0.8,0.8c-0.5,0-0.9-0.4-0.9-0.8c0-0.5,0.4-0.8,0.8-0.8c0,0,0,0,0,0
						C21.8,101.8,22.2,102.2,22.2,102.7z"/>
					<path class="st12" d="M26.3,118c0.2,0.4,0.1,0.9-0.3,1.2c0,0,0,0,0,0c-0.4,0.2-0.9,0.1-1.2-0.3c-0.2-0.4-0.1-0.9,0.3-1.2
						C25.5,117.4,26,117.6,26.3,118C26.3,118,26.3,118,26.3,118z"/>
					<path class="st12" d="M37.5,129.1c0.4,0.2,0.6,0.8,0.3,1.2c-0.2,0.4-0.8,0.6-1.2,0.3c-0.4-0.2-0.6-0.7-0.3-1.2
						C36.5,129.1,37,128.9,37.5,129.1C37.5,129.1,37.5,129.1,37.5,129.1z"/>
					<path class="st12" d="M52.8,133.3c0.5,0,0.9,0.4,0.9,0.9c0,0.5-0.4,0.8-0.8,0.8s-0.8-0.4-0.9-0.8S52.3,133.3,52.8,133.3
						L52.8,133.3z"/>
					<path class="st12" d="M68.1,129.1c0.4-0.2,0.9-0.1,1.2,0.3s0.1,0.9-0.3,1.2c-0.4,0.2-0.9,0.1-1.2-0.3
						C67.5,129.9,67.7,129.4,68.1,129.1z"/>
					<path class="st12" d="M79.3,118c0.3-0.4,0.8-0.5,1.2-0.2c0.3,0.2,0.5,0.7,0.3,1.1c-0.2,0.4-0.7,0.6-1.1,0.4s-0.6-0.7-0.4-1.1
						C79.2,118.1,79.2,118,79.3,118z"/>
					<path class="st12" d="M83.4,102.7c0-0.5,0.4-0.8,0.8-0.8c0.5,0,0.8,0.4,0.8,0.8c0,0.5-0.4,0.8-0.8,0.8l0,0
						C83.7,103.5,83.4,103.1,83.4,102.7z"/>
					<path class="st12" d="M79.3,87.4c-0.2-0.4-0.1-0.9,0.3-1.2c0,0,0,0,0,0c0.4-0.2,0.9-0.1,1.2,0.3c0.3,0.4,0.1,0.9-0.3,1.2
						C80.1,87.9,79.6,87.8,79.3,87.4C79.3,87.4,79.3,87.4,79.3,87.4z"/>
					<path class="st12" d="M68.1,76.2c-0.4-0.2-0.5-0.8-0.3-1.2s0.8-0.5,1.2-0.3s0.5,0.8,0.3,1.2c0,0,0,0,0,0
						C69,76.3,68.5,76.4,68.1,76.2z"/>
				</g>
				<g>
					<path class="st12" d="M50,71.5c-0.3,0-0.5-0.2-0.5-0.5c-0.1-0.3,0.1-0.6,0.4-0.6c0.3-0.1,0.6,0.1,0.6,0.4c0,0.1,0,0.1,0,0.2
						C50.5,71.2,50.3,71.5,50,71.5z"/>
					<path class="st12" d="M47.3,71.8c-0.3,0-0.5-0.2-0.6-0.5c0-0.2,0.1-0.5,0.4-0.5c0.3,0,0.5,0.1,0.6,0.4
						C47.8,71.5,47.6,71.8,47.3,71.8C47.3,71.8,47.3,71.8,47.3,71.8z"/>
					<path class="st12" d="M44.7,72.4c-0.3,0.1-0.5-0.1-0.6-0.3c0,0,0,0,0,0c-0.1-0.3,0.1-0.6,0.4-0.6c0.3-0.1,0.6,0.1,0.6,0.4l0,0
						C45.1,72.1,45,72.4,44.7,72.4C44.7,72.4,44.7,72.4,44.7,72.4z"/>
					<path class="st12" d="M42.1,73.3c-0.3,0.1-0.6,0-0.7-0.3c-0.1-0.3,0-0.6,0.3-0.7c0.3-0.1,0.6,0,0.7,0.3c0,0,0,0,0,0
						C42.5,72.9,42.3,73.2,42.1,73.3C42.1,73.3,42.1,73.3,42.1,73.3z"/>
					<path class="st12" d="M39.5,74.3c-0.3,0.1-0.6,0-0.7-0.3s0-0.6,0.3-0.7l0,0c0.3-0.1,0.6,0,0.7,0.3S39.8,74.2,39.5,74.3z"/>
					<path class="st12" d="M34.8,77c-0.2,0.2-0.5,0.1-0.7-0.1c-0.2-0.2-0.1-0.5,0.1-0.7c0,0,0,0,0,0c0.2-0.2,0.5-0.1,0.7,0.1
						C35.1,76.5,35,76.8,34.8,77z"/>
					<path class="st12" d="M32.7,78.7c-0.2,0.2-0.5,0.1-0.7-0.1c0,0,0,0,0,0c-0.2-0.2-0.2-0.5,0.1-0.7c0.2-0.2,0.5-0.1,0.7,0.1
						c0,0,0,0,0,0C32.9,78.2,32.9,78.5,32.7,78.7z"/>
					<path class="st12" d="M30.6,80.5c-0.2,0.2-0.5,0.2-0.7,0c-0.2-0.2-0.2-0.5,0-0.7c0.2-0.2,0.5-0.2,0.7,0c0,0,0,0,0,0
						C30.8,80,30.8,80.3,30.6,80.5z"/>
					<path class="st12" d="M28.8,82.6c-0.2,0.2-0.5,0.2-0.7,0.1s-0.2-0.5-0.1-0.7c0.2-0.2,0.5-0.3,0.7-0.1
						C28.9,81.9,29,82.2,28.8,82.6C28.8,82.5,28.8,82.5,28.8,82.6L28.8,82.6z"/>
					<path class="st12" d="M27.1,84.7c-0.2,0.2-0.5,0.3-0.7,0.1c-0.2-0.2-0.3-0.5-0.1-0.7c0.2-0.2,0.5-0.3,0.7-0.1
						C27.2,84.2,27.3,84.5,27.1,84.7C27.1,84.7,27.1,84.7,27.1,84.7z"/>
					<path class="st12" d="M24.4,89.4c-0.1,0.2-0.4,0.4-0.7,0.3c-0.3-0.1-0.4-0.4-0.3-0.7c0,0,0,0,0,0c0.1-0.3,0.4-0.4,0.7-0.3
						C24.4,88.9,24.5,89.2,24.4,89.4z"/>
					<path class="st12" d="M23.4,92c-0.1,0.3-0.4,0.4-0.6,0.3c-0.3-0.1-0.4-0.4-0.3-0.7c0.1-0.3,0.4-0.4,0.6-0.3
						C23.3,91.4,23.5,91.7,23.4,92C23.4,92,23.4,92,23.4,92z"/>
					<path class="st12" d="M22.5,94.6c-0.1,0.3-0.3,0.4-0.6,0.4c0,0,0,0,0,0c-0.3-0.1-0.4-0.3-0.4-0.6c0,0,0,0,0,0
						c0.1-0.3,0.4-0.4,0.6-0.4C22.4,94,22.6,94.3,22.5,94.6z"/>
					<path class="st12" d="M22,97.2c-0.1,0.3-0.4,0.4-0.6,0.4c-0.2-0.1-0.4-0.3-0.4-0.5c0.1-0.3,0.3-0.5,0.6-0.4
						C21.9,96.7,22,97,22,97.2z"/>
					<path class="st12" d="M21.6,99.9c0,0.3-0.3,0.5-0.6,0.5c-0.3,0-0.5-0.3-0.5-0.6s0.3-0.5,0.6-0.5c0,0,0,0,0,0
						C21.4,99.4,21.6,99.7,21.6,99.9z"/>
					<path class="st12" d="M21.6,105.4c0,0.3-0.2,0.5-0.5,0.6c-0.3,0-0.5-0.2-0.6-0.5c0-0.3,0.2-0.5,0.5-0.6c0,0,0,0,0,0
						C21.3,104.9,21.6,105.1,21.6,105.4C21.6,105.4,21.6,105.4,21.6,105.4z"/>
					<path class="st12" d="M22,108.1c0,0.3-0.1,0.5-0.4,0.6c-0.3,0.1-0.5-0.1-0.6-0.4c0,0,0,0,0,0c0-0.3,0.2-0.5,0.5-0.6
						C21.7,107.7,21.9,107.9,22,108.1L22,108.1z"/>
					<path class="st12" d="M22.5,110.8c0.1,0.3-0.1,0.6-0.4,0.6c-0.3,0.1-0.6-0.1-0.6-0.4c-0.1-0.3,0.1-0.6,0.4-0.6c0,0,0,0,0,0
						C22.2,110.3,22.5,110.5,22.5,110.8z"/>
					<path class="st12" d="M23.4,113.4c0.1,0.3,0,0.6-0.3,0.7c-0.3,0.1-0.6,0-0.7-0.3c-0.1-0.3,0-0.5,0.3-0.6c0,0,0,0,0,0
						C23,113,23.3,113.1,23.4,113.4z"/>
					<path class="st12" d="M24.4,115.9c0.1,0.3,0,0.6-0.3,0.7c-0.2,0.1-0.5,0-0.7-0.2c-0.1-0.3,0-0.6,0.3-0.7
						C24,115.5,24.3,115.6,24.4,115.9z"/>
					<path class="st12" d="M27.1,120.6c0.2,0.2,0.1,0.6-0.1,0.7c-0.2,0.2-0.6,0.1-0.7-0.1c-0.2-0.2-0.1-0.5,0.1-0.7c0,0,0,0,0,0
						C26.7,120.3,27,120.4,27.1,120.6z"/>
					<path class="st12" d="M28.8,122.8c0.2,0.2,0.2,0.5-0.1,0.7c-0.2,0.2-0.5,0.2-0.7-0.1l0,0c-0.2-0.2-0.2-0.5,0.1-0.7c0,0,0,0,0,0
						C28.3,122.5,28.6,122.6,28.8,122.8z"/>
					<path class="st12" d="M30.6,124.8c0.2,0.2,0.2,0.5,0,0.7c-0.2,0.2-0.5,0.2-0.7,0s-0.2-0.5,0-0.7c0,0,0,0,0,0
						C30.1,124.6,30.4,124.6,30.6,124.8z"/>
					<path class="st12" d="M32.6,126.6c0.2,0.2,0.3,0.5,0.1,0.7c0,0,0,0,0,0c-0.2,0.2-0.5,0.2-0.7,0.1c-0.2-0.2-0.2-0.5-0.1-0.7
						c0,0,0,0,0,0C32.1,126.5,32.4,126.5,32.6,126.6z"/>
					<path class="st12" d="M34.8,128.3c0.2,0.2,0.3,0.5,0.1,0.7c-0.2,0.2-0.5,0.3-0.7,0.1l0,0c-0.2-0.2-0.3-0.5-0.1-0.7c0,0,0,0,0,0
						C34.3,128.2,34.6,128.1,34.8,128.3C34.8,128.3,34.8,128.3,34.8,128.3z"/>
					<path class="st12" d="M39.5,131c0.3,0.1,0.4,0.4,0.3,0.7c0,0,0,0,0,0c-0.1,0.3-0.4,0.4-0.6,0.3c-0.3-0.1-0.4-0.4-0.3-0.6
						c0,0,0-0.1,0.1-0.1C39,131,39.3,130.9,39.5,131C39.5,131,39.5,131,39.5,131z"/>
					<path class="st12" d="M42,132.1c0.3,0.1,0.4,0.4,0.3,0.6c-0.1,0.3-0.4,0.4-0.7,0.3s-0.4-0.4-0.3-0.7
						C41.5,132.1,41.8,132,42,132.1C42,132.1,42,132.1,42,132.1z"/>
					<path class="st12" d="M44.7,132.9c0.3,0.1,0.4,0.4,0.4,0.6c-0.1,0.3-0.3,0.4-0.6,0.4c0,0,0,0,0,0c-0.3-0.1-0.4-0.3-0.4-0.6
						c0,0,0,0,0,0C44.1,133,44.4,132.8,44.7,132.9z"/>
					<path class="st12" d="M47.3,133.5c0.3,0.1,0.5,0.3,0.4,0.6c-0.1,0.3-0.3,0.5-0.6,0.4c-0.3,0-0.5-0.3-0.4-0.6c0,0,0,0,0,0
						C46.8,133.6,47,133.4,47.3,133.5z"/>
					<path class="st12" d="M50,133.8c0.3,0,0.5,0.3,0.5,0.6c0,0.3-0.3,0.5-0.5,0.5c0,0,0,0,0,0c-0.3-0.1-0.4-0.4-0.4-0.6
						C49.6,134,49.8,133.9,50,133.8L50,133.8z"/>
					<path class="st12" d="M55.5,133.8c0.3,0,0.5,0.3,0.5,0.6c0,0.2-0.2,0.4-0.4,0.4c-0.3,0-0.5-0.3-0.5-0.6
						C55.1,134.1,55.3,133.9,55.5,133.8z"/>
					<path class="st12" d="M58.2,133.5c0.3,0,0.5,0.1,0.6,0.4c0,0.3-0.1,0.5-0.4,0.6c-0.3,0.1-0.5-0.1-0.6-0.4c0,0,0,0,0,0
						C57.7,133.8,57.9,133.5,58.2,133.5z"/>
					<path class="st12" d="M60.8,132.9c0.3-0.1,0.5,0.1,0.6,0.4c0.1,0.3-0.1,0.6-0.4,0.6c-0.3,0.1-0.6-0.1-0.6-0.4l0,0
						C60.4,133.2,60.6,133,60.8,132.9z"/>
					<path class="st12" d="M63.5,132.1c0.3-0.1,0.6,0,0.7,0.3c0.1,0.3,0,0.5-0.3,0.6c0,0,0,0,0,0c-0.3,0.1-0.6,0-0.7-0.3
						C63.1,132.5,63.2,132.2,63.5,132.1z"/>
					<path class="st12" d="M66,131c0.3-0.1,0.6,0,0.7,0.2c0.1,0.3,0,0.6-0.2,0.7c-0.3,0.1-0.6,0-0.7-0.2c0,0,0,0,0,0
						C65.6,131.4,65.8,131.1,66,131z"/>
					<path class="st12" d="M70.7,128.3c0.2-0.2,0.5-0.1,0.7,0.1c0,0,0,0,0,0c0.2,0.2,0.1,0.5-0.1,0.7c-0.2,0.2-0.5,0.1-0.7-0.1
						C70.4,128.8,70.5,128.5,70.7,128.3z"/>
					<path class="st12" d="M72.9,126.6c0.2-0.2,0.5-0.2,0.7,0.1c0.2,0.2,0.2,0.5-0.1,0.7c0,0,0,0,0,0c-0.2,0.2-0.5,0.2-0.7,0
						c0,0,0,0,0,0C72.6,127.1,72.6,126.8,72.9,126.6z"/>
					<path class="st12" d="M74.9,124.8c0.2-0.2,0.5-0.2,0.7,0c0.2,0.2,0.2,0.5,0,0.7c-0.2,0.2-0.5,0.2-0.7,0
						C74.7,125.3,74.7,125,74.9,124.8z"/>
					<path class="st12" d="M76.7,122.8c0.2-0.2,0.5-0.2,0.7-0.1c0.2,0.2,0.2,0.5,0.1,0.7c0,0,0,0,0,0c-0.2,0.2-0.5,0.2-0.7,0.1
						c0,0,0,0,0,0C76.6,123.3,76.5,123,76.7,122.8C76.7,122.8,76.7,122.8,76.7,122.8z"/>
					<path class="st12" d="M78.4,120.6c0.2-0.2,0.5-0.3,0.7-0.1s0.3,0.5,0.1,0.7c-0.2,0.2-0.5,0.3-0.7,0.1
						C78.3,121.2,78.2,120.8,78.4,120.6C78.4,120.6,78.4,120.6,78.4,120.6z"/>
					<path class="st12" d="M81.1,115.9c0.1-0.3,0.4-0.4,0.7-0.3c0.3,0.1,0.4,0.4,0.3,0.7c-0.1,0.3-0.4,0.4-0.7,0.2c0,0,0,0,0,0
						C81.1,116.4,81,116.1,81.1,115.9z"/>
					<path class="st12" d="M82.2,113.4c0.1-0.3,0.4-0.4,0.7-0.3c0.3,0.1,0.4,0.4,0.3,0.7l0,0c-0.1,0.3-0.4,0.4-0.6,0.3c0,0,0,0,0,0
						C82.2,113.9,82.1,113.6,82.2,113.4C82.1,113.4,82.1,113.4,82.2,113.4z"/>
					<path class="st12" d="M83,110.8c0.1-0.3,0.4-0.4,0.6-0.3c0.3,0.1,0.4,0.3,0.4,0.6c-0.1,0.3-0.3,0.4-0.6,0.4
						C83.1,111.3,83,111,83,110.8z"/>
					<path class="st12" d="M83.6,108.1c0-0.3,0.3-0.5,0.6-0.4c0,0,0,0,0,0c0.3,0,0.5,0.3,0.4,0.6c0,0,0,0,0,0c0,0.3-0.3,0.5-0.6,0.4
						c0,0,0,0,0,0C83.7,108.6,83.5,108.4,83.6,108.1z"/>
					<path class="st12" d="M83.9,105.4c0-0.3,0.3-0.5,0.6-0.5c0.3,0,0.5,0.3,0.5,0.5c0,0,0,0,0,0c0,0.3-0.3,0.5-0.5,0.5c0,0,0,0,0,0
						C84.1,105.9,83.9,105.7,83.9,105.4C83.9,105.4,83.9,105.4,83.9,105.4z"/>
					<path class="st12" d="M83.9,99.9c0-0.3,0.2-0.5,0.5-0.6c0.3,0,0.5,0.2,0.6,0.5c0,0.3-0.2,0.5-0.4,0.5c0,0,0,0,0,0
						C84.2,100.4,83.9,100.2,83.9,99.9C83.9,99.9,83.9,99.9,83.9,99.9z"/>
					<path class="st12" d="M83.6,97.2c0-0.3,0.1-0.5,0.4-0.6c0.3,0,0.5,0.2,0.6,0.5c0,0.2-0.1,0.5-0.4,0.5
						C83.9,97.7,83.6,97.5,83.6,97.2z"/>
					<path class="st12" d="M83,94.6c-0.1-0.3,0.1-0.5,0.4-0.6c0.3-0.1,0.6,0.1,0.6,0.4c0.1,0.3-0.1,0.6-0.4,0.6l0,0
						C83.4,95,83.1,94.8,83,94.6C83,94.6,83,94.6,83,94.6z"/>
					<path class="st12" d="M82.2,92c-0.1-0.3,0-0.6,0.3-0.7c0.3-0.1,0.6,0,0.7,0.3c0,0,0,0,0,0c0.1,0.3,0,0.6-0.3,0.7
						C82.5,92.4,82.3,92.3,82.2,92z"/>
					<path class="st12" d="M81.1,89.4c-0.1-0.3,0-0.6,0.3-0.7c0.2-0.1,0.5,0,0.6,0.2c0.1,0.2,0,0.5-0.2,0.7c0,0,0,0,0,0
						C81.5,89.8,81.2,89.7,81.1,89.4z"/>
					<path class="st12" d="M78.4,84.7c-0.2-0.2-0.1-0.5,0.1-0.7c0.2-0.2,0.5-0.1,0.7,0.1c0,0,0,0,0,0c0.2,0.2,0.1,0.5-0.1,0.7
						C78.9,85,78.5,85,78.4,84.7z"/>
					<path class="st12" d="M76.7,82.6c-0.2-0.2-0.2-0.5,0.1-0.7c0.2-0.2,0.5-0.2,0.7,0.1l0,0c0.2,0.2,0.1,0.5-0.1,0.7c0,0,0,0,0,0
						C77.2,82.8,76.9,82.8,76.7,82.6z"/>
					<path class="st12" d="M74.9,80.6c-0.2-0.2-0.2-0.5,0-0.7c0.2-0.2,0.5-0.2,0.7,0c0,0,0,0,0,0c0.2,0.2,0.2,0.5,0,0.7c0,0,0,0,0,0
						C75.4,80.7,75.1,80.7,74.9,80.6z"/>
					<path class="st12" d="M72.9,78.7c-0.2-0.2-0.2-0.5-0.1-0.7c0,0,0,0,0,0c0.2-0.2,0.5-0.3,0.7-0.1c0,0,0,0,0,0
						c0.2,0.2,0.2,0.5,0.1,0.7S73.1,78.9,72.9,78.7L72.9,78.7z"/>
					<path class="st12" d="M70.7,77c-0.2-0.2-0.3-0.5-0.1-0.7c0.2-0.2,0.5-0.2,0.7,0c0.2,0.2,0.2,0.4,0.1,0.6
						C71.3,77.1,70.9,77.2,70.7,77C70.7,77,70.7,77,70.7,77z"/>
					<path class="st12" d="M66,74.3c-0.3-0.1-0.4-0.4-0.2-0.7c0.1-0.3,0.4-0.4,0.7-0.2c0.3,0.1,0.4,0.4,0.2,0.7c0,0,0,0,0,0
						C66.6,74.3,66.3,74.4,66,74.3z"/>
					<path class="st12" d="M63.5,73.3c-0.3-0.1-0.4-0.4-0.3-0.7c0.1-0.3,0.4-0.4,0.7-0.3c0.3,0.1,0.4,0.4,0.3,0.7c0,0,0,0,0,0
						C64,73.2,63.7,73.4,63.5,73.3z"/>
					<path class="st12" d="M60.9,72.4c-0.3-0.1-0.4-0.4-0.4-0.6c0.1-0.3,0.4-0.4,0.6-0.4c0.3,0.1,0.4,0.4,0.4,0.6
						C61.4,72.4,61.2,72.5,60.9,72.4C60.9,72.5,60.9,72.5,60.9,72.4z"/>
					<path class="st12" d="M58.2,71.9c-0.3-0.1-0.5-0.3-0.4-0.6c0-0.3,0.3-0.5,0.6-0.4c0,0,0,0,0,0c0.3,0,0.5,0.3,0.4,0.6
						c0,0,0,0,0,0C58.7,71.7,58.5,71.9,58.2,71.9C58.2,71.9,58.2,71.9,58.2,71.9z"/>
					<path class="st12" d="M55.5,71.5c-0.3,0-0.5-0.2-0.5-0.5c0-0.3,0.3-0.5,0.5-0.5c0,0,0,0,0,0c0.3,0.1,0.4,0.4,0.4,0.6
						C55.9,71.4,55.7,71.5,55.5,71.5L55.5,71.5z"/>
				</g>
			</g>
			<g>
				<path class="st12" d="M28.4,102.3c0,2.2-0.9,3.3-2.6,3.3c-0.2,0-0.5,0-0.7-0.1v-0.6c0.2,0.1,0.5,0.1,0.7,0.1
					c0.5,0,1.1-0.2,1.4-0.6c0.4-0.5,0.5-1.1,0.5-1.7l0,0c-0.1,0.2-0.3,0.4-0.6,0.5c-0.3,0.1-0.5,0.2-0.8,0.2
					c-0.8,0.1-1.6-0.6-1.7-1.4c0-0.1,0-0.2,0-0.3c0-0.5,0.2-1,0.5-1.4c0.3-0.3,0.8-0.5,1.3-0.5c0.4,0,0.7,0.1,1,0.3
					c0.3,0.2,0.5,0.5,0.7,0.8C28.3,101.4,28.4,101.8,28.4,102.3z M26.4,100.3c-0.3,0-0.6,0.1-0.9,0.3c-0.2,0.3-0.3,0.6-0.3,1
					c0,0.3,0.1,0.6,0.3,0.9c0.2,0.2,0.5,0.3,0.9,0.3c0.2,0,0.5,0,0.7-0.1c0.2-0.1,0.3-0.2,0.5-0.4c0.1-0.1,0.2-0.3,0.2-0.5
					c0-0.3-0.1-0.5-0.2-0.7c-0.1-0.2-0.3-0.4-0.5-0.5C26.9,100.4,26.7,100.3,26.4,100.3z"/>
				<g>
					<path class="st12" d="M30,92.6h-0.6v-3.8c0-0.3,0-0.6,0-0.9l-0.2,0.2c-0.1,0.1-0.4,0.3-0.9,0.7L28,88.4l1.4-1.1H30V92.6z"/>
					<path class="st12" d="M35.7,90c0,0.7-0.1,1.4-0.5,2c-0.6,0.7-1.6,0.9-2.4,0.3c-0.1-0.1-0.2-0.2-0.3-0.3c-0.3-0.6-0.5-1.3-0.5-2
						c0-0.7,0.1-1.4,0.5-2c0.3-0.4,0.8-0.7,1.3-0.7c0.5,0,1.1,0.2,1.4,0.7C35.6,88.6,35.8,89.3,35.7,90z M32.7,90
						c0,0.6,0.1,1.1,0.3,1.6c0.2,0.3,0.5,0.5,0.9,0.5c0.4,0,0.7-0.2,0.9-0.5c0.4-1.1,0.4-2.3,0-3.3c-0.2-0.5-0.8-0.7-1.3-0.4
						c-0.2,0.1-0.4,0.3-0.4,0.4C32.8,88.8,32.7,89.4,32.7,90L32.7,90z"/>
				</g>
				<path class="st12" d="M30,112.7c0.4,0,0.8,0.1,1.2,0.3c0.3,0.2,0.5,0.6,0.4,0.9c0,0.3-0.1,0.5-0.3,0.7c-0.2,0.3-0.5,0.5-0.8,0.6
					c0.4,0.1,0.7,0.4,0.9,0.7c0.2,0.2,0.3,0.5,0.3,0.8c0,0.4-0.2,0.8-0.5,1c-0.4,0.3-0.8,0.4-1.3,0.4c-0.5,0-1-0.1-1.4-0.4
					c-0.3-0.2-0.5-0.6-0.5-1c0-0.6,0.4-1.1,1.1-1.4c-0.3-0.1-0.6-0.4-0.8-0.6c-0.1-0.2-0.2-0.5-0.2-0.7c0-0.4,0.2-0.7,0.4-0.9
					C29.2,112.7,29.6,112.6,30,112.7z M28.8,116.7c0,0.3,0.1,0.5,0.3,0.7c0.3,0.2,0.6,0.3,0.9,0.2c0.3,0,0.6-0.1,0.9-0.3
					c0.2-0.2,0.3-0.4,0.3-0.7c0-0.2-0.1-0.5-0.3-0.6c-0.3-0.2-0.6-0.4-1-0.5c-0.3,0.1-0.6,0.3-0.8,0.5
					C28.9,116.2,28.8,116.4,28.8,116.7L28.8,116.7z M30,113.1c-0.3,0-0.5,0.1-0.7,0.2c-0.2,0.1-0.3,0.4-0.3,0.6
					c0,0.2,0.1,0.4,0.2,0.6c0.2,0.2,0.5,0.4,0.8,0.5c0.3-0.1,0.5-0.3,0.8-0.5c0.1-0.2,0.2-0.4,0.2-0.6c0-0.2-0.1-0.4-0.3-0.6
					C30.5,113.2,30.3,113.1,30,113.1z"/>
				<g>
					<path class="st12" d="M39.7,83.3h-0.6v-3.8c0-0.3,0-0.6,0-0.9l-0.2,0.2c-0.1,0.1-0.4,0.3-0.9,0.7l-0.3-0.4l1.5-1.1h0.5V83.3z"
						/>
					<path class="st12" d="M44,83.3h-0.6v-3.8c0-0.3,0-0.6,0-0.9l-0.2,0.2c-0.1,0.1-0.4,0.3-0.9,0.7L42,79.1l1.5-1.1H44V83.3z"/>
				</g>
				<path class="st12" d="M38.5,127.3l2.3-4.7h-3V122h3.6v0.5l-2.2,4.8L38.5,127.3z"/>
				<path class="st12" d="M50.9,128.5c-0.1-0.9,0.2-1.7,0.7-2.5c0.5-0.6,1.2-0.9,2-0.8c0.2,0,0.5,0,0.7,0.1v0.6
					c-0.2-0.1-0.5-0.1-0.7-0.1c-0.5,0-1.1,0.2-1.4,0.6c-0.4,0.5-0.6,1.1-0.5,1.7l0,0c0.3-0.4,0.8-0.7,1.4-0.7c0.5,0,0.9,0.1,1.2,0.4
					c0.3,0.3,0.5,0.8,0.5,1.2c0,0.5-0.1,1-0.5,1.4c-0.4,0.3-0.8,0.5-1.3,0.5c-0.5,0-1.1-0.2-1.4-0.6
					C51.1,129.7,50.9,129.1,50.9,128.5z M52.9,130.4c0.3,0,0.6-0.1,0.9-0.3c0.2-0.3,0.3-0.6,0.3-1c0-0.3-0.1-0.6-0.3-0.9
					c-0.2-0.2-0.5-0.3-0.8-0.3c-0.2,0-0.4,0-0.7,0.1c-0.2,0.1-0.4,0.2-0.5,0.4c-0.1,0.1-0.2,0.3-0.2,0.5c0,0.3,0.1,0.5,0.2,0.7
					c0.1,0.2,0.2,0.4,0.4,0.5C52.4,130.3,52.6,130.4,52.9,130.4z"/>
				<path class="st12" d="M65.8,124.1c0.5,0,1,0.1,1.4,0.4c0.3,0.3,0.5,0.7,0.5,1.1c0,0.5-0.2,1-0.5,1.3c-0.4,0.3-1,0.5-1.5,0.5
					c-0.5,0-1-0.1-1.4-0.3v-0.6c0.2,0.1,0.4,0.2,0.7,0.3c0.3,0.1,0.5,0.1,0.8,0.1c0.4,0,0.7-0.1,1-0.3c0.3-0.2,0.4-0.5,0.4-0.9
					c0-0.7-0.5-1.1-1.4-1.1c-0.3,0-0.6,0-0.9,0.1l-0.3-0.2l0.2-2.5h2.7v0.6h-2.2l-0.1,1.6C65.3,124.1,65.5,124.1,65.8,124.1z"/>
				<path class="st12" d="M77.6,116.8h-0.8v1.2h-0.6v-1.2h-2.7v-0.5l2.6-3.6h0.7v3.6h0.8V116.8z M76.2,116.2v-1.8c0-0.3,0-0.7,0-1.2
					l0,0c-0.1,0.2-0.2,0.4-0.3,0.6l-1.7,2.3H76.2z"/>
				<path class="st12" d="M80.7,101.2c0,0.3-0.1,0.6-0.3,0.9c-0.2,0.2-0.5,0.4-0.9,0.5l0,0c0.4,0,0.7,0.2,1,0.4
					c0.2,0.2,0.3,0.6,0.3,0.9c0,0.5-0.2,0.9-0.6,1.2c-0.5,0.3-1,0.5-1.6,0.4c-0.3,0-0.6,0-0.8-0.1c-0.3,0-0.5-0.1-0.7-0.2v-0.6
					c0.3,0.1,0.5,0.2,0.8,0.3c0.3,0.1,0.5,0.1,0.8,0.1c1,0,1.5-0.4,1.5-1.1s-0.6-1-1.7-1H78v-0.5h0.6c0.4,0,0.7-0.1,1.1-0.3
					c0.3-0.2,0.4-0.5,0.4-0.8c0-0.2-0.1-0.5-0.3-0.6c-0.2-0.2-0.5-0.2-0.8-0.2c-0.2,0-0.5,0-0.7,0.1c-0.3,0.1-0.5,0.2-0.8,0.4
					l-0.3-0.4c0.3-0.2,0.5-0.3,0.8-0.4c0.3-0.1,0.7-0.2,1-0.2c0.5,0,0.9,0.1,1.3,0.4C80.6,100.5,80.7,100.8,80.7,101.2z"/>
				<path class="st12" d="M77.3,92.6h-3.6v-0.5l1.4-1.4c0.3-0.3,0.6-0.6,0.9-0.9c0.1-0.2,0.2-0.3,0.3-0.5c0.1-0.2,0.1-0.4,0.1-0.6
					c0-0.3-0.1-0.5-0.3-0.7c-0.2-0.2-0.5-0.3-0.7-0.3c-0.2,0-0.4,0-0.6,0.1c-0.2,0.1-0.5,0.2-0.7,0.4l-0.3-0.4
					c0.5-0.4,1-0.6,1.7-0.6c0.4,0,0.9,0.1,1.2,0.4c0.3,0.2,0.5,0.6,0.4,1c0,0.4-0.1,0.7-0.3,1c-0.3,0.5-0.7,0.9-1.1,1.2L74.5,92l0,0
					h2.8V92.6z"/>
				<path class="st12" d="M66.4,83.3h-0.6v-3.8c0-0.3,0-0.6,0-0.9l-0.2,0.2c-0.1,0.1-0.4,0.3-0.9,0.7l-0.3-0.4l1.5-1.1h0.5
					L66.4,83.3z"/>
				<g>
					<path class="st12" d="M51,80h-0.6v-4c0-0.3,0-0.6,0-0.9l-0.2,0.2L49.3,76l-0.3-0.4l1.5-1.1H51V80z"/>
					<path class="st12" d="M56.9,80h-3.8v-0.5l1.5-1.5c0.3-0.3,0.6-0.6,0.9-1c0.1-0.2,0.2-0.4,0.3-0.6c0.1-0.2,0.1-0.4,0.1-0.5
						c0-0.3-0.1-0.5-0.3-0.7c-0.2-0.2-0.5-0.3-0.8-0.3c-0.2,0-0.5,0-0.7,0.1c-0.3,0.1-0.5,0.2-0.7,0.4L53.2,75
						c0.5-0.4,1.1-0.6,1.8-0.6c0.5,0,0.9,0.1,1.3,0.4c0.3,0.3,0.5,0.7,0.5,1.1c0,0.4-0.1,0.7-0.3,1c-0.3,0.5-0.7,0.9-1.2,1.3
						L54,79.4l0,0h3L56.9,80z"/>
				</g>
			</g>
			<g>
				<path class="st12" d="M53.7,103.2c-0.1,0-0.2-0.1-0.3-0.1c-0.1-0.2-0.1-0.5,0-0.8c0.2-0.3,0.2-0.6,0.1-0.9
					c0-0.1-0.1-0.3-0.2-0.3l0.1-0.1L75,85.8c0.2-0.1,0.5-0.2,0.8-0.2H76l0.6,0.1c0.2,0,0.3,0.2,0.3,0.4c0,0,0,0,0,0l-0.1,0.6
					c-0.1,0.3-0.3,0.6-0.5,0.8l-22.3,15.6C53.8,103.1,53.8,103.2,53.7,103.2z"/>
				<path class="st12" d="M51.8,103.2c-0.1,0-0.1,0-0.2,0l-15.3-8.9c-0.3-0.2-0.5-0.5-0.6-0.8L35.6,93c0-0.1,0-0.2,0-0.3
					c0-0.1,0.1-0.1,0.2-0.2l0.5-0.2c0.1,0,0.2,0,0.3,0c0.2,0,0.5,0.1,0.7,0.2l14.6,8.4c0,0,0.1,0.1,0.1,0.1c-0.3,0.4-0.3,0.8,0,1.2
					c0.1,0.2,0.1,0.5,0,0.8C52,103.2,51.9,103.2,51.8,103.2z"/>
			</g>
			<g>
				<path class="st12" d="M55.5,102.7c0,1.5-1.2,2.7-2.7,2.7s-2.7-1.2-2.7-2.7c0-1.5,1.2-2.7,2.7-2.7
					C54.3,99.9,55.5,101.2,55.5,102.7L55.5,102.7z"/>
				<path class="st13" d="M52.8,104.3c-0.9,0-1.6-0.7-1.6-1.6c0-0.9,0.7-1.6,1.6-1.6c0.9,0,1.6,0.7,1.6,1.6c0,0,0,0,0,0
					C54.4,103.5,53.7,104.3,52.8,104.3C52.8,104.3,52.8,104.3,52.8,104.3z"/>
			</g>
			<g>
				<path class="st14" d="M52.8,103.3c-0.4,0-0.7-0.3-0.7-0.7s0.3-0.7,0.7-0.7s0.7,0.3,0.7,0.7S53.1,103.3,52.8,103.3L52.8,103.3z"
					/>
				<path class="st14" d="M44.3,134.5L44.3,134.5c-0.3,0-0.4-0.2-0.3-0.4L54.2,96c0.1-0.2,0.2-0.3,0.4-0.2c0.2,0,0.3,0.2,0.2,0.4
					c0,0,0,0,0,0l-10.2,38.1C44.6,134.4,44.5,134.5,44.3,134.5z"/>
				<path class="st14" d="M53.8,99.4c-0.1,0-0.1,0-0.2,0c-0.4-0.1-0.6-0.5-0.5-0.8c0,0,0,0,0,0l1.1-3.9c0.1-0.4,0.4-0.6,0.8-0.5
					s0.6,0.4,0.5,0.8c0,0,0,0.1,0,0.1l-1.1,3.9C54.4,99.2,54.1,99.4,53.8,99.4z"/>
			</g>
		</g>
	</g>
</g>
</svg>
