<svg id="Layer_1" data-name="Layer 1" xmlns="http://www.w3.org/2000/svg" width="258.44" height="178.39" viewBox="0 0 258.44 178.39">
  <defs>
    <style>
      .cls-1 {
        opacity: 0.5;
      }

      .cls-2 {
        fill: #f2f2f2;
        stroke: #b7b7b7;
        stroke-miterlimit: 10;
        stroke-width: 0.5px;
      }

      .cls-3 {
        fill: #ddd;
        opacity: 0.6;
      }

      .cls-4 {
        fill: #fff;
      }
    </style>
  </defs>
  <g>
    <path class="cls-1" d="M252.66,142.54l-13-6.69C203,117,164.58,97,122.23,74.62a6.14,6.14,0,0,0-1.17-.7,8.26,8.26,0,0,1-1.65-1.17c2.29-18.26-8.9-38.08-28.06-49.08-17.58-10.1-49.79-17.3-69.7-11.92C13.85,13.85,8.3,17.7,5.14,23.18.49,31.28,1.63,42.32,8.45,55.1c1.14,2.14,2.44,4.32,3.85,6.49l.31.49c9.31,14.11,23.58,28,36.35,35.3,1.18.68,2.39,1.32,3.67,2l.21.11c1.15.56,2.35,1.09,3.7,1.65l.24.1c1.16.46,2.39.91,3.75,1.36l.21.07c1.18.39,2.42.75,3.73,1.09l.23.06c1.25.31,2.52.59,3.72.81l.21,0a52.16,52.16,0,0,0,22.66-.77A40.84,40.84,0,0,0,105.53,97a7.83,7.83,0,0,1,1.75.78,5.52,5.52,0,0,0,.66.4c13.16,8.29,27.17,17.06,41.18,25.82,25.11,15.72,51.07,32,71.47,45l12.3,7.87a10.5,10.5,0,0,0,8.58,1.15c4.84-1.31,9.75-5.61,13.13-11.49,3.49-6,4.69-12.59,3.23-17.48A10.46,10.46,0,0,0,252.66,142.54Zm.22,9.14h0c-3.75,6.55-9.59,10.12-12.61,8.15l-8.62-5.5-3.73-2.39c-31.71-20.26-75.79-47.62-113-71.07h0a13.49,13.49,0,0,0-7.44-2.21c-8.33,7.48-20.84,10.35-33.77,8l-.14,0q-1.68-.3-3.36-.72l-.23-.06c-1.1-.29-2.2-.6-3.3-1l-.28-.09c-1.09-.37-2.18-.76-3.26-1.2l-.25-.11c-1.1-.45-2.2-.93-3.28-1.46a.8.8,0,0,1-.16-.08c-1.12-.55-2.23-1.13-3.34-1.77C44.52,73.6,30.74,60.43,21.84,46.94l-.29-.45c-1.3-2-2.5-4-3.56-6-5.17-9.7-7.21-19-3.4-25.68h0C24.52-2.47,70.33,5.21,92,17.66c18.23,10.47,27.8,29.18,24.48,45.14a13.48,13.48,0,0,0,5.68,5.35l0,.11c45.63,24.13,84.24,44.23,118.33,61.73l3.94,2,9.1,4.67C256.8,138.3,256.65,145.14,252.88,151.68Z"/>
    <g>
      <path class="cls-2" d="M102.82,78.77c41.76,26.17,85.07,53.23,118.9,74.85l3.73,2.38q4.32,2.75,8.62,5.51c3,2,8.86-1.61,12.62-8.16s3.91-13.38.7-15l-9.11-4.68-3.93-2c-34.1-17.5-72.7-37.59-118.33-61.72l-.06-.12a13.48,13.48,0,0,1-5.67-5.35c3.32-16-6.25-34.66-24.48-45.14C64.14,6.89,18.33-.8,8.39,16.47s19.78,53,41.45,65.42C68.91,92.84,91,91.11,102.82,78.77Z"/>
      <path class="cls-3" d="M101.16,80.33a13.49,13.49,0,0,1,7.48,2.22h0C145.93,106,190,133.35,221.72,153.62l3.73,2.38q4.32,2.75,8.62,5.51c3,2,8.86-1.61,12.62-8.16h0l-9.22-5.29-9.65-5.54L107.06,73.15h0L99.8,69h0c6.88-12,2.35-27.89-9.92-38.7,3.69,8.35,3.87,17.36-.42,24.83-8.14,14.15-29.13,17.36-46.89,7.16-7-4-15.45-11.24-22.71-19.4-5.07-8.5-7.41-16.67-4.22-22.23L8.39,16.47c-9.93,17.28,19.78,53,41.45,65.42C68.06,92.35,89,91.21,101.16,80.33Z"/>
    </g>
    <path class="cls-4" d="M250.33,132.63l-13-6.7c-36.64-18.8-75-38.83-117.39-61.22a6.25,6.25,0,0,0-1.17-.7,8.4,8.4,0,0,1-1.65-1.17c2.28-18.26-8.91-38.08-28.07-49.09C71.43,3.65,39.23-3.55,19.31,1.83,11.52,3.94,6,7.79,2.81,13.26-1.84,21.36-.7,32.4,6.12,45.18c1.14,2.15,2.43,4.33,3.84,6.49l.31.49c9.32,14.11,23.59,28,36.36,35.31,1.18.67,2.39,1.32,3.67,1.94l.21.11c1.15.56,2.35,1.1,3.7,1.65l.24.1c1.16.47,2.38.92,3.75,1.37l.2.07c1.19.39,2.43.75,3.73,1.08l.24.07c1.25.31,2.52.58,3.72.8l.21,0A52.17,52.17,0,0,0,89,93.93,40.77,40.77,0,0,0,103.2,87a8,8,0,0,1,1.75.79,7.23,7.23,0,0,0,.66.4c13.16,8.28,27.17,17,41.17,25.82,25.12,15.72,51.08,32,71.48,45l12.3,7.86a10.5,10.5,0,0,0,8.58,1.15c4.84-1.3,9.75-5.6,13.13-11.48,3.49-6.06,4.69-12.59,3.22-17.49A10.4,10.4,0,0,0,250.33,132.63Zm-3.64,20.72h0c-3.76,6.55-9.6,10.12-12.62,8.16q-4.31-2.76-8.62-5.51l-3.73-2.38C190,133.35,145.93,106,108.67,82.54h0a13.45,13.45,0,0,0-7.44-2.22c-8.33,7.49-20.84,10.36-33.76,8l-.15,0c-1.11-.21-2.23-.45-3.35-.73l-.24-.06q-1.65-.42-3.3-1l-.27-.09Q58.5,86,56.86,85.3l-.25-.1c-1.1-.45-2.19-.94-3.28-1.47l-.16-.08c-1.12-.54-2.23-1.13-3.33-1.76C38.33,75.28,24.55,62.1,15.65,48.62l-.29-.46c-1.31-2-2.5-4-3.56-6-5.18-9.7-7.22-19-3.41-25.68h0C18.33-.8,64.14,6.89,85.81,19.33c18.23,10.48,27.8,29.18,24.48,45.14A13.48,13.48,0,0,0,116,69.82l.06.12c45.63,24.13,84.23,44.22,118.33,61.72l3.93,2,9.11,4.68C250.6,140,250.46,146.81,246.69,153.35Z"/>
  </g>
</svg>
