<svg id="Layer_1" data-name="Layer 1" xmlns="http://www.w3.org/2000/svg" width="194.45" height="243.47" viewBox="0 0 194.45 243.47">
  <defs>
    <style>
      .cls-1 {
        opacity: 0.5;
      }

      .cls-2 {
        fill: #fff;
      }

      .cls-3 {
        fill: #382a1b;
      }

      .cls-4 {
        fill: #4c3622;
      }

      .cls-5 {
        fill: #a0a0a0;
      }

      .cls-6 {
        fill: #969595;
      }

      .cls-7 {
        fill: #b7b6b6;
      }
    </style>
  </defs>
  <g>
    <path class="cls-1" d="M183.16,243.47A8.85,8.85,0,0,1,176.1,240l-3.42-4.43a4.84,4.84,0,0,1-.56-.63l-2.55-3.29a6.58,6.58,0,0,1-.47-.7l-.2-.27a6.66,6.66,0,0,1-.56-.62l-.52-.68a5.7,5.7,0,0,1-.47-.7l-.24-.3a8,8,0,0,1-.54-.62l-2.55-3.3a6.45,6.45,0,0,1-.47-.69l-12.86-16.64a5.71,5.71,0,0,1-.56-.63l-2.54-3.29a6.33,6.33,0,0,1-.48-.71l-.21-.26a8.27,8.27,0,0,1-.55-.63l-.51-.67a6.22,6.22,0,0,1-.48-.7l-.23-.3a6.42,6.42,0,0,1-.55-.62L142,196a6.58,6.58,0,0,1-.47-.7L39.57,63.41a8.14,8.14,0,0,1-6-3.16L6.33,25.07a11,11,0,0,1,2-15.36l4.36-3.38A11,11,0,0,1,28,8.3l27.2,35.18a8.17,8.17,0,0,1,1.64,6,8.31,8.31,0,0,1-.4,1.67L192.59,227.27a8.91,8.91,0,0,1-1.6,12.5l-.53.41-.39.36c-.17.13-.49.38-.92.65l-.54.42a9,9,0,0,1-5.45,1.86Z"/>
    <path class="cls-2" d="M179.11,239.43a8.88,8.88,0,0,1-7.06-3.46l-3.42-4.43a8.39,8.39,0,0,1-.56-.63l-2.54-3.3a5.25,5.25,0,0,1-.47-.69l-.21-.27a8.39,8.39,0,0,1-.56-.63l-.51-.67a7.91,7.91,0,0,1-.48-.7l-.23-.31a5.41,5.41,0,0,1-.55-.62L160,220.43a7.78,7.78,0,0,1-.47-.7l-12.86-16.64a5.64,5.64,0,0,1-.55-.63l-2.55-3.29a5.53,5.53,0,0,1-.48-.71l-.2-.26a5.41,5.41,0,0,1-.55-.62l-.52-.67a6.33,6.33,0,0,1-.48-.71l-.23-.3a5.41,5.41,0,0,1-.55-.62L138,192a5.7,5.7,0,0,1-.47-.7L35.53,59.36a8.09,8.09,0,0,1-6.05-3.16L2.28,21a11,11,0,0,1,2-15.36L8.61,2.29A11,11,0,0,1,15.31,0,10.84,10.84,0,0,1,24,4.26l27.2,35.17a8.14,8.14,0,0,1,1.64,6,8.63,8.63,0,0,1-.39,1.67L188.54,223.22a8.93,8.93,0,0,1-1.6,12.51l-.53.4a4.49,4.49,0,0,1-.39.36,9.41,9.41,0,0,1-.92.66l-.54.41a8.9,8.9,0,0,1-5.45,1.87Z"/>
    <g>
      <rect class="cls-3" x="-41.84" y="117.8" width="277.52" height="7.89" rx="3.02" transform="translate(59.89 272.89) rotate(-127.71)"/>
      <path class="cls-4" d="M12.14,11.9,181.9,231.49a4.19,4.19,0,0,1-2.57.88,4.47,4.47,0,0,1-2.85-1.26L11.76,18a4.35,4.35,0,0,1-1.22-3.42A4,4,0,0,1,12.14,11.9Z"/>
      <rect class="cls-5" x="172.98" y="218.9" width="4.16" height="7.95" transform="matrix(-0.61, -0.79, 0.79, -0.61, 105.82, 497.69)"/>
      <rect class="cls-5" x="167.43" y="211.71" width="4.16" height="7.95" transform="translate(102.55 481.71) rotate(-127.71)"/>
      <rect class="cls-5" x="171.88" y="215.32" width="0.85" height="7.95" transform="translate(104.19 489.73) rotate(-127.71)"/>
      <rect class="cls-5" x="151" y="190.45" width="4.16" height="7.95" transform="translate(92.88 434.45) rotate(-127.71)"/>
      <rect class="cls-5" x="145.44" y="183.27" width="4.16" height="7.95" transform="matrix(-0.61, -0.79, 0.79, -0.61, 89.62, 418.47)"/>
      <rect class="cls-5" x="149.89" y="186.88" width="0.85" height="7.95" transform="translate(91.26 426.5) rotate(-127.71)"/>
      <path class="cls-6" d="M2.65,21.89h43a5.53,5.53,0,0,1,5.53,5.53v3.4a5.53,5.53,0,0,1-5.53,5.53h-43a2.1,2.1,0,0,1-2.1-2.1V24a2.1,2.1,0,0,1,2.1-2.1Z" transform="translate(18.66 67.41) rotate(-127.71)"/>
      <path class="cls-7" d="M41.34,49.17l-3.53,2.74a2.75,2.75,0,0,1-3.85-.5L9.09,19.24A7.23,7.23,0,0,1,10.39,9.1h0Z"/>
    </g>
  </g>
</svg>
