<svg id="Layer_1" data-name="Layer 1" xmlns="http://www.w3.org/2000/svg" width="209.11" height="156.61" viewBox="0 0 209.11 156.61">
  <defs>
    <style>
      .cls-1 {
        opacity: 0.5;
      }

      .cls-11, .cls-17, .cls-2, .cls-20 {
        fill: #fff;
      }

      .cls-3 {
        fill: #a80100;
      }

      .cls-4 {
        fill: #d60100;
      }

      .cls-5 {
        fill: #eb1413;
      }

      .cls-6 {
        fill: #870100;
      }

      .cls-7 {
        fill: #319422;
      }

      .cls-8 {
        fill: #30cf64;
      }

      .cls-9 {
        fill: #2d871f;
      }

      .cls-10 {
        fill: #2e8a20;
      }

      .cls-11 {
        opacity: 0.6;
      }

      .cls-12 {
        fill: #2ec45f;
      }

      .cls-13 {
        fill: #d5e876;
      }

      .cls-14 {
        fill: #becf69;
      }

      .cls-15 {
        fill: #ff6c6b;
      }

      .cls-16 {
        fill: #fa5150;
      }

      .cls-17 {
        opacity: 0.69;
      }

      .cls-18, .cls-19 {
        fill: #c2ffd6;
      }

      .cls-18 {
        opacity: 0.7;
      }

      .cls-19, .cls-20 {
        opacity: 0.56;
      }
    </style>
  </defs>
  <g>
    <path class="cls-1" d="M147.28,156.61c-17.35,0-32-4.46-42.83-12.94a96.3,96.3,0,0,1-28.53,5.71c-1.33.08-2.68.12-4,.12-32.4,0-67.37-24.63-67.37-64.41,0-22,11.84-42.16,30.66-53.91l0-.13a7.24,7.24,0,0,1,4.07-8.3,29.15,29.15,0,0,1,11-2.25h.35c.35-4.69,4.24-9.38,11.58-14A7.17,7.17,0,0,1,66,5.43a7.27,7.27,0,0,1,3.18.74c4,2,6.72,6.37,8.92,14.77A76.54,76.54,0,0,1,90.49,23a53.19,53.19,0,0,1,13.8-2.37h0a7.23,7.23,0,0,1,7.15,6.08,7.16,7.16,0,0,1-.77,4.6A73.06,73.06,0,0,1,124.5,41.81a7.24,7.24,0,0,1,6-3.19,7.12,7.12,0,0,1,2,.28c4.78,1.36,7,2.89,8.12,3.88,1.28-.09,2.56-.14,3.85-.16,3.26-2.81,6.25-5,6.4-5.16a7.25,7.25,0,0,1,11.45,7.18C190,51.4,209.11,74,209.11,100.25c0,31.72-19.11,52.59-51.12,55.81a106,106,0,0,1-10.71.55Z"/>
    <path class="cls-2" d="M142.75,151.18c-17.35,0-32-4.46-42.82-12.94A96.76,96.76,0,0,1,71.39,144c-1.33.08-2.68.12-4,.12C35,144.07,0,119.44,0,79.65c0-22,11.84-42.15,30.66-53.9l0-.13a7.24,7.24,0,0,1,4.07-8.3,29.06,29.06,0,0,1,11-2.26h.35c.36-4.69,4.24-9.39,11.58-14A7.24,7.24,0,0,1,61.47,0a7.17,7.17,0,0,1,3.19.74c4,2,6.71,6.37,8.91,14.76A77.68,77.68,0,0,1,86,17.6a53.46,53.46,0,0,1,13.8-2.38h.06a7.24,7.24,0,0,1,6.37,10.69A72.64,72.64,0,0,1,120,36.38a7.24,7.24,0,0,1,6-3.19,7.5,7.5,0,0,1,2,.27c4.78,1.36,7,2.89,8.12,3.88,1.28-.09,2.57-.14,3.85-.16,3.26-2.8,6.25-5,6.4-5.15a7.25,7.25,0,0,1,11.45,7.17c27.67,6.77,46.81,29.36,46.81,55.62,0,31.72-19.11,52.58-51.12,55.81-3.63.36-7.23.55-10.71.55Z"/>
    <g>
      <g>
        <path class="cls-3" d="M131,77.89c0,32.07-16.39,56.2-60,58.83C39,138.64,7.25,114.58,7.25,79.65c0-32.06,27.94-57.18,60-57.18S131,45.82,131,77.89Z"/>
        <path class="cls-4" d="M125.9,77.39c0,29.55-18.71,49.26-56.79,52.22C39.78,131.88,9.2,108.22,9.2,78.67S37.29,24,66.71,24,125.9,47.84,125.9,77.39Z"/>
        <path class="cls-5" d="M120.82,66c0,24.71-21.66,43.84-56.62,46.32C37.28,114.21,9.46,98.5,9.46,73.79S35,24.45,62,24C91.92,23.52,120.82,41.28,120.82,66Z"/>
        <path class="cls-6" d="M49.56,25.78s1.08-2.14,5.47,1c4.83,3.44,11.12,10.62,14.15,8,14.08-12.17,22-8,22-8S81,31.9,77.42,40.2C75.81,44,98,41.39,94.15,57.59c0,0-.45-2.82-4.09-5.85-5.78-4.81-13.93-6.46-20.88-5.36-8.4,1.33-20.23,8.54-19,24.36,0,0-8.71-21.63,9.44-26.61,0,0-8.58-1.14-14.64-.37C41.76,44.17,32.8,48,29.75,55.25c0,0,3.3-13.58,14.66-15.73,3.49-.66,11.4-2.12,11.4-2.12s.51-2.93-4.1-9.08C49.07,24.81,49.56,25.78,49.56,25.78Z"/>
        <path class="cls-7" d="M37.66,23.93s10.24-4.59,17.27,1.66c4.43,3.94,11.22,11.79,14.25,9.17A52,52,0,0,1,99.81,22.47S77.18,29.79,76.3,38.9c-.39,4.07,25.27.55,21.07,20.16,0,0-2.45-9.22-9.54-12-9.1-3.51-14.1-2.18-20.9-.34-10,2.7-22,10.53-20.78,26.35,0,0-4.69-24,13.46-29a30.54,30.54,0,0,0-12.88-2.74c-3.23,0-19.49,3-22.54,10.35a27.84,27.84,0,0,1,22-14.93c5.27-.58,12.88,2,12.88,2a61.91,61.91,0,0,0-7.32-10.54C47.51,23.35,37.66,23.93,37.66,23.93Z"/>
        <path class="cls-8" d="M47.46,24.08S50.68,23,57.7,29.25c4.44,3.94,5.31,12.26,9.08,8.88C80.63,25.69,90.46,25.07,90.46,25.07S75.27,30.79,74.25,39.88c-.29,2.62,19.51,1.21,21,11.57,0,0-1.32-1.86-5.33-4.12-7.23-4.08-18.53-4.16-23.12-2.91-10,2.72-14,7.28-19.9,16.1,0,0,2-12.81,17-16.68a38.45,38.45,0,0,0-15.22-4c-3.23,0-7.61-.78-16.1,4a19,19,0,0,1,13.9-6.15c5.82.08,14.34,2.19,14.34,2.19a67.3,67.3,0,0,0-6.15-10.83C51,23.63,47.46,24.08,47.46,24.08Z"/>
        <path class="cls-9" d="M72.06,39.42c1.23,1.64-1.12,4.37-4.07,5.45s-6.86.52-6.63-1.52c.41-3.57,3.38-4.45,5.42-5.22C69.72,37,70.52,37.38,72.06,39.42Z"/>
        <path class="cls-10" d="M53.27,15.93S63.1,27.41,63,41.51c0,0,5.1,3,7.26-1.4,0,0-2.61-29.83-8.8-32.86C61.47,7.25,53,12.52,53.27,15.93Z"/>
        <path class="cls-11" d="M54.54,15.83S64.83,28,64.5,42a7.52,7.52,0,0,0,1.65-1.41C64.93,31,62.42,20,58,11.61A9.45,9.45,0,0,0,54.54,15.83Z"/>
        <path class="cls-12" d="M61.77,9.88A11.47,11.47,0,0,0,58,11.61c4.43,8.39,6.94,19.4,8.16,29a11.67,11.67,0,0,0,2-4.59S68.15,16.52,61.77,9.88Z"/>
        <path class="cls-10" d="M62.14,9.29c.35.47.93,3.51-2.29,5.47C57,16.47,55,16.53,54.65,16.07s-1.09-1.64,2.55-4.58C58.93,10.1,61.8,8.83,62.14,9.29Z"/>
        <path class="cls-13" d="M61.7,9.88c-.28-.38-2,.49-3.78,1.82a15.61,15.61,0,0,0-2.65,2.61,12.55,12.55,0,0,0,5.69-2A4.26,4.26,0,0,0,61.7,9.88Z"/>
        <path class="cls-14" d="M55.27,14.31c-.58.74-.93,1.35-.8,1.52.28.38,2.85.13,4.64-1.19A7.1,7.1,0,0,0,61,12.33,12.55,12.55,0,0,1,55.27,14.31Z"/>
        <path class="cls-15" d="M22.14,52.62a13,13,0,0,0,10.4,7.9S19,73.47,27.34,97.41C27.34,97.41,8.09,81.31,22.14,52.62Z"/>
        <path class="cls-16" d="M110.55,52.62s-1.76,8.49-8.49,10.54c0,0,13.17,19.9,2.34,45.66a36.06,36.06,0,0,0,14-33.81C115.79,54.63,110.55,52.62,110.55,52.62Z"/>
        <ellipse class="cls-17" cx="103.79" cy="67.9" rx="3.65" ry="6.07" transform="translate(-17.03 39.88) rotate(-20.13)"/>
        <path class="cls-17" d="M111.47,81.19a2.7,2.7,0,1,1-3.31-2.55A3,3,0,0,1,111.47,81.19Z"/>
        <path class="cls-18" d="M54,25.71c1.08.84,1.61,1.95,1.2,2.48s-1.62.28-2.7-.56-1.62-1.95-1.2-2.48S52.87,24.87,54,25.71Z"/>
        <path class="cls-18" d="M58.56,29.75A1.15,1.15,0,1,1,57,31.34a1.28,1.28,0,0,1-.17-1.77A1.26,1.26,0,0,1,58.56,29.75Z"/>
      </g>
      <g>
        <path class="cls-3" d="M197.33,94.82c0,21.82-10.79,45.19-44.6,48.6-36.76,3.7-65.59-12.54-64.49-49.14.85-28.38,21.77-49.86,52.7-49.86S197.33,66.42,197.33,94.82Z"/>
        <path class="cls-4" d="M192.39,92.14c0,23.32-12.28,41.46-43.93,46.64-28.82,4.72-60.16-13.27-59.13-47.14.81-26.27,20.58-46.15,49.79-46.15S192.39,65.86,192.39,92.14Z"/>
        <path class="cls-5" d="M187.4,81.77a41.65,41.65,0,0,0-2.05-13c-9.22-14.06-26.55-23.3-46.23-23.3-29.21,0-49,19.88-49.79,46.15a45.44,45.44,0,0,0,1.91,15c10,13.77,29.61,18.4,49.61,18.4C170.07,125,187.4,98.57,187.4,81.77Z"/>
        <path class="cls-6" d="M100.17,93s.08-9.69,6-11.91,11-8.55,11-8.55,4.55-5.11-3.64-12c-8.4-7-.08-4.59-.08-4.59l11.64,10.57s4.28,1.73,9.95-7.9a27.82,27.82,0,0,1,17.62-13.2l1.56.31a22.41,22.41,0,0,0-13.76,16.65c-1.41,7.46,0,4.15,0,4.15s6.85-1.31,11.26.86c5.92,2.89,3.78,2.19,3.78,2.19s-12.65-2.2-15.73,2.91c-1.31,2.18-.89,8.53,2.06,12.26s3.4,4.37,3.4,4.37S128.33,80.85,124,80.52C118.57,80.1,106.86,81,100.17,93Z"/>
        <path class="cls-7" d="M150.65,37.84c-5,8.46-5,8.44-7.22,13.44S139,63.54,139.93,65s3.49.49,4.92.34l5.8-.6s-6.9,3.82-8.94,5.88c-2.57,2.6-2.45,6.62-2.14,8.07.53,2.53-3.19,2.83-3.19,2.83s-3.78,1.49-9.51-1.12-8.76-2.09-16.8,0a35.47,35.47,0,0,0-17,9.6c-2.12,2.1,3.13-5,3.13-5a75.55,75.55,0,0,1,6.14-5.45c7.51-6.1,11.73-6.56,17.81-8.65,2.22-.76-2-4.76-3.83-7.42s-4.09-3.93-6.84-5.15c-2.36-1-8.18-1.85-8.18-1.85s6.39-2.67,12.58-1.29c2.77.62,6.1,3,8.52,4.71s5.58,5.38,6.89,4.88c4.25-1.66,3.83-9.56,9.37-16.33C142.32,44.05,150.65,37.84,150.65,37.84Z"/>
        <path class="cls-8" d="M146.36,43.15s-3.87,6.79-5.45,9.67c-1.91,3.49-4,12-3.07,13.48s3.16.14,4.59,0a6.24,6.24,0,0,1,2.5.23,14.79,14.79,0,0,0-4.11,3A11.16,11.16,0,0,0,138,77.83c.54,2.53-4.29-2.24-4.29-2.24.22-.58-.08,6.5-5.54,3.43-4.09-2.3-3.46-3.77-15.38-.75A47,47,0,0,0,100.43,83s-.45-.8,4.09-3.82c6.13-4.09,13.38-6,18.39-7.53,1.76-.55-2.47-5.36-4.21-8-2.69-4.07-10.51-7.47-10.51-7.47s6.27-1.21,13.52,4.56c2.2,1.75,7.56,8.9,9.2,6.72,2.17-2.89,4.38-11.61,8.08-16.82A33.75,33.75,0,0,1,146.36,43.15Z"/>
        <path class="cls-9" d="M135.67,70.61c-.13-1.14-2.29-1.83-4.82-1.54s-5.92,3.7-5.79,4.84c.34,3,3.39,2.41,5.65,1.36C135.92,72.85,135.8,71.75,135.67,70.61Z"/>
        <path class="cls-10" d="M132.38,69.88a26.6,26.6,0,0,1-2-14.38,27.66,27.66,0,0,1,3.06-8.9s.41-.79-2.1-3.74c-1-1.19-5.37-2.43-5.37-2.43s-2.2,5.6-1.9,14.73c.21,6.51,3.81,19.21,3.81,19.21S132.38,75.77,132.38,69.88Z"/>
        <path class="cls-19" d="M128.86,43.89l-2.54-1.38a52.33,52.33,0,0,0-1.26,10.91,68.5,68.5,0,0,0,1.69,14C126.18,59.4,125.3,51.12,128.86,43.89Z"/>
        <path class="cls-8" d="M128.75,57.47a25.06,25.06,0,0,1,3.63-11.67l-3.52-1.91c-3.56,7.23-2.68,15.51-2.11,23.56a29.47,29.47,0,0,0,2,6s.84-6,.74-7.36C129.28,63.4,128.41,63.9,128.75,57.47Z"/>
        <path class="cls-13" d="M126.32,42.51a1,1,0,0,0,.23.62,23.11,23.11,0,0,0,4,.52C128.05,41.22,126.37,41.12,126.32,42.51Z"/>
        <path class="cls-14" d="M130.5,43.65a23.11,23.11,0,0,1-4-.52c1.09,1.46,5.83,2.67,5.83,2.67A20.59,20.59,0,0,0,130.5,43.65Z"/>
        <path class="cls-10" d="M126.23,41.65s1.81,2.58,3,3.18a16.05,16.05,0,0,0,3.18,1v.63a7.32,7.32,0,0,1-5.3-1.72,8.3,8.3,0,0,1-1.83-2.39Z"/>
        <path class="cls-16" d="M107.36,86.3S108.83,91,116,92.05c0,0-12,11.49-4.61,32.73C111.36,124.78,94.89,111.76,107.36,86.3Z"/>
        <path class="cls-16" d="M170.05,64.13A11.92,11.92,0,0,1,166.82,77s24.27,16,4.1,49.05c0,0,18.75-13.66,16.48-33.57C184.59,67.87,170.05,64.13,170.05,64.13Z"/>
        <path class="cls-17" d="M177.35,85.47c.77,2.08.37,4.13-.88,4.59s-2.88-.85-3.64-2.93-.37-4.13.88-4.59S176.59,83.4,177.35,85.47Z"/>
        <path class="cls-20" d="M168.65,78a1.92,1.92,0,1,1-2.35-1.8A2.12,2.12,0,0,1,168.65,78Z"/>
        <path class="cls-18" d="M140.89,67.67c-.64.36-1.09.9-1.61.6a1.22,1.22,0,0,1-.28-1.69,1.2,1.2,0,0,1,1.6-.6C141.13,66.28,141.86,67.12,140.89,67.67Z"/>
        <path class="cls-18" d="M144.12,66.92c-.33.2-.58.48-.85.32A.72.72,0,0,1,144,66C144.25,66.18,144.71,66.56,144.12,66.92Z"/>
      </g>
    </g>
  </g>
</svg>
