<svg id="Layer_1" data-name="Layer 1" xmlns="http://www.w3.org/2000/svg" width="172.76" height="218.4" viewBox="0 0 172.76 218.4">
  <defs>
    <style>
      .cls-1 {
        opacity: 0.5;
      }

      .cls-2 {
        fill: #fff;
      }

      .cls-3 {
        fill: #ff641b;
      }

      .cls-3, .cls-4 {
        stroke: #5b1e00;
        stroke-miterlimit: 10;
      }

      .cls-4 {
        fill: #91623a;
      }
    </style>
  </defs>
  <g>
    <path class="cls-1" d="M19.2,218.4a9.34,9.34,0,0,1-9.33-9.33,5.25,5.25,0,0,1,0-.56,1062.4,1062.4,0,0,0,.81-176.87,15.11,15.11,0,1,1,22.62-7.81,61.15,61.15,0,0,0,17.78,2.44c13.37,0,27.19-3.32,41.83-6.83s30-7.18,44.84-7.18c11.5,0,21.57,2.16,30.78,6.58a7.41,7.41,0,0,1-.3,13.49c-21.26,9-30.51,19.69-30,34.56C138.75,81,147.47,89,158.51,99.13c3.44,3.15,7,6.41,10.5,10.05a7.41,7.41,0,0,1-5.32,12.54h0a7.34,7.34,0,0,1-2.92-.6,57.43,57.43,0,0,0-23-4.37c-12.93,0-26.22,3.18-40.3,6.54s-28.94,6.9-43.48,6.9a73.55,73.55,0,0,1-23-3.46c-.18,27.36-1,55.08-2.46,82.56A9.35,9.35,0,0,1,19.2,218.4Z"/>
    <path class="cls-2" d="M15.32,214.52A9.35,9.35,0,0,1,6,205.19c0-.19,0-.37,0-.56A1061.34,1061.34,0,0,0,6.83,27.76,15.12,15.12,0,1,1,30.24,15.12,15.28,15.28,0,0,1,29.45,20a61.15,61.15,0,0,0,17.78,2.44c13.37,0,27.19-3.32,41.83-6.83s30-7.18,44.84-7.18c11.5,0,21.56,2.15,30.78,6.58a7.4,7.4,0,0,1-.3,13.48c-21.26,9-30.51,19.7-30,34.57.49,14.11,9.21,22.11,20.25,32.24,3.44,3.15,7,6.41,10.5,10a7.41,7.41,0,0,1-5.32,12.54h0a7.34,7.34,0,0,1-2.92-.6,57.43,57.43,0,0,0-23-4.37c-12.94,0-26.23,3.18-40.3,6.54s-28.94,6.9-43.48,6.9a73.55,73.55,0,0,1-23-3.46c-.18,27.36-1,55.08-2.46,82.56A9.35,9.35,0,0,1,15.32,214.52Z"/>
    <g>
      <path class="cls-3" d="M159.43,111.29c-44.09-18.79-94.55,24.29-138.64,2a1,1,0,0,1-.49-1c5.26-25.94,4.61-53.45-2.5-88.35a.93.93,0,0,1,1.31-1C63.71,44.4,117.29-.62,161.88,20.79a.93.93,0,0,1,0,1.7c-16.28,6.92-34.71,18.24-33.93,40.74.75,21.76,17.72,31.15,32.55,46.56A.93.93,0,0,1,159.43,111.29Z"/>
      <path class="cls-4" d="M15.32,208.05h0a2.86,2.86,0,0,1-2.86-2.86,1074,1074,0,0,0,0-187.77,2.86,2.86,0,0,1,2.86-2.86h0a2.86,2.86,0,0,1,2.86,2.86,1764.85,1764.85,0,0,1,0,187.77A2.86,2.86,0,0,1,15.32,208.05Z"/>
      <circle class="cls-4" cx="15.12" cy="15.12" r="8.65"/>
    </g>
  </g>
</svg>
