<svg xmlns="http://www.w3.org/2000/svg" xmlns:xlink="http://www.w3.org/1999/xlink" width="143.21" height="333.96" viewBox="0 0 143.21 333.96">
  <defs>
    <style>
      .cls-1, .cls-11 {
        fill: none;
      }

      .cls-2 {
        isolation: isolate;
      }

      .cls-13, .cls-16, .cls-3 {
        opacity: 0.3;
      }

      .cls-4 {
        fill: #fff;
      }

      .cls-5 {
        opacity: 0.11;
      }

      .cls-42, .cls-6 {
        fill: #fbd1b5;
      }

      .cls-6 {
        stroke: #cca183;
      }

      .cls-11, .cls-17, .cls-19, .cls-28, .cls-30, .cls-32, .cls-40, .cls-6, .cls-7 {
        stroke-miterlimit: 10;
      }

      .cls-10, .cls-7 {
        fill: #b9c0b0;
      }

      .cls-7 {
        stroke: #2c9b59;
      }

      .cls-8 {
        fill: #3093e6;
      }

      .cls-9 {
        fill: #097cc1;
      }

      .cls-11 {
        stroke: #878e6f;
      }

      .cls-12, .cls-28, .cls-33, .cls-40 {
        fill: #eeeded;
      }

      .cls-13, .cls-19 {
        fill: #717070;
      }

      .cls-13, .cls-15, .cls-16, .cls-23, .cls-26, .cls-33, .cls-36, .cls-39, .cls-48 {
        mix-blend-mode: multiply;
      }

      .cls-14 {
        fill: #342517;
      }

      .cls-15, .cls-16 {
        fill: #644f43;
      }

      .cls-15, .cls-23 {
        opacity: 0.5;
      }

      .cls-17 {
        fill: #a58484;
      }

      .cls-17, .cls-28, .cls-30, .cls-32, .cls-40 {
        stroke: #ba9b9b;
      }

      .cls-17, .cls-28, .cls-32 {
        stroke-width: 2px;
      }

      .cls-18 {
        fill: #c2c3c3;
      }

      .cls-19 {
        stroke: #5b4343;
      }

      .cls-20 {
        fill: #585857;
      }

      .cls-21, .cls-23 {
        fill: #7e4f25;
      }

      .cls-22 {
        fill: #442a19;
      }

      .cls-24 {
        fill: #ead3d3;
      }

      .cls-25 {
        fill: #878787;
      }

      .cls-27 {
        fill: #b3b2b2;
      }

      .cls-29 {
        fill: #dadada;
      }

      .cls-30, .cls-32 {
        fill: #f7f5f5;
      }

      .cls-31 {
        fill: #a3a3a3;
      }

      .cls-34, .cls-36 {
        fill: #afb0b0;
      }

      .cls-35 {
        fill: #9f9f9f;
      }

      .cls-37, .cls-39 {
        fill: #78c8c1;
      }

      .cls-38 {
        fill: #5ebeb6;
      }

      .cls-40 {
        stroke-width: 0.75px;
      }

      .cls-41 {
        clip-path: url(#clip-path);
      }

      .cls-43 {
        fill: #eac1a4;
      }

      .cls-44 {
        fill: #6b6f70;
      }

      .cls-45, .cls-48 {
        fill: #4b5157;
      }

      .cls-46 {
        fill: #808588;
      }

      .cls-47 {
        fill: #899497;
      }

      .cls-48 {
        opacity: 0.4;
      }

      .cls-49 {
        fill: #cca183;
      }

      .cls-50 {
        fill: #db9d8e;
      }

      .cls-51 {
        fill: #3d2e17;
      }

      .cls-52 {
        fill: #2d2b21;
      }

      .cls-53 {
        fill: #f2f0e9;
      }

      .cls-54 {
        fill: #f4a198;
      }

      .cls-55 {
        fill: #60201e;
      }

      .cls-56 {
        fill: #fff7f4;
      }

      .cls-57 {
        fill: #f58778;
      }

      .cls-58 {
        fill: #f97a98;
      }

      .cls-59 {
        fill: #aa7959;
      }
    </style>
    <clipPath id="clip-path">
      <path class="cls-1" d="M22.35,181.61s6.21-.89,8.37-.68c0,0,2.1,4,5,2.89s3.3-2.95.55-6.61-5.88-9.19-11.49-8.32S22.35,181.61,22.35,181.61Z"/>
    </clipPath>
  </defs>
  <g class="cls-2">
    <g id="Layer_1" data-name="Layer 1">
      <g>
        <path class="cls-3" d="M66.09,334c-15.16,0-29.47-1.08-40.3-3S4.05,325.83,4.05,317.21c0-7.72,8.69-12.22,28.88-14.81a7.41,7.41,0,0,1,.89-5.91c-.55-5.37-2-18-2.56-21.62-.4-2.67-.29-6.73-.08-12.64.07-2.1.17-4.84.14-6.23a9.2,9.2,0,0,1-.61-8.31c-.09-.55-.21-1.28-.34-2l-.09-.49c-.43-2.47-1.6-8.22-2.61-13-2.55-.29-4.27-.53-4.54-.57l-.13,0A6.75,6.75,0,0,1,17.27,225v-.15c0-.05-.2-12.08-.2-19.2v-.2c0-5.45.59-13.46.91-17.52-.11-.18-.21-.36-.31-.54-.2-.39-.34-.71-.49-1.06a2.49,2.49,0,0,1-.11-.29c-3.16-8-4.47-29.25-4.12-38.31.43-11.13,7.43-36,10.15-42.63,3.26-8,10-9.39,14.94-10.43,1.1-.22,2.11-.44,3.08-.7.51-.14,1.07-.32,1.68-.52.39-.32.8-.62,1.22-.9a32.66,32.66,0,0,1-9.46-15,15.38,15.38,0,0,1-7-8.35c-.37-1-3.55-10.09.41-15.77a8.9,8.9,0,0,1,.76-1,42.17,42.17,0,0,1,.91-17.05,47,47,0,0,1,1.43-4.81,8,8,0,0,1,.58-3.29c0-.06.05-.13.08-.19C36.37,16.51,42.57,13.36,46.61,12.5,51.33,7,59.29,4.05,69.52,4.05A54.13,54.13,0,0,1,76,4.44c20,2.38,26.8,22.18,27.08,23a6.62,6.62,0,0,1,.34,2.36,36.28,36.28,0,0,1,1,19.52,57,57,0,0,1-.54,6A9.11,9.11,0,0,1,106,57.87c3.71,6.47-1.16,15.14-1.72,16.11a16,16,0,0,1-8.22,7.07,35.64,35.64,0,0,1-8,12.11,6.51,6.51,0,0,1,1.24,1.27,3.15,3.15,0,0,1,.22.29c4.27,1.84,6.06,2.58,6.8,2.87l.92.35a16.56,16.56,0,0,1,5.08,2.74,7.2,7.2,0,0,1,.2-1.7,7.39,7.39,0,0,1,4-4.9,9.68,9.68,0,0,1,4.58-1.16,9.51,9.51,0,0,1,2.26.27c2-7.17,4.51-12.67,10-12.67a6.71,6.71,0,0,1,3.54,1,8.78,8.78,0,0,1,2.25,2A8.74,8.74,0,0,1,131,83.3a7.7,7.7,0,0,1,4.66,1.57,8.31,8.31,0,0,1,3.25,5.34,7.33,7.33,0,0,1,2.53,2.24c1.1,1.54,2.11,4.2.73,8.15-.12.33-.26.67-.42,1a7.63,7.63,0,0,1,1.45,4.44c.13,6.56-5.78,9.07-10.89,10.54a19.42,19.42,0,0,1-2.32,2.55,24.73,24.73,0,0,1,1,6.52v.19a6.73,6.73,0,0,1-1.43,4.24c-2.74,6.28-12.78,27.18-25.65,29.35a12.52,12.52,0,0,1-2.11.18,12.22,12.22,0,0,1-7-2.16c0,.13,0,.24,0,.36,0,1.22.16,1.67,1.19,3.88a61.56,61.56,0,0,1,4.75,14.18c2.95,13.38,5.78,44,5.9,45.31a6.75,6.75,0,0,1-4,6.81l0,1.19c0,.24,0,.43,0,.56V230c.17,5.2.38,11.42.7,13.58,2.23,3.8,1.19,7.63.55,9.71a69.31,69.31,0,0,0,1.21,9c.25,1.44.51,3,.76,4.55.51,3.15,1,7.09,1.55,10.9.55,4.12,1.31,9.77,1.65,11a15.42,15.42,0,0,1,.62,3.45,8.64,8.64,0,0,1,2.28,4.6,8.44,8.44,0,0,1-.69,4.77,10.51,10.51,0,0,1-.09,3c9.11,2.08,16.9,5.52,16.9,12.74,0,8.09-9.53,12.63-31.85,15.17a25,25,0,0,1-5.5.63H90C82.46,333.63,74.42,334,66.09,334Zm0-33.5c3.58,0,7.13.06,10.61.18a8.2,8.2,0,0,1,.48-2.06c-.22-.95-.56-2.29-.73-2.91-1.17-4.48-6.64-26.54-7.68-32.63-.2-1.23-.38-2.49-.54-3.73-.14,3.94-.68,11-1.8,24.05-.32,3.68-.58,6.77-.7,8.43-.19,2.66-.13,5.13-.09,7.11,0,.54,0,1.06,0,1.56Z"/>
        <path class="cls-4" d="M62,329.91c-15.16,0-29.47-1.08-40.3-3S0,321.78,0,313.16c0-7.72,8.69-12.22,28.88-14.81a7.41,7.41,0,0,1,.89-5.91c-.55-5.37-2-18-2.55-21.62-.41-2.67-.3-6.73-.09-12.64.07-2.1.17-4.84.14-6.23a9.2,9.2,0,0,1-.61-8.31c-.09-.55-.21-1.28-.34-2l-.09-.49c-.43-2.47-1.6-8.22-2.61-13-2.54-.29-4.27-.53-4.54-.57l-.13,0A6.75,6.75,0,0,1,13.22,221v-.15s-.2-12.08-.2-19.2v-.2c0-5.45.58-13.46.9-17.52-.11-.18-.21-.36-.31-.54-.2-.39-.34-.71-.49-1.06A2.49,2.49,0,0,1,13,182c-3.16-8-4.46-29.25-4.12-38.31.43-11.13,7.43-36,10.15-42.63,3.26-8,10-9.39,15-10.42,1.09-.23,2.1-.45,3.07-.71.51-.14,1.07-.32,1.68-.52.39-.32.8-.61,1.22-.9a32.66,32.66,0,0,1-9.46-15,15.38,15.38,0,0,1-7-8.35c-.37-1-3.55-10.09.41-15.77a8.9,8.9,0,0,1,.76-1,42.11,42.11,0,0,1,.91-17,47.17,47.17,0,0,1,1.43-4.82,8,8,0,0,1,.58-3.29c0-.06.05-.13.08-.19C32.32,12.46,38.52,9.31,42.57,8.45,47.28,3,55.24,0,65.47,0A54.43,54.43,0,0,1,72,.39c20,2.38,26.79,22.18,27.07,23a6.9,6.9,0,0,1,.35,2.36,36.35,36.35,0,0,1,1,19.52,57,57,0,0,1-.54,6A9.46,9.46,0,0,1,102,53.82c3.7,6.47-1.17,15.14-1.73,16.11A16,16,0,0,1,92,77a35.81,35.81,0,0,1-8,12.11,6.51,6.51,0,0,1,1.24,1.27,3.15,3.15,0,0,1,.22.29c4.27,1.84,6.06,2.58,6.8,2.87l.92.35a16.56,16.56,0,0,1,5.08,2.74,7.77,7.77,0,0,1,.2-1.7,7.42,7.42,0,0,1,4-4.9,9.68,9.68,0,0,1,4.58-1.16,9,9,0,0,1,2.26.28c2-7.18,4.51-12.68,10-12.68a6.77,6.77,0,0,1,3.55,1,8.9,8.9,0,0,1,2.24,2,8.74,8.74,0,0,1,1.81-.19,7.7,7.7,0,0,1,4.66,1.57,8.31,8.31,0,0,1,3.25,5.34,7.33,7.33,0,0,1,2.53,2.24c1.1,1.54,2.11,4.21.73,8.15-.12.33-.26.67-.42,1a7.73,7.73,0,0,1,1.46,4.44c.12,6.56-5.79,9.07-10.89,10.54a20.29,20.29,0,0,1-2.33,2.55,24.73,24.73,0,0,1,1,6.53v.18a6.78,6.78,0,0,1-1.42,4.24c-2.75,6.28-12.79,27.18-25.66,29.35a12.5,12.5,0,0,1-2.1.18,12.15,12.15,0,0,1-7-2.16c0,.13,0,.25,0,.36,0,1.22.17,1.67,1.19,3.88a61.56,61.56,0,0,1,4.75,14.18c3,13.38,5.79,44,5.9,45.31a6.75,6.75,0,0,1-4,6.81l0,1.19c0,.24,0,.43,0,.56v.21c.17,5.2.38,11.42.7,13.58,2.23,3.8,1.19,7.63.55,9.71a69.31,69.31,0,0,0,1.21,9c.25,1.44.51,3,.77,4.55.5,3.15,1,7.09,1.54,10.9.56,4.13,1.31,9.77,1.65,11a15.42,15.42,0,0,1,.62,3.45,8.56,8.56,0,0,1,2.28,4.6,8.44,8.44,0,0,1-.69,4.77,10.51,10.51,0,0,1-.09,3c9.11,2.08,16.9,5.52,16.9,12.74,0,8.09-9.53,12.63-31.84,15.17a25.11,25.11,0,0,1-5.51.63h-.79C78.41,329.59,70.37,329.91,62,329.91Zm0-33.5c3.58,0,7.13.07,10.61.19a8.62,8.62,0,0,1,.48-2.07c-.21-.95-.56-2.29-.73-2.91-1.17-4.48-6.64-26.54-7.68-32.63-.2-1.23-.38-2.49-.54-3.73-.14,3.94-.68,11-1.8,24.05-.32,3.68-.58,6.77-.7,8.43-.19,2.66-.13,5.13-.09,7.11,0,.54,0,1.06,0,1.56Z"/>
        <g>
          <ellipse class="cls-5" cx="62.04" cy="313.16" rx="55.29" ry="10"/>
          <g>
            <g>
              <path class="cls-6" d="M69.87,86.75c-2.32,1-4.32,3-6.68,3.89-.79.31-2-.26-2.88-.32a15.6,15.6,0,0,1-2.44-.53c-1.13-.26-2.82-1.66-3.91-2,0,1.27-1.79,3.79-1.89,5s-.79.51-.94,1.72l2.65,2a19.85,19.85,0,0,0,2.9,1.7c1.11.58,2,1.41,3.08,2,1.91,1.06,4-.6,5.65-1.47,1-.55,2-1.15,3.07-1.69.66-.34,1.79-2.32,2.21-2.89C70.57,91.2,70,89.77,69.87,86.75Z"/>
              <path class="cls-7" d="M68.52,91.85c-.86.47-1.73.93-2.65,1.33-1.1.46-2.56,1.38-3.83,1.27a10.67,10.67,0,0,1-3.9-1.39,24,24,0,0,1-2.86-1.45H52.47a168.93,168.93,0,0,1-17.32,7.71L45.51,166.6l27.56-.73,6.16-70A48.24,48.24,0,0,1,68.52,91.85Z"/>
              <path class="cls-8" d="M69.32,143.45c-.26-2.92-6.31-39.32-6.77-40.66a3.33,3.33,0,0,0-1.23-.42,4.07,4.07,0,0,0-2,.26,50.36,50.36,0,0,0-1.17,5.53c-.39,2.16-.7,4.34-1,6.52-.54,4.25-3.33,31.56-3.33,35.64,1.23,1.66,5.7,7.3,7.18,7.22,1.16-.07,6.6-6.45,8.91-8.66C69.88,147.06,69.49,145.23,69.32,143.45Z"/>
              <path class="cls-9" d="M55.13,98.12A18.08,18.08,0,0,0,57,101.41c.95,1.25,1.86,2.1,2.26,2.1,1.28,0,3.16,0,3.37-.09a5.22,5.22,0,0,0,2.18-2.19c.18-.26.35-.51.51-.72a6.37,6.37,0,0,0,.6-1q.15-.3.33-.6A3.24,3.24,0,0,1,66,97.41c0-.12,0-.25,0-.37a7.26,7.26,0,0,0-1.53-1.62c-.63.06-1.24.11-1.8.13a12.81,12.81,0,0,1-3.66-.4,12.51,12.51,0,0,0-2.33,1.94l-.73.71-.15.14,0,0a.24.24,0,0,1-.07.13C55.54,98.24,55.33,98.21,55.13,98.12Z"/>
              <g>
                <path class="cls-10" d="M49.29,96c.35.3.72.61,1.08.94a11.11,11.11,0,0,1,.9.76,35.92,35.92,0,0,1,3,3.33l.33.4.06.06a8.67,8.67,0,0,1,1-2.33A10.13,10.13,0,0,1,57,97.6l.29-.32a8.1,8.1,0,0,1,4-2.78,6.56,6.56,0,0,1-.62-.23l-1.18-.5-1.34-.57a30.47,30.47,0,0,1-4.62-2.35l-.13-.11c-.16-.16-.33-.31-.5-.46a15.66,15.66,0,0,0-1.78,2.4c-.12.2-.24.4-.37.6l-.17.25A15.31,15.31,0,0,0,49.29,96Zm13.35-1.42c2.39,1.16,4.18,4.87,4.9,6.59A21.48,21.48,0,0,0,70.3,99c.79-.74,1.54-1.52,2.16-2.19l.39-.4a5,5,0,0,0,1.26-1.66c-.43-.43-.75-.77-1-1.1-.48-.52-.93-1.07-1.38-1.61s-1-1.19-1.51-1.76a4.77,4.77,0,0,0,0,.66v.13l-.12,0c-.58.28-1.14.61-1.69.94s-1.09.65-1.67.93A34.78,34.78,0,0,1,62.64,94.62Z"/>
                <path class="cls-11" d="M49.29,96c.35.3.72.61,1.08.94a11.11,11.11,0,0,1,.9.76,35.92,35.92,0,0,1,3,3.33l.33.4.06.06a8.67,8.67,0,0,1,1-2.33A10.13,10.13,0,0,1,57,97.6l.29-.32a8.1,8.1,0,0,1,4-2.78,6.56,6.56,0,0,1-.62-.23l-1.18-.5-1.34-.57a30.47,30.47,0,0,1-4.62-2.35l-.13-.11c-.16-.16-.33-.31-.5-.46a15.66,15.66,0,0,0-1.78,2.4c-.12.2-.24.4-.37.6l-.17.25A15.31,15.31,0,0,0,49.29,96Zm13.35-1.42c2.39,1.16,4.18,4.87,4.9,6.59A21.48,21.48,0,0,0,70.3,99c.79-.74,1.54-1.52,2.16-2.19l.39-.4a5,5,0,0,0,1.26-1.66c-.43-.43-.75-.77-1-1.1-.48-.52-.93-1.07-1.38-1.61s-1-1.19-1.51-1.76a4.77,4.77,0,0,0,0,.66v.13l-.12,0c-.58.28-1.14.61-1.69.94s-1.09.65-1.67.93A34.78,34.78,0,0,1,62.64,94.62Z"/>
              </g>
            </g>
            <path class="cls-12" d="M63.86,165.74a5.71,5.71,0,0,0-2.76-.22c-1.26.09-2.49.14-3.75.32,0,0,0,0,0,.06,2.12.28,4.31-.14,6.45,0C63.9,165.92,64,165.79,63.86,165.74Z"/>
            <path class="cls-12" d="M64.67,166.11a.57.57,0,0,0-.39-.23c-.07,0-.12.05-.1.11a.49.49,0,0,0,.26.31C64.56,166.39,64.77,166.23,64.67,166.11Z"/>
            <path class="cls-13" d="M56.67,184c.52,5.68.9,11.61,3.9,16.71.42-1.31-.09-2.81-.35-4.11-.3-1.51-.34-3.08-.51-4.61A97.16,97.16,0,0,1,59,181.5a71.23,71.23,0,0,1,1.28-12.61l-3.55,0C55.11,173.73,56.22,179.13,56.67,184Z"/>
            <g>
              <g>
                <path class="cls-14" d="M54.9,302.17c-.14-1.44-.2-4.09-1.16-5.28,0-.05-.35,1.17-.38,1.13a.89.89,0,0,0-.2-.19.27.27,0,0,1-.07-.08.12.12,0,0,0-.13,0,1.39,1.39,0,0,0-.55,0c-1,.11-2,.24-3.06.27-2.18.07-4.36.3-6.54.35-1,0-2.71.35-3.59-.19v0a.09.09,0,0,0-.14-.05c-.11,0-.24.06-.21.15a.54.54,0,0,0,.11.18c-.33,2-2.43,3.77-4.06,5.1a32.74,32.74,0,0,1-6.64,4.15c-2.26,1.07-4.73,1.78-7.06,2.73a4.38,4.38,0,0,0-3,3.81c-.21,1.4-.27,3.12,1.44,3.89,2.26,1,4.87,1,7.35.85,2.66-.12,5.35-.22,8-.49a27.28,27.28,0,0,0,4.77-.88A16.27,16.27,0,0,0,45.18,315a37,37,0,0,0,4-3.86c1.3-1.32,3-1.6,4.73-2.31a2,2,0,0,0,1.48-2.24C55.3,305.1,55.05,303.61,54.9,302.17Z"/>
                <path class="cls-15" d="M37.27,301.37c2.32.4,4.44,1.5,6.84,1.54,2.11,0,4-.81,5.93-1.39,1.19-.36,2.89-.86,4.09-.23a2.74,2.74,0,0,1,.74.57c-.13-1.48-.23-3.86-1.13-5,0-.05-.35,1.17-.38,1.13a.89.89,0,0,0-.2-.19.27.27,0,0,1-.07-.08.12.12,0,0,0-.13,0,1.39,1.39,0,0,0-.55,0c-1,.11-2,.24-3.06.27-2.18.07-4.36.3-6.54.35-1,0-2.71.35-3.59-.19v0a.09.09,0,0,0-.14-.05c-.11,0-.24.06-.21.15a.54.54,0,0,0,.11.18A6.07,6.07,0,0,1,37.27,301.37Z"/>
                <path class="cls-16" d="M53.55,307.33a18.07,18.07,0,0,1-2.93,1.22,8,8,0,0,0-3.24,2.34,19.21,19.21,0,0,1-5.73,4.18,31.39,31.39,0,0,1-7,2,37.83,37.83,0,0,1-8,.5,21.26,21.26,0,0,1-6.76-1,3.32,3.32,0,0,1-1.7-1.25,2.66,2.66,0,0,0,1.55,2.73c2.26,1,4.87,1,7.35.85,2.66-.12,5.35-.22,8-.49a27.28,27.28,0,0,0,4.77-.88A16.27,16.27,0,0,0,45.18,315a37,37,0,0,0,4-3.86c1.3-1.32,3-1.6,4.73-2.31a2,2,0,0,0,1.48-2.24c0-.16,0-.32,0-.48A8.65,8.65,0,0,1,53.55,307.33Z"/>
              </g>
              <g>
                <path class="cls-14" d="M99.69,299.85a3.7,3.7,0,0,1-.86-2,7.53,7.53,0,0,1,.4-2,.06.06,0,0,0,0-.07v-.12a.28.28,0,0,0-.34-.24c-1.41.18-2.74.57-4.12.81l-4.32.74c-1.5.25-3,.45-4.53.67a23.56,23.56,0,0,1-4.36.57c-.19,0-.27.22-.07.26l.17,0c.21,1.05.48,2.1.62,3.16a11,11,0,0,1-.32,3.91c-.73,3.15-2,6.18-2.47,9.37-.32,2.2-.42,5.06,2.24,6.3,3.13,1.46,7.71,1.13,10.88,0A15.54,15.54,0,0,0,95.21,320c4-2.48,4.59-6.86,4.55-10.74a36.93,36.93,0,0,1,.29-7A2.75,2.75,0,0,0,99.69,299.85Z"/>
                <path class="cls-15" d="M81.46,298.48l.17,0c.21,1.05.48,2.1.62,3.16a6.7,6.7,0,0,1,.06,1.09,13.83,13.83,0,0,0,5.38,2.12c2.79.44,4.86-.61,7.23-1.67,1.12-.49,2.34-.94,3.41-1.51a20.16,20.16,0,0,0,1.69-1.16,2.69,2.69,0,0,0-.33-.69,3.7,3.7,0,0,1-.86-2,7.53,7.53,0,0,1,.4-2,.06.06,0,0,0,0-.07v-.12a.28.28,0,0,0-.34-.24c-1.41.18-2.74.57-4.12.81l-4.32.74c-1.5.25-3,.45-4.53.67a23.56,23.56,0,0,1-4.36.57C81.34,298.21,81.26,298.44,81.46,298.48Z"/>
                <path class="cls-16" d="M99.69,299.85l-.45-.7c-.16,1.22-.37,2.43-.44,3.67-.17,2.63-.2,5.27-.54,7.89-.49,3.76-1.37,8.12-6,9.86-3.45,1.29-8.74,2-12-1.06a3.94,3.94,0,0,1-.93-3c-.08,1.85.32,3.79,2.39,4.76,3.13,1.46,7.71,1.13,10.88,0A15.54,15.54,0,0,0,95.21,320c4-2.48,4.59-6.86,4.55-10.74a36.93,36.93,0,0,1,.29-7A2.75,2.75,0,0,0,99.69,299.85Z"/>
              </g>
              <g>
                <path class="cls-17" d="M53.54,218.05a9.1,9.1,0,0,1,7-2.75c4.29.27,8.41.7,8.41.7V183.63H51Z"/>
                <path class="cls-18" d="M53.38,218.52l-2.6-35.07H69.1v32.76l-.22,0s-4.16-.45-8.41-.7a8.92,8.92,0,0,0-6.77,2.67ZM51.2,183.81l2.51,33.8a9.26,9.26,0,0,1,6.79-2.49c3.69.23,7.29.59,8.2.68v-32Z"/>
              </g>
              <path class="cls-19" d="M32.16,169.15l50.4-.47s8.66,37.06,9.12,50.79.57,21.74,1.55,23,.89,2.54.13,5,.63,8.77,1.84,16.33,2.64,20.32,3.4,22.78-.11,4.38,1.52,5.56,1.31,2.24.6,3.19.22,3.69-.27,4.06-8.23,4.15-11.33,4.42-5.56-1.78-6.48-2.05-.71-2-1.91-2.92-1.74-1.46-1.09-2.37.6-1.55-.7-6.56-6.6-26.41-7.56-32.06-1.24-12.52-2.11-14-1.6-2.25-.73-3.46a4.46,4.46,0,0,0,1.17-2.8c0-.91-3.74-10.57-6.22-23.78-1.5-8-4-11.05-4-11.05s-3.87,26.81-3.85,30.82-1.32,6.44,0,7.66,1.18,2.19.6,3.16.72,4.86,1.16,7.77-2,28.92-2.48,35.12.29,11.18-.36,11.73-9.26,3.37-10.79,3.28-6.35-1.7-6.79-2.19-2-3.58-1.52-4a5.3,5.3,0,0,0,1.23-1.39c.15-.43-2.17-20.48-2.83-24.86s.59-18.34-.07-19.86-1.66-2.43-.86-3.83.72-1.58-.08-6.14-3.77-18.71-4.21-20.47-4.56-21.34-3.22-50.36Z"/>
              <g>
                <path class="cls-20" d="M60.26,200.65l.24-.24c-.22-4.56-.8-9-1.12-13.58-.34-5-.18-10.08-.32-15.12,0-.14-.11-.1-.11,0-.05,5.05-.06,10.13.2,15.16C59.39,191.5,59.93,196.05,60.26,200.65Z"/>
                <path class="cls-20" d="M60.11,200.65a1.85,1.85,0,0,0,.27-.19,72.13,72.13,0,0,1-1.7-13.12,144.76,144.76,0,0,1-.34-15.45c0-.2-.15-.16-.17,0-.75,5.41-.23,11.38.18,16.84C58.62,192.42,58.78,197.53,60.11,200.65Z"/>
              </g>
              <path class="cls-13" d="M66.7,228.39c1.58.1,23.58-2.37,25.2-2.59,0-1.82-1.79-14.24-1.69-16.05.17-3.45-19.35,2.08-19.33-1.37a232.29,232.29,0,0,0-3.1-39.57L51.31,169q.36,4.86.64,9.72c.25,4.53.57,9.08.69,13.62a34.68,34.68,0,0,1-.93,9.6c.24,4.11-24.62,2.51-24.55,6.64.06,3.43,3.72,15.65,3.89,19.1,1.39.17,24.38.66,25.78.4,1-9.2,3-25.33,3-25.33s2.23,3,3.58,11.05C64.12,217.68,66,225.24,66.7,228.39Z"/>
            </g>
            <g>
              <g>
                <rect class="cls-21" x="52.37" y="166.69" width="16.53" height="4.02"/>
                <path class="cls-22" d="M69.1,170.89H52.17v-4.38H69.1Zm-16.53-.36H68.7v-3.66H52.57Z"/>
              </g>
              <path class="cls-23" d="M52.37,166.69v4H68.9v-4ZM65,168.37c-.07.69.3,1.08-.41,1.49s-2.7.38-3.57.33c-1.49-.08-5.45.52-5.3-1.7.05-.72.38-1.33,1.29-1.26h.21c1.22,0,2.42-.12,3.64-.1a17.19,17.19,0,0,1,3,.12C64.62,167.35,65.08,167.58,65,168.37Z"/>
              <g>
                <path class="cls-24" d="M63.27,165.47h-5.5c-2.07,0-2.25,1.44-2.25,3.21s.18,3.21,2.25,3.21h5.5c2.07,0,2.19-1.44,2.19-3.21S65.34,165.47,63.27,165.47Zm-.67,5.39H58.43c-1.57,0-1.71-1-1.71-2.18s.14-2.17,1.71-2.17H62.6c1.57,0,1.65,1,1.65,2.17S64.17,170.86,62.6,170.86Z"/>
                <path class="cls-25" d="M62.6,171H58.43c-1.9,0-1.9-1.42-1.9-2.36s0-2.36,1.9-2.36H62.6c1.85,0,1.85,1.31,1.85,2.36S64.45,171,62.6,171Zm-4.17-4.35c-1.28,0-1.51.64-1.51,2s.23,2,1.51,2H62.6c1.36,0,1.46-.75,1.46-2s-.1-2-1.46-2Z"/>
              </g>
              <g class="cls-26">
                <path class="cls-27" d="M56.72,168.68s0,0,0-.06a1.87,1.87,0,0,0-.07.22,3.73,3.73,0,0,0,0,1.7,1.47,1.47,0,0,0,1,.69,12.1,12.1,0,0,0,2,.19,11.48,11.48,0,0,0,3-.21,1.76,1.76,0,0,0,1.49-2.14c0,1-.26,1.79-1.65,1.79H58.43C56.86,170.86,56.72,169.88,56.72,168.68Z"/>
                <path class="cls-27" d="M63.74,166.52a1.64,1.64,0,0,0-1-.3,15.61,15.61,0,0,0-2.27-.07,17.75,17.75,0,0,0-2.25.14,2.33,2.33,0,0,0-1,.55,1.79,1.79,0,0,1,1.18-.33H62.6c1.17,0,1.51.53,1.61,1.31A1.61,1.61,0,0,0,63.74,166.52Z"/>
              </g>
            </g>
            <path class="cls-28" d="M43.8,222.68h0a193.52,193.52,0,0,1-23.67-1.8l-.16,0v-.15c0-.13-.2-12.3-.2-19.33s1.08-19.21,1.09-19.33v-.12l1.84-.63-.13-.85a2.72,2.72,0,0,1-1.23.29,3.61,3.61,0,0,1-1.68-.44l-.05,0,0-.05c-2.65-5.27-4.33-26.33-4-36.26s7.21-34.33,9.66-40.33C27.2,99,31,98.17,35.38,97.25c1.13-.24,2.3-.48,3.47-.8A74.5,74.5,0,0,0,51.6,91l.3-.16v.32c0,.33-1.27.26-1.36.39A24,24,0,0,0,50,99.87c.26,2.35.54,5.4.77,8.11l1.29,6.44c.85,10.1,4.15,35.39,4.4,49.87.26,15.26,0,56.61,0,57v.14l-.14,0A51.82,51.82,0,0,1,43.8,222.68Z"/>
            <path class="cls-28" d="M22.71,201.75h0c-.85,0-1.78,0-2.76-.12l-.19,0v-.23c0-7,1.08-19.21,1.09-19.33v-.12l1.43-.49,1-.21a31.07,31.07,0,0,1,4.29-.38l.75,0c1.94-.09,3.8-.09,5.54,0H34V181c.08,2.18.15,4.53.13,6.92v.7c0,2.71,0,5.79-1.21,8.37C31.51,200.14,28.06,201.75,22.71,201.75Z"/>
            <g>
              <path class="cls-29" d="M22.72,180.15l.15,1a13.12,13.12,0,0,1,1.62-.29c1.56-.16,3.14-.24,4.71-.29s3.09,0,4.62,0c0-.66,0-1.33-.08-2h0a22.33,22.33,0,0,0-1.32-2.22,1.8,1.8,0,0,1-.36-.87c0-.47.23-1.09-.06-1.5a13.58,13.58,0,0,0-2.37-2.36c-1-.86-2.14-1.77-3.58-1.35-2.05.61-3.87,2.58-5,4.22-.93,1.33-1.85,3.39-1.52,5.12.08.2.16.38.24.55A3,3,0,0,0,22.72,180.15Z"/>
              <path class="cls-29" d="M22.7,181.33l-.13-.88a2.72,2.72,0,0,1-1.23.29h0a3.61,3.61,0,0,1-1.68-.44l-.05,0,0-.05c-.09-.17-.17-.35-.26-.55a7.63,7.63,0,0,1,1.54-5.29c.92-1.31,2.8-3.61,5.12-4.29a2.69,2.69,0,0,1,.79-.11,4.74,4.74,0,0,1,3,1.5l.4.35a11.31,11.31,0,0,1,2,2,1.66,1.66,0,0,1,.14,1.24c0,.13,0,.25,0,.37a1.42,1.42,0,0,0,.28.69l.05.09c.16.26.33.52.5.78a9.5,9.5,0,0,1,.83,1.46l0,.08.08,2.18h-.21c-1.44-.07-3-.09-4.6,0-1.4,0-3,.11-4.7.28a11.34,11.34,0,0,0-1.6.29Zm.17-1.5.16,1a12.7,12.7,0,0,1,1.44-.25c1.67-.17,3.32-.23,4.72-.28,1.57,0,3,0,4.42,0l-.07-1.77a8.64,8.64,0,0,0-.79-1.37l-.51-.8-.05-.09a1.71,1.71,0,0,1-.32-.88c0-.12,0-.26,0-.4a1.48,1.48,0,0,0-.07-1,11.6,11.6,0,0,0-1.93-2l-.42-.36a4.37,4.37,0,0,0-2.71-1.4,2.22,2.22,0,0,0-.67.1c-2.29.67-4.2,3.12-4.91,4.14a7.34,7.34,0,0,0-1.49,5l.21.45a3.4,3.4,0,0,0,1.42.35h0A2.27,2.27,0,0,0,22.6,180Z"/>
            </g>
            <path class="cls-30" d="M43,105.31l.5.18c.91.29,4.08,3,4.44,3.88a.36.36,0,0,1,0,.34,7.75,7.75,0,0,1-2.11,1.54c-.89.55-2.1,1.29-2.15,1.63,0,0,0,0,0,0,2.71,2.78,8.23,16.54,9.4,19.81.44,1.23,1,2.75,1.51,4.35C53.78,125.43,52.82,114,52.4,109l-.12-1.59c-.23-2.69-.53-5.35-.8-7.7-.51-4.59-.77-7-.45-7.64l.14-.22c.18-.28.54-.81.73-1.15a3.2,3.2,0,0,0-1.07.4l-.82.43c-1.16.6-3.1,1.6-3.17,2.15s-.39,1.1-.59,1.62-.48,1.27-.68,1.91c-.33,1-.65,2-1,3.06-.16.5-.31,1-.47,1.52-.29,1-.55,1.81-.85,2.68C43.16,104.89,43.08,105.14,43,105.31Z"/>
            <path class="cls-27" d="M30.6,103.07c0-.07-.15,0-.12,0,.54,1.3,1.11,2.58,1.63,3.87s.92,2.64,1.46,3.93c0,.07.15,0,.14,0C33.28,108.18,31.8,105.53,30.6,103.07Z"/>
            <path class="cls-31" d="M38.93,161c-.06-.19-.13-.38-.19-.57a76.79,76.79,0,0,0-2.22-8c0-.07-.14,0-.11,0a46.32,46.32,0,0,1,1.21,4.63,46.4,46.4,0,0,0-3.14-7.36c0-.06-.14,0-.11.06,1.59,3.86,3,7.71,4.36,11.65a75.46,75.46,0,0,0,4.52,11.32s.09,0,.08,0A124.22,124.22,0,0,1,38.93,161Z"/>
            <path class="cls-31" d="M34.39,112.7c0-.07-.12,0-.12,0,0,2.68-.16,5.32-.33,8s-.14,5.63-.26,8.45c-.22,5-.93,10-1.25,15l-.42-.39a16.45,16.45,0,0,0-8.08-5.64c-.07,0-.13.08-.06.11a13.68,13.68,0,0,1,4.54,2.49,25,25,0,0,1,2,1.87,16.69,16.69,0,0,0-4.07-1.78,6.1,6.1,0,0,0-6.09,1.26s0,.09.05.06a6.69,6.69,0,0,1,6.7-.85,24.59,24.59,0,0,1,5,2.78l0,0h0l.4.24c0,.49-.07,1-.08,1.49-.26,5.61-.27,11.27-.3,16.89,0,4.26,1.52,8.93-.22,13a.16.16,0,0,0,.3.13,11.36,11.36,0,0,0,.85-5.76c-.09-2.17-.44-4.32-.48-6.49-.06-2.83.07-5.67.13-8.5s0-5.76.13-8.64c.21-5.7,1-11.37,1.26-17.07.1-2.82.07-5.64.2-8.45S34.84,115.45,34.39,112.7Z"/>
            <path class="cls-27" d="M31.42,185.06a37.17,37.17,0,0,1-1.68,5,20.77,20.77,0,0,1-3.07,4.7c-.09.11.06.22.16.12,2.81-2.42,4.1-6.4,4.71-9.8A.06.06,0,0,0,31.42,185.06Z"/>
            <g>
              <path class="cls-32" d="M72,92.17S74.38,93,73.46,97s-7.16,37.17-7.69,42-.71,76.28.87,82.23c0,0,15.61.61,29.25-3.53,0,0-2.88-31.34-5.77-44.47s-6.23-13.83-6.1-19.66,3.48-21.41,3.48-21.41,2.62,18,11.28,16.53,18.5-19.69,21.26-27c0,0,.13-14.34-13.65-13.12L100.49,122S97.21,109.55,96,105.42s-2.69-4.26-6.1-5.59S72,92.17,72,92.17Z"/>
              <path class="cls-33" d="M71.26,220c-3-1.76-3.56-5.55-4-8.58q-.84-5.4-1.55-10.82c.17,10.58.48,18.79,1,20.64,0,0,3.17.12,7.9-.12A10.53,10.53,0,0,1,71.26,220Z"/>
              <path class="cls-28" d="M76.83,181.66v.16c0,.84.1,1.76.22,2.87.09.82.16,1.66.23,2.47s.16,1.84.26,2.76c.37,3.24.83,7.26,4.24,9.19a11.92,11.92,0,0,0,5.79,1.58,8.88,8.88,0,0,0,3.84-.83,11.79,11.79,0,0,0,2.25-1.39C92.81,191.14,92,185,91.2,180.16c-1,.15-2.12.2-3.17.25-.74,0-1.43.07-2.1.13s-1.44.14-2.17.21c-1.86.17-3.78.34-5.62.66Z"/>
              <g class="cls-26">
                <path class="cls-34" d="M106.92,110.42a21.25,21.25,0,0,0,1.38,3.4,14,14,0,0,0,3.22,4.55,14.5,14.5,0,0,0,8.51,3.32c0-1.07-.42-14.16-13.55-13.06A14.22,14.22,0,0,0,106.92,110.42Z"/>
                <path class="cls-35" d="M120.23,121.89l-.22,0a14.65,14.65,0,0,1-8.63-3.37,14.44,14.44,0,0,1-3.26-4.6,21.19,21.19,0,0,1-1.39-3.44l0-.12a13.71,13.71,0,0,1-.42-1.68l0-.19.2,0c5.67-.48,9.87,1.69,12.09,6.21a17.55,17.55,0,0,1,1.68,7Zm-13.53-13.1a13.76,13.76,0,0,0,.38,1.45l0,.13a21.68,21.68,0,0,0,1.36,3.38,12.59,12.59,0,0,0,11.36,7.73,17.16,17.16,0,0,0-1.63-6.66C116,110.44,112.17,108.4,106.7,108.79Z"/>
              </g>
              <path class="cls-36" d="M117.91,118.73a17.19,17.19,0,0,0-4.63-5.8,14.79,14.79,0,0,0-6.29-2.32,21.2,21.2,0,0,0,1.31,3.21,12.65,12.65,0,0,0,11,7.78C118.88,120.63,118.42,119.67,117.91,118.73Z"/>
              <g>
                <path class="cls-37" d="M117,114a7.78,7.78,0,0,0-1.26-2.77,10.93,10.93,0,0,0-6.61-2.59c-.44.76-1,1.49-1.44,2.2l-.39.62a21.2,21.2,0,0,0,1,2.4,14,14,0,0,0,3.22,4.55,12.19,12.19,0,0,0,3.17,2c.36-.66.72-1.33,1.06-2,.44-.88.93-1.73,1.44-2.57A11.29,11.29,0,0,0,117,114Z"/>
                <path class="cls-38" d="M114.78,120.62l-.18-.08a12.48,12.48,0,0,1-3.22-2,14.44,14.44,0,0,1-3.26-4.6,22.77,22.77,0,0,1-1.05-2.42l0-.08.43-.69c.18-.29.38-.58.58-.88s.6-.87.86-1.31l.06-.11h.12a11.18,11.18,0,0,1,6.74,2.64l0,0a7.84,7.84,0,0,1,1.28,2.82,10.35,10.35,0,0,1,.24,1.87v0l0,0c-.55.93-1,1.77-1.43,2.57s-.75,1.42-1.07,2Zm-7.31-9.18a24.12,24.12,0,0,0,1,2.31,14.27,14.27,0,0,0,3.18,4.49,12.41,12.41,0,0,0,2.95,1.9c.3-.55.64-1.19,1-1.84s.87-1.63,1.42-2.55a10.07,10.07,0,0,0-.22-1.75,7.64,7.64,0,0,0-1.22-2.69,10.68,10.68,0,0,0-6.35-2.52c-.25.43-.53.84-.8,1.24s-.4.58-.58.86Z"/>
              </g>
              <path class="cls-39" d="M117.19,115.8A11.29,11.29,0,0,0,117,114a7.78,7.78,0,0,0-1.26-2.77,10.93,10.93,0,0,0-6.61-2.59c-.28.48-.59.94-.9,1.39a3,3,0,0,0,.4,1.89,10.25,10.25,0,0,0,3,2.67c1.17.79,2.44,1.89,4,1.87"/>
              <path class="cls-40" d="M65.63,141.82l0-.86c0-.94.07-1.58.11-1.91.5-4.59,5.72-37.87,6.68-42.14.87-3.85-.45-4.54-.46-4.55l-.3-.15L72,92a1.35,1.35,0,0,1,.61-.12,3.11,3.11,0,0,1,.71.1c2.7.68,4.12,1.25,4.42,2.52.53,1.63,1,3.3,1.51,4.93.28,1,.63,1.94,1,2.88a37.35,37.35,0,0,1,1.44,4.72l0,.17-.19,0a12.81,12.81,0,0,0-3.36,1.36,17.24,17.24,0,0,1-2.5,1.15s0,0,0,0l.79.82a20.52,20.52,0,0,1,3.34,4l.08.15-.15.09c-1.48.86-2.29,2.68-2.94,4.15l-.1.23-1,2.38c-.72,1.68-1.47,3.41-2.3,5.1C70.66,132,68.3,136.71,66,141Z"/>
              <path class="cls-31" d="M91.08,104.85a54,54,0,0,0-3.67,5.61c-1.11,1.83-2.64,3.51-3.18,5.58,0,.06.08.09.11,0a10.32,10.32,0,0,1,.53-1,102.75,102.75,0,0,1,1.57,11.72c.24,4,.25,8,.39,12,0,.05.09,0,.09,0,.14-4,.07-8-.17-12A51,51,0,0,0,85,114.87h0c.78-1.36,1.77-2.62,2.55-4,1.16-2,2.47-4,3.63-6C91.16,104.85,91.1,104.81,91.08,104.85Z"/>
              <path class="cls-27" d="M101,121.16s0,0,0,0a20.76,20.76,0,0,0-2,4.16,26.74,26.74,0,0,0-3,4.45,11.38,11.38,0,0,0-.93,5.13c0,.13.19.09.2,0a15.74,15.74,0,0,1,1.12-5.28,31.33,31.33,0,0,1,2.41-3.74q-.18.57-.33,1.14a12.66,12.66,0,0,0-.26,6.23c0,.11.22.05.21-.05a17.87,17.87,0,0,1,.34-6.14A31,31,0,0,1,101,121.16Z"/>
            </g>
            <g class="cls-41">
              <g>
                <path class="cls-42" d="M22,173.68c.14.7,1.47,10.61,1.69,14.37s1.7,6.53,4.18,6.87,1.35-14.51,2.37-15,2.55,3.93,4.94,3.09-2.91-6.76-3.61-8-2.37-1.84-2.45-3.11-1.84-2-3.39-1.51S21.84,173,22,173.68Z"/>
                <path class="cls-6" d="M27.92,195.11h-.11c-2.48-.34-4.1-3-4.34-7-.23-3.73-1.56-13.67-1.69-14.35s2.26-3,3.86-3.5a3.65,3.65,0,0,1,1.05-.15c1.42,0,2.54.78,2.6,1.82,0,.65.55,1.11,1.16,1.63a5.28,5.28,0,0,1,1.26,1.4c.16.28.56.82,1,1.44,1.44,1.93,3.63,4.85,3.17,6.2a1,1,0,0,1-.68.65,2,2,0,0,1-.67.12c-1.25,0-2.22-1.18-3-2.12-.44-.55-.91-1.11-1.18-1.11l-.07,0c-.3.24-.38,2.85-.44,5.15C29.68,191,29.44,195.11,27.92,195.11Z"/>
              </g>
              <path class="cls-43" d="M31.85,181c-.67-1.39-1.83-3-3.7-2.41,0,0,0,.09,0,.08a2.48,2.48,0,0,1,2.52,1.13,3.81,3.81,0,0,0-2.3-.33s-.05.08,0,.08a4.2,4.2,0,0,1,2.75.95.09.09,0,0,0,.1,0,5.93,5.93,0,0,0,.46.56C31.76,181.17,31.89,181.11,31.85,181Z"/>
            </g>
            <g>
              <g>
                <g>
                  <path class="cls-44" d="M46.31,154.74a3,3,0,0,1-2.18-.83,27.55,27.55,0,0,1-2.52-5l.86-.29a27,27,0,0,0,2.39,4.8c.8,1,4.77.72,9.17-1.9l.5.71A15.5,15.5,0,0,1,46.31,154.74Z"/>
                  <path class="cls-45" d="M53.09,150.91a3.61,3.61,0,0,0,1,2.52s.82.77,3.74-1.65a3.17,3.17,0,0,0-.84-2.1S53.75,149.73,53.09,150.91Z"/>
                </g>
                <g>
                  <path class="cls-46" d="M45.55,154.64a2.94,2.94,0,0,0,2-1.08,27.06,27.06,0,0,0,1.82-5.28l-.89-.18a27.46,27.46,0,0,1-1.72,5c-.66,1.06-4.63,1.27-9.36-.81l-.39.76A15.71,15.71,0,0,0,45.55,154.64Z"/>
                  <path class="cls-45" d="M38.3,151.63a3.57,3.57,0,0,1-.67,2.62s-.7.87-3.92-1.19a3.13,3.13,0,0,1,.54-2.19S37.48,150.54,38.3,151.63Z"/>
                </g>
                <path class="cls-45" d="M45.28,94.35a23.11,23.11,0,0,0,2.54-2.21,14.18,14.18,0,0,0-7.18,4.94c-3.74,5.12-2.45,12.68-1.59,17.68.13.79.26,1.52.36,2.18.34,2.4.61,3.89.8,4.81l-.26.11c-2.19,1-3.56,4-3.68,8.15-.15,5.32,5,17.79,5.21,18.32l1.7-.61c0-.12-5.23-12.67-5.08-17.66.09-3.37.82-5.6,2.34-6.3a4.83,4.83,0,0,1,4.11.77c4.42,3,5.13,17.78,3.52,23.09l1.76.45c1.57-5.21,1.11-21.49-4.5-25.27A6.88,6.88,0,0,0,42,121.51c-.17-.85-.45-2.32-.81-4.8-.1-.67-.22-1.41-.36-2.21-.86-5-2-11.9,1.3-16.48a10.36,10.36,0,0,1,1.41-1.54"/>
                <path class="cls-45" d="M41.14,116.69s.76,4.6.84,5,.21.58.84.79c0,0,.29,0,.16.37a5.06,5.06,0,0,0-.3,1.48c0,.37.08.53-.21.5s-1.43-.46-2.24.16c-.27.21-.34.17-.54-.23a11.94,11.94,0,0,1-.68-1.62c0-.24.34-.28.55-.4s.4-.15.28-.91-.78-4.54-.83-4.94.39-.47.89-.61S41.09,116.32,41.14,116.69Z"/>
                <path class="cls-47" d="M40.54,122.37a.08.08,0,0,0,0-.07c0-.1.44-.13.46,0a.09.09,0,0,1,0,.1C40.89,122.5,40.47,122.44,40.54,122.37Z"/>
              </g>
              <g>
                <g>
                  <path class="cls-45" d="M80.36,142.65a6.67,6.67,0,0,1-8.23,4A6,6,0,0,1,67.85,139a6.67,6.67,0,0,1,8.23-4A6,6,0,0,1,80.36,142.65Z"/>
                  <path class="cls-48" d="M79.61,137.54a6.62,6.62,0,0,1,.37,2.73,5.13,5.13,0,0,1-3.24,4.84A8,8,0,0,1,69.33,144a4.71,4.71,0,0,1-1.71-2.29,6.23,6.23,0,0,0,4.51,4.91,6.67,6.67,0,0,0,8.23-4A5.66,5.66,0,0,0,79.61,137.54Z"/>
                  <path class="cls-47" d="M75.88,141.21a2,2,0,0,1-2.46,1.18,1.79,1.79,0,0,1-1.27-2.27,2,2,0,0,1,2.45-1.18A1.79,1.79,0,0,1,75.88,141.21Z"/>
                </g>
                <path class="cls-45" d="M79.93,94.46A2.55,2.55,0,0,0,77.88,94c-.38.24-.2.31.67,1.38,3.54,4.33-2,32.32-4.35,42.32a.61.61,0,0,0,0,.33.26.26,0,0,1,.13-.08,1.82,1.82,0,0,1,1.35.38.85.85,0,0,0,.15-.3c0-.09,2.14-9.21,3.71-18.9C80.35,114.19,82.8,98.29,79.93,94.46Z"/>
              </g>
            </g>
            <g>
              <g>
                <path class="cls-6" d="M117,112.46c4.86-1.13,7-5.77,7-5.77,7.89-2,8.43-3.37,8.41-4.57s-1.41-.93-1.41-.93l-6.73,1.7s6.4-5.49,7.48-8.57-.92-2.84-3.48-.45-5,4.51-5,4.51-.82,0-.22-1.14,4.8-8.69,4.8-8.69a1.7,1.7,0,0,0-.28-2.33c-1.24-.94-3.07,1-8.4,9.2,0,0-.37-1,1.15-6.61,0,0,1.08-4.33-1-5.59,0,0-1.58,0-4.34,10.71,0,0-1.58,5.11-3.14,6.13,0,0-.23.46-1.27-1.59s-2.9-3.67-5.12-2.4c0,0-1.19.39.48,2.06s2,3.14,2.46,5.83a11.55,11.55,0,0,0,1.88,5.31l-1.71,2.61s4.13,4.51,7,4.54l1.2-3.53"/>
                <g>
                  <path class="cls-42" d="M115.84,93.63s9.3,3.12,8.62,10.1"/>
                  <path class="cls-49" d="M115.84,93.63a13.06,13.06,0,0,1,6.4,3.35,8.88,8.88,0,0,1,2.05,3.1,6.59,6.59,0,0,1,.17,3.65,10.11,10.11,0,0,0-.89-3.34,11.42,11.42,0,0,0-2-2.7,18.41,18.41,0,0,0-2.68-2.19C117.89,94.85,116.89,94.23,115.84,93.63Z"/>
                </g>
              </g>
              <path class="cls-6" d="M111.42,99.83s3.55,1.9,4,5.44"/>
            </g>
            <g>
              <path class="cls-6" d="M94.4,66.52c-2.49,4.25-7,5.71-10.4,3.73s-1.86-4.34.64-8.6,2.54-3.73,6.21-5.12C98.88,53.49,96.9,62.26,94.4,66.52Z"/>
              <path class="cls-50" d="M92,58.55a1.87,1.87,0,0,1,1.64.3A2.33,2.33,0,0,1,94.1,61a12.72,12.72,0,0,1-4,7,3.07,3.07,0,0,1-1.08.74,1.23,1.23,0,0,1-1.24-.22,1.39,1.39,0,0,1-.16-1.41c.43-1.18,1.6-1.89,2.58-2.69a2.25,2.25,0,0,0,.68-.76,1,1,0,0,0,0-1,1.26,1.26,0,0,0-.69-.39,7.5,7.5,0,0,0-1.63-.15c-.16-.83.57-1.54,1.08-2.07A5.07,5.07,0,0,1,92,58.55Z"/>
            </g>
            <g>
              <path class="cls-6" d="M29.87,62.83c1.67,4.49,5.34,6.42,8.42,4.8s2-4.11.36-8.61-1.76-4-4.72-5.75C27.46,49.41,28.21,58.33,29.87,62.83Z"/>
              <path class="cls-50" d="M32.75,55.16a1.39,1.39,0,0,0-1.42.12,2.61,2.61,0,0,0-.62,2.11,13.65,13.65,0,0,0,2.62,7.35,2.84,2.84,0,0,0,.84.85.9.9,0,0,0,1.07-.09,1.57,1.57,0,0,0,.29-1.38,7,7,0,0,0-1.9-3,2.29,2.29,0,0,1-.5-.82,1.1,1.1,0,0,1,.14-1,1,1,0,0,1,.62-.32,5,5,0,0,1,1.4,0,2.78,2.78,0,0,0-.7-2.17A4.26,4.26,0,0,0,32.75,55.16Z"/>
            </g>
            <path class="cls-6" d="M91.49,48.38C93,32,84.93,20.61,66.33,19.33c-18.06-1.25-29.2,7.39-30.72,23.75-.7,7.56.1,20.77.12,21.19,1.24,23.77,25,27.16,26.11,27,3.75-.68,20.42.09,26-23.38C88,67.46,90.79,55.94,91.49,48.38Z"/>
            <path class="cls-14" d="M55.1,46.54c-2-.66-9.36-1.07-11.41,3.25,0,0,5.94-1.9,10.91-.9C54.6,48.89,56.14,46.88,55.1,46.54Z"/>
            <path class="cls-14" d="M70.7,46.7c2.1-.46,9.42-.17,11,4.33,0,0-5.73-2.46-10.77-1.94C71,49.09,69.64,46.94,70.7,46.7Z"/>
            <path class="cls-50" d="M45,35.27s1,2.51,12.68,4.21A33.1,33.1,0,0,0,74,37.72l4.13-1.55s5.29-5.68,7.61,11.36l3.34,14.68.45-30.53L47,24.93l-7,6.43-5.1,8.16s.18,13.25.51,19l3.1-12.67S43.29,45.46,45,35.27Z"/>
            <path class="cls-14" d="M85.23,35.65l0,2.08,3.83,24.48a87.9,87.9,0,0,0,3.41-8.41s1.77-7.79.85-13.44a21.58,21.58,0,0,0,.14,4.47S98,30.25,87.81,19.5a10.59,10.59,0,0,0,4.81,6S87.1,9,71.15,7.09C62.8,6.09,50.6,6.88,46.21,15c0,0-6.85-1.8-12.31,10.79,0,0-1.47,3.69,6.65-6.28,0,0-5.41,1.24-8.37,13.47-2.79,11.55-.28,18.32,2.94,26.81,0,0,.09-9.59,3.14-16.52l.13,1.55s2.83,0,5.93-11.88c0,0-1.21,1.88,7.18,4.24A53.24,53.24,0,0,0,80.77,37Z"/>
            <g>
              <g>
                <ellipse class="cls-4" cx="73.85" cy="59.55" rx="5.66" ry="5.43" transform="translate(10.18 129.87) rotate(-86.73)"/>
                <path class="cls-51" d="M79.3,59.86a5.9,5.9,0,0,1-5.8,5.69,5.69,5.69,0,0,1-4.2-1.9,6.17,6.17,0,0,1,.5-8.7,5.76,5.76,0,0,1,4.39-1.41A5.92,5.92,0,0,1,79.3,59.86Zm-.07,0a5.75,5.75,0,0,0-1.32-4,5.2,5.2,0,0,0-7.66-.43,5.77,5.77,0,0,0-.45,7.81,5.22,5.22,0,0,0,7.66.46A5.8,5.8,0,0,0,79.23,59.85Z"/>
              </g>
              <ellipse class="cls-52" cx="73.86" cy="59.31" rx="3.52" ry="3.38" transform="translate(10.43 129.66) rotate(-86.73)"/>
              <ellipse class="cls-53" cx="75.19" cy="57.66" rx="1.02" ry="0.98" transform="translate(13.33 129.43) rotate(-86.73)"/>
            </g>
            <g>
              <g>
                <ellipse class="cls-4" cx="51.46" cy="58.19" rx="5.65" ry="5.43" transform="translate(-9.57 106.25) rotate(-86.73)"/>
                <path class="cls-51" d="M56.92,58.5a5.91,5.91,0,0,1-5.8,5.69,5.69,5.69,0,0,1-4.2-1.9,6.15,6.15,0,0,1,.5-8.69,5.71,5.71,0,0,1,4.39-1.4A5.9,5.9,0,0,1,56.92,58.5Zm-.08,0a5.7,5.7,0,0,0-1.32-4,5.21,5.21,0,0,0-7.65-.43,5.77,5.77,0,0,0-.45,7.81,5.21,5.21,0,0,0,7.65.45A5.75,5.75,0,0,0,56.84,58.5Z"/>
              </g>
              <ellipse class="cls-52" cx="51.48" cy="57.95" rx="3.51" ry="3.38" transform="translate(-9.32 106.04) rotate(-86.73)"/>
              <ellipse class="cls-53" cx="52.97" cy="56.65" rx="1.02" ry="0.98" transform="translate(-6.61 106.3) rotate(-86.73)"/>
            </g>
            <g>
              <path class="cls-54" d="M52.14,73.78S56.41,83,62.23,83.4c6.57.43,9.77-9.29,9.77-9.29A35.12,35.12,0,0,1,52.14,73.78Z"/>
              <path class="cls-55" d="M53.19,74.44S57.58,81.32,63.4,81c4.8-.3,7.4-6.74,7.4-6.74S63.38,77.88,53.19,74.44Z"/>
              <path class="cls-56" d="M54.79,74.54s2.09,4.57,9.37,3.71c0,0,4-.22,5.21-3.18C69.37,75.07,61.33,77.47,54.79,74.54Z"/>
              <path class="cls-57" d="M50.66,73.27a1.19,1.19,0,0,0,.29.19c4.52,2.16,15.53,5.35,21.77-.76,0,0-2.88,2.57-9,2.9S50.66,73.27,50.66,73.27Z"/>
              <path class="cls-58" d="M59,79.91a4.28,4.28,0,0,1,3.42-.52s1.6-1,4.21.36A6.53,6.53,0,0,1,59,79.91Z"/>
            </g>
            <path class="cls-14" d="M62.23,69.27s5.9,5.61-1.84,5.42c-3.21-.08-9.1-.78-9.1-.78l.58,1.75L50.72,74a1.74,1.74,0,0,1,1.42-2.74h0c7.18-2.13,8.44-2.81,10.09-2Z"/>
            <path class="cls-14" d="M62.4,69.17s-5,5.52,1.76,5.42c3.07,0,8.72-.77,8.72-.77l-.56,1.74,1.15-1.69a1.7,1.7,0,0,0-1.4-2.67h0c-3.65-1-6.17-1.84-9.67-2Z"/>
            <g>
              <path class="cls-42" d="M58.1,66.77a8.76,8.76,0,0,0,3.42,2.31c2,.67,5.16-1.82,5.16-1.82"/>
              <path class="cls-59" d="M58.1,66.77A20.57,20.57,0,0,0,60.18,68a5.55,5.55,0,0,0,2.07.69,6.52,6.52,0,0,0,2.17-.49c.74-.28,1.48-.61,2.26-.94a7.21,7.21,0,0,1-1.92,1.64,5,5,0,0,1-2.52.79,4.54,4.54,0,0,1-2.47-1A5.82,5.82,0,0,1,58.1,66.77Z"/>
            </g>
            <path class="cls-40" d="M32.23,165.8l.68,8.62c-10.34,1.66-13.25,5.88-13.25,5.88s-1.46-2.84-2.13-10.44"/>
          </g>
        </g>
      </g>
    </g>
  </g>
</svg>
