<svg id="Layer_1" data-name="Layer 1" xmlns="http://www.w3.org/2000/svg" width="186.68" height="192.59" viewBox="0 0 186.68 192.59">
  <defs>
    <style>
      .cls-1 {
        fill: #231f20;
        opacity: 0.5;
      }

      .cls-2 {
        fill: #fff;
      }

      .cls-3 {
        fill: #fcc172;
      }

      .cls-4 {
        fill: #7b4232;
      }

      .cls-5 {
        fill: #864e41;
      }

      .cls-6 {
        fill: #663124;
      }

      .cls-7 {
        fill: #98604f;
      }

      .cls-8 {
        fill: #889138;
      }

      .cls-9 {
        fill: #5c7835;
      }

      .cls-10 {
        fill: #a3a84c;
      }

      .cls-11 {
        fill: #b98d68;
      }

      .cls-12 {
        fill: #7dac45;
      }

      .cls-13 {
        fill: #96be61;
      }

      .cls-14 {
        fill: #539242;
      }

      .cls-15 {
        fill: #bfda7e;
      }

      .cls-16 {
        fill: #2c773b;
      }

      .cls-17 {
        fill: #f3752f;
      }

      .cls-18 {
        fill: #f05b22;
      }

      .cls-19 {
        fill: #f58d46;
      }

      .cls-20 {
        fill: #85a43d;
      }

      .cls-21 {
        fill: #77903b;
      }

      .cls-22 {
        fill: #fab061;
      }

      .cls-23 {
        fill: #f6f4c0;
      }

      .cls-24 {
        fill: #fcfae1;
      }

      .cls-25 {
        fill: #e1dd95;
      }

      .cls-26 {
        fill: #fcb63b;
      }

      .cls-27 {
        fill: #ffcc6a;
      }

      .cls-28 {
        fill: #ee9d20;
      }

      .cls-29 {
        fill: #7f4829;
      }

      .cls-30 {
        fill: #cb3d2d;
      }

      .cls-31 {
        fill: #e55245;
      }

      .cls-32 {
        fill: #b52b26;
      }

      .cls-33 {
        fill: #f27360;
      }

      .cls-34 {
        fill: #e9d99a;
      }

      .cls-35 {
        fill: #f39c56;
      }

      .cls-36 {
        fill: #da7d35;
      }
    </style>
  </defs>
  <g>
    <path class="cls-1" d="M80.91,192.59a8,8,0,0,1-2.86-.52c-.64-.24-1.26-.48-1.88-.74-3.17-.39-6-.83-8.62-1.35A75.16,75.16,0,0,1,34.94,175a35.6,35.6,0,0,1-4.27-2.61,7.74,7.74,0,0,1-2.84-3.85c-1.72-1.76-3.36-3.6-4.9-5.5a68.53,68.53,0,0,1-9.58-15.68A7.76,7.76,0,0,1,11.14,142c0-.13,0-.25,0-.37a66.72,66.72,0,0,1-2.82-11.93c-.1-.27-.18-.55-.26-.84a7.79,7.79,0,0,1-.15-2.8,65.24,65.24,0,0,1-.17-7.27,18.66,18.66,0,0,1-3.39-10.77c0-3.15,1.1-9.72,9.7-12.66-.45-1.34-1-2.73-1.6-4.17A45.29,45.29,0,0,1,9.2,80.71a17.42,17.42,0,0,1,2.19-12,11.7,11.7,0,0,1,0-2,9.7,9.7,0,0,1,3.94-7.3,8.06,8.06,0,0,1,4.74-1.52A8,8,0,0,1,27,62c1-6.1,3.11-10.87,6.39-14.55,4.25-4.76,10-7.05,15-8.66l2.12-.67a58.49,58.49,0,0,0,6.18-2.15,11,11,0,0,1,1-1.42A7.27,7.27,0,0,1,63.26,32a7.6,7.6,0,0,1,2,.28l.48.11a7.83,7.83,0,0,1,6,6.54q0,.33.06.66a17.39,17.39,0,0,1,2.87,2.16c.32-.33.65-.64,1-1a8.4,8.4,0,0,1,5.5-4.57c1.31-.93,2.67-1.81,4-2.61a47,47,0,0,1,6.2-3c1-.37,1.91-.71,2.87-1l.84-.27c.71-.23,1.41-.45,2.12-.65l1.23-.34a8.09,8.09,0,0,1,3.86-1h.52l1.11-.18.86-.12c.69-.1,1.41-.18,2.12-.25l.93-.08c.83-.06,1.67-.1,2.51-.11l.57,0h.28c.91,0,1.8,0,2.69.11a7.74,7.74,0,0,1,1-.28,7,7,0,0,1,.78-.38,7.25,7.25,0,0,1,2.8-.56,7.17,7.17,0,0,1,3.21.75,84.45,84.45,0,0,1,1.93-9.9,7.28,7.28,0,0,1,7-5.46,7.1,7.1,0,0,1,1.82.23,7.27,7.27,0,0,1,5.34,5.71c.31.6.85,1.54,1.28,2.26a86.36,86.36,0,0,1,7.41-11.8,7.29,7.29,0,0,1,5.83-2.92,7.21,7.21,0,0,1,2.28.37,7.29,7.29,0,0,1,5,6.89c0,5.14,0,10.38-.31,15.66a64.63,64.63,0,0,1,7.59-4.2,7.27,7.27,0,0,1,9.75,9.46c-1.42,3.31-2.86,6.67-4.47,10h.28a7.28,7.28,0,0,1,6.45,10.62,47.33,47.33,0,0,1-4.61,7.18A28.64,28.64,0,0,1,174,68a19.61,19.61,0,0,1,2.69,4.52c3.24,7.61,4.15,16.53,2.7,26.07,4.9,2.59,6.64,6.19,7.16,9.14a12.18,12.18,0,0,1-3.31,10.54,74.74,74.74,0,0,1-5.84,28.13,8.08,8.08,0,0,1-3.77,7.84,66.68,66.68,0,0,1-11,14.73c-10.84,10.84-29.47,19.63-46.34,21.87-2,.26-4.14.5-6.53.74a9,9,0,0,1-1.87.2h-.34c-4.87.42-9.67.63-14.27.63-3.15,0-6.29-.1-9.35-.3A8.31,8.31,0,0,1,80.91,192.59Zm11-126.86A30.39,30.39,0,0,1,96,67a21.62,21.62,0,0,1,2.3-1.39,18.75,18.75,0,0,1,9.51-10.9,7.54,7.54,0,0,1,.13-1.9q-.36,0-.72,0a7.22,7.22,0,0,1-1-.07A20.07,20.07,0,0,0,103.32,54c-.77.41-1.54.88-2.32,1.4a8.06,8.06,0,0,1-1.63,2.66,8.28,8.28,0,0,1-4.43,2.51c-.58.62-1.12,1.25-1.6,1.87-.26.34-.51.69-.75,1-.12.16-.23.33-.33.49A8.75,8.75,0,0,1,91.87,65.73Z"/>
    <path class="cls-2" d="M76.55,188.23a8.24,8.24,0,0,1-2.87-.52L71.81,187c-3.17-.39-6-.83-8.62-1.35a75.27,75.27,0,0,1-32.61-15,35.6,35.6,0,0,1-4.27-2.61,7.68,7.68,0,0,1-2.84-3.85c-1.72-1.76-3.36-3.6-4.9-5.5A68.75,68.75,0,0,1,9,143a7.69,7.69,0,0,1-2.21-5.35c0-.13,0-.25,0-.37A66.92,66.92,0,0,1,4,125.38a7.46,7.46,0,0,1-.26-.84,7.79,7.79,0,0,1-.15-2.8,62.92,62.92,0,0,1-.17-7.27A18.66,18.66,0,0,1,0,103.7C0,100.54,1.1,94,9.69,91c-.44-1.33-1-2.72-1.59-4.16A44.81,44.81,0,0,1,4.84,76.35,17.46,17.46,0,0,1,7,64.38a12.62,12.62,0,0,1,0-2A9.7,9.7,0,0,1,11,55a8.13,8.13,0,0,1,4.75-1.53,7.94,7.94,0,0,1,7,4.1c1-6.11,3.12-10.87,6.4-14.55,4.24-4.76,10-7.05,15-8.66l2.12-.67a61.71,61.71,0,0,0,6.18-2.15,9.58,9.58,0,0,1,1-1.42,7.25,7.25,0,0,1,5.5-2.52,7.09,7.09,0,0,1,2,.28l.49.11a7.83,7.83,0,0,1,5.95,6.54c0,.22,0,.44.06.65a18,18,0,0,1,2.86,2.17c.33-.33.65-.65,1-1a8.4,8.4,0,0,1,5.5-4.57,45.71,45.71,0,0,1,4-2.61,47,47,0,0,1,6.2-3c1-.37,1.91-.71,2.87-1l.84-.28c.71-.23,1.41-.44,2.11-.64L94,24a8.09,8.09,0,0,1,3.86-1l.51,0,1.12-.18c.21,0,.85-.12.85-.12.7-.1,1.42-.18,2.13-.25l.93-.08c.82-.06,1.67-.1,2.5-.11l.58,0h.28c.91,0,1.8,0,2.69.1a9.6,9.6,0,0,1,1-.27,7,7,0,0,1,.78-.38,7.18,7.18,0,0,1,2.8-.56,7.3,7.3,0,0,1,3.21.74A84.28,84.28,0,0,1,119.23,12a7.27,7.27,0,0,1,7-5.46,7.15,7.15,0,0,1,1.82.23,7.28,7.28,0,0,1,5.34,5.71c.31.6.85,1.54,1.28,2.26a86.36,86.36,0,0,1,7.41-11.8A7.29,7.29,0,0,1,147.94,0a7.27,7.27,0,0,1,7.26,7.26c0,5.14,0,10.38-.3,15.66a62.45,62.45,0,0,1,7.59-4.2,7.27,7.27,0,0,1,9.75,9.46c-1.42,3.31-2.87,6.67-4.48,10H168a7.27,7.27,0,0,1,6.46,10.62A47.84,47.84,0,0,1,169.89,56a28.64,28.64,0,0,1-.3,7.62,19.61,19.61,0,0,1,2.69,4.52c3.24,7.61,4.15,16.53,2.7,26.07,4.9,2.58,6.64,6.19,7.16,9.14a12.18,12.18,0,0,1-3.31,10.54A74.77,74.77,0,0,1,173,142a8.1,8.1,0,0,1-3.77,7.84,66.41,66.41,0,0,1-11.05,14.73c-10.84,10.84-29.46,19.62-46.34,21.86-2,.27-4.14.51-6.52.74a8.38,8.38,0,0,1-1.87.21h-.34c-4.87.43-9.67.64-14.27.64-3.16,0-6.29-.1-9.35-.3A8.39,8.39,0,0,1,76.55,188.23Zm11-126.87a31.8,31.8,0,0,1,4.1,1.27,20.21,20.21,0,0,1,2.31-1.39,18.72,18.72,0,0,1,9.51-10.9,7.1,7.1,0,0,1,.13-1.9q-.36,0-.72,0a7.45,7.45,0,0,1-1.06-.07A20,20,0,0,0,99,49.67c-.77.41-1.54.88-2.32,1.4A8.06,8.06,0,0,1,95,53.73a8.32,8.32,0,0,1-4.43,2.51c-.58.62-1.12,1.25-1.6,1.87q-.41.51-.75,1c-.12.17-.23.34-.33.5A8.5,8.5,0,0,1,87.51,61.36Z"/>
    <g>
      <path class="cls-3" d="M80.66,57.65c3.55-7,13.09-15,20.94-16.75,8.74-1.93,15.05,2.69,20.81,9.32s8.59,15.23,10.82,23.7c2.71,10.26,4.29,22.84,5.62,33.36,2.8-1.75,5.08,1.17,8.61-3.54.6-10.78-.85-22.95-2.69-33.5a63.08,63.08,0,0,0-14-29.34c-11.16-13-25.93-13.78-41.11-7.86-14.5,5.66-24.34,19.83-28.57,34.8s-3.65,30.84-2.71,46.36c5.44,1.61,11.2,1.85,16,2.25a222.15,222.15,0,0,1,1.31-39.36C76.45,70.41,77.61,63.64,80.66,57.65Z"/>
      <g>
        <path class="cls-4" d="M116.34,129.81a11.54,11.54,0,0,0,17.46-10.23c3.29.7,6.2-2.38,7.51-5.47a20.06,20.06,0,0,0,.76-13.47,14.14,14.14,0,0,0,5.6-19.33A10.51,10.51,0,0,0,137.2,64.84,3.94,3.94,0,0,0,136,60.9a10.43,10.43,0,0,0-3.82-2A74.17,74.17,0,0,0,121.6,56c-4.48-.89-9.25-1.34-13.54.25s-7.91,5.75-7.58,10.31A13.31,13.31,0,0,0,91,84.72a13.56,13.56,0,0,0-3.24,22.08,9.89,9.89,0,0,0,6.9,16.07c.5,4.42,4.41,8,8.74,9S112.35,131.77,116.34,129.81Z"/>
        <path class="cls-5" d="M97.16,70.22a10.29,10.29,0,0,0-4.64,9.66,4.17,4.17,0,0,0,1.81,3.32,4.94,4.94,0,0,0,3.61,0,18.9,18.9,0,0,0,5.13-2A8.43,8.43,0,0,0,106.63,77a6.55,6.55,0,0,0-8.21-8.46Z"/>
        <path class="cls-5" d="M86.65,91.58a11.1,11.1,0,0,0,.59,10.49c.75,1.2,2,2.34,3.36,2.24,1.67-.11,2.72-1.86,3.18-3.47A28.39,28.39,0,0,0,94.59,94c.08-1.93,0-4.2-1.59-5.31a3.66,3.66,0,0,0-3.78,0A6.47,6.47,0,0,0,86.65,91.58Z"/>
        <path class="cls-5" d="M109.69,105.61a7.71,7.71,0,0,0,3.93-3.9c.8-2.26-.17-4.73-1.14-6.92s-1.93-4.25-3.92-5.27c-2.22-1.13-4.93-.41-7.2.61A6.06,6.06,0,0,0,98,93c-.57,1.38-.17,2.93.12,4.38a41.18,41.18,0,0,0,1,4.82,7.09,7.09,0,0,0,2.76,4C104.16,107.6,107.26,106.9,109.69,105.61Z"/>
        <path class="cls-5" d="M123.63,73.85a7.28,7.28,0,0,0-2.75-4c-2.18-1.39-5-.81-7.54-.18a6.27,6.27,0,0,0-3.5,1.73,5.53,5.53,0,0,0-.85,4,22,22,0,0,0,1.67,6.87,5.37,5.37,0,0,0,2.59,3.09c1.34.53,2.84,0,4.17-.52,2.67-1.12,5.44-2.74,6.41-5.46A8.48,8.48,0,0,0,123.63,73.85Z"/>
        <path class="cls-5" d="M133.08,93.4c.61-2.94-1.43-6-4.19-7.17a11.23,11.23,0,0,0-8.74.46c-1.53.68-3.08,1.73-3.51,3.35a5.67,5.67,0,0,0,.12,2.74,16.6,16.6,0,0,0,2.47,5.51,5.82,5.82,0,0,0,3.1,2.53c1.65.42,3.35-.4,4.84-1.24C129.74,98.14,132.48,96.28,133.08,93.4Z"/>
        <path class="cls-5" d="M143.47,94a10.3,10.3,0,0,0,2.89-4.19,7.11,7.11,0,0,0-.06-5,4.18,4.18,0,0,0-2.09-2.32,6.25,6.25,0,0,0-3.41-.16,12.39,12.39,0,0,0-3.31.78,4.47,4.47,0,0,0-2.44,2.28,5.39,5.39,0,0,0-.12,3.06,13.89,13.89,0,0,0,2.07,5,4.6,4.6,0,0,0,2.24,2C140.73,95.94,142.31,95.08,143.47,94Z"/>
        <path class="cls-5" d="M136,79.55a29.92,29.92,0,0,0,5.74-2.44,6.26,6.26,0,0,0,2.8-2.55,4.36,4.36,0,0,0-1.08-4.72,8.52,8.52,0,0,0-4.58-2.17,17.16,17.16,0,0,0-7.1.14A4.67,4.67,0,0,0,128.4,70c-.61,1.33-.05,2.86.38,4.26a22.92,22.92,0,0,0,1,3.13A4.61,4.61,0,0,0,132,79.72,5.91,5.91,0,0,0,136,79.55Z"/>
        <path class="cls-5" d="M106.32,66.94a3.44,3.44,0,0,0,2.55.39,31.65,31.65,0,0,0,7-1.69c1.45-.52,3-1.3,3.53-2.74a3.89,3.89,0,0,0-1.76-4.33,9.35,9.35,0,0,0-4.83-1.21,11.74,11.74,0,0,0-3.79.33,5.08,5.08,0,0,0-3,2.2,7.83,7.83,0,0,0-.69,4.08C105.38,65.05,105.47,66.28,106.32,66.94Z"/>
        <path class="cls-5" d="M131,112.94a5.05,5.05,0,0,0,3.27,2.93,4.64,4.64,0,0,0,4.46-2.31,18.57,18.57,0,0,0,1.89-5c.45-1.49,1-3.08.54-4.56a4.48,4.48,0,0,0-3.81-2.85,8.77,8.77,0,0,0-4.83,1.1c-1.47.73-3,1.85-3.23,3.47a6.19,6.19,0,0,0,.21,2.3A20.14,20.14,0,0,0,131,112.94Z"/>
        <path class="cls-5" d="M116,121.17a6.94,6.94,0,0,0,3.81-1,14.58,14.58,0,0,0,5.25-3.92,6.53,6.53,0,0,0,1.18-6.2,6.25,6.25,0,0,0-3.53-3.33,11,11,0,0,0-4.91-.59,18,18,0,0,0-6.43,1.75,3.58,3.58,0,0,0-2.23,5.2,19.18,19.18,0,0,0,2.91,5.33A6.36,6.36,0,0,0,116,121.17Z"/>
        <path class="cls-5" d="M97.2,108.54a8,8,0,0,0-6.43.52,4.27,4.27,0,0,0-2.16,3.25,5.46,5.46,0,0,0,.82,2.81,18.11,18.11,0,0,0,3.21,4.32,4.82,4.82,0,0,0,2.85,1.64c1.69.15,3.11-1.23,4.1-2.62a10.54,10.54,0,0,0,1.74-3.42,5.25,5.25,0,0,0-.31-3.76A6.2,6.2,0,0,0,97.2,108.54Z"/>
        <path class="cls-5" d="M108.54,119.23a5.39,5.39,0,0,0-3.8-.88,7,7,0,0,0-5.67,4.7,3.65,3.65,0,0,0,.17,3.07,4.38,4.38,0,0,0,2,1.47A24.75,24.75,0,0,0,105,129a5.36,5.36,0,0,0,3,.16c1.79-.58,2.62-2.68,2.69-4.56A6.31,6.31,0,0,0,108.54,119.23Z"/>
        <path class="cls-5" d="M119.88,124.27a6.46,6.46,0,0,0-.32,2.22,2.17,2.17,0,0,0,1.16,1.81,3,3,0,0,0,1.79,0,13.67,13.67,0,0,0,4.66-1.74,7.52,7.52,0,0,0,3.14-3.79,1.91,1.91,0,0,0,.05-1.39c-.34-.73-1.3-.87-2.1-.82C125.63,120.71,121.88,122.56,119.88,124.27Z"/>
        <path class="cls-6" d="M99.53,86a.87.87,0,0,0-.56-.68,1.53,1.53,0,0,0-1.93.61,0,0,0,0,0,0,0,.8.8,0,0,0-.22.12.63.63,0,0,0-.2.76c.47.92,2,.54,2.57,0A.9.9,0,0,0,99.53,86Z"/>
        <g>
          <path class="cls-6" d="M103.51,84.23Z"/>
          <path class="cls-6" d="M104.75,83.13a2.62,2.62,0,0,0-.4.11,1.21,1.21,0,0,0-.43.35,3.05,3.05,0,0,0-.36.51l0,.06,0,.07h0c0,.09,0,.09,0,0a.43.43,0,0,0,0,.25.45.45,0,0,0,.12.26.55.55,0,0,0,.51.2,2.2,2.2,0,0,0,.75-.41,2.34,2.34,0,0,0,.32-.31,1.26,1.26,0,0,0,.19-.52A.53.53,0,0,0,104.75,83.13Z"/>
        </g>
        <path class="cls-6" d="M106.88,81c0-.44-.69-.45-.84-.09a.5.5,0,0,0,.08.57.39.39,0,0,0,.52,0A.54.54,0,0,0,106.88,81Z"/>
        <path class="cls-6" d="M95.85,103a1.54,1.54,0,0,0-1.26,0,.7.7,0,0,0-.39.82l0,0a1,1,0,0,0-.25.16h0a.66.66,0,0,0,.15,1.15,2,2,0,0,0,2.13-.86A.81.81,0,0,0,95.85,103Z"/>
        <path class="cls-6" d="M95.83,99.69a.5.5,0,0,0-.56.54v.37c0,.42.68.44.81.09l.14-.36A.48.48,0,0,0,95.83,99.69Z"/>
        <path class="cls-6" d="M114.27,125.93c0-.3,0-.59,0-.89a.92.92,0,0,0-.17-.64.78.78,0,0,0-.86-.23c-.37.12-.49.46-.61.78s-.19.49-.27.74a1,1,0,0,0,.79,1.3A1,1,0,0,0,114.27,125.93Z"/>
        <path class="cls-6" d="M127,102.06a2.36,2.36,0,0,0-1,.23h0l-.18,0h-.12a.86.86,0,0,0-.32,0,.84.84,0,0,0-.7.67.78.78,0,0,0,.5.82,2.9,2.9,0,0,0,1.24.13,2.83,2.83,0,0,0,.59-.15,1.22,1.22,0,0,0,.71-.61A.84.84,0,0,0,127,102.06Z"/>
        <path class="cls-6" d="M130.9,99.89c0-.17-.13-.28-.27-.3l-.16,0a.92.92,0,0,0-.4.08.55.55,0,0,0-.29.7.47.47,0,0,0,.3.27.56.56,0,0,0,.65-.17l.14-.22C130.91,100.1,130.87,100,130.9,99.89Z"/>
        <path class="cls-6" d="M116.83,101.38a.68.68,0,0,0-1.22,0s-.13.26-.08.19l-.09.14s-.18.21,0,.08l-.23.22,0,.07q.17-.15-.12.12a1.4,1.4,0,0,0-.25.6.79.79,0,0,0,.7.86,1.36,1.36,0,0,0,1.42-.92A1.93,1.93,0,0,0,116.83,101.38Z"/>
        <path class="cls-6" d="M114.34,103.93a2.28,2.28,0,0,0-.91.54.36.36,0,0,0,.35.57,2.22,2.22,0,0,0,.94-.51C115.07,104.29,114.71,103.76,114.34,103.93Z"/>
        <path class="cls-6" d="M127.27,80.78a3.65,3.65,0,0,0,.11-1.23A.82.82,0,0,0,127,79a.34.34,0,0,0-.19-.09l-.17,0a.93.93,0,0,0-1,.76,3.39,3.39,0,0,0,0,1.27.83.83,0,0,0,.94.67.88.88,0,0,0,.66-.49h0A.61.61,0,0,0,127.27,80.78Z"/>
        <path class="cls-6" d="M130.52,81.56a.49.49,0,0,0-.53-.28,1,1,0,0,0-.62.33c.08-.08,0,0-.08,0h0l-.1.06a.29.29,0,0,0-.17.47l0,0c0-.06,0,0,0,0a.66.66,0,0,0,.24.17,1.07,1.07,0,0,0,.53.07A.74.74,0,0,0,130.52,81.56Z"/>
        <path class="cls-6" d="M123,64.73v-.08h0a.79.79,0,0,0-.18-.41.93.93,0,0,0-1.09-.24c-.42.12-.63.8-.84,1.11a.81.81,0,0,0,1,1.21A1.74,1.74,0,0,0,123,64.73Z"/>
        <path class="cls-6" d="M125.33,68a.87.87,0,0,0-.56-.45,1.07,1.07,0,0,0-.92.15.53.53,0,0,0-.17.62,1,1,0,0,0,.73.49,1,1,0,0,0,.85-.28A.53.53,0,0,0,125.33,68Z"/>
        <path class="cls-6" d="M127.49,64.13a1.19,1.19,0,0,0-.78,1.05.32.32,0,0,0,.37.35,2.61,2.61,0,0,0,.27-.06,2.31,2.31,0,0,0,.35-.18,1.15,1.15,0,0,0,.45-.7C128.24,64.22,127.78,64,127.49,64.13Z"/>
        <path class="cls-6" d="M104.33,112.52a.6.6,0,0,0-1,.29c0,.29-.08.59-.14.88a2.62,2.62,0,0,0-.14,1.14.85.85,0,0,0,1.35.5A2.11,2.11,0,0,0,104.33,112.52Z"/>
        <path class="cls-7" d="M105.78,91.49a13.18,13.18,0,0,0-2.22.58,4.4,4.4,0,0,0-1.38.61,6.26,6.26,0,0,0-1.25.95.87.87,0,0,0-.28,1c.72,1.2,2.08,1,3.3.8s3.23-.72,3.72-1.86C108.28,92.21,107.11,91.31,105.78,91.49Z"/>
        <path class="cls-7" d="M103.19,96.52a1,1,0,0,0-1.34.19,1.43,1.43,0,0,0-.26.41l-.06.06a.71.71,0,0,0-.1.74,1.09,1.09,0,0,0,.29.35.82.82,0,0,0,.81.09l.29-.16a.24.24,0,0,1,.11-.06,1.48,1.48,0,0,0,.44-.34A.89.89,0,0,0,103.19,96.52Z"/>
        <path class="cls-7" d="M106.77,96a1.12,1.12,0,0,0-.2.17l0,.1a.3.3,0,0,0,.09.56,1.61,1.61,0,0,0,.38,0,.56.56,0,0,0,.43-.37A.42.42,0,0,0,106.77,96Z"/>
        <path class="cls-7" d="M116.54,70.79c-2.11-.87-4.93,1.21-5.44,3.24a.65.65,0,0,0,0,.24,3.14,3.14,0,0,0,0,1.1c.26,1.48,1.85.93,2.73.5A10.4,10.4,0,0,0,117,73.69,1.75,1.75,0,0,0,116.54,70.79Z"/>
        <path class="cls-7" d="M120.31,72.22a.72.72,0,0,0-.83-.59.83.83,0,0,0-.59.42h0a.53.53,0,0,0,0,.43v.11a.53.53,0,0,0,.61.43l.21,0A.72.72,0,0,0,120.31,72.22Z"/>
        <path class="cls-7" d="M118.45,74.81a.3.3,0,0,0-.34-.32l-.16,0a.41.41,0,0,0-.32.72.56.56,0,0,0,.7,0A.36.36,0,0,0,118.45,74.81Z"/>
        <path class="cls-7" d="M116.58,77.26a.55.55,0,0,0-.48-.6.6.6,0,0,0-.64.47l-.07.28a1.15,1.15,0,0,0,0,.41.48.48,0,0,0,.42.4.53.53,0,0,0,.52-.3l.13-.24A1,1,0,0,0,116.58,77.26Z"/>
        <path class="cls-7" d="M102,70.68a2.41,2.41,0,0,0-1.8-1.18c-1.16-.22-3.22.87-3,2.22-.63.52-1,1.17-.11,1.79.57.39,1.46.13,2.06,0a7.53,7.53,0,0,0,2.16-.82A1.57,1.57,0,0,0,102,70.68Z"/>
        <path class="cls-7" d="M97.12,74.53a1.44,1.44,0,0,0-.77.15,1.46,1.46,0,0,0-.59.59c-.18.3.12.67.43.7a1.41,1.41,0,0,0,1.37-.7C97.75,75,97.43,74.56,97.12,74.53Z"/>
        <path class="cls-7" d="M102.49,73.73a.35.35,0,0,0-.61-.15,1.06,1.06,0,0,0-.24.7c0,.33.53.42.69.17A1,1,0,0,0,102.49,73.73Z"/>
        <path class="cls-7" d="M113.27,59.27A4.67,4.67,0,0,0,108,60.42a.92.92,0,0,0-.15.25,3,3,0,0,0-.21.26,1.25,1.25,0,0,0,.63,1.83c1.79.58,4-.65,5.25-1.84A1,1,0,0,0,113.27,59.27Z"/>
        <path class="cls-7" d="M115.64,60.89l0,0a.21.21,0,0,0-.36.1c-.06.37.33.54.64.43S116,60.74,115.64,60.89Z"/>
        <path class="cls-7" d="M125.28,88.64a4.91,4.91,0,0,0-1.1-.23,1.26,1.26,0,0,0-1,0l-.33.1a4.62,4.62,0,0,0-3.61,3.48c-.16.62.43,1.08,1,1.15a.79.79,0,0,0,.89.44,9,9,0,0,0,4.55-3.38A1,1,0,0,0,125.28,88.64Z"/>
        <path class="cls-7" d="M137.81,70.3a7.6,7.6,0,0,0-8.1.17A1.06,1.06,0,0,0,130,72.3l.51.14a2.09,2.09,0,0,0,.67.75c.9.62,2.32.32,3.31.18A6.43,6.43,0,0,0,137.82,72,1,1,0,0,0,137.81,70.3Z"/>
        <path class="cls-7" d="M92.19,90.56c.08-1-.94-1.33-1.69-.9a6.45,6.45,0,0,0-2.16,2.09,3.72,3.72,0,0,0-.72,1.12,2.18,2.18,0,0,0,.29,2.51,1.31,1.31,0,0,0,.57.3C90.72,96.44,92.07,92.11,92.19,90.56Z"/>
        <path class="cls-7" d="M96.74,110.57c-1.62-.68-4.38-.28-5.17,1.48a.91.91,0,0,0-.32.4c-.33.74.29,1.31.89,1.59a5.58,5.58,0,0,0,5-2A1,1,0,0,0,96.74,110.57Z"/>
        <path class="cls-7" d="M119.8,109.75c-1.58-3-6.07-.79-7.54,1.19a1.12,1.12,0,0,0-.21.71,6.33,6.33,0,0,0-.39,1.26.88.88,0,0,0,.79,1C114.05,113.9,121.28,112.63,119.8,109.75Z"/>
        <path class="cls-7" d="M136.25,102.72a5.23,5.23,0,0,0-3.52,2.1,2.09,2.09,0,0,0-.94,2.34c.86,1.82,3.9-.22,4.89-.87a2.83,2.83,0,0,0,1.44-1.9C138.28,103.34,137.18,102.63,136.25,102.72Z"/>
        <path class="cls-7" d="M143.73,84.39c-.46-.63-1.45-.58-2.12-.52a5.18,5.18,0,0,0-2.63.65,1.88,1.88,0,0,0-.6.73c-1.16.69-.83,1.82-.2,2.79,1,1.5,2.85,2.09,4.17.63C143.27,87.65,144.72,85.73,143.73,84.39Z"/>
        <path class="cls-7" d="M133,74.94a.53.53,0,0,0-.2,0,.55.55,0,0,0-.31,0c-.17.1-.18.1,0,0l-.1.06a.1.1,0,0,0-.06,0,.67.67,0,0,0-.24.28.32.32,0,0,0,0,.09.62.62,0,0,0-.18.46.76.76,0,0,0,.43.61h0a.74.74,0,0,0,.73-.11,1.23,1.23,0,0,0,.36-.49A.74.74,0,0,0,133,74.94Z"/>
        <path class="cls-7" d="M141,70.69a.88.88,0,0,0-.53-.52.45.45,0,0,0-.59.58.84.84,0,0,0,.52.52A.46.46,0,0,0,141,70.69Z"/>
        <path class="cls-7" d="M107.78,120.38l-.41-.46a1.14,1.14,0,0,0-1-.38,7.5,7.5,0,0,0-3.83,2.09c-1.35.66-2,3-.23,3.47,1,.26,2.06-.46,2.89-1a11.41,11.41,0,0,0,2.61-2.44A1,1,0,0,0,107.78,120.38Z"/>
        <path class="cls-7" d="M125.47,122.18a5.43,5.43,0,0,0-2.26,1.25c-.5.38-1.36.91-1.43,1.58a.17.17,0,0,0,.12.2c.68.21,1.45-.3,2-.59a5.45,5.45,0,0,0,2.12-1.46A.62.62,0,0,0,125.47,122.18Z"/>
        <path class="cls-8" d="M123.84,44.21c1.14,2.71,4.87,9,3.3,11.89-2.7-6.08-3.17-14.17-3.33-20.76a79,79,0,0,1,2.46-21.55c-.27,1,3.31,6.27,3.82,7.57a48.66,48.66,0,0,1,2.58,8.92,50.09,50.09,0,0,1,0,18.51,48.69,48.69,0,0,1-2.44,8.54c-.95,2.46-.52,5.47-3.37,4.22-5.26-2.31-9.08-8.78-10.87-13.94-2.13-6.12-2.39-12.75-1.92-19.21C118.85,32.45,121.43,38.44,123.84,44.21Z"/>
        <path class="cls-8" d="M147.93,7.27c0,9.55,0,19.2-2.08,28.52s-6.53,18.41-14,24.4A82.15,82.15,0,0,1,147.93,7.27Z"/>
        <path class="cls-8" d="M165.56,25.31c-3.21,7.48-6.47,15-11.36,21.55s-11.64,12-19.59,13.68A59.11,59.11,0,0,1,165.56,25.31Z"/>
        <path class="cls-8" d="M134.39,61.28a2.73,2.73,0,0,1,.81-.85,78.1,78.1,0,0,1,32.84-15,40.69,40.69,0,0,1-19.72,18.43c-4,1.74-8.87,2.75-12.54.4C134.76,63.62,133.81,62.35,134.39,61.28Z"/>
        <path class="cls-8" d="M128.28,58.31a5.84,5.84,0,0,0,4.5,4.91A6.17,6.17,0,0,0,139,60.68a6.56,6.56,0,0,0,.23-6.76,7,7,0,0,0-5.88-3.42c-2,0-4.24,1.09-4.77,3Z"/>
        <path class="cls-8" d="M132.94,58.8a17.49,17.49,0,0,1-8.49,14.28c-.12.07-.28.15-.4.07s-.13-.26-.11-.41a25.14,25.14,0,0,1,2.47-8.42,13.46,13.46,0,0,1,2.29-3.45c.77-.81,1.86-.85,1.92-2.33Z"/>
        <path class="cls-8" d="M113.39,63.55a23,23,0,0,0,9.51.34,12.12,12.12,0,0,0,7.84-5.07A16.66,16.66,0,0,0,113.39,63.55Z"/>
        <path class="cls-8" d="M143.58,74.44a13.18,13.18,0,0,0-9.89-13.28,9.45,9.45,0,0,0,2.2,8.5A17.33,17.33,0,0,0,143.58,74.44Z"/>
        <path class="cls-8" d="M110.69,49.88a16.31,16.31,0,0,0,12.55,8.74A24,24,0,0,0,110.69,49.88Z"/>
        <path class="cls-8" d="M140.69,64.51a7.38,7.38,0,0,0,5.75,4.07,13.58,13.58,0,0,0,7.17-1.16A23.28,23.28,0,0,0,140.69,64.51Z"/>
        <path class="cls-9" d="M132.94,50.17c.51-2.91,1-6.42.22-9.32a.17.17,0,0,0-.33,0c-.58,2.78-.44,5.72-.9,8.54a42.41,42.41,0,0,1-1.18,5,15.76,15.76,0,0,0-1.06,3.94.34.34,0,0,0,.6.23C132.05,56.49,132.48,52.78,132.94,50.17Z"/>
        <path class="cls-9" d="M143.26,44c-1.48,3-3.16,6-4.84,9s-3.77,5.65-5.26,8.65c-.18.37.36.57.59.32a44.4,44.4,0,0,0,5.17-8.06,101.15,101.15,0,0,0,4.65-9.75C143.66,43.93,143.35,43.83,143.26,44Z"/>
        <path class="cls-9" d="M138,63.5c-5.53-1.24-10.93-2.47-15.64-5.82-.17-.12-.38.12-.21.26,4.49,3.51,10,6.38,15.85,6C138.29,64,138.24,63.56,138,63.5Z"/>
        <path class="cls-9" d="M150.12,50.75A81.46,81.46,0,0,1,142,57.84a59.62,59.62,0,0,1-9.92,5.26c-.43.19-.25.91.23.78a33.88,33.88,0,0,0,9.9-4.89,28.44,28.44,0,0,0,8.16-8C150.47,50.82,150.27,50.61,150.12,50.75Z"/>
        <path class="cls-9" d="M130.82,61.12c-2.15-1.51-2.85-3.58-3.62-6-1-3-1.81-6-2.56-9,0-.17-.34-.14-.3,0a101.26,101.26,0,0,0,2.38,9.87c.62,2.09,1.43,4.91,3.77,5.61C130.82,61.77,131.15,61.35,130.82,61.12Z"/>
        <path class="cls-9" d="M143,63.94a27.34,27.34,0,0,1-7-.93.15.15,0,0,0-.12.27A12.39,12.39,0,0,0,143,64.74C143.46,64.7,143.47,64,143,63.94Z"/>
        <path class="cls-9" d="M145.84,62a11.71,11.71,0,0,0-4,.82.18.18,0,0,0,0,.35,12,12,0,0,0,4.09-.3A.44.44,0,1,0,145.84,62Z"/>
        <path class="cls-9" d="M146.25,59.8a3,3,0,0,0-1.38.67.27.27,0,0,0,.21.49,3,3,0,0,0,1.47-.48A.38.38,0,0,0,146.25,59.8Z"/>
        <path class="cls-9" d="M151.38,59A4,4,0,0,0,149.43,60a.26.26,0,0,0,.19.41,4,4,0,0,0,2.1-.71A.42.42,0,0,0,151.38,59Z"/>
        <path class="cls-9" d="M124.19,50.7a3.61,3.61,0,0,0-1-2,.18.18,0,0,0-.27.07,3.26,3.26,0,0,0,0,2,8.88,8.88,0,0,0,.84,2.5c.17.33.83.33.83-.12A8.33,8.33,0,0,0,124.19,50.7Z"/>
        <path class="cls-9" d="M124.74,56.52c-.21-.14-.4-.31-.61-.47a5.73,5.73,0,0,0-.6-.48.28.28,0,0,0-.36,0,1,1,0,0,0,0,1.06,1.46,1.46,0,0,0,1.16.74C124.84,57.47,125.2,56.82,124.74,56.52Z"/>
        <path class="cls-9" d="M131.18,39.47a.26.26,0,0,0-.44,0c-.65,1-.53,2.4-.52,3.52,0,.55.88.49,1,0C131.34,41.88,131.67,40.48,131.18,39.47Z"/>
        <path class="cls-9" d="M128.38,49.46c-.07-.42-.07-.85-.13-1.27A3,3,0,0,0,128,47a.35.35,0,0,0-.53-.12,1.67,1.67,0,0,0-.48,1.3,2.74,2.74,0,0,0,.44,1.5C127.72,50.12,128.46,50,128.38,49.46Z"/>
        <path class="cls-9" d="M129.18,53.89c-.05-.4-.12-.78-.19-1.17,0-.19-.37-.21-.38,0,0,.41,0,.82,0,1.24S129.22,54.25,129.18,53.89Z"/>
        <path class="cls-9" d="M139.83,44.81a.4.4,0,0,0-.73-.12,7.54,7.54,0,0,0-1.24,2.06,17.41,17.41,0,0,0-1.16,2.87.64.64,0,0,0,1.11.6C138.86,48.85,140.1,46.6,139.83,44.81Z"/>
        <path class="cls-9" d="M135.48,54.16c0-.15-.2-.18-.3-.11A4.61,4.61,0,0,0,134,55.19c-.38.49-.76,1-.56,1.61a.56.56,0,0,0,.74.27c.57-.18.75-.78.94-1.28A4.35,4.35,0,0,0,135.48,54.16Z"/>
        <path class="cls-9" d="M141.48,38.73c0-.18-.29-.19-.35,0a7.12,7.12,0,0,0-.44,1.58c-.07.43.61.49.68.08A6.77,6.77,0,0,0,141.48,38.73Z"/>
        <path class="cls-9" d="M145.31,52.13a9.81,9.81,0,0,0-1.7,1.32A10.94,10.94,0,0,0,142.34,55a.18.18,0,0,0,.23.27,15.9,15.9,0,0,0,1.8-.9,8.87,8.87,0,0,0,1.76-1.47C146.63,52.38,145.8,51.83,145.31,52.13Z"/>
        <path class="cls-9" d="M149.15,49a4.5,4.5,0,0,0-.31.45,1.58,1.58,0,0,0-.15.48c0,.08.09.16.17.12a1.69,1.69,0,0,0,.41-.29,3.65,3.65,0,0,0,.35-.43C149.85,49.07,149.36,48.74,149.15,49Z"/>
        <path class="cls-9" d="M146.94,48.66c0-.11,0-.22,0-.33a3.27,3.27,0,0,1,0-.45c.06-.33-.44-.36-.52-.06a1,1,0,0,1-.13.23,2.87,2.87,0,0,0-.18.4,2,2,0,0,0-.14.76c0,.46.66.67.83.2A2.76,2.76,0,0,0,146.94,48.66Z"/>
        <path class="cls-9" d="M153.47,43.94a5.94,5.94,0,0,0-1.7,1.93c-.19.3.14.56.42.39a5.88,5.88,0,0,0,1.95-1.69A.46.46,0,0,0,153.47,43.94Z"/>
        <path class="cls-9" d="M137.88,68.43a9.5,9.5,0,0,0-1-1,6.51,6.51,0,0,1-.46-.58c-.15-.21-.37-.45-.5-.68a.18.18,0,0,0-.33,0,1.83,1.83,0,0,0-.22.86,2.27,2.27,0,0,0,.33,1.07,2,2,0,0,0,1.86,1A.43.43,0,0,0,137.88,68.43Z"/>
        <path class="cls-9" d="M140.39,70.56a1.24,1.24,0,0,0-.26-.19c-.11,0-.18-.14-.26-.22s-.44,0-.28.21.19.17.21.26a.83.83,0,0,0,.2.32C140.21,71.25,140.72,70.83,140.39,70.56Z"/>
        <path class="cls-9" d="M129.47,64.75c-.15.21-.32.4-.48.6s-.29.43-.43.65.29.59.48.25l.39-.66c.12-.22.2-.47.32-.69S129.57,64.61,129.47,64.75Z"/>
        <path class="cls-9" d="M127,68.9a.15.15,0,1,0,0,.29A.15.15,0,1,0,127,68.9Z"/>
        <path class="cls-9" d="M121.86,62.33a3.76,3.76,0,0,0-1.16,0,5.72,5.72,0,0,0-.57.11,1.56,1.56,0,0,1-.5.17.17.17,0,0,0-.09.32c.17.07.3.26.47.35a1.92,1.92,0,0,0,2-.26A.4.4,0,0,0,121.86,62.33Z"/>
        <path class="cls-9" d="M124.76,61a1.84,1.84,0,0,0-.65.3,1.27,1.27,0,0,0-.24.28,1,1,0,0,1-.14.24c-.15.13,0,.34.18.28a1.48,1.48,0,0,1,.21,0,1.66,1.66,0,0,0,.32,0,1.44,1.44,0,0,0,.69-.44C125.38,61.36,125.07,60.91,124.76,61Z"/>
        <path class="cls-10" d="M115.76,34.2c-.7.06-.84,1-.93,1.52a4.53,4.53,0,0,0,.51,2.6.63.63,0,0,0,1.18-.17C116.62,37.43,117.12,34.08,115.76,34.2Z"/>
        <path class="cls-10" d="M116.61,42.35a.18.18,0,0,0-.34.09c0,.63-.16,1.5.52,1.85a.25.25,0,0,0,.29-.08C117.51,43.59,116.88,42.9,116.61,42.35Z"/>
        <path class="cls-10" d="M119.18,40.72a1.17,1.17,0,0,0-.4-.58l-.26-.22-.11-.07-.13-.06c-.17-.16-.5,0-.39.22,0,.05,0,.18,0,.25a3.58,3.58,0,0,0,.11.35,1.38,1.38,0,0,0,.46.63.48.48,0,0,0,.55,0A.45.45,0,0,0,119.18,40.72Z"/>
        <path class="cls-10" d="M127,24.35c0-.2-.24-2.3-.92-1.91s-.82,1.54-.89,2.4a14.13,14.13,0,0,0,.23,4,.65.65,0,0,0,1.27,0A15.26,15.26,0,0,0,127,24.35Z"/>
        <path class="cls-10" d="M126.6,34.23a1.53,1.53,0,0,0-.24-.59,3.19,3.19,0,0,1-.35-.55.21.21,0,0,0-.4,0,2.14,2.14,0,0,1-.18.54,1.55,1.55,0,0,0-.11.56c0,.45.19,1.07.76,1S126.66,34.63,126.6,34.23Z"/>
        <path class="cls-10" d="M128.33,27.9c-.2-.12-.54,0-.49.28s.18.72.25,1.09a4.83,4.83,0,0,0,.38,1.28.57.57,0,0,0,1.05-.15A2.45,2.45,0,0,0,128.33,27.9Z"/>
        <path class="cls-10" d="M145.3,16.23a.47.47,0,0,0-.76-.28,7.16,7.16,0,0,0-2,4.35.72.72,0,0,0,1.29.49C144.65,19.56,145.57,17.75,145.3,16.23Z"/>
        <path class="cls-10" d="M145.4,23.57c-.05-.25-.23-.35-.32-.56a.2.2,0,0,0-.36,0c-.05.12-.21.21-.29.33a3.73,3.73,0,0,0-.32.63,9.49,9.49,0,0,0-.54,1.58c-.16.65.75.76,1.09.41a2.83,2.83,0,0,0,.77-1.48A2.78,2.78,0,0,0,145.4,23.57Z"/>
        <path class="cls-10" d="M140.35,27.79a.19.19,0,0,0-.29-.11,4.28,4.28,0,0,0-1.41,2.69.6.6,0,0,0,1.07.41A4.14,4.14,0,0,0,140.35,27.79Z"/>
        <path class="cls-10" d="M152.54,36c-.61.42-1.16.88-1.73,1.35-.24.19-1.27.89-.91,1.31s1.34-.06,1.75-.3a4.69,4.69,0,0,0,1.71-1.6A.57.57,0,0,0,152.54,36Z"/>
        <path class="cls-10" d="M157.74,32.44a1.43,1.43,0,0,0-.84.37l-.33.31a2.23,2.23,0,0,0-.2.33.26.26,0,0,0,.25.41,3,3,0,0,0,.42,0l.4-.14a1.4,1.4,0,0,0,.71-.58A.41.41,0,0,0,157.74,32.44Z"/>
        <path class="cls-10" d="M155.9,37.64a2.91,2.91,0,0,0-.33.26c-.1.11-.19.21-.3.31s0,.38.18.28a3.34,3.34,0,0,1,.38-.17,3.58,3.58,0,0,0,.42-.25C156.55,37.87,156.18,37.42,155.9,37.64Z"/>
        <path class="cls-10" d="M154.71,53.06a13.71,13.71,0,0,0-1.57.92c-.58.41-1,1-1.52,1.45-.15.12,0,.39.18.29.54-.3,1.17-.46,1.73-.72a8,8,0,0,0,1.66-1.18A.45.45,0,0,0,154.71,53.06Z"/>
        <path class="cls-10" d="M160.51,49.94a2.22,2.22,0,0,0-1.13.36,7.5,7.5,0,0,0-.91.42.54.54,0,0,0,0,.87,2,2,0,0,0,2.63-.67A.71.71,0,0,0,160.51,49.94Z"/>
        <path class="cls-10" d="M118.33,55.28a4.24,4.24,0,0,0-2.67-1.49c-.26,0-.54.23-.41.51a4.1,4.1,0,0,0,2.43,1.8C118.16,56.24,118.72,55.74,118.33,55.28Z"/>
      </g>
      <g>
        <path class="cls-11" d="M61.19,40.59a.27.27,0,0,0,.18-.08.21.21,0,0,0,0-.25.61.61,0,0,0-.23-.15,5.61,5.61,0,0,0-2.23-.68A1.94,1.94,0,0,0,57,40.54a4.49,4.49,0,0,0,2.09.36A13.77,13.77,0,0,0,61.19,40.59Z"/>
        <path class="cls-11" d="M59.93,36.07a.92.92,0,0,0,.2-.53.64.64,0,0,0-.52-.46,3.34,3.34,0,0,1-.71-.17,3.51,3.51,0,0,0,.43,5A5,5,0,0,1,59.93,36.07Z"/>
        <path class="cls-12" d="M49.29,62.22c.81-4.33.33-8.85,1.3-13.15s4.1-8.67,8.51-8.88a8.92,8.92,0,0,1,6.68,3,20.9,20.9,0,0,1,3.88,6.44c2.62,6.12,4.34,12.64,7.61,18.44,2.44,4.33,5.69,8.14,8.56,12.2S91.25,88.78,92,93.69s-.63,10.39-4.47,13.54c-3.3,2.71-7.84,3.34-12.11,3.23s-8.53-.86-12.77-.47c-4,.38-7.89,1.77-11.85,2.57s-8.29,1-11.86-.94c-5.49-3-7.53-10.14-6.37-16.27s4.81-11.45,8.37-16.57S48.13,68.35,49.29,62.22Z"/>
        <path class="cls-13" d="M84.32,100.41c-2.75,2.89-7.17,3.55-11.11,3s-7.63-2.26-11.45-3.38c-5.26-1.55-11.28-2.4-14.68-6.69a11.89,11.89,0,0,1-.76-12.72,16.06,16.06,0,0,1,10.61-7.64,25.39,25.39,0,0,1,13.29.92c7.54,2.44,14.57,8,16.4,15.74C87.51,93.34,87,97.63,84.32,100.41Z"/>
        <path class="cls-13" d="M60.26,43.24c1.7.31,3,1.68,4,3.06a28.32,28.32,0,0,1,5.53,17.27,5.41,5.41,0,0,1-1.24,3.91,3.93,3.93,0,0,1-3.94.64,10.19,10.19,0,0,1-3.48-2.31,25.22,25.22,0,0,1-6.84-8.92c-1.42-3.5-1.47-7.73.64-10.87C56.12,44.26,58.18,42.87,60.26,43.24Z"/>
        <path class="cls-14" d="M38.75,102.29c.56.07.9.66,1.24,1.06a8.32,8.32,0,0,1,1,1.56c.37.72-.61,1.36-1.19.89a4.19,4.19,0,0,1-1.41-1.93C38.27,103.5,37.93,102.19,38.75,102.29Z"/>
        <path class="cls-14" d="M43.09,106.62a2.4,2.4,0,0,1,2,.61.55.55,0,0,1-.39,1,2.45,2.45,0,0,1-1.85-1.06A.33.33,0,0,1,43.09,106.62Z"/>
        <path class="cls-14" d="M47.68,109.09a1.06,1.06,0,0,1,.42-.34c.16,0,.34,0,.48,0s.42.15.27.33-.08.29-.16.42a.94.94,0,0,1-.45.31C47.86,110,47.36,109.42,47.68,109.09Z"/>
        <path class="cls-14" d="M39.78,108.55a2.59,2.59,0,0,1,.83.2A2.29,2.29,0,0,1,41,109c.11.09.2.23.31.32a.23.23,0,0,1-.16.41,1.14,1.14,0,0,0-.25.06,2.24,2.24,0,0,1-.45,0,2,2,0,0,1-.91-.34.51.51,0,0,1-.33-.52A.48.48,0,0,1,39.78,108.55Z"/>
        <path class="cls-14" d="M35.79,93.88a.32.32,0,0,1,.43.06c.75.79.56,2.27.24,3.19-.23.67-1.19.44-1.32-.16C34.94,96,35,94.54,35.79,93.88Z"/>
        <path class="cls-14" d="M38.86,97.16a.24.24,0,0,1,.45,0,1,1,0,0,0,.27.36c.11.11.18.27.3.39.34.34-.23.87-.57.56a1.47,1.47,0,0,1-.44-.55A1.42,1.42,0,0,1,38.86,97.16Z"/>
        <path class="cls-14" d="M56.5,106.33a3.19,3.19,0,0,1,3.3.21.31.31,0,0,1,0,.5,3.13,3.13,0,0,1-3.13.42C56.3,107.26,56,106.62,56.5,106.33Z"/>
        <path class="cls-14" d="M51.36,106.27a3.69,3.69,0,0,1,1.64.67c.29.21.91.73.51,1.11s-.79.15-1.14.07a3.38,3.38,0,0,1-1.46-.71A.63.63,0,0,1,51.36,106.27Z"/>
        <path class="cls-14" d="M39.31,90.43a.44.44,0,0,1,.58-.23h0a.44.44,0,0,1,.27.4A3.76,3.76,0,0,1,40.33,92a.59.59,0,0,1-1.16,0A3.26,3.26,0,0,1,39.31,90.43Z"/>
        <path class="cls-14" d="M46.4,99.57A2.68,2.68,0,0,1,48.64,101a.19.19,0,0,1-.1.26,2.75,2.75,0,0,1-2.67-.78C45.46,100.12,45.94,99.53,46.4,99.57Z"/>
        <path class="cls-14" d="M84.48,105.11a8.37,8.37,0,0,1,1.19-1.19c.4-.33.72-.81,1.25-.92a.45.45,0,0,1,.42.16l.11.11a.23.23,0,0,1,0,.4,2.49,2.49,0,0,1-.62,1.4,2.56,2.56,0,0,1-2,.94A.57.57,0,0,1,84.48,105.11Z"/>
        <path class="cls-14" d="M80.42,105.66a1,1,0,0,1,.72,0h.18l.09,0a.24.24,0,0,1,.29.28.63.63,0,0,1-.35.69.81.81,0,0,1-1.21-.32A.53.53,0,0,1,80.42,105.66Z"/>
        <path class="cls-14" d="M87.1,99.58c.09-.25.46-.12.45.12a5.49,5.49,0,0,1,0,.7c-.06.45-.73.28-.62-.16A5.67,5.67,0,0,1,87.1,99.58Z"/>
        <path class="cls-14" d="M69.05,105.7a4.34,4.34,0,0,1,2.13.37c.59.24,1.44.63,1.67,1.26a.25.25,0,0,1-.13.33,3,3,0,0,1-1.62-.13,7.43,7.43,0,0,1-2.17-.69C68.45,106.58,68.36,105.76,69.05,105.7Z"/>
        <path class="cls-14" d="M73.57,70.34a5.74,5.74,0,0,1,1.79.69,2.83,2.83,0,0,1,1.27,1.12.35.35,0,0,1-.28.49,2.87,2.87,0,0,1-1.52-.25,4.73,4.73,0,0,1-1.69-1C72.7,71.06,72.91,70.21,73.57,70.34Z"/>
        <path class="cls-14" d="M69.74,70.36a.72.72,0,0,1,.38-.35,1.85,1.85,0,0,1,.78,0,.37.37,0,0,1,.27.57,3.06,3.06,0,0,1-.42.46.68.68,0,0,1-1-.21A.54.54,0,0,1,69.74,70.36Z"/>
        <path class="cls-14" d="M72.2,66a.42.42,0,0,1,.62.16,2,2,0,0,1-.16,1.32c-.16.49-.93.26-.88-.22A1.87,1.87,0,0,1,72.2,66Z"/>
        <path class="cls-14" d="M52,70.57a2.22,2.22,0,0,1,1.42-.66,1.77,1.77,0,0,1,1.28.14.21.21,0,0,1,.08.25,1.5,1.5,0,0,1-.81.81,2.32,2.32,0,0,1-1.53.41C52.05,71.48,51.67,70.91,52,70.57Z"/>
        <path class="cls-14" d="M51.9,61.73a7.36,7.36,0,0,1,.88,2.48.43.43,0,0,1-.82.21,7.17,7.17,0,0,1-.48-2.63C51.49,61.54,51.81,61.57,51.9,61.73Z"/>
        <path class="cls-14" d="M56.14,66.66l.54.36a3.63,3.63,0,0,1,.48.48c.33.36-.22.86-.57.56a3.1,3.1,0,0,1-.51-.45l-.39-.51A.32.32,0,0,1,56.14,66.66Z"/>
        <path class="cls-14" d="M52,57.29a.57.57,0,0,1,.75.41c0,.19.11.38.14.57a.44.44,0,0,1-.27.49.51.51,0,0,1-.64-.25c-.1-.18-.17-.36-.25-.54A.51.51,0,0,1,52,57.29Z"/>
        <path class="cls-15" d="M67.17,81.67a3.9,3.9,0,0,1-1.29-.94,1.48,1.48,0,0,1-.27-1.51,2.15,2.15,0,0,1,1.63-.94,13.59,13.59,0,0,1,7.19.13A6.66,6.66,0,0,1,79,83.58a1,1,0,0,1-.26,1,1.06,1.06,0,0,1-.73.13A26.75,26.75,0,0,1,67.17,81.67Z"/>
        <path class="cls-15" d="M60.55,81.05a9.22,9.22,0,0,1-4.28-.65c-.33-.13-.69-.34-.74-.68s.29-.73.62-1a7.34,7.34,0,0,1,2.73-1.2,4.09,4.09,0,0,1,2.89.48,1.75,1.75,0,0,1,.95,1.56,1.52,1.52,0,0,1-.81,1.1A3.5,3.5,0,0,1,60.55,81.05Z"/>
        <path class="cls-15" d="M64.64,50.23A11.92,11.92,0,0,1,67,56.8c0,.44,0,1-.45,1.14a1.06,1.06,0,0,1-1-.24,8.75,8.75,0,0,1-3.81-7.18,1.66,1.66,0,0,1,.28-1.07,1.23,1.23,0,0,1,1.43-.25A2.92,2.92,0,0,1,64.64,50.23Z"/>
        <path class="cls-15" d="M81.34,85.66a.61.61,0,0,1,1-.4,2.31,2.31,0,0,1,.3,3.12.68.68,0,0,1-1.19-.31A11.48,11.48,0,0,1,81.34,85.66Z"/>
        <path class="cls-15" d="M84.93,90.36a7.32,7.32,0,0,1,.35.81.38.38,0,0,1-.7.28c-.11-.31-.21-.61-.29-.93S84.78,90.05,84.93,90.36Z"/>
        <path class="cls-15" d="M67.18,76a3,3,0,0,1,2.39.1.33.33,0,0,1,0,.62,3,3,0,0,1-2.38.16A.47.47,0,0,1,67.18,76Z"/>
        <path class="cls-15" d="M52.34,78.73a3.06,3.06,0,0,1,.32-.3c.11-.1.24-.09.36-.17a.2.2,0,0,1,.31.17c0,.11.09.19.07.31a3.18,3.18,0,0,1-.1.52,1.42,1.42,0,0,1-.59.79.46.46,0,0,1-.73-.4A1.35,1.35,0,0,1,52.34,78.73Z"/>
        <path class="cls-15" d="M65.77,59.71c.06-.2.26-.35.35-.54a.16.16,0,0,1,.3.08c0,.22.13.44.1.65a2.15,2.15,0,0,1-.14.62c-.16.4-.74.21-.73-.18A2.7,2.7,0,0,1,65.77,59.71Z"/>
        <path class="cls-15" d="M61,46.36a1.24,1.24,0,0,1,.66,0c.15.06.28.17.44.22.36.12.23.72-.15.64-.11,0-.32.15-.43.22a1.18,1.18,0,0,1-.88.26.52.52,0,0,1-.44-.41C60.09,46.79,60.54,46.46,61,46.36Z"/>
        <path class="cls-14" d="M29.7,59.78c.6-4.29,1.91-8.65,4.79-11.88,3-3.4,7.45-5.19,11.78-6.58s8.85-2.52,12.66-5c-3.75,6.43-4.45,14.48-9.13,20.26-2.61,3.22-6.23,5.44-9.9,7.34s-7.5,3.58-10.86,6A87.75,87.75,0,0,1,29.7,59.78Z"/>
        <path class="cls-16" d="M39.57,50.91A78.66,78.66,0,0,1,57,38.33c.2-.11.4.2.22.35-5.6,4.41-11.86,7.67-17,12.71a37.17,37.17,0,0,0-5.81,7.35c-1.88,3.11-2.58,6.38-3.42,9.85-.05.22-.35.09-.35-.09C30.37,61.92,35.17,55.34,39.57,50.91Z"/>
        <path class="cls-16" d="M43.93,58.06c.27-.26.51-.56.77-.83a2.74,2.74,0,0,1,.79-.73.36.36,0,0,1,.39.54,3.46,3.46,0,0,1-1.4,1.69A.43.43,0,0,1,43.93,58.06Z"/>
        <path class="cls-16" d="M39.48,61.15a1.91,1.91,0,0,1,.57-.49l.64-.42a.26.26,0,0,1,.33.4l-.56.52a1.74,1.74,0,0,1-.61.43A.3.3,0,0,1,39.48,61.15Z"/>
        <path class="cls-16" d="M37.7,60.53l.42-.49a1.5,1.5,0,0,1,.61-.41.27.27,0,0,1,.36.33,1.94,1.94,0,0,1-.3.57,5.1,5.1,0,0,1-.46.47.41.41,0,0,1-.55.07A.38.38,0,0,1,37.7,60.53Z"/>
        <path class="cls-16" d="M31.88,54.82c.26-.7.53-1.38.84-2.07a.25.25,0,0,1,.46.18c-.2.73-.43,1.43-.68,2.14C32.36,55.45,31.74,55.21,31.88,54.82Z"/>
        <path class="cls-16" d="M31.1,58.87a.27.27,0,0,1,.51.12,4.28,4.28,0,0,1-.24,1.47c-.12.36-.66.19-.64-.16A4.38,4.38,0,0,1,31.1,58.87Z"/>
      </g>
      <g>
        <path class="cls-17" d="M99.46,109.24c5.48-8.1,7-19.07,2.75-27.86a24.48,24.48,0,0,0-20-13.48,32.74,32.74,0,0,0-14.34,2.76,28.16,28.16,0,0,0-9.22,5.67c-7.84,7.68-9,20.63-4,30.25A28.16,28.16,0,0,0,71.8,120.51C81.62,123.39,94,117.36,99.46,109.24Z"/>
        <g>
          <path class="cls-18" d="M94.58,106.58v0a.87.87,0,0,0,.07-1,.82.82,0,0,0-1-.32,2.75,2.75,0,0,0-1.52,2.06.94.94,0,0,0,.49,1,1,1,0,0,0,1.3-.48l.16-.26a1.51,1.51,0,0,0,.36-.6,2.81,2.81,0,0,0,.08-.31l0-.11,0,0S94.58,106.59,94.58,106.58Z"/>
          <polygon class="cls-18" points="94.58 106.58 94.58 106.59 94.58 106.58 94.59 106.57 94.58 106.58"/>
          <path class="cls-18" d="M94.58,106.58c0,.07.08-.08,0,0Z"/>
        </g>
        <path class="cls-18" d="M96.78,105a.82.82,0,0,0-.72.82,1.71,1.71,0,0,0,0,.55,1.17,1.17,0,0,0,.32.53.57.57,0,0,0,.45.14.7.7,0,0,0,.55-.37,1.53,1.53,0,0,0,.1-1.17A.7.7,0,0,0,96.78,105Z"/>
        <path class="cls-18" d="M88.25,111.39a1.86,1.86,0,0,0-.84.36,4.86,4.86,0,0,0-.67.4.38.38,0,0,0,0,.43,1,1,0,0,0,1.09.42,1.12,1.12,0,0,0,1-1.09A.54.54,0,0,0,88.25,111.39Z"/>
        <path class="cls-18" d="M96.88,97.9c-.24-.26-.68,0-.75.28a2.08,2.08,0,0,0,0,.66.64.64,0,0,0,0,.2.62.62,0,0,0,.79.38.69.69,0,0,0,.42-.81A1.72,1.72,0,0,0,96.88,97.9Z"/>
        <path class="cls-18" d="M100.73,86.65a2.09,2.09,0,0,0-.41-.62.49.49,0,0,0-.78.29,1.37,1.37,0,0,0,0,.35.85.85,0,0,0-.18,1,.76.76,0,0,0,.32.27l0,0a.78.78,0,0,0,1.39,0,1.1,1.1,0,0,0-.09-1.07A1,1,0,0,0,100.73,86.65Z"/>
        <path class="cls-19" d="M69.92,78.89c-.66-.51-1.3-1.07-2-1.57-1.28-.95-3.21-2-4.86-1.45-1.83.56-3.47,2.75-4.43,4.29-2.24,3.56-5.93,10.17-1.5,13.59,1.84,1.42,3.77,1.84,5.53,3.49L68.8,103c2.31,2.16,4.86,4.44,8,4.73a9.39,9.39,0,0,0,6.78-2.47A21.59,21.59,0,0,0,88,99.33c3-5.37,7.19-13.15,6.36-19.53-.15-2.11-2.31-5.49-4.82-4.94-1.09.24-2.4,1.28-3.45,1.74l-4.64,2.07c-3,1.34-6.51,2.7-9.57,1.42A9.16,9.16,0,0,1,69.92,78.89Z"/>
        <path class="cls-18" d="M89.42,106.5a.61.61,0,0,0-.72.17,1.51,1.51,0,0,0-.24.34c0,.12-.09.24-.14.35a1.22,1.22,0,0,0,.06,1.13.56.56,0,0,0,.64.21,1.59,1.59,0,0,0,.73-1.69A.61.61,0,0,0,89.42,106.5Z"/>
        <path class="cls-18" d="M81.05,116.88l-.22-.07h0a2.24,2.24,0,0,0-.45-.09,1.62,1.62,0,0,0-.44,0,1.73,1.73,0,0,0-.62.2.92.92,0,0,0-.41.8.81.81,0,0,0,.68.78.8.8,0,0,0,.27,0H80l.13,0a1.14,1.14,0,0,0,.32.07,1,1,0,0,0,1-.52.92.92,0,0,0,.07-.69A.86.86,0,0,0,81.05,116.88Z"/>
        <path class="cls-18" d="M77.29,112.19a.31.31,0,0,0-.32.17c-.41.68.2,1.61.83,1.88a.63.63,0,0,0,.79-.9A2.17,2.17,0,0,0,77.29,112.19Z"/>
        <path class="cls-18" d="M85.89,116a.92.92,0,0,0-.87-.19.85.85,0,0,0-.6.63.42.42,0,0,0,.12.41A1,1,0,0,0,85,117a.89.89,0,0,0,.43,0c-.1,0-.07,0,.11,0l.12-.06h0A.56.56,0,0,0,85.89,116Z"/>
        <path class="cls-18" d="M99,80.09a1,1,0,0,0-1.81.91,11.91,11.91,0,0,0,.85,2.06h0l0,0,.11.16a.84.84,0,0,0,.78.38.89.89,0,0,0,.82-.87.85.85,0,0,0,0-.32A4.8,4.8,0,0,0,99,80.09Z"/>
        <path class="cls-18" d="M98.28,84.43l0,0a.18.18,0,0,0-.23-.08h0a.47.47,0,0,0-.31.16,1,1,0,0,0-.19.47,1,1,0,0,0,.41,1,.48.48,0,0,0,.56,0,.5.5,0,0,0,.2-.54c-.09-.22-.08-.33-.17-.54a2.33,2.33,0,0,0-.07-.25A.44.44,0,0,0,98.28,84.43Z"/>
        <path class="cls-18" d="M99.82,102.46l0,0a1,1,0,0,0-.17.1.45.45,0,0,0-.12.12l0,0h0c-.23,0-.23.34-.11.49a.69.69,0,0,0,.56.22c.35,0,.55-.39.55-.69A.4.4,0,0,0,99.82,102.46Z"/>
        <path class="cls-18" d="M93.13,110.55A8,8,0,0,0,90,112.81c-.41.48-.29,1.53.49,1.56,1.36.06,3.6-.65,3.66-2.23C94.76,111.47,94.12,110.17,93.13,110.55Z"/>
        <path class="cls-18" d="M100.7,93.83c-1.49.14-1.8,2.22-1.75,3.42a.69.69,0,0,0,0,.2,1.17,1.17,0,0,0,.59,1.29c1.43.64,2.41-1.11,2.65-2.27C102.42,95.47,102.08,93.7,100.7,93.83Z"/>
        <path class="cls-18" d="M99.62,91.59a.76.76,0,0,0-.47.47l0,0c.07-.1.06-.08,0,.07a1.8,1.8,0,0,0-.08.21.45.45,0,0,0,.14.44.69.69,0,0,0,.72.07.77.77,0,0,0,.51-.93A.6.6,0,0,0,99.62,91.59Z"/>
        <path class="cls-18" d="M71.6,75a3.22,3.22,0,0,1-.67-.2,1,1,0,0,0-.91,0c-.9.57,2,2.38,2.41,2.63a8.44,8.44,0,0,0,4,1,8.55,8.55,0,0,0,4.33-1.2,8.27,8.27,0,0,0,1.78-1.4c.47-.48,1.24-.74,1.61-1.27A.8.8,0,0,0,84,73.49c-.61-.29-1.32.6-1.93.31-.3-.15-.41-.5-.58-.78-.58-.94-1.86-1.08-3-1.11a11,11,0,0,0-3,.18A3.94,3.94,0,0,0,73,73.74c-.31.51-.55,1.19-1.14,1.29A.71.71,0,0,1,71.6,75Z"/>
        <path class="cls-20" d="M77.87,73.45A2.36,2.36,0,0,0,76.11,71a.7.7,0,0,0-1,.5,3.76,3.76,0,0,0,.38,2.27c-1.37.3-2.86,1.07-3,2.35a5.68,5.68,0,0,0-.41.59,4.1,4.1,0,0,0,.5.14c.44.87,2.07.5,3.21,0,.28,1.19.88,2.64,2,2.25,1.3-.46,1.42-2,1.15-3.26,1.39-.17,3.08-.75,3-2.14C81.94,72.07,79.42,72.79,77.87,73.45Z"/>
        <path class="cls-21" d="M77.78,74.49c-.22.09-.39.27-.59.35a.72.72,0,0,1-.48,0,.56.56,0,0,0-.57,0,.76.76,0,0,0-.19.21l0,0a.58.58,0,0,0,0,.57c.65.89,2.43.84,2.69-.39A.65.65,0,0,0,77.78,74.49Z"/>
        <path class="cls-21" d="M76.57,71.69c-.13-.13-.33.1-.2.23A3.14,3.14,0,0,1,77,73a.23.23,0,0,0,.43-.16A2.88,2.88,0,0,0,76.57,71.69Z"/>
        <path class="cls-21" d="M79.77,74.1a.59.59,0,0,0-.36.18.36.36,0,0,0,0,.5.45.45,0,0,0,.26.12.43.43,0,0,0,.48-.33A.38.38,0,0,0,79.77,74.1Z"/>
        <path class="cls-21" d="M77.89,76.94a.29.29,0,0,0-.33,0,.58.58,0,0,0-.23.44c0,.15,0,.32.19.35A.46.46,0,0,0,77.89,76.94Z"/>
        <path class="cls-21" d="M78.11,77.89a.49.49,0,0,0-.48-.1.65.65,0,0,0-.31.3.17.17,0,0,0,0,.18c.05.06.09.16.16.21a.5.5,0,0,0,.37.12A.42.42,0,0,0,78.11,77.89Z"/>
        <path class="cls-21" d="M74.53,76c-.18.07-.34.19-.51.25a.16.16,0,0,0,0,.3.66.66,0,0,0,.78,0,.32.32,0,0,0,.12-.34A.28.28,0,0,0,74.53,76Z"/>
        <path class="cls-22" d="M67.36,81.21a4.13,4.13,0,0,0-2-2.15,3.49,3.49,0,0,0-2.48-.54,3.69,3.69,0,0,0-2.1,1.83,9.5,9.5,0,0,0-1.34,4,4.11,4.11,0,0,0,.17,1.94A2.06,2.06,0,0,0,61,87.61,3.27,3.27,0,0,0,63.23,87,11.28,11.28,0,0,0,66.4,84.8,3.8,3.8,0,0,0,67.36,81.21Z"/>
        <path class="cls-22" d="M75.74,81.6c-1.3,0-2.6-.09-3.91-.07-.92,0-2.18.75-1.49,1.84.52.83,1.89,1,2.79,1.23a3.07,3.07,0,0,0,2.62-.49,1.68,1.68,0,0,0,1-1.6A1,1,0,0,0,75.74,81.6Z"/>
        <path class="cls-22" d="M80.76,80.67a1.22,1.22,0,0,0-.77-.26,1.39,1.39,0,0,0-.45.09c-.49.18-1,.75-.77,1.3a.78.78,0,0,0,.59.52,1,1,0,0,0,.47-.06l.14,0,.17,0s.31-.07.07,0a1,1,0,0,0,.72-.49A.83.83,0,0,0,80.76,80.67Z"/>
        <path class="cls-17" d="M71.89,98.72a1.17,1.17,0,0,0-.73.92,1.45,1.45,0,0,0,.38,1.12,4.68,4.68,0,0,0,.89.89,1.8,1.8,0,0,0,1.16.66.93.93,0,0,0,1-.73C74.77,100.17,73.49,98.28,71.89,98.72Z"/>
        <path class="cls-17" d="M78.15,101a2.43,2.43,0,0,1,.14.66.92.92,0,0,1-.82.93.83.83,0,0,1-.89-.78,1.49,1.49,0,0,1,.23-.73.87.87,0,0,1,.16-.23.75.75,0,0,1,.86-.2.59.59,0,0,1,.28.26h0l0,.06S78.15,100.94,78.15,101Z"/>
        <path class="cls-17" d="M68.84,97.35a.74.74,0,0,0-.73.07,1,1,0,0,0-.43.71,1.84,1.84,0,0,0-.05.52.6.6,0,0,0,1,.46,1.85,1.85,0,0,0,.36-.38,1,1,0,0,0,.29-.77A.72.72,0,0,0,68.84,97.35Z"/>
        <path class="cls-17" d="M87.15,90.44a1,1,0,0,0-1.2-.06,3.5,3.5,0,0,0-1.37,1.9A1.43,1.43,0,0,0,86,93.72a2.58,2.58,0,0,0,1.36-1.28,2.43,2.43,0,0,0,.25-.79,1.13,1.13,0,0,0-.11-.83A2.22,2.22,0,0,0,87.15,90.44Z"/>
        <path class="cls-17" d="M84.24,89.8A1.63,1.63,0,0,0,84,90a1,1,0,0,0-.2.4.42.42,0,0,0,.24.5.74.74,0,0,0,1-.79A.45.45,0,0,0,84.24,89.8Z"/>
        <path class="cls-17" d="M89.3,78.94a1.49,1.49,0,0,1-.85,1.68,1.86,1.86,0,0,1-1.67.25.62.62,0,0,1-.16-1h0a1.42,1.42,0,0,1,.13-.12,1.65,1.65,0,0,1,.71-1.41A1.24,1.24,0,0,1,89.3,78.94Z"/>
        <path class="cls-17" d="M91.84,80.14,91.67,80c.08,0,.08,0,0,0a.44.44,0,0,0-.63,0l0,0-.07.06a.93.93,0,0,0-.21.27.9.9,0,0,0,0,1,.72.72,0,0,0,1.16.06,1.37,1.37,0,0,0,.23-.47.87.87,0,0,0-.12-.63A1.07,1.07,0,0,0,91.84,80.14Z"/>
        <path class="cls-17" d="M63.23,92.42c-.18-.22-.31-.47-.51-.68a.85.85,0,0,0-1.37.7,1.44,1.44,0,0,0,.25.66,1.9,1.9,0,0,0,.39.41h0a1.88,1.88,0,0,0,.18.12.85.85,0,0,0,1.06-1.2Z"/>
        <g>
          <path class="cls-17" d="M66.35,91.75h0Z"/>
          <path class="cls-17" d="M66.73,92.14a4,4,0,0,0-.26-.32s-.08,0-.12-.07a.34.34,0,0,0-.29,0,.82.82,0,0,0-.45.9.92.92,0,0,0,.42.7.78.78,0,0,0,.65.06A.5.5,0,0,0,67,93,1.09,1.09,0,0,0,66.73,92.14Z"/>
        </g>
        <path class="cls-17" d="M75,87.65a.47.47,0,0,0-.29.8,1.28,1.28,0,0,0,1.32.29.38.38,0,0,0,.2-.55A1.24,1.24,0,0,0,75,87.65Z"/>
        <path class="cls-19" d="M92.15,97.16a.91.91,0,0,0-.72.49,3.94,3.94,0,0,0-.56,1.17.91.91,0,0,0,0,.23c0,.11-.09.22-.13.33a.66.66,0,0,0,.35.74,1.5,1.5,0,0,0,1.76-.74,1.82,1.82,0,0,0,.06-1.86A.77.77,0,0,0,92.15,97.16Z"/>
        <path class="cls-19" d="M93.69,94.85a.67.67,0,0,0-.76.68.86.86,0,0,0,.12.44.54.54,0,0,0,.75.14,1.23,1.23,0,0,0,.31-.37A.62.62,0,0,0,93.69,94.85Z"/>
        <path class="cls-19" d="M89.17,103.08a.43.43,0,0,0-.64.17.32.32,0,0,0,0,.3.42.42,0,0,0,.65.07A.31.31,0,0,0,89.17,103.08Z"/>
        <path class="cls-19" d="M88.48,73.61a.87.87,0,0,1-.85.24A1,1,0,0,1,87,72.21a.77.77,0,0,1,.9-.2.82.82,0,0,1,.38.4A.79.79,0,0,1,88.48,73.61Z"/>
        <path class="cls-19" d="M92.7,73.2a.5.5,0,0,0-.66,0c-.41.47.37,1.32.81.82A.57.57,0,0,0,92.7,73.2Z"/>
      </g>
      <g>
        <path class="cls-11" d="M15.19,61a.75.75,0,0,1,1.22.44c.15.84-.19,1.69-.06,2.55s.66,1.64.73,2.55a.35.35,0,0,1-.36.38C14.32,66.88,13.39,62.24,15.19,61Z"/>
        <path class="cls-12" d="M17.33,112.46c.29-6.47,1.29-13.35.27-19.75-1-6-4.68-11.37-5.57-17.41-.42-2.89,0-6.17,2.09-8.16,2.45-2.29,6.41-2.1,9.43-.65,5.23,2.53,8.84,8.14,12.94,12.1a90.3,90.3,0,0,0,15.56,12c3.66,2.24,7.51,4.24,10.75,7,6.67,5.76,10,16.47,1.63,22.35-3.88,2.73-8,2.72-12.32,4-4,1.26-7.07,6-9.93,8.84s-6.85,5.71-11.09,5.41c-4.69-.32-8.36-4.22-10.65-8.33C17.4,124.56,17.05,118.69,17.33,112.46Z"/>
        <path class="cls-23" d="M26.8,71.14a116.11,116.11,0,0,0,19.25,17c6.82,4.78,14.34,9,19.22,15.76,1.55,2.15,2.83,4.66,2.7,7.31a9.21,9.21,0,0,1-3.46,6.43,16.39,16.39,0,0,1-6.76,3.14c-2.89.7-6,1-8.5,2.5C44.78,126,43.13,132,38.67,134.72c-4.69,2.88-11.22,1-14.88-3.11s-4.9-9.87-5-15.37.75-11,.71-16.49a50.13,50.13,0,0,0-2.95-16.63C15.42,80,14,76.93,14.06,73.65c0-1.6.5-4.87,2.64-4.72a2.23,2.23,0,0,1,1.67,1,2.88,2.88,0,0,1,1.19-2.61C22.18,65.47,25.25,69.42,26.8,71.14Z"/>
        <path class="cls-24" d="M17.86,75.44c-.43-1.44-.81-3.14.09-4.34a3.35,3.35,0,0,1,3.62-.92c3.1.93,5.62,4.64,7.9,6.79q4.48,4.26,9.17,8.27,6.42,5.51,13.21,10.55c3.95,2.94,8.64,5.44,11,10,1.42,2.76,1.59,6.41-.43,8.76A8,8,0,0,1,56.13,117a23.79,23.79,0,0,1-6.77-1.51c-7.17-2.37-14.71-5-19.6-10.74-3-3.51-4.71-7.9-6.28-12.24Q20.43,84.05,17.86,75.44Z"/>
        <path class="cls-25" d="M34.91,117.26a10.87,10.87,0,0,1-1.39-5,5.77,5.77,0,0,1,2.18-4.59,4.22,4.22,0,0,1,3-.73c-.59-1.08-1.18-2.15-1.79-3.19-2.19-3.73-4.37-7.45-6.58-11.16C25.84,85,20.78,77.43,17.19,69.34c-.16-.35.37-.7.61-.38,5,6.71,8.86,14.37,13,21.62q3.21,5.63,6.46,11.21c1.07,1.84,2.25,3.68,3.39,5.55.55-2.11,3.27-3.23,5.43-2.65s4,2.55,5.33,4.52a8.71,8.71,0,0,1,1.47,3.05,3.56,3.56,0,0,1-.77,3.18c-1.41,1.42-3.75.85-5.77,1.09l.36.72a15.37,15.37,0,0,1,1.57,4.44.46.46,0,0,1-.86.27c-.76-1.32-1.33-2.75-2-4.1-.16-.32-.34-.63-.52-.94a3.07,3.07,0,0,0-.46.27c-1.27.88-1.75,2.62-3.07,3.43a3.68,3.68,0,0,1-3.85-.24A8,8,0,0,1,34.91,117.26Z"/>
        <path class="cls-24" d="M25.29,107.78a1.3,1.3,0,0,1,1.6-1.67,5.08,5.08,0,0,1,3.75,2.63.73.73,0,0,1,.05.35,1.06,1.06,0,0,1,.07,1l-.17.34a1.27,1.27,0,0,1-1.22.77A5,5,0,0,1,25.29,107.78Z"/>
        <path class="cls-24" d="M27.82,113.48a1.23,1.23,0,0,1,.9-.07l.29.13a2.71,2.71,0,0,1,.68.34.78.78,0,0,1,.31.72.86.86,0,0,1-.49.67,2.69,2.69,0,0,1-.74.19,1.4,1.4,0,0,1-1.18-.15A1.07,1.07,0,0,1,27.82,113.48Z"/>
        <path class="cls-24" d="M24,112a.77.77,0,0,1,.18-1,.63.63,0,0,1,.88.07.76.76,0,0,1,0,1A.59.59,0,0,1,24,112Z"/>
        <path class="cls-24" d="M35.07,127.55A1.52,1.52,0,0,1,37,127c.22,0,.44,0,.66-.1a1,1,0,0,1,1,1.62,2.86,2.86,0,0,1-3.07.83A1.16,1.16,0,0,1,35.07,127.55Z"/>
        <path class="cls-24" d="M30.37,127.1a.94.94,0,0,1,.18-.67,1,1,0,0,1,.85-.4,1.24,1.24,0,0,1,.9.42,1.06,1.06,0,0,1,.14,1,.76.76,0,0,1-1.12.37A.89.89,0,0,1,30.37,127.1Z"/>
        <path class="cls-24" d="M32.91,132c.12-.27.4-.33.66-.4a1.4,1.4,0,0,1,.94.14.51.51,0,0,1,.34.56.56.56,0,0,1-.48.5l-.48,0a1.16,1.16,0,0,1-.59-.2C33.1,132.47,32.8,132.2,32.91,132Z"/>
        <path class="cls-11" d="M44.73,108.7a.89.89,0,0,1,1.33.56,4.31,4.31,0,0,1,2.31,2.63A1.07,1.07,0,0,1,47,113.28C45.61,112.79,42.6,110,44.73,108.7Z"/>
        <path class="cls-11" d="M38.62,115.3c-.62-.89-1.9-3.7-.3-4.31a1.88,1.88,0,0,1,2.37,1.33,3.71,3.71,0,0,1,1.62,3.09,1.61,1.61,0,0,1-1.64,1.38A3,3,0,0,1,38.62,115.3Z"/>
      </g>
      <g>
        <path class="cls-26" d="M157.52,118.43a47.75,47.75,0,0,1-16.76,14.76c-13.37,6.88-31,5.95-42.26-4a3.6,3.6,0,0,1-1.14-1.44,2,2,0,0,1,0-1.35,3.18,3.18,0,0,1,1.26-1.61,9.12,9.12,0,0,1,3.3-1.05c12.78-2.54,23.54-11.31,31.74-21.43S148,80.56,155.24,69.73c1.12-1.67,2.5-3.47,4.5-3.71,2.73-.32,4.77,2.42,5.85,4.94,3.61,8.46,3.39,18.16,1.21,27.09A59,59,0,0,1,157.52,118.43Z"/>
        <path class="cls-26" d="M156,70.13c1.68-1.54,1.66-4.19,1.26-6.43a31.63,31.63,0,0,0-2.8-8.53,10.18,10.18,0,0,1,3.25-2.53,3.5,3.5,0,0,1,3.85.57,4.65,4.65,0,0,1,1,2.54,21.7,21.7,0,0,1-2.92,14.14Z"/>
        <path class="cls-27" d="M113.7,121.47c-3.83,1.84-15.41,2.94-10.76,4.57a33.11,33.11,0,0,0,20.18-1.21,53.31,53.31,0,0,0,19.06-12.91C160,92,164.75,68.08,158.3,68.53c-2.16-.92-11.49,20.3-18.69,29.44S124.18,116.43,113.7,121.47Z"/>
        <path class="cls-27" d="M154.69,55.1a4.85,4.85,0,0,0,6.74-2.57,5.58,5.58,0,0,0-6.74,2.57Z"/>
        <path class="cls-28" d="M160.52,67a2.06,2.06,0,0,1-.72.25,2.22,2.22,0,0,1-.92.06c-.13,0-.29.11-.17.23s.23.27.36.39a1.45,1.45,0,0,0,.67.2,1.68,1.68,0,0,0,1.34-.5C161.47,67.25,161,66.74,160.52,67Z"/>
        <path class="cls-28" d="M160.37,88.51a57.39,57.39,0,0,0,2.69-12.61c.19-2.41.58-7.38-2.43-8.31-.08,0-.19,0-.16.13a38.4,38.4,0,0,1,1.27,4,24.1,24.1,0,0,1-.11,5.5,47.14,47.14,0,0,1-2.31,11.69,55.56,55.56,0,0,1-12.76,21c-.06.06,0,.16.09.1A51.19,51.19,0,0,0,160.37,88.51Z"/>
        <path class="cls-28" d="M144.93,111.52s0,0,0,0S145,111.53,144.93,111.52Z"/>
        <path class="cls-28" d="M130.59,123.68a33.47,33.47,0,0,1-7.25,3.32,50.5,50.5,0,0,1-7.29,1.53,28.54,28.54,0,0,1-7.94-.17c-2.62-.42-5.2-1.67-7.83-1.88a.48.48,0,0,0-.33.86c2,1.48,5,1.78,7.45,2a44.81,44.81,0,0,0,8.19,0A31.54,31.54,0,0,0,130.77,124C130.93,123.84,130.75,123.59,130.59,123.68Z"/>
        <path class="cls-28" d="M142.56,115.33c-3.13,2.69-6.45,5.22-9.75,7.7-.12.09,0,.23.14.16a55.77,55.77,0,0,0,9.74-7.72C142.77,115.38,142.65,115.25,142.56,115.33Z"/>
        <path class="cls-28" d="M110.19,129.07c-.33,0-.66-.07-1-.12A.86.86,0,0,1,110.19,129.07Z"/>
        <path class="cls-28" d="M157.52,118.43a47.75,47.75,0,0,1-16.76,14.76c-13.37,6.88-31,5.95-42.26-4a3.6,3.6,0,0,1-1.14-1.44,2,2,0,0,1,0-1.35A82.67,82.67,0,0,0,109.21,129a.92.92,0,0,0-.38.32,1.47,1.47,0,0,0,0,1.5,3.53,3.53,0,0,0,1.12,1.09c9.48,6.65,24.47,3,33.77-2.22A57.91,57.91,0,0,0,157.52,118.43Z"/>
        <path class="cls-29" d="M99.77,126.56a2.91,2.91,0,0,0,0-2.26.92.92,0,0,0-1.31-.31,2.46,2.46,0,0,0-1.25,1,4.17,4.17,0,0,0-.22,3.39c.18.76,1.38,1.18,1.84.4A8.74,8.74,0,0,0,99.77,126.56Z"/>
        <path class="cls-28" d="M127.91,132.72a1,1,0,0,0-1-1.1c-.22,0-.44,0-.67,0a2.23,2.23,0,0,0-1.08.19.94.94,0,0,0,.08,1.74,2.12,2.12,0,0,0,1,.1l.49,0c.07,0,.11,0,.07,0H127A1,1,0,0,0,127.91,132.72Z"/>
        <path class="cls-28" d="M122.7,132.51a.94.94,0,0,0-.65-.3c-.46,0-1,.32-.89.86a.71.71,0,0,0,.91.51,1,1,0,0,0,.65-.51A.45.45,0,0,0,122.7,132.51Z"/>
        <path class="cls-28" d="M131.77,131.52a1.24,1.24,0,0,0-.87-.86,2.55,2.55,0,0,0-.92-.3.56.56,0,0,0-.61.49c-.12.88,1.18,1.9,2,1.44A.71.71,0,0,0,131.77,131.52Z"/>
        <path class="cls-28" d="M141.65,126.93a2,2,0,0,0-2.19.94.6.6,0,0,0-.06.22c-.11.09-.23.17-.33.26a1,1,0,0,0,.89,1.77,4.18,4.18,0,0,0,2.47-1.59A1,1,0,0,0,141.65,126.93Z"/>
        <path class="cls-28" d="M137.05,128.09a.41.41,0,0,0-.42-.21,1.24,1.24,0,0,0-1,.74.68.68,0,0,0,.26.81.76.76,0,0,0,1-.16A1.14,1.14,0,0,0,137.05,128.09Z"/>
        <path class="cls-28" d="M145.63,123.72a.49.49,0,0,0-.42-.37,1.43,1.43,0,0,0-1,.2c-.15.09-.51.39-.34.59a1,1,0,0,0,.77.28,1.65,1.65,0,0,0,.84-.28A.43.43,0,0,0,145.63,123.72Z"/>
        <path class="cls-28" d="M141.87,121.51c0-.12-.07-.24-.19-.18h0a.71.71,0,0,0-.58.07c-.29.13-.57.32-.58.68a.51.51,0,0,0,.46.52.83.83,0,0,0,.8-.52A.63.63,0,0,0,141.87,121.51Z"/>
        <path class="cls-28" d="M154.7,118a.75.75,0,0,0-1-.33,2.14,2.14,0,0,0-1,.85,2,2,0,0,1-.24.27,2.64,2.64,0,0,0-.9.62,1,1,0,0,0,1.08,1.61C153.77,120.63,155.3,119.31,154.7,118Z"/>
        <g>
          <path class="cls-28" d="M156.28,114.76a1.27,1.27,0,0,0-1,.11,1.33,1.33,0,0,0-.65,1,.55.55,0,0,0,.24.5.63.63,0,0,0,.71,0l0,0,.1,0a1.69,1.69,0,0,0,.36-.23l.23-.22a2,2,0,0,0,.24-.27A.51.51,0,0,0,156.28,114.76Z"/>
          <path class="cls-28" d="M156.3,115.81h0Z"/>
        </g>
        <path class="cls-28" d="M161.6,58.19a1.79,1.79,0,0,0-.57-.91.77.77,0,0,0-1-.05,2.15,2.15,0,0,0-.38,1.48c-.05.67.49,1.65,1.31,1.25A1.4,1.4,0,0,0,161.6,58.19Z"/>
        <path class="cls-28" d="M161.08,62.52h0a.16.16,0,0,0-.21-.23l0,0a1,1,0,0,0-1,1.34.57.57,0,0,0,1,.21A1.61,1.61,0,0,0,161.08,62.52Z"/>
        <path class="cls-28" d="M159.63,61.08c-.07,0-.1,0-.17,0a.15.15,0,1,0-.11.28l.05,0,.07.11a.28.28,0,0,0,.47-.07A.27.27,0,0,0,159.63,61.08Z"/>
        <path class="cls-28" d="M166.69,88.5a.75.75,0,0,0-1.16,0,3.75,3.75,0,0,0-.42,1.43,2.9,2.9,0,0,0,0,1.49.76.76,0,0,0,1.2.42A2.55,2.55,0,0,0,166.69,88.5Z"/>
        <path class="cls-28" d="M165.29,86.94a1.15,1.15,0,0,0-.08-.5.19.19,0,0,0-.27-.13,1.91,1.91,0,0,0-.21,0,.81.81,0,0,0-.28.17,1.57,1.57,0,0,0-.32.56c-.23.49.54.83.83.43A1.81,1.81,0,0,0,165.29,86.94Z"/>
        <path class="cls-28" d="M164.37,95.05c0-.13,0-.26.06-.39a1.19,1.19,0,0,0-.1-.49,1.42,1.42,0,0,0-.29-.59c0-.14-.19-.15-.29-.08-.26,0-.49.34-.58.57a1.28,1.28,0,0,0-.09.64,1.35,1.35,0,0,0,.34.62A.54.54,0,0,0,164.37,95.05Z"/>
        <path class="cls-28" d="M164,102.17a6.35,6.35,0,0,1-.09-1,.18.18,0,0,0-.32-.11c-.14.25-.43.36-.61.59a1.51,1.51,0,0,0-.36,1,.59.59,0,0,0,1.05.37A1.44,1.44,0,0,0,164,102.17Z"/>
        <path class="cls-26" d="M134.25,116.13c-.72-.83-1.9,0-2.52.54a1.06,1.06,0,0,0-.14,1.51,1.15,1.15,0,0,0,1.58.12v0C133.84,117.9,135,117,134.25,116.13Z"/>
        <path class="cls-26" d="M135.88,115.57a1,1,0,0,0,0-.42.42.42,0,0,0-.79-.07,1.16,1.16,0,0,0,0,.52.44.44,0,0,0,.86,0Z"/>
        <path class="cls-26" d="M129.71,118.62a.62.62,0,0,1,0-.48.21.21,0,0,0-.33-.22c-.54.35-1.18,1.09-.5,1.65a.56.56,0,0,0,.75-.12A.82.82,0,0,0,129.71,118.62Z"/>
        <path class="cls-26" d="M146.64,92.17a1.09,1.09,0,0,0-.74-1.11,1.16,1.16,0,0,0-1.45.62c-.11.24-.19.49-.3.73a4.74,4.74,0,0,0-.46.67,1,1,0,0,0,.06,1.25,1.11,1.11,0,0,0,1.51.13A3.79,3.79,0,0,0,146.64,92.17Z"/>
        <path class="cls-26" d="M148.11,89.36a.63.63,0,0,0-.74,0,1.3,1.3,0,0,0-.17,1.67.61.61,0,0,0,1,.09A1.33,1.33,0,0,0,148.11,89.36Z"/>
        <path class="cls-26" d="M144.67,97.28A1,1,0,0,0,144,97a1,1,0,0,0-.3,0h-.11a.36.36,0,0,0-.18.07.51.51,0,0,0-.3.56c.07.31.32.46.6.59a.86.86,0,0,0,.65,0,.76.76,0,0,0,.4-.39A.54.54,0,0,0,144.67,97.28Z"/>
      </g>
      <g>
        <path class="cls-30" d="M126.93,135.6c-3.14,2.82-6.71,4.55-10.53,3.68-2.05-.47-3.87-2-6-1.89-2.45.19-4.19,1.71-6.8,1.58a6.94,6.94,0,0,1-4.44-1.61,39.91,39.91,0,0,1-9-10.33,47.62,47.62,0,0,1-6.87-30.54c.68-5.21,4-10.4,9-11.82,3.87-1.08,8,.15,11.78,1.45,2.16.73,4.4,1.51,6.67,1.27a20.39,20.39,0,0,0,5.43-1.8c8.59-3.49,19.27-2.86,24,6.14,4.87,9.22,1.83,20.24-2.73,28.92C135.36,124.67,131.63,131.36,126.93,135.6Z"/>
        <path class="cls-31" d="M138,105.7c-1.42,5.56-4.13,10.44-10.06,11.87a23.08,23.08,0,0,1-9.65-.06c-10-1.85-20.27-6.86-24.47-16.62a9.73,9.73,0,0,1-.92-4.79,5.21,5.21,0,0,1,2.48-4c1.76-1,3.92-.53,5.87-.07,4.54,1.07,9.22,2.18,13.82,1.44,3.23-.53,6.25-2,9.4-2.82s6.71-1.16,9.55.48a9.86,9.86,0,0,1,4.43,6.56A17.89,17.89,0,0,1,138,105.7Z"/>
        <path class="cls-32" d="M106.13,88.06c2.43.7,4.73,0,7.15.29a1,1,0,0,1,.68.44c1-.53,1.9-1,3.05-.63a.19.19,0,0,1,.11.28,8.79,8.79,0,0,1-4.92,3.18c-2.38.64-4.91-.72-7-1.76C104.14,89.29,105,87.74,106.13,88.06Z"/>
        <path class="cls-32" d="M99.69,131a1.46,1.46,0,0,1,1.69-.1,7.9,7.9,0,0,1,1.46,1,1.13,1.13,0,0,1,.32.71,1.28,1.28,0,0,1-.22,1.64c-.79.71-1.78.25-2.44-.36a7.93,7.93,0,0,1-1.1-1.34A1.27,1.27,0,0,1,99.69,131Z"/>
        <path class="cls-32" d="M96.54,128.77c0-.4.2-.78.66-.78a1.17,1.17,0,0,1,.65.29,2,2,0,0,1,.65.7,1,1,0,0,1-.43,1.31,1.05,1.05,0,0,1-1.38-.45,1.93,1.93,0,0,1-.16-.71A2.14,2.14,0,0,1,96.54,128.77Z"/>
        <path class="cls-32" d="M105.81,131.84a.55.55,0,0,1,.57.26.91.91,0,0,1-1.1,1.25.55.55,0,0,1-.37-.52A1,1,0,0,1,105.81,131.84Z"/>
        <path class="cls-32" d="M90.18,120.72a1,1,0,0,1,1.2-.57,2.73,2.73,0,0,1,1.38,1.06,8.78,8.78,0,0,1,1,1.45,1.36,1.36,0,0,1-.61,1.89,1.56,1.56,0,0,1-2-.65,7.7,7.7,0,0,1-.76-1.45A2.44,2.44,0,0,1,90.18,120.72Z"/>
        <path class="cls-32" d="M90,116.88a1.05,1.05,0,0,1,.74-.26c.4,0,.9.26.81.72v-.07a.49.49,0,0,1-.09.28s-.05,0-.1.11A2.55,2.55,0,0,1,91,118a1,1,0,0,1-.69.25.78.78,0,0,1-.67-.6A.81.81,0,0,1,90,116.88Z"/>
        <path class="cls-32" d="M96.47,123a.31.31,0,0,1,.31-.13h0l.06,0,.08,0,0,0,0,0,0,0h0a.7.7,0,0,1,.15.2,1.55,1.55,0,0,1,.1.6c0,.46-.71.48-.8.06A1.06,1.06,0,0,1,96.47,123Z"/>
        <path class="cls-32" d="M120.21,134.22a4.07,4.07,0,0,1,1.52-.54l.11-.05a2.53,2.53,0,0,0,.36-.2c-.15.09.19-.16.18-.14.42-.36.07,0,.32-.22a1,1,0,0,1,1.66.77c.18,1.9-2.88,3.56-4.23,2A1.15,1.15,0,0,1,120.21,134.22Z"/>
        <path class="cls-32" d="M115.07,134.34a1,1,0,0,1,1.64-.31,1.94,1.94,0,0,1,.28.48l.07.17c0,.1.07.1.17.16a.2.2,0,0,1-.12.36.53.53,0,0,0-.39.13,1.69,1.69,0,0,1-.51.23A1,1,0,0,1,115.07,134.34Z"/>
        <path class="cls-32" d="M126.26,129.13a1.46,1.46,0,0,1,.46-.43l.13-.07.12-.08c.3-.14.79-.47,1.07-.24,1.07.84-.33,2.89-1.52,2.08A.92.92,0,0,1,126.26,129.13Z"/>
        <path class="cls-32" d="M116.39,129.55a3.13,3.13,0,0,1,1.45.21c.28.12.87.41.74.83s-.61.44-1,.45a3,3,0,0,1-1.42-.34A.59.59,0,0,1,116.39,129.55Z"/>
        <path class="cls-32" d="M86.7,112.79a1.44,1.44,0,0,1,.39-.81.22.22,0,0,1,.33,0,1.53,1.53,0,0,1,.5.74,2.8,2.8,0,0,1,0,1,.6.6,0,0,1-1.18.08A2.81,2.81,0,0,1,86.7,112.79Z"/>
        <path class="cls-32" d="M109.39,134.3a1.82,1.82,0,0,1,1.62-.13.56.56,0,0,1,.22,1,1.74,1.74,0,0,1-1.55.4.7.7,0,0,1-.63-.51A.63.63,0,0,1,109.39,134.3Z"/>
        <path class="cls-32" d="M100,127.77a2.26,2.26,0,0,1,2.62-.24.4.4,0,0,1,.06.64,4.12,4.12,0,0,1-1,.46,3.37,3.37,0,0,1-1.25.26A.65.65,0,0,1,100,127.77Z"/>
        <path class="cls-32" d="M91.44,112.56a3.29,3.29,0,0,1,2.6,2,.52.52,0,0,1-.42.63,3.33,3.33,0,0,1-2.9-1.58A.75.75,0,0,1,91.44,112.56Z"/>
        <path class="cls-32" d="M130,123.87a5.42,5.42,0,0,0,1.52-.81.39.39,0,0,1,.63.29,1.71,1.71,0,0,1-1.9,1.59.62.62,0,0,1-.55-.45A.53.53,0,0,1,130,123.87Z"/>
        <path class="cls-31" d="M102.48,115.18a2.06,2.06,0,0,1,2-.17,3,3,0,0,1,1.73,1.28.51.51,0,0,1-.12.64c-1.08.72-3.25.35-3.81-.89A.69.69,0,0,1,102.48,115.18Z"/>
        <path class="cls-31" d="M100.89,113.16a.94.94,0,0,1,.7.71c0,.27,0,.58-.28.67a1,1,0,0,1-1.18-.73A.58.58,0,0,1,100.89,113.16Z"/>
        <path class="cls-31" d="M88.94,95.47A2.27,2.27,0,0,1,90,94a1,1,0,0,1,1.4.65,1.58,1.58,0,0,1,0,.78c0,.17-.07.41-.12.67a2.3,2.3,0,0,1-.74,1.33.93.93,0,0,1-1.27-.09A2,2,0,0,1,88.94,95.47Z"/>
        <path class="cls-31" d="M90.06,100.23a.54.54,0,0,1,.62-.2,2.91,2.91,0,0,1,1.26,1.37.67.67,0,0,1-.83.94,1.72,1.72,0,0,1-1.06-.84A1.28,1.28,0,0,1,90.06,100.23Z"/>
        <path class="cls-30" d="M125.28,114.08a2.81,2.81,0,0,1,1.27-.5,12.26,12.26,0,0,1,1.21-.4.79.79,0,0,1,.91.57c.26,1.74-2.69,2.86-3.56,1.25A.74.74,0,0,1,125.28,114.08Z"/>
        <path class="cls-30" d="M121.67,113.94a1.1,1.1,0,0,1,1.13.33,1.26,1.26,0,0,1,.35.6.34.34,0,0,1-.28.51,1.19,1.19,0,0,1-.65.08,1.12,1.12,0,0,1-1-.82A.58.58,0,0,1,121.67,113.94Z"/>
        <path class="cls-30" d="M100.56,105.9a2.28,2.28,0,0,1,1.56.86,3.26,3.26,0,0,1,.9,1.44.62.62,0,0,1-.65.75,3,3,0,0,1-1.47-.61,2.36,2.36,0,0,1-1.2-1.46A.82.82,0,0,1,100.56,105.9Z"/>
        <path class="cls-30" d="M97.48,101.35a1,1,0,0,1,.78.41,1,1,0,0,1,.14,1,.54.54,0,0,1-.69.33,1.08,1.08,0,0,1-.77-1C96.93,101.84,97.11,101.29,97.48,101.35Z"/>
        <path class="cls-30" d="M132.91,108.81a5.21,5.21,0,0,1,1.22-1.3.4.4,0,0,1,.53.17c.7,1.21-.3,3.51-1.72,3.64a.79.79,0,0,1-.93-.76A2.86,2.86,0,0,1,132.91,108.81Z"/>
        <path class="cls-33" d="M125.81,92.67c1.73-.59,3.53-1.34,5.27-.43A2.33,2.33,0,0,1,132,95.1a3.76,3.76,0,0,1,0,2.21c-.49,1.86-2.62,2.78-4.37,2.67s-4.6-1.76-5-3.54C122.25,94.16,124,93.31,125.81,92.67Z"/>
        <path class="cls-33" d="M112.19,95.8a13.23,13.23,0,0,1,4.72-.53,1.4,1.4,0,0,1,1.16,2,1.14,1.14,0,0,1-.33.79c-1.49,1.64-4.35,1.33-6,.08A1.3,1.3,0,0,1,112.19,95.8Z"/>
        <path class="cls-33" d="M133.66,97.06a.08.08,0,0,1,0,0,.8.8,0,0,1,.13-.24,1,1,0,0,1,.77-.45,1.24,1.24,0,0,1,1.2,1.08,1.35,1.35,0,0,1-.19,1,1.24,1.24,0,0,1-1.38.5A1.22,1.22,0,0,1,133.66,97.06Z"/>
        <path class="cls-33" d="M131.62,100.94a1.11,1.11,0,0,1,.46-.52,1.51,1.51,0,0,1,.66-.11.35.35,0,0,1,.34.35,1.23,1.23,0,0,1-.14.57,1.14,1.14,0,0,1-.63.45A.53.53,0,0,1,131.62,100.94Z"/>
        <path class="cls-33" d="M105.88,95a1.55,1.55,0,0,1,1,.32,1,1,0,0,1,.33.39c0,.1,0,.14.07.13s.11.37,0,.16a.29.29,0,0,1-.2.41c.23-.08-.15.07-.14.06a1,1,0,0,1-.66,0,1.51,1.51,0,0,1-.87-.54A.58.58,0,0,1,105.88,95Z"/>
        <path class="cls-4" d="M111.44,78.19a1.29,1.29,0,0,1,1.44-.46.81.81,0,0,1,.46.21l.1.14a1.27,1.27,0,0,1,.13,1.48,14.65,14.65,0,0,0-1.92,9.74.35.35,0,0,1-.66.21A11.24,11.24,0,0,1,111.44,78.19Z"/>
      </g>
      <g>
        <path class="cls-30" d="M95.68,93.74a312,312,0,0,1-36.29,24.69c5.74,5.14,13.36,8.38,21,8s15.3-4.68,18.8-11.54S101.47,98.81,95.68,93.74Z"/>
        <path class="cls-23" d="M94.86,93.45a2.52,2.52,0,0,0-1.12.34q-19.59,9.52-38.7,20a29.11,29.11,0,0,0,9.87,8.89,22.21,22.21,0,0,0,12.94,2.58,21.94,21.94,0,0,0,15.76-10.52,26.93,26.93,0,0,0,3-18.92C96.46,94.75,95.93,93.48,94.86,93.45Z"/>
        <path class="cls-34" d="M70.56,108.78a2.89,2.89,0,0,0,2,2.73,6,6,0,0,0,4,0,14.38,14.38,0,0,0,3.6-1.93c1.57-1.09,3.18-2.43,3.57-4.3a2.51,2.51,0,0,0-.47-2.21,2.36,2.36,0,0,0-1.88-.61,6.83,6.83,0,0,0-2,.55,34.59,34.59,0,0,0-7.09,3.42A3.67,3.67,0,0,0,70.56,108.78Z"/>
        <path class="cls-4" d="M80.79,105.42a1.49,1.49,0,0,0-1.48-1A4.46,4.46,0,0,0,75.58,106a2.91,2.91,0,0,0-.31.3,1.29,1.29,0,0,0,.7,2.14,4.86,4.86,0,0,0,4.49-1.61A1.44,1.44,0,0,0,80.79,105.42Z"/>
        <path class="cls-24" d="M71.17,113.12A31.4,31.4,0,0,0,67,111.68a4.34,4.34,0,0,0-4.1,1.07,3.92,3.92,0,0,0,0,4.58,8.58,8.58,0,0,0,3.91,2.88,15.52,15.52,0,0,0,7.65,1.35A9.88,9.88,0,0,0,81.18,118a2.92,2.92,0,0,0,.67-2.9,2.42,2.42,0,0,0-1.77-1.2,9.16,9.16,0,0,0-2.22,0A17.22,17.22,0,0,1,71.17,113.12Z"/>
        <path class="cls-24" d="M87.73,109.19a6.62,6.62,0,0,0-4,4.64,1.55,1.55,0,0,0,.25,1.48,1.47,1.47,0,0,0,1,.32,5.75,5.75,0,0,0,5.36-3.41,3.37,3.37,0,0,0,.29-1.68,1.84,1.84,0,0,0-.88-1.4A2.45,2.45,0,0,0,87.73,109.19Z"/>
        <path class="cls-32" d="M94.66,118a1.93,1.93,0,0,0-2,.45,3.35,3.35,0,0,0-1.09,1.41c-.19.57.38,1,.87,1a3.54,3.54,0,0,0,1.69-.56,1.75,1.75,0,0,0,1-1.58A.81.81,0,0,0,94.66,118Z"/>
        <path class="cls-32" d="M96,116.07a1.11,1.11,0,0,0-.38.69c-.06.22.23.31.36.18a1,1,0,0,0,.41-.61A.25.25,0,0,0,96,116.07Z"/>
        <path class="cls-32" d="M99.18,107.36a.52.52,0,0,0-.87.06,2.29,2.29,0,0,0-.06,2,.64.64,0,0,0,1.2-.08A2.25,2.25,0,0,0,99.18,107.36Z"/>
        <path class="cls-32" d="M97,112a2.12,2.12,0,0,0-.51,1,.51.51,0,0,0,1,.31,2,2,0,0,0,.26-1.08A.4.4,0,0,0,97,112Z"/>
      </g>
      <path class="cls-35" d="M64.61,178.49a67.76,67.76,0,0,1-40.4-24.36,59.45,59.45,0,0,1-13.27-43.72c52.8,7.91,107,6.27,160-.33,1.52-.19,2.06,29.39-17.89,49.34-9.92,9.92-27.41,17.84-42.15,19.8C95.56,181.25,79.9,181.52,64.61,178.49Z"/>
      <path class="cls-3" d="M175,104.58c.65,3.66-3.46,6.46-7.12,8.21-22.37,10.71-47.68,16.33-73.07,16.86a204.87,204.87,0,0,1-74.29-12.6c-3.34-1.22-6.71-2.56-9.34-4.76a11,11,0,0,1-3.89-8.59c0-4.67,4.49-6.51,10.93-6.84l-.34,4.88a222.14,222.14,0,0,0,147-.34c.1-.92.2-1.85.29-2.77C169.32,99.35,174.33,100.86,175,104.58Z"/>
      <path class="cls-3" d="M106.52,29.5A47.28,47.28,0,0,0,89.63,33c-14.5,5.66-24.34,19.83-28.57,34.8s-3.65,30.84-2.71,46.36c5.44,1.61,11.2,1.85,16,2.25a222.15,222.15,0,0,1,1.31-39.36c.82-6.68,2-13.45,5-19.44,3.55-7,13.09-15,20.94-16.75a18,18,0,0,1,5.24-.39A66.42,66.42,0,0,1,106.52,29.5Z"/>
      <path class="cls-36" d="M77.56,178.78C54,171.15,38.65,149.5,40.82,123.85c.13-1.51-2.4-.67-2.44.53A58.44,58.44,0,0,0,76.23,180.9C77.36,181.33,79,179.26,77.56,178.78Z"/>
      <path class="cls-36" d="M87.31,178.72A67.68,67.68,0,0,1,73.92,129.5c.19-1.49-2.41-.67-2.44.53-.45,18.17,3.14,36.06,13.64,50.22C85.89,181.29,88.09,179.74,87.31,178.72Z"/>
      <path class="cls-36" d="M103.34,178.78a56.9,56.9,0,0,0,36.74-54.93c-.05-1.52,2.4-.67,2.44.53.79,25-15.2,46.85-38.59,55.63C102.8,180.43,101.91,179.32,103.34,178.78Z"/>
      <path class="cls-36" d="M93.59,178.72c10.7-14,16.59-32.09,14.45-49.57-.18-1.49,1.23-.31,1.38.88a69.19,69.19,0,0,1-13.64,50.22C95,181.28,92.81,179.74,93.59,178.72Z"/>
      <path class="cls-35" d="M73.33,112.45c-5.19,1.45-10.06-1.88-15.26-1.69-.73,0-1.45,1.35-.46,1.32,5.37-.2,10.23,3.16,15.62,1.65C74,113.51,74.34,112.16,73.33,112.45Z"/>
      <path class="cls-35" d="M74.14,103a17.12,17.12,0,0,1-15.57-9c-.37-.66-1.69.24-1.32.92a18.08,18.08,0,0,0,16.43,9.37C74.42,104.24,75.13,102.92,74.14,103Z"/>
      <path class="cls-35" d="M74.56,91.24A22.34,22.34,0,0,1,60,76.05c-.22-.8-1.64-.07-1.44.64A23.28,23.28,0,0,0,73.76,92.51C74.45,92.74,75.43,91.53,74.56,91.24Z"/>
      <path class="cls-35" d="M76,75.74a24.3,24.3,0,0,1-9.4-19.38c0-.91-1.46-.41-1.46.32a25.2,25.2,0,0,0,9.77,20.19C75.44,77.32,76.61,76.25,76,75.74Z"/>
      <path class="cls-35" d="M80.59,58.53a21.41,21.41,0,0,1-1.35-19.07c.38-.91-1.11-.7-1.39,0a22.49,22.49,0,0,0,1.43,20C79.67,60.11,81,59.2,80.59,58.53Z"/>
      <path class="cls-35" d="M97.42,30.4a20,20,0,0,0-9,18.25c.07.91,1.52.4,1.46-.32a18.38,18.38,0,0,1,8.23-17C98.92,30.8,98.25,29.86,97.42,30.4Z"/>
      <path class="cls-35" d="M111.74,29.26a15.69,15.69,0,0,0-9.27,11.48c-.17.87,1.33.38,1.47-.32a13.71,13.71,0,0,1,8.09-10C112.86,30.06,112.71,28.85,111.74,29.26Z"/>
      <path class="cls-35" d="M28,121.21a16.07,16.07,0,0,1-8.89-19.09c.27-1-1.19-.74-1.39,0a17,17,0,0,0,9.19,20.25C27.6,122.65,28.75,121.55,28,121.21Z"/>
      <path class="cls-35" d="M46.53,125.87a18.84,18.84,0,0,1-10.59-18.64c.07-.91-1.41-.4-1.47.31a19.73,19.73,0,0,0,11,19.47C46.1,127.34,47.25,126.23,46.53,125.87Z"/>
      <path class="cls-35" d="M68.21,131.52c-5.56-4.93-12.32-11.49-9.65-19.7.31-.95-1.16-.72-1.39,0-2.83,8.7,4,15.58,10,20.85C67.67,133.14,68.84,132.08,68.21,131.52Z"/>
      <path class="cls-35" d="M87.84,130.44a16.38,16.38,0,0,1-11.1-17.2c.08-.9-1.4-.4-1.46.32A17.29,17.29,0,0,0,87,131.71C87.73,131.94,88.71,130.74,87.84,130.44Z"/>
      <path class="cls-35" d="M106.89,130a16.5,16.5,0,0,1-8.78-15.6c.06-.9-1.42-.4-1.47.32a17.38,17.38,0,0,0,9.16,16.42C106.45,131.46,107.61,130.36,106.89,130Z"/>
      <path class="cls-35" d="M131.2,130a20.26,20.26,0,0,1-12.86-17.94c0-.92-1.49-.41-1.46.31a21.16,21.16,0,0,0,13.52,18.9C131.08,131.57,132.05,130.37,131.2,130Z"/>
      <path class="cls-35" d="M149.71,123.85a17,17,0,0,1-11.94-14.34c-.09-.81-1.53-.1-1.44.63a17.92,17.92,0,0,0,12.58,15C149.6,125.33,150.58,124.11,149.71,123.85Z"/>
      <path class="cls-35" d="M168.14,117.12a15.65,15.65,0,0,1-11.79-12.39c-.15-.8-1.58-.09-1.44.64a16.54,16.54,0,0,0,12.44,13C168,118.56,169,117.33,168.14,117.12Z"/>
      <path class="cls-36" d="M168.22,120.51c-9.55,8.56-22,12.31-34.44,14.06-13.86,2-28.11,2-42.07,2.26s-28.15.63-42-1.5c-13.3-2-25.59-7.75-37.67-13.42-.66-.31-1.81.79-1.09,1.13,12.23,5.75,24.53,11.35,38,13.56,14.22,2.35,29,1.77,43.37,1.53s29.12-.43,43.42-2.57c12.18-1.83,24.18-6.07,33.47-14.38C170,120.47,168.87,119.93,168.22,120.51Z"/>
      <path class="cls-36" d="M165,142.57C140.9,152.62,114.53,153.75,88.8,154c-25.26.19-52.94-.22-73.47-17.09-.57-.46-1.74.61-1.09,1.14,20.7,17,48.64,17.44,74.1,17.26,26-.18,52.61-1.38,76.9-11.54C166.07,143.38,165.93,142.16,165,142.57Z"/>
      <path class="cls-36" d="M135.12,170.05c-17.7,1.67-35.6.69-53.33,0-8.86-.36-17.72-.9-26.54-1.87C47,167.24,38.53,166,31.64,161c-.59-.43-1.76.65-1.08,1.13,6,4.32,13.15,5.87,20.34,6.84,9.38,1.28,18.86,1.82,28.3,2.25,18.42.83,37.08,1.87,55.46.13C135.38,171.3,136.1,170,135.12,170.05Z"/>
    </g>
  </g>
</svg>
