<svg id="Layer_1" data-name="Layer 1" xmlns="http://www.w3.org/2000/svg" width="296.23" height="203.36" viewBox="0 0 296.23 203.36">
  <defs>
    <style>
      .cls-1 {
        fill: #231f20;
        opacity: 0.5;
      }

      .cls-2 {
        fill: #fff;
      }

      .cls-3 {
        fill: #64737b;
      }

      .cls-4 {
        fill: #5a6159;
      }

      .cls-5 {
        fill: #4a565d;
      }

      .cls-6 {
        fill: #97a0aa;
      }

      .cls-7 {
        fill: #897478;
      }

      .cls-8 {
        fill: #b4a063;
      }

      .cls-9 {
        fill: #857d75;
      }

      .cls-10 {
        fill: #878680;
      }

      .cls-11 {
        fill: #e1c88c;
      }

      .cls-12 {
        fill: #3a454a;
      }

      .cls-13 {
        fill: #aca094;
      }
    </style>
  </defs>
  <g>
    <path class="cls-1" d="M168.92,203.36A21.69,21.69,0,0,1,165,203a14.63,14.63,0,0,1-10.83-8l-.28-.32a8.23,8.23,0,0,1-1.44-2.38,9,9,0,0,1-3.59-5.52c-.05-.27-.1-.53-.13-.8s-.05-.35-.07-.52l0-.33,0-.6c0-.3,0-.62,0-.94s0-.6.06-.87a11.12,11.12,0,0,1,.19-1.27c.06-.3.12-.57.2-.84h0a10.33,10.33,0,0,1,1.16-4.07c.17-.31.34-.6.5-.85,0-.28,0-.56,0-.85,0,0,0-1,.07-1.27,0-.81,0-1.61,0-2.4l0-.64c.07-2,.13-3.75.11-5.5a27.15,27.15,0,0,0-1.16-7.6,15.71,15.71,0,0,1-3.32-7.44,65,65,0,0,1-.11-11.13l.08-1.46c.12-2.79.17-5.17.13-7.34l-.46-.13a29.85,29.85,0,0,0-6.93-1h-.89c-6.06,0-10.66,1-13.69,3-.48.32-.93.66-1.39,1-2.26,1.67-5.36,4-9.92,4.27-.41,0-.81,0-1.2,0a20.62,20.62,0,0,1-11.6-4c-1.58-1.07-3-2.18-4.38-3.26-1.22-1-2.38-1.86-3.53-2.63l-.9-.59a12.67,12.67,0,0,1-1.21.49c-.44.15-.88.29-1.32.41l-.28.08c-.45.12-.85.21-1.26.29l-.72.11a8.45,8.45,0,0,1-5.43,4.88,9.22,9.22,0,0,1-1.89.32c-.62,1.42-1.3,2.75-1.94,4s-1.38,2.69-1.87,3.92c-1.11,2.82-1.19,6.92-.23,11.56A64.39,64.39,0,0,0,80,166.26,14.28,14.28,0,0,0,83,170.72c.27.27.57.54.88.82a19.11,19.11,0,0,1,4.45,5.3c3,1.78,6.46,4.65,7.25,9.65a7.2,7.2,0,0,1-1.32,5.41,8,8,0,0,1-4.69,3l-.57.19a11.59,11.59,0,0,1-1.17.58,10.34,10.34,0,0,1-1.43.56,24.67,24.67,0,0,1-7.51,1.47c-1.05.08-2.27.16-3.54.16a19.59,19.59,0,0,1-8.17-1.57,11.57,11.57,0,0,1-5.63-4.73c-.11-.2-.22-.43-.32-.64h0a9.63,9.63,0,0,1-.55-1.56,8.49,8.49,0,0,1-4.53-4.9,11.89,11.89,0,0,1-.1-8.72c.08-.37.17-.69.24-1-.31-.77-.62-1.59-.94-2.52l-.12-.34-.48-1.47c-.11-.34-.21-.67-.31-1s-.21-.71-.3-1.06-.45-1.66-.54-2l-.48-1.93-.17-.75c-.29-1.26-.57-2.53-.85-3.8-.21-1-.43-1.93-.65-2.89l-.41-1.76s-.33-1.34-.42-1.69l-.18-.68-.29-1-.19-.67-.52-1.6c-.1-.3-.21-.61-.33-.92l-.22-.6c-.12-.33-.26-.65-.4-1l-.21-.52c-.2-.44-.42-.92-.65-1.39s-.71-1.24-1.14-1.95l-.17-.28a54.54,54.54,0,0,0-2.55,5.93c-.47,1.29-.91,2.65-1.37,4.17l-.25.88c-.33,1.14-.65,2.29-.94,3.45-.64,2.56-1.2,5.23-1.68,7.94-.77,4.37-1.33,8.52.34,11.11.11.18.41.54.67.86a15.07,15.07,0,0,1,3.17,5.5l0,.1c.42.58.8,1.13,1.15,1.64a17.73,17.73,0,0,1,2.79,5.63c1.19,4.75-1,7.46-2.42,8.65a8.09,8.09,0,0,1-2.52,1.95A13.69,13.69,0,0,1,37,202h-.17c-.77,0-1.53.06-2.3.06-.6,0-1.2,0-1.79,0a57.62,57.62,0,0,1-6.89-.77c-3.28-.61-7.56-2.14-9.76-6a9.9,9.9,0,0,1-.67-1.18,9,9,0,0,1-.66-1.83c-.08-.36-.13-.65-.17-.94s-.07-.56-.08-.88a5.61,5.61,0,0,1,0-.58,7.23,7.23,0,0,1-3.76-5.41,11.31,11.31,0,0,1,.78-6.24v-.14a7.93,7.93,0,0,1,.14-.85c0-.21.1-.43.17-.64a8.31,8.31,0,0,1,.95-2.06c.5-.76,1-1.39,1.39-1.89l.43-.57c.13-1.2.27-2.4.4-3.6.29-2.63.58-5.27.83-7.9a7.22,7.22,0,0,1-5.48-3.43c-.34-.55-.67-1.16-1-1.78-.07-.13-.15-.31-.24-.49-.22-.48-.39-.85-.55-1.22l-.24-.57c-.18-.45-.31-.78-.43-1.11l-.4-1.11c0-.07-.26-.77-.26-.77a27.53,27.53,0,0,1-.78-2.79,7.25,7.25,0,0,1-1.71-3.42c-1.51-7.44.37-15,2.21-20.07a96.69,96.69,0,0,1,5.14-11.16c.72-1.39,1.43-2.78,2.11-4.18l.08-.16a91.8,91.8,0,0,0,6-14.4,64.59,64.59,0,0,0,1.8-12l.07-.84-.12-1.86c-.15-2.3-.3-4.67-.35-7.08,0-1.37,0-2.85.06-4.62,0-.1,0-.21,0-.32s0-.19,0-.25c.07-1.79.19-3.71.32-5.63l0-.45A55.66,55.66,0,0,1,23.41,51a25.56,25.56,0,0,1,5.42-11,17.12,17.12,0,0,1,4-3.17c1.82-1.12,3.66-2.17,5.45-3.18,1.57-.9,3.14-1.79,4.69-2.73,4.17-2.53,8.41-5.3,12.6-8.23a25,25,0,0,1,8-5.56,21,21,0,0,1,2.28-.75l.58-.13c.5-.12,1-.23,1.57-.31l.52-.07a22.8,22.8,0,0,1,2.34-.16l.14,0a37.24,37.24,0,0,1,6.23-.52,40.64,40.64,0,0,1,6,.45c.6,0,1.2,0,1.8.08s1,.07,1.46.07a3.77,3.77,0,0,0,.53,0c.56-.11,1.26-.32,2-.55A26.11,26.11,0,0,1,94.18,14c.43,0,.84-.06,1.25-.06,4.25,0,7.38,2.05,9.45,3.41.57.37,1.11.73,1.55,1a12.51,12.51,0,0,0,2.76.7l1.06.21,6.29,1.22.93.18c2.81.53,5.7,1.08,8.6,1.83a86.91,86.91,0,0,0,9.17-1.95l.48-.12a133.16,133.16,0,0,1,20.65-4.19c2.58-.25,4.95-.38,7.25-.38,1.43,0,2.84.05,4.19.15A73.4,73.4,0,0,1,179,17.76c4.76,1.1,9.52,2.32,14.13,3.5,2.21.57,4.42,1.14,6.64,1.69A40.45,40.45,0,0,0,206.07,24a15.83,15.83,0,0,1,2.53-8.54,14.56,14.56,0,0,1,9.74-6.92,11.7,11.7,0,0,1,3.22-.45,11.37,11.37,0,0,1,2.25.22,13.13,13.13,0,0,1,6.36,3.17A25.76,25.76,0,0,1,243.39,7c.31,0,.63,0,1,0,.54,0,1.1,0,1.66.06a17.39,17.39,0,0,1,9.54-2.82c.41,0,.82,0,1.23,0a17.24,17.24,0,0,1,10.74,4.45,15.85,15.85,0,0,1,5.79,13.12,26.86,26.86,0,0,1,4.46.38c6.69,1.11,11.79,3.63,15.16,7.48,4,4.57,3.66,8.52,2.67,11-2,5.1-7.18,5.93-9.13,6.24-.21,0-.42.06-.6.1a14.82,14.82,0,0,0-3.52,1.88,9.2,9.2,0,0,1,4.2,5.2,11.22,11.22,0,0,1,.41,4.51,9,9,0,0,1,1.12,5.33c0,.15,0,.3-.06.44a9.08,9.08,0,0,1-.64,2.26c0,.1-.17.37-.19.41a8.65,8.65,0,0,1-1.57,2.23l-.31.3a8.08,8.08,0,0,1-1.61,1.19c-.39.26-.75.47-1,.63l-.35.21a11.53,11.53,0,0,1-2.2,1.09q-.28.38-.6.72c-.2.21-.39.4-.58.57a3.83,3.83,0,0,1-.29.28l-.29.25a6.59,6.59,0,0,1-.77.56,8.51,8.51,0,0,1-1.19.74c-.21.11-.47.22-.74.33s-.77.31-1.16.43l-.14,0c-.45.13-.9.24-1.35.35l-.63.16a18.21,18.21,0,0,1-4.86.76h-.47a13.32,13.32,0,0,1-6.2-1.63q-.39,0-.78,0a10.5,10.5,0,0,1-2.69-.34,9.86,9.86,0,0,1-2.31-.92l-.3-.17a8.64,8.64,0,0,1-1.05-.74c-.18-.14-.36-.29-.53-.45l-.27-.26h-1l-1.28.08-1.68.1a86.78,86.78,0,0,0-8.22,6.82l-1.08,1c-3.21,3.09-6.53,6.27-10,9.3-1.3,1.12-2.63,2.21-4,3.3-2.36,1.93-4.58,3.76-6.57,5.72a27.45,27.45,0,0,0-3.63,4.07,2.91,2.91,0,0,0-.46.92c-.05.26-.08.52-.11.78a20.18,20.18,0,0,1-.44,2.45,35.72,35.72,0,0,1-4,9.91c-.65,1.07-1.34,2-1.95,2.88l-.85,1.22-.25.36c-.16.24-.38.56-.53.8s0,.2,0,.3a15.39,15.39,0,0,1-1,5,18.54,18.54,0,0,1-2.68,4.88,22.39,22.39,0,0,1-4.1,3.92,2.45,2.45,0,0,0-.08.29c-.05.17-.08.36-.12.54l-.13.61-.14.57c-.06.25-.12.5-.17.75s-.07.55-.11.82l-.07.55-.09.64c0,.18-.06.35-.07.53-.08.85-.13,1.71-.14,2.56a13.52,13.52,0,0,0,.09,2.19,18.62,18.62,0,0,1,.29,5.14,26,26,0,0,1-.8,3.83,10.25,10.25,0,0,0-.4,1.82,37.65,37.65,0,0,0,2.22,10.67,40.78,40.78,0,0,0,1.82,4.87,13.38,13.38,0,0,0,1,1.75c.15.21.32.42.48.62s.57.74.88,1.18a21.54,21.54,0,0,1,4.18,3.07c6.22,5.77,5.45,10.51,3.71,13.47a7.37,7.37,0,0,1-3.13,2.87,7.8,7.8,0,0,1-1.58.73A44.73,44.73,0,0,1,192.61,200h-.38a22.59,22.59,0,0,1-6.37-.75,9.66,9.66,0,0,1-4.63,2.43,15.61,15.61,0,0,1-6.42,1.42l-1.44,0c-.51,0-1,0-1.53.05C170.78,203.32,169.82,203.36,168.92,203.36Z"/>
    <path class="cls-2" d="M164.73,199.18a21.65,21.65,0,0,1-3.87-.32,14.65,14.65,0,0,1-10.84-8l-.27-.31a8.23,8.23,0,0,1-1.44-2.38,9,9,0,0,1-3.59-5.53c-.05-.26-.1-.52-.13-.79a4.51,4.51,0,0,1-.07-.53l0-.32,0-.6c0-.3,0-.62,0-.94s0-.6.05-.87a10.82,10.82,0,0,1,.2-1.27c.06-.3.12-.57.2-.84h0a10.28,10.28,0,0,1,1.16-4.07c.17-.31.34-.6.5-.85,0-.28,0-.56,0-.85,0,0,0-1,.07-1.27,0-.81,0-1.61.05-2.4l0-.64c.07-2,.12-3.75.11-5.5a27.15,27.15,0,0,0-1.16-7.6,15.71,15.71,0,0,1-3.32-7.44,64,64,0,0,1-.11-11.13l.07-1.47c.13-2.78.18-5.16.14-7.34l-.46-.12a29.32,29.32,0,0,0-6.93-1h-.89c-6.06,0-10.66,1-13.69,3-.48.32-.94.66-1.39,1-2.26,1.67-5.36,3.95-9.92,4.27-.41,0-.81,0-1.2,0a20.55,20.55,0,0,1-11.6-4c-1.58-1.06-3-2.17-4.38-3.25-1.22-1-2.38-1.87-3.53-2.64l-.9-.58a10.52,10.52,0,0,1-1.21.48q-.67.24-1.32.42l-.29.08c-.44.12-.84.21-1.25.29l-.72.11A8.45,8.45,0,0,1,77.35,129a9.22,9.22,0,0,1-1.89.32c-.62,1.42-1.3,2.75-1.94,4s-1.38,2.69-1.87,3.92c-1.11,2.82-1.19,6.92-.23,11.56a64.78,64.78,0,0,0,4.38,13.32,14.28,14.28,0,0,0,3.06,4.46c.27.27.57.54.88.82a19.28,19.28,0,0,1,4.45,5.3c3,1.78,6.45,4.65,7.25,9.65a7.2,7.2,0,0,1-1.32,5.41,8,8,0,0,1-4.69,3l-.57.19a12.74,12.74,0,0,1-1.17.58,10,10,0,0,1-1.44.56,24.61,24.61,0,0,1-7.5,1.47c-1,.07-2.27.16-3.54.16A19.59,19.59,0,0,1,63,192.11a11.57,11.57,0,0,1-5.63-4.73c-.11-.2-.22-.43-.32-.64h0a9.42,9.42,0,0,1-.55-1.57A8.43,8.43,0,0,1,52,180.28a11.89,11.89,0,0,1-.1-8.72c.08-.37.17-.7.24-1-.31-.77-.62-1.59-.94-2.52a3.4,3.4,0,0,1-.12-.34l-.48-1.47c-.11-.34-.21-.67-.31-1s-.21-.71-.3-1.06-.46-1.66-.54-2L49,160.25l-.17-.76c-.29-1.25-.57-2.52-.85-3.79-.21-1-.43-1.93-.65-2.89l-.41-1.76s-.33-1.34-.43-1.69l-.17-.68-.29-1-.19-.67-.52-1.6c-.1-.3-.21-.61-.33-.92l-.22-.61c-.12-.32-.26-.64-.4-1l-.21-.52c-.2-.44-.42-.92-.65-1.39s-.71-1.24-1.14-2l-.17-.28a52.65,52.65,0,0,0-2.55,5.93c-.47,1.28-.92,2.65-1.38,4.17l-.24.88c-.33,1.14-.65,2.29-.94,3.45-.64,2.56-1.2,5.23-1.68,7.94-.77,4.37-1.33,8.52.34,11.11.11.17.41.54.67.86a15.07,15.07,0,0,1,3.17,5.5l0,.1c.42.58.8,1.13,1.15,1.64A17.73,17.73,0,0,1,43.55,186c1.19,4.75-1,7.46-2.42,8.65a8.09,8.09,0,0,1-2.52,1.95,13.72,13.72,0,0,1-5.84,1.26H32.6c-.77,0-1.53.06-2.3.06-.6,0-1.2,0-1.79,0a57.62,57.62,0,0,1-6.89-.77c-3.28-.61-7.56-2.14-9.76-6a10.76,10.76,0,0,1-.67-1.18,9,9,0,0,1-.66-1.83c-.08-.36-.13-.65-.17-.94s-.07-.56-.08-.88a5.8,5.8,0,0,1,0-.59,7.19,7.19,0,0,1-3.76-5.4A11.31,11.31,0,0,1,7.3,174v-.14a7.93,7.93,0,0,1,.14-.85c0-.21.1-.43.17-.64a8.14,8.14,0,0,1,1-2.06c.5-.76,1-1.39,1.38-1.89.14-.18.31-.39.44-.57.13-1.2.27-2.4.4-3.6.29-2.64.58-5.27.83-7.9a7.2,7.2,0,0,1-5.48-3.43c-.34-.55-.67-1.16-1-1.78-.07-.13-.16-.31-.24-.49-.22-.48-.39-.85-.55-1.22l-.24-.57c-.18-.45-.31-.78-.43-1.11l-.4-1.11c0-.07-.26-.77-.26-.77a27.53,27.53,0,0,1-.78-2.79,7.29,7.29,0,0,1-1.71-3.42c-1.51-7.44.37-15,2.21-20.07A96.69,96.69,0,0,1,7.9,108.45c.72-1.39,1.43-2.78,2.11-4.18l.08-.16a91.8,91.8,0,0,0,6-14.4,66.31,66.31,0,0,0,1.8-12L18,76.9,17.87,75c-.15-2.29-.31-4.66-.35-7.07,0-1.38,0-2.85.06-4.62,0-.1,0-.21,0-.32s0-.19,0-.25c.07-1.8.19-3.72.32-5.63l0-.45a54.75,54.75,0,0,1,1.28-9.9,25.56,25.56,0,0,1,5.42-11,17.12,17.12,0,0,1,4-3.17c1.82-1.12,3.66-2.17,5.45-3.18,1.57-.9,3.14-1.79,4.69-2.73,4.17-2.53,8.41-5.3,12.6-8.23a25,25,0,0,1,8-5.56,21,21,0,0,1,2.28-.75l.58-.13c.5-.12,1-.23,1.57-.31l.52-.07a20.29,20.29,0,0,1,2.34-.16l.13,0a37.45,37.45,0,0,1,6.24-.52,42,42,0,0,1,6,.44c.6,0,1.2.05,1.79.09s1,.07,1.47.07a3.77,3.77,0,0,0,.53,0c.56-.11,1.26-.33,2-.55A26.11,26.11,0,0,1,90,9.8c.42,0,.84-.06,1.25-.06,4.25,0,7.38,2,9.45,3.41.57.37,1.11.73,1.55,1a12.36,12.36,0,0,0,2.76.7l1.06.21,6.29,1.22.93.18c2.81.53,5.7,1.08,8.6,1.83a88,88,0,0,0,9.17-1.95l.48-.12A133.16,133.16,0,0,1,152.19,12c2.58-.25,4.95-.38,7.25-.38,1.43,0,2.84.05,4.19.15a73.4,73.4,0,0,1,11.14,1.82c4.76,1.1,9.52,2.32,14.13,3.5,2.21.57,4.42,1.14,6.64,1.69a40.45,40.45,0,0,0,6.35,1.06,15.89,15.89,0,0,1,2.53-8.55,14.58,14.58,0,0,1,9.74-6.91,11.7,11.7,0,0,1,3.22-.45,11.19,11.19,0,0,1,2.24.22A13.17,13.17,0,0,1,226,7.31a25.76,25.76,0,0,1,13.22-4.53c.31,0,.63,0,.95,0,.54,0,1.1,0,1.66.06A17.39,17.39,0,0,1,251.36,0c.41,0,.82,0,1.23,0a17.24,17.24,0,0,1,10.74,4.45,15.85,15.85,0,0,1,5.79,13.12,26.86,26.86,0,0,1,4.46.38c6.69,1.11,11.79,3.63,15.16,7.48,4,4.57,3.66,8.52,2.67,11-2,5.1-7.18,5.93-9.13,6.24-.21,0-.42.06-.6.1a14.82,14.82,0,0,0-3.52,1.88,9.13,9.13,0,0,1,4.19,5.2,11,11,0,0,1,.42,4.51,8.87,8.87,0,0,1,1.11,5.33c0,.15,0,.29-.05.44a9.08,9.08,0,0,1-.64,2.26c0,.1-.17.37-.19.41a8.65,8.65,0,0,1-1.57,2.23l-.31.3a8.08,8.08,0,0,1-1.61,1.19c-.4.26-.75.47-1,.63l-.35.21a11.53,11.53,0,0,1-2.2,1.09q-.29.38-.6.72c-.2.21-.39.4-.58.57a3.71,3.71,0,0,1-.29.27l-.29.26a6.59,6.59,0,0,1-.77.56,8.14,8.14,0,0,1-1.2.74,7.4,7.4,0,0,1-.73.33c-.39.16-.77.31-1.16.43l-.14,0c-.45.14-.9.25-1.35.36l-.63.15a17.78,17.78,0,0,1-4.86.77h-.47a13.32,13.32,0,0,1-6.2-1.63q-.39,0-.78,0a10.5,10.5,0,0,1-2.69-.34,10.1,10.1,0,0,1-2.32-.92l-.29-.17a8.64,8.64,0,0,1-1.05-.74c-.18-.14-.36-.29-.53-.45l-.27-.26h-1l-1.28.08-1.68.1a86.78,86.78,0,0,0-8.22,6.82l-1.08,1c-3.21,3.09-6.53,6.27-10,9.3-1.29,1.12-2.62,2.21-3.95,3.3-2.36,1.93-4.58,3.76-6.57,5.72a27.45,27.45,0,0,0-3.63,4.07,3.06,3.06,0,0,0-.46.91c-.05.27-.08.53-.11.78a20,20,0,0,1-.44,2.46,35.72,35.72,0,0,1-4,9.91c-.65,1.07-1.34,2-2,2.88l-.85,1.22-.25.36c-.16.24-.38.56-.53.8s0,.2,0,.3a15.39,15.39,0,0,1-1,5,18.3,18.3,0,0,1-2.69,4.88,22,22,0,0,1-4.09,3.92,2.45,2.45,0,0,0-.08.29,4.28,4.28,0,0,0-.12.54l-.13.61-.14.57c-.06.25-.12.5-.17.75s-.08.55-.11.82l-.07.54-.09.65a4.81,4.81,0,0,0-.07.53c-.08.85-.13,1.71-.14,2.56a12.47,12.47,0,0,0,.09,2.19,18.28,18.28,0,0,1,.28,5.14,24.83,24.83,0,0,1-.79,3.83,10.25,10.25,0,0,0-.4,1.82,37.65,37.65,0,0,0,2.22,10.67,40.78,40.78,0,0,0,1.82,4.87,13.38,13.38,0,0,0,1,1.75c.15.21.31.42.48.62.26.35.57.74.88,1.18a21.54,21.54,0,0,1,4.18,3.07c6.22,5.77,5.45,10.51,3.71,13.47a7.42,7.42,0,0,1-3.13,2.87,7.8,7.8,0,0,1-1.58.73,44.73,44.73,0,0,1-14.12,2.76h-.38a22.59,22.59,0,0,1-6.37-.75,9.71,9.71,0,0,1-4.63,2.43,15.62,15.62,0,0,1-6.43,1.42c-.48,0-1,0-1.43,0s-1,0-1.53,0C166.6,199.14,165.64,199.18,164.73,199.18Z"/>
    <g>
      <path class="cls-3" d="M283.49,30.05c-2.71-3.1-7.06-4.53-11.05-5.19a17.52,17.52,0,0,0-12,2,10.11,10.11,0,0,0-1.16-4.66,6.33,6.33,0,0,0,2.63-3.62,8.21,8.21,0,0,0-1.07-6.48,8.79,8.79,0,0,0-2.17-2.38A10.17,10.17,0,0,0,252.13,7a10.48,10.48,0,0,0-8.29,3.11,17.89,17.89,0,0,0-4.34-.36c-5.79.24-11.33,3.73-14.85,8.25a11.75,11.75,0,0,1-2.2,2.41,9.91,9.91,0,0,0,.24-5.77,5.55,5.55,0,0,0-4.4-3.66,4.83,4.83,0,0,0-2.56.21A7.69,7.69,0,0,0,210.31,15a8.55,8.55,0,0,0-.24,9.11,9.92,9.92,0,0,0,2.44,2.77l-.22.11h0c-.94,0-1.87,0-2.82,0-1.8,0-3.59,0-5.38-.08a50.23,50.23,0,0,1-10.23-1.43C187,23.81,180.12,22,173.21,20.37a65.82,65.82,0,0,0-10.08-1.66,60.65,60.65,0,0,0-10.26.21c-6.82.67-13.43,2.41-20.06,4.13a87.52,87.52,0,0,1-11.38,2.29c-3.39-.95-6.93-1.6-10.38-2.26-2.12-.4-4.23-.81-6.35-1.23A20.68,20.68,0,0,1,99,20.26c-2.69-1.43-5-3.84-8.33-3.53-2.21.21-4.3,1.17-6.47,1.6-1.86.37-3.83,0-5.7,0,0,0,0,0,0,0a31.41,31.41,0,0,0-10.42,0,.64.64,0,0,0-.3.14,13.51,13.51,0,0,0-5.73.91,19.31,19.31,0,0,0-6.11,4.46q-6.59,4.64-13.47,8.82c-3.34,2-6.79,3.86-10.12,5.89a10.77,10.77,0,0,0-2.46,1.88,18.83,18.83,0,0,0-3.84,8,52.15,52.15,0,0,0-1.13,9.13c-.22,3.41-.45,6.82-.38,10.23.05,3.06.31,6.12.49,9.17-.45,4.9-.8,9.85-2.16,14.62-1.54,5.42-4.07,10.61-6.54,15.7-2.37,4.86-5.14,9.63-7,14.68s-3,11-1.92,16.28c.12.6,1.07,0,1.09-.41a2.11,2.11,0,0,0,0-.26c0,.09,0,.18,0,.26a23.53,23.53,0,0,0,1.13,5.81,27.4,27.4,0,0,0,2.44,5.62c.2.32.89,0,.8-.33a39.68,39.68,0,0,1-1.31-6.08c-.11-1.16-.21-2.34-.28-3.51a19.83,19.83,0,0,0,.6,3.18,16,16,0,0,0,1,2.92,20.9,20.9,0,0,1,1.23,2.46.19.19,0,0,0,.15.1c.18.53.36,1.05.56,1.56s1.25,0,1.16-.52c-.45-2.37-1.11-4.7-1.41-7.1a36.92,36.92,0,0,1,.1-7.43,32.74,32.74,0,0,1,.61-4.22s0,.09,0,.14c.45,2.15,1.23,4.24,1.8,6.36.32,1.19.62,2.39.88,3.59a43,43,0,0,1,.94,7.14,63.94,63.94,0,0,1-.31,8.64c-.43,4.53-1,9.05-1.44,13.57a1.59,1.59,0,0,1-.07.2c-.54,1.62-1.79,2.73-2.7,4.13-.33.51-.2.83.11,1.05-.67.85-1.51,3-1.11,4a.34.34,0,0,0,.15.37c1,.49,1.86-.11,2.68-.59a7,7,0,0,1,.85-.5h0c.09.11.18.23.26.31a.27.27,0,0,0,.08.07,2.4,2.4,0,0,0-.07.52c0,.49.49.87.77,1.21.63.76.21,2.11-.13,2.87-.49,1.06-1.15,2.29-.58,3.45a3.21,3.21,0,0,0,.35.57c.79,1.64,3.29,2.46,5.09,2.79a50.87,50.87,0,0,0,6.05.66,31.57,31.57,0,0,0,3.37,0,7.88,7.88,0,0,0,3.2-.54,1.17,1.17,0,0,0,.59-.81h0a1,1,0,0,0,.48-.19c.53-.38.31-1.16.19-1.67A11.22,11.22,0,0,0,35,184.27c-.65-1-1.34-1.94-2.09-2.84a1.47,1.47,0,0,0,0-.9c-.49-1.73-2.06-3.05-3-4.53-3.09-4.82-2.27-10.77-1.33-16.08a105.46,105.46,0,0,1,4.55-17.61,61.55,61.55,0,0,1,3.61-8.1A83.91,83.91,0,0,0,41,126.1a.93.93,0,0,0,0-.13c.75-1.29,1.53-2.55,2.35-3.8a59.9,59.9,0,0,1,6.33-7.57c.54-.58,1.1-1.16,1.69-1.71-.33,1.29-.66,2.59-1.12,3.85-.85,2.33-2.31,4.42-3.4,6.64a10.77,10.77,0,0,0-.78,7.77c.8,2.43,2.46,4.45,3.6,6.72,4.83,9.6,4.94,20.7,9.07,30.52.13.38.25.76.37,1.14.43,1.49-.44,2.76-.53,4.17a.33.33,0,0,0-.11.13,5,5,0,0,0,0,3.92c.32.84.87,1.42,1.76.92a.72.72,0,0,0,.62-.48,1.74,1.74,0,0,1,.16-.41.56.56,0,0,1,.29-.14c1.19-.2,1.77.78,2,1.71,0,.2.1.39.14.58,0,.55,0,1.11.08,1.66a1.29,1.29,0,0,1,0,.19c0,.09,0,.18-.07.27a2.17,2.17,0,0,0,0,1.91,4.82,4.82,0,0,0,2.37,1.78c2.67,1.17,5.53,1,8.39.83a18,18,0,0,0,5.46-1l.28-.11a4.77,4.77,0,0,0,.82-.31,4,4,0,0,0,1.19-.71c.67-.06,1.36-.45,2-.54.2,0,.59-.25.56-.5-.51-3.18-3.72-4.75-6.46-6a.8.8,0,0,0,.24-.7c-.64-2.08-2.88-3.67-4.39-5.17a21.39,21.39,0,0,1-4.51-6.57,71.39,71.39,0,0,1-4.85-14.75c-1-4.95-1.32-10.71.58-15.52,1.61-4.09,4.29-7.78,5.22-12.08,1.38.8,2.47-.57,2.89-1.73.07-.22.13-.45.18-.68a5.88,5.88,0,0,0,.61,1.65,1.13,1.13,0,0,0,1.38.44c.74-.2,1-1.07,1.18-1.7s.27-1.54.45-2.31c.12-.47.29-1.06.85-1.2a8.66,8.66,0,0,1,2.47.2,9.07,9.07,0,0,0,3.7-.65,21.85,21.85,0,0,0,3-1.62l.07,0c.54.17,1.08.35,1.62.56a19.8,19.8,0,0,1,3.53,2c2.74,1.83,5.17,4.06,7.92,5.9,2.57,1.71,5.23,3,8.44,2.79s5.38-2.42,7.93-4.12c5.32-3.54,12.31-4.29,18.54-4.2a36.41,36.41,0,0,1,8.58,1.22c1.93.5,4.18,1.26,5.11,3.12a6.24,6.24,0,0,1,.48,1.24c.17,3.39.1,6.75-.06,10.17a67.93,67.93,0,0,0,0,11.41,9.88,9.88,0,0,0,2.31,4.58l.37.49a34.22,34.22,0,0,1,1.85,10.77c0,1.93-.05,3.86-.11,5.79,0,1-.09,2-.07,3,0,.54,0,1.06-.08,1.54-.05.66,0,1.32,0,2,0,1.11-.81,1.61-1.27,2.5a2.79,2.79,0,0,0-.33,2,5.54,5.54,0,0,0-.37,3.65,2,2,0,0,0,.86,1.25.54.54,0,0,0,.37.17c1.2.06,1.84-1.32,2.42-2.14,0,.05,0,0,0,0,.17.15.33.32.49.47a6.29,6.29,0,0,1-.47,1.26,5,5,0,0,0-.58,1.52c-.11.81-.12,2.42,1,2.53h.11a7.59,7.59,0,0,0,6.35,5.66,18.8,18.8,0,0,0,5,.1c1.09-.09,2.19-.06,3.3-.1s3.45-.22,4.39-1.32A2.32,2.32,0,0,0,177,190c.89-1,.52-1.93-.26-2.8a34.08,34.08,0,0,0-3-3c-.61-.54-1.26-1.06-1.89-1.58-.4-.33-.79-.7-1.21-1a.75.75,0,0,0-.09-.89c-.26-1.85-1.95-2.16-2.93-3.58a6.9,6.9,0,0,1-1-3,35.22,35.22,0,0,0-.9-3.5,48.37,48.37,0,0,1-1.45-7.81,16.14,16.14,0,0,1,0-4.28c.11-.62.25-1.24.4-1.86.44-.84.94-1.65,1.44-2.51a11.45,11.45,0,0,0,1.36-6.2c-.08-2.77-.31-5.52-.3-8.3s0-5.33.18-8a30.9,30.9,0,0,1,1-6.22,4.45,4.45,0,0,1,.79.23c.5.22,1,.44,1.5.69a15.53,15.53,0,0,1,.67,2,22.56,22.56,0,0,1,.56,5c.09,3.74-.7,7.49-.34,11.21.22,2.22,1.31,4.19,2.16,6.22a41.35,41.35,0,0,1,2.22,6.78c1,4.72.93,9.59,1.39,14.38a13.88,13.88,0,0,0-.83,2.12,1,1,0,0,0,.11.73,6,6,0,0,0,.46,4.54c.19.36.48.82.9.83a.85.85,0,0,0,.72-.16c.47-.47.86-1.28,1.48-1.57l.1,0c.09.14,0,0,.06.15a3.18,3.18,0,0,1,.1.52,5.12,5.12,0,0,0,.44,1.44l.06.09a14.67,14.67,0,0,0-.34,2.19,8.6,8.6,0,0,0,.13,2,4.7,4.7,0,0,0,0,.65A3.22,3.22,0,0,0,181,187a4.56,4.56,0,0,0,1,.74c1.73,1.16,4.06,1.18,6.09,1.2a37.52,37.52,0,0,0,12.25-2.41.81.81,0,0,0,.35-.29.68.68,0,0,0,.51-.23c1-1.65-1.34-3.8-2.44-4.82a12.91,12.91,0,0,0-4.64-2.89.71.71,0,0,0-.07-.46.31.31,0,0,0,0-.22c-.5-.88-1.2-1.62-1.77-2.46a18.55,18.55,0,0,1-1.52-2.67,45.42,45.42,0,0,1-2.17-5.72A43.81,43.81,0,0,1,186,154c0-2.28,1-4.3,1.24-6.52a11.62,11.62,0,0,0-.24-3.22,19.07,19.07,0,0,1-.18-3.46,37,37,0,0,1,2.24-12.27,14.88,14.88,0,0,0,4.51-3.76,12,12,0,0,0,1.65-3.1,14.77,14.77,0,0,0,.6-4,9.21,9.21,0,0,1,1.9-3.8c.86-1.26,1.8-2.47,2.59-3.78a28.76,28.76,0,0,0,3.2-8c.24-.91.29-1.87.46-2.8a9.52,9.52,0,0,1,1.44-3.41A32.09,32.09,0,0,1,210,90.63c3.39-3.35,7.25-6.21,10.85-9.33,3.75-3.24,7.28-6.67,10.85-10.1a100.1,100.1,0,0,1,10.79-8.78h.19a41.54,41.54,0,0,0,4.73-.16c.85,0,1.69,0,2.54,0,1,0,2,.27,3,.26,0,.1,0,.21,0,.32A2.43,2.43,0,0,0,254.94,65a4.76,4.76,0,0,0,2.28,0,4.35,4.35,0,0,0,.57.08,3.55,3.55,0,0,1,1.83.67,6.48,6.48,0,0,0,3.5,1,12.2,12.2,0,0,0,3.53-.59A7.23,7.23,0,0,0,269.71,65a3.2,3.2,0,0,0,.5-.47,3.94,3.94,0,0,0,.47-.65,3.35,3.35,0,0,0,.5-1,14.8,14.8,0,0,0,1.8-.74,3.87,3.87,0,0,0,1.46-.61.57.57,0,0,0,.13-.08,1.18,1.18,0,0,0,.19-.11,9.73,9.73,0,0,0,1.1-.7,1.9,1.9,0,0,0,1.08-2.1c-.2-1.2-1.57-2.1-1.5-3.36l.06-.13a4.52,4.52,0,0,0,.2-3,3.16,3.16,0,0,0-2.45-1.8c-.52-.13-1-.24-1.56-.35h0c-1.05-1.07-2.27-1.93-3.27-3.06s-2-2.55-3-3.86l-1.14-1.48a9.3,9.3,0,0,0,3.25.72,7.47,7.47,0,0,0,3.62-1.26c2.85-1.64,5.54-3.91,8.74-4.79,1.54-.42,4.31-.32,5-2.16C285.49,32.52,284.36,31.05,283.49,30.05ZM26,104.84c-.26,4.72-1.09,9.6-3.63,13.76a22.71,22.71,0,0,1-4.81,5.08l-.37.35c.35-.92.74-1.83,1.15-2.74,1.94-4.21,4.15-8.3,5.9-12.59.71-1.72,1.26-3.48,1.82-5.25C26,103.92,26,104.38,26,104.84ZM218.12,20.4a2.5,2.5,0,0,1-1.18-2c0-1.25,1.22-1.53,2.13-1A4.51,4.51,0,0,1,220.71,21,4.72,4.72,0,0,1,218.12,20.4Zm35.79-5a24.19,24.19,0,0,0-2.51-2,10.87,10.87,0,0,1,1.86.77,2.78,2.78,0,0,1,1.23,1.77Z"/>
      <path class="cls-4" d="M178.79,139.24c-.54,9.13,2.64,18.51-1.93,27.21.11,1.83.2,3.65.37,5.46a13.88,13.88,0,0,0-.83,2.12,1,1,0,0,0,.11.73,6,6,0,0,0,.46,4.54c.19.36.48.82.9.83a.85.85,0,0,0,.72-.16c.47-.47.86-1.28,1.48-1.57l.1,0c.09.14,0,0,.06.15a3.18,3.18,0,0,1,.1.52,5.12,5.12,0,0,0,.44,1.44l.06.09a14.67,14.67,0,0,0-.34,2.19,8.6,8.6,0,0,0,.13,2,4.7,4.7,0,0,0,0,.65A3.22,3.22,0,0,0,181,187a4.56,4.56,0,0,0,1,.74c1.73,1.16,4.06,1.18,6.09,1.2a37.52,37.52,0,0,0,12.25-2.41.81.81,0,0,0,.35-.29.68.68,0,0,0,.51-.23c1-1.65-1.34-3.8-2.44-4.82a12.91,12.91,0,0,0-4.64-2.89.71.71,0,0,0-.07-.46.31.31,0,0,0,0-.22c-.5-.88-1.2-1.62-1.77-2.46a18.55,18.55,0,0,1-1.52-2.67,45.42,45.42,0,0,1-2.17-5.72A43.81,43.81,0,0,1,186,154c0-2.28,1-4.3,1.24-6.52a11.62,11.62,0,0,0-.24-3.22,19.07,19.07,0,0,1-.18-3.46,37.08,37.08,0,0,1,2.22-12.23,43.45,43.45,0,0,1-7.66,2.85C179.37,132.27,178.79,136.34,178.79,139.24Z"/>
      <g>
        <path class="cls-5" d="M158.17,158.4c-1.45-6.09-6.67-10.74-4.64-17.13,1.45-5.51,3.77-11,1.74-16.26-5.23-12.48-.58-24.68-3.48-36.87-.87-2.62-5.52,1.45-7.26,3.77-4.36,5.52-7.55,12.2-13.94,14.23-14.81,4.94-29.61-2.9-42.68-11.32C74.26,86.11,53.36,88.43,46.1,103c-7.83,15.43-13.53,31.83-15.83,48.72a93.47,93.47,0,0,1,2.82-9.36,61.55,61.55,0,0,1,3.61-8.1A83.91,83.91,0,0,0,41,126.1a.93.93,0,0,0,0-.13c.75-1.29,1.53-2.55,2.35-3.8a59.9,59.9,0,0,1,6.33-7.57c.54-.58,1.1-1.16,1.69-1.71-.33,1.29-.66,2.59-1.12,3.85-.85,2.33-2.31,4.42-3.4,6.64a10.77,10.77,0,0,0-.78,7.77c.8,2.43,2.46,4.45,3.6,6.72,4.35,8.65,4.87,18.53,8,27.59.4-8.54-1.7-16.86-2.59-25.35C53.94,130,56.26,116.88,67.3,114a17.21,17.21,0,0,1,14.86,3.15,13.45,13.45,0,0,0,1.94-.54,21.85,21.85,0,0,0,3-1.62l.07,0c.54.17,1.08.35,1.62.56a19.8,19.8,0,0,1,3.53,2c2.74,1.83,5.17,4.06,7.92,5.9,2.57,1.71,5.23,3,8.44,2.79s5.38-2.42,7.93-4.12c5.32-3.54,12.31-4.29,18.54-4.2a36.41,36.41,0,0,1,8.58,1.22c1.93.5,4.18,1.26,5.11,3.12a6.24,6.24,0,0,1,.48,1.24c.17,3.39.1,6.75-.06,10.17a67.93,67.93,0,0,0,0,11.41,9.88,9.88,0,0,0,2.31,4.58l.37.49a34.22,34.22,0,0,1,1.85,10.77c0,1.93-.05,3.86-.11,5.79,0,1-.09,2-.07,3,0,.54,0,1.06-.08,1.54-.05.66,0,1.32,0,2,0,1.11-.81,1.61-1.27,2.5a2.79,2.79,0,0,0-.33,2,5.14,5.14,0,0,0-.46,3.05c1.13-2,2.27-4,3.24-6C157.3,169.44,159.34,164.21,158.17,158.4Z"/>
        <path class="cls-5" d="M251.67,57.65c-.58-.58-1.75-.58-2.33-1.16A11.75,11.75,0,0,0,246.73,55c-4.35-1.74-9-2-13.06-4.36-3.49-1.74-4.07-6.09-6.68-9-1.74,5.23.58,10.45.29,15.68-.58,10.74-9,16.84-17.71,21.2-2.62,1.16-6.39-2.91-7.55.58-1.16,2.9.58,6.09.87,9.29.87,7.55-8.42,10.16-11.91,15.68a53.59,53.59,0,0,1-4.35,6.68c-3.49,4.35-9.29,2.32-13.36,4.64-4.43,2.54-5.49,7.38-5.51,12.29.14-.78.32-1.56.52-2.33a4.45,4.45,0,0,1,.79.23c.5.22,1,.44,1.5.69a15.53,15.53,0,0,1,.67,2,22.56,22.56,0,0,1,.56,5c.09,3.74-.7,7.49-.34,11.21.22,2.22,1.31,4.19,2.16,6.22a41.35,41.35,0,0,1,2.22,6.78,55.64,55.64,0,0,1,1,8.92c4.57-8.7,1.39-18.08,1.93-27.21,0-2.9.58-7,2.61-7.84a43.45,43.45,0,0,0,7.66-2.85l0,0a14.88,14.88,0,0,0,4.51-3.76,12,12,0,0,0,1.65-3.1,14.77,14.77,0,0,0,.6-4,9.21,9.21,0,0,1,1.9-3.8c.86-1.26,1.8-2.47,2.59-3.78a28.76,28.76,0,0,0,3.2-8c.24-.91.29-1.87.46-2.8a9.52,9.52,0,0,1,1.44-3.41A32.09,32.09,0,0,1,210,90.63c3.39-3.35,7.25-6.21,10.85-9.33,3.75-3.24,7.28-6.67,10.85-10.1a100.1,100.1,0,0,1,10.79-8.78h.19a41.54,41.54,0,0,0,4.73-.16c.85,0,1.69,0,2.54,0,1,0,2,.27,3,.26,0,.1,0,.21,0,.32a2.31,2.31,0,0,0,1.15,1.82C254.9,62.05,254.55,59.58,251.67,57.65Z"/>
        <path class="cls-5" d="M33.61,45.75c5.23-4.65,12.49-5.52,17.72-10.46,5-5.23,8.26-12,13.69-16.71a12.58,12.58,0,0,0-3,.79,19.31,19.31,0,0,0-6.11,4.46q-6.59,4.64-13.47,8.82c-3.34,2-6.79,3.86-10.12,5.89a10.77,10.77,0,0,0-2.46,1.88,18.83,18.83,0,0,0-3.84,8,52.15,52.15,0,0,0-1.13,9.13c-.12,1.92-.25,3.83-.32,5.75C26,56.66,28.24,50.35,33.61,45.75Z"/>
        <path class="cls-5" d="M20.26,169.44c3.48-11.62,1.16-23.23,1.45-34.56,0-8.42,7.84-14.51,10.16-22.93,2.91-11.33-2-21.78-4.64-32.23,0,6.68.87,13.06-2.91,19.16-9,13.93-17.17,29.89-14.43,45.53a25.89,25.89,0,0,0,2.19,4.89c.2.32.89,0,.8-.33a39.68,39.68,0,0,1-1.31-6.08c-.11-1.16-.21-2.34-.28-3.51a19.83,19.83,0,0,0,.6,3.18,16,16,0,0,0,1,2.92,20.9,20.9,0,0,1,1.23,2.46.19.19,0,0,0,.15.1c.18.53.36,1.05.56,1.56s1.25,0,1.16-.52c-.45-2.37-1.11-4.7-1.41-7.1a36.92,36.92,0,0,1,.1-7.43,32.74,32.74,0,0,1,.61-4.22s0,.09,0,.14c.45,2.15,1.23,4.24,1.8,6.36.32,1.19.62,2.39.88,3.59a43,43,0,0,1,.94,7.14,63.94,63.94,0,0,1-.31,8.64c-.43,4.53-1,9.05-1.44,13.57a1.59,1.59,0,0,1-.07.2c-.54,1.62-1.79,2.73-2.7,4.13a1,1,0,0,0-.18.57C17,173.77,19.39,172.38,20.26,169.44Zm-2.7-45.76-.37.35c.35-.92.74-1.83,1.15-2.74,1.94-4.21,4.15-8.3,5.9-12.59.71-1.72,1.26-3.48,1.82-5.25,0,.47,0,.93-.06,1.39-.26,4.72-1.09,9.6-3.63,13.76A22.71,22.71,0,0,1,17.56,123.68Z"/>
      </g>
      <g>
        <path class="cls-6" d="M264.62,41.85c-2.15-2.6-5.11-4.73-6.6-7.82-2.6-5.4.09-12.09-3.26-17.19-3.79-5.77-12.08-6.79-18.28-5.34a13.49,13.49,0,0,0-5.67,3,6.75,6.75,0,0,0-1.68,1.69c-2.87,4.85,8,1.51,10.55,2.51,7.08,2.72,8.55,7.09,9.78,14,.63,3.57,2,4.28,4.8,6.37,4.32,3.22,8.24,7.23,13,9.79-.11-.24-.2-.49-.29-.74C266.24,46,266.14,43.7,264.62,41.85Z"/>
        <path class="cls-6" d="M206.32,29.59a99.48,99.48,0,0,1-14.84-.9c-2.13-.35-4.27-.56-6.39-1-2.41-.47-4.7-1.66-7-2.43s-4.37-1.57-6.53-2.42c-2.31-.92-5.13-1-7.59-1.28a62.78,62.78,0,0,0-13.35.46,121.28,121.28,0,0,0-13.27,2.38c-2,.47-4,1-6.09,1.42-2.28.43-4.58.64-6.88.9-4.4.51-8.85.59-13.21,1.27a80,80,0,0,0-12.64,3.42,38.91,38.91,0,0,1-15.12,1.8,30.29,30.29,0,0,1-7.06-1.42,67.88,67.88,0,0,0-6.88-2.2c-6-1.28-10.61,2.57-14.75,6.37-1.77,1.63-3.54,3.28-5.29,5-3.78,2.19-7.61,4.23-10,8.1-3,4.92-3.12,11-3.87,16.59-.51,3.79.49,7.51,1.48,11.13.44,1.58,4.16,0,4.36-1.27,1.86-11.64,8.54-20.72,18.28-27.19,5.84-3.88,13-5.77,19.8-7.93l2.43-.8,1,0A29.21,29.21,0,0,0,78.5,42.9a28.09,28.09,0,0,0-7.74,10.8c-1.3,3.49-2.65,10.71-.84,14.22,2.74,5.31,10.87-7.27,15-6.64,4.4.69,8.17,3.21,12.78,3.17,4.44,0,9.25-1.59,13.31-3.33,8.5-3.65,15.6-10.07,23.34-15,13.87-8.84,28.94-8.24,44.69-8.57,7.94-.16,17-1,23.49-6.15a2.06,2.06,0,0,0-.34-.41c1.81-.16,3.62-.36,5.45-.43C208.66,30.51,206.75,29.59,206.32,29.59Z"/>
        <path class="cls-6" d="M111.68,110.19c-3.24-.55-6.32-.81-9.43-2a60.68,60.68,0,0,1-7.57-3c-5-2.66-10.1-5.31-15.19-7.88a34.21,34.21,0,0,0-14.92-4,28,28,0,0,0-9.51,2,23.64,23.64,0,0,0-3.28,1.5,31,31,0,0,0-2.66,2.22c-.11.07.68.75.89.68a14,14,0,0,0,3.43-1.43,9.35,9.35,0,0,1,5.77-1.45,41.44,41.44,0,0,1,7.51,1.15,53.71,53.71,0,0,1,6.65,2.27c2.21.86,4.56,1.3,6.81,2.05,4.95,1.67,9.61,4,14.62,5.58a66.26,66.26,0,0,0,9.24,2c1.38.21,2.77.39,4.16.55a15.58,15.58,0,0,0,4.14.22C112.46,110.78,111.85,110.22,111.68,110.19Z"/>
      </g>
      <path class="cls-7" d="M54.71,109.14s4.46-5.71,15.78-3A131,131,0,0,1,90,112.42a10.34,10.34,0,0,1-4.57,3.29c-2.79.88-5.35.44-6.78.88s-2.11.51-2.35,2,0,3.43-.77,3.18A3.25,3.25,0,0,1,74.2,121a20.11,20.11,0,0,1-.52-2.48s-.49,2.94-1.3,3.31a2.35,2.35,0,0,1-1.7,0l-.38-2.15V117l-.59-1.63-1.35-.26L67.94,118l-.2,2a.93.93,0,0,1-1.34.78c-1.2-.44-1.81-5-1.81-5L63.9,115s-.48-.29-.48,0v2.81l-.71,2.8-1.69,1-1.16-1.16s-1.89-4.35-2-6.09-.84-3.21-1.48-3.49A7.69,7.69,0,0,1,54.71,109.14Z"/>
      <path class="cls-8" d="M224.06,18.74a7.93,7.93,0,0,1-1.61,1.66,9.91,9.91,0,0,0,.24-5.77,5.55,5.55,0,0,0-4.4-3.66,4.83,4.83,0,0,0-2.56.21A7.69,7.69,0,0,0,210.31,15a8.55,8.55,0,0,0-.24,9.11,9.92,9.92,0,0,0,2.44,2.77l-.22.11h-.07a17.45,17.45,0,0,0,7.51,1c2.9,0,6.1,0,8.13-2.33.17-.22.33-.45.49-.68A9,9,0,0,0,224.06,18.74Zm-5.94,1.66a2.5,2.5,0,0,1-1.18-2c0-1.25,1.22-1.53,2.13-1A4.51,4.51,0,0,1,220.71,21,4.72,4.72,0,0,1,218.12,20.4Z"/>
      <path class="cls-2" d="M233.23,29.49s2.27-1.73,4.16-1.3,4.43,3.06,4.43,3.06a16.6,16.6,0,0,1-2.11.87,5.87,5.87,0,0,1-4-.75C234.9,30.79,233.23,29.49,233.23,29.49Z"/>
      <path class="cls-7" d="M204.94,50.78a49.91,49.91,0,0,1,6.49-11.09c4.2-5.33,6.14-7.2,9.11-7.22s4.74-.13,5.3-.69,1.12,1.5,1.36,4.45-.36,11-3.89,13.32-6.69,1.52-8.67,1.23a18.09,18.09,0,0,0-5.77.37c-1.53.31-3.14,1.33-3.59.87A1.64,1.64,0,0,1,204.94,50.78Z"/>
      <path class="cls-7" d="M283.49,30.05c-2.71-3.1-7.06-4.53-11.05-5.19a17.52,17.52,0,0,0-12,2c0-.14,0-.28,0-.42-4,5.81-.13,11.55,4.24,15.54l-.4-.52a9.3,9.3,0,0,0,3.25.72,7.47,7.47,0,0,0,3.62-1.26c2.85-1.64,5.54-3.91,8.74-4.79,1.54-.42,4.31-.32,5-2.16C285.49,32.52,284.36,31.05,283.49,30.05Z"/>
      <path class="cls-9" d="M276.94,58.53c-.2-1.2-1.57-2.1-1.5-3.36l.06-.13a4.52,4.52,0,0,0,.2-3,3.16,3.16,0,0,0-2.45-1.8c-.52-.13-1-.24-1.56-.35h0l-.3-.29c-7.67,1.16-19.42-.27-15.95,10.13,0,.58-.29,1.75-.58,1.75a7.32,7.32,0,0,0-1.78,1.83A2.49,2.49,0,0,0,254.94,65a4.76,4.76,0,0,0,2.28,0,4.35,4.35,0,0,0,.57.08,3.55,3.55,0,0,1,1.83.67,6.48,6.48,0,0,0,3.5,1,12.2,12.2,0,0,0,3.53-.59A7.23,7.23,0,0,0,269.71,65a3.2,3.2,0,0,0,.5-.47,3.94,3.94,0,0,0,.47-.65,3.35,3.35,0,0,0,.5-1,14.8,14.8,0,0,0,1.8-.74,3.87,3.87,0,0,0,1.46-.61.57.57,0,0,0,.13-.08,1.18,1.18,0,0,0,.19-.11,9.73,9.73,0,0,0,1.1-.7A1.9,1.9,0,0,0,276.94,58.53Z"/>
      <path class="cls-10" d="M36.79,187.65A11.22,11.22,0,0,0,35,184.27c-.65-1-1.34-1.94-2.09-2.84a1.52,1.52,0,0,0,0-.77l-.18.1c-4.76,2.14-10.69,1.94-15.39,4.36a2.44,2.44,0,0,0,.11,1.74,3.21,3.21,0,0,0,.35.57c.79,1.64,3.29,2.46,5.09,2.79a50.87,50.87,0,0,0,6.05.66,31.57,31.57,0,0,0,3.37,0,7.88,7.88,0,0,0,3.2-.54,1.17,1.17,0,0,0,.59-.81h0a1,1,0,0,0,.48-.19C37.13,188.94,36.91,188.16,36.79,187.65Z"/>
      <path class="cls-10" d="M17.94,175.53a3.63,3.63,0,0,0-3.69-1,.61.61,0,0,0,.29.58c-.67.85-1.51,3-1.11,4a.34.34,0,0,0,.15.37c1,.49,1.86-.11,2.68-.59a7,7,0,0,1,.85-.5h0c.09.11.18.23.26.31a.27.27,0,0,0,.08.07,2.4,2.4,0,0,0-.07.52s0,.07,0,.1C18.18,178.14,18.92,176.9,17.94,175.53Z"/>
      <path class="cls-10" d="M155.12,186.14a.9.9,0,0,0,.5.2h.11a7.59,7.59,0,0,0,6.35,5.66,18.8,18.8,0,0,0,5,.1c1.09-.09,2.19-.06,3.3-.1s3.45-.22,4.39-1.32A2.32,2.32,0,0,0,177,190c.89-1,.52-1.93-.26-2.8a34.08,34.08,0,0,0-3-3c-.61-.54-1.26-1.06-1.89-1.58-.4-.33-.79-.7-1.21-1a.78.78,0,0,0,0-.83c-3.88,1.71-8.77,1.4-13,2.95A3.84,3.84,0,0,0,155.12,186.14Z"/>
      <path class="cls-10" d="M180.82,175.24a4.16,4.16,0,0,0-4.27-1.76,3.44,3.44,0,0,0-.15.55,1,1,0,0,0,.11.73,6,6,0,0,0,.46,4.54c.19.36.48.82.9.83a.85.85,0,0,0,.72-.16c.47-.47.86-1.28,1.48-1.57l.1,0c.09.14,0,0,.06.15a3.18,3.18,0,0,1,.1.52l0,.08C181.14,177.9,181.66,176.5,180.82,175.24Z"/>
      <path class="cls-10" d="M198.81,181.14a12.91,12.91,0,0,0-4.64-2.89,1.09,1.09,0,0,0,0-.18c-3.43,2.37-7.17,4.37-11.62,3.56a4.12,4.12,0,0,0-1.94.05,6.62,6.62,0,0,0-.13,1.09,8.6,8.6,0,0,0,.13,2,4.7,4.7,0,0,0,0,.65A3.22,3.22,0,0,0,181,187a4.56,4.56,0,0,0,1,.74c1.73,1.16,4.06,1.18,6.09,1.2a37.52,37.52,0,0,0,12.25-2.41.81.81,0,0,0,.35-.29.68.68,0,0,0,.51-.23C202.22,184.31,199.91,182.16,198.81,181.14Z"/>
      <path class="cls-10" d="M62.65,175.53a3.32,3.32,0,0,0-3.77-2l-.24.09a.45.45,0,0,1,0,.11.33.33,0,0,0-.11.13,5,5,0,0,0,0,3.92c.32.84.87,1.42,1.76.92a.72.72,0,0,0,.62-.48,1.74,1.74,0,0,1,.16-.41.56.56,0,0,1,.29-.14,1.46,1.46,0,0,1,1.27.34A4.43,4.43,0,0,0,62.65,175.53Z"/>
      <path class="cls-10" d="M63.46,183.91s0,0,0,.05a4.82,4.82,0,0,0,2.37,1.78c2.67,1.17,5.53,1,8.39.83a18,18,0,0,0,5.46-1l.28-.11a4.77,4.77,0,0,0,.82-.31,4,4,0,0,0,1.19-.71c.67-.06,1.36-.45,2-.54.2,0,.59-.25.56-.5-.51-3.18-3.72-4.75-6.46-6l0,0c-2.56,1.27-6.3.94-9.09,1.69S64.74,181.7,63.46,183.91Z"/>
      <path class="cls-8" d="M259.45,22.1a6.65,6.65,0,0,0,2.47-3.54,8.21,8.21,0,0,0-1.07-6.48,8.79,8.79,0,0,0-2.17-2.38A10.17,10.17,0,0,0,252.13,7a10.48,10.48,0,0,0-8.29,3.11l-.45-.09C249.69,12.76,256,16.23,259.45,22.1Zm-5.54-6.7a24.19,24.19,0,0,0-2.51-2,10.87,10.87,0,0,1,1.86.77,2.78,2.78,0,0,1,1.23,1.77Z"/>
      <path class="cls-11" d="M225,23.32a7,7,0,0,0-2.62-.05,5.24,5.24,0,0,1-4.39-1,7,7,0,0,1-2.45-5.17c0-1.27.21-4,1.79-3.88.31,0-.53-.75-.74-.81-2.92-.78-4.73,3.86-4,6.63,1.32,4.83,5.64,6.37,9.64,6,.83-.08,1.62-.23,2.44-.37.39-.07,1,0,1.37-.32S225.11,23.36,225,23.32Z"/>
      <path class="cls-11" d="M259.43,15.69A27.51,27.51,0,0,0,258,11a10,10,0,0,0-2-1.77l0,0a13.18,13.18,0,0,0-2.3-.7.06.06,0,0,1-.08,0,15,15,0,0,0-3.91-.12l-.14.11a.93.93,0,0,0-.13.31,5.88,5.88,0,0,1,5.28,2,4,4,0,0,1,.89,1,12.33,12.33,0,0,1,1.14,3.05c.3,1.16.38,1.45,1.57,1.84a5.19,5.19,0,0,0,.79.2q.13-.14.27-.3a6.83,6.83,0,0,0,.18-.9S259.43,15.71,259.43,15.69Z"/>
      <g>
        <path class="cls-12" d="M219.65,47.79c0,.56,1,.18,1.09-.26a18,18,0,0,1,2-6.14,14.57,14.57,0,0,1,1.87-2.76c.29-.33.67-1,.49-1.46A.58.58,0,0,0,225,37c-.1-.17-.15-.25-.16-.24a1.37,1.37,0,0,0-.23-.43,2.53,2.53,0,0,0-1.24-.63,5.13,5.13,0,0,0-2.43.08,12.32,12.32,0,0,0-4.88,2.62,21.64,21.64,0,0,0-6.41,8.17c-.08.19.38.19.46.08a27.49,27.49,0,0,1,6.53-5.87,17.48,17.48,0,0,1,3.1-1.67c-.11.12-.21.25-.31.37-1.72,2.09-2.51,4.57-3.64,7-.27.56.83.35,1,0,1-1.62,2.36-3.1,3.55-4.62.25-.31.51-.61.78-.89l-.11.26A15.08,15.08,0,0,0,219.65,47.79Z"/>
        <path class="cls-12" d="M265,55.63c-.56-.16-1.42,0-1.74-.52s-.5-1.21-.9-1.72c0-.07-.29-.08-.33,0a3.22,3.22,0,0,0,.86,3.5,9.21,9.21,0,0,0,1.52.81,4.35,4.35,0,0,1,1.52,1.37c.7.8,2-.29,1.68-1.18A3.74,3.74,0,0,0,265,55.63Z"/>
        <path class="cls-12" d="M283.49,30.05c-2.71-3.1-7.06-4.53-11.05-5.19a17.52,17.52,0,0,0-12,2,10.11,10.11,0,0,0-1.16-4.66,6.33,6.33,0,0,0,2.63-3.62,8.21,8.21,0,0,0-1.07-6.48,8.79,8.79,0,0,0-2.17-2.38A10.17,10.17,0,0,0,252.13,7a10.48,10.48,0,0,0-8.29,3.11,17.89,17.89,0,0,0-4.34-.36c-5.79.24-11.33,3.73-14.85,8.25a11.75,11.75,0,0,1-2.2,2.41,9.91,9.91,0,0,0,.24-5.77,5.55,5.55,0,0,0-4.4-3.66,4.83,4.83,0,0,0-2.56.21A7.69,7.69,0,0,0,210.31,15a8.55,8.55,0,0,0-.24,9.11,9.92,9.92,0,0,0,2.44,2.77l-.22.11h0c-.94,0-1.87,0-2.82,0-1.8,0-3.59,0-5.38-.08a50.23,50.23,0,0,1-10.23-1.43C187,23.81,180.12,22,173.21,20.37a65.82,65.82,0,0,0-10.08-1.66,60.65,60.65,0,0,0-10.26.21c-6.82.67-13.43,2.41-20.06,4.13a87.52,87.52,0,0,1-11.38,2.29c-3.39-.95-6.93-1.6-10.38-2.26-2.12-.4-4.23-.81-6.35-1.23A20.68,20.68,0,0,1,99,20.26c-2.69-1.43-5-3.84-8.33-3.53-2.21.21-4.3,1.17-6.47,1.6-1.86.37-3.83,0-5.7,0,0,0,0,0,0,0a31.41,31.41,0,0,0-10.42,0,.64.64,0,0,0-.3.14,13.51,13.51,0,0,0-5.73.91,19.31,19.31,0,0,0-6.11,4.46q-6.59,4.64-13.47,8.82c-3.34,2-6.79,3.86-10.12,5.89a10.77,10.77,0,0,0-2.46,1.88,18.83,18.83,0,0,0-3.84,8,52.15,52.15,0,0,0-1.13,9.13c-.22,3.41-.45,6.82-.38,10.23.05,3.06.31,6.12.49,9.17-.45,4.9-.8,9.85-2.16,14.62-1.54,5.42-4.07,10.61-6.54,15.7-2.37,4.86-5.14,9.63-7,14.68s-3,11-1.92,16.28c.12.6,1.07,0,1.09-.41a2.11,2.11,0,0,0,0-.26c0,.09,0,.18,0,.26a23.53,23.53,0,0,0,1.13,5.81,27.4,27.4,0,0,0,2.44,5.62c.2.32.89,0,.8-.33a39.68,39.68,0,0,1-1.31-6.08c-.11-1.16-.21-2.34-.28-3.51a19.83,19.83,0,0,0,.6,3.18,16,16,0,0,0,1,2.92,20.9,20.9,0,0,1,1.23,2.46.19.19,0,0,0,.15.1c.18.53.36,1.05.56,1.56s1.25,0,1.16-.52c-.45-2.37-1.11-4.7-1.41-7.1a36.92,36.92,0,0,1,.1-7.43,32.74,32.74,0,0,1,.61-4.22s0,.09,0,.14c.45,2.15,1.23,4.24,1.8,6.36.32,1.19.62,2.39.88,3.59a43,43,0,0,1,.94,7.14,63.94,63.94,0,0,1-.31,8.64c-.43,4.53-1,9.05-1.44,13.57a1.59,1.59,0,0,1-.07.2c-.54,1.62-1.79,2.73-2.7,4.13-.33.51-.2.83.11,1.05-.67.85-1.51,3-1.11,4a.34.34,0,0,0,.15.37c1,.49,1.86-.11,2.68-.59a7,7,0,0,1,.85-.5h0c.09.11.18.23.26.31a.27.27,0,0,0,.08.07,2.4,2.4,0,0,0-.07.52c0,.49.49.87.77,1.21.63.76.21,2.11-.13,2.87-.49,1.06-1.15,2.29-.58,3.45a3.21,3.21,0,0,0,.35.57c.79,1.64,3.29,2.46,5.09,2.79a50.87,50.87,0,0,0,6.05.66,31.57,31.57,0,0,0,3.37,0,7.88,7.88,0,0,0,3.2-.54,1.17,1.17,0,0,0,.59-.81h0a1,1,0,0,0,.48-.19c.53-.38.31-1.16.19-1.67A11.22,11.22,0,0,0,35,184.27c-.65-1-1.34-1.94-2.09-2.84a1.47,1.47,0,0,0,0-.9c-.49-1.73-2.06-3.05-3-4.53-3.09-4.82-2.27-10.77-1.33-16.08a105.46,105.46,0,0,1,4.55-17.61,61.55,61.55,0,0,1,3.61-8.1A83.91,83.91,0,0,0,41,126.1a.93.93,0,0,0,0-.13c.75-1.29,1.53-2.55,2.35-3.8a59.9,59.9,0,0,1,6.33-7.57c.54-.58,1.1-1.16,1.69-1.71-.33,1.29-.66,2.59-1.12,3.85-.85,2.33-2.31,4.42-3.4,6.64a10.77,10.77,0,0,0-.78,7.77c.8,2.43,2.46,4.45,3.6,6.72,4.83,9.6,4.94,20.7,9.07,30.52.13.38.25.76.37,1.14.43,1.49-.44,2.76-.53,4.17a.33.33,0,0,0-.11.13,5,5,0,0,0,0,3.92c.32.84.87,1.42,1.76.92a.72.72,0,0,0,.62-.48,1.74,1.74,0,0,1,.16-.41.56.56,0,0,1,.29-.14c1.19-.2,1.77.78,2,1.71,0,.2.1.39.14.58,0,.55,0,1.11.08,1.66a1.29,1.29,0,0,1,0,.19c0,.09,0,.18-.07.27a2.17,2.17,0,0,0,0,1.91,4.82,4.82,0,0,0,2.37,1.78c2.67,1.17,5.53,1,8.39.83a18,18,0,0,0,5.46-1l.28-.11a4.77,4.77,0,0,0,.82-.31,4,4,0,0,0,1.19-.71c.67-.06,1.36-.45,2-.54.2,0,.59-.25.56-.5-.51-3.18-3.72-4.75-6.46-6a.8.8,0,0,0,.24-.7c-.64-2.08-2.88-3.67-4.39-5.17a21.39,21.39,0,0,1-4.51-6.57,71.39,71.39,0,0,1-4.85-14.75c-1-4.95-1.32-10.71.58-15.52,1.61-4.09,4.29-7.78,5.22-12.08,1.38.8,2.47-.57,2.89-1.73.07-.22.13-.45.18-.68a5.88,5.88,0,0,0,.61,1.65,1.13,1.13,0,0,0,1.38.44c.74-.2,1-1.07,1.18-1.7s.27-1.54.45-2.31c.12-.47.29-1.06.85-1.2a8.66,8.66,0,0,1,2.47.2,9.07,9.07,0,0,0,3.7-.65,21.85,21.85,0,0,0,3-1.62l.07,0c.54.17,1.08.35,1.62.56a19.8,19.8,0,0,1,3.53,2c2.74,1.83,5.17,4.06,7.92,5.9,2.57,1.71,5.23,3,8.44,2.79s5.38-2.42,7.93-4.12c5.32-3.54,12.31-4.29,18.54-4.2a36.41,36.41,0,0,1,8.58,1.22c1.93.5,4.18,1.26,5.11,3.12a6.24,6.24,0,0,1,.48,1.24c.17,3.39.1,6.75-.06,10.17a67.93,67.93,0,0,0,0,11.41,9.88,9.88,0,0,0,2.31,4.58l.37.49a34.22,34.22,0,0,1,1.85,10.77c0,1.93-.05,3.86-.11,5.79,0,1-.09,2-.07,3,0,.54,0,1.06-.08,1.54-.05.66,0,1.32,0,2,0,1.11-.81,1.61-1.27,2.5a2.79,2.79,0,0,0-.33,2,5.54,5.54,0,0,0-.37,3.65,2,2,0,0,0,.86,1.25.54.54,0,0,0,.37.17c1.2.06,1.84-1.32,2.42-2.14,0,.05,0,0,0,0,.17.15.33.32.49.47a6.29,6.29,0,0,1-.47,1.26,5,5,0,0,0-.58,1.52c-.11.81-.12,2.42,1,2.53h.11a7.59,7.59,0,0,0,6.35,5.66,18.8,18.8,0,0,0,5,.1c1.09-.09,2.19-.06,3.3-.1s3.45-.22,4.39-1.32A2.32,2.32,0,0,0,177,190c.89-1,.52-1.93-.26-2.8a34.08,34.08,0,0,0-3-3c-.61-.54-1.26-1.06-1.89-1.58-.4-.33-.79-.7-1.21-1a.75.75,0,0,0-.09-.89c-.26-1.85-1.95-2.16-2.93-3.58a6.9,6.9,0,0,1-1-3,35.22,35.22,0,0,0-.9-3.5,48.37,48.37,0,0,1-1.45-7.81,16.14,16.14,0,0,1,0-4.28c.11-.62.25-1.24.4-1.86.44-.84.94-1.65,1.44-2.51a11.45,11.45,0,0,0,1.36-6.2c-.08-2.77-.31-5.52-.3-8.3s0-5.33.18-8a30.9,30.9,0,0,1,1-6.22,4.45,4.45,0,0,1,.79.23c.5.22,1,.44,1.5.69a15.53,15.53,0,0,1,.67,2,22.56,22.56,0,0,1,.56,5c.09,3.74-.7,7.49-.34,11.21.22,2.22,1.31,4.19,2.16,6.22a41.35,41.35,0,0,1,2.22,6.78c1,4.72.93,9.59,1.39,14.38a13.88,13.88,0,0,0-.83,2.12,1,1,0,0,0,.11.73,6,6,0,0,0,.46,4.54c.19.36.48.82.9.83a.85.85,0,0,0,.72-.16c.47-.47.86-1.28,1.48-1.57l.1,0c.09.14,0,0,.06.15a3.18,3.18,0,0,1,.1.52,5.12,5.12,0,0,0,.44,1.44l.06.09a14.67,14.67,0,0,0-.34,2.19,8.6,8.6,0,0,0,.13,2,4.7,4.7,0,0,0,0,.65A3.22,3.22,0,0,0,181,187a4.56,4.56,0,0,0,1,.74c1.73,1.16,4.06,1.18,6.09,1.2a37.52,37.52,0,0,0,12.25-2.41.81.81,0,0,0,.35-.29.68.68,0,0,0,.51-.23c1-1.65-1.34-3.8-2.44-4.82a12.91,12.91,0,0,0-4.64-2.89.71.71,0,0,0-.07-.46.31.31,0,0,0,0-.22c-.5-.88-1.2-1.62-1.77-2.46a18.55,18.55,0,0,1-1.52-2.67,45.42,45.42,0,0,1-2.17-5.72A43.81,43.81,0,0,1,186,154c0-2.28,1-4.3,1.24-6.52a11.62,11.62,0,0,0-.24-3.22,19.07,19.07,0,0,1-.18-3.46,37,37,0,0,1,2.24-12.27,14.88,14.88,0,0,0,4.51-3.76,12,12,0,0,0,1.65-3.1,14.77,14.77,0,0,0,.6-4,9.21,9.21,0,0,1,1.9-3.8c.86-1.26,1.8-2.47,2.59-3.78a28.76,28.76,0,0,0,3.2-8c.24-.91.29-1.87.46-2.8a9.52,9.52,0,0,1,1.44-3.41A32.09,32.09,0,0,1,210,90.63c3.39-3.35,7.25-6.21,10.85-9.33,3.75-3.24,7.28-6.67,10.85-10.1a100.1,100.1,0,0,1,10.79-8.78h.19a41.54,41.54,0,0,0,4.73-.16c.85,0,1.69,0,2.54,0,1,0,2,.27,3,.26,0,.1,0,.21,0,.32A2.43,2.43,0,0,0,254.94,65a4.76,4.76,0,0,0,2.28,0,4.35,4.35,0,0,0,.57.08,3.55,3.55,0,0,1,1.83.67,6.48,6.48,0,0,0,3.5,1,12.2,12.2,0,0,0,3.53-.59c1.09-.29,2.41-.45,3.22-1.31.19-.2.11-.5-.17-.51a6.38,6.38,0,0,0-1.43.19c-.61.1-1.22.12-1.83.18a26.38,26.38,0,0,1-3.55.26,5.63,5.63,0,0,1-2.58-.88,12.87,12.87,0,0,1,3.46-.42,21.09,21.09,0,0,0,5.38-.22,15.69,15.69,0,0,0,5.07-2c.34-.22.44-.87-.12-.73-.83.21-1.66.42-2.5.61a35.41,35.41,0,0,0-4,.38,20.61,20.61,0,0,1-4.13-.55c-1.54-.22-3.12.46-4.58.9a7.58,7.58,0,0,1-2.4.43c-1.4,0-.73-1.76-.46-2.56a4.84,4.84,0,0,0-.31-3.11,3.49,3.49,0,0,1,.76-3.66,5.6,5.6,0,0,1,.89-.67c.21-.13-.14-.2-.23-.18a4.37,4.37,0,0,0-3,2.4c-.7,1.22-.35,2.6-.31,3.88a6.94,6.94,0,0,1-.58,2.15,13.22,13.22,0,0,0-3.84-.84c-1.79-.19-3.58-.08-5.37-.13A19.91,19.91,0,0,1,236,57.93a13.31,13.31,0,0,1-6-5.36,24.46,24.46,0,0,1-2.53-8.45,14.94,14.94,0,0,1-.12-2.23c0-.56,0-1.11,0-1.67v-.09a.4.4,0,0,0,0-.11v-.17a10.1,10.1,0,0,0,.1-1.82c0-.31-.51-.08-.59.08a8.87,8.87,0,0,0-.83,2.89c-1.16,4.14-2.85,9.15-7.76,9.79a9.55,9.55,0,0,1-4.19-.7,7.46,7.46,0,0,0-4.29-.19c-1.13.3-2.22,1.08-3.37,1.26-.54.09-.56-.49-.5-.88a13.08,13.08,0,0,1,1.93-4.4A21.33,21.33,0,0,1,210,42.61c1.67-2,3.11-4.15,4.87-6.06,1.39-1.51,3.41-3.31,5.59-3.2,1.07,0,6.06.88,5.38-1.57-.11-.38-.93-.1-1,.25,0,.74-1.84.33-2.36.26a10.92,10.92,0,0,0-2.35-.2c-2.23.25-4.24,1.88-5.77,3.41a58,58,0,0,0-4.7,5.91,38.63,38.63,0,0,0-2.34,3.35,26.78,26.78,0,0,0-2.26,4.43c-.3.78-.81,2.34.18,2.83a2.92,2.92,0,0,0,1.78,0l.24-.05a10.46,10.46,0,0,0,1.64-.09,10.71,10.71,0,0,1,4.37.22c2.2.66,4.33,1.46,6.69,1a9.76,9.76,0,0,0,5.16-3.63,9.91,9.91,0,0,0,1.23-2.08c0,.34.05.69.09,1a19,19,0,0,0,1.57,5.11,14.14,14.14,0,0,0,6,6.5,19,19,0,0,0,7.22,2.3,29.57,29.57,0,0,0-3.37,2q-1.94,1.36-3.73,2.88a.06.06,0,0,1,0,0,4.41,4.41,0,0,0-1.54-1.43,17.09,17.09,0,0,1-2.12-1.87,34.79,34.79,0,0,1-3-3.42,37.35,37.35,0,0,1-4.25-8c-.06-.16-.54-.06-.5.12A28.59,28.59,0,0,0,227,62.47a33.91,33.91,0,0,0,2.85,3.47c.73.76,2,2.16,3.2,2.22-2.22,2-4.31,4.12-6.5,6.13C221.42,79,215.82,83.24,210.72,88a48.89,48.89,0,0,0-6.39,7,12.67,12.67,0,0,0-2,3.89c-.44,1.51-.53,3.09-1,4.61a23.94,23.94,0,0,1-4,8,29.58,29.58,0,0,0-2.28,3.43,15.63,15.63,0,0,0-1,2c-.27.69-.29,1.44-.5,2.15-1.13,3.76-4.41,6.39-8.11,7.61-2.67.88-6,1.11-8.54-.25-.94-.51-1.88-1-2.84-1.45a13.48,13.48,0,0,0-3.77-1.44,8.94,8.94,0,0,0-1.48-.15c.21-.63.42-1.26.65-1.88a.32.32,0,0,0,.12-.17c.09-.82,1.43-.27,2-.09.79.26,1.53.63,2.28,1,1,.43,2.36,1.44,3.47,1.26.22,0,.57-.34.36-.56a8.67,8.67,0,0,0-2-1.32,19.17,19.17,0,0,0-3.17-1.42,5.27,5.27,0,0,0-2.46-.24l.51-1.42a7.54,7.54,0,0,1,2.78-2.07,40.23,40.23,0,0,1,4.37-1.5c3.15-1.07,5.77-3.45,8.22-5.59.33-.29-.08-.51-.37-.38-1.56.71-3,1.71-4.53,2.45a41.33,41.33,0,0,1-5.43,2,14.46,14.46,0,0,0-3.87,1.66,30.73,30.73,0,0,0,1.11-4.83,14.63,14.63,0,0,0-.65-6.63c-.07-.21-.64-.16-.6.07a18.44,18.44,0,0,1-.21,6.66,44.63,44.63,0,0,1-2.07,7.33c-.77,2.13-1.6,4.22-2.3,6.36a30.54,30.54,0,0,0-1.45,7.56,113.09,113.09,0,0,0,0,15.62,11.69,11.69,0,0,1-1.22,7,18.2,18.2,0,0,0-1.46,2.76,8.41,8.41,0,0,0-.37,2.26,13.76,13.76,0,0,0-.11,3.14,43.31,43.31,0,0,0,1.2,7.92c.3,1.25.67,2.49,1.05,3.72a30,30,0,0,0,.74,3.22c.57,1.33,1.71,2.07,2.68,3a14.38,14.38,0,0,0-2.78.64,22.75,22.75,0,0,1-5.48,1.51,6.66,6.66,0,0,0-3.69,1.38,1.1,1.1,0,0,0-.16.15,4.61,4.61,0,0,1,.49-1.4,6.36,6.36,0,0,0,.7-2,1,1,0,0,0,.08-.67,2.42,2.42,0,0,0-.88-1.23,4,4,0,0,0-1.23-.87c-.44-.22-1.43-.43-1.58-1s.63-1.19.91-1.53a4.67,4.67,0,0,0,1-2.24,1,1,0,0,0,.21-.37,36.94,36.94,0,0,0,.47-6.65c.08-2.16.13-4.32,0-6.48a29.92,29.92,0,0,0-.67-5.26c.77.2,1.38-.77,1.35-1.44-.08-1.56-1.65-3.23-2.56-4.45-1.08-1.44-2.11-2.65-2.28-4.48a86,86,0,0,1,.09-11.12c.08-2,.13-3.91.1-5.86-.05-2.45-.4-4.85-.63-7.28-.16-1.73-.46-3.45-.65-5.18a6.75,6.75,0,0,0-1.56-4c-.33-.34-1.21.16-1,.62a13.53,13.53,0,0,1,.55,5v.5c-.34-.74-.68-1.47-1-2.21a17.86,17.86,0,0,1-.85-6.86,32.5,32.5,0,0,1,1.08-8.2c.69-2.54,2.07-5.07,2.27-7.71,0-.47-.83-.22-.95.07-1,2.4-2.15,4.78-3.08,7.22a27.85,27.85,0,0,0-1.5,7.6c0,.21,0,.42,0,.63a25.56,25.56,0,0,1-1.89-10.18,31.18,31.18,0,0,1,2.45-11.21c1.31-3,3-5.86,4.15-9,.18-.46-.69-.35-.84,0-1.62,3.15-3.71,6-5.3,9.22a29.17,29.17,0,0,0-2.67,10.46c-.56,6,1.41,12.23,4.39,17.51v0a21.65,21.65,0,0,0,1.27,3.65,31.81,31.81,0,0,0-5-1.32,40.27,40.27,0,0,0-10.23-.49,35,35,0,0,0-9.23,1.71,25.09,25.09,0,0,0-7.61,4.25,12.9,12.9,0,0,1-4,2.46,8.51,8.51,0,0,1-4.56.11c-3.1-.72-5.92-3-8.38-4.84-2.28-1.69-4.59-3.61-7.31-4.62a14.25,14.25,0,0,0-5.5-.89c-.14,0-.52.23-.22.32l1.73.47c-.39.21-.77.46-1.17.64a8.93,8.93,0,0,1-4.16.6c-1.65-.07-3.45-.43-4.37,1.27a7.06,7.06,0,0,0-.63,2c-.07.36-.14.71-.19,1.07,0,.17-.12,1.27-.41,1-1.06-1-.42-2.9-1.11-4.09a3.59,3.59,0,0,1,.5-.92c1.46-1.88,5-1.5,7.15-2,.34-.08.37-.46,0-.42-3.48.39-8.09.22-8.86,4.42-.15.8-.28,1.59-.5,2.36-.16.6-.76,2-1.41.84-.47-.86-.28-2.3-.37-3.25A8.3,8.3,0,0,0,69.37,114a4.25,4.25,0,0,0-4.93-1.42,2.64,2.64,0,0,0-1.34,1.8c-.35,1.32-.26,2.8-.5,4.15a4.48,4.48,0,0,1-.39,1.66c-.61.95-1.24-.38-1.36-.64a6.88,6.88,0,0,1-.34-1.2c-.31-1.43-.49-2.84-.94-4.25a11.67,11.67,0,0,0-2.63-4.93l.62-.24a26.58,26.58,0,0,1,9.69-1.38c6.62.23,13,2.65,19.07,4.91a67.7,67.7,0,0,0,9.26,2.92c3.19.69,6.45,1.4,9.69,1.81a39.54,39.54,0,0,0,10.31-.07,50.74,50.74,0,0,0,9.47-2.39c.42-.14.89-.9.13-.82-7.21.78-14.67,1.37-21.8-.1-3.22-.67-6.46-1.29-9.62-2.14s-6.11-2.12-9.13-3.22c-6-2.2-12.31-4.12-18.86-4.06a27.56,27.56,0,0,0-9.55,1.84c-2.93,1.12-5.34,3.34-7.45,5.54a50.27,50.27,0,0,0-6.64,8.9,108.38,108.38,0,0,0-4.84,9.86,82.87,82.87,0,0,0-5,10.37A107.61,107.61,0,0,0,27.8,157c-1.1,5.08-2.22,10.59-.91,15.71a14.28,14.28,0,0,0,3.22,6,12.65,12.65,0,0,1,1.19,1.54l.18.26c-.21.68-.5.9-1.42.93a21,21,0,0,0-2.38.07c-1.73.23-3.31,1.14-5.06,1.37a11.28,11.28,0,0,0-3.34.61.41.41,0,0,0,0-.09,3.88,3.88,0,0,0,.53-1.81,3.39,3.39,0,0,0-.35-1.8A3.5,3.5,0,0,0,19,179c-.22-.23,0-.66.12-.92a3.11,3.11,0,0,0-1.25-3.32,4.31,4.31,0,0,0-1.83-.6l-.21,0,.74-.88a10.71,10.71,0,0,0,2-3.53,1,1,0,0,0,.07-.15l.06-.26a22.17,22.17,0,0,0,1-4.22c1.55-7.53,2.39-15.34,1.22-22.9-.25-1.64-.61-3.27-1-4.88-.67-2.68-1.63-5.3-2.19-8a3.15,3.15,0,0,1,.74-3,33.63,33.63,0,0,1,2.75-2.45,18.33,18.33,0,0,0,4.24-5.67c2.21-4.44,2.9-9.45,3.12-14.29A164.89,164.89,0,0,0,28,87.22q-.27-5.16-.55-10.32c-.2-3.58-.54-7.16-.54-10.75,0-3.41.26-6.82.47-10.22a38.22,38.22,0,0,1,1.45-9.11,14.68,14.68,0,0,1,2.67-5.1h0l0,0,.37-.31a10.68,10.68,0,0,1,.87-.63c1.83-1.25,3.78-2.34,5.68-3.48a153,153,0,0,0,13.31-8.94c-1.4,1.67-2.74,3.39-4.2,5-.22.25.45.26.61.1,2.1-2.16,4.15-4.35,6.23-6.52S59,22.2,61.85,21c2.67-1.17,5.72-.87,8.42-.22s5.32,2.11,8.14,2.6c.48.09,1.55-.63.92-1.06a24.29,24.29,0,0,0-8.47-3.38l-.78-.16a48.35,48.35,0,0,1,10.6,1.54c1.89.44,3.76.92,5.65,1.38a17.15,17.15,0,0,0,6,.72c.2,0,.77-.36.4-.55-1.78-.92-4-1.2-6-1.66-1.22-.28-2.44-.58-3.66-.87h.17a28.41,28.41,0,0,0,5.69-1.07,7,7,0,0,1,3-.14,9.14,9.14,0,0,1,2.47,1.1C95.75,20,97,21,98.5,21.76a19.51,19.51,0,0,0,5,1.31q3.16.63,6.33,1.21c2.65.49,5.33,1,8,1.36-1.17.06-2.35.07-3.53,0l-8.69-.35a80.52,80.52,0,0,1-9.07-.69c-.26-.05-.72.26-.29.36a84,84,0,0,0,20.4,2.38c6.83-.06,13.58-1.79,20.2-3.47A94.37,94.37,0,0,1,157,20.64a51.26,51.26,0,0,1,10.44.69c3.5.59,6.94,1.55,10.36,2.41,6,1.52,12,3.47,18.1,4.59a43.74,43.74,0,0,0,8.33.62h0a7.77,7.77,0,0,0-1.16,3.53c-.33,2.65.19,5.31-.15,7.93,0,.29.58.19.62-.05a59.37,59.37,0,0,0,.47-6.53,11.59,11.59,0,0,1,.73-3.58,3.55,3.55,0,0,1,.76-1.15l.22-.18c.66,0,1.33,0,2-.05a8.06,8.06,0,0,0-.77,2.95,39.74,39.74,0,0,0,.38,7.94c0,.26.66.11.66-.13,0-2.1-.1-4.2,0-6.3a11.63,11.63,0,0,1,.64-3.65,1.47,1.47,0,0,1,.81-.9c.55,0,1.09-.09,1.64-.16a7.7,7.7,0,0,0-.31,1.16,19.34,19.34,0,0,0-.21,4.23,12,12,0,0,1,.06,3c-.06.27.51.17.58,0,.64-1.75.43-3.86.62-5.68a6.56,6.56,0,0,1,.7-2.7.73.73,0,0,1,.29-.29l.44-.09a1.52,1.52,0,0,1,.38,0,8.8,8.8,0,0,0-.31,1.47,9.61,9.61,0,0,0,.2,4.37c.12.35.73,0,.78-.24.32-1.57.17-3.19.55-4.75a6.59,6.59,0,0,1,.22-.72,14.4,14.4,0,0,0,3.69,1.12,11.31,11.31,0,0,0,5.07-.35,6.92,6.92,0,0,0,2.64-1.61,10.34,10.34,0,0,0,2.32-2.4c.08-.15,0-.25-.19-.27a2,2,0,0,0-1.21.34,11.91,11.91,0,0,1-2.79.88,16.12,16.12,0,0,1-4.25.57,11.28,11.28,0,0,1-7.54-3.33,6.59,6.59,0,0,1-2-6,8,8,0,0,1,2.47-4.4c-1.38,1.88-1,4.3-.35,6.35,0,.05.18.05.17,0-.44-2.21-.51-5,1.33-6.72,1.32-1.21,3.28-1,4.74-.37,3.62,1.51,3.33,5.41,2.35,8.63a3.19,3.19,0,0,1-.63.12c.11-1.83-.63-4.42-2.84-4.4a2.1,2.1,0,0,0-1.86,2.55c.25,2,2.46,2.78,4.25,2.83,2.3.07,3.7-1.92,5-3.52,3.88-4.79,10.06-7.9,16.2-7.37,5.79.5,10.81,4.2,14.29,8.56a14.56,14.56,0,0,1,3,5.86,3.32,3.32,0,0,0-.72.45c-.49.4-1.37,1.42-1.18,2.09.05.17.37.07.43-.05a5.45,5.45,0,0,1,1-1.44c.11-.1.22-.2.34-.29a.86.86,0,0,1,.18-.14l0,0c.05.33.08.66.1,1a.48.48,0,0,0-.19.21,1.84,1.84,0,0,0-.45.34,4.38,4.38,0,0,0-1.05,1.57,2.05,2.05,0,0,0-.15.42l-.13.18A2.1,2.1,0,0,0,257,30.9a3.71,3.71,0,0,0,.21,1.09,2.4,2.4,0,0,0,.21.57v.1a2,2,0,0,0,.37.76.8.8,0,0,0,.15.21c.07.09.14.17.19.25h0a1,1,0,0,0,.28.44,11.12,11.12,0,0,0,1.24,1.81c.48.78.94,1.56,1.49,2.3l3.41,4.64c1,1.34,1.91,2.72,3,4a14.42,14.42,0,0,0,2.11,2.18c-.41-.17-.81-.35-1.24-.5-.05,0-.36,0-.26.13a6.35,6.35,0,0,0,3.41,1.79c1.31.37,3,.72,3.31,2.27.23,1.18-.57,2.36-.92,3.45a5.15,5.15,0,0,0,.21,2.88c0,.12.32.1.34,0,.16-.8.07-1.63.23-2.43a3.71,3.71,0,0,1,.24-.71,4.61,4.61,0,0,0,.47,1.31,11.91,11.91,0,0,1,.58,1.19c.29.72-.24,1.11-.62,1.67-.16.24,0,.44.29.39a1.85,1.85,0,0,0,1.25-2.15c-.2-1.2-1.57-2.1-1.5-3.36l.06-.13a4.52,4.52,0,0,0,.2-3,3.16,3.16,0,0,0-2.45-1.8c-.52-.13-1-.24-1.56-.35h0c-1.05-1.07-2.27-1.93-3.27-3.06s-2-2.55-3-3.86l-1.14-1.48a9.3,9.3,0,0,0,3.25.72,7.47,7.47,0,0,0,3.62-1.26c2.85-1.64,5.54-3.91,8.74-4.79,1.54-.42,4.31-.32,5-2.16C285.49,32.52,284.36,31.05,283.49,30.05ZM178.88,176.86a4,4,0,0,0-1,1.58,7.87,7.87,0,0,1-.24-.92,7.23,7.23,0,0,1-.27-2.55,3.19,3.19,0,0,1,2.53,1.26A3.72,3.72,0,0,0,178.88,176.86Zm1.24,1.46h0Zm17,2.91a14,14,0,0,1,2.12,2.09,6.12,6.12,0,0,1,1.3,2,11.07,11.07,0,0,0-2.3-2.25,12.63,12.63,0,0,0-3.75-2.7c-.21-.08-1,.24-.69.51,1,.84,2.16,1.6,3.25,2.39.63.45,2.22,1.52,2.55,2.5-1.41.1-2.81,0-4.22,0-1.84,0-3.64.07-5.47.19a36.85,36.85,0,0,1-5.56-.11,3.11,3.11,0,0,1-2-.69c0-.88-.19-1.74-.26-2.61.33,0,.69,0,1,0a17.26,17.26,0,0,0,3.73.1,16.44,16.44,0,0,0,3.35-1.5,13.8,13.8,0,0,0,3.57-2.2C194.89,179.69,196.07,180.4,197.14,181.23Zm-21.27-52c3.47,1.93,8.18,1.36,11.77-.07a16.76,16.76,0,0,0-1.34,4.38,41.87,41.87,0,0,0-1,6.94,25.7,25.7,0,0,0,0,3.51,26.2,26.2,0,0,1,.33,3.65,19.94,19.94,0,0,1-.84,3.45,15.42,15.42,0,0,0-.39,3,31.24,31.24,0,0,0,.92,6.72,54.8,54.8,0,0,0,1.79,6.56,47.84,47.84,0,0,0,2.33,6,13.27,13.27,0,0,0,2.88,4.39c-1,.41-1.88,1.18-2.79,1.61-.63.3-1.26.55-1.86.9a4.45,4.45,0,0,1-2.58.53,8.13,8.13,0,0,0-3,.18c.07-.75.18-1.48.2-2.21a3.74,3.74,0,0,0-.05-1.16,6.09,6.09,0,0,0-.18-.8,4.84,4.84,0,0,0-4.06-3.61l0-.08a1.28,1.28,0,0,0,.91-1,60.84,60.84,0,0,0-.72-15.49,37.05,37.05,0,0,0-2.16-6.64c-.95-2.29-2.17-4.38-2.42-6.88a57.8,57.8,0,0,1,.13-6.71c0-1.55,0-3.11-.13-4.65a17.7,17.7,0,0,0-.73-4.23C173.94,128.17,174.9,128.71,175.87,129.24Zm-6.35,53.06c.61.6,1.33,1.12,2,1.67a35.54,35.54,0,0,1,2.72,2.48,8.15,8.15,0,0,1,1.65,2.18c.11.24-.4.44-.67.54-.18-1.29-1.53-2.5-2.36-3.34a22.07,22.07,0,0,0-2.3-2,8.76,8.76,0,0,0-2.2-1.48A6.12,6.12,0,0,1,169.52,182.3Zm-13,2.74a4,4,0,0,1,1.57-.64,30.63,30.63,0,0,1,3.46-.26,17.13,17.13,0,0,0,3.37-.91,18.33,18.33,0,0,1,3-.83,5.74,5.74,0,0,0,.84,1.37,18.83,18.83,0,0,0,1.63,2.19,17.51,17.51,0,0,1,3.06,3.49c.34.63-.12.65-.78.82a12,12,0,0,1-2.68.25,56.36,56.36,0,0,1-6.87.19,7.84,7.84,0,0,1-6.81-5A1,1,0,0,1,156.54,185Zm-2.7-5.8a9.39,9.39,0,0,0-1.14,2.09,8.2,8.2,0,0,1-.14-1.43,4,4,0,0,1,.14-1.2A5.68,5.68,0,0,0,153.84,179.24Zm-92.73-4.31a2.64,2.64,0,0,0-1.61,2.12c0-.07,0-.15-.08-.22a5.19,5.19,0,0,1-.23-2.62,2.28,2.28,0,0,1,2.12.68Zm18.3,9.36c-.23.08-.47.14-.71.21h-.21c-1.58.16-3.14.34-4.73.37a18.31,18.31,0,0,1-5.68-.45,9,9,0,0,1-2.13-.88c-.68-.41-.93-.76-.82-1.4a4.31,4.31,0,0,1,2.15-1.65,14.53,14.53,0,0,1,4.11-1,16.61,16.61,0,0,0,4.58-.65,11.05,11.05,0,0,1,2.35,1.91,16.18,16.18,0,0,1,2.06,2.08C81.07,183.74,80.22,184,79.41,184.29Zm-1.94-6.59a.67.67,0,0,0,.29-.08c1,.69,2,1.42,3,2.17a6.61,6.61,0,0,1,2.58,3.4,7.28,7.28,0,0,0-1,.21c-.07-.85-1-1.69-1.75-2.32l-.37-.33a10.75,10.75,0,0,0-1.43-1,18.34,18.34,0,0,0-2.05-1.32A2.85,2.85,0,0,0,77.47,177.7Zm-10.6-64.42a3.11,3.11,0,0,1,1.8,1.5A3.65,3.65,0,0,0,67.55,117l-.33,1.63c-.13.64-.58,1.94-1.1.79-.65-1.45,0-5-1.85-5.7C64.7,112.91,65.9,113,66.87,113.28Zm-12.44-.76a10.63,10.63,0,0,0,.18-1.38,4.53,4.53,0,0,1,.5.31,10.71,10.71,0,0,1,1.49,1.28c.72.77.83,2.31,1,3.28.27,1.27.95,5.06,2.7,5.74a1.87,1.87,0,0,0,2.08-.11,3.52,3.52,0,0,0,1.42-2.94c.12-1.13.2-2.26.25-3.39a4.24,4.24,0,0,1,.31.91c.17.75.18,1.52.28,2.28a3.16,3.16,0,0,0,1,2.36c.94.64,2-.6,2.26-1.31.49-1.16.25-2.91,1-4a8.34,8.34,0,0,1,.28,1.12,28.93,28.93,0,0,1,.25,3.72,4.42,4.42,0,0,0,.19,1.31c-1.2,4.85-4.16,9-5.91,13.64a22.63,22.63,0,0,0-1.07,7.21,34.79,34.79,0,0,0,.65,7.75A73.52,73.52,0,0,0,68.3,165.6,24.74,24.74,0,0,0,72.43,172c1.32,1.53,3.14,2.91,4.23,4.65a7.71,7.71,0,0,0-1,.48,6.62,6.62,0,0,1-2.3.67,18.49,18.49,0,0,0-4.31.71,10.86,10.86,0,0,0-3.68,1.91,4.4,4.4,0,0,0-.45.42,14.66,14.66,0,0,0-.16-2.26,5.88,5.88,0,0,0-1-3,11.93,11.93,0,0,0-1.8-2,2.58,2.58,0,0,0-2.33-.38c.17-.57.43-1.15.57-1.72a5,5,0,0,0,.05-1.73,6.25,6.25,0,0,0-.48-1.64c-1.32-5.28-2.46-10.62-3.62-15.94a73.3,73.3,0,0,0-4.56-15c-1-2.17-2.47-4.11-3.4-6.31a4.51,4.51,0,0,1,.17-4.12c.32-.62.81-1.17,1.14-1.79s.7-1.28,1-1.92a34.47,34.47,0,0,0,2.93-6.43A40.65,40.65,0,0,0,54.43,112.52ZM31.66,182.19a1.37,1.37,0,0,0,.21-.15.75.75,0,0,0,.15,0c.8,1.09,1.67,2.14,2.41,3.28l-.33-.39a12.83,12.83,0,0,0-2.76-2.58Zm-8.94,1.66c1.84-.22,3.53-1.25,5.41-1.22.48,0,1,0,1.48,0a18.37,18.37,0,0,0,2.6,2.92,10.23,10.23,0,0,1,2.14,2.82c-1.44,0-3,.35-4.34.41a35,35,0,0,1-5.61-.25,12,12,0,0,1-3.93-1,4.12,4.12,0,0,1-1.95-2.4C19.39,183.89,21.07,184.05,22.72,183.85Zm-6.65-8.17a2.49,2.49,0,0,1,1,.63,3.91,3.91,0,0,0-.77.36,15.93,15.93,0,0,0-1.86,1.51s0,0,0,0a3.09,3.09,0,0,1,.14-.9,10.22,10.22,0,0,1,.75-1.77ZM26,104.84c-.26,4.72-1.09,9.6-3.63,13.76a22.71,22.71,0,0,1-4.81,5.08l-.37.35c.35-.92.74-1.83,1.15-2.74,1.94-4.21,4.15-8.3,5.9-12.59.71-1.72,1.26-3.48,1.82-5.25C26,103.92,26,104.38,26,104.84Zm-1.13-2c-.84,2.25-1.73,4.48-2.72,6.68-1.9,4.25-4.18,8.35-6,12.61a40,40,0,0,0-3.2,13.11,37.06,37.06,0,0,0-.07,6.32c-.28-1.49-.42-3-.56-4.5a35.07,35.07,0,0,1-.08-5.52c.14-2.36.67-4.66.93-7,0-.37-.69-.15-.78.09l-.07.21c-.1,0-.19.06-.21.11-1,2-1.22,4.24-1.67,6.34a27.16,27.16,0,0,0-.61,6,28.6,28.6,0,0,0,.37,4,23.72,23.72,0,0,1-.49-2.4,33.82,33.82,0,0,1-.21-6.52c.06-1,.2-2,.28-3a9.84,9.84,0,0,1,.41-2.53c.06-.18-.36-.16-.43,0l-.13.3a41.6,41.6,0,0,1,1.65-5.41c1.94-5.16,4.84-10,7.2-15a86.76,86.76,0,0,0,5.95-15.29,39.31,39.31,0,0,0,1-6c0,1,.1,2.08.16,3.13.19,3.5.44,7,.5,10.51A31.72,31.72,0,0,1,24.87,102.88ZM218.12,20.4a2.5,2.5,0,0,1-1.18-2c0-1.25,1.22-1.53,2.13-1A4.51,4.51,0,0,1,220.71,21,4.72,4.72,0,0,1,218.12,20.4Zm35.79-5a24.19,24.19,0,0,0-2.51-2,10.87,10.87,0,0,1,1.86.77,2.78,2.78,0,0,1,1.23,1.77Zm4.77,3.5a3.39,3.39,0,0,1-1,.68c-.46-.63-.94-1.23-1.44-1.79a.58.58,0,0,0,.06-.29,5.55,5.55,0,0,0-1.5-3.79c-1-1-3.46-2.2-4.86-1.23a20.46,20.46,0,0,0-5.79-2.31,10.57,10.57,0,0,1,8.64-2.7q.44.06.84.15a12.58,12.58,0,0,0-6.26,1.68c-.19.1.06.18.17.14a10.44,10.44,0,0,1,6.86-.67,9.55,9.55,0,0,1,3.11,1.55c.42.56.86,1.09,1.23,1.68l0,.05a6.72,6.72,0,0,1,.47.88,6.6,6.6,0,0,1,.52,3.32A4.82,4.82,0,0,1,258.68,18.9Zm1.37,16.26h0c-.05-.25-.1-.51-.17-.76h0s0,0,0,0a1.74,1.74,0,0,0,.19.57A.91.91,0,0,0,260.05,35.16Zm23.88-1.3c-.18.7-1.43.77-2,.86a17.57,17.57,0,0,0-3.65.84,38.45,38.45,0,0,0-6.58,3.79,9.75,9.75,0,0,1-3.93,1.75,11,11,0,0,1-3.92-.34h-.14l-1.54-2c-.48-.64-.94-1.29-1.4-2h.12a1.17,1.17,0,0,0,1.07-.53c1.53-.07,3,.2,4.56.18a23.19,23.19,0,0,0,3.21-.36c.26,0,.51-.41.12-.44a23.78,23.78,0,0,1-4.21-1.2,18.43,18.43,0,0,0-2.87-.56l.42-.11a17.54,17.54,0,0,1,2.68-.41,57.78,57.78,0,0,1,7.56.07c.33,0,.86-.45.32-.51-2-.23-3.8-1.12-5.8-1.39a18.3,18.3,0,0,0-3.31-.1,12.2,12.2,0,0,0-1.79.18l.19-.16a10.12,10.12,0,0,1,3.84-1.73,19,19,0,0,1,5-.37,14.54,14.54,0,0,1,5.47,1.17c.24.11,1.13-.22.78-.5a14.4,14.4,0,0,0-11.56-2.84A11.28,11.28,0,0,0,262,29.17a6.67,6.67,0,0,0-2.48,3.54,6,6,0,0,1-.1-1.34,14.69,14.69,0,0,1,.55-2.12h0a.93.93,0,0,0,.05-.1,7.12,7.12,0,0,0,.41-1.65,15.46,15.46,0,0,1,12.31-2,19.19,19.19,0,0,1,9.5,5C283,31.28,284.24,32.65,283.93,33.86Z"/>
        <path class="cls-12" d="M232.79,28c.56-.38,1-.87,1.61-1.21a5.18,5.18,0,0,1,2.54-.49,8.59,8.59,0,0,1,4.8,1.67c.18.12.72-.1.48-.29a9.41,9.41,0,0,0-5.54-2.25,4.69,4.69,0,0,0-4.55,2.32C231.89,28.17,232.54,28.11,232.79,28Z"/>
        <path class="cls-12" d="M230.84,29.09a5.61,5.61,0,0,0,2.36.73h.13c1.21.7,1.93,1.88,3.15,2.63a3.41,3.41,0,0,0,2.09.36c1-.09,2.45-1.41,3.38-1a.48.48,0,0,0,.17,0,2.23,2.23,0,0,0,1.44-.16c.09,0,.09-.13,0-.17a8.73,8.73,0,0,1-2.47-1.3,12.24,12.24,0,0,0-2.35-2,4.06,4.06,0,0,0-2.64-.34,8.93,8.93,0,0,0-1.86.78,5.8,5.8,0,0,1-3.09.2C231,28.74,230.59,29,230.84,29.09Zm9.71,1.9.41.28a6.17,6.17,0,0,0-.61.19A1.75,1.75,0,0,0,240.55,31Zm-3.23-1.12.05,0a1.78,1.78,0,0,1,.35,0h0a1.61,1.61,0,0,1,.69.49.42.42,0,0,0,.6,0,1.63,1.63,0,0,0,.27-.26l.38.3-.16.09a2,2,0,0,1-.72.32,3.49,3.49,0,0,1-1.44-.32C237.25,30.23,237.16,30,237.32,29.87Zm-2.77-.28a2.33,2.33,0,0,0,.08.46,5.51,5.51,0,0,0-.7-.31A6.23,6.23,0,0,0,234.55,29.59Z"/>
        <path class="cls-12" d="M256.58,28.07a12.18,12.18,0,0,1,.72-4c.08-.18-.27-.16-.34,0a5.92,5.92,0,0,0-.74,4.08C256.25,28.24,256.56,28.2,256.58,28.07Z"/>
      </g>
      <path class="cls-2" d="M259.26,28.91c0-.09-.06-.12-.1-.11l-.07.06c0,.1,0,.12-.1.09a.81.81,0,0,1-.1.09l-.09.14a2.14,2.14,0,0,0-.2,1.05l.12.06a2.23,2.23,0,0,0,.37-.5,1.52,1.52,0,0,0,.19-.54A.77.77,0,0,0,259.26,28.91Z"/>
      <path class="cls-13" d="M270.07,51.22a39.61,39.61,0,0,1-4.36.06,13.32,13.32,0,0,0-4.46,1.06c1.22,0,5,1.08,6.38,1.43,2.27.59,4.83.19,4-2.84C271.6,50.93,270.57,51.17,270.07,51.22Z"/>
    </g>
  </g>
</svg>
