<svg id="Layer_1" data-name="Layer 1" xmlns="http://www.w3.org/2000/svg" xmlns:xlink="http://www.w3.org/1999/xlink" width="125.46" height="213.55" viewBox="0 0 125.46 213.55">
  <defs>
    <style>
      .cls-1 {
        fill: #353535;
        opacity: 0.5;
      }

      .cls-2 {
        fill: #fff;
      }

      .cls-3 {
        fill: none;
        stroke: #603e1a;
        stroke-miterlimit: 10;
      }

      .cls-4 {
        fill: #e77e31;
      }

      .cls-5 {
        fill: #3f1a0c;
      }

      .cls-6 {
        fill: #1c0e0a;
      }

      .cls-7 {
        fill: #b65b2b;
      }

      .cls-8 {
        fill: #db6d27;
      }

      .cls-9 {
        fill: #2c140c;
      }

      .cls-10 {
        fill: #f2e7da;
      }

      .cls-11 {
        fill: #4e1f0f;
      }

      .cls-12 {
        fill: #d9c5b1;
      }

      .cls-13 {
        fill: url(#Áåçûìÿííûé_ãðàäèåíò_26);
      }

      .cls-14 {
        fill: #ab9579;
      }
    </style>
    <linearGradient id="Áåçûìÿííûé_ãðàäèåíò_26" data-name="Áåçûìÿííûé ãðàäèåíò 26" x1="37.68" y1="70.5" x2="5.98" y2="58.15" gradientUnits="userSpaceOnUse">
      <stop offset="0.09" stop-color="#f2e7da"/>
      <stop offset="1" stop-color="#fcfaf7"/>
    </linearGradient>
  </defs>
  <g>
    <path class="cls-1" d="M71.28,213.55a77.67,77.67,0,0,1-17.89-2.07h-.13c-6.81-.33-15.87-3.88-17.62-4.59a77.05,77.05,0,0,0-13.3-4.1,5.47,5.47,0,0,1-3.65-2.5,5.15,5.15,0,0,1-.36-.7,5.45,5.45,0,0,1-3.62-2.14,5.39,5.39,0,0,1-1-4.36,20.81,20.81,0,0,1,3.17-6.89,8.11,8.11,0,0,1-1.59-3.92A11.62,11.62,0,0,1,18.46,173a96,96,0,0,0-1.07-9.8c-.51-1.18-.95-2.35-1.34-3.57A34.37,34.37,0,0,1,14.54,146c-4.43-24.78-7.61-36.45-9.12-39.1A5.39,5.39,0,0,1,5,102.59C3.9,98.65,3.38,95.86,3.35,95.7a5.47,5.47,0,0,1,1.72-5h0L5,90.46a5.44,5.44,0,0,1,1-6,62.59,62.59,0,0,0,7.53-9.9,43.33,43.33,0,0,1-7-9A5.46,5.46,0,0,1,6,61.22c-1.53-3.13-2.35-5.29-2.39-5.41A5.42,5.42,0,0,1,7.43,48.6,58,58,0,0,1,17,36.28,39.57,39.57,0,0,1,16.22,29a27.5,27.5,0,0,1,1-7.62l0-.08c0-.14.07-.28.11-.41l.14-.51C20,11.34,25.24,6.07,29,4.3l.07,0a5,5,0,0,1,.49-.22l.2-.08a9.61,9.61,0,0,1,3.55-.71,8.6,8.6,0,0,1,1.52.14c4.19.71,6.61,4.25,7.41,5.43,2.42,3.55,4.43,11.16,5,13.59.15.53.3,1,.43,1.53a58.26,58.26,0,0,1,9.53,2c.53-.57,1.13-1.19,1.76-1.83a38.51,38.51,0,0,1,6.78-6.24,34.39,34.39,0,0,1,3.76-2.69,11.79,11.79,0,0,1,6.36-2.29h.43a8,8,0,0,1,1.36.11,5.57,5.57,0,0,1,.71.14l.36.09c5.37,1.49,6.93,7.3,7.51,9.5a30.24,30.24,0,0,1-.28,14.42,29.53,29.53,0,0,1-1.36,4.37s0,.09,0,.13-.12.28-.16.39-.2.45-.2.45a27.24,27.24,0,0,1-2.11,3.9,35.59,35.59,0,0,1-3.4,4.66c1.64,4.39,3,8.64,4,11.59a5.44,5.44,0,0,1,2,8.93c-4.05,4.1-10,7.72-15.07,10.38a23.64,23.64,0,0,0,6.17,11.64c5,5.5,16.18,23.79,20.78,41a42.07,42.07,0,0,1,2.58,6.22h.62c11.1,0,23.3,9.3,25.53,30.08,2.41,22.6-17.19,35.77-36.33,40.55a73.58,73.58,0,0,1-17.65,2.09Z"/>
    <path class="cls-2" d="M68,210.28a77.58,77.58,0,0,1-17.88-2.06H50c-6.8-.33-15.86-3.88-17.61-4.59a78.15,78.15,0,0,0-13.3-4.1,5.36,5.36,0,0,1-3.65-2.5,6.56,6.56,0,0,1-.37-.69,5.44,5.44,0,0,1-4.58-6.5,20.81,20.81,0,0,1,3.16-6.89A8.19,8.19,0,0,1,12.06,179a11.57,11.57,0,0,1,3.14-9.26,97.58,97.58,0,0,0-1.08-9.81c-.5-1.17-.94-2.34-1.33-3.56a34.21,34.21,0,0,1-1.52-13.6C6.85,118,3.66,106.33,2.15,103.68a5.45,5.45,0,0,1-.45-4.36C.64,95.38.12,92.6.09,92.44a5.46,5.46,0,0,1,1.72-5h0l-.09-.2a5.45,5.45,0,0,1,1-6,62.53,62.53,0,0,0,7.52-9.9,43.85,43.85,0,0,1-7-9A5.41,5.41,0,0,1,2.75,58C1.22,54.83.4,52.67.35,52.54A5.44,5.44,0,0,1,2,46.38a5.59,5.59,0,0,1,2.13-1.05A57.77,57.77,0,0,1,13.71,33,39.63,39.63,0,0,1,13,25.68a28.32,28.32,0,0,1,1-7.62L14,18c0-.14.08-.27.11-.4l.15-.51C16.73,8.08,22,2.8,25.68,1l.07,0c.18-.08.34-.16.5-.22l.19-.07A9.45,9.45,0,0,1,30,0a8.62,8.62,0,0,1,1.53.14c4.19.7,6.61,4.25,7.4,5.42,2.42,3.55,4.43,11.16,5,13.6.16.53.3,1,.44,1.53a59.09,59.09,0,0,1,9.52,2c.54-.56,1.13-1.18,1.77-1.83a38.13,38.13,0,0,1,6.78-6.24A37.33,37.33,0,0,1,66.22,12a11.92,11.92,0,0,1,6.36-2.29H73a9,9,0,0,1,1.35.11l.72.14.35.1C80.81,11.5,82.36,17.3,83,19.5a30.41,30.41,0,0,1-.28,14.43,31.17,31.17,0,0,1-1.36,4.37l0,.12c-.07.18-.12.29-.17.4l-.19.45a27.89,27.89,0,0,1-2.12,3.9,34.7,34.7,0,0,1-3.4,4.66c1.65,4.39,3,8.64,4,11.58a5.45,5.45,0,0,1,2,8.93c-4.06,4.11-10,7.72-15.08,10.39a23.71,23.71,0,0,0,6.18,11.64c5,5.5,16.17,23.79,20.77,41a42.1,42.1,0,0,1,2.59,6.22h.61c11.11,0,23.31,9.3,25.53,30.08,2.42,22.59-17.18,35.76-36.32,40.55A74.18,74.18,0,0,1,68,210.28Z"/>
    <path class="cls-3" d="M116.58,168.22c-2.12-19.83-14.56-27.82-24.71-24.47a39.24,39.24,0,0,0-3.71-10.41C83.92,116.94,73,99,68.47,94c-5.62-6.15-8.14-13.13-7.76-18.58,5-2.4,12.33-6.41,16.81-10.94a20.93,20.93,0,0,1-2.23.28S72.56,55.26,69,46.42h0l0,0,.36-.34a23.67,23.67,0,0,0,4.81-5.87,23.05,23.05,0,0,0,1.74-3.21c0-.09.08-.19.13-.29l.12-.29,0-.09a23.87,23.87,0,0,0,1.17-3.74,25,25,0,0,0,.31-11.73c-1-3.82-2.31-5.57-4.26-5.78h-.11a3.65,3.65,0,0,0-.47,0,6.61,6.61,0,0,0-3.73,1.45A32.13,32.13,0,0,0,65.75,19l0,0a33.17,33.17,0,0,0-6,5.54l0,0c-2,2-3.59,3.8-4.26,4.56a51.11,51.11,0,0,0-15.41-3.35c-.28-1.15-.75-3-1.37-5.17h0S36.53,11.7,34.43,8.63C33,6.5,31.68,5.54,30.26,5.45a4,4,0,0,0-1.87.34l-.11,0L28,5.94h0c-2.27,1.08-6.48,5.14-8.6,12.67l-.09.33c0,.12-.07.23-.1.35a.15.15,0,0,0,0,.07,22.63,22.63,0,0,0-.83,6.21,26.62,26.62,0,0,0,1.41,9,1.36,1.36,0,0,1,.06.16A52.18,52.18,0,0,0,7,51.63l-1.57-1A72.46,72.46,0,0,0,9.92,59.9h0c.41.73-2-.37-2-.37A39.21,39.21,0,0,0,17,70c-2.88,7.16-10.3,14.93-10.3,14.93l3.71,8L5.44,91.45a99.8,99.8,0,0,0,3,11.35c-1-1.15-1.52-1.82-1.52-1.82,2.91,5.11,7.05,25.64,9.88,41.6A28.86,28.86,0,0,0,18,154.71a36.31,36.31,0,0,0,1.44,3.71c1.7,11.47,1.17,13.07,1.17,13.07a3.34,3.34,0,0,0,0,.67c-1.32,1-3.48,3.22-3.11,6.17.29,2.26,2.61,2.8,5.11,2.71-5.74,5-6.76,9.89-6.76,9.89,4.38.37,5.63,1,5.63,1a5.8,5.8,0,0,0-1.37,2.23,81,81,0,0,1,14.36,4.41c3.24,1.31,10.68,3.95,15.8,4.2a4.44,4.44,0,0,0,.5,0,71.65,71.65,0,0,0,33.63.16C97.5,199.63,118.88,189.76,116.58,168.22ZM43,173.84v.32l.21,0H43c0-.11,0-.23,0-.35ZM29.71,170a27,27,0,0,0,3.49,1.62h0l-.09.09a22.3,22.3,0,0,1-2.4-1.19,2.81,2.81,0,0,0-1-.33Z"/>
    <g>
      <path class="cls-4" d="M40.35,27s-4-18-8.76-21.06S18.2,15.28,18.39,25.58s3.46,12.09,3.46,12.09Z"/>
      <path class="cls-5" d="M19.86,34.74a27.94,27.94,0,0,1-.63-15.44C21.35,11,26,6.74,28.28,5.83s4-.28,6.15,2.8S38.7,20.56,38.7,20.56,35.42,11.52,33,11,32.71,27,32.71,27,26.81,28.16,19.86,34.74Z"/>
      <path class="cls-6" d="M30.71,170.54c-3.12-1.8-7.88,3.09-8.37,5.52s5.1,2.6,5.1,2.6l19.09-4.23S37.44,174.43,30.71,170.54Z"/>
      <path class="cls-7" d="M40.16,120.34c-20.53,3-26.71,20.36-22.19,34.37,5.52,17.14,19.25,19.76,34.88,19.47S40.16,120.34,40.16,120.34Z"/>
      <path class="cls-8" d="M6.88,101c3.71,6.52,9.41,38.08,11.88,53.32s1.81,17.19,1.81,17.19a3,3,0,0,0,3.1,3.53c3.58.06,4.09-2.63,4.22-9.35s.28-22.92-2.31-34.46S6.88,101,6.88,101Z"/>
      <path class="cls-9" d="M17.45,141.12s2.69,14.43,3.37,20.61.7,9.76.7,9.76-4.6,2.65-4.07,6.84,8.1,2.47,10.73,1.81,1.36-24.72.06-37.15l-1.95,5.57Z"/>
      <path class="cls-4" d="M55.14,29.47s12-14,17.71-14.36,7.32,14.62,2.25,23.6-8.78,9-8.78,9Z"/>
      <path class="cls-4" d="M61.57,71.59c-2.35,5.68-.17,14.72,6.9,22.45,5,5.41,17.64,26.52,20.73,44s-.74,35.63-28.54,38-28.44-16.25-30.18-27.25c-2.1-13.26-18.17-32.12-18.17-49.94s5.92-24.4,5.42-31.14S21.35,52.1,42.57,54.24,61.57,71.59,61.57,71.59Z"/>
      <path class="cls-4" d="M39.53,25.71C29.25,25.57,14.2,36.35,7,51.63c0,0,6,17.74,28.16,22.35S75.29,64.8,75.29,64.8,68.23,40.08,62,33.33,40.75,25.73,39.53,25.71Z"/>
      <path class="cls-10" d="M38,170.3c-6.37-3.23-5.38-24-24-54.73-5.84-9.65-8.51-24.12-8.51-24.12l4.93,1.48-3.7-8s9.1-9.51,11.06-17.18S49.11,62.88,53.18,71s4.56,23.66,4.56,23.66L51.2,89.85s3,5.19,4.36,15.38c0,0-13.48,2.63-20.88,18.91S38,170.3,38,170.3Z"/>
      <path class="cls-10" d="M5.44,50.62S9.59,61.64,17,70c3.44,3.88,22.39,13.51,38.55,7.8,0,0,14.75-6,22-13.27a36.75,36.75,0,0,1-10.69.08s3.7-1.07,5.51-3a167.84,167.84,0,0,1-16.86,3,60.88,60.88,0,0,1-12.74.19l-9.28-1.35s-9.67-4.78-13.86-9.35A15.32,15.32,0,0,0,22,59.63S16.17,57.61,5.44,50.62Z"/>
      <path class="cls-5" d="M38.07,68.66c-2.44-.29-5.62-4.83-5.66-8.12s13.47-2.16,13.75,2S41,69,38.07,68.66Z"/>
      <path class="cls-8" d="M39.41,116.28c-3.68,4.13-7.78,10-7.82,21s3.62,36,3.87,39.43,6.29,4.07,6.7-2.1,3-37.33,4.11-44.57.74-10.91-.9-14.64S41.2,114.26,39.41,116.28Z"/>
      <path class="cls-5" d="M31.63,141.12s1,15.33,1.65,21.51-.08,9-.08,9a9.39,9.39,0,0,0-2.42,7.19c.52,4.19,8.09,2.46,10.72,1.8s.66-18.5,3.33-37.23l-5.22,5.66Z"/>
      <path class="cls-4" d="M84.18,127.64c-13.08-14.36-38.71-5.84-44.9,7.75s-3.62,27.3,2.14,34.91S61,178,71.85,176.08s21.36-10.82,21.06-23.2C92.65,141.8,89.1,133,84.18,127.64Z"/>
      <path class="cls-11" d="M71.85,176.08s-14.24,2.5-20.65,4.14-10.52,2.14-12,.33,4-6.29,5.59-6.35,6.79,1.81,13.69,2.07S71.85,176.08,71.85,176.08Z"/>
      <path class="cls-10" d="M21,33.81c-1.69-4.16-1.76-12.53.9-18.71S27,8.19,28,8.8,32.71,27,32.71,27s-3.52,1.53-6.79,3.19A17.3,17.3,0,0,0,21,33.81Z"/>
      <path class="cls-12" d="M28.81,10.64s-3.08-.11-5.11,6.8a28.28,28.28,0,0,0,0,14,99.93,99.93,0,0,1,9-4.52s-.75-3.66-1.56-7.13S28.81,10.64,28.81,10.64Z"/>
      <path class="cls-10" d="M62,33.33S69.21,21,72.91,19.1c4.51-2.25,5.2,9.39,1.48,17.38-1.64,3.53-5.92,8.63-5.92,8.63S65,36.81,62,33.33Z"/>
      <path class="cls-5" d="M59.72,24.54a33.17,33.17,0,0,1,6-5.54c3.65-2.59,4.84-3.8,7.12-3.89s3.72,1.61,4.84,5.8.57,10.28-1.51,15.56-7.16,10-7.16,10l-.83-2a32.39,32.39,0,0,0,7-9.93c2.33-5.66,2.19-14.33-.4-15.52s-6.41,4.64-7.2,5.74S62,33.33,62,33.33s5-10.12,3.53-11.6S59.72,24.54,59.72,24.54Z"/>
      <path class="cls-12" d="M70.66,20.86c1.19-1,3.61-.13,3.36,4s-2.85,10-7,16.92a43.31,43.31,0,0,0-5-8.47s2.59-4.36,4.48-7S70.66,20.86,70.66,20.86Z"/>
      <path class="cls-10" d="M17,70A39.49,39.49,0,0,1,8,59.54s2.38,1.1,2,.37S17,70,17,70Z"/>
      <path class="cls-4" d="M89.31,144.86c10.5-5.75,25,1.83,27.27,23.37s-19.08,31.4-32.23,34.69-31.89,3-48-5.59-19.76-7.07-19.76-7.07,10-16.23,27.36-16.1,25.87,5.36,39.92-3.77c9.66-6.28,2.82-14,2.82-14Z"/>
      <path class="cls-10" d="M50.22,202.78c-5.12-.25-12.56-2.89-15.8-4.2a81,81,0,0,0-14.36-4.41,5.8,5.8,0,0,1,1.37-2.23s-1.25-.64-5.63-1c0,0,1.56-7.56,11.78-13.44s26.11-2.11,40.16-1.74c0,0-5.1,11.05-13.16,14.34,0,0,3.66,4.73,14.14,4.73C68.72,194.82,54.45,203,50.22,202.78Z"/>
      <path class="cls-8" d="M89,156.69s2.76,7-5.14,13.7-15.13,6.18-15.13,6.18a27.75,27.75,0,0,1-9,11.93s13.86,7,33.25-4.16,9.68-34.72,4.58-38.5S86.89,149.27,89,156.69Z"/>
      <path class="cls-7" d="M67.78,175.75a24.3,24.3,0,0,0,12.73-3.39c6.86-3.88,9.86-9.41,6.16-16a13.47,13.47,0,0,1-6.76,12.54c-7.71,4.62-12.47,4.29-21.72,3.7C54.17,172.36,43,172,43,172v2.18S56.87,175.61,67.78,175.75Z"/>
      <path class="cls-8" d="M59.67,77.59a37.52,37.52,0,0,0,7,15.79,131.7,131.7,0,0,1,16,27c5,11.19,5.16,12.31,5.16,12.31s-11.08-14.6-28.93-10.73S47.92,112,52,110.82s4.52-7,4.52-7l-1.48-7.9,7.81,5s-2.14-2.33-4-12S59.67,77.59,59.67,77.59Z"/>
      <g>
        <path d="M22.6,45.44s3.73-2.79,6.6.08.88,6.72.88,6.72a5.8,5.8,0,0,1-7.48-6.8Z"/>
        <path d="M29.68,53.31s3.86-5.75.34-8.64c-4.55-3.72-8.56,1.17-8.56,1.17s5.17-2.12,7.76.59S29.68,53.31,29.68,53.31Z"/>
        <path class="cls-2" d="M25.63,45.13a1.8,1.8,0,0,0-.18,3.34c1.6.81,2.45-1.13,2-2.13S26.3,44.94,25.63,45.13Z"/>
      </g>
      <g>
        <path d="M60.51,51.57S57.59,48,54.1,50s-2.52,6.3-2.52,6.3a5.8,5.8,0,0,0,8.93-4.74Z"/>
        <path d="M51.7,57.44S49.39,50.91,53.51,49c5.33-2.48,8,3.25,8,3.25S57,48.9,53.85,50.89,51.7,57.44,51.7,57.44Z"/>
        <path class="cls-2" d="M55,51a1.8,1.8,0,0,1-.66,3.28c-1.75.39-2.09-1.7-1.4-2.56S54.37,50.62,55,51Z"/>
      </g>
      <path class="cls-7" d="M55.42,122.12a29.37,29.37,0,0,0-15.18,11.46s5.95-8.53,10.06-13.39a1.64,1.64,0,0,0,.9,1.91C52.84,122.84,55.42,122.12,55.42,122.12Z"/>
      <path class="cls-13" d="M9.82,61.29A32.18,32.18,0,0,0,26,73.75C37.27,77.82,50,76.65,50,76.65S36,72.08,34.12,68.84s-2.62-4.53-2.62-4.53l-10-8a25.84,25.84,0,0,0,2.94,6.1s-6.39-3-11.93-6.36-6.41-4.47-6.41-4.47A109.09,109.09,0,0,0,14,62.71Z"/>
      <path class="cls-12" d="M55.53,77.79a44.64,44.64,0,0,1-18.79,1s9.72.58,14.31,3.54,6.69,12.34,6.69,12.34S57.45,83.74,55.53,77.79Z"/>
      <path class="cls-14" d="M43.93,73.79A6.19,6.19,0,0,1,38.77,73c-.35-.25-.61,0-.89.11a5.54,5.54,0,0,1-4.49-.18,1.25,1.25,0,0,1-.73-.71,6.09,6.09,0,0,0,4.11.56c.71-.17,1.25-.88,1.84-.92s.85.91,1.49,1.19a5.86,5.86,0,0,0,3.48.4C43.87,73.4,44.14,73.33,43.93,73.79Z"/>
    </g>
  </g>
</svg>
