<svg id="Layer_1" data-name="Layer 1" xmlns="http://www.w3.org/2000/svg" width="301.51" height="137.02" viewBox="0 0 301.51 137.02">
  <defs>
    <style>
      .cls-1 {
        fill: #231f20;
        opacity: 0.3;
      }

      .cls-2 {
        fill: #fff;
      }

      .cls-3 {
        fill: #726250;
      }

      .cls-4 {
        fill: #44362c;
      }

      .cls-5 {
        fill: #5e493b;
      }

      .cls-6 {
        fill: #fbfcfb;
      }

      .cls-7 {
        fill: #867b66;
      }

      .cls-8 {
        fill: #221f1f;
      }

      .cls-9 {
        fill: #d2d1d0;
      }

      .cls-10 {
        fill: #6e6454;
      }

      .cls-11 {
        fill: #a2947f;
      }
    </style>
  </defs>
  <g>
    <path class="cls-1" d="M157,137a21.57,21.57,0,0,1-5.08-.75L28.86,102.19l-10.43,1a5.82,5.82,0,0,1-.59,0,7.1,7.1,0,0,1-1.66-.19l-1.84-.43A11.77,11.77,0,0,1,5.25,91.26L4.37,14A9.16,9.16,0,0,1,12,4.84l2.08-.36a7.42,7.42,0,0,1,1.24-.11L136.77,8.26a11.32,11.32,0,0,1,11,11.37v2.72a30.59,30.59,0,0,1,7.82,2.53c7.36,3.56,14.08,9.3,18.42,13.49a9.06,9.06,0,0,1,1.19,1.38l91.26,7.52A13,13,0,0,1,278.28,60.1V69L295,70.92a7.29,7.29,0,0,1,6.47,7.24V84a11.07,11.07,0,0,1-8.7,10.85L273.42,99.2a12.19,12.19,0,0,1-9.22,11.61L162.79,136.38a21,21,0,0,1-5.18.64Z"/>
    <path class="cls-2" d="M152.66,132.64a21.57,21.57,0,0,1-5.08-.75L24.49,97.82l-10.43,1a5.82,5.82,0,0,1-.59,0,7.25,7.25,0,0,1-1.67-.19L10,98.24A11.77,11.77,0,0,1,.88,86.89L0,9.62A9.15,9.15,0,0,1,7.61.47L9.69.11A7.42,7.42,0,0,1,10.93,0L132.39,3.89a11.32,11.32,0,0,1,11,11.37V18a30.59,30.59,0,0,1,7.82,2.53c7.36,3.56,14.08,9.3,18.42,13.49a9.65,9.65,0,0,1,1.19,1.38l91.26,7.52a13,13,0,0,1,11.82,12.83v8.92l16.76,1.9a7.3,7.3,0,0,1,6.47,7.24v5.87a11.07,11.07,0,0,1-8.7,10.85l-19.39,4.31a12.18,12.18,0,0,1-9.22,11.61L158.42,132a21,21,0,0,1-5.18.64Z"/>
    <g>
      <path class="cls-3" d="M23.18,20.42l-2.36-4.21a1.63,1.63,0,0,1,0-1.65,1.59,1.59,0,0,1,1.44-.78l104.82,2.91v5.67a1.14,1.14,0,0,1-.37,0L24.58,21.26A1.63,1.63,0,0,1,23.18,20.42Z"/>
      <path class="cls-4" d="M129.54,17.54a1.65,1.65,0,0,1,0,1.61l-1.36,2.42a1.65,1.65,0,0,1-.43.48V16.7l.41,0A1.62,1.62,0,0,1,129.54,17.54Z"/>
      <path class="cls-5" d="M113.48,25l22-.26V15.26a3.43,3.43,0,0,0-3.34-3.45L11.28,7.93,12.46,69,30.77,67.6a7.89,7.89,0,0,1-2.62-5c-.09-.81-.14-1.64-.16-2.45a28.49,28.49,0,0,1,.73-7.18,5.87,5.87,0,0,1,3.24-4,17.47,17.47,0,0,1,1.66-.68,17.84,17.84,0,0,1,5.32-1,27.69,27.69,0,0,1-7.24-11,3.4,3.4,0,0,1,1.77-4.21,17.53,17.53,0,0,1,3.85-1.26,17.27,17.27,0,0,1,4.76-.29,5.58,5.58,0,0,1,4-2.38c7.83-.86,15.79-1.47,23.65-1.8C77.08,26,84.57,25.94,92,26.1A26.71,26.71,0,0,1,101.35,28a2.14,2.14,0,0,1,.07-1.47,2.19,2.19,0,0,1,2-1.39Zm13.25-2L24.58,21.89a2.26,2.26,0,0,1-2-1.16l-2.36-4.21a2.27,2.27,0,0,1,2-3.38l105.87,2.94a2.27,2.27,0,0,1,1.92,3.38l-1.36,2.42a2.33,2.33,0,0,1-1.18,1h0a2.29,2.29,0,0,1-.78.14Z"/>
      <path class="cls-3" d="M45.76,49l6.66-1.06c-.27-.19-.54-.38-.8-.59-.87-.69-1.72-1.43-2.52-2.18A45.17,45.17,0,0,1,42,36.62a5.47,5.47,0,0,1-.35-5.34l.09-.16a16.8,16.8,0,0,0-8,1.51,2.77,2.77,0,0,0-1.43,3.42,27.26,27.26,0,0,0,7.63,11.22A7.06,7.06,0,0,0,45.76,49Zm-2.5-3.13a.31.31,0,0,1-.27.36h0a.32.32,0,0,1-.32-.28c-.71-5-6.87-11.22-6.94-11.29a.33.33,0,0,1,0-.45.34.34,0,0,1,.46,0C36.41,34.43,42.53,40.63,43.26,45.82Z"/>
      <path class="cls-6" d="M49.53,44.66c.8.74,1.63,1.46,2.49,2.14a15.26,15.26,0,0,0,1.41,1h0a17.32,17.32,0,0,0,11.21,2.64l48.47-5a3.43,3.43,0,0,0,2.25-5.64c-.38-.45-.77-.89-1.18-1.34a50.88,50.88,0,0,0-8.22-7.2,25.2,25.2,0,0,0-14-4.53c-7.37-.16-14.84-.09-22.21.22-7.85.33-15.8.93-23.61,1.8a4.92,4.92,0,0,0-3.92,2.8,4.8,4.8,0,0,0,.31,4.71A44.61,44.61,0,0,0,49.53,44.66ZM65,47a.33.33,0,0,1,.29-.35l45.87-4.49a.33.33,0,0,1,.35.29.32.32,0,0,1-.28.35L65.33,47.3h0A.32.32,0,0,1,65,47ZM47.43,31.91a.32.32,0,0,1-.16-.42.32.32,0,0,1,.42-.17c.08,0,8.46,3.79,13.43,14.41a.32.32,0,0,1-.29.46.3.3,0,0,1-.28-.19C55.68,35.61,47.51,31.94,47.43,31.91Z"/>
      <path class="cls-4" d="M11.78,90.53a3.88,3.88,0,0,1-3-3.73L7.92,9.53A1.28,1.28,0,0,1,9,8.27L10.64,8l1.6,82.65Z"/>
      <path class="cls-4" d="M160.34,111.38l.25,0,.07,0a.28.28,0,0,0,.13,0,7,7,0,0,0,1.38-.18l99-22v5.48a4.27,4.27,0,0,1-3.23,4.14L156.48,124.33a13.41,13.41,0,0,1-3.09.39V110l5,1.17A8.83,8.83,0,0,0,160.34,111.38Z"/>
      <path class="cls-4" d="M152.76,124.71a12.81,12.81,0,0,1-3.07-.46L25.48,89.87V80.33l127.28,29.51Z"/>
      <polygon class="cls-4" points="24.84 89.83 13.52 90.93 12.88 90.78 12.62 77.34 24.84 80.18 24.84 89.83"/>
      <path class="cls-5" d="M12.89,69.73,160.34,99.3v11.43a7.56,7.56,0,0,1-1.77-.19L12.89,76.75Z"/>
      <path class="cls-6" d="M164.61,41.76a1.91,1.91,0,0,0-.47-2.06c-3.92-3.79-9.95-9-16.37-12.06a23.19,23.19,0,0,0-10.34-2.25l-24,.29-10,.12a1.56,1.56,0,0,0-1.44,1,1.53,1.53,0,0,0,.33,1.68,25.15,25.15,0,0,1,4,2.28A51.22,51.22,0,0,1,114.66,38q.61.68,1.2,1.35a4,4,0,0,1,1,2.62l2.29,2.13a2.6,2.6,0,0,0,1.94.72L162.88,43A1.93,1.93,0,0,0,164.61,41.76Zm-45.51-2a.32.32,0,0,1-.24.39h-.07a.32.32,0,0,1-.31-.25c-2.34-10.28-10.94-12-11-12.06a.32.32,0,0,1-.26-.37.33.33,0,0,1,.38-.26C107.67,27.22,116.67,29.05,119.1,39.74Zm41.52.06a.33.33,0,0,1-.31.34L122,41.75h0a.33.33,0,0,1-.32-.31.31.31,0,0,1,.3-.33l38.36-1.61A.33.33,0,0,1,160.62,39.8Z"/>
      <path class="cls-5" d="M161,110.7V99.3L289.21,74.46v5.2a3.17,3.17,0,0,1-2.49,3.11L162,110.55A7.18,7.18,0,0,1,161,110.7Z"/>
      <path class="cls-7" d="M266,70.88V55.73a5,5,0,0,0-4.55-4.93l-23.08-1.91c-13.12.73-26.39,1.76-39.46,3-17.37,1.73-34.9,4-52.13,6.71a6.22,6.22,0,0,0-5.09,4.78,49.05,49.05,0,0,0,1.16,26.4,81.8,81.8,0,0,0,26.36.08l93.23-14.86A4.19,4.19,0,0,0,266,70.88ZM156.65,89.38a.31.31,0,0,1-.22.39h-.09a.31.31,0,0,1-.3-.24,48.15,48.15,0,0,1,0-22.75.32.32,0,0,1,.39-.22.31.31,0,0,1,.22.39A47.7,47.7,0,0,0,156.65,89.38ZM262.91,53.05a.33.33,0,0,1-.28.36L160.33,65.12h0a.32.32,0,0,1-.32-.28.32.32,0,0,1,.28-.35l102.3-11.72A.33.33,0,0,1,262.91,53.05Z"/>
      <path class="cls-7" d="M146.66,58a6.85,6.85,0,0,0-5.61,5.27,49.45,49.45,0,0,0-1.28,9.9,50.1,50.1,0,0,0,2.35,16.52l-1.55-.28L86.8,79a38.22,38.22,0,0,1,.43-23.15,5.5,5.5,0,0,1,4.3-3.67c13.5-2.27,27.26-4.12,40.88-5.5,14.57-1.47,29.38-2.44,44-2.88l57.47,4.74c-11.67.7-23.44,1.63-35.06,2.78C181.45,53,163.9,55.29,146.66,58Z"/>
      <path class="cls-4" d="M14.88,69.48l16.63-1.3a8.27,8.27,0,0,0,3.13,1.33l105.8,20.55a83.41,83.41,0,0,0,15.8,1.52,82.9,82.9,0,0,0,13-1l93.23-14.86a4.82,4.82,0,0,0,4-3.89l20.89,2.37L160.67,98.71Z"/>
      <path class="cls-6" d="M132.35,46c12.78-1.29,25.74-2.2,38.6-2.7l-6.26-.52a2.52,2.52,0,0,1-1.78.83L121.08,45.5H121a3.34,3.34,0,0,1-2.27-.89l-1.93-1.8a4,4,0,0,1-3.57,3.27l-48.46,5c-.65.06-1.29.1-1.93.1a17.8,17.8,0,0,1-9.6-2.79l-7.33,1.17a7.41,7.41,0,0,1-1.24.1,7.72,7.72,0,0,1-5-1.85,17.22,17.22,0,0,0-5.78,1c-.55.19-1.08.42-1.6.66a5.22,5.22,0,0,0-2.89,3.58,28.09,28.09,0,0,0-.71,7c0,.79.07,1.6.16,2.39a7.25,7.25,0,0,0,3,5.11l0,0a7.42,7.42,0,0,0,2.93,1.26l51.35,10a38.53,38.53,0,0,1,.52-23.21,6.13,6.13,0,0,1,4.79-4.1C104.94,49.27,118.71,47.42,132.35,46ZM85.21,56.84a.32.32,0,0,1-.31.28h0l-49-5.93a.32.32,0,1,1,.08-.63l49,5.92A.32.32,0,0,1,85.21,56.84Z"/>
      <path class="cls-8" d="M65.27,46.66l45.87-4.49a.33.33,0,0,1,.35.29.32.32,0,0,1-.28.35L65.33,47.3h0A.32.32,0,0,1,65,47,.33.33,0,0,1,65.27,46.66Z"/>
      <path class="cls-8" d="M47.27,31.49a.32.32,0,0,1,.42-.17c.08,0,8.46,3.79,13.43,14.41a.32.32,0,0,1-.29.46.3.3,0,0,1-.28-.19c-4.87-10.39-13-14.06-13.12-14.09A.32.32,0,0,1,47.27,31.49Z"/>
      <path class="cls-8" d="M160.31,40.14,122,41.75h0a.33.33,0,0,1-.32-.31.31.31,0,0,1,.3-.33l38.36-1.61a.32.32,0,1,1,0,.64Z"/>
      <path class="cls-8" d="M118.86,40.13h-.07a.32.32,0,0,1-.31-.25c-2.34-10.28-10.94-12-11-12.06a.32.32,0,0,1-.26-.37.33.33,0,0,1,.38-.26c.09,0,9.09,1.85,11.52,12.54A.32.32,0,0,1,118.86,40.13Z"/>
      <path class="cls-8" d="M43,46.18h0a.32.32,0,0,1-.32-.28c-.71-5-6.87-11.22-6.94-11.29a.33.33,0,0,1,0-.45.34.34,0,0,1,.46,0c.26.26,6.38,6.46,7.11,11.65A.31.31,0,0,1,43,46.18Z"/>
      <path class="cls-8" d="M262.63,53.41,160.33,65.12h0a.32.32,0,0,1-.32-.28.32.32,0,0,1,.28-.35l102.3-11.72a.33.33,0,0,1,.35.28A.33.33,0,0,1,262.63,53.41Z"/>
      <path class="cls-8" d="M84.9,57.12h0l-49-5.93a.32.32,0,1,1,.08-.63l49,5.92a.32.32,0,0,1,0,.64Z"/>
      <path class="cls-8" d="M261.76,89l25.1-5.59a3.8,3.8,0,0,0,3-3.73V73.79l-23.24-2.64c0-.09,0-.18,0-.27V55.73a5.62,5.62,0,0,0-5.13-5.57L165.1,42.22a2.29,2.29,0,0,0,.1-.23,2.54,2.54,0,0,0-.61-2.75c-4-3.82-10-9-16.54-12.18a24.07,24.07,0,0,0-10.63-2.31l-1.3,0V15.26a4.08,4.08,0,0,0-4-4.09L10.93,7.28l-2.07.37A1.88,1.88,0,0,0,7.29,9.54l.87,77.27a4.5,4.5,0,0,0,3.48,4.34l1.83.43h.06l11.6-1.13,124.39,34.42a13.68,13.68,0,0,0,3.53.5h.19a14,14,0,0,0,3.4-.42L258.05,99.37a4.9,4.9,0,0,0,3.71-4.76ZM153.39,110l5,1.17a8.83,8.83,0,0,0,1.92.22l.25,0,.07,0a.28.28,0,0,0,.13,0,7,7,0,0,0,1.38-.18l99-22v5.48a4.27,4.27,0,0,1-3.23,4.14L156.48,124.33a13.41,13.41,0,0,1-3.09.39ZM25.48,80.33l127.28,29.51v14.87a12.81,12.81,0,0,1-3.07-.46L25.48,89.87ZM12.89,76.75v-7L160.34,99.3v11.43a7.56,7.56,0,0,1-1.77-.19Zm-.27.59,12.22,2.84v9.65l-11.32,1.1-.64-.15Zm-.38,13.29-.46-.1a3.88,3.88,0,0,1-3-3.73L7.92,9.53A1.28,1.28,0,0,1,9,8.27L10.64,8ZM135.48,24.78l-22,.26-10,.12a2.19,2.19,0,0,0-2,1.39,2.14,2.14,0,0,0-.07,1.47A26.71,26.71,0,0,0,92,26.1c-7.39-.16-14.88-.09-22.26.22-7.86.33-15.82.94-23.65,1.8a5.58,5.58,0,0,0-4,2.38,17.27,17.27,0,0,0-4.76.29,17.53,17.53,0,0,0-3.85,1.26,3.4,3.4,0,0,0-1.77,4.21,27.69,27.69,0,0,0,7.24,11,17.84,17.84,0,0,0-5.32,1,17.47,17.47,0,0,0-1.66.68,5.87,5.87,0,0,0-3.24,4A28.49,28.49,0,0,0,28,60.1c0,.81.07,1.64.16,2.45a7.89,7.89,0,0,0,2.62,5L12.46,69,11.28,7.93l120.86,3.88a3.43,3.43,0,0,1,3.34,3.45ZM52.42,47.89,45.76,49a7.06,7.06,0,0,1-5.83-1.68A27.26,27.26,0,0,1,32.3,36.05a2.77,2.77,0,0,1,1.43-3.42,16.8,16.8,0,0,1,8-1.51l-.09.16A5.47,5.47,0,0,0,42,36.62a45.17,45.17,0,0,0,7.13,8.5c.8.75,1.65,1.49,2.52,2.18C51.88,47.51,52.15,47.7,52.42,47.89ZM52,46.8c-.86-.68-1.69-1.4-2.49-2.14a44.61,44.61,0,0,1-7-8.39,4.8,4.8,0,0,1-.31-4.71,4.92,4.92,0,0,1,3.92-2.8c7.81-.87,15.76-1.47,23.61-1.8,7.37-.31,14.84-.38,22.21-.22a25.2,25.2,0,0,1,14,4.53,50.88,50.88,0,0,1,8.22,7.2c.41.45.8.89,1.18,1.34a3.43,3.43,0,0,1-2.25,5.64l-48.47,5a17.32,17.32,0,0,1-11.21-2.64h0A15.26,15.26,0,0,1,52,46.8Zm112.59-5A1.93,1.93,0,0,1,162.88,43l-41.82,1.84a2.6,2.6,0,0,1-1.94-.72L116.83,42a4,4,0,0,0-1-2.62q-.58-.68-1.2-1.35a51.22,51.22,0,0,0-8.32-7.29,25.15,25.15,0,0,0-4-2.28,1.53,1.53,0,0,1-.33-1.68,1.56,1.56,0,0,1,1.44-1l10-.12,24-.29a23.19,23.19,0,0,1,10.34,2.25c6.42,3.1,12.45,8.27,16.37,12.06A1.91,1.91,0,0,1,164.61,41.76ZM171,43.34c-12.86.5-25.82,1.41-38.6,2.7-13.64,1.38-27.41,3.23-40.93,5.5a6.13,6.13,0,0,0-4.79,4.1,38.53,38.53,0,0,0-.52,23.21l-51.35-10a7.42,7.42,0,0,1-2.93-1.26l0,0a7.25,7.25,0,0,1-3-5.11c-.09-.79-.14-1.6-.16-2.39a28.09,28.09,0,0,1,.71-7,5.22,5.22,0,0,1,2.89-3.58c.52-.24,1.05-.47,1.6-.66a17.22,17.22,0,0,1,5.78-1,7.72,7.72,0,0,0,5,1.85,7.41,7.41,0,0,0,1.24-.1l7.33-1.17a17.8,17.8,0,0,0,9.6,2.79c.64,0,1.28,0,1.93-.1l48.46-5a4,4,0,0,0,3.57-3.27l1.93,1.8a3.34,3.34,0,0,0,2.27.89h.13l41.83-1.85a2.52,2.52,0,0,0,1.78-.83Zm62.93,5.19c-11.67.7-23.44,1.63-35.06,2.78-17.37,1.72-34.92,4-52.16,6.71a6.85,6.85,0,0,0-5.61,5.27,49.45,49.45,0,0,0-1.28,9.9,50.1,50.1,0,0,0,2.35,16.52l-1.55-.28L86.8,79a38.22,38.22,0,0,1,.43-23.15,5.5,5.5,0,0,1,4.3-3.67c13.5-2.27,27.26-4.12,40.88-5.5,14.57-1.47,29.38-2.44,44-2.88ZM266,70.88a4.19,4.19,0,0,1-3.56,4.17L169.19,89.91a81.8,81.8,0,0,1-26.36-.08,49.05,49.05,0,0,1-1.16-26.4,6.22,6.22,0,0,1,5.09-4.78c17.23-2.73,34.76-5,52.13-6.71,13.07-1.29,26.34-2.32,39.46-3l23.08,1.91A5,5,0,0,1,266,55.73Zm21.45,3.28L160.67,98.71,14.88,69.48l16.63-1.3a8.27,8.27,0,0,0,3.13,1.33l105.8,20.55a83.41,83.41,0,0,0,15.8,1.52,82.9,82.9,0,0,0,13-1l93.23-14.86a4.82,4.82,0,0,0,4-3.89ZM162,110.55a7.18,7.18,0,0,1-1.05.15V99.3L289.21,74.46v5.2a3.17,3.17,0,0,1-2.49,3.11Z"/>
      <path class="cls-8" d="M24.58,21.89,126.73,23h0a2.29,2.29,0,0,0,.78-.14h0a2.33,2.33,0,0,0,1.18-1l1.36-2.42a2.27,2.27,0,0,0-1.92-3.38L22.31,13.14a2.27,2.27,0,0,0-2,3.38l2.36,4.21A2.26,2.26,0,0,0,24.58,21.89ZM127.75,16.7l.41,0a1.62,1.62,0,0,1,1.38.82,1.65,1.65,0,0,1,0,1.61l-1.36,2.42a1.65,1.65,0,0,1-.43.48ZM24.58,21.26a1.63,1.63,0,0,1-1.4-.84l-2.36-4.21a1.63,1.63,0,0,1,0-1.65,1.59,1.59,0,0,1,1.44-.78l104.82,2.91v5.67a1.14,1.14,0,0,1-.37,0Z"/>
      <path class="cls-8" d="M156.43,89.77h-.09a.31.31,0,0,1-.3-.24,48.15,48.15,0,0,1,0-22.75.32.32,0,0,1,.39-.22.31.31,0,0,1,.22.39,47.7,47.7,0,0,0,0,22.42A.31.31,0,0,1,156.43,89.77Z"/>
      <path class="cls-9" d="M49.53,44.66c.8.74,1.63,1.46,2.49,2.14a15.26,15.26,0,0,0,1.41,1h0a17.32,17.32,0,0,0,11.21,2.64l48.47-5A3.4,3.4,0,0,0,116,43.31a3.36,3.36,0,0,0-.2-2.92L63.13,44.74s-6-11.63-14.61-16.23l-2.4.25a4.92,4.92,0,0,0-3.92,2.8,4.8,4.8,0,0,0,.31,4.71A44.61,44.61,0,0,0,49.53,44.66ZM65,47a.33.33,0,0,1,.29-.35l45.87-4.49a.33.33,0,0,1,.35.29.32.32,0,0,1-.28.35L65.33,47.3h0A.32.32,0,0,1,65,47ZM47.43,31.91a.32.32,0,0,1-.16-.42.32.32,0,0,1,.42-.17c.08,0,8.46,3.79,13.43,14.41a.32.32,0,0,1-.29.46.3.3,0,0,1-.28-.19C55.68,35.61,47.51,31.94,47.43,31.91Z"/>
      <g>
        <path class="cls-10" d="M169.19,89.91l93.23-14.86A4.19,4.19,0,0,0,266,70.88V55.73a5,5,0,0,0-3.31-4.65L157.83,63.35l-15.09-2.23a6.2,6.2,0,0,0-1.07,2.31,49.05,49.05,0,0,0,1.16,26.4A81.8,81.8,0,0,0,169.19,89.91ZM160,64.84a.32.32,0,0,1,.28-.35l102.3-11.72a.33.33,0,0,1,.35.28.33.33,0,0,1-.28.36L160.33,65.12h0A.32.32,0,0,1,160,64.84ZM156,89.54a48.14,48.14,0,0,1,0-22.75.32.32,0,0,1,.39-.22.31.31,0,0,1,.22.39,47.7,47.7,0,0,0,0,22.42.31.31,0,0,1-.22.39h-.09A.31.31,0,0,1,156,89.54Z"/>
        <path class="cls-10" d="M85.86,61.09a38.6,38.6,0,0,1,1.37-5.25,5.57,5.57,0,0,1,1.94-2.65L142,61a7,7,0,0,0-1,2.28,49.45,49.45,0,0,0-1.28,9.9,50.1,50.1,0,0,0,2.35,16.52l-1.55-.28L86.8,79A38.6,38.6,0,0,1,85.86,61.09Z"/>
      </g>
      <path class="cls-9" d="M106.34,30.75A51.22,51.22,0,0,1,114.66,38q.61.68,1.2,1.35a4,4,0,0,1,1,2.62l2.29,2.13a2.6,2.6,0,0,0,1.94.72L162.88,43a1.93,1.93,0,0,0,1.26-3.32c-.85-.82-1.82-1.72-2.86-2.64L120.52,39.5c-.13-6.67-6.89-11.34-11.53-13.77l-5.54.07a1.56,1.56,0,0,0-1.44,1,1.53,1.53,0,0,0,.33,1.68A25.15,25.15,0,0,1,106.34,30.75Zm15.28,10.69a.31.31,0,0,1,.3-.33l38.36-1.61a.32.32,0,1,1,0,.64L122,41.75h0A.33.33,0,0,1,121.62,41.44Zm-14.42-14a.33.33,0,0,1,.38-.26c.09,0,9.09,1.85,11.52,12.54a.32.32,0,0,1-.24.39h-.07a.32.32,0,0,1-.31-.25c-2.34-10.28-10.94-12-11-12.06A.32.32,0,0,1,107.2,27.46Z"/>
      <path class="cls-9" d="M28.63,60.09c0,.79.07,1.6.16,2.39a7.25,7.25,0,0,0,3,5.11l0,0a7.42,7.42,0,0,0,2.93,1.26l51.35,10A39.73,39.73,0,0,1,85.23,61c.11-.56.24-1.13.38-1.69h0c.09-.37.18-.73.28-1.09.14-.54.29-1.08.45-1.61h0c.09-.31.18-.63.29-.94a6.13,6.13,0,0,1,4.79-4.1c13.52-2.27,27.29-4.12,40.93-5.5,12.78-1.29,25.74-2.2,38.6-2.7l-6.26-.52a2.52,2.52,0,0,1-1.78.83L121.08,45.5H121a3.34,3.34,0,0,1-2.27-.89l-1.93-1.8a4,4,0,0,1-3.57,3.27l-48.46,5c-.65.06-1.29.1-1.93.1a17.8,17.8,0,0,1-9.6-2.79l-7.33,1.17a7.41,7.41,0,0,1-1.24.1,7.72,7.72,0,0,1-5-1.85,17.22,17.22,0,0,0-5.78,1c-.55.19-1.08.42-1.6.66a5,5,0,0,0-1.42,1h0a4.88,4.88,0,0,0-.52.59l-.05,0h0a5.07,5.07,0,0,0-.89,1.89A28.09,28.09,0,0,0,28.63,60.09ZM84,56.33l-3.76-.41,3.75.45h0l.9.11a.32.32,0,0,1,.28.36.31.31,0,0,1-.31.28h0L84,57h0L54.81,53.48h0L35.88,51.19a.32.32,0,0,1-.21-.12h0a.33.33,0,0,1-.07-.23.32.32,0,0,1,.36-.28l21.69,2.62,49.55-5.24L86.34,52.05A5.47,5.47,0,0,0,84,56.33Z"/>
      <path class="cls-4" d="M30.74,13.37l-8.43-.23a2.27,2.27,0,0,0-2,3.38l2.36,4.21a2.26,2.26,0,0,0,2,1.16L37.27,22l5.66,7.5h0a5.56,5.56,0,0,0-.85,1,17.27,17.27,0,0,0-4.76.29,17.53,17.53,0,0,0-3.85,1.26,3.4,3.4,0,0,0-1.77,4.21,27.69,27.69,0,0,0,7.24,11,17.84,17.84,0,0,0-5.32,1,17.47,17.47,0,0,0-1.66.68,5.87,5.87,0,0,0-3.24,4A28.49,28.49,0,0,0,28,60.1c0,.81.07,1.64.16,2.45a7.89,7.89,0,0,0,2.62,5L12.46,69,11.28,7.93,27,8.44Z"/>
      <g>
        <path class="cls-11" d="M233.88,48.53c-3.61.21-7.23.46-10.86.72l-53.63-5.19c2.34-.09,4.69-.2,7-.27Z"/>
        <path class="cls-11" d="M262.63,53.41a.33.33,0,0,0,.28-.36.33.33,0,0,0-.35-.28l-1.43.17h0l-34.34-3.32q5.79-.4,11.56-.73l23.08,1.91A5,5,0,0,1,266,55.73V70.88a4.2,4.2,0,0,1-.8,2.46l-3.93-19.77Z"/>
      </g>
    </g>
  </g>
</svg>
