<svg id="Layer_1" data-name="Layer 1" xmlns="http://www.w3.org/2000/svg" width="199.36" height="226.9" viewBox="0 0 199.36 226.9">
  <defs>
    <style>
      .cls-1 {
        opacity: 0.5;
      }

      .cls-2 {
        fill: #d80e82;
      }

      .cls-2, .cls-3 {
        stroke: #a02d61;
      }

      .cls-2, .cls-3, .cls-4, .cls-6 {
        stroke-miterlimit: 10;
      }

      .cls-2, .cls-3, .cls-6 {
        stroke-width: 0.5px;
      }

      .cls-3 {
        fill: #f55b9c;
      }

      .cls-4, .cls-5 {
        fill: #f2c900;
      }

      .cls-4 {
        stroke: #cea809;
        stroke-width: 0.25px;
      }

      .cls-6 {
        fill: #fee600;
        stroke: #dbc105;
      }

      .cls-7 {
        fill: #fff;
      }
    </style>
  </defs>
  <g>
    <g class="cls-1">
      <path d="M119.83,89.57c-.1-.47-.2-.95-.29-1.41-.72-3.54-1.38-6.78-2-9.86q-1.23,2.08-2.3,4.23a48,48,0,0,0-2.18,5.25l-.21.6a18.41,18.41,0,0,0-1.1,4.18c-.1.5-.18,1.11-.25,1.76a9.08,9.08,0,0,1,.89,1.74c1.17,3,3.71,6.39,6.37,9.87,1,1.31,2,2.64,3,4-.21-4.23-.59-9.45-1.17-16.43C120.32,92.14,120.07,90.84,119.83,89.57Z"/>
      <path d="M175.55,10A42.3,42.3,0,0,0,147.78,0a44.62,44.62,0,0,0-11.31,1.44c-.9.19-1.73.4-2.54.63-19.28,5.45-22.27,25.22-23.55,33.66a133.81,133.81,0,0,0-1.63,18.35c0,2.56,0,5.05.13,7.54a49.36,49.36,0,0,0-8.16,27.11,52.05,52.05,0,0,1,4.35,23.45c1.08,2.71,2.3,5.31,3.31,7.34l.39.79a46.39,46.39,0,0,0,5.6,9.31c-.19,1.29-.4,2.67-.63,4.17-.46,2.94-1,6.37-1.59,10.64a1.11,1.11,0,0,1,0,.17c-.29,2.58-.86,5.54-1.45,8.67-1.92,10.08-4.1,21.5.15,31.41a26,26,0,0,0,5.74,9.08c2.29,3,11.09,12.83,27.94,12.84h0c.78,0,1.57,0,2.39-.07a47.59,47.59,0,0,0,6.14-.75c26.91-5,29.41-29.64,31.42-49.44l.48-4.72c1.52-15.32,3.1-31.16,7.55-45.77a165.87,165.87,0,0,0,6.83-43.74C199.92,43.17,190.81,23.18,175.55,10Zm10.77,94c-4.65,15.23-6.26,31.4-7.81,47-.16,1.57-.31,3.14-.47,4.7-2,19.74-4.11,39.62-26.17,43.73a40.81,40.81,0,0,1-5.31.65c-16.37.9-24.14-9.23-25.07-10.54a19.22,19.22,0,0,1-4.65-7.26c-4.79-10.94.47-26,1.72-36.94,1.17-8.31,2.07-13.46,2.65-17.89-3.28-2.94-5.18-7.07-7-10.8h0a71.25,71.25,0,0,1-4.62-11.27.14.14,0,0,0,0-.06c-.31-.87-7.67-22.2,5-40.56a.22.22,0,0,1,0-.08c.27-.49.56-.94.84-1.41-.23-2.92-.31-5.9-.25-9a125.25,125.25,0,0,1,1.56-17.52c1.81-12,5.3-24.56,18.91-28.41.75-.21,1.51-.4,2.27-.55,11.47-3,24.45-.6,33.35,7.11,13.83,12,22.09,30,21.55,47.06A159.4,159.4,0,0,1,186.32,104Z"/>
      <path d="M88.24,98.61c-.57,3.07-1.23,6.32-1.95,9.86-.1.46-.19.94-.29,1.4q-.36,1.91-.75,3.93c-.58,7-1,12.21-1.18,16.43,1-1.35,2-2.69,3-4,2.65-3.49,5.19-6.83,6.37-9.88a9.33,9.33,0,0,1,.88-1.73c-.07-.65-.15-1.27-.25-1.76a18.11,18.11,0,0,0-1.1-4.19l-.21-.59a43.67,43.67,0,0,0-2.18-5.25Q89.49,100.7,88.24,98.61Z"/>
      <path d="M100.72,88.73A46.88,46.88,0,0,0,97,81.93c.13-2.49.17-5,.12-7.48A130.76,130.76,0,0,0,95.44,56c-1.27-8.45-4.27-28.21-23.54-33.67-.81-.23-1.64-.43-2.54-.62a44.68,44.68,0,0,0-11.31-1.44,42.3,42.3,0,0,0-27.77,10C15,43.49,5.91,63.47,6.5,82.42a165.87,165.87,0,0,0,6.82,43.74c4.46,14.62,6,30.46,7.56,45.78l.47,4.71c2,19.79,4.51,44.43,31.43,49.44a49.26,49.26,0,0,0,6.13.75q1.23.06,2.4.06h0c16.86,0,25.65-9.83,28-12.83A26,26,0,0,0,95,205c4.25-9.91,2.08-21.33.16-31.41-.6-3.13-1.16-6.09-1.46-8.68a.88.88,0,0,0,0-.16c-.6-4.27-1.13-7.71-1.58-10.64-.23-1.5-.45-2.88-.64-4.17a45.93,45.93,0,0,0,5.6-9.31l.4-.8a78.45,78.45,0,0,0,5-12.23,57.19,57.19,0,0,0,2.62-15.41c-.64-1.63-1.24-3.3-1.7-4.89A58.8,58.8,0,0,1,100.72,88.73Zm-4.43,36.88a.14.14,0,0,1,0,.06,69.57,69.57,0,0,1-4.62,11.27h0c-1.85,3.74-3.75,7.86-7,10.81.57,4.42,1.48,9.57,2.65,17.89,1.24,10.92,6.51,26,1.72,36.94a19.38,19.38,0,0,1-4.65,7.25c-.94,1.32-8.71,11.45-25.07,10.55a42.16,42.16,0,0,1-5.31-.65c-22.07-4.11-24.17-24-26.17-43.73-.16-1.57-.32-3.13-.47-4.7-1.56-15.64-3.17-31.8-7.81-47a159.4,159.4,0,0,1-6.55-42c-.53-17,7.73-35.08,21.56-47.06C43.42,27.44,56.4,25,67.87,28c.76.16,1.51.34,2.27.56C83.74,32.45,87.23,45,89.05,57A125.23,125.23,0,0,1,90.6,74.52c.07,3.15,0,6.12-.24,9,.28.46.57.92.84,1.4a.22.22,0,0,0,0,.08C104,103.41,96.6,124.75,96.29,125.61Z"/>
    </g>
    <g>
      <g>
        <path class="cls-2" d="M164.84,14.85C155.71,6.94,142.29,4.56,130.62,8c-14.45,4.21-18.4,17.14-20.33,29.76-3.21,21-1.08,31.47,2.78,50.44.42,2.08.87,4.26,1.33,6.57,2.21,24.57,1.78,27.37-.31,40.79-.46,3-1,6.34-1.59,10.62-.32,2.74-.89,5.78-1.5,9-2.21,11.63-5,25.56,4,34.4.93,1.31,8.71,11.44,25.07,10.54a40.4,40.4,0,0,0,5.31-.65c22.06-4.11,24.16-24,26.17-43.73.16-1.56.31-3.13.47-4.7,1.56-15.63,3.17-31.8,7.81-47a159.81,159.81,0,0,0,6.55-42C186.93,44.86,178.67,26.83,164.84,14.85Z"/>
        <path class="cls-3" d="M181.42,62c.58-17.23-7.68-34.9-20.29-46.46-8-7.35-20.44-10.45-31.91-7.2-13.6,3.85-17.1,16.43-18.91,28.41-3.5,23.07-.65,33.25,3.8,56.8,2.52,30.2,1.37,27.77-2,51.83-1.47,12.93-8.58,31.66,2,42.48,0,0,8.61,13.39,28.18,10s22.22-20.2,24.46-42.21c1.77-17.4,3.21-35.13,8.25-51.95A163,163,0,0,0,181.42,62Z"/>
        <path class="cls-4" d="M107.7,116.64c2.09,4.18,4.21,8.87,8.29,11.82a3.3,3.3,0,0,0,1.22.63c4.42,1,3.88-5.85,3.61-7.85a18.94,18.94,0,0,0-1.12-5c-.7-1.64-2-2.89-3-4.37l-.1-.15c-1.34-2-2.82-3.93-4.25-5.82-2.65-3.48-5.2-6.83-6.37-9.87-2.8-6.84-3.56,2.85-3.35,4.62.55,4.57,4.24,13.23,4.24,13.23Z"/>
        <path class="cls-4" d="M169.51,97.05s-1.48,5.12-1.49,5.13a77.33,77.33,0,0,1-5,12.53c-1.83,3.73-5.05,7.81-5.59,11.91-.25,1.92.32,4.29,2.77,4.48,8,.64,7.63-7.87,8.9-12.73.22-.85.82-4.69,1-5.6C172,104.4,170.57,86.5,169.51,97.05Z"/>
        <rect class="cls-5" x="134.58" y="35.22" width="4.29" height="7.06" rx="1.66" transform="translate(4.45 -13.18) rotate(5.61)"/>
        <path class="cls-6" d="M107.69,116.52a68.53,68.53,0,0,1-2.61-12.43,47.54,47.54,0,0,1,.25-11.53,17.42,17.42,0,0,1,1.1-4.18l.2-.6a48,48,0,0,1,2.18-5.25c5.11-10.4,13.62-19.55,21.52-27.93,1.76-1.87,4.27-3.77,6.39-3.61.51,0,3.21.16,12.3,10.88,10.45,11.4,17.32,24.64,19.53,31.94a55.32,55.32,0,0,1,1.94,10.53,28,28,0,0,1-.57,9.59s2.84-12,3.1-15.44c1-13.18-1.64-19.89-4.84-26-3.86-7.42-12.24-22-27.12-31.49a7.79,7.79,0,0,0-3.64-1.17,7.93,7.93,0,0,0-3.94.73,58.86,58.86,0,0,0-25.32,24.15.56.56,0,0,0,0,.08c-12.72,18.36-5.35,39.69-5,40.56a.14.14,0,0,1,0,.06,70.87,70.87,0,0,0,4.62,11.27Z"/>
      </g>
      <g>
        <path class="cls-2" d="M28.05,35.16c9.13-7.91,22.54-10.29,34.22-6.89C76.72,32.47,80.67,45.41,82.6,58c3.21,21,1.08,31.47-2.78,50.44-.43,2.08-.87,4.26-1.33,6.57-2.21,24.57-1.78,27.37.31,40.79.46,3,1,6.34,1.59,10.62.32,2.73.89,5.77,1.5,9,2.21,11.63,5,25.55-4,34.39-.93,1.32-8.71,11.45-25.07,10.55a42.16,42.16,0,0,1-5.31-.65c-22.06-4.11-24.17-24-26.17-43.73-.16-1.57-.31-3.13-.47-4.7-1.56-15.64-3.17-31.8-7.81-47a159.4,159.4,0,0,1-6.55-42C6,65.17,14.22,47.14,28.05,35.16Z"/>
        <path class="cls-3" d="M11.47,82.26C10.89,65,19.14,47.35,31.76,35.8c8-7.36,20.43-10.45,31.91-7.2C77.27,32.45,80.77,45,82.58,57c3.5,23.08.65,33.25-3.8,56.8-2.53,30.21-1.37,27.78,2,51.84,1.47,12.92,8.57,31.66-2,42.48,0,0-8.61,13.38-28.18,10s-22.22-20.19-24.46-42.2c-1.77-17.4-3.21-35.14-8.25-51.95A163,163,0,0,1,11.47,82.26Z"/>
        <path class="cls-4" d="M85.18,136.94c-2.08,4.19-4.2,8.88-8.28,11.83a3.3,3.3,0,0,1-1.22.63c-4.42,1-3.88-5.85-3.61-7.86a18.87,18.87,0,0,1,1.12-5c.7-1.64,2-2.89,3-4.37l.1-.15c1.34-2,2.82-3.93,4.25-5.82,2.65-3.49,5.19-6.83,6.37-9.88,2.8-6.83,3.56,2.85,3.35,4.62-.55,4.58-4.24,13.23-4.24,13.23Z"/>
        <path class="cls-4" d="M23.38,117.35s1.48,5.13,1.49,5.14a76.43,76.43,0,0,0,5,12.53c1.83,3.73,5,7.81,5.58,11.91.26,1.91-.31,4.29-2.76,4.48-8,.64-7.63-7.87-8.9-12.74-.22-.84-.82-4.68-1-5.59C20.92,124.71,22.32,106.8,23.38,117.35Z"/>
        <rect class="cls-5" x="54.02" y="55.53" width="4.29" height="7.06" rx="1.66" transform="translate(117.83 112.35) rotate(174.39)"/>
        <path class="cls-6" d="M85.2,136.82a68.38,68.38,0,0,0,2.6-12.43,47,47,0,0,0-.24-11.52,17.62,17.62,0,0,0-1.1-4.19l-.2-.59a45.42,45.42,0,0,0-2.19-5.25C79,92.44,70.45,83.28,62.56,74.91,60.8,73,58.28,71.14,56.17,71.3c-.51,0-3.21.16-12.3,10.88-10.45,11.4-17.33,24.64-19.53,31.94a55.32,55.32,0,0,0-1.94,10.53,28.2,28.2,0,0,0,.56,9.59s-2.83-12-3.09-15.44c-1-13.19,1.64-19.9,4.84-26,3.86-7.42,12.24-22,27.12-31.49a7.8,7.8,0,0,1,3.64-1.18,7.94,7.94,0,0,1,3.94.74A58.81,58.81,0,0,1,84.73,85a.56.56,0,0,0,0,.08c12.71,18.36,5.35,39.7,5,40.56,0,0,0,0,0,.06a70.63,70.63,0,0,1-4.63,11.27Z"/>
      </g>
    </g>
    <g>
      <path class="cls-7" d="M113.36,89.57c-.1-.47-.2-.95-.29-1.41-.72-3.54-1.38-6.78-2-9.86q-1.23,2.08-2.3,4.23a48,48,0,0,0-2.18,5.25l-.2.6a17.42,17.42,0,0,0-1.1,4.18,14.88,14.88,0,0,0-.25,1.76,9.15,9.15,0,0,1,.88,1.74c1.17,3,3.72,6.39,6.37,9.87,1,1.31,2,2.64,3,4-.2-4.23-.59-9.45-1.17-16.43C113.85,92.14,113.6,90.84,113.36,89.57Z"/>
      <path class="cls-7" d="M169.08,10A42.3,42.3,0,0,0,141.31,0,44.62,44.62,0,0,0,130,1.44c-.89.19-1.73.4-2.54.63-19.28,5.45-22.27,25.22-23.55,33.66a132.13,132.13,0,0,0-1.62,18.35c-.06,2.56,0,5.05.12,7.54a49.44,49.44,0,0,0-8.16,27.11,52.21,52.21,0,0,1,4.36,23.45c1.07,2.71,2.3,5.31,3.3,7.34l.39.79a46.39,46.39,0,0,0,5.6,9.31c-.19,1.29-.4,2.67-.63,4.17-.45,2.94-1,6.37-1.58,10.64l0,.17c-.29,2.58-.85,5.54-1.45,8.67-1.92,10.08-4.1,21.5.15,31.41a26,26,0,0,0,5.74,9.08c2.3,3,11.09,12.83,28,12.84h0c.78,0,1.58,0,2.39-.07a47.59,47.59,0,0,0,6.14-.75c26.91-5,29.41-29.64,31.42-49.44l.48-4.72c1.52-15.32,3.1-31.16,7.56-45.77a166.29,166.29,0,0,0,6.82-43.74C193.45,43.17,184.34,23.18,169.08,10Zm10.77,94c-4.64,15.23-6.25,31.4-7.81,47-.16,1.57-.31,3.14-.47,4.7-2,19.74-4.11,39.62-26.17,43.73a40.4,40.4,0,0,1-5.31.65c-16.36.9-24.14-9.23-25.07-10.54a19.34,19.34,0,0,1-4.65-7.26c-4.79-10.94.47-26,1.72-36.94,1.17-8.31,2.07-13.46,2.65-17.89-3.28-2.94-5.18-7.07-7-10.8h0a71.25,71.25,0,0,1-4.62-11.27.14.14,0,0,0,0-.06c-.3-.87-7.67-22.2,5-40.56a.56.56,0,0,1,0-.08c.27-.49.56-.94.84-1.41-.22-2.92-.31-5.9-.25-9a125.25,125.25,0,0,1,1.56-17.52c1.81-12,5.31-24.56,18.91-28.41.75-.21,1.51-.4,2.27-.55,11.47-3,24.45-.6,33.35,7.11,13.83,12,22.09,30,21.56,47.06A159.81,159.81,0,0,1,179.85,104Z"/>
      <path class="cls-7" d="M81.78,98.61c-.58,3.07-1.24,6.32-2,9.86-.1.46-.19.94-.29,1.4q-.36,1.91-.75,3.93c-.58,7-1,12.21-1.18,16.43,1-1.35,2-2.69,3-4,2.65-3.49,5.19-6.83,6.37-9.88a9.33,9.33,0,0,1,.88-1.73c-.07-.65-.15-1.27-.25-1.76a17.62,17.62,0,0,0-1.1-4.19l-.21-.59a43.67,43.67,0,0,0-2.18-5.25C83.37,101.41,82.6,100,81.78,98.61Z"/>
      <path class="cls-7" d="M94.25,88.73a46.88,46.88,0,0,0-3.77-6.8c.14-2.49.18-5,.12-7.48A130.76,130.76,0,0,0,89,56C87.7,47.59,84.7,27.83,65.43,22.37c-.81-.23-1.64-.43-2.54-.62a44.68,44.68,0,0,0-11.31-1.44,42.3,42.3,0,0,0-27.77,10C8.55,43.49-.56,63.47,0,82.42a165.87,165.87,0,0,0,6.82,43.74c4.46,14.62,6,30.46,7.56,45.78l.47,4.71c2,19.79,4.51,44.43,31.43,49.44a49.19,49.19,0,0,0,6.14.75c.81,0,1.61.06,2.39.06h0c16.86,0,25.65-9.83,28-12.83A26,26,0,0,0,88.52,205c4.26-9.91,2.08-21.33.16-31.41-.6-3.13-1.16-6.09-1.46-8.68a.88.88,0,0,0,0-.16c-.6-4.27-1.13-7.71-1.58-10.64-.23-1.5-.44-2.88-.63-4.17a45.87,45.87,0,0,0,5.59-9.31l.4-.8a78.45,78.45,0,0,0,5-12.23,57.45,57.45,0,0,0,2.63-15.41c-.65-1.63-1.24-3.3-1.71-4.89A58.8,58.8,0,0,1,94.25,88.73Zm-4.43,36.88s0,0,0,.06a70.63,70.63,0,0,1-4.63,11.27h0c-1.85,3.74-3.75,7.86-7,10.81.57,4.42,1.48,9.57,2.65,17.89,1.24,10.92,6.51,26,1.72,36.94a19.38,19.38,0,0,1-4.65,7.25c-.93,1.32-8.71,11.45-25.07,10.55a42.16,42.16,0,0,1-5.31-.65c-22.06-4.11-24.17-24-26.17-43.73-.16-1.57-.31-3.13-.47-4.7-1.56-15.64-3.17-31.8-7.81-47a159.4,159.4,0,0,1-6.55-42c-.53-17,7.73-35.08,21.56-47.06C37,27.44,49.93,25,61.4,28c.76.16,1.51.34,2.27.56C77.27,32.45,80.77,45,82.58,57a123.73,123.73,0,0,1,1.55,17.52c.07,3.15,0,6.12-.24,9,.28.46.57.92.84,1.4a.56.56,0,0,0,0,.08C97.49,103.41,90.13,124.75,89.82,125.61Z"/>
    </g>
  </g>
</svg>
