<svg id="Layer_1" data-name="Layer 1" xmlns="http://www.w3.org/2000/svg" xmlns:xlink="http://www.w3.org/1999/xlink" width="200" height="201" viewBox="0 0 200 201">
  <defs>
    <style>
      .cls-1 {
        fill: none;
      }

      .cls-2 {
        opacity: 0.5;
      }

      .cls-3 {
        clip-path: url(#clip-path);
      }

      .cls-4 {
        clip-path: url(#clip-path-2);
      }

      .cls-5 {
        fill: #a19687;
      }

      .cls-6 {
        fill: #e5c9a8;
      }

      .cls-7 {
        fill: #f99191;
      }

      .cls-8 {
        fill: #a66;
      }

      .cls-9 {
        fill: #d66969;
      }

      .cls-10 {
        fill: #935151;
      }

      .cls-11 {
        fill: #fff;
      }
    </style>
    <clipPath id="clip-path">
      <rect class="cls-1" x="5.89" y="5.85" width="184.33" height="184.33" rx="26.14"/>
    </clipPath>
    <clipPath id="clip-path-2">
      <rect class="cls-1" x="2.36" y="1.69" width="191.39" height="191.39"/>
    </clipPath>
  </defs>
  <g>
    <path class="cls-2" d="M165.13,5.29H35.72A31.5,31.5,0,0,0,4.25,36.76V166.17a34.54,34.54,0,0,0,34.5,34.5H165.13a34.54,34.54,0,0,0,34.5-34.5V39.8A34.55,34.55,0,0,0,165.13,5.29Zm28.93,160.88a28.93,28.93,0,0,1-28.93,28.93H38.75A28.93,28.93,0,0,1,9.82,166.17V38.84a28,28,0,0,1,28-28H165.13A28.94,28.94,0,0,1,194.06,39.8Z"/>
    <g class="cls-3">
      <g class="cls-4">
        <g>
          <polygon class="cls-5" points="425.89 213.39 -225.25 213.39 -28.38 78.15 229.02 78.15 425.89 213.39"/>
          <path class="cls-6" d="M8.46,85.63H-3.91c-.78,0-1.16-.23-.84-.51L0,80.92a3.48,3.48,0,0,1,1.85-.45H13.53c.74,0,1.14.2.89.45l-4.05,4.2A3.24,3.24,0,0,1,8.46,85.63Z"/>
          <path class="cls-6" d="M24.5,85.63H12.13c-.78,0-1.2-.23-.93-.51l4-4.2A3.06,3.06,0,0,1,17,80.47H28.66c.74,0,1.18.2,1,.45l-3.32,4.2A2.82,2.82,0,0,1,24.5,85.63Z"/>
          <path class="cls-6" d="M40.53,85.63H28.17c-.79,0-1.24-.23-1-.51l3.29-4.2a2.63,2.63,0,0,1,1.69-.45H43.79c.74,0,1.22.2,1.06.45l-2.59,4.2A2.42,2.42,0,0,1,40.53,85.63Z"/>
          <path class="cls-6" d="M56.57,85.63H44.2c-.78,0-1.28-.23-1.11-.51l2.55-4.2a2.33,2.33,0,0,1,1.62-.45H58.93c.74,0,1.25.2,1.13.45l-1.85,4.2C58.09,85.4,57.35,85.63,56.57,85.63Z"/>
          <path class="cls-6" d="M72.61,85.63H60.24c-.78,0-1.32-.23-1.2-.51l1.81-4.2c.11-.25.8-.45,1.54-.45H74.06c.74,0,1.28.2,1.22.45l-1.12,4.2C74.09,85.4,73.39,85.63,72.61,85.63Z"/>
          <path class="cls-6" d="M88.64,85.63H76.28c-.79,0-1.36-.23-1.29-.51l1.08-4.2c.06-.25.71-.45,1.45-.45H89.19c.74,0,1.32.2,1.3.45l-.38,4.2C90.08,85.4,89.43,85.63,88.64,85.63Z"/>
          <path class="cls-6" d="M104.68,85.63H92.31c-.78,0-1.4-.23-1.37-.51l.34-4.2c0-.25.64-.45,1.38-.45h11.67c.74,0,1.35.2,1.37.45l.36,4.2C106.08,85.4,105.46,85.63,104.68,85.63Z"/>
          <path class="cls-6" d="M120.72,85.63H108.35c-.78,0-1.44-.23-1.47-.51l-.39-4.2c0-.25.56-.45,1.3-.45h11.67c.74,0,1.39.2,1.46.45l1.08,4.2C122.08,85.4,121.5,85.63,120.72,85.63Z"/>
          <path class="cls-6" d="M136.75,85.63H124.39c-.79,0-1.48-.23-1.56-.51l-1.12-4.2c-.07-.25.47-.45,1.21-.45H134.6c.73,0,1.42.2,1.53.45l1.82,4.2C138.07,85.4,137.54,85.63,136.75,85.63Z"/>
          <path class="cls-6" d="M152.79,85.63H140.42c-.78,0-1.52-.23-1.64-.51l-1.86-4.2c-.11-.25.4-.45,1.14-.45h11.67a2.3,2.3,0,0,1,1.61.45l2.56,4.2C154.07,85.4,153.57,85.63,152.79,85.63Z"/>
          <path class="cls-6" d="M168.83,85.63H156.46a2.44,2.44,0,0,1-1.73-.51l-2.6-4.2c-.15-.25.32-.45,1.06-.45h11.67a2.69,2.69,0,0,1,1.7.45l3.29,4.2C170.07,85.4,169.61,85.63,168.83,85.63Z"/>
          <path class="cls-6" d="M184.86,85.63H172.5a2.8,2.8,0,0,1-1.82-.51l-3.33-4.2c-.2-.25.24-.45,1-.45H180a3,3,0,0,1,1.77.45l4,4.2C186.06,85.4,185.65,85.63,184.86,85.63Z"/>
          <path class="cls-6" d="M200.9,85.63H188.53a3.24,3.24,0,0,1-1.91-.51l-4.06-4.2c-.24-.25.16-.45.9-.45h11.67a3.49,3.49,0,0,1,1.86.45l4.75,4.2C202.06,85.4,201.68,85.63,200.9,85.63Z"/>
          <path class="cls-6" d="M216.94,85.63H204.57a3.69,3.69,0,0,1-2-.51l-4.79-4.2c-.29-.25.07-.45.81-.45h11.67a3.93,3.93,0,0,1,1.94.45l5.49,4.2C218.06,85.4,217.72,85.63,216.94,85.63Z"/>
          <path class="cls-6" d="M2.31,91.9H-10.9c-.84,0-1.22-.26-.86-.58l5.4-4.78a3.71,3.71,0,0,1,2-.51H8.07c.79,0,1.2.23.93.51L4.39,91.32A3.46,3.46,0,0,1,2.31,91.9Z"/>
          <path class="cls-6" d="M19.44,91.9H6.23c-.84,0-1.27-.26-1-.58l4.57-4.78A3.25,3.25,0,0,1,11.76,86H24.18c.78,0,1.24.23,1,.51l-3.77,4.78A3,3,0,0,1,19.44,91.9Z"/>
          <path class="cls-6" d="M36.58,91.9H23.36c-.83,0-1.31-.26-1.06-.58L26,86.54A2.87,2.87,0,0,1,27.86,86H40.28c.79,0,1.29.23,1.11.51l-2.94,4.78A2.6,2.6,0,0,1,36.58,91.9Z"/>
          <path class="cls-6" d="M53.71,91.9H40.5c-.84,0-1.36-.26-1.17-.58l2.9-4.78A2.45,2.45,0,0,1,44,86H56.39c.79,0,1.32.23,1.2.51l-2.11,4.78C55.34,91.64,54.55,91.9,53.71,91.9Z"/>
          <path class="cls-6" d="M70.84,91.9H57.63c-.84,0-1.4-.26-1.27-.58l2.07-4.78c.12-.28.86-.51,1.64-.51H72.5c.78,0,1.36.23,1.28.51l-1.27,4.78C72.43,91.64,71.68,91.9,70.84,91.9Z"/>
          <path class="cls-6" d="M88,91.9H74.76c-.83,0-1.45-.26-1.36-.58l1.22-4.78c.08-.28.77-.51,1.56-.51H88.6c.79,0,1.4.23,1.38.51l-.44,4.78C89.51,91.64,88.81,91.9,88,91.9Z"/>
          <path class="cls-6" d="M105.11,91.9H91.89c-.83,0-1.49-.26-1.46-.58l.39-4.78c0-.28.68-.51,1.47-.51h12.42c.78,0,1.44.23,1.46.51l.4,4.78C106.6,91.64,105.94,91.9,105.11,91.9Z"/>
          <path class="cls-6" d="M122.24,91.9H109c-.84,0-1.54-.26-1.57-.58L107,86.54c0-.28.59-.51,1.37-.51h12.42c.79,0,1.49.23,1.56.51l1.24,4.78C123.69,91.64,123.08,91.9,122.24,91.9Z"/>
          <path class="cls-6" d="M139.37,91.9H126.16c-.84,0-1.58-.26-1.67-.58l-1.28-4.78c-.07-.28.5-.51,1.29-.51h12.42c.79,0,1.52.23,1.65.51l2.07,4.78C140.78,91.64,140.21,91.9,139.37,91.9Z"/>
          <path class="cls-6" d="M156.51,91.9H143.29c-.83,0-1.63-.26-1.77-.58l-2.11-4.78c-.13-.28.41-.51,1.19-.51H153a2.44,2.44,0,0,1,1.73.51l2.91,4.78C157.86,91.64,157.34,91.9,156.51,91.9Z"/>
          <path class="cls-6" d="M173.64,91.9H160.43a2.61,2.61,0,0,1-1.88-.58l-3-4.78c-.17-.28.32-.51,1.11-.51h12.42a2.83,2.83,0,0,1,1.83.51l3.74,4.78C175,91.64,174.48,91.9,173.64,91.9Z"/>
          <path class="cls-6" d="M190.77,91.9H177.56a3,3,0,0,1-2-.58l-3.78-4.78c-.23-.28.23-.51,1-.51h12.42a3.3,3.3,0,0,1,1.92.51l4.57,4.78C192,91.64,191.61,91.9,190.77,91.9Z"/>
          <path class="cls-6" d="M207.9,91.9H194.69a3.41,3.41,0,0,1-2.07-.58L188,86.54c-.28-.28.13-.51.92-.51h12.42a3.71,3.71,0,0,1,2,.51l5.41,4.78C209.12,91.64,208.74,91.9,207.9,91.9Z"/>
          <path class="cls-6" d="M-4.74,99.09H-18.92c-.9,0-1.29-.3-.87-.67l6.19-5.48a3.92,3.92,0,0,1,2.19-.59H1.87c.84,0,1.27.26.95.59l-5.29,5.48A3.69,3.69,0,0,1-4.74,99.09Z"/>
          <path class="cls-6" d="M13.65,99.09H-.53c-.9,0-1.34-.3-1-.67l5.24-5.48a3.4,3.4,0,0,1,2.09-.59H19.08c.84,0,1.31.26,1.05.59L15.8,98.42A3.19,3.19,0,0,1,13.65,99.09Z"/>
          <path class="cls-6" d="M32,99.09H17.86c-.9,0-1.39-.3-1.11-.67L21,92.94a3,3,0,0,1,2-.59H36.29c.84,0,1.36.26,1.16.59l-3.37,5.48A2.76,2.76,0,0,1,32,99.09Z"/>
          <path class="cls-6" d="M50.43,99.09H36.25c-.9,0-1.45-.3-1.22-.67l3.32-5.48a2.56,2.56,0,0,1,1.88-.59H53.5c.84,0,1.41.26,1.26.59l-2.41,5.48C52.19,98.79,51.33,99.09,50.43,99.09Z"/>
          <path class="cls-6" d="M68.82,99.09H54.64c-.9,0-1.5-.3-1.34-.67l2.36-5.48c.14-.33.94-.59,1.78-.59H70.72c.84,0,1.45.26,1.36.59l-1.46,5.48C70.53,98.79,69.72,99.09,68.82,99.09Z"/>
          <path class="cls-6" d="M87.21,99.09H73c-.9,0-1.55-.3-1.46-.67L73,92.94c.08-.33.83-.59,1.67-.59H87.93c.84,0,1.49.26,1.47.59l-.5,5.48C88.86,98.79,88.11,99.09,87.21,99.09Z"/>
          <path class="cls-6" d="M105.6,99.09H91.42c-.9,0-1.61-.3-1.58-.67l.45-5.48c0-.33.73-.59,1.57-.59h13.28c.84,0,1.54.26,1.57.59l.46,5.48C107.2,98.79,106.5,99.09,105.6,99.09Z"/>
          <path class="cls-6" d="M124,99.09H109.8c-.89,0-1.65-.3-1.68-.67l-.51-5.48c0-.33.63-.59,1.47-.59h13.27c.84,0,1.59.26,1.68.59l1.41,5.48C125.54,98.79,124.89,99.09,124,99.09Z"/>
          <path class="cls-6" d="M142.38,99.09H128.19c-.89,0-1.7-.3-1.8-.67l-1.47-5.48c-.08-.33.53-.59,1.37-.59h13.27c.84,0,1.64.26,1.78.59l2.37,5.48C143.87,98.79,143.28,99.09,142.38,99.09Z"/>
          <path class="cls-6" d="M160.77,99.09H146.58c-.89,0-1.75-.3-1.92-.67l-2.42-5.48c-.15-.33.42-.59,1.26-.59h13.27a2.59,2.59,0,0,1,1.89.59L162,98.42C162.21,98.79,161.66,99.09,160.77,99.09Z"/>
          <path class="cls-6" d="M179.16,99.09H165a2.74,2.74,0,0,1-2-.67l-3.39-5.48c-.2-.33.32-.59,1.16-.59H174a3,3,0,0,1,2,.59l4.29,5.48C180.55,98.79,180.05,99.09,179.16,99.09Z"/>
          <path class="cls-6" d="M197.55,99.09H183.36a3.19,3.19,0,0,1-2.15-.67l-4.34-5.48c-.26-.33.21-.59,1-.59H191.2a3.45,3.45,0,0,1,2.09.59l5.24,5.48C198.88,98.79,198.44,99.09,197.55,99.09Z"/>
          <path class="cls-6" d="M215.94,99.09H201.75a3.71,3.71,0,0,1-2.27-.67l-5.29-5.48c-.32-.33.1-.59.94-.59h13.28a3.92,3.92,0,0,1,2.19.59l6.21,5.48C217.22,98.79,216.83,99.09,215.94,99.09Z"/>
          <path class="cls-6" d="M6.94,107.41H-8.37c-1,0-1.42-.35-1-.77l6.07-6.35A3.69,3.69,0,0,1-1,99.61H13.23c.9,0,1.39.3,1.1.68l-5,6.35A3.53,3.53,0,0,1,6.94,107.41Z"/>
          <path class="cls-6" d="M26.79,107.41H11.48c-1,0-1.48-.35-1.15-.77l5-6.35a3.21,3.21,0,0,1,2.17-.68H31.71c.9,0,1.45.3,1.22.68L29,106.64A3,3,0,0,1,26.79,107.41Z"/>
          <path class="cls-6" d="M46.63,107.41H31.32c-1,0-1.54-.35-1.28-.77l3.85-6.35a2.75,2.75,0,0,1,2-.68H50.19c.9,0,1.5.3,1.34.68l-2.8,6.35C48.54,107.06,47.6,107.41,46.63,107.41Z"/>
          <path class="cls-6" d="M66.48,107.41H51.17c-1,0-1.6-.35-1.42-.77l2.74-6.35c.16-.38,1-.68,1.93-.68H68.67c.91,0,1.56.3,1.46.68l-1.69,6.35C68.32,107.06,67.45,107.41,66.48,107.41Z"/>
          <path class="cls-6" d="M86.32,107.41H71c-1,0-1.67-.35-1.56-.77l1.63-6.35c.1-.38.91-.68,1.81-.68H87.15c.91,0,1.61.3,1.58.68l-.58,6.35C88.11,107.06,87.29,107.41,86.32,107.41Z"/>
          <path class="cls-6" d="M106.17,107.41H90.86c-1,0-1.73-.35-1.69-.77l.52-6.35c0-.38.79-.68,1.69-.68h14.25c.91,0,1.66.3,1.7.68l.53,6.35C107.89,107.06,107.14,107.41,106.17,107.41Z"/>
          <path class="cls-6" d="M126,107.41h-15.3c-1,0-1.79-.35-1.83-.77l-.59-6.35c0-.38.67-.68,1.57-.68h14.25c.91,0,1.72.3,1.82.68l1.64,6.35C127.68,107.06,127,107.41,126,107.41Z"/>
          <path class="cls-6" d="M145.86,107.41H130.55c-1,0-1.85-.35-2-.77l-1.7-6.35c-.1-.38.55-.68,1.45-.68H142.6c.9,0,1.76.3,1.93.68l2.75,6.35C147.46,107.06,146.83,107.41,145.86,107.41Z"/>
          <path class="cls-6" d="M165.7,107.41H150.4c-1,0-1.91-.35-2.1-.77l-2.81-6.35c-.17-.38.43-.68,1.33-.68h14.26a2.75,2.75,0,0,1,2,.68l3.86,6.35C167.25,107.06,166.67,107.41,165.7,107.41Z"/>
          <path class="cls-6" d="M185.55,107.41H170.24a3,3,0,0,1-2.23-.77l-3.92-6.35c-.23-.38.31-.68,1.21-.68h14.26a3.21,3.21,0,0,1,2.17.68l5,6.35C187,107.06,186.52,107.41,185.55,107.41Z"/>
          <path class="cls-6" d="M205.39,107.41h-15.3a3.53,3.53,0,0,1-2.37-.77l-5-6.35c-.3-.38.19-.68,1.09-.68H198a3.68,3.68,0,0,1,2.28.68l6.08,6.35C206.81,107.06,206.36,107.41,205.39,107.41Z"/>
          <path class="cls-6" d="M-.92,117.17H-17.55c-1.05,0-1.51-.41-1-.92l7.12-7.44A4,4,0,0,1-8.94,108H6.45c1,0,1.48.35,1.14.79L1.7,116.25A3.75,3.75,0,0,1-.92,117.17Z"/>
          <path class="cls-6" d="M20.63,117.17H4c-1,0-1.58-.41-1.19-.92l5.82-7.44A3.46,3.46,0,0,1,11,108H26.4c1,0,1.55.35,1.28.79l-4.58,7.44A3.22,3.22,0,0,1,20.63,117.17Z"/>
          <path class="cls-6" d="M42.18,117.17H25.56c-1.06,0-1.66-.41-1.35-.92l4.51-7.44A3,3,0,0,1,31,108H46.35c1,0,1.61.35,1.42.79l-3.28,7.44A2.73,2.73,0,0,1,42.18,117.17Z"/>
          <path class="cls-6" d="M63.73,117.17H47.11c-1,0-1.73-.41-1.51-.92l3.21-7.44c.19-.44,1.13-.79,2.11-.79H66.3c1,0,1.67.35,1.56.79l-2,7.44C65.74,116.76,64.78,117.17,63.73,117.17Z"/>
          <path class="cls-6" d="M85.28,117.17H68.66c-1,0-1.8-.41-1.67-.92l1.91-7.44c.11-.44,1-.79,2-.79H86.26c1,0,1.73.35,1.69.79l-.68,7.44C87.22,116.76,86.33,117.17,85.28,117.17Z"/>
          <path class="cls-6" d="M106.83,117.17H90.21c-1,0-1.87-.41-1.83-.92l.61-7.44c0-.44.86-.79,1.83-.79h15.39c1,0,1.79.35,1.83.79l.62,7.44C108.7,116.76,107.88,117.17,106.83,117.17Z"/>
          <path class="cls-6" d="M128.38,117.17H111.76c-1.05,0-1.94-.41-2-.92l-.69-7.44c0-.44.72-.79,1.69-.79h15.39c1,0,1.86.35,2,.79l1.92,7.44C130.18,116.76,129.44,117.17,128.38,117.17Z"/>
          <path class="cls-6" d="M149.94,117.17H133.31c-1.05,0-2-.41-2.15-.92l-2-7.44c-.12-.44.58-.79,1.55-.79h15.39c1,0,1.92.35,2.11.79l3.22,7.44C151.66,116.76,151,117.17,149.94,117.17Z"/>
          <path class="cls-6" d="M171.49,117.17H154.87a2.73,2.73,0,0,1-2.32-.92l-3.29-7.44c-.19-.44.44-.79,1.41-.79h15.39a3,3,0,0,1,2.25.79l4.53,7.44C173.14,116.76,172.54,117.17,171.49,117.17Z"/>
          <path class="cls-6" d="M193,117.17H176.42a3.21,3.21,0,0,1-2.47-.92l-4.6-7.44c-.27-.44.3-.79,1.28-.79H186a3.47,3.47,0,0,1,2.39.79l5.83,7.44C194.62,116.76,194.09,117.17,193,117.17Z"/>
          <path class="cls-6" d="M214.59,117.17H198a3.8,3.8,0,0,1-2.63-.92l-5.9-7.44c-.34-.44.16-.79,1.14-.79H206a4,4,0,0,1,2.52.79l7.13,7.44C216.1,116.76,215.64,117.17,214.59,117.17Z"/>
          <path class="cls-6" d="M13.31,128.76H-4.88c-1.15,0-1.7-.49-1.23-1.09L.8,118.83a3.79,3.79,0,0,1,2.66-.94H20.17c1.06,0,1.66.41,1.34.94l-5.44,8.84A3.58,3.58,0,0,1,13.31,128.76Z"/>
          <path class="cls-6" d="M36.89,128.76H18.7c-1.15,0-1.78-.49-1.42-1.09l5.37-8.84a3.16,3.16,0,0,1,2.48-.94H41.85c1.06,0,1.73.41,1.5.94l-3.9,8.84A3,3,0,0,1,36.89,128.76Z"/>
          <path class="cls-6" d="M60.47,128.76H42.28c-1.15,0-1.87-.49-1.61-1.09l3.82-8.84c.22-.53,1.26-.94,2.32-.94H63.53c1.06,0,1.8.41,1.66.94l-2.35,8.84C62.68,128.27,61.62,128.76,60.47,128.76Z"/>
          <path class="cls-6" d="M84,128.76H65.86c-1.15,0-2-.49-1.8-1.09l2.27-8.84c.13-.53,1.1-.94,2.16-.94H85.2c1.06,0,1.88.41,1.84.94l-.81,8.84C86.17,128.27,85.2,128.76,84,128.76Z"/>
          <path class="cls-6" d="M107.62,128.76H89.44c-1.15,0-2-.49-2-1.09l.73-8.84c0-.53.93-.94,2-.94h16.72c1.06,0,2,.41,2,.94l.74,8.84C109.67,128.27,108.77,128.76,107.62,128.76Z"/>
          <path class="cls-6" d="M131.2,128.76H113c-1.15,0-2.13-.49-2.19-1.09l-.82-8.84c-.05-.53.77-.94,1.83-.94h16.72c1.06,0,2,.41,2.16.94l2.28,8.84C133.16,128.27,132.35,128.76,131.2,128.76Z"/>
          <path class="cls-6" d="M154.78,128.76H136.6c-1.16,0-2.22-.49-2.38-1.09l-2.37-8.84c-.14-.53.61-.94,1.67-.94h16.71c1.06,0,2.1.41,2.33.94l3.83,8.84C156.65,128.27,155.93,128.76,154.78,128.76Z"/>
          <path class="cls-6" d="M178.36,128.76H160.17a3,3,0,0,1-2.57-1.09l-3.91-8.84c-.23-.53.44-.94,1.5-.94h16.72a3.2,3.2,0,0,1,2.49.94l5.38,8.84C180.14,128.27,179.51,128.76,178.36,128.76Z"/>
          <path class="cls-6" d="M201.94,128.76H183.75a3.58,3.58,0,0,1-2.76-1.09l-5.46-8.84c-.32-.53.28-.94,1.34-.94h16.72a3.76,3.76,0,0,1,2.65.94l6.93,8.84C203.64,128.27,203.09,128.76,201.94,128.76Z"/>
          <path class="cls-6" d="M225.52,128.76H207.33a4.26,4.26,0,0,1-3-1.09l-7-8.84c-.41-.53.12-.94,1.18-.94h16.72a4.42,4.42,0,0,1,2.81.94l8.47,8.84C227.13,128.27,226.67,128.76,225.52,128.76Z"/>
          <path class="cls-6" d="M4.47,142.76H-15.6c-1.27,0-1.83-.6-1.26-1.33l8.35-10.68a4.22,4.22,0,0,1,3-1.13h18.3c1.16,0,1.79.5,1.4,1.13L7.59,141.43A4,4,0,0,1,4.47,142.76Z"/>
          <path class="cls-6" d="M30.5,142.76H10.43c-1.28,0-1.94-.6-1.5-1.33l6.48-10.68a3.56,3.56,0,0,1,2.79-1.13H36.5c1.15,0,1.87.5,1.6,1.13l-4.71,10.68A3.35,3.35,0,0,1,30.5,142.76Z"/>
          <path class="cls-6" d="M56.53,142.76H36.45c-1.27,0-2-.6-1.72-1.33l4.61-10.68a3,3,0,0,1,2.58-1.13h18.3c1.16,0,2,.5,1.8,1.13l-2.84,10.68C59,142.16,57.8,142.76,56.53,142.76Z"/>
          <path class="cls-6" d="M82.55,142.76H62.48c-1.27,0-2.15-.6-2-1.33l2.74-10.68c.17-.63,1.23-1.13,2.39-1.13H84c1.16,0,2.06.5,2,1.13l-1,10.68C84.91,142.16,83.82,142.76,82.55,142.76Z"/>
          <path class="cls-6" d="M108.58,142.76H88.51c-1.28,0-2.26-.6-2.2-1.33l.88-10.68c0-.63,1-1.13,2.19-1.13h18.3c1.16,0,2.14.5,2.19,1.13l.9,10.68C110.83,142.16,109.85,142.76,108.58,142.76Z"/>
          <path class="cls-6" d="M134.61,142.76H114.53c-1.27,0-2.35-.6-2.42-1.33l-1-10.68c-.06-.63.83-1.13,2-1.13h18.3c1.16,0,2.23.5,2.39,1.13l2.76,10.68C136.75,142.16,135.88,142.76,134.61,142.76Z"/>
          <path class="cls-6" d="M160.63,142.76H140.56c-1.27,0-2.46-.6-2.66-1.33L135,130.75c-.17-.63.64-1.13,1.8-1.13h18.3a3,3,0,0,1,2.59,1.13l4.63,10.68C162.67,142.16,161.9,142.76,160.63,142.76Z"/>
          <path class="cls-6" d="M186.66,142.76H166.59a3.35,3.35,0,0,1-2.9-1.33L159,130.75c-.28-.63.44-1.13,1.6-1.13h18.3a3.54,3.54,0,0,1,2.78,1.13l6.5,10.68C188.6,142.16,187.93,142.76,186.66,142.76Z"/>
          <path class="cls-6" d="M212.69,142.76H192.61a4,4,0,0,1-3.12-1.33l-6.6-10.68c-.38-.63.25-1.13,1.41-1.13h18.3a4.22,4.22,0,0,1,3,1.13l8.36,10.68C214.52,142.16,214,142.76,212.69,142.76Z"/>
          <path class="cls-6" d="M-6.41,160h-22.4c-1.42,0-2-.75-1.27-1.66l10.28-13.17a4.83,4.83,0,0,1,3.4-1.37H3.81c1.28,0,1.94.61,1.47,1.37l-8.1,13.17A4.59,4.59,0,0,1-6.41,160Z"/>
          <path class="cls-6" d="M22.63,160H.23c-1.42,0-2.11-.75-1.56-1.66l8-13.17a4,4,0,0,1,3.16-1.37H30c1.28,0,2.05.61,1.71,1.37l-5.8,13.17A3.78,3.78,0,0,1,22.63,160Z"/>
          <path class="cls-6" d="M51.67,160H29.27c-1.42,0-2.24-.75-1.85-1.66l5.69-13.17A3.31,3.31,0,0,1,36,143.81H56.23c1.28,0,2.16.61,2,1.37l-3.5,13.17C54.44,159.26,53.09,160,51.67,160Z"/>
          <path class="cls-6" d="M80.71,160H58.31c-1.41,0-2.37-.75-2.14-1.66l3.39-13.17c.19-.76,1.39-1.37,2.67-1.37H82.44c1.28,0,2.26.61,2.19,1.37l-1.2,13.17C83.35,159.26,82.13,160,80.71,160Z"/>
          <path class="cls-6" d="M109.76,160H87.36c-1.42,0-2.51-.75-2.44-1.66L86,145.18c.06-.76,1.15-1.37,2.43-1.37h20.21c1.28,0,2.37.61,2.43,1.37l1.1,13.17C112.26,159.26,111.17,160,109.76,160Z"/>
          <path class="cls-6" d="M138.8,160H116.4c-1.42,0-2.64-.75-2.72-1.66l-1.22-13.17c-.08-.76.91-1.37,2.19-1.37h20.21c1.28,0,2.48.61,2.67,1.37l3.41,13.17C141.17,159.26,140.22,160,138.8,160Z"/>
          <path class="cls-6" d="M167.84,160h-22.4c-1.42,0-2.77-.75-3-1.66l-3.52-13.17c-.21-.76.67-1.37,1.94-1.37h20.22a3.32,3.32,0,0,1,2.91,1.37l5.71,13.17C170.08,159.26,169.26,160,167.84,160Z"/>
          <path class="cls-6" d="M196.88,160h-22.4a3.78,3.78,0,0,1-3.3-1.66l-5.82-13.17c-.34-.76.42-1.37,1.7-1.37h20.22a4,4,0,0,1,3.15,1.37l8,13.17C199,159.26,198.3,160,196.88,160Z"/>
          <path class="cls-6" d="M225.92,160h-22.4a4.62,4.62,0,0,1-3.59-1.66l-8.12-13.17c-.47-.76.18-1.37,1.46-1.37h20.22a4.78,4.78,0,0,1,3.39,1.37l10.31,13.17C227.91,159.26,227.34,160,225.92,160Z"/>
          <path class="cls-6" d="M12.7,181.77H-12.64c-1.6,0-2.32-1-1.62-2.12L-4.17,163a4.58,4.58,0,0,1,3.63-1.72H22c1.43,0,2.26.76,1.84,1.72l-7.33,16.62A4.44,4.44,0,0,1,12.7,181.77Z"/>
          <path class="cls-6" d="M45.55,181.77H20.21c-1.6,0-2.49-1-2-2.12L25.4,163a3.77,3.77,0,0,1,3.33-1.72H51.3c1.43,0,2.39.76,2.14,1.72L49,179.65C48.7,180.81,47.15,181.77,45.55,181.77Z"/>
          <path class="cls-6" d="M78.39,181.77H53.06c-1.6,0-2.66-1-2.36-2.12L55,163c.25-1,1.6-1.72,3-1.72H80.57c1.43,0,2.52.76,2.44,1.72l-1.52,16.62C81.38,180.81,80,181.77,78.39,181.77Z"/>
          <path class="cls-6" d="M111.24,181.77H85.91c-1.61,0-2.83-1-2.73-2.12L84.54,163c.08-1,1.3-1.72,2.73-1.72h22.57c1.43,0,2.66.76,2.74,1.72L114,179.65C114.06,180.81,112.84,181.77,111.24,181.77Z"/>
          <path class="cls-6" d="M144.09,181.77H118.75c-1.6,0-3-1-3.1-2.12L114.11,163c-.09-1,1-1.72,2.43-1.72h22.57c1.43,0,2.79.76,3,1.72l4.29,16.62C146.75,180.81,145.69,181.77,144.09,181.77Z"/>
          <path class="cls-6" d="M176.93,181.77H151.6c-1.6,0-3.16-1-3.47-2.12L143.68,163c-.25-1,.7-1.72,2.13-1.72h22.57a3.8,3.8,0,0,1,3.34,1.72l7.2,16.62C179.43,180.81,178.54,181.77,176.93,181.77Z"/>
          <path class="cls-6" d="M209.78,181.77H184.45a4.42,4.42,0,0,1-3.84-2.12L173.25,163c-.42-1,.4-1.72,1.83-1.72h22.57a4.6,4.6,0,0,1,3.64,1.72l10.11,16.62C212.11,180.81,211.39,181.77,209.78,181.77Z"/>
          <path class="cls-6" d="M-.23,210.09H-29.38c-1.85,0-2.58-1.26-1.65-2.8l13.14-21.65a5.44,5.44,0,0,1,4.27-2.2H11.94c1.61,0,2.49,1,2,2.2L4.35,207.29A5.35,5.35,0,0,1-.23,210.09Z"/>
          <path class="cls-6" d="M37.57,210.09H8.42c-1.85,0-2.8-1.26-2.13-2.8l9.34-21.65a4.45,4.45,0,0,1,3.89-2.2H45.08c1.61,0,2.66,1,2.34,2.2l-5.76,21.65A4.31,4.31,0,0,1,37.57,210.09Z"/>
          <path class="cls-6" d="M75.37,210.09H46.22c-1.85,0-3-1.26-2.62-2.8l5.56-21.65c.31-1.22,1.88-2.2,3.5-2.2H78.21c1.62,0,2.85,1,2.73,2.2l-2,21.65A3.48,3.48,0,0,1,75.37,210.09Z"/>
          <path class="cls-6" d="M113.17,210.09H84c-1.85,0-3.24-1.26-3.11-2.8l1.77-21.65c.1-1.22,1.5-2.2,3.12-2.2h25.55c1.62,0,3,1,3.12,2.2l1.81,21.65C116.41,208.83,115,210.09,113.17,210.09Z"/>
          <path class="cls-6" d="M151,210.09H121.82a3.48,3.48,0,0,1-3.6-2.8l-2-21.65c-.11-1.22,1.11-2.2,2.72-2.2h25.56c1.62,0,3.19,1,3.5,2.2l5.6,21.65C154,208.83,152.82,210.09,151,210.09Z"/>
          <path class="cls-6" d="M188.77,210.09H159.62a4.31,4.31,0,0,1-4.09-2.8l-5.8-21.65c-.32-1.22.73-2.2,2.34-2.2h25.56a4.45,4.45,0,0,1,3.89,2.2l9.38,21.65C191.57,208.83,190.62,210.09,188.77,210.09Z"/>
          <path class="cls-6" d="M226.57,210.09H197.42a5.35,5.35,0,0,1-4.58-2.8l-9.58-21.65c-.54-1.22.33-2.2,2-2.2h25.56a5.44,5.44,0,0,1,4.27,2.2l13.17,21.65C229.15,208.83,228.42,210.09,226.57,210.09Z"/>
          <g>
            <rect class="cls-7" x="-48.04" y="-80.5" width="274.88" height="163.98"/>
            <rect class="cls-8" x="-48.04" y="77.61" width="274.88" height="8.77"/>
          </g>
        </g>
        <polygon class="cls-9" points="212.64 191.37 180.48 182.72 139.46 86.23 139.46 6.57 212.64 6.08 212.64 191.37"/>
      </g>
      <polygon class="cls-10" points="139.9 77.58 188.64 179.84 185.4 194.06 139.9 86.31 139.42 77.59 139.9 77.58"/>
      <polygon class="cls-8" points="139.42 77.58 188.16 179.84 184.92 194.06 139.42 86.31 139.42 77.58"/>
    </g>
    <path class="cls-11" d="M161.25.33H31.84A31.5,31.5,0,0,0,.37,31.8V161.2a34.55,34.55,0,0,0,34.5,34.51H161.25a34.55,34.55,0,0,0,34.5-34.51V34.83A34.54,34.54,0,0,0,161.25.33ZM190.18,161.2a28.94,28.94,0,0,1-28.93,28.94H34.87A28.94,28.94,0,0,1,5.94,161.2V33.88a28,28,0,0,1,28-28H161.25a28.93,28.93,0,0,1,28.93,28.93Z"/>
  </g>
</svg>
