<svg xmlns="http://www.w3.org/2000/svg" width="139.26" height="224.73" viewBox="0 0 139.26 224.73">
  <defs>
    <style>
      .cls-1 {
        isolation: isolate;
      }

      .cls-2 {
        opacity: 0.5;
      }

      .cls-3 {
        fill: #fff;
      }

      .cls-4 {
        fill: #985033;
      }

      .cls-5, .cls-6 {
        fill: #ac6233;
      }

      .cls-10, .cls-6 {
        opacity: 0.3;
      }

      .cls-6 {
        mix-blend-mode: color-dodge;
      }

      .cls-7 {
        fill: #c38222;
      }

      .cls-8 {
        fill: #ffc36b;
      }

      .cls-9 {
        fill: #ffa44f;
      }

      .cls-10 {
        fill: #fdac4b;
        mix-blend-mode: multiply;
      }

      .cls-11 {
        fill: #ffd481;
      }

      .cls-12 {
        fill: #d77938;
      }

      .cls-13 {
        fill: #a96b13;
      }
    </style>
  </defs>
  <g class="cls-1">
    <g id="Layer_1" data-name="Layer 1">
      <g>
        <path class="cls-2" d="M60.67,224.72c-.59,0-1.19-.05-1.78-.11a4.78,4.78,0,0,1-.53-.06,7.39,7.39,0,0,1-2.37-.72l-4.28-2.07a7.25,7.25,0,0,1-1.28-.77l-.09-.07-.23-.06a8.36,8.36,0,0,1-1.29-.49l-1.54-.75a6.62,6.62,0,0,1-1.09-.64l-.19-.13a7.86,7.86,0,0,1-1.4-.52l-14-6.74a8.27,8.27,0,0,1-2.13-1.5,13,13,0,0,1-1.55-.88h-.05l-.71-.11a7.74,7.74,0,0,1-2.14-.68l-5.74-2.77a7.88,7.88,0,0,1-1.87-1.26l-.1-.09-.33-.06a8.13,8.13,0,0,1-2-.65l-3.68-1.78A8,8,0,0,1,7.92,200c-.47-.51-.86-1-1.21-1.47a7.88,7.88,0,0,1-1.49-3.26,9.1,9.1,0,0,1-.16-.91,8,8,0,0,1,.76-4.51c8.55-17.42,20.52-31.76,32.49-39.06a9.16,9.16,0,0,1,1.19-1.22,22.06,22.06,0,0,1,16.7-10.9,6.82,6.82,0,0,1,.39-.64,8.83,8.83,0,0,1,.45-1,8.27,8.27,0,0,1,1.17-1.68A9,9,0,0,1,60.09,133l59.3-122.81A9.1,9.1,0,0,1,127.66,5a9.62,9.62,0,0,1,4.11.94L134,7a9.26,9.26,0,0,1,4.42,12.3L79.05,142.14a8.84,8.84,0,0,1-.81,3.23,8.45,8.45,0,0,1-.86,2.47c-.09.21-.2.42-.31.62l-.08.21a21.83,21.83,0,0,1,1.88,19.78,8.47,8.47,0,0,1-.24,1.86c1.71,14-2.11,32.3-10.5,49.86a8,8,0,0,1-7.22,4.56Z"/>
        <path class="cls-3" d="M55.67,219.72c-.59,0-1.19-.05-1.78-.11a4.78,4.78,0,0,1-.53-.06,7.39,7.39,0,0,1-2.37-.72l-4.28-2.07a7.25,7.25,0,0,1-1.28-.77l-.09-.07-.23-.06a8.36,8.36,0,0,1-1.29-.49l-1.54-.75a6.62,6.62,0,0,1-1.09-.64l-.19-.13a7.86,7.86,0,0,1-1.4-.52l-14-6.74a8.27,8.27,0,0,1-2.13-1.5,13,13,0,0,1-1.55-.88h-.05l-.71-.11a7.74,7.74,0,0,1-2.14-.68l-5.74-2.77a7.88,7.88,0,0,1-1.87-1.26l-.1-.09-.33-.06a8.13,8.13,0,0,1-2-.65L5.37,196.8A8,8,0,0,1,2.92,195c-.47-.51-.86-1-1.21-1.47a7.88,7.88,0,0,1-1.49-3.26,9.1,9.1,0,0,1-.16-.91,8,8,0,0,1,.76-4.51c8.55-17.42,20.52-31.76,32.49-39.06a9.16,9.16,0,0,1,1.19-1.22,22.06,22.06,0,0,1,16.7-10.9,6.82,6.82,0,0,1,.39-.64,8.83,8.83,0,0,1,.45-1,8.27,8.27,0,0,1,1.17-1.68A9,9,0,0,1,55.09,128L114.39,5.14A9.1,9.1,0,0,1,122.66,0a9.62,9.62,0,0,1,4.11.94L129,2a9.26,9.26,0,0,1,4.42,12.3L74.05,137.14a8.84,8.84,0,0,1-.81,3.23,8.45,8.45,0,0,1-.86,2.47c-.09.21-.2.42-.31.62l-.08.21a21.83,21.83,0,0,1,1.88,19.78,8.47,8.47,0,0,1-.24,1.86c1.71,14-2.11,32.3-10.5,49.86a8,8,0,0,1-7.22,4.56Z"/>
        <g>
          <path class="cls-4" d="M62.64,142.37a1.26,1.26,0,0,1-1.69.47l-2.18-1.06a1.24,1.24,0,0,1-.69-1.62L121.6,8.62a1.24,1.24,0,0,1,1.69-.47l2.19,1a1.25,1.25,0,0,1,.68,1.62Z"/>
          <path class="cls-5" d="M66.46,122.81,58,140.3a1.2,1.2,0,0,0,.76,1.48L61,142.84a1.21,1.21,0,0,0,1.63-.33L71,125Z"/>
          <path class="cls-6" d="M64.57,135.23a.62.62,0,1,1-1.1-.53L123.29,10.81a.62.62,0,1,1,1.1.53Z"/>
          <path class="cls-7" d="M62.25,144.74a1,1,0,0,1-1.37.43L57,143.28a1,1,0,0,1-.51-1.33l3.73-7.73a1,1,0,0,1,1.36-.43l3.91,1.88A1,1,0,0,1,66,137Z"/>
          <path class="cls-8" d="M49.3,208.91l.89.65,4.28,2.07.18,0c.42,0,.84.06,1.26.08,8.76-18.35,11.86-36.58,9.24-48.76a12.64,12.64,0,0,0,.87-1.53,13.89,13.89,0,1,0-25-12.08,12.64,12.64,0,0,0-.66,1.63C29.21,156.49,16.91,170.18,8,188.35c0,.09,0,.18.05.28.26.33.52.66.8,1l3.68,1.77a15.69,15.69,0,0,0,2.67.28.69.69,0,0,1,.63.89l1,.9,5.74,2.77.23,0a5.55,5.55,0,0,1,1.69.14c.68,0,1.51.87,2,1.21.76.52,2.24.81,2.62,1.67a.53.53,0,0,1,0,.12l14,6.74a3.13,3.13,0,0,1,2,.79c.23.19.45.35.66.5l1.54.74a7.44,7.44,0,0,0,1.69.25A.4.4,0,0,1,49.3,208.91Z"/>
          <g>
            <path class="cls-9" d="M28.8,198.88c2.34-4.53,5-8.92,7.05-13.53,0-.11-.12-.19-.17-.08-2.1,4.44-5,8.75-7.36,13.25A2.23,2.23,0,0,1,28.8,198.88Z"/>
            <path class="cls-9" d="M49,208.41a.35.35,0,0,1,.29.23,51.24,51.24,0,0,0,3-9.94c0-.17-.22-.22-.27,0a83.52,83.52,0,0,1-3.53,9.73Z"/>
            <path class="cls-9" d="M15.83,192.54l.19.18c1.85-3.43,3.79-6.82,5.87-10.12,3.74-5.92,7.1-12.15,12-17.21.13-.12-.08-.29-.21-.18-5,4.69-8.64,10.5-12.35,16.23-2.19,3.36-4.34,6.72-6.23,10.21h.08A.69.69,0,0,1,15.83,192.54Z"/>
            <path class="cls-9" d="M43.82,206.23a3,3,0,0,1,1,.46c1.68-3.7,3.21-7.47,4.66-11.24,2.65-6.93,4.11-14.09,5.83-21.27.05-.22-.27-.27-.33-.06-2,7.34-3.92,14.64-6.68,21.77C46.92,199.39,45.37,202.81,43.82,206.23Z"/>
            <path class="cls-9" d="M24.45,196.39a1.58,1.58,0,0,1,.87.32c1.58-3.22,3.21-6.42,4.85-9.61a227,227,0,0,1,12.48-22.21c.08-.11-.08-.26-.16-.14a165.39,165.39,0,0,0-12.86,21c-1.87,3.48-3.65,7-5.29,10.56Z"/>
          </g>
          <g>
            <path class="cls-9" d="M58.18,143.84A11.82,11.82,0,0,0,57,146.66c0,.05,0,.1.09.06a5.89,5.89,0,0,0,1.6-2.15c.29-.55.59-1.11.86-1.69l-.77-.34C58.57,143,58.38,143.41,58.18,143.84Z"/>
            <path class="cls-9" d="M44.64,148.23c2.92-3.41,6.5-6,10.66-6.61-.51-.06-1-.1-1.51-.11a18,18,0,0,0-9.22,6.66S44.6,148.27,44.64,148.23Z"/>
            <path class="cls-9" d="M50.24,147.57a15.22,15.22,0,0,1,4.09-4,10.48,10.48,0,0,1,3.53-1.33,13.06,13.06,0,0,0-1.68-.45,13.42,13.42,0,0,0-6,5.75C50.1,147.57,50.2,147.63,50.24,147.57Z"/>
            <path class="cls-9" d="M52.24,149.52A48,48,0,0,1,55,145.4a10.94,10.94,0,0,1,3.63-2.9c-.21-.09-.43-.17-.65-.24-2.79,1.35-4.5,4.59-5.94,7.18C52,149.55,52.18,149.62,52.24,149.52Z"/>
            <path class="cls-9" d="M60.23,150.78c0,.09.14.16.18.05a20.8,20.8,0,0,0,1.2-5.63c0-.13,0-.27,0-.41a8.43,8.43,0,0,1,.57,2.41,27.27,27.27,0,0,1-.7,8.25s0,.05.06,0c.8-2.57,1.72-6.62,1.17-10a11,11,0,0,1,1,1.7c.91,2,.71,4.45.8,6.57h0c.29-2.25.72-4.45.09-6.66a14,14,0,0,0-4.18-3.71C61,145.74,60.48,148.42,60.23,150.78Z"/>
          </g>
          <path class="cls-10" d="M49.3,208.91l.89.65,4.28,2.07.18,0c.42,0,.84.06,1.26.08,8.76-18.35,11.86-36.58,9.24-48.76a12.64,12.64,0,0,0,.87-1.53,13.89,13.89,0,1,0-25-12.08,12.64,12.64,0,0,0-.66,1.63C29.21,156.49,16.91,170.18,8,188.35c0,.09,0,.18.05.28.26.33.52.66.8,1l3.68,1.77a15.69,15.69,0,0,0,2.67.28.69.69,0,0,1,.63.89l1,.9,5.74,2.77.23,0a5.55,5.55,0,0,1,1.69.14c.68,0,1.51.87,2,1.21.76.52,2.24.81,2.62,1.67a.53.53,0,0,1,0,.12l14,6.74a3.13,3.13,0,0,1,2,.79c.23.19.45.35.66.5l1.54.74a7.44,7.44,0,0,0,1.69.25A.4.4,0,0,1,49.3,208.91Zm-3.45-6.33A13,13,0,0,1,46,200.7a5.52,5.52,0,0,1-2.84,2.83c-1.43.56-2.77,0-2.76-1.52a2,2,0,0,1,.12-.62l-.07.07a3.21,3.21,0,0,1-1.83,1c-2.22.3-4.45-1-6.28-2.09a5.49,5.49,0,0,1-3.05-4.4c-2.66,1-3.18-1.54-2.38-4q.68-2,1.5-4c-.2.32-.39.63-.58,1-1,1.73-2.2,4.14-4.27,4.74-1.79.52-1.7-1.49-1.21-3.52a6,6,0,0,1-1.62,1.56c-1.05.63-1.66-.12-1.61-1.25a12.86,12.86,0,0,1,3.54-7.8,24.17,24.17,0,0,0-2.32,2.21c-.51.73-.95,1.52-1.5,2.23a10,10,0,0,1-3.4,3.1.63.63,0,0,1-.85-.17c-2-3,.78-7.4,2.34-9.93a78.57,78.57,0,0,1,8.19-10.92c4.8-5.4,9.22-10.19,14.94-14.54,2.64-2,4.67-4.88,7.35-6.92s6.11-5.64,12.4-2.33c7.19,3.79,4.8,12.95,4,16.93,3.32,10.59-3.27,35.37-6.94,43.6-.58,1.3-2.6,4.81-4.38,2.88a3.22,3.22,0,0,1-.66-2.33,1.75,1.75,0,0,1-2.47.51C47.5,206.11,45.84,204.89,45.85,202.58Z"/>
          <path class="cls-11" d="M46.4,193.38c1.59-3.83,3-7.71,4.42-11.62,1.21-3.44,2.41-6.91,3.37-10.43.86-3.18,2.4-7.12,1.69-10.42,0-.17-.26-.17-.37-.07-2.3,2.37-3.16,6.48-4.28,9.52-1.31,3.59-2.51,7.22-3.85,10.79s-2.8,7.11-4.32,10.61c-.68,1.55-1.35,3.11-2,4.65s-1.32,2.52-1.07,4.06a1.43,1.43,0,0,0,2.2,1.06C44.47,199.89,45.35,195.92,46.4,193.38Z"/>
          <path class="cls-11" d="M44.13,182.93a130.58,130.58,0,0,0,5.93-16c0-.18-.2-.23-.29-.1-2.92,4.85-5.56,9.85-8.2,14.86-2.74,5.2-4.85,10.73-7.68,15.88-1,1.88,2,3.3,3,1.44C39.72,193.92,41.86,188.31,44.13,182.93Z"/>
          <path class="cls-11" d="M56,189.44a79.44,79.44,0,0,0,2.09-8.06,89,89,0,0,0,1.69-15.78c0-.15-.21-.14-.25,0-1.36,5.11-2.66,10.23-4.11,15.31-.68,2.38-1.27,4.78-1.94,7.16-.63,2.2-1.49,4.3-.95,6.6a.46.46,0,0,0,.69.23C54.84,193.44,55.35,191.49,56,189.44Z"/>
          <path class="cls-11" d="M59.45,190c1.35-5.67,3.49-11.64,2.51-17.53,0-.06-.11-.08-.12,0-.69,6.2-2.52,12.15-4.17,18.14-1,3.41-1.82,6.88-3,10.22-.75,2.14-2.07,4.14-1.27,6.43a.52.52,0,0,0,1,.06C56.88,201.94,58.06,195.82,59.45,190Z"/>
          <path class="cls-11" d="M49.74,159.5c-2.92,2.28-4.94,5.56-6.84,8.7-2.15,3.55-4.4,7.17-5.17,11.29a.45.45,0,0,0,.77.38c2.56-2.91,4.14-6.47,6-9.87s3.71-6.86,5.47-10.35C50,159.55,49.84,159.42,49.74,159.5Z"/>
          <path class="cls-11" d="M46.62,156.53c-2.74,1.37-4.65,4.11-6.62,6.38a104.91,104.91,0,0,0-6.82,9c-2,2.93-4,5.92-5.9,8.93-1.78,2.81-4.29,6-4.61,9.36,0,.39.43.85.81.53,2.24-1.91,3.42-4.78,4.93-7.27,2-3.22,4.13-6.32,6.18-9.49A173.58,173.58,0,0,1,46.8,156.74C46.91,156.61,46.75,156.47,46.62,156.53Z"/>
          <path class="cls-9" d="M49,149.26c0-.07,0-.14-.09-.09a15,15,0,0,0-3.09,4.62,6.68,6.68,0,0,0-3.05,1.9,22.94,22.94,0,0,0-3.92,4.2c-.08.11.06.25.16.14A27,27,0,0,1,46,154.32a.25.25,0,0,0,.29-.15A20.22,20.22,0,0,1,49,149.26Z"/>
          <path class="cls-9" d="M52.14,156.71a.22.22,0,0,0,0-.08,59.63,59.63,0,0,0,3.54-7.91c0-.09-.09-.16-.13-.07a60.27,60.27,0,0,0-3.75,7.71.29.29,0,0,0-.24.16c-1.61,3.44-2.75,7.08-4.15,10.6a0,0,0,0,0,.09,0A41.89,41.89,0,0,0,52.14,156.71Z"/>
          <path class="cls-9" d="M55.06,156c.49-1.37,1-2.73,1.46-4.1,0-.08-.07-.13-.11-.06l-1.83,3.61c-.32.61-1,1.39-.92,2.1a.28.28,0,0,0,.37.23C54.73,157.59,54.85,156.62,55.06,156Z"/>
          <path class="cls-9" d="M64.15,155.28a.08.08,0,0,0-.15,0,38.57,38.57,0,0,1-1.33,5.07c-.15.43-.6,1.38.18,1.37a.41.41,0,0,0,.36-.24A14.56,14.56,0,0,0,64.15,155.28Z"/>
          <path class="cls-9" d="M62.34,167.43a32.29,32.29,0,0,0-.13-5.65c-.09-.5-.89-.44-.8.06a27.68,27.68,0,0,1,.2,4.55,19.5,19.5,0,0,1-.25,4.89c0,.11.13.15.17.06A9.75,9.75,0,0,0,62.34,167.43Z"/>
          <path class="cls-9" d="M58.72,162.68c.12-.76.41-1.82,0-2.49a.19.19,0,0,0-.32,0,5.61,5.61,0,0,0-.24,2.12,15.53,15.53,0,0,1-.34,3.47.06.06,0,0,0,.11,0A13.76,13.76,0,0,0,58.72,162.68Z"/>
          <path class="cls-12" d="M65.31,163.66,39.72,151.31a.39.39,0,0,1,.34-.71L65.65,163a.39.39,0,1,1-.34.7Z"/>
          <path class="cls-13" d="M64.7,139.29l-5.41-2.88a.47.47,0,0,1-.19-.64.48.48,0,0,1,.63-.19l5.39,2.88a.47.47,0,0,1,.2.63A.47.47,0,0,1,64.7,139.29Z"/>
          <path class="cls-13" d="M58.43,138.1a.46.46,0,0,1-.25-.54.47.47,0,0,1,.58-.33l6,1.69a.47.47,0,0,1-.25.9l-6-1.69A.13.13,0,0,1,58.43,138.1Z"/>
          <path class="cls-13" d="M58.14,138.78a.47.47,0,0,1-.24-.58.46.46,0,0,1,.59-.28l5.84,2a.47.47,0,0,1,.29.6.47.47,0,0,1-.6.28l-5.83-2Z"/>
          <path class="cls-13" d="M63.17,142.7l-5.59-2.79a.47.47,0,1,1,.42-.84l5.58,2.8a.46.46,0,0,1,.21.62A.46.46,0,0,1,63.17,142.7Z"/>
          <path class="cls-13" d="M62.68,143.76l0,0-5.56-3.19a.47.47,0,0,1,.46-.81l5.56,3.19a.46.46,0,0,1,.17.64A.45.45,0,0,1,62.68,143.76Z"/>
        </g>
      </g>
    </g>
  </g>
</svg>
