<svg id="Layer_1" data-name="Layer 1" xmlns="http://www.w3.org/2000/svg" xmlns:xlink="http://www.w3.org/1999/xlink" width="242" height="244" viewBox="0 0 242 244">
  <defs>
    <style>
      .cls-1 {
        fill: none;
      }

      .cls-2 {
        opacity: 0.5;
      }

      .cls-3 {
        clip-path: url(#clip-path);
      }

      .cls-4 {
        fill: #edd3bd;
      }

      .cls-5 {
        fill: #8b959a;
      }

      .cls-6 {
        fill: #758184;
      }

      .cls-7 {
        fill: #dcb29a;
      }

      .cls-8 {
        fill: #b1b4b8;
      }

      .cls-9 {
        fill: #687689;
      }

      .cls-10 {
        fill: #3a3a3a;
      }

      .cls-11 {
        fill: url(#linear-gradient);
      }

      .cls-12 {
        fill: #fddc63;
      }

      .cls-13 {
        fill: #efb890;
      }

      .cls-14 {
        fill: #e7c2a8;
      }

      .cls-15 {
        fill: #e5e5e4;
      }

      .cls-16 {
        fill: #4d4e4e;
      }

      .cls-17 {
        fill: #f7991c;
      }

      .cls-18 {
        fill: #ee8322;
      }

      .cls-19 {
        fill: #de6e26;
      }

      .cls-20 {
        fill: #4e7a6c;
      }

      .cls-21 {
        fill: #8d4d21;
      }

      .cls-22 {
        opacity: 0.25;
      }

      .cls-23 {
        opacity: 0.15;
      }

      .cls-24 {
        fill: #f2f2f2;
      }

      .cls-25 {
        fill: #333;
      }

      .cls-26 {
        opacity: 0.7;
      }

      .cls-27 {
        fill: #fff;
      }

      .cls-28 {
        fill: #5b9a8b;
      }

      .cls-29 {
        fill: #84cdb8;
      }

      .cls-30 {
        opacity: 0.1;
      }

      .cls-31 {
        fill: #899095;
      }

      .cls-32 {
        fill: #e8e7e7;
      }

      .cls-33 {
        fill: #cbcbca;
      }

      .cls-34 {
        fill: #754f31;
      }

      .cls-35 {
        fill: #5c3925;
      }

      .cls-36 {
        fill: #1a1a1a;
      }

      .cls-37 {
        fill: #363636;
      }

      .cls-38 {
        fill: #676767;
      }

      .cls-39 {
        fill: #f5ae92;
      }

      .cls-40 {
        fill: #e09580;
      }

      .cls-41 {
        fill: #a75f26;
      }

      .cls-42 {
        fill: #80431d;
      }

      .cls-43 {
        fill: #545455;
      }

      .cls-44, .cls-55 {
        fill: #30302f;
      }

      .cls-45 {
        fill: #e7b096;
      }

      .cls-46 {
        fill: #ab4c2b;
      }

      .cls-47 {
        fill: #c16037;
      }

      .cls-48 {
        fill: #e5e6e6;
      }

      .cls-49 {
        fill: #59595c;
      }

      .cls-50 {
        fill: #e2a88b;
      }

      .cls-51 {
        fill: #d09077;
      }

      .cls-52 {
        fill: #221f1f;
      }

      .cls-53 {
        fill: #66c7c8;
      }

      .cls-54 {
        fill: #41bfbe;
      }

      .cls-55 {
        opacity: 0.8;
      }
    </style>
    <clipPath id="clip-path">
      <rect class="cls-1" x="6.78" y="7.13" width="223.72" height="223.72" rx="26.14"/>
    </clipPath>
    <linearGradient id="linear-gradient" x1="-124.06" y1="229.88" x2="458.48" y2="229.88" gradientUnits="userSpaceOnUse">
      <stop offset="0" stop-color="#cbcbca"/>
      <stop offset="1" stop-color="#979797"/>
    </linearGradient>
  </defs>
  <g>
    <path class="cls-2" d="M200,6.44H43A38.24,38.24,0,0,0,4.79,44.64V201.7a41.92,41.92,0,0,0,41.88,41.88H200a41.92,41.92,0,0,0,41.88-41.88V48.32A41.92,41.92,0,0,0,200,6.44ZM235.16,201.7A35.11,35.11,0,0,1,200,236.81H46.67A35.11,35.11,0,0,1,11.55,201.7V47.17a34,34,0,0,1,34-34H200a35.11,35.11,0,0,1,35.12,35.11Z"/>
    <g class="cls-3">
      <g>
        <g>
          <g>
            <rect class="cls-4" x="-124.06" y="39.2" width="582.54" height="107.99"/>
            <rect class="cls-5" x="-124.06" y="4.71" width="582.54" height="58.81"/>
            <rect class="cls-6" x="-124.06" y="8.39" width="582.54" height="3.9"/>
            <rect class="cls-7" x="-124.06" y="139.4" width="582.54" height="7.8"/>
            <rect class="cls-8" x="-124.06" y="-80.07" width="582.54" height="88.47"/>
            <rect class="cls-9" x="-124.06" y="147.19" width="582.54" height="155.21"/>
            <rect class="cls-10" x="-124.06" y="153.8" width="582.54" height="92.88"/>
            <rect class="cls-11" x="-124.06" y="183.58" width="582.54" height="92.61"/>
            <rect class="cls-12" x="-124.06" y="190.12" width="582.54" height="2.45"/>
            <rect class="cls-12" x="-124.06" y="150.55" width="582.54" height="1.19"/>
            <polygon class="cls-13" points="220.17 76.25 114.25 76.25 113.35 76.25 113.35 80.58 113.35 135.07 113.35 139.4 114.25 139.4 220.17 139.4 221.07 139.4 221.07 135.07 221.07 80.58 221.07 76.25 220.17 76.25"/>
            <rect class="cls-4" x="117.57" y="80.58" width="99.28" height="58.82"/>
            <rect class="cls-14" x="43.35" y="63.52" width="31.78" height="83.67"/>
          </g>
          <g>
            <g>
              <g>
                <path class="cls-15" d="M253.13,183.58H179.44V98.7h0A52.24,52.24,0,0,1,217,114.61l45.46,47A13,13,0,0,1,253.13,183.58Z"/>
                <path class="cls-16" d="M265.78,173.43a12.85,12.85,0,0,1-12.65,10.15H179.44V173.43Z"/>
                <polygon class="cls-17" points="255.7 154.64 179.44 154.64 179.44 115.41 217.75 115.41 255.7 154.64"/>
                <polygon class="cls-18" points="255.7 154.64 179.44 154.64 179.44 142.06 243.53 142.06 255.7 154.64"/>
                <polygon class="cls-19" points="255.7 154.64 179.44 154.64 179.44 149.39 250.62 149.39 255.7 154.64"/>
                <g>
                  <path class="cls-20" d="M247.55,146.21H190.24a2.51,2.51,0,0,1-2.51-2.51V126.36a2.51,2.51,0,0,1,2.51-2.52h35.67Z"/>
                  <path class="cls-1" d="M190.24,124.53a1.83,1.83,0,0,0-1.82,1.83V143.7a1.83,1.83,0,0,0,1.82,1.82h56.64l-20.3-21H190.24Z"/>
                  <path class="cls-21" d="M190.24,145.52a1.83,1.83,0,0,1-1.82-1.82V126.36a1.83,1.83,0,0,1,1.82-1.83h36.34l-.67-.69H190.24a2.51,2.51,0,0,0-2.51,2.52V143.7a2.51,2.51,0,0,0,2.51,2.51h57.31l-.67-.69Z"/>
                </g>
              </g>
              <path class="cls-22" d="M263.42,178.5a12.66,12.66,0,0,1-10.29,5.08H179.44V178.5Z"/>
              <path class="cls-23" d="M253.13,183.58h-3.49l5-5.26a10.37,10.37,0,0,0,0-14.35l-47.27-47a38.29,38.29,0,0,0-27-11.15h-.85V98.7A52.27,52.27,0,0,1,217,114.62l45.46,47A13,13,0,0,1,253.13,183.58Z"/>
              <g>
                <rect class="cls-15" x="1.72" y="98.7" width="177.72" height="84.88"/>
                <rect class="cls-16" x="1.72" y="173.43" width="177.72" height="10.15" transform="translate(181.16 357.01) rotate(180)"/>
                <rect class="cls-17" x="1.72" y="115.41" width="177.72" height="39.23"/>
                <rect class="cls-18" x="1.72" y="142.06" width="177.72" height="12.58"/>
                <rect class="cls-19" x="1.72" y="149.39" width="177.72" height="5.26"/>
                <g>
                  <rect class="cls-20" x="10" y="123.84" width="48.08" height="22.37" rx="3.27"/>
                  <path class="cls-21" d="M55.82,124.53a1.58,1.58,0,0,1,1.57,1.57V144a1.57,1.57,0,0,1-1.57,1.57H12.26A1.57,1.57,0,0,1,10.69,144V126.1a1.58,1.58,0,0,1,1.57-1.57H55.82m0-.69H12.26A2.26,2.26,0,0,0,10,126.1V144a2.26,2.26,0,0,0,2.26,2.26H55.82A2.26,2.26,0,0,0,58.08,144V126.1a2.26,2.26,0,0,0-2.26-2.26Z"/>
                </g>
                <g>
                  <rect class="cls-20" x="123.08" y="123.84" width="48.08" height="22.37" rx="3.27"/>
                  <path class="cls-21" d="M168.9,124.53a1.58,1.58,0,0,1,1.57,1.57V144a1.57,1.57,0,0,1-1.57,1.57H125.34a1.57,1.57,0,0,1-1.57-1.57V126.1a1.58,1.58,0,0,1,1.57-1.57H168.9m0-.69H125.34a2.26,2.26,0,0,0-2.26,2.26V144a2.26,2.26,0,0,0,2.26,2.26H168.9a2.26,2.26,0,0,0,2.26-2.26V126.1a2.26,2.26,0,0,0-2.26-2.26Z"/>
                </g>
                <rect class="cls-22" x="1.72" y="178.5" width="177.72" height="5.08"/>
                <g>
                  <path class="cls-24" d="M71.24,115.77h38.69a4.88,4.88,0,0,1,4.88,4.88v60.63a0,0,0,0,1,0,0H66.36a0,0,0,0,1,0,0V120.64A4.88,4.88,0,0,1,71.24,115.77Z"/>
                  <path class="cls-17" d="M114.8,119.14v35.5H66.36v-35.5a3.31,3.31,0,0,1,1.35-2.68h45.75A3.33,3.33,0,0,1,114.8,119.14Z"/>
                  <rect class="cls-18" x="66.36" y="142.06" width="48.44" height="12.58"/>
                  <rect class="cls-19" x="66.36" y="149.39" width="48.44" height="5.26"/>
                  <path class="cls-16" d="M111.43,116.46a2.69,2.69,0,0,1,2.68,2.68v61.44H67.05V119.14a2.69,2.69,0,0,1,2.69-2.68h41.69m0-.69H69.74a3.37,3.37,0,0,0-3.38,3.37v62.13H114.8V119.14a3.37,3.37,0,0,0-3.37-3.37Z"/>
                  <rect class="cls-16" x="90.24" y="115.77" width="0.69" height="65.5"/>
                  <rect class="cls-25" x="66.36" y="179.66" width="48.44" height="1.61"/>
                  <g>
                    <rect class="cls-20" x="70.33" y="123.84" width="16.29" height="22.37" rx="3.27"/>
                    <path class="cls-21" d="M84.36,124.53a1.58,1.58,0,0,1,1.57,1.57V144a1.57,1.57,0,0,1-1.57,1.57H72.59A1.57,1.57,0,0,1,71,144V126.1a1.57,1.57,0,0,1,1.57-1.57H84.36m0-.69H72.59a2.26,2.26,0,0,0-2.26,2.26V144a2.26,2.26,0,0,0,2.26,2.26H84.36A2.26,2.26,0,0,0,86.62,144V126.1a2.26,2.26,0,0,0-2.26-2.26Z"/>
                  </g>
                  <g>
                    <rect class="cls-20" x="94.54" y="123.84" width="16.29" height="22.37" rx="3.27" transform="translate(205.38 270.06) rotate(180)"/>
                    <path class="cls-21" d="M108.58,124.53a1.57,1.57,0,0,1,1.56,1.57V144a1.56,1.56,0,0,1-1.56,1.57H96.8A1.56,1.56,0,0,1,95.24,144V126.1a1.57,1.57,0,0,1,1.56-1.57h11.78m0-.69H96.8a2.26,2.26,0,0,0-2.26,2.26V144a2.26,2.26,0,0,0,2.26,2.26h11.78a2.26,2.26,0,0,0,2.26-2.26V126.1a2.26,2.26,0,0,0-2.26-2.26Z"/>
                  </g>
                </g>
                <rect class="cls-23" x="1.72" y="98.7" width="177.72" height="7.15"/>
              </g>
              <g>
                <rect class="cls-15" x="-176.01" y="98.7" width="177.72" height="84.88"/>
                <rect class="cls-16" x="-176.01" y="173.43" width="177.72" height="10.15" transform="translate(-174.29 357.01) rotate(180)"/>
                <rect class="cls-17" x="-176.01" y="115.41" width="177.72" height="39.23"/>
                <rect class="cls-18" x="-176.01" y="142.06" width="177.72" height="12.58"/>
                <rect class="cls-19" x="-176.01" y="149.39" width="177.72" height="5.26"/>
                <rect class="cls-22" x="-176.01" y="178.5" width="177.72" height="5.08"/>
                <rect class="cls-23" x="-176.01" y="98.7" width="177.72" height="7.15"/>
              </g>
            </g>
            <g>
              <g class="cls-26">
                <path class="cls-27" d="M178.92,110H132a1,1,0,1,1,0-2h46.95a1,1,0,1,1,0,2Z"/>
                <path class="cls-27" d="M209.74,110H189.65a1,1,0,1,1,0-2h20.09a1,1,0,0,1,0,2Z"/>
                <path class="cls-27" d="M185.14,110h-2.57a1,1,0,1,1,0-2h2.57a1,1,0,0,1,0,2Z"/>
              </g>
              <g class="cls-26">
                <path class="cls-27" d="M148.32,129.09H128.69a1,1,0,1,1,0-2h19.63a1,1,0,0,1,0,2Z"/>
                <path class="cls-27" d="M206.46,129.09H166.24a1,1,0,0,1,0-2h40.22a1,1,0,1,1,0,2Z"/>
                <path class="cls-27" d="M161.73,129.09H152a1,1,0,0,1,0-2h9.77a1,1,0,1,1,0,2Z"/>
              </g>
              <g class="cls-26">
                <path class="cls-27" d="M201.91,144.72H177.69a1,1,0,0,1,0-2h24.22a1,1,0,1,1,0,2Z"/>
                <path class="cls-27" d="M249.82,144.72h-43a1,1,0,0,1,0-2h43a1,1,0,0,1,0,2Z"/>
              </g>
              <g class="cls-26">
                <path class="cls-27" d="M247.78,161.15h-47a1,1,0,1,1,0-2h47a1,1,0,0,1,0,2Z"/>
                <path class="cls-27" d="M190.09,161.15H170a1,1,0,0,1,0-2h20.09a1,1,0,1,1,0,2Z"/>
                <path class="cls-27" d="M197.18,161.15H194.6a1,1,0,0,1,0-2h2.58a1,1,0,0,1,0,2Z"/>
              </g>
            </g>
          </g>
          <g>
            <g>
              <g>
                <path class="cls-22" d="M120.88,38.67V63.52H11.8V38.67A2.65,2.65,0,0,1,14.46,36H118.22A2.65,2.65,0,0,1,120.88,38.67Z"/>
                <rect class="cls-28" x="40.63" y="8.82" width="51.43" height="107.45" rx="3.18" transform="translate(128.89 -3.79) rotate(90)"/>
                <rect class="cls-29" x="15.89" y="40.1" width="100.9" height="44.88" rx="3.18"/>
                <g>
                  <rect class="cls-24" x="17.93" y="43.09" width="27.97" height="3.7"/>
                  <rect class="cls-24" x="73.08" y="43.09" width="14.7" height="3.1"/>
                  <rect class="cls-24" x="95.96" y="43.09" width="14.7" height="3.1"/>
                  <rect class="cls-24" x="17.93" y="49.86" width="50.38" height="2.65"/>
                  <g>
                    <g>
                      <rect class="cls-24" x="73.49" y="49.86" width="6.14" height="2.65"/>
                      <rect class="cls-24" x="81.23" y="49.86" width="6.14" height="2.65"/>
                    </g>
                    <g>
                      <rect class="cls-24" x="73.49" y="55.27" width="6.14" height="2.65"/>
                      <rect class="cls-24" x="81.23" y="55.27" width="6.14" height="2.65"/>
                    </g>
                    <g>
                      <rect class="cls-24" x="73.49" y="60.68" width="6.14" height="2.65"/>
                      <rect class="cls-24" x="81.23" y="60.68" width="6.14" height="2.65"/>
                    </g>
                    <g>
                      <rect class="cls-24" x="73.49" y="66.09" width="6.14" height="2.65"/>
                      <rect class="cls-24" x="81.23" y="66.09" width="6.14" height="2.65"/>
                    </g>
                    <g>
                      <rect class="cls-24" x="73.49" y="71.5" width="6.14" height="2.65"/>
                      <rect class="cls-24" x="81.23" y="71.5" width="6.14" height="2.65"/>
                    </g>
                    <g>
                      <rect class="cls-24" x="73.49" y="76.91" width="6.14" height="2.65"/>
                      <rect class="cls-24" x="81.23" y="76.91" width="6.14" height="2.65"/>
                    </g>
                  </g>
                  <g>
                    <g>
                      <rect class="cls-24" x="96.36" y="49.86" width="6.14" height="2.65"/>
                      <rect class="cls-24" x="104.11" y="49.86" width="6.14" height="2.65"/>
                    </g>
                    <g>
                      <rect class="cls-24" x="96.36" y="55.27" width="6.14" height="2.65"/>
                      <rect class="cls-24" x="104.11" y="55.27" width="6.14" height="2.65"/>
                    </g>
                    <g>
                      <rect class="cls-24" x="96.36" y="60.68" width="6.14" height="2.65"/>
                      <rect class="cls-24" x="104.11" y="60.68" width="6.14" height="2.65"/>
                    </g>
                    <g>
                      <rect class="cls-24" x="96.36" y="66.09" width="6.14" height="2.65"/>
                      <rect class="cls-24" x="104.11" y="66.09" width="6.14" height="2.65"/>
                    </g>
                    <g>
                      <rect class="cls-24" x="96.36" y="71.5" width="6.14" height="2.65"/>
                      <rect class="cls-24" x="104.11" y="71.5" width="6.14" height="2.65"/>
                    </g>
                    <g>
                      <rect class="cls-24" x="96.36" y="76.91" width="6.14" height="2.65"/>
                      <rect class="cls-24" x="104.11" y="76.91" width="6.14" height="2.65"/>
                    </g>
                  </g>
                  <rect class="cls-24" x="17.93" y="55.27" width="29.27" height="2.65"/>
                  <rect class="cls-24" x="17.93" y="60.68" width="39.95" height="2.65"/>
                  <rect class="cls-24" x="17.93" y="66.09" width="19.97" height="2.65"/>
                  <rect class="cls-24" x="17.93" y="71.5" width="42.83" height="2.65"/>
                  <rect class="cls-24" x="17.93" y="76.91" width="35.4" height="2.65"/>
                </g>
              </g>
              <g class="cls-30">
                <polygon class="cls-27" points="61.1 36.84 12.62 85.32 12.62 49 24.78 36.84 61.1 36.84"/>
                <polygon class="cls-27" points="76.9 36.84 25.47 88.26 17.22 88.26 68.65 36.84 76.9 36.84"/>
                <path class="cls-27" d="M120.07,38.67v4.12L74.6,88.26h-16L110,36.83h8.24A1.84,1.84,0,0,1,120.07,38.67Z"/>
                <polygon class="cls-27" points="120.07 46.67 120.07 52 83.81 88.26 78.47 88.26 120.07 46.67"/>
                <polygon class="cls-27" points="120.07 63.66 120.07 73.2 105 88.26 95.46 88.26 120.07 63.66"/>
              </g>
            </g>
            <g>
              <g>
                <path class="cls-22" d="M213.54,38.67V63.52H322.62V38.67A2.65,2.65,0,0,0,320,36H216.2A2.65,2.65,0,0,0,213.54,38.67Z"/>
                <rect class="cls-28" x="242.37" y="8.82" width="51.43" height="107.45" rx="3.18" transform="translate(330.63 -205.54) rotate(90)"/>
                <rect class="cls-29" x="217.63" y="40.1" width="100.9" height="44.88" rx="3.18" transform="translate(536.16 125.09) rotate(180)"/>
                <g>
                  <rect class="cls-24" x="223.77" y="43.09" width="14.7" height="3.1" transform="translate(462.23 89.29) rotate(180)"/>
                  <g>
                    <g>
                      <rect class="cls-24" x="231.92" y="49.86" width="6.14" height="2.65" transform="translate(469.98 102.37) rotate(180)"/>
                      <rect class="cls-24" x="224.17" y="49.86" width="6.14" height="2.65" transform="translate(454.48 102.37) rotate(180)"/>
                    </g>
                    <g>
                      <rect class="cls-24" x="231.92" y="55.27" width="6.14" height="2.65" transform="translate(469.98 113.19) rotate(180)"/>
                      <rect class="cls-24" x="224.17" y="55.27" width="6.14" height="2.65" transform="translate(454.48 113.19) rotate(180)"/>
                    </g>
                    <g>
                      <rect class="cls-24" x="231.92" y="60.68" width="6.14" height="2.65" transform="translate(469.98 124.01) rotate(180)"/>
                      <rect class="cls-24" x="224.17" y="60.68" width="6.14" height="2.65" transform="translate(454.48 124.01) rotate(180)"/>
                    </g>
                    <g>
                      <rect class="cls-24" x="231.92" y="66.09" width="6.14" height="2.65" transform="translate(469.98 134.83) rotate(180)"/>
                      <rect class="cls-24" x="224.17" y="66.09" width="6.14" height="2.65" transform="translate(454.48 134.83) rotate(180)"/>
                    </g>
                    <g>
                      <rect class="cls-24" x="231.92" y="71.5" width="6.14" height="2.65" transform="translate(469.98 145.65) rotate(180)"/>
                      <rect class="cls-24" x="224.17" y="71.5" width="6.14" height="2.65" transform="translate(454.48 145.65) rotate(180)"/>
                    </g>
                    <g>
                      <rect class="cls-24" x="231.92" y="76.91" width="6.14" height="2.65" transform="translate(469.98 156.47) rotate(180)"/>
                      <rect class="cls-24" x="224.17" y="76.91" width="6.14" height="2.65" transform="translate(454.48 156.47) rotate(180)"/>
                    </g>
                  </g>
                </g>
              </g>
              <g class="cls-30">
                <path class="cls-27" d="M214.36,38.67v4.12l45.47,45.47h16L224.44,36.83H216.2A1.84,1.84,0,0,0,214.36,38.67Z"/>
                <polygon class="cls-27" points="214.36 46.67 214.36 52 250.62 88.26 255.95 88.26 214.36 46.67"/>
                <polygon class="cls-27" points="214.36 63.66 214.36 73.2 229.42 88.26 238.96 88.26 214.36 63.66"/>
              </g>
            </g>
            <g>
              <g>
                <rect class="cls-31" x="-246.29" y="22.35" width="827" height="7.28"/>
                <rect class="cls-23" x="-246.29" y="25.99" width="827" height="3.64"/>
              </g>
              <g>
                <g>
                  <rect class="cls-32" x="162.07" y="-46.17" width="5.14" height="68.51"/>
                  <g>
                    <rect class="cls-32" x="53.37" y="-46.17" width="9.88" height="68.51"/>
                    <g>
                      <g>
                        <polygon class="cls-32" points="53.37 17.79 53.37 22.35 46.79 22.35 3.96 -7.35 -2.62 -11.91 -42.84 -39.8 -45.45 -41.6 -45.45 -46.17 -38.87 -46.17 3.96 -16.47 10.54 -11.91 50.75 15.97 53.37 17.79"/>
                        <polygon class="cls-23" points="50.75 15.97 53.37 17.79 53.37 22.35 50.75 22.35 50.75 15.97"/>
                      </g>
                      <polygon class="cls-32" points="53.37 -46.17 53.37 -41.6 50.75 -39.79 10.54 -11.91 3.96 -7.35 -38.87 22.35 -45.45 22.35 -45.45 17.79 -42.84 15.98 -2.62 -11.91 3.96 -16.47 46.79 -46.17 53.37 -46.17"/>
                    </g>
                    <g>
                      <g>
                        <polygon class="cls-32" points="162.07 17.79 162.07 22.35 155.49 22.35 112.67 -7.35 106.08 -11.91 65.86 -39.8 63.25 -41.6 63.25 -46.17 69.83 -46.17 112.67 -16.47 119.25 -11.91 159.46 15.97 162.07 17.79"/>
                        <polygon class="cls-23" points="159.46 15.97 162.07 17.79 162.07 22.35 159.46 22.35 159.46 15.97"/>
                      </g>
                      <g>
                        <polygon class="cls-32" points="162.07 -46.17 162.07 -41.6 159.46 -39.79 119.25 -11.91 112.67 -7.35 69.83 22.35 63.25 22.35 63.25 17.79 65.86 15.98 106.08 -11.91 112.67 -16.47 155.49 -46.17 162.07 -46.17"/>
                        <polygon class="cls-23" points="63.25 17.79 65.86 15.98 65.86 22.35 63.25 22.35 63.25 17.79"/>
                      </g>
                    </g>
                  </g>
                </g>
                <g>
                  <rect class="cls-32" x="167.21" y="-46.17" width="5.14" height="68.51"/>
                  <g>
                    <g>
                      <polygon class="cls-32" points="172.35 17.79 172.35 22.35 178.93 22.35 221.76 -7.35 228.34 -11.91 268.56 -39.8 271.17 -41.6 271.17 -46.17 264.59 -46.17 221.76 -16.47 215.18 -11.91 174.97 15.97 172.35 17.79"/>
                      <polygon class="cls-23" points="174.97 15.97 172.35 17.79 172.35 22.35 174.97 22.35 174.97 15.97"/>
                    </g>
                    <polygon class="cls-32" points="172.35 -46.17 172.35 -41.6 174.97 -39.79 215.18 -11.91 221.76 -7.35 264.59 22.35 271.17 22.35 271.17 17.79 268.56 15.98 228.34 -11.91 221.76 -16.47 178.93 -46.17 172.35 -46.17"/>
                  </g>
                </g>
              </g>
            </g>
          </g>
        </g>
        <g>
          <ellipse class="cls-22" cx="136.45" cy="201.05" rx="18.89" ry="1.1"/>
          <g>
            <path class="cls-33" d="M127.67,158.52c2.35-.65,5.53-1.49,6.7-1.86l-1.46-3.73s-4.69.61-6.77,1S124.74,159.32,127.67,158.52Z"/>
            <g>
              <g>
                <g>
                  <path class="cls-34" d="M134.71,201.33h3.44l.5-.28.36.28h3.48a.37.37,0,0,0,.37-.38l0-.59a5.86,5.86,0,0,0-.26-1.06,6,6,0,0,1-.14-.61l-.09-.54h-4l-.69.94a1.66,1.66,0,0,1-1.26.31h-.56a.83.83,0,0,0-.73.43l-.65,1.06,0,0A.27.27,0,0,0,134.71,201.33Z"/>
                  <path class="cls-25" d="M134.71,201.33h3.44l.5-.28.36.28h3.48a.37.37,0,0,0,.37-.38l0-.59h-4a.81.81,0,0,0-.5.16l-.39.27a.57.57,0,0,1-.31.1H134.5l0,0A.27.27,0,0,0,134.71,201.33Z"/>
                </g>
                <path class="cls-35" d="M142.86,201l0-.59h-3.08a8.64,8.64,0,0,1,.71-2.21h1.88l.09.54a6,6,0,0,0,.14.61,5.86,5.86,0,0,1,.26,1.06l0,.59a.37.37,0,0,1-.37.38h0A.37.37,0,0,0,142.86,201Z"/>
                <path class="cls-2" d="M142.83,200.36l0,.59a.37.37,0,0,1-.37.38H139.7a9.05,9.05,0,0,1,.05-1Z"/>
              </g>
              <polygon class="cls-36" points="138.15 201.33 139.01 201.33 138.65 201.05 138.15 201.33"/>
            </g>
            <g>
              <g>
                <g>
                  <path class="cls-34" d="M128.31,201.33h3.44l.5-.28.36.28h3.48a.35.35,0,0,0,.36-.38l0-.59a5.19,5.19,0,0,0-.25-1.06,3.18,3.18,0,0,1-.14-.61l-.09-.54H132l-.69.94a1.68,1.68,0,0,1-1.27.31h-.55a.83.83,0,0,0-.73.43l-.65,1.06,0,0A.27.27,0,0,0,128.31,201.33Z"/>
                  <path class="cls-25" d="M128.31,201.33h3.44l.5-.28.36.28h3.48a.35.35,0,0,0,.36-.38l0-.59h-4a.83.83,0,0,0-.5.16l-.39.27a.57.57,0,0,1-.31.1H128.1l0,0A.27.27,0,0,0,128.31,201.33Z"/>
                </g>
                <path class="cls-35" d="M136.45,201l0-.59h-3.07a8.71,8.71,0,0,1,.7-2.21h1.89l.09.54a3.18,3.18,0,0,0,.14.61,5.19,5.19,0,0,1,.25,1.06l0,.59a.35.35,0,0,1-.36.38h0A.35.35,0,0,0,136.45,201Z"/>
                <path class="cls-2" d="M136.42,200.36l0,.59a.35.35,0,0,1-.36.38h-2.8a6.9,6.9,0,0,1,.06-1Z"/>
              </g>
              <polygon class="cls-36" points="131.75 201.33 132.61 201.33 132.25 201.05 131.75 201.33"/>
            </g>
            <path class="cls-37" d="M135.71,164l1.49,18.83.44,15.94a.16.16,0,0,0,.16.15h4.74a.15.15,0,0,0,.16-.15l.12-15.94L144,164Z"/>
            <path class="cls-38" d="M136.48,164h-.77l1.49,18.83.44,15.94a.16.16,0,0,0,.16.15h.75l-.4-15.45Z"/>
            <path class="cls-37" d="M130.32,164.25l.47,18.54.45,15.89c0,.18.09.2.19.2h4.71a.14.14,0,0,0,.14-.14l.27-16,2-18.83Z"/>
            <path class="cls-38" d="M130.91,164.23l-.59,0,.47,18.54.45,15.89c0,.18.09.2.19.2h.71l-.65-16.11Z"/>
            <path class="cls-33" d="M133.08,141.4h8.85a3.34,3.34,0,0,1,3.33,3.58S144,157.71,144,159.92a34.06,34.06,0,0,0,.36,4.3.55.55,0,0,1-.54.63H130.57c-.32,0-.46-.09-.43-.42.16-1.67.48-5.06.48-8.93,0-4.76-.52-11-.52-11A3,3,0,0,1,133.08,141.4Z"/>
            <path class="cls-33" d="M130.46,143,124.71,155a2.49,2.49,0,0,0,.91,3.42,2.73,2.73,0,0,0,3.44-1.09c1.56-2.77,4.77-8.32,6.06-11C137,142.36,131.65,140.7,130.46,143Z"/>
            <g>
              <g>
                <path class="cls-39" d="M136.61,129c-1.86,0-4.24,1-4.24,5.45a13.1,13.1,0,0,0,.8,5.24.81.81,0,0,0,.73.47h3a5.38,5.38,0,0,0,4.67-5.65C141.58,131.7,140.32,129,136.61,129Z"/>
                <path class="cls-40" d="M141.58,134.51a5.38,5.38,0,0,1-4.67,5.65H134a2.15,2.15,0,0,1-.55-.84c-1.23-3.09-.35-8.35-.34-8.41s0-.09.07-.13l0,0a1.43,1.43,0,0,1,.16-.24,3.17,3.17,0,0,1,.28-.34l.2-.19s.07-.06.1-.1l.11-.08.1-.08.22-.15.11-.06.23-.12.09,0,.26-.1.1,0,.26-.08.1,0,.51-.09h.14l.4,0C140.32,129,141.58,131.7,141.58,134.51Z"/>
              </g>
              <path class="cls-40" d="M139.5,138.73a5.89,5.89,0,0,0,.59,2.67h-5.2a4.05,4.05,0,0,0,.94-2.69Z"/>
              <path class="cls-38" d="M133.54,135.59c-.57-.46-.32-1.81-.64-2a2.43,2.43,0,0,0-.31-.14.25.25,0,0,1-.12-.08,5.89,5.89,0,0,1-.62-4.41s.33.83,1.37.37c.73-.32,5.83-2.6,8.14,1.35,0,0,2.75,3.86-1.29,7.93-.24.24-.46.51-1.68.51-3.85,0-3.94-1.84-3.94-1.84a1.35,1.35,0,0,0,.37-1.61C134.15,133.84,133.54,135.59,133.54,135.59Z"/>
              <path class="cls-25" d="M140.07,138.65c-.24.24-.46.51-1.68.51-3.85,0-3.94-1.84-3.94-1.84a1.35,1.35,0,0,0,.37-1.61c-.67-1.87-1.28-.12-1.28-.12-.3-.53,0-2.84-.42-3a2.77,2.77,0,0,0-.37-.16.33.33,0,0,1-.14-.1,6.27,6.27,0,0,1-.76-3.29v0s.33.83,1.37.37c.73-.32,5.83-2.6,8.14,1.35C141.36,130.72,144.11,134.58,140.07,138.65Z"/>
              <path class="cls-27" d="M140.66,141.4l-.29-.56a.46.46,0,0,0-.41-.26h-3.32c-1.53,0-2.16.6-2.16.82Z"/>
            </g>
            <path class="cls-27" d="M130.62,154.62h0v.88c0,3.87-.32,7.26-.48,8.93,0,.33.11.42.43.42C130.47,164.51,131.34,158,130.62,154.62Z"/>
            <path class="cls-27" d="M125.28,154.67c.27-.58,5.16-10.6,5.56-11.45a3.05,3.05,0,0,1,2.71-1.53h9a2.63,2.63,0,0,1,1.85.79,3.33,3.33,0,0,0-2.46-1.08h-8.85a3,3,0,0,0-2.57,1.47.35.35,0,0,1,0,.08l0,0-.09.21L124.71,155a2.49,2.49,0,0,0,.91,3.42,2.62,2.62,0,0,0,1.18.23,2.1,2.1,0,0,1-1.47-.64C124.34,157.17,124.89,155.53,125.28,154.67Z"/>
          </g>
        </g>
        <g>
          <path class="cls-22" d="M51.26,209.16c0,.94,13.1,1.71,29.25,1.71s29.25-.77,29.25-1.71-13.1-1.71-29.25-1.71S51.26,208.22,51.26,209.16Z"/>
          <g>
            <g>
              <g>
                <path class="cls-41" d="M73.31,208.1v.83a.86.86,0,0,1-.12.35.58.58,0,0,1-.48.25H64.94a.4.4,0,0,1-.21-.41h0s0,0,0,0a2.79,2.79,0,0,1,0-.33.38.38,0,0,1,0-.1.38.38,0,0,1,0-.1v-.06c0-.22,0-.43,0-.46.15-.8.62-.81,1.42-1,1.43-.26,1.26-.94,1.69-1.37a1,1,0,0,1,.69-.29h4l.12,0,.15.09,0,0,0,0a.57.57,0,0,1,.13.21l0,0a.13.13,0,0,0,0,.06s0,0,0,.06Z"/>
                <path class="cls-42" d="M73.31,208.1v.83a.86.86,0,0,1-.12.35.58.58,0,0,1-.48.25H64.94a.4.4,0,0,1-.21-.41h0s0,0,0,0a2.79,2.79,0,0,1,0-.33.38.38,0,0,1,0-.1.38.38,0,0,1,0-.1v-.06a4.16,4.16,0,0,0,3.88-1.55,6.27,6.27,0,0,1,1.87-1.53h2l.12,0a.46.46,0,0,1,.15.09l0,0,0,0a.57.57,0,0,1,.13.21l0,0s0,0,0,.06,0,0,0,.06Z"/>
              </g>
              <path class="cls-43" d="M68.43,166.93s-1,37.88-1,39,5.91,1.3,5.91.27c0-.64,1.22-17.66,1.22-17.66s2.81-20.27,2.86-21.57Z"/>
              <g>
                <path class="cls-41" d="M77,208.1v.83a.73.73,0,0,0,.12.35.55.55,0,0,0,.48.25h7.76a.4.4,0,0,0,.21-.41h0v0c0-.06,0-.19,0-.33a.31.31,0,0,1,0-.1.31.31,0,0,1,0-.1v-.06c0-.22,0-.43,0-.46-.15-.8-.61-.81-1.42-1-1.43-.26-1.26-.94-1.69-1.37a1,1,0,0,0-.68-.29h-4l-.12,0a.83.83,0,0,0-.16.09l0,0-.05,0a.74.74,0,0,0-.13.21s0,0,0,0a.13.13,0,0,0,0,.06.13.13,0,0,0,0,.06Z"/>
                <path class="cls-42" d="M77,208.1v.83a.73.73,0,0,0,.12.35.55.55,0,0,0,.48.25h7.76a.4.4,0,0,0,.21-.41h0v0c0-.06,0-.19,0-.33a.31.31,0,0,1,0-.1.31.31,0,0,1,0-.1v-.06a4.16,4.16,0,0,1-3.88-1.55,6.27,6.27,0,0,0-1.87-1.53h-2l-.12,0a.51.51,0,0,0-.16.09l0,0-.05,0a.74.74,0,0,0-.13.21s0,0,0,0a.13.13,0,0,0,0,.06.13.13,0,0,0,0,.06Z"/>
              </g>
              <path class="cls-43" d="M84.08,166.93s-1.2,38.13-1.2,39.2-5.9,1.14-5.9.12c0-.64-.27-17.75-.27-17.75s-.95-20.27-1-21.57Z"/>
              <path class="cls-44" d="M83.33,166.93l-1.08,39.71a10.11,10.11,0,0,1-4.67.08V190.87c0-1.71-1.42-14.09-1.42-14.09S73.66,189,73.5,191.16l-1.17,15.55a10.11,10.11,0,0,1-4.37-.34l1-39.44Z"/>
            </g>
            <g>
              <g>
                <path class="cls-45" d="M76.26,141.52H73.94v-5.74h4.63v5.74Z"/>
                <g>
                  <path class="cls-45" d="M73.11,134.56c0,.8-.33,1.45-1,1.45s-.53-.23-.67-1.45c-.09-.8-.74-1.45.5-1.45A1.32,1.32,0,0,1,73.11,134.56Z"/>
                  <path class="cls-45" d="M79.41,134.56c0,.8.33,1.45,1,1.45s.53-.23.66-1.45c.09-.8.75-1.45-.49-1.45A1.32,1.32,0,0,0,79.41,134.56Z"/>
                  <path class="cls-45" d="M76.26,127.19a4.59,4.59,0,0,0-4.71,4.46l.27,2.47a12.42,12.42,0,0,0,.94,3.6c.75,1.73,1.55,2.37,3.5,2.37s2.74-.64,3.49-2.37a12.11,12.11,0,0,0,.94-3.6l.27-2.47A4.58,4.58,0,0,0,76.26,127.19Z"/>
                  <path class="cls-46" d="M79.77,128.26a3.64,3.64,0,0,0-3.51-1.84,5.51,5.51,0,0,0-4.38,2.17,3.84,3.84,0,0,1-2.33,1.4l-.32.06c1.12.34,1.7.56,1.7.56a5.24,5.24,0,0,0-1.39.61c1.19.4,2.24,2.25,2.7,4.76.29,1.54,1.71,3.68,4,3.68h0c2.29,0,3.72-2.14,4-3.68.47-2.51,1.29-3.07,1.29-4.83A2.81,2.81,0,0,0,79.77,128.26Z"/>
                  <path class="cls-25" d="M81.57,131.15c0,1.76-.83,2.32-1.3,4.83a4.9,4.9,0,0,1-.87,2l-.07.1-.06.08a3.84,3.84,0,0,1-3,1.54h0a3.9,3.9,0,0,1-3.17-1.77,5,5,0,0,1-.84-1.91c-.46-2.51-1.52-4.36-2.7-4.76a5.06,5.06,0,0,1,1.39-.61s-.58-.22-1.69-.56h0l.32-.06a3.84,3.84,0,0,0,2.33-1.4,5.51,5.51,0,0,1,4.38-2.17,3.64,3.64,0,0,1,3.51,1.84A2.82,2.82,0,0,1,81.57,131.15Z"/>
                  <path class="cls-47" d="M73.08,137.89a5,5,0,0,1-.84-1.91c-.46-2.51-1.52-4.36-2.7-4.76a5.06,5.06,0,0,1,1.39-.61s.34.29,0,.38l-.74.14C72.32,132.48,72.41,135.68,73.08,137.89Z"/>
                  <path class="cls-25" d="M81.57,131.15c0,1.76-.83,2.32-1.3,4.83a4.9,4.9,0,0,1-.87,2c.63-.95.61-2.91,1.43-5.06s-1.42-4-1.42-4a4.82,4.82,0,0,0-3.5-1.61c-2.19,0-3.28,1.78-4.36,2.44a3.38,3.38,0,0,1-2.31.39h0l.32-.06a3.84,3.84,0,0,0,2.33-1.4,5.51,5.51,0,0,1,4.38-2.17,3.64,3.64,0,0,1,3.51,1.84A2.82,2.82,0,0,1,81.57,131.15Z"/>
                </g>
              </g>
              <polygon class="cls-48" points="78.57 140.42 76.26 140.42 73.94 140.42 73.08 141.52 76.26 141.33 79.43 141.52 78.57 140.42"/>
            </g>
            <path class="cls-49" d="M82.7,141.82a3.69,3.69,0,0,0-1.5-.3s-1.94-.19-4.94-.19-4.89.19-4.89.19a3.57,3.57,0,0,0-2,.6,3.38,3.38,0,0,0-1.48,2.76l.89,15.58L68.2,168a.49.49,0,0,0,.28.47c.62.28,2.44.78,7.41.78,5.19,0,7.35-.54,8.1-.81a.47.47,0,0,0,.32-.48l-.55-7.45.88-15.58A3.29,3.29,0,0,0,82.7,141.82Z"/>
            <g>
              <g>
                <path class="cls-50" d="M64.43,170.89c.42,0,1.67,1,1.71,1.51a23.6,23.6,0,0,1,.14,4.48c.18,0,.53.32.41.58a.36.36,0,0,1-.34.23s.05.37-.42.43c0,0-.07.33-.36.35,0,0,0,.39-.52.35a4.37,4.37,0,0,1-1.37-.4,9.1,9.1,0,0,1-1.63-1.93c0-.3.82-3.87.89-4.26S63.65,170.88,64.43,170.89Z"/>
                <path class="cls-51" d="M64.17,177.82a4.93,4.93,0,0,0,.77.36c.22,0,.45-.2.33-.34s.48-.06.34-.27c0,0,.54-.08.42-.27,0,0,.46-.24.25-.42a.42.42,0,0,1-.39-.35,10.48,10.48,0,0,1-.12-1.63,5.25,5.25,0,0,1-.63-1.52,3.13,3.13,0,0,1-1.7,2.15s-.09,1-.06,1.12A7.74,7.74,0,0,0,64.17,177.82Z"/>
              </g>
              <path class="cls-49" d="M71.15,141.52c-2.86,0-4.73,1.38-5.5,3.57s-3.06,14.2-3.06,14.2-.19,11.81-.19,12.85,4.16,1.14,4.23,0,.75-12.31.75-12.31,2.63-12.08,3.13-13.52S72.5,141.52,71.15,141.52Z"/>
            </g>
            <g>
              <path class="cls-45" d="M97,169.12a11.8,11.8,0,0,1,1.32,1.27,2.79,2.79,0,0,1,.36,1.46c-.06.3-1,1-1.21,1s-.63-.45-.33-.75.66-.62.66-.62l-.08-1Z"/>
              <g>
                <g>
                  <g>
                    <rect class="cls-52" x="92.21" y="171.64" width="7.58" height="1.05"/>
                    <rect class="cls-52" x="91.57" y="172.28" width="2.32" height="1.05" transform="translate(265.54 80.07) rotate(90)"/>
                    <rect class="cls-27" x="86.43" y="179.85" width="12.6" height="0.83" transform="translate(273 87.53) rotate(90)"/>
                    <rect class="cls-23" x="92.63" y="180.84" width="0.21" height="0.83" transform="translate(273.99 88.52) rotate(90)"/>
                    <rect class="cls-27" x="92.97" y="179.85" width="12.6" height="0.83" transform="translate(279.53 81) rotate(90)"/>
                    <rect class="cls-23" x="99.16" y="180.84" width="0.21" height="0.83" transform="translate(280.52 81.99) rotate(90)"/>
                    <rect class="cls-52" x="98.11" y="172.28" width="2.32" height="1.05" transform="translate(272.07 73.54) rotate(90)"/>
                  </g>
                  <path class="cls-52" d="M93.33,186.21h5.35a4.62,4.62,0,0,1,4.62,4.62V204.9a2,2,0,0,1-2,2H90.74a2,2,0,0,1-2-2V190.83A4.62,4.62,0,0,1,93.33,186.21Z"/>
                  <path class="cls-53" d="M93.33,186.57h5.35a4.62,4.62,0,0,1,4.62,4.62v14.07a2,2,0,0,1-2,2H90.74a2,2,0,0,1-2-2V191.19a4.62,4.62,0,0,1,4.62-4.62Z"/>
                  <path class="cls-54" d="M102.79,187.32v19a.44.44,0,0,1-.43.44H89.64a.44.44,0,0,1-.43-.44v-19a2.1,2.1,0,0,1,1.63-.76h10.32A2.12,2.12,0,0,1,102.79,187.32Z"/>
                  <path class="cls-52" d="M103.3,197.94h0a.26.26,0,0,1-.26-.24,3.89,3.89,0,0,0-3.88-3.64H92.83A3.89,3.89,0,0,0,89,197.7a.26.26,0,0,1-.26.24h0a4.14,4.14,0,0,1,4.13-4.13h6.33A4.14,4.14,0,0,1,103.3,197.94Z"/>
                  <rect class="cls-52" x="91.87" y="198.43" width="8.25" height="0.36" rx="0.11"/>
                  <rect class="cls-52" x="93.08" y="190.13" width="5.85" height="1.06"/>
                </g>
                <g>
                  <path class="cls-49" d="M90.54,207.29H91a0,0,0,0,1,0,0v1a0,0,0,0,1,0,0h-.16a.27.27,0,0,1-.27-.27v-.77A0,0,0,0,1,90.54,207.29Z"/>
                  <path class="cls-49" d="M92.06,207.29h.43a0,0,0,0,1,0,0v.77a.27.27,0,0,1-.27.27h-.16a0,0,0,0,1,0,0v-1A0,0,0,0,1,92.06,207.29Z"/>
                  <rect class="cls-49" x="91.3" y="206.96" width="0.43" height="1.09" transform="translate(-115.99 299.02) rotate(-90)"/>
                  <rect class="cls-52" x="90.97" y="207.72" width="1.09" height="1.81" rx="0.34"/>
                </g>
                <g>
                  <path class="cls-49" d="M101.3,207.29h.16a0,0,0,0,1,0,0v1a0,0,0,0,1,0,0H101a0,0,0,0,1,0,0v-.77A.27.27,0,0,1,101.3,207.29Z" transform="translate(202.49 415.63) rotate(180)"/>
                  <path class="cls-49" d="M99.52,207.29h.16a.27.27,0,0,1,.27.27v.77a0,0,0,0,1,0,0h-.43a0,0,0,0,1,0,0v-1A0,0,0,0,1,99.52,207.29Z" transform="translate(199.46 415.63) rotate(-180)"/>
                  <rect class="cls-49" x="100.27" y="206.96" width="0.43" height="1.09" transform="translate(-107.02 307.99) rotate(-90)"/>
                  <rect class="cls-52" x="99.94" y="207.72" width="1.09" height="1.81" rx="0.34" transform="translate(200.97 417.25) rotate(180)"/>
                </g>
              </g>
              <path class="cls-45" d="M92.68,169.79s.29,1.35.37,1.8.19,1,.23,1.1a1.31,1.31,0,0,0,.78.56,1,1,0,0,0,.5-.18,1,1,0,0,0,.53.18,1.87,1.87,0,0,0,.66-.18,1.85,1.85,0,0,0,.62.18,1.61,1.61,0,0,0,.58-.18,1.19,1.19,0,0,0,.54.18.67.67,0,0,0,.75-.56,9.51,9.51,0,0,0-.18-2.36A28.92,28.92,0,0,0,96,168.17c-.2-.28-1.45-1.62-2.89-1S92.68,169.79,92.68,169.79Z"/>
              <path class="cls-49" d="M81.45,141.52c1.21,0,4,.77,4.73,3s4.52,14.89,4.52,14.89,5,7.62,5.42,8.55-3.36,2.86-3.94,1.87c-.8-1.34-6-8.52-6-8.52s-4.75-14.56-5.26-16S80.11,141.52,81.45,141.52Z"/>
            </g>
            <path class="cls-55" d="M97.73,171l-4.47-.51-.3-.42-6.19-8.82a2.38,2.38,0,0,1-.28-.55l-2.9-8.19-.67,7.27a8.69,8.69,0,0,0,0,1.35l.42,7.45a33,33,0,0,1-7.43.61,26.53,26.53,0,0,1-7-.61s.53-7.27.5-8.26-.86-7.51-.86-7.51l-1.74,6.34a5.27,5.27,0,0,0-.15,1l-.53,12.54,0,1.36-3.42-.66,0-.79.34-12.85a4.78,4.78,0,0,1,.08-.75c.39-2.19,2.38-13.25,2.94-14.14a5.25,5.25,0,0,1,5.17-2.95H81c1.11,0,3.8.48,4.63,2.64s4.32,14.43,4.58,15c.17.41,3.7,5.7,5.87,8.94C97,170,97.73,171,97.73,171Z"/>
          </g>
        </g>
        <rect id="background" class="cls-1" x="-124.06" y="-80.07" width="582.54" height="411.9"/>
      </g>
    </g>
    <path class="cls-27" d="M195.33.42H38.27A38.23,38.23,0,0,0,.08,38.61V195.68A41.92,41.92,0,0,0,42,237.56H195.33a41.92,41.92,0,0,0,41.88-41.88V42.3A41.92,41.92,0,0,0,195.33.42Zm35.12,195.26a35.11,35.11,0,0,1-35.12,35.11H42A35.11,35.11,0,0,1,6.84,195.68V41.15a34,34,0,0,1,34-34H195.33A35.11,35.11,0,0,1,230.45,42.3Z"/>
  </g>
</svg>
