<svg id="Layer_1" data-name="Layer 1" xmlns="http://www.w3.org/2000/svg" width="240.09" height="146.81" viewBox="0 0 240.09 146.81">
  <defs>
    <style>
      .cls-1 {
        opacity: 0.5;
      }

      .cls-2 {
        fill: #fff;
      }

      .cls-3 {
        fill: #8e8149;
      }

      .cls-4 {
        fill: #d6e0ca;
      }

      .cls-5 {
        fill: #b29e66;
      }

      .cls-6 {
        fill: #d3c589;
      }

      .cls-7 {
        fill: #514619;
        opacity: 0.54;
      }

      .cls-8 {
        fill: #ffd757;
      }

      .cls-9 {
        fill: #615a3e;
      }

      .cls-10 {
        opacity: 0.58;
      }

      .cls-11 {
        fill: none;
        stroke: #514619;
        stroke-miterlimit: 10;
      }
    </style>
  </defs>
  <g>
    <path class="cls-1" d="M71.54,146.81c-.23,0-.46,0-.69,0a10,10,0,0,1-7.72-4.24,9.22,9.22,0,0,1-.65-1.09c-.35,0-.71,0-1.07,0a14.9,14.9,0,0,1-3-.33c-5.53-1.11-8-5.33-8.07-9a7.77,7.77,0,0,1,0-.8,9,9,0,0,1-1.52-4.65,9.52,9.52,0,0,1,4-8.08l.58-.43a9.47,9.47,0,0,1,1.14-4.94,10,10,0,0,1,7.29-5.05,11.55,11.55,0,0,1,1.68-.13,8.77,8.77,0,0,1,.88,0,12.71,12.71,0,0,1,5.85,2.11c1.18-2,2.44-4.06,3.74-6,.38-.58.77-1.16,1.16-1.73-3,.29-6,.68-9.11,1.07l-3.36.42c-2,.25-4.36.53-6.77.76-3.92.38-7.55.56-11.1.56a87,87,0,0,1-23.87-3.2,18.4,18.4,0,0,1-2.31-.85C18.17,101,7.31,96.11,5.57,88.39a10.14,10.14,0,0,1-.24-2.68,12.59,12.59,0,0,1,2.2-10.35,11.73,11.73,0,0,1,.83-1,22,22,0,0,1,4.24-3.62,99.88,99.88,0,0,1,16.19-9,14.6,14.6,0,0,0,2.2-2c2.23-2.32,5.28-5.51,10.22-6.45l.06,0A16.24,16.24,0,0,1,44.15,53a16.42,16.42,0,0,1,3.19.31,11.22,11.22,0,0,1,2.23-1.77,14.76,14.76,0,0,1,2.62-1.29A9.53,9.53,0,0,1,58,43.08a12,12,0,0,1,1.78-.6,10.9,10.9,0,0,1,2.61-.31,10.69,10.69,0,0,1,3.6.62l.39.15a9.22,9.22,0,0,1,1-.24,9.48,9.48,0,0,1,1.69-.15,9.9,9.9,0,0,1,9.69,7.88,10.06,10.06,0,0,1,.07,3.21A34.57,34.57,0,0,1,84,55.51c2.68,1.05,5.32,2.17,7.9,3.29l.6-.21a185.11,185.11,0,0,1,18.54-5.07c1.62-.35,3.26-.68,4.89-1a9.31,9.31,0,0,1,5.56-6.85,15,15,0,0,1,2.75-1,9.53,9.53,0,0,1,6.51-6.48,12.07,12.07,0,0,1,1.85-.4,10.91,10.91,0,0,1,6.13,1l.36.19a9.37,9.37,0,0,1,1.68-.14,9.65,9.65,0,0,1,2.39.29,9.88,9.88,0,0,1,7.46,8.65,8.45,8.45,0,0,1,0,1.51c1.53,0,3,0,4.28.05a9.12,9.12,0,0,1-.37-2.3c-.18-5,3.46-9.18,8.85-10.22.53-.1,1.09-.17,1.66-.22l2.06-.14c1.05-.07,2.14-.14,3.21-.24l.4,0h0c1.32-.13,2.28-.27,3.11-.43.4-.08.8-.17,1.19-.28l.08,0c.38-.1.75-.22,1.08-.34h0c.24-.09.48-.17.71-.27l.06,0,.35-.18.34-.22.13-.09.25-.19a1.09,1.09,0,0,0,.18-.15l.29-.29.13-.16.14-.19c.11-.15.21-.28.3-.42l.12-.19c.11-.17.2-.32.29-.48l.15-.28c.06-.11.26-.52.26-.52.17-.36.35-.79.52-1.23l.1-.27c.15-.38.29-.78.42-1.17l.1-.29L181.6,27l.33-1.08c2-6.53,4.76-15.47,14.76-19.24l.15,0c.67-.25,1.35-.46,2-.65l.67-.17.78-.18c.6-.12,1.21-.23,1.85-.31.42-.06.85-.1,1.27-.14l.59,0h0c.67,0,1.34-.07,2-.08h.54c.58,0,1.13,0,1.69,0h.18c.2,0,.4,0,.6,0a35.26,35.26,0,0,1,5.52.88l.34.08a36.39,36.39,0,0,1,5.4,1.8l.48.2c.86.38,1.67.77,2.44,1.18l.46.25c.75.42,1.41.81,2,1.22l.51.33c.7.47,1.38,1,2.09,1.54.23.18.44.36.66.55.58.49,1.11,1,1.6,1.45A4.27,4.27,0,0,1,231,15c.24.24.44.46.64.68l.12.14c.34.36.67.72,1,1.09l.56.69.11.14c.32.41.65.83,1,1.25.18.25.34.49.5.73.34.5.66,1,1,1.52l.33.58c.31.53.6,1.1.88,1.67l.24.48.09.2c.17.38.34.78.5,1.17l.24.61c.16.41.31.84.45,1.27.07.21.13.41.19.61.14.44.27.88.38,1.33l.11.44c.13.57.23,1,.32,1.5,0,.08,0,.2.06.33a31.84,31.84,0,0,1,.45,4.79c0,.18,0,.34,0,.5,0,.41,0,.84,0,1.27,0,0,0,.48,0,.65,0,.41-.06.82-.1,1.23,0,.22,0,.45-.07.67,0,.41-.1.81-.16,1.21,0,.2-.06.4-.1.61-.07.45-.14.85-.23,1.25,0,.16-.13.58-.13.58-.1.45-.19.86-.3,1.27l0,.13c-.26,1-.58,2-.95,3.05l-.1.28c-.12.33-.29.75-.46,1.17l-.19.5c-.16.38-.33.77-.51,1.15l0,.07c-.05.12-.1.24-.16.36l-.09.17c-.2.44-.41.86-.63,1.28l-.21.42c-.24.45-.48.87-.72,1.29h0c-.1.18-.19.34-.3.51l0,0c-.21.36-.43.71-.65,1.06l-.18.29-.13.2c-.26.4-.52.78-.78,1.15l-.29.41c-.25.36-.52.73-.8,1.1-.06.09-.3.39-.3.39a1.79,1.79,0,0,1-.14.18A45.89,45.89,0,0,1,228,64.38l-.42.43-.18.17c-.43.43-.86.85-1.3,1.25l-.5.46-.17.14c-.56.5-1.11,1-1.67,1.42l-.32.25,0,0-.4.3c-.47.36-.9.68-1.34,1l-.21.15.05,0-.7.48c-.52.35-1.09.72-1.67,1.08l-.43.26c-.85.5-1.72,1-2.61,1.47s-1.69.89-2.54,1.32c-.42.21-.83.41-1.25.6l-1,.5c-1.11.57-2.18,1-3,1.39l-.32.14-.25.1L204,78.89c-2,.88-3.65,1.63-5.29,2.41-1.26.6-2.51,1.23-3.75,1.87l-.71.36-3.78,2-.15.08-3.83,2-2.35,1.22-.78.41c-2,1-3.87,1.91-5.58,2.69-.88.4-1.76.78-2.64,1.16h0l-.26.4L174,94.92l-.12.17.06,0a54.41,54.41,0,0,1,6.75,2.8c1.1.55,2.19,1.15,3.23,1.77l.31.19c.8.48,1.71,1,2.66,1.7l.09.07c.38.27.74.55,1.1.83l.21.18c.37.3.74.64,1.1,1l.25.24a16.63,16.63,0,0,1,1.18,1.34l.17.22a13,13,0,0,1,2,3.82,6,6,0,0,0,.77.45h.07c4.7.61,7.79,2.84,9.18,6.61a10.89,10.89,0,0,1-.78,9,10.26,10.26,0,0,1-7,5.25l-.29,0a9.61,9.61,0,0,1-1.51.12h-.43a14.64,14.64,0,0,1-2.33,4.4,10.24,10.24,0,0,1-6.6,4.24,8.54,8.54,0,0,1-1.46.12,8.88,8.88,0,0,1-3.76-.83,7.88,7.88,0,0,1-1-.57,5.81,5.81,0,0,1-.58.09,9.51,9.51,0,0,1-1.09.07,9,9,0,0,1-3.55-.72,9.76,9.76,0,0,1-5.72-7.27c-.09-.42-.17-.84-.23-1.27a9.66,9.66,0,0,1-4.53-3.4,10.13,10.13,0,0,1-1.88-6.57l-.16-.2a9.54,9.54,0,0,1-1.29-2.13c-.63,0-1.26,0-1.89,0h-.37c-2.39,0-8.74,0-12.88-5.05a12.93,12.93,0,0,1-2.79-6.34,110.24,110.24,0,0,1-14.62,1c-2.89,0-5.76-.11-8.54-.34-1-.08-2-.18-3-.3l-.44,0c-1.81-.22-3.73-.49-5.89-.84l1.1-7.93-1.29,7.9c-1.71-.28-3.43-.58-5.15-.88l-.32-.06a3.57,3.57,0,0,1-.1.35l-.27.91c-.06.18-.13.35-.19.53-.12.33-.23.64-.36,1l-.18.45c-.14.32-.29.65-.45,1l-.18.39c-.17.33-.35.68-.54,1l-.15.27c-.2.35-.42.72-.65,1.09l-.09.16a34.18,34.18,0,0,1-2.59,3.53c-2.47,3-5,6-7.71,9a29.2,29.2,0,0,1-3.88,4l.26.36A11.49,11.49,0,0,1,87.32,131,9.71,9.71,0,0,1,80,143.58a8.7,8.7,0,0,1-.87.13,10.46,10.46,0,0,1-6.26,3A11,11,0,0,1,71.54,146.81ZM197.21,40c-.17.32-.33.61-.5.9l-.14.22c-.19.34-.39.68-.59,1s-.52.79-.78,1.17-.43.63-.67.94-.57.76-.87,1.12-.45.54-.69.81-.66.74-1,1.1c-.17.18-.35.35-.53.52l-.1.1A30.36,30.36,0,0,1,187,51.44l.66,0,2.12-.07a72.8,72.8,0,0,0,9.31-1l.14,0q.34-.08.69-.18a24.81,24.81,0,0,1,3.21-.68l1.15-.33.11,0a32.78,32.78,0,0,0,4-1.49l.45-.24A22.25,22.25,0,0,0,211,46.17l.26-.15.47-.33.66-.44a12.51,12.51,0,0,0,1.13-.94c.17-.16.33-.31.48-.47a14.8,14.8,0,0,0,1-1.14l.05-.06c.26-.32.51-.67.75-1l.07-.1c.23-.36.45-.71.65-1.08a.31.31,0,0,0,.05-.1,13,13,0,0,0,.95-2.21l.11-.32.1-.34,0-.18c.09-.4.17-.79.23-1.18l0-.33a10.48,10.48,0,0,0,0-1.15v-.32c0-.05,0-.33,0-.33L218,33.5c0-.13,0-.23-.06-.33s-.09-.39-.1-.44-.05-.15-.07-.23a6.78,6.78,0,0,0-.75-1.65l-.07-.11-.16-.24-.06-.08a3.88,3.88,0,0,0-.24-.31l-.14-.17-.22-.24-.12-.13-.27-.27-.38-.34c-.3-.26-.62-.51-.94-.75l0,0c-.37-.27-.77-.52-1.17-.76l-.14-.07c-.31-.17-.63-.34-1-.49l-.18-.09c-.31-.14-.69-.29-1.07-.44s-.76-.25-1.11-.35l-.3-.09a12.25,12.25,0,0,0-2.18-.36h-.14l-.48,0c-.26,0-.52,0-.77,0h-.4l-.17,0-.39.06-.11,0a3.16,3.16,0,0,0-.37.12,2.45,2.45,0,0,0-.8.52l-.16.13a6.35,6.35,0,0,0-.85,1.08l-.08.13a14.54,14.54,0,0,0-.91,1.68l-.15.28c-.35.78-.72,1.67-1.13,2.77-.3.83-.6,1.65-.88,2.45-.06.17-.13.35-.2.52s-.19.49-.29.73l-.09.2c-.33.84-.7,1.68-1.09,2.48l-.09.2c-.14.29-.28.58-.42.85Z"/>
    <path class="cls-2" d="M66.54,141.81c-.23,0-.46,0-.69,0a10,10,0,0,1-7.72-4.24,9.22,9.22,0,0,1-.65-1.09c-.35,0-.71,0-1.07,0a14.9,14.9,0,0,1-3-.33c-5.53-1.11-8-5.33-8.07-9a7.77,7.77,0,0,1,0-.8,9,9,0,0,1-1.52-4.65,9.52,9.52,0,0,1,4-8.08l.58-.43a9.47,9.47,0,0,1,1.14-4.94,10,10,0,0,1,7.29-5.05,11.55,11.55,0,0,1,1.68-.13,8.77,8.77,0,0,1,.88,0,12.71,12.71,0,0,1,5.85,2.11c1.18-2,2.44-4.06,3.74-6,.38-.58.77-1.16,1.16-1.73-3,.29-6,.68-9.11,1.07L57.68,99c-2,.25-4.36.53-6.77.76-3.92.38-7.55.56-11.1.56a87,87,0,0,1-23.87-3.2,18.4,18.4,0,0,1-2.31-.85C13.17,96,2.31,91.11.57,83.39a10.14,10.14,0,0,1-.24-2.68,12.59,12.59,0,0,1,2.2-10.35,11.73,11.73,0,0,1,.83-1A22,22,0,0,1,7.6,65.72a99.88,99.88,0,0,1,16.19-9,14.6,14.6,0,0,0,2.2-2c2.23-2.32,5.28-5.51,10.22-6.45l.06,0A16.24,16.24,0,0,1,39.15,48a16.42,16.42,0,0,1,3.19.31,11.22,11.22,0,0,1,2.23-1.77,14.76,14.76,0,0,1,2.62-1.29A9.53,9.53,0,0,1,53,38.08a12,12,0,0,1,1.78-.6,10.9,10.9,0,0,1,2.61-.31,10.69,10.69,0,0,1,3.6.62l.39.15a9.22,9.22,0,0,1,1-.24,9.48,9.48,0,0,1,1.69-.15,9.9,9.9,0,0,1,9.69,7.88,10.06,10.06,0,0,1,.07,3.21A34.57,34.57,0,0,1,79,50.51c2.68,1.05,5.32,2.17,7.9,3.29l.6-.21a185.11,185.11,0,0,1,18.54-5.07c1.62-.35,3.26-.68,4.89-1a9.31,9.31,0,0,1,5.56-6.85,15,15,0,0,1,2.75-1,9.53,9.53,0,0,1,6.51-6.48,12.07,12.07,0,0,1,1.85-.4,10.91,10.91,0,0,1,6.13,1l.36.19a9.37,9.37,0,0,1,1.68-.14,9.65,9.65,0,0,1,2.39.29,9.88,9.88,0,0,1,7.46,8.65,8.45,8.45,0,0,1,0,1.51c1.53,0,3,0,4.28.05a9.12,9.12,0,0,1-.37-2.3c-.18-5,3.46-9.18,8.85-10.22.53-.1,1.09-.17,1.66-.22l2.06-.14c1.05-.07,2.14-.14,3.21-.24l.4-.05h0c1.32-.13,2.28-.27,3.11-.43.4-.08.8-.17,1.19-.28l.08,0c.38-.1.75-.22,1.08-.34h0c.24-.09.48-.17.71-.27l.06,0,.35-.18.34-.22.13-.09.25-.19a1.09,1.09,0,0,0,.18-.15l.29-.29.13-.16.14-.19c.11-.15.21-.28.3-.42l.12-.19c.11-.17.2-.32.29-.48l.15-.28c.06-.11.26-.52.26-.52.17-.36.35-.79.52-1.23l.1-.27c.15-.38.29-.78.42-1.17l.1-.29L176.6,22l.33-1.08c2-6.53,4.76-15.47,14.76-19.24l.15,0c.67-.25,1.35-.46,2-.65l.67-.17.78-.18c.6-.12,1.21-.23,1.85-.31.42-.06.85-.1,1.27-.14l.59,0h0c.67,0,1.34-.07,2-.08h.54c.58,0,1.13,0,1.69,0h.18c.2,0,.4,0,.6,0a35.26,35.26,0,0,1,5.52.88l.34.08a36.39,36.39,0,0,1,5.4,1.8l.48.2c.86.38,1.67.77,2.44,1.18l.46.25c.75.42,1.41.81,2,1.22l.51.33c.7.47,1.38,1,2.09,1.54.23.18.44.36.66.55.58.49,1.11,1,1.6,1.45A4.27,4.27,0,0,1,226,10c.24.24.44.46.64.68l.12.14c.34.36.67.72,1,1.09l.56.69.11.14c.32.41.65.83,1,1.25.18.25.34.49.5.73.34.5.66,1,1,1.52l.33.58c.31.53.6,1.1.88,1.67l.24.48.09.2c.17.38.34.78.5,1.17l.24.61c.16.41.31.84.45,1.27.07.21.13.41.19.61.14.44.27.88.38,1.33l.11.44c.13.57.23,1,.32,1.5,0,.08,0,.2.06.33a31.84,31.84,0,0,1,.45,4.79c0,.18,0,.34,0,.5,0,.41,0,.84,0,1.27,0,0,0,.48,0,.65,0,.41-.06.82-.1,1.23,0,.22,0,.45-.07.67,0,.41-.1.81-.16,1.21,0,.2-.06.4-.1.61-.07.45-.14.85-.23,1.25,0,.16-.13.58-.13.58-.1.45-.19.86-.3,1.27l0,.13c-.26,1-.58,2-.95,3.05l-.1.28c-.12.33-.29.75-.46,1.17l-.19.5c-.16.38-.33.77-.51,1.15l0,.07c-.05.12-.1.24-.16.36l-.09.17c-.2.44-.41.86-.63,1.28l-.21.42c-.24.45-.48.87-.72,1.29h0c-.1.18-.19.34-.3.51l0,0c-.21.36-.43.71-.65,1.06l-.18.29-.13.2c-.26.4-.52.78-.78,1.15l-.29.41c-.25.36-.52.73-.8,1.1-.06.09-.3.39-.3.39a1.79,1.79,0,0,1-.14.18A45.89,45.89,0,0,1,223,59.38l-.42.43-.18.17c-.43.43-.86.85-1.3,1.25l-.5.46-.17.14c-.56.5-1.11,1-1.67,1.42l-.32.25,0,0-.4.3c-.47.36-.9.68-1.34,1l-.21.15.05,0-.7.48c-.52.35-1.09.72-1.67,1.08l-.43.26c-.85.5-1.72,1-2.61,1.47s-1.69.89-2.54,1.32c-.42.21-.83.41-1.25.6l-1,.5c-1.11.57-2.18,1-3,1.39l-.32.14-.25.1L199,73.89c-2,.88-3.65,1.63-5.29,2.41-1.26.6-2.51,1.23-3.75,1.87l-.71.36-3.78,2-.15.08-3.83,2-2.35,1.22-.78.41c-2,1-3.87,1.91-5.58,2.69-.88.4-1.76.78-2.64,1.16h0l-.26.4L169,89.92l-.12.17.06,0a54.41,54.41,0,0,1,6.75,2.8c1.1.55,2.19,1.15,3.23,1.77l.31.19c.8.48,1.71,1,2.66,1.7l.09.07c.38.27.74.55,1.1.83l.21.18c.37.3.74.64,1.1,1l.25.24a16.63,16.63,0,0,1,1.18,1.34l.17.22a13,13,0,0,1,2,3.82,6,6,0,0,0,.77.45h.07c4.7.61,7.79,2.84,9.18,6.61a10.89,10.89,0,0,1-.78,9,10.26,10.26,0,0,1-7,5.25l-.29,0a9.61,9.61,0,0,1-1.51.12h-.43a14.64,14.64,0,0,1-2.33,4.4,10.24,10.24,0,0,1-6.6,4.24,8.54,8.54,0,0,1-1.46.12,8.88,8.88,0,0,1-3.76-.83,7.88,7.88,0,0,1-1-.57,5.81,5.81,0,0,1-.58.09,9.51,9.51,0,0,1-1.09.07,9,9,0,0,1-3.55-.72,9.76,9.76,0,0,1-5.72-7.27c-.09-.42-.17-.84-.23-1.27a9.66,9.66,0,0,1-4.53-3.4,10.13,10.13,0,0,1-1.88-6.57l-.16-.2a9.54,9.54,0,0,1-1.29-2.13c-.63,0-1.26,0-1.89,0h-.37c-2.39,0-8.74,0-12.88-5.05a12.93,12.93,0,0,1-2.79-6.34,110.24,110.24,0,0,1-14.62,1c-2.89,0-5.76-.11-8.54-.34-1-.08-2-.18-3-.3l-.44,0c-1.81-.22-3.73-.49-5.89-.84l1.1-7.93-1.29,7.9c-1.71-.28-3.43-.58-5.15-.88l-.32-.06a3.57,3.57,0,0,1-.1.35l-.27.91c-.06.18-.13.35-.19.53-.12.33-.23.64-.36,1l-.18.45c-.14.32-.29.65-.45,1l-.18.39c-.17.33-.35.68-.54,1l-.15.27c-.2.35-.42.72-.65,1.09l-.09.16a34.18,34.18,0,0,1-2.59,3.53c-2.47,3-5,6-7.71,9a29.2,29.2,0,0,1-3.88,4l.26.36A11.49,11.49,0,0,1,82.32,126,9.71,9.71,0,0,1,75,138.58a8.7,8.7,0,0,1-.87.13,10.46,10.46,0,0,1-6.26,3A11,11,0,0,1,66.54,141.81ZM192.21,35c-.17.32-.33.61-.5.9l-.14.22c-.19.34-.39.68-.59,1s-.52.79-.78,1.17-.43.63-.67.94-.57.76-.87,1.12-.45.54-.69.81-.66.74-1,1.1c-.17.18-.35.35-.53.52l-.1.1A30.36,30.36,0,0,1,182,46.44l.66,0,2.12-.07a72.8,72.8,0,0,0,9.31-1l.14,0q.34-.08.69-.18a24.81,24.81,0,0,1,3.21-.68l1.15-.33.11,0a32.78,32.78,0,0,0,4-1.49l.45-.24A22.25,22.25,0,0,0,206,41.17l.26-.15.47-.33.66-.44a12.51,12.51,0,0,0,1.13-.94c.17-.16.33-.31.48-.47a14.8,14.8,0,0,0,1-1.14l.05-.06c.26-.32.51-.67.75-1l.07-.1c.23-.36.45-.71.65-1.08a.31.31,0,0,0,.05-.1,13,13,0,0,0,.95-2.21l.11-.32.1-.34,0-.18c.09-.4.17-.79.23-1.18l0-.33a10.48,10.48,0,0,0,0-1.15v-.32s0-.33,0-.33L213,28.5c0-.13,0-.23-.06-.33s-.09-.39-.1-.44-.05-.15-.07-.23a6.78,6.78,0,0,0-.75-1.65l-.07-.11-.16-.24-.06-.08a3.88,3.88,0,0,0-.24-.31l-.14-.17-.22-.24-.12-.13-.27-.27-.38-.34c-.3-.26-.62-.51-.94-.75l0,0c-.37-.27-.77-.52-1.17-.76l-.14-.07c-.31-.17-.63-.34-1-.49l-.18-.09c-.31-.14-.69-.29-1.07-.44s-.76-.25-1.11-.35l-.3-.09a12.25,12.25,0,0,0-2.18-.36h-.14l-.48,0c-.26,0-.52,0-.77,0h-.4l-.17,0-.39.06-.11,0a3.16,3.16,0,0,0-.37.12,2.45,2.45,0,0,0-.8.52l-.16.13a6.35,6.35,0,0,0-.85,1.08l-.08.13a14.54,14.54,0,0,0-.91,1.68l-.15.28c-.35.78-.72,1.67-1.13,2.77-.3.83-.6,1.65-.88,2.45-.06.17-.13.35-.2.52s-.19.49-.29.73l-.09.2c-.33.84-.7,1.68-1.09,2.48l-.09.2c-.14.29-.28.58-.42.85Z"/>
    <g>
      <g>
        <path class="cls-3" d="M90.11,72.11l7.41,2.26L97.46,74c-.92-5.49-5.16-9.1-10.79-11.56-3.58-1.57-7.16-3.14-10.81-4.56a43.39,43.39,0,0,0-8.74-2.63,1.42,1.42,0,0,1-.51-.19,1,1,0,0,1-.32-.55,14.07,14.07,0,0,1-.46-6.58,2.69,2.69,0,0,0,.07-1,1.9,1.9,0,0,0-1.59-1.36,1.62,1.62,0,0,0-1.75.9c-.29.81.31,1.71.75,2.53a8.7,8.7,0,0,1,1,3.55c0,.25,0,.56-.27.66s-.71-.18-1-.44a16.77,16.77,0,0,1-3.21-4.29c-.46-1-.19-2.63-1.66-3.16a2.89,2.89,0,0,0-2.09.1,1.65,1.65,0,0,0-1.06,1.13,2.18,2.18,0,0,0,1.09,1.77,15.22,15.22,0,0,1,1.88,1.35,5.52,5.52,0,0,1,.84,1.16c.7,1.15,1.45,2.29,2.08,3.47a4.1,4.1,0,0,0-2.23.05,18.4,18.4,0,0,1-3.62-.19A4.37,4.37,0,0,1,53,53.61c-.34-.24-.59-.57-1-.79-1-.64-2.35-.06-3.3.52-.57.35-1.2.92-.86,1.51A1.78,1.78,0,0,0,49,55.5c3.45.9,7.31,0,10.41,1.72l-4.6,1.39a2.39,2.39,0,0,1-1,.15,4.27,4.27,0,0,1-1.06-.4,3.55,3.55,0,0,0-2.66,0c-.64.27-1.15.91-.83,1.51a2.11,2.11,0,0,0,1.44.83,10.88,10.88,0,0,0,5.73-.18c1.69-.54,3.46-1.54,5.23-.84-.67,1-1.34,2-2,2.93a2,2,0,0,1-.63.66c-.48.28-1.19.22-1.65.53-.61.43-.39,1.4.3,1.86a2.52,2.52,0,0,0,2.34.1,4,4,0,0,0,1.57-1.47,12,12,0,0,0,1-1.71c.46-1,.83-2.21,1.94-2.73a4,4,0,0,1,3,0,28.28,28.28,0,0,1,5.09,3c1.88,1.16,3.79,2.29,5.72,3.36C82.07,68.36,86.05,70.33,90.11,72.11Z"/>
        <path class="cls-3" d="M159,71.1l7.11,3.06c0-.13,0-.26,0-.39-.31-5.56-4.14-9.61-9.46-12.68-3.39-2-6.78-3.9-10.25-5.71a44.18,44.18,0,0,0-8.4-3.57,1.42,1.42,0,0,1-.49-.25,1,1,0,0,1-.25-.57,13.93,13.93,0,0,1,.26-6.59,2.73,2.73,0,0,0,.17-1,1.89,1.89,0,0,0-1.43-1.52,1.6,1.6,0,0,0-1.83.7c-.38.78.11,1.73.46,2.6a8.47,8.47,0,0,1,.63,3.64c0,.26-.07.55-.34.63s-.69-.26-.91-.55a16.6,16.6,0,0,1-2.72-4.61c-.35-1.1.1-2.64-1.3-3.33a2.91,2.91,0,0,0-2.09-.12,1.58,1.58,0,0,0-1.17,1,2.1,2.1,0,0,0,.88,1.87,16.16,16.16,0,0,1,1.73,1.55,5.88,5.88,0,0,1,.7,1.24c.57,1.22,1.19,2.44,1.68,3.68a4,4,0,0,0-2.22-.19,18.6,18.6,0,0,1-3.57-.59,4.23,4.23,0,0,1-2-.78c-.32-.27-.54-.63-.87-.89-1-.75-2.33-.31-3.34.16-.61.29-1.3.78-1,1.41a1.8,1.8,0,0,0,1,.76c3.32,1.28,7.26.82,10.16,2.85l-4.73.88a2.43,2.43,0,0,1-1,0,4.56,4.56,0,0,1-1-.51,3.47,3.47,0,0,0-2.64-.33c-.66.2-1.24.77-1,1.4a2.18,2.18,0,0,0,1.34,1,10.92,10.92,0,0,0,5.72.45c1.74-.36,3.61-1.15,5.29-.27l-2.31,2.69a2,2,0,0,1-.69.59c-.52.23-1.22.09-1.7.35-.66.36-.55,1.35.08,1.88a2.55,2.55,0,0,0,2.32.36,4,4,0,0,0,1.73-1.3,10.22,10.22,0,0,0,1.13-1.59c.57-1,1.07-2.1,2.24-2.5a4,4,0,0,1,2.92.35A28.87,28.87,0,0,1,142.5,60c1.73,1.36,3.51,2.69,5.32,4C151.41,66.49,155.15,68.89,159,71.1Z"/>
        <path class="cls-4" d="M145.67,90.25a54.43,54.43,0,0,0,17.1-7.7A44.2,44.2,0,0,0,169.22,77c2-2.17,3-5.31,5.62-6.88-17.35,10.31-38,10.78-57.56,11.29-7.3.19-14.59.47-21.88.65-9,.21-18.05.27-27.06-.26s-17.62-3.41-26.7-3.74a231.07,231.07,0,0,0-29.3.81c-9.31.85-.2,7.92,4.54,10a9.06,9.06,0,0,0,1.23.47c10.75,3,21.12,3.43,32,2.38S71,88.7,81.91,88.9c10.55.19,20.87,3.28,31.37,4.13A97.58,97.58,0,0,0,145.67,90.25Z"/>
        <path class="cls-5" d="M209.79,59.78l-.06,0c-6.19,3.67-13,6.17-19.43,9.26-7,3.36-13.7,7.37-20.79,10.59a112.08,112.08,0,0,1-44.95,9.8c-5.73.09-11.48-.08-17.2-.53-9.29-.71-18.53-2.14-27.86-2.4-8.4-.24-16.85,1.81-25.21,1s-17.41-.49-26-1.33c-5-.49-18.17-1.15-20.11-7.26A4.47,4.47,0,0,1,9,75.07a11.84,11.84,0,0,1,3.11-2.74A91.55,91.55,0,0,1,27,64.09c4.14-1.81,6.29-7.13,10.71-8a9.49,9.49,0,0,1,6.58,1.41c3.06,1.88,7.65.92,11.08.63a38,38,0,0,1,14.79,1.6,82,82,0,0,0,10.5,3.09c3.57.64,5.92-.5,9.39-1.65a176.59,176.59,0,0,1,72.59-8.06c4,.4,8,.94,12,1.16,12,.68,30-.48,39.29-9.13C221.68,38,224.42,25.61,215.76,18a21.94,21.94,0,0,0-16.34-5.4c-7.73.9-10.19,8.17-12.45,14.52-4.3,12-13.86,17.24-26.26,16.69-4.07-.18-4.32-3.92,0-4.24,4.91-.36,10.21-.46,14.76-2.56,12.7-5.85,5.69-26.57,22.8-28.83,7.66-1,16.64,1.86,22.09,7.39C234.36,29.85,224.48,51,209.79,59.78Z"/>
        <path class="cls-3" d="M218.29,51.32c-5.68,4.77-12.5,7.93-19.2,11a89.29,89.29,0,0,1-15,5.36c-4.41,1.11-9.65,3.1-14.2,2.6a7.57,7.57,0,0,0-3,0c-1.25.38-2.05,1.57-2.9,2.56-3.82,4.47-10.12,4.72-15.41,6.47-5.56,1.82-11.75,4.22-17.8,4.4a95.38,95.38,0,0,1-25.4,2.16,90,90,0,0,1-10-.94C93.21,84.54,90.17,83,88,83.1c-1.5.05-2.8.85-4.23,1.18a10.8,10.8,0,0,1-4.7.06c-1.38-.28-3.74-2-1.71-3.34a1.51,1.51,0,0,0-1.49.54c-.39.4-.66.91-1,1.31-1,1-2.47,1.18-3.85,1.31-5.87.55-11.63.45-17.51.48-.74,0-1.75-.26-1.7-1s1.59-1,1.72-1.87c-.35-.28-.86,0-1.25.17A23,23,0,0,1,44.4,85a11.15,11.15,0,0,1-8.1-1.56,11.64,11.64,0,0,0-3.14-2c-.65-.19-1.51-.08-1.74.54s.21,1.4-.26,1.82a1.13,1.13,0,0,1-.56.21,25.41,25.41,0,0,1-8.39.15c-1.69-.25-6.21-.62-6.93-2.37a3.8,3.8,0,0,1-.11-2.14,1.4,1.4,0,0,0,0-.7c-.15-.42-.67-.55-1.12-.58-.71,0-1.43,0-2.15,0a3.3,3.3,0,0,1-2-.7c-.95-.86-.61-2.43-.17-3.46a6.29,6.29,0,0,0-.76.85A4.47,4.47,0,0,0,8.16,79c1.94,6.11,15.08,6.77,20.11,7.26,8.61.84,17.6.56,26,1.33s16.81-1.28,25.21-1c9.33.26,18.57,1.69,27.86,2.4,5.72.45,11.47.62,17.2.53a112.08,112.08,0,0,0,44.95-9.8c7.09-3.22,13.77-7.23,20.79-10.59,6.47-3.09,13.24-5.59,19.43-9.26l.06,0a37.81,37.81,0,0,0,13-13.21A30,30,0,0,1,218.29,51.32Z"/>
        <path class="cls-6" d="M185.21,54.34c-3.51.17-6.9.13-9.94,0a22.45,22.45,0,0,1,6.46,19.15c2.84-1.51,5.67-3,8.57-4.39l.33-.15C190.33,63.58,189.86,57,185.21,54.34Z"/>
        <path class="cls-6" d="M204.67,60.4a17.42,17.42,0,0,0-.48-3.61,9,9,0,0,0-1.38-2.92,4.35,4.35,0,0,0-.75-.85c-1.67-1.42-4-.43-6,0a11.93,11.93,0,0,1,3.09,4.53,11.74,11.74,0,0,1,.75,7.18,33,33,0,0,0,3.4-1.59,2.37,2.37,0,0,0,1.32-1.83A4.16,4.16,0,0,0,204.67,60.4Z"/>
        <path class="cls-6" d="M220.13,35.64a22.89,22.89,0,0,1-1.54,3.57,10.75,10.75,0,0,1,5.71,4.46A31.28,31.28,0,0,0,226,39C225,36.5,222.31,35,220.13,35.64Z"/>
        <path class="cls-6" d="M222.57,18.21c-2,0-3.18,1.55-3.74,3.41a15,15,0,0,1,1.62,3.59,9.38,9.38,0,0,1,5.15-1.57A22.38,22.38,0,0,0,222.57,18.21Z"/>
        <path class="cls-6" d="M199.43,8.07a9,9,0,0,0,1.06,4.48,18.44,18.44,0,0,1,2.35,0,11.72,11.72,0,0,1,.26-4.5A26.42,26.42,0,0,0,199.43,8.07Z"/>
        <path class="cls-6" d="M193.33,15.34a10.62,10.62,0,0,1,3.24-2,12.53,12.53,0,0,1-.93-4.58,13.21,13.21,0,0,0-4,1.87A8.07,8.07,0,0,0,193.33,15.34Z"/>
        <path class="cls-6" d="M186.84,27.46c0-.11.09-.21.13-.32.3-.84.6-1.7.92-2.56a12,12,0,0,1-3.38-1.12c-.29.94-.58,1.86-.89,2.78A7.46,7.46,0,0,0,186.84,27.46Z"/>
        <path class="cls-6" d="M182.82,34.83a24.86,24.86,0,0,0,2.42-3.75,10.6,10.6,0,0,1-3-1.25,18,18,0,0,1-2.15,3.55A3.62,3.62,0,0,0,182.82,34.83Z"/>
        <path class="cls-6" d="M162.67,39.46l-2,.13c-4.29.32-4,4.06,0,4.24.77,0,1.51,0,2.25,0A14.1,14.1,0,0,1,162.67,39.46Z"/>
        <path class="cls-6" d="M166.84,43.57a28.16,28.16,0,0,0,4.7-1,10.44,10.44,0,0,1-1.11-4c-1.26.25-2.55.41-3.84.54A9.81,9.81,0,0,0,166.84,43.57Z"/>
        <path class="cls-6" d="M175.23,41.08a22.3,22.3,0,0,0,4.59-3,7.12,7.12,0,0,1-2.47-1.8c-.06-.06-.1-.14-.16-.21a11.89,11.89,0,0,1-1.75,1c-.46.22-.93.39-1.41.57A5.23,5.23,0,0,0,175.23,41.08Z"/>
        <path class="cls-6" d="M189.44,20.87a23.83,23.83,0,0,1,1.39-2.54A11.09,11.09,0,0,1,188.38,14a25.43,25.43,0,0,0-2.71,5.82A7.85,7.85,0,0,0,189.44,20.87Z"/>
        <path class="cls-6" d="M206.92,8.6a7.9,7.9,0,0,0,0,4.69c.54.16,1.09.32,1.62.52a9,9,0,0,1,2.73-3.94A29.22,29.22,0,0,0,206.92,8.6Z"/>
        <path class="cls-6" d="M215.45,11.86a4.8,4.8,0,0,0-3.29,3.61,22.21,22.21,0,0,1,3.6,2.55c.13.12.24.24.37.35a7.76,7.76,0,0,1,3.5-3.44A23.82,23.82,0,0,0,215.45,11.86Z"/>
        <path class="cls-6" d="M221.1,29.54a16.41,16.41,0,0,1-.1,2.1,9.54,9.54,0,0,1,6,2.43,23.64,23.64,0,0,0-.22-6.23C225,26.69,222.79,27.93,221.1,29.54Z"/>
        <path class="cls-6" d="M216.23,42.73a22.79,22.79,0,0,1-1.53,1.73,13.64,13.64,0,0,1,2.92,2.35,10.76,10.76,0,0,1,2.29,4,36,36,0,0,0,2.1-3A6.17,6.17,0,0,0,216.23,42.73Z"/>
        <path class="cls-6" d="M213.44,50.07A10.07,10.07,0,0,0,210.16,48c-.92.55-1.89,1.06-2.88,1.53a11.68,11.68,0,0,1,4.3,5.86,8.53,8.53,0,0,1,.38,3,37.7,37.7,0,0,0,3.17-2.49A6.59,6.59,0,0,0,213.44,50.07Z"/>
        <path class="cls-7" d="M52.61,75.36c.47,4.16-3,8-7.76,8.52s-9-2.4-9.47-6.56,3-8,7.76-8.52S52.13,71.2,52.61,75.36Z"/>
        <path class="cls-8" d="M51.37,75.5c.41,3.57-2.57,6.83-6.64,7.3S37,80.74,36.62,77.18s2.57-6.83,6.64-7.3S51,71.94,51.37,75.5Z"/>
        <path class="cls-9" d="M45.54,76.16a14.51,14.51,0,0,1-.83,6.43,13.5,13.5,0,0,1-1.43-12.5A14.51,14.51,0,0,1,45.54,76.16Z"/>
        <path class="cls-5" d="M85.49,80.2c-1.28-1.15-2.88-1.44-4.83.15-2.21,1.79-1.11,3.88-.15,5.87.33.67,3,6.74,3.17,6.61a116.93,116.93,0,0,0-8,10.77q-1.86,2.81-3.54,5.71c-1,1.66-1.77,3.72-3.14,5.1a3.58,3.58,0,0,1-2.77,1.16c-1.34-.12-2.34-1.22-3.35-2.12A15,15,0,0,0,61,112a5.09,5.09,0,0,0-2.31-.94,2.22,2.22,0,0,0-2.15,1,1.45,1.45,0,0,0,.75,2.05c.6.15,1.24-.18,1.85-.08a2.51,2.51,0,0,1,1,.46l3.51,2.3c-1.28,1.4-3.51,1-5.4,1.12a9.73,9.73,0,0,0-5.51,2,1.87,1.87,0,0,0-.9,1.42c0,.75.87,1.22,1.62,1.26a3.12,3.12,0,0,0,2.49-1.06,3.39,3.39,0,0,1,.78-.82,2.35,2.35,0,0,1,1.05-.24l5.12-.3c-2,3-6.12,3.52-8.88,5.79a1.56,1.56,0,0,0-.69,1.1c0,.75.92,1.1,1.66,1.24,1.22.25,2.77.36,3.4-.71.22-.37.28-.81.47-1.19a3.57,3.57,0,0,1,1.69-1.39,16.78,16.78,0,0,1,3.31-1.59c.87-.21,1.43-.11,2.14-.79.05,1.47,0,3,0,4.42a5.68,5.68,0,0,1-.15,1.54,13.9,13.9,0,0,1-1,2.13,2.36,2.36,0,0,0,0,2.26,2.11,2.11,0,0,0,1.63.79,2.62,2.62,0,0,0,2-.7c1.09-1.11,0-2.66-.19-3.94a17.23,17.23,0,0,1,.66-5.71c.08-.38.28-.84.66-.83s.5.31.63.58a10.83,10.83,0,0,1,1,4.11c0,1,0,2.2.7,2.93a1.74,1.74,0,0,0,2.9-1.75,4,4,0,0,0-.61-1,18.89,18.89,0,0,1-3.22-7.06,1.08,1.08,0,0,1,0-.69,1,1,0,0,1,.37-.4c2.29-1.77,5-3.77,6.79-6.1,2.66-2.88,5.17-5.89,7.68-8.9,4-4.73,6-10.13,3.78-16.23C88.82,86.13,87.56,82.05,85.49,80.2Z"/>
        <path class="cls-3" d="M74,106.25H74a50.3,50.3,0,0,0,4-4.16c2.47-3,4.44-6.6,7.57-8.89a16.75,16.75,0,0,1-4.74-13l-.22.16c-2.21,1.79-1.11,3.88-.15,5.87.33.67,3,6.74,3.17,6.61a116.93,116.93,0,0,0-8,10.77C75.09,104.48,74.53,105.36,74,106.25Z"/>
        <path class="cls-5" d="M172.07,100.08A54.24,54.24,0,0,0,160.28,96c-.63-.15-4.78-1.46-5-1.15,5.27-6.63,10.64-13.43,13.47-21.41.49-1.37.84-3.05-.12-4.14a3.33,3.33,0,0,0-1.53-.89c-5.73-1.81-10,2.89-13,7.07-3.76,5.27-6.34,11.27-8.88,17.19a17.75,17.75,0,0,0-1.46,4.51,5.87,5.87,0,0,0,1.06,4.5c1.6,2,4.48,2.14,7,2.12,3,0,6.21-.21,9.29-.1a34.57,34.57,0,0,1,5.38.35c.57.11,5.12,1.41,3.64,2.48a1.67,1.67,0,0,1-.83.23l-7.07.55a1.4,1.4,0,0,0-1.08.42,1,1,0,0,0,.14,1.15,2.32,2.32,0,0,0,2.83.33,6.45,6.45,0,0,1,1.23-.62,3.36,3.36,0,0,1,1,0,11.09,11.09,0,0,1,3,.58c-.89,1.18-2.49,1.55-3.72,2.3a5.82,5.82,0,0,0-2.06,1.88,2.5,2.5,0,0,0,0,2.66,1.63,1.63,0,0,0,2.44.23c.44-.54.41-1.34.81-1.91a2.79,2.79,0,0,1,.92-.75l4-2.44c.8,2-.64,4-1.47,6a10.91,10.91,0,0,0-.62,6.53,2.12,2.12,0,0,0,1,1.6c.77.33,1.65-.29,2.05-1a3.5,3.5,0,0,0,.13-3,4,4,0,0,1-.46-1.19,2.61,2.61,0,0,1,.27-1.18l2.16-5.32c2.05,3.43.61,7.89,1.58,11.76a1.7,1.7,0,0,0,.78,1.23c.76.35,1.55-.4,2.06-1.07.83-1.12,1.69-2.63.91-3.79-.26-.4-.69-.67-1-1a4,4,0,0,1-.59-2.37,18.92,18.92,0,0,1,0-4.12c.2-1,.58-1.5.23-2.54,1.51.65,3,1.44,4.45,2.17a6.33,6.33,0,0,1,1.48.89,13.94,13.94,0,0,1,1.66,2.07,2.61,2.61,0,0,0,2.27,1.13,2.33,2.33,0,0,0,1.57-1.26,3,3,0,0,0,.28-2.39c-.61-1.64-2.72-1.24-4.08-1.71a18.92,18.92,0,0,1-5.46-3.41c-.69-.54-.33-1.26-.51-2-.64-2.51-3.62-4.21-5.66-5.44C173.88,101,173,100.53,172.07,100.08Z"/>
        <path class="cls-3" d="M172.82,100.66c.66.31,1.45.68,2.29,1.1l-.35-.21c-.88-.52-1.78-1-2.69-1.47A54.24,54.24,0,0,0,160.28,96c-.63-.15-4.78-1.46-5-1.15,5.27-6.63,10.64-13.43,13.47-21.41.49-1.37.84-3.05-.12-4.14a2.63,2.63,0,0,0-.73-.56c-.62,5.72-4.36,10.37-7.69,15.06-3,4.21-6.51,9.2-11,12.23C157.23,97,165.36,97.2,172.82,100.66Z"/>
        <g class="cls-10">
          <path class="cls-7" d="M174.24,64.48c.07-1.33-1.44-.82-2.16-.55s.1,1.32.58,1.53A1.19,1.19,0,0,0,174.24,64.48Z"/>
          <g>
            <path class="cls-7" d="M14.54,78.84a.93.93,0,0,1-1.83.21.93.93,0,0,1,1.83-.21Z"/>
            <path class="cls-7" d="M92.47,81a2,2,0,0,0,.45.94,3.81,3.81,0,0,0,2.37.83,2.29,2.29,0,0,0,1.18-.59A3,3,0,0,0,97.57,79C96.28,75.86,92,78.63,92.47,81Z"/>
            <path class="cls-7" d="M111.44,78.29c.41-1.05.25-3.13-1.15-3.43-.85-.18-2.4.85-3,1.41A2.2,2.2,0,0,0,108,80.1,2.89,2.89,0,0,0,111.44,78.29Z"/>
            <path class="cls-7" d="M118.43,82c2.47.45,3.36-3.62,1-3.42C117.7,78.73,116,81.57,118.43,82Z"/>
            <path class="cls-7" d="M112.74,85.44a1,1,0,1,0-1.2-1.71c-1.1.67-.5,2.61.8,2A1.54,1.54,0,0,0,112.74,85.44Z"/>
            <path class="cls-7" d="M103.16,83.73C102,82.64,100,84,101.36,85c.66.49,2.23.26,2.12-.74A.87.87,0,0,0,103.16,83.73Z"/>
            <path class="cls-7" d="M131.58,80.67c.37-2.68-2.34-2.12-3.71-1a1.82,1.82,0,0,0,.61,3.34,2.36,2.36,0,0,0,1.91-.45A2.77,2.77,0,0,0,131.58,80.67Z"/>
            <path class="cls-7" d="M136.8,81.84c-2.63-1.5-3.38,3.62-.22,2.3a1.47,1.47,0,0,0,.78-.65A1.31,1.31,0,0,0,136.8,81.84Z"/>
            <path class="cls-7" d="M124.85,86.51c2.69-2.1-3.36-3.61-2.72-.41C122.37,87.3,124.12,87.08,124.85,86.51Z"/>
            <path class="cls-7" d="M125.94,71.3c-2.25-2.57-4.68.84-2.61,3a1.42,1.42,0,0,0,.72.49,1.61,1.61,0,0,0,1.29-.57,2.89,2.89,0,0,0,1-1.35A1.77,1.77,0,0,0,125.94,71.3Z"/>
            <path class="cls-7" d="M137.66,72.34c-1.7-2.44-6.06,2.83-1.64,3.18a1.49,1.49,0,0,0,.81-.12,2.12,2.12,0,0,0,1-1.55A2,2,0,0,0,137.66,72.34Z"/>
            <path class="cls-7" d="M116.77,71c1.27-2.14-3.23-4.64-4.06-1.64-.57,2.07,1.87,3.18,3.45,2.23A1.65,1.65,0,0,0,116.77,71Z"/>
            <path class="cls-7" d="M103.85,71.91c-.35-3-4.32-1.41-4.61.65a2.66,2.66,0,0,0,1.6,2.38,2,2,0,0,0,1.44-.24A2.93,2.93,0,0,0,103.85,71.91Z"/>
            <path class="cls-7" d="M91.13,72.27c-1.18-2.47-4.9-.88-4.74,1.5a2.23,2.23,0,0,0,3.83,1.29,2.74,2.74,0,0,0,1.09-1.45A2,2,0,0,0,91.13,72.27Z"/>
            <path class="cls-7" d="M87.46,78.64c-2.83-1.86-4.76,3.59-1.08,3.52a2,2,0,0,0,2-1.87A2,2,0,0,0,87.46,78.64Z"/>
            <path class="cls-7" d="M150.12,74.33c3.33-1.13.95-4.88-1.54-3S147.42,75.24,150.12,74.33Z"/>
            <path class="cls-7" d="M145,82.11c1.43-.44,2.34-3.15.56-3.83-1.15-.44-3.39,1.42-3.18,2.64C142.51,82,144.11,82.38,145,82.11Z"/>
            <path class="cls-7" d="M144.44,65.67c-2.59-3.07-6.78,4.48-2.34,4.16a2.76,2.76,0,0,0,1.78-1,3.54,3.54,0,0,0,.87-1.48A1.9,1.9,0,0,0,144.44,65.67Z"/>
            <path class="cls-7" d="M133.4,67.08c-.12-2.12-1.83-2.21-3.34-1.21-2,1.31-.29,4.22,1.81,3.67A2.36,2.36,0,0,0,133.4,67.08Z"/>
            <path class="cls-7" d="M121,66a2.37,2.37,0,0,0,3.87-2.51C123.63,60.65,119,63.85,121,66Z"/>
            <path class="cls-7" d="M110.81,63.46c-.59-2.8-3.85-.31-3.77,1.44,0,1.15,1.29,2.3,2.39,1.73A3,3,0,0,0,110.81,63.46Z"/>
            <path class="cls-7" d="M97.85,66.26c-1-3.43-6.14.43-2.91,2.11C96.32,69.09,98.35,68,97.85,66.26Z"/>
            <path class="cls-7" d="M88,66.09c-.62-2.23-3.49-1.77-4,.3-.54,2.31,2.29,1.91,3.45,1a1.53,1.53,0,0,0,.53-.6A1.09,1.09,0,0,0,88,66.09Z"/>
            <path class="cls-7" d="M80.85,69.41c-3.86-1.48-3.12,5.71.43,3A1.81,1.81,0,0,0,81.73,70,2.09,2.09,0,0,0,80.85,69.41Z"/>
            <path class="cls-7" d="M77,64.69c.73-2.47-4.54-2.36-3.3.1C74.36,66,76.65,66,77,64.69Z"/>
            <path class="cls-7" d="M67.37,64.59c1.53.9,2.62-1.26,1.4-2.18S65.55,63.53,67.37,64.59Z"/>
            <path class="cls-7" d="M70.3,70.45c1.37,1.31,3.85,0,2.74-1.87C72,66.87,68.62,68.83,70.3,70.45Z"/>
            <path class="cls-7" d="M61.94,67.82c1.27-1.92-2.07-3.94-3.47-2.28a1.89,1.89,0,0,0,1.71,3.17A2.26,2.26,0,0,0,61.94,67.82Z"/>
            <path class="cls-7" d="M61.61,61.33c.72-1.44-1.71-2.1-2.54-1.06s0,1.48,1,1.63A1.43,1.43,0,0,0,61.61,61.33Z"/>
            <path class="cls-7" d="M71.79,76.2c-.9-1.34-3.53-.52-2.65,1,.46.77,2.17,1,2.69.28A1.15,1.15,0,0,0,71.79,76.2Z"/>
            <path class="cls-7" d="M77.1,78c1.21.93,3.13-.9,1.77-1.89C77.82,75.35,75.76,77,77.1,78Z"/>
            <path class="cls-7" d="M75,83.24c-.27-1.73-2.27-1.35-2.58.14-.27,1.31,1.13,1.92,2.13,1.21A1.38,1.38,0,0,0,75,83.24Z"/>
            <path class="cls-7" d="M62.18,73.81c-1.51-2.14-4.36,1.66-1.36,2.08A1.52,1.52,0,0,0,62,75.61,1.38,1.38,0,0,0,62.18,73.81Z"/>
            <path class="cls-7" d="M54.76,62c-2.16-2.43-4,2.29-.75,1.83a1.31,1.31,0,0,0,1-.54A1.14,1.14,0,0,0,54.76,62Z"/>
            <path class="cls-7" d="M43.42,62.4c1.27.52,2.51-1.24,1.29-2.06S41.5,61.61,43.42,62.4Z"/>
            <path class="cls-7" d="M34.16,62.85c1.61-.31.85-2.53-.82-1.84-1,.39-.86,1.15-.34,1.57A1.42,1.42,0,0,0,34.16,62.85Z"/>
            <path class="cls-7" d="M44.24,64.59c-.37-1.69-3.79.39-2.31,1.6C43,67.06,44.5,65.77,44.24,64.59Z"/>
            <path class="cls-7" d="M37.4,67.87c1.77-3.53-4.89.2-1.88.85A1.73,1.73,0,0,0,37.4,67.87Z"/>
            <path class="cls-7" d="M52.3,68.72c1.05-.63.32-2-.56-2.08-.65-.06-2.31.65-2,1.5S51.72,69.07,52.3,68.72Z"/>
            <path class="cls-7" d="M20.31,73.07c1.2-1.89-1.08-2.3-2.39-1.64C16.33,72.24,18.78,75.49,20.31,73.07Z"/>
            <path class="cls-7" d="M27.42,68c.43,1.4,3,.9,2.79-.56C30,65.74,26.92,66.32,27.42,68Z"/>
            <path class="cls-7" d="M31,72.05c-1-.67-3.08,1.16-1.15,1.73C30.85,74.09,32.06,72.81,31,72.05Z"/>
            <path class="cls-7" d="M24.46,78.92c-.45-.91-1.06-.81-1.83-.5-.42.17-1.57.5-1.65,1s1.2,1.23,1.68,1.24a2.11,2.11,0,0,0,1.7-.81,1,1,0,0,0,.2-.35A.87.87,0,0,0,24.46,78.92Z"/>
            <path class="cls-7" d="M32.93,79.34c-.55-.75-.88-1.09-1.71-.61-.49.27-1.28.89-.9,1.53s1.87.36,2.42,0c.19-.13.39-.31.37-.54A.68.68,0,0,0,32.93,79.34Z"/>
            <path class="cls-7" d="M60.1,80c-.49-1.07-1.81-.85-2.63-.37-2.12,1.23.11,3,1.77,2.19A1.52,1.52,0,0,0,60.1,80Z"/>
            <path class="cls-7" d="M103.87,60.51c-.47-1.69-3.77-.87-3,.7.41.86,2,.9,2.62.39A1.07,1.07,0,0,0,103.87,60.51Z"/>
            <path class="cls-7" d="M117.77,59.23c1.42-.75.46-2.68-1.08-2-.89.42-2,1.45-.49,2A2,2,0,0,0,117.77,59.23Z"/>
            <path class="cls-7" d="M129.84,57.3c1.38-2.34-2.7-1.93-3.12-.34-.27,1,1,1.47,1.78,1.27A2.18,2.18,0,0,0,129.84,57.3Z"/>
            <path class="cls-7" d="M139.63,61c.67-1-.47-2.3-1.5-2.21a2.17,2.17,0,0,0-1.89,2,1.67,1.67,0,0,0,.06.67,1.15,1.15,0,0,0,1.11.66,3,3,0,0,0,1.3-.41A2.24,2.24,0,0,0,139.63,61Z"/>
            <path class="cls-7" d="M150.77,59.83c-.73-1.46-3.72-.45-2.89,1.33a1.3,1.3,0,0,0,1.31.76,2,2,0,0,0,1.15-.78C150.66,60.78,151,60.27,150.77,59.83Z"/>
            <path class="cls-7" d="M145.31,55.05c.14-1.27-2-1.61-2.49-.48s.59,1.38,1.42,1.26C144.71,55.76,145.25,55.52,145.31,55.05Z"/>
            <path class="cls-7" d="M161.37,65.43c1.67-2-2.32-3.37-3.62-1.74a1.58,1.58,0,0,0,.7,2.58,2.93,2.93,0,0,0,2.3-.4A2,2,0,0,0,161.37,65.43Z"/>
            <path class="cls-7" d="M167.23,67.42a1.43,1.43,0,0,0-.07-1.82c-.47-.36-1.26,0-1.72.2-1.42.74-1.07,1.73.4,1.91A1.57,1.57,0,0,0,167.23,67.42Z"/>
            <path class="cls-7" d="M162.18,71.15c-.49-1.73-3-.35-2.88.94a1.41,1.41,0,0,0,1.74,1A1.7,1.7,0,0,0,162.18,71.15Z"/>
            <path class="cls-7" d="M158.55,76.66c-.49-1.74-3-.35-2.88.93a1.41,1.41,0,0,0,1.74,1A1.7,1.7,0,0,0,158.55,76.66Z"/>
            <path class="cls-7" d="M176.52,73.13c1.63-2.7-3.2-1.1-2.41.28C174.63,74.3,176.1,73.84,176.52,73.13Z"/>
            <path class="cls-7" d="M169.14,61.53c3-.41-1.17-3.6-1.55-1.05a.8.8,0,0,0,.36.8A1.73,1.73,0,0,0,169.14,61.53Z"/>
            <path class="cls-7" d="M162.91,58.51a1.22,1.22,0,0,0,.06-2,1.57,1.57,0,0,0-2.05,1.17C161,58.46,162.33,58.81,162.91,58.51Z"/>
            <path class="cls-7" d="M155.93,55.76c.32-1.45-1.31-.95-2-.64-1.08.47-.41,1.29.45,1.52A1.15,1.15,0,0,0,155.93,55.76Z"/>
            <path class="cls-7" d="M173.05,57.91c1.43.46,2.29-1.88.69-2C172.52,55.88,171.52,57.42,173.05,57.91Z"/>
            <path class="cls-7" d="M194.06,57.34c.75-2.17-3.85-.78-2.24.56A1.55,1.55,0,0,0,194.06,57.34Z"/>
            <path class="cls-7" d="M195.21,64.9c.64-.42,1-2,0-2.13-.79-.1-2,1.06-1.5,1.85A1.13,1.13,0,0,0,195.21,64.9Z"/>
            <path class="cls-7" d="M211.7,54.93c-.56-.8-2.11-.41-1.93.64a1.06,1.06,0,0,0,1.77.67A1,1,0,0,0,211.7,54.93Z"/>
            <path class="cls-7" d="M205.84,55c-.07-1.17-2.15-1.09-2.09.05a1.07,1.07,0,0,0,1.84.58A.88.88,0,0,0,205.84,55Z"/>
            <path class="cls-7" d="M216.13,51.6c1.66-1-1-3.11-1.67-1.23C214.05,51.5,215.25,52.14,216.13,51.6Z"/>
            <path class="cls-7" d="M218.57,43.83c1.88,1.08,1.81-2.19.18-1.21C218,43.09,218.13,43.57,218.57,43.83Z"/>
            <path class="cls-7" d="M224.37,37.81c1,.37,1.56-1,.86-1.65C224.15,35.21,223,37.31,224.37,37.81Z"/>
            <path class="cls-7" d="M223.84,28.38c.83-1.89-2.45-1-1.55.09A.93.93,0,0,0,223.84,28.38Z"/>
            <path class="cls-7" d="M219.87,17c-1.22-1.12-1.82,1.46-.34,1.05A.67.67,0,0,0,219.87,17Z"/>
            <path class="cls-7" d="M199,9.58c-1.22-1.12-1.82,1.46-.34,1.05A.67.67,0,0,0,199,9.58Z"/>
          </g>
        </g>
      </g>
      <path class="cls-11" d="M224.3,43.67h0c3.18-6.85,3.93-14.52.7-21.41v0a23.94,23.94,0,0,0-4.67-6.64,27.34,27.34,0,0,0-17.22-7.53H203c-.56,0-1.11-.05-1.65-.05h-.1c-.57,0-1.13,0-1.7.07h-.1q-.6,0-1.2.12a16.39,16.39,0,0,0-3.68.9l-.05,0c-6.7,2.52-8.32,8.94-10.25,15.15l-.54,1.7a35.16,35.16,0,0,1-1.6,4.05c-.1.22-.2.43-.31.64s-.09.16-.13.24a16.17,16.17,0,0,1-1.62,2.47h0A12.34,12.34,0,0,1,177.2,36h0c-.27.18-.54.35-.83.52s-.55.3-.85.44l-.08,0c-.46.21-.93.39-1.4.57h0a24.69,24.69,0,0,1-3.61,1h0c-1.26.25-2.54.41-3.83.54v0c-1.3.13-2.62.22-3.92.31h0l-2,.13c-2.14.16-3.15,1.17-3.11,2.17s1.11,2,3.15,2.07h0c.47,0,.94,0,1.41,0,10.27.09,18.46-3.94,23.1-12.77h0a32.4,32.4,0,0,0,1.6-3.62h0l.12-.32c.3-.84.61-1.7.93-2.56h0c.46-1.26,1-2.51,1.54-3.71h0a22.18,22.18,0,0,1,1.39-2.54h0a14.2,14.2,0,0,1,2.49-3h0a10.67,10.67,0,0,1,3.25-2h0a11.58,11.58,0,0,1,2.84-.7c.36,0,.71-.07,1.07-.09v0a20.47,20.47,0,0,1,2.35,0,20.73,20.73,0,0,1,4.11.73h0c.55.16,1.09.32,1.63.52a23.37,23.37,0,0,1,3.59,1.66,21.25,21.25,0,0,1,1.87,1.2h0A20.43,20.43,0,0,1,215.76,18h0l0,0,.35.33h0a15.87,15.87,0,0,1,2.7,3.24h0a14.69,14.69,0,0,1,1.63,3.6h0a15.73,15.73,0,0,1,.65,4.31l0,0a18.44,18.44,0,0,1-.09,2.1h0a19.88,19.88,0,0,1-.88,4h0a21.57,21.57,0,0,1-1.52,3.54,23.1,23.1,0,0,1-2.37,3.55h0a20.87,20.87,0,0,1-1.53,1.72h0c-.24.24-.48.48-.73.71A24.6,24.6,0,0,1,210.19,48l0,0a29.21,29.21,0,0,1-2.88,1.54l0,0a42.21,42.21,0,0,1-7.77,2.75,22.44,22.44,0,0,0-3.46.75l0,0a79.29,79.29,0,0,1-11,1.26c-.78,0-1.55.06-2.32.08h-.26l-2.35,0H180l-2.34,0h-.1q-1.18,0-2.31-.09h0l-.6,0c-4-.22-8-.76-12-1.16a175,175,0,0,0-23-.74L138,51.81a1.34,1.34,0,0,1-.49-.25,1,1,0,0,1-.26-.58,14,14,0,0,1,.27-6.58,3,3,0,0,0,.17-1,1.89,1.89,0,0,0-1.43-1.52,1.62,1.62,0,0,0-1.84.7c-.37.78.12,1.73.47,2.6a8.78,8.78,0,0,1,.63,3.64c0,.25-.08.55-.35.62s-.68-.25-.9-.54a16.6,16.6,0,0,1-2.72-4.61c-.35-1.1.09-2.64-1.31-3.33a2.89,2.89,0,0,0-2.08-.12,1.59,1.59,0,0,0-1.18,1,2.14,2.14,0,0,0,.89,1.87,15,15,0,0,1,1.72,1.55,5.92,5.92,0,0,1,.71,1.24c.56,1.22,1.18,2.44,1.68,3.68a4.05,4.05,0,0,0-2.22-.19,18.57,18.57,0,0,1-3.58-.59,4.27,4.27,0,0,1-2-.78c-.32-.27-.53-.63-.87-.89-1-.75-2.33-.31-3.33.16-.61.29-1.3.78-1,1.41a1.75,1.75,0,0,0,1,.76c3.33,1.28,7.27.82,10.16,2.85l-.29.06c-2,.17-4,.39-6,.63l-.48-.28a3.48,3.48,0,0,0-2.64-.33c-.58.17-1.09.63-1,1.16q-2.92.42-5.84,1a175,175,0,0,0-23.74,6c-1.28.42-2.41.84-3.5,1.18-3.54-1.56-7.08-3.11-10.7-4.51a43.11,43.11,0,0,0-8.73-2.63,1.27,1.27,0,0,1-.51-.2.92.92,0,0,1-.32-.54,14,14,0,0,1-.46-6.58,2.49,2.49,0,0,0,.06-1,1.88,1.88,0,0,0-1.59-1.36,1.62,1.62,0,0,0-1.74.9c-.29.81.3,1.71.74,2.53a8.56,8.56,0,0,1,1,3.55c0,.25,0,.56-.27.66s-.72-.18-1-.44a16.58,16.58,0,0,1-3.22-4.29c-.46-1-.19-2.63-1.65-3.16a2.89,2.89,0,0,0-2.09.1,1.61,1.61,0,0,0-1.06,1.13,2.13,2.13,0,0,0,1.09,1.77,15.22,15.22,0,0,1,1.88,1.35,5.28,5.28,0,0,1,.84,1.16c.69,1.15,1.44,2.29,2.07,3.46a4.1,4.1,0,0,0-2.23.06,19.29,19.29,0,0,1-3.62-.19A4.34,4.34,0,0,1,53,53.61c-.35-.24-.6-.57-1-.79-1-.64-2.35-.06-3.3.52-.57.35-1.21.92-.87,1.51a1.78,1.78,0,0,0,1.11.64c3.45.91,7.32,0,10.41,1.73l-2.84.86-1.18.07c-.8.07-1.66.17-2.55.26l-.11,0a3.58,3.58,0,0,0-2.67,0,1.67,1.67,0,0,0-.5.33,9.76,9.76,0,0,1-5.26-1.13,9.45,9.45,0,0,0-6.57-1.41c-4.42.85-6.58,6.17-10.72,8a91.88,91.88,0,0,0-14.88,8.24,13.66,13.66,0,0,0-2.76,2.31L9,75.06A4.53,4.53,0,0,0,8.16,79a5.2,5.2,0,0,0,.55,1.17c-2,2.34,4.44,7.09,8.17,8.75a10.05,10.05,0,0,0,1.24.47c10.74,3,21.12,3.43,32,2.38s20.79-3,31.6-2.86l.15.33c.74,1.59,1.52,3.25,1.73,3.55,0,0,0,0,.05,0a120.34,120.34,0,0,0-8,10.78q-1.85,2.81-3.54,5.71c-1,1.66-1.77,3.72-3.13,5.1a3.58,3.58,0,0,1-2.77,1.16c-1.34-.13-2.35-1.22-3.35-2.12A15.92,15.92,0,0,0,61,112a5.09,5.09,0,0,0-2.3-.94,2.22,2.22,0,0,0-2.15,1,1.44,1.44,0,0,0,.74,2.05c.61.15,1.25-.18,1.86-.08a2.58,2.58,0,0,1,1,.46l3.51,2.3c-1.29,1.4-3.51,1-5.41,1.11a9.81,9.81,0,0,0-5.5,2,1.87,1.87,0,0,0-.9,1.42c0,.75.86,1.22,1.61,1.26a3.14,3.14,0,0,0,2.5-1.06,3.35,3.35,0,0,1,.77-.82,2.26,2.26,0,0,1,1.06-.24l5.11-.3c-2,3-6.12,3.52-8.87,5.79a1.53,1.53,0,0,0-.69,1.09c0,.76.92,1.1,1.65,1.25,1.22.25,2.77.36,3.41-.71.22-.37.27-.81.47-1.2a3.56,3.56,0,0,1,1.69-1.38,16.78,16.78,0,0,1,3.31-1.59c.86-.21,1.43-.11,2.13-.79.06,1.47,0,3,0,4.42a6.6,6.6,0,0,1-.15,1.54,14.9,14.9,0,0,1-1,2.13,2.31,2.31,0,0,0,0,2.26,2.08,2.08,0,0,0,1.63.79,2.64,2.64,0,0,0,2-.7c1.09-1.11,0-2.66-.19-3.94a17.31,17.31,0,0,1,.65-5.72c.09-.37.28-.83.67-.82s.49.31.62.58a10.84,10.84,0,0,1,1,4.11c0,1,0,2.19.7,2.93a1.73,1.73,0,0,0,2.89-1.75,3.49,3.49,0,0,0-.61-1,19,19,0,0,1-3.21-7.06,1.09,1.09,0,0,1,0-.69,1.18,1.18,0,0,1,.37-.4c2.29-1.77,5-3.77,6.79-6.1,2.67-2.88,5.18-5.89,7.69-8.9C89.4,100,91.38,95.05,90,89.52c7.79,1,15.51,2.87,23.33,3.51a97.79,97.79,0,0,0,32.38-2.78l.6-.18c-.37.86-.74,1.71-1.1,2.56a17.39,17.39,0,0,0-1.47,4.51,5.91,5.91,0,0,0,1.07,4.5c1.6,2,4.48,2.14,7,2.12,3,0,6.2-.21,9.29-.1a34.44,34.44,0,0,1,5.37.35c.58.11,5.13,1.41,3.65,2.48a1.59,1.59,0,0,1-.83.22l-7.07.56a1.37,1.37,0,0,0-1.08.42,1,1,0,0,0,.14,1.15,2.32,2.32,0,0,0,2.83.32,6.32,6.32,0,0,1,1.22-.61,3.08,3.08,0,0,1,1,0,10.64,10.64,0,0,1,3,.58c-.88,1.18-2.49,1.55-3.71,2.3a5.74,5.74,0,0,0-2.06,1.88,2.48,2.48,0,0,0,0,2.66,1.62,1.62,0,0,0,2.43.23c.45-.54.42-1.35.82-1.92a2.89,2.89,0,0,1,.92-.74l4-2.44c.8,2-.64,4-1.48,6a10.91,10.91,0,0,0-.62,6.53,2.06,2.06,0,0,0,1,1.59c.77.33,1.65-.29,2.05-1a3.5,3.5,0,0,0,.13-3,3.81,3.81,0,0,1-.46-1.18,2.49,2.49,0,0,1,.27-1.18c.72-1.77,1.43-3.54,2.15-5.32,2.05,3.43.62,7.89,1.58,11.76a1.76,1.76,0,0,0,.78,1.23c.76.35,1.56-.4,2.06-1.08.84-1.11,1.69-2.63.92-3.78-.27-.4-.69-.67-1-1a4.12,4.12,0,0,1-.58-2.38,17.66,17.66,0,0,1,0-4.11c.19-1,.57-1.5.22-2.54,1.51.65,3,1.44,4.46,2.17a6.54,6.54,0,0,1,1.48.89,15.36,15.36,0,0,1,1.66,2.07,2.6,2.6,0,0,0,2.26,1.13,2.34,2.34,0,0,0,1.58-1.27,2.9,2.9,0,0,0,.27-2.38c-.6-1.64-2.71-1.24-4.07-1.71a19.32,19.32,0,0,1-5.47-3.41c-.68-.54-.32-1.26-.51-2-.6-2.38-3.29-4-5.31-5.23h0l-.34-.21c-.89-.53-1.78-1-2.7-1.47a47.58,47.58,0,0,0-5.76-2.4c-2-.67-4-1.23-6-1.72-.64-.15-4.79-1.46-5-1.15,1.31-1.66,2.64-3.33,3.93-5a86.85,86.85,0,0,0,5.56-8.11q2.4-.95,4.76-2c1.78-.81,3.52-1.66,5.26-2.54,2.34-1.19,4.66-2.43,7-3.67l3.86-2,.73-.37c1.32-.68,2.63-1.34,4-2,3.16-1.51,6.4-2.89,9.61-4.32h0c1-.43,2-.87,3-1.37,1.52-.72,3-1.46,4.51-2.26q1.19-.63,2.34-1.32l.07,0c.58-.35,1.16-.73,1.72-1.11l.45-.31c.49-.34,1-.7,1.44-1.07l.24-.18c.56-.44,1.1-.91,1.63-1.38l.26-.23c.48-.44,1-.89,1.4-1.35a1.89,1.89,0,0,0,.2-.2,35.73,35.73,0,0,0,3-3.41l.1-.13c.64-.83,1.24-1.69,1.8-2.57h0c.26-.41.51-.82.76-1.24v0h0a31.9,31.9,0,0,0,1.51-2.9Z"/>
    </g>
  </g>
</svg>
