<svg xmlns="http://www.w3.org/2000/svg" width="148.63" height="168.6" viewBox="0 0 148.63 168.6">
  <defs>
    <style>
      .cls-1 {
        isolation: isolate;
      }

      .cls-2 {
        fill: #353535;
        opacity: 0.5;
      }

      .cls-3 {
        fill: #fff;
      }

      .cls-4, .cls-5, .cls-6 {
        fill: #312f30;
      }

      .cls-23, .cls-27, .cls-5 {
        opacity: 0.4;
      }

      .cls-14, .cls-15, .cls-16, .cls-17, .cls-27, .cls-5 {
        mix-blend-mode: multiply;
      }

      .cls-18, .cls-23, .cls-6 {
        mix-blend-mode: screen;
      }

      .cls-7 {
        fill: #555657;
      }

      .cls-8 {
        fill: #373537;
      }

      .cls-9 {
        fill: #2b2829;
      }

      .cls-10 {
        fill: #3d231b;
      }

      .cls-11 {
        fill: #871b25;
      }

      .cls-12 {
        fill: #461318;
      }

      .cls-13, .cls-14 {
        fill: #4a2c22;
      }

      .cls-16 {
        fill: #492c22;
      }

      .cls-16, .cls-17 {
        opacity: 0.57;
      }

      .cls-17 {
        fill: #211411;
      }

      .cls-18 {
        fill: #472c23;
      }

      .cls-19 {
        fill: #1a1517;
      }

      .cls-20 {
        fill: #2d292d;
      }

      .cls-21 {
        opacity: 0.1;
      }

      .cls-22 {
        fill: #73695f;
      }

      .cls-23 {
        fill: #747578;
      }

      .cls-24 {
        opacity: 0.7;
      }

      .cls-25 {
        fill: #f3f3f3;
      }

      .cls-26 {
        fill: #341d10;
        opacity: 0.3;
      }

      .cls-28 {
        fill: #c8c6c6;
      }
    </style>
  </defs>
  <g class="cls-1">
    <g id="Layer_1" data-name="Layer 1">
      <g>
        <path class="cls-2" d="M53.74,168.6c-2.63,0-5.36-1-8.35-3.21a10.93,10.93,0,0,1-.9-.74,4.8,4.8,0,0,1-2.47-2.8c0-.1-.07-.2-.1-.3-.17-.28-.33-.53-.48-.8l-.19-.32c-.24-.43-.45-.83-.65-1.26l-.12-.26c-.19-.4-.33-.71-.47-1l-.21-.5c-.15-.36-.28-.7-.42-1.06l-.2-.55-.39-1.11-.21-.64-.28-.91-.18-.62c-.13-.43-.26-.89-.38-1.35l-.2-.74-.21-.85s-.25-1-.25-1c-.9-3.84-1.7-8.39-2.39-13.57a5.91,5.91,0,0,1-2.93-.74,5.09,5.09,0,0,1-2.25-2.6c0-.13-.09-.26-.12-.39s-.09-.36-.13-.54a5.3,5.3,0,0,1-.07-1v-.07a4.55,4.55,0,0,1,0-.52s0-.08,0-.12a6.13,6.13,0,0,1,.21-.87,6,6,0,0,1,3.43-3.82l.59-.25c-.42-4.63-.78-9.66-1.09-15.28a139.77,139.77,0,0,1,1-24.13c-.39-.06-.8-.1-1.26-.14A20.93,20.93,0,0,1,29,84l-.33,0c-.38,0-.75,0-1.12-.09l-.7.36c-.21.12-.44.24-.71.37l-.46.25a9.62,9.62,0,0,1-3.33,1l-.11,0-.77.47a8.7,8.7,0,0,1-4,1.61,12.13,12.13,0,0,0-1.71,1.44,5.44,5.44,0,0,1-5.21,3.87,6.84,6.84,0,0,1-2.65-.59l-.1,0-.43-.15-.26-.11-.35-.15-.24-.11A4.67,4.67,0,0,1,6,91.81l-.33-.22a5.92,5.92,0,0,1-.59-.46L5,91a5.51,5.51,0,0,1-.74-.86,1.88,1.88,0,0,1-.16-.23,5.05,5.05,0,0,1-.39-.77,4.26,4.26,0,0,1-.26-.73v0c0-.15-.07-.3-.1-.46a5.65,5.65,0,0,1,0-2.13c.36-1.6,1.5-3.67,4.89-4.49h0a9.19,9.19,0,0,0,2.1-1.74l.9-.86c.08-.2.17-.39.26-.57l.12-.21c.07-.12.15-.25.25-.39h0c.09-.13.19-.27.3-.4a6.46,6.46,0,0,1,.9-.91l.15-.13a8.25,8.25,0,0,1,2-1.13l.25-.09.61-.21c.48-.14.95-.25,1.34-.34l.25,0a12.21,12.21,0,0,0,3-1.41c.77-.45,1.65-1,2.63-1.42a7.71,7.71,0,0,1,1.4-.49,3.8,3.8,0,0,1,.49-.1,5.51,5.51,0,0,1,.9-.1h.45l.26-.08a6.16,6.16,0,0,1,1.1-.23,8.94,8.94,0,0,1,1-.06,12.83,12.83,0,0,1,4.94,1.19l.08,0c-.11-.3-.21-.6-.31-.9s-.23-.7-.33-1a10.07,10.07,0,0,1-1.11-.73L32,68.76c-.84-.58-1.67-1.22-2.39-1.78a109.68,109.68,0,0,1-8.69-6.86,12.28,12.28,0,0,1-1.79-1.72L19,58.31a7,7,0,0,1-2.61-2.89,15.27,15.27,0,0,1-1.48-3.34c-.13-.31-.24-.62-.34-.94l-.25-.82a8.07,8.07,0,0,0-.47-1.38c-.11-.23-.21-.44-.3-.66A9.15,9.15,0,0,0,11.2,48a3.21,3.21,0,0,0-.79.07A5.78,5.78,0,0,1,9,48.2a5.61,5.61,0,0,1-4-1.7c-1.89-1.93-2.09-4.66-2-7.31V39a5.21,5.21,0,0,1,.33-1.81c.07-.17.14-.34.22-.51l.16-.29a5.15,5.15,0,0,1,1.58-1.7,4.93,4.93,0,0,1,1.87-.78,5.38,5.38,0,0,1,.9-.08,5,5,0,0,1,3.33,1.3h0a6.79,6.79,0,0,1,1.27,1.54,13.75,13.75,0,0,1,3.29.72l.67.28.53.23.68.29.2.08h.2a6,6,0,0,1,1.38.16,4.4,4.4,0,0,1,.47.1,5.69,5.69,0,0,1,.71.27,6.39,6.39,0,0,1,.64.3l.57.36.25.13h0c.14.08.3.17.41.25a5.06,5.06,0,0,1,.67.52,3.45,3.45,0,0,1,.36.34,7.48,7.48,0,0,1,.52.61l.27.39c.1.15.2.31.28.46a1.51,1.51,0,0,0,.11.22c.07.15.14.31.2.47l.09.23c0-.05,0-.1.05-.15.07-.21.15-.43.24-.64v0c.05-.14.11-.28.17-.42l.06-.13c.1-.25.19-.47.29-.68a24.08,24.08,0,0,1,3.77-5.47l-.33-.29h0a5,5,0,0,1-1.52-2.73,5.26,5.26,0,0,1-.07-1.4A4.91,4.91,0,0,1,28,30a6.6,6.6,0,0,1,.93-1.73,5.43,5.43,0,0,1,2.8-2,5.59,5.59,0,0,1,1.11-.2l.39-.06a5.5,5.5,0,0,1,1.87-.33h.61a4.1,4.1,0,0,1,.5,0h0a5.33,5.33,0,0,1,1.18.13l.41.05c.22,0,.43.07.64.12a5.21,5.21,0,0,1,1,.21,5.62,5.62,0,0,1,.57.09l.43-.21.13-.07a5.12,5.12,0,0,1,.27-.52,5.43,5.43,0,0,1,.41-.88,5,5,0,0,1,.28-.57,3.79,3.79,0,0,1,.2-.34,5.13,5.13,0,0,1,.68-1.13,5.74,5.74,0,0,1,.51-.68,5.47,5.47,0,0,1,1.52-1.46c.08-.09.18-.17.27-.26a4.92,4.92,0,0,1,.81-.75,5.45,5.45,0,0,1,3.28-1.06,6.49,6.49,0,0,1,1.93.29A5.09,5.09,0,0,1,52.9,20a3.88,3.88,0,0,1,.26.31,5,5,0,0,1,1,2.56s0,.16,0,.23h.1a24.93,24.93,0,0,1,3-.17,23.91,23.91,0,0,1,3.62.27,14,14,0,0,1,2.19.53,2.48,2.48,0,0,1-.17-.32c-.08-.14-.15-.29-.22-.44l-.11-.3-.15-.46a6.76,6.76,0,0,1-.16-.71c0-.2,0-.4-.07-.61a5,5,0,0,1,0-.86c0-.09,0-.26,0-.42s0-.17,0-.26a5.61,5.61,0,0,1,.07-.68c0-.26.09-.51.14-.7a5.69,5.69,0,0,1,.19-.62,3.65,3.65,0,0,1,.23-.54,5.84,5.84,0,0,1,.83-1.33s.06-.21.06-.23c.06-.22.12-.45.17-.68,0,0,.14-.58.14-.6.06-.23.12-.47.19-.69a13.19,13.19,0,0,1,1.4-3.05,7.56,7.56,0,0,1-.46-1.95h0a5,5,0,0,1,1.51-4,4.68,4.68,0,0,1,1.7-1,5,5,0,0,1,1.77-.32A4.6,4.6,0,0,1,71,3l.15,0a5.78,5.78,0,0,1,.69.17,5.22,5.22,0,0,1,1.53.76l.19.14c1.48,1.07,4.58,3.3,4.66,6.74a5.62,5.62,0,0,1-2.15,4.57A8,8,0,0,0,74.38,18c.11.2.23.42.34.64a9.62,9.62,0,0,0,.82,1.21l.5.68c.2.28.37.55.54.83a15.64,15.64,0,0,1,1.78,3.21,7,7,0,0,1,.73,3.83c0,.06,0,.11,0,.17a12.41,12.41,0,0,1,.3,2.41c.3,3.29.31,8.38.23,11.12,0,1,0,2,0,3v.27A9.77,9.77,0,0,1,79.45,47l-.09.51.28.39.82,1.25c.07-.25.14-.53.21-.79a11.64,11.64,0,0,1,2.71-5.46,7.83,7.83,0,0,1,.86-.75l.2-.14a4,4,0,0,1,.27-.34,6.7,6.7,0,0,1,.64-.67l.34-.31A7.75,7.75,0,0,1,87,39.82c1-.5,1.89-.9,2.71-1.24a11.61,11.61,0,0,0,2.92-1.53l.19-.16c.31-.26.68-.57,1.08-.86l.56-.38.27-.17a7.71,7.71,0,0,1,2-.87l.24-.06a5.61,5.61,0,0,1,1.24-.16h.5l.43,0,.28,0a4.13,4.13,0,0,1,.61.13l1.23-.2a9,9,0,0,0,2.66-.63l0,0a6.59,6.59,0,0,1,4.2-1.69,5.45,5.45,0,0,1,2.32.51,5.58,5.58,0,0,1,1.74,1.24,2.31,2.31,0,0,1,.2.24l.17.21a5.25,5.25,0,0,1,.38.58,5.07,5.07,0,0,1,.29.57l.07.18a5.77,5.77,0,0,1,.36,2.38,2.6,2.6,0,0,1,0,.4c0,.15,0,.31-.07.47s0,.2-.07.32a3,3,0,0,1-.08.34s-.24.79-.24.79c-1.14,4.16-4.19,4.61-5.44,4.61a5.71,5.71,0,0,1-1.9-.33,11.79,11.79,0,0,0-2.21.5A9.24,9.24,0,0,1,100,47.26l-.86.34-.08.07a9.64,9.64,0,0,1-2.81,2l-.46.22-.74.34-.7.34c-.2.32-.4.64-.61,1l-.18.27A18.23,18.23,0,0,1,92,54.67c-.24.39-.46.74-.65,1.09a140.62,140.62,0,0,1,19.89,13.72c4.28,3.63,8.07,7,11.5,10.07a5.94,5.94,0,0,1,2.23-.43,6.31,6.31,0,0,1,2.15.39,5.61,5.61,0,0,1,.83.38l.39.23.25.17a4.69,4.69,0,0,1,.83.79,4.3,4.3,0,0,1,.38.49,5.07,5.07,0,0,1,.8,3.38,6.26,6.26,0,0,1-.45,1.58,146.15,146.15,0,0,1,10,10.7l.12.14.55.66,1,1.29.89,1.17s.75,1,.94,1.31l.34.48.76,1.13.19.31c.21.34.44.7.65,1.06l.24.41.55,1,.15.29c.21.42.41.83.6,1.25l.12.27c.15.36.27.66.38,1l.18.26a4.86,4.86,0,0,1,.74,3.66,9.24,9.24,0,0,1,0,1.16c-.23,11.25-7.73,12.46-10.94,12.46h0c-3.6,0-8.15-1.24-15.21-4.16-2.07-.86-4.22-1.7-6.51-2.59s-4.84-1.89-7.26-2.89a4.9,4.9,0,0,1-1.6-.67c-.79-.34-1.56-.67-2.29-1-.11,12.93-1.75,21.59-8.56,24.88h0a10.44,10.44,0,0,1-1.25.53l-.39.14a11,11,0,0,1-1.1.29l-.32.07a12.84,12.84,0,0,1-1.35.16l-.38,0H90.32l-.47,0a12.77,12.77,0,0,1-1.28-.16l-.49-.09-.56-.11-.38-.11c-3.88-1-8.54-3.52-14.78-8-.07.26-.13.53-.2.8a4.9,4.9,0,0,1-.43,1.69c-.66,2.53-1.38,5.06-2.07,7.52s-1.3,4.6-1.87,6.76C65.27,159.18,62.11,168.6,53.74,168.6Z"/>
        <path class="cls-3" d="M50.84,165.7c-2.63,0-5.37-1.06-8.35-3.22a9.31,9.31,0,0,1-.9-.73,4.83,4.83,0,0,1-2.48-2.81c0-.1-.06-.2-.1-.3-.17-.27-.33-.53-.48-.79l-.19-.33c-.23-.43-.44-.83-.65-1.25l-.12-.27c-.18-.39-.33-.71-.47-1l-.21-.5-.42-1.06-.2-.54-.39-1.12-.2-.64c-.1-.28-.19-.59-.28-.9l-.19-.62c-.13-.44-.25-.89-.38-1.36l-.19-.73-.22-.86s-.24-1-.25-1c-.89-3.84-1.69-8.39-2.38-13.57a6.06,6.06,0,0,1-2.94-.75,5,5,0,0,1-2.24-2.6c-.05-.13-.09-.26-.13-.38a5.41,5.41,0,0,1-.12-.55,5.32,5.32,0,0,1-.08-1v-.07a4.4,4.4,0,0,1,0-.51.5.5,0,0,1,0-.12,4.91,4.91,0,0,1,.2-.88A6,6,0,0,1,30,121.31l.6-.25c-.42-4.63-.78-9.66-1.09-15.27a138.93,138.93,0,0,1,1.05-24.14c-.4-.06-.81-.1-1.27-.14A19.9,19.9,0,0,1,26.09,81l-.32,0c-.38,0-.76,0-1.13-.09l-.69.35-.71.38-.46.24a9.72,9.72,0,0,1-3.34,1l-.1,0-.78.48a8.81,8.81,0,0,1-4,1.61,11.41,11.41,0,0,0-1.71,1.44,5.44,5.44,0,0,1-5.21,3.87A6.88,6.88,0,0,1,5,89.73l-.09,0-.43-.15-.27-.1-.34-.15-.24-.12a4.82,4.82,0,0,1-.5-.27l-.32-.21a4.26,4.26,0,0,1-.59-.46,1.36,1.36,0,0,1-.12-.12,5.57,5.57,0,0,1-.75-.86L1.18,87a5.05,5.05,0,0,1-.39-.77c-.1-.24-.19-.49-.26-.72v0a3.63,3.63,0,0,1-.1-.45,5.26,5.26,0,0,1,0-2.13c.35-1.6,1.49-3.67,4.88-4.5h0a8.94,8.94,0,0,0,2.11-1.74l.9-.86a5.69,5.69,0,0,1,.26-.56L8.79,75c.07-.12.15-.25.24-.38H9c.09-.14.2-.27.3-.4a6,6,0,0,1,.9-.92l.16-.12a7.72,7.72,0,0,1,2-1.14l.25-.09c.17-.06.39-.14.61-.2.48-.15,1-.26,1.35-.35l.24-.05a12.26,12.26,0,0,0,3-1.41c.77-.45,1.64-1,2.63-1.41a7.36,7.36,0,0,1,1.39-.5l.49-.1a7.08,7.08,0,0,1,.9-.1h.46l.25-.08a6.49,6.49,0,0,1,1.1-.22,7.37,7.37,0,0,1,1-.07A12.6,12.6,0,0,1,31,68.68l.08,0c-.11-.3-.21-.59-.31-.89l-.33-1.06A10.07,10.07,0,0,1,29.36,66l-.25-.17c-.84-.59-1.67-1.22-2.39-1.78-2.21-1.59-6.25-4.65-8.69-6.87a12.25,12.25,0,0,1-1.78-1.72l-.15-.09a7,7,0,0,1-2.61-2.88A16.35,16.35,0,0,1,12,49.17c-.12-.31-.24-.62-.34-.94s-.17-.55-.24-.82A10.82,10.82,0,0,0,11,46c-.12-.22-.22-.44-.31-.65a9.07,9.07,0,0,0-2.35-.33,4.31,4.31,0,0,0-.79.06,5.92,5.92,0,0,1-1.44.18,5.61,5.61,0,0,1-4-1.7C.15,41.66,0,38.94,0,36.28v-.16a5,5,0,0,1,.34-1.8,3.38,3.38,0,0,1,.22-.52l.15-.29A5.13,5.13,0,0,1,2.3,31.82,4.69,4.69,0,0,1,4.17,31a4.58,4.58,0,0,1,.9-.09,5,5,0,0,1,3.34,1.3h0A7.67,7.67,0,0,1,9.68,33.8a12.69,12.69,0,0,1,3.28.72c.22.08.45.17.67.27l.54.23c.22.1.45.21.68.3l.2.07h.2a6.46,6.46,0,0,1,1.37.15,3.57,3.57,0,0,1,.47.11,5.08,5.08,0,0,1,.71.26,6.37,6.37,0,0,1,.64.31,6,6,0,0,1,.58.35l.24.13h0l.42.26a6.63,6.63,0,0,1,.67.51c.08.07.22.2.36.35a5.87,5.87,0,0,1,.51.6l.27.39c.1.15.2.32.28.47l.11.22c.07.15.14.3.21.47a2,2,0,0,1,.08.22,1.21,1.21,0,0,0,0-.14c.07-.22.16-.44.24-.65v0c.05-.14.1-.28.16-.42l.06-.12a6.27,6.27,0,0,1,.3-.68,23.51,23.51,0,0,1,3.77-5.48l-.34-.28h0a5,5,0,0,1-1.51-2.74,4.85,4.85,0,0,1-.08-1.4,4.59,4.59,0,0,1,.26-1.21A6,6,0,0,1,26,25.33a5.39,5.39,0,0,1,2.79-2,5,5,0,0,1,1.12-.2l.39-.07a5.66,5.66,0,0,1,1.87-.33h.17l.43,0,.51,0h0a5.3,5.3,0,0,1,1.18.14l.41,0a4.53,4.53,0,0,1,.64.13,4.47,4.47,0,0,1,1,.2,5.62,5.62,0,0,1,.57.09l.43-.21.13-.06a3.25,3.25,0,0,1,.28-.52,5.49,5.49,0,0,1,.4-.89c.09-.19.18-.38.28-.57l.21-.34a4.7,4.7,0,0,1,.68-1.12A4.92,4.92,0,0,1,40,19a5.4,5.4,0,0,1,1.51-1.45l.28-.27a4.92,4.92,0,0,1,.81-.75,5.42,5.42,0,0,1,3.27-1,6.09,6.09,0,0,1,1.93.29A4.81,4.81,0,0,1,50,17.13l.27.31a5.06,5.06,0,0,1,1,2.57s0,.15,0,.23l.09,0a27.34,27.34,0,0,1,3-.17,22.71,22.71,0,0,1,3.63.28,14.14,14.14,0,0,1,2.18.52L60,20.54a4.54,4.54,0,0,1-.21-.45,2.65,2.65,0,0,1-.11-.3,3.53,3.53,0,0,1-.15-.46,4.64,4.64,0,0,1-.16-.71,5.68,5.68,0,0,1-.07-.61,6.16,6.16,0,0,1,0-.86c0-.08,0-.25,0-.42s0-.17,0-.26,0-.44.06-.67a7.21,7.21,0,0,1,.15-.71,3.89,3.89,0,0,1,.18-.62,5,5,0,0,1,.23-.53,6.54,6.54,0,0,1,.83-1.34s.06-.2.07-.22c.06-.23.11-.46.16-.69,0,0,.14-.57.15-.59,0-.24.12-.47.18-.7a13.18,13.18,0,0,1,1.41-3.05,7,7,0,0,1-.47-1.94h0a5.07,5.07,0,0,1,1.51-4,4.88,4.88,0,0,1,1.7-1A5,5,0,0,1,67.34,0a6,6,0,0,1,.74.05l.16,0a4,4,0,0,1,.68.16A5.1,5.1,0,0,1,70.45,1l.19.14c1.49,1.07,4.58,3.3,4.67,6.75a5.64,5.64,0,0,1-2.15,4.56,7.91,7.91,0,0,0-1.69,2.66c.12.2.23.42.35.65a7.9,7.9,0,0,0,.81,1.2q.25.33.51.69c.19.27.37.55.54.83a16.35,16.35,0,0,1,1.78,3.21,6.94,6.94,0,0,1,.72,3.82c0,.06,0,.12,0,.17a12.4,12.4,0,0,1,.29,2.41c.3,3.29.31,8.39.24,11.13,0,1,0,2,0,3v.27a10.94,10.94,0,0,1-.13,1.56,4.54,4.54,0,0,1-.09.51c.09.13.19.26.28.4.28.41.56.83.82,1.24.07-.24.15-.52.22-.79A11.48,11.48,0,0,1,80.48,40a6.8,6.8,0,0,1,.85-.75l.2-.14.27-.34a6.86,6.86,0,0,1,.64-.68c.11-.11.22-.2.34-.3a7.54,7.54,0,0,1,1.27-.84c1-.51,1.89-.9,2.71-1.25a12.22,12.22,0,0,0,2.93-1.52l.19-.16c.31-.27.68-.57,1.08-.87l.55-.37.28-.18a8,8,0,0,1,2-.87l.24-.06a6.28,6.28,0,0,1,1.24-.16h.5c.16,0,.3,0,.43,0l.29,0c.2,0,.4.08.6.13l1.23-.19a9.3,9.3,0,0,0,2.66-.64l0,0a6.57,6.57,0,0,1,4.21-1.69,5.58,5.58,0,0,1,2.31.5,5.38,5.38,0,0,1,1.74,1.25l.21.23.17.22a3.82,3.82,0,0,1,.37.58,3.71,3.71,0,0,1,.29.56c0,.06.05.12.08.19a5.87,5.87,0,0,1,.36,2.37c0,.15,0,.26,0,.41s0,.3-.07.47,0,.2-.06.31,0,.2-.09.34l-.24.79c-1.14,4.16-4.18,4.61-5.44,4.61a6,6,0,0,1-1.9-.32,11.43,11.43,0,0,0-2.2.49A9.22,9.22,0,0,1,97,44.35l-.86.34-.07.07a9.86,9.86,0,0,1-2.82,2.06l-.46.21c-.27.14-.51.25-.73.35l-.71.34c-.19.32-.4.63-.61,1l-.17.27a20.09,20.09,0,0,1-1.54,2.82c-.25.39-.47.75-.66,1.09A139.24,139.24,0,0,1,108.3,66.58c4.28,3.63,8.07,6.94,11.51,10.06a6,6,0,0,1,2.22-.43,6.37,6.37,0,0,1,2.16.39A6.73,6.73,0,0,1,125,77l.38.23.25.18a5,5,0,0,1,.84.78,5.86,5.86,0,0,1,.37.5,5,5,0,0,1,.8,3.37,5.77,5.77,0,0,1-.45,1.58,146.15,146.15,0,0,1,10,10.7l.13.14.54.67,1,1.28c.31.4.61.79.89,1.17l1,1.31.33.48c.26.38.52.76.76,1.14l.19.3c.22.34.44.7.65,1.06l.24.41c.19.34.38.68.55,1l.15.29c.22.42.42.84.6,1.25l.12.28c.15.35.27.66.38,1l.19.27a4.83,4.83,0,0,1,.73,3.65c0,.41.05.8.05,1.16-.24,11.25-7.74,12.47-11,12.47h0c-3.6,0-8.15-1.25-15.22-4.17-2.06-.85-4.22-1.69-6.5-2.59s-4.84-1.89-7.27-2.89a4.73,4.73,0,0,1-1.59-.67l-2.3-1c-.1,12.93-1.75,21.6-8.55,24.88h0a10.43,10.43,0,0,1-1.25.54l-.38.13a11.21,11.21,0,0,1-1.11.29l-.32.07a10.64,10.64,0,0,1-1.35.16l-.38,0H88l-.63,0-.47,0c-.4,0-.83-.09-1.28-.16l-.48-.09-.57-.12-.38-.11c-3.88-1-8.54-3.52-14.78-8-.06.27-.13.54-.2.81a5,5,0,0,1-.43,1.69c-.66,2.53-1.37,5.06-2.07,7.51s-1.3,4.6-1.86,6.77C62.36,156.27,59.2,165.7,50.84,165.7Z"/>
        <g>
          <g>
            <g>
              <g>
                <g>
                  <g>
                    <g>
                      <path class="cls-4" d="M38.91,120.82c-.69-.28-1.18.47-1.49,1.22a9.55,9.55,0,0,1-3,2.69c-.8.4-1.65.64-2.45,1a1.27,1.27,0,0,0-.81.9c0,.11-.09.34.05.42.84.47,2.89-.42,3.64-.85a9.54,9.54,0,0,0,1.84-1,30.51,30.51,0,0,0,2.05-2.8C39,122.12,39.57,121.07,38.91,120.82Z"/>
                      <path class="cls-4" d="M44.83,110c-.34-.55.53-.1-.2,0a1.83,1.83,0,0,0-2,.93,22.11,22.11,0,0,0-1.29,2.46,23.51,23.51,0,0,1-2.08,3.39c-1,1.22-2.39,2.5-2.48,4.13-.07,1.2.1,2.1,1.32,1.8s2-3.39,2.55-4.29a70.82,70.82,0,0,1,3.93-6A1.88,1.88,0,0,0,44.83,110Z"/>
                      <path class="cls-4" d="M43.45,93.37c-.25-.08-.43.43-.34.68-.75.24-1.49.72-1.49,1.6,0,2.46.3,4.93.37,7.39,0,1,.11,1.94.17,2.92.09,1.42-.17,2.81-.13,4.23,0,1.22,1.67,3.4,2.31,2.29,1.65-2.91.18-6.71,0-9.27-.12-2.21.77-3.77.26-5.94C44.25,95.61,45.22,93.91,43.45,93.37Z"/>
                      <path class="cls-4" d="M51.62,85.06c0-.07,0-.1-.12,0a40.69,40.69,0,0,1-4.93,4.44,28.19,28.19,0,0,1-2.78,2,4.15,4.15,0,0,0-1.49,1.33c-1,1.52.21,4,2,3a10.2,10.2,0,0,0,2.93-3.48,9.86,9.86,0,0,1,2.67-2.79,6.82,6.82,0,0,0,1.75-1.55c.75-1.07,2-1.13,1.56-2.35A.93.93,0,0,0,51.62,85.06Z"/>
                    </g>
                    <path class="cls-5" d="M51.62,85.06c0-.07,0-.1-.12,0-.29.31-.59.61-.89.91.31.92-.49,1.11-1,2.07-.83,1.59-2.37,2.68-3.62,3.92a20.28,20.28,0,0,0-1.66,3.19c-.32.71.23,1.53-.57,1.38A2.78,2.78,0,0,1,41.87,95a2.75,2.75,0,0,0,.21.51,3.45,3.45,0,0,0,1.52,1.28c.71.41.58,1,.61,1.8,0,1.15-.73,5.46-.51,6.4.26,1.13,1.29,4.44.93,5.13-.58,1.12-1.3,1.8-2.24,1.29h0c-.13.22-.25.44-.36.67a2.15,2.15,0,0,0,2,.93c.12,0-1.06-1.13-1.1-1-.94,3-2.39,6.13-3.58,9,0,.09-.16.16-.24.09l-.37-.3a7.88,7.88,0,0,0,.11,1.27.16.16,0,0,1-.17.19,2.55,2.55,0,0,1-1.8-.65,2.21,2.21,0,0,0,.34.77c-.2.24-.4.47-.61.7.21,1.23-1.14,2.28-2.1,2.82a6.25,6.25,0,0,1-3.35,1,.21.21,0,0,0,.09.2c.84.47,2.89-.42,3.64-.85a9.54,9.54,0,0,0,1.84-1,14.3,14.3,0,0,0,1.56-2.12c.23,0,2.5-4.89,3-5.79,1.14-2,1.45-1.83,3.39-5a1.94,1.94,0,0,0,.37-1.94c.93-2-1.6-6.26-.25-11.2a34,34,0,0,0-.22-3.64c1-.82,3.9-5.18,5-6,.62-.44,4-2.75,3.6-4A.93.93,0,0,0,51.62,85.06Z"/>
                    <path class="cls-6" d="M39,117.7c1.2-1.64,3.08-3.5,3.07-5.67-.24.49-.45,1-.71,1.45A27.49,27.49,0,0,1,38.88,117c-1,1.23-2,2.4-2.09,4a2,2,0,0,0,.31,1.2C36.74,120.61,38.11,118.9,39,117.7Z"/>
                    <path class="cls-6" d="M43.23,111.41c-1.2-2.37.19-4.9-.11-7.41a54.59,54.59,0,0,0-1.42-5.94c.09,1.66.24,3.32.29,5,0,1,.11,1.94.17,2.92.09,1.38-.15,2.74-.13,4.12A2.29,2.29,0,0,0,43.23,111.41Z"/>
                  </g>
                  <path class="cls-6" d="M42.09,93.42A4.61,4.61,0,0,0,42.74,95c.16-2.26,1.9-3.54,3.65-4.85,1.34-1,3.2-2.24,3.93-3.89a41.5,41.5,0,0,1-3.75,3.24,28.19,28.19,0,0,1-2.78,2,4.15,4.15,0,0,0-1.49,1.33A1.47,1.47,0,0,0,42.09,93.42Z"/>
                  <path class="cls-6" d="M36.48,123.12a7.12,7.12,0,0,1-2.06,1.61c-.8.4-1.65.64-2.45,1a1.27,1.27,0,0,0-.81.9,1.72,1.72,0,0,0,0,.18C32.39,125.07,35.78,125.28,36.48,123.12Z"/>
                </g>
                <g>
                  <g>
                    <path class="cls-4" d="M14.2,78.05c-.64-.27-1.46.4-2,.85C10.52,80.37,9.1,82.24,6.93,83c-.53.19-1.56.24-1.72.95s.94,1,1.47,1.23c.69.27,1.33.58,1.58-.3.58-2,3.22-3.55,4.83-4.83.66-.52,1.94-.32,2-1.45C15.12,78.06,14.65,78,14.2,78.05Z"/>
                    <path class="cls-4" d="M24.27,72.74a.14.14,0,0,0-.14.05,2.09,2.09,0,0,0-1.62.15c-2.25,1.06-4,2.55-6.52,3.15-.92.22-2.9.53-3.15,1.72s-.68,1.37.22,2.09c1.27,1,2.92-.76,4.23-1.45.93-.49,2.85-.67,3.8-1.13A13.83,13.83,0,0,1,23.84,76C26.62,75.12,27,73.46,24.27,72.74Z"/>
                    <path class="cls-4" d="M36.76,76.12c-1.34-1.51-3.48-1.86-5.36-2.22s-3.76-1.79-5.78-1.54a2.65,2.65,0,0,0-2.25,2.27c0,.68.25.68.7,1.2.05.19,1.21-.2,2.06.15,2,.82,3.8.57,5.92,1,1.12.23,4,2.09,5,1.07S37.52,77,36.76,76.12Z"/>
                    <path class="cls-4" d="M49,77.5c-1.1-1.26-3-1.69-4.56-2-1.89-.32-3.73.34-5.6-.28-1.08-.37-2.36-.36-2.85.86-.41,1,.35.85.89,1.67.95,1.42,2.77.6,4.07.26,1.74-.44,3.65.9,5.47,1a2.75,2.75,0,0,0,2.2.1C49,78.82,49.4,78,49,77.5Z"/>
                  </g>
                  <path class="cls-5" d="M49,77.5c-1.1-1.26-3-1.69-4.56-2s-2.92.1-4.38,0c.64.62,1.29,1.23,2,1.8.09.08.1.28-.05.29-.5,0-4.6.6-5.1.2a2,2,0,0,1-.43-2.1,2.26,2.26,0,0,0-.88,1.62c0,.35-5.45-1.38-6.49-1.51-1.39-.16-3.22.2-4.42-.14-.95-.26-.44-2.18-.05-2.9l-.08,0-.22-.07a.14.14,0,0,0-.14.05,2.59,2.59,0,0,0-.4-.09,3.38,3.38,0,0,0-.93,2.88.18.18,0,0,1-.08.18,2.58,2.58,0,0,1-.65.13c.3.28-1.33.84-1.66.54-.54-.48-1.8-.4-6,3.18-.75.64-1.37-1.22-1.47-2.1a1.08,1.08,0,0,0-.11.3,2.3,2.3,0,0,0-.05.63c-.21.15-.41.32-.58.46a1.76,1.76,0,0,1-.28,1,5.12,5.12,0,0,1-1.19.92,9.2,9.2,0,0,0-1.49,1.3c-.63.73-1.14,2.09-2.16,2.37a2.74,2.74,0,0,1-1.88-.24c.15.54,1,.73,1.47.91.69.27,1.33.58,1.58-.3.58-2,3.22-3.55,4.83-4.83a1.4,1.4,0,0,1,.32-.18c.23.28.46.84,3.73-1.31.88-.57,2.21-.33,3.35-.94,2.67-1.43,3.41-1.71,3.58-1.8a6.9,6.9,0,0,0,2.65.4c10,.77,8,3.07,10.35,1.84,1,.86,2.9.26,4,0,1.74-.45,3.44.92,5.26,1a2.75,2.75,0,0,0,2.2.1C49,78.82,49.4,78,49,77.5Z"/>
                  <path class="cls-6" d="M5.3,84.4c.51-.58,1.55-.65,2.19-1a21.27,21.27,0,0,0,3.42-2.79,4.83,4.83,0,0,0,1.2-1.27,2.68,2.68,0,0,0,.18-.47l-.08.06C10.52,80.37,9.1,82.24,6.93,83c-.53.19-1.56.24-1.72.95a.61.61,0,0,0,.07.47Z"/>
                  <path class="cls-6" d="M14.79,76.83a17.59,17.59,0,0,0,3.7-1.46,26.08,26.08,0,0,0,3.35-1.66,8.86,8.86,0,0,1,1.75-1,2.41,2.41,0,0,0-1.08.25c-2.25,1.06-4,2.55-6.52,3.15-.91.22-2.87.53-3.15,1.7A4.17,4.17,0,0,1,14.79,76.83Z"/>
                  <path class="cls-6" d="M26.07,72.72a12.19,12.19,0,0,0,3.42,1,24.85,24.85,0,0,1,3.5,1,7.77,7.77,0,0,0,2,.64,2.23,2.23,0,0,0,.68-.09A12.66,12.66,0,0,0,31.4,73.9c-1.95-.38-3.76-1.79-5.78-1.54a1.3,1.3,0,0,0-.33.07A2.87,2.87,0,0,1,26.07,72.72Z"/>
                  <path class="cls-6" d="M36.75,75.23a2.8,2.8,0,0,0-.68,1.7,3,3,0,0,1,3.19-1.13,7,7,0,0,0,2.31.27,6.76,6.76,0,0,0,1.77-.62c-1.52,0-3,.32-4.54-.19A2.75,2.75,0,0,0,36.75,75.23Z"/>
                </g>
                <g>
                  <g>
                    <path class="cls-4" d="M31.89,55.91c-.05,0-.09,0-.11.06a15.5,15.5,0,0,0-2.37-1.22c-2.55-1.1-4.93-1.81-7-4.1-.72-.81-2.41-1.46-3-.37-.77,1.48,1.37,3,2.34,3.75,2.25,1.75,4.47,3.56,6.72,5.32,1.11.86,2.22,1.75,3.37,2.55.64.44,1.51,1.14,2.25,1a2.32,2.32,0,0,0,1.68-2.81C35.49,57.91,33.67,56.65,31.89,55.91Z"/>
                    <path class="cls-4" d="M15.13,40.24c-1.34.11-2.65-.73-3.87-1.19a21.76,21.76,0,0,0-3.94-.66C6,38.15,6,36.64,5.14,35.83c-.15-.14-.28.2-.28.29,0,.68-.27,4.73,1.46,4.3a12.43,12.43,0,0,1,7.93,1.22v0c.88,1.17,2,1.11,2.5-.35,0-.09.07-.26,0-.34A1.94,1.94,0,0,0,15.13,40.24Z"/>
                    <path class="cls-4" d="M15.16,40.79c-.06,0-.1.12-.11.23a1.35,1.35,0,0,0-.32.54,4,4,0,0,0,.58,2.34,20.54,20.54,0,0,1,1,2.89,21.6,21.6,0,0,0,1,2.44c.59,1.31.81,2.15,2.19,2.28,2.32.23-.06-3.46-.6-4.81-.64-1.6-.88-3.28-1.54-4.85A1.69,1.69,0,0,0,15.16,40.79Z"/>
                  </g>
                  <path class="cls-5" d="M31.89,55.91A1.7,1.7,0,0,1,32.48,57c.14,1.24-1.33,1.83-2.44,1.6.41.36.86.66,1.27,1,.13.11,0,.29-.17.25a11.29,11.29,0,0,1-3-1.66c-1.24-.74-1.9-1.67-3.15-2.39s-1.34-1.28-4-3.41C21,52.35,19.58,52,19.67,52c.93-.19.93-.83.84-1.52l-.17-.12A4.79,4.79,0,0,0,20,49.09c-.12.68-.14,1.8-.73,1.75-1.19-.09-1.55-1.44-1.81-2.37C17.12,47.3,17,46.1,16.59,45c-.31-.88-1.26-1.5-1.23-2.46.07-1.59,1-1.54,2.12-1a1.44,1.44,0,0,0-.91-.73,2,2,0,0,0-.81-.48,15.1,15.1,0,0,0-1.67.3,3,3,0,0,1-1.51-.2,11.27,11.27,0,0,0-4.73-.77,2.46,2.46,0,0,1-2.39-.74c-.61-.86-.15-2-.56-2.93a.37.37,0,0,0,0,.15c0,.68-.27,4.73,1.46,4.3a12.43,12.43,0,0,1,7.93,1.22v0l0,0s-.07.08,0,.1c.63.47,1,1.85,1.3,2.51a19.21,19.21,0,0,1,1.1,3.42c.21.86,1.6,4.15,2.86,3.78-.08,1.26,10.17,8.84,11.39,9.55.68.4,2.17,2.22,3.62,1.8s1.51-1.75,1.37-3.11C35.7,57.93,33.46,56.57,31.89,55.91Z"/>
                  <path class="cls-6" d="M5.06,35.8A5.69,5.69,0,0,0,6.8,38.57a8.65,8.65,0,0,0,2.91.77c1.73.4,3.5,1.23,5.26.9-1.28,0-2.54-.75-3.71-1.19a21.76,21.76,0,0,0-3.94-.66C6,38.15,6,36.64,5.14,35.83,5.11,35.8,5.08,35.79,5.06,35.8Z"/>
                  <path class="cls-6" d="M16.64,40.81a12,12,0,0,1,1.25,3.67,15,15,0,0,0,2.31,5.21c-.34-1.08-1.08-2.3-1.33-3-.59-1.62-.66-3.38-1.29-5A1.51,1.51,0,0,0,16.64,40.81Z"/>
                  <path class="cls-6" d="M23.16,52.94c1.05.57,2.18,1.18,3.28,1.64a9.84,9.84,0,0,0,3.8.56h.19a17.14,17.14,0,0,0-2.24-.89c-2.63-.87-5.12-1.41-7.16-3.32A4.6,4.6,0,0,0,23.16,52.94Z"/>
                </g>
              </g>
              <g>
                <g>
                  <g>
                    <g>
                      <path class="cls-4" d="M114.61,84.66a26.84,26.84,0,0,0,3.47,0,8.53,8.53,0,0,0,1.9-.87c.79-.33,2.74-1.43,2.87-2.39,0-.15-.19-.25-.3-.29a1.3,1.3,0,0,0-1.21.11c-.77.42-1.47,1-2.27,1.35a9.51,9.51,0,0,1-4,.77c-.78-.21-1.67-.27-1.87.45S114.25,84.66,114.61,84.66Z"/>
                      <path class="cls-4" d="M103.16,83.34a71.75,71.75,0,0,1,7.18.5c1,.13,3.92,1.4,5,.56s.37-1.48-.64-2.15c-1.35-.9-3.23-.54-4.79-.5a23.92,23.92,0,0,1-4-.39,21.58,21.58,0,0,0-2.75-.45,1.82,1.82,0,0,0-1.94,1c-.56.49-.39-.47-.16.13C101.49,83.13,102.13,83.32,103.16,83.34Z"/>
                      <path class="cls-4" d="M91,74.21c1.42,1.71,3.2,2,4.9,3.38,1.95,1.65,4.1,5.11,7.41,5.55,1.27.16.52-2.45-.43-3.22-1.11-.89-2.37-1.52-3.46-2.45-.73-.64-1.46-1.28-2.22-1.9-1.92-1.54-3.71-3.27-5.67-4.75a1.82,1.82,0,0,0-2.18.22c-.13-.22-.65-.39-.74-.14C88,72.64,89.91,72.89,91,74.21Z"/>
                      <path class="cls-4" d="M76.54,74c.72,1.06,1.51.12,2.81.18a7.19,7.19,0,0,0,2.29-.47,10,10,0,0,1,3.84-.45A10.12,10.12,0,0,0,90,73c1.87-.77.6-3.19-1.19-3.35a4.41,4.41,0,0,0-2,.39,28.62,28.62,0,0,1-3.26,1,41.23,41.23,0,0,1-6.52,1.25c-.1,0-.09.07,0,.12A.93.93,0,0,0,76.54,74Z"/>
                    </g>
                    <path class="cls-5" d="M77.05,72.41s0-.11,0-.12l1.26-.15c.55.79,1.18.27,2.25.44,1.78.3,3.57-.27,5.32-.51a19.37,19.37,0,0,1,3.54.59c.76.17,1.08,1.11,1.45.38a2.8,2.8,0,0,0-.08-2.44,3.77,3.77,0,0,1,.28.48,3.55,3.55,0,0,1,.11,2c-.1.81.42,1,1.06,1.57.88.73,4.8,2.71,5.42,3.46s2.76,3.7,3.52,3.83c1.25.21,2.22,0,2.38-1h0c.25,0,.5.08.75.13a2.14,2.14,0,0,1-.44,2.11,3.7,3.7,0,0,1-.14-1.49c2.95,1.06,6.33,1.79,9.32,2.56.09,0,.22,0,.22-.14s0-.32,0-.48a9.7,9.7,0,0,1,1,.86.16.16,0,0,0,.25,0,2.52,2.52,0,0,0,.57-1.84,2.34,2.34,0,0,1,.41.74l.92-.07c.86.92,2.51.47,3.52,0a6.16,6.16,0,0,0,2.81-2.07c.07,0,.13.12.11.19-.13,1-2.08,2.06-2.87,2.39a8.53,8.53,0,0,1-1.9.87,13.61,13.61,0,0,1-2.63,0c-.1.22-5.41-1-6.44-1.08-2.28-.3-2.34.05-6-.31a1.94,1.94,0,0,1-1.76-.88c-2.16-.46-4-5-8.79-7-.22-.09-2.63-2.19-2.77-2.37-1.24.29-6.48,0-7.78.38-.72.23-4.61,1.54-5.33.48A.93.93,0,0,1,77.05,72.41Z"/>
                    <path class="cls-6" d="M110.71,82c-2,0-4.66.35-6.38-1,.53.11,1.07.24,1.59.31a27.67,27.67,0,0,0,4.27.13c1.56,0,3.12-.14,4.47.76a2.06,2.06,0,0,1,.77,1C114.38,82,112.2,82,110.71,82Z"/>
                    <path class="cls-6" d="M103.12,81.61c-1.16-2.39-4-2.8-5.83-4.56a51.86,51.86,0,0,1-3.89-4.72c1.27,1.08,2.51,2.2,3.8,3.24.76.62,1.49,1.26,2.22,1.9,1.06.91,2.29,1.53,3.37,2.39A2.21,2.21,0,0,1,103.12,81.61Z"/>
                  </g>
                  <path class="cls-6" d="M89.47,69.85a4.52,4.52,0,0,1,.84,1.46c-1.89-1.24-4-.63-6.07,0-1.61.46-3.72,1.2-5.47.79a45.55,45.55,0,0,0,4.85-1,28.62,28.62,0,0,0,3.26-1,4.41,4.41,0,0,1,2-.39A1.54,1.54,0,0,1,89.47,69.85Z"/>
                  <path class="cls-6" d="M116.54,83.29a7.37,7.37,0,0,0,2.53-.67c.8-.4,1.5-.93,2.27-1.35a1.3,1.3,0,0,1,1.21-.11.79.79,0,0,1,.16.08C120.56,81.2,118.68,84,116.54,83.29Z"/>
                </g>
                <g>
                  <g>
                    <path class="cls-4" d="M95.31,38.7c.93.63,1.54-.51,2.36-.72,2-.51,4.81-1.69,6.76-.94.86.33,1-.37,1.2-1.08.15-.55.64-1.58-.1-1.91s-1.33.49-1.79.8c-1.93,1.27-4.28,1.27-6.46,1.73-.69.15-1.71.4-1.88,1.07C95.08,38,94.85,38.39,95.31,38.7Z"/>
                    <path class="cls-4" d="M87.9,44.08a13.93,13.93,0,0,1,2.76-1.37c.94-.48,2.23-1.91,3.19-2.35,1.35-.63,3.75-.88,3.71-2.5,0-1.15-.43-.92-1.53-1.44s-2.55.88-3.28,1.47c-2,1.63-4.24,2.15-6.44,3.31a2.08,2.08,0,0,0-1.1,1.2.13.13,0,0,0-.12.09C84,45.09,85.57,45.79,87.9,44.08Z"/>
                    <path class="cls-4" d="M81.62,55.91c1.41-.18,1.68-3.62,2.17-4.65.92-2,2.19-3.23,2.75-5.34.24-.89,1.25-1.58,1.14-1.73-.15-.68,0-.91-.55-1.29a2.67,2.67,0,0,0-3.17.43c-1.41,1.47-1.38,3.76-2.25,5.54s-1.86,3.63-1.46,5.62C80.48,55.61,80.26,56.09,81.62,55.91Z"/>
                    <path class="cls-4" d="M75.52,65.73c.62-.21,1-1.11,1.25-1.82,1-1.5,1.11-3.83,2.52-4.95,1-.83,2.8-1.79,2.24-3.4-.33-.93.27-1.44-.79-1.73-1.27-.34-2,.68-2.41,1.76-.63,1.87-2.27,2.94-3.15,4.64-.74,1.43-1.53,3.18-1.19,4.82C74.12,65.7,75,65.9,75.52,65.73Z"/>
                  </g>
                  <path class="cls-5" d="M74,65.05c-.34-1.64.45-3.39,1.19-4.82S77,58,77.79,56.71c.11.89.2,1.77.25,2.66,0,.12.16.25.26.13.34-.37,3.25-3.31,3.23-3.94A2,2,0,0,0,80.11,54a2.26,2.26,0,0,1,1.84.27c.28.19,2.17-5.18,2.7-6.09.71-1.2,2.11-2.45,2.56-3.6.35-.92-1.48-1.68-2.29-1.8l.09,0,.08-.21a.13.13,0,0,1,.12-.09,1.76,1.76,0,0,1,.17-.37,3.38,3.38,0,0,1,2.86,1,.17.17,0,0,0,.19,0,3.08,3.08,0,0,0,.5-.44c0,.41,1.47-.55,1.43-1-.06-.71.77-1.67,6.14-2.86,1-.21-.14-1.83-.78-2.44a1.58,1.58,0,0,1,.31.09,2.44,2.44,0,0,1,.53.35c.25-.08.5-.14.72-.19a1.73,1.73,0,0,0,1,.4,5.35,5.35,0,0,0,1.46-.39,8.51,8.51,0,0,1,1.93-.41c1-.06,2.35.35,3.2-.29a2.75,2.75,0,0,0,.93-1.65c.34.44,0,1.26-.15,1.72-.2.71-.34,1.41-1.2,1.08-2-.75-4.77.43-6.76.94a1.43,1.43,0,0,0-.34.14c.09.36.39.88-3.29,2.19-1,.36-1.6,1.57-2.77,2.11-2.76,1.27-3.42,1.69-3.59,1.77a7.1,7.1,0,0,1-1.29,2.35C81,55,84,54.77,81.62,55.91c.06,1.34-1.55,2.47-2.48,3.21-1.41,1.12-1.34,3.29-2.37,4.79-.22.71-.63,1.61-1.25,1.82S74.12,65.7,74,65.05Z"/>
                  <path class="cls-6" d="M105.83,34.39c-.77.06-1.46.84-2.15,1.12a21.58,21.58,0,0,1-4.28,1.05,5.12,5.12,0,0,1-1.74.19,2.67,2.67,0,0,1-.48-.15l.1,0c2.18-.46,4.53-.46,6.46-1.73.46-.31,1.14-1.1,1.79-.8a.63.63,0,0,1,.34.34Z"/>
                  <path class="cls-6" d="M94.07,37.39a17.85,17.85,0,0,1-3.4,2.07,28.12,28.12,0,0,1-3.34,1.67,9,9,0,0,0-1.87.78,2.35,2.35,0,0,1,.85-.71c2.2-1.16,4.46-1.68,6.44-3.31.73-.59,2.15-2,3.25-1.47A4,4,0,0,0,94.07,37.39Z"/>
                  <path class="cls-6" d="M84,43.91a12.2,12.2,0,0,1-1.3,3.31,25.64,25.64,0,0,0-1.33,3.37,8,8,0,0,1-.69,2,2.23,2.23,0,0,1-.48.49,12.81,12.81,0,0,1,1.52-4.18c.87-1.78.84-4.07,2.25-5.54a1.78,1.78,0,0,1,.26-.22A2.77,2.77,0,0,0,84,43.91Z"/>
                  <path class="cls-6" d="M79.55,53.94a2.74,2.74,0,0,1,1.76.49,3,3,0,0,0-2.82,1.85,7.34,7.34,0,0,1-1.18,2,7.19,7.19,0,0,1-1.56,1c.89-1.23,2.07-2.22,2.58-3.74A2.79,2.79,0,0,1,79.55,53.94Z"/>
                </g>
                <g>
                  <g>
                    <path class="cls-4" d="M68,44.08a2.3,2.3,0,0,0,3.25.36c.54-.52.51-1.64.54-2.41.06-1.4,0-2.82,0-4.23,0-2.85-.15-5.71-.19-8.56,0-1.23.07-3.86-1.58-4.14-1.2-.2-1.71,1.54-1.49,2.61.6,3-.27,5.32-.93,8a16,16,0,0,0-.46,2.62c-.05,0-.1,0-.11.06C66.58,40.27,66.49,42.49,68,44.08Z"/>
                    <path class="cls-4" d="M64.28,17.32c0,.11.18.18.27.21,1.48.47,2.18-.37,1.79-1.78v0a12.41,12.41,0,0,1,3.8-7.06c1.39-1.11-2-3.35-2.54-3.76-.08-.06-.43-.15-.41,0,.12,1.2,1.36,2.07.73,3.29a22,22,0,0,0-1.85,3.54c-.37,1.25-.49,2.8-1.39,3.8A2,2,0,0,0,64.28,17.32Z"/>
                    <path class="cls-4" d="M64.62,18.34c.85,1.47,2,2.68,2.94,4.15.75,1.24,2.25,5.37,3.47,3.38.73-1.18.19-1.86-.5-3.12a19.94,19.94,0,0,0-1.33-2.28,18.39,18.39,0,0,1-1.71-2.53c-.33-.65-.87-1.63-1.52-1.87a1.46,1.46,0,0,0-.62-.08c-.1-.06-.2-.08-.25,0A1.69,1.69,0,0,0,64.62,18.34Z"/>
                  </g>
                  <path class="cls-5" d="M67.07,38.41a1.65,1.65,0,0,0,.5,1.12c.91.86,2.26,0,2.75-1,0,.54,0,1.09.05,1.63,0,.18.25.15.31,0a11.53,11.53,0,0,0,.47-3.37c.15-1.44-.19-2.53,0-4s-.21-1.84-.33-5.22c0-.09.57-1.42.5-1.36-.72.63-1.23.25-1.72-.25v-.2a4.76,4.76,0,0,1-.77-1c.6.31,1.51,1,1.83.47.64-1-.22-2.11-.8-2.87-.74-1-1.63-1.78-2.29-2.8-.51-.78-.44-1.91-1.22-2.46-1.31-.91-1.85-.11-2.06,1.09a1.51,1.51,0,0,1,0-1.16,2.14,2.14,0,0,1,.11-.94c.36-.43.82-.72,1.25-1.15a3,3,0,0,0,.75-1.32,11.37,11.37,0,0,1,2.24-4.25,2.44,2.44,0,0,0,.85-2.35c-.32-1-1.53-1.34-2-2.21a.45.45,0,0,1,.15.06c.54.41,3.93,2.65,2.54,3.76a12.41,12.41,0,0,0-3.8,7.06v0a.13.13,0,0,0,0,.06s.11,0,.11,0c0,.78.89,1.9,1.22,2.55a18.7,18.7,0,0,0,2.06,2.94c.56.69,2.35,3.78,1.29,4.56,1,.69.91,13.45.75,14.85-.09.78.46,3.07-.75,4s-2.31.15-3.31-.78C66.38,42.67,66.65,40.06,67.07,38.41Z"/>
                  <path class="cls-6" d="M67.21,4.88a5.69,5.69,0,0,1,1.16,3.06,8.7,8.7,0,0,1-1.14,2.79c-.73,1.62-1.13,3.53-2.45,4.74.8-1,.93-2.48,1.28-3.68a22,22,0,0,1,1.85-3.54C68.54,7,67.3,6.16,67.18,5A.1.1,0,0,1,67.21,4.88Z"/>
                  <path class="cls-6" d="M64.22,17.14a12.2,12.2,0,0,0,2.17,3.21,15.07,15.07,0,0,1,2.77,5c-.66-.92-1.19-2.25-1.58-2.85-.93-1.45-2.3-2.58-3.19-4A1.53,1.53,0,0,1,64.22,17.14Z"/>
                  <path class="cls-6" d="M70,29.66c-.18,1.18-.37,2.44-.66,3.6a9.92,9.92,0,0,1-1.85,3.37l-.11.16A17.24,17.24,0,0,1,68,34.47c.89-2.63,2-4.94,1.67-7.72A4.56,4.56,0,0,1,70,29.66Z"/>
                </g>
              </g>
              <g>
                <path class="cls-7" d="M83.33,76.75c-9.25-8.55-16.6-3.29-16.6-3.29L65.67,74l-6.11,3-1.06.53s-8.63,2.68-7.39,15.22,5.63,21.31,18.16,30.89c11.14,8.51,17.57,11.39,21.84,9.18l0,0h0c4.34-2.07,5.92-8.94,5.85-22.95C96.93,94.09,92.59,85.3,83.33,76.75Z"/>
                <path class="cls-8" d="M90,88.64c0,.14-.29.15-.31,0a4,4,0,0,0-.3-1,20.56,20.56,0,0,1-.49,2.2.16.16,0,0,1-.3,0c-.14-.72-.17-1.44-.3-2.16-1.55,6.8-8.67,10.29-14.44,13-4.57,2.17-11.17,5.53-15.86,2.15a7.79,7.79,0,0,1,.67,1.32c0,.12,0,.28-.2.22a2.73,2.73,0,0,1-.56-.3,2.92,2.92,0,0,1,.24.74.16.16,0,0,1-.2.18,3.89,3.89,0,0,1-2-1.37c.22.61.44,1.23.62,1.85,0,.14-.13.23-.24.17A14.43,14.43,0,0,1,53.15,103a34.36,34.36,0,0,0,3.32,7.22l-.24-.65a.16.16,0,0,1,.28-.15A17,17,0,0,0,58,111.57c-.33-.8-.6-1.62-.91-2.43a.15.15,0,0,1,.08-.21,105.27,105.27,0,0,1,10.24-3.6,74.53,74.53,0,0,0,10.5-4.56,89.94,89.94,0,0,0,10-5.82c.84-.57,1.67-1.16,2.48-1.78a9.73,9.73,0,0,1,1.15-.88.67.67,0,0,1,1,.2,3.24,3.24,0,0,0,0-.62.17.17,0,0,1,.25-.13A8.72,8.72,0,0,1,95,94.24a34.64,34.64,0,0,0-4.29-9.08A12,12,0,0,1,90,88.64Z"/>
                <path class="cls-8" d="M53.69,88.13a.16.16,0,0,1,.31.07c0,1.92,0,3.86.19,5.78a33.71,33.71,0,0,1,1.22-6.22.15.15,0,0,1,.3,0c.11.91.07,1.84.27,2.74.47-1,.55-2.12,1.25-3a.17.17,0,0,1,.28,0,5.83,5.83,0,0,1,.32.6,4.76,4.76,0,0,0,.72-1,.16.16,0,0,1,.27,0c2,2,5.72,0,7.8-.93a13.4,13.4,0,0,0,7.59-7.88.16.16,0,0,1,.27,0,18.06,18.06,0,0,1,1.67,1.93A5.69,5.69,0,0,1,75.73,79c0-.16.17-.24.27-.13a9.73,9.73,0,0,1,.78.92,12.26,12.26,0,0,1-.58-1.5.16.16,0,0,1,.28-.14c.34.4.63.84,1,1.25-.22-.6-.47-1.2-.75-1.78,0-.12.06-.28.2-.22.88.36,1.37,1.21,2.09,1.79,0-1.21-1-2.16-1.25-3.32a.16.16,0,0,1,.17-.19,10.83,10.83,0,0,1,4.26,1.44,36.22,36.22,0,0,1,4,2.41c-.89-.94-1.84-1.88-2.85-2.81-9.25-8.55-16.6-3.29-16.6-3.29l-8.23,4.1s-8.63,2.68-7.39,15.22A54.21,54.21,0,0,0,52,98.62,30.74,30.74,0,0,1,53.69,88.13Z"/>
                <path class="cls-8" d="M94.1,109c-3.41,2.89-7.6,4.7-11.63,6.54-2.27,1-4.51,2.14-6.79,3.17a31.74,31.74,0,0,1-6.46,2.39,7.31,7.31,0,0,1-3.16,0c1,.86,2.08,1.72,3.21,2.59,11.14,8.51,17.57,11.39,21.84,9.18l0,0h0c4.34-2.07,5.92-8.94,5.85-22.95,0-1.32,0-2.59-.11-3.82A19.11,19.11,0,0,1,94.1,109Z"/>
                <g>
                  <path class="cls-9" d="M51.89,98.19s15.57-13.6,35-17.83C86.92,80.36,66.69,83.31,51.89,98.19Z"/>
                  <g>
                    <path class="cls-9" d="M95.92,97.67c-13.55,10.94-30.31,16-35.44,17.37l.3.07c18.2-3.43,31.79-14.44,35.13-17.36A.22.22,0,0,1,95.92,97.67Z"/>
                    <path class="cls-9" d="M96.38,108.67a103.86,103.86,0,0,1-28.17,13.56c.32.06.64.11,1,.15A79.92,79.92,0,0,0,96.3,109C96.33,108.87,96.35,108.77,96.38,108.67Z"/>
                    <path class="cls-9" d="M96.7,116.58A104.08,104.08,0,0,1,74.31,127.3c.19.14.38.28.58.41A80.32,80.32,0,0,0,96.67,117Z"/>
                    <path class="cls-9" d="M95.71,125.12a104,104,0,0,1-13.82,6.59l.84.42a80.62,80.62,0,0,0,12.79-6.35C95.59,125.56,95.65,125.34,95.71,125.12Z"/>
                  </g>
                  <path class="cls-9" d="M55.28,108.13s21.48-4.82,37.8-18.4C93.08,89.73,77.31,104.7,55.28,108.13Z"/>
                  <path class="cls-9" d="M95.86,97.81l-.12-.57q-.49.74-1,1.41C95.09,98.38,95.47,98.09,95.86,97.81Z"/>
                </g>
              </g>
              <path class="cls-5" d="M83.33,76.75c-9.25-8.55-16.6-3.29-16.6-3.29l-8.23,4.1s-8.63,2.68-7.39,15.22,5.63,21.31,18.16,30.89c11.14,8.51,17.57,11.39,21.84,9.18l0,0h0c4.34-2.07,5.92-8.94,5.85-22.95C96.93,94.09,92.59,85.3,83.33,76.75ZM84,103.54a51.87,51.87,0,0,1,4.3,13.23c.55,3.38,1.1,7.71-1,10.74-2.21,3.23-6.11,2-9,.47a58.45,58.45,0,0,1-10-7,51.54,51.54,0,0,1-8.3-9c-4.26-6-7.11-13-6.84-20.39a7.66,7.66,0,0,1-.09-1.35,2.56,2.56,0,0,1,1.27-2.42c1.29-.58,2.95.48,4.19.74a14.94,14.94,0,0,0,7.18-.44c1.5-.47,2.86-1.3,4.37-1.76a4.63,4.63,0,0,1,4,.27c1.4.94,2.23,2.59,3,4C79.57,94.89,81.94,99.14,84,103.54Z"/>
              <path class="cls-5" d="M83.33,76.75a18.61,18.61,0,0,0-7-4.29l.62.47a37,37,0,0,1,3.12,2.88A8.09,8.09,0,0,1,82,78.36c1,2.52-2.8,3.44-4.43,4a26.41,26.41,0,0,0-4.18,2.11q-1.47.84-2.88,1.8a6.14,6.14,0,0,1,1.26-.21c2.67-1.25,5.12-3.1,8.21-2.89s5,2.16,6.72,4.52A6,6,0,0,1,88.19,91c0,1.37-1.17,2.39-2.12,3.24a33.44,33.44,0,0,1-4.28,3.12,8.83,8.83,0,0,0,2.81-.76,6.75,6.75,0,0,1,2.8-.88c1.53.13,2.57,2,2.53,3.41,0,1.61-1.26,3-2.33,4.13a19.09,19.09,0,0,1-1.83,1.64c.8-.38,1.53-.9,2.3-1.36a3.92,3.92,0,0,1,2.41-.78c1.43.22,1.54,2.61,1.58,3.65A7.78,7.78,0,0,1,88.29,114c.49-.15,1-.36,1.45-.55a3.26,3.26,0,0,1,1.9-.37c1,.33,1,2.11,1.11,3a5.39,5.39,0,0,1-2.42,4.9c1-.2,2.06-.28,2.23.92a10.75,10.75,0,0,1-.15,3.1c-.17,1.09-.29,2.2-.55,3.27a5.63,5.63,0,0,1-1.8,3.2A8.23,8.23,0,0,1,86.91,133a9.8,9.8,0,0,1-1.2.24,7.64,7.64,0,0,0,5.4-.42l0,0h0c4.34-2.07,5.92-8.94,5.85-22.95C96.93,94.09,92.59,85.3,83.33,76.75Z"/>
              <g>
                <g>
                  <path class="cls-10" d="M61.78,27.57A7.8,7.8,0,0,0,58,25.52a15.92,15.92,0,0,0-4.67-.35c-2.84.19-10.48,1-13.13,2.06-.14.06-.31.15-.52.26a4,4,0,0,0-.51.26c-2.42,1.49-7.7,7.08-9.57,9.23a15.9,15.9,0,0,0-2.54,3.94,7.82,7.82,0,0,0-.64,4.24c.84,5.86,5,7.48,10,8.06,2.57.29,7.72-3.77,12.87-6.4s11.55-4.18,12.86-6.41C64.71,36.1,66,31.77,61.78,27.57Z"/>
                  <g>
                    <path class="cls-11" d="M37,42.66c-.95-1.89-3.72-2.69-3.89-5A5.88,5.88,0,0,1,34,34.54a4.92,4.92,0,0,0,.51-1.15c.12-.45,0-1.16-.54-1.2-1.49,1.48-2.8,2.85-3.6,3.71a19.06,19.06,0,0,0-3,4.41A8.27,8.27,0,0,0,26.44,45c.45,3.78,2.29,5.89,4.9,7.08C35.41,51.74,38.75,46.19,37,42.66Z"/>
                    <path class="cls-12" d="M34,32.19c-1.49,1.48-2.8,2.85-3.6,3.71a19.06,19.06,0,0,0-3,4.41A8.27,8.27,0,0,0,26.44,45c.45,3.78,2.29,5.89,4.9,7.08,4.07-.33,7.41-5.88,5.64-9.41-.95-1.89-3.72-2.69-3.89-5A5.88,5.88,0,0,1,34,34.54a4.92,4.92,0,0,0,.51-1.15C34.63,32.94,34.55,32.23,34,32.19Zm-2.38,4.59c.07.69-.17,1.43,0,2.09a5.36,5.36,0,0,0,1.62,2.42,4.29,4.29,0,0,1,1.46,2.89c0,1.76-.47,4.41-2.07,5.64-2,1.53-3.84-.66-4.51-2.25a8.54,8.54,0,0,1,.43-8,.13.13,0,0,1,.08-.07,6.6,6.6,0,0,1,2.76-2.78A.17.17,0,0,1,31.59,36.78Z"/>
                  </g>
                  <g>
                    <path class="cls-11" d="M53.11,33.86c-.88-1.77.21-4.36-1.45-5.74a5.62,5.62,0,0,0-3-1,5.32,5.32,0,0,1-1.2-.24c-.42-.16-.92-.61-.59-1.08,2-.33,3.92-.6,5.09-.73a19.42,19.42,0,0,1,5.28.07A8,8,0,0,1,61.41,27a7.29,7.29,0,0,1,2.45,7.69C61.08,37.65,54.74,37.17,53.11,33.86Z"/>
                    <path class="cls-12" d="M47.47,26.85a5.32,5.32,0,0,0,1.2.24,5.62,5.62,0,0,1,3,1c1.66,1.38.57,4,1.45,5.74,1.63,3.31,8,3.79,10.75.83A7.29,7.29,0,0,0,61.41,27a8,8,0,0,0-4.16-1.89A19.42,19.42,0,0,0,52,25c-1.17.13-3,.4-5.09.73C46.55,26.24,47.05,26.69,47.47,26.85ZM52,26.2a6.92,6.92,0,0,1,3.86-.6.15.15,0,0,1,.1,0,7.89,7.89,0,0,1,6.48,4.11c.81,1.39,1.36,4-1,4.72-1.93.56-4.28-.53-5.63-1.51a3.77,3.77,0,0,1-1.33-2.71,4.81,4.81,0,0,0-.86-2.6,19.67,19.67,0,0,0-1.64-1.12C51.81,26.39,51.86,26.25,52,26.2Z"/>
                  </g>
                  <g>
                    <g>
                      <path class="cls-13" d="M38.25,28.8a10.71,10.71,0,0,0-1.34-.38,1.38,1.38,0,0,1-.43-.19.51.51,0,0,0-.17-.08.23.23,0,0,0-.15.14c-.1.3-.17.66.26.66a2.21,2.21,0,0,0,.25-.05h.08a.58.58,0,0,1,.23,0,4.7,4.7,0,0,1,1.26.38,19.81,19.81,0,0,1,2.09,1h0a.2.2,0,0,0,.18-.13A10,10,0,0,0,38.25,28.8Z"/>
                      <path class="cls-14" d="M39.5,29.57a8.12,8.12,0,0,0-1.36-.66,4.18,4.18,0,0,0-.69-.2,6.27,6.27,0,0,1-.64-.07c-.25-.08-.3-.39-.5-.49h0a.23.23,0,0,0-.15.14c-.1.3-.17.66.26.66a2.21,2.21,0,0,0,.25-.05h.08a.58.58,0,0,1,.23,0,4.7,4.7,0,0,1,1.26.38,19.81,19.81,0,0,1,2.09,1h.05A4.06,4.06,0,0,0,39.5,29.57Z"/>
                      <path class="cls-13" d="M36.28,28.8c.14-.1.1-.31,0-.5h0c-.07-.09-.18-.23-.31-.19a1.16,1.16,0,0,1-.18,0h-.06a.31.31,0,0,1-.13-.06.57.57,0,0,0-.18,0l-.31-.19a.46.46,0,0,0-.28,0l-.18.05a.28.28,0,0,0-.07-.09.85.85,0,0,0-.35-.11l-.24,0a.2.2,0,0,1-.21,0c-.23-.14-.41-.28-.68-.12h0L33,27.63l-.1,0a.48.48,0,0,0-.29,0l-.15.06-.21-.07a.88.88,0,0,0-.58.19c-.11.07-.17,0-.29,0a.5.5,0,0,0-.2.13.4.4,0,0,0-.28-.06l-.07,0a.65.65,0,0,0-.18.15s0,0,0,0a.59.59,0,0,0-.41-.08.72.72,0,0,0-.3.25,1.27,1.27,0,0,0-.23.41c0,.14,0,.27.21.24s.43-.26.63-.42v0a.09.09,0,0,0,.07,0,.44.44,0,0,0,.31-.15,1.52,1.52,0,0,0,.51-.16.61.61,0,0,0,.68-.16.66.66,0,0,0,.57-.12.33.33,0,0,0,.43,0h0c-.06,0,.08.07.09.07a.32.32,0,0,0,.19.07.65.65,0,0,0,.29-.05.68.68,0,0,0,.57.14c.12,0,.06,0,.15,0a1.36,1.36,0,0,0,.47.15s.34,0,.35,0a.23.23,0,0,0,.22.14.72.72,0,0,0,.24,0c.06.13.26.22.37.27A.88.88,0,0,0,36.28,28.8Z"/>
                      <g class="cls-15">
                        <path class="cls-13" d="M36.3,28.3h0a.55.55,0,0,0-.17-.17.28.28,0,0,1,0,.2.18.18,0,0,1-.25,0c-.11-.07-.07-.15,0-.22h-.11a.09.09,0,0,1,0,.05.28.28,0,0,1-.24.1s-.07,0-.08-.08a.1.1,0,0,1,0-.1l-.07,0a.18.18,0,0,1-.11.07.87.87,0,0,1-.63-.09s0-.05,0-.08l0,0-.06-.08-.06,0c0,.08-.11.15-.2.17a.57.57,0,0,1-.52-.08s0-.06,0-.07l0,0h0l-.1-.06a.29.29,0,0,1-.1.09.75.75,0,0,1-.51,0,.06.06,0,0,1,0-.08l0-.05h0L33,27.63h0a.61.61,0,0,1-.66.25.05.05,0,0,1,0-.08l.13-.13-.14-.05c0,.16-.27.3-.39.36s-.18.09-.24,0a.3.3,0,0,1-.05-.16.64.64,0,0,1-.48.35s-.08,0-.06-.06l.06-.19-.09,0a.77.77,0,0,1-.4.45.06.06,0,0,1-.08-.05.83.83,0,0,1,0-.22h0a.76.76,0,0,0-.16-.06.74.74,0,0,1-.19.51,1.3,1.3,0,0,1-.39.27.18.18,0,0,1-.2,0,.17.17,0,0,0,.21.14c.26,0,.43-.26.63-.42v0a.09.09,0,0,0,.07,0,.44.44,0,0,0,.31-.15,1.52,1.52,0,0,0,.51-.16.61.61,0,0,0,.68-.16.66.66,0,0,0,.57-.12.33.33,0,0,0,.43,0h0c-.06,0,.08.07.09.07a.32.32,0,0,0,.19.07.65.65,0,0,0,.29-.05.68.68,0,0,0,.57.14c.12,0,.06,0,.15,0a1.36,1.36,0,0,0,.47.15s.34,0,.35,0a.23.23,0,0,0,.22.14.72.72,0,0,0,.24,0c.06.13.26.22.37.27a.88.88,0,0,0,.23.07C36.42,28.7,36.38,28.49,36.3,28.3Z"/>
                      </g>
                    </g>
                    <g>
                      <path class="cls-13" d="M41.29,27.29a12,12,0,0,1,.5-1.3,1.24,1.24,0,0,0,.11-.46.8.8,0,0,1,0-.18.21.21,0,0,1,.2,0c.31.1.63.26.37.6a1.54,1.54,0,0,1-.19.17l-.06.05a.65.65,0,0,0-.16.17,4.86,4.86,0,0,0-.46,1.24,21.42,21.42,0,0,0-.48,2.25h0a.19.19,0,0,1-.21.07A9.73,9.73,0,0,1,41.29,27.29Z"/>
                      <path class="cls-14" d="M41.15,28.75a7.55,7.55,0,0,1,.29-1.49,4.11,4.11,0,0,1,.26-.66c.09-.19.26-.37.33-.56s-.14-.47-.09-.69h0a.21.21,0,0,1,.2,0c.31.1.63.26.37.6a1.54,1.54,0,0,1-.19.17l-.06.05a.65.65,0,0,0-.16.17,4.86,4.86,0,0,0-.46,1.24,21.42,21.42,0,0,0-.48,2.25h0l0,0A4.33,4.33,0,0,1,41.15,28.75Z"/>
                      <path class="cls-13" d="M42.48,25.72c-.17.05-.31-.11-.42-.29h0c0-.11-.07-.29,0-.37a.38.38,0,0,0,.14-.11s0,0,0,0h0v0a.74.74,0,0,0,0-.14.4.4,0,0,1,.13-.13s0-.33,0-.36a.44.44,0,0,1,.14-.25l.15-.12a.41.41,0,0,1,0-.1.62.62,0,0,1,.13-.34l.17-.18c.07,0,.13-.05.14-.14,0-.27,0-.5.32-.62,0,0,0,0,0,0a.22.22,0,0,0,0-.08l0-.1a.52.52,0,0,1,.18-.23l.14-.08s.06-.18.07-.21a.93.93,0,0,1,.51-.35c.12,0,.1-.14.19-.21a.43.43,0,0,1,.23-.08.37.37,0,0,1,.12-.26s0,0,0-.05a.59.59,0,0,1,.23,0s0,0,0,0a.68.68,0,0,1,.18-.38.65.65,0,0,1,.38-.09,1.84,1.84,0,0,1,.47.06c.12.08.19.2.06.32a1.34,1.34,0,0,1-.71.24v0a.08.08,0,0,1,0,.08.44.44,0,0,1-.31.15,1.72,1.72,0,0,1-.43.32.6.6,0,0,1-.54.43.68.68,0,0,1-.44.39.33.33,0,0,1-.26.34l0,0c0-.05,0,.09,0,.11a.42.42,0,0,1-.06.19.73.73,0,0,1-.22.21.65.65,0,0,1-.23.53c-.09.09-.06,0-.07.14a1.31,1.31,0,0,1-.16.47s-.23.25-.21.28,0,.17,0,.25a.69.69,0,0,1-.17.18.72.72,0,0,1,0,.46A1,1,0,0,1,42.48,25.72Z"/>
                      <g class="cls-15">
                        <path class="cls-13" d="M42.06,25.43h0a.63.63,0,0,1,0-.24.34.34,0,0,0,.18.09.18.18,0,0,0,.19-.17c0-.13-.08-.15-.18-.13l0,0s0,0,0,0h0v0h.06a.3.3,0,0,0,.23-.13.09.09,0,0,0,0-.11.09.09,0,0,0-.1,0v-.08a.22.22,0,0,0,.13,0,.88.88,0,0,0,.31-.56.06.06,0,0,0-.06-.06l-.07,0s0-.08,0-.1,0,0,0-.06a.27.27,0,0,0,.26-.06.57.57,0,0,0,.25-.47,0,0,0,0,0-.06,0s0,0,0,0v0s0-.08,0-.12a.24.24,0,0,0,.14,0,.72.72,0,0,0,.28-.42,0,0,0,0,0,0-.07s0,0-.06,0v0a.22.22,0,0,0,0-.08h0a.61.61,0,0,0,.6-.38.05.05,0,0,0-.06-.05l-.18,0a.49.49,0,0,0,0-.14.77.77,0,0,0,.52-.1c.07,0,.18-.09.17-.17a.36.36,0,0,0-.1-.14.67.67,0,0,0,.57-.17s0-.08,0-.09l-.19-.07s0-.06,0-.09a.78.78,0,0,0,.6-.05.05.05,0,0,0,0-.09.78.78,0,0,0-.2-.11s0,0,0,0a1.54,1.54,0,0,1,0-.17.75.75,0,0,0,.52.16,1.33,1.33,0,0,0,.45-.15.17.17,0,0,0,.09-.18.16.16,0,0,1,0,.25,1.34,1.34,0,0,1-.71.24v0a.08.08,0,0,1,0,.08.44.44,0,0,1-.31.15,1.72,1.72,0,0,1-.43.32.6.6,0,0,1-.54.43.68.68,0,0,1-.44.39.33.33,0,0,1-.26.34l0,0c0-.05,0,.09,0,.11a.42.42,0,0,1-.06.19.73.73,0,0,1-.22.21.65.65,0,0,1-.23.53c-.09.09-.06,0-.07.14a1.31,1.31,0,0,1-.16.47s-.23.25-.21.28,0,.17,0,.25a.69.69,0,0,1-.17.18.72.72,0,0,1,0,.46,1,1,0,0,1-.08.23C42.31,25.77,42.17,25.61,42.06,25.43Z"/>
                      </g>
                    </g>
                  </g>
                  <ellipse class="cls-16" cx="44.88" cy="38.95" rx="6.94" ry="8.81" transform="translate(-12.65 24.07) rotate(-26.45)"/>
                  <path class="cls-17" d="M41.6,31.35S53.74,39,48.88,46C48.88,46,56.92,35.16,41.6,31.35Z"/>
                </g>
                <g>
                  <path class="cls-18" d="M27.87,42.24c0-.12-.14-.06-.15,0-.36,2.45-.31,5.95,2.45,7,.17.06.21-.28.15-.37a16.25,16.25,0,0,1-2-3.2A15.41,15.41,0,0,1,27.87,42.24Z"/>
                  <path class="cls-18" d="M31,49.39h-.09c-.15,0-.19.39,0,.37H31C31.1,49.74,31.15,49.37,31,49.39Z"/>
                  <path class="cls-18" d="M38.39,34.51c-.06-.17-.18.06-.17.14.06,1.89-.08,6.73,1.9,7.69.2.09.3-.28.21-.41-.48-.72-.91-2.85-1.35-3.59S38.66,35.38,38.39,34.51Z"/>
                  <path class="cls-18" d="M60.1,28c-.39-.39-2.08-1.58-2.67-1.1-.07.05-.15.34,0,.3s.83.6,1,.7a8.8,8.8,0,0,1,1.31,1,9.69,9.69,0,0,1,1.11,1.29,8.51,8.51,0,0,0,.7,1.16c.18.19.33-.3.31-.4A5.32,5.32,0,0,0,60.1,28Z"/>
                </g>
              </g>
              <path class="cls-19" d="M71.26,70,54.09,78.57l-3.71,1.84s4.69,5.5,15.6,1.7l.93-.46C76.53,75.24,75,68.18,75,68.18Z"/>
              <path class="cls-8" d="M72.74,47.71c-4.79-7-12.43-10-20.66-9.9-5.81.07-10.31,3.42-13.56,8.1a23.76,23.76,0,0,0-4.26,11.76,20.9,20.9,0,0,0,1.14,8.62c5.11,15.4,17.67,15.8,24.33,12.49l1.44-.72,5.42-2.69L68,74.65C74.69,71.34,81.94,61.08,72.74,47.71Z"/>
              <path class="cls-20" d="M76.49,59.4a16.53,16.53,0,0,1-9.07,14.38l-8.29,4.13a16.41,16.41,0,0,1-19.54-3.84,19,19,0,0,1,0-2.61A23.86,23.86,0,0,1,43.9,59.7c3.26-4.68,7.75-8,13.56-8.1C64.81,51.51,71.69,53.92,76.49,59.4Z"/>
              <g class="cls-21">
                <path class="cls-22" d="M63.49,76.65,45.72,43.45s1.7-4.32,3.51-1.49Z"/>
                <path class="cls-22" d="M63.4,76.41,44.06,44.1s-4.58-.75-3.08,2.25Z"/>
                <path class="cls-22" d="M63.63,76.24,50,41.12s2.21-4.08,3.66-1Z"/>
                <path class="cls-22" d="M63.88,77.09,40.41,48.87s-4.52,0-2.62,2.63Z"/>
                <path class="cls-22" d="M63.4,76.57,55.05,40.84s2.69-3.64,3.67-.51Z"/>
                <path class="cls-22" d="M63.44,77,38.21,54.39s-3.74.56-1.62,2.74Z"/>
                <path class="cls-22" d="M64,77.42,37,59.44s-3.47,1.15-1.16,2.94Z"/>
                <path class="cls-22" d="M63.73,76.82,60.94,43.08s2.71-2.65,3.17.36Z"/>
                <path class="cls-22" d="M63.74,77.56l2-32.42s3-2.08,3,.85Z"/>
              </g>
              <path class="cls-5" d="M34.52,55.7S48.25,35.1,60.2,43.19c0,0,19.7,13.12,6.39,32.18,0,0,22.52-10.5,2.25-32C68.84,43.38,43.8,24.92,34.52,55.7Z"/>
            </g>
            <path class="cls-23" d="M71,87a44.17,44.17,0,0,0-9.88,5.13,39.28,39.28,0,0,0-3.78,3,9.84,9.84,0,0,0-3,3.71c0,.11,0,.37.14.28h0c2.37-1.74,4.37-4,6.85-5.61,3.17-2.1,6.59-3.8,9.73-5.93C71.14,87.46,71.26,86.87,71,87Z"/>
            <path class="cls-23" d="M75.24,103.11a20.33,20.33,0,0,0-3.37,1.24c-1.65.71-3.31,1.21-5,1.76a47.66,47.66,0,0,0-6.81,2.36c-.16.07-.24.54,0,.52,5.24-.41,10.92-1.86,15.19-5.11C75.43,103.75,75.63,103,75.24,103.11Z"/>
            <path class="cls-23" d="M77.82,111.17c-2.2.51-4.3,1.36-6.44,2.06-1.1.36-2.23.67-3.34,1-.7.21-2.11,1-2.83,1-.14,0-.23.29-.11.35a3.4,3.4,0,0,0,1.76,0,34,34,0,0,0,3.89-.66,28.11,28.11,0,0,0,7.1-2.89C78.06,111.83,78.19,111.09,77.82,111.17Z"/>
            <path class="cls-23" d="M82.48,118.71c-1.58.1-3.1,1-4.55,1.61-1.74.71-3.77,2.09-5.63,2.33-.15,0-.23.41-.06.43,1.77.25,3.55-.55,5.17-1.16a55,55,0,0,0,5.1-2.38C82.76,119.42,82.88,118.69,82.48,118.71Z"/>
            <path class="cls-23" d="M84.86,124.74c-2,0-3.45,1.65-5.26,2.16-.19.06-.26.43-.07.52.75.35,2-.27,2.66-.55A9.63,9.63,0,0,0,85,125.52C85.16,125.35,85.23,124.74,84.86,124.74Z"/>
          </g>
          <g>
            <g>
              <g class="cls-24">
                <path class="cls-25" d="M42.77,63c-1.67,0-3.84,2.33-4.6,4.61-1.83,5.47-4.68,22.92-3.85,37.91s3.12,47.33,11,53,11.28.57,14.87-13.17,10-31,4.54-39.81-17.15-24.14-18.8-31a62.77,62.77,0,0,1-1.13-8.43C44.58,63.89,43.76,63,42.77,63Z"/>
              </g>
              <path class="cls-26" d="M63.53,107.26c-1-1.13-2.16-2.12-3.26-3.16a.15.15,0,0,1-.16,0c-2.66-2.89-5.42-5.8-7.13-9.37-.9-1.39-1.77-2.79-2.63-4.18a43,43,0,0,1-5.76-13.17,69.41,69.41,0,0,1-1.44-7.42c-.2-1.65,0-3.9-.7-5.41,0-.07-.08,0-.11,0a.43.43,0,0,0,0-.12s0-.11,0-.13l-.28-.1c-.09,0-.15.19-.06.22.43.17.09.64,0,1-.14.89-.24,1.78-.3,2.68-.11,1.66-.06,3.33,0,5,0,3.14.09,6.26.25,9.39-.43.84-1.19,1.67-1.59,2.5a24.11,24.11,0,0,0-1.6,3.51,50.46,50.46,0,0,0-1.58,6.21q0-2.89.23-5.8c.51-7.76,1.27-15.6,2.49-23.28,0-.09-.07-.08-.09,0s-.06-.05-.11,0a2,2,0,0,0-.34.8c-.14.48-.24,1-.39,1.47,0,.14-.08.28-.12.41s-.06,0-.08.07a127.6,127.6,0,0,0-3.57,22.3,153.63,153.63,0,0,0,.48,22.6,226.28,226.28,0,0,0,3.26,22.42c.72,3.75,1.73,7.42,2.59,11.14.82,3.49,1,7.11,2.21,10.52-.07-.69-.15-1.38-.22-2.08-.29-1.24-.58-2.66-.62-2.9-.26-1.56-.5-3.12-.81-4.68-.73-3.56-1.62-7.09-2.33-10.66-1.5-7.54-2.71-15.17-3.48-22.82a162.12,162.12,0,0,1-.71-23,122.57,122.57,0,0,1,2.94-21.07c.06-.19.21-.4.27-.57.15-.43.2-.88.35-1.31.22-.62.36-1.24.54-1.86A208.83,208.83,0,0,0,36.93,89a98.58,98.58,0,0,0-.17,11.9h0v0a111.58,111.58,0,0,0,1.13,11.47c.59,3.95,1.3,7.88,2,11.82s1.81,7.91,2.53,11.92c.68,3.83,1.27,7.68,1.59,11.55.14,1.86,0,3.72.08,5.58,0,.28,0,.57,0,.84s.07.34.11.5a.15.15,0,0,1,.07.1,17.67,17.67,0,0,0,.94,3.55.34.34,0,0,0,0-.19,22.82,22.82,0,0,1-.76-6,47.32,47.32,0,0,0-.1-5.19c-.19-2.55-.55-5.09-1-7.62.33.79.68,1.57,1,2.36a33.58,33.58,0,0,0,2.2,3.74,26.32,26.32,0,0,0,2.79,3.36c.95,1.1,2.18,1.92,3.07,3.05a.19.19,0,0,0,0,.07,21.12,21.12,0,0,0,1.73,4.74,8.21,8.21,0,0,0,1.09,1.33v0c-.43-1-.88-2.06-1.29-3.1,0-.07.09-.21,0-.22h-.07a.92.92,0,0,1,.22-.32l.75-.75a8,8,0,0,0,1.33-2,14.51,14.51,0,0,0,1.49-5.46,3.52,3.52,0,0,0,1.45,1.3.09.09,0,0,0,.11,0,16.19,16.19,0,0,1-1.87-2.79c-.15-.29-.31-.57-.46-.83-.49-.84-1-1.66-1.5-2.48.35-.14.49-.75.62-1,.6-1.39,1.56-2.64,2.28-4,.8-1.49,1.72-2.91,2.48-4.42.6-1.17,1.47-2.39,2-3.64.51.7,1,1.41,1.49,2.14h0a15,15,0,0,0-1.52-3.06l0,0c-.09-.13-.2-.26-.29-.4-.88-1.18-1.58-2.5-2.51-3.65s-1.6-2.5-2.52-3.67c-.78-1-1.24-2.41-2.25-3.24,0,0,.06-.07.05-.1s-.06-.12-.14-.14a2.25,2.25,0,0,0,.77-.67,4.94,4.94,0,0,0,.69-2.28c.2-1.41.36-2.83.5-4.24a33.8,33.8,0,0,0,.15-7.25,1.71,1.71,0,0,1,.11.14,28.93,28.93,0,0,0,4.38,4.47,20.27,20.27,0,0,1,2.28,2.26c1,1.08,2.06,1.88,2.65,3.27,0,0,0,0,0,.06-.09-.46-.22-.92-.35-1.37A26,26,0,0,0,63.53,107.26Zm-13,41.79A38.71,38.71,0,0,1,47,144.89a28.66,28.66,0,0,1-2.47-4.07A29,29,0,0,0,43.29,138l-.36-2c-.64-3.64-1.59-7.19-2.32-10.81-.82-4.1-1.53-8.22-2.17-12.34-.4-2.64-.72-5.27-.94-7.9,2,8.52,5.91,16.5,8.94,24.68a135.55,135.55,0,0,1,4.43,14.81c.54,2.18,1,4.38,1.53,6.58C51.83,150.27,51.17,149.71,50.56,149.05Zm4.83,3.29c-.32.48-1.14,1.08-1.52,1.73-.19-.52-.38-1-.53-1.59a.3.3,0,0,0,0-.21c0-.08-.09-.16-.14-.24s-.11-.41-.15-.62c-.54-2.29-1-4.6-1.6-6.89A140.54,140.54,0,0,0,47,129.72c-3.13-8.64-7.53-16.89-9.62-25.87q-.29-4-.29-8a41.19,41.19,0,0,1,2.14-7.61c.47-1.16,1.1-2.28,1.62-3.42.28-.62.72-1.2,1-1.82,0,.46,0,.93.08,1.39.54,7.9,2.61,15.57,4.07,23.32.15.81.31,1.63.48,2.44a.12.12,0,0,0,0,.13c.58,2.8,1.21,5.6,1.7,8.42.59,3.31,1.14,6.62,1.86,9.9-.16,0-.3.06-.46-.1a.13.13,0,0,0-.09,0,4.36,4.36,0,0,1-1.25.07c-.31,0-.62.07-.93.05-.14,0-.3.09-.43,0a0,0,0,0,0-.07,0,.65.65,0,0,0-.16.13s-.06.15,0,.15a2.47,2.47,0,0,1,.67.15,9.51,9.51,0,0,0,1.52.07,5.92,5.92,0,0,1,.84,0,.5.5,0,0,0,.43-.16l.21.94a40.47,40.47,0,0,0,3.67,10c.87,1.65,1.94,3.18,2.88,4.78.23.38.43.76.66,1.11A18.05,18.05,0,0,1,55.39,152.34ZM57,119.53c.72,1.28,1.58,2.53,2.4,3.76,1,1.53,2.13,3,3.22,4.47-1,2.33-2.46,4.57-3.66,6.77-.77,1.41-1.46,2.84-2.31,4.2-.42.67-.62,1.84-1.19,2.34-.35-.57-.69-1.15-1-1.73a41.08,41.08,0,0,1-3.75-10.42c-.86-3.66-1.44-7.38-2.09-11.08-.43-2.45-1-4.87-1.49-7.3.67.59,1.7,1.89,2,2.15a20.39,20.39,0,0,0,3.17,2.7,3.31,3.31,0,0,0,2.69.8s0,0,0,.07C55.53,117.41,56.39,118.4,57,119.53Zm-.74-6.34c-.16,1.42-.93,3-2.6,2.41a8,8,0,0,1-2.22-1.39,47.14,47.14,0,0,1-4.41-4.07q-.28-1.35-.54-2.7C45.18,100.3,43.23,93.22,42.58,86c-.12-1.3-.2-2.6-.28-3.91h0a.12.12,0,0,0,0-.12c-.13-2.27-.21-4.55-.27-6.83-.08-3.45-.34-7,.3-10.41v0a10.29,10.29,0,0,1,.38,3c.1,1.19.2,2.37.34,3.56.27,2.14.75,4.29,1.23,6.4A39.4,39.4,0,0,0,49.38,90a132.88,132.88,0,0,0,7.5,11.13A63.68,63.68,0,0,1,56.28,113.19Z"/>
              <g class="cls-27">
                <path class="cls-28" d="M42.77,63c-1.67,0-3.84,2.33-4.6,4.61a53.64,53.64,0,0,0-1.58,6.58,3.35,3.35,0,0,1,.92-1C40,71.36,40.77,77.92,41,79.08c.4,2.19.7,4.41,1.2,6.58A31.06,31.06,0,0,0,44.4,92c1.89,4,4.26,7.7,6.49,11.49a48.16,48.16,0,0,1,5.16,11.11,28,28,0,0,1,1,6.17,55.42,55.42,0,0,1-.23,6.57,81.33,81.33,0,0,1-2,13.81,23,23,0,0,1-2,5.58c-.84,1.54-2,3.21-3.75,3.83-4.36,1.58-8-2.49-10.22-5.95,1.57,6.66,3.64,11.94,6.41,13.94,7.88,5.7,11.28.57,14.87-13.17s10-31,4.54-39.81-17.15-24.14-18.8-31a62.77,62.77,0,0,1-1.13-8.43C44.58,63.89,43.76,63,42.77,63Z"/>
              </g>
              <path class="cls-19" d="M44.54,57.63a2.29,2.29,0,0,0-1.2-.45c-2-.17-3.52,2.62-4.53,4-1.23,1.63-2.44,3.7-1.6,5.79.73,1.84,4.32.71,5.58.28a4.11,4.11,0,0,0,2.84-3.38C45.9,61.92,46.32,59,44.54,57.63Z"/>
            </g>
            <g>
              <g class="cls-24">
                <path class="cls-25" d="M66.16,51.36c1-1.35,4.18-1.66,6.45-.89,5.46,1.85,21.1,10.1,32.56,19.8s35.87,31,35.66,40.77-6.34,9.35-19.47,3.92S90.59,104.22,86.87,94.58,78,66.33,73.48,60.88a62.09,62.09,0,0,0-6-6C65.78,53.35,65.57,52.17,66.16,51.36Z"/>
              </g>
              <path class="cls-26" d="M89.75,98.86a13.54,13.54,0,0,0,.88,1.12.13.13,0,0,0,0-.08,12.53,12.53,0,0,1-1-4.09,21.45,21.45,0,0,1-.43-3.19,28.05,28.05,0,0,0-.92-6.18c0-.06,0-.12,0-.17a34.16,34.16,0,0,0,5.87,4.25c1.21.74,2.44,1.47,3.68,2.15a5.1,5.1,0,0,0,2.24.84,2.34,2.34,0,0,0,1-.21c0,.07,0,.07,0,.19s.11.07.1,0c.06,1.31.91,2.53,1.23,3.75.38,1.44,1.06,2.79,1.41,4.23s1,2.78,1.4,4.2l.14.47h0a14.8,14.8,0,0,0,1.52,3.06h0c-.3-.82-.56-1.65-.82-2.48,1.3.36,2.79.4,4.09.64,1.66.29,3.36.42,5,.68,1.5.23,3.08.22,4.55.58.31.08.88.32,1.21.13.35.9.69,1.8,1.07,2.69.12.29.25.58.38.88a15.86,15.86,0,0,1,1.1,3.17.11.11,0,0,0,.09-.08,3.65,3.65,0,0,0-.17-1.94,14.48,14.48,0,0,0,5.26,2.11,8.11,8.11,0,0,0,2.36.12c.35-.06.7-.09,1-.15a.94.94,0,0,1,.39,0,.13.13,0,0,0,0,.06c-.05.08.08.13.17.14.58.95,1.12,1.92,1.69,2.9l0,0a8.63,8.63,0,0,0-.39-1.67,22.24,22.24,0,0,0-2.74-4.24l-.05-.06c-.37-1.39-.28-2.86-.58-4.28a26.9,26.9,0,0,0-1-4.26,32.82,32.82,0,0,0-1.66-4c-.42-.74-.83-1.5-1.26-2.24,1.77,1.86,3.58,3.67,5.5,5.37a48.65,48.65,0,0,0,4.07,3.21,23,23,0,0,1,4.36,4.23.26.26,0,0,0,.16.1,17.33,17.33,0,0,0-2.26-2.89.18.18,0,0,1,0-.12c-.11-.13-.22-.26-.34-.38a8.42,8.42,0,0,0-.64-.55c-1.46-1.16-3-2.19-4.39-3.44-2.91-2.58-5.62-5.38-8.26-8.23s-5.25-6.2-8-9.21-5.39-5.9-8.19-8.76a113.18,113.18,0,0,0-8.47-7.81l0,0h0a100.28,100.28,0,0,0-9.6-7A209,209,0,0,0,70.8,50.93c.6.24,1.18.5,1.8.69.44.14.83.38,1.26.52.17,0,.43.06.62.12A123.74,123.74,0,0,1,93.06,62.63,164.42,164.42,0,0,1,111,77.06c5.64,5.23,11,10.81,16.1,16.55,2.42,2.72,4.69,5.56,7.1,8.29,1,1.19,2.14,2.32,3.24,3.47.16.17,1.12,1.26,1.94,2.25.51.46,1,.94,1.52,1.42-2-3-4.76-5.35-7.06-8.11-2.44-2.93-4.76-6-7.32-8.79A226.28,226.28,0,0,0,110.58,76,153.5,153.5,0,0,0,92.85,62a126.89,126.89,0,0,0-19.94-10.6c-.06,0-.09,0-.1,0l-.4-.16c-.48-.17-.94-.4-1.41-.57a2,2,0,0,0-.84-.21c-.08,0-.09,0-.08.08s-.12,0,0,.08C76.9,54.31,83.6,58.43,90.11,62.7c1.62,1.06,3.21,2.17,4.76,3.31A52.08,52.08,0,0,0,89,63.53a25.37,25.37,0,0,0-3.77-.84c-.9-.18-2-.07-3-.24-2.4-2-4.86-3.94-7.34-5.86-1.31-1-2.62-2.07-4-3-.75-.49-1.52-1-2.32-1.37-.36-.2-.94-.21-.82-.65,0-.09-.18-.18-.21-.09l-.09.29c0,.05,0,.09.08.11l.11.05c-.07,0-.13,0-.09.06.77,1.49,2.69,2.68,3.89,3.83a67.25,67.25,0,0,1,5,5.62,43.29,43.29,0,0,1,7,12.54c.59,1.53,1.18,3.07,1.75,4.62,1.81,3.52,2.47,7.48,3.17,11.34a.15.15,0,0,1-.06.15c.17,1.51.27,3,.55,4.51A25.58,25.58,0,0,0,89.75,98.86Zm40.73,13.22c-1.46-1.72-2.91-3.45-4.33-5.2A137.33,137.33,0,0,1,117,94.42c-4.69-7.35-8.68-15.31-14.29-22,2,1.76,3.87,3.59,5.73,5.51,2.9,3,5.76,6,8.53,9.17,2.45,2.76,4.71,5.67,7.23,8.38.47.5.94,1,1.42,1.51a27,27,0,0,0,1.51,2.76,28.07,28.07,0,0,1,1.76,4.42,40.49,40.49,0,0,1,1.2,5.32C130.25,110.37,130.31,111.23,130.48,112.08Zm-7.29,1.07c-.15-.4-.33-.79-.49-1.19-.71-1.73-1.29-3.5-2.08-5.19a40.5,40.5,0,0,0-5.72-8.93l-.62-.73a.47.47,0,0,0,.38-.25,6.58,6.58,0,0,1,.47-.7A10,10,0,0,0,116,94.9a2.36,2.36,0,0,1,.29-.62c0-.06-.07-.12-.12-.11a1.33,1.33,0,0,0-.19,0,.05.05,0,0,0,0,.06c0,.15-.19.22-.26.34a8,8,0,0,1-.6.71,4.17,4.17,0,0,1-.81,1,.09.09,0,0,0,0,.08c0,.22-.09.31-.2.43-2.18-2.55-4.49-5-6.78-7.46-1.95-2.09-3.8-4.28-5.69-6.43,0,0,0-.08-.09-.1-.54-.62-1.09-1.24-1.65-1.85C94.5,75.12,89.64,68.85,83.66,63.65l-1.06-.9c.69.11,1.41.11,2.08.26,1.22.27,2.5.45,3.7.78a40.53,40.53,0,0,1,7.37,2.88C97.89,68.29,100,70,102,71.74c5.89,7.08,9.83,15.57,14.83,23.27a142.59,142.59,0,0,0,9.14,12.45c1.49,1.82,3,3.62,4.54,5.43.14.16.27.33.4.5l.11.26a.24.24,0,0,0,.17.11c.33.46.64.92.94,1.39-.75-.08-1.72.21-2.29.17A17.87,17.87,0,0,1,123.19,113.15ZM101.28,93.21l0,0a3.28,3.28,0,0,0,1-2.62,20.67,20.67,0,0,0-.24-4.16c0-.37-.46-2-.54-2.86,1.63,1.87,3.24,3.77,4.93,5.59,2.56,2.75,5.18,5.46,7.58,8.36a40.43,40.43,0,0,1,6,9.26c.28.62.53,1.24.78,1.86-.75.15-1.8-.39-2.59-.46-1.6-.15-3.16-.45-4.74-.69-2.49-.37-5.16-.55-7.61-1.17-.53-1.76-1-3.53-1.63-5.26-.49-1.39-1-2.84-1.55-4.18C102.13,95.65,101.86,94.36,101.28,93.21ZM88,85.6a128.42,128.42,0,0,0-4.35-12.7A39.42,39.42,0,0,0,77,61.4c-1.4-1.65-2.82-3.33-4.37-4.84-.86-.83-1.75-1.62-2.63-2.42A9.89,9.89,0,0,1,67.78,52h0c3.11,1.55,5.78,3.89,8.49,6,1.78,1.42,3.55,2.86,5.28,4.34,0,0,0,.05.09.08h0c1,.85,2,1.7,3,2.58C90,70,94.46,75.78,99.35,81.15c.62.68,1.22,1.37,1.83,2.06a46,46,0,0,1,.58,6,8.22,8.22,0,0,1-.23,2.62c-.56,1.66-2.26,1.34-3.49.62A65.27,65.27,0,0,1,88,85.6Z"/>
              <g class="cls-27">
                <path class="cls-28" d="M66.16,51.36c1-1.35,4.18-1.66,6.45-.89a55.21,55.21,0,0,1,6.2,2.72,3.38,3.38,0,0,0-1.39.09c-2.91.9,1.85,5.49,2.64,6.35,1.51,1.64,3.1,3.22,4.53,4.93a30.91,30.91,0,0,1,3.73,5.61c2,3.91,3.56,8,5.24,12.1a48,48,0,0,0,5.76,10.81,27.25,27.25,0,0,0,4.29,4.56,54.68,54.68,0,0,0,5.38,3.78,81.57,81.57,0,0,0,12.2,6.76,23.27,23.27,0,0,0,5.66,1.77c1.73.25,3.78.31,5.31-.68,3.89-2.53,2.82-7.86,1.43-11.74,4.36,5.26,7.32,10.1,7.24,13.51-.2,9.73-6.34,9.35-19.47,3.92S90.59,104.22,86.87,94.58,78,66.33,73.48,60.88a62.09,62.09,0,0,0-6-6C65.78,53.35,65.57,52.17,66.16,51.36Z"/>
              </g>
              <path class="cls-19" d="M65.09,54.14a4.1,4.1,0,0,0,4.4-.23c1.11-.74,4.17-2.93,3.15-4.62-1.16-1.93-3.54-2.21-5.59-2.21-1.66,0-4.82-.46-5.88,1.23a2.34,2.34,0,0,0-.37,1.23C60.8,51.77,63.41,53.21,65.09,54.14Z"/>
            </g>
          </g>
        </g>
      </g>
    </g>
  </g>
</svg>
