<svg xmlns="http://www.w3.org/2000/svg" width="216.22" height="182.41" viewBox="0 0 216.22 182.41">
  <defs>
    <style>
      .cls-1 {
        isolation: isolate;
      }

      .cls-2 {
        opacity: 0.5;
      }

      .cls-3 {
        fill: #fff;
      }

      .cls-4 {
        fill: #eb4586;
        stroke: #bf2e6a;
      }

      .cls-4, .cls-6 {
        stroke-miterlimit: 10;
      }

      .cls-5 {
        fill: #bc6080;
      }

      .cls-5, .cls-7 {
        opacity: 0.25;
        mix-blend-mode: multiply;
      }

      .cls-6, .cls-7 {
        fill: #875fa7;
      }

      .cls-6 {
        stroke: #65497f;
      }
    </style>
  </defs>
  <g class="cls-1">
    <g id="Layer_1" data-name="Layer 1">
      <g>
        <path class="cls-2" d="M87.28,182.41a221.39,221.39,0,0,1-42.79-4c-2.9-.59-5.67-1.25-8.26-2-7.13,2.63-14,4.12-19.19,4.12-4.84,0-8.46-1.33-10.77-3.94C2.16,172,4.59,165.09,8.89,154.26c.52-1.3,1.18-3,1.55-4C5.63,126,4.77,100.8,8,79l-.31-1C5,69.5,3,61.41,6.64,56.28a10.76,10.76,0,0,1,9.13-4.35c3.3,0,7.17,1,12.38,3.39.33-5.71.81-11.29,1.44-16.69-.12-.55-.31-1.36-.48-2-3-12.54-4.08-20.28-1.33-25.28a10.51,10.51,0,0,1,9.51-5.49c4.19,0,9.14,2,16.17,6.59C69,5.65,93.56,4.16,112.13,4.16c26.13,0,55.19,3.05,72.3,7.52,4.48-2.45,12.58-6.32,19.08-6.32,5.14,0,8,2.28,9.55,4.19,4.38,5.51,1.92,15.21-1.75,27.32-.32,1.05-.69,2.29-.91,3.09.06.36.11.73.17,1.11.47,3,.9,6.23,1.27,9.72a317.59,317.59,0,0,1-2.36,80.57c3.61,7.74,10.16,26.37,4.58,33.91-1.35,1.81-4,4-8.91,4.43-.48,0-1,.05-1.5.05h0c-4.93,0-10.91-1.71-17.12-4.85-6.6,2.62-15.67,4.3-23.91,5.36a10.28,10.28,0,0,1-2.73,6.77c-2.2,2.26-5.53,3.41-9.91,3.41-4.81,0-11-1.39-17.2-3.85-10.33,3.59-23.58,5-33.24,5.5-4,.21-8,.32-12.16.32Z"/>
        <path class="cls-3" d="M83.13,178.25a220.63,220.63,0,0,1-42.8-4c-2.9-.59-5.67-1.25-8.26-2-7.13,2.63-14,4.11-19.19,4.11-4.83,0-8.46-1.32-10.77-3.94C-2,167.8.43,160.93,4.73,150.11c.52-1.31,1.18-3,1.55-4C1.47,121.81.61,96.64,3.84,74.87l-.31-1c-2.65-8.54-4.74-16.63-1-21.77a10.79,10.79,0,0,1,9.14-4.35c3.29,0,7.17,1,12.37,3.39.33-5.7.81-11.29,1.44-16.69-.12-.55-.31-1.35-.48-2C22,19.9,20.87,12.16,23.62,7.16a10.53,10.53,0,0,1,9.52-5.49c4.19,0,9.14,2,16.16,6.58C64.85,1.49,89.4,0,108,0c26.13,0,55.18,3.06,72.29,7.52,4.48-2.45,12.58-6.32,19.08-6.32,5.14,0,8,2.28,9.55,4.19,4.39,5.52,1.93,15.21-1.75,27.32-.32,1-.69,2.3-.91,3.09q.09.54.18,1.11c.47,3,.89,6.23,1.26,9.72a317.67,317.67,0,0,1-2.36,80.58c3.61,7.73,10.16,26.36,4.58,33.9-1.34,1.81-4,4-8.9,4.43-.49,0-1,.05-1.51.05h0c-4.93,0-10.91-1.7-17.12-4.85-6.59,2.62-15.67,4.3-23.9,5.36a10.26,10.26,0,0,1-2.74,6.77c-2.19,2.26-5.52,3.41-9.9,3.41-4.81,0-11-1.39-17.21-3.85-10.33,3.6-23.58,5-33.24,5.5-3.95.21-8,.32-12.16.32Z"/>
        <g>
          <g>
            <path class="cls-4" d="M204.55,157.16c-2.4,3.24-11.57,2.13-21.92-3.84-8,4.28-26.21,7.07-46.79,8-5.83.27-11.85.4-17.89.36h-.25c-22.44-.14-45-2.44-58.34-7.32A37.8,37.8,0,0,1,53,151.45c-.68.36-1.37.7-2.06,1-6.81,3.27-13.92,5.27-18.4,4.61a6.94,6.94,0,0,1-2.5-.81A4.12,4.12,0,0,1,28.68,155c-1.05-1.56-.07-6.51,1.38-11.86,1.94-7.18,4.72-15.08,4.51-16.43a369,369,0,0,1-4.34-66c0-.35,0-.71,0-1.06.26-8.48.87-17,1.88-25.42,0-1.54-5.36-19.09-2.7-23.94s11-.26,19.31,5.56C75.08,1.36,152.81,6.33,181.17,14.67c4.84-2.91,18.62-10,22.52-5.14,3.58,4.49-4.48,24.67-4.21,26.26.13.69.25,1.41.36,2.15,3.3,20.75,4.37,57-1.44,90.29C203,136.57,207.36,153.37,204.55,157.16Z"/>
            <path class="cls-5" d="M204.55,157.15c-2.41,3.25-11.58,2.13-21.92-3.83-8,4.28-26.22,7.07-46.79,8-27.62,1.28-59.47-.75-76.48-7,11.23-4,23.83-2.17,35.72-3.09a146.58,146.58,0,0,0,19.5-3.32L133,144l2.62-.57c11.55-2.51,23.82-5.47,32.37-15.94,6.62-8.12,10-19.64,13.25-30.74q5.56-19.29,11.15-38.57c2-7,4.17-14.2,7.46-20.2,3.29,20.75,4.36,57-1.45,90.29C203,136.57,207.35,153.37,204.55,157.15Z"/>
          </g>
          <g>
            <path class="cls-6" d="M144.72,145.84c4.85-21.21,5-44,3-60.34a110.2,110.2,0,0,0-1.9-11.26c-.28-1.24,7.88-16.86,4.26-20.35-4-3.79-17.92,1.74-22.81,4-28.73-6.46-68.86-7.45-99.83,2.43C19,55.8,10.58,52.25,7.89,56s2.73,17.35,2.73,18.55c-3.88,24.7-1.87,50.44,2.45,71.6.37,1.81-8.47,19.07-6,21.91,3,3.39,14.48,1.28,24.65-2.78,3.1.92,6.43,1.73,9.92,2.45,28.78,5.9,68.78,5,87.07-2.46,10.48,4.62,19.77,5.49,22.21,3C153.79,165.31,149.39,152.3,144.72,145.84Z"/>
            <path class="cls-7" d="M147.72,85.5a324.16,324.16,0,0,0-17.31,41.67c-2.55,7.89-4.91,16.34-11,22-5.88,5.55-14.22,7.48-22.17,8.94-18.5,3.41-37.3,5.52-55.62,9.6,28.78,5.9,68.78,5,87.07-2.46,10.48,4.62,19.77,5.49,22.21,3,2.84-2.93-1.56-15.94-6.23-22.4C149.57,124.63,149.69,101.85,147.72,85.5Z"/>
          </g>
        </g>
      </g>
    </g>
  </g>
</svg>
