<svg id="Layer_1" data-name="Layer 1" xmlns="http://www.w3.org/2000/svg" xmlns:xlink="http://www.w3.org/1999/xlink" width="168.65" height="217.75" viewBox="0 0 168.65 217.75">
  <defs>
    <style>
      .cls-1 {
        opacity: 0.5;
      }

      .cls-2 {
        fill: #fff;
      }

      .cls-3 {
        fill: url(#linear-gradient);
      }
    </style>
    <linearGradient id="linear-gradient" x1="7.25" y1="106.61" x2="156.86" y2="106.61" gradientUnits="userSpaceOnUse">
      <stop offset="0" stop-color="#c6ba66"/>
      <stop offset="0.49" stop-color="#ffffca"/>
      <stop offset="1" stop-color="#c6ba66"/>
    </linearGradient>
  </defs>
  <g>
    <path class="cls-1" d="M11.78,217.75A7.25,7.25,0,0,1,5,207.94L79.8,9.23a7.25,7.25,0,0,1,13.58,0l74.8,198.71a7.25,7.25,0,0,1-6.78,9.81Z"/>
    <path class="cls-2" d="M7.25,213.22a7.25,7.25,0,0,1-6.78-9.81L75.27,4.7a7.25,7.25,0,0,1,13.57,0l74.81,198.71a7.25,7.25,0,0,1-6.79,9.81Z"/>
    <polygon class="cls-3" points="7.25 205.97 82.06 7.25 156.86 205.97 7.25 205.97"/>
  </g>
</svg>
