<svg id="Layer_1" data-name="Layer 1" xmlns="http://www.w3.org/2000/svg" width="143.03" height="258.24" viewBox="0 0 143.03 258.24">
  <defs>
    <style>
      .cls-1 {
        opacity: 0.5;
      }

      .cls-2 {
        fill: #fff;
      }

      .cls-3 {
        fill: #5e961b;
      }

      .cls-4 {
        fill: #488019;
      }

      .cls-5 {
        fill: #ff7db8;
      }

      .cls-6 {
        fill: #f93a91;
      }

      .cls-7 {
        fill: #b31b64;
      }

      .cls-8 {
        fill: #ff4d9e;
      }

      .cls-9 {
        fill: #ff59a5;
      }

      .cls-10 {
        fill: #7db03f;
      }

      .cls-11 {
        fill: #6da32c;
      }

      .cls-12 {
        fill: #cc6900;
      }

      .cls-13 {
        fill: #ba5700;
      }

      .cls-14 {
        fill: #e38017;
      }
    </style>
  </defs>
  <g>
    <path class="cls-1" d="M141.27,100.33a23.25,23.25,0,0,0-5.38-8.12,18,18,0,0,0,.89-2.31c2.29-7.37.32-15.77-5.28-22.49a27.29,27.29,0,0,0-4.08-4c2.31-7.87.85-16.93-4.16-24.93a32.52,32.52,0,0,0-11-10.82,28.73,28.73,0,0,0-7.5-9.32c-3-2.56-7.71-5.84-13.15-6.87a14.6,14.6,0,0,0-2.77-.27c-5.42,0-9,3-11.34,5.56a23.54,23.54,0,0,0-3-1.62,23.42,23.42,0,0,0-6.65-6.12,23.24,23.24,0,0,0-11.3-4l-.7,0c-7,0-10.3,5.18-11.87,7.66l-3.11,4.86c-.4.62-.81,1.28-1.19,2A24.87,24.87,0,0,0,33.14,27a27.81,27.81,0,0,0-3.41,9.89A8,8,0,0,0,27,36.45a8.18,8.18,0,0,0-7.71,5.44,24.69,24.69,0,0,0-1.17,12.18,8.14,8.14,0,0,0,8.06,6.85h0a8.16,8.16,0,0,0,4.23-1.19c-.61,1.91-1.15,3.86-1.58,5.84A76.18,76.18,0,0,0,29,97c2.27,11.17,6.88,21.49,11.08,30.12,1.55,3.17,3.19,6.28,4.78,9.3l.52,1c-2.54-1.45-5.12-2.79-7.67-4.11L35.17,132a66.68,66.68,0,0,1-12.06-7.58,9.34,9.34,0,0,0-15.39,6.18A43.8,43.8,0,0,0,11.3,152.8a8.93,8.93,0,0,0-5.88,5.89A9.39,9.39,0,0,0,9,169.15c.28.2.56.4.85.59a8.48,8.48,0,0,0-1.34,6.16l12.34,73.16A11,11,0,0,0,29.19,258a8.21,8.21,0,0,0,2.16.29H84.23a11.16,11.16,0,0,0,11-9.12L108.69,176a8.49,8.49,0,0,0-8.35-10H98.61a39.29,39.29,0,0,0,4.72-7.78,53.12,53.12,0,0,0,4-13.56c.24-1.42.45-2.87.64-4.43,0-.12,0-.23,0-.34a13.36,13.36,0,0,0,4,1,12.45,12.45,0,0,0,3.46-.09,8.33,8.33,0,0,0,3.54,1l.07,0a13.49,13.49,0,0,0,5.59,1.21h0A14,14,0,0,0,136,137.14a16.2,16.2,0,0,0,1.92-14.38,17.6,17.6,0,0,0,1.55-1.9C143.47,115.23,144.14,107.56,141.27,100.33ZM80.59,122.11A143.11,143.11,0,0,1,79.1,102.2v-.34A9.13,9.13,0,0,0,70,93.08,8.91,8.91,0,0,0,63.43,96a61.82,61.82,0,0,0-9.56,14.1c-1.29-3-2.46-6-3.46-9.05C47.33,91.75,46,83.65,46.23,76.3a45,45,0,0,1,3-14.85,19.51,19.51,0,0,0,3-.27,25.59,25.59,0,0,0,.67,2.61C56.09,73.89,65,80.67,75.16,80.67q.86,0,1.71-.06l.82-.08A23.52,23.52,0,0,0,79.22,95.1a20.08,20.08,0,0,0,10.61,10.09,18.8,18.8,0,0,0,1.35,9.11,39.75,39.75,0,0,0-10.58,7.88A.2.2,0,0,1,80.59,122.11Z"/>
    <path class="cls-2" d="M136.27,95.33a23.25,23.25,0,0,0-5.38-8.12,18,18,0,0,0,.89-2.31c2.29-7.37.32-15.77-5.28-22.49a27.29,27.29,0,0,0-4.08-4c2.31-7.87.85-16.93-4.16-24.93a32.52,32.52,0,0,0-11-10.82,28.73,28.73,0,0,0-7.5-9.32c-3-2.56-7.71-5.84-13.15-6.87a14.6,14.6,0,0,0-2.77-.27c-5.42,0-9,3-11.34,5.56a23.54,23.54,0,0,0-3-1.62,23.42,23.42,0,0,0-6.65-6.12,23.24,23.24,0,0,0-11.3-4l-.7,0c-7,0-10.3,5.18-11.87,7.66l-3.11,4.86c-.4.62-.81,1.28-1.19,2A24.87,24.87,0,0,0,28.14,22a27.81,27.81,0,0,0-3.41,9.89A8,8,0,0,0,22,31.45a8.18,8.18,0,0,0-7.71,5.44,24.69,24.69,0,0,0-1.17,12.18,8.14,8.14,0,0,0,8.06,6.85h0a8.16,8.16,0,0,0,4.23-1.19c-.61,1.91-1.15,3.86-1.58,5.84A76.18,76.18,0,0,0,24,92c2.27,11.17,6.88,21.49,11.08,30.12,1.55,3.17,3.19,6.28,4.78,9.3l.52,1c-2.54-1.45-5.12-2.79-7.67-4.11L30.17,127a66.68,66.68,0,0,1-12.06-7.58,9.34,9.34,0,0,0-15.39,6.18A43.8,43.8,0,0,0,6.3,147.8a8.93,8.93,0,0,0-5.88,5.89A9.39,9.39,0,0,0,4,164.15c.28.2.56.4.85.59a8.48,8.48,0,0,0-1.34,6.16l12.34,73.16A11,11,0,0,0,24.19,253a8.21,8.21,0,0,0,2.16.29H79.23a11.16,11.16,0,0,0,11-9.12L103.69,171a8.49,8.49,0,0,0-8.35-10H93.61a39.29,39.29,0,0,0,4.72-7.78,53.12,53.12,0,0,0,4-13.56c.24-1.42.45-2.87.64-4.43,0-.12,0-.23,0-.34a13.36,13.36,0,0,0,4,1,12.45,12.45,0,0,0,3.46-.09,8.33,8.33,0,0,0,3.54,1l.07,0a13.49,13.49,0,0,0,5.59,1.21h0A14,14,0,0,0,131,132.14a16.2,16.2,0,0,0,1.92-14.38,17.6,17.6,0,0,0,1.55-1.9C138.47,110.23,139.14,102.56,136.27,95.33ZM75.59,117.11A143.11,143.11,0,0,1,74.1,97.2v-.34A9.13,9.13,0,0,0,65,88.08,8.91,8.91,0,0,0,58.43,91a61.82,61.82,0,0,0-9.56,14.1c-1.29-3-2.46-6-3.46-9.05C42.33,86.75,41,78.65,41.23,71.3a45,45,0,0,1,3-14.85,19.51,19.51,0,0,0,3-.27,25.59,25.59,0,0,0,.67,2.61C51.09,68.89,60,75.67,70.16,75.67q.86,0,1.71-.06l.82-.08A23.52,23.52,0,0,0,74.22,90.1a20.08,20.08,0,0,0,10.61,10.09,18.8,18.8,0,0,0,1.35,9.11,39.75,39.75,0,0,0-10.58,7.88A.2.2,0,0,1,75.59,117.11Z"/>
    <g>
      <path class="cls-3" d="M70.39,136.24c-.17-6-1.68-11.87-2.69-17.79A154,154,0,0,1,66.09,97.1a1,1,0,0,0-1.72-.72,54.32,54.32,0,0,0-13.26,28A53.45,53.45,0,0,0,51,139.94c.79,5.63,2.77,11,3.63,16.62a68.33,68.33,0,0,1,.73,7.41c.1,2.38.29,5.22-.66,7.46a.41.41,0,0,0,0,.31l-.19.13a1,1,0,0,0,1,1.79c3.65-1.67,5.85-5.59,7.48-9.07,1.78-3.81,3-7.81,4.55-11.73A42.65,42.65,0,0,0,70.39,136.24Z"/>
      <path class="cls-3" d="M59.13,169.74a35.45,35.45,0,0,0-3.44-1.13c1.9-7.08-2.24-15.05-7-20.08C42.53,142,34.27,138.14,26.45,134A73,73,0,0,1,13,125.47a1.35,1.35,0,0,0-2.27.94,36.78,36.78,0,0,0,7.93,26.47,45.28,45.28,0,0,0,22.18,14.85c5.79,1.81,11.85,2.7,17.73,4.23A1.15,1.15,0,0,0,59.13,169.74Z"/>
      <path class="cls-4" d="M54.23,169.46A1.27,1.27,0,0,0,55.37,171v.16l-.09.08c-.15.12-.08.43.14.34l.31-.13C55.24,170.78,54.75,170.11,54.23,169.46Z"/>
      <path class="cls-4" d="M70.39,136.42c-.17-6-1.68-11.87-2.69-17.79a154,154,0,0,1-1.61-21.35,1.06,1.06,0,0,0-.6-.9,92.07,92.07,0,0,0-3.37,14c-1.5,10.62-1,21.36-.79,32a132,132,0,0,1-.47,16.28c-.26,2.52-.54,5.08-.92,7.63,1-1.36,2-2.68,3-4q1.14-1.47,2.28-2.91c.79-2.12,1.53-4.25,2.34-6.35A42.65,42.65,0,0,0,70.39,136.42Z"/>
      <path class="cls-4" d="M53.38,169.16a56.71,56.71,0,0,0-5.83-5.77C35.31,152.8,16,144.29,10.71,128.13a37,37,0,0,0,8.06,24.93A45.28,45.28,0,0,0,41,167.91c4.61,1.44,9.38,2.3,14.09,3.36C54.51,170.55,54,169.84,53.38,169.16Z"/>
      <path class="cls-4" d="M62.26,172.44c1.74-8.29-.38-17.07-3-24.95a176,176,0,0,0-10.1-23.2c-4.22-8.38-8.39-16.79-11.34-25.71S32.89,80.36,33.24,71c.32-8.82,2.6-17.72,7.48-25.15a31.4,31.4,0,0,1,8.72-9,21.85,21.85,0,0,1,12.94-3.66c8.26.26,16.39,3.85,22.71,9a43.08,43.08,0,0,1,13.3,18.74,45.17,45.17,0,0,1,2.35,12.68A142.86,142.86,0,0,0,102,88.37a80,80,0,0,0,9.28,26.29c.56,1,1.13,1.93,1.72,2.88s1.39,1.87,2,2.83c.39.57,1.32,0,.93-.54-.67-1-1.2-2.09-1.82-3.11s-1.24-2.06-1.82-3.11c-1.15-2.06-2.2-4.18-3.15-6.34a78.29,78.29,0,0,1-4.57-13.58,80.53,80.53,0,0,1-2.06-14.25c-.27-4.91-.31-9.86-1.44-14.68A43.66,43.66,0,0,0,89.8,44.47,42.79,42.79,0,0,0,69.67,32.71a28.85,28.85,0,0,0-14.76-.19A26.38,26.38,0,0,0,44,38.93c-6.46,6.13-10.49,14.7-12.35,23.33a68.74,68.74,0,0,0,.16,28.1c2,9.82,6.07,19.25,10.43,28.21,3.72,7.62,8,14.92,11.43,22.68,3.5,7.94,6.38,16.3,7,25a51.71,51.71,0,0,1,.08,6,.76.76,0,0,0,1.49.21Z"/>
      <g>
        <path class="cls-5" d="M69,29.18a16.48,16.48,0,0,1,3-4.52c1.52-1.79,3.06-3.57,4.58-5.36,2.36-2.76,4.46-5.71,8.53-4.94,3.44.65,6.81,2.84,9.43,5.08s5.21,5.17,6.23,8.63-1.42,8.13-2.47,11.56c-2.43,7.87-8.26,8.21-11.19,8.7a14.78,14.78,0,0,1-9.71-1.87C71.85,43.3,66.44,35.82,69,29.18Z"/>
        <g>
          <path class="cls-6" d="M111.48,37.75c-3.38-5.41-9.48-10.62-16.59-10.4a6.89,6.89,0,0,0-4.43,1.51c-1.53,1.41-1.22,3.29-1.23,5.12a22.65,22.65,0,0,1-1.08,6.72c-.67,2.08-1.79,4-2.43,6.06-.08.25.16.4.38.36l.77,2.78a.89.89,0,0,0-.68.56c-1.61,3.46-.34,7,1.71,10.11s4.78,5.71,8.58,6.67c7.31,1.84,14.41-2.35,17.34-8.61C117,51.88,115.36,43.94,111.48,37.75Z"/>
          <path class="cls-6" d="M83.38,49.9l.77-2.78c.22,0,.46-.11.38-.36C84,45,83.05,43.35,82.41,41.59a22.45,22.45,0,0,1-1.33-6.2c-.12-1.69.34-3.65-.37-5.25a4.76,4.76,0,0,0-3.22-2.48c-3.09-.87-6.71.09-9.48,1.43a22.4,22.4,0,0,0-7.79,6.58c-4.45,5.76-6.86,13.75-4.67,20.73,2,6.51,8.18,11.8,15.72,11.23C75.71,67.29,79,65,81.54,61.69s4.33-7.35,2.52-11.23A.89.89,0,0,0,83.38,49.9Z"/>
        </g>
        <path class="cls-7" d="M93.85,49.87c-.29-1.63-1.4-3.35-3.22-3.4a3.56,3.56,0,0,0-2.23.74,5.86,5.86,0,0,0-.3-2.83c-.54-1.43-1.92-3-3.61-2.81s-2.1,2-2.14,3.47a12.25,12.25,0,0,0,.19,2.44,3.6,3.6,0,0,0-1.44-.64,2.3,2.3,0,0,0-2.74,1.78C77.49,52,80.47,55.67,83,57.4a.17.17,0,0,0,.21,0,12.73,12.73,0,0,0,4.55,9.19c.44.37,1.35.18,1.27-.52q-.45-4.17-1.25-8.28C91.37,56.89,94.55,53.85,93.85,49.87Z"/>
        <path class="cls-5" d="M78.67,59.48a20.78,20.78,0,0,0-2.66,2,16.82,16.82,0,0,1-3.09,1.82A20.44,20.44,0,0,1,65.57,65s-.06.06,0,.07a13.88,13.88,0,0,0,7.63-.5c2.21-.75,5.18-2.06,6.25-4.27A.57.57,0,0,0,78.67,59.48Z"/>
        <path class="cls-5" d="M77.15,56.23a41.7,41.7,0,0,0-6.34,3.09c-.12.06,0,.23.09.21a14.3,14.3,0,0,0,6.63-2.66C77.82,56.62,77.51,56.12,77.15,56.23Z"/>
        <path class="cls-5" d="M77,52.84a18.67,18.67,0,0,1-2.26.36,5.28,5.28,0,0,1-2.6-.7.34.34,0,0,0-.34.58c1.44.9,3.88,1.52,5.38.43C77.39,53.33,77.35,52.8,77,52.84Z"/>
        <path class="cls-5" d="M74.1,48.31a16.79,16.79,0,0,0-2.49-1.65,13.55,13.55,0,0,1-2.26-2A15.73,15.73,0,0,1,66,39a.22.22,0,0,0-.42.12,12.78,12.78,0,0,0,2.66,6.35c1.25,1.54,3.37,3.68,5.47,3.82A.6.6,0,0,0,74.1,48.31Z"/>
        <path class="cls-5" d="M76.9,45.18c-.34-.72-1.25-1.24-1.81-1.82a8.45,8.45,0,0,1-1.6-2.28c-.19-.37-.76-.1-.66.28a8.51,8.51,0,0,0,1.31,2.89A3.64,3.64,0,0,0,76.43,46,.55.55,0,0,0,76.9,45.18Z"/>
        <path class="cls-5" d="M101,33.91a.68.68,0,0,0-1.23-.16,12.47,12.47,0,0,0-.87,2.92,17.69,17.69,0,0,1-1.39,3.41,21.58,21.58,0,0,1-4.57,5.24c-.25.23,0,.74.35.6a12.68,12.68,0,0,0,5.5-4.86C100,39.28,101.74,36.13,101,33.91Z"/>
        <path class="cls-5" d="M106.37,50.91c-1.5-.57-3.37-.41-5-.68s-3.31-.62-5-.95a.3.3,0,0,0-.23.54,17.42,17.42,0,0,0,5,2c1.57.35,3.57.87,5.13.4A.66.66,0,0,0,106.37,50.91Z"/>
        <path class="cls-5" d="M101.8,60.13c-.75-.72-1.91-.84-2.81-1.33a22.71,22.71,0,0,1-2.72-1.88c-.31-.23-.6.2-.47.48a6.25,6.25,0,0,0,2.46,2.66c.91.55,2.27,1.28,3.34.84A.47.47,0,0,0,101.8,60.13Z"/>
        <path class="cls-5" d="M97.25,63.67a11,11,0,0,1-2.86-1.6,5.9,5.9,0,0,1-1.57-3c-.07-.4-.68-.29-.68.09a5.16,5.16,0,0,0,1.45,3.76,4.31,4.31,0,0,0,3.55,1.63A.46.46,0,0,0,97.25,63.67Z"/>
        <path class="cls-5" d="M82.68,50.81c-1.26.33-.53,2.31.72,1.69C84.33,52,83.69,50.54,82.68,50.81Z"/>
        <path class="cls-5" d="M84.94,54.66a.53.53,0,0,0-.32-.25,1.43,1.43,0,0,0-.41,0,.55.55,0,0,0-.56.56.54.54,0,0,0,.16.4.56.56,0,0,0,.4.17,1.9,1.9,0,0,0,.41,0,.56.56,0,0,0,.4-.53A.65.65,0,0,0,84.94,54.66Z"/>
        <path class="cls-5" d="M87.1,53.44a.51.51,0,0,0-.38-.16,1.12,1.12,0,0,0-.31,0l-.17.06a.75.75,0,0,0-.51.51.76.76,0,0,0,.19.72.73.73,0,0,0,1.23-.33l.06-.17a1,1,0,0,0,.05-.3A.55.55,0,0,0,87.1,53.44Z"/>
        <path class="cls-5" d="M89.5,50.61a.71.71,0,0,0,0,1.41A.71.71,0,0,0,89.5,50.61Z"/>
        <path class="cls-5" d="M85.33,50.24a.52.52,0,0,0,0,1A.52.52,0,0,0,85.33,50.24Z"/>
        <path class="cls-5" d="M85.33,47a.7.7,0,0,0,0,1.39A.7.7,0,0,0,85.33,47Z"/>
        <path class="cls-5" d="M88.67,52.94a.61.61,0,0,0,0,1.21A.61.61,0,0,0,88.67,52.94Z"/>
        <path class="cls-5" d="M82.2,50.2a1,1,0,0,0-.15-.19.76.76,0,0,0-.53-.21l-.37,0a.71.71,0,0,0,0,1.42l.37,0A.91.91,0,0,0,82,51a2.41,2.41,0,0,0,.21-.24A.53.53,0,0,0,82.2,50.2Z"/>
      </g>
      <g>
        <path class="cls-5" d="M88.55,65.52a12.09,12.09,0,0,1,1.75-3.59c.94-1.46,1.87-2.92,2.81-4.37,1.44-2.25,2.68-4.61,5.72-4.45a15.92,15.92,0,0,1,7.38,2.77,13.94,13.94,0,0,1,5.4,5.66c1.13,2.51-.22,6.07-.65,8.67-1,6-5.2,6.81-7.29,7.46a10.91,10.91,0,0,1-7.26-.39C92,75.53,87.34,70.62,88.55,65.52Z"/>
        <g>
          <path class="cls-8" d="M120.36,67.54c-3-3.61-8-6.8-13.13-5.93a5.09,5.09,0,0,0-3.08,1.54c-1,1.17-.56,2.52-.39,3.85a16.44,16.44,0,0,1-.11,5c-.28,1.59-.91,3.09-1.17,4.67,0,.18.16.27.31.22l.84,2a.65.65,0,0,0-.44.47c-.82,2.68.46,5.17,2.26,7.2a11,11,0,0,0,6.91,4,11.25,11.25,0,0,0,11.78-8C125.77,77.28,123.8,71.66,120.36,67.54Z"/>
          <path class="cls-8" d="M101.09,79.19l.29-2.11c.16,0,.32-.12.24-.29-.58-1.25-1.42-2.35-2.07-3.56A16.48,16.48,0,0,1,98,68.84c-.26-1.22-.12-2.69-.79-3.79a3.52,3.52,0,0,0-2.6-1.48c-2.34-.33-4.88.73-6.76,2a16.57,16.57,0,0,0-5,5.58c-2.67,4.64-3.63,10.7-1.33,15.56,2.13,4.55,7.13,7.79,12.57,6.62A10.26,10.26,0,0,0,100.92,88c1.5-2.61,2.42-5.78.72-8.44A.65.65,0,0,0,101.09,79.19Z"/>
        </g>
        <path class="cls-7" d="M108.72,78.12A2.75,2.75,0,0,0,106,76a2.62,2.62,0,0,0-1.55.75,4.35,4.35,0,0,0-.5-2c-.54-1-1.7-2-2.91-1.68s-1.33,1.7-1.21,2.74a7.79,7.79,0,0,0,.38,1.75,2.73,2.73,0,0,0-1.11-.32,1.7,1.7,0,0,0-1.83,1.57c-.3,2.52,2.24,4.93,4.26,5.94a.14.14,0,0,0,.16,0A9.36,9.36,0,0,0,106,90.9c.35.22,1,0,.87-.51q-.73-3-1.73-5.91C107.61,83.49,109.62,81,108.72,78.12Z"/>
        <path class="cls-5" d="M98.61,86.64a15,15,0,0,0-1.74,1.74A11.26,11.26,0,0,1,94.8,90a14.86,14.86,0,0,1-5.19,1.92s0,0,0,0a10.22,10.22,0,0,0,5.51-1.12c1.53-.77,3.57-2,4.13-3.74A.42.42,0,0,0,98.61,86.64Z"/>
        <path class="cls-5" d="M97.18,84.42a30.24,30.24,0,0,0-4.31,2.88c-.09.06,0,.18.08.15a10.54,10.54,0,0,0,4.57-2.6C97.71,84.64,97.43,84.3,97.18,84.42Z"/>
        <path class="cls-5" d="M96.7,82a12.94,12.94,0,0,1-1.61.48,3.9,3.9,0,0,1-2-.24.24.24,0,0,0-.19.45c1.14.51,3,.72,4-.22C97.06,82.28,97,81.9,96.7,82Z"/>
        <path class="cls-5" d="M94.16,79a11.54,11.54,0,0,0-2-1,10,10,0,0,1-1.85-1.25,11.55,11.55,0,0,1-3-3.75.16.16,0,0,0-.3.13,9.48,9.48,0,0,0,2.58,4.36c1.06,1,2.82,2.35,4.36,2.24A.44.44,0,0,0,94.16,79Z"/>
        <path class="cls-5" d="M95.9,76.4c-.33-.5-1-.79-1.51-1.15A6.83,6.83,0,0,1,93,73.75c-.17-.26-.56,0-.45.27a6.25,6.25,0,0,0,1.24,2,2.64,2.64,0,0,0,1.85,1C96,77,96,76.63,95.9,76.4Z"/>
        <path class="cls-5" d="M112.33,65.78a.5.5,0,0,0-.91,0,9,9,0,0,0-.35,2.21,12.45,12.45,0,0,1-.67,2.62,16,16,0,0,1-2.81,4.28c-.16.19.08.54.31.4a9.31,9.31,0,0,0,3.53-4.09C112.14,69.79,113.09,67.33,112.33,65.78Z"/>
        <path class="cls-5" d="M118,77.63a20.67,20.67,0,0,0-3.69,0c-1.23,0-2.47-.12-3.7-.2a.22.22,0,0,0-.11.42,13,13,0,0,0,3.84.93,8,8,0,0,0,3.78-.22A.49.49,0,0,0,118,77.63Z"/>
        <path class="cls-5" d="M115.53,84.81a8.67,8.67,0,0,0-2.18-.69,18.41,18.41,0,0,1-2.17-1.1c-.24-.14-.41.21-.29.39a4.54,4.54,0,0,0,2,1.7,3,3,0,0,0,2.52.28A.34.34,0,0,0,115.53,84.81Z"/>
        <path class="cls-5" d="M112.57,87.84a7.86,7.86,0,0,1-2.24-.88,4.27,4.27,0,0,1-1.45-2.07c-.09-.28-.53-.14-.49.14a3.77,3.77,0,0,0,1.43,2.59,3.18,3.18,0,0,0,2.75.83A.33.33,0,0,0,112.57,87.84Z"/>
        <path class="cls-5" d="M100.67,79.92c-.88.37-.16,1.74.69,1.16C102,80.65,101.38,79.62,100.67,79.92Z"/>
        <path class="cls-5" d="M102.7,82.5a.35.35,0,0,0-.26-.15,1,1,0,0,0-.3,0,.42.42,0,0,0-.27.16.39.39,0,0,0-.08.31.35.35,0,0,0,.16.27.41.41,0,0,0,.3.08.88.88,0,0,0,.29-.06.41.41,0,0,0,.19-.18.36.36,0,0,0,0-.25A.46.46,0,0,0,102.7,82.5Z"/>
        <path class="cls-5" d="M104.15,81.39a.38.38,0,0,0-.29-.07,1.8,1.8,0,0,0-.22.06l-.12.07a.43.43,0,0,0-.21.17.52.52,0,0,0,.1.75.55.55,0,0,0,.54.07.62.62,0,0,0,.22-.17.59.59,0,0,0,.1-.26l0-.13a.81.81,0,0,0,0-.22A.47.47,0,0,0,104.15,81.39Z"/>
        <path class="cls-5" d="M105.62,79.09a.52.52,0,0,0,.14,1A.52.52,0,0,0,105.62,79.09Z"/>
        <path class="cls-5" d="M102.54,79.24a.38.38,0,0,0,.1.75A.38.38,0,0,0,102.54,79.24Z"/>
        <path class="cls-5" d="M102.22,76.88a.51.51,0,0,0,.14,1A.51.51,0,0,0,102.22,76.88Z"/>
        <path class="cls-5" d="M105.24,80.87a.44.44,0,0,0,.12.88A.44.44,0,0,0,105.24,80.87Z"/>
        <path class="cls-5" d="M100.26,79.52a.74.74,0,0,0-.13-.12.59.59,0,0,0-.41-.1l-.27,0a.52.52,0,0,0-.44.58.53.53,0,0,0,.58.45l.27-.06a.52.52,0,0,0,.32-.16.8.8,0,0,0,.13-.19A.4.4,0,0,0,100.26,79.52Z"/>
      </g>
      <g>
        <path class="cls-5" d="M40.84,20.42a11.91,11.91,0,0,1,1.75-3.6l2.8-4.37c1.45-2.24,2.68-4.6,5.72-4.44a16,16,0,0,1,7.39,2.76,14,14,0,0,1,5.4,5.67c1.13,2.51-.23,6.06-.66,8.67-1,6-5.19,6.81-7.29,7.45a10.85,10.85,0,0,1-7.26-.39C44.32,30.42,39.62,25.51,40.84,20.42Z"/>
        <g>
          <path class="cls-9" d="M72.64,22.43c-3-3.6-8-6.8-13.12-5.92A5.08,5.08,0,0,0,56.44,18c-1,1.18-.57,2.53-.39,3.86a16.44,16.44,0,0,1-.12,5c-.28,1.58-.9,3.08-1.17,4.67,0,.18.16.27.32.21l.84,2a.65.65,0,0,0-.45.47c-.82,2.68.46,5.17,2.26,7.2a11,11,0,0,0,6.91,4,11.25,11.25,0,0,0,11.79-8C78.06,32.18,76.08,26.56,72.64,22.43Z"/>
          <path class="cls-9" d="M53.37,34.08l.29-2.1a.22.22,0,0,0,.24-.3c-.58-1.24-1.42-2.34-2.06-3.56a16.79,16.79,0,0,1-1.59-4.38c-.25-1.23-.11-2.69-.79-3.79a3.56,3.56,0,0,0-2.6-1.49,10.4,10.4,0,0,0-6.76,2,16.51,16.51,0,0,0-5,5.57c-2.67,4.64-3.63,10.7-1.34,15.57,2.14,4.54,7.14,7.79,12.58,6.62a10.29,10.29,0,0,0,6.89-5.35c1.49-2.62,2.42-5.79.72-8.44A.67.67,0,0,0,53.37,34.08Z"/>
        </g>
        <path class="cls-7" d="M61,33a2.74,2.74,0,0,0-2.69-2.16,2.57,2.57,0,0,0-1.54.76,4.36,4.36,0,0,0-.51-2c-.54-1-1.7-2-2.9-1.69S52,29.6,52.14,30.65a9.07,9.07,0,0,0,.38,1.75,2.73,2.73,0,0,0-1.11-.32,1.69,1.69,0,0,0-1.82,1.57c-.3,2.52,2.24,4.93,4.26,5.93a.12.12,0,0,0,.15,0,9.33,9.33,0,0,0,4.24,6.24c.35.23,1,0,.87-.5q-.75-3-1.74-5.91C59.89,38.38,61.91,35.85,61,33Z"/>
        <path class="cls-5" d="M50.89,41.53a16.71,16.71,0,0,0-1.73,1.74,12,12,0,0,1-2.07,1.64,15.09,15.09,0,0,1-5.2,1.91s0,.06,0,.06a10.19,10.19,0,0,0,5.52-1.13c1.53-.77,3.56-2,4.13-3.73A.43.43,0,0,0,50.89,41.53Z"/>
        <path class="cls-5" d="M49.47,39.31a31,31,0,0,0-4.32,2.89c-.08.06,0,.17.09.14a10.49,10.49,0,0,0,4.56-2.59A.29.29,0,0,0,49.47,39.31Z"/>
        <path class="cls-5" d="M49,36.87a14.9,14.9,0,0,1-1.61.48,3.9,3.9,0,0,1-2-.25.25.25,0,0,0-.19.46c1.14.51,3,.72,4-.22C49.35,37.18,49.27,36.8,49,36.87Z"/>
        <path class="cls-5" d="M46.45,33.85a12.38,12.38,0,0,0-2-1,9.65,9.65,0,0,1-1.85-1.24,11.43,11.43,0,0,1-3-3.75.16.16,0,0,0-.3.12,9.49,9.49,0,0,0,2.57,4.37c1.07,1,2.82,2.34,4.36,2.23A.44.44,0,0,0,46.45,33.85Z"/>
        <path class="cls-5" d="M48.18,31.29c-.32-.49-1-.78-1.5-1.14a6.24,6.24,0,0,1-1.39-1.51c-.18-.25-.57,0-.46.27a6.39,6.39,0,0,0,1.25,2,2.66,2.66,0,0,0,1.84,1A.4.4,0,0,0,48.18,31.29Z"/>
        <path class="cls-5" d="M64.61,20.68a.49.49,0,0,0-.9,0,8.64,8.64,0,0,0-.35,2.21,13.18,13.18,0,0,1-.67,2.63,15.76,15.76,0,0,1-2.82,4.27c-.15.2.09.54.32.41a9.36,9.36,0,0,0,3.53-4.09C64.42,24.69,65.38,22.22,64.61,20.68Z"/>
        <path class="cls-5" d="M70.23,32.53a19.66,19.66,0,0,0-3.68,0c-1.24,0-2.48-.11-3.71-.19a.21.21,0,0,0-.11.41,12.83,12.83,0,0,0,3.85.93,8,8,0,0,0,3.78-.22A.49.49,0,0,0,70.23,32.53Z"/>
        <path class="cls-5" d="M67.82,39.7A9.39,9.39,0,0,0,65.64,39a14.73,14.73,0,0,1-2.17-1.1c-.25-.14-.42.21-.3.4A4.61,4.61,0,0,0,65.23,40a3.06,3.06,0,0,0,2.51.29A.35.35,0,0,0,67.82,39.7Z"/>
        <path class="cls-5" d="M64.85,42.74a7.71,7.71,0,0,1-2.24-.89,4.26,4.26,0,0,1-1.45-2.06c-.09-.28-.52-.14-.49.13a3.85,3.85,0,0,0,1.44,2.6,3.2,3.2,0,0,0,2.75.83A.34.34,0,0,0,64.85,42.74Z"/>
        <path class="cls-5" d="M53,34.81c-.89.37-.16,1.74.68,1.17C54.28,35.54,53.66,34.52,53,34.81Z"/>
        <path class="cls-5" d="M55,37.39a.46.46,0,0,0-.27-.15,1.42,1.42,0,0,0-.29,0,.39.39,0,0,0-.28.16.41.41,0,0,0-.08.3.42.42,0,0,0,.16.28.43.43,0,0,0,.31.08,1.53,1.53,0,0,0,.29-.07.44.44,0,0,0,.19-.17.43.43,0,0,0,0-.25A.5.5,0,0,0,55,37.39Z"/>
        <path class="cls-5" d="M56.44,36.29a.41.41,0,0,0-.3-.08.74.74,0,0,0-.21.07l-.12.06a.62.62,0,0,0-.22.17.49.49,0,0,0-.1.26.52.52,0,0,0,.21.5.53.53,0,0,0,.53.06.46.46,0,0,0,.22-.17.57.57,0,0,0,.11-.25l0-.13a1.76,1.76,0,0,0,0-.23A.39.39,0,0,0,56.44,36.29Z"/>
        <path class="cls-5" d="M57.9,34a.52.52,0,0,0,.15,1A.52.52,0,0,0,57.9,34Z"/>
        <path class="cls-5" d="M54.83,34.14a.38.38,0,0,0,.1.75A.38.38,0,0,0,54.83,34.14Z"/>
        <path class="cls-5" d="M54.5,31.78a.51.51,0,0,0,.14,1A.51.51,0,0,0,54.5,31.78Z"/>
        <path class="cls-5" d="M57.53,35.77a.44.44,0,0,0,.12.88A.44.44,0,0,0,57.53,35.77Z"/>
        <path class="cls-5" d="M52.54,34.42l-.12-.13a.6.6,0,0,0-.41-.1l-.27,0a.52.52,0,1,0,.14,1l.26-.05a.64.64,0,0,0,.33-.16,1.37,1.37,0,0,0,.13-.2A.41.41,0,0,0,52.54,34.42Z"/>
      </g>
      <g>
        <path class="cls-5" d="M104,88.38A10.1,10.1,0,0,1,106.34,86l3.37-2.75c1.74-1.41,3.34-3,5.72-2a13.5,13.5,0,0,1,5.17,4.13,11.84,11.84,0,0,1,2.83,5.93c.24,2.29-1.77,4.77-2.79,6.74-2.34,4.51-5.92,4.07-7.75,4a9.09,9.09,0,0,1-5.69-2.2C104.16,97.27,101.7,92.13,104,88.38Z"/>
        <g>
          <path class="cls-6" d="M128.84,98.29c-1.46-3.66-4.58-7.5-8.92-8.15a4.32,4.32,0,0,0-2.86.42c-1.08.69-1.11,1.87-1.32,3a13.68,13.68,0,0,1-1.39,3.95c-.64,1.19-1.53,2.22-2.15,3.42-.08.14,0,.26.19.25l.16,1.78a.55.55,0,0,0-.48.26c-1.35,1.92-1,4.24-.07,6.33a9.25,9.25,0,0,0,4.46,5,9.44,9.44,0,0,0,11.48-3.3C130.61,107.47,130.5,102.48,128.84,98.29Z"/>
          <path class="cls-6" d="M110.43,102.55l.78-1.6c.12,0,.29,0,.27-.17-.14-1.15-.52-2.24-.72-3.38a13.86,13.86,0,0,1-.12-3.91c.12-1,.61-2.18.36-3.23a3,3,0,0,0-1.68-1.86,8.7,8.7,0,0,0-5.91-.18A13.66,13.66,0,0,0,98,91.35c-3.35,3-5.69,7.58-5.13,12.06a9.59,9.59,0,0,0,8.3,8.56,8.61,8.61,0,0,0,6.89-2.46c1.87-1.7,3.44-4,2.77-6.55A.55.55,0,0,0,110.43,102.55Z"/>
        </g>
        <path class="cls-7" d="M116.79,103.69a2.3,2.3,0,0,0-1.58-2.42,2.16,2.16,0,0,0-1.43.2,3.67,3.67,0,0,0,.13-1.75c-.17-.93-.84-2-1.88-2.1s-1.5,1-1.69,1.87a7.63,7.63,0,0,0-.15,1.5,2.21,2.21,0,0,0-.8-.55,1.42,1.42,0,0,0-1.86.78c-.9,1.93.5,4.51,1.84,5.84a.09.09,0,0,0,.13,0,7.86,7.86,0,0,0,1.75,6.09c.22.27.8.26.83-.18.12-1.72.18-3.44.16-5.16C114.51,107.68,116.78,106.18,116.79,103.69Z"/>
        <path class="cls-5" d="M106.51,107.85a12.69,12.69,0,0,0-1.84.93,10.18,10.18,0,0,1-2.08.77,12.7,12.7,0,0,1-4.64.16s0,0,0,.05a8.67,8.67,0,0,0,4.7.54c1.42-.21,3.36-.68,4.26-1.9A.35.35,0,0,0,106.51,107.85Z"/>
        <path class="cls-5" d="M106,105.7a25.59,25.59,0,0,0-4.19,1.18c-.09,0-.05.14,0,.14a8.92,8.92,0,0,0,4.32-.88A.25.25,0,0,0,106,105.7Z"/>
        <path class="cls-5" d="M106.2,103.63a13.35,13.35,0,0,1-1.41,0,3.26,3.26,0,0,1-1.5-.71.21.21,0,0,0-.27.31,3.24,3.24,0,0,0,3.22.86C106.41,104,106.45,103.64,106.2,103.63Z"/>
        <path class="cls-5" d="M105,100.56a10.66,10.66,0,0,0-1.32-1.28,8.2,8.2,0,0,1-1.15-1.47A9.68,9.68,0,0,1,101.07,94a.14.14,0,0,0-.27,0,7.89,7.89,0,0,0,.91,4.15c.59,1.08,1.64,2.61,2.89,2.92A.37.37,0,0,0,105,100.56Z"/>
        <path class="cls-5" d="M107,99c-.13-.48-.62-.89-.9-1.3a5.73,5.73,0,0,1-.72-1.57c-.07-.24-.45-.15-.43.1a5.22,5.22,0,0,0,.48,1.9c.24.52.61,1.16,1.19,1.31C106.91,99.48,107.08,99.19,107,99Z"/>
        <path class="cls-5" d="M122.89,94.79a.42.42,0,0,0-.72-.23,7.6,7.6,0,0,0-.86,1.68,10.66,10.66,0,0,1-1.22,1.91,13.23,13.23,0,0,1-3.36,2.68c-.17.11-.07.45.15.4a7.81,7.81,0,0,0,3.88-2.34C121.69,97.94,123.1,96.23,122.89,94.79Z"/>
        <path class="cls-5" d="M124.28,105.71a16.86,16.86,0,0,0-2.94-1c-1-.36-1.94-.74-2.9-1.13-.18-.07-.36.17-.2.3a10.62,10.62,0,0,0,2.83,1.75,6.58,6.58,0,0,0,3.07.81A.41.41,0,0,0,124.28,105.71Z"/>
        <path class="cls-5" d="M120.48,110.8c-.37-.51-1.07-.72-1.56-1.11a14.08,14.08,0,0,1-1.44-1.45c-.16-.17-.39.06-.34.24a3.85,3.85,0,0,0,1.2,1.89c.49.43,1.23,1,1.93.88A.29.29,0,0,0,120.48,110.8Z"/>
        <path class="cls-5" d="M117.32,112.45a6.57,6.57,0,0,1-1.55-1.29,3.57,3.57,0,0,1-.62-2c0-.24-.38-.25-.42,0a3.26,3.26,0,0,0,.46,2.45,2.7,2.7,0,0,0,2,1.38A.28.28,0,0,0,117.32,112.45Z"/>
        <path class="cls-5" d="M109.91,103a.57.57,0,1,0,.24,1.11A.57.57,0,0,0,109.91,103Z"/>
        <path class="cls-5" d="M110.85,105.61a.32.32,0,0,0-.17-.19.94.94,0,0,0-.24-.06.34.34,0,0,0-.26,0,.35.35,0,0,0-.14.23.34.34,0,0,0,0,.26.35.35,0,0,0,.23.14,1.06,1.06,0,0,0,.25,0,.29.29,0,0,0,.19-.08.37.37,0,0,0,.11-.19A.37.37,0,0,0,110.85,105.61Z"/>
        <path class="cls-5" d="M112.3,105.11a.37.37,0,0,0-.22-.14,1.21,1.21,0,0,0-.19,0l-.11,0a.39.39,0,0,0-.21.08.35.35,0,0,0-.15.17.47.47,0,0,0,0,.46.46.46,0,0,0,.41.19.42.42,0,0,0,.22-.08.35.35,0,0,0,.15-.17l.06-.1a1,1,0,0,0,.06-.18A.37.37,0,0,0,112.3,105.11Z"/>
        <path class="cls-5" d="M114.07,103.66a.44.44,0,0,0-.16.86A.44.44,0,0,0,114.07,103.66Z"/>
        <path class="cls-5" d="M111.57,103a.31.31,0,0,0-.11.62A.31.31,0,0,0,111.57,103Z"/>
        <path class="cls-5" d="M111.93,101a.43.43,0,0,0-.15.84A.43.43,0,0,0,111.93,101Z"/>
        <path class="cls-5" d="M113.3,105a.38.38,0,0,0-.13.74A.38.38,0,0,0,113.3,105Z"/>
        <path class="cls-5" d="M109.68,102.6a.83.83,0,0,0-.07-.13.51.51,0,0,0-.3-.19l-.22,0a.44.44,0,1,0-.15.86l.22,0a.51.51,0,0,0,.3,0,1,1,0,0,0,.16-.12A.34.34,0,0,0,109.68,102.6Z"/>
      </g>
      <g>
        <path class="cls-5" d="M109.57,113.29a6.3,6.3,0,0,1,1.46-1.5l2.1-1.71c1.08-.88,2.07-1.85,3.55-1.28a8.42,8.42,0,0,1,3.22,2.58,7.35,7.35,0,0,1,1.76,3.68c.15,1.43-1.1,3-1.74,4.2-1.45,2.8-3.68,2.53-4.82,2.51a5.7,5.7,0,0,1-3.54-1.37C109.67,118.82,108.14,115.62,109.57,113.29Z"/>
        <g>
          <path class="cls-6" d="M125,119.46c-.9-2.28-2.85-4.67-5.55-5.07a2.63,2.63,0,0,0-1.77.26c-.68.42-.69,1.16-.82,1.85A8.7,8.7,0,0,1,116,119c-.4.74-1,1.38-1.34,2.12a.12.12,0,0,0,.12.16l.1,1.11a.34.34,0,0,0-.3.16,3.93,3.93,0,0,0,0,3.94,5.74,5.74,0,0,0,2.77,3.11,5.89,5.89,0,0,0,7.15-2.06A8.49,8.49,0,0,0,125,119.46Z"/>
          <path class="cls-6" d="M113.57,122.11l.49-1c.08,0,.18,0,.16-.11-.08-.71-.32-1.39-.44-2.1a8.61,8.61,0,0,1-.08-2.43,6.25,6.25,0,0,0,.23-2,1.83,1.83,0,0,0-1.05-1.16,5.41,5.41,0,0,0-3.68-.11,8.52,8.52,0,0,0-3.39,2,9.06,9.06,0,0,0-3.2,7.5,6,6,0,0,0,5.17,5.33,5.33,5.33,0,0,0,4.28-1.54c1.17-1.05,2.15-2.47,1.73-4.07A.32.32,0,0,0,113.57,122.11Z"/>
        </g>
        <path class="cls-7" d="M117.53,122.82a1.44,1.44,0,0,0-1-1.51,1.28,1.28,0,0,0-.89.13,2.35,2.35,0,0,0,.07-1.09c-.1-.58-.51-1.27-1.16-1.31s-.94.63-1,1.16a4.33,4.33,0,0,0-.1.93,1.58,1.58,0,0,0-.5-.34.88.88,0,0,0-1.15.49c-.56,1.2.31,2.81,1.14,3.63,0,0,.06,0,.09,0a4.83,4.83,0,0,0,1.08,3.78c.14.17.5.16.52-.11.08-1.07.11-2.14.1-3.21A2.77,2.77,0,0,0,117.53,122.82Z"/>
        <path class="cls-5" d="M111.13,125.4A8.14,8.14,0,0,0,110,126a6.08,6.08,0,0,1-1.29.48,8,8,0,0,1-2.89.1s0,0,0,0a5.39,5.39,0,0,0,2.92.34,4.17,4.17,0,0,0,2.65-1.19A.22.22,0,0,0,111.13,125.4Z"/>
        <path class="cls-5" d="M110.78,124.07a15,15,0,0,0-2.6.73c-.05,0,0,.08,0,.08a5.49,5.49,0,0,0,2.68-.54A.15.15,0,0,0,110.78,124.07Z"/>
        <path class="cls-5" d="M110.94,122.77a6.32,6.32,0,0,1-.87,0,1.9,1.9,0,0,1-.94-.44.13.13,0,0,0-.17.2,2,2,0,0,0,2,.53C111.07,123,111.09,122.78,110.94,122.77Z"/>
        <path class="cls-5" d="M110.18,120.86a6.91,6.91,0,0,0-.83-.79,4.91,4.91,0,0,1-.71-.92,6,6,0,0,1-.89-2.35.09.09,0,0,0-.17,0,4.84,4.84,0,0,0,.57,2.58c.36.67,1,1.62,1.8,1.82C110.14,121.27,110.28,121,110.18,120.86Z"/>
        <path class="cls-5" d="M111.45,119.88c-.08-.3-.39-.56-.56-.81a3.56,3.56,0,0,1-.45-1c0-.16-.27-.1-.26.05a3.46,3.46,0,0,0,.29,1.19c.16.32.39.72.75.81C111.38,120.2,111.49,120,111.45,119.88Z"/>
        <path class="cls-5" d="M121.32,117.28a.26.26,0,0,0-.45-.14,4.63,4.63,0,0,0-.53,1,7.06,7.06,0,0,1-.76,1.19,8.23,8.23,0,0,1-2.09,1.66c-.11.08,0,.28.09.26a4.9,4.9,0,0,0,2.42-1.46C120.58,119.24,121.45,118.17,121.32,117.28Z"/>
        <path class="cls-5" d="M122.19,124.07a10.32,10.32,0,0,0-1.83-.6c-.61-.22-1.21-.46-1.8-.7-.12,0-.23.1-.13.19a6.81,6.81,0,0,0,1.76,1.09,4.18,4.18,0,0,0,1.91.5A.26.26,0,0,0,122.19,124.07Z"/>
        <path class="cls-5" d="M119.82,127.24c-.23-.32-.66-.45-1-.7a8.41,8.41,0,0,1-.9-.89c-.1-.11-.24,0-.21.14a2.34,2.34,0,0,0,.74,1.18c.31.27.77.64,1.2.55C119.82,127.49,119.91,127.36,119.82,127.24Z"/>
        <path class="cls-5" d="M117.86,128.26a4.1,4.1,0,0,1-1-.8,2.25,2.25,0,0,1-.38-1.26c0-.15-.24-.16-.27,0a2,2,0,0,0,.3,1.52,1.66,1.66,0,0,0,1.22.86A.18.18,0,0,0,117.86,128.26Z"/>
        <path class="cls-5" d="M113.25,122.4a.35.35,0,1,0,.15.69C113.79,123,113.64,122.37,113.25,122.4Z"/>
        <path class="cls-5" d="M113.84,124a.32.32,0,0,0-.11-.12l-.15,0a.23.23,0,0,0-.16,0,.17.17,0,0,0-.09.14.23.23,0,0,0,0,.16.26.26,0,0,0,.14.09.86.86,0,0,0,.16,0,.21.21,0,0,0,.12-.05.17.17,0,0,0,.06-.12A.21.21,0,0,0,113.84,124Z"/>
        <path class="cls-5" d="M114.73,123.7a.24.24,0,0,0-.13-.09.48.48,0,0,0-.12,0h-.07a.29.29,0,0,0-.13,0,.31.31,0,0,0-.09.11.26.26,0,0,0,0,.28.25.25,0,0,0,.25.12.24.24,0,0,0,.14-.05.2.2,0,0,0,.09-.11l0,0a.56.56,0,0,0,0-.12A.21.21,0,0,0,114.73,123.7Z"/>
        <path class="cls-5" d="M115.84,122.8a.27.27,0,0,0-.1.53A.27.27,0,0,0,115.84,122.8Z"/>
        <path class="cls-5" d="M114.28,122.37a.2.2,0,0,0-.07.39A.2.2,0,0,0,114.28,122.37Z"/>
        <path class="cls-5" d="M114.51,121.15a.26.26,0,0,0-.1.52A.26.26,0,0,0,114.51,121.15Z"/>
        <path class="cls-5" d="M115.36,123.62a.23.23,0,0,0-.08.45A.23.23,0,0,0,115.36,123.62Z"/>
        <path class="cls-5" d="M113.11,122.14a.56.56,0,0,0,0-.08.28.28,0,0,0-.18-.12l-.14,0a.27.27,0,0,0-.32.21.29.29,0,0,0,.22.32l.14,0a.4.4,0,0,0,.19,0,.39.39,0,0,0,.1-.08A.2.2,0,0,0,113.11,122.14Z"/>
      </g>
      <g>
        <path class="cls-3" d="M95,134.27c.76-6.32.92-12.69,1.79-19a.89.89,0,0,0-1.17-1c-10,2.39-17.26,10.38-22,19.11-5,9.28-7.25,19.77-12.53,28.88a34.61,34.61,0,0,1-5.87,7.77c-1.42.3-2.85.61-4.25,1-1,.28-.71,1.72.18,1.89l0,.13-.08,0c-.14.07-.12.35.07.3a9.36,9.36,0,0,0,2-.67,75.06,75.06,0,0,0,15-3.82,46.88,46.88,0,0,0,13.63-7.41,32.76,32.76,0,0,0,9.32-11.82A51.73,51.73,0,0,0,95,134.27Z"/>
        <path class="cls-4" d="M96.76,115.45a.81.81,0,0,0-.25-.75,44,44,0,0,0-7.05,11.35c-2.24,4.94-4.13,10-6.58,14.87a77.74,77.74,0,0,1-9.28,14.42c-3.84,4.7-8.39,8.57-12.8,12.7-1.48,1.39-2.87,2.82-4.19,4.31a81.06,81.06,0,0,0,11.5-3.23,46.88,46.88,0,0,0,13.63-7.41,32.76,32.76,0,0,0,9.32-11.82A51.81,51.81,0,0,0,95,134.45C95.73,128.13,95.89,121.76,96.76,115.45Z"/>
      </g>
      <path class="cls-3" d="M45.63,171.15c-1.22-1-15.5-9.33-20.31-11.41A60,60,0,0,0,9.1,155.41c-1.25-.16-1.42,1.58-.59,2.16,5.51,3.81,11.13,7.55,17.36,10.06s12.82,2.65,19.11,4.64C45.58,172.46,46.16,171.57,45.63,171.15Z"/>
      <path class="cls-3" d="M91.67,130.51c-1.15,6.34-2.31,12.56-6,18A39.1,39.1,0,0,1,80.07,155c-2.1,2-4.47,3.69-6.52,5.73a.84.84,0,0,0,1,1.31,29.88,29.88,0,0,0,7.22-5.64,38.08,38.08,0,0,0,5.52-7c3.55-5.78,4.32-12.27,4.58-18.91A.11.11,0,0,0,91.67,130.51Z"/>
      <path class="cls-3" d="M67.65,131.75c-.71-4-1.7-8-2.17-12.11s-.7-8-1-12a.09.09,0,0,0-.18,0,39.42,39.42,0,0,0-.7,12.31,42,42,0,0,0,2.58,12.26A.76.76,0,0,0,67.65,131.75Z"/>
      <path class="cls-3" d="M29.34,157.8c-1.68-1.73-4-2.7-5.82-4.31a23.91,23.91,0,0,1-4.24-5.16c-2.55-4.06-4.37-8.57-6.72-12.74a.11.11,0,0,0-.19.09,67.7,67.7,0,0,0,6,14,21.86,21.86,0,0,0,4.39,5.28,16.49,16.49,0,0,0,6.11,3.66A.48.48,0,0,0,29.34,157.8Z"/>
      <path class="cls-3" d="M41.83,164.22a38.84,38.84,0,0,1-5.13-2.44c-.3-.19-.58.28-.28.47a15.66,15.66,0,0,0,5.22,2.43C41.89,164.73,42.1,164.35,41.83,164.22Z"/>
      <path class="cls-3" d="M48.61,124.61c-1.84-4.09-3.56-8.23-5.48-12.28s-3.74-8.15-5.31-12.34a95.74,95.74,0,0,1-3.76-12.4A63.5,63.5,0,0,1,32.93,81c-.25-2.12-.23-4.28-.65-6.37,0-.07-.14-.07-.15,0A21.57,21.57,0,0,0,32,81q.26,3.23.82,6.41a76.66,76.66,0,0,0,3.56,12.95,128.58,128.58,0,0,0,5.23,12.26c2,4.17,4.44,8.1,6.82,12.07C48.5,124.83,48.66,124.72,48.61,124.61Z"/>
      <path class="cls-3" d="M60.62,154a73.87,73.87,0,0,0-4.22-12.78A68.83,68.83,0,0,0,50,128.91a.12.12,0,0,0-.2.12c1.88,4.12,4,8.14,5.73,12.31s3.3,8.44,4.87,12.68A.13.13,0,0,0,60.62,154Z"/>
      <path class="cls-3" d="M21.85,39.56A16.87,16.87,0,0,0,21,47.77c0,.24.39.16.4-.05.22-2.72.39-5.41.73-8.12C22.19,39.41,21.91,39.4,21.85,39.56Z"/>
      <path class="cls-10" d="M89.32,119.06c-3.86,1.42-7.15,4.84-9.66,8a50.88,50.88,0,0,0-6.47,11.19c-1.86,4.23-3.4,8.59-5.11,12.88A106.88,106.88,0,0,1,61.5,164.4s0,.08.06,0c3.26-3.19,5.55-7.24,7.67-11.25s4-8.28,6-12.42c1.88-3.87,3.88-7.58,6.13-11.25a43.44,43.44,0,0,1,3.67-5.16c1.42-1.71,3-3.17,4.52-4.82C89.78,119.35,89.61,119,89.32,119.06Z"/>
      <path class="cls-10" d="M62.81,100.38a48.23,48.23,0,0,0-9.71,19.29c-1.56,6.83-1.82,15,1.95,21.21a.49.49,0,0,0,.89-.37,69.74,69.74,0,0,1-1-10.19A47.55,47.55,0,0,1,56,120c1.51-6.69,4.23-13.12,7.07-19.35C63.18,100.43,63,100.2,62.81,100.38Z"/>
      <path class="cls-10" d="M27.21,164.49c-2.3-2.28-5.8-3.62-8.75-4.88-1.46-.63-2.91-1.28-4.41-1.81a16.44,16.44,0,0,0-4.6-1.25s0,0,0,0A19.2,19.2,0,0,0,13.25,159c1.46.84,3,1.58,4.48,2.36s2.87,1.44,4.29,2.17a17.84,17.84,0,0,0,4.65,1.87A.56.56,0,0,0,27.21,164.49Z"/>
      <path class="cls-10" d="M51.82,155.58c-.89-3.47-4.08-6.58-6.75-8.84a55.6,55.6,0,0,0-10.2-6.53c-7.7-4-15.35-7.7-22.13-13.21-.09-.07-.24,0-.17.12,4.8,6.71,12.82,10.35,19.85,14.2a84.86,84.86,0,0,1,10.25,6.34,49.79,49.79,0,0,1,4.58,3.74c1.48,1.41,2.69,3,4.22,4.38A.21.21,0,0,0,51.82,155.58Z"/>
      <path class="cls-10" d="M55.92,136.72a.07.07,0,0,0-.12.05c1.14,3.67,1.9,7.47,3.18,11.09.07.19.38.17.37-.05A26.18,26.18,0,0,0,55.92,136.72Z"/>
      <path class="cls-11" d="M99.51,105.41a2.65,2.65,0,0,0-1.22.87,1.49,1.49,0,0,0-.56,1.15.12.12,0,0,0,.15.08c.38-.12.6-.49.9-.74s.72-.5,1.07-.79S99.83,105.31,99.51,105.41Z"/>
      <g>
        <g>
          <path class="cls-12" d="M26.68,245.24H79.23a3.13,3.13,0,0,0,3.09-2.58l13.51-73.08a.5.5,0,0,0-.49-.58H11.86a.49.49,0,0,0-.49.57l12.34,73.16A3,3,0,0,0,26.68,245.24Z"/>
          <path class="cls-13" d="M81.75,169,70.64,228.28a15.16,15.16,0,0,1-12.78,12.21l-31.53,4.44a.16.16,0,0,0,0,.31H79.23a3.13,3.13,0,0,0,3.09-2.58l13.51-73.08a.5.5,0,0,0-.49-.58Z"/>
        </g>
        <path class="cls-14" d="M32.79,232.5c-.41-2.19-.83-4.38-1.24-6.57-.84-4.46-1.66-8.94-2.47-13.41q-2.43-13.41-4.86-26.82c-.45-2.44-1-4.87-1.66-7.26a31.31,31.31,0,0,0-1.43-3.74c-.4-1-.62-2-1.59-2.57a.76.76,0,0,0-.88.11,3,3,0,0,0-.72,2.1c-.11,1.24-.28,2.47-.31,3.71a44.26,44.26,0,0,0,.38,6.61c.59,4.7,1.25,9.4,1.9,14.1,1.25,9,2.82,18,4.34,27q.64,3.84,1.31,7.66l.69,4a5.82,5.82,0,0,0,2.35,4.19c1.44,1.07,3.57.18,4.43-1.17C34.48,238.11,33.26,235,32.79,232.5Z"/>
        <path class="cls-14" d="M35.57,213.64c-.49-4.62-1.34-9.21-2.1-13.79s-1.6-9.12-2.49-13.67c-.44-2.28-.93-4.51-1.58-6.75-.29-1-.59-2-.89-3.07a10.4,10.4,0,0,0-1.13-3.15.54.54,0,0,0-1,.13,10.44,10.44,0,0,0,0,3.3l.21,3.17c.15,2.29.43,4.53.76,6.81.66,4.6,1.31,9.2,2,13.8s1.21,9.22,2.05,13.78A38.62,38.62,0,0,0,33,220.93a62.92,62.92,0,0,1,2.07,6.59.34.34,0,0,0,.67-.09,69,69,0,0,1,.23-6.9A34.57,34.57,0,0,0,35.57,213.64Z"/>
        <path class="cls-12" d="M89.9,175.46c0-.29-.44-.47-.59-.16a31.73,31.73,0,0,0-2.24,7.29C86.49,185,86,187.5,85.43,190c-1.06,5.11-2.08,10.23-3.1,15.35s-2.06,10.24-3,15.38c-.47,2.47-1,5-1.42,7.43A34.09,34.09,0,0,0,77,236c0,.91,1.44,1.48,1.87.51,2.06-4.64,2.55-10,3.51-15,1-5.13,1.92-10.28,2.87-15.42s1.91-10.28,2.81-15.43c.44-2.5.85-5,1.23-7.49A33,33,0,0,0,89.9,175.46Z"/>
      </g>
    </g>
  </g>
</svg>
