<svg id="Layer_1" data-name="Layer 1" xmlns="http://www.w3.org/2000/svg" width="214.69" height="215.04" viewBox="0 0 214.69 215.04">
  <defs>
    <style>
      .cls-1 {
        opacity: 0.5;
      }

      .cls-2 {
        fill: #fff;
      }

      .cls-3 {
        fill: #f7f7f7;
      }

      .cls-3, .cls-4 {
        stroke: #44403e;
      }

      .cls-3, .cls-4, .cls-5 {
        stroke-miterlimit: 10;
      }

      .cls-4 {
        fill: #cdd1cf;
      }

      .cls-5 {
        fill: #f2f4f3;
        stroke: #878787;
      }

      .cls-6 {
        fill: #ff8f00;
      }

      .cls-7 {
        fill: #ff9d00;
      }

      .cls-8 {
        fill: #ffa600;
      }
    </style>
  </defs>
  <g>
    <path class="cls-1" d="M110.55,215a103.55,103.55,0,0,1-82.07-40A104.14,104.14,0,1,1,191.21,45a104.14,104.14,0,0,1-80.66,170Z"/>
    <path class="cls-2" d="M105.55,210a103.55,103.55,0,0,1-82.07-40A104.14,104.14,0,1,1,186.21,40a104.14,104.14,0,0,1-80.66,170Z"/>
    <g>
      <circle class="cls-1" cx="105.55" cy="105.9" r="96.14"/>
      <g>
        <circle class="cls-3" cx="104.14" cy="104.14" r="96.14"/>
        <circle class="cls-4" cx="104.14" cy="104.14" r="79.85"/>
        <circle class="cls-5" cx="104.14" cy="104.14" r="72.44"/>
      </g>
      <g>
        <g>
          <path class="cls-6" d="M93.76,139.92a65.9,65.9,0,0,0-13.42-1.71C72.41,138,63.43,140,62,139.31c-3.86-1.66-.93-4.94.7-5.82a56.54,56.54,0,0,1,16.83-2.24A99.18,99.18,0,0,1,97.72,134c3.62.38,7,2.29,8.12,5.8.14,3.11.34,4.9-1,7.8-1.46,2.83-4.18,6-8.22,5.64a17.84,17.84,0,0,1-13.26-8.79c-2.75-4.61-2.62-11.39,2.85-14.63,4.42-3.5,8.84-5.87,15.84-4.61,5.86.33,12.3,4.56,13.82,9.48,3.08,7.25.26,15.43-5,21.53-2.53,3.5-6.15,5.35-11.93,6-7-.66-13.66-2.2-19.46-5.23a16.76,16.76,0,0,1-7.92-15.9c.1-7.27,3-15.5,10.76-19.43A36.12,36.12,0,0,1,111.45,120a29.4,29.4,0,0,1,10.78,6.53c3.09,4,4.5,7.12,5.57,12.68-.58,9.85-3,15.13-5.55,19.63-2.29,4.67-8.19,11.57-14.16,13.41-8,2.55-14.15,1.92-21.29.91-8-1.27-17.15-6.91-20.38-10.94-4.18-4.64-7.72-11-7.51-15.9a44.06,44.06,0,0,1,1.79-13.65c2.38-7.74,7.6-15.91,15.49-20.8,8.1-4.48,17.55-4.72,26.55-3.21,6.25,1.31,12,2.26,15.21,7.24.36,5-5.42,3.43-7.86,2-8.3-2.28-18.37-3.8-26.44-1-5,1.76-12.06,8.34-13.63,12.88-2.34,5.52-3.73,11.23-2.59,17.8,1.85,5.64,4.84,8.9,9.66,12.71,6,3.69,14.25,5.46,20.28,5.87,7.94,0,11.79-2.32,14.32-5.69,7-7.49,10.26-18.44,5.93-27.5-1.78-4-7.68-8.27-12.75-8.76-7.86-1.6-16.59-.23-22.09,6.5-4.07,3.85-4.59,10.64-2.43,14.89,2.63,5.52,12,11.09,19.46,10.27,4.93-.78,8.79-5.72,10.17-9.56,1.67-3.33.25-8.21-2.93-11A15.28,15.28,0,0,0,96,132c-4.34.21-8.64,4.91-7.67,8.37.54,3.53,2.72,7.34,7.14,6.05C99.64,144.68,98.23,140.78,93.76,139.92Z"/>
          <path class="cls-7" d="M116.85,116.34c-4.2-2.79-15.35-5.88-22.43-5.54-7.26.34-9,.78-16.59,4.8C70,119.72,67,127.72,66.15,130s-6.75,14.54.94,25.77a34.06,34.06,0,0,0,10.15,8.55c7.78,4.44,19.4,6.85,28,4.31a24.91,24.91,0,0,0,9.4-6.24,33.44,33.44,0,0,0,7.16-12.51,23.19,23.19,0,0,0-4.43-22.2c-3-3.44-7-4.71-10.52-5.52-10-2.32-18.92-.26-24.78,6.9,0,0-.89,1.91-.63,2.24,0,.06.2.06.39.09s.3.14.44,0A28.33,28.33,0,0,1,86,127.64a21.77,21.77,0,0,1,13.83-3.92c7.16.49,12.58,2.17,16.55,7s3.78,12.62,2.18,18.06a31,31,0,0,1-10,14.67c-4.42,3.45-13,2.85-14.69,2.33s-7.64-.65-14.75-4.32S68.4,152.37,67.53,145a29.65,29.65,0,0,1,2.83-16.42c1.08-2.41,6.28-9,12.27-11.48s16.09-1.74,19.68-1.07,11.35,3.54,13,3.26S117.82,117,116.85,116.34Z"/>
          <path class="cls-7" d="M77.11,137.92S74.25,145.2,81.68,152s15.39,7.4,21.36,5.58c6.37-1.94,11.54-10.57,11.22-15.68-.35-5.56-5.31-9.39-8.31-10.63A27.87,27.87,0,0,0,97,129.08a10.33,10.33,0,0,0-5.34,1.48c-2.49,1.59-7.77,4.82-6,10.74s6.07,8.23,9,8.16c4.33-.12,6.49-4,6.08-6.34C101,140.9,96.46,136,89.2,137c0,0-2.83,1.6,2.88,2.54s6.29,3.16,5.78,4.65a4.19,4.19,0,0,1-4.22,2.45,6.23,6.23,0,0,1-4.88-4.25c-.79-2.49-.9-3.2-.6-4.55s2.63-4.32,5.87-5.32,10.29.06,14,3.78,3.13,8.84.62,12.82-6.28,6.62-11.23,6.64-12-3.57-14.07-6.21a22.35,22.35,0,0,1-3.61-5.78,10.83,10.83,0,0,1-.36-1.85,17.62,17.62,0,0,1-.22-2.45c0-.65.43-1.29-.15-1.4A4.26,4.26,0,0,0,77.11,137.92Z"/>
          <path class="cls-8" d="M99,111.83c4.69.9,14.15,3,15.87,4.34s.68,4-2.12,2.61c-3.17-1.53-14-4.42-19.78-4.13s-16.58,2.91-21.84,12.2c-1.34,2.38-2.21,4.84-2.78,5.38-2.42,2.28-2.62-.78-.94-3.86,2.56-4.72,7.52-10.25,9.1-11.23a52.33,52.33,0,0,1,8-3.91C87.29,112.25,90.68,111.06,99,111.83Z"/>
          <path class="cls-8" d="M66.85,139.1c0,1.53-3.19,11.72,8.15,20.25s21.85,7.79,23.88,7.63,1.88,1.71-4.12,1.74-19.14-3.11-25.18-10.94-6-15.37-5.42-16.87S66.91,138.24,66.85,139.1Z"/>
          <path class="cls-8" d="M117.47,131.28s5.21,6.95,1.36,17.71-6.89,14-5.19,12.73a25.68,25.68,0,0,0,7.72-12.48c1.51-6.12.52-13.45-1.71-17S116.2,128.67,117.47,131.28Z"/>
          <path class="cls-8" d="M84,127.22c0-.29,11-9.85,23.43-4,12.09,5.72,1.85,2-1.88.88s-10-1.67-14.92.66a45.69,45.69,0,0,0-5.9,3.16C83.45,128.86,83.13,128.34,84,127.22Z"/>
          <path class="cls-8" d="M79.05,140.5a11.85,11.85,0,0,0,.71,3.61c1.57,4.22,6.71,11.41,18.75,11.58,0,0,6.19.26,11-7.87,5.13-8.64-3.51-14-7-15s1-1.41,3.07-.54,7,4.32,7.71,8.16-2.16,9.33-4.58,11.33-4.23,5-10.06,5.22-9.9-.75-13.5-3.33-6.84-9-7.24-11.25c-.36-2,1.14-5.6,1.12-3.54C79,139.17,79.1,140.07,79.05,140.5Z"/>
          <path class="cls-8" d="M92.47,137.77s6,1.41,6.82,3.66-.18,4.49-1.89,6.13-6.61.87-8.42-1.75a11.3,11.3,0,0,1-2-5.79c-.05-.74,1-1,1.11.44A8.31,8.31,0,0,0,91.32,146c2,1.24,3,1.22,4.22.66s1.76-.9,2.22-2,.58-2.58-1.35-3.91A12.72,12.72,0,0,0,90.67,139C89.71,139,89.64,137.29,92.47,137.77Z"/>
        </g>
        <g>
          <path class="cls-6" d="M132.71,151.45a49.82,49.82,0,0,0-10.13-1.29c-6-.2-12.74,1.31-13.86.83-2.91-1.25-.7-3.73.54-4.39A42.57,42.57,0,0,1,122,144.91,73.89,73.89,0,0,1,135.69,147c2.73.28,5.28,1.72,6.13,4.37.1,2.35.25,3.7-.73,5.88s-3.16,4.54-6.2,4.26a13.45,13.45,0,0,1-10-6.63c-2.07-3.48-2-8.59,2.15-11,3.33-2.64,6.66-4.43,12-3.48,4.41.25,9.27,3.44,10.41,7.15,2.32,5.47.2,11.64-3.74,16.23-1.9,2.65-4.63,4-9,4.53A39.9,39.9,0,0,1,122,164.31a12.64,12.64,0,0,1-6-12c.08-5.48,2.27-11.68,8.11-14.65a27.27,27.27,0,0,1,21.92-1.26,22.35,22.35,0,0,1,8.13,4.92,19.76,19.76,0,0,1,4.2,9.57,31.31,31.31,0,0,1-4.18,14.8c-1.73,3.53-6.18,8.73-10.68,10.12-6,1.92-10.68,1.45-16.06.68-6-1-12.93-5.21-15.37-8.25-3.15-3.5-5.82-8.27-5.66-12A33.43,33.43,0,0,1,107.77,146a28.51,28.51,0,0,1,11.69-15.69c6.11-3.37,13.24-3.56,20-2.42,4.72,1,9.07,1.71,11.47,5.46.27,3.77-4.09,2.59-5.93,1.53-6.26-1.72-13.85-2.87-19.93-.76-3.77,1.33-9.1,6.29-10.28,9.71-1.77,4.17-2.82,8.47-2,13.43,1.39,4.25,3.65,6.71,7.29,9.58,4.49,2.78,10.74,4.12,15.29,4.43,6,0,8.89-1.75,10.8-4.29,5.24-5.65,7.74-13.91,4.47-20.74-1.34-3-5.79-6.24-9.61-6.61-5.93-1.2-12.51-.17-16.66,4.91-3.07,2.9-3.46,8-1.83,11.22,2,4.17,9.07,8.36,14.67,7.75,3.72-.59,6.63-4.32,7.67-7.21,1.26-2.51.19-6.19-2.21-8.28a11.5,11.5,0,0,0-8.36-2.47c-3.27.16-6.51,3.7-5.78,6.31.41,2.66,2.06,5.53,5.39,4.56C137.14,155,136.08,152.09,132.71,151.45Z"/>
          <path class="cls-7" d="M150.12,133.66c-3.17-2.1-11.57-4.43-16.92-4.17s-6.75.58-12.5,3.62-8.16,9.14-8.82,10.85-5.08,11,.72,19.43a25.75,25.75,0,0,0,7.65,6.46c5.87,3.34,14.63,5.16,21.1,3.24a18.82,18.82,0,0,0,7.09-4.7,25.23,25.23,0,0,0,5.4-9.44,17.5,17.5,0,0,0-3.34-16.74c-2.26-2.6-5.3-3.55-7.94-4.16-7.55-1.75-14.26-.2-18.68,5.2,0,0-.68,1.44-.48,1.69a.68.68,0,0,0,.3.07c.1,0,.22.11.33,0a21.59,21.59,0,0,1,2.84-2.82,16.42,16.42,0,0,1,10.43-3c5.4.37,9.49,1.64,12.49,5.29s2.84,9.52,1.64,13.62a23.41,23.41,0,0,1-7.51,11.06c-3.33,2.61-9.79,2.15-11.08,1.76s-5.76-.49-11.12-3.26-8.13-6.86-8.79-12.39a22.25,22.25,0,0,1,2.14-12.38,21.34,21.34,0,0,1,9.25-8.66c4.52-1.88,12.13-1.31,14.83-.81s8.57,2.67,9.82,2.46S150.85,134.18,150.12,133.66Z"/>
          <path class="cls-7" d="M120.15,149.94s-2.16,5.49,3.45,10.6,11.6,5.58,16.1,4.21c4.81-1.46,8.71-8,8.47-11.82-.26-4.2-4-7.08-6.27-8a20.93,20.93,0,0,0-6.73-1.64,7.75,7.75,0,0,0-4,1.12c-1.88,1.2-5.86,3.64-4.54,8.1s4.58,6.21,6.75,6.15a4.55,4.55,0,0,0,4.59-4.78c.2-1.67-3.21-5.35-8.68-4.63,0,0-2.13,1.2,2.17,1.92s4.75,2.38,4.36,3.5a3.14,3.14,0,0,1-3.18,1.85,4.7,4.7,0,0,1-3.68-3.2c-.6-1.88-.68-2.42-.46-3.44a7.16,7.16,0,0,1,4.43-4c2.44-.76,7.76,0,10.53,2.84s2.36,6.67.47,9.67a9.87,9.87,0,0,1-8.47,5c-3.74,0-9-2.69-10.61-4.68a17.15,17.15,0,0,1-2.73-4.36,10.55,10.55,0,0,1-.27-1.4,12.84,12.84,0,0,1-.16-1.84c0-.5.32-1-.12-1.07A3.26,3.26,0,0,0,120.15,149.94Z"/>
          <path class="cls-8" d="M136.66,130.26c3.54.69,10.67,2.26,12,3.28s.51,3-1.6,2c-2.39-1.16-10.55-3.34-14.91-3.12s-12.51,2.19-16.48,9.2c-1,1.79-1.67,3.65-2.09,4.06-1.83,1.72-2-.59-.72-2.92,1.94-3.55,5.68-7.72,6.87-8.46a40,40,0,0,1,6-3C127.83,130.58,130.39,129.69,136.66,130.26Z"/>
          <path class="cls-8" d="M112.42,150.83c0,1.15-2.41,8.84,6.14,15.27s16.48,5.88,18,5.76,1.42,1.29-3.11,1.3-14.43-2.34-19-8.24-4.52-11.6-4.09-12.73S112.46,150.18,112.42,150.83Z"/>
          <path class="cls-8" d="M150.59,144.93s3.93,5.24,1,13.36-5.2,10.53-3.92,9.6a19.3,19.3,0,0,0,5.82-9.41c1.14-4.62.4-10.15-1.28-12.81S149.63,143,150.59,144.93Z"/>
          <path class="cls-8" d="M125.37,141.87c0-.22,8.31-7.43,17.67-3,9.11,4.32,1.39,1.47-1.42.66s-7.58-1.25-11.26.5a35.06,35.06,0,0,0-4.45,2.38C124.94,143.1,124.69,142.72,125.37,141.87Z"/>
          <path class="cls-8" d="M121.62,151.89a8.72,8.72,0,0,0,.53,2.72c1.19,3.18,5.06,8.6,14.14,8.73,0,0,4.67.2,8.32-5.94,3.87-6.51-2.65-10.57-5.29-11.27s.77-1.07,2.31-.41,5.26,3.25,5.82,6.15-1.62,7-3.45,8.55-3.19,3.74-7.59,3.93-7.46-.56-10.18-2.51-5.16-6.77-5.46-8.48c-.27-1.52.86-4.23.84-2.67C121.61,150.88,121.65,151.56,121.62,151.89Z"/>
          <path class="cls-8" d="M131.73,149.83s4.5,1.06,5.15,2.76a4.31,4.31,0,0,1-1.43,4.62c-1.29,1.24-5,.66-6.35-1.32a8.53,8.53,0,0,1-1.54-4.36c0-.56.72-.77.83.33a6.22,6.22,0,0,0,2.48,4.18c1.53.94,2.24.92,3.18.5a2.56,2.56,0,0,0,1.68-1.49,2.24,2.24,0,0,0-1-3,9.65,9.65,0,0,0-4.33-1.3C129.66,150.74,129.6,149.46,131.73,149.83Z"/>
        </g>
        <g>
          <path class="cls-6" d="M77.58,54.9a50.59,50.59,0,0,0-4.07,9.35c-1.87,5.68-2.31,12.61-3.09,13.54-2,2.44-3.77-.37-4.06-1.74a42.42,42.42,0,0,1,1.93-12.66,75,75,0,0,1,5.83-12.61c1-2.55,3.14-4.58,5.92-4.66,2.28.56,3.62.79,5.44,2.35s3.47,4.3,2.35,7.15a13.49,13.49,0,0,1-9.17,7.73c-3.92,1-8.8-.5-10-5.15-1.6-3.93-2.38-7.64,0-12.44,1.48-4.17,5.9-7.94,9.78-8,5.9-.69,11.23,3.07,14.54,8.14,2,2.57,2.58,5.58,1.82,9.91a40,40,0,0,1-7.89,13,12.65,12.65,0,0,1-13.19,2.37C68.5,69.55,63.15,65.71,62,59.26a27.22,27.22,0,0,1,4.93-21.39,22.27,22.27,0,0,1,7-6.42A19.7,19.7,0,0,1,84.24,30.1a31.28,31.28,0,0,1,13,8.16c2.9,2.65,6.64,8.38,6.72,13.09.16,6.3-1.6,10.65-3.85,15.6-2.6,5.52-8.62,11-12.22,12.44-4.25,2-9.58,3.27-13.1,2.08a33.65,33.65,0,0,1-9.51-4.18A28.42,28.42,0,0,1,53.55,61.68c-1.53-6.81.29-13.7,3.28-19.9,2.27-4.25,4.18-8.22,8.46-9.48,3.69.8,1.34,4.65-.2,6.12-3.4,5.53-6.64,12.49-6.31,18.93.22,4,3.49,10.49,6.44,12.58a23,23,0,0,0,12.34,5.64C82,75.43,85,74,88.8,71.26c3.93-3.52,7-9.15,8.54-13.43,1.69-5.75.81-9-1.1-11.57-3.95-6.62-11.18-11.33-18.65-10.1-3.28.43-7.61,3.8-9,7.37-2.81,5.35-3.67,12,0,17.37a10.07,10.07,0,0,0,10.27,4.9c4.55-.73,10.56-6.36,11.55-11.91.47-3.74-2.29-7.57-4.78-9.39-2-1.91-5.88-1.91-8.57-.2a11.5,11.5,0,0,0-4.71,7.33c-.76,3.19,1.73,7.29,4.43,7.32,2.68.36,5.89-.42,5.89-3.89C82.27,51.64,79.15,51.85,77.58,54.9Z"/>
          <path class="cls-7" d="M65.39,33.2c-2.9,2.45-7.49,9.86-8.75,15.07s-1.33,6.65,0,13,6.49,10.39,8,11.5,9.1,7.95,18.85,4.76A25.65,25.65,0,0,0,91.75,72c4.86-4.69,9.06-12.59,9-19.34a18.82,18.82,0,0,0-2.54-8.13,25.4,25.4,0,0,0-7.54-7.83,17.52,17.52,0,0,0-17-1.48c-3.12,1.44-4.89,4.09-6.22,6.45-3.79,6.76-4.18,13.64-.24,19.39,0,0,1.19,1.06,1.49.94,0,0,.09-.13.15-.27s.16-.18.09-.32a22.06,22.06,0,0,1-1.91-3.52,16.39,16.39,0,0,1,.09-10.84C69,42,71.37,38.42,75.72,36.56s9.94-.06,13.53,2.24a23.38,23.38,0,0,1,8.52,10.31c1.57,3.93-.68,10-1.42,11.13S94.27,65.63,90.11,70s-8.87,5.89-14.36,5a22.32,22.32,0,0,1-11.29-5.53,21.46,21.46,0,0,1-5.72-11.3c-.54-4.87,2.14-12,3.39-14.47s5-7.47,5.11-8.74S66.09,32.64,65.39,33.2Z"/>
          <path class="cls-7" d="M72.62,66.53s4.66,3.61,11.14-.34,8.61-9.58,8.56-14.28c-.06-5-5.22-10.59-9-11.44-4.1-.92-7.92,1.86-9.45,3.77a20.86,20.86,0,0,0-3.46,6,7.85,7.85,0,0,0-.06,4.18c.63,2.14,1.85,6.64,6.51,6.63s7.24-2.66,7.79-4.76a4.57,4.57,0,0,0-3.3-5.75c-1.55-.66-6,1.58-6.87,7,0,0,.55,2.38,2.44-1.55s3.62-3.89,4.59-3.2a3.15,3.15,0,0,1,.88,3.57A4.67,4.67,0,0,1,78.3,59c-2,0-2.51,0-3.42-.52a7.14,7.14,0,0,1-2.61-5.37c0-2.55,2.22-7.44,5.69-9.32s7.06-.39,9.41,2.27a9.86,9.86,0,0,1,2.43,9.53c-1,3.59-5.11,7.91-7.46,8.87a17,17,0,0,1-5,1.4A8.1,8.1,0,0,1,76,65.75a13,13,0,0,1-1.82-.36c-.47-.12-.84-.58-1.05-.18A3.16,3.16,0,0,0,72.62,66.53Z"/>
          <path class="cls-8" d="M58.36,45.17C60,42,63.51,35.56,64.86,34.59s3,.35,1.44,2.09c-1.78,2-6.16,9.2-7.17,13.45s-1.41,12.62,4.21,18.39c1.44,1.47,3,2.62,3.3,3.15,1.15,2.23-1.11,1.73-3-.14-2.87-2.85-5.83-7.61-6.2-9A38.22,38.22,0,0,1,56.31,56C56.19,53.73,56.05,51,58.36,45.17Z"/>
          <path class="cls-8" d="M71.3,74.2c1.1.35,7.82,4.79,16.38-1.62S98,58.41,98.26,56.91s1.64-1,.38,3.35S92.35,73.46,85.4,76.18,73,77.27,72,76.54,70.69,74,71.3,74.2Z"/>
          <path class="cls-8" d="M76.34,35.91s6.13-2.31,13.11,2.75,8.65,8,8.12,6.45a19.37,19.37,0,0,0-7.4-8.22c-4.12-2.39-9.63-3.23-12.66-2.36S74.19,36.28,76.34,35.91Z"/>
          <path class="cls-8" d="M66.34,59.26c-.22-.07-4.81-10.06,2.07-17.8,6.69-7.54,1.8-.92.23,1.54S65.31,49.93,66,54a34.43,34.43,0,0,0,1,4.94C67.4,60,67,60.14,66.34,59.26Z"/>
          <path class="cls-8" d="M74.9,65.67a9.05,9.05,0,0,0,2.76.25c3.39-.25,9.68-2.45,12.35-11.13,0,0,1.49-4.42-3.37-9.64-5.17-5.55-10.9-.43-12.31,1.91s-.81-1,.26-2.34,4.6-4.13,7.53-3.86,6.3,3.54,7.24,5.71S92.06,50.69,91,55,88.38,62,85.74,64s-7.94,3-9.67,2.86c-1.53-.16-3.81-2-2.33-1.56C73.93,65.39,74.6,65.54,74.9,65.67Z"/>
          <path class="cls-8" d="M75.76,55.38s2.28-4,4.09-4.17a4.29,4.29,0,0,1,4,2.67c.83,1.59-.76,5-3,5.72a8.48,8.48,0,0,1-4.63.26c-.54-.12-.53-.91.56-.71A6.23,6.23,0,0,0,81.48,58C82.8,56.75,83,56.06,82.85,55a2.53,2.53,0,0,0-1-2,2.21,2.21,0,0,0-3.11.15A9.47,9.47,0,0,0,76.3,57C76.05,57.63,74.81,57.32,75.76,55.38Z"/>
        </g>
        <g>
          <path class="cls-6" d="M118.65,66.61a60.91,60.91,0,0,0-1.23-13.87c-1.56-8-5.94-16.59-5.57-18.21,1-4.25,5.37-2.05,6.75-.61a53.52,53.52,0,0,1,6.49,16.4,90.81,90.81,0,0,1,1.2,18.93c.43,3.72-.94,7.54-4.65,9.47-3.48.84-5.46,1.45-9,.78s-7.78-2.84-8.31-7c-.74-6,2.49-11.75,6.82-15.3,4.56-3.81,12.25-5.21,17.2-.45,5,3.65,8.73,7.56,8.95,14.88,1,5.95-2.26,13.38-7.47,16-7.47,4.73-17.38,3.75-25.5-.12-4.56-1.75-7.5-5-9.6-10.63C93.81,69.78,94,62.7,96,56.19c2.52-6.34,9.07-10.87,16.11-11.55,8.24-1.54,18.23-.48,24.49,6.42a34,34,0,0,1,8.73,28.82,28.7,28.7,0,0,1-4.84,12.3c-3.76,4-7,6.13-13,8.46-11.27,1.64-17.83.36-23.49-1.14-5.82-1.24-15-5.61-18.49-11.19-4.76-7.42-5.51-13.79-6-21.19C79,58.81,83.25,48.33,87,44.18,91.3,38.93,97.63,34,103.25,33.05a56.87,56.87,0,0,1,15.85-1.29c9.3.64,19.77,4,27.15,10.86,7,7.13,9.47,16.57,9.88,25.95,0,6.57.27,12.58-4.6,16.91C146,87,146.36,80.81,147.39,78c.62-8.85,0-19.31-5.09-26.78C139.14,46.64,130,41,124.54,40.47c-6.8-1.1-13.58-1.21-20.74,1.43C97.86,45,94.88,48.77,91.72,54.47c-2.78,6.81-2.83,15.54-1.88,21.7,1.85,8,5.4,11.32,9.81,13.1,10.1,5.29,23.26,6.14,32.48-.26,4.12-2.69,7.54-9.58,6.9-14.79C139,66,135.38,57.51,126.48,53.5c-5.31-3.21-13.1-2.2-17.4.93-5.62,3.88-9.7,14.59-7,21.86,2,4.78,8.54,7.53,13.2,8.06,4.15.92,9.33-1.6,11.72-5.43a14.24,14.24,0,0,0,1.1-11.87c-1.26-4.31-7.58-7.57-11.26-5.81-3.87,1.34-7.66,4.39-5.16,8.54C114.65,73.6,118.73,71.29,118.65,66.61Z"/>
          <path class="cls-7" d="M150.74,84.48c2.16-4.85,3-16.74,1-23.78-2.1-7.22-3-8.83-9.33-15.58s-16.25-8.12-19-8.49-18-3.49-28.91,6.77a35,35,0,0,0-7.29,12.13C84,64.35,84,76.56,88.9,84.61c1.51,2.49,5.32,5.92,9.27,8A41.51,41.51,0,0,0,114,97c9.74.89,18.92-3.38,24-9.46,3.19-3.79,3.68-8.12,3.77-11.82.26-10.58-4.16-19.07-13.63-23.33,0,0-2.37-.47-2.68-.13-.06.06,0,.21,0,.42s-.08.32.11.44c.89.52,3.8,1.76,5.12,2.94a21.48,21.48,0,0,1,7.68,13c1.13,7.29.51,13.12-4,18.21s-13.38,6.64-19.9,6.26a37.79,37.79,0,0,1-18.93-6.68c-4.94-3.66-6.27-12.4-6.09-14.24s-1.06-7.81,1.42-15.79S98.6,44,106.69,41.42a38.21,38.21,0,0,1,19.23-.86c3,.53,11.62,4.28,15.86,9.73s5.75,15.77,5.83,19.52S146.29,82,147,83.63,150.19,85.61,150.74,84.48Z"/>
          <path class="cls-7" d="M117,49.44s-8.9-1.24-14.82,7.76-4.74,17.13-1.28,22.72c3.69,6,14.66,9.2,20.36,7.73,6.2-1.6,9.36-7.45,10.06-10.74a25.65,25.65,0,0,0,.36-9.46,10.23,10.23,0,0,0-2.93-5c-2.38-2.14-7.28-6.72-13.56-3.62s-7.88,8-7.11,10.84c1.15,4.32,6,5.62,8.6,4.68,2.56-.24,7-5.88,4.22-12.95,0,0-2.46-2.48-2.19,3.47s-2.09,7-3.89,6.85A4.44,4.44,0,0,1,111,68c-.22-1.84,1-4.51,3.66-5.87s3.41-1.62,5-1.63,5.49,1.68,7.38,4.7,2.36,10.35-1,14.88-9.26,5.14-14.34,3.51-9-4.81-10.15-9.78,1.21-12.83,3.7-15.53A25.42,25.42,0,0,1,111,53.35a14.54,14.54,0,0,1,2-.78,21.88,21.88,0,0,1,2.71-.76c.73-.17,1.56.13,1.55-.48A3.89,3.89,0,0,0,117,49.44Z"/>
          <path class="cls-8" d="M151.63,65.53c.08,4.92,0,14.89-1.18,16.93S146.13,84,147,80.92c1-3.53,1.7-15.06,0-20.8s-7.18-16-18.93-19.19c-3-.81-6-1.13-6.72-1.58-3.16-1.92.25-2.81,4.14-1.82,5.93,1.51,13.35,5.25,14.82,6.61a53.09,53.09,0,0,1,6.31,7.15C148.4,53.87,150.54,57,151.63,65.53Z"/>
          <path class="cls-8" d="M113.24,39.4c-1.73.31-14-.56-21,12.76s-3.67,23.71-3,25.71-1.49,2.28-2.93-3.75-1-19.93,6.44-27.77,16-9.49,17.79-9.25S114.23,39.26,113.24,39.4Z"/>
          <path class="cls-8" d="M134,88.48s-6.63,6.8-19.7,5.37-17.4-3.77-15.61-2.34,8.64,4.8,15.92,4.94,15.33-2.52,18.8-5.55S136.64,86.61,134,88.48Z"/>
          <path class="cls-8" d="M130.71,54c.34-.06,13.73,8.84,10,22.63C137.1,90,139,78.9,139.29,74.91S138.8,64.44,135,60.07a50.23,50.23,0,0,0-5-5.22C128.73,53.76,129.23,53.32,130.71,54Z"/>
          <path class="cls-8" d="M114.53,52a14.64,14.64,0,0,0-3.92,1.53C106.21,56,99.3,62.81,101.93,75c0,0,1.17,6.27,11.5,9.3,11,3.21,15-6.69,15.26-10.42s1.82.7,1.33,3-3.24,8-7.4,9.59-11.07-.06-13.89-2-6.62-3.13-8.27-8.93S99,65.3,101.05,61.09s8.54-8.89,11-9.81c2.19-.81,6.6-.11,4.27.33C116,51.66,115,51.92,114.53,52Z"/>
          <path class="cls-8" d="M120.77,64.83s-.19,6.31-2.53,7.68-5.12.83-7.38-.52-2.53-6.43,0-8.85a13.79,13.79,0,0,1,6.06-3.37c.83-.21,1.38.74-.23,1.22s-4.58,2.24-5.5,4.55-.68,3.26.25,4.39a3.81,3.81,0,0,0,2.76,1.78,3.55,3.55,0,0,0,4.1-2.24,11.72,11.72,0,0,0,.61-6.16C118.76,62.34,120.65,61.88,120.77,64.83Z"/>
        </g>
        <g>
          <path class="cls-6" d="M63.91,100.32a66.18,66.18,0,0,0,4-12.93c1.63-7.76,1.2-17,2.08-18.29,2.3-3.52,5-.07,5.61,1.7a56.38,56.38,0,0,1-.69,17,99.12,99.12,0,0,1-5.82,17.48c-1,3.51-3.46,6.5-7.12,7-3.08-.41-4.89-.51-7.51-2.3s-5.21-5.16-4.15-9.07a17.82,17.82,0,0,1,11-11.54c5-1.92,11.66-.63,13.92,5.32,2.68,5,4.27,9.72,1.82,16.4-1.34,5.71-6.61,11.33-11.72,12-7.67,1.78-15.25-2.4-20.36-8.6-3-3.09-4.21-7-3.85-12.78,1.85-6.74,4.51-13.08,8.5-18.27a16.77,16.77,0,0,1,17-5.07c7.13,1.36,14.74,5.63,17.28,14a36.07,36.07,0,0,1-3.36,28.91,29.32,29.32,0,0,1-8.28,9.5c-4.44,2.36-7.79,3.21-13.45,3.3-9.6-2.27-14.39-5.61-18.39-8.84-4.2-3.06-10-10.06-10.77-16.26-1.14-8.28.54-14.27,2.77-21.13C35,80.1,42.15,72.05,46.68,69.56c5.29-3.32,12.13-5.72,17-4.66A44.18,44.18,0,0,1,76.77,69C84,72.69,91.14,79.23,94.59,87.85c3,8.75,1.63,18.1-1.41,26.71-2.36,5.93-4.29,11.45-9.74,13.73-5-.51-2.46-5.93-.64-8.09,3.67-7.78,6.91-17.44,5.53-25.87C87.46,89.11,82.19,81,78,78.69c-5-3.26-10.42-5.62-17.09-5.62-5.88.85-9.6,3.24-14.18,7.33-4.66,5.23-7.83,13.09-9.28,19-1.38,7.81.26,12,3.15,15.08C46.77,122.59,57,127.73,66.66,125c4.26-1,9.47-6.13,10.82-11,2.92-7.46,3.08-16.3-2.61-22.88-3.09-4.67-9.68-6.35-14.24-5-5.89,1.64-13,9.94-13.47,17.4-.08,5,4.13,9.64,7.67,11.67,3,2.21,8,1.65,11.32-1a15.27,15.27,0,0,0,5.14-10.35c.53-4.31-3.35-9.35-6.92-9-3.58-.08-7.7,1.42-7.19,6C58.2,105.3,62.29,104.57,63.91,100.32Z"/>
          <path class="cls-7" d="M83.16,127.13c3.47-3.66,8.43-14.11,9.32-21.15.91-7.21.78-9-1.88-17.16-2.71-8.38-10.08-12.74-12.16-14s-13.16-9.15-25.54-3.5a34,34,0,0,0-10.18,8.52c-5.71,6.9-10.08,17.93-9.06,26.82A25.08,25.08,0,0,0,38.19,117a33.71,33.71,0,0,0,11.09,9.21,23.19,23.19,0,0,0,22.63-.55c3.91-2.36,5.85-6.11,7.25-9.42,4-9.46,3.51-18.59-2.53-25.59,0,0-1.73-1.21-2.1-1-.06,0-.09.18-.16.37s-.19.27-.08.43c.53.78,2.42,2.86,3,4.36a21.69,21.69,0,0,1,1.48,14.3c-1.71,7-4.3,12-9.75,15.1s-13.08,1.55-18.16-1a31,31,0,0,1-12.75-12.33c-2.63-5-.57-13.29.24-14.88s2-7.41,6.79-13.78S56,73.2,63.38,73.6a29.59,29.59,0,0,1,15.68,5.62c2.2,1.47,7.77,7.73,9.2,14.06s-1.06,16.15-2.33,19.56-5.44,10.58-5.45,12.27S82.33,128,83.16,127.13Z"/>
          <path class="cls-7" d="M68.74,84.26s-6.67-4.07-14.63,2.09-9.94,13.88-9.18,20.07c.81,6.62,8.43,13.19,13.52,13.76,5.53.61,10.16-3.62,11.89-6.36A27.52,27.52,0,0,0,74,105.41a10.32,10.32,0,0,0-.54-5.52c-1.14-2.72-3.41-8.48-9.54-7.77s-9.16,4.56-9.58,7.41c-.63,4.29,2.82,7.09,5.2,7.09,2.14.64,7.72-3,8-10.28,0,0-1.08-3.07-3,2.4s-4.18,5.65-5.57,4.89a4.2,4.2,0,0,1-1.69-4.58,6.24,6.24,0,0,1,5-4.07c2.59-.36,3.31-.34,4.59.19s3.8,3.34,4.23,6.69S69.34,112,65.05,115s-9.25,1.56-12.74-1.6-5.45-7.32-4.61-12.21S53.28,90,56.24,88.38a22.22,22.22,0,0,1,6.31-2.57,11.73,11.73,0,0,1,1.89,0,17.08,17.08,0,0,1,2.44.21c.65.09,1.21.64,1.42.08A4.19,4.19,0,0,0,68.74,84.26Z"/>
          <path class="cls-8" d="M90.68,110.31c-1.7,4.47-5.39,13.43-7,14.9s-4,0-2.2-2.54c2.05-2.86,6.76-13,7.47-18.77s0-16.84-8.26-23.62c-2.1-1.73-4.38-3-4.81-3.66-1.84-2.78,1.21-2.45,4-.27,4.21,3.33,8.8,9.18,9.49,10.9a51,51,0,0,1,2.48,8.55C92.28,98.71,92.86,102.26,90.68,110.31Z"/>
          <path class="cls-8" d="M69.34,74c-1.49-.3-11-5.16-21.34,4.54S36.56,98.68,36.37,100.71s-2,1.56-1-4.36S41.72,78,50.48,73.43,66.65,70.17,68,71,70.19,74.16,69.34,74Z"/>
          <path class="cls-8" d="M68.34,125.17s-7.74,3.93-17.69-1.71-12.56-9.2-11.64-7.31a25.7,25.7,0,0,0,11,9.76c5.78,2.54,13.17,2.83,17,1.24S71.12,124.36,68.34,125.17Z"/>
          <path class="cls-8" d="M78.09,92.92c.29.06,7.81,12.55-.11,23.76-7.72,10.93-2.24,1.48-.54-2s3.37-9.61,1.91-14.82a46.73,46.73,0,0,0-2.09-6.35C76.58,92.07,77.14,91.85,78.09,92.92Z"/>
          <path class="cls-8" d="M65.87,85.73a11.86,11.86,0,0,0-3.68.08c-4.43.82-12.4,4.64-14.64,16.48,0,0-1.32,6,5.86,12.21,7.62,6.55,14.42-1,15.94-4.32s1.21,1.24,0,3.11-5.46,6.12-9.37,6.2-8.82-3.74-10.37-6.47-4.17-5-3.41-10.81,2.44-9.62,5.6-12.72,10-5.19,12.32-5.2c2.05,0,5.33,2.09,3.3,1.71C67.18,86,66.28,85.85,65.87,85.73Z"/>
          <path class="cls-8" d="M66.24,99.42s-2.41,5.63-4.78,6.09-4.39-1-5.71-2.92.28-6.65,3.17-8a11.36,11.36,0,0,1,6.06-1c.74.09.84,1.13-.62,1a8.32,8.32,0,0,0-6,2.28c-1.57,1.78-1.71,2.72-1.38,4a3.37,3.37,0,0,0,1.57,2.52c1,.65,2.44,1,4.08-.65a12.74,12.74,0,0,0,2.7-5.36C65.53,96.5,67.21,96.72,66.24,99.42Z"/>
        </g>
        <g>
          <path class="cls-6" d="M142.89,109.16a63.84,63.84,0,0,0-13.47-1.88c-8-.33-17,1.68-18.51,1-3.85-1.76-.85-5.15.81-6.05a55,55,0,0,1,17-2.2A96.28,96.28,0,0,1,147,103c3.64.42,7,2.43,8.07,6.1.08,3.23.25,5.1-1.12,8.1-1.52,2.93-4.32,6.22-8.37,5.81-5.87-.63-10.68-4.69-13.18-9.25-2.68-4.81-2.43-11.86,3.13-15.19,4.5-3.61,9-6,16-4.68,5.88.39,12.29,4.83,13.73,10,3,7.57,0,16.06-5.38,22.36-2.61,3.63-6.28,5.52-12.11,6.15-7-.74-13.7-2.39-19.48-5.58a17.43,17.43,0,0,1-7.68-16.6c.23-7.56,3.3-16.1,11.17-20.13a35.31,35.31,0,0,1,29.27-1.52,29,29,0,0,1,10.72,6.87c3,4.15,4.4,7.44,5.38,13.23-.76,10.24-3.34,15.72-5.93,20.38-2.39,4.84-8.45,12-14.49,13.84-8.06,2.6-14.28,1.9-21.44.79-8-1.38-17.13-7.32-20.3-11.53-4.13-4.86-7.57-11.47-7.27-16.6a47.9,47.9,0,0,1,2-14.18c2.54-8,7.93-16.5,16-21.52,8.23-4.59,17.74-4.78,26.77-3.14,6.27,1.41,12,2.44,15.17,7.64.27,5.21-5.52,3.54-7.94,2.05-8.31-2.43-18.42-4.1-26.58-1.24-5,1.79-12.28,8.59-13.95,13.29-2.45,5.73-4,11.65-2.92,18.5,1.75,5.88,4.71,9.29,9.49,13.29,5.92,3.88,14.23,5.78,20.29,6.26,8,.07,11.91-2.33,14.51-5.82,7.13-7.73,10.65-19.1,6.46-28.55-1.71-4.19-7.57-8.66-12.67-9.21-7.87-1.72-16.68-.36-22.34,6.6-4.16,4-4.8,11-2.71,15.47,2.54,5.76,11.9,11.62,19.39,10.83,5-.78,8.94-5.89,10.41-9.88,1.73-3.44.4-8.53-2.76-11.44A14.89,14.89,0,0,0,145.25,101c-4.36.19-8.77,5-7.86,8.65.48,3.68,2.61,7.65,7.07,6.34C148.72,114.15,147.37,110.09,142.89,109.16Z"/>
          <path class="cls-7" d="M166.55,84.8c-4.18-2.93-15.34-6.22-22.47-5.93-7.31.31-9,.75-16.77,4.88-7.91,4.22-11.1,12.52-12,14.87s-7.05,15.07.49,26.81a34.1,34.1,0,0,0,10,9c7.75,4.67,19.4,7.26,28.08,4.69a25.48,25.48,0,0,0,9.57-6.42,35.81,35.81,0,0,0,7.43-13,24.65,24.65,0,0,0-4.06-23.12c-2.95-3.61-7-5-10.49-5.83-10-2.48-19-.41-25.05,7,0,0-.94,2-.68,2.32.05.06.2.07.4.1s.29.15.44,0c.69-.67,2.46-3,3.86-3.87a21.49,21.49,0,0,1,14-4c7.19.56,12.61,2.35,16.53,7.41s3.57,13.16,1.86,18.8a32.74,32.74,0,0,1-10.27,15.19c-4.51,3.56-13.12,2.86-14.83,2.31s-7.67-.73-14.76-4.6-10.68-9.55-11.43-17.18a31.9,31.9,0,0,1,3.15-17.06c1.12-2.5,6.47-9.29,12.55-11.85s16.21-1.69,19.81-1,11.36,3.76,13,3.48S167.51,85.52,166.55,84.8Z"/>
          <path class="cls-7" d="M126.18,107s-3,7.54,4.34,14.65,15.35,7.81,21.39,6c6.45-2,11.8-10.91,11.57-16.23-.25-5.78-5.17-9.8-8.17-11.11a26.94,26.94,0,0,0-8.94-2.33,10.23,10.23,0,0,0-5.39,1.5c-2.54,1.63-7.91,5-6.25,11.13s6,8.61,8.86,8.55a6.3,6.3,0,0,0,6.24-6.55c.3-2.31-4.15-7.41-11.47-6.47,0,0-2.88,1.64,2.85,2.67s6.27,3.32,5.73,4.87a4.24,4.24,0,0,1-4.29,2.52,6.27,6.27,0,0,1-4.83-4.46c-.76-2.59-.85-3.34-.52-4.74s2.72-4.47,6-5.48,10.36.13,14,4,3,9.22.38,13.33-6.43,6.85-11.41,6.83-12-3.8-14-6.56a23,23,0,0,1-3.53-6,11.92,11.92,0,0,1-.33-1.93,17,17,0,0,1-.17-2.55c0-.67.45-1.34-.14-1.46A4,4,0,0,0,126.18,107Z"/>
          <path class="cls-8" d="M148.66,80c4.71,1,14.19,3.22,15.9,4.64s.61,4.13-2.18,2.7c-3.16-1.62-14-4.71-19.82-4.44s-16.74,2.89-22.2,12.52c-1.39,2.46-2.31,5-2.89,5.57-2.48,2.36-2.62-.83-.88-4,2.66-4.88,7.76-10.6,9.36-11.6a51,51,0,0,1,8.11-4C136.88,80.33,140.32,79.12,148.66,80Z"/>
          <path class="cls-8" d="M115.84,108.11c-.06,1.58-3.42,12.16,7.83,21.12s21.84,8.27,23.88,8.12,1.87,1.79-4.17,1.77-19.2-3.37-25.14-11.57-5.75-16-5.15-17.58S115.91,107.21,115.84,108.11Z"/>
          <path class="cls-8" d="M166.9,100.35s5.12,7.26,1,18.43-7.19,14.47-5.45,13.2a27.13,27.13,0,0,0,8-12.91c1.63-6.37.77-14-1.41-17.69S165.67,97.63,166.9,100.35Z"/>
          <path class="cls-8" d="M133.33,95.88c0-.31,11.26-10.17,23.64-4,12.06,6,1.82,2-1.91.9S145,91,140,93.39a47.76,47.76,0,0,0-6,3.24C132.72,97.58,132.41,97,133.33,95.88Z"/>
          <path class="cls-8" d="M128.08,109.65a12.71,12.71,0,0,0,.65,3.77c1.51,4.4,6.54,11.91,18.66,12.18,0,0,6.22.32,11.23-8.11,5.33-8.94-3.27-14.61-6.78-15.61s1-1.45,3.1-.54,6.93,4.55,7.61,8.54-2.34,9.7-4.81,11.76-4.35,5.14-10.22,5.35-9.94-.85-13.52-3.56-6.72-9.39-7.08-11.75c-.33-2.1,1.25-5.82,1.19-3.68C128.1,108.27,128.14,109.21,128.08,109.65Z"/>
          <path class="cls-8" d="M141.63,106.92s6,1.51,6.8,3.85-.27,4.67-2,6.36-6.66.86-8.43-1.88a11.9,11.9,0,0,1-2-6c0-.77,1-1,1.11.47s1.19,4.49,3.2,5.8,3,1.29,4.23.71a3.48,3.48,0,0,0,2.27-2,3.12,3.12,0,0,0-1.28-4.08,12.36,12.36,0,0,0-5.75-1.84C138.84,108.15,138.8,106.39,141.63,106.92Z"/>
        </g>
      </g>
    </g>
  </g>
</svg>
