<svg id="Layer_1" data-name="Layer 1" xmlns="http://www.w3.org/2000/svg" width="191.52" height="303.87" viewBox="0 0 191.52 303.87">
  <defs>
    <style>
      .cls-1 {
        opacity: 0.5;
      }

      .cls-2 {
        fill: #fff;
      }

      .cls-10, .cls-3 {
        fill: #f9dad2;
      }

      .cls-16, .cls-3 {
        stroke: #755339;
      }

      .cls-14, .cls-16, .cls-3, .cls-4, .cls-5, .cls-7 {
        stroke-miterlimit: 10;
      }

      .cls-4 {
        fill: #fad2c7;
        stroke: #443222;
        stroke-width: 0.5px;
      }

      .cls-5 {
        fill: #e6ddc0;
        stroke: #9b8b5c;
      }

      .cls-6 {
        fill: #efbdb4;
      }

      .cls-11, .cls-7 {
        fill: #b8a0ca;
      }

      .cls-7 {
        stroke: #73459b;
      }

      .cls-8 {
        fill: #d67233;
      }

      .cls-9 {
        fill: #755339;
      }

      .cls-12 {
        fill: #73459b;
      }

      .cls-13 {
        fill: #fa9a3a;
      }

      .cls-14 {
        fill: none;
        stroke: #d67233;
      }

      .cls-15 {
        fill: #342517;
      }

      .cls-16, .cls-17 {
        fill: #a1c5ce;
      }

      .cls-18 {
        fill: #bc7e97;
      }

      .cls-19 {
        fill: #381515;
      }

      .cls-20 {
        fill: #2b1c1c;
      }

      .cls-21 {
        fill: #b26b51;
      }
    </style>
  </defs>
  <g>
    <path class="cls-1" d="M126.36,303.87c-9.79,0-13.54-5.66-13.77-10.51-.25-5.46,3.29-9.92,5.81-12.37l4.88-13.56c-1.56-3.56-3.59-8.37-5.7-13.39-.24-.56-.47-1.11-.7-1.67C107.61,251,100.24,246.31,95.2,242L90,246.1A8,8,0,0,1,85,247.78h-.3q-.19,6.89-.83,15.41c4.94,9.93,6.55,14.91,4,19.37-1.21,2.1-3,5.24-18.21,7.54a72,72,0,0,1-15.87,3.07c-1.32.12-2.46.23-3.2.38a27.19,27.19,0,0,1-5.3.6c-5.84,0-8.6-2.92-9.73-4.67a9.75,9.75,0,0,1-.68-9.15,8,8,0,0,1,4.34-4.16,77,77,0,0,0,17.06-9.55,182.72,182.72,0,0,1-7.2-21c-5-4.44-7.89-11.65-8.79-14.13-.06-.16-.12-.33-.17-.5-4-13.78,6.1-39.51,15.47-58.95,1-3.46,2.69-8.7,4-12.61-2.16-4-.47-8.16.78-11.2.1-.24.22-.52.33-.81-2.17-5.61-5.92-15.36-8.81-25.2l-10.87,4a7.76,7.76,0,0,1-2.75.5h-.37c-7.93,3.78-16.83,6.07-19.36,6.35-.43,0-.87.07-1.3.07-2.88,0-6.84-1-9.41-6v0a12.73,12.73,0,0,1-1.12-2.18,7.53,7.53,0,0,1-.45-1c-3.85-9.63,1.07-22.32,14.63-37.75,0-4.89,1.52-8.84,4.48-11.57A29.41,29.41,0,0,0,27.62,72a33.92,33.92,0,0,1,4.48-4.89,15.85,15.85,0,0,1-2.92-6,11.65,11.65,0,0,1-.13-6.4,11.74,11.74,0,0,1-2.13-6.2c-.12-2.79.73-6.56,4.8-10.14,0-1,0-2.09-.15-3.2a9.77,9.77,0,0,0-.44-1.31,7.88,7.88,0,0,1-.61-2.53,26.09,26.09,0,0,1,.95-9.51,8,8,0,0,1,1.29-3.3A23.13,23.13,0,0,1,45.3,7.17a11.88,11.88,0,0,1,1.55-.55,6.62,6.62,0,0,1,.84-.24A66.35,66.35,0,0,1,61.05,5c8.1,0,14.79,1.6,20,4.77h.76a8.13,8.13,0,0,1,3.36.73c5.11,2.35,7.06,5.75,7.8,8.2a10.94,10.94,0,0,1-.09,6.68,12.74,12.74,0,0,1,1.77,4.34c4.33,2.23,8.06,3.54,9.49,3.54h.18a8,8,0,0,1,6.34,12.9l-.06.08c40.52,12,64,46.56,71.39,59.18,6.23.49,8.37,4.12,9.09,6.34,1.42,4.32-.38,8.35-5.35,12-1.21.89-3,2.39-5,4.14C172,135.4,159,146.62,145.05,147.35a343.09,343.09,0,0,1,5.07,34.79,8,8,0,0,1-1.76,5.74l.39,19.26,1.27,2.22a8,8,0,0,1,1,4.38,86.38,86.38,0,0,1-2.54,15.83c1.35,8.63.9,16.25.53,22.46-.12,2-.23,3.87-.25,5.49A12.91,12.91,0,0,1,153.14,269c-1.54,16.3-2.73,21.42-3.59,24.06C146.6,302,130.51,303.87,126.36,303.87Z"/>
    <path class="cls-2" d="M121.36,298.87c-9.79,0-13.54-5.66-13.77-10.51-.25-5.46,3.29-9.92,5.81-12.37l4.88-13.56c-1.56-3.56-3.59-8.37-5.7-13.39-.24-.56-.47-1.11-.7-1.67C102.61,246,95.24,241.31,90.2,237L85,241.1A8,8,0,0,1,80,242.78h-.3q-.19,6.89-.83,15.41c4.94,9.93,6.55,14.91,4,19.37-1.21,2.1-3,5.24-18.21,7.54a72,72,0,0,1-15.87,3.07c-1.32.12-2.46.23-3.2.38a27.19,27.19,0,0,1-5.3.6c-5.84,0-8.6-2.92-9.73-4.67a9.75,9.75,0,0,1-.68-9.15,8,8,0,0,1,4.34-4.16,77,77,0,0,0,17.06-9.55,182.72,182.72,0,0,1-7.2-21c-5-4.44-7.89-11.65-8.79-14.13-.06-.16-.12-.33-.17-.5-4-13.78,6.1-39.51,15.47-58.95,1-3.46,2.69-8.7,4-12.61-2.16-4-.47-8.16.78-11.2.1-.24.22-.52.33-.81-2.17-5.61-5.92-15.36-8.81-25.2l-10.87,4a7.76,7.76,0,0,1-2.75.5h-.37c-7.93,3.78-16.83,6.07-19.36,6.35-.43,0-.87.07-1.3.07-2.88,0-6.84-1-9.41-6v0a12.73,12.73,0,0,1-1.12-2.18,7.53,7.53,0,0,1-.45-1c-3.85-9.63,1.07-22.32,14.63-37.75,0-4.89,1.52-8.84,4.48-11.57A29.41,29.41,0,0,0,22.62,67a33.92,33.92,0,0,1,4.48-4.89,15.85,15.85,0,0,1-2.92-6,11.65,11.65,0,0,1-.13-6.4,11.74,11.74,0,0,1-2.13-6.2c-.12-2.79.73-6.56,4.8-10.14,0-1,0-2.09-.15-3.2a9.77,9.77,0,0,0-.44-1.31,7.88,7.88,0,0,1-.61-2.53,26.09,26.09,0,0,1,.95-9.51,8,8,0,0,1,1.29-3.3A23.13,23.13,0,0,1,40.3,2.17a11.88,11.88,0,0,1,1.55-.55,6.62,6.62,0,0,1,.84-.24A66.35,66.35,0,0,1,56.05,0c8.1,0,14.79,1.6,20,4.77h.76a8.13,8.13,0,0,1,3.36.73c5.11,2.35,7.06,5.75,7.8,8.2a10.94,10.94,0,0,1-.09,6.68,12.74,12.74,0,0,1,1.77,4.34c4.33,2.23,8.06,3.54,9.49,3.54h.18a8,8,0,0,1,6.34,12.9l-.06.08c40.52,12,64,46.56,71.39,59.18,6.23.49,8.37,4.12,9.09,6.34,1.42,4.32-.38,8.35-5.35,12-1.21.89-3,2.39-5,4.14C167,130.4,154,141.62,140.05,142.35a343.09,343.09,0,0,1,5.07,34.79,8,8,0,0,1-1.76,5.74l.39,19.26,1.27,2.22a8,8,0,0,1,1,4.38,86.38,86.38,0,0,1-2.54,15.83c1.35,8.63.9,16.25.53,22.46-.12,2-.23,3.87-.25,5.49A12.91,12.91,0,0,1,148.14,264c-1.54,16.3-2.73,21.42-3.59,24.06C141.6,297,125.51,298.87,121.36,298.87Z"/>
    <g>
      <g>
        <g>
          <g>
            <path class="cls-3" d="M127.83,259.49l-7.58,21.12s-4.83,3.8-4.67,7.37c.29,6,20.11,1.39,21.36-2.44s2.35-13,3.24-22.34c.47-5-3.84-5.55-4.63-6.94"/>
            <path class="cls-4" d="M122.56,284.07s-3,3.43-2.56,6.57"/>
            <path class="cls-4" d="M126.16,284.62a8.5,8.5,0,0,0-1.87,5.81"/>
            <path class="cls-4" d="M129.05,285.2s-1.62,1.22-1.22,4.35"/>
            <path class="cls-4" d="M132.62,285s-.94.47-.54,3.6"/>
          </g>
          <path class="cls-3" d="M128.07,264.49c-2.17-3.5-17-40.71-19.24-43.47,0,0,8.38-49.79,24.11-5.85,6.79,19,1.16,35.59,3.43,43.2,0,0,2.24,2,.92,4.25"/>
        </g>
        <path class="cls-3" d="M61.11,264.41c1.94-2.7-7.33,7.59-23.92,14.2,0,0-1.71,3.81,6.84,2.1,3.78-.76,9.59-.41,18.81-3.42,0,0,12-1.75,13.11-3.73s-5.23-13.68-5.18-13.81c2.9-36.6-1.09-39.45-1.09-39.45s-18.81,4.17-18.81,12.34S61.11,264.41,61.11,264.41Z"/>
        <g>
          <g>
            <path class="cls-5" d="M60.56,165S38.17,207.9,42.81,223.79c0,0,4,11,9.2,12.46S77.09,226,77.09,226l8-55.29-21.54-3.42Z"/>
            <path class="cls-5" d="M58,226.61c6.27.62,18.08-10.54,18.56-27.52"/>
            <path class="cls-5" d="M58.16,212.84S74.84,204,79.91,187.77"/>
          </g>
          <g>
            <path class="cls-5" d="M88.73,175.11s-12.24,38.41.33,49.18c0,0,13.68,19.37,34.76,14.81,12.81-2.77,14.25-30.77,14.25-30.77l-2.28-4-.57-28.5L110.16,165.2l-19.9,8.91Z"/>
            <path class="cls-5" d="M115.27,226.56s16.53,1.71,20.52-22.22"/>
            <path class="cls-5" d="M113,199.21s16.53,1.71,20.52-22.23"/>
            <path class="cls-5" d="M91.54,186s3.22,18.39,14,31.5"/>
            <path class="cls-5" d="M90.77,192.37s-1.71,18.81,9.12,31.92"/>
          </g>
          <g>
            <path class="cls-5" d="M92.48,178.12l-6.22,51.82L80,234.78s.91-7.21,3.25-8.15c0,0-10.72.43-13-1.54,0,0,7.47-4.25,9.74-4.39,0,0-10.48-2.47-13-1.7l11.17-48.86"/>
            <path class="cls-5" d="M81.66,220.81s0-16.61.25-19.57"/>
            <path class="cls-5" d="M84.8,226.28A110.25,110.25,0,0,1,84.53,206"/>
          </g>
        </g>
      </g>
      <g>
        <path class="cls-3" d="M72.7,66.06s2,7.39,4.87,8.87c0,0,7.52,8.3-10,17.47,0,0-14-.72-11.79-12.15,0,0,2.65-2.1,1.47-6.4C57.21,73.85,61.85,56.59,72.7,66.06Z"/>
        <path class="cls-6" d="M58.37,71.16l-1.21,9.19C71.8,85.5,76.9,75.41,76.9,75.41l-3.26-5.62"/>
      </g>
      <g>
        <path class="cls-3" d="M19.07,100S9,104.55,8.55,108.56c-.57,5.22.34,8.26,1,9.2s.86,2.63,3.13,2.38,17.52-4.28,24.5-10.41L30.35,93Z"/>
        <path class="cls-7" d="M56.57,105.17l-23.3,8.59s-6-10.51-6.15-20.09c0,0,8.08-5.88,26.6-13.58"/>
      </g>
      <path class="cls-3" d="M23,110.87c2.28-2.28,5.41-19.65,6.84-22.23,1.93-3.5.57-11.39-5.7-4.56C21.42,87,4.38,105.21,8.7,116"/>
      <path class="cls-8" d="M46.88,82.94c-5.13-4-12,0-16.52,8-4.69,8.21-9.69-2.28-5.7-3.42s4.71-9.34,5.7-13.1,16-16.57,16-16.57,19,10.35,22.76,15.43"/>
      <g>
        <path class="cls-3" d="M24.37,85.43s-1.71-7,1.43-9.89,6-8.51,9.25-8.53,6.33,1.91,6.78,4.94c1.06,7-3.29,3.22-2.93,3.59,1.14,1.14.08,4.95-1.71,4,0,0,1.13,4.21-2.28,3.41,0,0-.16,3-2,2a19.73,19.73,0,0,1-4.87-4.28"/>
        <path class="cls-9" d="M34.8,69.75a15.52,15.52,0,0,1,3.13,2.93,7.16,7.16,0,0,1,1.21,1.81,4.73,4.73,0,0,1,.38,2.17l-.09,0a18.56,18.56,0,0,1-1.18-1.75c-.38-.56-.61-1.21-1-1.8a20.09,20.09,0,0,0-2.54-3.31Z"/>
        <path class="cls-9" d="M33.09,73.18a15.06,15.06,0,0,1,2.78,3A6.91,6.91,0,0,1,36.94,78a4.77,4.77,0,0,1,.3,2.09l-.09,0A12.82,12.82,0,0,1,36,78.4c-.33-.56-.52-1.19-.84-1.78A21.22,21.22,0,0,0,33,73.25Z"/>
        <path class="cls-9" d="M30.8,76.59a11.44,11.44,0,0,1,2.83,2.68,6,6,0,0,1,1.06,1.67,4.32,4.32,0,0,1,.27,2l-.09,0a13.28,13.28,0,0,1-1.09-1.59c-.32-.52-.5-1.12-.81-1.66a13.16,13.16,0,0,0-1-1.57,10.62,10.62,0,0,0-1.21-1.47Z"/>
      </g>
      <g>
        <path class="cls-10" d="M33.77,86.36l6.77-2s6-3.28,4.06-8.29-4,1.71-4,1.71-.3,4.15-2.43,4.64"/>
        <path class="cls-9" d="M33.76,86.32l6.71-2.15,0,0a10.84,10.84,0,0,0,3-2.8,5.4,5.4,0,0,0,1.06-3.78l-.07-.48-.15-.48a5.2,5.2,0,0,0-.37-.92c-.27-.59-.77-1.11-1-1a3,3,0,0,0-1.1,1.3A15.81,15.81,0,0,0,41,77.94l0-.09a9,9,0,0,1-.77,2.76,4.14,4.14,0,0,1-.81,1.21,2.19,2.19,0,0,1-1.27.69l0-.1a2.93,2.93,0,0,0,1.56-2,11.15,11.15,0,0,0,.45-2.62v-.09A12.28,12.28,0,0,1,41,75.6a6.87,6.87,0,0,1,.61-1,2.22,2.22,0,0,1,1.09-.83,1.33,1.33,0,0,1,.86,0,1.91,1.91,0,0,1,.6.44,3.71,3.71,0,0,1,.63,1,5.73,5.73,0,0,1,.37,1.08l.15.56.05.58A6.2,6.2,0,0,1,44,81.77a11.11,11.11,0,0,1-3.34,2.84l0,0h0l-6.81,1.78Z"/>
      </g>
      <g>
        <path class="cls-7" d="M51.73,81,56,79c5.13,21.65,21.41-4,21.41-4s.53-.84,4.52-1.3c14.42-1.67,29.92,28.67,40.75,42.92,10.29,13.54,14.47,61.27,14.47,61.27s-25.3,12.82-43,2.56c-19.86-11.53-36.48-8.55-36.48-8.55.26-2.75,5.7-18.39,5.7-18.39a16.56,16.56,0,0,1-1.71-2.69c-.87-1.46,3-7.31,2.29-9.11-2.86-7.42-13.12-33.07-13.12-46.18"/>
        <g>
          <path class="cls-11" d="M91.34,149.06s-23-5.08-28.5,5.69"/>
          <path class="cls-12" d="M91.34,149.06c-1.28-.16-2.56-.31-3.84-.4s-2.55-.22-3.83-.27a59,59,0,0,0-7.64.13,27.16,27.16,0,0,0-7.37,1.58,11.77,11.77,0,0,0-5.82,4.65,9.7,9.7,0,0,1,2.23-3.18,13.39,13.39,0,0,1,3.28-2.18,23.1,23.1,0,0,1,7.6-1.87,41.27,41.27,0,0,1,7.78.11A44.59,44.59,0,0,1,91.34,149.06Z"/>
        </g>
        <g>
          <path class="cls-11" d="M94.19,129.11S75.38,147.92,64.74,141"/>
          <path class="cls-12" d="M94.19,129.11a52.88,52.88,0,0,1-6.17,5.8,46.9,46.9,0,0,1-7,4.77,25.35,25.35,0,0,1-8,2.93,13.55,13.55,0,0,1-4.31,0,9.26,9.26,0,0,1-3.9-1.67,11.42,11.42,0,0,0,8.07.9,23.11,23.11,0,0,0,3.94-1.25,33.92,33.92,0,0,0,3.75-1.8,67.78,67.78,0,0,0,7-4.5c1.14-.81,2.26-1.66,3.36-2.53S93.1,130,94.19,129.11Z"/>
        </g>
        <g>
          <path class="cls-11" d="M105.39,161s19.52-25.93,16.15-43.86"/>
          <path class="cls-12" d="M105.39,161c1.1-1.67,2.17-3.35,3.18-5.06s2-3.41,3-5.15a109.94,109.94,0,0,0,5.28-10.66,64.45,64.45,0,0,0,3.83-11.21,34,34,0,0,0,.95-5.84,26.83,26.83,0,0,0-.09-5.94,28.61,28.61,0,0,1-.1,11.94,59.68,59.68,0,0,1-3.67,11.45,94.15,94.15,0,0,1-5.54,10.64A87.59,87.59,0,0,1,105.39,161Z"/>
        </g>
      </g>
      <path class="cls-13" d="M172.35,108.6s-28.3-56.72-85.29-63c-33.43-3.67-17.9,18.31-10.26,28.5a79.73,79.73,0,0,1,4.38,7.22s1.32,5.89-10.65,7.6c-6.2.89,5.7,12.54,9.12,9.12s5.13-13.11,5.13-13.11L103,107.74s10,4.76,16.53,7.41c6.55,3.13,5.41,5.41,9.4,16.24,16.53,11.4,38.47-12.83,47-19.09C183.27,106.94,172.35,108.6,172.35,108.6Z"/>
      <path class="cls-8" d="M108.43,77.82c-1.3,0-2.58,0-3.86.05s-2.53.14-3.79.31a29.19,29.19,0,0,0-3.7.74,23.55,23.55,0,0,0-3.56,1.38,11,11,0,0,1,3.31-2.12,16.27,16.27,0,0,1,3.82-1A18.39,18.39,0,0,1,108.43,77.82Z"/>
      <path class="cls-8" d="M171.7,108.4c-1.81.22-3.56.29-5.31.43a48,48,0,0,0-5.24.64,10.32,10.32,0,0,1,5.17-1.64,16.35,16.35,0,0,1,2.71,0A11.72,11.72,0,0,1,171.7,108.4Z"/>
      <path class="cls-8" d="M159.25,117.37c1.3-.14,2.57-.34,3.83-.54s2.49-.46,3.72-.79a28.24,28.24,0,0,0,3.57-1.2,24,24,0,0,0,3.37-1.82,10.83,10.83,0,0,1-3,2.52,16.66,16.66,0,0,1-3.67,1.47A18.68,18.68,0,0,1,159.25,117.37Z"/>
      <path class="cls-8" d="M84.39,77.23A38.67,38.67,0,0,0,84,70.9,16.77,16.77,0,0,0,81.93,65a7.94,7.94,0,0,1,2,2.58,11.11,11.11,0,0,1,1,3.16,13.54,13.54,0,0,1,.12,3.3A11.27,11.27,0,0,1,84.39,77.23Z"/>
      <path class="cls-14" d="M95.9,79s29.63,0,68.39,29.63"/>
      <g>
        <path class="cls-3" d="M126.1,125.12s1.14-16.53-15.1-27.07c-15.74-10.22-13.8,2.41-13.8,2.41l16.41,18.8"/>
        <path class="cls-7" d="M122.68,109.73s-8.82-7.2-15.3-3.89C94.19,112.58,90.2,79.53,90.2,79.53s7.59-1.19,16.52,4.55S122.68,109.73,122.68,109.73Z"/>
        <g>
          <path class="cls-3" d="M117.65,110.59a76.94,76.94,0,0,0-14.91-10c-8.55-4.56-8.5-6.29-8.55-7.41s-.89-17.06-.89-17.06-5-5.09-8.59-3.42c0,0-1.92,1.68-1.74,3.42,0,0-2.43.34-2.44,2.43,0,0-2.92,1.81-2,3.66,0,0-2.44,2.06-1.4,4.13,0,0-.53,1.3,1.1,0,2.89-2.28,5.18,2.42,5.17,2.28a44.6,44.6,0,0,0,1.14,8.55c1,3.34,4.21,2.82,4.38,3.41s3.73,2.86,7.37,10,12.64,21.42,21.3,21.94c0,0,6.27,2.28,7.8-1.14a25.6,25.6,0,0,0,.75-6.27"/>
          <g>
            <path class="cls-10" d="M89.06,77.25a8.83,8.83,0,0,0-6.27-1.14"/>
            <path class="cls-9" d="M89,77.29c-.64,0-1.16,0-1.67-.09s-1-.12-1.48-.19-1-.18-1.47-.31a8,8,0,0,1-1.61-.54l0-.1a11.2,11.2,0,0,1,3.27,0,8,8,0,0,1,3,1.19Z"/>
          </g>
          <g>
            <path class="cls-10" d="M87.92,80.09a16.78,16.78,0,0,0-7.34-1.47"/>
            <path class="cls-9" d="M87.9,80.14a14.84,14.84,0,0,0-1.82-.49,16.7,16.7,0,0,0-1.83-.32c-.61-.08-1.23,0-1.83-.16a10.55,10.55,0,0,1-1.84-.5v-.1a4.53,4.53,0,0,1,1.94-.4,6.55,6.55,0,0,1,1.9.38,14,14,0,0,1,3.53,1.5Z"/>
          </g>
          <g>
            <path class="cls-10" d="M85.64,83.51A16.78,16.78,0,0,0,78.3,82"/>
            <path class="cls-9" d="M85.62,83.56a14.84,14.84,0,0,0-1.82-.49A16.7,16.7,0,0,0,82,82.75c-.61-.08-1.23,0-1.83-.16a10.55,10.55,0,0,1-1.84-.5V82a4.53,4.53,0,0,1,1.94-.4,6.55,6.55,0,0,1,1.9.38,14,14,0,0,1,3.53,1.5Z"/>
          </g>
        </g>
      </g>
      <g>
        <path class="cls-15" d="M80.17,49.27s6.23,8.14,6.6,10c0,0-.59,4.9-8.63,5.5C78.14,64.77,72.33,48.34,80.17,49.27Z"/>
        <path class="cls-3" d="M77.48,32.42S53.75,13.11,39.39,35.87c0,0-2.37,17.81,7.25,33.27,0,0,12.16,18.08,27.35,2.66,0,0,4.53-3.06,7.05-19.37C81,52.43,81.56,34.48,77.48,32.42Z"/>
        <g>
          <g>
            <path class="cls-16" d="M81.44,29.3s11.52,7.09,17.86,7c0,0-4.64,6-5.14,12.67,0,0-8.3-8.49-11.06-6.88Z"/>
            <g>
              <path class="cls-17" d="M97.2,39.13a64.51,64.51,0,0,1-10.67-4"/>
              <path class="cls-9" d="M97.07,39.62c-1.83-.6-3.61-1.26-5.38-2a45.27,45.27,0,0,1-5.16-2.47,46.19,46.19,0,0,0,5.33,2c1.8.56,3.64,1.06,5.47,1.48Z"/>
            </g>
            <g>
              <path class="cls-17" d="M95.12,44.18a31.83,31.83,0,0,1-6.76-4"/>
              <path class="cls-9" d="M94.92,44.65a36,36,0,0,1-3.44-2.06,25.49,25.49,0,0,1-3.12-2.45,25.15,25.15,0,0,0,3.38,2,33,33,0,0,0,3.57,1.56Z"/>
            </g>
          </g>
          <path class="cls-15" d="M77.23,50.78s.44-6.55-1.37-10.23c0,0-2.22-6.19-1-7.69,0,0-9-8.65-18-2.66,0,0-11.41,6.2-17.19,5.47A39.5,39.5,0,0,0,41,55.3S38.53,56,34,48c0,0-9.52-4.46.58-10.3,0,0,.69-7.23-.75-12.2,0,0-1.26-12.11,10.65-16.28,0,0,19.35-4.39,29.28,3.76l.32.27s4.86,15.73,6.84,18c0,0,9.82,5.18,4.09,11.52,0,0-4.71,3.27-4.15,6.61A4.37,4.37,0,0,1,77.23,50.78Z"/>
          <g>
            <path class="cls-16" d="M76.79,12.76s-4.16,0-5.66,1.48c0,0-7-1.56-10.7-.94,0,0-12.51-6-17.13-3.71,0,0-10.78,3.34-9.8,16.22,0,0,3.12,7.09.31,12.27,0,0,6.51-13.11,31.51-12.6,0,0,13,2.39,15.8,6.53,0,0,2.69-6.77-1.69-8.78,0,0-2-2,.63-4.91C80.06,18.32,82,15.15,76.79,12.76Z"/>
            <g>
              <path class="cls-17" d="M71.13,14.24S47.67,8.54,33.5,25.81"/>
              <path class="cls-9" d="M71.13,14.24A44.29,44.29,0,0,0,66,13.75a49,49,0,0,0-5.14,0,46.32,46.32,0,0,0-10.09,1.57,37,37,0,0,0-9.36,4,31.21,31.21,0,0,0-4.16,3,38,38,0,0,0-3.75,3.54A29.66,29.66,0,0,1,41,18.65a32.4,32.4,0,0,1,9.51-4.3A39.32,39.32,0,0,1,60.84,13,38.69,38.69,0,0,1,71.13,14.24Z"/>
            </g>
            <g>
              <path class="cls-17" d="M34.9,29.42S46.88,13.94,73,17.83"/>
              <path class="cls-9" d="M34.9,29.42a25.57,25.57,0,0,1,3.58-3.78,34.55,34.55,0,0,1,4.23-3.07,38.07,38.07,0,0,1,9.58-4.2c.85-.23,1.71-.4,2.56-.6a18.82,18.82,0,0,1,2.58-.45c.87-.11,1.73-.25,2.6-.32l2.62-.1c.43,0,.87,0,1.3,0l1.31.07,2.6.13c1.73.2,3.45.49,5.15.77-1.73-.06-3.45-.25-5.17-.28H64c-.42,0-.85.07-1.28.11l-2.56.2c-.86.09-1.7.26-2.54.38l-1.27.2c-.43.06-.84.19-1.26.28-.83.2-1.66.38-2.49.6a44.07,44.07,0,0,0-9.46,3.9A35.24,35.24,0,0,0,34.9,29.42Z"/>
            </g>
            <g>
              <path class="cls-17" d="M34.39,18.07s9.23-7.7,16.29-5.78"/>
              <path class="cls-9" d="M34.39,18.07a21.09,21.09,0,0,1,3.45-2.88,23.1,23.1,0,0,1,4-2.19,16.16,16.16,0,0,1,4.39-1.21,9.35,9.35,0,0,1,4.49.5,13.77,13.77,0,0,0-4.36.27,23.22,23.22,0,0,0-4.13,1.36,39.86,39.86,0,0,0-3.94,1.93C37,16.56,35.67,17.29,34.39,18.07Z"/>
            </g>
          </g>
          <path class="cls-18" d="M52.81,67.07s7.41.55,9.72-1.62-6-2.6-6-2.6Z"/>
          <path class="cls-15" d="M53,59.58s-5.45,5.11-1.86,11.11c0,0,2.13-3.27,4.56-6.27a29.23,29.23,0,0,1,9.12,1.71c5,1.89,5.59.1,5.59.1S66,60.43,63.7,59.29C62.23,58.56,57.43,57,57.43,57"/>
          <g>
            <g>
              <g>
                <ellipse class="cls-2" cx="63.99" cy="45.07" rx="4.36" ry="4.48" transform="translate(-0.46 89.48) rotate(-69.73)"/>
                <path class="cls-19" d="M59.66,45.83a4.08,4.08,0,0,0,1.92,2.68,4.15,4.15,0,0,0,3.14.4,3.84,3.84,0,0,0,2.77-4.43,4,4,0,0,0-7-1.85A3.92,3.92,0,0,0,59.66,45.83Zm-.1,0a4.33,4.33,0,0,1,.7-3.35,4.44,4.44,0,0,1,2.91-1.82,4.62,4.62,0,0,1,3.37.74,4.55,4.55,0,0,1,1.93,2.86,4.4,4.4,0,0,1-.73,3.38,4.48,4.48,0,0,1-2.93,1.8,4.66,4.66,0,0,1-3.36-.76A4.52,4.52,0,0,1,59.56,45.85Z"/>
              </g>
              <ellipse class="cls-20" cx="64.13" cy="45.07" rx="2.45" ry="2.25"/>
            </g>
            <ellipse class="cls-2" cx="62.25" cy="44.62" rx="0.43" ry="0.58" transform="translate(-1.13 87.62) rotate(-69.79)"/>
          </g>
          <g>
            <g>
              <ellipse class="cls-2" cx="46.92" cy="47.71" rx="4.12" ry="3.98" transform="translate(-13.63 19.21) rotate(-20.27)"/>
              <path class="cls-19" d="M51,48.41a4.72,4.72,0,0,1-4.88,3.72,4.58,4.58,0,0,1-3.21-1.62A4.44,4.44,0,0,1,42,46.85a4.61,4.61,0,0,1,2.17-3,4.76,4.76,0,0,1,3.54-.5A4.37,4.37,0,0,1,51,48.41Zm-.09,0a3.78,3.78,0,0,0-.65-3,3.92,3.92,0,0,0-2.6-1.57,4.11,4.11,0,0,0-3,.68A4,4,0,0,0,43,47.05a3.77,3.77,0,0,0,.62,3,3.93,3.93,0,0,0,2.59,1.58,4.15,4.15,0,0,0,3-.66A4.06,4.06,0,0,0,50.9,48.39Z"/>
            </g>
            <ellipse class="cls-20" cx="47.93" cy="47.91" rx="2.45" ry="2.25"/>
            <ellipse class="cls-2" cx="45.74" cy="46.89" rx="0.43" ry="0.58" transform="translate(-14.07 73.62) rotate(-69.79)"/>
          </g>
          <g>
            <path class="cls-10" d="M51.46,43.61s-1.49,9.2.66,14.27c0,0,2.88,5.24,8.23-1.53a6.52,6.52,0,0,0-.44-4.68"/>
            <path class="cls-9" d="M51.46,43.61c-.07,1.21-.14,2.4-.15,3.6s0,2.4,0,3.58a31.9,31.9,0,0,0,.35,3.54,14.51,14.51,0,0,0,.89,3.35l0,0a3.77,3.77,0,0,0,1.63,1.46,2.92,2.92,0,0,0,2.14,0,6,6,0,0,0,1.06-.5c.31-.25.67-.44,1-.72a17.1,17.1,0,0,0,1.76-1.75l0,.08a4.91,4.91,0,0,0,.26-1.1A6.4,6.4,0,0,0,60.39,54a7.44,7.44,0,0,0-.48-2.32A6.48,6.48,0,0,1,60.72,54a5.68,5.68,0,0,1-.1,2.49v0l0,0a17.76,17.76,0,0,1-1.7,2c-.31.31-.68.57-1,.86a7,7,0,0,1-1.22.63,3.67,3.67,0,0,1-2.82,0,4.61,4.61,0,0,1-2.12-1.88v0a18.74,18.74,0,0,1-1.07-7.27c0-1.21.11-2.42.25-3.62A32.88,32.88,0,0,1,51.46,43.61Z"/>
          </g>
          <g>
            <g>
              <line class="cls-10" x1="61.81" y1="76.14" x2="60.81" y2="79.15"/>
              <path class="cls-9" d="M61.85,76.16a2.29,2.29,0,0,1-1,3l-.07,0,.46-1.52.54-1.49Z"/>
            </g>
            <g>
              <line class="cls-10" x1="65.48" y1="75.39" x2="66.94" y2="78.23"/>
              <path class="cls-9" d="M65.51,75.37A2.34,2.34,0,0,1,67,78.22l-.07,0-.77-1.4-.7-1.44Z"/>
            </g>
            <g>
              <line class="cls-10" x1="63.93" y1="72.72" x2="63.67" y2="75.86"/>
              <path class="cls-9" d="M64,72.72a2.24,2.24,0,0,1,.51,1.62,2.2,2.2,0,0,1-.77,1.52h-.07l.09-1.57.17-1.56Z"/>
            </g>
            <g>
              <line class="cls-10" x1="53.02" y1="71.12" x2="50.99" y2="73.65"/>
              <path class="cls-9" d="M53.05,71.14a2.29,2.29,0,0,1-.52,1.67,2.34,2.34,0,0,1-1.52.86l0,0,1-1.28,1-1.24Z"/>
            </g>
            <g>
              <line class="cls-10" x1="69.7" y1="74.06" x2="71.16" y2="76.9"/>
              <path class="cls-9" d="M69.73,74A2.21,2.21,0,0,1,71,75.17a2.26,2.26,0,0,1,.17,1.71l-.07,0-.76-1.41-.7-1.44Z"/>
            </g>
            <g>
              <line class="cls-10" x1="73.11" y1="70.52" x2="74.57" y2="73.37"/>
              <path class="cls-9" d="M73.14,70.51a2.21,2.21,0,0,1,1.3,1.13,2.26,2.26,0,0,1,.17,1.71l-.07,0L73.78,72l-.7-1.44Z"/>
            </g>
            <g>
              <line class="cls-10" x1="68.5" y1="70.45" x2="71.26" y2="72.32"/>
              <path class="cls-9" d="M68.52,70.42a2.39,2.39,0,0,1,1.74.41,2.46,2.46,0,0,1,1,1.46l0,.06-1.39-.9-1.36-1Z"/>
            </g>
            <g>
              <line class="cls-10" x1="71.14" y1="67.01" x2="73.23" y2="68.43"/>
              <path class="cls-9" d="M71.16,67a1.6,1.6,0,0,1,1.4.18,1.62,1.62,0,0,1,.69,1.24l0,.06-1.07-.68-1-.74Z"/>
            </g>
            <g>
              <line class="cls-10" x1="75.12" y1="68.1" x2="76.59" y2="70.95"/>
              <path class="cls-9" d="M75.16,68.09a2.22,2.22,0,0,1,1.29,1.13,2.26,2.26,0,0,1,.17,1.71l-.07,0-.76-1.41-.7-1.44Z"/>
            </g>
            <g>
              <line class="cls-10" x1="76.84" y1="65.93" x2="79.55" y2="67.85"/>
              <path class="cls-9" d="M76.86,65.9a2.37,2.37,0,0,1,1.72.44,2.42,2.42,0,0,1,1,1.48l0,.06L78.15,67l-1.34-1Z"/>
            </g>
            <g>
              <line class="cls-10" x1="57.68" y1="75.87" x2="56.68" y2="78.88"/>
              <path class="cls-9" d="M57.72,75.89a2.29,2.29,0,0,1-1,3l-.07,0,.46-1.52.54-1.49Z"/>
            </g>
            <g>
              <line class="cls-10" x1="53.37" y1="73.85" x2="52.37" y2="76.86"/>
              <path class="cls-9" d="M53.41,73.86a2.22,2.22,0,0,1,.1,1.7,2.25,2.25,0,0,1-1.1,1.31l-.07,0,.46-1.51.54-1.49Z"/>
            </g>
            <g>
              <line class="cls-10" x1="47.83" y1="68.94" x2="46.83" y2="71.95"/>
              <path class="cls-9" d="M47.86,69a2.18,2.18,0,0,1,.11,1.7,2.27,2.27,0,0,1-1.1,1.3l-.07,0,.46-1.52.53-1.49Z"/>
            </g>
            <g>
              <line class="cls-10" x1="50.35" y1="71.32" x2="49.35" y2="74.32"/>
              <path class="cls-9" d="M50.38,71.33a2.18,2.18,0,0,1,.11,1.7,2.28,2.28,0,0,1-1.1,1.31l-.08,0,.47-1.51.53-1.5Z"/>
            </g>
            <g>
              <line class="cls-10" x1="46.35" y1="66.88" x2="45.35" y2="69.89"/>
              <path class="cls-9" d="M46.38,66.89a2.2,2.2,0,0,1,.11,1.71,2.25,2.25,0,0,1-1.11,1.3l-.07,0,.47-1.52.53-1.49Z"/>
            </g>
          </g>
          <g>
            <path class="cls-3" d="M81.48,45.33a5.74,5.74,0,0,1,4.31-2.72c1.93,0,3.07,1.08,3.09,3.3s-.26,4-2.34,5.63-4.55,2.07-6,1"/>
            <path class="cls-21" d="M81.87,51.45c.25-.14.5-.28.73-.43a2.37,2.37,0,0,0,.94-1.12,1.48,1.48,0,0,0-.06-1.25,1.89,1.89,0,0,0-.47-.6l-.12-.11a.3.3,0,0,1,0-.08c.08-.16.16-.32.26-.48a9.19,9.19,0,0,1,1-1.33,3.69,3.69,0,0,1,1.46-1.12,1.75,1.75,0,0,1,1.06-.06c.33.08.6.3.59.55a.74.74,0,0,0-.65-.44,1.63,1.63,0,0,0-.9.1,3.7,3.7,0,0,0-1.29,1.09,13.62,13.62,0,0,0-1,1.28c-.12.16-.23.33-.34.5a2,2,0,0,1,.64.62A1.53,1.53,0,0,1,83.85,50a2.49,2.49,0,0,1-1.09,1.2,7.55,7.55,0,0,1-.81.39,2,2,0,0,1-.92.2A2,2,0,0,0,81.87,51.45Zm4.94-2.94a2,2,0,0,0,.11-1.4,8.49,8.49,0,0,0-.54-1.39,5,5,0,0,1,.78,1.34,1.94,1.94,0,0,1,0,1.51,3.4,3.4,0,0,1-1.26,1.27,10.87,10.87,0,0,1-1.74.87,17.7,17.7,0,0,0,1.58-1A3.3,3.3,0,0,0,86.81,48.51Z"/>
          </g>
          <g>
            <path class="cls-3" d="M38.86,51.68c-1.35-1-3.07-2-4.94-1.6s-2.65,1.79-2,3.93,1.4,3.82,3.87,4.88,5,.9,6.08-.47"/>
            <path class="cls-21" d="M41.12,57.75a2,2,0,0,1-.94,0,8.43,8.43,0,0,1-.9-.19,2.68,2.68,0,0,1-1.4-.89,1.59,1.59,0,0,1-.26-1.36,1.87,1.87,0,0,1,.45-.76l-.47-.41a15.12,15.12,0,0,0-1.35-1,3.93,3.93,0,0,0-1.56-.73,1.55,1.55,0,0,0-.9.11c-.28.12-.51.33-.5.58-.08-.24.12-.51.42-.67a1.82,1.82,0,0,1,1-.2,4,4,0,0,1,1.73.74,9.82,9.82,0,0,1,1.32,1c.13.13.26.26.38.4l.06.07-.09.13a1.86,1.86,0,0,0-.28.69,1.54,1.54,0,0,0,.3,1.23,2.57,2.57,0,0,0,1.23.85c.26.09.54.17.83.24A1.89,1.89,0,0,0,41.12,57.75ZM36,56.92c.57.23,1.2.4,1.81.59a12.28,12.28,0,0,1-1.93-.43,3.6,3.6,0,0,1-1.57-.92,2,2,0,0,1-.48-1.45,4.82,4.82,0,0,1,.38-1.48,8.19,8.19,0,0,0-.13,1.47,2.07,2.07,0,0,0,.5,1.32A3.58,3.58,0,0,0,36,56.92Z"/>
          </g>
          <path class="cls-20" d="M56.86,36.5S58,40,60.22,40.25,70,41.63,70,41.63s-4.73-3.49-7-4-6.1-1.71-6.1-1.71Z"/>
          <path class="cls-20" d="M50.65,36.82s.07,3.7-2,4.66-7.21,4.13-7.21,4.13,1.74-4.46,3.74-5.69,5.25-3.64,5.25-3.64Z"/>
        </g>
      </g>
    </g>
  </g>
</svg>
