<svg xmlns="http://www.w3.org/2000/svg" width="205.97" height="204.05" viewBox="0 0 205.97 204.05">
  <defs>
    <style>
      .cls-1 {
        isolation: isolate;
      }

      .cls-2 {
        opacity: 0.5;
      }

      .cls-3 {
        fill: #fff;
      }

      .cls-4, .cls-6, .cls-7 {
        fill: #89b979;
      }

      .cls-5 {
        fill: #639a26;
      }

      .cls-10, .cls-12, .cls-14, .cls-6 {
        mix-blend-mode: multiply;
      }

      .cls-23, .cls-7 {
        mix-blend-mode: screen;
      }

      .cls-10, .cls-8, .cls-9 {
        fill: #d4688c;
      }

      .cls-8 {
        stroke: #893354;
      }

      .cls-19, .cls-20, .cls-21, .cls-22, .cls-8 {
        stroke-miterlimit: 10;
      }

      .cls-11, .cls-20, .cls-22 {
        fill: #f4a8b3;
      }

      .cls-12, .cls-14, .cls-15, .cls-19, .cls-21, .cls-23 {
        fill: #f088a1;
      }

      .cls-12 {
        opacity: 0.4;
      }

      .cls-13 {
        fill: #c61e4b;
      }

      .cls-14 {
        opacity: 0.8;
      }

      .cls-16 {
        fill: #e94e6a;
      }

      .cls-17 {
        fill: #d32d50;
      }

      .cls-18 {
        fill: #c13352;
      }

      .cls-19 {
        stroke: #c61738;
      }

      .cls-20 {
        stroke: #aa3047;
      }

      .cls-21 {
        stroke: #ce3e3e;
      }

      .cls-22 {
        stroke: #db2e58;
      }

      .cls-24 {
        fill: #d33356;
      }
    </style>
  </defs>
  <g class="cls-1">
    <g id="Layer_1" data-name="Layer 1">
      <g>
        <path class="cls-2" d="M108.15,204.05a19.84,19.84,0,0,1-6.87-1.11,8.45,8.45,0,0,1-5.51-7c0-.06,0-.11,0-.16a9.08,9.08,0,0,1-.05-.92l-.92-69.21a49.78,49.78,0,0,1-16.08,7.64,44.88,44.88,0,0,1-11,1.32,45.92,45.92,0,0,1-17.58-3.38,54.24,54.24,0,0,1-13.06-7.88c-.82-.67-1.61-1.37-2.45-2.12a38.09,38.09,0,0,0-3.92-3.2,14.21,14.21,0,0,0-2.11-.5A8.14,8.14,0,0,1,22,112a8.84,8.84,0,0,1,2.31-8.91q1.49-1.47,3.06-2.85a56.16,56.16,0,0,1-9.6-6.47c-1-.81-2-1.72-3.07-2.77l-.53-.51c-1-1-1.95-2-2.82-2.92l-.23-.26c-.51-.58-1-1.16-1.51-1.76l-.37-.38a15.27,15.27,0,0,1-3.73-5.26,8,8,0,0,1,3.91-10,37.13,37.13,0,0,1,10.37-3,125.79,125.79,0,0,1,15.11-1.67l.49,0c-.59-1.26-1.15-2.54-1.69-3.84a69.16,69.16,0,0,1-4.79-18.58c-.38-3.42-.54-6.78-.7-10-.05-1-.09-2-.15-3a8,8,0,0,1,6.76-8.34l.83-.1h.07a26.87,26.87,0,0,1,3-.17,31.52,31.52,0,0,1,4.25.31l.11,0q.75.11,1.5.24l.44.09,1.1.22,1.15.27.38.09,1.45.38A70.48,70.48,0,0,1,59,26.12l.16-.22A8,8,0,0,1,68.52,23a54.28,54.28,0,0,1,4.09-8.54c.16-.26.34-.57.53-.91a32.27,32.27,0,0,1,4-5.91A8,8,0,0,1,87.66,6.44c1.48,1,3.06,2.15,4.67,3.4a48.55,48.55,0,0,1,10.31,11.31c.51.74,1,1.5,1.51,2.28A8.52,8.52,0,0,1,108.86,22l.49,0,.24,0a8.47,8.47,0,0,1,2.76.72A67,67,0,0,1,123,12.09,11.84,11.84,0,0,1,130.59,9c2.12,0,6.1.72,9,5.54a52.72,52.72,0,0,1,4,8.27,8.46,8.46,0,0,1,3,2.22q2.67-1.8,5.33-3.38l.87-.52a53.88,53.88,0,0,1,9.21-4.7h0a12.94,12.94,0,0,1,5.18-1.21,9.19,9.19,0,0,1,4.84,1.35,10.49,10.49,0,0,1,4.74,7.67v.07a56.61,56.61,0,0,1,1.22,22.4,2,2,0,0,0,0,.24,49.33,49.33,0,0,1,8.71-.82,36.48,36.48,0,0,1,14.27,2.74,8.24,8.24,0,0,1,5,6.72,8.63,8.63,0,0,1,.1,1,9.09,9.09,0,0,1-2.58,6.49c-1.21,1.25-2.42,2.5-3.63,3.77C192.54,74.35,185.1,82.12,175.87,88a8.19,8.19,0,0,1,2.48,5.23,8.77,8.77,0,0,1-2.7,7c-5.45,5.39-12.3,11.32-21.47,14.15a79,79,0,0,1-23.69,3.52h0c-.67,0-1.35,0-2,0q-3.24-.08-6.16-.39c1,65,1,75.92.85,77.77a8.48,8.48,0,0,1-6.23,7.55A34.49,34.49,0,0,1,108.15,204.05Z"/>
        <path class="cls-3" d="M103.15,199.05a19.84,19.84,0,0,1-6.87-1.11,8.45,8.45,0,0,1-5.51-7c0-.06,0-.11,0-.16a9.08,9.08,0,0,1-.05-.92l-.92-69.21a49.78,49.78,0,0,1-16.08,7.64,44.88,44.88,0,0,1-11,1.32,45.92,45.92,0,0,1-17.58-3.38,54.24,54.24,0,0,1-13.06-7.88c-.82-.67-1.61-1.37-2.45-2.12a38.09,38.09,0,0,0-3.92-3.2,14.21,14.21,0,0,0-2.11-.5A8.14,8.14,0,0,1,17,107a8.84,8.84,0,0,1,2.31-8.91q1.49-1.47,3.06-2.85a56.16,56.16,0,0,1-9.6-6.47c-1-.81-2-1.72-3.07-2.77l-.53-.51c-1-1-1.95-2-2.82-2.92l-.23-.26c-.51-.58-1-1.16-1.51-1.76l-.37-.38A15.27,15.27,0,0,1,.53,74.88a8,8,0,0,1,3.91-10,37.13,37.13,0,0,1,10.37-3,125.79,125.79,0,0,1,15.11-1.67l.49,0c-.59-1.26-1.15-2.54-1.69-3.84a69.16,69.16,0,0,1-4.79-18.58c-.38-3.42-.54-6.78-.7-10-.05-1-.09-2-.15-3a8,8,0,0,1,6.76-8.34l.83-.1h.07a26.87,26.87,0,0,1,3-.17,31.52,31.52,0,0,1,4.25.31l.11,0q.75.11,1.5.24l.44.09,1.1.22,1.15.27.38.09,1.45.38A70.48,70.48,0,0,1,54,21.12l.16-.22A8,8,0,0,1,63.52,18a54.28,54.28,0,0,1,4.09-8.54c.16-.26.34-.57.53-.91a32.27,32.27,0,0,1,4-5.91A8,8,0,0,1,82.66,1.44c1.48,1,3.06,2.15,4.67,3.4A48.55,48.55,0,0,1,97.64,16.15c.51.74,1,1.5,1.51,2.28A8.52,8.52,0,0,1,103.86,17l.49,0,.24,0a8.47,8.47,0,0,1,2.76.72A67,67,0,0,1,118,7.09,11.84,11.84,0,0,1,125.59,4c2.12,0,6.1.72,9,5.54a52.72,52.72,0,0,1,4,8.27,8.46,8.46,0,0,1,3,2.22q2.67-1.8,5.33-3.38l.87-.52a53.88,53.88,0,0,1,9.21-4.7h0a12.94,12.94,0,0,1,5.18-1.21,9.19,9.19,0,0,1,4.84,1.35,10.49,10.49,0,0,1,4.74,7.67v.07a56.61,56.61,0,0,1,1.22,22.4,2,2,0,0,0,0,.24,49.33,49.33,0,0,1,8.71-.82,36.48,36.48,0,0,1,14.27,2.74,8.24,8.24,0,0,1,5,6.72,8.63,8.63,0,0,1,.1,1,9.09,9.09,0,0,1-2.58,6.49c-1.21,1.25-2.42,2.5-3.63,3.77C187.54,69.35,180.1,77.12,170.87,83a8.19,8.19,0,0,1,2.48,5.23,8.77,8.77,0,0,1-2.7,7c-5.45,5.39-12.3,11.32-21.47,14.15a79,79,0,0,1-23.69,3.52h0c-.67,0-1.35,0-2,0q-3.24-.08-6.16-.39c1,65,1,75.92.85,77.77a8.48,8.48,0,0,1-6.23,7.55A34.49,34.49,0,0,1,103.15,199.05Z"/>
        <g>
          <g>
            <g>
              <path class="cls-4" d="M109.71,189.64c.41-5.44-2-148.12-2-148.12L97.21,41l2,148.8s0,.06,0,.15C102.08,191,106.39,190.53,109.71,189.64Z"/>
              <path class="cls-5" d="M103.15,191.05h0a11.91,11.91,0,0,1-4.12-.62.47.47,0,0,1-.31-.4c0-.12,0-.2,0-.2L96.73,41a.47.47,0,0,1,.15-.35.45.45,0,0,1,.35-.13l10.5.5a.47.47,0,0,1,.46.47c0,3.8,2.4,142.76,2,148.16a.48.48,0,0,1-.36.42A26.42,26.42,0,0,1,103.15,191.05Zm-3.48-1.41c2.27.72,5.93.56,9.58-.37.36-7.77-2-140.36-2-147.29l-9.55-.45Z"/>
            </g>
            <path class="cls-6" d="M107,189.75c.85-.16,1.49-.27,2.27-.48.41-5.45-1.54-147.75-1.54-147.75L97.21,41V80.16a50.39,50.39,0,0,1,3.91-3.63C101.51,76.22,106.4,174.33,107,189.75Z"/>
            <path class="cls-7" d="M100.17,130.14q-.44-15.1-.71-30.21c-.17-10.2-.42-20.39-.3-30.59.11-9.4.35-18.8.29-28.21L97.21,41s2.45,148.5,2.46,148.6a10.88,10.88,0,0,0,3.24.46C102.74,186.51,100.28,133.69,100.17,130.14Z"/>
          </g>
          <path class="cls-8" d="M192.9,51.64c0-.18,0-.35-.15-.42-11-4.68-24.75-.89-34.91,4.23A68.89,68.89,0,0,0,142.31,66.3,52,52,0,0,0,136.14,73c-.33.42-3.44,5.77-3.57,6l-.19-.13c-.24-.17-.59.13-.7.42a7.08,7.08,0,0,1-1.39-.61c-.15-.08-.4.22-.26.32a5.8,5.8,0,0,0,2.06.93c9.73,7.55,22.55,3.27,32.19-2.3,11-6.34,19.63-16.17,28.39-25.17C192.82,52.32,193.1,51.81,192.9,51.64Z"/>
          <path class="cls-9" d="M132.91,79.24c4.81-10.87,17.17-19.07,27.49-24,8.91-4.26,20.64-6.5,30.37-3.55-9.21.89-18.65,6.2-26.35,10.75-5.07,3-9.92,6.44-14.79,9.76-4,2.75-10.51,7.86-16.12,7.44Z"/>
          <path class="cls-10" d="M178.35,54.35c-7.12,2.43-13.61,6.29-20.39,9.49-.31.15-.75-.09-.62-.47a28.1,28.1,0,0,1,5.21-9.09c-.73.31-1.45.63-2.15,1-10.32,4.92-22.68,13.12-27.49,24l.6.41c5.61.42,12.08-4.69,16.12-7.44,4.87-3.32,9.72-6.76,14.79-9.76,6.29-3.72,13.74-7.94,21.28-9.85A39.89,39.89,0,0,0,178.35,54.35Z"/>
          <path class="cls-11" d="M167.68,74.36c-9.33,6.42-22.77,11.84-33.37,5.78a21,21,0,0,0,7.5-2.15c5-2.32,9.46-6.07,14.09-9,5.82-3.7,11.39-7.48,17.63-10.46,5.45-2.61,11.72-5.39,17.85-5.81C183.91,60.39,176.55,68.25,167.68,74.36Z"/>
          <path class="cls-12" d="M178.68,63.74c-6,5.26-13.42,10.41-21.24,12.36a.42.42,0,0,1-.33-.77c3.42-2.48,6.47-5.41,9.69-8.14-4.85,2.53-9.47,5.49-14.32,8a.42.42,0,0,1-.51-.66,130.44,130.44,0,0,1,10.55-9.82c-2.21,1.39-4.4,2.81-6.62,4.23-4.63,3-9.1,6.7-14.09,9a21,21,0,0,1-7.5,2.15c10.6,6.06,24,.64,33.37-5.78,8.7-6,15.95-13.66,23.27-21.21C186.41,55.93,182.78,60.15,178.68,63.74Z"/>
          <path class="cls-13" d="M100.08,89.39c-.06.14-.13.27-.19.4l-.1,0-.15.09c0-.13,0-.25,0-.37,0-.54-.79.09-.82.4,0,.13,0,.26,0,.39-3.21,1.27-6.8-.08-10.07-.66-3.56-.64-7.1-1.4-10.65-2.16-6.79-1.46-13.71-.57-20.5.54C45,90.12,34,94.76,24.92,103.78c-.13.13-.55.78-.11.84a24.21,24.21,0,0,1,4.26,1.1c3,1.68,5.84,4.65,8,6.38a46.16,46.16,0,0,0,11.15,6.75,39.12,39.12,0,0,0,23.55,1.68c12.17-3,27.84-15.48,27.92-29.32.1-.22.21-.45.31-.69a.8.8,0,0,0,.22-.56c.08-.2.16-.39.23-.59S100.16,89.21,100.08,89.39Z"/>
          <path class="cls-9" d="M64.8,88.07c7.59-.79,14.41,1,21.8,2.3,3.86.7,8.27,2.32,12.05.84-.06.41-.12.81-.19,1.2-6.79,11-21.43,18.28-33.57,20.24a50.38,50.38,0,0,1-21-1.14c-5.28-1.45-9.48-4.88-14.47-6.78a9.45,9.45,0,0,0-1.82-.6q-.79-.22-1.62-.39C36.74,93.5,50.23,89.57,64.8,88.07Z"/>
          <path class="cls-14" d="M86.6,90.37c-7.39-1.34-14.21-3.09-21.8-2.3-10.16,1.05-19.8,3.28-28.33,8a45,45,0,0,1,14,.58,120.32,120.32,0,0,0,28.91,2,.43.43,0,0,1,.3.72,41.05,41.05,0,0,1-12.62,6.77c4.85-1.42,9.65-3.25,14.52-4.52.33-.09.7.3.48.62-3.79,5.25-9.6,8.34-15.75,10.15,11.84-2.28,25.59-9.36,32.11-20,.07-.39.13-.79.19-1.2C94.87,92.69,90.46,91.07,86.6,90.37Z"/>
          <path class="cls-11" d="M63.74,120.38a38.26,38.26,0,0,1-23.6-7.48c-1.55-1.11-3.46-3-5.53-4.71,4.15,2.12,8.22,4.5,12.92,5.42A50.7,50.7,0,0,0,70.09,113c10.09-2.63,22.12-9.38,28-18.82C94.45,109.35,79.17,119.77,63.74,120.38Z"/>
          <g>
            <g>
              <path class="cls-15" d="M77.59,73.87c-.15,0-.37.37-.23.37S77.72,73.87,77.59,73.87Z"/>
              <path class="cls-16" d="M77.36,74.72a.54.54,0,0,1-.36-.16.58.58,0,0,1-.17-.36.87.87,0,0,1,.76-.81.57.57,0,0,1,.36.16.62.62,0,0,1,.16.36A.87.87,0,0,1,77.36,74.72Z"/>
            </g>
            <g>
              <path class="cls-15" d="M134.38,41.66a77.67,77.67,0,0,0-3.29-19.49,43.27,43.27,0,0,0-3.82-8.33c-1.28-2.16-2.24-1.49-4-.11-9.63,7.64-16.8,18.7-20.65,30.34a66.71,66.71,0,0,0-3.29,22.78,46.59,46.59,0,0,0,1.73,11.26,55.36,55.36,0,0,0,1.83,5.64c.12.3.25.65.39,1a8.29,8.29,0,0,0,1.65,4c1.46,1.81,4.94,2,6.9,1.17,5.41-2.3,9.81-6.68,13.25-11.35C132.74,68.22,135.07,54.25,134.38,41.66Z"/>
              <path class="cls-17" d="M109.25,90.89h0a6,6,0,0,1-4.67-1.83,8.72,8.72,0,0,1-1.75-4.23,3.72,3.72,0,0,1-.2-.49l-.16-.41a56.49,56.49,0,0,1-1.85-5.69,47.45,47.45,0,0,1-1.75-11.37,67.23,67.23,0,0,1,3.32-23A65.47,65.47,0,0,1,123,13.35c1.06-.83,1.81-1.38,2.6-1.38,1,0,1.67.93,2.09,1.62A44,44,0,0,1,131.54,22a78,78,0,0,1,3.32,19.62c.47,8.51-.13,24.68-9.37,37.23-4.12,5.59-8.65,9.46-13.46,11.5A7.07,7.07,0,0,1,109.25,90.89Zm16.34-78c-.48,0-1.13.49-2,1.17A64.46,64.46,0,0,0,103.1,44.22a66.33,66.33,0,0,0-3.28,22.62A46.56,46.56,0,0,0,101.54,78a57.09,57.09,0,0,0,1.82,5.59l.16.42c.07.19.14.38.22.58a8.13,8.13,0,0,0,1.58,3.89,5.08,5.08,0,0,0,3.93,1.46h0a6.36,6.36,0,0,0,2.41-.43c4.65-2,9-5.75,13.06-11.2,9.06-12.31,9.65-28.22,9.19-36.61a77,77,0,0,0-3.28-19.37,42.06,42.06,0,0,0-3.78-8.24C126.24,13.05,125.84,12.93,125.59,12.93Z"/>
            </g>
            <path class="cls-14" d="M134.38,41.66a77.67,77.67,0,0,0-3.29-19.49c-.23-.71-.49-1.43-.78-2.15A29.15,29.15,0,0,1,127,25.89c-3.21,4.5-7.76,9.12-13.08,11a.56.56,0,0,1-.69-.4A27.91,27.91,0,0,1,115.73,21a67.72,67.72,0,0,0-13.09,23.09,66.71,66.71,0,0,0-3.29,22.78,46.59,46.59,0,0,0,1.73,11.26,55.36,55.36,0,0,0,1.83,5.64c.12.3.25.65.39,1a8.29,8.29,0,0,0,1.65,4c1.46,1.81,4.94,2,6.9,1.17,5.41-2.3,9.81-6.68,13.25-11.35C132.74,68.22,135.07,54.25,134.38,41.66Z"/>
            <g>
              <path class="cls-15" d="M163.41,21.15c-.21-.86-.13-1.89-.95-2.41-.6-.37-2.05.41-2.5.57a51.61,51.61,0,0,0-8.81,4.6,117.86,117.86,0,0,0-16.1,11.64c-7.58,6.48-15,13.58-20.32,22.1a83.62,83.62,0,0,0-6.57,13.61A51.77,51.77,0,0,0,106,77.9c-.13.49-.23,1-.32,1.49,0,0,0,0,0,0-.75,2.42-2.1,5-1.62,7.56.55,2.89,5.06,2.74,7.13,2.68,6.23-.18,12.62-2.73,18.11-5.55,11.73-6,22.26-13.48,29.29-24.86,3.6-5.84,4.88-12.21,5.92-18.9A48.41,48.41,0,0,0,163.41,21.15Z"/>
              <path class="cls-18" d="M110,90.17c-1.43,0-5.77,0-6.36-3.09-.39-2.11.34-4.14,1.05-6.11.21-.56.41-1.12.58-1.68l0-.07c.09-.48.19-1,.31-1.44a57.62,57.62,0,0,1,2.14-6.7,83.63,83.63,0,0,1,6.61-13.68c5.58-9,13.46-16.26,20.42-22.22A120,120,0,0,1,150.91,23.5l.89-.54a46.43,46.43,0,0,1,8-4.1l.31-.13c.73-.32,2-.78,2.6-.39a2.66,2.66,0,0,1,1.06,2.09,6,6,0,0,0,.11.61A48.73,48.73,0,0,1,165,40.44c-1,6.35-2.27,13.05-6,19.07-6.19,10-15.28,17.74-29.47,25-7,3.63-13,5.46-18.31,5.6Q110.65,90.17,110,90.17Zm52.08-71a4.93,4.93,0,0,0-1.54.49l-.38.15a45.6,45.6,0,0,0-7.83,4l-.9.54a119.29,119.29,0,0,0-16,11.59c-6.91,5.91-14.71,13.14-20.23,22a82.64,82.64,0,0,0-6.53,13.53A53.39,53.39,0,0,0,106.5,78c-.12.47-.22,1-.31,1.45a.64.64,0,0,1-.08.19c-.14.48-.35,1.06-.56,1.64-.66,1.84-1.35,3.75-1,5.6.3,1.56,2.07,2.31,5.42,2.31l1.2,0c5.15-.14,11-1.94,17.93-5.49,14-7.21,23-14.83,29.1-24.69,3.62-5.87,4.88-12.47,5.86-18.72a48,48,0,0,0-1.1-19c0-.23-.09-.46-.13-.69-.11-.72-.21-1.18-.61-1.43A.41.41,0,0,0,162,19.12Z"/>
            </g>
            <path class="cls-12" d="M163.41,21.15c-.2-.83-.14-1.82-.87-2.34-1.62,3.65-3,7.41-4.77,11a74.83,74.83,0,0,1-7.07,11.14,149.66,149.66,0,0,1-17.27,18.85A226.5,226.5,0,0,1,114.09,76c-3.07,2.3-6.21,4.53-9.47,6.56a9.09,9.09,0,0,0-.55,4.48c.55,2.89,5.06,2.74,7.13,2.68,6.23-.18,12.62-2.73,18.11-5.55,11.73-6,22.26-13.48,29.29-24.86,3.6-5.84,4.88-12.21,5.92-18.9A48.41,48.41,0,0,0,163.41,21.15Z"/>
            <path class="cls-12" d="M163.41,21.15c-.18-.74-.16-1.61-.67-2.16a72.08,72.08,0,0,1-22.68,52.48.56.56,0,0,1-.88-.68,35.38,35.38,0,0,0,2.19-18.9q-3.85,4.06-7.94,7.89A226.5,226.5,0,0,1,114.09,76c-3.07,2.3-6.21,4.53-9.47,6.56a9.09,9.09,0,0,0-.55,4.48c.55,2.89,5.06,2.74,7.13,2.68,6.23-.18,12.62-2.73,18.11-5.55,11.73-6,22.26-13.48,29.29-24.86,3.6-5.84,4.88-12.21,5.92-18.9A48.41,48.41,0,0,0,163.41,21.15Z"/>
            <path class="cls-19" d="M102.68,42.76A123.89,123.89,0,0,0,91,20.67a40.63,40.63,0,0,0-8.61-9.51C81,10.06,79.55,9,78.08,8a35.59,35.59,0,0,0-3.6,5.58,50.88,50.88,0,0,0-6.32,18.24,48.12,48.12,0,0,0,9.72,37.25A44.55,44.55,0,0,0,89,79.15c4.58,2.89,9.51,4.16,14.75,5.28,2.23.47,5.72,1.3,8.15.22A116.63,116.63,0,0,0,102.68,42.76Z"/>
            <path class="cls-14" d="M102.68,42.76A123.89,123.89,0,0,0,91,20.67a40.63,40.63,0,0,0-8.61-9.51q-.94-.73-1.92-1.44c5.44,10,7.32,22.51,4.07,33a.57.57,0,0,1-1,.14,73.7,73.7,0,0,0-8.63-12.52,47.19,47.19,0,0,0-4.75-4.84L69.64,25a56.69,56.69,0,0,0-1.48,6.79,48.12,48.12,0,0,0,9.72,37.25A44.55,44.55,0,0,0,89,79.15c4.58,2.89,9.51,4.16,14.75,5.28,2.23.47,5.72,1.3,8.15.22A116.63,116.63,0,0,0,102.68,42.76Z"/>
            <path class="cls-8" d="M87.58,79.15a96.52,96.52,0,0,0-27.58-9,138,138,0,0,0-29.69-2,115.44,115.44,0,0,0-14.13,1.57A29.49,29.49,0,0,0,8,72c.49,1.28,2.07,2.53,2.75,3.35a54.8,54.8,0,0,0,7.19,7.26c10.32,8.68,24.76,12.61,38,13.87a89.74,89.74,0,0,0,35.21-3.31c3.75-1.19,8-2.33,11.56-4.24A105.54,105.54,0,0,0,87.58,79.15Z"/>
            <path class="cls-20" d="M59.23,86.51c-4.18-1.38-8.3-3-12.33-4.74-4.71-2.08-9.22-4.63-14-6.57a40.25,40.25,0,0,0-14.93-3,47.27,47.27,0,0,0-9.57.54,29.79,29.79,0,0,0,2.34,2.61,54.8,54.8,0,0,0,7.19,7.26c10.32,8.68,24.76,12.61,38,13.87a89.74,89.74,0,0,0,35.21-3.31c3.75-1.19,8-2.33,11.56-4.24l-.11-.09C88.7,93.49,72.92,91,59.23,86.51Z"/>
            <path class="cls-12" d="M21.08,74.82A69.06,69.06,0,0,1,33.4,80.35c7.49,4.09,14.94,8,23.23,10.21,10.9,2.93,22.55,3.54,33.33.65-10.34.64-21.06-1.51-30.73-4.7-4.18-1.38-8.3-3-12.33-4.74-4.71-2.08-9.22-4.63-14-6.57a40.25,40.25,0,0,0-14.93-3,52.42,52.42,0,0,0-8.2.32C13.48,73.55,17.38,73.67,21.08,74.82Z"/>
            <path class="cls-14" d="M87.58,79.15a96.52,96.52,0,0,0-27.58-9,148,148,0,0,0-17.9-2A41.27,41.27,0,0,0,65.48,88.45c.49.16.57,1,0,1.09-12.16,2.49-24.81.89-36.3-3.64A103.86,103.86,0,0,1,13.8,78.08c-.54-.33-1.06-.66-1.58-1a56.46,56.46,0,0,0,5.72,5.54c10.32,8.68,24.76,12.61,38,13.87a89.74,89.74,0,0,0,35.21-3.31c3.75-1.19,8-2.33,11.56-4.24A105.54,105.54,0,0,0,87.58,79.15Z"/>
            <path class="cls-21" d="M90.65,84A105.63,105.63,0,0,0,87.5,71.07c-2.89-8.87-6.91-17.31-13.2-24.29C68.63,40.5,62,34.37,54.57,30.3A57,57,0,0,0,42,25.42c-3.59-1-7.31-1.73-11-1.15.23,4.17.34,8.36.81,12.51a60.87,60.87,0,0,0,4.23,16.43c3.8,9.19,9.5,18.38,17.08,24.93,8.43,7.28,19.06,9.25,30,9.06,2.33,0,5,0,7.84,0A22.39,22.39,0,0,0,90.65,84Z"/>
            <path class="cls-14" d="M90.65,84A105.63,105.63,0,0,0,87.5,71.07c-2.89-8.87-6.91-17.31-13.2-24.29C68.63,40.5,62,34.37,54.57,30.3A57,57,0,0,0,42,25.42,28,28,0,0,0,31.71,24.2,89,89,0,0,0,41.88,53.73C44.82,58.88,48,64.11,52.16,68.4c3.52,3.66,7.43,6.92,10.53,10.95.28.37-.1.85-.48.86-3.22.07-6.26-1.8-8.88-3.47-1.6-1-3.21-2-4.76-3.16a49.68,49.68,0,0,0,4.62,4.56c8.43,7.28,19.06,9.25,30,9.06,2.33,0,5,0,7.84,0A22.39,22.39,0,0,0,90.65,84Z"/>
            <path class="cls-21" d="M52,64c5.22,6.52,11.12,12.34,18.73,16,3.74,1.79,7.66,3,11.54,4.42A47.89,47.89,0,0,0,91,87.07,19.86,19.86,0,0,0,90.65,84,105.63,105.63,0,0,0,87.5,71.07c-2.89-8.87-6.91-17.31-13.2-24.29C68.63,40.5,62,34.37,54.57,30.3A57,57,0,0,0,42,25.42,27.85,27.85,0,0,0,31.66,24.2C36.46,38.35,42.67,52.26,52,64Z"/>
            <path class="cls-14" d="M90.65,84A105.63,105.63,0,0,0,87.5,71.07c-2.89-8.87-6.91-17.31-13.2-24.29C68.63,40.5,62,34.37,54.57,30.3A57,57,0,0,0,42,25.42c-1.18-.31-2.38-.61-3.58-.84A25.62,25.62,0,0,1,46.59,31c3,3.73,6.5,9.86,4.78,14.79a.57.57,0,0,1-.94.25,38.28,38.28,0,0,1-6.22-8,126.87,126.87,0,0,0,8.66,20.38.57.57,0,0,1-.88.69c-5.21-5.29-8.87-11.29-12.79-17.53-.77-1.21-1.54-2.43-2.3-3.67A111.57,111.57,0,0,0,52,64c5.22,6.52,11.12,12.34,18.73,16,3.74,1.79,7.66,3,11.54,4.42A47.89,47.89,0,0,0,91,87.07,19.86,19.86,0,0,0,90.65,84Z"/>
            <path class="cls-22" d="M87.35,55A117,117,0,0,0,74.1,35.79a38,38,0,0,0-9-7.85c-1.43-.85-2.9-1.66-4.37-2.44A33.5,33.5,0,0,0,58,31.07a47.54,47.54,0,0,0-3.83,17.59A44.94,44.94,0,0,0,67.3,82.08a41.33,41.33,0,0,0,11.39,8.1C83.25,92.35,88,93,92.94,93.43c2.12.19,5.44.57,7.57-.7A109.06,109.06,0,0,0,87.35,55Z"/>
            <path class="cls-12" d="M87.35,55A117,117,0,0,0,74.1,35.79a38,38,0,0,0-9-7.85c-1.43-.85-2.9-1.66-4.37-2.44l-.33.5c1.05,2.08,2.11,4.14,3,6.31a127,127,0,0,1,4.26,12.93c2.06,7.64,3.67,15.7,2.67,23.65,0,.43-.6.81-1,.4-4.81-5.51-7.44-12.84-8.56-20.2a55.71,55.71,0,0,0,9.45,30.73c.3.45-.32,1.13-.78.78-7.12-5.46-11.61-14.11-13.49-22.78-1.55-7.12-1.13-14.09,0-21a52.6,52.6,0,0,0-1.79,11.88A44.94,44.94,0,0,0,67.3,82.08a41.33,41.33,0,0,0,11.39,8.1C83.25,92.35,88,93,92.94,93.43c2.12.19,5.44.57,7.57-.7A109.06,109.06,0,0,0,87.35,55Z"/>
            <g>
              <path class="cls-11" d="M108.39,55a117.58,117.58,0,0,1,13.24-19.17,38.28,38.28,0,0,1,9-7.85c1.43-.85,2.9-1.66,4.36-2.44a32,32,0,0,1,2.72,5.57,47.15,47.15,0,0,1,3.83,17.59,44.93,44.93,0,0,1-13.14,33.42,41.33,41.33,0,0,1-11.39,8.1c-4.57,2.17-9.27,2.8-14.25,3.25-2.12.19-5.45.57-7.57-.7A109.06,109.06,0,0,1,108.39,55Z"/>
              <path class="cls-16" d="M99.5,94.11a8.76,8.76,0,0,1-4.51-1,.47.47,0,0,1-.23-.48A109.12,109.12,0,0,1,108,54.72a115.53,115.53,0,0,1,13.29-19.24,38.72,38.72,0,0,1,9.15-7.95c1.54-.92,3.08-1.75,4.39-2.45a.48.48,0,0,1,.62.14,24.68,24.68,0,0,1,2.31,4.59c.16.4.31.76.45,1.06a47.64,47.64,0,0,1,3.87,17.77,45.28,45.28,0,0,1-13.28,33.78,41.77,41.77,0,0,1-11.53,8.19c-4.77,2.27-9.73,2.87-14.41,3.29l-.27,0C101.69,94,100.6,94.11,99.5,94.11Zm-3.75-1.64a8.42,8.42,0,0,0,3.75.69c1.06,0,2.12-.1,3-.18l.28,0c4.58-.41,9.45-1,14.08-3.2a40.79,40.79,0,0,0,11.26-8,44.35,44.35,0,0,0,13-33.06,46.8,46.8,0,0,0-3.79-17.42c-.14-.31-.29-.68-.46-1.08a26.6,26.6,0,0,0-2-4.06c-1.21.65-2.59,1.41-4,2.23A37.5,37.5,0,0,0,122,36.11a114.62,114.62,0,0,0-13.18,19.08A108.45,108.45,0,0,0,95.75,92.47Z"/>
            </g>
            <path class="cls-12" d="M141.58,48.66a47.15,47.15,0,0,0-3.83-17.59c-.38-.87-.88-2.17-1.5-3.45a60.47,60.47,0,0,1-.15,16.78,87.36,87.36,0,0,1-2.86,12.06c-.73,2.46-1.58,4.91-3.46,6.75a.57.57,0,0,1-1-.4c-.22-5.43.71-10.79.77-16.22A86.57,86.57,0,0,1,130,36c-2.46,3.24-5,6.39-7.29,9.77-.29.44-1.08.32-1-.28.39-6.64,3.76-12.12,8-16.92a39.74,39.74,0,0,0-8,7.2A117.58,117.58,0,0,0,108.39,55,109.06,109.06,0,0,0,95.23,92.73c2.12,1.27,5.45.89,7.57.7,5-.45,9.68-1.08,14.25-3.25a41.33,41.33,0,0,0,11.39-8.1A44.93,44.93,0,0,0,141.58,48.66Z"/>
            <g>
              <g>
                <path class="cls-11" d="M109.56,92.73a33.49,33.49,0,0,0,7-2.28,21,21,0,0,0,10.53-12.34c1.77-6.42,0-13.35-2.42-19.35a130.8,130.8,0,0,0-8.92-17.44c-3.38-5.75-7.86-10.6-11.9-15.83l-.29.26c-3,2.7-6,5.25-9,8-8.33,7.76-16.06,18.69-18.85,29.8C73.43,72.78,74.62,83.6,83.42,89A33.82,33.82,0,0,0,98.5,93.62,48,48,0,0,0,109.56,92.73Z"/>
                <path class="cls-16" d="M100,94.12h0l-1.55,0a34.47,34.47,0,0,1-15.32-4.73C75.35,84.6,72.4,74.9,75.29,63.43c2.54-10.11,9.63-21.33,19-30,1.61-1.51,3.3-3,4.93-4.41,1.35-1.18,2.71-2.37,4-3.58l.29-.26a.5.5,0,0,1,.36-.13.53.53,0,0,1,.34.19c1.15,1.49,2.35,3,3.54,4.42a93.21,93.21,0,0,1,8.39,11.46,131.05,131.05,0,0,1,9,17.5c3.13,7.83,3.92,14.25,2.43,19.65a21.37,21.37,0,0,1-10.79,12.65,34.32,34.32,0,0,1-7.1,2.32A46.35,46.35,0,0,1,100,94.12Zm3.75-67.93c-1.31,1.19-2.63,2.35-4,3.51-1.63,1.42-3.31,2.89-4.91,4.39C85.7,42.67,78.71,53.73,76.21,63.66,72.1,80,80.88,86.85,83.67,88.56a33.34,33.34,0,0,0,14.84,4.58c.51,0,1,0,1.53,0a45.11,45.11,0,0,0,9.42-.9,32.8,32.8,0,0,0,6.9-2.25,20.4,20.4,0,0,0,10.27-12c1.44-5.19.65-11.42-2.4-19a130.44,130.44,0,0,0-8.89-17.38A92.17,92.17,0,0,0,107,30.23C105.94,28.89,104.85,27.55,103.79,26.19Z"/>
              </g>
              <path class="cls-12" d="M124.67,58.76a130.8,130.8,0,0,0-8.92-17.44c-3.38-5.75-7.86-10.6-11.9-15.83l-.14.12c1.37,2.84,2.85,5.63,4,8.56a55.52,55.52,0,0,1,3.21,12.9c1,7.26,1.36,15.66-2.73,22.1a.57.57,0,0,1-1-.13,56.18,56.18,0,0,1-1.33-11,71.49,71.49,0,0,1-3.79,12.66C100.72,74,98.51,81.1,94,81.34c-8.3.44-8.81-10.31-8.55-17.45a35.06,35.06,0,0,0-1.19,16.85c.1.59-.74,1.05-1,.43A37.23,37.23,0,0,1,82,50.92a44.89,44.89,0,0,1,4.29-8c-4.81,6.26-8.72,13.42-10.54,20.65C73.43,72.78,74.62,83.6,83.42,89A33.82,33.82,0,0,0,98.5,93.62a48,48,0,0,0,11.06-.89,33.49,33.49,0,0,0,7-2.28,21,21,0,0,0,10.53-12.34C128.86,71.69,127.08,64.76,124.67,58.76Z"/>
              <path class="cls-12" d="M124.67,58.76a130.8,130.8,0,0,0-8.92-17.44c-.54-.92-1.11-1.81-1.7-2.69,3.32,6.19,6,12.79,6.67,19.85,1,11.43-3.1,25.3-14.27,30.59-10.68,5.08-24.7.05-29.42-11a25.54,25.54,0,0,1-1.81-12c-1.5,8.61.2,18,8.2,22.88A33.82,33.82,0,0,0,98.5,93.62a48,48,0,0,0,11.06-.89,33.49,33.49,0,0,0,7-2.28,21,21,0,0,0,10.53-12.34C128.86,71.69,127.08,64.76,124.67,58.76Z"/>
            </g>
            <g>
              <path class="cls-23" d="M84.51,53.23a30.9,30.9,0,0,1,4.78-9.41l.81-1c2-3.23,4.22-6.39,6.51-9.5C87.53,41.82,79.13,52.65,80.7,65.45A54.91,54.91,0,0,1,84.51,53.23Z"/>
              <path class="cls-23" d="M157.66,22.12a37,37,0,0,0-9,4.83c-2.66,1.78-5.84,3.81-7.59,6.59A198.63,198.63,0,0,0,157.66,22.12Z"/>
              <path class="cls-23" d="M58.61,45.27c.32-3,.67-6.05.74-9.12a29.73,29.73,0,0,0,.1-4c-3.33,10.1-4.84,21,.12,30.84A60.09,60.09,0,0,1,58.61,45.27Z"/>
              <path class="cls-23" d="M16.6,71.78a40,40,0,0,1,5.12.25,80,80,0,0,0,9.17.57c4.44,0,8.88,0,13.31.09C35,68.6,24,69,14.92,71.74,15.48,71.73,16,71.82,16.6,71.78Z"/>
            </g>
          </g>
          <path class="cls-24" d="M165.27,88.72C160,85.05,155.33,79.8,149.45,77c-1.53-.73-3.75-2.64-5.65-1.71-3,1.45-6.55,5.92-10.23,5.25A49.08,49.08,0,0,0,120.5,77.8,24,24,0,0,0,105,82.19a22.74,22.74,0,0,0-2.83,2.44c-1.91,2.53-3.49,6.1-2.69,9.1s3.48,5,6.07,6.7a31.88,31.88,0,0,0,6.45,3,52.91,52.91,0,0,0,11.65,1.42,72,72,0,0,0,23.17-3.14c7.26-2.25,12.93-7,18.25-12.25C165.22,89.36,165.55,88.91,165.27,88.72Z"/>
          <path class="cls-9" d="M138.3,79.8c1.79-1,5.16-4,6.95-3.62,2.14.41,4.91,2.46,6.69,3.65,3.86,2.58,7.32,5.85,10.91,8.74l.1.09c-7.47-.24-13.63-2.57-20.71-5.08-2.33-.83-4.74-1.72-7.19-2.56A10.11,10.11,0,0,0,138.3,79.8Z"/>
          <path class="cls-10" d="M151.22,84.06a47.23,47.23,0,0,0-10.86-5.61c-.78.54-1.5,1-2.06,1.35A10.11,10.11,0,0,1,135.05,81c2.45.84,4.86,1.73,7.19,2.56,5.69,2,10.79,3.91,16.44,4.71A41.66,41.66,0,0,1,151.22,84.06Z"/>
          <path class="cls-11" d="M160.75,92.55a48.84,48.84,0,0,1-7.56,5.37c-9,5.2-20.41,5.67-30.51,5.45-5-.11-10.66-.81-15.14-3.07-2.3-1.16-5.3-2.7-7-4.86a13.61,13.61,0,0,1-.15-5.62c.32-1.94,1.67-3.25,2.32-4.92A26.07,26.07,0,0,1,114,79.2c6.1-1.29,12.57.63,18.36,2.41,10.11,3.08,20.33,8.64,31.13,7.68C164,90.49,162,91.46,160.75,92.55Z"/>
          <path class="cls-12" d="M140.39,99.43a61.23,61.23,0,0,1-22.68-2.29c-5.2-1.54-10.29-4-12.55-9.23a.44.44,0,0,1,.37-.64,53.68,53.68,0,0,1,8.22.15c2.26.36,4.61,1.07,6.93,1-4.41-1.88-9.17-3.34-14-2.68-.43.06-.79-.55-.32-.78,4.59-2.18,9.24-4.18,14.3-5a22.94,22.94,0,0,1,5.42-.17A27.71,27.71,0,0,0,114,79.2a26.07,26.07,0,0,0-11.27,5.7c-.65,1.67-2,3-2.32,4.92a13.61,13.61,0,0,0,.15,5.62c1.72,2.16,4.72,3.7,7,4.86,4.48,2.26,10.17,3,15.14,3.07,10.1.22,21.53-.25,30.51-5.45.27-.16.54-.34.82-.5A105.77,105.77,0,0,1,140.39,99.43Z"/>
          <path class="cls-23" d="M153.69,95.35c-8.83,3.61-18.94,4.67-28.41,4.08-.1,0-.23.24-.11.25,9.28.9,20,.28,28.52-4C153.84,95.66,154,95.24,153.69,95.35Z"/>
          <g>
            <path class="cls-23" d="M136.27,80.74h0l.21.21s0,0,0,0Z"/>
            <path class="cls-23" d="M101.94,28.55c-9.81,12.12-19.59,29.82-15.34,46,.07.28.47-.06.42-.26-4-16.67,6.56-32.47,15.15-45.67C102.3,28.46,102.07,28.39,101.94,28.55Z"/>
            <path class="cls-23" d="M102.43,30.05c-3.09,7.84-4.54,15.47-5.52,23.83,0,.24.28,0,.3-.11,1.6-8.07,3.26-15.87,5.57-23.75C102.87,29.7,102.5,29.86,102.43,30.05Z"/>
            <path class="cls-23" d="M96.79,39.31c-4.33,10.44-8,20.5-6.59,32,0,.25.38,0,.39-.19.13-4.46,0-8.81.63-13.25,1-6.45,3.63-12.47,5.83-18.55C97.14,39.05,96.84,39.17,96.79,39.31Z"/>
            <path class="cls-23" d="M104.31,28.67c0-.21-.33,0-.32.2.66,8,.76,16,1.12,23.93,0,.2.32,0,.32-.15C105.71,44.74,105.77,36.46,104.31,28.67Z"/>
            <path class="cls-23" d="M107,34.28c-.06-.14-.29.09-.23.21,3.56,8.6,5.49,18,6.82,27.23,0,.22.36,0,.34-.21C112.81,52.27,110.88,42.78,107,34.28Z"/>
            <path class="cls-23" d="M113,43c-.09-.17-.38.13-.31.27,1.14,2.62,1.56,5.52,2.52,8.21.08.25.53-.15.48-.35A47,47,0,0,0,113,43Z"/>
            <path class="cls-23" d="M68.18,69.36C61.7,56.1,59.8,42.53,60.73,27.92c0-.2-.25,0-.26.09-1.82,14-.68,29.6,7.28,41.73C67.9,70,68.28,69.56,68.18,69.36Z"/>
            <path class="cls-23" d="M66.56,47.5C65,43.43,64,39.18,62.41,35.12c-.06-.15-.29.09-.25.22,1.38,4.17,2.09,8.49,4.06,12.46C66.31,48,66.62,47.66,66.56,47.5Z"/>
            <path class="cls-23" d="M61.87,28.24c-.08-.11-.32.16-.25.26,5.36,7.84,9.2,17.22,12.61,26,.07.17.36-.1.32-.24C72,45.35,67.72,35.54,61.87,28.24Z"/>
            <path class="cls-23" d="M72.08,40.93a18.73,18.73,0,0,0-4.21-5.74c-.11-.1-.32.17-.23.28a40.77,40.77,0,0,1,4,5.84C71.79,41.55,72.17,41.13,72.08,40.93Z"/>
            <path class="cls-23" d="M77.08,11.76c-1.33,5.4-2.66,10.38-2.64,16,0,.47.73-.1.74-.44,0-5.47,1.27-10.3,2.21-15.63C77.43,11.47,77.12,11.63,77.08,11.76Z"/>
            <path class="cls-23" d="M79,13.77c0-.19-.3,0-.28.17,1.5,8.25,2.74,16.38,4.92,24.51.1.35.6-.08.55-.34C82.53,30.07,81.09,21.66,79,13.77Z"/>
            <path class="cls-23" d="M83.31,21.06c-.52-1.58-1.17-3.12-1.73-4.7,0-.15-.32.11-.28.25.51,1.6,1.08,3.19,1.64,4.78C83,21.59,83.37,21.25,83.31,21.06Z"/>
            <path class="cls-23" d="M79.58,10.1c-.14-.11-.42.23-.28.35C85.78,16,89.87,24.72,92.91,32.58c.09.23.5-.15.45-.34C91.16,24,86.4,15.41,79.58,10.1Z"/>
            <path class="cls-23" d="M123.77,14.83c-4.2,4.43-8.12,8.48-10.86,14-.21.43.26.43.44.12,3-5.23,6.73-9.44,10.62-14C124.14,14.79,123.94,14.65,123.77,14.83Z"/>
            <path class="cls-23" d="M122.68,18a51.82,51.82,0,0,0-3.81,7.73,73.12,73.12,0,0,0-4.37,10.86c-.16.57.51.3.64,0A146.85,146.85,0,0,1,123,18.1C123.08,17.85,122.8,17.86,122.68,18Z"/>
            <path class="cls-23" d="M125.08,18.54a32.7,32.7,0,0,1-1.39,6.91c-.08.31.3.17.36,0a29.79,29.79,0,0,0,1.34-7C125.4,18.2,125.09,18.39,125.08,18.54Z"/>
            <path class="cls-23" d="M134.77,29.19c-.06-.17-.37.11-.33.25,1.89,6.56,1.92,14,1.68,20.73,0,.44.52.07.55-.19A46.92,46.92,0,0,0,134.77,29.19Z"/>
            <path class="cls-23" d="M133,34.13c-.33,3.49-1.26,6.88-1.9,10.32,0,.24.29.06.32-.08A53.7,53.7,0,0,0,133.3,34C133.31,33.76,133,34,133,34.13Z"/>
            <path class="cls-23" d="M132.54,28.56a39,39,0,0,0-12.1,14.8c-.2.42.36.27.51,0a87.6,87.6,0,0,1,4.69-7.48c2-2.62,4.67-4.79,7-7.08C132.86,28.67,132.8,28.36,132.54,28.56Z"/>
            <path class="cls-23" d="M127.74,35.65c-1.48,1.89-2.78,3.93-4.09,5.94-.22.34.19.47.38.19,1.37-1.94,2.54-4,4-5.93C128.18,35.6,128,35.4,127.74,35.65Z"/>
            <path class="cls-23" d="M161.12,21.83c-4.52,8.46-11.47,15.58-16,24.07-.25.47.28.46.49.13,5.11-7.92,12.07-15.48,15.8-24.18C161.48,21.63,161.19,21.69,161.12,21.83Z"/>
            <path class="cls-23" d="M159.13,29c-1.49,6-5,11.47-7.76,17-.18.36.21.36.38.09,3.14-5.15,6.42-11.18,7.61-17.14C159.4,28.69,159.15,28.85,159.13,29Z"/>
            <path class="cls-23" d="M160.87,31.92c-.61,11.78-6.46,23.1-12.64,32.85-.17.26.14.36.3.14,7-9.35,12.4-21.25,12.66-33.11C161.2,31.56,160.88,31.76,160.87,31.92Z"/>
            <path class="cls-23" d="M153.28,28.37c-1.22,1.12-2.46,2.23-3.69,3.35-.18.16-.09.49.14.27l3.68-3.38C153.57,28.46,153.5,28.18,153.28,28.37Z"/>
            <path class="cls-23" d="M160.81,91c-10.83,1.94-22.05-4-32.87-4.34-.14,0-.34.35-.17.36,6.27.57,12.32,2.56,18.46,3.89,4.54,1,9.9,1.94,14.45.6C160.86,91.43,161.1,90.92,160.81,91Z"/>
            <path class="cls-23" d="M153,93.65a58.55,58.55,0,0,1-10.33.67c-.15,0-.34.35-.12.35a52.21,52.21,0,0,0,10.3-.58C153,94.05,153.26,93.6,153,93.65Z"/>
            <path class="cls-23" d="M151.94,94.94c-1.25.24-2.45.63-3.7.88-.12,0-.28.34-.11.31,1.24-.23,2.44-.6,3.68-.81C152,95.29,152.15,94.9,151.94,94.94Z"/>
            <path class="cls-23" d="M190.74,53.19c-7.26,1.4-13.77,4.67-20.15,8.28-.19.11-.24.52,0,.36a81.6,81.6,0,0,1,14-6.28A79.83,79.83,0,0,0,162,69.85c-.15.14-.09.41.11.23,7.66-6.73,16.74-10.7,25.78-15.18a.63.63,0,0,0,.26-.41c.79-.22,1.58-.42,2.39-.61C190.83,53.82,191.12,53.12,190.74,53.19Z"/>
            <path class="cls-14" d="M58.78,106.43a121.55,121.55,0,0,1-16.69-3.49c-4.92-1.38-9.93-1.53-14.63.67-.15.07-.31.48-.05.37,5.69-2.39,11.43-1.07,17.09.64a56.79,56.79,0,0,0,14,2.45C58.73,107.08,59.09,106.47,58.78,106.43Z"/>
            <path class="cls-14" d="M66.51,106.37c-8.93,2.07-17.64.82-26.47-1.08-.18,0-.43.34-.22.39,8.68,2,17.78,4.22,26.59,1.44C66.74,107,67.06,106.24,66.51,106.37Z"/>
            <path class="cls-14" d="M66.64,107.58c-3.59.87-7.22,2.19-10.94,2-.11,0-.27.28-.13.29,3.69.37,7.45-.73,11-1.68C66.82,108.08,67.05,107.48,66.64,107.58Z"/>
          </g>
        </g>
      </g>
    </g>
  </g>
</svg>
