<svg id="Layer_1" data-name="Layer 1" xmlns="http://www.w3.org/2000/svg" width="128.44" height="224.87" viewBox="0 0 128.44 224.87">
  <defs>
    <style>
      .cls-1 {
        opacity: 0.5;
      }

      .cls-2 {
        fill: #fff;
      }

      .cls-3, .cls-8 {
        fill: #196131;
      }

      .cls-3, .cls-4, .cls-8 {
        stroke: #1c3d1c;
      }

      .cls-10, .cls-12, .cls-13, .cls-14, .cls-3, .cls-4, .cls-8 {
        stroke-miterlimit: 10;
      }

      .cls-3 {
        stroke-width: 0.25px;
      }

      .cls-4 {
        fill: #27ac4a;
        stroke-width: 0.5px;
      }

      .cls-5 {
        fill: #1d8240;
      }

      .cls-6 {
        fill: #35b34a;
      }

      .cls-7 {
        fill: #215a2d;
      }

      .cls-9 {
        fill: #188441;
      }

      .cls-10 {
        fill: #7456a3;
      }

      .cls-10, .cls-12, .cls-13 {
        stroke: #312254;
      }

      .cls-11, .cls-12 {
        fill: #5e3593;
      }

      .cls-13 {
        fill: #724d9e;
      }

      .cls-14 {
        fill: #f7991c;
        stroke: #de6e26;
        stroke-width: 0.75px;
      }

      .cls-15 {
        fill: #fcbf10;
      }

      .cls-16 {
        fill: #fcd58a;
      }

      .cls-17 {
        fill: #836db0;
      }
    </style>
  </defs>
  <g>
    <path class="cls-1" d="M57.2,224.87h-.36a6.85,6.85,0,0,1-5.57-3.31,124.57,124.57,0,0,1-6.8-13.18,5.11,5.11,0,0,1-1.19-2.78,116.5,116.5,0,0,1-4.6-13.4,5.24,5.24,0,0,1-1.08-2.85,31.3,31.3,0,0,0-.43-3.28c-.19-.88-.36-1.76-.53-2.64a44.25,44.25,0,0,0-4.81-12.36c-5.13-1-15.2-3.82-21.74-11.43l-.14-.17a25.32,25.32,0,0,1-4.18-6.93h0a27.41,27.41,0,0,1-1.48-5.31h0a31.09,31.09,0,0,1-.3-7.64c0-.16,0-.25,0-.25l.4-4.35,4.36.09a21.6,21.6,0,0,1,4.19.63,31.35,31.35,0,0,1,6.61,2.41h0a34,34,0,0,1,6.88,4.55h0A38.8,38.8,0,0,1,35,153.09a134.67,134.67,0,0,1,4.84-26.79,43.18,43.18,0,0,0-2.62-7.87c-3.18-.88-8.13-2.88-11.4-7.18h0a15.37,15.37,0,0,1-2.3-4.32h0a15.38,15.38,0,0,1-.73-3.24h0a18.28,18.28,0,0,1,0-4.18c0-.31.05-.48.05-.48l.66-4.27,4.32.28a13.63,13.63,0,0,1,2.6.53,16.92,16.92,0,0,1,2.66,1h.09l1.06.6A19.69,19.69,0,0,1,38.1,100h0a24.5,24.5,0,0,1,6.62,11.6l0,.07a229.08,229.08,0,0,1,12-25.37c.5-.94,1-1.88,1.4-2.81l-.35-.14-.11.06a27.18,27.18,0,0,1-3.58,1.61A33,33,0,0,1,42.5,87.38c-8.5,0-13.2-4.12-14.92-6C25.45,80,20.2,76.05,19.37,70A12.88,12.88,0,0,1,22,60.51l-.93-.09A15.2,15.2,0,0,1,7.47,45.92C7.28,40.84,10,34.48,17.83,31.86,16.2,28.12,16,24.64,17.4,21.78c1.8-3.78,5.8-5.93,11.9-6.4l.26,0h.26a42,42,0,0,1,18.9,6c1.1-12.59,9.12-17.14,16.5-17.14l.8,0a13.47,13.47,0,0,1,3-.35c7.77,0,11.86,6.93,13.26,11.64a23.81,23.81,0,0,1,10-5.33,14.27,14.27,0,0,1,3.36-.43,10.5,10.5,0,0,1,8.48,4.16c3,4,3.49,9.94,3.06,13a20.53,20.53,0,0,1-1.15,7.73,37,37,0,0,1,4.78-.31c6.71,0,12,2,15,5.57a11.49,11.49,0,0,1,2.35,9.76c-1.61,8.56-6.16,11.31-9.37,12.16a13.19,13.19,0,0,1-5.17,5.64C112,69,108,71.74,100.46,71.74q-1.33,0-2.76-.12a15.8,15.8,0,0,1-2.83,5.43c-2.24,2.8-7.55,7.49-18.05,7.49-1.15,0-2.34-.05-3.55-.17l-.74.1c-.74,2-1.6,4-2.56,5.94a9.07,9.07,0,0,1,1.74.23l4.2,1L75.2,96s0,.13-.07.36a13.59,13.59,0,0,1-.92,2.83h0A11.87,11.87,0,0,1,73,101.27h0a11.32,11.32,0,0,1-2.61,2.51h0A14.75,14.75,0,0,1,62,106.14l-.06.08a149.76,149.76,0,0,0-10.84,31.32,21.56,21.56,0,0,1,9.54-6.42h0a16.46,16.46,0,0,1,4.81-.73h.41a17,17,0,0,1,3.54.47h0a19.41,19.41,0,0,1,4.24,1.58,4.61,4.61,0,0,1,.44.22l3.81,2.08-1.77,4a14.46,14.46,0,0,1-1.49,2.41,19.91,19.91,0,0,1-3.06,3.25h0a21.45,21.45,0,0,1-4.34,2.86h0a25.61,25.61,0,0,1-11.47,2.52l-1.44,0A19.54,19.54,0,0,0,48.59,155a103.63,103.63,0,0,0,.95,22.53,39.34,39.34,0,0,1,7.93-12.8h0a34.07,34.07,0,0,1,6.33-5.29h0a31.38,31.38,0,0,1,6.3-3.14,21.37,21.37,0,0,1,4.09-1.1l4.3-.6.91,4.28,0,.27a31.21,31.21,0,0,1,.55,7.62h0a25.64,25.64,0,0,1-.88,5.44h0a25,25,0,0,1-3.37,7.37h0c-5.82,8.71-16,12.67-21,14.14-.21.72-.4,1.47-.58,2.26a108.85,108.85,0,0,0,8.92,18.89,6.52,6.52,0,0,1,.64,5.17,6.66,6.66,0,0,1-3.47,4.08A6.92,6.92,0,0,1,57.2,224.87Z"/>
    <path class="cls-2" d="M53.31,221H53a6.82,6.82,0,0,1-5.57-3.31,124.51,124.51,0,0,1-6.81-13.17,5.21,5.21,0,0,1-1.19-2.79,116.28,116.28,0,0,1-4.59-13.39,5.19,5.19,0,0,1-1.08-2.86c0-.34-.13-1.52-.43-3.28-.19-.88-.37-1.76-.54-2.63A44.18,44.18,0,0,0,28,167.18c-5.13-1-15.2-3.82-21.75-11.44l-.14-.16a25.34,25.34,0,0,1-4.17-6.94h0a25.71,25.71,0,0,1-1.48-5.31h0A31.49,31.49,0,0,1,.1,135.7c0-.17,0-.26,0-.26l.4-4.34,4.37.08a22.37,22.37,0,0,1,4.18.63,31.75,31.75,0,0,1,6.61,2.42h0a33.89,33.89,0,0,1,6.88,4.55h0A39,39,0,0,1,31.1,149.2,134.83,134.83,0,0,1,36,122.41a43.82,43.82,0,0,0-2.62-7.86c-3.19-.89-8.13-2.88-11.4-7.18h0a15.35,15.35,0,0,1-2.3-4.32h0a15.59,15.59,0,0,1-.72-3.25h0a18.78,18.78,0,0,1,0-4.17c0-.31.06-.48.06-.48l.66-4.27,4.32.28a13.53,13.53,0,0,1,2.6.52,18.35,18.35,0,0,1,2.65,1h.09l1.07.6a19.82,19.82,0,0,1,3.86,2.85h0a24.6,24.6,0,0,1,6.62,11.59.3.3,0,0,0,0,.08,230.53,230.53,0,0,1,12-25.38c.5-.93,1-1.87,1.4-2.81l-.34-.13-.11.06a28.55,28.55,0,0,1-3.58,1.61,33.27,33.27,0,0,1-11.63,2.31c-8.51,0-13.2-4.12-14.93-6-2.13-1.37-7.37-5.3-8.2-11.36a12.86,12.86,0,0,1,2.64-9.48l-.93-.08A15.22,15.22,0,0,1,3.58,42C3.4,37,6.08,30.6,14,28c-1.63-3.74-1.8-7.22-.44-10.08,1.8-3.78,5.81-5.93,11.91-6.4l.26,0h.26a42.06,42.06,0,0,1,18.9,6C45.94,4.88,54,.33,61.34.33l.79,0a13.62,13.62,0,0,1,3-.35C72.9,0,77,6.93,78.39,11.63a23.69,23.69,0,0,1,10-5.32,13.93,13.93,0,0,1,3.37-.44A10.45,10.45,0,0,1,100.25,10c3.06,4,3.5,9.93,3.07,13a20.53,20.53,0,0,1-1.15,7.73,37,37,0,0,1,4.78-.32c6.7,0,12,2,15,5.57a11.47,11.47,0,0,1,2.34,9.77c-1.6,8.56-6.16,11.3-9.36,12.15a13.28,13.28,0,0,1-5.17,5.65c-1.64,1.55-5.63,4.31-13.2,4.31q-1.35,0-2.76-.12A15.7,15.7,0,0,1,91,73.16c-2.23,2.8-7.54,7.5-18,7.5-1.15,0-2.34-.06-3.56-.17l-.74.09c-.74,2-1.59,4-2.55,5.94a11.36,11.36,0,0,1,1.74.23l4.2,1-.71,4.33s0,.13-.08.36a12.67,12.67,0,0,1-.91,2.83h0a11,11,0,0,1-1.24,2.09h0a11.27,11.27,0,0,1-2.61,2.5h0a14.77,14.77,0,0,1-8.34,2.37l-.07.07a150.15,150.15,0,0,0-10.84,31.32,21.72,21.72,0,0,1,9.55-6.41h0a16.33,16.33,0,0,1,4.8-.72H62a17.11,17.11,0,0,1,3.55.47h0a19.66,19.66,0,0,1,4.23,1.58l.44.22L74,130.87l-1.78,4a13.31,13.31,0,0,1-1.48,2.41,20,20,0,0,1-3.06,3.26h0a21.45,21.45,0,0,1-4.34,2.86h0a25.53,25.53,0,0,1-11.46,2.52l-1.44,0a19.16,19.16,0,0,0-5.75,5.29,103.06,103.06,0,0,0,.95,22.53,39.53,39.53,0,0,1,7.92-12.81h0a33.56,33.56,0,0,1,6.32-5.29h0a31.39,31.39,0,0,1,6.3-3.14,21.79,21.79,0,0,1,4.08-1.09l4.3-.6.91,4.28s0,.09,0,.27a31.2,31.2,0,0,1,.56,7.62h0a26.29,26.29,0,0,1-.88,5.44h0a25,25,0,0,1-3.37,7.36h0c-5.83,8.72-16.05,12.68-21,14.14-.21.72-.41,1.48-.58,2.26A108.55,108.55,0,0,0,59.23,211a6.51,6.51,0,0,1,.65,5.17,6.71,6.71,0,0,1-3.47,4.08A7.08,7.08,0,0,1,53.31,221Z"/>
    <g>
      <g>
        <g>
          <path class="cls-3" d="M44.28,201.54h0c-.12,0-.23-.2-.22-.41s.31-18,8.6-24c.12-.08.26,0,.31.2a.51.51,0,0,1-.1.51c-8,5.78-8.35,23.13-8.35,23.31S44.39,201.54,44.28,201.54Z"/>
          <g>
            <path class="cls-4" d="M47.2,186S75.81,180.28,71,156C71,156,51.47,158.65,47.2,186Z"/>
            <path class="cls-5" d="M47.69,185.49s4.71-20.16,23.07-29.1C70.76,156.39,51.58,159.25,47.69,185.49Z"/>
            <path class="cls-6" d="M47.69,185.49S70.54,178.33,71,156C71,156,75.59,178.74,47.69,185.49Z"/>
            <g>
              <polygon class="cls-7" points="70.29 157.47 48.28 185.75 47.2 186 47.39 184.86 70.29 157.47"/>
              <g>
                <path class="cls-7" d="M51.35,181.19s3.29,1.2,11.55-3"/>
                <path class="cls-7" d="M51.6,172.35S50,178,51.33,181"/>
                <path class="cls-7" d="M56.33,175.41s3.17,1.83,11.67-2.29"/>
                <path class="cls-7" d="M57,164.05s-1.66,7-.72,10.72"/>
                <path class="cls-7" d="M70.75,167.12s-5.25,3.57-10.39,3.11"/>
                <path class="cls-7" d="M62.44,159.49A15.07,15.07,0,0,0,60.69,169"/>
                <path class="cls-7" d="M67.8,156.82a8.42,8.42,0,0,0-1.63,6"/>
                <path class="cls-7" d="M71.47,162.65s-6.19,2.89-6.42,1.55"/>
              </g>
            </g>
          </g>
        </g>
        <g>
          <path class="cls-3" d="M38.88,185.66h.06a.56.56,0,0,0,.52-.58c0-.25-1.63-25.62-21.43-34.53a.55.55,0,0,0-.45,1c19.2,8.64,20.78,33.34,20.79,33.59A.56.56,0,0,0,38.88,185.66Z"/>
          <path class="cls-4" d="M31.74,163s-29.08-2.48-27-27.2C4.77,135.84,24.43,136.34,31.74,163Z"/>
          <path class="cls-5" d="M31.19,162.59S24.25,143.08,5,136.25C5,136.25,24.38,137,31.19,162.59Z"/>
          <path class="cls-6" d="M31.19,162.59S7.68,158,4.77,135.84C4.77,135.84,2.71,159,31.19,162.59Z"/>
          <g>
            <polygon class="cls-7" points="5.59 137.28 30.63 162.9 31.74 163.04 31.42 161.92 5.59 137.28"/>
            <g>
              <path class="cls-7" d="M27.07,158.72s-3.14,1.56-11.81-1.68"/>
              <path class="cls-7" d="M25.83,150s2.18,5.39,1.24,8.55"/>
              <path class="cls-7" d="M21.47,153.53s-2.94,2.18-11.85-1"/>
              <path class="cls-7" d="M19.55,142.32s2.44,6.77,1.92,10.57"/>
              <path class="cls-7" d="M6.22,146.91s5.61,3,10.67,1.93"/>
              <path class="cls-7" d="M13.61,138.4a15,15,0,0,1,2.8,9.21"/>
              <path class="cls-7" d="M8,136.35a8.42,8.42,0,0,1,2.29,5.73"/>
              <path class="cls-7" d="M5,142.55s6.47,2.18,6.55.83"/>
            </g>
          </g>
        </g>
        <g>
          <path class="cls-3" d="M41.9,136.51c.08,0,.16-.14.17-.31.94-17.08-6.35-28-6.42-28.13s-.17,0-.22.09a.57.57,0,0,0,0,.43c.08.11,7.23,10.86,6.31,27.59,0,.18.06.32.14.33Z"/>
          <g>
            <path class="cls-4" d="M36.73,110.53S21.82,108.47,23.58,95.8C23.58,95.8,33.69,96.59,36.73,110.53Z"/>
            <path class="cls-5" d="M36.46,110.29S33.41,100.05,23.69,96C23.69,96,33.65,96.9,36.46,110.29Z"/>
            <path class="cls-6" d="M36.46,110.29s-12-3-12.88-14.49C23.58,95.8,21.89,107.67,36.46,110.29Z"/>
            <g>
              <polygon class="cls-7" points="23.97 96.56 36.16 110.44 36.73 110.53 36.59 109.95 23.97 96.56"/>
              <g>
                <path class="cls-7" d="M34.44,108.19s-1.66.71-6-1.19"/>
                <path class="cls-7" d="M34,103.64s1,2.84.4,4.44"/>
                <path class="cls-7" d="M31.7,105.36s-1.57,1-6.07-.82"/>
                <path class="cls-7" d="M31,99.53s1.07,3.56.7,5.5"/>
                <path class="cls-7" d="M24,101.54a9.66,9.66,0,0,0,5.44,1.28"/>
                <path class="cls-7" d="M28.07,97.35a7.8,7.8,0,0,1,1.19,4.82"/>
                <path class="cls-7" d="M25.23,96.14a4.36,4.36,0,0,1,1,3"/>
                <path class="cls-7" d="M23.52,99.26s3.27,1.3,3.35.6"/>
              </g>
            </g>
          </g>
        </g>
        <g>
          <path class="cls-3" d="M48,111.8c-.05,0-.07-.11,0-.21,2.75-10.28,9.18-15.33,9.24-15.38s.11,0,.11.09a.32.32,0,0,1-.1.25c-.06,0-6.37,5-9.07,15.09,0,.1-.09.17-.14.16Z"/>
          <g>
            <path class="cls-4" d="M56.11,97.45s9.21,1.66,10.62-6.17C66.73,91.28,60.6,89.79,56.11,97.45Z"/>
            <path class="cls-5" d="M56.31,97.36s3.78-5.46,10.31-6C66.62,91.39,60.56,90,56.31,97.36Z"/>
            <path class="cls-6" d="M56.31,97.36s7.66.55,10.42-6.08C66.73,91.28,65.43,98.63,56.31,97.36Z"/>
            <g>
              <polygon class="cls-7" points="66.36 91.66 56.46 97.5 56.11 97.45 56.3 97.13 66.36 91.66"/>
              <g>
                <path class="cls-7" d="M57.91,96.51s.84.74,3.8.46"/>
                <path class="cls-7" d="M59,93.9a5.4,5.4,0,0,0-1.1,2.54"/>
                <path class="cls-7" d="M60.08,95.36s.73.93,3.75.7"/>
                <path class="cls-7" d="M61.61,92.05a9.91,9.91,0,0,0-1.48,3.12"/>
                <path class="cls-7" d="M65.36,94.59a6,6,0,0,1-3.47-.29"/>
                <path class="cls-7" d="M63.78,91.34A4.85,4.85,0,0,0,62.14,94"/>
                <path class="cls-7" d="M65.69,91.17a2.7,2.7,0,0,0-1.19,1.58"/>
                <path class="cls-7" d="M66.1,93.34s-2.19.14-2.1-.29"/>
              </g>
            </g>
          </g>
        </g>
        <path class="cls-3" d="M38.12,153.41a.54.54,0,0,0,.55-.39c4.12-13.48,24.86-17.14,25.07-17.18a.55.55,0,0,0,.45-.63.56.56,0,0,0-.63-.45c-.88.15-21.62,3.82-25.93,17.94a.55.55,0,0,0,.36.69Z"/>
        <path class="cls-8" d="M53.19,216.32a2.38,2.38,0,0,0,1.16-.24,1.91,1.91,0,0,0,.88-2.7c-32.71-55.13-4.82-107.33,5.69-127,13.49-25.26,1.64-42.12,1.13-42.82A2.3,2.3,0,0,0,59,43a1.87,1.87,0,0,0-.62,2.75c.46.65,10.93,15.78-1.41,38.89-10.77,20.15-39.39,73.7-5.61,130.63A2.23,2.23,0,0,0,53.19,216.32Z"/>
        <path class="cls-9" d="M62.16,74.05A69.63,69.63,0,0,1,55,91.7c-4.89,8.08-15.3,28.83-17.42,68.76,0,0-2.71,24.34,14.66,55.13,0,0-7.62-10.25-12.38-28.47-4-15.36-6.28-36.67.93-63.61A180.81,180.81,0,0,1,54.13,91s3.42-4.79,7.74-17.23Z"/>
        <g>
          <g>
            <path class="cls-10" d="M49.08,40.31s-19.35-9.66-26.79-9.69a2.61,2.61,0,0,1-2.15-1.11c-2.29-3.32-7.29-12.37,5.63-13.36,0,0,22.75.78,28.62,21.17Z"/>
            <path class="cls-11" d="M18.07,20.09s-1.82,2.43,2.35,9.42a2.29,2.29,0,0,0,1.81.85c2.93.28,13,1.84,27.64,9.72,0,0-5.13-6.56-16.76-10.11a6.71,6.71,0,0,0-1.54-.26C28.72,29.55,18.79,28.39,18.07,20.09Z"/>
          </g>
          <path class="cls-12" d="M78.49,57.89l5.83-8.77s16.22.8,16.31.87S107,57.56,107,57.56l-.12,2.24S102.36,65.62,88,62,78.49,57.89,78.49,57.89Z"/>
          <path class="cls-12" d="M87.61,23.9c.37-.33,11-1.18,11-1.18,1,13.76-16.21,22.21-16.21,22.21l-2.39,5s-6-5.89-5.68-6.22S87.24,24.24,87.61,23.9Z"/>
          <path class="cls-13" d="M68.52,47s13.52-4.85,26-9.58,27.1-2.44,25.24,7.45-8.15,8.67-8.15,8.67-1.91,10.86-15.26,5.82-12.23-1-14.82-.62S65.32,50.6,67.13,48.2,68.52,47,68.52,47Z"/>
          <path class="cls-10" d="M78.93,43.23S84.84,34.54,91.37,33s6.71-8.22,7.26-10.31.23-14.22-9.09-11.89S73.64,22.27,66.15,41.68s6.8,6.8,6.8,6.8Z"/>
          <path class="cls-12" d="M72.69,33.2S78,18.7,74.1,13.63c0,0-2.67-11.19-11.57-8.57,0,0-12.63-1.91-13.14,14.42s7,26.9,7,26.9l14.44-3.92Z"/>
          <path class="cls-10" d="M17.68,51.9a77.6,77.6,0,0,0,10.61.21,99,99,0,0,0,17.85-2.17c4.39-1,7.92-2.35,9.61-4L55.91,43s-23.37-13.8-38-11.22S6.87,50.8,17.68,51.9Z"/>
          <path class="cls-11" d="M28.29,52.11a99,99,0,0,0,17.85-2.17l5.51-4.89S42.78,42.76,28.29,52.11Z"/>
          <path class="cls-13" d="M26.78,73.87S33,82.69,48.63,76.81a23.27,23.27,0,0,0,3-1.35C63.63,69,59.76,57,59.76,57l3.33-7.32,3.29-7.18-9,1.22S33.11,48,23.58,57.44,26.78,73.87,26.78,73.87Z"/>
          <path class="cls-11" d="M51.63,75.46C63.63,69,59.76,57,59.76,57l3.33-7.32c-.71.46-1.49,1-2.31,1.54C41.29,64.85,51.63,75.46,51.63,75.46Z"/>
          <path class="cls-10" d="M68.6,50.38s17.13,5.43,20.23,10.28-1.7,17.06-19.55,15.13c0,0-16.68,2.74-17.16-4.89s4-14.64,9.56-20.09S67,49.84,68.6,50.38Z"/>
          <path class="cls-14" d="M48.66,41.29c-.33,6.18,5.57,11.51,13.16,11.92s14-4.27,14.35-10.45S70.61,31.26,63,30.85,49,35.12,48.66,41.29Z"/>
          <path class="cls-15" d="M53.16,39.68c-.26,4.86,4.38,9,10.36,9.37s11-3.36,11.29-8.22-4.38-9-10.35-9.37S53.42,34.82,53.16,39.68Z"/>
          <path class="cls-16" d="M67.66,35.33c-.38.76.34,1.89,1.6,2.52s2.6.54,3-.22-.34-1.89-1.61-2.52S68,34.57,67.66,35.33Z"/>
          <path class="cls-17" d="M70,53.68c4.32-.45,8.43,2.45,12,4.56,2.48,1.48,6.49,3.74,6.36,7.08h0c-.2-3.48-5.38-5.37-8-6.74-3.49-1.83-6.4-3.95-10.32-4.8C70,53.77,70,53.68,70,53.68Z"/>
          <path class="cls-17" d="M96.5,38.8a22.2,22.2,0,0,1,14.87-1.31c3.23.8,6.69,2,7,5.72,0,.07-.1.1-.1,0-.63-3.91-6.5-4.36-9.64-4.91A31.94,31.94,0,0,0,96.55,39,.08.08,0,0,1,96.5,38.8Z"/>
          <path class="cls-17" d="M94.84,39.23h0a5.41,5.41,0,0,0-2.26.85h0A5.23,5.23,0,0,1,94.84,39.23Z"/>
          <g>
            <path class="cls-17" d="M88.28,42.47l1.89-1.07a13.56,13.56,0,0,1-1.86,1.13S88.24,42.5,88.28,42.47Z"/>
            <path class="cls-17" d="M90.89,41c-.24.15-.47.31-.72.45Q90.52,41.16,90.89,41Z"/>
            <path class="cls-17" d="M91.6,40.59a5.91,5.91,0,0,0-.71.36c.22-.14.46-.26.67-.42A0,0,0,1,1,91.6,40.59Z"/>
          </g>
          <path class="cls-17" d="M83.71,16c3.05-1.82,6.19-3.88,9.89-3.38a.07.07,0,1,1,0,.14c-3.21.07-6.54,2.93-9.25,4.48a22.66,22.66,0,0,0-7.5,7.14.07.07,0,0,1-.11-.07C78.76,20.89,80.2,18.11,83.71,16Z"/>
          <path class="cls-17" d="M52.7,12.83a10.08,10.08,0,0,1,5.75-5.9s0,.05,0,.06c-6.24,2.9-5.8,12.21-6.59,17.83a0,0,0,0,1-.08,0C51.44,20.39,51,17.15,52.7,12.83Z"/>
          <path class="cls-17" d="M24.27,19.6c.3,0,.59,0,.89,0,0,0,0,0,0,0l-.88.06C24.22,19.67,24.23,19.61,24.27,19.6Z"/>
          <path class="cls-17" d="M25.77,19.5A19.29,19.29,0,0,1,40,21,19.73,19.73,0,0,1,49.52,32.1a.1.1,0,0,1-.19.07C45.18,24,35,17.94,25.79,19.58,25.74,19.59,25.72,19.51,25.77,19.5Z"/>
          <path class="cls-17" d="M20.87,33.82c3.59-.18,7.29.75,10.78,1.51,4.28.93,9.17,2,13.07,4,0,0,0,.07,0,0C39,36.61,32.13,36.46,26,35.63c-5.57-.74-14.6-.13-14.69,7.54,0,.16-.23.16-.26,0C9.47,37.35,16.05,34.06,20.87,33.82Z"/>
          <path class="cls-17" d="M22.79,62c1-2.12,2.33-2.86,4-4.3a16.57,16.57,0,0,1,4.81-3.18c.09,0,.16.09.07.14a19.46,19.46,0,0,0-6.6,6.19c-2.44,3.28-1.91,6.14,1,8.86.15.14,0,.38-.21.32C22.08,68.74,21.23,65.41,22.79,62Z"/>
        </g>
      </g>
      <g>
        <path class="cls-4" d="M47.68,140.93s7.84-14.7,20.34-8C68,132.89,63.34,143.1,47.68,140.93Z"/>
        <path class="cls-5" d="M48,140.74s11.8.75,19.71-7.81C67.75,132.93,63,142.94,48,140.74Z"/>
        <path class="cls-6" d="M48,140.74s7.68-11.31,20-7.85C68,132.89,56.33,126.6,48,140.74Z"/>
        <g>
          <polygon class="cls-7" points="67.08 133 48 140.38 47.68 140.93 48.34 141.01 67.08 133"/>
          <g>
            <path class="cls-7" d="M51,139.45s-.12-2,3.54-5.82"/>
            <path class="cls-7" d="M55.87,140.77s-3.32-.07-4.77-1.28"/>
            <path class="cls-7" d="M55,137.68s-.48-2,3.17-6"/>
            <path class="cls-7" d="M61.3,139.19s-4.11-.24-6-1.37"/>
            <path class="cls-7" d="M61.88,131.16s-2.81,2.29-3.41,5.17"/>
            <path class="cls-7" d="M64.69,137a8.6,8.6,0,0,1-5.46-.6"/>
            <path class="cls-7" d="M67,134.47a4.81,4.81,0,0,1-3.52-.08"/>
            <path class="cls-7" d="M64.45,131.51s-2.6,2.9-1.91,3.25"/>
          </g>
        </g>
      </g>
    </g>
  </g>
</svg>
