<svg id="Layer_1" data-name="Layer 1" xmlns="http://www.w3.org/2000/svg" width="221.31" height="197.82" viewBox="0 0 221.31 197.82">
  <defs>
    <style>
      .cls-1 {
        opacity: 0.5;
      }

      .cls-2, .cls-7 {
        fill: #fff;
      }

      .cls-3 {
        fill: #fac213;
        stroke: #c48d05;
      }

      .cls-10, .cls-3, .cls-4, .cls-5, .cls-6, .cls-8, .cls-9 {
        stroke-miterlimit: 10;
      }

      .cls-10, .cls-3 {
        stroke-width: 0.5px;
      }

      .cls-4 {
        fill: #ccad56;
      }

      .cls-4, .cls-8 {
        stroke: #d8a209;
      }

      .cls-4, .cls-5, .cls-6, .cls-8, .cls-9 {
        stroke-width: 0.75px;
      }

      .cls-5 {
        fill: #af924b;
        stroke: #bf9222;
      }

      .cls-6 {
        fill: #9e8346;
        stroke: #967012;
      }

      .cls-7 {
        opacity: 0.17;
      }

      .cls-8, .cls-9 {
        fill: #7f6634;
      }

      .cls-9 {
        stroke: #665222;
      }

      .cls-10 {
        fill: #bc8813;
        stroke: #996b10;
      }
    </style>
  </defs>
  <g>
    <path class="cls-1" d="M113.15,197.82c-27.24,0-52.92-2-72.31-5.73C16.05,187.38,5,180.8,5,170.76v-.21a7.85,7.85,0,0,1,.08-1.08,12.81,12.81,0,0,1,2.86-6.65c.06-.12.3-.54.3-.54.21-.38.44-.78.68-1.18s.29-.5.44-.73c.27-.46.51-.83.74-1.2l.51-.78c.23-.35.47-.71.71-1s.35-.52.53-.77l.75-1,.54-.72.75-1,.52-.65.85-1,.48-.57,1-1.14.3-.33c.47-.5.92-1,1.38-1.44l.35-.35c.34-.34.68-.68,1-1l.48-.46.91-.84.55-.49.84-.74.56-.47.83-.68c.18-.15.38-.32.59-.48l.78-.61.57-.43.83-.62.54-.39c.27-.2.55-.4.84-.59l.51-.36.92-.61.38-.25c.44-.29.87-.56,1.29-.82l.07,0,1.23-.74,1.25-.72,1.19-.65.48-.26.68-.35,1.11-.56.5-.24,1-.49.54-.24c.36-.71.73-1.41,1.13-2.1l.24-.42c.84-1.43,1.76-2.84,2.74-4.18l.25-.34c.47-.64.95-1.24,1.43-1.82l.25-.31c.48-.56,1-1.12,1.45-1.65s1.08-1.14,1.59-1.65l.28-.28c.5-.48,1-.95,1.49-1.39l.2-.18c.52-.46,1-.87,1.47-1.26l.09-.07c.55-.46,1-.84,1.54-1.21l.32-.24c.45-.33.93-.68,1.4-1l.2-.14c.44-.3.87-.59,1.3-.86l.21-.13c.44-.28.89-.55,1.32-.81l.21-.12,1.32-.74.68-.36.23-.38.4-.77c.08-.15.45-.93.45-.93l.45-1.09.46-1.18c.13-.37.28-.78.42-1.2l.46-1.43.45-1.5.45-1.59.43-1.64.44-1.73.44-1.83.44-1.85,1.49-6.65,1.5-6.76.52-2.25L70,77.86l.55-2.28.58-2.32.6-2.35.62-2.3L73,66.24l.69-2.37.45-1.44.28-.92c.25-.78.5-1.57.77-2.35C78.37,49.67,84,42.39,91.36,37.89a23.67,23.67,0,1,1,43.6,0c6.2,3.74,12.44,10.2,16.16,21.29a284.19,284.19,0,0,1,7.6,29.29c2.19,9.9,4.44,20.11,7.15,24.49A49,49,0,0,1,187,134.21c8.08,3.65,22.32,12,31.4,28.66a12.87,12.87,0,0,1,2.76,6.18,7.67,7.67,0,0,1,.13,2.08c-.27,9.83-11.35,16.3-35.83,21C166.07,195.78,140.39,197.82,113.15,197.82Zm0-171.5a2.36,2.36,0,1,0,2.35,2.36A2.36,2.36,0,0,0,113.16,26.32Z"/>
    <path class="cls-2" d="M108.15,192.82c-27.24,0-52.92-2-72.31-5.73C11.05,182.38,0,175.8,0,165.76v-.21a7.85,7.85,0,0,1,.08-1.08,12.81,12.81,0,0,1,2.86-6.65c.06-.12.3-.54.3-.54.21-.38.44-.78.68-1.18s.29-.5.44-.73c.27-.46.51-.83.74-1.2l.51-.78c.23-.35.47-.71.71-1s.35-.52.53-.77l.75-1,.54-.72.75-1,.52-.65.85-1,.48-.57,1-1.14.3-.33c.47-.5.92-1,1.38-1.44l.35-.35c.34-.34.68-.68,1-1l.48-.46.91-.84.55-.49.84-.74.56-.47.83-.68c.18-.15.38-.32.59-.48l.78-.61.57-.43.83-.62.54-.39c.27-.2.55-.4.84-.59l.51-.36.92-.61.38-.25c.44-.29.87-.56,1.29-.82l.07,0,1.23-.74,1.25-.72,1.19-.65.48-.26.68-.35,1.11-.56.5-.24,1-.49.54-.24c.36-.71.73-1.41,1.13-2.1l.24-.42c.84-1.43,1.76-2.84,2.74-4.18l.25-.34c.47-.64.95-1.24,1.43-1.82l.25-.31c.48-.56,1-1.12,1.45-1.65s1.08-1.14,1.59-1.65l.28-.28c.5-.48,1-.95,1.49-1.39l.2-.18c.52-.46,1-.87,1.47-1.26l.09-.07c.55-.46,1-.84,1.54-1.21l.32-.24c.45-.33.93-.68,1.4-1l.2-.14c.44-.3.87-.59,1.3-.86l.21-.13c.44-.28.89-.55,1.32-.81l.21-.12,1.32-.74.68-.36.23-.38.4-.77c.08-.15.45-.93.45-.93l.45-1.09.46-1.18c.13-.37.28-.78.42-1.2l.46-1.43.45-1.5.45-1.59.43-1.64.44-1.73.44-1.83.44-1.85,1.49-6.65,1.5-6.76.52-2.25L65,72.86l.55-2.28.58-2.32.6-2.35.62-2.3L68,61.24l.69-2.37.45-1.44.28-.92c.25-.78.5-1.57.77-2.35C73.37,44.67,79,37.39,86.36,32.89a23.67,23.67,0,1,1,43.6,0c6.2,3.74,12.44,10.2,16.16,21.29a284.19,284.19,0,0,1,7.6,29.29c2.19,9.9,4.44,20.11,7.15,24.49A49,49,0,0,1,182,129.21c8.08,3.65,22.32,12,31.4,28.66a12.87,12.87,0,0,1,2.76,6.18,7.67,7.67,0,0,1,.13,2.08c-.27,9.83-11.35,16.3-35.83,21C161.07,190.78,135.39,192.82,108.15,192.82Zm0-171.5a2.36,2.36,0,1,0,2.35,2.36A2.36,2.36,0,0,0,108.16,21.32Z"/>
    <g>
      <path class="cls-3" d="M108.16,8a15.68,15.68,0,1,0,15.67,15.68A15.68,15.68,0,0,0,108.16,8Zm0,26a10.36,10.36,0,1,1,10.35-10.35A10.36,10.36,0,0,1,108.16,34Z"/>
      <path class="cls-4" d="M138.54,56.7c-6.51-19.4-22-21.1-28-21-1.58,0-3.17,0-4.75,0-6-.09-21.5,1.61-28,21C69.64,81,68,107.87,59.73,115.26h96.85C148.3,107.87,146.67,81,138.54,56.7Z"/>
      <path class="cls-5" d="M153.82,113.49c-6-3.71-24.09-6.4-45.52-6.4-20.85,0-38.57,2.55-45,6.1a41,41,0,0,0-23.09,22.3H176.11A41.09,41.09,0,0,0,153.82,113.49Z"/>
      <path class="cls-6" d="M175.46,135.16c-8.79-5.13-35.5-8.86-67.1-8.86-30.72,0-56.83,3.53-66.33,8.44-4.91,1.66-24.4,9.43-34,30.84H208.31C199.33,145.61,181.77,137.5,175.46,135.16Z"/>
      <path class="cls-7" d="M64.58,129c3-17.22,17.92-20.51,17.92-20.51.59-54,26-68.14,36.66-71.69a30.14,30.14,0,0,0-8.63-1.15c-1.58,0-3.17,0-4.75,0-6-.09-21.5,1.61-28,21-7.8,23.26-9.61,49-17,57.55a41.12,41.12,0,0,0-20.47,21.14C33.49,138,16.71,146.22,8,165.58H40.51l.94-14C44.93,131,64.58,129,64.58,129Z"/>
      <g>
        <ellipse class="cls-8" cx="108.15" cy="165.76" rx="100.15" ry="19.06"/>
        <ellipse class="cls-9" cx="108.15" cy="157.77" rx="90.95" ry="11.07"/>
        <path class="cls-10" d="M89.73,161a18.42,18.42,0,1,0,30.16-14.19c-3.85-.09-7.77-.13-11.74-.13s-7.89,0-11.74.13A18.38,18.38,0,0,0,89.73,161Z"/>
      </g>
    </g>
  </g>
</svg>
