<svg xmlns="http://www.w3.org/2000/svg" width="263.69" height="129.24" viewBox="0 0 263.69 129.24">
  <defs>
    <style>
      .cls-1 {
        isolation: isolate;
      }

      .cls-2 {
        fill: #353535;
        opacity: 0.3;
      }

      .cls-3 {
        fill: #fff;
      }

      .cls-4 {
        fill: #fac294;
      }

      .cls-5 {
        fill: #9d2021;
      }

      .cls-6, .cls-7 {
        fill: #ef9799;
      }

      .cls-14, .cls-18, .cls-20, .cls-7 {
        opacity: 0.5;
      }

      .cls-19, .cls-7 {
        mix-blend-mode: screen;
      }

      .cls-8 {
        fill: #cbcac1;
      }

      .cls-9 {
        fill: #cccbc2;
      }

      .cls-11, .cls-12, .cls-18, .cls-20, .cls-9 {
        mix-blend-mode: multiply;
      }

      .cls-10 {
        fill: #e7e8da;
      }

      .cls-12, .cls-13 {
        fill: #eae8db;
      }

      .cls-14 {
        fill: #f17997;
      }

      .cls-15, .cls-18 {
        fill: #ea5f59;
      }

      .cls-16 {
        fill: none;
      }

      .cls-17, .cls-19 {
        fill: #e96774;
      }
    </style>
  </defs>
  <g class="cls-1">
    <g id="Layer_1" data-name="Layer 1">
      <g>
        <path class="cls-2" d="M134.6,129.24a212.91,212.91,0,0,1-44.12-5.12l-.18-.05C42.11,111.48,19.58,65,12.65,47.36a8.78,8.78,0,0,1-7.84-6.87c-1.21-5.55-1.57-9.68-1.08-12.3,1.11-5.86,6.7-8.91,11.4-10.46l3.19-1.41a8.81,8.81,0,0,1,10.12,2.22L36,17.92a185.74,185.74,0,0,0,24-4.57c3-.82,5.95-1.67,8.92-2.52C72.25,9.89,75.52,9,78.7,8.09l.15,0c8.65-2.36,17.62-4.53,24.67-4.53A21.33,21.33,0,0,1,113,5.38a76.39,76.39,0,0,1,10.35,6.39c.84.59,1.84,1.29,2.72,1.87l.61-.44c4.43-3.3,11.86-8.82,23.65-8.82a41.44,41.44,0,0,1,6.39.51c4.77.75,13.21,2.19,23,3.85,10.54,1.79,22.87,3.88,34.49,5.79,15.32,2.46,23.88,3.56,28.66,4a8.88,8.88,0,0,1,3.79-2.7,8.75,8.75,0,0,1,3-.54,8.89,8.89,0,0,1,3.87.9c5.59,2.74,8.39,9.13,9.75,14.07.1.34.19.69.26,1a8.79,8.79,0,0,1-6.72,10.31,8.34,8.34,0,0,1-1.91.21,8.08,8.08,0,0,1-1.56-.14l-.11.14c-2.22,2.65-23.41,31.86-30.9,44.89-10,17.39-36.1,33.88-63.47,40.1A110.61,110.61,0,0,1,134.6,129.24Z"/>
        <path class="cls-3" d="M131.08,125.72A212.76,212.76,0,0,1,87,120.6l-.18,0C38.6,108,16.06,61.46,9.13,43.84A8.77,8.77,0,0,1,1.3,37C.08,31.42-.28,27.29.22,24.68c1.11-5.87,6.7-8.92,11.4-10.47l3.19-1.4a8.62,8.62,0,0,1,3.53-.75,8.82,8.82,0,0,1,6.59,3l7.56-.62a184.23,184.23,0,0,0,24-4.57c3-.81,5.94-1.67,8.91-2.51,3.3-1,6.57-1.88,9.74-2.74l.15,0C84,2.18,93,0,100,0a21.43,21.43,0,0,1,9.43,1.86,75.43,75.43,0,0,1,10.35,6.4c.84.58,1.84,1.28,2.73,1.87l.6-.45C127.56,6.38,135,.86,146.77.86a41.44,41.44,0,0,1,6.39.51c4.77.75,13.22,2.19,23,3.85C186.7,7,199,9.11,210.66,11c15.32,2.47,23.87,3.56,28.65,4a8.79,8.79,0,0,1,3.8-2.71,8.68,8.68,0,0,1,3-.53,8.88,8.88,0,0,1,3.87.89c5.6,2.74,8.39,9.13,9.75,14.07.1.34.19.69.26,1a8.79,8.79,0,0,1-6.72,10.32,8.73,8.73,0,0,1-3.46.07l-.12.13c-2.22,2.65-23.4,31.86-30.9,44.9-10,17.39-36.1,33.87-63.47,40.1A110.64,110.64,0,0,1,131.08,125.72Z"/>
        <g>
          <path class="cls-4" d="M246.12,20.58c-.09.22.8,2.69.41,3.16-1.7,2.09-43.21-5-50.2-6.19S121,26.32,121,26.32L77.56,13,51.05,21.68l-35.84,3a33.44,33.44,0,0,0,3.13-3.79l-3.6,1.58s-5.47,1.71-5.89,3.88,1,8.77,1,8.77a28.44,28.44,0,0,1,2-7.08,77.46,77.46,0,0,1,4.53,10.18C18.45,43.76,38.46,98.84,89,112.05c0,0,37.14,8.87,64.37,2.68s50-22.31,57.8-35.91,29.15-43,31.79-46.16,5.4-6.34,5.4-6.34,2.6,1.14,3,3.2C251.38,29.52,249.64,22.3,246.12,20.58Z"/>
          <path class="cls-5" d="M17.05,26.32,13.2,27.39s17.46,32.8,31.08,47.45S95.45,106.61,143.73,100s58.39-20.42,67.46-32S243,27.82,243,27.82s-6.19-.92-6.81-1.5-86.24-5.1-96.56-3.56-47.87.52-58.18,0S17.05,26.32,17.05,26.32Z"/>
          <path class="cls-6" d="M32.54,46.11c4.82,3.16,9.56,6.62,14.82,9a98.74,98.74,0,0,0,17,5.82,328.38,328.38,0,0,0,35.09,7.11c10.06,1.41,20.57,2.34,30.68.75,5.06-1.43,10.39-1.68,15.58-2.41,6-.86,12.07-1.76,18.07-2.84,11.21-2,23.35-4,33.64-9.11,5.45-2.68,10.57-6.07,16.2-8.38,5.83-2.4,11.7-3.85,16.88-7.65a60.78,60.78,0,0,0,10.7-10.26l.49-.56c-1.84-.3-5.08-.89-5.52-1.3-.62-.58-86.24-5.1-96.56-3.56s-47.87.52-58.18,0-64.37,3.56-64.37,3.56L14.74,27C17.65,35.46,25.05,41.2,32.54,46.11Z"/>
          <g>
            <path class="cls-7" d="M163.66,40.32a1.16,1.16,0,0,1-1.8-.49,13.26,13.26,0,0,0-1.07-1.54c-.79-1-1.95-1.52-2.85-2.4,0,0-.07,0-.05,0,.51.67,1.11,1.26,1.63,1.93a14.31,14.31,0,0,1,.67,1.36c.27.45.6.78.83,1.26.71,1.44,1.92,1.25,2.78,0C163.87,40.43,163.81,40.24,163.66,40.32Z"/>
            <path class="cls-7" d="M180.31,34.56s0,0,0,0c3.25,1.78,4.28,5.06,5.1,8.42,0,.18.31.08.33-.07C186.26,39.21,183.6,35.93,180.31,34.56Z"/>
            <path class="cls-7" d="M202.92,36.39a4,4,0,0,0-2.29-1.31s0,0,0,0a4.83,4.83,0,0,1,1.92,1.57c.22.35.3.77.5,1.1l.66,1.12c.08.13.27,0,.27-.12A4.66,4.66,0,0,0,202.92,36.39Z"/>
            <path class="cls-7" d="M217.88,33.1a.26.26,0,0,0-.15-.17c-.1,0-.21-.31-.28-.4a2.22,2.22,0,0,0-.64-.49,1.93,1.93,0,0,0-.36-.22c-.06,0-.27,0-.22-.12a0,0,0,1,0,0,0s-.08.13,0,.16c.19.17.39.33.58.51s.63.6.56.87.18.58.32.75a.19.19,0,0,0,.32-.11A1.77,1.77,0,0,0,217.88,33.1Z"/>
            <path class="cls-7" d="M229.06,34.06a6.47,6.47,0,0,0-1-2.5s-.08,0-.07,0a5.15,5.15,0,0,1,.09.88,7.68,7.68,0,0,1,.25,1.72c0,1-.22,2-.27,3,0,.33.41.25.52,0A5.61,5.61,0,0,0,229.06,34.06Z"/>
            <path class="cls-7" d="M129.36,41.19c-1.79.78-4,1.38-5.56-.25,0,0-.08,0-.06.06a3.73,3.73,0,0,0,2.67,2,3.55,3.55,0,0,0,3.26-1.31C129.86,41.42,129.69,41.05,129.36,41.19Z"/>
            <path class="cls-7" d="M92.87,39c-.42.24-.8.52-1.22.76-.87.49-1.5.13-2.29-.24A13.15,13.15,0,0,1,86,37s-.06,0-.05,0c1.17,1.47,1.84,2.8,3.61,3.64,1.48.71,2.6-.18,3.48-1.37C93.19,39.19,93.09,38.91,92.87,39Z"/>
            <path class="cls-7" d="M68,41c-1.4-.21-1.83-1-2.74-2a9.06,9.06,0,0,0-3.7-2.56s0,0,0,0a9.39,9.39,0,0,1,3,2.59,23.2,23.2,0,0,0,1.52,2c.44.44,1.75,1,2.08.23C68.19,41.12,68.16,41,68,41Z"/>
            <path class="cls-7" d="M49.17,37.38a10,10,0,0,0-1.54-2.24,3.39,3.39,0,0,0-.8-.66c-.35-.23-.11-.18-.44-.32-.11,0-.57-.19-.59-.31s0,0,0,0c0,.26.31.37.5.51a8.38,8.38,0,0,1,1,1.08c.53.63.8,2,1.7,2.22A.24.24,0,0,0,49.17,37.38Z"/>
            <path class="cls-7" d="M34.72,32a5.67,5.67,0,0,0-.76-.52c-.27-.16-.57-.14-.83-.3-.05,0-.11,0-.06.08s.41.21.58.37a6.85,6.85,0,0,1,.71.9c.29.36.67,1.2,1.22,1.06a.38.38,0,0,0,.28-.44C35.79,32.62,35.07,32.22,34.72,32Z"/>
            <path class="cls-7" d="M25.49,35.89c-.17-.82-.13-1.66-.3-2.47,0,0-.07,0-.07,0,0,.87-.21,1.73-.15,2.61a5.5,5.5,0,0,0,.72,2.37c.13.23.43,0,.39-.23C25.9,37.42,25.65,36.67,25.49,35.89Z"/>
          </g>
          <g>
            <g>
              <g>
                <path class="cls-3" d="M35.14,50.82s-3.54-1.73-2.41,2.73,5.71,16.75,9.54,17.59,3.59-5.53,3.15-6.66S43,54.67,42.27,54.11,35.14,50.82,35.14,50.82Z"/>
                <path class="cls-8" d="M42.16,54c-1,1.89.19,5.42.5,7.29a68.79,68.79,0,0,0,2.18,8.76,8.39,8.39,0,0,0,.58-5.61C45,63.36,43,54.67,42.27,54.11Z"/>
                <path class="cls-3" d="M43.54,54.11s-1.52-1-1.24,1.5,3,19,6.76,20.93,6.38,1.67,6.64-5.9a40.24,40.24,0,0,0-1.43-12.72S46.29,54.7,43.54,54.11Z"/>
                <path class="cls-8" d="M53.69,66.61c.44,2.37,1.07,4.68,1.72,7a21,21,0,0,0,.29-3,40.24,40.24,0,0,0-1.43-12.72l-1.18-.47C52.15,60.1,53.2,64,53.69,66.61Z"/>
                <g>
                  <path class="cls-3" d="M56.52,57.92s-3.24-2.17-3,.93S55,73.49,57.93,79.27s8.55,7.51,10.6,4.08,0-15.49,0-15.49-.49-4.4-1.67-5.8C66.15,61.22,56.52,57.92,56.52,57.92Z"/>
                  <path class="cls-9" d="M69.43,78.82a65.78,65.78,0,0,0-.9-11,23,23,0,0,0-.94-4.37C66.55,68.62,67.87,73.82,69.43,78.82Z"/>
                </g>
                <path class="cls-3" d="M71.31,63.5s-3.44-.57-3.27,2.81,2.7,22,9,23.37,10-3.94,10-10.27V69.23s.25-1.51-1.49-1.51S71.31,63.5,71.31,63.5Z"/>
                <path class="cls-8" d="M85.08,76.22A50.94,50.94,0,0,0,86,84.7s0,.1,0,.15a14,14,0,0,0,1-5.44V69.23a1.52,1.52,0,0,0,0-.54C84.38,67.83,85,74.75,85.08,76.22Z"/>
                <path class="cls-10" d="M87.5,69.23s-2-.93-1.92,1.32.09,18.57,5.72,22,14.08,3.38,13.94-5.77a127.81,127.81,0,0,0-.71-13.38s.28-.42-1.4-1.12S87.5,69.23,87.5,69.23Z"/>
                <path class="cls-3" d="M87.5,69.23s-2-.93-1.92,1.32.09,18.57,5.72,22,14.08,3.38,13.94-5.77a127.81,127.81,0,0,0-.71-13.38s.28-.42-1.4-1.12S87.5,69.23,87.5,69.23Z"/>
                <path class="cls-8" d="M102,81.12a30.77,30.77,0,0,0,2.79,9,10.63,10.63,0,0,0,.46-3.43,127.81,127.81,0,0,0-.71-13.38s.28-.42-1.4-1.12a11.89,11.89,0,0,0-1.39-.39C100.68,74,101.78,79.76,102,81.12Z"/>
                <path class="cls-3" d="M126.72,88.7s.6-16-.45-15.09c-.27.23-18.78-1.06-21.88-1.36,0,0-2.18-.45-1.86,3.07s.74,17.74,7.64,20.84S125.83,98.83,126.72,88.7Z"/>
              </g>
              <g>
                <path class="cls-3" d="M218.3,50.82s3.54-1.73,2.42,2.73S215,70.3,211.18,71.14s-3.6-5.53-3.15-6.66,2.43-9.81,3.15-10.37S218.3,50.82,218.3,50.82Z"/>
                <path class="cls-8" d="M211.29,54c1,1.89-.19,5.42-.5,7.29a68.82,68.82,0,0,1-2.19,8.76,8.44,8.44,0,0,1-.57-5.61c.44-1.12,2.43-9.81,3.15-10.37Z"/>
                <path class="cls-3" d="M209.91,54.11s1.52-1,1.23,1.5-2.95,19-6.75,20.93-6.38,1.67-6.64-5.9a40.24,40.24,0,0,1,1.43-12.72S207.15,54.7,209.91,54.11Z"/>
                <path class="cls-8" d="M199.76,66.61c-.44,2.37-1.07,4.68-1.72,7a21,21,0,0,1-.29-3,40.24,40.24,0,0,1,1.43-12.72l1.18-.47C201.29,60.1,200.24,64,199.76,66.61Z"/>
                <g>
                  <path class="cls-3" d="M196.92,57.92s3.24-2.17,3,.93-1.41,14.64-4.36,20.42-8.55,7.51-10.61,4.08,0-15.49,0-15.49.5-4.4,1.68-5.8C187.29,61.22,196.92,57.92,196.92,57.92Z"/>
                  <path class="cls-9" d="M184,78.82a66.28,66.28,0,0,1,.89-11,23.36,23.36,0,0,1,1-4.37C186.9,68.62,185.58,73.82,184,78.82Z"/>
                </g>
                <path class="cls-3" d="M182.14,63.5s3.44-.57,3.27,2.81-2.7,22-9,23.37-10-3.94-10-10.27V69.23s-.24-1.51,1.5-1.51S182.14,63.5,182.14,63.5Z"/>
                <path class="cls-8" d="M168.37,76.22a52,52,0,0,1-.92,8.48.83.83,0,0,0,0,.15,14,14,0,0,1-1-5.44V69.23a1.87,1.87,0,0,1,0-.54C169.06,67.83,168.43,74.75,168.37,76.22Z"/>
                <path class="cls-10" d="M166,69.23s2-.93,1.92,1.32-.09,18.57-5.72,22-14.08,3.38-13.94-5.77a130.36,130.36,0,0,1,.7-13.38s-.28-.42,1.41-1.12S166,69.23,166,69.23Z"/>
                <path class="cls-3" d="M166,69.23s2-.93,1.92,1.32-.09,18.57-5.72,22-14.08,3.38-13.94-5.77a130.36,130.36,0,0,1,.7-13.38s-.28-.42,1.41-1.12S166,69.23,166,69.23Z"/>
                <path class="cls-8" d="M151.46,81.12a31.07,31.07,0,0,1-2.79,9,10.63,10.63,0,0,1-.46-3.43,130.36,130.36,0,0,1,.7-13.38s-.28-.42,1.41-1.12a11.89,11.89,0,0,1,1.39-.39C152.77,74,151.67,79.76,151.46,81.12Z"/>
                <path class="cls-8" d="M126.72,88.7s-.08-15.33.17-15.09,19.07-1.06,22.16-1.36c0,0,2.19-.45,1.87,3.07s-.74,17.74-7.64,20.84S127.62,98.83,126.72,88.7Z"/>
                <path class="cls-3" d="M126.72,88.7s1.11-15.33,1.36-15.09,17.88-1.06,21-1.36c0,0,2.19-.45,1.87,3.07s-.74,17.74-7.64,20.84S127.62,98.83,126.72,88.7Z"/>
              </g>
            </g>
            <g class="cls-11">
              <path class="cls-12" d="M220.72,53.55c1.12-4.46-2.42-2.73-2.42-2.73s-4.47,1.91-6.36,2.86l8.7.16C220.67,53.74,220.7,53.64,220.72,53.55Z"/>
              <path class="cls-13" d="M43.71,55.78s2.6,5.32,12,5.07c0,0-.57,5.88,13,7.77,0,0,4.14.09,4.72-1.58,0,0,2.06,4.16,8.11,5.19s16.66,2.54,16.66,2.54-.43,1,2,2,12.1,3.3,24.34,1.42c0,0,1.49-.89,2.33-1.47,0,0,1.46,2.28,12,2.18s15.37-1.83,16.44-3.41c0,0,17.09-.74,20.61-5.37s5.2-4.81,5.2-3.71,1.63,4,13.35-1.8c0,0,3.39-2.51,4-3.73,0,0,10.41-.14,12.63-4.87,0,0,2.6,3.2,8.8.32.31-.94.56-1.77.74-2.46l-8.7-.16a4.53,4.53,0,0,0-.76.43.58.58,0,0,0-.13.16c-.32-.72-1.14-.16-1.14-.16a101.32,101.32,0,0,0-10.17,3.58c-.6-1.25-2.82.23-2.82.23s-9.63,3.3-10.33,4.14a4.65,4.65,0,0,0-.73,1.43h0a1.34,1.34,0,0,0-.09.26s0,.1-.05.14a2.76,2.76,0,0,0-.08.27s0,.09,0,.13q-.14.48-.24,1s0,.07,0,.1h0c-.48-2.29-3.2-1.85-3.2-1.85s-12.53,4.22-14.27,4.22c-1.43,0-1.52,1-1.51,1.38a2,2,0,0,0-.41.13s-11.12,1.83-14.7,2.72h0l-.35.1h0l-.26.07-.05,0-.22.08-.35.16a1.58,1.58,0,0,0-.92-.14c-2.63.25-16.64,1.23-20.91,1.37h-.06s0,0,0,0a5.73,5.73,0,0,1-1.17,0,8,8,0,0,0-.12,1.77c-.1-1.24-.25-2-.5-1.77s-18.78-1.06-21.88-1.36a1.55,1.55,0,0,0-.91.14l-.35-.16-.22-.08-.06,0-.25-.07,0,0-.34-.08h0l-.43-.1h0c-4-.92-14.24-2.61-14.24-2.61a2.3,2.3,0,0,0-.42-.13c0-.37-.07-1.38-1.5-1.38-1.74,0-14.27-4.22-14.27-4.22s-2.73-.44-3.2,1.85v-.06c-.07-.35-.16-.69-.26-1a.19.19,0,0,0,0-.07l-.09-.31,0-.09a5.4,5.4,0,0,0-.83-1.72c-.71-.84-10.34-4.14-10.34-4.14s-2.21-1.48-2.82-.23a100.25,100.25,0,0,0-10.16-3.58s-.82-.56-1.14.16a.58.58,0,0,0-.13-.16c-.73-.57-7.13-3.29-7.13-3.29S32.53,49.55,32.51,52A13.38,13.38,0,0,0,43.71,55.78Z"/>
            </g>
            <g>
              <g>
                <path class="cls-3" d="M36.28,36.5s-4.07-6.27-8.36-5.63-.75,15.44,7.45,22.52c0,0,6.7,3.26,8.21,1.1S36.28,36.5,36.28,36.5Z"/>
                <path class="cls-9" d="M36,36.05c-1.65,7,1.69,13.54,5.79,19.17a2.13,2.13,0,0,0,1.82-.73c1.5-2.17-7.3-18-7.3-18S36.17,36.32,36,36.05Z"/>
                <path class="cls-3" d="M46.36,36s-5.14-5.66-9.65-2.16S40.14,53.39,44.43,57s10.51,2.79,11.37,1.07S49.79,38.5,46.36,36Z"/>
                <path class="cls-9" d="M51,51.35A31.88,31.88,0,0,0,54.61,59a2.27,2.27,0,0,0,1.19-.93c.6-1.2-2.58-10.32-5.72-16.56C50,44.86,49.9,48.06,51,51.35Z"/>
                <g>
                  <path class="cls-3" d="M64.6,41.17S59.88,34,53.44,36.5s-2.36,14.75,1.29,21.61,6.86,6.65,11.15,8.15,7,1.09,6.39-3.53S68.34,44.85,64.6,41.17Z"/>
                  <path class="cls-9" d="M72.35,64a7.49,7.49,0,0,0-.08-1.29,76.94,76.94,0,0,0-4.08-15.19C68.19,53,68.68,58.4,72.35,64Z"/>
                </g>
                <g>
                  <path class="cls-3" d="M92,46.1S84.76,33,75.32,35.38s-6.86,19.08-4.08,25.3,7.23,9.66,9.09,10.3,16.43,3.46,17.61,2.8S95.55,53.61,92,46.1Z"/>
                  <path class="cls-9" d="M92.23,60.65c1.32,4.52,3.13,8.86,4.87,13.23a2.18,2.18,0,0,0,.84-.1c1.19-.66-2.39-20.17-6-27.68,0,0-.3-.55-.86-1.39A39.87,39.87,0,0,0,92.23,60.65Z"/>
                </g>
                <path class="cls-3" d="M125.37,46s-4.26-12.08-16.88-12.16S92.76,39.67,92.05,48.24s3.86,24,7.43,27.74c0,0,9.73,4.15,24.88,1a3.29,3.29,0,0,0,2.15-2.58C126.79,72.41,127.08,52.39,125.37,46Z"/>
              </g>
              <g>
                <path class="cls-3" d="M217.17,36.5s4.07-6.27,8.36-5.63.75,15.44-7.45,22.52c0,0-6.71,3.26-8.21,1.1S217.17,36.5,217.17,36.5Z"/>
                <path class="cls-9" d="M217.48,36.05c1.65,7-1.69,13.54-5.79,19.17a2.13,2.13,0,0,1-1.82-.73c-1.5-2.17,7.3-18,7.3-18S217.28,36.32,217.48,36.05Z"/>
                <path class="cls-3" d="M207.08,36s5.15-5.66,9.66-2.16S213.3,53.39,209,57s-10.51,2.79-11.36,1.07S203.66,38.5,207.08,36Z"/>
                <path class="cls-9" d="M202.47,51.35A31.88,31.88,0,0,1,198.84,59a2.27,2.27,0,0,1-1.19-.93c-.6-1.2,2.58-10.32,5.72-16.56C203.43,44.86,203.54,48.06,202.47,51.35Z"/>
                <g>
                  <path class="cls-3" d="M188.85,41.17S193.57,34,200,36.5s2.36,14.75-1.29,21.61-6.86,6.65-11.15,8.15-7,1.09-6.4-3.53S185.11,44.85,188.85,41.17Z"/>
                  <path class="cls-9" d="M181.1,64a8.54,8.54,0,0,1,.07-1.29,77.79,77.79,0,0,1,4.09-15.19C185.26,53,184.77,58.4,181.1,64Z"/>
                </g>
                <g>
                  <path class="cls-3" d="M161.47,46.1S168.69,33,178.13,35.38s6.86,19.08,4.07,25.3S175,70.34,173.12,71s-16.43,3.46-17.61,2.8S157.9,53.61,161.47,46.1Z"/>
                  <path class="cls-9" d="M161.22,60.65c-1.32,4.52-3.13,8.86-4.88,13.23a2.15,2.15,0,0,1-.83-.1c-1.19-.66,2.39-20.17,6-27.68,0,0,.31-.55.86-1.39A39.86,39.86,0,0,1,161.22,60.65Z"/>
                </g>
                <path class="cls-3" d="M128.08,46S132.34,33.88,145,33.8s15.72,5.87,16.44,14.44S157.54,72.27,154,76c0,0-9.72,4.15-24.87,1a3.29,3.29,0,0,1-2.15-2.58C126.65,72.41,126.37,52.39,128.08,46Z"/>
              </g>
            </g>
          </g>
          <g class="cls-11">
            <path class="cls-14" d="M236.16,26.32c-.62-.58-86.24-5.1-96.56-3.56s-47.87.52-58.18,0-64.37,3.56-64.37,3.56L14.74,27c2,5.78,6,10.28,10.78,14.12-1.48-4.59-3-11-.26-11.15,4.33-.2,29.07,1.09,39,.9s29.24,4.83,45.57,5.89,27.51-.31,41.13-2.16,78.46-5.68,79.59-3.73.48,5-.53,7.94l.48-.33a60.78,60.78,0,0,0,10.7-10.26l.49-.56C239.84,27.32,236.6,26.73,236.16,26.32Z"/>
          </g>
          <g>
            <g>
              <path class="cls-15" d="M241.52,32.34s-20.08,29.71-30,43.46-32.6,40.73-85.14,39.91S53.64,95.63,38,74,13.2,27.39,13.2,27.39s.41-2.34,2.2,0,21,47,64.78,53.92,85,6.53,109.63-6.75c0,0,29-19.94,43.18-36,6.08-6.9,8-12.67,12.25-12.18l.13,1Z"/>
              <g>
                <path class="cls-16" d="M79.78,108a17.73,17.73,0,0,0,2.43.88c-.83-.29-1.66-.59-2.47-.9Z"/>
                <path class="cls-17" d="M79.74,108a16.18,16.18,0,0,0-1.82-.71Z"/>
                <path class="cls-18" d="M245.24,26.35c-4.27-.49-6.17,5.28-12.25,12.18-14.16,16.09-43.18,36-43.18,36-24.63,13.28-65.89,13.62-109.63,6.75s-63-51.58-64.78-53.92-2.2,0-2.2,0A213.43,213.43,0,0,0,22.82,49c.49-1.07,1.44-1.56,3.26.66,3.71,4.52,17.75,34.52,69.33,40.29,0,0,46.6,3,52.8,2.19s3.18,13.21-4.11,16.51c-6.85,3.1-47.61,4.43-61.89.25,11.61,4.06,26,6.56,44.19,6.85,52.54.82,75.23-26.15,85.14-39.91s30-43.46,30-43.46l3.85-5Z"/>
                <path class="cls-18" d="M23,40.49c-4.57-7-7-12.34-7.61-13.1-1.79-2.34-2.2,0-2.2,0S15.22,33,19,41.13C20.1,39.7,21.56,39.78,23,40.49Z"/>
                <path class="cls-18" d="M245.24,26.35c-4.27-.49-6.17,5.28-12.25,12.18-1.87,2.13-4,4.32-6.3,6.53a.06.06,0,0,1,0,0c.07,4.15-2.32,8.12-4.39,11.56-2.62,4.36-5.26,8.68-8.23,12.82-6,8.33-11.7,16.9-18.87,24.28a98.15,98.15,0,0,0,16.33-18c9.9-13.75,30-43.46,30-43.46l3.85-5Z"/>
              </g>
              <g>
                <path class="cls-19" d="M70.79,89.17c-.35-.77-.67-1.55-1-2.35a106.92,106.92,0,0,1-12.7-5.73,4.85,4.85,0,0,0-2.33-.7C58.93,84.71,65.14,87.18,70.79,89.17Z"/>
                <path class="cls-19" d="M97.46,95.92c14.55,2.42,29.77,3,44.1-.78v-.22c-.12-2.87-30.09,4.4-63.49-5.35.31.77.63,1.53,1,2.29A164.54,164.54,0,0,0,97.46,95.92Z"/>
              </g>
            </g>
            <g>
              <path class="cls-15" d="M13.2,25.19s26.68-1.65,45.66-6.88S98.2,6.2,105.63,9.78s14.68,10.79,17.66,10c5.23-1.37,11.72-12.36,28.5-9.72s79,13.75,95.23,15.13c0,0,2.75.55-1.65,2.2s-66.33,3.54-83.7,5.09c-14.19,1.27-34.31,6.46-57.14,3.16-17.06-2.47-26.41-5.23-43.74-6.33S15.4,28.76,13.2,27.39,11.28,25.32,13.2,25.19Z"/>
              <g class="cls-20">
                <path class="cls-15" d="M247,25.19c-16.15-1.37-77.84-12.38-95-15.09,10.69,3,22.51,10,25.19,13,3.6,4-.55,1.92-31.29,7.77S91.07,28.7,75,26.35s-54.26.08-57.77-.54A2.59,2.59,0,0,1,15.6,25l-2.4.18c-1.92.13-2.2.82,0,2.2s30.26.82,47.59,1.92,26.68,3.86,43.74,6.33c22.83,3.3,42.95-1.89,57.14-3.16C179,30.93,241,29,245.37,27.39S247,25.19,247,25.19Z"/>
              </g>
              <g class="cls-20">
                <path class="cls-15" d="M17.49,25.84l-.28,0A2.59,2.59,0,0,1,15.6,25l-2.4.18c-1.92.13-2.2.82,0,2.2.61.38,3.22.61,7,.77C19.32,27.41,18.4,26.63,17.49,25.84Z"/>
                <path class="cls-15" d="M247.39,25.3c-5.4.85-10.69,2.14-16,3.45,7.48-.46,12.79-.92,14-1.36C248.66,26.16,248,25.54,247.39,25.3Z"/>
              </g>
              <path class="cls-19" d="M65.08,18.79s28.13-8.9,34.86-8.69,16.51,9.72,20.64,11c0,0-8.64-1.68-15.26-5.48S95.61,11.62,89,13,65.08,18.79,65.08,18.79Z"/>
              <path class="cls-19" d="M128.21,19s10.73-8.87,17.33-7.84C145.54,11.16,133.13,18.21,128.21,19Z"/>
            </g>
          </g>
        </g>
      </g>
    </g>
  </g>
</svg>
