<svg id="Layer_1" data-name="Layer 1" xmlns="http://www.w3.org/2000/svg" width="188.62" height="237.6" viewBox="0 0 188.62 237.6">
  <defs>
    <style>
      .cls-1 {
        opacity: 0.5;
      }

      .cls-2 {
        fill: #fff;
      }

      .cls-3 {
        fill: #ad6e3e;
      }

      .cls-4 {
        fill: #772f07;
      }

      .cls-5 {
        fill: #894416;
      }

      .cls-6 {
        fill: #964816;
      }

      .cls-7 {
        fill: #8c3600;
      }

      .cls-8 {
        fill: #964508;
      }

      .cls-9 {
        fill: #281005;
      }

      .cls-10 {
        fill: #de8600;
      }

      .cls-11 {
        fill: #e4ae31;
      }

      .cls-12 {
        fill: #dedede;
      }

      .cls-13 {
        fill: #703711;
      }
    </style>
  </defs>
  <g>
    <path class="cls-1" d="M68.05,237.6c-32.27,0-54.21-26.11-57-29.55A29.15,29.15,0,0,1,9,205.13c-.31-.47-.56-.89-.77-1.27-5.79-10.3-4.59-23.35,3.37-36.75C22.75,148.25,46,131.79,70,125.47L92.15,91.28a12.36,12.36,0,0,1,0-21.57,11.91,11.91,0,0,1,2-.89,12.65,12.65,0,0,1,.46-3.7,12.33,12.33,0,0,1,5.86-7.44,13.28,13.28,0,0,1,1.92-.87,12.41,12.41,0,0,1,6.23-12.22,12.58,12.58,0,0,1,2.93-1.18,12.4,12.4,0,0,1,6.13-12.94l.65-.34a12.36,12.36,0,0,1,19.84-9.78l.16-.25a5.13,5.13,0,0,1,.44-.6c5.48-6.81,13.55-14.93,20.87-14.93a10.84,10.84,0,0,1,1.62.12,10.36,10.36,0,0,1,6,3.18,7.21,7.21,0,0,1,.74.82,35.27,35.27,0,0,1,5.92,12.39,12.37,12.37,0,0,1,3.95,23,11.11,11.11,0,0,1-1.2.59,12.41,12.41,0,0,1-3.57,10.43,22.27,22.27,0,0,1,12.89,10.2c6.81,12.13.18,28.83-14.78,37.22a36.31,36.31,0,0,1-17.69,4.79h0a25.92,25.92,0,0,1-17.38-6.14L119,132.8a27.69,27.69,0,0,1,3.79,4.59,6.91,6.91,0,0,1,.54.86,27.74,27.74,0,0,1,3.8,11.08c3.51,13.81,10.94,57.79-28.64,80A61.61,61.61,0,0,1,68.05,237.6Z"/>
    <path class="cls-2" d="M63.48,233c-32.26,0-54.21-26.11-57-29.55a29.15,29.15,0,0,1-2.14-2.92c-.3-.47-.56-.89-.77-1.27C-2.17,189-1,175.94,7,162.55c11.2-18.87,34.41-35.33,58.44-41.65L87.58,86.71a12.36,12.36,0,0,1,0-21.57,13.26,13.26,0,0,1,2-.89,12.45,12.45,0,0,1,6.32-11.13,11.8,11.8,0,0,1,1.92-.87A12.42,12.42,0,0,1,104,40,12.65,12.65,0,0,1,107,38.84a12.38,12.38,0,0,1,6.12-12.94l.66-.34a12.35,12.35,0,0,1,19.83-9.78l.16-.24a6.76,6.76,0,0,1,.44-.61C139.64,8.12,147.71,0,155,0a10.84,10.84,0,0,1,1.62.12,10.36,10.36,0,0,1,6,3.18,6.46,6.46,0,0,1,.74.83,34.89,34.89,0,0,1,5.92,12.39,12.37,12.37,0,0,1,3.95,23c-.39.21-.79.41-1.19.58a12.45,12.45,0,0,1-3.58,10.43,22.21,22.21,0,0,1,12.89,10.21c6.81,12.13.18,28.82-14.78,37.21a36.33,36.33,0,0,1-17.69,4.8h0a25.88,25.88,0,0,1-17.38-6.15l-17.14,31.65a27.21,27.21,0,0,1,3.79,4.59,6.91,6.91,0,0,1,.54.86,28,28,0,0,1,3.81,11.08c3.51,13.81,10.93,57.79-28.65,80A61.61,61.61,0,0,1,63.48,233Z"/>
    <g>
      <path class="cls-3" d="M116.65,32.28a5.06,5.06,0,1,0,6.89,1.93A5.06,5.06,0,0,0,116.65,32.28Z"/>
      <path class="cls-3" d="M123.62,21.22a5.06,5.06,0,1,0,6.89,1.94A5.06,5.06,0,0,0,123.62,21.22Z"/>
      <circle class="cls-3" cx="110.07" cy="50.81" r="5.06" transform="translate(-4.97 89.06) rotate(-43.17)"/>
      <path class="cls-3" d="M99.44,59.49a5.06,5.06,0,1,0,6.89,1.94A5.06,5.06,0,0,0,99.44,59.49Z"/>
      <path class="cls-3" d="M91.16,71.51a5.06,5.06,0,1,0,6.89,1.94A5.06,5.06,0,0,0,91.16,71.51Z"/>
      <ellipse class="cls-4" cx="154.25" cy="75.93" rx="23.79" ry="17.91" transform="translate(-17.43 85.2) rotate(-29.3)"/>
      <path class="cls-5" d="M112.4,49.55h0a1.08,1.08,0,0,0-.86.62,3.32,3.32,0,0,0,0,3,1.05,1.05,0,0,0,.84.63h0l9.73.13.15-4.27-9.84-.14Z"/>
      <path class="cls-6" d="M158.67,55.71c-8.87-.11-19.73,6-24.26,13.61s-1,13.9,7.86,14,19.73-6,24.26-13.61S167.54,55.82,158.67,55.71Z"/>
      <path class="cls-3" d="M130.19,50.86c5.6,10,2.39,24.75,3.73,27.14s4.27,3.9,8.46,4c8.38.11,18.64-5.65,22.92-12.86,2.14-3.6,2.38-6.88,1-9.27s-13-5.46-20-18S124.59,40.88,130.19,50.86Z"/>
      <path class="cls-5" d="M96,74.67h0a1.07,1.07,0,0,0-.86.61,3.37,3.37,0,0,0,0,3,1.08,1.08,0,0,0,.84.63h0l9.73.14.15-4.27L96,74.67Z"/>
      <path class="cls-5" d="M104.24,62.64h0a1,1,0,0,0-.86.61,3.35,3.35,0,0,0,0,3,1.09,1.09,0,0,0,.84.64h0l9.73.14.15-4.27-9.83-.15Z"/>
      <path class="cls-5" d="M128.43,24.38h0a1.07,1.07,0,0,0-.86.61,3.37,3.37,0,0,0,0,3,1.08,1.08,0,0,0,.84.63h0l9.73.14.15-4.27-9.83-.14Z"/>
      <path class="cls-5" d="M121.46,35.43h0a1.08,1.08,0,0,0-.86.62,3.32,3.32,0,0,0,0,3,1.05,1.05,0,0,0,.84.63h0l9.74.13.15-4.27-9.84-.14Z"/>
      <path class="cls-7" d="M143.31,25.67,73.44,133.46l29.61.36L161.48,25.89c3.88-7.17-3.9-17.32-3.9-17.32Z"/>
      <path class="cls-8" d="M139.85,19.51,70,127.3l29.61.36L158,19.73s2.73-11.57-2.49-12.38S139.85,19.51,139.85,19.51Z"/>
      <path class="cls-4" d="M10,195.72c4.26,7.59,39.13,45.78,80.32,22.66s25.65-73.74,22-81.24C108.28,129,5.72,188.12,10,195.72Z"/>
      <ellipse class="cls-3" cx="61.39" cy="166.87" rx="58.95" ry="34.04" transform="translate(-73.8 51.39) rotate(-29.3)"/>
      <ellipse class="cls-8" cx="60.36" cy="166.9" rx="47.76" ry="27.63" transform="translate(-73.95 50.88) rotate(-29.3)"/>
      <polygon class="cls-9" points="79.2 124.4 94.01 124.58 152.08 26.8 137.27 26.61 79.2 124.4"/>
      <polygon class="cls-10" points="41.41 181.5 42.73 183.86 65.16 184.14 69.28 177.2 67.95 174.84 46.85 176.93 41.41 181.5"/>
      <polygon class="cls-11" points="41.41 181.5 63.84 181.78 67.95 174.84 45.52 174.57 41.41 181.5"/>
      <g>
        <path class="cls-12" d="M59.7,179.29h.43c29.77-49.56,59.18-99,89.87-151.17h-.44C118.87,80.27,89.46,129.72,59.7,179.29Z"/>
        <path class="cls-12" d="M57.65,179.27h.44c29.05-49.6,58.41-99,89.86-151.17h-.44C116.06,80.24,86.69,129.69,57.65,179.27Z"/>
        <path class="cls-12" d="M54.19,179.22h.44c29.05-49.58,58.42-99,89.86-151.17h-.44C112.61,80.2,83.24,129.65,54.19,179.22Z"/>
        <path class="cls-12" d="M50.6,179.18H51c29.84-49.57,59.25-99,89.86-151.18h-.44Z"/>
        <path class="cls-12" d="M47.8,179.15h.44c29.57-49.57,59-99,89.87-151.17h-.44C106.77,80.13,77.37,129.58,47.8,179.15Z"/>
      </g>
      <path class="cls-13" d="M149.22,39.76h0a1.09,1.09,0,0,0-.86.62,3.35,3.35,0,0,0,0,3,1.05,1.05,0,0,0,.84.63h0l9.73.13.15-4.27-9.84-.14Z"/>
      <path class="cls-3" d="M157.32,37.29a5.06,5.06,0,1,0,6.89,1.94A5.06,5.06,0,0,0,157.32,37.29Z"/>
      <path class="cls-13" d="M156.62,26.77h0a1.07,1.07,0,0,0-.86.61,3.37,3.37,0,0,0,0,3,1.09,1.09,0,0,0,.84.63h0l9.73.14.15-4.27-9.83-.14Z"/>
      <path class="cls-3" d="M164.72,24.29a5.06,5.06,0,1,0,6.89,1.94A5.06,5.06,0,0,0,164.72,24.29Z"/>
    </g>
  </g>
</svg>
