<svg id="Layer_1" data-name="Layer 1" xmlns="http://www.w3.org/2000/svg" width="216.92" height="173.89" viewBox="0 0 216.92 173.89">
  <defs>
    <style>
      .cls-1 {
        opacity: 0.5;
      }

      .cls-2 {
        fill: #fff;
      }

      .cls-3 {
        fill: #052d05;
      }

      .cls-4 {
        fill: #0b4712;
      }

      .cls-5 {
        fill: #6da541;
      }

      .cls-6 {
        fill: #5c8c31;
      }

      .cls-7 {
        fill: #547c29;
      }

      .cls-8 {
        fill: #063508;
      }

      .cls-9 {
        fill: #d8dc3a;
      }

      .cls-10 {
        fill: #feffff;
      }

      .cls-11 {
        fill: #d82a2b;
      }

      .cls-12 {
        fill: #e8363f;
      }

      .cls-13 {
        fill: #c6d62b;
      }

      .cls-14 {
        fill: #c4121b;
      }

      .cls-15 {
        fill: #ce1527;
      }

      .cls-16 {
        fill: #330e0b;
      }

      .cls-17 {
        fill: #511918;
      }

      .cls-18 {
        fill: #a06665;
      }
    </style>
  </defs>
  <g>
    <path class="cls-1" d="M138.36,173.89c-5.92,0-15.66-.88-29.14-4.93-1.08.37-2.14.71-3.18,1a79.06,79.06,0,0,1-16.27,3c-2.07.17-4.17.25-6.24.25A77.52,77.52,0,0,1,73,172.53l-.72-.11c-1.63-.24-3.26-.53-4.86-.88s-3.37-.78-5-1.24c-2.29-.66-4.58-1.43-6.79-2.29a77.56,77.56,0,0,1-8.91-4.13c-1.55-.84-3-1.73-4.48-2.64-1.6-1-3.21-2.12-4.79-3.3l-.32-.24a77.94,77.94,0,0,1-16-16.3c-.85-1.16-1.68-2.36-2.46-3.56s-1.53-2.41-2.25-3.67a83.67,83.67,0,0,1-9.72-26v0a88.63,88.63,0,0,1,4.52-49.2l0-.1a88,88,0,0,1,42-46.73c1.39-.7,2.78-1.34,4.14-1.92,1-.41,2-.81,3.1-1.21l.85-.29.29-.1c.66-.23,1.33-.45,2-.66l1-.3L65,7.5c.57-.16,1.15-.32,1.72-.46L68,6.74l.46-.11.81-.18.6-.11C70.52,6.2,71.24,6.07,72,6l.26,0,1.14-.19q1.11-.15,2.22-.27l.34,0,1-.11c.81-.07,1.62-.12,2.44-.17l.29,0,.84-.05Q82,5,83.46,5H84a81.3,81.3,0,0,1,15,1.59c2.36.47,4.76,1,7.13,1.71,2.83.79,5.73,1.74,8.63,2.82l1.53.58c1.83.71,3.58,1.44,5.23,2.19,2,.89,4,1.85,5.91,2.86,1.58.83,3.13,1.7,4.58,2.57A78.19,78.19,0,0,1,149.16,33l.05.05a65.61,65.61,0,0,1,13.15,20.84c.13.32.27.69.41,1.06a86.65,86.65,0,0,1,5.31,34.27l42,6a8,8,0,0,1,6.77,9.09,81.31,81.31,0,0,1-4.07,16q-.31.87-.66,1.74a67.45,67.45,0,0,1-8.62,16.41c-.38.59-.77,1.16-1.16,1.72a61.13,61.13,0,0,1-8.51,9.68l-1.46,1.38c-2.4,2.23-4.84,4.28-7.56,6.55l-.43.34-.31.22c-.62.44-1.26.86-1.9,1.26l-.59.4a76.81,76.81,0,0,1-30.93,12.3l-.71.14-.75.15c-1.87.37-3.57.67-5.19.91a39.33,39.33,0,0,1-5.62.34Z"/>
    <path class="cls-2" d="M133.36,168.89c-5.92,0-15.66-.88-29.14-4.93-1.08.37-2.14.71-3.18,1a79.06,79.06,0,0,1-16.27,3c-2.07.17-4.17.25-6.24.25A77.52,77.52,0,0,1,68,167.53l-.72-.11c-1.63-.24-3.26-.53-4.86-.88s-3.37-.78-5-1.24c-2.29-.66-4.58-1.43-6.79-2.29a77.56,77.56,0,0,1-8.91-4.13c-1.55-.84-3-1.73-4.48-2.64-1.6-1-3.21-2.12-4.79-3.3l-.32-.24a77.94,77.94,0,0,1-16-16.3c-.85-1.16-1.68-2.36-2.46-3.56s-1.53-2.41-2.25-3.67a83.67,83.67,0,0,1-9.72-26v0a88.63,88.63,0,0,1,4.52-49.2l0-.1a88,88,0,0,1,42-46.73c1.39-.7,2.78-1.34,4.14-1.92,1-.41,2-.81,3.1-1.21l.85-.29.29-.1c.66-.23,1.33-.45,2-.66l1-.3L60,2.5c.57-.16,1.15-.32,1.72-.46L63,1.74l.46-.11.81-.18.6-.11C65.52,1.2,66.24,1.07,67,1l.26,0L68.36.72Q69.47.57,70.58.45l.34,0,1-.11c.81-.07,1.62-.12,2.44-.17l.29,0,.84,0Q77,0,78.46,0H79a81.3,81.3,0,0,1,15,1.59c2.36.47,4.76,1.05,7.13,1.71,2.83.79,5.73,1.74,8.63,2.82l1.53.58c1.83.71,3.58,1.44,5.23,2.19,2,.89,4,1.85,5.91,2.86,1.58.83,3.13,1.7,4.58,2.57A78.19,78.19,0,0,1,144.16,28l.05.05a65.61,65.61,0,0,1,13.15,20.84c.13.32.27.69.41,1.06a86.65,86.65,0,0,1,5.31,34.27l42,6a8,8,0,0,1,6.77,9.09,81.31,81.31,0,0,1-4.07,16q-.31.87-.66,1.74a67.45,67.45,0,0,1-8.62,16.41c-.38.59-.77,1.16-1.16,1.72a61.13,61.13,0,0,1-8.51,9.68l-1.46,1.38c-2.4,2.23-4.84,4.28-7.56,6.55l-.43.34-.31.22c-.62.44-1.26.86-1.9,1.26l-.59.4a76.81,76.81,0,0,1-30.93,12.3l-.71.14-.75.15c-1.87.37-3.57.67-5.19.91a39.33,39.33,0,0,1-5.62.34Z"/>
    <g>
      <g>
        <path class="cls-3" d="M149.58,109.7a83,83,0,0,1-6.64,13.38,79.4,79.4,0,0,1-28,27.29,74.8,74.8,0,0,1-16.17,6.93A72.13,72.13,0,0,1,84.13,160a69.07,69.07,0,0,1-15.06-.43l-.66-.09c-1.45-.21-2.89-.48-4.34-.79s-3-.69-4.49-1.12c-2-.58-4.08-1.26-6.09-2a68.45,68.45,0,0,1-8-3.7c-1.37-.75-2.71-1.53-4-2.36q-2.22-1.4-4.3-3l-.25-.19a70.05,70.05,0,0,1-14.42-14.66q-1.15-1.58-2.22-3.21c-.71-1.09-1.38-2.19-2-3.31h0a75.77,75.77,0,0,1-8.8-23.57h0A80.6,80.6,0,0,1,13.6,56.83l0-.09h0a80,80,0,0,1,38.15-42.5c1.21-.61,2.41-1.17,3.63-1.69A56.81,56.81,0,0,1,65.88,9.28,60.39,60.39,0,0,1,79,8,73,73,0,0,1,92.5,9.44c2.18.43,4.35,1,6.53,1.56q4,1.13,8,2.62c.49.17,1,.36,1.45.54q2.46,1,4.84,2,2.79,1.25,5.45,2.65Q120.91,20,123,21.18a69.76,69.76,0,0,1,15.36,12.25h0a57.66,57.66,0,0,1,11.61,18.36c.12.3.23.6.35.91A80,80,0,0,1,149.58,109.7Z"/>
        <path class="cls-4" d="M140.12,105.85a77.65,77.65,0,0,1-6.33,12.75q-1.41,2.3-3,4.46a75.31,75.31,0,0,1-23.72,21.55q-3,1.72-6.15,3.15a70.53,70.53,0,0,1-9.25,3.45l-1.24.35a67.82,67.82,0,0,1-12.72,2.25q-2.15.18-4.29.21a66.61,66.61,0,0,1-10.06-.61l-.63-.09-.82-.13c-1.11-.18-2.21-.38-3.31-.62-1.43-.31-2.86-.66-4.28-1.07q-2.93-.83-5.81-1.95-.93-.36-1.83-.75-3-1.26-5.78-2.78c-1.07-.58-2.12-1.19-3.14-1.82l-.68-.43c-1.41-.89-2.77-1.83-4.1-2.82l-.24-.18a67,67,0,0,1-12.48-12.3c-.71-1.09-1.38-2.19-2-3.31h0a75.77,75.77,0,0,1-8.8-23.57h0A80.6,80.6,0,0,1,13.6,56.83l0-.09h0a80,80,0,0,1,38.15-42.5c1.21-.61,2.41-1.17,3.63-1.69A56.81,56.81,0,0,1,65.88,9.28a59.57,59.57,0,0,1,7-.34,68.73,68.73,0,0,1,12.9,1.37c2.07.41,4.15.91,6.22,1.49q2.43.67,4.85,1.5c.92.31,1.85.64,2.77,1,.46.16.92.34,1.37.52l.12,0c1.53.6,3,1.23,4.5,1.88.44.2.89.4,1.32.61,1.32.61,2.61,1.25,3.87,1.91l.06,0q1.72.91,3.39,1.89l.55.32,1.61,1c1.82,1.16,3.58,2.38,5.26,3.67a63.31,63.31,0,0,1,7.77,7h0a55.46,55.46,0,0,1,3.69,4.38,54.65,54.65,0,0,1,7.36,13.11c.12.29.23.58.34.87.62,1.67,1.19,3.38,1.69,5.1h0A76.49,76.49,0,0,1,140.12,105.85Z"/>
        <path class="cls-5" d="M127.5,73.91c-1.49,8,1.73,15.28-3.62,22.32.13-.16-.25.65-.23.56C119.6,106.7,122.86,119,116,129c-2.25,3.24-5,7.29-7.91,10-2.31,2.11-4.89,4.21-6.41,7a7.07,7.07,0,0,0-.68,1.77,70.53,70.53,0,0,1-9.25,3.45l-1.24.35a5.85,5.85,0,0,0,.77-1.79c1.6-7.44,7.24-10.69,10-17.78,2.08-6.39,2.56-11,4.89-17.42,2-5.83-1.56-12.64,3.92-17,2-1.72,2.59-4,1.13-6.22-1.69-5.58,1-5.77,3.77-10.71,2.24-2.71-2-6.64-2.3-9.36-.22-2.34,1.55-4.64,2.5-6.67,1.25-2.65,1.63-4.51-.43-7.25-3.1-4.9,1.72-7.52.14-11.21a119.69,119.69,0,0,1-3.24-14.36c-.2-1.65-.14-2.59.41-2.13a17.9,17.9,0,0,1,2.34,2.49c5,6.23,10.52,18.58,9.51,25.81C123.88,63.45,128,68,127.5,73.91Z"/>
        <path class="cls-6" d="M63.4,153.41a66.61,66.61,0,0,0,10.06.61c-1.28,1.68-2.92,3.84-4.39,5.58l-.66-.09c-1.45-.21-2.89-.48-4.34-.79s-3-.69-4.49-1.12c.71-1.33,1.58-2.86,2.37-4.41l.82.13Z"/>
        <path class="cls-6" d="M101,147.76c-.69,3,.79,5.87-1.66,8.91-.13.17-.31.38-.53.63A72.13,72.13,0,0,1,84.13,160c.75-3.15,4.59-5.61,6.34-8.47l1.24-.35A70.53,70.53,0,0,0,101,147.76Z"/>
        <path class="cls-5" d="M106.13,53.44a55.8,55.8,0,0,0,2.5,14c1.16,3.21-3.92,10.4-4.95,13.53-2.27,5.52,1,6.25-1,12.39-1.36,3.09-6.72,3.49-7.21,14.16-.8,13-3.93,16.46-7.73,22.67C81.3,140.52,78.13,148.19,75,152c-.39.48-.92,1.17-1.53,2a66.61,66.61,0,0,1-10.06-.61l-.63-.09-.82-.13a28.28,28.28,0,0,0,1.88-4.38c1-2.73,3.64-5,4.48-7.75,1-2.54,3.94-3.48,5.35-5.93,2.45-4.23-1.22-12.57,2.36-15.27,4.09-3.12,8.8-2.27,5.76-9.06-1.5-3.26.84-5.83,2.4-8.35,2.5-4.06-1.92-7.59.54-11.23,2.56-3.85,3.32-1.83,3.74-6.89a29,29,0,0,1,2.17-9.88c2.26-5,4.54-6.11,4.85-11.51.32-6.27,1.8-12.55,6.24-18.2,3.68-4.67,3.74-10.84,4.37-14.61,0-.08,0-.16,0-.25.42-2.39,1-1.41,1.52.82h0c.88,3.69,1.64,10.78,1.42,11.65C108.49,46,106.07,49.75,106.13,53.44Z"/>
        <path class="cls-5" d="M110.81,19.28a19.15,19.15,0,0,0-1.51,2.18l-.06.11c-1.27,2.15-1.92,1.26-2.19-.87a27.52,27.52,0,0,1-.17-3.36c1.32.61,2.61,1.25,3.87,1.91Z"/>
        <path class="cls-6" d="M46.72,148.8a11.78,11.78,0,0,1-1.22,3c-1.37-.75-2.71-1.53-4-2.36q-2.22-1.4-4.3-3c.18-.74.39-1.54.61-2.33,1,.63,2.07,1.24,3.14,1.82Q43.73,147.54,46.72,148.8Z"/>
        <path class="cls-5" d="M100.84,27.52c-1.6,1.79-5.56,4.84-6.53,8.19-.14.47-.28.93-.44,1.38h0c-2.43,7.13-6.94,12.17-10.76,18.27-3.42,5.5-1.71,13.26-7.23,17.52-2.23,1.74-4.65,3.67-5.71,6.35-.6,1.52-.24,3.11,0,4.65.31,1.78.54,3.49-.91,4.93l0,0h0l0,0-.06,0c-6,4.59-6.05,8.35-7.31,15.72-1.3,8.16-4.64,9.89-10.17,15.3-3.86,4.25-.27,11.67-2,16.65s-2.15,9.13-3,12.22q-3-1.26-5.78-2.78c-1.07-.58-2.12-1.19-3.14-1.82a30.63,30.63,0,0,1,2.3-6.39c3.86-5.71-3.75-9.66-1.35-15.82,1.91-4.81,2.73-10.2,4.79-14.61,1.29-2.76,4.67-3.86,5.72-6.63.83-2.18-.06-4.3-.77-6.45a8.88,8.88,0,0,1-.58-4.43c.56-2.91,5.6-4.08,7.27-6.41,1.94-2.73,2.75-6.07,3.48-9.29,1.49-6.47,3.47-11.67,7.87-16.81,1.93-2.25,3.93-5.61,6-7.59,2.62-2.49,6.8-2.67,8.45-6,1.09-3,6.22-8.6,11.07-12.76A29.78,29.78,0,0,1,99,26.22a3.79,3.79,0,0,1,1.38-.32C101.89,25.93,101.74,26.53,100.84,27.52Z"/>
        <path class="cls-5" d="M96.8,24c-1.5.8-4.41,1.87-7,3.13a22.69,22.69,0,0,0-3.09,1.77c-5.17,3.79-7,7.21-12.3,10.76a10.55,10.55,0,0,0-1.52,3.51c-1.2,3.65-4.53,4.89-7.17,7.2-3.57,3-6,12.34-9.47,15.5a0,0,0,0,0,0,0,20.57,20.57,0,0,0-4.11,2.84c-.41.37-.8.75-1.18,1.14a17.84,17.84,0,0,0-3.38,3.8c-.29.55-.56,1.1-.82,1.66s-.52,1.14-.84,1.69L44.7,78.6c-.39.51-.78,1-1.16,1.54a83.87,83.87,0,0,0-8.06,13,6.34,6.34,0,0,1-1,1.55c-1.21,1.41-2.86,2.73-3.16,4.78q-.18.93-.27,1.89c-.4,3.9-.17,8-4.14,11.92-3.57,3.65-4.25,4.84-3.34,11.15a13.62,13.62,0,0,1-1,7.24,72.15,72.15,0,0,1-4.25-6.52h0c.1-1.52.26-3.13.49-4.75.92-7.62,3.2-15.47,3.14-17.09-.27-5.5-.72-8.92,2.19-13.4l.18-.26a24.75,24.75,0,0,0,1.37-2.29c1.77-4.89,4.67-9.14,7.09-13.62a20.46,20.46,0,0,0,2.34-7.31q.16-1.14.27-2.31a3.6,3.6,0,0,1,2.22-3.3c.86-.42,1.66-.74,2.39-1,5.15-1.88,6.71.19,7.77-7.42a11.33,11.33,0,0,1,9.12-9.92c7.75-1.69,9.16-5.31,13.61-11C72.9,28.1,79.53,24.81,86,23.23a25.37,25.37,0,0,1,10-.73,8.9,8.9,0,0,1,1.46.37C98.16,23.13,97.77,23.53,96.8,24Z"/>
        <path class="cls-5" d="M96.29,21.06l-.06,0a60.73,60.73,0,0,0-14.72-.51,16.41,16.41,0,0,0-4,.86c-3.24,1.27-6,2-7.7,1.84-7-.08-10.74,4.86-16.3,7.26-4.83,2.21-5.32,4.44-9,8.25A49.28,49.28,0,0,1,37.12,45c-3.89,2.91-2,2.42-4,6.3C31.33,55,26.84,54,25,58.27c-1.13,2.65-1.77,5.81-4.7,7.07-6.07,2.79-3.12,5.33-2.8,10a4.71,4.71,0,0,1-.54,2.42c-1.6,3.34-6.12,6.94-6.64,11-.38,2.86,1,5.18.55,7.89-.41,1.64-.93,3.29-1.37,5A80.6,80.6,0,0,1,13.6,56.83l0-.09h0c.78-.91,1.64-1.86,2.59-2.86,7.86-7.55,6.38-11.36,8.47-14.34,4.61-5.11,6.31-3,10.54-7.6,2.4-2.41,8-9.67,11.49-10a106,106,0,0,0,14.2-2.86c19.37-6.06,28-.24,31.84-.08a10.32,10.32,0,0,1,4.42,1.24C98.63,21,98.9,21.78,96.29,21.06Z"/>
        <path class="cls-5" d="M103.39,19.86c.11,1-.22,1.27-1-.14-.1-.17-.2-.37-.31-.6A38.74,38.74,0,0,0,96.8,13.3c.92.31,1.85.64,2.77,1,.46.16.92.34,1.37.52l.12,0,.18.25A10.2,10.2,0,0,1,103.39,19.86Z"/>
        <path class="cls-6" d="M147.7,98.39c.14,2.92,2.82,6.67,1.77,9.61-1.38,3.76-5.21,4.8-6.34,8.65-.65,2.11-.15,4.24-.19,6.43a79.4,79.4,0,0,1-28,27.29l.09-.15c2-3.11,4.17-6.28,5-7.53,3-4.15,9.66-7,10.44-12.61.2-2.82.2-5,.31-7q1.54-2.16,3-4.46a77.65,77.65,0,0,0,6.33-12.75,76.49,76.49,0,0,0,2.35-49.22,12.18,12.18,0,0,1,1.91,2.57c1.39,2.63,2.39,6.63,3.38,9.56,2.26,6.7,2.27,12.67,1.1,19.4A47.61,47.61,0,0,0,147.7,98.39Z"/>
        <path class="cls-5" d="M140.12,105.85a77.65,77.65,0,0,1-6.33,12.75q-1.41,2.3-3,4.46a23.81,23.81,0,0,1,2.84-10.45c3-6.39,4.68-9.68,2.54-16.36a.06.06,0,0,0,0,0c-.75-3.47,2.71-5.14,3-8.57.17-2.8-1-5.5-2.08-7.86-2.81-5.76-1.17-10.69-3-16.81-2.26-7.19-4.95-11.11-7.75-18.64-1.87-5-6.13-9.58-8.87-12.41-1.87-1.93-3-3-2.26-2.93a14,14,0,0,1,4.11,2c4.56,2.85,11,8,12.86,10.92,2.63,4,5.3,6.23,6,8.92s2.66,4,4.31,5.81h0A76.49,76.49,0,0,1,140.12,105.85Z"/>
        <path class="cls-6" d="M108.47,14.16q2.46,1,4.84,2c-.9,1.1-1.77,2.16-2.5,3.1l-.06,0c-1.26-.66-2.55-1.3-3.87-1.91,0-1.21.06-2.5.14-3.72C107.51,13.79,108,14,108.47,14.16Z"/>
        <path class="cls-6" d="M123,21.18a54.15,54.15,0,0,0-6.59,1.3l-1.61-1-.55-.32c1.3-.75,2.88-1.56,4.56-2.34Q120.91,20,123,21.18Z"/>
        <path class="cls-6" d="M99,11a32.27,32.27,0,0,0,2,3.85l-.12,0c-.45-.18-.91-.36-1.37-.52-.92-.35-1.85-.68-2.77-1C95.44,12,94,10.64,92.5,9.44,94.68,9.87,96.85,10.39,99,11Z"/>
        <path class="cls-5" d="M116.36,22.48c-1.16.3-2.19.59-3,.81-1.73.47-2.65.68-2.27.17a4.92,4.92,0,0,1,.92-.85,19.86,19.86,0,0,1,2.21-1.44l.55.32Z"/>
        <path class="cls-6" d="M149.92,51.79l-.63-.2c-3.82-1.27-5.13-9.3-9.49-11.87-2.21-1.31-4.59-1.15-6.72-2.17a55.46,55.46,0,0,0-3.69-4.38h0a63.31,63.31,0,0,0-7.77-7,64.63,64.63,0,0,1,6.25,2,53,53,0,0,1,10.44,5.28h0A57.66,57.66,0,0,1,149.92,51.79Z"/>
        <path class="cls-5" d="M133.08,37.55a6.31,6.31,0,0,1-.76-.42,71.46,71.46,0,0,0-7.16-5.37c-2.19-1.28-4.07-2.32-5.65-3.15-5.9-3.14-7.51-3.51-5.13-3.7a10.34,10.34,0,0,1,1.69.07,41.79,41.79,0,0,1,5.55,1.17,63.31,63.31,0,0,1,7.77,7h0A55.46,55.46,0,0,1,133.08,37.55Z"/>
        <path class="cls-5" d="M100.2,20.31c-.15.14-.62-.15-1.41-.58a17.32,17.32,0,0,0-4.5-1.8c-3.58-.9-7.28-2-8.74-2.4C80.65,14,73,10.3,67.39,11.35c-6.27,1.6-6.92,1.88-12,1.2A58.63,58.63,0,0,1,79,8c4.53,2.09,8.36,4.68,12.54,5.39,3.77.63,8.14,4.48,8.75,6.22C100.37,19.92,100.36,20.17,100.2,20.31Z"/>
        <path class="cls-3" d="M119.68,30.41a1.87,1.87,0,0,1-.35.57,14,14,0,0,0-4.11-2c-.77-.11.39,1,2.26,2.93a11.21,11.21,0,0,1-3.12.19A17.9,17.9,0,0,0,112,29.62c-.55-.46-.61.48-.41,2.13a30.76,30.76,0,0,1-4-1.05h0c-.53-2.23-1.1-3.21-1.52-.82,0,.09,0,.17,0,.25a30.22,30.22,0,0,1-5.25-2.61c.9-1,1-1.59-.47-1.62a3.79,3.79,0,0,0-1.38.32A11.56,11.56,0,0,1,96.8,24c1-.51,1.36-.91.69-1.17A8.9,8.9,0,0,0,96,22.5a1.93,1.93,0,0,1,.06-1.17,2.59,2.59,0,0,1,.14-.29l.06,0c2.61.72,2.34,0,.89-.84a5.18,5.18,0,0,1,1.61-.49c.79.43,1.26.72,1.41.58s.17-.39,0-.7a17.62,17.62,0,0,1,2.12.11c.8,1.41,1.13,1.13,1,.14a28.34,28.34,0,0,1,3.66.84c.27,2.13.92,3,2.19.87l.06-.11.25.1c.85.32,1.66.68,2.44,1.05a4.92,4.92,0,0,0-.92.85c-.38.51.54.3,2.27-.17A27.37,27.37,0,0,1,116.07,25a10.34,10.34,0,0,0-1.69-.07c-2.38.19-.77.56,5.13,3.7A2.24,2.24,0,0,1,119.68,30.41Z"/>
        <path class="cls-7" d="M113.34,23.29c-1.73.47-2.65.68-2.27.17a4.92,4.92,0,0,1,.92-.85C112.45,22.83,112.9,23.06,113.34,23.29Z"/>
        <path class="cls-7" d="M96.8,24A4.27,4.27,0,0,1,96,22.5a8.9,8.9,0,0,1,1.46.37C98.16,23.13,97.77,23.53,96.8,24Z"/>
        <path class="cls-7" d="M96.29,21.06l-.06,0a2.34,2.34,0,0,1,1-.82C98.63,21,98.9,21.78,96.29,21.06Z"/>
        <path class="cls-7" d="M100.84,27.52A18.7,18.7,0,0,1,99,26.22a3.79,3.79,0,0,1,1.38-.32C101.89,25.93,101.74,26.53,100.84,27.52Z"/>
        <path class="cls-7" d="M98.79,19.73a10.92,10.92,0,0,1,1.46-.12c.12.31.11.56,0,.7S99.58,20.16,98.79,19.73Z"/>
        <path class="cls-7" d="M102.37,19.72c.33,0,.67.08,1,.14C103.5,20.85,103.17,21.13,102.37,19.72Z"/>
        <path class="cls-7" d="M107.65,30.7l-1.43-.51-.13-.06c0-.08,0-.16,0-.25C106.55,27.49,107.12,28.47,107.65,30.7Z"/>
        <path class="cls-8" d="M107.05,20.7c.74.22,1.49.48,2.25.76l-.06.11C108,23.72,107.32,22.83,107.05,20.7Z"/>
        <path class="cls-7" d="M112,29.62a17.9,17.9,0,0,1,2.34,2.49,22.62,22.62,0,0,1-2.75-.36C111.41,30.1,111.47,29.16,112,29.62Z"/>
        <path class="cls-7" d="M119.51,28.61c-5.9-3.14-7.51-3.51-5.13-3.7a10.34,10.34,0,0,1,1.69.07A10.37,10.37,0,0,1,119.51,28.61Z"/>
        <path class="cls-7" d="M115.22,29a14,14,0,0,1,4.11,2,3.56,3.56,0,0,1-1.85.94C115.61,30,114.45,28.88,115.22,29Z"/>
      </g>
      <g>
        <g>
          <path class="cls-3" d="M203.92,98.14a73.84,73.84,0,0,1-3.67,14.46c-.22.59-.44,1.18-.67,1.76a58.57,58.57,0,0,1-7.77,14.72q-.51.79-1.05,1.56a53.9,53.9,0,0,1-7.45,8.45c-.47.45-.93.89-1.4,1.32-2.35,2.18-4.82,4.25-7.24,6.28-.52.36-1,.7-1.58,1a69,69,0,0,1-28.61,11.58c-.55.09-1.09.22-1.63.33-1.62.31-3.23.6-4.83.84-.48.07-12.82,2-36.12-5.88-6.12-2.06-11.4-5.92-16.33-9.86-.52-.41-1-.84-1.55-1.27-1.59-1.53-3.13-3.12-4.65-4.75-.38-.4-.76-.81-1.13-1.22s-.71-.81-1.07-1.22-.72-.8-1.08-1.2-.72-.86-1.07-1.3-.69-.87-1-1.32c-1.27-1.46-2.52-3-3.7-4.49-.4-.51-.78-1-1.16-1.56-1-1.18-8.65-16.67-9.36-22.94-.07-.65-.24-1.29-.36-1.94a81.06,81.06,0,0,1-1.66-10.71c0-.6-.08-1.2-.11-1.8a58.74,58.74,0,0,1,.57-9.37c.08-.63.18-1.26.28-1.91l.06-.48Z"/>
          <path class="cls-9" d="M200.77,100c-.08.45-.16.88-.25,1.32-.27,1.31-.57,2.6-.9,3.88-.17.64-.34,1.28-.52,1.91s-.33,1.22-.53,1.84c-.72,1.54-1.4,3.13-2.07,4.71-.23.53-.45,1.06-.67,1.59a61.76,61.76,0,0,1-9.15,15.89l-.94,1.23c-.31.41-.62.82-.94,1.22s-.76.95-1.16,1.42q-1.75,2.1-3.64,4.13c-.4.4-.82.78-1.25,1.16C176.61,142.21,159.5,153,158.4,153q-.79.19-1.62.33c-2.74.47-12.46,3.46-14,3.68-.69.12-1.38.22-2.07.32a71,71,0,0,1-12.75.52c-.37,0-.73,0-1.1-.06-5.23-1.25-10.65-2-16-3.21-.59-.14-1.17-.31-1.76-.44-4.69-1-12.63-3.67-17.86-8l-1.43-1.09L88.4,144l-1.48-1.27c-1.94-1.73-3.77-3.62-5.6-5.51-.46-.46-.91-.92-1.35-1.39-.88-.93-1.73-1.89-2.56-2.87-.45-.53-.89-1.07-1.32-1.61A30.48,30.48,0,0,1,73,126.14c-.18-.38-.37-.77-.54-1.18a46,46,0,0,1-3.33-4.65c-.34-.53-.66-1.08-1-1.64-.86-1.8-1.68-3.62-2.44-5.47-.25-.62-.5-1.24-.74-1.87-.91-3.06-2-6.1-2.88-9.16-.17-.61-.33-1.23-.47-1.86a81.93,81.93,0,0,1-.68-18c0-.56.08-1.12.14-1.68.09-1,.21-2,.35-3L201.17,97.74A13.37,13.37,0,0,1,200.77,100Z"/>
          <path class="cls-10" d="M194.76,110.72c-.26.55-.54,1.09-.84,1.63a38.17,38.17,0,0,1-3.08,4.65l-.89,1.63c-1,1.81-2,3.62-2.91,5.45l-.72,1.37a36.81,36.81,0,0,1-1.86,3.32c-.33.54-.68,1.06-1,1.57a41.91,41.91,0,0,1-6,6.51c-.44.39-.89.77-1.34,1.14a8.59,8.59,0,0,1-2.35,1.7c-2.21,1.17-4.31,2.32-6.34,3.49-.51.3-5.52,5.75-18.28,9-.46.12-.92.24-1.38.34s-.92.18-1.39.24l-1.66.36a57.71,57.71,0,0,1-8.14,1.21c-.59,0-1.18.08-1.77.1a78.66,78.66,0,0,1-12.3-.53l-1.87-.25A41.56,41.56,0,0,1,105,148.43l-1.48-.77c-3.45-1.75-7-3.09-10.5-4.61-.51-.29-1-.59-1.47-.91-4.22-2.85-7.37-7-10.61-11l-1.14-1.32-3.38-3.92c-.3-.53-.61-1.06-.9-1.59s-.6-1-.89-1.58-.58-1.06-.88-1.6c-1-2.22-2.19-4.42-3.29-6.62-.28-.56-.55-1.11-.81-1.69a9.12,9.12,0,0,1-.87-2.85,44.62,44.62,0,0,0-1.09-5.41c-.16-.58-.32-1.16-.51-1.74a29.44,29.44,0,0,1-2.37-6.37c-.13-.54-.25-1.08-.35-1.62a7,7,0,0,1-.14-3c0-4.7,1.06-8.93.71-13.65l132.6,19C196.8,101.77,197,106.58,194.76,110.72Z"/>
          <path class="cls-11" d="M186.68,107.73a6,6,0,0,0-.29,1.4,15,15,0,0,1-2.42,6.49c-.33.51-.68,1-1,1.51-1.09,1.48-2.28,2.91-3.44,4.34-.31.43-.61.87-.89,1.32a26.62,26.62,0,0,0-2.31,4.2,6.89,6.89,0,0,1-2.85,3.2c-.49.39-1,.76-1.5,1.13a70.59,70.59,0,0,0-5.68,4.84,14.83,14.83,0,0,1-1.33,1.07c-3.19,2.28-7.07,3.59-10.67,5.28-.55.29-1.11.57-1.66.84-1.11.53-2.24,1-3.39,1.46-.6.15-1.19.27-1.79.38a31.54,31.54,0,0,1-3.69.42l-2,.26c-2,.24-3.93.41-5.88.63l-1.68.22c-1.67.2-3.35.37-5,.47-.66,0-1.31-.08-2-.16a20.35,20.35,0,0,1-7.49-2.32c-.54-.22-1.09-.42-1.63-.61a66.51,66.51,0,0,0-8.78-2.29l-1.52-.3a20.82,20.82,0,0,1-8-2.68c-.48-.27-1-.56-1.41-.86-.29-.18-.64-.35-1-.54s-.56-.53-.89-.71c-7.47-4.1-13.79-12.22-14-12.69-1-2.34-4.89-8.84-5.2-9.38-2.57-3-2.8-6.92-3.69-10.67-.13-.54-.24-1.08-.34-1.65-.46-1.77-.93-3.53-1.31-5.31-.13-.59-.24-1.18-.35-1.77a12.73,12.73,0,0,1-.31-3.11c0-2.94.78-5.65,1.13-8.4.06-.55.11-1.1.12-1.67a19.23,19.23,0,0,1-.17-2.82L189.94,96.13A53.86,53.86,0,0,1,186.68,107.73Z"/>
          <path class="cls-12" d="M182.54,96.75a9.42,9.42,0,0,1-.4,1.24c-.83,2-2.36,3.84-3.43,5.65-.21.31-.42.63-.61,1a7.66,7.66,0,0,0-.5,1c-.85,2.17-.08,4.23,0,6.35.07.72-.35,1.19-.62,1.84a7.85,7.85,0,0,1-.89.75c-2.15,1.59-4.78,2.35-5.87,4.78-.19.36-.38.73-.56,1.1-.56,1.1-1.09,2.24-1.64,3.4a10.12,10.12,0,0,1-.85.88,30.73,30.73,0,0,1-6.4,4c-.35.29-.71.58-1.05.88a34.88,34.88,0,0,0-3.1,3,3.22,3.22,0,0,1-1.57,1c-.4.19-.82.35-1.24.5-2.13.73-4.5,1-6.77,1.68-.41.12-.83.22-1.25.31l-1.23.32-1,.26-1,.24c-5.44,2.93-11.18,1-16.75,1q-.69,0-1.35,0a39.28,39.28,0,0,1-12.93-3.23l-1.15-.47c-2.91-1.83-5.13-4.8-8.3-5.83l-1-.23a17.67,17.67,0,0,1-3.09-.84,9.2,9.2,0,0,1-3.74-2.48,11.63,11.63,0,0,1-1.38-1.84c-1.11-1.52-1.2-3.3-1.65-5.13a6.65,6.65,0,0,0-4.18-4.83,7.37,7.37,0,0,1-1.08-.57,4.27,4.27,0,0,1-.91-.78c-.43-3-2-5.52-3.14-8.18-.17-.38-.33-.76-.47-1.16a2,2,0,0,1-.24-2,18.64,18.64,0,0,0,.69-9.15c-.08-.42-.19-.84-.31-1.27a15.56,15.56,0,0,1-1.61-9.5l0-.19L182.72,95.09A7.75,7.75,0,0,1,182.54,96.75Z"/>
          <path class="cls-11" d="M170.32,94.15a10.19,10.19,0,0,1-.43,1,16.51,16.51,0,0,0-1.34,3.09c-.15.46-.3.91-.48,1.34a8.81,8.81,0,0,1-7.08,6.12,2.86,2.86,0,0,0-1.51,1.9,7.07,7.07,0,0,0-.14,1.29c-.06,2.15.63,4.3-.25,6.19a4.68,4.68,0,0,1-.81,1.16,6.7,6.7,0,0,1-3,1.58c-.38.11-.76.2-1.16.29-4.89-1.92-8.08.62-10.33,4.9a5.4,5.4,0,0,1-1.73,1.33,1.47,1.47,0,0,1-.7.36,3.55,3.55,0,0,1-1.25,0,18.38,18.38,0,0,1-5.29-1.79l-1-.43a2.46,2.46,0,0,0-2.18-.31c-3.31,1.51-5.86,3.2-8.48,2.65a3.58,3.58,0,0,1-1.12-.47c-.79-.92-1.53-2-2.31-3.1-.26-.35-.53-.7-.81-1-2-2.47-5.64-1.75-8.53-1.29-1.38.17-2.53-1.16-3.42-2.76-.17-.33-.34-.66-.49-1-1.08-4.55-4.14-9.05-9.11-10.12a3.14,3.14,0,0,1-1.24-.66,2.76,2.76,0,0,1-.68-1.91c.07-3,1.39-6,.7-8.55-.13-.37-.24-.74-.33-1.09s-.21-.77-.3-1.15c-1-2.58-.06-5.27-.18-8.12a2,2,0,0,0-.21-.77,2.68,2.68,0,0,0-.18-.33l75.6,10.86A2.07,2.07,0,0,1,170.32,94.15Z"/>
          <path class="cls-12" d="M149.52,99.09c-.54.46-2,.54-2.83,1.19-.33.13-.66.26-1,.4-1.83.84-3,2.39-2.95,5.25-.05.35-.6.45-.95.4a4.32,4.32,0,0,0-1.33-.31c-3,.75-5-2.36-7.83-2.24a2,2,0,0,0-.86.31,3,3,0,0,0-.66.62c-1.05,1-1.77,3.54-2.86,2.5-2.59-2.84-4.57-3.83-8.25-4-1.23,0,.89-2.52.69-4.3a1.42,1.42,0,0,0-.49-.81c-2-2.21-5-.7-7.11-2.06-1.78-1.14-1-3.86-2.15-5.58-.15-.27-.32-.54-.49-.8a9.9,9.9,0,0,1-1-1.73,4.14,4.14,0,0,1,.48-3.27l40.12,5.76a11,11,0,0,0-.45,8A.55.55,0,0,1,149.52,99.09Z"/>
        </g>
        <g>
          <path class="cls-3" d="M203.71,98.29A73.94,73.94,0,0,1,200,112.76c-.22.59-.44,1.17-.67,1.75a58.63,58.63,0,0,1-7.77,14.73c-.34.53-.69,1-1,1.55a53.09,53.09,0,0,1-7.46,8.46l-1.4,1.32c-2.35,2.18-4.81,4.25-7.24,6.27-.52.36-1,.71-1.58,1a68.89,68.89,0,0,1-28.61,11.58c-.55.09-1.09.22-1.63.32q-2.43.48-4.83.84c-.48.07-12.82,2-36.12-5.87-6.12-2.07-11.4-5.92-16.33-9.86-.52-.42-1-.84-1.54-1.27-1.6-1.53-3.14-3.13-4.66-4.75L78,137.66,77,136.44c-.36-.41-.72-.81-1.09-1.21l-1.07-1.3c-.35-.43-.69-.87-1-1.31-1.27-1.47-2.52-3-3.7-4.5-.39-.51-.78-1-1.16-1.55-1-1.18-8.65-16.68-9.36-22.94-.07-.65-.24-1.29-.36-1.95A82.6,82.6,0,0,1,57.54,91c0-.6-.08-1.2-.11-1.8A58.74,58.74,0,0,1,58,79.81c.09-.64.18-1.26.28-1.92l.06-.48Z"/>
          <path class="cls-13" d="M200.56,100.19c-.08.44-.16.88-.25,1.32-.27,1.31-.56,2.6-.9,3.88-.16.64-.34,1.27-.52,1.9s-.33,1.23-.52,1.84c-.73,1.55-1.41,3.13-2.08,4.72l-.67,1.59a61.64,61.64,0,0,1-9.15,15.89l-.93,1.23-.95,1.22-1.15,1.41c-1.18,1.41-2.39,2.78-3.65,4.14-.4.39-.82.78-1.25,1.16-2.14,1.88-19.25,12.67-20.34,12.68-.54.13-1.08.24-1.63.33-2.74.46-12.46,3.45-14,3.68-.69.12-1.38.22-2.07.31a71,71,0,0,1-12.75.53l-1.1-.07c-5.23-1.24-10.65-1.95-16-3.2-.59-.14-1.18-.31-1.77-.44-4.69-1.05-12.63-3.67-17.86-8l-1.43-1.09-1.41-1.08c-.51-.42-1-.84-1.49-1.28-1.94-1.73-3.77-3.61-5.59-5.5-.47-.46-.92-.92-1.36-1.39-.88-.93-1.73-1.89-2.56-2.87q-.67-.79-1.32-1.62a30,30,0,0,1-3.12-5.16c-.18-.38-.36-.77-.54-1.18a47.67,47.67,0,0,1-3.33-4.65c-.34-.54-.66-1.08-1-1.65-.87-1.79-1.69-3.62-2.45-5.47-.25-.62-.5-1.24-.74-1.86-.91-3.07-2-6.1-2.88-9.16-.17-.62-.33-1.24-.47-1.86a82,82,0,0,1-.68-18c0-.56.09-1.12.14-1.68.09-1,.21-2,.35-3L201,97.9A14.64,14.64,0,0,1,200.56,100.19Z"/>
          <path class="cls-10" d="M194.55,110.88q-.39.83-.84,1.62a38.28,38.28,0,0,1-3.08,4.66l-.89,1.63q-1.47,2.71-2.91,5.44l-.71,1.38c-.58,1.15-1.2,2.25-1.87,3.32-.33.53-.68,1.06-1,1.57a40.88,40.88,0,0,1-6,6.5c-.44.39-.88.78-1.34,1.15a8.7,8.7,0,0,1-2.34,1.7c-2.22,1.16-4.32,2.31-6.35,3.49-.51.29-5.52,5.75-18.28,9-.46.11-.92.24-1.38.34s-.92.18-1.39.24l-1.66.36a60.54,60.54,0,0,1-8.14,1.21l-1.77.1a79.9,79.9,0,0,1-12.3-.53l-1.87-.25a41.79,41.79,0,0,1-15.65-5.21l-1.48-.78c-3.45-1.74-7-3.09-10.5-4.6-.51-.29-1-.6-1.46-.91-4.23-2.85-7.37-7-10.62-11L79.57,130c-1.13-1.32-2.26-2.63-3.38-3.91l-.9-1.59-.89-1.58c-.29-.53-.58-1.06-.87-1.61-1-2.22-2.2-4.41-3.3-6.62q-.42-.83-.81-1.68a9.25,9.25,0,0,1-.87-2.86,45,45,0,0,0-1.09-5.41c-.16-.58-.32-1.15-.51-1.73a29.64,29.64,0,0,1-2.37-6.37c-.13-.54-.25-1.08-.35-1.63a7,7,0,0,1-.14-3c0-4.71,1.06-8.94.72-13.66l132.59,19C196.6,101.92,196.75,106.74,194.55,110.88Z"/>
          <path class="cls-14" d="M186.47,107.89a6.45,6.45,0,0,0-.29,1.4,14.93,14.93,0,0,1-2.42,6.48c-.33.52-.68,1-1,1.51-1.08,1.49-2.28,2.91-3.44,4.34-.31.44-.6.88-.89,1.32a27.13,27.13,0,0,0-2.3,4.21,6.89,6.89,0,0,1-2.86,3.19c-.49.39-1,.77-1.5,1.13a68.37,68.37,0,0,0-5.68,4.85,14.83,14.83,0,0,1-1.33,1.07c-3.19,2.27-7.07,3.59-10.67,5.27-.55.29-1.11.57-1.66.84-1.11.54-2.24,1-3.39,1.46-.59.15-1.19.28-1.79.39a29.54,29.54,0,0,1-3.69.41c-.68.1-1.33.18-2,.26-2,.24-3.93.42-5.88.64l-1.68.22c-1.67.2-3.34.36-5,.46-.67,0-1.32-.08-2-.15a20.42,20.42,0,0,1-7.49-2.33c-.54-.21-1.09-.41-1.63-.6a63.54,63.54,0,0,0-8.78-2.29c-.5-.11-1-.21-1.52-.3a20.88,20.88,0,0,1-8-2.68q-.72-.42-1.41-.87c-.28-.18-.64-.34-1-.53s-.56-.54-.88-.72c-7.48-4.1-13.8-12.22-14-12.69-1-2.34-4.9-8.84-5.21-9.37-2.57-3-2.79-6.92-3.69-10.67-.13-.54-.24-1.09-.34-1.65-.46-1.77-.93-3.54-1.31-5.31-.12-.59-.24-1.18-.34-1.77a12.78,12.78,0,0,1-.32-3.11c0-3,.78-5.65,1.13-8.4.06-.55.11-1.11.13-1.67a16.87,16.87,0,0,1-.17-2.83L189.73,96.28A54.11,54.11,0,0,1,186.47,107.89Z"/>
          <path class="cls-12" d="M182.33,96.91a8.83,8.83,0,0,1-.4,1.23c-.83,2-2.36,3.85-3.43,5.65-.21.32-.42.64-.61,1a7.12,7.12,0,0,0-.5,1c-.84,2.17-.08,4.22,0,6.35.07.71-.35,1.18-.62,1.84a9.05,9.05,0,0,1-.89.75c-2.15,1.59-4.78,2.35-5.87,4.78l-.56,1.09c-.56,1.11-1.09,2.25-1.64,3.41a10.07,10.07,0,0,1-.85.88,30.73,30.73,0,0,1-6.4,4l-1.05.88a33.46,33.46,0,0,0-3.09,3,3.38,3.38,0,0,1-1.58,1c-.4.18-.82.34-1.24.49-2.13.73-4.5,1-6.77,1.69-.41.12-.83.22-1.25.3l-1.23.33-1,.25-1,.25c-5.44,2.92-11.17,1-16.75,1-.46,0-.91,0-1.35,0a39.34,39.34,0,0,1-12.93-3.23l-1.15-.47c-2.91-1.83-5.13-4.8-8.3-5.84l-1-.22a17.7,17.7,0,0,1-3.09-.85,9.18,9.18,0,0,1-3.74-2.47,11.72,11.72,0,0,1-1.38-1.85c-1.11-1.51-1.2-3.29-1.65-5.12a6.62,6.62,0,0,0-4.18-4.83,8,8,0,0,1-1.08-.58,4.23,4.23,0,0,1-.91-.78c-.43-3-2-5.52-3.14-8.18-.17-.38-.33-.76-.47-1.15a2,2,0,0,1-.24-2,18.61,18.61,0,0,0,.69-9.14c-.08-.42-.19-.85-.31-1.27a15.5,15.5,0,0,1-1.6-9.51,1.13,1.13,0,0,1,0-.18L182.51,95.25A7.82,7.82,0,0,1,182.33,96.91Z"/>
          <path class="cls-15" d="M170.11,94.31a8.87,8.87,0,0,1-.43,1,17.59,17.59,0,0,0-1.34,3.1c-.15.46-.3.9-.48,1.34a8.8,8.8,0,0,1-7.08,6.11,2.88,2.88,0,0,0-1.51,1.9,7.07,7.07,0,0,0-.14,1.29c-.06,2.16.63,4.31-.25,6.2a4.37,4.37,0,0,1-.81,1.15,6.72,6.72,0,0,1-3,1.59c-.38.1-.76.2-1.16.28-4.89-1.91-8.08.63-10.33,4.91a5.4,5.4,0,0,1-1.73,1.33,1.37,1.37,0,0,1-.7.35,3.32,3.32,0,0,1-1.25,0,18.6,18.6,0,0,1-5.28-1.78c-.35-.15-.69-.3-1-.43a2.43,2.43,0,0,0-2.18-.31c-3.31,1.5-5.86,3.2-8.48,2.64a3.58,3.58,0,0,1-1.12-.47c-.79-.91-1.53-2-2.31-3.09q-.39-.54-.81-1c-2-2.47-5.64-1.76-8.53-1.29-1.37.17-2.53-1.16-3.42-2.77-.17-.32-.34-.65-.49-1-1.08-4.55-4.14-9-9.1-10.11a3.18,3.18,0,0,1-1.25-.66,2.78,2.78,0,0,1-.68-1.91c.08-3,1.39-6,.7-8.55-.13-.38-.24-.74-.33-1.1s-.21-.76-.3-1.15c-1-2.57-.06-5.27-.18-8.11A1.93,1.93,0,0,0,94.9,83a2.68,2.68,0,0,0-.18-.33l75.6,10.86A2,2,0,0,1,170.11,94.31Z"/>
          <path class="cls-12" d="M149.31,99.24c-.54.47-2,.55-2.83,1.2-.33.13-.65.25-1,.39-1.83.85-3,2.4-3,5.26,0,.35-.6.45-.94.39a4.78,4.78,0,0,0-1.33-.31c-3,.76-5-2.36-7.84-2.24a2,2,0,0,0-.86.32,2.92,2.92,0,0,0-.66.61c-1.05,1-1.77,3.54-2.86,2.51-2.59-2.85-4.56-3.84-8.25-4-1.23,0,.89-2.52.69-4.3a1.47,1.47,0,0,0-.49-.82c-2-2.2-5-.7-7.11-2.06-1.78-1.13-1-3.85-2.15-5.57-.15-.27-.32-.54-.49-.81a10.1,10.1,0,0,1-1-1.72,4.15,4.15,0,0,1,.49-3.27l40.11,5.76a11,11,0,0,0-.45,8A.53.53,0,0,1,149.31,99.24Z"/>
        </g>
        <g>
          <path class="cls-14" d="M96.78,119.84a17,17,0,0,0,3.17-6.15c.08-.38.08-.66,0-.76s0,0,0,0l0,0c-.44-.52-5,.54-7.32,2A4.18,4.18,0,0,0,91,116.55a3.08,3.08,0,0,0,.59,3.41v0l0,0C92.79,121.35,94.81,122,96.78,119.84Z"/>
          <g>
            <path class="cls-16" d="M91.66,119.27h0v0a2.8,2.8,0,0,1-.48-3.17,4.21,4.21,0,0,1,1.5-1.56c2.17-1.43,6.5-2.51,6.9-2l0,0h0c.09.1.08.35,0,.71a16.39,16.39,0,0,1-3.1,5.79C94.59,121.08,92.71,120.51,91.66,119.27Z"/>
            <path class="cls-17" d="M92.2,118.34v0l0,0a3.78,3.78,0,0,1-.57-.86,1.76,1.76,0,0,1-.16-1.23,3.17,3.17,0,0,1,1.37-1.5c2-1.4,6.09-2.51,6.48-2.07h0l0,0c.08.09.08.33,0,.67a15.24,15.24,0,0,1-2.66,4.78C94.94,120,93.19,119.49,92.2,118.34Z"/>
            <path class="cls-18" d="M94.34,115.17a2.84,2.84,0,0,0-1.52,2c-.15.47-.75.58-.94.23a1.62,1.62,0,0,1-.13-1.12A3,3,0,0,1,93,114.84c1.87-1.31,5.62-2.36,6-2h0c.14.16-.36.41-.77.55A14.18,14.18,0,0,0,94.34,115.17Z"/>
          </g>
        </g>
        <g>
          <path class="cls-14" d="M114.58,115a16.75,16.75,0,0,0,1.46-6.75c0-.39-.09-.66-.2-.74h0l0,0c-.56-.38-4.72,1.83-6.54,3.86a4.34,4.34,0,0,0-1.09,2,3.11,3.11,0,0,0,1.45,3.15h0l0,0C111.12,117.5,113.24,117.62,114.58,115Z"/>
          <g>
            <path class="cls-16" d="M109.49,115.79l0,0h0a2.81,2.81,0,0,1-1.28-2.94,4.31,4.31,0,0,1,1-1.89c1.73-1.94,5.63-4.1,6.14-3.75h0l0,0c.11.07.16.31.18.68a16.5,16.5,0,0,1-1.49,6.4C112.79,116.77,110.82,116.71,109.49,115.79Z"/>
            <path class="cls-17" d="M109.77,114.74h0l0,0A3.89,3.89,0,0,1,109,114a1.76,1.76,0,0,1-.47-1.14,3.19,3.19,0,0,1,.93-1.81c1.59-1.87,5.23-4,5.73-3.68h0c.11.07.17.3.19.65a15.43,15.43,0,0,1-1.33,5.3C112.85,115.68,111,115.6,109.77,114.74Z"/>
            <path class="cls-18" d="M111,111.13a2.84,2.84,0,0,0-1,2.27c0,.5-.57.76-.85.47a1.57,1.57,0,0,1-.41-1.05,3,3,0,0,1,.87-1.67c1.46-1.74,4.81-3.74,5.26-3.44h0c.18.12-.24.5-.6.74A14.19,14.19,0,0,0,111,111.13Z"/>
          </g>
        </g>
        <g>
          <path class="cls-14" d="M115.86,132.85a16.81,16.81,0,0,0-.33-6.9c-.13-.37-.26-.61-.39-.66h0c-.64-.22-4.09,3-5.33,5.42a4.26,4.26,0,0,0-.53,2.19,3.06,3.06,0,0,0,2.21,2.67h0C113.16,136.16,115.24,135.72,115.86,132.85Z"/>
          <g>
            <path class="cls-16" d="M111.14,134.93h0a2.79,2.79,0,0,1-2-2.51,4.22,4.22,0,0,1,.52-2.09c1.16-2.32,4.37-5.42,5-5.22h0c.12,0,.24.27.34.62a16.35,16.35,0,0,1,.22,6.56C114.59,135,112.67,135.47,111.14,134.93Z"/>
            <path class="cls-17" d="M111.14,133.84h0a3.66,3.66,0,0,1-.93-.46,1.75,1.75,0,0,1-.74-1,3.09,3.09,0,0,1,.43-2c1-2.22,4-5.22,4.58-5h0c.12,0,.24.25.36.58a15.64,15.64,0,0,1,.08,5.47C114.37,134,112.57,134.35,111.14,133.84Z"/>
            <path class="cls-18" d="M111.41,130a2.87,2.87,0,0,0-.34,2.45c.11.48-.36.87-.7.67a1.62,1.62,0,0,1-.67-.91,3,3,0,0,1,.41-1.84c1-2.06,3.68-4.85,4.19-4.68h0c.21.07-.11.54-.39.87A14.07,14.07,0,0,0,111.41,130Z"/>
          </g>
        </g>
        <g>
          <path class="cls-14" d="M130.81,122.6A16.78,16.78,0,0,0,128.7,116c-.21-.33-.4-.52-.54-.54h-.06c-.67,0-3.17,3.94-3.73,6.61a4.13,4.13,0,0,0,0,2.26,3.06,3.06,0,0,0,2.82,2h.06C129.06,126.5,131,125.53,130.81,122.6Z"/>
          <g>
            <path class="cls-16" d="M126.79,125.83h-.05a2.8,2.8,0,0,1-2.58-1.9,4.4,4.4,0,0,1,0-2.16c.53-2.55,2.83-6.37,3.45-6.32h.05c.12,0,.3.2.49.51a16.32,16.32,0,0,1,1.91,6.28C130.15,125,128.41,126,126.79,125.83Z"/>
            <path class="cls-17" d="M126.51,124.78h0a3.94,3.94,0,0,1-1-.21,1.7,1.7,0,0,1-1-.75,3.14,3.14,0,0,1-.1-2c.43-2.42,2.53-6.08,3.12-6.05h0c.12,0,.29.18.49.47a15.14,15.14,0,0,1,1.49,5.26C129.66,124.05,128,124.9,126.51,124.78Z"/>
            <path class="cls-18" d="M125.78,121a2.89,2.89,0,0,0,.31,2.45c.23.44-.12.94-.5.83a1.62,1.62,0,0,1-.88-.7,3,3,0,0,1-.09-1.88c.4-2.25,2.3-5.65,2.84-5.62h0c.22,0,0,.55-.15.94A14.19,14.19,0,0,0,125.78,121Z"/>
          </g>
        </g>
        <g>
          <path class="cls-14" d="M140.63,135.37a16.87,16.87,0,0,0-3.75-5.82c-.29-.26-.52-.39-.66-.37h-.05c-.67.12-2,4.63-1.9,7.36a4.19,4.19,0,0,0,.63,2.16,3.08,3.08,0,0,0,3.25,1.21h0C139.94,139.58,141.53,138.16,140.63,135.37Z"/>
          <g>
            <path class="cls-16" d="M137.58,139.52h-.05a2.81,2.81,0,0,1-3-1.17,4.24,4.24,0,0,1-.59-2.07c-.15-2.6,1.08-6.89,1.68-7h.05c.13,0,.35.11.61.36a16.41,16.41,0,0,1,3.47,5.58C140.61,137.89,139.17,139.23,137.58,139.52Z"/>
            <path class="cls-17" d="M137,138.59h0a3.6,3.6,0,0,1-1,.07,1.76,1.76,0,0,1-1.13-.48,3.12,3.12,0,0,1-.62-1.93c-.21-2.45.87-6.53,1.45-6.65h0c.12,0,.33.09.59.32a15.57,15.57,0,0,1,2.81,4.69C139.88,137.06,138.53,138.31,137,138.59Z"/>
            <path class="cls-18" d="M135.36,135.15a2.85,2.85,0,0,0,.93,2.29c.34.36.13.94-.27.93a1.57,1.57,0,0,1-1-.45,3,3,0,0,1-.57-1.79c-.2-2.27.76-6,1.29-6.16h0c.21,0,.17.53.1.95A14,14,0,0,0,135.36,135.15Z"/>
          </g>
        </g>
        <g>
          <path class="cls-14" d="M148.4,117.23a16.62,16.62,0,0,0-5.12-4.65c-.35-.18-.61-.25-.74-.19h0c-.61.29-.77,5,.07,7.6a4.36,4.36,0,0,0,1.17,1.93,3.1,3.1,0,0,0,3.46.32l0,0h0C148.83,121.47,150,119.69,148.4,117.23Z"/>
          <g>
            <path class="cls-16" d="M146.53,122h0a2.82,2.82,0,0,1-3.19-.36,4.35,4.35,0,0,1-1.11-1.85c-.82-2.47-.74-6.93-.18-7.2h0c.12-.05.36,0,.69.19a16.46,16.46,0,0,1,4.79,4.49C149,119.66,148,121.33,146.53,122Z"/>
            <path class="cls-17" d="M145.77,121.26h-.05a3.65,3.65,0,0,1-1,.33,1.72,1.72,0,0,1-1.22-.17,3.15,3.15,0,0,1-1.1-1.7c-.83-2.31-.85-6.53-.32-6.8h0s0,0,0,0a1,1,0,0,1,.66.16,15.4,15.4,0,0,1,3.93,3.81C148.12,119.05,147.14,120.61,145.77,121.26Z"/>
            <path class="cls-18" d="M143.26,118.38a2.86,2.86,0,0,0,1.49,2c.42.26.36.87,0,1a1.57,1.57,0,0,1-1.11-.16,3,3,0,0,1-1-1.59c-.78-2.14-.83-6-.35-6.28h0c.2-.09.31.46.34.9A14.28,14.28,0,0,0,143.26,118.38Z"/>
          </g>
        </g>
        <g>
          <path class="cls-14" d="M160.24,125.08a16.79,16.79,0,0,0-6.15-3.16c-.38-.08-.65-.09-.76,0s0,0,0,0h0c-.52.44.54,5,2,7.32a4.18,4.18,0,0,0,1.63,1.56,3.09,3.09,0,0,0,3.42-.58l0,0,0,0C161.76,129.07,162.41,127.05,160.24,125.08Z"/>
          <g>
            <path class="cls-16" d="M159.68,130.2l0,0,0,0a2.8,2.8,0,0,1-3.17.47,4.08,4.08,0,0,1-1.55-1.49c-1.44-2.18-2.52-6.51-2-6.91h0v0c.1-.08.36-.07.71,0a16.35,16.35,0,0,1,5.79,3.09C161.48,127.27,160.91,129.15,159.68,130.2Z"/>
            <path class="cls-17" d="M158.74,129.66l0,0h0a3.93,3.93,0,0,1-.86.58,1.73,1.73,0,0,1-1.22.15,3.17,3.17,0,0,1-1.51-1.36c-1.4-2-2.51-6.09-2.07-6.49h0s0,0,0,0,.33-.08.67,0a15.65,15.65,0,0,1,4.78,2.66C160.44,126.92,159.89,128.68,158.74,129.66Z"/>
            <path class="cls-18" d="M155.57,127.53a2.86,2.86,0,0,0,2,1.51c.47.15.58.75.23.94a1.56,1.56,0,0,1-1.12.13,3,3,0,0,1-1.39-1.27c-1.3-1.86-2.36-5.62-2-6h0c.16-.14.41.37.55.78A14.44,14.44,0,0,0,155.57,127.53Z"/>
          </g>
        </g>
        <g>
          <path class="cls-14" d="M171.35,112.16a16.75,16.75,0,0,0-6.75-1.46c-.39,0-.66.08-.74.2v0l0,0c-.38.55,1.83,4.72,3.86,6.54a4.22,4.22,0,0,0,2,1.08,3.09,3.09,0,0,0,3.15-1.44v0l0,0C173.85,115.62,174,113.5,171.35,112.16Z"/>
          <g>
            <path class="cls-16" d="M172.14,117.25l0,0v0a2.8,2.8,0,0,1-2.94,1.29,4.31,4.31,0,0,1-1.89-1c-1.94-1.73-4.11-5.63-3.75-6.14,0,0,0,0,0,0v0c.08-.11.32-.16.69-.18a16.5,16.5,0,0,1,6.4,1.49C173.12,114,173.05,115.92,172.14,117.25Z"/>
            <path class="cls-17" d="M171.09,117v0l0,0a3.89,3.89,0,0,1-.68.78,1.7,1.7,0,0,1-1.14.46,3.13,3.13,0,0,1-1.81-.93c-1.87-1.58-4-5.22-3.68-5.72h0a0,0,0,0,1,0,0c.07-.11.3-.17.65-.2a15.45,15.45,0,0,1,5.3,1.34C172,113.89,172,115.72,171.09,117Z"/>
            <path class="cls-18" d="M167.48,115.73a2.83,2.83,0,0,0,2.27,1c.5,0,.76.57.47.85a1.57,1.57,0,0,1-1.05.41,3,3,0,0,1-1.67-.87c-1.74-1.46-3.74-4.81-3.44-5.26h0c.12-.18.49.24.74.6A14.19,14.19,0,0,0,167.48,115.73Z"/>
          </g>
        </g>
        <g>
          <path class="cls-14" d="M171,97.39a16.85,16.85,0,0,0-6.91.33c-.37.13-.61.26-.65.39v0c-.23.64,3,4.09,5.42,5.33A4.26,4.26,0,0,0,171,104a3.1,3.1,0,0,0,2.67-2.21v0C174.27,100.09,173.83,98,171,97.39Z"/>
          <g>
            <path class="cls-16" d="M173,102.11v0a2.8,2.8,0,0,1-2.51,2,4.19,4.19,0,0,1-2.09-.52c-2.33-1.16-5.43-4.37-5.22-5,0,0,0,0,0,0v0c0-.12.27-.24.62-.34a16.37,16.37,0,0,1,6.56-.22C173.13,98.66,173.57,100.58,173,102.11Z"/>
            <path class="cls-17" d="M172,102.11v0a3.66,3.66,0,0,1-.46.93,1.69,1.69,0,0,1-1,.74,3.05,3.05,0,0,1-2-.43c-2.23-1-5.22-4-5-4.58h0s0,0,0,0,.24-.24.57-.36a15.64,15.64,0,0,1,5.47-.08C172.05,98.88,172.46,100.67,172,102.11Z"/>
            <path class="cls-18" d="M168.14,101.84a2.87,2.87,0,0,0,2.45.34c.48-.11.87.36.66.7a1.59,1.59,0,0,1-.9.67,3,3,0,0,1-1.84-.41c-2.06-1-4.86-3.68-4.69-4.19h0c.06-.21.53.11.87.39A14.07,14.07,0,0,0,168.14,101.84Z"/>
          </g>
        </g>
        <g>
          <path class="cls-14" d="M83.39,96.37a16.72,16.72,0,0,0,5.82-3.74c.26-.29.39-.52.37-.66s0,0,0,0v0c-.12-.66-4.63-2-7.36-1.9a4.28,4.28,0,0,0-2.16.64,3.07,3.07,0,0,0-1.21,3.25s0,0,0,0v0C79.18,95.69,80.6,97.27,83.39,96.37Z"/>
          <g>
            <path class="cls-16" d="M79.24,93.33v0a2.81,2.81,0,0,1,1.17-3,4.24,4.24,0,0,1,2.07-.59c2.6-.16,6.89,1.07,7,1.68v0s0,0,0,0-.11.34-.36.61a16.41,16.41,0,0,1-5.58,3.47C80.87,96.36,79.53,94.92,79.24,93.33Z"/>
            <path class="cls-17" d="M80.17,92.78v0a4,4,0,0,1-.06-1,1.73,1.73,0,0,1,.48-1.13A3.12,3.12,0,0,1,82.51,90c2.45-.21,6.53.87,6.65,1.45h0v0c0,.12-.09.33-.32.59a15.54,15.54,0,0,1-4.69,2.8C81.7,95.63,80.45,94.28,80.17,92.78Z"/>
            <path class="cls-18" d="M83.61,91.11a2.85,2.85,0,0,0-2.29.93c-.36.33-.94.13-.93-.27a1.57,1.57,0,0,1,.45-1,2.89,2.89,0,0,1,1.79-.57c2.27-.2,6.05.76,6.16,1.29,0,0,0,0,0,0,0,.21-.52.17-.94.09A14.33,14.33,0,0,0,83.61,91.11Z"/>
          </g>
        </g>
        <g>
          <path class="cls-14" d="M97.76,103.75a16.84,16.84,0,0,0,4.65-5.12c.18-.35.25-.61.19-.74s0,0,0,0a0,0,0,0,0,0,0c-.29-.61-5-.78-7.59.07a4.3,4.3,0,0,0-1.93,1.17,3.08,3.08,0,0,0-.32,3.45s0,0,0,0v0C93.51,104.18,95.3,105.34,97.76,103.75Z"/>
          <g>
            <path class="cls-16" d="M93,101.88v0a2.79,2.79,0,0,1,.36-3.18,4.16,4.16,0,0,1,1.84-1.11c2.47-.82,6.94-.75,7.2-.19a0,0,0,0,1,0,0s0,0,0,0,0,.36-.19.68a16.42,16.42,0,0,1-4.48,4.79C95.33,104.38,93.66,103.34,93,101.88Z"/>
            <path class="cls-17" d="M93.72,101.11a0,0,0,0,0,0,0v0a4,4,0,0,1-.33-1,1.77,1.77,0,0,1,.17-1.22,3.13,3.13,0,0,1,1.71-1.1c2.31-.84,6.53-.85,6.8-.32h0s0,0,0,0,0,.34-.16.66a15.49,15.49,0,0,1-3.8,3.92C95.93,103.47,94.38,102.48,93.72,101.11Z"/>
            <path class="cls-18" d="M96.61,98.61a2.84,2.84,0,0,0-2,1.49c-.27.41-.87.36-1,0A1.59,1.59,0,0,1,93.84,99a3,3,0,0,1,1.58-1c2.14-.78,6-.83,6.29-.35h0c.1.19-.46.3-.89.34A13.87,13.87,0,0,0,96.61,98.61Z"/>
          </g>
        </g>
      </g>
    </g>
  </g>
</svg>
