<svg id="Layer_1" data-name="Layer 1" xmlns="http://www.w3.org/2000/svg" width="117.76" height="217.96" viewBox="0 0 117.76 217.96">
  <defs>
    <style>
      .cls-1, .cls-10, .cls-11, .cls-12, .cls-13, .cls-2, .cls-3, .cls-4, .cls-5, .cls-6, .cls-7, .cls-8, .cls-9 {
        fill-rule: evenodd;
      }

      .cls-1 {
        opacity: 0.5;
      }

      .cls-2 {
        fill: #85401d;
      }

      .cls-3 {
        fill: #b66e32;
      }

      .cls-4 {
        fill: #c67b41;
      }

      .cls-5 {
        fill: #de8c50;
      }

      .cls-6 {
        fill: #9e572f;
      }

      .cls-7 {
        fill: #b36b47;
      }

      .cls-8 {
        fill: #b06137;
      }

      .cls-9 {
        fill: #323232;
      }

      .cls-10 {
        fill: #4b4b4d;
      }

      .cls-11 {
        fill: #5c5d60;
      }

      .cls-12 {
        fill: #77787b;
      }

      .cls-13 {
        fill: #fff;
      }
    </style>
  </defs>
  <g>
    <path class="cls-1" d="M115.7,14.22C111.86,6.11,101.77,0,92.2,0a20.46,20.46,0,0,0-4.79.56A24.19,24.19,0,0,0,75.75,7C70.9,12,68.2,19.26,67.93,28.16a5,5,0,0,0,.74,2.77C70.19,33.41,73.42,35,76.89,35a9.75,9.75,0,0,0,6.9-2.71,5,5,0,0,0,1.49-3.51,28.63,28.63,0,0,1,.41-5.15c.66-3.16,3.3-6.52,6.88-6.52a5.93,5.93,0,0,1,.84.06,8.89,8.89,0,0,1,6.26,4.28c.9,1.71,1.58,4.92-2.93,13.09L12.84,193.87a14.73,14.73,0,0,0-1.57,1.5,4.63,4.63,0,0,0-.75,1.06l-4.8,9.11a3.82,3.82,0,0,0-.21.46c-1.56,3.87.56,8.17,5.15,10.49A11.47,11.47,0,0,0,16,218a7.26,7.26,0,0,0,6.19-3.15c.09-.15.18-.29.26-.44l4.8-9.11a5.33,5.33,0,0,0,.45-1.23,19,19,0,0,0,.35-2.13L112,42.58C118.15,30.92,119.36,21.64,115.7,14.22Zm-8.13,26L23.13,200.59h0a11.35,11.35,0,0,1-.3,2.33c-1.86,3.54-2.93,5.56-4.79,9.11-.92,1.38-3.23,1.06-5.08,0s-3.46-2.66-2.84-4.19c1.86-3.55,2.93-5.57,4.79-9.11a11.27,11.27,0,0,1,1.76-1.56,0,0,0,0,1,0,0C43.57,146.24,75,86.66,101.16,36.88c4.47-8.1,5.2-13.44,2.93-17.74a13.78,13.78,0,0,0-10-6.91c-6.56-.94-12,4.19-13.33,10.38a32.08,32.08,0,0,0-.51,6.13C78.11,30.88,74,30,72.93,28.31c.21-6.89,2-13.37,6.38-17.77a19.41,19.41,0,0,1,9.3-5.13c8.29-2,19.12,3.6,22.58,11C114.6,23.25,111.92,32,107.57,40.25Z"/>
    <g>
      <path class="cls-2" d="M102.57,40.25c4.35-8.24,7-17,3.62-23.85C102.73,9,91.9,3.4,83.61,5.41a19.41,19.41,0,0,0-9.3,5.13c-4.33,4.4-6.17,10.88-6.38,17.77,1,1.7,5.18,2.57,7.35.43a32.08,32.08,0,0,1,.51-6.13c1.31-6.19,6.77-11.32,13.33-10.38a13.78,13.78,0,0,1,10,6.91c2.27,4.3,1.54,9.64-2.93,17.74L6.51,207.12c-.83,2.35,5,5.49,6.4,3.37L102.57,40.25Z"/>
      <path class="cls-3" d="M101.8,39.85c4.35-8.24,6.93-16.39,3.64-23.17C101.91,9.41,91.58,4.37,83.66,6.26c-11,2.72-14.49,12.07-14.83,22a5.24,5.24,0,0,0,5.63.21c.07-6.16.88-11.3,7-15.35s14.51-.76,18.1,5.17c2.9,4.78,1.84,10.93-2.63,19L7.38,207.33c-.42,1.59,3.83,3.91,4.87,2.57l89.55-170Z"/>
      <path class="cls-4" d="M101.42,39.65c4.35-8.25,6.52-15.62,3.23-22.41-3.52-7.27-12.13-11.88-20-10C73.7,10,70.6,19.11,70.34,28.93A5,5,0,0,0,74,28.65c0-6.47.61-12.22,6.87-16.36s15.47-.74,19.07,5.19c2.89,4.78,2.58,12.31-1.89,20.41L8.53,207.94c-.42,1.58,2.49,2.62,3.33,1.75,27.94-53,61.63-117,89.56-170Z"/>
      <path class="cls-5" d="M101,39.41c4.35-8.24,6.38-16,3.09-22.81-3.53-7.27-11.33-9.94-19.25-8-9.67,1.95-13,10.85-13.31,20.58a5.05,5.05,0,0,0,2.4-.42c0-6.18.7-12.27,6.36-16,6.13-4.06,17.12-1.5,20.71,4.43,2.89,4.77,2.28,13-2.19,21.12-12.22,23.2-50.58,97-90.12,171.08a5.46,5.46,0,0,0,2.05.9C49.73,136,88.75,62.6,101,39.41Z"/>
      <path class="cls-6" d="M8.44,209.18a5.85,5.85,0,0,0,.48.34C12,202.33,16,192.26,18.62,186l-3.14,6c-1.51,4.23-5,12.41-7,17.23ZM33.6,157.54l-7,13.33c6.71-10.78,28-47.87,33.41-58.69,3.7-7.34,15-25.44,18.59-32.8-4.08,5.89-17.36,29-19.38,33-4,7.87-16.48,29.7-25.6,45.17Z"/>
      <path class="cls-7" d="M65.72,108.36c3.58-7.45,9-19.12,11-23.58-4,7.19-10.34,21.53-14.22,28.79-1.64,3.07-4.24,8.4-7.24,14.72l10.5-19.93Z"/>
      <path class="cls-7" d="M22.07,191.06c-2.67,3.18-4.09,1.68-3.45-2.07a32.69,32.69,0,0,1,2.75-7.39A112.39,112.39,0,0,1,31.15,165c-2.5,4.44-7.41,12.44-9.75,17.93a21.93,21.93,0,0,0-1.88,6.15c-.26,2.92,1.51,2.71,2.55,2Z"/>
      <path class="cls-6" d="M28.45,171.23A97.48,97.48,0,0,0,22,182.9c-2.09,4.91-.49,5.41.07,5.23,2-.65,6.26-10.21,9-14.94,2.66-4.51,6.28-14.61,14.29-29.46-8.54,13.14-10.84,21.81-13.82,27-3.43,6-7,14.27-9,16-.6.5-1.25-.37-.1-3.65.6-1.72,4.12-8.64,5.95-11.84Z"/>
      <path class="cls-7" d="M24.1,182.53c4.95-8.11,7.34-16,10.63-22.87C37,155,57,122.41,66.86,100.63c-10.1,24.54-29,53.94-31.66,59.32-4.45,9-8,19-11.1,22.58Z"/>
      <path class="cls-7" d="M84.4,61.07C79.55,71.07,70.46,88.42,66,96.48c-.7,1.27-2.56,4.61-4.71,8.56L52.16,122.3c-.13.27-.24.52-.34.74,3.53-6.08,11-19.73,14.49-25.89,5.3-9.49,17.28-31.26,20.61-39.43,1.35-3.3,3.55-7.94,6.26-13.31L84.4,61.07Z"/>
      <path class="cls-7" d="M100.2,30a31.84,31.84,0,0,1-1.34,3.47c2.42-4.57,5.13-9.58,3.53-14.6A23.22,23.22,0,0,1,100.2,30Z"/>
      <path class="cls-6" d="M64.15,109.69C68.39,97.88,87,67,92.56,55.6,96.79,47,102,38,104.44,29.27a27.23,27.23,0,0,0,.8-12.33C110.17,28.08,95.18,51.5,93.1,55.73c-5.39,11-24,43.47-28.95,54Z"/>
      <path class="cls-3" d="M98,41.34C89,59.05,79.74,76.7,73.55,86.42c5.75-10.78,14.8-28.57,23.76-46.09,3.24-6.35,9.47-16.14,4.75-25.27,6.17,8.42-2,22.34-4.06,26.28Z"/>
      <path class="cls-3" d="M10.5,210.2c2.74-4.9,7-13.4,7.8-17.07A168.33,168.33,0,0,1,9.81,210a4.65,4.65,0,0,0,.69.23Z"/>
      <path class="cls-8" d="M74.19,28.57c0-6.65.85-12.21,7.12-16.54,5.42-3.75,13.83-1,18,3.76C94.68,8.67,84.58,8.5,80.7,11.19c-6.46,4.46-7.2,10.65-7.11,17.65a4,4,0,0,0,.6-.27Z"/>
      <path class="cls-3" d="M75,15.67c1-3,4-4.33,6.64-6.08,3.68-2.43,8.77-1.4,12.69.51,4.69,2.29,7,7,7.44,11.68.1-6.71-3.12-10.34-7.48-12.46-4.15-2-8.77-2.78-13,0-1,.67-6.47,3.5-6.34,6.36Z"/>
      <path class="cls-7" d="M72.19,29.14A35.05,35.05,0,0,1,73.76,17c-2.3,3.37-2.18,8.1-2.15,11.62v.53a3.66,3.66,0,0,0,.57,0Z"/>
      <path class="cls-6" d="M69.92,28.79A51.37,51.37,0,0,1,74.2,11.86,16.41,16.41,0,0,0,73,13.34a41.58,41.58,0,0,0-3.62,15.22l.5.23Z"/>
      <path class="cls-8" d="M82.31,6.64A29.62,29.62,0,0,1,95,8.83c4.69,2.3,8.71,6.24,9.36,9.38-.47-5.12-4.81-8.11-9.17-10.24a25.79,25.79,0,0,0-9.65-2,14,14,0,0,0-1.85.31c-.47.12-.92.25-1.35.38Z"/>
      <path class="cls-7" d="M72.62,17.72c2.93-6.36,7.69-9.66,12-10.62-7,.62-10.52,5.4-12,10.62Z"/>
      <path class="cls-9" d="M13.07,212c1.86-3.55,2.93-5.57,4.79-9.11a11.35,11.35,0,0,0,.3-2.33,8.48,8.48,0,0,1-3.52-1.15,8.49,8.49,0,0,1-2.94-2.25,11.27,11.27,0,0,0-1.76,1.56c-1.86,3.54-2.93,5.56-4.79,9.11-.62,1.53.94,3.26,2.84,4.19s4.16,1.36,5.08,0Z"/>
      <path class="cls-10" d="M12.7,211.28l4.09-7.77A12.11,12.11,0,0,1,11,200.78l-4.75,9a5.71,5.71,0,0,0,2,1.58c1.59.9,3.6,1.15,4.42-.09Z"/>
      <path class="cls-11" d="M12.74,202,7.9,211.17l.38.2a5.64,5.64,0,0,0,2.51.76l4.68-8.89A12.53,12.53,0,0,1,12.74,202Z"/>
      <path class="cls-10" d="M17.15,203a9.56,9.56,0,0,0,.23-2,11.45,11.45,0,0,1-4.72-2.18l-1.35,1.56c1.54,1.2,4.31,2.66,5.84,2.6Z"/>
      <path class="cls-11" d="M16.32,200.78a12.9,12.9,0,0,1-2.3-1c-.21.42-.69,1.13-1,1.79a13.59,13.59,0,0,0,2.75,1.25l.55-2Z"/>
      <path class="cls-12" d="M15.9,200.63l-.87-.36c-.21.61-.72,1.76-.78,1.91a10.94,10.94,0,0,0,1.09.45c.19-.66.38-1.33.56-2Z"/>
      <path class="cls-12" d="M14,202.64l-4.81,9.13a5.58,5.58,0,0,0,1.16.32l4.73-9c-.36-.13-.72-.29-1.08-.46Z"/>
    </g>
    <path class="cls-13" d="M110.7,14.22C106.86,6.11,96.77,0,87.2,0a20.46,20.46,0,0,0-4.79.56A24.19,24.19,0,0,0,70.75,7C65.9,12,63.2,19.26,62.93,28.16a5,5,0,0,0,.74,2.77C65.19,33.41,68.42,35,71.89,35a9.75,9.75,0,0,0,6.9-2.71,5,5,0,0,0,1.49-3.51,28.63,28.63,0,0,1,.41-5.15c.66-3.16,3.3-6.52,6.88-6.52a5.93,5.93,0,0,1,.84.06,8.89,8.89,0,0,1,6.26,4.28c.9,1.71,1.58,4.92-2.93,13.09L7.84,193.87a14.73,14.73,0,0,0-1.57,1.5,4.63,4.63,0,0,0-.75,1.06l-4.8,9.11a3.82,3.82,0,0,0-.21.46c-1.56,3.87.56,8.17,5.15,10.49A11.47,11.47,0,0,0,11,218a7.26,7.26,0,0,0,6.19-3.15c.09-.15.18-.29.26-.44l4.8-9.11a5.33,5.33,0,0,0,.45-1.23,19,19,0,0,0,.35-2.13L107,42.58C113.15,30.92,114.36,21.64,110.7,14.22Zm-8.13,26L18.13,200.59h0a11.35,11.35,0,0,1-.3,2.33c-1.86,3.54-2.93,5.56-4.79,9.11-.92,1.38-3.23,1.06-5.08,0s-3.46-2.66-2.84-4.19c1.86-3.55,2.93-5.57,4.79-9.11a11.27,11.27,0,0,1,1.76-1.56,0,0,0,0,1,0,0C38.57,146.24,70,86.66,96.16,36.88c4.47-8.1,5.2-13.44,2.93-17.74a13.78,13.78,0,0,0-10-6.91c-6.56-.94-12,4.19-13.33,10.38a32.08,32.08,0,0,0-.51,6.13C73.11,30.88,69,30,67.93,28.31c.21-6.89,2-13.37,6.38-17.77a19.41,19.41,0,0,1,9.3-5.13c8.29-2,19.12,3.6,22.58,11C109.6,23.25,106.92,32,102.57,40.25Z"/>
  </g>
</svg>
