<svg id="Layer_1" data-name="Layer 1" xmlns="http://www.w3.org/2000/svg" width="268.6" height="208.72" viewBox="0 0 268.6 208.72">
  <defs>
    <style>
      .cls-1 {
        opacity: 0.5;
      }

      .cls-2 {
        fill: #fff;
      }

      .cls-3 {
        fill: #28201d;
      }

      .cls-4 {
        fill: #3d2503;
      }

      .cls-5 {
        fill: #444647;
      }

      .cls-6 {
        fill: #28ae02;
      }

      .cls-7 {
        fill: #fbd81e;
      }

      .cls-8 {
        fill: #227f04;
      }

      .cls-9 {
        fill: #dd971b;
      }

      .cls-10 {
        fill: #262626;
      }

      .cls-11 {
        fill: #8a561f;
      }

      .cls-12 {
        fill: #4f4f4f;
      }

      .cls-13 {
        fill: #363838;
      }

      .cls-14 {
        fill: #333;
      }

      .cls-15 {
        fill: #676566;
      }

      .cls-16 {
        fill: #aed8e5;
      }

      .cls-17 {
        fill: #a3ced8;
      }

      .cls-18 {
        fill: #c8e5e8;
      }

      .cls-19 {
        fill: #bfbfbf;
      }

      .cls-20 {
        fill: #36c108;
      }

      .cls-21 {
        fill: #dee2e3;
      }

      .cls-22 {
        fill: #d1d3d3;
      }
    </style>
  </defs>
  <g>
    <path class="cls-1" d="M39.34,208.72a26.91,26.91,0,0,1-7.24-1c-.53-.15-1.05-.31-1.59-.5a26.45,26.45,0,0,1-2.93-.63,27.43,27.43,0,0,1-17.2-14.38,31.53,31.53,0,0,1-2.05-22.67A33.57,33.57,0,0,1,10,164.85a8.44,8.44,0,0,1-3.91-11.32c.36-.72,7.51-14.89,22.49-20.21a69.06,69.06,0,0,1-1.39-10,9.55,9.55,0,0,0-.63-.82,17.14,17.14,0,0,1-3-5.59,24.64,24.64,0,0,1-2.31-9.51,27.41,27.41,0,0,1,.36-6.56c0-4.17.32-7.4.33-7.55a8.44,8.44,0,0,1,4.43-6.67l.79-.41c-.22-2-.38-3.87-.38-4.88a9.64,9.64,0,0,1,2.43-6.43,8.67,8.67,0,0,1,.9-3.85L49.48,30.16a8.31,8.31,0,0,1-.32-3.23,8.42,8.42,0,0,1,4.1-6.46,22.37,22.37,0,0,1,2.1-3.77,8.38,8.38,0,0,1,4.84-3.37C61.43,13,90,5.77,105.06,5.65a8.29,8.29,0,0,1,2.34-.36s1.94,0,5.35,0c10.32,0,37.15.21,63.19,2.19,45.42,3.46,58,9.84,63.56,14.33,17.26,14,18.71,42.54,19.67,61.39.22,4.28.49,9.6.91,11a8.2,8.2,0,0,1,.39,2.2l1.28,31.34c4.14,6.78,4,16.21,3.86,19.27a8.6,8.6,0,0,1-.85,3.26l3.59,14.57a8.42,8.42,0,0,1-8.18,10.44c-.05,0-1,0-2.49,0-3.44,8.11-9.42,13.73-16.34,15.16a7.71,7.71,0,0,1-2.1.53,30.68,30.68,0,0,1-3.47.18h0c-9.25,0-16.39-3.27-20.1-9.22a31.94,31.94,0,0,1-3.71-8.82c-7.08-.64-11.2-1.34-13.82-2.13l-16.47,3a13.26,13.26,0,0,1-5.73,3.71c-.32.1-.65.19-1,.26-1.48.3-36.32,7.38-45.63,8.62a35.14,35.14,0,0,1-4.68.31A33.8,33.8,0,0,1,111,184c-1.42,0-3.46.05-5.89.05-23.09,0-31.94-2-36.21-4.54A32,32,0,0,1,67.78,186C64.05,199.39,52.35,208.72,39.34,208.72ZM202.16,68.14"/>
    <path class="cls-2" d="M34.07,203.45a26.91,26.91,0,0,1-7.24-1c-.52-.14-1-.31-1.59-.5a24.35,24.35,0,0,1-2.93-.63A27.43,27.43,0,0,1,5.12,186.94a31.43,31.43,0,0,1-2.05-22.67,32.31,32.31,0,0,1,1.7-4.69,8.41,8.41,0,0,1-3.9-11.31c.35-.73,7.5-14.9,22.48-20.22A68.88,68.88,0,0,1,22,118c-.26-.37-.47-.63-.62-.82a17.15,17.15,0,0,1-3-5.59,24.78,24.78,0,0,1-2.31-9.5,28,28,0,0,1,.36-6.57c0-4.17.32-7.4.33-7.54a8.44,8.44,0,0,1,4.43-6.68l.79-.41c-.22-2-.38-3.87-.38-4.87A9.66,9.66,0,0,1,24,69.62a8.45,8.45,0,0,1,.89-3.84L44.21,24.9a8.57,8.57,0,0,1-.32-3.24A8.42,8.42,0,0,1,48,15.2a21.22,21.22,0,0,1,2.09-3.76,8.39,8.39,0,0,1,4.85-3.37C56.16,7.75,84.77.51,99.79.38A8.34,8.34,0,0,1,102.13,0s1.94,0,5.35,0c10.33,0,37.15.21,63.19,2.2,45.42,3.46,58,9.83,63.56,14.33,17.27,14,18.71,42.53,19.67,61.39.22,4.27.49,9.59.91,11a8.27,8.27,0,0,1,.39,2.2l1.28,31.35c4.14,6.77,4,16.2,3.86,19.26a8.37,8.37,0,0,1-.85,3.26l3.59,14.57A8.42,8.42,0,0,1,254.9,170l-2.49-.05c-3.43,8.1-9.42,13.73-16.34,15.16a8.51,8.51,0,0,1-2.1.53,31.78,31.78,0,0,1-3.47.17h0c-9.25,0-16.39-3.27-20.1-9.22a31.68,31.68,0,0,1-3.71-8.82c-7.07-.64-11.2-1.34-13.82-2.13l-16.47,3a13.26,13.26,0,0,1-5.73,3.71,8.32,8.32,0,0,1-1,.26c-1.48.3-36.33,7.38-45.64,8.62a35,35,0,0,1-4.68.32,33.78,33.78,0,0,1-13.63-2.84c-1.42,0-3.45.05-5.88.05-23.1,0-31.95-2-36.21-4.54a33.71,33.71,0,0,1-1.13,6.53C58.78,194.12,47.08,203.45,34.07,203.45ZM196.89,62.88"/>
    <g>
      <g>
        <path class="cls-3" d="M249.76,140.75l5.14,20.85s-59-1.08-61.18-4.87,28.43-28.43,28.43-28.43S246.78,121.26,249.76,140.75Z"/>
        <path class="cls-3" d="M233,177.3s-11.36,1.35-15.43-5.14-4.87-16.79-1.89-24.1,16.78-10.55,16.78-10.55Z"/>
        <path class="cls-4" d="M158.26,24.28c-61.52.61-47.51,8.53-47.51,8.53s22.54.61,22.54,4.87-11,67-11,67L152.17,109l67-9.14L223.43,42S219.78,23.68,158.26,24.28Zm37.15,46.9c-9.13-1.82-4.87-12.79-3.65-17.66s24.36-1.22,24.36-1.22L218.56,73S204.55,73,195.41,71.18ZM166.2,20"/>
        <path class="cls-5" d="M204.55,102.25s-60.91-6.7-61.52,1.82,43.25,7.31,43.25,7.31Z"/>
        <path class="cls-3" d="M141.21,70.58s12.18-2.44,11,9.13-2.44,21.32-8.53,21.93-29.84-1.22-32.28-4.27S141.21,70.58,141.21,70.58Z"/>
        <path class="cls-5" d="M113.8,70s29.23-2.44,31.67,3,.61,25.58-6.09,26.8-25,0-28-2.44S113.8,70,113.8,70Z"/>
        <polygon class="cls-6" points="168.01 108.95 170.44 24.89 173.49 24.89 171.66 111.99 168.01 108.95"/>
        <path class="cls-7" d="M209.42,97.37s6.7-57.86-1.82-63.95-96.24-3.65-96.24-3.65L102.23,8.45S209.42,7.23,228.91,23.07s15,59.48,17.87,68.42Z"/>
        <polygon class="cls-8" points="160.7 106.11 111.36 103.06 109.53 121.13 135.12 159.5 160.7 162.95 166.18 157.06 160.7 106.11"/>
        <path class="cls-9" d="M107.64,170.26a24.6,24.6,0,0,0,15.29,2.64c9.14-1.22,45.08-8.53,45.08-8.53s3.65-1.21,1.82-3-53.6,4.26-53.6,4.26l-9.74-9.13Z"/>
        <path class="cls-10" d="M143,153.41s15.84-4.67,17.67,9.54c0,0-47.51,12.39-49.95,3.86a37,37,0,0,1-1.22-15.23Z"/>
        <path class="cls-3" d="M140.6,122.35s3.65-3,4.26,15.22,3,21.32-.61,21.93-25.58,6.09-34.11-.61S105.88,123,105.88,123Z"/>
        <path class="cls-5" d="M112,116.87s34.72-9.14,36.55-3.05S143,123,133.9,123.56s-22.54,1.83-23.76,0S112,116.87,112,116.87Z"/>
        <path class="cls-10" d="M170.44,108.34,207,100.42,210.64,126s-8.53,27.41-25.58,30.46S160.09,139.4,170.44,108.34Z"/>
        <path class="cls-6" d="M30.22,114s0,14.61,5.14,21.92,21.93,17.6,25.45,20.3,1.89,4.88,6.22,10,40.61,4.06,40.61,4.06,8.12-40.33,6-92.85.54-63.61-7.31-67.68S57,16.23,57,16.23s-2.44,3.52-1.9,5.69,3,16.51,3,16.51L34.82,72.81S30,74.16,30,76.06,31,86.34,31,86.34Z"/>
        <path class="cls-11" d="M59.73,143.19,46.46,134.8l2.75,13.33c5.09,3.66,9.9,6.74,11.6,8.05a7.12,7.12,0,0,1,2.49,3.3Z"/>
        <ellipse class="cls-12" cx="30.53" cy="171.95" rx="22.07" ry="20.1" transform="translate(-143.29 155.03) rotate(-74.37)"/>
        <ellipse class="cls-13" cx="35.05" cy="173.08" rx="22.07" ry="20.1" transform="translate(-141.08 160.2) rotate(-74.37)"/>
        <path class="cls-14" d="M25.08,88.78s4.06-2.17,6-2.44c0,0,2.71.82,5.69,4.88,0,0,6.49,1.62,8.66,1.62s5.14-2.44,7.85-2.44,44.39-3.24,42.23,2.17-54.95,13.26-54.95,13.26L27.24,97.71Z"/>
        <path class="cls-10" d="M32.38,69.56l2.44,3.25s52,2,60.5.81,12.18-4.06,11.78-14.21-1.63-34.92-1.63-34.92S104.26,16,90.86,16.77s-38.58,5.69-38.58,5.69l2,.81V47.94Z"/>
        <path class="cls-15" d="M59.73,143.19s-22.2-10.83-23-13-4.61-13.27-8.94-18.41-2.7-23-2.7-23a26.89,26.89,0,0,1,5.14,6C32.38,98.25,43.75,98,43.75,98s4.34-3.79,8.4-4.33,42.23-1.89,42.23-1.89L63.24,117.2S47.54,118.56,59.73,143.19Z"/>
        <path class="cls-16" d="M104.66,63.88s0,6.49-13,7.31c-2.15.13-5.21.17-8.81.16-2.21,0-4.62,0-7.16-.1-8.85-.18-19.2-.58-27.56-.94l-7-.32c-5.27-.25-8.71-.43-8.71-.43L54.31,23.27l6.54-.91,8.06-1.13L89.23,18.4a12.8,12.8,0,0,1,8.18.68,10.48,10.48,0,0,1,5.14,5.73c1.29,3.09,1.92,7.53,1.3,13.89Z"/>
        <path class="cls-17" d="M102.55,24.81,82.86,71.35c-2.21,0-4.62,0-7.16-.1,5.61-13.65,16-38.85,21.71-52.17A10.48,10.48,0,0,1,102.55,24.81Z"/>
        <path class="cls-18" d="M68.91,21.23,48.14,70.31l-7-.32c4.58-11.14,13.51-32.83,19.75-47.63Z"/>
        <path class="cls-14" d="M48.63,98.8s1.89,14.88,5.14,17,37.9-2.71,40.33-4.33,2.44-19.22.28-19.76S50,94.46,48.63,98.8Z"/>
        <path class="cls-10" d="M62,96.56l21.52-1.28s-15.43.27-15.7,4.33-.27,13,3.25,13.53,14.34-1.08,14.34-1.08-15.7,3.11-23.41,2.37Z"/>
        <ellipse class="cls-19" cx="62.03" cy="105.5" rx="4.74" ry="8.93"/>
        <path class="cls-3" d="M79,114.5s-25.18,0-27.07,7.85S53,135.61,53,135.61l6.77,7.58s-4.34-17.87-.55-21.93S79,114.5,79,114.5Z"/>
        <path class="cls-6" d="M14.11,153.61,8.43,152s11.37-23.15,35.32-16.24Z"/>
        <path class="cls-20" d="M60.4,161.73s-2.43-21.92-16.65-26-29.64,17.86-29.64,17.86,6.91,2.85,17.46.41S60.4,161.73,60.4,161.73Z"/>
        <ellipse class="cls-15" cx="35.61" cy="172.52" rx="13.6" ry="12.38" transform="translate(-140.12 160.33) rotate(-74.37)"/>
        <path class="cls-19" d="M29.54,101.36c.24,4.25-.71,7.76-2.13,7.85s-2.77-3.31-3-7.56.72-7.77,2.13-7.85S29.3,97.1,29.54,101.36Z"/>
        <circle class="cls-21" cx="74.19" cy="130.31" r="6.36"/>
        <circle class="cls-22" cx="74.19" cy="130.31" r="4.71"/>
        <polygon class="cls-22" points="31.03 74.7 59.18 77.14 58.64 90.13 32.11 86.89 31.03 74.7"/>
        <path class="cls-6" d="M160.7,106.1V163l53.6-9.74s0-27.61,20.3-28.43l13.8,6.5-1.62-39.79s-37.36-1.63-39.79,8.93-5.69,35.73-8.94,43-22.73,14.62-26.8,4.06,0-41.42,0-41.42Z"/>
        <path class="cls-20" d="M214,150s8.39,2.71,11.09-1.9,0-8.12,9.48-10.82,11.64-2.71,11.91,1.89,5.41,2.17,5.41,2.17.82-14.89-5.95-17.33S214.84,122.35,214,150Z"/>
        <ellipse class="cls-13" cx="234.19" cy="157.4" rx="19.79" ry="12.64" transform="translate(46.13 367.77) rotate(-82.11)"/>
        <ellipse class="cls-15" cx="234.19" cy="157.4" rx="11.23" ry="7.17" transform="translate(46.13 367.77) rotate(-82.11)"/>
      </g>
      <path class="cls-10" d="M38.9,154.47l-6.82,18.19s-.38,6.82,6.82,3.79L47.62,156Z"/>
      <path class="cls-10" d="M228,140.84,237,154.47s-.38,10.23-4.17,5.69a84.72,84.72,0,0,1-7.75-12.1Z"/>
    </g>
  </g>
</svg>
