<svg id="Layer_1" data-name="Layer 1" xmlns="http://www.w3.org/2000/svg" viewBox="0 0 400 420"><defs><style>.cls-1{fill:#8d8e8d;}</style></defs><path class="cls-1" d="M382.73,16.93H17.27L17.54,77H242.11c.49,3.59-.14,62.26-.14,62.26-8.38,1.3-105.62-1.78-143,29.78-18.76,15.71-34.76,39.46-34.76,71.38q0,60.06,46.37,108.7,50.91,54,128.45,54,64.6,0,101.86-35.73,34.21-32.67,34.21-81.33,0-54-74.5-110.22c1.23-20.44-.41-83.41-.7-98.81h82.49Zm-73,244.76q0,35-33.45,61.57T198,349.86q-32.69,0-54.35-19.38T122,277.65q0-41.79,27-60.81t99.2-19q30.39,0,46,17.1T309.76,261.69Z"/></svg>