<svg id="Layer_1" data-name="Layer 1" xmlns="http://www.w3.org/2000/svg" viewBox="0 0 400 420"><defs><style>.cls-1{fill:#ff0;}</style></defs><path class="cls-1" d="M122,277.65q0,33.45,21.66,52.83T198,349.86q44.83,0,78.29-26.6t33.45-61.57q0-29.66-15.59-46.75t-46-17.1q-72.23,0-99.2,19T122,277.65Zm126.18-73.81c18.67,0,32.26,4.95,41.55,15.14s14,24.59,14,42.71c0,21.58-10.2,40.18-31.18,56.87s-46.19,25.3-74.56,25.3c-20.45,0-36.92-5.84-50.35-17.85C134.44,314.17,128,298.35,128,277.65c0-26,8-44.32,24.43-55.9C169.32,209.86,201.53,203.84,248.19,203.84Z"/><path class="cls-1" d="M387,12.7a6,6,0,0,0-4.25-1.77H17.27a6,6,0,0,0-6,6l.27,60a6,6,0,0,0,6,6H236.27c.09,10.35-.07,33.18-.25,50.59l-4.18.11c-28.34.77-103.63,2.8-136.7,30.74-16.83,14.1-36.9,38.74-36.9,76,0,41.46,16.16,79.42,48,112.82,35,37.06,79.65,55.85,132.82,55.85,44.48,0,80.15-12.58,106-37.39C369,348.83,381.12,320,381.12,286c0-37.16-25-75.19-74.34-113.08.8-20-.19-65.15-.67-87.48,0-.86,0-1.69-.06-2.47h76.37a6,6,0,0,0,6-6l.31-60A6,6,0,0,0,387,12.7ZM382.42,77H299.93c.29,15.4,1.93,78.37.7,98.81q74.49,56.27,74.5,110.22,0,48.66-34.21,81.33-37.25,35.75-101.86,35.73-77.52,0-128.45-54Q64.23,300.47,64.24,240.4c0-31.92,16-55.67,34.76-71.38,37.35-31.56,134.59-28.49,143-29.78,0,0,.63-58.67.14-62.26H17.54l-.27-60H382.73Z"/></svg>