<?xml version="1.0" encoding="utf-8"?>
<!-- Generator: Adobe Illustrator 25.2.0, SVG Export Plug-In . SVG Version: 6.00 Build 0)  -->
<svg version="1.1" id="Layer_1" xmlns="http://www.w3.org/2000/svg" xmlns:xlink="http://www.w3.org/1999/xlink" x="0px" y="0px"
	 viewBox="0 0 1600 900" style="enable-background:new 0 0 1600 900;" xml:space="preserve">
<style type="text/css">
	.st0{clip-path:url(#SVGID_2_);}
	.st1{fill:#3A1B07;stroke:#1E0F03;stroke-width:2;stroke-miterlimit:10;}
	.st2{fill:#4C250F;}
	.st3{fill:none;stroke:#1E0F03;stroke-width:2;stroke-miterlimit:10;}
	.st4{fill:#2D1305;stroke:#1E0F03;stroke-width:2;stroke-miterlimit:10;}
	.st5{fill:#9CAF15;stroke:#546D1D;stroke-width:0.75;stroke-miterlimit:10;}
	.st6{fill:#8A9314;}
	.st7{fill:none;stroke:#546D1D;stroke-width:0.75;stroke-miterlimit:10;}
	.st8{fill:#B9D91C;stroke:#546D1D;stroke-width:0.75;stroke-miterlimit:10;}
	.st9{fill:#E6FE8E;}
	.st10{fill:#A5C010;}
	.st11{fill:#554848;}
	.st12{fill:#948888;}
	.st13{fill:#17370A;}
	.st14{fill:#5B820D;}
	.st15{fill:#A4BD12;}
	.st16{fill:#2E5608;}
</style>
<g>
	<defs>
		<rect id="SVGID_1_" width="1600" height="900"/>
	</defs>
	<clipPath id="SVGID_2_">
		<use xlink:href="#SVGID_1_"  style="overflow:visible;"/>
	</clipPath>
	<g class="st0">
		<path class="st1" d="M81.2,329.1c0,0,35.1,15.8,66.2,59.3c0,0,16.4-29.9,27.6-53.5c0.7-1.5,2.2-2.4,3.8-2.4h13.4
			c2.3,0,4.2,1.9,4.2,4.2c0,0.7-0.2,1.5-0.6,2.1c-9.8,16.6-10.6-2.6-25.8,83.8c0,0,28.2,52.7,37.3,98.5s98,87.8,146.1,100.4
			c92.3,24.8,188.9,28.8,283,11.9c131.5-23.7,719.4,147.1,719.4,147.1s-51.7-6-42.2,3.5l-79.4,56.2c0,0-418.6-115.5-528.9-136.8
			s-238.1,0-425.9-39.1l-20.4-8.3c0,0-54.5,36.8-65.4,39.9c0,0-15.4-5.5-32.7-13.4s-108-3.2-108-3.2s-82.5,21.4-106.1,55.3
			c0,0-50-36.2,54.4-74.3c78-28.5,102.5,11.1,169.6,0s74.4-45.9,74.4-45.9s-60.8-30-65.3-38.7s7.3-40.3-8.2-79.9
			S112,390.8,67.6,361.6S-12.3,286.4,81.2,329.1z"/>
		<path class="st1" d="M182.5,526.2c0,0-79.5-5.7-97.7-36.6s-37.2-63.3-74.4-78.3s12.7,11.6,20.9,19.8c7.6,7.6,33.9,38.7,44.8,64.6
			c8.9,21.1,80.7,59.3,107.8,55.3C183.8,551,193.6,537.3,182.5,526.2z"/>
		<path class="st2" d="M147.3,389.4l0.1-1c0,0-35.8-57.3-109.1-75.4c0,0-11-2.5-14.4,0c0,0,26.1,12.2,40,14.9s73.2,55.1,74.8,66.2
			c0,0,9.4,14.9,6.9,8.5C142.5,394.4,147.3,389.4,147.3,389.4z"/>
		<path class="st3" d="M259,656.1c21.3-22.9-13.6-41.5-13.6-41.5"/>
		<path class="st2" d="M186.4,457.5c6.7,17,12.5,34.4,17.4,52.1c1.8,7.3,3.2,29.7,27,49.4c0,0,34.8,31.6,71.9,45.1
			s62,23.5,105.6,29.7s69.9,11.7,142.1,10.6c0,0,66.4-3.3,86.9-9.6s94.3-2.1,120.7,2.4s328,75,367,85.6c0,0,194.6,43.8,244.8,64.3
			s-37.1,1.7-37.1,1.7l98.2,55.6c0,0-103.4-19.6-170.8-51s-117.3-39.1-132.8-40.9s-217.8-34.2-247.8-46.1s-29.2-30.8-29.2-30.8
			s-61.3-30.2-156.5-26.1s-145.6,27.3-244.9,6.5S294.4,611,271.9,599.2s-59.9-44.5-67.4-59.9s-29-86-34.6-98.4s-9.4-19.4-9.4-19.4
			l7.7,1.3C175.4,433.7,181.4,445.4,186.4,457.5c6.3,16.4,11.7,33.1,16.1,50.1c1.8,7.3,4.4,31.7,28.2,51.4"/>
		<path class="st2" d="M-54.9,691.6c0,0,22.6-21.7,74.6-35.6c48.5-12.9,77.1,2,108.9,5.5c27.5,3,38.8,2.8,64.9-5.5
			s50.9-25.9,52-39.9c0,0,15,4-5.7,22.5s-54.9,27.1-72.1,28.5s-46.5-1.6-61.2-5.5s-49.5-12.5-81-3.8S-43.2,681-54.9,691.6z"/>
		<path class="st4" d="M265.9,632c0,0,57.1,37.5,192.2,44.7s196,2.3,242.2,10.6s342,77.9,389.6,98.5s183.3,53.8,183.3,53.8l-39,0.7
			l-354.6-96.3c0,0-163.5-40.2-193.5-43.8s-117.7-6.8-181.7-10.3s-155.7-7.5-225.1-25.7l-18.5-7.5C260.9,656.8,270,640.1,265.9,632z
			"/>
		<path class="st4" d="M183.8,551c0,0-0.9,21.2,7,26.8s52.1,32.2,55.5,36.8c0,0-37.7-18.6-44-22s-22.8-13.1-23.1-19.6s0-20.9,0-20.9
			L183.8,551z"/>
		<path class="st4" d="M74.6,492.6c0,0,23,24.9,54.8,35.4c18.9,6.3,38.4,10.7,58.2,13.1l-3.8,10c0,0-6.1,1.5-16-1.1
			s-34.1-10.5-49.9-20S76.7,503.1,74.6,492.6z"/>
		<path class="st4" d="M22.4,315.3c0,0,43.9,32.9,63.9,40s56.6,74.3,62,84.6s33.3,51.8,31,81.7c0,0-14.4-46.6-30.9-70.7
			S94.7,382.7,85.2,375S14.2,326.4,22.4,315.3z"/>
		<path class="st1" d="M170,422.7c0,0-31.9-10.6-22.7-33.3"/>
		<path class="st2" d="M179.4,336.9c2.4-4.8,9.7-1.6,7.6,3.4c-0.2,0.4-2.6,12.9-10.8,40.5c-5.1,17.2-6.2,40.6-6.2,40.6l0,0
			c0,0-11.4-4.4-16.6-9.6C150.7,409.2,158.5,379.4,179.4,336.9z"/>
		<path class="st5" d="M178.3,350.7c0,0-20.2-21.2-35.3-31.8s-39.6-44.5-3.6-101.9c0,0,35,14.6,45.4,39.7s1.6,53.2-0.2,61.7
			S175.4,345.9,178.3,350.7z"/>
		<path class="st6" d="M177.1,349.4c0,0-1.1-4,4.4-21.3s6-23.5,6.7-29.3s3.5-19.5-2.3-38S158,227.7,158,227.7s-15.2-9.3-18.4-10.1
			c0,0,33.8,22.3,40.1,49C186.1,293.6,156.9,327.2,177.1,349.4z"/>
		<path class="st7" d="M177.1,349.4c0,0-56.1-83.3-37.4-131.8"/>
		<path class="st7" d="M137.2,255.9c0,0,22.2-4.1,30.4-22"/>
		<path class="st7" d="M138.2,261.5c0,0-13.4-6.5-13.1-14.8"/>
		<path class="st7" d="M146.4,289.5c0,0,26.5-3.3,38.5-32.8"/>
		<path class="st7" d="M149.4,297c0,0-22-2.5-28.1-16"/>
		<path class="st7" d="M160.1,320.1c0,0,16.1,1,28.5-24.1"/>
		<path class="st8" d="M172.6,352.2c0,0,24.9-5.8,30.4-5.8s99.6-15.9,46.4-104.3c0,0-24.5,18.4-39.8,26.9s-33.1,28.4-34.2,54.8
			S172.6,352.2,172.6,352.2z"/>
		<path class="st9" d="M180.1,337.6c0,0,2.8-35.9,23.6-52c13.3-10.4,26-21.4,38.1-33.1c0,0-29.8,19-43.3,28.4
			C191.1,286,177.6,307.4,180.1,337.6z"/>
		<path class="st10" d="M203,346.4c0,0,71.5-39.6,46.4-104.3c0,0,19.5,28.5,15.5,56.9S225.7,344.9,203,346.4z"/>
		<path class="st8" d="M172.6,352.2c0,0,11.5-22.6,29.7-34.7s40.6-28.8,47.1-75.4"/>
		<path class="st7" d="M203.4,316.8c0,0,24.2,11.5,51.2,4.2"/>
		<path class="st7" d="M207.5,314c0,0-11.8-24.2-1.1-43.1"/>
		<path class="st7" d="M235.5,284.9c0,0-12-18.2-6-28.6"/>
		<path class="st7" d="M233.5,288.1c0,0,19,6.4,31.7-2.4"/>
		<path class="st8" d="M-34.1,192.3c0,0,46.9,0.9,80.2,43c26.2,33.1,13,63.2,13,63.2s-3.5,28.2,3,36.1c0,0-38.2-8-63.1-39.3
			s-12-62.9-16.3-76.1S-29,194.6-34.1,192.3z"/>
		<path class="st10" d="M-11.5,196.7c0,0,48.5,36.1,55.8,62.2s-8.9,52.4,16.3,75.5l1.6,0.4c0,0-4.4-5.2-4.4-20
			c0-8,0.5-12.2,2.8-22.3c3.5-15.6,1-31.9-7.1-45.7C46,234.1,36,223.1,24.1,214.4C18.7,210.7,1.3,199.6-11.5,196.7z"/>
		<path class="st9" d="M-14.3,230.7c0,0-4.2,23.1,3.9,41.6s22.6,38.2,50.8,53.1c0,0-32.5-22-43.8-46.1S-11.2,242.2-14.3,230.7z"/>
		<path class="st7" d="M62.1,334.7c0,0-27.4-17.8-38.1-51s-17.4-71.2-58.1-91.4"/>
		<path class="st7" d="M28.5,294.8c0,0-20.9,2.3-39.5-16.3"/>
		<path class="st7" d="M25.6,288.1c0,0,27.5-9,32.5-31.6"/>
		<path class="st7" d="M15.9,257.1c0,0-25.2-10.8-32.3-23.7"/>
		<path class="st7" d="M16.8,260.1c0,0,18.2-21.7,7.3-45.7"/>
		<path class="st8" d="M-126.5,328.4c0,0,27.2-38.2,80.8-42c42.1-3,59.6,24.9,59.6,24.9s21.3,18.8,31.5,17.9c0,0-28.2,27-68,29.9
			s-58.7-25.5-72.1-29.4S-121.8,325.5-126.5,328.4z"/>
		<path class="st10" d="M-110.2,312.2c0,0,57.2-19.7,82.8-11.1s38.3,36.9,71.5,29.1l1.2-1.1c0,0-6.8,0.7-19-7.6
			c-6.6-4.5-9.8-7.3-16.8-14.9c-10.9-11.7-25.8-18.8-41.7-19.9c-14.7-1-29.4,1.1-43.3,6C-81.6,295.2-100.6,303.3-110.2,312.2z"/>
		<path class="st9" d="M-83.6,333.7c0,0,16.8,16.5,36.5,20.2s44.3,2.9,72.5-12c0,0-36.5,14.4-62.8,10.2S-72.4,337.7-83.6,333.7z"/>
		<path class="st7" d="M45.3,329.2c0,0-30.1,12.6-63.6,2.7s-68.5-25.8-108.2-3.5"/>
		<path class="st8" d="M-71.5,433.2c5.5-14.6,16.8-26.2,31.2-32c19.2-7.9,31.6,2.5,31.6,2.5s12.8,5.5,17.4,3.6c0,0-9,16.9-27.1,24.4
			s-31.3-2.9-38.1-2.7S-69.8,431.1-71.5,433.2z"/>
		<path class="st10" d="M-66.4,423.2c0,0,23.6-18,36.9-17.9s23.5,11.3,37.8,2.6l0.4-0.7c0,0-3.1,1.4-10-0.6c-3.6-1-7-2.5-10.1-4.4
			c-6.9-3.8-14.9-4.8-22.5-2.9c-7,1.8-13.5,5-19.2,9.5C-55.7,410.9-63.3,417.5-66.4,423.2z"/>
		<path class="st9" d="M-50.7,429.1c0,0,10.3,5.1,20.1,3.8s21.1-5.5,31.9-16.7c0,0-14.8,12.3-27.7,14.4S-44.9,429.2-50.7,429.1z"/>
		<path class="st7" d="M8.6,407.2c0,0-12.1,10.5-29.2,11s-35.9-1.5-50.9,15"/>
		<path class="st8" d="M1.8,361.8c10.8,4.4,19.3,13.2,23.3,24.1c5.5,14.6-2.5,23.6-2.5,23.6s-4.4,9.5-3,13c0,0-12.5-7.1-17.7-20.9
			s2.8-23.4,2.8-28.5S3.3,363.2,1.8,361.8z"/>
		<path class="st10" d="M9.2,365.9c0,0,13,18.1,12.6,28.1s-9,17.4-2.8,28.3l0.5,0.3c0,0-1-2.3,0.7-7.5c0.8-2.7,2-5.2,3.5-7.5
			c3-5.1,3.9-11.1,2.6-16.8c-1.2-5.3-3.5-10.3-6.7-14.6C18.3,374.2,13.4,368.4,9.2,365.9z"/>
		<path class="st9" d="M4.5,377.5c0,0-4.1,7.6-3.3,15s3.6,16,11.8,24.4c0,0-8.9-11.4-10.2-21.1S4.2,381.9,4.5,377.5z"/>
		<path class="st7" d="M19.6,422.6c-4.8-6.4-7.4-14.2-7.6-22.2c0-12.9,1.9-26.9-10.1-38.6"/>
		<path class="st7" d="M12.3,404.8c0,0-7.6-1.5-12-10.1"/>
		<path class="st7" d="M12,402.1c0,0,10.7-0.1,14.9-7.4"/>
		<path class="st7" d="M12.1,390.2c0,0-7.6-6.6-8.7-11.9"/>
		<path class="st7" d="M12.1,391.3c0,0,8.8-5.6,7.7-15.2"/>
		<path class="st8" d="M2.4,473.4c-8.7-7.8-13.7-18.9-13.8-30.6C-11.6,427.3-1,421.5-1,421.5s7.4-7.5,7.2-11.2
			c0,0,9.4,10.9,9.6,25.6c0.2,14.7-10.6,21.1-12.3,25.9S1.5,471.6,2.4,473.4z"/>
		<path class="st10" d="M-3.2,467.1c0,0-6.1-21.4-2.4-30.7s14.3-13.3,12.2-25.7l-0.4-0.5c0,0,0.1,2.5-3.2,6.8
			c-1.7,2.2-3.6,4.2-5.8,5.9c-4.5,3.8-7.4,9.1-8.2,14.9c-0.7,5.4-0.2,10.8,1.3,16C-8.9,456.2-6.3,463.4-3.2,467.1z"/>
		<path class="st9" d="M5.3,457.7c0,0,6.4-5.8,8.2-13s2-16.2-2.9-26.9c0,0,4.6,13.7,2.5,23.3S7,453.7,5.3,457.7z"/>
		<path class="st7" d="M6.2,410.2c2.3,7.7,2.2,15.9-0.3,23.5c-4.3,12.1-10.9,24.7-3.5,39.7"/>
		<path class="st7" d="M7.1,429.4c0,0,6.6,4,7.9,13.6"/>
		<path class="st7" d="M6.5,432c0,0-10-3.5-16.6,2"/>
		<path class="st7" d="M2.4,443.3c0,0,4.9,8.8,4.1,14.2"/>
		<path class="st7" d="M2.8,442.2c0,0-10.2,2.3-12.4,11.7"/>
		<path class="st11" d="M1699.1,907.5c14.8,16.8,18.3,81.5,52.1,132.6s46.2,52.2,65,81.6c36.7,57.2,105.7,133,172.8,287.3
			c10,23,18.9,45.6,26.7,67.4h69.2c-43.6-102.4-81-159.2-81-159.2s-5.5-39.2-23.2-78.6s-24.6-79-24.6-79c2.9-18.7,44.6-52,44.6-52
			l-5.6-10.4c-4.6,1-37.9,32.9-37.9,32.9c-0.3-2.4,8.9-63.2,8.9-63.2l-7.8-3.4c-0.4,20.8-17.9,68.7-17.9,68.7
			c-7.8-22.8-20.2-44.6-20.2-44.6l-6.8,5.2c30,69.6,56.6,187.7,56.6,187.7s-90-111.9-117.2-166s-60.3-73.8-78.8-85.6
			s-26-41.8-28.8-48.1s12.9-65.8,12.9-65.8l-8.5-4.4l-12.4,45.4c0,0-10.1-36.4-25.4-55.1S1695,856,1695,856l1.6-41.9l-6.1-3.9
			l-5.8,36l-13.4-23.5l-5.6,1.8c8.9,27.5,15.9,49.3,6.3,48.6s-65.8-21.8-65.8-21.8l-8.8,14.2
			C1597.5,865.5,1684.4,890.7,1699.1,907.5z"/>
		<path class="st5" d="M1675.7,835.5c0,0-31.4-31.4-54.4-46.5s-61.9-66.3-15.6-161.6c0,0,52.2,19.2,69.8,58s7.8,84.4,5.9,98.1
			S1670.9,828.1,1675.7,835.5z"/>
		<path class="st7" d="M1608.4,698.3c0,0-20.1-8.8-20.4-22.1"/>
		<path class="st7" d="M1628.3,753.5c0,0-32.2-1.6-42.3-22.2"/>
		<path class="st8" d="M1385.9,781.1c0,0,53.7-45.9,129.8-27.1c59.8,14.7,72.4,65.3,72.4,65.3s21.8,38.5,36.3,41.8
			c0,0-50.4,28.4-107.1,14.5s-71-65.8-87.9-77.9S1393.7,778.9,1385.9,781.1z"/>
		<path class="st10" d="M1415.3,763.9c0,0,87.7-3.9,119.7,21.1s37.8,73.8,87.2,77.2l2.1-1.1c0,0-9.8-2-23.2-20.3
			c-7.3-9.9-10.6-15.6-17.2-30.5c-7-16-22.5-38.2-49.7-49.5s-53.2-11.4-62.7-10.6S1432.4,754.7,1415.3,763.9z"/>
		<path class="st9" d="M1443.3,808.8c0,0,16.4,32.9,42.3,47.6s60.4,24.7,105.8,14.9c0,0-56.8,5.3-91.6-13.2
			S1457.2,820.1,1443.3,808.8z"/>
		<path class="st7" d="M1624.4,861.1c0,0-47.2,5.4-89.6-25.1s-84.5-70.7-149-54.9"/>
		<path class="st7" d="M1550,845.4c0,0-21.4,23.7-59.4,19.4"/>
		<path class="st7" d="M1540.6,839.9c0,0,22.9-38.7,7.8-71.7"/>
		<path class="st7" d="M1501.3,811.4c0,0-38.3,11.8-58.1,3"/>
		<path class="st7" d="M1505.1,814.1c0,0,0.7-45.1-33.5-63.9"/>
		<path class="st11" d="M93.1,1184c7.4-7.9,14.4-16.2,20.8-24.9c25.3-34.4,55.9-58.8,55.9-58.8c17.5-5.7,66.8,18.8,66.8,18.8l6.2-10
			c-3.1-3.8-47.1-21-47.1-21c1.9-1.4,58.9-20,58.9-20l-0.9-8.9c-18.1,9-68,14-68,14c15.8-17.6,28.4-39.1,28.4-39.1l-7.8-4.1
			C161.3,1089.7,72.7,1168,72.7,1168s51.9-135.5,85.1-185.6s33.8-90.2,34.8-113s23.2-43.4,27.2-48.9s63.1-17.4,63.1-17.4l-0.4-10.1
			l-45.2,8.7c0,0,26.4-25.9,34.9-48.8s30.1-36.3,30.1-36.3l36.9-17.3l0.4-7.5l-33.9,10.8l13.7-23.2l-4.4-4.5
			c-19.3,20.8-34.6,37.2-38.7,27.9s-13.7-72-13.7-72l-16.6-1.9c0,0,21.3,93.5,14.1,115s-61.1,54-88.4,109s-22.1,67.2-38.1,98.2
			c-26.3,51-52.7,129.8-120.3,233.2L93.1,1184z"/>
		<path class="st12" d="M258.9,700.2c0,0,6.6,32.6-1.3,48.5s-38.8,39.9-54,58.1s-22.2,26.1,6.4,0.5s48.1-43.9,54.4-58.5
			S258.9,700.2,258.9,700.2z"/>
		<path class="st5" d="M310.3,689c0,0,11.5-43.8,13.2-72.4s26.6-88.4,131.5-87.5c0,0,9.2,58-15.4,92.1s-68.8,45.3-81.6,49.8
			S314.3,681.3,310.3,689z"/>
		<path class="st6" d="M311,686.4c0,0,4.5-4.7,31.7-11.5s35.9-11.2,44.1-15s28.5-11.2,48.3-34s21-63.6,21-63.6s-0.1-27.7-1.5-32.4
			c0,0-2,62.8-32.1,92.7C391.8,653,323.9,641.7,311,686.4z"/>
		<path class="st7" d="M311,686.4c0,0,64.3-141.6,143.5-156.4"/>
		<path class="st7" d="M401.8,557.8c0,0,23.4,26,53.7,22.2"/>
		<path class="st7" d="M395.3,563.7c0,0-2.4-23,8.9-29.2"/>
		<path class="st7" d="M365.1,597.3c0,0,25.9,32.3,74.5,24.1"/>
		<path class="st7" d="M357.6,607.3c0,0-14.5-31.1-1.8-50"/>
		<path class="st7" d="M335.9,640.2c0,0,11.8,22.1,54.9,17.9"/>
		<path class="st8" d="M331.2,699.7c0,0,38.9,7.1,46.7,10.5s151.4,38.8,130.2-119.6c0,0-46.1,11-73.2,13.6s-64.5,20-82.3,56.8
			S331.2,699.7,331.2,699.7z"/>
		<path class="st9" d="M350.9,683.7c0,0,26-49.3,65.6-59.3c25.3-6.5,50.1-14.4,74.5-23.6c0,0-54.1,8.6-79,13.7
			C398.2,617.1,365.9,639.2,350.9,683.7z"/>
		<path class="st10" d="M378,710.3c0,0,125.9-12.2,130.2-119.6c0,0,10.1,52.5-13,90.4S411.2,722,378,710.3z"/>
		<path class="st8" d="M331.2,699.7c0,0,30.3-25.1,63.6-30.9s75.4-15.8,113.4-78.1"/>
		<path class="st7" d="M396.8,668.4c0,0,27.2,31.3,70.2,37.5"/>
		<path class="st7" d="M404.4,667c0,0-1.8-41.7,25-61.9"/>
		<path class="st7" d="M462.1,642.9c0,0-5.8-33.3,9.1-44.2"/>
		<path class="st7" d="M457.3,646.3c0,0,23,20.8,46.5,16.2"/>
		<path class="st8" d="M213.9,390.5c0,0,66.1,30.1,87.5,110.5c16.9,63.2-20.5,97.9-20.5,97.9s-22.4,38-18.1,53.2
			c0,0-49.4-34.9-65.4-94.7s21.6-96.7,23.7-118.2S219.7,396.9,213.9,390.5z"/>
		<path class="st10" d="M243.3,410.6c0,0,46.7,81.2,41,122.7s-44.9,69-23.4,117.3l2,1.5c0,0-3.1-10.1,6-31.1
			c4.9-11.3,8.2-17,17.8-30c14.6-20,21-44.7,18.1-69.2c-3.7-30.7-16.5-55.5-21.8-64S259.7,422.6,243.3,410.6z"/>
		<path class="st9" d="M218.4,457.3c0,0-20.2,30.3-20.1,61.5s8.6,68.2,39.4,106.7c0,0-32.6-51.3-33.9-92.6S215.6,475.5,218.4,457.3z
			"/>
		<path class="st7" d="M262.9,652.1c0,0-27.9-42.2-22.6-96s19.1-111.8-26.3-165.6"/>
		<path class="st7" d="M239.7,574.6c0,0-31-9.6-46.1-47.5"/>
		<path class="st7" d="M239.7,563.3c0,0,44.6,4.2,65.6-24.9"/>
		<path class="st7" d="M244.9,513.3c0,0-29.1-30.9-31.3-53.6"/>
		<path class="st7" d="M244.4,518.2c0,0,39.2-19.7,38.5-60.5"/>
		<path class="st8" d="M532.9,811.7c0,0-69.8-78-132.5-86.2c-52-6.8-65.9-2.5-132.4,74.2c0,0,27.1,24.1,33.4,31.2
			s59.6,64.6,131.6,28.6S510.6,811.3,532.9,811.7z"/>
		<path class="st10" d="M531.2,810.7c0,0-9.6-0.9-29.3,10.1s-34.5,20.7-48.8,27.5s-33.8,20-58.1,22s-48.1-5.8-60.2-13.8
			s-18.5-9.1-54-45.9l-11.9-10.9c0,0,53.9,45.6,91.1,44.1s69.5-30,104.5-34.5S524.4,802.5,531.2,810.7z"/>
		<path class="st9" d="M472.2,768.8c0,0-61.3-49.1-136.3-18.8c0,0-16.8,7.6-30.3,21.5c0,0,25.6-41.4,79.4-42.4
			S472.2,768.8,472.2,768.8z"/>
		<path class="st7" d="M268.9,799.6c0,0,24.2,9.6,70-4.2s104.2-41.2,192.3,15.2"/>
		<path class="st7" d="M324.9,799.1c0,0,7.8,34.2,58.5,71.4"/>
		<path class="st7" d="M335,796.5c0,0,10.5-55.9,48.5-73"/>
		<path class="st7" d="M407.1,777.7c0,0,30.4-33.5,44.9-32.8"/>
		<path class="st7" d="M470.5,782.5c0,0,23.7-7.8,29-3"/>
		<path class="st7" d="M461.5,780.3c0,0,4.2,28.6,35.3,44.2"/>
		<path class="st7" d="M396.1,779.4c0,0,24.2,51.3,63.3,65.6"/>
		<path class="st5" d="M1308.9,1070.2c0,0-13.8-49.1-28.8-76.5s-24.4-101.7,84.4-184.2c0,0,43.5,45.6,38.1,96.3s-44.5,96-55,110.2
			C1337.1,1030.2,1308.5,1060,1308.9,1070.2z"/>
		<path class="st6" d="M1308,1067.3c0,0,1.8-7.8,26-35.6s30.4-38.7,36.7-48.7s22.9-32.9,29.9-69.3S1385,839,1385,839
			s-16.3-25.2-20.6-28.3c0,0,34.7,58.8,21.2,110C1371.9,972.6,1295.2,1016.2,1308,1067.3z"/>
		<path class="st7" d="M1308,1067.3c0,0-16.6-180.2,56.4-256.6"/>
		<path class="st7" d="M1326.4,877.9c0,0,39.4,5.1,68.4-22.4"/>
		<path class="st7" d="M1323.1,888.5c0,0-16-19-7.9-33.8"/>
		<path class="st5" d="M942,934.8c0,0-41.8-17.4-69.8-23s-83.9-38.5-68.5-142.3c0,0,58.7-1.2,89.1,28s35.4,74.4,38,87.6
			S934.8,929.8,942,934.8z"/>
		<path class="st6" d="M939.4,933.7c0,0-4-5.1-7-33s-6.2-37.1-8.7-45.7s-7.2-29.8-27-52.5S836.6,773,836.6,773s-27.4-3.7-32.3-2.9
			c0,0,61.9,10.6,87.4,44.6C917.4,849,896.9,914.8,939.4,933.7z"/>
		<path class="st7" d="M939.4,933.7c0,0-131.4-83.2-135.2-163.6"/>
		<path class="st7" d="M824.6,826c0,0,29-19.6,29.4-50.1"/>
		<path class="st7" d="M829.5,833.3c0,0-23.1-0.8-27.7-12.9"/>
		<path class="st7" d="M858.7,867.9c0,0,35.6-21.1,34.1-70.5"/>
		<path class="st7" d="M867.5,876.7c0,0-32.8,10.1-49.8-5.1"/>
		<path class="st7" d="M897.1,902.8c0,0,23.5-8.7,25.3-52"/>
		<path class="st8" d="M955.4,915.5c0,0,12.4-37.5,16.9-44.8s59.3-144.6-100.5-145.5c0,0,4.6,47.2,3.4,74.3s10.9,66.6,44.9,89.3
			S955.4,915.5,955.4,915.5z"/>
		<path class="st9" d="M942.2,893.8c0,0-45.2-32.6-49.7-73.1c-3-25.9-7.4-51.6-13.2-77.1c0,0,1,54.7,2.6,80.1
			C882.9,837.8,900.2,872.8,942.2,893.8z"/>
		<path class="st10" d="M972.3,870.7c0,0,5.3-126.4-100.5-145.5c0,0,53.4-2.7,87.8,25.3S988.5,839.4,972.3,870.7z"/>
		<path class="st8" d="M955.4,915.5c0,0-20.7-33.5-21.9-67.2s-5.3-76.9-61.7-123.1"/>
		<path class="st7" d="M933.5,846.2c0,0,34.8-22.7,46.8-64.3"/>
		<path class="st7" d="M933.1,838.5c0,0-41.5-4-57.9-33.3"/>
		<path class="st7" d="M917.2,778c0,0-33.8,1.2-42.6-15.1"/>
		<path class="st7" d="M919.8,783.3c0,0,23.7-19.9,22.4-43.8"/>
		<path class="st8" d="M1199,818.5c0,0,85.1,11.6,116.5,93.3c24.7,64.3-20.7,114.9-20.7,114.9s-26.2,49.3-20,64.7
			c0,0-64.3-22.3-87.7-83.2s22.2-114,23.6-138.4S1206.7,823.7,1199,818.5z"/>
		<path class="st10" d="M1237.2,831.1c0,0,63.4,74.4,58.4,122.1s-53.1,91-23.3,137.3l2.6,1c0,0-4.4-10.2,6-36.4
			c5.6-14.1,9.4-21.5,20.8-39c12.2-18.7,25.4-49.7,19.2-82.5s-23.8-55.9-31-63.6S1258.5,839,1237.2,831.1z"/>
		<path class="st9" d="M1208.2,890.9c0,0-23.9,40.1-22.1,74.5s14.5,72.5,55.5,105c0,0-44-46-47.8-91.2S1205.7,911.9,1208.2,890.9z"
			/>
		<path class="st7" d="M1274.8,1091.5c0,0-37.5-37.4-33.7-98.6s18.2-129.8-42.1-174.3"/>
		<path class="st7" d="M1244.7,944.1c0,0-38.4-24.6-42.4-49"/>
		<path class="st7" d="M1244.4,949.6c0,0,48.5-34.6,45.4-79.5"/>
		<path class="st8" d="M1094.1,731.2c0,0-86.9,58.4-103.7,119.3c-13.9,50.5-11.6,65,55.2,141.4c0,0,27.6-23.5,35.5-28.8
			s72.2-50.2,46.5-126.4S1090.7,753.2,1094.1,731.2z"/>
		<path class="st10" d="M1092.8,732.8c0,0-2.2,9.4,5.9,30.4s15.8,37,20.5,52.1s15.1,36.2,13.8,60.6s-12.4,46.8-22,57.7
			s-11.6,17.1-52.9,47.2l-12.4,10.2c0,0,52.6-47,56.3-84.1s-20.2-72.9-19.8-108.3S1083.9,738.3,1092.8,732.8z"/>
		<path class="st9" d="M1043.2,785.5c0,0-57.1,53.9-37.4,132.4c3.8,11.9,9.6,23,17.1,33c0,0-37.5-31.1-31-84.5
			S1043.2,785.5,1043.2,785.5z"/>
		<path class="st7" d="M1045.7,991c0,0,12.9-22.6,5.5-69.9s-26.4-108.9,41.6-188.4"/>
		<path class="st7" d="M1053,935.5c0,0,34.9-3,78.8-48.1"/>
		<path class="st7" d="M1051.8,925.2c0,0-53.9-18.1-65.6-58.1"/>
		<path class="st7" d="M1043.1,851.1c0,0-28.9-34.8-26.3-49"/>
		<path class="st7" d="M1056.6,789c0,0-4.4-24.5,1-29.2"/>
		<path class="st7" d="M1053.2,797.6c0,0,28.9-0.2,48.6-28.8"/>
		<path class="st7" d="M1043.3,862.2c0,0,54.2-16.9,73.7-53.7"/>
		<path class="st11" d="M1097.2,1246.6c0,0,6.1,38.7,1.4,81.1s2.8,80.3,2.8,80.3s-7,24.4-14.7,68.4h61
			c17.1-159.2,59.9-251,77.4-315.3c9.2-33.7,21.2-39.1,38.3-98.2s-0.8-119.4,8.5-140.1s88.2-75.2,88.2-75.2l-13.5-9.8
			c0,0-49.4,39.7-58.8,43.8s-9.5-18.3-9.7-46.7l-6.3,0.4l-5.6,26.4l-17.7-30.8l-4.8,5.8l15.5,37.7c0,0,6.9,24.4-2.4,47.1
			s-7.3,59.6-7.3,59.6l-27.5-37l-7.1,7.1c0,0,35.5,48.7,34.7,55.5s1.7,37-13,54.4s-41.3,47.5-50.8,106.8s-62.8,194.3-62.8,194.3
			s-12.4-117.5-5.3-192.1l-8.5-2.2c0,0-5.2,24.4-5.5,48c0,0-33.4-37.4-40.6-56.3l-6.7,5.9c0,0,29.4,52.2,29.9,54.6
			c0,0-44-17-48.9-16.3l-2.2,11.6C1035.2,1215.2,1088.2,1230.6,1097.2,1246.6z"/>
		<path class="st12" d="M1302,891.5c0,0-26.8,19.5-31.8,36.6s1.7,55.6,0.5,79.3s-1.2,34.2-5.1-3.9s-5.8-64.8-0.5-79.9
			S1302,891.5,1302,891.5z"/>
		<path class="st5" d="M1271.6,848.5c0,0,21.1-40.1,39.2-62.3s40.2-83.1-37.8-153.3c0,0-46,36.5-50.9,78.3s20.1,79.9,26.5,91.8
			S1273.9,840.1,1271.6,848.5z"/>
		<path class="st6" d="M1272.9,846.1c0,0-0.1-6.5-15.6-29.9s-18.8-32.5-22.4-40.8s-13.4-27.5-12.6-57.7s27.5-61,27.5-61
			s18.7-20.3,23-22.8c0,0-41,47.6-39,90C1235.9,766.8,1293.6,804.4,1272.9,846.1z"/>
		<path class="st7" d="M1272.9,846.1c0,0,48.3-147.8,0-212.2"/>
		<path class="st7" d="M1292.8,690c0,0-34.8,3.3-54.6-19.9"/>
		<path class="st7" d="M1293.7,698.7c0,0,17.3-15.3,13.2-27.6"/>
		<path class="st7" d="M1293.2,743.9c0,0-40.9,6.3-71.2-32.6"/>
		<path class="st7" d="M1292,756.4c0,0,31.8-13.1,35.1-35.6"/>
		<path class="st7" d="M1285.8,795.3c0,0-23.6,8.3-52.6-23.9"/>
		<path class="st8" d="M1248.9,842.3c0,0-33.4-21.1-41.6-23.8s-137.8-73.7-15.2-176.1c0,0,26.6,39.3,44.7,59.5s34,58.3,22.3,97.5
			S1248.9,842.3,1248.9,842.3z"/>
		<path class="st9" d="M1245.3,817.1c0,0,14.1-53.9-8.2-88c-14.2-21.9-27.2-44.5-38.9-67.8c0,0,34.1,42.8,49,63.5
			C1255.4,736.1,1264.3,774.2,1245.3,817.1z"/>
		<path class="st10" d="M1207.3,818.4c0,0-84.5-94.1-15.2-176.1c0,0-42.9,31.9-51.6,75.4S1174.9,804.7,1207.3,818.4z"/>
		<path class="st8" d="M1248.9,842.3c0,0-5.4-38.9-25.9-65.8s-44.9-62.6-30.8-134.2"/>
		<path class="st7" d="M1221.7,774.8c0,0-41.2,4.7-77-19.8"/>
		<path class="st7" d="M1217.1,768.7c0,0,29.5-29.5,23.4-62.5"/>
		<path class="st7" d="M1190.9,711.9c0,0,26.8-20.6,23.2-38.8"/>
		<path class="st7" d="M1192.2,717.7c0,0-31-0.2-45.2-19.5"/>
		<path class="st8" d="M1544.4,693.7c0,0-69-22.5-139.2,22.3c-55.2,35.2-51,86-51,86s-9.2,43.1-22.7,51.4c0,0,60,7.7,112.2-25.6
			s49.4-85.9,62.4-103.2S1535.8,694.4,1544.4,693.7z"/>
		<path class="st10" d="M1509.2,688.6c0,0-89.3,28.3-113.2,62.7s-13.5,81.2-62,102.2l-2.5-0.2c0,0,9.1-5.4,16.6-27
			c4-11.7,5.5-18.1,7.2-34.1c2.8-24.5,14.7-47.1,33.4-63.2c23.5-20.2,49.6-29.8,59.4-32.4S1489,686.4,1509.2,688.6z"/>
		<path class="st9" d="M1495.9,739.8c0,0-5.6,36-26.8,58.8s-52.4,44.5-101.2,52c0,0,58.7-15.8,87.5-45.3S1485.7,755.1,1495.9,739.8z
			"/>
		<path class="st7" d="M1331.5,853.3c0,0,49.1-12.2,81.6-55.4s61.4-95.3,131.3-104.2"/>
		<path class="st7" d="M1401,812c0,0,29.4,13.9,66.1-3.8"/>
		<path class="st7" d="M1408.6,803.5c0,0-35.8-27-31.5-62.7"/>
		<path class="st7" d="M1438.5,763.2c0,0,42.3-3.1,59.3-18.4"/>
		<path class="st7" d="M1435.6,767.1c0,0-15.6-41,12.5-70.6"/>
		<path class="st8" d="M1024.7,788.5c0,0,104.2-10.3,155.9,26c42.9,30.1,50.3,42.7,47.4,144.2c0,0-36.2-0.5-45.6,0.4
			s-87.7,7.3-116.3-67.8S1041.3,803.2,1024.7,788.5z"/>
		<path class="st10" d="M1026.6,788.9c0,0,7.7,5.8,14.8,27.2s11.4,38.6,17.3,53.2s11.4,37.5,28,55.5s39.4,28.2,53.8,30.5
			s19.8,5.8,70.8,2.7h16.1c0,0-70.5-2.8-97-29s-30.9-69.1-53.7-96.1S1037.1,787.5,1026.6,788.9z"/>
		<path class="st9" d="M1098.4,797.9c0,0,78.4,5.2,113.2,78.3c4.6,11.6,7.3,23.9,7.8,36.3c0,0,9.1-47.9-29.9-84.9
			S1098.4,797.9,1098.4,797.9z"/>
		<path class="st7" d="M1227.4,958c0,0-24.3-9.3-48.8-50.4s-49-100.8-152-118.7"/>
		<path class="st7" d="M1180.7,911.1c0,0,30-48.3,13.6-86.6"/>
		<path class="st7" d="M1140.3,848.5c0,0,0.2-45.2-11-54.5"/>
		<path class="st7" d="M1090.3,809.2c0,0-12.2-21.7-19.3-21.9"/>
		<path class="st7" d="M1098.5,813.6c0,0-22.4,18.2-55.8,8.7"/>
		<path class="st7" d="M1147.2,857.1c0,0-52.5,21.5-91,5.5"/>
		<path class="st13" d="M455.9,951.6c0,0,18.3,12.9-7,33.8s-73.2-9.6-50.7-53.8c15.4-30.2,55.7-71.5,129.8-64.5s113,49.2,144.2,84.6
			s57,83.4,72.5,109.9s91.3,180.8,91.3,180.8s51.5,164.6,62.3,227.6l-38.1-7.9c0,0,12.8-34-8.1-72.8l-3.9-69.2
			c0,0-21.2-129.3-122.7-142.5l1.4-6.7c0,0,69.5,19.1,71.7,27.6c0,0-69.6-191.9-122.3-209l-7.5-8.3c0,0,18.6,4,20,5.5
			c0,0-41-58.5-70.1-67.9l4.7-2.5c0,0-40.8-38.5-96.6-43.3s-94.6,24.1-99.2,31s-25.3,24.3-28.7,52s25,29.6,25,29.6
			S463.6,993.6,455.9,951.6z"/>
		<path class="st14" d="M526.9,867.6c0,0-17.5-68.4-92.7-75.5s-18.8,65.9,30.4,66.8S526.9,867.6,526.9,867.6z"/>
		<path class="st15" d="M444.9,820.1c0,0-29.9,14.3-1.6,34.4c0,0-36.1-15.5-44.1-39.3c-6.7-20.1,11.3-23,19.2-23.3
			s26.7,0.1,39.1,4.8C457.5,796.7,424.9,804.4,444.9,820.1z"/>
		<path class="st14" d="M726.4,1037.7c0,0-28-33.1-6.8-98.5s62.2-49.2,70.2-46.7s21.1,21.4-5.9,69.5S726.4,1037.7,726.4,1037.7z"/>
		<path class="st15" d="M723,929.8c0,0,21.3-18.7,34.6,0.6c0,0,32-11.3,32.2,20.1c0,0,10.2-20,11.5-32.5s-2.7-26.1-16-28.7
			s-36.8-5.6-50.7,17.4C724.7,923.2,723,929.8,723,929.8z"/>
		<path class="st14" d="M671.5,951.8c0,0,31.6-82.5,29.3-120.5S656,811,646.8,845.7S649.6,922.2,671.5,951.8z"/>
		<path class="st15" d="M645.8,849.7c0,0,10.4-17.6,23-7.8c0,0,21.3-13.3,31.1,8.1c0,0,2.9-17.8,0.4-27.4s-10.5-14.5-17.9-13.6
			S654.5,813.2,645.8,849.7z"/>
		<path class="st14" d="M587.7,883.4c0,0,17.9-51.4,27.8-62.4s23.3-75.2-7.8-77.4S534.9,828.1,587.7,883.4z"/>
		<path class="st15" d="M625.3,794.4c0,0-4.6-22-22.6-17.5c0,0-18.5-18.1-32.8,4.1c0,0,6.9-26.2,26.2-36s27.2,5.7,27.2,5.7
			S634.3,773.5,625.3,794.4z"/>
		<path class="st16" d="M587.7,883.4c0,0,1.4-78.9,15-106.5C602.7,776.9,585.5,798.9,587.7,883.4z"/>
		<path class="st16" d="M526.9,867.6c0,0-43-48.1-82-47.5C444.9,820.1,492.9,831,526.9,867.6z"/>
	</g>
</g>
</svg>
