<svg id="Layer_1" data-name="Layer 1" xmlns="http://www.w3.org/2000/svg" xmlns:xlink="http://www.w3.org/1999/xlink" viewBox="0 0 1600 900"><defs><style>.cls-1{fill:none;}.cls-2{clip-path:url(#clip-path);}.cls-3{fill:#ededed;}.cls-4{clip-path:url(#clip-path-3);}.cls-5{opacity:0.3;}.cls-6{fill:#fa9a3a;}.cls-7{fill:#d67233;}.cls-8{fill:#b8512c;}.cls-9{fill:#ffbe54;}.cls-10{opacity:0.15;}</style><clipPath id="clip-path"><rect class="cls-1" x="-2137.69" y="-16.36" width="1600" height="900"/></clipPath><clipPath id="clip-path-3"><rect class="cls-1" width="1600" height="900"/></clipPath></defs><g class="cls-2"><g class="cls-2"><path class="cls-3" d="M44.62,717.76H-83.47c-8.11,0-18.53-2.31-23.24-5.14l-69.93-42c-4.16-2.5-1.39-4.51,6.16-4.51H-51.2c7.55,0,17.45,2,22.14,4.51l78.73,42C55,715.45,52.73,717.76,44.62,717.76Z"/><path class="cls-3" d="M164.42,782.29H25.31c-8.8,0-20.47-2.72-26-6l-82-49.2c-4.86-2.92-2.16-5.27,6-5.27H52.08c8.15,0,19.16,2.35,24.63,5.27l92.3,49.2C175.26,779.57,173.22,782.29,164.42,782.29Z"/><path class="cls-3" d="M109.43,859H-42.76c-9.63,0-22.15-3.25-27.9-7.24l-84.5-58.48c-5-3.44-1.8-6.22,7.06-6.22H-8.19c8.86,0,20.63,2.78,26.32,6.22l96.77,58.48C121.49,855.72,119.06,859,109.43,859Z"/><path class="cls-3" d="M241.14,851.79H95c-9.25,0-22-3.12-28.32-6.94L-26.82,788.7c-5.51-3.3-3.05-6,5.46-6H113c8.5,0,20.38,2.66,26.59,6l105.31,56.15C252,848.67,250.39,851.79,241.14,851.79Z"/></g></g><g class="cls-4"><g class="cls-4"><rect class="cls-5" x="-75.53" y="577.5" width="1797.89" height="45" rx="22.5"/><path class="cls-6" d="M641.32,400.36s-37.71-7.29-37.71-12.81,21.56-32.86,87.82-43.8,134.78,27.34,161,50.58c2.3,6-17.48,22.32-17.48,22.32s19.69,23.24,17.67,31.89-23.19,13.67-23.19,13.67,28.72,41,23.33,48.3-21,0-21,0S849,532.6,846.68,539.44s-15.87,4.1-15.87,4.1,20.24,18.9,19.78,24.14-19.55,8-19.55,8,18.86,21.41,18.4,25.06-12.88,10.47-17.71,11.84-202.94,0-202.94,0-31.39-6.83-32.42-12.64S609.82,577,609.82,577s-15.18-8.54-15.18-11.27,24.84-26.31,24.84-26.31-30-6.84-30.36-13,21.39-18.79,21.39-18.79-13.11-1-13.45-4.44,13.45-35.88,30.35-47.84c0,0-23.46,7.95-24.15,2.26S610.05,414.71,641.32,400.36Z"/><path class="cls-7" d="M747.12,605.4c-33.12-4.1-110-2.39-114.18-3.75s3.45-9.23,48.64-14.7,155.48-4.2,155.5-4.2c-3.33-4-6-7.07-6-7.07a85.18,85.18,0,0,0,11.18-2.49c-11.54-6.42-36.56-8.45-64.41-8.45-32.43,0-121.08,8.2-129,7.52S616,565.43,615.69,562s21-8.54,66.23-16.75c40.66-7.37,138,4,157.09,6.42-4.32-4.51-8.19-8.12-8.19-8.12a29.73,29.73,0,0,0,9.95.17c-14.44-12.68-49.52-21.74-91.58-22.38-44.85-.69-123.15,4.78-124.87.68s11.72-19.14,80-23.92c58.88-4.12,116.44,12.82,131.21,17.57-2.18-3.07-3.81-5.16-3.81-5.16s9.13,4.24,15.84,3c-15.75-20.64-50.16-31.27-106.44-36-56.57-4.76-110.38,16.15-117.69,12.05s1.79-24.15,42.72-35.08,168.57,15.63,168.57,15.63c-3.08-4.72-5.3-7.89-5.3-7.89a75.39,75.39,0,0,0,13-4.57c-10.43-20.05-59.93-26.41-116-28.69s-94.28,18.68-100.72,16.69.92-26.71,23-34.46,190.95,11.47,191,11.49c-2.71-3.58-4.78-6-4.78-6s8.52-7,13.73-13.57l-7.29-.55c-23.91-1.83-82.33-20.51-122.34-23.69s-84.62,5-88.76,0c-2.13-2.58,2.42-11.4,7.34-19.37-24.82,11.57-34,24.47-34,28.08,0,5.52,37.71,12.81,37.71,12.81-31.27,14.35-38.74,51.6-38.05,57.28s24.14-2.26,24.14-2.26c-16.9,12-30.7,44.42-30.35,47.84s13.45,4.44,13.45,4.44-21.73,12.64-21.39,18.79,30.36,13,30.36,13S594.65,563,594.65,565.77,609.83,577,609.83,577s-14.49,17.09-13.45,22.9,32.42,12.64,32.42,12.64,198.11,1.37,202.94,0a52.6,52.6,0,0,0,13-6.73C822.12,607.25,772.75,608.58,747.12,605.4Z"/><path class="cls-8" d="M641.33,400.38S786,391.63,835,416.67C833.11,407.79,724.13,379.56,641.33,400.38Z"/><path class="cls-8" d="M627.42,455.4s128-27.09,202,6.83c0,0-41.69-25.73-118.44-21.89S627.42,455.4,627.42,455.4Z"/><path class="cls-8" d="M610.52,507.68s54.43-17.45,108.39-17,112.83,19.83,112.83,19.83-36.11-21.47-106.48-24.18S610.52,507.68,610.52,507.68Z"/><path class="cls-8" d="M619.49,539.46s131.55-15.93,211.33,4.1c-24.61-8.45-76.12-18-132.24-14.83S619.49,539.46,619.49,539.46Z"/><path class="cls-8" d="M609.83,577s14.94,6.36,49,3.4,77.5-7.74,112.91-8.66,59.34,3.9,59.34,3.9-27.37-11.18-87.85-5.95-91.07,10.37-99.81,9.46S609.83,577,609.83,577Z"/><path class="cls-8" d="M628.8,612.58s191.46,2.07,202.94,0C831.74,612.58,671.7,606.22,628.8,612.58Z"/><path class="cls-9" d="M824.83,377.92c-2.11-1.77-56.32-31.66-103.7-33.48s-70.84,18-62.79,19.82,30.15-6.15,66.82,1.36S788.73,383.85,792,381.8s-8.28-10.25-8.28-10.25S839.78,390.45,824.83,377.92Z"/><path class="cls-9" d="M829.44,429.86s-64.91-14.13-110.53-16.63-77.82,9.12-75.75,14.81,46.14-12.42,93.1-6.67,109.5,29.68,109.27,24.21S840.45,432.14,829.44,429.86Z"/><path class="cls-9" d="M840.59,495.36s-39-20.62-84.51-23.58-104.64,6.83-102.34,2.28,70-17.28,119.35-11.83S850.7,498.2,840.59,495.36Z"/><path class="cls-9" d="M836.1,534.2c-.68-.09-40.7-16.63-84.39-19.37s-106.94,6.38-102.11,1.37,88.54-18.91,136.14-9.34S843.46,535.11,836.1,534.2Z"/><path class="cls-9" d="M842.63,566.32s-57.12-9.8-91.61-7.75-73.82,6.61-95.21,4.79-15.18-9.12,0-9.12a514.21,514.21,0,0,0,66.46-4.1c28.75-3.64,80.49-4.59,101.64,1.83S847.77,565.63,842.63,566.32Z"/><path class="cls-9" d="M842.63,598.67s-39.87,4.78-67.24,3-40.24-2.51-62.55-3-51.74,4.1-48.29,0,65.31-9.8,87.62-8.89,7.81,2.08,36.79-.1S850.76,596.62,842.63,598.67Z"/><path class="cls-6" d="M648.39,248.36s-37.71-7.29-37.71-12.81,21.55-32.86,87.81-43.8,134.79,27.34,161,50.58c2.3,6-17.48,22.32-17.48,22.32s19.69,23.24,17.66,31.89-23.18,13.67-23.18,13.67,28.72,41,23.33,48.3-21,0-21,0,17.25,22.09,15,28.93-15.87,4.1-15.87,4.1,20.24,18.9,19.78,24.14-19.55,8-19.55,8,18.86,21.41,18.4,25.06-12.88,10.47-17.71,11.84-202.94,0-202.94,0-31.39-6.83-32.43-12.64S616.89,425,616.89,425s-15.18-8.54-15.18-11.27,24.83-26.31,24.83-26.31-30-6.84-30.35-13,21.39-18.79,21.39-18.79-13.11-1-13.46-4.44,13.46-35.88,30.36-47.84c0,0-23.46,7.95-24.15,2.26S617.12,262.71,648.39,248.36Z"/><path class="cls-7" d="M754.18,453.4c-33.11-4.1-110-2.39-114.17-3.75s3.45-9.23,48.63-14.7,155.49-4.2,155.51-4.2c-3.33-4-6-7.07-6-7.07a84.84,84.84,0,0,0,11.17-2.49c-11.54-6.42-36.55-8.45-64.41-8.45-32.42,0-121.07,8.2-129,7.52S623.1,413.43,622.76,410s21-8.54,66.23-16.75c40.65-7.37,138,4.05,157.09,6.42-4.32-4.51-8.19-8.12-8.19-8.12a29.67,29.67,0,0,0,9.94.17c-14.43-12.68-49.51-21.74-91.58-22.38-44.84-.69-123.14,4.78-124.87.68s11.73-19.14,80-23.92c58.88-4.12,116.44,12.82,131.2,17.57-2.18-3.07-3.8-5.16-3.8-5.16s9.12,4.24,15.84,3c-15.75-20.64-50.17-31.27-106.45-36-56.57-4.76-110.38,16.15-117.68,12.05s1.78-24.15,42.72-35.08,168.57,15.63,168.57,15.63c-3.08-4.72-5.3-7.89-5.3-7.89a75.7,75.7,0,0,0,13-4.57c-10.44-20.05-59.93-26.41-116-28.69s-94.29,18.68-100.73,16.69.92-26.71,23-34.46,190.94,11.47,191,11.49c-2.72-3.58-4.78-6-4.78-6s8.52-7,13.72-13.57l-7.28-.55c-23.92-1.83-82.33-20.51-122.34-23.69s-84.63,5-88.77,0c-2.12-2.58,2.42-11.4,7.35-19.37-24.82,11.57-34,24.47-34,28.08,0,5.52,37.71,12.81,37.71,12.81-31.27,14.35-38.75,51.6-38.06,57.28s24.15-2.26,24.15-2.26c-16.9,12-30.7,44.42-30.36,47.84s13.46,4.44,13.46,4.44-21.74,12.64-21.39,18.79,30.35,13,30.35,13S601.72,411,601.72,413.77,616.9,425,616.9,425s-14.49,17.09-13.46,22.9,32.43,12.64,32.43,12.64,198.11,1.37,202.94,0a52.77,52.77,0,0,0,13-6.73C829.18,455.25,779.81,456.58,754.18,453.4Z"/><path class="cls-8" d="M648.4,248.38S793.06,239.63,842,264.67C840.18,255.79,731.2,227.56,648.4,248.38Z"/><path class="cls-8" d="M634.49,303.4s128-27.09,202,6.83c0,0-41.69-25.73-118.44-21.89S634.49,303.4,634.49,303.4Z"/><path class="cls-8" d="M617.59,355.68S672,338.23,726,338.69s112.84,19.83,112.84,19.83-36.11-21.47-106.48-24.18S617.59,355.68,617.59,355.68Z"/><path class="cls-8" d="M626.55,387.46s131.55-15.93,211.34,4.1c-24.62-8.45-76.13-18-132.24-14.83S626.55,387.46,626.55,387.46Z"/><path class="cls-8" d="M616.9,425s14.93,6.36,49,3.4,77.49-7.74,112.91-8.66,59.34,3.9,59.34,3.9-27.38-11.18-87.86-5.95-91.06,10.37-99.8,9.46S616.9,425,616.9,425Z"/><path class="cls-8" d="M635.87,460.58s191.45,2.07,202.94,0C838.81,460.58,678.77,454.22,635.87,460.58Z"/><path class="cls-9" d="M831.9,225.92c-2.11-1.77-56.32-31.66-103.7-33.48s-70.84,18-62.79,19.82,30.14-6.15,66.81,1.36S795.8,231.85,799,229.8s-8.28-10.25-8.28-10.25S846.85,238.45,831.9,225.92Z"/><path class="cls-9" d="M836.51,277.86S771.59,263.73,726,261.23s-77.81,9.12-75.74,14.81,46.14-12.42,93.09-6.67,109.51,29.68,109.28,24.21S847.51,280.14,836.51,277.86Z"/><path class="cls-9" d="M847.65,343.36s-39-20.62-84.51-23.58-104.63,6.83-102.33,2.28,70-17.28,119.35-11.83S857.77,346.2,847.65,343.36Z"/><path class="cls-9" d="M843.17,382.2c-.69-.09-40.7-16.63-84.4-19.37s-106.93,6.38-102.1,1.37,88.53-18.91,136.14-9.34S850.53,383.11,843.17,382.2Z"/><path class="cls-9" d="M849.69,414.32s-57.11-9.8-91.61-7.75-73.82,6.61-95.2,4.79-15.18-9.12,0-9.12a514.3,514.3,0,0,0,66.46-4.1c28.74-3.64,80.48-4.59,101.64,1.83S854.84,413.63,849.69,414.32Z"/><path class="cls-9" d="M849.69,446.67s-39.87,4.78-67.23,3-40.25-2.51-62.55-3-51.74,4.1-48.29,0,65.31-9.8,87.61-8.89,7.82,2.08,36.8-.1S857.83,444.62,849.69,446.67Z"/><path class="cls-6" d="M860.38,401.36s-37.71-7.29-37.71-12.81,21.55-32.86,87.81-43.8,134.79,27.34,161,50.58c2.3,6-17.48,22.32-17.48,22.32s19.69,23.24,17.66,31.89-23.18,13.67-23.18,13.67,28.72,41,23.33,48.3-21,0-21,0,17.25,22.09,15,28.93-15.87,4.1-15.87,4.1,20.24,18.9,19.78,24.14-19.55,8-19.55,8,18.86,21.41,18.4,25.06-12.88,10.47-17.71,11.84-202.94,0-202.94,0-31.39-6.83-32.43-12.64S828.88,578,828.88,578s-15.18-8.54-15.18-11.27,24.84-26.31,24.84-26.31-30-6.84-30.36-13,21.39-18.79,21.39-18.79-13.11-1-13.46-4.44,13.46-35.88,30.36-47.84c0,0-23.46,7.95-24.15,2.26S829.11,415.71,860.38,401.36Z"/><path class="cls-7" d="M966.17,606.4c-33.11-4.1-110-2.39-114.17-3.75s3.45-9.23,48.64-14.7,155.48-4.2,155.5-4.2c-3.33-4-6-7.07-6-7.07a84.84,84.84,0,0,0,11.17-2.49c-11.53-6.42-36.55-8.45-64.41-8.45-32.42,0-121.07,8.2-129,7.52S835.1,566.43,834.75,563s21-8.54,66.23-16.75c40.65-7.37,138,4,157.09,6.42-4.32-4.51-8.19-8.12-8.19-8.12a29.71,29.71,0,0,0,9.95.17c-14.44-12.68-49.52-21.74-91.59-22.38-44.84-.69-123.14,4.78-124.87.68s11.73-19.14,80-23.92c58.88-4.12,116.44,12.82,131.2,17.57-2.17-3.07-3.8-5.16-3.8-5.16s9.13,4.24,15.84,3c-15.75-20.64-50.16-31.27-106.44-36-56.58-4.76-110.39,16.15-117.69,12.05s1.78-24.15,42.72-35.08,168.57,15.63,168.57,15.63c-3.08-4.72-5.3-7.89-5.3-7.89a75.7,75.7,0,0,0,13-4.57c-10.43-20.05-59.93-26.41-116-28.69s-94.29,18.68-100.73,16.69.92-26.71,23-34.46,191,11.47,191,11.49c-2.72-3.58-4.78-6-4.78-6s8.52-7,13.72-13.57l-7.28-.55c-23.92-1.83-82.33-20.51-122.34-23.69s-84.63,5-88.77,0c-2.12-2.58,2.42-11.4,7.35-19.37-24.82,11.57-34,24.47-34,28.08,0,5.52,37.71,12.81,37.71,12.81-31.27,14.35-38.75,51.6-38.06,57.28s24.15-2.26,24.15-2.26c-16.9,12-30.7,44.42-30.36,47.84s13.46,4.44,13.46,4.44-21.73,12.64-21.39,18.79,30.36,13,30.36,13S813.71,564,813.71,566.77,828.89,578,828.89,578s-14.49,17.09-13.46,22.9,32.43,12.64,32.43,12.64,198.11,1.37,202.94,0a52.6,52.6,0,0,0,13-6.73C1041.17,608.25,991.8,609.58,966.17,606.4Z"/><path class="cls-8" d="M860.39,401.38s144.66-8.75,193.63,16.29C1052.17,408.79,943.19,380.56,860.39,401.38Z"/><path class="cls-8" d="M846.48,456.4s128-27.09,202,6.83c0,0-41.69-25.73-118.44-21.89S846.48,456.4,846.48,456.4Z"/><path class="cls-8" d="M829.58,508.68S884,491.23,938,491.69s112.84,19.83,112.84,19.83-36.11-21.47-106.48-24.18S829.58,508.68,829.58,508.68Z"/><path class="cls-8" d="M838.55,540.46s131.54-15.93,211.33,4.1c-24.62-8.45-76.13-18-132.24-14.83S838.55,540.46,838.55,540.46Z"/><path class="cls-8" d="M828.89,578s14.93,6.36,49,3.4,77.5-7.74,112.91-8.66,59.34,3.9,59.34,3.9-27.37-11.18-87.86-5.95-91.06,10.37-99.8,9.46S828.89,578,828.89,578Z"/><path class="cls-8" d="M847.86,613.58s191.45,2.07,202.94,0C1050.8,613.58,890.76,607.22,847.86,613.58Z"/><path class="cls-9" d="M1043.89,378.92c-2.11-1.77-56.32-31.66-103.7-33.48s-70.84,18-62.79,19.82,30.14-6.15,66.81,1.36,63.58,18.23,66.8,16.18-8.28-10.25-8.28-10.25S1058.84,391.45,1043.89,378.92Z"/><path class="cls-9" d="M1048.5,430.86S983.58,416.73,938,414.23s-77.81,9.12-75.74,14.81,46.14-12.42,93.09-6.67,109.51,29.68,109.28,24.21S1059.5,433.14,1048.5,430.86Z"/><path class="cls-9" d="M1059.64,496.36s-39-20.62-84.51-23.58-104.63,6.83-102.33,2.28,70-17.28,119.35-11.83S1069.76,499.2,1059.64,496.36Z"/><path class="cls-9" d="M1055.16,535.2c-.68-.09-40.7-16.63-84.4-19.37s-106.93,6.38-102.1,1.37,88.54-18.91,136.14-9.34S1062.52,536.11,1055.16,535.2Z"/><path class="cls-9" d="M1061.68,567.32s-57.11-9.8-91.61-7.75-73.81,6.61-95.2,4.79-15.18-9.12,0-9.12a514.3,514.3,0,0,0,66.46-4.1c28.74-3.64,80.49-4.59,101.64,1.83S1066.83,566.63,1061.68,567.32Z"/><path class="cls-9" d="M1061.68,599.67s-39.86,4.78-67.23,3-40.24-2.51-62.55-3-51.74,4.1-48.29,0,65.31-9.8,87.61-8.89,7.82,2.08,36.8-.1S1069.82,597.62,1061.68,599.67Z"/><path class="cls-6" d="M1070.35,403.36s-37.71-7.29-37.71-12.81,21.56-32.86,87.82-43.8,134.78,27.34,161,50.58c2.3,6-17.48,22.32-17.48,22.32s19.69,23.24,17.67,31.89-23.19,13.67-23.19,13.67,28.72,41,23.33,48.3-21,0-21,0,17.25,22.09,15,28.93-15.87,4.1-15.87,4.1,20.24,18.9,19.78,24.14-19.55,8-19.55,8,18.86,21.41,18.4,25.06-12.88,10.47-17.71,11.84-202.94,0-202.94,0-31.39-6.83-32.42-12.64,13.45-22.9,13.45-22.9-15.18-8.54-15.18-11.27,24.84-26.31,24.84-26.31-30-6.84-30.36-13,21.39-18.79,21.39-18.79-13.11-1-13.45-4.44,13.45-35.88,30.35-47.84c0,0-23.45,7.95-24.14,2.26S1039.08,417.71,1070.35,403.36Z"/><path class="cls-7" d="M1176.15,608.4c-33.12-4.1-110-2.39-114.18-3.75s3.45-9.23,48.64-14.7,155.48-4.2,155.5-4.2c-3.33-4-6-7.07-6-7.07a85.18,85.18,0,0,0,11.18-2.49c-11.54-6.42-36.56-8.45-64.41-8.45-32.43,0-121.08,8.2-129,7.52s-32.77-6.83-33.12-10.25,21-8.54,66.23-16.75c40.66-7.37,138,4,157.09,6.42-4.32-4.51-8.19-8.12-8.19-8.12a29.73,29.73,0,0,0,10,.17c-14.44-12.68-49.52-21.74-91.58-22.38-44.85-.69-123.15,4.78-124.87.68s11.73-19.14,80-23.92c58.88-4.12,116.44,12.82,131.21,17.57-2.18-3.07-3.81-5.16-3.81-5.16s9.13,4.24,15.84,3c-15.75-20.64-50.16-31.27-106.44-36-56.57-4.76-110.38,16.15-117.69,12.05s1.79-24.15,42.72-35.08,168.57,15.63,168.57,15.63c-3.08-4.72-5.3-7.89-5.3-7.89a75.39,75.39,0,0,0,13-4.57c-10.43-20.05-59.93-26.41-116-28.69s-94.28,18.68-100.72,16.69.92-26.71,23-34.46,191,11.47,191,11.49c-2.71-3.58-4.78-6-4.78-6s8.52-7,13.73-13.57l-7.29-.55c-23.91-1.83-82.32-20.51-122.34-23.69s-84.62,5-88.76,0c-2.13-2.58,2.42-11.4,7.34-19.37-24.82,11.57-34,24.47-34,28.08,0,5.52,37.71,12.81,37.71,12.81-31.27,14.35-38.74,51.6-38,57.28s24.14-2.26,24.14-2.26c-16.9,12-30.7,44.42-30.35,47.84s13.45,4.44,13.45,4.44-21.73,12.64-21.39,18.79,30.36,13,30.36,13-24.84,23.57-24.84,26.31S1038.86,580,1038.86,580s-14.49,17.09-13.45,22.9,32.42,12.64,32.42,12.64,198.11,1.37,202.94,0a52.6,52.6,0,0,0,13-6.73C1251.15,610.25,1201.78,611.58,1176.15,608.4Z"/><path class="cls-8" d="M1070.36,403.38S1215,394.63,1264,419.67C1262.14,410.79,1153.16,382.56,1070.36,403.38Z"/><path class="cls-8" d="M1056.45,458.4s128-27.09,202,6.83c0,0-41.69-25.73-118.44-21.89S1056.45,458.4,1056.45,458.4Z"/><path class="cls-8" d="M1039.55,510.68s54.43-17.45,108.39-17,112.83,19.83,112.83,19.83-36.11-21.47-106.48-24.18S1039.55,510.68,1039.55,510.68Z"/><path class="cls-8" d="M1048.52,542.46s131.55-15.93,211.33,4.1c-24.61-8.45-76.12-18-132.24-14.83S1048.52,542.46,1048.52,542.46Z"/><path class="cls-8" d="M1038.86,580s14.94,6.36,49,3.4,77.5-7.74,112.91-8.66,59.34,3.9,59.34,3.9-27.37-11.18-87.85-5.95-91.07,10.37-99.81,9.46S1038.86,580,1038.86,580Z"/><path class="cls-8" d="M1057.83,615.58s191.46,2.07,202.94,0C1260.77,615.58,1100.73,609.22,1057.83,615.58Z"/><path class="cls-9" d="M1253.86,380.92c-2.11-1.77-56.32-31.66-103.7-33.48s-70.84,18-62.79,19.82,30.15-6.15,66.82,1.36,63.57,18.23,66.79,16.18-8.28-10.25-8.28-10.25S1268.81,393.45,1253.86,380.92Z"/><path class="cls-9" d="M1258.47,432.86s-64.91-14.13-110.53-16.63-77.82,9.12-75.75,14.81,46.14-12.42,93.1-6.67,109.5,29.68,109.27,24.21S1269.48,435.14,1258.47,432.86Z"/><path class="cls-9" d="M1269.62,498.36s-39-20.62-84.51-23.58-104.64,6.83-102.34,2.28,70-17.28,119.35-11.83S1279.74,501.2,1269.62,498.36Z"/><path class="cls-9" d="M1265.13,537.2c-.68-.09-40.7-16.63-84.39-19.37s-106.94,6.38-102.11,1.37,88.54-18.91,136.14-9.34S1272.49,538.11,1265.13,537.2Z"/><path class="cls-9" d="M1271.66,569.32s-57.12-9.8-91.61-7.75-73.82,6.61-95.21,4.79-15.18-9.12,0-9.12a514.21,514.21,0,0,0,66.46-4.1c28.75-3.64,80.49-4.59,101.64,1.83S1276.8,568.63,1271.66,569.32Z"/><path class="cls-9" d="M1271.66,601.67s-39.87,4.78-67.24,3-40.24-2.51-62.55-3-51.74,4.1-48.29,0,65.31-9.8,87.62-8.89,7.81,2.08,36.79-.1S1279.79,599.62,1271.66,601.67Z"/><path class="cls-6" d="M1294.46,402.36s-37.71-7.29-37.71-12.81,21.55-32.86,87.81-43.8,134.79,27.34,161,50.58c2.29,6-17.48,22.32-17.48,22.32s19.69,23.24,17.66,31.89-23.18,13.67-23.18,13.67,28.72,41,23.33,48.3-21,0-21,0,17.25,22.09,15,28.93-15.87,4.1-15.87,4.1,20.24,18.9,19.78,24.14-19.55,8-19.55,8,18.86,21.41,18.4,25.06-12.88,10.47-17.71,11.84-202.94,0-202.94,0-31.39-6.83-32.43-12.64S1263,579,1263,579s-15.17-8.54-15.17-11.27,24.83-26.31,24.83-26.31-30-6.84-30.35-13,21.38-18.79,21.38-18.79-13.1-1-13.45-4.44,13.45-35.88,30.36-47.84c0,0-23.46,7.95-24.15,2.26S1263.18,416.71,1294.46,402.36Z"/><path class="cls-7" d="M1400.25,607.4c-33.11-4.1-110-2.39-114.17-3.75s3.45-9.23,48.63-14.7,155.49-4.2,155.51-4.2c-3.33-4-6-7.07-6-7.07a85.21,85.21,0,0,0,11.17-2.49c-11.54-6.42-36.55-8.45-64.41-8.45-32.42,0-121.07,8.2-129,7.52s-32.77-6.83-33.11-10.25,21-8.54,66.23-16.75c40.65-7.37,138,4,157.09,6.42-4.32-4.51-8.19-8.12-8.19-8.12a29.67,29.67,0,0,0,9.94.17c-14.43-12.68-49.51-21.74-91.58-22.38-44.84-.69-123.14,4.78-124.87.68s11.73-19.14,80-23.92c58.88-4.12,116.44,12.82,131.2,17.57-2.18-3.07-3.8-5.16-3.8-5.16s9.12,4.24,15.84,3c-15.75-20.64-50.17-31.27-106.45-36-56.57-4.76-110.38,16.15-117.68,12.05s1.78-24.15,42.72-35.08,168.57,15.63,168.57,15.63c-3.08-4.72-5.3-7.89-5.3-7.89a75.7,75.7,0,0,0,13-4.57c-10.44-20.05-59.93-26.41-116-28.69s-94.29,18.68-100.73,16.69.92-26.71,23-34.46,190.94,11.47,191.05,11.49c-2.72-3.58-4.78-6-4.78-6s8.52-7,13.72-13.57l-7.28-.55c-23.92-1.83-82.33-20.51-122.34-23.69s-84.63,5-88.77,0c-2.12-2.58,2.42-11.4,7.35-19.37-24.82,11.57-34,24.47-34,28.08,0,5.52,37.71,12.81,37.71,12.81-31.28,14.35-38.75,51.6-38.06,57.28s24.15-2.26,24.15-2.26c-16.91,12-30.7,44.42-30.36,47.84s13.45,4.44,13.45,4.44-21.73,12.64-21.38,18.79,30.35,13,30.35,13-24.83,23.57-24.83,26.31S1263,579,1263,579s-14.48,17.09-13.45,22.9,32.43,12.64,32.43,12.64,198.11,1.37,202.94,0a52.94,52.94,0,0,0,13-6.73C1475.25,609.25,1425.88,610.58,1400.25,607.4Z"/><path class="cls-8" d="M1294.47,402.38s144.66-8.75,193.63,16.29C1486.25,409.79,1377.27,381.56,1294.47,402.38Z"/><path class="cls-8" d="M1280.56,457.4s128-27.09,202,6.83c0,0-41.69-25.73-118.44-21.89S1280.56,457.4,1280.56,457.4Z"/><path class="cls-8" d="M1263.65,509.68s54.44-17.45,108.39-17,112.84,19.83,112.84,19.83-36.12-21.47-106.48-24.18S1263.65,509.68,1263.65,509.68Z"/><path class="cls-8" d="M1272.62,541.46s131.55-15.93,211.34,4.1c-24.62-8.45-76.13-18-132.24-14.83S1272.62,541.46,1272.62,541.46Z"/><path class="cls-8" d="M1263,579s14.94,6.36,49,3.4,77.49-7.74,112.91-8.66,59.34,3.9,59.34,3.9-27.38-11.18-87.86-5.95-91.06,10.37-99.8,9.46S1263,579,1263,579Z"/><path class="cls-8" d="M1281.94,614.58s191.45,2.07,202.94,0C1484.88,614.58,1324.83,608.22,1281.94,614.58Z"/><path class="cls-9" d="M1478,379.92c-2.11-1.77-56.32-31.66-103.7-33.48s-70.84,18-62.79,19.82,30.14-6.15,66.81,1.36,63.58,18.23,66.79,16.18-8.27-10.25-8.27-10.25S1492.92,392.45,1478,379.92Z"/><path class="cls-9" d="M1482.58,431.86s-64.92-14.13-110.54-16.63-77.81,9.12-75.74,14.81,46.14-12.42,93.09-6.67,109.51,29.68,109.28,24.21S1493.58,434.14,1482.58,431.86Z"/><path class="cls-9" d="M1493.72,497.36s-39-20.62-84.51-23.58-104.63,6.83-102.33,2.28,70-17.28,119.35-11.83S1503.84,500.2,1493.72,497.36Z"/><path class="cls-9" d="M1489.24,536.2c-.69-.09-40.71-16.63-84.4-19.37s-106.93,6.38-102.1,1.37,88.53-18.91,136.14-9.34S1496.6,537.11,1489.24,536.2Z"/><path class="cls-9" d="M1495.76,568.32s-57.11-9.8-91.61-7.75-73.82,6.61-95.2,4.79-15.18-9.12,0-9.12a514.4,514.4,0,0,0,66.46-4.1c28.74-3.64,80.48-4.59,101.64,1.83S1500.91,567.63,1495.76,568.32Z"/><path class="cls-9" d="M1495.76,600.67s-39.87,4.78-67.23,3-40.25-2.51-62.55-3-51.74,4.1-48.29,0,65.3-9.8,87.61-8.89,7.82,2.08,36.8-.1S1503.9,598.62,1495.76,600.67Z"/><path class="cls-6" d="M1297.49,336.36s-37.72-7.29-37.72-12.81,21.56-32.86,87.82-43.8,134.79,27.34,161,50.58c2.3,6-17.47,22.32-17.47,22.32s19.69,23.24,17.66,31.89-23.18,13.67-23.18,13.67,28.72,41,23.33,48.3-21,0-21,0,17.24,22.09,14.94,28.93-15.86,4.1-15.86,4.1,20.23,18.9,19.77,24.14-19.54,8-19.54,8,18.85,21.41,18.39,25.06-12.87,10.47-17.7,11.84-203,0-203,0-31.38-6.83-32.42-12.64S1266,513,1266,513s-15.17-8.54-15.17-11.27,24.83-26.31,24.83-26.31-30-6.84-30.35-13,21.38-18.79,21.38-18.79-13.1-1-13.45-4.44,13.45-35.88,30.36-47.84c0,0-23.46,7.95-24.15,2.26S1266.21,350.71,1297.49,336.36Z"/><path class="cls-7" d="M1403.28,541.4c-33.11-4.1-110-2.39-114.18-3.75s3.45-9.23,48.64-14.7,155.48-4.2,155.5-4.2c-3.32-4-6-7.07-6-7.07a85.21,85.21,0,0,0,11.17-2.49c-11.54-6.42-36.55-8.45-64.41-8.45-32.42,0-121.07,8.2-129,7.52s-32.77-6.83-33.11-10.25,21-8.54,66.23-16.75c40.65-7.37,138,4.05,157.09,6.42-4.32-4.51-8.19-8.12-8.19-8.12a29.67,29.67,0,0,0,9.94.17c-14.43-12.68-49.52-21.74-91.58-22.38-44.84-.69-123.14,4.78-124.87.68s11.73-19.14,80-23.92c58.88-4.12,116.43,12.82,131.2,17.57-2.18-3.07-3.8-5.16-3.8-5.16s9.12,4.24,15.83,3c-15.75-20.64-50.16-31.27-106.44-36-56.57-4.76-110.38,16.15-117.68,12.05s1.78-24.15,42.71-35.08,168.57,15.63,168.58,15.63c-3.09-4.72-5.3-7.89-5.3-7.89a75.7,75.7,0,0,0,13-4.57c-10.44-20.05-59.94-26.41-116.05-28.69s-94.28,18.68-100.72,16.69.92-26.71,23-34.46,190.94,11.47,191,11.49c-2.71-3.58-4.77-6-4.77-6s8.52-7,13.72-13.57l-7.28-.55c-23.92-1.83-82.33-20.51-122.34-23.69s-84.63,5-88.77,0c-2.13-2.58,2.42-11.4,7.35-19.37-24.83,11.57-34,24.47-34,28.08,0,5.52,37.72,12.81,37.72,12.81-31.28,14.35-38.75,51.6-38.06,57.28s24.15-2.26,24.15-2.26c-16.91,12-30.7,44.42-30.36,47.84s13.45,4.44,13.45,4.44-21.73,12.64-21.38,18.79,30.35,13,30.35,13-24.83,23.57-24.83,26.31S1266,513,1266,513s-14.48,17.09-13.45,22.9S1285,548.58,1285,548.58s198.11,1.37,202.94,0a52.94,52.94,0,0,0,13-6.73C1478.28,543.25,1428.91,544.58,1403.28,541.4Z"/><path class="cls-8" d="M1297.5,336.38s144.65-8.75,193.63,16.29C1489.28,343.79,1380.29,315.56,1297.5,336.38Z"/><path class="cls-8" d="M1283.59,391.4s128-27.09,202,6.83c0,0-41.69-25.73-118.44-21.89S1283.59,391.4,1283.59,391.4Z"/><path class="cls-8" d="M1266.68,443.68s54.44-17.45,108.39-17,112.84,19.83,112.84,19.83-36.12-21.47-106.49-24.18S1266.68,443.68,1266.68,443.68Z"/><path class="cls-8" d="M1275.65,475.46s131.55-15.93,211.34,4.1c-24.62-8.45-76.13-18-132.24-14.83S1275.65,475.46,1275.65,475.46Z"/><path class="cls-8" d="M1266,513s14.94,6.36,49,3.4,77.5-7.74,112.92-8.66,59.34,3.9,59.34,3.9-27.38-11.18-87.86-5.95-91.06,10.37-99.8,9.46S1266,513,1266,513Z"/><path class="cls-8" d="M1285,548.58s191.45,2.07,202.94,0C1487.91,548.58,1327.86,542.22,1285,548.58Z"/><path class="cls-9" d="M1481,313.92c-2.12-1.77-56.32-31.66-103.7-33.48s-70.84,18-62.79,19.82,30.14-6.15,66.81,1.36,63.57,18.23,66.79,16.18-8.28-10.25-8.28-10.25S1496,326.45,1481,313.92Z"/><path class="cls-9" d="M1485.61,365.86s-64.92-14.13-110.54-16.63-77.81,9.12-75.74,14.81,46.14-12.42,93.09-6.67,109.5,29.68,109.27,24.21S1496.61,368.14,1485.61,365.86Z"/><path class="cls-9" d="M1496.75,431.36s-39-20.62-84.51-23.58-104.63,6.83-102.33,2.28,70-17.28,119.35-11.83S1506.87,434.2,1496.75,431.36Z"/><path class="cls-9" d="M1492.27,470.2c-.69-.09-40.71-16.63-84.4-19.37s-106.93,6.38-102.1,1.37,88.53-18.91,136.13-9.34S1499.63,471.11,1492.27,470.2Z"/><path class="cls-9" d="M1498.79,502.32s-57.12-9.8-91.61-7.75-73.82,6.61-95.2,4.79-15.18-9.12,0-9.12a514.17,514.17,0,0,0,66.45-4.1c28.75-3.64,80.49-4.59,101.65,1.83S1503.94,501.63,1498.79,502.32Z"/><path class="cls-9" d="M1498.79,534.67s-39.87,4.78-67.23,3-40.25-2.51-62.55-3-51.75,4.1-48.3,0,65.31-9.8,87.62-8.89,7.82,2.08,36.79-.1S1506.92,532.62,1498.79,534.67Z"/><path class="cls-6" d="M1513.52,398.36s-37.72-7.29-37.72-12.81,21.56-32.86,87.82-43.8,134.79,27.34,161,50.58c2.3,6-17.47,22.32-17.47,22.32s19.68,23.24,17.66,31.89-23.18,13.67-23.18,13.67,28.72,41,23.33,48.3-21,0-21,0,17.24,22.09,14.94,28.93-15.86,4.1-15.86,4.1,20.23,18.9,19.77,24.14-19.54,8-19.54,8,18.85,21.41,18.39,25.06-12.87,10.47-17.7,11.84-203,0-203,0-31.39-6.83-32.42-12.64S1482,575,1482,575s-15.18-8.54-15.18-11.27,24.84-26.31,24.84-26.31-30-6.84-30.35-13,21.38-18.79,21.38-18.79-13.11-1-13.45-4.44,13.45-35.88,30.35-47.84c0,0-23.45,7.95-24.14,2.26S1482.24,412.71,1513.52,398.36Z"/><path class="cls-7" d="M1619.31,603.4c-33.11-4.1-110-2.39-114.18-3.75s3.45-9.23,48.64-14.7,155.48-4.2,155.5-4.2c-3.32-4-6-7.07-6-7.07a85.21,85.21,0,0,0,11.17-2.49c-11.54-6.42-36.55-8.45-64.41-8.45-32.42,0-121.08,8.2-129,7.52s-32.77-6.83-33.11-10.25,21-8.54,66.23-16.75c40.65-7.37,138,4,157.09,6.42-4.32-4.51-8.19-8.12-8.19-8.12a29.67,29.67,0,0,0,9.94.17c-14.44-12.68-49.52-21.74-91.58-22.38-44.84-.69-123.15,4.78-124.87.68s11.73-19.14,80-23.92c58.88-4.12,116.43,12.82,131.2,17.57-2.18-3.07-3.8-5.16-3.8-5.16s9.12,4.24,15.83,3c-15.75-20.64-50.16-31.27-106.44-36-56.57-4.76-110.38,16.15-117.68,12.05s1.78-24.15,42.71-35.08,168.57,15.63,168.58,15.63c-3.09-4.72-5.3-7.89-5.3-7.89a75.7,75.7,0,0,0,13-4.57c-10.44-20.05-59.94-26.41-116.05-28.69s-94.28,18.68-100.72,16.69.92-26.71,23-34.46,190.94,11.47,191,11.49c-2.71-3.58-4.77-6-4.77-6s8.52-7,13.72-13.57l-7.29-.55c-23.91-1.83-82.32-20.51-122.34-23.69s-84.62,5-88.76,0c-2.13-2.58,2.42-11.4,7.34-19.37-24.82,11.57-34,24.47-34,28.08,0,5.52,37.72,12.81,37.72,12.81-31.28,14.35-38.75,51.6-38.06,57.28s24.14-2.26,24.14-2.26c-16.9,12-30.7,44.42-30.35,47.84s13.45,4.44,13.45,4.44-21.73,12.64-21.38,18.79,30.35,13,30.35,13-24.83,23.57-24.83,26.31S1482,575,1482,575s-14.49,17.09-13.45,22.9S1501,610.58,1501,610.58s198.12,1.37,203,0a52.94,52.94,0,0,0,13-6.73C1694.31,605.25,1644.94,606.58,1619.31,603.4Z"/><path class="cls-8" d="M1513.53,398.38s144.65-8.75,193.63,16.29C1705.31,405.79,1596.32,377.56,1513.53,398.38Z"/><path class="cls-8" d="M1499.61,453.4s128-27.09,202,6.83c0,0-41.69-25.73-118.44-21.89S1499.61,453.4,1499.61,453.4Z"/><path class="cls-8" d="M1482.71,505.68s54.44-17.45,108.39-17,112.84,19.83,112.84,19.83-36.12-21.47-106.49-24.18S1482.71,505.68,1482.71,505.68Z"/><path class="cls-8" d="M1491.68,537.46s131.55-15.93,211.34,4.1c-24.62-8.45-76.13-18-132.24-14.83S1491.68,537.46,1491.68,537.46Z"/><path class="cls-8" d="M1482,575s14.94,6.36,49,3.4,77.5-7.74,112.92-8.66,59.34,3.9,59.34,3.9-27.38-11.18-87.86-5.95-91.06,10.37-99.8,9.46S1482,575,1482,575Z"/><path class="cls-8" d="M1501,610.58s191.46,2.07,203,0C1703.94,610.58,1543.89,604.22,1501,610.58Z"/><path class="cls-9" d="M1697,375.92c-2.12-1.77-56.32-31.66-103.71-33.48s-70.83,18-62.79,19.82,30.15-6.15,66.82,1.36,63.57,18.23,66.79,16.18-8.28-10.25-8.28-10.25S1712,388.45,1697,375.92Z"/><path class="cls-9" d="M1701.64,427.86s-64.92-14.13-110.54-16.63-77.81,9.12-75.74,14.81,46.14-12.42,93.09-6.67,109.5,29.68,109.27,24.21S1712.64,430.14,1701.64,427.86Z"/><path class="cls-9" d="M1712.78,493.36s-39-20.62-84.51-23.58-104.63,6.83-102.33,2.28,70-17.28,119.35-11.83S1722.9,496.2,1712.78,493.36Z"/><path class="cls-9" d="M1708.3,532.2c-.69-.09-40.71-16.63-84.4-19.37s-106.93,6.38-102.1,1.37,88.53-18.91,136.13-9.34S1715.65,533.11,1708.3,532.2Z"/><path class="cls-9" d="M1714.82,564.32s-57.12-9.8-91.61-7.75-73.82,6.61-95.21,4.79-15.17-9.12,0-9.12a514.21,514.21,0,0,0,66.46-4.1c28.75-3.64,80.49-4.59,101.65,1.83S1720,563.63,1714.82,564.32Z"/><path class="cls-9" d="M1714.82,596.67s-39.87,4.78-67.23,3-40.25-2.51-62.55-3-51.75,4.1-48.3,0,65.31-9.8,87.62-8.89,7.82,2.08,36.79-.1S1723,594.62,1714.82,596.67Z"/><path class="cls-6" d="M419,396.35s-37.72-7.29-37.72-12.81,21.56-32.86,87.82-43.8,134.79,27.34,161,50.57c2.3,6-17.48,22.33-17.48,22.33s19.69,23.24,17.67,31.89S607.1,458.2,607.1,458.2s28.72,41,23.33,48.29-21,0-21,0,17.25,22.1,15,28.93-15.87,4.11-15.87,4.11,20.24,18.9,19.78,24.14-19.55,8-19.55,8,18.86,21.41,18.4,25.05-12.88,10.48-17.71,11.85-202.94,0-202.94,0-31.39-6.83-32.42-12.64S387.49,573,387.49,573s-15.18-8.54-15.18-11.27,24.84-26.32,24.84-26.32-30-6.83-30.36-13,21.39-18.79,21.39-18.79-13.11-1-13.45-4.45,13.45-35.87,30.35-47.83c0,0-23.45,7.95-24.14,2.26S387.72,410.7,419,396.35Z"/><path class="cls-7" d="M524.79,601.39c-33.12-4.1-110-2.39-114.18-3.76s3.45-9.22,48.64-14.69,155.48-4.21,155.5-4.21c-3.33-4-6-7.07-6-7.07a84.25,84.25,0,0,0,11.18-2.48c-11.54-6.42-36.56-8.45-64.41-8.45-32.43,0-121.08,8.2-129,7.52s-32.77-6.84-33.12-10.25,21.05-8.55,66.23-16.75c40.66-7.38,138,4,157.09,6.42-4.31-4.51-8.19-8.13-8.19-8.13a29.9,29.9,0,0,0,10,.18C604,527,568.92,518,526.86,517.33,482,516.65,403.71,522.12,402,518s11.73-19.14,80-23.92c58.87-4.13,116.43,12.82,131.2,17.57-2.18-3.07-3.81-5.16-3.81-5.16s9.13,4.24,15.84,3c-15.75-20.63-50.16-31.26-106.44-36-56.57-4.76-110.38,16.15-117.68,12.05s1.78-24.15,42.71-35.09,168.57,15.64,168.57,15.64c-3.08-4.73-5.3-7.89-5.3-7.89a75.64,75.64,0,0,0,13-4.57c-10.44-20.06-59.94-26.41-116-28.69s-94.28,18.68-100.72,16.69.92-26.71,23-34.46,190.95,11.47,191,11.48c-2.71-3.57-4.78-6-4.78-6s8.52-7,13.73-13.57l-7.29-.56c-23.91-1.82-82.32-20.5-122.34-23.69s-84.62,5-88.76,0c-2.13-2.57,2.42-11.39,7.34-19.36-24.82,11.57-34,24.47-34,28.08,0,5.52,37.72,12.81,37.72,12.81C387.73,410.72,380.26,448,381,453.65s24.14-2.27,24.14-2.27c-16.9,12-30.7,44.43-30.35,47.84s13.45,4.45,13.45,4.45-21.73,12.64-21.39,18.79,30.36,13,30.36,13S372.32,559,372.32,561.76,387.5,573,387.5,573s-14.49,17.09-13.45,22.9,32.42,12.64,32.42,12.64,198.12,1.37,202.94,0a52.81,52.81,0,0,0,13-6.73C599.79,603.24,550.42,604.57,524.79,601.39Z"/><path class="cls-8" d="M419,396.37s144.65-8.75,193.62,16.29C610.78,403.77,501.8,375.55,419,396.37Z"/><path class="cls-8" d="M405.09,451.38s128-27.08,202,6.84c0,0-41.69-25.73-118.44-21.89S405.09,451.38,405.09,451.38Z"/><path class="cls-8" d="M388.19,503.67s54.43-17.45,108.39-17,112.83,19.83,112.83,19.83S573.3,485,502.93,482.33,388.19,503.67,388.19,503.67Z"/><path class="cls-8" d="M397.16,535.44s131.55-15.92,211.33,4.1c-24.61-8.44-76.12-18-132.23-14.82S397.16,535.44,397.16,535.44Z"/><path class="cls-8" d="M387.5,573s14.94,6.36,49,3.4,77.5-7.75,112.91-8.66,59.34,3.89,59.34,3.89-27.37-11.18-87.85-5.94-91.07,10.37-99.8,9.46S387.5,573,387.5,573Z"/><path class="cls-8" d="M406.47,608.57s191.46,2.07,202.94,0C609.41,608.57,449.37,602.21,406.47,608.57Z"/><path class="cls-9" d="M602.51,373.91c-2.12-1.77-56.32-31.66-103.71-33.48S428,358.42,436,360.24s30.15-6.15,66.82,1.37,63.57,18.23,66.79,16.18-8.28-10.26-8.28-10.26S617.45,386.44,602.51,373.91Z"/><path class="cls-9" d="M607.11,425.85s-64.91-14.13-110.53-16.63-77.81,9.11-75.74,14.81,46.13-12.43,93.09-6.67S623.43,447,623.2,441.57,618.12,428.13,607.11,425.85Z"/><path class="cls-9" d="M618.26,491.35s-39-20.62-84.51-23.58-104.64,6.83-102.34,2.28,70-17.28,119.35-11.83S628.38,494.19,618.26,491.35Z"/><path class="cls-9" d="M613.77,530.19c-.68-.09-40.7-16.63-84.39-19.37s-106.94,6.38-102.11,1.37,88.54-18.91,136.14-9.34S621.13,531.1,613.77,530.19Z"/><path class="cls-9" d="M620.3,562.31s-57.12-9.8-91.61-7.75-73.82,6.61-95.21,4.78-15.17-9.11,0-9.11a514.21,514.21,0,0,0,66.46-4.1c28.75-3.64,80.49-4.59,101.65,1.82S625.44,561.62,620.3,562.31Z"/><path class="cls-9" d="M620.3,594.65s-39.87,4.79-67.24,3-40.24-2.5-62.55-3-51.74,4.1-48.29,0,65.31-9.79,87.62-8.88,7.82,2.08,36.79-.1S628.43,592.6,620.3,594.65Z"/><path class="cls-6" d="M203.53,399s-37.72-7.29-37.72-12.81,21.56-32.86,87.82-43.8,134.79,27.34,161,50.57c2.3,6-17.47,22.33-17.47,22.33s19.68,23.24,17.66,31.89-23.18,13.67-23.18,13.67,28.72,41,23.33,48.29-21,0-21,0,17.24,22.1,14.94,28.93S393,542.18,393,542.18s20.23,18.9,19.77,24.14-19.54,8-19.54,8,18.85,21.41,18.39,25.05-12.87,10.48-17.7,11.85-202.95,0-202.95,0-31.39-6.83-32.42-12.64S172,575.66,172,575.66s-15.18-8.54-15.18-11.27,24.84-26.32,24.84-26.32-30-6.83-30.35-13,21.38-18.79,21.38-18.79-13.11-1-13.45-4.45S172.71,466,189.61,454c0,0-23.45,8-24.14,2.26S172.25,413.35,203.53,399Z"/><path class="cls-7" d="M309.32,604c-33.11-4.1-110-2.39-114.18-3.76s3.45-9.22,48.64-14.69,155.48-4.21,155.5-4.21c-3.32-4-6-7.07-6-7.07a84.28,84.28,0,0,0,11.17-2.48c-11.54-6.42-36.55-8.45-64.41-8.45-32.42,0-121.07,8.2-129,7.52s-32.77-6.84-33.11-10.25,21-8.55,66.23-16.75c40.65-7.38,138,4.05,157.09,6.42-4.32-4.51-8.19-8.13-8.19-8.13a29.83,29.83,0,0,0,9.94.18c-14.44-12.69-49.52-21.75-91.58-22.39-44.84-.68-123.15,4.79-124.87.69s11.73-19.14,80-23.92c58.88-4.13,116.43,12.82,131.2,17.57-2.18-3.07-3.8-5.16-3.8-5.16s9.12,4.24,15.83,3c-15.75-20.63-50.16-31.26-106.44-36-56.57-4.76-110.38,16.15-117.68,12s1.78-24.15,42.71-35.09S396.94,468.76,397,468.76c-3.09-4.73-5.3-7.89-5.3-7.89a75.7,75.7,0,0,0,13-4.57c-10.44-20.06-59.94-26.41-116-28.69S194.34,446.29,187.9,444.3s.92-26.71,23-34.46,190.94,11.47,191,11.48c-2.71-3.57-4.77-6-4.77-6s8.52-7,13.72-13.57l-7.28-.56c-23.92-1.82-82.33-20.5-122.35-23.69s-84.62,5-88.76,0c-2.13-2.57,2.42-11.39,7.34-19.36-24.82,11.57-34,24.47-34,28.08,0,5.52,37.72,12.81,37.72,12.81-31.28,14.35-38.75,51.6-38.06,57.28S189.62,454,189.62,454c-16.9,12-30.7,44.43-30.35,47.84s13.45,4.45,13.45,4.45S151,519,151.34,525.11s30.35,13,30.35,13-24.83,23.58-24.83,26.32S172,575.68,172,575.68s-14.48,17.09-13.45,22.9S191,611.22,191,611.22s198.12,1.37,203,0a52.94,52.94,0,0,0,13-6.73C384.32,605.89,335,607.22,309.32,604Z"/><path class="cls-8" d="M203.54,399s144.65-8.75,193.63,16.29C395.32,406.42,286.33,378.2,203.54,399Z"/><path class="cls-8" d="M189.62,454s128-27.08,202,6.84c0,0-41.69-25.73-118.44-21.89S189.62,454,189.62,454Z"/><path class="cls-8" d="M172.72,506.32s54.44-17.45,108.39-17S394,509.16,394,509.16,357.83,487.69,287.46,485,172.72,506.32,172.72,506.32Z"/><path class="cls-8" d="M181.69,538.09s131.55-15.92,211.34,4.1c-24.62-8.44-76.13-18-132.24-14.82S181.69,538.09,181.69,538.09Z"/><path class="cls-8" d="M172,575.68s14.94,6.36,49,3.4,77.5-7.75,112.92-8.66,59.34,3.89,59.34,3.89-27.38-11.18-87.86-5.94-91.06,10.37-99.8,9.46S172,575.68,172,575.68Z"/><path class="cls-8" d="M191,611.22s191.46,2.07,203,0C394,611.22,233.9,604.86,191,611.22Z"/><path class="cls-9" d="M387,376.56c-2.12-1.77-56.32-31.66-103.71-33.48s-70.83,18-62.79,19.81,30.15-6.15,66.82,1.37,63.57,18.23,66.79,16.18-8.28-10.26-8.28-10.26S402,389.09,387,376.56Z"/><path class="cls-9" d="M391.65,428.5s-64.92-14.13-110.54-16.63S203.3,421,205.37,426.68s46.14-12.43,93.09-6.67S408,449.69,407.73,444.22,402.65,430.78,391.65,428.5Z"/><path class="cls-9" d="M402.79,494s-39-20.62-84.51-23.58S213.65,477.25,216,472.7s70-17.28,119.35-11.83S412.91,496.84,402.79,494Z"/><path class="cls-9" d="M398.31,532.84c-.69-.09-40.71-16.63-84.4-19.37s-106.93,6.38-102.1,1.37,88.53-18.91,136.13-9.34S405.66,533.75,398.31,532.84Z"/><path class="cls-9" d="M404.83,565s-57.12-9.8-91.61-7.75S239.4,563.82,218,562s-15.18-9.11,0-9.11a514.17,514.17,0,0,0,66.45-4.1c28.75-3.64,80.49-4.59,101.65,1.82S410,564.27,404.83,565Z"/><path class="cls-9" d="M404.83,597.3s-39.87,4.79-67.23,3-40.25-2.5-62.55-3-51.75,4.1-48.3,0,65.31-9.79,87.62-8.88,7.82,2.08,36.79-.1S413,595.25,404.83,597.3Z"/><path class="cls-6" d="M207.57,296s-37.72-7.29-37.72-12.81,21.56-32.86,87.82-43.8,134.79,27.34,161,50.57c2.3,6-17.48,22.33-17.48,22.33s19.69,23.24,17.67,31.89-23.19,13.67-23.19,13.67,28.72,41,23.33,48.29-21,0-21,0,17.25,22.1,14.95,28.93-15.87,4.11-15.87,4.11,20.24,18.9,19.78,24.14-19.55,8-19.55,8,18.86,21.41,18.4,25.05S402.8,506.83,398,508.2s-202.94,0-202.94,0-31.39-6.83-32.42-12.64,13.45-22.9,13.45-22.9-15.18-8.54-15.18-11.27,24.84-26.32,24.84-26.32-30-6.83-30.36-13,21.39-18.79,21.39-18.79-13.11-1-13.45-4.45S176.75,363,193.65,351c0,0-23.45,8-24.14,2.26S176.29,310.35,207.57,296Z"/><path class="cls-7" d="M313.36,501c-33.12-4.1-110-2.39-114.18-3.76s3.45-9.22,48.64-14.69,155.48-4.21,155.5-4.21c-3.33-4-6-7.07-6-7.07a84.25,84.25,0,0,0,11.18-2.48c-11.54-6.42-36.56-8.45-64.41-8.45-32.43,0-121.08,8.2-129,7.52s-32.77-6.84-33.12-10.25,21-8.55,66.23-16.75c40.66-7.38,138,4.05,157.09,6.42-4.31-4.51-8.19-8.13-8.19-8.13a29.9,29.9,0,0,0,9.95.18c-14.44-12.69-49.52-21.75-91.58-22.39-44.84-.68-123.15,4.79-124.87.69s11.73-19.14,80-23.92c58.87-4.13,116.43,12.82,131.2,17.57-2.18-3.07-3.81-5.16-3.81-5.16s9.13,4.24,15.84,3c-15.75-20.63-50.16-31.26-106.44-36-56.57-4.76-110.38,16.15-117.68,12s1.78-24.15,42.71-35.09S401,365.76,401,365.76c-3.08-4.73-5.3-7.89-5.3-7.89a75.64,75.64,0,0,0,13-4.57c-10.44-20.06-59.94-26.41-116-28.69s-94.28,18.68-100.72,16.69.92-26.71,23-34.46,191,11.47,191.05,11.48c-2.71-3.57-4.78-6-4.78-6s8.52-7,13.73-13.57l-7.29-.56c-23.91-1.82-82.32-20.5-122.34-23.69s-84.62,5-88.76,0c-2.13-2.57,2.42-11.39,7.34-19.36-24.82,11.57-34,24.47-34,28.08,0,5.52,37.72,12.81,37.72,12.81-31.28,14.35-38.75,51.6-38.06,57.28S193.66,351,193.66,351c-16.9,12-30.7,44.43-30.35,47.84s13.45,4.45,13.45,4.45S155,416,155.37,422.11s30.36,13,30.36,13-24.84,23.58-24.84,26.32,15.18,11.27,15.18,11.27-14.49,17.09-13.45,22.9S195,508.22,195,508.22s198.12,1.37,202.94,0a52.81,52.81,0,0,0,13-6.73C388.36,502.89,339,504.22,313.36,501Z"/><path class="cls-8" d="M207.58,296s144.65-8.75,193.62,16.29C399.35,303.42,290.37,275.2,207.58,296Z"/><path class="cls-8" d="M193.66,351s128-27.08,202,6.84c0,0-41.69-25.73-118.44-21.89S193.66,351,193.66,351Z"/><path class="cls-8" d="M176.76,403.32s54.43-17.45,108.39-17S398,406.16,398,406.16,361.87,384.69,291.5,382,176.76,403.32,176.76,403.32Z"/><path class="cls-8" d="M185.73,435.09s131.55-15.92,211.33,4.1c-24.61-8.44-76.12-18-132.23-14.82S185.73,435.09,185.73,435.09Z"/><path class="cls-8" d="M176.07,472.68s14.94,6.36,49,3.4,77.5-7.75,112.91-8.66,59.34,3.89,59.34,3.89-27.37-11.18-87.85-5.94-91.07,10.37-99.81,9.46S176.07,472.68,176.07,472.68Z"/><path class="cls-8" d="M195,508.22s191.46,2.07,202.94,0C398,508.22,237.94,501.86,195,508.22Z"/><path class="cls-9" d="M391.08,273.56c-2.12-1.77-56.33-31.66-103.71-33.48s-70.84,18-62.79,19.81,30.15-6.15,66.82,1.37,63.57,18.23,66.79,16.18-8.28-10.26-8.28-10.26S406,286.09,391.08,273.56Z"/><path class="cls-9" d="M395.68,325.5s-64.91-14.13-110.53-16.63S207.34,318,209.4,323.68s46.14-12.43,93.1-6.67S412,346.69,411.77,341.22,406.69,327.78,395.68,325.5Z"/><path class="cls-9" d="M406.83,391s-39-20.62-84.51-23.58S217.68,374.25,220,369.7s70-17.28,119.35-11.83S417,393.84,406.83,391Z"/><path class="cls-9" d="M402.34,429.84c-.68-.09-40.7-16.63-84.39-19.37S211,416.85,215.84,411.84,304.38,392.93,352,402.5,409.7,430.75,402.34,429.84Z"/><path class="cls-9" d="M408.87,462s-57.12-9.8-91.61-7.75-73.82,6.61-95.21,4.78-15.17-9.11,0-9.11a514.21,514.21,0,0,0,66.46-4.1c28.75-3.64,80.49-4.59,101.65,1.82S414,461.27,408.87,462Z"/><path class="cls-9" d="M408.87,494.3s-39.87,4.79-67.24,3-40.24-2.5-62.55-3-51.74,4.1-48.29,0,65.31-9.79,87.62-8.88,7.82,2.08,36.79-.1S417,492.25,408.87,494.3Z"/><path class="cls-6" d="M-17.61,398.17s-37.72-7.29-37.72-12.81,21.56-32.86,87.82-43.79,134.79,27.33,161,50.57c2.3,6-17.48,22.32-17.48,22.32s19.69,23.24,17.67,31.89S170.5,460,170.5,460s28.72,41,23.32,48.3-21,0-21,0,17.24,22.09,14.94,28.93-15.86,4.1-15.86,4.1,20.23,18.91,19.77,24.15-19.54,8-19.54,8S191,594.88,190.5,598.53,177.62,609,172.8,610.37s-203,0-203,0-31.39-6.83-32.42-12.64,13.45-22.89,13.45-22.89-15.18-8.55-15.18-11.28,24.84-26.31,24.84-26.31-30-6.84-30.36-13,21.39-18.79,21.39-18.79-13.11-1-13.45-4.44,13.45-35.88,30.35-47.84c0,0-23.45,7.95-24.14,2.27S-48.89,412.53-17.61,398.17Z"/><path class="cls-7" d="M88.18,603.22c-33.12-4.1-110-2.4-114.18-3.76s3.45-9.23,48.64-14.7,155.48-4.2,155.5-4.2c-3.33-4-6-7.07-6-7.07A85.21,85.21,0,0,0,183.29,571c-11.54-6.42-36.55-8.45-64.41-8.45-32.43,0-121.08,8.2-129,7.52s-32.77-6.83-33.11-10.25,21-8.54,66.22-16.74c40.66-7.38,138,4,157.09,6.41-4.31-4.51-8.18-8.12-8.18-8.12a29.67,29.67,0,0,0,9.94.17c-14.44-12.68-49.52-21.74-91.58-22.38-44.84-.69-123.15,4.78-124.87.68s11.73-19.14,80-23.92c58.88-4.12,116.43,12.82,131.2,17.57-2.18-3.07-3.8-5.15-3.8-5.15s9.12,4.23,15.83,3c-15.75-20.64-50.16-31.27-106.44-36-56.57-4.76-110.38,16.15-117.68,12.05s1.78-24.15,42.71-35.08S175.8,467.93,175.8,467.93c-3.08-4.72-5.29-7.89-5.29-7.89a74.71,74.71,0,0,0,13-4.57c-10.44-20.05-59.94-26.41-116-28.69s-94.28,18.68-100.72,16.7.92-26.72,23-34.47,190.94,11.48,191,11.49c-2.71-3.58-4.78-6-4.78-6s8.52-7,13.73-13.57l-7.29-.55c-23.91-1.82-82.32-20.5-122.34-23.69s-84.62,5-88.76,0c-2.13-2.58,2.42-11.4,7.34-19.37-24.82,11.57-34,24.47-34,28.08,0,5.52,37.72,12.81,37.72,12.81-31.28,14.36-38.75,51.6-38.06,57.28s24.14-2.26,24.14-2.26c-16.9,12-30.7,44.42-30.35,47.84s13.45,4.44,13.45,4.44-21.73,12.64-21.38,18.79,30.35,13,30.35,13-24.84,23.57-24.84,26.31,15.18,11.27,15.18,11.27-14.49,17.09-13.45,22.9,32.42,12.64,32.42,12.64,198.12,1.37,203,0a52.94,52.94,0,0,0,13-6.73C163.18,605.06,113.81,606.39,88.18,603.22Z"/><path class="cls-8" d="M-17.6,398.19S127.05,389.44,176,414.48C174.18,405.6,65.19,377.37-17.6,398.19Z"/><path class="cls-8" d="M-31.52,453.21s128-27.09,202,6.83c0,0-41.7-25.72-118.44-21.89S-31.52,453.21-31.52,453.21Z"/><path class="cls-8" d="M-48.42,505.49S6,488,60,488.5s112.84,19.84,112.84,19.84-36.12-21.48-106.49-24.19S-48.42,505.49-48.42,505.49Z"/><path class="cls-8" d="M-39.45,537.27s131.55-15.93,211.34,4.1c-24.62-8.45-76.13-18-132.24-14.83S-39.45,537.27-39.45,537.27Z"/><path class="cls-8" d="M-49.11,574.85s14.94,6.36,49,3.4,77.5-7.74,112.92-8.65,59.34,3.89,59.34,3.89-27.38-11.18-87.86-5.94S-6.81,577.91-15.54,577-49.11,574.85-49.11,574.85Z"/><path class="cls-8" d="M-30.14,610.39s191.46,2.07,203,0C172.81,610.39,12.76,604-30.14,610.39Z"/><path class="cls-9" d="M170.51,427.68S105.59,413.55,60,411s-77.81,9.12-75.74,14.81,46.13-12.42,93.09-6.67,109.5,29.68,109.27,24.21S181.51,430,170.51,427.68Z"/><path class="cls-9" d="M181.65,493.17s-39-20.62-84.51-23.58S-7.5,476.42-5.2,471.87,64.85,454.59,114.15,460,191.77,496,181.65,493.17Z"/><path class="cls-9" d="M177.16,532c-.68-.09-40.7-16.63-84.39-19.36S-14.16,519-9.34,514,79.2,495.1,126.8,504.67,184.52,532.92,177.16,532Z"/><path class="cls-9" d="M183.69,564.13s-57.12-9.8-91.61-7.75S18.26,563-3.13,561.17s-15.17-9.11,0-9.11A514.6,514.6,0,0,0,63.33,548c28.75-3.64,80.49-4.59,101.65,1.83S188.83,563.45,183.69,564.13Z"/><path class="cls-9" d="M183.69,596.48s-39.87,4.78-67.24,3-40.24-2.51-62.55-3-51.74,4.1-48.29,0,65.31-9.8,87.62-8.89,7.82,2.09,36.79-.09S191.82,594.43,183.69,596.48Z"/><path class="cls-10" d="M1495,412.48a81.09,81.09,0,0,0,6.85-7.38h0c2.72-3.42,4.53-6.7,3.74-8.77-1.41-1.26-3-2.55-4.6-3.88,3.84-2.12,7.09-4.77,7.82-7.91,2-8.59-17.36-31.52-17.65-31.87,0,0,8.53-7.05,13.72-13.57h0c2.73-3.42,4.54-6.7,3.75-8.77-26.21-23.24-94.74-61.51-161-50.58s-87.82,38.28-87.82,43.8a1.5,1.5,0,0,0,.12.54c2.18,5.39,36.85,12.14,37.57,12.29-22,10.09-32.17,31.46-36.06,45.26l-.4.45c-33.09-21.34-87.54-44.08-140.54-35.34-39.85,6.58-63.53,19.09-76.07,29.22-33.45-20-84.31-39.4-133.91-31.22-21.66,3.58-38.54,8.91-51.46,14.65a6.91,6.91,0,0,0,.81-.89c5.34-7.22-22.77-47.5-23.32-48.28a75.45,75.45,0,0,0,13-4.57h0c4.8-2.28,9.28-5.35,10.16-9.11,2-8.59-17.35-31.52-17.65-31.87,0,0,8.53-7.05,13.72-13.57h0c2.72-3.42,4.54-6.7,3.75-8.77-26.22-23.24-94.75-61.51-161-50.58s-87.81,38.28-87.81,43.8a1.49,1.49,0,0,0,.11.54c2.18,5.39,36.85,12.14,37.58,12.29-31.26,14.36-38.73,51.58-38,57.26a1.59,1.59,0,0,0,.14.51c1.93,4.57,22.67-2.3,23.95-2.73-16.87,12-30.64,44.38-30.3,47.8a1.53,1.53,0,0,0,.21.61c1.64,2.85,12.5,3.78,13.22,3.84-.44.26-12.23,7.17-18.11,13.2C566,349.62,517,331.84,469.1,339.74,435.55,345.28,413.47,355,399.84,364c-2.38-3.59-4-5.95-4.15-6.13a75.45,75.45,0,0,0,13-4.57v0c4.79-2.27,9.28-5.34,10.16-9.1,2-8.59-17.36-31.53-17.65-31.87,0,0,8.53-7.05,13.72-13.57h0c2.73-3.42,4.54-6.7,3.75-8.78-26.21-23.23-94.74-61.5-161-50.57s-87.82,38.27-87.82,43.8a1.32,1.32,0,0,0,.12.54c2.18,5.39,36.84,12.14,37.57,12.28-31.25,14.36-38.72,51.59-38,57.27a1.67,1.67,0,0,0,.14.51c1.93,4.56,22.66-2.3,23.95-2.73-7.48,5.31-14.35,14.63-19.65,23.66-.61.57-1.18,1.13-1.72,1.67-33.16-21.19-87.16-43.5-139.74-34.82-66.26,10.93-87.82,38.27-87.82,43.79a1.32,1.32,0,0,0,.12.54c2.18,5.39,36.84,12.15,37.57,12.29-31.25,14.36-38.72,51.58-38,57.27a1.61,1.61,0,0,0,.14.5c1.93,4.57,22.66-2.3,24-2.73-16.88,12-30.65,44.38-30.3,47.8a1.48,1.48,0,0,0,.21.62c1.64,2.84,12.49,3.78,13.21,3.84-.58.34-21.7,12.71-21.36,18.77a2.62,2.62,0,0,0,.41,1.17c3.51,5.77,29.44,11.72,29.94,11.83-.31.29-24.83,23.58-24.83,26.3a1.4,1.4,0,0,0,.18.59c1.63,3.14,14.64,10.49,15,10.69-.16.2-14.47,17.11-13.44,22.89a2.06,2.06,0,0,0,.19.56c2.76,5.68,32.24,12.1,32.24,12.1s185.76,2,202.31.09a5,5,0,0,0,.64-.09,34.91,34.91,0,0,0,5.63-2.36c6.72,1.92,12.56,3.19,12.56,3.19s185.76,2,202.31.09a4.74,4.74,0,0,0,.64-.09,43.45,43.45,0,0,0,8.12-3.68c2.66.65,4.4,1,4.4,1s185.76,2,202.31.09a4.52,4.52,0,0,0,.63-.09,19,19,0,0,0,1.89-.66c8.51,2.71,17.5,4.67,17.5,4.67s185.76,2,202.3.09a4.49,4.49,0,0,0,.64-.09,33,33,0,0,0,4.65-1.87c6.25,1.73,11.47,2.87,11.47,2.87s184.71,2,202.16.11c4.5,1.17,7.81,1.89,7.81,1.89s185.76,2,202.3.09a4.49,4.49,0,0,0,.64-.09,46.14,46.14,0,0,0,8.88-4.11c6.6,1.87,12.29,3.11,12.29,3.11s185.75,2,202.3.09a4.74,4.74,0,0,0,.64-.09,52.94,52.94,0,0,0,13-6.73h0c2.61-1.85,4.57-3.73,4.75-5.13.45-3.62-18-24.65-18.39-25a85.25,85.25,0,0,0,11.17-2.49h0c4.27-1.32,8.18-3.16,8.39-5.5.34-3.9-10.82-15.4-16.52-21h.06a4.74,4.74,0,0,0,.64-.09,41.24,41.24,0,0,0,7.16-3.15,7.69,7.69,0,0,0,3.65-2.13c.76-.47,1.49-1,2.18-1.45h0c2.61-1.85,4.57-3.73,4.74-5.13.37-2.87-11.19-16.69-16.16-22.49,1.12.35,2.39.69,3.72,1l.49.09.56.11,1,.15.39.05.95.09h.23c.4,0,.79,0,1.17,0h.27c.38,0,.76,0,1.13,0h.06c.4,0,.78-.09,1.16-.16h.11a8,8,0,0,0,5.19-3c1-1.35.82-3.83-.1-7a3.08,3.08,0,0,0,1-1.84c.17-1.94-2.51-5.77-5.94-9.81-2.37-4.58-5.18-9.39-7.87-13.78a21.61,21.61,0,0,0,4-.36h0c2.68-.54,5.08-1.75,5.93-4.28,1.11-3.3-2.32-10.13-6.17-16.33,4.37-2.21,8.27-5.09,9.08-8.57a6.35,6.35,0,0,0,.14-1.67,7.33,7.33,0,0,0,3-2.36C1512.22,442.06,1502.81,425.06,1495,412.48ZM847.58,361.29l.56.11,1,.15.39.05,1,.09h.24c.39,0,.78,0,1.16,0h.27c.38,0,.76,0,1.13-.05h.07c.35,0,.69-.08,1-.14q-5.32,2.61-9.65,5.23c-3.09-4.58-5.8-8.07-5.94-8.25a43.1,43.1,0,0,0,8.27,2.67ZM622.06,457l2.38.68A68.45,68.45,0,0,0,614.29,469c-2.63-4.12-4.9-7.48-6.15-9.31C612.18,459.61,617.9,458.22,622.06,457Zm427.39,7.56-1-1.37s1.25-.3,3.15-.86C1050.91,463.08,1050.17,463.83,1049.45,464.6Zm-215.39,4.47c-2.63-4-4.48-6.64-4.61-6.84,0,0,1.85-.44,4.49-1.28,1.88-.08,3.32-.17,4.23-.28a4.74,4.74,0,0,0,.64-.09,32.76,32.76,0,0,0,4.77-1.93A66.31,66.31,0,0,0,834.06,469.07ZM610.29,507.66h.19l-.12.08Zm652.79-35.6c1,.31,2,.61,3,.88-.42.6-.82,1.19-1.23,1.79C1264.21,473.79,1263.63,472.89,1263.08,472.06ZM834.79,544l-1.72,1.67c-1.29-1.26-2.14-2.05-2.23-2.14A32.38,32.38,0,0,0,834.79,544Zm-226.28-4.48a30,30,0,0,0,9.93.17l0,0c.35-.07.7-.15,1-.24-.14.12-2.42,2.29-5.56,5.35C610.94,541.83,608.67,539.7,608.51,539.55Zm651.36,7a33.24,33.24,0,0,0,6.9.51c-1,1-2.06,2-3.16,3.1C1261.49,548.08,1260,546.68,1259.87,546.56ZM1067.74,404.1c.29-.36.56-.72.83-1.08l1.76.36c-1.17.53-2.3,1.11-3.4,1.71q.42-.49.81-1Zm-890,137.8c-.8.77-1.68,1.62-2.61,2.54-1.83-1.79-3.07-3-3.19-3.07A33,33,0,0,0,177.7,541.9ZM851.94,406.14c-1-1.12-2-2.26-3-3.39a29.28,29.28,0,0,0,2.29-3.32c5.1,1.16,8.88,1.9,9.12,1.95A57.07,57.07,0,0,0,851.94,406.14Zm-433.83-9.35c-.07-.22-.15-.43-.24-.64l1.1.21Zm842,181.89s.68-.1,1.74-.29l1.12.64s-.5.59-1.24,1.51Z"/></g></g></svg>