<svg id="Layer_1" data-name="Layer 1" xmlns="http://www.w3.org/2000/svg" xmlns:xlink="http://www.w3.org/1999/xlink" viewBox="0 0 1600 900"><defs><style>.cls-1{fill:none;}.cls-2{clip-path:url(#clip-path);}.cls-3{fill:#916f91;opacity:0.15;}.cls-4{fill:#a39889;}.cls-5{fill:#c4b7a3;}.cls-6{fill:#7eb4c1;}.cls-7{fill:#606060;opacity:0.09;}</style><clipPath id="clip-path"><rect class="cls-1" width="1600" height="900"/></clipPath></defs><g class="cls-2"><g class="cls-2"><rect class="cls-3" x="-417.18" y="515.27" width="2308.18" height="308.34"/><polygon class="cls-4" points="2004 957.7 -517.69 931.63 -272.3 540.57 1881.78 540.57 2004 957.7"/><path class="cls-5" d="M36,590.05H-67.49c-6.56,0-9.71-1.51-7.06-3.36l39.76-27.77c2.39-1.68,9.33-3,15.52-3H78.41c6.18,0,9.55,1.35,7.5,3L52,586.69C49.72,588.54,42.57,590.05,36,590.05Z"/><path class="cls-5" d="M170.22,590.05H66.71c-6.55,0-10-1.51-7.8-3.36l33.61-27.77c2-1.68,8.67-3,14.86-3h97.68c6.18,0,9.84,1.35,8.17,3l-27.79,27.77C183.59,588.54,176.77,590.05,170.22,590.05Z"/><path class="cls-5" d="M304.42,590.05H200.92c-6.56,0-10.38-1.51-8.55-3.36l27.47-27.77c1.65-1.68,8-3,14.18-3H331.7c6.19,0,10.15,1.35,8.85,3L318.9,586.69C317.46,588.54,311,590.05,304.42,590.05Z"/><path class="cls-5" d="M438.63,590.05H335.12c-6.55,0-10.71-1.51-9.29-3.36l21.33-27.77c1.28-1.68,7.33-3,13.51-3h97.68c6.19,0,10.45,1.35,9.51,3l-15.49,27.77C451.34,588.54,445.18,590.05,438.63,590.05Z"/><path class="cls-5" d="M572.83,590.05H469.33c-6.56,0-11.05-1.51-10-3.36l15.18-27.77c.92-1.68,6.67-3,12.85-3H585c6.18,0,10.74,1.35,10.18,3l-9.35,27.77C585.21,588.54,579.39,590.05,572.83,590.05Z"/><path class="cls-5" d="M707,590.05H603.53c-6.55,0-11.37-1.51-10.77-3.36l9-27.77c.54-1.68,6-3,12.18-3h97.68c6.18,0,11,1.35,10.85,3l-3.21,27.77C719.08,588.54,713.59,590.05,707,590.05Z"/><path class="cls-5" d="M841.24,590.05H737.74c-6.56,0-11.71-1.51-11.52-3.36l2.88-27.77c.18-1.68,5.33-3,11.52-3h97.67c6.19,0,11.34,1.35,11.52,3l2.94,27.77C853,588.54,847.8,590.05,841.24,590.05Z"/><path class="cls-5" d="M975.45,590.05H871.94c-6.55,0-12-1.51-12.26-3.36l-3.26-27.77c-.2-1.68,4.66-3,10.84-3h97.68c6.19,0,11.64,1.35,12.19,3l9.09,27.77C986.82,588.54,982,590.05,975.45,590.05Z"/><path class="cls-5" d="M1109.65,590.05h-103.5c-6.56,0-12.38-1.51-13-3.36l-9.4-27.77c-.57-1.68,4-3,10.17-3h97.68c6.18,0,11.94,1.35,12.85,3l15.24,27.77C1120.69,588.54,1116.21,590.05,1109.65,590.05Z"/><path class="cls-5" d="M1243.86,590.05H1140.35c-6.55,0-12.71-1.51-13.74-3.36l-15.56-27.77c-.93-1.68,3.32-3,9.51-3h97.68c6.18,0,12.23,1.35,13.52,3l21.38,27.77C1254.56,588.54,1250.41,590.05,1243.86,590.05Z"/><path class="cls-5" d="M1378.06,590.05h-103.5c-6.56,0-13-1.51-14.49-3.36l-21.7-27.77c-1.31-1.68,2.65-3,8.84-3h97.67c6.19,0,12.54,1.35,14.2,3l27.52,27.77C1388.43,588.54,1384.62,590.05,1378.06,590.05Z"/><path class="cls-5" d="M1512.27,590.05H1408.76c-6.55,0-13.38-1.51-15.23-3.36l-27.84-27.77c-1.68-1.68,2-3,8.16-3h97.68c6.19,0,12.84,1.35,14.86,3l33.67,27.77C1522.31,588.54,1518.82,590.05,1512.27,590.05Z"/><path class="cls-5" d="M1646.47,590.05H1543c-6.55,0-13.71-1.51-16-3.36l-34-27.77c-2-1.68,1.32-3,7.5-3h97.68c6.18,0,13.13,1.35,15.53,3l39.82,27.77C1656.18,588.54,1653,590.05,1646.47,590.05Z"/><path class="cls-5" d="M-15.44,631.51H-126c-7,0-10.22-1.72-7.2-3.83L-88,596.1c2.71-1.9,10.24-3.43,16.82-3.43h104c6.58,0,10.05,1.53,7.74,3.43L1.92,627.68C-.66,629.79-8.44,631.51-15.44,631.51Z"/><path class="cls-5" d="M127.94,631.51H17.36c-7,0-10.6-1.72-8-3.83L47.53,596.1c2.3-1.9,9.48-3.43,16.06-3.43h104c6.58,0,10.38,1.53,8.49,3.43l-31.59,31.58C142.33,629.79,134.94,631.51,127.94,631.51Z"/><path class="cls-5" d="M271.31,631.51H160.73c-7,0-11-1.72-8.89-3.83l31.23-31.58c1.88-1.9,8.72-3.43,15.31-3.43h104c6.58,0,10.73,1.53,9.25,3.43L287,627.68C285.33,629.79,278.32,631.51,271.31,631.51Z"/><path class="cls-5" d="M414.69,631.51H304.11c-7,0-11.36-1.72-9.74-3.83l24.25-31.58c1.45-1.9,8-3.43,14.54-3.43h104c6.58,0,11.06,1.53,10,3.43L429.5,627.68C428.33,629.79,421.69,631.51,414.69,631.51Z"/><path class="cls-5" d="M558.07,631.51H447.49c-7,0-11.74-1.72-10.59-3.83l17.26-31.58c1-1.9,7.2-3.43,13.79-3.43h104c6.58,0,11.4,1.53,10.76,3.43L572,627.68C571.32,629.79,565.07,631.51,558.07,631.51Z"/><path class="cls-5" d="M701.45,631.51H590.86c-7,0-12.11-1.72-11.43-3.83L589.7,596.1c.62-1.9,6.45-3.43,13-3.43H706.68c6.59,0,11.75,1.53,11.53,3.43l-3.65,31.58C714.32,629.79,708.45,631.51,701.45,631.51Z"/><path class="cls-5" d="M844.82,631.51H734.24c-7,0-12.5-1.72-12.28-3.83l3.28-31.58c.2-1.9,5.69-3.43,12.28-3.43h104c6.58,0,12.08,1.53,12.28,3.43l3.34,31.58C857.32,629.79,851.82,631.51,844.82,631.51Z"/><path class="cls-5" d="M988.2,631.51H877.62c-7,0-12.88-1.72-13.13-3.83l-3.71-31.58c-.22-1.9,4.94-3.43,11.52-3.43h104c6.59,0,12.42,1.53,13,3.43l10.33,31.58C1000.31,629.79,995.2,631.51,988.2,631.51Z"/><path class="cls-5" d="M1131.58,631.51H1021c-7,0-13.26-1.72-14-3.83L996.33,596.1c-.65-1.9,4.17-3.43,10.75-3.43h104c6.58,0,12.75,1.53,13.79,3.43l17.32,31.58C1143.31,629.79,1138.58,631.51,1131.58,631.51Z"/><path class="cls-5" d="M1275,631.51H1164.37c-7,0-13.64-1.72-14.82-3.83l-17.68-31.58c-1.06-1.9,3.42-3.43,10-3.43h104c6.58,0,13.1,1.53,14.56,3.43l24.3,31.58C1286.31,629.79,1282,631.51,1275,631.51Z"/><path class="cls-5" d="M1418.33,631.51H1307.75c-7,0-14-1.72-15.67-3.83l-24.67-31.58c-1.48-1.9,2.66-3.43,9.24-3.43h104c6.58,0,13.43,1.53,15.31,3.43l31.29,31.58C1429.3,629.79,1425.33,631.51,1418.33,631.51Z"/><path class="cls-5" d="M1561.71,631.51H1451.13c-7,0-14.41-1.72-16.52-3.83L1403,596.1c-1.9-1.9,1.91-3.43,8.49-3.43h104c6.58,0,13.77,1.53,16.07,3.43l38.28,31.58C1572.3,629.79,1568.71,631.51,1561.71,631.51Z"/><path class="cls-5" d="M1705.08,631.51H1594.5c-7,0-14.78-1.72-17.36-3.83L1538.5,596.1c-2.32-1.9,1.14-3.43,7.72-3.43h104c6.58,0,14.1,1.53,16.82,3.43l45.27,31.58C1715.29,629.79,1712.09,631.51,1705.08,631.51Z"/><path class="cls-5" d="M79.45,679.05H-39.24c-7.52,0-11.21-2-8.27-4.41l43.83-36.23c2.63-2.16,10.44-3.91,17.47-3.91h111.1c7,0,11,1.75,8.82,3.91L97.47,674.64C95,677.07,87,679.05,79.45,679.05Z"/><path class="cls-5" d="M233.35,679.05H114.65c-7.51,0-11.64-2-9.24-4.41l35.82-36.23c2.14-2.16,9.57-3.91,16.6-3.91H268.92c7,0,11.38,1.75,9.69,3.91l-28.22,36.23C248.5,677.07,240.86,679.05,233.35,679.05Z"/><path class="cls-5" d="M387.24,679.05H268.55c-7.52,0-12.09-2-10.22-4.41l27.8-36.23c1.67-2.16,8.71-3.91,15.74-3.91H413c7,0,11.76,1.75,10.56,3.91l-20.21,36.23C402,677.07,394.76,679.05,387.24,679.05Z"/><path class="cls-5" d="M541.14,679.05H422.44c-7.51,0-12.52-2-11.19-4.41L431,638.41c1.18-2.16,7.84-3.91,14.87-3.91H557c7,0,12.15,1.75,11.42,3.91l-12.19,36.23C555.41,677.07,548.65,679.05,541.14,679.05Z"/><path class="cls-5" d="M695,679.05H576.34c-7.52,0-13-2-12.17-4.41l11.77-36.23c.71-2.16,7-3.91,14-3.91H701c7,0,12.54,1.75,12.29,3.91l-4.18,36.23C708.87,677.07,702.55,679.05,695,679.05Z"/><path class="cls-5" d="M848.93,679.05H730.23c-7.51,0-13.4-2-13.15-4.41l3.77-36.23c.22-2.16,6.11-3.91,13.14-3.91H845.08c7,0,12.92,1.75,13.15,3.91l3.84,36.23C862.32,677.07,856.44,679.05,848.93,679.05Z"/><path class="cls-5" d="M1002.82,679.05H884.13c-7.52,0-13.84-2-14.13-4.41l-4.25-36.23c-.25-2.16,5.24-3.91,12.28-3.91H989.12c7,0,13.31,1.75,14,3.91L1015,674.64C1015.78,677.07,1010.34,679.05,1002.82,679.05Z"/><path class="cls-5" d="M1156.72,679.05H1038c-7.51,0-14.27-2-15.1-4.41l-12.26-36.23c-.74-2.16,4.37-3.91,11.41-3.91h111.09c7,0,13.69,1.75,14.88,3.91l19.86,36.23C1169.24,677.07,1164.23,679.05,1156.72,679.05Z"/><path class="cls-5" d="M1310.61,679.05H1191.92c-7.52,0-14.72-2-16.08-4.41l-20.28-36.23c-1.21-2.16,3.51-3.91,10.55-3.91H1277.2c7,0,14.08,1.75,15.74,3.91l27.88,36.23C1322.69,677.07,1318.13,679.05,1310.61,679.05Z"/><path class="cls-5" d="M1464.51,679.05h-118.7c-7.51,0-15.15-2-17-4.41l-28.29-36.23c-1.7-2.16,2.64-3.91,9.68-3.91h111.09c7,0,14.46,1.75,16.61,3.91l35.89,36.23C1476.15,677.07,1472,679.05,1464.51,679.05Z"/><path class="cls-5" d="M1618.4,679.05H1499.71c-7.52,0-15.6-2-18-4.41l-36.31-36.23c-2.17-2.16,1.78-3.91,8.81-3.91h111.1c7,0,14.85,1.75,17.47,3.91l43.91,36.23C1629.61,677.07,1625.92,679.05,1618.4,679.05Z"/><path class="cls-5" d="M1772.3,679.05H1653.6c-7.51,0-16-2-19-4.41l-44.33-36.23c-2.65-2.16.92-3.91,8-3.91h111.1c7,0,15.23,1.75,18.34,3.91l51.92,36.23C1783.06,677.07,1779.81,679.05,1772.3,679.05Z"/><path class="cls-5" d="M23.29,734.12H-104.8c-8.11,0-11.89-2.31-8.47-5.13l50.79-42c3-2.5,11.58-4.51,19.13-4.51H75.93c7.56,0,11.67,2,9.17,4.51l-42,42C40.28,731.81,31.4,734.12,23.29,734.12Z"/><path class="cls-5" d="M189.37,734.12H61.28c-8.11,0-12.4-2.31-9.61-5.13l41.51-42c2.47-2.5,10.58-4.51,18.13-4.51H230.59c7.55,0,12.11,2,10.16,4.51l-32.7,42C205.85,731.81,197.48,734.12,189.37,734.12Z"/><path class="cls-5" d="M355.45,734.12H227.36c-8.11,0-12.92-2.31-10.75-5.13l32.22-42c1.92-2.5,9.59-4.51,17.14-4.51H385.25c7.55,0,12.55,2,11.16,4.51L373,729C371.42,731.81,363.56,734.12,355.45,734.12Z"/><path class="cls-5" d="M521.52,734.12H393.43c-8.1,0-13.42-2.31-11.87-5.13l22.93-42c1.36-2.5,8.58-4.51,16.14-4.51H539.91c7.55,0,13,2,12.15,4.51l-14.12,42C537,731.81,529.63,734.12,521.52,734.12Z"/><path class="cls-5" d="M687.6,734.12H559.51c-8.11,0-13.93-2.31-13-5.13l13.64-42c.82-2.5,7.59-4.51,15.14-4.51H694.57c7.55,0,13.44,2,13.15,4.51l-4.84,42C702.55,731.81,695.71,734.12,687.6,734.12Z"/><path class="cls-5" d="M853.68,734.12H725.59c-8.11,0-14.44-2.31-14.15-5.13l4.36-42c.26-2.5,6.59-4.51,14.14-4.51H849.22c7.56,0,13.89,2,14.16,4.51l4.44,42C868.12,731.81,861.79,734.12,853.68,734.12Z"/><path class="cls-5" d="M1019.76,734.12H891.67c-8.11,0-15-2.31-15.29-5.13l-4.92-42c-.3-2.5,5.59-4.51,13.14-4.51h119.28c7.55,0,14.33,2,15.15,4.51l13.73,42C1033.69,731.81,1027.87,734.12,1019.76,734.12Z"/><path class="cls-5" d="M1185.84,734.12H1057.75c-8.11,0-15.47-2.31-16.42-5.13l-14.22-42c-.84-2.5,4.6-4.51,12.15-4.51h119.28c7.55,0,14.78,2,16.15,4.51l23,42C1199.26,731.81,1194,734.12,1185.84,734.12Z"/><path class="cls-5" d="M1351.92,734.12H1223.83c-8.11,0-16-2.31-17.56-5.13l-23.5-42c-1.4-2.5,3.59-4.51,11.15-4.51H1313.2c7.55,0,15.22,2,17.14,4.51l32.31,42C1364.82,731.81,1360,734.12,1351.92,734.12Z"/><path class="cls-5" d="M1518,734.12H1389.9c-8.11,0-16.48-2.31-18.69-5.13l-32.79-42c-2-2.5,2.6-4.51,10.15-4.51h119.29c7.55,0,15.66,2,18.14,4.51l41.59,42C1530.39,731.81,1526.1,734.12,1518,734.12Z"/><path class="cls-5" d="M1684.07,734.12H1556c-8.11,0-17-2.31-19.83-5.13l-42.07-42c-2.5-2.5,1.6-4.51,9.15-4.51h119.28c7.56,0,16.12,2,19.15,4.51l50.87,42C1696,731.81,1692.18,734.12,1684.07,734.12Z"/><path class="cls-5" d="M-42.53,798.66h-139.1c-8.81,0-12.65-2.72-8.62-6l59.54-49.21c3.52-2.92,13-5.26,21.13-5.26H19.19c8.15,0,12.42,2.34,9.5,5.26l-49.22,49.21C-23.86,795.94-33.72,798.66-42.53,798.66Z"/><path class="cls-5" d="M137.83,798.66H-1.27c-8.81,0-13.26-2.72-10-6L37.42,743.4c2.88-2.92,11.81-5.26,20-5.26H186.16c8.15,0,12.93,2.34,10.66,5.26l-38.33,49.21C155.89,795.94,146.63,798.66,137.83,798.66Z"/><path class="cls-5" d="M318.18,798.66H179.08c-8.8,0-13.86-2.72-11.3-6l37.77-49.21c2.24-2.92,10.65-5.26,18.8-5.26H353.13c8.15,0,13.45,2.34,11.82,5.26l-27.44,49.21C335.65,795.94,327,798.66,318.18,798.66Z"/><path class="cls-5" d="M498.54,798.66H359.44c-8.81,0-14.46-2.72-12.64-6l26.88-49.21c1.59-2.92,9.48-5.26,17.64-5.26H520.09c8.16,0,14,2.34,13,5.26l-16.56,49.21C515.4,795.94,507.35,798.66,498.54,798.66Z"/><path class="cls-5" d="M678.9,798.66H539.79c-8.8,0-15.06-2.72-14-6l16-49.21c1-2.92,8.32-5.26,16.48-5.26H687.06c8.15,0,14.49,2.34,14.16,5.26l-5.68,49.21C695.16,795.94,687.7,798.66,678.9,798.66Z"/><path class="cls-5" d="M859.25,798.66H720.15c-8.81,0-15.66-2.72-15.32-6l5.11-49.21c.31-2.92,7.16-5.26,15.31-5.26H854c8.15,0,15,2.34,15.32,5.26l5.21,49.21C874.91,795.94,868.06,798.66,859.25,798.66Z"/><path class="cls-5" d="M1039.61,798.66H900.51c-8.81,0-16.27-2.72-16.66-6l-5.78-49.21c-.34-2.92,6-5.26,14.15-5.26H1021c8.16,0,15.53,2.34,16.49,5.26l16.1,49.21C1054.66,795.94,1048.42,798.66,1039.61,798.66Z"/><path class="cls-5" d="M1220,798.66h-139.1c-8.8,0-16.86-2.72-18-6l-16.66-49.21c-1-2.92,4.82-5.26,13-5.26H1188c8.16,0,16,2.34,17.65,5.26l27,49.21C1234.42,795.94,1228.77,798.66,1220,798.66Z"/><path class="cls-5" d="M1400.32,798.66h-139.1c-8.81,0-17.47-2.72-19.33-6l-27.55-49.21c-1.63-2.92,3.66-5.26,11.81-5.26h128.78c8.15,0,16.57,2.34,18.81,5.26l37.87,49.21C1414.17,795.94,1409.13,798.66,1400.32,798.66Z"/><path class="cls-5" d="M1580.68,798.66h-139.1c-8.81,0-18.08-2.72-20.68-6l-38.43-49.21c-2.28-2.92,2.5-5.26,10.65-5.26H1521.9c8.15,0,17.08,2.34,20,5.26l48.76,49.21C1593.93,795.94,1589.48,798.66,1580.68,798.66Z"/><path class="cls-5" d="M1761,798.66h-139.1c-8.81,0-18.67-2.72-22-6L1550.6,743.4c-2.92-2.92,1.34-5.26,9.49-5.26h128.77c8.16,0,17.61,2.34,21.14,5.26l59.65,49.21C1773.68,795.94,1769.84,798.66,1761,798.66Z"/><path class="cls-5" d="M76.59,875.33H-75.59c-9.64,0-14.23-3.25-10.29-7.23L-28,809.61c3.4-3.44,13.32-6.21,22.18-6.21H134c8.86,0,13.88,2.77,11.2,6.21L99.68,868.1C96.57,872.08,86.23,875.33,76.59,875.33Z"/><path class="cls-5" d="M273.91,875.33H121.73c-9.64,0-15-3.25-11.89-7.23l44.89-58.49c2.64-3.44,12-6.21,20.81-6.21H315.45c8.85,0,14.49,2.77,12.57,6.21L295.4,868.1C293.17,872.08,283.55,875.33,273.91,875.33Z"/><path class="cls-5" d="M471.23,875.33H319.05c-9.64,0-15.67-3.25-13.5-7.23l32-58.49c1.88-3.44,10.57-6.21,19.43-6.21H496.85c8.86,0,15.11,2.77,13.95,6.21L491.11,868.1C489.77,872.08,480.87,875.33,471.23,875.33Z"/><path class="cls-5" d="M668.55,875.33H516.37c-9.64,0-16.39-3.25-15.1-7.23l19-58.49c1.12-3.44,9.2-6.21,18.06-6.21H678.26c8.85,0,15.72,2.77,15.32,6.21l-6.75,58.49C686.37,872.08,678.19,875.33,668.55,875.33Z"/><path class="cls-5" d="M865.87,875.33H713.69c-9.64,0-17.11-3.25-16.7-7.23l6.08-58.49c.35-3.44,7.82-6.21,16.68-6.21H859.66c8.86,0,16.33,2.77,16.7,6.21l6.19,58.49C883,872.08,875.51,875.33,865.87,875.33Z"/><path class="cls-5" d="M1063.19,875.33H911c-9.64,0-17.83-3.25-18.3-7.23l-6.86-58.49c-.41-3.44,6.45-6.21,15.31-6.21h139.91c8.85,0,16.94,2.77,18.07,6.21l19.13,58.49C1079.57,872.08,1072.83,875.33,1063.19,875.33Z"/><path class="cls-5" d="M1260.51,875.33H1108.33c-9.64,0-18.55-3.25-19.9-7.23l-19.8-58.49c-1.17-3.44,5.07-6.21,13.93-6.21h139.91c8.86,0,17.56,2.77,19.45,6.21L1274,868.1C1276.17,872.08,1270.15,875.33,1260.51,875.33Z"/><path class="cls-5" d="M1457.83,875.33H1305.65c-9.64,0-19.27-3.25-21.5-7.23l-32.74-58.49c-1.93-3.44,3.7-6.21,12.56-6.21h139.91c8.86,0,18.17,2.77,20.82,6.21l45,58.49C1472.77,872.08,1467.47,875.33,1457.83,875.33Z"/><path class="cls-5" d="M1655.15,875.33H1503c-9.64,0-20-3.25-23.1-7.23l-45.68-58.49c-2.69-3.44,2.32-6.21,11.18-6.21h139.91c8.86,0,18.79,2.77,22.2,6.21l58,58.49C1669.37,872.08,1664.79,875.33,1655.15,875.33Z"/><rect class="cls-6" x="-307.28" y="-16.36" width="2208.33" height="580.03"/><path class="cls-7" d="M-437.7,883.82S1385.41,616.54,1877.85,735.18c0,0-24.12-139.46-494.33-131.91,0,0-1475.22-123.45-1827.22,65.55Z"/><path class="cls-5" d="M-1.68,965h-169c-10.7,0-15.8-3.74-11.43-8.32l64.23-67.18c3.79-4,14.81-7.14,24.65-7.14H62.13c9.84,0,15.42,3.18,12.44,7.14L24,956.72C20.51,961.3,9,965-1.68,965Z"/><path class="cls-5" d="M217.49,965h-169c-10.7,0-16.6-3.74-13.21-8.32l49.87-67.18c2.93-4,13.27-7.14,23.11-7.14H263.63c9.84,0,16.09,3.18,14,7.14l-36.24,67.18C238.89,961.3,228.19,965,217.49,965Z"/><path class="cls-5" d="M436.66,965h-169c-10.71,0-17.41-3.74-15-8.32l35.49-67.18c2.09-4,11.75-7.14,21.59-7.14h155.4c9.84,0,16.78,3.18,15.49,7.14l-21.86,67.18C457.26,961.3,447.37,965,436.66,965Z"/><path class="cls-5" d="M655.84,965h-169c-10.7,0-18.2-3.74-16.77-8.32l21.12-67.18c1.25-4,10.22-7.14,20.06-7.14H666.62c9.84,0,17.46,3.18,17,7.14l-7.5,67.18C675.63,961.3,666.54,965,655.84,965Z"/><path class="cls-5" d="M875,965H706c-10.7,0-19-3.74-18.54-8.32l6.74-67.18c.4-4,8.7-7.14,18.54-7.14h155.4c9.84,0,18.14,3.18,18.55,7.14l6.88,67.18C894,961.3,885.71,965,875,965Z"/><path class="cls-5" d="M1094.18,965h-169c-10.7,0-19.8-3.74-20.32-8.32l-7.62-67.18c-.45-4,7.16-7.14,17-7.14h155.41c9.84,0,18.82,3.18,20.07,7.14l21.25,67.18C1112.38,961.3,1104.89,965,1094.18,965Z"/><path class="cls-5" d="M1313.36,965h-169c-10.7,0-20.6-3.74-22.1-8.32l-22-67.18c-1.3-4,5.64-7.14,15.48-7.14h155.4c9.84,0,19.51,3.18,21.6,7.14l35.63,67.18C1330.75,961.3,1324.06,965,1313.36,965Z"/><path class="cls-5" d="M1532.53,965h-169c-10.7,0-21.4-3.74-23.88-8.32l-36.37-67.18c-2.14-4,4.11-7.14,14-7.14H1472.6c9.84,0,20.18,3.18,23.13,7.14l50,67.18C1549.13,961.3,1543.23,965,1532.53,965Z"/><path class="cls-5" d="M1751.7,965h-169c-10.7,0-22.2-3.74-25.65-8.32l-50.74-67.18c-3-4,2.58-7.14,12.42-7.14h155.4c9.84,0,20.87,3.18,24.66,7.14l64.37,67.18C1767.5,961.3,1762.41,965,1751.7,965Z"/></g></g></svg>