<svg id="Layer_1" data-name="Layer 1" xmlns="http://www.w3.org/2000/svg" viewBox="0 0 440 460"><defs><style>.cls-1{fill:#fff;}</style></defs><path class="cls-1" d="M143.78,120.81c9-8,12.48-33.1.4-48.47A33.45,33.45,0,0,0,119.48,62q-14.53,0-26.15,11.91T81.71,104.87c0,11.64,2,20.83,3.35,23.76,6.78,3.18,19.67,3.43,29.36,3.43C126.52,132.06,136,128.22,143.78,120.81Zm-54,3.21a78.71,78.71,0,0,1-2.11-19.15C87.71,93.7,91,85,97.63,78.12S111.4,68,119.48,68a27.42,27.42,0,0,1,20.19,8.29c10.38,13.56,6.23,34.57.12,40l-.15.14c-6.85,6.54-14.86,9.59-25.22,9.59C108.88,126.06,96.71,126.06,89.82,124Z"/><path class="cls-1" d="M420.67,13.38a6,6,0,0,0-4.27-1.79H224.8a6,6,0,0,0-6,6v62a6,6,0,0,0,6,6h60.66l-.2,172.11c-19.4,19.59-42.65,36.85-69.14,51.32-21,11.46-57.65,23.07-87.09,23.07-12.43,0-22.34-2-29.48-6.07-9.11-7-10.53-15.94-11.3-20.77-2.77-17.29,3.25-34.28,14.64-41.32a6.18,6.18,0,0,0,.53-.36c18.41-14.28,74.41-19.48,94.43-20.28a6,6,0,0,0,5.54-7.61L187,177a6,6,0,0,0-5.77-4.38l-.67,0a186.14,186.14,0,0,1-20.48,1.2h0c-22.76,0-36.49-5-44.42-9.88,20.88-.39,38.87-7,53.51-19.57,15.36-13.24,23.15-29.9,23.15-49.53,0-25.4-9-45.91-26.83-61C148,19.11,128.33,11.59,107.13,11.59c-26.73,0-48.58,8.48-64.94,25.21S17.6,74.26,17.6,98.52c0,21,7.94,40.85,23.6,59.06a119.38,119.38,0,0,0,40.69,31C65,195.08,52.44,203.18,44.42,212.78c-10.34,12.37-20.7,38.11-15.86,70,5,32.89,17.84,58,41.66,81.6,27.67,27.36,58.9,41.23,92.84,41.23,22.08,0,46.63-6.19,73-18.41a246.16,246.16,0,0,0,49.09-29.65l-.1,84.86a6,6,0,0,0,6,6l65.07.05a6,6,0,0,0,6-6V85.57h53.55a6,6,0,0,0,6-5.92l.74-62A6,6,0,0,0,420.67,13.38Zm-5,66.19H356.11V442.41L291,442.36l.12-97.82q-23.36,21.25-57.64,37.17Q195,399.56,163.06,399.56q-48.67,0-88.62-39.5c-26.63-26.33-36.07-52.71-39.95-78.23C30,252.53,39.33,228.22,49,216.63S75.65,195.83,99.86,189a112.29,112.29,0,0,1-54.11-35.3Q23.58,127.89,23.6,98.52,23.6,64.43,46.48,41t60.65-23.41q29.78,0,54.48,20.92t24.7,56.4q0,26.85-21.07,45T113.67,158c-3.88,0-10.53.16-13,.16,0,0,14.09,27.8,80.5,20.47l16.39,58.61s-73.89,2.94-97.87,21.54c-13.56,8.38-20.55,27.79-17.42,47.37.87,5.44,2.74,16.44,13.91,24.84,29.45,17.05,92.26-.09,122.76-16.76q41.94-22.89,72.26-54.13l.21-180.56H224.8v-62H416.4Z"/></svg>