<svg id="Layer_1" data-name="Layer 1" xmlns="http://www.w3.org/2000/svg" viewBox="0 0 425 515"><defs><style>.cls-1{fill:#ff0;}</style></defs><path class="cls-1" d="M50.82,365.65c0,14.18,10.81,13.14,16.51,14.71,26.31,6.63,35.08-6.84,43.19-5.94C58,327.34,50.82,359.16,50.82,365.65ZM81.08,376.2a50.29,50.29,0,0,1-12.23-1.65c-1.23-.33-2.52-.55-3.76-.76-5.68-1-8.27-1.42-8.27-8.14,0-.11.25-10.53,9.41-10.53,5.44,0,15.27,3.11,32.13,16.79C93.87,374,88.72,376.2,81.08,376.2Z"/><path class="cls-1" d="M411,17.24a6,6,0,0,0-4.24-1.75l-226.7.34H40.35a6,6,0,0,0-6,6V80a6,6,0,0,0,6,6H286.92v78.55L79.45,164a6,6,0,0,0-6,6l.2,56a6,6,0,0,0,3.62,5.49,289.87,289.87,0,0,1,31.9,15.74c10.6,6.25,20.1,14,28.78,21.36a211.29,211.29,0,0,1,15.9,14.75c7.75,8.08,11.82,15.65,12.43,23.12,1.46,17.72-14.17,36.88-29.11,42.17a72.66,72.66,0,0,1-8.93,2.52c-1.59-1.94-3.25-3.87-5-5.75-11-12-22-20.09-33.62-24.8a65.75,65.75,0,0,0-21.52-4.58c-1.1-.05-2.22-.08-3.33-.08-12.84,0-25.17,3.5-34.71,9.85C13.44,336.93,7.61,357.13,15.9,375a53.16,53.16,0,0,0,19.15,21.56c15.89,10.56,35.11,13.35,48.18,14.52,7.4.67,14.79,1,22,1a217.33,217.33,0,0,0,22.5-1.15c1.71,4,4.35,10.75,6.93,17.33,7.25,18.49,17.19,43.8,25.79,60.21a6,6,0,0,0,3.89,3,5.74,5.74,0,0,0,1.42.17,6,6,0,0,0,3.43-1.07l27.95-19.44a6,6,0,0,0,2.49-3.93,6,6,0,0,0-1.06-4.52c-7.84-10.81-14.08-23-20.11-34.88l-1.92-3.77c-.43-.84-.84-1.69-1.25-2.54l-.64-1.31c-.65-1.32-1.29-2.65-1.94-4-1.59-3.32-3.23-6.7-5-10a113.58,113.58,0,0,0,32.72-24.45c11.3-11.88,22.51-25.38,28-43.6a77.05,77.05,0,0,0,2.49-33.21,70.22,70.22,0,0,0-9.28-26.84c-7.72-12.69-18.65-22.56-28.32-30.54-3.2-2.64-6.6-5.32-10.3-8.12h104V493.35a6,6,0,0,0,6,6l61.1.16a6,6,0,0,0,6-6V85.94l46.82-.3a6,6,0,0,0,6-6V21.49A6,6,0,0,0,411,17.24Zm-4.24,62.4L354,80V493.51l-61.09-.16V233.42H164.39c8.56,6,17,12.11,25.05,18.75,10.16,8.39,20.1,17.68,27,29a64.59,64.59,0,0,1,8.47,24.55,71.91,71.91,0,0,1-2.29,30.66c-4.92,16.34-15,29-26.6,41.18-10.89,11.45-22.85,20.11-36.91,25.84,3.89,6.14,6.94,13,10.11,19.42.65,1.32,1.27,2.65,1.95,4,6.89,13.48,13.56,27.09,22.5,39.42l-27.95,19.44c-13.53-25.81-30.87-75.21-34.45-81.2a221.86,221.86,0,0,1-47.5.62c-15.86-1.43-32-4.65-45.4-13.55-7.24-4.81-13.39-11.23-17-19.09-7-15.13-1.92-32.29,12.06-41.59,10-6.61,22.52-9.33,34.44-8.77a60.08,60.08,0,0,1,19.56,4.16c12.29,5,22.65,13.67,31.44,23.28q3.64,4,7,8.27a80,80,0,0,0,13.37-3.43c17.61-6.24,34.78-27.76,33.09-48.33-.86-10.48-7-19.38-14.08-26.77a219.08,219.08,0,0,0-16.34-15.17c-9.41-8-19-15.67-29.63-22a292.7,292.7,0,0,0-32.56-16.08l-.2-56,213.47.52V80H40.35V21.83H180.11l226.69-.34Z"/></svg>