<svg id="Layer_1" data-name="Layer 1" xmlns="http://www.w3.org/2000/svg" viewBox="0 0 425 515"><defs><style>.cls-1{fill:#8d8e8d;}</style></defs><path class="cls-1" d="M406.8,21.49l-226.69.34H40.35V80H292.92v90.56L79.45,170l.2,56a292.7,292.7,0,0,1,32.56,16.08c10.68,6.29,20.22,13.94,29.63,22a219.08,219.08,0,0,1,16.34,15.17c7.08,7.39,13.22,16.29,14.08,26.77,1.69,20.57-15.48,42.09-33.09,48.33a80,80,0,0,1-13.37,3.43q-3.31-4.28-7-8.27c-8.79-9.61-19.15-18.32-31.44-23.28a60.08,60.08,0,0,0-19.56-4.16c-11.92-.56-24.49,2.16-34.44,8.77-14,9.3-19.09,26.46-12.06,41.59,3.64,7.86,9.79,14.28,17,19.09,13.39,8.9,29.54,12.12,45.4,13.55a221.86,221.86,0,0,0,47.5-.62c3.58,6,20.92,55.39,34.45,81.2l27.95-19.44c-8.94-12.33-15.61-25.94-22.5-39.42-.68-1.31-1.3-2.64-1.95-4-3.17-6.46-6.22-13.28-10.11-19.42,14.06-5.73,26-14.39,36.91-25.84,11.57-12.16,21.68-24.84,26.6-41.18a71.91,71.91,0,0,0,2.29-30.66,64.59,64.59,0,0,0-8.47-24.55c-6.9-11.35-16.84-20.64-27-29-8.05-6.64-16.49-12.79-25.05-18.75H292.92V493.35l61.09.16V80h0l52.79-.34ZM67.33,380.36c-5.7-1.57-16.51-.53-16.51-14.71,0-6.49,7.14-38.31,59.7,8.77C102.41,373.52,93.64,387,67.33,380.36Z"/></svg>