<svg id="Layer_1" data-name="Layer 1" xmlns="http://www.w3.org/2000/svg" viewBox="0 0 403.57 525"><defs><style>.cls-1{fill:#fff;}</style></defs><path class="cls-1" d="M309.27,297.88c-29.9-6.12-22.22,30.68-22.22,30.68C323.89,336.24,339.21,304,309.27,297.88Zm9.82,14.51c-.46,4.58-7.5,11.35-21.13,11.35a44.63,44.63,0,0,1-5.58-.36c-.47-5.2-.34-13,3-17.15,1.07-1.31,3-3,7.64-3a24.85,24.85,0,0,1,5,.57C315.26,305.23,319.48,308.54,319.09,312.39Z"/><path class="cls-1" d="M333.26,392.06c25.24-8.63,43.58-33.64,47.4-41.77,7.74-16.41,12.22-53.37-20.12-87.77-20.27-21.58-42.7-26.1-58-26.1A73.21,73.21,0,0,0,276,241.1c-34,14.06-46,40.45-50,60.11a108.84,108.84,0,0,0-1.64,31.4c-25.4-2.95-57.82-14.29-75.06-38.33-8.94-12.5-23-36.91-16.52-59.93a32.82,32.82,0,0,1,7.15-13.63c9.54-10.44,22.29-15.51,39-15.51l111.65,0c5.6,0,18.63-2.33,18.63-23.92V84.24l62.59,0a6,6,0,0,0,6-6l0-58.89a6,6,0,0,0-6-6H23.32a6,6,0,0,0-6,6l0,58.88a6,6,0,0,0,6,6L239.59,84v49.63l-84.46.2c-31.3,0-55.47,6.85-71.84,20.36C66.62,168,57.82,188.63,57.11,215.66a174.89,174.89,0,0,0,43.09,120,182.6,182.6,0,0,0,54.66,42.51,176.9,176.9,0,0,0,50.94,17.05,185.67,185.67,0,0,0,30.38,2.63c3,0,6.06-.09,9-.27,7.16,14.44,34.63,68.48,65.46,111.56a6,6,0,0,0,8.22,1.5c2.1-1.41,51.41-34.48,54.88-37a6,6,0,0,0,1.56-8.15l-46.85-72.34,4.23-1C332.88,392.18,333.07,392.12,333.26,392.06Zm-14.47-2.74,51.49,79.49c-3.45,2.46-54.75,36.86-54.75,36.86-35.84-50.1-66.74-114.35-66.74-114.35a171.07,171.07,0,0,1-91.24-18.49,175.65,175.65,0,0,1-52.84-41.1,170,170,0,0,1-41.6-115.92q2-76,92-76l90.46-.21V78l-222.23.21,0-58.88H371.71l0,58.88-68.59,0V181.32c0,12-4.24,17.92-12.63,17.92l-111.64,0q-27.48,0-43.42,17.46a39,39,0,0,0-8.5,16.07c-6.26,22.29,4.2,46.54,17.43,65,18.73,26.14,55.11,39.68,86.9,41.46,0,0-14.19-67.31,47-92.59,5.44-2.24,44.66-15.36,77.87,20,28.38,30.19,27.17,63.94,19.06,81.11-3.88,8.25-21.55,31-43.91,38.65Z"/></svg>