<svg id="Layer_1" data-name="Layer 1" xmlns="http://www.w3.org/2000/svg" viewBox="0 0 400 430"><defs><style>.cls-1{fill:#fff;}</style></defs><path class="cls-1" d="M383.69,12.33a6,6,0,0,0-4.24-1.76H20.56a6,6,0,0,0-6,6v59a6,6,0,0,0,6,6H246v47.82H146.13c-34.95,0-62.47,8.83-81.76,26.21C46.81,171.22,37.91,190.86,37.91,214c0,22.83,7.7,49.19,22.9,78.36,16,30.5,38.07,72.15,67.35,124a6,6,0,0,0,5.22,3.05H174a6,6,0,0,0,5.36-8.68c-14-28.1-36.43-72.37-47.37-93.48s-19.61-49.73-19.61-64.87c0-15.79,3.67-20.12,11-28.74,1.07-1.26,2.2-2.59,3.37-4,8.39-10.22,23.15-15.41,43.88-15.41H246v209.2a6,6,0,0,0,6,6h58.32a6,6,0,0,0,6-6V81.59h63.06a6,6,0,0,0,6-6l0-59A6,6,0,0,0,383.69,12.33Zm-4.27,63.26H310.36V413.43H252V198.23H170.57q-34.08,0-48.52,17.6c-9.63,11.73-15.71,16.13-15.71,36.57,0,16.48,9.17,46.17,20.28,67.62s33.81,66.36,47.34,93.41H133.38C102.47,358.67,79.46,315,66.13,289.58Q43.92,246.93,43.91,214q0-32.17,24.44-53.89,27.41-24.69,77.78-24.7H252V75.59H20.56v-59H379.44Z"/></svg>