<?xml version="1.0" encoding="utf-8"?>
<!-- Generator: Adobe Illustrator 25.2.0, SVG Export Plug-In . SVG Version: 6.00 Build 0)  -->
<svg version="1.1" id="Layer_1" xmlns="http://www.w3.org/2000/svg" xmlns:xlink="http://www.w3.org/1999/xlink" x="0px" y="0px"
	 viewBox="0 0 735.5 698.8" style="enable-background:new 0 0 735.5 698.8;" xml:space="preserve">
<style type="text/css">
	.st0{fill:url(#SVGID_1_);}
	.st1{fill:#3BEAA2;}
	.st2{fill:url(#SVGID_2_);}
	.st3{fill:url(#SVGID_3_);}
	.st4{fill:url(#SVGID_4_);}
	.st5{fill:url(#SVGID_5_);}
	.st6{fill:url(#SVGID_6_);}
	.st7{fill:url(#SVGID_7_);}
	.st8{fill:url(#SVGID_8_);}
	.st9{fill:url(#SVGID_9_);stroke:url(#SVGID_10_);stroke-miterlimit:22.93;}
	.st10{fill:url(#SVGID_11_);}
	.st11{fill:url(#SVGID_12_);}
	.st12{fill:none;}
	.st13{fill:#32874C;stroke:#3B5B1E;stroke-width:0.25;stroke-miterlimit:10;}
	.st14{fill:none;stroke:#C47D4D;stroke-width:2;stroke-miterlimit:10;}
	.st15{fill:#EDA651;stroke:#D3592F;stroke-width:0.25;stroke-miterlimit:10;}
	.st16{fill:#F79063;stroke:#D3592F;stroke-width:0.25;stroke-miterlimit:10;}
	.st17{fill:#FFE07D;stroke:#D3592F;stroke-width:0.25;stroke-miterlimit:10;}
</style>
<linearGradient id="SVGID_1_" gradientUnits="userSpaceOnUse" x1="5260.6367" y1="-13.393" x2="5250.7764" y2="491.807" gradientTransform="matrix(0.74 0 0 -1 -3544.71 700)">
	<stop  offset="0" style="stop-color:#907D61"/>
	<stop  offset="0.36" style="stop-color:#6D6B4D"/>
	<stop  offset="0.58" style="stop-color:#5E6345"/>
</linearGradient>
<path class="st0" d="M528,680.3c0.3-1.1-2.2-2-4.4-6.2c-2.1-3.9-4.3-7.7-4.7-9.6c-2-10-8.2-22.1-10.7-26.6
	c-8.1-14.2-12-35.6-18.4-71.1c-2.8-15.4-5.9-36.1-8-61c-0.5-35.4,3.3-62,11.1-77.4c8.5-17,15.9-34.6,22.2-52.5c0,0,45.8,2.7,49.7,0
	s15-15.4,13.1-48.2l0.7-7.9l-11.8,4.2c0,0-3.6,29.4-18.7,31.7c-18,3.2-38.5-11-35.5-31.7h-13.1c0,0,4,60.4-15.8,73.2
	c-14.8,5-23.5-2.9-22.8-38.3l0.7-35.4l-23.5,0.1c0,0,1.3,37.6,0,39.9s-11.7,25.5-22.8-22.3c-9.4-33.7-4-17.5-4-17.5l-12.7,0.4
	c0,0,5.7,37.2,24.5,60.4c12.4,22.3,12.7,59.7,3.4,73c-10,13.2-27.1,20.5-40.2-57.9c-8.7-52-11.1-75.5-11.1-75.5l-18.1-0.3
	c0,0,7.4,62.1,6,73c-1.7,12.3-2.4,50.1-41.9,34.2c-94.8-34.9,14.2-85.5,0.7-114.5c-3.9-8.3-64.9,82.1-70.6,60
	c-9-34.6-13.9-54.5-13.9-54.5l-14.7-0.5c0,0-0.7,20.4,2.3,25.8c-4.7,0.4-44-3.8-61.4-14.9c-15.6-9.8-35.9-24-37.6-29.5
	c-3.9-0.2-16,0.2-19.9,0c3.1,10.1,8.1,14,11.9,17.8c14.4,14.2,45.2,33,98,42.4c1.7,0.3,8.5,1,12.5,2.4c0,0.1,0.2,2.1,0.2,2.1
	s2.1,51,49.3,75.6c42.2,21.4,60.6,32.4,71.4,41s18.1,17.8,16.4,47.4c-1.7,23.7-0.7,47.5,3,70.9c4.1,26.4,11.9,52.2,23.2,76.4
	c36.3,1.5,59.6,1.7,74.5,1.5c30-0.4,47-2.4,56,0.5C522.5,681,527.6,681.8,528,680.3z"/>
<path class="st1" d="M124.5,234.3c2.3-19.4,8.5-48.7,27-72.7c49.9-64.7,145.5-34.6,176-24.9c75.5,23.8,115.1,84.7,139.1,118
	c4,3.6,5.3,20.4,9.3,24c-52.8,11-105,2.4-177.8,1.2c-55.5-0.9-110.7-7.1-165-18.5L124.5,234.3z"/>
<linearGradient id="SVGID_2_" gradientUnits="userSpaceOnUse" x1="5233.5698" y1="346.9821" x2="5045.8198" y2="791.8221" gradientTransform="matrix(0.74 0 0 -1 -3544.71 700)">
	<stop  offset="7.000000e-02" style="stop-color:#195B4F"/>
	<stop  offset="0.2" style="stop-color:#1C6051"/>
	<stop  offset="0.36" style="stop-color:#266F55"/>
	<stop  offset="0.55" style="stop-color:#37885D"/>
	<stop  offset="0.74" style="stop-color:#4DAB68"/>
	<stop  offset="0.94" style="stop-color:#6AD775"/>
	<stop  offset="0.98" style="stop-color:#72E379"/>
</linearGradient>
<path class="st2" d="M122.1,231.7c2.3-18.7,8.4-46.9,26.7-69.9c49.4-62.2,144-33.3,174.2-24c74.7,23,116.8,80.4,140.5,112.4
	c3.9,3.4,3.8,23.6,7.8,27c-52.2,10.6-105.3-0.5-177.4-1.5c-54.9-0.8-109.6-6.8-163.3-17.9L122.1,231.7z"/>
<linearGradient id="SVGID_3_" gradientUnits="userSpaceOnUse" x1="128.6105" y1="448.5988" x2="480.1391" y2="448.5988" gradientTransform="matrix(1 0 0 -1 0 700)">
	<stop  offset="7.000000e-02" style="stop-color:#195B4F"/>
	<stop  offset="0.2" style="stop-color:#1C6051"/>
	<stop  offset="0.36" style="stop-color:#266F55"/>
	<stop  offset="0.55" style="stop-color:#37885D"/>
	<stop  offset="0.74" style="stop-color:#4DAB68"/>
	<stop  offset="0.94" style="stop-color:#6AD775"/>
	<stop  offset="0.98" style="stop-color:#72E379"/>
</linearGradient>
<path class="st3" d="M142.8,267.5c0,0,34.4-32.7,70.4-45.5c39.4-19.2,91.5-62.2,154.7-42.3c48.8,18.6,85.4,44.2,107,91.7
	c10.5,27.6,12.2,60.9-68.2,56.4l-224,0.4C182.8,328.2,95.1,320.8,142.8,267.5z"/>
<linearGradient id="SVGID_4_" gradientUnits="userSpaceOnUse" x1="5225.8403" y1="308.1949" x2="5144.9404" y2="586.6349" gradientTransform="matrix(0.74 0 0 -1 -3544.71 700)">
	<stop  offset="7.000000e-02" style="stop-color:#195B4F"/>
	<stop  offset="0.2" style="stop-color:#1C6051"/>
	<stop  offset="0.36" style="stop-color:#266F55"/>
	<stop  offset="0.55" style="stop-color:#37885D"/>
	<stop  offset="0.74" style="stop-color:#4DAB68"/>
	<stop  offset="0.94" style="stop-color:#6AD775"/>
	<stop  offset="0.98" style="stop-color:#72E379"/>
</linearGradient>
<path class="st4" d="M139.5,274.6c0,0,34.8-33.2,71.2-46.3c39.8-19.6,92.6-63.2,156.5-43c49.4,18.9,86.4,45,108.3,93.2
	c10.6,28,12.3,61.9-69,57.4l-226.6,0.4C179.9,336.3,91.3,328.7,139.5,274.6z"/>
<linearGradient id="SVGID_5_" gradientUnits="userSpaceOnUse" x1="14.327" y1="418.1667" x2="220.3443" y2="418.1667" gradientTransform="matrix(1 0 0 -1 0 700)">
	<stop  offset="7.000000e-02" style="stop-color:#195B4F"/>
	<stop  offset="0.2" style="stop-color:#1C6051"/>
	<stop  offset="0.36" style="stop-color:#266F55"/>
	<stop  offset="0.55" style="stop-color:#37885D"/>
	<stop  offset="0.74" style="stop-color:#4DAB68"/>
	<stop  offset="0.94" style="stop-color:#6AD775"/>
	<stop  offset="0.98" style="stop-color:#72E379"/>
</linearGradient>
<path class="st5" d="M22.7,291.3c0,0,20.1-19.2,41.3-26.7c23.1-11.3,53.6-36.4,90.7-24.8c28.6,10.9,50.1,25.9,62.7,53.7
	c6.2,16.1,7.1,35.7-40,33.1L46,326.8C46,326.8-5.3,322.5,22.7,291.3z"/>
<linearGradient id="SVGID_6_" gradientUnits="userSpaceOnUse" x1="4962.7607" y1="336.6707" x2="4915.3511" y2="499.8307" gradientTransform="matrix(0.74 0 0 -1 -3544.71 700)">
	<stop  offset="7.000000e-02" style="stop-color:#195B4F"/>
	<stop  offset="0.2" style="stop-color:#1C6051"/>
	<stop  offset="0.36" style="stop-color:#266F55"/>
	<stop  offset="0.55" style="stop-color:#37885D"/>
	<stop  offset="0.74" style="stop-color:#4DAB68"/>
	<stop  offset="0.94" style="stop-color:#6AD775"/>
	<stop  offset="0.98" style="stop-color:#72E379"/>
</linearGradient>
<path class="st6" d="M20.7,295.4c0,0,20.4-19.4,41.8-27.1c23.3-11.5,54.2-37.1,91.7-25.2c28.9,11.1,50.6,26.4,63.4,54.6
	c6.2,16.4,7.2,36.3-40.4,33.6l-132.8,0.2C44.4,331.6-7.5,327.1,20.7,295.4z"/>
<linearGradient id="SVGID_7_" gradientUnits="userSpaceOnUse" x1="-3149.0986" y1="404.6164" x2="-3324.9785" y2="821.3364" gradientTransform="matrix(-1 0 0 -1 -2778.73 700)">
	<stop  offset="7.000000e-02" style="stop-color:#195B4F"/>
	<stop  offset="0.2" style="stop-color:#1C6051"/>
	<stop  offset="0.36" style="stop-color:#266F55"/>
	<stop  offset="0.55" style="stop-color:#37885D"/>
	<stop  offset="0.74" style="stop-color:#4DAB68"/>
	<stop  offset="0.94" style="stop-color:#6AD775"/>
	<stop  offset="0.98" style="stop-color:#72E379"/>
</linearGradient>
<path class="st7" d="M609,194.9c-2.6-21.8-9.5-54.7-30.3-81.6c-56.2-72.6-163.7-38.8-198.1-28c-84.9,26.8-139.9,91-166.9,128.4
	l-13.4,12c70.2,14.7,141.7,21.5,213.4,20.5c62.4-1,124.6-7.9,185.7-20.8L609,194.9z"/>
<path class="st1" d="M258.9,305.4c-0.2,0.9-0.5,1.7-0.8,2.6c-0.4,0-0.7,0.1-1.1,0.1c-13.9,0.9-26.5,1.5-37.6,1.9
	c-53.8,1.8-77.2-2.4-84.2-13.6c-6.1-9.7,0.1-24.7,9.6-45.5c18.3-33.9,48.8-44.1,73.5-46.1c0.8-0.1,1.5-0.1,2.2-0.2
	c3.8-0.3,7.5-0.3,11-0.2c9,0.1,17.9,1.2,26.7,3.3c0.7,0.6,1.3,1.4,1.8,2.1c2.6,3.5,7.1,11.8,8.4,27.7c0.1,1.1,0.2,2.2,0.2,3.3
	C269.3,255.6,267.2,276.5,258.9,305.4z"/>
<linearGradient id="SVGID_8_" gradientUnits="userSpaceOnUse" x1="319.2547" y1="324.7346" x2="155.5147" y2="485.0946" gradientTransform="matrix(1 0 0 -1 0 700)">
	<stop  offset="7.000000e-02" style="stop-color:#195B4F"/>
	<stop  offset="0.19" style="stop-color:#1D6151"/>
	<stop  offset="0.36" style="stop-color:#287256"/>
	<stop  offset="0.56" style="stop-color:#3B8F5F"/>
	<stop  offset="0.78" style="stop-color:#55B66B"/>
	<stop  offset="0.98" style="stop-color:#72E379"/>
</linearGradient>
<path class="st8" d="M257.8,305.2c-0.2,0.9-0.5,1.8-0.8,2.8c-0.3,1.1-0.6,2.3-1,3.5c-12.8,0.9-24.3,1.5-34.7,1.9
	c-59.3,2.3-81.8-2.9-86.2-17.1c-3.1-9.8,2.6-24,10.8-42.9c17.7-34.2,46.9-44.7,70.9-46.9l2.3-0.2c3.9-0.3,7.6-0.3,11-0.3
	c8.8,0.1,17.5,1.2,26,3.3c0.7,0.7,1.3,1.5,1.9,2.3c2.4,3.4,6.3,11.1,7.8,25.3c0.1,1.1,0.2,2.2,0.3,3.4
	C267.1,255.1,265.5,276,257.8,305.2z"/>
<path class="st1" d="M592.6,299.4c2.4,0,71-5.7,71-5.7s42.6-10.4,18.2-35.9c-6.4-3.7-11.7-9.1-15.5-15.5c-4.9-8.4-3.6-12.4-6.7-20.1
	c-9.8-24.3-42.9-32.6-42.9-32.6l0,0c0,0-44.8-10.7-78.1,10.4c-3.7,2.4-5.5,3.6-7,5.8c-15.4,23.9,32.5,93.6,32.5,93.6L592.6,299.4z"
	/>
<linearGradient id="SVGID_9_" gradientUnits="userSpaceOnUse" x1="-3367.0312" y1="389.2497" x2="-3423.9211" y2="593.6297" gradientTransform="matrix(-1 0 0 -1 -2778.73 700)">
	<stop  offset="7.000000e-02" style="stop-color:#195B4F"/>
	<stop  offset="0.21" style="stop-color:#2C7858"/>
	<stop  offset="0.46" style="stop-color:#4AA666"/>
	<stop  offset="0.68" style="stop-color:#60C770"/>
	<stop  offset="0.86" style="stop-color:#6DDC77"/>
	<stop  offset="0.98" style="stop-color:#72E379"/>
</linearGradient>
<linearGradient id="SVGID_10_" gradientUnits="userSpaceOnUse" x1="507.73" y1="454.7335" x2="702.3683" y2="454.7335" gradientTransform="matrix(1 0 0 -1 0 700)">
	<stop  offset="0" style="stop-color:#72E379"/>
	<stop  offset="0.15" style="stop-color:#6FDE78"/>
	<stop  offset="0.33" style="stop-color:#66D073"/>
	<stop  offset="0.51" style="stop-color:#57B96C"/>
	<stop  offset="0.7" style="stop-color:#419962"/>
	<stop  offset="0.9" style="stop-color:#277055"/>
	<stop  offset="0.99" style="stop-color:#195B4F"/>
</linearGradient>
<path class="st9" d="M558.2,302.4c2.3,0,129.6-3,129.6-3s23.1-4.1,10.2-29.2c-7.5-12.6-13-22.2-17.5-30.4
	c-4.7-8.4-17.4-21.1-25.9-28.1c-20.9-19.5-61.1-20.8-61.1-20.8l0,0c0,0-43.3-10.8-75.5,10.4c-3.6,2.4-5.4,3.6-6.7,5.8
	c-14.9,24,31.4,93.9,31.4,93.9L558.2,302.4z"/>
<linearGradient id="SVGID_11_" gradientUnits="userSpaceOnUse" x1="205.3473" y1="483.8395" x2="605.0475" y2="483.8395" gradientTransform="matrix(1 0 0 -1 0 700)">
	<stop  offset="0.15" style="stop-color:#3E9360"/>
	<stop  offset="0.18" style="stop-color:#3E9360"/>
	<stop  offset="1" style="stop-color:#3E9360"/>
</linearGradient>
<path class="st10" d="M588.9,235c0,0-39.1-38.2-80.1-53.1c-44.8-22.4-104-72.6-175.9-49.4c-55.5,21.7-97.1,51.6-121.7,107
	c-12,32.2-13.9,71.1,77.6,65.9l254.7,0.5C543.5,305.8,643.1,297.1,588.9,235z"/>
<linearGradient id="SVGID_12_" gradientUnits="userSpaceOnUse" x1="441.0237" y1="316.6769" x2="348.0337" y2="636.7269" gradientTransform="matrix(1 0 0 -1 0 700)">
	<stop  offset="7.000000e-02" style="stop-color:#195B4F"/>
	<stop  offset="0.19" style="stop-color:#1F6552"/>
	<stop  offset="0.4" style="stop-color:#307F5A"/>
	<stop  offset="0.67" style="stop-color:#4CA967"/>
	<stop  offset="0.98" style="stop-color:#72E379"/>
</linearGradient>
<path class="st11" d="M618.3,300.1L618.3,300.1c-0.1,1.2-0.3,2.5-0.6,3.7l0,0c-0.6,2.2-1.4,4.3-2.5,6.3c-12.8,22.3-59,26.3-59,26.3
	h-19.2l-28.6,0h-14h-17.6h-23.3h-13.6h-20.1h-8.8h-14.5h-10.8h-5.5h-24.7h-3l-23.3-0.3l0,0h-15.8l0,0H299h-0.5l-2.2,0.1h-0.1
	c-4,0.2-7.8,0.3-11.5,0.3l0,0c-0.6,0-1.2,0-1.8,0h-1.8c-31-0.2-48.7-6.5-58.1-16l0,0c-1.3-1.3-2.4-2.7-3.4-4.2l0,0
	c-0.8-1.1-1.4-2.2-2-3.4l0,0c-2.7-5.7-3.9-12-3.5-18.4l0,0c0.3-8.5,2.8-17.2,5.8-25.5c4.6-10.5,10.1-20.6,16.5-30.1
	c0.7-1,1.3-2,2-2.9c5.3-7.6,11.2-14.8,17.6-21.4c0.6-0.7,1.3-1.4,2-2.1c7.1-7.1,14.8-13.7,23-19.6c0.6-0.4,1.1-0.8,1.7-1.2
	c17.7-12.6,37.8-22.7,60.2-31.5c4.1-1.3,8.2-2.4,12.2-3.3c63.1-13.7,116.1,26.5,157.7,49.3c2.7,1.5,5.4,2.9,8,4.2
	c2.2,0.8,4.5,1.7,6.7,2.7c13.3,5.7,26.2,13.5,37.4,21.3c1.1,0.7,2.1,1.4,3.1,2.2l0,0c11.9,8.5,23.2,17.8,33.8,27.9l0.6,0.7l0,0
	C614.9,279.4,619.1,290.9,618.3,300.1z"/>
<rect x="-49.7" y="232.8" class="st12" width="819.3" height="409.8"/>
<path class="st13" d="M465.8,494.2c0,0,13.7,12.8,2.1,42C467.8,536.2,454.4,513.4,465.8,494.2z"/>
<path class="st13" d="M404.9,523.5c0,0,13.7,12.8,2.1,42C407,565.5,393.5,542.7,404.9,523.5z"/>
<path class="st13" d="M454.9,501.3c0,0,13.7,12.8,2.1,42C457,543.3,443.5,520.5,454.9,501.3z"/>
<path class="st13" d="M391.4,527c0,0,13.7,12.8,2.1,42C393.4,568.9,380,546.1,391.4,527z"/>
<path class="st13" d="M467.9,617.5c0,0,13.7,12.8,2.1,42C470,659.5,456.6,636.7,467.9,617.5z"/>
<path class="st13" d="M411.6,637.8c0,0,13.7,12.8,2.1,42C413.7,679.8,400.2,657,411.6,637.8z"/>
<path class="st13" d="M455.7,624.6c0,0,13.7,12.8,2.1,42C457.8,666.5,444.3,643.8,455.7,624.6z"/>
<path class="st13" d="M400.8,638.5c0,0,13.7,12.8,2.1,42C402.9,680.5,389.4,657.7,400.8,638.5z"/>
<path class="st14" d="M483.2,481.9c0,0-48.4,47.8-120.3,48.5"/>
<path class="st14" d="M489.8,600.9c0,0-55.7,52.3-113.6,35.3"/>
<path class="st15" d="M484.3,594.8c2.6-1.8,6.1-1.1,8,1.4c3-1.3,6.4,0,7.7,3c0.6,1.4,0.7,3,0.1,4.4c3.5,5,3.5,11.7,0,16.7
	c-1.4,0.9-3,1.2-4.6,0.8c-1.4,2.9-4.9,4.2-7.8,2.8c-0.9-0.5-1.8-1.1-2.3-2c-0.5-0.7-0.8-1.5-0.9-2.3c-3.1,0.8-6.3-1.1-7.2-4.2
	c-0.4-1.6-0.1-3.4,0.8-4.8c-0.5-0.4-1-0.9-1.3-1.4c-1.8-2.7-1.1-6.4,1.6-8.2c1-0.6,2.1-1,3.3-1C481.6,598,482.6,596,484.3,594.8z"/>
<path class="st16" d="M491.8,596.3c2.7-0.4,5.2,1.3,5.7,3.9c2.4,0,4.5,1.8,4.9,4.2c0.2,1.6-0.4,3.2-1.5,4.2c1.1,0.8,1.8,1.9,2,3.3
	c0.3,2.7-1.5,5.1-4.1,5.5c-0.5,2.1-2.2,3.6-4.3,3.8c-1.4,0.2-2.8-0.1-4-1c-0.7,0.5-1.6,0.9-2.5,1c-2.7,0.5-5.3-1.4-5.8-4.1
	c0,0,0,0,0,0c-0.1-0.7,0-1.4,0.2-2.1c-2.6-0.4-4.4-2.9-4-5.5c0.2-1.5,1.2-2.8,2.5-3.5c-0.3-0.5-0.4-1-0.5-1.5
	c-0.3-2.7,1.6-5.2,4.3-5.6c0,0,0,0,0,0c1-0.2,2.1,0,3,0.4C488.5,597.7,490,596.6,491.8,596.3z"/>
<path class="st17" d="M487.1,600.8c2.3-2,5.8-1.8,7.8,0.5c1.1,1.2,1.5,2.9,1.3,4.5c2,2.9,2,6.7,0,9.6c-0.8,0.5-1.7,0.7-2.6,0.5
	c-0.3,0.5-0.7,1-1.2,1.3c-1.5,1-3.6,0.6-4.7-0.9c0,0,0,0,0,0c-0.3-0.4-0.4-0.9-0.5-1.3c-1.8,0.5-3.6-0.6-4.1-2.4
	c-0.2-0.9-0.1-1.9,0.5-2.7c-0.3-0.2-0.6-0.5-0.8-0.8C484.3,606.2,485.7,603.5,487.1,600.8L487.1,600.8z"/>
<path class="st15" d="M372.6,623.8c2.6-1.8,6.1-1.1,8,1.4c3-1.3,6.4,0,7.7,3c0.6,1.4,0.7,3,0.1,4.4c4.6,2.1,6.6,7.6,4.5,12.3
	c-1.6,3.5-5.3,5.6-9.1,5.3c-0.4,1-1.1,1.8-2,2.3c-2.7,1.8-6.3,1.1-8.1-1.6c-0.5-0.7-0.8-1.5-0.9-2.3c-3.1,0.8-6.3-1.1-7.2-4.2
	c-0.4-1.6-0.1-3.4,0.8-4.8c-0.5-0.4-1-0.9-1.3-1.4c-1.8-2.7-1.2-6.3,1.5-8.2c1-0.7,2.2-1,3.3-1C369.9,626.9,370.9,625,372.6,623.8z"
	/>
<path class="st16" d="M380,625.3c2.7-0.4,5.2,1.3,5.7,3.9c2.4,0,4.5,1.8,4.9,4.2c0.2,1.6-0.4,3.2-1.6,4.2c1.1,0.8,1.8,1.9,2,3.3
	c0.3,2.6-1.5,5.1-4.1,5.5c-0.5,2.1-2.2,3.6-4.3,3.8c-1.4,0.2-2.9-0.1-4-1c-0.7,0.6-1.6,0.9-2.5,1c-2.7,0.5-5.3-1.4-5.8-4.1
	c0,0,0,0,0,0c-0.1-0.7,0-1.4,0.2-2.1c-2.6-0.4-4.4-2.9-4-5.5c0.2-1.5,1.2-2.8,2.5-3.5c-0.3-0.5-0.4-1-0.5-1.5
	c-0.3-2.7,1.6-5.2,4.3-5.6c0,0,0,0,0,0c1-0.2,2.1,0,3,0.4C376.7,626.7,378.3,625.6,380,625.3z"/>
<path class="st17" d="M375.3,629.7c1.5-1,3.5-0.7,4.6,0.8c1.9,2.3,4.1,4.2,6.7,5.7c1.8,2.4,1.2,5.9-1.3,7.6c-1,0.7-2.3,1.1-3.6,1
	c-0.8,1.7-2.8,2.4-4.5,1.6c-1-0.5-1.7-1.4-1.9-2.5c-1.8,0.5-3.6-0.6-4.1-2.4c-0.2-0.9-0.1-1.9,0.5-2.8c-0.3-0.2-0.6-0.5-0.8-0.8
	C372.6,635.3,374,632.5,375.3,629.7L375.3,629.7z"/>
<path class="st15" d="M429.5,624.1c2.6-1.8,6.1-1.1,8,1.4c3-1.3,6.4,0,7.7,3c0.6,1.4,0.7,3,0.1,4.4c4.6,2.1,6.7,7.6,4.5,12.2
	c-1.6,3.5-5.3,5.7-9.1,5.4c-1.4,2.9-4.9,4.2-7.8,2.8c-1.7-0.8-3-2.5-3.3-4.4c-3.1,0.8-6.3-1.1-7.2-4.2c-0.4-1.6-0.1-3.4,0.8-4.8
	c-2.6-2-3.1-5.6-1.1-8.2c1.1-1.5,2.9-2.3,4.7-2.3C426.8,627.3,427.8,625.3,429.5,624.1z"/>
<path class="st16" d="M437,625.7c2.7-0.4,5.2,1.3,5.7,3.9c2.4,0,4.5,1.8,4.9,4.2c0.2,1.6-0.4,3.2-1.6,4.2c1.1,0.8,1.8,2,2,3.3
	c0.3,2.7-1.5,5.1-4.1,5.5c-0.5,2-2.2,3.6-4.3,3.8c-1.4,0.2-2.8-0.1-4-1c-0.7,0.6-1.6,0.9-2.5,1c-2.7,0.5-5.3-1.4-5.8-4.1
	c0,0,0,0,0,0c-0.1-0.7,0-1.4,0.2-2.1c-2.6-0.4-4.4-2.9-4-5.5c0.2-1.5,1.2-2.8,2.5-3.5c-0.3-0.5-0.4-1-0.5-1.5
	c-0.3-2.7,1.6-5.2,4.3-5.6c0,0,0,0,0,0c1-0.2,2.1,0,3,0.4C433.7,627.1,435.2,625.9,437,625.7z"/>
<path class="st17" d="M432.3,630.1c2.3-2,5.8-1.8,7.8,0.5c1.1,1.2,1.5,2.9,1.3,4.5c0.9,0.2,1.7,0.7,2.2,1.4c1.8,2.4,1.2,5.9-1.3,7.6
	c-1,0.7-2.3,1.1-3.6,1c-0.8,1.7-2.8,2.4-4.5,1.6c-0.5-0.3-1-0.7-1.3-1.2c-0.3-0.4-0.5-0.9-0.5-1.3c-1.8,0.5-3.6-0.6-4.1-2.4
	c-0.2-0.9-0.1-1.9,0.5-2.8c-0.3-0.2-0.6-0.5-0.8-0.8c-1-1.5-0.6-3.6,0.9-4.7c0.6-0.4,1.2-0.6,1.9-0.6
	C430.7,631.9,431.3,630.7,432.3,630.1z"/>
<path class="st15" d="M473.4,472.9c2.6-1.7,6.1-1.1,8,1.4c3-1.3,6.4,0,7.7,3c0.6,1.4,0.7,3,0.1,4.4c3.2,0.6,5.3,3.6,4.7,6.8
	c-0.3,1.5-1.1,2.8-2.3,3.7c0.8,3.1-1.2,6.3-4.3,7.1c-0.9,0.2-1.9,0.2-2.8,0c-0.4,0.9-1.1,1.8-2,2.4c-2.7,1.8-6.3,1.1-8.2-1.6
	c-0.5-0.7-0.8-1.5-0.9-2.3c-3.1,0.8-6.3-1.1-7.2-4.2c-0.4-1.6-0.1-3.4,0.8-4.8c-0.5-0.4-1-0.9-1.3-1.4c-1.8-2.7-1.1-6.3,1.6-8.1
	c1-0.7,2.1-1,3.3-1C470.7,476,471.7,474,473.4,472.9z"/>
<path class="st16" d="M480.9,474.4c2.7-0.4,5.2,1.3,5.7,3.9c2.4,0,4.5,1.8,4.9,4.2c0.2,1.6-0.4,3.2-1.6,4.2c1.1,0.8,1.8,1.9,2,3.3
	c0.3,2.7-1.5,5.1-4.1,5.5c-0.5,2-2.2,3.6-4.3,3.9c-1.4,0.2-2.9-0.1-4-1c-0.7,0.6-1.6,0.9-2.5,1c-2.7,0.5-5.3-1.4-5.8-4.1
	c0,0,0,0,0,0c-0.1-0.7,0-1.4,0.2-2.1c-2.6-0.4-4.4-2.9-4-5.6c0.3-1.5,1.2-2.8,2.6-3.5c-0.3-0.5-0.4-1-0.5-1.5
	c-0.3-2.7,1.6-5.2,4.3-5.6c0,0,0,0,0,0c1-0.1,2.1,0,3,0.4C477.6,475.8,479.1,474.6,480.9,474.4z"/>
<path class="st17" d="M476.1,478.8c2.3-2,5.8-1.8,7.8,0.5c1.1,1.2,1.5,2.9,1.3,4.5c1.8,0.3,3,2.1,2.7,3.9c-0.2,0.8-0.6,1.6-1.3,2.1
	c0.4,1.8-0.7,3.6-2.5,4c-0.5,0.1-1,0.1-1.5,0c-0.3,0.5-0.7,1-1.2,1.4c-1.5,1-3.6,0.6-4.7-0.9c-0.3-0.4-0.5-0.9-0.5-1.3
	c-1.8,0.5-3.6-0.6-4.1-2.4c-0.2-0.9-0.1-1.9,0.5-2.7c-0.3-0.2-0.6-0.5-0.8-0.8C473.4,484.3,474.8,481.5,476.1,478.8L476.1,478.8z"/>
<path class="st15" d="M423.9,502.8c2.6-1.7,6.1-1.1,8,1.4c3-1.3,6.4,0.1,7.7,3c0.6,1.4,0.6,3,0.1,4.4c3.2,0.6,5.3,3.6,4.7,6.8
	c-0.3,1.5-1.1,2.8-2.3,3.7c0.6,2.4-0.4,4.9-2.4,6.3c-1.4,0.9-3,1.2-4.6,0.8c-1.4,2.9-4.9,4.2-7.9,2.7c-0.9-0.4-1.7-1.1-2.3-1.9
	c-0.5-0.7-0.8-1.5-0.9-2.3c-3.1,0.8-6.3-1.1-7.2-4.2c-0.4-1.6-0.1-3.4,0.8-4.8c-2.6-1.9-3.2-5.6-1.3-8.2c0.4-0.6,0.9-1.1,1.5-1.4
	c1-0.7,2.1-1,3.3-1C421.2,505.9,422.2,504,423.9,502.8z"/>
<path class="st16" d="M431.3,504.3c2.7-0.4,5.2,1.3,5.7,3.9c2.4,0,4.5,1.8,4.9,4.2c0.2,1.6-0.4,3.2-1.5,4.2c1.1,0.8,1.8,1.9,2,3.3
	c0.3,2.7-1.5,5.1-4.1,5.5c-0.5,2-2.2,3.6-4.3,3.8c-1.4,0.2-2.9-0.1-4-1c-0.7,0.6-1.6,0.9-2.5,1c-2.7,0.5-5.3-1.4-5.8-4.1
	c0,0,0,0,0,0c-0.1-0.7,0-1.4,0.2-2.1c-2.6-0.4-4.4-2.9-4-5.5c0.2-1.5,1.2-2.8,2.5-3.5c-0.3-0.5-0.4-1-0.5-1.5
	c-0.3-2.7,1.6-5.2,4.3-5.6c0,0,0,0,0,0c1-0.2,2.1,0,3,0.4C428,505.7,429.5,504.6,431.3,504.3z"/>
<path class="st17" d="M426.6,508.7c2.3-2,5.8-1.8,7.8,0.5c1.1,1.2,1.5,2.9,1.3,4.5c2.6,1.2,3.8,4.4,2.6,7c-0.9,2-3,3.2-5.2,3.1
	c-0.8,1.7-2.8,2.4-4.5,1.6c-0.5-0.3-1-0.6-1.3-1.1c-0.3-0.4-0.4-0.9-0.5-1.3c-1.8,0.5-3.6-0.6-4.1-2.4c-0.2-0.9-0.1-1.9,0.5-2.8
	c-0.3-0.2-0.6-0.5-0.8-0.8C423.8,514.2,425.3,511.5,426.6,508.7L426.6,508.7z"/>
<path class="st15" d="M360.8,518.2c2.6-1.7,6.1-1.1,8,1.4c3-1.3,6.4,0.1,7.7,3c0.6,1.4,0.6,3,0.1,4.4c3.2,0.6,5.3,3.6,4.7,6.8
	c-0.3,1.5-1.1,2.8-2.3,3.7c0.6,2.4-0.4,4.9-2.4,6.3c-1.4,0.9-3,1.2-4.6,0.8c-1.4,2.9-4.9,4.2-7.8,2.8c-1-0.5-1.8-1.2-2.4-2
	c-0.5-0.7-0.8-1.5-0.9-2.3c-3.1,0.8-6.3-1.1-7.2-4.2c-0.4-1.6-0.1-3.4,0.8-4.8c-0.5-0.4-1-0.9-1.3-1.4c-1.8-2.7-1.1-6.3,1.6-8.1
	c0,0,0,0,0,0c1-0.7,2.1-1,3.3-1C358.1,521.4,359.1,519.4,360.8,518.2z"/>
<path class="st16" d="M368.3,519.7c2.7-0.4,5.2,1.3,5.7,3.9c2.4,0,4.5,1.8,4.9,4.2c0.2,1.6-0.4,3.2-1.5,4.2c1.1,0.8,1.8,1.9,2,3.3
	c0.3,2.7-1.5,5.1-4.1,5.5c-0.5,2-2.2,3.6-4.3,3.8c-1.4,0.2-2.9-0.1-4-1c-0.7,0.5-1.6,0.9-2.5,1c-2.7,0.5-5.3-1.4-5.8-4.1
	c0,0,0,0,0,0c-0.1-0.7,0-1.4,0.2-2.1c-2.6-0.4-4.4-2.9-4-5.5c0.2-1.5,1.2-2.8,2.5-3.5c-0.3-0.5-0.4-1-0.5-1.5
	c-0.3-2.7,1.6-5.2,4.3-5.6c0,0,0,0,0,0c1-0.2,2.1,0,3,0.4C364.9,521.1,366.5,519.9,368.3,519.7z"/>
<path class="st17" d="M363.5,524.1c1.5-1,3.5-0.7,4.6,0.8c1.7-0.7,3.7,0,4.4,1.7c0.4,0.8,0.4,1.7,0.1,2.5c0.9,0.2,1.7,0.7,2.2,1.4
	c1.8,2.4,1.2,5.9-1.3,7.6c-1,0.7-2.3,1.1-3.6,1c-0.3,0.5-0.7,1-1.2,1.3c-1.5,1-3.6,0.6-4.7-0.9c0,0,0,0,0,0
	c-0.3-0.4-0.4-0.9-0.5-1.3c-1.8,0.5-3.6-0.6-4.1-2.4c-0.2-0.9-0.1-1.9,0.5-2.8c-0.3-0.2-0.6-0.5-0.8-0.8
	C360.8,529.7,362.2,526.9,363.5,524.1L363.5,524.1z"/>
</svg>
