<?xml version="1.0" encoding="utf-8"?>
<!-- Generator: Adobe Illustrator 25.2.0, SVG Export Plug-In . SVG Version: 6.00 Build 0)  -->
<svg version="1.1" id="Layer_1" xmlns="http://www.w3.org/2000/svg" xmlns:xlink="http://www.w3.org/1999/xlink" x="0px" y="0px"
	 viewBox="0 0 1600 900" style="enable-background:new 0 0 1600 900;" xml:space="preserve">
<style type="text/css">
	.st0{clip-path:url(#SVGID_2_);}
	.st1{fill:url(#SVGID_3_);}
	.st2{opacity:0.62;fill:#91AFC6;enable-background:new    ;}
	.st3{fill:#22A87B;}
	.st4{fill:#3EB66B;}
	.st5{fill:url(#SVGID_4_);}
	.st6{fill:url(#SVGID_5_);}
</style>
<g>
	<defs>
		<rect id="SVGID_1_" width="1600" height="900"/>
	</defs>
	<clipPath id="SVGID_2_">
		<use xlink:href="#SVGID_1_"  style="overflow:visible;"/>
	</clipPath>
	<g class="st0">
		
			<radialGradient id="SVGID_3_" cx="745.99" cy="146.51" r="674.9393" gradientTransform="matrix(1 0 0 -0.93 0 486.5)" gradientUnits="userSpaceOnUse">
			<stop  offset="8.000000e-02" style="stop-color:#FFFF7C"/>
			<stop  offset="0.56" style="stop-color:#FFEA9D"/>
			<stop  offset="1" style="stop-color:#FFDAB6"/>
		</radialGradient>
		<rect x="-128.3" y="-5.9" class="st1" width="1748.6" height="710.6"/>
		<path class="st2" d="M15,584.4L-22.8,681l0.4,0.1c4.2,0.2,8.4,0.7,12.6,1.6c0.6,0.1,1.2,0.3,1.8,0.5v-15h7.7
			c0.1-5.7,0.2-11.7,0.1-16.2c-3.3-0.7-5.8-1.8-6.7-3.1c-1.2-1.9,1.3-3.8,5.1-5.2l1-0.3v-49.5c-18.4-0.1-29-2.7-34.5-6.6l0,0
			c-0.7-0.5-1.4-1.1-2.1-1.7l0,0c-35.2,1-48.6-1.2-51.3-7c-3.6-4,0.1-10.2,5.7-18.7c10.9-14,29-18.1,43.7-19
			c11.7-10.9,24.6-20.4,38.5-28.3V412.3c14.7,5.4,29.4,11,44.1,16.7C98.2,450,152.9,472,207.2,488.6
			c170.6,52.2,356.1,51.3,526.2-2.5c33.7-10.7,68-23.5,103.1-20.5c37.7,3.2,71.4,24.1,106.7,38.1c49,19.3,100.1,24.9,151.5,20.6h0.6
			c20-1.7,39.9-4.8,59.5-9.2c2.6-0.6,5.1-1.2,7.7-1.8c46.8-11.1,93.2-28.8,137.6-50.2l3.6-1.7c24.6-12,48.6-25,71.8-38.6l0.7-0.4
			l1.7-1c24.8-14.6,49.8-30.1,76.2-41.1c15.2-6.3,30.9-11.1,47.3-13.3c136.7-18.5,229.5,139.2,356.7,194.6l0,0
			c2.8,1.2,5.6,2.4,8.4,3.5c10.8,4.3,22,7.8,33.3,10.6c1.8,0.5,3.5,0.9,5.3,1.3l0,0c32.3,7.3,65.3,8.8,98.8,7
			c81.5-4.2,165.6-27.2,248.3-30c5.4-0.2,10.8-0.3,16.2-0.3"/>
		<path class="st3" d="M1624.8,555.2c-0.3-11.5,0.1-23.1,1.1-34.5c0-13.4,1.2-26.8,3.6-39.9c-6.7-3.8-17.1-2-23.3,2.1
			c-6.7,4.5-5.9,10.5-0.6,15.3c-8-0.5-15.2,2.6-19,6.6c-1.1-6.2-2.6-13.3-10.6-17.8c-6.8-3.8-20-5-26.3,0c-7.9,6.3-2,14.9,4.4,20.6
			c-7.4-1.5-16.4,1.3-17.1,6.1c-4.6-1.1-9.4-0.9-13.9,0.5c-2.6,0.7-5,2-6.9,3.8c-4.8-9.6-20.8-19.2-37.8-11.5
			c-17,7.7-3.5,20.2,11.8,24.2c-2,0.5-4,1.1-5.9,2c-7,3.1-12.4,8.6-6.3,13c-3.6,0.6-7,2-9.9,4.1c-1.4-4.2-4.5-7.5-8.5-9.3
			c-1.9-0.9-4-1.5-6.2-1.7c-7.4-0.8-14.1,2-17.8,5.7c-3.9,3.9-5.2,8.5-4.4,12.8c-12.7,3.3-14.1,10.7-12.1,18.2
			c-5.4-0.8-10.1,2.6-13.1,4.7c0.2-7-6.4-19-21.5-12.7c4.2-9.1-0.3-24.5-20.7-24.5c-9.7,0.1-16.7,4.7-18.7,10
			c-6.4-6.1-18.8-4.5-25.8,0.3c-6.7,4.5-5.9,10.5-0.6,15.3c-8-0.5-15.2,2.6-19,6.6c-1.1-6.2-2.6-13.3-10.6-17.8
			c-6.8-3.8-20.1-5-26.3,0c-7.5,6-2.7,14,3.3,19.6c0.4,0.3,0.7,0.7,1.1,1c-1.2-0.2-2.3-0.4-3.5-0.4l0,0c-6.5-0.2-13,2.5-13.6,6.5
			c-7.3-1.9-17,0.3-20.8,4.3c-3.9-7.8-15.2-15.6-28.5-14.1c-3.2,0.4-6.4,1.2-9.3,2.6c-8.3,3.8-9.3,8.7-6.3,13.2
			c-5.7,0.2-13,1.9-18.7,3.1l0,0c-2.4,0.6-4.9,0.9-7.4,0.8c-2.6-0.3-3.7-1.4-3.7-2.9c0-1.7,1.5-3.9,3.7-6.1c4.1-4.3,11.7-9.8,5-13.2
			c-1.3-0.6-2.7-1-4.2-1.2c-6.7-0.8-15.5,1.9-16,2c2.8-3.2,5.5-6.5,8-9.9c7.9-11.1,10.8-20.8-1-24.2c-15.7-4.5-32.7,8.2-44.7,22
			c0,0,2.2-9.9-7.3-12.7c-10.6-3.1-17.7,0.8-22.3,5l-0.5,0.5c4.4-8.9-7.6-11.4-14.9-9.8c2.3-2,4.3-4.2,6.1-6.6
			c1.1-1.6,2.1-3.2,3-4.9c4.9-10.1,2.6-20.5-10.4-23.6c-17.4-4.1-31.8,9.3-41.6,17.4l0,0l-1.3,1c0,0-0.5-0.8-1.5-2.1
			c-3.1-4.2-11.1-12.9-21.9-12.4l0,0c-1.8,0.1-3.7,0.4-5.4,1c-17.3,5.5-16,17.1-14.3,25.4c-12.5-6.3-27.3-0.1-27.9,0.2
			c4.6-7.5,5.2-24.9-13.1-25.5s-21.8,12.1-19.8,19c-11.1-5.9-21.7-7.6-27.5-3.6s-0.9,13.2,6.4,16.8c-10.2-0.4-23.6,0.6-32.5,3.8
			s-13.2,12.2-14.5,15.7c-4.9-5.3-15-10-24.8-1.2c-3.9-6.9-9.2-16-22.1-14.9s-16.1,10.7-14.7,16.1c-0.7-0.5-1.5-1-2.2-1.5
			c-9-6.4-19.3-14.7-33.7-8.6c-0.9,0.4-1.9,0.8-2.7,1.3c-5.7-7.6-21.2-6.9-31.2-0.9c1.6-3.4,0.8-7.5-2-10.1
			c-3.1-2.9-8.7-4.5-16.5-2.9c-14.6,3-16.3,10.8-14.2,18.7c-4.9-0.8-9.3,2-12.3,4.2l-0.8,0.6c0-1-0.1-1.9-0.3-2.9l0,0
			c-0.8-4.4-3.5-8.1-7.5-10.3c-3.4-1.7-8-2-13.8,0.4c4.3-9.1-0.3-24.5-20.7-24.5c-9.7,0.1-16.7,4.7-18.7,10
			c-6.4-6.1-18.8-4.5-25.8,0.3c-6.7,4.5-5.9,10.5-0.6,15.3c-8-0.5-15.3,2.6-19,6.6c-1.1-6.2-2.6-13.3-10.6-17.8
			c-6.8-3.8-20-5-26.3,0c-7.9,6.3-2,14.9,4.4,20.6c-7.4-1.5-16.4,1.3-17.1,6.2c-7.3-1.9-17,0.3-20.8,4.3c-2.7-5.5-9.2-11-17.4-13.2
			c-6.8-1.9-14.1-1.3-20.5,1.7c-12.1,5.5-8.7,13.4-0.2,18.9c-0.5-0.1-1.1-0.1-1.6-0.1c-2.9-0.1-6,0.2-7.8,1.6
			c0.2-3.5-4.6-6.9-10.5-7.4s-12.1,2-13.5,5.4l-1.7-0.3c0.4-1.1,0.2-2.4-0.6-3.3c-1-1.2-2.1-2.2-3.4-3.1c-1.4-1.2-3.2-2.1-5-2.6
			l0.4-0.5c2.8,0.8,5.6,1.3,8.5,1.3c2.5-0.1,5-0.5,7.3-1.2c4.6-1.2,9.3-2.8,11.6-5.4c1-0.9,1.3-2.3,0.8-3.5c-0.7-1.3-2.6-2.3-4.6-3
			c-2.3-0.8-4.8-1.5-7.2-1.8v-0.2c4,0.4,8.1,0.5,12.1,0.1c4-0.4,7.9-1.5,10.3-3.5c0.7-0.5,1.2-1.2,1.4-2c0.2-1.5-1.4-2.8-3.5-3.6
			c-2.3-0.7-4.6-1.2-7-1.4c-1.4-0.2-2.8-0.3-4.2-0.5c2-0.2,3.9-0.8,5.6-1.8c0.6-0.4,1.2-0.8,1.8-1.3l0,0c0.8-0.7,1.5-1.6,2.1-2.5
			c0.4-0.5,0.6-1.1,0.7-1.8c0.2-2.1-2.4-4.1-5.7-4.9c-3.5-0.7-7-0.7-10.5-0.1h-0.1c2.9-1,5.4-2.7,7.4-5c1.1-1,1.9-2.2,2.2-3.7
			c0.5-3.3-4.1-6.2-9-7.7c-6.7-2-13.9-2.4-20.8-1.1c-6.7,1.4-12.3,4.7-14.2,8.7c-0.6,1.5-0.9,3-1,4.6c-2.9-3.2-10.3-4.4-16.2-3.2
			c-5.2,1-10,3.7-13.5,7.6c-2.8-3.3-10.3-4.8-16-3.3l-0.8,0.1c0.1-0.7,0.1-1.4-0.2-2c-1.1-2.2-5.2-3.6-9.1-3.5
			c-3.5,0.1-7,1.3-9.9,3.3c-1.6,1.1-2.9,2.7-3.6,4.5c-0.5-1.4-1.2-2.7-2.2-3.9c-0.5-0.7-1.2-1.3-1.9-1.7c-2.7-1.5-7.2-0.8-9.8,0.7
			s-3.6,3.7-4.8,5.8c-0.1,0.2-0.3,0.3-0.5,0.4c-0.3,0.1-0.6,0.1-0.9,0c-2.7-0.4-5.4-0.6-8.1-0.6c-2.6-0.1-5.1,0.5-7.4,1.7
			c-1.7,0.8-2.7,2.6-2.6,4.5c0.3,1.6,1.2,3.1,2.4,4.2l-0.1,0c-2.9,0.1-5.8,0.5-8.6,1.1l0,0l0,0c-3.7,0.8-7.2,2.2-10.5,4.1
			c0.5-0.5,0.9-1.2,1-2c0-0.1,0-0.2,0.1-0.4c0.5-1.6,0.5-3.2,0-4.8c-0.9-1.7-2.1-3.2-3.5-4.4c-1.7-1.8-3.8-3.1-6.2-3.7
			c-2.1-0.4-4.2-0.3-6.3,0.3c-1.9,0.5-3.7,1.2-5.4,2.1l-0.4-0.2c2.5-2.1,4.5-4.6,5.9-7.5c1.1-2.2,1.6-4.8-0.2-6.8s-5.7-3.3-9.6-3.5
			c-3.8-0.1-7.6,0.5-11.2,1.8c-3.6,1.2-7,3.2-9.8,5.8c0.9-2.9-1.2-6-5.1-7.9c-4.2-2.1-10.2-2.7-15.5-1.9c-2.3,0.2-4.6,0.9-6.7,2
			c-3,1.8-3.9,4.5-3.2,6.9s2.7,4.7,5,6.8h-1.4c-4.5-0.4-9.1,0.2-13.4,1.7c-3.9,1.5-6.7,4.1-6.7,6.9s2.8,5.4,6.6,7.3l-0.3,0.2
			c-6.5-0.8-13.7,1.4-16.3,5c-0.6-2.8-4-5.2-7.6-7.1c-2.8-1.4-6.3-2.8-9.8-2.1c-1.2,0.3-2.4,0.7-3.5,1.2l-7,3.1l-0.3-0.1
			c0.6-0.8,1.1-1.6,1.5-2.5c1.3-2.6,2.5-5.2,1.8-7.9s-4-5.2-8.5-5.5c-3.5-0.1-6.9,0.8-9.8,2.5c-6.2,3.6-9.5,8.8-8.8,14
			c-1.6-0.9-3.4-1.3-5.2-1.1c-2.5,0.3-4.9,1-7.1,2l-3.1,1.3l-0.8-0.4c1.3-0.8,1.9-2.3,1.6-3.8c-0.1-0.5-0.3-0.9-0.6-1.3
			c-0.8-0.9-1.8-1.7-2.9-2.1c-0.4-0.2-0.9-0.3-1.4-0.5c-2.1-0.5-4.3-0.6-6.5-0.3c-1.1,0.1-2.2,0.3-3.2,0.7c-0.2,0.1-0.5,0.1-0.7,0.2
			c-2.8,1-5.4,2.5-7.7,4.4l-1.2-0.4c0.6-1.1,1-2.2,1.3-3.4c0.3-1.2,0.2-2.6-0.2-3.8c-0.5-1.3-1.6-2.4-2.9-2.9
			c-1.3-0.6-2.6-0.9-4-1.1c-1.3-0.1-2.6-0.1-3.8,0h-0.3l0,0c-2.1,0.3-4.1,0.8-6.1,1.5c-0.4,0.1-0.8,0.3-1.1,0.4
			c-0.7,0.3-1.4,0.6-2.1,0.9s-1.3,0.7-2,1l0,0c-1,0.5-1.9,1.2-2.8,1.9l0,0c-1.7,1.4-2.7,3-2.5,4.7c-0.5-0.2-1-0.5-1.5-0.7
			s-0.9-0.3-1.3-0.5l-0.2-0.1c-2.4-0.8-4.9-1.3-7.4-1.4h-0.5c-1.8-0.1-3.5,0-5.3,0.3c-1.5,0.2-2.9,0.7-4.2,1.3l0,0
			c-3.4,1.5-5.6,3.9-5.3,6.4s2.7,4.5,5.9,5.9c3,1.2,6.2,2,9.4,2.3c0.5,0.1,0.9,0.1,1.4,0.2h0.3l-0.2,0.2l-0.3,0.3l-1.2,0.3
			c-3.5,0.9-6.6,2.7-9.1,5.3c-1,1-1.6,2.3-1.6,3.7c0.3,2.7,3.9,4.7,7.8,5.8c0.9,0.3,1.9,0.5,2.9,0.6c1,0.1,2,0.2,3,0.2
			c0.4,0,0.8-0.1,1.2-0.1l0.2,0.5l-1.5,0.3c-1,0.2-2,0.3-3,0.5c-5.6,1-11.1,2.3-16.5,3.7c-2.3,0.5-4.6,1.3-6.7,2.3
			c-0.2,0.1-0.4,0.2-0.5,0.3c-2,1.2-3.3,3-2.7,4.6c0.4,1.2,1.8,2.1,3.5,2.7c1.7,0.6,3.5,0.9,5.4,0.9c3.8-0.1,7.5-0.8,11.1-2l6.5-1.8
			l1.7-0.5l0,0l0.5-0.2l2.7-0.8l0.1,0.2c-0.7,0.4-1.3,0.8-1.9,1.1s-1.1,0.7-1.6,1.1l-0.1,0.1c-0.5,0.4-1,0.8-1.5,1.1
			s-0.9,0.8-1.3,1.2c-1.3,1-2.2,2.4-2.7,3.9c-0.4,1.8,0.9,3.7,3,4.9c0.2,0.1,0.3,0.2,0.5,0.3c0.2,0.1,0.4,0.2,0.5,0.3
			c0.4,0.2,0.9,0.4,1.4,0.5l-0.3,0.7l-1-0.1l-0.8-0.1h-0.6c-2.1-0.2-4.3-0.1-6.4,0.2c-2.6,0.5-5.1,1.7-5.6,3.3
			c-0.1,0.1-0.1,0.3-0.1,0.4c0.1,1,0.5,1.9,1.3,2.5c2,1.8,4.4,3.1,7,3.7l-0.1,0.2c-3.8-0.5-7.9-0.7-11.4,0.4
			c-2.3,0.6-4.3,1.9-5.6,3.8c-0.3,0.5-0.6,1.1-0.7,1.6l0,0c-0.3,1.1-0.3,2.2-0.1,3.3l0,0c0,0.1,0,0.1,0,0.2l0,0h-0.2
			c-0.9-1.3-2.1-2.4-3.6-3l-1-0.4c-2.1-0.8-4.3-1.2-6.6-1.4l0,0l156-3.2C160,614.2,1620.1,638,1624.8,555.2z"/>
		<path class="st4" d="M228.3,754.4c-0.1,0.1-0.2,0.1-0.3,0H228.3z"/>
		<path class="st4" d="M251.5,741.6c-0.1,0-0.2-0.2-0.2-0.3C251.4,741.3,251.5,741.5,251.5,741.6z"/>
		
			<linearGradient id="SVGID_4_" gradientUnits="userSpaceOnUse" x1="891.8223" y1="669.55" x2="891.7023" y2="675.4901" gradientTransform="matrix(1 0 0 -1 0 900)">
			<stop  offset="0" style="stop-color:#907D61"/>
			<stop  offset="0.36" style="stop-color:#6D6B4D"/>
			<stop  offset="0.58" style="stop-color:#5E6345"/>
		</linearGradient>
		<path class="st5" d="M891.7,230.1h-0.8C890.9,230.1,894.2,219.8,891.7,230.1z"/>
		
			<linearGradient id="SVGID_5_" gradientUnits="userSpaceOnUse" x1="872.15" y1="263" x2="872.15" y2="415.0503" gradientTransform="matrix(1 0 0 -1 0 900)">
			<stop  offset="0" style="stop-color:#00394D"/>
			<stop  offset="0.52" style="stop-color:#025A5D"/>
			<stop  offset="0.95" style="stop-color:#047268"/>
		</linearGradient>
		<path class="st6" d="M1811.5,571.1l0.5,51.9L-67.7,637v-25.2l0.2,0.1c1.9,0.2,3.7,0.6,5.4,1.2c1.6,0.5,2.9,1.6,3.7,2.9h0.2
			c-0.4-1.5-0.2-3.1,0.6-4.5c1.1-1.6,2.7-2.8,4.6-3.4c2.8-0.9,6.2-0.7,9.4-0.3l0.1-0.2c-2.2-0.5-4.2-1.6-5.8-3.2
			c-0.6-0.6-1-1.4-1-2.2c0.1-1.6,2.3-2.8,4.7-3.2c2.4-0.3,4.9-0.3,7.3,0l0.3-0.6c-3-1-4.8-3.1-4.5-5.2c0.4-1.3,1.2-2.5,2.3-3.5
			c1.6-1.5,3.4-2.9,5.3-4l-0.1-0.1l-9.4,2.8c-2.9,1-6,1.6-9.1,1.7c-3.2,0-6.6-1.2-7.3-3.2c-0.5-1.4,0.6-3,2.2-4
			c1.9-1.1,3.9-1.8,6-2.3c5.7-1.6,11.4-2.9,17.3-3.9l-0.2-0.5c-2,0.2-4,0-5.9-0.6c-3.2-1-6.2-2.8-6.4-5c0-1.2,0.5-2.4,1.3-3.2
			c2.3-2.5,5.2-4.2,8.4-4.9l0.4-0.5c-3.1-0.2-6.2-1-9.1-2.2c-2.6-1.2-4.6-3.1-4.9-5.2c-0.3-3,3.3-5.8,7.9-6.7
			c4.5-0.8,9.2-0.1,13.2,2c-0.3-3.1,3.5-5.7,7.6-7.5c2-0.9,4-1.5,6.2-1.8c2.2-0.3,4.4,0,6.5,0.9c2.6,1.3,2.9,3.8,2.5,5.9
			c-0.2,1-0.5,2-1,3l0.9,0.3c2-1.8,4.4-3.2,6.9-4.1c3-1,6.2-1,9.1,0.1c1.4,0.5,2.4,1.6,2.9,2.9c0.2,1.3-0.3,2.6-1.3,3.3l0.7,0.3
			l2.5-1.2c1.8-0.9,3.8-1.6,5.8-1.8c1.5-0.1,3,0.2,4.3,1c-0.5-4.5,2.1-9.1,7.2-12.2c2.4-1.6,5.2-2.4,8.1-2.2c3.7,0.3,6.3,2.5,7,4.8
			s-0.5,4.6-1.5,6.8c-0.3,0.8-0.8,1.5-1.3,2.2L43,551l5.7-2.7c0.9-0.5,1.9-0.8,2.9-1.1c2.9-0.5,5.8,0.6,8.1,1.9
			c3,1.7,5.7,3.7,6.2,6.2c2.2-3.2,8.1-5.1,13.4-4.4l0.3-0.2c-3.1-1.6-5.4-3.9-5.4-6.4s2.3-4.7,5.5-6c3.5-1.3,7.3-1.8,11-1.5h1.2
			c-1.9-1.8-3.6-3.8-4.1-6c-0.6-2.4,0.5-4.9,2.7-6.1c1.7-0.9,3.6-1.5,5.5-1.8c4.4-0.7,9.3-0.1,12.8,1.7c3.2,1.7,4.9,4.4,4.2,6.9
			c2.3-2.3,5.1-4,8.1-5.1c2.9-1.1,6.1-1.7,9.2-1.6c3.2,0.1,6.4,1.2,7.9,3.1s1,4,0.1,6c-1.2,2.5-2.8,4.7-4.9,6.6l0.3,0.2
			c1.4-0.7,2.9-1.3,4.4-1.8c1.7-0.5,3.4-0.6,5.2-0.3c2,0.5,3.8,1.6,5.1,3.2c1.2,1.1,2.2,2.4,2.9,3.8c0.4,1.4,0.4,2.8,0,4.2
			c-0.1,0.8-0.4,1.5-0.9,2.1c4.8-2.9,10.2-4.5,15.8-4.6h0.1c-1-1-1.7-2.3-2-3.7c-0.1-1.6,0.7-3.1,2.1-3.9c1.9-1,4-1.5,6.1-1.5
			c2.2,0,4.4,0.2,6.6,0.5c0.2,0.1,0.5,0.1,0.7,0c0.2-0.1,0.3-0.2,0.4-0.4c1-1.8,1.8-3.7,3.9-5s5.8-1.9,8-0.6
			c0.6,0.4,1.2,0.9,1.6,1.5c0.8,1,1.4,2.2,1.8,3.4c0.6-1.6,1.6-2.9,3-3.9c2.3-1.8,5.2-2.8,8.1-2.9c3.2-0.1,6.6,1.1,7.5,3.1
			c0.2,0.6,0.3,1.2,0.2,1.8l0.6-0.1c4.6-1.3,10.8,0,13.1,2.9c2.8-3.4,6.7-5.8,11.1-6.7c4.9-1,10.9,0,13.3,2.9c0-1.4,0.3-2.8,0.8-4.1
			c1.5-3.6,6.2-6.5,11.7-7.7c5.7-1.2,11.5-0.8,17,0.9c4.1,1.3,7.8,3.8,7.4,6.7c-0.3,1.2-0.9,2.3-1.8,3.2c-1.6,1.9-3.7,3.4-6.1,4.3
			l0,0c2.9-0.5,5.8-0.5,8.6,0.1c2.7,0.7,4.9,2.4,4.7,4.3c-0.1,0.5-0.3,1.1-0.6,1.5c-0.8,1.4-1.9,2.5-3.2,3.3c-1.4,0.9-3,1.4-4.6,1.6
			l3.4,0.5c1.9,0.2,3.9,0.6,5.7,1.2c1.7,0.7,3,1.9,2.9,3.2c-0.2,0.7-0.6,1.3-1.2,1.8c-1.9,1.7-5.2,2.7-8.5,3.1
			c-3.3,0.3-6.6,0.2-9.9-0.1v0.2c2,0.3,4,0.9,5.9,1.6c1.6,0.7,3.2,1.5,3.8,2.7c0.4,1,0.1,2.2-0.6,3c-1.9,2.3-5.8,3.7-9.6,4.8
			c-1.9,0.6-4,1-6,1.1c-2.4-0.1-4.7-0.5-7-1.2l-0.3,0.5c1.5,0.4,2.9,1.2,4.1,2.3c1,0.8,2,1.7,2.8,2.7c0.7,0.8,0.9,2,0.5,3l1.4,0.3
			c1.2-3,6.3-5.2,11.1-4.8s8.8,3.4,8.6,6.5c1.5-1.2,4.1-1.5,6.4-1.4c0.5,0,0.9,0.1,1.4,0.1c-7-4.9-9.7-11.8,0.2-16.6
			c13.9-6.7,27.2,1.7,31.1,10.1c3.1-3.5,11.1-5.5,17.1-3.8c0.6-4.2,8-6.7,14.1-5.4c-5.3-5-10.2-12.5-3.7-18.1c5.1-4.4,16-3.4,21.6,0
			c6.6,4,7.8,10.2,8.7,15.6c3.1-3.5,9.1-6.2,15.7-5.8c-4.4-4.2-5-9.4,0.5-13.4c5.8-4.2,16-5.6,21.2-0.3c1.6-4.7,7.4-8.7,15.3-8.8
			c16.8,0,20.5,13.5,17,21.5c12.4-5.5,17.9,5,17.7,11.2c2.5-1.9,6.4-4.9,10.8-4.1c-1.8-6.9-0.4-13.7,11.6-16.4
			c12.2-2.7,17.9,4.8,15.1,11.4c8.1-5.2,21-5.8,25.6,0.8c0.7-0.4,1.5-0.8,2.2-1.2c12.8-5.8,21.7,3.2,29.6,8.9
			c-1.1-4.8,1.5-13.1,12.1-14.1s15,7,18.2,13.1c8.1-7.7,16.4-3.6,20.4,1.1c1.1-3,4.6-11,12-13.8s18.3-3.7,26.8-3.3
			c-6-3.1-10-11.2-5.2-14.7s13.4-2,22.6,3.2c-1.7-6.1,1.2-17.2,16.3-16.7s14.5,15.8,10.8,22.4c0.5-0.2,12.6-5.7,22.9-0.1
			c-1.4-7.2-2.4-17.5,11.8-22.3s23.7,11.9,23.7,11.9c8-6.9,20.3-19.9,35.2-16.2s12.6,20.1,1.1,30.8c6-1.4,15.9,0.8,12.3,8.6
			c3.8-3.9,9.7-7.6,18.7-4.8c7.8,2.4,6,11.1,6,11.1c9.9-12,23.8-23.2,36.7-19.2c12.6,3.8,4.9,17.1-5.7,30c0.5-0.2,11.3-3.7,16.6-0.8
			s-0.7,7.9-4.1,11.6s-4.6,7.3,0,7.9c3.7,0.5,14.2-3.2,21.5-3.4c-2.4-4-1.6-8.3,5.2-11.6c14-6.7,27.2,1.7,31.1,10.1
			c3.1-3.5,11.1-5.5,17.1-3.8c0.6-4.2,8-6.7,14.1-5.4c-5.3-5-10.2-12.5-3.6-18.1c5.1-4.4,16-3.4,21.6,0c6.6,4,7.8,10.2,8.7,15.6
			c3.1-3.5,9.1-6.2,15.7-5.8c-4.4-4.2-5-9.4,0.5-13.4c5.8-4.2,16-5.6,21.2-0.3c1.6-4.7,7.4-8.7,15.3-8.8c16.8,0,20.5,13.5,17,21.5
			c12.4-5.5,17.9,5,17.7,11.2c2.5-1.9,6.4-4.8,10.8-4.1c-1.7-6.5-0.5-13,9.9-15.9c-0.7-4.1,0.7-8.3,3.6-11.2c3.8-3.8,9.2-5.6,14.6-5
			c5.6,0.5,10.3,4.3,12,9.7c2.4-1.8,5.2-3,8.2-3.6c-6.3-4.9,2.7-11.3,10.1-13.1c-12.6-3.5-23.6-14.5-9.7-21.2s27.2,1.7,31.1,10.1
			c3.1-3.5,11.1-5.5,17.1-3.8c0.6-4.2,8-6.7,14.1-5.4c-5.3-5-10.2-12.5-3.7-18.1c5.1-4.4,16-3.4,21.6,0c6.6,3.9,7.8,10.2,8.7,15.6
			c3.1-3.5,9.1-6.2,15.7-5.8c-4.4-4.2-5-9.4,0.5-13.4c5.8-4.2,16-5.6,21.2-0.3c1.6-4.7,7.4-8.7,15.3-8.8c16.8,0,20.5,13.5,17,21.5
			c12.4-5.5,17.9,5,17.7,11.2c2.5-1.9,6.3-4.8,10.8-4.1c-1.8-6.9-0.4-13.7,11.7-16.4c12.2-2.7,17.9,4.8,15.2,11.4
			c9-5.8,23.9-6,26.9,3.2c2.8,8.5-4.5,18.2-13.9,24.2c9.3-0.5,18.5,1.3,26.9,5.3c-0.5-2.2-1.1-4.9,1.5-6.6c2.9-2,8.2-1.9,12-1.3
			c5.9,1,8.9,3.6,10.8,7c0.7-0.1,1.3-0.2,2-0.2c5.1-4.5,11.7-7,18.5-7c5.6,0,10.7,1.3,13.6,4c0.9-0.2,1.9-0.4,2.8-0.5
			c10.6-1,15,7,18.2,13.1c8.1-7.7,16.4-3.6,20.4,1.1c1.1-3,4.7-11,12-13.7s18.3-3.7,26.8-3.3c-6-3.1-10-11.2-5.3-14.7
			s13.4-2,22.6,3.2c-1.7-6.1,1.2-17.2,16.2-16.7s14.5,15.8,10.8,22.4c0.5-0.2,12.6-5.7,22.9-0.1c-1.4-7.2-2.4-17.5,11.8-22.3
			s23.7,11.9,23.7,11.9c8-6.9,20.3-19.9,35.2-16.1s12.6,20.1,1.1,30.8c6-1.4,15.9,0.8,12.3,8.6c3.8-3.8,9.7-7.6,18.7-4.8
			c7.8,2.4,6,11.1,6,11.1c9.9-12,23.8-23.2,36.7-19.2c12.6,3.8,4.9,17.1-5.7,30c0.5-0.2,11.3-3.7,16.6-0.8s-0.7,7.9-4.2,11.6
			s-4.6,7.3,0,7.9s20-5.4,26.2-2.8c5.7,2.3,7.2,6.3,7.1,11.1c1.1-0.5,2.2-0.8,3.4-0.9c1.3-0.9,2.7-1.6,4.1-2.3c0-0.2,0-0.4,0-0.7
			c0.3-1.7,2.5-3.2,5.2-3.5c1.4-0.2,2.8-0.1,4.2,0.2l0.4-0.6c-1.1-0.3-2.1-0.7-3-1.3c-1.5-1-2.2-2.5-1.1-3.7
			C1805,570.4,1808.6,570.6,1811.5,571.1z"/>
	</g>
</g>
</svg>
