<svg id="Layer_1" data-name="Layer 1" xmlns="http://www.w3.org/2000/svg" viewBox="0 0 1183.97 266.05"><defs><style>.cls-1,.cls-9{fill:none;}.cls-1{stroke:#c47d4d;stroke-width:2px;}.cls-1,.cls-2,.cls-3,.cls-4,.cls-5,.cls-6,.cls-7,.cls-8{stroke-miterlimit:10;}.cls-2,.cls-4{fill:#a373ff;stroke:#7544aa;}.cls-2,.cls-3{opacity:0.72;}.cls-3{fill:#ff76dc;stroke:#a845a1;}.cls-5{fill:#eda651;}.cls-5,.cls-6,.cls-7{stroke:#d3592f;}.cls-5,.cls-6,.cls-7,.cls-8{stroke-width:0.25px;}.cls-6{fill:#f79063;}.cls-7{fill:#ffe07d;}.cls-8{fill:#32874c;stroke:#3b5b1e;}</style></defs><path class="cls-1" d="M33.68,131.69s19.13,16.83,57.13,5.8c0,0,395.79,93.6,987.77-35.66,0,0,40.82,10.79,77.06-21.59"/><path class="cls-1" d="M165,38.12a25.49,25.49,0,0,1,13.72,4.69c123.82,44.58,689.59,70.92,851.14,4.34,0,0,19.9,13,37.15-.11"/><path class="cls-2" d="M193.7,47.53l25.39,6.15s-17.4,21.94-13.36,33.71C205.73,87.39,190.34,72.61,193.7,47.53Z"/><path class="cls-3" d="M244.89,58.79l25.83,4S255.27,86.09,260.3,97.47C260.3,97.47,243.7,84.07,244.89,58.79Z"/><path class="cls-2" d="M297.33,67.08l26,2.77s-14.37,24-8.84,35.17C314.46,105,297.28,92.38,297.33,67.08Z"/><path class="cls-3" d="M350.5,72.77l26,2.37s-14,24.25-8.29,35.3C368.22,110.44,350.84,98.07,350.5,72.77Z"/><path class="cls-2" d="M403.1,77.56l26.06,1.84s-13.5,24.53-7.56,35.46C421.6,114.86,404,102.85,403.1,77.56Z"/><path class="cls-3" d="M452.52,81l26.08,1.58s-13.26,24.66-7.21,35.53C471.39,118.06,453.64,106.23,452.52,81Z"/><path class="cls-3" d="M569,85.89l26.08,1.58s-13.26,24.66-7.21,35.54C587.86,123,570.11,111.17,569,85.89Z"/><path class="cls-4" d="M511.29,83.94l26.12.85s-12.57,25-6.22,35.72C531.19,120.51,513.11,109.17,511.29,83.94Z"/><path class="cls-4" d="M629.3,87.39l26.12.1s-11.84,25.37-5.19,35.89C650.23,123.38,631.84,112.56,629.3,87.39Z"/><path class="cls-3" d="M685.68,87.13l26.13,0s-11.7,25.43-5,35.91C706.82,123,688.37,112.29,685.68,87.13Z"/><path class="cls-2" d="M746.49,86.55l26.09-1.38s-10.38,26-3.14,36.13C769.44,121.3,750.46,111.54,746.49,86.55Z"/><path class="cls-3" d="M801.93,84,828,82.48s-10.22,26.07-2.92,36.15C825.09,118.63,806.05,109,801.93,84Z"/><path class="cls-2" d="M854.17,80.39l26-2.41s-9.35,26.4-1.72,36.22C878.46,114.2,859.12,105.2,854.17,80.39Z"/><path class="cls-3" d="M902.53,75.46l25.85-3.8s-7.92,26.86.22,36.26C928.6,107.92,908.8,100,902.53,75.46Z"/><path class="cls-2" d="M952.27,68.29,977.85,63s-6.33,27.27,2.36,36.18C980.21,99.16,960,92.39,952.27,68.29Z"/><path class="cls-5" d="M145.85,143.76a5.88,5.88,0,0,0-5.62-5.87,5.87,5.87,0,0,0-10.55-2.38,5.88,5.88,0,0,0-10.09,3.79,5.88,5.88,0,0,0-2,9.83,5.88,5.88,0,0,0,5,8.87,5.93,5.93,0,0,0,2.46-.53,5.88,5.88,0,0,0,11,.21,5.82,5.82,0,0,0,1.92.32,5.88,5.88,0,0,0,4.87-9.17A5.87,5.87,0,0,0,145.85,143.76Z"/><path class="cls-6" d="M140.42,138.43a5,5,0,0,0-6.45-2.57,5,5,0,0,0-6.18-1.69,4.86,4.86,0,0,0-2.66,3.66,4.79,4.79,0,0,0-3.85.13,5,5,0,0,0-2.29,6.52,5.13,5.13,0,0,0-.8,5.73,5.24,5.24,0,0,0,3.07,2.7,5.31,5.31,0,0,0,.52,2.65,5,5,0,0,0,6.65,2.48,4.75,4.75,0,0,0,1.65-1.32,4.83,4.83,0,0,0,8.35-3.83,4.62,4.62,0,0,0,1.56-.44,5,5,0,0,0,2.19-6.76,5.31,5.31,0,0,0-2-2.22A5.15,5.15,0,0,0,140.42,138.43Z"/><path class="cls-7" d="M139.39,144.81a3.36,3.36,0,0,0-3.21-3.36,3.36,3.36,0,0,0-6-1.36,3.36,3.36,0,0,0-5.77,2.16,3.37,3.37,0,0,0-1.11,5.63,3.36,3.36,0,0,0,2.89,5.07,3.49,3.49,0,0,0,1.41-.3,3.36,3.36,0,0,0,6.29.12,3.3,3.3,0,0,0,1.1.18,3.35,3.35,0,0,0,2.78-5.24A3.38,3.38,0,0,0,139.39,144.81Z"/><path class="cls-5" d="M195.1,151.43a5.88,5.88,0,0,0-5.62-5.87,5.88,5.88,0,0,0-10.55-2.39A5.88,5.88,0,0,0,168.84,147a5.89,5.89,0,0,0-2,9.84,5.87,5.87,0,0,0,7.51,8.33,5.88,5.88,0,0,0,11,.22,5.82,5.82,0,0,0,1.92.32,5.88,5.88,0,0,0,4.87-9.17A5.87,5.87,0,0,0,195.1,151.43Z"/><path class="cls-6" d="M189.67,146.09a5,5,0,0,0-6.45-2.56,5,5,0,0,0-6.18-1.69,4.82,4.82,0,0,0-2.66,3.66,4.79,4.79,0,0,0-3.85.13,5,5,0,0,0-2.29,6.51,5.13,5.13,0,0,0-.8,5.73,5.26,5.26,0,0,0,3.07,2.71,5.31,5.31,0,0,0,.52,2.65,5,5,0,0,0,6.65,2.48,4.87,4.87,0,0,0,1.65-1.32,4.84,4.84,0,0,0,8.35-3.83,4.64,4.64,0,0,0,1.56-.45,5,5,0,0,0,2.19-6.75,5.26,5.26,0,0,0-2-2.22A5.17,5.17,0,0,0,189.67,146.09Z"/><path class="cls-7" d="M188.64,152.47a3.36,3.36,0,0,0-3.21-3.36,3.36,3.36,0,0,0-6-1.36,3.36,3.36,0,0,0-5.77,2.17,3.36,3.36,0,0,0-2.19,3.15,3.32,3.32,0,0,0,1.08,2.47,3.36,3.36,0,0,0,4.3,4.77,3.36,3.36,0,0,0,6.29.13,3.57,3.57,0,0,0,1.1.18,3.36,3.36,0,0,0,3.36-3.36,3.4,3.4,0,0,0-.58-1.89A3.36,3.36,0,0,0,188.64,152.47Z"/><path class="cls-5" d="M249.18,159.53a5.87,5.87,0,0,0-5.62-5.87A5.88,5.88,0,0,0,233,151.27a5.88,5.88,0,0,0-10.08,3.79,5.89,5.89,0,0,0-2,9.84,5.87,5.87,0,0,0,7.51,8.33,5.88,5.88,0,0,0,11,.22,5.82,5.82,0,0,0,1.92.32,5.86,5.86,0,0,0,4.86-9.17A5.87,5.87,0,0,0,249.18,159.53Z"/><path class="cls-6" d="M243.76,154.2a5,5,0,0,0-6.45-2.57,5,5,0,0,0-6.19-1.69,4.85,4.85,0,0,0-2.65,3.66,4.79,4.79,0,0,0-3.85.13,5,5,0,0,0-2.29,6.51,5.12,5.12,0,0,0-.8,5.73,5.26,5.26,0,0,0,3.07,2.71,5.21,5.21,0,0,0,.52,2.65,5,5,0,0,0,6.65,2.48,4.74,4.74,0,0,0,1.64-1.32,4.84,4.84,0,0,0,8.36-3.83,4.64,4.64,0,0,0,1.56-.45,5,5,0,0,0,2.19-6.75,5.26,5.26,0,0,0-2-2.22A5.18,5.18,0,0,0,243.76,154.2Z"/><path class="cls-7" d="M242.73,160.57a3.36,3.36,0,0,0-3.21-3.36,3.36,3.36,0,0,0-6-1.36,3.36,3.36,0,0,0-5.77,2.17,3.37,3.37,0,0,0-2.2,3.15,3.33,3.33,0,0,0,1.09,2.47,3.36,3.36,0,0,0,4.3,4.77,3.36,3.36,0,0,0,6.29.13,3.3,3.3,0,0,0,1.1.18,3.36,3.36,0,0,0,3.36-3.36,3.4,3.4,0,0,0-.58-1.89A3.36,3.36,0,0,0,242.73,160.57Z"/><path class="cls-5" d="M310.32,162.72a5.88,5.88,0,0,0-5.62-5.87,5.88,5.88,0,0,0-10.55-2.39,5.88,5.88,0,0,0-10.09,3.79,5.89,5.89,0,0,0-1.95,9.84,5.88,5.88,0,0,0,5.06,8.87,5.74,5.74,0,0,0,2.45-.54,5.88,5.88,0,0,0,11,.22,5.88,5.88,0,0,0,6.79-8.85A5.87,5.87,0,0,0,310.32,162.72Z"/><path class="cls-6" d="M304.89,157.39a5,5,0,0,0-6.45-2.57,5,5,0,0,0-6.18-1.69,4.84,4.84,0,0,0-2.66,3.66,4.79,4.79,0,0,0-3.85.13,5,5,0,0,0-2.29,6.51,5.14,5.14,0,0,0-.8,5.73,5.26,5.26,0,0,0,3.07,2.71,5.31,5.31,0,0,0,.52,2.65A5,5,0,0,0,292.9,177a4.78,4.78,0,0,0,1.65-1.32,4.84,4.84,0,0,0,8.35-3.83,4.76,4.76,0,0,0,1.57-.45,5,5,0,0,0,2.18-6.75,5.26,5.26,0,0,0-2-2.22A5.15,5.15,0,0,0,304.89,157.39Z"/><path class="cls-7" d="M303.86,163.76a3.35,3.35,0,0,0-3.21-3.35,3.36,3.36,0,0,0-6-1.37,3.36,3.36,0,0,0-5.77,2.17,3.37,3.37,0,0,0-1.11,5.63,3.3,3.3,0,0,0-.47,1.71,3.36,3.36,0,0,0,4.77,3,3.36,3.36,0,0,0,6.29.13,3.3,3.3,0,0,0,1.1.18,3.36,3.36,0,0,0,3.36-3.36,3.33,3.33,0,0,0-.58-1.89A3.34,3.34,0,0,0,303.86,163.76Z"/><path class="cls-5" d="M365.54,167.67a5.88,5.88,0,0,0-5.62-5.87,5.87,5.87,0,0,0-10.55-2.38,5.87,5.87,0,0,0-10.08,3.79,5.88,5.88,0,0,0-2,9.83,5.88,5.88,0,0,0,7.51,8.34,5.87,5.87,0,0,0,11,.21,5.87,5.87,0,0,0,6.78-8.85A5.86,5.86,0,0,0,365.54,167.67Z"/><path class="cls-6" d="M360.12,162.34a5,5,0,0,0-6.45-2.56,5,5,0,0,0-6.19-1.69,4.83,4.83,0,0,0-2.65,3.65,4.79,4.79,0,0,0-3.85.14,5,5,0,0,0-2.29,6.51,5.12,5.12,0,0,0-.8,5.73,5.24,5.24,0,0,0,3.07,2.7,5.24,5.24,0,0,0,.52,2.66,5,5,0,0,0,6.65,2.47,4.6,4.6,0,0,0,1.64-1.31,4.84,4.84,0,0,0,8.36-3.84,4.62,4.62,0,0,0,1.56-.44,5,5,0,0,0,2.19-6.75,5.34,5.34,0,0,0-2-2.23A5.17,5.17,0,0,0,360.12,162.34Z"/><path class="cls-7" d="M359.09,168.72a3.36,3.36,0,0,0-3.21-3.36,3.36,3.36,0,0,0-6-1.36,3.36,3.36,0,0,0-5.77,2.17,3.36,3.36,0,0,0-1.11,5.62,3.36,3.36,0,0,0,4.3,4.77,3.36,3.36,0,0,0,6.29.12,3.3,3.3,0,0,0,1.1.19,3.37,3.37,0,0,0,3.36-3.36,3.4,3.4,0,0,0-.58-1.89A3.36,3.36,0,0,0,359.09,168.72Z"/><path class="cls-5" d="M426.3,169.88a5.88,5.88,0,0,0-5.62-5.87,5.87,5.87,0,0,0-10.55-2.38,5.87,5.87,0,0,0-10.08,3.79,5.87,5.87,0,0,0-1.95,9.83,5.88,5.88,0,0,0,5,8.88,5.94,5.94,0,0,0,2.46-.54,5.87,5.87,0,0,0,11,.21,5.88,5.88,0,0,0,6.78-8.85A5.87,5.87,0,0,0,426.3,169.88Z"/><path class="cls-6" d="M420.88,164.55a5,5,0,0,0-6.46-2.56,5,5,0,0,0-6.18-1.7,4.82,4.82,0,0,0-2.65,3.66,4.85,4.85,0,0,0-3.86.13,5,5,0,0,0-2.29,6.52,5.13,5.13,0,0,0-.79,5.73,5.21,5.21,0,0,0,3.07,2.7,5.24,5.24,0,0,0,.52,2.66,5,5,0,0,0,6.65,2.47,4.63,4.63,0,0,0,1.64-1.32,4.83,4.83,0,0,0,8.35-3.83,4.61,4.61,0,0,0,1.57-.44,5,5,0,0,0,2.19-6.76,5.31,5.31,0,0,0-2-2.22A5.17,5.17,0,0,0,420.88,164.55Z"/><path class="cls-7" d="M419.85,170.93a3.37,3.37,0,0,0-3.21-3.36,3.36,3.36,0,0,0-6-1.36,3.36,3.36,0,0,0-5.77,2.16,3.38,3.38,0,0,0-2.2,3.16,3.33,3.33,0,0,0,1.09,2.47,3.36,3.36,0,0,0,2.89,5.08,3.3,3.3,0,0,0,1.4-.31,3.37,3.37,0,0,0,6.3.12,3.29,3.29,0,0,0,1.09.19,3.37,3.37,0,0,0,3.37-3.36,3.4,3.4,0,0,0-.58-1.89A3.38,3.38,0,0,0,419.85,170.93Z"/><path class="cls-5" d="M476.31,171a5.88,5.88,0,0,0-5.61-5.87,5.87,5.87,0,0,0-10.55-2.38,5.88,5.88,0,0,0-10.09,3.79,5.88,5.88,0,0,0-1.95,9.83,5.88,5.88,0,0,0,7.51,8.34,5.87,5.87,0,0,0,11,.21,5.86,5.86,0,0,0,7.8-5.55,5.93,5.93,0,0,0-1-3.3A5.85,5.85,0,0,0,476.31,171Z"/><path class="cls-6" d="M470.89,165.7a5,5,0,0,0-6.45-2.56,5,5,0,0,0-6.19-1.69,4.83,4.83,0,0,0-2.65,3.65,4.83,4.83,0,0,0-3.85.13,5,5,0,0,0-2.29,6.52,5.13,5.13,0,0,0-.8,5.73,5.24,5.24,0,0,0,3.07,2.7,5.35,5.35,0,0,0,.52,2.66,5,5,0,0,0,6.65,2.47,4.84,4.84,0,0,0,1.65-1.31,4.84,4.84,0,0,0,8.35-3.84,4.62,4.62,0,0,0,1.56-.44,5,5,0,0,0,2.19-6.75,5.34,5.34,0,0,0-2-2.23A5.15,5.15,0,0,0,470.89,165.7Z"/><path class="cls-7" d="M469.86,172.08a3.36,3.36,0,0,0-3.21-3.36,3.36,3.36,0,0,0-6-1.36,3.36,3.36,0,0,0-5.77,2.17,3.36,3.36,0,0,0-1.11,5.62,3.36,3.36,0,0,0,4.3,4.77,3.36,3.36,0,0,0,6.29.12,3.3,3.3,0,0,0,1.1.19,3.37,3.37,0,0,0,3.36-3.36,3.4,3.4,0,0,0-.58-1.89A3.36,3.36,0,0,0,469.86,172.08Z"/><path class="cls-5" d="M543.37,167.5a5.88,5.88,0,0,0-5.62-5.87,5.87,5.87,0,0,0-10.55-2.38A5.87,5.87,0,0,0,517.12,163a5.88,5.88,0,0,0-2,9.83,5.88,5.88,0,0,0,7.51,8.34,5.87,5.87,0,0,0,11,.21,5.87,5.87,0,0,0,6.78-8.85A5.86,5.86,0,0,0,543.37,167.5Z"/><path class="cls-6" d="M538,162.17a5,5,0,0,0-6.45-2.56,5,5,0,0,0-6.19-1.69,4.83,4.83,0,0,0-2.65,3.65,4.79,4.79,0,0,0-3.85.14,5,5,0,0,0-2.29,6.51,5.12,5.12,0,0,0-.8,5.73,5.24,5.24,0,0,0,3.07,2.7,5.24,5.24,0,0,0,.52,2.66,5,5,0,0,0,6.65,2.47,4.6,4.6,0,0,0,1.64-1.31,4.84,4.84,0,0,0,8.36-3.84,4.62,4.62,0,0,0,1.56-.44,5,5,0,0,0,2.19-6.75,5.34,5.34,0,0,0-2-2.23A5.17,5.17,0,0,0,538,162.17Z"/><path class="cls-7" d="M536.92,168.55a3.36,3.36,0,0,0-3.21-3.36,24.67,24.67,0,0,1-8.45-2.38A3.36,3.36,0,0,0,521.9,166a3.36,3.36,0,0,0-1.11,5.62,3.36,3.36,0,0,0,4.3,4.77,3.36,3.36,0,0,0,6.29.12,3.3,3.3,0,0,0,1.1.19,3.37,3.37,0,0,0,3.36-3.36,3.4,3.4,0,0,0-.58-1.89A3.36,3.36,0,0,0,536.92,168.55Z"/><path class="cls-5" d="M601.26,167.5a5.88,5.88,0,0,0-5.62-5.87,5.87,5.87,0,0,0-10.55-2.38A5.88,5.88,0,0,0,575,163a5.88,5.88,0,0,0-2,9.83,5.88,5.88,0,0,0,7.51,8.34,5.87,5.87,0,0,0,11,.21,5.88,5.88,0,0,0,6.79-8.85A5.86,5.86,0,0,0,601.26,167.5Z"/><path class="cls-6" d="M595.83,162.17a5,5,0,0,0-6.45-2.56,5,5,0,0,0-6.18-1.69,4.82,4.82,0,0,0-2.66,3.65,4.79,4.79,0,0,0-3.85.14,5,5,0,0,0-2.29,6.51,5.11,5.11,0,0,0-.79,5.73,5.19,5.19,0,0,0,3.06,2.7,5.35,5.35,0,0,0,.52,2.66,5,5,0,0,0,6.65,2.47,4.64,4.64,0,0,0,1.65-1.31,4.84,4.84,0,0,0,8.35-3.84,4.74,4.74,0,0,0,1.57-.44,5,5,0,0,0,2.18-6.75,5.28,5.28,0,0,0-2-2.23A5.15,5.15,0,0,0,595.83,162.17Z"/><path class="cls-7" d="M594.8,168.55a3.36,3.36,0,0,0-3.21-3.36,24.67,24.67,0,0,1-8.45-2.38,3.35,3.35,0,0,0-3.35,3.19,3.36,3.36,0,0,0-1.12,5.62,3.36,3.36,0,0,0,4.3,4.77,3.36,3.36,0,0,0,6.29.12,3.3,3.3,0,0,0,1.1.19,3.36,3.36,0,0,0,3.36-3.36,3.33,3.33,0,0,0-.58-1.89A3.34,3.34,0,0,0,594.8,168.55Z"/><path class="cls-5" d="M670.47,163.23a5.87,5.87,0,0,0-5.62-5.87A5.88,5.88,0,0,0,654.3,155a5.88,5.88,0,0,0-10.08,3.79,5.87,5.87,0,0,0-2,9.84,5.87,5.87,0,0,0,7.51,8.33,5.88,5.88,0,0,0,11,.22,5.82,5.82,0,0,0,1.92.32,5.86,5.86,0,0,0,4.86-9.17A5.87,5.87,0,0,0,670.47,163.23Z"/><path class="cls-6" d="M665.05,157.89a5,5,0,0,0-6.46-2.56,5,5,0,0,0-6.18-1.69,4.8,4.8,0,0,0-2.65,3.66,4.79,4.79,0,0,0-3.85.13,5,5,0,0,0-2.3,6.51,5.13,5.13,0,0,0-.79,5.73,5.23,5.23,0,0,0,3.07,2.71,5.21,5.21,0,0,0,.52,2.65,5,5,0,0,0,6.65,2.48,4.74,4.74,0,0,0,1.64-1.32,4.84,4.84,0,0,0,8.35-3.83,4.63,4.63,0,0,0,1.57-.45,5,5,0,0,0,2.19-6.75,5.26,5.26,0,0,0-2-2.22A5.19,5.19,0,0,0,665.05,157.89Z"/><path class="cls-7" d="M664,164.27a3.37,3.37,0,0,0-3.21-3.36,24.67,24.67,0,0,1-8.45-2.38,3.36,3.36,0,0,0-3.36,3.19,3.37,3.37,0,0,0-2.2,3.15,3.33,3.33,0,0,0,1.09,2.47,3.36,3.36,0,0,0,2.89,5.08,3.26,3.26,0,0,0,1.4-.31,3.37,3.37,0,0,0,6.3.13,3.56,3.56,0,0,0,1.09.18,3.36,3.36,0,0,0,3.37-3.36,3.4,3.4,0,0,0-.58-1.89A3.36,3.36,0,0,0,664,164.27Z"/><path class="cls-5" d="M735.4,156.87a5.88,5.88,0,0,0-5.62-5.87,5.87,5.87,0,0,0-10.55-2.38,5.88,5.88,0,0,0-10.09,3.79,5.88,5.88,0,0,0-1.95,9.83,5.88,5.88,0,0,0,7.51,8.34,5.87,5.87,0,0,0,11,.21,5.88,5.88,0,0,0,6.79-8.85A5.87,5.87,0,0,0,735.4,156.87Z"/><path class="cls-6" d="M730,151.54a5,5,0,0,0-6.45-2.57,5,5,0,0,0-6.18-1.69,4.86,4.86,0,0,0-2.66,3.66,4.83,4.83,0,0,0-3.85.13,5,5,0,0,0-2.29,6.52,5.13,5.13,0,0,0-.8,5.73,5.24,5.24,0,0,0,3.07,2.7,5.37,5.37,0,0,0,.52,2.66,5,5,0,0,0,6.65,2.47,4.66,4.66,0,0,0,1.65-1.32A4.83,4.83,0,0,0,728,166a4.74,4.74,0,0,0,1.57-.44,5,5,0,0,0,2.18-6.76,5.31,5.31,0,0,0-2-2.22A5.15,5.15,0,0,0,730,151.54Z"/><path class="cls-7" d="M728.94,157.92a3.36,3.36,0,0,0-3.21-3.36,24.2,24.2,0,0,1-8.45-2.39,3.37,3.37,0,0,0-3.36,3.19,3.37,3.37,0,0,0-2.19,3.16,3.32,3.32,0,0,0,1.08,2.47,3.32,3.32,0,0,0-.47,1.71,3.36,3.36,0,0,0,3.36,3.37,3.5,3.5,0,0,0,1.41-.31,3.36,3.36,0,0,0,6.29.12,3.3,3.3,0,0,0,1.1.19,3.37,3.37,0,0,0,3.36-3.37,3.29,3.29,0,0,0-.58-1.88A3.36,3.36,0,0,0,728.94,157.92Z"/><path class="cls-5" d="M778.1,141.86a5.88,5.88,0,0,0-8,1.4,5.87,5.87,0,0,0-7.86,7.43,5.87,5.87,0,0,0-2.47,10.48,5.86,5.86,0,0,0,7.07,7.1A5.87,5.87,0,0,0,777,169a5.74,5.74,0,0,0,.92-2.34,5.87,5.87,0,0,0,6.31-9,5.82,5.82,0,0,0,1.34-1.41,5.87,5.87,0,0,0-4.91-9.15A5.87,5.87,0,0,0,778.1,141.86Z"/><path class="cls-6" d="M770.65,143.39a5,5,0,0,0-5.73,3.93,5,5,0,0,0-4.85,4.19,4.84,4.84,0,0,0,1.56,4.25,4.77,4.77,0,0,0-2,3.27,5,5,0,0,0,4.13,5.53,5.12,5.12,0,0,0,4.31,3.85,5.2,5.2,0,0,0,4-1,5.25,5.25,0,0,0,2.49,1,5,5,0,0,0,5.77-4.14,4.77,4.77,0,0,0-.18-2.1,4.84,4.84,0,0,0,1.47-9.07,4.72,4.72,0,0,0,.51-1.55,5,5,0,0,0-4.39-5.57,5.29,5.29,0,0,0-3,.43A5.19,5.19,0,0,0,770.65,143.39Z"/><path class="cls-7" d="M775.37,147.8a5.52,5.52,0,0,0-9.08,5,3.36,3.36,0,0,0-1.41,6,3.36,3.36,0,0,0,4,4.06,3.35,3.35,0,0,0,5.82.43,3.42,3.42,0,0,0,.53-1.34,3.36,3.36,0,0,0,3.61-5.15,3.5,3.5,0,0,0,.77-.81,3.36,3.36,0,0,0-2.81-5.24A3.36,3.36,0,0,0,775.37,147.8Z"/><path class="cls-5" d="M824.54,134.33a5.87,5.87,0,0,0-8,1.39,5.88,5.88,0,0,0-7.86,7.43,5.88,5.88,0,0,0-2.48,10.49,5.88,5.88,0,0,0,2.44,6.26,5.82,5.82,0,0,0,4.64.84,5.88,5.88,0,0,0,11.11-1.59,5.87,5.87,0,0,0,6.31-9,6.05,6.05,0,0,0,1.34-1.42,5.87,5.87,0,0,0-1.6-8.15,5.94,5.94,0,0,0-3.31-1A5.85,5.85,0,0,0,824.54,134.33Z"/><path class="cls-6" d="M817.1,135.86a5,5,0,0,0-5.73,3.93,5,5,0,0,0-4.85,4.19,4.84,4.84,0,0,0,1.55,4.24,4.8,4.8,0,0,0-2,3.27,5,5,0,0,0,4.13,5.54,5.13,5.13,0,0,0,4.31,3.85,5.29,5.29,0,0,1,6.45,0,5,5,0,0,0,5.76-4.14,4.62,4.62,0,0,0-.17-2.1,4.84,4.84,0,0,0,1.47-9.07,4.48,4.48,0,0,0,.5-1.55,5,5,0,0,0-4.38-5.58,5.21,5.21,0,0,0-3,.44A5.15,5.15,0,0,0,817.1,135.86Z"/><path class="cls-7" d="M821.82,140.27a5.52,5.52,0,0,0-9.08,5,3.32,3.32,0,0,0-2.19,1.43,3.37,3.37,0,0,0,.77,4.57,3.37,3.37,0,0,0,4,4.06,3.4,3.4,0,0,0,1.17,1.34,3.35,3.35,0,0,0,4.66-.91,3.49,3.49,0,0,0,.53-1.34,3.36,3.36,0,0,0,3.61-5.16,3.27,3.27,0,0,0,.76-.81,3.35,3.35,0,0,0-2.8-5.23A3.38,3.38,0,0,0,821.82,140.27Z"/><path class="cls-5" d="M880.89,127.62a5.89,5.89,0,0,0-8,1.4,5.87,5.87,0,0,0-7.86,7.43,5.87,5.87,0,0,0-2.47,10.48,5.87,5.87,0,0,0,7.08,7.1,5.75,5.75,0,0,0,2,2.36,5.86,5.86,0,0,0,9.07-3.95,5.87,5.87,0,0,0,6.31-9,5.63,5.63,0,0,0,1.34-1.41,5.87,5.87,0,0,0-1.6-8.15,5.75,5.75,0,0,0-3.3-1A5.88,5.88,0,0,0,880.89,127.62Z"/><path class="cls-6" d="M873.44,129.15a5,5,0,0,0-5.73,3.93,5,5,0,0,0-4.85,4.19,4.84,4.84,0,0,0,1.56,4.25,4.77,4.77,0,0,0-2,3.27,5,5,0,0,0,4.13,5.53,5.13,5.13,0,0,0,4.32,3.85,5.21,5.21,0,0,0,3.95-1,5.34,5.34,0,0,0,2.5,1A5,5,0,0,0,883,150a4.77,4.77,0,0,0-.18-2.1,4.84,4.84,0,0,0,1.48-9.07,4.7,4.7,0,0,0,.5-1.55,5,5,0,0,0-4.39-5.57,5.29,5.29,0,0,0-3,.43A5.19,5.19,0,0,0,873.44,129.15Z"/><path class="cls-7" d="M878.16,133.56a40,40,0,0,0-8.71,2,3.31,3.31,0,0,0-.36,3,3.36,3.36,0,0,0-1.42,6,3.36,3.36,0,0,0,4.05,4.06,3.35,3.35,0,0,0,5.82.43,3.28,3.28,0,0,0,.53-1.34,3.36,3.36,0,0,0,3.61-5.15,3.5,3.5,0,0,0,.77-.81,3.36,3.36,0,0,0-2.81-5.24A3.36,3.36,0,0,0,878.16,133.56Z"/><path class="cls-5" d="M935.42,119.63a5.87,5.87,0,0,0-8,1.39,5.87,5.87,0,0,0-7.86,7.43,5.87,5.87,0,0,0-2.47,10.48,5.87,5.87,0,0,0,7.08,7.1,5.75,5.75,0,0,0,2,2.36,5.86,5.86,0,0,0,9.07-3.95,5.87,5.87,0,0,0,6.31-9,5.63,5.63,0,0,0,1.34-1.41,5.87,5.87,0,0,0-1.6-8.15,5.78,5.78,0,0,0-3.3-1A5.88,5.88,0,0,0,935.42,119.63Z"/><path class="cls-6" d="M928,121.15a5,5,0,0,0-5.73,3.93,5,5,0,0,0-4.85,4.19,4.83,4.83,0,0,0,1.56,4.25,4.77,4.77,0,0,0-2,3.27,5,5,0,0,0,4.13,5.53,5.1,5.1,0,0,0,4.32,3.85,5.21,5.21,0,0,0,3.95-1,5.34,5.34,0,0,0,2.49,1,5,5,0,0,0,5.77-4.14,4.77,4.77,0,0,0-.18-2.1,4.83,4.83,0,0,0,1.47-9.07,4.49,4.49,0,0,0,.51-1.55,5,5,0,0,0-4.39-5.57,5.29,5.29,0,0,0-3,.43A5.19,5.19,0,0,0,928,121.15Z"/><path class="cls-7" d="M932.69,125.56a5.51,5.51,0,0,0-9.07,5.05,3.36,3.36,0,0,0-1.42,6,3.36,3.36,0,0,0,4,4.06,3.35,3.35,0,0,0,5.82.43,3.28,3.28,0,0,0,.53-1.34,3.36,3.36,0,0,0,3.61-5.15,3.5,3.5,0,0,0,.77-.81,3.36,3.36,0,0,0-2.81-5.24A3.36,3.36,0,0,0,932.69,125.56Z"/><path class="cls-5" d="M1041.3,98.16a5.87,5.87,0,0,0-8,1.4,5.87,5.87,0,0,0-7.86,7.43,5.87,5.87,0,0,0-2.48,10.48,5.87,5.87,0,0,0,7.08,7.1,6,6,0,0,0,2,2.36,5.88,5.88,0,0,0,8.15-1.61,5.79,5.79,0,0,0,.92-2.34,5.88,5.88,0,0,0,6.32-9,6,6,0,0,0,1.33-1.41,5.88,5.88,0,0,0-1.6-8.16,5.8,5.8,0,0,0-3.3-1A5.88,5.88,0,0,0,1041.3,98.16Z"/><path class="cls-6" d="M1033.85,99.69a5,5,0,0,0-5.73,3.93,5,5,0,0,0-4.85,4.19,4.87,4.87,0,0,0,1.56,4.25,4.79,4.79,0,0,0-2,3.27,5,5,0,0,0,4.13,5.53,5.24,5.24,0,0,0,8.27,2.81,5.25,5.25,0,0,0,2.5,1,5,5,0,0,0,5.76-4.14,4.76,4.76,0,0,0-.18-2.1,4.84,4.84,0,0,0,1.48-9.07,4.7,4.7,0,0,0,.5-1.55,5,5,0,0,0-4.39-5.58,5.31,5.31,0,0,0-3,.44A5.16,5.16,0,0,0,1033.85,99.69Z"/><path class="cls-7" d="M1038.57,104.1a3.36,3.36,0,0,0-4.58.8,3.36,3.36,0,0,0-4.49,4.25,3.36,3.36,0,0,0-1.42,6,3.36,3.36,0,0,0,4.05,4.06,3.34,3.34,0,0,0,1.16,1.35,3.38,3.38,0,0,0,4.67-.92,3.26,3.26,0,0,0,.52-1.34,3.36,3.36,0,0,0,3.61-5.16,3.09,3.09,0,0,0,.77-.8,3.36,3.36,0,0,0-2.81-5.24A3.36,3.36,0,0,0,1038.57,104.1Z"/><path class="cls-5" d="M991.89,107.58a5.87,5.87,0,0,0-8,1.39A5.88,5.88,0,0,0,976,116.4a5.87,5.87,0,0,0-2.47,10.49,5.87,5.87,0,0,0,7.08,7.09,5.75,5.75,0,0,0,2,2.36,5.86,5.86,0,0,0,9.07-4,5.87,5.87,0,0,0,6.31-9,5.63,5.63,0,0,0,1.34-1.41,5.87,5.87,0,0,0-1.6-8.15,5.75,5.75,0,0,0-3.3-1A5.86,5.86,0,0,0,991.89,107.58Z"/><path class="cls-6" d="M984.44,109.11a5,5,0,0,0-5.73,3.92,5,5,0,0,0-4.85,4.19,4.83,4.83,0,0,0,1.56,4.25,4.77,4.77,0,0,0-2,3.27,5,5,0,0,0,4.13,5.53,5.14,5.14,0,0,0,4.32,3.86,5.32,5.32,0,0,1,6.45,0A5,5,0,0,0,994,130a4.79,4.79,0,0,0-.18-2.1,4.84,4.84,0,0,0,1.48-9.07,4.7,4.7,0,0,0,.5-1.55,5,5,0,0,0-4.39-5.57,5.29,5.29,0,0,0-3,.43A5.16,5.16,0,0,0,984.44,109.11Z"/><path class="cls-7" d="M989.16,113.51a40,40,0,0,0-8.71,2,3.31,3.31,0,0,0-.36,3,3.36,3.36,0,0,0-1.42,6,3.36,3.36,0,0,0,4.05,4.06,3.35,3.35,0,0,0,5.82.43,3.22,3.22,0,0,0,.53-1.34,3.36,3.36,0,0,0,3.61-5.15,3.5,3.5,0,0,0,.77-.81,3.36,3.36,0,0,0-2.81-5.24A3.36,3.36,0,0,0,989.16,113.51Z"/><path class="cls-8" d="M149.49,148.06s-13.74,12.81-2.09,42C147.4,190,160.87,167.25,149.49,148.06Z"/><path class="cls-8" d="M159.37,148.06s-13.74,12.81-2.09,42C157.28,190,170.75,167.25,159.37,148.06Z"/><path class="cls-8" d="M201,154.45s-13.74,12.81-2.09,42C198.93,196.44,212.4,173.65,201,154.45Z"/><path class="cls-8" d="M210.9,154.45s-13.74,12.81-2.09,42C208.81,196.44,222.28,173.65,210.9,154.45Z"/><path class="cls-8" d="M256,160.68s-13.74,12.8-2.09,42C253.87,202.66,267.34,179.87,256,160.68Z"/><path class="cls-8" d="M270.07,161.87s-13.73,12.81-2.08,42C268,203.86,281.46,181.07,270.07,161.87Z"/><path class="cls-8" d="M314,164.81s-13.74,12.8-2.09,42C311.87,206.79,325.34,184,314,164.81Z"/><path class="cls-8" d="M328.07,166s-13.73,12.81-2.08,42C326,208,339.46,185.2,328.07,166Z"/><path class="cls-8" d="M679.73,156.49s-13.74,12.81-2.09,42C677.64,198.47,691.11,175.69,679.73,156.49Z"/><path class="cls-8" d="M693.84,157.69s-13.73,12.8-2.08,42C691.76,199.67,705.23,176.88,693.84,157.69Z"/><path class="cls-8" d="M612.67,160.73s-13.74,12.8-2.09,42C610.58,202.71,624.05,179.92,612.67,160.73Z"/><path class="cls-8" d="M626.79,161.92s-13.74,12.81-2.09,42C624.7,203.9,638.17,181.12,626.79,161.92Z"/><path class="cls-8" d="M549.14,166.37s-13.74,12.81-2.09,42C547.05,208.36,560.52,185.57,549.14,166.37Z"/><path class="cls-8" d="M563.26,167.57s-13.74,12.8-2.09,42C561.17,209.55,574.64,186.76,563.26,167.57Z"/><path class="cls-8" d="M489.84,167.79s-13.73,12.8-2.08,42C487.76,209.77,501.23,187,489.84,167.79Z"/><path class="cls-8" d="M504,169s-13.73,12.81-2.09,42C501.87,211,515.34,188.17,504,169Z"/><path class="cls-8" d="M839.81,143.84s-13.74,12.8-2.09,42C837.72,185.82,851.19,163,839.81,143.84Z"/><path class="cls-8" d="M792.11,149.25s-13.74,12.81-2.09,42C790,191.23,803.49,168.45,792.11,149.25Z"/><path class="cls-8" d="M798.9,148.32s-13.74,12.8-2.09,42C796.81,190.3,810.28,167.51,798.9,148.32Z"/><path class="cls-8" d="M743,155.57s-13.74,12.81-2.09,42C740.89,197.55,754.36,174.76,743,155.57Z"/><path class="cls-8" d="M753.27,154.24s-13.74,12.8-2.09,42C751.18,196.22,764.65,173.43,753.27,154.24Z"/><path class="cls-8" d="M853.39,142.21s-13.74,12.8-2.09,42C851.3,184.19,864.77,161.4,853.39,142.21Z"/><path class="cls-8" d="M896.15,135.25s-13.73,12.81-2.08,42C894.07,177.24,907.54,154.45,896.15,135.25Z"/><path class="cls-8" d="M906.51,133.25s-13.74,12.8-2.09,42C904.42,175.23,917.89,152.44,906.51,133.25Z"/><path class="cls-8" d="M949.33,126.24s-13.73,12.81-2.09,42C947.24,168.22,960.71,145.44,949.33,126.24Z"/><path class="cls-8" d="M961.67,124.77s-13.73,12.81-2.09,42C959.58,166.76,973.05,144,961.67,124.77Z"/><path class="cls-8" d="M1007.15,116.35s-13.73,12.8-2.08,42C1005.07,158.33,1018.54,135.54,1007.15,116.35Z"/><path class="cls-8" d="M1016,114.26s-13.73,12.81-2.08,42C1014,156.25,1027.42,133.46,1016,114.26Z"/><path class="cls-8" d="M372.31,167.07s-13.73,12.81-2.09,42C370.22,209.05,383.69,186.26,372.31,167.07Z"/><path class="cls-8" d="M386.43,168.26s-13.74,12.81-2.09,42C384.34,210.25,397.81,187.46,386.43,168.26Z"/><path class="cls-8" d="M432.24,169.65s-13.74,12.8-2.09,42C430.15,211.63,443.62,188.84,432.24,169.65Z"/><path class="cls-8" d="M438.39,169.65s-13.74,12.8-2.09,42C436.3,211.63,449.77,188.84,438.39,169.65Z"/><rect class="cls-9" x="-805.25" y="232.79" width="819.27" height="409.83"/></svg>