<?xml version="1.0" encoding="utf-8"?>
<!-- Generator: Adobe Illustrator 25.2.0, SVG Export Plug-In . SVG Version: 6.00 Build 0)  -->
<svg version="1.1" id="Layer_1" xmlns="http://www.w3.org/2000/svg" xmlns:xlink="http://www.w3.org/1999/xlink" x="0px" y="0px"
	 viewBox="0 0 1600 900" style="enable-background:new 0 0 1600 900;" xml:space="preserve">
<style type="text/css">
	.st0{clip-path:url(#SVGID_2_);}
	.st1{clip-path:url(#SVGID_4_);}
	.st2{fill:url(#SVGID_5_);}
	.st3{fill:url(#SVGID_6_);}
	.st4{fill:url(#SVGID_7_);}
	.st5{fill:url(#SVGID_8_);}
	.st6{fill:url(#SVGID_9_);}
</style>
<g>
	<defs>
		<rect id="SVGID_1_" width="1600" height="900"/>
	</defs>
	<clipPath id="SVGID_2_">
		<use xlink:href="#SVGID_1_"  style="overflow:visible;"/>
	</clipPath>
	<g class="st0">
		<g>
			<defs>
				<rect id="SVGID_3_" width="1600" height="900"/>
			</defs>
			<clipPath id="SVGID_4_">
				<use xlink:href="#SVGID_3_"  style="overflow:visible;"/>
			</clipPath>
			<g class="st1">
				
					<linearGradient id="SVGID_5_" gradientUnits="userSpaceOnUse" x1="811.3804" y1="407.88" x2="814.5104" y2="911.89" gradientTransform="matrix(1 0 0 -1 0 900)">
					<stop  offset="0.45" style="stop-color:#C5F7FD"/>
					<stop  offset="0.57" style="stop-color:#BFF6FC"/>
					<stop  offset="0.74" style="stop-color:#AEF3F9"/>
					<stop  offset="0.94" style="stop-color:#93EDF5"/>
					<stop  offset="1" style="stop-color:#88EBF3"/>
				</linearGradient>
				<polygon class="st2" points="1909,481.8 -283,480 -283,-19.1 1909,-19.1 				"/>
				
					<linearGradient id="SVGID_6_" gradientUnits="userSpaceOnUse" x1="802" y1="547.59" x2="802" y2="395.3" gradientTransform="matrix(1 0 0 -1 0 900)">
					<stop  offset="2.000000e-02" style="stop-color:#7FCBFB"/>
					<stop  offset="0.1" style="stop-color:#8AD0FA"/>
					<stop  offset="0.22" style="stop-color:#98D7F9"/>
				</linearGradient>
				<path class="st3" d="M-283,399.8c0,0,196.7-9.3,258.5-22.8S89,343.5,161.7,359.1s178.1,34.2,235.6,41.7s194.8,18.7,292.3,9.8
					s193.4-42.6,249.8-42.6s126.6,20.2,219.1,0s82.9-29.1,163.1-29.1s220.3-13.4,302.9,0s262.5,33.6,262.5,33.6v65H-282.5
					L-283,399.8z"/>
				
					<linearGradient id="SVGID_7_" gradientUnits="userSpaceOnUse" x1="4754.4009" y1="540.9037" x2="4825.7407" y2="584.8537" gradientTransform="matrix(1.05 -0.13 -0.12 -1 -3658.6599 1450.52)">
					<stop  offset="9.000000e-02" style="stop-color:#ADCFF1"/>
					<stop  offset="0.37" style="stop-color:#C4E4F8"/>
					<stop  offset="0.66" style="stop-color:#D5F3FD"/>
					<stop  offset="0.87" style="stop-color:#DBF8FF"/>
				</linearGradient>
				<path class="st4" d="M1286.2,248.4c1.7-12.8,56.8-27.7,67.1-14.6c11.8,8.6,6.9,23.4-0.9,25.3s-40.9,3.9-61.2-1.7
					C1291.1,257.4,1283.8,254.8,1286.2,248.4z"/>
				
					<linearGradient id="SVGID_8_" gradientUnits="userSpaceOnUse" x1="5868.7744" y1="724.7252" x2="5919.6548" y2="775.6352" gradientTransform="matrix(1 0 0 -1 -5149.04 900)">
					<stop  offset="6.000000e-02" style="stop-color:#82CDD9"/>
					<stop  offset="0.66" style="stop-color:#D7EEF4"/>
				</linearGradient>
				<path class="st5" d="M718.1,146.2c0,0,1-6.5,14.5-10.9s24.7-6.8,36.3-1.7s9.2,16.8,6.7,18.1c-4.8,2.6-15.1,6.1-42.7,2.7
					C716.3,152.4,718.1,146.2,718.1,146.2z"/>
				
					<linearGradient id="SVGID_9_" gradientUnits="userSpaceOnUse" x1="5685.3091" y1="511.8394" x2="5785.019" y2="573.2794" gradientTransform="matrix(1.05 -0.13 -0.12 -1 -5284.6602 1450.52)">
					<stop  offset="9.000000e-02" style="stop-color:#ADCFF1"/>
					<stop  offset="0.37" style="stop-color:#C4E4F8"/>
					<stop  offset="0.66" style="stop-color:#D5F3FD"/>
					<stop  offset="0.87" style="stop-color:#DBF8FF"/>
				</linearGradient>
				<path class="st6" d="M644.3,142.2c0,0,3.3-12.8,31.2-20.7s46.1-11.8,62.5,0.2s9.7,32.7-1.3,35.4s-57.2,5.5-85.6-2.4
					C651.1,154.8,641,151.1,644.3,142.2z"/>
			</g>
		</g>
	</g>
</g>
</svg>
