<?xml version="1.0" encoding="utf-8"?>
<!-- Generator: Adobe Illustrator 25.2.0, SVG Export Plug-In . SVG Version: 6.00 Build 0)  -->
<svg version="1.1" id="Layer_1" xmlns="http://www.w3.org/2000/svg" xmlns:xlink="http://www.w3.org/1999/xlink" x="0px" y="0px"
	 viewBox="0 0 982.2 900" style="enable-background:new 0 0 982.2 900;" xml:space="preserve">
<style type="text/css">
	.st0{fill:url(#SVGID_1_);}
	.st1{fill:url(#SVGID_2_);}
	.st2{fill:#B98E7C;}
	.st3{fill:#C49483;}
	.st4{fill:#754D32;}
	.st5{fill:#A8E533;}
	.st6{fill:url(#SVGID_3_);}
	.st7{fill:url(#SVGID_4_);}
	.st8{fill:url(#SVGID_5_);}
	.st9{fill:url(#SVGID_6_);}
	.st10{fill:url(#SVGID_7_);}
</style>
<g>
	
		<linearGradient id="SVGID_1_" gradientUnits="userSpaceOnUse" x1="488.2986" y1="81.68" x2="470.7686" y2="979.6699" gradientTransform="matrix(1 0 0 -1 0 900)">
		<stop  offset="0.21" style="stop-color:#885B51"/>
		<stop  offset="0.28" style="stop-color:#7D4F48"/>
		<stop  offset="0.38" style="stop-color:#754641"/>
		<stop  offset="0.53" style="stop-color:#72433F"/>
	</linearGradient>
	<path class="st0" d="M480.4,410.4h0.9C481.2,410.4,477.6,398.6,480.4,410.4z"/>
	
		<linearGradient id="SVGID_2_" gradientUnits="userSpaceOnUse" x1="440.0782" y1="80.7403" x2="422.5482" y2="978.7303" gradientTransform="matrix(1 0 0 -1 0 900)">
		<stop  offset="0.21" style="stop-color:#885B51"/>
		<stop  offset="0.28" style="stop-color:#7D4F48"/>
		<stop  offset="0.38" style="stop-color:#754641"/>
		<stop  offset="0.53" style="stop-color:#72433F"/>
	</linearGradient>
	<path class="st1" d="M424.3,685.9c-2.1,31.3-0.8,62.8,3.8,93.9c4.5,30.9,12.6,61.2,24.2,90.2c2.5,0.5,5,1,7.4,1.7l3.6,0.4
		c10,0.4,20,1.8,29.8,4c1.9,0.4,3.8,0.9,5.7,1.4l9.2,1.8c3.6,0.2,7.2,0.3,10.8,0.6c3.3,0.2,6.7,0.6,10,1c2.1,0.1,4.3,0.3,6.5,0.3
		c10.4,0.5,20.8,0.8,31.2,1.3c3.5-0.1,6.9-0.2,10.4-0.2c19.3-0.7,32.3-1.3,40.6,0.6c3.2,0,6.4,0,9.6,0c-0.7-1.5-3.3-3.9-5.7-8.4
		c-1.9-4-3.2-8.3-3.8-12.7c-2.5-13.3-12.2-29.4-15.4-35.3c-10.2-18.9-15-47.2-22.9-94.2c-3.5-20.4-7.4-47.8-10-80.7
		c-0.6-46.9,4.2-82.2,13.9-102.6c10.6-22.6,19.9-45.9,27.8-69.6c0,0,57.2,3.5,62.1,0s18.8-20.4,16.3-63.8l0.8-10.5l-14.7,5.6
		c0,0-4.5,39-23.3,42c-22.5,4.2-48.1-14.5-44.4-42h-16.4c0,0,5,80-19.7,96.9c-18.4,6.6-29.3-3.9-28.5-50.7l0.8-46.9l-29.3,0.1
		c0,0,1.7,49.8,0,52.8s-14.6,33.8-28.5-29.6c-3.1-11.8-4.9-19-5.9-23.1l-15,0.5c0,0,7.1,49.2,30.5,80c15.5,29.6,15.9,79.1,4.2,96.6
		c-12.6,17.5-33.9,27.2-50.2-76.7C439,441.9,436,410.8,436,410.8l-22.6-0.3c0,0,9.2,82.2,7.5,96.7c-2.1,16.3-2.9,66.4-52.3,45.3
		c-25.6-5.1-77-23.6-98.4-79.1c-8-47.1-6.3-65.2-6.3-65.2l-18.4-0.6c0,0,0.4,27.2,4.2,34.5c-5.9,0.6-18.9,0.7-32.9-9.8
		c-18.9-14.3-26.6-38.4-28.7-45.6l-14.8-0.8c3.2,12.5,8.3,24.5,14.9,35.5c14.6,23.8,34.9,36.9,49.7,40.1c3,0.6,14.7,2.8,14.6,3.4
		c0,0.2-0.8,0.2-0.8,0.2s3.8,71.3,62.8,103.9c52.7,28.4,75.8,42.9,89.1,54.3S426.4,646.7,424.3,685.9z"/>
	<path class="st2" d="M528.7,880.9c2.2,0.1,4.3,0.3,6.5,0.3c3.3,0.2,6.6,0.3,9.9,0.4l27.5,0.7c4.3-0.1,8.6-0.1,12.9,0
		c14.3,0.4,28.6,0.6,42.9,0.6c-6.8-13.7-13.5-28.8-19.9-45.5c-27.8-72.5-37.2-143.3-40.2-196.1c-11.6,9.6-24.7,23.9-35.5,45.3
		c-39.2,77.4-13.9,178.7-9.9,193.5C524.8,880.4,526.8,880.6,528.7,880.9z"/>
	<path class="st3" d="M446.5,491.8c0,0,19.6,104.7,35,104C465.5,606.4,435.9,577.4,446.5,491.8z"/>
	<path class="st4" d="M556.1,767.4c-2.2,0.7-4.6,1-6.9,0.9c-1.2,0-2.3-0.3-3.4-0.7c-1.1-0.4-2.1-1.2-2.8-2.2c-0.7-1-1.1-2.1-1.2-3.3
		c-0.1-0.6-0.1-1.2-0.1-1.8c0-0.6,0-1.2,0.1-1.8c0.3-2.3,0.9-4.6,1.8-6.8c1.6-4.4,3.8-8.6,6.4-12.4c1.3-1.9,2.8-3.8,4.3-5.5
		c1.6-1.8,3.4-3.3,5.4-4.6c1-0.7,2.2-1.1,3.4-1.3c1.3-0.2,2.6,0.1,3.7,0.8c1,0.7,1.8,1.7,2.4,2.8c0.6,1,1.1,2.1,1.4,3.3
		c1.3,4.5,1.9,9.2,1.9,13.9c0,9.4-1,18.7-3,27.8l0,0l0,0c-2,4.9-4.4,9.6-7.1,14.1c-2.6,4.6-5.8,8.9-9.6,12.7c-1,0.9-2,1.8-3.2,2.5
		c-1.1,0.8-2.4,1.3-3.7,1.7c-1.4,0.4-2.9,0.3-4.2-0.3c-1.3-0.6-2.4-1.5-3.2-2.7c-1.5-2.2-2.7-4.6-3.4-7.2c-0.8-2.5-1.4-5.1-1.8-7.7
		c-1.6-10.4-2.2-20.9-1.6-31.4l1.1-31.4l-0.4,31.4c-0.5,10.4,0.2,20.9,1.9,31.2c0.5,2.6,1.1,5.1,1.9,7.5c0.7,2.5,1.8,4.8,3.3,6.9
		c0.7,1,1.6,1.8,2.7,2.3c1.1,0.5,2.3,0.6,3.5,0.2c2.4-0.8,4.6-2.1,6.4-3.9c3.7-3.7,6.8-7.8,9.4-12.3c2.6-4.5,5-9.2,7-14v0.1
		c2-9,3-18.3,3-27.5c0-4.6-0.6-9.2-1.9-13.6c-0.7-2.1-1.6-4.3-3.4-5.6c-0.9-0.6-2-0.8-3-0.7c-1.1,0.2-2.1,0.6-3.1,1.2
		c-1.9,1.2-3.7,2.7-5.2,4.4c-1.6,1.7-3,3.5-4.3,5.4c-1.3,1.9-2.5,3.9-3.6,5.9c-1,2.1-2,4.2-2.9,6.3c-0.9,2.1-1.5,4.4-1.9,6.6
		c-0.1,0.6-0.1,1.1-0.2,1.7c0,0.6,0,1.1,0.1,1.7c0.1,1.1,0.4,2.2,1.1,3.2c0.6,0.9,1.5,1.7,2.6,2.1c1.1,0.4,2.2,0.7,3.3,0.8
		C551.5,768.2,553.9,768,556.1,767.4z"/>
	<path class="st3" d="M690,412c0,0,2.1,45.1-12.6,62.7c-4.4,6.1-7.9,6-13.1,6.1c0,0,14.6-6.9,18.3-29.9c2.2-13.4,3.4-26.8,3.8-40.4
		h3.6L690,412z"/>
	<path class="st3" d="M544,410.2c-0.6,7.9-0.9,35.4-0.6,40.8c1,23.5,2.2,50.2,12.7,57.1c2.3,1.5,5.2,2,7.9,1.5l4-0.6
		c-4.9,8.7-9.3,9.5-10.7,9.6c-8.7,0.6-18.9-15.8-21.4-42.1c-1.6-12.6-2.2-25.2-1.8-37.9c0.4-10.5,1.9-28.3,1.9-28.3L544,410.2
		L544,410.2z"/>
	<path class="st5" d="M150.4,221.9c4.5-35.2,16.4-88.3,52.1-131.7C299-27,483.8,27.5,543,45c139,41.2,247.4,155.8,286.8,207.1
		l23,19.3c-120.8,23.7-243.7,34.8-366.8,33c-107.2-1.5-214-12.8-319.2-33.6L150.4,221.9z"/>
	
		<linearGradient id="SVGID_3_" gradientUnits="userSpaceOnUse" x1="316.7868" y1="212.1132" x2="588.5768" y2="880.9232" gradientTransform="matrix(1 0 0 -1 0 900)">
		<stop  offset="0.48" style="stop-color:#2B8977"/>
		<stop  offset="0.86" style="stop-color:#9BCE87"/>
		<stop  offset="1" style="stop-color:#C7E98E"/>
	</linearGradient>
	<path class="st6" d="M149.2,226.7c4.5-35.3,16.4-88.7,52-132.3c96.4-117.7,280.9-62.9,339.9-45.4
		c145.8,43.4,240.2,147.5,286.5,208.1l23,19.4c-120.6,23.8-243.3,34.9-366.2,33.2c-107-1.6-213.7-12.9-318.7-33.8L149.2,226.7z"/>
	<path class="st5" d="M757.3,249c0,0,131-34.9,189,71.3c37.8,82.4,44.6,109.1-189,94.1C717.8,282.5,757.3,249,757.3,249z"/>
	
		<linearGradient id="SVGID_4_" gradientUnits="userSpaceOnUse" x1="1005.6646" y1="780.5912" x2="729.3146" y2="401.1113" gradientTransform="matrix(1 0 0 -1 0 900)">
		<stop  offset="0.37" style="stop-color:#CAEE9D"/>
		<stop  offset="0.83" style="stop-color:#25AF6A"/>
	</linearGradient>
	<path class="st7" d="M754.8,250.3c0,0,131-34.9,189,71.3c37.8,82.4,44.6,109.1-189,94.1C715.3,283.9,754.8,250.3,754.8,250.3z"/>
	<path class="st5" d="M180.2,394.5c-3.8,0-115.2-9.1-115.2-9.1s-69.1-16.7-29.4-57.7c10.4-6,19-14.5,25.1-24.9
		c7.9-13.4,5.8-20,10.8-32.4C87.5,231.4,141,218,141,218l0,0c0,0,72.6-17.3,126.7,16.6c6,3.8,9,5.8,11.3,9.3
		c25,38.3-52.8,150.5-52.8,150.5L180.2,394.5z"/>
	
		<linearGradient id="SVGID_5_" gradientUnits="userSpaceOnUse" x1="60.7634" y1="488.8718" x2="257.3888" y2="675.0958" gradientTransform="matrix(1 0 0 -1 0 900)">
		<stop  offset="0" style="stop-color:#12664F"/>
		<stop  offset="0.61" style="stop-color:#55A965"/>
		<stop  offset="1" style="stop-color:#7ACF71"/>
	</linearGradient>
	<path class="st8" d="M176.4,398.7c-3.9,0-117.8-9.2-117.8-9.2s-70.7-16.9-30.1-58.3c10.6-6.1,19.4-14.7,25.7-25.2
		c8.1-13.6,5.9-20.2,11.1-32.7c16.3-39.6,71.1-53.1,71.1-53.1l0,0c0,0,74.3-17.5,129.6,16.8c6.2,3.8,9.2,5.9,11.5,9.4
		c25.6,38.8-54,152.2-54,152.2L176.4,398.7z"/>
	
		<linearGradient id="SVGID_6_" gradientUnits="userSpaceOnUse" x1="175.8645" y1="603.3205" x2="170.1546" y2="895.9405" gradientTransform="matrix(1 0 0 -1 0 900)">
		<stop  offset="0" style="stop-color:#70E57E"/>
		<stop  offset="3.000000e-02" style="stop-color:#69E07C"/>
		<stop  offset="0.18" style="stop-color:#4CCB74"/>
		<stop  offset="0.32" style="stop-color:#36BB6F"/>
		<stop  offset="0.46" style="stop-color:#29B26B"/>
		<stop  offset="0.6" style="stop-color:#25AF6A"/>
	</linearGradient>
	<path class="st9" d="M118,171.7c0,0,10.8-28.1,85.1-13.8c68.9,17.4,16.2,61.8-42.5,52.3S108.2,181.4,118,171.7z"/>
	<path class="st5" d="M181.1,293.2c0,0,67.5-61.6,138.2-85.8c77.2-36.3,179.5-117.2,303.6-79.8c95.8,35,167.6,83.4,210,172.8
		c20.7,52,23.9,114.8-133.8,106.4l-439.6,0.8C259.4,407.6,87.5,393.5,181.1,293.2z"/>
	
		<linearGradient id="SVGID_7_" gradientUnits="userSpaceOnUse" x1="432.1047" y1="294.7088" x2="628.1147" y2="1058.6288" gradientTransform="matrix(1 0 0 -1 0 900)">
		<stop  offset="0.16" style="stop-color:#0F5C49"/>
		<stop  offset="0.27" style="stop-color:#197854"/>
		<stop  offset="0.45" style="stop-color:#2CAF6A"/>
		<stop  offset="0.47" style="stop-color:#44B96C"/>
		<stop  offset="0.51" style="stop-color:#6AC96F"/>
		<stop  offset="0.55" style="stop-color:#8AD672"/>
		<stop  offset="0.6" style="stop-color:#A3E074"/>
		<stop  offset="0.64" style="stop-color:#B4E776"/>
		<stop  offset="0.69" style="stop-color:#BFEC77"/>
		<stop  offset="0.75" style="stop-color:#C2ED77"/>
	</linearGradient>
	<path class="st10" d="M177.2,301c0,0,67.9-62.9,139-87.5c77.7-37,180.6-119.6,305.4-81.4c96.4,35.7,168.6,85,211.3,176.2
		c20.8,53,24.1,117.1-134.7,108.5l-442.3,0.8C256.1,417.6,83.1,403.3,177.2,301z"/>
</g>
</svg>
