<svg id="Layer_1" data-name="Layer 1" xmlns="http://www.w3.org/2000/svg" xmlns:xlink="http://www.w3.org/1999/xlink" viewBox="0 0 80.25 65.98"><defs><style>.cls-1{fill:#4b7d8d;}.cls-2{fill:#6cb7c9;}.cls-3{fill:#76c2ec;}.cls-4{fill:#5d6e93;}.cls-5{fill:url(#linear-gradient);}.cls-6{fill:url(#linear-gradient-2);}.cls-7{fill:url(#linear-gradient-3);}.cls-8{fill:url(#linear-gradient-4);}.cls-9{fill:url(#linear-gradient-5);}.cls-10{fill:url(#linear-gradient-6);}.cls-11{fill:#71cde7;}.cls-12{fill:url(#linear-gradient-7);}.cls-13{fill:url(#linear-gradient-8);}.cls-14{fill:url(#linear-gradient-9);}.cls-15{fill:#7ac6ee;}</style><linearGradient id="linear-gradient" x1="18.37" y1="18.41" x2="62.4" y2="18.41" gradientUnits="userSpaceOnUse"><stop offset="0.18" stop-color="#72cde3"/><stop offset="0.7" stop-color="#76cfe9"/></linearGradient><linearGradient id="linear-gradient-2" x1="34.7" y1="36.38" x2="51.96" y2="-6.11" gradientUnits="userSpaceOnUse"><stop offset="0.19" stop-color="#3b97bd"/><stop offset="0.21" stop-color="#3c9abf"/><stop offset="0.41" stop-color="#4cbee0"/><stop offset="0.58" stop-color="#56d5f5"/><stop offset="0.68" stop-color="#5addfc"/></linearGradient><linearGradient id="linear-gradient-3" x1="54.73" y1="28.03" x2="69.22" y2="28.03" gradientUnits="userSpaceOnUse"><stop offset="0.22" stop-color="#75cde9"/><stop offset="0.73" stop-color="#6dcdec"/></linearGradient><linearGradient id="linear-gradient-4" x1="68.85" y1="18.94" x2="52.15" y2="41.87" gradientUnits="userSpaceOnUse"><stop offset="0.3" stop-color="#3ea7d4"/><stop offset="0.67" stop-color="#2699be"/></linearGradient><linearGradient id="linear-gradient-5" x1="9.88" y1="26.67" x2="27.03" y2="26.67" gradientUnits="userSpaceOnUse"><stop offset="0.27" stop-color="#64a7cf"/><stop offset="0.52" stop-color="#61a9d0"/><stop offset="0.68" stop-color="#59b0d3"/><stop offset="0.82" stop-color="#4abcd8"/><stop offset="0.83" stop-color="#48bed9"/></linearGradient><linearGradient id="linear-gradient-6" x1="13.03" y1="33.15" x2="25.05" y2="21.76" gradientUnits="userSpaceOnUse"><stop offset="0.23" stop-color="#269ad6"/><stop offset="0.47" stop-color="#299bd6"/><stop offset="0.62" stop-color="#319fd8"/><stop offset="0.75" stop-color="#40a5da"/><stop offset="0.87" stop-color="#55afdd"/><stop offset="0.88" stop-color="#58b0dd"/></linearGradient><linearGradient id="linear-gradient-7" x1="16.08" y1="23.4" x2="21.49" y2="17.9" gradientUnits="userSpaceOnUse"><stop offset="0.08" stop-color="#177295"/><stop offset="0.28" stop-color="#268caf"/><stop offset="0.62" stop-color="#3cb5d6"/><stop offset="0.8" stop-color="#45c4e5"/></linearGradient><linearGradient id="linear-gradient-8" x1="18.87" y1="24.09" x2="61.48" y2="24.09" gradientUnits="userSpaceOnUse"><stop offset="0.11" stop-color="#82cff2"/><stop offset="0.2" stop-color="#7cceea"/><stop offset="0.44" stop-color="#6fcbdb"/><stop offset="0.68" stop-color="#72ccdb"/></linearGradient><linearGradient id="linear-gradient-9" x1="36.26" y1="38.5" x2="47.6" y2="11.76" gradientUnits="userSpaceOnUse"><stop offset="0.06" stop-color="#177295"/><stop offset="0.21" stop-color="#268caf"/><stop offset="0.48" stop-color="#3cb5d6"/><stop offset="0.62" stop-color="#45c4e5"/></linearGradient></defs><path class="cls-1" d="M47.86,56.13c0-.07-.18-.18-.35-.45a1.62,1.62,0,0,1-.24-.61,6.11,6.11,0,0,0-1-1.7c-.63-.9-.93-2.26-1.42-4.52A35,35,0,0,1,44.26,45,9.83,9.83,0,0,1,45.12,40a26.59,26.59,0,0,0,1.73-3.34,29.14,29.14,0,0,0,3.86,0c.3-.17,1.16-1,1-3.07l.05-.5-.91.27s-.28,1.87-1.45,2c-1.4.2-3-.7-2.76-2h-1s.31,3.85-1.22,4.66c-1.15.32-1.82-.19-1.77-2.44l.05-2.25H40.88a19.54,19.54,0,0,1,0,2.54c-.1.15-.91,1.63-1.77-1.42-.72-2.15-.31-1.11-.31-1.11l-1,0a8.55,8.55,0,0,0,1.9,3.85c1,1.42,1,3.8.26,4.64s-2.1,1.31-3.12-3.69c-.67-3.3-.86-4.8-.86-4.8l-1.4,0A42.37,42.37,0,0,1,35.06,38c-.13.78-.18,3.19-3.25,2.18C30.22,40,27,39.07,25.7,36.41a11.38,11.38,0,0,1-.39-3.14l-1.14,0a5,5,0,0,0,.26,1.66,3.54,3.54,0,0,1-2-.48,4.19,4.19,0,0,1-1.78-2.19l-.92,0a5.87,5.87,0,0,0,.92,1.71,5.32,5.32,0,0,0,3.09,1.92,8.47,8.47,0,0,1,.91.17h-.05a6.25,6.25,0,0,0,3.9,5A36.46,36.46,0,0,1,34,43.6c.83.55,1.41,1.13,1.28,3a16.31,16.31,0,0,0,.23,4.51A15.87,15.87,0,0,0,37.29,56c2.82.1,4.63.11,5.79.1a26.21,26.21,0,0,1,4.34,0S47.83,56.22,47.86,56.13Z"/><path class="cls-2" d="M44.21,44.48A7.29,7.29,0,0,0,42,46.66c-2.49,3.8-.8,8.79-.61,9.34l6.57.13a21.88,21.88,0,0,1-1.26-2.23A25.41,25.41,0,0,1,44.21,44.48Z"/><path class="cls-3" d="M36.64,37.29s1.22,5,2.17,5C37.83,42.8,36,41.4,36.64,37.29Z"/><path class="cls-4" d="M43.45,50.53c-2.2.68,0-3,1-1.81a3.15,3.15,0,0,1,.06,2.3,3.86,3.86,0,0,1-1.07,1.35c-2.1,1.29-1.52-2.74-1.39-3.79.17,1.15-.21,2.74.62,3.64.61.11,1.21-1,1.41-1.32.14-.54.44-1.74-.09-2.06-.72.07-2.19,1.95-.5,1.69Z"/><path class="cls-5" d="M18.37,22.18a15.87,15.87,0,0,1,3.27-8.13C27.69,6.82,39.27,10.19,43,11.27,52.12,13.93,58.05,20.32,61,24l1.44,1.2a113.52,113.52,0,0,1-23,2,113.4,113.4,0,0,1-20-2.08Z"/><path class="cls-6" d="M18.45,22.05a15.06,15.06,0,0,1,3.23-7.81c6-7,17.45-3.73,21.12-2.69,9.05,2.57,14.92,8.72,17.79,12.3L62,25a115.34,115.34,0,0,1-22.75,2,115.39,115.39,0,0,1-19.79-2Z"/><path class="cls-7" d="M55.85,23.27s8.38-2,12.09,4.14c2.42,4.79,2.85,6.35-12.09,5.48C53.33,25.22,55.85,23.27,55.85,23.27Z"/><path class="cls-8" d="M56.07,23.45s8.14-2.06,11.74,4.21c2.35,4.87,2.77,6.45-11.74,5.57C53.62,25.43,56.07,23.45,56.07,23.45Z"/><path class="cls-9" d="M20.2,32.06c-.25,0-7.57-.54-7.57-.54s-4.55-1-1.94-3.44a4.3,4.3,0,0,0,1.65-1.48c.52-.8.38-1.19.71-1.93,1-2.33,4.58-3.12,4.58-3.12h0s4.77-1,8.33,1a2,2,0,0,1,.74.55c1.65,2.29-3.47,9-3.47,9Z"/><path class="cls-10" d="M20.14,32.22c-.24,0-7.32-.54-7.32-.54s-4.39-1-1.87-3.45a4.34,4.34,0,0,0,1.6-1.49,9.39,9.39,0,0,0,.69-1.93c1-2.34,4.41-3.14,4.41-3.14h0s4.62-1,8.05,1a2.18,2.18,0,0,1,.72.56c1.59,2.3-3.35,9-3.35,9Z"/><path class="cls-11" d="M16.49,18.69s.69-1.71,5.45-.84c4.41,1.06,1,3.76-2.73,3.18S15.86,19.28,16.49,18.69Z"/><path class="cls-12" d="M16.51,18.8s.67-1.66,5.29-.82c4.28,1,1,3.66-2.64,3.09S15.9,19.38,16.51,18.8Z"/><path class="cls-13" d="M20.59,25.89a29.23,29.23,0,0,1,8.54-5.08c4.77-2.16,11.09-7,18.75-4.74,5.92,2.08,10.36,4.95,13,10.25,1.27,3.09,1.48,6.81-8.27,6.31l-27.16,0S14.81,31.84,20.59,25.89Z"/><path class="cls-14" d="M20.2,26.44a29.55,29.55,0,0,1,8.63-5.17c4.83-2.19,11.22-7.07,19-4.81,6,2.11,10.47,5,13.13,10.42,1.29,3.13,1.49,6.92-8.37,6.41l-27.47.05S14.35,32.49,20.2,26.44Z"/><path class="cls-15" d="M51.77,33.46s.13,2.17-.78,3a.92.92,0,0,1-.82.3,2,2,0,0,0,1.14-1.44,11.27,11.27,0,0,0,.24-1.94h.22Z"/><path class="cls-15" d="M42.7,33.37c0,.38-.05,1.7,0,2,.06,1.13.14,2.41.79,2.74a.81.81,0,0,0,.49.07l.25,0c-.3.42-.58.46-.66.46-.55,0-1.18-.75-1.34-2a8.3,8.3,0,0,1-.1-1.82c0-.5.11-1.36.11-1.36h.5Z"/></svg>