<svg id="Layer_1" data-name="Layer 1" xmlns="http://www.w3.org/2000/svg" width="546" height="456" viewBox="0 0 546 456">
  <defs>
    <style>
      .cls-1 {
        opacity: 0.22;
      }

      .cls-2 {
        fill: #699;
      }

      .cls-10, .cls-11, .cls-14, .cls-2, .cls-3, .cls-4, .cls-5, .cls-7, .cls-8 {
        fill-rule: evenodd;
      }

      .cls-12, .cls-3 {
        fill: #c7c5c9;
      }

      .cls-4 {
        fill: #624d69;
      }

      .cls-5, .cls-6 {
        fill: #fff;
      }

      .cls-7 {
        fill: #008792;
      }

      .cls-8, .cls-9 {
        fill: #dfeaef;
      }

      .cls-10, .cls-13 {
        fill: #a5a5a5;
      }

      .cls-11 {
        fill: #45344c;
      }

      .cls-14 {
        fill: #7e8487;
      }
    </style>
  </defs>
  <g>
    <g class="cls-1">
      <path d="M521.8,426.88c0-5-2-9.13-4.57-9.13H45.8c-2.63,0-4.75,4.18-4.7,9.3s2.27,9,4.85,9H517.23c2.52,0,4.57-4.08,4.57-9.13Z"/>
    </g>
    <g>
      <g>
        <path class="cls-2" d="M361.33,99.92c2.33,29.55-7.39,102.28,10.86,125,8.32,11.1,4.51,15.83,27.83,15.83v1.36c-23.75,0-20.25-4.92-28.82-16.34-18.6-22.87-8.84-96.13-11.14-125.86Z"/>
        <g>
          <path class="cls-3" d="M384.26,399.4c-14.73.81-37.58-5.51-39,17.8h-4.16c0-12.25,9.34-22.26,20.77-22.26h22.35Z"/>
          <path class="cls-4" d="M343.55,403.27c11.93.21,11.93,19.23,0,19.45C331.63,422.5,331.63,403.48,343.55,403.27Z"/>
          <path class="cls-5" d="M343.55,407.87c6.21-.1,6.21,10.34,0,10.24C337.35,418.21,337.35,407.77,343.55,407.87Z"/>
          <path class="cls-3" d="M384.26,399.4c14.72.81,37.57-5.51,38.95,17.8h4.16c0-12.25-9.34-22.26-20.77-22.26H384.26Z"/>
          <path class="cls-4" d="M425,403.27c-11.93.21-11.93,19.23,0,19.45C436.88,422.5,436.88,403.48,425,403.27Z"/>
          <path class="cls-5" d="M425,407.87c-6.21-.1-6.21,10.34,0,10.24C431.16,418.21,431.16,407.77,425,407.87Z"/>
        </g>
        <rect class="cls-6" x="382.17" y="13.56" width="4.17" height="391.29"/>
        <path class="cls-4" d="M384.25,403.27c11.93.21,11.93,19.23,0,19.45C372.33,422.5,372.33,403.48,384.25,403.27Z"/>
        <path class="cls-5" d="M384.25,407.87c6.21-.1,6.21,10.34,0,10.24C378.05,418.21,378.05,407.77,384.25,407.87Z"/>
        <rect class="cls-6" x="360.56" y="12.13" width="39.82" height="4.47"/>
        <path class="cls-5" d="M347.23,29a3.18,3.18,0,0,0-3.06,3.28V72.68c0,1.8,1.62,2.34,3.06,3.28l11.54,7.58v9.83h-1.54v8.1h6.57v-8.1h-1.54V83.54L373.81,76c1.43-.94,3.05-1.48,3.05-3.28V32.24A3.18,3.18,0,0,0,373.81,29Zm13.33,9.17c-4.27.07-4.27-7.13,0-7.06S364.83,38.2,360.56,38.13Z"/>
        <path class="cls-5" d="M362.64,34.6a2.08,2.08,0,1,1-4.16,0V14.36a2.08,2.08,0,1,1,4.16,0Z"/>
        <path class="cls-2" d="M373.69,46V71.22c.55,1.84-11.89,8.43-13.17,9.77l-10.71-7.11c-1.16-.76-2.47-1.2-2.47-2.66V46Z"/>
        <path class="cls-5" d="M354.47,50.13c-1.35,0-1.35-2.26,0-2.24h5c.16-1-.58-4,1-4s.88,3,1,4c.94.3,6.2-.87,6.05,1.12.17,2-5.13.83-6.05,1.12V53.6c.91.19,3.92-.66,3.87,1.12s-3,.93-3.87,1.12v3.47c.94.3,6.21-.87,6.05,1.12.17,2-5.13.83-6.05,1.12V65c.91.19,3.92-.66,3.87,1.12s-3,.93-3.87,1.12v3.47c.94.3,6.2-.87,6.05,1.12.17,2-5.13.83-6.05,1.12,0,.86.12,2.35-1,2.33s-1.08-1.47-1-2.33c-.94-.3-6.2.87-6-1.12-.18-2,5.12-.83,6-1.12V67.26c-.91-.19-3.92.66-3.87-1.12s3-.93,3.87-1.12V61.55c-.94-.3-6.2.87-6-1.12-.18-2,5.12-.83,6-1.12V55.84c-.91-.19-3.92.66-3.87-1.12s3-.93,3.87-1.12V50.13Z"/>
        <path class="cls-5" d="M400.58,37.92c-1.72,0-2.23-1.78-2.08-3.32V14.36a2.09,2.09,0,1,1,4.17,0V33.74c13.42,4.93,1.46,24.93-8.32,13.87-1.74-2.21,1.53-5.08,3.21-2.83a3.77,3.77,0,0,0,3,1.52C405.66,46.38,405.66,37.84,400.58,37.92Z"/>
      </g>
      <path class="cls-7" d="M371.41,230.61l117-83.86c14.39-10.31,28.27,13.47,13.88,23.78l-117,83.86C370.9,264.71,357,240.92,371.41,230.61Z"/>
      <path class="cls-8" d="M362.15,268.51l138.26-97.69a2.53,2.53,0,0,1,3.65.86h0a3,3,0,0,1-.8,3.91L365,273.29C362.32,275.05,359,270.59,362.15,268.51Z"/>
      <rect class="cls-9" x="75.42" y="247.85" width="11.14" height="148.4"/>
      <polygon class="cls-10" points="86.56 294.53 75.42 294.53 75.42 306.48 86.56 294.53"/>
      <polygon class="cls-11" points="72.92 413.62 86.56 396.25 72.92 396.25 72.92 413.62"/>
      <g>
        <path class="cls-11" d="M74.13,425.93c-17.1-.34-17.1-27.56,0-27.9C91.23,398.37,91.22,425.59,74.13,425.93Z"/>
        <path class="cls-4" d="M74.13,424c-14.73-.29-14.73-23.75,0-24C88.86,400.26,88.86,423.71,74.13,424Z"/>
        <path class="cls-5" d="M74.13,416.73c-5.74.08-5.74-9.58,0-9.49C79.87,407.15,79.87,416.81,74.13,416.73Z"/>
      </g>
      <polygon class="cls-10" points="83.39 384.8 75.42 384.8 75.42 393.35 83.39 384.8"/>
      <polygon class="cls-3" points="83.39 346.54 75.42 346.54 75.42 355.08 83.39 346.54"/>
      <path class="cls-7" d="M354.17,235.91H47.35c-7.2,0-13.09,6.31-13.09,14s5.89,14,13.09,14H354.17C371.26,263.64,371.44,236.27,354.17,235.91Z"/>
      <path class="cls-5" d="M509.62,243.32h-.24c-2-48.47,9.66-45.63-24.73-45.13a5.37,5.37,0,0,0-5.16,5.53v39.6c-4.49.13-8.25-3.77-8.25-8.59V198.42c0-4.72,3.61-8.58,8-8.58h30.37c4.4,0,8,3.86,8,8.58v36.31C517.63,239.45,514,243.32,509.62,243.32Z"/>
      <path class="cls-3" d="M516.88,232.76h-8.62a2.64,2.64,0,0,0-2.54,2.72v42.75a2.65,2.65,0,0,0,2.54,2.73h8.62a2.65,2.65,0,0,0,2.54-2.73V235.48A2.64,2.64,0,0,0,516.88,232.76Z"/>
      <path class="cls-10" d="M510.73,204.37H481.39a2,2,0,0,0-1.9,2c1.06,1-2.39,59.7,1.9,57.55h29.34a2,2,0,0,0,1.9-2C511.57,260.88,515,202.23,510.73,204.37Z"/>
      <rect class="cls-12" x="483.85" y="268.01" width="11.14" height="129.6"/>
      <polygon class="cls-10" points="494.99 274.9 483.85 274.9 483.85 286.85 494.99 274.9"/>
      <polygon class="cls-11" points="455.94 424.42 469.58 407.04 455.94 407.04 455.94 424.42"/>
      <polygon class="cls-11" points="481.35 413.62 494.99 396.25 481.35 396.25 481.35 413.62"/>
      <g>
        <path class="cls-11" d="M482.55,425.93c-17.09-.34-17.09-27.56,0-27.9C499.65,398.37,499.65,425.59,482.55,425.93Z"/>
        <path class="cls-4" d="M482.56,424c-14.74-.29-14.74-23.75,0-24C497.29,400.26,497.29,423.71,482.56,424Z"/>
        <path class="cls-5" d="M482.56,416.73c-5.75.08-5.75-9.58,0-9.49C488.3,407.15,488.3,416.81,482.56,416.73Z"/>
      </g>
      <rect class="cls-13" x="463.29" y="378.5" width="28.53" height="6.3"/>
      <polygon class="cls-10" points="491.82 384.8 483.85 384.8 483.85 393.35 491.82 384.8"/>
      <polygon class="cls-10" points="491.82 338.62 483.85 338.62 483.85 347.17 491.82 338.62"/>
      <path class="cls-8" d="M12.49,264H505a5.48,5.48,0,0,1,0,10.94H12.49C6,274.89,5.66,264,12.49,264Z"/>
      <path class="cls-3" d="M479.41,232.76h-8.63a2.64,2.64,0,0,0-2.53,2.72v42.75a2.65,2.65,0,0,0,2.53,2.73h8.63a2.65,2.65,0,0,0,2.54-2.73V235.48A2.64,2.64,0,0,0,479.41,232.76Z"/>
      <path class="cls-14" d="M522.21,264h-29c-6.65.05-6.67,10.89,0,10.94h29a5.48,5.48,0,0,0,0-10.94Z"/>
      <g>
        <path class="cls-11" d="M457.15,436.73c-17.1-.34-17.1-27.56,0-27.9C474.25,409.17,474.24,436.39,457.15,436.73Z"/>
        <path class="cls-4" d="M457.15,434.8c-14.73-.29-14.73-23.75,0-24C471.89,411.05,471.88,434.51,457.15,434.8Z"/>
        <path class="cls-5" d="M457.15,427.53c-5.74.08-5.74-9.58,0-9.5C462.89,418,462.89,427.61,457.15,427.53Z"/>
      </g>
      <path class="cls-3" d="M496.06,302.77c-2.39,2.42-429.91-4.67-429.49,2.45v30.94a2.38,2.38,0,0,0,2.29,2.46c2.39-2.43,429.91,4.66,429.48-2.45,0,0,0-30.95,0-30.95A2.38,2.38,0,0,0,496.06,302.77Z"/>
      <rect class="cls-12" x="458.44" y="268.01" width="11.14" height="139.03"/>
      <polygon class="cls-10" points="469.58 274.9 458.44 274.9 458.44 286.85 469.58 274.9"/>
      <path class="cls-5" d="M472.85,310.68c-2.39,2.43-429.91-4.66-429.49,2.45,0,0,0,30.95,0,30.95a2.4,2.4,0,0,0,2.3,2.46c2.39-2.43,429.91,4.66,429.48-2.45,0,0,0-30.95,0-30.95A2.39,2.39,0,0,0,472.85,310.68Z"/>
      <path class="cls-5" d="M476,215.42H305.63c-24.42-.1-43.62,22.59-42,48.54h7.64c-1.54-21.42,14.14-40.45,34.38-40.35H476Z"/>
      <g>
        <rect class="cls-6" x="442.47" y="220.06" width="7.64" height="47.21"/>
        <path class="cls-5" d="M405.22,267.27V220.06h-7.64v47.21Z"/>
        <path class="cls-5" d="M360.33,267.27V220.06H352.7v47.21Z"/>
        <rect class="cls-6" x="307.81" y="220.06" width="7.64" height="47.21"/>
      </g>
    </g>
  </g>
</svg>
