<svg id="Layer_1" data-name="Layer 1" xmlns="http://www.w3.org/2000/svg" viewBox="0 0 535.59 425.42"><defs><style>.cls-1{fill:#ff0;}</style></defs><path class="cls-1" d="M523.19,13.52a6,6,0,0,0-4.26-1.78H16.66a6,6,0,0,0-6,6V78.88a6,6,0,0,0,6,6H342.1v44H180a6,6,0,0,0-5.55,3.73l-6.55,16a6,6,0,0,0,1.18,6.39c22.95,24.38,39.15,43.59,48.14,57.08C225.7,224.9,230,236.64,230,247c0,6.35-2.93,11.7-9,16.36-6.5,5-14.47,7.48-24.35,7.48-15.25,0-31-8-46.69-23.85-19.33-19.44-39.74-51.88-60.69-96.43a6,6,0,0,0-3.62-3.17,5.9,5.9,0,0,0-1.81-.28,6,6,0,0,0-3,.79L55.45,162.46A6,6,0,0,0,52.87,170c24.44,59.65,51.81,105.11,81.33,135.13,30.15,30.65,63.43,46.19,98.91,46.19,23.34,0,42.38-6.93,56.55-20.59,12.34-11.8,18.59-26,18.59-42.18,0-10.34-4.52-23.66-13.83-40.72-7.45-13.66-18.1-29-31.73-45.72H342.1V407.68a6,6,0,0,0,6,6h61a6,6,0,0,0,6-6V84.88H518.26a6,6,0,0,0,6-5.93l.67-61.14A6,6,0,0,0,523.19,13.52Zm-4.93,65.36H409.08v328.8h-61V196.06H249.85q26.19,30.57,39.3,54.59t13.1,37.85q0,21.84-16.74,37.85-19.65,18.93-52.4,18.92-101.91,0-174.69-177.6L83.9,153.12q32,68.1,61.86,98.11,25.47,25.62,51,25.62,16.74,0,28-8.73T236,247q0-17.46-13.83-38.21t-48.77-57.86l6.55-16H348.1v-56H16.66V17.74H518.93Z"/></svg>