<svg id="Layer_1" data-name="Layer 1" xmlns="http://www.w3.org/2000/svg" viewBox="0 0 528.57 428.57"><defs><style>.cls-1{fill:#ff0;}</style></defs><path class="cls-1" d="M513.4,9.86H15.17a6,6,0,0,0-6,6V74.75a6,6,0,0,0,6,6h58V209.49c0,28.22,18.68,58,55.55,88.49,35,28.71,66.38,43.28,93.24,43.28,24.45,0,45.77-7.94,63.36-23.6,17.79-15.84,26.81-34.1,26.81-54.27V80.75h65.08v332a6,6,0,0,0,6,6h59.29a6,6,0,0,0,6-6v-332H513.4a6,6,0,0,0,6-6V15.86A6,6,0,0,0,513.4,9.86Zm0,64.89H442.48v338H383.19v-338H306.11V263.39q0,27.71-24.8,49.79t-59.37,22.08q-38.33,0-89.43-41.92-53.38-44.16-53.36-83.85V74.75h-64V15.86H513.4Z"/><path class="cls-1" d="M184.36,275.54q22.54,0,37.58-15t15-42V74.75H148.29V241.08a34.47,34.47,0,0,0,9.39,24.35Q167.07,275.54,184.36,275.54ZM154.29,80.75H231V218.6c0,16.47-4.34,28.81-13.27,37.7s-19.84,13.24-33.34,13.24c-9.88,0-17.16-2.68-22.28-8.2a28.38,28.38,0,0,1-7.79-20.26Z"/></svg>