<?xml version="1.0" encoding="utf-8"?>
<!-- Generator: Adobe Illustrator 26.0.3, SVG Export Plug-In . SVG Version: 6.00 Build 0)  -->
<svg version="1.1" id="Layer_1" xmlns="http://www.w3.org/2000/svg" xmlns:xlink="http://www.w3.org/1999/xlink" x="0px" y="0px"
	 viewBox="0 0 770.5 414.1" style="enable-background:new 0 0 770.5 414.1;" xml:space="preserve">
<style type="text/css">
	.st0{opacity:0.3;enable-background:new    ;}
	.st1{fill:#09152B;}
	.st2{fill:#FFFFFF;}
	.st3{fill:#DBDBDB;}
	.st4{fill:#F1AC31;}
	.st5{fill:#FBDD91;}
	.st6{fill:#E2A225;}
	.st7{fill:#F5C674;}
	.st8{fill:#FDE2A1;}
	.st9{fill:#FBDE95;}
	.st10{fill:#FFECBF;}
	.st11{fill:#C28B2C;}
	.st12{fill:#9C722A;}
	.st13{fill:#0B8040;}
	.st14{fill:#0C8743;}
	.st15{fill:#069046;}
	.st16{fill:none;stroke:#204F26;stroke-width:2.09;}
	.st17{fill:none;stroke:#000000;stroke-width:0.11;}
	.st18{fill:none;stroke:#204F26;stroke-width:1.36;}
	.st19{fill:none;stroke:#000000;stroke-width:7.000000e-02;}
</style>
<path class="st0" d="M759.8,286.3c0,65.5-168.5,118.5-376.5,118.5c-99.8,0-195.6-12.5-266.2-34.7S6.9,317.7,6.9,286.3
	s39.7-61.6,110.3-83.8s166.4-34.7,266.2-34.7s195.6,12.5,266.2,34.7S759.8,254.9,759.8,286.3z"/>
<path class="st1" d="M753.8,273.2c0,64.7-166.6,117.2-372.2,117.2c-98.7,0-193.4-12.3-263.2-34.3s-109-51.8-109-82.9
	s39.2-60.9,109-82.9S282.9,156,381.6,156s193.4,12.4,263.2,34.3S753.8,242.1,753.8,273.2z"/>
<ellipse transform="matrix(1.396295e-03 -1 1 1.396295e-03 118.3926 644.3127)" class="st2" cx="381.8" cy="262.9" rx="104.3" ry="355.3"/>
<path class="st3" d="M390,10c0,0-120.8,109.1-149.1,134.5S88.1,263.5,90.5,277.8s0,45.2,136.8,51.8s215.7,1.1,200.9,9.9
	s-18.5,22,16,18.7s25.9-9.9,49.3-3.3s33.3-8.8,22.2-17.6s35.7-9.9,83.8-18.7s62.9-39.6,55.5-56.2S572.4,124.6,497.2,62.9
	S403.6,6.7,390,10z"/>
<path class="st4" d="M373.8,27.2c0,0-247.8,224.8-273.1,238c-30.6,15.8,33,43.5,145.8,57.1C360,336,554.3,335,619.6,302.4
	c43.8-21.9,36.5-33.5,32.6-44c-5.2-14.2-31.1-17.9-62.8-59C534.1,127.8,414-15.3,373.8,27.2z"/>
<path class="st5" d="M383.6,17.6c0,0-251,228.4-277.2,241.9s10.5,40.3,128.1,56s287.6,6.7,360.9-15.7s73.2-38.1,15.7-109.8
	S425.5-25,383.6,17.6z"/>
<path class="st6" d="M274.7,300.3c-17.3-1.2-134.7-34.4-144.9-25.7s64.9,28.1,96,32.9s143.6,11.5,156.9,14.2s-67.1,6.3-108-0.4
	s-137.8-13.5-162.2-39.2s8.9-23.4,41.8-15s115.6,25.3,126.7,28.5S326.7,302.7,274.7,300.3z"/>
<path class="st6" d="M171,224.4c-32.8,9-50.1,25.9-27.9,16.9s44.3-10.6,75.3-5.9s238.9,53.8,291.6,55.4s64.3-6.7,61.2-6.7
	s-38.1,9.9-149.3-11.8s-168.3-37-213.2-47.9C191,220.1,171,224.4,171,224.4z"/>
<path class="st4" d="M115.1,277.4c-5.3-15.8,7.1-22.2,76.4,1.6s264.9,39.6,353.8,25.3s104.4-36,106.3-42.1s-28.9,52.6-218.1,44.2
	s-284.1-49.3-297.9-49.3s-39.8,3.9-39.8,12.8c0,6.8,18.8,21.1,23.6,18.6C120.8,287.8,116.1,281,115.1,277.4z"/>
<path class="st4" d="M126.5,244.5c0,0,26.9-28.1,58.9-29.7s326.2,103.7,400,61.8c47.7-27.1,60-32.6,62.6-33c0.2,0,0.2,0.2,0.3,0.3
	s0.2,0.4,0.2,0.4c-0.2,0.2-0.5,0.4-0.7,0.6c-0.9,0.4-49.3,32.4-80,41.4c-28,8.2-126.6-5.2-164.6-14.7s-188.2-46.4-227.2-47.3
	c-21.6-0.5-59.3,31.3-53.6,23.7C122.8,247.4,125.2,245.9,126.5,244.5z"/>
<path class="st7" d="M451.5,30.3c0,0-30,21.2-78.2,29.8s16.1,4,48.2-11.9S454,31,454,31L451.5,30.3z"/>
<path class="st7" d="M295.4,99.8c0,0,8.2,8.3,51.9,16.7s59.2,15.3,59.2,15.3s-96.7-18-114-30.5C292.4,101.1,291.9,100.6,295.4,99.8z
	"/>
<path class="st7" d="M284,108.8c0,0,88.8,45.6,100.4,51.8c6.7,3.6,13.6,6.6,20.8,9.1c0,0-14-2.2-42.7-17.9s-70.5-34.4-75.2-36.6
	S275.4,112.8,284,108.8z"/>
<path class="st7" d="M272.7,120.6c0,0,55,40.6,67.4,48.5s12.1,14.6,4.9,5.5s-37.1-22.3-47.5-30.2s-30.8-21.7-30.8-21.7
	S267.5,121.2,272.7,120.6z"/>
<path class="st8" d="M451.1,43.8C392,65,404.6,72.9,354.3,79.6s-6.3,35.8,40.2,35.8s67.9,14.6,27.6,21.3s-64.1-6.7-45.2,6.7
	s77.9,39.2,42.7,43.7s-67.9-41.4-56.6-20.2s15.1,44.8-16.3,28s-54.1-52.6-86.8-40.3s-67.9,42.6-39,51.5s211.2,68.3,259,69.4
	s0-57.1,30.2-54.9s13.8-56,30.2-61.6s-5-42.6-36.5-73.9S478.8,39.3,451.1,43.8z"/>
<path class="st9" d="M544.5,123.7c7.1,38,19.5,15.8,5.3,41.2s0,38.8-16.9,49.1s-17.8,13.5-22.2,36.4s-21.3,30.9-6.2,30.9
	s64.9,3.2,97.8-19s46.2-14.2,21.3-50.7S551.6,126.1,544.5,123.7z"/>
<path class="st8" d="M531.6,298c-138.3-22.4-272.8-56-336.9-57.1s-100.6,9,2.5,26.9s191.1,32.5,226.3,33.6S568,302.4,531.6,298z"/>
<path class="st8" d="M131.8,280c8.8,11.2,8.8,10.1,54.1,20.2s178.5,23.5,233.8,20.2s30.2-5.6-20.1-6.7S201,293.5,165.8,280
	S119.2,272.2,131.8,280z"/>
<path class="st9" d="M452.9,71.5c-113.8,1.6-21.3,31.7,12.4,31.7s55.1,38-10.7,39.6s56.9,15.8,26.7,41.2s26.7,42.8-60.4,36.4
	s-136.9-12.7-67.6,6.3s69.3,42.8,97.8,36.4s-8.9-12.7,21.3-23.8s3.5-38,23.1-42.8c19.6-4.8-8.9-50.7,10.7-63.3s-7.1-30.1-26.7-42.8
	S511.6,65.2,452.9,71.5z"/>
<path class="st10" d="M573,224.1c-28.9,2.2-20.1,3.4-7.5,7.8s8.8,20.2,21.4,3.4S584.4,225.2,573,224.1z"/>
<path class="st10" d="M554.2,165.8c0,4.5-6.3,29.1,8.8,13.4S576.8,151.3,554.2,165.8z"/>
<path class="st10" d="M245,173.7c0,0,16.4,10.1,10.1,16.8s2.5,9,2.5,9s-13.9-13.5-25.2-10.1S217.3,154.6,245,173.7z"/>
<path class="st10" d="M282.7,211.7c0,9,25.1,13.4,25.1,13.4s-8.8-7.8-1.3-12.3s-3.8-5.6-12.6-3.4S285.2,201.7,282.7,211.7z"/>
<path class="st10" d="M366.9,234.1c-7.5,14.6,7.5,14.6,17.6,14.6s11.3-3.4,12.6-9s-16.3-9-17.6-1.1S374.4,231.9,366.9,234.1z"/>
<path class="st10" d="M452.4,255.4c33.9,1.1,51.5-12.3,39-1.1s-36.5,5.6-36.5,5.6s26.4,12.3,5,7.8S436,256.5,452.4,255.4z"/>
<path class="st10" d="M483.8,102c-1.3,22.4,20.1,25.8,20.1,25.8s-16.3-4.5-10-6.7s8.8-14.6,2.5-15.7S492.6,90.8,483.8,102z"/>
<path class="st10" d="M449.9,147.9c0,0,16.3,13.4-2.5,15.7s-17.6-3.4-8.8,9s6.3,14.6,13.8,5.6s10.1-3.4,12.6-11.2
	S476.3,146.8,449.9,147.9z"/>
<path class="st10" d="M364.4,93c-8.8,4.5-1.3,15.7,6.3,16.8s11.3,4.5,11.3-3.3S382,87.4,364.4,93z"/>
<path class="st6" d="M442.2,59.6c-5.3,7.1-5.3,13.5,1.8,7.9S452,58,442.2,59.6z"/>
<path class="st6" d="M340,75.4c-8.9,3.2-1.8,5.6-8,9.5s6.2,7.9,7.1,4S350.7,74.7,340,75.4z"/>
<path class="st6" d="M358.7,76.2c-3.6,6.3,3.5,9.5,8,2.4S356,66.7,358.7,76.2z"/>
<path class="st6" d="M490.2,150.7c-2.7,12.7,10.7,12.7,10.7,12.7s0.9,2.4,0.9-4S490.2,150.7,490.2,150.7z"/>
<path class="st6" d="M544.5,266.3c-10.7,11.1,4.4,15.8,5.3,11.9s-3.6-8.7,0.9-10.3S551.6,263.1,544.5,266.3z"/>
<path class="st6" d="M290.2,183.1c0.9,7.1-5.3,10.3,5.3,7.1s10.7-5.5,10.7-5.5S293.8,187.1,290.2,183.1z"/>
<path class="st6" d="M202.2,202.1c3,1.5,6.4,2.3,9.8,2.4c5.3,0-7.1,5.5,3.6,7.9s15.1,4.8,12.4,0s-7.1-7.9-8-11.1s-8-5.5-9.8-2.4
	S200.4,195.8,202.2,202.1z"/>
<path class="st11" d="M484.5,209.3c-29.9,2.4-25,4-22,6.3s-0.6,7.9,4.9,4.8s1.2-4,5.5-3.2c1.8,0.4,3.6,0.7,5.5,0.8
	C478.4,218,493.6,214.8,484.5,209.3z"/>
<path class="st6" d="M587.1,205.3c-13.3,2.4-12.4,7.1-4.4,7.1s6.2,4.8,8,0S594.2,203.7,587.1,205.3z"/>
<path class="st6" d="M614.7,239.4c-14.2,1.6-14.2,13.5-9.8,12.7s0-4,8.9-7.9S619.1,240.9,614.7,239.4z"/>
<path class="st11" d="M393.3,210.9c-8,1.6,0.9,0,2.7,4s1.8,8.7,7.1,4.8s2.7-0.8,5.3-5.6s6.2-7.9,2.7-8.7s-10.7-2.4-10.7,4
	S399.6,209.3,393.3,210.9z"/>
<path class="st12" d="M426.6,100.3c-2.5,2.2-1.9,11.2,1.9,8.4S429.1,100.9,426.6,100.3z"/>
<path class="st12" d="M395.8,147.4c0,8.4,1.9,10.1,1.9,5S400.2,147.9,395.8,147.4z"/>
<path class="st12" d="M287.7,161.3c-4.4,0.6-1.2,15.7,2.5,10.6s6.9-6.2,3.8-6.7S288.3,163,287.7,161.3z"/>
<path class="st12" d="M525.3,193.8c-5.7,6.2-8.8,9-4.4,7.3S529.1,197.2,525.3,193.8z"/>
<path class="st12" d="M510.2,239.2c0,5.6,0,14,5.7,4.5S512.7,239.7,510.2,239.2z"/>
<path class="st12" d="M488.8,84.6c-5,0-6.3,2.8,0,3.4s10.1-3.4,6.3-3.4H488.8z"/>
<path class="st13" d="M479.3,336.1c0,0,6.4,12.4-18.4,15s-31.9,2.3-31.9,2.3s-2.7-16,17.3-21.3S466.1,339.8,479.3,336.1z"/>
<path class="st14" d="M477.1,336.7c0,0,5.6,11-16.4,13.3s-28.4,2.1-28.4,2.1s-2.4-14.3,15.4-19S465.3,340,477.1,336.7z"/>
<path class="st15" d="M474.1,340c-0.6,2.1-2.5,3.2-11.4,6.6s-14.6-0.6-24.5,2s1.9-0.6,2.1-3.9s6.2-12,16.3-8.8
	S468.1,341.9,474.1,340z"/>
<path class="st16" d="M479.2,336.2c-5.2,2.8-10.7,4.8-16.4,5.9c-8.3,1.4-33.8,11.3-33.8,11.3"/>
<path class="st17" d="M429.4,346.9c1.7-0.2,3.4-0.1,5,0.3c2.8,0.7,9.6,0.4,9.6,0.4s-2.3,4.3-0.9,4s0.8,0.7,0.8,0.7"/>
<path class="st17" d="M430.9,343.4c0,0,9.3-0.5,12.3,0.9c2.2,0.9,4.5,1.4,6.9,1.4c0,0-1,3.7,0.2,4.7s-1.3,1.8-1.3,1.8"/>
<path class="st17" d="M456.9,343.8c0,0-12.1-5.6-17.2-4.7s-6.5,0.5-6.5,0.5"/>
<path class="st17" d="M457.5,344.1c0,0-0.9,2.9-0.4,3.5s-2,3.5-2,3.5l0.5,0.7"/>
<path class="st17" d="M437.5,335.9c0,0,5.6-0.1,8.2-0.5s9.1,0.5,11.5,2.1s7.1,4.3,7.1,4.3s3.7,3,3.1,4.6s1.5,3.3,1.5,3.3"/>
<path class="st13" d="M483.5,339.4c0,0-3.7,9,10.7,10.8s18.6,1.7,18.6,1.7s1.6-11.6-10.1-15.4S491.2,342,483.5,339.4z"/>
<path class="st14" d="M484.8,339.8c0,0-3.3,8,9.5,9.6s16.5,1.5,16.5,1.5s1.4-10.3-9-13.7S491.6,342.1,484.8,339.8z"/>
<path class="st15" d="M486.5,342.2c0.4,1.5,1.4,2.3,6.7,4.8s8.5-0.5,14.3,1.4c5.7,1.9-1.1-0.4-1.2-2.8s-3.6-8.7-9.5-6.3
	S490,343.5,486.5,342.2z"/>
<path class="st18" d="M483.5,339.4c2.9,1.9,6.2,3.4,9.6,4.3c4.8,1,19.7,8.1,19.7,8.1"/>
<path class="st19" d="M512.5,347.1c-1-0.1-2-0.1-2.9,0.2c-1.9,0.3-3.7,0.4-5.6,0.3c0,0,1.3,3.1,0.5,2.9s-0.5,0.5-0.5,0.5"/>
<path class="st19" d="M511.7,344.6c0,0-5.4-0.4-7.2,0.7c-1.2,0.6-2.6,1-4,1c0,0,0.6,2.7-0.1,3.4s0.8,1.3,0.8,1.3"/>
<path class="st19" d="M496.5,344.9c0,0,7-4,10-3.4s3.8,0.3,3.8,0.3"/>
<path class="st19" d="M496.2,345.1c0,0,0.5,2.1,0.2,2.5s1.2,2.5,1.2,2.5l-0.3,0.5"/>
<path class="st19" d="M507.9,339.2c0,0-3.3-0.1-4.8-0.4s-5.3,0.4-6.7,1.5s-4.1,3.1-4.1,3.1s-2.1,2.1-1.8,3.3s-0.8,2.4-0.8,2.4"/>
</svg>
