<svg id="Layer_1" data-name="Layer 1" xmlns="http://www.w3.org/2000/svg" xmlns:xlink="http://www.w3.org/1999/xlink" width="1600" height="900" viewBox="0 0 1600 900">
  <defs>
    <style>
      .cls-1 {
        fill: none;
      }

      .cls-2 {
        clip-path: url(#clip-path);
      }

      .cls-3 {
        fill: #593518;
      }

      .cls-4, .cls-5 {
        fill: #542e15;
      }

      .cls-5 {
        fill-rule: evenodd;
      }
    </style>
    <clipPath id="clip-path">
      <rect class="cls-1" width="1600" height="900"/>
    </clipPath>
  </defs>
  <g class="cls-2">
    <g>
      <rect class="cls-3" x="-66.39" y="-115.99" width="1793.8" height="1148.03"/>
      <g>
        <path class="cls-4" d="M332,963.08c69.89-19.87,296.54-67.75,374.24-71.7S635,851.53,561.1,850.25s-170.93-37.3-290-79.71S137.81,713.37,71.78,684.2c-52.06-23.08-92.08-13.89-139.65-5.09v16.22c23.57-4.47,45.66-9.34,69.64-9.85C67.81,684.2,187,763.91,332,811.67s315.91,65.07,315.91,73.09-97.07,15.92-130.71,15.92-160.62,35.9-231.75,31.84C221.68,929,154.86,910.57-67.87,883v14.21C-22,902.76,18.52,909,49.69,913.92,159.78,931.24,262.07,983.06,332,963.08Z"/>
        <path class="cls-4" d="M-67.87,812.74v16.62c30.81,2.55,62,5.95,89.13,10.2,76.34,12,275.69,35.9,308.09,33.23S254.25,835.61,187,822.36,138.49,784,61.35,749.27c-50-22.56-89.16-12.48-129.22-2.64v25.18c116.49.19,229,58.26,244.42,70.42C192.18,854.5,16.78,829.19-67.87,812.74Z"/>
        <path class="cls-4" d="M71.78,641.68C122.18,651,227.07,724.06,341,755.9s121.77,21.26,246,66.46,228.69,59.15,284.87,63.56-165.49,41-200.6,41-143.74.93-204.57,24.52c-30.88,12.06-55.62,17.5-80.22,22.41h68.87q4.33-1.62,8.63-3.47c46.11-19.87,222.13-17,257.12-25.57s133.55-35,190.75-52.87-20.27-14.17-80.19-19.87-217.48-51-254.29-72.74-152.12-44.5-200-55.77S191.27,680.25,112,637.72c-76.23-41.05-97-22.33-179.86-9.16V654C-14.07,649.25,32,634.36,71.78,641.68Z"/>
        <path class="cls-4" d="M231,662.13c118.82,54.61,351.36,121.89,422,149.19s217.25,51.48,277.74,57.75-23.68,40-53.35,53.69S692,969,647,969c-13.87,0-35.79,2-60.62,4.87h181.8c40.21-9.42,77.5-23.54,90.86-27,20.51-5.34,116.78-66.23,127.09-69.37S966,856.17,925.6,852.34s-139.32-17.89-188.48-32.65S374.43,710.46,314.06,679.9,145,595.89,84.57,578c-55.16-16.32-105.15,5-152.44,12.88v12.26a325.7,325.7,0,0,0,53-8.29C71.21,573.82,112.21,607.4,231,662.13Z"/>
        <path class="cls-4" d="M168.85,895.33C376,924.61,514.54,871.4,452.36,871.4S376,843.51,310,826.31s-152.8-55.77-216.23-99.7C42.61,691.3-8.54,701.75-67.87,712.67V726c25.28-4.12,52.58-8.06,83.92-8.67,71.24-1.28,90.61,69.14,177.37,90.4s186.45,46.36,190.3,73-99.68,6.74-147.59,4.07S45.84,870.12-22.8,851.53a275.69,275.69,0,0,0-45.07-8v20.93C-2.39,871.71,74.17,882,168.85,895.33Z"/>
        <path class="cls-4" d="M145.74,313.88C66,298.78,69.06,226.16,55.35,227.55s-80.87,2.32-111.46-7q-6.07-1.86-11.76-3.51V224c34.23,4.52,76.69,11.54,109.06,14.46,51.43,4.65-1.13,36,44.63,58.57S-1.74,301.1-30,296.57c-12-2-24.37-5.29-37.82-9.13v10.92c27.08,7.76,50.71,14.6,61.6,14.36C19.67,312.14,225.48,329,145.74,313.88Z"/>
        <path class="cls-4" d="M68.83,294.25c-11.21-5.81-8.95-19.18-14-34.86s-55.5-11-72.37-16.85c-9.07-3.1-28.25-6-50.28-8v8.3c1.57.25,3,.54,4.4.87C-36.85,250.09,8.34,260,26.47,260S52,294.83,36.1,285c-14.39-9-56.61-12.18-104-22.23v15c19.8,4.83,38.79,9.39,52.54,11.29C22.5,294.25,80.16,299.94,68.83,294.25Z"/>
        <path class="cls-4" d="M1140.35,957.15c91.87,2.09,130.15,17.43,75.67-27.66-19.71-16.38-46.78-30-75.67-40.9-28.88,10.93-55.84,24.52-75.66,40.9C1010.32,974.58,1048.49,959.24,1140.35,957.15Zm0-50c9.07,4.87,14.16,10,13.94,15.57-.57,16.38-.68,20.1-13.94,20-13.25.12-13.25-3.6-13.82-20C1126.31,917.18,1131.29,912.06,1140.35,907.19Z"/>
        <path class="cls-4" d="M1036.69,973.87c-6.61-4.62-9.92-11.86-8.93-22.76,3-32.77,53.58-59.61,112.59-78.09,59,18.48,109.76,45.32,112.71,78.09,1,10.91-2.34,18.14-9,22.76h121.8c-27.69-18.17-129-82.93-225.51-123.27C1043.93,890.94,942.65,955.7,915,973.87Z"/>
        <path class="cls-4" d="M40.06,215.35c-18.85,2.09-66.48-4.76-107.93-17.57v7.37c11.74,4.57,28.93,9.63,58.77,13.1,89.82,10.46,74.53-13.94,74.53-13.94S61,213,40.06,215.35Z"/>
        <path class="cls-4" d="M191.73,602.52c50.85,26.84,339.92,142.69,375.71,155.35S789,815.74,863.3,825.61s106,41,154.16,42.42-59.13,29.63-108.74,60.65c-31.32,19.7-52.75,34.28-73,45.19h66.08c6.75-10.81,9.41-24.23,29-39.5,34.43-26.84,239.45-107.36,139-90.4S878.48,801.1,815.16,801.68,513.75,725.45,444.88,692.92,206.79,588.46,149,554.53c-43.6-25.52-139-10.07-216.89-1V575a339.11,339.11,0,0,0,37.93-6.34C69.17,546,140.76,575.79,191.73,602.52Z"/>
        <path class="cls-4" d="M84.69,182.81C70,195.6,52.52,188,25.33,192.11s-54.82-4.65-88.8-19.17c-1.47-.63-2.93-1.19-4.4-1.73v12.37c18.75,6.54,42.45,15,78.48,17.83C84.69,207.22,99.41,170,84.69,182.81Z"/>
        <path class="cls-4" d="M162.05,3.06C88.54,12.93-8.08-14.37-59.16-26.57a82.53,82.53,0,0,0-8.71-1.56v21C-27.35,1.21,64.47,2,77,14,88.4,25,45.38,22-67.87,21.64V31c19.22.69,36.27,2.34,49.6,5.27C53.2,52,235.45-6.82,162.05,3.06Z"/>
        <path class="cls-4" d="M1746.43,33.88a238.89,238.89,0,0,0-46.19-4.45c-84.61,0-104.55-25.56-161.86-11.5s-102.05-6.39-138.19,17.89-58.1,29.75-87.1,21.62S1257,84.28,1215.9,83c-23.33-.7-49.83-6.85-75.55-13.83-25.59,7-52.21,13.13-75.55,13.83-41.11,1.28-68.07-33.58-97.07-25.56S916.65,60,880.52,35.82,799.64,32,742.33,17.93s-77.14,11.5-161.86,11.5S469.69,71.5,356.31,51.16s-62.19,15.22-105.8,21.62-63.43,34.51-118.25,44.73S27.6,153.3-18.39,141.8c-16.57-4.14-31.94-8.26-49.48-10.72v6.86a189.65,189.65,0,0,1,18.56,5.72c68.41,24.63,77,6.27,130.37,1.27s89.49-25.56,123-36.95S267.39,88.81,277.36,71,336.94,58.25,368,65.92s69.55,9,98.09,0,70.8-20.45,96.85-21.61,74.76-7.9,102.73-15.81,45-8,76.46-.58,41.57,4.54,74,2.56,29,.93,61.27,15.8S942,75.68,954.59,70.22s61.51-.35,80.31,16.27,58,8.13,96.85-2.68c2.83-.81,5.66-1.62,8.6-2.44,3.06.82,5.89,1.63,8.61,2.44,38.85,10.81,77.93,19.29,96.85,2.68s67.85-21.62,80.42-16.27,44.74-9.06,77.13-23.94,29-17.78,61.4-15.8,42.59,4.88,74-2.56,48.37-7.43,76.34.58S1691.75,43,1717.91,44.31a205.73,205.73,0,0,1,28.52,3.77Z"/>
        <path class="cls-4" d="M1746.43,330.37c-23.08,0-45.1.15-64.42,1.06-81.67,3.83-239.57-38.11-328.71-43.81-56.52-3.72-139.32,8.6-213,23.36-73.62-14.76-156.42-27.08-212.83-23.36-89.14,5.7-247,47.64-328.82,43.81S387,337.12,333.09,316.21s-239.68-22.89-209.89-61-39.08-40.08,72.38-72.39,87.33-68.67,224.84-47.64,155.86-32.88,256.32-45.78,124.49,3.84,185.76,22.89S972,140.87,1022.21,156.09c29.45,8.95,76.57.23,118.14-10.81,41.57,11,88.81,19.76,118.14,10.81,50.18-15.22,98.55-24.75,159.83-43.81s85.29-35.79,185.76-22.89c63.19,8.12,93.92,32.46,142.35,44.15V96.9c-33.71-3.4-57.41-4.52-111.2-20.06-88.81-25.79-85.41,6.86-157.45-1.74s-53.69,36-135.81,36-103.87,29.28-132.41,27.54c-15.29-.93-42.13-7.79-69.21-16.62-26.95,8.83-53.8,15.69-69.2,16.62-28.43,1.74-50.3-27.54-132.41-27.54S875.08,66.5,803,75.1s-68.76-24-157.56,1.74-95.48,12-201,34.28S343.85,82,245,136.92,92.5,185.14,74,207.45s13.37,79.13,90.5,94.58,112.25,27.42,167.53,34.4,164.24,17.19,219.62,18.82,249.65-13.71,338.45-37.76c70.23-19.06,161.41-8.37,250.21,12.55,88.81-20.92,180.1-31.61,250.22-12.55,88.8,24.05,283.28,39.5,338.56,37.76,5.3-.16,11.1-.39,17.3-.7Z"/>
        <path class="cls-4" d="M1746.43-32.7c-37.37-8.1-73.26-14.29-109-9.56-90.62,12-115.76,15.69-173.53,1.74s-207.4,65.42-253.5,48.81c-16.19-5.81-41.45-9.53-70-12.67-28.54,3.14-53.8,6.86-70,12.67C1024.37,24.9,874.74-54.46,817-40.52s-82.91,10.23-173.53-1.74-182,46-296,27.89-202.41,50.66-279,75.06C21,75.82-22.56,62.14-67.87,54.54V80.06c32.27,3.36,45.24,17.17,75.53,23.16,50,9.76,139.1-36.14,177.5-49.27s73.51-54,113.49-50.78S407.39,14.68,479.32,1.55,598.25-39.94,669.49-23.09s92.77,3.26,139.1,3.26,94.35,6.62,144,19.75,73.52,39.27,147,26.14c15.4-2.67,28.65-5.34,40.77-7.78,12.12,2.44,25.49,5.11,40.78,7.78,73.51,13.13,97.52-13.13,147.14-26.14s97.52-19.75,143.85-19.75S1540-6.24,1611.21-23.09c51.6-12.18,90.46-.73,135.22,11.51Z"/>
        <path class="cls-4" d="M1746.43,403.18c-35.57-2-71.17-5-93.76-8.19-47.69-6.62-153.93-18.71-223.48-35.09s-146-12.32-187.69-6.16c-20.5,3-60,10.23-101.15,17.66-41-7.43-80.64-14.64-101-17.66-41.68-6.16-118.14-10.23-187.69,6.16S675.84,388.37,628,395s-153.71,12.67-194.48,10-111-10.69-137.06-23.12-148.27-23.24-191.65-24.05-132.75-1.75-165.71-6.28c-2.13-.29-4.48-.73-7-1.3v10.25c40.2,10,157.33,10.1,190.28,7.78s187.46,18.48,241.37,43,216.12,0,282.27-6.86,216-33.58,275.36-44.85c51.08-9.65,163,9.88,218.94,21,56.07-11.15,167.87-30.68,219-21,59.36,11.27,209.32,38.11,275.47,44.85,26.32,2.73,67.82,8.23,111.66,12.33Z"/>
        <path class="cls-4" d="M1746.43,10.07a238.84,238.84,0,0,0-46.19-4.46c-84.61,0-104.55-25.56-161.86-11.5S1436.33-12.28,1400.19,12s-58.1,29.75-87.1,21.73S1257,60.46,1215.9,59.18c-23.33-.7-49.83-6.86-75.55-13.83-25.59,7-52.21,13.13-75.55,13.83-41.11,1.28-68.07-33.58-97.07-25.45S916.65,36.29,880.52,12,799.64,8.17,742.33-5.89,665.19,5.61,580.47,5.61,469.69,47.79,356.31,27.34s-62.19,15.34-105.8,21.73-63.43,34.4-118.25,44.62S27.6,129.48-18.39,118c-16.57-4.14-31.94-8.26-49.48-10.72v6.86a189.65,189.65,0,0,1,18.56,5.72c68.41,24.63,77,6.39,130.37,1.27s89.49-25.56,123-36.95S267.39,65,277.36,47.21,336.94,34.43,368,42.1s69.55,8.95,98.09,0,70.8-20.34,96.85-21.61,74.76-7.9,102.73-15.81,45-7.9,76.46-.46,41.57,4.41,74,2.44,29,.93,61.27,15.8S942,51.86,954.59,46.4s61.51-.35,80.31,16.27,58,8.13,96.85-2.68c2.83-.81,5.66-1.62,8.6-2.44,3.06.82,5.89,1.63,8.61,2.44,38.85,10.81,77.93,19.29,96.85,2.68s67.85-21.62,80.42-16.27,44.74-9.07,77.13-23.94,29-17.78,61.4-15.8,42.59,5,74-2.44,48.37-7.44,76.34.46,76.69,14.53,102.85,15.81a212.8,212.8,0,0,1,28.52,3.82Z"/>
        <path class="cls-4" d="M998.31,217.44c-72.71,5.93-166.73-32.77-203.54-48.69s-121.2-28.93-181.23-12-125,32.76-183.16,25.79-175.45,41.83-175.45,41.83c-64.9,19.17,27.18,22.89,69.77,20.8s138.65,37.88,204.57,36.84,176.36-18.94,244.21-28.82S1070.92,211.51,998.31,217.44ZM678.44,237.31c-87.21,10.92-137.62,7-196.74,3.95s-40.67,10-148.27-24.87c0,0,82.34-31.72,122.1-20.79s104.66-12,164.81-23.94,141.47,10.92,182.13,29.86S765.66,226.39,678.44,237.31Z"/>
        <path class="cls-4" d="M1746.43,294.59c-71.24,1.36-157.18-2.14-201.25-15.56-65.25-20-206.26-25.34-268-30.8-27.41-2.44-81,7.67-136.83,19.64-55.84-12-109.3-22.08-136.71-19.64C941.91,253.69,800.77,259,735.53,279s-222.12,18-287.36,10.8S272,243.12,227.75,257.3s-51.2-27.19-12.35-39.86c0,0,118.14-57.87,232.77-47.06s188.7-57.87,266.29-41.6S904.87,190.37,993,199.43c42.93,4.3,97.07-.23,147.36-8,50.41,7.79,104.55,12.32,147.37,8,88.23-9.06,201-54.26,278.64-70.65,56.27-11.8,110.69,21.13,180.07,36v-16.9c-25.62-3.34-51.93-9.17-77-18.71C1595,100.78,1545.29,89.51,1479,113.56s-172.4,72.16-273.09,72.16a260.69,260.69,0,0,1-65.59-8.6,259.73,259.73,0,0,1-65.47,8.6c-100.69,0-206.94-48.11-273.2-72.16s-115.87-12.78-190.41,15.57-160,24.05-205.58,18.36-186.21,15.57-242.85,69.37,48.37,62.28,100.81,62.28,135.13,24.05,172.4,32.54,162.65,19.75,286.57-10.93c112.13-27.65,242.17-50.08,417.73-13.48,175.68-36.6,305.6-14.17,417.74,13.48,67.09,16.61,134.6,21,188.34,20.08Z"/>
        <path class="cls-4" d="M1746.43,202.8c-24.22-5.09-114.16-23.62-138.39-14.06-25,9.76-51.31,24.75-70.56,24.75s98.54,10.69,148.94,9.41c21.29-.54,40.12.67,60,1Z"/>
        <path class="cls-4" d="M1746.43,371.16c-43.49-.05-91-1.85-149.26-5.1-195.28-11-224.73-57.64-409.24-22q-25,4.89-47.58,9.07c-15.06-2.79-30.81-5.81-47.46-9.07-184.62-35.67-214.07,10.93-409.35,22s-270.15,5.46-476.18-27.43c-173.1-27.72-191.34-5-275.23-24.74v24.5a162.6,162.6,0,0,0,27.28,3.15c69.66,1.74,265.28-.23,387.27,34.74s417.85-3.72,454.77-13.71,156.09-36.95,295.75-5.11c13.25,3,27.75,5.81,43.15,8.48,15.41-2.67,29.91-5.46,43.16-8.48,139.66-31.84,258.93-5,295.86,5.11,23.08,6.25,147.35,23.72,267.06,27.38Z"/>
        <path class="cls-4" d="M1050,223.48s21.18,26.61,90.38,34c69.21-7.44,90.51-34,90.51-34s-40.44-6.85-90.51-16.5C1090.29,216.63,1050,223.48,1050,223.48Zm90.38,12.2q-14.26-2.27-29.56-4.88s11.67-2.32,29.56-6c17.9,3.72,29.68,6,29.68,6C1159.84,232.55,1150,234.17,1140.35,235.68Z"/>
        <path class="cls-4" d="M1746.43,243.82c-40.45,1.49-83.36,1.11-144.17-6.51-87.21-10.92-164.69-16.85-124-35.79s122.1-41.71,182.25-29.86c28.61,5.7,58.35,13.88,85.94,19.71V176.24c-26.67-5.16-53.36-12.22-79.15-19.45-60.15-17-144.42-4-181.23,12s-130.94,54.62-203.54,48.69,157,25.8,224.84,35.79c66.12,9.62,172.68,26.86,239.08,28.7Z"/>
        <path class="cls-4" d="M1746.43,56.67a238.05,238.05,0,0,0-46.19-4.46c-84.61,0-104.55-25.56-161.86-11.5s-102.05-6.4-138.19,17.89-58.1,29.75-87.1,21.73-56.07,26.84-97.19,25.56c-23.33-.81-49.83-7-75.55-13.94-25.59,7-52.21,13.13-75.55,13.94-41.11,1.28-68.07-33.58-97.07-25.56s-51.08,2.55-87.21-21.73-80.88-3.83-138.19-17.89-77.14,11.5-161.86,11.5S469.69,94.39,356.31,73.94s-62.19,15.34-105.8,21.73-63.43,34.51-118.25,44.62S27.6,176.07-18.39,164.57c-16.57-4.13-31.94-8.25-49.48-10.71v6.88a191.92,191.92,0,0,1,18.56,5.69c68.41,24.63,77,6.39,130.37,1.28s89.49-25.45,123-37,63.32-19.06,73.29-36.95S336.94,81,368,88.69s69.55,9,98.09,0,70.8-20.33,96.85-21.61,74.76-7.9,102.73-15.8,45-7.9,76.46-.47,41.57,4.42,74,2.44,29,1,61.27,15.92S942,98.46,954.59,93.11s61.51-.47,80.31,16.15,58,8.13,96.85-2.67c2.83-.82,5.66-1.63,8.6-2.44,3.06.81,5.89,1.62,8.61,2.44,38.85,10.8,77.93,19.4,96.85,2.67s67.85-21.61,80.42-16.15,44.74-9.06,77.13-23.94,29-17.89,61.4-15.92,42.59,5,74-2.44,48.37-7.43,76.34.47,76.69,14.52,102.85,15.8a210.06,210.06,0,0,1,28.52,3.85Z"/>
        <path class="cls-4" d="M743.23,213.49c-19.14,0-45.42-15-70.45-24.75S552.6,199,532.1,203.26,437.41,214,437.41,214c69.66,16.27,106.36,7.67,156.87,9S762.49,213.49,743.23,213.49Z"/>
        <path class="cls-4" d="M982.34,496.78c18.81-5.81,122,10.57,128.22,1.39s-57.88-8.48-82.34-9.87-51.88-11.51-78-15.23S846.08,491,846.08,491c-21.29,14.64,14.5,16,63.77,6.85S963.43,502.59,982.34,496.78Z"/>
        <path class="cls-4" d="M942.13,534.31c32-3.95,70.34-15.11,92.2-9.18,19.37,5.23,79.75,3.25,106-.58,26.4,3.83,86.65,5.81,106.14.58,21.74-5.93,60.14,5.23,92.2,9.18s89-.7,105.56-8.6,36-41.6,60.26-33.46c0,0-80.64-28.24-107.6-30.22s-53.69-9.18-76.12-10.45-42.25,15.68-85.18,15.68-44.17-9.18-72.94-2c-7.37,1.86-14.84,4.18-22.32,6.5-7.36-2.32-14.83-4.64-22.2-6.5-28.77-7.21-30.13,2-72.94,2S982.46,450.18,960,451.58,910.76,460.06,883.8,462s-107.49,30.22-107.49,30.22c24.24-8.14,43.49,25.67,60.14,33.46S910.08,538.26,942.13,534.31ZM824.56,484.93C932.05,463.2,949.61,463.55,979,468s76.11,14.53,113.83,13.25c14.16-.58,31.83,1.62,47.57,4.53,15.86-2.91,33.53-5.11,47.69-4.53,37.72,1.28,84.27-8.83,113.72-13.25s47-4.76,154.5,17c0,0,17.1,5.81,4.64,16.61s-26.84,23.36-72.83,22.78-67-7.21-100.13-8.25-76.79,2.09-100.24,2.09c-12.12,0-30.36-5.11-47.35-10.23-16.87,5.12-35.22,10.23-47.23,10.23-23.56,0-67.17-3-100.24-2.09s-54.26,7.55-100.25,8.25-60.14-12-72.71-22.78S824.56,484.93,824.56,484.93Z"/>
        <path class="cls-4" d="M1746.43,538.62c-57.93,39.77-106.33,64.24-169.65,82-84.27,23.82-261.2,39.05-317.49,35.68-51.31-3.14-50.29-10.46-118.94,6.39-68.64-16.85-67.62-9.53-118.93-6.39-56.18,3.37-233.11-11.86-317.49-35.68S561.78,561.38,472.52,493.52s-119-32.3-210-69.6-200-18.59-274.45-25.45c-19.79-1.79-38-5.63-55.94-10.27v23.14c70.71,7.5,160.2,6.23,224.6,12.58,86,8.48,224.5,25.45,299.25,93.31s272.75,134,360.42,144.2c60.38,7,244.89,18.82,323.95,17.78,79.07,1,263.58-10.81,324.07-17.78,65-7.59,190.86-46,282-93Z"/>
        <path class="cls-4" d="M1298.48,496.78c18.8,5.81,23.1-8.14,72.38,1s85.17,7.79,63.88-6.85c0,0-78-21.61-104.21-17.9s-53.57,13.83-78,15.23-88.58.69-82.35,9.87S1279.67,491,1298.48,496.78Z"/>
        <path class="cls-4" d="M1746.43,470c-28.4,19.52-48.08,40.62-70.77,63.81-32.73,33.7-171,55.43-231.29,78.2s-127.54,2.68-161.18,0c-21.41-1.74-87.56-8.59-142.84-15.22-55.27,6.63-121.42,13.48-142.71,15.22-33.65,2.68-101,22.66-161.3,0s-198.45-44.61-231.29-78.2-59.36-62.74-115.2-89.12c0,0,151.55-7.2,210.91-15.45s236.62-50,268.56-45.44c21.63,3.14,98.31,10,171,19.18,72.84-9.18,149.52-16,171.15-19.18,32-4.53,209.1,37.3,268.45,45.44,38.86,5.39,117,10.33,166.48,13.11V430.84c-65-3.93-140.75-10.24-185.4-19.82-90-19.4-172.39-33-233.67-41.71-34.89-5-112.47,6.86-187,20.68-74.53-13.82-152-25.68-186.89-20.68C892.18,378,809.72,391.62,719.79,411s-306.17,25.34-306.17,25.34C570.27,495.85,512.28,513.74,586.24,548s254,92.26,341,83.31c50.64-5.22,133.66-6.85,213.06-17.89,79.52,11,162.54,12.67,213.18,17.89,87,8.95,267-49.15,340.94-83.31,33.94-15.71,40.13-28,52-42.38Z"/>
        <path class="cls-4" d="M631.66,532.91c33.64,13.72,115.2,30,136.49,40.91s67.28,25.44,124,28.23,188.71-14.52,225.07-14.52a222.66,222.66,0,0,0,23.1-1.4,224.75,224.75,0,0,0,23.11,1.4c36.36,0,168.43,17.2,225.18,14.52s102.73-17.31,124-28.23,102.73-27.19,136.49-40.91,21.18-35.43,49.61-51.82,25.71-23.59,25.71-23.59c-135.58-14.52-168.43-19.05-212.72-28.23s-173.64-38.12-201.16-34.51c-14.5,2-91.18,10.45-170.25,20.21-78.94-9.76-155.63-18.24-170.24-20.21-27.41-3.61-156.76,25.44-201.05,34.51S691.92,443,556.34,457.5c0,0-2.61,7.21,25.71,23.59S598,519.32,631.66,532.91Zm57.66-79c24.8-6.39,77.93-12.78,189.61-36.37s137.28-3.72,161.29-2.79c10.2.47,51.88,4.65,100.13,10.46,48.37-5.81,90.05-10,100.25-10.46,23.9-.93,49.61-20.91,161.29,2.79s164.81,30,189.61,36.37,26.28-8.25,95.72,10.81c0,0-26.62,24.63-32,37.3s-23.9,24.51-57.54,30-81.55,19.17-99.22,32.76-89.6,19.06-137.39,23.59-97.3-22.19-154.16-11.74a219.23,219.23,0,0,1-66.61,2.1,218.39,218.39,0,0,1-66.48-2.1C1017,566.15,967.51,593,919.71,588.34s-119.73-10-137.4-23.59-65.58-27.3-99.22-32.76-52.33-17.2-57.66-30-31.82-37.3-31.82-37.3C663,445.65,664.4,460.18,689.32,453.9Z"/>
        <path class="cls-4" d="M673.46,521.18c2.72.7,5.32,1.28,7.36,2,3.85,1.05,10,2.33,17.56,3.84,23.67,4.65,61.62,12.32,82.12,27.89,18.91,14.4,40.77,16.5,61.62,18.47,10.08.93,19.93,2,28.88,4.3,12.91,3.37,31.83,4.77,50.75,4.77,22,0,44.17-1.86,56.74-4.77,13.71-3.14,36.93-7.67,59.58-8.95,15-.93,29.68-.35,40.89,3,12.35,3.61,28.32,4.3,43.84,3.26,6-.35,11.89-.93,17.55-1.75,5.67.82,11.67,1.4,17.56,1.75,15.63,1,31.49.35,43.84-3.26,11.21-3.37,25.93-4,41-3,22.54,1.28,45.87,5.81,59.47,8.95,12.68,2.91,34.77,4.77,56.74,4.77,18.92,0,37.84-1.4,50.75-4.77,9.06-2.32,18.91-3.37,29-4.3,20.85-2,42.71-4.07,61.62-18.47,20.39-15.57,58.45-23.24,82.12-27.89,7.59-1.51,13.71-2.79,17.56-3.84,2-.69,4.53-1.27,7.36-2,17-4.07,42.48-10.11,54.48-42.41,3.74-10.11,2.61-15-2.83-17.08-4.64-1.86-12.57-.58-23.33,1.16-21.75,3.6-56.07,9.18-95-5.93-42-16.27-63.66-18.24-83.82-20.1-16.09-1.39-31.26-2.79-55.16-11.5-51.43-18.59-107.5-13.95-128.68-12.2l-3.62.23c-6.91.58-19.26,2.9-34.44,5.81-23.22,4.53-53.35,10.22-80.87,12.66-4.3.35-9,.82-13.71,1.51-4.75-.69-9.28-1.16-13.7-1.51-27.53-2.44-57.54-8.13-80.88-12.66-15.17-2.91-27.41-5.23-34.32-5.81l-3.73-.23c-21.07-1.75-77.25-6.39-128.56,12.2-24,8.71-39.08,10.11-55.17,11.5-20.16,1.86-41.91,3.83-83.81,20.1-39,15.11-73.29,9.53-95.15,5.93-10.76-1.74-18.58-3-23.33-1.16-5.33,2.09-6.57,7-2.84,17.08C630.87,511.07,656.36,517.11,673.46,521.18Zm-49.84-54.5c3.4-1.28,10.65-.11,20.62,1.51,22.31,3.6,57.54,9.41,97.75-6.27,41.23-16,62.64-17.9,82.46-19.64,16.42-1.51,31.83-2.9,56.4-11.85,50.3-18.24,105.68-13.6,126.53-12l3.62.35c6.68.46,18.92,2.79,33.87,5.69,23.44,4.42,53.69,10.23,81.33,12.67,4.53.35,9.28.93,14.15,1.63,5-.7,9.63-1.28,14.16-1.63,27.64-2.44,58-8.13,81.44-12.67,15-2.9,27.08-5.23,33.76-5.69l3.74-.35c20.84-1.63,76.11-6.27,126.4,12,24.7,8.95,40.1,10.34,56.52,11.85,19.83,1.74,41.12,3.6,82.35,19.64,40.32,15.68,75.44,9.87,97.87,6.27,9.85-1.62,17.21-2.79,20.61-1.51,2,.82,2.15,3.72-.23,10.23-11,29.51-34.88,35.21-50.85,39-2.72.7-5.21,1.28-7.59,2-3.51,1.05-9.63,2.21-17.11,3.72-24.12,4.88-62.86,12.55-84.27,28.94-17.78,13.48-38.85,15.57-58.9,17.43-10.42.93-20.5,2-29.79,4.41-12.46,3.26-30.92,4.65-49.5,4.65-21.63,0-43.38-1.86-55.61-4.65-13.82-3.25-37.49-7.78-60.37-9.06-15.52-.93-30.81-.35-42.71,3.14-11.66,3.48-27,4.06-42,3.13-6.12-.35-12.12-1-17.9-1.86-5.66.82-11.78,1.51-17.89,1.86-15,.93-30.25.35-42-3.13s-27.18-4.07-42.7-3.14c-22.88,1.28-46.44,5.81-60.37,9.06-12.23,2.79-33.87,4.65-55.61,4.65-18.47,0-36.93-1.39-49.39-4.65-9.4-2.44-19.48-3.48-29.79-4.41-20.05-1.86-41.23-4-59-17.43-21.41-16.39-60-24.06-84.16-28.94-7.48-1.51-13.59-2.67-17.11-3.72-2.37-.69-4.87-1.27-7.7-2-15.86-3.83-39.76-9.53-50.74-39C621.47,470.4,621.58,467.5,623.62,466.68Z"/>
        <path class="cls-4" d="M670.06,502.12c23.68,3.95,81.22,19.76,88.92,25s32,23,50.63,26.26,60.14,6.5,85.06,11.85,53.13,2,71.14-2.68,67.84-15.1,79.4-9.87,62.64,12.55,80.65,8.6c3.85-.93,8.94-1.86,14.49-2.91,5.67,1,10.65,2,14.62,2.91,17.89,4,69.09-3.37,80.64-8.6s61.51,5.23,79.41,9.87,46.1,7.91,71,2.68,66.61-8.6,85.18-11.85,42.93-21,50.52-26.26,65.36-21,89-25,18.58-24.28,18.58-24.28c-68.53-3.26-45.43,8.48-104.32-8.6s-74.31-13.71-153-38-144.08,12.44-174.1,7.21c-12.46-2.21-34.43,2.32-57.54,8-23-5.69-45.08-10.22-57.42-8-30.13,5.23-95.38-31.61-174.1-7.21s-94.12,20.92-153,38-35.91,5.34-104.32,8.6C651.49,477.84,646.27,498.17,670.06,502.12Zm254.74-61.7c39.08-11.15,85.18,8.48,111.35,12.43s46.78-14.4,81.32-5.22c8,2.09,15.41,4.64,22.88,7.2,7.59-2.56,15-5.11,22.88-7.2,34.66-9.18,55,9.18,81.33,5.22s72.38-23.58,111.46-12.43,62.3,3.95,207.39,53.22c0,0-57,9.76-71.13,22.31s-44.74,40.67-123.46,35.44-89.71-21-116.56-16.38-60.82,8.48-95.37,5.81a147.73,147.73,0,0,1-16.54-2.33,142.22,142.22,0,0,1-16.42,2.33c-34.55,2.67-68.53-1.28-95.37-5.81S990.73,546.16,912,551.39s-109.41-23-123.57-35.44-71-22.31-71-22.31C862.39,444.37,885.72,451.58,924.8,440.42Z"/>
        <path class="cls-4" d="M1746.5,935.3c-54.21-7.92-113-8.36-137.1-8.36-35,0-256.78-36.72-200.6-41s160.62-18.48,285-63.56c20.35-7.4,37.56-13.3,52.64-18.14V782.11c-18,5.67-33.27,11.49-43,17.24-36.92,21.73-194.48,67-254.28,72.74s-137.4,1.86-80.2,19.87,155.75,44.39,190.75,52.87C1584.47,950.92,1680,951.24,1750,958A95.91,95.91,0,0,1,1746.5,935.3Z"/>
        <path class="cls-4" d="M1746.43,900.24c-41.5-1.79-113.58-8.68-113.58-15.48,0-4.23,47.46-11,113.58-23.47V848.38c-9.25,1-18.2,1.71-26.82,1.87-73.74,1.28-222.69,37.18-145,41.13,35.71,1.82,102.86,12.91,171.8,26.3Z"/>
        <path class="cls-4" d="M1746.43,597.63c-94.64,56.41-137.7,60.15-184.49,68.91-54.59,10.11-145.55,28.82-205,35.56-47.68,5.46-155.85,16.26-216.57,11.73-60.71,4.53-168.77-6.27-216.45-11.73-59.58-6.74-150.42-25.45-205-35.56S614.67,653,482.37,564.75,270.79,479.93,212.91,449.37s-221.56-5.11-277.74-17l-3-.62v26.86c54.52,2.62,113.34,1.79,165-.79,102.51-5.11,193.23,18.71,319.08,93.31s234.8,117,431.55,161.16c129.47,28.94,209.21,20.8,292.57,10.23,83.48,10.57,163.11,18.71,292.58-10.23,134.31-30.14,227.71-59.47,313.5-98.79Z"/>
        <path class="cls-4" d="M1403.25,922.76c-29.67-13.72-113.72-47.3-53.24-53.69s207-30.44,277.63-57.75c24.25-9.37,67.56-23.44,118.79-40.1v-14c-90.5,28.74-178.61,55.28-202.84,62.48-49.16,14.76-148,28.7-188.48,32.65s-70.68,22.08-60.37,25.21,106.47,64,127,69.37c13.37,3.41,50.65,17.53,90.9,27h181.8c-24.85-2.88-46.78-4.87-60.66-4.87C1588.67,969,1433,936.35,1403.25,922.76Z"/>
        <path class="cls-4" d="M1263.25,868c48.25-1.4,79.85-32.54,154.16-42.42s260.18-55.07,296-67.74c5.54-2,17.17-6.43,33-12.63V727.77c-98.41,34.46-235.08,74.33-280.77,73.91C1402.23,801.1,1311.5,860.94,1211,844s104.55,63.56,139,90.4c19.59,15.27,22.25,28.69,29,39.5h66c-20.21-10.91-41.63-25.49-73-45.19C1322.49,897.66,1215.11,869.42,1263.25,868Z"/>
        <path class="cls-4" d="M1746.43,635.36C1673.74,668,1578.54,708,1516,716.62c-84.27,11.62-213.85,47.64-301.86,45.09a468.91,468.91,0,0,1-73.74-8.37,468.63,468.63,0,0,1-73.73,8.37c-88,2.55-217.59-33.47-301.87-45.09s-227.55-80.06-295.51-111S281.78,512.7,217.66,490.74,6.42,480.51-52.71,480.51q-7.53,0-15.16-.31v15.29c63.45,3.55,141,4.61,203.42-.57,103.41-8.6,302,116.2,355.09,143.39s242,90.4,306.17,99,179,48.81,250.32,43c31.27-2.44,60.6-9.41,93.22-15.34,32.74,5.93,62,12.9,93.34,15.34,71.24,5.81,185.87-34.4,250.21-43,52-6.95,185.23-49.49,262.53-80Z"/>
        <path class="cls-4" d="M1746.43,679.6c-11.89,5.08-21.89,9.08-29.42,11.69-61.17,21.38-259.28,78.78-363,99-97.19,18.94-142.49,9.88-213.63-6.27-71,16.15-116.32,25.21-213.51,6.27-103.75-20.22-301.86-77.62-363-99S278.49,557.32,195.58,519,24.43,520-58.6,521.06c-3.1,0-6.19,0-9.27,0V539.4c59.66-1.51,122.3-5.08,181.55-8.69,101.15-6.05,259.62,109.8,374.47,158.61S773.48,764.49,878.48,801.1c99.56,34.62,190.29,25.44,261.87,7.08,71.7,18.36,162.32,27.54,261.88-7.08,91.69-32,233.29-56.22,344.2-94.27Z"/>
        <path class="cls-5" d="M618,371.82h27a5.06,5.06,0,0,1,.89.08v1.75c0,.09-.49.09-1,.09H617.89c-.49,0-.9,0-.9-.09V371.9a7,7,0,0,1,1-.08Z"/>
        <path class="cls-5" d="M653.06,371.82h29.57c.32,0,.4.08.4.08v1a1.76,1.76,0,0,1-.56.09H652.9a1.78,1.78,0,0,1-.57-.09v-1a4.62,4.62,0,0,1,.73-.08Z"/>
        <path class="cls-5" d="M688.48,371.82H718a.48.48,0,0,1,.33.08v1a1.59,1.59,0,0,1-.49.09H688.31a2.85,2.85,0,0,1-.65-.09v-1a4.91,4.91,0,0,1,.82-.08Z"/>
        <path class="cls-5" d="M723.81,371.82h29.57c.32,0,.41.08.41.08v1a1.86,1.86,0,0,1-.57.09H723.65a2.69,2.69,0,0,1-.57-.09v-1a6.47,6.47,0,0,1,.73-.08Z"/>
        <path class="cls-5" d="M759.23,371.82H788.8c.32,0,.32.08.32.08v1a1.07,1.07,0,0,1-.49.09H759.06a2.71,2.71,0,0,1-.64-.09v-1a6.19,6.19,0,0,1,.81-.08Z"/>
        <path class="cls-5" d="M794.56,371.82h29.65a.48.48,0,0,1,.33.08v1a1.68,1.68,0,0,1-.49.09H794.4a2.69,2.69,0,0,1-.57-.09v-1a6.47,6.47,0,0,1,.73-.08Z"/>
        <path class="cls-5" d="M830,371.82h29.57c.32,0,.4.08.4.08v1a1.78,1.78,0,0,1-.57.09H829.82a1.78,1.78,0,0,1-.57-.09v-1a4.45,4.45,0,0,1,.73-.08Z"/>
        <path class="cls-5" d="M865.31,371.82H895a.48.48,0,0,1,.33.08v1a1.68,1.68,0,0,1-.49.09H865.15a1.68,1.68,0,0,1-.49-.09v-1a3.18,3.18,0,0,1,.65-.08Z"/>
        <path class="cls-5" d="M900.65,371.82H930.3c.32,0,.4.08.4.08v1a1.76,1.76,0,0,1-.56.09H900.57a1.78,1.78,0,0,1-.57-.09v-1a4.52,4.52,0,0,1,.65-.08Z"/>
        <path class="cls-5" d="M936.06,371.82h29.65a.48.48,0,0,1,.33.08v1a1.59,1.59,0,0,1-.49.09H935.9a1.57,1.57,0,0,1-.48-.09v-1a3,3,0,0,1,.64-.08Z"/>
        <path class="cls-5" d="M971.48,371.82h29.57c.32,0,.41.08.41.08v1a1.86,1.86,0,0,1-.57.09H971.32a1.68,1.68,0,0,1-.49-.09v-1a3.18,3.18,0,0,1,.65-.08Z"/>
        <path class="cls-5" d="M1006.82,371.82h29.56c.33,0,.41.08.41.08v1a1.59,1.59,0,0,1-.49.09h-29.57a1.76,1.76,0,0,1-.56-.09v-1a4.31,4.31,0,0,1,.65-.08Z"/>
        <path class="cls-5" d="M1042.23,371.82h29.57c.32,0,.41.08.41.08v1a1.86,1.86,0,0,1-.57.09h-29.57a1.68,1.68,0,0,1-.49-.09v-1a3.18,3.18,0,0,1,.65-.08Z"/>
        <path class="cls-5" d="M1046.38,371.82h27.78a.47.47,0,0,1,.32.08v1a1.59,1.59,0,0,1-.49.09h-27.78a1.57,1.57,0,0,1-.48-.09v-1a4.31,4.31,0,0,1,.65-.08Z"/>
        <path class="cls-5" d="M652.9,371.82h27a3.79,3.79,0,0,1,.81.08v1.75c0,.09-.41.09-1,.09H652.82c-.65,0-1.06,0-1.06-.09V371.9a9.4,9.4,0,0,1,1.14-.08Z"/>
        <path class="cls-5" d="M687.66,371.82h27.05a3,3,0,0,1,.82.08v1.75c0,.09-.41.09-.9.09h-27c-.57,0-1,0-1-.09V371.9a9,9,0,0,1,1-.08Z"/>
        <path class="cls-5" d="M722.59,371.82h27a4,4,0,0,1,.89.08v1.75c0,.09-.48.09-1,.09H722.43c-.49,0-.89,0-.89-.09V371.9a7.15,7.15,0,0,1,1.05-.08Z"/>
        <path class="cls-5" d="M757.44,371.82h27a3.67,3.67,0,0,1,.81.08v1.75c0,.09-.48.09-1,.09H757.28c-.49,0-1,0-1-.09V371.9a9.4,9.4,0,0,1,1.14-.08Z"/>
        <path class="cls-5" d="M792.21,371.82h27a4,4,0,0,1,.89.08v1.75c0,.09-.41.09-1,.09h-27c-.49,0-.9,0-.9-.09V371.9a8.73,8.73,0,0,1,1-.08Z"/>
        <path class="cls-5" d="M827.14,371.82h27a4.21,4.21,0,0,1,.9.08v1.75c0,.09-.41.09-1,.09h-27c-.56,0-1,0-1-.09V371.9a7.38,7.38,0,0,1,1.06-.08Z"/>
        <path class="cls-5" d="M862,371.82h27a5.25,5.25,0,0,1,.9.08v1.75c0,.09-.49.09-1,.09H861.9c-.57,0-1,0-1-.09V371.9a7.15,7.15,0,0,1,1.05-.08Z"/>
        <path class="cls-5" d="M896.83,371.82h27a5.06,5.06,0,0,1,.89.08v1.75c0,.09-.48.09-1,.09h-27c-.49,0-1,0-1-.09V371.9a8.74,8.74,0,0,1,1.05-.08Z"/>
        <path class="cls-5" d="M931.68,371.82h27.05a2.88,2.88,0,0,1,.81.08v1.75c0,.09-.32.09-.89.09h-27c-.49,0-1,0-1-.09V371.9a9,9,0,0,1,1.06-.08Z"/>
        <path class="cls-5" d="M966.53,371.82h27.05a4.16,4.16,0,0,1,.89.08v1.75c0,.09-.41.09-1,.09h-27c-.49,0-.9,0-.9-.09V371.9a7,7,0,0,1,1-.08Z"/>
        <path class="cls-5" d="M1001.46,371.82h27a3.83,3.83,0,0,1,.82.08v1.75c0,.09-.41.09-.9.09h-27.05c-.57,0-1,0-1-.09V371.9a7.38,7.38,0,0,1,1.06-.08Z"/>
        <path class="cls-5" d="M1036.3,371.82h27a3.67,3.67,0,0,1,.81.08v1.75c0,.09-.4.09-1,.09h-27c-.49,0-.89,0-.89-.09V371.9a7.15,7.15,0,0,1,1-.08Z"/>
        <path class="cls-5" d="M1032.32,371.82h41.35a3.67,3.67,0,0,1,.81.08v1.75c0,.09-.41.09-1,.09h-41.27c-.49,0-.81,0-.81-.09V371.9a5.06,5.06,0,0,1,.89-.08Z"/>
        <path class="cls-5" d="M618,371.82h44a4.16,4.16,0,0,1,.89.08v1.92a5.66,5.66,0,0,1-1,.08h-44a5.25,5.25,0,0,1-.9-.08V371.9a7,7,0,0,1,1-.08Z"/>
        <path class="cls-5" d="M670.69,371.82h27a4,4,0,0,1,.89.08v1.92a6.93,6.93,0,0,1-1,.08h-27a4.21,4.21,0,0,1-.9-.08V371.9a5.66,5.66,0,0,1,1-.08Z"/>
        <path class="cls-5" d="M704.24,371.82h27a4.21,4.21,0,0,1,.9.08v1.92a5.66,5.66,0,0,1-1,.08H704.15a5.21,5.21,0,0,1-.89-.08V371.9a7,7,0,0,1,1-.08Z"/>
        <path class="cls-5" d="M737.86,371.82h27a7,7,0,0,1,1,.08v1.92a9,9,0,0,1-1.06.08h-27a5.9,5.9,0,0,1-1-.08V371.9a7.61,7.61,0,0,1,1.13-.08Z"/>
        <path class="cls-5" d="M771.33,371.82h27a4,4,0,0,1,.89.08v1.92a6.74,6.74,0,0,1-1,.08h-27a4,4,0,0,1-.89-.08V371.9a6.74,6.74,0,0,1,1-.08Z"/>
        <path class="cls-5" d="M805,371.82h27a3.67,3.67,0,0,1,.81.08v1.92a5.46,5.46,0,0,1-1,.08H804.8a7,7,0,0,1-1-.08V371.9a9.4,9.4,0,0,1,1.14-.08Z"/>
        <path class="cls-5" d="M838.51,371.82h27a4,4,0,0,1,.89.08v1.92a6.93,6.93,0,0,1-1,.08H838.43a5.66,5.66,0,0,1-1-.08V371.9a7.38,7.38,0,0,1,1.06-.08Z"/>
        <path class="cls-5" d="M872.06,371.82h27.05a5.21,5.21,0,0,1,.89.08v1.92a7,7,0,0,1-1,.08H872a5.6,5.6,0,0,1-1-.08V371.9a7.38,7.38,0,0,1,1.06-.08Z"/>
        <path class="cls-5" d="M905.6,371.82h27a3.83,3.83,0,0,1,.82.08v1.92a5.66,5.66,0,0,1-1,.08h-27a5.06,5.06,0,0,1-.89-.08V371.9a7.15,7.15,0,0,1,1.05-.08Z"/>
        <path class="cls-5" d="M939.15,371.82H966.2a4,4,0,0,1,.89.08v1.92a6.74,6.74,0,0,1-1,.08h-27a5.46,5.46,0,0,1-1-.08V371.9a8.74,8.74,0,0,1,1-.08Z"/>
        <path class="cls-5" d="M972.78,371.82h27.05a3.67,3.67,0,0,1,.81.08v1.92a5.46,5.46,0,0,1-1,.08h-27a7,7,0,0,1-1-.08V371.9a9.4,9.4,0,0,1,1.14-.08Z"/>
        <path class="cls-5" d="M1006.33,371.82h27a2.88,2.88,0,0,1,.81.08v1.92a4.16,4.16,0,0,1-.89.08h-27a7.38,7.38,0,0,1-1.06-.08V371.9a9.4,9.4,0,0,1,1.14-.08Z"/>
        <path class="cls-5" d="M1039.88,371.82h27a4.21,4.21,0,0,1,.9.08v1.92a5.66,5.66,0,0,1-1,.08h-27a7.38,7.38,0,0,1-1.06-.08V371.9a9.4,9.4,0,0,1,1.14-.08Z"/>
        <path class="cls-5" d="M1048.41,371.82h25.26a3.67,3.67,0,0,1,.81.08v4.25c0,.09-.41.09-1,.09H1056c-.57,0-1,0-1-.09V373.9h-6.83a5.21,5.21,0,0,1-.89-.08V371.9a7.38,7.38,0,0,1,1.06-.08Z"/>
        <path class="cls-5" d="M617.64,371.82h29.65a.48.48,0,0,1,.33.08v1a1.68,1.68,0,0,1-.49.09H617.48a1.13,1.13,0,0,1-.49-.09v-1a2.34,2.34,0,0,1,.65-.08Z"/>
        <path class="cls-5" d="M618,371.82h27a5.06,5.06,0,0,1,.89.08V374a6.93,6.93,0,0,1-1,.08H617.89a5.25,5.25,0,0,1-.9-.08V371.9a7,7,0,0,1,1-.08Z"/>
        <path class="cls-5" d="M651.6,371.82h27a4.16,4.16,0,0,1,.89.08V374a5.6,5.6,0,0,1-1,.08h-27a5.66,5.66,0,0,1-1-.08V371.9a7.38,7.38,0,0,1,1.06-.08Z"/>
        <path class="cls-5" d="M685.15,371.82H712.2a3,3,0,0,1,.81.08V374a4.21,4.21,0,0,1-.9.08h-27a5.66,5.66,0,0,1-1-.08V371.9a9,9,0,0,1,1.06-.08Z"/>
        <path class="cls-5" d="M718.78,371.82h27a3.83,3.83,0,0,1,.82.08V374a5.66,5.66,0,0,1-1,.08h-27a5.21,5.21,0,0,1-.89-.08V371.9a9,9,0,0,1,1.06-.08Z"/>
        <path class="cls-5" d="M752.4,371.82H917.87a3.67,3.67,0,0,1,.81.08V374a5.06,5.06,0,0,1-.89.08H752.32a9.13,9.13,0,0,1-1.13-.08V371.9a11.69,11.69,0,0,1,1.21-.08Z"/>
        <path class="cls-5" d="M924.12,371.82h42a5.06,5.06,0,0,1,.89.08V374a6.74,6.74,0,0,1-1,.08H924a5.46,5.46,0,0,1-1-.08V371.9a7.33,7.33,0,0,1,1-.08Z"/>
        <path class="cls-5" d="M974.49,371.82h27a4.16,4.16,0,0,1,.89.08V374a5.66,5.66,0,0,1-1,.08h-27a5.66,5.66,0,0,1-1-.08V371.9a7.38,7.38,0,0,1,1.06-.08Z"/>
        <path class="cls-5" d="M1011.61,371.82h27.05a5.06,5.06,0,0,1,.89.08v1.25a6.18,6.18,0,0,1-1,.09h-27a5,5,0,0,1-1-.09V371.9a7.38,7.38,0,0,1,1.06-.08Z"/>
      </g>
    </g>
  </g>
  <rect class="cls-1" x="216.15" y="96.03" width="1280" height="720"/>
</svg>
