<svg id="Layer_1" data-name="Layer 1" xmlns="http://www.w3.org/2000/svg" xmlns:xlink="http://www.w3.org/1999/xlink" width="1600" height="900" viewBox="0 0 1600 900">
  <defs>
    <style>
      .cls-1 {
        fill: none;
      }

      .cls-2 {
        clip-path: url(#clip-path);
      }

      .cls-3 {
        fill: #16bfab;
      }

      .cls-4 {
        opacity: 0.04;
      }

      .cls-5 {
        fill: #fff;
      }
    </style>
    <clipPath id="clip-path">
      <rect class="cls-1" width="1600" height="900"/>
    </clipPath>
  </defs>
  <g class="cls-2">
    <g id="BG_1" data-name="BG 1">
      <rect class="cls-3" x="-333" y="-0.23" width="2213" height="900"/>
      <g id="BG_texture" data-name="BG texture" class="cls-4">
        <polygon class="cls-5" points="109.81 546.34 121.13 553.34 118.19 540 128.1 530.98 114.98 529.76 109.78 517.18 104.61 529.77 91.48 531.02 101.41 540.02 98.5 553.37 109.81 546.34"/>
        <path class="cls-5" d="M39.17,526.5l16.09,9.94-4.18-19,14.08-12.83-18.65-1.73-7.39-17.87L31.77,503l-18.65,1.78,14.11,12.79-4.13,19ZM24.65,508.6l10.39-1,4.09-10,4.12,10,10.39,1-7.85,7.14,2.33,10.56-9-5.54-8.95,5.56,2.3-10.56Z"/>
        <polygon class="cls-5" points="109.97 684.54 104.8 697.13 91.68 698.38 101.61 707.38 98.7 720.73 110 713.7 121.33 720.7 118.39 707.36 128.29 698.34 115.17 697.12 109.97 684.54"/>
        <path class="cls-5" d="M39.3,645.42l16.1,10-4.18-19L65.3,623.59l-18.65-1.74L39.26,604l-7.35,17.89-18.65,1.78,14.11,12.79-4.13,19ZM24.79,627.53l10.39-1,4.09-10,4.12,10,10.38,1-7.84,7.14,2.33,10.56-9-5.54-8.95,5.56,2.3-10.56Z"/>
        <path class="cls-5" d="M120.93,608.62l-10.4-25.14-10.35,25.17-26.24,2.5,19.86,18L88,655.84l22.61-14.05,22.65,14-5.88-26.68,19.81-18.05Zm-1,18,3.28,14.85-12.62-7.79L98,641.5l3.24-14.87-11.06-10,14.62-1.4,5.76-14,5.79,14L131,616.56Z"/>
        <polygon class="cls-5" points="38.75 577.6 46.79 582.57 44.7 573.09 51.74 566.68 42.42 565.81 38.72 556.88 35.05 565.82 25.73 566.71 32.78 573.11 30.71 582.59 38.75 577.6"/>
        <polygon class="cls-5" points="118 372.64 127.9 363.62 114.78 362.4 109.58 349.82 104.41 362.41 91.29 363.66 101.22 372.66 98.31 386.01 109.61 378.98 120.94 385.98 118 372.64"/>
        <path class="cls-5" d="M39,407.58l16.09,9.94-4.18-19L65,385.74,46.37,384,39,366.14,31.63,384,13,385.8l14.11,12.79-4.13,19Zm-14.51-17.9,10.38-1,4.09-10,4.12,9.95,10.39,1-7.84,7.15L48,407.34l-9-5.53-9,5.56,2.3-10.57Z"/>
        <path class="cls-5" d="M133,488.43l-5.88-26.68L147,443.7l-26.25-2.44-10.4-25.14L100,441.29l-26.24,2.5,19.85,18-5.81,26.69,22.61-14.05Zm-32-29.16-11-10,14.61-1.4,5.76-14,5.79,14,14.62,1.36-11,10.05L123,474.1l-12.61-7.79L97.8,474.14Z"/>
        <polygon class="cls-5" points="38.61 458.67 46.66 463.65 44.57 454.17 51.6 447.76 42.28 446.89 38.59 437.95 34.91 446.9 25.59 447.79 32.64 454.18 30.58 463.67 38.61 458.67"/>
        <path class="cls-5" d="M39.53,841.83l-7.35,17.89L13.54,861.5l14.11,12.79-4.14,19,16.07-10,16.09,9.94-4.17-19,14.07-12.83L46.92,859.7Zm14.52,23.51-7.84,7.14L48.54,883l-9-5.54-8.95,5.56,2.3-10.56-7.86-7.13,10.39-1,4.09-10,4.11,10Z"/>
        <polygon class="cls-5" points="110.17 851.9 105 864.49 91.88 865.74 101.8 874.74 98.89 888.09 110.2 881.06 121.52 888.06 118.58 874.72 128.49 865.7 115.37 864.48 110.17 851.9"/>
        <path class="cls-5" d="M51.36,755.33l14.07-12.82-18.64-1.73-7.4-17.87L32.05,740.8,13.4,742.57l14.11,12.79-4.13,19,16.06-10,16.09,9.94Zm-11.92,3.25-8.95,5.56,2.3-10.57-7.86-7.12,10.39-1,4.09-10,4.12,10,10.38,1-7.84,7.15,2.33,10.55Z"/>
        <polygon class="cls-5" points="39 794.73 35.33 803.67 26 804.56 33.06 810.95 30.99 820.44 39.03 815.45 47.07 820.42 44.98 810.94 52.02 804.53 42.7 803.66 39 794.73"/>
        <path class="cls-5" d="M110.72,750.84,100.38,776l-26.24,2.5,19.85,18L88.18,823.2l22.61-14.05,22.64,14-5.88-26.68,19.82-18.05L121.12,776Zm20.43,33.08-11,10.05,3.27,14.85L110.78,801l-12.59,7.83L101.42,794l-11-10,14.61-1.4,5.76-14,5.79,14Z"/>
        <polygon class="cls-5" points="38.89 696.52 46.93 701.49 44.84 692.01 51.88 685.6 42.56 684.74 38.86 675.8 35.19 684.75 25.86 685.64 32.92 692.03 30.85 701.51 38.89 696.52"/>
        <polygon class="cls-5" points="104.55 195.28 91.43 196.53 101.36 205.53 98.45 218.88 109.76 211.85 121.08 218.85 118.14 205.51 128.05 196.49 114.92 195.27 109.72 182.7 104.55 195.28"/>
        <path class="cls-5" d="M39.13,288.82l16.09,9.94L51,279.8,65.12,267l-18.65-1.73-7.39-17.87-7.35,17.89-18.64,1.78,14.1,12.78-4.13,19Zm-14.51-17.9,10.38-1,4.1-10,4.11,9.95,10.39,1L45.76,278l2.32,10.56-9-5.54-8.95,5.56L32.47,278Z"/>
        <path class="cls-5" d="M133.19,321.3l-5.88-26.68,19.81-18.05-26.25-2.43L110.47,249l-10.34,25.17-26.24,2.51,19.85,18-5.81,26.7,22.61-14.06Zm-32-29.16-11.06-10,14.61-1.4,5.76-14,5.8,14,14.61,1.36-11,10.05L123.14,307l-12.61-7.8L97.94,307Z"/>
        <polygon class="cls-5" points="38.71 339.92 46.76 344.89 44.67 335.41 51.71 329 42.38 328.13 38.69 319.2 35.01 328.14 25.69 329.03 32.74 335.42 30.68 344.91 38.71 339.92"/>
        <polygon class="cls-5" points="104.55 22.34 91.43 23.6 101.36 32.59 98.45 45.94 109.76 38.91 121.08 45.91 118.14 32.57 128.05 23.55 114.92 22.33 109.72 9.76 104.55 22.34"/>
        <path class="cls-5" d="M39.13,165.93l16.09,9.94-4.18-19,14.08-12.83-18.65-1.73-7.39-17.87-7.35,17.89-18.64,1.78L27.19,157l-4.13,19ZM24.62,148,35,147l4.1-10L43.21,147l10.39,1-7.84,7.14,2.32,10.56-9-5.54-8.95,5.56,2.3-10.56Z"/>
        <path class="cls-5" d="M133.19,148.36l-5.88-26.68,19.81-18.05-26.25-2.43-10.4-25.15-10.34,25.17-26.24,2.51,19.85,18-5.81,26.7,22.61-14.06Zm-32-29.16-11.06-10,14.61-1.39,5.76-14,5.8,14,14.61,1.36-11,10.05L123.14,134l-12.61-7.8-12.59,7.83Z"/>
        <polygon class="cls-5" points="38.71 217.03 46.76 222 44.67 212.52 51.71 206.11 42.38 205.24 38.69 196.31 35.01 205.25 25.69 206.14 32.74 212.54 30.68 222.02 38.71 217.03"/>
        <path class="cls-5" d="M39.13,43,55.22,53,51,34,65.12,21.21,46.47,19.47,39.08,1.6,31.73,19.49,13.09,21.27l14.1,12.79L23.06,53ZM24.62,25.15l10.38-1,4.1-10,4.11,10,10.39,1-7.84,7.14,2.32,10.56-9-5.54-8.95,5.56,2.3-10.56Z"/>
        <polygon class="cls-5" points="38.71 94.14 46.76 99.11 44.67 89.63 51.71 83.22 42.38 82.36 38.69 73.42 35.01 82.36 25.69 83.25 32.74 89.65 30.68 99.13 38.71 94.14"/>
        <polygon class="cls-5" points="249.78 546.34 261.1 553.34 258.16 540 268.07 530.98 254.94 529.76 249.74 517.18 244.57 529.77 231.45 531.02 241.38 540.02 238.47 553.37 249.78 546.34"/>
        <path class="cls-5" d="M179.13,526.5l16.09,9.94-4.17-19,14.08-12.83-18.65-1.73-7.39-17.87L171.74,503l-18.65,1.78,14.11,12.79-4.13,19Zm-14.51-17.9,10.39-1,4.09-10,4.12,10,10.38,1-7.84,7.14,2.33,10.56-9-5.54-8.95,5.56,2.3-10.56Z"/>
        <polygon class="cls-5" points="249.94 684.54 244.77 697.13 231.65 698.38 241.58 707.38 238.67 720.73 249.97 713.7 261.3 720.7 258.36 707.36 268.26 698.34 255.14 697.12 249.94 684.54"/>
        <path class="cls-5" d="M179.27,645.42l16.09,10-4.17-19,14.07-12.82-18.65-1.74L179.22,604l-7.34,17.89-18.65,1.78,14.11,12.79-4.14,19Zm-14.51-17.89,10.39-1,4.09-10,4.12,10,10.38,1-7.84,7.14,2.33,10.56-9-5.54-9,5.56,2.3-10.56Z"/>
        <path class="cls-5" d="M260.89,608.62l-10.4-25.14-10.34,25.17-26.24,2.5,19.86,18L228,655.84l22.61-14.05,22.65,14-5.88-26.68,19.81-18.05Zm-1,18,3.27,14.85-12.61-7.79L238,641.5l3.24-14.87-11.06-10,14.61-1.4,5.76-14,5.8,14,14.61,1.36Z"/>
        <polygon class="cls-5" points="178.72 577.6 186.76 582.57 184.67 573.09 191.71 566.68 182.39 565.81 178.69 556.88 175.02 565.82 165.69 566.71 172.75 573.11 170.68 582.59 178.72 577.6"/>
        <polygon class="cls-5" points="257.97 372.64 267.87 363.62 254.75 362.4 249.55 349.82 244.38 362.41 231.26 363.66 241.19 372.66 238.28 386.01 249.58 378.98 260.91 385.98 257.97 372.64"/>
        <path class="cls-5" d="M179,407.58l16.09,9.94-4.18-19L205,385.74,186.34,384,179,366.14,171.6,384,153,385.8l14.11,12.79-4.13,19Zm-14.52-17.9,10.39-1,4.09-10,4.12,9.95,10.38,1-7.84,7.15L188,407.34l-9-5.53-9,5.56,2.3-10.57Z"/>
        <path class="cls-5" d="M273,488.43l-5.88-26.68,19.81-18.05-26.24-2.44-10.4-25.14L240,441.29l-26.24,2.5,19.85,18-5.82,26.69,22.62-14.05Zm-32-29.16-11.06-10,14.62-1.4,5.76-14,5.79,14,14.62,1.36-11,10.05L263,474.1l-12.61-7.79-12.6,7.83Z"/>
        <polygon class="cls-5" points="178.58 458.67 186.62 463.65 184.53 454.17 191.57 447.76 182.25 446.89 178.55 437.95 174.88 446.9 165.56 447.79 172.61 454.18 170.54 463.67 178.58 458.67"/>
        <path class="cls-5" d="M179.5,841.83l-7.35,17.89-18.64,1.78,14.1,12.79-4.13,19,16.07-10,16.09,9.94-4.18-19,14.08-12.83-18.65-1.73ZM194,865.34l-7.84,7.14L188.51,883l-9-5.54-8.95,5.56,2.31-10.56L165,865.37l10.38-1,4.1-10,4.11,10Z"/>
        <polygon class="cls-5" points="250.13 851.9 244.96 864.49 231.84 865.74 241.77 874.74 238.86 888.09 250.17 881.06 261.49 888.06 258.55 874.72 268.46 865.7 255.34 864.48 250.13 851.9"/>
        <path class="cls-5" d="M191.33,755.33l14.07-12.82-18.65-1.73-7.39-17.87L172,740.8l-18.64,1.77,14.11,12.79-4.14,19,16.07-10,16.09,9.94Zm-11.93,3.25-8.94,5.56,2.3-10.57-7.86-7.12,10.38-1,4.1-10,4.11,10,10.39,1L186,753.56l2.33,10.55Z"/>
        <polygon class="cls-5" points="178.97 794.73 175.29 803.67 165.97 804.56 173.03 810.95 170.96 820.44 178.99 815.45 187.04 820.42 184.95 810.94 191.99 804.53 182.66 803.66 178.97 794.73"/>
        <path class="cls-5" d="M250.69,750.84,240.35,776l-26.24,2.5,19.85,18-5.82,26.69,22.62-14.05,22.64,14-5.88-26.68,19.81-18.05L261.09,776Zm20.43,33.08-11,10.05,3.27,14.85L250.75,801l-12.6,7.83L241.39,794l-11.06-10,14.62-1.4,5.76-14,5.79,14Z"/>
        <polygon class="cls-5" points="178.85 696.52 186.9 701.49 184.81 692.01 191.85 685.6 182.53 684.74 178.83 675.8 175.16 684.75 165.83 685.64 172.89 692.03 170.82 701.51 178.85 696.52"/>
        <polygon class="cls-5" points="244.52 195.28 231.4 196.53 241.33 205.53 238.42 218.88 249.73 211.85 261.05 218.85 258.11 205.51 268.01 196.49 254.89 195.27 249.69 182.7 244.52 195.28"/>
        <path class="cls-5" d="M179.1,288.82l16.09,9.94-4.18-19L205.09,267l-18.65-1.73-7.39-17.87-7.35,17.89-18.65,1.78,14.11,12.78-4.13,19Zm-14.51-17.9,10.38-1,4.09-10,4.12,9.95,10.39,1L185.73,278l2.32,10.56-9-5.54-9,5.56,2.3-10.57Z"/>
        <path class="cls-5" d="M273.15,321.3l-5.87-26.68,19.81-18.05-26.25-2.43L250.44,249,240.1,274.16l-26.24,2.51,19.85,18-5.81,26.7,22.61-14.06Zm-32-29.16-11-10,14.61-1.4,5.76-14,5.8,14,14.61,1.36-11,10.05L263.11,307l-12.61-7.8L237.91,307Z"/>
        <polygon class="cls-5" points="178.68 339.92 186.72 344.89 184.64 335.41 191.68 329 182.35 328.13 178.66 319.2 174.98 328.14 165.66 329.03 172.71 335.42 170.65 344.91 178.68 339.92"/>
        <polygon class="cls-5" points="244.52 22.34 231.4 23.6 241.33 32.59 238.42 45.94 249.73 38.91 261.05 45.91 258.11 32.57 268.01 23.55 254.89 22.33 249.69 9.76 244.52 22.34"/>
        <path class="cls-5" d="M179.1,165.93l16.09,9.94-4.18-19,14.08-12.83-18.65-1.73-7.39-17.87-7.35,17.89-18.65,1.78L167.16,157l-4.13,19ZM164.59,148,175,147l4.09-10,4.12,9.95,10.39,1-7.84,7.14,2.32,10.56-9-5.54-9,5.56,2.3-10.56Z"/>
        <path class="cls-5" d="M273.15,148.36l-5.87-26.68,19.81-18.05-26.25-2.43-10.4-25.15L240.1,101.22l-26.24,2.51,19.85,18-5.81,26.7,22.61-14.06Zm-32-29.16-11-10,14.61-1.39,5.76-14,5.8,14,14.61,1.36-11,10.05L263.11,134l-12.61-7.8-12.59,7.83Z"/>
        <polygon class="cls-5" points="178.68 217.03 186.72 222 184.64 212.52 191.68 206.11 182.35 205.24 178.66 196.31 174.98 205.25 165.66 206.14 172.71 212.54 170.65 222.02 178.68 217.03"/>
        <path class="cls-5" d="M179.1,43l16.09,10L191,34l14.08-12.82-18.65-1.74L179.05,1.6,171.7,19.49l-18.65,1.78,14.11,12.79L163,53ZM164.59,25.15l10.38-1,4.09-10,4.12,10,10.39,1-7.84,7.14,2.32,10.56-9-5.54-9,5.56,2.3-10.56Z"/>
        <polygon class="cls-5" points="178.68 94.14 186.72 99.11 184.64 89.63 191.68 83.22 182.35 82.36 178.66 73.42 174.98 82.36 165.66 83.25 172.71 89.65 170.65 99.13 178.68 94.14"/>
        <polygon class="cls-5" points="389.75 546.34 401.07 553.34 398.13 540 408.04 530.98 394.91 529.76 389.71 517.18 384.54 529.77 371.42 531.02 381.35 540.02 378.44 553.37 389.75 546.34"/>
        <path class="cls-5" d="M319.1,526.5l16.09,9.94-4.17-19,14.07-12.83-18.65-1.73-7.39-17.87L311.7,503l-18.64,1.78,14.11,12.79-4.14,19Zm-14.51-17.9,10.39-1,4.09-10,4.11,10,10.39,1-7.84,7.14,2.33,10.56-9-5.54-9,5.56,2.3-10.56Z"/>
        <polygon class="cls-5" points="389.91 684.54 384.74 697.13 371.62 698.38 381.54 707.38 378.64 720.73 389.94 713.7 401.26 720.7 398.32 707.36 408.23 698.34 395.11 697.12 389.91 684.54"/>
        <path class="cls-5" d="M319.24,645.42l16.09,10-4.18-19,14.08-12.82-18.65-1.74L319.19,604l-7.35,17.89-18.64,1.78,14.11,12.79-4.14,19Zm-14.51-17.89,10.38-1,4.1-10,4.11,10,10.39,1-7.84,7.14,2.33,10.56-9-5.54-8.94,5.56,2.3-10.56Z"/>
        <path class="cls-5" d="M400.86,608.62l-10.4-25.14-10.34,25.17-26.24,2.5,19.85,18-5.81,26.69,22.61-14.05,22.64,14-5.87-26.68,19.81-18.05Zm-1,18,3.27,14.85-12.61-7.79-12.59,7.83,3.23-14.87-11.05-10,14.61-1.4,5.76-14,5.8,14,14.61,1.36Z"/>
        <polygon class="cls-5" points="318.68 577.6 326.73 582.57 324.64 573.09 331.68 566.68 322.36 565.81 318.66 556.88 314.99 565.82 305.66 566.71 312.72 573.11 310.65 582.59 318.68 577.6"/>
        <polygon class="cls-5" points="397.94 372.64 407.84 363.62 394.72 362.4 389.52 349.82 384.35 362.41 371.23 363.66 381.15 372.66 378.25 386.01 389.55 378.98 400.87 385.98 397.94 372.64"/>
        <path class="cls-5" d="M319,407.58l16.09,9.94-4.17-19L345,385.74,326.31,384l-7.4-17.87L311.57,384l-18.65,1.77L307,398.59l-4.13,19Zm-14.51-17.9,10.39-1,4.09-10,4.12,9.95,10.38,1-7.84,7.15,2.33,10.55-9-5.53L310,407.37l2.3-10.57Z"/>
        <path class="cls-5" d="M413,488.43l-5.88-26.68,19.81-18.05-26.24-2.44-10.4-25.14-10.35,25.17-26.24,2.5,19.86,18-5.82,26.69,22.61-14.05Zm-32-29.16-11.06-10,14.62-1.4,5.76-14,5.79,14,14.62,1.36-11,10.05,3.28,14.85-12.62-7.79-12.59,7.83Z"/>
        <polygon class="cls-5" points="318.55 458.67 326.59 463.65 324.5 454.17 331.54 447.76 322.22 446.89 318.52 437.95 314.85 446.9 305.52 447.79 312.58 454.18 310.51 463.67 318.55 458.67"/>
        <path class="cls-5" d="M319.47,841.83l-7.35,17.89-18.64,1.78,14.1,12.79-4.13,19,16.07-10,16.09,9.94-4.18-19,14.08-12.83-18.65-1.73ZM334,865.34l-7.84,7.14L328.47,883l-9-5.54-8.95,5.56,2.3-10.56L305,865.37l10.38-1,4.09-10,4.12,10Z"/>
        <polygon class="cls-5" points="390.1 851.9 384.93 864.49 371.81 865.74 381.74 874.74 378.83 888.09 390.14 881.06 401.46 888.06 398.52 874.72 408.43 865.7 395.3 864.48 390.1 851.9"/>
        <path class="cls-5" d="M331.29,755.33l14.08-12.82-18.65-1.73-7.39-17.87L312,740.8l-18.64,1.77,14.1,12.79-4.13,19,16.07-10,16.09,9.94Zm-11.92,3.25-8.95,5.56,2.3-10.57-7.85-7.12,10.38-1,4.1-10,4.11,10,10.39,1L326,753.56l2.32,10.55Z"/>
        <polygon class="cls-5" points="318.94 794.73 315.26 803.67 305.94 804.56 312.99 810.95 310.93 820.44 318.96 815.45 327.01 820.42 324.92 810.94 331.96 804.53 322.63 803.66 318.94 794.73"/>
        <path class="cls-5" d="M390.66,750.84,380.31,776l-26.24,2.5,19.86,18-5.82,26.69,22.61-14.05,22.65,14-5.88-26.68,19.81-18.05L401.06,776Zm20.43,33.08-11,10.05,3.28,14.85L390.71,801l-12.59,7.83L381.36,794,370.3,784l14.62-1.4,5.76-14,5.79,14Z"/>
        <polygon class="cls-5" points="318.82 696.52 326.87 701.49 324.78 692.01 331.82 685.6 322.49 684.74 318.8 675.8 315.12 684.75 305.8 685.64 312.86 692.03 310.79 701.51 318.82 696.52"/>
        <polygon class="cls-5" points="384.49 195.28 371.37 196.53 381.3 205.53 378.39 218.88 389.69 211.85 401.02 218.85 398.08 205.51 407.98 196.49 394.86 195.27 389.66 182.7 384.49 195.28"/>
        <path class="cls-5" d="M319.06,288.82l16.1,9.94-4.18-19L345.06,267l-18.65-1.73L319,247.38l-7.35,17.89L293,267.05l14.11,12.78-4.13,19Zm-14.51-17.9,10.39-1L319,260l4.12,9.95,10.38,1L325.69,278,328,288.59l-9-5.54-8.95,5.56,2.3-10.57Z"/>
        <path class="cls-5" d="M413.12,321.3l-5.88-26.68,19.82-18.05-26.25-2.43L390.41,249l-10.34,25.17-26.24,2.51,19.85,18-5.81,26.7,22.61-14.06Zm-32-29.16-11.05-10,14.61-1.4,5.76-14,5.79,14,14.62,1.36-11,10.05L403.08,307l-12.61-7.8L377.87,307Z"/>
        <polygon class="cls-5" points="318.65 339.92 326.69 344.89 324.6 335.41 331.64 329 322.32 328.13 318.62 319.2 314.95 328.14 305.63 329.03 312.68 335.42 310.61 344.91 318.65 339.92"/>
        <polygon class="cls-5" points="384.49 22.34 371.37 23.6 381.3 32.59 378.39 45.94 389.69 38.91 401.02 45.91 398.08 32.57 407.98 23.55 394.86 22.33 389.66 9.76 384.49 22.34"/>
        <path class="cls-5" d="M319.06,165.93l16.1,9.94-4.18-19,14.08-12.83-18.65-1.73L319,124.49l-7.35,17.89L293,144.16,307.13,157l-4.13,19ZM304.55,148l10.39-1,4.09-10,4.12,9.95,10.38,1-7.84,7.14L328,165.7l-9-5.54-8.95,5.56,2.3-10.56Z"/>
        <path class="cls-5" d="M413.12,148.36l-5.88-26.68,19.82-18.05-26.25-2.43-10.4-25.15-10.34,25.17-26.24,2.51,19.85,18-5.81,26.7,22.61-14.06Zm-32-29.16-11.05-10,14.61-1.39,5.76-14,5.79,14,14.62,1.36-11,10.05L403.08,134l-12.61-7.8-12.6,7.83Z"/>
        <polygon class="cls-5" points="318.65 217.03 326.69 222 324.6 212.52 331.64 206.11 322.32 205.24 318.62 196.31 314.95 205.25 305.63 206.14 312.68 212.54 310.61 222.02 318.65 217.03"/>
        <path class="cls-5" d="M319.06,43l16.1,10L331,34l14.08-12.82-18.65-1.74L319,1.6l-7.35,17.89L293,21.27l14.11,12.79L303,53ZM304.55,25.15l10.39-1,4.09-10,4.12,10,10.38,1-7.84,7.14L328,42.81l-9-5.54-8.95,5.56,2.3-10.56Z"/>
        <polygon class="cls-5" points="318.65 94.14 326.69 99.11 324.6 89.63 331.64 83.22 322.32 82.36 318.62 73.42 314.95 82.36 305.63 83.25 312.68 89.65 310.61 99.13 318.65 94.14"/>
        <polygon class="cls-5" points="529.72 546.34 541.04 553.34 538.1 540 548 530.98 534.88 529.76 529.68 517.18 524.51 529.77 511.39 531.02 521.32 540.02 518.41 553.37 529.72 546.34"/>
        <path class="cls-5" d="M459.07,526.5l16.09,9.94-4.18-19,14.08-12.83-18.65-1.73L459,485.06,451.67,503,433,504.73l14.1,12.79-4.13,19Zm-14.51-17.9,10.38-1,4.1-10,4.11,10,10.39,1-7.84,7.14L468,526.27l-9-5.54-8.95,5.56,2.31-10.56Z"/>
        <polygon class="cls-5" points="529.88 684.54 524.71 697.13 511.58 698.38 521.51 707.38 518.6 720.73 529.91 713.7 541.23 720.7 538.29 707.36 548.2 698.34 535.08 697.12 529.88 684.54"/>
        <path class="cls-5" d="M459.21,645.42l16.09,10-4.18-19,14.08-12.82-18.65-1.74L459.16,604l-7.35,17.89-18.64,1.78,14.1,12.79-4.13,19ZM444.7,627.53l10.38-1,4.09-10,4.12,10,10.39,1-7.84,7.14,2.32,10.56-9-5.54-8.95,5.56,2.3-10.56Z"/>
        <path class="cls-5" d="M540.83,608.62l-10.4-25.14-10.34,25.17-26.24,2.5,19.85,18-5.81,26.69,22.61-14.05,22.64,14-5.88-26.68,19.82-18.05Zm-1,18,3.27,14.85-12.61-7.79-12.6,7.83,3.24-14.87-11.05-10,14.61-1.4,5.76-14,5.79,14,14.62,1.36Z"/>
        <polygon class="cls-5" points="458.65 577.6 466.7 582.57 464.61 573.09 471.65 566.68 462.32 565.81 458.63 556.88 454.95 565.82 445.63 566.71 452.69 573.11 450.62 582.59 458.65 577.6"/>
        <polygon class="cls-5" points="537.9 372.64 547.81 363.62 534.69 362.4 529.49 349.82 524.31 362.41 511.19 363.66 521.12 372.66 518.21 386.01 529.52 378.98 540.84 385.98 537.9 372.64"/>
        <path class="cls-5" d="M458.93,407.58,475,417.52l-4.17-19,14.07-12.82L466.27,384l-7.39-17.87L451.53,384l-18.64,1.77L447,398.59l-4.14,19Zm-14.51-17.9,10.38-1,4.1-10,4.11,9.95,10.39,1-7.84,7.15,2.33,10.55-9-5.53L450,407.37l2.3-10.57Z"/>
        <path class="cls-5" d="M553,488.43l-5.88-26.68,19.81-18.05-26.25-2.44-10.4-25.14-10.34,25.17-26.24,2.5,19.86,18-5.82,26.69,22.61-14.05Zm-32-29.16-11.06-10,14.62-1.4,5.75-14,5.8,14,14.62,1.36-11,10.05,3.28,14.85-12.62-7.79-12.59,7.83Z"/>
        <polygon class="cls-5" points="458.51 458.67 466.56 463.65 464.47 454.17 471.51 447.76 462.19 446.89 458.49 437.95 454.81 446.9 445.49 447.79 452.55 454.18 450.48 463.67 458.51 458.67"/>
        <path class="cls-5" d="M459.44,841.83l-7.35,17.89-18.65,1.78,14.11,12.79-4.13,19,16.07-10,16.09,9.94-4.18-19,14.08-12.83-18.65-1.73ZM474,865.34l-7.85,7.14L468.44,883l-9-5.54-9,5.56,2.3-10.56L445,865.37l10.39-1,4.09-10,4.12,10Z"/>
        <polygon class="cls-5" points="530.07 851.9 524.9 864.49 511.78 865.74 521.71 874.74 518.8 888.09 530.11 881.06 541.43 888.06 538.49 874.72 548.39 865.7 535.27 864.48 530.07 851.9"/>
        <path class="cls-5" d="M471.26,755.33l14.08-12.82-18.65-1.73-7.39-17.87L452,740.8l-18.65,1.77,14.11,12.79-4.13,19,16.07-10,16.09,9.94Zm-11.92,3.25-8.95,5.56,2.3-10.57-7.85-7.12,10.38-1,4.09-10,4.12,10,10.39,1L466,753.56l2.32,10.55Z"/>
        <polygon class="cls-5" points="458.91 794.73 455.23 803.67 445.91 804.56 452.96 810.95 450.9 820.44 458.93 815.45 466.98 820.42 464.89 810.94 471.93 804.53 462.6 803.66 458.91 794.73"/>
        <path class="cls-5" d="M530.62,750.84,520.28,776,494,778.51l19.86,18-5.82,26.69,22.61-14.05,22.65,14-5.88-26.68,19.81-18.05L541,776Zm20.44,33.08L540,794l3.28,14.85L530.68,801l-12.59,7.83L521.33,794l-11.06-10,14.62-1.4,5.76-14,5.79,14Z"/>
        <polygon class="cls-5" points="458.79 696.52 466.84 701.49 464.75 692.01 471.79 685.6 462.46 684.74 458.77 675.8 455.09 684.75 445.77 685.64 452.82 692.03 450.76 701.51 458.79 696.52"/>
        <polygon class="cls-5" points="524.46 195.28 511.34 196.53 521.26 205.53 518.36 218.88 529.66 211.85 540.99 218.85 538.05 205.51 547.95 196.49 534.83 195.27 529.63 182.7 524.46 195.28"/>
        <path class="cls-5" d="M459,288.82l16.09,9.94-4.17-19L485,267l-18.64-1.73L459,247.38l-7.34,17.89L433,267.05l14.11,12.78-4.13,19Zm-14.51-17.9,10.39-1L459,260l4.12,9.95,10.38,1L465.66,278,468,288.59l-9-5.54-8.95,5.56,2.3-10.57Z"/>
        <path class="cls-5" d="M553.09,321.3l-5.88-26.68L567,276.57l-26.24-2.43L530.38,249,520,274.16l-26.24,2.51,19.85,18-5.82,26.7,22.62-14.06Zm-32-29.16-11.06-10,14.62-1.4,5.76-14,5.79,14,14.62,1.36-11,10.05L543.05,307l-12.61-7.8L517.84,307Z"/>
        <polygon class="cls-5" points="458.62 339.92 466.66 344.89 464.57 335.41 471.61 329 462.29 328.13 458.59 319.2 454.92 328.14 445.59 329.03 452.65 335.42 450.58 344.91 458.62 339.92"/>
        <polygon class="cls-5" points="524.46 22.34 511.34 23.6 521.26 32.59 518.36 45.94 529.66 38.91 540.99 45.91 538.05 32.57 547.95 23.55 534.83 22.33 529.63 9.76 524.46 22.34"/>
        <path class="cls-5" d="M459,165.93l16.09,9.94-4.17-19L485,144.09l-18.64-1.73L459,124.49l-7.34,17.89L433,144.16,447.1,157l-4.13,19ZM444.52,148l10.39-1,4.09-10,4.12,9.95,10.38,1-7.84,7.14L468,165.7l-9-5.54-8.95,5.56,2.3-10.56Z"/>
        <path class="cls-5" d="M553.09,148.36l-5.88-26.68L567,103.63l-26.24-2.43-10.4-25.15L520,101.22l-26.24,2.51,19.85,18-5.82,26.7,22.62-14.06Zm-32-29.16-11.06-10,14.62-1.39,5.76-14,5.79,14,14.62,1.36-11,10.05L543.05,134l-12.61-7.8-12.6,7.83Z"/>
        <polygon class="cls-5" points="458.62 217.03 466.66 222 464.57 212.52 471.61 206.11 462.29 205.24 458.59 196.31 454.92 205.25 445.59 206.14 452.65 212.54 450.58 222.02 458.62 217.03"/>
        <path class="cls-5" d="M459,43l16.09,10L471,34,485,21.21l-18.64-1.74L459,1.6l-7.34,17.89L433,21.27,447.1,34.06,443,53ZM444.52,25.15l10.39-1,4.09-10,4.12,10,10.38,1-7.84,7.14L468,42.81l-9-5.54-8.95,5.56,2.3-10.56Z"/>
        <polygon class="cls-5" points="458.62 94.14 466.66 99.11 464.57 89.63 471.61 83.22 462.29 82.36 458.59 73.42 454.92 82.36 445.59 83.25 452.65 89.65 450.58 99.13 458.62 94.14"/>
        <polygon class="cls-5" points="669.68 546.34 681 553.34 678.07 540 687.97 530.98 674.85 529.76 669.65 517.18 664.48 529.77 651.36 531.02 661.28 540.02 658.38 553.37 669.68 546.34"/>
        <path class="cls-5" d="M599,526.5l16.09,9.94-4.18-19L625,504.66l-18.65-1.73L599,485.06,591.64,503,573,504.73l14.1,12.79-4.13,19Zm-14.51-17.9,10.38-1,4.09-10,4.12,10,10.39,1-7.84,7.14L608,526.27l-9-5.54-8.95,5.56,2.3-10.56Z"/>
        <polygon class="cls-5" points="669.84 684.54 664.67 697.13 651.55 698.38 661.48 707.38 658.57 720.73 669.88 713.7 681.2 720.7 678.26 707.36 688.17 698.34 675.04 697.12 669.84 684.54"/>
        <path class="cls-5" d="M599.18,645.42l16.09,10-4.18-19,14.08-12.82-18.65-1.74L599.13,604l-7.35,17.89-18.65,1.78,14.11,12.79-4.13,19Zm-14.51-17.89,10.38-1,4.09-10,4.12,10,10.39,1-7.84,7.14,2.32,10.56-9-5.54-8.95,5.56,2.3-10.56Z"/>
        <path class="cls-5" d="M680.8,608.62l-10.4-25.14-10.34,25.17-26.24,2.5,19.85,18-5.82,26.69,22.62-14.05,22.64,14-5.88-26.68L707,611.06Zm-1,18,3.28,14.85-12.61-7.79-12.6,7.83,3.24-14.87-11.06-10,14.62-1.4,5.76-14,5.79,14,14.62,1.36Z"/>
        <polygon class="cls-5" points="598.62 577.6 606.67 582.57 604.58 573.09 611.62 566.68 602.29 565.81 598.6 556.88 594.92 565.82 585.6 566.71 592.65 573.11 590.59 582.59 598.62 577.6"/>
        <polygon class="cls-5" points="677.87 372.64 687.78 363.62 674.65 362.4 669.45 349.82 664.28 362.41 651.16 363.66 661.09 372.66 658.18 386.01 669.49 378.98 680.81 385.98 677.87 372.64"/>
        <path class="cls-5" d="M598.9,407.58,615,417.52l-4.18-19,14.08-12.82L606.24,384l-7.39-17.87L591.5,384l-18.64,1.77L587,398.59l-4.13,19Zm-14.51-17.9,10.38-1,4.1-10,4.11,9.95,10.39,1-7.84,7.15,2.32,10.55-9-5.53-8.95,5.56,2.31-10.57Z"/>
        <path class="cls-5" d="M692.91,488.43,687,461.75l19.81-18.05-26.25-2.44-10.4-25.14-10.34,25.17-26.24,2.5,19.85,18-5.81,26.69,22.61-14.05Zm-32-29.16-11.06-10,14.61-1.4,5.76-14,5.8,14,14.61,1.36-11,10.05,3.27,14.85-12.61-7.79-12.59,7.83Z"/>
        <polygon class="cls-5" points="598.48 458.67 606.53 463.65 604.44 454.17 611.48 447.76 602.15 446.89 598.46 437.95 594.78 446.9 585.46 447.79 592.51 454.18 590.45 463.67 598.48 458.67"/>
        <path class="cls-5" d="M599.41,841.83l-7.35,17.89-18.65,1.78,14.11,12.79-4.13,19,16.06-10,16.1,9.94-4.18-19,14.08-12.83L606.8,859.7Zm14.51,23.51-7.84,7.14L608.41,883l-9-5.54-9,5.56,2.3-10.56-7.86-7.13,10.39-1,4.09-10,4.12,10Z"/>
        <polygon class="cls-5" points="670.04 851.9 664.87 864.49 651.75 865.74 661.67 874.74 658.77 888.09 670.07 881.06 681.39 888.06 678.46 874.72 688.36 865.7 675.24 864.48 670.04 851.9"/>
        <path class="cls-5" d="M611.23,755.33l14.08-12.82-18.65-1.73-7.39-17.87-7.35,17.89-18.65,1.77,14.11,12.79-4.13,19,16.07-10,16.09,9.94Zm-11.92,3.25-8.95,5.56,2.3-10.57-7.86-7.12,10.39-1,4.09-10,4.12,10,10.38,1-7.84,7.15,2.33,10.55Z"/>
        <polygon class="cls-5" points="598.87 794.73 595.2 803.67 585.88 804.56 592.93 810.95 590.86 820.44 598.9 815.45 606.94 820.42 604.86 810.94 611.89 804.53 602.57 803.66 598.87 794.73"/>
        <path class="cls-5" d="M670.59,750.84,660.25,776,634,778.51l19.85,18-5.81,26.69,22.61-14.05,22.65,14-5.88-26.68,19.81-18.05L681,776ZM691,783.92,680,794l3.27,14.85L670.65,801l-12.59,7.83L661.3,794l-11.06-10,14.61-1.4,5.76-14,5.8,14Z"/>
        <polygon class="cls-5" points="598.76 696.52 606.8 701.49 604.72 692.01 611.75 685.6 602.43 684.74 598.74 675.8 595.06 684.75 585.74 685.64 592.79 692.03 590.73 701.51 598.76 696.52"/>
        <polygon class="cls-5" points="664.42 195.28 651.31 196.53 661.23 205.53 658.32 218.88 669.63 211.85 680.95 218.85 678.01 205.51 687.92 196.49 674.8 195.27 669.6 182.7 664.42 195.28"/>
        <path class="cls-5" d="M599,288.82l16.09,9.94-4.18-19L625,267l-18.65-1.73L599,247.38l-7.35,17.89L573,267.05l14.11,12.78-4.14,19Zm-14.51-17.9,10.38-1,4.1-10,4.11,9.95,10.39,1L605.63,278,608,288.59l-9-5.54-8.94,5.56,2.3-10.57Z"/>
        <path class="cls-5" d="M693.06,321.3l-5.88-26.68L707,276.57l-26.24-2.43L670.35,249,660,274.16l-26.24,2.51,19.86,18-5.82,26.7,22.61-14.06Zm-32-29.16-11.06-10,14.62-1.4,5.76-14,5.79,14,14.62,1.36-11,10.05L683,307l-12.62-7.8L657.81,307Z"/>
        <polygon class="cls-5" points="598.58 339.92 606.63 344.89 604.54 335.41 611.58 329 602.25 328.13 598.56 319.2 594.88 328.14 585.56 329.03 592.62 335.42 590.55 344.91 598.58 339.92"/>
        <polygon class="cls-5" points="664.42 22.34 651.31 23.6 661.23 32.59 658.32 45.94 669.63 38.91 680.95 45.91 678.01 32.57 687.92 23.55 674.8 22.33 669.6 9.76 664.42 22.34"/>
        <path class="cls-5" d="M599,165.93l16.09,9.94-4.18-19L625,144.09l-18.65-1.73L599,124.49l-7.35,17.89L573,144.16,587.07,157l-4.14,19ZM584.49,148l10.38-1,4.1-10,4.11,9.95,10.39,1-7.84,7.14L608,165.7l-9-5.54-8.94,5.56,2.3-10.56Z"/>
        <path class="cls-5" d="M693.06,148.36l-5.88-26.68L707,103.63l-26.24-2.43-10.4-25.15L660,101.22l-26.24,2.51,19.86,18-5.82,26.7,22.61-14.06Zm-32-29.16-11.06-10,14.62-1.39,5.76-14,5.79,14,14.62,1.36-11,10.05L683,134l-12.62-7.8-12.59,7.83Z"/>
        <polygon class="cls-5" points="598.58 217.03 606.63 222 604.54 212.52 611.58 206.11 602.25 205.24 598.56 196.31 594.88 205.25 585.56 206.14 592.62 212.54 590.55 222.02 598.58 217.03"/>
        <path class="cls-5" d="M599,43l16.09,10-4.18-19L625,21.21l-18.65-1.74L599,1.6,591.6,19.49,573,21.27l14.11,12.79-4.14,19ZM584.49,25.15l10.38-1,4.1-10,4.11,10,10.39,1-7.84,7.14L608,42.81l-9-5.54-8.94,5.56,2.3-10.56Z"/>
        <polygon class="cls-5" points="598.58 94.14 606.63 99.11 604.54 89.63 611.58 83.22 602.25 82.36 598.56 73.42 594.88 82.36 585.56 83.25 592.62 89.65 590.55 99.13 598.58 94.14"/>
        <polygon class="cls-5" points="809.65 546.34 820.97 553.34 818.03 540 827.94 530.98 814.82 529.76 809.62 517.18 804.45 529.77 791.33 531.02 801.25 540.02 798.35 553.37 809.65 546.34"/>
        <path class="cls-5" d="M739,526.5l16.09,9.94-4.18-19L765,504.66l-18.65-1.73L739,485.06,731.61,503,713,504.73l14.11,12.79-4.13,19Zm-14.52-17.9,10.39-1,4.09-10,4.12,10,10.39,1-7.85,7.14L748,526.27l-9-5.54-9,5.56,2.3-10.56Z"/>
        <polygon class="cls-5" points="809.81 684.54 804.64 697.13 791.52 698.38 801.45 707.38 798.54 720.73 809.85 713.7 821.17 720.7 818.23 707.36 828.13 698.34 815.01 697.12 809.81 684.54"/>
        <path class="cls-5" d="M739.14,645.42l16.1,10-4.18-19,14.08-12.82-18.65-1.74L739.1,604l-7.35,17.89-18.65,1.78,14.11,12.79-4.13,19Zm-14.51-17.89,10.39-1,4.09-10,4.12,10,10.38,1-7.84,7.14,2.33,10.56-9-5.54-8.95,5.56,2.3-10.56Z"/>
        <path class="cls-5" d="M820.77,608.62l-10.4-25.14L800,608.65l-26.24,2.5,19.86,18-5.82,26.69,22.61-14.05,22.65,14-5.88-26.68L847,611.06Zm-1,18L823,641.46l-12.62-7.79-12.59,7.83,3.24-14.87-11.06-10,14.62-1.4,5.76-14,5.79,14,14.62,1.36Z"/>
        <polygon class="cls-5" points="738.59 577.6 746.63 582.57 744.55 573.09 751.58 566.68 742.26 565.81 738.56 556.88 734.89 565.82 725.57 566.71 732.62 573.11 730.55 582.59 738.59 577.6"/>
        <polygon class="cls-5" points="817.84 372.64 827.74 363.62 814.62 362.4 809.42 349.82 804.25 362.41 791.13 363.66 801.06 372.66 798.15 386.01 809.46 378.98 820.78 385.98 817.84 372.64"/>
        <path class="cls-5" d="M738.87,407.58,755,417.52l-4.18-19,14.08-12.82L746.21,384l-7.39-17.87L731.47,384l-18.65,1.77,14.11,12.79-4.13,19Zm-14.51-17.9,10.38-1,4.09-10,4.12,9.95,10.39,1-7.84,7.15,2.32,10.55-9-5.53-9,5.56,2.3-10.57Z"/>
        <path class="cls-5" d="M832.88,488.43,827,461.75l19.82-18.05-26.25-2.44-10.4-25.14-10.34,25.17-26.24,2.5,19.85,18-5.81,26.69,22.61-14.05Zm-32-29.16-11-10,14.61-1.4,5.76-14,5.79,14,14.62,1.36-11,10.05,3.27,14.85-12.61-7.79-12.59,7.83Z"/>
        <polygon class="cls-5" points="738.45 458.67 746.5 463.65 744.41 454.17 751.45 447.76 742.12 446.89 738.43 437.95 734.75 446.9 725.43 447.79 732.48 454.18 730.42 463.67 738.45 458.67"/>
        <path class="cls-5" d="M739.37,841.83,732,859.72l-18.64,1.78,14.11,12.79-4.14,19,16.07-10,16.09,9.94-4.17-19,14.07-12.83-18.65-1.73Zm14.52,23.51-7.84,7.14L748.38,883l-9-5.54-8.95,5.56,2.3-10.56-7.86-7.13,10.39-1,4.09-10,4.12,10Z"/>
        <polygon class="cls-5" points="810.01 851.9 804.84 864.49 791.72 865.74 801.64 874.74 798.74 888.09 810.04 881.06 821.36 888.06 818.42 874.72 828.33 865.7 815.21 864.48 810.01 851.9"/>
        <path class="cls-5" d="M751.2,755.33l14.08-12.82-18.65-1.73-7.39-17.87-7.35,17.89-18.65,1.77,14.11,12.79-4.13,19,16.06-10,16.09,9.94Zm-11.92,3.25-8.95,5.56,2.3-10.57-7.86-7.12,10.39-1,4.09-10,4.12,10,10.38,1-7.84,7.15,2.33,10.55Z"/>
        <polygon class="cls-5" points="738.84 794.73 735.17 803.67 725.85 804.56 732.9 810.95 730.83 820.44 738.87 815.45 746.91 820.42 744.82 810.94 751.86 804.53 742.54 803.66 738.84 794.73"/>
        <path class="cls-5" d="M810.56,750.84,800.22,776,774,778.51l19.85,18L788,823.2l22.61-14.05,22.64,14-5.87-26.68,19.81-18.05L821,776ZM831,783.92,820,794l3.27,14.85L810.62,801,798,808.86,801.26,794l-11-10,14.61-1.4,5.76-14,5.79,14Z"/>
        <polygon class="cls-5" points="738.73 696.52 746.77 701.49 744.68 692.01 751.72 685.6 742.4 684.74 738.7 675.8 735.03 684.75 725.71 685.64 732.76 692.03 730.69 701.51 738.73 696.52"/>
        <polygon class="cls-5" points="804.39 195.28 791.27 196.53 801.2 205.53 798.29 218.88 809.6 211.85 820.92 218.85 817.98 205.51 827.89 196.49 814.76 195.27 809.57 182.7 804.39 195.28"/>
        <path class="cls-5" d="M739,288.82l16.09,9.94-4.18-19L765,267l-18.65-1.73-7.39-17.87-7.35,17.89-18.64,1.78L727,279.83l-4.13,19Zm-14.51-17.9,10.38-1,4.1-10,4.11,9.95,10.39,1L745.6,278l2.32,10.56-9-5.54-9,5.56,2.3-10.57Z"/>
        <path class="cls-5" d="M833,321.3l-5.88-26.68L847,276.57l-26.25-2.43L810.31,249,800,274.16l-26.24,2.51,19.86,18-5.82,26.7,22.61-14.06Zm-32-29.16-11.06-10,14.61-1.4,5.76-14,5.8,14,14.61,1.36-11,10.05L823,307l-12.61-7.8L797.78,307Z"/>
        <polygon class="cls-5" points="738.55 339.92 746.6 344.89 744.51 335.41 751.55 329 742.22 328.13 738.53 319.2 734.85 328.14 725.53 329.03 732.58 335.42 730.52 344.91 738.55 339.92"/>
        <polygon class="cls-5" points="804.39 22.34 791.27 23.6 801.2 32.59 798.29 45.94 809.6 38.91 820.92 45.91 817.98 32.57 827.89 23.55 814.76 22.33 809.57 9.76 804.39 22.34"/>
        <path class="cls-5" d="M739,165.93l16.09,9.94-4.18-19L765,144.09l-18.65-1.73-7.39-17.87-7.35,17.89-18.64,1.78L727,157l-4.13,19ZM724.46,148l10.38-1,4.1-10,4.11,9.95,10.39,1-7.84,7.14,2.32,10.56-9-5.54-9,5.56,2.3-10.56Z"/>
        <path class="cls-5" d="M833,148.36l-5.88-26.68L847,103.63l-26.25-2.43-10.4-25.15L800,101.22l-26.24,2.51,19.86,18-5.82,26.7,22.61-14.06ZM801,119.2l-11.06-10,14.61-1.39,5.76-14,5.8,14,14.61,1.36-11,10.05L823,134l-12.61-7.8-12.59,7.83Z"/>
        <polygon class="cls-5" points="738.55 217.03 746.6 222 744.51 212.52 751.55 206.11 742.22 205.24 738.53 196.31 734.85 205.25 725.53 206.14 732.58 212.54 730.52 222.02 738.55 217.03"/>
        <path class="cls-5" d="M739,43l16.09,10-4.18-19L765,21.21l-18.65-1.74L738.92,1.6l-7.35,17.89-18.64,1.78L727,34.06,722.9,53ZM724.46,25.15l10.38-1,4.1-10,4.11,10,10.39,1-7.84,7.14,2.32,10.56-9-5.54-9,5.56,2.3-10.56Z"/>
        <polygon class="cls-5" points="738.55 94.14 746.6 99.11 744.51 89.63 751.55 83.22 742.22 82.36 738.53 73.42 734.85 82.36 725.53 83.25 732.58 89.65 730.52 99.13 738.55 94.14"/>
        <polygon class="cls-5" points="949.62 546.34 960.94 553.34 958 540 967.91 530.98 954.78 529.76 949.59 517.18 944.41 529.77 931.29 531.02 941.22 540.02 938.31 553.37 949.62 546.34"/>
        <path class="cls-5" d="M879,526.5l16.1,9.94-4.18-19L905,504.66l-18.65-1.73-7.39-17.87L871.58,503l-18.65,1.78L867,517.52l-4.13,19Zm-14.51-17.9,10.39-1,4.09-10,4.12,10,10.38,1-7.84,7.14,2.33,10.56-9-5.54-9,5.56,2.3-10.56Z"/>
        <polygon class="cls-5" points="949.78 684.54 944.61 697.13 931.49 698.38 941.42 707.38 938.51 720.73 949.81 713.7 961.14 720.7 958.2 707.36 968.1 698.34 954.98 697.12 949.78 684.54"/>
        <path class="cls-5" d="M879.11,645.42l16.09,10-4.17-19,14.07-12.82-18.64-1.74L879.06,604l-7.34,17.89-18.65,1.78,14.11,12.79-4.14,19ZM864.6,627.53l10.39-1,4.09-10,4.12,10,10.38,1-7.84,7.14,2.33,10.56-9-5.54-9,5.56,2.3-10.56Z"/>
        <path class="cls-5" d="M960.73,608.62l-10.4-25.14L940,608.65l-26.24,2.5,19.86,18-5.82,26.69,22.61-14.05,22.65,14-5.88-26.68L987,611.06Zm-1,18L963,641.46l-12.61-7.79L937.8,641.5,941,626.63l-11.06-10,14.61-1.4,5.76-14,5.8,14,14.61,1.36Z"/>
        <polygon class="cls-5" points="878.56 577.6 886.6 582.57 884.51 573.09 891.55 566.68 882.23 565.81 878.53 556.88 874.86 565.82 865.53 566.71 872.59 573.11 870.52 582.59 878.56 577.6"/>
        <polygon class="cls-5" points="957.81 372.64 967.71 363.62 954.59 362.4 949.39 349.82 944.22 362.41 931.1 363.66 941.03 372.66 938.12 386.01 949.42 378.98 960.75 385.98 957.81 372.64"/>
        <path class="cls-5" d="M878.84,407.58l16.09,9.94-4.18-19,14.08-12.82L886.18,384l-7.39-17.87L871.44,384l-18.65,1.77,14.11,12.79-4.13,19Zm-14.52-17.9,10.39-1,4.09-10,4.12,9.95,10.39,1-7.85,7.15,2.33,10.55-9-5.53-9,5.56,2.3-10.57Z"/>
        <path class="cls-5" d="M972.85,488.43,967,461.75l19.81-18.05-26.24-2.44-10.4-25.14L939.8,441.29l-26.24,2.5,19.85,18-5.82,26.69,22.62-14.05Zm-32-29.16-11.06-10,14.62-1.4,5.76-14,5.79,14,14.62,1.36-11,10.05,3.27,14.85-12.61-7.79-12.6,7.83Z"/>
        <polygon class="cls-5" points="878.42 458.67 886.46 463.65 884.38 454.17 891.41 447.76 882.09 446.89 878.39 437.95 874.72 446.9 865.4 447.79 872.45 454.18 870.38 463.67 878.42 458.67"/>
        <path class="cls-5" d="M879.34,841.83,872,859.72l-18.64,1.78,14.11,12.79-4.14,19,16.07-10,16.09,9.94-4.18-19,14.08-12.83-18.65-1.73Zm14.52,23.51L886,872.48,888.35,883l-9-5.54-9,5.56,2.31-10.56-7.86-7.13,10.38-1,4.1-10,4.11,10Z"/>
        <polygon class="cls-5" points="949.98 851.9 944.8 864.49 931.68 865.74 941.61 874.74 938.7 888.09 950.01 881.06 961.33 888.06 958.39 874.72 968.3 865.7 955.17 864.48 949.98 851.9"/>
        <path class="cls-5" d="M891.17,755.33l14.07-12.82-18.65-1.73-7.39-17.87-7.35,17.89-18.64,1.77,14.11,12.79-4.14,19,16.07-10,16.09,9.94Zm-11.93,3.25-8.94,5.56,2.3-10.57-7.86-7.12,10.39-1,4.09-10,4.11,10,10.39,1-7.84,7.15,2.33,10.55Z"/>
        <polygon class="cls-5" points="878.81 794.73 875.13 803.67 865.81 804.56 872.87 810.95 870.8 820.44 878.83 815.45 886.88 820.42 884.79 810.94 891.83 804.53 882.5 803.66 878.81 794.73"/>
        <path class="cls-5" d="M950.53,750.84,940.19,776,914,778.51l19.85,18L928,823.2l22.62-14.05,22.64,14-5.88-26.68,19.81-18.05L960.93,776ZM971,783.92l-11,10.05,3.27,14.85L950.59,801,938,808.86,941.23,794l-11.06-10,14.62-1.4,5.76-14,5.79,14Z"/>
        <polygon class="cls-5" points="878.7 696.52 886.74 701.49 884.65 692.01 891.69 685.6 882.37 684.74 878.67 675.8 875 684.75 865.67 685.64 872.73 692.03 870.66 701.51 878.7 696.52"/>
        <polygon class="cls-5" points="944.36 195.28 931.24 196.53 941.17 205.53 938.26 218.88 949.57 211.85 960.89 218.85 957.95 205.51 967.86 196.49 954.73 195.27 949.53 182.7 944.36 195.28"/>
        <path class="cls-5" d="M878.94,288.82,895,298.76l-4.18-19L904.93,267l-18.65-1.73-7.39-17.87-7.35,17.89-18.65,1.78L867,279.83l-4.13,19Zm-14.51-17.9,10.38-1,4.09-10,4.12,9.95,10.39,1L885.57,278l2.32,10.56-9-5.54L870,288.61l2.3-10.57Z"/>
        <path class="cls-5" d="M973,321.3l-5.87-26.68,19.81-18.05-26.25-2.43L950.28,249l-10.34,25.17-26.24,2.51,19.85,18-5.81,26.7,22.61-14.06Zm-32-29.16-11.06-10,14.61-1.4,5.76-14,5.8,14,14.61,1.36-11,10.05L963,307l-12.61-7.8L937.75,307Z"/>
        <polygon class="cls-5" points="878.52 339.92 886.57 344.89 884.48 335.41 891.52 329 882.19 328.13 878.5 319.2 874.82 328.14 865.5 329.03 872.55 335.42 870.49 344.91 878.52 339.92"/>
        <polygon class="cls-5" points="944.36 22.34 931.24 23.6 941.17 32.59 938.26 45.94 949.57 38.91 960.89 45.91 957.95 32.57 967.86 23.55 954.73 22.33 949.53 9.76 944.36 22.34"/>
        <path class="cls-5" d="M878.94,165.93,895,175.87l-4.18-19,14.08-12.83-18.65-1.73-7.39-17.87-7.35,17.89-18.65,1.78L867,157l-4.13,19ZM864.43,148l10.38-1,4.09-10L883,147l10.39,1-7.84,7.14,2.32,10.56-9-5.54L870,165.72l2.3-10.56Z"/>
        <path class="cls-5" d="M973,148.36l-5.87-26.68,19.81-18.05-26.25-2.43-10.4-25.15-10.34,25.17-26.24,2.51,19.85,18-5.81,26.7,22.61-14.06ZM941,119.2l-11.06-10,14.61-1.39,5.76-14,5.8,14,14.61,1.36-11,10.05L963,134l-12.61-7.8-12.59,7.83Z"/>
        <polygon class="cls-5" points="878.52 217.03 886.57 222 884.48 212.52 891.52 206.11 882.19 205.24 878.5 196.31 874.82 205.25 865.5 206.14 872.55 212.54 870.49 222.02 878.52 217.03"/>
        <path class="cls-5" d="M878.94,43,895,53l-4.18-19,14.08-12.82-18.65-1.74L878.89,1.6l-7.35,17.89-18.65,1.78L867,34.06l-4.13,19ZM864.43,25.15l10.38-1,4.09-10,4.12,10,10.39,1-7.84,7.14,2.32,10.56-9-5.54L870,42.83l2.3-10.56Z"/>
        <polygon class="cls-5" points="878.52 94.14 886.57 99.11 884.48 89.63 891.52 83.22 882.19 82.36 878.5 73.42 874.82 82.36 865.5 83.25 872.55 89.65 870.49 99.13 878.52 94.14"/>
        <polygon class="cls-5" points="1089.59 546.34 1100.91 553.34 1097.97 540 1107.88 530.98 1094.75 529.76 1089.55 517.18 1084.38 529.77 1071.26 531.02 1081.19 540.02 1078.28 553.37 1089.59 546.34"/>
        <path class="cls-5" d="M1018.94,526.5l16.09,9.94-4.17-19,14.07-12.83-18.65-1.73-7.39-17.87L1011.55,503l-18.65,1.78L1007,517.52l-4.14,19Zm-14.51-17.9,10.39-1,4.09-10,4.12,10,10.38,1-7.84,7.14,2.33,10.56-9-5.54-9,5.56,2.3-10.56Z"/>
        <polygon class="cls-5" points="1089.75 684.54 1084.58 697.13 1071.46 698.38 1081.38 707.38 1078.48 720.73 1089.78 713.7 1101.11 720.7 1098.16 707.36 1108.07 698.34 1094.95 697.12 1089.75 684.54"/>
        <path class="cls-5" d="M1019.08,645.42l16.09,10-4.18-19,14.08-12.82-18.65-1.74L1019,604l-7.35,17.89L993,623.65l14.11,12.79-4.14,19Zm-14.51-17.89,10.38-1,4.1-10,4.11,10,10.39,1-7.84,7.14,2.33,10.56-9-5.54-8.94,5.56,2.3-10.56Z"/>
        <path class="cls-5" d="M1100.7,608.62l-10.4-25.14L1080,608.65l-26.24,2.5,19.85,18-5.81,26.69,22.61-14.05,22.64,14-5.87-26.68L1127,611.06Zm-1,18,3.27,14.85-12.61-7.79-12.59,7.83,3.24-14.87-11.06-10,14.61-1.4,5.76-14,5.8,14,14.61,1.36Z"/>
        <polygon class="cls-5" points="1018.52 577.6 1026.57 582.57 1024.48 573.09 1031.52 566.68 1022.2 565.81 1018.5 556.88 1014.83 565.82 1005.5 566.71 1012.56 573.11 1010.49 582.59 1018.52 577.6"/>
        <polygon class="cls-5" points="1097.78 372.64 1107.68 363.62 1094.56 362.4 1089.36 349.82 1084.19 362.41 1071.07 363.66 1080.99 372.66 1078.09 386.01 1089.39 378.98 1100.71 385.98 1097.78 372.64"/>
        <path class="cls-5" d="M1018.8,407.58l16.09,9.94-4.17-19,14.08-12.82L1026.15,384l-7.39-17.87L1011.41,384l-18.65,1.77,14.11,12.79-4.13,19Zm-14.51-17.9,10.39-1,4.09-10,4.12,9.95,10.38,1-7.84,7.15,2.33,10.55-9-5.53-8.95,5.56,2.3-10.57Z"/>
        <path class="cls-5" d="M1112.82,488.43l-5.88-26.68,19.81-18.05-26.24-2.44-10.4-25.14-10.35,25.17-26.24,2.5,19.86,18-5.82,26.69,22.61-14.05Zm-32-29.16-11.06-10,14.62-1.4,5.76-14,5.79,14,14.62,1.36-11,10.05,3.28,14.85-12.62-7.79-12.59,7.83Z"/>
        <polygon class="cls-5" points="1018.39 458.67 1026.43 463.65 1024.34 454.17 1031.38 447.76 1022.06 446.89 1018.36 437.95 1014.69 446.9 1005.37 447.79 1012.42 454.18 1010.35 463.67 1018.39 458.67"/>
        <path class="cls-5" d="M1019.31,841.83,1012,859.72l-18.64,1.78,14.1,12.79-4.13,19,16.07-10,16.09,9.94-4.18-19,14.08-12.83-18.65-1.73Zm14.52,23.51-7.84,7.14,2.32,10.56-9-5.54-9,5.56,2.3-10.56-7.85-7.13,10.38-1,4.09-10,4.12,10Z"/>
        <polygon class="cls-5" points="1089.94 851.9 1084.77 864.49 1071.65 865.74 1081.58 874.74 1078.67 888.09 1089.98 881.06 1101.3 888.06 1098.36 874.72 1108.27 865.7 1095.14 864.48 1089.94 851.9"/>
        <path class="cls-5" d="M1031.13,755.33l14.08-12.82-18.65-1.73-7.39-17.87-7.35,17.89-18.64,1.77,14.1,12.79-4.13,19,16.07-10,16.09,9.94Zm-11.92,3.25-9,5.56,2.31-10.57-7.86-7.12,10.38-1,4.1-10,4.11,10,10.39,1-7.84,7.15,2.33,10.55Z"/>
        <polygon class="cls-5" points="1018.78 794.73 1015.1 803.67 1005.78 804.56 1012.84 810.95 1010.77 820.44 1018.8 815.45 1026.85 820.42 1024.76 810.94 1031.8 804.53 1022.47 803.66 1018.78 794.73"/>
        <path class="cls-5" d="M1090.5,750.84,1080.15,776l-26.23,2.5,19.85,18L1068,823.2l22.61-14.05,22.65,14-5.88-26.68,19.81-18.05L1100.9,776Zm20.43,33.08-11,10.05,3.28,14.85L1090.56,801l-12.6,7.83L1081.2,794l-11.06-10,14.62-1.4,5.76-14,5.79,14Z"/>
        <polygon class="cls-5" points="1018.66 696.52 1026.71 701.49 1024.62 692.01 1031.66 685.6 1022.34 684.74 1018.64 675.8 1014.97 684.75 1005.64 685.64 1012.7 692.03 1010.63 701.51 1018.66 696.52"/>
        <polygon class="cls-5" points="1084.33 195.28 1071.21 196.53 1081.14 205.53 1078.23 218.88 1089.54 211.85 1100.86 218.85 1097.92 205.51 1107.82 196.49 1094.7 195.27 1089.5 182.7 1084.33 195.28"/>
        <path class="cls-5" d="M1018.91,288.82l16.09,9.94-4.18-19L1044.9,267l-18.65-1.73-7.39-17.87-7.35,17.89-18.65,1.78L1007,279.83l-4.13,19Zm-14.52-17.9,10.39-1,4.09-10,4.12,9.95,10.38,1-7.84,7.14,2.33,10.56-9-5.54-8.95,5.56,2.3-10.57Z"/>
        <path class="cls-5" d="M1113,321.3l-5.88-26.68,19.82-18.05-26.25-2.43L1090.25,249l-10.34,25.17-26.24,2.51,19.85,18-5.81,26.7,22.61-14.06Zm-32-29.16-11-10,14.61-1.4,5.76-14,5.79,14,14.62,1.36-11,10.05,3.27,14.86-12.61-7.8-12.6,7.83Z"/>
        <polygon class="cls-5" points="1018.49 339.92 1026.53 344.89 1024.44 335.41 1031.48 329 1022.16 328.13 1018.46 319.2 1014.79 328.14 1005.47 329.03 1012.52 335.42 1010.45 344.91 1018.49 339.92"/>
        <polygon class="cls-5" points="1084.33 22.34 1071.21 23.6 1081.14 32.59 1078.23 45.94 1089.54 38.91 1100.86 45.91 1097.92 32.57 1107.82 23.55 1094.7 22.33 1089.5 9.76 1084.33 22.34"/>
        <path class="cls-5" d="M1018.91,165.93l16.09,9.94-4.18-19,14.08-12.83-18.65-1.73-7.39-17.87-7.35,17.89-18.65,1.78L1007,157l-4.13,19ZM1004.39,148l10.39-1,4.09-10L1023,147l10.38,1-7.84,7.14,2.33,10.56-9-5.54-8.95,5.56,2.3-10.56Z"/>
        <path class="cls-5" d="M1113,148.36l-5.88-26.68,19.82-18.05-26.25-2.43-10.4-25.15-10.34,25.17-26.24,2.51,19.85,18-5.81,26.7,22.61-14.06Zm-32-29.16-11-10,14.61-1.39,5.76-14,5.79,14,14.62,1.36-11,10.05,3.27,14.86-12.61-7.8-12.6,7.83Z"/>
        <polygon class="cls-5" points="1018.49 217.03 1026.53 222 1024.44 212.52 1031.48 206.11 1022.16 205.24 1018.46 196.31 1014.79 205.25 1005.47 206.14 1012.52 212.54 1010.45 222.02 1018.49 217.03"/>
        <path class="cls-5" d="M1018.91,43,1035,53l-4.18-19,14.08-12.82-18.65-1.74L1018.86,1.6l-7.35,17.89-18.65,1.78L1007,34.06l-4.13,19Zm-14.52-17.89,10.39-1,4.09-10,4.12,10,10.38,1-7.84,7.14,2.33,10.56-9-5.54L1010,42.83l2.3-10.56Z"/>
        <polygon class="cls-5" points="1018.49 94.14 1026.53 99.11 1024.44 89.63 1031.48 83.22 1022.16 82.36 1018.46 73.42 1014.79 82.36 1005.47 83.25 1012.52 89.65 1010.45 99.13 1018.49 94.14"/>
        <polygon class="cls-5" points="1229.56 546.34 1240.88 553.34 1237.94 540 1247.84 530.98 1234.72 529.76 1229.52 517.18 1224.35 529.77 1211.23 531.02 1221.16 540.02 1218.25 553.37 1229.56 546.34"/>
        <path class="cls-5" d="M1158.91,526.5l16.09,9.94-4.18-19,14.08-12.83-18.65-1.73-7.39-17.87L1151.51,503l-18.64,1.78L1147,517.52l-4.14,19Zm-14.51-17.9,10.38-1,4.1-10,4.11,10,10.39,1-7.84,7.14,2.33,10.56-9-5.54-8.94,5.56,2.3-10.56Z"/>
        <polygon class="cls-5" points="1229.72 684.54 1224.55 697.13 1211.42 698.38 1221.35 707.38 1218.44 720.73 1229.75 713.7 1241.07 720.7 1238.13 707.36 1248.04 698.34 1234.92 697.12 1229.72 684.54"/>
        <path class="cls-5" d="M1159.05,645.42l16.09,10-4.18-19L1185,623.59l-18.65-1.74L1159,604l-7.35,17.89L1133,623.65l14.1,12.79-4.13,19Zm-14.51-17.89,10.38-1,4.1-10,4.11,10,10.39,1-7.84,7.14,2.32,10.56-9-5.54-9,5.56,2.3-10.56Z"/>
        <path class="cls-5" d="M1240.67,608.62l-10.4-25.14-10.34,25.17-26.24,2.5,19.85,18-5.81,26.69,22.61-14.05,22.64,14-5.88-26.68,19.82-18.05Zm-1,18,3.27,14.85-12.61-7.79-12.59,7.83,3.23-14.87-11-10,14.61-1.4,5.76-14,5.79,14,14.62,1.36Z"/>
        <polygon class="cls-5" points="1158.49 577.6 1166.54 582.57 1164.45 573.09 1171.49 566.68 1162.16 565.81 1158.47 556.88 1154.79 565.82 1145.47 566.71 1152.53 573.11 1150.46 582.59 1158.49 577.6"/>
        <polygon class="cls-5" points="1237.74 372.64 1247.65 363.62 1234.53 362.4 1229.33 349.82 1224.15 362.41 1211.04 363.66 1220.96 372.66 1218.05 386.01 1229.36 378.98 1240.68 385.98 1237.74 372.64"/>
        <path class="cls-5" d="M1158.77,407.58l16.09,9.94-4.17-19,14.07-12.82L1166.11,384l-7.39-17.87L1151.37,384l-18.64,1.77,14.11,12.79-4.14,19Zm-14.51-17.9,10.39-1,4.09-10,4.11,9.95,10.39,1-7.84,7.15,2.33,10.55-9-5.53-8.94,5.56,2.3-10.57Z"/>
        <path class="cls-5" d="M1252.79,488.43l-5.88-26.68,19.81-18.05-26.24-2.44-10.41-25.14-10.34,25.17-26.24,2.5,19.86,18-5.82,26.69,22.61-14.05Zm-32-29.16-11.06-10,14.62-1.4,5.76-14,5.79,14,14.62,1.36-11,10.05,3.28,14.85-12.62-7.79-12.59,7.83Z"/>
        <polygon class="cls-5" points="1158.35 458.67 1166.4 463.65 1164.31 454.17 1171.35 447.76 1162.03 446.89 1158.33 437.95 1154.65 446.9 1145.33 447.79 1152.39 454.18 1150.32 463.67 1158.35 458.67"/>
        <path class="cls-5" d="M1159.28,841.83l-7.35,17.89-18.65,1.78,14.11,12.79-4.13,19,16.07-10,16.09,9.94-4.18-19,14.08-12.83-18.65-1.73Zm14.52,23.51-7.84,7.14,2.32,10.56-9-5.54-9,5.56,2.3-10.56-7.86-7.13,10.39-1,4.09-10,4.12,10Z"/>
        <polygon class="cls-5" points="1229.91 851.9 1224.74 864.49 1211.62 865.74 1221.55 874.74 1218.64 888.09 1229.94 881.06 1241.27 888.06 1238.33 874.72 1248.23 865.7 1235.11 864.48 1229.91 851.9"/>
        <path class="cls-5" d="M1171.1,755.33l14.08-12.82-18.65-1.73-7.39-17.87-7.35,17.89-18.64,1.77,14.1,12.79-4.13,19,16.07-10,16.09,9.94Zm-11.92,3.25-9,5.56,2.3-10.57-7.85-7.12,10.38-1,4.09-10,4.12,10,10.39,1-7.84,7.15,2.32,10.55Z"/>
        <polygon class="cls-5" points="1158.75 794.73 1155.07 803.67 1145.75 804.56 1152.8 810.95 1150.74 820.44 1158.77 815.45 1166.82 820.42 1164.73 810.94 1171.77 804.53 1162.44 803.66 1158.75 794.73"/>
        <path class="cls-5" d="M1230.46,750.84,1220.12,776l-26.24,2.5,19.86,18-5.82,26.69,22.61-14.05,22.65,14-5.88-26.68,19.81-18.05L1240.87,776Zm20.44,33.08-11,10.05,3.28,14.85L1230.52,801l-12.59,7.83,3.24-14.87-11.06-10,14.62-1.4,5.76-14,5.79,14Z"/>
        <polygon class="cls-5" points="1158.63 696.52 1166.68 701.49 1164.59 692.01 1171.63 685.6 1162.3 684.74 1158.61 675.8 1154.93 684.75 1145.61 685.64 1152.66 692.03 1150.6 701.51 1158.63 696.52"/>
        <polygon class="cls-5" points="1224.3 195.28 1211.18 196.53 1221.11 205.53 1218.2 218.88 1229.5 211.85 1240.83 218.85 1237.89 205.51 1247.79 196.49 1234.67 195.27 1229.47 182.7 1224.3 195.28"/>
        <path class="cls-5" d="M1158.87,288.82l16.09,9.94-4.17-19L1184.87,267l-18.65-1.73-7.39-17.87-7.35,17.89-18.65,1.78,14.11,12.78-4.13,19Zm-14.51-17.9,10.39-1,4.09-10,4.12,9.95,10.38,1L1165.5,278l2.33,10.56-9-5.54-8.95,5.56,2.3-10.57Z"/>
        <path class="cls-5" d="M1252.93,321.3l-5.88-26.68,19.81-18.05-26.24-2.43L1230.22,249l-10.34,25.17-26.24,2.51,19.85,18-5.82,26.7,22.62-14.06Zm-32-29.16-11.06-10,14.62-1.4,5.76-14,5.79,14,14.62,1.36-11,10.05,3.28,14.86-12.61-7.8-12.6,7.83Z"/>
        <polygon class="cls-5" points="1158.46 339.92 1166.5 344.89 1164.41 335.41 1171.45 329 1162.13 328.13 1158.43 319.2 1154.76 328.14 1145.43 329.03 1152.49 335.42 1150.42 344.91 1158.46 339.92"/>
        <polygon class="cls-5" points="1224.3 22.34 1211.18 23.6 1221.11 32.59 1218.2 45.94 1229.5 38.91 1240.83 45.91 1237.89 32.57 1247.79 23.55 1234.67 22.33 1229.47 9.76 1224.3 22.34"/>
        <path class="cls-5" d="M1158.87,165.93l16.09,9.94-4.17-19,14.08-12.83-18.65-1.73-7.39-17.87-7.35,17.89-18.65,1.78L1146.94,157l-4.13,19ZM1144.36,148l10.39-1,4.09-10L1163,147l10.38,1-7.84,7.14,2.33,10.56-9-5.54-8.95,5.56,2.3-10.56Z"/>
        <path class="cls-5" d="M1252.93,148.36l-5.88-26.68,19.81-18.05-26.24-2.43-10.4-25.15-10.34,25.17-26.24,2.51,19.85,18-5.82,26.7,22.62-14.06Zm-32-29.16-11.06-10,14.62-1.39,5.76-14,5.79,14,14.62,1.36-11,10.05,3.28,14.86-12.61-7.8-12.6,7.83Z"/>
        <polygon class="cls-5" points="1158.46 217.03 1166.5 222 1164.41 212.52 1171.45 206.11 1162.13 205.24 1158.43 196.31 1154.76 205.25 1145.43 206.14 1152.49 212.54 1150.42 222.02 1158.46 217.03"/>
        <path class="cls-5" d="M1158.87,43,1175,53l-4.17-19,14.08-12.82-18.65-1.74L1158.83,1.6l-7.35,17.89-18.65,1.78,14.11,12.79-4.13,19Zm-14.51-17.89,10.39-1,4.09-10,4.12,10,10.38,1-7.84,7.14,2.33,10.56-9-5.54-8.95,5.56,2.3-10.56Z"/>
        <polygon class="cls-5" points="1158.46 94.14 1166.5 99.11 1164.41 89.63 1171.45 83.22 1162.13 82.36 1158.43 73.42 1154.76 82.36 1145.43 83.25 1152.49 89.65 1150.42 99.13 1158.46 94.14"/>
        <polygon class="cls-5" points="1369.52 546.34 1380.85 553.34 1377.91 540 1387.81 530.98 1374.69 529.76 1369.49 517.18 1364.32 529.77 1351.2 531.02 1361.13 540.02 1358.22 553.37 1369.52 546.34"/>
        <path class="cls-5" d="M1298.88,526.5l16.09,9.94-4.18-19,14.08-12.83-18.65-1.73-7.39-17.87L1291.48,503l-18.64,1.78,14.1,12.79-4.13,19Zm-14.51-17.9,10.38-1,4.09-10,4.12,10,10.39,1-7.84,7.14,2.32,10.56-9-5.54-8.95,5.56,2.3-10.56Z"/>
        <polygon class="cls-5" points="1369.68 684.54 1364.51 697.13 1351.39 698.38 1361.32 707.38 1358.41 720.73 1369.72 713.7 1381.04 720.7 1378.1 707.36 1388.01 698.34 1374.88 697.12 1369.68 684.54"/>
        <path class="cls-5" d="M1299,645.42l16.09,10-4.18-19L1325,623.59l-18.65-1.74L1299,604l-7.35,17.89L1273,623.65l14.11,12.79-4.13,19Zm-14.51-17.89,10.38-1,4.09-10,4.12,10,10.39,1-7.84,7.14,2.32,10.56-9-5.54-9,5.56,2.3-10.56Z"/>
        <path class="cls-5" d="M1380.64,608.62l-10.4-25.14-10.34,25.17-26.24,2.5,19.85,18-5.82,26.69,22.62-14.05,22.64,14-5.88-26.68,19.81-18.05Zm-1,18,3.28,14.85-12.61-7.79-12.6,7.83,3.24-14.87-11.06-10,14.62-1.4,5.76-14,5.79,14,14.62,1.36Z"/>
        <polygon class="cls-5" points="1298.46 577.6 1306.51 582.57 1304.42 573.09 1311.46 566.68 1302.13 565.81 1298.44 556.88 1294.76 565.82 1285.44 566.71 1292.49 573.11 1290.43 582.59 1298.46 577.6"/>
        <polygon class="cls-5" points="1377.71 372.64 1387.62 363.62 1374.49 362.4 1369.29 349.82 1364.12 362.41 1351 363.66 1360.93 372.66 1358.02 386.01 1369.33 378.98 1380.65 385.98 1377.71 372.64"/>
        <path class="cls-5" d="M1298.74,407.58l16.09,9.94-4.18-19,14.08-12.82L1306.08,384l-7.39-17.87L1291.34,384l-18.64,1.77,14.1,12.79-4.13,19Zm-14.51-17.9,10.38-1,4.1-10,4.11,9.95,10.39,1-7.84,7.15,2.33,10.55-9-5.53-9,5.56,2.31-10.57Z"/>
        <path class="cls-5" d="M1392.76,488.43l-5.88-26.68,19.81-18.05-26.25-2.44L1370,416.12l-10.34,25.17-26.24,2.5,19.85,18-5.81,26.69,22.61-14.05Zm-32-29.16-11.06-10,14.61-1.4,5.76-14,5.8,14,14.61,1.36-11,10.05,3.27,14.85-12.61-7.79-12.59,7.83Z"/>
        <polygon class="cls-5" points="1298.32 458.67 1306.37 463.65 1304.28 454.17 1311.32 447.76 1301.99 446.89 1298.3 437.95 1294.62 446.9 1285.3 447.79 1292.36 454.18 1290.29 463.67 1298.32 458.67"/>
        <path class="cls-5" d="M1299.25,841.83l-7.35,17.89-18.65,1.78,14.11,12.79-4.13,19,16.06-10,16.1,9.94-4.18-19,14.08-12.83-18.65-1.73Zm14.51,23.51-7.84,7.14,2.33,10.56-9-5.54-9,5.56,2.3-10.56-7.86-7.13,10.39-1,4.09-10,4.12,10Z"/>
        <polygon class="cls-5" points="1369.88 851.9 1364.71 864.49 1351.59 865.74 1361.52 874.74 1358.61 888.09 1369.91 881.06 1381.24 888.06 1378.3 874.72 1388.2 865.7 1375.08 864.48 1369.88 851.9"/>
        <path class="cls-5" d="M1311.07,755.33l14.08-12.82-18.65-1.73-7.39-17.87-7.35,17.89-18.65,1.77,14.11,12.79-4.13,19,16.07-10,16.09,9.94Zm-11.92,3.25-9,5.56,2.3-10.57-7.86-7.12,10.39-1,4.09-10,4.12,10,10.39,1-7.85,7.15,2.33,10.55Z"/>
        <polygon class="cls-5" points="1298.71 794.73 1295.04 803.67 1285.72 804.56 1292.77 810.95 1290.7 820.44 1298.74 815.45 1306.78 820.42 1304.69 810.94 1311.73 804.53 1302.41 803.66 1298.71 794.73"/>
        <path class="cls-5" d="M1370.43,750.84,1360.09,776l-26.24,2.5,19.85,18-5.81,26.69,22.61-14.05,22.65,14-5.88-26.68,19.81-18.05L1380.83,776Zm20.43,33.08-11,10.05,3.27,14.85L1370.49,801l-12.59,7.83,3.24-14.87-11.06-10,14.61-1.4,5.76-14,5.8,14Z"/>
        <polygon class="cls-5" points="1298.6 696.52 1306.64 701.49 1304.56 692.01 1311.6 685.6 1302.27 684.74 1298.58 675.8 1294.9 684.75 1285.58 685.64 1292.63 692.03 1290.57 701.51 1298.6 696.52"/>
        <polygon class="cls-5" points="1364.27 195.28 1351.15 196.53 1361.07 205.53 1358.16 218.88 1369.47 211.85 1380.79 218.85 1377.85 205.51 1387.76 196.49 1374.64 195.27 1369.44 182.7 1364.27 195.28"/>
        <path class="cls-5" d="M1298.84,288.82l16.09,9.94-4.17-19L1324.83,267l-18.65-1.73-7.39-17.87-7.35,17.89-18.64,1.78,14.11,12.78-4.14,19Zm-14.51-17.9,10.39-1,4.09-10,4.11,9.95,10.39,1-7.84,7.14,2.33,10.56-9-5.54-8.94,5.56,2.3-10.57Z"/>
        <path class="cls-5" d="M1392.9,321.3,1387,294.62l19.81-18.05-26.24-2.43L1370.19,249l-10.35,25.17-26.24,2.51,19.86,18-5.82,26.7,22.61-14.06Zm-32-29.16-11.06-10,14.62-1.4,5.76-14,5.79,14,14.62,1.36-11,10.05,3.28,14.86-12.62-7.8L1357.65,307Z"/>
        <polygon class="cls-5" points="1298.42 339.92 1306.47 344.89 1304.38 335.41 1311.42 329 1302.1 328.13 1298.4 319.2 1294.72 328.14 1285.4 329.03 1292.46 335.42 1290.39 344.91 1298.42 339.92"/>
        <polygon class="cls-5" points="1364.27 22.34 1351.15 23.6 1361.07 32.59 1358.16 45.94 1369.47 38.91 1380.79 45.91 1377.85 32.57 1387.76 23.55 1374.64 22.33 1369.44 9.76 1364.27 22.34"/>
        <path class="cls-5" d="M1298.84,165.93l16.09,9.94-4.17-19,14.07-12.83-18.65-1.73-7.39-17.87-7.35,17.89-18.64,1.78L1286.91,157l-4.14,19ZM1284.33,148l10.39-1,4.09-10,4.11,9.95,10.39,1-7.84,7.14,2.33,10.56-9-5.54-8.94,5.56,2.3-10.56Z"/>
        <path class="cls-5" d="M1392.9,148.36,1387,121.68l19.81-18.05-26.24-2.43-10.4-25.15-10.35,25.17-26.24,2.51,19.86,18-5.82,26.7,22.61-14.06Zm-32-29.16-11.06-10,14.62-1.39,5.76-14,5.79,14,14.62,1.36-11,10.05,3.28,14.86-12.62-7.8-12.59,7.83Z"/>
        <polygon class="cls-5" points="1298.42 217.03 1306.47 222 1304.38 212.52 1311.42 206.11 1302.1 205.24 1298.4 196.31 1294.72 205.25 1285.4 206.14 1292.46 212.54 1290.39 222.02 1298.42 217.03"/>
        <path class="cls-5" d="M1298.84,43l16.09,10-4.17-19,14.07-12.82-18.65-1.74L1298.79,1.6l-7.35,17.89-18.64,1.78,14.11,12.79-4.14,19Zm-14.51-17.89,10.39-1,4.09-10,4.11,10,10.39,1-7.84,7.14,2.33,10.56-9-5.54-8.94,5.56,2.3-10.56Z"/>
        <polygon class="cls-5" points="1298.42 94.14 1306.47 99.11 1304.38 89.63 1311.42 83.22 1302.1 82.36 1298.4 73.42 1294.72 82.36 1285.4 83.25 1292.46 89.65 1290.39 99.13 1298.42 94.14"/>
        <polygon class="cls-5" points="1509.49 546.34 1520.81 553.34 1517.87 540 1527.78 530.98 1514.66 529.76 1509.46 517.18 1504.29 529.77 1491.17 531.02 1501.09 540.02 1498.18 553.37 1509.49 546.34"/>
        <path class="cls-5" d="M1438.85,526.5l16.09,9.94-4.18-19,14.08-12.83-18.65-1.73-7.39-17.87L1431.45,503l-18.65,1.78,14.11,12.79-4.13,19Zm-14.51-17.9,10.38-1,4.09-10,4.12,10,10.39,1-7.84,7.14,2.32,10.56-9-5.54-8.95,5.56,2.3-10.56Z"/>
        <polygon class="cls-5" points="1509.65 684.54 1504.48 697.13 1491.36 698.38 1501.29 707.38 1498.38 720.73 1509.69 713.7 1521.01 720.7 1518.07 707.36 1527.97 698.34 1514.85 697.12 1509.65 684.54"/>
        <path class="cls-5" d="M1439,645.42l16.09,10-4.18-19L1465,623.59l-18.65-1.74L1438.94,604l-7.35,17.89-18.65,1.78,14.11,12.79-4.13,19Zm-14.52-17.89,10.39-1,4.09-10,4.12,10,10.38,1-7.84,7.14,2.33,10.56-9-5.54-9,5.56,2.3-10.56Z"/>
        <path class="cls-5" d="M1520.61,608.62l-10.4-25.14-10.35,25.17-26.24,2.5,19.86,18-5.82,26.69,22.61-14.05,22.65,14L1527,629.11l19.81-18.05Zm-1,18,3.28,14.85-12.62-7.79-12.59,7.83,3.24-14.87-11.06-10,14.62-1.4,5.76-14,5.79,14,14.62,1.36Z"/>
        <polygon class="cls-5" points="1438.43 577.6 1446.47 582.57 1444.39 573.09 1451.42 566.68 1442.1 565.81 1438.4 556.88 1434.73 565.82 1425.41 566.71 1432.46 573.11 1430.39 582.59 1438.43 577.6"/>
        <polygon class="cls-5" points="1517.68 372.64 1527.59 363.62 1514.46 362.4 1509.26 349.82 1504.09 362.41 1490.97 363.66 1500.9 372.66 1497.99 386.01 1509.3 378.98 1520.62 385.98 1517.68 372.64"/>
        <path class="cls-5" d="M1438.71,407.58l16.09,9.94-4.18-19,14.08-12.82L1446.05,384l-7.39-17.87L1431.31,384l-18.64,1.77,14.1,12.79-4.13,19Zm-14.51-17.9,10.38-1,4.09-10,4.12,9.95,10.39,1-7.84,7.15,2.32,10.55-9-5.53-9,5.56,2.3-10.57Z"/>
        <path class="cls-5" d="M1532.72,488.43l-5.87-26.68,19.81-18.05-26.25-2.44L1510,416.12l-10.34,25.17-26.24,2.5,19.85,18-5.81,26.69,22.61-14.05Zm-32-29.16-11-10,14.61-1.4,5.76-14,5.79,14,14.62,1.36-11,10.05,3.27,14.85-12.61-7.79-12.59,7.83Z"/>
        <polygon class="cls-5" points="1438.29 458.67 1446.34 463.65 1444.25 454.17 1451.29 447.76 1441.96 446.89 1438.27 437.95 1434.59 446.9 1425.27 447.79 1432.32 454.18 1430.26 463.67 1438.29 458.67"/>
        <path class="cls-5" d="M1439.21,841.83l-7.34,17.89-18.65,1.78,14.11,12.79-4.14,19,16.07-10,16.09,9.94-4.17-19,14.07-12.83-18.65-1.73Zm14.52,23.51-7.84,7.14,2.33,10.56-9-5.54-9,5.56,2.3-10.56-7.86-7.13,10.39-1,4.09-10,4.12,10Z"/>
        <polygon class="cls-5" points="1509.85 851.9 1504.68 864.49 1491.56 865.74 1501.48 874.74 1498.58 888.09 1509.88 881.06 1521.2 888.06 1518.27 874.72 1528.17 865.7 1515.05 864.48 1509.85 851.9"/>
        <path class="cls-5" d="M1451,755.33l14.08-12.82-18.65-1.73-7.39-17.87-7.35,17.89-18.65,1.77,14.11,12.79-4.13,19,16.06-10,16.1,9.94Zm-11.92,3.25-8.95,5.56,2.3-10.57-7.86-7.12,10.39-1,4.09-10,4.12,10,10.38,1-7.84,7.15,2.33,10.55Z"/>
        <polygon class="cls-5" points="1438.68 794.73 1435.01 803.67 1425.68 804.56 1432.74 810.95 1430.67 820.44 1438.71 815.45 1446.75 820.42 1444.66 810.94 1451.7 804.53 1442.38 803.66 1438.68 794.73"/>
        <path class="cls-5" d="M1510.4,750.84,1500.06,776l-26.24,2.5,19.85,18-5.81,26.69,22.61-14.05,22.64,14-5.87-26.68,19.81-18.05L1520.8,776Zm20.43,33.08-11,10.05,3.27,14.85L1510.46,801l-12.59,7.83L1501.1,794l-11-10,14.61-1.4,5.76-14,5.8,14Z"/>
        <polygon class="cls-5" points="1438.57 696.52 1446.61 701.49 1444.53 692.01 1451.56 685.6 1442.24 684.74 1438.54 675.8 1434.87 684.75 1425.55 685.64 1432.6 692.03 1430.53 701.51 1438.57 696.52"/>
        <polygon class="cls-5" points="1504.23 195.28 1491.11 196.53 1501.04 205.53 1498.13 218.88 1509.44 211.85 1520.76 218.85 1517.82 205.51 1527.73 196.49 1514.61 195.27 1509.4 182.7 1504.23 195.28"/>
        <path class="cls-5" d="M1438.81,288.82l16.09,9.94-4.18-19L1464.8,267l-18.65-1.73-7.39-17.87-7.35,17.89-18.64,1.78,14.1,12.78-4.13,19Zm-14.51-17.9,10.38-1,4.1-10,4.11,9.95,10.39,1-7.84,7.14,2.33,10.56-9-5.54-9,5.56,2.31-10.57Z"/>
        <path class="cls-5" d="M1532.87,321.3,1527,294.62l19.81-18.05-26.25-2.43L1510.15,249l-10.34,25.17-26.24,2.51,19.86,18-5.82,26.7,22.61-14.06Zm-32-29.16-11.06-10,14.61-1.4,5.76-14,5.8,14,14.61,1.36-11,10.05,3.27,14.86-12.61-7.8L1497.62,307Z"/>
        <polygon class="cls-5" points="1438.39 339.92 1446.44 344.89 1444.35 335.41 1451.39 329 1442.06 328.13 1438.37 319.2 1434.69 328.14 1425.37 329.03 1432.42 335.42 1430.36 344.91 1438.39 339.92"/>
        <polygon class="cls-5" points="1504.23 22.34 1491.11 23.6 1501.04 32.59 1498.13 45.94 1509.44 38.91 1520.76 45.91 1517.82 32.57 1527.73 23.55 1514.61 22.33 1509.4 9.76 1504.23 22.34"/>
        <path class="cls-5" d="M1438.81,165.93l16.09,9.94-4.18-19,14.08-12.83-18.65-1.73-7.39-17.87-7.35,17.89-18.64,1.78,14.1,12.79-4.13,19ZM1424.3,148l10.38-1,4.1-10,4.11,9.95,10.39,1-7.84,7.14,2.33,10.56-9-5.54-9,5.56,2.31-10.56Z"/>
        <path class="cls-5" d="M1532.87,148.36,1527,121.68l19.81-18.05-26.25-2.43-10.4-25.15-10.34,25.17-26.24,2.51,19.86,18-5.82,26.7,22.61-14.06Zm-32-29.16-11.06-10,14.61-1.39,5.76-14,5.8,14,14.61,1.36-11,10.05,3.27,14.86-12.61-7.8-12.59,7.83Z"/>
        <polygon class="cls-5" points="1438.39 217.03 1446.44 222 1444.35 212.52 1451.39 206.11 1442.06 205.24 1438.37 196.31 1434.69 205.25 1425.37 206.14 1432.42 212.54 1430.36 222.02 1438.39 217.03"/>
        <path class="cls-5" d="M1438.81,43l16.09,10-4.18-19,14.08-12.82-18.65-1.74L1438.76,1.6l-7.35,17.89-18.64,1.78,14.1,12.79-4.13,19ZM1424.3,25.15l10.38-1,4.1-10,4.11,10,10.39,1-7.84,7.14,2.33,10.56-9-5.54-9,5.56,2.31-10.56Z"/>
        <polygon class="cls-5" points="1438.39 94.14 1446.44 99.11 1444.35 89.63 1451.39 83.22 1442.06 82.36 1438.37 73.42 1434.69 82.36 1425.37 83.25 1432.42 89.65 1430.36 99.13 1438.39 94.14"/>
        <path class="cls-5" d="M1578.81,526.5l16.1,9.94-4.18-19,14.08-12.83-18.65-1.73-7.39-17.87L1571.42,503l-18.65,1.78,14.11,12.79-4.13,19Zm-14.51-17.9,10.39-1,4.09-10,4.12,10,10.38,1-7.84,7.14,2.33,10.56-9-5.54-9,5.56,2.3-10.56Z"/>
        <path class="cls-5" d="M1579,645.42l16.09,10-4.17-19,14.07-12.82-18.64-1.74L1578.9,604l-7.34,17.89-18.65,1.78L1567,636.44l-4.13,19Zm-14.51-17.89,10.39-1,4.09-10,4.12,10,10.38,1-7.84,7.14,2.33,10.56-9-5.54-9,5.56,2.3-10.56Z"/>
        <polygon class="cls-5" points="1578.4 577.6 1586.44 582.57 1584.35 573.09 1591.39 566.68 1582.07 565.81 1578.37 556.88 1574.7 565.82 1565.38 566.71 1572.43 573.11 1570.36 582.59 1578.4 577.6"/>
        <path class="cls-5" d="M1578.68,407.58l16.09,9.94-4.18-19,14.08-12.82L1586,384l-7.39-17.87L1571.28,384l-18.65,1.77,14.11,12.79-4.13,19Zm-14.52-17.9,10.39-1,4.09-10,4.12,9.95,10.39,1-7.85,7.15,2.33,10.55-9-5.53-9,5.56,2.3-10.57Z"/>
        <polygon class="cls-5" points="1578.26 458.67 1586.3 463.65 1584.21 454.17 1591.25 447.76 1581.93 446.89 1578.23 437.95 1574.56 446.9 1565.24 447.79 1572.29 454.18 1570.22 463.67 1578.26 458.67"/>
        <path class="cls-5" d="M1579.18,841.83l-7.35,17.89-18.64,1.78,14.11,12.79-4.14,19,16.07-10,16.09,9.94-4.18-19,14.08-12.83-18.65-1.73Zm14.52,23.51-7.84,7.14,2.33,10.56-9-5.54-8.94,5.56,2.3-10.56-7.86-7.13,10.38-1,4.1-10,4.11,10Z"/>
        <path class="cls-5" d="M1591,755.33l14.07-12.82-18.65-1.73L1579,722.91l-7.35,17.89-18.64,1.77,14.11,12.79-4.14,19,16.07-10,16.09,9.94Zm-11.92,3.25-8.95,5.56,2.3-10.57-7.86-7.12,10.39-1,4.09-10,4.11,10,10.39,1-7.84,7.15,2.33,10.55Z"/>
        <polygon class="cls-5" points="1578.65 794.73 1574.98 803.67 1565.65 804.56 1572.71 810.95 1570.64 820.44 1578.67 815.45 1586.72 820.42 1584.63 810.94 1591.67 804.53 1582.35 803.66 1578.65 794.73"/>
        <polygon class="cls-5" points="1578.54 696.52 1586.58 701.49 1584.49 692.01 1591.53 685.6 1582.21 684.74 1578.51 675.8 1574.84 684.75 1565.51 685.64 1572.57 692.03 1570.5 701.51 1578.54 696.52"/>
        <path class="cls-5" d="M1578.78,288.82l16.09,9.94-4.18-19L1604.77,267l-18.65-1.73-7.39-17.87-7.35,17.89-18.64,1.78,14.1,12.78-4.13,19Zm-14.51-17.9,10.38-1,4.09-10,4.12,9.95,10.39,1-7.84,7.14,2.32,10.56-9-5.54-9,5.56,2.3-10.57Z"/>
        <polygon class="cls-5" points="1578.36 339.92 1586.41 344.89 1584.32 335.41 1591.36 329 1582.03 328.13 1578.34 319.2 1574.66 328.14 1565.34 329.03 1572.39 335.42 1570.33 344.91 1578.36 339.92"/>
        <path class="cls-5" d="M1578.78,165.93l16.09,9.94-4.18-19,14.08-12.83-18.65-1.73-7.39-17.87-7.35,17.89-18.64,1.78,14.1,12.79-4.13,19ZM1564.27,148l10.38-1,4.09-10,4.12,9.95,10.39,1-7.84,7.14,2.32,10.56-9-5.54-9,5.56,2.3-10.56Z"/>
        <polygon class="cls-5" points="1578.36 217.03 1586.41 222 1584.32 212.52 1591.36 206.11 1582.03 205.24 1578.34 196.31 1574.66 205.25 1565.34 206.14 1572.39 212.54 1570.33 222.02 1578.36 217.03"/>
        <path class="cls-5" d="M1578.78,43l16.09,10-4.18-19,14.08-12.82-18.65-1.74L1578.73,1.6l-7.35,17.89-18.64,1.78,14.1,12.79-4.13,19Zm-14.51-17.89,10.38-1,4.09-10,4.12,10,10.39,1-7.84,7.14,2.32,10.56-9-5.54-9,5.56,2.3-10.56Z"/>
        <polygon class="cls-5" points="1578.36 94.14 1586.41 99.11 1584.32 89.63 1591.36 83.22 1582.03 82.36 1578.34 73.42 1574.66 82.36 1565.34 83.25 1572.39 89.65 1570.33 99.13 1578.36 94.14"/>
      </g>
    </g>
  </g>
</svg>
