<svg id="Layer_1" data-name="Layer 1" xmlns="http://www.w3.org/2000/svg" viewBox="0 0 485 465"><defs><style>.cls-1{fill:#fff;}</style></defs><path class="cls-1" d="M462.25,23.05A6.05,6.05,0,0,0,458,21.29H27a6,6,0,0,0-6,6V86.36a6,6,0,0,0,6,6H90.47c0,.32,0,.65,0,1-.35,25.91-1,74.13,18.5,96.41,8,9.3,19.86,17.45,35.35,24.33-10.76,5.55-18.72,11.7-24.15,18.62-7.53,9.59-11.35,21.57-11.35,35.62,0,24.22,11.77,49.69,35,75.7,23.39,26.21,49.49,39.51,77.58,39.51,18.69,0,37.47-5,55.82-14.94a217.4,217.4,0,0,0,30.54-20.27v89.39a6,6,0,0,0,6,6h57.84a6,6,0,0,0,6-6V92.36H458a6,6,0,0,0,6-6V27.29A6,6,0,0,0,462.25,23.05ZM458,86.36H371.58V437.71H313.74V335.62a225,225,0,0,1-39.4,27.69q-26.31,14.22-53,14.22-39.65,0-73.1-37.5t-33.47-71.71q0-19.08,10.07-31.91t34.77-22.7q-31.85-11.28-46.14-27.88c-20.07-22.92-17-80-17-99.47H27V27.3H458Z"/><path class="cls-1" d="M229.18,201.21q3.9,5.34,14.95,25t11,23s-63,12.16-77.33,20.48-21.44,19.08-21.44,32.24q0,9.21,11.69,16.12t32.5,6.9q24,0,58.48-17.27,27.33-13.71,54.67-36.23v-185H170.61q-5.85,4-7.47,12.29a87.59,87.59,0,0,0-1.63,16.95c0,5.32-.32,48.83,11.36,68.13C197,206.91,214.41,204,229.18,201.21ZM167.51,115.6A81.93,81.93,0,0,1,169,99.8a13.48,13.48,0,0,1,3.67-7.44h135V268.54a286.11,286.11,0,0,1-51.36,33.71c-22,11.05-40.78,16.64-55.79,16.64-12.71,0-22.62-2-29.44-6.07-8.75-5.16-8.75-9.52-8.75-10.95,0-11,6-19.81,18.46-27.05,11-6.41,58.19-16.45,75.45-19.78a6,6,0,0,0,4.86-5.89c0-2.58-.9-6.49-11.81-25.91-7.56-13.42-12.57-21.78-15.33-25.57a6,6,0,0,0-4.85-2.46,6.16,6.16,0,0,0-1.12.11,77.13,77.13,0,0,1-14.55,1.76c-7.67,0-19.69-1.79-35.89-17.11-6.37-11.21-10.14-35-10.11-63.94Z"/></svg>