<svg id="Layer_1" data-name="Layer 1" xmlns="http://www.w3.org/2000/svg" viewBox="0 0 432.14 453.57"><defs><style>.cls-1{fill:#8d8e8d;}</style></defs><path class="cls-1" d="M418,77.84l-.5-60.27H169l.08.12L20.2,18l-.26,60.27,190.55-1.68.06.08,80.8-.3h.39l-.39,110.88v.13s-117.25-4-162-2.56c0,0-87.33-5-110.34,46.79,0,0-24,53.89,34.38,103.44,0,0,64.45,37.35,108.86-23.58,0,0,11-17.45,11.64-45,0,0,12.57-2.64,117.44-1.39V436l60.94,0,.45-358.16ZM96.16,285.16A20.8,20.8,0,1,1,117,264.35,20.81,20.81,0,0,1,96.16,285.16Z"/></svg>