<svg id="Layer_1" data-name="Layer 1" xmlns="http://www.w3.org/2000/svg" viewBox="0 0 432.14 453.57"><defs><style>.cls-1{fill:#fff;}</style></defs><path class="cls-1" d="M423.5,17.52a6,6,0,0,0-6-5.95H169a6.06,6.06,0,0,0-1.21.12L20.19,12a6,6,0,0,0-6,6l-.26,60.27a6,6,0,0,0,6,6L209.6,82.57a6,6,0,0,0,1,.07l75.17-.28-.35,98.8c-20.41-.66-86.8-2.68-130.92-2.68-10.09,0-18.5.11-25,.31-.76,0-2.94-.12-6.22-.12-20.46,0-88.84,3.64-109.66,50.47-.27.61-6.59,15.07-5.22,36,1.26,19.1,9.43,47.53,41.2,74.48a6,6,0,0,0,.87.62A103.63,103.63,0,0,0,98,352.36c27.43,0,51.35-12.93,69.16-37.37a3.39,3.39,0,0,0,.23-.34c.46-.72,10.48-16.94,12.32-42.74,7-.48,23.56-1.18,60.9-1.18,13.32,0,28.36.09,44.79.27V436a6,6,0,0,0,6,6l61,0a6,6,0,0,0,6-6l.44-352.17H418a6,6,0,0,0,6-6ZM352.74,77.84,352.29,436l-60.94,0V265.06c-104.87-1.25-117.44,1.39-117.44,1.39-.67,27.55-11.64,45-11.64,45C117.86,372.38,53.41,335,53.41,335-5,285.48,19,231.59,19,231.59c23-51.76,110.34-46.79,110.34-46.79,44.73-1.46,162,2.56,162,2.56v-.13l.39-110.88h-.39l-80.8.3-.06-.08L19.94,78.24,20.2,18l148.85-.28-.08-.12H417.5l.5,60.27Z"/><path class="cls-1" d="M96.16,243.56A20.8,20.8,0,1,0,117,264.35,20.79,20.79,0,0,0,96.16,243.56Zm0,35.6A14.8,14.8,0,1,1,111,264.35,14.82,14.82,0,0,1,96.16,279.16Z"/></svg>