<svg id="Layer_1" data-name="Layer 1" xmlns="http://www.w3.org/2000/svg" viewBox="0 0 485 450"><defs><style>.cls-1{fill:#8d8e8d;}</style></defs><path class="cls-1" d="M468.27,81.94l0-61.48H254.16l.07,61.46L337,82h0V218.73H202.65l-.31-72.12c0-31.68-3.18-63.25-19.23-88-10.19-15.68-23-29.47-40.5-36.92-30.21-12.89-69-10.58-95.46,9.87a75.06,75.06,0,0,0-18,20.09c-14.93,24.35-16.63,55.6-3.84,81.2,8.18,16.36,21,31.31,37.33,39.92,15.08,7.95,32.47,11.37,49.31,11.46,3.07,0,34.17-.5,34.17-2v48.37s-51.14-8.51-78,25.15c-6,7.54-25,35.67-6.32,73.82C73.5,353.5,106.6,378.17,151,362.06c7.88-2.86,44.82-28.12,43.15-82.45l142.9-.05v156.7l60.89,0V81.92ZM97.57,71.15c44.76-13.43,47,59.73,47,59.73C74.45,145.52,55.18,83.87,97.57,71.15ZM126.5,309.78c-13,6-20.61-14.87-12.38-21.06,11.25-8.45,27.89-6,27.89-6C140.5,295.78,136.65,305.1,126.5,309.78Z"/></svg>