<svg id="Layer_1" data-name="Layer 1" xmlns="http://www.w3.org/2000/svg" viewBox="0 0 300 480"><defs><style>.cls-1{fill:#705038;}.cls-2{fill:#d3d1d1;stroke:#333232;}.cls-13,.cls-16,.cls-17,.cls-2,.cls-23,.cls-24,.cls-25,.cls-3,.cls-8,.cls-9{stroke-miterlimit:10;}.cls-2,.cls-24,.cls-25{stroke-width:1.21px;}.cls-3,.cls-4{fill:#825737;}.cls-3{stroke:#301801;stroke-width:1.23px;}.cls-5{fill:#865c3e;}.cls-6{fill:#825c41;}.cls-7{fill:#5d422c;}.cls-8{fill:#654223;stroke:#280901;}.cls-13,.cls-16,.cls-17,.cls-23,.cls-8,.cls-9{stroke-width:0.87px;}.cls-9{fill:#f49499;stroke:#2b1401;}.cls-10{fill:#c9a27b;}.cls-11,.cls-22{fill:#969595;}.cls-12,.cls-17{fill:#fff;}.cls-13,.cls-21{fill:#3b1e15;}.cls-13{stroke:#190101;}.cls-14{fill:#a37d5a;}.cls-15{fill:#000213;}.cls-16,.cls-23,.cls-24{fill:none;}.cls-16,.cls-17{stroke:#0a0a0a;}.cls-18{fill:#993340;}.cls-19{fill:#58392d;}.cls-20{fill:#815648;opacity:0.51;}.cls-22{opacity:0.72;}.cls-23{stroke:#280303;}.cls-24{stroke:#351802;}.cls-25{fill:#4c4a4a;stroke:#33302d;}.cls-26{fill:#302f2f;}</style></defs><g id="g"><path class="cls-1" d="M176.32,358.29s3.2,64.86-13.28,83.7a19.27,19.27,0,0,0,11.35,1.47s.16,2.24,7.25-40.27l2.23-48.68S173.34,341.35,176.32,358.29Z"/><path class="cls-2" d="M250.07,212.66s30.44,2.84,28.06-24.09c0,0,9.17,9.84.5,23.75,0,0,1.29,2.1,9.63-4,2.78-2-3.9,13.49-10.1,15.15-9.09,2.44,10.45,2.79,15.17-5,0,0-3.76,20.5-27.48,11C265.85,229.48,249.3,220.24,250.07,212.66Z"/><path class="cls-3" d="M106.28,259.2s-11,35.81,10.09,92.56S126.94,442,126.94,442s-11,.46-19.22,24.65c0,0,11.77,3.26,38.31,0,0,0,3.64-15.44-6.6-27,0,0,6.72-40.46,1.92-60.93s.48-60,.48-60Z"/><path class="cls-4" d="M92.89,103.36s30.49-4.49,38.16,51.17,19.32,52.57,27.09,64c0,0,27.53-1.81,42.23-12.1s45.56-10.1,59.28,12.1,28.22,56,9.74,117.38c0,0-15.31,23.52-18.38,60.8s-4.08,41.88-4.08,41.88,5.61,9.7,4.08,20.94c0,0-16.67,4.28-28.49.61,0,0-4-10.81,14.83-22.23,0,0,7.05-32.91,1.68-62.12s-9.07-24.18-4.7-36.6c0,0-12.09,8.39-39,5s-52.38,10.08-77.9-37.6S113.64,264,92.89,219.3l4-64.56Z"/><path class="cls-5" d="M156.17,2.41c3.05,74.22-51.58,86.24-51.58,86.24L123,101C180.91,62.76,156.17,2.41,156.17,2.41Z"/><path class="cls-6" d="M83.52,87.87s-16-36.42,21.41-81.4c0,0-44.1,23-46.3,82.13C58.63,88.6,72.68,96.41,83.52,87.87Z"/><path class="cls-7" d="M156.17,2.41a110.56,110.56,0,0,1-9.25,50.26C135.4,78,108.3,87.53,108.3,87.53c8.42,5.65,7,9.32,31.54-13.12C165.08,51.27,156.17,2.41,156.17,2.41Z"/><path class="cls-7" d="M104.93,6.47S70.51,33.85,66.76,72.11l.47,19.36-8,3.63S56.37,67.8,69.9,44.18,95.48,11.16,104.93,6.47Z"/><path class="cls-7" d="M132.21,81.28s4,2.37,3.93,9.5l4-4s-1.82-6.39-5.1-8l-3.22-.43Z"/><path class="cls-7" d="M149.52,61.6s4.47.57,4.68,4.72l2.41-5.78s-4.49-5.71-6.38-4.31Z"/><path class="cls-7" d="M155.13,40.38s5-1.51,5.78,1.84l.42-5.49s-3.22-2.58-5.75.22S155.13,40.38,155.13,40.38Z"/><path class="cls-7" d="M65.7,64.82a16.67,16.67,0,0,1,14.55-1.9l.57-5.33s-9.75-1.31-15.16,4.19S65.7,64.82,65.7,64.82Z"/><path class="cls-7" d="M74.23,43.16a12.06,12.06,0,0,1,9.91-.35l1.49-4.23s-7.38-2.19-12.17,2.84S74.23,43.16,74.23,43.16Z"/><path class="cls-8" d="M129.17,108.24s12.6.57,21,20.52,11.44,19.86,16.78,23.87,7,11.63,6.88,14.8-22.29,5.43-22.29,5.43l-17.92-40.49Z"/><path class="cls-9" d="M132.11,121.53s11.5,7.85,12.18,18.93,8.13,15,12.36,15.32S171.48,158.11,173,163s2.13,14.83-7.68,15.68-19.19-2.49-26.46-15.79-2.14-14.77-6.85-24C132,138.85,132.36,124.68,132.11,121.53Z"/><path class="cls-8" d="M49,108.37S38.71,113.71,32.46,133c-5.7,17.56-19.38,27.22-21.76,28.79l-.35.23S4,178,15,175.07s27.74-23.76,27.74-23.76l4-17.62Z"/><path class="cls-9" d="M44.67,131.17s-4.8,1.93-10,18c0,0-5,7.8-16.73,9.17-15.37,1.79-14.58,25.38-.28,24.42,6.85-.46,5.64-3.7,19.81-8.57,10.43-3.58,8.36-37.45,8.36-37.45Z"/><path class="cls-4" d="M139.44,192.46s-9.32-33.06-7.84-48.71.29-26.46-.1-27.86-2.86-20.73-26.5-29.4c0,0-2.22-15.27,3.32-25.3,0,0-11.94,1.7-12.82,18.68S101,61,66.5,66.66c0,0,8.74,3.64,10.57,5.8,0,0-15.34-3.16-25.63,8,0,0,10.15,1.71,16.4-.54,0,0-15.55,4.3-16.54,16.27,0,0,12.91-1.77,23.39-8.46,0,0-24.31,6-29.38,27.84-4,17.15,6,37.67,7.5,45.35s.88,10.39.94,14.78,4.61,15.81,13.16,18.63c0,0,3.91,10.7,18.71,8,0,0,9.6-8.55,23.65,39.91l27.85-24Z"/><path class="cls-10" d="M111.34,181.3s13,39.47,14.7,73.71c1.47,29.57,24.35,53.6,24.35,53.6s81.76,23.55,100.71-23.12c0,0,9.65,35.63-16.77,53.69-19.42,13.26-74.91,7.3-89.05-1.1-13.11-7.8-20.74-14.36-32.55-41.74s-7.87-22.69-8.75-32.21-2.37-22.6-3.73-26.86l-5.48-36.82S95.9,183.42,111.34,181.3Z"/><path class="cls-2" d="M79.25,202.55s3.15,15.88-9.82,23.53c0,0,8.38.52,10.67-3.56s4.56,22.78-9.33,32.3c0,0,18.75,2.91,23.71-23.58,0,0,5.58,6.92,2.26,12.68-4.1,7.14,15.38-12.7,3.14-42l-1.81-6Z"/><path class="cls-11" d="M96,202.2s5.34,9,3,24.27c0,0,0,6.91-7.29-5.32,0,0,2.6,26.56-19.24,32.91,0,0,16.91,2.21,21.33-23.72A10.67,10.67,0,0,1,98,241.66s5.45-6.28,5.41-22.62c0-15.46-6.48-21.66-6.48-21.66Z"/><path class="cls-11" d="M78.86,204.68S90.21,208.46,96,202.2l2.37-4.78-.68-1.34s-4.4,4.33-12.77,5.31-6.36.27-6.36.27Z"/><path class="cls-12" d="M56.19,160.26s-1.39.77-2.58,5.86S53,181.79,59.4,188.84c0,0,4.58,4.36,7.51,5.47,0,0,2.17,8.72,15.71,8.35s28.73-19.08,30.35-24.73c0,0-1.16-11.44-16.91-16.27C96.06,161.66,70.16,154.29,56.19,160.26Z"/><path class="cls-13" d="M55.91,157.44s21.33-7.06,42.16,2.47c0,0,.87,14.9-22,19.38C76.11,179.29,56.81,176.61,55.91,157.44Z"/><path class="cls-14" d="M106.56,188.09s14.64,34.06,13.6,69.22,28.13,57.22,28.13,57.22-12.19,16.37-25.91.52c0,0,11.81,22.69,35.32,27.53l9.07,1.89A316.58,316.58,0,0,1,146.66,298S134,285.62,129.17,264.13s-1.44-51.24-11.73-72.13l-6.1-10.7Z"/><path class="cls-15" d="M103.1,109.82s5.07-4.56,17.09,4.53C120.19,114.35,112.75,98.64,103.1,109.82Z"/><path class="cls-15" d="M47.21,116.81s4-9.44,16.73-9.82C63.94,107,50.83,99.92,47.21,116.81Z"/><path class="cls-1" d="M112.77,179.46s12.68-11.9,16.4-22.46c0,0,3.12,10.11-28.08,37.51Z"/><path class="cls-2" d="M91.15,98.2s-9.93,2-16.14,15.41c0,0-3.68-6,3.19-17.1,0,0-10.94,1.64-14.62,8.7,0,0,1.07-11.33,11.11-17.5a98.92,98.92,0,0,1-23.18,9.34S49.25,84.72,67.84,79.9c0,0-13.73,2.73-16.63,1.39,0,0,7.71-12.37,25.86-8.83,0,0-10.2-5.37-12-6.13s24.18-7.07,29.3,13c0,0,.09-17.12,15.2-18.86,0,0-6.24,7.79-3.35,25.58C106.21,86.05,120.38,93.11,91.15,98.2Z"/><path class="cls-16" d="M75.56,179.19S74.48,190.65,83,192.3s19.66-10,21.62-17.8l-1.3-.17a8.52,8.52,0,0,1,3.27.43"/><path class="cls-17" d="M78,189.25s-1.48,4.22-8,3-12.1-6.94-12.36-17.16l-1.47.88,2.5-1.55"/><path class="cls-18" d="M11,162.07s2.5-2.9,8.38-3.47,13.9-5.07,16.13-10.9c1.86-4.88,4.26-11.62,8.9-15.9l.88,4.91A78.55,78.55,0,0,1,45,154s.22-10.35-1.68-12.69-7.27,10.32-8.14,12.53-6.59,5.27-14.57,5.9S11,162.07,11,162.07Z"/><path class="cls-19" d="M60.73,156.86s16.58-5.49,32.77,1.92c0,0,.68,11.58-17.07,15.07C76.43,173.85,61.43,171.77,60.73,156.86Z"/><path class="cls-20" d="M66.74,155.93s9.83-3.26,19.44,1.14c0,0,.4,6.86-10.13,8.93C76.05,166,67.16,164.77,66.74,155.93Z"/><path class="cls-21" d="M55.91,157.44S60,146.65,68.85,139.79"/><path class="cls-21" d="M98.07,159.91s1.77-12.31-2.4-18.12C95.67,141.79,98.87,155.34,98.07,159.91Z"/><path class="cls-22" d="M53.33,177.11s4.05,12.81,14.27,15.77c0,0,3,7.39,15.48,6.13s22.62-10.28,29.24-24.53a7.55,7.55,0,0,1-1,6.82c-7,10.18-14.35,21.35-28.72,21.36s-12.79-4.23-15.71-8.35A23,23,0,0,1,53.33,177.11Z"/><path class="cls-23" d="M56.19,160.26s-3.64,2.48-3.64,13.32,7.27,19.28,14.36,20.73c0,0,1.23,9.16,15.71,8.35s19.85-8.59,30.15-23.2c0,0,2.74-10.14-14.89-17.19"/><path class="cls-11" d="M60.55,185.7S67.42,194.53,75,192c0,0,4.29-2.38,2-3.63C77,188.34,71.57,194.08,60.55,185.7Z"/><path class="cls-11" d="M77.87,188s1.6,4.43,8,4,14.83-9.49,16.56-13.37C102.45,178.6,92,193.84,77.87,188Z"/><path class="cls-14" d="M209.35,313.54s-3.26,19.15-9,24.07c0,0,54.39,10.72,50.71-52.12,0,0,11.07,47.06-25.26,57.21s-30.73,1.28-32-4.3L205.3,314Z"/><path class="cls-18" d="M133.84,136.77s1.5-8.82,6.3-3.11c3.31,3.94-2.07,16.79,12.93,24.26,0,0,12.71,1.25,18.1,5a4.17,4.17,0,0,1,1.78,2.41s.79-5-6.86-7.4A47,47,0,0,0,155,156.11c-3.42-.23-9.87-6-10.36-11.37s-2.18-11.87-5.24-15.3-5.12-6.09-6.87-6.93v16.3l1.52,4a26.12,26.12,0,0,1,.66,4.25,20.73,20.73,0,0,0-.42-7.08C133.41,137,133.84,136.77,133.84,136.77Z"/><path class="cls-1" d="M104.55,301s8.66,31.54,24.62,42c0,0,3.09,30.17,6.32,46.63s4.08,40.68,0,49.83l2.79.11s7.56-36.69,1.68-63c0,0-3.77-27.65-.31-41.66,0,0-10.84-8.61-17.27-19.93s-16.8-32.21-17.83-41.31-.57-1.21-.57-1.21S103.65,294.48,104.55,301Z"/><path class="cls-4" d="M135.49,257.31s.68,11.19,8.35,32.77,19.1,52.61,28.39,61.68,8.26,36.94,7.79,43.5-5,45.41-7.79,51.85c0,0,9.1,1.46,13-.47,0,0,.63-23.17,2-33.08s2.84-22.77,8.85-31.72,9-26.51,2.18-34.88c-5-6.15-6.48-5.86-1.77-15s16.73-29.31,14.11-49.54"/><path class="cls-1" d="M209.62,304.19l1.25-18.45c-3.14,2.31-4.59,14.48-7.17,22.21-2.89,10.41-8,18.06-18.19,32.11,0,0-5,7.2,10.85,19,0,0,4.5,7.27-8.21,28.15s-2.89,59.43-2.89,59.43.53-44.32,7.43-58.07,12.28-26.51,8.95-34.06S203.67,318.09,209.62,304.19Z"/><path class="cls-1" d="M207.52,202.71s43.6-.72,55.26,35.91,8.74,79.1,0,96.16-20,48.58-15.85,103.8c0,0,4.16-47.14,5.76-55.23s10.1-33.52,16.7-47.45c9.24-19.48,10.92-53,7.82-68.95s-7.69-40.08-26.46-58.35S214.67,199,207.52,202.71Z"/><path class="cls-1" d="M131.5,115.89s-2.06,21.24-2.33,43.12c-.25,19.67,7.5,60.38,40.66,64.07,2.29.25-14.09-5.11-11.69-4.56l-7.41-8C147.4,207,138.12,198.81,134,169A282.85,282.85,0,0,1,131.5,115.89Z"/><polygon class="cls-19" points="158.14 218.52 170.91 223.5 162.8 218.52 158.14 218.52"/><path class="cls-11" d="M278.13,188.57s8.33,9.22,0,24.11c0,0,4.16,1,9.86-3.49,0,0-2.38,10.47-11.83,15.33,0,0,8.3,3.58,16.65-4.75,0,0-4.05,11.47-13.67,11.47-13.34,0-13.29-3.4-13.29-3.4s14.76,3.7,20.64-.89c0,0-14.69,2.67-15.28-3.86,0,0,13.07-5.05,13.71-9.28,0,0-17.23,6.05-16,2.29.6-1.85,11.89-9,10.7-19.37C278.63,188.37,278.13,188.57,278.13,188.57Z"/><path class="cls-11" d="M67.51,80.74S53.27,83,52.06,95.1c0,0,7-8.67,11.88-11.23S67.51,80.74,67.51,80.74Z"/><path class="cls-11" d="M64.49,102.86s5.13-10.75,11-13.88l-.75-1.27A26.79,26.79,0,0,0,64.49,102.86Z"/><path class="cls-11" d="M79.05,95.83,79.77,97s-5.23,8.24-4.77,15.24C75,112.25,72.38,106.23,79.05,95.83Z"/><path class="cls-11" d="M95,82.84s3.1-18.55,14.32-22c0,0-5.81-.51-12.71,9C96.58,69.9,93.78,78.5,95,82.84Z"/><path class="cls-11" d="M66.6,66.2s8.07.8,14.22,5.66l2.38,1.72s-.5.83-3.65-.41S66,66.24,66,66.24Z"/><path class="cls-24" d="M109.34,88.3S124,93.91,128,105.8c0,0,6.66,11.87,4,32S139,191.54,141.28,197s14.6,20,16.86,21.55,27.74-4.64,31.2-6.51c5-2.7,14.65-6.36,19.9-10.17s23.51-10.14,41.51,6.76,25.36,45.26,27.28,64-.32,46.88-13.38,74.37-15.92,62.82-15.63,69-2.15,21.88-2.15,21.88-6.27,3.17-9.52.1c0,0,1.91-15.71,3.09-22.87s1.48-28.78-2.41-44.41-8.9-24-3.7-31.44c0,0-16.12,9.34-33.72,7.78"/><path class="cls-24" d="M166.77,344.47s-27.91,1.72-47.91-35.86c0,0-14.46-23-14.88-44.48l-3.48-24.9"/><path class="cls-24" d="M142.2,269.35s1.91,42.85,26.43,78c0,0,10.52,8.61,11.45,31s-6.83,66.71-7.85,68.79c0,0,7,2.54,13-.47,0,0,0-42.8,6-54.42s13.31-24,10.7-36.94-.78-19.46,2.39-34.14,7-17.89,6.56-35.4"/><path class="cls-24" d="M176.32,358.29s3.3,69.27-13.28,83.7a18.43,18.43,0,0,0,10,1.75"/><path class="cls-24" d="M59.86,94.22a36.21,36.21,0,0,0-14.55,21.33s-2.81,9.6,3.66,32.89c0,0,5,13.62,4.59,16.35"/><path class="cls-24" d="M251.1,285.49s9.73,39.08-16,53"/><path class="cls-25" d="M163,442s-9.86,4.74-9.78,18.55c0,0,5.55.88,12.51,1.58s6.93-17.61,6.93-17.61S165,443.87,163,442Z"/><path class="cls-25" d="M126.94,442s-10.75-.26-19.22,24.65c0,0,12.87,3.05,38.31,0,0,0,3.73-16.56-6.6-27C139.43,439.66,132,445.59,126.94,442Z"/><path class="cls-25" d="M172.23,447.11a33.74,33.74,0,0,0-19,28.13s17.16,5.29,43,0c0,0,3.43-14.21-11-28.6C185.26,446.64,175.75,451.16,172.23,447.11Z"/><path class="cls-25" d="M237.35,437.9s-15.45,5.9-14.83,22.23c0,0,17.33,4.06,32.08,0,0,0,2.66-13-7.67-21.55C246.93,438.58,238.76,441.22,237.35,437.9Z"/><path class="cls-26" d="M166.32,476.71s-.09-12.61,7.77-20.28c0,0-1.84,14.33-1.75,20.59Z"/><path class="cls-26" d="M121.62,468s.38-11,5.58-17.08c0,0-.6,12.44,0,17.08Z"/><path class="cls-26" d="M232.36,461.59S233,450.23,238,446c0,0-2.34,12.74-.87,15.94Z"/><path class="cls-26" d="M165.77,447.64s-6.38,7.39-7.39,11.78l7.39-8.21Z"/><path class="cls-24" d="M108.3,87.53S124,81.67,134.89,70s22.84-32,21.28-67.61c0,0,8,15.69,4.67,40.35s-13.45,42.39-36,57.06"/><path class="cls-24" d="M80.14,65.37a79,79,0,0,1,8.94-34.74s8.43-18.95,15.85-24.16h0S88.9,13.6,75.41,35.2s-16,39.2-16,39.2"/><line class="cls-24" x1="58.63" y1="81.34" x2="58.63" y2="83.56"/></g></svg>