<svg id="Layer_1" data-name="Layer 1" xmlns="http://www.w3.org/2000/svg" xmlns:xlink="http://www.w3.org/1999/xlink" viewBox="0 0 1600 900"><defs><style>.cls-1{fill:none;}.cls-2{clip-path:url(#clip-path);}.cls-3{fill:url(#linear-gradient);}.cls-4{fill:url(#linear-gradient-2);}.cls-5{fill:url(#linear-gradient-3);}.cls-6{fill:url(#linear-gradient-4);}.cls-7{fill:url(#linear-gradient-5);}.cls-8{fill:url(#linear-gradient-6);}.cls-9{fill:url(#linear-gradient-7);}.cls-10{fill:url(#linear-gradient-8);}.cls-11{fill:#809aaa;}.cls-12{fill:url(#linear-gradient-9);}.cls-13{fill:url(#linear-gradient-10);}.cls-14{fill:url(#linear-gradient-11);}.cls-15{fill:url(#linear-gradient-12);}.cls-16{fill:url(#linear-gradient-13);}.cls-17{fill:url(#linear-gradient-14);}.cls-18{fill:url(#linear-gradient-15);}.cls-19{fill:url(#New_Gradient_Swatch_copy_25);}.cls-20{fill:#999292;}.cls-21{fill:#8e8e8e;}</style><clipPath id="clip-path"><rect class="cls-1" width="1600" height="900"/></clipPath><linearGradient id="linear-gradient" x1="810.64" y1="1073.78" x2="806.92" y2="-122.63" gradientUnits="userSpaceOnUse"><stop offset="0.46" stop-color="#c8e8ed"/><stop offset="0.46" stop-color="#c0e5ee"/><stop offset="0.46" stop-color="#aaddf3"/><stop offset="0.46" stop-color="#87d0f9"/><stop offset="0.99" stop-color="#87d0f9"/></linearGradient><linearGradient id="linear-gradient-2" x1="721.65" y1="295.14" x2="864.07" y2="152.61" gradientUnits="userSpaceOnUse"><stop offset="0.28" stop-color="#7fcdec"/><stop offset="0.32" stop-color="#83ceed"/><stop offset="0.35" stop-color="#8ed3ee"/><stop offset="0.39" stop-color="#a1daf1"/><stop offset="0.43" stop-color="#bce5f5"/><stop offset="0.46" stop-color="#dff2fa"/><stop offset="0.49" stop-color="#fff"/></linearGradient><linearGradient id="linear-gradient-3" x1="641.62" y1="303.67" x2="814.34" y2="130.83" gradientTransform="matrix(0.97, -0.09, 0.07, 0.77, 0.49, 127.86)" gradientUnits="userSpaceOnUse"><stop offset="0.07" stop-color="#7fcdec"/><stop offset="0.38" stop-color="#7fcdec"/><stop offset="0.45" stop-color="#89d1ee"/><stop offset="0.56" stop-color="#a5dcf2"/><stop offset="0.7" stop-color="#d3eef8"/><stop offset="0.82" stop-color="#fff"/></linearGradient><linearGradient id="linear-gradient-4" x1="1120.27" y1="408.93" x2="1290.82" y2="53.27" gradientUnits="userSpaceOnUse"><stop offset="0.14" stop-color="#87d0f9"/><stop offset="0.24" stop-color="#90d3f7"/><stop offset="0.36" stop-color="#a4dbf1"/></linearGradient><linearGradient id="linear-gradient-5" x1="765.77" y1="-67.62" x2="796.07" y2="1757.01" gradientUnits="userSpaceOnUse"><stop offset="0.2" stop-color="#72cddf"/><stop offset="0.31" stop-color="#76cedf"/><stop offset="0.4" stop-color="#81d0de"/><stop offset="0.47" stop-color="#8dd3dd"/></linearGradient><linearGradient id="linear-gradient-6" x1="-199.51" y1="785.9" x2="829.86" y2="273.62" gradientUnits="userSpaceOnUse"><stop offset="0.01" stop-color="#36a572"/><stop offset="0.28" stop-color="#49ae7c"/><stop offset="0.78" stop-color="#74c492"/></linearGradient><linearGradient id="linear-gradient-7" x1="916.08" y1="620.96" x2="1628.1" y2="439.66" gradientUnits="userSpaceOnUse"><stop offset="0" stop-color="#65c2a3"/><stop offset="0.23" stop-color="#62c1a1"/><stop offset="0.42" stop-color="#57be9c"/><stop offset="0.6" stop-color="#46b992"/><stop offset="0.77" stop-color="#2db285"/><stop offset="0.78" stop-color="#2bb184"/></linearGradient><linearGradient id="linear-gradient-8" x1="217.31" y1="613.85" x2="733.22" y2="482.49" gradientUnits="userSpaceOnUse"><stop offset="0" stop-color="#34ae5c"/><stop offset="0.12" stop-color="#37b16c"/><stop offset="0.38" stop-color="#3cb789"/><stop offset="0.61" stop-color="#3fbb9c"/><stop offset="0.78" stop-color="#40bca2"/></linearGradient><linearGradient id="linear-gradient-9" x1="325.66" y1="446.53" x2="343.09" y2="398.61" gradientUnits="userSpaceOnUse"><stop offset="0.15" stop-color="#119da1"/><stop offset="0.4" stop-color="#3db1b4"/><stop offset="0.66" stop-color="#63c3c4"/><stop offset="0.79" stop-color="#72caca"/></linearGradient><linearGradient id="linear-gradient-10" x1="385.75" y1="442.3" x2="397.14" y2="410.97" xlink:href="#linear-gradient-9"/><linearGradient id="linear-gradient-11" x1="358.63" y1="480.08" x2="381.4" y2="417.47" xlink:href="#linear-gradient-9"/><linearGradient id="linear-gradient-12" x1="957.48" y1="536.1" x2="986.75" y2="455.63" gradientUnits="userSpaceOnUse"><stop offset="0.1" stop-color="#1daead"/><stop offset="0.2" stop-color="#35b6b5"/><stop offset="0.34" stop-color="#50bfbe"/><stop offset="0.49" stop-color="#63c5c5"/><stop offset="0.63" stop-color="#6ec9c9"/><stop offset="0.79" stop-color="#72caca"/></linearGradient><linearGradient id="linear-gradient-13" x1="1280.58" y1="506.07" x2="1297.12" y2="460.61" gradientUnits="userSpaceOnUse"><stop offset="0.15" stop-color="#48bda2"/><stop offset="0.52" stop-color="#63c5bc"/><stop offset="0.79" stop-color="#72caca"/></linearGradient><linearGradient id="linear-gradient-14" x1="1287.95" y1="482.3" x2="1298.09" y2="454.42" gradientUnits="userSpaceOnUse"><stop offset="0.19" stop-color="#42bca3"/><stop offset="0.57" stop-color="#63c6be"/><stop offset="0.79" stop-color="#72caca"/></linearGradient><linearGradient id="linear-gradient-15" x1="84.7" y1="155.26" x2="38.62" y2="232.11" gradientUnits="userSpaceOnUse"><stop offset="0.2" stop-color="#7fcdec"/><stop offset="0.29" stop-color="#7bcbe9"/><stop offset="0.38" stop-color="#70c4e0"/><stop offset="0.47" stop-color="#5db9d1"/><stop offset="0.47" stop-color="#5cb9d1"/></linearGradient><linearGradient id="New_Gradient_Swatch_copy_25" x1="-0.35" y1="389.54" x2="30.91" y2="710.36" gradientUnits="userSpaceOnUse"><stop offset="0.02" stop-color="#749a23"/><stop offset="0.18" stop-color="#749a23"/><stop offset="0.19" stop-color="#719924"/><stop offset="0.27" stop-color="#53932a"/><stop offset="0.34" stop-color="#418e2f"/><stop offset="0.39" stop-color="#3a8d30"/><stop offset="0.41" stop-color="#328b32"/><stop offset="0.48" stop-color="#178438"/><stop offset="0.54" stop-color="#06803c"/><stop offset="0.59" stop-color="#007f3d"/><stop offset="0.69" stop-color="#006a2a"/><stop offset="0.78" stop-color="#005416"/><stop offset="0.86" stop-color="#005022"/><stop offset="1" stop-color="#004740"/></linearGradient></defs><g class="cls-2"><rect class="cls-3" x="-8.88" width="1634.03" height="538.02"/><path class="cls-4" d="M719.88,255.3s1.43-9.49,19.57-16,33.4-10,49.15-2.49,12.41,24.47,9.07,26.47c-6.49,3.88-20.46,9-57.74,4C717.5,264.29,719.88,255.3,719.88,255.3Z"/><path class="cls-5" d="M636.68,248.75s5-14.31,40.08-22.7,57.93-12.5,77.52,1.28,9.81,36.87-4,39.76S679,272.3,644.36,263C644.36,263,632,258.76,636.68,248.75Z"/><path class="cls-6" d="M1092,303.89s2.75-16,37.68-26.89,64.34-16.8,94.68-4.2,23.9,41.18,17.46,44.54c-12.49,6.52-39.4,15.1-111.22,6.72C1087.39,319,1092,303.89,1092,303.89Z"/><path class="cls-7" d="M-185.11,305.24c57.87-51.32,100.91-72,124.72-82C-33.62,212.06,8.3,194.54,63,193.68c108.27-1.71,188.91,63,234.35,99.47a519,519,0,0,1,84,85.15,260.81,260.81,0,0,1,37.1-17.36c17.86-6.69,82.37-28.57,176.39-5.48,89.89,22.07,106,60.51,191,102.14,10.25,5,127.82,61,268.44,52.67,74.2-4.42,98.61-20.68,172.91-42.07,16.41-4.72,61-14.66,150.65-33.3,36.79-7.65,72.28-14.74,120-11.87,9.23.56,15.46,1.28,27.07,2.62,68.39,7.91,100.45,19.45,140.07,26.18,79.45,13.48,84.17-10.27,133.72,3.92,30.91,8.86,74.43,31.1,118.28,94.24l-2282.14-7.53C-328.82,471.59-271.56,381.9-185.11,305.24Z"/><path class="cls-8" d="M-2.54,506.1C78.25,442.57,132.62,437.73,167.91,446c34.19,8,64.57,26.84,135.72,44,14.54,3.5,31.28,5.78,52.28,6,67.24.77,94-15.9,159.07-6.48,23.41,3.38,56.44,13.07,94.13,42.31A470,470,0,0,1,966.91,549c-331.67-.34-956.64-7.66-1288.3-8,12.4-27.51,28.29-44.47,41.46-55.09C-216.06,434.41-105.95,443.3-2.54,506.1Z"/><path class="cls-9" d="M949.91,550a212.6,212.6,0,0,1,44.7-17.15,217.84,217.84,0,0,1,95.09-2.8c32.38-25.26,79.14-26.41,109.72-1.15,11.69-21.82,40.46-15.51,79.13.86,37.77-12.91,74.64-.28,86.33,6.61,74.67.13,112.13,8.88,112.14,9.83C1477.05,548.26,1301.27,544.06,949.91,550Z"/><path class="cls-10" d="M194.91,556s42.26-36.75,126.79-19c32.38-25.26,79.14-26.41,109.72-1.15,11.69-21.82,40.46-15.51,79.13.86,37.77-12.91,74.64-.28,86.33,6.61,62-21.25,63,4.59,71,8.61,36-9.76,59.35,4,59.35,4Z"/><path class="cls-11" d="M342,468.11a23,23,0,0,0,2.89,10.7,14.42,14.42,0,0,0,12.9,7.44l-.25-17.13,4.66.26v9.48a7.91,7.91,0,0,0,5.94-.95c3.88-2.34,5.12-7.19,5.32-8l1.95.07-1.18,4.66a6,6,0,0,0,5.34,1c3.34-1.08,4.72-4.91,4.88-5.39h1.45s-.94,10.81-12.32,7.2c-2.07,3.79-6.92,7.82-11.39,5.8.26,11.76,1.76,57.77,1.76,57.77h-5.25q-.45-25.23-.91-50.45c-1.31-.07-7.53-.57-12.49-7.25-4.66-6.27-5.06-13.74-5.12-15.57Z"/><path class="cls-11" d="M399,435.45a8.13,8.13,0,0,1-3.19,7.54c-3-1-2-2-2-2s4.82-4.89,3.41-5.45S399,435.45,399,435.45Z"/><path class="cls-12" d="M310.32,418.36s27.84-15.95,44.63,0c14.27,15.57-.37,22.21-10,21.59-14.83-.23-33-1.94-33-1.94S291.86,433.21,310.32,418.36Z"/><path class="cls-13" d="M375.65,423.89s18.3-10.4,29.34,0c9.38,10.15-.25,14.48-6.56,14.08-9.75-.16-21.69-1.27-21.69-1.27S363.51,433.57,375.65,423.89Z"/><path class="cls-11" d="M331.71,439.45a8.15,8.15,0,0,0,3.2,7.54c3-1,2-2,2-2s-4.83-4.89-3.42-5.45S331.71,439.45,331.71,439.45Z"/><path class="cls-14" d="M335.79,443.7s40.24-19.59,64.51,0c20.63,19.12-.54,27.28-14.43,26.52-21.43-.29-47.68-2.39-47.68-2.39S309.11,461.94,335.79,443.7Z"/><path class="cls-11" d="M950.35,517.74a7.18,7.18,0,0,0,1.8,4.44c2.81,3.2,7.51,3.1,8,3.09l-.15-7.11,2.89.1v3.94a7.18,7.18,0,0,0,3.69-.39,5.79,5.79,0,0,0,3.3-3.33l1.21,0-.73,1.93a5.18,5.18,0,0,0,3.31.41,4.56,4.56,0,0,0,3-2.24h.9s-.59,4.49-7.65,3c-1.29,1.57-4.3,3.24-7.07,2.4.16,4.88,1.09,24,1.09,24h-3.26l-.57-20.94a12.63,12.63,0,0,1-7.75-3,9.31,9.31,0,0,1-3.17-6.46Z"/><path class="cls-15" d="M946.52,507.61s25-8.14,40.05,0c12.8,7.93-.34,11.32-9,11-13.31-.12-29.6-1-29.6-1S930,515.18,946.52,507.61Z"/><path class="cls-11" d="M1265.49,495.61a11.41,11.41,0,0,0,2.47,6.67c3.89,4.8,10.38,4.65,11.07,4.62l-.21-10.66,4,.16v5.9a9,9,0,0,0,5.09-.59,8.51,8.51,0,0,0,4.57-5l1.67,0c-.34,1-.68,1.94-1,2.91a6.62,6.62,0,0,0,4.57.61,6.39,6.39,0,0,0,4.19-3.35h1.25s-.81,6.73-10.57,4.48c-1.78,2.36-5.94,4.87-9.77,3.61.22,7.32,1.51,36,1.51,36h-4.51l-.78-31.41a16.63,16.63,0,0,1-10.71-4.52,14.58,14.58,0,0,1-4.39-9.69Z"/><path class="cls-16" d="M1260.19,480.41s34.51-12.2,55.34,0c17.69,11.91-.47,17-12.38,16.52-18.39-.18-40.9-1.49-40.9-1.49S1237.3,491.77,1260.19,480.41Z"/><path class="cls-17" d="M1275.45,466.56s21.16-7.48,33.93,0c10.85,7.31-.29,10.42-7.59,10.13-11.27-.11-25.08-.91-25.08-.91S1261.41,473.53,1275.45,466.56Z"/><polyline class="cls-18" points="122.5 183.1 122.5 183.1 12.21 185.27"/><line class="cls-1" x1="797.63" y1="634.02" x2="1015.83" y2="624.55"/><path class="cls-19" d="M19.84,597.06l-.06,0,.07,0C20,597.2,20,597.2,19.84,597.06Z"/><path class="cls-20" d="M791.36,548.63a11.42,11.42,0,0,0-.61,1.46C791,549.61,791.16,549.12,791.36,548.63Z"/><path class="cls-21" d="M1167.68,444.62l0,0v0Z"/></g></svg>