<?xml version="1.0" encoding="utf-8"?>
<!-- Generator: Adobe Illustrator 25.2.0, SVG Export Plug-In . SVG Version: 6.00 Build 0)  -->
<svg version="1.1" id="Layer_1" xmlns="http://www.w3.org/2000/svg" xmlns:xlink="http://www.w3.org/1999/xlink" x="0px" y="0px"
	 viewBox="0 0 968.1 1079.7" style="enable-background:new 0 0 968.1 1079.7;" xml:space="preserve">
<style type="text/css">
	.st0{fill:#2DB24A;}
	.st1{fill:url(#SVGID_1_);}
	.st2{fill:#004104;}
	.st3{fill:url(#SVGID_2_);}
	.st4{fill:#7F4E28;}
	.st5{fill:#996039;}
	.st6{fill:#964A17;}
	.st7{opacity:0.4;fill:#706E69;enable-background:new    ;}
	.st8{fill:url(#SVGID_3_);}
	.st9{fill:url(#SVGID_4_);}
</style>
<path class="st0" d="M564.1,990.9c0,0-13-8.9-17.6-8.2s-0.2-9.5,12.5-1.1C562,983.8,563.9,987.2,564.1,990.9z"/>
<path class="st0" d="M566.4,989.5c0,0-7.2-13.6-12-15.4s4.8-9.8,12,4.2C568.2,981.8,568.2,986,566.4,989.5z"/>
<path class="st0" d="M568.7,990.9c0,0,6.1-14.9,18.4-13.4S577.1,983.5,568.7,990.9z"/>
<linearGradient id="SVGID_1_" gradientUnits="userSpaceOnUse" x1="426.7491" y1="595.1805" x2="380.6691" y2="518.3306" gradientTransform="matrix(1 0 0 -1 0 1080)">
	<stop  offset="0.2" style="stop-color:#7FCDEC"/>
	<stop  offset="0.29" style="stop-color:#7BCBE9"/>
	<stop  offset="0.38" style="stop-color:#70C4E0"/>
	<stop  offset="0.47" style="stop-color:#5DB9D1"/>
	<stop  offset="0.47" style="stop-color:#5CB9D1"/>
</linearGradient>
<polyline class="st1" points="464.5,512.7 464.5,512.7 354.3,514.8 "/>
<path class="st2" d="M917.6,431.4c-10.8-10.5-9.2-6.1-3.8-16.2c-5.1,0.3-10.9-0.5-16-0.3c0.5-4.6,6.2-7.9,7.7-12.6
	c1.9-6-2.1-10.9-5.1-16.4c-9-16.7-1.2-31-1.2-48.1c0-3.1,0.3-6.2,0.8-9.2H390c-4.5,0.9-9.9,1.5-15.9,2.6
	c-33.6,6.6-36.7,24.2-63.5,35.7c0.7,0,0.9,0.2,0.8,0.6c-7.7,2.6-20.7,5.7-26.2,9.9c-4.7,3.6-3.4,14.3-9.8,16.3
	c-7.5,2.3-19.5-4.9-28.1-4.7c-9.1,0.2-19.5,4.1-27.2,7.6v7.7c0.7,4.4,0.7,8.9,0,13.4v61.1c5.2,2.8,12.8,4.7,15.6,2.6
	c-0.2,0.6-0.1,1.4,0.3,1.9c3.2-0.8,9.5-0.6,12.6-1.7c2.8,4.6,16.8,11.6,24.9,9.9l0.2-0.1c1.2-1.6,2.4-3.2,3.4-4.9
	c0.6,0.6,1.3,1.2,1.9,1.7c-1.4,1.6-3.3,2.7-5.3,3.2c-0.3,0.4-0.6,0.7-0.9,1.1l-0.9,1.1c2.9,0.5,6.3,2.8,9.5,3.3
	c-4.8,1.6-11.2,4.8-10.7,8.5c5.3,1,10.7,1.4,16.1,1.3c-13.2,5.8,9.2,8.1,11.9-0.1c4.4,2.1,9.1,2.2,14.3,2.6
	c-0.5-1.6,0.8-3.6,0.2-5.3c7.4,4.8,15.2,2.1,13.5-4.1c3.1,0.8,6.3,0.8,9.3,0l9.6,0.8c-1.3,2.8-1.8,5.4,3.3,6.8
	c-7.8,0.8-17.3,2.4-17.3,7.6c3.6,0.5,6.1,2.4,9.5,3c-11.9,8.1-2.6,11.3,13,10.8c-1.9,3.9-8.7,6.5-7.7,11.3
	c15.5,2.6,33.2,8.7,36.2-3.4c8.5,2.6,10.2-1.8,20.6-0.2c-5,2.5-9.1,5.7-10.8,9.3c13,3.5-5.5,5.5-4.8,9.8c1,6.1,11.6,3.3,20.6,4.8
	c-9.6,1.7-19.4,9.5-4.6,10.8c-5.3,4-3.2,9.4,8.2,7.4c0.3-1.1,1.3-2.5,1.8-3.7c-1.5,7,13.7,12.4,12,3.1c1.4,4.2,6.2,8.2,14.2,8.2
	c-0.5-2.5,1.3-5.8,0.5-8.2c4.4,3.6,12.4,5.6,19.2,6.3c0.2-3.5-0.1-7.2,1.8-10.4c10.2,5.2,18.9,1.3,20.1-5.7c3.1-0.4,6.3-0.4,9.4,0
	c1.2,3.4,0,6.6-3.6,9.4c0.3-0.1,6.8-1.2,8.5-1.7c-2.6,2.9-6.9,5.9-7.8,9.4c3.5-0.6,4.7-0.4,8-1.4c1.1,0.8,1.6,1.7,3.2,2.6
	c1.6-2,2.6-1.8,3.3-4.6c-0.5,4.4-0.2,8.7,5,11.4c1.3-2.1,5.6-5.8,6.5-8c4.8,2.7,9.8,5.3,16.2,6.8c-0.7-2.5,1.2-5.7,0.5-8.2
	c15.3,8.2,11.2-2.7,16.1-4.2c8.2-2.6,16.1-1.2,18.1,5.5c12.6-6.2,13.2-8.6,11.8-17.8c9.4,0.2,24.7,5.4,31.1,0.8
	c3.7-2.6-8.5-14.1,9.5-8.5c1.3,5.1,9.9,7.2,3.8,12.2c4.8,0.6,9.6,0.6,14.3,0c0.1-2.2,2.7-4.2,2.3-6.5c3.3,2.1,8.9,2.5,12.5,3.6
	c4.8-3.9,3.1-12.7,8.6-14.4c8-2.5,19.3,3.9,19.5,7.6c-3.3,0.6-5.8,2.5-8.2,3c5.1,2.9,13.2,2.9,19.8,4.8c-2.7,1-5.8,4.7-8,5.9
	c9.6,2.1,23.7,1.1,34.3,0.8c-1-0.9-1.5-2.6-2.9-3.6c7.9,5.6,23.9,6.2,35.8,5.5c-9,1.1,8.8,1.7,14.5,0c8-2.3,13-5.1,8.8-10.2
	c9.6-2.4,19.4-3.8,29.2-4.2c1.8-13.5,26.3-0.7,34.6,1c2.2-11.6,14.5-11.4,24.6-19.3c4-3.2,0.3-5.9,7.3-10.4
	c7.3-4.8,23.3-6.9,24.4-14.5c1-6.5-12.5-11.8-10.1-19c2.8-8.4,19.7-10.9,26.5-17.6c3.5-3.5,3.8-8.7,2.8-14.4c0.8-2.8,0-5.6,0-9.1
	c0.3-0.1,0.6-0.2,0.9-0.3c22.4-8.8,1.3-14.9-0.2-27C915,432.9,916.1,431.8,917.6,431.4z"/>
<path class="st2" d="M917,288.5c-10.8,14.5-9.2,8.5-3.8,22.3c-5.1-0.4-10.9,0.7-16,0.4c0.5,6.4,6.2,10.9,7.7,17.4
	c1.9,8.2-2.1,15-5.1,22.6c-9,23.1-1.2,42.6-1.2,66.3c0,3.9,0.3,8.1,0.8,12.7h-510c-4.5-1.2-9.9-2-15.9-3.6
	c-33.6-9.1-36.7-33.3-63.5-49.2c0.7,0,0.9-0.3,0.8-0.9c-7.7-3.6-20.7-7.9-26.2-13.6c-4.7-4.9-3.4-19.7-9.8-22.4
	c-7.5-3.2-19.4,6.8-28.1,6.5c-9.1-0.3-19.6-5.7-27.2-10.5v-10.6c0.7-6.1,0.7-12.3,0-18.4v-84.2c5.2-3.8,12.8-6.5,15.6-3.7
	c-0.2-0.9-0.1-1.8,0.3-2.6c3.2,1.1,9.5,0.9,12.6,2.3c2.8-6.4,16.8-16,24.9-13.6l0.2,0.1c1.3,2.3,2.4,4.5,3.4,6.8
	c0.6-0.8,1.2-1.6,1.9-2.3c-1.2-2-3.1-3.6-5.4-4.4c-0.3-0.5-0.6-1-0.9-1.5l-0.9-1.5c2.9-0.8,6.3-3.9,9.5-4.5
	c-4.8-2.2-11.2-6.7-10.7-11.7c5.2-1.4,10.7-2,16.1-1.8c-13.2-7.9,9.2-11.2,11.9,0.1c4.4-2.9,9.1-3,14.3-3.6c-0.5,2.2,0.8,5,0.2,7.3
	c7.4-6.6,15.2-2.9,13.5,5.6c3-1.1,6.3-1.1,9.3,0c3.3-0.4,6.5-0.7,9.6-1c-1.3-3.9-1.8-7.4,3.3-9.4c-7.8-1-17.3-3.4-17.3-10.4
	c3.6-0.7,6.1-3.3,9.5-4.1c-11.9-11.2-2.6-15.6,13-14.9c-1.9-5.4-8.7-8.9-7.7-15.5c15.5-3.6,33.2-11.9,36.2,4.7
	c8.5-3.5,10.2,2.4,20.6,0.2c-5-3.4-9.1-7.8-10.8-12.9c13-4.8-5.5-7.6-4.8-13.5c1-8.4,11.6-4.5,20.6-6.6c-9.6-2.3-19.4-13.1-4.6-14.9
	c-5.3-5.5-3.2-12.9,8.2-10.2c0.3,1.6,1.3,3.5,1.8,5.1c-1.5-9.7,13.7-17.1,12-4.3c1.4-5.8,6.2-11.4,14.2-11.3
	c-0.5,3.5,1.3,8,0.5,11.3c4.4-5,12.4-7.8,19.2-8.7c0.3,4.9-0.1,10,1.8,14.3c10.3-7.2,18.9-1.9,20.2,7.8c3.1,0.6,6.3,0.6,9.4,0
	c1.2-4.6-0.1-9.1-3.6-12.9c0.3,0.1,6.8,1.6,8.5,2.3c-2.6-4-6.9-8.1-7.8-12.9c3.5,0.8,4.7,0.5,8,2c1.1-1.2,1.6-2.4,3.2-3.6
	c1.6,2.7,2.6,2.5,3.3,6.4c-0.5-6-0.2-12.1,5-15.8c1.3,2.9,5.6,8,6.5,11c4.8-3.8,9.8-7.4,16.2-9.3c-0.7,3.5,1.2,7.9,0.5,11.3
	c15.3-11.2,11.2,3.7,16.1,5.8c8.2,3.6,16.1,1.6,18.1-7.6c12.6,8.6,13.2,11.8,11.9,24.6c9.4-0.2,24.7-7.5,31.1-1.2
	c3.7,3.6-8.5,19.4,9.5,11.7c1.3-7.1,9.9-9.9,3.8-16.8c4.7-0.8,9.6-0.8,14.3,0c0.1,3.1,2.7,5.8,2.3,9c3.3-2.9,8.9-3.4,12.5-5
	c4.8,5.3,3.1,17.5,8.6,19.8c8,3.4,19.3-5.3,19.5-10.5c-3.3-0.9-5.8-3.4-8.2-4.2c5.1-4,13.2-4,19.8-6.6c-2.7-1.4-5.8-6.5-8-8.1
	c9.6-2.9,23.7-1.5,34.3-1c-1,1.2-1.5,3.6-2.9,4.9c7.9-7.7,23.9-8.6,35.8-7.5c-9-1.5,8.8-2.3,14.5,0c8,3.2,13,7,8.8,14
	c8.9,3.3,19.6,5.1,29.2,5.8c1.8,18.7,26.3,0.9,34.6-1.4c2.2,16,14.5,15.7,24.6,26.7c4,4.3,0.3,8.1,7.3,14.3
	c7.3,6.5,23.3,9.4,24.4,19.9c1,9-12.5,16.3-10.1,26.2c2.8,11.5,19.7,15.1,26.5,24.3c3.5,4.8,3.8,12,2.8,19.8c0.8,3.9,0,7.7,0,12.6
	c0.3,0.1,0.6,0.3,0.9,0.5c22.4,12.1,1.3,20.6-0.2,37.2C914.5,286.4,915.6,287.8,917,288.5z"/>
<linearGradient id="SVGID_2_" gradientUnits="userSpaceOnUse" x1="92.9519" y1="689.8821" x2="124.2119" y2="369.0621" gradientTransform="matrix(1 0 0 -1 0 1080)">
	<stop  offset="2.000000e-02" style="stop-color:#749A23"/>
	<stop  offset="0.18" style="stop-color:#749A23"/>
	<stop  offset="0.19" style="stop-color:#719924"/>
	<stop  offset="0.27" style="stop-color:#53932A"/>
	<stop  offset="0.34" style="stop-color:#418E2F"/>
	<stop  offset="0.39" style="stop-color:#3A8D30"/>
	<stop  offset="0.41" style="stop-color:#328B32"/>
	<stop  offset="0.48" style="stop-color:#178438"/>
	<stop  offset="0.54" style="stop-color:#06803C"/>
	<stop  offset="0.59" style="stop-color:#007F3D"/>
	<stop  offset="0.69" style="stop-color:#006A2A"/>
	<stop  offset="0.78" style="stop-color:#005416"/>
	<stop  offset="0.86" style="stop-color:#005022"/>
	<stop  offset="1" style="stop-color:#004740"/>
</linearGradient>
<path class="st3" d="M113.1,597.6L113.1,597.6L113.1,597.6C113.3,597.8,113.3,597.8,113.1,597.6z"/>
<path class="st4" d="M335,529.9c7.9,7.7,21.9,27.2,27.1,35.8c5.2,9,21.6,47.8,24.7,57.1s9.7,23.8,13.7,26.2s10.7,15.7,14.3,18.8
	c3.4,3.1,7.5,6.5,14.4,18c6.8,11.9,28.8,47.7,30.8,57.2s0,18.2-0.8,45s15.8,77.3,21.5,91.9s21.1,61.9,24.8,71.1s7.3,32.7,7.3,37.9
	s4.5,10.5,2.4,13c-3.7,2-7.3,7.8-9.3,9.5s-5.3,1.6-7.7,2.5s-4.5,0.8-8.5,0.4s-6.5,2.5-16.2,4.5s-24,9.3-24,9.3l101.9,6H646
	c7.8,0.4,74.2-7.4,93.8-9.1c-17-9.1-34.6-8.2-37.1-8.9s-20.7-4.2-26.2-7.9c-8.5-6-16.3-13.1-23.1-21c-6.8-8.2-24.5-59.7-26.8-67.9
	s-3.8-21-6.5-28.3s-16.8-34.3-21.7-53.3s-12.2-77.6-12.6-82.3s1.2-8.5,0.8-9.6s-0.4-3.5-0.4-6.8s0,0,1.2-2.9s1.2-3.3-0.4-6.6
	c-1.6-2.8-2.1-6.1-1.2-9.2c0.8-3.8,4.5-8.1,10.2-17.3s19.5-44.3,25.2-58.7c8.2-20.2,18.4-39.5,30.5-57.6
	c12.6-18.9,52.2-25.1,57.2-28s16.3-6.6,28.9-11.9c12.6-5.7,29.6-2.9,35.7-2.9c6.1-2.6,41.8-15.5,41.8-15.5v-3.9c0,0-3.2,1.6-8.5,3.9
	c-6.9,2.2-29.6,10.1-35,10.5s-7.7-2.9-16.9-1.2c1.3-0.8,13.7-10.7,20.2-16.9c5.7-6.2,17.9-28.5,17.9-28.5l-7.2,3.6
	c-2.4,8.5-17.5,22-21.2,24.8s-6.5,5.3-9.6,4.9c-8.4-12.8,0-39.1,0-39.1l-5.4,0.8c-8.1,18.1,0,41.5,0,41.5l-4.1,2.9
	c-5.7,3.7-40.6,21-57.1,24s-29.4,7.7-36.3,13.1c1.2-3.7,5.7-15.2,5.7-22.2s2.8-17.3,2.8-23.1c0-6.2,5.7-26.3,6.9-34.3
	s11-17.5,13.4-22.5s7.6-23.9,7.6-23.9l-7.2-3.3c-1.2,3.7-9.7,21.8-14.2,25.9c-2.6,2.3-4.9,5-6.9,7.8c-0.8-4.5-5.3-14.4-10.7-19.8
	c-3.3-3.3-6.4-6.9-9.2-10.7l-2,10.7c5.3,4.9,12.2,17.7,14,20.6s1.1,3.7,0,8.6s-3.4,21-5.5,30c-2.5,9-12.2,50.2-14.6,60.4
	s-11.4,21.9-19.1,38.4s-18.7,36.2-20.7,41.6s-16.7,17.6-18.9,18.5c-2.6,0.9-1.1-79.1-1.1-122.3c-1.2-41.6,6.9-75.7,8.1-80.2
	c0.9-3.4,2-23.4,2.5-33.3H474.7v48.8c0,22.5-4.3,56.8-5.2,62.9s-3.6,41.7-4.6,64.4s-2.8,44-2.8,44c-3.1-2.2-6.1-4.5-8.8-7.1
	c-5.5-4.9-21.9-22.2-25.9-26.2s-20.7-32.4-25.4-39.2s-12.3-28.1-15.4-33.3c-3-5.5-1.5-36.4-1.2-38.9s5.5-17.9,6.1-25.9
	c0.5-6.5,0.4-37.6,0.3-49.4h-10.1c0.2,2,0.5,5.2,0.9,10.2c0.5,8.8-0.4,17.7-2.8,26.2c-0.6-2.2-7.9-8.6-12.2-11.7s-6.1-11.1-9.9-15.1
	c-2-2.1-4.2-6.2-5.8-9.6h-7.6c2,4.1,4.5,8,7.5,11.5c6.4,7.4,7.9,18.2,13.7,21s12.2,14.8,12.2,14.8s-1.8,12.7-3.7,16.7
	c-2.1,4-6.4,17.6-6.4,17.6s-3.7-7.4-7.9-15.7c-4-8.6-16.8-25.6-20.9-32.7c-2.9-5-11-22.9-15.6-33h-13.4c1.5,2.4,3.6,6,6.1,10.8
	c5.6,10.8,8.4,22.5,12.4,28.7s8.5,15.1,10.5,21.5c-1.1,7.9,1.9,16.5,1.9,16.5c-2.5-2.5-9.3-2.5-14.1-5.2s-6.2-3.7-18.1-13.6
	c-12.8-9.6-31.5-47.2-31.5-47.2v23.7c5.9,11.4,18.3,24.7,23,30.9C306,509.9,327,522.2,335,529.9z"/>
<path class="st5" d="M467.9,654.6c3.1,6.9,6,13.9,9.8,20.4c2.7-3.7,3.3-12.2,3.9-14.5c3.8,14.9,12.8,28.8,18.4,39.8
	c-7-22-3.9-53.4-5.8-76.7c-2.1-24.6-3.4-21.8-10.6-45c-2.1,3.2-2.9,59.3-3.8,63.4c-4.1-5.1-8.6-92.6-11.3-99.9
	c-0.4,3.2-0.7,5.5-0.9,6.7c-0.9,6.2-3.6,41.7-4.6,64.4c-0.3,8.1-0.8,16-1.2,22.8c2.5,6.2,4.3,12.6,5.3,19.2
	C467.1,654.8,467.4,654.5,467.9,654.6C467.8,654.6,467.9,654.6,467.9,654.6z"/>
<path class="st5" d="M586.6,1004.7c-9-16.6-16.8-35.2-26.7-51.6c-9.2-15.2-16.4-29.2-22.2-45.7c-7.2-20.5-5.7-22-7.1-44.3
	c-1.7-27.6-15-31.4-20.2-50.2c25.6,16,30.2,67.6,40.4,75.4c-3.9-12.8-25-87.5-36.9-98c-7.6-6.7-1-24,0.4-36.6c0.4-4-26.6-1-26.6-6.9
	c0,0,32.5,6,19-15.7c-7-11.3-19-16.7-24.4-29.6c-4.2-10.2-6-16.8-14-25.6c-6.3-6.9-14-12.4-20.7-18.8c-9.2-8.7-12.5-19.4-19.5-28.2
	c-5.8-7.3-14.2-11.3-19.6-19.7s-8.7-17.1-11.9-26.3v2.5c0,1.6,0.1,3.2,0.2,4.8c5.9,13.5,12,28.4,13.7,33.7c3,9.3,9.7,23.8,13.7,26.2
	s10.6,15.7,14.3,18.8c3.4,3.1,7.5,6.5,14.4,18c6.9,11.9,28.8,47.7,30.9,57.1s0,18.2-0.8,45s15.8,77.3,21.5,91.9s21.1,61.9,24.8,71.1
	s7.3,32.7,7.3,37.9s4.5,10.5,2.4,13c-3.7,2.1-7.3,7.8-9.3,9.5s-5.3,1.6-7.7,2.5s-4.5,0.8-8.5,0.4s-6.5,2.5-16.2,4.5s-24,9.3-24,9.3
	l72.6,4.2c9.5-4,15.7-11,23.8-16C573.1,1015.2,586.6,1004.7,586.6,1004.7z"/>
<path class="st5" d="M663.5,985.1c-9.5-8.3-7.4-16.3-12.5-27.5c-4.2-9.3-11.9-18.4-17.1-27.4c-10.4-18.1-21.2-36.7-26.8-56.8
	c-4-14.2-3-27.6-7.9-41.3c-11.5-32.3-25.5-64.3-36.9-96.2c0.2,18,2.9,35.1,7,52.7c2.6,11.1,15,26,13.8,36.5c-0.1-0.4-0.6-0.7-1-0.6
	c0.3,12.7,7,26.7,9.5,39.3c3.2,15.9,4.1,32.5,8.5,48.4c5.3,19.5,14.3,37.2,21.6,55.6c5,12.6,5.4,24.1,22.1,27
	c-4.7,8.8-17.8,13.6-15.7,27c0.1,1,0.4,1.9,0.7,2.8h39.6c-7.5-3.9-12.8-8.8-5.9-17.5c12.9-5.6,31.1,6.6,40.3,17.5h1.1
	C695.7,1005.5,678.6,998.3,663.5,985.1z"/>
<path class="st6" d="M637.8,600.2c11.8-21.5,23.8-62.8,18.2-92.3c-0.4,2.2-0.8,4.3-1.3,6.1c-2.5,9-12.2,50.2-14.6,60.4
	s-11.4,21.9-19.1,38.4s-18.7,36.2-20.8,41.6c-1,2.6-4.8,6.7-8.8,10.4c-1.3,5.2-3.3,10.3-6,15C612.8,658.9,622.1,628.7,637.8,600.2z"
	/>
<path class="st5" d="M571.1,505.6c-7,7.1-10.3,20.3-13.4,29.6c-3.8,11.4-7.2,23.2-8.5,35.2c-1.1,10.9-0.9,22,0.8,32.8
	c1.6,10.9,4.5,21.5,1.2,31.9c-6,19.3-6.4,42-2.2,61.9c3,14.3,7.2,28.5,8.7,43c0.2,2.3,5.7,18.9,5.8,21.2c-0.1-15-11-68.3-11.4-87.2
	c-0.3-14.4,15.5,56.4,15,51c-0.5-5.7-7.6-48.4-8.3-54.2c-0.9-6.7,1.5-13.9,1.8-20.9c0.3-6.6,0.3-12.2,0.8-18.6
	c1-12.9-3.2-26.6-2.5-40.1c0.8-15.6,5.2-30.9,6.7-46.3c1.3-13.5,0.8-26.2,4.9-38.7c-0.5,0.7-1,1.5-1.3,2.3"/>
<path class="st7" d="M291.9,718.3c0,0-5.2,2.3-5.2,5.4v3.1c0.1-3.9,2.6-7.2,6.2-8.5H291.9z"/>
<path class="st2" d="M222.2,223.2c0,0-47.1-21.4-52.4,18.8c20.9,13.8-28.9,34-24.4,16.9c-22.7-1.7-38,5.9-41.3,28.6
	c-30.1,8.2-28.9,23.7-20.1,40.9c-17.9-0.5-30.4,5.8-26.5,32.1c10.4,8.4,4.9,13.7-8.5,18c-13.7,1-13,6.9-6.3,14.8
	c-16.2,8.5-14.9,21.7-6.3,36.7c-7.1,13.5-3.2,19.8,9.5,20.4c2.1,8.4,6.5,9.3,12.7,4.3c9.8,4.1,9.6,8.4,1.1,12.7
	c5.5,6,11,11.8,16.9,0c5.3,13,13.9,10.9,24.3,0c11.2,4.8,8.6,8.4,0,11.6c3.6,16.7,13.2,17.9,27.1,8.5c9.7-3.6,15.1-1.4,13.2,10.6
	c-11.8,2.2-9.4,5.5,1.1,9.6c-8.3,30.6,16.1,26.8,39.2,24.3c12.5-6.6,13.2-15.8,7.4-26.6c6.6-8.1,13.3-7.9,20.1,0
	c6-8.2,8.1-14.8-4.2-15.7c8.2-2,14.4-5.1,15.5-11.1L222.2,223.2z"/>
<linearGradient id="SVGID_3_" gradientUnits="userSpaceOnUse" x1="75.24" y1="609.5745" x2="1189.5" y2="609.5745" gradientTransform="matrix(1 0 0 0.62 0 -152.66)">
	<stop  offset="0" style="stop-color:#80BF00"/>
	<stop  offset="0" style="stop-color:#6AB003"/>
	<stop  offset="0" style="stop-color:#469708"/>
	<stop  offset="0" style="stop-color:#0E9078"/>
	<stop  offset="0" style="stop-color:#008E94"/>
	<stop  offset="0" style="stop-color:#005957"/>
	<stop  offset="0.3" style="stop-color:#2C703F"/>
	<stop  offset="0.98" style="stop-color:#99AB02"/>
	<stop  offset="1" style="stop-color:#9DAD00"/>
</linearGradient>
<path class="st8" d="M889.2,318.9h-635c-5.9,0-94.6,20.9-100.3,21.3c-21-20.4-23.5-39.2,13.8-54.7c3.3-15,10.9-18.5,23.3-9.2
	c16.4-8.8,20-15.8,5.3-20.1c5.9-16.6,16.1-14,27.4-5.7c-5.7-10.6-1.8-17.5,13.2-20.1c26.9,12.4,24.6,5.2,22.7-0.5
	c-13.1-2.5-8.5-12.3,3.6-15.6c-16.4-9-37-21.7-6.8-25.1c-5-3.3-16.5-12.9-19.6-20.1v-5.7c1.6-2.1,5.7-3.3,13.8-2.6
	c0-6.2,7.4-6,14.3-5.5c-2.3-2.8-4.1-6.1-5.3-9.5l15.2-0.3c-1-4.4-14.7-21.6,5.6-17.2c5.6,1.2,19.6,21.9,26.1,4.4
	c5.9-0.3,12.1-0.1,18.1-0.4c-2.3-4.7-10.3-11.1-4.1-15.2c3.6-2.4,21.2,0.3,25.5,1.3c-1.4,9.5,1.6,8.6,8.8,10.8
	c0.8,0.3,7.8-0.5,9.9,0s4.6,2.9,7.1,4.8c1.5,0.1,3,0.3,4.4,0.5c2.6-3.6,0.7-9.8,4.2-11.7c3.6-2,18.1,0.5,21.5,2.1
	c8.7,4,1.9,6.3,7.1,10.9c6.1,5.4,11.3,1.8,20-1.1c9.9-3.2,9-6.7,20,0c7,4.3,6.6,5.9,8.5,12c2.6,8.3-0.4,9,8.5,15.6
	c5.7,4.1,13.7,8,21.2,8.4c-2.6-3.8-7.3-6.6-9.6-10.6c23-4.3,7.2-9.5-0.1-19.7c4.7-0.8,22.9-2.7,25.2-6c5.1-7.2-11.6-6.8-12.9-13.7
	s13.8-11,22.1-10.1c10.6,1.2,11.4,3.8,14.1,11.9c8,1,13.3-6,19.7-5.4c8.5,0.9,6.6,9.2,13.1,13.2c18.9,11.7,21.8-3.1,17-13
	c11.5-0.4,23.6-0.5,35.2,0c-1.9,13.7-7.3,29.6,15.9,29.2c11-0.2,10.5-3.9,21.3,2.4c8.1,4.7,12.5,11.9,24,10.8
	c0.2-4.4-3.6-8.4-6.8-11.7c8.5-0.4,27.7,3.3,29.8-4.2c2.5,6.8,2.2,14.1-2.7,20.3c8.1,0.1,14.5,4.1,12.6,10.7
	c5.3-6.8,10.8-3.2,14.5,1.9c3.1-0.3,6.2-0.4,9.3-0.3c-8.8-10.7-7.8-28.9,13.2-21.4c0.5-3.5,1.2-6.4,5.8-7.1c6.7-1,5.9,4.1,9.2-2.2
	c1.1-2.1-0.7-3.1,1.4-4.9c1.7-1.4,6.1-1.5,8.4-1.6c5.5-0.4,10.2-0.2,11,4.9c5.2-1.5,24.9-8.8,24.1,1.6c11.6-0.1,25.8-2.5,37,1.2
	c5.2,1.7,16.2,8.4,10.8,13.2c4.8,1.2,15.4,3.1,16.2,7.6c0.8,4.9-7.4,6.7-11.4,8.1c7.6,1.3,23,5.2,21.3,13.1c-1.2,5.9-12.3,9.2-19,9
	c7.4,4.2,18.2,17.2,1.3,16.4c2.2,4.2,7.1,10.4,2.8,15.3c-3.4,3.8-12.4,3.8-15.8,4.9c5.6,1.2,15.1,2.1,10.1,8.3
	c-2.5,3.1-11.2,5.1-16.5,6.2c0,0.1-0.1,0.2-0.1,0.3c5.8-0.1,16.2-0.4,19.4,2.9c4.6,4.7-4.8,10-7.7,14c12.9,0.4,15.9,7.4,5.1,14.2
	c10.1,0.5,12.4,2,15.4,9.3c3.8-2,10-9,15.9-6.1c6.1,3-0.6,8.1-3,11c12.7-3.7,18.4,13.9,14.4,20.4
	C896.4,317.3,893.2,318.5,889.2,318.9z"/>
<linearGradient id="SVGID_4_" gradientUnits="userSpaceOnUse" x1="72.77" y1="634.7522" x2="1182.5" y2="634.7522" gradientTransform="matrix(1 0 0 -1 0 1080)">
	<stop  offset="0" style="stop-color:#80BF00"/>
	<stop  offset="0" style="stop-color:#6AB003"/>
	<stop  offset="0" style="stop-color:#469708"/>
	<stop  offset="0" style="stop-color:#0E9078"/>
	<stop  offset="0" style="stop-color:#008E94"/>
	<stop  offset="0" style="stop-color:#005957"/>
	<stop  offset="0.3" style="stop-color:#2C703F"/>
	<stop  offset="0.98" style="stop-color:#99AB02"/>
	<stop  offset="1" style="stop-color:#9DAD00"/>
</linearGradient>
<path class="st9" d="M883.2,313.7H216c-6,0-56.3,27-62.1,26.5c-12.8,1-16,10-12,25.1c-11.9,17.7-4.8,25.5,12.7,27.9
	c-12.2,7-13.2,14.1,2.1,21.5c0.6,19.3,9,25.2,30,10.2c11.5,17.2,47.8,9,52.8,1.2c8.1-5.1,23.4,3.1,3.7,19.7
	c-16.8,11.3-37.8,27.4-7,31.7c-5.1,4.1-16.9,16.2-20,25.3v7.2c1.6,2.7,5.9,4.2,14.1,3.3c0,7.8,7.6,7.5,14.6,6.9
	c-2.4,3.7-4.3,7.7-5.4,12l15.6,0.4c-1,5.5-15,27.2,5.8,21.7c5.7-1.5,20-27.7,26.7-5.6c6,0.3,12.4,0.1,18.5,0.5
	c-2.4,5.9-10.5,14.1-4.2,19.2c3.6,3,21.7-0.4,26-1.7c-1.5-12,1.7-10.8,8.9-13.6c0.9-0.3,7.9,0.7,10.1,0s4.8-3.7,7.2-6.1
	c1.5-0.2,3-0.4,4.5-0.6c2.7,4.6,0.7,12.3,4.3,14.7c3.7,2.5,18.5-0.6,22-2.6c8.9-5.1,1.9-8,7.2-13.8c6.2-6.8,11.5-2.2,20.4,1.3
	c10.1,4.1,9.1,8.5,20.4,0c7.1-5.4,6.7-7.4,8.7-15.1c2.7-10.5-0.4-11.4,8.7-19.6c5.8-5.2,14-10.1,21.7-10.5
	c-2.6,4.8-7.5,8.3-9.8,13.3c23.5,5.4,7.3,12-0.1,24.8c4.8,1.1,23.4,3.5,25.8,7.5c5.2,9.1-11.9,8.5-13.2,17.3s14.1,13.9,22.6,12.8
	c10.8-1.5,11.7-4.8,14.4-15c8.1-1.2,13.6,7.6,20.1,6.8c8.8-1.1,6.7-11.6,13.4-16.7c19.3-14.8,22.3,3.9,17.4,16.4
	c11.8,0.5,24.1,0.6,35.9,0c-1.9-17.3-7.5-37.4,16.2-36.8c11.3,0.3,10.8,5,21.8-3c8.3-6,12.8-15,24.5-13.6c0.2,5.5-3.6,10.6-7,14.8
	c8.6,0.5,28.3-4.2,30.5,5.3c2.6-8.6,2.2-17.8-2.8-25.6c8.2-0.1,14.8-5.2,12.9-13.5c5.4,8.5,11,4,14.8-2.3c3.2,0.4,6.4,0.5,9.5,0.4
	c-9,13.5-8,36.5,13.4,27.1c0.6,4.4,1.2,8,6,8.9c6.9,1.2,6-5.1,9.5,2.8c1.1,2.6-0.8,4,1.4,6.2c1.8,1.8,6.2,1.8,8.6,2
	c5.6,0.5,10.5,0.3,11.2-6.1c5.4,1.9,25.5,11.1,24.7-2c11.9,0.2,26.4,3.1,37.8-1.5c5.3-2.2,16.6-10.6,11.1-16.6
	c4.9-1.5,15.7-3.9,16.5-9.7c0.8-6.2-7.5-8.5-11.6-10.2c7.8-1.6,23.5-6.6,21.8-16.6c-1.3-7.4-12.6-11.6-19.5-11.3
	c7.5-5.3,18.6-21.7,1.3-20.7c2.3-5.3,7.2-13.2,2.8-19.3c-3.5-4.8-12.7-4.8-16.2-6.1c5.7-1.6,15.5-2.7,10.3-10.4
	c-2.6-3.9-11.5-6.5-16.9-7.8c0-0.1-0.1-0.3-0.1-0.4c5.9,0.1,16.6,0.5,19.9-3.6c4.7-5.9-4.8-12.7-7.9-17.7c13.2-0.5,16.2-9.4,5.2-18
	c10.3-0.6,12.7-2.6,15.8-11.8c3.9,2.6,10.2,11.3,16.2,7.7c6.2-3.7-0.6-10.2-3-13.9c13,4.6,18.8-17.6,14.7-25.8
	C890.5,315.6,887.3,314.1,883.2,313.7z"/>
</svg>
