<svg id="Layer_1" data-name="Layer 1" xmlns="http://www.w3.org/2000/svg" xmlns:xlink="http://www.w3.org/1999/xlink" viewBox="0 0 1600 900"><defs><style>.cls-1{fill:none;}.cls-2{clip-path:url(#clip-path);}.cls-3{fill:#3e803d;}.cls-4{fill:#138040;}.cls-5{fill:#455f42;}.cls-6{fill:#1b9547;}.cls-7{fill:#229547;}.cls-8{fill:#905b2d;}.cls-9{fill:#6d4832;}.cls-10{fill:#16a44a;}.cls-11{fill:#1d733a;}.cls-12{fill:#161b23;opacity:0.3;}.cls-13{fill:#74bf44;}.cls-14{fill:#417005;}.cls-15{fill:#022d14;}.cls-16{fill:#053819;}</style><clipPath id="clip-path"><rect class="cls-1" width="1600" height="900"/></clipPath></defs><g class="cls-2"><path class="cls-3" d="M35.9,919.94s-2.82-25.41-28.41-32.18c0,0,21.42-9.77,45.42,27.23,0,0-8-35.39-20-41.7,0,0,27,15.31,35,40.51,0,0-24.8-57-6.9-72.43,0,0-3.1,33.62,12.9,48.62,0,0-9.52-15,6.24-26a52.53,52.53,0,0,0,7.23,28.83S82.91,874,103.91,871c0,0-24,19-13,36,0,0-2-11,19-10,0,0-22,20-9,31Z"/><path class="cls-4" d="M205.83,868s-18.52-12.4-23.53-11.23,5.08-10.95,20,2.66C208.33,864.93,205.83,868,205.83,868Z"/><path class="cls-4" d="M209.83,868s-7.79-28.26-16.16-31.16,13.31-7.25,17.66,11.81C214.34,861.83,209.83,868,209.83,868Z"/><path class="cls-4" d="M212.37,868s9-20.13,27-20.9-27,22.06-27,22.06"/><path class="cls-5" d="M980.72,878.06s23.81-7.68,56.42-3.11,21.61,18.77-24.33,18.32S961.56,885.29,980.72,878.06Z"/><path class="cls-6" d="M980.72,875.06s23.81-7.68,56.42-3.11,21.61,18.77-24.33,18.32S961.56,882.29,980.72,875.06Z"/><path class="cls-5" d="M494.48,856.3s15-5.9,35.59-2.39S543.7,868.33,514.72,868,482.4,861.86,494.48,856.3Z"/><path class="cls-7" d="M527.73,854.89s14.94-4.48,35.4-1.81,13.56,10.94-15.26,10.67S515.71,859.1,527.73,854.89Z"/><path class="cls-8" d="M1023.64,794.11s-2.73,37.45-5.73,40.17S1060,762.75,1060,762.75,1031.38,794.22,1023.64,794.11Z"/><path class="cls-9" d="M1023.64,794.11s13.52-6.6,36.39-31.36C1042.78,791.23,1029.38,798.22,1023.64,794.11Z"/><path class="cls-10" d="M239.83,852.93c1.08,1.06,35.08,1,35.08,1l-35.08,19.33Z"/><path class="cls-5" d="M1055.89,880.39s-24-.4-34,.6-17,1-17,1,47.09-4.92,50-4S1055.89,880.39,1055.89,880.39Z"/><path class="cls-5" d="M574.9,858H548.78c-5.87,0,25.29-1.6,25.29-1.6Z"/><path class="cls-11" d="M349.92,788.28s-9.79-41-33.73-41.94S335.05,761.38,349.92,788.28Z"/><ellipse class="cls-12" cx="-27.75" cy="793.29" rx="39.5" ry="8.08"/><path class="cls-13" d="M993.75,731.87s13,1.83,2,7.89l6-2h0s6.08-2.65,6-5.87S993.75,731.87,993.75,731.87Z"/><ellipse class="cls-12" cx="136.25" cy="815" rx="19.5" ry="3.53"/><path class="cls-14" d="M1908.89,820.82c-1.14-1-1.39,4.84-2.77,3.89-1.93-1.32-1.94-8.77-3.11-15.24.21,8.11-.14,15.72-2.86,13.56-.26-.21-1.26,14.14-4.21,10-2-2.81-3.48-13.32-4.3-19.67-1,25.27-8.79-3.68-10.42-11.94a177.5,177.5,0,0,1-1.65,29.32c-2.52-2.76-2.72-9.08-4.24-15.59-2.28-9.82-6.45-16.06-8.6-22.87,1.92,9.84,3.9,33.8-.74,39.8-1.93,2.47-7.1-6.59-8.72-10.23-.12,1.45-.35,2.5-.44,4.25-1.33.55-2.6-.8-3.81-2-.08,2.37-.65,4.25-.77,6.32-2.38-3.76-4.56-12.61-6.06-20,.07,9.41-.17,23.61-3,20.39s-4.44-13.13-6.6-20c-1.64-5.28-3.82-7.55-6.11-21.43.9,12.74-.28,22.92-.73,35-2.21-1.93-2.87-11.75-3.81-15a56.18,56.18,0,0,1-.36,15.52c-2.93-.76-4.1-11.19-5.69-18.18-.46,4.09-1.06,8-2,10.16-.62-10.92-4.24-24.9-6.58-29.24,1.27,5.6-1.41,28.2-2.65,30.16-2.6,4-4.06-14.34-6-23.31,2,14.62.43,37.85-2,46.52-.69-9.37-3.12-15.43-5.19-21-1-2.7-5.44-10.43-5.47-15.48-.82,11.67-3.91,18.11-6.33,15.69-3.14-3.16-3.9-17.46-4.19-28-.36,13.69-2,28.84-6.25,27.76-4-1-6.49-18.29-7.41-30.11-.38,4.69-.53,13.6-1.54,17.08-3,10.55-6.54-2.74-8-13.81.56,8.06.08,15.93-2,22.53.16-16.86-2.17-30.46-2.18-49.61-.65,7.66-2,3.78-4.88,29.2-.88.63-.26-12.35-1.89-14.15-.32,5.29-1.93,14.94-1.77,20.69-2.17-1.48-1.67-9.68-1.94-11.64-3.35,5.27-4.6,19.38-8.38,5-.12,2-2.68,10-2.72,11.73-5.8-10.52-14.1-26.3-11.53-51.87-1.58,5.6-4.54,16.11-3.77,36.63-1.08,1.36-3.67-8.65-4.5-13-1.63,5.7-2.39,22-5.67,23.66-3.76,2-3.05-16.3-4.49-22.08-1.47,19.25-4.08,33.09-5.88,32.37-3.17-1.29-4-4.93-6.25-11.71-2.67,24.82-5.83-4.89-5.85-18-.41,8.75-1.09,28.18-3.32,31.45-3,4.46-8.55-11.15-11.56-14.34-1.52-1.59-1.81,1.39-3.33,1-6.06-1.62-6-14.11-5.9-31.7-1.81,9.33-4.3,30.65-7.7,33.89s-4.47-10.89-7.14-9.46c-2.93,1.6-2.6,17.81-6.18,13.17-2-2.53-3.06-14.7-4.88-16.1s-3.45,6.78-5.85,5.47c-1-13.51-4.4-34.13-7.77-41.35-1.1,9.9-.49,21.46-1.74,31-1.49,11.42-4.67,16.83-6.39,2.81-3.51,13.08-4.75,10.81-7.13-6.07a96.8,96.8,0,0,1-2.37,12.71c-3.2-9.17-5.23-30-4.86-44.35-2.7,20.16-6.67,64.41-14.57,34.13-2.85-10.94-3.78-23.81-3.66-38.32,0-3.1-.24-23.62.08-25.08-3.47,16.07-4.56,45.44-5.75,64.86-2-6.56-3.19-15.64-4-23.09-.25,6.35-.1,12.79-.27,19.09-1.67.53-3.13-3.88-4.67-3.7s-3.08,5.85-4.57,3.8c-1.77-2.42-2.07-16.53-2.26-23.79-.37,12.44-2.75,40.51-6.12,41.09-2.1.34-2.37-6.25-3.61-10.68-3.47,11.47-3.57-2.92-3.65-13.3-5.65,24.42-8.46-7.64-3.52-28.64-2.94,8.74-13.77,39.28-13.69,41.4-.31-7.81.53-23.39-.54-29.92-.27-1.65-5.08,22.21-5,28.25-2.19-3.94-1.64-23.11-5.81-33.65-.23,21.35-5.23,31.51-8.76,12.49-1.3,3.82-2.26,12.24-4.12,11.77-2.94-.76-3.41-19.62-3.7-27-.5,6.16-2.36,25.19-5.1,22.62-.93-.87-4.56-25.84-4.07-32.47-1.66,5.56-3.43,20-4.73,23.59-1.52,4.21-2.37,2-3.68-6.76,0,4.94-.65,16.37-2.54,16.7s-3.81-19.65-4.26-24.17c.13,7.91.51,32.34-3,33.51-2.1-10.53-6.33-20.3-9.88-15.47a56.32,56.32,0,0,0-2.05-15.63c-.63,1.81-3.69,20.11-3.9,20-3.75-1.22-3.92-14.44-5.57-18.18-.26,4.57-1.53,7.57-3.5,6.56-1.06-6.67-2.21-16.34-5-19.46-1.63,6.2-4.15,23.72-8.09,20.55-2.45-2-4.2-15.9-3.15-20.72-1.73,3.73-5.28,20.47-8.35,18.09-.83-.69-4.47-14.72-7-14,2.44,1.9,2.11,13.5-.38,14-.52.1-5-9.47-5.11-7.12-.26,5.78-1.54,10.39-3.14,9.22,0-1.1-.43-12.16-.45-12.13-2.22,4.76-3.84,11.9-6.47,17.78,3.23-13.67-3.46-18.67-3.93-27.85-1.62,20.49-5.49,41.61-10.81,24.92-1,3.73-2,9.58-3.52,10.14-.3.08-2.75-26-3.79-28.47-.07,6.57-1.42,11.34-2.18,17.17-2.29-7.13-4.57-17.35-4.38-35.19-1,16.81-7.82,58.22-10.75,22.85.1,12.91-3.87,31.65-6.12,13.29-1.46,9.69-4.27,5.78-4.67-4.14-1.23,6.93-2.33,21.94-5.07,21.33-1.48-14.4-.31-29.77-3.9-41.9-.18,7.13-.76,17.08-2.5,21.75-3.6,9.74-15.32,1.26-13.17-11.11-2,5.1-1.64,25.54-3.9,34.53-4.47-2.37-5.53-29.11-9.42-30.71-.78-.33-2.67,7-3.58,7.87-3.29,3.08-2.93-2-3.23-13.38-1.37,4-3.56,15.25-5.54,13.46-3.92-3.6-.72-23-1-31-3.12,6.73-5.43,21.13-8.17,30.11-3.36,11.05-3.74,7.45-6.08-3.48-4.19-19.62-2.27,9.33-6.94,11.13-2.55,1-3.59-9.94-4.42-16.08-1,5-1.68,16.6-3.83,14.79-2-1.67-2.43-14.41-2.67-20-.24,15.36-4.15,23.42-6.54,12.66-2-9.27-2.21-26.32-2.57-37.93-.48,17.87-.26,37.44-5.41,41.24-5,3.67-6.62-16.37-8.75-28.13-.1,5.62-.47,15-2.45,11.47-.14,1.89-2.11,16.66-3.18,13.31-1.71-5.44-3-13.21-3.62-24.19-.22,11.71-.65,27.6-3.16,33.86s-6.39-3.09-8.66-9.18c-1.52-4.06-5.06-28.39-3.18-33.9-2.61,4.09-4.08,21.77-7.68,26.25-2.65-16.74-3.09,22.31-6.15,25.33-2.72,2.67-7-20.8-8.49-23.13-.2,7.11.28,17.8-1.66,22.69-3,7.52-4.72-4.42-5.71-13.56.07,8.6-1.63,16.37-4.24,14.77-.62-.38-6.6-16-6.62-17.2,0,1.85,0,3.71,0,5.59-4.23,6.21-8.18-.12-11.93-7.29,4.83,19-11.61,10.76-12.22,1.26-1.37,2.82-2.24,11-4.14,14.14-1.69-7.35-3.56-16.92-5.91-21.31-.4,5.48-1.6,10.48-3.14,12.45.16-.2-5.38-26.82-5.78-29.32-2.47,2.29-4.22,9.2-6.65,11.93-3.38,3.83-3.37,1.29-3.89-12.84-.84,9.43-5.34,29.38-8.29,27.59s-1.84-21.17-1.76-29.6c-3,31.49-11.78,8.58-13.35-14.31-.18,2,0,26.19-1,24.36-1.21-2.35-1.49-5.29-2-12.27-.14,29-4,19-6.83,2.18-.83,9.41-.81,25.59-2.91,33-3.54-7.67-4.84-29.9-6.52-42.87-1,9.89-3.49,19.26-6.63,19.36-1.19,0-1.61-7.24-1.11-7.6-1.72.44-2.57,5.45-3.58,5.78-2.43.8-3.22-12.12-3.29-16.53-.32,4.15-.49,13.11-1.76,15.68-1.2,2.4-4.64,1.17-6.1.81-2-.53-2.88-5.38-4.61-5.93-.54-.15-3.17,6.1-4.82,2.61-1.34-2.79-1.75-11.81-2.22-15.86-1.12,4.7-2.77,10.23-4.69,13-5.23,7.62-4.28-3.18-8-11.6,1.39,17.22-1.4,24-1.67,24.92-3.51,11.93-6.09-5.67-7.67-20.34.38,6.83,1.16,20-.14,24.83-1.47,5.41-3.24,2.71-3.58-5.63-1.48,11.32-5.34,9.88-5.67-4.38-1.76,14-3.88,4-5.32-4.51.07,5.71-1.93,15.56-3.63,12.56s-.88-16.55-.94-21.75c-2.42,6.52-3.52,16.65-5.5,23.57-3.12,10.92-2.79,4.44-4.56-5-2,23.13-9.06-2.9-10.64-19.07.7,17.34-1.57,29.58-5.62,23.62-3.28-4.85-4.86-18.85-8.05-4.19-1.28-3.25-5-15.62-6.42-19.17.61,6.91.6,15-1,19.78-1.16,3.47-4.34,2.82-5.87,5.64-.15.28-3.83-1.11-3.62-5.06-3,4.5-4.87,4.18-6.26-4.32-.91,3.2-2.67,14.12-4.23,10.37-1.8-4.32.21-22.4.11-28.41-2,8.31-4.38,14.7-5.06,25.71-1.66,1.39-9.15.59-8.11-8.44-1.07,1-8.74,26.22-7,6.93-2.16,12.14-3.3,24.1-7.81,16-5-8.89-3.77-25-3.24-40.32-1,11.45-2.15,29.4-4.73,37.68-1.11,3.53-2.82,6.35-4.32,4.73-1.24-1.33-2.37-6.29-2.5-10.1-5,14.19-6.21-6.26-7.64-19.64.35,10.19-2.46,20.71-4.78,23.65-3.55,4.51-3.26-3.26-6-9.35-3.6,15.12-7.32,10.12-5.21-10-2.14,1.69-4.61,12-5.51,18.67-.56-11-7.48-23-9.05-24.24,3,7.09,2.16,32.16-1.31,33.25.21-7.19-2-11.37-3.38-14.92-1.36,9-1.36,20-5.09,18.91-1.82-.5-5.07-6.82-6.13-16.81-.12,44.06-15.93-4.34-20.42-11.3,0,6.67-.92,13.66-2.3,18-1.89-13.49-7.91-24.46-9.88-28.13a69.38,69.38,0,0,1,1,25.95c-2.42,14.49-4.2,4.32-6.36-.5-.66-1.46-4.76-6.36-7.86-5.84-2.85-.52-6.62,4.38-7.22,5.84-2,4.82-3.63,15-5.85.5a75.13,75.13,0,0,1,1-25.95c-1.82,3.67-7.35,14.64-9.09,28.13-1.27-4.32-2.08-11.31-2.11-18-4.13,7-18.66,55.36-18.77,11.3-1,10-4,16.31-5.64,16.81-3.43,1-3.43-9.86-4.68-18.91-1.31,3.55-3.3,7.73-3.1,14.92-3.19-1.09-4-26.16-1.21-33.25-1.44,1.23-7.8,13.22-8.31,24.24-.83-6.71-3.1-17-5.07-18.67,1.94,20.13-1.48,25.13-4.79,10-2.48,6.09-2.21,13.86-5.48,9.35-2.13-2.94-4.71-13.46-4.39-23.65-1.31,13.38-2.45,33.83-7,19.64-.12,3.81-1.16,8.77-2.3,10.1-1.38,1.62-3-1.2-4-4.73-2.38-8.28-3.47-26.23-4.35-37.68.49,15.34,1.6,31.43-3,40.32-4.15,8.07-5.19-3.89-7.18-16,1.61,19.29-5.45-5.94-6.43-6.93.95,9-5.93,9.83-7.46,8.44-.62-11-2.81-17.4-4.64-25.71-.1,6,1.75,24.09.09,28.41-1.43,3.75-3.05-7.17-3.88-10.37-1.28,8.5-3,8.82-5.76,4.32.2,4-3.19,5.34-3.32,5.06-1.41-2.82-4.33-2.17-5.4-5.64-1.5-4.82-1.51-12.87-1-19.78-1.26,3.55-4.72,15.92-5.9,19.17-2.93-14.66-4.38-.66-7.4,4.19-3.72,6-5.81-6.28-5.16-23.62-1.46,16.17-7.91,42.2-9.78,19.07-1.63,9.4-1.32,15.88-4.19,5-1.82-6.92-2.83-17.05-5.06-23.57-.06,5.2.68,18.78-.86,21.75s-3.41-6.85-3.34-12.56c-1.33,8.49-3.27,18.55-4.89,4.51-.3,14.26-3.86,15.7-5.22,4.38-.31,8.34-1.93,11-3.28,5.63-1.2-4.85-.48-18-.13-24.83-1.45,14.67-3.83,32.27-7,20.34-.25-.91-2.82-7.7-1.54-24.92-3.42,8.42-2.54,19.22-7.35,11.6-1.77-2.81-3.29-8.34-4.31-13-.44,4-.81,13.07-2,15.86-1.52,3.49-3.94-2.76-4.43-2.61-1.59.55-2.37,5.4-4.24,5.93-1.34.36-4.51,1.59-5.61-.81-1.17-2.57-1.32-11.53-1.61-15.68-.08,4.41-.8,17.33-3,16.53-.93-.33-1.71-5.34-3.29-5.78.46.36.08,7.64-1,7.6-2.89-.1-5.17-9.47-6.09-19.36-1.55,13-2.74,35.2-6,42.87-1.93-7.37-1.91-23.55-2.68-33-2.57,16.83-6.14,26.83-6.27-2.18-.44,7-.69,9.92-1.8,12.27-.86,1.83-.74-22.32-.91-24.36-1.44,22.89-9.48,45.8-12.27,14.31.07,8.43,1.16,27.75-1.61,29.6S505.81,746,505,736.52c-.48,14.13-.47,16.67-3.58,12.84-2.23-2.73-3.84-9.64-6.11-11.93-.37,2.5-5.46,29.12-5.32,29.32-1.41-2-2.51-7-2.88-12.45-2.16,4.39-3.88,14-5.43,21.31-1.75-3.17-2.55-11.32-3.81-14.14-.56,9.5-15.67,17.74-11.23-1.26-3.45,7.17-7.08,13.5-11,7.29.08-1.88,0-3.74,0-5.59,0,1.16-5.51,16.82-6.09,17.2-2.4,1.6-4-6.17-3.89-14.77-.91,9.14-2.5,21.08-5.25,13.56-1.78-4.89-1.34-15.58-1.53-22.69-1.33,2.33-5.3,25.8-7.8,23.13-2.81-3-3.21-42.07-5.65-25.33-3.31-4.48-4.66-22.16-7.07-26.25,1.73,5.51-1.52,29.84-2.92,33.9-2.08,6.09-5.64,15.46-8,9.18s-2.71-22.15-2.91-33.86c-.6,11-1.76,18.75-3.33,24.19-1,3.35-2.79-11.42-2.92-13.31-1.82,3.56-2.16-5.85-2.26-11.47-1.95,11.76-3.45,31.8-8,28.13s-4.53-23.37-5-41.24c-.33,11.61-.47,28.66-2.36,37.93-2.2,10.76-5.79,2.7-6-12.66-.22,5.57-.65,18.31-2.46,20-2,1.81-2.61-9.77-3.52-14.79-.76,6.14-1.72,17.06-4.06,16.08-4.29-1.8-2.53-30.75-6.38-11.13-2.15,10.93-2.5,14.53-5.59,3.48-2.52-9-4.64-23.38-7.51-30.11-.29,8,2.66,27.4-.94,31-1.82,1.79-3.84-9.41-5.1-13.46-.27,11.4,0,16.46-3,13.38-.83-.85-2.57-8.2-3.29-7.87-3.58,1.6-4.55,28.34-8.66,30.71-2.07-9-1.76-29.43-3.58-34.53,2,12.37-8.79,20.85-12.11,11.11-1.59-4.67-2.12-14.62-2.3-21.75-3.3,12.13-2.21,27.5-3.58,41.9-2.52.61-3.53-14.4-4.66-21.33-.37,9.92-2.95,13.83-4.29,4.14-2.07,18.36-5.72-.38-5.63-13.29-2.69,35.37-8.93-6-9.88-22.85.18,17.84-1.92,28.06-4,35.19-.69-5.83-1.94-10.6-2-17.17-.95,2.48-3.2,28.55-3.48,28.47-1.42-.56-2.36-6.41-3.23-10.14-4.9,16.69-8.46-4.43-10-24.92-.43,9.18-6.57,14.18-3.6,27.85-2.42-5.88-3.91-13-6-17.78,0,0-.38,11-.4,12.13-1.48,1.17-2.66-3.44-2.9-9.22-.1-2.35-4.21,7.22-4.69,7.12-2.29-.51-2.6-12.11-.35-14-2.33-.74-5.67,13.29-6.44,14-2.81,2.38-6.08-14.36-7.67-18.09,1,4.82-.65,18.77-2.89,20.72-3.62,3.17-5.94-14.35-7.44-20.55-2.58,3.12-3.64,12.79-4.61,19.46-1.81,1-3-2-3.22-6.56-1.52,3.74-1.68,17-5.12,18.18-.2.06-3-18.24-3.58-20a60.57,60.57,0,0,0-1.89,15.63c-3.27-4.83-7.15,4.94-9.09,15.47-3.19-1.17-2.84-25.6-2.72-33.51-.41,4.52-2.05,24.52-3.92,24.17s-2.37-11.76-2.33-16.7c-1.21,8.74-2,11-3.39,6.76-1.19-3.59-2.82-18-4.34-23.59.45,6.63-2.89,31.6-3.75,32.47-2.51,2.57-4.22-16.46-4.68-22.62-.27,7.35-.7,26.21-3.4,27-1.71.47-2.6-8-3.79-11.77-3.25,19-7.84,8.86-8.06-12.49-3.83,10.54-3.32,29.71-5.34,33.65.09-6-4.33-29.9-4.58-28.25-1,6.53-.21,22.11-.5,29.92.08-2.12-9.87-32.66-12.58-41.4,4.54,21,2,53.06-3.23,28.64-.08,10.38-.17,24.77-3.36,13.3-1.14,4.43-1.39,11-3.32,10.68-3.1-.58-5.29-28.65-5.63-41.09-.17,7.26-.45,21.37-2.07,23.79-1.37,2-2.82-3.65-4.21-3.8s-2.75,4.23-4.29,3.7c-.15-6.3,0-12.74-.25-19.09-.73,7.45-1.79,16.53-3.66,23.09-1.09-19.42-2.1-48.79-5.29-64.86.29,1.46,0,22,.08,25.08.11,14.51-.75,27.38-3.37,38.32-7.26,30.28-10.91-14-13.39-34.13.34,14.3-1.53,35.18-4.47,44.35a102.84,102.84,0,0,1-2.17-12.71c-2.19,16.88-3.34,19.15-6.56,6.07-1.58,14-4.5,8.61-5.87-2.81-1.15-9.58-.59-21.14-1.6-31-3.1,7.22-6.17,27.84-7.15,41.35-2.2,1.31-3.59-7-5.38-5.47S34.5,804.48,32.69,807c-3.29,4.64-3-11.57-5.68-13.17-2.45-1.43-3.56,12.58-6.56,9.46S15,778.74,13.37,769.41c0,17.59.15,30.08-5.42,31.7-1.4.39-1.67-2.59-3.06-1C2.12,803.3-3,818.91-5.74,814.45c-2-3.27-2.67-22.7-3-31.45,0,13.06-2.92,42.77-5.38,18-2.07,6.78-2.83,10.42-5.74,11.71-1.65.72-4.06-13.12-5.41-32.37-1.32,5.78-.67,24.05-4.13,22.08-3-1.7-3.71-18-5.2-23.66-.77,4.34-3.15,14.35-4.14,13,.71-20.52-2-31-3.47-36.63,2.36,25.57-5.26,41.35-10.6,51.87,0-1.75-2.39-9.76-2.5-11.73-3.48,14.42-4.62.31-7.7-5-.25,2,.21,10.16-1.78,11.64.14-5.75-1.33-15.4-1.63-20.69C-68,783-67.4,796-68.2,795.35c-2.65-25.42-3.9-21.54-4.49-29.2,0,19.15-2.16,32.75-2,49.61-1.89-6.6-2.33-14.47-1.82-22.53C-77.84,804.3-81,817.59-83.86,807c-.92-3.48-1.06-12.39-1.41-17.08-.84,11.82-3.14,29.11-6.8,30.11-3.9,1.08-5.42-14.07-5.75-27.76-.27,10.56-1,24.86-3.86,28-2.22,2.42-5-4-5.81-15.69,0,5.05-4.12,12.78-5,15.48-1.9,5.6-4.14,11.66-4.77,21-2.19-8.67-3.67-31.9-1.79-46.52-1.82,9-3.17,27.36-5.55,23.31-1.15-2-3.61-24.56-2.44-30.16-2.15,4.34-5.48,18.32-6.05,29.24-.86-2.13-1.4-6.07-1.83-10.16-1.46,7-2.54,17.42-5.23,18.18a61.23,61.23,0,0,1-.33-15.52c-.87,3.21-1.47,13-3.5,15-.42-12.12-1.5-22.3-.68-35-2.1,13.88-4.1,16.15-5.61,21.43-2,6.89-3.47,16.74-6.07,20s-2.79-11-2.73-20.39c-1.38,7.35-3.38,16.2-5.57,20-.1-2.07-.63-4-.71-6.32-1.11,1.17-2.27,2.52-3.5,2-.08-1.75-.29-2.8-.4-4.25-1.49,3.64-6.25,12.7-8,10.23-4.26-6-2.44-30-.67-39.8-2,6.81-5.81,13.05-7.91,22.87-1.4,6.51-1.58,12.83-3.9,15.59a194.61,194.61,0,0,1-1.52-29.32c-1.5,8.26-8.67,37.21-9.57,11.94-.76,6.35-2.1,16.86-3.95,19.67-2.72,4.13-3.64-10.22-3.88-10-2.5,2.16-2.82-5.45-2.63-13.56-1.07,6.47-1.08,13.92-2.85,15.24-1.27.95-1.5-4.88-2.55-3.89-.63.58-1.3,5.83-2.25,12.61v17.72H1911.34V833.43C1910.3,826.65,1909.58,821.4,1908.89,820.82Z"/><path class="cls-15" d="M1919,863.46c-1.23-1.42-1.5,6.93-3,5.58-2.09-1.91-2.1-12.58-3.36-21.87.22,11.63-.16,22.55-3.1,19.45-.28-.29-1.37,20.28-4.56,14.37-2.19-4-3.77-19.12-4.65-28.22-1.07,36.24-9.51-5.28-11.28-17.12a336,336,0,0,1-1.79,42c-2.72-4-2.93-13-4.58-22.36-2.48-14.08-7-23-9.31-32.79,2.08,14.1,4.22,48.48-.8,57.08-2.08,3.55-7.69-9.45-9.44-14.68-.13,2.08-.37,3.6-.47,6.1-1.44.79-2.81-1.15-4.12-2.82-.1,3.39-.71,6.08-.84,9.07-2.57-5.41-4.93-18.1-6.55-28.64.07,13.5-.19,33.86-3.22,29.25s-4.81-18.83-7.14-28.72c-1.78-7.57-4.14-10.83-6.61-30.74,1,18.28-.3,32.88-.79,50.27-2.39-2.78-3.11-16.87-4.13-21.46a107,107,0,0,1-.39,22.25c-3.17-1.08-4.44-16-6.16-26.07-.5,5.87-1.14,11.52-2.15,14.58-.67-15.67-4.59-35.72-7.12-41.94,1.37,8-1.52,40.44-2.87,43.25-2.81,5.82-4.39-20.57-6.54-33.44,2.22,21,.48,54.29-2.11,66.73-.74-13.44-3.37-22.13-5.61-30.16-1.07-3.88-5.89-15-5.93-22.2-.88,16.73-4.22,26-6.84,22.5-3.4-4.53-4.23-25-4.54-40.19-.38,19.64-2.18,41.36-6.76,39.82-4.31-1.44-7-26.24-8-43.19-.4,6.72-.57,19.5-1.66,24.5-3.31,15.13-7.08-3.93-8.63-19.81.6,11.56.08,22.85-2.15,32.31.18-24.18-2.35-43.68-2.36-71.15-.7,11-2.17,5.42-5.28,41.88-1,.91-.28-17.72-2.05-20.3-.35,7.59-2.08,21.44-1.91,29.68-2.35-2.12-1.8-13.88-2.11-16.69-3.62,7.55-5,27.79-9.06,7.11-.13,2.83-2.9,14.32-2.94,16.83-6.28-15.1-15.26-37.73-12.48-74.4-1.71,8-4.91,23.11-4.08,52.54-1.17,1.95-4-12.41-4.87-18.64-1.76,8.17-2.59,31.5-6.13,33.94-4.07,2.83-3.31-23.38-4.86-31.68-1.6,27.62-4.43,47.48-6.37,46.43-3.43-1.85-4.33-7.06-6.76-16.79-2.89,35.6-6.31-7-6.34-25.75-.44,12.55-1.17,40.43-3.58,45.12-3.24,6.39-9.26-16-12.52-20.57-1.64-2.28-2,2-3.6,1.43-6.56-2.32-6.43-20.23-6.39-45.46-1.95,13.38-4.64,43.95-8.33,48.6-3.52,4.48-4.84-15.61-7.72-13.56-3.18,2.29-2.81,25.54-6.69,18.88-2.13-3.62-3.31-21.08-5.28-23.09s-3.74,9.73-6.33,7.85c-1.14-19.37-4.76-49-8.42-59.31-1.18,14.2-.53,30.78-1.87,44.52-1.62,16.38-5,24.13-6.92,4-3.79,18.76-5.14,15.51-7.72-8.71a177.35,177.35,0,0,1-2.55,18.23c-3.47-13.15-5.67-43.09-5.27-63.61-2.92,28.92-7.22,92.39-15.76,49-3.09-15.69-4.1-34.15-4-55,0-4.44-.26-33.88.08-36-3.76,23.06-4.94,65.19-6.23,93-2.19-9.41-3.44-22.43-4.31-33.12-.27,9.11-.11,18.35-.29,27.38-1.81.76-3.39-5.56-5-5.3s-3.34,8.39-5,5.45c-1.91-3.47-2.24-23.72-2.44-34.12-.4,17.84-3,58.1-6.63,58.93-2.27.49-2.57-9-3.91-15.32-3.75,16.45-3.86-4.18-4-19.07-6.11,35-9.15-11-3.81-41.09-3.18,12.55-14.9,56.34-14.81,59.39-.34-11.21.57-33.56-.59-42.91-.29-2.38-5.49,31.85-5.39,40.51-2.37-5.65-1.78-33.15-6.29-48.27-.25,30.63-5.66,45.2-9.48,17.93-1.41,5.47-2.45,17.55-4.46,16.87-3.18-1.08-3.69-28.14-4-38.68-.54,8.84-2.55,36.13-5.51,32.45-1-1.26-4.94-37.07-4.41-46.58-1.79,8-3.71,28.68-5.12,33.83-1.64,6-2.56,2.85-4-9.68,0,7.08-.7,23.47-2.75,23.94-2.2.5-4.13-28.17-4.61-34.66.14,11.35.56,46.38-3.21,48.06-2.28-15.1-6.85-29.11-10.7-22.2-.07-8.59-.82-16.65-2.21-22.41-.69,2.6-4,28.84-4.23,28.76-4-1.75-4.23-20.71-6-26.08-.28,6.56-1.66,10.86-3.79,9.42-1.15-9.57-2.39-23.45-5.43-27.93-1.76,8.9-4.49,34-8.76,29.49-2.64-2.8-4.54-22.8-3.4-29.72-1.87,5.34-5.72,29.36-9,25.94-.9-1-4.83-21.11-7.57-20,2.64,2.73,2.28,19.36-.41,20.09-.57.15-5.41-13.58-5.53-10.2-.28,8.28-1.67,14.9-3.41,13.21,0-1.56-.46-17.43-.48-17.38-2.41,6.82-4.16,17.07-7,25.5,3.5-19.62-3.73-26.78-4.24-40-1.76,29.39-6,59.69-11.71,35.75-1,5.35-2.14,13.74-3.8,14.54-.33.12-3-37.28-4.11-40.84-.07,9.43-1.53,16.28-2.35,24.63-2.48-10.21-5-24.87-4.74-50.47-1.12,24.12-8.47,83.51-11.64,32.77.11,18.53-4.19,45.4-6.62,19.06-1.58,13.91-4.62,8.3-5.06-5.93-1.33,9.94-2.51,31.47-5.48,30.59-1.61-20.65-.33-42.7-4.21-60.1-.21,10.24-.83,24.51-2.71,31.2-3.9,14-16.58,1.81-14.26-15.93-2.14,7.32-1.78,36.63-4.22,49.52-4.84-3.39-6-41.75-10.19-44-.84-.47-2.89,10.07-3.87,11.29-3.56,4.42-3.18-2.84-3.5-19.19-1.48,5.81-3.85,21.86-6,19.3-4.24-5.16-.77-33-1.11-44.46-3.38,9.65-5.88,30.31-8.84,43.19-3.64,15.84-4,10.68-6.58-5-4.54-28.15-2.46,13.37-7.51,16-2.76,1.41-3.89-14.25-4.78-23.06-1.08,7.2-1.82,23.81-4.15,21.22-2.12-2.4-2.63-20.68-2.89-28.65-.26,22-4.49,33.59-7.07,18.15-2.23-13.29-2.4-37.75-2.79-54.41-.52,25.64-.28,53.7-5.85,59.15-5.4,5.27-7.17-23.47-9.47-40.35-.11,8.07-.51,21.57-2.66,16.46-.15,2.7-2.28,23.89-3.44,19.08-1.84-7.8-3.21-18.93-3.91-34.68-.24,16.79-.71,39.58-3.42,48.56s-6.92-4.44-9.37-13.17c-1.64-5.82-5.48-40.72-3.44-48.62-2.83,5.86-4.42,31.23-8.32,37.66-2.87-24-3.34,32-6.66,36.33-2.93,3.83-7.6-29.84-9.18-33.18-.21,10.19.31,25.53-1.8,32.54-3.24,10.79-5.1-6.34-6.17-19.46.07,12.34-1.76,23.49-4.59,21.2-.67-.56-7.14-23-7.16-24.68,0,2.66-.06,5.33,0,8-4.58,8.9-8.86-.17-12.92-10.46,5.23,27.25-12.55,15.43-13.22,1.8-1.48,4-2.42,15.74-4.48,20.28-1.83-10.54-3.85-24.26-6.39-30.56-.44,7.86-1.73,15-3.4,17.85.18-.27-5.82-38.46-6.26-42-2.66,3.28-4.57,13.19-7.19,17.11-3.66,5.49-3.65,1.86-4.22-18.41-.9,13.53-5.78,42.14-9,39.58s-2-30.38-1.9-42.46c-3.28,45.17-12.74,12.3-14.44-20.53-.2,2.93,0,37.57-1.06,34.94-1.31-3.37-1.62-7.59-2.13-17.6-.15,41.61-4.35,27.27-7.38,3.13-.9,13.5-.88,36.7-3.16,47.28-3.83-11-5.23-42.89-7.05-61.5-1.09,14.19-3.77,27.63-7.18,27.77-1.29.06-1.74-10.39-1.2-10.9-1.86.63-2.77,7.82-3.87,8.29-2.63,1.15-3.48-17.38-3.57-23.71-.34,5.95-.52,18.81-1.89,22.5-1.3,3.43-5,1.67-6.61,1.15-2.2-.75-3.11-7.72-5-8.5-.58-.21-3.42,8.75-5.21,3.75-1.45-4-1.89-17-2.41-22.76-1.2,6.75-3,14.68-5.08,18.7-5.65,10.94-4.62-4.55-8.65-16.63,1.51,24.7-1.51,34.43-1.81,35.75-3.79,17.11-6.59-8.13-8.3-29.19.41,9.8,1.26,28.66-.15,35.63-1.59,7.76-3.5,3.88-3.87-8.08-1.6,16.24-5.78,14.17-6.14-6.28-1.9,20.13-4.19,5.71-5.76-6.47.08,8.18-2.09,22.32-3.93,18s-.94-23.74-1-31.2c-2.62,9.36-3.81,23.89-6,33.81-3.37,15.67-3,6.37-4.93-7.12-2.21,33.18-9.8-4.16-11.51-27.35.76,24.87-1.69,42.44-6.08,33.88-3.56-7-5.26-27-8.72-6-1.38-4.66-5.45-22.4-6.94-27.49.66,9.9.65,21.45-1.11,28.37-1.26,5-4.71,4-6.36,8.09-.16.41-4.14-1.59-3.92-7.25-3.2,6.45-5.27,6-6.77-6.21-1,4.6-2.89,20.26-4.58,14.88-1.94-6.2.23-32.13.12-40.76-2.16,11.93-4.74,21.09-5.47,36.89-1.8,2-9.9.84-8.78-12.11-1.16,1.43-9.46,37.61-7.57,9.93-2.34,17.43-3.57,34.58-8.46,23-5.38-12.75-4.07-35.84-3.5-57.84-1,16.42-2.33,42.17-5.13,54-1.19,5.07-3,9.11-4.67,6.79-1.34-1.91-2.56-9-2.7-14.48-5.38,20.35-6.72-9-8.27-28.18.38,14.62-2.66,29.72-5.17,33.92-3.85,6.48-3.53-4.67-6.45-13.41-3.9,21.69-7.93,14.52-5.64-14.35-2.32,2.42-5,17.16-6,26.78-.61-15.81-8.09-33-9.79-34.78,3.24,10.17,2.33,46.14-1.42,47.7.23-10.31-2.11-16.31-3.66-21.39-1.47,13-1.47,28.61-5.51,27.11-2-.71-5.48-9.78-6.63-24.11-.13,63.19-17.24-6.22-22.11-16.21,0,9.57-1,19.59-2.48,25.8-2-19.35-8.56-35.09-10.7-40.36,1.95,9.68,2.65,25.17,1.13,37.22-2.62,20.79-4.55,6.2-6.89-.7-.72-2.1-5.15-9.13-8.51-8.39-3.08-.74-7.16,6.29-7.81,8.39-2.16,6.9-3.93,21.49-6.33.7a141.89,141.89,0,0,1,1-37.22,159,159,0,0,0-9.84,40.36c-1.37-6.21-2.25-16.23-2.28-25.8-4.47,10-20.2,79.4-20.32,16.21-1,14.33-4.29,23.4-6.09,24.11-3.71,1.5-3.71-14.14-5.07-27.11-1.42,5.08-3.57,11.08-3.36,21.39-3.45-1.56-4.29-37.53-1.3-47.7-1.57,1.77-8.45,19-9,34.78-.9-9.62-3.35-24.36-5.48-26.78,2.1,28.87-1.61,36-5.19,14.35-2.68,8.74-2.39,19.89-5.93,13.41-2.3-4.2-5.1-19.3-4.75-33.92-1.42,19.2-2.65,48.53-7.6,28.18-.13,5.45-1.25,12.57-2.49,14.48-1.49,2.32-3.19-1.72-4.29-6.79-2.57-11.87-3.76-37.62-4.71-54,.53,22,1.73,45.09-3.22,57.84-4.49,11.57-5.62-5.58-7.77-23,1.73,27.68-5.9-8.5-7-9.93,1,12.95-6.41,14.1-8.07,12.11-.67-15.8-3-25-5-36.89-.11,8.63,1.89,34.56.11,40.76-1.56,5.38-3.31-10.28-4.21-14.88-1.38,12.2-3.28,12.66-6.23,6.21.21,5.66-3.45,7.66-3.6,7.25-1.52-4-4.68-3.11-5.84-8.09-1.62-6.92-1.63-18.47-1-28.37-1.36,5.09-5.1,22.83-6.38,27.49-3.17-21-4.74-.95-8,6-4,8.56-6.28-9-5.59-33.88-1.57,23.19-8.55,60.53-10.58,27.35-1.76,13.49-1.43,22.79-4.53,7.12-2-9.92-3.07-24.45-5.48-33.81-.06,7.46.74,26.95-.93,31.2s-3.68-9.83-3.61-18c-1.44,12.18-3.54,26.6-5.29,6.47-.33,20.45-4.18,22.52-5.65,6.28-.34,12-2.09,15.84-3.55,8.08-1.3-7-.52-25.83-.14-35.63-1.57,21.06-4.14,46.3-7.63,29.19-.27-1.32-3.05-11-1.67-35.75-3.7,12.08-2.75,27.57-7.95,16.63-1.91-4-3.56-11.95-4.67-18.7-.47,5.81-.87,18.75-2.21,22.76-1.64,5-4.26-4-4.79-3.75-1.72.78-2.56,7.75-4.58,8.5-1.46.52-4.88,2.28-6.08-1.15-1.26-3.69-1.43-16.55-1.74-22.5-.08,6.33-.86,24.86-3.28,23.71-1-.47-1.85-7.66-3.56-8.29.5.51.08,11-1.1,10.9-3.13-.14-5.6-13.58-6.6-27.77-1.67,18.61-3,50.49-6.48,61.5-2.09-10.58-2.07-33.78-2.9-47.28-2.79,24.14-6.65,38.48-6.79-3.13-.47,10-.75,14.23-1.95,17.6-.93,2.63-.8-32-1-34.94-1.56,32.83-10.26,65.7-13.28,20.53.08,12.08,1.25,39.8-1.74,42.46s-7.42-26-8.25-39.58c-.52,20.27-.51,23.9-3.87,18.41-2.42-3.92-4.16-13.83-6.61-17.11-.41,3.59-5.92,41.78-5.76,42-1.53-2.81-2.72-10-3.12-17.85-2.34,6.3-4.2,20-5.88,30.56-1.89-4.54-2.76-16.23-4.11-20.28-.62,13.63-17,25.45-12.16-1.8-3.73,10.29-7.67,19.36-11.87,10.46.08-2.7,0-5.37,0-8,0,1.66-6,24.12-6.59,24.68-2.59,2.29-4.28-8.86-4.21-21.2-1,13.12-2.7,30.25-5.68,19.46-1.93-7-1.46-22.35-1.65-32.54-1.45,3.34-5.74,37-8.44,33.18-3-4.34-3.49-60.35-6.12-36.33-3.58-6.43-5-31.8-7.65-37.66,1.87,7.9-1.65,42.8-3.16,48.62-2.26,8.73-6.11,22.18-8.61,13.17s-2.93-31.77-3.15-48.56c-.64,15.75-1.9,26.88-3.59,34.68-1.07,4.81-3-16.38-3.16-19.08-2,5.11-2.35-8.39-2.45-16.46-2.12,16.88-3.74,45.62-8.7,40.35-5.13-5.45-4.91-33.51-5.38-59.15-.36,16.66-.52,41.12-2.56,54.41-2.38,15.44-6.27,3.87-6.5-18.15-.24,8-.71,26.25-2.66,28.65-2.14,2.59-2.82-14-3.81-21.22-.82,8.81-1.86,24.47-4.4,23.06-4.64-2.58-2.73-44.1-6.9-16-2.33,15.67-2.7,20.83-6,5-2.72-12.88-5-33.54-8.12-43.19-.32,11.5,2.87,39.3-1,44.46-2,2.56-4.15-13.49-5.51-19.3-.3,16.35.06,23.61-3.22,19.19-.9-1.22-2.78-11.76-3.56-11.29-3.87,2.29-4.92,40.65-9.37,44-2.24-12.89-1.9-42.2-3.87-49.52,2.14,17.74-9.52,29.9-13.11,15.93-1.72-6.69-2.3-21-2.48-31.2-3.57,17.4-2.4,39.45-3.88,60.1-2.72.88-3.82-20.65-5-30.59-.4,14.23-3.19,19.84-4.65,5.93-2.23,26.34-6.18-.53-6.09-19.06-2.91,50.74-9.66-8.65-10.69-32.77.19,25.6-2.08,40.26-4.36,50.47-.75-8.35-2.1-15.2-2.16-24.63-1,3.56-3.47,41-3.78,40.84-1.53-.8-2.55-9.19-3.49-14.54-5.3,23.94-9.15-6.36-10.76-35.75-.47,13.18-7.12,20.34-3.9,40-2.62-8.43-4.23-18.68-6.45-25.5,0-.05-.42,15.82-.44,17.38-1.59,1.69-2.87-4.93-3.13-13.21-.11-3.38-4.56,10.35-5.08,10.2-2.48-.73-2.81-17.36-.38-20.09-2.51-1.06-6.13,19.07-7,20-3.05,3.42-6.58-20.6-8.31-25.94,1,6.92-.69,26.92-3.13,29.72-3.91,4.55-6.42-20.59-8-29.49-2.8,4.48-3.94,18.36-5,27.93-2,1.44-3.22-2.86-3.48-9.42C73.94,774,73.77,792.94,70,794.69c-.21.08-3.25-26.16-3.88-28.76a114.82,114.82,0,0,0-2,22.41c-3.53-6.91-7.73,7.1-9.83,22.2-3.46-1.68-3.08-36.71-2.95-48.06-.44,6.49-2.21,35.16-4.24,34.66s-2.56-16.86-2.52-23.94c-1.31,12.53-2.16,15.72-3.67,9.68-1.28-5.15-3-25.85-4.7-33.83.49,9.51-3.12,45.32-4.05,46.58-2.72,3.68-4.57-23.61-5.07-32.45-.29,10.54-.76,37.6-3.68,38.68-1.85.68-2.81-11.4-4.1-16.87-3.51,27.27-8.49,12.7-8.72-17.93C6.44,782.18,7,809.68,4.81,815.33c.1-8.66-4.69-42.89-4.95-40.51-1.07,9.35-.24,31.7-.55,42.91.09-3.05-10.68-46.84-13.61-59.39,4.91,30.12,2.12,76.12-3.5,41.09-.08,14.89-.18,35.52-3.63,19.07-1.23,6.35-1.51,15.81-3.59,15.32-3.36-.83-5.73-41.09-6.1-58.93-.18,10.4-.48,30.65-2.24,34.12-1.48,2.94-3-5.24-4.55-5.45s-3,6.06-4.65,5.3c-.16-9,0-18.27-.26-27.38-.8,10.69-2,23.71-4,33.12-1.18-27.85-2.27-70-5.72-93,.32,2.1,0,31.54.08,36,.12,20.82-.81,39.28-3.64,55-7.86,43.43-11.81-20-14.5-49,.38,20.52-1.65,50.46-4.83,63.61-1-4.76-1.7-11.75-2.35-18.23-2.37,24.22-3.61,27.47-7.1,8.71-1.71,20.1-4.87,12.35-6.35-4-1.24-13.74-.64-30.32-1.73-44.52-3.36,10.35-6.68,39.94-7.74,59.31-2.38,1.88-3.88-10-5.82-7.85s-2.89,19.47-4.85,23.09c-3.56,6.66-3.23-16.59-6.15-18.88-2.65-2-3.85,18-7.09,13.56-3.39-4.65-5.87-35.22-7.66-48.6,0,25.23.16,43.14-5.88,45.46-1.5.56-1.8-3.71-3.3-1.43-3,4.57-8.53,27-11.51,20.57-2.21-4.69-2.89-32.57-3.29-45.12,0,18.74-3.17,61.35-5.83,25.75-2.24,9.73-3.06,14.94-6.21,16.79-1.79,1-4.39-18.81-5.85-46.43-1.43,8.3-.73,34.51-4.47,31.68-3.26-2.44-4-25.77-5.64-33.94-.82,6.23-3.4,20.59-4.47,18.64.76-29.43-2.18-44.51-3.76-52.54,2.56,36.67-5.69,59.3-11.47,74.4,0-2.51-2.58-14-2.7-16.83-3.76,20.68-5,.44-8.33-7.11-.28,2.81.22,14.57-1.94,16.69.16-8.24-1.43-22.09-1.75-29.68-1.63,2.58-1,21.21-1.88,20.3-2.87-36.46-4.22-30.89-4.86-41.88,0,27.47-2.33,47-2.17,71.15-2-9.46-2.53-20.75-2-32.31-1.43,15.88-4.9,34.94-7.94,19.81-1-5-1.15-17.78-1.53-24.5-.91,16.95-3.4,41.75-7.36,43.19-4.22,1.54-5.87-20.18-6.22-39.82-.29,15.14-1.05,35.66-4.18,40.19-2.4,3.48-5.47-5.77-6.28-22.5,0,7.24-4.47,18.32-5.45,22.2-2.06,8-4.48,16.72-5.16,30.16-2.38-12.44-4-45.75-1.94-66.73-2,12.87-3.43,39.26-6,33.44-1.24-2.81-3.9-35.23-2.64-43.25-2.32,6.22-5.92,26.27-6.54,41.94-.93-3.06-1.52-8.71-2-14.58-1.58,10-2.75,25-5.66,26.07a115.93,115.93,0,0,1-.36-22.25c-.94,4.59-1.6,18.68-3.79,21.46-.45-17.39-1.62-32-.73-50.27-2.27,19.91-4.44,23.17-6.07,30.74-2.15,9.89-3.75,24-6.57,28.72s-3-15.75-3-29.25c-1.49,10.54-3.65,23.23-6,28.64-.12-3-.68-5.68-.77-9.07-1.2,1.67-2.46,3.61-3.79,2.82-.09-2.5-.31-4-.43-6.1-1.61,5.23-6.76,18.23-8.68,14.68-4.62-8.6-2.64-43-.73-57.08-2.14,9.76-6.29,18.71-8.56,32.79-1.51,9.34-1.71,18.41-4.21,22.36a363.67,363.67,0,0,1-1.65-42c-1.62,11.84-9.38,53.36-10.36,17.12-.82,9.1-2.27,24.18-4.28,28.22-2.93,5.91-3.93-14.66-4.19-14.37-2.7,3.1-3.05-7.82-2.85-19.45-1.16,9.29-1.17,20-3.08,21.87-1.38,1.35-1.63-7-2.76-5.58-.69.83-1.41,8.36-2.44,18.08V907H1921.67V881.54C1920.54,871.82,1919.76,864.29,1919,863.46Z"/><path class="cls-16" d="M897.13,792s12.83-8.74,37.56-10.89S908.12,769.62,889.8,792C889.8,792,881.55,801.93,897.13,792Z"/><path class="cls-16" d="M862.31,793.23s37.57-28,59.56-35.41-21.08-8.08-50.39,15.22C871.48,773,856.82,787,862.31,793.23Z"/><path class="cls-16" d="M851.32,793.23s25-45.35,36.3-50.94-18-8.7-36.3,28.27C851.32,770.56,844,790.13,851.32,793.23Z"/><path class="cls-16" d="M838,793.23s9.62-41.62,18.79-47.84S822,752.23,838,793.23Z"/><path class="cls-16" d="M832.54,793.23s.46-34.68-19.24-40S824.75,775.84,832.54,793.23Z"/><path class="cls-16" d="M826.12,793.23s-12.36-39.74-42.6-40.68S807.34,767.14,826.12,793.23Z"/><path class="cls-16" d="M823.53,793.23s-16.19-16.15-43.67-14.91S816.81,788.26,823.53,793.23Z"/><path class="cls-16" d="M1156.05,795.52s21.15-14.41,61.93-18-43.8-18.92-74,18C1144,795.52,1130.37,811.9,1156.05,795.52Z"/><path class="cls-16" d="M1098.66,797.56s61.92-46.09,98.17-58.38-34.74-13.32-83.07,25.1C1113.76,764.28,1089.59,787.32,1098.66,797.56Z"/><path class="cls-16" d="M1080.53,797.56s41.14-74.77,59.84-84-29.63-14.34-59.84,46.61C1080.53,760.18,1068.45,792.44,1080.53,797.56Z"/><path class="cls-16" d="M1058.63,797.56s15.86-68.62,31-78.87S1032.2,730,1058.63,797.56Z"/><path class="cls-16" d="M1049.57,797.56s.75-57.17-31.72-66S1036.73,768.88,1049.57,797.56Z"/><path class="cls-16" d="M1039,797.56s-20.4-65.51-70.24-67.07S1008,754.54,1039,797.56Z"/><path class="cls-16" d="M1034.72,797.56s-26.69-26.63-72-24.58S1023.64,789.37,1034.72,797.56Z"/><path class="cls-16" d="M724.21,792.18s12.82-8.74,37.56-10.89-26.57-11.48-44.89,10.89C716.88,792.18,708.63,802.12,724.21,792.18Z"/><path class="cls-16" d="M689.39,793.42s37.56-28,59.55-35.41-21.07-8.08-50.39,15.22C698.55,773.23,683.89,787.21,689.39,793.42Z"/><path class="cls-16" d="M678.4,793.42s25-45.35,36.3-50.95-18-8.69-36.3,28.27C678.4,770.74,671.07,790.32,678.4,793.42Z"/><path class="cls-16" d="M665.11,793.42s9.62-41.63,18.78-47.84S649.08,752.42,665.11,793.42Z"/><path class="cls-16" d="M659.61,793.42s.46-34.68-19.24-40S651.83,776,659.61,793.42Z"/><path class="cls-16" d="M653.2,793.42s-12.37-39.74-42.6-40.68S634.42,767.33,653.2,793.42Z"/><path class="cls-16" d="M650.6,793.42s-16.18-16.15-43.67-14.91S643.89,788.45,650.6,793.42Z"/><path class="cls-16" d="M507.18,809.88s24.25-16.52,71-20.6-50.24-21.7-84.89,20.6C493.32,809.88,477.72,828.68,507.18,809.88Z"/><path class="cls-16" d="M441.34,812.23s71-52.87,112.62-67S514.11,730,458.66,774C458.66,774,430.94,800.48,441.34,812.23Z"/><path class="cls-16" d="M420.55,812.23s47.19-85.77,68.64-96.35-34-16.44-68.64,53.46C420.55,769.34,406.69,806.36,420.55,812.23Z"/><path class="cls-16" d="M395.43,812.23s18.19-78.72,35.51-90.47S365.11,734.68,395.43,812.23Z"/><path class="cls-16" d="M385,812.23s.87-65.58-36.38-75.68S370.3,779.33,385,812.23Z"/><path class="cls-16" d="M372.9,812.23s-23.39-75.15-80.56-76.94S337.38,762.88,372.9,812.23Z"/><path class="cls-16" d="M368,812.23s-30.61-30.55-82.58-28.2S355.29,802.83,368,812.23Z"/><path class="cls-15" d="M103.72,796.75c-12.9,1.12-6.2-94.21,3.87-121.84C118.54,716.71,133.78,794.13,103.72,796.75Z"/><path class="cls-15" d="M114.94,804.26c.47-1.87-63.16-141.6-69.34-149.66C69,678.84,136.43,790,115.41,802.39Z"/><path class="cls-15" d="M135.56,811.05c-25.22,3.11-115.4-121.93-125.33-145.56C61.49,702.57,141.39,810.34,135.56,811.05Z"/><path class="cls-15" d="M132.25,811.73q7,0,14.1.13c12.14-21.75,4.3-85.39.61-137.53-17.1,1.92-25.74,107.76-16.39,137.41Z"/><path class="cls-15" d="M132.25,811.73l4.17,0c-8.19-41.15-53-153.7-68.37-168.69-3.91,9.48,40.12,135.72,51.76,168.73Q126,811.74,132.25,811.73Z"/><path class="cls-15" d="M93.53,812.38q9.15-.3,18.32-.47C87.11,794.1,40,767.64-16.46,741.08q.42,6.38.94,12.73C27.71,776.82,66.77,797.89,93.53,812.38Z"/><path class="cls-15" d="M104.69,812.07q12.23-.3,24.47-.33c-27.72-29.49-86.68-76.86-147.59-114.27q.21,7.66.51,15.33C22.47,747.93,71.56,787.46,104.69,812.07Z"/><path class="cls-15" d="M33.18,797.83C51.93,805.07,63.6,808.68,76.47,813q13.05-.54,26.13-.9C63.44,793,3.8,765.25-2.67,764.28a104.85,104.85,0,0,0-12-.56q.75,8,1.62,16.06C-1.78,784.24,13.15,790.1,33.18,797.83Z"/><path class="cls-15" d="M139.88,806c12.6,4.54,26.87-95.84,25.07-125.1C141.45,718.15,110.55,795.43,139.88,806Z"/><path class="cls-15" d="M164,812.22c10.1-22.67,60.18-124.31,65.63-130.32C207.48,700.26,146,789.67,159.56,812.11Z"/><path class="cls-15" d="M168.62,812.33c33.34-21,88.95-104.09,92.11-123C223.6,714.59,164.09,791.91,154,812Q161.29,812.14,168.62,812.33Z"/><path class="cls-15" d="M132.25,811.73c2.79,0,5.59,0,8.38.06C149,781.65,136.14,662,118.82,655.86c-1.75,59.65-7.6,132.27,8.18,155.89Z"/><path class="cls-15" d="M152.6,812c13.13-36,51.78-143.42,47.91-153.32-15.11,11.56-57.85,113-66,153.1Q143.57,811.78,152.6,812Z"/><path class="cls-15" d="M183.41,812.71A922.64,922.64,0,0,1,348.47,753.9c-97,11.43-161.42,37.91-190.22,58.18C166.64,812.27,175,812.5,183.41,812.71Z"/><path class="cls-15" d="M181.92,812.67c46.2-26,112.42-67.84,149.1-95.88-72.15,21.71-148.53,66.3-185.48,95.06C157.67,812,169.79,812.36,181.92,812.67Z"/><path class="cls-15" d="M204.89,813.18q11.78.18,23.54.31,9.94-2.54,20.72-5.45c-24.35-3.1-49.15-.07-69.53,4.57C188.05,812.83,196.47,813,204.89,813.18Z"/><path class="cls-15" d="M121.25,811.78c3.67,0,7.33,0,11,0l4.72,0c3.73-18.45,7.56-53.47-10-76.3,0,0-24.15,45-11.58,66.93C117.55,806.13,119.49,809.22,121.25,811.78Z"/><path class="cls-15" d="M84.79,800.81c6.53,4.28,12.53,8,17.93,11.3q10.73-.27,21.45-.35C109,786.67,74.37,740.62,15.65,716.61,15.65,716.61,55.23,781.49,84.79,800.81Z"/><path class="cls-15" d="M126.18,811.75c.94-1,1.22-.89,1.22,0l4.85,0c6.51,0,13,.1,19.54.22,27.77-33,73.91-107.51,47.13-83.19-33.46,30.36-72.21,82.28-72.74,83Z"/><path class="cls-15" d="M204.89,813.18l7.47.1c56.68-13.94,130-34.44,158.27-41.51-94.55,7.24-160.28,26.92-196.36,40.7C184.48,812.74,194.68,813,204.89,813.18Z"/><path class="cls-15" d="M91.91,812.43c-13-3.35-54.6-10.78-96.48-9.66,21.65,3.58,41.67,7.44,59.49,11.2C67.25,813.39,79.57,812.84,91.91,812.43Z"/><path class="cls-15" d="M1508.66,798.62c16.45,1.5,7.9-125.32-4.94-162.08C1489.77,692.14,1470.35,795.14,1508.66,798.62Z"/><path class="cls-15" d="M1494.36,808.61c-.59-2.49,80.49-188.37,88.38-199.09-29.88,32.25-115.77,180.11-89,196.6Z"/><path class="cls-15" d="M1468.08,817.65c32.15,4.13,147.08-162.21,159.74-193.64C1562.48,673.34,1460.65,816.7,1468.08,817.65Z"/><path class="cls-15" d="M1472.3,818.56c-6,0-12,.08-18,.17-15.48-28.94-5.49-113.6-.78-183,21.8,2.56,32.81,143.35,20.9,182.79Z"/><path class="cls-15" d="M1472.3,818.56l-5.32,0c10.44-54.74,67.5-204.47,87.14-224.41,5,12.61-51.14,180.56-66,224.47C1482.87,818.59,1477.59,818.55,1472.3,818.56Z"/><path class="cls-15" d="M1521.65,819.42c-7.78-.26-15.56-.48-23.35-.62,31.53-23.7,91.63-58.9,163.53-94.23q-.52,8.46-1.19,16.93C1605.54,772.12,1555.75,800.14,1521.65,819.42Z"/><path class="cls-15" d="M1507.42,819q-15.59-.39-31.18-.43c35.32-39.23,110.48-102.25,188.1-152q-.25,10.2-.64,20.39C1612.21,733.68,1549.65,786.26,1507.42,819Z"/><path class="cls-15" d="M1598.56,800.07c-23.9,9.62-38.76,14.42-55.16,20.19-11.1-.48-22.2-.9-33.31-1.2,49.91-25.4,125.92-62.34,134.17-63.63a126.54,126.54,0,0,1,15.27-.74q-1,10.68-2.07,21.36C1643.12,782,1624.09,789.78,1598.56,800.07Z"/><path class="cls-15" d="M1462.57,811c-16,6-34.25-127.5-31.94-166.42C1460.58,694.06,1500,796.87,1462.57,811Z"/><path class="cls-15" d="M1431.8,819.2c-12.86-30.15-76.69-165.37-83.64-173.36,28.26,24.42,106.58,143.37,89.33,173.22Z"/><path class="cls-15" d="M1426,819.35c-42.49-27.91-113.37-138.48-117.41-163.64,47.33,33.61,123.18,136.47,136.1,163.19Q1435.3,819.1,1426,819.35Z"/><path class="cls-15" d="M1472.3,818.56c-3.56,0-7.12,0-10.68.07-10.68-40.1,5.72-199.26,27.79-207.43,2.23,79.36,9.69,175.95-10.42,207.38C1476.76,818.57,1474.53,818.55,1472.3,818.56Z"/><path class="cls-15" d="M1446.37,818.87c-16.74-47.82-66-190.79-61.07-204,19.26,15.38,73.73,150.33,84.09,203.67Q1457.87,818.63,1446.37,818.87Z"/><path class="cls-15" d="M1407.09,819.86c-45.57-22.48-118.32-53.84-210.36-78.24,123.67,15.21,205.72,50.44,242.44,77.4C1428.47,819.27,1417.78,819.57,1407.09,819.86Z"/><path class="cls-15" d="M1409,819.8c-58.89-34.61-143.29-90.25-190-127.55,92,28.89,189.3,88.2,236.39,126.46C1439.91,818.94,1424.45,819.39,1409,819.8Z"/><path class="cls-15" d="M1379.72,820.48q-15,.24-30,.41-12.66-3.36-26.4-7.24c31-4.13,62.64-.11,88.61,6.08C1401.19,820,1390.45,820.3,1379.72,820.48Z"/><path class="cls-15" d="M1486.31,818.62q-7-.07-14-.06c-2,0-4,0-6,0-4.74-24.55-9.64-71.13,12.72-101.51,0,0,30.78,59.81,14.77,89C1491,811.1,1488.56,815.21,1486.31,818.62Z"/><path class="cls-15" d="M1532.79,804c-8.32,5.68-16,10.68-22.86,15q-13.67-.36-27.34-.47C1501.91,785.22,1546.07,724,1620.9,692,1620.9,692,1570.46,778.32,1532.79,804Z"/><path class="cls-15" d="M1480,818.58c-1.19-1.4-1.55-1.19-1.55,0-2.06,0-4.12,0-6.18,0q-12.45,0-24.9.29c-35.4-43.89-94.2-143-60.07-110.68,42.64,40.4,92,109.47,92.71,110.41Z"/><path class="cls-15" d="M1379.72,820.48l-9.53.14c-72.23-18.55-165.74-45.82-201.71-55.23,120.51,9.64,204.28,35.82,250.26,54.15C1405.73,819.9,1392.73,820.26,1379.72,820.48Z"/><path class="cls-15" d="M1523.72,819.49c16.53-4.46,69.58-14.34,123-12.86-27.58,4.76-53.1,9.9-75.82,14.9C1555.15,820.76,1539.44,820,1523.72,819.49Z"/></g></svg>