<svg id="Layer_1" data-name="Layer 1" xmlns="http://www.w3.org/2000/svg" viewBox="0 0 182.06 127.95"><defs><style>.cls-1{opacity:0.78;}.cls-2{fill:#fff;}.cls-3{fill:#b5d8fe;}.cls-4{fill:#e7f5fe;}.cls-5{fill:none;}</style></defs><g class="cls-1"><path class="cls-2" d="M38.05,50.48a31.19,31.19,0,0,1,22.18,4,34.76,34.76,0,0,1,66.29-1.27l.32-.08A15.9,15.9,0,0,1,143,59.85a23.63,23.63,0,0,1,31.09,6.08,23.62,23.62,0,0,0-35-26.38A15.88,15.88,0,0,0,123,32.85l-.32.08a34.76,34.76,0,0,0-66.29,1.26,31.34,31.34,0,0,0-43.4,42.48A31.36,31.36,0,0,1,38.05,50.48Z"/><path class="cls-3" d="M129.4,77.58c6.54-1.54,13.15-9.8,13.15-9.8-10,8.74-38.46,9.18-38.46,9.18a30.24,30.24,0,0,0,18.79,4.6C121.3,117,71.34,109.81,71.76,87.24,78,82.8,85.89,71.49,85.89,71.49,75.5,83.8,45.62,80.71,45.62,80.71c12.9,9.27,19,7.44,19,7.44-.63,12.58-11,16-20.47,16.45a10.78,10.78,0,0,0,9,1.26A26.37,26.37,0,0,0,58,104.07a33.2,33.2,0,0,0,54.27,7.29,28,28,0,0,0,42.67-14.48,40.68,40.68,0,0,1-11.19-4.74C130.52,84.19,129.4,77.58,129.4,77.58Z"/><path class="cls-4" d="M174.06,65.93A23.63,23.63,0,0,0,143,59.85a15.9,15.9,0,0,0-16.13-6.7l-.32.08A34.76,34.76,0,0,0,60.23,54.5,31.32,31.32,0,0,0,12.94,76.67,31.41,31.41,0,0,0,35.31,91.93c-1.36,1.74,2.88,9.22,8.87,12.67,9.48-.46,19.84-3.87,20.47-16.45,0,0-6.13,1.83-19-7.44,0,0,29.88,3.09,40.27-9.22,0,0-7.9,11.31-14.13,15.75-.42,22.57,49.54,29.77,51.12-5.68A30.24,30.24,0,0,1,104.09,77s28.45-.44,38.46-9.18c0,0-6.61,8.26-13.15,9.8,0,0,1.12,6.61,14.32,14.56a40.68,40.68,0,0,0,11.19,4.74,27.63,27.63,0,0,0,1-12.38c0-.26-.08-.52-.12-.78,0-.1,0-.19-.05-.29h0c0-.16-.05-.31-.08-.47A23.6,23.6,0,0,0,174.06,65.93Z"/></g><rect class="cls-5" x="-466.39" y="-22.31" width="1600" height="900"/><rect class="cls-5" x="-466.39" y="-22.31" width="1600" height="900"/></svg>