<?xml version="1.0" encoding="utf-8"?>
<!-- Generator: Adobe Illustrator 25.2.0, SVG Export Plug-In . SVG Version: 6.00 Build 0)  -->
<svg version="1.1" id="Layer_1" xmlns="http://www.w3.org/2000/svg" xmlns:xlink="http://www.w3.org/1999/xlink" x="0px" y="0px"
	 viewBox="0 0 294.4 187.1" style="enable-background:new 0 0 294.4 187.1;" xml:space="preserve">
<style type="text/css">
	.st0{opacity:0.78;}
	.st1{fill:#FFFFFF;}
	.st2{fill:#B5D8FE;}
	.st3{fill:#E7F5FE;}
</style>
<g class="st0">
	<path class="st1" d="M51.6,102.5c0.3,0,0.6,0,0.9,0c4.2-17.3,21.6-28,38.9-24c1.5-16.1,19.6-28.8,41.7-28.8
		c20,0,36.7,10.4,40.8,24.3c10.3-3.8,25-3,39.4,3.3c19.5,8.4,32.1,23.8,31.4,36.8c13,1.4,24.7,8.7,31.7,19.8
		c0.3,0.5,0.6,0.9,0.8,1.4c11.9-20.6,4.9-46.9-15.7-58.8c-5.2-3-10.9-4.9-16.8-5.5c0.7-13-11.9-28.4-31.4-36.8
		c-14.4-6.3-29.1-7.2-39.4-3.3C169.9,17,153.2,6.6,133.2,6.6c-22.1,0-40.2,12.7-41.7,28.8c-17.4-4-34.7,6.7-38.9,24h-0.9
		c-18.2,0-34,11.2-41.8,27.4c-2,4.2-3.4,8.6-4.3,13.1c-0.6,3.3-0.9,6.6-0.9,9.9c0,7.4,1.5,14.8,4.5,21.6c0.2-0.5,0.4-0.9,0.6-1.4
		C17.6,113.6,33.4,102.5,51.6,102.5z"/>
	<path class="st2" d="M185.5,124.8c24.5-5.1,30.7-12,30.7-12c-37.7,11.5-79.4-0.7-79.4-0.7c10.9,11.7,35.5,11.7,35.5,11.7
		c-3.3,17.5-32.3,34.6-52.7,33.5S86.4,138,86.4,138c14.2-3.4,24.8-17.5,24.8-17.5c-24.1,14.6-75.8,5.8-75.8,5.8
		c10.9,10.6,37.6,12,37.6,12c-1.7,11.8-12.8,18.2-24.5,21.7c1,0.1,2.1,0.1,3.2,0.1c5.2,0,10.3-0.9,15.2-2.7
		c9.9,13.5,29.8,22.6,52.6,22.6c19,0,35.9-6.4,46.8-16.3c8,8.5,19.1,13.4,30.8,13.4c7.1-0.2,14.1-1.3,20.8-3.5
		C188.1,165.7,179.9,131.7,185.5,124.8z"/>
	<path class="st3" d="M243.4,158.6L243.4,158.6l0.1-0.2c0.3-0.4,0.6-0.9,0.9-1.3l0.4-0.6c13.6-1.5,25.6-9.3,32.5-21.1
		c-0.3-0.5-0.5-0.9-0.8-1.4c-7-11.1-18.7-18.3-31.7-19.8c0.7-13-11.9-28.4-31.4-36.8c-14.4-6.3-29.1-7.1-39.4-3.3
		c-4.1-13.9-20.8-24.3-40.8-24.3c-22.1,0-40.2,12.7-41.7,28.8c-17.4-4-34.7,6.7-38.9,24c-0.3,0-0.6,0-0.9,0
		c-18.2,0-34,11.2-41.8,27.4c-0.2,0.5-0.4,0.9-0.6,1.4c3.9,8.9,10.4,16.5,18.5,21.7c6.3,4,13.4,6.4,20.8,6.9
		c11.7-3.5,22.8-9.9,24.5-21.6c0,0-26.6-1.5-37.5-12c0,0,51.8,8.8,75.8-5.8c0,0-10.6,14.1-24.8,17.5c0,0,12.8,18.2,33.2,19.3
		s49.4-16,52.7-33.5c0,0-24.6,0-35.5-11.7c0,0,41.7,12.2,79.4,0.7c0,0-6.1,6.9-30.7,12c-5.6,6.9,2.7,40.9,32.4,48.9
		C228.2,170.5,238.2,165.2,243.4,158.6z"/>
</g>
</svg>
