<?xml version="1.0" encoding="utf-8"?>
<!-- Generator: Adobe Illustrator 25.2.0, SVG Export Plug-In . SVG Version: 6.00 Build 0)  -->
<svg version="1.1" id="Layer_1" xmlns="http://www.w3.org/2000/svg" xmlns:xlink="http://www.w3.org/1999/xlink" x="0px" y="0px"
	 viewBox="0 0 804.2 290.8" style="enable-background:new 0 0 804.2 290.8;" xml:space="preserve">
<style type="text/css">
	.st0{fill:#DF570E;}
	.st1{opacity:0.7;fill:#EFEFF0;enable-background:new    ;}
	.st2{fill:#DCDCE2;}
	.st3{fill:#484954;}
	.st4{fill:#A6A6AA;}
	.st5{fill:#A8A8A8;}
	.st6{fill:#454545;}
	.st7{opacity:0.5;fill:#A33B04;enable-background:new    ;}
	.st8{fill:#702B00;}
	.st9{fill:#AAB0B5;}
	.st10{fill:#CCD4D8;}
	.st11{fill:#EAE9D6;}
	.st12{fill:#97978E;}
	.st13{fill:#DADADC;}
	.st14{fill:#BCBDBF;}
	.st15{opacity:0.6;fill:#FFFFFF;enable-background:new    ;}
	.st16{fill:#EFEFF0;}
</style>
<path class="st0" d="M16.6,55.9l18.6-13.6h0.1c4.8-1.7,9-4.1,14.4-1.9c3.8,1.6,6.8,4.8,10.1,7c25.8,20.4,46.5,36.7,63.1,49.5
	c4,3.1,72,18.9,75.4,21.6c28.9,22.4-21,24.7-19.4,26.4c5.1,5.5-96.3,25.1-117,35.2L15.9,69C15.2,64.6,15.4,60.1,16.6,55.9z"/>
<path class="st0" d="M32.9,46.2h-0.1L16,58.5c0.2-0.9,0.4-1.7,0.6-2.6l18.6-13.6h0.1c0.7-0.2,1.3-0.5,1.9-0.7
	C35.9,43.7,34.5,45.6,32.9,46.2z"/>
<path class="st1" d="M195.9,122.5c-3.5-2.7-71.5-18.5-75.4-21.6C104,88,83.2,71.7,57.4,51.3c-1.8-1.2-3.8-5.7-5.9-10
	c3,1.7,5.5,4.2,8.3,6.1c25.8,20.4,46.5,36.7,63.1,49.6c4,3.1,72,18.9,75.4,21.6c10.5,8.2,10.6,13.6,6.5,17.4
	C205.5,132.6,203.3,128.2,195.9,122.5z"/>
<path class="st2" d="M760.5,42.1c-96.3-50.5-114.3-41.3-181.7-23s-258.2,75-329.1,94.8S105.3,157,98.6,159.4
	c-18.2,8.3-35.9,17.6-53,28c0,0-13,7.2-18.4,11.8c-5.1,4.4,2.1,19.6,12.9,24.4c2.5,1.1,30.4,10.1,30.4,10.1s14.4,6.1,45,8.4
	c26.3,2,299.3-12.6,569.5-86.9c77-21.2,123.5-71.5,119-90C799.5,47.5,760.5,42.1,760.5,42.1z"/>
<path class="st3" d="M642.2,61.6c-5.1-5.7-9.7-12-13.6-18.6c-1.4-3.4-1.7-6.8,1.2-9.4c6.3-2,13.4-4.1,21.2-6.4
	c2.2-0.7,4.4-1.3,6.4-1.8l40.5,32.4c-10,3.9-20.2,7.1-30.6,9.8C656.7,69.9,650.1,70.2,642.2,61.6z"/>
<path class="st3" d="M751.2,38.3c0,0-35.3-19.8-45.4-21.5c-2.4-0.4-10.9-1.5-44.6,7.1l39.4,32.4C714.8,51.4,735.2,44.7,751.2,38.3z"
	/>
<path class="st4" d="M552.8,124.1c-4.8-10.4-13.5-44.6-13.8-46c-0.1-0.4-3.1-10-0.3-14.9c0.7-1.3,1.9-2.3,3.4-2.6h0.1l13.7-3.9
	l13.4-4c0.4-0.2,0.8-0.3,1.3-0.4c2.7-0.7,9.2-1.3,12.3,6c3.8,8.8,13.5,45,13.9,46.5c0,0.1,4.2,12.7-5.3,19l-22.7,6.3
	c-0.7,0.3-1.4,0.5-2.2,0.7C563.8,131.5,556.6,132.3,552.8,124.1z M595.6,105.1c-0.1-0.4-10.2-37.6-13.9-46.4
	c-2.7-6.2-7.9-6-10.8-5.3c-0.4,0.1-0.8,0.2-1.2,0.4l-13.5,4l-13.7,3.9l-0.2,0c-1.1,0.3-2,1-2.5,2c-2.5,4.4,0.4,13.7,0.5,13.9
	c0.1,0.4,9,35.6,13.8,45.8c3.2,7,9.1,6.8,12.4,6c0.7-0.2,1.4-0.4,2.1-0.7l22.5-6.3C599.4,116.8,595.6,105.3,595.6,105.1L595.6,105.1
	z"/>
<path class="st5" d="M502.9,100.5c0.2,0,0.4-0.1,0.5-0.2l6-1.5l0.1-0.1c2.4-1.5,2.2-4.4,1.8-5.7c-0.1-0.4-2.4-10.1-3.3-12.5
	c-0.6-1.7-2.4-2.6-4.1-2.1l-0.3,0.1l-7.2,1.8l0,0c-0.6,0.1-1.1,0.5-1.4,1c-0.9,1.5-0.2,4.1-0.1,4.4s2.1,9.6,3.3,12.4
	C499,100.1,501,101.1,502.9,100.5z"/>
<path class="st6" d="M502.9,99.2c0.2,0,0.3-0.1,0.5-0.2l5.3-1.3l0.1-0.1c2.1-1.3,2-3.8,1.6-5c-0.1-0.3-2.1-8.9-2.9-11
	c-0.5-1.5-2.1-2.3-3.6-1.8c-0.1,0-0.2,0-0.3,0.1l-6.3,1.6l0,0c-0.5,0.1-0.9,0.4-1.2,0.9c-0.8,1.3-0.1,3.6-0.1,3.9s1.9,8.4,2.9,10.9
	C499.5,98.8,501.3,99.7,502.9,99.2z"/>
<path class="st5" d="M481.8,105.6c0.2,0,0.4-0.1,0.5-0.2l6.1-1.5l0.1-0.1c2.4-1.5,2.2-4.4,1.8-5.7c-0.1-0.4-2.4-10.1-3.3-12.5
	c-0.6-1.7-2.4-2.6-4-2.1c-0.1,0-0.2,0.1-0.3,0.1l-7.2,1.8l0,0c-0.6,0.1-1.1,0.5-1.4,1c-0.9,1.5-0.2,4.1-0.1,4.4s2.1,9.6,3.3,12.4
	C477.9,105.2,479.9,106.2,481.8,105.6z"/>
<path class="st6" d="M481.8,104.4c0.2,0,0.3-0.1,0.5-0.2l5.3-1.3l0.1-0.1c2.1-1.3,2-3.8,1.6-5c-0.1-0.3-2.1-8.9-2.9-11
	c-0.5-1.5-2.1-2.3-3.5-1.8l-0.3,0.1l-6.3,1.6l0,0c-0.5,0.1-0.9,0.4-1.2,0.9c-0.8,1.3-0.1,3.6-0.1,3.9s1.8,8.4,2.9,10.9
	C478.5,104,480.2,104.9,481.8,104.4z"/>
<path class="st5" d="M460.7,110.8c0.2,0,0.4-0.1,0.6-0.2l6-1.5l0.1-0.1c2.4-1.5,2.2-4.4,1.8-5.7c-0.1-0.4-2.4-10.1-3.3-12.5
	c-0.6-1.7-2.4-2.6-4.1-2.1l-0.3,0.1l-7.2,1.8l0,0c-0.6,0.1-1.1,0.5-1.4,1c-0.9,1.5-0.2,4.1-0.1,4.4s2.1,9.6,3.3,12.4
	C456.8,110.4,458.8,111.4,460.7,110.8z"/>
<path class="st6" d="M460.7,109.5c0.2,0,0.3-0.1,0.5-0.2l5.3-1.3l0.1-0.1c2.1-1.3,2-3.8,1.6-5c-0.1-0.3-2.1-8.9-2.9-11
	c-0.5-1.5-2.1-2.3-3.6-1.8l-0.3,0.1l-6.3,1.6l0,0c-0.5,0.1-0.9,0.4-1.2,0.8c-0.8,1.3-0.1,3.6-0.1,3.9s1.8,8.4,2.9,10.9
	C457.4,109.1,459.1,110,460.7,109.5z"/>
<path class="st5" d="M439.6,115.9c0.2,0,0.4-0.1,0.6-0.2l6-1.5l0.1-0.1c2.4-1.5,2.2-4.4,1.8-5.7c-0.1-0.4-2.4-10.1-3.3-12.5
	c-0.6-1.6-2.4-2.5-4-2l-0.3,0.1l-7.2,1.8l0,0c-0.6,0.1-1.1,0.5-1.4,1c-0.9,1.5-0.2,4.1-0.1,4.4s2.1,9.6,3.3,12.4
	C435.8,115.6,437.7,116.5,439.6,115.9z"/>
<path class="st6" d="M439.6,114.7c0.3-0.1,0.5-0.2,0.5-0.2l5.3-1.3l0.1-0.1c2.1-1.3,2-3.8,1.6-5c-0.1-0.3-2.1-8.9-2.9-11
	c-0.5-1.5-2.1-2.3-3.6-1.8c-0.1,0-0.2,0-0.3,0.1l-6.3,1.6l0,0c-0.5,0.1-0.9,0.4-1.2,0.9c-0.8,1.3-0.1,3.6-0.1,3.9s1.9,8.4,2.9,10.9
	C436.3,114.3,438,115.2,439.6,114.7z"/>
<path class="st5" d="M418.5,121.1c0.2,0,0.4-0.1,0.5-0.2l6.1-1.5l0.1-0.1c2.4-1.5,2.2-4.4,1.8-5.7c-0.1-0.4-2.4-10.1-3.3-12.5
	c-0.6-1.7-2.4-2.6-4.1-2.1l-0.3,0.1l-7.2,1.8l0,0c-0.6,0.1-1.1,0.5-1.4,1c-0.9,1.5-0.1,4.1-0.1,4.4s2.1,9.6,3.3,12.4
	C414.7,120.7,416.6,121.6,418.5,121.1z"/>
<path class="st6" d="M418.5,119.8c0.2,0,0.3-0.1,0.5-0.2l5.3-1.3l0.1-0.1c2.1-1.3,2-3.8,1.6-5c-0.1-0.3-2.1-8.9-2.9-11
	c-0.5-1.5-2.1-2.3-3.5-1.8l-0.3,0.1l-6.3,1.6l0,0c-0.5,0.1-0.9,0.4-1.2,0.9c-0.8,1.3-0.1,3.6-0.1,3.9s1.8,8.4,2.9,10.9
	C415.2,119.4,416.9,120.3,418.5,119.8z"/>
<path class="st5" d="M397.4,126.2c0.2,0,0.4-0.1,0.5-0.2l6-1.5l0.1-0.1c2.4-1.5,2.2-4.4,1.8-5.7c-0.1-0.4-2.4-10.1-3.3-12.5
	c-0.6-1.6-2.3-2.6-4-2.1c-0.1,0-0.2,0-0.3,0.1l-7.2,1.8l0,0c-0.6,0.1-1.1,0.5-1.4,1c-0.9,1.5-0.2,4.1-0.1,4.4s2.1,9.6,3.3,12.4
	C393.6,125.8,395.6,126.8,397.4,126.2z"/>
<path class="st6" d="M397.5,125c0.2,0,0.3-0.1,0.5-0.2l5.3-1.3l0.1-0.1c2.1-1.3,2-3.8,1.6-5c-0.1-0.3-2.1-8.8-2.9-11
	c-0.5-1.5-2.1-2.3-3.5-1.8l-0.3,0.1l-6.3,1.6l0,0c-0.5,0.1-0.9,0.4-1.2,0.8c-0.8,1.3-0.1,3.6-0.1,3.9s1.9,8.4,2.9,10.9
	C394.1,124.6,395.8,125.5,397.5,125z"/>
<path class="st5" d="M376.3,131.4c0.2,0,0.4-0.1,0.5-0.2l6-1.5l0.1-0.1c2.4-1.5,2.2-4.4,1.8-5.7c-0.1-0.4-2.4-10.1-3.3-12.5
	c-0.6-1.7-2.4-2.6-4.1-2.1c-0.1,0-0.2,0.1-0.3,0.1l-7.2,1.8l0,0c-0.6,0.1-1.1,0.5-1.3,1c-0.9,1.5-0.2,4.1-0.1,4.4s2.1,9.6,3.3,12.4
	C372.5,131,374.5,131.9,376.3,131.4z"/>
<path class="st6" d="M376.4,130.1c0.2,0,0.3-0.1,0.5-0.1l5.3-1.3l0.1-0.1c2.1-1.3,2-3.8,1.6-5c-0.1-0.3-2.1-8.9-2.9-11
	c-0.5-1.5-2.1-2.3-3.6-1.8c-0.1,0-0.2,0-0.2,0.1l-6.4,1.6l0,0c-0.5,0.1-0.9,0.4-1.2,0.9c-0.8,1.3-0.2,3.6-0.1,3.9s1.9,8.4,2.9,10.9
	C373,129.7,374.7,130.6,376.4,130.1z"/>
<path class="st5" d="M355.2,136.5c0.2,0,0.4-0.1,0.5-0.2l6-1.5l0.1-0.1c2.4-1.5,2.2-4.4,1.8-5.7c-0.1-0.4-2.4-10.1-3.3-12.5
	c-0.6-1.6-2.3-2.6-4-2.1c-0.1,0-0.2,0-0.3,0.1l-7.2,1.8l0,0c-0.6,0.1-1.1,0.5-1.4,1c-0.9,1.5-0.2,4.1-0.1,4.4s2.1,9.6,3.3,12.4
	C351.5,136.1,353.4,137.1,355.2,136.5z"/>
<path class="st6" d="M355.3,135.3c0.3-0.1,0.5-0.1,0.5-0.1l5.3-1.3l0.1-0.1c2.1-1.3,2-3.8,1.6-5c-0.1-0.3-2.1-8.9-2.9-11
	c-0.5-1.5-2.1-2.3-3.6-1.8l-0.3,0.1l-6.3,1.6l0,0c-0.5,0.1-0.9,0.4-1.2,0.9c-0.8,1.3-0.2,3.6-0.1,3.9s1.8,8.4,2.9,10.9
	C351.9,134.9,353.7,135.8,355.3,135.3z"/>
<path class="st5" d="M334.1,141.7c0.2,0,0.4-0.1,0.5-0.2l6.1-1.5l0.1-0.1c2.4-1.5,2.2-4.4,1.8-5.7c-0.1-0.4-2.4-10.1-3.3-12.5
	c-0.6-1.7-2.4-2.6-4-2.1l-0.3,0.1l-7.2,1.8l0,0c-0.6,0.1-1.1,0.5-1.4,1c-0.9,1.5-0.2,4.1-0.1,4.4s2.1,9.6,3.3,12.4
	C330.3,141.3,332.3,142.3,334.1,141.7z"/>
<path class="st6" d="M334.2,140.4c0.2,0,0.3-0.1,0.5-0.1l5.3-1.3h0.1c2.1-1.3,2-3.8,1.6-5c-0.1-0.3-2.1-8.9-2.9-11
	c-0.5-1.5-2.1-2.3-3.6-1.8c-0.1,0-0.2,0-0.3,0.1l-6.3,1.6l0,0c-0.5,0.1-0.9,0.4-1.2,0.9c-0.8,1.3-0.1,3.6-0.1,3.9s1.9,8.4,2.9,10.9
	C330.9,140.1,332.6,140.9,334.2,140.4z"/>
<path class="st5" d="M313,146.8c0.2,0,0.4-0.1,0.5-0.2l6.1-1.5l0.1-0.1c2.4-1.5,2.2-4.4,1.8-5.7c-0.1-0.4-2.4-10.1-3.3-12.5
	c-0.6-1.7-2.4-2.6-4.1-2.1c-0.1,0-0.2,0.1-0.3,0.1l-7.2,1.8l0,0c-0.6,0.1-1.1,0.5-1.4,1c-0.9,1.5-0.2,4.1-0.1,4.4s2.1,9.6,3.3,12.4
	C309.2,146.4,311.2,147.4,313,146.8z"/>
<path class="st6" d="M313.1,145.6c0.2,0,0.3-0.1,0.5-0.1l5.3-1.3l0.1-0.1c2.1-1.3,2-3.8,1.6-5c-0.1-0.3-2.1-8.9-2.9-11
	c-0.5-1.5-2.1-2.3-3.6-1.8c-0.1,0-0.2,0-0.3,0.1l-6.3,1.7l0,0c-0.5,0.1-0.9,0.4-1.2,0.9c-0.8,1.3-0.1,3.6-0.1,3.9s1.8,8.4,2.9,10.9
	C309.8,145.2,311.5,146.1,313.1,145.6z"/>
<path class="st5" d="M292,152c0.2,0,0.4-0.1,0.5-0.2l6-1.5l0.1-0.1c2.4-1.5,2.2-4.4,1.8-5.7c-0.1-0.4-2.4-10.1-3.3-12.5
	c-0.6-1.7-2.4-2.6-4-2.1l-0.3,0.1l-7.2,1.9l0,0c-0.6,0.1-1.1,0.5-1.4,1c-0.9,1.5-0.2,4.1-0.1,4.4s2.1,9.6,3.3,12.4
	C288.2,151.6,290.2,152.6,292,152z"/>
<path class="st6" d="M292,150.7c0.2,0,0.3-0.1,0.5-0.1l5.3-1.3l0.1-0.1c2.1-1.3,2-3.8,1.6-5c-0.1-0.3-2.1-8.9-2.9-11
	c-0.5-1.5-2.1-2.3-3.6-1.8l-0.3,0.1l-6.3,1.6l0,0c-0.5,0.1-0.9,0.4-1.2,0.9c-0.8,1.3-0.2,3.6-0.1,3.9s1.8,8.4,2.9,10.9
	C288.6,150.4,290.4,151.2,292,150.7z"/>
<path class="st5" d="M270.9,157.1c0.2,0,0.4-0.1,0.5-0.2l6.1-1.5l0.1-0.1c2.4-1.5,2.2-4.4,1.8-5.7c-0.1-0.4-2.4-10.1-3.3-12.5
	c-0.6-1.7-2.4-2.6-4.1-2.1l-0.3,0.1l-7.2,1.9l0,0c-0.6,0.1-1.1,0.5-1.4,1c-0.9,1.5-0.2,4.1-0.1,4.4s2.1,9.6,3.3,12.4
	C267.1,156.7,269,157.7,270.9,157.1z"/>
<path class="st6" d="M270.9,155.9c0.2,0,0.3-0.1,0.5-0.1l5.3-1.3l0.1-0.1c2.1-1.3,2-3.8,1.6-5c-0.1-0.3-2.1-8.9-2.9-11
	c-0.5-1.5-2.1-2.3-3.6-1.8l-0.3,0.1l-6.3,1.6l0,0c-0.5,0.1-0.9,0.4-1.2,0.9c-0.8,1.3-0.1,3.6-0.1,3.9s1.9,8.4,2.9,10.9
	C267.6,155.5,269.3,156.4,270.9,155.9z"/>
<path class="st5" d="M249.8,162.3c0.2,0,0.4-0.1,0.5-0.2l6.1-1.5l0.1-0.1c2.4-1.5,2.2-4.4,1.8-5.7c-0.1-0.4-2.4-10.1-3.3-12.5
	c-0.6-1.6-2.3-2.5-4-2.1l-0.3,0.1l-7.2,1.9l0,0c-0.6,0.1-1.1,0.5-1.4,1c-0.9,1.5-0.1,4.1-0.1,4.4s2.1,9.6,3.3,12.4
	C246,161.9,247.9,162.8,249.8,162.3z"/>
<path class="st6" d="M249.8,161c0.2,0,0.3-0.1,0.5-0.1l5.3-1.3l0.1-0.1c2.1-1.3,2-3.8,1.6-5c-0.1-0.3-2.1-8.9-2.9-11
	c-0.5-1.5-2.1-2.3-3.6-1.8l-0.3,0.1l-6.3,1.6l0,0c-0.5,0.1-0.9,0.4-1.2,0.9c-0.8,1.3-0.1,3.6-0.1,3.9s1.8,8.4,2.9,10.9
	C246.5,160.6,248.2,161.5,249.8,161z"/>
<path class="st5" d="M228.7,167.4c0.2,0,0.4-0.1,0.6-0.2l6-1.5l0.1-0.1c2.4-1.5,2.2-4.4,1.8-5.7c-0.1-0.4-2.4-10.1-3.3-12.5
	c-0.6-1.6-2.3-2.6-4-2.1c-0.1,0-0.2,0.1-0.3,0.1l-7.2,1.8l0,0c-0.6,0.1-1.1,0.5-1.4,1c-0.9,1.5-0.2,4.1-0.1,4.4s2.1,9.6,3.3,12.4
	C224.9,167,226.9,168,228.7,167.4z"/>
<path class="st6" d="M228.8,166.2c0.2,0,0.3-0.1,0.5-0.1l5.3-1.3l0.1-0.1c2.1-1.3,2-3.8,1.6-5c-0.1-0.3-2.1-8.9-2.9-11
	c-0.5-1.5-2.1-2.3-3.6-1.8l-0.3,0.1l-6.3,1.6l0,0c-0.5,0.1-0.9,0.4-1.2,0.9c-0.8,1.3-0.1,3.6-0.1,3.9s1.8,8.4,2.9,10.9
	C225.4,165.8,227.1,166.7,228.8,166.2z"/>
<path class="st5" d="M207.6,172.6c0.2,0,0.4-0.1,0.6-0.2l6-1.5l0.1-0.1c2.4-1.5,2.2-4.4,1.8-5.7c-0.1-0.4-2.4-10.1-3.3-12.5
	c-0.6-1.7-2.4-2.6-4.1-2.1c-0.1,0-0.2,0.1-0.3,0.1l-7.2,1.8l0,0c-0.6,0.1-1.1,0.5-1.3,1c-0.9,1.5-0.2,4.1-0.1,4.4s2.1,9.6,3.3,12.4
	C203.7,172.2,205.7,173.2,207.6,172.6z"/>
<path class="st6" d="M207.7,171.3c0.3-0.1,0.5-0.1,0.5-0.1l5.3-1.3l0.1-0.1c2.1-1.3,2-3.8,1.6-5c-0.1-0.3-2.1-8.9-2.9-11
	c-0.5-1.5-2.1-2.3-3.6-1.8c-0.1,0-0.2,0-0.3,0.1l-6.3,1.6l0,0c-0.5,0.1-0.9,0.4-1.2,0.9c-0.8,1.3-0.1,3.6-0.1,3.9
	c0.8,3.7,1.7,7.3,2.9,10.9C204.3,171,206,171.8,207.7,171.3z"/>
<path class="st5" d="M186.5,177.7c0.2,0,0.4-0.1,0.6-0.2l6.1-1.5l0.1-0.1c2.4-1.5,2.2-4.4,1.8-5.7c-0.1-0.4-2.4-10.1-3.3-12.5
	c-0.6-1.7-2.4-2.6-4.1-2.1c-0.1,0-0.2,0.1-0.3,0.1l-7.2,1.8l0,0c-0.6,0.1-1.1,0.5-1.4,1c-0.9,1.5-0.2,4.1-0.1,4.4s2.1,9.6,3.3,12.4
	C182.7,177.3,184.7,178.3,186.5,177.7z"/>
<path class="st6" d="M186.6,176.5c0.2,0,0.3-0.1,0.5-0.1l5.3-1.3l0.1-0.1c2.1-1.3,2-3.8,1.6-5c-0.1-0.3-2.1-8.9-2.9-11
	c-0.5-1.5-2.1-2.3-3.6-1.8l-0.3,0.1l-6.4,1.6l0,0c-0.5,0.1-0.9,0.4-1.2,0.9c-0.8,1.3-0.1,3.6-0.1,3.9s1.8,8.4,2.9,10.9
	C183.2,176.1,184.9,177,186.6,176.5z"/>
<path class="st0" d="M728,92.6c42.4-16.7,62.2-27.8,71.6-34.6c2,2,3.5,4.5,4.3,7.3c4.6,18.5-41.9,68.8-119,90
	c-270.2,74.3-543.2,88.9-569.5,86.9c-30.6-2.3-45-8.4-45-8.4s-27.9-9-30.4-10.1c-7-3.1-12.5-10.6-14.1-16.7
	C244.4,240.7,648.4,123.9,728,92.6z"/>
<path class="st7" d="M356.6,216.9c7.6-10.1,13.7-21.3,19.9-32.4c55.9-10.4,110.4-22.7,159.4-35c3.8,12.9,5.9,26.2,7.3,39.6
	c-67.5,14-132.3,24.6-190.3,32.4C354.2,220,355.4,218.5,356.6,216.9z"/>
<path class="st7" d="M177,210.8c-7.2,9.8-17.9,18-27.1,25.2c-2.6,2-5.3,4-8,5.8c-13.5,0.6-22.6,0.6-26.5,0.3
	c-30.6-2.3-45-8.4-45-8.4s-27.9-9-30.4-10.1c-7-3.1-12.5-10.6-14.1-16.7C70.1,213.7,121.9,214.4,177,210.8z"/>
<path class="st8" d="M70,210l67.1-8.8c0,0,7.8-0.5,12.9,3.7c3.4,2.8,6.6,9.4,2.1,13.6c-8,7.5-89.8,47.7-89.8,47.7
	s-17.1,7.3-30.8,5.7c0,0-37.7,2.9-26.9-6.4s48.4-47.8,48.4-47.8S61.7,210.4,70,210z"/>
<path class="st0" d="M70,210l67.1-8.8c0,0,21.4,0.4,10.3,10.8c-8,7.5-85.2,50.2-85.2,50.2c-5.8,2.9-12.1,4.8-18.5,5.4
	c0,0-49.9,7.1-39-2.2s48.4-47.8,48.4-47.8S61.7,210.4,70,210z"/>
<path class="st9" d="M430.7,192.4c0,0,46.9-19,76.7-24.8l16.3,74.3l0.1,0.2l3.6,7.5c0,0-35,8.9-80.4,9.5c-4.1,1-12.5-11.6-17-30.1
	S426.6,193.4,430.7,192.4z"/>
<path class="st10" d="M502.5,214.9c-10.8,3-21.6,5.4-32.1,9c-12.7,4.4-25.5,8.6-38,13.7c-0.9-2.7-1.8-5.5-2.5-8.6
	c-4.5-18.4-3.4-35.6,0.7-36.6c0,0,46.9-19,76.7-24.8l9.4,42.9C512,211.8,507.4,213.6,502.5,214.9z"/>
<path class="st11" d="M509,210.6c5.5,22.6,13.8,40.1,18.4,38.9s3.9-20.4-1.6-43s-13.8-40.1-18.4-39S503.5,188,509,210.6z"/>
<path class="st12" d="M510.3,181.6c0.2-1.3,0.6-2,1.1-2.2c2.5-0.6,7.5,11.6,11.4,27.3s4.9,28.8,2.5,29.4c-0.6,0.2-1.5-0.6-2.4-2
	c0.7-4.4-0.6-15.1-3.6-27.2C516.4,195.2,512.9,185.6,510.3,181.6z"/>
<path class="st12" d="M510.3,181.6c2.6,4,6.2,13.7,9,25.3c3,12.2,4.3,22.8,3.6,27.2c-2.6-4-6.2-13.7-9-25.3
	C510.9,196.6,509.5,186,510.3,181.6z"/>
<path class="st10" d="M405.4,167.5l101.9-24.9c0,0,26.8-4.3,17.5,11.5s-115,109.2-115,109.2c-7.8,6.5-16.9,11.2-26.7,13.9
	c0,0-74.2,23.8-60.5,4.6s59.4-96.8,59.4-96.8S392.8,170,405.4,167.5z"/>
<path class="st13" d="M405.4,167.5l101.9-24.9c0,0,26.8-4.3,17.5,11.5s-115,109.2-115,109.2c-7.8,6.5-16.9,11.2-26.7,13.9
	c0,0-74.2,23.8-60.5,4.6s59.4-96.8,59.4-96.8S392.8,170,405.4,167.5z"/>
<path class="st14" d="M322.4,281.9c13.7-19.1,59.4-96.8,59.4-96.8s11-15.1,23.6-17.6l12-2.9c-11.9,8-20.5,19-29.2,31.4
	c-12.5,17.9-24.4,36.3-37.1,54.1c-5.1,7.2-10.4,14.3-14.8,22.1c-2.5,4.3-5.3,9-3.7,14c0.3,1,0.8,1.9,1.5,2.7
	C323.9,290,317.5,288.7,322.4,281.9z"/>
<path class="st15" d="M492.3,149.4c0,0,30.7-8.6,22.3,4s-95.4,95.2-95.4,95.2s-18.6,21-37.5,23.8c0,0,20.7-12.4,29.9-24.8
	s79.9-84.4,79.9-84.4S505.8,150.3,492.3,149.4z"/>
<path class="st16" d="M688.6,14.2c0,0-28.6-9.8-64.7-3.4S311.8,98.9,311.8,98.9l310.5-80.4c0,0,14.1-5.2,23.9,5L688.6,14.2z"/>
<path class="st16" d="M527.6,103.5c0,0-276,60.2-366.8,75.2C160.8,178.6,361.2,163,527.6,103.5z"/>
</svg>
