<?xml version="1.0" encoding="utf-8"?>
<!-- Generator: Adobe Illustrator 25.2.0, SVG Export Plug-In . SVG Version: 6.00 Build 0)  -->
<svg version="1.1" id="Layer_1" xmlns="http://www.w3.org/2000/svg" xmlns:xlink="http://www.w3.org/1999/xlink" x="0px" y="0px"
	 viewBox="0 0 287.1 153.2" style="enable-background:new 0 0 287.1 153.2;" xml:space="preserve">
<style type="text/css">
	.st0{opacity:0.78;}
	.st1{fill:#FFFFFF;}
	.st2{fill:none;}
	.st3{fill:#E7F5FE;}
	.st4{fill:#B5D8FE;}
</style>
<g class="st0">
	<path class="st1" d="M44.1,112.2C31.8,80.2,82.9,76.7,82.9,76.7c4.1-19.2,29.6-30.6,29.6-30.6c48.8-24,79.7,7.6,79.7,7.6
		c27.8-16.8,38.4,6.7,38.4,6.7c27.8-14.7,43.8-3.6,50.7,9.8c0.3-1.5,0.5-2.9,0.4-4.4c-0.5-16.2-16.3-44.8-54.6-24.6
		c0,0-10.6-23.5-38.4-6.7c0,0-30.8-31.7-79.7-7.6c0,0-25.5,11.4-29.6,30.6c0,0-51.1,3.4-38.9,35.5c0,0-32.3,5.4-28.6,29.2
		c0.6,4,1.8,7.8,3.7,11.4C19.1,116.4,44.1,112.2,44.1,112.2z"/>
	<path class="st2" d="M42.8,125.1c-0.1-0.1-0.1-0.3-0.2-0.4c-1.3,0.5-2.6,1-3.9,1.3C41.2,125.3,42.8,125.1,42.8,125.1z"/>
	<path class="st3" d="M38.1,126.2l0.6-0.2L38.1,126.2z"/>
	<path class="st4" d="M241.1,88.6c-20.7,15.1-48.1,9.1-48.1,9.1c7.1,4.9,15.8,6.9,24.3,5.5c-24.8,35.9-68.1,2.6-68.1,2.6
		c9-2,22.5-16.6,22.5-16.6c-19.7,16.2-62.8,15.2-62.8,15.2c7.1,5.1,25.6,4.1,25.6,4.1c-12.3,46.1-59.1,16.5-59.1,16.5
		c4.2-2.3,7.8-5.6,10.3-9.7c-5.9,6.7-40.9,13-40.9,13c8.7,1.6,20.7,0.5,20.7,0.5c1.8,4.1,0.3,8.1-1.9,11.3
		c3.2,4.3,11.6,11.7,27.6,2.9c0,0,18,13.3,29.1-4.5c0,0,26,11.9,41.6-9.1c0,0,21,17,52.4,5.9s24.3-20.1,24.3-20.1s11.5-0.1,20.4-5.4
		c-16.5-1.3-31.2-9.3-31.2-9.3C234,99.1,239,94.6,241.1,88.6z"/>
	<path class="st3" d="M268.2,98.8c4.7-15-3.8-14.4-5-14.3h-0.1h0.1c1.5-0.2,15.5-2.6,18.1-14.2c-6.8-13.4-22.8-24.5-50.6-9.8
		c0,0-10.6-23.5-38.4-6.7c0,0-30.8-31.7-79.7-7.6c0,0-25.5,11.4-29.6,30.6c0,0-51.1,3.4-38.9,35.5c0,0-25,4.2-28.5,21.3
		c7.9,15.1,26.1,19.3,46.2,3.8c0.4,0.9,1,1.8,1.6,2.6c2.2-3.2,3.7-7.2,1.9-11.3c0,0-12,1.1-20.7-0.5c0,0,35-6.3,40.9-13
		c-2.5,4.1-6,7.4-10.3,9.7c0,0,46.7,29.7,59.1-16.5c0,0-18.5,1-25.6-4.1c0,0,43.1,1,62.8-15.2c0,0-13.6,14.6-22.5,16.6
		c0,0,43.3,33.4,68.1-2.6c-8.5,1.4-17.2-0.6-24.3-5.5c0,0,27.5,6,48.2-9.1c-2.1,6-7.1,10.5-13.3,12c0,0,14.6,8,31.2,9.3
		C263.4,107.5,266.7,103.5,268.2,98.8z"/>
</g>
</svg>
