<svg id="Layer_1" data-name="Layer 1" xmlns="http://www.w3.org/2000/svg" viewBox="0 0 475 442.86"><defs><style>.cls-1{fill:#fff;}</style></defs><path class="cls-1" d="M453,15.65H60.78a6,6,0,0,0-6,6V84.3a6,6,0,0,0,6,6h258.5V211.56h-41c-8.14-18.26-20.25-35.17-36.05-50.32-23-21.88-49.06-33-77.38-33-22.91,0-46.93,11-71.39,32.84a6,6,0,0,0-.74,8.17l48.35,61.9a6,6,0,0,0,4.65,2.31h.08a6,6,0,0,0,4.63-2.18,196.16,196.16,0,0,1,32-31.12c13.2-10.08,20.44-12.2,24.19-12.2,4.42,0,8.62,2.66,12.83,8.11,4.52,5.87,6.81,13.67,6.81,23.19,0,18.34-7.06,34-21.58,47.86s-31.23,20.72-50.8,20.72a78.14,78.14,0,0,1-44.95-14l-.11-.07c-16.88-11.08-36.55-32.34-58.47-63.2a6,6,0,0,0-4.05-2.47,6.16,6.16,0,0,0-4.57,1.25L18.28,228A6,6,0,0,0,17,236c26.66,41.21,54.15,72.35,81.7,92.56,28,20.57,56.21,31,83.77,31,27.25,0,50.51-8.15,69.11-24.21a103.38,103.38,0,0,0,33.16-52.72h34.57V421.21a6,6,0,0,0,6,6h65.2a6,6,0,0,0,6-6V90.3H453a6,6,0,0,0,6-6V21.65A6,6,0,0,0,453,15.65Zm0,68.65H390.48V421.21h-65.2V276.6H280a97.4,97.4,0,0,1-32.35,54.18q-26.38,22.75-65.2,22.75-39.56,0-80.22-29.84T22,232.71l23.44-18.64q33.69,47.43,60.07,64.74a83.7,83.7,0,0,0,48.35,15.05q31.49,0,54.94-22.37t23.44-52.2q0-16.39-8.06-26.85T206.61,182q-10.26,0-27.83,13.43a201.33,201.33,0,0,0-33,32.07l-48.35-61.9q35.16-31.32,67.4-31.32,40.27,0,73.25,31.32,24.48,23.47,36.22,52h50.95V84.3H60.78V21.65H453Z"/></svg>