<svg id="Layer_1" data-name="Layer 1" xmlns="http://www.w3.org/2000/svg" viewBox="0 0 475 442.86"><defs><style>.cls-1{fill:#8d8e8d;}</style></defs><path class="cls-1" d="M278.4,21.65H60.78V84.3h264.5V217.56H274.33q-11.74-28.5-36.22-52-33-31.32-73.25-31.32-32.25,0-67.4,31.32l48.35,61.9a201.33,201.33,0,0,1,33-32.07Q196.36,182,206.61,182q9.51,0,17.58,10.45t8.06,26.85q0,29.84-23.44,52.2t-54.94,22.37a83.7,83.7,0,0,1-48.35-15.05Q79.15,261.5,45.45,214.07L22,232.71q39.55,61.16,80.21,91t80.22,29.84q38.82,0,65.2-22.75A97.4,97.4,0,0,0,280,276.6h45.29V421.21h65.2V84.3H453V21.65Z"/></svg>