<svg xmlns="http://www.w3.org/2000/svg" xmlns:xlink="http://www.w3.org/1999/xlink" viewBox="0 0 512.63 802.88"><defs><style>.cls-1{isolation:isolate;}.cls-2{fill:#fb8000;}.cls-3{fill:#3fc416;}.cls-4{fill:#e53963;}.cls-5{opacity:0.2;mix-blend-mode:screen;}.cls-6{fill:url(#linear-gradient);}.cls-7{opacity:0.5;mix-blend-mode:multiply;}.cls-8{fill:url(#linear-gradient-2);}.cls-9{fill:url(#linear-gradient-3);}.cls-10{fill:none;stroke:#2f404f;stroke-miterlimit:10;stroke-width:0.5px;}</style><linearGradient id="linear-gradient" x1="-5396.15" y1="-9455.55" x2="-5273.3" y2="-9455.55" gradientTransform="translate(14300.54 14614.39) rotate(-14.78) scale(1.86)" gradientUnits="userSpaceOnUse"><stop offset="0" stop-color="#ff0a3b"/><stop offset="0.67" stop-color="#ff576b"/><stop offset="1" stop-color="#ff7880"/></linearGradient><linearGradient id="linear-gradient-2" x1="-5305.9" y1="-9504.22" x2="-5304.54" y2="-9344.52" gradientTransform="translate(14300.54 14614.39) rotate(-14.78) scale(1.86)" gradientUnits="userSpaceOnUse"><stop offset="0" stop-color="#cc8122"/><stop offset="0.32" stop-color="#9e5e16"/><stop offset="0.78" stop-color="#612f06"/><stop offset="1" stop-color="#491c00"/></linearGradient><linearGradient id="linear-gradient-3" x1="-5396.15" y1="-9437.13" x2="-5214.27" y2="-9437.13" xlink:href="#linear-gradient-2"/></defs><g class="cls-1"><g id="Layer_1" data-name="Layer 1"><path class="cls-2" d="M124.33,221.59c-8.78,16.65,21.65,23.67,15.89,40.78-1.55,6.8-9.18,15.84-15.2,16.22,34.55-27.6-17-35-1.24-57.52A.38.38,0,0,1,124.33,221.59Z"/><path class="cls-2" d="M446.17,136.82c25,12-16.49,43,27.56,50.72-5.74,2.35-16.5-1.55-21.31-6.76-13.51-12,9.42-33.14-6.47-43.25A.37.37,0,0,1,446.17,136.82Z"/><path class="cls-3" d="M333.45,354.47c2.45,21.94,22.25,37.36,41,47.91C431.79,441.44,335.83,502.64,400,540c26.6,15.12,25.75,17.16-1.93,3.33-75.31-39.85,31.54-104.85-35.85-141.15-15.71-10.41-30.83-28.66-30.26-47.73A.76.76,0,0,1,333.45,354.47Z"/><polygon class="cls-4" points="449.15 136.39 328.63 341.38 121.76 221.96 242.28 16.97 449.15 136.39"/><g class="cls-5"><path class="cls-6" d="M321.72,83.89c31.5,115.77-104.64,214.51-200,138.07L242.28,17l68.89,39.77A130.66,130.66,0,0,1,321.72,83.89Z"/></g><g class="cls-7"><path class="cls-8" d="M286.87,179.34c14,53,29.83,113,42.48,163.06l-.84.22C300,240,268.18,120.53,242,17.5l.32-.53.54.31C256.65,66.75,272.65,126.24,286.87,179.34Z"/><path class="cls-9" d="M449.15,136.39l-1.64,2.8c-113.94-38.3-242.81-4.59-322.82,84.46L121.76,222C189.71,130.68,345.11,90,449.15,136.39Z"/></g><polygon class="cls-4" points="304.35 370.23 327.77 337.7 364.34 354.55 304.35 370.23"/><path class="cls-10" d="M276,142.54C279.58,366,239.16,596.83,103.38,788.29"/></g></g></svg>