<svg id="Layer_1" data-name="Layer 1" xmlns="http://www.w3.org/2000/svg" viewBox="0 0 520 435"><defs><style>.cls-1{fill:#fff;}</style></defs><path class="cls-1" d="M288.33,181.45Q272.39,199.21,272.39,219c0,17.27,14.71,51.13,77,26.62,23.59-10.1,39.91-26.13,49-35.32v-9.05q-11.81-11.31-31-19.58C352,175.07,313.18,158.07,288.33,181.45Zm104.06,26.39c-8.22,8.26-23.55,22.92-45.26,32.22-13.79,5.42-25.92,8.17-36.06,8.17-31.76,0-32.68-26.24-32.68-29.23,0-11.7,4.65-22.61,14.23-33.35,7.35-6.83,16.54-10.15,28.1-10.15,17.15,0,34.56,7.49,43.92,11.52l.38.16c11.08,4.77,20.27,10.38,27.37,16.7Z"/><path class="cls-1" d="M194.8,188.16q0,42-43.07,73.35,25.35,36.21,54,53.33t64.6,17.1q23.6,0,67.28-16.07,36-13.26,60.78-29.44V266.65Q383.9,276,358.54,285.36,329,296.25,313.1,296.21q-31.86,0-56.94-28.17t-25.09-66.88q0-31.22,24.49-56t57-24.76a94.27,94.27,0,0,1,24.47,3.4c8.45,2.26,15.12,5.09,20.06,8.49,4,2.76,30.61,21.91,41.33,30V81l-203.59.5Zm6-100.67L392.39,87v63.35c-12.35-9.05-28.75-20.83-31.93-23-5.56-3.82-12.73-6.88-21.91-9.34a101,101,0,0,0-26-3.6c-23.23,0-43.83,8.93-61.25,26.55s-26.21,37.91-26.21,60.22c0,27.22,9,51.07,26.6,70.87,17.82,20,38.49,30.18,61.43,30.18,11.52,0,27.06-3.67,47.52-11.22a255.39,255.39,0,0,0,31.77-13.88v6c-15.62,9.84-34.72,18.94-56.85,27.08-28.4,10.43-50.34,15.71-65.21,15.71-22.79,0-43.49-5.47-61.52-16.25-17-10.15-33.41-25.92-48.8-46.92,27.07-21.26,40.79-46.34,40.79-74.61Z"/><path class="cls-1" d="M499.87,15.92H20.13a6,6,0,0,0-6,6l.09,59.58a6,6,0,0,0,6,6H134.51v89.68c0,3.59-.51,5.24-.8,5.89-.82-.17-3.09-.83-8.26-3.31-17.43-8.56-21.48-9.28-23.9-9.28-5.69,0-11.15,3.89-16.68,11.87-5.11,7.28-7.6,13.85-7.6,20.08,0,8.86,5.75,21.48,17.56,38.55,36.34,53.37,70.51,92.92,101.53,117.55,26.94,21.6,53.22,32.55,78.11,32.55,18.57,0,41-4.1,66.71-12.18A278,278,0,0,0,392.39,357v56a6,6,0,0,0,6,6l52.51.08a6,6,0,0,0,6-6v-326h43a6,6,0,0,0,6-6V21.92A6,6,0,0,0,499.87,15.92Zm0,65.14h-49v332l-52.5-.08V346.6a268.43,268.43,0,0,1-59,26.58q-37.78,11.88-64.91,11.9-35.42,0-74.35-31.23Q154.07,317.3,99.79,237.6q-16.53-23.91-16.52-35.17c0-4.91,2.15-10.42,6.51-16.63s8.23-9.32,11.77-9.32q3.57,0,21.26,8.67c5.5,2.64,9.24,4,11.21,4q6.49,0,6.49-11.95V81.5H20.22l-.09-59.58H499.87Z"/></svg>