<svg id="Layer_1" data-name="Layer 1" xmlns="http://www.w3.org/2000/svg" viewBox="0 0 520 435"><defs><style>.cls-1{fill:#8d8e8d;}</style></defs><path class="cls-1" d="M317,21.92H20.13l.09,59.58H140.51v95.68q0,12-6.49,11.95c-2,0-5.71-1.34-11.21-4q-17.69-8.68-21.26-8.67-5.31,0-11.77,9.32c-4.36,6.21-6.51,11.72-6.51,16.63q0,11.26,16.52,35.17,54.28,79.71,100.33,116.25,38.91,31.22,74.35,31.23,27.11,0,64.91-11.9a268.43,268.43,0,0,0,59-26.58V413l52.5.08v-332h49V21.92ZM398.39,210.3c-9.07,9.19-25.39,25.22-49,35.32-62.31,24.51-77-9.35-77-26.62q0-19.81,15.94-37.55c24.85-23.38,63.71-6.38,79.07.22q19.2,8.27,31,19.58Zm0-48c-10.72-8.1-37.35-27.25-41.33-30-4.94-3.4-11.61-6.23-20.06-8.49a94.27,94.27,0,0,0-24.47-3.4q-32.49,0-57,24.76t-24.49,56q0,38.78,25.09,66.88t56.94,28.17q15.93,0,45.44-10.85,25.38-9.37,39.85-18.71v19.78q-24.79,16.19-60.78,29.44-43.71,16-67.28,16.07-36,0-64.6-17.1t-54-53.33q43-31.33,43.07-73.35V81.5h0L398.39,81Z"/></svg>