<?xml version="1.0" encoding="utf-8"?>
<!-- Generator: Adobe Illustrator 25.2.0, SVG Export Plug-In . SVG Version: 6.00 Build 0)  -->
<svg version="1.1" id="Layer_1" xmlns="http://www.w3.org/2000/svg" xmlns:xlink="http://www.w3.org/1999/xlink" x="0px" y="0px"
	 viewBox="0 0 609.9 410.8" style="enable-background:new 0 0 609.9 410.8;" xml:space="preserve">
<style type="text/css">
	.st0{opacity:0.3;enable-background:new    ;}
	.st1{fill:#C1672C;}
	.st2{fill:#442B0A;}
	.st3{fill:#312F33;}
	.st4{fill:#CC5B2D;}
	.st5{fill:#FCA327;}
	.st6{fill:#FC9627;}
	.st7{opacity:0.51;fill:#CC8A72;enable-background:new    ;}
	.st8{fill:#14615A;}
	.st9{opacity:0.26;fill:#14615A;enable-background:new    ;}
	.st10{fill:#1B6963;}
	.st11{opacity:0.13;fill:#14615A;enable-background:new    ;}
	.st12{fill:#F15823;}
	.st13{fill:#231E24;}
</style>
<g>
	<polygon class="st0" points="107.8,330 110.4,339.6 501.4,341.4 496.4,320.6 105.5,316.7 	"/>
	<rect x="107.3" y="196.6" class="st1" width="398" height="88"/>
	<path class="st2" d="M231.9,273.6H121.7c-1.9,0-3.4-1.5-3.4-3.4c0,0,0,0,0,0V210c0-1.9,1.5-3.4,3.4-3.4h110.2
		c1.9,0,3.4,1.5,3.4,3.4v60.2C235.3,272.1,233.8,273.6,231.9,273.6C231.9,273.6,231.9,273.6,231.9,273.6z M119.3,209.6v61
		c0,1.1,0.9,2,2,2h111c1.1,0,2-0.9,2-2v-60.9c0-1.1-0.9-2-2-2H121.3C120.2,207.7,119.3,208.5,119.3,209.6
		C119.3,209.6,119.3,209.7,119.3,209.6L119.3,209.6z"/>
	<path class="st2" d="M360.9,273.6H250.7c-1.9,0-3.4-1.5-3.4-3.4c0,0,0,0,0,0V210c0-1.9,1.5-3.4,3.4-3.4h110.2
		c1.9,0,3.4,1.5,3.4,3.4v0v60.2C364.3,272.1,362.8,273.6,360.9,273.6C360.9,273.6,360.9,273.6,360.9,273.6z M248.3,209.6v61
		c0,1.1,0.9,2,2,2h111c1.1,0,2-0.9,2-2v-60.9c0-1.1-0.9-2-2-2H250.3C249.2,207.7,248.3,208.5,248.3,209.6
		C248.3,209.6,248.3,209.7,248.3,209.6L248.3,209.6z"/>
	<path class="st2" d="M490.9,273.6H380.7c-1.9,0-3.4-1.5-3.4-3.4c0,0,0,0,0,0V210c0-1.9,1.5-3.4,3.4-3.4l0,0h110.2
		c1.9,0,3.4,1.5,3.4,3.4v0v60.2C494.3,272.1,492.8,273.6,490.9,273.6C490.9,273.6,490.9,273.6,490.9,273.6z M378.3,209.6v61
		c0,1.1,0.9,2,2,2h111c1.1,0,2-0.9,2-2v-60.9c0-1.1-0.9-2-2-2H380.3C379.2,207.7,378.3,208.5,378.3,209.6
		C378.3,209.6,378.3,209.7,378.3,209.6L378.3,209.6z"/>
	<polygon class="st3" points="145,283.6 126,323.6 136.3,323.6 170.9,283.6 	"/>
	<polygon class="st3" points="467.1,283.6 486.1,323.6 475.8,323.6 441.2,283.6 	"/>
	<path class="st3" d="M183,224.5c0,3.9-3.2,7.1-7.1,7.1c-3.9,0-7.1-3.2-7.1-7.1s3.2-7.1,7.1-7.1c0,0,0,0,0,0
		C179.8,217.4,183,220.6,183,224.5C183,224.5,183,224.5,183,224.5z"/>
	<path class="st3" d="M313.2,224.5c0,3.9-3.2,7.1-7.1,7.1s-7.1-3.2-7.1-7.1c0-3.9,3.2-7.1,7.1-7.1
		C310,217.4,313.2,220.6,313.2,224.5L313.2,224.5z"/>
	<path class="st3" d="M443.4,224.5c0,3.9-3.2,7.1-7.1,7.1s-7.1-3.2-7.1-7.1c0-3.9,3.2-7.1,7.1-7.1c0,0,0,0,0,0
		C440.2,217.4,443.4,220.6,443.4,224.5L443.4,224.5z"/>
	<path class="st4" d="M393.4,175.4c-2.2,11.2-10,21.2-10,21.2h-17.3c0,0-7.7-10.1-10-21.2s4-16.6,7.7-18.8c3.3-1.9,7.4-4,7.4-11.2
		v-36.8h7v36.8c0,7.3,4,9.3,7.4,11.2C389.4,158.8,395.6,164.2,393.4,175.4z"/>
	<path class="st4" d="M373.4,53.6h2.7c1.2,0,2.1,1,2.1,2.2v6.7c0,1.2-1,2.2-2.1,2.2h-2.7c-1.2,0-2.1-1-2.1-2.2v-6.7
		C371.3,54.6,372.3,53.6,373.4,53.6z"/>
	<rect x="344.3" y="58.6" class="st5" width="61" height="56"/>
	<rect x="363.3" y="58.6" class="st6" width="21" height="56"/>
	<path class="st7" d="M369.8,158.5c-3.2,0-8.2,6-8.4,12.8s3.6,11.4,5,11.3s0.2-5.7,1.2-12.1C368.4,164.9,372.9,158.5,369.8,158.5z"
		/>
	<path class="st8" d="M212.7,143.9c0,0.4-0.1,0.9-0.1,1.3c-0.3,5.6-0.9,10.8-1.3,14.3c-0.4,2.6-0.6,4.2-0.6,4.2h-2.7
		c0-6-5.5-6.2-7.5-18.2c0-0.3-0.1-0.5-0.1-0.8c-0.4-3.5-0.4-7-0.1-10.5c0.9-10.5,3.9-23.7,4.9-40.4c0,0,2.8,14.3,5.2,22.9
		c0.2,0.8,0.4,1.5,0.6,2.1s0.4,1.5,0.6,2.2C214,129.9,213.2,135.4,212.7,143.9z"/>
	<path class="st8" d="M238.4,95.8c0,0-0.8,37.1-2.6,47c-0.4,2.5-0.8,4.9-1.2,7.2c-1,7-1.6,12.6-1.6,12.6h-5.6
		c-1.3-6.6-1.9-13.3-1.7-20c0.2-7.8,1.4-15.1,3.6-20.5c0.2-0.5,0.4-0.9,0.6-1.4c0.9-2,2-4.7,3.1-7.7
		C235.3,106.5,237.6,98.9,238.4,95.8z"/>
	<path class="st8" d="M225.3,109.8c0,3.7-0.2,7.4-0.7,11.1c-0.1,0.7-0.2,1.5-0.3,2.2c-1.4,8.1-1.1,15.6-0.7,22.1
		c0.1,1.8,0.2,3.5,0.3,5.1c0.2,4.3-0.1,8.7-0.8,12.9c0,0.2-0.1,0.3-0.1,0.3h-6.4c0,0-3-11.5-1.5-21c0-0.2,0.1-0.3,0.1-0.5
		c1.3-8.7,1.5-23.6,1.4-33c0-1,0-1.9,0-2.8c0-2.3,0.2-4.5,0.5-6.7c1.3-10.2,5-24.5,7.2-27.1c0,0-0.9,15.4,0,22.8
		C224.9,100.1,225.3,104.9,225.3,109.8z"/>
	<path class="st9" d="M238.4,95.4c0,0-0.8,37.1-2.6,47c-1.4-0.2-2.3-15.7-2.1-18.6c0-0.9-0.5-1.6-1.4-1.8c-1-0.3-2-0.4-3-0.2
		c-0.4,0.1-0.9,0.1-1.3,0.2c-1.2-0.1-2.3-0.4-3.4-1c-0.4-0.2-0.8-0.5-1.1-0.8c-0.6-0.6-1-1.2-1.1-2c-1-3.6,0.2-9.2-2.4-11
		c-0.6-0.4-1.4-0.3-1.9,0.3c-0.6,0.5-1.1,1.1-1.5,1.8c-1.5,2.3-2.8,5.5-3.4,6.6c-0.7,1.7-1.2,3.4-1.6,5.2c-0.4,1.3-0.8,2.8-1.1,4.2
		c-1.4,4.9-2.9,9.8-3.8,9.5c-1.7-0.6-1.5-6.5-2.4-8.3c-0.5-1-2.4,3.6-3.9,7.8c0.9-10.5,3.9-23.7,4.9-40.4c0,0,2.8,14.3,5.2,22.9
		c0-4.6,0-8.3,0.2-10.5c0.7-10.8-1.5-27.9,0.9-34c0.6,5.4,1.7,10.7,3.3,15.9c1,3.9,1.8,7.8,2.4,11.8c1.3-10.2,5-24.5,7.2-27.1
		c0,0-0.9,15.4,0,22.8c0.6,4.8,0.9,9.6,1,14.5c2.5-8.9,6.7-22.7,6.7-22.7c1.3,5.2,1.8,10.6,1.6,16c-0.1,1.8-0.3,5.2-0.6,9.6
		C235.3,106.2,237.6,98.6,238.4,95.4z"/>
	<path class="st9" d="M212.7,143.9c0,0.4-0.1,0.9-0.1,1.3c-0.3,5.6-0.9,10.8-1.3,14.3c-0.4,2.6-0.6,4.2-0.6,4.2h-2.7
		c0-6-5.5-6.2-7.5-18.2c0-0.3-0.1-0.5-0.1-0.8c0.6-0.8,1.1-1.3,1.6-1.1c1.1,0.8,2.2,1.6,3.1,2.6c0,0,1.1-7,2.9-6.4s2.9,3.4,2.9,4.5
		C210.9,144.7,211.6,144.5,212.7,143.9z"/>
	<path class="st9" d="M223.9,150.3c0.2,4.3-0.1,8.7-0.8,12.9l-4.3,0.3h-2.1c0,0-3-11.5-1.5-21c0-0.2,0.1-0.3,0.1-0.5
		c1-0.7,1.8-1.5,2.6-2.4c1.2-1.8,0.7-3.8,2.2-0.7s1.5,7.6,2.4,7.5c0.2-0.1,0.7-0.6,1.2-1.3C223.7,147,223.8,148.7,223.9,150.3z"/>
	<path class="st9" d="M234.6,150c-1,7-1.6,12.6-1.6,12.6h-5.6c-1.3-6.6-1.9-13.3-1.7-20c1.1-1.6,2.2-3,2.8-3.1
		c1.3-0.2,4.6-0.7,4.2,3.3S232.5,151.3,234.6,150z"/>
	<path class="st10" d="M219.4,133.1c-0.1,1.2-0.1,2.3-0.2,3.3c-1.3,13.9-2.5,27.2-2.5,27.2h-5.2c0,0-0.1-1.6-0.1-4.2
		c-0.2-5-0.4-13.6-0.6-22.7c-0.1-3.9-0.2-7.9-0.2-11.6c0-3-0.1-5.9-0.1-8.5c0-2.4,0-4.6,0-6.5c0-1.6,0.1-3,0.1-4
		c0.7-10.8-1.5-28,0.9-34c0.6,5.4,1.7,10.7,3.3,15.8c1,3.9,1.8,7.8,2.4,11.8c0.4,2.4,0.7,5,1,7.7c0.8,6.6,1.3,13.8,1.3,20.1
		C219.5,129.5,219.4,131.4,219.4,133.1z"/>
	<path class="st10" d="M233.6,103.1c-0.1,1.8-0.3,5.2-0.6,9.6c-0.1,1.4-0.2,2.8-0.3,4.3s-0.3,3.3-0.4,5c-0.4,4.6-0.8,9.5-1.2,14.3
		c-0.8,9.4-1.6,18.3-2.1,23.6c-0.1,0.9-0.1,1.7-0.2,2.3l-0.2,2.4l-2.1-0.3l-4.1-0.6c0,0,0-13.9,0.4-27.4c0.1-5.1,0.4-10.2,0.7-14.4
		l0,0c0-0.6,0.1-1.2,0.1-1.8c0.1-2.6,0.5-5.2,1.1-7.7c0.2-0.8,0.5-1.6,0.7-2.6c2.5-8.9,6.7-22.7,6.7-22.7
		C233.3,92.3,233.8,97.7,233.6,103.1z"/>
	<path class="st11" d="M218.1,107.5c0.8,6.6,1.3,13.8,1.3,20.1c-0.9-1.8-1.6-3.7-2.3-5.7c-0.2-1,0.3-10-1-8.8s-2.4-0.8-2.9-2.9
		s-2.8,0-2.8,0c0-1.6,0.1-3,0.1-4c0.7-10.8-1.5-27.9,0.9-34c0.6,5.3,1.7,10.6,3.3,15.8c1,3.9,1.8,7.8,2.4,11.8
		C217.5,102.2,217.8,104.8,218.1,107.5z"/>
	<path class="st11" d="M233.6,103.1c-0.1,1.8-0.3,5.2-0.6,9.6c-0.1,1.4-0.2,2.8-0.3,4.3l-2,3l-2.7,4.8c-0.5-2-0.8-4.2-0.9-6.3
		c0-2.9-0.7-2.7-0.7-2.7l-3,6.1c0-0.6,0.1-1.2,0.1-1.8c0.1-2.6,0.5-5.2,1.1-7.7c0.2-0.8,0.5-1.6,0.7-2.6c2.5-8.9,6.7-22.7,6.7-22.7
		C233.3,92.4,233.8,97.7,233.6,103.1z"/>
	<path class="st11" d="M219.4,133.1c-0.1,1.2-0.1,2.3-0.2,3.3c-1.3,13.9-2.5,27.2-2.5,27.2h-5.2c0,0-0.1-1.6-0.1-4.2
		c-0.2-5-0.4-13.6-0.6-22.7c0.7-1.3,2.1-3.9,2.6-2.2c0.6,2.2,1.7,1.2,1.7,1.2s2.4-3.6,3.4-3.6C218.6,132.1,219,132.5,219.4,133.1z"
		/>
	<path class="st11" d="M231.1,136.4c-0.8,9.4-1.6,18.3-2.1,23.6l-2.6,4.4l-4.1-0.6c0,0,0-13.9,0.4-27.4l2.6-2.3l2.7-1.8
		c0,0-0.5,6.7,0,6.8S231.1,136.4,231.1,136.4z"/>
	<path class="st12" d="M242.3,159.6v18.6c0,0.5,0,1-0.1,1.6c-0.2,2-0.7,3.9-1.5,5.7c-0.4,0.9-0.9,1.8-1.4,2.6
		c-3.4,5.3-9.3,8.5-15.6,8.4h-8.9c-6.3,0-12.2-3.2-15.6-8.4c-1.9-2.8-2.9-6.1-3-9.5c0-0.2,0-0.3,0-0.5v-18.6H242.3z"/>
	<path class="st13" d="M242.3,175.9v2.1c0,0.5,0,1.1-0.1,1.6l-6.4-7.8l-6.5,8.9c-0.2,0.3-0.6,0.5-0.9,0.5c-0.4,0-0.7-0.1-0.9-0.4
		l-7.4-9l-7,8.9c-0.2,0.3-0.6,0.4-0.9,0.4c-0.4,0-0.7-0.1-0.9-0.4l-7.8-9.1l-6.8,6.6l-0.4-0.1v-2.8l6.4-6.1c0.2-0.2,0.6-0.4,0.9-0.3
		c0.3,0,0.6,0.2,0.9,0.4l7.6,9l7-8.9c0.4-0.5,1.2-0.6,1.7-0.2c0.1,0.1,0.1,0.1,0.2,0.2l7.3,8.9l6.5-8.9c0.2-0.3,0.6-0.5,0.9-0.5l0,0
		c0.4,0,0.7,0.2,0.9,0.4L242.3,175.9z"/>
	<path class="st13" d="M240.8,185.4c-0.4,0.9-0.9,1.8-1.4,2.6c-6.6,1.1-13.3,1.7-20,1.7c-6.7-0.1-13.3-0.6-19.9-1.7
		c-0.5-0.8-1-1.7-1.4-2.7c7.1,1.3,14.2,1.9,21.4,2C226.6,187.3,233.8,186.6,240.8,185.4z"/>
</g>
</svg>
