<svg id="Layer_1" data-name="Layer 1" xmlns="http://www.w3.org/2000/svg" viewBox="0 0 470 460"><defs><style>.cls-1{fill:#8d8e8d;}</style></defs><path class="cls-1" d="M428.22,223.12a26.62,26.62,0,1,0,26.62,26.61A26.62,26.62,0,0,0,428.22,223.12Z"/><path class="cls-1" d="M399.85,89.62l-.21-64.09H15.16l.09,64.09H264.13v43.49H154.27q-32.82,0-50.36,16.47T86.36,192.09q0,34.49,38.53,80.83T197,319.27q13,0,51.12-9.16T296.94,301q17.54,0,17.55,11.44,0,19.85-25.94,38.91-29.76,22.14-70.2,22.13-41.19,0-81.63-21.75t-82.4-67.52L28.38,306.3q71,73.56,122.83,100.87t113.68,27.3q42,0,72.49-28.23t30.51-63.32c0-8.13-2.06-107-87-106-6.62.07-27,3-61,9.15s-52.39,9.16-54.93,9.16a19.68,19.68,0,0,1-14.5-6.17,21.1,21.1,0,0,1-6.1-15.47q0-39.39,44.25-39.4H330s-.22-6.14-.22-18.44V89.62Z"/></svg>