<svg id="Layer_1" data-name="Layer 1" xmlns="http://www.w3.org/2000/svg" viewBox="0 0 470 460"><defs><style>.cls-1{fill:#ff0;}</style></defs><path class="cls-1" d="M428.22,217.12a32.62,32.62,0,1,0,32.62,32.61A32.65,32.65,0,0,0,428.22,217.12Zm0,59.23a26.62,26.62,0,1,1,26.62-26.62A26.62,26.62,0,0,1,428.22,276.35Z"/><path class="cls-1" d="M405.64,25.51a6,6,0,0,0-6-6H15.16a6,6,0,0,0-6,6l.09,64.09a6,6,0,0,0,6,6H258.13v31.49H154.27c-23.35,0-41.67,6.09-54.46,18.09s-19.45,27.88-19.45,46.89c0,24.32,13.43,52.81,39.92,84.66C147,308.94,172.84,325.27,197,325.27c9.2,0,26.38-3,52.52-9.32,31-7.43,42.88-9,47.43-9,11.55,0,11.55,3.81,11.55,5.44,0,11.15-7.91,22.62-23.52,34.1-18.68,13.89-41.09,20.94-66.62,20.94-26.33,0-52.84-7.08-78.79-21C113.31,332.3,86.12,310,58.74,280.12a6,6,0,0,0-4.42-1.95,5.92,5.92,0,0,0-3.89,1.44L24.48,301.73A6,6,0,0,0,22.39,306a6,6,0,0,0,1.67,4.46c47.55,49.3,89.39,83.62,124.36,102,35.28,18.57,74.47,28,116.47,28,29.41,0,55.17-10,76.56-29.82s32.44-42.7,32.44-67.73c0-3.13-.33-31.38-12-58.44-15.11-35.07-42.72-53.62-79.83-53.62h-1.23c-7.35.08-28.22,3.19-62,9.25-43.28,7.75-52.37,9-53.87,9.06a13.59,13.59,0,0,1-10.23-4.39,15.22,15.22,0,0,1-4.37-11.25c0-22.78,12.15-33.4,38.25-33.4H330a6,6,0,0,0,6-6.21c0-.06-.22-6.21-.22-18.23V95.62h64.11a6,6,0,0,0,6-6Zm-75.9,64.11V175.7c0,12.3.22,18.44.22,18.44H188.6q-44.25,0-44.25,39.4a21.1,21.1,0,0,0,6.1,15.47,19.68,19.68,0,0,0,14.5,6.17q3.81,0,54.93-9.16c34.07-6.1,54.42-9.08,61-9.15,84.91-.91,87,97.92,87,106.05q0,35.1-30.51,63.32t-72.49,28.23q-61.78,0-113.68-27.3T28.38,306.3l25.94-22.13q41.94,45.78,82.4,67.52t81.63,21.75q40.44,0,70.2-22.13,25.92-19.06,25.94-38.91,0-11.44-17.55-11.44-10.69,0-48.83,9.15T197,319.27q-33.59,0-72.1-46.35T86.36,192.09q0-26,17.55-42.51t50.36-16.47H264.13V89.62H15.25l-.09-64.09H399.64l.21,64.09Z"/></svg>