<svg id="Layer_1" data-name="Layer 1" xmlns="http://www.w3.org/2000/svg" viewBox="0 0 500 450"><defs><style>.cls-1{fill:#fff;}</style></defs><path class="cls-1" d="M479.33,13.79H20.67a6,6,0,0,0-6,6V80.58a6,6,0,0,0,6,6H325.88V215.72c-23.17,28.22-47.2,51-71.47,67.62-25.68,17.84-48.47,26.89-67.71,26.89-12.26,0-17.49-5.53-17.49-18.49s4.15-27.18,12.34-42,17-25,26.29-30.37l.27-.17c5-3.31,11.7-5.61,19.76-6.83a196.8,196.8,0,0,1,29.29-2h37.58a6,6,0,0,0,5.4-8.62l-33.56-69.07a6,6,0,0,0-5.39-3.38H49.81a6,6,0,0,0-6,6V204.4a6,6,0,0,0,6,6h64a123,123,0,0,0-7.62,43.91c0,28.13,12.37,56.31,36.75,83.77,24.56,27.67,51,41.7,78.64,41.7,15.12,0,33.25-6.46,55.43-19.77a291,291,0,0,0,48.85-37.46V430.21a6,6,0,0,0,6,6h59.73a6,6,0,0,0,6-6V86.58h81.72a6,6,0,0,0,6-6V19.79A6,6,0,0,0,479.33,13.79Zm0,66.79H391.61V430.21H331.88V308.31Q303.6,337,273.94,354.87q-31.56,18.93-52.34,18.91-38.94,0-74.16-39.68t-35.23-79.79q0-27.8,10.74-49.91H49.81V135.33H261.19l33.55,69.07H257.16a202.25,202.25,0,0,0-30.2,2q-13.43,2.06-22.14,7.75-15.45,9-28.52,32.66t-13.09,44.89q0,24.5,23.49,24.49,30.86,0,71.13-28,38-26.1,74.05-70.41V80.58H20.67V19.79H479.33Z"/></svg>