<svg id="Layer_1" data-name="Layer 1" xmlns="http://www.w3.org/2000/svg" viewBox="0 0 480 460"><defs><style>.cls-1{fill:#fff;}</style></defs><path class="cls-1" d="M197.28,147.12h0V260.91q0,25.54,23.12,25.53,15.14,0,42.63-13.5c12.39-6.09,38.39-23.08,56.25-34.72l-122-100.54Zm6,3.28,105.88,87.25c-16.62,10.82-38.23,24.72-48.78,29.9-17.41,8.56-30.86,12.89-40,12.89-8.47,0-17.12-2.32-17.12-19.53Z"/><path class="cls-1" d="M466.7,18.09a6,6,0,0,0-6-6H19.27a6,6,0,0,0-6,6V81.3a6,6,0,0,0,6,6H129.41V231.83c0,31.56,6.72,57.66,39.49,82.44,29.67,22.59,56.94,34.05,81.07,34.05,12,0,26.53-3.26,44.41-10a186.14,186.14,0,0,0,23-10.43V439a6,6,0,0,0,5.73,6l63.34,2.88h.27a6,6,0,0,0,6-6V87.3h68a6,6,0,0,0,6-6Zm-80,63.21V441.9L323.4,439V317.52a173.67,173.67,0,0,1-31.12,15.22q-25.56,9.58-42.31,9.58-34.33,0-77.43-32.83c-32.47-24.54-37.13-50.43-37.13-77.66V81.3H19.27V18.1H460.7l0,63.2Z"/><path class="cls-1" d="M253.16,81.3H197.28V92.06L323.4,195.92V81.3H253.16ZM317.4,183.21l-114.12-94V87.3H317.4Z"/></svg>