<svg id="Layer_1" data-name="Layer 1" xmlns="http://www.w3.org/2000/svg" viewBox="0 0 560 460"><defs><style>.cls-1{fill:#8d8e8d;}</style></defs><path class="cls-1" d="M525.7,96.76l.18-60.92H34.71l-.6,60.92H280.58V202.11s-14.88-18.3-21-24.49a310.14,310.14,0,0,0-38.19-33q-8.28-5.78-23.4-9.05a146.42,146.42,0,0,0-31-3.27q-44.74,0-75.71,28.28T60.37,228q0,44.25,38.88,85.21t81.55,41q23.4,0,50.93-12c15-6.54,48.85-29.62,48.85-29.63V424.37h61.25V277.71s20.32-16.23,35.79-26.12Q410,230.92,423,230.92q7.56,0,14.11,6.9a22.11,22.11,0,0,1,6.54,15.6q0,13.82-14.8,50.1c-11,22.82-11.6,24.64-13.38,28.7l57.81,45c2.42-13.52,18.54-63.53,18.54-79.5q0-50.09-27.87-86T400.32,175.8q-13.76,0-35.09,9.8c-9.38,4.3-23.34,13.07-23.4,13.11V96.76ZM204,287.11c-35.74,16.42-63.44,25-78,2-15-28-1-57.65,9-71,21-28,47.51-26.49,69-23,34.83,5.65,72.32,36.1,76.59,39.65v5.63C275.78,243.69,229,275.63,204,287.11Z"/><path class="cls-1" d="M525.7,96.76l.18-60.92H34.71l-.6,60.92H280.58V202.11s-14.88-18.3-21-24.49a310.14,310.14,0,0,0-38.19-33q-8.28-5.78-23.4-9.05a146.42,146.42,0,0,0-31-3.27q-44.74,0-75.71,28.28T60.37,228q0,44.25,38.88,85.21t81.55,41q23.4,0,50.93-12c15-6.54,48.85-29.62,48.85-29.63V424.37h61.25V277.71s20.32-16.23,35.79-26.12Q410,230.92,423,230.92q7.56,0,14.11,6.9a22.11,22.11,0,0,1,6.54,15.6q0,13.82-14.8,50.1c-11,22.82-11.6,24.64-13.38,28.7l57.81,45c2.42-13.52,18.54-63.53,18.54-79.5q0-50.09-27.87-86T400.32,175.8q-13.76,0-35.09,9.8c-9.38,4.3-23.34,13.07-23.4,13.11V96.76ZM204,287.11c-35.74,16.42-63.44,25-78,2-15-28-1-57.65,9-71,21-28,47.51-26.49,69-23,34.83,5.65,72.32,36.1,76.59,39.65v5.63C275.78,243.69,229,275.63,204,287.11Z"/></svg>