<svg id="Layer_1" data-name="Layer 1" xmlns="http://www.w3.org/2000/svg" viewBox="0 0 560 460"><defs><style>.cls-1{fill:#8d8e8d;}.cls-2{fill:#ff0;}</style></defs><path class="cls-1" d="M135,218c-10,13.36-24,43-9,71,14.56,23,42.25,14.43,78-2,25-11.48,71.78-43.42,76.59-46.72v-5.62c-4.28-3.56-41.76-34-76.59-39.66C182.51,191.51,156,190,135,218Zm66.49,63.55c-17.52,8.05-35.63,15.5-49.42,15.5-9.52,0-16-3.42-20.88-11.08-16-30.11,6-61,8.61-64.37,11.49-15.33,25.6-22.46,44.4-22.46A119.41,119.41,0,0,1,203,200.92c29.63,4.81,61.75,28.81,71.28,36.38C262.65,245.21,223.41,271.48,201.49,281.55Z"/><path class="cls-2" d="M135,218c-10,13.36-24,43-9,71,14.56,23,42.25,14.43,78-2,25-11.48,71.78-43.42,76.59-46.72v-5.62c-4.28-3.56-41.76-34-76.59-39.66C182.51,191.51,156,190,135,218Zm66.49,63.55c-17.52,8.05-35.63,15.5-49.42,15.5-9.52,0-16-3.42-20.88-11.08-16-30.11,6-61,8.61-64.37,11.49-15.33,25.6-22.46,44.4-22.46A119.41,119.41,0,0,1,203,200.92c29.63,4.81,61.75,28.81,71.28,36.38C262.65,245.21,223.41,271.48,201.49,281.55Z"/><path class="cls-1" d="M530.13,31.5a6,6,0,0,0-4.25-1.77H34.71a6,6,0,0,0-6,5.95l-.59,60.91a6,6,0,0,0,6,6.06H274.59v82.73c-4.36-5.09-8.75-10.09-10.71-12.08a316.24,316.24,0,0,0-38.94-33.64l-.09-.07c-6.23-4.36-14.59-7.63-25.57-10a153.58,153.58,0,0,0-32.23-3.39c-31.23,0-58.06,10-79.76,29.85s-32.92,44.14-32.92,71.87c0,31,13.64,61,40.53,89.34s55.86,42.85,85.91,42.85c16.35,0,34.29-4.19,53.32-12.47,10.48-4.55,29.09-16.41,40.46-23.9V424.27a6,6,0,0,0,6,6h61.25a6,6,0,0,0,6-6V280.51c5.69-4.46,20.93-16.25,33-24,25.53-16.31,37-19.73,42.2-19.73,3.35,0,6.54,1.64,9.75,5a16.14,16.14,0,0,1,4.89,11.47c0,5.75-2.48,18.69-14.28,47.65-9.45,19.56-11.24,23.75-12.69,27.12-.23.54-.45,1.06-.7,1.62a6,6,0,0,0,1.81,7.14l57.81,45a6,6,0,0,0,3.69,1.27,6.1,6.1,0,0,0,2.14-.4,6,6,0,0,0,3.76-4.55c.8-4.49,3.32-13.65,6.23-24.25,5.81-21.16,12.4-45.15,12.4-56.31,0-34.59-9.8-64.75-29.12-89.66C449,182.57,426,169.69,400.33,169.69c-10.14,0-22.43,3.39-37.6,10.35-4.64,2.13-10.24,5.24-14.89,7.94V102.65H525.71a6,6,0,0,0,6-6l.17-60.92A6,6,0,0,0,530.13,31.5Zm-4.42,65.15H341.84V198.6c.06,0,14-8.8,23.4-13.11q21.33-9.8,35.09-9.8,35.78,0,63.67,35.94t27.86,86c0,16-16.12,66-18.54,79.51l-57.8-45c1.78-4.06,2.36-5.88,13.37-28.7q14.82-36.3,14.8-50.09a22.08,22.08,0,0,0-6.54-15.6q-6.54-6.91-14.1-6.91-13.1,0-45.43,20.67c-15.47,9.89-35.78,26.12-35.78,26.12V424.27H280.59V312.51s-33.81,23.08-48.85,29.62q-27.54,12-50.93,12-42.69,0-81.55-41T60.37,227.91q0-39.15,31-67.44t75.71-28.28a146.32,146.32,0,0,1,31,3.26q15.12,3.27,23.4,9.06a309.28,309.28,0,0,1,38.2,33c6.1,6.19,21,24.49,21,24.49V96.65H34.12l.59-60.92H525.88Z"/><path class="cls-2" d="M530.13,31.5a6,6,0,0,0-4.25-1.77H34.71a6,6,0,0,0-6,5.95l-.59,60.91a6,6,0,0,0,6,6.06H274.59v82.73c-4.36-5.09-8.75-10.09-10.71-12.08a316.24,316.24,0,0,0-38.94-33.64l-.09-.07c-6.23-4.36-14.59-7.63-25.57-10a153.58,153.58,0,0,0-32.23-3.39c-31.23,0-58.06,10-79.76,29.85s-32.92,44.14-32.92,71.87c0,31,13.64,61,40.53,89.34s55.86,42.85,85.91,42.85c16.35,0,34.29-4.19,53.32-12.47,10.48-4.55,29.09-16.41,40.46-23.9V424.27a6,6,0,0,0,6,6h61.25a6,6,0,0,0,6-6V280.51c5.69-4.46,20.93-16.25,33-24,25.53-16.31,37-19.73,42.2-19.73,3.35,0,6.54,1.64,9.75,5a16.14,16.14,0,0,1,4.89,11.47c0,5.75-2.48,18.69-14.28,47.65-9.45,19.56-11.24,23.75-12.69,27.12-.23.54-.45,1.06-.7,1.62a6,6,0,0,0,1.81,7.14l57.81,45a6,6,0,0,0,3.69,1.27,6.1,6.1,0,0,0,2.14-.4,6,6,0,0,0,3.76-4.55c.8-4.49,3.32-13.65,6.23-24.25,5.81-21.16,12.4-45.15,12.4-56.31,0-34.59-9.8-64.75-29.12-89.66C449,182.57,426,169.69,400.33,169.69c-10.14,0-22.43,3.39-37.6,10.35-4.64,2.13-10.24,5.24-14.89,7.94V102.65H525.71a6,6,0,0,0,6-6l.17-60.92A6,6,0,0,0,530.13,31.5Zm-4.42,65.15H341.84V198.6c.06,0,14-8.8,23.4-13.11q21.33-9.8,35.09-9.8,35.78,0,63.67,35.94t27.86,86c0,16-16.12,66-18.54,79.51l-57.8-45c1.78-4.06,2.36-5.88,13.37-28.7q14.82-36.3,14.8-50.09a22.08,22.08,0,0,0-6.54-15.6q-6.54-6.91-14.1-6.91-13.1,0-45.43,20.67c-15.47,9.89-35.78,26.12-35.78,26.12V424.27H280.59V312.51s-33.81,23.08-48.85,29.62q-27.54,12-50.93,12-42.69,0-81.55-41T60.37,227.91q0-39.15,31-67.44t75.71-28.28a146.32,146.32,0,0,1,31,3.26q15.12,3.27,23.4,9.06a309.28,309.28,0,0,1,38.2,33c6.1,6.19,21,24.49,21,24.49V96.65H34.12l.59-60.92H525.88Z"/></svg>