<svg xmlns="http://www.w3.org/2000/svg" xmlns:xlink="http://www.w3.org/1999/xlink" width="1022.24" height="361.56" viewBox="0 0 1022.24 361.56">
  <defs>
    <style>
      .cls-1 {
        fill: none;
      }

      .cls-2 {
        isolation: isolate;
      }

      .cls-3 {
        clip-path: url(#clip-path);
      }

      .cls-4 {
        fill: #231f20;
      }

      .cls-22, .cls-4 {
        opacity: 0.3;
      }

      .cls-10, .cls-13, .cls-18, .cls-22, .cls-24, .cls-32, .cls-41, .cls-5 {
        mix-blend-mode: overlay;
      }

      .cls-10, .cls-5 {
        opacity: 0.17;
      }

      .cls-6 {
        fill: #a7a4a4;
      }

      .cls-7 {
        fill: #ccc9c9;
      }

      .cls-8 {
        fill: #a29c87;
      }

      .cls-9 {
        fill: #8d8787;
      }

      .cls-11 {
        fill: #ebc057;
      }

      .cls-12 {
        fill: #efc962;
      }

      .cls-13, .cls-38 {
        opacity: 0.76;
      }

      .cls-14, .cls-28, .cls-38 {
        mix-blend-mode: soft-light;
      }

      .cls-14 {
        opacity: 0.58;
      }

      .cls-15 {
        fill: #fff;
      }

      .cls-16 {
        fill: #dda72d;
      }

      .cls-17 {
        opacity: 0.63;
      }

      .cls-18 {
        opacity: 0.33;
      }

      .cls-19 {
        fill: #e1932a;
      }

      .cls-20 {
        fill: #9aa859;
      }

      .cls-21 {
        opacity: 0.72;
      }

      .cls-23 {
        fill: #a4a7d3;
      }

      .cls-24, .cls-32 {
        opacity: 0.09;
      }

      .cls-25 {
        fill: #e27f3b;
      }

      .cls-26 {
        fill: #93928e;
      }

      .cls-27 {
        fill: #5b5aa7;
      }

      .cls-28 {
        opacity: 0.6;
      }

      .cls-29 {
        clip-path: url(#clip-path-2);
      }

      .cls-30 {
        fill: #93be48;
      }

      .cls-31 {
        fill: #bacd4e;
      }

      .cls-33 {
        fill: #d4f998;
      }

      .cls-34 {
        fill: #868583;
      }

      .cls-35 {
        fill: #b1632c;
      }

      .cls-36 {
        fill: #eb7c2d;
      }

      .cls-37 {
        fill: #f68f4d;
      }

      .cls-39 {
        fill: #d96327;
      }

      .cls-40 {
        fill: #e5e5e4;
      }

      .cls-41 {
        opacity: 0.78;
      }
    </style>
    <clipPath id="clip-path">
      <rect class="cls-1" x="-288.88" y="-375.94" width="1600" height="900"/>
    </clipPath>
    <clipPath id="clip-path-2">
      <path class="cls-1" d="M210.65,154.63s6.57,10.84,20.14,11.91,16.37-1.61,24.11-1.63,9.74-3.68,11.75-3,11.35,4.89,16.71,3.17,6.82-5.24,15.94-4.89,28.09-3.87,26.45-9.57-54.9-21.95-54.9-21.95l-55.09,1.25Z"/>
    </clipPath>
  </defs>
  <g class="cls-2">
    <g id="Layer_1" data-name="Layer 1">
      <g class="cls-3">
        <g>
          <ellipse class="cls-4" cx="511.12" cy="218.68" rx="434.5" ry="118.82"/>
          <path class="cls-5" d="M910.77,208.79c0,51.07-178.07,92.48-397.76,92.48A1574.72,1574.72,0,0,1,344.4,292.6c166.9-5.74,463.26-21,497.12-73,17-26.19-37.28-60.93-73-81.68C855.48,154.88,910.77,180.35,910.77,208.79Z"/>
          <g>
            <ellipse class="cls-6" cx="513.38" cy="210.38" rx="417.32" ry="101.85"/>
            <path class="cls-7" d="M513.38,317.55a1596.88,1596.88,0,0,1-162.9-8c-49.89-5.15-94.73-12.53-133.25-21.93-38.75-9.46-69.25-20.52-90.65-32.87-23.48-13.55-35.39-28.46-35.39-44.34S103.1,179.59,126.58,166c21.4-12.35,51.9-23.4,90.65-32.86,38.52-9.4,83.36-16.78,133.25-21.93a1594,1594,0,0,1,162.9-8,1593.87,1593.87,0,0,1,162.9,8c49.9,5.15,94.73,12.53,133.26,21.93,38.74,9.46,69.24,20.51,90.65,32.86,23.48,13.55,35.39,28.47,35.39,44.34s-11.91,30.79-35.39,44.34c-21.41,12.35-51.91,23.41-90.65,32.87C771,297,726.18,304.37,676.28,309.52A1596.73,1596.73,0,0,1,513.38,317.55Zm0-203.7c-111.12,0-215.54,10.55-294,29.7-37.9,9.25-67.58,20-88.22,31.89-19.75,11.4-30.2,23.48-30.2,34.94s10.45,23.55,30.2,35c20.64,11.91,50.32,22.63,88.22,31.88,78.48,19.16,182.9,29.71,294,29.71s215.54-10.55,294-29.71c37.91-9.25,67.59-20,88.22-31.88,19.76-11.4,30.2-23.49,30.2-35s-10.44-23.54-30.2-34.94C875,163.53,845.31,152.8,807.4,143.55,728.92,124.4,624.5,113.85,513.38,113.85Z"/>
            <path class="cls-8" d="M923.38,208.79c0,51.07-183.46,92.48-409.8,92.48a1670.74,1670.74,0,0,1-173.71-8.67c-139.49-14.8-236.09-46.73-236.09-83.81,0-51.07,183.46-92.48,409.8-92.48,100.24,0,192,8.12,263.21,21.6C866.42,154.88,923.38,180.35,923.38,208.79Z"/>
            <path class="cls-9" d="M923.4,208.79a20.81,20.81,0,0,1-.91,6.14c-14-48.22-191.73-86.34-408.89-86.34s-394.92,38.12-408.89,86.34a20.81,20.81,0,0,1-.91-6.14c0-51.08,183.44-92.48,409.8-92.48S923.4,157.71,923.4,208.79Z"/>
            <g class="cls-10">
              <path d="M234.25,244.93c-2.28-.43-4.54-.94-6.8-1.47s-4.52-1.1-6.77-1.69q-6.75-1.78-13.43-4c-2.23-.73-4.45-1.49-6.65-2.3-1.11-.4-2.21-.82-3.31-1.24s-2.2-.87-3.29-1.32c-2.19-.91-4.36-1.87-6.52-2.91s-4.3-2.16-6.41-3.39a57.59,57.59,0,0,1-6.21-4.17,35.35,35.35,0,0,1-3-2.58,26.2,26.2,0,0,1-2.77-3.17c-.21-.31-.43-.6-.63-.93l-.3-.48-.3-.51-.14-.26-.14-.27-.26-.54c-.09-.19-.17-.38-.25-.57l-.12-.29-.11-.3-.21-.61-.18-.63-.09-.32-.07-.34c0-.22-.1-.43-.13-.66a13.73,13.73,0,0,1-.14-2.8,13,13,0,0,1,.16-1.4l.06-.34,0-.18,0-.16c.06-.23.11-.45.17-.68a14.12,14.12,0,0,1,1-2.46,18.06,18.06,0,0,1,2.67-3.93,26.16,26.16,0,0,1,3.06-2.93,38.06,38.06,0,0,1,3.2-2.36c1.09-.71,2.18-1.38,3.28-2s2.2-1.18,3.31-1.74c2.22-1.09,4.45-2.05,6.7-2.95s4.5-1.71,6.76-2.47c4.52-1.54,9.07-2.86,13.62-4.07,2.28-.61,4.56-1.17,6.84-1.71l6.83-1.56,3.42-.77.85-.19.86-.18,1.71-.35,6.85-1.4c2.28-.49,4.57-.89,6.85-1.32l6.87-1.27,3.44-.58,3.43-.58,3.44-.57c1.15-.19,2.3-.39,3.44-.56l6.89-1.05c2.3-.34,4.59-.7,6.89-1l6.9-.95,3.44-.47,3.45-.43,6.91-.85,3.45-.41,3.45-.39c18.42-2.08,36.87-3.69,55.33-4.94s36.93-2.13,55.41-2.66l6.93-.18c2.31-.06,4.62-.12,6.93-.16l6.93-.12c2.31,0,4.62,0,6.93-.08q13.84-.15,27.71,0t27.72.56c9.24.3,18.47.69,27.7,1.32-18.43,1.57-36.84,3-55.24,4.39s-36.78,2.85-55.15,4.32c-36.74,3-73.43,6.16-110,10.26-4.58.48-9.14,1.06-13.7,1.59l-3.43.4-3.42.44-6.84.86c-2.28.28-4.55.6-6.83.91l-6.83.92c-1.14.15-2.27.32-3.41.49l-3.41.5-6.82,1-6.8,1.08c-2.26.36-4.54.69-6.8,1.1l-6.78,1.17-1.7.28-.85.15-.84.16-3.38.64-6.77,1.26q-3.36.66-6.69,1.38c-2.23.48-4.44,1-6.65,1.54s-4.39,1.11-6.57,1.73a109,109,0,0,0-12.7,4.33c-1,.43-2,.87-3,1.35s-1.93,1-2.85,1.5l-.69.41-.66.41c-.23.14-.44.29-.65.43s-.43.29-.63.44a19.46,19.46,0,0,0-2.25,1.88,9.87,9.87,0,0,0-1.58,2,6,6,0,0,0-.46,1c0,.08-.05.16-.08.23l0,.06,0,.06,0,.12c0,.15-.06.3-.1.46a5.08,5.08,0,0,0,0,1,2.6,2.6,0,0,0,0,.26v.13l0,.13a2.33,2.33,0,0,1,0,.28,2.29,2.29,0,0,1,.08.28,1,1,0,0,0,0,.14l.05.14c0,.1.06.2.1.29l.12.3.06.15.08.15.14.31.17.3c.1.21.23.41.35.62a18.46,18.46,0,0,0,1.85,2.44c.71.79,1.48,1.56,2.29,2.31a53.52,53.52,0,0,0,5.29,4.19,112.44,112.44,0,0,0,11.84,7.11c4.09,2.17,8.29,4.18,12.53,6.09s8.53,3.71,12.85,5.46S229.87,243.34,234.25,244.93Z"/>
            </g>
          </g>
          <g>
            <g>
              <path class="cls-11" d="M732,133.83a0,0,0,0,0,0,0c-20.1,37.49-88.82,55.2-91.71,52.3-6.5-2.48-13-21.72-13-21.72l35.78-60.38,48.61-2.41h0l24-1.21A43.88,43.88,0,0,1,732,133.83Z"/>
              <path class="cls-5" d="M731.94,133.87c-20.1,37.49-88.82,55.2-91.71,52.3-6.5-2.48-13-21.72-13-21.72l35.78-60.38,48.61-2.41h0c7.57,1.24,18.78,12.27,18.81,14.46.35,24.87-31.77,25.38-41.37,30.48s-33.93,25.16-32.4,32.93,43.34-17.95,54-27C716.47,147.58,725.16,139.89,731.94,133.87Z"/>
              <path class="cls-12" d="M725.16,124.62a48.06,48.06,0,0,1-25.4,15.77c-9.89,2.51-17.09,4.32-24.58,10.73-7.28,6.24-13,13.72-18.36,21.19-3.06,4.33-8.32,14.74-15.93,14.18C636.3,186.13,617,178.16,592,167c-3.84-1.74-7.81-3.51-11.87-5.35-50.76-23-117.48-55-137.55-64.7-2.77-1.35,2.9-8.19,5.51-9.78,30.28-18.36,57.95-28.53,84.18-33a1.82,1.82,0,0,1,.25-.07,198.28,198.28,0,0,1,24.2-2.63c49.68-2.3,94.9,14.11,143.5,30.37,20.44,6.77,35.42,15.59,35.5,18.6C737.65,110,731.2,117.29,725.16,124.62Z"/>
              <g class="cls-13">
                <path d="M514.16,90.86a41.23,41.23,0,0,1-4.51,2c-1.54.59-3.1,1.15-4.66,1.67s-3.14,1-4.73,1.46c-.79.22-1.59.44-2.38.62s-1.6.37-2.38.5c-.39.07-.78.12-1.16.15a4.44,4.44,0,0,1-1,0h-.07l0,0h0l0,0a.12.12,0,0,1,.05,0,.23.23,0,0,1,.07.07l.05.09,0,.1s0,0,0,.08,0,.11,0,.11a.83.83,0,0,1,.17-.22,1.21,1.21,0,0,1,.16-.16,1.49,1.49,0,0,1,.18-.17A14.75,14.75,0,0,1,495.91,96c.33-.21.67-.4,1-.6l1-.59c1.41-.77,2.87-1.49,4.35-2.2l2.23-1,2.26-1c-.42.07-.84.16-1.26.25l-1.24.29c-.82.2-1.64.44-2.45.68a49.21,49.21,0,0,0-4.76,1.75c-.77.34-1.54.7-2.28,1.1-.38.2-.75.4-1.12.63a12.46,12.46,0,0,0-1.09.75,3.8,3.8,0,0,0-.53.47,2.48,2.48,0,0,0-.52.69,1.47,1.47,0,0,0-.15.64,1.49,1.49,0,0,0,0,.21,1.55,1.55,0,0,0,.08.23.72.72,0,0,0,.12.21,1,1,0,0,0,.16.19l.17.14.09.07.08,0,.16.09.15.06.28.09.25,0a7.18,7.18,0,0,0,1.59,0c.47,0,.92-.1,1.36-.17A36.58,36.58,0,0,0,501,97.7q2.43-.8,4.73-1.8a46.64,46.64,0,0,0,4.48-2.22c.72-.41,1.42-.84,2.09-1.31q.51-.34,1-.72C513.57,91.39,513.88,91.14,514.16,90.86Z"/>
              </g>
              <g class="cls-13">
                <path d="M644.53,147.75a38.64,38.64,0,0,1-4.51,2c-1.54.6-3.09,1.15-4.66,1.68s-3.14,1-4.73,1.46c-.79.22-1.58.43-2.38.62s-1.59.37-2.38.49c-.39.07-.78.13-1.15.16a5.2,5.2,0,0,1-1,0l-.08,0s0,0,0,0h0l0,0,.06.05s.05.05.06.08l0,.09a.17.17,0,0,1,0,.1.2.2,0,0,1,0,.07c0,.11,0,.12,0,.12a1.12,1.12,0,0,1,.17-.23l.16-.16.18-.16a15.54,15.54,0,0,1,1.83-1.29l1-.61c.34-.2.69-.39,1.05-.58,1.4-.77,2.86-1.49,4.34-2.2.74-.36,1.48-.7,2.23-1l2.26-1c-.42.07-.83.16-1.25.25l-1.24.29q-1.25.31-2.46.69a47.42,47.42,0,0,0-4.75,1.75c-.78.34-1.54.69-2.29,1.09-.38.2-.75.41-1.12.64a10.37,10.37,0,0,0-1.08.74c-.18.14-.36.3-.54.47a3.09,3.09,0,0,0-.51.69,1.4,1.4,0,0,0-.16.64,1.66,1.66,0,0,0,0,.22c0,.07,0,.15.07.23a2.25,2.25,0,0,0,.12.21l.16.19.17.14a.47.47,0,0,0,.09.06l.08.05.17.08.15.07.27.08a1.32,1.32,0,0,0,.26.05,6.58,6.58,0,0,0,1.58,0c.47,0,.93-.1,1.37-.18a36.8,36.8,0,0,0,5-1.28q2.43-.79,4.74-1.8a49,49,0,0,0,4.47-2.23c.72-.41,1.42-.84,2.09-1.3l1-.72C643.94,148.29,644.25,148,644.53,147.75Z"/>
              </g>
              <g class="cls-13">
                <path d="M612,96.28a41.23,41.23,0,0,1-4.51,2c-1.54.6-3.1,1.15-4.66,1.67s-3.14,1-4.73,1.46c-.79.22-1.59.44-2.38.63s-1.59.36-2.38.49c-.39.07-.78.12-1.16.16a5.07,5.07,0,0,1-1,0h-.07l0,0h0l0,0a.12.12,0,0,1,0,0l.07.07a.93.93,0,0,1,0,.1l0,.09s0,.06,0,.08,0,.12,0,.11a1,1,0,0,1,.17-.22l.16-.16a1.49,1.49,0,0,1,.18-.17,15.89,15.89,0,0,1,1.83-1.29l1-.6c.34-.2.69-.39,1-.58,1.41-.77,2.87-1.5,4.35-2.21l2.23-1,2.26-1c-.42.07-.84.16-1.26.25l-1.24.29c-.82.21-1.64.44-2.45.69A46.7,46.7,0,0,0,595,98.9c-.77.33-1.54.69-2.28,1.09-.38.2-.75.41-1.12.63a12.46,12.46,0,0,0-1.09.75,4.58,4.58,0,0,0-.53.47,2.64,2.64,0,0,0-.52.69,1.55,1.55,0,0,0-.15.64c0,.07,0,.14,0,.21a1.55,1.55,0,0,0,.08.23,1.08,1.08,0,0,0,.28.4l.17.15.09.06.08,0,.16.08.15.06.28.09.25,0a6.14,6.14,0,0,0,1.59,0c.47,0,.92-.09,1.36-.17a35.21,35.21,0,0,0,5.05-1.29q2.43-.8,4.73-1.8a46.64,46.64,0,0,0,4.48-2.22c.72-.41,1.42-.84,2.09-1.31q.51-.35,1-.72A11.3,11.3,0,0,0,612,96.28Z"/>
              </g>
              <g class="cls-13">
                <path d="M695.47,94.73a41.23,41.23,0,0,1-4.51,2c-1.54.6-3.1,1.15-4.66,1.67s-3.15,1-4.73,1.46c-.8.22-1.59.44-2.39.63s-1.59.36-2.37.49c-.4.07-.79.12-1.16.16a5.07,5.07,0,0,1-1,0h-.07l0,0h0l0,0a.12.12,0,0,1,0,0l.07.07a.93.93,0,0,1,.05.1l0,.09s0,.06,0,.08,0,.12,0,.11a1,1,0,0,1,.17-.22,1.21,1.21,0,0,1,.16-.16,1.49,1.49,0,0,1,.18-.17,15.89,15.89,0,0,1,1.83-1.29l1-.6c.34-.2.69-.39,1-.58,1.41-.77,2.87-1.5,4.34-2.21l2.24-1,2.26-1c-.42.07-.84.16-1.26.25l-1.24.29c-.83.21-1.64.44-2.45.69a46.7,46.7,0,0,0-4.76,1.75c-.77.33-1.54.69-2.29,1.09-.37.2-.75.41-1.11.63a12.46,12.46,0,0,0-1.09.75,4.58,4.58,0,0,0-.53.47,2.64,2.64,0,0,0-.52.69,1.4,1.4,0,0,0-.15.64.75.75,0,0,0,0,.21,2.25,2.25,0,0,0,.08.24,1.13,1.13,0,0,0,.12.21,1.43,1.43,0,0,0,.15.18l.17.15.09.06.08,0,.17.08.15.06.28.09.25,0a6.06,6.06,0,0,0,1.58,0c.48,0,.93-.09,1.37-.17a35.08,35.08,0,0,0,5-1.29q2.43-.79,4.74-1.8a46.64,46.64,0,0,0,4.48-2.22c.71-.41,1.42-.84,2.09-1.31.34-.23.66-.47,1-.72A9.91,9.91,0,0,0,695.47,94.73Z"/>
              </g>
              <g class="cls-13">
                <path d="M579.9,59.39a40.55,40.55,0,0,1-4.52,2c-1.53.6-3.09,1.15-4.66,1.67s-3.14,1-4.73,1.46c-.79.22-1.58.44-2.38.63s-1.59.36-2.38.49c-.39.07-.78.12-1.15.16a5.06,5.06,0,0,1-1,0H559l0,0h0s0,0,0,0,0,0,.06,0a.22.22,0,0,1,.06.07.2.2,0,0,1,0,.09.22.22,0,0,1,0,.1.24.24,0,0,1,0,.08c0,.1,0,.12,0,.11a1.63,1.63,0,0,1,.17-.22l.16-.16.19-.17a14.75,14.75,0,0,1,1.83-1.29l1-.6,1.05-.59c1.41-.76,2.87-1.49,4.34-2.2l2.23-1,2.27-1c-.43.07-.84.16-1.26.25l-1.24.29c-.83.2-1.64.44-2.45.69A46.64,46.64,0,0,0,562.84,62c-.77.34-1.54.7-2.29,1.1-.38.2-.75.4-1.11.63a12.46,12.46,0,0,0-1.09.75,5.66,5.66,0,0,0-.54.47,2.68,2.68,0,0,0-.51.69,1.23,1.23,0,0,0-.15.64.75.75,0,0,0,0,.21,1.55,1.55,0,0,0,.07.23,1,1,0,0,0,.13.22,1.3,1.3,0,0,0,.15.18l.17.15.09.06.08,0,.17.08.15.06a1.8,1.8,0,0,0,.28.09l.25,0a7.09,7.09,0,0,0,1.58,0c.48,0,.93-.1,1.37-.17a35.08,35.08,0,0,0,5-1.29q2.43-.8,4.74-1.8a45.34,45.34,0,0,0,4.47-2.22c.72-.41,1.43-.84,2.1-1.31.33-.23.66-.47,1-.72A11.45,11.45,0,0,0,579.9,59.39Z"/>
              </g>
              <g class="cls-13">
                <path d="M552.86,106.72c-.5.27-1,.5-1.52.73s-1,.43-1.56.63q-1.57.61-3.18,1.14c-1.07.36-2.14.69-3.22,1-.54.15-1.08.3-1.63.42s-1.08.25-1.62.34c-.27,0-.53.08-.78.11a3.59,3.59,0,0,1-.66,0h-.05a.43.43,0,0,1,.08.07l0,0,0,.06a.19.19,0,0,1,0,.07.09.09,0,0,1,0,0c0,.07,0,.08,0,.08a.44.44,0,0,1,.11-.15l.23-.23a13,13,0,0,1,1.25-.88c.46-.28.93-.54,1.41-.81,1.93-1,4-2,6-2.92a29.8,29.8,0,0,0-3.38.84,30.6,30.6,0,0,0-3.24,1.19c-.53.23-1.05.47-1.56.75a9.67,9.67,0,0,0-1.51.94,3.45,3.45,0,0,0-.36.32,1.69,1.69,0,0,0-.35.47.87.87,0,0,0-.1.44.66.66,0,0,0,0,.14,1,1,0,0,0,0,.16,1,1,0,0,0,.19.27.85.85,0,0,0,.23.17l.22.1a.7.7,0,0,0,.19.06l.17,0a5,5,0,0,0,1.08,0q.48,0,.93-.12a25.1,25.1,0,0,0,3.44-.88c1.11-.36,2.18-.77,3.23-1.22a32.09,32.09,0,0,0,3-1.52c.49-.29,1-.57,1.43-.89l.67-.49C552.45,107.08,552.67,106.91,552.86,106.72Z"/>
              </g>
              <g class="cls-13">
                <path d="M649.87,111.08c-.5.27-1,.51-1.52.73s-1,.44-1.56.64q-1.57.6-3.18,1.14c-1.06.35-2.14.69-3.22,1-.54.15-1.08.3-1.63.43s-1.08.25-1.62.34c-.26,0-.53.08-.78.1a3,3,0,0,1-.66,0h-.05l.09.06s0,0,0,.06l0,.06a.14.14,0,0,1,0,.07.09.09,0,0,1,0,0c0,.07,0,.08,0,.08a.55.55,0,0,1,.11-.16l.24-.22a10.07,10.07,0,0,1,1.24-.88q.69-.42,1.41-.81c1.93-1,4-2,6-2.92a27.81,27.81,0,0,0-3.38.84,31.43,31.43,0,0,0-3.24,1.19c-.53.23-1,.47-1.56.74a10.39,10.39,0,0,0-1.5.94,3.68,3.68,0,0,0-.37.32,2.05,2.05,0,0,0-.35.47.92.92,0,0,0-.1.44.76.76,0,0,0,0,.15.88.88,0,0,0,0,.15,1.07,1.07,0,0,0,.19.28,1.5,1.5,0,0,0,.23.17l.22.1.19.06.17,0a4,4,0,0,0,1.08,0,9.1,9.1,0,0,0,.93-.11,24.73,24.73,0,0,0,3.44-.88c1.11-.36,2.18-.77,3.23-1.23a32,32,0,0,0,3-1.51c.49-.29,1-.58,1.43-.9.23-.15.45-.32.67-.49A6.48,6.48,0,0,0,649.87,111.08Z"/>
              </g>
              <g class="cls-13">
                <path d="M641.09,71.89c-.5.26-1,.5-1.52.72s-1,.44-1.56.64q-1.57.6-3.18,1.14c-1.07.36-2.14.69-3.22,1-.54.15-1.08.29-1.63.42s-1.08.25-1.62.34c-.27,0-.53.08-.78.1a3,3,0,0,1-.66,0h0a.43.43,0,0,1,.08.07s0,0,0,.05l0,.06a.14.14,0,0,1,0,.07.09.09,0,0,1,0,0c0,.07,0,.08,0,.08a.55.55,0,0,1,.11-.16l.24-.22a10.07,10.07,0,0,1,1.24-.88q.69-.42,1.41-.81c1.93-1,4-2,6-2.92a27.81,27.81,0,0,0-3.38.84,30.6,30.6,0,0,0-3.24,1.19c-.53.23-1.05.47-1.56.74a10.56,10.56,0,0,0-1.51,1c-.12.09-.24.2-.36.31a1.92,1.92,0,0,0-.35.48.85.85,0,0,0-.1.43.76.76,0,0,0,0,.15,1.42,1.42,0,0,0,0,.16,1,1,0,0,0,.19.27,1.13,1.13,0,0,0,.23.17l.22.1.19.06.17,0a4.45,4.45,0,0,0,1.08,0q.48,0,.93-.12a25.1,25.1,0,0,0,3.44-.88c1.11-.36,2.18-.77,3.23-1.23a29.81,29.81,0,0,0,3-1.51c.49-.29,1-.58,1.43-.89l.67-.49C640.68,72.25,640.9,72.08,641.09,71.89Z"/>
              </g>
              <path class="cls-5" d="M580.16,161.65c-50.76-23-117.48-55-137.55-64.7-2.77-1.35,2.9-8.19,5.51-9.78,30.28-18.36,57.95-28.53,84.18-33-13.61,3.26-27.14,6.84-32.39,9.35-12,5.78,8.81,5.81-2.77,10.31s-56.22,11.24-38.77,26.93,58.37,8.37,55.23,15.35,19.24,24.06,44.64,27.35C568.54,144.78,575.94,152.54,580.16,161.65Z"/>
              <g>
                <ellipse class="cls-11" cx="671.8" cy="126.88" rx="5.24" ry="1.67" transform="translate(0.71 257.45) rotate(-21.71)"/>
                <path class="cls-11" d="M627.71,109.75c-.46-.81-3-.57-5.66.54s-4.47,2.66-4,3.47,3,.56,5.67-.55S628.16,110.56,627.71,109.75Z"/>
                <path class="cls-11" d="M616.29,151.08c-.46-.8-3-.56-5.66.54s-4.47,2.66-4,3.47,3,.56,5.66-.54S616.75,151.89,616.29,151.08Z"/>
                <ellipse class="cls-11" cx="665.39" cy="84.81" rx="5.24" ry="1.67" transform="translate(15.81 252.1) rotate(-21.71)"/>
                <ellipse class="cls-11" cx="563.14" cy="121.37" rx="5.24" ry="1.67" transform="translate(-4.96 216.87) rotate(-21.71)"/>
                <path class="cls-11" d="M607.43,69.65c-.46-.8-3-.56-5.66.54s-4.47,2.66-4,3.47,3,.56,5.66-.54S607.89,70.46,607.43,69.65Z"/>
                <path class="cls-11" d="M557.3,86.46c-.45-.8-3-.56-5.66.54s-4.47,2.66-4,3.47,3,.56,5.66-.54S557.76,87.27,557.3,86.46Z"/>
                <path class="cls-11" d="M545.22,63.43c-.46-.81-3-.57-5.66.54s-4.47,2.66-4,3.46,3,.57,5.67-.54S545.67,64.24,545.22,63.43Z"/>
                <ellipse class="cls-11" cx="492.5" cy="85.99" rx="5.24" ry="1.67" transform="translate(3.12 188.24) rotate(-21.71)"/>
                <path class="cls-11" d="M718.84,101.66c-.46-.8-3-.56-5.66.54s-4.47,2.66-4,3.47,3,.56,5.67-.54S719.29,102.47,718.84,101.66Z"/>
              </g>
              <g class="cls-10">
                <path d="M669.87,171.25c1.23-.48,2.41-1,3.59-1.55s2.33-1.12,3.47-1.71c2.3-1.17,4.53-2.42,6.72-3.74S688,161.51,690,160a38.24,38.24,0,0,0,3-2.47c.25-.22.48-.45.71-.69s.47-.48.7-.74l.17-.19.16-.2.33-.42c.11-.15.21-.31.31-.47l.22-.33a4.29,4.29,0,0,1,.87-.92,12.21,12.21,0,0,1,1.29-.92,31.7,31.7,0,0,1,3.13-1.67c1.11-.53,2.26-1,3.43-1.52l3.53-1.49c2.38-1,4.77-2,7.1-3.19a31.37,31.37,0,0,0,3.37-1.95,13.73,13.73,0,0,0,1.53-1.17,6.18,6.18,0,0,0,1.23-1.39,9.69,9.69,0,0,1-1.61,1c-.57.28-1.15.52-1.75.75-1.19.45-2.41.84-3.64,1.22-2.47.74-5,1.44-7.48,2.2l-1.88.57-1.88.62c-1.26.42-2.5.89-3.75,1.39a30.58,30.58,0,0,0-3.69,1.8A15.43,15.43,0,0,0,693.6,151c-.14.11-.28.24-.43.37s-.28.26-.41.4a7.41,7.41,0,0,0-.77.95l-.17.26-.09.15-.18.27-.22.29-.11.14-.13.15c-.18.2-.34.4-.54.6l-.29.29-.3.3c-.81.8-1.71,1.58-2.62,2.35s-1.86,1.53-2.81,2.29L683.08,161l-1.46,1.13C677.72,165.09,673.73,168.06,669.87,171.25Z"/>
              </g>
              <g class="cls-14">
                <path class="cls-15" d="M646.86,173c3.34-3.87,6.64-7.75,10-11.58,1.67-1.93,3.37-3.82,5.08-5.71l1.3-1.4.65-.7.66-.69,1.32-1.38,1.34-1.35c.44-.45.91-.88,1.37-1.32s.91-.87,1.4-1.27l.71-.62.35-.3a1.77,1.77,0,0,1,.17-.14l.17-.13a15.19,15.19,0,0,1,1.48-1c.53-.31,1.09-.61,1.66-.89s1.17-.57,1.77-.83c1.19-.54,2.43-1,3.68-1.55,2.51-1,5.07-1.93,7.64-2.88s5.15-1.92,7.72-2.93,5.12-2.08,7.64-3.23,5-2.39,7.38-3.78a49.12,49.12,0,0,0,6.79-4.7,30.44,30.44,0,0,0,3-2.84,21,21,0,0,0,2.42-3.24l.26-.43.24-.44c.17-.29.3-.6.44-.9s.13-.3.19-.44l.18-.44c.12-.3.25-.59.36-.88a31.23,31.23,0,0,0,1.13-3.6c.17-.61.26-1.23.39-1.85s.19-1.24.22-1.87a17.63,17.63,0,0,0-.1-3.77,14.05,14.05,0,0,0-1-3.67,12.78,12.78,0,0,0-2.09-3.3c-.21-.26-.46-.49-.69-.73l-.37-.34-.19-.17-.2-.16a12.29,12.29,0,0,0-1.68-1.17,11.61,11.61,0,0,0-1.89-.88,8.48,8.48,0,0,0-2.05-.47,9.36,9.36,0,0,1,1,.31,8.54,8.54,0,0,1,.92.41,9.86,9.86,0,0,1,1.65,1,11.47,11.47,0,0,1,1.41,1.27l.16.17.15.17.3.35c.18.25.38.48.54.74a11.38,11.38,0,0,1,1.51,3.17,13.11,13.11,0,0,1,.54,3.39,15.73,15.73,0,0,1-.26,3.42c-.08.57-.23,1.13-.35,1.7s-.3,1.12-.51,1.67c-.1.28-.18.56-.29.83l-.32.82c-.05.14-.1.28-.16.41l-.18.41-.36.81-.4.81-.2.4c-.06.13-.13.27-.2.39s-.27.5-.43.74l-.22.37-.25.36A19.84,19.84,0,0,1,717.4,120a28,28,0,0,1-2.76,2.43,48.76,48.76,0,0,1-6.45,4.16c-2.29,1.26-4.67,2.41-7.12,3.49s-4.94,2.12-7.46,3.11-5.08,2-7.63,2.95l-3.85,1.5q-1.92.75-3.84,1.56c-1.27.54-2.55,1.1-3.81,1.71a37.89,37.89,0,0,0-3.73,2A18.16,18.16,0,0,0,669,144.2l-.22.18-.2.18-.37.35-.73.69c-.5.46-.94.94-1.4,1.42s-.91.95-1.33,1.44a144.4,144.4,0,0,0-9.53,12q-2.21,3.07-4.3,6.22C649.5,168.77,648.15,170.88,646.86,173Z"/>
              </g>
            </g>
            <g>
              <path class="cls-16" d="M417.8,96.08c-.07-.07-36.86-31.58-36.95-31.55-17.74,6.85-35.08,16.13-45.76,33.85-9.71-3.27-22.1,45.34-10.77,68.52-.88,8.46,45.58,15,75.38,16.62,23.93,2.71,69.76,6.22,100.16.33,25.17-2,47.58-5.8,59.2-11.69,2.65-1.69,7.52-6.85,9.06-10,0,0-64.6-11.48-84.88-20.55C458.3,130.4,435.86,115.07,417.8,96.08Z"/>
              <path class="cls-11" d="M568.11,162.13a65.8,65.8,0,0,1-12.83,6c-1.2.44-2.43.85-3.69,1.26-65.74,20.92-222.94,4.82-226.17-6a98,98,0,0,1-1.83-48.21h0c.57-2.64,1.24-5.24,2-7.78,2-6.35,3.74-12.93,7.9-17.81,30.85-36.15,97.55-47.38,127.21-45,.07,0,20.72,33.56,42.06,61.33C530.74,142.41,568.11,162.13,568.11,162.13Z"/>
              <g class="cls-17">
                <g class="cls-18">
                  <path d="M343.39,89a18.47,18.47,0,0,0,2.69.77c.92.2,1.86.37,2.8.49a35.64,35.64,0,0,0,5.76.28c.48,0,1,0,1.45-.07l.72,0,.72-.08c.49-.06,1-.1,1.45-.18l.71-.12.36-.06.18,0,.14,0a9,9,0,0,1,2.23-.12,6.36,6.36,0,0,1,2,.5,31.53,31.53,0,0,1,4.23,2.45,29.62,29.62,0,0,0,5,2.54,25.29,25.29,0,0,0,5.58,1.44l1.43.16,1.43.08h1.43c.48,0,.95,0,1.42-.08-1.81-.48-3.56-1-5.23-1.54a32.4,32.4,0,0,1-4.71-2.07l-.55-.3-.53-.31c-.18-.11-.36-.21-.53-.33s-.36-.21-.53-.33c-.69-.45-1.37-.92-2.06-1.41s-1.39-1-2.16-1.51a15.69,15.69,0,0,0-2.62-1.41,10.56,10.56,0,0,0-1.59-.5c-.28-.07-.57-.11-.85-.16s-.58-.07-.87-.09a11.8,11.8,0,0,0-3.3.31l-.35.08-.32.07-.64.15c-.43.1-.86.18-1.3.27l-.65.13-.65.11c-.44.07-.88.16-1.32.21-1.77.26-3.57.45-5.39.56S345.28,89,343.39,89Z"/>
                </g>
                <g class="cls-18">
                  <path d="M398.56,109.34a20.41,20.41,0,0,0,2.7.78c.92.2,1.85.37,2.8.49a37.94,37.94,0,0,0,5.75.28c.49,0,1,0,1.45-.07l.73-.06.72-.08c.48-.05,1-.09,1.44-.18l.72-.12.36-.06.17,0,.15,0a9,9,0,0,1,2.23-.12,6.88,6.88,0,0,1,2,.5A33.4,33.4,0,0,1,424,113.1a28.45,28.45,0,0,0,4.95,2.54,25.58,25.58,0,0,0,5.58,1.44c.48.06,1,.12,1.43.16s1,.07,1.43.08,1,0,1.43,0l1.43-.07c-1.81-.48-3.57-1-5.24-1.55a34,34,0,0,1-4.71-2.06l-.54-.3-.54-.32-.53-.32-.52-.33c-.69-.45-1.38-.92-2.06-1.42s-1.4-1-2.16-1.5a16.52,16.52,0,0,0-2.62-1.41,10.18,10.18,0,0,0-1.59-.51c-.28-.07-.57-.11-.85-.16l-.87-.09a11.76,11.76,0,0,0-3.3.31l-.36.08-.32.08-.64.14q-.65.15-1.29.27l-.65.13-.66.11c-.44.08-.87.16-1.32.21-1.76.27-3.56.45-5.39.57S400.46,109.36,398.56,109.34Z"/>
                </g>
                <g class="cls-18">
                  <path d="M339.15,116.23a19.22,19.22,0,0,0,2.69.77,26.62,26.62,0,0,0,2.81.49,35.51,35.51,0,0,0,5.75.28c.48,0,1,0,1.45-.07l.72,0,.73-.08c.48,0,1-.1,1.44-.18l.72-.12.35-.06.18,0,.15,0a9,9,0,0,1,2.23-.12,7,7,0,0,1,2,.5,32.23,32.23,0,0,1,4.24,2.45,28.43,28.43,0,0,0,4.95,2.54,25.29,25.29,0,0,0,5.58,1.44l1.43.16c.48,0,1,.07,1.43.08h1.43c.48,0,.95,0,1.42-.08-1.8-.48-3.56-1-5.23-1.54a34,34,0,0,1-4.71-2.06l-.55-.31-.53-.31-.53-.32-.52-.34c-.7-.45-1.38-.92-2.07-1.41s-1.39-1-2.16-1.5a14.35,14.35,0,0,0-2.62-1.41,9.54,9.54,0,0,0-1.59-.51c-.27-.07-.56-.11-.85-.16l-.86-.09a11.87,11.87,0,0,0-3.31.31l-.35.08-.32.07-.64.15c-.43.1-.86.18-1.29.27l-.65.13-.66.11c-.44.07-.88.16-1.32.21-1.77.27-3.57.45-5.39.56S341.05,116.25,339.15,116.23Z"/>
                </g>
                <g class="cls-18">
                  <path d="M334.67,143.22a19,19,0,0,0,2.7.77c.92.21,1.85.37,2.8.49a35.51,35.51,0,0,0,5.75.28c.49,0,1,0,1.45-.07l.73-.05.72-.08c.48-.05,1-.1,1.44-.18l.72-.12.36-.06.17,0,.15,0a9,9,0,0,1,2.23-.12,6.58,6.58,0,0,1,2,.5,31.6,31.6,0,0,1,4.24,2.45,29.16,29.16,0,0,0,5,2.54,25.58,25.58,0,0,0,5.58,1.44l1.43.16c.48,0,1,.07,1.43.08H375c.48,0,.95,0,1.43-.08-1.81-.48-3.57-.95-5.24-1.54a34,34,0,0,1-4.71-2.06l-.54-.31-.54-.31-.53-.32-.52-.34c-.69-.45-1.38-.92-2.06-1.41s-1.39-1-2.16-1.5a14.69,14.69,0,0,0-2.62-1.41,10.18,10.18,0,0,0-1.59-.51c-.28-.07-.57-.11-.85-.16l-.87-.09a11.76,11.76,0,0,0-3.3.31l-.36.08-.32.07-.64.15-1.29.27-.65.13-.66.11c-.43.07-.87.16-1.32.21-1.76.27-3.56.45-5.39.56S336.57,143.24,334.67,143.22Z"/>
                </g>
                <g class="cls-18">
                  <path d="M481.92,153.89a19.81,19.81,0,0,0,2.69.77c.92.2,1.86.37,2.8.49a35.58,35.58,0,0,0,5.76.28c.48,0,1,0,1.45-.07l.72-.05.72-.08c.48-.06,1-.1,1.44-.19l.72-.11.36-.06.18,0,.14,0a9,9,0,0,1,2.23-.12,6.31,6.31,0,0,1,2,.5,31,31,0,0,1,4.24,2.45,29.62,29.62,0,0,0,5,2.54,25.35,25.35,0,0,0,5.57,1.44l1.44.16,1.43.08h1.43c.47,0,.95,0,1.42-.08-1.81-.48-3.57-1-5.23-1.54a33,33,0,0,1-4.71-2.07l-.55-.3-.53-.32-.53-.32c-.18-.11-.36-.21-.53-.33-.69-.45-1.37-.92-2.06-1.41s-1.39-1-2.16-1.51a15.69,15.69,0,0,0-2.62-1.41,11.85,11.85,0,0,0-1.59-.51c-.28-.06-.57-.1-.85-.15s-.58-.07-.87-.09a11.8,11.8,0,0,0-3.3.31l-.36.08-.32.07-.64.15c-.42.1-.86.18-1.29.27l-.65.13-.65.11c-.44.07-.88.15-1.32.21-1.77.26-3.57.44-5.39.56S483.81,153.91,481.92,153.89Z"/>
                </g>
                <g class="cls-18">
                  <path d="M429.74,148.72a20.71,20.71,0,0,0,2.69.78c.93.2,1.86.37,2.81.48a36.69,36.69,0,0,0,5.75.29c.48,0,1-.05,1.45-.08l.72-.05.73-.08c.48-.05,1-.09,1.44-.18l.72-.12.35-.06.18,0,.15,0a9,9,0,0,1,2.23-.12,7,7,0,0,1,2,.5,33.4,33.4,0,0,1,4.24,2.45,27.75,27.75,0,0,0,4.95,2.54,25.43,25.43,0,0,0,5.58,1.44l1.43.16c.48,0,.95.07,1.43.08s1,0,1.43,0l1.42-.07c-1.8-.49-3.56-1-5.23-1.55a34,34,0,0,1-4.71-2.06l-.54-.31-.54-.31-.53-.32-.52-.33c-.69-.46-1.38-.93-2.07-1.42s-1.39-1-2.16-1.5a15,15,0,0,0-2.62-1.41,9.54,9.54,0,0,0-1.59-.51c-.27-.07-.56-.11-.85-.16s-.57-.06-.86-.09a11.87,11.87,0,0,0-3.31.31l-.35.08-.32.07-.64.15-1.29.27-.65.13-.66.11c-.44.07-.88.16-1.32.21-1.77.27-3.56.45-5.39.57S431.64,148.74,429.74,148.72Z"/>
                </g>
                <g class="cls-18">
                  <path d="M381.7,138a15.83,15.83,0,0,0,3.52.82,21.74,21.74,0,0,0,3.7.13c.31,0,.62,0,.93-.07s.61-.06.92-.1a9.28,9.28,0,0,0,.92-.15l.46-.08.23-.05.19,0a4.64,4.64,0,0,1,1.37-.08,3.58,3.58,0,0,1,1.24.33,8.38,8.38,0,0,1,1.27.73c.44.29.88.61,1.36.92a18.15,18.15,0,0,0,3.11,1.71,15,15,0,0,0,3.56,1,16,16,0,0,0,3.66.11c-1.15-.31-2.27-.62-3.33-1a19,19,0,0,1-2.95-1.37l-.34-.2-.33-.21-.65-.44c-.43-.3-.85-.61-1.28-.94a16.09,16.09,0,0,0-3-2,6.41,6.41,0,0,0-2.14-.53,7.21,7.21,0,0,0-2.16.21l-.44.11-.4.11-.4.1-.41.1-.83.17c-.27.05-.55.12-.83.16q-1.68.28-3.42.42C384.09,138,382.92,138,381.7,138Z"/>
                </g>
              </g>
              <path class="cls-19" d="M551.59,169.42h0c-65.74,20.92-222.94,4.82-226.17-6a98,98,0,0,1-1.83-48.21c.21,5.63,1,7.34-.54,12s0,13.88.16,16,2.11,13.62,2.31,14.45-.29,7.61,18,10.5,31,5.56,34,5.69,23.86,1.95,27.18,2.1,20.57,1.26,27.22.77,26,2.22,28.87,1.25,19.46-.75,27.29-1.09,24.93-1.12,28.06-2.59S550,166.76,551.59,169.42Z"/>
              <g>
                <path class="cls-20" d="M515.6,157.6a2.08,2.08,0,0,0-.66.56c-.07.11-.14.21-.2.32a.85.85,0,0,0-.11.35,4.54,4.54,0,0,1,0,.74,1.3,1.3,0,0,1-.41.62l-.29.28-.24.29a6.25,6.25,0,0,0-.41.58c-.11.2-.2.4-.29.6s-.08.2-.13.3a1.31,1.31,0,0,1-.22.29l0,.09a1,1,0,0,0,.55,0,1.6,1.6,0,0,0,.46-.2,2.34,2.34,0,0,0,.65-.59,2.48,2.48,0,0,0,.33-.7,1.61,1.61,0,0,0,.1-.36,1.58,1.58,0,0,0,0-.38,1.41,1.41,0,0,1,.19-.7,7.65,7.65,0,0,1,.55-.6.9.9,0,0,0,.17-.32,2.25,2.25,0,0,0,.09-.35,1.82,1.82,0,0,0,0-.76Z"/>
                <path class="cls-20" d="M347.47,155.67a6.51,6.51,0,0,0-1.76,0c-.29,0-.57.07-.85.12a7,7,0,0,0-.82.19c-.54.17-1,.42-1.59.55a6.39,6.39,0,0,1-1.69.17h-1.68c-.55,0-1.09,0-1.62,0a7.23,7.23,0,0,1-3-.65l-.08.05a2.54,2.54,0,0,0,1.25,1.11,5.44,5.44,0,0,0,1.78.46,8.18,8.18,0,0,0,1.79-.07,8.71,8.71,0,0,0,1.7-.36,10.6,10.6,0,0,1,1.67-.37c.56-.08,1.16,0,1.73-.1a8.17,8.17,0,0,0,.84-.14l.81-.22a14.29,14.29,0,0,0,1.58-.57Z"/>
                <path class="cls-20" d="M343.87,140.52a4.4,4.4,0,0,1,.43-.87,3.54,3.54,0,0,1,.26-.41c.1-.13.19-.26.29-.38a9,9,0,0,1,.68-.7l.38-.32.38-.32c.28-.2.53-.44.84-.63.15-.09.3-.2.46-.28a4.59,4.59,0,0,1,.5-.24,4.29,4.29,0,0,1,.54-.19l.55-.15c.37-.09.77-.15,1.16-.22a13,13,0,0,0,2.3-.62,8.58,8.58,0,0,0,2.11-1.08,4.48,4.48,0,0,0,1.45-1.72,3.31,3.31,0,0,0,.25-2h-.11a6.83,6.83,0,0,1-.92,1.71,6.31,6.31,0,0,1-1.45,1.31,14.28,14.28,0,0,1-1.81,1l-.5.24-.5.22-1,.46c-.35.14-.7.28-1.07.4l-.55.19a5.18,5.18,0,0,0-.56.17l-.57.17c-.19,0-.37.13-.56.19s-.39.13-.57.21l-.54.26c-.17.1-.33.21-.49.32s-.29.26-.44.38a4.71,4.71,0,0,0-.68.88,5.4,5.4,0,0,0-.23.49,3.12,3.12,0,0,0-.14.5,2.11,2.11,0,0,0,0,1Z"/>
                <path class="cls-20" d="M380,147.79a15.81,15.81,0,0,0,.24,1.7c.05.27.11.55.17.83s.12.55.2.83a11.84,11.84,0,0,1,.45,1.65,3.57,3.57,0,0,1-.12,1.66c0,.12-.09.28-.14.41s-.08.29-.12.43,0,.29-.08.43,0,.29-.06.43a12.4,12.4,0,0,0-.1,1.72,14.06,14.06,0,0,0,.13,1.71,12.64,12.64,0,0,0,.34,1.69H381a30,30,0,0,0,.23-3.4c0-.56,0-1.13,0-1.69,0-.28,0-.55,0-.83s0-.28,0-.42,0-.26,0-.42a5.18,5.18,0,0,0,0-.88c0-.14,0-.28,0-.43s0-.28,0-.42c0-.57,0-1.15-.08-1.73a6.25,6.25,0,0,0-.17-.84c-.07-.28-.16-.56-.25-.83a9.37,9.37,0,0,0-.73-1.62Z"/>
              </g>
              <g class="cls-21">
                <path class="cls-19" d="M401.38,144.48c.24,1.14-2.32-1-7.13-.16s-8.68-2.1-8.63-3.32,4-1.72,8.79-1.11S400.52,140.47,401.38,144.48Z"/>
                <path class="cls-5" d="M399,143.18c.15.5-2.3.06-5.06.32s-5-1.06-5-1.6,2.29-.67,5.07-.32S398.44,141.42,399,143.18Z"/>
                <path class="cls-19" d="M507.24,159.29c.24,1.15-2.32-1-7.12-.15s-8.68-2.1-8.64-3.32,4-1.73,8.8-1.12S506.39,155.29,507.24,159.29Z"/>
                <path class="cls-5" d="M504.82,158c.14.51-2.3.07-5.07.33s-5-1.07-5-1.6,2.29-.68,5.07-.33S504.3,156.24,504.82,158Z"/>
                <path class="cls-19" d="M369.43,125.37c.38,1.7-3.66-1.45-11.22-.31s-13.68-3.21-13.61-5,6.27-2.52,13.85-1.56S368.07,119.41,369.43,125.37Z"/>
                <path class="cls-5" d="M365.61,123.41c.23.75-3.63.07-8,.43s-7.9-1.64-7.87-2.43,3.6-1,8-.43S364.8,120.79,365.61,123.41Z"/>
                <path class="cls-19" d="M357.2,152.36c.31,2-3.06-1.56-9.48.1s-11.52-3.2-11.44-5.34,5.33-3.23,11.73-2.42S356.13,145.41,357.2,152.36Z"/>
                <path class="cls-5" d="M354,150.22c.18.86-3.06.23-6.75.84s-6.66-1.6-6.63-2.54,3.06-1.3,6.75-.84S353.35,147.17,354,150.22Z"/>
                <path class="cls-19" d="M457.55,160.78c.31,2-3.07-1.55-9.48.1s-11.52-3.2-11.44-5.34,5.33-3.22,11.73-2.42S456.48,153.83,457.55,160.78Z"/>
                <path class="cls-5" d="M454.35,158.64c.18.87-3.07.23-6.75.84s-6.66-1.6-6.63-2.53,3.06-1.31,6.75-.84S453.69,155.59,454.35,158.64Z"/>
                <path class="cls-19" d="M402.51,112.52c-.4-2,3.13,1.37,9.42-.69s11.62,2.48,11.64,4.63S418.43,120,412,119.62,403.91,119.43,402.51,112.52Z"/>
                <path class="cls-5" d="M405.8,114.47c-.23-.86,3-.43,6.67-1.27s6.7,1.19,6.71,2.13-3,1.5-6.67,1.26S406.6,117.48,405.8,114.47Z"/>
                <path class="cls-19" d="M431.41,60.74c-.4-2,3.13,1.37,9.42-.7s11.62,2.49,11.65,4.64-5.14,3.57-11.55,3.16S432.82,67.64,431.41,60.74Z"/>
                <path class="cls-5" d="M434.71,62.69c-.23-.86,3-.43,6.67-1.27s6.7,1.19,6.71,2.12-3,1.5-6.67,1.27S435.5,65.7,434.71,62.69Z"/>
                <path class="cls-19" d="M453.7,98.73c-.4-2,3.13,1.37,9.42-.7s11.62,2.49,11.64,4.64-5.14,3.57-11.54,3.16S455.1,105.63,453.7,98.73Z"/>
                <path class="cls-5" d="M457,100.68c-.23-.86,3-.43,6.67-1.27s6.7,1.19,6.71,2.12-3,1.5-6.67,1.27S457.79,103.69,457,100.68Z"/>
                <path class="cls-19" d="M397,74.45c-.4-2,3.13,1.37,9.43-.7s11.61,2.49,11.64,4.64S412.91,82,406.5,81.55,398.39,81.36,397,74.45Z"/>
                <path class="cls-5" d="M400.28,76.4c-.23-.86,3-.43,6.67-1.27s6.7,1.19,6.71,2.12-3,1.51-6.67,1.27S401.08,79.41,400.28,76.4Z"/>
                <path class="cls-19" d="M348.85,92.53c-.4-2,3.13,1.37,9.42-.69s11.62,2.48,11.65,4.63-5.15,3.57-11.55,3.16S350.25,99.44,348.85,92.53Z"/>
                <path class="cls-5" d="M352.14,94.48c-.23-.86,3-.43,6.67-1.26s6.7,1.18,6.72,2.12-3,1.5-6.68,1.26S352.94,97.5,352.14,94.48Z"/>
              </g>
              <path class="cls-5" d="M555.44,166.27l-.16,1.9c-1.2.44-2.43.85-3.69,1.26-65.74,20.92-222.94,4.82-226.17-6a98,98,0,0,1-1.83-48.21h0c.57-2.64,1.24-5.24,2-7.78a20.22,20.22,0,0,1,2.27,13.66c-3,16.69,15.56,39.79,39.31,40.61s29.12.68,43.09,7.66,38.46-9.06,61.86-1.7,38.16-9.18,49.48-8.68S555.44,166.27,555.44,166.27Z"/>
              <g class="cls-10">
                <path d="M414.39,54.51c1.73-.34,3.46-.68,5.2-1s3.47-.65,5.22-.95c3.48-.6,7-1.18,10.46-1.66s7-.94,10.5-1.22c1.76-.13,3.51-.25,5.25-.29a49,49,0,0,1,5.16.11l-1.13-.74c.44,1.17.91,2.29,1.4,3.42l.36.84.38.84c.26.56.51,1.12.78,1.67,1,2.23,2.14,4.44,3.28,6.63.58,1.09,1.15,2.19,1.74,3.27l.91,1.63c.3.54.59,1.08.91,1.62.62,1.08,1.24,2.16,1.87,3.23l1.93,3.2,2,3.18c.33.53.67,1,1,1.58l1,1.57,1,1.57,1.06,1.56c.7,1,1.4,2.08,2.12,3.12q4.33,6.18,9,12.19c1.56,2,3.17,4,4.8,6s3.28,3.92,5,5.85,3.4,3.85,5.15,5.75c.87.95,1.75,1.89,2.64,2.83s1.78,1.87,2.69,2.8c1.81,1.86,3.64,3.7,5.51,5.51s3.79,3.6,5.73,5.36,4,3.47,6,5.13c.51.42,1,.83,1.57,1.24s1.06.8,1.61,1.19a31.66,31.66,0,0,0,3.42,2.2,33.42,33.42,0,0,1-3.17-2.41c-1-.85-2-1.72-2.94-2.6-1.92-1.76-3.76-3.58-5.59-5.41s-3.59-3.7-5.34-5.57-3.48-3.77-5.18-5.68q-10.17-11.46-19.3-23.49-4.54-6-8.79-12.18c-.71-1-1.4-2.06-2.1-3.09l-1-1.55-1-1.56c-.67-1.05-1.38-2.07-2-3.12l-2-3.15-1.94-3.16c-.64-1-1.26-2.11-1.89-3.17s-1.23-2.14-1.85-3.2-1.2-2.14-1.8-3.21c-1.16-2.15-2.33-4.31-3.42-6.49-.28-.54-.55-1.08-.81-1.63s-.54-1.09-.8-1.64c-.52-1.09-1-2.2-1.49-3.28l-.3-.7-.84,0a48.11,48.11,0,0,0-5.51,0c-1.82.11-3.61.28-5.39.5-3.57.43-7.08,1-10.57,1.68S428,51,424.58,51.82q-2.56.63-5.12,1.29C417.76,53.56,416.07,54,414.39,54.51Z"/>
              </g>
            </g>
          </g>
          <path class="cls-22" d="M904.46,176.35a10.5,10.5,0,0,0,.16-1.77c0-20.49-59-36.52-134.43-36.52s-134.43,16-134.43,36.52a11.58,11.58,0,0,0,1.47,5.51v16.65c-23.83-10.55-66.61-17.44-116.46-17.44-56.69,0-104.26,8.92-125.17,22V187.87a11.55,11.55,0,0,0,1.46-5.5c0-20.48-59-36.52-134.43-36.52s-134.43,16-134.43,36.52a11.56,11.56,0,0,0,1.46,5.51V233a10.07,10.07,0,0,0,1,4.27,16.76,16.76,0,0,0,1.57,2.75c12.26,16.21,66,28.41,130.4,28.41,55.56,0,103.16-9.08,123-22v21.4a10.42,10.42,0,0,0,1,4.34,17.31,17.31,0,0,0,1.6,2.79c12.46,16.47,67,28.87,132.5,28.87,74.61,0,135.1-16.12,135.1-36V243.33c23.21,10.37,65.7,17.32,114.31,17.32,73.43,0,133-15.86,133-35.43V181.41a10.51,10.51,0,0,0,1.31-5S904.46,176.39,904.46,176.35Zm-265.67-2.26c0,.15-.08.3-.11.45a2.83,2.83,0,0,0,0-.29Z"/>
          <g>
            <g>
              <path class="cls-23" d="M394.6,160.48v58.09c0,22.45-59.54,40.65-133,40.65-64.44,0-118.14-14-130.4-32.6a20.09,20.09,0,0,1-1.57-3.15,13,13,0,0,1-1-4.9V160.48Z"/>
              <path class="cls-24" d="M394.6,160.48v58.09c0,22.45-59.54,40.65-133,40.65-64.44,0-118.14-14-130.4-32.6a20.09,20.09,0,0,1-1.57-3.15c115.57,28.4,175.31,22.88,225.85-6.36,16-9.24,35.06-41.33,33.6-56.63Z"/>
              <path class="cls-24" d="M131.23,226.62c114.69,51.13,224.42,17.69,247.48,2.69,18.73-12.39,15.83-54.08,14-68.83h1.87v58.09c0,22.45-59.54,40.65-133,40.65C197.19,259.22,143.49,245.22,131.23,226.62Z"/>
              <ellipse class="cls-25" cx="261.63" cy="160.46" rx="132.99" ry="40.62"/>
              <path class="cls-26" d="M394.6,160.48a11.67,11.67,0,0,1-.35,2.8c-4.67-21.15-62.28-37.8-132.62-37.8S133.68,142.13,129,163.28a11.67,11.67,0,0,1-.35-2.8c0-22.45,59.54-40.65,133-40.65S394.6,138,394.6,160.48Z"/>
              <path class="cls-27" d="M261.63,118.57c-75.42,0-134.43,18.4-134.43,41.9s59,41.84,134.43,41.84S396.06,184,396.06,160.47,337,118.57,261.63,118.57Zm0,81.24c-72.56,0-131.51-17.65-131.51-39.34s58.95-39.4,131.51-39.4,131.51,17.7,131.51,39.4S334.18,199.81,261.63,199.81Z"/>
              <g class="cls-28">
                <path class="cls-15" d="M165.84,192.94c2.07.57,4.16,1.06,6.26,1.5s4.22.85,6.33,1.23,4.24.74,6.37,1.05l1.59.24,1.6.23c1.06.16,2.13.3,3.2.43l1.59.21,1.61.2,1.6.2,1.6.17c2.14.25,4.28.46,6.42.67l3.22.29c1.07.1,2.14.18,3.22.27l1.6.12,1.62.11c1.07.08,2.14.17,3.22.23,8.59.53,17.2.89,25.82,1,2.15,0,4.31.06,6.46.06h6.47c4.31,0,8.62-.09,12.93-.2l3.23-.08,1.62-.05,1.61,0,6.48-.24,6.46-.28,6.47-.33c2.15-.13,4.3-.24,6.45-.38l3.23-.22,3.22-.22c2.15-.17,4.3-.33,6.45-.51l3.21-.28,3.22-.31,1.6-.15,1.61-.17,3.21-.34c2.13-.25,4.27-.49,6.4-.77,4.26-.55,8.51-1.17,12.73-1.91s8.41-1.59,12.55-2.62c2.06-.53,4.11-1.09,6.13-1.75,1-.32,2-.67,3-1.06.49-.19,1-.39,1.46-.6a15.31,15.31,0,0,0,1.41-.69,19.3,19.3,0,0,1-2.66,1.63c-.93.49-1.88,1-2.85,1.4-1.94.86-3.94,1.64-6,2.36-4.05,1.43-8.2,2.63-12.4,3.68s-8.46,2-12.73,2.75-8.57,1.48-12.88,2.1l-3.23.44-3.24.41c-2.16.28-4.33.49-6.5.73-1.08.12-2.16.23-3.25.33l-3.25.31-6.51.54-6.53.45-6.52.37q-6.53.31-13.07.5l-1.64.05-1.63,0-3.28.05-1.63,0h-4.92c-4.36,0-8.73-.11-13.09-.24l-3.28-.14-3.27-.15c-2.18-.12-4.36-.23-6.54-.4-4.35-.29-8.7-.68-13-1.14l-3.25-.37-1.62-.2-1.62-.21-3.24-.43-3.23-.47c-1.08-.16-2.15-.35-3.22-.52s-2.15-.36-3.22-.55l-1.6-.28-1.6-.31c-1.07-.21-2.13-.41-3.19-.63s-2.13-.45-3.18-.69l-1.59-.35-1.58-.37q-3.15-.75-6.27-1.62A101.68,101.68,0,0,1,165.84,192.94Z"/>
              </g>
              <g class="cls-28">
                <path class="cls-15" d="M134.43,179.41c1.33,5.15,2.36,10.3,3.44,15.42l.8,3.83c.29,1.27.54,2.55.84,3.81s.57,2.53.89,3.79.63,2.5,1,3.73.74,2.46,1.18,3.64A20.22,20.22,0,0,0,144.1,217l.23.37.12.17.12.16.12.16a.73.73,0,0,0,.09.1l.11.12.14.13a14.46,14.46,0,0,0,1.51,1.12c1.13.73,2.36,1.45,3.62,2.13,2.52,1.39,5.14,2.71,7.75,4l4,2,2,1,1,.49c.33.16.66.33,1,.47a11.34,11.34,0,0,1-1.14-.2l-1.12-.25c-.74-.19-1.48-.37-2.21-.58-1.47-.39-2.92-.83-4.36-1.29-2.89-.93-5.73-2-8.52-3.14-1.39-.61-2.78-1.23-4.14-2a16.72,16.72,0,0,1-2.07-1.33l-.27-.22a2.91,2.91,0,0,1-.27-.24c-.09-.08-.18-.18-.27-.27l-.21-.25-.21-.24-.18-.24c-.13-.16-.24-.32-.36-.48a17.81,17.81,0,0,1-1.14-1.94c-.33-.65-.61-1.29-.88-1.94a40,40,0,0,1-1.34-3.9c-.38-1.3-.7-2.61-1-3.92s-.53-2.61-.75-3.92-.41-2.62-.56-3.93l-.23-2-.17-2q-.33-3.93-.36-7.88c0-1.32,0-2.64.07-3.95S134.28,180.72,134.43,179.41Z"/>
              </g>
              <g class="cls-29">
                <g>
                  <g>
                    <path class="cls-30" d="M248.21,158.83s-.9,14.13-3.85,8.78c0,0-3.31,7.95-3.51,4,0,0-1.71,2.51-2.8,1.79s.57-3,.57-3-2.14.34-2.09-.46a8.15,8.15,0,0,1,1.13-2.43s-5.9,4.68-6.86,3.25,0-3.48,0-3.48-6.42,1-6-.84,6.75-3.2,6.75-3.2-2-1.1-1.21-2.07,6.23,0,6.23,0-3.08-.67-2-1.17S236,160,236,160s-4.36-1.9-3.43-2.82S240.11,155.19,248.21,158.83Z"/>
                    <path class="cls-24" d="M247.46,164.91c-.59,3-1.57,5.47-3.1,2.7,0,0-3.31,7.95-3.51,4,0,0-1.71,2.52-2.8,1.79s.57-3,.57-3-2.14.34-2.08-.46a7.55,7.55,0,0,1,1.11-2.42c-.26.2-5.91,4.64-6.85,3.24s0-3.48,0-3.48-6.42,1-6-.84c.24-1,2.1-1.78,3.82-2.36a2.84,2.84,0,0,0-1.38,1.44c-.42,1.8,5.27.73,5.27.73s-.89,2.07-.08,3.48,5.89-3.14,6.13-3.35a8.87,8.87,0,0,0-1,2.44c-.07.8,1.84.42,1.84.42s-1.52,2.3-.58,3,2.51-1.83,2.51-1.83c.09,3.9,3.2-4.09,3.2-4.09C245.59,168.69,246.64,167.25,247.46,164.91Z"/>
                    <path class="cls-30" d="M239.69,152.3s-15.25,5.45-10.9.85c0,0-9.81.9-5.78-1,0,0-3.39-.23-3.11-1.38s3.4-.87,3.4-.87-1.85-1-1-1.33,8.43,1.35,8.43,1.35-10.82-2.1-11.22-5.89c-.17-1.64,3.66-1.51,3.66-1.51s-3.8-4.54-1.72-5,6.3,3.82,6.3,3.82-.79-3.68.56-3.52,3.77,6.5,3.77,6.5-2.24-5.62-.25-5.61c1.2,0,1.35,4.58,1.35,4.58s.11-4.19,1.48-3.87S240,144.47,239.69,152.3Z"/>
                    <path class="cls-24" d="M239.68,152.3h0c-.13-6.59-3.8-11-5-11.29s-1.36,3.57-1.36,3.57-1-4.11-1.23-4.22c-.87-.09.28,5.23.28,5.23s-2.29-5.9-3.52-6-.52,3.24-.52,3.24-3.87-3.93-5.78-3.52c-1.14.24-.37,1.81.45,3-.76-1-3.31-4.35-1.52-4.73,2.08-.45,6.3,3.81,6.3,3.81s-.79-3.67.56-3.51c1.19.14,3.23,5.12,3.67,6.27-.4-1.07-1.89-5.39-.15-5.38,1.1,0,1.32,3.88,1.35,4.5,0-.6.22-4.09,1.48-3.79S240,144.47,239.68,152.3Z"/>
                    <path class="cls-31" d="M250.63,157.84q-2.49,1.35-5,2.61c-1.69.84-3.41,1.66-5.15,2.44s-3.51,1.51-5.33,2.15c-.91.32-1.83.62-2.78.86a12.35,12.35,0,0,1-2.93.44.12.12,0,1,1,0-.24h0a11.81,11.81,0,0,0,2.82-.48c.92-.26,1.83-.56,2.72-.9,1.79-.67,3.53-1.43,5.24-2.23s3.4-1.65,5.07-2.52,3.32-1.76,4.94-2.69h0a.42.42,0,0,1,.53.09.3.3,0,0,1-.11.46Z"/>
                    <path class="cls-31" d="M236.39,158.59l2,.63c.66.2,1.31.41,2,.59s1.32.37,2,.53c.33.08.67.15,1,.21a6.78,6.78,0,0,0,1,.1h.22l-.09.16-.61,1-.59,1c-.39.69-.77,1.39-1.14,2.09s-.73,1.4-1.06,2.11a19.54,19.54,0,0,0-.89,2.18l.15-.57.18-.55c.06-.19.14-.37.2-.55s.14-.37.22-.55c.3-.73.64-1.44,1-2.15s.73-1.41,1.11-2.1.78-1.39,1.2-2.07l.12.16a5.29,5.29,0,0,1-1.06-.11c-.35-.06-.69-.14-1-.22-.67-.16-1.33-.36-2-.57s-1.31-.42-1.95-.65S237,158.85,236.39,158.59Z"/>
                    <path class="cls-31" d="M232.43,169.18c.31-.42.63-.83.95-1.24s.64-.81,1-1.22c.64-.81,1.29-1.62,1.95-2.42l0,0,0,0,2.83-1.18.07.21a22,22,0,0,1-3-.14,12.37,12.37,0,0,1-1.5-.26,5,5,0,0,1-1.38-.54,5.66,5.66,0,0,0,1.41.45,14.81,14.81,0,0,0,1.49.2c.5,0,1,.07,1.5.07s1,0,1.51,0l.62,0-.56.24-2.83,1.19.05,0c-.66.8-1.33,1.6-2,2.39-.34.39-.67.79-1,1.18S232.79,168.79,232.43,169.18Z"/>
                    <path class="cls-31" d="M239,166.93c.42-.22.84-.44,1.27-.65l1.29-.62-.06.05c.17-.35.35-.7.53-1.05s.36-.7.54-1l.22-.41,0,.44c.05.51.1,1,.17,1.54,0,.25.06.51.09.76s.08.51.13.76A6.39,6.39,0,0,1,243,166c-.07-.25-.12-.51-.17-.76-.1-.51-.18-1-.25-1.54l.26,0c-.18.35-.35.7-.54,1s-.36.7-.55,1l0,0h0l-1.32.56Z"/>
                    <path class="cls-31" d="M237.79,160l.67-.26.68-.24h.06c.41.08.81.18,1.21.28l.6.16.29.09.17.06h-.07a.14.14,0,0,0-.08.07h0a.43.43,0,0,1,0-.05c0-.16-.1-.33-.16-.5l-.17-.51c-.12-.34-.24-.69-.34-1,.19.33.35.65.51,1a6.61,6.61,0,0,1,.42,1,.45.45,0,0,1,0,.08v.06a.17.17,0,0,1-.09.08h-.15l-.13,0-.29-.08-.59-.17-1.19-.33h.07l-.71.17Z"/>
                    <g>
                      <path class="cls-30" d="M250.09,155.3s-14.26-7.14-7.35-6.94c0,0-6.75-6.16-2.6-4.53,0,0-1.83-2.45-.58-3s2.85,1.8,2.85,1.8.62-1.79,1.42-1.38a9.3,9.3,0,0,1,2,2s-2.17-6.64-.24-6.71a5.66,5.66,0,0,1,3.61,1.59s1.93-5.33,3.6-4.18.24,6.61.24,6.61,2-1,2.71,0-2.89,4.73-2.89,4.73,2.11-2,2.16-1-.53,1.15-.53,1.15,4-2.45,4.5-1.32S257.57,150.79,250.09,155.3Z"/>
                      <path class="cls-24" d="M254.74,145.33a1.26,1.26,0,0,0,.3-1c0-.92-1.8.69-2.11,1,.4-.42,3.46-3.73,2.84-4.68s-2.72,0-2.72,0,1.45-5.45-.22-6.61c-.72-.5-1.5.21-2.13,1.18a.87.87,0,0,1,1,0c1.67,1.15.23,6.6.23,6.6s2-1,2.72,0-2.44,4.26-2.84,4.69c.31-.29,2.06-1.91,2.11-1a1.27,1.27,0,0,1-.31,1c.84-.5,3.82-2.16,4.28-1.2.34.73-.35,3.27-2.88,6.18,3.44-3.39,4.38-6.55,4-7.37C258.55,143.18,255.61,144.82,254.74,145.33Zm-.23.14.22-.14A.49.49,0,0,1,254.51,145.47Z"/>
                      <path class="cls-30" d="M254.73,145.33a.49.49,0,0,1-.22.14Z"/>
                      <path class="cls-31" d="M250,157.59c-.18-1.68-.31-3.35-.41-5s-.17-3.36-.18-5a50,50,0,0,1,.2-5A21.42,21.42,0,0,1,250,140a8.14,8.14,0,0,1,.87-2.43.16.16,0,0,1,.19-.06.11.11,0,0,1,.06.16h0a7.88,7.88,0,0,0-.79,2.37,20.74,20.74,0,0,0-.31,2.48c-.12,1.67-.12,3.34-.08,5s.16,3.34.3,5,.32,3.34.54,5h0a.35.35,0,0,1-.34.36.38.38,0,0,1-.43-.29Z"/>
                      <path class="cls-31" d="M255.74,146.4c-.52.4-1,.8-1.55,1.21s-1,.81-1.52,1.23-1,.84-1.46,1.28c-.23.22-.46.44-.67.67a4.12,4.12,0,0,0-.56.72l-.11.17-.12-.15-.8-.93-.79-.92c-.54-.62-1.09-1.22-1.65-1.82s-1.12-1.2-1.71-1.78a22.55,22.55,0,0,0-1.85-1.66l.51.37.5.39.48.4.47.42c.61.56,1.2,1.14,1.78,1.73s1.13,1.2,1.68,1.81,1.08,1.23,1.59,1.86l-.23,0a5,5,0,0,1,.61-.77c.22-.23.46-.45.69-.68.48-.43,1-.85,1.51-1.25s1-.8,1.57-1.19S255.18,146.77,255.74,146.4Z"/>
                      <path class="cls-31" d="M246.56,138.55l.84,1.28c.29.43.56.86.83,1.29.56.86,1.1,1.72,1.63,2.59l0,0v0c0,.9,0,1.8-.07,2.7l-.25-.05a16,16,0,0,1,1.54-2.25,9.11,9.11,0,0,1,1-1,4.6,4.6,0,0,1,1.19-.8,5,5,0,0,0-1.11.86,9.79,9.79,0,0,0-.88,1.05c-.28.36-.53.73-.77,1.11s-.47.76-.68,1.15l-.26.49v-.54c0-.9,0-1.8,0-2.7l0,.06c-.53-.87-1.05-1.75-1.56-2.63l-.76-1.31C247.05,139.44,246.8,139,246.56,138.55Z"/>
                      <path class="cls-31" d="M245.89,144.56c0,.42.08.85.1,1.27s0,.84.06,1.26l0-.06c.29.29.57.58.85.88l.84.89.32.35-.48-.17-1.67-.58-.84-.27c-.28-.09-.56-.18-.85-.25.3,0,.59.1.89.16l.87.21c.57.16,1.14.33,1.7.52l-.15.17c-.28-.29-.57-.58-.84-.88l-.83-.9,0,0v0c0-.43,0-.85,0-1.27S245.86,145,245.89,144.56Z"/>
                      <path class="cls-31" d="M253.68,146.84c0,.21,0,.42,0,.63s0,.42-.06.63v0l0,0c-.28.27-.56.54-.85.8l-.44.38-.23.18-.13.1h0s0,0,0-.06,0-.1,0-.09h0l0,0,.6.11.61.1c.41.06.82.13,1.22.22l-1.25-.06c-.41,0-.82-.07-1.25-.15l-.1,0h-.05a.13.13,0,0,1,0-.11s0-.06,0-.06l0,0h0l.11-.08.22-.18.44-.38.89-.75,0,0c0-.21.09-.41.14-.62S253.62,147,253.68,146.84Z"/>
                    </g>
                    <path class="cls-31" d="M271.33,167.33c-4.28-1.69-8.47-3.5-12.64-5.37s-8.27-3.83-12.32-5.87q-3-1.53-6-3.13c-2-1.07-4-2.16-5.91-3.29-1-.57-1.93-1.16-2.85-1.79a32.75,32.75,0,0,1-2.64-2c-.42-.35-.82-.73-1.22-1.09s-.78-.75-1.15-1.14c-.76-.77-1.47-1.57-2.18-2.37.74.78,1.48,1.56,2.26,2.3.39.38.8.74,1.2,1.11s.82.71,1.25,1a31,31,0,0,0,2.69,1.92c.93.6,1.91,1.15,2.89,1.69,4,2.13,8,4.22,12.06,6.19s8.22,3.87,12.4,5.68,8.41,3.55,12.68,5.16h0a.5.5,0,0,1,.31.7.67.67,0,0,1-.81.27Z"/>
                    <path class="cls-31" d="M224.68,151.05l3,0c1,0,2,0,3,0s2,0,3-.09c.5,0,1,0,1.5-.1l.74-.08a4.4,4.4,0,0,0,.69-.15l0,.2-2.38-1.33-.09,0,.06-.09a4.61,4.61,0,0,0,.38-.81,8.52,8.52,0,0,0,.26-.86,9.61,9.61,0,0,0,.21-1.77v-.45l0-.45c0-.3,0-.6-.08-.89s-.09-.6-.14-.89l-.19-.89c.08.29.17.58.25.88s.13.59.18.88.11.6.12.9l0,.45v.46a9.06,9.06,0,0,1-.16,1.8,5.61,5.61,0,0,1-.25.89,3.92,3.92,0,0,1-.4.86l0-.15,2.39,1.32.22.11-.23.09a3.55,3.55,0,0,1-.77.17c-.25,0-.5.06-.75.08l-1.51.09c-1,0-2,.06-3,.05s-2,0-3,0S225.68,151.1,224.68,151.05Z"/>
                    <path class="cls-31" d="M222.05,144.53c.8.39,1.59.77,2.4,1.13s1.61.72,2.44,1.05,1.65.64,2.51.89a11.65,11.65,0,0,0,1.3.3,3.18,3.18,0,0,0,1.27,0l0,.19-2.4-1.72,0,0v0c0-.92-.05-1.83-.1-2.75,0-.45-.06-.91-.1-1.37a8.83,8.83,0,0,0-.22-1.35,7.57,7.57,0,0,1,.31,1.35c.07.45.12.91.16,1.36.09.92.16,1.83.19,2.75l-.05-.07,2.42,1.69.19.13-.22.07a3.15,3.15,0,0,1-1.43,0,11.22,11.22,0,0,1-1.33-.32,23.83,23.83,0,0,1-2.53-.93c-.82-.35-1.62-.72-2.41-1.11S222.81,145,222.05,144.53Z"/>
                  </g>
                  <g>
                    <path class="cls-30" d="M271.23,161.86s-6.45,13-1.05,9.34c0,0-1.11,8.39,1.08,5,0,0,.25,2.9,1.6,2.67s1-2.91,1-2.91,1.75,1.12,2.11.38a7.55,7.55,0,0,0,.24-2.61s2.9,6.43,4.49,5.5a4.37,4.37,0,0,0,1.78-3.13s5.28,3.29,5.81,1.51-4.43-5.42-4.43-5.42,2.34-.25,2.16-1.41-5.62-2.31-5.62-2.31,3.12.55,2.44-.29-1.23-.65-1.23-.65,4.9-.07,4.53-1.25S280.37,161.64,271.23,161.86Z"/>
                    <path class="cls-24" d="M268.79,167.61c-1,2.93-1.41,5.5,1.39,3.59,0,0-1.11,8.39,1.08,5,0,0,.24,2.91,1.59,2.66s1-2.9,1-2.9,1.75,1.12,2.11.38a7.34,7.34,0,0,0,.24-2.6c.13.28,2.93,6.4,4.49,5.49a4.35,4.35,0,0,0,1.79-3.13s5.27,3.29,5.8,1.51c.28-.94-1-2.4-2.21-3.56a2.43,2.43,0,0,1,.5,1.81c-.55,1.78-5.12-1.33-5.12-1.33a4.93,4.93,0,0,1-1.71,3.16c-1.42.93-3.67-5-3.79-5.32a8,8,0,0,1-.31,2.59c-.35.74-1.87-.32-1.87-.32s.19,2.64-1,2.91-1.32-2.59-1.32-2.59c-2.08,3.46-.77-4.88-.77-4.88C268.52,171.71,268.32,170,268.79,167.61Z"/>
                    <path class="cls-30" d="M282.24,159.21s10.89,10.64,9.35,4.87c0,0,8.35,4.51,5.68,1.32,0,0,3.16,1.07,3.5-.07s-2.61-2.05-2.61-2.05,2.2-.23,1.57-.83-8.26-2-8.26-2,10.8,2.19,13.1-1.07c1-1.41-2.51-2.73-2.51-2.73s5.75-2.64,4.1-3.83-7.61,1.06-7.61,1.06,2.59-3,1.3-3.37-6.72,4.42-6.72,4.42,4.89-4.2,3.1-4.95c-1.08-.45-3.57,3.61-3.57,3.61s2.06-3.81.66-4S286,152.06,282.24,159.21Z"/>
                    <path class="cls-24" d="M282.24,159.21l0,0c3.51-5.87,9.07-8.46,10.28-8.27s-.6,3.72-.6,3.72,3-3.33,3.27-3.32c.82.24-2.94,4.59-2.94,4.59s5.09-4.44,6.27-4.11-1.2,3.11-1.2,3.11,5.49-2.07,7-1c.9.64-.6,1.76-2,2.56,1.17-.57,5.21-2.66,3.79-3.68-1.64-1.18-7.61,1.06-7.61,1.06s2.59-3,1.3-3.37-5.53,3.39-6.52,4.25c.91-.81,4.47-4.13,2.9-4.78-1-.41-3.18,3-3.52,3.53.28-.54,1.89-3.75.61-4S286,152.06,282.24,159.21Z"/>
                    <path class="cls-31" d="M270.23,159.73q1.49,2.16,3.06,4.27c1.06,1.41,2.14,2.81,3.27,4.17s2.29,2.71,3.55,4a26.63,26.63,0,0,0,2,1.83,10.4,10.4,0,0,0,2.29,1.5h0a.11.11,0,0,1,.06.16.14.14,0,0,1-.18.05,10.52,10.52,0,0,1-2.41-1.5,27.32,27.32,0,0,1-2.05-1.81c-1.3-1.27-2.51-2.59-3.68-3.94s-2.29-2.74-3.38-4.13-2.15-2.81-3.18-4.25a.3.3,0,0,1,.13-.45.41.41,0,0,1,.53.11h0Z"/>
                    <path class="cls-31" d="M282,166.1c-.7,0-1.4,0-2.09-.07s-1.4-.09-2.09-.14-1.4-.14-2.09-.24c-.34-.06-.69-.11-1-.19a6.56,6.56,0,0,1-1-.3l.2-.11c0,.77,0,1.54,0,2.31s0,1.54-.08,2.31-.12,1.54-.22,2.3a5.4,5.4,0,0,1-.09.58c0,.19-.06.38-.1.57l-.12.57-.16.56a16.17,16.17,0,0,0,.32-2.29c.08-.76.11-1.53.14-2.3s0-1.53,0-2.3v-1.15l0-1.15v-.19l.2.09a5.65,5.65,0,0,0,1,.29c.33.08.67.13,1,.19.68.11,1.37.2,2.06.28s1.38.14,2.08.21Z"/>
                    <path class="cls-31" d="M280.09,177.1c-.12-.48-.22-1-.33-1.45s-.2-1-.31-1.44c-.2-1-.39-1.93-.58-2.9l0,.05L277,169.23l-.39-.43.56.26c.43.2.89.39,1.34.57s.92.35,1.39.5a13.84,13.84,0,0,0,1.44.38,5.38,5.38,0,0,0,1.5.13,5.16,5.16,0,0,1-1.52,0,12.59,12.59,0,0,1-1.48-.32,22.82,22.82,0,0,1-2.8-1l.17-.17,1.93,2.13,0,0v0c.18,1,.35,1.94.5,2.91.08.49.17,1,.24,1.46S280,176.61,280.09,177.1Z"/>
                    <path class="cls-31" d="M275.36,172.62c-.32-.32-.63-.65-.93-1s-.61-.67-.91-1l0,0v0l0-1.14.06-1.14.25.06c-.33.44-.66.87-1,1.29-.18.2-.36.41-.55.61a6.6,6.6,0,0,1-.6.58q.27-.32.51-.63c.16-.22.33-.44.48-.66.32-.43.63-.87.94-1.31l.26-.38v.44c0,.39,0,.77-.05,1.15s0,.76-.07,1.14l0-.07.84,1C274.83,171.91,275.1,172.26,275.36,172.62Z"/>
                    <path class="cls-31" d="M280,166.81l-.56-.41-.54-.43.06,0-1.24-.15-.61-.07-.31,0h-.21a.16.16,0,0,1-.08,0,.11.11,0,0,1,0-.11v0h0v0l.06-.07a8,8,0,0,1,.9-.76q.46-.36,1-.69l-.83.8-.42.4a3.71,3.71,0,0,0-.4.39.05.05,0,0,0,0,0h0v0s0-.05,0-.08l-.07,0h.19l.31,0,.62.08,1.23.2h0l0,0,.48.47C279.7,166.48,279.86,166.64,280,166.81Z"/>
                    <g>
                      <path class="cls-30" d="M271.36,158s16.47-1,10.17-3.46c0,0,9.22-3,4.65-3.08,0,0,2.9-1.52,2-2.44s-3.49.55-3.49.55.37-1.84-.57-1.78a11.51,11.51,0,0,0-2.82,1s5.35-5.14,3.67-5.94-4.07.07-4.07.07,1-5.52-1.09-5.11-3.6,5.85-3.6,5.85-1.33-1.66-2.45-1S274,148,274,148s-.84-2.63-1.41-1.73-.11,1.24-.11,1.24-2.31-3.7-3.37-2.89S267,151.12,271.36,158Z"/>
                      <path class="cls-24" d="M269.07,144.61c-.77.6-1.54,3.78-.2,8.13-.77-3.57-.09-6.11.59-6.63.91-.7,2.73,1.92,3.23,2.68a1.26,1.26,0,0,1,.25-1c.52-.81,1.27,1.3,1.4,1.67-.14-.53-1.19-4.65-.14-5.28s2.45,1,2.45,1,1.5-5.43,3.6-5.84a.82.82,0,0,1,.9.36c-.06-1.11-.4-2-1.3-1.86-2.1.41-3.6,5.85-3.6,5.85s-1.33-1.66-2.45-1,0,4.75.14,5.28c-.13-.38-.87-2.49-1.39-1.67a1.21,1.21,0,0,0-.25,1C271.78,146.49,270,143.92,269.07,144.61Zm3.24,2.68.13.2A.45.45,0,0,1,272.31,147.29Z"/>
                      <path class="cls-30" d="M272.31,147.29a.45.45,0,0,0,.13.2Z"/>
                      <path class="cls-31" d="M269.59,159.72q1.57-2.11,3-4.28t2.84-4.39c.91-1.49,1.76-3,2.51-4.53a23,23,0,0,0,1-2.35,7.69,7.69,0,0,0,.5-2.43h0a.14.14,0,0,1,.15-.12.12.12,0,0,1,.13.11,7.7,7.7,0,0,1-.46,2.52,24.33,24.33,0,0,1-.94,2.4c-.72,1.56-1.55,3.09-2.42,4.6s-1.79,3-2.74,4.46-1.93,2.92-3,4.36a.41.41,0,0,1-.53.11.3.3,0,0,1-.13-.45h0Z"/>
                      <path class="cls-31" d="M270.85,147.87c.31.53.6,1.08.89,1.62s.54,1.11.8,1.66.5,1.12.7,1.7c.1.29.2.58.28.87a4,4,0,0,1,.15.91l-.2-.1c.79-.37,1.59-.73,2.39-1.07s1.62-.67,2.44-1,1.65-.61,2.49-.89l.63-.19c.21-.06.42-.13.64-.18l.65-.17.65-.14c-.86.22-1.69.5-2.52.8s-1.64.62-2.45,1-1.61.67-2.41,1l-1.19.53-1.19.53-.19.09v-.19a3.74,3.74,0,0,0-.13-.86c-.07-.29-.17-.58-.26-.86-.2-.57-.42-1.14-.65-1.7s-.49-1.12-.74-1.68S271.11,148.42,270.85,147.87Z"/>
                      <path class="cls-31" d="M283.13,144.28l-1.35.91-1.36.89c-.91.6-1.82,1.19-2.74,1.77l0,0c-.44.82-.89,1.64-1.34,2.45l-.27.49,0-.54c0-.43,0-.86,0-1.29s-.06-.86-.12-1.29a8.18,8.18,0,0,0-.26-1.27,3.67,3.67,0,0,0-.55-1.19,3.47,3.47,0,0,1,.65,1.17,7,7,0,0,1,.34,1.27,13.36,13.36,0,0,1,.22,2.6l-.25,0c.44-.81.88-1.63,1.33-2.44l0,0,0,0c.93-.58,1.86-1.15,2.8-1.71l1.4-.85Z"/>
                      <path class="cls-31" d="M280.64,149.92c-.19.4-.39.78-.59,1.17l-.63,1.14,0,0,0,0-1.2.5-1.21.48-.05-.22q.9.06,1.8.18l.89.13c.29.06.59.11.87.19-.29,0-.59-.07-.89-.09l-.9-.07-1.79-.11-.52,0,.48-.19,1.2-.49,1.22-.47-.06,0c.23-.38.46-.75.7-1.12S280.38,150.29,280.64,149.92Z"/>
                      <path class="cls-31" d="M272.48,149c-.05.21-.11.41-.17.62s-.13.4-.2.61v-.06l.41,1,.2.5c0,.09.07.17.1.25l.06.11h0v0a0,0,0,0,1,0,0,.11.11,0,0,1,0,.08.19.19,0,0,1-.09.08h-.07l-.1,0a11.81,11.81,0,0,1-1.2-.34c-.39-.12-.77-.26-1.15-.41l1.21.26.6.14c.2.05.4.1.59.13h0a.14.14,0,0,0-.08.07.11.11,0,0,0,0,.06v0h0v0l0,0-.07-.13c0-.09-.08-.17-.11-.26s-.14-.34-.2-.51c-.13-.34-.24-.68-.35-1v-.05c.08-.2.18-.39.27-.59S272.38,149.23,272.48,149Z"/>
                    </g>
                    <path class="cls-31" d="M246.15,159.74c4.66.16,9.36.18,14,.14s9.37-.19,14.05-.43,9.34-.6,14-1c1.17-.12,2.33-.25,3.47-.43s2.29-.42,3.4-.72c.57-.14,1.12-.3,1.67-.47s1.1-.35,1.64-.54c1.09-.38,2.15-.8,3.22-1.22-1.05.45-2.1.9-3.18,1.31-.53.21-1.08.39-1.62.59s-1.1.36-1.66.52c-1.11.32-2.25.59-3.4.81s-2.31.38-3.48.53c-2.33.29-4.65.52-7,.73s-4.68.39-7,.55q-7,.45-14.08.63c-4.7.11-9.39.16-14.11.06a.53.53,0,1,1,0-1h0Z"/>
                    <path class="cls-31" d="M296.36,163.74c-.93-.33-1.84-.69-2.76-1s-1.82-.73-2.72-1.11-1.8-.77-2.69-1.19c-.44-.2-.88-.42-1.31-.64-.21-.12-.43-.23-.64-.36a3.41,3.41,0,0,1-.6-.44l-.16-.17.26,0,2.82-.28-.11.12a3.51,3.51,0,0,1,.08-.92,5.28,5.28,0,0,1,.23-.89,9.62,9.62,0,0,1,.79-1.69l.24-.4.26-.39c.17-.27.38-.51.57-.76s.42-.49.63-.73.44-.46.67-.7l-.63.73c-.19.25-.4.49-.58.75s-.37.5-.53.77l-.25.39-.23.41a9.46,9.46,0,0,0-.72,1.67,6.48,6.48,0,0,0-.21.87,3.23,3.23,0,0,0-.07.87v.1h-.12l-2.82.3.09-.19a4,4,0,0,0,.54.4l.62.35c.43.23.86.44,1.3.65.87.42,1.77.81,2.65,1.21s1.79.79,2.69,1.17Z"/>
                    <path class="cls-31" d="M302.07,158.87c-.91.11-1.82.18-2.73.24s-1.82.09-2.73.09a25.19,25.19,0,0,1-2.75-.11,12.43,12.43,0,0,1-1.36-.22,3,3,0,0,1-1.27-.57l-.16-.15.23,0,3.05-.62-.08.06c.5-.82,1-1.61,1.58-2.4.27-.4.55-.79.85-1.17a8.39,8.39,0,0,1,1-1.1,10.72,10.72,0,0,0-.9,1.14c-.27.39-.53.79-.79,1.19-.51.8-1,1.62-1.5,2.43l0,0h0l-3,.64.07-.19a2.71,2.71,0,0,0,1.13.5,11.75,11.75,0,0,0,1.32.23c.9.1,1.81.13,2.72.14s1.82,0,2.73,0S301.16,158.92,302.07,158.87Z"/>
                  </g>
                </g>
              </g>
              <g class="cls-32">
                <path d="M183.77,182.34c2.28.67,4.58,1.27,6.89,1.83s4.62,1.11,7,1.6q7,1.51,14,2.71c4.69.82,9.42,1.5,14.16,2.1s9.49,1.09,14.25,1.5l3.58.26,1.79.14,1.79.1,3.58.2c1.19.06,2.38.1,3.58.15l1.79.06c.6,0,1.19,0,1.79.06l3.59.06,1.79,0h6.27l.9,0,1.79-.05,3.58-.08c1.19,0,2.39-.1,3.58-.16l1.79-.08.89,0,.89-.05,3.57-.25,1.79-.12.89-.06.89-.09,3.56-.33c1.19-.12,2.38-.22,3.56-.37l3.54-.43,1.77-.21,1.77-.26,3.53-.52,1.76-.26,1.75-.31q7-1.17,13.95-2.77l3.45-.82,1.72-.41,1.72-.44,1.71-.45,1.7-.47,1.71-.47,1.69-.49,1.69-.5,1.69-.53c1.12-.33,2.22-.72,3.34-1.08.56-.18,1.1-.38,1.65-.57l1.66-.58c1.08-.41,2.18-.8,3.25-1.24s2.14-.88,3.2-1.34,2.1-.94,3.11-1.46a50.91,50.91,0,0,0,5.85-3.38l.69-.47c.23-.15.44-.32.66-.49l.66-.49.62-.53c.43-.34.8-.71,1.2-1.08.2-.18.37-.38.55-.57a7.13,7.13,0,0,0,.53-.58l.5-.6.46-.63c.07-.1.15-.2.22-.31l.2-.33a7.16,7.16,0,0,0,.37-.65,9.33,9.33,0,0,0,1-2.78,8.61,8.61,0,0,0,0-2.91,11,11,0,0,0-.9-2.85,18.92,18.92,0,0,0-3.75-5.08,36.9,36.9,0,0,0-5.17-4.23,49.42,49.42,0,0,0-5.91-3.5c1.08.45,2.13,1,3.16,1.5s2,1.1,3,1.7a38.29,38.29,0,0,1,5.5,4.06,19.48,19.48,0,0,1,4.18,5.17,11.28,11.28,0,0,1,1.13,3.06,9.53,9.53,0,0,1,.12,3.24,9.79,9.79,0,0,1-1,3.14,5.22,5.22,0,0,1-.39.74l-.2.37c-.07.12-.15.23-.23.35l-.47.7-.52.67c-.17.23-.37.44-.55.65s-.37.43-.58.63c-.4.4-.79.82-1.23,1.2l-.65.57-.67.55c-.23.18-.44.37-.68.54l-.7.51a49.14,49.14,0,0,1-6,3.66c-1,.55-2.1,1.06-3.16,1.57s-2.15,1-3.24,1.44-2.2.89-3.3,1.33c-.55.22-1.11.42-1.66.63s-1.11.42-1.67.61c-1.13.4-2.25.8-3.38,1.16l-1.7.55c-.56.19-1.13.36-1.7.54l-1.71.52-1.72.5-1.72.5-1.72.47-1.73.47-1.75.43-3.48.87q-7,1.68-14.11,2.9l-1.78.32-1.79.27-3.57.54-1.79.26-1.79.22-3.6.43a272.1,272.1,0,0,1-57.84.1c-9.58-1-19.1-2.43-28.48-4.34-4.68-1-9.34-2-13.94-3.23S188.22,183.92,183.77,182.34Z"/>
              </g>
            </g>
            <g>
              <path class="cls-23" d="M902.16,151.54v58.09c0,22.45-59.54,40.65-133,40.65-64.44,0-118.14-14-130.39-32.6a19.33,19.33,0,0,1-1.58-3.15,13.19,13.19,0,0,1-1-4.9V151.54Z"/>
              <path class="cls-24" d="M902.16,151.54v58.09c0,22.45-59.54,40.65-133,40.65-64.44,0-118.14-14-130.39-32.6a19.33,19.33,0,0,1-1.58-3.15c115.57,28.4,175.32,22.88,225.85-6.36,16-9.24,35.06-41.33,33.61-56.63Z"/>
              <path class="cls-24" d="M638.8,217.68c114.68,51.13,224.41,17.69,247.47,2.69,18.73-12.39,15.83-54.08,14-68.83h1.87v58.09c0,22.45-59.54,40.65-133,40.65C704.75,250.28,651.05,236.28,638.8,217.68Z"/>
              <ellipse class="cls-33" cx="770.48" cy="153.68" rx="132.99" ry="40.62"/>
              <path class="cls-26" d="M902.16,151.54a11.19,11.19,0,0,1-.35,2.8c-4.67-21.15-62.28-37.8-132.62-37.8s-127.94,16.65-132.61,37.8a11.19,11.19,0,0,1-.35-2.8c0-22.45,59.53-40.65,133-40.65S902.16,129.09,902.16,151.54Z"/>
              <path class="cls-34" d="M769.19,109.63c-75.41,0-134.43,18.4-134.43,41.9s59,41.84,134.43,41.84S903.62,175,903.62,151.53,844.61,109.63,769.19,109.63Zm0,81.24c-72.55,0-131.51-17.65-131.51-39.34s59-39.4,131.51-39.4,131.51,17.7,131.51,39.4S841.74,190.87,769.19,190.87Z"/>
              <g class="cls-28">
                <path class="cls-15" d="M673.4,184c2.07.57,4.16,1.06,6.27,1.5s4.21.85,6.32,1.23,4.24.74,6.37,1.05L694,188l1.6.23c1.06.16,2.13.3,3.2.43.53.07,1.06.15,1.6.21l1.6.2,1.6.2,1.6.17c2.14.25,4.28.46,6.42.67l3.22.29c1.07.1,2.15.18,3.22.27l1.61.12,1.61.11c1.07.08,2.14.17,3.22.23,8.6.53,17.2.89,25.82,1,2.16,0,4.31.06,6.46.06h6.47c4.31,0,8.62-.09,12.93-.2l3.23-.08,1.62-.05,1.62,0,6.47-.24,6.47-.28L802,191c2.15-.13,4.31-.24,6.46-.38l3.22-.22,3.23-.22,6.44-.51,3.22-.28,3.21-.31,1.61-.15,1.6-.17,3.21-.34c2.13-.25,4.27-.49,6.4-.77,4.26-.55,8.51-1.17,12.73-1.9s8.41-1.6,12.55-2.63c2.06-.53,4.12-1.09,6.13-1.75,1-.32,2-.67,3-1.06.49-.19,1-.39,1.46-.6a14.15,14.15,0,0,0,1.41-.69,19.3,19.3,0,0,1-2.66,1.63c-.93.49-1.88,1-2.85,1.4-1.94.86-3.93,1.64-6,2.36-4,1.43-8.2,2.63-12.4,3.68s-8.45,2-12.73,2.75-8.57,1.48-12.88,2.1l-3.23.44-3.24.41c-2.16.28-4.33.49-6.49.73-1.09.12-2.17.23-3.26.33l-3.25.31c-2.17.19-4.34.36-6.51.54s-4.35.3-6.52.45l-6.53.37q-6.52.31-13.07.5l-1.63.05-1.64,0-3.27,0-1.64,0h-4.91c-4.37,0-8.74-.11-13.1-.24l-3.27-.14c-1.1-.05-2.19-.09-3.28-.15-2.18-.12-4.36-.23-6.53-.4-4.36-.29-8.71-.68-13-1.14l-3.24-.37-1.63-.2-1.62-.21-3.24-.43-3.23-.47c-1.07-.16-2.15-.35-3.22-.52s-2.15-.36-3.22-.55l-1.6-.28-1.6-.31c-1.06-.21-2.13-.41-3.19-.63s-2.12-.45-3.18-.69l-1.59-.35-1.57-.37q-3.17-.75-6.28-1.62A102.28,102.28,0,0,1,673.4,184Z"/>
              </g>
              <g class="cls-28">
                <path class="cls-15" d="M642,170.47c1.33,5.15,2.36,10.3,3.44,15.42l.81,3.83c.28,1.27.54,2.55.83,3.81s.57,2.53.89,3.79.64,2.5,1,3.74.75,2.45,1.18,3.63a20.22,20.22,0,0,0,1.53,3.32l.23.37.12.17.12.16.12.16.09.1a.68.68,0,0,0,.12.12l.14.13a13.3,13.3,0,0,0,1.5,1.12c1.13.73,2.37,1.45,3.63,2.13,2.51,1.39,5.13,2.71,7.75,4l3.94,2,2,1,1,.49c.34.16.66.33,1,.47a10.68,10.68,0,0,1-1.13-.2l-1.12-.25c-.75-.19-1.48-.37-2.22-.58-1.47-.39-2.92-.83-4.36-1.29-2.89-.93-5.72-2-8.52-3.14-1.39-.61-2.78-1.23-4.14-2a16.72,16.72,0,0,1-2.07-1.33l-.27-.22-.26-.24L649,211l-.21-.25-.21-.24-.18-.24c-.13-.16-.24-.32-.35-.48a16.44,16.44,0,0,1-1.15-1.94c-.33-.65-.61-1.29-.88-1.94-.53-1.3-.95-2.6-1.34-3.9s-.7-2.61-1-3.92-.54-2.61-.76-3.92-.41-2.62-.56-3.93l-.22-2-.18-2q-.33-3.93-.35-7.88c0-1.32,0-2.64.06-4S641.84,171.78,642,170.47Z"/>
              </g>
              <g>
                <ellipse class="cls-35" cx="763.57" cy="161.33" rx="3.73" ry="1.67"/>
                <ellipse class="cls-35" cx="824.18" cy="173.23" rx="3.73" ry="1.67"/>
                <ellipse class="cls-35" cx="704.23" cy="165.95" rx="3.73" ry="1.67"/>
                <ellipse class="cls-35" cx="696.77" cy="139.69" rx="3.73" ry="1.67"/>
                <ellipse class="cls-35" cx="651.57" cy="155.21" rx="3.73" ry="1.67"/>
                <ellipse class="cls-35" cx="826.24" cy="138.52" rx="3.73" ry="1.67"/>
                <ellipse class="cls-35" cx="761.76" cy="124.22" rx="3.73" ry="1.67"/>
                <ellipse class="cls-35" cx="865.23" cy="147.81" rx="3.73" ry="1.67"/>
              </g>
              <g>
                <g>
                  <path class="cls-36" d="M720.51,152.08a55.51,55.51,0,0,1-3-6.39c-1.64-4,8.22-8,14-9.62,4.24-1.21,7.7-2.79,11.48-2.27a28.67,28.67,0,0,1,6.05,2.27c1.1,1.17,5.48,11.73,5.48,14.08S726.26,152.32,720.51,152.08Z"/>
                  <path class="cls-37" d="M719.2,152.67A21.35,21.35,0,0,1,713,146.1c-2.08-3.84,7.31-8.6,12.86-10.7s16.23-2.48,17.45-1.4,6.74,11.24,7,13.58S725,152.44,719.2,152.67Z"/>
                  <g class="cls-38">
                    <path class="cls-15" d="M718.14,148.92a11.35,11.35,0,0,1-1-1.18,11.2,11.2,0,0,1-.87-1.29,7.6,7.6,0,0,1-.64-1.42,4,4,0,0,1-.17-.79,2.22,2.22,0,0,1,.06-.88,2.19,2.19,0,0,1,.18-.46,1.7,1.7,0,0,1,.15-.22l.08-.11.08-.08c.19-.21.39-.4.59-.59.4-.37.82-.71,1.25-1.05s.88-.64,1.33-.95.93-.6,1.4-.88a23.87,23.87,0,0,1,6.26-2.58,16,16,0,0,1,3.44-.49,8.61,8.61,0,0,1,.88,0h.43l.43,0c.29,0,.58.08.86.12s.56.12.83.18a19.89,19.89,0,0,0-6.45,1.18,34,34,0,0,0-5.75,2.7c-.91.53-1.8,1.09-2.65,1.69-.43.29-.84.6-1.24.91-.2.15-.39.32-.56.47l-.07.06s0,0,0,0a.71.71,0,0,0-.07.09.72.72,0,0,0-.12.21,2.47,2.47,0,0,0-.08,1.2,7.42,7.42,0,0,0,.34,1.35A24.2,24.2,0,0,0,718.14,148.92Z"/>
                  </g>
                </g>
                <g>
                  <path class="cls-36" d="M813,151.14a56.73,56.73,0,0,0,3-6.39c1.65-4-8.21-8-14-9.62-4.24-1.21-7.7-2.79-11.48-2.27a28.13,28.13,0,0,0-6,2.27c-1.1,1.17-5.48,11.73-5.48,14.08S807.21,151.38,813,151.14Z"/>
                  <path class="cls-37" d="M814.27,151.73a21.45,21.45,0,0,0,6.23-6.57c2.07-3.84-7.31-8.6-12.86-10.7s-16.24-2.48-17.46-1.4-6.73,11.24-7,13.58S808.52,151.5,814.27,151.73Z"/>
                  <g class="cls-38">
                    <path class="cls-15" d="M815.33,148a24.2,24.2,0,0,0,1.14-2.72,7.63,7.63,0,0,0,.34-1.35,2.35,2.35,0,0,0-.08-1.2.72.72,0,0,0-.12-.21.71.71,0,0,0-.07-.09s0,0,0,0l-.07-.06a6.62,6.62,0,0,0-.56-.47c-.4-.31-.81-.62-1.24-.92q-1.27-.88-2.64-1.68a34.05,34.05,0,0,0-5.76-2.7,19.84,19.84,0,0,0-6.45-1.18c.28-.06.55-.13.83-.18s.57-.1.86-.12l.43,0,.44,0h.87a16.6,16.6,0,0,1,3.44.5,23.73,23.73,0,0,1,6.26,2.58c.48.28,1,.57,1.4.88s.91.62,1.34.95.85.68,1.25,1.05c.2.19.39.38.59.59l.07.08.08.11a1.7,1.7,0,0,1,.15.22,2.24,2.24,0,0,1,.19.46,2.41,2.41,0,0,1,0,.88,3.36,3.36,0,0,1-.17.79,6.5,6.5,0,0,1-.64,1.42,12.57,12.57,0,0,1-.86,1.29A14.26,14.26,0,0,1,815.33,148Z"/>
                  </g>
                  <g>
                    <path class="cls-39" d="M788.5,141.77c0,.19-.54.35-1.2.35s-1.21-.16-1.21-.35.54-.36,1.21-.36S788.5,141.57,788.5,141.77Z"/>
                    <path class="cls-39" d="M795.21,147.62c0,.2-.54.36-1.21.36s-1.2-.16-1.2-.36.54-.36,1.2-.36S795.21,147.42,795.21,147.62Z"/>
                  </g>
                  <g class="cls-38">
                    <ellipse class="cls-15" cx="789.73" cy="146.75" rx="0.99" ry="0.29"/>
                  </g>
                </g>
                <g>
                  <path class="cls-36" d="M790.18,159.46a79.4,79.4,0,0,0,4.29-9c2.32-5.62-11.58-11.24-19.69-13.56-6-1.71-10.86-3.94-16.19-3.2a40.18,40.18,0,0,0-8.53,3.2c-1.55,1.65-7.73,16.54-7.73,19.85S782.07,159.79,790.18,159.46Z"/>
                  <path class="cls-37" d="M792,160.28s5.85-3.85,8.77-9.26-10.3-12.13-18.13-15.08-22.89-3.5-24.61-2-9.49,15.85-9.85,19.14S783.91,160,792,160.28Z"/>
                  <g class="cls-38">
                    <path class="cls-15" d="M793.51,155a33.77,33.77,0,0,0,1.61-3.82c.1-.32.21-.64.28-1a8,8,0,0,0,.19-1,4,4,0,0,0,0-.91,2.3,2.3,0,0,0-.15-.78,1.24,1.24,0,0,0-.17-.3,1.27,1.27,0,0,0-.1-.12l-.06-.06-.09-.09c-.24-.21-.52-.44-.8-.66q-.84-.66-1.74-1.29c-1.2-.83-2.45-1.63-3.73-2.37a48.45,48.45,0,0,0-8.11-3.81,27.91,27.91,0,0,0-9.1-1.66,17.25,17.25,0,0,1,4.83-.51,23.35,23.35,0,0,1,4.86.7A33.53,33.53,0,0,1,790.1,141c.67.4,1.33.81,2,1.24s1.27.87,1.87,1.35,1.2,1,1.77,1.48c.28.26.56.53.83.83l.1.11.12.15a3.37,3.37,0,0,1,.21.31,3.15,3.15,0,0,1,.26.65,3.31,3.31,0,0,1,.08,1.24,5.19,5.19,0,0,1-.24,1.12,10.62,10.62,0,0,1-.9,2,18.48,18.48,0,0,1-1.22,1.81A17.58,17.58,0,0,1,793.51,155Z"/>
                  </g>
                </g>
              </g>
            </g>
            <g>
              <path class="cls-23" d="M654.88,199.53v59c0,22.81-60.49,41.3-135.1,41.3-65.48,0-120-14.23-132.5-33.12a21.23,21.23,0,0,1-1.6-3.2,13.46,13.46,0,0,1-1-5v-59Z"/>
              <path class="cls-24" d="M654.88,199.53v59c0,22.81-60.49,41.3-135.1,41.3-65.48,0-120-14.23-132.5-33.12a21.23,21.23,0,0,1-1.6-3.2c117.43,28.85,178.14,23.24,229.48-6.47,16.24-9.39,35.63-42,34.15-57.54Z"/>
              <path class="cls-24" d="M387.28,266.74c116.53,51.94,228,18,251.45,2.73,19-12.6,16.09-55,14.25-69.94h1.9v59c0,22.81-60.49,41.3-135.1,41.3C454.3,299.86,399.74,285.63,387.28,266.74Z"/>
              <ellipse class="cls-40" cx="519.77" cy="199.51" rx="135.13" ry="41.28"/>
              <path class="cls-26" d="M654.88,199.53a12,12,0,0,1-.35,2.84c-4.75-21.49-63.29-38.4-134.75-38.4s-130,16.91-134.75,38.4a11.52,11.52,0,0,1-.36-2.84c0-22.81,60.5-41.3,135.11-41.3S654.88,176.72,654.88,199.53Z"/>
              <path class="cls-34" d="M519.77,156.94c-76.62,0-136.58,18.7-136.58,42.58S443.15,242,519.77,242s136.59-18.65,136.59-42.52S596.4,156.94,519.77,156.94Zm0,82.56c-73.72,0-133.62-17.94-133.62-40s59.9-40,133.62-40,133.63,18,133.63,40S593.49,239.5,519.77,239.5Z"/>
              <g class="cls-28">
                <path class="cls-15" d="M422.44,232.51c2.11.58,4.23,1.08,6.37,1.53s4.28.86,6.43,1.25,4.3.75,6.47,1.06l1.62.25,1.62.23c1.08.16,2.16.3,3.25.44l1.62.22,1.63.19,1.63.2,1.63.18c2.17.25,4.34.47,6.52.68l3.27.3,3.27.26,1.63.14,1.64.11,3.27.23c8.74.54,17.48.9,26.24,1,2.19,0,4.38.07,6.57.06H512l1.64,0c4.38,0,8.76-.09,13.14-.2l3.29-.08,1.64,0,1.64-.06,6.58-.24,6.57-.28,6.57-.33c2.19-.13,4.37-.25,6.56-.4L563,239c1.09-.07,2.18-.14,3.27-.23,2.19-.17,4.37-.33,6.55-.52L576,238l3.26-.31,1.64-.16,1.63-.17,3.26-.34c2.16-.26,4.34-.5,6.5-.79,4.33-.56,8.64-1.18,12.93-1.94s8.55-1.61,12.76-2.66c2.09-.54,4.18-1.11,6.23-1.78,1-.33,2-.69,3-1.07.5-.2,1-.4,1.48-.62a14.72,14.72,0,0,0,1.44-.7,19.92,19.92,0,0,1-2.7,1.66c-1,.5-1.91,1-2.9,1.42-2,.88-4,1.67-6.05,2.4-4.12,1.45-8.34,2.67-12.61,3.74s-8.58,2-12.92,2.79-8.71,1.51-13.09,2.13l-3.29.45-3.29.41c-2.2.29-4.4.51-6.6.75-1.1.13-2.2.23-3.3.34l-3.31.31c-2.2.2-4.41.36-6.62.55s-4.41.31-6.62.45l-6.63.38q-6.63.33-13.28.51l-1.66.05-1.67,0-3.32,0-1.67,0h-5c-4.43,0-8.87-.11-13.31-.24l-3.32-.14-3.33-.15c-2.21-.13-4.43-.24-6.64-.41q-6.64-.45-13.25-1.16l-3.3-.38-1.65-.19-1.65-.22c-1.09-.15-2.19-.28-3.29-.44l-3.28-.48c-1.09-.16-2.18-.35-3.28-.52l-3.26-.56-1.63-.29-1.63-.32c-1.08-.2-2.16-.41-3.24-.64s-2.16-.45-3.23-.69l-1.61-.36-1.61-.38c-2.13-.51-4.26-1.06-6.37-1.64A103.25,103.25,0,0,1,422.44,232.51Z"/>
              </g>
              <g class="cls-28">
                <path class="cls-15" d="M390.53,218.76c1.35,5.24,2.4,10.47,3.49,15.67l.82,3.89c.29,1.3.55,2.59.85,3.88s.58,2.57.91,3.84.64,2.55,1,3.8.76,2.49,1.2,3.69a20.57,20.57,0,0,0,1.56,3.38c.07.13.15.25.23.37l.12.18.12.16.12.16.09.1.12.13.15.13a12.78,12.78,0,0,0,1.52,1.13c1.15.75,2.41,1.48,3.69,2.17,2.56,1.41,5.21,2.76,7.87,4.11l4,2,2,1,1,.5c.34.17.67.34,1,.48a11.05,11.05,0,0,1-1.15-.2l-1.14-.26-2.25-.58c-1.49-.41-3-.85-4.43-1.32-2.93-.94-5.82-2-8.65-3.19-1.42-.62-2.83-1.25-4.21-2a17.3,17.3,0,0,1-2.11-1.35l-.27-.22-.27-.25a3.7,3.7,0,0,1-.28-.28l-.21-.25c-.07-.08-.15-.16-.21-.24l-.19-.25c-.13-.16-.24-.32-.36-.49a16.76,16.76,0,0,1-1.16-2c-.33-.66-.62-1.32-.9-2-.54-1.32-1-2.64-1.36-4s-.71-2.65-1-4-.54-2.65-.76-4-.42-2.67-.58-4l-.22-2-.18-2c-.22-2.67-.35-5.34-.36-8,0-1.34,0-2.68.07-4S390.38,220.1,390.53,218.76Z"/>
              </g>
              <path class="cls-40" d="M653.4,199.52c0,22-59.91,40-133.63,40s-133.62-17.94-133.62-40c-1.4-13.85,52-30.77,118.74-40.05a104.92,104.92,0,0,1,29.77.07C598.44,169,654.77,193.56,653.4,199.52Z"/>
              <g>
                <path class="cls-41" d="M439.25,189.56c.3.75-1.47,1.94-3.95,2.67s-4.72.7-5,0,1.47-1.94,3.94-2.67S439,188.81,439.25,189.56Z"/>
                <path class="cls-41" d="M403.6,197.34c.3.75-1.47,1.94-3.94,2.66s-4.73.71-5,0,1.47-1.94,3.95-2.66S403.31,196.59,403.6,197.34Z"/>
                <ellipse class="cls-41" cx="461.45" cy="205.64" rx="4.67" ry="1.45" transform="translate(-38.46 132.76) rotate(-15.73)"/>
                <ellipse class="cls-41" cx="426.96" cy="213.47" rx="4.67" ry="1.45" transform="matrix(0.96, -0.27, 0.27, 0.96, -41.88, 123.71)"/>
                <ellipse class="cls-41" cx="492.31" cy="207.52" rx="4.67" ry="1.45" transform="translate(-37.82 141.19) rotate(-15.73)"/>
                <ellipse class="cls-41" cx="471.83" cy="186.59" rx="4.67" ry="1.45" transform="translate(-32.91 134.86) rotate(-15.73)"/>
                <ellipse class="cls-41" cx="509.39" cy="188.47" rx="4.67" ry="1.45" transform="translate(-32.02 145.11) rotate(-15.73)"/>
                <ellipse class="cls-41" cx="573.36" cy="207.42" rx="4.67" ry="1.45" transform="matrix(0.96, -0.27, 0.27, 0.96, -34.76, 163.16)"/>
                <ellipse class="cls-41" cx="552.89" cy="186.49" rx="4.67" ry="1.45" transform="translate(-29.85 156.83) rotate(-15.73)"/>
                <path class="cls-41" d="M498.06,169.71c.3.75-1.47,1.94-3.94,2.66s-4.73.71-5,0,1.47-1.93,4-2.66S497.77,169,498.06,169.71Z"/>
                <ellipse class="cls-41" cx="516.56" cy="160.12" rx="4.67" ry="1.45" transform="translate(-24.06 145.99) rotate(-15.73)"/>
                <path class="cls-41" d="M464.45,169.71c.3.75-1.46,1.94-3.94,2.66s-4.73.71-5,0,1.46-1.93,3.94-2.66S464.16,169,464.45,169.71Z"/>
                <path class="cls-41" d="M541.23,169.71c.3.75-1.47,1.94-3.94,2.66s-4.73.71-5,0,1.47-1.93,4-2.66S540.93,169,541.23,169.71Z"/>
                <ellipse class="cls-41" cx="573.4" cy="170.92" rx="4.67" ry="1.45" transform="translate(-24.86 161.8) rotate(-15.73)"/>
                <path class="cls-41" d="M535.33,208c.3.75-1.47,1.94-4,2.67s-4.72.7-5,0,1.47-1.94,3.95-2.67S535,207.25,535.33,208Z"/>
                <ellipse class="cls-41" cx="590.44" cy="188.37" rx="4.67" ry="1.45" transform="translate(-28.95 167.07) rotate(-15.73)"/>
                <ellipse class="cls-41" cx="471.54" cy="224.69" rx="4.67" ry="1.45" transform="translate(-43.25 136.21) rotate(-15.73)"/>
                <ellipse class="cls-41" cx="509.09" cy="226.57" rx="4.67" ry="1.45" transform="translate(-42.35 146.46) rotate(-15.73)"/>
                <ellipse class="cls-41" cx="552.59" cy="224.59" rx="4.67" ry="1.45" transform="translate(-40.19 158.17) rotate(-15.73)"/>
                <path class="cls-41" d="M611.93,215.57c.3.74-1.47,1.93-3.94,2.66s-4.73.71-5,0,1.47-1.94,3.95-2.66S611.63,214.82,611.93,215.57Z"/>
                <ellipse class="cls-41" cx="625.69" cy="195.79" rx="4.67" ry="1.45" transform="translate(-29.65 176.91) rotate(-15.73)"/>
              </g>
            </g>
          </g>
        </g>
      </g>
    </g>
  </g>
</svg>
