<svg id="Layer_1" data-name="Layer 1" xmlns="http://www.w3.org/2000/svg" viewBox="0 0 475 460"><defs><style>.cls-1{fill:#fff;}</style></defs><path class="cls-1" d="M210.35,187.46q-31.14,0-52.69,23.15t-21.55,55.08q0,20,11.17,31.53T176,308.8q19.95,0,67.85-22.75T320.51,241v-9.58Q299.74,210.61,269,199T210.35,187.46ZM314.5,238c-18.46,14-43.07,28.32-73.2,42.63-31,14.72-52.94,22.18-65.28,22.18-10.11,0-18.1-3.19-24.42-9.75s-9.49-15.55-9.49-27.36c0-19.89,6.52-36.57,19.94-51s29.11-21.24,48.3-21.24c17.79,0,36.82,3.77,56.55,11.19,18.72,7.06,34.73,16.89,47.6,29.24Z"/><path class="cls-1" d="M466.2,18.1a6,6,0,0,0-6-6H14.78a6,6,0,0,0-6,6.38l4,63.19a6,6,0,0,0,6,5.62H316.9v93.19c-4.57-5-9.31-9.81-14.19-14.5l-1.19-1.15c-13.58-13.07-26.41-25.42-44.08-35.93-7.08-4.69-16.61-8.21-29.13-10.78a186.13,186.13,0,0,0-37.12-3.71c-35.92,0-66.78,11-91.74,32.6-25.21,21.85-38,48.35-38,78.77,0,34,15.77,67,46.86,98s64.33,46.85,98.83,46.85c18.8,0,39.44-4.58,61.36-13.62,15.05-6.21,31.28-15.17,48.39-26.69V441.9a6,6,0,0,0,6,6h63.34a6,6,0,0,0,6-6V87.29h68a6,6,0,0,0,6-6Zm-80,63.19V441.9H322.9v-123q-30.5,21.83-56.68,32.62-31.94,13.19-59.07,13.17-49.5,0-94.59-45.1t-45.1-93.79q0-43.11,35.92-74.24t87.81-31.13A179.22,179.22,0,0,1,227.11,124q17.55,3.6,27.14,10c17.63,10.47,30.2,22.75,44.3,36.32a333.21,333.21,0,0,1,24.35,26.09V81.29H18.77l-4-63.19H460.2l0,63.19Z"/></svg>