<svg id="Layer_1" data-name="Layer 1" xmlns="http://www.w3.org/2000/svg" viewBox="0 0 475 460"><defs><style>.cls-1{fill:#8d8e8d;}</style></defs><path class="cls-1" d="M460.2,18.1H14.78l4,63.2H322.9V196.39a333.21,333.21,0,0,0-24.35-26.09c-14.1-13.57-26.67-25.85-44.3-36.32q-9.58-6.37-27.14-10a179.22,179.22,0,0,0-35.92-3.59q-51.9,0-87.81,31.13T67.46,225.78q0,48.69,45.1,93.79t94.59,45.1q27.14,0,59.07-13.17,26.19-10.8,56.68-32.62v123h63.34V81.3h74ZM320.51,241q-28.74,22.35-76.64,45.1T176,308.8q-17.57,0-28.74-11.58t-11.17-31.53q0-31.92,21.55-55.08t52.69-23.15q27.93,0,58.67,11.58t51.49,32.33Z"/></svg>