<svg id="Layer_1" data-name="Layer 1" xmlns="http://www.w3.org/2000/svg" width="215" height="210" viewBox="0 0 215 210">
  <defs>
    <style>
      .cls-1 {
        fill: #f5ea14;
      }
    </style>
  </defs>
  <path class="cls-1" d="M112.28,17.28l.29,25h27.92v65.62Q129.15,119.53,110,129.86q-21.89,11.73-34.58,11.73-15.85,0-15.86-11.45a17.59,17.59,0,0,1,.64-4.13q25.7-12.08,38.7-26.71,12-13.35,12-28,0-18.75-16.81-37.2T59,15.66q-16.5,0-27.76,10.65T20,53.17q0,11.76,9.2,21.62t28.23,21a91.26,91.26,0,0,1-24.49,12.56q-12.94,4.29-12.94,6.2,0,1.59,8.2,11.12a210.62,210.62,0,0,0,18,18.44,77.39,77.39,0,0,0,23,14.31q13.26,5.4,22.1,5.4,12.31,0,27.3-6.66a107.78,107.78,0,0,0,21.91-12.93v50.13h25v-152H195l0-25Zm-63.15,45a22.84,22.84,0,0,1,6-15.86,19.65,19.65,0,0,1,15.23-6.66c5.28,0,9.36,1.22,12.21,3.65s4.28,6.5,4.28,12.21a34.19,34.19,0,0,1-5.23,18.72A44.12,44.12,0,0,1,68.8,87.67Q49.14,76.57,49.13,62.29Z"/>
</svg>
