<svg id="Layer_1" data-name="Layer 1" xmlns="http://www.w3.org/2000/svg" width="215" height="210" viewBox="0 0 215 210">
  <defs>
    <style>
      .cls-1 {
        fill: #f5ea14;
      }
    </style>
  </defs>
  <path class="cls-1" d="M106.86,23.18H18.28L18.78,48H126.64v53.09Q107.61,83.23,97,76.3q-12.09-7.86-21.82-7.86-17.26,0-36.74,11.93l17,24.49a70.87,70.87,0,0,1,15.85-7.38q8.33-2.66,13.35-2.66a41.32,41.32,0,0,1,17.27,3.29,42.69,42.69,0,0,1,12.56,8.64L45.62,153.54,67,173.15l59.62-42.64v56.31h24.88V48h45.2l-.37-24.85Z"/>
</svg>
