<svg id="Layer_1" data-name="Layer 1" xmlns="http://www.w3.org/2000/svg" width="215" height="210" viewBox="0 0 215 210">
  <defs>
    <style>
      .cls-1 {
        fill: #f5ea14;
      }
    </style>
  </defs>
  <path class="cls-1" d="M188.4,46l-.09-27H26.6l0,27H131.32V64.25H85.11q-13.8,0-21.18,6.93T56.55,89.06q0,14.49,16.2,34t30.33,19.5q5.44,0,21.5-3.85t20.53-3.86q7.38,0,7.38,4.82,0,8.34-10.91,16.36-12.51,9.31-29.52,9.31-17.32,0-34.33-9.15t-34.66-28.4l-10.91,9.31Q62,168,83.82,179.52A101.06,101.06,0,0,0,131.64,191a43.4,43.4,0,0,0,30.48-11.87q12.82-11.88,12.84-26.64c0-3.42-.87-45-36.59-44.6-2.78,0-11.34,1.28-25.67,3.85s-22,3.85-23.1,3.85a8.25,8.25,0,0,1-6.1-2.6,8.88,8.88,0,0,1-2.57-6.5q0-16.58,18.62-16.57H159s-.09-2.58-.09-7.76V46Z"/>
</svg>
