<svg id="Layer_1" data-name="Layer 1" xmlns="http://www.w3.org/2000/svg" width="215" height="210" viewBox="0 0 215 210">
  <defs>
    <style>
      .cls-1 {
        fill: #f5ea14;
      }
    </style>
  </defs>
  <path class="cls-1" d="M146.46,101.84c0-3.72.57-48.47.57-48.47l34.3.06V26.92H33.67V53.37h86.77l-.14,28c-5.85.65-17.07.65-25.36,2.6Q69.76,88.41,59.88,99.13q-8,8.52-8,22.72,0,24.61,21,42.92t51.32,18.31q11.47,0,26.93-6.3c10.31-4.2,10-4.71,16.55-9.75V140.21c-24.07,17.07-92.63,38.6-94.26-6.9C72.17,96.35,142.56,102.58,146.46,101.84Z"/>
</svg>
