<svg id="Layer_1" data-name="Layer 1" xmlns="http://www.w3.org/2000/svg" width="215" height="210" viewBox="0 0 215 210">
  <defs>
    <style>
      .cls-1 {
        fill: #f5ea14;
      }
    </style>
  </defs>
  <path class="cls-1" d="M124.7,21H33.17V47.32H144.42v56.05H123a64.1,64.1,0,0,0-15.23-21.86Q93.89,68.34,77,68.34q-13.56,0-28.35,13.17l20.34,26A84.16,84.16,0,0,1,82.8,94.06q7.4-5.64,11.71-5.65,4,0,7.39,4.4t3.39,11.29q0,12.54-9.86,22a32.41,32.41,0,0,1-23.11,9.41A35.15,35.15,0,0,1,52,129.13q-11.08-7.27-25.26-27.23l-9.86,7.85Q33.5,135.46,50.6,148t33.74,12.55q16.34,0,27.42-9.57a40.89,40.89,0,0,0,13.61-22.79h19V189h27.42V47.32h26.29V21Z"/>
</svg>
