<svg id="Layer_1" data-name="Layer 1" xmlns="http://www.w3.org/2000/svg" width="215" height="210" viewBox="0 0 215 210">
  <defs>
    <style>
      .cls-1 {
        fill: #f5ea14;
      }
    </style>
  </defs>
  <path class="cls-1" d="M109.52,15.66V41.73h28l-.09,75.94a126.63,126.63,0,0,1-30.39,22.77c-12.83,7-39.25,14.22-51.64,7.05A15.11,15.11,0,0,1,49.59,137c-1.31-8.23,1.62-16.4,7.33-19.92,10.09-7.83,41.16-9.06,41.16-9.06L91.19,83.41C63.26,86.49,57.33,74.8,57.33,74.8c1,0,3.81-.07,5.45-.07q12.82,0,21.69-7.63a24,24,0,0,0,8.86-18.92q0-14.93-10.39-23.72T60,15.66q-15.9,0-25.51,9.85A33.26,33.26,0,0,0,24.89,49.7q0,12.35,9.32,23.19A47.19,47.19,0,0,0,57,87.74Q41.7,92.07,35.59,99.38c-4.08,4.87-8,15.1-6.11,27.42,1.63,10.73,5.6,21.83,16.8,32.9s23.62,16.62,37.27,16.62q13.44,0,29.64-7.51a95.1,95.1,0,0,0,24.24-15.64l-.05,41.15,27.37,0V41.73h25l.32-26.07ZM50.74,62.37a29.65,29.65,0,0,1-1.41-10q0-8,4.89-13t11-5a14.08,14.08,0,0,1,10.39,4.34c5.08,6.46,3.62,17-.17,20.38a17,17,0,0,1-12.35,4.74C59,63.81,53.6,63.7,50.74,62.37Z"/>
</svg>
