<svg id="Layer_1" data-name="Layer 1" xmlns="http://www.w3.org/2000/svg" width="215" height="210" viewBox="0 0 215 210">
  <defs>
    <style>
      .cls-1 {
        fill: #f5ea14;
      }
    </style>
  </defs>
  <g>
    <path class="cls-1" d="M188.77,102.11A11.19,11.19,0,1,0,200,113.3,11.19,11.19,0,0,0,188.77,102.11Z"/>
    <path class="cls-1" d="M176.84,46l-.09-27H15l0,27H119.75V64.25H73.54q-13.8,0-21.17,6.93T45,89.06q0,14.49,16.21,34t30.32,19.5q5.46,0,21.5-3.85t20.54-3.86q7.38,0,7.38,4.82Q140.93,148,130,156q-12.51,9.31-29.52,9.31-17.32,0-34.34-9.15t-34.65-28.4L20.6,137.09Q50.44,168,72.26,179.52A101,101,0,0,0,120.07,191a43.41,43.41,0,0,0,30.49-11.87q12.83-11.88,12.83-26.64c0-3.42-.87-45-36.58-44.6-2.78,0-11.34,1.28-25.67,3.85s-22,3.85-23.1,3.85a8.25,8.25,0,0,1-6.1-2.6,8.84,8.84,0,0,1-2.57-6.5q0-16.58,18.61-16.57h59.46s-.09-2.58-.09-7.76V46Z"/>
  </g>
</svg>
