<svg id="Layer_1" data-name="Layer 1" xmlns="http://www.w3.org/2000/svg" width="215" height="210" viewBox="0 0 215 210">
  <defs>
    <style>
      .cls-1 {
        fill: #f5ea14;
      }
    </style>
  </defs>
  <path class="cls-1" d="M184.82,11.07l-90.21.14H39V34.35H139.5v36l-84.95-.21.08,22.31a114.56,114.56,0,0,1,13,6.4,83.84,83.84,0,0,1,11.79,8.74,88.35,88.35,0,0,1,6.5,6c2.82,2.94,5.26,6.49,5.61,10.66.67,8.19-6.17,16.75-13.17,19.23A31.59,31.59,0,0,1,73,144.92c-.87-1.14-1.8-2.24-2.76-3.3a35.37,35.37,0,0,0-12.52-9.26,23.79,23.79,0,0,0-7.78-1.65,23,23,0,0,0-13.71,3.49,13,13,0,0,0-4.8,16.55,18.79,18.79,0,0,0,6.78,7.59c5.33,3.55,11.76,4.83,18.07,5.4a88.46,88.46,0,0,0,18.9-.25c1.43,2.38,8.33,22,13.71,32.32L100,188.07c-3.56-4.91-6.22-10.33-9-15.69-.27-.52-.52-1-.77-1.58a82,82,0,0,0-4-7.72,41.79,41.79,0,0,0,14.69-10.29c4.61-4.84,8.63-9.88,10.59-16.39a28.59,28.59,0,0,0,.91-12.2,25.73,25.73,0,0,0-3.37-9.77c-2.75-4.51-6.7-8.21-10.75-11.55-3.2-2.64-6.56-5.09-10-7.46H139.5V198.86l24.32.07V34.35h0l21-.13ZM49.73,153.89c-2.27-.62-6.57-.21-6.57-5.85,0-2.58,2.84-15.25,23.76,3.49C63.69,151.17,60.2,156.53,49.73,153.89Z"/>
</svg>
