<svg id="Layer_1" data-name="Layer 1" xmlns="http://www.w3.org/2000/svg" width="215" height="210" viewBox="0 0 215 210">
  <defs>
    <style>
      .cls-1 {
        fill: #f5ea14;
      }
    </style>
  </defs>
  <path class="cls-1" d="M16.86,18.69V43.53H46.11c0,8.19-1.3,32.2,7.14,41.84q6,7,19.4,11.73Q62.27,101.26,58,106.64a21.06,21.06,0,0,0-4.24,13.42q0,14.4,14.08,30.17T98.62,166a46.51,46.51,0,0,0,22.27-6,94.46,94.46,0,0,0,16.57-11.65v42.94h24.33V43.54h36.35V18.69Zm120.6,24.85v77.8a123.47,123.47,0,0,1-23,15.25q-14.49,7.28-24.6,7.27-8.75,0-13.66-2.9t-4.92-6.78q0-8.31,9-13.56c6-3.5,32.52-8.62,32.52-8.62q0-1.4-4.65-9.66c-3.1-5.51-5.19-9-6.28-10.5-6.22,1.18-13.53,2.4-23.69-7.35-4.91-8.12-4.77-26.42-4.77-28.66a36.64,36.64,0,0,1,.68-7.12,7.73,7.73,0,0,1,3.14-5.18Z"/>
</svg>
