<svg id="Layer_1" data-name="Layer 1" xmlns="http://www.w3.org/2000/svg" width="215" height="210" viewBox="0 0 215 210">
  <defs>
    <style>
      .cls-1 {
        fill: #f5ea14;
      }
    </style>
  </defs>
  <path class="cls-1" d="M180.45,140.85c3.41-7.23,3.92-21.42-8-34.12-14-14.86-30.46-9.34-32.75-8.4-25.74,10.63-19.77,38.94-19.77,38.94-13.37-.74-28.67-6.44-36.55-17.43-5.56-7.78-10-18-7.33-27.36a16.49,16.49,0,0,1,3.58-6.76q6.7-7.34,18.26-7.34h47c3.53,0,5.31-2.51,5.31-7.53V27.5H179V2.72H32.44V27.49l93.47-.09h0V53.32l-38,.09q-37.87,0-38.71,32a71.51,71.51,0,0,0,17.5,48.76A73.86,73.86,0,0,0,88.9,151.41a71.92,71.92,0,0,0,20.7,6.93,71,71,0,0,0,17.67.84s13,27,28.07,48.1c0,0,21.58-14.47,23-15.51l-21.66-33.43L162,157.1C171.39,153.89,178.82,144.32,180.45,140.85Zm-37.09-8.06s-3.23-15.48,9.35-12.91S158.85,136,143.36,132.79Z"/>
</svg>
