<svg id="Layer_1" data-name="Layer 1" xmlns="http://www.w3.org/2000/svg" width="215" height="210" viewBox="0 0 215 210">
  <defs>
    <style>
      .cls-1 {
        fill: #f5ea14;
      }
    </style>
  </defs>
  <path class="cls-1" d="M6.53,15.9v25H77.11c0,.35,5.08,50.1,3.68,59.88,0,0,0,.13-.07.39a14.35,14.35,0,0,0-5.63-.65S49.32,98.8,40.2,127.07c-8.42,31,19.07,45.42,28,47.05,8,1.44,37,2.62,41.83-36,5.34-42.6,1-93.08.44-97.24h31v153l24.93.28V40.85h42v-25ZM78.86,149.05c-15.17,4.28-18.15-12-10.34-16,7.08-3.58,16.56-.28,16.39,8.31C84,145.21,82.12,148.13,78.86,149.05Z"/>
</svg>
