<svg id="Layer_1" data-name="Layer 1" xmlns="http://www.w3.org/2000/svg" width="215" height="210" viewBox="0 0 215 210">
  <defs>
    <style>
      .cls-1 {
        fill: #f5ea14;
      }
    </style>
  </defs>
  <path class="cls-1" d="M131.45,22.74H6.61l0,25.06H57.24V88q0,5-2.72,5a14.28,14.28,0,0,1-4.72-1.68q-7.44-3.65-8.94-3.64c-1.49,0-3.14,1.3-5,3.92s-2.73,4.93-2.73,7q0,4.74,6.94,14.79Q63,147,82.31,162.35q16.38,13.13,31.28,13.13,11.4,0,27.3-5A112.89,112.89,0,0,0,165.7,159.3v27.93l22.09,0V47.62h20.6V22.74ZM165.7,102c-3.81,3.87-10.67,10.61-20.59,14.86-26.21,10.3-32.4-3.93-32.4-11.2q0-8.32,6.7-15.79c10.46-9.84,26.8-2.69,33.26.09a43.27,43.27,0,0,1,13,8.24Zm0-20.19c-4.5-3.41-15.7-11.46-17.38-12.62a27.31,27.31,0,0,0-8.44-3.57,39.34,39.34,0,0,0-10.29-1.43q-13.66,0-24,10.41c-6.86,7-10.3,14.8-10.3,23.56a40.84,40.84,0,0,0,10.55,28.13q10.55,11.85,24,11.84c4.47,0,10.84-1.5,19.12-4.56a86.88,86.88,0,0,0,16.75-7.87V134a126.67,126.67,0,0,1-25.56,12.38q-18.37,6.75-28.29,6.76a51.92,51.92,0,0,1-27.17-7.19Q72.62,138.76,62,123.51q18.1-13.19,18.12-30.85V47.8h0l85.62-.21Z"/>
</svg>
