<svg id="Layer_1" data-name="Layer 1" xmlns="http://www.w3.org/2000/svg" width="215" height="210" viewBox="0 0 215 210">
  <defs>
    <style>
      .cls-1 {
        fill: #f5ea14;
      }
    </style>
  </defs>
  <path class="cls-1" d="M134.43,15.7H4.07l.29,25H154.55V81.55l-.16-.17a84,84,0,0,0-11.74-8.9q-9.56-5.88-16.94-5.88-7,0-15.92,5.46A60.58,60.58,0,0,0,93.86,86.44Q82.79,72.16,73.24,65.85a35.16,35.16,0,0,0-19.62-6.31q-16.44,0-29,13.57A46,46,0,0,0,12,105.46q0,17.12,12.41,36.88c9.39,15.2,23.42,31.17,44.66,50.61H89.7c-16.33-13.18-31.95-34.83-38.43-42.86q-12.41-15.4-12.4-30.49,0-13.39,7.54-22.6a23.83,23.83,0,0,1,19.28-9.22q13.75,0,20.46,10.77a58.75,58.75,0,0,0-4.36,9.58,53.3,53.3,0,0,0-2.35,7.56l25.15,16.82Q115,111.33,122,103.93a28.17,28.17,0,0,1,21.12-9.08,57,57,0,0,1,8.72.67c.9.14,1.8.31,2.68.52V194.3h26.6V40.7h29.78v-25Z"/>
</svg>
