<svg id="Layer_1" data-name="Layer 1" xmlns="http://www.w3.org/2000/svg" width="215" height="210" viewBox="0 0 215 210">
  <defs>
    <style>
      .cls-1 {
        fill: #f5ea14;
      }
    </style>
  </defs>
  <g>
    <path class="cls-1" d="M98,72.11h55.16s.08-2.54.08-7.63V27h27.93V2H33.86V27h93.79v19.9H87.86Q68,46.85,55,57.9t-13,28.42q0,28.43,23.69,53.05Q91,165.59,124.81,165.59q19.89,0,33.16-12.32Q169,142.84,169,130.53q0-6.32-4.42-18t-7.26-15.47q-10.43-14.52-32.21-14.53-15.48,0-24.63,9.22T91.34,113a88.79,88.79,0,0,0,.79,11.91c.52,3.91,1.42,8.63,2.68,14.13Q79,134,72.55,126.37t-6.48-20.31A36.09,36.09,0,0,1,74.6,82.42Q83.14,72.11,98,72.11Zm10.74,64.7a31.67,31.67,0,0,1,7.73-21.19q7.74-9.09,18.16-9.09,8.84,0,12.79,2.21t4,6q0,8.85-11.77,17.37a43.91,43.91,0,0,1-26.41,8.53h-4.45Z"/>
    <path class="cls-1" d="M107.5,185.58a11.2,11.2,0,1,0,11.19,11.2A11.2,11.2,0,0,0,107.5,185.58Z"/>
  </g>
</svg>
