<svg id="Layer_1" data-name="Layer 1" xmlns="http://www.w3.org/2000/svg" width="215" height="210" viewBox="0 0 215 210">
  <defs>
    <style>
      .cls-1 {
        fill: #f5ea14;
      }
    </style>
  </defs>
  <path class="cls-1" d="M201.17,15.87H13.83l.1,26.59H143.42V90.87a139,139,0,0,0-10.24-11C127.25,74.18,122,69,114.55,64.61q-4-2.67-11.42-4.19A75,75,0,0,0,88,58.91Q66.19,58.91,51.09,72T36,103.22q0,20.49,19,39.45t39.79,19q11.4,0,24.84-5.54a121.35,121.35,0,0,0,23.84-13.72v51.75h26.64V42.46h31.11ZM142.41,109.6q-12.09,9.41-32.23,19t-28.54,9.57a16,16,0,0,1-12.08-4.87q-4.71-4.86-4.7-13.26a32.84,32.84,0,0,1,9.06-23.16,29.12,29.12,0,0,1,22.16-9.74A69.94,69.94,0,0,1,120.76,92a60,60,0,0,1,21.65,13.6Z"/>
</svg>
