<svg id="Layer_1" data-name="Layer 1" xmlns="http://www.w3.org/2000/svg" width="215" height="210" viewBox="0 0 215 210">
  <defs>
    <style>
      .cls-1 {
        fill: #f5ea14;
      }
    </style>
  </defs>
  <path class="cls-1" d="M166.12,46.89H196l.07-25H18.94v25H56.38V64a32.89,32.89,0,0,0-16.44,7q-9.1,7.59-9.1,18.81,0,7.59,8.8,19.42,7.28,10,13.65,14.57-9.7,7.89-9.71,19.42,0,15.18,19.12,30.05t39.15,14.87q28.52,0,54.32-22.2a76.94,76.94,0,0,0,8.36-8.4c2.18,1.76,4.24,3.51,6,5.16,6.4,6,.42,16.64.42,16.64s16.62-8.81,11.1-18.34c-2.15-3.72-6.48-7.92-11.36-11.91,7.45-12,10.72-25.12,13.39-39.12,4.79-25.12-31.47-73.12-72.68-33.6a31.73,31.73,0,0,0-7.74,20.85q0,24,38.24,44.12-8.81,10.65-25.65,18.1t-31.1,7.45c-7.09,0-11.94-1-14.57-2.88a9.69,9.69,0,0,1-3.94-8.35q0-7.57,7.89-12.13,9.4-5.46,28.22-5.47L90.92,111H86.68a59.6,59.6,0,0,0-12.9,1.51q-6.82,1.53-9.56,3.34a32.07,32.07,0,0,1-6.68-5.46q-3.65-4.25-3.64-8.2a12.69,12.69,0,0,1,5.16-10.62c3.44-2.62,5.79-3.5,11-3.5h.17V63.69h0V46.89Zm-34.53,57.77a24.15,24.15,0,0,1,5.46-15.78q5.46-6.67,13-6.67,4.25,0,7,4.09c1.82,2.73,2.73,6.94,2.73,12.6q0,7.59-3.94,18.36t-7.59,15Q131.59,119.23,131.59,104.66Z"/>
</svg>
