<svg id="Layer_1" data-name="Layer 1" xmlns="http://www.w3.org/2000/svg" width="215" height="210" viewBox="0 0 215 210">
  <defs>
    <style>
      .cls-1 {
        fill: #f5ea14;
      }
    </style>
  </defs>
  <path class="cls-1" d="M184.35,23.8H30.65l.11,25.25h94.45c.21,1.51-.06,26.19-.06,26.19-3.52.54-44.42-.75-60.13,12.52-7.89,6.61-14.62,16.6-14.62,30q0,25.26,19.5,45.71,21.42,22.71,54,22.7,27.16,0,42.84-15,14.39-13.74,14.39-34.21,0-22.69-31.33-46.36c.51-8.6-.18-35.08-.3-41.56h34.7ZM153.66,126.74q0,14.72-14.06,25.89t-32.93,11.19q-13.76,0-22.86-8.15T74.7,133.45q0-17.58,11.35-25.57t41.72-8q12.78,0,19.34,7.2T153.66,126.74Z"/>
</svg>
