<svg id="Layer_1" data-name="Layer 1" xmlns="http://www.w3.org/2000/svg" width="215" height="210" viewBox="0 0 215 210">
  <defs>
    <style>
      .cls-1 {
        fill: #f5ea14;
      }
    </style>
  </defs>
  <path class="cls-1" d="M210.84,48.91l.08-25.62H4.33L4.08,48.91H107.75V93.22s-6.26-7.69-8.83-10.3A130.38,130.38,0,0,0,82.86,69,27.5,27.5,0,0,0,73,65.23a62,62,0,0,0-13-1.37q-18.83,0-31.84,11.9t-13,28.36q0,18.61,16.35,35.84t34.3,17.24q9.84,0,21.42-5c6.33-2.75,20.55-12.46,20.55-12.46v47h25.76V125s8.54-6.82,15.05-11q13.6-8.69,19.1-8.69a8.13,8.13,0,0,1,5.94,2.91,9.3,9.3,0,0,1,2.75,6.56q0,5.81-6.23,21.07c-4.63,9.59-4.87,10.36-5.62,12.07l24.31,18.93c1-5.69,7.8-26.72,7.8-33.44q0-21.06-11.72-36.16T158.11,82.16q-5.79,0-14.76,4.12a111.4,111.4,0,0,0-9.84,5.51V48.91ZM75.53,129c-15,6.91-26.68,10.52-32.8.85C36.42,118,42.3,105.57,46.51,100c8.84-11.77,20-11.14,29-9.67C90.18,92.65,106,105.46,107.75,107v2.36C105.73,110.71,86,124.15,75.53,129Z"/>
</svg>
