<svg id="Layer_1" data-name="Layer 1" xmlns="http://www.w3.org/2000/svg" width="215" height="210" viewBox="0 0 215 210">
  <defs>
    <style>
      .cls-1 {
        fill: #f5ea14;
      }
    </style>
  </defs>
  <path class="cls-1" d="M1.88,23V48.71h139.4V72.28H70.56L67.81,79q14.68,15.62,20.51,24.34t5.81,16.07q0,5.2-4.74,8.87A18.71,18.71,0,0,1,77.6,132q-10.71,0-21.43-10.78-12.56-12.63-26-41.26L19.44,86.06q30.6,74.7,73.47,74.69,13.77,0,22-8a21.3,21.3,0,0,0,7-15.91q0-5.82-5.51-15.92T100,98h41.33v89h25.64V48.71h45.92L213.12,23Z"/>
</svg>
