<svg id="Layer_1" data-name="Layer 1" xmlns="http://www.w3.org/2000/svg" width="215" height="210" viewBox="0 0 215 210">
  <defs>
    <style>
      .cls-1 {
        fill: #f5ea14;
      }
    </style>
  </defs>
  <path class="cls-1" d="M200.33,15.87H14.66V42.46H63.51v63.31c0,11.45,2,22.34,15.62,32.67q18.12,13.8,32.56,13.8,7.05,0,17.8-4a72.67,72.67,0,0,0,13.09-6.4v51.1l26.64,1.22V42.46h31.12ZM117.19,123.06q-11.58,5.69-17.94,5.68-9.72,0-9.72-10.74V70.14h0v-4l51.31,42.29C133.33,113.35,122.4,120.5,117.19,123.06Zm25.39-32.39L89.53,47V42.46h53.05Z"/>
</svg>
