<svg id="Layer_1" data-name="Layer 1" xmlns="http://www.w3.org/2000/svg" width="215" height="210" viewBox="0 0 215 210">
  <defs>
    <style>
      .cls-1 {
        fill: #f5ea14;
      }
    </style>
  </defs>
  <path class="cls-1" d="M141,94.77q-6.81-3.63-20.09-3.64a63.58,63.58,0,0,0-18.19,3q-10,3-14.71,5.85-5.39-3.17-5.38-11.07,0-13.29,17.84-13.29H147L147.16,32h26l-.35-25H41.87V32H123V50.32H86.42q-27.84,0-27.84,21.52,0,6.63,5.85,17.71a80.38,80.38,0,0,0,12.5,18q-14.57,14.55-14.55,30.35,0,20.53,22.14,37.3c15.82,12.21,38.23,21.51,68,27.84l.31-13.25c-25.31-5.9-36.54-11.17-46.45-18.23S91.48,155.74,91.48,145.2q0-13,13.44-23.39a49.44,49.44,0,0,1,31.16-10.43,9.46,9.46,0,0,1,6.49,2.37,7.47,7.47,0,0,1,2.69,4.59c1.77,11.11-12.64,22.79-18.19,27.47l14.08,18.5c5.5-5.26,20-21.23,22.24-36.81C164.67,118.6,159.5,103,141,94.77Z"/>
</svg>
