<svg id="Layer_1" data-name="Layer 1" xmlns="http://www.w3.org/2000/svg" width="215" height="210" viewBox="0 0 215 210">
  <defs>
    <style>
      .cls-1 {
        fill: #f5ea14;
      }
    </style>
  </defs>
  <path class="cls-1" d="M192.43,42.35,192.22,17H87.69l0,.05-62.6.12L25,42.52l80.14-.7,0,0,34-.13h.17l-.17,46.63v.06S89.85,86.73,71,87.34c0,0-36.73-2.09-46.4,19.68,0,0-10.11,22.67,14.46,43.51,0,0,27.1,15.7,45.78-9.92,0,0,4.62-7.34,4.9-18.93,0,0,5.28-1.11,49.39-.58V193l25.63,0L165,42.35ZM57.07,129.55a8.75,8.75,0,1,1,8.74-8.75A8.75,8.75,0,0,1,57.07,129.55Z"/>
</svg>
