<svg id="Layer_1" data-name="Layer 1" xmlns="http://www.w3.org/2000/svg" xmlns:xlink="http://www.w3.org/1999/xlink" width="389" height="254" viewBox="0 0 389 254">
  <defs>
    <style>
      .cls-1 {
        fill: none;
      }

      .cls-2 {
        fill: #b77344;
      }

      .cls-3 {
        fill: #563621;
      }

      .cls-4 {
        clip-path: url(#clip-path);
      }

      .cls-5 {
        fill: #a80100;
      }

      .cls-6 {
        fill: #d60100;
      }

      .cls-7 {
        fill: #eb1413;
      }

      .cls-8 {
        fill: #870100;
      }

      .cls-9 {
        fill: #319422;
      }

      .cls-10 {
        fill: #30cf64;
      }

      .cls-11 {
        fill: #2d871f;
      }

      .cls-12 {
        fill: #2e8a20;
      }

      .cls-13, .cls-19, .cls-21 {
        fill: #fff;
      }

      .cls-13 {
        opacity: 0.6;
      }

      .cls-14 {
        fill: #2ec45f;
      }

      .cls-15 {
        fill: #d5e876;
      }

      .cls-16 {
        fill: #becf69;
      }

      .cls-17, .cls-23 {
        fill: #ff6c6b;
      }

      .cls-18 {
        fill: #fa5150;
      }

      .cls-19 {
        opacity: 0.69;
      }

      .cls-20, .cls-22 {
        fill: #c2ffd6;
      }

      .cls-20 {
        opacity: 0.7;
      }

      .cls-21, .cls-22 {
        opacity: 0.56;
      }

      .cls-23 {
        opacity: 0.87;
      }
    </style>
    <clipPath id="clip-path">
      <path class="cls-1" d="M27.21,161.29,31.5,164s318.68-4.18,330.54,1.05c14-.13,23.79-38.82,23.79-38.82s8.84,15.78,6.81-4.38,29.37,30.54-3.08-21.59S419.23,36.85,326,20.73,224.75-8.12,153.83,6,104.74-2.13,78.61,28.49s-11,11.75-29.77,39.07-14.4-2.14-24.35,34.24-9.55,48.72-6.1,55.45S27.21,161.29,27.21,161.29Z"/>
    </clipPath>
  </defs>
  <g>
    <g>
      <path class="cls-2" d="M362,164H31.5l42.29,66.2q55.77,2.6,115.89,2.84c45.13.12,88.54-.91,130.07-2.84Z"/>
      <ellipse class="cls-3" cx="194.62" cy="165.08" rx="167.42" ry="3.79"/>
      <path class="cls-3" d="M73.79,230.23s146.19,8.59,246,0l5.19-8.12s-85.6,8.73-255.93.63Z"/>
      <rect class="cls-3" x="136.02" y="192.07" width="117.21" height="15.02"/>
    </g>
    <g class="cls-4">
      <g>
        <g>
          <g>
            <path class="cls-5" d="M94.24,120.53c0,15.79-8.08,27.67-29.56,29-15.76.95-31.37-10.9-31.37-28.1,0-15.79,13.76-28.16,29.55-28.16S94.24,104.73,94.24,120.53Z"/>
            <path class="cls-6" d="M91.74,120.28c0,14.55-9.21,24.26-28,25.71-14.44,1.12-29.5-10.53-29.5-25.08S48.1,94,62.59,94,91.74,105.73,91.74,120.28Z"/>
            <path class="cls-7" d="M89.24,114.66c0,12.17-10.67,21.6-27.89,22.81-13.26.94-27-6.8-27-19S47,94.21,60.27,94C75,93.75,89.24,102.49,89.24,114.66Z"/>
            <path class="cls-8" d="M54.15,94.86s.52-1,2.69.49c2.38,1.69,5.47,5.22,7,3.94,6.94-6,10.83-4,10.83-4s-5,2.53-6.76,6.62c-.8,1.86,10.11.59,8.24,8.57a5.39,5.39,0,0,0-2-2.88A13.25,13.25,0,0,0,63.8,105a10.9,10.9,0,0,0-9.36,12s-4.28-10.65,4.66-13.1a34.7,34.7,0,0,0-7.22-.18c-1.57.2-6,2.06-7.49,5.66,0,0,1.63-6.69,7.22-7.75l5.61-1s.25-1.44-2-4.47C53.91,94.38,54.15,94.86,54.15,94.86Z"/>
            <path class="cls-9" d="M48.28,94s5-2.26,8.51.82c2.18,1.94,5.52,5.8,7,4.52a25.6,25.6,0,0,1,15.09-6.06s-11.15,3.61-11.58,8.09c-.19,2,12.45.27,10.38,9.93,0,0-1.21-4.54-4.7-5.89-4.48-1.73-6.94-1.07-10.29-.16-4.9,1.33-10.84,5.18-10.24,13,0,0-2.3-11.82,6.64-14.27a15.1,15.1,0,0,0-6.35-1.35c-1.59,0-9.6,1.5-11.1,5.1a13.72,13.72,0,0,1,10.81-7.36,18.53,18.53,0,0,1,6.35,1,30.78,30.78,0,0,0-3.61-5.19C53.14,93.66,48.28,94,48.28,94Z"/>
            <path class="cls-10" d="M53.11,94s1.58-.52,5,2.55c2.19,1.94,2.62,6,4.47,4.37,6.82-6.12,11.67-6.43,11.67-6.43s-7.48,2.82-8,7.3c-.14,1.28,9.61.59,10.33,5.69a8.56,8.56,0,0,0-2.62-2c-3.56-2-9.13-2-11.39-1.43-4.9,1.34-6.9,3.59-9.8,7.93a10.94,10.94,0,0,1,8.37-8.22,18.94,18.94,0,0,0-7.5-1.94,12.63,12.63,0,0,0-7.93,1.94,9.39,9.39,0,0,1,6.85-3,39.53,39.53,0,0,1,7.06,1.08,32.46,32.46,0,0,0-3-5.34C54.87,93.8,53.11,94,53.11,94Z"/>
            <path class="cls-11" d="M65.22,101.58c.61.81-.55,2.15-2,2.69s-3.38.25-3.27-.76c.21-1.75,1.67-2.19,2.67-2.57C64.07,100.39,64.47,100.58,65.22,101.58Z"/>
            <path class="cls-12" d="M56,90s4.84,5.66,4.8,12.6c0,0,2.51,1.46,3.57-.69,0,0-1.28-14.69-4.33-16.19C60,85.73,55.85,88.33,56,90Z"/>
            <path class="cls-13" d="M56.6,90s5.07,6,4.9,12.9a3.65,3.65,0,0,0,.82-.69c-.6-4.73-1.84-10.15-4-14.29A4.66,4.66,0,0,0,56.6,90Z"/>
            <path class="cls-14" d="M60.16,87a5.92,5.92,0,0,0-1.87.85c2.19,4.14,3.43,9.56,4,14.29a5.83,5.83,0,0,0,1-2.26S63.3,90.3,60.16,87Z"/>
            <path class="cls-12" d="M60.34,86.74a2.17,2.17,0,0,1-1.13,2.69c-1.38.85-2.39.88-2.56.65s-.54-.81,1.26-2.25C58.76,87.14,60.17,86.52,60.34,86.74Z"/>
            <path class="cls-15" d="M60.12,87c-.14-.18-1,.24-1.86.9A7.52,7.52,0,0,0,57,89.21a6.15,6.15,0,0,0,2.8-1A2.07,2.07,0,0,0,60.12,87Z"/>
            <path class="cls-16" d="M57,89.21c-.29.37-.46.67-.4.75a2.81,2.81,0,0,0,2.29-.59,3.49,3.49,0,0,0,.91-1.13A6.15,6.15,0,0,1,57,89.21Z"/>
            <path class="cls-17" d="M40.64,108.08A6.42,6.42,0,0,0,45.76,112s-6.68,6.38-2.56,18.17C43.2,130.14,33.72,122.21,40.64,108.08Z"/>
            <path class="cls-18" d="M84.18,108.08s-.87,4.18-4.18,5.19a25,25,0,0,1,1.15,22.49,17.77,17.77,0,0,0,6.92-16.65C86.76,109.07,84.18,108.08,84.18,108.08Z"/>
            <ellipse class="cls-19" cx="80.85" cy="115.6" rx="1.8" ry="2.99" transform="translate(-34.85 34.89) rotate(-20.13)"/>
            <path class="cls-19" d="M84.63,122.15A1.33,1.33,0,1,1,83,120.9,1.46,1.46,0,0,1,84.63,122.15Z"/>
            <path class="cls-20" d="M56.31,94.83c.53.41.79,1,.59,1.22s-.8.14-1.33-.28-.8-1-.59-1.22S55.77,94.41,56.31,94.83Z"/>
            <path class="cls-20" d="M58.58,96.82a.61.61,0,0,1,.08.86.68.68,0,0,1-.95-1A.62.62,0,0,1,58.58,96.82Z"/>
          </g>
          <g>
            <path class="cls-5" d="M126.92,128.86c0,10.75-5.32,22.26-22,23.94-18.1,1.82-32.3-6.18-31.76-24.2.42-14,10.73-24.56,26-24.56S126.92,114.88,126.92,128.86Z"/>
            <path class="cls-6" d="M124.49,127.54c0,11.49-6.06,20.42-21.64,23C88.66,152.83,73.22,144,73.73,127.3c.4-12.94,10.13-22.73,24.52-22.73S124.49,114.6,124.49,127.54Z"/>
            <path class="cls-7" d="M122,122.44a20.86,20.86,0,0,0-1-6.4c-4.54-6.92-13.08-11.47-22.77-11.47-14.39,0-24.12,9.79-24.52,22.73a22.56,22.56,0,0,0,.94,7.37c4.94,6.79,14.58,9.06,24.43,9.06C113.49,143.73,122,130.71,122,122.44Z"/>
            <path class="cls-18" d="M82.61,124.67s.72,2.31,4.24,2.83c0,0-5.93,5.66-2.27,16.12C84.58,143.62,76.47,137.21,82.61,124.67Z"/>
            <path class="cls-18" d="M113.48,113.75a5.86,5.86,0,0,1-1.59,6.35s12,7.88,2,24.16c0,0,9.24-6.73,8.12-16.54C120.64,115.59,113.48,113.75,113.48,113.75Z"/>
            <path class="cls-19" d="M117.08,124.26c.37,1,.18,2-.44,2.26s-1.42-.42-1.79-1.44-.18-2,.44-2.26S116.7,123.24,117.08,124.26Z"/>
            <path class="cls-21" d="M112.79,120.56a.94.94,0,1,1-1.8.42.94.94,0,1,1,1.8-.42Z"/>
            <path class="cls-20" d="M99.12,115.49c-.32.18-.53.45-.79.3a.61.61,0,0,1-.14-.84.6.6,0,0,1,.79-.29C99.24,114.81,99.6,115.22,99.12,115.49Z"/>
            <path class="cls-20" d="M100.71,115.12c-.16.1-.28.24-.42.16a.32.32,0,0,1-.07-.44.31.31,0,0,1,.42-.16C100.78,114.76,101,115,100.71,115.12Z"/>
          </g>
        </g>
        <g>
          <g>
            <path class="cls-5" d="M209.3,111.76c0,13.58-7,23.8-25.42,24.91-13.55.81-27-9.38-27-24.17,0-13.58,11.84-24.21,25.42-24.21S209.3,98.18,209.3,111.76Z"/>
            <path class="cls-6" d="M207.15,111.55c0,12.51-7.92,20.85-24.05,22.11-12.42,1-25.37-9.06-25.37-21.57s11.9-23.15,24.35-23.15S207.15,99,207.15,111.55Z"/>
            <path class="cls-7" d="M205,106.72c0,10.46-9.17,18.56-24,19.61-11.4.81-23.18-5.85-23.18-16.31s10.81-20.89,22.25-21.08C192.76,88.73,205,96.25,205,106.72Z"/>
            <path class="cls-8" d="M174.79,89.69s.46-.91,2.32.42c2,1.45,4.71,4.49,6,3.38,6-5.15,9.31-3.39,9.31-3.39s-4.31,2.18-5.82,5.7c-.68,1.59,8.7.5,7.09,7.36a4.68,4.68,0,0,0-1.74-2.48,11.41,11.41,0,0,0-8.84-2.27,9.39,9.39,0,0,0-8,10.32s-3.68-9.16,4-11.27a29.65,29.65,0,0,0-6.2-.15c-1.36.17-5.15,1.77-6.44,4.86,0,0,1.39-5.75,6.2-6.66l4.83-.9s.22-1.24-1.74-3.84C174.59,89.28,174.79,89.69,174.79,89.69Z"/>
            <path class="cls-9" d="M169.75,88.91s4.34-1.94,7.32.7c1.87,1.67,4.75,5,6,3.88a22,22,0,0,1,13-5.2s-9.58,3.1-9.95,6.95c-.17,1.73,10.7.24,8.92,8.54,0,0-1-3.9-4-5.06-3.85-1.49-6-.93-8.85-.14-4.22,1.14-9.32,4.45-8.8,11.15,0,0-2-10.16,5.7-12.27a12.89,12.89,0,0,0-5.45-1.16c-1.37,0-8.26,1.29-9.55,4.38a11.8,11.8,0,0,1,9.3-6.32,15.63,15.63,0,0,1,5.45.87,25.57,25.57,0,0,0-3.1-4.46C173.93,88.66,169.75,88.91,169.75,88.91Z"/>
            <path class="cls-10" d="M173.91,89s1.36-.45,4.33,2.19c1.88,1.67,2.25,5.19,3.84,3.76,5.87-5.27,10-5.53,10-5.53s-6.43,2.42-6.86,6.27c-.13,1.11,8.26.51,8.88,4.9a7.27,7.27,0,0,0-2.26-1.75,15.73,15.73,0,0,0-9.79-1.23c-4.21,1.15-5.93,3.09-8.42,6.82a9.4,9.4,0,0,1,7.19-7.06,16.3,16.3,0,0,0-6.45-1.68,10.84,10.84,0,0,0-6.82,1.68,8.08,8.08,0,0,1,5.89-2.61,34.47,34.47,0,0,1,6.08.93,28.62,28.62,0,0,0-2.61-4.58C175.42,88.78,173.91,89,173.91,89Z"/>
            <ellipse class="cls-11" cx="182.08" cy="96.3" rx="2.41" ry="1.57" transform="matrix(0.94, -0.34, 0.34, 0.94, -22.02, 68.56)"/>
            <path class="cls-12" d="M176.36,85.52s4.17,4.86,4.13,10.83c0,0,2.16,1.26,3.07-.59,0,0-1.1-12.63-3.72-13.92C179.84,81.84,176.26,84.07,176.36,85.52Z"/>
            <path class="cls-22" d="M176.9,85.48s4.54,5.24,4.4,11.19a1.65,1.65,0,0,1,.41-.53c-.52-4.07-1.47-8.9-3.35-12.45A4,4,0,0,0,176.9,85.48Z"/>
            <path class="cls-10" d="M180,83.19a2.64,2.64,0,0,0-1.6.5c1.88,3.55,2.83,8.38,3.35,12.45a8.06,8.06,0,0,0,1-1.73S182.08,86.18,180,83.19Z"/>
            <path class="cls-9" d="M180.15,82.71a1.94,1.94,0,0,1-1,2.31c-1.21.7-2.06.75-2.2.56s-.46-.7,1.08-1.94C178.79,83.05,180,82.51,180.15,82.71Z"/>
            <path class="cls-15" d="M180,83c-.12-.16-.84.21-1.6.77a6.87,6.87,0,0,0-1.12,1.1,5.39,5.39,0,0,0,2.41-.83A1.78,1.78,0,0,0,180,83Z"/>
            <path class="cls-16" d="M177.24,84.83c-.25.32-.39.57-.34.65a2.44,2.44,0,0,0,2-.51,2.86,2.86,0,0,0,.79-1A5.39,5.39,0,0,1,177.24,84.83Z"/>
            <path class="cls-23" d="M163.18,101.06a5.52,5.52,0,0,0,4.4,3.34s-5.74,5.48-2.2,15.62C165.38,120,157.23,113.2,163.18,101.06Z"/>
            <path class="cls-23" d="M200.62,101.06s-.74,3.59-3.6,4.46a21.51,21.51,0,0,1,1,19.33A15.26,15.26,0,0,0,204,110.54C202.84,101.91,200.62,101.06,200.62,101.06Z"/>
            <ellipse class="cls-19" cx="197.79" cy="107.52" rx="1.55" ry="2.57" transform="translate(-24.92 74.65) rotate(-20.13)"/>
            <ellipse class="cls-19" cx="199.94" cy="113.41" rx="1.12" ry="1.36" transform="translate(-20.31 47.64) rotate(-12.94)"/>
            <path class="cls-20" d="M176.68,89.66c.46.35.68.82.51,1s-.69.12-1.14-.24-.69-.82-.51-1S176.22,89.3,176.68,89.66Z"/>
            <path class="cls-20" d="M178.63,91.37A.48.48,0,1,1,178,92a.48.48,0,1,1,.67-.67Z"/>
          </g>
          <g>
            <path class="cls-5" d="M172.32,126.31c0,10.62-5.26,20.56-19.61,21.24-13,.62-26.85-6-26.38-21.47.35-12,9.18-21,22.21-21S172.32,114.34,172.32,126.31Z"/>
            <path class="cls-6" d="M170.23,125.18c0,9.83-5.18,17.47-18.52,19.66-12.14,2-25.36-5.6-24.92-19.87.34-11.08,8.67-19.46,21-19.46S170.23,114.1,170.23,125.18Z"/>
            <path class="cls-7" d="M168.13,120.81a17.76,17.76,0,0,0-.86-5.48c-3.89-5.92-11.2-9.82-19.49-9.82-12.32,0-20.65,8.38-21,19.46a19.32,19.32,0,0,0,.8,6.31c4.23,5.81,12.49,7.76,20.92,7.76C160.82,139,168.13,127.89,168.13,120.81Z"/>
            <path class="cls-8" d="M131.36,125.55s0-4.09,2.53-5a13,13,0,0,0,4.62-3.61s1.92-2.15-1.53-5,0-1.94,0-1.94l4.91,4.45s1.8.73,4.19-3.33a11.73,11.73,0,0,1,7.43-5.56l.66.13a9.45,9.45,0,0,0-5.8,7c-.6,3.15,0,1.75,0,1.75a9.13,9.13,0,0,1,4.75.36c2.49,1.22,1.59.92,1.59.92s-5.34-.92-6.63,1.23c-.55.92-.38,3.6.86,5.17s1.44,1.84,1.44,1.84-7.11-3.51-8.92-3.65A10.27,10.27,0,0,0,131.36,125.55Z"/>
            <path class="cls-9" d="M152.64,102.28a41.14,41.14,0,0,0-3,5.67c-.92,2.06-1.85,5.17-1.47,5.8s1.47.21,2.07.14l2.45-.25a25.7,25.7,0,0,0-3.77,2.48,4.09,4.09,0,0,0-.91,3.4c.23,1.07-1.34,1.19-1.34,1.19a5.45,5.45,0,0,1-4-.47c-2.39-1.09-3.69-.88-7.08,0a15,15,0,0,0-7.16,4.05c-.9.88,1.32-2.1,1.32-2.1a29.71,29.71,0,0,1,2.59-2.29c3.16-2.58,4.94-2.77,7.5-3.65.94-.32-.86-2-1.61-3.13a6.24,6.24,0,0,0-2.88-2.17,19,19,0,0,0-3.45-.78,9.9,9.9,0,0,1,5.3-.54,11.46,11.46,0,0,1,3.59,2c1,.7,2.36,2.27,2.91,2.06,1.79-.7,1.61-4,4-6.89A37.46,37.46,0,0,1,152.64,102.28Z"/>
            <path class="cls-10" d="M150.83,104.52s-1.64,2.87-2.3,4.08c-.8,1.47-1.67,5.06-1.29,5.68s1.33.06,1.93,0a2.72,2.72,0,0,1,1.06.1,6.19,6.19,0,0,0-1.74,1.25,4.71,4.71,0,0,0-1.2,3.51c.22,1.07-1.81-.94-1.81-.94.09-.25,0,2.74-2.34,1.44-1.72-1-1.45-1.58-6.48-.31a19.49,19.49,0,0,0-5.19,2s-.19-.34,1.72-1.61a29.09,29.09,0,0,1,7.75-3.17c.75-.24-1-2.27-1.77-3.38-1.13-1.71-4.43-3.15-4.43-3.15s2.64-.51,5.7,1.93c.92.73,3.19,3.75,3.87,2.83.92-1.22,1.85-4.89,3.41-7.09A14.41,14.41,0,0,1,150.83,104.52Z"/>
            <path class="cls-11" d="M146.32,116.1c0-.48-1-.77-2-.65s-2.5,1.56-2.44,2c.14,1.27,1.43,1,2.38.58C146.43,117,146.38,116.58,146.32,116.1Z"/>
            <path class="cls-12" d="M144.94,115.79a11.18,11.18,0,0,1-.85-6.06,11.7,11.7,0,0,1,1.29-3.75s.18-.34-.88-1.58a7.19,7.19,0,0,0-2.27-1,17.13,17.13,0,0,0-.8,6.21,47.81,47.81,0,0,0,1.61,8.09S144.94,118.27,144.94,115.79Z"/>
            <path class="cls-22" d="M143.45,104.84l-1.07-.58a22.08,22.08,0,0,0-.53,4.6,29.24,29.24,0,0,0,.71,5.91C142.32,111.37,142,107.89,143.45,104.84Z"/>
            <path class="cls-10" d="M143.41,110.56a10.56,10.56,0,0,1,1.52-4.92l-1.48-.8c-1.5,3-1.13,6.53-.89,9.93a12.39,12.39,0,0,0,.83,2.52,29.56,29.56,0,0,0,.31-3.1A11.57,11.57,0,0,1,143.41,110.56Z"/>
            <path class="cls-15" d="M142.38,104.26a.43.43,0,0,0,.09.25,9.71,9.71,0,0,0,1.67.23C143.11,103.71,142.4,103.67,142.38,104.26Z"/>
            <path class="cls-16" d="M144.14,104.74a9.71,9.71,0,0,1-1.67-.23,6.49,6.49,0,0,0,2.46,1.13A7.43,7.43,0,0,0,144.14,104.74Z"/>
            <path class="cls-12" d="M142.34,103.89a5.41,5.41,0,0,0,1.26,1.34,6.76,6.76,0,0,0,1.33.43v.27a3.07,3.07,0,0,1-2.22-.72,3.6,3.6,0,0,1-.77-1Z"/>
            <path class="cls-23" d="M134.39,122.72s.62,2,3.63,2.42c0,0-5.08,4.84-2,13.8C136.07,138.94,129.13,133.45,134.39,122.72Z"/>
            <path class="cls-23" d="M160.81,113.37a5,5,0,0,1-1.36,5.44s10.24,6.74,1.73,20.67c0,0,7.91-5.75,6.95-14.15C166.94,114.94,160.81,113.37,160.81,113.37Z"/>
            <ellipse class="cls-19" cx="132.42" cy="129.94" rx="1.02" ry="1.69" transform="translate(-36.64 53.52) rotate(-20.13)"/>
            <path class="cls-21" d="M134,125.37a.81.81,0,1,1-1.55.35.81.81,0,1,1,1.55-.35Z"/>
            <path class="cls-20" d="M148.52,114.86c-.27.15-.46.38-.68.25a.57.57,0,0,1,.56-1C148.62,114.27,148.93,114.63,148.52,114.86Z"/>
            <path class="cls-20" d="M149.88,114.55c-.14.08-.24.2-.36.13a.28.28,0,0,1-.06-.38.27.27,0,0,1,.36-.13C149.94,114.23,150.13,114.39,149.88,114.55Z"/>
          </g>
        </g>
        <g>
          <g>
            <path class="cls-5" d="M313.29,125.39c-.72,13.56-8.19,23.4-26.69,23.53-13.58.1-26.45-10.78-25.67-25.55.72-13.56,13.1-23.56,26.66-22.84S314,111.82,313.29,125.39Z"/>
            <path class="cls-6" d="M311.16,125.06c-.66,12.5-9,20.41-25.18,20.81-12.46.31-24.86-10.38-24.2-22.87s13.1-22.49,25.54-21.84S311.82,112.57,311.16,125.06Z"/>
            <path class="cls-7" d="M309.26,120.12c-.55,10.45-10.13,18.06-25,18.33-11.43.2-22.84-7.06-22.29-17.51s11.9-20.3,23.33-19.88C298,101.52,309.82,109.68,309.26,120.12Z"/>
            <path class="cls-8" d="M280,101.53s.5-.88,2.29.54c2,1.56,4.47,4.73,5.8,3.7,6.23-4.84,9.48-2.9,9.48-2.9s-4.42,1.95-6.11,5.38c-.77,1.55,8.66,1,6.69,7.73a4.59,4.59,0,0,0-1.61-2.57,11.37,11.37,0,0,0-8.71-2.73,9.38,9.38,0,0,0-8.58,9.87s-3.19-9.34,4.59-11a29.84,29.84,0,0,0-6.18-.48c-1.37.1-5.24,1.5-6.69,4.52,0,0,1.7-5.67,6.55-6.32,1.49-.21,4.86-.65,4.86-.65s.28-1.23-1.53-3.93C279.82,101.11,280,101.53,280,101.53Z"/>
            <path class="cls-9" d="M275,100.48s4.43-1.71,7.26,1.09c1.79,1.76,4.49,5.23,5.82,4.2a22,22,0,0,1,13.23-4.52s-9.73,2.59-10.3,6.42c-.26,1.72,10.67.8,8.46,9,0,0-.84-4-3.77-5.27-3.77-1.69-5.92-1.24-8.83-.61-4.27.92-9.54,4-9.38,10.68,0,0-1.44-10.26,6.34-12a13,13,0,0,0-5.38-1.44c-1.37-.1-8.32.85-9.77,3.87a11.8,11.8,0,0,1,9.62-5.82,15.77,15.77,0,0,1,5.4,1.15,25.74,25.74,0,0,0-2.86-4.62C279.19,100.45,275,100.48,275,100.48Z"/>
            <path class="cls-10" d="M279.15,100.76s1.38-.38,4.22,2.42c1.78,1.76,2,5.3,3.63,4,6.14-5,10.31-5,10.31-5s-6.55,2.08-7.19,5.91c-.18,1.09,8.23.94,8.62,5.35a7.42,7.42,0,0,0-2.16-1.86,15.72,15.72,0,0,0-9.72-1.74c-4.26.92-6.08,2.76-8.77,6.36a9.4,9.4,0,0,1,7.55-6.68,16.43,16.43,0,0,0-6.35-2,10.85,10.85,0,0,0-6.89,1.31,8,8,0,0,1,6-2.28,33.87,33.87,0,0,1,6,1.24,28.64,28.64,0,0,0-2.36-4.71C280.67,100.65,279.15,100.76,279.15,100.76Z"/>
            <ellipse class="cls-11" cx="286.93" cy="108.51" rx="2.41" ry="1.57" transform="translate(-19.23 89.22) rotate(-17.11)"/>
            <path class="cls-12" d="M281.79,97.45s3.9,5.07,3.55,11c0,0,2.09,1.37,3.1-.43,0,0-.44-12.67-3-14.09C285.45,94,281.76,96,281.79,97.45Z"/>
            <path class="cls-22" d="M282.33,97.43s4.25,5.47,3.8,11.41a1.67,1.67,0,0,1,.44-.51c-.3-4.09-1-9-2.69-12.6A4,4,0,0,0,282.33,97.43Z"/>
            <path class="cls-10" d="M285.5,95.31a2.61,2.61,0,0,0-1.62.42c1.69,3.64,2.39,8.51,2.69,12.6a8.08,8.08,0,0,0,1-1.67S287.46,98.41,285.5,95.31Z"/>
            <path class="cls-9" d="M285.72,94.84a2,2,0,0,1-1.09,2.26c-1.25.63-2.1.64-2.23.44s-.43-.72,1.18-1.88C284.34,95.11,285.58,94.64,285.72,94.84Z"/>
            <path class="cls-15" d="M285.52,95.08c-.11-.17-.86.16-1.64.68a6.65,6.65,0,0,0-1.18,1,5.43,5.43,0,0,0,2.45-.71A1.89,1.89,0,0,0,285.52,95.08Z"/>
            <path class="cls-16" d="M282.7,96.81c-.26.3-.42.55-.37.62a2.41,2.41,0,0,0,2-.4,2.89,2.89,0,0,0,.84-.93A5.43,5.43,0,0,1,282.7,96.81Z"/>
            <path class="cls-23" d="M267.81,112.27a5.5,5.5,0,0,0,4.21,3.57s-6,5.17-3,15.48C269,131.32,261.22,124.08,267.81,112.27Z"/>
            <path class="cls-23" d="M305.19,114.24s-.93,3.55-3.83,4.27a21.49,21.49,0,0,1,0,19.36,15.27,15.27,0,0,0,6.7-14C307.36,115.21,305.19,114.24,305.19,114.24Z"/>
            <ellipse class="cls-19" cx="302.02" cy="120.55" rx="1.55" ry="2.57" transform="translate(-22.1 94.19) rotate(-17.11)"/>
            <ellipse class="cls-19" cx="303.86" cy="126.54" rx="1.12" ry="1.36" transform="translate(-17.25 54.2) rotate(-9.91)"/>
            <path class="cls-20" d="M281.89,101.6c.43.38.64.86.45,1.07s-.69.09-1.13-.29-.64-.86-.45-1.08S281.45,101.22,281.89,101.6Z"/>
            <path class="cls-20" d="M283.75,103.41a.49.49,0,1,1-.71.64.49.49,0,1,1,.71-.64Z"/>
          </g>
          <g>
            <path class="cls-5" d="M279.24,126.28c-.56,10.61-6.33,20.26-20.69,20.19-13-.08-26.5-7.46-25.22-22.84,1-11.93,10.28-20.5,23.3-19.82S279.88,114.33,279.24,126.28Z"/>
            <path class="cls-6" d="M277.22,125.05c-.51,9.81-6.09,17.18-19.53,18.65-12.23,1.35-25-6.92-23.84-21.15.92-11,9.69-19,22-18.32S277.81,114,277.22,125.05Z"/>
            <path class="cls-7" d="M275.35,120.57a17.67,17.67,0,0,0-.57-5.51c-3.57-6.12-10.66-10.4-18.94-10.83-12.3-.65-21.07,7.27-22,18.32a19.12,19.12,0,0,0,.47,6.34c3.92,6,12.06,8.41,20.47,8.85C267.09,138.39,275,127.64,275.35,120.57Z"/>
            <path class="cls-8" d="M238.38,123.37s.25-4.08,2.8-4.88a13,13,0,0,0,4.8-3.36s2-2-1.27-5.11.07-1.93.07-1.93l4.67,4.7s1.76.83,4.36-3.1a11.71,11.71,0,0,1,7.71-5.16l.65.16a9.45,9.45,0,0,0-6.16,6.7c-.76,3.11-.09,1.75-.09,1.75s2.91-.4,4.72.61c2.42,1.35,1.54,1,1.54,1s-5.28-1.21-6.69.88c-.6.88-.56,3.56.6,5.2s1.33,1.92,1.33,1.92-6.91-3.89-8.71-4.12A10.27,10.27,0,0,0,238.38,123.37Z"/>
            <path class="cls-9" d="M260.86,101.26a40,40,0,0,0-3.34,5.5c-1,2-2.12,5.06-1.78,5.71s1.46.28,2.07.25l2.45-.12a25.56,25.56,0,0,0-3.89,2.27,4.08,4.08,0,0,0-1.09,3.35c.17,1.08-1.4,1.12-1.4,1.12a5.49,5.49,0,0,1-4-.68c-2.33-1.21-3.64-1.07-7.07-.37a15,15,0,0,0-7.37,3.66c-.94.84,1.43-2,1.43-2a30.32,30.32,0,0,1,2.71-2.16c3.3-2.4,5.08-2.5,7.69-3.24,1-.28-.76-2-1.45-3.21a6.22,6.22,0,0,0-2.76-2.32,18.43,18.43,0,0,0-3.41-1,10,10,0,0,1,5.33-.27,11.76,11.76,0,0,1,3.48,2.17c.93.76,2.23,2.4,2.79,2.21,1.83-.6,1.83-3.94,4.31-6.67A37.28,37.28,0,0,1,260.86,101.26Z"/>
            <path class="cls-10" d="M258.94,103.4s-1.79,2.77-2.52,3.95c-.87,1.43-1.93,5-1.59,5.61s1.33.13,1.93.09a2.57,2.57,0,0,1,1.05.16,6.06,6.06,0,0,0-1.79,1.16,4.68,4.68,0,0,0-1.39,3.44c.17,1.08-1.76-1-1.76-1,.11-.25-.18,2.73-2.41,1.31-1.67-1-1.37-1.66-6.46-.65a19.83,19.83,0,0,0-5.29,1.71s-.17-.34,1.81-1.52a29.31,29.31,0,0,1,7.91-2.76c.75-.19-.92-2.31-1.6-3.46-1-1.77-4.25-3.38-4.25-3.38s2.66-.37,5.59,2.22c.88.79,3,3.92,3.72,3,1-1.17,2.1-4.79,3.77-6.91A14.21,14.21,0,0,1,258.94,103.4Z"/>
            <path class="cls-11" d="M253.82,114.72c0-.48-.92-.82-2-.75s-2.57,1.42-2.55,1.9c.08,1.28,1.38,1.1,2.35.7C253.88,115.67,253.85,115.21,253.82,114.72Z"/>
            <path class="cls-12" d="M252.46,114.34a11.17,11.17,0,0,1-.53-6.1,11.69,11.69,0,0,1,1.49-3.67s.19-.33-.8-1.63a7.21,7.21,0,0,0-2.21-1.14,17,17,0,0,0-1.13,6.16,48.47,48.47,0,0,0,1.18,8.17S252.32,116.82,252.46,114.34Z"/>
            <path class="cls-22" d="M251.55,103.32l-1-.63a22.39,22.39,0,0,0-.77,4.56,28.58,28.58,0,0,0,.4,5.94C250.08,109.79,249.89,106.29,251.55,103.32Z"/>
            <path class="cls-10" d="M251.2,109a10.56,10.56,0,0,1,1.79-4.83l-1.44-.89c-1.66,3-1.47,6.47-1.41,9.87a11.94,11.94,0,0,0,.7,2.56s.48-2.49.47-3.08A11.39,11.39,0,0,1,251.2,109Z"/>
            <path class="cls-15" d="M250.51,102.69a.46.46,0,0,0,.08.26,9.51,9.51,0,0,0,1.66.31C251.27,102.18,250.57,102.1,250.51,102.69Z"/>
            <path class="cls-16" d="M252.25,103.26a9.51,9.51,0,0,1-1.66-.31c.43.64,2.4,1.26,2.4,1.26A9.61,9.61,0,0,0,252.25,103.26Z"/>
            <path class="cls-12" d="M250.5,102.32a5.52,5.52,0,0,0,1.18,1.41,7.16,7.16,0,0,0,1.31.5v.26a3.07,3.07,0,0,1-2.19-.84,3.57,3.57,0,0,1-.71-1Z"/>
            <path class="cls-23" d="M241.56,120.7s.51,2,3.49,2.61c0,0-5.32,4.57-2.66,13.68C242.39,137,235.74,131.14,241.56,120.7Z"/>
            <path class="cls-23" d="M268.44,112.76a5,5,0,0,1-1.65,5.36s9.87,7.27.64,20.74c0,0,8.2-5.34,7.68-13.77C274.48,114.66,268.44,112.76,268.44,112.76Z"/>
            <ellipse class="cls-19" cx="239.21" cy="127.81" rx="1.02" ry="1.69" transform="translate(-27.02 76.04) rotate(-17.11)"/>
            <path class="cls-21" d="M241,123.33a.89.89,0,0,1-.62,1.08,1,1,0,0,1-.33-1.89A.9.9,0,0,1,241,123.33Z"/>
            <path class="cls-20" d="M256.09,113.6c-.28.14-.48.36-.69.22a.57.57,0,0,1,.6-.94C256.22,113,256.51,113.39,256.09,113.6Z"/>
            <path class="cls-20" d="M257.46,113.36c-.14.08-.25.19-.36.11a.26.26,0,0,1-.05-.38.28.28,0,0,1,.37-.12C257.53,113.05,257.72,113.22,257.46,113.36Z"/>
          </g>
        </g>
        <g>
          <g>
            <path class="cls-5" d="M380.2,123.68c-.71,13.56-8.19,23.4-26.69,23.54-13.58.09-26.45-10.79-25.67-25.56.72-13.56,13.1-23.55,26.66-22.84S380.92,110.12,380.2,123.68Z"/>
            <path class="cls-6" d="M378.07,123.36c-.66,12.49-9,20.41-25.18,20.81-12.45.31-24.86-10.38-24.2-22.88s13.1-22.49,25.54-21.83S378.73,110.86,378.07,123.36Z"/>
            <path class="cls-7" d="M376.18,118.42c-.56,10.45-10.14,18.06-25,18.32-11.43.21-22.84-7.06-22.29-17.51s11.9-20.29,23.33-19.87C364.9,99.82,376.73,108,376.18,118.42Z"/>
            <path class="cls-8" d="M346.91,99.83s.5-.89,2.29.53c2,1.56,4.47,4.74,5.81,3.7,6.22-4.83,9.47-2.89,9.47-2.89s-4.42,1.94-6.11,5.38c-.76,1.55,8.66,1,6.69,7.73a4.61,4.61,0,0,0-1.6-2.57,11.4,11.4,0,0,0-8.71-2.73,9.36,9.36,0,0,0-8.58,9.87s-3.2-9.34,4.58-11a29.84,29.84,0,0,0-6.18-.48c-1.37.1-5.24,1.5-6.69,4.52,0,0,1.7-5.67,6.55-6.33l4.86-.64s.29-1.23-1.53-3.93C346.73,99.41,346.91,99.83,346.91,99.83Z"/>
            <path class="cls-9" d="M341.92,98.78s4.44-1.71,7.27,1.09c1.78,1.76,4.48,5.23,5.82,4.19a22,22,0,0,1,13.23-4.51s-9.74,2.59-10.31,6.42c-.26,1.71,10.67.8,8.46,9,0,0-.83-4-3.77-5.27-3.77-1.69-5.92-1.24-8.83-.61-4.27.92-9.54,4-9.38,10.67,0,0-1.44-10.25,6.34-12a12.86,12.86,0,0,0-5.38-1.45c-1.37-.09-8.32.86-9.76,3.88a11.77,11.77,0,0,1,9.61-5.83,15.68,15.68,0,0,1,5.4,1.16,25.34,25.34,0,0,0-2.86-4.62C346.1,98.75,341.92,98.78,341.92,98.78Z"/>
            <path class="cls-10" d="M346.06,99.06s1.39-.38,4.22,2.42c1.78,1.76,2,5.3,3.64,4,6.13-5,10.3-5,10.3-5s-6.55,2.08-7.18,5.9c-.19,1.1,8.22,1,8.61,5.36a7.42,7.42,0,0,0-2.16-1.86,15.74,15.74,0,0,0-9.72-1.75c-4.26.93-6.08,2.77-8.77,6.37a9.4,9.4,0,0,1,7.55-6.68,16.23,16.23,0,0,0-6.34-2,10.88,10.88,0,0,0-6.9,1.31,8.08,8.08,0,0,1,6-2.29,34.52,34.52,0,0,1,6,1.25,28.42,28.42,0,0,0-2.36-4.72C347.58,99,346.06,99.06,346.06,99.06Z"/>
            <ellipse class="cls-11" cx="353.84" cy="106.81" rx="2.41" ry="1.57" transform="translate(-15.76 108.83) rotate(-17.11)"/>
            <path class="cls-12" d="M348.7,95.74s3.9,5.08,3.55,11c0,0,2.09,1.37,3.1-.43,0,0-.44-12.67-3-14.1C352.36,92.25,348.68,94.3,348.7,95.74Z"/>
            <path class="cls-22" d="M349.24,95.73s4.26,5.47,3.8,11.41a1.67,1.67,0,0,1,.44-.51c-.3-4.09-1-9-2.69-12.61A4.07,4.07,0,0,0,349.24,95.73Z"/>
            <path class="cls-10" d="M352.42,93.61a2.67,2.67,0,0,0-1.63.41c1.69,3.65,2.39,8.52,2.69,12.61a7.52,7.52,0,0,0,1-1.68S354.38,96.71,352.42,93.61Z"/>
            <path class="cls-9" d="M352.63,93.14a2,2,0,0,1-1.09,2.26c-1.25.62-2.1.64-2.23.43s-.42-.71,1.18-1.87C351.25,93.4,352.49,92.93,352.63,93.14Z"/>
            <path class="cls-15" d="M352.43,93.38c-.11-.17-.86.16-1.64.68a7,7,0,0,0-1.18,1,5.29,5.29,0,0,0,2.45-.7A1.89,1.89,0,0,0,352.43,93.38Z"/>
            <path class="cls-16" d="M349.61,95.1c-.26.3-.42.55-.37.63a2.43,2.43,0,0,0,2-.4,3,3,0,0,0,.83-.93A5.29,5.29,0,0,1,349.61,95.1Z"/>
            <path class="cls-23" d="M334.72,110.56a5.53,5.53,0,0,0,4.22,3.58s-6,5.17-3,15.48C335.92,129.62,328.14,122.38,334.72,110.56Z"/>
            <path class="cls-23" d="M372.1,112.54s-.93,3.55-3.82,4.26a21.55,21.55,0,0,1,0,19.37,15.28,15.28,0,0,0,6.69-14C374.27,113.51,372.1,112.54,372.1,112.54Z"/>
            <ellipse class="cls-19" cx="368.93" cy="118.85" rx="1.55" ry="2.57" transform="translate(-18.64 113.8) rotate(-17.11)"/>
            <ellipse class="cls-19" cx="370.77" cy="124.84" rx="1.12" ry="1.36" transform="translate(-15.96 65.7) rotate(-9.91)"/>
            <path class="cls-20" d="M348.8,99.89c.43.38.64.87.45,1.08s-.69.08-1.13-.29-.64-.86-.45-1.08S348.36,99.52,348.8,99.89Z"/>
            <path class="cls-20" d="M350.66,101.71a.48.48,0,1,1-.74-.12A.54.54,0,0,1,350.66,101.71Z"/>
          </g>
          <g>
            <path class="cls-5" d="M346.16,124.58c-.56,10.61-6.34,20.26-20.7,20.18-13-.07-26.49-7.45-25.22-22.83,1-11.93,10.28-20.51,23.3-19.82S346.79,112.63,346.16,124.58Z"/>
            <path class="cls-6" d="M344.14,123.34c-.52,9.82-6.1,17.18-19.54,18.66-12.23,1.35-25-6.92-23.84-21.16.92-11,9.69-19,22-18.32S344.72,112.28,344.14,123.34Z"/>
            <path class="cls-7" d="M342.26,118.87a17.35,17.35,0,0,0-.57-5.51c-3.57-6.13-10.66-10.4-18.94-10.84-12.3-.65-21.07,7.28-22,18.32a19.42,19.42,0,0,0,.47,6.35c3.92,6,12.06,8.4,20.48,8.85C334,136.69,341.89,125.94,342.26,118.87Z"/>
            <path class="cls-8" d="M305.29,121.66s.25-4.07,2.8-4.88a12.89,12.89,0,0,0,4.8-3.35s2-2.05-1.26-5.11.06-1.94.06-1.94l4.67,4.71s1.76.82,4.36-3.1a11.75,11.75,0,0,1,7.71-5.17l.65.17a9.45,9.45,0,0,0-6.16,6.7c-.76,3.11-.09,1.75-.09,1.75s2.91-.4,4.72.61c2.43,1.35,1.54,1,1.54,1s-5.28-1.2-6.68.88c-.6.89-.57,3.57.59,5.21s1.33,1.91,1.33,1.91-6.91-3.88-8.71-4.12A10.3,10.3,0,0,0,305.29,121.66Z"/>
            <path class="cls-9" d="M327.77,99.56a41.82,41.82,0,0,0-3.34,5.49c-1,2-2.12,5.07-1.78,5.71s1.46.29,2.07.26l2.45-.13a25.85,25.85,0,0,0-3.89,2.28,4,4,0,0,0-1.08,3.35c.17,1.08-1.41,1.12-1.41,1.12a5.49,5.49,0,0,1-4-.68c-2.33-1.22-3.64-1.08-7.07-.38a15,15,0,0,0-7.36,3.67c-.94.84,1.42-2,1.42-2a30.32,30.32,0,0,1,2.71-2.16c3.3-2.4,5.08-2.51,7.69-3.25.95-.27-.75-2-1.45-3.21a6.23,6.23,0,0,0-2.76-2.32,19.06,19.06,0,0,0-3.41-1,10,10,0,0,1,5.33-.26,11.56,11.56,0,0,1,3.48,2.17c.93.75,2.23,2.39,2.79,2.21,1.83-.61,1.83-3.94,4.31-6.67A37.88,37.88,0,0,1,327.77,99.56Z"/>
            <path class="cls-10" d="M325.85,101.7s-1.79,2.77-2.51,4c-.88,1.42-1.94,5-1.59,5.6s1.32.13,1.93.1a2.73,2.73,0,0,1,1.05.15,6.29,6.29,0,0,0-1.8,1.16,4.7,4.7,0,0,0-1.39,3.45c.17,1.08-1.76-1-1.76-1,.11-.24-.17,2.74-2.41,1.32-1.67-1.06-1.37-1.66-6.45-.65a19.65,19.65,0,0,0-5.29,1.71s-.18-.35,1.8-1.52a29.31,29.31,0,0,1,7.91-2.76c.76-.19-.92-2.31-1.59-3.46-1-1.77-4.26-3.38-4.26-3.38s2.66-.37,5.59,2.22c.88.78,3,3.91,3.72,3,1-1.17,2.1-4.79,3.78-6.9A14.28,14.28,0,0,1,325.85,101.7Z"/>
            <path class="cls-11" d="M320.74,113c0-.48-.93-.82-2-.76s-2.57,1.43-2.54,1.91c.07,1.28,1.37,1.09,2.34.7C320.79,114,320.76,113.5,320.74,113Z"/>
            <path class="cls-12" d="M319.37,112.64a11.14,11.14,0,0,1-.52-6.1,11.66,11.66,0,0,1,1.48-3.68s.19-.32-.8-1.62a7.21,7.21,0,0,0-2.21-1.14,16.89,16.89,0,0,0-1.12,6.16,47.74,47.74,0,0,0,1.17,8.17S319.24,115.12,319.37,112.64Z"/>
            <path class="cls-22" d="M318.46,101.62l-1-.64a22.41,22.41,0,0,0-.77,4.57,29.28,29.28,0,0,0,.4,5.94C317,108.09,316.8,104.59,318.46,101.62Z"/>
            <path class="cls-10" d="M318.12,107.33a10.48,10.48,0,0,1,1.78-4.83l-1.44-.88c-1.66,3-1.47,6.47-1.41,9.87a11.94,11.94,0,0,0,.7,2.56s.48-2.49.47-3.08A11.63,11.63,0,0,1,318.12,107.33Z"/>
            <path class="cls-15" d="M317.42,101a.48.48,0,0,0,.09.27,10.42,10.42,0,0,0,1.65.31C318.18,100.48,317.48,100.4,317.42,101Z"/>
            <path class="cls-16" d="M319.16,101.56a10.42,10.42,0,0,1-1.65-.31c.43.64,2.39,1.25,2.39,1.25A9.38,9.38,0,0,0,319.16,101.56Z"/>
            <path class="cls-12" d="M317.41,100.62a5.41,5.41,0,0,0,1.19,1.4,6.22,6.22,0,0,0,1.3.5v.27a3.07,3.07,0,0,1-2.19-.84,3.55,3.55,0,0,1-.71-1Z"/>
            <path class="cls-23" d="M308.47,119s.51,2,3.5,2.6c0,0-5.33,4.57-2.67,13.68C309.3,135.28,302.66,129.44,308.47,119Z"/>
            <path class="cls-23" d="M335.35,111.06a5,5,0,0,1-1.65,5.35s9.87,7.28.64,20.74c0,0,8.2-5.33,7.69-13.76C341.39,113,335.35,111.06,335.35,111.06Z"/>
            <ellipse class="cls-19" cx="306.13" cy="126.11" rx="1.02" ry="1.69" transform="translate(-23.55 95.65) rotate(-17.11)"/>
            <path class="cls-21" d="M307.94,121.63a.89.89,0,0,1-.62,1.08.88.88,0,0,1-.94-.81.81.81,0,1,1,1.56-.27Z"/>
            <path class="cls-20" d="M323,111.9c-.28.13-.48.35-.69.21a.5.5,0,0,1-.08-.71.51.51,0,0,1,.69-.22C323.13,111.32,323.42,111.69,323,111.9Z"/>
            <path class="cls-20" d="M324.38,111.65c-.15.08-.26.19-.37.12a.27.27,0,0,1,0-.38.27.27,0,0,1,.36-.12C324.45,111.35,324.63,111.52,324.38,111.65Z"/>
          </g>
        </g>
        <g>
          <path class="cls-5" d="M242.07,126.72c0,12.64-6.46,22.16-23.65,23.19-12.62.76-25.12-8.73-25.12-22.49,0-12.64,11-22.55,23.66-22.55S242.07,114.08,242.07,126.72Z"/>
          <path class="cls-6" d="M240.07,126.52c0,11.65-7.37,19.42-22.38,20.59-11.56.89-23.62-8.43-23.62-20.08s11.08-21.55,22.67-21.55S240.07,114.88,240.07,126.52Z"/>
          <path class="cls-7" d="M238.07,122c0,9.74-8.54,17.28-22.32,18.26-10.61.75-21.58-5.44-21.58-15.18s10.07-19.46,20.71-19.63C226.68,105.29,238.07,112.29,238.07,122Z"/>
          <path class="cls-8" d="M210,106.18s.43-.84,2.16.39c1.9,1.35,4.38,4.18,5.57,3.15,5.56-4.8,8.67-3.16,8.67-3.16s-4,2-5.41,5.3c-.64,1.49,8.09.47,6.59,6.86a4.32,4.32,0,0,0-1.61-2.31,10.64,10.64,0,0,0-8.24-2.11,8.72,8.72,0,0,0-7.49,9.6s-3.43-8.53,3.73-10.49a27.49,27.49,0,0,0-5.78-.14c-1.26.16-4.8,1.65-6,4.53,0,0,1.3-5.36,5.77-6.2l4.5-.84s.2-1.16-1.62-3.58C209.79,105.8,210,106.18,210,106.18Z"/>
          <path class="cls-9" d="M205.29,105.45s4-1.81,6.81.65c1.75,1.56,4.42,4.65,5.61,3.62a20.52,20.52,0,0,1,12.08-4.85s-8.92,2.89-9.27,6.48c-.15,1.61,10,.22,8.31,8,0,0-1-3.64-3.76-4.72-3.59-1.38-5.56-.86-8.24-.13-3.92,1.07-8.67,4.15-8.19,10.39,0,0-1.85-9.47,5.31-11.43a12.09,12.09,0,0,0-5.08-1.08c-1.27,0-7.69,1.2-8.89,4.08a11,11,0,0,1,8.66-5.88,14.63,14.63,0,0,1,5.07.81,24.23,24.23,0,0,0-2.88-4.16C209.18,105.22,205.29,105.45,205.29,105.45Z"/>
          <path class="cls-10" d="M209.16,105.51s1.26-.42,4,2c1.75,1.55,2.09,4.83,3.58,3.5,5.46-4.9,9.34-5.15,9.34-5.15s-6,2.25-6.4,5.84c-.11,1,7.7.48,8.27,4.56a6.86,6.86,0,0,0-2.1-1.63,14.59,14.59,0,0,0-9.11-1.14c-3.92,1.07-5.52,2.87-7.84,6.34a8.72,8.72,0,0,1,6.69-6.57,15.11,15.11,0,0,0-6-1.56,10.08,10.08,0,0,0-6.35,1.56,7.53,7.53,0,0,1,5.48-2.43,32.2,32.2,0,0,1,5.66.87,27.19,27.19,0,0,0-2.43-4.27C210.56,105.33,209.16,105.51,209.16,105.51Z"/>
          <path class="cls-11" d="M218.85,111.56c.49.64-.44,1.72-1.6,2.15s-2.71.2-2.62-.61c.16-1.4,1.34-1.75,2.14-2C217.93,110.61,218.24,110.75,218.85,111.56Z"/>
          <path class="cls-12" d="M211.44,102.3s3.88,4.52,3.84,10.08c0,0,2,1.17,2.87-.55,0,0-1-11.76-3.47-13C214.68,98.87,211.35,101,211.44,102.3Z"/>
          <path class="cls-13" d="M211.94,102.26s4.06,4.78,3.93,10.32a2.69,2.69,0,0,0,.65-.55,35.06,35.06,0,0,0-3.22-11.44A3.81,3.81,0,0,0,211.94,102.26Z"/>
          <path class="cls-14" d="M214.79,99.91a4.74,4.74,0,0,0-1.49.68A35.06,35.06,0,0,1,216.52,112a4.64,4.64,0,0,0,.79-1.81S217.31,102.53,214.79,99.91Z"/>
          <path class="cls-12" d="M214.94,99.68a1.74,1.74,0,0,1-.9,2.16c-1.11.67-1.92.69-2,.51s-.43-.65,1-1.8C213.68,100,214.81,99.5,214.94,99.68Z"/>
          <path class="cls-15" d="M214.77,99.91c-.11-.15-.79.2-1.49.72a5.64,5.64,0,0,0-1,1,5.11,5.11,0,0,0,2.24-.78A1.71,1.71,0,0,0,214.77,99.91Z"/>
          <path class="cls-16" d="M212.24,101.66c-.24.29-.37.53-.32.6a2.28,2.28,0,0,0,1.83-.47,2.82,2.82,0,0,0,.73-.91A5.11,5.11,0,0,1,212.24,101.66Z"/>
          <path class="cls-17" d="M199.18,116.76a5.12,5.12,0,0,0,4.09,3.11s-5.35,5.11-2.05,14.54C201.22,134.41,193.64,128.07,199.18,116.76Z"/>
          <path class="cls-18" d="M234,116.76s-.69,3.35-3.34,4.15a20,20,0,0,1,.92,18,14.22,14.22,0,0,0,5.54-13.32C236.09,117.55,234,116.76,234,116.76Z"/>
          <ellipse class="cls-19" cx="231.36" cy="122.78" rx="1.44" ry="2.39" transform="translate(-28.12 87.14) rotate(-20.13)"/>
          <ellipse class="cls-19" cx="233.37" cy="128.26" rx="1.05" ry="1.27" transform="translate(-22.79 55.5) rotate(-12.94)"/>
          <path class="cls-20" d="M211.71,106.15c.43.33.64.77.48,1s-.64.11-1.07-.22-.64-.77-.47-1S211.29,105.82,211.71,106.15Z"/>
          <path class="cls-20" d="M213.53,107.74a.45.45,0,1,1-.63.63.45.45,0,1,1,.63-.63Z"/>
        </g>
      </g>
      <g>
        <g>
          <path class="cls-5" d="M88.17,146.45c0,15.79-8.08,27.68-29.56,29-15.76,1-31.38-10.9-31.38-28.1,0-15.79,13.77-28.16,29.56-28.16S88.17,130.66,88.17,146.45Z"/>
          <path class="cls-6" d="M85.67,146.21c0,14.55-9.21,24.25-28,25.71C43.26,173,28.2,161.39,28.2,146.84S42,119.92,56.52,119.92,85.67,131.65,85.67,146.21Z"/>
          <path class="cls-7" d="M83.17,140.59c0,12.17-10.67,21.59-27.89,22.81-13.26.94-27-6.8-27-19s12.58-24.3,25.88-24.51C68.93,119.68,83.17,128.42,83.17,140.59Z"/>
          <path class="cls-8" d="M48.08,120.79s.52-1.06,2.69.48c2.38,1.69,5.47,5.23,7,3.94,6.94-6,10.83-3.94,10.83-3.94s-5,2.53-6.76,6.62c-.8,1.85,10.11.58,8.24,8.57a5.39,5.39,0,0,0-2-2.89,13.29,13.29,0,0,0-10.29-2.64c-4.13.66-10,4.21-9.36,12,0,0-4.28-10.65,4.65-13.11a34.15,34.15,0,0,0-7.21-.17c-1.58.2-6,2.06-7.49,5.65,0,0,1.63-6.69,7.22-7.74l5.61-1s.25-1.44-2-4.47C47.83,120.31,48.08,120.79,48.08,120.79Z"/>
          <path class="cls-9" d="M42.21,119.88s5-2.26,8.51.81c2.18,2,5.52,5.81,7,4.52a25.62,25.62,0,0,1,15.09-6s-11.15,3.6-11.58,8.09c-.19,2,12.45.27,10.38,9.93,0,0-1.21-4.54-4.7-5.89-4.48-1.73-6.94-1.08-10.29-.17-4.9,1.33-10.84,5.19-10.24,13,0,0-2.3-11.82,6.63-14.28a15.21,15.21,0,0,0-6.34-1.35c-1.59,0-9.6,1.51-11.1,5.1a13.7,13.7,0,0,1,10.81-7.35,18.27,18.27,0,0,1,6.35,1A30.32,30.32,0,0,0,49.13,122C47.07,119.59,42.21,119.88,42.21,119.88Z"/>
          <path class="cls-10" d="M47,120s1.58-.53,5,2.55c2.19,1.94,2.62,6,4.47,4.37,6.82-6.12,11.67-6.43,11.67-6.43s-7.49,2.82-8,7.29c-.14,1.29,9.61.6,10.33,5.7a8.38,8.38,0,0,0-2.62-2c-3.56-2-9.13-2.05-11.39-1.43-4.9,1.34-6.9,3.59-9.8,7.93a10.94,10.94,0,0,1,8.36-8.22,19,19,0,0,0-7.49-2,12.66,12.66,0,0,0-7.93,2,9.38,9.38,0,0,1,6.85-3,39.53,39.53,0,0,1,7.06,1.08,32.71,32.71,0,0,0-3-5.33C48.8,119.73,47,120,47,120Z"/>
          <path class="cls-11" d="M59.15,127.51c.61.81-.55,2.15-2,2.68s-3.38.25-3.27-.75c.21-1.76,1.67-2.19,2.67-2.57C58,126.32,58.4,126.5,59.15,127.51Z"/>
          <path class="cls-12" d="M49.9,115.94s4.84,5.65,4.8,12.59c0,0,2.51,1.47,3.57-.68,0,0-1.28-14.69-4.33-16.19C53.94,111.66,49.78,114.26,49.9,115.94Z"/>
          <path class="cls-13" d="M50.53,115.89s5.07,6,4.9,12.9a3.5,3.5,0,0,0,.81-.69c-.59-4.74-1.83-10.16-4-14.29A4.66,4.66,0,0,0,50.53,115.89Z"/>
          <path class="cls-14" d="M54.09,113a5.66,5.66,0,0,0-1.87.85c2.19,4.13,3.43,9.55,4,14.29a5.68,5.68,0,0,0,1-2.26S57.23,116.23,54.09,113Z"/>
          <path class="cls-12" d="M54.27,112.67a2.17,2.17,0,0,1-1.13,2.69c-1.38.85-2.39.87-2.56.65s-.54-.81,1.26-2.26C52.69,113.06,54.1,112.44,54.27,112.67Z"/>
          <path class="cls-15" d="M54.05,113c-.14-.19-1,.24-1.86.89a7.94,7.94,0,0,0-1.3,1.29,6.27,6.27,0,0,0,2.8-1A2.11,2.11,0,0,0,54.05,113Z"/>
          <path class="cls-16" d="M50.89,115.14c-.29.36-.46.66-.4.75a2.89,2.89,0,0,0,2.29-.59,3.6,3.6,0,0,0,.91-1.13A6.27,6.27,0,0,1,50.89,115.14Z"/>
          <path class="cls-17" d="M34.57,134a6.43,6.43,0,0,0,5.12,3.89s-6.68,6.37-2.56,18.16C37.13,156.06,27.65,148.13,34.57,134Z"/>
          <path class="cls-18" d="M78.11,134s-.87,4.18-4.18,5.19a25,25,0,0,1,1.15,22.48A17.77,17.77,0,0,0,82,145C80.69,135,78.11,134,78.11,134Z"/>
          <ellipse class="cls-19" cx="74.78" cy="141.53" rx="1.8" ry="2.99" transform="translate(-44.15 34.39) rotate(-20.13)"/>
          <path class="cls-19" d="M78.56,148.08a1.33,1.33,0,1,1-2.55.58,1.48,1.48,0,0,1,.92-1.84A1.46,1.46,0,0,1,78.56,148.08Z"/>
          <path class="cls-20" d="M50.23,120.75c.54.42.8,1,.6,1.22s-.8.14-1.33-.27-.8-1-.6-1.22S49.7,120.34,50.23,120.75Z"/>
          <path class="cls-20" d="M52.51,122.74a.57.57,0,1,1-.87-.08A.62.62,0,0,1,52.51,122.74Z"/>
        </g>
        <g>
          <path class="cls-5" d="M120.85,154.79c0,10.74-5.32,22.25-22,23.93-18.1,1.83-32.3-6.17-31.76-24.2.42-14,10.73-24.55,26-24.55S120.85,140.8,120.85,154.79Z"/>
          <path class="cls-6" d="M118.41,153.47c0,11.48-6,20.41-21.63,23-14.19,2.32-29.63-6.54-29.12-23.22.4-12.93,10.13-22.72,24.52-22.72S118.41,140.52,118.41,153.47Z"/>
          <path class="cls-7" d="M116,148.36a20.8,20.8,0,0,0-1-6.39c-4.54-6.93-13.08-11.47-22.77-11.47-14.39,0-24.12,9.79-24.52,22.72a22.59,22.59,0,0,0,.94,7.38c4.94,6.78,14.58,9.06,24.43,9.06C107.42,169.66,116,156.64,116,148.36Z"/>
          <path class="cls-8" d="M73,153.9s0-4.77,3-5.87a15.09,15.09,0,0,0,5.39-4.2s2.24-2.52-1.79-5.89,0-2.26,0-2.26l5.73,5.2s2.11.86,4.9-3.89a13.71,13.71,0,0,1,8.68-6.49l.77.15a11,11,0,0,0-6.77,8.2c-.7,3.67,0,2,0,2s3.37-.64,5.54.42c2.91,1.43,1.86,1.08,1.86,1.08s-6.23-1.08-7.74,1.44c-.65,1.07-.44,4.2,1,6S95.17,152,95.17,152s-8.3-4.11-10.42-4.27A12,12,0,0,0,73,153.9Z"/>
          <path class="cls-9" d="M97.86,126.73a48,48,0,0,0-3.56,6.62c-1.08,2.4-2.16,6-1.72,6.77s1.72.24,2.42.17l2.86-.3a29.57,29.57,0,0,0-4.4,2.9,4.71,4.71,0,0,0-1.06,4c.26,1.25-1.57,1.39-1.57,1.39a6.34,6.34,0,0,1-4.68-.55c-2.8-1.27-4.32-1-8.28,0a17.47,17.47,0,0,0-8.36,4.73c-1.05,1,1.54-2.45,1.54-2.45a37,37,0,0,1,3-2.68c3.7-3,5.78-3.23,8.77-4.26,1.1-.38-1-2.34-1.89-3.66a7.26,7.26,0,0,0-3.36-2.53,21.67,21.67,0,0,0-4-.91,11.61,11.61,0,0,1,6.19-.64,13.6,13.6,0,0,1,4.2,2.32c1.13.82,2.75,2.65,3.39,2.4,2.1-.81,1.89-4.71,4.62-8A43.31,43.31,0,0,1,97.86,126.73Z"/>
          <path class="cls-10" d="M95.75,129.34s-1.91,3.34-2.69,4.77c-.94,1.71-2,5.9-1.51,6.63s1.55.07,2.26,0a3.21,3.21,0,0,1,1.23.11,7.37,7.37,0,0,0-2,1.46,5.51,5.51,0,0,0-1.41,4.11c.26,1.25-2.12-1.1-2.12-1.1.12-.29,0,3.2-2.73,1.69-2-1.14-1.69-1.86-7.57-.37A23.1,23.1,0,0,0,73.13,149s-.23-.39,2-1.88c3-2,6.59-2.93,9.06-3.71.87-.27-1.22-2.64-2.08-3.94-1.32-2-5.17-3.68-5.17-3.68S80,135.16,83.6,138c1.09.86,3.73,4.38,4.54,3.31,1.06-1.42,2.15-5.72,4-8.29A16.73,16.73,0,0,1,95.75,129.34Z"/>
          <path class="cls-11" d="M90.48,142.87c-.06-.57-1.13-.91-2.38-.76s-2.91,1.82-2.84,2.38c.16,1.48,1.66,1.19,2.78.67C90.6,144,90.54,143.43,90.48,142.87Z"/>
          <path class="cls-12" d="M88.86,142.5a13,13,0,0,1-1-7.07,13.64,13.64,0,0,1,1.5-4.39s.21-.39-1-1.84A8.23,8.23,0,0,0,85.7,128a19.73,19.73,0,0,0-.93,7.24c.1,3.21,1.87,9.47,1.87,9.47S88.86,145.4,88.86,142.5Z"/>
          <path class="cls-22" d="M87.13,129.71,85.88,129a25.38,25.38,0,0,0-.63,5.37,33.89,33.89,0,0,0,.84,6.91C85.81,137.34,85.37,133.27,87.13,129.71Z"/>
          <path class="cls-10" d="M87.07,136.4a12.31,12.31,0,0,1,1.79-5.75l-1.73-.94c-1.76,3.56-1.32,7.63-1,11.6a13.85,13.85,0,0,0,1,2.94s.41-2.94.36-3.62C87.33,139.32,86.91,139.56,87.07,136.4Z"/>
          <path class="cls-15" d="M85.88,129a.42.42,0,0,0,.11.3,11.88,11.88,0,0,0,1.94.26C86.73,128.39,85.9,128.34,85.88,129Z"/>
          <path class="cls-16" d="M87.93,129.59a11.88,11.88,0,0,1-1.94-.26c.54.72,2.87,1.32,2.87,1.32A11.87,11.87,0,0,0,87.93,129.59Z"/>
          <path class="cls-12" d="M85.83,128.6a6.55,6.55,0,0,0,1.49,1.57,8,8,0,0,0,1.57.5V131a3.63,3.63,0,0,1-2.62-.84,4.24,4.24,0,0,1-.9-1.18Z"/>
          <path class="cls-18" d="M76.54,150.59s.72,2.32,4.24,2.83c0,0-5.93,5.66-2.27,16.12C78.51,169.54,70.4,163.13,76.54,150.59Z"/>
          <path class="cls-18" d="M107.41,139.67a5.88,5.88,0,0,1-1.59,6.36s12,7.87,2,24.15c0,0,9.24-6.72,8.12-16.53C114.57,141.52,107.41,139.67,107.41,139.67Z"/>
          <path class="cls-19" d="M111,150.18c.37,1,.18,2-.44,2.27s-1.42-.42-1.79-1.45-.18-2,.43-2.26S110.63,149.16,111,150.18Z"/>
          <path class="cls-21" d="M106.72,146.49a.94.94,0,1,1-1.15-.89A1,1,0,0,1,106.72,146.49Z"/>
          <path class="cls-20" d="M93.05,141.42c-.32.17-.54.44-.79.29a.6.6,0,0,1-.14-.83.61.61,0,0,1,.79-.3C93.17,140.73,93.53,141.15,93.05,141.42Z"/>
          <path class="cls-20" d="M94.64,141.05c-.16.1-.28.24-.42.16a.35.35,0,0,1,.35-.6C94.71,140.68,94.93,140.87,94.64,141.05Z"/>
        </g>
      </g>
      <g>
        <g>
          <path class="cls-5" d="M203.23,137.68c0,13.58-6.95,23.8-25.42,24.91-13.55.82-27-9.37-27-24.16,0-13.58,11.84-24.22,25.42-24.22S203.23,124.1,203.23,137.68Z"/>
          <path class="cls-6" d="M201.08,137.47c0,12.52-7.92,20.86-24.05,22.11-12.42,1-25.37-9.05-25.37-21.57s11.9-23.14,24.35-23.14S201.08,125,201.08,137.47Z"/>
          <path class="cls-7" d="M198.93,132.64c0,10.46-9.17,18.57-24,19.62-11.4.8-23.18-5.85-23.18-16.31s10.81-20.9,22.25-21.08C186.69,114.66,198.93,122.18,198.93,132.64Z"/>
          <path class="cls-8" d="M168.72,115.62s.46-.91,2.32.41c2,1.46,4.71,4.5,6,3.39,6-5.15,9.31-3.39,9.31-3.39s-4.31,2.18-5.82,5.69c-.68,1.6,8.7.5,7.09,7.37a4.64,4.64,0,0,0-1.74-2.48,11.34,11.34,0,0,0-8.84-2.27A9.37,9.37,0,0,0,169,134.65s-3.69-9.16,4-11.26a29.35,29.35,0,0,0-6.2-.16c-1.36.18-5.16,1.77-6.44,4.87,0,0,1.39-5.75,6.2-6.67l4.83-.89s.22-1.24-1.74-3.85C168.52,115.21,168.72,115.62,168.72,115.62Z"/>
          <path class="cls-9" d="M163.68,114.83s4.34-1.94,7.32.71c1.87,1.66,4.75,5,6,3.88a22.05,22.05,0,0,1,13-5.21s-9.58,3.1-9.95,7c-.17,1.73,10.7.23,8.92,8.54,0,0-1-3.91-4-5.06-3.85-1.49-6-.93-8.85-.15-4.22,1.15-9.32,4.46-8.8,11.16,0,0-2-10.17,5.7-12.27a13,13,0,0,0-5.45-1.17c-1.37,0-8.26,1.3-9.55,4.39a11.8,11.8,0,0,1,9.3-6.32,15.63,15.63,0,0,1,5.45.87,25.82,25.82,0,0,0-3.1-4.47C167.86,114.59,163.68,114.83,163.68,114.83Z"/>
          <path class="cls-10" d="M167.84,114.9s1.36-.46,4.33,2.19c1.88,1.66,2.25,5.19,3.84,3.76,5.87-5.27,10-5.54,10-5.54s-6.43,2.43-6.86,6.28c-.13,1.1,8.26.51,8.88,4.9a7.27,7.27,0,0,0-2.26-1.75,15.66,15.66,0,0,0-9.79-1.23c-4.21,1.15-5.93,3.08-8.42,6.82a9.41,9.41,0,0,1,7.19-7.07,16.38,16.38,0,0,0-6.45-1.67,10.88,10.88,0,0,0-6.82,1.67,8.09,8.09,0,0,1,5.89-2.6,33.49,33.49,0,0,1,6.08.93,28.37,28.37,0,0,0-2.61-4.59C169.35,114.71,167.84,114.9,167.84,114.9Z"/>
          <ellipse class="cls-11" cx="176.01" cy="122.22" rx="2.41" ry="1.57" transform="matrix(0.94, -0.34, 0.34, 0.94, -31.32, 68.05)"/>
          <path class="cls-12" d="M170.29,111.45s4.17,4.86,4.13,10.83c0,0,2.16,1.26,3.07-.59,0,0-1.1-12.64-3.73-13.92C173.76,107.77,170.19,110,170.29,111.45Z"/>
          <path class="cls-22" d="M170.83,111.4s4.54,5.24,4.4,11.2a1.59,1.59,0,0,1,.41-.54c-.52-4.06-1.47-8.89-3.35-12.44A4,4,0,0,0,170.83,111.4Z"/>
          <path class="cls-10" d="M173.89,109.12a2.63,2.63,0,0,0-1.6.5c1.88,3.55,2.83,8.38,3.35,12.44a8.06,8.06,0,0,0,1-1.73S176,112.11,173.89,109.12Z"/>
          <path class="cls-9" d="M174.08,108.64a2,2,0,0,1-1,2.31c-1.21.69-2.06.75-2.2.55s-.46-.69,1.08-1.93C172.72,109,173.93,108.44,174.08,108.64Z"/>
          <path class="cls-15" d="M173.89,108.88c-.12-.16-.84.21-1.6.77a6.92,6.92,0,0,0-1.12,1.11,5.29,5.29,0,0,0,2.41-.84A1.76,1.76,0,0,0,173.89,108.88Z"/>
          <path class="cls-16" d="M171.17,110.76c-.25.31-.39.57-.34.64a2.42,2.42,0,0,0,2-.5,3,3,0,0,0,.79-1A5.29,5.29,0,0,1,171.17,110.76Z"/>
          <path class="cls-23" d="M157.11,127a5.54,5.54,0,0,0,4.4,3.35s-5.74,5.48-2.2,15.62C159.31,146,151.16,139.13,157.11,127Z"/>
          <path class="cls-23" d="M194.55,127s-.75,3.6-3.6,4.46a21.53,21.53,0,0,1,1,19.34,15.3,15.3,0,0,0,6-14.32C196.77,127.83,194.55,127,194.55,127Z"/>
          <ellipse class="cls-19" cx="191.72" cy="133.45" rx="1.55" ry="2.57" transform="translate(-34.22 74.15) rotate(-20.13)"/>
          <ellipse class="cls-19" cx="193.87" cy="139.33" rx="1.12" ry="1.36" transform="translate(-26.27 46.94) rotate(-12.94)"/>
          <path class="cls-20" d="M170.61,115.59c.46.35.68.82.51,1s-.69.12-1.15-.24-.68-.82-.5-1.05S170.15,115.23,170.61,115.59Z"/>
          <path class="cls-20" d="M172.56,117.3a.48.48,0,1,1-.74-.08A.53.53,0,0,1,172.56,117.3Z"/>
        </g>
        <g>
          <path class="cls-5" d="M166.25,152.23c0,10.62-5.26,20.57-19.61,21.25-13,.61-26.85-6-26.39-21.47.36-12,9.19-21,22.22-21S166.25,140.26,166.25,152.23Z"/>
          <path class="cls-6" d="M164.16,151.1c0,9.83-5.18,17.48-18.52,19.66-12.15,2-25.36-5.59-24.92-19.87.34-11.07,8.67-19.45,21-19.45S164.16,140,164.16,151.1Z"/>
          <path class="cls-7" d="M162.06,146.73a17.69,17.69,0,0,0-.86-5.47c-3.89-5.93-11.2-9.82-19.49-9.82-12.32,0-20.65,8.38-21,19.45a19.42,19.42,0,0,0,.8,6.32C125.75,163,134,165,142.43,165,154.75,165,162.06,153.81,162.06,146.73Z"/>
          <path class="cls-8" d="M125.29,151.47s0-4.08,2.53-5a13,13,0,0,0,4.62-3.6s1.92-2.16-1.53-5,0-1.93,0-1.93l4.91,4.45s1.8.73,4.19-3.33a11.73,11.73,0,0,1,7.43-5.56l.66.13a9.43,9.43,0,0,0-5.8,7c-.6,3.14,0,1.75,0,1.75a9.13,9.13,0,0,1,4.75.36c2.49,1.22,1.59.92,1.59.92s-5.34-.93-6.63,1.23c-.56.92-.38,3.59.86,5.17s1.44,1.84,1.44,1.84-7.11-3.52-8.92-3.66A10.31,10.31,0,0,0,125.29,151.47Z"/>
          <path class="cls-9" d="M146.57,128.21a41.14,41.14,0,0,0-3,5.67c-.93,2.05-1.85,5.17-1.48,5.79s1.48.21,2.08.15l2.45-.26A26.58,26.58,0,0,0,142.8,142a4.08,4.08,0,0,0-.91,3.41c.23,1.06-1.34,1.19-1.34,1.19a5.52,5.52,0,0,1-4-.47c-2.39-1.09-3.69-.88-7.08,0a15,15,0,0,0-7.16,4c-.9.89,1.32-2.09,1.32-2.09a30.58,30.58,0,0,1,2.59-2.3c3.16-2.57,4.94-2.77,7.5-3.64.94-.33-.86-2-1.61-3.13a6.24,6.24,0,0,0-2.88-2.17,18.2,18.2,0,0,0-3.46-.78,10,10,0,0,1,5.31-.55,11.49,11.49,0,0,1,3.59,2c1,.7,2.36,2.27,2.91,2.05,1.79-.7,1.61-4,4-6.88A36.84,36.84,0,0,1,146.57,128.21Z"/>
          <path class="cls-10" d="M144.76,130.45s-1.64,2.86-2.3,4.08c-.8,1.47-1.67,5.05-1.29,5.68s1.33.06,1.93,0a2.55,2.55,0,0,1,1.05.09,6.42,6.42,0,0,0-1.73,1.26,4.7,4.7,0,0,0-1.2,3.51c.22,1.07-1.81-.94-1.81-.94.09-.25,0,2.74-2.34,1.44-1.72-1-1.45-1.59-6.48-.31a19.49,19.49,0,0,0-5.19,2s-.19-.34,1.72-1.62a29.09,29.09,0,0,1,7.75-3.17c.75-.23-1-2.26-1.77-3.37-1.14-1.72-4.43-3.15-4.43-3.15s2.64-.51,5.7,1.92c.92.74,3.18,3.75,3.87,2.83.92-1.21,1.85-4.89,3.41-7.09A14.22,14.22,0,0,1,144.76,130.45Z"/>
          <path class="cls-11" d="M140.25,142c-.05-.48-1-.77-2-.65s-2.5,1.56-2.44,2c.14,1.27,1.42,1,2.38.57C140.36,143,140.3,142.51,140.25,142Z"/>
          <path class="cls-12" d="M138.86,141.72a11.23,11.23,0,0,1-.84-6.06,11.7,11.7,0,0,1,1.29-3.75s.18-.34-.88-1.58a7.19,7.19,0,0,0-2.27-1,16.83,16.83,0,0,0-.8,6.2,47.77,47.77,0,0,0,1.61,8.1S138.86,144.2,138.86,141.72Z"/>
          <path class="cls-22" d="M137.38,130.76l-1.07-.58a22.08,22.08,0,0,0-.53,4.6,29.16,29.16,0,0,0,.71,5.91C136.25,137.3,135.88,133.81,137.38,130.76Z"/>
          <path class="cls-10" d="M137.33,136.49a10.58,10.58,0,0,1,1.53-4.92l-1.48-.81c-1.5,3.05-1.13,6.54-.89,9.93a12,12,0,0,0,.83,2.52s.35-2.51.31-3.1A11.64,11.64,0,0,1,137.33,136.49Z"/>
          <path class="cls-15" d="M136.31,130.18a.43.43,0,0,0,.09.26,9.68,9.68,0,0,0,1.67.22C137,129.64,136.33,129.6,136.31,130.18Z"/>
          <path class="cls-16" d="M138.07,130.66a9.68,9.68,0,0,1-1.67-.22,6.49,6.49,0,0,0,2.46,1.13A9.76,9.76,0,0,0,138.07,130.66Z"/>
          <path class="cls-12" d="M136.27,129.82a5.59,5.59,0,0,0,1.26,1.34,6.55,6.55,0,0,0,1.33.43v.27a3.05,3.05,0,0,1-2.22-.73,3.46,3.46,0,0,1-.77-1Z"/>
          <path class="cls-23" d="M128.32,148.64s.61,2,3.63,2.42c0,0-5.08,4.85-1.95,13.8C130,164.86,123.06,159.37,128.32,148.64Z"/>
          <path class="cls-23" d="M154.74,139.29a5,5,0,0,1-1.36,5.44s10.24,6.74,1.73,20.68c0,0,7.91-5.76,6.95-14.15C160.87,140.87,154.74,139.29,154.74,139.29Z"/>
          <ellipse class="cls-19" cx="126.35" cy="155.87" rx="1.02" ry="1.69" transform="translate(-45.93 53.02) rotate(-20.13)"/>
          <path class="cls-21" d="M127.92,151.3a.8.8,0,1,1-1.54.35.8.8,0,1,1,1.54-.35Z"/>
          <path class="cls-20" d="M142.45,140.79c-.27.15-.46.38-.68.25a.52.52,0,0,1-.12-.71.53.53,0,0,1,.68-.26C142.55,140.2,142.86,140.56,142.45,140.79Z"/>
          <path class="cls-20" d="M143.81,140.47c-.14.09-.24.2-.36.14a.28.28,0,0,1-.06-.38.27.27,0,0,1,.36-.14C143.87,140.16,144.06,140.32,143.81,140.47Z"/>
        </g>
      </g>
      <g>
        <g>
          <path class="cls-5" d="M307.22,151.31c-.72,13.56-8.19,23.4-26.69,23.54-13.58.09-26.45-10.79-25.67-25.56.72-13.56,13.1-23.55,26.66-22.84S307.94,137.75,307.22,151.31Z"/>
          <path class="cls-6" d="M305.08,151c-.66,12.49-9,20.41-25.18,20.81-12.45.31-24.85-10.38-24.19-22.88s13.1-22.49,25.54-21.83S305.74,138.49,305.08,151Z"/>
          <path class="cls-7" d="M303.19,146.05c-.55,10.45-10.13,18.06-25,18.32-11.43.21-22.85-7.06-22.29-17.51s11.9-20.29,23.33-19.87C291.92,127.45,303.75,135.6,303.19,146.05Z"/>
          <path class="cls-8" d="M273.93,127.46s.5-.89,2.29.53c2,1.56,4.47,4.74,5.8,3.7,6.23-4.83,9.48-2.9,9.48-2.9s-4.42,2-6.11,5.39c-.77,1.55,8.66,1,6.69,7.72a4.67,4.67,0,0,0-1.61-2.56,11.38,11.38,0,0,0-8.71-2.74,9.39,9.39,0,0,0-8.58,9.88s-3.2-9.34,4.59-11a29.89,29.89,0,0,0-6.19-.48c-1.36.1-5.23,1.5-6.68,4.52,0,0,1.69-5.67,6.55-6.33l4.86-.64s.28-1.23-1.53-3.93C273.75,127,273.93,127.46,273.93,127.46Z"/>
          <path class="cls-9" d="M268.94,126.41s4.43-1.71,7.26,1.09c1.79,1.76,4.49,5.23,5.82,4.19a22,22,0,0,1,13.23-4.51s-9.73,2.59-10.31,6.42c-.25,1.71,10.68.8,8.46,9,0,0-.83-4-3.76-5.27-3.77-1.69-5.92-1.24-8.83-.61-4.27.92-9.54,4-9.38,10.67,0,0-1.45-10.25,6.34-11.95a13,13,0,0,0-5.39-1.45c-1.36-.09-8.31.86-9.76,3.88a11.8,11.8,0,0,1,9.62-5.83,15.68,15.68,0,0,1,5.4,1.16,26.07,26.07,0,0,0-2.86-4.62C273.12,126.38,268.94,126.41,268.94,126.41Z"/>
          <path class="cls-10" d="M273.08,126.69s1.38-.38,4.21,2.42c1.79,1.76,2,5.3,3.64,3.95,6.14-4.95,10.31-5,10.31-5s-6.55,2.08-7.19,5.9c-.18,1.1,8.23.95,8.62,5.36a7.21,7.21,0,0,0-2.17-1.86,15.7,15.7,0,0,0-9.71-1.75c-4.27.93-6.08,2.77-8.77,6.37a9.39,9.39,0,0,1,7.55-6.68,16.24,16.24,0,0,0-6.35-2,10.85,10.85,0,0,0-6.89,1.31,8.07,8.07,0,0,1,6-2.29,34.48,34.48,0,0,1,6,1.25A28.42,28.42,0,0,0,276,129C274.6,126.58,273.08,126.69,273.08,126.69Z"/>
          <ellipse class="cls-11" cx="280.86" cy="134.44" rx="2.41" ry="1.57" transform="translate(-27.12 88.58) rotate(-17.11)"/>
          <path class="cls-12" d="M275.72,123.37s3.9,5.08,3.55,11c0,0,2.09,1.37,3.1-.43,0,0-.44-12.67-3-14.1C279.38,119.88,275.69,121.92,275.72,123.37Z"/>
          <path class="cls-22" d="M276.26,123.36s4.25,5.47,3.8,11.41a1.67,1.67,0,0,1,.44-.51c-.3-4.09-1-9-2.69-12.61A4.07,4.07,0,0,0,276.26,123.36Z"/>
          <path class="cls-10" d="M279.43,121.24a2.64,2.64,0,0,0-1.62.41c1.69,3.65,2.39,8.52,2.69,12.61a7.91,7.91,0,0,0,1-1.68S281.39,124.33,279.43,121.24Z"/>
          <path class="cls-9" d="M279.65,120.77a2,2,0,0,1-1.09,2.26c-1.25.62-2.1.64-2.23.43s-.43-.71,1.18-1.87C278.27,121,279.51,120.56,279.65,120.77Z"/>
          <path class="cls-15" d="M279.45,121c-.11-.16-.86.17-1.64.69a6.61,6.61,0,0,0-1.18,1,5.33,5.33,0,0,0,2.45-.7A1.89,1.89,0,0,0,279.45,121Z"/>
          <path class="cls-16" d="M276.63,122.73c-.26.3-.42.55-.37.63a2.41,2.41,0,0,0,2-.4,2.89,2.89,0,0,0,.84-.93A5.33,5.33,0,0,1,276.63,122.73Z"/>
          <path class="cls-23" d="M261.74,138.19a5.52,5.52,0,0,0,4.21,3.58s-6,5.17-3,15.48C262.93,157.25,255.15,150,261.74,138.19Z"/>
          <path class="cls-23" d="M299.12,140.17s-.93,3.55-3.83,4.26a21.51,21.51,0,0,1,0,19.37,15.28,15.28,0,0,0,6.7-14C301.29,141.13,299.12,140.17,299.12,140.17Z"/>
          <ellipse class="cls-19" cx="295.95" cy="146.48" rx="1.55" ry="2.57" transform="translate(-30 93.55) rotate(-17.11)"/>
          <ellipse class="cls-19" cx="297.79" cy="152.46" rx="1.12" ry="1.36" transform="translate(-21.8 53.55) rotate(-9.91)"/>
          <path class="cls-20" d="M275.81,127.52c.44.38.64.86.46,1.08s-.7.08-1.13-.29-.64-.87-.46-1.08S275.38,127.15,275.81,127.52Z"/>
          <path class="cls-20" d="M277.68,129.34a.55.55,0,0,1,0,.75.6.6,0,0,1-.78-.87A.55.55,0,0,1,277.68,129.34Z"/>
        </g>
        <g>
          <path class="cls-5" d="M273.17,152.21c-.56,10.61-6.33,20.26-20.7,20.18-13-.07-26.49-7.45-25.21-22.83,1-11.93,10.28-20.51,23.3-19.82S273.81,140.26,273.17,152.21Z"/>
          <path class="cls-6" d="M271.15,151c-.52,9.82-6.09,17.18-19.53,18.66-12.23,1.35-25-6.92-23.84-21.16.92-11,9.69-19,22-18.32S271.74,139.91,271.15,151Z"/>
          <path class="cls-7" d="M269.28,146.5a17.64,17.64,0,0,0-.57-5.51c-3.57-6.13-10.66-10.4-18.94-10.84-12.3-.65-21.07,7.28-22,18.32a18.89,18.89,0,0,0,.47,6.35c3.92,6,12.06,8.4,20.47,8.85C261,164.32,268.91,153.57,269.28,146.5Z"/>
          <path class="cls-8" d="M232.31,149.29s.25-4.07,2.8-4.88a13,13,0,0,0,4.8-3.35s2-2.05-1.27-5.11.07-1.94.07-1.94l4.67,4.71s1.76.82,4.36-3.11a11.76,11.76,0,0,1,7.71-5.16l.65.17a9.45,9.45,0,0,0-6.16,6.7c-.76,3.11-.09,1.75-.09,1.75s2.91-.4,4.72.61c2.42,1.35,1.54,1,1.54,1s-5.28-1.2-6.69.88c-.6.89-.56,3.57.6,5.21s1.33,1.91,1.33,1.91-6.91-3.88-8.71-4.12A10.28,10.28,0,0,0,232.31,149.29Z"/>
          <path class="cls-9" d="M254.79,127.18a41.28,41.28,0,0,0-3.34,5.5c-1,2-2.12,5.07-1.78,5.71s1.46.29,2.06.26l2.46-.13a25.85,25.85,0,0,0-3.89,2.28,4.07,4.07,0,0,0-1.09,3.35c.17,1.08-1.4,1.12-1.4,1.12a5.49,5.49,0,0,1-4-.68c-2.33-1.22-3.64-1.08-7.07-.38a15,15,0,0,0-7.37,3.67c-.94.83,1.43-2,1.43-2a30.32,30.32,0,0,1,2.71-2.16c3.29-2.41,5.08-2.51,7.69-3.25.95-.27-.76-2-1.45-3.21a6.26,6.26,0,0,0-2.77-2.32,19,19,0,0,0-3.4-1,10,10,0,0,1,5.32-.26,11.48,11.48,0,0,1,3.49,2.17c.92.75,2.23,2.39,2.79,2.21,1.83-.61,1.83-3.94,4.31-6.67A36.85,36.85,0,0,1,254.79,127.18Z"/>
          <path class="cls-10" d="M252.86,129.33s-1.78,2.77-2.51,3.95c-.88,1.42-1.93,5-1.59,5.6s1.33.13,1.93.1a2.68,2.68,0,0,1,1.05.15,6.32,6.32,0,0,0-1.79,1.16,4.7,4.7,0,0,0-1.39,3.45c.17,1.07-1.76-1-1.76-1,.11-.24-.18,2.74-2.41,1.32-1.67-1.06-1.37-1.66-6.46-.66a20,20,0,0,0-5.29,1.72s-.17-.35,1.81-1.52a29.19,29.19,0,0,1,7.91-2.76c.75-.19-.92-2.32-1.6-3.46-1-1.78-4.25-3.38-4.25-3.38s2.66-.37,5.59,2.22c.88.78,3,3.91,3.72,3,1-1.17,2.1-4.79,3.77-6.9A14.28,14.28,0,0,1,252.86,129.33Z"/>
          <path class="cls-11" d="M247.75,140.65c0-.48-.92-.82-2-.76s-2.58,1.43-2.55,1.91c.08,1.28,1.37,1.09,2.35.7C247.81,141.6,247.78,141.13,247.75,140.65Z"/>
          <path class="cls-12" d="M246.39,140.27a11.19,11.19,0,0,1-.53-6.1,11.81,11.81,0,0,1,1.49-3.68s.19-.32-.8-1.62a7.21,7.21,0,0,0-2.21-1.14,17,17,0,0,0-1.13,6.15,48.47,48.47,0,0,0,1.18,8.18S246.25,142.75,246.39,140.27Z"/>
          <path class="cls-22" d="M245.48,129.25l-1-.64a22.41,22.41,0,0,0-.77,4.57,28.58,28.58,0,0,0,.4,5.94C244,135.72,243.82,132.21,245.48,129.25Z"/>
          <path class="cls-10" d="M245.13,135a10.56,10.56,0,0,1,1.79-4.83l-1.44-.88c-1.66,3-1.47,6.47-1.41,9.87a12.79,12.79,0,0,0,.69,2.56s.49-2.49.48-3.08A11.49,11.49,0,0,1,245.13,135Z"/>
          <path class="cls-15" d="M244.44,128.61a.41.41,0,0,0,.08.27,10.54,10.54,0,0,0,1.66.31C245.2,128.11,244.5,128,244.44,128.61Z"/>
          <path class="cls-16" d="M246.18,129.19a10.54,10.54,0,0,1-1.66-.31c.43.64,2.4,1.25,2.4,1.25A9.38,9.38,0,0,0,246.18,129.19Z"/>
          <path class="cls-12" d="M244.42,128.25a5.63,5.63,0,0,0,1.19,1.4,6.44,6.44,0,0,0,1.31.5l0,.27a3.1,3.1,0,0,1-2.18-.84,3.55,3.55,0,0,1-.71-1.05Z"/>
          <path class="cls-23" d="M235.49,146.63s.51,2,3.49,2.6c0,0-5.32,4.57-2.67,13.68C236.31,162.91,229.67,157.07,235.49,146.63Z"/>
          <path class="cls-23" d="M262.37,138.68a5,5,0,0,1-1.65,5.36s9.87,7.27.64,20.74c0,0,8.2-5.33,7.68-13.76C268.41,140.58,262.37,138.68,262.37,138.68Z"/>
          <ellipse class="cls-19" cx="233.14" cy="153.74" rx="1.02" ry="1.69" transform="translate(-34.91 75.4) rotate(-17.11)"/>
          <path class="cls-21" d="M235,149.25a.81.81,0,1,1-1-.81A.9.9,0,0,1,235,149.25Z"/>
          <path class="cls-20" d="M250,139.53c-.27.13-.47.35-.69.21a.57.57,0,0,1,.61-.93C250.15,139,250.44,139.32,250,139.53Z"/>
          <path class="cls-20" d="M251.39,139.28c-.14.08-.25.19-.36.12A.27.27,0,0,1,251,139a.28.28,0,0,1,.37-.12C251.46,139,251.65,139.14,251.39,139.28Z"/>
        </g>
      </g>
      <g>
        <g>
          <path class="cls-5" d="M374.13,149.61c-.71,13.56-8.19,23.4-26.69,23.53-13.58.1-26.45-10.78-25.67-25.55.72-13.56,13.1-23.56,26.66-22.84S374.85,136.05,374.13,149.61Z"/>
          <path class="cls-6" d="M372,149.28c-.66,12.5-9,20.42-25.18,20.81-12.46.31-24.86-10.38-24.2-22.87s13.1-22.49,25.54-21.83S372.66,136.79,372,149.28Z"/>
          <path class="cls-7" d="M370.11,144.35c-.56,10.45-10.14,18.06-25,18.32-11.43.2-22.84-7.06-22.29-17.51s11.9-20.29,23.33-19.88C358.83,125.74,370.66,133.9,370.11,144.35Z"/>
          <path class="cls-8" d="M340.84,125.75s.5-.88,2.29.54c2,1.56,4.47,4.74,5.8,3.7,6.23-4.83,9.48-2.9,9.48-2.9S354,129,352.3,132.47c-.77,1.56,8.66,1,6.69,7.73a4.64,4.64,0,0,0-1.6-2.57,11.4,11.4,0,0,0-8.71-2.73,9.39,9.39,0,0,0-8.59,9.88s-3.19-9.34,4.59-11a29.54,29.54,0,0,0-6.18-.49c-1.37.11-5.24,1.5-6.69,4.52,0,0,1.7-5.67,6.55-6.32l4.86-.65s.29-1.22-1.53-3.92C340.66,125.33,340.84,125.75,340.84,125.75Z"/>
          <path class="cls-9" d="M335.85,124.7s4.43-1.71,7.27,1.09c1.78,1.77,4.48,5.24,5.81,4.2a22.09,22.09,0,0,1,13.24-4.52s-9.74,2.59-10.31,6.43c-.26,1.71,10.67.79,8.46,9,0,0-.83-3.95-3.77-5.27-3.77-1.69-5.92-1.23-8.83-.61-4.27.92-9.54,4-9.38,10.68,0,0-1.44-10.25,6.34-11.95a12.93,12.93,0,0,0-5.38-1.45c-1.37-.09-8.32.85-9.77,3.87a11.8,11.8,0,0,1,9.62-5.82,15.77,15.77,0,0,1,5.4,1.15,25.5,25.5,0,0,0-2.86-4.61C340,124.68,335.85,124.7,335.85,124.7Z"/>
          <path class="cls-10" d="M340,125s1.39-.39,4.22,2.41c1.78,1.77,2,5.3,3.63,4,6.14-5,10.31-5,10.31-5s-6.55,2.08-7.18,5.91c-.19,1.1,8.22.94,8.61,5.36a7.33,7.33,0,0,0-2.16-1.87A15.72,15.72,0,0,0,347.7,134c-4.26.93-6.08,2.77-8.77,6.36a9.38,9.38,0,0,1,7.55-6.67,16.23,16.23,0,0,0-6.34-2,10.87,10.87,0,0,0-6.9,1.31,8,8,0,0,1,6-2.29,33.54,33.54,0,0,1,6,1.25,28.42,28.42,0,0,0-2.36-4.72C341.51,124.88,340,125,340,125Z"/>
          <ellipse class="cls-11" cx="347.77" cy="132.74" rx="2.41" ry="1.57" transform="translate(-23.66 108.19) rotate(-17.11)"/>
          <path class="cls-12" d="M342.63,121.67s3.9,5.07,3.55,11c0,0,2.09,1.38,3.1-.42,0,0-.44-12.68-3-14.1C346.29,118.18,342.6,120.22,342.63,121.67Z"/>
          <path class="cls-22" d="M343.17,121.66s4.25,5.47,3.8,11.41a1.67,1.67,0,0,1,.44-.51c-.3-4.09-1-9-2.69-12.61A4,4,0,0,0,343.17,121.66Z"/>
          <path class="cls-10" d="M346.35,119.54a2.67,2.67,0,0,0-1.63.41c1.69,3.64,2.39,8.52,2.69,12.61a8,8,0,0,0,1-1.68S348.31,122.63,346.35,119.54Z"/>
          <path class="cls-9" d="M346.56,119.06a2,2,0,0,1-1.09,2.26c-1.25.63-2.1.64-2.23.44s-.43-.72,1.18-1.88C345.18,119.33,346.42,118.86,346.56,119.06Z"/>
          <path class="cls-15" d="M346.36,119.3c-.11-.16-.86.16-1.64.69a6.61,6.61,0,0,0-1.18,1,5.19,5.19,0,0,0,2.45-.71A1.86,1.86,0,0,0,346.36,119.3Z"/>
          <path class="cls-16" d="M343.54,121c-.26.3-.42.55-.37.63a2.47,2.47,0,0,0,2-.4,3.13,3.13,0,0,0,.83-.94A5.19,5.19,0,0,1,343.54,121Z"/>
          <path class="cls-23" d="M328.65,136.49a5.51,5.51,0,0,0,4.22,3.57s-6,5.18-3,15.48C329.85,155.54,322.07,148.31,328.65,136.49Z"/>
          <path class="cls-23" d="M366,138.46s-.93,3.55-3.82,4.27a21.53,21.53,0,0,1,0,19.36,15.27,15.27,0,0,0,6.69-14C368.2,139.43,366,138.46,366,138.46Z"/>
          <ellipse class="cls-19" cx="362.86" cy="144.77" rx="1.55" ry="2.57" transform="translate(-26.53 113.17) rotate(-17.11)"/>
          <ellipse class="cls-19" cx="364.7" cy="150.76" rx="1.12" ry="1.36" transform="translate(-20.51 65.04) rotate(-9.91)"/>
          <path class="cls-20" d="M342.73,125.82c.43.38.64.86.45,1.08s-.69.08-1.13-.3-.64-.86-.45-1.07S342.29,125.44,342.73,125.82Z"/>
          <path class="cls-20" d="M344.59,127.63a.54.54,0,0,1,0,.75.59.59,0,1,1,0-.75Z"/>
        </g>
        <g>
          <path class="cls-5" d="M340.09,150.51c-.56,10.6-6.34,20.26-20.7,20.18-13-.07-26.5-7.45-25.22-22.83,1-11.93,10.28-20.51,23.3-19.82S340.72,138.55,340.09,150.51Z"/>
          <path class="cls-6" d="M338.07,149.27c-.52,9.82-6.1,17.18-19.54,18.66-12.23,1.34-25-6.93-23.84-21.16.92-11,9.69-19,22-18.32S338.65,138.21,338.07,149.27Z"/>
          <path class="cls-7" d="M336.19,144.79a17.7,17.7,0,0,0-.57-5.51c-3.57-6.12-10.66-10.39-18.94-10.83-12.3-.65-21.07,7.28-22,18.32a19.47,19.47,0,0,0,.47,6.35c3.92,6,12.06,8.4,20.48,8.84C327.94,162.61,335.82,151.87,336.19,144.79Z"/>
          <path class="cls-8" d="M299.22,147.59s.25-4.08,2.8-4.88a13,13,0,0,0,4.8-3.35s2-2.06-1.26-5.12.06-1.93.06-1.93l4.67,4.71s1.76.82,4.36-3.11a11.71,11.71,0,0,1,7.71-5.16l.65.16a9.45,9.45,0,0,0-6.16,6.71c-.76,3.11-.09,1.74-.09,1.74a9.2,9.2,0,0,1,4.72.61c2.43,1.36,1.54,1,1.54,1s-5.28-1.21-6.68.88c-.6.89-.57,3.57.59,5.2s1.33,1.92,1.33,1.92-6.91-3.89-8.71-4.12A10.3,10.3,0,0,0,299.22,147.59Z"/>
          <path class="cls-9" d="M321.7,125.48a41.74,41.74,0,0,0-3.34,5.5c-1,2-2.12,5.06-1.78,5.71s1.46.29,2.07.26l2.45-.13a25,25,0,0,0-3.89,2.28,4,4,0,0,0-1.08,3.35c.17,1.07-1.41,1.12-1.41,1.12a5.47,5.47,0,0,1-4-.69c-2.33-1.21-3.64-1.07-7.07-.37a14.93,14.93,0,0,0-7.36,3.66c-.94.84,1.42-2,1.42-2a32.81,32.81,0,0,1,2.71-2.16c3.3-2.4,5.08-2.5,7.69-3.24.95-.27-.75-2.05-1.45-3.21a6.22,6.22,0,0,0-2.76-2.32,18.43,18.43,0,0,0-3.41-1,10,10,0,0,1,5.33-.26,11.36,11.36,0,0,1,3.48,2.17c.93.75,2.23,2.39,2.79,2.2,1.83-.6,1.83-3.94,4.31-6.66A37.44,37.44,0,0,1,321.7,125.48Z"/>
          <path class="cls-10" d="M319.78,127.62s-1.79,2.77-2.51,3.95c-.88,1.43-1.94,5-1.59,5.61s1.32.13,1.93.1a2.66,2.66,0,0,1,1,.15,6.32,6.32,0,0,0-1.79,1.16,4.7,4.7,0,0,0-1.39,3.44c.17,1.08-1.76-1-1.76-1,.11-.24-.17,2.73-2.41,1.32-1.67-1.06-1.37-1.67-6.45-.66a19.65,19.65,0,0,0-5.29,1.71s-.18-.34,1.8-1.52a28.91,28.91,0,0,1,7.91-2.75c.76-.2-.92-2.32-1.59-3.47-1-1.77-4.26-3.37-4.26-3.37s2.66-.38,5.59,2.22c.88.78,3,3.91,3.72,3,1-1.17,2.1-4.79,3.78-6.9A14,14,0,0,1,319.78,127.62Z"/>
          <path class="cls-11" d="M314.66,139c0-.49-.92-.83-2-.76s-2.57,1.42-2.54,1.91c.07,1.27,1.37,1.09,2.34.7C314.72,139.89,314.69,139.43,314.66,139Z"/>
          <path class="cls-12" d="M313.3,138.56a11.09,11.09,0,0,1-.52-6.09,11.66,11.66,0,0,1,1.48-3.68s.19-.33-.8-1.62a7,7,0,0,0-2.21-1.14,17,17,0,0,0-1.13,6.15,48.29,48.29,0,0,0,1.18,8.17S313.17,141,313.3,138.56Z"/>
          <path class="cls-22" d="M312.39,127.55l-1-.64a22.39,22.39,0,0,0-.77,4.56,29.37,29.37,0,0,0,.4,5.95C310.92,134,310.73,130.51,312.39,127.55Z"/>
          <path class="cls-10" d="M312.05,133.26a10.48,10.48,0,0,1,1.78-4.83l-1.44-.88c-1.66,3-1.47,6.46-1.41,9.87a12.28,12.28,0,0,0,.7,2.56s.48-2.5.47-3.09A11.53,11.53,0,0,1,312.05,133.26Z"/>
          <path class="cls-15" d="M311.35,126.91a.45.45,0,0,0,.09.26,9.4,9.4,0,0,0,1.65.31C312.11,126.4,311.41,126.32,311.35,126.91Z"/>
          <path class="cls-16" d="M313.09,127.48a9.4,9.4,0,0,1-1.65-.31c.42.64,2.39,1.26,2.39,1.26A9.61,9.61,0,0,0,313.09,127.48Z"/>
          <path class="cls-12" d="M311.34,126.54a5.52,5.52,0,0,0,1.18,1.41,7.16,7.16,0,0,0,1.31.5v.27a3.1,3.1,0,0,1-2.19-.85,3.44,3.44,0,0,1-.71-1Z"/>
          <path class="cls-23" d="M302.4,144.92s.51,2,3.5,2.61c0,0-5.33,4.57-2.67,13.68C303.23,161.21,296.58,155.36,302.4,144.92Z"/>
          <path class="cls-23" d="M329.28,137a5,5,0,0,1-1.65,5.36s9.87,7.27.64,20.74c0,0,8.2-5.33,7.69-13.77C335.32,138.88,329.28,137,329.28,137Z"/>
          <ellipse class="cls-19" cx="300.05" cy="152.03" rx="1.02" ry="1.69" transform="translate(-31.45 95.01) rotate(-17.11)"/>
          <path class="cls-21" d="M301.87,147.55a.9.9,0,0,1-.62,1.09.89.89,0,0,1-.94-.82.88.88,0,0,1,.61-1.08A.89.89,0,0,1,301.87,147.55Z"/>
          <path class="cls-20" d="M316.93,137.82c-.28.14-.48.36-.69.22a.51.51,0,0,1-.08-.72.52.52,0,0,1,.69-.22C317.06,137.24,317.35,137.62,316.93,137.82Z"/>
          <path class="cls-20" d="M318.31,137.58c-.15.08-.26.19-.37.12a.29.29,0,0,1,0-.39.26.26,0,0,1,.36-.11C318.38,137.27,318.56,137.44,318.31,137.58Z"/>
        </g>
      </g>
      <g>
        <path class="cls-5" d="M236,152.65c0,12.64-6.46,22.15-23.65,23.18-12.62.76-25.12-8.72-25.12-22.49,0-12.64,11-22.54,23.66-22.54S236,140,236,152.65Z"/>
        <path class="cls-6" d="M234,152.45c0,11.65-7.37,19.42-22.38,20.58C200.06,173.93,188,164.6,188,153s11.08-21.54,22.67-21.54S234,140.8,234,152.45Z"/>
        <path class="cls-7" d="M232,148c0,9.74-8.54,17.29-22.32,18.26-10.61.75-21.58-5.44-21.58-15.18s10.07-19.45,20.71-19.62C220.61,131.22,232,138.21,232,148Z"/>
        <path class="cls-8" d="M203.91,132.11s.43-.85,2.16.38c1.9,1.36,4.38,4.19,5.57,3.16,5.56-4.8,8.67-3.16,8.67-3.16s-4,2-5.42,5.3c-.63,1.48,8.1.47,6.6,6.86a4.27,4.27,0,0,0-1.62-2.31,10.53,10.53,0,0,0-8.23-2.11,8.72,8.72,0,0,0-7.49,9.6s-3.43-8.53,3.72-10.49a27.38,27.38,0,0,0-5.77-.14c-1.26.16-4.8,1.65-6,4.52,0,0,1.31-5.35,5.78-6.2l4.49-.83s.21-1.16-1.61-3.58C203.72,131.72,203.91,132.11,203.91,132.11Z"/>
        <path class="cls-9" d="M199.22,131.38s4-1.81,6.81.65c1.75,1.55,4.42,4.65,5.61,3.62a20.52,20.52,0,0,1,12.08-4.85s-8.92,2.88-9.27,6.48c-.15,1.6,10,.21,8.31,7.94,0,0-1-3.63-3.76-4.71-3.59-1.38-5.56-.86-8.24-.13-3.92,1.06-8.67,4.15-8.19,10.38,0,0-1.85-9.46,5.3-11.42a12,12,0,0,0-5.07-1.08c-1.28,0-7.69,1.2-8.89,4.08a11,11,0,0,1,8.66-5.89,14.63,14.63,0,0,1,5.07.81,24,24,0,0,0-2.88-4.15C203.1,131.15,199.22,131.38,199.22,131.38Z"/>
        <path class="cls-10" d="M203.09,131.43s1.26-.42,4,2c1.75,1.56,2.09,4.84,3.58,3.5,5.46-4.9,9.33-5.15,9.33-5.15s-6,2.26-6.39,5.85c-.11,1,7.7.47,8.27,4.55a6.77,6.77,0,0,0-2.1-1.62,14.6,14.6,0,0,0-9.11-1.15c-3.92,1.08-5.52,2.87-7.85,6.35a8.76,8.76,0,0,1,6.7-6.58,15.18,15.18,0,0,0-6-1.55,10.11,10.11,0,0,0-6.35,1.55,7.5,7.5,0,0,1,5.48-2.42,31.21,31.21,0,0,1,5.66.87,27.19,27.19,0,0,0-2.43-4.27C204.49,131.26,203.09,131.43,203.09,131.43Z"/>
        <path class="cls-11" d="M212.78,137.48c.49.65-.44,1.73-1.6,2.15s-2.71.2-2.62-.6c.16-1.41,1.34-1.75,2.14-2.06C211.86,136.53,212.17,136.68,212.78,137.48Z"/>
        <path class="cls-12" d="M205.37,128.22s3.88,4.53,3.84,10.09c0,0,2,1.17,2.86-.55,0,0-1-11.76-3.46-13C208.61,124.8,205.28,126.88,205.37,128.22Z"/>
        <path class="cls-13" d="M205.87,128.18s4.06,4.79,3.93,10.33a2.92,2.92,0,0,0,.65-.56,35.07,35.07,0,0,0-3.22-11.43A3.83,3.83,0,0,0,205.87,128.18Z"/>
        <path class="cls-14" d="M208.72,125.84a4.48,4.48,0,0,0-1.49.68A35.07,35.07,0,0,1,210.45,138a4.52,4.52,0,0,0,.79-1.8S211.24,128.45,208.72,125.84Z"/>
        <path class="cls-12" d="M208.87,125.61a1.73,1.73,0,0,1-.9,2.15c-1.11.68-1.92.7-2.05.52s-.43-.65,1-1.81C207.61,125.92,208.74,125.42,208.87,125.61Z"/>
        <path class="cls-15" d="M208.7,125.84c-.11-.15-.79.19-1.49.72a6,6,0,0,0-1.05,1,4.89,4.89,0,0,0,2.24-.77A1.7,1.7,0,0,0,208.7,125.84Z"/>
        <path class="cls-16" d="M206.16,127.58c-.23.29-.36.54-.31.6a2.22,2.22,0,0,0,1.82-.47,2.66,2.66,0,0,0,.73-.9A4.89,4.89,0,0,1,206.16,127.58Z"/>
        <path class="cls-17" d="M193.1,142.69a5.15,5.15,0,0,0,4.1,3.11s-5.35,5.1-2,14.54C195.15,160.34,187.57,154,193.1,142.69Z"/>
        <path class="cls-18" d="M228,142.69s-.69,3.34-3.34,4.15a20,20,0,0,1,.92,18,14.23,14.23,0,0,0,5.54-13.33C230,143.48,228,142.69,228,142.69Z"/>
        <ellipse class="cls-19" cx="225.29" cy="148.71" rx="1.44" ry="2.39" transform="translate(-37.42 86.63) rotate(-20.13)"/>
        <ellipse class="cls-19" cx="227.3" cy="154.18" rx="1.05" ry="1.27" transform="translate(-28.75 54.8) rotate(-12.94)"/>
        <path class="cls-20" d="M205.64,132.08c.43.33.64.77.48,1s-.64.11-1.07-.22-.64-.77-.47-1S205.22,131.75,205.64,132.08Z"/>
        <path class="cls-20" d="M207.46,133.67a.45.45,0,1,1-.69-.07A.5.5,0,0,1,207.46,133.67Z"/>
      </g>
      <g>
        <path class="cls-5" d="M155.71,97.17c0,12.64-6.46,22.16-23.66,23.19-12.62.76-25.11-8.73-25.11-22.49,0-12.64,11-22.55,23.65-22.55S155.71,84.53,155.71,97.17Z"/>
        <path class="cls-6" d="M153.71,97c0,11.65-7.37,19.42-22.39,20.59-11.56.89-23.61-8.43-23.61-20.08s11.07-21.55,22.67-21.55S153.71,85.33,153.71,97Z"/>
        <path class="cls-7" d="M151.71,92.48c0,9.74-8.54,17.28-22.32,18.26-10.61.75-21.58-5.44-21.58-15.18s10.07-19.46,20.71-19.63C140.31,75.74,151.71,82.74,151.71,92.48Z"/>
        <path class="cls-17" d="M112.81,87.21a5.12,5.12,0,0,0,4.1,3.11s-5.35,5.11-2,14.54C114.86,104.86,107.27,98.52,112.81,87.21Z"/>
        <path class="cls-18" d="M147.66,87.21s-.69,3.35-3.35,4.15a20,20,0,0,1,.92,18A14.2,14.2,0,0,0,150.77,96C149.72,88,147.66,87.21,147.66,87.21Z"/>
        <ellipse class="cls-19" cx="144.99" cy="93.23" rx="1.44" ry="2.39" transform="translate(-23.23 55.61) rotate(-20.13)"/>
        <ellipse class="cls-19" cx="147" cy="98.71" rx="1.05" ry="1.27" transform="translate(-18.37 35.42) rotate(-12.94)"/>
        <path class="cls-20" d="M125.35,76.6c.42.33.63.77.47,1s-.64.11-1.06-.22-.64-.77-.48-1S124.92,76.27,125.35,76.6Z"/>
        <path class="cls-20" d="M127.17,78.19a.45.45,0,1,1-.7-.06A.5.5,0,0,1,127.17,78.19Z"/>
      </g>
      <g>
        <path class="cls-5" d="M243.3,87.93c0,12.64-6.46,22.15-23.65,23.18-12.62.76-25.12-8.72-25.12-22.49,0-12.64,11-22.54,23.66-22.54S243.3,75.28,243.3,87.93Z"/>
        <path class="cls-6" d="M241.3,87.73c0,11.65-7.37,19.42-22.38,20.58-11.56.9-23.62-8.43-23.62-20.08S206.38,66.69,218,66.69,241.3,76.08,241.3,87.73Z"/>
        <path class="cls-7" d="M239.3,83.23c0,9.74-8.54,17.29-22.32,18.26-10.61.75-21.58-5.44-21.58-15.18s10.07-19.45,20.71-19.62C227.91,66.49,239.3,73.49,239.3,83.23Z"/>
        <path class="cls-8" d="M211.21,67.39s.43-.85,2.16.38c1.9,1.36,4.38,4.18,5.57,3.15,5.56-4.79,8.67-3.15,8.67-3.15s-4,2-5.42,5.3c-.63,1.48,8.1.47,6.6,6.85a4.27,4.27,0,0,0-1.62-2.3,10.58,10.58,0,0,0-8.23-2.12,8.74,8.74,0,0,0-7.49,9.6s-3.43-8.52,3.72-10.48a27.82,27.82,0,0,0-5.77-.15c-1.26.16-4.8,1.65-6,4.53,0,0,1.31-5.35,5.78-6.2l4.49-.84s.21-1.15-1.61-3.57C211,67,211.21,67.39,211.21,67.39Z"/>
        <path class="cls-9" d="M206.52,66.66s4-1.81,6.81.65c1.75,1.55,4.42,4.64,5.61,3.61A20.55,20.55,0,0,1,231,66.08s-8.92,2.88-9.27,6.47c-.15,1.61,10,.22,8.31,8,0,0-1-3.63-3.76-4.71-3.59-1.39-5.56-.86-8.24-.13-3.92,1.06-8.67,4.14-8.19,10.38,0,0-1.85-9.46,5.3-11.42a12,12,0,0,0-5.07-1.08c-1.28,0-7.69,1.2-8.89,4.08a11,11,0,0,1,8.66-5.89,14.63,14.63,0,0,1,5.07.81,24,24,0,0,0-2.88-4.15C210.4,66.42,206.52,66.66,206.52,66.66Z"/>
        <path class="cls-10" d="M210.39,66.71s1.26-.42,4,2c1.75,1.56,2.09,4.83,3.58,3.5,5.46-4.9,9.33-5.15,9.33-5.15s-6,2.26-6.39,5.84c-.11,1,7.7.48,8.27,4.56a6.77,6.77,0,0,0-2.1-1.62A14.6,14.6,0,0,0,218,74.73c-3.92,1.07-5.52,2.87-7.85,6.35a8.76,8.76,0,0,1,6.7-6.58,15.3,15.3,0,0,0-6-1.56,10.21,10.21,0,0,0-6.35,1.56A7.5,7.5,0,0,1,210,72.08a31.76,31.76,0,0,1,5.66.86,27.19,27.19,0,0,0-2.43-4.27C211.79,66.54,210.39,66.71,210.39,66.71Z"/>
        <path class="cls-11" d="M220.08,72.76c.49.65-.44,1.72-1.61,2.15s-2.7.2-2.61-.6c.16-1.41,1.33-1.75,2.14-2.06C219.16,71.81,219.47,72,220.08,72.76Z"/>
        <path class="cls-12" d="M212.67,63.5s3.88,4.53,3.84,10.08c0,0,2,1.18,2.86-.55,0,0-1-11.75-3.47-13C215.9,60.08,212.58,62.16,212.67,63.5Z"/>
        <path class="cls-13" d="M213.17,63.46s4.06,4.79,3.93,10.33a2.92,2.92,0,0,0,.65-.56,34.93,34.93,0,0,0-3.22-11.43A3.83,3.83,0,0,0,213.17,63.46Z"/>
        <path class="cls-14" d="M216,61.12a4.48,4.48,0,0,0-1.49.68,34.93,34.93,0,0,1,3.22,11.43,4.58,4.58,0,0,0,.79-1.81S218.54,63.73,216,61.12Z"/>
        <path class="cls-12" d="M216.17,60.89a1.73,1.73,0,0,1-.9,2.15c-1.11.68-1.92.7-2.05.52s-.43-.65,1-1.81C214.91,61.2,216,60.7,216.17,60.89Z"/>
        <path class="cls-15" d="M216,61.12c-.11-.15-.79.19-1.49.71a6.42,6.42,0,0,0-1,1,4.79,4.79,0,0,0,2.24-.78A1.66,1.66,0,0,0,216,61.12Z"/>
        <path class="cls-16" d="M213.46,62.86c-.23.29-.36.53-.31.6A2.26,2.26,0,0,0,215,63a2.72,2.72,0,0,0,.73-.91A4.79,4.79,0,0,1,213.46,62.86Z"/>
        <path class="cls-17" d="M200.4,78a5.15,5.15,0,0,0,4.1,3.12s-5.35,5.1-2.05,14.54C202.45,95.62,194.87,89.27,200.4,78Z"/>
        <path class="cls-18" d="M235.25,78s-.69,3.35-3.34,4.16a20,20,0,0,1,.92,18,14.23,14.23,0,0,0,5.54-13.33C237.32,78.76,235.25,78,235.25,78Z"/>
        <ellipse class="cls-19" cx="232.59" cy="83.99" rx="1.44" ry="2.39" transform="translate(-14.7 85.19) rotate(-20.13)"/>
        <ellipse class="cls-19" cx="234.6" cy="89.46" rx="1.05" ry="1.27" transform="translate(-14.07 54.79) rotate(-12.94)"/>
        <path class="cls-20" d="M212.94,67.35c.43.34.64.77.47,1s-.64.11-1.06-.22-.64-.76-.47-1S212.52,67,212.94,67.35Z"/>
        <path class="cls-20" d="M214.76,69a.5.5,0,0,1,.07.69.55.55,0,0,1-.76-.76A.5.5,0,0,1,214.76,69Z"/>
      </g>
      <g>
        <path class="cls-5" d="M289.29,94c0,12.64-6.46,22.15-23.66,23.19-12.62.75-25.11-8.73-25.11-22.5,0-12.64,11-22.54,23.65-22.54S289.29,81.37,289.29,94Z"/>
        <path class="cls-6" d="M287.29,93.81c0,11.65-7.37,19.42-22.39,20.58-11.56.9-23.61-8.43-23.61-20.07S252.36,72.77,264,72.77,287.29,82.16,287.29,93.81Z"/>
        <path class="cls-7" d="M285.29,89.32c0,9.74-8.54,17.28-22.32,18.25-10.61.75-21.58-5.44-21.58-15.18s10.07-19.45,20.71-19.62C273.89,72.58,285.29,79.58,285.29,89.32Z"/>
        <path class="cls-17" d="M246.39,84.05a5.12,5.12,0,0,0,4.1,3.11s-5.35,5.11-2.05,14.54C248.44,101.7,240.85,95.35,246.39,84.05Z"/>
        <path class="cls-18" d="M281.24,84.05s-.69,3.34-3.35,4.15a20,20,0,0,1,.93,18,14.21,14.21,0,0,0,5.53-13.33C283.3,84.84,281.24,84.05,281.24,84.05Z"/>
        <ellipse class="cls-19" cx="278.57" cy="90.07" rx="1.44" ry="2.39" transform="translate(-13.98 101.39) rotate(-20.13)"/>
        <ellipse class="cls-19" cx="280.58" cy="95.54" rx="1.05" ry="1.27" transform="translate(-14.27 65.24) rotate(-12.94)"/>
        <path class="cls-20" d="M258.93,73.44c.42.33.63.77.47,1s-.64.11-1.06-.22-.64-.77-.48-1S258.5,73.11,258.93,73.44Z"/>
        <path class="cls-20" d="M260.75,75a.45.45,0,1,1-.63.63.45.45,0,1,1,.63-.63Z"/>
      </g>
      <g>
        <path class="cls-5" d="M333.33,92.06c0,12.64-6.46,22.16-23.66,23.19-12.61.76-25.11-8.73-25.11-22.49,0-12.64,11-22.55,23.66-22.55S333.33,79.42,333.33,92.06Z"/>
        <path class="cls-6" d="M331.33,91.87c0,11.64-7.37,19.41-22.39,20.58-11.56.89-23.61-8.43-23.61-20.08S296.4,70.82,308,70.82,331.33,80.22,331.33,91.87Z"/>
        <path class="cls-7" d="M329.33,87.37c0,9.74-8.54,17.28-22.32,18.26-10.61.75-21.58-5.44-21.58-15.18S295.5,71,306.14,70.82C317.93,70.63,329.33,77.63,329.33,87.37Z"/>
        <path class="cls-17" d="M290.43,82.1a5.12,5.12,0,0,0,4.1,3.11s-5.35,5.11-2,14.54C292.48,99.75,284.89,93.41,290.43,82.1Z"/>
        <path class="cls-18" d="M325.28,82.1s-.69,3.35-3.35,4.15a20,20,0,0,1,.93,18,14.2,14.2,0,0,0,5.53-13.32C327.34,82.89,325.28,82.1,325.28,82.1Z"/>
        <ellipse class="cls-19" cx="322.61" cy="88.12" rx="1.44" ry="2.39" transform="translate(-10.62 116.43) rotate(-20.13)"/>
        <ellipse class="cls-19" cx="324.62" cy="93.6" rx="1.05" ry="1.27" transform="translate(-12.71 75.05) rotate(-12.94)"/>
        <path class="cls-20" d="M303,71.49c.42.33.63.77.47,1s-.64.11-1.06-.22-.64-.77-.48-1S302.54,71.16,303,71.49Z"/>
        <path class="cls-20" d="M304.79,73.08a.45.45,0,1,1-.7-.06A.5.5,0,0,1,304.79,73.08Z"/>
      </g>
      <g>
        <path class="cls-5" d="M116.53,86.22c0,12.64-6.46,22.16-23.65,23.19-12.62.76-25.12-8.73-25.12-22.49,0-12.64,11-22.55,23.66-22.55S116.53,73.58,116.53,86.22Z"/>
        <path class="cls-6" d="M114.53,86c0,11.64-7.37,19.41-22.38,20.58-11.56.89-23.62-8.43-23.62-20.08S79.61,65,91.2,65,114.53,74.38,114.53,86Z"/>
        <path class="cls-7" d="M112.53,81.53c0,9.74-8.53,17.28-22.32,18.26-10.61.75-21.58-5.44-21.58-15.18S78.7,65.16,89.35,65C101.14,64.79,112.53,71.79,112.53,81.53Z"/>
        <path class="cls-17" d="M73.64,76.26a5.14,5.14,0,0,0,4.09,3.12s-5.34,5.1-2,14.53C75.68,93.91,68.1,87.57,73.64,76.26Z"/>
        <path class="cls-18" d="M108.48,76.26s-.69,3.35-3.34,4.15a20,20,0,0,1,.92,18,14.22,14.22,0,0,0,5.54-13.32C110.55,77.05,108.48,76.26,108.48,76.26Z"/>
        <ellipse class="cls-19" cx="105.82" cy="82.28" rx="1.44" ry="2.39" transform="matrix(0.94, -0.34, 0.34, 0.94, -21.86, 41.45)"/>
        <ellipse class="cls-19" cx="107.83" cy="87.76" rx="1.05" ry="1.27" transform="translate(-16.91 26.37) rotate(-12.94)"/>
        <path class="cls-20" d="M86.17,65.65c.43.33.64.77.48,1s-.64.11-1.07-.22-.63-.77-.47-1S85.75,65.32,86.17,65.65Z"/>
        <path class="cls-20" d="M88,67.24a.45.45,0,1,1-.63.63.45.45,0,1,1,.63-.63Z"/>
      </g>
      <g>
        <path class="cls-5" d="M199.26,77.71c0,12.64-6.46,22.15-23.65,23.18-12.62.76-25.12-8.72-25.12-22.49,0-12.64,11-22.54,23.66-22.54S199.26,65.07,199.26,77.71Z"/>
        <path class="cls-6" d="M197.26,77.51c0,11.65-7.37,19.42-22.38,20.58-11.56.9-23.62-8.43-23.62-20.08s11.08-21.54,22.67-21.54S197.26,65.86,197.26,77.51Z"/>
        <path class="cls-7" d="M195.26,73c0,9.74-8.54,17.29-22.32,18.26-10.61.75-21.58-5.44-21.58-15.18s10.07-19.45,20.71-19.62C183.87,56.27,195.26,63.27,195.26,73Z"/>
        <path class="cls-17" d="M156.36,67.74a5.15,5.15,0,0,0,4.1,3.12s-5.35,5.1-2.05,14.54C158.41,85.4,150.83,79.05,156.36,67.74Z"/>
        <path class="cls-18" d="M191.21,67.74s-.69,3.35-3.35,4.16a20,20,0,0,1,.93,18,14.23,14.23,0,0,0,5.54-13.33C193.28,68.54,191.21,67.74,191.21,67.74Z"/>
        <ellipse class="cls-19" cx="188.55" cy="73.77" rx="1.44" ry="2.39" transform="matrix(0.94, -0.34, 0.34, 0.94, -13.87, 69.41)"/>
        <ellipse class="cls-19" cx="190.55" cy="79.24" rx="1.05" ry="1.27" transform="translate(-12.9 44.67) rotate(-12.94)"/>
        <path class="cls-20" d="M168.9,57.14c.43.33.64.76.47,1s-.64.12-1.06-.22-.64-.76-.47-1S168.48,56.81,168.9,57.14Z"/>
        <path class="cls-20" d="M170.72,58.73a.5.5,0,0,1,.07.69.55.55,0,0,1-.76-.76A.5.5,0,0,1,170.72,58.73Z"/>
      </g>
      <g>
        <path class="cls-5" d="M228.46,47.53c0,12.65-6.46,22.16-23.66,23.19-12.61.76-25.11-8.72-25.11-22.49,0-12.64,11-22.54,23.66-22.54S228.46,34.89,228.46,47.53Z"/>
        <path class="cls-6" d="M226.46,47.34c0,11.65-7.37,19.42-22.39,20.58-11.56.9-23.61-8.43-23.61-20.08s11.07-21.55,22.67-21.55S226.46,35.69,226.46,47.34Z"/>
        <path class="cls-7" d="M224.46,42.84c0,9.74-8.54,17.29-22.32,18.26-10.61.75-21.58-5.44-21.58-15.18s10.07-19.45,20.71-19.63C213.06,26.1,224.46,33.1,224.46,42.84Z"/>
        <path class="cls-8" d="M196.37,27s.42-.85,2.15.38c1.91,1.36,4.39,4.18,5.58,3.15,5.55-4.79,8.67-3.15,8.67-3.15s-4,2-5.42,5.3c-.63,1.48,8.1.46,6.6,6.85a4.27,4.27,0,0,0-1.62-2.3,10.6,10.6,0,0,0-8.23-2.12,8.73,8.73,0,0,0-7.49,9.6s-3.43-8.52,3.72-10.48a27.82,27.82,0,0,0-5.77-.15c-1.26.16-4.8,1.65-6,4.53,0,0,1.3-5.35,5.78-6.2l4.49-.84s.2-1.15-1.61-3.57C196.18,26.61,196.37,27,196.37,27Z"/>
        <path class="cls-9" d="M191.68,26.26s4-1.8,6.81.66c1.74,1.55,4.42,4.64,5.61,3.61a20.52,20.52,0,0,1,12.08-4.84s-8.93,2.88-9.27,6.47c-.15,1.61,10,.22,8.31,8,0,0-1-3.63-3.76-4.71-3.59-1.39-5.56-.86-8.24-.14-3.93,1.07-8.68,4.15-8.2,10.39,0,0-1.84-9.46,5.31-11.42a12.12,12.12,0,0,0-5.08-1.09c-1.27,0-7.68,1.21-8.88,4.09A11,11,0,0,1,195,31.34a14.65,14.65,0,0,1,5.08.81A24,24,0,0,0,197.22,28C195.56,26,191.68,26.26,191.68,26.26Z"/>
        <path class="cls-10" d="M195.54,26.32s1.27-.42,4,2c1.75,1.56,2.09,4.83,3.57,3.5,5.47-4.9,9.34-5.15,9.34-5.15s-6,2.26-6.39,5.84c-.11,1,7.69.48,8.27,4.56a6.77,6.77,0,0,0-2.1-1.62,14.63,14.63,0,0,0-9.12-1.15c-3.92,1.07-5.52,2.87-7.84,6.35A8.76,8.76,0,0,1,202,34.11a15.23,15.23,0,0,0-6-1.56,10.13,10.13,0,0,0-6.34,1.56,7.5,7.5,0,0,1,5.48-2.42,31.58,31.58,0,0,1,5.65.86,26.44,26.44,0,0,0-2.42-4.27C197,26.15,195.54,26.32,195.54,26.32Z"/>
        <path class="cls-11" d="M205.24,32.37c.48.65-.44,1.72-1.61,2.15s-2.7.2-2.61-.6c.16-1.41,1.33-1.76,2.13-2.06C204.31,31.42,204.63,31.57,205.24,32.37Z"/>
        <path class="cls-12" d="M197.83,23.11s3.88,4.53,3.84,10.08c0,0,2,1.18,2.86-.55,0,0-1-11.75-3.47-12.95C201.06,19.69,197.74,21.77,197.83,23.11Z"/>
        <path class="cls-13" d="M198.33,23.07s4.06,4.79,3.93,10.33a2.92,2.92,0,0,0,.65-.56,34.93,34.93,0,0,0-3.22-11.43A3.77,3.77,0,0,0,198.33,23.07Z"/>
        <path class="cls-14" d="M201.18,20.73a4.48,4.48,0,0,0-1.49.68,34.93,34.93,0,0,1,3.22,11.43A4.58,4.58,0,0,0,203.7,31S203.7,23.34,201.18,20.73Z"/>
        <path class="cls-12" d="M201.33,20.5a1.74,1.74,0,0,1-.9,2.15c-1.11.68-1.92.7-2.06.52s-.42-.65,1-1.81C200.06,20.81,201.19,20.31,201.33,20.5Z"/>
        <path class="cls-15" d="M201.15,20.73c-.11-.15-.78.19-1.48.71a6,6,0,0,0-1,1,4.83,4.83,0,0,0,2.24-.78C201.1,21.24,201.22,20.81,201.15,20.73Z"/>
        <path class="cls-16" d="M198.62,22.47c-.23.29-.37.53-.32.6a2.27,2.27,0,0,0,1.83-.47,2.72,2.72,0,0,0,.73-.91A4.83,4.83,0,0,1,198.62,22.47Z"/>
        <path class="cls-17" d="M185.56,37.57a5.13,5.13,0,0,0,4.1,3.12s-5.35,5.1-2,14.54C187.61,55.23,180,48.88,185.56,37.57Z"/>
        <path class="cls-18" d="M220.41,37.57s-.69,3.35-3.35,4.16a20,20,0,0,1,.93,18,14.21,14.21,0,0,0,5.53-13.33C222.47,38.37,220.41,37.57,220.41,37.57Z"/>
        <ellipse class="cls-19" cx="217.75" cy="43.59" rx="1.44" ry="2.39" transform="translate(-1.7 77.62) rotate(-20.13)"/>
        <ellipse class="cls-19" cx="219.75" cy="49.07" rx="1.05" ry="1.27" transform="translate(-5.41 50.44) rotate(-12.94)"/>
        <path class="cls-20" d="M198.1,27c.42.34.64.77.47,1s-.64.11-1.06-.22-.64-.76-.48-1S197.67,26.63,198.1,27Z"/>
        <path class="cls-20" d="M199.92,28.56a.45.45,0,1,1-.63.62.5.5,0,0,1-.07-.69A.51.51,0,0,1,199.92,28.56Z"/>
      </g>
      <g>
        <path class="cls-5" d="M272.26,58.24c0,12.64-6.47,22.16-23.66,23.19-12.62.76-25.11-8.73-25.11-22.49,0-12.65,11-22.55,23.65-22.55S272.26,45.6,272.26,58.24Z"/>
        <path class="cls-6" d="M270.26,58c0,11.65-7.38,19.42-22.39,20.59-11.56.89-23.61-8.43-23.61-20.08S235.33,37,246.93,37,270.26,46.4,270.26,58Z"/>
        <path class="cls-7" d="M268.26,53.55c0,9.74-8.54,17.28-22.32,18.26-10.62.75-21.58-5.45-21.58-15.19S234.42,37.17,245.07,37C256.86,36.81,268.26,43.81,268.26,53.55Z"/>
        <path class="cls-8" d="M240.17,37.7s.42-.84,2.15.39c1.91,1.35,4.39,4.18,5.58,3.15,5.55-4.8,8.66-3.16,8.66-3.16s-4,2-5.41,5.3c-.64,1.49,8.09.47,6.59,6.86a4.32,4.32,0,0,0-1.61-2.31,10.63,10.63,0,0,0-8.23-2.11,8.72,8.72,0,0,0-7.49,9.6s-3.44-8.53,3.72-10.49a27.38,27.38,0,0,0-5.77-.14c-1.27.16-4.8,1.65-6,4.53,0,0,1.3-5.36,5.78-6.2l4.49-.84s.2-1.16-1.62-3.58C240,37.32,240.17,37.7,240.17,37.7Z"/>
        <path class="cls-9" d="M235.47,37s4-1.81,6.81.65c1.75,1.56,4.43,4.65,5.62,3.62A20.5,20.5,0,0,1,260,36.39s-8.93,2.89-9.27,6.48c-.16,1.61,10,.22,8.3,8,0,0-1-3.64-3.76-4.72-3.59-1.38-5.56-.86-8.24-.13-3.92,1.07-8.67,4.15-8.19,10.39,0,0-1.85-9.47,5.31-11.43a12.09,12.09,0,0,0-5.08-1.08c-1.27,0-7.68,1.2-8.88,4.08a10.94,10.94,0,0,1,8.65-5.88,14.65,14.65,0,0,1,5.08.81A24,24,0,0,0,241,38.7C239.36,36.74,235.47,37,235.47,37Z"/>
        <path class="cls-10" d="M239.34,37s1.27-.42,4,2c1.74,1.55,2.09,4.83,3.57,3.5,5.46-4.9,9.34-5.15,9.34-5.15s-6,2.25-6.39,5.84c-.12,1,7.69.48,8.27,4.56a6.86,6.86,0,0,0-2.1-1.63A14.55,14.55,0,0,0,247,45.05c-3.92,1.07-5.52,2.87-7.84,6.34a8.74,8.74,0,0,1,6.69-6.57,15.11,15.11,0,0,0-6-1.56,10.08,10.08,0,0,0-6.35,1.56,7.56,7.56,0,0,1,5.49-2.43,32.2,32.2,0,0,1,5.65.87A26.15,26.15,0,0,0,242.16,39C240.75,36.85,239.34,37,239.34,37Z"/>
        <path class="cls-11" d="M249,43.08c.49.64-.44,1.72-1.6,2.15s-2.71.2-2.61-.61c.16-1.4,1.33-1.75,2.13-2C248.11,42.13,248.43,42.27,249,43.08Z"/>
        <path class="cls-12" d="M241.63,33.82s3.87,4.52,3.84,10.08c0,0,2,1.17,2.86-.55,0,0-1-11.76-3.47-13C244.86,30.39,241.53,32.47,241.63,33.82Z"/>
        <path class="cls-13" d="M242.13,33.78s4.06,4.78,3.92,10.32a2.83,2.83,0,0,0,.66-.55,35.31,35.31,0,0,0-3.22-11.44A3.68,3.68,0,0,0,242.13,33.78Z"/>
        <path class="cls-14" d="M245,31.43a4.64,4.64,0,0,0-1.49.68,35.31,35.31,0,0,1,3.22,11.44,4.65,4.65,0,0,0,.78-1.81S247.49,34.05,245,31.43Z"/>
        <path class="cls-12" d="M245.13,31.2a1.75,1.75,0,0,1-.91,2.15c-1.11.68-1.91.7-2.05.52s-.43-.65,1-1.8C243.86,31.52,245,31,245.13,31.2Z"/>
        <path class="cls-15" d="M245,31.43c-.11-.15-.78.2-1.49.72a6,6,0,0,0-1,1,5.06,5.06,0,0,0,2.24-.78A1.71,1.71,0,0,0,245,31.43Z"/>
        <path class="cls-16" d="M242.42,33.18c-.23.29-.37.53-.32.6a2.28,2.28,0,0,0,1.83-.47,2.82,2.82,0,0,0,.73-.91A5.06,5.06,0,0,1,242.42,33.18Z"/>
        <path class="cls-17" d="M229.36,48.28a5.12,5.12,0,0,0,4.09,3.11s-5.34,5.11-2,14.54C231.41,65.93,223.82,59.59,229.36,48.28Z"/>
        <path class="cls-18" d="M264.21,48.28s-.7,3.34-3.35,4.15a20,20,0,0,1,.92,18,14.2,14.2,0,0,0,5.54-13.32C266.27,49.07,264.21,48.28,264.21,48.28Z"/>
        <ellipse class="cls-19" cx="261.54" cy="54.3" rx="1.44" ry="2.39" transform="translate(-2.71 93.34) rotate(-20.13)"/>
        <ellipse class="cls-19" cx="263.55" cy="59.78" rx="1.05" ry="1.27" transform="translate(-6.69 60.52) rotate(-12.94)"/>
        <path class="cls-20" d="M241.9,37.67c.42.33.63.77.47,1s-.64.11-1.07-.22-.63-.77-.47-1S241.47,37.34,241.9,37.67Z"/>
        <path class="cls-20" d="M243.71,39.26a.45.45,0,1,1-.62.63.51.51,0,0,1-.07-.7A.5.5,0,0,1,243.71,39.26Z"/>
      </g>
      <g>
        <path class="cls-5" d="M310,55.56c0,12.64-6.46,22.16-23.66,23.19C273.7,79.51,261.2,70,261.2,56.26c0-12.64,11-22.54,23.66-22.54S310,42.92,310,55.56Z"/>
        <path class="cls-6" d="M308,55.37C308,67,300.6,74.78,285.59,76,274,76.85,262,67.52,262,55.87S273,34.32,284.64,34.32,308,43.72,308,55.37Z"/>
        <path class="cls-7" d="M306,50.87c0,9.74-8.54,17.29-22.32,18.26C273,69.88,262.07,63.69,262.07,54s10.07-19.45,20.71-19.63C294.58,34.13,306,41.13,306,50.87Z"/>
        <path class="cls-8" d="M277.88,35s.42-.84,2.15.39c1.91,1.35,4.39,4.18,5.58,3.15,5.55-4.79,8.67-3.16,8.67-3.16s-4,2-5.42,5.31c-.63,1.48,8.1.46,6.6,6.85a4.27,4.27,0,0,0-1.62-2.3,10.59,10.59,0,0,0-8.23-2.12,8.73,8.73,0,0,0-7.49,9.6s-3.43-8.52,3.72-10.48a27.82,27.82,0,0,0-5.77-.15c-1.26.16-4.8,1.65-6,4.53,0,0,1.3-5.35,5.78-6.2l4.49-.84s.2-1.15-1.61-3.58C277.69,34.64,277.88,35,277.88,35Z"/>
        <path class="cls-9" d="M273.19,34.29s4-1.8,6.81.66c1.74,1.55,4.42,4.64,5.61,3.61a20.52,20.52,0,0,1,12.08-4.84s-8.92,2.88-9.27,6.47c-.15,1.61,10,.22,8.31,8,0,0-1-3.63-3.76-4.71-3.59-1.39-5.56-.86-8.24-.14-3.93,1.07-8.68,4.15-8.2,10.39,0,0-1.84-9.46,5.31-11.42a12.1,12.1,0,0,0-5.07-1.09c-1.28,0-7.69,1.21-8.89,4.09a11,11,0,0,1,8.65-5.89,14.65,14.65,0,0,1,5.08.81A24.23,24.23,0,0,0,278.73,36C277.07,34.06,273.19,34.29,273.19,34.29Z"/>
        <path class="cls-10" d="M277.05,34.35s1.27-.42,4,2c1.75,1.55,2.09,4.83,3.58,3.5,5.46-4.9,9.33-5.15,9.33-5.15s-6,2.26-6.39,5.84c-.11,1,7.69.48,8.27,4.56a6.77,6.77,0,0,0-2.1-1.62,14.6,14.6,0,0,0-9.11-1.15c-3.93,1.07-5.53,2.87-7.85,6.35a8.76,8.76,0,0,1,6.7-6.58,15.3,15.3,0,0,0-6-1.56,10.14,10.14,0,0,0-6.35,1.56,7.5,7.5,0,0,1,5.48-2.42,31.58,31.58,0,0,1,5.65.86,26.44,26.44,0,0,0-2.42-4.27C278.46,34.18,277.05,34.35,277.05,34.35Z"/>
        <path class="cls-11" d="M286.75,40.4c.48.65-.44,1.72-1.61,2.15s-2.7.2-2.61-.6c.16-1.41,1.33-1.76,2.14-2.06C285.83,39.45,286.14,39.6,286.75,40.4Z"/>
        <path class="cls-12" d="M279.34,31.14s3.88,4.53,3.84,10.08c0,0,2,1.17,2.86-.55,0,0-1-11.76-3.47-13C282.57,27.72,279.25,29.79,279.34,31.14Z"/>
        <path class="cls-13" d="M279.84,31.1s4.06,4.78,3.93,10.33a2.92,2.92,0,0,0,.65-.56,34.93,34.93,0,0,0-3.22-11.43A3.83,3.83,0,0,0,279.84,31.1Z"/>
        <path class="cls-14" d="M282.69,28.76a4.48,4.48,0,0,0-1.49.68,34.93,34.93,0,0,1,3.22,11.43,4.58,4.58,0,0,0,.79-1.81S285.21,31.37,282.69,28.76Z"/>
        <path class="cls-12" d="M282.84,28.52a1.75,1.75,0,0,1-.9,2.16c-1.11.67-1.92.7-2.05.51s-.43-.64,1-1.8C281.58,28.84,282.7,28.34,282.84,28.52Z"/>
        <path class="cls-15" d="M282.66,28.76c-.11-.15-.78.19-1.48.71a6,6,0,0,0-1.05,1,4.79,4.79,0,0,0,2.24-.78C282.61,29.27,282.73,28.84,282.66,28.76Z"/>
        <path class="cls-16" d="M280.13,30.5c-.23.29-.37.53-.31.6a2.26,2.26,0,0,0,1.82-.47,2.72,2.72,0,0,0,.73-.91A4.79,4.79,0,0,1,280.13,30.5Z"/>
        <path class="cls-17" d="M267.07,45.6a5.15,5.15,0,0,0,4.1,3.12s-5.35,5.1-2.05,14.54C269.12,63.26,261.53,56.91,267.07,45.6Z"/>
        <path class="cls-18" d="M301.92,45.6s-.69,3.35-3.35,4.16a20,20,0,0,1,.93,18A14.23,14.23,0,0,0,305,54.43C304,46.4,301.92,45.6,301.92,45.6Z"/>
        <ellipse class="cls-19" cx="299.26" cy="51.62" rx="1.44" ry="2.39" transform="matrix(0.94, -0.34, 0.34, 0.94, 0.52, 106.16)"/>
        <ellipse class="cls-19" cx="301.26" cy="57.1" rx="1.05" ry="1.27" transform="translate(-5.14 68.9) rotate(-12.94)"/>
        <path class="cls-20" d="M279.61,35c.42.33.64.77.47,1s-.64.11-1.06-.22-.64-.77-.48-1S279.18,34.66,279.61,35Z"/>
        <path class="cls-20" d="M281.43,36.59a.5.5,0,0,1,.07.69.51.51,0,0,1-.7-.07.5.5,0,0,1-.07-.69A.51.51,0,0,1,281.43,36.59Z"/>
      </g>
      <g>
        <path class="cls-5" d="M192.21,36.1c0,12.64-6.47,22.15-23.66,23.19-12.62.75-25.12-8.73-25.12-22.5,0-12.64,11-22.54,23.66-22.54S192.21,23.46,192.21,36.1Z"/>
        <path class="cls-6" d="M190.21,35.9c0,11.65-7.38,19.42-22.39,20.58-11.56.9-23.62-8.43-23.62-20.07s11.08-21.55,22.67-21.55S190.21,24.25,190.21,35.9Z"/>
        <path class="cls-7" d="M188.21,31.41c0,9.74-8.54,17.28-22.32,18.25-10.62.75-21.58-5.44-21.58-15.18S154.37,15,165,14.86C176.81,14.67,188.21,21.67,188.21,31.41Z"/>
        <path class="cls-8" d="M160.12,15.56s.42-.85,2.15.38c1.91,1.36,4.38,4.19,5.58,3.16,5.55-4.8,8.66-3.16,8.66-3.16s-4,2-5.41,5.3c-.64,1.48,8.09.47,6.59,6.86a4.28,4.28,0,0,0-1.61-2.31,10.59,10.59,0,0,0-8.23-2.11,8.72,8.72,0,0,0-7.49,9.6s-3.44-8.53,3.72-10.49a27.45,27.45,0,0,0-5.78-.14c-1.26.16-4.79,1.65-6,4.53,0,0,1.3-5.36,5.78-6.21l4.49-.83s.2-1.16-1.62-3.58C159.92,15.17,160.12,15.56,160.12,15.56Z"/>
        <path class="cls-9" d="M155.42,14.83s4-1.81,6.81.65c1.75,1.56,4.42,4.65,5.62,3.62a20.48,20.48,0,0,1,12.07-4.85s-8.92,2.89-9.26,6.48c-.16,1.6,10,.21,8.3,8,0,0-1-3.64-3.76-4.72-3.59-1.38-5.56-.86-8.24-.13-3.92,1.06-8.67,4.15-8.19,10.38,0,0-1.85-9.46,5.31-11.42A12.09,12.09,0,0,0,159,21.71c-1.27,0-7.69,1.2-8.88,4.08a10.94,10.94,0,0,1,8.65-5.88,14.74,14.74,0,0,1,5.08.8A24.92,24.92,0,0,0,161,16.56C159.31,14.6,155.42,14.83,155.42,14.83Z"/>
        <path class="cls-10" d="M159.29,14.89s1.27-.43,4,2c1.75,1.55,2.1,4.83,3.58,3.5,5.46-4.91,9.34-5.15,9.34-5.15s-6,2.25-6.39,5.84c-.12,1,7.69.47,8.27,4.56A6.66,6.66,0,0,0,176,24.05a14.51,14.51,0,0,0-9.11-1.14c-3.92,1.07-5.52,2.87-7.84,6.34a8.74,8.74,0,0,1,6.69-6.57,15.11,15.11,0,0,0-6-1.56,10.08,10.08,0,0,0-6.35,1.56,7.51,7.51,0,0,1,5.48-2.43,31.21,31.21,0,0,1,5.66.87,26.15,26.15,0,0,0-2.43-4.27C160.69,14.71,159.29,14.89,159.29,14.89Z"/>
        <path class="cls-11" d="M169,20.94c.49.64-.44,1.72-1.6,2.14s-2.71.21-2.61-.6c.16-1.4,1.33-1.75,2.13-2.05C168.06,20,168.38,20.13,169,20.94Z"/>
        <path class="cls-12" d="M161.58,11.67s3.87,4.53,3.84,10.09c0,0,2,1.17,2.86-.55,0,0-1-11.76-3.47-13C164.81,8.25,161.48,10.33,161.58,11.67Z"/>
        <path class="cls-13" d="M162.08,11.64S166.14,16.42,166,22a3,3,0,0,0,.65-.55A35,35,0,0,0,163.44,10,3.68,3.68,0,0,0,162.08,11.64Z"/>
        <path class="cls-14" d="M164.93,9.29a4.64,4.64,0,0,0-1.49.68,35,35,0,0,1,3.21,11.44,4.64,4.64,0,0,0,.79-1.81S167.44,11.91,164.93,9.29Z"/>
        <path class="cls-12" d="M165.08,9.06a1.75,1.75,0,0,1-.91,2.15c-1.11.68-1.91.7-2,.52s-.43-.65,1-1.81C163.81,9.37,164.94,8.88,165.08,9.06Z"/>
        <path class="cls-15" d="M164.9,9.29c-.11-.15-.79.19-1.49.72a6,6,0,0,0-1,1,5.06,5.06,0,0,0,2.24-.78A1.71,1.71,0,0,0,164.9,9.29Z"/>
        <path class="cls-16" d="M162.37,11c-.23.29-.37.53-.32.6a2.32,2.32,0,0,0,1.83-.47,2.93,2.93,0,0,0,.73-.91A5.06,5.06,0,0,1,162.37,11Z"/>
        <path class="cls-17" d="M149.31,26.14a5.12,5.12,0,0,0,4.09,3.11s-5.34,5.11-2,14.54C151.36,43.79,143.77,37.44,149.31,26.14Z"/>
        <path class="cls-18" d="M184.16,26.14s-.7,3.34-3.35,4.15a20,20,0,0,1,.92,18A14.23,14.23,0,0,0,187.27,35C186.22,26.93,184.16,26.14,184.16,26.14Z"/>
        <ellipse class="cls-19" cx="181.49" cy="32.16" rx="1.44" ry="2.39" transform="translate(0.02 64.44) rotate(-20.13)"/>
        <ellipse class="cls-19" cx="183.5" cy="37.63" rx="1.05" ry="1.27" transform="translate(-3.77 42.04) rotate(-12.94)"/>
        <path class="cls-20" d="M161.84,15.53c.43.33.64.77.48,1s-.64.11-1.07-.22-.63-.77-.47-1S161.42,15.2,161.84,15.53Z"/>
        <path class="cls-20" d="M163.66,17.12a.51.51,0,0,1,.07.7.5.5,0,0,1-.69-.07.51.51,0,0,1-.07-.7A.5.5,0,0,1,163.66,17.12Z"/>
      </g>
      <g>
        <path class="cls-5" d="M158.63,59.21c0,12.64-6.46,22.16-23.66,23.19-12.62.76-25.11-8.72-25.11-22.49,0-12.64,11-22.54,23.65-22.54S158.63,46.57,158.63,59.21Z"/>
        <path class="cls-6" d="M156.63,59c0,11.65-7.38,19.41-22.39,20.58-11.56.9-23.61-8.43-23.61-20.08S121.7,38,133.3,38,156.63,47.37,156.63,59Z"/>
        <path class="cls-7" d="M154.63,54.52c0,9.74-8.54,17.29-22.32,18.26-10.62.75-21.58-5.44-21.58-15.18S120.8,38.15,131.44,38C143.23,37.78,154.63,44.78,154.63,54.52Z"/>
        <path class="cls-8" d="M126.54,38.67s.42-.84,2.15.39c1.91,1.35,4.39,4.18,5.58,3.15,5.55-4.79,8.67-3.16,8.67-3.16s-4,2-5.42,5.31c-.64,1.48,8.1.46,6.6,6.85a4.35,4.35,0,0,0-1.62-2.3,10.6,10.6,0,0,0-8.23-2.12,8.73,8.73,0,0,0-7.49,9.6s-3.43-8.52,3.72-10.48a27.82,27.82,0,0,0-5.77-.15c-1.27.16-4.8,1.65-6,4.53,0,0,1.3-5.35,5.78-6.2l4.49-.84s.2-1.15-1.62-3.58C126.35,38.29,126.54,38.67,126.54,38.67Z"/>
        <path class="cls-9" d="M121.85,37.94s4-1.8,6.8.66c1.75,1.55,4.43,4.64,5.62,3.61a20.52,20.52,0,0,1,12.08-4.84s-8.93,2.88-9.27,6.47c-.16,1.61,10,.22,8.3,7.95,0,0-1-3.63-3.76-4.71-3.58-1.39-5.56-.86-8.24-.14-3.92,1.07-8.67,4.15-8.19,10.39,0,0-1.84-9.46,5.31-11.42a12.12,12.12,0,0,0-5.08-1.09c-1.27,0-7.68,1.21-8.88,4.09A11,11,0,0,1,125.19,43a14.65,14.65,0,0,1,5.08.81,24,24,0,0,0-2.89-4.16C125.73,37.71,121.85,37.94,121.85,37.94Z"/>
        <path class="cls-10" d="M125.71,38s1.27-.42,4,2c1.74,1.55,2.09,4.83,3.57,3.5,5.46-4.9,9.34-5.15,9.34-5.15s-6,2.26-6.39,5.84c-.12,1,7.69.48,8.27,4.56a6.77,6.77,0,0,0-2.1-1.62A14.63,14.63,0,0,0,133.32,46c-3.92,1.07-5.52,2.87-7.84,6.35a8.76,8.76,0,0,1,6.69-6.58,15.23,15.23,0,0,0-6-1.56,10,10,0,0,0-6.34,1.56,7.5,7.5,0,0,1,5.48-2.42,31.58,31.58,0,0,1,5.65.86A26.44,26.44,0,0,0,128.54,40C127.12,37.83,125.71,38,125.71,38Z"/>
        <path class="cls-11" d="M135.41,44.05c.48.65-.44,1.72-1.61,2.15s-2.7.2-2.61-.6c.16-1.41,1.33-1.76,2.13-2.06C134.48,43.1,134.8,43.25,135.41,44.05Z"/>
        <path class="cls-12" d="M128,34.79s3.87,4.53,3.84,10.08c0,0,2,1.17,2.86-.55,0,0-1-11.76-3.47-12.95C131.23,31.37,127.91,33.44,128,34.79Z"/>
        <path class="cls-13" d="M128.5,34.75s4.06,4.78,3.93,10.33a2.92,2.92,0,0,0,.65-.56,34.93,34.93,0,0,0-3.22-11.43A3.71,3.71,0,0,0,128.5,34.75Z"/>
        <path class="cls-14" d="M131.35,32.41a4.48,4.48,0,0,0-1.49.68,34.93,34.93,0,0,1,3.22,11.43,4.72,4.72,0,0,0,.79-1.81S133.87,35,131.35,32.41Z"/>
        <path class="cls-12" d="M131.5,32.17a1.76,1.76,0,0,1-.91,2.16c-1.11.67-1.91.7-2.05.51s-.43-.64,1-1.8C130.23,32.49,131.36,32,131.5,32.17Z"/>
        <path class="cls-15" d="M131.32,32.41c-.11-.15-.78.19-1.49.71a6.34,6.34,0,0,0-1,1,4.83,4.83,0,0,0,2.24-.78C131.27,32.92,131.39,32.49,131.32,32.41Z"/>
        <path class="cls-16" d="M128.79,34.15c-.23.29-.37.53-.32.6a2.28,2.28,0,0,0,1.83-.47,2.72,2.72,0,0,0,.73-.91A4.83,4.83,0,0,1,128.79,34.15Z"/>
        <path class="cls-17" d="M115.73,49.25a5.13,5.13,0,0,0,4.1,3.12s-5.35,5.1-2,14.54C117.78,66.91,110.19,60.56,115.73,49.25Z"/>
        <path class="cls-18" d="M150.58,49.25s-.69,3.35-3.35,4.16a20,20,0,0,1,.92,18,14.21,14.21,0,0,0,5.54-13.33C152.64,50.05,150.58,49.25,150.58,49.25Z"/>
        <ellipse class="cls-19" cx="147.91" cy="55.27" rx="1.44" ry="2.39" transform="matrix(0.94, -0.34, 0.34, 0.94, -9.99, 54.29)"/>
        <ellipse class="cls-19" cx="149.92" cy="60.75" rx="1.05" ry="1.27" transform="translate(-9.8 35.11) rotate(-12.94)"/>
        <path class="cls-20" d="M128.27,38.64c.42.33.63.77.47,1s-.64.11-1.06-.22-.64-.77-.48-1S127.84,38.31,128.27,38.64Z"/>
        <path class="cls-20" d="M130.09,40.24a.49.49,0,0,1,.06.69.55.55,0,1,1-.06-.69Z"/>
      </g>
    </g>
  </g>
</svg>
