<svg id="Layer_1" data-name="Layer 1" xmlns="http://www.w3.org/2000/svg" xmlns:xlink="http://www.w3.org/1999/xlink" width="1600" height="900" viewBox="0 0 1600 900">
  <defs>
    <style>
      .cls-1 {
        fill: none;
      }

      .cls-2 {
        fill: url(#linear-gradient);
      }

      .cls-3 {
        fill: url(#linear-gradient-2);
      }

      .cls-4 {
        fill: url(#linear-gradient-3);
      }

      .cls-5 {
        fill: url(#linear-gradient-4);
      }

      .cls-6 {
        fill: url(#linear-gradient-5);
      }

      .cls-7 {
        clip-path: url(#clip-path);
      }

      .cls-8 {
        fill: url(#linear-gradient-6);
      }

      .cls-9 {
        fill: url(#linear-gradient-7);
      }

      .cls-10 {
        fill: url(#linear-gradient-8);
      }

      .cls-11 {
        fill: url(#linear-gradient-9);
      }
    </style>
    <linearGradient id="linear-gradient" x1="328.59" y1="189.01" x2="406.67" y2="155.19" gradientUnits="userSpaceOnUse">
      <stop offset="0.2" stop-color="#9cdbf3"/>
      <stop offset="0.45" stop-color="#bae5f6"/>
      <stop offset="0.69" stop-color="#d1edf8"/>
      <stop offset="0.84" stop-color="#d9f0f9"/>
    </linearGradient>
    <linearGradient id="linear-gradient-2" x1="260.46" y1="201.85" x2="363.16" y2="160.51" gradientUnits="userSpaceOnUse">
      <stop offset="0.2" stop-color="#97d9f3"/>
      <stop offset="0.4" stop-color="#9bdaf3"/>
      <stop offset="0.58" stop-color="#a6def4"/>
      <stop offset="0.76" stop-color="#b9e5f6"/>
      <stop offset="0.93" stop-color="#d3eef8"/>
      <stop offset="0.96" stop-color="#d9f0f9"/>
    </linearGradient>
    <linearGradient id="linear-gradient-3" x1="452.1" y1="253.25" x2="590.74" y2="114.52" gradientUnits="userSpaceOnUse">
      <stop offset="0.2" stop-color="#9cdbf3"/>
      <stop offset="0.61" stop-color="#d9f0f9"/>
    </linearGradient>
    <linearGradient id="linear-gradient-4" x1="270.11" y1="163.77" x2="318.69" y2="115.16" gradientUnits="userSpaceOnUse">
      <stop offset="0.11" stop-color="#8ad6f7"/>
      <stop offset="0.82" stop-color="#d5eef3"/>
    </linearGradient>
    <linearGradient id="linear-gradient-5" x1="413.02" y1="173.39" x2="448.81" y2="137.57" gradientUnits="userSpaceOnUse">
      <stop offset="0.17" stop-color="#88d5f7"/>
      <stop offset="0.9" stop-color="#d5eef3"/>
    </linearGradient>
    <clipPath id="clip-path">
      <rect class="cls-1" width="1600" height="900"/>
    </clipPath>
    <linearGradient id="linear-gradient-6" x1="618.72" y1="1073.4" x2="871.44" y2="-175.97" gradientUnits="userSpaceOnUse">
      <stop offset="0.2" stop-color="#c9e9f2"/>
      <stop offset="0.33" stop-color="#b8e4f3"/>
      <stop offset="0.66" stop-color="#93d9f5"/>
      <stop offset="0.83" stop-color="#85d5f6"/>
    </linearGradient>
    <linearGradient id="linear-gradient-7" x1="836.94" y1="166.21" x2="885.52" y2="117.6" xlink:href="#linear-gradient-4"/>
    <linearGradient id="linear-gradient-8" x1="1175.39" y1="198.69" x2="1226.78" y2="147.26" xlink:href="#linear-gradient-5"/>
    <linearGradient id="linear-gradient-9" x1="188.05" y1="311.46" x2="1881.53" y2="311.46" gradientUnits="userSpaceOnUse">
      <stop offset="0.2" stop-color="#68c0dc"/>
      <stop offset="0.83" stop-color="#68c0dc"/>
    </linearGradient>
  </defs>
  <g>
    <path class="cls-2" d="M329.08,180.73s.7-5.58,9.5-9.4,16.22-5.88,23.86-1.47,6,14.39,4.4,15.56c-3.15,2.29-9.93,5.28-28,2.35C327.93,186,329.08,180.73,329.08,180.73Z"/>
    <path class="cls-3" d="M288.7,176.87s2.42-8.41,19.46-13.34,28.11-7.35,37.62.75,4.76,21.68-1.94,23.38-34.6,3.06-51.41-2.39C292.43,185.27,286.43,182.76,288.7,176.87Z"/>
    <path class="cls-4" d="M457.15,209.29s1.34-9.38,18.29-15.8,31.23-9.88,46-2.47,11.6,24.2,8.47,26.18c-6.06,3.83-19.12,8.88-54,4C454.92,218.19,457.15,209.29,457.15,209.29Z"/>
  </g>
  <g>
    <path class="cls-5" d="M269.66,143.09s.73-5.46,9.94-9.2,17-5.75,25-1.44,6.3,14.09,4.6,15.24c-3.29,2.23-10.39,5.17-29.32,2.3C268.45,148.26,269.66,143.09,269.66,143.09Z"/>
    <path class="cls-6" d="M412.08,153s.73-4.82,10-8.12,17.14-5.07,25.22-1.26S453.69,156,452,157.05c-3.33,2-10.49,4.56-29.62,2C410.85,157.55,412.08,153,412.08,153Z"/>
  </g>
  <g class="cls-7">
    <g>
      <path class="cls-8" d="M1644-32H-59.06c.22,20.39,1.47,40.79,2.64,61.09,2.3,39.72,2.27,79.32,2.27,119.09,0,80-.31,160.05.94,240.06q.7,45.31,1.75,90.61H1640.36q-2.67-48.06-4-96.17C1632.84,244.33,1642.19,106.25,1644-32Z"/>
      <g>
        <path class="cls-9" d="M836.5,145.53s.72-5.46,9.93-9.2,17-5.75,25-1.44,6.3,14.09,4.6,15.24c-3.29,2.23-10.38,5.17-29.32,2.3C835.29,150.7,836.5,145.53,836.5,145.53Z"/>
        <path class="cls-10" d="M1174,169.4s1-6.92,14.41-11.65,24.6-7.29,36.2-1.82,9.13,17.84,6.67,19.29c-4.77,2.83-15.06,6.55-42.52,2.92C1172.28,176,1174,169.4,1174,169.4Z"/>
      </g>
      <path class="cls-11" d="M1658.37,347.09l.11,144.24L-34.9,492-35,374l10.7.26.65,11.08H-14L-14.35,368l56.67,1.29v14.32l66.31.3,2.74-192.87,14.71-1,17.79,3.08v-1.8h-2.56v-1.95h2.08v-5.06h1.12v5.55h3.85v-4.55h1.44v4.72l3.21,1-.31,1.47h-.81v1.3l3,.33v9.77l11-1v-1.8h.66v1.47H169V185.68l13-.49v-1.95h1.28V178.5h-1.13v-1.78H186v7.16h1v2.44h8.16v-3.75h3.2V185h-1.1l.16,2.12,16.32,1.8-.14,25.24,9.94,1.13v2.94l1.76,1.78-2,136,10.91-.65,6.72.16.64-15.81,7.19-.65v-8.64l30.59-.34v-3.57l23.21-.18v-3.58h2.58l0-20.85,1.67-1.71V289.39h7v-8.31h2.86v.81h3.54V268.7l.8.64V272l1.93.32v1h2.4l.16-1.63,1.28-.32v1.63l3.35.16.49-1.47,1.93-.16.47,1.46,3.85.17-.17-1.31,1.77.17v1h3.19V271l.81-.33.16-2.6H344l.33,4.88,4,.16.16-3.75,1,.16.47,3.59,2.89.81.15-4.4h.64l.17,4.56,3,.5.64-1.31v-1.79l1.6.16.16,3.42-.63,1,.16,7.66L364,284l1,7.66.81.17.65,1.29,2.87-.15.14-13.85,1.45.16.49,14.34,14.26.64L384.21,361h1.93v1.47l.66.5-.16,1.94-1,.34-.3,14.17,1.91.49v1.78H386l-.15,5.22,10.25-.17c-.49,0,.32,2,.32,2l5.6.16-.8,1.94-1,.5h-1.43l.65,9.61,1.29.81v10.59h2.39l1-125.42,16-2.79v-7.48l18.42-2.79v-1.14h4.81l.64.82,43.71,1.77v8.31l17.63,1.3-.33-14.66,6.07-1.95,2.55-26.56,53.66.63,3.53,28,9.94.16-.17-3.09,1.77.15,1.73-22.48,7.22-1L591,199.68l21.3.15,13.61,1.47,0-63.86,9.77-2.77h5.44v-2.61H642v2.28l14.59-.49v-2.94h1v2.6l8.66-.49v1.64H668v-1.47h10.89l13.29,4.57,18.25-1.32,4.65,2.28-1.65,134.55,13,1.79.46-19.72,6.89.17V239.05l17.93-2-.5-22,2.24-1.31,9.14-1,0-21.67,1.76-1s8.17-1.32,7.68-1.32,23.69-18.56,23.69-18.56h4.8l23.87,18.23,1.14.32.32,1,7.52,1.29-.15,22.32,11.54,1.46-.13,36.66,23.05.47.65-6.19h1.11l.32,4.06h1.13l-.16,2.13L912,253l.16,5.86,12.84-1.3.45-11.24,9.13-.33,3.52-9.12.31-4.25h2.08l.81,3.43h3.51v-.81h4v1l21.78-2.61v-1.31h-1.12V229.5h6.87v4.23l5.61.18V232.1l2.4-2.44,2.09.16v2.44l-1.28.18.64,1.78,1.29.16.49,3.42-.16,1.3,1.13-.15V242h1v2.28h9.92l-.74,69.08h-6.57L992,335.53l3.84.34,0,26.88,3.37.14V346.78l1.91-.33.17-5.22,16.82,1v-1.63h17V342h7.38l.08-86.65,1.12-.82,2.09-.17.16-.82,1.6-.31.47-.66,5-.16.17-1,3.53-.17v-9.6l5.59-2.77,34.45,1.12V238.9h3.84v1l16-.17.5,13.36,14.41.16-.53,159.14,2.59-.17.07-108.48,1.13-.16.15-2.45,9.45.16v2.12H1147v-1.31h9.29v1.14h1.61l-.37-56.53,13.14-5.55-.18-9.44,11.85-5.71,35.88.49v4.38l2.39-.15,3-1.15v-1.45h1.29l.8.8,8.32-.17v-1.62h-.8l-1.84-1.88,1.44-1.45,2-2h2.41v-5.05H1239v5.38l20.18-.34v-1.46h1.77v2.12l2.72,1.14.16,1.78-2.08,3.27.33,7.32,1.6,1h4l-.16.65,1.45.16v10.75h8.31V247l1.44-1.47,2.25,1.63.37,54.08,2.4.64v12.22l6.88.49-.15,12.86,3,.49.32,6.68,1.76.65.17,24.92,1.13.16-.1,60.27.62-.16.49-1.62h5.28v1.3c0,.64.49.64.49.64l.16,1.63,10.09-.16-.49-9s-1.76-1.79-2.72-1.95l-.32-1.13h3.84V409l3.67.16v.48l1.29.66.16.49h3.2l.33-.82a4.3,4.3,0,0,1,1.76-1c1.13-.32,1.75,1.31,1.75,1.31h3.69l-.49-9.94,1.93-.32-.2-38.29,3.06-2.77h10.24l.24-95.95,3.38-.16v-8.8l2.22.16.17,1.8,1.43-.33-.16-1.63,15.21.16,6.57-19.22.32-3.27.64-.65.78-5.21,1,5.21,1,1,.48,2.93,5.78,20,36.18.81,4.82.16,4.63,3.74.35,20,1.44.34.65,1.62,1.44.17-.1,70.85h11.2l7.21,4.88-.15,10.26,3.36.49-.16,9.94,5.94.16,0,29.64h2.86v-4.08l17-1.14v-7l1.45-1.47H1484l.31-15.14,6.08-4.09h3v-1.46h-1.61V361.24l8-4.4,35.72.47V370.5l-1.78,1.63.17,2.61h9.77l.16,6.37-.95.65.63,1.13,11.38,9.29,6.57.15v14.5h7.68l0,35.83h13.14l-.07-95.94h13v-1.63H1597v1.79h2.22v-1.47h1.45v1.47h4v-2.77h.95v2.61l15.06.64v-2.12l1.29-.48.49.48.3,1.31H1625v-3.26h3.52v2.94h2.4v-1.79h3.83V346l.66-.16,2.24-2v2.78Z"/>
    </g>
  </g>
</svg>
