<svg xmlns="http://www.w3.org/2000/svg" xmlns:xlink="http://www.w3.org/1999/xlink" width="1600" height="900" viewBox="0 0 1600 900">
  <defs>
    <style>
      .cls-1, .cls-4 {
        fill: none;
      }

      .cls-2 {
        isolation: isolate;
      }

      .cls-3 {
        clip-path: url(#clip-path);
      }

      .cls-4 {
        stroke: #f3f1f1;
      }

      .cls-11, .cls-12, .cls-13, .cls-33, .cls-34, .cls-35, .cls-4 {
        stroke-miterlimit: 10;
        stroke-width: 0.5px;
      }

      .cls-5 {
        fill: #161b23;
      }

      .cls-17, .cls-5, .cls-54, .cls-57, .cls-8 {
        opacity: 0.3;
      }

      .cls-6 {
        fill: #954c27;
      }

      .cls-22, .cls-7 {
        fill: #9f6136;
      }

      .cls-9 {
        fill: #74bf44;
      }

      .cls-10 {
        fill: #75c289;
      }

      .cls-11 {
        fill: url(#linear-gradient);
        stroke: url(#linear-gradient-2);
      }

      .cls-12 {
        fill: url(#linear-gradient-3);
        stroke: url(#linear-gradient-4);
      }

      .cls-13 {
        fill: url(#linear-gradient-5);
        stroke: url(#linear-gradient-6);
      }

      .cls-14 {
        fill: #8bc656;
      }

      .cls-15, .cls-36 {
        mix-blend-mode: screen;
      }

      .cls-15, .cls-24, .cls-36 {
        opacity: 0.5;
      }

      .cls-15 {
        fill: url(#linear-gradient-7);
      }

      .cls-16 {
        fill: #80c247;
      }

      .cls-18 {
        fill: #90c856;
      }

      .cls-18, .cls-19, .cls-24 {
        mix-blend-mode: multiply;
      }

      .cls-19 {
        opacity: 0.31;
      }

      .cls-20, .cls-24 {
        fill: #60833a;
      }

      .cls-21 {
        fill: #f39f5b;
      }

      .cls-22, .cls-23 {
        opacity: 0.6;
      }

      .cls-23 {
        fill: #bb7646;
      }

      .cls-25 {
        fill: url(#linear-gradient-8);
      }

      .cls-26 {
        fill: url(#linear-gradient-9);
      }

      .cls-27 {
        fill: #208e44;
      }

      .cls-28 {
        fill: #0a4e27;
      }

      .cls-29 {
        fill: #30b34a;
      }

      .cls-30 {
        fill: #1f4c25;
      }

      .cls-31 {
        fill: #3e8640;
      }

      .cls-32 {
        fill: #328c43;
      }

      .cls-33 {
        fill: url(#linear-gradient-10);
        stroke: url(#linear-gradient-11);
      }

      .cls-34 {
        fill: url(#linear-gradient-12);
        stroke: url(#linear-gradient-13);
      }

      .cls-35 {
        fill: url(#linear-gradient-14);
        stroke: url(#linear-gradient-15);
      }

      .cls-36 {
        fill: url(#linear-gradient-16);
      }

      .cls-37 {
        fill: url(#linear-gradient-17);
      }

      .cls-38 {
        fill: #c57b63;
      }

      .cls-39 {
        fill: #429b46;
      }

      .cls-40 {
        fill: #9f7650;
      }

      .cls-41 {
        fill: #936645;
      }

      .cls-42 {
        fill: #b49884;
      }

      .cls-43 {
        fill: #80634d;
      }

      .cls-44 {
        fill: #c9a68d;
      }

      .cls-45 {
        opacity: 0.61;
      }

      .cls-46 {
        fill: #666;
      }

      .cls-47 {
        fill: #e6e6e6;
      }

      .cls-48 {
        fill: #1a1a1a;
      }

      .cls-49 {
        fill: #66a443;
      }

      .cls-50 {
        fill: #227d3e;
      }

      .cls-51 {
        fill: #407638;
      }

      .cls-52 {
        opacity: 0.24;
      }

      .cls-53 {
        fill: #1d6834;
      }

      .cls-54 {
        fill: #a76936;
      }

      .cls-55 {
        opacity: 0.09;
      }

      .cls-56 {
        fill: #1b8c44;
      }

      .cls-57 {
        fill: #020202;
      }
    </style>
    <clipPath id="clip-path">
      <rect class="cls-1" width="1600" height="900"/>
    </clipPath>
    <linearGradient id="linear-gradient" x1="189.84" y1="562.23" x2="1144.76" y2="562.23" gradientUnits="userSpaceOnUse">
      <stop offset="0" stop-color="#30b14b"/>
      <stop offset="0.2" stop-color="#2fad4a"/>
      <stop offset="0.4" stop-color="#2ea148"/>
      <stop offset="0.56" stop-color="#2c9245"/>
      <stop offset="1" stop-color="#68bc46"/>
    </linearGradient>
    <linearGradient id="linear-gradient-2" x1="327.51" y1="817.05" x2="1003.01" y2="354.42" gradientUnits="userSpaceOnUse">
      <stop offset="0" stop-color="#76ccd1"/>
      <stop offset="0" stop-color="#6fc4bf"/>
      <stop offset="0" stop-color="#5cb092"/>
      <stop offset="0" stop-color="#3e9049"/>
      <stop offset="0" stop-color="#3c8d43"/>
      <stop offset="0" stop-color="#348741"/>
      <stop offset="0" stop-color="#20793d"/>
      <stop offset="0" stop-color="#14703a"/>
      <stop offset="0" stop-color="#106d39"/>
      <stop offset="0.01" stop-color="#0f6d3f"/>
      <stop offset="0.02" stop-color="#0e6d4a"/>
      <stop offset="0.05" stop-color="#0d6d51"/>
      <stop offset="0.12" stop-color="#0d6d53"/>
      <stop offset="0.32" stop-color="#0f6e53"/>
      <stop offset="0.39" stop-color="#167251"/>
      <stop offset="0.45" stop-color="#22794e"/>
      <stop offset="0.49" stop-color="#33824b"/>
      <stop offset="0.52" stop-color="#498e46"/>
      <stop offset="0.56" stop-color="#649e3f"/>
      <stop offset="0.59" stop-color="#84b038"/>
      <stop offset="0.61" stop-color="#a9c430"/>
      <stop offset="0.63" stop-color="#d2db27"/>
      <stop offset="0.64" stop-color="#d5dd26"/>
      <stop offset="0.81" stop-color="#d5dd26"/>
      <stop offset="0.84" stop-color="#d5dd26"/>
      <stop offset="0.86" stop-color="#d6de2a"/>
      <stop offset="0.88" stop-color="#d8e037"/>
      <stop offset="0.91" stop-color="#dde34d"/>
      <stop offset="0.93" stop-color="#e2e86c"/>
      <stop offset="0.95" stop-color="#eaee93"/>
      <stop offset="0.97" stop-color="#f3f6c3"/>
      <stop offset="1" stop-color="#fefefa"/>
      <stop offset="1" stop-color="#fff"/>
    </linearGradient>
    <linearGradient id="linear-gradient-3" x1="551.05" y1="538.69" x2="1521.01" y2="538.69" gradientUnits="userSpaceOnUse">
      <stop offset="0" stop-color="#129d49"/>
      <stop offset="0.16" stop-color="#169f4a"/>
      <stop offset="0.32" stop-color="#22a44c"/>
      <stop offset="0.48" stop-color="#37ac51"/>
      <stop offset="0.64" stop-color="#53b757"/>
      <stop offset="0.68" stop-color="#5aba58"/>
      <stop offset="1" stop-color="#81c462"/>
    </linearGradient>
    <linearGradient id="linear-gradient-4" x1="692.75" y1="817.39" x2="1416.73" y2="321.57" xlink:href="#linear-gradient-2"/>
    <linearGradient id="linear-gradient-5" x1="154.2" y1="540.39" x2="1033.6" y2="540.39" gradientUnits="userSpaceOnUse">
      <stop offset="0.01" stop-color="#34b24a"/>
      <stop offset="0.14" stop-color="#38b34a"/>
      <stop offset="0.28" stop-color="#44b549"/>
      <stop offset="0.42" stop-color="#59b847"/>
      <stop offset="0.43" stop-color="#5ab847"/>
      <stop offset="1" stop-color="#68bc46"/>
    </linearGradient>
    <linearGradient id="linear-gradient-6" x1="270.67" y1="757.92" x2="878.09" y2="341.91" xlink:href="#linear-gradient-2"/>
    <linearGradient id="linear-gradient-7" x1="477.43" y1="561.83" x2="477.43" y2="536.31" gradientUnits="userSpaceOnUse">
      <stop offset="0" stop-color="#0f1a11"/>
      <stop offset="0.58" stop-color="#325629"/>
      <stop offset="1" stop-color="#15633e"/>
    </linearGradient>
    <linearGradient id="linear-gradient-8" x1="1373.33" y1="612.89" x2="1399.98" y2="519.18" gradientUnits="userSpaceOnUse">
      <stop offset="0.3" stop-color="#399745"/>
      <stop offset="0.37" stop-color="#3f9b45"/>
      <stop offset="0.48" stop-color="#51a644"/>
      <stop offset="0.61" stop-color="#6eb743"/>
      <stop offset="0.66" stop-color="#7ec142"/>
    </linearGradient>
    <linearGradient id="linear-gradient-9" x1="628.38" y1="604.5" x2="661.44" y2="488.22" xlink:href="#linear-gradient-8"/>
    <linearGradient id="linear-gradient-10" x1="176.93" y1="531.34" x2="1131.86" y2="531.34" xlink:href="#linear-gradient"/>
    <linearGradient id="linear-gradient-11" x1="314.6" y1="786.16" x2="990.1" y2="323.53" xlink:href="#linear-gradient-2"/>
    <linearGradient id="linear-gradient-12" x1="538.14" y1="507.8" x2="1508.1" y2="507.8" xlink:href="#linear-gradient-3"/>
    <linearGradient id="linear-gradient-13" x1="679.84" y1="786.51" x2="1403.82" y2="290.68" xlink:href="#linear-gradient-2"/>
    <linearGradient id="linear-gradient-14" x1="141.3" y1="509.51" x2="1020.7" y2="509.51" xlink:href="#linear-gradient-5"/>
    <linearGradient id="linear-gradient-15" x1="257.76" y1="727.03" x2="865.18" y2="311.03" xlink:href="#linear-gradient-2"/>
    <linearGradient id="linear-gradient-16" x1="464.53" y1="530.94" x2="464.53" y2="505.42" xlink:href="#linear-gradient-7"/>
    <linearGradient id="linear-gradient-17" x1="615.47" y1="573.61" x2="648.53" y2="457.33" xlink:href="#linear-gradient-8"/>
  </defs>
  <g class="cls-2">
    <g id="Layer_1" data-name="Layer 1">
      <g class="cls-3">
        <g>
          <g>
            <line class="cls-4" x1="1136.31" y1="541.7" x2="1220.59" y2="541.7"/>
            <line class="cls-4" x1="1135.5" y1="543.33" x2="1219.78" y2="543.33"/>
            <line class="cls-4" x1="1134.74" y1="544.96" x2="1218.97" y2="544.96"/>
            <line class="cls-4" x1="1134.69" y1="546.58" x2="1218.97" y2="546.58"/>
            <line class="cls-4" x1="1133.87" y1="548.21" x2="1218.15" y2="548.21"/>
            <line class="cls-4" x1="1133.06" y1="549.84" x2="1217.34" y2="549.84"/>
            <line class="cls-4" x1="1133.06" y1="551.46" x2="1217.34" y2="551.46"/>
            <line class="cls-4" x1="1132.25" y1="553.09" x2="1216.53" y2="553.09"/>
          </g>
          <ellipse class="cls-5" cx="412.17" cy="694.06" rx="32.12" ry="6.51"/>
          <line class="cls-6" x1="1097.55" y1="484.78" x2="1269.49" y2="483.39"/>
          <line class="cls-1" x1="1083.4" y1="565.82" x2="1260.85" y2="558.19"/>
          <polygon class="cls-7" points="948.56 425.88 948.56 558.66 951.28 559 951.28 425.88 948.56 425.88"/>
          <ellipse class="cls-8" cx="512.2" cy="729.03" rx="15.05" ry="4.07"/>
          <ellipse class="cls-8" cx="561" cy="650.96" rx="13.42" ry="3.25"/>
          <path class="cls-9" d="M1242.9,644.61s10.57,1.47,1.63,6.35l4.88-1.63h0s4.94-2.13,4.91-4.72S1242.9,644.61,1242.9,644.61Z"/>
          <path class="cls-10" d="M140.65,501.37c-.73-14.84,1.13-34.77,16.34-45.94,28.39-20.85,73.85,10.45,147.82,24C442,504.65,492.65,435,624.14,465.32c23.56,5.43,47.65,13.59,83.3,10.61,45.8-3.83,58.92-21.7,109.44-25.45,20.46-1.52,47.58-3.53,76.77,7.07C943.91,475.8,949,513.91,995.38,521.3c20.5,3.28,36.4-2.1,48.17-3,60.46-4.39,407.69-34.57,427-32,0,0,14,1.89,28.08,2.76h.15c.07,0-12.66,120.64-12.66,120.64H195.34Z"/>
          <path class="cls-11" d="M189.84,543.27S881.19,441,1132,543.27l12.76,82.07L197.5,626.63Z"/>
          <path class="cls-12" d="M559.61,559.73c393.83-40.31,528.76-53,544.54-53.25,12-.16,20.45-.68,37.37-1.26,154.75-5.39,232.72-8.2,261.59-14,74.36-14.81,94.35-30.86,115.37-20.28,10.08,5.07-13.27,138.81-13.27,138.81H551.05Z"/>
          <path class="cls-13" d="M154.2,471s268.38,41.83,353.54,43.1,441.46,23.56,495.56,34.6,19.28,61.11,19.28,61.11h-853Z"/>
          <polygon class="cls-14" points="168.13 574.42 1497.65 546.29 1497.65 805.8 168.13 805.8 168.13 574.42"/>
          <path class="cls-15" d="M189.19,544.12c22.19.27,44.23,1.6,66.44,1.77,27.43.22,54.56-1.77,82-.92,15.49.48,31,1.08,46.5,1.38,14,.26,28,.14,42,.76,28.68,1.28,56.55,4.54,84.86,6.63,60.25,4.44,121.44,5,182.6,6,22,.35,43.46.08,65.19-.62a118.24,118.24,0,0,1,12.07-1c6.82-.34,13.67-.49,20.52-.53-3.76-.07-7-.11-9.57-.11-23.15,0-73.28,1.94-100.28,1s-38.56,0-77.13-1.46-83.56-5.34-110.56-6.31-57.85-4.87-82.27-5.35-43.72,1-78.44-1-66.83,1.46-102.82-.48c-24.39-1.32-50.52-2.63-66.86-3.34v4C172.06,544.06,180.85,544,189.19,544.12Z"/>
          <path class="cls-16" d="M1269.48,559.49c-44.57,5.13-90.4,13.44-135.35,14.78-58.9,1.73-117.19,7.79-176.2,9.2-60.52,1.44-119.06,1.11-179.49-2-52.32-2.69-104.74-.25-157.05-2.9-53.62-2.71-106.38-12-160-14.46-38.71-1.76-76.23-4.31-114.66-8-31.71-3-62.08-10.84-93.56-13.84-29.92-2.84-61.12-7.75-91.29-8.24V807.92h1354.5V520.77c-37.84,5.15-75.61,11.9-112.35,20.08C1360.55,550.54,1314.21,554.35,1269.48,559.49Z"/>
          <g class="cls-17">
            <path class="cls-18" d="M1377.25,537.13c-4.58,1.84-9.2,3.68-13.89,5.45a353.42,353.42,0,0,1-60.4,17.16c-44.87,8.52-94.58,8.61-138,19.36,26.29,2.19,53.18,1.12,79.55-.17,18.41-.92,36.84-1.53,55.24-2.42,14.29-.69,28.6-1.47,42.94-1.54,10.6-.05,25.56-.44,34.66,3,7.27,2.81,4.71,7.2-.12,10.43-7.82,5.2-19.36,9-30.28,12.13A422.86,422.86,0,0,1,1301.23,611a347.53,347.53,0,0,1-46.33,5.32c-10.43.39-23.06.4-31.79-3.1-.48-.21-.58-.5-.17-.75,9.72-6,28.4-6,36.7-12.72-20.49-4.36-44.94-2-66.2-.9-26.71,1.35-53.61,3.15-80.45,3.58-57.1,1-113.2-7.46-170.31-6.88-29.69.3-59.37,1-89.07,1.24-29.42.19-58.83.14-88.25-.33-21.66-.36-43.48-.15-65.11-1-19-.72-40-2.08-55.72-8.2-.62-.24-.59-.74.22-.87,1.77-.28,3.6-.58,5.45-.74,12.49-1.14,25.14-.31,37.68,0,14.18.32,28.43-.54,42.5-1.39,14.31-.86,28.63-1.87,43-2.44,6.88-.27,13.72-.36,20.57-.4q-18-.62-36.14-1.53c-50.57-2.63-101.24-.25-151.8-2.83-51.82-2.65-102.82-11.72-154.65-14.1-37.41-1.71-73.67-4.2-110.82-7.76-30.64-2.94-60-10.57-90.43-13.49-28.91-2.77-59.07-7.55-88.23-8V540c5.94.25,11.86.61,17.78,1,56,4.14,109.56,14.4,163.93,22.2,13.53,2,27.18,3.76,41,5,13,1.2,25.93,1.73,39.11,2.05,21.34.54,44.89,1.18,63.49,7.33.54.17.63.63,0,.82-11,2.89-23.32,3.94-35.46,4.32-23,.7-46.06-.66-69.09-.66-26.21,0-51.87,3.24-77.28,6.33-14.31,1.74-28.61,3.84-43.07,5.22-9.34.9-18.84,1.29-28.23,2-10.09.81-20.79,1.79-29.85,4.39a46.53,46.53,0,0,0-6.93,2.43c-1.81.87-2,.88-.29,1.87a31,31,0,0,0,6.82,3c13.74,4.2,31.28,4.83,46.83,5.21,17.33.41,34.65.07,52,0,15.27-.06,30.43.76,45.7,1,18.53.28,40.66.16,56.72,5.75.42.15.57.4.32.64-4.2,4.09-10.68,4.71-18.87,5.11-7.45.35-14.83,1.48-22.22,2.14q-9.54.84-19.18,1.47c-14.49.94-29,1.57-43.58,2.2-29.68,1.26-58.86,3.34-88.28,5.81-17.06,1.43-34.17,2.76-51.38,3.6V800.6H1471.06V520.77C1439.55,525.1,1408.07,530.59,1377.25,537.13Z"/>
          </g>
          <g class="cls-19">
            <path class="cls-20" d="M1477.38,639.06c-12.41,2.79-26.06,5.63-36.61,10.19-2.41,1-6.39,2.72-6,4.61.62,3.31,8.85,5.79,13.5,7.42,9.83,3.45,27.47,8.47,22.72,16.15-2.45,3.93-10,5.68-17.13,6.63-10.83,1.44-22.06,2.49-33,3.56-57.38,5.55-115.85,6-174,6h-90.43c-13.21,0-26.5.21-39.7,0-11.26-.18-22.7-.76-33-3.34-.63-.16-.57-.68,0-.85,32.14-9.27,71.17-10.08,107-10.75,11.79-.21,23.57-.36,35.37-.65,13.36-.33,26.64-1.12,40-1.76,15-.73,30-1.39,45-2.11,13.76-.66,27.56-1.64,41.38-2,10.55-.29,22.29-.31,31.93-2.88a34,34,0,0,0,7.37-2.72c2.5-1.37,1.78-2-1.55-2.56a72.38,72.38,0,0,0-14.53-.65c-10.35.41-20.5,1.64-30.8,2.22-15.09.84-30.23,1.21-45.38,1.21-30.35,0-60.65-1.09-91-1.19-27.48-.1-55,.24-82.41.73-15.52.83-31,2-46.15,3.87-14.38,1.8-28.44,4.24-42.78,6.11-13.75,1.78-27.67,3.32-41.74,4.25-27.93,1.86-56.68,1.55-84.74.69-21.34-.66-42.64-1.91-63.54-4.2-60.38-1.85-120.87-5.15-181.13-2,23.8,4.36,49.22,5.87,74.24,6.81,23.75.91,47.67,1.7,71.48,2.06,23.37.34,46.79-.13,70.15.74,21.1.8,43,2.46,61.6,8,.67.2.56.63,0,.86-13.51,5.17-32.36,5.94-48.52,6.19-19.4.35-38.8-.44-58.14-1.13-24.67-.87-49.49-.72-74.2-.94-29-.25-57.94-.57-86.89-1.28-30.59-.74-60.86-2.27-91.28-4.11-30-1.83-60.05-3.54-90.26-3.84s-60.2,0-90.3-.38c-12.7-.14-25.47-.09-38.17-.35-9.44-.2-19.45-.81-27-4.07-.4-.17-.33-.51,0-.69,10.35-5.57,27.14-7,41.24-7.69,19.45-1,39-.65,58.54-.37,23.55.31,47.11.13,70.66.27,15.37.06,30.75.11,46.13,0,11.63-.09,23.28-.44,34.91-.19,10.46.21,21,.59,31.46.25,9.71-.32,20.11-1.13,28.14-4.21-32.76-5.41-67-7.5-101.15-8.53-34-1-68.13-1.47-102.13-2.77-30.75-1.17-61.35-4.07-92.15-4.77-14.37-.33-28.9.49-43.25.86-17.41.39-35.17.85-52.52-.32-9.24-.62-23.46-1.59-27.6-6.8-.12-.13,0-.38.23-.48,18-7.57,44.57-8.27,66.6-9.44,30.81-1.67,61-5.29,91.82-7.12,13.32-.79,26-1.7,38.32-4.64,9.86-2.36,18.95-5,29.51-6.51s23.47-2.32,32-6.19c1.38-.63,1-.57-.33-1.17-.9-.38-1.8-.77-2.77-1.1a46,46,0,0,0-4.86-1.45,82.67,82.67,0,0,0-11.74-1.82c-18.7-1.56-37.81.5-56.53.87-16.1.33-33.79-.23-45.76-6.58-.45-.26-.29-.61.19-.78,9.84-3.67,22.43-5.08,34.14-6.09,13.16-1.13,26.43-1.64,39.66-2.43,12.19-.73,24.34-1.7,36.55-2.39,14.68-.84,29.43-1.67,43.81-3.41,10.55-1.28,21.27-3,30.65-5.87,6.35-2,18-5.82,17.38-10.42a3.45,3.45,0,0,0-1-1.86c-35.74-3.79-71.38-8.56-107.39-10.22-38.71-1.77-76.23-4.35-114.66-8-31.71-3.05-62.08-11-93.56-14-29.92-2.88-61.12-7.83-91.29-8.32v6.53c6.15.26,12.27.63,18.4,1.08,58,4.29,113.35,14.92,169.6,23,14,2,28.12,3.89,42.44,5.18,13.46,1.24,26.83,1.79,40.46,2.12,22.08.56,46.45,1.23,65.69,7.59.56.18.66.66,0,.85-11.34,3-24.12,4.08-36.69,4.48-23.83.73-47.65-.68-71.47-.68-27.12,0-53.67,3.35-80,6.55-14.8,1.81-29.6,4-44.57,5.42-9.65.93-19.49,1.33-29.2,2.11-10.44.84-21.51,1.86-30.89,4.55a45.93,45.93,0,0,0-7.16,2.52c-1.87.89-2,.9-.31,1.93a32,32,0,0,0,7.06,3.07c14.22,4.36,32.36,5,48.45,5.41,17.93.42,35.85.07,53.8,0,15.79-.06,31.48.78,47.28,1.06,19.17.3,42.07.17,58.68,6,.43.16.58.42.33.67-4.34,4.23-11.05,4.87-19.52,5.29-7.71.36-15.35,1.54-23,2.22-6.58.58-13.21,1.09-19.85,1.52-15,1-30,1.63-45.09,2.28-30.7,1.31-60.89,3.46-91.33,6-17.66,1.48-35.35,2.86-53.16,3.72v166h1354.5V631C1503.3,633.56,1490.22,636.17,1477.38,639.06Z"/>
          </g>
          <path class="cls-21" d="M152.75,679s19.63,38.22,66.74,0-137.12-61.83-.28-78.9,447.28-18.06,484,9.68-112.81,52.49-53.5,61.26,116.93-10,232.06,13.63S1015.6,698.36,1066.43,696s288.29,20.42,133.78,45.63-453,9.76-392.8,19.52-207.26,13-251.24,0S526,730.25,449.58,740s-281.51,8.37-281.45-8.42S152.75,679,152.75,679Z"/>
          <g>
            <ellipse class="cls-22" cx="286.12" cy="625.34" rx="80.1" ry="7.73"/>
            <ellipse class="cls-22" cx="513.83" cy="617.21" rx="80.1" ry="7.73"/>
            <path class="cls-23" d="M682.64,676.69c19.88,0,50.11.07,87,0,89.15-.16,136.56-.76,136.63.49s-50,3.91-53.76,4.11c-31.54,1.65-55.32,2-55.26,3.23,0,.48,2.41,1,8.08,1.33,29.56,2,117.49-1,137.34,0s95.51,7.67,1.44,8.9-243.7-.85-178.62,4.25,183.59.53,205.09,3.58,154.22,8.91,51.8,15.63S672.25,724,712.47,726.5s301.95-4.56,246.8,5.83-292.21,12.61-301.67,10-20.87-9.15,9.35-15.8,33.11-8.18,67.72-12.24,72.7-8.62-8.35-10.15-121.26-5.51-58.62-9.36c53.52-3.3,115.51-7.38,115.36-9.17,0-.44-4.85-.66-5.85-.71C760,684.07,731.59,681.84,682.64,676.69Z"/>
            <path class="cls-23" d="M395.16,714.57c-41.72-7.62-62.58-11.45-88.06-12-37.67-.74-67.44,4.82-88.46,8.48C199.2,714.47,166,720.26,166,723.88c.06,3.84,41.76.71,140.68-.83,63.32-1,105.74-.64,105.83-3.92C412.56,718,407.68,716.87,395.16,714.57Z"/>
            <path class="cls-23" d="M205.94,655s25.1-3.11,39-1.29,46.74,5.86,23.78,7.27,27.71,2.29,67,.14,80.76,7.85,41.68,9.32-124.6.82-141.58,0-6.25-8.21-6.25-8.21C255.51,659.71,211.82,654.84,205.94,655Z"/>
          </g>
          <g>
            <path class="cls-24" d="M846.85,580.7c-1.44,0-3.37,0-5.29.15-3.71.15-7.06.59-7.92,1.48-.11.1-.08.2.13.29,3.62,1.64,10.92,1.19,15.88,1,1.8-.08,11.94-.24,11.36-1.72S849.75,580.64,846.85,580.7Z"/>
            <path class="cls-24" d="M907,574.92c-1.23-1.16-8.65-.68-11-.6-1,0-3.36,0-5.3.19l-1.62.07c-1,0-4.38.64-2.6,1.22,2,.63,5.24.61,7.66.64,2.61,0,5.2-.1,7.75-.3a23.57,23.57,0,0,0,4.52-.59C906.8,575.39,907.22,575.17,907,574.92Z"/>
            <path class="cls-24" d="M493.87,624.24c-1.43,0-3.36,0-5.27.14-3.71.15-7.06.59-7.93,1.49-.11.1-.08.21.12.3,3.63,1.64,10.94,1.18,15.89,1,1.8-.08,11.95-.24,11.37-1.71S496.77,624.18,493.87,624.24Z"/>
            <path class="cls-24" d="M554.37,628.84c-1.24-1.15-8.65-.67-11.06-.59-1,0-3.33,0-5.27.18l-1.64.08c-1,0-4.37.64-2.59,1.21,2,.63,5.24.61,7.65.64,2.61,0,5.22-.1,7.76-.3a22.63,22.63,0,0,0,4.51-.58C554.22,629.32,554.63,629.1,554.37,628.84Z"/>
            <path class="cls-24" d="M879.38,633.06c-1,0-2.34,0-3.67.09-2.61.12-4.94.42-5.54,1-.07.07-.06.14.08.2,2.54,1.16,7.64.84,11.09.68,1.26-.06,8.36-.17,7.95-1.2S881.42,633,879.38,633.06Z"/>
            <path class="cls-24" d="M921.62,636.27c-.85-.8-6-.48-7.71-.42-.71,0-2.33,0-3.68.13-.39,0-.77,0-1.13.06-.74,0-3.07.43-1.83.84a21.71,21.71,0,0,0,5.36.45c1.82,0,3.63-.06,5.39-.21a17.81,17.81,0,0,0,3.18-.4C921.52,636.6,921.8,636.45,921.62,636.27Z"/>
          </g>
          <path class="cls-24" d="M1104.35,638.42c0,1.49-20.93,2.7-46.71,2.7s-46.69-1.21-46.69-2.7,20.91-2.73,46.69-2.73S1104.35,636.92,1104.35,638.42Z"/>
          <path class="cls-25" d="M1428,574.33c-5.62-12.11-16.21-4.65-16.21-4.65-4.26-12.73-11.44-5.76-11.44-5.76-8.68-15.5-15.26-.44-15.26-.44s-2.08-11.32-8.66-15.36-12.17,2.37-12.17,2.37c-12.73-14.72-18.9,4.22-18.9,4.22-4.83-3.68-8.16-.26-8.16-.26-5.27,5.63-2.32,14.12-2.32,14.12-16.19,4.12-6.35,12.54-6.35,12.54l2.34,1.58,105.85,2.43,1.72-1c4.89-2.76,3.33-11.1-2.13-11.35A23.66,23.66,0,0,0,1428,574.33Z"/>
          <path class="cls-26" d="M721.84,553.14c-9.75-10.93-28.13-4.19-28.13-4.19-7.38-11.5-19.84-5.2-19.84-5.2-15-14-26.47-.4-26.47-.4a24.4,24.4,0,0,0-15-13.87,27.88,27.88,0,0,0-21.11,2.14c-22.07-13.29-32.78,3.8-32.78,3.8-8.39-3.32-14.15-.23-14.15-.23-9.16,5.08-4,12.75-4,12.75-28.07,3.72-11,11.33-11,11.33l4.06,1.42,178.23-1.31,8.56-2.5C745,551.87,721.84,553.14,721.84,553.14Z"/>
          <path class="cls-27" d="M161.15,494s12,2.42,5.81,11.86c33.62-10.4,53.13-1,51.47,11.61,34.44-2.18,44,20.32,30.71,25.41,0,0,28.63-9.92,55.19,3.87C330.9,534.65,394,552.07,410.16,561l-245.78.48Z"/>
          <path class="cls-27" d="M876.49,577.13l-14.7,25.21c.93-8,2.41-30.21-10.62-52.86-21.1-36.7-61.47-42-64.52-42.29-32.61-3.67-56.17,12.95-61.58,17-45.88-3.08-58.6,28.79-40.91,36a161.5,161.5,0,0,0-23.49-4.58,165.06,165.06,0,0,0-54.5,2.67A186.08,186.08,0,0,0,444.47,568l352.58,18.55Z"/>
          <g>
            <path class="cls-20" d="M1418.33,695.15s22.17-14.77,26.66-17.42c5.51-3.25-4.63-7.92-21.06,3.38C1423.93,681.11,1413.84,689.28,1418.33,695.15Z"/>
            <path class="cls-20" d="M1407.9,694.23s-4.47-13.7-29-13.29S1407.9,694.23,1407.9,694.23Z"/>
            <path class="cls-20" d="M1414.58,696.22s7.48-30.67,18.38-39.09c9.34-7.2-10.44-9.18-21.56,8S1414.58,696.22,1414.58,696.22Z"/>
          </g>
          <g>
            <path class="cls-28" d="M1077.44,676.57s21.15-3.19,20.56-12S1077.44,676.57,1077.44,676.57Z"/>
            <path class="cls-28" d="M1073.33,680.13s11.75-22,20.56-27.59-15.28-6-20.56,17Z"/>
            <path class="cls-28" d="M1072.44,677.17s5.93-17.11-16.15-18C1046.3,658.77,1072.44,677.17,1072.44,677.17Z"/>
          </g>
          <g>
            <path class="cls-29" d="M250.31,635.72s9.9-6.68,29-8.32-20.5-8.77-34.63,8.32C244.66,635.72,238.3,643.31,250.31,635.72Z"/>
            <path class="cls-29" d="M223.45,636.67s29-21.36,45.95-27.06-16.26-6.16-38.88,11.63C230.52,621.24,219.21,631.92,223.45,636.67Z"/>
            <path class="cls-29" d="M215,636.67s19.26-34.65,28-38.92-13.87-6.64-28,21.59C215,619.34,209.32,634.29,215,636.67Z"/>
            <path class="cls-29" d="M204.73,636.67s7.42-31.8,14.48-36.55S192.36,605.34,204.73,636.67Z"/>
            <path class="cls-29" d="M200.48,636.67s.36-26.49-14.84-30.57S194.48,623.38,200.48,636.67Z"/>
            <path class="cls-29" d="M195.54,636.67s-9.54-30.36-32.87-31.08S181.05,616.73,195.54,636.67Z"/>
            <path class="cls-29" d="M193.53,636.67s-12.48-12.34-33.69-11.39S188.35,632.87,193.53,636.67Z"/>
          </g>
          <g>
            <path class="cls-30" d="M1262.27,647.41s7-4.74,20.59-5.91-14.56-6.22-24.61,5.91C1258.25,647.41,1253.73,652.81,1262.27,647.41Z"/>
            <path class="cls-30" d="M1243.19,648.09s20.59-15.17,32.64-19.22-11.55-4.38-27.62,8.26C1248.21,637.13,1240.17,644.72,1243.19,648.09Z"/>
            <path class="cls-30" d="M1237.16,648.09s13.68-24.62,19.9-27.65-9.85-4.72-19.9,15.34C1237.16,635.78,1233.14,646.4,1237.16,648.09Z"/>
            <path class="cls-30" d="M1229.88,648.09s5.27-22.59,10.29-26S1221.09,625.83,1229.88,648.09Z"/>
            <path class="cls-30" d="M1226.87,648.09s.25-18.82-10.55-21.72S1222.6,638.65,1226.87,648.09Z"/>
            <path class="cls-30" d="M1223.35,648.09S1216.57,626.52,1200,626,1213.06,633.93,1223.35,648.09Z"/>
            <path class="cls-30" d="M1221.93,648.09A33.59,33.59,0,0,0,1198,640C1182.93,640.67,1218.25,645.39,1221.93,648.09Z"/>
          </g>
          <g>
            <path class="cls-31" d="M728.78,634.4s7-4.74,20.59-5.91-14.56-6.23-24.61,5.91C724.76,634.4,720.24,639.8,728.78,634.4Z"/>
            <path class="cls-31" d="M709.7,635.08s20.59-15.18,32.64-19.22-11.55-4.39-27.62,8.26C714.72,624.12,706.69,631.71,709.7,635.08Z"/>
            <path class="cls-31" d="M703.67,635.08s13.68-24.62,19.9-27.65-9.85-4.72-19.9,15.34C703.67,622.77,699.65,633.39,703.67,635.08Z"/>
            <path class="cls-31" d="M696.39,635.08s5.27-22.59,10.3-26S687.6,612.82,696.39,635.08Z"/>
            <path class="cls-31" d="M693.38,635.08s.25-18.82-10.55-21.72S689.11,625.64,693.38,635.08Z"/>
            <path class="cls-31" d="M689.86,635.08s-6.78-21.57-23.35-22.08S679.57,620.92,689.86,635.08Z"/>
            <path class="cls-31" d="M688.44,635.08A33.62,33.62,0,0,0,664.5,627C649.44,627.66,684.76,632.38,688.44,635.08Z"/>
          </g>
          <g>
            <path class="cls-32" d="M1448.48,609.19s7-4.74,20.59-5.91-14.56-6.23-24.61,5.91C1444.46,609.19,1439.94,614.59,1448.48,609.19Z"/>
            <path class="cls-32" d="M1429.4,609.87S1450,594.69,1462,590.65s-11.55-4.39-27.62,8.26C1434.42,598.91,1426.38,606.49,1429.4,609.87Z"/>
            <path class="cls-32" d="M1423.37,609.87s13.68-24.62,19.9-27.65-9.86-4.72-19.9,15.34C1423.37,597.56,1419.35,608.18,1423.37,609.87Z"/>
            <path class="cls-32" d="M1416.09,609.87s5.27-22.6,10.29-26S1407.3,587.61,1416.09,609.87Z"/>
            <path class="cls-32" d="M1413.07,609.87s.26-18.83-10.54-21.72S1408.81,600.43,1413.07,609.87Z"/>
            <path class="cls-32" d="M1409.56,609.87s-6.78-21.57-23.35-22.08S1399.26,595.7,1409.56,609.87Z"/>
            <path class="cls-32" d="M1408.14,609.87a33.65,33.65,0,0,0-23.94-8.1C1369.13,602.45,1404.45,607.17,1408.14,609.87Z"/>
          </g>
          <g>
            <path class="cls-29" d="M705.87,583.29s5.91-4.49,17.31-5.6-12.24-5.89-20.68,5.6C702.5,583.29,698.7,588.41,705.87,583.29Z"/>
            <path class="cls-29" d="M689.83,583.93s17.31-14.37,27.44-18.2-9.71-4.16-23.22,7.82C694.05,573.55,687.3,580.74,689.83,583.93Z"/>
            <path class="cls-29" d="M684.77,583.93s11.5-23.31,16.72-26.19-8.28-4.47-16.72,14.53C684.77,572.27,681.39,582.34,684.77,583.93Z"/>
            <path class="cls-29" d="M678.65,583.93s4.43-21.4,8.65-24.59S671.26,562.85,678.65,583.93Z"/>
            <path class="cls-29" d="M676.11,583.93s.21-17.83-8.86-20.57S672.53,575,676.11,583.93Z"/>
            <path class="cls-29" d="M673.16,583.93s-7.32-7.3-21.25-7.79S664.5,570.52,673.16,583.93Z"/>
            <path class="cls-29" d="M672,583.93a26.64,26.64,0,0,0-20.12-7.66C639.18,576.91,668.87,581.38,672,583.93Z"/>
          </g>
          <g>
            <path class="cls-32" d="M149.88,772.08c42.61-2,105.16-3.86,180.76-1.62,112.05,3.31,194.41,13.82,211.87,15.9,105,12.53,355.24,17.61,940.16-3.71l3.33,38.21q-642,20.35-1282.81,1.63c-17.77-.52-28.19,9.54-46,9C157.23,815.2,149.88,788.34,149.88,772.08Z"/>
            <g>
              <path class="cls-32" d="M1079.71,815.61s22.61-14.76,27.19-17.41c5.62-3.25-4.72-7.92-21.48,3.37C1085.42,801.57,1075.13,809.74,1079.71,815.61Z"/>
              <path class="cls-32" d="M1069.07,814.69s-4.56-13.69-29.57-13.28S1069.07,814.69,1069.07,814.69Z"/>
              <path class="cls-32" d="M1075.89,816.69s7.63-30.67,18.74-39.08c9.53-7.21-10.65-9.18-22,8S1075.89,816.69,1075.89,816.69Z"/>
            </g>
            <g>
              <path class="cls-32" d="M513.18,791.66s30-4.39,29.16-16.45S513.18,791.66,513.18,791.66Z"/>
              <path class="cls-32" d="M507.35,796.54s16.66-30.16,29.16-37.83-21.66-8.3-29.16,23.26Z"/>
              <path class="cls-32" d="M506.1,792.47s8.41-23.46-22.91-24.67C469,767.25,506.1,792.47,506.1,792.47Z"/>
            </g>
            <g>
              <path class="cls-32" d="M372.25,769.66s11.66-7.71,34.15-9.61-24.15-10.13-40.81,9.61C365.59,769.66,358.09,778.43,372.25,769.66Z"/>
              <path class="cls-32" d="M340.6,770.75s34.15-24.67,54.14-31.25-19.16-7.12-45.81,13.44C348.93,752.94,335.6,765.27,340.6,770.75Z"/>
              <path class="cls-32" d="M330.6,770.75s22.69-40,33-45-16.34-7.68-33,24.94C330.6,750.74,323.94,768,330.6,770.75Z"/>
              <path class="cls-32" d="M318.52,770.75s8.75-36.73,17.08-42.21S303.94,734.57,318.52,770.75Z"/>
              <path class="cls-32" d="M313.52,770.75s.42-30.6-17.49-35.31S306.44,755.4,313.52,770.75Z"/>
              <path class="cls-32" d="M307.69,770.75s-11.24-35.06-38.73-35.9S290.62,747.73,307.69,770.75Z"/>
              <path class="cls-32" d="M305.33,770.75s-14.71-14.25-39.7-13.15S299.22,766.37,305.33,770.75Z"/>
            </g>
            <g>
              <path class="cls-32" d="M1355.18,801.36s11.67-7.71,34.16-9.61-24.16-10.12-40.82,9.61C1348.52,801.36,1341,810.13,1355.18,801.36Z"/>
              <path class="cls-32" d="M1323.53,802.46s34.15-24.67,54.15-31.25-19.16-7.13-45.82,13.43C1331.86,784.64,1318.53,797,1323.53,802.46Z"/>
              <path class="cls-32" d="M1313.53,802.46s22.69-40,33-45-16.35-7.68-33,24.94C1313.53,782.45,1306.87,799.72,1313.53,802.46Z"/>
              <path class="cls-32" d="M1301.46,802.46s8.74-36.73,17.07-42.21S1286.88,766.28,1301.46,802.46Z"/>
              <path class="cls-32" d="M1296.46,802.46s.41-30.6-17.49-35.31S1289.38,787.11,1296.46,802.46Z"/>
              <path class="cls-32" d="M1290.63,802.46s-11.25-35.07-38.74-35.9S1273.55,779.43,1290.63,802.46Z"/>
              <path class="cls-32" d="M1288.27,802.46s-14.72-14.25-39.71-13.16S1282.16,798.07,1288.27,802.46Z"/>
            </g>
          </g>
          <path class="cls-29" d="M180.62,556.85c76.78,3.75,138.8,5.87,179.64,7.09,140.07,4.19,148.32,1.27,226.22,6.51,50.9,3.42,101.91,5.24,152.72,9.76A736.88,736.88,0,0,0,823,583c5-.12,9.15-.26,11.72-.36.44,3.5.89,7,1.33,10.51L189.28,574.42Z"/>
          <g>
            <path class="cls-29" d="M274.31,566.1s5.53-3.11,16.21-3.87-11.47-4.09-19.38,3.87C271.14,566.1,267.59,569.64,274.31,566.1Z"/>
            <path class="cls-29" d="M259.28,566.55s16.21-9.95,25.71-12.61-9.1-2.87-21.75,5.42C263.24,559.36,256.91,564.33,259.28,566.55Z"/>
            <path class="cls-29" d="M254.54,566.55s10.77-16.14,15.66-18.13-7.76-3.1-15.66,10.06C254.54,558.48,251.37,565.44,254.54,566.55Z"/>
            <path class="cls-29" d="M248.8,566.55s4.15-14.82,8.11-17S241.88,552,248.8,566.55Z"/>
            <path class="cls-29" d="M246.43,566.55s.2-12.35-8.3-14.24S243.07,560.36,246.43,566.55Z"/>
            <path class="cls-29" d="M243.66,566.55s-5.34-14.15-18.39-14.48S235.55,557.26,243.66,566.55Z"/>
            <path class="cls-29" d="M242.54,566.55s-7-5.75-18.85-5.31S239.64,564.78,242.54,566.55Z"/>
          </g>
          <ellipse class="cls-24" cx="651.5" cy="627.78" rx="22.46" ry="2.85"/>
          <ellipse class="cls-24" cx="915.29" cy="727" rx="22.46" ry="2.85"/>
          <ellipse class="cls-24" cx="988.8" cy="705.85" rx="22.46" ry="2.85"/>
          <ellipse class="cls-5" cx="545.54" cy="711.55" rx="15.86" ry="2.85"/>
          <g>
            <line class="cls-4" x1="1123.41" y1="510.82" x2="1207.69" y2="510.82"/>
            <line class="cls-4" x1="1122.59" y1="512.44" x2="1206.87" y2="512.44"/>
            <line class="cls-4" x1="1121.83" y1="514.07" x2="1206.06" y2="514.07"/>
            <line class="cls-4" x1="1121.78" y1="515.7" x2="1206.06" y2="515.7"/>
            <line class="cls-4" x1="1120.97" y1="517.32" x2="1205.25" y2="517.32"/>
            <line class="cls-4" x1="1120.15" y1="518.95" x2="1204.43" y2="518.95"/>
            <line class="cls-4" x1="1120.15" y1="520.58" x2="1204.43" y2="520.58"/>
            <line class="cls-4" x1="1119.34" y1="522.2" x2="1203.62" y2="522.2"/>
          </g>
          <line class="cls-6" x1="1084.64" y1="453.9" x2="1256.58" y2="452.5"/>
          <path class="cls-9" d="M1230,613.72s10.58,1.47,1.63,6.35l4.88-1.62h0s4.94-2.14,4.91-4.73S1230,613.72,1230,613.72Z"/>
          <path class="cls-33" d="M176.93,512.38s691.35-102.25,942.17,0l12.76,82.08-947.27,1.29Z"/>
          <path class="cls-34" d="M546.71,528.84c393.83-40.31,528.76-53,544.53-53.24,12-.17,20.45-.68,37.37-1.27,154.76-5.39,232.72-8.2,261.59-13.95,74.37-14.81,94.36-30.86,115.38-20.28,10.08,5.07-13.28,138.82-13.28,138.82H538.14Z"/>
          <path class="cls-35" d="M141.3,440.1s268.37,41.83,353.53,43.1,441.47,23.56,495.56,34.6,19.28,61.12,19.28,61.12H156.72Z"/>
          <polygon class="cls-14" points="155.23 543.53 1484.75 515.4 1484.75 774.91 155.23 774.91 155.23 543.53"/>
          <path class="cls-36" d="M176.28,513.23c22.2.27,44.24,1.6,66.44,1.77,27.44.22,54.56-1.76,82-.91,15.49.48,31,1.07,46.49,1.37,14,.26,28.05.14,42,.77,28.67,1.27,56.54,4.53,84.86,6.62,60.25,4.44,121.44,5,182.59,6,22,.36,43.47.09,65.2-.62a117.8,117.8,0,0,1,12.06-1c6.83-.34,13.68-.49,20.52-.52-3.76-.08-7-.12-9.57-.12-23.15,0-73.27,1.94-100.27,1s-38.57,0-77.14-1.46S508,520.74,481,519.77s-57.85-4.87-82.27-5.35-43.71,1-78.43-1-66.84,1.45-102.83-.49c-24.39-1.31-50.51-2.63-66.86-3.34v4C159.15,513.17,168,513.13,176.28,513.23Z"/>
          <path class="cls-16" d="M1668.6,837.45q-10.33-114.18-19.26-228.53c-3.32-41.73-6.35-83.48-8.71-125.27-109,.59-214.72,1.92-232.58,8.38-43.85,15.87-90.58,22.12-135.68,30.53-44.95,8.42-91.17,22-136.5,24.22-59.4,2.83-118.18,12.76-177.69,15.06-61,2.37-120.06,1.83-181-3.26-52.77-4.41-105.63-.42-158.38-4.76-54.07-4.44-107.28-19.7-161.35-23.69-39-2.87-76.87-7.06-115.63-13-32-5-62.6-17.77-94.35-22.67-16.49-2.55-163.42,6-298.25,14.07Q-49.37,568.72-48,629c1.75,80.87,3.27,161.82,1.84,242.72-.63,35.66-1.73,71.31-2.76,107Q103.51,986.38,256,988.85q708.48,11.45,1417.62-91.36Q1671.34,867.46,1668.6,837.45Z"/>
          <g class="cls-17">
            <path class="cls-18" d="M1649.34,608.92q-3.69-46.36-6.74-92.77c-128.9-7.35-264.42-15-280.7-11.53-4.57,1.84-9.2,3.68-13.88,5.45a354.86,354.86,0,0,1-60.4,17.16c-44.88,8.52-94.59,8.61-138,19.35,26.29,2.2,53.19,1.13,79.55-.17,18.41-.91,36.84-1.53,55.24-2.41,14.29-.69,28.6-1.47,42.95-1.55,10.6-.05,25.56-.43,34.66,3.06,7.27,2.81,4.71,7.19-.12,10.42-7.83,5.21-19.36,9-30.29,12.14a424.7,424.7,0,0,1-45.74,10.45,349,349,0,0,1-46.33,5.32c-10.43.38-23.06.4-31.78-3.1-.49-.21-.59-.5-.17-.75,9.71-6,28.39-6,36.7-12.72-20.5-4.36-45-2-66.2-.9-26.72,1.35-53.61,3.14-80.46,3.58-57.09.95-113.19-7.46-170.31-6.88-29.69.29-59.37,1-89.07,1.24-29.42.18-58.83.14-88.25-.34-21.66-.36-43.47-.14-65.1-1-19-.72-40-2.08-55.73-8.2-.61-.24-.59-.75.23-.88,1.77-.28,3.6-.57,5.45-.73,12.49-1.15,25.13-.31,37.67,0,14.19.33,28.44-.53,42.5-1.39,14.32-.85,28.63-1.87,43-2.44,6.88-.26,13.72-.35,20.58-.39q-18-.62-36.15-1.54c-50.57-2.62-101.24-.25-151.79-2.83-51.83-2.64-102.82-11.72-154.65-14.09-37.42-1.71-73.67-4.2-110.83-7.77-30.64-2.94-60-10.56-90.42-13.48-28.92-2.77-59.08-7.55-88.24-8v6.3q8.91.39,17.79,1.05c56,4.14,109.56,14.4,163.92,22.19,13.54,2,27.18,3.76,41,5,13,1.2,25.92,1.73,39.1,2,21.34.53,44.89,1.18,63.49,7.32.54.18.64.64,0,.82-11,2.9-23.31,3.94-35.46,4.32-23,.71-46-.66-69.08-.66-26.21,0-51.87,3.25-77.29,6.33-14.3,1.74-28.61,3.85-43.07,5.23-9.33.89-18.84,1.29-28.23,2-10.09.82-20.79,1.8-29.85,4.4A44.25,44.25,0,0,0,182,570c-1.81.86-2,.87-.3,1.87a31.64,31.64,0,0,0,6.82,3c13.74,4.2,31.28,4.84,46.83,5.22,17.33.4,34.65.07,52,0,15.26-.06,30.43.75,45.69,1,18.53.28,40.67.15,56.72,5.74.42.16.57.41.32.65-4.19,4.08-10.68,4.7-18.86,5.1-7.45.36-14.84,1.49-22.22,2.15-6.36.56-12.77,1-19.19,1.47-14.48.94-29,1.57-43.58,2.2-29.67,1.26-58.86,3.33-88.27,5.81-17.07,1.43-34.18,2.76-51.39,3.59V768.08l1514.6-15.93Q1655,680.54,1649.34,608.92Z"/>
          </g>
          <g class="cls-19">
            <path class="cls-20" d="M330,535c14,2,28.11,3.89,42.44,5.18,13.46,1.24,26.82,1.8,40.46,2.13,22.08.55,46.44,1.22,65.68,7.59.56.18.66.66,0,.84-11.34,3-24.12,4.09-36.68,4.48-23.84.73-47.65-.68-71.48-.68-27.12,0-53.67,3.36-80,6.56-14.8,1.8-29.6,4-44.56,5.41-9.66.93-19.49,1.34-29.21,2.11-10.44.84-21.51,1.86-30.88,4.55a47.12,47.12,0,0,0-7.17,2.52c-1.87.89-2,.91-.3,1.93a32.25,32.25,0,0,0,7.06,3.08c14.21,4.35,32.36,5,48.45,5.4,17.92.42,35.85.07,53.79,0,15.79-.06,31.48.78,47.28,1.07,19.17.29,42.07.16,58.68,5.95.43.16.59.42.33.67-4.34,4.23-11.05,4.87-19.52,5.29-7.7.36-15.34,1.54-23,2.22q-9.87.87-19.84,1.53c-15,1-30,1.62-45.1,2.27-30.7,1.31-60.89,3.46-91.32,6-8.9.75-126.6,0-243.53-.74q.21,9.27.41,18.54c1.14,52.74,2.18,105.51,2.37,158.28l1713.74,44.89q-10.07-111.52-18.79-223.2c0-.25,0-.49,0-.74-95.27,2.33-185.76,4.63-191.82,6-12.4,2.79-26,5.63-36.6,10.19-2.42,1-6.39,2.73-6,4.61.63,3.32,8.85,5.79,13.5,7.42,9.83,3.46,27.47,8.47,22.72,16.15-2.45,3.93-10,5.68-17.12,6.63-10.84,1.44-22.07,2.49-33.06,3.56-57.38,5.55-115.84,6-174,6h-90.43c-13.2,0-26.49.22-39.7,0-11.26-.17-22.69-.76-33-3.34-.64-.15-.58-.68,0-.84,32.13-9.28,71.17-10.09,107-10.75,11.8-.22,23.58-.36,35.37-.66,13.36-.33,26.64-1.12,40-1.76,15-.73,30-1.39,45-2.1,13.77-.67,27.56-1.65,41.38-2,10.55-.29,22.3-.3,31.93-2.88a34.87,34.87,0,0,0,7.38-2.71c2.5-1.38,1.78-2-1.56-2.57a73,73,0,0,0-14.52-.65c-10.36.42-20.5,1.65-30.81,2.22-15.09.84-30.22,1.21-45.37,1.21-30.35,0-60.65-1.09-91-1.18-27.49-.1-55,.23-82.41.73-15.53.82-31,2-46.15,3.87-14.38,1.79-28.45,4.24-42.79,6.1-13.75,1.78-27.66,3.32-41.74,4.25-27.93,1.86-56.68,1.55-84.74.69-21.34-.65-42.64-1.91-63.54-4.2-60.38-1.85-120.87-5.15-181.13-2,23.8,4.36,49.22,5.87,74.25,6.81,23.74.9,47.67,1.7,71.47,2,23.37.34,46.8-.13,70.16.74,21.09.8,42.95,2.47,61.59,8,.67.2.56.62,0,.85-13.5,5.17-32.36,5.94-48.52,6.19-19.4.35-38.79-.44-58.14-1.13-24.67-.87-49.49-.72-74.2-.94-29-.25-57.94-.57-86.89-1.27-30.59-.75-60.85-2.27-91.27-4.12-30-1.82-60-3.53-90.26-3.84s-60.21,0-90.3-.38c-12.71-.14-25.48-.09-38.17-.35-9.45-.2-19.45-.81-27-4.07-.41-.17-.34-.51,0-.69,10.34-5.57,27.13-7,41.23-7.69,19.45-1,39.05-.65,58.55-.37,23.54.31,47.11.13,70.65.27,15.37.06,30.75.11,46.13,0,11.63-.08,23.28-.44,34.91-.19,10.46.21,21,.6,31.46.25,9.72-.32,20.12-1.12,28.14-4.21-32.76-5.41-66.95-7.49-101.15-8.53-34-1-68.13-1.46-102.13-2.77-30.75-1.17-61.35-4.07-92.15-4.76-14.37-.34-28.9.49-43.24.85-17.41.4-35.18.85-52.53-.31-9.23-.63-23.45-1.6-27.6-6.8-.12-.14,0-.39.24-.49,18-7.57,44.56-8.27,66.6-9.44,30.8-1.67,61-5.28,91.81-7.11,13.33-.8,26-1.7,38.32-4.64,9.86-2.36,19-5.06,29.51-6.52s23.47-2.32,32-6.18c1.38-.64,1-.58-.33-1.17-.9-.38-1.8-.77-2.77-1.1a45.27,45.27,0,0,0-4.86-1.46,82.31,82.31,0,0,0-11.73-1.82c-18.71-1.56-37.81.5-56.54.88-16.1.32-33.79-.24-45.76-6.59-.44-.25-.29-.61.19-.78,9.84-3.67,22.43-5.08,34.15-6.09,13.15-1.12,26.42-1.63,39.65-2.42,12.19-.73,24.34-1.71,36.56-2.4,14.67-.83,29.42-1.67,43.8-3.41,10.56-1.28,21.28-3,30.66-5.87,6.34-2,18-5.82,17.38-10.42a3.5,3.5,0,0,0-1-1.85c-35.75-3.8-71.39-8.57-107.4-10.23-38.71-1.77-76.22-4.35-114.66-8-31.71-3.05-62.08-11-93.56-14-29.92-2.87-61.12-7.82-91.29-8.32v6.53q9.22.39,18.4,1.08C218.34,516.31,273.72,526.94,330,535Z"/>
          </g>
          <g>
            <path class="cls-24" d="M833.94,549.81c-1.44,0-3.36.05-5.28.15-3.72.15-7.07.59-7.93,1.48-.11.11-.07.2.13.29,3.62,1.64,10.93,1.19,15.88,1,1.81-.07,12-.24,11.36-1.72S836.85,549.75,833.94,549.81Z"/>
            <path class="cls-24" d="M894.05,544c-1.23-1.16-8.65-.67-11-.59-1,0-3.35,0-5.3.18l-1.62.07c-1,0-4.37.64-2.59,1.22,2,.64,5.24.62,7.65.64,2.61,0,5.2-.1,7.75-.3a22.91,22.91,0,0,0,4.53-.59C893.9,544.51,894.32,544.28,894.05,544Z"/>
            <path class="cls-24" d="M481,593.35c-1.43,0-3.35,0-5.26.15-3.72.15-7.06.59-7.93,1.48-.12.1-.08.21.11.3,3.63,1.64,10.95,1.18,15.89,1,1.8-.08,12-.24,11.37-1.71S483.87,593.29,481,593.35Z"/>
            <path class="cls-24" d="M541.46,598c-1.23-1.16-8.65-.68-11.05-.6-1,0-3.34,0-5.28.19-.55,0-1.09,0-1.63.08-1,0-4.38.63-2.6,1.2,2,.63,5.24.62,7.66.64,2.6,0,5.21-.09,7.75-.3a22.63,22.63,0,0,0,4.51-.58C541.31,598.44,541.72,598.22,541.46,598Z"/>
            <path class="cls-24" d="M866.47,602.17c-1,0-2.34,0-3.67.09-2.61.12-4.94.42-5.54,1-.07.07-.06.15.08.21,2.54,1.15,7.64.83,11.09.68,1.27-.06,8.36-.18,8-1.21S868.52,602.12,866.47,602.17Z"/>
            <path class="cls-24" d="M908.72,605.38c-.86-.8-6-.47-7.72-.42-.71,0-2.33,0-3.68.13-.39,0-.76,0-1.13.06-.73,0-3.06.43-1.82.85a22.13,22.13,0,0,0,5.36.44c1.81,0,3.62-.06,5.39-.21a16.94,16.94,0,0,0,3.17-.4C908.62,605.72,908.89,605.56,908.72,605.38Z"/>
          </g>
          <path class="cls-24" d="M1091.44,607.53c0,1.5-20.93,2.71-46.7,2.71S998,609,998,607.53s20.91-2.72,46.7-2.72S1091.44,606,1091.44,607.53Z"/>
          <path class="cls-37" d="M708.93,522.26c-9.74-10.94-28.12-4.2-28.12-4.2-7.39-11.5-19.84-5.2-19.84-5.2-15.06-14-26.48-.4-26.48-.4a24.36,24.36,0,0,0-15-13.87c-11.42-3.64-21.11,2.14-21.11,2.14-22.07-13.29-32.78,3.81-32.78,3.81-8.39-3.33-14.15-.24-14.15-.24-9.15,5.09-4,12.76-4,12.76-28.07,3.72-11,11.32-11,11.32l4.06,1.42,178.23-1.3,8.57-2.51C732.06,521,708.93,522.26,708.93,522.26Z"/>
          <path class="cls-27" d="M148.25,463.12s12,2.42,5.81,11.85c33.61-10.4,53.12-1,51.46,11.61,34.45-2.17,44,20.33,30.71,25.41,0,0,28.64-9.92,55.2,3.87,26.56-12.1,89.64,5.32,105.83,14.27l-245.78.49Z"/>
          <g>
            <path class="cls-32" d="M1435.57,578.31s7-4.75,20.59-5.92-14.56-6.22-24.61,5.92C1431.55,578.31,1427,583.7,1435.57,578.31Z"/>
            <path class="cls-32" d="M1416.49,579s20.59-15.17,32.64-19.22-11.55-4.38-27.62,8.26C1421.51,568,1413.48,575.61,1416.49,579Z"/>
            <path class="cls-32" d="M1410.46,579s13.68-24.62,19.9-27.65-9.85-4.72-19.9,15.34C1410.46,566.67,1406.45,577.29,1410.46,579Z"/>
            <path class="cls-32" d="M1403.18,579s5.27-22.59,10.3-26S1394.39,556.72,1403.18,579Z"/>
            <path class="cls-32" d="M1400.17,579s.25-18.82-10.55-21.72S1395.9,569.54,1400.17,579Z"/>
            <path class="cls-32" d="M1396.65,579s-6.78-21.57-23.35-22.08S1386.36,564.82,1396.65,579Z"/>
            <path class="cls-32" d="M1395.23,579a33.59,33.59,0,0,0-23.94-8.09C1356.23,571.56,1391.55,576.28,1395.23,579Z"/>
          </g>
          <g>
            <path class="cls-29" d="M693,552.41s5.91-4.49,17.3-5.6-12.24-5.9-20.68,5.6C689.59,552.41,685.79,557.52,693,552.41Z"/>
            <path class="cls-29" d="M676.93,553.05s17.3-14.38,27.43-18.21-9.7-4.15-23.21,7.83C681.15,542.67,674.39,549.85,676.93,553.05Z"/>
            <path class="cls-29" d="M671.86,553.05s11.5-23.32,16.73-26.2-8.29-4.47-16.73,14.54C671.86,541.39,668.48,551.45,671.86,553.05Z"/>
            <path class="cls-29" d="M665.74,553.05s4.43-21.41,8.65-24.6S658.35,532,665.74,553.05Z"/>
            <path class="cls-29" d="M663.21,553.05s.21-17.83-8.87-20.58S659.62,544.1,663.21,553.05Z"/>
            <path class="cls-29" d="M660.25,553.05s-7.32-7.31-21.25-7.8S651.6,539.63,660.25,553.05Z"/>
            <path class="cls-29" d="M659.06,553.05a26.64,26.64,0,0,0-20.13-7.67C626.27,546,656,550.49,659.06,553.05Z"/>
          </g>
          <path class="cls-29" d="M-48.13,622.13l1391.73-56.6L1341.13,555c-4.78.1-12.42.25-21.79.37-79,1-138.48-2-155.8-2.81-94.44-4.51-189.26-6.33-283.85-9.75-144.78-5.24-160.12-2.32-420.46-6.51-51.3-.83-305.74.18-509.36-.24Q-49.11,579.11-48.13,622.13Z"/>
          <g>
            <path class="cls-29" d="M261.4,535.22s5.54-3.11,16.21-3.88-11.46-4.08-19.37,3.88C258.24,535.22,254.68,538.75,261.4,535.22Z"/>
            <path class="cls-29" d="M246.37,535.66s16.22-9.95,25.71-12.6-9.1-2.88-21.75,5.41C250.33,528.47,244,533.45,246.37,535.66Z"/>
            <path class="cls-29" d="M241.63,535.66s10.77-16.14,15.67-18.13-7.76-3.1-15.67,10.06C241.63,527.59,238.47,534.55,241.63,535.66Z"/>
            <path class="cls-29" d="M235.9,535.66s4.15-14.81,8.1-17S229,521.07,235.9,535.66Z"/>
            <path class="cls-29" d="M233.52,535.66s.2-12.34-8.3-14.24S230.16,529.47,233.52,535.66Z"/>
            <path class="cls-29" d="M230.75,535.66s-5.33-14.14-18.38-14.48S222.65,526.37,230.75,535.66Z"/>
            <path class="cls-29" d="M229.63,535.66s-7-5.75-18.84-5.31S226.73,533.89,229.63,535.66Z"/>
          </g>
          <path class="cls-38" d="M585.25,478.83s109.79-9,276.57-4,324.64,27.47,202.64,33.59-137.05,6.12-137.05,6.12l-296,0S524.51,498.83,585.25,478.83Z"/>
          <g>
            <path class="cls-20" d="M1405.42,664.26s22.17-14.77,26.66-17.41c5.51-3.25-4.62-7.93-21,3.37C1411,650.22,1400.94,658.39,1405.42,664.26Z"/>
            <path class="cls-20" d="M1395,663.34s-4.46-13.69-29-13.29S1395,663.34,1395,663.34Z"/>
            <path class="cls-20" d="M1401.68,665.34s7.48-30.68,18.37-39.09c9.34-7.21-10.44-9.18-21.56,8S1401.68,665.34,1401.68,665.34Z"/>
          </g>
          <path class="cls-39" d="M127.75,450.42c-.74-9.8-23.29-17.8-8.08-25.18C148.06,411.48,210,407.33,284,416.3c137.17,16.63,195.79-9.68,327.28,10.32,23.56,3.58,42.06,6.28,77.71,4.32,45.79-2.53,13,7.32,116.3-5.7A206.65,206.65,0,0,1,876,428.5c50.46,11.16,109.76-1.64,156.14,3.25,20.5,2.16,160.69-14.22,172.41-15.45,256.17-26.84,253.41,21.56,253.1,24.23,0,0,14,1.25,28.08,1.82h.16c.07,0-12.66,79.67-12.66,79.67H182.44Z"/>
          <g>
            <polygon class="cls-40" points="149.51 449.25 149.51 522.91 763.54 522.91 763.54 453.06 149.51 449.25"/>
            <rect class="cls-41" x="149.51" y="443.11" width="614.03" height="11.43"/>
            <rect class="cls-42" x="149.51" y="437.39" width="614.03" height="11.43"/>
            <g>
              <g>
                <rect class="cls-43" x="350.61" y="467.88" width="11.48" height="6.35"/>
                <rect class="cls-43" x="356.35" y="475.78" width="11.48" height="6.35"/>
              </g>
              <g>
                <rect class="cls-43" x="387.47" y="492.57" width="11.48" height="6.35"/>
                <rect class="cls-43" x="393.22" y="500.47" width="11.48" height="6.35"/>
              </g>
              <g>
                <rect class="cls-43" x="502.14" y="468.65" width="11.48" height="6.35"/>
                <rect class="cls-43" x="507.88" y="476.55" width="11.48" height="6.35"/>
              </g>
              <g>
                <rect class="cls-43" x="617.44" y="471.83" width="11.48" height="6.35"/>
                <rect class="cls-43" x="623.18" y="479.73" width="11.48" height="6.35"/>
              </g>
              <g>
                <rect class="cls-43" x="551.02" y="485.44" width="11.48" height="6.35"/>
                <rect class="cls-43" x="556.76" y="493.35" width="11.48" height="6.35"/>
              </g>
              <g>
                <rect class="cls-43" x="727.31" y="471.83" width="11.48" height="6.35"/>
                <rect class="cls-43" x="733.05" y="479.73" width="11.48" height="6.35"/>
              </g>
              <rect class="cls-43" x="325.42" y="491.8" width="11.48" height="6.35"/>
              <rect class="cls-43" x="250.06" y="475.78" width="11.48" height="6.35"/>
              <g>
                <rect class="cls-43" x="275.63" y="496.52" width="11.48" height="6.35"/>
                <rect class="cls-43" x="281.37" y="504.43" width="11.48" height="6.35"/>
              </g>
              <g>
                <rect class="cls-43" x="165.27" y="471.83" width="11.48" height="6.35"/>
                <rect class="cls-43" x="171.01" y="479.73" width="11.48" height="6.35"/>
              </g>
            </g>
          </g>
          <g>
            <polygon class="cls-40" points="1458.27 447.91 1458.27 522.94 755.63 520.22 755.63 451.65 1458.27 447.91"/>
            <rect class="cls-41" x="755.63" y="448.01" width="702.64" height="6.51" transform="translate(2213.9 902.53) rotate(-180)"/>
            <rect class="cls-44" x="765.39" y="436.63" width="692.89" height="12.77" transform="translate(2223.66 886.03) rotate(-180)"/>
            <g>
              <g>
                <rect class="cls-43" x="1215.02" y="466.2" width="13.14" height="6.23"/>
                <rect class="cls-43" x="1208.45" y="473.95" width="13.14" height="6.23"/>
              </g>
              <g>
                <rect class="cls-43" x="1172.83" y="490.44" width="13.14" height="6.23"/>
                <rect class="cls-43" x="1166.26" y="498.19" width="13.14" height="6.23"/>
              </g>
              <g>
                <rect class="cls-43" x="1041.62" y="466.96" width="13.14" height="6.23"/>
                <rect class="cls-43" x="1035.05" y="474.72" width="13.14" height="6.23"/>
              </g>
              <g>
                <rect class="cls-43" x="909.68" y="470.08" width="13.14" height="6.23"/>
                <rect class="cls-43" x="903.11" y="477.83" width="13.14" height="6.23"/>
              </g>
              <g>
                <rect class="cls-43" x="985.68" y="483.44" width="13.14" height="6.23"/>
                <rect class="cls-43" x="979.11" y="491.2" width="13.14" height="6.23"/>
              </g>
              <g>
                <rect class="cls-43" x="783.95" y="470.08" width="13.14" height="6.23"/>
                <rect class="cls-43" x="777.38" y="477.83" width="13.14" height="6.23"/>
              </g>
              <rect class="cls-43" x="1243.83" y="489.67" width="13.14" height="6.23"/>
              <rect class="cls-43" x="1330.08" y="473.95" width="13.14" height="6.23"/>
              <g>
                <rect class="cls-43" x="1300.81" y="494.31" width="13.14" height="6.23"/>
                <rect class="cls-43" x="1294.24" y="502.07" width="13.14" height="6.23"/>
              </g>
              <g>
                <rect class="cls-43" x="1427.1" y="470.08" width="13.14" height="6.23"/>
                <rect class="cls-43" x="1420.53" y="477.83" width="13.14" height="6.23"/>
              </g>
            </g>
          </g>
          <g>
            <path class="cls-40" d="M1639.11,455,1365,456.41V525l278.23,1.08Q1640.89,490.52,1639.11,455Z"/>
            <path class="cls-41" d="M1639,452.77H1365v6.51h274.32Z"/>
            <path class="cls-44" d="M1638.47,441.39h-263.7v12.77h264.3Q1638.76,447.77,1638.47,441.39Z"/>
            <g>
              <g>
                <rect class="cls-43" x="1519.06" y="474.83" width="13.14" height="6.23"/>
                <rect class="cls-43" x="1512.49" y="482.59" width="13.14" height="6.23"/>
              </g>
              <g>
                <rect class="cls-43" x="1595.06" y="488.2" width="13.14" height="6.23"/>
                <rect class="cls-43" x="1588.49" y="495.96" width="13.14" height="6.23"/>
              </g>
              <g>
                <rect class="cls-43" x="1393.34" y="474.83" width="13.14" height="6.23"/>
                <rect class="cls-43" x="1386.77" y="482.59" width="13.14" height="6.23"/>
              </g>
            </g>
          </g>
          <g>
            <path class="cls-40" d="M-52.16,450.94q.73,35.94,1.6,71.88l341.11,1.32v-75Z"/>
            <path class="cls-41" d="M-52.19,449.22q.06,3.25.13,6.5H290.55v-6.5Z"/>
            <path class="cls-44" d="M-52.42,437.83q.14,6.39.25,12.77H290.55V437.83Z"/>
            <g>
              <g>
                <rect class="cls-43" x="47.3" y="467.4" width="13.14" height="6.23"/>
                <rect class="cls-43" x="40.73" y="475.16" width="13.14" height="6.23"/>
              </g>
              <g>
                <rect class="cls-43" x="5.1" y="491.64" width="13.14" height="6.23"/>
                <rect class="cls-43" x="-1.46" y="499.4" width="13.14" height="6.23"/>
              </g>
              <rect class="cls-43" x="76.11" y="490.88" width="13.14" height="6.23"/>
              <rect class="cls-43" x="162.35" y="475.16" width="13.14" height="6.23"/>
              <g>
                <rect class="cls-43" x="133.09" y="495.52" width="13.14" height="6.23"/>
                <rect class="cls-43" x="126.52" y="503.28" width="13.14" height="6.23"/>
              </g>
              <g>
                <rect class="cls-43" x="259.38" y="471.28" width="13.14" height="6.23"/>
                <rect class="cls-43" x="252.81" y="479.04" width="13.14" height="6.23"/>
              </g>
            </g>
          </g>
          <g class="cls-45">
            <path class="cls-46" d="M554,420h-8.43v-3.8a2.3,2.3,0,0,0,1.22-2,2.44,2.44,0,0,0-4.88,0,2.3,2.3,0,0,0,1.22,2V420H472.35v-3.8a2.3,2.3,0,0,0,1.22-2,2.44,2.44,0,0,0-4.88,0,2.3,2.3,0,0,0,1.22,2V420H399.14v-3.8a2.3,2.3,0,0,0,1.22-2,2.44,2.44,0,0,0-4.88,0,2.3,2.3,0,0,0,1.22,2V420H325.93v-3.8a2.3,2.3,0,0,0,1.22-2,2.44,2.44,0,0,0-4.88,0,2.3,2.3,0,0,0,1.22,2V420H252.72v-3.8a2.3,2.3,0,0,0,1.22-2,2.44,2.44,0,0,0-4.88,0,2.3,2.3,0,0,0,1.22,2V420H179.51v-3.8a2.3,2.3,0,0,0,1.22-2,2.44,2.44,0,0,0-4.88,0,2.3,2.3,0,0,0,1.22,2V420H106.3v-3.8a2.3,2.3,0,0,0,1.22-2,2.44,2.44,0,0,0-4.88,0,2.3,2.3,0,0,0,1.22,2V420H56.27v3.49h47.59v15.12h2.44V423.51h70.77v15.12h2.44V423.51h70.77v15.12h2.44V423.51h70.77v15.12h2.44V423.51H396.7v15.12h2.44V423.51h70.77v15.12h2.44V423.51h70.77v15.12h2.44V423.51H554Z"/>
            <path class="cls-47" d="M249.85,414.37c1.06.9,2.93-.82,1.92-1.78C250.6,411.48,248.78,413.47,249.85,414.37Z"/>
            <path class="cls-47" d="M323.06,414.37c1.06.9,2.93-.82,1.92-1.78C323.82,411.48,322,413.47,323.06,414.37Z"/>
            <path class="cls-47" d="M396.27,414.34c1.06.9,2.93-.81,1.92-1.78C397,411.46,395.2,413.45,396.27,414.34Z"/>
            <path class="cls-47" d="M176.64,414.34c1.06.9,2.93-.81,1.92-1.78C177.39,411.46,175.57,413.45,176.64,414.34Z"/>
            <path class="cls-48" d="M107.52,420H106.3v-3.8a2.27,2.27,0,0,0-.22-4.13,2.17,2.17,0,0,1,.22,1,2.38,2.38,0,0,1-2.44,2.33,2.52,2.52,0,0,1-1-.21,2.43,2.43,0,0,0,2.22,1.37,2.63,2.63,0,0,0,.49,0v22.14h.73V423.51h70.77v-1.16H107.52Z"/>
            <path class="cls-48" d="M253.94,422.35V420h-1.22v-3.78a2.3,2.3,0,0,0,1.22-2,2.33,2.33,0,0,0-1.44-2.12,2.22,2.22,0,0,1,.22,1,2.38,2.38,0,0,1-2.44,2.32,2.51,2.51,0,0,1-1-.2,2.43,2.43,0,0,0,2.22,1.37,2.63,2.63,0,0,0,.49-.05v22.15h.73V423.51h70.77v-1.16Z"/>
            <path class="cls-48" d="M327.15,422.35V420h-1.22v-3.78a2.3,2.3,0,0,0,1.22-2,2.33,2.33,0,0,0-1.44-2.12,2.22,2.22,0,0,1,.22,1,2.38,2.38,0,0,1-2.44,2.32,2.55,2.55,0,0,1-1-.2,2.43,2.43,0,0,0,2.22,1.37,2.63,2.63,0,0,0,.49-.05v22.15h.73V423.51H396.7v-1.16Z"/>
            <path class="cls-48" d="M400.36,422.35V420h-1.22v-3.8a2.28,2.28,0,0,0-.21-4.13,2.32,2.32,0,0,1,.21,1,2.38,2.38,0,0,1-2.44,2.33,2.56,2.56,0,0,1-1-.21,2.43,2.43,0,0,0,2.22,1.37,2.63,2.63,0,0,0,.49,0v22.14h.73V423.51h70.77v-1.16Z"/>
            <path class="cls-48" d="M473.57,420h-1.22v-3.8a2.28,2.28,0,0,0-.21-4.13,2.32,2.32,0,0,1,.21,1,2.38,2.38,0,0,1-2.44,2.33,2.59,2.59,0,0,1-1-.21,2.43,2.43,0,0,0,2.22,1.37,2.63,2.63,0,0,0,.49,0v22.14h.73V423.51h70.77v-1.16H473.57Z"/>
            <path class="cls-48" d="M180.73,422.35V420h-1.22v-3.8a2.27,2.27,0,0,0-.22-4.13,2.17,2.17,0,0,1,.22,1,2.38,2.38,0,0,1-2.44,2.33,2.52,2.52,0,0,1-1-.21,2.43,2.43,0,0,0,2.22,1.37,2.63,2.63,0,0,0,.49,0v22.14h.73V423.51h70.77v-1.16Z"/>
          </g>
          <g class="cls-45">
            <path class="cls-46" d="M1043.57,420h-8.43v-3.8a2.3,2.3,0,0,0,1.22-2,2.44,2.44,0,0,0-4.88,0,2.3,2.3,0,0,0,1.22,2V420H961.93v-3.8a2.3,2.3,0,0,0,1.22-2,2.44,2.44,0,0,0-4.88,0,2.3,2.3,0,0,0,1.22,2V420H888.72v-3.8a2.3,2.3,0,0,0,1.22-2,2.44,2.44,0,0,0-4.88,0,2.3,2.3,0,0,0,1.22,2V420H815.51v-3.8a2.32,2.32,0,0,0,1.22-2,2.44,2.44,0,0,0-4.88,0,2.3,2.3,0,0,0,1.22,2V420H742.3v-3.8a2.32,2.32,0,0,0,1.22-2,2.45,2.45,0,0,0-4.89,0,2.31,2.31,0,0,0,1.23,2V420H669.09v-3.8a2.32,2.32,0,0,0,1.22-2,2.45,2.45,0,0,0-4.89,0,2.32,2.32,0,0,0,1.22,2V420H595.87v-3.8a2.3,2.3,0,0,0,1.22-2,2.44,2.44,0,0,0-4.88,0,2.32,2.32,0,0,0,1.22,2V420H545.85v3.49h47.58v15.12h2.44V423.51h70.77v15.12h2.45V423.51h70.77v15.12h2.44V423.51h70.77v15.12h2.44V423.51h70.77v15.12h2.44V423.51h70.77v15.12h2.44V423.51h70.77v15.12h2.44V423.51h8.43Z"/>
            <path class="cls-47" d="M739.42,414.37c1.07.9,2.93-.82,1.92-1.78C740.18,411.48,738.36,413.47,739.42,414.37Z"/>
            <path class="cls-47" d="M812.63,414.37c1.07.9,2.93-.82,1.92-1.78S811.57,413.47,812.63,414.37Z"/>
            <path class="cls-47" d="M885.84,414.34c1.07.9,2.93-.81,1.92-1.78S884.78,413.45,885.84,414.34Z"/>
            <path class="cls-47" d="M666.21,414.34c1.07.9,2.93-.81,1.92-1.78S665.15,413.45,666.21,414.34Z"/>
            <path class="cls-48" d="M597.09,420h-1.22v-3.8a2.28,2.28,0,0,0-.21-4.13,2.17,2.17,0,0,1,.21,1,2.38,2.38,0,0,1-2.44,2.33,2.59,2.59,0,0,1-1-.21,2.43,2.43,0,0,0,2.22,1.37,2.63,2.63,0,0,0,.49,0v22.14h.73V423.51h70.77v-1.16H597.09Z"/>
            <path class="cls-48" d="M743.52,422.35V420H742.3v-3.78a2.27,2.27,0,0,0-.22-4.13,2.22,2.22,0,0,1,.22,1,2.39,2.39,0,0,1-2.44,2.32,2.6,2.6,0,0,1-1-.2,2.46,2.46,0,0,0,2.23,1.37,2.52,2.52,0,0,0,.48-.05v22.15h.74V423.51h70.77v-1.16Z"/>
            <path class="cls-48" d="M816.73,422.35V420h-1.22v-3.78a2.27,2.27,0,0,0-.22-4.13,2.22,2.22,0,0,1,.22,1,2.39,2.39,0,0,1-2.44,2.32,2.6,2.6,0,0,1-1-.2,2.46,2.46,0,0,0,2.23,1.37,2.52,2.52,0,0,0,.48-.05v22.15h.74V423.51h70.77v-1.16Z"/>
            <path class="cls-48" d="M889.94,422.35V420h-1.22v-3.8a2.27,2.27,0,0,0-.22-4.13,2.17,2.17,0,0,1,.22,1,2.39,2.39,0,0,1-2.44,2.33,2.61,2.61,0,0,1-1-.21,2.46,2.46,0,0,0,2.23,1.37,2.52,2.52,0,0,0,.48,0v22.14h.74V423.51h70.77v-1.16Z"/>
            <path class="cls-48" d="M963.15,420h-1.22v-3.8a2.27,2.27,0,0,0-.22-4.13,2.17,2.17,0,0,1,.22,1,2.39,2.39,0,0,1-2.44,2.33,2.61,2.61,0,0,1-1-.21,2.46,2.46,0,0,0,2.23,1.37,2.7,2.7,0,0,0,.49,0v22.14h.73V423.51h70.77v-1.16H963.15Z"/>
            <path class="cls-48" d="M670.31,422.35V420h-1.22v-3.8a2.27,2.27,0,0,0-.22-4.13,2.17,2.17,0,0,1,.22,1,2.39,2.39,0,0,1-2.45,2.33,2.59,2.59,0,0,1-1-.21,2.43,2.43,0,0,0,2.22,1.37,2.56,2.56,0,0,0,.49,0v22.14h.74V423.51h70.77v-1.16Z"/>
          </g>
          <g class="cls-45">
            <path class="cls-46" d="M1533.14,420h-8.43v-3.8a2.3,2.3,0,0,0,1.22-2,2.44,2.44,0,0,0-4.88,0,2.3,2.3,0,0,0,1.22,2V420H1451.5v-3.8a2.3,2.3,0,0,0,1.22-2,2.44,2.44,0,0,0-4.88,0,2.3,2.3,0,0,0,1.22,2V420h-70.77v-3.8a2.3,2.3,0,0,0,1.22-2,2.44,2.44,0,0,0-4.88,0,2.3,2.3,0,0,0,1.22,2V420h-70.77v-3.8a2.3,2.3,0,0,0,1.22-2,2.44,2.44,0,0,0-4.88,0,2.3,2.3,0,0,0,1.22,2V420h-70.77v-3.8a2.3,2.3,0,0,0,1.22-2,2.44,2.44,0,0,0-4.88,0,2.3,2.3,0,0,0,1.22,2V420h-70.77v-3.8a2.3,2.3,0,0,0,1.22-2,2.44,2.44,0,0,0-4.88,0,2.3,2.3,0,0,0,1.22,2V420h-70.77v-3.8a2.3,2.3,0,0,0,1.22-2,2.44,2.44,0,0,0-4.88,0,2.3,2.3,0,0,0,1.22,2V420h-47.59v3.49H1083v15.12h2.44V423.51h70.77v15.12h2.44V423.51h70.77v15.12h2.44V423.51h70.77v15.12h2.44V423.51h70.77v15.12h2.44V423.51h70.77v15.12h2.44V423.51h70.77v15.12h2.44V423.51h8.43Z"/>
            <path class="cls-47" d="M1229,414.37c1.06.9,2.93-.82,1.92-1.78C1229.75,411.48,1227.93,413.47,1229,414.37Z"/>
            <path class="cls-47" d="M1302.21,414.37c1.06.9,2.93-.82,1.92-1.78C1303,411.48,1301.14,413.47,1302.21,414.37Z"/>
            <path class="cls-47" d="M1375.42,414.34c1.06.9,2.93-.81,1.92-1.78C1376.17,411.46,1374.35,413.45,1375.42,414.34Z"/>
            <path class="cls-47" d="M1155.79,414.34c1.06.9,2.93-.81,1.91-1.78S1154.72,413.45,1155.79,414.34Z"/>
            <path class="cls-48" d="M1086.67,420h-1.22v-3.8a2.27,2.27,0,0,0-.22-4.13,2.17,2.17,0,0,1,.22,1,2.38,2.38,0,0,1-2.44,2.33,2.52,2.52,0,0,1-1-.21,2.43,2.43,0,0,0,2.22,1.37,2.63,2.63,0,0,0,.49,0v22.14h.73V423.51h70.77v-1.16h-69.55Z"/>
            <path class="cls-48" d="M1233.09,422.35V420h-1.22v-3.78a2.3,2.3,0,0,0,1.22-2,2.33,2.33,0,0,0-1.44-2.12,2.22,2.22,0,0,1,.22,1,2.38,2.38,0,0,1-2.44,2.32,2.51,2.51,0,0,1-1-.2,2.43,2.43,0,0,0,2.22,1.37,2.63,2.63,0,0,0,.49-.05v22.15h.73V423.51h70.77v-1.16Z"/>
            <path class="cls-48" d="M1306.3,422.35V420h-1.22v-3.78a2.3,2.3,0,0,0,1.22-2,2.33,2.33,0,0,0-1.44-2.12,2.22,2.22,0,0,1,.22,1,2.38,2.38,0,0,1-2.44,2.32,2.51,2.51,0,0,1-1-.2,2.43,2.43,0,0,0,2.22,1.37,2.63,2.63,0,0,0,.49-.05v22.15h.73V423.51h70.77v-1.16Z"/>
            <path class="cls-48" d="M1379.51,422.35V420h-1.22v-3.8a2.27,2.27,0,0,0-.22-4.13,2.17,2.17,0,0,1,.22,1,2.38,2.38,0,0,1-2.44,2.33,2.52,2.52,0,0,1-1-.21,2.43,2.43,0,0,0,2.22,1.37,2.63,2.63,0,0,0,.49,0v22.14h.73V423.51h70.77v-1.16Z"/>
            <path class="cls-48" d="M1452.72,420h-1.22v-3.8a2.27,2.27,0,0,0-.22-4.13,2.17,2.17,0,0,1,.22,1,2.38,2.38,0,0,1-2.44,2.33,2.52,2.52,0,0,1-1-.21,2.43,2.43,0,0,0,2.22,1.37,2.63,2.63,0,0,0,.49,0v22.14h.73V423.51h70.77v-1.16h-69.55Z"/>
            <path class="cls-48" d="M1159.88,422.35V420h-1.22v-3.8a2.27,2.27,0,0,0-.22-4.13,2.17,2.17,0,0,1,.22,1,2.38,2.38,0,0,1-2.44,2.33,2.52,2.52,0,0,1-1-.21,2.43,2.43,0,0,0,2.22,1.37,2.63,2.63,0,0,0,.49,0v22.14h.73V423.51h70.77v-1.16Z"/>
          </g>
          <path class="cls-39" d="M427.47,530.6H860.19V507.21c-7.48-4.34-31.89-6.92-45.8-3.82,0,0,4.35-8.43-27.36-12.42s-54.41,2.71-54.41,2.71-10.4-10.15-49.7-4.88c-12.61-5.87-45-5.32-48.36,2.17,0,0-24.41-9.35-61.74-7.11S535,495.29,535,495.29s-1-.2-2.91-.48c-7.79-1.17-30.37-3-51.07,1-23.7,4.62-23.22,9.19-21.17,12.77a23,23,0,0,0,1.77,2.46s-25.14-.77-38.28,8.56C416.81,524.25,421.37,528,427.47,530.6Z"/>
          <path class="cls-49" d="M1428.09,564.26c-99.57-3.07-204.52,49-259.35,52.69-96.3,6.54-271.25,33-352.73,15.68-4.65-1-67.59-14.54-67.59-14.54h0l-69.58-68.94,749.44-19.67Z"/>
          <g>
            <path class="cls-39" d="M335.26,535.28H129.43V514c3.56-4,15.17-6.31,21.79-3.49,0,0-2.07-7.67,13-11.3s25.88,2.46,25.88,2.46,4.94-9.25,23.64-4.44c6-5.35,21.43-4.84,23,2,0,0,11.61-8.52,29.37-6.48s18,10.4,18,10.4.5-.17,1.39-.43c3.7-1.06,14.44-2.74,24.29.93,11.27,4.2,11,8.37,10.07,11.63-.22.73-.53,1.47-.85,2.24,0,0,12-.71,18.21,7.79C340.33,529.5,338.16,532.93,335.26,535.28Z"/>
            <path class="cls-27" d="M319.91,535.28H144.84c-.56-1.24-.36-2.65,1.06-4.17,4.42-4.7,15.69-4,15.69-4s-11.17-5.57-4.26-9.31,16.39-.56,16.39-.56-9.3-7.07.92-10.65c.42-.15.85-.29,1.27-.41a21.36,21.36,0,0,1,15.57,1.43s1.62-3.85,7.43-4.71c6.52-1,10.38,2.27,10.38,2.27s3-5.32,13.29-5c14.3.44,15.09,5.85,15.09,5.85s4.64-4.24,10.81-3.59c5.22.54,5.18,4.76,5.18,4.76s5.35-7,22.47-4.88h0a2.44,2.44,0,0,1,.38,0c17.43,2.2,12.62,10.28,12.62,10.28s7.82-2.34,13.63-.68a9.83,9.83,0,0,1,2.67,1.16c5.57,3.57-.58,7.88-.85,8.07.43,0,10.59-1.19,14.68,3.7C322.74,528.94,322.16,532.61,319.91,535.28Z"/>
            <path class="cls-50" d="M266.62,532.85H133.72v-4.34c4-2.45,9.48-2,9.48-2s-8.6-6.21-3.24-10.4,12.67-.66,12.67-.66-7.16-7.9.75-11.92a12.15,12.15,0,0,1,13,1.11,8.08,8.08,0,0,1,5.76-5.28,8.36,8.36,0,0,1,8,2.52s2.32-6,10.29-5.62c11,.46,11.64,6.53,11.64,6.53s1.81-3.81,5.56-4.15a5.89,5.89,0,0,1,1.5,0c4,.6,5.29,5.34,5.29,5.34s10.71-6.29,14.57,4.06c7.92-5.73,12.82,2,12.82,2s8.22-3.56,12.61.52-.49,8.83-.7,9c.34-.06,8.19-1.33,11.34,4.13A11.85,11.85,0,0,1,266.62,532.85Z"/>
          </g>
          <g>
            <path class="cls-39" d="M117.92,529.45c-6.25-8.5-18.21-7.79-18.21-7.79.31-.77.63-1.51.84-2.24,1-3.26,1.2-7.43-10.07-11.63-9.85-3.67-20.58-2-24.29-.93-.89.26-1.38.43-1.38.43s-.24-8.36-18-10.4-29.37,6.48-29.37,6.48c-1.58-6.82-17-7.33-23-2-18.69-4.8-23.63,4.45-23.63,4.45s-8.86-5-21.72-3.25q.42,18.44.86,36.87H116C118.85,537.09,121,533.67,117.92,529.45Z"/>
            <path class="cls-39" d="M206.53,539.29H.7V518c3.56-4,15.17-6.3,21.79-3.48,0,0-2.07-7.67,13-11.3s25.88,2.46,25.88,2.46,4.95-9.25,23.64-4.45c6-5.34,21.43-4.83,23,2,0,0,11.62-8.52,29.37-6.48s18,10.4,18,10.4.49-.17,1.38-.43c3.7-1.06,14.44-2.74,24.29.93,11.27,4.2,11,8.37,10.07,11.63-.21.73-.53,1.47-.84,2.24,0,0,12-.71,18.21,7.79C211.6,533.51,209.43,536.93,206.53,539.29Z"/>
            <path class="cls-50" d="M58.49,531.2c-3.15-5.45-11-4.18-11.33-4.13.21-.21,5-5,.7-9s-12.61-.52-12.61-.52-4.9-7.69-12.82-2c-3.86-10.35-14.57-4.06-14.57-4.06s-1.26-4.74-5.29-5.34a6.48,6.48,0,0,0-1.51-.05c-3.74.35-5.55,4.15-5.55,4.15s-.59-6.06-11.64-6.52c-8-.34-10.3,5.62-10.3,5.62a8.35,8.35,0,0,0-8-2.53,8.08,8.08,0,0,0-5.76,5.29,12.19,12.19,0,0,0-10.55-2.07q.35,15.13.71,30.27H60A11.85,11.85,0,0,0,58.49,531.2Z"/>
            <path class="cls-50" d="M200,538.18H67.1v-4.34c4-2.45,9.48-2,9.48-2s-8.6-6.2-3.24-10.4S86,520.79,86,520.79s-7.16-7.9.75-11.93a12.17,12.17,0,0,1,13,1.12,8.1,8.1,0,0,1,5.76-5.29,8.38,8.38,0,0,1,8,2.53s2.32-6,10.29-5.62c11,.46,11.64,6.52,11.64,6.52s1.81-3.8,5.55-4.15a6.48,6.48,0,0,1,1.51,0c4,.6,5.29,5.34,5.29,5.34s10.71-6.29,14.57,4.06c7.92-5.74,12.82,2,12.82,2s8.22-3.56,12.61.52-.49,8.83-.7,9c.34,0,8.19-1.33,11.33,4.13A11.85,11.85,0,0,1,200,538.18Z"/>
          </g>
          <path class="cls-51" d="M1157.7,707.44a1.88,1.88,0,0,0-2-1.82,3,3,0,0,0-3.22,1.54c-4.17-7.63-11.26-5.35-12.5-.53-1.81-8.26-3.94-5.16-3.18-.13-2.45-1.77-5.27-1.92-5.81.24-6.65-8.06-16.61-3.67-15.63-.14-3.34-1.62-4.37-.6-4.66.35-6.38-5-6.29-1.81-4.44-.19-2.4-.44-4.14-.17-3,.68Z"/>
          <g>
            <path class="cls-32" d="M1064.53,645.69s21.15-3.2,20.56-12S1064.53,645.69,1064.53,645.69Z"/>
            <path class="cls-32" d="M1060.42,649.25s11.75-22,20.56-27.6-15.27-6-20.56,17Z"/>
            <path class="cls-32" d="M1059.54,646.28s5.93-17.11-16.16-18C1033.4,627.89,1059.54,646.28,1059.54,646.28Z"/>
          </g>
          <polygon class="cls-52" points="1172.6 629.63 1232.14 648.83 1241.08 649.21 1181.17 626.15 1172.6 629.63"/>
          <polygon class="cls-52" points="1206.84 626.15 1268.81 643.6 1277.72 643.07 1212.87 622.04 1206.84 626.15"/>
          <g>
            <path class="cls-29" d="M237.41,604.83s9.89-6.67,29-8.32-20.49-8.77-34.63,8.32C231.75,604.83,225.39,612.42,237.41,604.83Z"/>
            <path class="cls-29" d="M210.55,605.78s29-21.36,45.94-27-16.26-6.17-38.87,11.62C217.62,590.35,206.31,601,210.55,605.78Z"/>
            <path class="cls-29" d="M202.07,605.78s19.25-34.65,28-38.92-13.87-6.64-28,21.6C202.07,588.46,196.41,603.41,202.07,605.78Z"/>
            <path class="cls-29" d="M191.82,605.78s7.42-31.8,14.49-36.54S179.45,574.46,191.82,605.78Z"/>
            <path class="cls-29" d="M187.58,605.78s.35-26.49-14.84-30.57S181.57,592.49,187.58,605.78Z"/>
            <path class="cls-29" d="M182.63,605.78s-9.54-30.36-32.86-31.08S168.14,585.85,182.63,605.78Z"/>
            <path class="cls-29" d="M180.63,605.78s-12.49-12.34-33.69-11.39S175.45,602,180.63,605.78Z"/>
          </g>
          <g>
            <path class="cls-53" d="M1249.36,616.53s7-4.74,20.59-5.91-14.56-6.23-24.6,5.91C1245.35,616.53,1240.83,621.92,1249.36,616.53Z"/>
            <path class="cls-53" d="M1230.28,617.2S1250.87,602,1262.92,598s-11.55-4.38-27.62,8.26C1235.3,606.24,1227.27,613.83,1230.28,617.2Z"/>
            <path class="cls-53" d="M1224.26,617.2s13.67-24.61,19.89-27.65-9.85-4.72-19.89,15.34C1224.26,604.89,1220.24,615.52,1224.26,617.2Z"/>
            <path class="cls-53" d="M1217,617.2s5.28-22.59,10.3-26S1208.19,595,1217,617.2Z"/>
            <path class="cls-53" d="M1214,617.2s.25-18.82-10.55-21.72S1209.69,607.76,1214,617.2Z"/>
            <path class="cls-53" d="M1210.44,617.2s-6.77-21.57-23.35-22.08S1200.15,603,1210.44,617.2Z"/>
            <path class="cls-53" d="M1209,617.2a33.59,33.59,0,0,0-23.94-8.09C1170,609.78,1205.34,614.5,1209,617.2Z"/>
          </g>
          <g>
            <path class="cls-50" d="M1660.93,749.79c-648.78,88.75-1079.07,16.31-1101.2,12.36-3.17-.57-21.38-3.86-46.17-7.2a972.74,972.74,0,0,0-124-8.67c-56-.3-252.76,10.72-435.21,24.1q.2,27.52.07,55c96.11,11.8,320.34,18.35,311.66-5.89-5.85-16.35,17.48,9,31.75,9.48,266.55,9.67,926.47,0,1369.09-11.1Q1663.82,783.87,1660.93,749.79Z"/>
            <g>
              <path class="cls-50" d="M1330.66,784.53s18.17-14.74,21.84-17.38c4.52-3.24-3.79-7.9-17.25,3.37C1335.25,770.52,1327,778.67,1330.66,784.53Z"/>
              <path class="cls-50" d="M1322.11,783.61s-3.66-13.66-23.76-13.26S1322.11,783.61,1322.11,783.61Z"/>
              <path class="cls-50" d="M1327.59,785.6s6.13-30.6,15.06-39c7.65-7.19-8.56-9.15-17.67,8S1327.59,785.6,1327.59,785.6Z"/>
            </g>
            <g>
              <path class="cls-50" d="M875.49,760.62s24.1-4.38,23.43-16.41S875.49,760.62,875.49,760.62Z"/>
              <path class="cls-50" d="M870.81,765.49s13.38-30.09,23.42-37.75-17.4-8.28-23.42,23.21Z"/>
              <path class="cls-50" d="M869.8,761.43s6.76-23.41-18.4-24.61C840,736.27,869.8,761.43,869.8,761.43Z"/>
            </g>
            <g>
              <path class="cls-50" d="M762.26,738.67s9.37-7.7,27.44-9.59-19.41-10.11-32.79,9.59C756.91,738.67,750.89,747.42,762.26,738.67Z"/>
              <path class="cls-50" d="M736.83,739.76s27.44-24.62,43.5-31.18-15.39-7.11-36.81,13.4C743.52,722,732.82,734.29,736.83,739.76Z"/>
              <path class="cls-50" d="M728.8,739.76S747,699.83,755.32,694.9s-13.13-7.65-26.52,24.89C728.8,719.79,723.45,737,728.8,739.76Z"/>
              <path class="cls-50" d="M719.1,739.76s7-36.65,13.72-42.12S707.38,703.66,719.1,739.76Z"/>
              <path class="cls-50" d="M715.08,739.76s.34-30.53-14.05-35.23S709.39,724.44,715.08,739.76Z"/>
              <path class="cls-50" d="M710.4,739.76s-9-35-31.12-35.82S696.68,716.79,710.4,739.76Z"/>
              <path class="cls-50" d="M708.5,739.76s-11.82-14.22-31.9-13.13S703.59,735.38,708.5,739.76Z"/>
            </g>
            <g>
              <path class="cls-50" d="M1552,770.31s9.37-7.7,27.44-9.6-19.41-10.1-32.79,9.6C1546.63,770.31,1540.61,779.06,1552,770.31Z"/>
              <path class="cls-50" d="M1526.55,771.4s27.44-24.62,43.5-31.18-15.39-7.11-36.81,13.4C1533.24,753.62,1522.54,765.93,1526.55,771.4Z"/>
              <path class="cls-50" d="M1518.52,771.4s18.23-39.93,26.52-44.86-13.13-7.66-26.52,24.89C1518.52,751.43,1513.17,768.66,1518.52,771.4Z"/>
              <path class="cls-50" d="M1508.82,771.4s7-36.65,13.72-42.12S1497.1,735.3,1508.82,771.4Z"/>
              <path class="cls-50" d="M1504.8,771.4s.33-30.54-14-35.23S1499.11,756.08,1504.8,771.4Z"/>
              <path class="cls-50" d="M1500.12,771.4s-9-35-31.12-35.82S1486.4,748.42,1500.12,771.4Z"/>
              <path class="cls-50" d="M1498.22,771.4s-11.82-14.22-31.9-13.13S1493.31,767,1498.22,771.4Z"/>
            </g>
          </g>
          <ellipse class="cls-5" cx="607.35" cy="727.81" rx="15.86" ry="2.85"/>
          <g>
            <path class="cls-31" d="M1174.47,522.36s6.08-4.1,17.8-5.11-12.59-5.39-21.27,5.11C1171,522.36,1167.09,527,1174.47,522.36Z"/>
            <path class="cls-31" d="M1158,522.94s17.79-13.12,28.21-16.62-10-3.78-23.87,7.15C1162.32,513.47,1155.37,520,1158,522.94Z"/>
            <path class="cls-31" d="M1152.77,522.94s11.82-21.28,17.19-23.9-8.51-4.08-17.19,13.26C1152.77,512.3,1149.29,521.48,1152.77,522.94Z"/>
            <path class="cls-31" d="M1146.47,522.94s4.56-19.53,8.9-22.44S1138.88,503.7,1146.47,522.94Z"/>
            <path class="cls-31" d="M1143.87,522.94s.21-16.27-9.12-18.77S1140.18,514.78,1143.87,522.94Z"/>
            <path class="cls-31" d="M1140.83,522.94s-5.86-18.64-20.19-19.09S1131.93,510.7,1140.83,522.94Z"/>
            <path class="cls-31" d="M1139.6,522.94a29.06,29.06,0,0,0-20.69-7C1105.89,516.53,1136.42,520.61,1139.6,522.94Z"/>
          </g>
          <ellipse class="cls-5" cx="558.56" cy="648.11" rx="9.35" ry="1.22"/>
          <ellipse class="cls-5" cx="608.57" cy="677.01" rx="17.08" ry="3.23"/>
          <ellipse class="cls-5" cx="415.43" cy="696.5" rx="32.12" ry="8.95"/>
          <ellipse class="cls-54" cx="1285.39" cy="713.13" rx="332.93" ry="77.14"/>
          <path class="cls-55" d="M28,562.53c-27.83,0-54.13.62-77.49,1.72q.36,15,.7,30.06C-25.57,595.39.48,596,28,596c96.64,0,175-7.49,175-16.74S124.67,562.53,28,562.53Z"/>
          <ellipse class="cls-55" cx="381.28" cy="578.88" rx="174.99" ry="16.74"/>
          <g>
            <path class="cls-56" d="M867.47,640s7-4.74,20.59-5.91-14.57-6.23-24.61,5.91C863.45,640,858.93,645.34,867.47,640Z"/>
            <path class="cls-56" d="M848.38,640.62S869,625.45,881,621.4s-11.55-4.38-27.62,8.26C853.4,629.66,845.37,637.25,848.38,640.62Z"/>
            <path class="cls-56" d="M842.36,640.62S856,616,862.25,613s-9.85-4.72-19.89,15.34C842.36,628.31,838.34,638.94,842.36,640.62Z"/>
            <path class="cls-56" d="M835.07,640.62s5.28-22.59,10.3-26S826.29,618.37,835.07,640.62Z"/>
            <path class="cls-56" d="M832.06,640.62s.25-18.82-10.54-21.72S827.79,631.18,832.06,640.62Z"/>
            <path class="cls-56" d="M828.55,640.62s-6.78-21.57-23.36-22.08S818.25,626.46,828.55,640.62Z"/>
            <path class="cls-56" d="M827.12,640.62a33.58,33.58,0,0,0-23.93-8.09C788.12,633.2,823.44,637.92,827.12,640.62Z"/>
          </g>
          <ellipse class="cls-54" cx="968.83" cy="606.37" rx="28.33" ry="3.78"/>
          <ellipse class="cls-54" cx="1402.5" cy="625.71" rx="28.33" ry="3.78"/>
          <ellipse class="cls-54" cx="1134.13" cy="578.04" rx="28.33" ry="3.78"/>
          <ellipse class="cls-54" cx="1407.9" cy="737.4" rx="28.33" ry="3.78"/>
          <g>
            <path class="cls-31" d="M1385.33,632.48s7-4.74,20.59-5.91-14.56-6.23-24.61,5.91C1381.31,632.48,1376.79,637.87,1385.33,632.48Z"/>
            <path class="cls-31" d="M1366.25,633.15s20.59-15.17,32.64-19.22-11.55-4.38-27.62,8.26C1371.27,622.19,1363.23,629.78,1366.25,633.15Z"/>
            <path class="cls-31" d="M1360.22,633.15s13.68-24.61,19.9-27.65-9.85-4.72-19.9,15.35C1360.22,620.85,1356.2,631.47,1360.22,633.15Z"/>
            <path class="cls-31" d="M1352.94,633.15s5.27-22.59,10.29-26S1344.15,610.9,1352.94,633.15Z"/>
            <path class="cls-31" d="M1349.93,633.15s.25-18.82-10.55-21.72S1345.66,623.71,1349.93,633.15Z"/>
            <path class="cls-31" d="M1346.41,633.15s-6.78-21.57-23.35-22.08S1336.12,619,1346.41,633.15Z"/>
            <path class="cls-31" d="M1345,633.15a33.64,33.64,0,0,0-23.94-8.09C1306,625.73,1341.31,630.46,1345,633.15Z"/>
          </g>
          <g>
            <path class="cls-31" d="M809.83,523s4.71-3.18,13.81-4-9.77-4.18-16.51,4C807.13,523,804.1,526.58,809.83,523Z"/>
            <path class="cls-31" d="M797,523.42s13.82-10.19,21.91-12.9-7.76-2.95-18.54,5.54C800.39,516.06,795,521.15,797,523.42Z"/>
            <path class="cls-31" d="M793,523.42s9.18-16.53,13.36-18.56-6.62-3.17-13.36,10.3C793,515.16,790.28,522.28,793,523.42Z"/>
            <path class="cls-31" d="M788.09,523.42S791.63,508.25,795,506,782.19,508.48,788.09,523.42Z"/>
            <path class="cls-31" d="M786.06,523.42s.17-12.64-7.07-14.58S783.2,517.08,786.06,523.42Z"/>
            <path class="cls-31" d="M783.7,523.42S779.15,508.94,768,508.6,776.79,513.91,783.7,523.42Z"/>
            <path class="cls-31" d="M782.75,523.42A22.58,22.58,0,0,0,766.68,518C756.57,518.44,780.28,521.61,782.75,523.42Z"/>
          </g>
          <g class="cls-45">
            <path class="cls-46" d="M47.84,419.91v-3.8a2.31,2.31,0,0,0,1.22-2,2.44,2.44,0,0,0-4.88,0,2.33,2.33,0,0,0,1.22,2v3.8H-25.37v-3.8a2.31,2.31,0,0,0,1.22-2,2.38,2.38,0,0,0-2.44-2.32A2.39,2.39,0,0,0-29,414.09a2.31,2.31,0,0,0,1.22,2v3.8H-52.67c0,1.16.05,2.33.07,3.49h24.79v15.12h2.44V423.4H45.4v15.12h2.44V423.4h8.43v-3.49Z"/>
            <path class="cls-48" d="M-24.15,419.91h-1.22v-3.8a2.31,2.31,0,0,0,1.22-2A2.31,2.31,0,0,0-25.58,412a2.32,2.32,0,0,1,.21.95,2.38,2.38,0,0,1-2.44,2.33,2.59,2.59,0,0,1-1-.21,2.43,2.43,0,0,0,2.22,1.37,2.63,2.63,0,0,0,.49-.05v22.15h.73V423.4H45.4v-1.16H-24.15Z"/>
          </g>
          <ellipse class="cls-57" cx="610.64" cy="586.76" rx="129.21" ry="4.96"/>
        </g>
      </g>
    </g>
  </g>
</svg>
