<svg id="Layer_1" data-name="Layer 1" xmlns="http://www.w3.org/2000/svg" viewBox="0 0 385.71 503.57"><defs><style>.cls-1{fill:#8d8e8d;}</style></defs><path class="cls-1" d="M170.2,186.56H301.35s.19-6.05.19-18.15V79.19H368V19.93H17.77V79.19h223v47.3h-94.6q-47.29,0-78.08,26.28T37.3,220.34q0,67.57,56.31,126.14Q153.67,408.8,234,408.8q47.29,0,78.83-29.28,26.26-24.78,26.28-54.06,0-15-10.51-42.8t-17.27-36.79q-24.78-34.53-76.58-34.54-36.79,0-58.57,21.91t-21.77,50.58a211,211,0,0,0,1.88,28.31q1.86,14,6.38,33.6-37.56-12.08-52.93-30.18t-15.4-48.28a85.71,85.71,0,0,1,20.28-56.2Q134.91,186.56,170.2,186.56Zm25.52,153.83q0-28.78,18.4-50.4t43.17-21.59q21,0,30.41,5.25t9.38,14.27q0,21-28,41.29a104.37,104.37,0,0,1-62.77,20.27h-10.6Z"/><circle class="cls-1" cx="224.5" cy="458.93" r="30"/></svg>