<svg id="Layer_1" data-name="Layer 1" xmlns="http://www.w3.org/2000/svg" viewBox="0 0 385.71 503.57"><defs><style>.cls-1{fill:#fff;}</style></defs><path class="cls-1" d="M269.09,329.21q28-20.28,28-41.29,0-9-9.38-14.27t-30.41-5.25q-24.78,0-43.17,21.59t-18.4,50.4v9.09h10.6A104.37,104.37,0,0,0,269.09,329.21Zm-67.37,11.18c0-17.89,5.55-33.11,17-46.51,11.16-13.11,23.79-19.48,38.6-19.48,16.06,0,23.81,2.44,27.47,4.49,5.61,3.14,6.32,6.47,6.32,9,0,11.91-8.58,24.17-25.51,36.43a98.94,98.94,0,0,1-59.25,19.13h-4.6Z"/><path class="cls-1" d="M368,13.93H17.77a6,6,0,0,0-6,6V79.19a6,6,0,0,0,6,6h217v35.3h-88.6c-32.85,0-60.44,9.33-82,27.72-21.82,18.63-32.89,42.9-32.89,72.13,0,46.44,19.51,90.28,58,130.3C130.31,393.21,179,414.8,234,414.8c33,0,60.84-10.4,83-30.92,18.68-17.63,28.16-37.28,28.16-58.42,0-10.83-3.56-25.53-10.9-44.93-7.28-19.2-13.18-31.7-18-38.21-17.64-24.54-45-37-81.42-37-26.07,0-47.2,8-62.82,23.67s-23.52,34.13-23.52,54.82a219.08,219.08,0,0,0,1.93,29.11c.91,6.8,2.31,14.71,4.17,23.61-18.62-7-32.12-15.35-40.2-24.88-9.27-10.88-14-25.82-14-44.39,0-19.85,6.19-37,18.9-52.37,12.44-15,29.1-22.34,50.94-22.34H301.35a6,6,0,0,0,6-5.82c0-.25.19-6.27.19-18.33V85.19H368a6,6,0,0,0,6-6V19.93A6,6,0,0,0,368,13.93Zm0,65.26H301.54v89.22c0,12.1-.19,18.15-.19,18.15H170.2q-35.31,0-55.56,24.51a85.71,85.71,0,0,0-20.28,56.2q0,30.19,15.4,48.28t52.93,30.18q-4.5-19.62-6.38-33.6a211,211,0,0,1-1.88-28.31q0-28.68,21.77-50.58t58.57-21.91q51.79,0,76.58,34.54,6.75,9,17.27,36.79t10.51,42.8q0,29.28-26.28,54.06Q281.32,408.8,234,408.8q-80.36,0-140.41-62.32Q37.32,287.92,37.3,220.34q0-41.28,30.79-67.57t78.08-26.28h94.6V79.19h-223V19.93H368Z"/><path class="cls-1" d="M224.5,422.93a36,36,0,1,0,36,36A36,36,0,0,0,224.5,422.93Zm0,66a30,30,0,1,1,30-30A30,30,0,0,1,224.5,488.93Z"/></svg>