<svg xmlns="http://www.w3.org/2000/svg" xmlns:xlink="http://www.w3.org/1999/xlink" width="1003.45" height="698.82" viewBox="0 0 1003.45 698.82">
  <defs>
    <style>
      .cls-1 {
        fill: none;
      }

      .cls-2 {
        isolation: isolate;
      }

      .cls-3 {
        fill: #5f8337;
      }

      .cls-26, .cls-3, .cls-32, .cls-37, .cls-38, .cls-39, .cls-44 {
        mix-blend-mode: multiply;
      }

      .cls-25, .cls-28, .cls-3, .cls-44 {
        opacity: 0.5;
      }

      .cls-4 {
        fill: #308c1f;
      }

      .cls-5 {
        fill: #827f75;
      }

      .cls-6 {
        fill: #2992d0;
      }

      .cls-7 {
        fill: #006fba;
      }

      .cls-8 {
        fill: #0c79c0;
      }

      .cls-9 {
        fill: #1771bc;
      }

      .cls-10 {
        fill: #0056a8;
      }

      .cls-11 {
        fill: #075dad;
      }

      .cls-12 {
        fill: #1077aa;
      }

      .cls-13 {
        fill: #0054a6;
      }

      .cls-14 {
        fill: #0d70ad;
      }

      .cls-15 {
        fill: #8cc6ec;
      }

      .cls-16 {
        fill: #aad4f1;
      }

      .cls-17 {
        fill: #5da5df;
      }

      .cls-18 {
        fill: #095da3;
      }

      .cls-19 {
        clip-path: url(#clip-path);
      }

      .cls-20 {
        fill: #fff0a5;
      }

      .cls-21 {
        fill: #ffce51;
      }

      .cls-22 {
        fill: #fcaf17;
      }

      .cls-23 {
        fill: #dd941a;
      }

      .cls-24 {
        fill: #71caf2;
      }

      .cls-25 {
        fill: #d7eefc;
      }

      .cls-25, .cls-27, .cls-28, .cls-33, .cls-40, .cls-47 {
        mix-blend-mode: screen;
      }

      .cls-26 {
        fill: #4197b9;
        opacity: 0.7;
      }

      .cls-27 {
        fill: #e3f3fc;
        opacity: 0.3;
      }

      .cls-29 {
        fill: #e3e5f4;
      }

      .cls-30 {
        fill: #8a8f91;
      }

      .cls-31 {
        fill: #595e5e;
      }

      .cls-32, .cls-36, .cls-38 {
        fill: #bcbbba;
      }

      .cls-33, .cls-40, .cls-47 {
        opacity: 0.4;
      }

      .cls-34, .cls-40 {
        fill: #fff;
      }

      .cls-35 {
        fill: #a49fa2;
      }

      .cls-37, .cls-38, .cls-39 {
        opacity: 0.6;
      }

      .cls-39, .cls-45 {
        fill: #aaa9a8;
      }

      .cls-41, .cls-43 {
        opacity: 0.57;
      }

      .cls-42, .cls-43 {
        fill: #515150;
      }

      .cls-46, .cls-47 {
        fill: #a7a8a7;
      }

      .cls-48 {
        fill: #818281;
        stroke: #7a7a79;
        stroke-miterlimit: 10;
        stroke-width: 0.5px;
      }

      .cls-49 {
        fill: #52a11d;
      }
    </style>
    <clipPath id="clip-path">
      <path class="cls-1" d="M166.05,485.85l4.66.2s4.83,3.26,5.86,3.46c0,0-17.42,79.19,33,70.43s110.06-70,116.19-69.11,4,7,.78,13.94-49,78.17-121.8,70.84c0,0-31.75,3-38.13-26.87s-.52-62.89-.52-62.89Z"/>
    </clipPath>
  </defs>
  <g class="cls-2">
    <g id="Layer_1" data-name="Layer 1">
      <path class="cls-3" d="M803,560.39c0,1.47-36.29,2.67-81,2.67s-80.95-1.2-80.95-2.67,36.24-2.7,80.95-2.7S803,558.91,803,560.39Z"/>
      <g>
        <path class="cls-4" d="M756.37,598.1S793,594.94,792,586.24,756.37,598.1,756.37,598.1Z"/>
        <path class="cls-4" d="M749.24,601.62s20.37-21.74,35.65-27.27-26.48-6-35.65,16.77Z"/>
        <path class="cls-4" d="M747.72,598.69s10.27-16.92-28-17.79C702.4,580.51,747.72,598.69,747.72,598.69Z"/>
      </g>
      <ellipse class="cls-5" cx="497.61" cy="586.84" rx="461.88" ry="67.37"/>
      <g>
        <path class="cls-6" d="M176.4,485l20,122.44c0,8.6,27.78,15.57,62,15.57s62-7,62-15.57l20.17-125.29L176.4,485Z"/>
        <path class="cls-7" d="M258.43,623.48c-35,0-62.47-7-62.47-16L176,485.11a.47.47,0,0,1,.1-.36.42.42,0,0,1,.33-.16l164.24-2.85h0a.45.45,0,0,1,.34.15.47.47,0,0,1,.1.36L320.9,607.54c0,8.91-27.43,15.94-62.47,15.94Zm-81.51-138L196.84,607.4c0,8.27,28.21,15.19,61.59,15.19S320,615.67,320,607.47l20.1-124.84-163.2,2.84Z"/>
        <path class="cls-8" d="M231.14,562c-3.43,0-7.39,1.53-12.29,5.38L223,614.9c-.53.05-1.07.08-1.62.08-7.65,0-16.66-5-16.66-5l-7.44-47.24a5,5,0,0,0-2.27-.61,4.41,4.41,0,0,0-.52,0,7.73,7.73,0,0,0-4.63,2.37l7,42.84c0,8.27,28.21,15.19,61.59,15.19a227,227,0,0,0,23.92-1.23c31.06-4.27,34.83-35.78,34.83-35.78l3.15-21.76c-2.76.31-5.56,2.32-7.57,5.45-2.79,4.37-6.2,7.8-10.66,7.8-3.08,0-6.66-1.63-10.87-5.73-5-4.81-9.09-6.91-13-6.91-4.25,0-8.22,2.47-12.67,6.61-3.26,3-6.53,4.2-9.6,4.2-5,0-9.49-3.09-12.52-6.26-3.74-3.91-7.49-6.94-12.3-6.94Z"/>
        <path class="cls-7" d="M320.46,607.64c-.26,6.13-14.65,11.41-35.4,13.89,20.75-2.48,35.14-7.76,35.4-13.89Zm0,0h0Zm0,0v0Zm0,0h0Zm0,0h0Zm0,0Zm0,0h0Zm0,0h0Zm0,0Zm0,0Zm0,0h0Zm0,0h0Zm0,0Zm6.46-40.17-6.46,40.16h0l6.46-40.16Zm-137.09-2.75c-.13.13-.26.27-.38.41l6.94,42.5c0,8.6,27.78,15.57,62,15.57,7.28,0,14.26-.32,20.74-.9a11.23,11.23,0,0,1,2.81-.73l.37,0a227,227,0,0,1-23.92,1.23c-33.38,0-61.58-6.92-61.59-15.19l-7-42.84Z"/>
        <path class="cls-9" d="M177.44,488.65l3.4,20.82c0-3.24.56-11.85,7.71-11.85a11.36,11.36,0,0,1,3,.44s25.82,7.77,65.57,7.77a306.25,306.25,0,0,0,52.44-4.52,5.22,5.22,0,0,1,2.14-.56c1,0,2,.46,2.34,2.2.59,3.12,2.94,5.95,6.62,5.95a8.1,8.1,0,0,0,2-.26h.13c.83,0,5.2.67,3.32,15.08l-5.82,40.11c.25,0,.49,0,.74,0a6.77,6.77,0,0,1,5.5,3l12.56-78a82.23,82.23,0,0,1-9.25,3.53,11.68,11.68,0,0,1,.39,2.95c0,4.47-2.41,8.09-5.38,8.09s-5.38-3.62-5.38-8.09v-.11c-16.41,3.84-37.74,6.17-61.09,6.17-34.57,0-64.77-5.1-81-12.67Z"/>
        <path class="cls-10" d="M285.06,621.53c-1.91.23-3.87.44-5.89.61h0q3-.27,5.89-.62Zm35.4-13.89Zm0,0Zm0,0Zm0,0Zm0,0h0Zm0,0h0Zm0,0Zm0,0h0Zm0,0h0Zm0,0h0Zm0,0Zm0,0h0Zm0,0h0Zm19.14-118.91-.48.22-12.56,78,.36.51,12.68-78.75ZM177,488.42l3.64,22.27h.3s0-.46,0-1.21l-3.4-20.82-.49-.23Z"/>
        <path class="cls-11" d="M321.07,563.78c-.25,0-.49,0-.74,0l-3.15,21.76s-3.77,31.51-34.83,35.78C304.26,619,320,613.6,320,607.47l6.55-40.67a6.77,6.77,0,0,0-5.5-3Z"/>
        <path class="cls-10" d="M326.57,566.8,320,607.47c0,6.13-15.76,11.55-37.67,13.89l-.37,0a11.23,11.23,0,0,0-2.81.73c2-.17,4-.38,5.89-.61,20.75-2.48,35.14-7.76,35.4-13.89h0v0h0l6.46-40.16-.36-.51Z"/>
        <path class="cls-12" d="M326.9,495.87c0,4.47-2.41,8.09-5.38,8.09s-5.38-3.62-5.38-8.09,2.41-8.09,5.38-8.09S326.9,491.4,326.9,495.87Z"/>
        <path class="cls-7" d="M321.52,504.4c-3.21,0-5.82-3.83-5.82-8.53s2.61-8.54,5.82-8.54,5.82,3.83,5.82,8.54S324.73,504.4,321.52,504.4Zm0-16.18c-2.72,0-4.93,3.43-4.93,7.65s2.21,7.65,4.93,7.65,4.94-3.44,4.94-7.65S324.24,488.22,321.52,488.22Z"/>
        <path class="cls-6" d="M344.92,466.1c-14.1-9.2-47.51-15.67-86.49-15.67S186.05,456.9,172,466.1h-7.17l0,11h.15c2.34,13.48,43.32,24.23,93.53,24.23,23.35,0,44.68-2.33,61.09-6.17v.11c0,4.47,2.4,8.09,5.38,8.09s5.38-3.62,5.38-8.09a11.68,11.68,0,0,0-.39-2.95c13.85-4.43,22.21-10.17,22.21-16.44V466.1Z"/>
        <path class="cls-7" d="M324.89,503.79c-3.11,0-5.66-3.59-5.82-8.08-16.93,3.9-38.43,6.05-60.64,6.05-49.93,0-91-10.65-93.91-24.29l-.08-.06a.48.48,0,0,1-.13-.32l0-11a.44.44,0,0,1,.44-.44h7C186.53,456.14,220.5,450,258.43,450s71.91,6.15,86.62,15.67h7a.44.44,0,0,1,.44.44v9.77c0,6.26-7.65,12-22.12,16.74a11.83,11.83,0,0,1,.3,2.65C330.71,500,328.1,503.79,324.89,503.79Zm-5.36-8.58.42.06c0,4.21,2.21,7.64,4.94,7.64s4.94-3.43,4.94-7.65a10.9,10.9,0,0,0-.38-2.83.45.45,0,0,1,.3-.54c14.12-4.52,21.89-10.21,21.89-16v-9.32h-6.72a.43.43,0,0,1-.24-.08c-14.52-9.47-48.38-15.6-86.25-15.6s-71.72,6.13-86.24,15.6a.43.43,0,0,1-.24.08h-6.73l0,10.22a.38.38,0,0,1,.13.25c2.32,13.37,43.22,23.85,93.1,23.85,22.38,0,44-2.18,61-6.15a.44.44,0,0,1,.55.43l-.43.05Z"/>
        <path class="cls-6" d="M352.09,466.1c0,14.06-41.93,25.44-93.66,25.44s-93.65-11.38-93.65-25.44,41.93-25.44,93.65-25.44,93.66,11.39,93.66,25.44Z"/>
        <path class="cls-7" d="M258.43,492c-51.88,0-94.09-11.61-94.09-25.89s42.21-25.89,94.09-25.89,94.1,11.62,94.1,25.89S310.32,492,258.43,492Zm0-50.89c-51.39,0-93.2,11.22-93.2,25s41.81,25,93.2,25,93.21-11.21,93.21-25-41.81-25-93.21-25Z"/>
        <path class="cls-13" d="M258.43,442.29c-47,0-85.13,9.56-85.13,21.37,0,4.54,5.66,8.75,15.28,12.21C204,481.4,229.51,485,258.43,485s54.47-3.63,69.86-9.16c9.63-3.46,15.29-7.67,15.29-12.21,0-11.81-38.12-21.37-85.15-21.37Z"/>
        <path class="cls-14" d="M258.43,485.47c-27.84,0-54-3.43-70-9.18-10.19-3.67-15.58-8-15.58-12.63,0-12.24,37.6-21.82,85.58-21.82S344,451.42,344,463.66c0,4.59-5.39,9-15.58,12.63-16,5.75-42.16,9.18-70,9.18Zm0-42.74c-46.7,0-84.69,9.39-84.69,20.93,0,4.18,5.18,8.26,15,11.79,15.9,5.72,42,9.14,69.7,9.14s53.81-3.42,69.71-9.14c9.81-3.53,15-7.6,15-11.79,0-11.54-38-20.93-84.71-20.93Z"/>
        <path class="cls-15" d="M328.29,475.87c-15.39-5.53-40.93-9.16-69.86-9.16s-54.46,3.63-69.85,9.16C204,481.4,229.51,485,258.43,485s54.47-3.63,69.86-9.16Z"/>
        <path class="cls-14" d="M258.43,485.47c-27.84,0-54-3.43-70-9.18a.45.45,0,0,1,0-.84c16-5.75,42.17-9.18,70-9.18s54,3.43,70,9.18a.45.45,0,0,1,0,.84c-16,5.75-42.16,9.18-70,9.18Zm-68.51-9.6c16,5.47,41.45,8.72,68.51,8.72S311,481.34,327,475.87c-16-5.47-41.46-8.72-68.52-8.72s-52.51,3.25-68.51,8.72Z"/>
        <path class="cls-15" d="M258.43,485c28.93,0,54.47-3.63,69.86-9.16L258.43,485Z"/>
        <path class="cls-14" d="M258.43,485.47a.44.44,0,1,1,0-.88c27.75,0,53.81-3.42,69.71-9.14a.45.45,0,0,1,.3.84c-16,5.75-42.16,9.18-70,9.18Z"/>
        <path class="cls-13" d="M328.93,495.68c0,2.68-1.44,4.85-3.21,4.85s-3.22-2.17-3.22-4.85,1.44-4.85,3.22-4.85S328.93,493,328.93,495.68Z"/>
        <path class="cls-16" d="M252.9,467.41c-25.53.2-48,3.48-61.65,8.39,7.69,2.77,18.14,5,30.34,6.49C228.1,471.37,252.81,468,252.81,468l.09-.54Z"/>
        <path class="cls-17" d="M295.87,469.34c7,2.19,14.2,6,1.76,10.55l28.46-3.73.86-.29c-8.22-2.81-18.93-5-31.08-6.53Z"/>
        <path class="cls-18" d="M293.23,468.58c.85.23,1.74.48,2.64.76,12.15,1.5,22.86,3.72,31.08,6.53l-.86.29h0l1.53-.53c-8.73-3-20.6-5.5-34.4-7.05Z"/>
        <path class="cls-17" d="M326.1,476.16h0l-28.46,3.73a100.91,100.91,0,0,1-14.35,3.76c16.87-1.29,31.92-3.89,42.82-7.49Z"/>
        <path class="cls-18" d="M327.63,475.63l-1.53.53c-10.9,3.6-26,6.2-42.82,7.49l-.78.16q-1,.21-1.95.48c19.61-1.32,36.42-4.35,47.74-8.42l-.66-.24Z"/>
        <g class="cls-19">
          <path class="cls-20" d="M209.2,572.36A52.25,52.25,0,0,1,189.63,569c-34.9-14.13-17.73-81.24-17-84.09a2.06,2.06,0,0,1,2.6-1.59,2.41,2.41,0,0,1,1.41,2.92c-.17.66-16.82,65.7,14.38,78.33,33.7,13.65,103.84-17.35,132.15-69a2,2,0,0,1,2.89-.76,2.53,2.53,0,0,1,.67,3.24C302.24,542.76,247.05,572.36,209.2,572.36Z"/>
          <path class="cls-21" d="M209.2,572.81a52.49,52.49,0,0,1-19.74-3.42c-35.2-14.25-18-81.75-17.24-84.61a2.55,2.55,0,0,1,3.17-1.9,2.87,2.87,0,0,1,1.7,3.46c-.17.65-16.59,65.37,14.11,77.8a49.35,49.35,0,0,0,18.45,3.19c35.43,0,88.77-27.51,113.16-72a2.44,2.44,0,0,1,3.52-.91,3,3,0,0,1,.81,3.81C301.89,544.31,246.26,572.81,209.2,572.81Zm-34.56-89.17a1.7,1.7,0,0,0-1.56,1.36c-.74,2.83-17.78,69.61,16.71,83.57a51.81,51.81,0,0,0,19.41,3.35c36.8,0,92.07-28.32,117.16-74.06a2.09,2.09,0,0,0-.54-2.67,1.55,1.55,0,0,0-2.24.62c-24.54,44.72-78.24,72.4-113.93,72.4A50,50,0,0,1,190.87,565c-31.41-12.72-14.81-78.19-14.64-78.85a2,2,0,0,0-1.12-2.39A1.55,1.55,0,0,0,174.64,483.64Z"/>
        </g>
        <path class="cls-22" d="M183,557.67s9.64,9.64,28.71,8.26l2.56,1.38a2.44,2.44,0,0,0-1.38,3c.4,2.36,2,2.55,2,2.55l-1.38,1.58s-21.53,3.68-35.49-9.69l.29-2.06S179,558.36,183,557.67Z"/>
        <path class="cls-23" d="M206.59,575.44c-8.34,0-20.15-1.79-29.05-10.31a.6.6,0,0,1-.18-.51l.3-2.07c0-.06.86-4.71,5.2-5.46a.62.62,0,0,1,.52.16c.08.09,8.44,8.23,24.61,8.23,1.19,0,2.42-.05,3.64-.14a.58.58,0,0,1,.32.07l2.56,1.38a.59.59,0,0,1,.31.57.61.61,0,0,1-.4.51c-.13,0-1.28.51-1,2.29s1.42,2.06,1.46,2.07a.58.58,0,0,1,.47.38.59.59,0,0,1-.1.59l-1.38,1.58a.58.58,0,0,1-.35.19A45.12,45.12,0,0,1,206.59,575.44Zm-28-11c8.6,8.08,20,9.78,28,9.78a47.77,47.77,0,0,0,6.55-.42l.7-.8a3.69,3.69,0,0,1-1.57-2.68,3.29,3.29,0,0,1,.82-3l-1.54-.83c-1.2.08-2.4.13-3.56.13-15.37,0-23.72-7-25.21-8.35-3.29.76-3.95,4.39-4,4.43Z"/>
      </g>
      <g>
        <g>
          <g>
            <path class="cls-24" d="M286.75,473.62c-6.94,1.09-7.23-6.54-7.23-6.54V238H257.67V467.08s-.29,7.63-7.23,6.54c-4.69,1.55,2.74,13.54,9,4.36-.84,2.18,2.59,9.22,9.19,4.59,6.6,4.64,10-2.44,9.18-4.59C284,487.17,291.44,475.16,286.75,473.62Z"/>
            <path class="cls-25" d="M260.9,329c9.88,17.47,11.94-17.31,18.62-20.82V279.39c-3.19,9.45-.84,22.49-9.5,30.11-6.82.16-8.31-14.48-8.47-19-1.26-5.63,1.21-26.14-3.88-28.88C258.48,270.13,255.16,322,260.9,329Z"/>
            <path class="cls-25" d="M262.82,392.87c12.56,11.34,2,33.56,16.7,45.31V407.49c-9.18,11.28-11.2-11.77-11.6-15.95-1.31-8.59-4.77-23.74-10.25-5.52V398.9A16,16,0,0,1,262.82,392.87Z"/>
            <rect class="cls-26" x="257.67" y="238" width="21.85" height="11.18"/>
            <path class="cls-27" d="M286.75,473.62h-.11c-3.49,4.55-9.92.84-11.28-2.68.13,5.44-6.36,8-8.33,2.54-2.72,4.11-6.88,1-7-3.16-1.19,2.76-6.89,7.76-9.19,3.33-.14,0-.26,0-.4,0-4.69,1.55,2.74,13.54,9,4.36-.84,2.18,2.59,9.22,9.19,4.59,6.6,4.64,10-2.44,9.18-4.59C284,487.17,291.44,475.16,286.75,473.62Z"/>
            <g class="cls-28">
              <path class="cls-29" d="M260.41,253.27s-2.27,117.81-.32,212.17C260.09,465.44,260.73,344.36,260.41,253.27Z"/>
              <path class="cls-29" d="M265.69,288.18s-2.27,78.75-.32,141.81C265.37,430,266,349.06,265.69,288.18Z"/>
              <path class="cls-29" d="M270.9,268.73s-2.13,107-.3,192.71C270.6,461.44,271.21,351.46,270.9,268.73Z"/>
              <path class="cls-29" d="M276.17,302.36s-2.26,78.75-.32,141.81C275.85,444.17,276.5,363.24,276.17,302.36Z"/>
            </g>
          </g>
          <g>
            <g>
              <rect class="cls-30" x="362.26" y="65.73" width="23.27" height="69.34"/>
              <rect class="cls-31" x="362.26" y="65.73" width="10.69" height="69.34"/>
              <path class="cls-32" d="M362.26,75v-9.3h23.26v9.11C379.75,80,368.15,80.53,362.26,75Z"/>
              <rect class="cls-32" x="362.26" y="113.4" width="23.27" height="21.67"/>
              <g>
                <path class="cls-31" d="M379.48,63.33c0,6.43,4.32,6.79,16.15,8.25,11.76-1,57.5,12,58.4-8.25h0c-1-20.63-46.26-6.6-58-7.29-10.23,1.29-16.59.85-16.59,7.29Z"/>
                <path class="cls-32" d="M424.57,53l13.09-1.37c26.58,2.08,19.52,28.8-11,22.42C421,68.52,419.83,59.31,424.57,53Z"/>
                <path class="cls-32" d="M389.18,56.81c2.28,4.48,2.76,9.57.39,14C375.93,70.33,375.91,56.89,389.18,56.81Z"/>
                <path class="cls-31" d="M424.07,61.89C424.14,84,464,84,464,61.89S424.13,39.77,424.07,61.89Z"/>
                <g class="cls-33">
                  <path class="cls-34" d="M442.64,48.06a19.45,19.45,0,0,0-12.15,4.1c14.47-14.93,43.82,4.42,25.67,20.69C466.25,63,456.89,47.65,442.64,48.06Z"/>
                </g>
              </g>
              <g>
                <path class="cls-31" d="M368.19,63.33c0,6.43-4.32,6.79-16.15,8.25-11.76-1-57.5,12-58.4-8.25h0c1-20.63,46.26-6.6,58-7.29,10.23,1.29,16.59.85,16.59,7.29Z"/>
                <path class="cls-32" d="M323.1,53,310,51.67c-26.58,2.08-19.52,28.8,11,22.42C326.68,68.52,327.84,59.31,323.1,53Z"/>
                <path class="cls-32" d="M358.48,56.81c-2.27,4.48-2.75,9.57-.38,14C371.74,70.32,371.77,56.89,358.48,56.81Z"/>
                <path class="cls-31" d="M323.6,61.89c-.06,22.12-39.89,22.12-40,0S323.54,39.77,323.6,61.89Z"/>
              </g>
              <path class="cls-31" d="M358.11,63.69c.05,17.17,30.95,17.17,31,0S358.16,46.53,358.11,63.69Z"/>
              <g class="cls-33">
                <path class="cls-34" d="M372.67,53a15.28,15.28,0,0,0-9.54,3.22c11.12-11.81,34.48,3.7,20.14,16.24C391.19,64.74,383.85,52.72,372.67,53Z"/>
              </g>
              <g class="cls-33">
                <path class="cls-34" d="M302.62,48.06a19.42,19.42,0,0,0-12.15,4.1c14.46-14.94,43.82,4.43,25.67,20.69C326.23,63,316.87,47.65,302.62,48.06Z"/>
              </g>
            </g>
            <path class="cls-35" d="M337,135.07c0,10.77,10.78,19.5,24.08,19.5,16.95-.11,49.9,4.19,50.63-19.5h0c0-10.77-10.78-19.51-24.08-19.51-16.95.12-49.9-4.18-50.63,19.51Z"/>
            <g>
              <path class="cls-36" d="M299.26,212.54v25.28H242.93c-2.14-33,2.74-64.82,24-79.84,21.24-17.34,48.27-17.58,55.5-17.31h311v49.84c-2.26-.08-312,.15-314-.08C307.39,190.12,298.51,197,299.26,212.54Z"/>
              <path class="cls-31" d="M299.26,212.54v25.28H242.93c-2.14-33,2.74-64.82,24-79.84,21.24-17.34,48.27-17.58,55.5-17.31h311v49.84c-2.26-.08-312,.15-314-.08C307.39,190.12,298.51,197,299.26,212.54Z"/>
              <g class="cls-37">
                <path class="cls-36" d="M375.19,178.59l258.29-1.51v13.43c-2.26-.08-312,.15-314-.08-27.06-.84-19,29.28-20.19,47.39H285.58l.62-34.67C286.6,166.31,375.19,178.59,375.19,178.59Z"/>
              </g>
              <rect class="cls-38" x="242.93" y="232.77" width="56.34" height="5.05"/>
              <rect class="cls-38" x="624.5" y="140.67" width="8.98" height="49.84"/>
              <path class="cls-39" d="M322.46,140.67H431v49.84H321.72l-2.27-.08a25.31,25.31,0,0,0-3,.19V140.68C319,140.59,321.09,140.62,322.46,140.67Z"/>
              <path class="cls-31" d="M357.64,122.61c28.89-.89,69.11-3.25,71,34.13,2.05,29-1.77,54.88-38.58,56.88-28.88.9-69.11,3.25-71-34.13C317,150.48,320.83,124.61,357.64,122.61Z"/>
              <path class="cls-40" d="M423,160.17c-1.6-35.71-48.32-31.4-59.78-33.59,25.21-.78,60.14-2.81,61.82,29.8-.46,9.1,1.89,26-3.9,33.79C424.19,183.94,422.65,167,423,160.17Z"/>
              <path class="cls-38" d="M324.17,177.83c1.54,33.53,41.71,31.28,67.9,30.47A41.82,41.82,0,0,0,414.52,202c-13.08,13.32-39.19,8.95-56.58,9.6C324.17,209.74,320,188.11,322,161.69,322,156.64,324.17,177.83,324.17,177.83Z"/>
              <path class="cls-30" d="M633,194.21c3.16,0,5.72-2.26,5.72-5.06V142.56c0-2.79-2.56-5.05-5.72-5.05-3.33-.24-6,3.15-5.71,5.07,0,1.12,0,46.57,0,46.74C627.37,192,629.88,194.21,633,194.21Z"/>
              <path class="cls-31" d="M239.87,240.89c0,2.8,2.55,5.06,5.71,5.06h52.66c3.16,0,5.72-2.26,5.72-5.06h0c0-2.79-2.56-5-5.72-5H245.58c-3.16,0-5.71,2.26-5.71,5Z"/>
            </g>
          </g>
        </g>
        <g>
          <path class="cls-31" d="M650.6,148.63c-46.58,2-42.69-10.39-42.36,31.21,0,2.76,3.8,5,8.47,5h43.42Z"/>
          <g class="cls-41">
            <rect class="cls-42" x="627.3" y="148.63" width="11.65" height="36.21"/>
          </g>
        </g>
        <rect class="cls-31" x="638.95" y="88.57" width="135.54" height="152.32"/>
        <rect class="cls-31" x="648.48" y="240.89" width="118.59" height="184.79"/>
        <rect class="cls-43" x="777.13" y="416.16" width="22.24" height="27.78"/>
        <rect class="cls-31" x="648.48" y="436.29" width="118.59" height="156.28"/>
        <rect class="cls-43" x="616.19" y="416.16" width="22.24" height="27.78"/>
        <g class="cls-44">
          <rect class="cls-45" x="709.14" y="88.57" width="58.24" height="152.32"/>
        </g>
        <g class="cls-44">
          <rect class="cls-45" x="709.14" y="240.89" width="48.71" height="351.68"/>
        </g>
        <g class="cls-33">
          <path class="cls-46" d="M653.87,231.56h0c4.1,0,7.41-1.95,7.41-4.37V108.51c0-2.41-3.31-4.37-7.41-4.37-4.77-.4-8,3.55-7.41,4.41,0,2.53,0,118.66,0,118.78C646.59,229.68,649.86,231.56,653.87,231.56Z"/>
        </g>
        <path class="cls-47" d="M662.65,413.37h0c4.09,0,7.41-1.95,7.41-4.37V262.77c0-2.41-3.32-4.37-7.41-4.37-5-.45-8.08,3.84-7.41,4.42,0,3.05,0,146.22,0,146.32C655.36,411.49,658.63,413.37,662.65,413.37Z"/>
        <path class="cls-46" d="M662.65,505.57h0c4.09,0,7.41-1.95,7.41-4.37V464.08c0-2.41-3.32-4.37-7.41-4.37-4.27-.15-7.68,2.5-7.41,4.39,0,.88,0,37.18,0,37.24C655.36,503.69,658.63,505.57,662.65,505.57Z"/>
        <path class="cls-43" d="M684.1,141.63h45.24L752,164.73l-22.62,23.1H684.1l-22.62-23.1Z"/>
        <path class="cls-48" d="M692.55,150.26h28.34l14.17,14.47L720.89,179.2H692.55l-14.17-14.47Z"/>
        <g class="cls-41">
          <polygon class="cls-42" points="638.95 88.57 774.49 88.57 774.49 94.19 638.95 101.06 638.95 88.57"/>
        </g>
        <rect class="cls-46" x="606.13" y="420.48" width="203.3" height="19.14"/>
        <rect class="cls-43" x="606.13" y="428.28" width="203.3" height="3.54"/>
        <g class="cls-41">
          <rect class="cls-42" x="648.48" y="439.62" width="118.59" height="10.4"/>
        </g>
        <g class="cls-41">
          <rect class="cls-42" x="648.48" y="240.89" width="118.59" height="10.4"/>
        </g>
        <path class="cls-46" d="M698.9,164.73c-.2,6,15.84,6,15.64,0C714.74,158.76,698.7,158.76,698.9,164.73Z"/>
        <path class="cls-49" d="M514.36,521.32c1,.23,66.25,14.86,88.38,58.07,6-22.86-5.37-64.29-26.84-104,.9.66,58.28,43.08,92.52,103.71.41-11.41,2.89-42,36.72-75.08,0,0-9.83,47.43,17,84.34,11.6-17.11,11.68-59.78,11.68-59.78,17.94,14.15,27.5,43.19,28.59,53.86,23.41-54.07,101.9-88.13,101.9-88.13-29.34,30.22-61.81,65.45-65.09,94.65,24.36-25.77,100.21-40.72,101.35-41-3.39.39-65.93,26.71-77.67,62.09H575.64s-3.29-47.85-53.86-83.82l4.71,3.16A143.79,143.79,0,0,0,514.36,521.32Z"/>
      </g>
    </g>
  </g>
</svg>
